<?xml version="1.0" encoding="utf-8" standalone="no"?>
<!DOCTYPE svg PUBLIC "-//W3C//DTD SVG 1.1//EN"
  "http://www.w3.org/Graphics/SVG/1.1/DTD/svg11.dtd">
<svg xmlns:xlink="http://www.w3.org/1999/xlink" width="4680pt" height="1080pt" viewBox="0 0 4680 1080" xmlns="http://www.w3.org/2000/svg" version="1.1">
 <metadata>
  <rdf:RDF xmlns:dc="http://purl.org/dc/elements/1.1/" xmlns:cc="http://creativecommons.org/ns#" xmlns:rdf="http://www.w3.org/1999/02/22-rdf-syntax-ns#">
   <cc:Work>
    <dc:type rdf:resource="http://purl.org/dc/dcmitype/StillImage"/>
    <dc:date>2024-03-25T15:25:00.066306</dc:date>
    <dc:format>image/svg+xml</dc:format>
    <dc:creator>
     <cc:Agent>
      <dc:title>Matplotlib v3.7.2, https://matplotlib.org/</dc:title>
     </cc:Agent>
    </dc:creator>
   </cc:Work>
  </rdf:RDF>
 </metadata>
 <defs>
  <style type="text/css">*{stroke-linejoin: round; stroke-linecap: butt}</style>
 </defs>
 <g id="figure_1">
  <g id="patch_1">
   <path d="M 0 1080 
L 4680 1080 
L 4680 0 
L 0 0 
z
" style="fill: #ffffff"/>
  </g>
  <g id="axes_1">
   <g id="patch_2">
    <path d="M 585 961.2 
L 4212 961.2 
L 4212 129.6 
L 585 129.6 
z
" style="fill: #ffffff"/>
   </g>
   <g id="matplotlib.axis_1">
    <g id="xtick_1">
     <g id="line2d_1">
      <defs>
       <path id="m635ce9dfe6" d="M 0 0 
L 0 3.5 
" style="stroke: #000000; stroke-width: 0.8"/>
      </defs>
      <g>
       <use xlink:href="#m635ce9dfe6" x="941.800468" y="961.2" style="stroke: #000000; stroke-width: 0.8"/>
      </g>
     </g>
     <g id="text_1">
      <!-- 2012-07 -->
      <g transform="translate(900.017655 983.396875) scale(0.2 -0.2)">
       <defs>
        <path id="DejaVuSans-32" d="M 1228 531 
L 3431 531 
L 3431 0 
L 469 0 
L 469 531 
Q 828 903 1448 1529 
Q 2069 2156 2228 2338 
Q 2531 2678 2651 2914 
Q 2772 3150 2772 3378 
Q 2772 3750 2511 3984 
Q 2250 4219 1831 4219 
Q 1534 4219 1204 4116 
Q 875 4013 500 3803 
L 500 4441 
Q 881 4594 1212 4672 
Q 1544 4750 1819 4750 
Q 2544 4750 2975 4387 
Q 3406 4025 3406 3419 
Q 3406 3131 3298 2873 
Q 3191 2616 2906 2266 
Q 2828 2175 2409 1742 
Q 1991 1309 1228 531 
z
" transform="scale(0.015625)"/>
        <path id="DejaVuSans-30" d="M 2034 4250 
Q 1547 4250 1301 3770 
Q 1056 3291 1056 2328 
Q 1056 1369 1301 889 
Q 1547 409 2034 409 
Q 2525 409 2770 889 
Q 3016 1369 3016 2328 
Q 3016 3291 2770 3770 
Q 2525 4250 2034 4250 
z
M 2034 4750 
Q 2819 4750 3233 4129 
Q 3647 3509 3647 2328 
Q 3647 1150 3233 529 
Q 2819 -91 2034 -91 
Q 1250 -91 836 529 
Q 422 1150 422 2328 
Q 422 3509 836 4129 
Q 1250 4750 2034 4750 
z
" transform="scale(0.015625)"/>
        <path id="DejaVuSans-31" d="M 794 531 
L 1825 531 
L 1825 4091 
L 703 3866 
L 703 4441 
L 1819 4666 
L 2450 4666 
L 2450 531 
L 3481 531 
L 3481 0 
L 794 0 
L 794 531 
z
" transform="scale(0.015625)"/>
        <path id="DejaVuSans-2d" d="M 313 2009 
L 1997 2009 
L 1997 1497 
L 313 1497 
L 313 2009 
z
" transform="scale(0.015625)"/>
        <path id="DejaVuSans-37" d="M 525 4666 
L 3525 4666 
L 3525 4397 
L 1831 0 
L 1172 0 
L 2766 4134 
L 525 4134 
L 525 4666 
z
" transform="scale(0.015625)"/>
       </defs>
       <use xlink:href="#DejaVuSans-32"/>
       <use xlink:href="#DejaVuSans-30" x="63.623047"/>
       <use xlink:href="#DejaVuSans-31" x="127.246094"/>
       <use xlink:href="#DejaVuSans-32" x="190.869141"/>
       <use xlink:href="#DejaVuSans-2d" x="254.492188"/>
       <use xlink:href="#DejaVuSans-30" x="290.576172"/>
       <use xlink:href="#DejaVuSans-37" x="354.199219"/>
      </g>
     </g>
    </g>
    <g id="xtick_2">
     <g id="line2d_2">
      <g>
       <use xlink:href="#m635ce9dfe6" x="1313.551805" y="961.2" style="stroke: #000000; stroke-width: 0.8"/>
      </g>
     </g>
     <g id="text_2">
      <!-- 2013-01 -->
      <g transform="translate(1271.768992 983.396875) scale(0.2 -0.2)">
       <defs>
        <path id="DejaVuSans-33" d="M 2597 2516 
Q 3050 2419 3304 2112 
Q 3559 1806 3559 1356 
Q 3559 666 3084 287 
Q 2609 -91 1734 -91 
Q 1441 -91 1130 -33 
Q 819 25 488 141 
L 488 750 
Q 750 597 1062 519 
Q 1375 441 1716 441 
Q 2309 441 2620 675 
Q 2931 909 2931 1356 
Q 2931 1769 2642 2001 
Q 2353 2234 1838 2234 
L 1294 2234 
L 1294 2753 
L 1863 2753 
Q 2328 2753 2575 2939 
Q 2822 3125 2822 3475 
Q 2822 3834 2567 4026 
Q 2313 4219 1838 4219 
Q 1578 4219 1281 4162 
Q 984 4106 628 3988 
L 628 4550 
Q 988 4650 1302 4700 
Q 1616 4750 1894 4750 
Q 2613 4750 3031 4423 
Q 3450 4097 3450 3541 
Q 3450 3153 3228 2886 
Q 3006 2619 2597 2516 
z
" transform="scale(0.015625)"/>
       </defs>
       <use xlink:href="#DejaVuSans-32"/>
       <use xlink:href="#DejaVuSans-30" x="63.623047"/>
       <use xlink:href="#DejaVuSans-31" x="127.246094"/>
       <use xlink:href="#DejaVuSans-33" x="190.869141"/>
       <use xlink:href="#DejaVuSans-2d" x="254.492188"/>
       <use xlink:href="#DejaVuSans-30" x="290.576172"/>
       <use xlink:href="#DejaVuSans-31" x="354.199219"/>
      </g>
     </g>
    </g>
    <g id="xtick_3">
     <g id="line2d_3">
      <g>
       <use xlink:href="#m635ce9dfe6" x="1679.241979" y="961.2" style="stroke: #000000; stroke-width: 0.8"/>
      </g>
     </g>
     <g id="text_3">
      <!-- 2013-07 -->
      <g transform="translate(1637.459166 983.396875) scale(0.2 -0.2)">
       <use xlink:href="#DejaVuSans-32"/>
       <use xlink:href="#DejaVuSans-30" x="63.623047"/>
       <use xlink:href="#DejaVuSans-31" x="127.246094"/>
       <use xlink:href="#DejaVuSans-33" x="190.869141"/>
       <use xlink:href="#DejaVuSans-2d" x="254.492188"/>
       <use xlink:href="#DejaVuSans-30" x="290.576172"/>
       <use xlink:href="#DejaVuSans-37" x="354.199219"/>
      </g>
     </g>
    </g>
    <g id="xtick_4">
     <g id="line2d_4">
      <g>
       <use xlink:href="#m635ce9dfe6" x="2050.993316" y="961.2" style="stroke: #000000; stroke-width: 0.8"/>
      </g>
     </g>
     <g id="text_4">
      <!-- 2014-01 -->
      <g transform="translate(2009.210503 983.396875) scale(0.2 -0.2)">
       <defs>
        <path id="DejaVuSans-34" d="M 2419 4116 
L 825 1625 
L 2419 1625 
L 2419 4116 
z
M 2253 4666 
L 3047 4666 
L 3047 1625 
L 3713 1625 
L 3713 1100 
L 3047 1100 
L 3047 0 
L 2419 0 
L 2419 1100 
L 313 1100 
L 313 1709 
L 2253 4666 
z
" transform="scale(0.015625)"/>
       </defs>
       <use xlink:href="#DejaVuSans-32"/>
       <use xlink:href="#DejaVuSans-30" x="63.623047"/>
       <use xlink:href="#DejaVuSans-31" x="127.246094"/>
       <use xlink:href="#DejaVuSans-34" x="190.869141"/>
       <use xlink:href="#DejaVuSans-2d" x="254.492188"/>
       <use xlink:href="#DejaVuSans-30" x="290.576172"/>
       <use xlink:href="#DejaVuSans-31" x="354.199219"/>
      </g>
     </g>
    </g>
    <g id="xtick_5">
     <g id="line2d_5">
      <g>
       <use xlink:href="#m635ce9dfe6" x="2416.683489" y="961.2" style="stroke: #000000; stroke-width: 0.8"/>
      </g>
     </g>
     <g id="text_5">
      <!-- 2014-07 -->
      <g transform="translate(2374.900677 983.396875) scale(0.2 -0.2)">
       <use xlink:href="#DejaVuSans-32"/>
       <use xlink:href="#DejaVuSans-30" x="63.623047"/>
       <use xlink:href="#DejaVuSans-31" x="127.246094"/>
       <use xlink:href="#DejaVuSans-34" x="190.869141"/>
       <use xlink:href="#DejaVuSans-2d" x="254.492188"/>
       <use xlink:href="#DejaVuSans-30" x="290.576172"/>
       <use xlink:href="#DejaVuSans-37" x="354.199219"/>
      </g>
     </g>
    </g>
    <g id="xtick_6">
     <g id="line2d_6">
      <g>
       <use xlink:href="#m635ce9dfe6" x="2788.434826" y="961.2" style="stroke: #000000; stroke-width: 0.8"/>
      </g>
     </g>
     <g id="text_6">
      <!-- 2015-01 -->
      <g transform="translate(2746.652014 983.396875) scale(0.2 -0.2)">
       <defs>
        <path id="DejaVuSans-35" d="M 691 4666 
L 3169 4666 
L 3169 4134 
L 1269 4134 
L 1269 2991 
Q 1406 3038 1543 3061 
Q 1681 3084 1819 3084 
Q 2600 3084 3056 2656 
Q 3513 2228 3513 1497 
Q 3513 744 3044 326 
Q 2575 -91 1722 -91 
Q 1428 -91 1123 -41 
Q 819 9 494 109 
L 494 744 
Q 775 591 1075 516 
Q 1375 441 1709 441 
Q 2250 441 2565 725 
Q 2881 1009 2881 1497 
Q 2881 1984 2565 2268 
Q 2250 2553 1709 2553 
Q 1456 2553 1204 2497 
Q 953 2441 691 2322 
L 691 4666 
z
" transform="scale(0.015625)"/>
       </defs>
       <use xlink:href="#DejaVuSans-32"/>
       <use xlink:href="#DejaVuSans-30" x="63.623047"/>
       <use xlink:href="#DejaVuSans-31" x="127.246094"/>
       <use xlink:href="#DejaVuSans-35" x="190.869141"/>
       <use xlink:href="#DejaVuSans-2d" x="254.492188"/>
       <use xlink:href="#DejaVuSans-30" x="290.576172"/>
       <use xlink:href="#DejaVuSans-31" x="354.199219"/>
      </g>
     </g>
    </g>
    <g id="xtick_7">
     <g id="line2d_7">
      <g>
       <use xlink:href="#m635ce9dfe6" x="3154.125" y="961.2" style="stroke: #000000; stroke-width: 0.8"/>
      </g>
     </g>
     <g id="text_7">
      <!-- 2015-07 -->
      <g transform="translate(3112.342188 983.396875) scale(0.2 -0.2)">
       <use xlink:href="#DejaVuSans-32"/>
       <use xlink:href="#DejaVuSans-30" x="63.623047"/>
       <use xlink:href="#DejaVuSans-31" x="127.246094"/>
       <use xlink:href="#DejaVuSans-35" x="190.869141"/>
       <use xlink:href="#DejaVuSans-2d" x="254.492188"/>
       <use xlink:href="#DejaVuSans-30" x="290.576172"/>
       <use xlink:href="#DejaVuSans-37" x="354.199219"/>
      </g>
     </g>
    </g>
    <g id="xtick_8">
     <g id="line2d_8">
      <g>
       <use xlink:href="#m635ce9dfe6" x="3525.876337" y="961.2" style="stroke: #000000; stroke-width: 0.8"/>
      </g>
     </g>
     <g id="text_8">
      <!-- 2016-01 -->
      <g transform="translate(3484.093524 983.396875) scale(0.2 -0.2)">
       <defs>
        <path id="DejaVuSans-36" d="M 2113 2584 
Q 1688 2584 1439 2293 
Q 1191 2003 1191 1497 
Q 1191 994 1439 701 
Q 1688 409 2113 409 
Q 2538 409 2786 701 
Q 3034 994 3034 1497 
Q 3034 2003 2786 2293 
Q 2538 2584 2113 2584 
z
M 3366 4563 
L 3366 3988 
Q 3128 4100 2886 4159 
Q 2644 4219 2406 4219 
Q 1781 4219 1451 3797 
Q 1122 3375 1075 2522 
Q 1259 2794 1537 2939 
Q 1816 3084 2150 3084 
Q 2853 3084 3261 2657 
Q 3669 2231 3669 1497 
Q 3669 778 3244 343 
Q 2819 -91 2113 -91 
Q 1303 -91 875 529 
Q 447 1150 447 2328 
Q 447 3434 972 4092 
Q 1497 4750 2381 4750 
Q 2619 4750 2861 4703 
Q 3103 4656 3366 4563 
z
" transform="scale(0.015625)"/>
       </defs>
       <use xlink:href="#DejaVuSans-32"/>
       <use xlink:href="#DejaVuSans-30" x="63.623047"/>
       <use xlink:href="#DejaVuSans-31" x="127.246094"/>
       <use xlink:href="#DejaVuSans-36" x="190.869141"/>
       <use xlink:href="#DejaVuSans-2d" x="254.492188"/>
       <use xlink:href="#DejaVuSans-30" x="290.576172"/>
       <use xlink:href="#DejaVuSans-31" x="354.199219"/>
      </g>
     </g>
    </g>
    <g id="xtick_9">
     <g id="line2d_9">
      <g>
       <use xlink:href="#m635ce9dfe6" x="3893.586898" y="961.2" style="stroke: #000000; stroke-width: 0.8"/>
      </g>
     </g>
     <g id="text_9">
      <!-- 2016-07 -->
      <g transform="translate(3851.804086 983.396875) scale(0.2 -0.2)">
       <use xlink:href="#DejaVuSans-32"/>
       <use xlink:href="#DejaVuSans-30" x="63.623047"/>
       <use xlink:href="#DejaVuSans-31" x="127.246094"/>
       <use xlink:href="#DejaVuSans-36" x="190.869141"/>
       <use xlink:href="#DejaVuSans-2d" x="254.492188"/>
       <use xlink:href="#DejaVuSans-30" x="290.576172"/>
       <use xlink:href="#DejaVuSans-37" x="354.199219"/>
      </g>
     </g>
    </g>
    <g id="text_10">
     <!-- Time -->
     <g transform="translate(2374.032813 1006.753125) scale(0.2 -0.2)">
      <defs>
       <path id="DejaVuSans-54" d="M -19 4666 
L 3928 4666 
L 3928 4134 
L 2272 4134 
L 2272 0 
L 1638 0 
L 1638 4134 
L -19 4134 
L -19 4666 
z
" transform="scale(0.015625)"/>
       <path id="DejaVuSans-69" d="M 603 3500 
L 1178 3500 
L 1178 0 
L 603 0 
L 603 3500 
z
M 603 4863 
L 1178 4863 
L 1178 4134 
L 603 4134 
L 603 4863 
z
" transform="scale(0.015625)"/>
       <path id="DejaVuSans-6d" d="M 3328 2828 
Q 3544 3216 3844 3400 
Q 4144 3584 4550 3584 
Q 5097 3584 5394 3201 
Q 5691 2819 5691 2113 
L 5691 0 
L 5113 0 
L 5113 2094 
Q 5113 2597 4934 2840 
Q 4756 3084 4391 3084 
Q 3944 3084 3684 2787 
Q 3425 2491 3425 1978 
L 3425 0 
L 2847 0 
L 2847 2094 
Q 2847 2600 2669 2842 
Q 2491 3084 2119 3084 
Q 1678 3084 1418 2786 
Q 1159 2488 1159 1978 
L 1159 0 
L 581 0 
L 581 3500 
L 1159 3500 
L 1159 2956 
Q 1356 3278 1631 3431 
Q 1906 3584 2284 3584 
Q 2666 3584 2933 3390 
Q 3200 3197 3328 2828 
z
" transform="scale(0.015625)"/>
       <path id="DejaVuSans-65" d="M 3597 1894 
L 3597 1613 
L 953 1613 
Q 991 1019 1311 708 
Q 1631 397 2203 397 
Q 2534 397 2845 478 
Q 3156 559 3463 722 
L 3463 178 
Q 3153 47 2828 -22 
Q 2503 -91 2169 -91 
Q 1331 -91 842 396 
Q 353 884 353 1716 
Q 353 2575 817 3079 
Q 1281 3584 2069 3584 
Q 2775 3584 3186 3129 
Q 3597 2675 3597 1894 
z
M 3022 2063 
Q 3016 2534 2758 2815 
Q 2500 3097 2075 3097 
Q 1594 3097 1305 2825 
Q 1016 2553 972 2059 
L 3022 2063 
z
" transform="scale(0.015625)"/>
      </defs>
      <use xlink:href="#DejaVuSans-54"/>
      <use xlink:href="#DejaVuSans-69" x="57.958984"/>
      <use xlink:href="#DejaVuSans-6d" x="85.742188"/>
      <use xlink:href="#DejaVuSans-65" x="183.154297"/>
     </g>
    </g>
   </g>
   <g id="matplotlib.axis_2">
    <g id="ytick_1">
     <g id="line2d_10">
      <defs>
       <path id="m088e3fd019" d="M 0 0 
L -3.5 0 
" style="stroke: #000000; stroke-width: 0.8"/>
      </defs>
      <g>
       <use xlink:href="#m088e3fd019" x="585" y="942.48007" style="stroke: #000000; stroke-width: 0.8"/>
      </g>
     </g>
     <g id="text_11">
      <!-- −0.0010 -->
      <g transform="translate(491.259375 950.078507) scale(0.2 -0.2)">
       <defs>
        <path id="DejaVuSans-2212" d="M 678 2272 
L 4684 2272 
L 4684 1741 
L 678 1741 
L 678 2272 
z
" transform="scale(0.015625)"/>
        <path id="DejaVuSans-2e" d="M 684 794 
L 1344 794 
L 1344 0 
L 684 0 
L 684 794 
z
" transform="scale(0.015625)"/>
       </defs>
       <use xlink:href="#DejaVuSans-2212"/>
       <use xlink:href="#DejaVuSans-30" x="83.789062"/>
       <use xlink:href="#DejaVuSans-2e" x="147.412109"/>
       <use xlink:href="#DejaVuSans-30" x="179.199219"/>
       <use xlink:href="#DejaVuSans-30" x="242.822266"/>
       <use xlink:href="#DejaVuSans-31" x="306.445312"/>
       <use xlink:href="#DejaVuSans-30" x="370.068359"/>
      </g>
     </g>
    </g>
    <g id="ytick_2">
     <g id="line2d_11">
      <g>
       <use xlink:href="#m088e3fd019" x="585" y="844.82921" style="stroke: #000000; stroke-width: 0.8"/>
      </g>
     </g>
     <g id="text_12">
      <!-- −0.0005 -->
      <g transform="translate(491.259375 852.427648) scale(0.2 -0.2)">
       <use xlink:href="#DejaVuSans-2212"/>
       <use xlink:href="#DejaVuSans-30" x="83.789062"/>
       <use xlink:href="#DejaVuSans-2e" x="147.412109"/>
       <use xlink:href="#DejaVuSans-30" x="179.199219"/>
       <use xlink:href="#DejaVuSans-30" x="242.822266"/>
       <use xlink:href="#DejaVuSans-30" x="306.445312"/>
       <use xlink:href="#DejaVuSans-35" x="370.068359"/>
      </g>
     </g>
    </g>
    <g id="ytick_3">
     <g id="line2d_12">
      <g>
       <use xlink:href="#m088e3fd019" x="585" y="747.178351" style="stroke: #000000; stroke-width: 0.8"/>
      </g>
     </g>
     <g id="text_13">
      <!-- 0.0000 -->
      <g transform="translate(508.01875 754.776789) scale(0.2 -0.2)">
       <use xlink:href="#DejaVuSans-30"/>
       <use xlink:href="#DejaVuSans-2e" x="63.623047"/>
       <use xlink:href="#DejaVuSans-30" x="95.410156"/>
       <use xlink:href="#DejaVuSans-30" x="159.033203"/>
       <use xlink:href="#DejaVuSans-30" x="222.65625"/>
       <use xlink:href="#DejaVuSans-30" x="286.279297"/>
      </g>
     </g>
    </g>
    <g id="ytick_4">
     <g id="line2d_13">
      <g>
       <use xlink:href="#m088e3fd019" x="585" y="649.527492" style="stroke: #000000; stroke-width: 0.8"/>
      </g>
     </g>
     <g id="text_14">
      <!-- 0.0005 -->
      <g transform="translate(508.01875 657.12593) scale(0.2 -0.2)">
       <use xlink:href="#DejaVuSans-30"/>
       <use xlink:href="#DejaVuSans-2e" x="63.623047"/>
       <use xlink:href="#DejaVuSans-30" x="95.410156"/>
       <use xlink:href="#DejaVuSans-30" x="159.033203"/>
       <use xlink:href="#DejaVuSans-30" x="222.65625"/>
       <use xlink:href="#DejaVuSans-35" x="286.279297"/>
      </g>
     </g>
    </g>
    <g id="ytick_5">
     <g id="line2d_14">
      <g>
       <use xlink:href="#m088e3fd019" x="585" y="551.876633" style="stroke: #000000; stroke-width: 0.8"/>
      </g>
     </g>
     <g id="text_15">
      <!-- 0.0010 -->
      <g transform="translate(508.01875 559.47507) scale(0.2 -0.2)">
       <use xlink:href="#DejaVuSans-30"/>
       <use xlink:href="#DejaVuSans-2e" x="63.623047"/>
       <use xlink:href="#DejaVuSans-30" x="95.410156"/>
       <use xlink:href="#DejaVuSans-30" x="159.033203"/>
       <use xlink:href="#DejaVuSans-31" x="222.65625"/>
       <use xlink:href="#DejaVuSans-30" x="286.279297"/>
      </g>
     </g>
    </g>
    <g id="ytick_6">
     <g id="line2d_15">
      <g>
       <use xlink:href="#m088e3fd019" x="585" y="454.225774" style="stroke: #000000; stroke-width: 0.8"/>
      </g>
     </g>
     <g id="text_16">
      <!-- 0.0015 -->
      <g transform="translate(508.01875 461.824211) scale(0.2 -0.2)">
       <use xlink:href="#DejaVuSans-30"/>
       <use xlink:href="#DejaVuSans-2e" x="63.623047"/>
       <use xlink:href="#DejaVuSans-30" x="95.410156"/>
       <use xlink:href="#DejaVuSans-30" x="159.033203"/>
       <use xlink:href="#DejaVuSans-31" x="222.65625"/>
       <use xlink:href="#DejaVuSans-35" x="286.279297"/>
      </g>
     </g>
    </g>
    <g id="ytick_7">
     <g id="line2d_16">
      <g>
       <use xlink:href="#m088e3fd019" x="585" y="356.574914" style="stroke: #000000; stroke-width: 0.8"/>
      </g>
     </g>
     <g id="text_17">
      <!-- 0.0020 -->
      <g transform="translate(508.01875 364.173352) scale(0.2 -0.2)">
       <use xlink:href="#DejaVuSans-30"/>
       <use xlink:href="#DejaVuSans-2e" x="63.623047"/>
       <use xlink:href="#DejaVuSans-30" x="95.410156"/>
       <use xlink:href="#DejaVuSans-30" x="159.033203"/>
       <use xlink:href="#DejaVuSans-32" x="222.65625"/>
       <use xlink:href="#DejaVuSans-30" x="286.279297"/>
      </g>
     </g>
    </g>
    <g id="ytick_8">
     <g id="line2d_17">
      <g>
       <use xlink:href="#m088e3fd019" x="585" y="258.924055" style="stroke: #000000; stroke-width: 0.8"/>
      </g>
     </g>
     <g id="text_18">
      <!-- 0.0025 -->
      <g transform="translate(508.01875 266.522493) scale(0.2 -0.2)">
       <use xlink:href="#DejaVuSans-30"/>
       <use xlink:href="#DejaVuSans-2e" x="63.623047"/>
       <use xlink:href="#DejaVuSans-30" x="95.410156"/>
       <use xlink:href="#DejaVuSans-30" x="159.033203"/>
       <use xlink:href="#DejaVuSans-32" x="222.65625"/>
       <use xlink:href="#DejaVuSans-35" x="286.279297"/>
      </g>
     </g>
    </g>
    <g id="ytick_9">
     <g id="line2d_18">
      <g>
       <use xlink:href="#m088e3fd019" x="585" y="161.273196" style="stroke: #000000; stroke-width: 0.8"/>
      </g>
     </g>
     <g id="text_19">
      <!-- 0.0030 -->
      <g transform="translate(508.01875 168.871633) scale(0.2 -0.2)">
       <use xlink:href="#DejaVuSans-30"/>
       <use xlink:href="#DejaVuSans-2e" x="63.623047"/>
       <use xlink:href="#DejaVuSans-30" x="95.410156"/>
       <use xlink:href="#DejaVuSans-30" x="159.033203"/>
       <use xlink:href="#DejaVuSans-33" x="222.65625"/>
       <use xlink:href="#DejaVuSans-30" x="286.279297"/>
      </g>
     </g>
    </g>
    <g id="text_20">
     <!-- North(m) -->
     <g transform="translate(483.1 590.9125) rotate(-90) scale(0.2 -0.2)">
      <defs>
       <path id="DejaVuSans-4e" d="M 628 4666 
L 1478 4666 
L 3547 763 
L 3547 4666 
L 4159 4666 
L 4159 0 
L 3309 0 
L 1241 3903 
L 1241 0 
L 628 0 
L 628 4666 
z
" transform="scale(0.015625)"/>
       <path id="DejaVuSans-6f" d="M 1959 3097 
Q 1497 3097 1228 2736 
Q 959 2375 959 1747 
Q 959 1119 1226 758 
Q 1494 397 1959 397 
Q 2419 397 2687 759 
Q 2956 1122 2956 1747 
Q 2956 2369 2687 2733 
Q 2419 3097 1959 3097 
z
M 1959 3584 
Q 2709 3584 3137 3096 
Q 3566 2609 3566 1747 
Q 3566 888 3137 398 
Q 2709 -91 1959 -91 
Q 1206 -91 779 398 
Q 353 888 353 1747 
Q 353 2609 779 3096 
Q 1206 3584 1959 3584 
z
" transform="scale(0.015625)"/>
       <path id="DejaVuSans-72" d="M 2631 2963 
Q 2534 3019 2420 3045 
Q 2306 3072 2169 3072 
Q 1681 3072 1420 2755 
Q 1159 2438 1159 1844 
L 1159 0 
L 581 0 
L 581 3500 
L 1159 3500 
L 1159 2956 
Q 1341 3275 1631 3429 
Q 1922 3584 2338 3584 
Q 2397 3584 2469 3576 
Q 2541 3569 2628 3553 
L 2631 2963 
z
" transform="scale(0.015625)"/>
       <path id="DejaVuSans-74" d="M 1172 4494 
L 1172 3500 
L 2356 3500 
L 2356 3053 
L 1172 3053 
L 1172 1153 
Q 1172 725 1289 603 
Q 1406 481 1766 481 
L 2356 481 
L 2356 0 
L 1766 0 
Q 1100 0 847 248 
Q 594 497 594 1153 
L 594 3053 
L 172 3053 
L 172 3500 
L 594 3500 
L 594 4494 
L 1172 4494 
z
" transform="scale(0.015625)"/>
       <path id="DejaVuSans-68" d="M 3513 2113 
L 3513 0 
L 2938 0 
L 2938 2094 
Q 2938 2591 2744 2837 
Q 2550 3084 2163 3084 
Q 1697 3084 1428 2787 
Q 1159 2491 1159 1978 
L 1159 0 
L 581 0 
L 581 4863 
L 1159 4863 
L 1159 2956 
Q 1366 3272 1645 3428 
Q 1925 3584 2291 3584 
Q 2894 3584 3203 3211 
Q 3513 2838 3513 2113 
z
" transform="scale(0.015625)"/>
       <path id="DejaVuSans-28" d="M 1984 4856 
Q 1566 4138 1362 3434 
Q 1159 2731 1159 2009 
Q 1159 1288 1364 580 
Q 1569 -128 1984 -844 
L 1484 -844 
Q 1016 -109 783 600 
Q 550 1309 550 2009 
Q 550 2706 781 3412 
Q 1013 4119 1484 4856 
L 1984 4856 
z
" transform="scale(0.015625)"/>
       <path id="DejaVuSans-29" d="M 513 4856 
L 1013 4856 
Q 1481 4119 1714 3412 
Q 1947 2706 1947 2009 
Q 1947 1309 1714 600 
Q 1481 -109 1013 -844 
L 513 -844 
Q 928 -128 1133 580 
Q 1338 1288 1338 2009 
Q 1338 2731 1133 3434 
Q 928 4138 513 4856 
z
" transform="scale(0.015625)"/>
      </defs>
      <use xlink:href="#DejaVuSans-4e"/>
      <use xlink:href="#DejaVuSans-6f" x="74.804688"/>
      <use xlink:href="#DejaVuSans-72" x="135.986328"/>
      <use xlink:href="#DejaVuSans-74" x="177.099609"/>
      <use xlink:href="#DejaVuSans-68" x="216.308594"/>
      <use xlink:href="#DejaVuSans-28" x="279.6875"/>
      <use xlink:href="#DejaVuSans-6d" x="318.701172"/>
      <use xlink:href="#DejaVuSans-29" x="416.113281"/>
     </g>
    </g>
   </g>
   <g id="line2d_19">
    <path d="M 749.863636 301.413978 
L 755.924799 415.563025 
L 761.985963 417.222727 
L 764.00635 459.237789 
L 766.026738 463.295721 
L 768.047126 491.694325 
L 770.067513 515.332766 
L 772.087901 461.15176 
L 774.108289 497.973803 
L 776.128676 434.389624 
L 790.27139 311.155147 
L 792.291778 354.276777 
L 794.312166 414.056113 
L 796.332553 419.484721 
L 798.352941 442.731517 
L 800.373329 516.773123 
L 802.393717 525.942042 
L 806.434492 567.927752 
L 808.45488 591.688709 
L 810.475267 560.290672 
L 812.495655 531.707832 
L 824.617981 549.9946 
L 830.679144 583.624091 
L 832.699532 528.986702 
L 834.71992 478.900871 
L 836.740307 516.388146 
L 844.821858 416.659915 
L 850.883021 352.553867 
L 852.903409 376.359841 
L 854.923797 440.154738 
L 856.944184 472.229418 
L 860.98496 493.092258 
L 867.046123 496.662085 
L 869.066511 424.807232 
L 873.107286 424.349281 
L 875.127674 410.44876 
L 877.148061 448.944125 
L 879.168449 489.56848 
L 881.188837 555.471479 
L 883.209225 546.79122 
L 885.229612 498.36546 
L 889.270388 530.207438 
L 891.290775 554.889313 
L 893.311163 531.524659 
L 895.331551 518.824611 
L 899.372326 573.166772 
L 901.392714 552.193065 
L 903.413102 558.399425 
L 905.433489 501.013004 
L 907.453877 450.388517 
L 909.474265 375.246228 
L 913.51504 346.825741 
L 915.535428 310.165804 
L 917.555816 257.699098 
L 933.718917 537.838444 
L 937.759693 482.592316 
L 1044.840241 538.775157 
L 1048.881016 506.687512 
L 1212.53242 458.969924 
L 1214.552807 411.370404 
L 1216.573195 423.106458 
L 1226.675134 564.180803 
L 1232.736297 678.495125 
L 1234.756684 665.532455 
L 1236.777072 660.536486 
L 1238.79746 693.973468 
L 1240.817848 628.82024 
L 1242.838235 601.819068 
L 1252.940174 541.467804 
L 1333.755682 511.576682 
L 1335.77607 556.708667 
L 1337.796457 572.457193 
L 1341.837233 786.110995 
L 1372.143048 273.155338 
L 1374.163436 224.150729 
L 1376.183824 224.092968 
L 1378.204211 222.869244 
L 1382.244987 252.492989 
L 1384.265374 302.821911 
L 1386.285762 257.098888 
L 1388.30615 258.983544 
L 1390.326537 246.252877 
L 1392.346925 249.258367 
L 1394.367313 288.302323 
L 1398.408088 395.340362 
L 1402.448864 846.00259 
L 1404.469251 857.898171 
L 1406.489639 843.431993 
L 1412.550802 615.538071 
L 1414.57119 422.473153 
L 1416.591578 215.088919 
L 1418.611965 308.760094 
L 1420.632353 462.614627 
L 1422.652741 531.16625 
L 1424.673128 534.905954 
L 1426.693516 611.611328 
L 1428.713904 680.671673 
L 1432.754679 613.342667 
L 1434.775067 494.956669 
L 1436.795455 450.907727 
L 1442.856618 476.909124 
L 1444.877005 432.806171 
L 1446.897393 444.92848 
L 1454.978944 463.013075 
L 1456.999332 406.218682 
L 1459.019719 435.626817 
L 1461.040107 446.563102 
L 1463.060495 436.462131 
L 1465.080882 447.932774 
L 1471.142045 502.594408 
L 1473.162433 477.549923 
L 1475.182821 419.827025 
L 1479.223596 253.676271 
L 1481.243984 225.960199 
L 1483.264372 233.566728 
L 1485.284759 282.116111 
L 1487.305147 317.828445 
L 1489.325535 375.624976 
L 1491.345922 406.383745 
L 1493.36631 451.76336 
L 1495.386698 379.842029 
L 1497.407086 354.580135 
L 1501.447861 251.2685 
L 1669.14004 624.344726 
L 1673.180816 581.778512 
L 1677.221591 636.110929 
L 1681.262366 553.748556 
L 1683.282754 586.191896 
L 1687.323529 503.532325 
L 1689.343917 474.053497 
L 1691.364305 440.906311 
L 1693.384693 448.462227 
L 1695.40508 520.697463 
L 1697.425468 534.347427 
L 1699.445856 470.955934 
L 1701.466243 499.06536 
L 1703.486631 570.563798 
L 1705.507019 600.315597 
L 1707.527406 573.653792 
L 1709.547794 558.511916 
L 1711.568182 519.6979 
L 1715.608957 566.903825 
L 1717.629345 473.503842 
L 1719.649733 457.35488 
L 1721.67012 465.812367 
L 1723.690508 433.773738 
L 1725.710896 488.202729 
L 1727.731283 583.509502 
L 1729.751671 589.84252 
L 1731.772059 617.98067 
L 1739.85361 676.72029 
L 1741.873997 605.311861 
L 1743.894385 603.867826 
L 1745.914773 614.966124 
L 1747.93516 569.650401 
L 1749.955548 530.610076 
L 1751.975936 524.561204 
L 1753.996324 556.900826 
L 1756.016711 638.868339 
L 1758.037099 633.319317 
L 1768.139037 727.231658 
L 1780.261364 347.766444 
L 1782.281751 315.966739 
L 1784.302139 353.643892 
L 1786.322527 342.563012 
L 1788.342914 359.761625 
L 1790.363302 379.692483 
L 1792.38369 360.391727 
L 1794.404078 305.155739 
L 1796.424465 280.278388 
L 1806.526404 276.930228 
L 1808.546791 244.525068 
L 1810.567179 216.595905 
L 1812.587567 231.329994 
L 1814.607955 294.230814 
L 1816.628342 291.014679 
L 1818.64873 280.693625 
L 1822.689505 362.640073 
L 1824.709893 385.533495 
L 1826.730281 360.074113 
L 1828.750668 423.103987 
L 1830.771056 447.125757 
L 1832.791444 439.621548 
L 1834.811832 307.724348 
L 1836.832219 315.067041 
L 1838.852607 311.493395 
L 1954.014706 450.703979 
L 1956.035094 522.331387 
L 1958.055481 443.392917 
L 1960.075869 495.725198 
L 1962.096257 551.289032 
L 1966.137032 613.998236 
L 1968.15742 650.066138 
L 1980.279746 370.450405 
L 1982.300134 317.367583 
L 1988.361297 420.460215 
L 1990.381684 512.545387 
L 1992.402072 486.895319 
L 1994.42246 449.454085 
L 1996.442848 446.227781 
L 2000.483623 314.585094 
L 2073.21758 311.818577 
L 2075.237968 366.147715 
L 2079.278743 519.126038 
L 2081.299131 496.551864 
L 2380.316511 167.4 
L 2438.907754 478.502655 
L 2442.948529 466.240985 
L 2446.989305 384.527266 
L 2451.03008 229.792542 
L 2467.193182 415.260415 
L 3176.349265 594.504482 
L 3178.369652 647.837818 
L 3180.39004 630.183098 
L 3182.410428 607.753553 
L 3184.430816 572.801007 
L 3186.451203 572.116129 
L 3190.491979 596.199191 
L 3192.512366 622.383268 
L 3194.532754 552.934822 
L 3196.553142 535.926228 
L 3200.593917 608.441942 
L 3208.675468 678.975631 
L 3210.695856 740.022657 
L 3212.716243 791.580504 
L 3214.736631 684.326827 
L 3216.757019 619.459507 
L 3220.797794 509.455049 
L 3222.818182 532.177008 
L 3224.83857 492.927321 
L 3226.858957 538.698958 
L 3228.879345 568.651966 
L 3230.899733 626.833282 
L 3253.123997 548.44708 
L 3257.164773 561.926593 
L 3259.18516 621.320981 
L 3261.205548 589.826 
L 3265.246324 561.066621 
L 3267.266711 581.000356 
L 3269.287099 596.621816 
L 3277.36865 561.858729 
L 3287.470588 565.116314 
L 3289.490976 526.419532 
L 3291.511364 478.070925 
L 3293.531751 420.792455 
L 3295.552139 388.17885 
L 3297.572527 334.268548 
L 3299.592914 419.70951 
L 3301.613302 442.24317 
L 3303.63369 485.226626 
L 3305.654078 522.364116 
L 3309.694853 482.148784 
L 3315.756016 494.058784 
L 3317.776404 482.961695 
L 3319.796791 468.793912 
L 3321.817179 617.05235 
L 3323.837567 582.813277 
L 3325.857955 565.470626 
L 3327.878342 519.717142 
L 3329.89873 540.015695 
L 3331.919118 516.054588 
L 3340.000668 546.924847 
L 3342.021056 629.298883 
L 3344.041444 678.467012 
L 3346.061832 681.806575 
L 3348.082219 643.565509 
L 3350.102607 580.013173 
L 3352.122995 588.173069 
L 3356.16377 419.464306 
L 3358.184158 382.332244 
L 3360.204545 390.302082 
L 3364.245321 521.458654 
L 3366.265709 506.043891 
L 3370.306484 640.94188 
L 3372.326872 681.499303 
L 3374.347259 712.980336 
L 3376.367647 657.806982 
L 3400.612299 447.916456 
L 3402.632687 449.523942 
L 3404.653075 489.838928 
L 3406.673463 498.211327 
L 3410.714238 540.820441 
L 3412.734626 577.577253 
L 3414.755013 577.773206 
L 3416.775401 571.719923 
L 3418.795789 558.300556 
L 3420.816176 551.403553 
L 3422.836564 536.694956 
L 3424.856952 516.957333 
L 3426.87734 486.736141 
L 3428.897727 516.026591 
L 3432.938503 506.336431 
L 3434.95889 493.985661 
L 3436.979278 489.414653 
L 3438.999666 490.757869 
L 3441.020053 482.650453 
L 3443.040441 488.886909 
L 3445.060829 530.055313 
L 3447.081217 509.692347 
L 3449.101604 519.660514 
L 3451.121992 528.057771 
L 3453.14238 497.625113 
L 3455.162767 538.744628 
L 3457.183155 547.501746 
L 3459.203543 544.799835 
L 3461.22393 521.717739 
L 3463.244318 477.969112 
L 3467.285094 495.097687 
L 3469.305481 483.187027 
L 3471.325869 467.563455 
L 3473.346257 470.818892 
L 3475.366644 488.015763 
L 3477.387032 510.529388 
L 3479.40742 502.485677 
L 3481.427807 499.954377 
L 3483.448195 465.222331 
L 3485.468583 449.384617 
L 3487.488971 451.411259 
L 3489.509358 447.58607 
L 3491.529746 478.960317 
L 3493.550134 465.856813 
L 3497.590909 497.514132 
L 3499.611297 517.825529 
L 3501.631684 529.507938 
L 3503.652072 543.585943 
L 3505.67246 541.468356 
L 3507.692848 575.342013 
L 3509.713235 585.874193 
L 3511.733623 516.850519 
L 3515.774398 415.657291 
L 3517.794786 388.113232 
L 3519.815174 396.185853 
L 3521.835561 367.398548 
L 3523.855949 379.214338 
L 3529.917112 540.986225 
L 3531.9375 583.207684 
L 3533.957888 581.066494 
L 3535.978275 616.467288 
L 3537.998663 596.5843 
L 3540.019051 629.838883 
L 3542.039439 623.66895 
L 3544.059826 603.161484 
L 3548.100602 559.115827 
L 3550.120989 573.452108 
L 3552.141377 535.540878 
L 3554.161765 504.197325 
L 3558.20254 339.813144 
L 3560.222928 326.759666 
L 3562.243316 320.123411 
L 3564.263703 293.64169 
L 3566.284091 303.347218 
L 3568.304479 350.021409 
L 3570.324866 437.390312 
L 3572.345254 480.567978 
L 3582.447193 519.653946 
L 3584.46758 516.18559 
L 3586.487968 479.828377 
L 3590.528743 318.522647 
L 3592.549131 252.036413 
L 3594.569519 215.625949 
L 3596.589906 213.174333 
L 3598.610294 178.72591 
L 3600.630682 312.709012 
L 3602.65107 421.121759 
L 3604.671457 489.205001 
L 3647.099599 654.822617 
L 3649.119987 589.008156 
L 3653.160762 627.442288 
L 3659.221925 584.111428 
L 3661.242313 547.158838 
L 3663.262701 539.025535 
L 3665.283088 578.518678 
L 3667.303476 552.70428 
L 3669.323864 474.210265 
L 3671.344251 407.089586 
L 3673.364639 470.291588 
L 3675.385027 493.817741 
L 3677.405414 495.196371 
L 3679.425802 518.986429 
L 3681.44619 501.295873 
L 3683.466578 554.099413 
L 3685.486965 511.917591 
L 3687.507353 511.708992 
L 3689.527741 525.897477 
L 3691.548128 499.010634 
L 3693.568516 535.908499 
L 3695.588904 565.171382 
L 3697.609291 541.82367 
L 3703.670455 602.628653 
L 3705.690842 575.942341 
L 3707.71123 559.678129 
L 3711.752005 570.736663 
L 3713.772393 518.176004 
L 3715.792781 440.332413 
L 3717.813168 430.15223 
L 3719.833556 410.730025 
L 3721.853944 464.689248 
L 3723.874332 491.586301 
L 3725.894719 508.126874 
L 3727.915107 514.679523 
L 3729.935495 579.745893 
L 3733.97627 543.765361 
L 3735.996658 510.01916 
L 3738.017045 447.847545 
L 3740.037433 501.296943 
L 3744.078209 620.959512 
L 3746.098596 654.03913 
L 3748.118984 668.969037 
L 3750.139372 650.468581 
L 3752.159759 638.255533 
L 3756.200535 496.498157 
L 3758.220922 469.534073 
L 3760.24131 486.425079 
L 3762.261698 525.394584 
L 3764.282086 536.423665 
L 3766.302473 584.99917 
L 3768.322861 617.168668 
L 3772.363636 705.982474 
L 3774.384024 692.957662 
L 3776.404412 661.788729 
L 3778.424799 683.738973 
L 3780.445187 676.895833 
L 3786.50635 582.227416 
L 3788.526738 584.109605 
L 3790.547126 628.682381 
L 3792.567513 642.971545 
L 3794.587901 684.052364 
L 3796.608289 750.690914 
L 3798.628676 716.457752 
L 3952.178142 753.68201 
L 3954.198529 773.913715 
L 3956.218917 732.269564 
L 3958.239305 673.232861 
L 3960.259693 701.341632 
L 3962.28008 818.034941 
L 3970.361631 584.033238 
L 3972.382019 723.986599 
L 3978.443182 732.564207 
L 3980.46357 727.857477 
L 3982.483957 749.472173 
L 3984.504345 897.000017 
L 3986.524733 813.207004 
L 3988.54512 923.4 
L 3990.565508 886.496346 
L 3996.626671 896.696782 
L 4002.687834 574.47318 
L 4004.708222 555.544969 
L 4006.72861 554.650282 
L 4008.748997 584.505298 
L 4010.769385 557.026241 
L 4012.789773 638.732654 
L 4014.81016 694.594578 
L 4016.830548 732.877604 
L 4018.850936 759.980507 
L 4020.871324 686.30312 
L 4028.952874 622.221853 
L 4030.973262 643.725811 
L 4032.99365 626.017935 
L 4035.014037 677.969178 
L 4037.034425 695.811605 
L 4039.054813 677.288022 
L 4041.075201 636.884531 
L 4043.095588 622.725229 
L 4047.136364 573.273088 
L 4047.136364 573.273088 
" clip-path="url(#p86ae471e33)" style="fill: none; stroke: #ff7c00; stroke-width: 2.5; stroke-linecap: square"/>
   </g>
   <g id="patch_3">
    <path d="M 585 961.2 
L 585 129.6 
" style="fill: none; stroke: #000000; stroke-width: 0.8; stroke-linejoin: miter; stroke-linecap: square"/>
   </g>
   <g id="patch_4">
    <path d="M 4212 961.2 
L 4212 129.6 
" style="fill: none; stroke: #000000; stroke-width: 0.8; stroke-linejoin: miter; stroke-linecap: square"/>
   </g>
   <g id="patch_5">
    <path d="M 585 961.2 
L 4212 961.2 
" style="fill: none; stroke: #000000; stroke-width: 0.8; stroke-linejoin: miter; stroke-linecap: square"/>
   </g>
   <g id="patch_6">
    <path d="M 585 129.6 
L 4212 129.6 
" style="fill: none; stroke: #000000; stroke-width: 0.8; stroke-linejoin: miter; stroke-linecap: square"/>
   </g>
   <g id="text_21">
    <!-- ASIA -->
    <g transform="translate(2364.030469 123.360937) scale(0.3 -0.3)">
     <defs>
      <path id="DejaVuSans-41" d="M 2188 4044 
L 1331 1722 
L 3047 1722 
L 2188 4044 
z
M 1831 4666 
L 2547 4666 
L 4325 0 
L 3669 0 
L 3244 1197 
L 1141 1197 
L 716 0 
L 50 0 
L 1831 4666 
z
" transform="scale(0.015625)"/>
      <path id="DejaVuSans-53" d="M 3425 4513 
L 3425 3897 
Q 3066 4069 2747 4153 
Q 2428 4238 2131 4238 
Q 1616 4238 1336 4038 
Q 1056 3838 1056 3469 
Q 1056 3159 1242 3001 
Q 1428 2844 1947 2747 
L 2328 2669 
Q 3034 2534 3370 2195 
Q 3706 1856 3706 1288 
Q 3706 609 3251 259 
Q 2797 -91 1919 -91 
Q 1588 -91 1214 -16 
Q 841 59 441 206 
L 441 856 
Q 825 641 1194 531 
Q 1563 422 1919 422 
Q 2459 422 2753 634 
Q 3047 847 3047 1241 
Q 3047 1584 2836 1778 
Q 2625 1972 2144 2069 
L 1759 2144 
Q 1053 2284 737 2584 
Q 422 2884 422 3419 
Q 422 4038 858 4394 
Q 1294 4750 2059 4750 
Q 2388 4750 2728 4690 
Q 3069 4631 3425 4513 
z
" transform="scale(0.015625)"/>
      <path id="DejaVuSans-49" d="M 628 4666 
L 1259 4666 
L 1259 0 
L 628 0 
L 628 4666 
z
" transform="scale(0.015625)"/>
     </defs>
     <use xlink:href="#DejaVuSans-41"/>
     <use xlink:href="#DejaVuSans-53" x="68.408203"/>
     <use xlink:href="#DejaVuSans-49" x="131.884766"/>
     <use xlink:href="#DejaVuSans-41" x="161.376953"/>
    </g>
   </g>
   <g id="legend_1">
    <g id="patch_7">
     <path d="M 4152.75625 152.278125 
L 4205 152.278125 
Q 4207 152.278125 4207 150.278125 
L 4207 136.6 
Q 4207 134.6 4205 134.6 
L 4152.75625 134.6 
Q 4150.75625 134.6 4150.75625 136.6 
L 4150.75625 150.278125 
Q 4150.75625 152.278125 4152.75625 152.278125 
z
" style="fill: #ffffff; opacity: 0.8; stroke: #cccccc; stroke-linejoin: miter"/>
    </g>
    <g id="line2d_20">
     <path d="M 4154.75625 142.698438 
L 4164.75625 142.698438 
L 4174.75625 142.698438 
" style="fill: none; stroke: #ff7c00; stroke-width: 2.5; stroke-linecap: square"/>
    </g>
    <g id="text_22">
     <!-- asia -->
     <g transform="translate(4182.75625 146.198438) scale(0.1 -0.1)">
      <defs>
       <path id="DejaVuSans-61" d="M 2194 1759 
Q 1497 1759 1228 1600 
Q 959 1441 959 1056 
Q 959 750 1161 570 
Q 1363 391 1709 391 
Q 2188 391 2477 730 
Q 2766 1069 2766 1631 
L 2766 1759 
L 2194 1759 
z
M 3341 1997 
L 3341 0 
L 2766 0 
L 2766 531 
Q 2569 213 2275 61 
Q 1981 -91 1556 -91 
Q 1019 -91 701 211 
Q 384 513 384 1019 
Q 384 1609 779 1909 
Q 1175 2209 1959 2209 
L 2766 2209 
L 2766 2266 
Q 2766 2663 2505 2880 
Q 2244 3097 1772 3097 
Q 1472 3097 1187 3025 
Q 903 2953 641 2809 
L 641 3341 
Q 956 3463 1253 3523 
Q 1550 3584 1831 3584 
Q 2591 3584 2966 3190 
Q 3341 2797 3341 1997 
z
" transform="scale(0.015625)"/>
       <path id="DejaVuSans-73" d="M 2834 3397 
L 2834 2853 
Q 2591 2978 2328 3040 
Q 2066 3103 1784 3103 
Q 1356 3103 1142 2972 
Q 928 2841 928 2578 
Q 928 2378 1081 2264 
Q 1234 2150 1697 2047 
L 1894 2003 
Q 2506 1872 2764 1633 
Q 3022 1394 3022 966 
Q 3022 478 2636 193 
Q 2250 -91 1575 -91 
Q 1294 -91 989 -36 
Q 684 19 347 128 
L 347 722 
Q 666 556 975 473 
Q 1284 391 1588 391 
Q 1994 391 2212 530 
Q 2431 669 2431 922 
Q 2431 1156 2273 1281 
Q 2116 1406 1581 1522 
L 1381 1569 
Q 847 1681 609 1914 
Q 372 2147 372 2553 
Q 372 3047 722 3315 
Q 1072 3584 1716 3584 
Q 2034 3584 2315 3537 
Q 2597 3491 2834 3397 
z
" transform="scale(0.015625)"/>
      </defs>
      <use xlink:href="#DejaVuSans-61"/>
      <use xlink:href="#DejaVuSans-73" x="61.279297"/>
      <use xlink:href="#DejaVuSans-69" x="113.378906"/>
      <use xlink:href="#DejaVuSans-61" x="141.162109"/>
     </g>
    </g>
   </g>
  </g>
 </g>
 <defs>
  <clipPath id="p86ae471e33">
   <rect x="585" y="129.6" width="3627" height="831.6"/>
  </clipPath>
 </defs>
</svg>
