<?xml version="1.0" encoding="utf-8" standalone="no"?>
<!DOCTYPE svg PUBLIC "-//W3C//DTD SVG 1.1//EN"
  "http://www.w3.org/Graphics/SVG/1.1/DTD/svg11.dtd">
<svg xmlns:xlink="http://www.w3.org/1999/xlink" width="4680pt" height="1080pt" viewBox="0 0 4680 1080" xmlns="http://www.w3.org/2000/svg" version="1.1">
 <metadata>
  <rdf:RDF xmlns:dc="http://purl.org/dc/elements/1.1/" xmlns:cc="http://creativecommons.org/ns#" xmlns:rdf="http://www.w3.org/1999/02/22-rdf-syntax-ns#">
   <cc:Work>
    <dc:type rdf:resource="http://purl.org/dc/dcmitype/StillImage"/>
    <dc:date>2024-03-25T15:24:54.366286</dc:date>
    <dc:format>image/svg+xml</dc:format>
    <dc:creator>
     <cc:Agent>
      <dc:title>Matplotlib v3.7.2, https://matplotlib.org/</dc:title>
     </cc:Agent>
    </dc:creator>
   </cc:Work>
  </rdf:RDF>
 </metadata>
 <defs>
  <style type="text/css">*{stroke-linejoin: round; stroke-linecap: butt}</style>
 </defs>
 <g id="figure_1">
  <g id="patch_1">
   <path d="M 0 1080 
L 4680 1080 
L 4680 0 
L 0 0 
z
" style="fill: #ffffff"/>
  </g>
  <g id="axes_1">
   <g id="patch_2">
    <path d="M 585 961.2 
L 4212 961.2 
L 4212 129.6 
L 585 129.6 
z
" style="fill: #ffffff"/>
   </g>
   <g id="matplotlib.axis_1">
    <g id="xtick_1">
     <g id="line2d_1">
      <defs>
       <path id="me081658bb1" d="M 0 0 
L 0 3.5 
" style="stroke: #000000; stroke-width: 0.8"/>
      </defs>
      <g>
       <use xlink:href="#me081658bb1" x="941.800468" y="961.2" style="stroke: #000000; stroke-width: 0.8"/>
      </g>
     </g>
     <g id="text_1">
      <!-- 2012-07 -->
      <g transform="translate(900.017655 983.396875) scale(0.2 -0.2)">
       <defs>
        <path id="DejaVuSans-32" d="M 1228 531 
L 3431 531 
L 3431 0 
L 469 0 
L 469 531 
Q 828 903 1448 1529 
Q 2069 2156 2228 2338 
Q 2531 2678 2651 2914 
Q 2772 3150 2772 3378 
Q 2772 3750 2511 3984 
Q 2250 4219 1831 4219 
Q 1534 4219 1204 4116 
Q 875 4013 500 3803 
L 500 4441 
Q 881 4594 1212 4672 
Q 1544 4750 1819 4750 
Q 2544 4750 2975 4387 
Q 3406 4025 3406 3419 
Q 3406 3131 3298 2873 
Q 3191 2616 2906 2266 
Q 2828 2175 2409 1742 
Q 1991 1309 1228 531 
z
" transform="scale(0.015625)"/>
        <path id="DejaVuSans-30" d="M 2034 4250 
Q 1547 4250 1301 3770 
Q 1056 3291 1056 2328 
Q 1056 1369 1301 889 
Q 1547 409 2034 409 
Q 2525 409 2770 889 
Q 3016 1369 3016 2328 
Q 3016 3291 2770 3770 
Q 2525 4250 2034 4250 
z
M 2034 4750 
Q 2819 4750 3233 4129 
Q 3647 3509 3647 2328 
Q 3647 1150 3233 529 
Q 2819 -91 2034 -91 
Q 1250 -91 836 529 
Q 422 1150 422 2328 
Q 422 3509 836 4129 
Q 1250 4750 2034 4750 
z
" transform="scale(0.015625)"/>
        <path id="DejaVuSans-31" d="M 794 531 
L 1825 531 
L 1825 4091 
L 703 3866 
L 703 4441 
L 1819 4666 
L 2450 4666 
L 2450 531 
L 3481 531 
L 3481 0 
L 794 0 
L 794 531 
z
" transform="scale(0.015625)"/>
        <path id="DejaVuSans-2d" d="M 313 2009 
L 1997 2009 
L 1997 1497 
L 313 1497 
L 313 2009 
z
" transform="scale(0.015625)"/>
        <path id="DejaVuSans-37" d="M 525 4666 
L 3525 4666 
L 3525 4397 
L 1831 0 
L 1172 0 
L 2766 4134 
L 525 4134 
L 525 4666 
z
" transform="scale(0.015625)"/>
       </defs>
       <use xlink:href="#DejaVuSans-32"/>
       <use xlink:href="#DejaVuSans-30" x="63.623047"/>
       <use xlink:href="#DejaVuSans-31" x="127.246094"/>
       <use xlink:href="#DejaVuSans-32" x="190.869141"/>
       <use xlink:href="#DejaVuSans-2d" x="254.492188"/>
       <use xlink:href="#DejaVuSans-30" x="290.576172"/>
       <use xlink:href="#DejaVuSans-37" x="354.199219"/>
      </g>
     </g>
    </g>
    <g id="xtick_2">
     <g id="line2d_2">
      <g>
       <use xlink:href="#me081658bb1" x="1313.551805" y="961.2" style="stroke: #000000; stroke-width: 0.8"/>
      </g>
     </g>
     <g id="text_2">
      <!-- 2013-01 -->
      <g transform="translate(1271.768992 983.396875) scale(0.2 -0.2)">
       <defs>
        <path id="DejaVuSans-33" d="M 2597 2516 
Q 3050 2419 3304 2112 
Q 3559 1806 3559 1356 
Q 3559 666 3084 287 
Q 2609 -91 1734 -91 
Q 1441 -91 1130 -33 
Q 819 25 488 141 
L 488 750 
Q 750 597 1062 519 
Q 1375 441 1716 441 
Q 2309 441 2620 675 
Q 2931 909 2931 1356 
Q 2931 1769 2642 2001 
Q 2353 2234 1838 2234 
L 1294 2234 
L 1294 2753 
L 1863 2753 
Q 2328 2753 2575 2939 
Q 2822 3125 2822 3475 
Q 2822 3834 2567 4026 
Q 2313 4219 1838 4219 
Q 1578 4219 1281 4162 
Q 984 4106 628 3988 
L 628 4550 
Q 988 4650 1302 4700 
Q 1616 4750 1894 4750 
Q 2613 4750 3031 4423 
Q 3450 4097 3450 3541 
Q 3450 3153 3228 2886 
Q 3006 2619 2597 2516 
z
" transform="scale(0.015625)"/>
       </defs>
       <use xlink:href="#DejaVuSans-32"/>
       <use xlink:href="#DejaVuSans-30" x="63.623047"/>
       <use xlink:href="#DejaVuSans-31" x="127.246094"/>
       <use xlink:href="#DejaVuSans-33" x="190.869141"/>
       <use xlink:href="#DejaVuSans-2d" x="254.492188"/>
       <use xlink:href="#DejaVuSans-30" x="290.576172"/>
       <use xlink:href="#DejaVuSans-31" x="354.199219"/>
      </g>
     </g>
    </g>
    <g id="xtick_3">
     <g id="line2d_3">
      <g>
       <use xlink:href="#me081658bb1" x="1679.241979" y="961.2" style="stroke: #000000; stroke-width: 0.8"/>
      </g>
     </g>
     <g id="text_3">
      <!-- 2013-07 -->
      <g transform="translate(1637.459166 983.396875) scale(0.2 -0.2)">
       <use xlink:href="#DejaVuSans-32"/>
       <use xlink:href="#DejaVuSans-30" x="63.623047"/>
       <use xlink:href="#DejaVuSans-31" x="127.246094"/>
       <use xlink:href="#DejaVuSans-33" x="190.869141"/>
       <use xlink:href="#DejaVuSans-2d" x="254.492188"/>
       <use xlink:href="#DejaVuSans-30" x="290.576172"/>
       <use xlink:href="#DejaVuSans-37" x="354.199219"/>
      </g>
     </g>
    </g>
    <g id="xtick_4">
     <g id="line2d_4">
      <g>
       <use xlink:href="#me081658bb1" x="2050.993316" y="961.2" style="stroke: #000000; stroke-width: 0.8"/>
      </g>
     </g>
     <g id="text_4">
      <!-- 2014-01 -->
      <g transform="translate(2009.210503 983.396875) scale(0.2 -0.2)">
       <defs>
        <path id="DejaVuSans-34" d="M 2419 4116 
L 825 1625 
L 2419 1625 
L 2419 4116 
z
M 2253 4666 
L 3047 4666 
L 3047 1625 
L 3713 1625 
L 3713 1100 
L 3047 1100 
L 3047 0 
L 2419 0 
L 2419 1100 
L 313 1100 
L 313 1709 
L 2253 4666 
z
" transform="scale(0.015625)"/>
       </defs>
       <use xlink:href="#DejaVuSans-32"/>
       <use xlink:href="#DejaVuSans-30" x="63.623047"/>
       <use xlink:href="#DejaVuSans-31" x="127.246094"/>
       <use xlink:href="#DejaVuSans-34" x="190.869141"/>
       <use xlink:href="#DejaVuSans-2d" x="254.492188"/>
       <use xlink:href="#DejaVuSans-30" x="290.576172"/>
       <use xlink:href="#DejaVuSans-31" x="354.199219"/>
      </g>
     </g>
    </g>
    <g id="xtick_5">
     <g id="line2d_5">
      <g>
       <use xlink:href="#me081658bb1" x="2416.683489" y="961.2" style="stroke: #000000; stroke-width: 0.8"/>
      </g>
     </g>
     <g id="text_5">
      <!-- 2014-07 -->
      <g transform="translate(2374.900677 983.396875) scale(0.2 -0.2)">
       <use xlink:href="#DejaVuSans-32"/>
       <use xlink:href="#DejaVuSans-30" x="63.623047"/>
       <use xlink:href="#DejaVuSans-31" x="127.246094"/>
       <use xlink:href="#DejaVuSans-34" x="190.869141"/>
       <use xlink:href="#DejaVuSans-2d" x="254.492188"/>
       <use xlink:href="#DejaVuSans-30" x="290.576172"/>
       <use xlink:href="#DejaVuSans-37" x="354.199219"/>
      </g>
     </g>
    </g>
    <g id="xtick_6">
     <g id="line2d_6">
      <g>
       <use xlink:href="#me081658bb1" x="2788.434826" y="961.2" style="stroke: #000000; stroke-width: 0.8"/>
      </g>
     </g>
     <g id="text_6">
      <!-- 2015-01 -->
      <g transform="translate(2746.652014 983.396875) scale(0.2 -0.2)">
       <defs>
        <path id="DejaVuSans-35" d="M 691 4666 
L 3169 4666 
L 3169 4134 
L 1269 4134 
L 1269 2991 
Q 1406 3038 1543 3061 
Q 1681 3084 1819 3084 
Q 2600 3084 3056 2656 
Q 3513 2228 3513 1497 
Q 3513 744 3044 326 
Q 2575 -91 1722 -91 
Q 1428 -91 1123 -41 
Q 819 9 494 109 
L 494 744 
Q 775 591 1075 516 
Q 1375 441 1709 441 
Q 2250 441 2565 725 
Q 2881 1009 2881 1497 
Q 2881 1984 2565 2268 
Q 2250 2553 1709 2553 
Q 1456 2553 1204 2497 
Q 953 2441 691 2322 
L 691 4666 
z
" transform="scale(0.015625)"/>
       </defs>
       <use xlink:href="#DejaVuSans-32"/>
       <use xlink:href="#DejaVuSans-30" x="63.623047"/>
       <use xlink:href="#DejaVuSans-31" x="127.246094"/>
       <use xlink:href="#DejaVuSans-35" x="190.869141"/>
       <use xlink:href="#DejaVuSans-2d" x="254.492188"/>
       <use xlink:href="#DejaVuSans-30" x="290.576172"/>
       <use xlink:href="#DejaVuSans-31" x="354.199219"/>
      </g>
     </g>
    </g>
    <g id="xtick_7">
     <g id="line2d_7">
      <g>
       <use xlink:href="#me081658bb1" x="3154.125" y="961.2" style="stroke: #000000; stroke-width: 0.8"/>
      </g>
     </g>
     <g id="text_7">
      <!-- 2015-07 -->
      <g transform="translate(3112.342188 983.396875) scale(0.2 -0.2)">
       <use xlink:href="#DejaVuSans-32"/>
       <use xlink:href="#DejaVuSans-30" x="63.623047"/>
       <use xlink:href="#DejaVuSans-31" x="127.246094"/>
       <use xlink:href="#DejaVuSans-35" x="190.869141"/>
       <use xlink:href="#DejaVuSans-2d" x="254.492188"/>
       <use xlink:href="#DejaVuSans-30" x="290.576172"/>
       <use xlink:href="#DejaVuSans-37" x="354.199219"/>
      </g>
     </g>
    </g>
    <g id="xtick_8">
     <g id="line2d_8">
      <g>
       <use xlink:href="#me081658bb1" x="3525.876337" y="961.2" style="stroke: #000000; stroke-width: 0.8"/>
      </g>
     </g>
     <g id="text_8">
      <!-- 2016-01 -->
      <g transform="translate(3484.093524 983.396875) scale(0.2 -0.2)">
       <defs>
        <path id="DejaVuSans-36" d="M 2113 2584 
Q 1688 2584 1439 2293 
Q 1191 2003 1191 1497 
Q 1191 994 1439 701 
Q 1688 409 2113 409 
Q 2538 409 2786 701 
Q 3034 994 3034 1497 
Q 3034 2003 2786 2293 
Q 2538 2584 2113 2584 
z
M 3366 4563 
L 3366 3988 
Q 3128 4100 2886 4159 
Q 2644 4219 2406 4219 
Q 1781 4219 1451 3797 
Q 1122 3375 1075 2522 
Q 1259 2794 1537 2939 
Q 1816 3084 2150 3084 
Q 2853 3084 3261 2657 
Q 3669 2231 3669 1497 
Q 3669 778 3244 343 
Q 2819 -91 2113 -91 
Q 1303 -91 875 529 
Q 447 1150 447 2328 
Q 447 3434 972 4092 
Q 1497 4750 2381 4750 
Q 2619 4750 2861 4703 
Q 3103 4656 3366 4563 
z
" transform="scale(0.015625)"/>
       </defs>
       <use xlink:href="#DejaVuSans-32"/>
       <use xlink:href="#DejaVuSans-30" x="63.623047"/>
       <use xlink:href="#DejaVuSans-31" x="127.246094"/>
       <use xlink:href="#DejaVuSans-36" x="190.869141"/>
       <use xlink:href="#DejaVuSans-2d" x="254.492188"/>
       <use xlink:href="#DejaVuSans-30" x="290.576172"/>
       <use xlink:href="#DejaVuSans-31" x="354.199219"/>
      </g>
     </g>
    </g>
    <g id="xtick_9">
     <g id="line2d_9">
      <g>
       <use xlink:href="#me081658bb1" x="3893.586898" y="961.2" style="stroke: #000000; stroke-width: 0.8"/>
      </g>
     </g>
     <g id="text_9">
      <!-- 2016-07 -->
      <g transform="translate(3851.804086 983.396875) scale(0.2 -0.2)">
       <use xlink:href="#DejaVuSans-32"/>
       <use xlink:href="#DejaVuSans-30" x="63.623047"/>
       <use xlink:href="#DejaVuSans-31" x="127.246094"/>
       <use xlink:href="#DejaVuSans-36" x="190.869141"/>
       <use xlink:href="#DejaVuSans-2d" x="254.492188"/>
       <use xlink:href="#DejaVuSans-30" x="290.576172"/>
       <use xlink:href="#DejaVuSans-37" x="354.199219"/>
      </g>
     </g>
    </g>
    <g id="text_10">
     <!-- Time -->
     <g transform="translate(2374.032813 1006.753125) scale(0.2 -0.2)">
      <defs>
       <path id="DejaVuSans-54" d="M -19 4666 
L 3928 4666 
L 3928 4134 
L 2272 4134 
L 2272 0 
L 1638 0 
L 1638 4134 
L -19 4134 
L -19 4666 
z
" transform="scale(0.015625)"/>
       <path id="DejaVuSans-69" d="M 603 3500 
L 1178 3500 
L 1178 0 
L 603 0 
L 603 3500 
z
M 603 4863 
L 1178 4863 
L 1178 4134 
L 603 4134 
L 603 4863 
z
" transform="scale(0.015625)"/>
       <path id="DejaVuSans-6d" d="M 3328 2828 
Q 3544 3216 3844 3400 
Q 4144 3584 4550 3584 
Q 5097 3584 5394 3201 
Q 5691 2819 5691 2113 
L 5691 0 
L 5113 0 
L 5113 2094 
Q 5113 2597 4934 2840 
Q 4756 3084 4391 3084 
Q 3944 3084 3684 2787 
Q 3425 2491 3425 1978 
L 3425 0 
L 2847 0 
L 2847 2094 
Q 2847 2600 2669 2842 
Q 2491 3084 2119 3084 
Q 1678 3084 1418 2786 
Q 1159 2488 1159 1978 
L 1159 0 
L 581 0 
L 581 3500 
L 1159 3500 
L 1159 2956 
Q 1356 3278 1631 3431 
Q 1906 3584 2284 3584 
Q 2666 3584 2933 3390 
Q 3200 3197 3328 2828 
z
" transform="scale(0.015625)"/>
       <path id="DejaVuSans-65" d="M 3597 1894 
L 3597 1613 
L 953 1613 
Q 991 1019 1311 708 
Q 1631 397 2203 397 
Q 2534 397 2845 478 
Q 3156 559 3463 722 
L 3463 178 
Q 3153 47 2828 -22 
Q 2503 -91 2169 -91 
Q 1331 -91 842 396 
Q 353 884 353 1716 
Q 353 2575 817 3079 
Q 1281 3584 2069 3584 
Q 2775 3584 3186 3129 
Q 3597 2675 3597 1894 
z
M 3022 2063 
Q 3016 2534 2758 2815 
Q 2500 3097 2075 3097 
Q 1594 3097 1305 2825 
Q 1016 2553 972 2059 
L 3022 2063 
z
" transform="scale(0.015625)"/>
      </defs>
      <use xlink:href="#DejaVuSans-54"/>
      <use xlink:href="#DejaVuSans-69" x="57.958984"/>
      <use xlink:href="#DejaVuSans-6d" x="85.742188"/>
      <use xlink:href="#DejaVuSans-65" x="183.154297"/>
     </g>
    </g>
   </g>
   <g id="matplotlib.axis_2">
    <g id="ytick_1">
     <g id="line2d_10">
      <defs>
       <path id="mb9ea8ca56d" d="M 0 0 
L -3.5 0 
" style="stroke: #000000; stroke-width: 0.8"/>
      </defs>
      <g>
       <use xlink:href="#mb9ea8ca56d" x="585" y="948.874892" style="stroke: #000000; stroke-width: 0.8"/>
      </g>
     </g>
     <g id="text_11">
      <!-- −0.005 -->
      <g transform="translate(503.984375 956.47333) scale(0.2 -0.2)">
       <defs>
        <path id="DejaVuSans-2212" d="M 678 2272 
L 4684 2272 
L 4684 1741 
L 678 1741 
L 678 2272 
z
" transform="scale(0.015625)"/>
        <path id="DejaVuSans-2e" d="M 684 794 
L 1344 794 
L 1344 0 
L 684 0 
L 684 794 
z
" transform="scale(0.015625)"/>
       </defs>
       <use xlink:href="#DejaVuSans-2212"/>
       <use xlink:href="#DejaVuSans-30" x="83.789062"/>
       <use xlink:href="#DejaVuSans-2e" x="147.412109"/>
       <use xlink:href="#DejaVuSans-30" x="179.199219"/>
       <use xlink:href="#DejaVuSans-30" x="242.822266"/>
       <use xlink:href="#DejaVuSans-35" x="306.445312"/>
      </g>
     </g>
    </g>
    <g id="ytick_2">
     <g id="line2d_11">
      <g>
       <use xlink:href="#mb9ea8ca56d" x="585" y="851.255471" style="stroke: #000000; stroke-width: 0.8"/>
      </g>
     </g>
     <g id="text_12">
      <!-- −0.004 -->
      <g transform="translate(503.984375 858.853908) scale(0.2 -0.2)">
       <use xlink:href="#DejaVuSans-2212"/>
       <use xlink:href="#DejaVuSans-30" x="83.789062"/>
       <use xlink:href="#DejaVuSans-2e" x="147.412109"/>
       <use xlink:href="#DejaVuSans-30" x="179.199219"/>
       <use xlink:href="#DejaVuSans-30" x="242.822266"/>
       <use xlink:href="#DejaVuSans-34" x="306.445312"/>
      </g>
     </g>
    </g>
    <g id="ytick_3">
     <g id="line2d_12">
      <g>
       <use xlink:href="#mb9ea8ca56d" x="585" y="753.63605" style="stroke: #000000; stroke-width: 0.8"/>
      </g>
     </g>
     <g id="text_13">
      <!-- −0.003 -->
      <g transform="translate(503.984375 761.234487) scale(0.2 -0.2)">
       <use xlink:href="#DejaVuSans-2212"/>
       <use xlink:href="#DejaVuSans-30" x="83.789062"/>
       <use xlink:href="#DejaVuSans-2e" x="147.412109"/>
       <use xlink:href="#DejaVuSans-30" x="179.199219"/>
       <use xlink:href="#DejaVuSans-30" x="242.822266"/>
       <use xlink:href="#DejaVuSans-33" x="306.445312"/>
      </g>
     </g>
    </g>
    <g id="ytick_4">
     <g id="line2d_13">
      <g>
       <use xlink:href="#mb9ea8ca56d" x="585" y="656.016628" style="stroke: #000000; stroke-width: 0.8"/>
      </g>
     </g>
     <g id="text_14">
      <!-- −0.002 -->
      <g transform="translate(503.984375 663.615066) scale(0.2 -0.2)">
       <use xlink:href="#DejaVuSans-2212"/>
       <use xlink:href="#DejaVuSans-30" x="83.789062"/>
       <use xlink:href="#DejaVuSans-2e" x="147.412109"/>
       <use xlink:href="#DejaVuSans-30" x="179.199219"/>
       <use xlink:href="#DejaVuSans-30" x="242.822266"/>
       <use xlink:href="#DejaVuSans-32" x="306.445312"/>
      </g>
     </g>
    </g>
    <g id="ytick_5">
     <g id="line2d_14">
      <g>
       <use xlink:href="#mb9ea8ca56d" x="585" y="558.397207" style="stroke: #000000; stroke-width: 0.8"/>
      </g>
     </g>
     <g id="text_15">
      <!-- −0.001 -->
      <g transform="translate(503.984375 565.995645) scale(0.2 -0.2)">
       <use xlink:href="#DejaVuSans-2212"/>
       <use xlink:href="#DejaVuSans-30" x="83.789062"/>
       <use xlink:href="#DejaVuSans-2e" x="147.412109"/>
       <use xlink:href="#DejaVuSans-30" x="179.199219"/>
       <use xlink:href="#DejaVuSans-30" x="242.822266"/>
       <use xlink:href="#DejaVuSans-31" x="306.445312"/>
      </g>
     </g>
    </g>
    <g id="ytick_6">
     <g id="line2d_15">
      <g>
       <use xlink:href="#mb9ea8ca56d" x="585" y="460.777786" style="stroke: #000000; stroke-width: 0.8"/>
      </g>
     </g>
     <g id="text_16">
      <!-- 0.000 -->
      <g transform="translate(520.74375 468.376223) scale(0.2 -0.2)">
       <use xlink:href="#DejaVuSans-30"/>
       <use xlink:href="#DejaVuSans-2e" x="63.623047"/>
       <use xlink:href="#DejaVuSans-30" x="95.410156"/>
       <use xlink:href="#DejaVuSans-30" x="159.033203"/>
       <use xlink:href="#DejaVuSans-30" x="222.65625"/>
      </g>
     </g>
    </g>
    <g id="ytick_7">
     <g id="line2d_16">
      <g>
       <use xlink:href="#mb9ea8ca56d" x="585" y="363.158364" style="stroke: #000000; stroke-width: 0.8"/>
      </g>
     </g>
     <g id="text_17">
      <!-- 0.001 -->
      <g transform="translate(520.74375 370.756802) scale(0.2 -0.2)">
       <use xlink:href="#DejaVuSans-30"/>
       <use xlink:href="#DejaVuSans-2e" x="63.623047"/>
       <use xlink:href="#DejaVuSans-30" x="95.410156"/>
       <use xlink:href="#DejaVuSans-30" x="159.033203"/>
       <use xlink:href="#DejaVuSans-31" x="222.65625"/>
      </g>
     </g>
    </g>
    <g id="ytick_8">
     <g id="line2d_17">
      <g>
       <use xlink:href="#mb9ea8ca56d" x="585" y="265.538943" style="stroke: #000000; stroke-width: 0.8"/>
      </g>
     </g>
     <g id="text_18">
      <!-- 0.002 -->
      <g transform="translate(520.74375 273.137381) scale(0.2 -0.2)">
       <use xlink:href="#DejaVuSans-30"/>
       <use xlink:href="#DejaVuSans-2e" x="63.623047"/>
       <use xlink:href="#DejaVuSans-30" x="95.410156"/>
       <use xlink:href="#DejaVuSans-30" x="159.033203"/>
       <use xlink:href="#DejaVuSans-32" x="222.65625"/>
      </g>
     </g>
    </g>
    <g id="ytick_9">
     <g id="line2d_18">
      <g>
       <use xlink:href="#mb9ea8ca56d" x="585" y="167.919522" style="stroke: #000000; stroke-width: 0.8"/>
      </g>
     </g>
     <g id="text_19">
      <!-- 0.003 -->
      <g transform="translate(520.74375 175.517959) scale(0.2 -0.2)">
       <use xlink:href="#DejaVuSans-30"/>
       <use xlink:href="#DejaVuSans-2e" x="63.623047"/>
       <use xlink:href="#DejaVuSans-30" x="95.410156"/>
       <use xlink:href="#DejaVuSans-30" x="159.033203"/>
       <use xlink:href="#DejaVuSans-33" x="222.65625"/>
      </g>
     </g>
    </g>
    <g id="text_20">
     <!-- North(m) -->
     <g transform="translate(495.825 590.9125) rotate(-90) scale(0.2 -0.2)">
      <defs>
       <path id="DejaVuSans-4e" d="M 628 4666 
L 1478 4666 
L 3547 763 
L 3547 4666 
L 4159 4666 
L 4159 0 
L 3309 0 
L 1241 3903 
L 1241 0 
L 628 0 
L 628 4666 
z
" transform="scale(0.015625)"/>
       <path id="DejaVuSans-6f" d="M 1959 3097 
Q 1497 3097 1228 2736 
Q 959 2375 959 1747 
Q 959 1119 1226 758 
Q 1494 397 1959 397 
Q 2419 397 2687 759 
Q 2956 1122 2956 1747 
Q 2956 2369 2687 2733 
Q 2419 3097 1959 3097 
z
M 1959 3584 
Q 2709 3584 3137 3096 
Q 3566 2609 3566 1747 
Q 3566 888 3137 398 
Q 2709 -91 1959 -91 
Q 1206 -91 779 398 
Q 353 888 353 1747 
Q 353 2609 779 3096 
Q 1206 3584 1959 3584 
z
" transform="scale(0.015625)"/>
       <path id="DejaVuSans-72" d="M 2631 2963 
Q 2534 3019 2420 3045 
Q 2306 3072 2169 3072 
Q 1681 3072 1420 2755 
Q 1159 2438 1159 1844 
L 1159 0 
L 581 0 
L 581 3500 
L 1159 3500 
L 1159 2956 
Q 1341 3275 1631 3429 
Q 1922 3584 2338 3584 
Q 2397 3584 2469 3576 
Q 2541 3569 2628 3553 
L 2631 2963 
z
" transform="scale(0.015625)"/>
       <path id="DejaVuSans-74" d="M 1172 4494 
L 1172 3500 
L 2356 3500 
L 2356 3053 
L 1172 3053 
L 1172 1153 
Q 1172 725 1289 603 
Q 1406 481 1766 481 
L 2356 481 
L 2356 0 
L 1766 0 
Q 1100 0 847 248 
Q 594 497 594 1153 
L 594 3053 
L 172 3053 
L 172 3500 
L 594 3500 
L 594 4494 
L 1172 4494 
z
" transform="scale(0.015625)"/>
       <path id="DejaVuSans-68" d="M 3513 2113 
L 3513 0 
L 2938 0 
L 2938 2094 
Q 2938 2591 2744 2837 
Q 2550 3084 2163 3084 
Q 1697 3084 1428 2787 
Q 1159 2491 1159 1978 
L 1159 0 
L 581 0 
L 581 4863 
L 1159 4863 
L 1159 2956 
Q 1366 3272 1645 3428 
Q 1925 3584 2291 3584 
Q 2894 3584 3203 3211 
Q 3513 2838 3513 2113 
z
" transform="scale(0.015625)"/>
       <path id="DejaVuSans-28" d="M 1984 4856 
Q 1566 4138 1362 3434 
Q 1159 2731 1159 2009 
Q 1159 1288 1364 580 
Q 1569 -128 1984 -844 
L 1484 -844 
Q 1016 -109 783 600 
Q 550 1309 550 2009 
Q 550 2706 781 3412 
Q 1013 4119 1484 4856 
L 1984 4856 
z
" transform="scale(0.015625)"/>
       <path id="DejaVuSans-29" d="M 513 4856 
L 1013 4856 
Q 1481 4119 1714 3412 
Q 1947 2706 1947 2009 
Q 1947 1309 1714 600 
Q 1481 -109 1013 -844 
L 513 -844 
Q 928 -128 1133 580 
Q 1338 1288 1338 2009 
Q 1338 2731 1133 3434 
Q 928 4138 513 4856 
z
" transform="scale(0.015625)"/>
      </defs>
      <use xlink:href="#DejaVuSans-4e"/>
      <use xlink:href="#DejaVuSans-6f" x="74.804688"/>
      <use xlink:href="#DejaVuSans-72" x="135.986328"/>
      <use xlink:href="#DejaVuSans-74" x="177.099609"/>
      <use xlink:href="#DejaVuSans-68" x="216.308594"/>
      <use xlink:href="#DejaVuSans-28" x="279.6875"/>
      <use xlink:href="#DejaVuSans-6d" x="318.701172"/>
      <use xlink:href="#DejaVuSans-29" x="416.113281"/>
     </g>
    </g>
   </g>
   <g id="line2d_19">
    <path d="M 749.863636 778.043521 
L 755.924799 891.252738 
L 761.985963 916.569546 
L 766.026738 901.637747 
L 768.047126 918.2028 
L 770.067513 896.604046 
L 772.087901 892.629741 
L 774.108289 907.617721 
L 776.128676 892.807265 
L 790.27139 901.888398 
L 792.291778 923.4 
L 794.312166 898.417495 
L 796.332553 889.123301 
L 798.352941 894.006782 
L 800.373329 886.054515 
L 802.393717 866.790033 
L 806.434492 842.019642 
L 808.45488 800.944297 
L 810.475267 775.02775 
L 812.495655 743.740771 
L 824.617981 764.543683 
L 830.679144 689.209216 
L 832.699532 667.574753 
L 834.71992 674.614418 
L 836.740307 698.344121 
L 844.821858 673.946511 
L 850.883021 615.871127 
L 852.903409 681.321072 
L 854.923797 701.061171 
L 856.944184 719.254485 
L 860.98496 713.532635 
L 867.046123 660.104913 
L 869.066511 628.065503 
L 873.107286 599.043122 
L 875.127674 617.643061 
L 877.148061 611.781974 
L 879.168449 598.408477 
L 881.188837 598.353569 
L 883.209225 628.990046 
L 885.229612 636.385327 
L 889.270388 586.114352 
L 891.290775 576.653859 
L 893.311163 591.346047 
L 895.331551 595.54053 
L 897.351939 625.362994 
L 899.372326 613.888354 
L 901.392714 634.85184 
L 903.413102 630.520564 
L 905.433489 594.221841 
L 907.453877 583.546279 
L 909.474265 585.84341 
L 913.51504 591.132864 
L 915.535428 589.961489 
L 917.555816 584.654593 
L 933.718917 590.895247 
L 937.759693 593.500389 
L 1044.840241 769.810916 
L 1048.881016 774.661945 
L 1212.53242 427.004973 
L 1214.552807 406.405989 
L 1216.573195 395.522988 
L 1226.675134 431.478001 
L 1230.715909 420.913047 
L 1232.736297 435.440762 
L 1234.756684 438.904313 
L 1236.777072 456.348951 
L 1238.79746 443.357429 
L 1240.817848 406.049353 
L 1242.838235 378.077113 
L 1252.940174 266.299183 
L 1333.755682 325.077571 
L 1335.77607 357.788283 
L 1337.796457 414.915547 
L 1341.837233 393.853635 
L 1372.143048 326.80193 
L 1374.163436 328.022823 
L 1376.183824 335.328919 
L 1378.204211 320.408601 
L 1382.244987 305.008596 
L 1384.265374 339.675441 
L 1386.285762 305.692241 
L 1388.30615 301.627349 
L 1390.326537 280.258129 
L 1392.346925 288.523587 
L 1394.367313 316.197039 
L 1398.408088 341.79275 
L 1400.428476 353.49628 
L 1402.448864 386.593976 
L 1404.469251 455.810748 
L 1406.489639 455.831281 
L 1412.550802 325.380179 
L 1414.57119 310.279015 
L 1418.611965 227.710229 
L 1420.632353 271.031213 
L 1422.652741 327.887478 
L 1424.673128 356.838709 
L 1428.713904 446.585394 
L 1432.754679 508.570001 
L 1434.775067 483.157997 
L 1436.795455 480.050458 
L 1442.856618 467.357812 
L 1444.877005 452.27187 
L 1446.897393 443.03228 
L 1454.978944 411.585757 
L 1456.999332 382.123454 
L 1459.019719 363.924607 
L 1461.040107 364.272507 
L 1463.060495 358.49804 
L 1465.080882 354.538866 
L 1471.142045 304.18241 
L 1473.162433 271.135794 
L 1475.182821 246.717912 
L 1479.223596 206.4815 
L 1481.243984 268.115194 
L 1485.284759 245.713999 
L 1487.305147 291.106605 
L 1489.325535 250.85269 
L 1491.345922 272.376712 
L 1493.36631 270.12399 
L 1495.386698 277.782456 
L 1497.407086 276.214026 
L 1501.447861 273.3888 
L 1669.14004 267.6985 
L 1673.180816 276.251081 
L 1677.221591 338.188078 
L 1681.262366 377.959725 
L 1683.282754 388.03966 
L 1687.323529 381.363259 
L 1689.343917 354.634912 
L 1691.364305 352.081579 
L 1695.40508 245.450635 
L 1697.425468 249.944064 
L 1699.445856 234.309508 
L 1701.466243 238.750721 
L 1703.486631 238.215408 
L 1705.507019 259.263997 
L 1707.527406 292.222503 
L 1709.547794 333.853756 
L 1711.568182 332.540045 
L 1715.608957 368.811117 
L 1717.629345 371.925576 
L 1719.649733 320.063976 
L 1721.67012 317.959606 
L 1723.690508 302.795697 
L 1725.710896 303.797154 
L 1727.731283 288.902552 
L 1729.751671 253.103511 
L 1731.772059 273.65234 
L 1737.833222 363.531432 
L 1739.85361 337.177752 
L 1741.873997 374.001881 
L 1743.894385 416.720303 
L 1745.914773 418.697149 
L 1747.93516 393.70328 
L 1749.955548 389.361814 
L 1751.975936 374.763043 
L 1753.996324 420.254876 
L 1756.016711 451.797756 
L 1758.037099 426.083139 
L 1768.139037 547.691504 
L 1780.261364 441.828324 
L 1782.281751 460.420702 
L 1784.302139 468.933011 
L 1786.322527 496.459012 
L 1788.342914 497.594202 
L 1790.363302 445.944187 
L 1792.38369 500.613734 
L 1794.404078 517.281576 
L 1796.424465 522.264564 
L 1806.526404 495.58422 
L 1808.546791 529.925391 
L 1810.567179 548.123496 
L 1812.587567 555.139093 
L 1814.607955 550.654995 
L 1816.628342 550.622867 
L 1818.64873 558.446949 
L 1822.689505 549.299457 
L 1824.709893 549.585542 
L 1826.730281 541.419736 
L 1828.750668 567.011144 
L 1830.771056 579.603444 
L 1832.791444 594.608986 
L 1834.811832 581.535127 
L 1836.832219 617.126407 
L 1838.852607 594.184201 
L 1954.014706 695.645199 
L 1956.035094 669.863028 
L 1960.075869 675.166819 
L 1962.096257 690.276723 
L 1966.137032 695.165497 
L 1968.15742 707.963595 
L 1980.279746 685.5139 
L 1982.300134 678.448701 
L 1988.361297 654.336011 
L 1990.381684 647.30021 
L 1992.402072 626.725099 
L 1994.42246 599.963444 
L 1996.442848 581.671401 
L 2000.483623 541.697687 
L 2073.21758 426.833843 
L 2075.237968 416.09895 
L 2079.278743 412.640201 
L 2081.299131 429.693836 
L 2380.316511 167.4 
L 2438.907754 331.41453 
L 2442.948529 341.629078 
L 2446.989305 337.740426 
L 2451.03008 303.014951 
L 2467.193182 284.136553 
L 3176.349265 563.897794 
L 3178.369652 588.338087 
L 3180.39004 576.166182 
L 3182.410428 594.547215 
L 3184.430816 554.330808 
L 3186.451203 557.181594 
L 3190.491979 545.022707 
L 3192.512366 515.729321 
L 3194.532754 519.965991 
L 3196.553142 426.479317 
L 3200.593917 490.476438 
L 3208.675468 573.047716 
L 3210.695856 636.542386 
L 3212.716243 584.14731 
L 3214.736631 580.392934 
L 3216.757019 545.654305 
L 3218.777406 532.991977 
L 3220.797794 525.309863 
L 3222.818182 548.422917 
L 3224.83857 519.906643 
L 3226.858957 569.699727 
L 3228.879345 585.605332 
L 3230.899733 572.403034 
L 3253.123997 547.604644 
L 3257.164773 541.957639 
L 3259.18516 579.64963 
L 3261.205548 608.672252 
L 3265.246324 608.530126 
L 3267.266711 636.455323 
L 3269.287099 661.444121 
L 3277.36865 606.134315 
L 3287.470588 610.118634 
L 3289.490976 578.671228 
L 3291.511364 581.251994 
L 3293.531751 577.486605 
L 3295.552139 552.859075 
L 3297.572527 548.448307 
L 3299.592914 555.481674 
L 3301.613302 531.880363 
L 3303.63369 574.492368 
L 3305.654078 545.58377 
L 3309.694853 582.463558 
L 3315.756016 472.806049 
L 3317.776404 432.994439 
L 3319.796791 465.531932 
L 3321.817179 467.147457 
L 3323.837567 435.794507 
L 3325.857955 453.636184 
L 3327.878342 533.531731 
L 3329.89873 551.305566 
L 3331.919118 559.368307 
L 3340.000668 600.624036 
L 3342.021056 644.321518 
L 3344.041444 682.257148 
L 3346.061832 689.936524 
L 3348.082219 681.922434 
L 3350.102607 675.495274 
L 3352.122995 648.530497 
L 3354.143382 631.810307 
L 3356.16377 582.805875 
L 3358.184158 548.319474 
L 3360.204545 540.672019 
L 3362.224933 556.738742 
L 3364.245321 571.420026 
L 3366.265709 559.489164 
L 3368.286096 507.427468 
L 3370.306484 506.271914 
L 3374.347259 515.028911 
L 3376.367647 496.808199 
L 3400.612299 514.482863 
L 3402.632687 487.059954 
L 3404.653075 487.031193 
L 3406.673463 506.109544 
L 3410.714238 557.514991 
L 3412.734626 589.790839 
L 3414.755013 556.795365 
L 3416.775401 570.336673 
L 3418.795789 539.056512 
L 3420.816176 546.472333 
L 3422.836564 534.420288 
L 3424.856952 531.959349 
L 3426.87734 515.863043 
L 3428.897727 564.153927 
L 3432.938503 614.046141 
L 3434.95889 619.670313 
L 3436.979278 624.818131 
L 3438.999666 635.585725 
L 3441.020053 654.863928 
L 3443.040441 626.840122 
L 3445.060829 595.009578 
L 3447.081217 588.122107 
L 3449.101604 597.985122 
L 3451.121992 605.793882 
L 3453.14238 592.018417 
L 3455.162767 584.916933 
L 3457.183155 601.83077 
L 3459.203543 626.432634 
L 3461.22393 591.884574 
L 3463.244318 561.035881 
L 3465.264706 543.867591 
L 3467.285094 531.999118 
L 3469.305481 537.159939 
L 3471.325869 549.348268 
L 3473.346257 533.877683 
L 3475.366644 594.336719 
L 3477.387032 635.6702 
L 3479.40742 641.94108 
L 3481.427807 666.935027 
L 3483.448195 671.371181 
L 3485.468583 669.200039 
L 3487.488971 682.470809 
L 3489.509358 659.221578 
L 3491.529746 656.550765 
L 3493.550134 654.839822 
L 3497.590909 673.275468 
L 3499.611297 660.235876 
L 3501.631684 667.650622 
L 3503.652072 671.842014 
L 3505.67246 691.29715 
L 3507.692848 669.403452 
L 3509.713235 708.039308 
L 3511.733623 666.007506 
L 3513.754011 666.283979 
L 3515.774398 667.30406 
L 3517.794786 650.175132 
L 3519.815174 655.464815 
L 3521.835561 655.871676 
L 3523.855949 636.075435 
L 3527.896725 690.978897 
L 3529.917112 689.452312 
L 3531.9375 693.597922 
L 3533.957888 728.032815 
L 3535.978275 729.773275 
L 3537.998663 742.049938 
L 3540.019051 757.890486 
L 3542.039439 752.156408 
L 3544.059826 748.473933 
L 3548.100602 715.784231 
L 3550.120989 721.248261 
L 3552.141377 715.853468 
L 3554.161765 679.337582 
L 3556.182152 686.675465 
L 3558.20254 657.374374 
L 3560.222928 655.841837 
L 3562.243316 645.147104 
L 3564.263703 633.31858 
L 3568.304479 681.050269 
L 3570.324866 715.613724 
L 3572.345254 739.635657 
L 3582.447193 719.557169 
L 3584.46758 722.871432 
L 3586.487968 694.266911 
L 3590.528743 682.753691 
L 3592.549131 635.672829 
L 3596.589906 682.50287 
L 3598.610294 668.379699 
L 3600.630682 697.361347 
L 3602.65107 683.24413 
L 3604.671457 687.054173 
L 3647.099599 596.812992 
L 3649.119987 596.534752 
L 3653.160762 539.615558 
L 3659.221925 491.663597 
L 3661.242313 503.008576 
L 3663.262701 497.032246 
L 3665.283088 517.943459 
L 3667.303476 512.403273 
L 3669.323864 506.094102 
L 3671.344251 505.372149 
L 3673.364639 557.016359 
L 3675.385027 541.413884 
L 3677.405414 577.719685 
L 3679.425802 595.872038 
L 3681.44619 593.053686 
L 3683.466578 589.742325 
L 3685.486965 566.412522 
L 3687.507353 548.387685 
L 3689.527741 551.964909 
L 3691.548128 497.636788 
L 3693.568516 474.53531 
L 3695.588904 469.595884 
L 3697.609291 465.386264 
L 3703.670455 457.389914 
L 3705.690842 470.254461 
L 3707.71123 478.803513 
L 3711.752005 429.226254 
L 3713.772393 396.009025 
L 3715.792781 368.632363 
L 3717.813168 354.576433 
L 3719.833556 359.008893 
L 3723.874332 378.407078 
L 3725.894719 393.842321 
L 3727.915107 412.805991 
L 3729.935495 421.676476 
L 3733.97627 402.143167 
L 3735.996658 362.167152 
L 3738.017045 358.619594 
L 3740.037433 378.390329 
L 3744.078209 397.996225 
L 3746.098596 405.925819 
L 3748.118984 406.233825 
L 3750.139372 407.305907 
L 3752.159759 390.546452 
L 3756.200535 322.674077 
L 3758.220922 334.13073 
L 3760.24131 361.329953 
L 3762.261698 348.482023 
L 3764.282086 358.861379 
L 3766.302473 367.884356 
L 3768.322861 368.48384 
L 3772.363636 400.505801 
L 3774.384024 390.592323 
L 3776.404412 371.74916 
L 3778.424799 381.590718 
L 3780.445187 390.56748 
L 3786.50635 372.937455 
L 3788.526738 371.311815 
L 3790.547126 415.094757 
L 3792.567513 409.643699 
L 3794.587901 412.201141 
L 3796.608289 446.206535 
L 3798.628676 476.747253 
L 3952.178142 342.003456 
L 3954.198529 358.056455 
L 3956.218917 355.118948 
L 3958.239305 348.382881 
L 3960.259693 365.305107 
L 3962.28008 415.697477 
L 3970.361631 378.724696 
L 3972.382019 375.380173 
L 3978.443182 367.924069 
L 3980.46357 383.65851 
L 3982.483957 408.128663 
L 3984.504345 511.684163 
L 3986.524733 536.000622 
L 3988.54512 550.371648 
L 3990.565508 575.39386 
L 3996.626671 606.262658 
L 4002.687834 525.319074 
L 4004.708222 485.079571 
L 4006.72861 479.304705 
L 4008.748997 475.484043 
L 4010.769385 466.127431 
L 4012.789773 469.007041 
L 4016.830548 446.767647 
L 4018.850936 457.302044 
L 4020.871324 452.25687 
L 4028.952874 343.774859 
L 4030.973262 375.036965 
L 4032.99365 394.857661 
L 4035.014037 397.409769 
L 4037.034425 449.419677 
L 4039.054813 483.057195 
L 4041.075201 487.907872 
L 4043.095588 502.654979 
L 4045.115976 498.27039 
L 4047.136364 511.252112 
L 4047.136364 511.252112 
" clip-path="url(#p67d9b93894)" style="fill: none; stroke: #1ac938; stroke-width: 2.5; stroke-linecap: square"/>
   </g>
   <g id="patch_3">
    <path d="M 585 961.2 
L 585 129.6 
" style="fill: none; stroke: #000000; stroke-width: 0.8; stroke-linejoin: miter; stroke-linecap: square"/>
   </g>
   <g id="patch_4">
    <path d="M 4212 961.2 
L 4212 129.6 
" style="fill: none; stroke: #000000; stroke-width: 0.8; stroke-linejoin: miter; stroke-linecap: square"/>
   </g>
   <g id="patch_5">
    <path d="M 585 961.2 
L 4212 961.2 
" style="fill: none; stroke: #000000; stroke-width: 0.8; stroke-linejoin: miter; stroke-linecap: square"/>
   </g>
   <g id="patch_6">
    <path d="M 585 129.6 
L 4212 129.6 
" style="fill: none; stroke: #000000; stroke-width: 0.8; stroke-linejoin: miter; stroke-linecap: square"/>
   </g>
   <g id="text_21">
    <!-- BRSE -->
    <g transform="translate(2358.785156 123.360937) scale(0.3 -0.3)">
     <defs>
      <path id="DejaVuSans-42" d="M 1259 2228 
L 1259 519 
L 2272 519 
Q 2781 519 3026 730 
Q 3272 941 3272 1375 
Q 3272 1813 3026 2020 
Q 2781 2228 2272 2228 
L 1259 2228 
z
M 1259 4147 
L 1259 2741 
L 2194 2741 
Q 2656 2741 2882 2914 
Q 3109 3088 3109 3444 
Q 3109 3797 2882 3972 
Q 2656 4147 2194 4147 
L 1259 4147 
z
M 628 4666 
L 2241 4666 
Q 2963 4666 3353 4366 
Q 3744 4066 3744 3513 
Q 3744 3084 3544 2831 
Q 3344 2578 2956 2516 
Q 3422 2416 3680 2098 
Q 3938 1781 3938 1306 
Q 3938 681 3513 340 
Q 3088 0 2303 0 
L 628 0 
L 628 4666 
z
" transform="scale(0.015625)"/>
      <path id="DejaVuSans-52" d="M 2841 2188 
Q 3044 2119 3236 1894 
Q 3428 1669 3622 1275 
L 4263 0 
L 3584 0 
L 2988 1197 
Q 2756 1666 2539 1819 
Q 2322 1972 1947 1972 
L 1259 1972 
L 1259 0 
L 628 0 
L 628 4666 
L 2053 4666 
Q 2853 4666 3247 4331 
Q 3641 3997 3641 3322 
Q 3641 2881 3436 2590 
Q 3231 2300 2841 2188 
z
M 1259 4147 
L 1259 2491 
L 2053 2491 
Q 2509 2491 2742 2702 
Q 2975 2913 2975 3322 
Q 2975 3731 2742 3939 
Q 2509 4147 2053 4147 
L 1259 4147 
z
" transform="scale(0.015625)"/>
      <path id="DejaVuSans-53" d="M 3425 4513 
L 3425 3897 
Q 3066 4069 2747 4153 
Q 2428 4238 2131 4238 
Q 1616 4238 1336 4038 
Q 1056 3838 1056 3469 
Q 1056 3159 1242 3001 
Q 1428 2844 1947 2747 
L 2328 2669 
Q 3034 2534 3370 2195 
Q 3706 1856 3706 1288 
Q 3706 609 3251 259 
Q 2797 -91 1919 -91 
Q 1588 -91 1214 -16 
Q 841 59 441 206 
L 441 856 
Q 825 641 1194 531 
Q 1563 422 1919 422 
Q 2459 422 2753 634 
Q 3047 847 3047 1241 
Q 3047 1584 2836 1778 
Q 2625 1972 2144 2069 
L 1759 2144 
Q 1053 2284 737 2584 
Q 422 2884 422 3419 
Q 422 4038 858 4394 
Q 1294 4750 2059 4750 
Q 2388 4750 2728 4690 
Q 3069 4631 3425 4513 
z
" transform="scale(0.015625)"/>
      <path id="DejaVuSans-45" d="M 628 4666 
L 3578 4666 
L 3578 4134 
L 1259 4134 
L 1259 2753 
L 3481 2753 
L 3481 2222 
L 1259 2222 
L 1259 531 
L 3634 531 
L 3634 0 
L 628 0 
L 628 4666 
z
" transform="scale(0.015625)"/>
     </defs>
     <use xlink:href="#DejaVuSans-42"/>
     <use xlink:href="#DejaVuSans-52" x="68.603516"/>
     <use xlink:href="#DejaVuSans-53" x="138.085938"/>
     <use xlink:href="#DejaVuSans-45" x="201.5625"/>
    </g>
   </g>
   <g id="legend_1">
    <g id="patch_7">
     <path d="M 4151.178125 152.278125 
L 4205 152.278125 
Q 4207 152.278125 4207 150.278125 
L 4207 136.6 
Q 4207 134.6 4205 134.6 
L 4151.178125 134.6 
Q 4149.178125 134.6 4149.178125 136.6 
L 4149.178125 150.278125 
Q 4149.178125 152.278125 4151.178125 152.278125 
z
" style="fill: #ffffff; opacity: 0.8; stroke: #cccccc; stroke-linejoin: miter"/>
    </g>
    <g id="line2d_20">
     <path d="M 4153.178125 142.698438 
L 4163.178125 142.698438 
L 4173.178125 142.698438 
" style="fill: none; stroke: #1ac938; stroke-width: 2.5; stroke-linecap: square"/>
    </g>
    <g id="text_22">
     <!-- brse -->
     <g transform="translate(4181.178125 146.198438) scale(0.1 -0.1)">
      <defs>
       <path id="DejaVuSans-62" d="M 3116 1747 
Q 3116 2381 2855 2742 
Q 2594 3103 2138 3103 
Q 1681 3103 1420 2742 
Q 1159 2381 1159 1747 
Q 1159 1113 1420 752 
Q 1681 391 2138 391 
Q 2594 391 2855 752 
Q 3116 1113 3116 1747 
z
M 1159 2969 
Q 1341 3281 1617 3432 
Q 1894 3584 2278 3584 
Q 2916 3584 3314 3078 
Q 3713 2572 3713 1747 
Q 3713 922 3314 415 
Q 2916 -91 2278 -91 
Q 1894 -91 1617 61 
Q 1341 213 1159 525 
L 1159 0 
L 581 0 
L 581 4863 
L 1159 4863 
L 1159 2969 
z
" transform="scale(0.015625)"/>
       <path id="DejaVuSans-73" d="M 2834 3397 
L 2834 2853 
Q 2591 2978 2328 3040 
Q 2066 3103 1784 3103 
Q 1356 3103 1142 2972 
Q 928 2841 928 2578 
Q 928 2378 1081 2264 
Q 1234 2150 1697 2047 
L 1894 2003 
Q 2506 1872 2764 1633 
Q 3022 1394 3022 966 
Q 3022 478 2636 193 
Q 2250 -91 1575 -91 
Q 1294 -91 989 -36 
Q 684 19 347 128 
L 347 722 
Q 666 556 975 473 
Q 1284 391 1588 391 
Q 1994 391 2212 530 
Q 2431 669 2431 922 
Q 2431 1156 2273 1281 
Q 2116 1406 1581 1522 
L 1381 1569 
Q 847 1681 609 1914 
Q 372 2147 372 2553 
Q 372 3047 722 3315 
Q 1072 3584 1716 3584 
Q 2034 3584 2315 3537 
Q 2597 3491 2834 3397 
z
" transform="scale(0.015625)"/>
      </defs>
      <use xlink:href="#DejaVuSans-62"/>
      <use xlink:href="#DejaVuSans-72" x="63.476562"/>
      <use xlink:href="#DejaVuSans-73" x="104.589844"/>
      <use xlink:href="#DejaVuSans-65" x="156.689453"/>
     </g>
    </g>
   </g>
  </g>
 </g>
 <defs>
  <clipPath id="p67d9b93894">
   <rect x="585" y="129.6" width="3627" height="831.6"/>
  </clipPath>
 </defs>
</svg>
