<?xml version="1.0" encoding="utf-8" standalone="no"?>
<!DOCTYPE svg PUBLIC "-//W3C//DTD SVG 1.1//EN"
  "http://www.w3.org/Graphics/SVG/1.1/DTD/svg11.dtd">
<svg xmlns:xlink="http://www.w3.org/1999/xlink" width="4680pt" height="1080pt" viewBox="0 0 4680 1080" xmlns="http://www.w3.org/2000/svg" version="1.1">
 <metadata>
  <rdf:RDF xmlns:dc="http://purl.org/dc/elements/1.1/" xmlns:cc="http://creativecommons.org/ns#" xmlns:rdf="http://www.w3.org/1999/02/22-rdf-syntax-ns#">
   <cc:Work>
    <dc:type rdf:resource="http://purl.org/dc/dcmitype/StillImage"/>
    <dc:date>2024-03-25T15:24:54.676059</dc:date>
    <dc:format>image/svg+xml</dc:format>
    <dc:creator>
     <cc:Agent>
      <dc:title>Matplotlib v3.7.2, https://matplotlib.org/</dc:title>
     </cc:Agent>
    </dc:creator>
   </cc:Work>
  </rdf:RDF>
 </metadata>
 <defs>
  <style type="text/css">*{stroke-linejoin: round; stroke-linecap: butt}</style>
 </defs>
 <g id="figure_1">
  <g id="patch_1">
   <path d="M 0 1080 
L 4680 1080 
L 4680 0 
L 0 0 
z
" style="fill: #ffffff"/>
  </g>
  <g id="axes_1">
   <g id="patch_2">
    <path d="M 585 961.2 
L 4212 961.2 
L 4212 129.6 
L 585 129.6 
z
" style="fill: #ffffff"/>
   </g>
   <g id="matplotlib.axis_1">
    <g id="xtick_1">
     <g id="line2d_1">
      <defs>
       <path id="mb41f0a76b0" d="M 0 0 
L 0 3.5 
" style="stroke: #000000; stroke-width: 0.8"/>
      </defs>
      <g>
       <use xlink:href="#mb41f0a76b0" x="941.800468" y="961.2" style="stroke: #000000; stroke-width: 0.8"/>
      </g>
     </g>
     <g id="text_1">
      <!-- 2012-07 -->
      <g transform="translate(900.017655 983.396875) scale(0.2 -0.2)">
       <defs>
        <path id="DejaVuSans-32" d="M 1228 531 
L 3431 531 
L 3431 0 
L 469 0 
L 469 531 
Q 828 903 1448 1529 
Q 2069 2156 2228 2338 
Q 2531 2678 2651 2914 
Q 2772 3150 2772 3378 
Q 2772 3750 2511 3984 
Q 2250 4219 1831 4219 
Q 1534 4219 1204 4116 
Q 875 4013 500 3803 
L 500 4441 
Q 881 4594 1212 4672 
Q 1544 4750 1819 4750 
Q 2544 4750 2975 4387 
Q 3406 4025 3406 3419 
Q 3406 3131 3298 2873 
Q 3191 2616 2906 2266 
Q 2828 2175 2409 1742 
Q 1991 1309 1228 531 
z
" transform="scale(0.015625)"/>
        <path id="DejaVuSans-30" d="M 2034 4250 
Q 1547 4250 1301 3770 
Q 1056 3291 1056 2328 
Q 1056 1369 1301 889 
Q 1547 409 2034 409 
Q 2525 409 2770 889 
Q 3016 1369 3016 2328 
Q 3016 3291 2770 3770 
Q 2525 4250 2034 4250 
z
M 2034 4750 
Q 2819 4750 3233 4129 
Q 3647 3509 3647 2328 
Q 3647 1150 3233 529 
Q 2819 -91 2034 -91 
Q 1250 -91 836 529 
Q 422 1150 422 2328 
Q 422 3509 836 4129 
Q 1250 4750 2034 4750 
z
" transform="scale(0.015625)"/>
        <path id="DejaVuSans-31" d="M 794 531 
L 1825 531 
L 1825 4091 
L 703 3866 
L 703 4441 
L 1819 4666 
L 2450 4666 
L 2450 531 
L 3481 531 
L 3481 0 
L 794 0 
L 794 531 
z
" transform="scale(0.015625)"/>
        <path id="DejaVuSans-2d" d="M 313 2009 
L 1997 2009 
L 1997 1497 
L 313 1497 
L 313 2009 
z
" transform="scale(0.015625)"/>
        <path id="DejaVuSans-37" d="M 525 4666 
L 3525 4666 
L 3525 4397 
L 1831 0 
L 1172 0 
L 2766 4134 
L 525 4134 
L 525 4666 
z
" transform="scale(0.015625)"/>
       </defs>
       <use xlink:href="#DejaVuSans-32"/>
       <use xlink:href="#DejaVuSans-30" x="63.623047"/>
       <use xlink:href="#DejaVuSans-31" x="127.246094"/>
       <use xlink:href="#DejaVuSans-32" x="190.869141"/>
       <use xlink:href="#DejaVuSans-2d" x="254.492188"/>
       <use xlink:href="#DejaVuSans-30" x="290.576172"/>
       <use xlink:href="#DejaVuSans-37" x="354.199219"/>
      </g>
     </g>
    </g>
    <g id="xtick_2">
     <g id="line2d_2">
      <g>
       <use xlink:href="#mb41f0a76b0" x="1313.551805" y="961.2" style="stroke: #000000; stroke-width: 0.8"/>
      </g>
     </g>
     <g id="text_2">
      <!-- 2013-01 -->
      <g transform="translate(1271.768992 983.396875) scale(0.2 -0.2)">
       <defs>
        <path id="DejaVuSans-33" d="M 2597 2516 
Q 3050 2419 3304 2112 
Q 3559 1806 3559 1356 
Q 3559 666 3084 287 
Q 2609 -91 1734 -91 
Q 1441 -91 1130 -33 
Q 819 25 488 141 
L 488 750 
Q 750 597 1062 519 
Q 1375 441 1716 441 
Q 2309 441 2620 675 
Q 2931 909 2931 1356 
Q 2931 1769 2642 2001 
Q 2353 2234 1838 2234 
L 1294 2234 
L 1294 2753 
L 1863 2753 
Q 2328 2753 2575 2939 
Q 2822 3125 2822 3475 
Q 2822 3834 2567 4026 
Q 2313 4219 1838 4219 
Q 1578 4219 1281 4162 
Q 984 4106 628 3988 
L 628 4550 
Q 988 4650 1302 4700 
Q 1616 4750 1894 4750 
Q 2613 4750 3031 4423 
Q 3450 4097 3450 3541 
Q 3450 3153 3228 2886 
Q 3006 2619 2597 2516 
z
" transform="scale(0.015625)"/>
       </defs>
       <use xlink:href="#DejaVuSans-32"/>
       <use xlink:href="#DejaVuSans-30" x="63.623047"/>
       <use xlink:href="#DejaVuSans-31" x="127.246094"/>
       <use xlink:href="#DejaVuSans-33" x="190.869141"/>
       <use xlink:href="#DejaVuSans-2d" x="254.492188"/>
       <use xlink:href="#DejaVuSans-30" x="290.576172"/>
       <use xlink:href="#DejaVuSans-31" x="354.199219"/>
      </g>
     </g>
    </g>
    <g id="xtick_3">
     <g id="line2d_3">
      <g>
       <use xlink:href="#mb41f0a76b0" x="1679.241979" y="961.2" style="stroke: #000000; stroke-width: 0.8"/>
      </g>
     </g>
     <g id="text_3">
      <!-- 2013-07 -->
      <g transform="translate(1637.459166 983.396875) scale(0.2 -0.2)">
       <use xlink:href="#DejaVuSans-32"/>
       <use xlink:href="#DejaVuSans-30" x="63.623047"/>
       <use xlink:href="#DejaVuSans-31" x="127.246094"/>
       <use xlink:href="#DejaVuSans-33" x="190.869141"/>
       <use xlink:href="#DejaVuSans-2d" x="254.492188"/>
       <use xlink:href="#DejaVuSans-30" x="290.576172"/>
       <use xlink:href="#DejaVuSans-37" x="354.199219"/>
      </g>
     </g>
    </g>
    <g id="xtick_4">
     <g id="line2d_4">
      <g>
       <use xlink:href="#mb41f0a76b0" x="2050.993316" y="961.2" style="stroke: #000000; stroke-width: 0.8"/>
      </g>
     </g>
     <g id="text_4">
      <!-- 2014-01 -->
      <g transform="translate(2009.210503 983.396875) scale(0.2 -0.2)">
       <defs>
        <path id="DejaVuSans-34" d="M 2419 4116 
L 825 1625 
L 2419 1625 
L 2419 4116 
z
M 2253 4666 
L 3047 4666 
L 3047 1625 
L 3713 1625 
L 3713 1100 
L 3047 1100 
L 3047 0 
L 2419 0 
L 2419 1100 
L 313 1100 
L 313 1709 
L 2253 4666 
z
" transform="scale(0.015625)"/>
       </defs>
       <use xlink:href="#DejaVuSans-32"/>
       <use xlink:href="#DejaVuSans-30" x="63.623047"/>
       <use xlink:href="#DejaVuSans-31" x="127.246094"/>
       <use xlink:href="#DejaVuSans-34" x="190.869141"/>
       <use xlink:href="#DejaVuSans-2d" x="254.492188"/>
       <use xlink:href="#DejaVuSans-30" x="290.576172"/>
       <use xlink:href="#DejaVuSans-31" x="354.199219"/>
      </g>
     </g>
    </g>
    <g id="xtick_5">
     <g id="line2d_5">
      <g>
       <use xlink:href="#mb41f0a76b0" x="2416.683489" y="961.2" style="stroke: #000000; stroke-width: 0.8"/>
      </g>
     </g>
     <g id="text_5">
      <!-- 2014-07 -->
      <g transform="translate(2374.900677 983.396875) scale(0.2 -0.2)">
       <use xlink:href="#DejaVuSans-32"/>
       <use xlink:href="#DejaVuSans-30" x="63.623047"/>
       <use xlink:href="#DejaVuSans-31" x="127.246094"/>
       <use xlink:href="#DejaVuSans-34" x="190.869141"/>
       <use xlink:href="#DejaVuSans-2d" x="254.492188"/>
       <use xlink:href="#DejaVuSans-30" x="290.576172"/>
       <use xlink:href="#DejaVuSans-37" x="354.199219"/>
      </g>
     </g>
    </g>
    <g id="xtick_6">
     <g id="line2d_6">
      <g>
       <use xlink:href="#mb41f0a76b0" x="2788.434826" y="961.2" style="stroke: #000000; stroke-width: 0.8"/>
      </g>
     </g>
     <g id="text_6">
      <!-- 2015-01 -->
      <g transform="translate(2746.652014 983.396875) scale(0.2 -0.2)">
       <defs>
        <path id="DejaVuSans-35" d="M 691 4666 
L 3169 4666 
L 3169 4134 
L 1269 4134 
L 1269 2991 
Q 1406 3038 1543 3061 
Q 1681 3084 1819 3084 
Q 2600 3084 3056 2656 
Q 3513 2228 3513 1497 
Q 3513 744 3044 326 
Q 2575 -91 1722 -91 
Q 1428 -91 1123 -41 
Q 819 9 494 109 
L 494 744 
Q 775 591 1075 516 
Q 1375 441 1709 441 
Q 2250 441 2565 725 
Q 2881 1009 2881 1497 
Q 2881 1984 2565 2268 
Q 2250 2553 1709 2553 
Q 1456 2553 1204 2497 
Q 953 2441 691 2322 
L 691 4666 
z
" transform="scale(0.015625)"/>
       </defs>
       <use xlink:href="#DejaVuSans-32"/>
       <use xlink:href="#DejaVuSans-30" x="63.623047"/>
       <use xlink:href="#DejaVuSans-31" x="127.246094"/>
       <use xlink:href="#DejaVuSans-35" x="190.869141"/>
       <use xlink:href="#DejaVuSans-2d" x="254.492188"/>
       <use xlink:href="#DejaVuSans-30" x="290.576172"/>
       <use xlink:href="#DejaVuSans-31" x="354.199219"/>
      </g>
     </g>
    </g>
    <g id="xtick_7">
     <g id="line2d_7">
      <g>
       <use xlink:href="#mb41f0a76b0" x="3154.125" y="961.2" style="stroke: #000000; stroke-width: 0.8"/>
      </g>
     </g>
     <g id="text_7">
      <!-- 2015-07 -->
      <g transform="translate(3112.342188 983.396875) scale(0.2 -0.2)">
       <use xlink:href="#DejaVuSans-32"/>
       <use xlink:href="#DejaVuSans-30" x="63.623047"/>
       <use xlink:href="#DejaVuSans-31" x="127.246094"/>
       <use xlink:href="#DejaVuSans-35" x="190.869141"/>
       <use xlink:href="#DejaVuSans-2d" x="254.492188"/>
       <use xlink:href="#DejaVuSans-30" x="290.576172"/>
       <use xlink:href="#DejaVuSans-37" x="354.199219"/>
      </g>
     </g>
    </g>
    <g id="xtick_8">
     <g id="line2d_8">
      <g>
       <use xlink:href="#mb41f0a76b0" x="3525.876337" y="961.2" style="stroke: #000000; stroke-width: 0.8"/>
      </g>
     </g>
     <g id="text_8">
      <!-- 2016-01 -->
      <g transform="translate(3484.093524 983.396875) scale(0.2 -0.2)">
       <defs>
        <path id="DejaVuSans-36" d="M 2113 2584 
Q 1688 2584 1439 2293 
Q 1191 2003 1191 1497 
Q 1191 994 1439 701 
Q 1688 409 2113 409 
Q 2538 409 2786 701 
Q 3034 994 3034 1497 
Q 3034 2003 2786 2293 
Q 2538 2584 2113 2584 
z
M 3366 4563 
L 3366 3988 
Q 3128 4100 2886 4159 
Q 2644 4219 2406 4219 
Q 1781 4219 1451 3797 
Q 1122 3375 1075 2522 
Q 1259 2794 1537 2939 
Q 1816 3084 2150 3084 
Q 2853 3084 3261 2657 
Q 3669 2231 3669 1497 
Q 3669 778 3244 343 
Q 2819 -91 2113 -91 
Q 1303 -91 875 529 
Q 447 1150 447 2328 
Q 447 3434 972 4092 
Q 1497 4750 2381 4750 
Q 2619 4750 2861 4703 
Q 3103 4656 3366 4563 
z
" transform="scale(0.015625)"/>
       </defs>
       <use xlink:href="#DejaVuSans-32"/>
       <use xlink:href="#DejaVuSans-30" x="63.623047"/>
       <use xlink:href="#DejaVuSans-31" x="127.246094"/>
       <use xlink:href="#DejaVuSans-36" x="190.869141"/>
       <use xlink:href="#DejaVuSans-2d" x="254.492188"/>
       <use xlink:href="#DejaVuSans-30" x="290.576172"/>
       <use xlink:href="#DejaVuSans-31" x="354.199219"/>
      </g>
     </g>
    </g>
    <g id="xtick_9">
     <g id="line2d_9">
      <g>
       <use xlink:href="#mb41f0a76b0" x="3893.586898" y="961.2" style="stroke: #000000; stroke-width: 0.8"/>
      </g>
     </g>
     <g id="text_9">
      <!-- 2016-07 -->
      <g transform="translate(3851.804086 983.396875) scale(0.2 -0.2)">
       <use xlink:href="#DejaVuSans-32"/>
       <use xlink:href="#DejaVuSans-30" x="63.623047"/>
       <use xlink:href="#DejaVuSans-31" x="127.246094"/>
       <use xlink:href="#DejaVuSans-36" x="190.869141"/>
       <use xlink:href="#DejaVuSans-2d" x="254.492188"/>
       <use xlink:href="#DejaVuSans-30" x="290.576172"/>
       <use xlink:href="#DejaVuSans-37" x="354.199219"/>
      </g>
     </g>
    </g>
    <g id="text_10">
     <!-- Time -->
     <g transform="translate(2374.032813 1006.753125) scale(0.2 -0.2)">
      <defs>
       <path id="DejaVuSans-54" d="M -19 4666 
L 3928 4666 
L 3928 4134 
L 2272 4134 
L 2272 0 
L 1638 0 
L 1638 4134 
L -19 4134 
L -19 4666 
z
" transform="scale(0.015625)"/>
       <path id="DejaVuSans-69" d="M 603 3500 
L 1178 3500 
L 1178 0 
L 603 0 
L 603 3500 
z
M 603 4863 
L 1178 4863 
L 1178 4134 
L 603 4134 
L 603 4863 
z
" transform="scale(0.015625)"/>
       <path id="DejaVuSans-6d" d="M 3328 2828 
Q 3544 3216 3844 3400 
Q 4144 3584 4550 3584 
Q 5097 3584 5394 3201 
Q 5691 2819 5691 2113 
L 5691 0 
L 5113 0 
L 5113 2094 
Q 5113 2597 4934 2840 
Q 4756 3084 4391 3084 
Q 3944 3084 3684 2787 
Q 3425 2491 3425 1978 
L 3425 0 
L 2847 0 
L 2847 2094 
Q 2847 2600 2669 2842 
Q 2491 3084 2119 3084 
Q 1678 3084 1418 2786 
Q 1159 2488 1159 1978 
L 1159 0 
L 581 0 
L 581 3500 
L 1159 3500 
L 1159 2956 
Q 1356 3278 1631 3431 
Q 1906 3584 2284 3584 
Q 2666 3584 2933 3390 
Q 3200 3197 3328 2828 
z
" transform="scale(0.015625)"/>
       <path id="DejaVuSans-65" d="M 3597 1894 
L 3597 1613 
L 953 1613 
Q 991 1019 1311 708 
Q 1631 397 2203 397 
Q 2534 397 2845 478 
Q 3156 559 3463 722 
L 3463 178 
Q 3153 47 2828 -22 
Q 2503 -91 2169 -91 
Q 1331 -91 842 396 
Q 353 884 353 1716 
Q 353 2575 817 3079 
Q 1281 3584 2069 3584 
Q 2775 3584 3186 3129 
Q 3597 2675 3597 1894 
z
M 3022 2063 
Q 3016 2534 2758 2815 
Q 2500 3097 2075 3097 
Q 1594 3097 1305 2825 
Q 1016 2553 972 2059 
L 3022 2063 
z
" transform="scale(0.015625)"/>
      </defs>
      <use xlink:href="#DejaVuSans-54"/>
      <use xlink:href="#DejaVuSans-69" x="57.958984"/>
      <use xlink:href="#DejaVuSans-6d" x="85.742188"/>
      <use xlink:href="#DejaVuSans-65" x="183.154297"/>
     </g>
    </g>
   </g>
   <g id="matplotlib.axis_2">
    <g id="ytick_1">
     <g id="line2d_10">
      <defs>
       <path id="m4ed578ac00" d="M 0 0 
L -3.5 0 
" style="stroke: #000000; stroke-width: 0.8"/>
      </defs>
      <g>
       <use xlink:href="#m4ed578ac00" x="585" y="917.935602" style="stroke: #000000; stroke-width: 0.8"/>
      </g>
     </g>
     <g id="text_11">
      <!-- −0.006 -->
      <g transform="translate(503.984375 925.53404) scale(0.2 -0.2)">
       <defs>
        <path id="DejaVuSans-2212" d="M 678 2272 
L 4684 2272 
L 4684 1741 
L 678 1741 
L 678 2272 
z
" transform="scale(0.015625)"/>
        <path id="DejaVuSans-2e" d="M 684 794 
L 1344 794 
L 1344 0 
L 684 0 
L 684 794 
z
" transform="scale(0.015625)"/>
       </defs>
       <use xlink:href="#DejaVuSans-2212"/>
       <use xlink:href="#DejaVuSans-30" x="83.789062"/>
       <use xlink:href="#DejaVuSans-2e" x="147.412109"/>
       <use xlink:href="#DejaVuSans-30" x="179.199219"/>
       <use xlink:href="#DejaVuSans-30" x="242.822266"/>
       <use xlink:href="#DejaVuSans-36" x="306.445312"/>
      </g>
     </g>
    </g>
    <g id="ytick_2">
     <g id="line2d_11">
      <g>
       <use xlink:href="#m4ed578ac00" x="585" y="785.012683" style="stroke: #000000; stroke-width: 0.8"/>
      </g>
     </g>
     <g id="text_12">
      <!-- −0.004 -->
      <g transform="translate(503.984375 792.61112) scale(0.2 -0.2)">
       <use xlink:href="#DejaVuSans-2212"/>
       <use xlink:href="#DejaVuSans-30" x="83.789062"/>
       <use xlink:href="#DejaVuSans-2e" x="147.412109"/>
       <use xlink:href="#DejaVuSans-30" x="179.199219"/>
       <use xlink:href="#DejaVuSans-30" x="242.822266"/>
       <use xlink:href="#DejaVuSans-34" x="306.445312"/>
      </g>
     </g>
    </g>
    <g id="ytick_3">
     <g id="line2d_12">
      <g>
       <use xlink:href="#m4ed578ac00" x="585" y="652.089763" style="stroke: #000000; stroke-width: 0.8"/>
      </g>
     </g>
     <g id="text_13">
      <!-- −0.002 -->
      <g transform="translate(503.984375 659.688201) scale(0.2 -0.2)">
       <use xlink:href="#DejaVuSans-2212"/>
       <use xlink:href="#DejaVuSans-30" x="83.789062"/>
       <use xlink:href="#DejaVuSans-2e" x="147.412109"/>
       <use xlink:href="#DejaVuSans-30" x="179.199219"/>
       <use xlink:href="#DejaVuSans-30" x="242.822266"/>
       <use xlink:href="#DejaVuSans-32" x="306.445312"/>
      </g>
     </g>
    </g>
    <g id="ytick_4">
     <g id="line2d_13">
      <g>
       <use xlink:href="#m4ed578ac00" x="585" y="519.166844" style="stroke: #000000; stroke-width: 0.8"/>
      </g>
     </g>
     <g id="text_14">
      <!-- 0.000 -->
      <g transform="translate(520.74375 526.765281) scale(0.2 -0.2)">
       <use xlink:href="#DejaVuSans-30"/>
       <use xlink:href="#DejaVuSans-2e" x="63.623047"/>
       <use xlink:href="#DejaVuSans-30" x="95.410156"/>
       <use xlink:href="#DejaVuSans-30" x="159.033203"/>
       <use xlink:href="#DejaVuSans-30" x="222.65625"/>
      </g>
     </g>
    </g>
    <g id="ytick_5">
     <g id="line2d_14">
      <g>
       <use xlink:href="#m4ed578ac00" x="585" y="386.243924" style="stroke: #000000; stroke-width: 0.8"/>
      </g>
     </g>
     <g id="text_15">
      <!-- 0.002 -->
      <g transform="translate(520.74375 393.842362) scale(0.2 -0.2)">
       <use xlink:href="#DejaVuSans-30"/>
       <use xlink:href="#DejaVuSans-2e" x="63.623047"/>
       <use xlink:href="#DejaVuSans-30" x="95.410156"/>
       <use xlink:href="#DejaVuSans-30" x="159.033203"/>
       <use xlink:href="#DejaVuSans-32" x="222.65625"/>
      </g>
     </g>
    </g>
    <g id="ytick_6">
     <g id="line2d_15">
      <g>
       <use xlink:href="#m4ed578ac00" x="585" y="253.321005" style="stroke: #000000; stroke-width: 0.8"/>
      </g>
     </g>
     <g id="text_16">
      <!-- 0.004 -->
      <g transform="translate(520.74375 260.919442) scale(0.2 -0.2)">
       <use xlink:href="#DejaVuSans-30"/>
       <use xlink:href="#DejaVuSans-2e" x="63.623047"/>
       <use xlink:href="#DejaVuSans-30" x="95.410156"/>
       <use xlink:href="#DejaVuSans-30" x="159.033203"/>
       <use xlink:href="#DejaVuSans-34" x="222.65625"/>
      </g>
     </g>
    </g>
    <g id="text_17">
     <!-- North(m) -->
     <g transform="translate(495.825 590.9125) rotate(-90) scale(0.2 -0.2)">
      <defs>
       <path id="DejaVuSans-4e" d="M 628 4666 
L 1478 4666 
L 3547 763 
L 3547 4666 
L 4159 4666 
L 4159 0 
L 3309 0 
L 1241 3903 
L 1241 0 
L 628 0 
L 628 4666 
z
" transform="scale(0.015625)"/>
       <path id="DejaVuSans-6f" d="M 1959 3097 
Q 1497 3097 1228 2736 
Q 959 2375 959 1747 
Q 959 1119 1226 758 
Q 1494 397 1959 397 
Q 2419 397 2687 759 
Q 2956 1122 2956 1747 
Q 2956 2369 2687 2733 
Q 2419 3097 1959 3097 
z
M 1959 3584 
Q 2709 3584 3137 3096 
Q 3566 2609 3566 1747 
Q 3566 888 3137 398 
Q 2709 -91 1959 -91 
Q 1206 -91 779 398 
Q 353 888 353 1747 
Q 353 2609 779 3096 
Q 1206 3584 1959 3584 
z
" transform="scale(0.015625)"/>
       <path id="DejaVuSans-72" d="M 2631 2963 
Q 2534 3019 2420 3045 
Q 2306 3072 2169 3072 
Q 1681 3072 1420 2755 
Q 1159 2438 1159 1844 
L 1159 0 
L 581 0 
L 581 3500 
L 1159 3500 
L 1159 2956 
Q 1341 3275 1631 3429 
Q 1922 3584 2338 3584 
Q 2397 3584 2469 3576 
Q 2541 3569 2628 3553 
L 2631 2963 
z
" transform="scale(0.015625)"/>
       <path id="DejaVuSans-74" d="M 1172 4494 
L 1172 3500 
L 2356 3500 
L 2356 3053 
L 1172 3053 
L 1172 1153 
Q 1172 725 1289 603 
Q 1406 481 1766 481 
L 2356 481 
L 2356 0 
L 1766 0 
Q 1100 0 847 248 
Q 594 497 594 1153 
L 594 3053 
L 172 3053 
L 172 3500 
L 594 3500 
L 594 4494 
L 1172 4494 
z
" transform="scale(0.015625)"/>
       <path id="DejaVuSans-68" d="M 3513 2113 
L 3513 0 
L 2938 0 
L 2938 2094 
Q 2938 2591 2744 2837 
Q 2550 3084 2163 3084 
Q 1697 3084 1428 2787 
Q 1159 2491 1159 1978 
L 1159 0 
L 581 0 
L 581 4863 
L 1159 4863 
L 1159 2956 
Q 1366 3272 1645 3428 
Q 1925 3584 2291 3584 
Q 2894 3584 3203 3211 
Q 3513 2838 3513 2113 
z
" transform="scale(0.015625)"/>
       <path id="DejaVuSans-28" d="M 1984 4856 
Q 1566 4138 1362 3434 
Q 1159 2731 1159 2009 
Q 1159 1288 1364 580 
Q 1569 -128 1984 -844 
L 1484 -844 
Q 1016 -109 783 600 
Q 550 1309 550 2009 
Q 550 2706 781 3412 
Q 1013 4119 1484 4856 
L 1984 4856 
z
" transform="scale(0.015625)"/>
       <path id="DejaVuSans-29" d="M 513 4856 
L 1013 4856 
Q 1481 4119 1714 3412 
Q 1947 2706 1947 2009 
Q 1947 1309 1714 600 
Q 1481 -109 1013 -844 
L 513 -844 
Q 928 -128 1133 580 
Q 1338 1288 1338 2009 
Q 1338 2731 1133 3434 
Q 928 4138 513 4856 
z
" transform="scale(0.015625)"/>
      </defs>
      <use xlink:href="#DejaVuSans-4e"/>
      <use xlink:href="#DejaVuSans-6f" x="74.804688"/>
      <use xlink:href="#DejaVuSans-72" x="135.986328"/>
      <use xlink:href="#DejaVuSans-74" x="177.099609"/>
      <use xlink:href="#DejaVuSans-68" x="216.308594"/>
      <use xlink:href="#DejaVuSans-28" x="279.6875"/>
      <use xlink:href="#DejaVuSans-6d" x="318.701172"/>
      <use xlink:href="#DejaVuSans-29" x="416.113281"/>
     </g>
    </g>
   </g>
   <g id="line2d_16">
    <path d="M 749.863636 208.446997 
L 755.924799 251.882702 
L 761.985963 245.06875 
L 764.00635 244.456507 
L 766.026738 248.729573 
L 768.047126 240.502358 
L 770.067513 226.373235 
L 772.087901 237.810859 
L 774.108289 245.201258 
L 776.128676 238.238283 
L 790.27139 269.335823 
L 792.291778 285.943379 
L 794.312166 295.496954 
L 796.332553 303.246219 
L 798.352941 313.137812 
L 800.373329 325.332641 
L 802.393717 324.043718 
L 806.434492 345.255149 
L 808.45488 350.460531 
L 810.475267 344.025592 
L 812.495655 347.084219 
L 824.617981 359.247729 
L 830.679144 346.811712 
L 832.699532 337.50047 
L 834.71992 327.117649 
L 836.740307 332.740584 
L 844.821858 297.06972 
L 850.883021 320.612243 
L 852.903409 330.076983 
L 854.923797 340.142555 
L 856.944184 339.518131 
L 860.98496 374.581217 
L 867.046123 423.390405 
L 869.066511 431.699919 
L 873.107286 480.12955 
L 875.127674 468.530989 
L 877.148061 480.155697 
L 879.168449 457.204374 
L 881.188837 453.261375 
L 883.209225 442.034092 
L 885.229612 416.227467 
L 889.270388 392.467547 
L 891.290775 384.703522 
L 893.311163 388.569467 
L 895.331551 387.225219 
L 897.351939 383.912826 
L 899.372326 383.180152 
L 901.392714 389.359869 
L 903.413102 370.039155 
L 905.433489 344.145487 
L 907.453877 332.525472 
L 909.474265 331.902297 
L 913.51504 343.889851 
L 915.535428 339.623484 
L 917.555816 364.519021 
L 933.718917 323.005792 
L 937.759693 313.464731 
L 1044.840241 167.4 
L 1048.881016 184.662332 
L 1212.53242 548.169326 
L 1214.552807 592.437899 
L 1216.573195 647.774246 
L 1226.675134 909.399294 
L 1230.715909 902.367954 
L 1232.736297 878.416988 
L 1234.756684 861.849146 
L 1236.777072 832.772709 
L 1238.79746 811.705001 
L 1240.817848 780.38639 
L 1242.838235 738.20081 
L 1252.940174 923.4 
L 1333.755682 562.585397 
L 1335.77607 590.453946 
L 1337.796457 599.958612 
L 1341.837233 597.0628 
L 1372.143048 484.938256 
L 1374.163436 470.109668 
L 1376.183824 471.776358 
L 1378.204211 457.52277 
L 1382.244987 444.249464 
L 1384.265374 462.730508 
L 1386.285762 434.045831 
L 1388.30615 421.543128 
L 1390.326537 403.079381 
L 1392.346925 398.572684 
L 1394.367313 418.900639 
L 1398.408088 426.749558 
L 1400.428476 453.636729 
L 1404.469251 486.648671 
L 1406.489639 490.029817 
L 1412.550802 426.052781 
L 1414.57119 395.506946 
L 1416.591578 371.975333 
L 1418.611965 363.724363 
L 1420.632353 365.481451 
L 1422.652741 382.615584 
L 1424.673128 386.571478 
L 1426.693516 403.119293 
L 1428.713904 423.597706 
L 1432.754679 446.004913 
L 1434.775067 438.992513 
L 1436.795455 419.49853 
L 1442.856618 402.102532 
L 1444.877005 397.392085 
L 1446.897393 394.886493 
L 1454.978944 464.354286 
L 1456.999332 475.994437 
L 1459.019719 482.200596 
L 1461.040107 498.935507 
L 1463.060495 505.074402 
L 1465.080882 519.731466 
L 1471.142045 497.694936 
L 1473.162433 476.132646 
L 1475.182821 463.663623 
L 1479.223596 400.193444 
L 1481.243984 379.307589 
L 1483.264372 385.652248 
L 1485.284759 383.456351 
L 1487.305147 409.666982 
L 1489.325535 415.725941 
L 1491.345922 427.300377 
L 1493.36631 451.151573 
L 1495.386698 480.858044 
L 1497.407086 479.577965 
L 1501.447861 472.137439 
L 1669.14004 757.260261 
L 1673.180816 732.532503 
L 1677.221591 754.831342 
L 1681.262366 737.847548 
L 1683.282754 741.649586 
L 1687.323529 714.576447 
L 1689.343917 711.842351 
L 1693.384693 665.717948 
L 1695.40508 646.507422 
L 1697.425468 641.141654 
L 1699.445856 635.013304 
L 1701.466243 651.563256 
L 1703.486631 623.148689 
L 1705.507019 629.595225 
L 1707.527406 639.013775 
L 1709.547794 645.022823 
L 1715.608957 585.165939 
L 1717.629345 577.028899 
L 1719.649733 544.641302 
L 1721.67012 532.25807 
L 1723.690508 524.70316 
L 1725.710896 536.718022 
L 1727.731283 552.731401 
L 1729.751671 554.45561 
L 1731.772059 570.350722 
L 1737.833222 577.252236 
L 1739.85361 543.384423 
L 1741.873997 512.462694 
L 1743.894385 513.012006 
L 1745.914773 499.894394 
L 1747.93516 482.229012 
L 1749.955548 472.870579 
L 1751.975936 446.474076 
L 1753.996324 463.760977 
L 1756.016711 484.321217 
L 1758.037099 474.947541 
L 1768.139037 563.677361 
L 1780.261364 489.676266 
L 1782.281751 461.229324 
L 1784.302139 463.479868 
L 1786.322527 453.7618 
L 1788.342914 452.2621 
L 1790.363302 462.857713 
L 1792.38369 474.391963 
L 1794.404078 483.638138 
L 1796.424465 496.047057 
L 1806.526404 442.147312 
L 1808.546791 441.33219 
L 1810.567179 431.824181 
L 1812.587567 423.817586 
L 1814.607955 409.681261 
L 1816.628342 396.534618 
L 1818.64873 395.363814 
L 1822.689505 397.44642 
L 1824.709893 391.893646 
L 1826.730281 381.773449 
L 1828.750668 387.268183 
L 1830.771056 389.818411 
L 1832.791444 400.012149 
L 1834.811832 393.395971 
L 1836.832219 391.836877 
L 1838.852607 389.990449 
L 1954.014706 367.307253 
L 1956.035094 361.514482 
L 1958.055481 381.96849 
L 1960.075869 396.868252 
L 1962.096257 423.767395 
L 1966.137032 479.688523 
L 1968.15742 494.816651 
L 1980.279746 564.095097 
L 1982.300134 583.634953 
L 1988.361297 608.642339 
L 1990.381684 578.346621 
L 1992.402072 557.385282 
L 1994.42246 541.55459 
L 1996.442848 511.646705 
L 2000.483623 427.021249 
L 2073.21758 827.295123 
L 2075.237968 827.303448 
L 2079.278743 835.468662 
L 2081.299131 825.494791 
L 2380.316511 697.56004 
L 2438.907754 697.173724 
L 2442.948529 710.539537 
L 2446.989305 731.925359 
L 2451.03008 714.315231 
L 2467.193182 603.964897 
L 3176.349265 371.686893 
L 3178.369652 383.680198 
L 3180.39004 389.232891 
L 3182.410428 379.820939 
L 3184.430816 406.26163 
L 3186.451203 414.418024 
L 3190.491979 400.208664 
L 3192.512366 415.476781 
L 3194.532754 410.334974 
L 3196.553142 420.921252 
L 3200.593917 449.142048 
L 3208.675468 424.727136 
L 3212.716243 305.80107 
L 3214.736631 299.662205 
L 3216.757019 299.972105 
L 3218.777406 297.766212 
L 3220.797794 282.468517 
L 3222.818182 291.754255 
L 3224.83857 308.956632 
L 3226.858957 319.886304 
L 3228.879345 331.946098 
L 3230.899733 327.635089 
L 3253.123997 397.228469 
L 3257.164773 347.271843 
L 3259.18516 355.374686 
L 3261.205548 361.904719 
L 3265.246324 347.929745 
L 3269.287099 389.901054 
L 3277.36865 363.254511 
L 3287.470588 307.596107 
L 3289.490976 294.366895 
L 3291.511364 295.294538 
L 3293.531751 289.129186 
L 3295.552139 299.570062 
L 3297.572527 286.471088 
L 3299.592914 302.0894 
L 3301.613302 316.115274 
L 3303.63369 324.928302 
L 3305.654078 354.120967 
L 3309.694853 385.080889 
L 3315.756016 395.560123 
L 3317.776404 375.762881 
L 3319.796791 359.060277 
L 3321.817179 356.843206 
L 3323.837567 358.765052 
L 3325.857955 346.583788 
L 3327.878342 338.947533 
L 3329.89873 326.121927 
L 3331.919118 328.655053 
L 3340.000668 314.887117 
L 3342.021056 339.364506 
L 3344.041444 352.200075 
L 3346.061832 365.770646 
L 3348.082219 367.849728 
L 3350.102607 365.530902 
L 3352.122995 351.318401 
L 3354.143382 339.551769 
L 3356.16377 321.148413 
L 3358.184158 310.986706 
L 3360.204545 303.298708 
L 3362.224933 307.606754 
L 3364.245321 309.338508 
L 3366.265709 316.792801 
L 3368.286096 329.405799 
L 3370.306484 351.915183 
L 3372.326872 390.455911 
L 3374.347259 415.093701 
L 3376.367647 436.9319 
L 3400.612299 370.737504 
L 3402.632687 364.254934 
L 3404.653075 380.344132 
L 3406.673463 390.661764 
L 3410.714238 430.143868 
L 3412.734626 446.360937 
L 3414.755013 440.679777 
L 3416.775401 444.986967 
L 3418.795789 421.703014 
L 3420.816176 403.876254 
L 3422.836564 381.283419 
L 3424.856952 371.743138 
L 3426.87734 357.837746 
L 3428.897727 353.540924 
L 3432.938503 354.470544 
L 3434.95889 357.745546 
L 3436.979278 357.259229 
L 3438.999666 364.634139 
L 3441.020053 376.094251 
L 3443.040441 380.159224 
L 3445.060829 362.596024 
L 3447.081217 360.286621 
L 3449.101604 375.514763 
L 3451.121992 379.906795 
L 3453.14238 366.632033 
L 3455.162767 358.214383 
L 3457.183155 368.624958 
L 3459.203543 389.975903 
L 3461.22393 383.00984 
L 3463.244318 350.078905 
L 3465.264706 343.020288 
L 3469.305481 333.633105 
L 3471.325869 327.239829 
L 3473.346257 308.196668 
L 3475.366644 312.734873 
L 3477.387032 322.832703 
L 3479.40742 315.971132 
L 3481.427807 314.090142 
L 3483.448195 306.615579 
L 3485.468583 301.877428 
L 3487.488971 304.414849 
L 3489.509358 304.486159 
L 3491.529746 315.519977 
L 3493.550134 319.478778 
L 3497.590909 315.888786 
L 3499.611297 313.910263 
L 3501.631684 309.935237 
L 3503.652072 318.577093 
L 3505.67246 322.884883 
L 3507.692848 324.306321 
L 3509.713235 323.395868 
L 3511.733623 313.708331 
L 3513.754011 299.195705 
L 3515.774398 283.47084 
L 3517.794786 261.086425 
L 3519.815174 248.458289 
L 3521.835561 239.759614 
L 3523.855949 233.883607 
L 3527.896725 249.292091 
L 3529.917112 236.362273 
L 3531.9375 263.639135 
L 3533.957888 272.932996 
L 3535.978275 287.122019 
L 3537.998663 295.818666 
L 3540.019051 322.284788 
L 3542.039439 330.141201 
L 3544.059826 358.354896 
L 3548.100602 385.454144 
L 3550.120989 400.212895 
L 3552.141377 394.210471 
L 3554.161765 375.194879 
L 3556.182152 372.458776 
L 3560.222928 337.854194 
L 3562.243316 312.587033 
L 3564.263703 288.798157 
L 3566.284091 287.568414 
L 3568.304479 294.997935 
L 3570.324866 306.202267 
L 3572.345254 304.770365 
L 3582.447193 333.367624 
L 3584.46758 322.698663 
L 3586.487968 318.905599 
L 3590.528743 267.528132 
L 3592.549131 262.691777 
L 3594.569519 246.556738 
L 3596.589906 231.439056 
L 3598.610294 227.915776 
L 3600.630682 245.697373 
L 3602.65107 279.681399 
L 3604.671457 304.536572 
L 3647.099599 404.338898 
L 3649.119987 435.212073 
L 3653.160762 459.048041 
L 3659.221925 556.066955 
L 3661.242313 572.512929 
L 3663.262701 569.513612 
L 3665.283088 572.704952 
L 3667.303476 572.300239 
L 3669.323864 559.086107 
L 3671.344251 536.516508 
L 3673.364639 556.045713 
L 3675.385027 527.779055 
L 3677.405414 523.516272 
L 3679.425802 522.170862 
L 3681.44619 517.011064 
L 3683.466578 526.953664 
L 3685.486965 539.132565 
L 3687.507353 534.946788 
L 3689.527741 542.847692 
L 3691.548128 542.514771 
L 3693.568516 553.947143 
L 3695.588904 558.784138 
L 3697.609291 547.597581 
L 3703.670455 531.63295 
L 3705.690842 529.260492 
L 3711.752005 476.166532 
L 3713.772393 469.89765 
L 3715.792781 461.804018 
L 3717.813168 458.554385 
L 3719.833556 473.133018 
L 3721.853944 486.735004 
L 3723.874332 504.828249 
L 3725.894719 520.754882 
L 3727.915107 548.825097 
L 3729.935495 567.023388 
L 3733.97627 589.16087 
L 3738.017045 599.684014 
L 3740.037433 630.259563 
L 3744.078209 646.724623 
L 3746.098596 638.115509 
L 3748.118984 649.458869 
L 3750.139372 637.567206 
L 3752.159759 637.907804 
L 3756.200535 568.164678 
L 3758.220922 561.121347 
L 3760.24131 559.336573 
L 3762.261698 554.383838 
L 3764.282086 557.791574 
L 3766.302473 563.693876 
L 3768.322861 566.90901 
L 3772.363636 574.955486 
L 3774.384024 569.114263 
L 3776.404412 553.90842 
L 3778.424799 560.776293 
L 3780.445187 557.446966 
L 3786.50635 562.134736 
L 3788.526738 544.285793 
L 3790.547126 548.436686 
L 3792.567513 539.291256 
L 3794.587901 552.58384 
L 3796.608289 561.101071 
L 3798.628676 558.600494 
L 3952.178142 526.488014 
L 3954.198529 532.134934 
L 3956.218917 540.670524 
L 3958.239305 538.10341 
L 3960.259693 544.142734 
L 3962.28008 563.598207 
L 3970.361631 506.273944 
L 3972.382019 514.000738 
L 3978.443182 481.513213 
L 3980.46357 472.720499 
L 3982.483957 481.487017 
L 3984.504345 507.134521 
L 3986.524733 500.548244 
L 3988.54512 519.234813 
L 3990.565508 520.800579 
L 3996.626671 471.177062 
L 4002.687834 426.03746 
L 4004.708222 413.231176 
L 4006.72861 412.543259 
L 4008.748997 412.83451 
L 4010.769385 463.086108 
L 4012.789773 485.541845 
L 4014.81016 488.711248 
L 4016.830548 488.129733 
L 4018.850936 490.930938 
L 4020.871324 474.466248 
L 4028.952874 425.832149 
L 4030.973262 448.964131 
L 4032.99365 459.198509 
L 4035.014037 482.105385 
L 4037.034425 508.520215 
L 4039.054813 522.255816 
L 4041.075201 511.227694 
L 4043.095588 511.912395 
L 4045.115976 496.495599 
L 4047.136364 465.415611 
L 4047.136364 465.415611 
" clip-path="url(#p313ed7e5b6)" style="fill: none; stroke: #e8000b; stroke-width: 2.5; stroke-linecap: square"/>
   </g>
   <g id="patch_3">
    <path d="M 585 961.2 
L 585 129.6 
" style="fill: none; stroke: #000000; stroke-width: 0.8; stroke-linejoin: miter; stroke-linecap: square"/>
   </g>
   <g id="patch_4">
    <path d="M 4212 961.2 
L 4212 129.6 
" style="fill: none; stroke: #000000; stroke-width: 0.8; stroke-linejoin: miter; stroke-linecap: square"/>
   </g>
   <g id="patch_5">
    <path d="M 585 961.2 
L 4212 961.2 
" style="fill: none; stroke: #000000; stroke-width: 0.8; stroke-linejoin: miter; stroke-linecap: square"/>
   </g>
   <g id="patch_6">
    <path d="M 585 129.6 
L 4212 129.6 
" style="fill: none; stroke: #000000; stroke-width: 0.8; stroke-linejoin: miter; stroke-linecap: square"/>
   </g>
   <g id="text_18">
    <!-- CANV -->
    <g transform="translate(2356.282031 123.360937) scale(0.3 -0.3)">
     <defs>
      <path id="DejaVuSans-43" d="M 4122 4306 
L 4122 3641 
Q 3803 3938 3442 4084 
Q 3081 4231 2675 4231 
Q 1875 4231 1450 3742 
Q 1025 3253 1025 2328 
Q 1025 1406 1450 917 
Q 1875 428 2675 428 
Q 3081 428 3442 575 
Q 3803 722 4122 1019 
L 4122 359 
Q 3791 134 3420 21 
Q 3050 -91 2638 -91 
Q 1578 -91 968 557 
Q 359 1206 359 2328 
Q 359 3453 968 4101 
Q 1578 4750 2638 4750 
Q 3056 4750 3426 4639 
Q 3797 4528 4122 4306 
z
" transform="scale(0.015625)"/>
      <path id="DejaVuSans-41" d="M 2188 4044 
L 1331 1722 
L 3047 1722 
L 2188 4044 
z
M 1831 4666 
L 2547 4666 
L 4325 0 
L 3669 0 
L 3244 1197 
L 1141 1197 
L 716 0 
L 50 0 
L 1831 4666 
z
" transform="scale(0.015625)"/>
      <path id="DejaVuSans-56" d="M 1831 0 
L 50 4666 
L 709 4666 
L 2188 738 
L 3669 4666 
L 4325 4666 
L 2547 0 
L 1831 0 
z
" transform="scale(0.015625)"/>
     </defs>
     <use xlink:href="#DejaVuSans-43"/>
     <use xlink:href="#DejaVuSans-41" x="69.824219"/>
     <use xlink:href="#DejaVuSans-4e" x="138.232422"/>
     <use xlink:href="#DejaVuSans-56" x="213.037109"/>
    </g>
   </g>
   <g id="legend_1">
    <g id="patch_7">
     <path d="M 4149.117188 152.278125 
L 4205 152.278125 
Q 4207 152.278125 4207 150.278125 
L 4207 136.6 
Q 4207 134.6 4205 134.6 
L 4149.117188 134.6 
Q 4147.117188 134.6 4147.117188 136.6 
L 4147.117188 150.278125 
Q 4147.117188 152.278125 4149.117188 152.278125 
z
" style="fill: #ffffff; opacity: 0.8; stroke: #cccccc; stroke-linejoin: miter"/>
    </g>
    <g id="line2d_17">
     <path d="M 4151.117188 142.698438 
L 4161.117188 142.698438 
L 4171.117188 142.698438 
" style="fill: none; stroke: #e8000b; stroke-width: 2.5; stroke-linecap: square"/>
    </g>
    <g id="text_19">
     <!-- canv -->
     <g transform="translate(4179.117188 146.198438) scale(0.1 -0.1)">
      <defs>
       <path id="DejaVuSans-63" d="M 3122 3366 
L 3122 2828 
Q 2878 2963 2633 3030 
Q 2388 3097 2138 3097 
Q 1578 3097 1268 2742 
Q 959 2388 959 1747 
Q 959 1106 1268 751 
Q 1578 397 2138 397 
Q 2388 397 2633 464 
Q 2878 531 3122 666 
L 3122 134 
Q 2881 22 2623 -34 
Q 2366 -91 2075 -91 
Q 1284 -91 818 406 
Q 353 903 353 1747 
Q 353 2603 823 3093 
Q 1294 3584 2113 3584 
Q 2378 3584 2631 3529 
Q 2884 3475 3122 3366 
z
" transform="scale(0.015625)"/>
       <path id="DejaVuSans-61" d="M 2194 1759 
Q 1497 1759 1228 1600 
Q 959 1441 959 1056 
Q 959 750 1161 570 
Q 1363 391 1709 391 
Q 2188 391 2477 730 
Q 2766 1069 2766 1631 
L 2766 1759 
L 2194 1759 
z
M 3341 1997 
L 3341 0 
L 2766 0 
L 2766 531 
Q 2569 213 2275 61 
Q 1981 -91 1556 -91 
Q 1019 -91 701 211 
Q 384 513 384 1019 
Q 384 1609 779 1909 
Q 1175 2209 1959 2209 
L 2766 2209 
L 2766 2266 
Q 2766 2663 2505 2880 
Q 2244 3097 1772 3097 
Q 1472 3097 1187 3025 
Q 903 2953 641 2809 
L 641 3341 
Q 956 3463 1253 3523 
Q 1550 3584 1831 3584 
Q 2591 3584 2966 3190 
Q 3341 2797 3341 1997 
z
" transform="scale(0.015625)"/>
       <path id="DejaVuSans-6e" d="M 3513 2113 
L 3513 0 
L 2938 0 
L 2938 2094 
Q 2938 2591 2744 2837 
Q 2550 3084 2163 3084 
Q 1697 3084 1428 2787 
Q 1159 2491 1159 1978 
L 1159 0 
L 581 0 
L 581 3500 
L 1159 3500 
L 1159 2956 
Q 1366 3272 1645 3428 
Q 1925 3584 2291 3584 
Q 2894 3584 3203 3211 
Q 3513 2838 3513 2113 
z
" transform="scale(0.015625)"/>
       <path id="DejaVuSans-76" d="M 191 3500 
L 800 3500 
L 1894 563 
L 2988 3500 
L 3597 3500 
L 2284 0 
L 1503 0 
L 191 3500 
z
" transform="scale(0.015625)"/>
      </defs>
      <use xlink:href="#DejaVuSans-63"/>
      <use xlink:href="#DejaVuSans-61" x="54.980469"/>
      <use xlink:href="#DejaVuSans-6e" x="116.259766"/>
      <use xlink:href="#DejaVuSans-76" x="179.638672"/>
     </g>
    </g>
   </g>
  </g>
 </g>
 <defs>
  <clipPath id="p313ed7e5b6">
   <rect x="585" y="129.6" width="3627" height="831.6"/>
  </clipPath>
 </defs>
</svg>
