<?xml version="1.0" encoding="utf-8" standalone="no"?>
<!DOCTYPE svg PUBLIC "-//W3C//DTD SVG 1.1//EN"
  "http://www.w3.org/Graphics/SVG/1.1/DTD/svg11.dtd">
<svg xmlns:xlink="http://www.w3.org/1999/xlink" width="4680pt" height="1080pt" viewBox="0 0 4680 1080" xmlns="http://www.w3.org/2000/svg" version="1.1">
 <metadata>
  <rdf:RDF xmlns:dc="http://purl.org/dc/elements/1.1/" xmlns:cc="http://creativecommons.org/ns#" xmlns:rdf="http://www.w3.org/1999/02/22-rdf-syntax-ns#">
   <cc:Work>
    <dc:type rdf:resource="http://purl.org/dc/dcmitype/StillImage"/>
    <dc:date>2024-03-25T15:24:54.975944</dc:date>
    <dc:format>image/svg+xml</dc:format>
    <dc:creator>
     <cc:Agent>
      <dc:title>Matplotlib v3.7.2, https://matplotlib.org/</dc:title>
     </cc:Agent>
    </dc:creator>
   </cc:Work>
  </rdf:RDF>
 </metadata>
 <defs>
  <style type="text/css">*{stroke-linejoin: round; stroke-linecap: butt}</style>
 </defs>
 <g id="figure_1">
  <g id="patch_1">
   <path d="M 0 1080 
L 4680 1080 
L 4680 0 
L 0 0 
z
" style="fill: #ffffff"/>
  </g>
  <g id="axes_1">
   <g id="patch_2">
    <path d="M 585 961.2 
L 4212 961.2 
L 4212 129.6 
L 585 129.6 
z
" style="fill: #ffffff"/>
   </g>
   <g id="matplotlib.axis_1">
    <g id="xtick_1">
     <g id="line2d_1">
      <defs>
       <path id="m7f842a9f4a" d="M 0 0 
L 0 3.5 
" style="stroke: #000000; stroke-width: 0.8"/>
      </defs>
      <g>
       <use xlink:href="#m7f842a9f4a" x="941.800468" y="961.2" style="stroke: #000000; stroke-width: 0.8"/>
      </g>
     </g>
     <g id="text_1">
      <!-- 2012-07 -->
      <g transform="translate(900.017655 983.396875) scale(0.2 -0.2)">
       <defs>
        <path id="DejaVuSans-32" d="M 1228 531 
L 3431 531 
L 3431 0 
L 469 0 
L 469 531 
Q 828 903 1448 1529 
Q 2069 2156 2228 2338 
Q 2531 2678 2651 2914 
Q 2772 3150 2772 3378 
Q 2772 3750 2511 3984 
Q 2250 4219 1831 4219 
Q 1534 4219 1204 4116 
Q 875 4013 500 3803 
L 500 4441 
Q 881 4594 1212 4672 
Q 1544 4750 1819 4750 
Q 2544 4750 2975 4387 
Q 3406 4025 3406 3419 
Q 3406 3131 3298 2873 
Q 3191 2616 2906 2266 
Q 2828 2175 2409 1742 
Q 1991 1309 1228 531 
z
" transform="scale(0.015625)"/>
        <path id="DejaVuSans-30" d="M 2034 4250 
Q 1547 4250 1301 3770 
Q 1056 3291 1056 2328 
Q 1056 1369 1301 889 
Q 1547 409 2034 409 
Q 2525 409 2770 889 
Q 3016 1369 3016 2328 
Q 3016 3291 2770 3770 
Q 2525 4250 2034 4250 
z
M 2034 4750 
Q 2819 4750 3233 4129 
Q 3647 3509 3647 2328 
Q 3647 1150 3233 529 
Q 2819 -91 2034 -91 
Q 1250 -91 836 529 
Q 422 1150 422 2328 
Q 422 3509 836 4129 
Q 1250 4750 2034 4750 
z
" transform="scale(0.015625)"/>
        <path id="DejaVuSans-31" d="M 794 531 
L 1825 531 
L 1825 4091 
L 703 3866 
L 703 4441 
L 1819 4666 
L 2450 4666 
L 2450 531 
L 3481 531 
L 3481 0 
L 794 0 
L 794 531 
z
" transform="scale(0.015625)"/>
        <path id="DejaVuSans-2d" d="M 313 2009 
L 1997 2009 
L 1997 1497 
L 313 1497 
L 313 2009 
z
" transform="scale(0.015625)"/>
        <path id="DejaVuSans-37" d="M 525 4666 
L 3525 4666 
L 3525 4397 
L 1831 0 
L 1172 0 
L 2766 4134 
L 525 4134 
L 525 4666 
z
" transform="scale(0.015625)"/>
       </defs>
       <use xlink:href="#DejaVuSans-32"/>
       <use xlink:href="#DejaVuSans-30" x="63.623047"/>
       <use xlink:href="#DejaVuSans-31" x="127.246094"/>
       <use xlink:href="#DejaVuSans-32" x="190.869141"/>
       <use xlink:href="#DejaVuSans-2d" x="254.492188"/>
       <use xlink:href="#DejaVuSans-30" x="290.576172"/>
       <use xlink:href="#DejaVuSans-37" x="354.199219"/>
      </g>
     </g>
    </g>
    <g id="xtick_2">
     <g id="line2d_2">
      <g>
       <use xlink:href="#m7f842a9f4a" x="1313.551805" y="961.2" style="stroke: #000000; stroke-width: 0.8"/>
      </g>
     </g>
     <g id="text_2">
      <!-- 2013-01 -->
      <g transform="translate(1271.768992 983.396875) scale(0.2 -0.2)">
       <defs>
        <path id="DejaVuSans-33" d="M 2597 2516 
Q 3050 2419 3304 2112 
Q 3559 1806 3559 1356 
Q 3559 666 3084 287 
Q 2609 -91 1734 -91 
Q 1441 -91 1130 -33 
Q 819 25 488 141 
L 488 750 
Q 750 597 1062 519 
Q 1375 441 1716 441 
Q 2309 441 2620 675 
Q 2931 909 2931 1356 
Q 2931 1769 2642 2001 
Q 2353 2234 1838 2234 
L 1294 2234 
L 1294 2753 
L 1863 2753 
Q 2328 2753 2575 2939 
Q 2822 3125 2822 3475 
Q 2822 3834 2567 4026 
Q 2313 4219 1838 4219 
Q 1578 4219 1281 4162 
Q 984 4106 628 3988 
L 628 4550 
Q 988 4650 1302 4700 
Q 1616 4750 1894 4750 
Q 2613 4750 3031 4423 
Q 3450 4097 3450 3541 
Q 3450 3153 3228 2886 
Q 3006 2619 2597 2516 
z
" transform="scale(0.015625)"/>
       </defs>
       <use xlink:href="#DejaVuSans-32"/>
       <use xlink:href="#DejaVuSans-30" x="63.623047"/>
       <use xlink:href="#DejaVuSans-31" x="127.246094"/>
       <use xlink:href="#DejaVuSans-33" x="190.869141"/>
       <use xlink:href="#DejaVuSans-2d" x="254.492188"/>
       <use xlink:href="#DejaVuSans-30" x="290.576172"/>
       <use xlink:href="#DejaVuSans-31" x="354.199219"/>
      </g>
     </g>
    </g>
    <g id="xtick_3">
     <g id="line2d_3">
      <g>
       <use xlink:href="#m7f842a9f4a" x="1679.241979" y="961.2" style="stroke: #000000; stroke-width: 0.8"/>
      </g>
     </g>
     <g id="text_3">
      <!-- 2013-07 -->
      <g transform="translate(1637.459166 983.396875) scale(0.2 -0.2)">
       <use xlink:href="#DejaVuSans-32"/>
       <use xlink:href="#DejaVuSans-30" x="63.623047"/>
       <use xlink:href="#DejaVuSans-31" x="127.246094"/>
       <use xlink:href="#DejaVuSans-33" x="190.869141"/>
       <use xlink:href="#DejaVuSans-2d" x="254.492188"/>
       <use xlink:href="#DejaVuSans-30" x="290.576172"/>
       <use xlink:href="#DejaVuSans-37" x="354.199219"/>
      </g>
     </g>
    </g>
    <g id="xtick_4">
     <g id="line2d_4">
      <g>
       <use xlink:href="#m7f842a9f4a" x="2050.993316" y="961.2" style="stroke: #000000; stroke-width: 0.8"/>
      </g>
     </g>
     <g id="text_4">
      <!-- 2014-01 -->
      <g transform="translate(2009.210503 983.396875) scale(0.2 -0.2)">
       <defs>
        <path id="DejaVuSans-34" d="M 2419 4116 
L 825 1625 
L 2419 1625 
L 2419 4116 
z
M 2253 4666 
L 3047 4666 
L 3047 1625 
L 3713 1625 
L 3713 1100 
L 3047 1100 
L 3047 0 
L 2419 0 
L 2419 1100 
L 313 1100 
L 313 1709 
L 2253 4666 
z
" transform="scale(0.015625)"/>
       </defs>
       <use xlink:href="#DejaVuSans-32"/>
       <use xlink:href="#DejaVuSans-30" x="63.623047"/>
       <use xlink:href="#DejaVuSans-31" x="127.246094"/>
       <use xlink:href="#DejaVuSans-34" x="190.869141"/>
       <use xlink:href="#DejaVuSans-2d" x="254.492188"/>
       <use xlink:href="#DejaVuSans-30" x="290.576172"/>
       <use xlink:href="#DejaVuSans-31" x="354.199219"/>
      </g>
     </g>
    </g>
    <g id="xtick_5">
     <g id="line2d_5">
      <g>
       <use xlink:href="#m7f842a9f4a" x="2416.683489" y="961.2" style="stroke: #000000; stroke-width: 0.8"/>
      </g>
     </g>
     <g id="text_5">
      <!-- 2014-07 -->
      <g transform="translate(2374.900677 983.396875) scale(0.2 -0.2)">
       <use xlink:href="#DejaVuSans-32"/>
       <use xlink:href="#DejaVuSans-30" x="63.623047"/>
       <use xlink:href="#DejaVuSans-31" x="127.246094"/>
       <use xlink:href="#DejaVuSans-34" x="190.869141"/>
       <use xlink:href="#DejaVuSans-2d" x="254.492188"/>
       <use xlink:href="#DejaVuSans-30" x="290.576172"/>
       <use xlink:href="#DejaVuSans-37" x="354.199219"/>
      </g>
     </g>
    </g>
    <g id="xtick_6">
     <g id="line2d_6">
      <g>
       <use xlink:href="#m7f842a9f4a" x="2788.434826" y="961.2" style="stroke: #000000; stroke-width: 0.8"/>
      </g>
     </g>
     <g id="text_6">
      <!-- 2015-01 -->
      <g transform="translate(2746.652014 983.396875) scale(0.2 -0.2)">
       <defs>
        <path id="DejaVuSans-35" d="M 691 4666 
L 3169 4666 
L 3169 4134 
L 1269 4134 
L 1269 2991 
Q 1406 3038 1543 3061 
Q 1681 3084 1819 3084 
Q 2600 3084 3056 2656 
Q 3513 2228 3513 1497 
Q 3513 744 3044 326 
Q 2575 -91 1722 -91 
Q 1428 -91 1123 -41 
Q 819 9 494 109 
L 494 744 
Q 775 591 1075 516 
Q 1375 441 1709 441 
Q 2250 441 2565 725 
Q 2881 1009 2881 1497 
Q 2881 1984 2565 2268 
Q 2250 2553 1709 2553 
Q 1456 2553 1204 2497 
Q 953 2441 691 2322 
L 691 4666 
z
" transform="scale(0.015625)"/>
       </defs>
       <use xlink:href="#DejaVuSans-32"/>
       <use xlink:href="#DejaVuSans-30" x="63.623047"/>
       <use xlink:href="#DejaVuSans-31" x="127.246094"/>
       <use xlink:href="#DejaVuSans-35" x="190.869141"/>
       <use xlink:href="#DejaVuSans-2d" x="254.492188"/>
       <use xlink:href="#DejaVuSans-30" x="290.576172"/>
       <use xlink:href="#DejaVuSans-31" x="354.199219"/>
      </g>
     </g>
    </g>
    <g id="xtick_7">
     <g id="line2d_7">
      <g>
       <use xlink:href="#m7f842a9f4a" x="3154.125" y="961.2" style="stroke: #000000; stroke-width: 0.8"/>
      </g>
     </g>
     <g id="text_7">
      <!-- 2015-07 -->
      <g transform="translate(3112.342188 983.396875) scale(0.2 -0.2)">
       <use xlink:href="#DejaVuSans-32"/>
       <use xlink:href="#DejaVuSans-30" x="63.623047"/>
       <use xlink:href="#DejaVuSans-31" x="127.246094"/>
       <use xlink:href="#DejaVuSans-35" x="190.869141"/>
       <use xlink:href="#DejaVuSans-2d" x="254.492188"/>
       <use xlink:href="#DejaVuSans-30" x="290.576172"/>
       <use xlink:href="#DejaVuSans-37" x="354.199219"/>
      </g>
     </g>
    </g>
    <g id="xtick_8">
     <g id="line2d_8">
      <g>
       <use xlink:href="#m7f842a9f4a" x="3525.876337" y="961.2" style="stroke: #000000; stroke-width: 0.8"/>
      </g>
     </g>
     <g id="text_8">
      <!-- 2016-01 -->
      <g transform="translate(3484.093524 983.396875) scale(0.2 -0.2)">
       <defs>
        <path id="DejaVuSans-36" d="M 2113 2584 
Q 1688 2584 1439 2293 
Q 1191 2003 1191 1497 
Q 1191 994 1439 701 
Q 1688 409 2113 409 
Q 2538 409 2786 701 
Q 3034 994 3034 1497 
Q 3034 2003 2786 2293 
Q 2538 2584 2113 2584 
z
M 3366 4563 
L 3366 3988 
Q 3128 4100 2886 4159 
Q 2644 4219 2406 4219 
Q 1781 4219 1451 3797 
Q 1122 3375 1075 2522 
Q 1259 2794 1537 2939 
Q 1816 3084 2150 3084 
Q 2853 3084 3261 2657 
Q 3669 2231 3669 1497 
Q 3669 778 3244 343 
Q 2819 -91 2113 -91 
Q 1303 -91 875 529 
Q 447 1150 447 2328 
Q 447 3434 972 4092 
Q 1497 4750 2381 4750 
Q 2619 4750 2861 4703 
Q 3103 4656 3366 4563 
z
" transform="scale(0.015625)"/>
       </defs>
       <use xlink:href="#DejaVuSans-32"/>
       <use xlink:href="#DejaVuSans-30" x="63.623047"/>
       <use xlink:href="#DejaVuSans-31" x="127.246094"/>
       <use xlink:href="#DejaVuSans-36" x="190.869141"/>
       <use xlink:href="#DejaVuSans-2d" x="254.492188"/>
       <use xlink:href="#DejaVuSans-30" x="290.576172"/>
       <use xlink:href="#DejaVuSans-31" x="354.199219"/>
      </g>
     </g>
    </g>
    <g id="xtick_9">
     <g id="line2d_9">
      <g>
       <use xlink:href="#m7f842a9f4a" x="3893.586898" y="961.2" style="stroke: #000000; stroke-width: 0.8"/>
      </g>
     </g>
     <g id="text_9">
      <!-- 2016-07 -->
      <g transform="translate(3851.804086 983.396875) scale(0.2 -0.2)">
       <use xlink:href="#DejaVuSans-32"/>
       <use xlink:href="#DejaVuSans-30" x="63.623047"/>
       <use xlink:href="#DejaVuSans-31" x="127.246094"/>
       <use xlink:href="#DejaVuSans-36" x="190.869141"/>
       <use xlink:href="#DejaVuSans-2d" x="254.492188"/>
       <use xlink:href="#DejaVuSans-30" x="290.576172"/>
       <use xlink:href="#DejaVuSans-37" x="354.199219"/>
      </g>
     </g>
    </g>
    <g id="text_10">
     <!-- Time -->
     <g transform="translate(2374.032813 1006.753125) scale(0.2 -0.2)">
      <defs>
       <path id="DejaVuSans-54" d="M -19 4666 
L 3928 4666 
L 3928 4134 
L 2272 4134 
L 2272 0 
L 1638 0 
L 1638 4134 
L -19 4134 
L -19 4666 
z
" transform="scale(0.015625)"/>
       <path id="DejaVuSans-69" d="M 603 3500 
L 1178 3500 
L 1178 0 
L 603 0 
L 603 3500 
z
M 603 4863 
L 1178 4863 
L 1178 4134 
L 603 4134 
L 603 4863 
z
" transform="scale(0.015625)"/>
       <path id="DejaVuSans-6d" d="M 3328 2828 
Q 3544 3216 3844 3400 
Q 4144 3584 4550 3584 
Q 5097 3584 5394 3201 
Q 5691 2819 5691 2113 
L 5691 0 
L 5113 0 
L 5113 2094 
Q 5113 2597 4934 2840 
Q 4756 3084 4391 3084 
Q 3944 3084 3684 2787 
Q 3425 2491 3425 1978 
L 3425 0 
L 2847 0 
L 2847 2094 
Q 2847 2600 2669 2842 
Q 2491 3084 2119 3084 
Q 1678 3084 1418 2786 
Q 1159 2488 1159 1978 
L 1159 0 
L 581 0 
L 581 3500 
L 1159 3500 
L 1159 2956 
Q 1356 3278 1631 3431 
Q 1906 3584 2284 3584 
Q 2666 3584 2933 3390 
Q 3200 3197 3328 2828 
z
" transform="scale(0.015625)"/>
       <path id="DejaVuSans-65" d="M 3597 1894 
L 3597 1613 
L 953 1613 
Q 991 1019 1311 708 
Q 1631 397 2203 397 
Q 2534 397 2845 478 
Q 3156 559 3463 722 
L 3463 178 
Q 3153 47 2828 -22 
Q 2503 -91 2169 -91 
Q 1331 -91 842 396 
Q 353 884 353 1716 
Q 353 2575 817 3079 
Q 1281 3584 2069 3584 
Q 2775 3584 3186 3129 
Q 3597 2675 3597 1894 
z
M 3022 2063 
Q 3016 2534 2758 2815 
Q 2500 3097 2075 3097 
Q 1594 3097 1305 2825 
Q 1016 2553 972 2059 
L 3022 2063 
z
" transform="scale(0.015625)"/>
      </defs>
      <use xlink:href="#DejaVuSans-54"/>
      <use xlink:href="#DejaVuSans-69" x="57.958984"/>
      <use xlink:href="#DejaVuSans-6d" x="85.742188"/>
      <use xlink:href="#DejaVuSans-65" x="183.154297"/>
     </g>
    </g>
   </g>
   <g id="matplotlib.axis_2">
    <g id="ytick_1">
     <g id="line2d_10">
      <defs>
       <path id="m7bb2985290" d="M 0 0 
L -3.5 0 
" style="stroke: #000000; stroke-width: 0.8"/>
      </defs>
      <g>
       <use xlink:href="#m7bb2985290" x="585" y="944.362332" style="stroke: #000000; stroke-width: 0.8"/>
      </g>
     </g>
     <g id="text_11">
      <!-- −0.006 -->
      <g transform="translate(503.984375 951.960769) scale(0.2 -0.2)">
       <defs>
        <path id="DejaVuSans-2212" d="M 678 2272 
L 4684 2272 
L 4684 1741 
L 678 1741 
L 678 2272 
z
" transform="scale(0.015625)"/>
        <path id="DejaVuSans-2e" d="M 684 794 
L 1344 794 
L 1344 0 
L 684 0 
L 684 794 
z
" transform="scale(0.015625)"/>
       </defs>
       <use xlink:href="#DejaVuSans-2212"/>
       <use xlink:href="#DejaVuSans-30" x="83.789062"/>
       <use xlink:href="#DejaVuSans-2e" x="147.412109"/>
       <use xlink:href="#DejaVuSans-30" x="179.199219"/>
       <use xlink:href="#DejaVuSans-30" x="242.822266"/>
       <use xlink:href="#DejaVuSans-36" x="306.445312"/>
      </g>
     </g>
    </g>
    <g id="ytick_2">
     <g id="line2d_11">
      <g>
       <use xlink:href="#m7bb2985290" x="585" y="819.839184" style="stroke: #000000; stroke-width: 0.8"/>
      </g>
     </g>
     <g id="text_12">
      <!-- −0.004 -->
      <g transform="translate(503.984375 827.437622) scale(0.2 -0.2)">
       <use xlink:href="#DejaVuSans-2212"/>
       <use xlink:href="#DejaVuSans-30" x="83.789062"/>
       <use xlink:href="#DejaVuSans-2e" x="147.412109"/>
       <use xlink:href="#DejaVuSans-30" x="179.199219"/>
       <use xlink:href="#DejaVuSans-30" x="242.822266"/>
       <use xlink:href="#DejaVuSans-34" x="306.445312"/>
      </g>
     </g>
    </g>
    <g id="ytick_3">
     <g id="line2d_12">
      <g>
       <use xlink:href="#m7bb2985290" x="585" y="695.316037" style="stroke: #000000; stroke-width: 0.8"/>
      </g>
     </g>
     <g id="text_13">
      <!-- −0.002 -->
      <g transform="translate(503.984375 702.914475) scale(0.2 -0.2)">
       <use xlink:href="#DejaVuSans-2212"/>
       <use xlink:href="#DejaVuSans-30" x="83.789062"/>
       <use xlink:href="#DejaVuSans-2e" x="147.412109"/>
       <use xlink:href="#DejaVuSans-30" x="179.199219"/>
       <use xlink:href="#DejaVuSans-30" x="242.822266"/>
       <use xlink:href="#DejaVuSans-32" x="306.445312"/>
      </g>
     </g>
    </g>
    <g id="ytick_4">
     <g id="line2d_13">
      <g>
       <use xlink:href="#m7bb2985290" x="585" y="570.79289" style="stroke: #000000; stroke-width: 0.8"/>
      </g>
     </g>
     <g id="text_14">
      <!-- 0.000 -->
      <g transform="translate(520.74375 578.391328) scale(0.2 -0.2)">
       <use xlink:href="#DejaVuSans-30"/>
       <use xlink:href="#DejaVuSans-2e" x="63.623047"/>
       <use xlink:href="#DejaVuSans-30" x="95.410156"/>
       <use xlink:href="#DejaVuSans-30" x="159.033203"/>
       <use xlink:href="#DejaVuSans-30" x="222.65625"/>
      </g>
     </g>
    </g>
    <g id="ytick_5">
     <g id="line2d_14">
      <g>
       <use xlink:href="#m7bb2985290" x="585" y="446.269743" style="stroke: #000000; stroke-width: 0.8"/>
      </g>
     </g>
     <g id="text_15">
      <!-- 0.002 -->
      <g transform="translate(520.74375 453.868181) scale(0.2 -0.2)">
       <use xlink:href="#DejaVuSans-30"/>
       <use xlink:href="#DejaVuSans-2e" x="63.623047"/>
       <use xlink:href="#DejaVuSans-30" x="95.410156"/>
       <use xlink:href="#DejaVuSans-30" x="159.033203"/>
       <use xlink:href="#DejaVuSans-32" x="222.65625"/>
      </g>
     </g>
    </g>
    <g id="ytick_6">
     <g id="line2d_15">
      <g>
       <use xlink:href="#m7bb2985290" x="585" y="321.746596" style="stroke: #000000; stroke-width: 0.8"/>
      </g>
     </g>
     <g id="text_16">
      <!-- 0.004 -->
      <g transform="translate(520.74375 329.345034) scale(0.2 -0.2)">
       <use xlink:href="#DejaVuSans-30"/>
       <use xlink:href="#DejaVuSans-2e" x="63.623047"/>
       <use xlink:href="#DejaVuSans-30" x="95.410156"/>
       <use xlink:href="#DejaVuSans-30" x="159.033203"/>
       <use xlink:href="#DejaVuSans-34" x="222.65625"/>
      </g>
     </g>
    </g>
    <g id="ytick_7">
     <g id="line2d_16">
      <g>
       <use xlink:href="#m7bb2985290" x="585" y="197.223449" style="stroke: #000000; stroke-width: 0.8"/>
      </g>
     </g>
     <g id="text_17">
      <!-- 0.006 -->
      <g transform="translate(520.74375 204.821887) scale(0.2 -0.2)">
       <use xlink:href="#DejaVuSans-30"/>
       <use xlink:href="#DejaVuSans-2e" x="63.623047"/>
       <use xlink:href="#DejaVuSans-30" x="95.410156"/>
       <use xlink:href="#DejaVuSans-30" x="159.033203"/>
       <use xlink:href="#DejaVuSans-36" x="222.65625"/>
      </g>
     </g>
    </g>
    <g id="text_18">
     <!-- North(m) -->
     <g transform="translate(495.825 590.9125) rotate(-90) scale(0.2 -0.2)">
      <defs>
       <path id="DejaVuSans-4e" d="M 628 4666 
L 1478 4666 
L 3547 763 
L 3547 4666 
L 4159 4666 
L 4159 0 
L 3309 0 
L 1241 3903 
L 1241 0 
L 628 0 
L 628 4666 
z
" transform="scale(0.015625)"/>
       <path id="DejaVuSans-6f" d="M 1959 3097 
Q 1497 3097 1228 2736 
Q 959 2375 959 1747 
Q 959 1119 1226 758 
Q 1494 397 1959 397 
Q 2419 397 2687 759 
Q 2956 1122 2956 1747 
Q 2956 2369 2687 2733 
Q 2419 3097 1959 3097 
z
M 1959 3584 
Q 2709 3584 3137 3096 
Q 3566 2609 3566 1747 
Q 3566 888 3137 398 
Q 2709 -91 1959 -91 
Q 1206 -91 779 398 
Q 353 888 353 1747 
Q 353 2609 779 3096 
Q 1206 3584 1959 3584 
z
" transform="scale(0.015625)"/>
       <path id="DejaVuSans-72" d="M 2631 2963 
Q 2534 3019 2420 3045 
Q 2306 3072 2169 3072 
Q 1681 3072 1420 2755 
Q 1159 2438 1159 1844 
L 1159 0 
L 581 0 
L 581 3500 
L 1159 3500 
L 1159 2956 
Q 1341 3275 1631 3429 
Q 1922 3584 2338 3584 
Q 2397 3584 2469 3576 
Q 2541 3569 2628 3553 
L 2631 2963 
z
" transform="scale(0.015625)"/>
       <path id="DejaVuSans-74" d="M 1172 4494 
L 1172 3500 
L 2356 3500 
L 2356 3053 
L 1172 3053 
L 1172 1153 
Q 1172 725 1289 603 
Q 1406 481 1766 481 
L 2356 481 
L 2356 0 
L 1766 0 
Q 1100 0 847 248 
Q 594 497 594 1153 
L 594 3053 
L 172 3053 
L 172 3500 
L 594 3500 
L 594 4494 
L 1172 4494 
z
" transform="scale(0.015625)"/>
       <path id="DejaVuSans-68" d="M 3513 2113 
L 3513 0 
L 2938 0 
L 2938 2094 
Q 2938 2591 2744 2837 
Q 2550 3084 2163 3084 
Q 1697 3084 1428 2787 
Q 1159 2491 1159 1978 
L 1159 0 
L 581 0 
L 581 4863 
L 1159 4863 
L 1159 2956 
Q 1366 3272 1645 3428 
Q 1925 3584 2291 3584 
Q 2894 3584 3203 3211 
Q 3513 2838 3513 2113 
z
" transform="scale(0.015625)"/>
       <path id="DejaVuSans-28" d="M 1984 4856 
Q 1566 4138 1362 3434 
Q 1159 2731 1159 2009 
Q 1159 1288 1364 580 
Q 1569 -128 1984 -844 
L 1484 -844 
Q 1016 -109 783 600 
Q 550 1309 550 2009 
Q 550 2706 781 3412 
Q 1013 4119 1484 4856 
L 1984 4856 
z
" transform="scale(0.015625)"/>
       <path id="DejaVuSans-29" d="M 513 4856 
L 1013 4856 
Q 1481 4119 1714 3412 
Q 1947 2706 1947 2009 
Q 1947 1309 1714 600 
Q 1481 -109 1013 -844 
L 513 -844 
Q 928 -128 1133 580 
Q 1338 1288 1338 2009 
Q 1338 2731 1133 3434 
Q 928 4138 513 4856 
z
" transform="scale(0.015625)"/>
      </defs>
      <use xlink:href="#DejaVuSans-4e"/>
      <use xlink:href="#DejaVuSans-6f" x="74.804688"/>
      <use xlink:href="#DejaVuSans-72" x="135.986328"/>
      <use xlink:href="#DejaVuSans-74" x="177.099609"/>
      <use xlink:href="#DejaVuSans-68" x="216.308594"/>
      <use xlink:href="#DejaVuSans-28" x="279.6875"/>
      <use xlink:href="#DejaVuSans-6d" x="318.701172"/>
      <use xlink:href="#DejaVuSans-29" x="416.113281"/>
     </g>
    </g>
   </g>
   <g id="line2d_17">
    <path d="M 749.863636 581.809029 
L 755.924799 583.149719 
L 761.985963 568.057759 
L 764.00635 572.776147 
L 766.026738 598.970699 
L 768.047126 638.208319 
L 770.067513 622.134415 
L 772.087901 621.50847 
L 774.108289 615.810247 
L 776.128676 592.894408 
L 790.27139 602.49242 
L 792.291778 596.836799 
L 794.312166 608.374667 
L 796.332553 606.623803 
L 798.352941 617.713402 
L 800.373329 649.986047 
L 802.393717 659.905315 
L 806.434492 660.065517 
L 808.45488 645.302586 
L 810.475267 635.458252 
L 812.495655 655.044984 
L 824.617981 720.801346 
L 830.679144 687.554449 
L 832.699532 647.202439 
L 834.71992 661.641831 
L 836.740307 680.499957 
L 844.821858 643.853361 
L 850.883021 619.678553 
L 852.903409 616.24379 
L 854.923797 609.369361 
L 856.944184 652.047003 
L 860.98496 683.061502 
L 867.046123 668.863108 
L 869.066511 661.197464 
L 873.107286 631.781064 
L 875.127674 624.312859 
L 877.148061 661.610479 
L 879.168449 684.59067 
L 881.188837 691.071869 
L 883.209225 698.645211 
L 885.229612 711.657037 
L 889.270388 720.297519 
L 891.290775 709.270349 
L 893.311163 709.645206 
L 895.331551 724.004373 
L 897.351939 799.074861 
L 899.372326 782.529283 
L 901.392714 758.96631 
L 903.413102 769.070727 
L 905.433489 758.804126 
L 907.453877 746.895252 
L 909.474265 725.844897 
L 913.51504 666.692079 
L 915.535428 660.231245 
L 917.555816 665.355102 
L 933.718917 694.443621 
L 937.759693 710.293904 
L 1044.840241 676.780375 
L 1048.881016 696.722541 
L 1212.53242 789.807678 
L 1214.552807 782.296434 
L 1216.573195 778.580518 
L 1226.675134 785.983282 
L 1230.715909 797.854262 
L 1232.736297 811.2792 
L 1234.756684 809.375529 
L 1236.777072 810.70539 
L 1238.79746 816.362546 
L 1240.817848 794.360725 
L 1242.838235 829.981504 
L 1252.940174 923.4 
L 1333.755682 542.042046 
L 1335.77607 624.166839 
L 1337.796457 655.564804 
L 1341.837233 783.449501 
L 1372.143048 797.76001 
L 1374.163436 745.212648 
L 1376.183824 702.034335 
L 1378.204211 689.748521 
L 1382.244987 680.026235 
L 1384.265374 669.383671 
L 1386.285762 654.234333 
L 1388.30615 631.483331 
L 1390.326537 604.891305 
L 1392.346925 593.251086 
L 1394.367313 620.236967 
L 1398.408088 650.812874 
L 1400.428476 678.615664 
L 1402.448864 732.427001 
L 1404.469251 765.967679 
L 1406.489639 775.885803 
L 1412.550802 713.269188 
L 1414.57119 675.678777 
L 1416.591578 641.457316 
L 1418.611965 640.691858 
L 1420.632353 630.96154 
L 1422.652741 661.021481 
L 1424.673128 711.334334 
L 1426.693516 758.242672 
L 1428.713904 785.618548 
L 1432.754679 812.221634 
L 1434.775067 811.460191 
L 1436.795455 783.298205 
L 1444.877005 730.869737 
L 1446.897393 721.468842 
L 1454.978944 719.089636 
L 1456.999332 691.196066 
L 1459.019719 683.356676 
L 1461.040107 682.827971 
L 1463.060495 689.84166 
L 1465.080882 677.89376 
L 1471.142045 713.444422 
L 1473.162433 683.647245 
L 1475.182821 672.962068 
L 1479.223596 638.042119 
L 1481.243984 598.151852 
L 1483.264372 615.613673 
L 1485.284759 627.147062 
L 1487.305147 703.769542 
L 1489.325535 738.477009 
L 1491.345922 752.824169 
L 1493.36631 739.127294 
L 1495.386698 747.984246 
L 1497.407086 728.800067 
L 1501.447861 666.007198 
L 1669.14004 776.437977 
L 1673.180816 802.743519 
L 1677.221591 808.476403 
L 1681.262366 820.574093 
L 1683.282754 838.411266 
L 1687.323529 791.408028 
L 1689.343917 797.66977 
L 1691.364305 794.081008 
L 1693.384693 771.394662 
L 1695.40508 769.950496 
L 1697.425468 772.492742 
L 1699.445856 783.179529 
L 1701.466243 782.62876 
L 1703.486631 777.738787 
L 1707.527406 820.164818 
L 1709.547794 834.688356 
L 1711.568182 836.69326 
L 1715.608957 822.552003 
L 1717.629345 813.772588 
L 1719.649733 792.548235 
L 1721.67012 788.169586 
L 1723.690508 791.151491 
L 1725.710896 807.796882 
L 1727.731283 833.969544 
L 1729.751671 843.500618 
L 1731.772059 843.706145 
L 1737.833222 864.535293 
L 1741.873997 784.956353 
L 1743.894385 777.394446 
L 1745.914773 782.262992 
L 1747.93516 733.115262 
L 1749.955548 717.792669 
L 1751.975936 729.255706 
L 1753.996324 747.255494 
L 1756.016711 750.470486 
L 1758.037099 755.421991 
L 1768.139037 822.266312 
L 1780.261364 779.916854 
L 1782.281751 763.166853 
L 1784.302139 749.140244 
L 1786.322527 743.086814 
L 1788.342914 730.403354 
L 1790.363302 727.796742 
L 1792.38369 742.390881 
L 1794.404078 744.301539 
L 1796.424465 748.383467 
L 1806.526404 780.714021 
L 1808.546791 784.424056 
L 1810.567179 787.524182 
L 1812.587567 773.574735 
L 1814.607955 761.976917 
L 1816.628342 756.909781 
L 1818.64873 771.475905 
L 1822.689505 766.470815 
L 1824.709893 760.236881 
L 1826.730281 765.031606 
L 1828.750668 772.055561 
L 1830.771056 781.355377 
L 1832.791444 767.236359 
L 1834.811832 766.997307 
L 1836.832219 744.26967 
L 1838.852607 746.471005 
L 1954.014706 910.719866 
L 1956.035094 905.91548 
L 1958.055481 880.915406 
L 1960.075869 867.576066 
L 1962.096257 857.099203 
L 1966.137032 884.467626 
L 1968.15742 911.487269 
L 1982.300134 820.939411 
L 1988.361297 856.061916 
L 1990.381684 865.52652 
L 1994.42246 851.560745 
L 1996.442848 847.450975 
L 2000.483623 754.839784 
L 2073.21758 854.692113 
L 2075.237968 807.469769 
L 2079.278743 806.51989 
L 2081.299131 816.921817 
L 2380.316511 653.80991 
L 2438.907754 594.737207 
L 2442.948529 527.002645 
L 2446.989305 501.49656 
L 2451.03008 477.340508 
L 2467.193182 473.655615 
L 3176.349265 236.975643 
L 3178.369652 247.828302 
L 3180.39004 271.388083 
L 3182.410428 270.095363 
L 3184.430816 256.022573 
L 3186.451203 252.260487 
L 3190.491979 240.540591 
L 3194.532754 197.201909 
L 3196.553142 191.348952 
L 3200.593917 219.422403 
L 3208.675468 222.71682 
L 3210.695856 208.366652 
L 3212.716243 177.863066 
L 3214.736631 184.644207 
L 3216.757019 185.725842 
L 3218.777406 178.482449 
L 3220.797794 179.912239 
L 3222.818182 176.025161 
L 3224.83857 184.988994 
L 3226.858957 225.042097 
L 3228.879345 219.439937 
L 3230.899733 222.463302 
L 3253.123997 346.003661 
L 3257.164773 257.870561 
L 3259.18516 256.370881 
L 3261.205548 265.912358 
L 3265.246324 347.884446 
L 3267.266711 356.405785 
L 3269.287099 371.459604 
L 3277.36865 269.558248 
L 3287.470588 270.50693 
L 3289.490976 269.596229 
L 3291.511364 269.531037 
L 3293.531751 275.913795 
L 3295.552139 273.482428 
L 3297.572527 228.772644 
L 3299.592914 236.492664 
L 3301.613302 251.40192 
L 3303.63369 292.923205 
L 3305.654078 323.517309 
L 3309.694853 407.71064 
L 3315.756016 401.85466 
L 3317.776404 353.86734 
L 3319.796791 332.616387 
L 3321.817179 276.86965 
L 3323.837567 297.214812 
L 3325.857955 289.174044 
L 3327.878342 288.148372 
L 3329.89873 292.498859 
L 3331.919118 308.142228 
L 3340.000668 275.559608 
L 3342.021056 307.909197 
L 3346.061832 361.313083 
L 3348.082219 365.804319 
L 3350.102607 354.968482 
L 3352.122995 347.355199 
L 3354.143382 342.949357 
L 3356.16377 312.758262 
L 3358.184158 293.427765 
L 3360.204545 260.128808 
L 3362.224933 263.0703 
L 3364.245321 279.866362 
L 3366.265709 322.19609 
L 3368.286096 341.109566 
L 3370.306484 329.162015 
L 3372.326872 337.35598 
L 3374.347259 348.66911 
L 3376.367647 360.775055 
L 3400.612299 322.34841 
L 3402.632687 314.442931 
L 3406.673463 332.954298 
L 3410.714238 329.639806 
L 3412.734626 354.090968 
L 3414.755013 343.591919 
L 3416.775401 346.505926 
L 3418.795789 313.130196 
L 3420.816176 297.648215 
L 3422.836564 286.071075 
L 3424.856952 283.190541 
L 3426.87734 269.718852 
L 3428.897727 285.18114 
L 3432.938503 314.522759 
L 3434.95889 324.243606 
L 3436.979278 317.259159 
L 3438.999666 320.698877 
L 3441.020053 322.664513 
L 3443.040441 304.209357 
L 3445.060829 274.823115 
L 3447.081217 279.081195 
L 3449.101604 292.572913 
L 3451.121992 302.521908 
L 3453.14238 294.559663 
L 3455.162767 295.247964 
L 3457.183155 311.626784 
L 3459.203543 329.484634 
L 3461.22393 305.934391 
L 3463.244318 262.996523 
L 3465.264706 257.539955 
L 3467.285094 254.405159 
L 3469.305481 248.531923 
L 3471.325869 241.457234 
L 3473.346257 229.540915 
L 3475.366644 248.752614 
L 3477.387032 277.664337 
L 3479.40742 273.050555 
L 3481.427807 271.377084 
L 3483.448195 272.548624 
L 3485.468583 275.545408 
L 3487.488971 279.692199 
L 3489.509358 276.876889 
L 3491.529746 286.617226 
L 3493.550134 287.372589 
L 3499.611297 276.195767 
L 3501.631684 282.131081 
L 3503.652072 286.481954 
L 3505.67246 279.33683 
L 3507.692848 289.189093 
L 3509.713235 288.024574 
L 3511.733623 281.136978 
L 3513.754011 268.42171 
L 3515.774398 250.888481 
L 3517.794786 235.735318 
L 3519.815174 235.95696 
L 3521.835561 225.228279 
L 3523.855949 217.953294 
L 3527.896725 237.092685 
L 3529.917112 242.688617 
L 3531.9375 266.853942 
L 3533.957888 278.095143 
L 3535.978275 280.749395 
L 3537.998663 297.274814 
L 3540.019051 318.830573 
L 3542.039439 326.039019 
L 3544.059826 360.661364 
L 3548.100602 389.06279 
L 3550.120989 395.132589 
L 3552.141377 373.143285 
L 3554.161765 333.297347 
L 3556.182152 307.554759 
L 3558.20254 254.450234 
L 3560.222928 212.874781 
L 3562.243316 215.131529 
L 3564.263703 213.027292 
L 3566.284091 226.070607 
L 3568.304479 257.997235 
L 3570.324866 283.854062 
L 3572.345254 292.83888 
L 3582.447193 295.514522 
L 3584.46758 292.590607 
L 3586.487968 276.540158 
L 3590.528743 236.396065 
L 3592.549131 209.370824 
L 3594.569519 172.02773 
L 3596.589906 167.4 
L 3598.610294 167.523461 
L 3600.630682 272.379063 
L 3602.65107 311.4287 
L 3604.671457 334.926381 
L 3647.099599 330.949745 
L 3649.119987 339.494343 
L 3653.160762 337.757385 
L 3659.221925 319.962502 
L 3661.242313 347.243089 
L 3663.262701 361.537158 
L 3665.283088 361.457931 
L 3667.303476 365.837065 
L 3669.323864 341.138782 
L 3671.344251 328.67617 
L 3673.364639 336.653345 
L 3675.385027 315.767292 
L 3677.405414 311.898118 
L 3679.425802 319.122799 
L 3681.44619 302.485757 
L 3683.466578 318.604064 
L 3685.486965 317.952099 
L 3687.507353 314.075014 
L 3689.527741 324.473796 
L 3691.548128 315.382739 
L 3693.568516 299.204271 
L 3695.588904 310.246093 
L 3697.609291 304.426877 
L 3703.670455 309.554025 
L 3705.690842 321.642465 
L 3707.71123 345.743375 
L 3711.752005 332.394353 
L 3713.772393 338.466655 
L 3715.792781 346.182748 
L 3717.813168 344.472354 
L 3719.833556 345.819428 
L 3721.853944 376.199389 
L 3723.874332 392.428524 
L 3725.894719 399.058733 
L 3727.915107 407.974947 
L 3729.935495 394.603719 
L 3733.97627 373.964425 
L 3735.996658 329.687993 
L 3738.017045 317.193221 
L 3740.037433 338.738504 
L 3744.078209 425.807789 
L 3746.098596 438.057479 
L 3748.118984 442.484255 
L 3750.139372 445.405989 
L 3752.159759 445.404569 
L 3756.200535 371.787335 
L 3758.220922 324.896668 
L 3760.24131 343.192563 
L 3762.261698 348.585521 
L 3764.282086 360.494242 
L 3766.302473 383.803395 
L 3768.322861 409.665062 
L 3772.363636 399.982702 
L 3774.384024 379.763213 
L 3776.404412 369.511613 
L 3778.424799 373.276841 
L 3780.445187 361.618881 
L 3786.50635 371.239515 
L 3788.526738 383.647727 
L 3790.547126 406.472435 
L 3792.567513 406.158744 
L 3794.587901 411.121863 
L 3796.608289 431.037008 
L 3798.628676 423.579814 
L 3952.178142 462.664839 
L 3954.198529 453.403203 
L 3956.218917 468.5503 
L 3958.239305 465.762654 
L 3960.259693 472.193866 
L 3962.28008 494.039667 
L 3970.361631 447.256648 
L 3972.382019 472.98656 
L 3978.443182 482.74543 
L 3980.46357 483.197998 
L 3982.483957 486.331478 
L 3984.504345 508.000907 
L 3986.524733 496.511626 
L 3988.54512 522.618039 
L 3990.565508 551.052723 
L 3996.626671 507.428213 
L 4002.687834 428.494851 
L 4004.708222 409.942286 
L 4006.72861 409.342021 
L 4008.748997 416.080885 
L 4010.769385 472.682672 
L 4012.789773 486.665729 
L 4014.81016 504.097031 
L 4016.830548 541.220224 
L 4018.850936 560.30786 
L 4020.871324 561.951894 
L 4028.952874 551.745633 
L 4030.973262 537.712983 
L 4032.99365 527.759091 
L 4035.014037 528.867485 
L 4037.034425 539.888567 
L 4039.054813 544.741931 
L 4041.075201 574.835966 
L 4043.095588 559.991764 
L 4045.115976 562.884308 
L 4047.136364 551.743865 
L 4047.136364 551.743865 
" clip-path="url(#pdd9ad652f3)" style="fill: none; stroke: #8b2be2; stroke-width: 2.5; stroke-linecap: square"/>
   </g>
   <g id="patch_3">
    <path d="M 585 961.2 
L 585 129.6 
" style="fill: none; stroke: #000000; stroke-width: 0.8; stroke-linejoin: miter; stroke-linecap: square"/>
   </g>
   <g id="patch_4">
    <path d="M 4212 961.2 
L 4212 129.6 
" style="fill: none; stroke: #000000; stroke-width: 0.8; stroke-linejoin: miter; stroke-linecap: square"/>
   </g>
   <g id="patch_5">
    <path d="M 585 961.2 
L 4212 961.2 
" style="fill: none; stroke: #000000; stroke-width: 0.8; stroke-linejoin: miter; stroke-linecap: square"/>
   </g>
   <g id="patch_6">
    <path d="M 585 129.6 
L 4212 129.6 
" style="fill: none; stroke: #000000; stroke-width: 0.8; stroke-linejoin: miter; stroke-linecap: square"/>
   </g>
   <g id="text_19">
    <!-- FDOS -->
    <g transform="translate(2356.992188 123.360937) scale(0.3 -0.3)">
     <defs>
      <path id="DejaVuSans-46" d="M 628 4666 
L 3309 4666 
L 3309 4134 
L 1259 4134 
L 1259 2759 
L 3109 2759 
L 3109 2228 
L 1259 2228 
L 1259 0 
L 628 0 
L 628 4666 
z
" transform="scale(0.015625)"/>
      <path id="DejaVuSans-44" d="M 1259 4147 
L 1259 519 
L 2022 519 
Q 2988 519 3436 956 
Q 3884 1394 3884 2338 
Q 3884 3275 3436 3711 
Q 2988 4147 2022 4147 
L 1259 4147 
z
M 628 4666 
L 1925 4666 
Q 3281 4666 3915 4102 
Q 4550 3538 4550 2338 
Q 4550 1131 3912 565 
Q 3275 0 1925 0 
L 628 0 
L 628 4666 
z
" transform="scale(0.015625)"/>
      <path id="DejaVuSans-4f" d="M 2522 4238 
Q 1834 4238 1429 3725 
Q 1025 3213 1025 2328 
Q 1025 1447 1429 934 
Q 1834 422 2522 422 
Q 3209 422 3611 934 
Q 4013 1447 4013 2328 
Q 4013 3213 3611 3725 
Q 3209 4238 2522 4238 
z
M 2522 4750 
Q 3503 4750 4090 4092 
Q 4678 3434 4678 2328 
Q 4678 1225 4090 567 
Q 3503 -91 2522 -91 
Q 1538 -91 948 565 
Q 359 1222 359 2328 
Q 359 3434 948 4092 
Q 1538 4750 2522 4750 
z
" transform="scale(0.015625)"/>
      <path id="DejaVuSans-53" d="M 3425 4513 
L 3425 3897 
Q 3066 4069 2747 4153 
Q 2428 4238 2131 4238 
Q 1616 4238 1336 4038 
Q 1056 3838 1056 3469 
Q 1056 3159 1242 3001 
Q 1428 2844 1947 2747 
L 2328 2669 
Q 3034 2534 3370 2195 
Q 3706 1856 3706 1288 
Q 3706 609 3251 259 
Q 2797 -91 1919 -91 
Q 1588 -91 1214 -16 
Q 841 59 441 206 
L 441 856 
Q 825 641 1194 531 
Q 1563 422 1919 422 
Q 2459 422 2753 634 
Q 3047 847 3047 1241 
Q 3047 1584 2836 1778 
Q 2625 1972 2144 2069 
L 1759 2144 
Q 1053 2284 737 2584 
Q 422 2884 422 3419 
Q 422 4038 858 4394 
Q 1294 4750 2059 4750 
Q 2388 4750 2728 4690 
Q 3069 4631 3425 4513 
z
" transform="scale(0.015625)"/>
     </defs>
     <use xlink:href="#DejaVuSans-46"/>
     <use xlink:href="#DejaVuSans-44" x="57.519531"/>
     <use xlink:href="#DejaVuSans-4f" x="134.521484"/>
     <use xlink:href="#DejaVuSans-53" x="213.232422"/>
    </g>
   </g>
   <g id="legend_1">
    <g id="patch_7">
     <path d="M 4151.803125 152.278125 
L 4205 152.278125 
Q 4207 152.278125 4207 150.278125 
L 4207 136.6 
Q 4207 134.6 4205 134.6 
L 4151.803125 134.6 
Q 4149.803125 134.6 4149.803125 136.6 
L 4149.803125 150.278125 
Q 4149.803125 152.278125 4151.803125 152.278125 
z
" style="fill: #ffffff; opacity: 0.8; stroke: #cccccc; stroke-linejoin: miter"/>
    </g>
    <g id="line2d_18">
     <path d="M 4153.803125 142.698438 
L 4163.803125 142.698438 
L 4173.803125 142.698438 
" style="fill: none; stroke: #8b2be2; stroke-width: 2.5; stroke-linecap: square"/>
    </g>
    <g id="text_20">
     <!-- fdos -->
     <g transform="translate(4181.803125 146.198438) scale(0.1 -0.1)">
      <defs>
       <path id="DejaVuSans-66" d="M 2375 4863 
L 2375 4384 
L 1825 4384 
Q 1516 4384 1395 4259 
Q 1275 4134 1275 3809 
L 1275 3500 
L 2222 3500 
L 2222 3053 
L 1275 3053 
L 1275 0 
L 697 0 
L 697 3053 
L 147 3053 
L 147 3500 
L 697 3500 
L 697 3744 
Q 697 4328 969 4595 
Q 1241 4863 1831 4863 
L 2375 4863 
z
" transform="scale(0.015625)"/>
       <path id="DejaVuSans-64" d="M 2906 2969 
L 2906 4863 
L 3481 4863 
L 3481 0 
L 2906 0 
L 2906 525 
Q 2725 213 2448 61 
Q 2172 -91 1784 -91 
Q 1150 -91 751 415 
Q 353 922 353 1747 
Q 353 2572 751 3078 
Q 1150 3584 1784 3584 
Q 2172 3584 2448 3432 
Q 2725 3281 2906 2969 
z
M 947 1747 
Q 947 1113 1208 752 
Q 1469 391 1925 391 
Q 2381 391 2643 752 
Q 2906 1113 2906 1747 
Q 2906 2381 2643 2742 
Q 2381 3103 1925 3103 
Q 1469 3103 1208 2742 
Q 947 2381 947 1747 
z
" transform="scale(0.015625)"/>
       <path id="DejaVuSans-73" d="M 2834 3397 
L 2834 2853 
Q 2591 2978 2328 3040 
Q 2066 3103 1784 3103 
Q 1356 3103 1142 2972 
Q 928 2841 928 2578 
Q 928 2378 1081 2264 
Q 1234 2150 1697 2047 
L 1894 2003 
Q 2506 1872 2764 1633 
Q 3022 1394 3022 966 
Q 3022 478 2636 193 
Q 2250 -91 1575 -91 
Q 1294 -91 989 -36 
Q 684 19 347 128 
L 347 722 
Q 666 556 975 473 
Q 1284 391 1588 391 
Q 1994 391 2212 530 
Q 2431 669 2431 922 
Q 2431 1156 2273 1281 
Q 2116 1406 1581 1522 
L 1381 1569 
Q 847 1681 609 1914 
Q 372 2147 372 2553 
Q 372 3047 722 3315 
Q 1072 3584 1716 3584 
Q 2034 3584 2315 3537 
Q 2597 3491 2834 3397 
z
" transform="scale(0.015625)"/>
      </defs>
      <use xlink:href="#DejaVuSans-66"/>
      <use xlink:href="#DejaVuSans-64" x="35.205078"/>
      <use xlink:href="#DejaVuSans-6f" x="98.681641"/>
      <use xlink:href="#DejaVuSans-73" x="159.863281"/>
     </g>
    </g>
   </g>
  </g>
 </g>
 <defs>
  <clipPath id="pdd9ad652f3">
   <rect x="585" y="129.6" width="3627" height="831.6"/>
  </clipPath>
 </defs>
</svg>
