<?xml version="1.0" encoding="utf-8" standalone="no"?>
<!DOCTYPE svg PUBLIC "-//W3C//DTD SVG 1.1//EN"
  "http://www.w3.org/Graphics/SVG/1.1/DTD/svg11.dtd">
<svg xmlns:xlink="http://www.w3.org/1999/xlink" width="4680pt" height="1080pt" viewBox="0 0 4680 1080" xmlns="http://www.w3.org/2000/svg" version="1.1">
 <metadata>
  <rdf:RDF xmlns:dc="http://purl.org/dc/elements/1.1/" xmlns:cc="http://creativecommons.org/ns#" xmlns:rdf="http://www.w3.org/1999/02/22-rdf-syntax-ns#">
   <cc:Work>
    <dc:type rdf:resource="http://purl.org/dc/dcmitype/StillImage"/>
    <dc:date>2024-03-25T15:24:59.480690</dc:date>
    <dc:format>image/svg+xml</dc:format>
    <dc:creator>
     <cc:Agent>
      <dc:title>Matplotlib v3.7.2, https://matplotlib.org/</dc:title>
     </cc:Agent>
    </dc:creator>
   </cc:Work>
  </rdf:RDF>
 </metadata>
 <defs>
  <style type="text/css">*{stroke-linejoin: round; stroke-linecap: butt}</style>
 </defs>
 <g id="figure_1">
  <g id="patch_1">
   <path d="M 0 1080 
L 4680 1080 
L 4680 0 
L 0 0 
z
" style="fill: #ffffff"/>
  </g>
  <g id="axes_1">
   <g id="patch_2">
    <path d="M 585 961.2 
L 4212 961.2 
L 4212 129.6 
L 585 129.6 
z
" style="fill: #ffffff"/>
   </g>
   <g id="matplotlib.axis_1">
    <g id="xtick_1">
     <g id="line2d_1">
      <defs>
       <path id="m248671c7ca" d="M 0 0 
L 0 3.5 
" style="stroke: #000000; stroke-width: 0.8"/>
      </defs>
      <g>
       <use xlink:href="#m248671c7ca" x="941.800468" y="961.2" style="stroke: #000000; stroke-width: 0.8"/>
      </g>
     </g>
     <g id="text_1">
      <!-- 2012-07 -->
      <g transform="translate(900.017655 983.396875) scale(0.2 -0.2)">
       <defs>
        <path id="DejaVuSans-32" d="M 1228 531 
L 3431 531 
L 3431 0 
L 469 0 
L 469 531 
Q 828 903 1448 1529 
Q 2069 2156 2228 2338 
Q 2531 2678 2651 2914 
Q 2772 3150 2772 3378 
Q 2772 3750 2511 3984 
Q 2250 4219 1831 4219 
Q 1534 4219 1204 4116 
Q 875 4013 500 3803 
L 500 4441 
Q 881 4594 1212 4672 
Q 1544 4750 1819 4750 
Q 2544 4750 2975 4387 
Q 3406 4025 3406 3419 
Q 3406 3131 3298 2873 
Q 3191 2616 2906 2266 
Q 2828 2175 2409 1742 
Q 1991 1309 1228 531 
z
" transform="scale(0.015625)"/>
        <path id="DejaVuSans-30" d="M 2034 4250 
Q 1547 4250 1301 3770 
Q 1056 3291 1056 2328 
Q 1056 1369 1301 889 
Q 1547 409 2034 409 
Q 2525 409 2770 889 
Q 3016 1369 3016 2328 
Q 3016 3291 2770 3770 
Q 2525 4250 2034 4250 
z
M 2034 4750 
Q 2819 4750 3233 4129 
Q 3647 3509 3647 2328 
Q 3647 1150 3233 529 
Q 2819 -91 2034 -91 
Q 1250 -91 836 529 
Q 422 1150 422 2328 
Q 422 3509 836 4129 
Q 1250 4750 2034 4750 
z
" transform="scale(0.015625)"/>
        <path id="DejaVuSans-31" d="M 794 531 
L 1825 531 
L 1825 4091 
L 703 3866 
L 703 4441 
L 1819 4666 
L 2450 4666 
L 2450 531 
L 3481 531 
L 3481 0 
L 794 0 
L 794 531 
z
" transform="scale(0.015625)"/>
        <path id="DejaVuSans-2d" d="M 313 2009 
L 1997 2009 
L 1997 1497 
L 313 1497 
L 313 2009 
z
" transform="scale(0.015625)"/>
        <path id="DejaVuSans-37" d="M 525 4666 
L 3525 4666 
L 3525 4397 
L 1831 0 
L 1172 0 
L 2766 4134 
L 525 4134 
L 525 4666 
z
" transform="scale(0.015625)"/>
       </defs>
       <use xlink:href="#DejaVuSans-32"/>
       <use xlink:href="#DejaVuSans-30" x="63.623047"/>
       <use xlink:href="#DejaVuSans-31" x="127.246094"/>
       <use xlink:href="#DejaVuSans-32" x="190.869141"/>
       <use xlink:href="#DejaVuSans-2d" x="254.492188"/>
       <use xlink:href="#DejaVuSans-30" x="290.576172"/>
       <use xlink:href="#DejaVuSans-37" x="354.199219"/>
      </g>
     </g>
    </g>
    <g id="xtick_2">
     <g id="line2d_2">
      <g>
       <use xlink:href="#m248671c7ca" x="1313.551805" y="961.2" style="stroke: #000000; stroke-width: 0.8"/>
      </g>
     </g>
     <g id="text_2">
      <!-- 2013-01 -->
      <g transform="translate(1271.768992 983.396875) scale(0.2 -0.2)">
       <defs>
        <path id="DejaVuSans-33" d="M 2597 2516 
Q 3050 2419 3304 2112 
Q 3559 1806 3559 1356 
Q 3559 666 3084 287 
Q 2609 -91 1734 -91 
Q 1441 -91 1130 -33 
Q 819 25 488 141 
L 488 750 
Q 750 597 1062 519 
Q 1375 441 1716 441 
Q 2309 441 2620 675 
Q 2931 909 2931 1356 
Q 2931 1769 2642 2001 
Q 2353 2234 1838 2234 
L 1294 2234 
L 1294 2753 
L 1863 2753 
Q 2328 2753 2575 2939 
Q 2822 3125 2822 3475 
Q 2822 3834 2567 4026 
Q 2313 4219 1838 4219 
Q 1578 4219 1281 4162 
Q 984 4106 628 3988 
L 628 4550 
Q 988 4650 1302 4700 
Q 1616 4750 1894 4750 
Q 2613 4750 3031 4423 
Q 3450 4097 3450 3541 
Q 3450 3153 3228 2886 
Q 3006 2619 2597 2516 
z
" transform="scale(0.015625)"/>
       </defs>
       <use xlink:href="#DejaVuSans-32"/>
       <use xlink:href="#DejaVuSans-30" x="63.623047"/>
       <use xlink:href="#DejaVuSans-31" x="127.246094"/>
       <use xlink:href="#DejaVuSans-33" x="190.869141"/>
       <use xlink:href="#DejaVuSans-2d" x="254.492188"/>
       <use xlink:href="#DejaVuSans-30" x="290.576172"/>
       <use xlink:href="#DejaVuSans-31" x="354.199219"/>
      </g>
     </g>
    </g>
    <g id="xtick_3">
     <g id="line2d_3">
      <g>
       <use xlink:href="#m248671c7ca" x="1679.241979" y="961.2" style="stroke: #000000; stroke-width: 0.8"/>
      </g>
     </g>
     <g id="text_3">
      <!-- 2013-07 -->
      <g transform="translate(1637.459166 983.396875) scale(0.2 -0.2)">
       <use xlink:href="#DejaVuSans-32"/>
       <use xlink:href="#DejaVuSans-30" x="63.623047"/>
       <use xlink:href="#DejaVuSans-31" x="127.246094"/>
       <use xlink:href="#DejaVuSans-33" x="190.869141"/>
       <use xlink:href="#DejaVuSans-2d" x="254.492188"/>
       <use xlink:href="#DejaVuSans-30" x="290.576172"/>
       <use xlink:href="#DejaVuSans-37" x="354.199219"/>
      </g>
     </g>
    </g>
    <g id="xtick_4">
     <g id="line2d_4">
      <g>
       <use xlink:href="#m248671c7ca" x="2050.993316" y="961.2" style="stroke: #000000; stroke-width: 0.8"/>
      </g>
     </g>
     <g id="text_4">
      <!-- 2014-01 -->
      <g transform="translate(2009.210503 983.396875) scale(0.2 -0.2)">
       <defs>
        <path id="DejaVuSans-34" d="M 2419 4116 
L 825 1625 
L 2419 1625 
L 2419 4116 
z
M 2253 4666 
L 3047 4666 
L 3047 1625 
L 3713 1625 
L 3713 1100 
L 3047 1100 
L 3047 0 
L 2419 0 
L 2419 1100 
L 313 1100 
L 313 1709 
L 2253 4666 
z
" transform="scale(0.015625)"/>
       </defs>
       <use xlink:href="#DejaVuSans-32"/>
       <use xlink:href="#DejaVuSans-30" x="63.623047"/>
       <use xlink:href="#DejaVuSans-31" x="127.246094"/>
       <use xlink:href="#DejaVuSans-34" x="190.869141"/>
       <use xlink:href="#DejaVuSans-2d" x="254.492188"/>
       <use xlink:href="#DejaVuSans-30" x="290.576172"/>
       <use xlink:href="#DejaVuSans-31" x="354.199219"/>
      </g>
     </g>
    </g>
    <g id="xtick_5">
     <g id="line2d_5">
      <g>
       <use xlink:href="#m248671c7ca" x="2416.683489" y="961.2" style="stroke: #000000; stroke-width: 0.8"/>
      </g>
     </g>
     <g id="text_5">
      <!-- 2014-07 -->
      <g transform="translate(2374.900677 983.396875) scale(0.2 -0.2)">
       <use xlink:href="#DejaVuSans-32"/>
       <use xlink:href="#DejaVuSans-30" x="63.623047"/>
       <use xlink:href="#DejaVuSans-31" x="127.246094"/>
       <use xlink:href="#DejaVuSans-34" x="190.869141"/>
       <use xlink:href="#DejaVuSans-2d" x="254.492188"/>
       <use xlink:href="#DejaVuSans-30" x="290.576172"/>
       <use xlink:href="#DejaVuSans-37" x="354.199219"/>
      </g>
     </g>
    </g>
    <g id="xtick_6">
     <g id="line2d_6">
      <g>
       <use xlink:href="#m248671c7ca" x="2788.434826" y="961.2" style="stroke: #000000; stroke-width: 0.8"/>
      </g>
     </g>
     <g id="text_6">
      <!-- 2015-01 -->
      <g transform="translate(2746.652014 983.396875) scale(0.2 -0.2)">
       <defs>
        <path id="DejaVuSans-35" d="M 691 4666 
L 3169 4666 
L 3169 4134 
L 1269 4134 
L 1269 2991 
Q 1406 3038 1543 3061 
Q 1681 3084 1819 3084 
Q 2600 3084 3056 2656 
Q 3513 2228 3513 1497 
Q 3513 744 3044 326 
Q 2575 -91 1722 -91 
Q 1428 -91 1123 -41 
Q 819 9 494 109 
L 494 744 
Q 775 591 1075 516 
Q 1375 441 1709 441 
Q 2250 441 2565 725 
Q 2881 1009 2881 1497 
Q 2881 1984 2565 2268 
Q 2250 2553 1709 2553 
Q 1456 2553 1204 2497 
Q 953 2441 691 2322 
L 691 4666 
z
" transform="scale(0.015625)"/>
       </defs>
       <use xlink:href="#DejaVuSans-32"/>
       <use xlink:href="#DejaVuSans-30" x="63.623047"/>
       <use xlink:href="#DejaVuSans-31" x="127.246094"/>
       <use xlink:href="#DejaVuSans-35" x="190.869141"/>
       <use xlink:href="#DejaVuSans-2d" x="254.492188"/>
       <use xlink:href="#DejaVuSans-30" x="290.576172"/>
       <use xlink:href="#DejaVuSans-31" x="354.199219"/>
      </g>
     </g>
    </g>
    <g id="xtick_7">
     <g id="line2d_7">
      <g>
       <use xlink:href="#m248671c7ca" x="3154.125" y="961.2" style="stroke: #000000; stroke-width: 0.8"/>
      </g>
     </g>
     <g id="text_7">
      <!-- 2015-07 -->
      <g transform="translate(3112.342188 983.396875) scale(0.2 -0.2)">
       <use xlink:href="#DejaVuSans-32"/>
       <use xlink:href="#DejaVuSans-30" x="63.623047"/>
       <use xlink:href="#DejaVuSans-31" x="127.246094"/>
       <use xlink:href="#DejaVuSans-35" x="190.869141"/>
       <use xlink:href="#DejaVuSans-2d" x="254.492188"/>
       <use xlink:href="#DejaVuSans-30" x="290.576172"/>
       <use xlink:href="#DejaVuSans-37" x="354.199219"/>
      </g>
     </g>
    </g>
    <g id="xtick_8">
     <g id="line2d_8">
      <g>
       <use xlink:href="#m248671c7ca" x="3525.876337" y="961.2" style="stroke: #000000; stroke-width: 0.8"/>
      </g>
     </g>
     <g id="text_8">
      <!-- 2016-01 -->
      <g transform="translate(3484.093524 983.396875) scale(0.2 -0.2)">
       <defs>
        <path id="DejaVuSans-36" d="M 2113 2584 
Q 1688 2584 1439 2293 
Q 1191 2003 1191 1497 
Q 1191 994 1439 701 
Q 1688 409 2113 409 
Q 2538 409 2786 701 
Q 3034 994 3034 1497 
Q 3034 2003 2786 2293 
Q 2538 2584 2113 2584 
z
M 3366 4563 
L 3366 3988 
Q 3128 4100 2886 4159 
Q 2644 4219 2406 4219 
Q 1781 4219 1451 3797 
Q 1122 3375 1075 2522 
Q 1259 2794 1537 2939 
Q 1816 3084 2150 3084 
Q 2853 3084 3261 2657 
Q 3669 2231 3669 1497 
Q 3669 778 3244 343 
Q 2819 -91 2113 -91 
Q 1303 -91 875 529 
Q 447 1150 447 2328 
Q 447 3434 972 4092 
Q 1497 4750 2381 4750 
Q 2619 4750 2861 4703 
Q 3103 4656 3366 4563 
z
" transform="scale(0.015625)"/>
       </defs>
       <use xlink:href="#DejaVuSans-32"/>
       <use xlink:href="#DejaVuSans-30" x="63.623047"/>
       <use xlink:href="#DejaVuSans-31" x="127.246094"/>
       <use xlink:href="#DejaVuSans-36" x="190.869141"/>
       <use xlink:href="#DejaVuSans-2d" x="254.492188"/>
       <use xlink:href="#DejaVuSans-30" x="290.576172"/>
       <use xlink:href="#DejaVuSans-31" x="354.199219"/>
      </g>
     </g>
    </g>
    <g id="xtick_9">
     <g id="line2d_9">
      <g>
       <use xlink:href="#m248671c7ca" x="3893.586898" y="961.2" style="stroke: #000000; stroke-width: 0.8"/>
      </g>
     </g>
     <g id="text_9">
      <!-- 2016-07 -->
      <g transform="translate(3851.804086 983.396875) scale(0.2 -0.2)">
       <use xlink:href="#DejaVuSans-32"/>
       <use xlink:href="#DejaVuSans-30" x="63.623047"/>
       <use xlink:href="#DejaVuSans-31" x="127.246094"/>
       <use xlink:href="#DejaVuSans-36" x="190.869141"/>
       <use xlink:href="#DejaVuSans-2d" x="254.492188"/>
       <use xlink:href="#DejaVuSans-30" x="290.576172"/>
       <use xlink:href="#DejaVuSans-37" x="354.199219"/>
      </g>
     </g>
    </g>
    <g id="text_10">
     <!-- Time -->
     <g transform="translate(2374.032813 1006.753125) scale(0.2 -0.2)">
      <defs>
       <path id="DejaVuSans-54" d="M -19 4666 
L 3928 4666 
L 3928 4134 
L 2272 4134 
L 2272 0 
L 1638 0 
L 1638 4134 
L -19 4134 
L -19 4666 
z
" transform="scale(0.015625)"/>
       <path id="DejaVuSans-69" d="M 603 3500 
L 1178 3500 
L 1178 0 
L 603 0 
L 603 3500 
z
M 603 4863 
L 1178 4863 
L 1178 4134 
L 603 4134 
L 603 4863 
z
" transform="scale(0.015625)"/>
       <path id="DejaVuSans-6d" d="M 3328 2828 
Q 3544 3216 3844 3400 
Q 4144 3584 4550 3584 
Q 5097 3584 5394 3201 
Q 5691 2819 5691 2113 
L 5691 0 
L 5113 0 
L 5113 2094 
Q 5113 2597 4934 2840 
Q 4756 3084 4391 3084 
Q 3944 3084 3684 2787 
Q 3425 2491 3425 1978 
L 3425 0 
L 2847 0 
L 2847 2094 
Q 2847 2600 2669 2842 
Q 2491 3084 2119 3084 
Q 1678 3084 1418 2786 
Q 1159 2488 1159 1978 
L 1159 0 
L 581 0 
L 581 3500 
L 1159 3500 
L 1159 2956 
Q 1356 3278 1631 3431 
Q 1906 3584 2284 3584 
Q 2666 3584 2933 3390 
Q 3200 3197 3328 2828 
z
" transform="scale(0.015625)"/>
       <path id="DejaVuSans-65" d="M 3597 1894 
L 3597 1613 
L 953 1613 
Q 991 1019 1311 708 
Q 1631 397 2203 397 
Q 2534 397 2845 478 
Q 3156 559 3463 722 
L 3463 178 
Q 3153 47 2828 -22 
Q 2503 -91 2169 -91 
Q 1331 -91 842 396 
Q 353 884 353 1716 
Q 353 2575 817 3079 
Q 1281 3584 2069 3584 
Q 2775 3584 3186 3129 
Q 3597 2675 3597 1894 
z
M 3022 2063 
Q 3016 2534 2758 2815 
Q 2500 3097 2075 3097 
Q 1594 3097 1305 2825 
Q 1016 2553 972 2059 
L 3022 2063 
z
" transform="scale(0.015625)"/>
      </defs>
      <use xlink:href="#DejaVuSans-54"/>
      <use xlink:href="#DejaVuSans-69" x="57.958984"/>
      <use xlink:href="#DejaVuSans-6d" x="85.742188"/>
      <use xlink:href="#DejaVuSans-65" x="183.154297"/>
     </g>
    </g>
   </g>
   <g id="matplotlib.axis_2">
    <g id="ytick_1">
     <g id="line2d_10">
      <defs>
       <path id="me1574c03b6" d="M 0 0 
L -3.5 0 
" style="stroke: #000000; stroke-width: 0.8"/>
      </defs>
      <g>
       <use xlink:href="#me1574c03b6" x="585" y="832.043315" style="stroke: #000000; stroke-width: 0.8"/>
      </g>
     </g>
     <g id="text_11">
      <!-- −0.004 -->
      <g transform="translate(503.984375 839.641753) scale(0.2 -0.2)">
       <defs>
        <path id="DejaVuSans-2212" d="M 678 2272 
L 4684 2272 
L 4684 1741 
L 678 1741 
L 678 2272 
z
" transform="scale(0.015625)"/>
        <path id="DejaVuSans-2e" d="M 684 794 
L 1344 794 
L 1344 0 
L 684 0 
L 684 794 
z
" transform="scale(0.015625)"/>
       </defs>
       <use xlink:href="#DejaVuSans-2212"/>
       <use xlink:href="#DejaVuSans-30" x="83.789062"/>
       <use xlink:href="#DejaVuSans-2e" x="147.412109"/>
       <use xlink:href="#DejaVuSans-30" x="179.199219"/>
       <use xlink:href="#DejaVuSans-30" x="242.822266"/>
       <use xlink:href="#DejaVuSans-34" x="306.445312"/>
      </g>
     </g>
    </g>
    <g id="ytick_2">
     <g id="line2d_11">
      <g>
       <use xlink:href="#me1574c03b6" x="585" y="670.277194" style="stroke: #000000; stroke-width: 0.8"/>
      </g>
     </g>
     <g id="text_12">
      <!-- −0.002 -->
      <g transform="translate(503.984375 677.875632) scale(0.2 -0.2)">
       <use xlink:href="#DejaVuSans-2212"/>
       <use xlink:href="#DejaVuSans-30" x="83.789062"/>
       <use xlink:href="#DejaVuSans-2e" x="147.412109"/>
       <use xlink:href="#DejaVuSans-30" x="179.199219"/>
       <use xlink:href="#DejaVuSans-30" x="242.822266"/>
       <use xlink:href="#DejaVuSans-32" x="306.445312"/>
      </g>
     </g>
    </g>
    <g id="ytick_3">
     <g id="line2d_12">
      <g>
       <use xlink:href="#me1574c03b6" x="585" y="508.511073" style="stroke: #000000; stroke-width: 0.8"/>
      </g>
     </g>
     <g id="text_13">
      <!-- 0.000 -->
      <g transform="translate(520.74375 516.109511) scale(0.2 -0.2)">
       <use xlink:href="#DejaVuSans-30"/>
       <use xlink:href="#DejaVuSans-2e" x="63.623047"/>
       <use xlink:href="#DejaVuSans-30" x="95.410156"/>
       <use xlink:href="#DejaVuSans-30" x="159.033203"/>
       <use xlink:href="#DejaVuSans-30" x="222.65625"/>
      </g>
     </g>
    </g>
    <g id="ytick_4">
     <g id="line2d_13">
      <g>
       <use xlink:href="#me1574c03b6" x="585" y="346.744952" style="stroke: #000000; stroke-width: 0.8"/>
      </g>
     </g>
     <g id="text_14">
      <!-- 0.002 -->
      <g transform="translate(520.74375 354.34339) scale(0.2 -0.2)">
       <use xlink:href="#DejaVuSans-30"/>
       <use xlink:href="#DejaVuSans-2e" x="63.623047"/>
       <use xlink:href="#DejaVuSans-30" x="95.410156"/>
       <use xlink:href="#DejaVuSans-30" x="159.033203"/>
       <use xlink:href="#DejaVuSans-32" x="222.65625"/>
      </g>
     </g>
    </g>
    <g id="ytick_5">
     <g id="line2d_14">
      <g>
       <use xlink:href="#me1574c03b6" x="585" y="184.978831" style="stroke: #000000; stroke-width: 0.8"/>
      </g>
     </g>
     <g id="text_15">
      <!-- 0.004 -->
      <g transform="translate(520.74375 192.577269) scale(0.2 -0.2)">
       <use xlink:href="#DejaVuSans-30"/>
       <use xlink:href="#DejaVuSans-2e" x="63.623047"/>
       <use xlink:href="#DejaVuSans-30" x="95.410156"/>
       <use xlink:href="#DejaVuSans-30" x="159.033203"/>
       <use xlink:href="#DejaVuSans-34" x="222.65625"/>
      </g>
     </g>
    </g>
    <g id="text_16">
     <!-- North(m) -->
     <g transform="translate(495.825 590.9125) rotate(-90) scale(0.2 -0.2)">
      <defs>
       <path id="DejaVuSans-4e" d="M 628 4666 
L 1478 4666 
L 3547 763 
L 3547 4666 
L 4159 4666 
L 4159 0 
L 3309 0 
L 1241 3903 
L 1241 0 
L 628 0 
L 628 4666 
z
" transform="scale(0.015625)"/>
       <path id="DejaVuSans-6f" d="M 1959 3097 
Q 1497 3097 1228 2736 
Q 959 2375 959 1747 
Q 959 1119 1226 758 
Q 1494 397 1959 397 
Q 2419 397 2687 759 
Q 2956 1122 2956 1747 
Q 2956 2369 2687 2733 
Q 2419 3097 1959 3097 
z
M 1959 3584 
Q 2709 3584 3137 3096 
Q 3566 2609 3566 1747 
Q 3566 888 3137 398 
Q 2709 -91 1959 -91 
Q 1206 -91 779 398 
Q 353 888 353 1747 
Q 353 2609 779 3096 
Q 1206 3584 1959 3584 
z
" transform="scale(0.015625)"/>
       <path id="DejaVuSans-72" d="M 2631 2963 
Q 2534 3019 2420 3045 
Q 2306 3072 2169 3072 
Q 1681 3072 1420 2755 
Q 1159 2438 1159 1844 
L 1159 0 
L 581 0 
L 581 3500 
L 1159 3500 
L 1159 2956 
Q 1341 3275 1631 3429 
Q 1922 3584 2338 3584 
Q 2397 3584 2469 3576 
Q 2541 3569 2628 3553 
L 2631 2963 
z
" transform="scale(0.015625)"/>
       <path id="DejaVuSans-74" d="M 1172 4494 
L 1172 3500 
L 2356 3500 
L 2356 3053 
L 1172 3053 
L 1172 1153 
Q 1172 725 1289 603 
Q 1406 481 1766 481 
L 2356 481 
L 2356 0 
L 1766 0 
Q 1100 0 847 248 
Q 594 497 594 1153 
L 594 3053 
L 172 3053 
L 172 3500 
L 594 3500 
L 594 4494 
L 1172 4494 
z
" transform="scale(0.015625)"/>
       <path id="DejaVuSans-68" d="M 3513 2113 
L 3513 0 
L 2938 0 
L 2938 2094 
Q 2938 2591 2744 2837 
Q 2550 3084 2163 3084 
Q 1697 3084 1428 2787 
Q 1159 2491 1159 1978 
L 1159 0 
L 581 0 
L 581 4863 
L 1159 4863 
L 1159 2956 
Q 1366 3272 1645 3428 
Q 1925 3584 2291 3584 
Q 2894 3584 3203 3211 
Q 3513 2838 3513 2113 
z
" transform="scale(0.015625)"/>
       <path id="DejaVuSans-28" d="M 1984 4856 
Q 1566 4138 1362 3434 
Q 1159 2731 1159 2009 
Q 1159 1288 1364 580 
Q 1569 -128 1984 -844 
L 1484 -844 
Q 1016 -109 783 600 
Q 550 1309 550 2009 
Q 550 2706 781 3412 
Q 1013 4119 1484 4856 
L 1984 4856 
z
" transform="scale(0.015625)"/>
       <path id="DejaVuSans-29" d="M 513 4856 
L 1013 4856 
Q 1481 4119 1714 3412 
Q 1947 2706 1947 2009 
Q 1947 1309 1714 600 
Q 1481 -109 1013 -844 
L 513 -844 
Q 928 -128 1133 580 
Q 1338 1288 1338 2009 
Q 1338 2731 1133 3434 
Q 928 4138 513 4856 
z
" transform="scale(0.015625)"/>
      </defs>
      <use xlink:href="#DejaVuSans-4e"/>
      <use xlink:href="#DejaVuSans-6f" x="74.804688"/>
      <use xlink:href="#DejaVuSans-72" x="135.986328"/>
      <use xlink:href="#DejaVuSans-74" x="177.099609"/>
      <use xlink:href="#DejaVuSans-68" x="216.308594"/>
      <use xlink:href="#DejaVuSans-28" x="279.6875"/>
      <use xlink:href="#DejaVuSans-6d" x="318.701172"/>
      <use xlink:href="#DejaVuSans-29" x="416.113281"/>
     </g>
    </g>
   </g>
   <g id="line2d_15">
    <path d="M 749.863636 456.3369 
L 755.924799 589.908248 
L 761.985963 661.182253 
L 764.00635 664.83204 
L 766.026738 694.116457 
L 768.047126 642.927058 
L 770.067513 601.771622 
L 772.087901 545.927787 
L 774.108289 549.495211 
L 776.128676 549.298596 
L 790.27139 544.74372 
L 792.291778 523.847365 
L 794.312166 543.185076 
L 796.332553 556.479233 
L 798.352941 539.068321 
L 800.373329 573.960862 
L 802.393717 577.052894 
L 806.434492 635.806168 
L 808.45488 612.28776 
L 810.475267 611.000552 
L 812.495655 638.321708 
L 824.617981 599.211679 
L 830.679144 571.125009 
L 832.699532 546.174371 
L 834.71992 489.819578 
L 836.740307 525.230006 
L 844.821858 445.888459 
L 850.883021 394.079539 
L 852.903409 404.770199 
L 854.923797 400.639409 
L 856.944184 449.453338 
L 860.98496 462.610689 
L 867.046123 487.280648 
L 869.066511 519.322041 
L 873.107286 526.364083 
L 875.127674 478.945933 
L 877.148061 456.474108 
L 879.168449 440.973331 
L 881.188837 473.327256 
L 883.209225 466.034482 
L 885.229612 455.915915 
L 889.270388 494.869346 
L 891.290775 506.038303 
L 893.311163 526.819833 
L 895.331551 502.066981 
L 897.351939 586.79174 
L 899.372326 591.438881 
L 901.392714 569.291107 
L 903.413102 600.955842 
L 905.433489 583.99494 
L 909.474265 534.554631 
L 913.51504 405.711232 
L 915.535428 385.594483 
L 917.555816 332.078277 
L 933.718917 312.718134 
L 937.759693 382.101968 
L 1044.840241 412.659557 
L 1048.881016 391.408674 
L 1212.53242 328.932433 
L 1214.552807 326.077327 
L 1216.573195 332.751453 
L 1226.675134 181.317765 
L 1230.715909 207.505554 
L 1232.736297 241.820047 
L 1234.756684 235.122455 
L 1236.777072 241.846164 
L 1238.79746 248.078947 
L 1240.817848 260.878646 
L 1242.838235 284.637368 
L 1252.940174 378.805181 
L 1333.755682 693.020162 
L 1335.77607 764.978197 
L 1337.796457 786.960192 
L 1341.837233 791.370727 
L 1372.143048 767.68534 
L 1374.163436 724.084108 
L 1376.183824 777.731491 
L 1378.204211 781.441782 
L 1382.244987 694.073138 
L 1384.265374 707.070524 
L 1386.285762 688.076445 
L 1388.30615 685.078185 
L 1390.326537 619.466706 
L 1392.346925 621.300319 
L 1394.367313 717.775084 
L 1398.408088 765.385033 
L 1400.428476 809.19157 
L 1402.448864 866.298891 
L 1404.469251 919.02688 
L 1406.489639 923.4 
L 1412.550802 857.558082 
L 1414.57119 822.098233 
L 1416.591578 797.069611 
L 1418.611965 793.768738 
L 1420.632353 792.352333 
L 1422.652741 783.697759 
L 1424.673128 795.310314 
L 1426.693516 844.998386 
L 1428.713904 868.780619 
L 1432.754679 866.246999 
L 1434.775067 873.362147 
L 1436.795455 858.412248 
L 1442.856618 804.241878 
L 1444.877005 783.03006 
L 1446.897393 772.58984 
L 1454.978944 816.79884 
L 1456.999332 814.838504 
L 1459.019719 818.489941 
L 1461.040107 817.472488 
L 1463.060495 805.616509 
L 1465.080882 825.295326 
L 1471.142045 798.002106 
L 1473.162433 731.742192 
L 1475.182821 718.596347 
L 1479.223596 735.572866 
L 1481.243984 714.402312 
L 1483.264372 739.11324 
L 1485.284759 732.874529 
L 1487.305147 798.493424 
L 1489.325535 860.444173 
L 1491.345922 890.965071 
L 1493.36631 863.805254 
L 1495.386698 851.547587 
L 1497.407086 841.6051 
L 1501.447861 814.509738 
L 1669.14004 459.521993 
L 1673.180816 478.405601 
L 1677.221591 560.297559 
L 1681.262366 597.225334 
L 1683.282754 622.770518 
L 1687.323529 589.7038 
L 1689.343917 576.304795 
L 1691.364305 582.312165 
L 1693.384693 621.792178 
L 1695.40508 618.094903 
L 1697.425468 599.910178 
L 1699.445856 616.466827 
L 1701.466243 627.079426 
L 1703.486631 615.427785 
L 1705.507019 648.385668 
L 1707.527406 630.514613 
L 1709.547794 651.385353 
L 1711.568182 643.063591 
L 1715.608957 615.03053 
L 1717.629345 605.80208 
L 1719.649733 542.622657 
L 1721.67012 539.365378 
L 1723.690508 503.010047 
L 1725.710896 495.451057 
L 1727.731283 540.421461 
L 1729.751671 546.903137 
L 1731.772059 535.134579 
L 1737.833222 603.330064 
L 1739.85361 599.381278 
L 1741.873997 556.565799 
L 1743.894385 586.887814 
L 1745.914773 634.721498 
L 1747.93516 583.254007 
L 1749.955548 566.530675 
L 1751.975936 601.970896 
L 1753.996324 677.089106 
L 1756.016711 685.776461 
L 1758.037099 648.709821 
L 1768.139037 685.12067 
L 1780.261364 569.13455 
L 1782.281751 553.041159 
L 1784.302139 538.04764 
L 1786.322527 539.154653 
L 1788.342914 548.195057 
L 1790.363302 552.635862 
L 1792.38369 584.956611 
L 1794.404078 578.892689 
L 1796.424465 564.85732 
L 1806.526404 600.929098 
L 1808.546791 563.127842 
L 1810.567179 588.350996 
L 1812.587567 580.055463 
L 1814.607955 572.272856 
L 1816.628342 539.245923 
L 1818.64873 544.573109 
L 1822.689505 658.838415 
L 1824.709893 664.737243 
L 1826.730281 666.88009 
L 1830.771056 719.431394 
L 1832.791444 733.921028 
L 1834.811832 717.403668 
L 1836.832219 699.842146 
L 1838.852607 680.278616 
L 1954.014706 554.625055 
L 1956.035094 556.072108 
L 1958.055481 541.266531 
L 1960.075869 583.7262 
L 1962.096257 612.179526 
L 1966.137032 661.778814 
L 1968.15742 679.904844 
L 1980.279746 357.676197 
L 1982.300134 313.830338 
L 1988.361297 390.03309 
L 1990.381684 394.221463 
L 1992.402072 451.909775 
L 1994.42246 447.495857 
L 1996.442848 455.287549 
L 2000.483623 365.30629 
L 2073.21758 454.285108 
L 2075.237968 444.37382 
L 2079.278743 522.379514 
L 2081.299131 519.165726 
L 2380.316511 424.585776 
L 2438.907754 399.842145 
L 2442.948529 452.479118 
L 2446.989305 484.244809 
L 2451.03008 505.805169 
L 2467.193182 434.862283 
L 3176.349265 324.668546 
L 3178.369652 362.14674 
L 3180.39004 368.168907 
L 3182.410428 364.703039 
L 3184.430816 330.734445 
L 3186.451203 287.640174 
L 3190.491979 324.893965 
L 3194.532754 301.741222 
L 3196.553142 279.421485 
L 3200.593917 341.667241 
L 3208.675468 427.957148 
L 3210.695856 443.995253 
L 3212.716243 431.607457 
L 3214.736631 454.390861 
L 3216.757019 469.550583 
L 3218.777406 452.611588 
L 3220.797794 406.012965 
L 3222.818182 378.817384 
L 3224.83857 372.545253 
L 3226.858957 384.648973 
L 3228.879345 394.904273 
L 3230.899733 382.705954 
L 3253.123997 366.38789 
L 3257.164773 332.082679 
L 3259.18516 380.517525 
L 3261.205548 409.151565 
L 3265.246324 522.882444 
L 3267.266711 551.150279 
L 3269.287099 558.023846 
L 3287.470588 417.119558 
L 3289.490976 375.071892 
L 3291.511364 364.107119 
L 3293.531751 384.038936 
L 3295.552139 375.130598 
L 3297.572527 360.360367 
L 3299.592914 391.053638 
L 3301.613302 375.85476 
L 3303.63369 452.631027 
L 3305.654078 535.42117 
L 3309.694853 606.916439 
L 3315.756016 547.150944 
L 3317.776404 558.410537 
L 3319.796791 524.201605 
L 3321.817179 454.943467 
L 3323.837567 415.784553 
L 3325.857955 421.24537 
L 3327.878342 438.162309 
L 3329.89873 452.6809 
L 3331.919118 443.9473 
L 3340.000668 415.953881 
L 3342.021056 473.801622 
L 3344.041444 511.750218 
L 3346.061832 546.768692 
L 3348.082219 533.137947 
L 3350.102607 556.526154 
L 3352.122995 571.679405 
L 3354.143382 579.213576 
L 3356.16377 540.540323 
L 3358.184158 512.209069 
L 3360.204545 485.594168 
L 3362.224933 505.654267 
L 3364.245321 538.720988 
L 3366.265709 516.749349 
L 3368.286096 499.530589 
L 3370.306484 525.657396 
L 3372.326872 536.075424 
L 3374.347259 532.265938 
L 3376.367647 517.030395 
L 3400.612299 349.387232 
L 3402.632687 338.347644 
L 3404.653075 353.194719 
L 3406.673463 366.367682 
L 3410.714238 337.332147 
L 3412.734626 344.050104 
L 3414.755013 346.638247 
L 3416.775401 352.161464 
L 3418.795789 324.984641 
L 3420.816176 343.642797 
L 3422.836564 337.851356 
L 3424.856952 333.975108 
L 3426.87734 321.585896 
L 3428.897727 342.266475 
L 3432.938503 402.439069 
L 3434.95889 411.13158 
L 3436.979278 412.149929 
L 3438.999666 416.853975 
L 3441.020053 417.274347 
L 3443.040441 409.237964 
L 3445.060829 369.657535 
L 3447.081217 393.195866 
L 3449.101604 390.945533 
L 3451.121992 396.964862 
L 3453.14238 400.884225 
L 3455.162767 397.981349 
L 3457.183155 427.698238 
L 3459.203543 438.769106 
L 3461.22393 397.237488 
L 3463.244318 364.906558 
L 3465.264706 361.358225 
L 3467.285094 358.35336 
L 3469.305481 367.632555 
L 3471.325869 347.16899 
L 3473.346257 314.626824 
L 3477.387032 397.084056 
L 3479.40742 393.775525 
L 3481.427807 385.320241 
L 3483.448195 379.890693 
L 3485.468583 380.93422 
L 3487.488971 389.19129 
L 3489.509358 383.435471 
L 3491.529746 388.340241 
L 3497.590909 418.416094 
L 3499.611297 427.925254 
L 3501.631684 440.839822 
L 3503.652072 455.208701 
L 3505.67246 435.716672 
L 3507.692848 429.951623 
L 3509.713235 444.966535 
L 3511.733623 417.200786 
L 3513.754011 384.025131 
L 3515.774398 372.552966 
L 3517.794786 330.964435 
L 3519.815174 342.476469 
L 3521.835561 367.390447 
L 3523.855949 380.475801 
L 3527.896725 420.947301 
L 3529.917112 439.025023 
L 3531.9375 498.881578 
L 3533.957888 515.569166 
L 3535.978275 531.107971 
L 3537.998663 528.303884 
L 3540.019051 562.885746 
L 3542.039439 580.423783 
L 3544.059826 591.296068 
L 3548.100602 576.800855 
L 3550.120989 571.624805 
L 3552.141377 568.555712 
L 3554.161765 544.357635 
L 3558.20254 510.497041 
L 3560.222928 490.915682 
L 3562.243316 473.064908 
L 3564.263703 446.717939 
L 3566.284091 444.035302 
L 3568.304479 450.954988 
L 3570.324866 435.985163 
L 3572.345254 411.703372 
L 3582.447193 437.282664 
L 3584.46758 453.836584 
L 3586.487968 461.276119 
L 3590.528743 409.561997 
L 3592.549131 397.671823 
L 3594.569519 345.536263 
L 3596.589906 368.577489 
L 3598.610294 361.670851 
L 3600.630682 439.944696 
L 3602.65107 523.412479 
L 3604.671457 592.673855 
L 3647.099599 504.268999 
L 3649.119987 516.529094 
L 3653.160762 452.879774 
L 3659.221925 490.93526 
L 3661.242313 518.614746 
L 3663.262701 536.425809 
L 3665.283088 572.74784 
L 3667.303476 593.70496 
L 3669.323864 541.657703 
L 3671.344251 516.228402 
L 3673.364639 536.37119 
L 3675.385027 528.666393 
L 3677.405414 548.799106 
L 3679.425802 582.072658 
L 3681.44619 557.945266 
L 3683.466578 553.64171 
L 3685.486965 536.148863 
L 3687.507353 525.685947 
L 3689.527741 513.721148 
L 3691.548128 470.856466 
L 3693.568516 436.024283 
L 3695.588904 489.185325 
L 3697.609291 472.247702 
L 3703.670455 484.733727 
L 3705.690842 520.813078 
L 3707.71123 547.01948 
L 3711.752005 472.502579 
L 3713.772393 467.396416 
L 3715.792781 416.566016 
L 3717.813168 389.898742 
L 3719.833556 369.248563 
L 3721.853944 368.427855 
L 3723.874332 393.640379 
L 3725.894719 380.026762 
L 3727.915107 371.959562 
L 3729.935495 370.342758 
L 3733.97627 346.335741 
L 3735.996658 311.098876 
L 3738.017045 323.515732 
L 3740.037433 361.145985 
L 3744.078209 419.710854 
L 3746.098596 430.258452 
L 3748.118984 451.280157 
L 3750.139372 428.830564 
L 3752.159759 402.791533 
L 3756.200535 360.093028 
L 3758.220922 314.87655 
L 3760.24131 286.109609 
L 3762.261698 305.125342 
L 3764.282086 303.360599 
L 3766.302473 324.528954 
L 3768.322861 340.612958 
L 3772.363636 378.45694 
L 3774.384024 289.463986 
L 3776.404412 228.926603 
L 3778.424799 229.339186 
L 3780.445187 206.803953 
L 3786.50635 167.4 
L 3788.526738 205.350657 
L 3790.547126 261.570661 
L 3792.567513 266.159257 
L 3794.587901 302.66507 
L 3796.608289 332.434938 
L 3798.628676 379.508676 
L 3952.178142 344.101109 
L 3954.198529 345.616061 
L 3956.218917 386.188829 
L 3958.239305 360.167299 
L 3960.259693 345.80987 
L 3962.28008 343.342772 
L 3970.361631 315.701367 
L 3972.382019 352.493593 
L 3978.443182 372.394739 
L 3980.46357 384.091218 
L 3982.483957 390.454175 
L 3984.504345 444.607193 
L 3986.524733 443.597996 
L 3988.54512 480.567352 
L 3990.565508 493.800592 
L 3996.626671 518.822391 
L 4002.687834 358.821471 
L 4004.708222 348.613361 
L 4006.72861 351.396886 
L 4008.748997 341.633487 
L 4010.769385 309.3041 
L 4012.789773 394.930215 
L 4014.81016 413.720143 
L 4016.830548 419.833818 
L 4018.850936 440.971894 
L 4020.871324 420.1182 
L 4028.952874 401.176193 
L 4030.973262 412.707161 
L 4032.99365 425.00733 
L 4035.014037 415.061429 
L 4037.034425 447.607705 
L 4039.054813 469.49556 
L 4041.075201 455.099053 
L 4043.095588 509.700542 
L 4045.115976 499.40057 
L 4047.136364 496.845577 
L 4047.136364 496.845577 
" clip-path="url(#pde6e0e39ba)" style="fill: none; stroke: #00d7ff; stroke-width: 2.5; stroke-linecap: square"/>
   </g>
   <g id="patch_3">
    <path d="M 585 961.2 
L 585 129.6 
" style="fill: none; stroke: #000000; stroke-width: 0.8; stroke-linejoin: miter; stroke-linecap: square"/>
   </g>
   <g id="patch_4">
    <path d="M 4212 961.2 
L 4212 129.6 
" style="fill: none; stroke: #000000; stroke-width: 0.8; stroke-linejoin: miter; stroke-linecap: square"/>
   </g>
   <g id="patch_5">
    <path d="M 585 961.2 
L 4212 961.2 
" style="fill: none; stroke: #000000; stroke-width: 0.8; stroke-linejoin: miter; stroke-linecap: square"/>
   </g>
   <g id="patch_6">
    <path d="M 585 129.6 
L 4212 129.6 
" style="fill: none; stroke: #000000; stroke-width: 0.8; stroke-linejoin: miter; stroke-linecap: square"/>
   </g>
   <g id="text_17">
    <!-- KOE2 -->
    <g transform="translate(2358.658594 123.360937) scale(0.3 -0.3)">
     <defs>
      <path id="DejaVuSans-4b" d="M 628 4666 
L 1259 4666 
L 1259 2694 
L 3353 4666 
L 4166 4666 
L 1850 2491 
L 4331 0 
L 3500 0 
L 1259 2247 
L 1259 0 
L 628 0 
L 628 4666 
z
" transform="scale(0.015625)"/>
      <path id="DejaVuSans-4f" d="M 2522 4238 
Q 1834 4238 1429 3725 
Q 1025 3213 1025 2328 
Q 1025 1447 1429 934 
Q 1834 422 2522 422 
Q 3209 422 3611 934 
Q 4013 1447 4013 2328 
Q 4013 3213 3611 3725 
Q 3209 4238 2522 4238 
z
M 2522 4750 
Q 3503 4750 4090 4092 
Q 4678 3434 4678 2328 
Q 4678 1225 4090 567 
Q 3503 -91 2522 -91 
Q 1538 -91 948 565 
Q 359 1222 359 2328 
Q 359 3434 948 4092 
Q 1538 4750 2522 4750 
z
" transform="scale(0.015625)"/>
      <path id="DejaVuSans-45" d="M 628 4666 
L 3578 4666 
L 3578 4134 
L 1259 4134 
L 1259 2753 
L 3481 2753 
L 3481 2222 
L 1259 2222 
L 1259 531 
L 3634 531 
L 3634 0 
L 628 0 
L 628 4666 
z
" transform="scale(0.015625)"/>
     </defs>
     <use xlink:href="#DejaVuSans-4b"/>
     <use xlink:href="#DejaVuSans-4f" x="60.076172"/>
     <use xlink:href="#DejaVuSans-45" x="138.787109"/>
     <use xlink:href="#DejaVuSans-32" x="201.970703"/>
    </g>
   </g>
   <g id="legend_1">
    <g id="patch_7">
     <path d="M 4148.9375 152.278125 
L 4205 152.278125 
Q 4207 152.278125 4207 150.278125 
L 4207 136.6 
Q 4207 134.6 4205 134.6 
L 4148.9375 134.6 
Q 4146.9375 134.6 4146.9375 136.6 
L 4146.9375 150.278125 
Q 4146.9375 152.278125 4148.9375 152.278125 
z
" style="fill: #ffffff; opacity: 0.8; stroke: #cccccc; stroke-linejoin: miter"/>
    </g>
    <g id="line2d_16">
     <path d="M 4150.9375 142.698438 
L 4160.9375 142.698438 
L 4170.9375 142.698438 
" style="fill: none; stroke: #00d7ff; stroke-width: 2.5; stroke-linecap: square"/>
    </g>
    <g id="text_18">
     <!-- koe2 -->
     <g transform="translate(4178.9375 146.198438) scale(0.1 -0.1)">
      <defs>
       <path id="DejaVuSans-6b" d="M 581 4863 
L 1159 4863 
L 1159 1991 
L 2875 3500 
L 3609 3500 
L 1753 1863 
L 3688 0 
L 2938 0 
L 1159 1709 
L 1159 0 
L 581 0 
L 581 4863 
z
" transform="scale(0.015625)"/>
      </defs>
      <use xlink:href="#DejaVuSans-6b"/>
      <use xlink:href="#DejaVuSans-6f" x="54.285156"/>
      <use xlink:href="#DejaVuSans-65" x="115.466797"/>
      <use xlink:href="#DejaVuSans-32" x="176.990234"/>
     </g>
    </g>
   </g>
  </g>
 </g>
 <defs>
  <clipPath id="pde6e0e39ba">
   <rect x="585" y="129.6" width="3627" height="831.6"/>
  </clipPath>
 </defs>
</svg>
