<?xml version="1.0" encoding="utf-8" standalone="no"?>
<!DOCTYPE svg PUBLIC "-//W3C//DTD SVG 1.1//EN"
  "http://www.w3.org/Graphics/SVG/1.1/DTD/svg11.dtd">
<svg xmlns:xlink="http://www.w3.org/1999/xlink" width="4680pt" height="1080pt" viewBox="0 0 4680 1080" xmlns="http://www.w3.org/2000/svg" version="1.1">
 <metadata>
  <rdf:RDF xmlns:dc="http://purl.org/dc/elements/1.1/" xmlns:cc="http://creativecommons.org/ns#" xmlns:rdf="http://www.w3.org/1999/02/22-rdf-syntax-ns#">
   <cc:Work>
    <dc:type rdf:resource="http://purl.org/dc/dcmitype/StillImage"/>
    <dc:date>2024-03-25T15:24:59.772417</dc:date>
    <dc:format>image/svg+xml</dc:format>
    <dc:creator>
     <cc:Agent>
      <dc:title>Matplotlib v3.7.2, https://matplotlib.org/</dc:title>
     </cc:Agent>
    </dc:creator>
   </cc:Work>
  </rdf:RDF>
 </metadata>
 <defs>
  <style type="text/css">*{stroke-linejoin: round; stroke-linecap: butt}</style>
 </defs>
 <g id="figure_1">
  <g id="patch_1">
   <path d="M 0 1080 
L 4680 1080 
L 4680 0 
L 0 0 
z
" style="fill: #ffffff"/>
  </g>
  <g id="axes_1">
   <g id="patch_2">
    <path d="M 585 961.2 
L 4212 961.2 
L 4212 129.6 
L 585 129.6 
z
" style="fill: #ffffff"/>
   </g>
   <g id="matplotlib.axis_1">
    <g id="xtick_1">
     <g id="line2d_1">
      <defs>
       <path id="me7ff9ba4d1" d="M 0 0 
L 0 3.5 
" style="stroke: #000000; stroke-width: 0.8"/>
      </defs>
      <g>
       <use xlink:href="#me7ff9ba4d1" x="941.800468" y="961.2" style="stroke: #000000; stroke-width: 0.8"/>
      </g>
     </g>
     <g id="text_1">
      <!-- 2012-07 -->
      <g transform="translate(900.017655 983.396875) scale(0.2 -0.2)">
       <defs>
        <path id="DejaVuSans-32" d="M 1228 531 
L 3431 531 
L 3431 0 
L 469 0 
L 469 531 
Q 828 903 1448 1529 
Q 2069 2156 2228 2338 
Q 2531 2678 2651 2914 
Q 2772 3150 2772 3378 
Q 2772 3750 2511 3984 
Q 2250 4219 1831 4219 
Q 1534 4219 1204 4116 
Q 875 4013 500 3803 
L 500 4441 
Q 881 4594 1212 4672 
Q 1544 4750 1819 4750 
Q 2544 4750 2975 4387 
Q 3406 4025 3406 3419 
Q 3406 3131 3298 2873 
Q 3191 2616 2906 2266 
Q 2828 2175 2409 1742 
Q 1991 1309 1228 531 
z
" transform="scale(0.015625)"/>
        <path id="DejaVuSans-30" d="M 2034 4250 
Q 1547 4250 1301 3770 
Q 1056 3291 1056 2328 
Q 1056 1369 1301 889 
Q 1547 409 2034 409 
Q 2525 409 2770 889 
Q 3016 1369 3016 2328 
Q 3016 3291 2770 3770 
Q 2525 4250 2034 4250 
z
M 2034 4750 
Q 2819 4750 3233 4129 
Q 3647 3509 3647 2328 
Q 3647 1150 3233 529 
Q 2819 -91 2034 -91 
Q 1250 -91 836 529 
Q 422 1150 422 2328 
Q 422 3509 836 4129 
Q 1250 4750 2034 4750 
z
" transform="scale(0.015625)"/>
        <path id="DejaVuSans-31" d="M 794 531 
L 1825 531 
L 1825 4091 
L 703 3866 
L 703 4441 
L 1819 4666 
L 2450 4666 
L 2450 531 
L 3481 531 
L 3481 0 
L 794 0 
L 794 531 
z
" transform="scale(0.015625)"/>
        <path id="DejaVuSans-2d" d="M 313 2009 
L 1997 2009 
L 1997 1497 
L 313 1497 
L 313 2009 
z
" transform="scale(0.015625)"/>
        <path id="DejaVuSans-37" d="M 525 4666 
L 3525 4666 
L 3525 4397 
L 1831 0 
L 1172 0 
L 2766 4134 
L 525 4134 
L 525 4666 
z
" transform="scale(0.015625)"/>
       </defs>
       <use xlink:href="#DejaVuSans-32"/>
       <use xlink:href="#DejaVuSans-30" x="63.623047"/>
       <use xlink:href="#DejaVuSans-31" x="127.246094"/>
       <use xlink:href="#DejaVuSans-32" x="190.869141"/>
       <use xlink:href="#DejaVuSans-2d" x="254.492188"/>
       <use xlink:href="#DejaVuSans-30" x="290.576172"/>
       <use xlink:href="#DejaVuSans-37" x="354.199219"/>
      </g>
     </g>
    </g>
    <g id="xtick_2">
     <g id="line2d_2">
      <g>
       <use xlink:href="#me7ff9ba4d1" x="1313.551805" y="961.2" style="stroke: #000000; stroke-width: 0.8"/>
      </g>
     </g>
     <g id="text_2">
      <!-- 2013-01 -->
      <g transform="translate(1271.768992 983.396875) scale(0.2 -0.2)">
       <defs>
        <path id="DejaVuSans-33" d="M 2597 2516 
Q 3050 2419 3304 2112 
Q 3559 1806 3559 1356 
Q 3559 666 3084 287 
Q 2609 -91 1734 -91 
Q 1441 -91 1130 -33 
Q 819 25 488 141 
L 488 750 
Q 750 597 1062 519 
Q 1375 441 1716 441 
Q 2309 441 2620 675 
Q 2931 909 2931 1356 
Q 2931 1769 2642 2001 
Q 2353 2234 1838 2234 
L 1294 2234 
L 1294 2753 
L 1863 2753 
Q 2328 2753 2575 2939 
Q 2822 3125 2822 3475 
Q 2822 3834 2567 4026 
Q 2313 4219 1838 4219 
Q 1578 4219 1281 4162 
Q 984 4106 628 3988 
L 628 4550 
Q 988 4650 1302 4700 
Q 1616 4750 1894 4750 
Q 2613 4750 3031 4423 
Q 3450 4097 3450 3541 
Q 3450 3153 3228 2886 
Q 3006 2619 2597 2516 
z
" transform="scale(0.015625)"/>
       </defs>
       <use xlink:href="#DejaVuSans-32"/>
       <use xlink:href="#DejaVuSans-30" x="63.623047"/>
       <use xlink:href="#DejaVuSans-31" x="127.246094"/>
       <use xlink:href="#DejaVuSans-33" x="190.869141"/>
       <use xlink:href="#DejaVuSans-2d" x="254.492188"/>
       <use xlink:href="#DejaVuSans-30" x="290.576172"/>
       <use xlink:href="#DejaVuSans-31" x="354.199219"/>
      </g>
     </g>
    </g>
    <g id="xtick_3">
     <g id="line2d_3">
      <g>
       <use xlink:href="#me7ff9ba4d1" x="1679.241979" y="961.2" style="stroke: #000000; stroke-width: 0.8"/>
      </g>
     </g>
     <g id="text_3">
      <!-- 2013-07 -->
      <g transform="translate(1637.459166 983.396875) scale(0.2 -0.2)">
       <use xlink:href="#DejaVuSans-32"/>
       <use xlink:href="#DejaVuSans-30" x="63.623047"/>
       <use xlink:href="#DejaVuSans-31" x="127.246094"/>
       <use xlink:href="#DejaVuSans-33" x="190.869141"/>
       <use xlink:href="#DejaVuSans-2d" x="254.492188"/>
       <use xlink:href="#DejaVuSans-30" x="290.576172"/>
       <use xlink:href="#DejaVuSans-37" x="354.199219"/>
      </g>
     </g>
    </g>
    <g id="xtick_4">
     <g id="line2d_4">
      <g>
       <use xlink:href="#me7ff9ba4d1" x="2050.993316" y="961.2" style="stroke: #000000; stroke-width: 0.8"/>
      </g>
     </g>
     <g id="text_4">
      <!-- 2014-01 -->
      <g transform="translate(2009.210503 983.396875) scale(0.2 -0.2)">
       <defs>
        <path id="DejaVuSans-34" d="M 2419 4116 
L 825 1625 
L 2419 1625 
L 2419 4116 
z
M 2253 4666 
L 3047 4666 
L 3047 1625 
L 3713 1625 
L 3713 1100 
L 3047 1100 
L 3047 0 
L 2419 0 
L 2419 1100 
L 313 1100 
L 313 1709 
L 2253 4666 
z
" transform="scale(0.015625)"/>
       </defs>
       <use xlink:href="#DejaVuSans-32"/>
       <use xlink:href="#DejaVuSans-30" x="63.623047"/>
       <use xlink:href="#DejaVuSans-31" x="127.246094"/>
       <use xlink:href="#DejaVuSans-34" x="190.869141"/>
       <use xlink:href="#DejaVuSans-2d" x="254.492188"/>
       <use xlink:href="#DejaVuSans-30" x="290.576172"/>
       <use xlink:href="#DejaVuSans-31" x="354.199219"/>
      </g>
     </g>
    </g>
    <g id="xtick_5">
     <g id="line2d_5">
      <g>
       <use xlink:href="#me7ff9ba4d1" x="2416.683489" y="961.2" style="stroke: #000000; stroke-width: 0.8"/>
      </g>
     </g>
     <g id="text_5">
      <!-- 2014-07 -->
      <g transform="translate(2374.900677 983.396875) scale(0.2 -0.2)">
       <use xlink:href="#DejaVuSans-32"/>
       <use xlink:href="#DejaVuSans-30" x="63.623047"/>
       <use xlink:href="#DejaVuSans-31" x="127.246094"/>
       <use xlink:href="#DejaVuSans-34" x="190.869141"/>
       <use xlink:href="#DejaVuSans-2d" x="254.492188"/>
       <use xlink:href="#DejaVuSans-30" x="290.576172"/>
       <use xlink:href="#DejaVuSans-37" x="354.199219"/>
      </g>
     </g>
    </g>
    <g id="xtick_6">
     <g id="line2d_6">
      <g>
       <use xlink:href="#me7ff9ba4d1" x="2788.434826" y="961.2" style="stroke: #000000; stroke-width: 0.8"/>
      </g>
     </g>
     <g id="text_6">
      <!-- 2015-01 -->
      <g transform="translate(2746.652014 983.396875) scale(0.2 -0.2)">
       <defs>
        <path id="DejaVuSans-35" d="M 691 4666 
L 3169 4666 
L 3169 4134 
L 1269 4134 
L 1269 2991 
Q 1406 3038 1543 3061 
Q 1681 3084 1819 3084 
Q 2600 3084 3056 2656 
Q 3513 2228 3513 1497 
Q 3513 744 3044 326 
Q 2575 -91 1722 -91 
Q 1428 -91 1123 -41 
Q 819 9 494 109 
L 494 744 
Q 775 591 1075 516 
Q 1375 441 1709 441 
Q 2250 441 2565 725 
Q 2881 1009 2881 1497 
Q 2881 1984 2565 2268 
Q 2250 2553 1709 2553 
Q 1456 2553 1204 2497 
Q 953 2441 691 2322 
L 691 4666 
z
" transform="scale(0.015625)"/>
       </defs>
       <use xlink:href="#DejaVuSans-32"/>
       <use xlink:href="#DejaVuSans-30" x="63.623047"/>
       <use xlink:href="#DejaVuSans-31" x="127.246094"/>
       <use xlink:href="#DejaVuSans-35" x="190.869141"/>
       <use xlink:href="#DejaVuSans-2d" x="254.492188"/>
       <use xlink:href="#DejaVuSans-30" x="290.576172"/>
       <use xlink:href="#DejaVuSans-31" x="354.199219"/>
      </g>
     </g>
    </g>
    <g id="xtick_7">
     <g id="line2d_7">
      <g>
       <use xlink:href="#me7ff9ba4d1" x="3154.125" y="961.2" style="stroke: #000000; stroke-width: 0.8"/>
      </g>
     </g>
     <g id="text_7">
      <!-- 2015-07 -->
      <g transform="translate(3112.342188 983.396875) scale(0.2 -0.2)">
       <use xlink:href="#DejaVuSans-32"/>
       <use xlink:href="#DejaVuSans-30" x="63.623047"/>
       <use xlink:href="#DejaVuSans-31" x="127.246094"/>
       <use xlink:href="#DejaVuSans-35" x="190.869141"/>
       <use xlink:href="#DejaVuSans-2d" x="254.492188"/>
       <use xlink:href="#DejaVuSans-30" x="290.576172"/>
       <use xlink:href="#DejaVuSans-37" x="354.199219"/>
      </g>
     </g>
    </g>
    <g id="xtick_8">
     <g id="line2d_8">
      <g>
       <use xlink:href="#me7ff9ba4d1" x="3525.876337" y="961.2" style="stroke: #000000; stroke-width: 0.8"/>
      </g>
     </g>
     <g id="text_8">
      <!-- 2016-01 -->
      <g transform="translate(3484.093524 983.396875) scale(0.2 -0.2)">
       <defs>
        <path id="DejaVuSans-36" d="M 2113 2584 
Q 1688 2584 1439 2293 
Q 1191 2003 1191 1497 
Q 1191 994 1439 701 
Q 1688 409 2113 409 
Q 2538 409 2786 701 
Q 3034 994 3034 1497 
Q 3034 2003 2786 2293 
Q 2538 2584 2113 2584 
z
M 3366 4563 
L 3366 3988 
Q 3128 4100 2886 4159 
Q 2644 4219 2406 4219 
Q 1781 4219 1451 3797 
Q 1122 3375 1075 2522 
Q 1259 2794 1537 2939 
Q 1816 3084 2150 3084 
Q 2853 3084 3261 2657 
Q 3669 2231 3669 1497 
Q 3669 778 3244 343 
Q 2819 -91 2113 -91 
Q 1303 -91 875 529 
Q 447 1150 447 2328 
Q 447 3434 972 4092 
Q 1497 4750 2381 4750 
Q 2619 4750 2861 4703 
Q 3103 4656 3366 4563 
z
" transform="scale(0.015625)"/>
       </defs>
       <use xlink:href="#DejaVuSans-32"/>
       <use xlink:href="#DejaVuSans-30" x="63.623047"/>
       <use xlink:href="#DejaVuSans-31" x="127.246094"/>
       <use xlink:href="#DejaVuSans-36" x="190.869141"/>
       <use xlink:href="#DejaVuSans-2d" x="254.492188"/>
       <use xlink:href="#DejaVuSans-30" x="290.576172"/>
       <use xlink:href="#DejaVuSans-31" x="354.199219"/>
      </g>
     </g>
    </g>
    <g id="xtick_9">
     <g id="line2d_9">
      <g>
       <use xlink:href="#me7ff9ba4d1" x="3893.586898" y="961.2" style="stroke: #000000; stroke-width: 0.8"/>
      </g>
     </g>
     <g id="text_9">
      <!-- 2016-07 -->
      <g transform="translate(3851.804086 983.396875) scale(0.2 -0.2)">
       <use xlink:href="#DejaVuSans-32"/>
       <use xlink:href="#DejaVuSans-30" x="63.623047"/>
       <use xlink:href="#DejaVuSans-31" x="127.246094"/>
       <use xlink:href="#DejaVuSans-36" x="190.869141"/>
       <use xlink:href="#DejaVuSans-2d" x="254.492188"/>
       <use xlink:href="#DejaVuSans-30" x="290.576172"/>
       <use xlink:href="#DejaVuSans-37" x="354.199219"/>
      </g>
     </g>
    </g>
    <g id="text_10">
     <!-- Time -->
     <g transform="translate(2374.032813 1006.753125) scale(0.2 -0.2)">
      <defs>
       <path id="DejaVuSans-54" d="M -19 4666 
L 3928 4666 
L 3928 4134 
L 2272 4134 
L 2272 0 
L 1638 0 
L 1638 4134 
L -19 4134 
L -19 4666 
z
" transform="scale(0.015625)"/>
       <path id="DejaVuSans-69" d="M 603 3500 
L 1178 3500 
L 1178 0 
L 603 0 
L 603 3500 
z
M 603 4863 
L 1178 4863 
L 1178 4134 
L 603 4134 
L 603 4863 
z
" transform="scale(0.015625)"/>
       <path id="DejaVuSans-6d" d="M 3328 2828 
Q 3544 3216 3844 3400 
Q 4144 3584 4550 3584 
Q 5097 3584 5394 3201 
Q 5691 2819 5691 2113 
L 5691 0 
L 5113 0 
L 5113 2094 
Q 5113 2597 4934 2840 
Q 4756 3084 4391 3084 
Q 3944 3084 3684 2787 
Q 3425 2491 3425 1978 
L 3425 0 
L 2847 0 
L 2847 2094 
Q 2847 2600 2669 2842 
Q 2491 3084 2119 3084 
Q 1678 3084 1418 2786 
Q 1159 2488 1159 1978 
L 1159 0 
L 581 0 
L 581 3500 
L 1159 3500 
L 1159 2956 
Q 1356 3278 1631 3431 
Q 1906 3584 2284 3584 
Q 2666 3584 2933 3390 
Q 3200 3197 3328 2828 
z
" transform="scale(0.015625)"/>
       <path id="DejaVuSans-65" d="M 3597 1894 
L 3597 1613 
L 953 1613 
Q 991 1019 1311 708 
Q 1631 397 2203 397 
Q 2534 397 2845 478 
Q 3156 559 3463 722 
L 3463 178 
Q 3153 47 2828 -22 
Q 2503 -91 2169 -91 
Q 1331 -91 842 396 
Q 353 884 353 1716 
Q 353 2575 817 3079 
Q 1281 3584 2069 3584 
Q 2775 3584 3186 3129 
Q 3597 2675 3597 1894 
z
M 3022 2063 
Q 3016 2534 2758 2815 
Q 2500 3097 2075 3097 
Q 1594 3097 1305 2825 
Q 1016 2553 972 2059 
L 3022 2063 
z
" transform="scale(0.015625)"/>
      </defs>
      <use xlink:href="#DejaVuSans-54"/>
      <use xlink:href="#DejaVuSans-69" x="57.958984"/>
      <use xlink:href="#DejaVuSans-6d" x="85.742188"/>
      <use xlink:href="#DejaVuSans-65" x="183.154297"/>
     </g>
    </g>
   </g>
   <g id="matplotlib.axis_2">
    <g id="ytick_1">
     <g id="line2d_10">
      <defs>
       <path id="md496e172a6" d="M 0 0 
L -3.5 0 
" style="stroke: #000000; stroke-width: 0.8"/>
      </defs>
      <g>
       <use xlink:href="#md496e172a6" x="585" y="926.374673" style="stroke: #000000; stroke-width: 0.8"/>
      </g>
     </g>
     <g id="text_11">
      <!-- −0.002 -->
      <g transform="translate(503.984375 933.973111) scale(0.2 -0.2)">
       <defs>
        <path id="DejaVuSans-2212" d="M 678 2272 
L 4684 2272 
L 4684 1741 
L 678 1741 
L 678 2272 
z
" transform="scale(0.015625)"/>
        <path id="DejaVuSans-2e" d="M 684 794 
L 1344 794 
L 1344 0 
L 684 0 
L 684 794 
z
" transform="scale(0.015625)"/>
       </defs>
       <use xlink:href="#DejaVuSans-2212"/>
       <use xlink:href="#DejaVuSans-30" x="83.789062"/>
       <use xlink:href="#DejaVuSans-2e" x="147.412109"/>
       <use xlink:href="#DejaVuSans-30" x="179.199219"/>
       <use xlink:href="#DejaVuSans-30" x="242.822266"/>
       <use xlink:href="#DejaVuSans-32" x="306.445312"/>
      </g>
     </g>
    </g>
    <g id="ytick_2">
     <g id="line2d_11">
      <g>
       <use xlink:href="#md496e172a6" x="585" y="821.900494" style="stroke: #000000; stroke-width: 0.8"/>
      </g>
     </g>
     <g id="text_12">
      <!-- 0.000 -->
      <g transform="translate(520.74375 829.498931) scale(0.2 -0.2)">
       <use xlink:href="#DejaVuSans-30"/>
       <use xlink:href="#DejaVuSans-2e" x="63.623047"/>
       <use xlink:href="#DejaVuSans-30" x="95.410156"/>
       <use xlink:href="#DejaVuSans-30" x="159.033203"/>
       <use xlink:href="#DejaVuSans-30" x="222.65625"/>
      </g>
     </g>
    </g>
    <g id="ytick_3">
     <g id="line2d_12">
      <g>
       <use xlink:href="#md496e172a6" x="585" y="717.426315" style="stroke: #000000; stroke-width: 0.8"/>
      </g>
     </g>
     <g id="text_13">
      <!-- 0.002 -->
      <g transform="translate(520.74375 725.024752) scale(0.2 -0.2)">
       <use xlink:href="#DejaVuSans-30"/>
       <use xlink:href="#DejaVuSans-2e" x="63.623047"/>
       <use xlink:href="#DejaVuSans-30" x="95.410156"/>
       <use xlink:href="#DejaVuSans-30" x="159.033203"/>
       <use xlink:href="#DejaVuSans-32" x="222.65625"/>
      </g>
     </g>
    </g>
    <g id="ytick_4">
     <g id="line2d_13">
      <g>
       <use xlink:href="#md496e172a6" x="585" y="612.952136" style="stroke: #000000; stroke-width: 0.8"/>
      </g>
     </g>
     <g id="text_14">
      <!-- 0.004 -->
      <g transform="translate(520.74375 620.550573) scale(0.2 -0.2)">
       <use xlink:href="#DejaVuSans-30"/>
       <use xlink:href="#DejaVuSans-2e" x="63.623047"/>
       <use xlink:href="#DejaVuSans-30" x="95.410156"/>
       <use xlink:href="#DejaVuSans-30" x="159.033203"/>
       <use xlink:href="#DejaVuSans-34" x="222.65625"/>
      </g>
     </g>
    </g>
    <g id="ytick_5">
     <g id="line2d_14">
      <g>
       <use xlink:href="#md496e172a6" x="585" y="508.477957" style="stroke: #000000; stroke-width: 0.8"/>
      </g>
     </g>
     <g id="text_15">
      <!-- 0.006 -->
      <g transform="translate(520.74375 516.076394) scale(0.2 -0.2)">
       <use xlink:href="#DejaVuSans-30"/>
       <use xlink:href="#DejaVuSans-2e" x="63.623047"/>
       <use xlink:href="#DejaVuSans-30" x="95.410156"/>
       <use xlink:href="#DejaVuSans-30" x="159.033203"/>
       <use xlink:href="#DejaVuSans-36" x="222.65625"/>
      </g>
     </g>
    </g>
    <g id="ytick_6">
     <g id="line2d_15">
      <g>
       <use xlink:href="#md496e172a6" x="585" y="404.003778" style="stroke: #000000; stroke-width: 0.8"/>
      </g>
     </g>
     <g id="text_16">
      <!-- 0.008 -->
      <g transform="translate(520.74375 411.602215) scale(0.2 -0.2)">
       <defs>
        <path id="DejaVuSans-38" d="M 2034 2216 
Q 1584 2216 1326 1975 
Q 1069 1734 1069 1313 
Q 1069 891 1326 650 
Q 1584 409 2034 409 
Q 2484 409 2743 651 
Q 3003 894 3003 1313 
Q 3003 1734 2745 1975 
Q 2488 2216 2034 2216 
z
M 1403 2484 
Q 997 2584 770 2862 
Q 544 3141 544 3541 
Q 544 4100 942 4425 
Q 1341 4750 2034 4750 
Q 2731 4750 3128 4425 
Q 3525 4100 3525 3541 
Q 3525 3141 3298 2862 
Q 3072 2584 2669 2484 
Q 3125 2378 3379 2068 
Q 3634 1759 3634 1313 
Q 3634 634 3220 271 
Q 2806 -91 2034 -91 
Q 1263 -91 848 271 
Q 434 634 434 1313 
Q 434 1759 690 2068 
Q 947 2378 1403 2484 
z
M 1172 3481 
Q 1172 3119 1398 2916 
Q 1625 2713 2034 2713 
Q 2441 2713 2670 2916 
Q 2900 3119 2900 3481 
Q 2900 3844 2670 4047 
Q 2441 4250 2034 4250 
Q 1625 4250 1398 4047 
Q 1172 3844 1172 3481 
z
" transform="scale(0.015625)"/>
       </defs>
       <use xlink:href="#DejaVuSans-30"/>
       <use xlink:href="#DejaVuSans-2e" x="63.623047"/>
       <use xlink:href="#DejaVuSans-30" x="95.410156"/>
       <use xlink:href="#DejaVuSans-30" x="159.033203"/>
       <use xlink:href="#DejaVuSans-38" x="222.65625"/>
      </g>
     </g>
    </g>
    <g id="ytick_7">
     <g id="line2d_16">
      <g>
       <use xlink:href="#md496e172a6" x="585" y="299.529599" style="stroke: #000000; stroke-width: 0.8"/>
      </g>
     </g>
     <g id="text_17">
      <!-- 0.010 -->
      <g transform="translate(520.74375 307.128036) scale(0.2 -0.2)">
       <use xlink:href="#DejaVuSans-30"/>
       <use xlink:href="#DejaVuSans-2e" x="63.623047"/>
       <use xlink:href="#DejaVuSans-30" x="95.410156"/>
       <use xlink:href="#DejaVuSans-31" x="159.033203"/>
       <use xlink:href="#DejaVuSans-30" x="222.65625"/>
      </g>
     </g>
    </g>
    <g id="ytick_8">
     <g id="line2d_17">
      <g>
       <use xlink:href="#md496e172a6" x="585" y="195.055419" style="stroke: #000000; stroke-width: 0.8"/>
      </g>
     </g>
     <g id="text_18">
      <!-- 0.012 -->
      <g transform="translate(520.74375 202.653857) scale(0.2 -0.2)">
       <use xlink:href="#DejaVuSans-30"/>
       <use xlink:href="#DejaVuSans-2e" x="63.623047"/>
       <use xlink:href="#DejaVuSans-30" x="95.410156"/>
       <use xlink:href="#DejaVuSans-31" x="159.033203"/>
       <use xlink:href="#DejaVuSans-32" x="222.65625"/>
      </g>
     </g>
    </g>
    <g id="text_19">
     <!-- North(m) -->
     <g transform="translate(495.825 590.9125) rotate(-90) scale(0.2 -0.2)">
      <defs>
       <path id="DejaVuSans-4e" d="M 628 4666 
L 1478 4666 
L 3547 763 
L 3547 4666 
L 4159 4666 
L 4159 0 
L 3309 0 
L 1241 3903 
L 1241 0 
L 628 0 
L 628 4666 
z
" transform="scale(0.015625)"/>
       <path id="DejaVuSans-6f" d="M 1959 3097 
Q 1497 3097 1228 2736 
Q 959 2375 959 1747 
Q 959 1119 1226 758 
Q 1494 397 1959 397 
Q 2419 397 2687 759 
Q 2956 1122 2956 1747 
Q 2956 2369 2687 2733 
Q 2419 3097 1959 3097 
z
M 1959 3584 
Q 2709 3584 3137 3096 
Q 3566 2609 3566 1747 
Q 3566 888 3137 398 
Q 2709 -91 1959 -91 
Q 1206 -91 779 398 
Q 353 888 353 1747 
Q 353 2609 779 3096 
Q 1206 3584 1959 3584 
z
" transform="scale(0.015625)"/>
       <path id="DejaVuSans-72" d="M 2631 2963 
Q 2534 3019 2420 3045 
Q 2306 3072 2169 3072 
Q 1681 3072 1420 2755 
Q 1159 2438 1159 1844 
L 1159 0 
L 581 0 
L 581 3500 
L 1159 3500 
L 1159 2956 
Q 1341 3275 1631 3429 
Q 1922 3584 2338 3584 
Q 2397 3584 2469 3576 
Q 2541 3569 2628 3553 
L 2631 2963 
z
" transform="scale(0.015625)"/>
       <path id="DejaVuSans-74" d="M 1172 4494 
L 1172 3500 
L 2356 3500 
L 2356 3053 
L 1172 3053 
L 1172 1153 
Q 1172 725 1289 603 
Q 1406 481 1766 481 
L 2356 481 
L 2356 0 
L 1766 0 
Q 1100 0 847 248 
Q 594 497 594 1153 
L 594 3053 
L 172 3053 
L 172 3500 
L 594 3500 
L 594 4494 
L 1172 4494 
z
" transform="scale(0.015625)"/>
       <path id="DejaVuSans-68" d="M 3513 2113 
L 3513 0 
L 2938 0 
L 2938 2094 
Q 2938 2591 2744 2837 
Q 2550 3084 2163 3084 
Q 1697 3084 1428 2787 
Q 1159 2491 1159 1978 
L 1159 0 
L 581 0 
L 581 4863 
L 1159 4863 
L 1159 2956 
Q 1366 3272 1645 3428 
Q 1925 3584 2291 3584 
Q 2894 3584 3203 3211 
Q 3513 2838 3513 2113 
z
" transform="scale(0.015625)"/>
       <path id="DejaVuSans-28" d="M 1984 4856 
Q 1566 4138 1362 3434 
Q 1159 2731 1159 2009 
Q 1159 1288 1364 580 
Q 1569 -128 1984 -844 
L 1484 -844 
Q 1016 -109 783 600 
Q 550 1309 550 2009 
Q 550 2706 781 3412 
Q 1013 4119 1484 4856 
L 1984 4856 
z
" transform="scale(0.015625)"/>
       <path id="DejaVuSans-29" d="M 513 4856 
L 1013 4856 
Q 1481 4119 1714 3412 
Q 1947 2706 1947 2009 
Q 1947 1309 1714 600 
Q 1481 -109 1013 -844 
L 513 -844 
Q 928 -128 1133 580 
Q 1338 1288 1338 2009 
Q 1338 2731 1133 3434 
Q 928 4138 513 4856 
z
" transform="scale(0.015625)"/>
      </defs>
      <use xlink:href="#DejaVuSans-4e"/>
      <use xlink:href="#DejaVuSans-6f" x="74.804688"/>
      <use xlink:href="#DejaVuSans-72" x="135.986328"/>
      <use xlink:href="#DejaVuSans-74" x="177.099609"/>
      <use xlink:href="#DejaVuSans-68" x="216.308594"/>
      <use xlink:href="#DejaVuSans-28" x="279.6875"/>
      <use xlink:href="#DejaVuSans-6d" x="318.701172"/>
      <use xlink:href="#DejaVuSans-29" x="416.113281"/>
     </g>
    </g>
   </g>
   <g id="line2d_18">
    <path d="M 749.863636 524.761828 
L 755.924799 413.038793 
L 761.985963 328.408115 
L 764.00635 331.418808 
L 766.026738 316.247572 
L 768.047126 309.683648 
L 770.067513 311.502929 
L 772.087901 303.806083 
L 774.108289 309.173952 
L 776.128676 298.633704 
L 790.27139 314.728687 
L 792.291778 320.356172 
L 794.312166 329.685364 
L 796.332553 347.730408 
L 798.352941 360.049065 
L 800.373329 366.454383 
L 802.393717 370.000352 
L 806.434492 401.168955 
L 808.45488 401.424043 
L 810.475267 392.119687 
L 812.495655 402.351274 
L 824.617981 452.116005 
L 830.679144 443.474326 
L 832.699532 435.707649 
L 834.71992 436.904385 
L 836.740307 443.151652 
L 844.821858 402.277739 
L 850.883021 389.680705 
L 852.903409 395.067068 
L 854.923797 404.388243 
L 856.944184 427.164832 
L 860.98496 443.670647 
L 867.046123 453.107495 
L 869.066511 470.973498 
L 873.107286 490.328627 
L 875.127674 498.382997 
L 877.148061 519.578518 
L 879.168449 519.284502 
L 881.188837 529.923235 
L 883.209225 526.695173 
L 885.229612 516.851229 
L 889.270388 505.934861 
L 891.290775 516.697122 
L 893.311163 521.197778 
L 895.331551 535.796913 
L 897.351939 529.469174 
L 899.372326 518.139411 
L 901.392714 516.429049 
L 903.413102 517.160305 
L 905.433489 510.494108 
L 907.453877 504.382827 
L 909.474265 490.482499 
L 913.51504 506.612117 
L 915.535428 519.765256 
L 917.555816 516.929772 
L 933.718917 542.728133 
L 937.759693 535.922056 
L 1044.840241 469.186557 
L 1048.881016 501.34223 
L 1212.53242 688.617459 
L 1214.552807 696.023799 
L 1216.573195 706.256199 
L 1226.675134 808.395376 
L 1230.715909 830.876482 
L 1232.736297 844.908214 
L 1234.756684 855.855134 
L 1236.777072 858.567566 
L 1238.79746 858.097363 
L 1240.817848 851.279099 
L 1242.838235 849.665479 
L 1252.940174 857.065289 
L 1333.755682 834.406452 
L 1335.77607 834.63154 
L 1337.796457 836.168814 
L 1341.837233 838.242338 
L 1372.143048 711.938771 
L 1374.163436 710.350175 
L 1376.183824 718.44299 
L 1378.204211 712.321419 
L 1382.244987 706.425046 
L 1384.265374 710.890804 
L 1386.285762 696.053528 
L 1388.30615 687.517189 
L 1390.326537 674.101591 
L 1392.346925 677.498986 
L 1394.367313 686.446124 
L 1398.408088 699.509437 
L 1400.428476 725.760813 
L 1404.469251 752.310811 
L 1406.489639 751.557453 
L 1412.550802 704.487809 
L 1414.57119 680.053646 
L 1416.591578 658.886296 
L 1418.611965 652.109679 
L 1420.632353 655.639369 
L 1422.652741 647.77074 
L 1424.673128 664.476023 
L 1426.693516 688.996229 
L 1428.713904 705.643463 
L 1432.754679 726.88815 
L 1434.775067 727.196757 
L 1436.795455 737.701949 
L 1442.856618 736.497295 
L 1444.877005 734.018318 
L 1446.897393 734.063322 
L 1454.978944 722.770698 
L 1456.999332 715.889728 
L 1459.019719 719.804442 
L 1461.040107 735.740645 
L 1463.060495 742.759103 
L 1465.080882 755.62938 
L 1471.142045 786.379141 
L 1473.162433 798.572019 
L 1475.182821 799.211105 
L 1479.223596 759.368493 
L 1481.243984 758.496465 
L 1483.264372 757.818698 
L 1485.284759 750.077528 
L 1487.305147 755.07396 
L 1489.325535 777.581319 
L 1491.345922 783.372161 
L 1493.36631 786.596222 
L 1495.386698 786.131613 
L 1497.407086 782.259404 
L 1501.447861 784.954785 
L 1669.14004 807.946801 
L 1673.180816 811.836388 
L 1677.221591 819.0769 
L 1681.262366 792.399089 
L 1683.282754 794.834657 
L 1687.323529 776.629313 
L 1689.343917 754.793938 
L 1691.364305 736.46232 
L 1693.384693 733.726307 
L 1695.40508 721.410271 
L 1697.425468 699.722811 
L 1699.445856 707.957366 
L 1701.466243 711.293381 
L 1703.486631 734.853716 
L 1705.507019 747.352608 
L 1707.527406 735.233091 
L 1709.547794 747.097092 
L 1711.568182 743.398498 
L 1715.608957 728.436602 
L 1717.629345 701.615864 
L 1719.649733 676.838562 
L 1721.67012 676.134676 
L 1723.690508 672.994595 
L 1725.710896 680.930051 
L 1727.731283 686.463649 
L 1729.751671 676.744051 
L 1731.772059 672.550682 
L 1737.833222 670.324539 
L 1739.85361 643.600267 
L 1741.873997 627.176358 
L 1743.894385 630.182125 
L 1745.914773 640.303645 
L 1747.93516 624.791751 
L 1749.955548 619.965497 
L 1751.975936 622.545559 
L 1753.996324 653.997206 
L 1756.016711 672.208705 
L 1758.037099 666.624227 
L 1768.139037 682.168851 
L 1780.261364 619.861011 
L 1782.281751 605.03149 
L 1784.302139 607.277438 
L 1786.322527 620.578362 
L 1788.342914 617.391717 
L 1790.363302 623.995266 
L 1792.38369 622.202533 
L 1794.404078 630.611034 
L 1796.424465 625.53575 
L 1806.526404 632.234809 
L 1808.546791 631.89212 
L 1810.567179 644.798463 
L 1812.587567 630.900726 
L 1814.607955 626.930954 
L 1816.628342 622.709231 
L 1818.64873 624.900324 
L 1822.689505 641.095383 
L 1824.709893 632.021717 
L 1826.730281 626.059439 
L 1828.750668 637.123692 
L 1830.771056 643.149844 
L 1832.791444 638.057306 
L 1834.811832 628.386628 
L 1836.832219 616.243145 
L 1838.852607 624.626875 
L 1954.014706 607.052834 
L 1956.035094 605.879822 
L 1958.055481 639.081957 
L 1960.075869 648.150582 
L 1962.096257 663.29233 
L 1966.137032 700.669522 
L 1968.15742 711.365351 
L 1980.279746 746.314038 
L 1988.361297 815.67462 
L 1990.381684 800.123324 
L 1992.402072 802.378429 
L 1994.42246 801.740952 
L 1996.442848 789.360061 
L 2000.483623 796.037095 
L 2073.21758 923.4 
L 2075.237968 914.47348 
L 2079.278743 877.71448 
L 2081.299131 886.84433 
L 2380.316511 645.991602 
L 2438.907754 666.552771 
L 2442.948529 661.221631 
L 2446.989305 644.291628 
L 2451.03008 641.374468 
L 2467.193182 666.372759 
L 3176.349265 238.355041 
L 3178.369652 247.445157 
L 3180.39004 246.495659 
L 3182.410428 228.284495 
L 3184.430816 242.916662 
L 3186.451203 247.655281 
L 3190.491979 253.343684 
L 3192.512366 271.388108 
L 3194.532754 264.495599 
L 3196.553142 274.382748 
L 3200.593917 280.9586 
L 3208.675468 244.416813 
L 3210.695856 242.824249 
L 3212.716243 215.895868 
L 3214.736631 207.368978 
L 3216.757019 203.052479 
L 3218.777406 191.44537 
L 3220.797794 171.249859 
L 3222.818182 178.316367 
L 3224.83857 186.86651 
L 3226.858957 202.605464 
L 3228.879345 221.217675 
L 3230.899733 220.880945 
L 3253.123997 169.734111 
L 3257.164773 167.4 
L 3259.18516 182.909607 
L 3261.205548 189.825057 
L 3265.246324 246.113934 
L 3267.266711 253.29286 
L 3269.287099 256.378185 
L 3277.36865 260.066086 
L 3287.470588 279.568984 
L 3289.490976 279.237457 
L 3291.511364 268.772379 
L 3293.531751 253.687573 
L 3295.552139 254.363723 
L 3297.572527 227.008586 
L 3299.592914 218.366455 
L 3301.613302 223.531913 
L 3303.63369 230.808952 
L 3305.654078 217.470766 
L 3309.694853 222.983191 
L 3315.756016 207.666587 
L 3317.776404 188.919453 
L 3319.796791 221.804505 
L 3321.817179 229.673045 
L 3323.837567 242.981168 
L 3325.857955 243.659864 
L 3327.878342 269.253409 
L 3329.89873 272.798692 
L 3331.919118 284.982842 
L 3340.000668 306.176191 
L 3342.021056 315.354932 
L 3344.041444 310.129926 
L 3346.061832 326.92967 
L 3348.082219 318.175538 
L 3350.102607 327.255103 
L 3352.122995 314.180981 
L 3356.16377 274.661611 
L 3358.184158 270.845741 
L 3360.204545 246.280861 
L 3362.224933 255.62885 
L 3364.245321 254.944737 
L 3366.265709 267.989439 
L 3368.286096 271.842926 
L 3370.306484 292.452047 
L 3372.326872 305.744159 
L 3374.347259 321.615919 
L 3376.367647 324.220467 
L 3400.612299 329.854692 
L 3402.632687 341.810707 
L 3404.653075 366.709232 
L 3406.673463 359.393253 
L 3410.714238 368.917427 
L 3412.734626 385.364499 
L 3414.755013 390.97302 
L 3416.775401 388.335656 
L 3418.795789 371.124031 
L 3420.816176 362.895503 
L 3422.836564 346.644977 
L 3424.856952 343.899602 
L 3426.87734 338.059166 
L 3428.897727 338.173871 
L 3432.938503 353.604497 
L 3436.979278 363.623394 
L 3438.999666 361.52411 
L 3443.040441 368.673334 
L 3445.060829 351.137345 
L 3447.081217 356.664732 
L 3449.101604 369.976399 
L 3451.121992 373.107024 
L 3453.14238 372.209863 
L 3455.162767 370.757284 
L 3457.183155 374.334895 
L 3459.203543 380.18322 
L 3461.22393 390.147334 
L 3463.244318 385.255748 
L 3465.264706 379.520765 
L 3467.285094 365.592277 
L 3469.305481 361.746445 
L 3471.325869 355.803084 
L 3473.346257 346.670731 
L 3475.366644 329.558704 
L 3477.387032 317.279078 
L 3479.40742 307.855811 
L 3481.427807 308.735009 
L 3483.448195 305.747629 
L 3485.468583 301.411116 
L 3487.488971 299.681188 
L 3489.509358 299.75164 
L 3491.529746 309.684584 
L 3493.550134 310.594164 
L 3497.590909 313.696654 
L 3499.611297 312.96193 
L 3501.631684 317.657775 
L 3503.652072 325.494284 
L 3505.67246 321.424602 
L 3507.692848 328.212752 
L 3509.713235 327.16829 
L 3511.733623 314.374666 
L 3513.754011 309.161401 
L 3515.774398 297.719399 
L 3517.794786 280.408845 
L 3519.815174 280.281103 
L 3521.835561 272.563067 
L 3523.855949 274.220061 
L 3527.896725 286.710296 
L 3529.917112 295.285444 
L 3531.9375 318.820818 
L 3533.957888 327.983194 
L 3535.978275 344.664569 
L 3537.998663 346.962236 
L 3540.019051 368.532074 
L 3542.039439 378.064601 
L 3544.059826 380.090766 
L 3548.100602 356.517413 
L 3550.120989 357.490395 
L 3552.141377 355.988427 
L 3554.161765 341.51971 
L 3558.20254 319.17143 
L 3560.222928 330.243311 
L 3562.243316 325.181437 
L 3564.263703 306.498364 
L 3566.284091 308.068525 
L 3568.304479 312.556725 
L 3570.324866 328.392156 
L 3572.345254 324.228981 
L 3582.447193 357.732614 
L 3584.46758 350.465916 
L 3586.487968 358.043493 
L 3590.528743 332.585896 
L 3592.549131 323.77682 
L 3594.569519 318.340581 
L 3596.589906 317.815766 
L 3598.610294 314.949021 
L 3600.630682 327.976672 
L 3602.65107 333.53821 
L 3604.671457 344.185482 
L 3649.119987 456.95608 
L 3653.160762 468.49034 
L 3659.221925 509.199673 
L 3661.242313 529.431018 
L 3663.262701 544.893417 
L 3665.283088 553.684587 
L 3667.303476 557.164354 
L 3669.323864 564.993667 
L 3671.344251 566.611563 
L 3673.364639 589.191627 
L 3675.385027 588.219772 
L 3677.405414 592.405873 
L 3679.425802 601.287864 
L 3681.44619 602.970486 
L 3683.466578 617.21723 
L 3685.486965 614.102879 
L 3687.507353 604.797712 
L 3689.527741 602.29844 
L 3691.548128 593.59623 
L 3693.568516 594.671087 
L 3695.588904 599.681242 
L 3697.609291 599.029883 
L 3703.670455 642.747316 
L 3705.690842 667.866289 
L 3707.71123 674.907861 
L 3711.752005 658.722648 
L 3713.772393 653.30988 
L 3715.792781 651.014991 
L 3717.813168 636.281634 
L 3719.833556 627.702908 
L 3721.853944 627.930875 
L 3723.874332 641.643758 
L 3725.894719 648.982249 
L 3727.915107 663.798203 
L 3729.935495 662.780704 
L 3733.97627 684.425313 
L 3738.017045 702.64264 
L 3740.037433 728.099082 
L 3744.078209 756.911789 
L 3746.098596 753.846085 
L 3748.118984 743.209573 
L 3750.139372 727.303008 
L 3752.159759 709.212583 
L 3756.200535 671.610994 
L 3758.220922 661.425486 
L 3760.24131 679.603622 
L 3762.261698 667.852421 
L 3764.282086 674.612254 
L 3766.302473 697.80989 
L 3768.322861 711.977795 
L 3772.363636 720.427882 
L 3774.384024 709.508153 
L 3776.404412 712.525866 
L 3778.424799 713.117514 
L 3780.445187 698.620016 
L 3786.50635 665.804126 
L 3788.526738 663.259467 
L 3790.547126 678.924025 
L 3792.567513 687.779668 
L 3794.587901 700.801337 
L 3796.608289 724.502056 
L 3798.628676 727.349416 
L 3952.178142 647.6105 
L 3954.198529 632.534036 
L 3956.218917 633.585751 
L 3958.239305 635.074889 
L 3960.259693 649.835725 
L 3962.28008 669.037052 
L 3970.361631 631.195674 
L 3972.382019 651.22299 
L 3978.443182 644.044629 
L 3980.46357 648.050801 
L 3982.483957 652.604805 
L 3984.504345 687.568082 
L 3986.524733 669.488346 
L 3988.54512 680.182608 
L 3990.565508 680.390386 
L 3996.626671 675.340055 
L 4002.687834 624.427535 
L 4004.708222 625.756735 
L 4006.72861 616.671032 
L 4008.748997 615.794986 
L 4010.769385 636.321472 
L 4012.789773 647.911111 
L 4014.81016 651.282232 
L 4016.830548 660.525828 
L 4018.850936 666.241796 
L 4020.871324 658.859948 
L 4028.952874 624.893701 
L 4030.973262 626.0973 
L 4032.99365 617.283096 
L 4035.014037 616.839667 
L 4037.034425 626.996431 
L 4039.054813 620.523668 
L 4041.075201 636.817178 
L 4043.095588 639.556236 
L 4045.115976 633.03532 
L 4047.136364 624.606159 
L 4047.136364 624.606159 
" clip-path="url(#p84b3078470)" style="fill: none; stroke: #023eff; stroke-width: 2.5; stroke-linecap: square"/>
   </g>
   <g id="patch_3">
    <path d="M 585 961.2 
L 585 129.6 
" style="fill: none; stroke: #000000; stroke-width: 0.8; stroke-linejoin: miter; stroke-linecap: square"/>
   </g>
   <g id="patch_4">
    <path d="M 4212 961.2 
L 4212 129.6 
" style="fill: none; stroke: #000000; stroke-width: 0.8; stroke-linejoin: miter; stroke-linecap: square"/>
   </g>
   <g id="patch_5">
    <path d="M 585 961.2 
L 4212 961.2 
" style="fill: none; stroke: #000000; stroke-width: 0.8; stroke-linejoin: miter; stroke-linecap: square"/>
   </g>
   <g id="patch_6">
    <path d="M 585 129.6 
L 4212 129.6 
" style="fill: none; stroke: #000000; stroke-width: 0.8; stroke-linejoin: miter; stroke-linecap: square"/>
   </g>
   <g id="text_20">
    <!-- MGRD -->
    <g transform="translate(2351.9625 123.360937) scale(0.3 -0.3)">
     <defs>
      <path id="DejaVuSans-4d" d="M 628 4666 
L 1569 4666 
L 2759 1491 
L 3956 4666 
L 4897 4666 
L 4897 0 
L 4281 0 
L 4281 4097 
L 3078 897 
L 2444 897 
L 1241 4097 
L 1241 0 
L 628 0 
L 628 4666 
z
" transform="scale(0.015625)"/>
      <path id="DejaVuSans-47" d="M 3809 666 
L 3809 1919 
L 2778 1919 
L 2778 2438 
L 4434 2438 
L 4434 434 
Q 4069 175 3628 42 
Q 3188 -91 2688 -91 
Q 1594 -91 976 548 
Q 359 1188 359 2328 
Q 359 3472 976 4111 
Q 1594 4750 2688 4750 
Q 3144 4750 3555 4637 
Q 3966 4525 4313 4306 
L 4313 3634 
Q 3963 3931 3569 4081 
Q 3175 4231 2741 4231 
Q 1884 4231 1454 3753 
Q 1025 3275 1025 2328 
Q 1025 1384 1454 906 
Q 1884 428 2741 428 
Q 3075 428 3337 486 
Q 3600 544 3809 666 
z
" transform="scale(0.015625)"/>
      <path id="DejaVuSans-52" d="M 2841 2188 
Q 3044 2119 3236 1894 
Q 3428 1669 3622 1275 
L 4263 0 
L 3584 0 
L 2988 1197 
Q 2756 1666 2539 1819 
Q 2322 1972 1947 1972 
L 1259 1972 
L 1259 0 
L 628 0 
L 628 4666 
L 2053 4666 
Q 2853 4666 3247 4331 
Q 3641 3997 3641 3322 
Q 3641 2881 3436 2590 
Q 3231 2300 2841 2188 
z
M 1259 4147 
L 1259 2491 
L 2053 2491 
Q 2509 2491 2742 2702 
Q 2975 2913 2975 3322 
Q 2975 3731 2742 3939 
Q 2509 4147 2053 4147 
L 1259 4147 
z
" transform="scale(0.015625)"/>
      <path id="DejaVuSans-44" d="M 1259 4147 
L 1259 519 
L 2022 519 
Q 2988 519 3436 956 
Q 3884 1394 3884 2338 
Q 3884 3275 3436 3711 
Q 2988 4147 2022 4147 
L 1259 4147 
z
M 628 4666 
L 1925 4666 
Q 3281 4666 3915 4102 
Q 4550 3538 4550 2338 
Q 4550 1131 3912 565 
Q 3275 0 1925 0 
L 628 0 
L 628 4666 
z
" transform="scale(0.015625)"/>
     </defs>
     <use xlink:href="#DejaVuSans-4d"/>
     <use xlink:href="#DejaVuSans-47" x="86.279297"/>
     <use xlink:href="#DejaVuSans-52" x="163.769531"/>
     <use xlink:href="#DejaVuSans-44" x="233.251953"/>
    </g>
   </g>
   <g id="legend_1">
    <g id="patch_7">
     <path d="M 4146.626562 152.278125 
L 4205 152.278125 
Q 4207 152.278125 4207 150.278125 
L 4207 136.6 
Q 4207 134.6 4205 134.6 
L 4146.626562 134.6 
Q 4144.626562 134.6 4144.626562 136.6 
L 4144.626562 150.278125 
Q 4144.626562 152.278125 4146.626562 152.278125 
z
" style="fill: #ffffff; opacity: 0.8; stroke: #cccccc; stroke-linejoin: miter"/>
    </g>
    <g id="line2d_19">
     <path d="M 4148.626562 142.698438 
L 4158.626562 142.698438 
L 4168.626562 142.698438 
" style="fill: none; stroke: #023eff; stroke-width: 2.5; stroke-linecap: square"/>
    </g>
    <g id="text_21">
     <!-- mgrd -->
     <g transform="translate(4176.626562 146.198438) scale(0.1 -0.1)">
      <defs>
       <path id="DejaVuSans-67" d="M 2906 1791 
Q 2906 2416 2648 2759 
Q 2391 3103 1925 3103 
Q 1463 3103 1205 2759 
Q 947 2416 947 1791 
Q 947 1169 1205 825 
Q 1463 481 1925 481 
Q 2391 481 2648 825 
Q 2906 1169 2906 1791 
z
M 3481 434 
Q 3481 -459 3084 -895 
Q 2688 -1331 1869 -1331 
Q 1566 -1331 1297 -1286 
Q 1028 -1241 775 -1147 
L 775 -588 
Q 1028 -725 1275 -790 
Q 1522 -856 1778 -856 
Q 2344 -856 2625 -561 
Q 2906 -266 2906 331 
L 2906 616 
Q 2728 306 2450 153 
Q 2172 0 1784 0 
Q 1141 0 747 490 
Q 353 981 353 1791 
Q 353 2603 747 3093 
Q 1141 3584 1784 3584 
Q 2172 3584 2450 3431 
Q 2728 3278 2906 2969 
L 2906 3500 
L 3481 3500 
L 3481 434 
z
" transform="scale(0.015625)"/>
       <path id="DejaVuSans-64" d="M 2906 2969 
L 2906 4863 
L 3481 4863 
L 3481 0 
L 2906 0 
L 2906 525 
Q 2725 213 2448 61 
Q 2172 -91 1784 -91 
Q 1150 -91 751 415 
Q 353 922 353 1747 
Q 353 2572 751 3078 
Q 1150 3584 1784 3584 
Q 2172 3584 2448 3432 
Q 2725 3281 2906 2969 
z
M 947 1747 
Q 947 1113 1208 752 
Q 1469 391 1925 391 
Q 2381 391 2643 752 
Q 2906 1113 2906 1747 
Q 2906 2381 2643 2742 
Q 2381 3103 1925 3103 
Q 1469 3103 1208 2742 
Q 947 2381 947 1747 
z
" transform="scale(0.015625)"/>
      </defs>
      <use xlink:href="#DejaVuSans-6d"/>
      <use xlink:href="#DejaVuSans-67" x="97.412109"/>
      <use xlink:href="#DejaVuSans-72" x="160.888672"/>
      <use xlink:href="#DejaVuSans-64" x="200.251953"/>
     </g>
    </g>
   </g>
  </g>
 </g>
 <defs>
  <clipPath id="p84b3078470">
   <rect x="585" y="129.6" width="3627" height="831.6"/>
  </clipPath>
 </defs>
</svg>
