<?xml version="1.0" encoding="utf-8" standalone="no"?>
<!DOCTYPE svg PUBLIC "-//W3C//DTD SVG 1.1//EN"
  "http://www.w3.org/Graphics/SVG/1.1/DTD/svg11.dtd">
<svg xmlns:xlink="http://www.w3.org/1999/xlink" width="4680pt" height="1080pt" viewBox="0 0 4680 1080" xmlns="http://www.w3.org/2000/svg" version="1.1">
 <metadata>
  <rdf:RDF xmlns:dc="http://purl.org/dc/elements/1.1/" xmlns:cc="http://creativecommons.org/ns#" xmlns:rdf="http://www.w3.org/1999/02/22-rdf-syntax-ns#">
   <cc:Work>
    <dc:type rdf:resource="http://purl.org/dc/dcmitype/StillImage"/>
    <dc:date>2024-03-25T15:24:57.682999</dc:date>
    <dc:format>image/svg+xml</dc:format>
    <dc:creator>
     <cc:Agent>
      <dc:title>Matplotlib v3.7.2, https://matplotlib.org/</dc:title>
     </cc:Agent>
    </dc:creator>
   </cc:Work>
  </rdf:RDF>
 </metadata>
 <defs>
  <style type="text/css">*{stroke-linejoin: round; stroke-linecap: butt}</style>
 </defs>
 <g id="figure_1">
  <g id="patch_1">
   <path d="M 0 1080 
L 4680 1080 
L 4680 0 
L 0 0 
z
" style="fill: #ffffff"/>
  </g>
  <g id="axes_1">
   <g id="patch_2">
    <path d="M 585 961.2 
L 4212 961.2 
L 4212 129.6 
L 585 129.6 
z
" style="fill: #ffffff"/>
   </g>
   <g id="matplotlib.axis_1">
    <g id="xtick_1">
     <g id="line2d_1">
      <defs>
       <path id="m4633bb919f" d="M 0 0 
L 0 3.5 
" style="stroke: #000000; stroke-width: 0.8"/>
      </defs>
      <g>
       <use xlink:href="#m4633bb919f" x="941.800468" y="961.2" style="stroke: #000000; stroke-width: 0.8"/>
      </g>
     </g>
     <g id="text_1">
      <!-- 2012-07 -->
      <g transform="translate(900.017655 983.396875) scale(0.2 -0.2)">
       <defs>
        <path id="DejaVuSans-32" d="M 1228 531 
L 3431 531 
L 3431 0 
L 469 0 
L 469 531 
Q 828 903 1448 1529 
Q 2069 2156 2228 2338 
Q 2531 2678 2651 2914 
Q 2772 3150 2772 3378 
Q 2772 3750 2511 3984 
Q 2250 4219 1831 4219 
Q 1534 4219 1204 4116 
Q 875 4013 500 3803 
L 500 4441 
Q 881 4594 1212 4672 
Q 1544 4750 1819 4750 
Q 2544 4750 2975 4387 
Q 3406 4025 3406 3419 
Q 3406 3131 3298 2873 
Q 3191 2616 2906 2266 
Q 2828 2175 2409 1742 
Q 1991 1309 1228 531 
z
" transform="scale(0.015625)"/>
        <path id="DejaVuSans-30" d="M 2034 4250 
Q 1547 4250 1301 3770 
Q 1056 3291 1056 2328 
Q 1056 1369 1301 889 
Q 1547 409 2034 409 
Q 2525 409 2770 889 
Q 3016 1369 3016 2328 
Q 3016 3291 2770 3770 
Q 2525 4250 2034 4250 
z
M 2034 4750 
Q 2819 4750 3233 4129 
Q 3647 3509 3647 2328 
Q 3647 1150 3233 529 
Q 2819 -91 2034 -91 
Q 1250 -91 836 529 
Q 422 1150 422 2328 
Q 422 3509 836 4129 
Q 1250 4750 2034 4750 
z
" transform="scale(0.015625)"/>
        <path id="DejaVuSans-31" d="M 794 531 
L 1825 531 
L 1825 4091 
L 703 3866 
L 703 4441 
L 1819 4666 
L 2450 4666 
L 2450 531 
L 3481 531 
L 3481 0 
L 794 0 
L 794 531 
z
" transform="scale(0.015625)"/>
        <path id="DejaVuSans-2d" d="M 313 2009 
L 1997 2009 
L 1997 1497 
L 313 1497 
L 313 2009 
z
" transform="scale(0.015625)"/>
        <path id="DejaVuSans-37" d="M 525 4666 
L 3525 4666 
L 3525 4397 
L 1831 0 
L 1172 0 
L 2766 4134 
L 525 4134 
L 525 4666 
z
" transform="scale(0.015625)"/>
       </defs>
       <use xlink:href="#DejaVuSans-32"/>
       <use xlink:href="#DejaVuSans-30" x="63.623047"/>
       <use xlink:href="#DejaVuSans-31" x="127.246094"/>
       <use xlink:href="#DejaVuSans-32" x="190.869141"/>
       <use xlink:href="#DejaVuSans-2d" x="254.492188"/>
       <use xlink:href="#DejaVuSans-30" x="290.576172"/>
       <use xlink:href="#DejaVuSans-37" x="354.199219"/>
      </g>
     </g>
    </g>
    <g id="xtick_2">
     <g id="line2d_2">
      <g>
       <use xlink:href="#m4633bb919f" x="1313.551805" y="961.2" style="stroke: #000000; stroke-width: 0.8"/>
      </g>
     </g>
     <g id="text_2">
      <!-- 2013-01 -->
      <g transform="translate(1271.768992 983.396875) scale(0.2 -0.2)">
       <defs>
        <path id="DejaVuSans-33" d="M 2597 2516 
Q 3050 2419 3304 2112 
Q 3559 1806 3559 1356 
Q 3559 666 3084 287 
Q 2609 -91 1734 -91 
Q 1441 -91 1130 -33 
Q 819 25 488 141 
L 488 750 
Q 750 597 1062 519 
Q 1375 441 1716 441 
Q 2309 441 2620 675 
Q 2931 909 2931 1356 
Q 2931 1769 2642 2001 
Q 2353 2234 1838 2234 
L 1294 2234 
L 1294 2753 
L 1863 2753 
Q 2328 2753 2575 2939 
Q 2822 3125 2822 3475 
Q 2822 3834 2567 4026 
Q 2313 4219 1838 4219 
Q 1578 4219 1281 4162 
Q 984 4106 628 3988 
L 628 4550 
Q 988 4650 1302 4700 
Q 1616 4750 1894 4750 
Q 2613 4750 3031 4423 
Q 3450 4097 3450 3541 
Q 3450 3153 3228 2886 
Q 3006 2619 2597 2516 
z
" transform="scale(0.015625)"/>
       </defs>
       <use xlink:href="#DejaVuSans-32"/>
       <use xlink:href="#DejaVuSans-30" x="63.623047"/>
       <use xlink:href="#DejaVuSans-31" x="127.246094"/>
       <use xlink:href="#DejaVuSans-33" x="190.869141"/>
       <use xlink:href="#DejaVuSans-2d" x="254.492188"/>
       <use xlink:href="#DejaVuSans-30" x="290.576172"/>
       <use xlink:href="#DejaVuSans-31" x="354.199219"/>
      </g>
     </g>
    </g>
    <g id="xtick_3">
     <g id="line2d_3">
      <g>
       <use xlink:href="#m4633bb919f" x="1679.241979" y="961.2" style="stroke: #000000; stroke-width: 0.8"/>
      </g>
     </g>
     <g id="text_3">
      <!-- 2013-07 -->
      <g transform="translate(1637.459166 983.396875) scale(0.2 -0.2)">
       <use xlink:href="#DejaVuSans-32"/>
       <use xlink:href="#DejaVuSans-30" x="63.623047"/>
       <use xlink:href="#DejaVuSans-31" x="127.246094"/>
       <use xlink:href="#DejaVuSans-33" x="190.869141"/>
       <use xlink:href="#DejaVuSans-2d" x="254.492188"/>
       <use xlink:href="#DejaVuSans-30" x="290.576172"/>
       <use xlink:href="#DejaVuSans-37" x="354.199219"/>
      </g>
     </g>
    </g>
    <g id="xtick_4">
     <g id="line2d_4">
      <g>
       <use xlink:href="#m4633bb919f" x="2050.993316" y="961.2" style="stroke: #000000; stroke-width: 0.8"/>
      </g>
     </g>
     <g id="text_4">
      <!-- 2014-01 -->
      <g transform="translate(2009.210503 983.396875) scale(0.2 -0.2)">
       <defs>
        <path id="DejaVuSans-34" d="M 2419 4116 
L 825 1625 
L 2419 1625 
L 2419 4116 
z
M 2253 4666 
L 3047 4666 
L 3047 1625 
L 3713 1625 
L 3713 1100 
L 3047 1100 
L 3047 0 
L 2419 0 
L 2419 1100 
L 313 1100 
L 313 1709 
L 2253 4666 
z
" transform="scale(0.015625)"/>
       </defs>
       <use xlink:href="#DejaVuSans-32"/>
       <use xlink:href="#DejaVuSans-30" x="63.623047"/>
       <use xlink:href="#DejaVuSans-31" x="127.246094"/>
       <use xlink:href="#DejaVuSans-34" x="190.869141"/>
       <use xlink:href="#DejaVuSans-2d" x="254.492188"/>
       <use xlink:href="#DejaVuSans-30" x="290.576172"/>
       <use xlink:href="#DejaVuSans-31" x="354.199219"/>
      </g>
     </g>
    </g>
    <g id="xtick_5">
     <g id="line2d_5">
      <g>
       <use xlink:href="#m4633bb919f" x="2416.683489" y="961.2" style="stroke: #000000; stroke-width: 0.8"/>
      </g>
     </g>
     <g id="text_5">
      <!-- 2014-07 -->
      <g transform="translate(2374.900677 983.396875) scale(0.2 -0.2)">
       <use xlink:href="#DejaVuSans-32"/>
       <use xlink:href="#DejaVuSans-30" x="63.623047"/>
       <use xlink:href="#DejaVuSans-31" x="127.246094"/>
       <use xlink:href="#DejaVuSans-34" x="190.869141"/>
       <use xlink:href="#DejaVuSans-2d" x="254.492188"/>
       <use xlink:href="#DejaVuSans-30" x="290.576172"/>
       <use xlink:href="#DejaVuSans-37" x="354.199219"/>
      </g>
     </g>
    </g>
    <g id="xtick_6">
     <g id="line2d_6">
      <g>
       <use xlink:href="#m4633bb919f" x="2788.434826" y="961.2" style="stroke: #000000; stroke-width: 0.8"/>
      </g>
     </g>
     <g id="text_6">
      <!-- 2015-01 -->
      <g transform="translate(2746.652014 983.396875) scale(0.2 -0.2)">
       <defs>
        <path id="DejaVuSans-35" d="M 691 4666 
L 3169 4666 
L 3169 4134 
L 1269 4134 
L 1269 2991 
Q 1406 3038 1543 3061 
Q 1681 3084 1819 3084 
Q 2600 3084 3056 2656 
Q 3513 2228 3513 1497 
Q 3513 744 3044 326 
Q 2575 -91 1722 -91 
Q 1428 -91 1123 -41 
Q 819 9 494 109 
L 494 744 
Q 775 591 1075 516 
Q 1375 441 1709 441 
Q 2250 441 2565 725 
Q 2881 1009 2881 1497 
Q 2881 1984 2565 2268 
Q 2250 2553 1709 2553 
Q 1456 2553 1204 2497 
Q 953 2441 691 2322 
L 691 4666 
z
" transform="scale(0.015625)"/>
       </defs>
       <use xlink:href="#DejaVuSans-32"/>
       <use xlink:href="#DejaVuSans-30" x="63.623047"/>
       <use xlink:href="#DejaVuSans-31" x="127.246094"/>
       <use xlink:href="#DejaVuSans-35" x="190.869141"/>
       <use xlink:href="#DejaVuSans-2d" x="254.492188"/>
       <use xlink:href="#DejaVuSans-30" x="290.576172"/>
       <use xlink:href="#DejaVuSans-31" x="354.199219"/>
      </g>
     </g>
    </g>
    <g id="xtick_7">
     <g id="line2d_7">
      <g>
       <use xlink:href="#m4633bb919f" x="3154.125" y="961.2" style="stroke: #000000; stroke-width: 0.8"/>
      </g>
     </g>
     <g id="text_7">
      <!-- 2015-07 -->
      <g transform="translate(3112.342188 983.396875) scale(0.2 -0.2)">
       <use xlink:href="#DejaVuSans-32"/>
       <use xlink:href="#DejaVuSans-30" x="63.623047"/>
       <use xlink:href="#DejaVuSans-31" x="127.246094"/>
       <use xlink:href="#DejaVuSans-35" x="190.869141"/>
       <use xlink:href="#DejaVuSans-2d" x="254.492188"/>
       <use xlink:href="#DejaVuSans-30" x="290.576172"/>
       <use xlink:href="#DejaVuSans-37" x="354.199219"/>
      </g>
     </g>
    </g>
    <g id="xtick_8">
     <g id="line2d_8">
      <g>
       <use xlink:href="#m4633bb919f" x="3525.876337" y="961.2" style="stroke: #000000; stroke-width: 0.8"/>
      </g>
     </g>
     <g id="text_8">
      <!-- 2016-01 -->
      <g transform="translate(3484.093524 983.396875) scale(0.2 -0.2)">
       <defs>
        <path id="DejaVuSans-36" d="M 2113 2584 
Q 1688 2584 1439 2293 
Q 1191 2003 1191 1497 
Q 1191 994 1439 701 
Q 1688 409 2113 409 
Q 2538 409 2786 701 
Q 3034 994 3034 1497 
Q 3034 2003 2786 2293 
Q 2538 2584 2113 2584 
z
M 3366 4563 
L 3366 3988 
Q 3128 4100 2886 4159 
Q 2644 4219 2406 4219 
Q 1781 4219 1451 3797 
Q 1122 3375 1075 2522 
Q 1259 2794 1537 2939 
Q 1816 3084 2150 3084 
Q 2853 3084 3261 2657 
Q 3669 2231 3669 1497 
Q 3669 778 3244 343 
Q 2819 -91 2113 -91 
Q 1303 -91 875 529 
Q 447 1150 447 2328 
Q 447 3434 972 4092 
Q 1497 4750 2381 4750 
Q 2619 4750 2861 4703 
Q 3103 4656 3366 4563 
z
" transform="scale(0.015625)"/>
       </defs>
       <use xlink:href="#DejaVuSans-32"/>
       <use xlink:href="#DejaVuSans-30" x="63.623047"/>
       <use xlink:href="#DejaVuSans-31" x="127.246094"/>
       <use xlink:href="#DejaVuSans-36" x="190.869141"/>
       <use xlink:href="#DejaVuSans-2d" x="254.492188"/>
       <use xlink:href="#DejaVuSans-30" x="290.576172"/>
       <use xlink:href="#DejaVuSans-31" x="354.199219"/>
      </g>
     </g>
    </g>
    <g id="xtick_9">
     <g id="line2d_9">
      <g>
       <use xlink:href="#m4633bb919f" x="3893.586898" y="961.2" style="stroke: #000000; stroke-width: 0.8"/>
      </g>
     </g>
     <g id="text_9">
      <!-- 2016-07 -->
      <g transform="translate(3851.804086 983.396875) scale(0.2 -0.2)">
       <use xlink:href="#DejaVuSans-32"/>
       <use xlink:href="#DejaVuSans-30" x="63.623047"/>
       <use xlink:href="#DejaVuSans-31" x="127.246094"/>
       <use xlink:href="#DejaVuSans-36" x="190.869141"/>
       <use xlink:href="#DejaVuSans-2d" x="254.492188"/>
       <use xlink:href="#DejaVuSans-30" x="290.576172"/>
       <use xlink:href="#DejaVuSans-37" x="354.199219"/>
      </g>
     </g>
    </g>
    <g id="text_10">
     <!-- Time -->
     <g transform="translate(2374.032813 1006.753125) scale(0.2 -0.2)">
      <defs>
       <path id="DejaVuSans-54" d="M -19 4666 
L 3928 4666 
L 3928 4134 
L 2272 4134 
L 2272 0 
L 1638 0 
L 1638 4134 
L -19 4134 
L -19 4666 
z
" transform="scale(0.015625)"/>
       <path id="DejaVuSans-69" d="M 603 3500 
L 1178 3500 
L 1178 0 
L 603 0 
L 603 3500 
z
M 603 4863 
L 1178 4863 
L 1178 4134 
L 603 4134 
L 603 4863 
z
" transform="scale(0.015625)"/>
       <path id="DejaVuSans-6d" d="M 3328 2828 
Q 3544 3216 3844 3400 
Q 4144 3584 4550 3584 
Q 5097 3584 5394 3201 
Q 5691 2819 5691 2113 
L 5691 0 
L 5113 0 
L 5113 2094 
Q 5113 2597 4934 2840 
Q 4756 3084 4391 3084 
Q 3944 3084 3684 2787 
Q 3425 2491 3425 1978 
L 3425 0 
L 2847 0 
L 2847 2094 
Q 2847 2600 2669 2842 
Q 2491 3084 2119 3084 
Q 1678 3084 1418 2786 
Q 1159 2488 1159 1978 
L 1159 0 
L 581 0 
L 581 3500 
L 1159 3500 
L 1159 2956 
Q 1356 3278 1631 3431 
Q 1906 3584 2284 3584 
Q 2666 3584 2933 3390 
Q 3200 3197 3328 2828 
z
" transform="scale(0.015625)"/>
       <path id="DejaVuSans-65" d="M 3597 1894 
L 3597 1613 
L 953 1613 
Q 991 1019 1311 708 
Q 1631 397 2203 397 
Q 2534 397 2845 478 
Q 3156 559 3463 722 
L 3463 178 
Q 3153 47 2828 -22 
Q 2503 -91 2169 -91 
Q 1331 -91 842 396 
Q 353 884 353 1716 
Q 353 2575 817 3079 
Q 1281 3584 2069 3584 
Q 2775 3584 3186 3129 
Q 3597 2675 3597 1894 
z
M 3022 2063 
Q 3016 2534 2758 2815 
Q 2500 3097 2075 3097 
Q 1594 3097 1305 2825 
Q 1016 2553 972 2059 
L 3022 2063 
z
" transform="scale(0.015625)"/>
      </defs>
      <use xlink:href="#DejaVuSans-54"/>
      <use xlink:href="#DejaVuSans-69" x="57.958984"/>
      <use xlink:href="#DejaVuSans-6d" x="85.742188"/>
      <use xlink:href="#DejaVuSans-65" x="183.154297"/>
     </g>
    </g>
   </g>
   <g id="matplotlib.axis_2">
    <g id="ytick_1">
     <g id="line2d_10">
      <defs>
       <path id="m1324af3d14" d="M 0 0 
L -3.5 0 
" style="stroke: #000000; stroke-width: 0.8"/>
      </defs>
      <g>
       <use xlink:href="#m1324af3d14" x="585" y="905.615544" style="stroke: #000000; stroke-width: 0.8"/>
      </g>
     </g>
     <g id="text_11">
      <!-- −0.002 -->
      <g transform="translate(503.984375 913.213982) scale(0.2 -0.2)">
       <defs>
        <path id="DejaVuSans-2212" d="M 678 2272 
L 4684 2272 
L 4684 1741 
L 678 1741 
L 678 2272 
z
" transform="scale(0.015625)"/>
        <path id="DejaVuSans-2e" d="M 684 794 
L 1344 794 
L 1344 0 
L 684 0 
L 684 794 
z
" transform="scale(0.015625)"/>
       </defs>
       <use xlink:href="#DejaVuSans-2212"/>
       <use xlink:href="#DejaVuSans-30" x="83.789062"/>
       <use xlink:href="#DejaVuSans-2e" x="147.412109"/>
       <use xlink:href="#DejaVuSans-30" x="179.199219"/>
       <use xlink:href="#DejaVuSans-30" x="242.822266"/>
       <use xlink:href="#DejaVuSans-32" x="306.445312"/>
      </g>
     </g>
    </g>
    <g id="ytick_2">
     <g id="line2d_11">
      <g>
       <use xlink:href="#m1324af3d14" x="585" y="759.497696" style="stroke: #000000; stroke-width: 0.8"/>
      </g>
     </g>
     <g id="text_12">
      <!-- −0.001 -->
      <g transform="translate(503.984375 767.096134) scale(0.2 -0.2)">
       <use xlink:href="#DejaVuSans-2212"/>
       <use xlink:href="#DejaVuSans-30" x="83.789062"/>
       <use xlink:href="#DejaVuSans-2e" x="147.412109"/>
       <use xlink:href="#DejaVuSans-30" x="179.199219"/>
       <use xlink:href="#DejaVuSans-30" x="242.822266"/>
       <use xlink:href="#DejaVuSans-31" x="306.445312"/>
      </g>
     </g>
    </g>
    <g id="ytick_3">
     <g id="line2d_12">
      <g>
       <use xlink:href="#m1324af3d14" x="585" y="613.379848" style="stroke: #000000; stroke-width: 0.8"/>
      </g>
     </g>
     <g id="text_13">
      <!-- 0.000 -->
      <g transform="translate(520.74375 620.978286) scale(0.2 -0.2)">
       <use xlink:href="#DejaVuSans-30"/>
       <use xlink:href="#DejaVuSans-2e" x="63.623047"/>
       <use xlink:href="#DejaVuSans-30" x="95.410156"/>
       <use xlink:href="#DejaVuSans-30" x="159.033203"/>
       <use xlink:href="#DejaVuSans-30" x="222.65625"/>
      </g>
     </g>
    </g>
    <g id="ytick_4">
     <g id="line2d_13">
      <g>
       <use xlink:href="#m1324af3d14" x="585" y="467.262" style="stroke: #000000; stroke-width: 0.8"/>
      </g>
     </g>
     <g id="text_14">
      <!-- 0.001 -->
      <g transform="translate(520.74375 474.860438) scale(0.2 -0.2)">
       <use xlink:href="#DejaVuSans-30"/>
       <use xlink:href="#DejaVuSans-2e" x="63.623047"/>
       <use xlink:href="#DejaVuSans-30" x="95.410156"/>
       <use xlink:href="#DejaVuSans-30" x="159.033203"/>
       <use xlink:href="#DejaVuSans-31" x="222.65625"/>
      </g>
     </g>
    </g>
    <g id="ytick_5">
     <g id="line2d_14">
      <g>
       <use xlink:href="#m1324af3d14" x="585" y="321.144152" style="stroke: #000000; stroke-width: 0.8"/>
      </g>
     </g>
     <g id="text_15">
      <!-- 0.002 -->
      <g transform="translate(520.74375 328.74259) scale(0.2 -0.2)">
       <use xlink:href="#DejaVuSans-30"/>
       <use xlink:href="#DejaVuSans-2e" x="63.623047"/>
       <use xlink:href="#DejaVuSans-30" x="95.410156"/>
       <use xlink:href="#DejaVuSans-30" x="159.033203"/>
       <use xlink:href="#DejaVuSans-32" x="222.65625"/>
      </g>
     </g>
    </g>
    <g id="ytick_6">
     <g id="line2d_15">
      <g>
       <use xlink:href="#m1324af3d14" x="585" y="175.026304" style="stroke: #000000; stroke-width: 0.8"/>
      </g>
     </g>
     <g id="text_16">
      <!-- 0.003 -->
      <g transform="translate(520.74375 182.624742) scale(0.2 -0.2)">
       <use xlink:href="#DejaVuSans-30"/>
       <use xlink:href="#DejaVuSans-2e" x="63.623047"/>
       <use xlink:href="#DejaVuSans-30" x="95.410156"/>
       <use xlink:href="#DejaVuSans-30" x="159.033203"/>
       <use xlink:href="#DejaVuSans-33" x="222.65625"/>
      </g>
     </g>
    </g>
    <g id="text_17">
     <!-- North(m) -->
     <g transform="translate(495.825 590.9125) rotate(-90) scale(0.2 -0.2)">
      <defs>
       <path id="DejaVuSans-4e" d="M 628 4666 
L 1478 4666 
L 3547 763 
L 3547 4666 
L 4159 4666 
L 4159 0 
L 3309 0 
L 1241 3903 
L 1241 0 
L 628 0 
L 628 4666 
z
" transform="scale(0.015625)"/>
       <path id="DejaVuSans-6f" d="M 1959 3097 
Q 1497 3097 1228 2736 
Q 959 2375 959 1747 
Q 959 1119 1226 758 
Q 1494 397 1959 397 
Q 2419 397 2687 759 
Q 2956 1122 2956 1747 
Q 2956 2369 2687 2733 
Q 2419 3097 1959 3097 
z
M 1959 3584 
Q 2709 3584 3137 3096 
Q 3566 2609 3566 1747 
Q 3566 888 3137 398 
Q 2709 -91 1959 -91 
Q 1206 -91 779 398 
Q 353 888 353 1747 
Q 353 2609 779 3096 
Q 1206 3584 1959 3584 
z
" transform="scale(0.015625)"/>
       <path id="DejaVuSans-72" d="M 2631 2963 
Q 2534 3019 2420 3045 
Q 2306 3072 2169 3072 
Q 1681 3072 1420 2755 
Q 1159 2438 1159 1844 
L 1159 0 
L 581 0 
L 581 3500 
L 1159 3500 
L 1159 2956 
Q 1341 3275 1631 3429 
Q 1922 3584 2338 3584 
Q 2397 3584 2469 3576 
Q 2541 3569 2628 3553 
L 2631 2963 
z
" transform="scale(0.015625)"/>
       <path id="DejaVuSans-74" d="M 1172 4494 
L 1172 3500 
L 2356 3500 
L 2356 3053 
L 1172 3053 
L 1172 1153 
Q 1172 725 1289 603 
Q 1406 481 1766 481 
L 2356 481 
L 2356 0 
L 1766 0 
Q 1100 0 847 248 
Q 594 497 594 1153 
L 594 3053 
L 172 3053 
L 172 3500 
L 594 3500 
L 594 4494 
L 1172 4494 
z
" transform="scale(0.015625)"/>
       <path id="DejaVuSans-68" d="M 3513 2113 
L 3513 0 
L 2938 0 
L 2938 2094 
Q 2938 2591 2744 2837 
Q 2550 3084 2163 3084 
Q 1697 3084 1428 2787 
Q 1159 2491 1159 1978 
L 1159 0 
L 581 0 
L 581 4863 
L 1159 4863 
L 1159 2956 
Q 1366 3272 1645 3428 
Q 1925 3584 2291 3584 
Q 2894 3584 3203 3211 
Q 3513 2838 3513 2113 
z
" transform="scale(0.015625)"/>
       <path id="DejaVuSans-28" d="M 1984 4856 
Q 1566 4138 1362 3434 
Q 1159 2731 1159 2009 
Q 1159 1288 1364 580 
Q 1569 -128 1984 -844 
L 1484 -844 
Q 1016 -109 783 600 
Q 550 1309 550 2009 
Q 550 2706 781 3412 
Q 1013 4119 1484 4856 
L 1984 4856 
z
" transform="scale(0.015625)"/>
       <path id="DejaVuSans-29" d="M 513 4856 
L 1013 4856 
Q 1481 4119 1714 3412 
Q 1947 2706 1947 2009 
Q 1947 1309 1714 600 
Q 1481 -109 1013 -844 
L 513 -844 
Q 928 -128 1133 580 
Q 1338 1288 1338 2009 
Q 1338 2731 1133 3434 
Q 928 4138 513 4856 
z
" transform="scale(0.015625)"/>
      </defs>
      <use xlink:href="#DejaVuSans-4e"/>
      <use xlink:href="#DejaVuSans-6f" x="74.804688"/>
      <use xlink:href="#DejaVuSans-72" x="135.986328"/>
      <use xlink:href="#DejaVuSans-74" x="177.099609"/>
      <use xlink:href="#DejaVuSans-68" x="216.308594"/>
      <use xlink:href="#DejaVuSans-28" x="279.6875"/>
      <use xlink:href="#DejaVuSans-6d" x="318.701172"/>
      <use xlink:href="#DejaVuSans-29" x="416.113281"/>
     </g>
    </g>
   </g>
   <g id="line2d_16">
    <path d="M 749.863636 765.463408 
L 755.924799 923.4 
L 761.985963 913.478397 
L 764.00635 916.156614 
L 766.026738 906.760097 
L 768.047126 892.675657 
L 770.067513 841.005247 
L 772.087901 838.113087 
L 774.108289 829.057455 
L 776.128676 785.877926 
L 790.27139 629.75811 
L 792.291778 647.667267 
L 794.312166 692.400427 
L 796.332553 695.802326 
L 798.352941 694.792282 
L 800.373329 761.363547 
L 802.393717 733.95671 
L 806.434492 761.795356 
L 808.45488 743.197495 
L 810.475267 720.591672 
L 812.495655 715.601447 
L 824.617981 811.534925 
L 830.679144 850.392897 
L 832.699532 836.722299 
L 834.71992 851.464042 
L 836.740307 872.693279 
L 844.821858 801.745703 
L 850.883021 755.666725 
L 852.903409 746.871564 
L 854.923797 772.002508 
L 856.944184 834.311774 
L 860.98496 855.193454 
L 867.046123 834.042945 
L 869.066511 797.009324 
L 873.107286 810.329454 
L 875.127674 812.608453 
L 877.148061 836.032211 
L 879.168449 867.352747 
L 881.188837 900.615327 
L 883.209225 915.128659 
L 885.229612 887.861526 
L 889.270388 841.042898 
L 891.290775 834.238991 
L 893.311163 855.404488 
L 895.331551 845.347536 
L 897.351939 846.410294 
L 899.372326 837.092563 
L 901.392714 821.534393 
L 903.413102 825.810414 
L 907.453877 664.694145 
L 909.474265 584.854367 
L 913.51504 518.854099 
L 915.535428 483.836674 
L 917.555816 456.009376 
L 933.718917 513.098818 
L 937.759693 522.360011 
L 1044.840241 546.315401 
L 1048.881016 559.021759 
L 1212.53242 466.448436 
L 1214.552807 421.910466 
L 1216.573195 397.760203 
L 1226.675134 439.996386 
L 1230.715909 461.606862 
L 1232.736297 473.028514 
L 1234.756684 495.714215 
L 1236.777072 509.811158 
L 1238.79746 503.316193 
L 1240.817848 509.227297 
L 1242.838235 486.174612 
L 1252.940174 528.023425 
L 1333.755682 440.645285 
L 1335.77607 482.873776 
L 1337.796457 544.490827 
L 1341.837233 647.599454 
L 1372.143048 598.142135 
L 1374.163436 577.455584 
L 1376.183824 591.761166 
L 1378.204211 578.600966 
L 1382.244987 562.059922 
L 1384.265374 613.081963 
L 1386.285762 562.996888 
L 1388.30615 534.377639 
L 1390.326537 492.715449 
L 1392.346925 489.962669 
L 1394.367313 508.724488 
L 1398.408088 490.632121 
L 1400.428476 567.357724 
L 1402.448864 621.500027 
L 1404.469251 646.627335 
L 1406.489639 654.974937 
L 1412.550802 571.563235 
L 1416.591578 445.733065 
L 1418.611965 438.213451 
L 1420.632353 436.456947 
L 1422.652741 473.997272 
L 1424.673128 525.648668 
L 1426.693516 596.342017 
L 1428.713904 628.272118 
L 1432.754679 681.116628 
L 1434.775067 667.782596 
L 1436.795455 613.585396 
L 1442.856618 606.157285 
L 1446.897393 586.296794 
L 1454.978944 596.520704 
L 1456.999332 590.587854 
L 1459.019719 558.36776 
L 1461.040107 558.876651 
L 1463.060495 560.888116 
L 1465.080882 589.955791 
L 1471.142045 611.505762 
L 1473.162433 600.708848 
L 1475.182821 601.804695 
L 1479.223596 518.760297 
L 1481.243984 483.086715 
L 1483.264372 469.728082 
L 1485.284759 500.193801 
L 1487.305147 542.65986 
L 1489.325535 564.68072 
L 1491.345922 592.481859 
L 1493.36631 633.831046 
L 1495.386698 654.884505 
L 1497.407086 642.96473 
L 1501.447861 556.732423 
L 1669.14004 684.413268 
L 1673.180816 648.909656 
L 1677.221591 646.596477 
L 1681.262366 617.535136 
L 1683.282754 666.447765 
L 1687.323529 657.598335 
L 1689.343917 568.796708 
L 1691.364305 580.096635 
L 1693.384693 573.317187 
L 1695.40508 564.935343 
L 1697.425468 595.758753 
L 1699.445856 568.984214 
L 1701.466243 559.985412 
L 1703.486631 602.736293 
L 1705.507019 631.03649 
L 1707.527406 606.922647 
L 1709.547794 643.529057 
L 1711.568182 624.350672 
L 1715.608957 647.745308 
L 1717.629345 656.653507 
L 1719.649733 615.105739 
L 1721.67012 598.897809 
L 1723.690508 549.448883 
L 1725.710896 566.215779 
L 1727.731283 645.064819 
L 1729.751671 646.49237 
L 1731.772059 672.10324 
L 1737.833222 649.310153 
L 1739.85361 621.037482 
L 1741.873997 590.391313 
L 1743.894385 568.359048 
L 1745.914773 579.945203 
L 1747.93516 530.475177 
L 1749.955548 508.327575 
L 1751.975936 563.384729 
L 1753.996324 610.382849 
L 1756.016711 624.207246 
L 1758.037099 615.784871 
L 1768.139037 691.37245 
L 1780.261364 650.622716 
L 1782.281751 643.079628 
L 1784.302139 639.423026 
L 1786.322527 637.319773 
L 1788.342914 634.540057 
L 1790.363302 663.821291 
L 1792.38369 681.243211 
L 1794.404078 689.125936 
L 1796.424465 672.567603 
L 1806.526404 652.130473 
L 1808.546791 629.209511 
L 1810.567179 601.621724 
L 1812.587567 595.536959 
L 1814.607955 553.202255 
L 1816.628342 545.064086 
L 1818.64873 540.648699 
L 1822.689505 516.995557 
L 1824.709893 503.0715 
L 1826.730281 510.93862 
L 1828.750668 542.385614 
L 1830.771056 556.254053 
L 1832.791444 537.163451 
L 1834.811832 499.651754 
L 1836.832219 539.929718 
L 1838.852607 584.439607 
L 1954.014706 488.358994 
L 1956.035094 503.256108 
L 1958.055481 511.064859 
L 1960.075869 512.674109 
L 1962.096257 544.818342 
L 1966.137032 603.817059 
L 1968.15742 590.210275 
L 1980.279746 467.313174 
L 1982.300134 491.627346 
L 1988.361297 584.25035 
L 1990.381684 524.215032 
L 1992.402072 535.57156 
L 1994.42246 531.176193 
L 1996.442848 531.12952 
L 2000.483623 429.399516 
L 2073.21758 382.459843 
L 2075.237968 369.824092 
L 2079.278743 388.461382 
L 2081.299131 380.598113 
L 2380.316511 777.598137 
L 2438.907754 587.396575 
L 2442.948529 589.632617 
L 2446.989305 574.806953 
L 2451.03008 586.631463 
L 2467.193182 535.522416 
L 3176.349265 544.486064 
L 3178.369652 562.416256 
L 3180.39004 587.164884 
L 3182.410428 581.330228 
L 3184.430816 581.990529 
L 3186.451203 578.793757 
L 3190.491979 554.830156 
L 3192.512366 482.645647 
L 3194.532754 444.910325 
L 3196.553142 428.269161 
L 3200.593917 448.744632 
L 3208.675468 451.049277 
L 3210.695856 472.451654 
L 3212.716243 495.271146 
L 3214.736631 496.734069 
L 3216.757019 467.036545 
L 3218.777406 427.111317 
L 3220.797794 384.182668 
L 3222.818182 369.712849 
L 3224.83857 370.164033 
L 3226.858957 398.092313 
L 3228.879345 343.172379 
L 3230.899733 381.658455 
L 3253.123997 335.947475 
L 3257.164773 425.307612 
L 3259.18516 439.965602 
L 3261.205548 495.689912 
L 3265.246324 521.420706 
L 3267.266711 607.648306 
L 3269.287099 614.877072 
L 3277.36865 567.65098 
L 3287.470588 474.360242 
L 3289.490976 476.394033 
L 3291.511364 488.949551 
L 3293.531751 491.004123 
L 3295.552139 491.890537 
L 3297.572527 456.762746 
L 3299.592914 458.908053 
L 3301.613302 492.683237 
L 3303.63369 475.483355 
L 3305.654078 437.774143 
L 3309.694853 393.738506 
L 3315.756016 344.268875 
L 3317.776404 317.417831 
L 3319.796791 374.207571 
L 3321.817179 404.918973 
L 3323.837567 427.655014 
L 3325.857955 434.455886 
L 3327.878342 468.177917 
L 3329.89873 446.634749 
L 3331.919118 474.931256 
L 3340.000668 441.596674 
L 3342.021056 470.796229 
L 3344.041444 508.195805 
L 3346.061832 513.019732 
L 3348.082219 519.235287 
L 3350.102607 497.934637 
L 3352.122995 483.382717 
L 3356.16377 395.919629 
L 3358.184158 364.160174 
L 3360.204545 343.287363 
L 3362.224933 397.967366 
L 3364.245321 411.748027 
L 3366.265709 415.232009 
L 3370.306484 462.403298 
L 3372.326872 482.401809 
L 3374.347259 518.049212 
L 3376.367647 483.917731 
L 3400.612299 294.289866 
L 3402.632687 267.759386 
L 3404.653075 321.329737 
L 3406.673463 326.078243 
L 3410.714238 353.694457 
L 3412.734626 396.670597 
L 3414.755013 356.914528 
L 3416.775401 373.142783 
L 3418.795789 341.005717 
L 3420.816176 342.491921 
L 3422.836564 310.162635 
L 3424.856952 299.933669 
L 3426.87734 294.05167 
L 3428.897727 338.351028 
L 3432.938503 338.528201 
L 3434.95889 336.936039 
L 3436.979278 348.908668 
L 3438.999666 355.244852 
L 3441.020053 366.158087 
L 3443.040441 364.653659 
L 3445.060829 359.622157 
L 3447.081217 378.336766 
L 3449.101604 405.403636 
L 3453.14238 424.983633 
L 3455.162767 423.192769 
L 3459.203543 472.764978 
L 3461.22393 458.656112 
L 3463.244318 405.142826 
L 3465.264706 381.583307 
L 3467.285094 337.734994 
L 3469.305481 337.870664 
L 3471.325869 309.28211 
L 3473.346257 283.587963 
L 3475.366644 269.576743 
L 3477.387032 292.58684 
L 3479.40742 294.300563 
L 3481.427807 305.148235 
L 3483.448195 282.699019 
L 3485.468583 282.38061 
L 3487.488971 258.438991 
L 3489.509358 268.986587 
L 3491.529746 281.029123 
L 3493.550134 275.554832 
L 3497.590909 279.196572 
L 3499.611297 274.320448 
L 3503.652072 328.05229 
L 3505.67246 328.271521 
L 3507.692848 371.470219 
L 3509.713235 360.300456 
L 3511.733623 316.203259 
L 3513.754011 279.136447 
L 3515.774398 237.525827 
L 3517.794786 193.526978 
L 3519.815174 205.774573 
L 3521.835561 167.4 
L 3523.855949 181.153915 
L 3527.896725 233.870363 
L 3531.9375 310.450042 
L 3533.957888 315.223016 
L 3535.978275 333.617908 
L 3537.998663 321.004922 
L 3540.019051 372.382278 
L 3542.039439 402.738438 
L 3544.059826 417.399757 
L 3548.100602 420.964673 
L 3550.120989 442.636909 
L 3552.141377 435.42678 
L 3554.161765 382.281342 
L 3556.182152 370.562903 
L 3558.20254 342.640571 
L 3560.222928 333.279398 
L 3562.243316 335.190298 
L 3564.263703 321.272445 
L 3566.284091 330.984406 
L 3568.304479 370.83902 
L 3570.324866 394.799747 
L 3572.345254 371.295106 
L 3582.447193 402.834102 
L 3584.46758 404.297125 
L 3586.487968 413.59203 
L 3590.528743 305.053307 
L 3592.549131 260.746262 
L 3594.569519 243.324381 
L 3596.589906 251.747665 
L 3598.610294 223.206706 
L 3600.630682 254.676745 
L 3602.65107 317.301362 
L 3604.671457 349.898985 
L 3647.099599 362.86487 
L 3649.119987 347.553401 
L 3653.160762 368.539214 
L 3659.221925 419.697236 
L 3661.242313 451.111471 
L 3663.262701 480.082203 
L 3665.283088 489.912042 
L 3667.303476 473.591973 
L 3669.323864 443.721734 
L 3671.344251 428.205337 
L 3673.364639 483.013848 
L 3675.385027 465.158769 
L 3677.405414 495.317784 
L 3679.425802 510.745405 
L 3681.44619 506.807249 
L 3683.466578 530.269276 
L 3685.486965 517.547028 
L 3687.507353 519.048379 
L 3689.527741 539.712459 
L 3691.548128 502.488383 
L 3693.568516 494.366185 
L 3695.588904 520.338439 
L 3697.609291 518.701354 
L 3703.670455 565.436153 
L 3705.690842 586.746625 
L 3707.71123 598.090789 
L 3713.772393 452.689944 
L 3715.792781 394.270626 
L 3717.813168 342.681073 
L 3719.833556 344.711503 
L 3721.853944 323.407655 
L 3723.874332 338.717564 
L 3725.894719 353.167534 
L 3727.915107 413.206544 
L 3729.935495 427.453212 
L 3733.97627 434.533432 
L 3735.996658 441.168654 
L 3738.017045 440.167693 
L 3740.037433 502.875906 
L 3744.078209 540.485502 
L 3746.098596 576.827935 
L 3748.118984 559.909962 
L 3750.139372 552.005157 
L 3752.159759 577.443467 
L 3756.200535 475.80676 
L 3758.220922 472.090253 
L 3760.24131 473.359562 
L 3762.261698 494.507934 
L 3764.282086 533.285633 
L 3766.302473 543.33527 
L 3768.322861 572.651094 
L 3772.363636 640.284136 
L 3774.384024 653.550928 
L 3776.404412 639.779214 
L 3778.424799 620.682474 
L 3780.445187 581.817828 
L 3786.50635 566.665407 
L 3788.526738 554.993983 
L 3790.547126 561.589693 
L 3792.567513 581.682004 
L 3794.587901 615.744557 
L 3796.608289 626.262091 
L 3798.628676 647.395258 
L 3952.178142 544.271045 
L 3954.198529 587.700306 
L 3956.218917 618.944317 
L 3958.239305 587.495767 
L 3960.259693 633.833391 
L 3962.28008 692.591974 
L 3970.361631 603.429203 
L 3972.382019 679.652757 
L 3978.443182 673.675323 
L 3980.46357 638.642579 
L 3982.483957 677.99242 
L 3984.504345 752.514421 
L 3986.524733 757.609628 
L 3988.54512 686.281911 
L 3990.565508 701.513677 
L 3996.626671 775.779267 
L 4002.687834 682.641077 
L 4004.708222 657.299578 
L 4006.72861 639.584538 
L 4008.748997 629.804327 
L 4010.769385 608.251889 
L 4012.789773 679.764482 
L 4014.81016 695.620418 
L 4016.830548 692.813714 
L 4018.850936 710.699014 
L 4020.871324 680.946452 
L 4028.952874 539.709046 
L 4030.973262 584.02754 
L 4032.99365 595.898901 
L 4035.014037 634.065644 
L 4037.034425 690.319116 
L 4039.054813 699.388426 
L 4041.075201 720.747935 
L 4043.095588 785.246518 
L 4045.115976 760.678397 
L 4047.136364 743.12992 
L 4047.136364 743.12992 
" clip-path="url(#p5f1157702f)" style="fill: none; stroke: #e8000b; stroke-width: 2.5; stroke-linecap: square"/>
   </g>
   <g id="patch_3">
    <path d="M 585 961.2 
L 585 129.6 
" style="fill: none; stroke: #000000; stroke-width: 0.8; stroke-linejoin: miter; stroke-linecap: square"/>
   </g>
   <g id="patch_4">
    <path d="M 4212 961.2 
L 4212 129.6 
" style="fill: none; stroke: #000000; stroke-width: 0.8; stroke-linejoin: miter; stroke-linecap: square"/>
   </g>
   <g id="patch_5">
    <path d="M 585 961.2 
L 4212 961.2 
" style="fill: none; stroke: #000000; stroke-width: 0.8; stroke-linejoin: miter; stroke-linecap: square"/>
   </g>
   <g id="patch_6">
    <path d="M 585 129.6 
L 4212 129.6 
" style="fill: none; stroke: #000000; stroke-width: 0.8; stroke-linejoin: miter; stroke-linecap: square"/>
   </g>
   <g id="text_18">
    <!-- MT01 -->
    <g transform="translate(2357.308594 123.360937) scale(0.3 -0.3)">
     <defs>
      <path id="DejaVuSans-4d" d="M 628 4666 
L 1569 4666 
L 2759 1491 
L 3956 4666 
L 4897 4666 
L 4897 0 
L 4281 0 
L 4281 4097 
L 3078 897 
L 2444 897 
L 1241 4097 
L 1241 0 
L 628 0 
L 628 4666 
z
" transform="scale(0.015625)"/>
     </defs>
     <use xlink:href="#DejaVuSans-4d"/>
     <use xlink:href="#DejaVuSans-54" x="86.279297"/>
     <use xlink:href="#DejaVuSans-30" x="147.363281"/>
     <use xlink:href="#DejaVuSans-31" x="210.986328"/>
    </g>
   </g>
   <g id="legend_1">
    <g id="patch_7">
     <path d="M 4146.614062 152.278125 
L 4205 152.278125 
Q 4207 152.278125 4207 150.278125 
L 4207 136.6 
Q 4207 134.6 4205 134.6 
L 4146.614062 134.6 
Q 4144.614062 134.6 4144.614062 136.6 
L 4144.614062 150.278125 
Q 4144.614062 152.278125 4146.614062 152.278125 
z
" style="fill: #ffffff; opacity: 0.8; stroke: #cccccc; stroke-linejoin: miter"/>
    </g>
    <g id="line2d_17">
     <path d="M 4148.614062 142.698438 
L 4158.614062 142.698438 
L 4168.614062 142.698438 
" style="fill: none; stroke: #e8000b; stroke-width: 2.5; stroke-linecap: square"/>
    </g>
    <g id="text_19">
     <!-- mt01 -->
     <g transform="translate(4176.614062 146.198438) scale(0.1 -0.1)">
      <use xlink:href="#DejaVuSans-6d"/>
      <use xlink:href="#DejaVuSans-74" x="97.412109"/>
      <use xlink:href="#DejaVuSans-30" x="136.621094"/>
      <use xlink:href="#DejaVuSans-31" x="200.244141"/>
     </g>
    </g>
   </g>
  </g>
 </g>
 <defs>
  <clipPath id="p5f1157702f">
   <rect x="585" y="129.6" width="3627" height="831.6"/>
  </clipPath>
 </defs>
</svg>
