<?xml version="1.0" encoding="utf-8" standalone="no"?>
<!DOCTYPE svg PUBLIC "-//W3C//DTD SVG 1.1//EN"
  "http://www.w3.org/Graphics/SVG/1.1/DTD/svg11.dtd">
<svg xmlns:xlink="http://www.w3.org/1999/xlink" width="4680pt" height="1080pt" viewBox="0 0 4680 1080" xmlns="http://www.w3.org/2000/svg" version="1.1">
 <metadata>
  <rdf:RDF xmlns:dc="http://purl.org/dc/elements/1.1/" xmlns:cc="http://creativecommons.org/ns#" xmlns:rdf="http://www.w3.org/1999/02/22-rdf-syntax-ns#">
   <cc:Work>
    <dc:type rdf:resource="http://purl.org/dc/dcmitype/StillImage"/>
    <dc:date>2024-03-25T15:24:57.977064</dc:date>
    <dc:format>image/svg+xml</dc:format>
    <dc:creator>
     <cc:Agent>
      <dc:title>Matplotlib v3.7.2, https://matplotlib.org/</dc:title>
     </cc:Agent>
    </dc:creator>
   </cc:Work>
  </rdf:RDF>
 </metadata>
 <defs>
  <style type="text/css">*{stroke-linejoin: round; stroke-linecap: butt}</style>
 </defs>
 <g id="figure_1">
  <g id="patch_1">
   <path d="M 0 1080 
L 4680 1080 
L 4680 0 
L 0 0 
z
" style="fill: #ffffff"/>
  </g>
  <g id="axes_1">
   <g id="patch_2">
    <path d="M 585 961.2 
L 4212 961.2 
L 4212 129.6 
L 585 129.6 
z
" style="fill: #ffffff"/>
   </g>
   <g id="matplotlib.axis_1">
    <g id="xtick_1">
     <g id="line2d_1">
      <defs>
       <path id="m7e060f7b3f" d="M 0 0 
L 0 3.5 
" style="stroke: #000000; stroke-width: 0.8"/>
      </defs>
      <g>
       <use xlink:href="#m7e060f7b3f" x="941.800468" y="961.2" style="stroke: #000000; stroke-width: 0.8"/>
      </g>
     </g>
     <g id="text_1">
      <!-- 2012-07 -->
      <g transform="translate(900.017655 983.396875) scale(0.2 -0.2)">
       <defs>
        <path id="DejaVuSans-32" d="M 1228 531 
L 3431 531 
L 3431 0 
L 469 0 
L 469 531 
Q 828 903 1448 1529 
Q 2069 2156 2228 2338 
Q 2531 2678 2651 2914 
Q 2772 3150 2772 3378 
Q 2772 3750 2511 3984 
Q 2250 4219 1831 4219 
Q 1534 4219 1204 4116 
Q 875 4013 500 3803 
L 500 4441 
Q 881 4594 1212 4672 
Q 1544 4750 1819 4750 
Q 2544 4750 2975 4387 
Q 3406 4025 3406 3419 
Q 3406 3131 3298 2873 
Q 3191 2616 2906 2266 
Q 2828 2175 2409 1742 
Q 1991 1309 1228 531 
z
" transform="scale(0.015625)"/>
        <path id="DejaVuSans-30" d="M 2034 4250 
Q 1547 4250 1301 3770 
Q 1056 3291 1056 2328 
Q 1056 1369 1301 889 
Q 1547 409 2034 409 
Q 2525 409 2770 889 
Q 3016 1369 3016 2328 
Q 3016 3291 2770 3770 
Q 2525 4250 2034 4250 
z
M 2034 4750 
Q 2819 4750 3233 4129 
Q 3647 3509 3647 2328 
Q 3647 1150 3233 529 
Q 2819 -91 2034 -91 
Q 1250 -91 836 529 
Q 422 1150 422 2328 
Q 422 3509 836 4129 
Q 1250 4750 2034 4750 
z
" transform="scale(0.015625)"/>
        <path id="DejaVuSans-31" d="M 794 531 
L 1825 531 
L 1825 4091 
L 703 3866 
L 703 4441 
L 1819 4666 
L 2450 4666 
L 2450 531 
L 3481 531 
L 3481 0 
L 794 0 
L 794 531 
z
" transform="scale(0.015625)"/>
        <path id="DejaVuSans-2d" d="M 313 2009 
L 1997 2009 
L 1997 1497 
L 313 1497 
L 313 2009 
z
" transform="scale(0.015625)"/>
        <path id="DejaVuSans-37" d="M 525 4666 
L 3525 4666 
L 3525 4397 
L 1831 0 
L 1172 0 
L 2766 4134 
L 525 4134 
L 525 4666 
z
" transform="scale(0.015625)"/>
       </defs>
       <use xlink:href="#DejaVuSans-32"/>
       <use xlink:href="#DejaVuSans-30" x="63.623047"/>
       <use xlink:href="#DejaVuSans-31" x="127.246094"/>
       <use xlink:href="#DejaVuSans-32" x="190.869141"/>
       <use xlink:href="#DejaVuSans-2d" x="254.492188"/>
       <use xlink:href="#DejaVuSans-30" x="290.576172"/>
       <use xlink:href="#DejaVuSans-37" x="354.199219"/>
      </g>
     </g>
    </g>
    <g id="xtick_2">
     <g id="line2d_2">
      <g>
       <use xlink:href="#m7e060f7b3f" x="1313.551805" y="961.2" style="stroke: #000000; stroke-width: 0.8"/>
      </g>
     </g>
     <g id="text_2">
      <!-- 2013-01 -->
      <g transform="translate(1271.768992 983.396875) scale(0.2 -0.2)">
       <defs>
        <path id="DejaVuSans-33" d="M 2597 2516 
Q 3050 2419 3304 2112 
Q 3559 1806 3559 1356 
Q 3559 666 3084 287 
Q 2609 -91 1734 -91 
Q 1441 -91 1130 -33 
Q 819 25 488 141 
L 488 750 
Q 750 597 1062 519 
Q 1375 441 1716 441 
Q 2309 441 2620 675 
Q 2931 909 2931 1356 
Q 2931 1769 2642 2001 
Q 2353 2234 1838 2234 
L 1294 2234 
L 1294 2753 
L 1863 2753 
Q 2328 2753 2575 2939 
Q 2822 3125 2822 3475 
Q 2822 3834 2567 4026 
Q 2313 4219 1838 4219 
Q 1578 4219 1281 4162 
Q 984 4106 628 3988 
L 628 4550 
Q 988 4650 1302 4700 
Q 1616 4750 1894 4750 
Q 2613 4750 3031 4423 
Q 3450 4097 3450 3541 
Q 3450 3153 3228 2886 
Q 3006 2619 2597 2516 
z
" transform="scale(0.015625)"/>
       </defs>
       <use xlink:href="#DejaVuSans-32"/>
       <use xlink:href="#DejaVuSans-30" x="63.623047"/>
       <use xlink:href="#DejaVuSans-31" x="127.246094"/>
       <use xlink:href="#DejaVuSans-33" x="190.869141"/>
       <use xlink:href="#DejaVuSans-2d" x="254.492188"/>
       <use xlink:href="#DejaVuSans-30" x="290.576172"/>
       <use xlink:href="#DejaVuSans-31" x="354.199219"/>
      </g>
     </g>
    </g>
    <g id="xtick_3">
     <g id="line2d_3">
      <g>
       <use xlink:href="#m7e060f7b3f" x="1679.241979" y="961.2" style="stroke: #000000; stroke-width: 0.8"/>
      </g>
     </g>
     <g id="text_3">
      <!-- 2013-07 -->
      <g transform="translate(1637.459166 983.396875) scale(0.2 -0.2)">
       <use xlink:href="#DejaVuSans-32"/>
       <use xlink:href="#DejaVuSans-30" x="63.623047"/>
       <use xlink:href="#DejaVuSans-31" x="127.246094"/>
       <use xlink:href="#DejaVuSans-33" x="190.869141"/>
       <use xlink:href="#DejaVuSans-2d" x="254.492188"/>
       <use xlink:href="#DejaVuSans-30" x="290.576172"/>
       <use xlink:href="#DejaVuSans-37" x="354.199219"/>
      </g>
     </g>
    </g>
    <g id="xtick_4">
     <g id="line2d_4">
      <g>
       <use xlink:href="#m7e060f7b3f" x="2050.993316" y="961.2" style="stroke: #000000; stroke-width: 0.8"/>
      </g>
     </g>
     <g id="text_4">
      <!-- 2014-01 -->
      <g transform="translate(2009.210503 983.396875) scale(0.2 -0.2)">
       <defs>
        <path id="DejaVuSans-34" d="M 2419 4116 
L 825 1625 
L 2419 1625 
L 2419 4116 
z
M 2253 4666 
L 3047 4666 
L 3047 1625 
L 3713 1625 
L 3713 1100 
L 3047 1100 
L 3047 0 
L 2419 0 
L 2419 1100 
L 313 1100 
L 313 1709 
L 2253 4666 
z
" transform="scale(0.015625)"/>
       </defs>
       <use xlink:href="#DejaVuSans-32"/>
       <use xlink:href="#DejaVuSans-30" x="63.623047"/>
       <use xlink:href="#DejaVuSans-31" x="127.246094"/>
       <use xlink:href="#DejaVuSans-34" x="190.869141"/>
       <use xlink:href="#DejaVuSans-2d" x="254.492188"/>
       <use xlink:href="#DejaVuSans-30" x="290.576172"/>
       <use xlink:href="#DejaVuSans-31" x="354.199219"/>
      </g>
     </g>
    </g>
    <g id="xtick_5">
     <g id="line2d_5">
      <g>
       <use xlink:href="#m7e060f7b3f" x="2416.683489" y="961.2" style="stroke: #000000; stroke-width: 0.8"/>
      </g>
     </g>
     <g id="text_5">
      <!-- 2014-07 -->
      <g transform="translate(2374.900677 983.396875) scale(0.2 -0.2)">
       <use xlink:href="#DejaVuSans-32"/>
       <use xlink:href="#DejaVuSans-30" x="63.623047"/>
       <use xlink:href="#DejaVuSans-31" x="127.246094"/>
       <use xlink:href="#DejaVuSans-34" x="190.869141"/>
       <use xlink:href="#DejaVuSans-2d" x="254.492188"/>
       <use xlink:href="#DejaVuSans-30" x="290.576172"/>
       <use xlink:href="#DejaVuSans-37" x="354.199219"/>
      </g>
     </g>
    </g>
    <g id="xtick_6">
     <g id="line2d_6">
      <g>
       <use xlink:href="#m7e060f7b3f" x="2788.434826" y="961.2" style="stroke: #000000; stroke-width: 0.8"/>
      </g>
     </g>
     <g id="text_6">
      <!-- 2015-01 -->
      <g transform="translate(2746.652014 983.396875) scale(0.2 -0.2)">
       <defs>
        <path id="DejaVuSans-35" d="M 691 4666 
L 3169 4666 
L 3169 4134 
L 1269 4134 
L 1269 2991 
Q 1406 3038 1543 3061 
Q 1681 3084 1819 3084 
Q 2600 3084 3056 2656 
Q 3513 2228 3513 1497 
Q 3513 744 3044 326 
Q 2575 -91 1722 -91 
Q 1428 -91 1123 -41 
Q 819 9 494 109 
L 494 744 
Q 775 591 1075 516 
Q 1375 441 1709 441 
Q 2250 441 2565 725 
Q 2881 1009 2881 1497 
Q 2881 1984 2565 2268 
Q 2250 2553 1709 2553 
Q 1456 2553 1204 2497 
Q 953 2441 691 2322 
L 691 4666 
z
" transform="scale(0.015625)"/>
       </defs>
       <use xlink:href="#DejaVuSans-32"/>
       <use xlink:href="#DejaVuSans-30" x="63.623047"/>
       <use xlink:href="#DejaVuSans-31" x="127.246094"/>
       <use xlink:href="#DejaVuSans-35" x="190.869141"/>
       <use xlink:href="#DejaVuSans-2d" x="254.492188"/>
       <use xlink:href="#DejaVuSans-30" x="290.576172"/>
       <use xlink:href="#DejaVuSans-31" x="354.199219"/>
      </g>
     </g>
    </g>
    <g id="xtick_7">
     <g id="line2d_7">
      <g>
       <use xlink:href="#m7e060f7b3f" x="3154.125" y="961.2" style="stroke: #000000; stroke-width: 0.8"/>
      </g>
     </g>
     <g id="text_7">
      <!-- 2015-07 -->
      <g transform="translate(3112.342188 983.396875) scale(0.2 -0.2)">
       <use xlink:href="#DejaVuSans-32"/>
       <use xlink:href="#DejaVuSans-30" x="63.623047"/>
       <use xlink:href="#DejaVuSans-31" x="127.246094"/>
       <use xlink:href="#DejaVuSans-35" x="190.869141"/>
       <use xlink:href="#DejaVuSans-2d" x="254.492188"/>
       <use xlink:href="#DejaVuSans-30" x="290.576172"/>
       <use xlink:href="#DejaVuSans-37" x="354.199219"/>
      </g>
     </g>
    </g>
    <g id="xtick_8">
     <g id="line2d_8">
      <g>
       <use xlink:href="#m7e060f7b3f" x="3525.876337" y="961.2" style="stroke: #000000; stroke-width: 0.8"/>
      </g>
     </g>
     <g id="text_8">
      <!-- 2016-01 -->
      <g transform="translate(3484.093524 983.396875) scale(0.2 -0.2)">
       <defs>
        <path id="DejaVuSans-36" d="M 2113 2584 
Q 1688 2584 1439 2293 
Q 1191 2003 1191 1497 
Q 1191 994 1439 701 
Q 1688 409 2113 409 
Q 2538 409 2786 701 
Q 3034 994 3034 1497 
Q 3034 2003 2786 2293 
Q 2538 2584 2113 2584 
z
M 3366 4563 
L 3366 3988 
Q 3128 4100 2886 4159 
Q 2644 4219 2406 4219 
Q 1781 4219 1451 3797 
Q 1122 3375 1075 2522 
Q 1259 2794 1537 2939 
Q 1816 3084 2150 3084 
Q 2853 3084 3261 2657 
Q 3669 2231 3669 1497 
Q 3669 778 3244 343 
Q 2819 -91 2113 -91 
Q 1303 -91 875 529 
Q 447 1150 447 2328 
Q 447 3434 972 4092 
Q 1497 4750 2381 4750 
Q 2619 4750 2861 4703 
Q 3103 4656 3366 4563 
z
" transform="scale(0.015625)"/>
       </defs>
       <use xlink:href="#DejaVuSans-32"/>
       <use xlink:href="#DejaVuSans-30" x="63.623047"/>
       <use xlink:href="#DejaVuSans-31" x="127.246094"/>
       <use xlink:href="#DejaVuSans-36" x="190.869141"/>
       <use xlink:href="#DejaVuSans-2d" x="254.492188"/>
       <use xlink:href="#DejaVuSans-30" x="290.576172"/>
       <use xlink:href="#DejaVuSans-31" x="354.199219"/>
      </g>
     </g>
    </g>
    <g id="xtick_9">
     <g id="line2d_9">
      <g>
       <use xlink:href="#m7e060f7b3f" x="3893.586898" y="961.2" style="stroke: #000000; stroke-width: 0.8"/>
      </g>
     </g>
     <g id="text_9">
      <!-- 2016-07 -->
      <g transform="translate(3851.804086 983.396875) scale(0.2 -0.2)">
       <use xlink:href="#DejaVuSans-32"/>
       <use xlink:href="#DejaVuSans-30" x="63.623047"/>
       <use xlink:href="#DejaVuSans-31" x="127.246094"/>
       <use xlink:href="#DejaVuSans-36" x="190.869141"/>
       <use xlink:href="#DejaVuSans-2d" x="254.492188"/>
       <use xlink:href="#DejaVuSans-30" x="290.576172"/>
       <use xlink:href="#DejaVuSans-37" x="354.199219"/>
      </g>
     </g>
    </g>
    <g id="text_10">
     <!-- Time -->
     <g transform="translate(2374.032813 1006.753125) scale(0.2 -0.2)">
      <defs>
       <path id="DejaVuSans-54" d="M -19 4666 
L 3928 4666 
L 3928 4134 
L 2272 4134 
L 2272 0 
L 1638 0 
L 1638 4134 
L -19 4134 
L -19 4666 
z
" transform="scale(0.015625)"/>
       <path id="DejaVuSans-69" d="M 603 3500 
L 1178 3500 
L 1178 0 
L 603 0 
L 603 3500 
z
M 603 4863 
L 1178 4863 
L 1178 4134 
L 603 4134 
L 603 4863 
z
" transform="scale(0.015625)"/>
       <path id="DejaVuSans-6d" d="M 3328 2828 
Q 3544 3216 3844 3400 
Q 4144 3584 4550 3584 
Q 5097 3584 5394 3201 
Q 5691 2819 5691 2113 
L 5691 0 
L 5113 0 
L 5113 2094 
Q 5113 2597 4934 2840 
Q 4756 3084 4391 3084 
Q 3944 3084 3684 2787 
Q 3425 2491 3425 1978 
L 3425 0 
L 2847 0 
L 2847 2094 
Q 2847 2600 2669 2842 
Q 2491 3084 2119 3084 
Q 1678 3084 1418 2786 
Q 1159 2488 1159 1978 
L 1159 0 
L 581 0 
L 581 3500 
L 1159 3500 
L 1159 2956 
Q 1356 3278 1631 3431 
Q 1906 3584 2284 3584 
Q 2666 3584 2933 3390 
Q 3200 3197 3328 2828 
z
" transform="scale(0.015625)"/>
       <path id="DejaVuSans-65" d="M 3597 1894 
L 3597 1613 
L 953 1613 
Q 991 1019 1311 708 
Q 1631 397 2203 397 
Q 2534 397 2845 478 
Q 3156 559 3463 722 
L 3463 178 
Q 3153 47 2828 -22 
Q 2503 -91 2169 -91 
Q 1331 -91 842 396 
Q 353 884 353 1716 
Q 353 2575 817 3079 
Q 1281 3584 2069 3584 
Q 2775 3584 3186 3129 
Q 3597 2675 3597 1894 
z
M 3022 2063 
Q 3016 2534 2758 2815 
Q 2500 3097 2075 3097 
Q 1594 3097 1305 2825 
Q 1016 2553 972 2059 
L 3022 2063 
z
" transform="scale(0.015625)"/>
      </defs>
      <use xlink:href="#DejaVuSans-54"/>
      <use xlink:href="#DejaVuSans-69" x="57.958984"/>
      <use xlink:href="#DejaVuSans-6d" x="85.742188"/>
      <use xlink:href="#DejaVuSans-65" x="183.154297"/>
     </g>
    </g>
   </g>
   <g id="matplotlib.axis_2">
    <g id="ytick_1">
     <g id="line2d_10">
      <defs>
       <path id="mb0c7b36374" d="M 0 0 
L -3.5 0 
" style="stroke: #000000; stroke-width: 0.8"/>
      </defs>
      <g>
       <use xlink:href="#mb0c7b36374" x="585" y="925.186593" style="stroke: #000000; stroke-width: 0.8"/>
      </g>
     </g>
     <g id="text_11">
      <!-- −0.003 -->
      <g transform="translate(503.984375 932.785031) scale(0.2 -0.2)">
       <defs>
        <path id="DejaVuSans-2212" d="M 678 2272 
L 4684 2272 
L 4684 1741 
L 678 1741 
L 678 2272 
z
" transform="scale(0.015625)"/>
        <path id="DejaVuSans-2e" d="M 684 794 
L 1344 794 
L 1344 0 
L 684 0 
L 684 794 
z
" transform="scale(0.015625)"/>
       </defs>
       <use xlink:href="#DejaVuSans-2212"/>
       <use xlink:href="#DejaVuSans-30" x="83.789062"/>
       <use xlink:href="#DejaVuSans-2e" x="147.412109"/>
       <use xlink:href="#DejaVuSans-30" x="179.199219"/>
       <use xlink:href="#DejaVuSans-30" x="242.822266"/>
       <use xlink:href="#DejaVuSans-33" x="306.445312"/>
      </g>
     </g>
    </g>
    <g id="ytick_2">
     <g id="line2d_11">
      <g>
       <use xlink:href="#mb0c7b36374" x="585" y="796.638462" style="stroke: #000000; stroke-width: 0.8"/>
      </g>
     </g>
     <g id="text_12">
      <!-- −0.002 -->
      <g transform="translate(503.984375 804.236899) scale(0.2 -0.2)">
       <use xlink:href="#DejaVuSans-2212"/>
       <use xlink:href="#DejaVuSans-30" x="83.789062"/>
       <use xlink:href="#DejaVuSans-2e" x="147.412109"/>
       <use xlink:href="#DejaVuSans-30" x="179.199219"/>
       <use xlink:href="#DejaVuSans-30" x="242.822266"/>
       <use xlink:href="#DejaVuSans-32" x="306.445312"/>
      </g>
     </g>
    </g>
    <g id="ytick_3">
     <g id="line2d_12">
      <g>
       <use xlink:href="#mb0c7b36374" x="585" y="668.09033" style="stroke: #000000; stroke-width: 0.8"/>
      </g>
     </g>
     <g id="text_13">
      <!-- −0.001 -->
      <g transform="translate(503.984375 675.688768) scale(0.2 -0.2)">
       <use xlink:href="#DejaVuSans-2212"/>
       <use xlink:href="#DejaVuSans-30" x="83.789062"/>
       <use xlink:href="#DejaVuSans-2e" x="147.412109"/>
       <use xlink:href="#DejaVuSans-30" x="179.199219"/>
       <use xlink:href="#DejaVuSans-30" x="242.822266"/>
       <use xlink:href="#DejaVuSans-31" x="306.445312"/>
      </g>
     </g>
    </g>
    <g id="ytick_4">
     <g id="line2d_13">
      <g>
       <use xlink:href="#mb0c7b36374" x="585" y="539.542199" style="stroke: #000000; stroke-width: 0.8"/>
      </g>
     </g>
     <g id="text_14">
      <!-- 0.000 -->
      <g transform="translate(520.74375 547.140637) scale(0.2 -0.2)">
       <use xlink:href="#DejaVuSans-30"/>
       <use xlink:href="#DejaVuSans-2e" x="63.623047"/>
       <use xlink:href="#DejaVuSans-30" x="95.410156"/>
       <use xlink:href="#DejaVuSans-30" x="159.033203"/>
       <use xlink:href="#DejaVuSans-30" x="222.65625"/>
      </g>
     </g>
    </g>
    <g id="ytick_5">
     <g id="line2d_14">
      <g>
       <use xlink:href="#mb0c7b36374" x="585" y="410.994068" style="stroke: #000000; stroke-width: 0.8"/>
      </g>
     </g>
     <g id="text_15">
      <!-- 0.001 -->
      <g transform="translate(520.74375 418.592505) scale(0.2 -0.2)">
       <use xlink:href="#DejaVuSans-30"/>
       <use xlink:href="#DejaVuSans-2e" x="63.623047"/>
       <use xlink:href="#DejaVuSans-30" x="95.410156"/>
       <use xlink:href="#DejaVuSans-30" x="159.033203"/>
       <use xlink:href="#DejaVuSans-31" x="222.65625"/>
      </g>
     </g>
    </g>
    <g id="ytick_6">
     <g id="line2d_15">
      <g>
       <use xlink:href="#mb0c7b36374" x="585" y="282.445936" style="stroke: #000000; stroke-width: 0.8"/>
      </g>
     </g>
     <g id="text_16">
      <!-- 0.002 -->
      <g transform="translate(520.74375 290.044374) scale(0.2 -0.2)">
       <use xlink:href="#DejaVuSans-30"/>
       <use xlink:href="#DejaVuSans-2e" x="63.623047"/>
       <use xlink:href="#DejaVuSans-30" x="95.410156"/>
       <use xlink:href="#DejaVuSans-30" x="159.033203"/>
       <use xlink:href="#DejaVuSans-32" x="222.65625"/>
      </g>
     </g>
    </g>
    <g id="ytick_7">
     <g id="line2d_16">
      <g>
       <use xlink:href="#mb0c7b36374" x="585" y="153.897805" style="stroke: #000000; stroke-width: 0.8"/>
      </g>
     </g>
     <g id="text_17">
      <!-- 0.003 -->
      <g transform="translate(520.74375 161.496243) scale(0.2 -0.2)">
       <use xlink:href="#DejaVuSans-30"/>
       <use xlink:href="#DejaVuSans-2e" x="63.623047"/>
       <use xlink:href="#DejaVuSans-30" x="95.410156"/>
       <use xlink:href="#DejaVuSans-30" x="159.033203"/>
       <use xlink:href="#DejaVuSans-33" x="222.65625"/>
      </g>
     </g>
    </g>
    <g id="text_18">
     <!-- North(m) -->
     <g transform="translate(495.825 590.9125) rotate(-90) scale(0.2 -0.2)">
      <defs>
       <path id="DejaVuSans-4e" d="M 628 4666 
L 1478 4666 
L 3547 763 
L 3547 4666 
L 4159 4666 
L 4159 0 
L 3309 0 
L 1241 3903 
L 1241 0 
L 628 0 
L 628 4666 
z
" transform="scale(0.015625)"/>
       <path id="DejaVuSans-6f" d="M 1959 3097 
Q 1497 3097 1228 2736 
Q 959 2375 959 1747 
Q 959 1119 1226 758 
Q 1494 397 1959 397 
Q 2419 397 2687 759 
Q 2956 1122 2956 1747 
Q 2956 2369 2687 2733 
Q 2419 3097 1959 3097 
z
M 1959 3584 
Q 2709 3584 3137 3096 
Q 3566 2609 3566 1747 
Q 3566 888 3137 398 
Q 2709 -91 1959 -91 
Q 1206 -91 779 398 
Q 353 888 353 1747 
Q 353 2609 779 3096 
Q 1206 3584 1959 3584 
z
" transform="scale(0.015625)"/>
       <path id="DejaVuSans-72" d="M 2631 2963 
Q 2534 3019 2420 3045 
Q 2306 3072 2169 3072 
Q 1681 3072 1420 2755 
Q 1159 2438 1159 1844 
L 1159 0 
L 581 0 
L 581 3500 
L 1159 3500 
L 1159 2956 
Q 1341 3275 1631 3429 
Q 1922 3584 2338 3584 
Q 2397 3584 2469 3576 
Q 2541 3569 2628 3553 
L 2631 2963 
z
" transform="scale(0.015625)"/>
       <path id="DejaVuSans-74" d="M 1172 4494 
L 1172 3500 
L 2356 3500 
L 2356 3053 
L 1172 3053 
L 1172 1153 
Q 1172 725 1289 603 
Q 1406 481 1766 481 
L 2356 481 
L 2356 0 
L 1766 0 
Q 1100 0 847 248 
Q 594 497 594 1153 
L 594 3053 
L 172 3053 
L 172 3500 
L 594 3500 
L 594 4494 
L 1172 4494 
z
" transform="scale(0.015625)"/>
       <path id="DejaVuSans-68" d="M 3513 2113 
L 3513 0 
L 2938 0 
L 2938 2094 
Q 2938 2591 2744 2837 
Q 2550 3084 2163 3084 
Q 1697 3084 1428 2787 
Q 1159 2491 1159 1978 
L 1159 0 
L 581 0 
L 581 4863 
L 1159 4863 
L 1159 2956 
Q 1366 3272 1645 3428 
Q 1925 3584 2291 3584 
Q 2894 3584 3203 3211 
Q 3513 2838 3513 2113 
z
" transform="scale(0.015625)"/>
       <path id="DejaVuSans-28" d="M 1984 4856 
Q 1566 4138 1362 3434 
Q 1159 2731 1159 2009 
Q 1159 1288 1364 580 
Q 1569 -128 1984 -844 
L 1484 -844 
Q 1016 -109 783 600 
Q 550 1309 550 2009 
Q 550 2706 781 3412 
Q 1013 4119 1484 4856 
L 1984 4856 
z
" transform="scale(0.015625)"/>
       <path id="DejaVuSans-29" d="M 513 4856 
L 1013 4856 
Q 1481 4119 1714 3412 
Q 1947 2706 1947 2009 
Q 1947 1309 1714 600 
Q 1481 -109 1013 -844 
L 513 -844 
Q 928 -128 1133 580 
Q 1338 1288 1338 2009 
Q 1338 2731 1133 3434 
Q 928 4138 513 4856 
z
" transform="scale(0.015625)"/>
      </defs>
      <use xlink:href="#DejaVuSans-4e"/>
      <use xlink:href="#DejaVuSans-6f" x="74.804688"/>
      <use xlink:href="#DejaVuSans-72" x="135.986328"/>
      <use xlink:href="#DejaVuSans-74" x="177.099609"/>
      <use xlink:href="#DejaVuSans-68" x="216.308594"/>
      <use xlink:href="#DejaVuSans-28" x="279.6875"/>
      <use xlink:href="#DejaVuSans-6d" x="318.701172"/>
      <use xlink:href="#DejaVuSans-29" x="416.113281"/>
     </g>
    </g>
   </g>
   <g id="line2d_17">
    <path d="M 749.863636 462.111396 
L 755.924799 563.475776 
L 761.985963 519.038942 
L 764.00635 495.719361 
L 766.026738 388.265786 
L 768.047126 371.997238 
L 770.067513 367.231661 
L 772.087901 375.317169 
L 774.108289 385.399386 
L 776.128676 372.990129 
L 790.27139 336.12226 
L 792.291778 360.841746 
L 794.312166 372.027778 
L 796.332553 368.228081 
L 798.352941 398.02791 
L 800.373329 369.275654 
L 802.393717 362.772541 
L 806.434492 282.821874 
L 808.45488 305.811513 
L 810.475267 313.246691 
L 812.495655 306.062315 
L 824.617981 468.912699 
L 830.679144 450.972581 
L 832.699532 441.440428 
L 834.71992 424.142808 
L 836.740307 432.697931 
L 844.821858 397.026265 
L 850.883021 338.813211 
L 852.903409 322.331476 
L 854.923797 324.053664 
L 856.944184 373.597312 
L 860.98496 319.501614 
L 867.046123 268.315317 
L 869.066511 246.514017 
L 873.107286 281.627429 
L 875.127674 274.282245 
L 877.148061 312.038581 
L 879.168449 313.898903 
L 881.188837 408.498192 
L 883.209225 450.60923 
L 885.229612 434.092085 
L 889.270388 381.915684 
L 891.290775 414.105835 
L 893.311163 430.942148 
L 895.331551 346.854232 
L 897.351939 294.347043 
L 899.372326 264.110024 
L 901.392714 291.206245 
L 903.413102 299.611338 
L 905.433489 218.357944 
L 907.453877 177.989488 
L 909.474265 202.450305 
L 913.51504 211.023438 
L 915.535428 224.342504 
L 917.555816 292.523234 
L 933.718917 442.074488 
L 937.759693 450.565275 
L 1044.840241 476.503537 
L 1048.881016 445.916535 
L 1212.53242 167.4 
L 1214.552807 201.744099 
L 1216.573195 270.625489 
L 1226.675134 428.493796 
L 1230.715909 393.234353 
L 1232.736297 427.410085 
L 1234.756684 458.952813 
L 1236.777072 448.378441 
L 1238.79746 420.845136 
L 1240.817848 379.618367 
L 1242.838235 344.919 
L 1252.940174 425.171922 
L 1333.755682 429.244727 
L 1335.77607 531.291098 
L 1337.796457 578.885192 
L 1341.837233 539.682888 
L 1372.143048 513.703923 
L 1374.163436 509.495314 
L 1376.183824 528.542016 
L 1378.204211 526.914681 
L 1382.244987 603.148573 
L 1384.265374 621.717046 
L 1386.285762 558.461113 
L 1388.30615 525.475571 
L 1390.326537 519.377853 
L 1392.346925 542.203741 
L 1394.367313 569.651666 
L 1398.408088 596.407043 
L 1400.428476 709.299886 
L 1402.448864 776.890758 
L 1404.469251 807.496349 
L 1406.489639 817.243031 
L 1412.550802 645.274403 
L 1416.591578 479.072699 
L 1418.611965 464.539515 
L 1420.632353 440.789259 
L 1422.652741 445.568882 
L 1424.673128 480.612638 
L 1426.693516 524.053049 
L 1428.713904 553.573295 
L 1432.754679 561.952535 
L 1434.775067 540.632953 
L 1436.795455 541.1553 
L 1442.856618 504.200969 
L 1444.877005 451.670843 
L 1446.897393 443.438856 
L 1454.978944 425.46358 
L 1456.999332 430.874021 
L 1459.019719 429.777524 
L 1461.040107 467.04222 
L 1463.060495 494.426763 
L 1465.080882 480.936111 
L 1471.142045 461.248357 
L 1473.162433 483.975692 
L 1475.182821 497.406077 
L 1479.223596 369.561633 
L 1481.243984 368.016235 
L 1483.264372 392.621786 
L 1485.284759 442.22945 
L 1487.305147 461.663098 
L 1489.325535 459.877882 
L 1491.345922 510.189792 
L 1493.36631 538.539071 
L 1495.386698 564.660831 
L 1497.407086 573.857697 
L 1501.447861 509.741509 
L 1669.14004 386.530416 
L 1673.180816 439.838099 
L 1677.221591 488.280027 
L 1681.262366 442.690618 
L 1683.282754 478.556994 
L 1687.323529 455.010795 
L 1689.343917 462.846093 
L 1691.364305 439.912822 
L 1693.384693 467.533486 
L 1695.40508 480.081602 
L 1697.425468 501.760088 
L 1699.445856 557.387799 
L 1701.466243 565.628519 
L 1703.486631 595.688411 
L 1705.507019 602.935011 
L 1707.527406 570.699426 
L 1709.547794 599.742682 
L 1711.568182 574.897526 
L 1715.608957 500.439588 
L 1717.629345 482.086681 
L 1719.649733 439.104493 
L 1721.67012 442.453692 
L 1723.690508 466.160123 
L 1725.710896 527.222102 
L 1727.731283 592.143106 
L 1729.751671 578.99875 
L 1731.772059 607.091516 
L 1737.833222 605.453323 
L 1739.85361 505.067001 
L 1741.873997 439.026792 
L 1743.894385 429.780292 
L 1745.914773 433.765839 
L 1747.93516 398.654571 
L 1749.955548 396.138017 
L 1751.975936 368.361369 
L 1753.996324 437.21471 
L 1756.016711 470.0702 
L 1758.037099 498.945 
L 1768.139037 574.890475 
L 1780.261364 576.04167 
L 1782.281751 564.352622 
L 1784.302139 581.737269 
L 1786.322527 562.805519 
L 1788.342914 557.584217 
L 1790.363302 489.115931 
L 1792.38369 502.456804 
L 1794.404078 467.500493 
L 1796.424465 463.967105 
L 1806.526404 354.741848 
L 1808.546791 360.173562 
L 1810.567179 358.561362 
L 1812.587567 373.86491 
L 1814.607955 340.93336 
L 1816.628342 310.37513 
L 1818.64873 346.925372 
L 1822.689505 389.173879 
L 1824.709893 428.560857 
L 1826.730281 428.298815 
L 1828.750668 489.788173 
L 1830.771056 543.139927 
L 1832.791444 533.32031 
L 1834.811832 531.241295 
L 1836.832219 547.152284 
L 1838.852607 508.645851 
L 1954.014706 528.868805 
L 1956.035094 524.158678 
L 1958.055481 502.598113 
L 1960.075869 486.491726 
L 1962.096257 504.484112 
L 1966.137032 557.392916 
L 1968.15742 562.975399 
L 1980.279746 554.334953 
L 1982.300134 578.587429 
L 1988.361297 702.375234 
L 1990.381684 728.190638 
L 1992.402072 696.125153 
L 1994.42246 674.350519 
L 1996.442848 659.835749 
L 2000.483623 633.982079 
L 2073.21758 454.559595 
L 2075.237968 475.155008 
L 2079.278743 550.751158 
L 2081.299131 536.944027 
L 2380.316511 586.560479 
L 2438.907754 922.486999 
L 2442.948529 885.141406 
L 2446.989305 923.4 
L 2451.03008 905.814631 
L 2467.193182 836.220808 
L 3176.349265 431.817749 
L 3180.39004 457.091831 
L 3182.410428 490.685608 
L 3184.430816 465.884576 
L 3186.451203 485.620348 
L 3190.491979 571.37435 
L 3192.512366 555.502959 
L 3194.532754 502.322149 
L 3196.553142 436.957694 
L 3200.593917 440.402732 
L 3208.675468 315.130952 
L 3210.695856 318.006101 
L 3212.716243 389.744282 
L 3214.736631 425.303157 
L 3216.757019 392.90067 
L 3220.797794 340.861791 
L 3222.818182 374.64507 
L 3224.83857 421.353196 
L 3226.858957 407.539621 
L 3228.879345 389.70486 
L 3230.899733 376.970859 
L 3253.123997 620.16229 
L 3257.164773 499.283394 
L 3259.18516 540.401491 
L 3261.205548 556.238673 
L 3265.246324 517.2585 
L 3267.266711 534.460256 
L 3269.287099 538.705086 
L 3277.36865 453.845015 
L 3287.470588 420.587495 
L 3289.490976 398.096641 
L 3291.511364 416.485186 
L 3293.531751 412.358268 
L 3295.552139 480.567911 
L 3297.572527 425.585917 
L 3299.592914 442.896179 
L 3301.613302 505.607397 
L 3303.63369 496.165672 
L 3305.654078 495.180009 
L 3309.694853 539.641015 
L 3315.756016 411.434707 
L 3317.776404 393.741042 
L 3319.796791 408.936237 
L 3321.817179 422.417649 
L 3323.837567 378.767279 
L 3325.857955 424.450537 
L 3327.878342 448.091454 
L 3331.919118 526.197618 
L 3342.021056 592.034937 
L 3344.041444 595.29507 
L 3346.061832 589.821524 
L 3348.082219 575.086415 
L 3350.102607 591.401079 
L 3352.122995 612.275681 
L 3354.143382 536.236176 
L 3356.16377 507.281877 
L 3358.184158 526.73596 
L 3360.204545 520.967822 
L 3362.224933 561.246978 
L 3364.245321 504.998501 
L 3366.265709 423.163836 
L 3368.286096 446.340811 
L 3370.306484 490.69754 
L 3372.326872 470.697352 
L 3374.347259 521.172469 
L 3376.367647 483.778242 
L 3400.612299 428.405502 
L 3402.632687 410.718394 
L 3404.653075 405.855862 
L 3406.673463 427.806899 
L 3410.714238 466.347198 
L 3412.734626 525.087857 
L 3414.755013 526.341543 
L 3416.775401 524.987814 
L 3418.795789 498.934204 
L 3420.816176 455.210266 
L 3422.836564 442.430011 
L 3424.856952 466.281379 
L 3426.87734 461.47107 
L 3428.897727 491.864861 
L 3432.938503 492.621018 
L 3434.95889 553.489829 
L 3436.979278 572.816331 
L 3438.999666 585.274275 
L 3441.020053 594.982586 
L 3443.040441 553.145169 
L 3445.060829 565.408703 
L 3447.081217 619.865296 
L 3449.101604 643.45432 
L 3451.121992 678.919272 
L 3453.14238 667.211818 
L 3455.162767 673.750327 
L 3457.183155 731.176776 
L 3459.203543 778.379712 
L 3461.22393 760.822558 
L 3463.244318 736.108407 
L 3467.285094 621.432686 
L 3471.325869 586.203321 
L 3473.346257 509.844383 
L 3475.366644 473.182733 
L 3477.387032 440.90206 
L 3479.40742 440.552092 
L 3481.427807 512.089467 
L 3483.448195 535.694209 
L 3485.468583 530.287663 
L 3487.488971 565.470995 
L 3489.509358 591.440342 
L 3491.529746 633.893553 
L 3493.550134 670.816061 
L 3497.590909 607.481342 
L 3499.611297 593.400656 
L 3501.631684 596.246453 
L 3503.652072 637.488896 
L 3505.67246 628.460166 
L 3507.692848 609.129174 
L 3509.713235 592.211128 
L 3511.733623 580.996226 
L 3513.754011 590.749385 
L 3515.774398 563.908966 
L 3517.794786 511.681911 
L 3519.815174 526.549127 
L 3521.835561 528.577456 
L 3523.855949 545.026963 
L 3527.896725 590.260309 
L 3529.917112 597.749332 
L 3531.9375 648.976605 
L 3533.957888 674.126143 
L 3535.978275 711.296382 
L 3537.998663 719.14883 
L 3540.019051 756.540824 
L 3542.039439 778.138795 
L 3544.059826 801.667091 
L 3548.100602 793.485389 
L 3550.120989 761.919219 
L 3552.141377 734.068932 
L 3554.161765 692.948778 
L 3556.182152 687.64992 
L 3558.20254 657.224081 
L 3562.243316 677.07139 
L 3566.284091 749.778187 
L 3568.304479 768.952805 
L 3570.324866 800.3134 
L 3572.345254 819.390278 
L 3582.447193 748.562916 
L 3584.46758 727.498147 
L 3586.487968 711.395305 
L 3590.528743 626.222509 
L 3592.549131 612.49076 
L 3594.569519 612.678481 
L 3596.589906 618.35984 
L 3598.610294 616.882375 
L 3600.630682 619.976065 
L 3602.65107 639.441421 
L 3604.671457 627.71569 
L 3647.099599 684.598418 
L 3649.119987 615.225119 
L 3653.160762 611.957166 
L 3659.221925 641.621229 
L 3661.242313 672.836229 
L 3663.262701 709.210421 
L 3665.283088 722.758616 
L 3667.303476 731.279634 
L 3669.323864 738.934941 
L 3671.344251 732.076115 
L 3673.364639 768.171145 
L 3675.385027 747.832428 
L 3677.405414 786.372225 
L 3679.425802 820.601434 
L 3681.44619 776.163827 
L 3683.466578 775.7934 
L 3685.486965 721.314065 
L 3687.507353 646.806993 
L 3689.527741 651.798124 
L 3691.548128 599.599642 
L 3693.568516 580.330971 
L 3695.588904 616.803471 
L 3697.609291 603.644128 
L 3703.670455 736.460697 
L 3705.690842 760.751796 
L 3707.71123 742.981003 
L 3711.752005 637.801349 
L 3713.772393 602.640997 
L 3715.792781 542.648997 
L 3717.813168 496.158048 
L 3719.833556 473.462233 
L 3721.853944 495.999486 
L 3723.874332 500.430519 
L 3725.894719 510.348781 
L 3727.915107 534.591217 
L 3729.935495 552.410792 
L 3733.97627 522.18136 
L 3735.996658 484.401334 
L 3738.017045 473.803304 
L 3740.037433 567.936849 
L 3744.078209 534.081565 
L 3746.098596 573.139706 
L 3748.118984 565.39675 
L 3750.139372 537.669879 
L 3752.159759 521.867742 
L 3756.200535 479.458349 
L 3758.220922 473.431262 
L 3760.24131 482.974167 
L 3762.261698 493.533284 
L 3764.282086 525.184577 
L 3766.302473 602.575831 
L 3768.322861 597.512205 
L 3772.363636 637.394319 
L 3774.384024 639.568807 
L 3776.404412 639.148069 
L 3778.424799 661.790637 
L 3780.445187 576.489285 
L 3786.50635 564.325554 
L 3788.526738 576.018047 
L 3790.547126 570.432112 
L 3792.567513 532.646255 
L 3794.587901 572.08598 
L 3796.608289 588.461227 
L 3798.628676 557.265551 
L 3952.178142 367.161414 
L 3954.198529 370.69446 
L 3956.218917 363.268721 
L 3958.239305 337.986114 
L 3962.28008 527.768764 
L 3970.361631 468.254085 
L 3972.382019 479.666415 
L 3978.443182 461.896575 
L 3980.46357 397.852918 
L 3982.483957 401.176048 
L 3984.504345 452.337012 
L 3986.524733 462.050437 
L 3988.54512 511.059968 
L 3990.565508 519.278698 
L 3996.626671 466.892389 
L 4002.687834 335.236804 
L 4004.708222 297.660729 
L 4006.72861 308.021303 
L 4008.748997 284.925026 
L 4010.769385 330.327151 
L 4012.789773 363.800438 
L 4014.81016 434.179569 
L 4016.830548 482.226906 
L 4018.850936 475.738291 
L 4020.871324 464.325089 
L 4028.952874 400.849008 
L 4030.973262 401.473195 
L 4032.99365 418.231463 
L 4035.014037 396.071245 
L 4037.034425 418.929915 
L 4039.054813 430.376638 
L 4041.075201 436.475406 
L 4043.095588 476.15542 
L 4045.115976 458.303217 
L 4047.136364 430.282615 
L 4047.136364 430.282615 
" clip-path="url(#p7d347d03ac)" style="fill: none; stroke: #8b2be2; stroke-width: 2.5; stroke-linecap: square"/>
   </g>
   <g id="patch_3">
    <path d="M 585 961.2 
L 585 129.6 
" style="fill: none; stroke: #000000; stroke-width: 0.8; stroke-linejoin: miter; stroke-linecap: square"/>
   </g>
   <g id="patch_4">
    <path d="M 4212 961.2 
L 4212 129.6 
" style="fill: none; stroke: #000000; stroke-width: 0.8; stroke-linejoin: miter; stroke-linecap: square"/>
   </g>
   <g id="patch_5">
    <path d="M 585 961.2 
L 4212 961.2 
" style="fill: none; stroke: #000000; stroke-width: 0.8; stroke-linejoin: miter; stroke-linecap: square"/>
   </g>
   <g id="patch_6">
    <path d="M 585 129.6 
L 4212 129.6 
" style="fill: none; stroke: #000000; stroke-width: 0.8; stroke-linejoin: miter; stroke-linecap: square"/>
   </g>
   <g id="text_19">
    <!-- MT06 -->
    <g transform="translate(2357.308594 123.360937) scale(0.3 -0.3)">
     <defs>
      <path id="DejaVuSans-4d" d="M 628 4666 
L 1569 4666 
L 2759 1491 
L 3956 4666 
L 4897 4666 
L 4897 0 
L 4281 0 
L 4281 4097 
L 3078 897 
L 2444 897 
L 1241 4097 
L 1241 0 
L 628 0 
L 628 4666 
z
" transform="scale(0.015625)"/>
     </defs>
     <use xlink:href="#DejaVuSans-4d"/>
     <use xlink:href="#DejaVuSans-54" x="86.279297"/>
     <use xlink:href="#DejaVuSans-30" x="147.363281"/>
     <use xlink:href="#DejaVuSans-36" x="210.986328"/>
    </g>
   </g>
   <g id="legend_1">
    <g id="patch_7">
     <path d="M 4146.614062 152.278125 
L 4205 152.278125 
Q 4207 152.278125 4207 150.278125 
L 4207 136.6 
Q 4207 134.6 4205 134.6 
L 4146.614062 134.6 
Q 4144.614062 134.6 4144.614062 136.6 
L 4144.614062 150.278125 
Q 4144.614062 152.278125 4146.614062 152.278125 
z
" style="fill: #ffffff; opacity: 0.8; stroke: #cccccc; stroke-linejoin: miter"/>
    </g>
    <g id="line2d_18">
     <path d="M 4148.614062 142.698438 
L 4158.614062 142.698438 
L 4168.614062 142.698438 
" style="fill: none; stroke: #8b2be2; stroke-width: 2.5; stroke-linecap: square"/>
    </g>
    <g id="text_20">
     <!-- mt06 -->
     <g transform="translate(4176.614062 146.198438) scale(0.1 -0.1)">
      <use xlink:href="#DejaVuSans-6d"/>
      <use xlink:href="#DejaVuSans-74" x="97.412109"/>
      <use xlink:href="#DejaVuSans-30" x="136.621094"/>
      <use xlink:href="#DejaVuSans-36" x="200.244141"/>
     </g>
    </g>
   </g>
  </g>
 </g>
 <defs>
  <clipPath id="p7d347d03ac">
   <rect x="585" y="129.6" width="3627" height="831.6"/>
  </clipPath>
 </defs>
</svg>
