<?xml version="1.0" encoding="utf-8" standalone="no"?>
<!DOCTYPE svg PUBLIC "-//W3C//DTD SVG 1.1//EN"
  "http://www.w3.org/Graphics/SVG/1.1/DTD/svg11.dtd">
<svg xmlns:xlink="http://www.w3.org/1999/xlink" width="4680pt" height="1080pt" viewBox="0 0 4680 1080" xmlns="http://www.w3.org/2000/svg" version="1.1">
 <metadata>
  <rdf:RDF xmlns:dc="http://purl.org/dc/elements/1.1/" xmlns:cc="http://creativecommons.org/ns#" xmlns:rdf="http://www.w3.org/1999/02/22-rdf-syntax-ns#">
   <cc:Work>
    <dc:type rdf:resource="http://purl.org/dc/dcmitype/StillImage"/>
    <dc:date>2024-03-25T15:24:58.883142</dc:date>
    <dc:format>image/svg+xml</dc:format>
    <dc:creator>
     <cc:Agent>
      <dc:title>Matplotlib v3.7.2, https://matplotlib.org/</dc:title>
     </cc:Agent>
    </dc:creator>
   </cc:Work>
  </rdf:RDF>
 </metadata>
 <defs>
  <style type="text/css">*{stroke-linejoin: round; stroke-linecap: butt}</style>
 </defs>
 <g id="figure_1">
  <g id="patch_1">
   <path d="M 0 1080 
L 4680 1080 
L 4680 0 
L 0 0 
z
" style="fill: #ffffff"/>
  </g>
  <g id="axes_1">
   <g id="patch_2">
    <path d="M 585 961.2 
L 4212 961.2 
L 4212 129.6 
L 585 129.6 
z
" style="fill: #ffffff"/>
   </g>
   <g id="matplotlib.axis_1">
    <g id="xtick_1">
     <g id="line2d_1">
      <defs>
       <path id="me4206be2ac" d="M 0 0 
L 0 3.5 
" style="stroke: #000000; stroke-width: 0.8"/>
      </defs>
      <g>
       <use xlink:href="#me4206be2ac" x="941.800468" y="961.2" style="stroke: #000000; stroke-width: 0.8"/>
      </g>
     </g>
     <g id="text_1">
      <!-- 2012-07 -->
      <g transform="translate(900.017655 983.396875) scale(0.2 -0.2)">
       <defs>
        <path id="DejaVuSans-32" d="M 1228 531 
L 3431 531 
L 3431 0 
L 469 0 
L 469 531 
Q 828 903 1448 1529 
Q 2069 2156 2228 2338 
Q 2531 2678 2651 2914 
Q 2772 3150 2772 3378 
Q 2772 3750 2511 3984 
Q 2250 4219 1831 4219 
Q 1534 4219 1204 4116 
Q 875 4013 500 3803 
L 500 4441 
Q 881 4594 1212 4672 
Q 1544 4750 1819 4750 
Q 2544 4750 2975 4387 
Q 3406 4025 3406 3419 
Q 3406 3131 3298 2873 
Q 3191 2616 2906 2266 
Q 2828 2175 2409 1742 
Q 1991 1309 1228 531 
z
" transform="scale(0.015625)"/>
        <path id="DejaVuSans-30" d="M 2034 4250 
Q 1547 4250 1301 3770 
Q 1056 3291 1056 2328 
Q 1056 1369 1301 889 
Q 1547 409 2034 409 
Q 2525 409 2770 889 
Q 3016 1369 3016 2328 
Q 3016 3291 2770 3770 
Q 2525 4250 2034 4250 
z
M 2034 4750 
Q 2819 4750 3233 4129 
Q 3647 3509 3647 2328 
Q 3647 1150 3233 529 
Q 2819 -91 2034 -91 
Q 1250 -91 836 529 
Q 422 1150 422 2328 
Q 422 3509 836 4129 
Q 1250 4750 2034 4750 
z
" transform="scale(0.015625)"/>
        <path id="DejaVuSans-31" d="M 794 531 
L 1825 531 
L 1825 4091 
L 703 3866 
L 703 4441 
L 1819 4666 
L 2450 4666 
L 2450 531 
L 3481 531 
L 3481 0 
L 794 0 
L 794 531 
z
" transform="scale(0.015625)"/>
        <path id="DejaVuSans-2d" d="M 313 2009 
L 1997 2009 
L 1997 1497 
L 313 1497 
L 313 2009 
z
" transform="scale(0.015625)"/>
        <path id="DejaVuSans-37" d="M 525 4666 
L 3525 4666 
L 3525 4397 
L 1831 0 
L 1172 0 
L 2766 4134 
L 525 4134 
L 525 4666 
z
" transform="scale(0.015625)"/>
       </defs>
       <use xlink:href="#DejaVuSans-32"/>
       <use xlink:href="#DejaVuSans-30" x="63.623047"/>
       <use xlink:href="#DejaVuSans-31" x="127.246094"/>
       <use xlink:href="#DejaVuSans-32" x="190.869141"/>
       <use xlink:href="#DejaVuSans-2d" x="254.492188"/>
       <use xlink:href="#DejaVuSans-30" x="290.576172"/>
       <use xlink:href="#DejaVuSans-37" x="354.199219"/>
      </g>
     </g>
    </g>
    <g id="xtick_2">
     <g id="line2d_2">
      <g>
       <use xlink:href="#me4206be2ac" x="1313.551805" y="961.2" style="stroke: #000000; stroke-width: 0.8"/>
      </g>
     </g>
     <g id="text_2">
      <!-- 2013-01 -->
      <g transform="translate(1271.768992 983.396875) scale(0.2 -0.2)">
       <defs>
        <path id="DejaVuSans-33" d="M 2597 2516 
Q 3050 2419 3304 2112 
Q 3559 1806 3559 1356 
Q 3559 666 3084 287 
Q 2609 -91 1734 -91 
Q 1441 -91 1130 -33 
Q 819 25 488 141 
L 488 750 
Q 750 597 1062 519 
Q 1375 441 1716 441 
Q 2309 441 2620 675 
Q 2931 909 2931 1356 
Q 2931 1769 2642 2001 
Q 2353 2234 1838 2234 
L 1294 2234 
L 1294 2753 
L 1863 2753 
Q 2328 2753 2575 2939 
Q 2822 3125 2822 3475 
Q 2822 3834 2567 4026 
Q 2313 4219 1838 4219 
Q 1578 4219 1281 4162 
Q 984 4106 628 3988 
L 628 4550 
Q 988 4650 1302 4700 
Q 1616 4750 1894 4750 
Q 2613 4750 3031 4423 
Q 3450 4097 3450 3541 
Q 3450 3153 3228 2886 
Q 3006 2619 2597 2516 
z
" transform="scale(0.015625)"/>
       </defs>
       <use xlink:href="#DejaVuSans-32"/>
       <use xlink:href="#DejaVuSans-30" x="63.623047"/>
       <use xlink:href="#DejaVuSans-31" x="127.246094"/>
       <use xlink:href="#DejaVuSans-33" x="190.869141"/>
       <use xlink:href="#DejaVuSans-2d" x="254.492188"/>
       <use xlink:href="#DejaVuSans-30" x="290.576172"/>
       <use xlink:href="#DejaVuSans-31" x="354.199219"/>
      </g>
     </g>
    </g>
    <g id="xtick_3">
     <g id="line2d_3">
      <g>
       <use xlink:href="#me4206be2ac" x="1679.241979" y="961.2" style="stroke: #000000; stroke-width: 0.8"/>
      </g>
     </g>
     <g id="text_3">
      <!-- 2013-07 -->
      <g transform="translate(1637.459166 983.396875) scale(0.2 -0.2)">
       <use xlink:href="#DejaVuSans-32"/>
       <use xlink:href="#DejaVuSans-30" x="63.623047"/>
       <use xlink:href="#DejaVuSans-31" x="127.246094"/>
       <use xlink:href="#DejaVuSans-33" x="190.869141"/>
       <use xlink:href="#DejaVuSans-2d" x="254.492188"/>
       <use xlink:href="#DejaVuSans-30" x="290.576172"/>
       <use xlink:href="#DejaVuSans-37" x="354.199219"/>
      </g>
     </g>
    </g>
    <g id="xtick_4">
     <g id="line2d_4">
      <g>
       <use xlink:href="#me4206be2ac" x="2050.993316" y="961.2" style="stroke: #000000; stroke-width: 0.8"/>
      </g>
     </g>
     <g id="text_4">
      <!-- 2014-01 -->
      <g transform="translate(2009.210503 983.396875) scale(0.2 -0.2)">
       <defs>
        <path id="DejaVuSans-34" d="M 2419 4116 
L 825 1625 
L 2419 1625 
L 2419 4116 
z
M 2253 4666 
L 3047 4666 
L 3047 1625 
L 3713 1625 
L 3713 1100 
L 3047 1100 
L 3047 0 
L 2419 0 
L 2419 1100 
L 313 1100 
L 313 1709 
L 2253 4666 
z
" transform="scale(0.015625)"/>
       </defs>
       <use xlink:href="#DejaVuSans-32"/>
       <use xlink:href="#DejaVuSans-30" x="63.623047"/>
       <use xlink:href="#DejaVuSans-31" x="127.246094"/>
       <use xlink:href="#DejaVuSans-34" x="190.869141"/>
       <use xlink:href="#DejaVuSans-2d" x="254.492188"/>
       <use xlink:href="#DejaVuSans-30" x="290.576172"/>
       <use xlink:href="#DejaVuSans-31" x="354.199219"/>
      </g>
     </g>
    </g>
    <g id="xtick_5">
     <g id="line2d_5">
      <g>
       <use xlink:href="#me4206be2ac" x="2416.683489" y="961.2" style="stroke: #000000; stroke-width: 0.8"/>
      </g>
     </g>
     <g id="text_5">
      <!-- 2014-07 -->
      <g transform="translate(2374.900677 983.396875) scale(0.2 -0.2)">
       <use xlink:href="#DejaVuSans-32"/>
       <use xlink:href="#DejaVuSans-30" x="63.623047"/>
       <use xlink:href="#DejaVuSans-31" x="127.246094"/>
       <use xlink:href="#DejaVuSans-34" x="190.869141"/>
       <use xlink:href="#DejaVuSans-2d" x="254.492188"/>
       <use xlink:href="#DejaVuSans-30" x="290.576172"/>
       <use xlink:href="#DejaVuSans-37" x="354.199219"/>
      </g>
     </g>
    </g>
    <g id="xtick_6">
     <g id="line2d_6">
      <g>
       <use xlink:href="#me4206be2ac" x="2788.434826" y="961.2" style="stroke: #000000; stroke-width: 0.8"/>
      </g>
     </g>
     <g id="text_6">
      <!-- 2015-01 -->
      <g transform="translate(2746.652014 983.396875) scale(0.2 -0.2)">
       <defs>
        <path id="DejaVuSans-35" d="M 691 4666 
L 3169 4666 
L 3169 4134 
L 1269 4134 
L 1269 2991 
Q 1406 3038 1543 3061 
Q 1681 3084 1819 3084 
Q 2600 3084 3056 2656 
Q 3513 2228 3513 1497 
Q 3513 744 3044 326 
Q 2575 -91 1722 -91 
Q 1428 -91 1123 -41 
Q 819 9 494 109 
L 494 744 
Q 775 591 1075 516 
Q 1375 441 1709 441 
Q 2250 441 2565 725 
Q 2881 1009 2881 1497 
Q 2881 1984 2565 2268 
Q 2250 2553 1709 2553 
Q 1456 2553 1204 2497 
Q 953 2441 691 2322 
L 691 4666 
z
" transform="scale(0.015625)"/>
       </defs>
       <use xlink:href="#DejaVuSans-32"/>
       <use xlink:href="#DejaVuSans-30" x="63.623047"/>
       <use xlink:href="#DejaVuSans-31" x="127.246094"/>
       <use xlink:href="#DejaVuSans-35" x="190.869141"/>
       <use xlink:href="#DejaVuSans-2d" x="254.492188"/>
       <use xlink:href="#DejaVuSans-30" x="290.576172"/>
       <use xlink:href="#DejaVuSans-31" x="354.199219"/>
      </g>
     </g>
    </g>
    <g id="xtick_7">
     <g id="line2d_7">
      <g>
       <use xlink:href="#me4206be2ac" x="3154.125" y="961.2" style="stroke: #000000; stroke-width: 0.8"/>
      </g>
     </g>
     <g id="text_7">
      <!-- 2015-07 -->
      <g transform="translate(3112.342188 983.396875) scale(0.2 -0.2)">
       <use xlink:href="#DejaVuSans-32"/>
       <use xlink:href="#DejaVuSans-30" x="63.623047"/>
       <use xlink:href="#DejaVuSans-31" x="127.246094"/>
       <use xlink:href="#DejaVuSans-35" x="190.869141"/>
       <use xlink:href="#DejaVuSans-2d" x="254.492188"/>
       <use xlink:href="#DejaVuSans-30" x="290.576172"/>
       <use xlink:href="#DejaVuSans-37" x="354.199219"/>
      </g>
     </g>
    </g>
    <g id="xtick_8">
     <g id="line2d_8">
      <g>
       <use xlink:href="#me4206be2ac" x="3525.876337" y="961.2" style="stroke: #000000; stroke-width: 0.8"/>
      </g>
     </g>
     <g id="text_8">
      <!-- 2016-01 -->
      <g transform="translate(3484.093524 983.396875) scale(0.2 -0.2)">
       <defs>
        <path id="DejaVuSans-36" d="M 2113 2584 
Q 1688 2584 1439 2293 
Q 1191 2003 1191 1497 
Q 1191 994 1439 701 
Q 1688 409 2113 409 
Q 2538 409 2786 701 
Q 3034 994 3034 1497 
Q 3034 2003 2786 2293 
Q 2538 2584 2113 2584 
z
M 3366 4563 
L 3366 3988 
Q 3128 4100 2886 4159 
Q 2644 4219 2406 4219 
Q 1781 4219 1451 3797 
Q 1122 3375 1075 2522 
Q 1259 2794 1537 2939 
Q 1816 3084 2150 3084 
Q 2853 3084 3261 2657 
Q 3669 2231 3669 1497 
Q 3669 778 3244 343 
Q 2819 -91 2113 -91 
Q 1303 -91 875 529 
Q 447 1150 447 2328 
Q 447 3434 972 4092 
Q 1497 4750 2381 4750 
Q 2619 4750 2861 4703 
Q 3103 4656 3366 4563 
z
" transform="scale(0.015625)"/>
       </defs>
       <use xlink:href="#DejaVuSans-32"/>
       <use xlink:href="#DejaVuSans-30" x="63.623047"/>
       <use xlink:href="#DejaVuSans-31" x="127.246094"/>
       <use xlink:href="#DejaVuSans-36" x="190.869141"/>
       <use xlink:href="#DejaVuSans-2d" x="254.492188"/>
       <use xlink:href="#DejaVuSans-30" x="290.576172"/>
       <use xlink:href="#DejaVuSans-31" x="354.199219"/>
      </g>
     </g>
    </g>
    <g id="xtick_9">
     <g id="line2d_9">
      <g>
       <use xlink:href="#me4206be2ac" x="3893.586898" y="961.2" style="stroke: #000000; stroke-width: 0.8"/>
      </g>
     </g>
     <g id="text_9">
      <!-- 2016-07 -->
      <g transform="translate(3851.804086 983.396875) scale(0.2 -0.2)">
       <use xlink:href="#DejaVuSans-32"/>
       <use xlink:href="#DejaVuSans-30" x="63.623047"/>
       <use xlink:href="#DejaVuSans-31" x="127.246094"/>
       <use xlink:href="#DejaVuSans-36" x="190.869141"/>
       <use xlink:href="#DejaVuSans-2d" x="254.492188"/>
       <use xlink:href="#DejaVuSans-30" x="290.576172"/>
       <use xlink:href="#DejaVuSans-37" x="354.199219"/>
      </g>
     </g>
    </g>
    <g id="text_10">
     <!-- Time -->
     <g transform="translate(2374.032813 1006.753125) scale(0.2 -0.2)">
      <defs>
       <path id="DejaVuSans-54" d="M -19 4666 
L 3928 4666 
L 3928 4134 
L 2272 4134 
L 2272 0 
L 1638 0 
L 1638 4134 
L -19 4134 
L -19 4666 
z
" transform="scale(0.015625)"/>
       <path id="DejaVuSans-69" d="M 603 3500 
L 1178 3500 
L 1178 0 
L 603 0 
L 603 3500 
z
M 603 4863 
L 1178 4863 
L 1178 4134 
L 603 4134 
L 603 4863 
z
" transform="scale(0.015625)"/>
       <path id="DejaVuSans-6d" d="M 3328 2828 
Q 3544 3216 3844 3400 
Q 4144 3584 4550 3584 
Q 5097 3584 5394 3201 
Q 5691 2819 5691 2113 
L 5691 0 
L 5113 0 
L 5113 2094 
Q 5113 2597 4934 2840 
Q 4756 3084 4391 3084 
Q 3944 3084 3684 2787 
Q 3425 2491 3425 1978 
L 3425 0 
L 2847 0 
L 2847 2094 
Q 2847 2600 2669 2842 
Q 2491 3084 2119 3084 
Q 1678 3084 1418 2786 
Q 1159 2488 1159 1978 
L 1159 0 
L 581 0 
L 581 3500 
L 1159 3500 
L 1159 2956 
Q 1356 3278 1631 3431 
Q 1906 3584 2284 3584 
Q 2666 3584 2933 3390 
Q 3200 3197 3328 2828 
z
" transform="scale(0.015625)"/>
       <path id="DejaVuSans-65" d="M 3597 1894 
L 3597 1613 
L 953 1613 
Q 991 1019 1311 708 
Q 1631 397 2203 397 
Q 2534 397 2845 478 
Q 3156 559 3463 722 
L 3463 178 
Q 3153 47 2828 -22 
Q 2503 -91 2169 -91 
Q 1331 -91 842 396 
Q 353 884 353 1716 
Q 353 2575 817 3079 
Q 1281 3584 2069 3584 
Q 2775 3584 3186 3129 
Q 3597 2675 3597 1894 
z
M 3022 2063 
Q 3016 2534 2758 2815 
Q 2500 3097 2075 3097 
Q 1594 3097 1305 2825 
Q 1016 2553 972 2059 
L 3022 2063 
z
" transform="scale(0.015625)"/>
      </defs>
      <use xlink:href="#DejaVuSans-54"/>
      <use xlink:href="#DejaVuSans-69" x="57.958984"/>
      <use xlink:href="#DejaVuSans-6d" x="85.742188"/>
      <use xlink:href="#DejaVuSans-65" x="183.154297"/>
     </g>
    </g>
   </g>
   <g id="matplotlib.axis_2">
    <g id="ytick_1">
     <g id="line2d_10">
      <defs>
       <path id="mc4e45c66f8" d="M 0 0 
L -3.5 0 
" style="stroke: #000000; stroke-width: 0.8"/>
      </defs>
      <g>
       <use xlink:href="#mc4e45c66f8" x="585" y="821.450352" style="stroke: #000000; stroke-width: 0.8"/>
      </g>
     </g>
     <g id="text_11">
      <!-- −0.001 -->
      <g transform="translate(503.984375 829.048789) scale(0.2 -0.2)">
       <defs>
        <path id="DejaVuSans-2212" d="M 678 2272 
L 4684 2272 
L 4684 1741 
L 678 1741 
L 678 2272 
z
" transform="scale(0.015625)"/>
        <path id="DejaVuSans-2e" d="M 684 794 
L 1344 794 
L 1344 0 
L 684 0 
L 684 794 
z
" transform="scale(0.015625)"/>
       </defs>
       <use xlink:href="#DejaVuSans-2212"/>
       <use xlink:href="#DejaVuSans-30" x="83.789062"/>
       <use xlink:href="#DejaVuSans-2e" x="147.412109"/>
       <use xlink:href="#DejaVuSans-30" x="179.199219"/>
       <use xlink:href="#DejaVuSans-30" x="242.822266"/>
       <use xlink:href="#DejaVuSans-31" x="306.445312"/>
      </g>
     </g>
    </g>
    <g id="ytick_2">
     <g id="line2d_11">
      <g>
       <use xlink:href="#mc4e45c66f8" x="585" y="646.334214" style="stroke: #000000; stroke-width: 0.8"/>
      </g>
     </g>
     <g id="text_12">
      <!-- 0.000 -->
      <g transform="translate(520.74375 653.932651) scale(0.2 -0.2)">
       <use xlink:href="#DejaVuSans-30"/>
       <use xlink:href="#DejaVuSans-2e" x="63.623047"/>
       <use xlink:href="#DejaVuSans-30" x="95.410156"/>
       <use xlink:href="#DejaVuSans-30" x="159.033203"/>
       <use xlink:href="#DejaVuSans-30" x="222.65625"/>
      </g>
     </g>
    </g>
    <g id="ytick_3">
     <g id="line2d_12">
      <g>
       <use xlink:href="#mc4e45c66f8" x="585" y="471.218075" style="stroke: #000000; stroke-width: 0.8"/>
      </g>
     </g>
     <g id="text_13">
      <!-- 0.001 -->
      <g transform="translate(520.74375 478.816513) scale(0.2 -0.2)">
       <use xlink:href="#DejaVuSans-30"/>
       <use xlink:href="#DejaVuSans-2e" x="63.623047"/>
       <use xlink:href="#DejaVuSans-30" x="95.410156"/>
       <use xlink:href="#DejaVuSans-30" x="159.033203"/>
       <use xlink:href="#DejaVuSans-31" x="222.65625"/>
      </g>
     </g>
    </g>
    <g id="ytick_4">
     <g id="line2d_13">
      <g>
       <use xlink:href="#mc4e45c66f8" x="585" y="296.101937" style="stroke: #000000; stroke-width: 0.8"/>
      </g>
     </g>
     <g id="text_14">
      <!-- 0.002 -->
      <g transform="translate(520.74375 303.700375) scale(0.2 -0.2)">
       <use xlink:href="#DejaVuSans-30"/>
       <use xlink:href="#DejaVuSans-2e" x="63.623047"/>
       <use xlink:href="#DejaVuSans-30" x="95.410156"/>
       <use xlink:href="#DejaVuSans-30" x="159.033203"/>
       <use xlink:href="#DejaVuSans-32" x="222.65625"/>
      </g>
     </g>
    </g>
    <g id="text_15">
     <!-- North(m) -->
     <g transform="translate(495.825 590.9125) rotate(-90) scale(0.2 -0.2)">
      <defs>
       <path id="DejaVuSans-4e" d="M 628 4666 
L 1478 4666 
L 3547 763 
L 3547 4666 
L 4159 4666 
L 4159 0 
L 3309 0 
L 1241 3903 
L 1241 0 
L 628 0 
L 628 4666 
z
" transform="scale(0.015625)"/>
       <path id="DejaVuSans-6f" d="M 1959 3097 
Q 1497 3097 1228 2736 
Q 959 2375 959 1747 
Q 959 1119 1226 758 
Q 1494 397 1959 397 
Q 2419 397 2687 759 
Q 2956 1122 2956 1747 
Q 2956 2369 2687 2733 
Q 2419 3097 1959 3097 
z
M 1959 3584 
Q 2709 3584 3137 3096 
Q 3566 2609 3566 1747 
Q 3566 888 3137 398 
Q 2709 -91 1959 -91 
Q 1206 -91 779 398 
Q 353 888 353 1747 
Q 353 2609 779 3096 
Q 1206 3584 1959 3584 
z
" transform="scale(0.015625)"/>
       <path id="DejaVuSans-72" d="M 2631 2963 
Q 2534 3019 2420 3045 
Q 2306 3072 2169 3072 
Q 1681 3072 1420 2755 
Q 1159 2438 1159 1844 
L 1159 0 
L 581 0 
L 581 3500 
L 1159 3500 
L 1159 2956 
Q 1341 3275 1631 3429 
Q 1922 3584 2338 3584 
Q 2397 3584 2469 3576 
Q 2541 3569 2628 3553 
L 2631 2963 
z
" transform="scale(0.015625)"/>
       <path id="DejaVuSans-74" d="M 1172 4494 
L 1172 3500 
L 2356 3500 
L 2356 3053 
L 1172 3053 
L 1172 1153 
Q 1172 725 1289 603 
Q 1406 481 1766 481 
L 2356 481 
L 2356 0 
L 1766 0 
Q 1100 0 847 248 
Q 594 497 594 1153 
L 594 3053 
L 172 3053 
L 172 3500 
L 594 3500 
L 594 4494 
L 1172 4494 
z
" transform="scale(0.015625)"/>
       <path id="DejaVuSans-68" d="M 3513 2113 
L 3513 0 
L 2938 0 
L 2938 2094 
Q 2938 2591 2744 2837 
Q 2550 3084 2163 3084 
Q 1697 3084 1428 2787 
Q 1159 2491 1159 1978 
L 1159 0 
L 581 0 
L 581 4863 
L 1159 4863 
L 1159 2956 
Q 1366 3272 1645 3428 
Q 1925 3584 2291 3584 
Q 2894 3584 3203 3211 
Q 3513 2838 3513 2113 
z
" transform="scale(0.015625)"/>
       <path id="DejaVuSans-28" d="M 1984 4856 
Q 1566 4138 1362 3434 
Q 1159 2731 1159 2009 
Q 1159 1288 1364 580 
Q 1569 -128 1984 -844 
L 1484 -844 
Q 1016 -109 783 600 
Q 550 1309 550 2009 
Q 550 2706 781 3412 
Q 1013 4119 1484 4856 
L 1984 4856 
z
" transform="scale(0.015625)"/>
       <path id="DejaVuSans-29" d="M 513 4856 
L 1013 4856 
Q 1481 4119 1714 3412 
Q 1947 2706 1947 2009 
Q 1947 1309 1714 600 
Q 1481 -109 1013 -844 
L 513 -844 
Q 928 -128 1133 580 
Q 1338 1288 1338 2009 
Q 1338 2731 1133 3434 
Q 928 4138 513 4856 
z
" transform="scale(0.015625)"/>
      </defs>
      <use xlink:href="#DejaVuSans-4e"/>
      <use xlink:href="#DejaVuSans-6f" x="74.804688"/>
      <use xlink:href="#DejaVuSans-72" x="135.986328"/>
      <use xlink:href="#DejaVuSans-74" x="177.099609"/>
      <use xlink:href="#DejaVuSans-68" x="216.308594"/>
      <use xlink:href="#DejaVuSans-28" x="279.6875"/>
      <use xlink:href="#DejaVuSans-6d" x="318.701172"/>
      <use xlink:href="#DejaVuSans-29" x="416.113281"/>
     </g>
    </g>
   </g>
   <g id="line2d_14">
    <path d="M 749.863636 536.975321 
L 755.924799 713.789272 
L 761.985963 767.383885 
L 764.00635 779.696923 
L 766.026738 810.235582 
L 768.047126 879.910643 
L 770.067513 919.075127 
L 772.087901 906.925505 
L 774.108289 905.276081 
L 776.128676 874.313275 
L 790.27139 550.7756 
L 792.291778 572.636509 
L 794.312166 675.902535 
L 796.332553 723.03039 
L 798.352941 715.437932 
L 800.373329 736.779324 
L 802.393717 766.847368 
L 806.434492 805.533894 
L 808.45488 745.167149 
L 810.475267 718.747731 
L 812.495655 665.683198 
L 824.617981 636.018159 
L 830.679144 772.164032 
L 832.699532 738.366112 
L 834.71992 805.063262 
L 836.740307 823.998569 
L 844.821858 658.956876 
L 850.883021 512.589508 
L 852.903409 489.863063 
L 856.944184 655.416338 
L 860.98496 688.321893 
L 867.046123 745.205253 
L 869.066511 713.205827 
L 873.107286 741.328726 
L 875.127674 748.160001 
L 877.148061 825.387266 
L 879.168449 837.904298 
L 881.188837 889.072878 
L 883.209225 923.4 
L 885.229612 846.239248 
L 889.270388 812.638546 
L 891.290775 785.043724 
L 893.311163 789.793286 
L 895.331551 731.607123 
L 897.351939 647.471419 
L 899.372326 756.056198 
L 901.392714 806.728622 
L 903.413102 739.827757 
L 905.433489 701.46354 
L 907.453877 629.736223 
L 909.474265 612.125633 
L 913.51504 492.294594 
L 915.535428 447.898331 
L 917.555816 458.900161 
L 933.718917 698.33605 
L 937.759693 793.185286 
L 1044.840241 555.173226 
L 1048.881016 685.447103 
L 1212.53242 552.292593 
L 1214.552807 524.279788 
L 1216.573195 558.575916 
L 1226.675134 629.844261 
L 1230.715909 646.85716 
L 1232.736297 666.171534 
L 1234.756684 714.170471 
L 1236.777072 719.95497 
L 1238.79746 763.977653 
L 1240.817848 797.251504 
L 1242.838235 724.816377 
L 1252.940174 703.911283 
L 1333.755682 452.46181 
L 1335.77607 558.930209 
L 1337.796457 652.561062 
L 1341.837233 546.299559 
L 1372.143048 553.505162 
L 1374.163436 556.203696 
L 1376.183824 629.332737 
L 1378.204211 585.864689 
L 1382.244987 562.608202 
L 1384.265374 618.099505 
L 1386.285762 579.81132 
L 1388.30615 516.290235 
L 1390.326537 386.954449 
L 1392.346925 436.01235 
L 1394.367313 531.443254 
L 1398.408088 523.363869 
L 1400.428476 652.112973 
L 1402.448864 736.860704 
L 1404.469251 809.750372 
L 1406.489639 832.860586 
L 1412.550802 722.830279 
L 1414.57119 613.719498 
L 1416.591578 584.480873 
L 1418.611965 605.235941 
L 1420.632353 608.356581 
L 1422.652741 618.771431 
L 1424.673128 609.823753 
L 1426.693516 605.560033 
L 1428.713904 623.385638 
L 1432.754679 630.1496 
L 1434.775067 636.156171 
L 1436.795455 642.697776 
L 1442.856618 748.013054 
L 1444.877005 763.862435 
L 1446.897393 772.237476 
L 1454.978944 735.997324 
L 1456.999332 750.948952 
L 1459.019719 720.86244 
L 1461.040107 674.063152 
L 1463.060495 668.74095 
L 1465.080882 690.440903 
L 1471.142045 826.001029 
L 1473.162433 699.325918 
L 1475.182821 685.168955 
L 1479.223596 604.711296 
L 1481.243984 460.730834 
L 1483.264372 389.224234 
L 1485.284759 356.012154 
L 1487.305147 473.772568 
L 1489.325535 534.008366 
L 1491.345922 548.086379 
L 1493.36631 465.526302 
L 1495.386698 596.600458 
L 1497.407086 555.044289 
L 1501.447861 468.604222 
L 1669.14004 584.5732 
L 1673.180816 526.45782 
L 1677.221591 618.793186 
L 1681.262366 698.334774 
L 1683.282754 843.208991 
L 1687.323529 825.494774 
L 1689.343917 836.269729 
L 1691.364305 732.45666 
L 1693.384693 671.093736 
L 1695.40508 677.406564 
L 1697.425468 615.103585 
L 1699.445856 592.393908 
L 1701.466243 612.526995 
L 1703.486631 600.367365 
L 1705.507019 732.97169 
L 1707.527406 777.568269 
L 1709.547794 714.866112 
L 1711.568182 672.666145 
L 1715.608957 726.440247 
L 1717.629345 711.49663 
L 1719.649733 629.104015 
L 1721.67012 646.476161 
L 1723.690508 606.949047 
L 1725.710896 652.282479 
L 1727.731283 657.793014 
L 1729.751671 598.585743 
L 1731.772059 523.056123 
L 1737.833222 528.683186 
L 1739.85361 391.256509 
L 1741.873997 379.395455 
L 1743.894385 357.094036 
L 1745.914773 416.68548 
L 1747.93516 279.871912 
L 1749.955548 306.264651 
L 1751.975936 261.847403 
L 1753.996324 336.1819 
L 1756.016711 345.517335 
L 1758.037099 450.722208 
L 1768.139037 768.177541 
L 1780.261364 600.915796 
L 1782.281751 538.962898 
L 1784.302139 485.295196 
L 1786.322527 506.962847 
L 1788.342914 524.11733 
L 1790.363302 509.749133 
L 1792.38369 521.569839 
L 1794.404078 639.786361 
L 1796.424465 652.285611 
L 1806.526404 685.168596 
L 1808.546791 609.38901 
L 1810.567179 625.03077 
L 1812.587567 614.158329 
L 1814.607955 544.806878 
L 1816.628342 546.033174 
L 1818.64873 510.268577 
L 1822.689505 560.694686 
L 1824.709893 568.545829 
L 1826.730281 530.690155 
L 1828.750668 603.673742 
L 1830.771056 620.792086 
L 1832.791444 667.881471 
L 1834.811832 682.286908 
L 1836.832219 611.426626 
L 1838.852607 609.980802 
L 1954.014706 408.669433 
L 1956.035094 394.899299 
L 1960.075869 464.994921 
L 1962.096257 507.54338 
L 1966.137032 662.876542 
L 1968.15742 544.423906 
L 1980.279746 418.619232 
L 1982.300134 424.518708 
L 1988.361297 503.353282 
L 1990.381684 487.498333 
L 1992.402072 558.211499 
L 1994.42246 562.472424 
L 1996.442848 566.34136 
L 2000.483623 481.616407 
L 2073.21758 670.325342 
L 2075.237968 649.900689 
L 2079.278743 777.626137 
L 2081.299131 834.743739 
L 2380.316511 765.692369 
L 2438.907754 441.777549 
L 2442.948529 508.749497 
L 2446.989305 483.427766 
L 2451.03008 508.609095 
L 2467.193182 272.924558 
L 3176.349265 596.350393 
L 3178.369652 609.805921 
L 3180.39004 569.116731 
L 3182.410428 556.767858 
L 3184.430816 597.457931 
L 3186.451203 604.806418 
L 3190.491979 551.365186 
L 3192.512366 505.629379 
L 3194.532754 530.498928 
L 3196.553142 362.429219 
L 3200.593917 375.054855 
L 3208.675468 545.874008 
L 3210.695856 609.049359 
L 3212.716243 702.441977 
L 3214.736631 650.210034 
L 3216.757019 667.429424 
L 3218.777406 631.714362 
L 3220.797794 535.512096 
L 3222.818182 488.573263 
L 3224.83857 447.058367 
L 3226.858957 370.253377 
L 3228.879345 436.844216 
L 3230.899733 394.706904 
L 3253.123997 612.584778 
L 3257.164773 545.808398 
L 3259.18516 559.14485 
L 3261.205548 590.45185 
L 3265.246324 695.007563 
L 3267.266711 756.692383 
L 3269.287099 734.332452 
L 3277.36865 671.570574 
L 3287.470588 825.227926 
L 3289.490976 811.551923 
L 3291.511364 791.298046 
L 3293.531751 712.478727 
L 3295.552139 660.678268 
L 3297.572527 531.843824 
L 3299.592914 492.284213 
L 3301.613302 571.460296 
L 3303.63369 627.745224 
L 3305.654078 561.185407 
L 3309.694853 401.427925 
L 3315.756016 311.19002 
L 3317.776404 212.20583 
L 3319.796791 185.217895 
L 3321.817179 325.407761 
L 3323.837567 477.561065 
L 3325.857955 401.002716 
L 3327.878342 448.419076 
L 3329.89873 470.829744 
L 3331.919118 501.38697 
L 3340.000668 450.69382 
L 3344.041444 615.160777 
L 3346.061832 607.605478 
L 3348.082219 607.69695 
L 3352.122995 568.326068 
L 3354.143382 539.566188 
L 3356.16377 477.884286 
L 3358.184158 375.326402 
L 3360.204545 378.252009 
L 3362.224933 458.916015 
L 3366.265709 513.949284 
L 3370.306484 597.619641 
L 3374.347259 761.718087 
L 3376.367647 729.515974 
L 3400.612299 474.35363 
L 3402.632687 436.376128 
L 3404.653075 426.125849 
L 3406.673463 446.723891 
L 3410.714238 501.129442 
L 3412.734626 522.061544 
L 3414.755013 499.654565 
L 3416.775401 516.974308 
L 3418.795789 483.785178 
L 3420.816176 471.02896 
L 3422.836564 451.468655 
L 3424.856952 421.645287 
L 3426.87734 410.340404 
L 3428.897727 415.421765 
L 3432.938503 433.065198 
L 3434.95889 463.225597 
L 3436.979278 459.059283 
L 3441.020053 465.942385 
L 3443.040441 486.626575 
L 3445.060829 450.148606 
L 3447.081217 486.683909 
L 3449.101604 504.359901 
L 3451.121992 526.306111 
L 3453.14238 524.568089 
L 3457.183155 573.056773 
L 3459.203543 622.876066 
L 3461.22393 597.43379 
L 3463.244318 584.406514 
L 3465.264706 568.977177 
L 3467.285094 550.296538 
L 3469.305481 529.167282 
L 3471.325869 514.765535 
L 3473.346257 482.818678 
L 3475.366644 487.813535 
L 3477.387032 474.910598 
L 3479.40742 442.538863 
L 3481.427807 461.040262 
L 3483.448195 466.804751 
L 3485.468583 447.708008 
L 3487.488971 471.447021 
L 3489.509358 458.768352 
L 3491.529746 474.023644 
L 3493.550134 498.405725 
L 3497.590909 522.452793 
L 3499.611297 531.541134 
L 3501.631684 533.867991 
L 3503.652072 602.735551 
L 3505.67246 613.352427 
L 3509.713235 707.744451 
L 3511.733623 659.446091 
L 3513.754011 629.579988 
L 3515.774398 567.500569 
L 3517.794786 475.265857 
L 3519.815174 463.824035 
L 3521.835561 411.801982 
L 3523.855949 364.940733 
L 3527.896725 438.545649 
L 3529.917112 485.273044 
L 3531.9375 579.575399 
L 3533.957888 608.508274 
L 3535.978275 664.698699 
L 3537.998663 697.361519 
L 3540.019051 784.949657 
L 3542.039439 810.970647 
L 3544.059826 885.826886 
L 3548.100602 903.85295 
L 3550.120989 898.502716 
L 3552.141377 867.268963 
L 3556.182152 681.305079 
L 3558.20254 550.073759 
L 3560.222928 505.955235 
L 3562.243316 457.809189 
L 3564.263703 397.197357 
L 3566.284091 390.897109 
L 3568.304479 421.797285 
L 3570.324866 458.365693 
L 3572.345254 473.872599 
L 3582.447193 586.356649 
L 3584.46758 630.535428 
L 3586.487968 725.878096 
L 3590.528743 687.029014 
L 3592.549131 632.975509 
L 3594.569519 575.444075 
L 3596.589906 550.413003 
L 3598.610294 536.618661 
L 3600.630682 492.577237 
L 3602.65107 580.63612 
L 3604.671457 585.577647 
L 3647.099599 561.483098 
L 3649.119987 549.084159 
L 3653.160762 517.541719 
L 3659.221925 610.765446 
L 3661.242313 656.967037 
L 3663.262701 616.984977 
L 3665.283088 647.250156 
L 3667.303476 604.022808 
L 3669.323864 568.396958 
L 3671.344251 446.454935 
L 3673.364639 504.707986 
L 3675.385027 489.560836 
L 3677.405414 534.658363 
L 3679.425802 587.217587 
L 3681.44619 610.538738 
L 3683.466578 654.014453 
L 3685.486965 662.580433 
L 3687.507353 654.245288 
L 3689.527741 634.678193 
L 3691.548128 581.308153 
L 3693.568516 480.886163 
L 3695.588904 492.797351 
L 3697.609291 480.000457 
L 3703.670455 615.279543 
L 3705.690842 747.587333 
L 3707.71123 865.699425 
L 3711.752005 756.166973 
L 3715.792781 709.802161 
L 3717.813168 637.689685 
L 3719.833556 601.019407 
L 3721.853944 557.973289 
L 3723.874332 598.533576 
L 3725.894719 611.995974 
L 3727.915107 621.656176 
L 3729.935495 624.94334 
L 3733.97627 651.034903 
L 3735.996658 656.707698 
L 3738.017045 691.979546 
L 3740.037433 784.816718 
L 3744.078209 826.732694 
L 3746.098596 803.590617 
L 3748.118984 763.324145 
L 3750.139372 683.951479 
L 3752.159759 619.122286 
L 3756.200535 481.749154 
L 3758.220922 443.569978 
L 3760.24131 481.387534 
L 3762.261698 479.787374 
L 3764.282086 560.380724 
L 3766.302473 630.510588 
L 3768.322861 652.933218 
L 3772.363636 648.601504 
L 3774.384024 574.463757 
L 3776.404412 536.366883 
L 3778.424799 504.971864 
L 3780.445187 463.895127 
L 3786.50635 482.726925 
L 3788.526738 573.505963 
L 3792.567513 665.474763 
L 3794.587901 694.586813 
L 3796.608289 672.340795 
L 3798.628676 750.95062 
L 3952.178142 448.559478 
L 3954.198529 443.14179 
L 3956.218917 450.713891 
L 3958.239305 411.170158 
L 3960.259693 448.388988 
L 3962.28008 359.325195 
L 3970.361631 167.4 
L 3972.382019 189.427039 
L 3978.443182 374.65774 
L 3980.46357 410.121095 
L 3982.483957 437.014065 
L 3984.504345 596.994708 
L 3986.524733 673.69519 
L 3988.54512 697.606721 
L 3990.565508 714.807927 
L 3996.626671 723.900946 
L 4002.687834 448.636997 
L 4004.708222 493.938725 
L 4006.72861 517.509972 
L 4008.748997 595.145329 
L 4010.769385 628.151923 
L 4012.789773 638.178858 
L 4014.81016 767.076689 
L 4016.830548 800.259478 
L 4018.850936 792.046871 
L 4020.871324 739.951036 
L 4028.952874 552.235748 
L 4030.973262 451.920126 
L 4032.99365 417.187256 
L 4035.014037 404.687147 
L 4037.034425 410.511003 
L 4039.054813 407.918535 
L 4041.075201 536.007256 
L 4043.095588 687.87784 
L 4045.115976 823.34061 
L 4047.136364 814.089576 
L 4047.136364 814.089576 
" clip-path="url(#p7e82999b7c)" style="fill: none; stroke: #a3a3a3; stroke-width: 2.5; stroke-linecap: square"/>
   </g>
   <g id="patch_3">
    <path d="M 585 961.2 
L 585 129.6 
" style="fill: none; stroke: #000000; stroke-width: 0.8; stroke-linejoin: miter; stroke-linecap: square"/>
   </g>
   <g id="patch_4">
    <path d="M 4212 961.2 
L 4212 129.6 
" style="fill: none; stroke: #000000; stroke-width: 0.8; stroke-linejoin: miter; stroke-linecap: square"/>
   </g>
   <g id="patch_5">
    <path d="M 585 961.2 
L 4212 961.2 
" style="fill: none; stroke: #000000; stroke-width: 0.8; stroke-linejoin: miter; stroke-linecap: square"/>
   </g>
   <g id="patch_6">
    <path d="M 585 129.6 
L 4212 129.6 
" style="fill: none; stroke: #000000; stroke-width: 0.8; stroke-linejoin: miter; stroke-linecap: square"/>
   </g>
   <g id="text_16">
    <!-- PARR -->
    <g transform="translate(2359.305469 123.360937) scale(0.3 -0.3)">
     <defs>
      <path id="DejaVuSans-50" d="M 1259 4147 
L 1259 2394 
L 2053 2394 
Q 2494 2394 2734 2622 
Q 2975 2850 2975 3272 
Q 2975 3691 2734 3919 
Q 2494 4147 2053 4147 
L 1259 4147 
z
M 628 4666 
L 2053 4666 
Q 2838 4666 3239 4311 
Q 3641 3956 3641 3272 
Q 3641 2581 3239 2228 
Q 2838 1875 2053 1875 
L 1259 1875 
L 1259 0 
L 628 0 
L 628 4666 
z
" transform="scale(0.015625)"/>
      <path id="DejaVuSans-41" d="M 2188 4044 
L 1331 1722 
L 3047 1722 
L 2188 4044 
z
M 1831 4666 
L 2547 4666 
L 4325 0 
L 3669 0 
L 3244 1197 
L 1141 1197 
L 716 0 
L 50 0 
L 1831 4666 
z
" transform="scale(0.015625)"/>
      <path id="DejaVuSans-52" d="M 2841 2188 
Q 3044 2119 3236 1894 
Q 3428 1669 3622 1275 
L 4263 0 
L 3584 0 
L 2988 1197 
Q 2756 1666 2539 1819 
Q 2322 1972 1947 1972 
L 1259 1972 
L 1259 0 
L 628 0 
L 628 4666 
L 2053 4666 
Q 2853 4666 3247 4331 
Q 3641 3997 3641 3322 
Q 3641 2881 3436 2590 
Q 3231 2300 2841 2188 
z
M 1259 4147 
L 1259 2491 
L 2053 2491 
Q 2509 2491 2742 2702 
Q 2975 2913 2975 3322 
Q 2975 3731 2742 3939 
Q 2509 4147 2053 4147 
L 1259 4147 
z
" transform="scale(0.015625)"/>
     </defs>
     <use xlink:href="#DejaVuSans-50"/>
     <use xlink:href="#DejaVuSans-41" x="53.927734"/>
     <use xlink:href="#DejaVuSans-52" x="122.335938"/>
     <use xlink:href="#DejaVuSans-52" x="191.818359"/>
    </g>
   </g>
   <g id="legend_1">
    <g id="patch_7">
     <path d="M 4152.476562 152.278125 
L 4205 152.278125 
Q 4207 152.278125 4207 150.278125 
L 4207 136.6 
Q 4207 134.6 4205 134.6 
L 4152.476562 134.6 
Q 4150.476562 134.6 4150.476562 136.6 
L 4150.476562 150.278125 
Q 4150.476562 152.278125 4152.476562 152.278125 
z
" style="fill: #ffffff; opacity: 0.8; stroke: #cccccc; stroke-linejoin: miter"/>
    </g>
    <g id="line2d_15">
     <path d="M 4154.476562 142.698438 
L 4164.476562 142.698438 
L 4174.476562 142.698438 
" style="fill: none; stroke: #a3a3a3; stroke-width: 2.5; stroke-linecap: square"/>
    </g>
    <g id="text_17">
     <!-- parr -->
     <g transform="translate(4182.476562 146.198438) scale(0.1 -0.1)">
      <defs>
       <path id="DejaVuSans-70" d="M 1159 525 
L 1159 -1331 
L 581 -1331 
L 581 3500 
L 1159 3500 
L 1159 2969 
Q 1341 3281 1617 3432 
Q 1894 3584 2278 3584 
Q 2916 3584 3314 3078 
Q 3713 2572 3713 1747 
Q 3713 922 3314 415 
Q 2916 -91 2278 -91 
Q 1894 -91 1617 61 
Q 1341 213 1159 525 
z
M 3116 1747 
Q 3116 2381 2855 2742 
Q 2594 3103 2138 3103 
Q 1681 3103 1420 2742 
Q 1159 2381 1159 1747 
Q 1159 1113 1420 752 
Q 1681 391 2138 391 
Q 2594 391 2855 752 
Q 3116 1113 3116 1747 
z
" transform="scale(0.015625)"/>
       <path id="DejaVuSans-61" d="M 2194 1759 
Q 1497 1759 1228 1600 
Q 959 1441 959 1056 
Q 959 750 1161 570 
Q 1363 391 1709 391 
Q 2188 391 2477 730 
Q 2766 1069 2766 1631 
L 2766 1759 
L 2194 1759 
z
M 3341 1997 
L 3341 0 
L 2766 0 
L 2766 531 
Q 2569 213 2275 61 
Q 1981 -91 1556 -91 
Q 1019 -91 701 211 
Q 384 513 384 1019 
Q 384 1609 779 1909 
Q 1175 2209 1959 2209 
L 2766 2209 
L 2766 2266 
Q 2766 2663 2505 2880 
Q 2244 3097 1772 3097 
Q 1472 3097 1187 3025 
Q 903 2953 641 2809 
L 641 3341 
Q 956 3463 1253 3523 
Q 1550 3584 1831 3584 
Q 2591 3584 2966 3190 
Q 3341 2797 3341 1997 
z
" transform="scale(0.015625)"/>
      </defs>
      <use xlink:href="#DejaVuSans-70"/>
      <use xlink:href="#DejaVuSans-61" x="63.476562"/>
      <use xlink:href="#DejaVuSans-72" x="124.755859"/>
      <use xlink:href="#DejaVuSans-72" x="164.119141"/>
     </g>
    </g>
   </g>
  </g>
 </g>
 <defs>
  <clipPath id="p7e82999b7c">
   <rect x="585" y="129.6" width="3627" height="831.6"/>
  </clipPath>
 </defs>
</svg>
