<?xml version="1.0" encoding="utf-8" standalone="no"?>
<!DOCTYPE svg PUBLIC "-//W3C//DTD SVG 1.1//EN"
  "http://www.w3.org/Graphics/SVG/1.1/DTD/svg11.dtd">
<svg xmlns:xlink="http://www.w3.org/1999/xlink" width="4680pt" height="1080pt" viewBox="0 0 4680 1080" xmlns="http://www.w3.org/2000/svg" version="1.1">
 <metadata>
  <rdf:RDF xmlns:dc="http://purl.org/dc/elements/1.1/" xmlns:cc="http://creativecommons.org/ns#" xmlns:rdf="http://www.w3.org/1999/02/22-rdf-syntax-ns#">
   <cc:Work>
    <dc:type rdf:resource="http://purl.org/dc/dcmitype/StillImage"/>
    <dc:date>2024-03-25T15:24:55.277396</dc:date>
    <dc:format>image/svg+xml</dc:format>
    <dc:creator>
     <cc:Agent>
      <dc:title>Matplotlib v3.7.2, https://matplotlib.org/</dc:title>
     </cc:Agent>
    </dc:creator>
   </cc:Work>
  </rdf:RDF>
 </metadata>
 <defs>
  <style type="text/css">*{stroke-linejoin: round; stroke-linecap: butt}</style>
 </defs>
 <g id="figure_1">
  <g id="patch_1">
   <path d="M 0 1080 
L 4680 1080 
L 4680 0 
L 0 0 
z
" style="fill: #ffffff"/>
  </g>
  <g id="axes_1">
   <g id="patch_2">
    <path d="M 585 961.2 
L 4212 961.2 
L 4212 129.6 
L 585 129.6 
z
" style="fill: #ffffff"/>
   </g>
   <g id="matplotlib.axis_1">
    <g id="xtick_1">
     <g id="line2d_1">
      <defs>
       <path id="m3f45af65cd" d="M 0 0 
L 0 3.5 
" style="stroke: #000000; stroke-width: 0.8"/>
      </defs>
      <g>
       <use xlink:href="#m3f45af65cd" x="941.800468" y="961.2" style="stroke: #000000; stroke-width: 0.8"/>
      </g>
     </g>
     <g id="text_1">
      <!-- 2012-07 -->
      <g transform="translate(900.017655 983.396875) scale(0.2 -0.2)">
       <defs>
        <path id="DejaVuSans-32" d="M 1228 531 
L 3431 531 
L 3431 0 
L 469 0 
L 469 531 
Q 828 903 1448 1529 
Q 2069 2156 2228 2338 
Q 2531 2678 2651 2914 
Q 2772 3150 2772 3378 
Q 2772 3750 2511 3984 
Q 2250 4219 1831 4219 
Q 1534 4219 1204 4116 
Q 875 4013 500 3803 
L 500 4441 
Q 881 4594 1212 4672 
Q 1544 4750 1819 4750 
Q 2544 4750 2975 4387 
Q 3406 4025 3406 3419 
Q 3406 3131 3298 2873 
Q 3191 2616 2906 2266 
Q 2828 2175 2409 1742 
Q 1991 1309 1228 531 
z
" transform="scale(0.015625)"/>
        <path id="DejaVuSans-30" d="M 2034 4250 
Q 1547 4250 1301 3770 
Q 1056 3291 1056 2328 
Q 1056 1369 1301 889 
Q 1547 409 2034 409 
Q 2525 409 2770 889 
Q 3016 1369 3016 2328 
Q 3016 3291 2770 3770 
Q 2525 4250 2034 4250 
z
M 2034 4750 
Q 2819 4750 3233 4129 
Q 3647 3509 3647 2328 
Q 3647 1150 3233 529 
Q 2819 -91 2034 -91 
Q 1250 -91 836 529 
Q 422 1150 422 2328 
Q 422 3509 836 4129 
Q 1250 4750 2034 4750 
z
" transform="scale(0.015625)"/>
        <path id="DejaVuSans-31" d="M 794 531 
L 1825 531 
L 1825 4091 
L 703 3866 
L 703 4441 
L 1819 4666 
L 2450 4666 
L 2450 531 
L 3481 531 
L 3481 0 
L 794 0 
L 794 531 
z
" transform="scale(0.015625)"/>
        <path id="DejaVuSans-2d" d="M 313 2009 
L 1997 2009 
L 1997 1497 
L 313 1497 
L 313 2009 
z
" transform="scale(0.015625)"/>
        <path id="DejaVuSans-37" d="M 525 4666 
L 3525 4666 
L 3525 4397 
L 1831 0 
L 1172 0 
L 2766 4134 
L 525 4134 
L 525 4666 
z
" transform="scale(0.015625)"/>
       </defs>
       <use xlink:href="#DejaVuSans-32"/>
       <use xlink:href="#DejaVuSans-30" x="63.623047"/>
       <use xlink:href="#DejaVuSans-31" x="127.246094"/>
       <use xlink:href="#DejaVuSans-32" x="190.869141"/>
       <use xlink:href="#DejaVuSans-2d" x="254.492188"/>
       <use xlink:href="#DejaVuSans-30" x="290.576172"/>
       <use xlink:href="#DejaVuSans-37" x="354.199219"/>
      </g>
     </g>
    </g>
    <g id="xtick_2">
     <g id="line2d_2">
      <g>
       <use xlink:href="#m3f45af65cd" x="1313.551805" y="961.2" style="stroke: #000000; stroke-width: 0.8"/>
      </g>
     </g>
     <g id="text_2">
      <!-- 2013-01 -->
      <g transform="translate(1271.768992 983.396875) scale(0.2 -0.2)">
       <defs>
        <path id="DejaVuSans-33" d="M 2597 2516 
Q 3050 2419 3304 2112 
Q 3559 1806 3559 1356 
Q 3559 666 3084 287 
Q 2609 -91 1734 -91 
Q 1441 -91 1130 -33 
Q 819 25 488 141 
L 488 750 
Q 750 597 1062 519 
Q 1375 441 1716 441 
Q 2309 441 2620 675 
Q 2931 909 2931 1356 
Q 2931 1769 2642 2001 
Q 2353 2234 1838 2234 
L 1294 2234 
L 1294 2753 
L 1863 2753 
Q 2328 2753 2575 2939 
Q 2822 3125 2822 3475 
Q 2822 3834 2567 4026 
Q 2313 4219 1838 4219 
Q 1578 4219 1281 4162 
Q 984 4106 628 3988 
L 628 4550 
Q 988 4650 1302 4700 
Q 1616 4750 1894 4750 
Q 2613 4750 3031 4423 
Q 3450 4097 3450 3541 
Q 3450 3153 3228 2886 
Q 3006 2619 2597 2516 
z
" transform="scale(0.015625)"/>
       </defs>
       <use xlink:href="#DejaVuSans-32"/>
       <use xlink:href="#DejaVuSans-30" x="63.623047"/>
       <use xlink:href="#DejaVuSans-31" x="127.246094"/>
       <use xlink:href="#DejaVuSans-33" x="190.869141"/>
       <use xlink:href="#DejaVuSans-2d" x="254.492188"/>
       <use xlink:href="#DejaVuSans-30" x="290.576172"/>
       <use xlink:href="#DejaVuSans-31" x="354.199219"/>
      </g>
     </g>
    </g>
    <g id="xtick_3">
     <g id="line2d_3">
      <g>
       <use xlink:href="#m3f45af65cd" x="1679.241979" y="961.2" style="stroke: #000000; stroke-width: 0.8"/>
      </g>
     </g>
     <g id="text_3">
      <!-- 2013-07 -->
      <g transform="translate(1637.459166 983.396875) scale(0.2 -0.2)">
       <use xlink:href="#DejaVuSans-32"/>
       <use xlink:href="#DejaVuSans-30" x="63.623047"/>
       <use xlink:href="#DejaVuSans-31" x="127.246094"/>
       <use xlink:href="#DejaVuSans-33" x="190.869141"/>
       <use xlink:href="#DejaVuSans-2d" x="254.492188"/>
       <use xlink:href="#DejaVuSans-30" x="290.576172"/>
       <use xlink:href="#DejaVuSans-37" x="354.199219"/>
      </g>
     </g>
    </g>
    <g id="xtick_4">
     <g id="line2d_4">
      <g>
       <use xlink:href="#m3f45af65cd" x="2050.993316" y="961.2" style="stroke: #000000; stroke-width: 0.8"/>
      </g>
     </g>
     <g id="text_4">
      <!-- 2014-01 -->
      <g transform="translate(2009.210503 983.396875) scale(0.2 -0.2)">
       <defs>
        <path id="DejaVuSans-34" d="M 2419 4116 
L 825 1625 
L 2419 1625 
L 2419 4116 
z
M 2253 4666 
L 3047 4666 
L 3047 1625 
L 3713 1625 
L 3713 1100 
L 3047 1100 
L 3047 0 
L 2419 0 
L 2419 1100 
L 313 1100 
L 313 1709 
L 2253 4666 
z
" transform="scale(0.015625)"/>
       </defs>
       <use xlink:href="#DejaVuSans-32"/>
       <use xlink:href="#DejaVuSans-30" x="63.623047"/>
       <use xlink:href="#DejaVuSans-31" x="127.246094"/>
       <use xlink:href="#DejaVuSans-34" x="190.869141"/>
       <use xlink:href="#DejaVuSans-2d" x="254.492188"/>
       <use xlink:href="#DejaVuSans-30" x="290.576172"/>
       <use xlink:href="#DejaVuSans-31" x="354.199219"/>
      </g>
     </g>
    </g>
    <g id="xtick_5">
     <g id="line2d_5">
      <g>
       <use xlink:href="#m3f45af65cd" x="2416.683489" y="961.2" style="stroke: #000000; stroke-width: 0.8"/>
      </g>
     </g>
     <g id="text_5">
      <!-- 2014-07 -->
      <g transform="translate(2374.900677 983.396875) scale(0.2 -0.2)">
       <use xlink:href="#DejaVuSans-32"/>
       <use xlink:href="#DejaVuSans-30" x="63.623047"/>
       <use xlink:href="#DejaVuSans-31" x="127.246094"/>
       <use xlink:href="#DejaVuSans-34" x="190.869141"/>
       <use xlink:href="#DejaVuSans-2d" x="254.492188"/>
       <use xlink:href="#DejaVuSans-30" x="290.576172"/>
       <use xlink:href="#DejaVuSans-37" x="354.199219"/>
      </g>
     </g>
    </g>
    <g id="xtick_6">
     <g id="line2d_6">
      <g>
       <use xlink:href="#m3f45af65cd" x="2788.434826" y="961.2" style="stroke: #000000; stroke-width: 0.8"/>
      </g>
     </g>
     <g id="text_6">
      <!-- 2015-01 -->
      <g transform="translate(2746.652014 983.396875) scale(0.2 -0.2)">
       <defs>
        <path id="DejaVuSans-35" d="M 691 4666 
L 3169 4666 
L 3169 4134 
L 1269 4134 
L 1269 2991 
Q 1406 3038 1543 3061 
Q 1681 3084 1819 3084 
Q 2600 3084 3056 2656 
Q 3513 2228 3513 1497 
Q 3513 744 3044 326 
Q 2575 -91 1722 -91 
Q 1428 -91 1123 -41 
Q 819 9 494 109 
L 494 744 
Q 775 591 1075 516 
Q 1375 441 1709 441 
Q 2250 441 2565 725 
Q 2881 1009 2881 1497 
Q 2881 1984 2565 2268 
Q 2250 2553 1709 2553 
Q 1456 2553 1204 2497 
Q 953 2441 691 2322 
L 691 4666 
z
" transform="scale(0.015625)"/>
       </defs>
       <use xlink:href="#DejaVuSans-32"/>
       <use xlink:href="#DejaVuSans-30" x="63.623047"/>
       <use xlink:href="#DejaVuSans-31" x="127.246094"/>
       <use xlink:href="#DejaVuSans-35" x="190.869141"/>
       <use xlink:href="#DejaVuSans-2d" x="254.492188"/>
       <use xlink:href="#DejaVuSans-30" x="290.576172"/>
       <use xlink:href="#DejaVuSans-31" x="354.199219"/>
      </g>
     </g>
    </g>
    <g id="xtick_7">
     <g id="line2d_7">
      <g>
       <use xlink:href="#m3f45af65cd" x="3154.125" y="961.2" style="stroke: #000000; stroke-width: 0.8"/>
      </g>
     </g>
     <g id="text_7">
      <!-- 2015-07 -->
      <g transform="translate(3112.342188 983.396875) scale(0.2 -0.2)">
       <use xlink:href="#DejaVuSans-32"/>
       <use xlink:href="#DejaVuSans-30" x="63.623047"/>
       <use xlink:href="#DejaVuSans-31" x="127.246094"/>
       <use xlink:href="#DejaVuSans-35" x="190.869141"/>
       <use xlink:href="#DejaVuSans-2d" x="254.492188"/>
       <use xlink:href="#DejaVuSans-30" x="290.576172"/>
       <use xlink:href="#DejaVuSans-37" x="354.199219"/>
      </g>
     </g>
    </g>
    <g id="xtick_8">
     <g id="line2d_8">
      <g>
       <use xlink:href="#m3f45af65cd" x="3525.876337" y="961.2" style="stroke: #000000; stroke-width: 0.8"/>
      </g>
     </g>
     <g id="text_8">
      <!-- 2016-01 -->
      <g transform="translate(3484.093524 983.396875) scale(0.2 -0.2)">
       <defs>
        <path id="DejaVuSans-36" d="M 2113 2584 
Q 1688 2584 1439 2293 
Q 1191 2003 1191 1497 
Q 1191 994 1439 701 
Q 1688 409 2113 409 
Q 2538 409 2786 701 
Q 3034 994 3034 1497 
Q 3034 2003 2786 2293 
Q 2538 2584 2113 2584 
z
M 3366 4563 
L 3366 3988 
Q 3128 4100 2886 4159 
Q 2644 4219 2406 4219 
Q 1781 4219 1451 3797 
Q 1122 3375 1075 2522 
Q 1259 2794 1537 2939 
Q 1816 3084 2150 3084 
Q 2853 3084 3261 2657 
Q 3669 2231 3669 1497 
Q 3669 778 3244 343 
Q 2819 -91 2113 -91 
Q 1303 -91 875 529 
Q 447 1150 447 2328 
Q 447 3434 972 4092 
Q 1497 4750 2381 4750 
Q 2619 4750 2861 4703 
Q 3103 4656 3366 4563 
z
" transform="scale(0.015625)"/>
       </defs>
       <use xlink:href="#DejaVuSans-32"/>
       <use xlink:href="#DejaVuSans-30" x="63.623047"/>
       <use xlink:href="#DejaVuSans-31" x="127.246094"/>
       <use xlink:href="#DejaVuSans-36" x="190.869141"/>
       <use xlink:href="#DejaVuSans-2d" x="254.492188"/>
       <use xlink:href="#DejaVuSans-30" x="290.576172"/>
       <use xlink:href="#DejaVuSans-31" x="354.199219"/>
      </g>
     </g>
    </g>
    <g id="xtick_9">
     <g id="line2d_9">
      <g>
       <use xlink:href="#m3f45af65cd" x="3893.586898" y="961.2" style="stroke: #000000; stroke-width: 0.8"/>
      </g>
     </g>
     <g id="text_9">
      <!-- 2016-07 -->
      <g transform="translate(3851.804086 983.396875) scale(0.2 -0.2)">
       <use xlink:href="#DejaVuSans-32"/>
       <use xlink:href="#DejaVuSans-30" x="63.623047"/>
       <use xlink:href="#DejaVuSans-31" x="127.246094"/>
       <use xlink:href="#DejaVuSans-36" x="190.869141"/>
       <use xlink:href="#DejaVuSans-2d" x="254.492188"/>
       <use xlink:href="#DejaVuSans-30" x="290.576172"/>
       <use xlink:href="#DejaVuSans-37" x="354.199219"/>
      </g>
     </g>
    </g>
    <g id="text_10">
     <!-- Time -->
     <g transform="translate(2374.032813 1006.753125) scale(0.2 -0.2)">
      <defs>
       <path id="DejaVuSans-54" d="M -19 4666 
L 3928 4666 
L 3928 4134 
L 2272 4134 
L 2272 0 
L 1638 0 
L 1638 4134 
L -19 4134 
L -19 4666 
z
" transform="scale(0.015625)"/>
       <path id="DejaVuSans-69" d="M 603 3500 
L 1178 3500 
L 1178 0 
L 603 0 
L 603 3500 
z
M 603 4863 
L 1178 4863 
L 1178 4134 
L 603 4134 
L 603 4863 
z
" transform="scale(0.015625)"/>
       <path id="DejaVuSans-6d" d="M 3328 2828 
Q 3544 3216 3844 3400 
Q 4144 3584 4550 3584 
Q 5097 3584 5394 3201 
Q 5691 2819 5691 2113 
L 5691 0 
L 5113 0 
L 5113 2094 
Q 5113 2597 4934 2840 
Q 4756 3084 4391 3084 
Q 3944 3084 3684 2787 
Q 3425 2491 3425 1978 
L 3425 0 
L 2847 0 
L 2847 2094 
Q 2847 2600 2669 2842 
Q 2491 3084 2119 3084 
Q 1678 3084 1418 2786 
Q 1159 2488 1159 1978 
L 1159 0 
L 581 0 
L 581 3500 
L 1159 3500 
L 1159 2956 
Q 1356 3278 1631 3431 
Q 1906 3584 2284 3584 
Q 2666 3584 2933 3390 
Q 3200 3197 3328 2828 
z
" transform="scale(0.015625)"/>
       <path id="DejaVuSans-65" d="M 3597 1894 
L 3597 1613 
L 953 1613 
Q 991 1019 1311 708 
Q 1631 397 2203 397 
Q 2534 397 2845 478 
Q 3156 559 3463 722 
L 3463 178 
Q 3153 47 2828 -22 
Q 2503 -91 2169 -91 
Q 1331 -91 842 396 
Q 353 884 353 1716 
Q 353 2575 817 3079 
Q 1281 3584 2069 3584 
Q 2775 3584 3186 3129 
Q 3597 2675 3597 1894 
z
M 3022 2063 
Q 3016 2534 2758 2815 
Q 2500 3097 2075 3097 
Q 1594 3097 1305 2825 
Q 1016 2553 972 2059 
L 3022 2063 
z
" transform="scale(0.015625)"/>
      </defs>
      <use xlink:href="#DejaVuSans-54"/>
      <use xlink:href="#DejaVuSans-69" x="57.958984"/>
      <use xlink:href="#DejaVuSans-6d" x="85.742188"/>
      <use xlink:href="#DejaVuSans-65" x="183.154297"/>
     </g>
    </g>
   </g>
   <g id="matplotlib.axis_2">
    <g id="ytick_1">
     <g id="line2d_10">
      <defs>
       <path id="m7ab7d2c8e8" d="M 0 0 
L -3.5 0 
" style="stroke: #000000; stroke-width: 0.8"/>
      </defs>
      <g>
       <use xlink:href="#m7ab7d2c8e8" x="585" y="911.203117" style="stroke: #000000; stroke-width: 0.8"/>
      </g>
     </g>
     <g id="text_11">
      <!-- −0.003 -->
      <g transform="translate(503.984375 918.801555) scale(0.2 -0.2)">
       <defs>
        <path id="DejaVuSans-2212" d="M 678 2272 
L 4684 2272 
L 4684 1741 
L 678 1741 
L 678 2272 
z
" transform="scale(0.015625)"/>
        <path id="DejaVuSans-2e" d="M 684 794 
L 1344 794 
L 1344 0 
L 684 0 
L 684 794 
z
" transform="scale(0.015625)"/>
       </defs>
       <use xlink:href="#DejaVuSans-2212"/>
       <use xlink:href="#DejaVuSans-30" x="83.789062"/>
       <use xlink:href="#DejaVuSans-2e" x="147.412109"/>
       <use xlink:href="#DejaVuSans-30" x="179.199219"/>
       <use xlink:href="#DejaVuSans-30" x="242.822266"/>
       <use xlink:href="#DejaVuSans-33" x="306.445312"/>
      </g>
     </g>
    </g>
    <g id="ytick_2">
     <g id="line2d_11">
      <g>
       <use xlink:href="#m7ab7d2c8e8" x="585" y="808.232041" style="stroke: #000000; stroke-width: 0.8"/>
      </g>
     </g>
     <g id="text_12">
      <!-- −0.002 -->
      <g transform="translate(503.984375 815.830478) scale(0.2 -0.2)">
       <use xlink:href="#DejaVuSans-2212"/>
       <use xlink:href="#DejaVuSans-30" x="83.789062"/>
       <use xlink:href="#DejaVuSans-2e" x="147.412109"/>
       <use xlink:href="#DejaVuSans-30" x="179.199219"/>
       <use xlink:href="#DejaVuSans-30" x="242.822266"/>
       <use xlink:href="#DejaVuSans-32" x="306.445312"/>
      </g>
     </g>
    </g>
    <g id="ytick_3">
     <g id="line2d_12">
      <g>
       <use xlink:href="#m7ab7d2c8e8" x="585" y="705.260965" style="stroke: #000000; stroke-width: 0.8"/>
      </g>
     </g>
     <g id="text_13">
      <!-- −0.001 -->
      <g transform="translate(503.984375 712.859402) scale(0.2 -0.2)">
       <use xlink:href="#DejaVuSans-2212"/>
       <use xlink:href="#DejaVuSans-30" x="83.789062"/>
       <use xlink:href="#DejaVuSans-2e" x="147.412109"/>
       <use xlink:href="#DejaVuSans-30" x="179.199219"/>
       <use xlink:href="#DejaVuSans-30" x="242.822266"/>
       <use xlink:href="#DejaVuSans-31" x="306.445312"/>
      </g>
     </g>
    </g>
    <g id="ytick_4">
     <g id="line2d_13">
      <g>
       <use xlink:href="#m7ab7d2c8e8" x="585" y="602.289889" style="stroke: #000000; stroke-width: 0.8"/>
      </g>
     </g>
     <g id="text_14">
      <!-- 0.000 -->
      <g transform="translate(520.74375 609.888326) scale(0.2 -0.2)">
       <use xlink:href="#DejaVuSans-30"/>
       <use xlink:href="#DejaVuSans-2e" x="63.623047"/>
       <use xlink:href="#DejaVuSans-30" x="95.410156"/>
       <use xlink:href="#DejaVuSans-30" x="159.033203"/>
       <use xlink:href="#DejaVuSans-30" x="222.65625"/>
      </g>
     </g>
    </g>
    <g id="ytick_5">
     <g id="line2d_14">
      <g>
       <use xlink:href="#m7ab7d2c8e8" x="585" y="499.318812" style="stroke: #000000; stroke-width: 0.8"/>
      </g>
     </g>
     <g id="text_15">
      <!-- 0.001 -->
      <g transform="translate(520.74375 506.91725) scale(0.2 -0.2)">
       <use xlink:href="#DejaVuSans-30"/>
       <use xlink:href="#DejaVuSans-2e" x="63.623047"/>
       <use xlink:href="#DejaVuSans-30" x="95.410156"/>
       <use xlink:href="#DejaVuSans-30" x="159.033203"/>
       <use xlink:href="#DejaVuSans-31" x="222.65625"/>
      </g>
     </g>
    </g>
    <g id="ytick_6">
     <g id="line2d_15">
      <g>
       <use xlink:href="#m7ab7d2c8e8" x="585" y="396.347736" style="stroke: #000000; stroke-width: 0.8"/>
      </g>
     </g>
     <g id="text_16">
      <!-- 0.002 -->
      <g transform="translate(520.74375 403.946174) scale(0.2 -0.2)">
       <use xlink:href="#DejaVuSans-30"/>
       <use xlink:href="#DejaVuSans-2e" x="63.623047"/>
       <use xlink:href="#DejaVuSans-30" x="95.410156"/>
       <use xlink:href="#DejaVuSans-30" x="159.033203"/>
       <use xlink:href="#DejaVuSans-32" x="222.65625"/>
      </g>
     </g>
    </g>
    <g id="ytick_7">
     <g id="line2d_16">
      <g>
       <use xlink:href="#m7ab7d2c8e8" x="585" y="293.37666" style="stroke: #000000; stroke-width: 0.8"/>
      </g>
     </g>
     <g id="text_17">
      <!-- 0.003 -->
      <g transform="translate(520.74375 300.975098) scale(0.2 -0.2)">
       <use xlink:href="#DejaVuSans-30"/>
       <use xlink:href="#DejaVuSans-2e" x="63.623047"/>
       <use xlink:href="#DejaVuSans-30" x="95.410156"/>
       <use xlink:href="#DejaVuSans-30" x="159.033203"/>
       <use xlink:href="#DejaVuSans-33" x="222.65625"/>
      </g>
     </g>
    </g>
    <g id="ytick_8">
     <g id="line2d_17">
      <g>
       <use xlink:href="#m7ab7d2c8e8" x="585" y="190.405584" style="stroke: #000000; stroke-width: 0.8"/>
      </g>
     </g>
     <g id="text_18">
      <!-- 0.004 -->
      <g transform="translate(520.74375 198.004021) scale(0.2 -0.2)">
       <use xlink:href="#DejaVuSans-30"/>
       <use xlink:href="#DejaVuSans-2e" x="63.623047"/>
       <use xlink:href="#DejaVuSans-30" x="95.410156"/>
       <use xlink:href="#DejaVuSans-30" x="159.033203"/>
       <use xlink:href="#DejaVuSans-34" x="222.65625"/>
      </g>
     </g>
    </g>
    <g id="text_19">
     <!-- North(m) -->
     <g transform="translate(495.825 590.9125) rotate(-90) scale(0.2 -0.2)">
      <defs>
       <path id="DejaVuSans-4e" d="M 628 4666 
L 1478 4666 
L 3547 763 
L 3547 4666 
L 4159 4666 
L 4159 0 
L 3309 0 
L 1241 3903 
L 1241 0 
L 628 0 
L 628 4666 
z
" transform="scale(0.015625)"/>
       <path id="DejaVuSans-6f" d="M 1959 3097 
Q 1497 3097 1228 2736 
Q 959 2375 959 1747 
Q 959 1119 1226 758 
Q 1494 397 1959 397 
Q 2419 397 2687 759 
Q 2956 1122 2956 1747 
Q 2956 2369 2687 2733 
Q 2419 3097 1959 3097 
z
M 1959 3584 
Q 2709 3584 3137 3096 
Q 3566 2609 3566 1747 
Q 3566 888 3137 398 
Q 2709 -91 1959 -91 
Q 1206 -91 779 398 
Q 353 888 353 1747 
Q 353 2609 779 3096 
Q 1206 3584 1959 3584 
z
" transform="scale(0.015625)"/>
       <path id="DejaVuSans-72" d="M 2631 2963 
Q 2534 3019 2420 3045 
Q 2306 3072 2169 3072 
Q 1681 3072 1420 2755 
Q 1159 2438 1159 1844 
L 1159 0 
L 581 0 
L 581 3500 
L 1159 3500 
L 1159 2956 
Q 1341 3275 1631 3429 
Q 1922 3584 2338 3584 
Q 2397 3584 2469 3576 
Q 2541 3569 2628 3553 
L 2631 2963 
z
" transform="scale(0.015625)"/>
       <path id="DejaVuSans-74" d="M 1172 4494 
L 1172 3500 
L 2356 3500 
L 2356 3053 
L 1172 3053 
L 1172 1153 
Q 1172 725 1289 603 
Q 1406 481 1766 481 
L 2356 481 
L 2356 0 
L 1766 0 
Q 1100 0 847 248 
Q 594 497 594 1153 
L 594 3053 
L 172 3053 
L 172 3500 
L 594 3500 
L 594 4494 
L 1172 4494 
z
" transform="scale(0.015625)"/>
       <path id="DejaVuSans-68" d="M 3513 2113 
L 3513 0 
L 2938 0 
L 2938 2094 
Q 2938 2591 2744 2837 
Q 2550 3084 2163 3084 
Q 1697 3084 1428 2787 
Q 1159 2491 1159 1978 
L 1159 0 
L 581 0 
L 581 4863 
L 1159 4863 
L 1159 2956 
Q 1366 3272 1645 3428 
Q 1925 3584 2291 3584 
Q 2894 3584 3203 3211 
Q 3513 2838 3513 2113 
z
" transform="scale(0.015625)"/>
       <path id="DejaVuSans-28" d="M 1984 4856 
Q 1566 4138 1362 3434 
Q 1159 2731 1159 2009 
Q 1159 1288 1364 580 
Q 1569 -128 1984 -844 
L 1484 -844 
Q 1016 -109 783 600 
Q 550 1309 550 2009 
Q 550 2706 781 3412 
Q 1013 4119 1484 4856 
L 1984 4856 
z
" transform="scale(0.015625)"/>
       <path id="DejaVuSans-29" d="M 513 4856 
L 1013 4856 
Q 1481 4119 1714 3412 
Q 1947 2706 1947 2009 
Q 1947 1309 1714 600 
Q 1481 -109 1013 -844 
L 513 -844 
Q 928 -128 1133 580 
Q 1338 1288 1338 2009 
Q 1338 2731 1133 3434 
Q 928 4138 513 4856 
z
" transform="scale(0.015625)"/>
      </defs>
      <use xlink:href="#DejaVuSans-4e"/>
      <use xlink:href="#DejaVuSans-6f" x="74.804688"/>
      <use xlink:href="#DejaVuSans-72" x="135.986328"/>
      <use xlink:href="#DejaVuSans-74" x="177.099609"/>
      <use xlink:href="#DejaVuSans-68" x="216.308594"/>
      <use xlink:href="#DejaVuSans-28" x="279.6875"/>
      <use xlink:href="#DejaVuSans-6d" x="318.701172"/>
      <use xlink:href="#DejaVuSans-29" x="416.113281"/>
     </g>
    </g>
   </g>
   <g id="line2d_18">
    <path d="M 749.863636 709.859633 
L 755.924799 771.708266 
L 761.985963 748.112902 
L 764.00635 753.527234 
L 766.026738 737.94343 
L 768.047126 816.613727 
L 770.067513 772.798258 
L 772.087901 783.510342 
L 774.108289 814.886212 
L 776.128676 813.256061 
L 790.27139 761.743831 
L 792.291778 785.393775 
L 794.312166 800.365392 
L 796.332553 826.619145 
L 798.352941 817.298436 
L 800.373329 812.149329 
L 802.393717 827.827365 
L 806.434492 849.042059 
L 808.45488 840.933888 
L 810.475267 803.817183 
L 812.495655 814.433489 
L 824.617981 851.391605 
L 830.679144 840.459631 
L 832.699532 796.003378 
L 834.71992 781.837345 
L 836.740307 765.711821 
L 844.821858 707.080115 
L 850.883021 710.563576 
L 852.903409 744.373657 
L 854.923797 726.069813 
L 856.944184 798.852487 
L 860.98496 806.915047 
L 867.046123 791.475913 
L 869.066511 826.497033 
L 873.107286 781.49743 
L 875.127674 789.601879 
L 877.148061 772.801629 
L 879.168449 758.712568 
L 881.188837 781.57595 
L 883.209225 791.82962 
L 885.229612 773.478551 
L 889.270388 766.720837 
L 891.290775 784.82627 
L 893.311163 800.473891 
L 895.331551 817.684327 
L 897.351939 809.750798 
L 899.372326 815.037382 
L 901.392714 844.228587 
L 903.413102 836.808976 
L 905.433489 781.724184 
L 909.474265 693.148455 
L 913.51504 660.563319 
L 915.535428 589.354407 
L 917.555816 546.866396 
L 933.718917 679.185201 
L 937.759693 678.5703 
L 1044.840241 722.121637 
L 1048.881016 700.530731 
L 1212.53242 588.477856 
L 1214.552807 551.733418 
L 1216.573195 557.87944 
L 1226.675134 654.704719 
L 1230.715909 680.415276 
L 1232.736297 707.481009 
L 1234.756684 720.595948 
L 1236.777072 722.465599 
L 1238.79746 702.365825 
L 1240.817848 699.069929 
L 1242.838235 657.857805 
L 1252.940174 711.383859 
L 1333.755682 470.156449 
L 1335.77607 568.10819 
L 1337.796457 613.60115 
L 1341.837233 741.22798 
L 1372.143048 665.340135 
L 1374.163436 624.927556 
L 1376.183824 650.524613 
L 1378.204211 682.141205 
L 1382.244987 648.074005 
L 1384.265374 695.353216 
L 1386.285762 700.742445 
L 1388.30615 734.395077 
L 1390.326537 726.670369 
L 1392.346925 709.737326 
L 1394.367313 713.438067 
L 1398.408088 823.555109 
L 1400.428476 891.978234 
L 1402.448864 895.17819 
L 1404.469251 923.4 
L 1406.489639 916.907943 
L 1412.550802 761.146906 
L 1414.57119 696.824348 
L 1416.591578 678.541148 
L 1418.611965 677.666261 
L 1420.632353 693.2975 
L 1422.652741 699.419726 
L 1424.673128 739.31665 
L 1426.693516 791.9413 
L 1428.713904 812.012188 
L 1432.754679 806.836047 
L 1434.775067 783.858438 
L 1436.795455 766.976529 
L 1442.856618 684.341294 
L 1444.877005 663.429745 
L 1446.897393 664.586732 
L 1454.978944 575.396811 
L 1456.999332 529.509094 
L 1459.019719 514.448993 
L 1461.040107 491.473833 
L 1463.060495 464.614944 
L 1465.080882 502.983368 
L 1471.142045 589.430165 
L 1473.162433 622.932846 
L 1475.182821 615.46394 
L 1479.223596 570.467899 
L 1481.243984 579.275836 
L 1483.264372 586.701489 
L 1485.284759 595.693374 
L 1487.305147 602.491898 
L 1489.325535 649.398265 
L 1491.345922 680.504648 
L 1493.36631 701.594005 
L 1495.386698 698.466066 
L 1497.407086 696.181997 
L 1501.447861 624.167499 
L 1669.14004 206.551395 
L 1673.180816 365.225 
L 1677.221591 468.765517 
L 1681.262366 439.025984 
L 1683.282754 480.479172 
L 1687.323529 414.83727 
L 1689.343917 448.767493 
L 1691.364305 429.851765 
L 1693.384693 402.181726 
L 1695.40508 413.011613 
L 1697.425468 415.018173 
L 1699.445856 438.482165 
L 1701.466243 443.007922 
L 1703.486631 383.737921 
L 1705.507019 396.925986 
L 1707.527406 418.719856 
L 1709.547794 432.318657 
L 1711.568182 429.788416 
L 1715.608957 397.709736 
L 1717.629345 411.500866 
L 1719.649733 381.61504 
L 1721.67012 369.012819 
L 1725.710896 349.240082 
L 1727.731283 406.567728 
L 1729.751671 400.288737 
L 1731.772059 399.431013 
L 1739.85361 351.784869 
L 1741.873997 327.685891 
L 1743.894385 288.430487 
L 1745.914773 272.057346 
L 1747.93516 299.226405 
L 1749.955548 293.428871 
L 1751.975936 249.627346 
L 1753.996324 264.841775 
L 1756.016711 285.024732 
L 1758.037099 329.482888 
L 1768.139037 528.822473 
L 1780.261364 477.51646 
L 1782.281751 479.728873 
L 1784.302139 442.991564 
L 1786.322527 442.138435 
L 1788.342914 460.65259 
L 1790.363302 454.04076 
L 1792.38369 470.977846 
L 1794.404078 432.14889 
L 1796.424465 436.99605 
L 1806.526404 512.103315 
L 1808.546791 520.439555 
L 1810.567179 489.432437 
L 1812.587567 489.524575 
L 1814.607955 481.149416 
L 1816.628342 436.561353 
L 1818.64873 429.106802 
L 1822.689505 384.526978 
L 1824.709893 406.793888 
L 1826.730281 396.697576 
L 1828.750668 451.261657 
L 1830.771056 459.369194 
L 1832.791444 480.172279 
L 1834.811832 506.852204 
L 1836.832219 554.282761 
L 1838.852607 568.920514 
L 1954.014706 505.259676 
L 1956.035094 471.785732 
L 1958.055481 471.254015 
L 1960.075869 504.923456 
L 1962.096257 533.500614 
L 1966.137032 518.157208 
L 1968.15742 541.265531 
L 1980.279746 551.621584 
L 1982.300134 563.795286 
L 1988.361297 724.438079 
L 1992.402072 765.251327 
L 1996.442848 737.945227 
L 2000.483623 572.500055 
L 2073.21758 573.939506 
L 2075.237968 543.598762 
L 2079.278743 576.143141 
L 2081.299131 582.013399 
L 2380.316511 167.4 
L 2438.907754 258.916444 
L 2442.948529 315.842487 
L 2446.989305 326.780193 
L 2451.03008 273.725534 
L 2467.193182 215.029861 
L 3176.349265 367.900758 
L 3178.369652 350.097603 
L 3180.39004 335.466658 
L 3182.410428 344.678825 
L 3184.430816 326.944209 
L 3186.451203 273.849635 
L 3190.491979 212.692377 
L 3192.512366 230.663093 
L 3194.532754 244.18165 
L 3196.553142 237.790722 
L 3200.593917 278.441291 
L 3208.675468 336.571785 
L 3210.695856 340.502499 
L 3212.716243 326.2057 
L 3214.736631 341.489266 
L 3216.757019 346.508247 
L 3218.777406 355.925948 
L 3220.797794 306.740111 
L 3222.818182 320.737774 
L 3224.83857 319.184062 
L 3226.858957 343.216198 
L 3228.879345 320.911777 
L 3230.899733 312.210694 
L 3253.123997 470.608685 
L 3257.164773 429.368208 
L 3259.18516 439.444326 
L 3261.205548 475.724306 
L 3265.246324 518.739744 
L 3267.266711 520.558349 
L 3269.287099 548.699884 
L 3277.36865 469.672246 
L 3287.470588 347.77776 
L 3289.490976 346.603823 
L 3291.511364 400.078983 
L 3293.531751 437.548554 
L 3295.552139 455.262942 
L 3297.572527 459.203981 
L 3299.592914 459.123631 
L 3301.613302 465.725779 
L 3303.63369 466.472713 
L 3305.654078 481.951412 
L 3309.694853 458.958446 
L 3315.756016 509.243225 
L 3317.776404 504.512779 
L 3319.796791 513.329506 
L 3321.817179 533.527142 
L 3323.837567 559.637203 
L 3325.857955 545.759199 
L 3327.878342 528.978876 
L 3329.89873 522.428518 
L 3331.919118 516.696725 
L 3340.000668 515.815733 
L 3342.021056 566.471812 
L 3344.041444 593.221457 
L 3346.061832 602.516234 
L 3348.082219 572.500595 
L 3350.102607 582.140501 
L 3352.122995 559.643255 
L 3354.143382 547.319685 
L 3356.16377 508.002872 
L 3358.184158 516.538852 
L 3360.204545 510.019598 
L 3362.224933 554.213213 
L 3364.245321 545.724679 
L 3366.265709 587.996793 
L 3368.286096 567.137879 
L 3370.306484 491.194276 
L 3372.326872 455.269477 
L 3374.347259 484.594275 
L 3376.367647 481.293942 
L 3400.612299 525.832592 
L 3402.632687 487.788901 
L 3404.653075 516.88755 
L 3406.673463 529.674323 
L 3410.714238 595.465844 
L 3412.734626 596.695636 
L 3414.755013 543.815399 
L 3416.775401 521.047069 
L 3418.795789 487.260612 
L 3420.816176 505.544781 
L 3422.836564 485.862293 
L 3424.856952 455.128799 
L 3426.87734 426.958522 
L 3428.897727 500.347367 
L 3432.938503 569.279367 
L 3434.95889 563.314233 
L 3436.979278 542.871985 
L 3438.999666 555.409569 
L 3441.020053 588.148177 
L 3443.040441 587.05509 
L 3445.060829 600.937381 
L 3447.081217 611.680438 
L 3449.101604 624.455376 
L 3451.121992 665.366358 
L 3453.14238 674.021784 
L 3455.162767 706.04534 
L 3457.183155 723.447998 
L 3459.203543 747.268486 
L 3461.22393 696.428087 
L 3463.244318 651.269789 
L 3465.264706 642.93073 
L 3467.285094 638.622755 
L 3469.305481 629.844663 
L 3471.325869 597.337945 
L 3473.346257 560.839788 
L 3475.366644 603.286445 
L 3477.387032 656.141463 
L 3479.40742 666.716036 
L 3481.427807 664.560086 
L 3483.448195 652.207961 
L 3485.468583 653.30401 
L 3487.488971 658.655617 
L 3489.509358 671.498498 
L 3491.529746 675.597921 
L 3493.550134 649.141845 
L 3497.590909 646.582137 
L 3499.611297 661.500665 
L 3501.631684 689.315879 
L 3503.652072 672.498471 
L 3505.67246 663.602743 
L 3507.692848 686.466199 
L 3509.713235 682.827774 
L 3511.733623 667.576576 
L 3513.754011 651.263324 
L 3515.774398 616.552405 
L 3517.794786 608.66675 
L 3519.815174 602.010456 
L 3521.835561 594.616702 
L 3523.855949 608.851217 
L 3527.896725 634.064268 
L 3529.917112 650.829857 
L 3531.9375 682.581214 
L 3533.957888 705.94712 
L 3535.978275 727.703425 
L 3537.998663 723.062653 
L 3540.019051 746.099853 
L 3542.039439 754.514386 
L 3544.059826 775.581335 
L 3548.100602 747.092327 
L 3550.120989 745.51842 
L 3552.141377 737.624234 
L 3554.161765 727.235184 
L 3556.182152 723.783796 
L 3558.20254 700.11665 
L 3560.222928 712.727697 
L 3562.243316 738.004275 
L 3564.263703 725.235971 
L 3566.284091 746.742657 
L 3570.324866 769.686071 
L 3572.345254 756.428364 
L 3582.447193 696.745475 
L 3584.46758 671.074079 
L 3586.487968 628.518343 
L 3590.528743 535.209086 
L 3592.549131 515.852973 
L 3596.589906 399.619746 
L 3598.610294 394.536874 
L 3600.630682 471.417789 
L 3602.65107 505.470207 
L 3604.671457 524.334549 
L 3647.099599 582.795435 
L 3649.119987 571.825253 
L 3653.160762 598.316544 
L 3659.221925 657.732244 
L 3661.242313 681.175975 
L 3663.262701 692.718312 
L 3665.283088 693.44907 
L 3667.303476 684.857246 
L 3669.323864 663.068329 
L 3671.344251 625.04886 
L 3673.364639 650.812951 
L 3675.385027 639.271197 
L 3677.405414 654.489991 
L 3679.425802 640.483681 
L 3681.44619 647.134144 
L 3683.466578 668.607262 
L 3685.486965 688.014144 
L 3687.507353 691.378181 
L 3689.527741 692.830192 
L 3691.548128 661.651831 
L 3693.568516 651.673304 
L 3695.588904 645.362711 
L 3697.609291 638.042005 
L 3703.670455 592.369819 
L 3705.690842 583.612489 
L 3707.71123 602.003464 
L 3711.752005 552.597253 
L 3713.772393 538.950448 
L 3715.792781 511.414458 
L 3717.813168 489.059243 
L 3719.833556 474.202495 
L 3721.853944 475.57304 
L 3723.874332 500.598076 
L 3725.894719 505.408466 
L 3727.915107 509.601222 
L 3729.935495 468.475636 
L 3733.97627 447.538909 
L 3735.996658 414.715173 
L 3738.017045 388.646001 
L 3740.037433 416.843849 
L 3744.078209 500.607475 
L 3746.098596 534.585042 
L 3748.118984 545.94543 
L 3750.139372 547.785255 
L 3752.159759 525.167289 
L 3756.200535 454.624226 
L 3758.220922 436.77667 
L 3760.24131 454.746178 
L 3762.261698 474.986009 
L 3764.282086 502.133139 
L 3766.302473 520.288512 
L 3768.322861 514.421855 
L 3772.363636 630.081792 
L 3774.384024 628.130191 
L 3776.404412 591.325511 
L 3778.424799 586.36679 
L 3780.445187 588.689421 
L 3786.50635 482.002424 
L 3788.526738 460.005244 
L 3790.547126 485.052828 
L 3792.567513 500.135394 
L 3794.587901 530.034995 
L 3796.608289 536.766688 
L 3798.628676 587.651764 
L 3952.178142 486.103289 
L 3954.198529 445.243028 
L 3956.218917 432.173879 
L 3958.239305 420.04054 
L 3960.259693 416.607758 
L 3962.28008 405.217448 
L 3970.361631 385.74966 
L 3972.382019 418.220413 
L 3978.443182 557.333345 
L 3980.46357 561.297234 
L 3982.483957 504.896713 
L 3984.504345 587.242013 
L 3986.524733 602.200141 
L 3988.54512 583.587379 
L 3990.565508 607.748287 
L 3996.626671 601.909797 
L 4002.687834 502.562754 
L 4004.708222 456.839774 
L 4006.72861 401.575159 
L 4008.748997 386.574149 
L 4010.769385 395.668862 
L 4012.789773 393.590086 
L 4014.81016 400.112076 
L 4016.830548 436.965485 
L 4018.850936 443.932013 
L 4020.871324 488.863022 
L 4028.952874 486.330807 
L 4030.973262 507.144338 
L 4032.99365 545.074166 
L 4035.014037 571.05524 
L 4037.034425 599.264499 
L 4039.054813 625.731637 
L 4041.075201 625.084738 
L 4043.095588 654.32363 
L 4045.115976 635.859298 
L 4047.136364 622.841943 
L 4047.136364 622.841943 
" clip-path="url(#p44d22010bd)" style="fill: none; stroke: #9f4800; stroke-width: 2.5; stroke-linecap: square"/>
   </g>
   <g id="patch_3">
    <path d="M 585 961.2 
L 585 129.6 
" style="fill: none; stroke: #000000; stroke-width: 0.8; stroke-linejoin: miter; stroke-linecap: square"/>
   </g>
   <g id="patch_4">
    <path d="M 4212 961.2 
L 4212 129.6 
" style="fill: none; stroke: #000000; stroke-width: 0.8; stroke-linejoin: miter; stroke-linecap: square"/>
   </g>
   <g id="patch_5">
    <path d="M 585 961.2 
L 4212 961.2 
" style="fill: none; stroke: #000000; stroke-width: 0.8; stroke-linejoin: miter; stroke-linecap: square"/>
   </g>
   <g id="patch_6">
    <path d="M 585 129.6 
L 4212 129.6 
" style="fill: none; stroke: #000000; stroke-width: 0.8; stroke-linejoin: miter; stroke-linecap: square"/>
   </g>
   <g id="text_20">
    <!-- PAS2 -->
    <g transform="translate(2361.084375 123.360937) scale(0.3 -0.3)">
     <defs>
      <path id="DejaVuSans-50" d="M 1259 4147 
L 1259 2394 
L 2053 2394 
Q 2494 2394 2734 2622 
Q 2975 2850 2975 3272 
Q 2975 3691 2734 3919 
Q 2494 4147 2053 4147 
L 1259 4147 
z
M 628 4666 
L 2053 4666 
Q 2838 4666 3239 4311 
Q 3641 3956 3641 3272 
Q 3641 2581 3239 2228 
Q 2838 1875 2053 1875 
L 1259 1875 
L 1259 0 
L 628 0 
L 628 4666 
z
" transform="scale(0.015625)"/>
      <path id="DejaVuSans-41" d="M 2188 4044 
L 1331 1722 
L 3047 1722 
L 2188 4044 
z
M 1831 4666 
L 2547 4666 
L 4325 0 
L 3669 0 
L 3244 1197 
L 1141 1197 
L 716 0 
L 50 0 
L 1831 4666 
z
" transform="scale(0.015625)"/>
      <path id="DejaVuSans-53" d="M 3425 4513 
L 3425 3897 
Q 3066 4069 2747 4153 
Q 2428 4238 2131 4238 
Q 1616 4238 1336 4038 
Q 1056 3838 1056 3469 
Q 1056 3159 1242 3001 
Q 1428 2844 1947 2747 
L 2328 2669 
Q 3034 2534 3370 2195 
Q 3706 1856 3706 1288 
Q 3706 609 3251 259 
Q 2797 -91 1919 -91 
Q 1588 -91 1214 -16 
Q 841 59 441 206 
L 441 856 
Q 825 641 1194 531 
Q 1563 422 1919 422 
Q 2459 422 2753 634 
Q 3047 847 3047 1241 
Q 3047 1584 2836 1778 
Q 2625 1972 2144 2069 
L 1759 2144 
Q 1053 2284 737 2584 
Q 422 2884 422 3419 
Q 422 4038 858 4394 
Q 1294 4750 2059 4750 
Q 2388 4750 2728 4690 
Q 3069 4631 3425 4513 
z
" transform="scale(0.015625)"/>
     </defs>
     <use xlink:href="#DejaVuSans-50"/>
     <use xlink:href="#DejaVuSans-41" x="53.927734"/>
     <use xlink:href="#DejaVuSans-53" x="122.335938"/>
     <use xlink:href="#DejaVuSans-32" x="185.8125"/>
    </g>
   </g>
   <g id="legend_1">
    <g id="patch_7">
     <path d="M 4148.951563 152.278125 
L 4205 152.278125 
Q 4207 152.278125 4207 150.278125 
L 4207 136.6 
Q 4207 134.6 4205 134.6 
L 4148.951563 134.6 
Q 4146.951563 134.6 4146.951563 136.6 
L 4146.951563 150.278125 
Q 4146.951563 152.278125 4148.951563 152.278125 
z
" style="fill: #ffffff; opacity: 0.8; stroke: #cccccc; stroke-linejoin: miter"/>
    </g>
    <g id="line2d_19">
     <path d="M 4150.951563 142.698438 
L 4160.951563 142.698438 
L 4170.951563 142.698438 
" style="fill: none; stroke: #9f4800; stroke-width: 2.5; stroke-linecap: square"/>
    </g>
    <g id="text_21">
     <!-- pas2 -->
     <g transform="translate(4178.951563 146.198438) scale(0.1 -0.1)">
      <defs>
       <path id="DejaVuSans-70" d="M 1159 525 
L 1159 -1331 
L 581 -1331 
L 581 3500 
L 1159 3500 
L 1159 2969 
Q 1341 3281 1617 3432 
Q 1894 3584 2278 3584 
Q 2916 3584 3314 3078 
Q 3713 2572 3713 1747 
Q 3713 922 3314 415 
Q 2916 -91 2278 -91 
Q 1894 -91 1617 61 
Q 1341 213 1159 525 
z
M 3116 1747 
Q 3116 2381 2855 2742 
Q 2594 3103 2138 3103 
Q 1681 3103 1420 2742 
Q 1159 2381 1159 1747 
Q 1159 1113 1420 752 
Q 1681 391 2138 391 
Q 2594 391 2855 752 
Q 3116 1113 3116 1747 
z
" transform="scale(0.015625)"/>
       <path id="DejaVuSans-61" d="M 2194 1759 
Q 1497 1759 1228 1600 
Q 959 1441 959 1056 
Q 959 750 1161 570 
Q 1363 391 1709 391 
Q 2188 391 2477 730 
Q 2766 1069 2766 1631 
L 2766 1759 
L 2194 1759 
z
M 3341 1997 
L 3341 0 
L 2766 0 
L 2766 531 
Q 2569 213 2275 61 
Q 1981 -91 1556 -91 
Q 1019 -91 701 211 
Q 384 513 384 1019 
Q 384 1609 779 1909 
Q 1175 2209 1959 2209 
L 2766 2209 
L 2766 2266 
Q 2766 2663 2505 2880 
Q 2244 3097 1772 3097 
Q 1472 3097 1187 3025 
Q 903 2953 641 2809 
L 641 3341 
Q 956 3463 1253 3523 
Q 1550 3584 1831 3584 
Q 2591 3584 2966 3190 
Q 3341 2797 3341 1997 
z
" transform="scale(0.015625)"/>
       <path id="DejaVuSans-73" d="M 2834 3397 
L 2834 2853 
Q 2591 2978 2328 3040 
Q 2066 3103 1784 3103 
Q 1356 3103 1142 2972 
Q 928 2841 928 2578 
Q 928 2378 1081 2264 
Q 1234 2150 1697 2047 
L 1894 2003 
Q 2506 1872 2764 1633 
Q 3022 1394 3022 966 
Q 3022 478 2636 193 
Q 2250 -91 1575 -91 
Q 1294 -91 989 -36 
Q 684 19 347 128 
L 347 722 
Q 666 556 975 473 
Q 1284 391 1588 391 
Q 1994 391 2212 530 
Q 2431 669 2431 922 
Q 2431 1156 2273 1281 
Q 2116 1406 1581 1522 
L 1381 1569 
Q 847 1681 609 1914 
Q 372 2147 372 2553 
Q 372 3047 722 3315 
Q 1072 3584 1716 3584 
Q 2034 3584 2315 3537 
Q 2597 3491 2834 3397 
z
" transform="scale(0.015625)"/>
      </defs>
      <use xlink:href="#DejaVuSans-70"/>
      <use xlink:href="#DejaVuSans-61" x="63.476562"/>
      <use xlink:href="#DejaVuSans-73" x="124.755859"/>
      <use xlink:href="#DejaVuSans-32" x="176.855469"/>
     </g>
    </g>
   </g>
  </g>
 </g>
 <defs>
  <clipPath id="p44d22010bd">
   <rect x="585" y="129.6" width="3627" height="831.6"/>
  </clipPath>
 </defs>
</svg>
