<?xml version="1.0" encoding="utf-8" standalone="no"?>
<!DOCTYPE svg PUBLIC "-//W3C//DTD SVG 1.1//EN"
  "http://www.w3.org/Graphics/SVG/1.1/DTD/svg11.dtd">
<svg xmlns:xlink="http://www.w3.org/1999/xlink" width="4680pt" height="1080pt" viewBox="0 0 4680 1080" xmlns="http://www.w3.org/2000/svg" version="1.1">
 <metadata>
  <rdf:RDF xmlns:dc="http://purl.org/dc/elements/1.1/" xmlns:cc="http://creativecommons.org/ns#" xmlns:rdf="http://www.w3.org/1999/02/22-rdf-syntax-ns#">
   <cc:Work>
    <dc:type rdf:resource="http://purl.org/dc/dcmitype/StillImage"/>
    <dc:date>2024-03-25T15:24:56.174524</dc:date>
    <dc:format>image/svg+xml</dc:format>
    <dc:creator>
     <cc:Agent>
      <dc:title>Matplotlib v3.7.2, https://matplotlib.org/</dc:title>
     </cc:Agent>
    </dc:creator>
   </cc:Work>
  </rdf:RDF>
 </metadata>
 <defs>
  <style type="text/css">*{stroke-linejoin: round; stroke-linecap: butt}</style>
 </defs>
 <g id="figure_1">
  <g id="patch_1">
   <path d="M 0 1080 
L 4680 1080 
L 4680 0 
L 0 0 
z
" style="fill: #ffffff"/>
  </g>
  <g id="axes_1">
   <g id="patch_2">
    <path d="M 585 961.2 
L 4212 961.2 
L 4212 129.6 
L 585 129.6 
z
" style="fill: #ffffff"/>
   </g>
   <g id="matplotlib.axis_1">
    <g id="xtick_1">
     <g id="line2d_1">
      <defs>
       <path id="m190827d16b" d="M 0 0 
L 0 3.5 
" style="stroke: #000000; stroke-width: 0.8"/>
      </defs>
      <g>
       <use xlink:href="#m190827d16b" x="941.800468" y="961.2" style="stroke: #000000; stroke-width: 0.8"/>
      </g>
     </g>
     <g id="text_1">
      <!-- 2012-07 -->
      <g transform="translate(900.017655 983.396875) scale(0.2 -0.2)">
       <defs>
        <path id="DejaVuSans-32" d="M 1228 531 
L 3431 531 
L 3431 0 
L 469 0 
L 469 531 
Q 828 903 1448 1529 
Q 2069 2156 2228 2338 
Q 2531 2678 2651 2914 
Q 2772 3150 2772 3378 
Q 2772 3750 2511 3984 
Q 2250 4219 1831 4219 
Q 1534 4219 1204 4116 
Q 875 4013 500 3803 
L 500 4441 
Q 881 4594 1212 4672 
Q 1544 4750 1819 4750 
Q 2544 4750 2975 4387 
Q 3406 4025 3406 3419 
Q 3406 3131 3298 2873 
Q 3191 2616 2906 2266 
Q 2828 2175 2409 1742 
Q 1991 1309 1228 531 
z
" transform="scale(0.015625)"/>
        <path id="DejaVuSans-30" d="M 2034 4250 
Q 1547 4250 1301 3770 
Q 1056 3291 1056 2328 
Q 1056 1369 1301 889 
Q 1547 409 2034 409 
Q 2525 409 2770 889 
Q 3016 1369 3016 2328 
Q 3016 3291 2770 3770 
Q 2525 4250 2034 4250 
z
M 2034 4750 
Q 2819 4750 3233 4129 
Q 3647 3509 3647 2328 
Q 3647 1150 3233 529 
Q 2819 -91 2034 -91 
Q 1250 -91 836 529 
Q 422 1150 422 2328 
Q 422 3509 836 4129 
Q 1250 4750 2034 4750 
z
" transform="scale(0.015625)"/>
        <path id="DejaVuSans-31" d="M 794 531 
L 1825 531 
L 1825 4091 
L 703 3866 
L 703 4441 
L 1819 4666 
L 2450 4666 
L 2450 531 
L 3481 531 
L 3481 0 
L 794 0 
L 794 531 
z
" transform="scale(0.015625)"/>
        <path id="DejaVuSans-2d" d="M 313 2009 
L 1997 2009 
L 1997 1497 
L 313 1497 
L 313 2009 
z
" transform="scale(0.015625)"/>
        <path id="DejaVuSans-37" d="M 525 4666 
L 3525 4666 
L 3525 4397 
L 1831 0 
L 1172 0 
L 2766 4134 
L 525 4134 
L 525 4666 
z
" transform="scale(0.015625)"/>
       </defs>
       <use xlink:href="#DejaVuSans-32"/>
       <use xlink:href="#DejaVuSans-30" x="63.623047"/>
       <use xlink:href="#DejaVuSans-31" x="127.246094"/>
       <use xlink:href="#DejaVuSans-32" x="190.869141"/>
       <use xlink:href="#DejaVuSans-2d" x="254.492188"/>
       <use xlink:href="#DejaVuSans-30" x="290.576172"/>
       <use xlink:href="#DejaVuSans-37" x="354.199219"/>
      </g>
     </g>
    </g>
    <g id="xtick_2">
     <g id="line2d_2">
      <g>
       <use xlink:href="#m190827d16b" x="1313.551805" y="961.2" style="stroke: #000000; stroke-width: 0.8"/>
      </g>
     </g>
     <g id="text_2">
      <!-- 2013-01 -->
      <g transform="translate(1271.768992 983.396875) scale(0.2 -0.2)">
       <defs>
        <path id="DejaVuSans-33" d="M 2597 2516 
Q 3050 2419 3304 2112 
Q 3559 1806 3559 1356 
Q 3559 666 3084 287 
Q 2609 -91 1734 -91 
Q 1441 -91 1130 -33 
Q 819 25 488 141 
L 488 750 
Q 750 597 1062 519 
Q 1375 441 1716 441 
Q 2309 441 2620 675 
Q 2931 909 2931 1356 
Q 2931 1769 2642 2001 
Q 2353 2234 1838 2234 
L 1294 2234 
L 1294 2753 
L 1863 2753 
Q 2328 2753 2575 2939 
Q 2822 3125 2822 3475 
Q 2822 3834 2567 4026 
Q 2313 4219 1838 4219 
Q 1578 4219 1281 4162 
Q 984 4106 628 3988 
L 628 4550 
Q 988 4650 1302 4700 
Q 1616 4750 1894 4750 
Q 2613 4750 3031 4423 
Q 3450 4097 3450 3541 
Q 3450 3153 3228 2886 
Q 3006 2619 2597 2516 
z
" transform="scale(0.015625)"/>
       </defs>
       <use xlink:href="#DejaVuSans-32"/>
       <use xlink:href="#DejaVuSans-30" x="63.623047"/>
       <use xlink:href="#DejaVuSans-31" x="127.246094"/>
       <use xlink:href="#DejaVuSans-33" x="190.869141"/>
       <use xlink:href="#DejaVuSans-2d" x="254.492188"/>
       <use xlink:href="#DejaVuSans-30" x="290.576172"/>
       <use xlink:href="#DejaVuSans-31" x="354.199219"/>
      </g>
     </g>
    </g>
    <g id="xtick_3">
     <g id="line2d_3">
      <g>
       <use xlink:href="#m190827d16b" x="1679.241979" y="961.2" style="stroke: #000000; stroke-width: 0.8"/>
      </g>
     </g>
     <g id="text_3">
      <!-- 2013-07 -->
      <g transform="translate(1637.459166 983.396875) scale(0.2 -0.2)">
       <use xlink:href="#DejaVuSans-32"/>
       <use xlink:href="#DejaVuSans-30" x="63.623047"/>
       <use xlink:href="#DejaVuSans-31" x="127.246094"/>
       <use xlink:href="#DejaVuSans-33" x="190.869141"/>
       <use xlink:href="#DejaVuSans-2d" x="254.492188"/>
       <use xlink:href="#DejaVuSans-30" x="290.576172"/>
       <use xlink:href="#DejaVuSans-37" x="354.199219"/>
      </g>
     </g>
    </g>
    <g id="xtick_4">
     <g id="line2d_4">
      <g>
       <use xlink:href="#m190827d16b" x="2050.993316" y="961.2" style="stroke: #000000; stroke-width: 0.8"/>
      </g>
     </g>
     <g id="text_4">
      <!-- 2014-01 -->
      <g transform="translate(2009.210503 983.396875) scale(0.2 -0.2)">
       <defs>
        <path id="DejaVuSans-34" d="M 2419 4116 
L 825 1625 
L 2419 1625 
L 2419 4116 
z
M 2253 4666 
L 3047 4666 
L 3047 1625 
L 3713 1625 
L 3713 1100 
L 3047 1100 
L 3047 0 
L 2419 0 
L 2419 1100 
L 313 1100 
L 313 1709 
L 2253 4666 
z
" transform="scale(0.015625)"/>
       </defs>
       <use xlink:href="#DejaVuSans-32"/>
       <use xlink:href="#DejaVuSans-30" x="63.623047"/>
       <use xlink:href="#DejaVuSans-31" x="127.246094"/>
       <use xlink:href="#DejaVuSans-34" x="190.869141"/>
       <use xlink:href="#DejaVuSans-2d" x="254.492188"/>
       <use xlink:href="#DejaVuSans-30" x="290.576172"/>
       <use xlink:href="#DejaVuSans-31" x="354.199219"/>
      </g>
     </g>
    </g>
    <g id="xtick_5">
     <g id="line2d_5">
      <g>
       <use xlink:href="#m190827d16b" x="2416.683489" y="961.2" style="stroke: #000000; stroke-width: 0.8"/>
      </g>
     </g>
     <g id="text_5">
      <!-- 2014-07 -->
      <g transform="translate(2374.900677 983.396875) scale(0.2 -0.2)">
       <use xlink:href="#DejaVuSans-32"/>
       <use xlink:href="#DejaVuSans-30" x="63.623047"/>
       <use xlink:href="#DejaVuSans-31" x="127.246094"/>
       <use xlink:href="#DejaVuSans-34" x="190.869141"/>
       <use xlink:href="#DejaVuSans-2d" x="254.492188"/>
       <use xlink:href="#DejaVuSans-30" x="290.576172"/>
       <use xlink:href="#DejaVuSans-37" x="354.199219"/>
      </g>
     </g>
    </g>
    <g id="xtick_6">
     <g id="line2d_6">
      <g>
       <use xlink:href="#m190827d16b" x="2788.434826" y="961.2" style="stroke: #000000; stroke-width: 0.8"/>
      </g>
     </g>
     <g id="text_6">
      <!-- 2015-01 -->
      <g transform="translate(2746.652014 983.396875) scale(0.2 -0.2)">
       <defs>
        <path id="DejaVuSans-35" d="M 691 4666 
L 3169 4666 
L 3169 4134 
L 1269 4134 
L 1269 2991 
Q 1406 3038 1543 3061 
Q 1681 3084 1819 3084 
Q 2600 3084 3056 2656 
Q 3513 2228 3513 1497 
Q 3513 744 3044 326 
Q 2575 -91 1722 -91 
Q 1428 -91 1123 -41 
Q 819 9 494 109 
L 494 744 
Q 775 591 1075 516 
Q 1375 441 1709 441 
Q 2250 441 2565 725 
Q 2881 1009 2881 1497 
Q 2881 1984 2565 2268 
Q 2250 2553 1709 2553 
Q 1456 2553 1204 2497 
Q 953 2441 691 2322 
L 691 4666 
z
" transform="scale(0.015625)"/>
       </defs>
       <use xlink:href="#DejaVuSans-32"/>
       <use xlink:href="#DejaVuSans-30" x="63.623047"/>
       <use xlink:href="#DejaVuSans-31" x="127.246094"/>
       <use xlink:href="#DejaVuSans-35" x="190.869141"/>
       <use xlink:href="#DejaVuSans-2d" x="254.492188"/>
       <use xlink:href="#DejaVuSans-30" x="290.576172"/>
       <use xlink:href="#DejaVuSans-31" x="354.199219"/>
      </g>
     </g>
    </g>
    <g id="xtick_7">
     <g id="line2d_7">
      <g>
       <use xlink:href="#m190827d16b" x="3154.125" y="961.2" style="stroke: #000000; stroke-width: 0.8"/>
      </g>
     </g>
     <g id="text_7">
      <!-- 2015-07 -->
      <g transform="translate(3112.342188 983.396875) scale(0.2 -0.2)">
       <use xlink:href="#DejaVuSans-32"/>
       <use xlink:href="#DejaVuSans-30" x="63.623047"/>
       <use xlink:href="#DejaVuSans-31" x="127.246094"/>
       <use xlink:href="#DejaVuSans-35" x="190.869141"/>
       <use xlink:href="#DejaVuSans-2d" x="254.492188"/>
       <use xlink:href="#DejaVuSans-30" x="290.576172"/>
       <use xlink:href="#DejaVuSans-37" x="354.199219"/>
      </g>
     </g>
    </g>
    <g id="xtick_8">
     <g id="line2d_8">
      <g>
       <use xlink:href="#m190827d16b" x="3525.876337" y="961.2" style="stroke: #000000; stroke-width: 0.8"/>
      </g>
     </g>
     <g id="text_8">
      <!-- 2016-01 -->
      <g transform="translate(3484.093524 983.396875) scale(0.2 -0.2)">
       <defs>
        <path id="DejaVuSans-36" d="M 2113 2584 
Q 1688 2584 1439 2293 
Q 1191 2003 1191 1497 
Q 1191 994 1439 701 
Q 1688 409 2113 409 
Q 2538 409 2786 701 
Q 3034 994 3034 1497 
Q 3034 2003 2786 2293 
Q 2538 2584 2113 2584 
z
M 3366 4563 
L 3366 3988 
Q 3128 4100 2886 4159 
Q 2644 4219 2406 4219 
Q 1781 4219 1451 3797 
Q 1122 3375 1075 2522 
Q 1259 2794 1537 2939 
Q 1816 3084 2150 3084 
Q 2853 3084 3261 2657 
Q 3669 2231 3669 1497 
Q 3669 778 3244 343 
Q 2819 -91 2113 -91 
Q 1303 -91 875 529 
Q 447 1150 447 2328 
Q 447 3434 972 4092 
Q 1497 4750 2381 4750 
Q 2619 4750 2861 4703 
Q 3103 4656 3366 4563 
z
" transform="scale(0.015625)"/>
       </defs>
       <use xlink:href="#DejaVuSans-32"/>
       <use xlink:href="#DejaVuSans-30" x="63.623047"/>
       <use xlink:href="#DejaVuSans-31" x="127.246094"/>
       <use xlink:href="#DejaVuSans-36" x="190.869141"/>
       <use xlink:href="#DejaVuSans-2d" x="254.492188"/>
       <use xlink:href="#DejaVuSans-30" x="290.576172"/>
       <use xlink:href="#DejaVuSans-31" x="354.199219"/>
      </g>
     </g>
    </g>
    <g id="xtick_9">
     <g id="line2d_9">
      <g>
       <use xlink:href="#m190827d16b" x="3893.586898" y="961.2" style="stroke: #000000; stroke-width: 0.8"/>
      </g>
     </g>
     <g id="text_9">
      <!-- 2016-07 -->
      <g transform="translate(3851.804086 983.396875) scale(0.2 -0.2)">
       <use xlink:href="#DejaVuSans-32"/>
       <use xlink:href="#DejaVuSans-30" x="63.623047"/>
       <use xlink:href="#DejaVuSans-31" x="127.246094"/>
       <use xlink:href="#DejaVuSans-36" x="190.869141"/>
       <use xlink:href="#DejaVuSans-2d" x="254.492188"/>
       <use xlink:href="#DejaVuSans-30" x="290.576172"/>
       <use xlink:href="#DejaVuSans-37" x="354.199219"/>
      </g>
     </g>
    </g>
    <g id="text_10">
     <!-- Time -->
     <g transform="translate(2374.032813 1006.753125) scale(0.2 -0.2)">
      <defs>
       <path id="DejaVuSans-54" d="M -19 4666 
L 3928 4666 
L 3928 4134 
L 2272 4134 
L 2272 0 
L 1638 0 
L 1638 4134 
L -19 4134 
L -19 4666 
z
" transform="scale(0.015625)"/>
       <path id="DejaVuSans-69" d="M 603 3500 
L 1178 3500 
L 1178 0 
L 603 0 
L 603 3500 
z
M 603 4863 
L 1178 4863 
L 1178 4134 
L 603 4134 
L 603 4863 
z
" transform="scale(0.015625)"/>
       <path id="DejaVuSans-6d" d="M 3328 2828 
Q 3544 3216 3844 3400 
Q 4144 3584 4550 3584 
Q 5097 3584 5394 3201 
Q 5691 2819 5691 2113 
L 5691 0 
L 5113 0 
L 5113 2094 
Q 5113 2597 4934 2840 
Q 4756 3084 4391 3084 
Q 3944 3084 3684 2787 
Q 3425 2491 3425 1978 
L 3425 0 
L 2847 0 
L 2847 2094 
Q 2847 2600 2669 2842 
Q 2491 3084 2119 3084 
Q 1678 3084 1418 2786 
Q 1159 2488 1159 1978 
L 1159 0 
L 581 0 
L 581 3500 
L 1159 3500 
L 1159 2956 
Q 1356 3278 1631 3431 
Q 1906 3584 2284 3584 
Q 2666 3584 2933 3390 
Q 3200 3197 3328 2828 
z
" transform="scale(0.015625)"/>
       <path id="DejaVuSans-65" d="M 3597 1894 
L 3597 1613 
L 953 1613 
Q 991 1019 1311 708 
Q 1631 397 2203 397 
Q 2534 397 2845 478 
Q 3156 559 3463 722 
L 3463 178 
Q 3153 47 2828 -22 
Q 2503 -91 2169 -91 
Q 1331 -91 842 396 
Q 353 884 353 1716 
Q 353 2575 817 3079 
Q 1281 3584 2069 3584 
Q 2775 3584 3186 3129 
Q 3597 2675 3597 1894 
z
M 3022 2063 
Q 3016 2534 2758 2815 
Q 2500 3097 2075 3097 
Q 1594 3097 1305 2825 
Q 1016 2553 972 2059 
L 3022 2063 
z
" transform="scale(0.015625)"/>
      </defs>
      <use xlink:href="#DejaVuSans-54"/>
      <use xlink:href="#DejaVuSans-69" x="57.958984"/>
      <use xlink:href="#DejaVuSans-6d" x="85.742188"/>
      <use xlink:href="#DejaVuSans-65" x="183.154297"/>
     </g>
    </g>
   </g>
   <g id="matplotlib.axis_2">
    <g id="ytick_1">
     <g id="line2d_10">
      <defs>
       <path id="ma0fd3650a6" d="M 0 0 
L -3.5 0 
" style="stroke: #000000; stroke-width: 0.8"/>
      </defs>
      <g>
       <use xlink:href="#ma0fd3650a6" x="585" y="865.553567" style="stroke: #000000; stroke-width: 0.8"/>
      </g>
     </g>
     <g id="text_11">
      <!-- −0.003 -->
      <g transform="translate(503.984375 873.152005) scale(0.2 -0.2)">
       <defs>
        <path id="DejaVuSans-2212" d="M 678 2272 
L 4684 2272 
L 4684 1741 
L 678 1741 
L 678 2272 
z
" transform="scale(0.015625)"/>
        <path id="DejaVuSans-2e" d="M 684 794 
L 1344 794 
L 1344 0 
L 684 0 
L 684 794 
z
" transform="scale(0.015625)"/>
       </defs>
       <use xlink:href="#DejaVuSans-2212"/>
       <use xlink:href="#DejaVuSans-30" x="83.789062"/>
       <use xlink:href="#DejaVuSans-2e" x="147.412109"/>
       <use xlink:href="#DejaVuSans-30" x="179.199219"/>
       <use xlink:href="#DejaVuSans-30" x="242.822266"/>
       <use xlink:href="#DejaVuSans-33" x="306.445312"/>
      </g>
     </g>
    </g>
    <g id="ytick_2">
     <g id="line2d_11">
      <g>
       <use xlink:href="#ma0fd3650a6" x="585" y="764.70521" style="stroke: #000000; stroke-width: 0.8"/>
      </g>
     </g>
     <g id="text_12">
      <!-- −0.002 -->
      <g transform="translate(503.984375 772.303647) scale(0.2 -0.2)">
       <use xlink:href="#DejaVuSans-2212"/>
       <use xlink:href="#DejaVuSans-30" x="83.789062"/>
       <use xlink:href="#DejaVuSans-2e" x="147.412109"/>
       <use xlink:href="#DejaVuSans-30" x="179.199219"/>
       <use xlink:href="#DejaVuSans-30" x="242.822266"/>
       <use xlink:href="#DejaVuSans-32" x="306.445312"/>
      </g>
     </g>
    </g>
    <g id="ytick_3">
     <g id="line2d_12">
      <g>
       <use xlink:href="#ma0fd3650a6" x="585" y="663.856852" style="stroke: #000000; stroke-width: 0.8"/>
      </g>
     </g>
     <g id="text_13">
      <!-- −0.001 -->
      <g transform="translate(503.984375 671.45529) scale(0.2 -0.2)">
       <use xlink:href="#DejaVuSans-2212"/>
       <use xlink:href="#DejaVuSans-30" x="83.789062"/>
       <use xlink:href="#DejaVuSans-2e" x="147.412109"/>
       <use xlink:href="#DejaVuSans-30" x="179.199219"/>
       <use xlink:href="#DejaVuSans-30" x="242.822266"/>
       <use xlink:href="#DejaVuSans-31" x="306.445312"/>
      </g>
     </g>
    </g>
    <g id="ytick_4">
     <g id="line2d_13">
      <g>
       <use xlink:href="#ma0fd3650a6" x="585" y="563.008495" style="stroke: #000000; stroke-width: 0.8"/>
      </g>
     </g>
     <g id="text_14">
      <!-- 0.000 -->
      <g transform="translate(520.74375 570.606932) scale(0.2 -0.2)">
       <use xlink:href="#DejaVuSans-30"/>
       <use xlink:href="#DejaVuSans-2e" x="63.623047"/>
       <use xlink:href="#DejaVuSans-30" x="95.410156"/>
       <use xlink:href="#DejaVuSans-30" x="159.033203"/>
       <use xlink:href="#DejaVuSans-30" x="222.65625"/>
      </g>
     </g>
    </g>
    <g id="ytick_5">
     <g id="line2d_14">
      <g>
       <use xlink:href="#ma0fd3650a6" x="585" y="462.160137" style="stroke: #000000; stroke-width: 0.8"/>
      </g>
     </g>
     <g id="text_15">
      <!-- 0.001 -->
      <g transform="translate(520.74375 469.758574) scale(0.2 -0.2)">
       <use xlink:href="#DejaVuSans-30"/>
       <use xlink:href="#DejaVuSans-2e" x="63.623047"/>
       <use xlink:href="#DejaVuSans-30" x="95.410156"/>
       <use xlink:href="#DejaVuSans-30" x="159.033203"/>
       <use xlink:href="#DejaVuSans-31" x="222.65625"/>
      </g>
     </g>
    </g>
    <g id="ytick_6">
     <g id="line2d_15">
      <g>
       <use xlink:href="#ma0fd3650a6" x="585" y="361.311779" style="stroke: #000000; stroke-width: 0.8"/>
      </g>
     </g>
     <g id="text_16">
      <!-- 0.002 -->
      <g transform="translate(520.74375 368.910217) scale(0.2 -0.2)">
       <use xlink:href="#DejaVuSans-30"/>
       <use xlink:href="#DejaVuSans-2e" x="63.623047"/>
       <use xlink:href="#DejaVuSans-30" x="95.410156"/>
       <use xlink:href="#DejaVuSans-30" x="159.033203"/>
       <use xlink:href="#DejaVuSans-32" x="222.65625"/>
      </g>
     </g>
    </g>
    <g id="ytick_7">
     <g id="line2d_16">
      <g>
       <use xlink:href="#ma0fd3650a6" x="585" y="260.463422" style="stroke: #000000; stroke-width: 0.8"/>
      </g>
     </g>
     <g id="text_17">
      <!-- 0.003 -->
      <g transform="translate(520.74375 268.061859) scale(0.2 -0.2)">
       <use xlink:href="#DejaVuSans-30"/>
       <use xlink:href="#DejaVuSans-2e" x="63.623047"/>
       <use xlink:href="#DejaVuSans-30" x="95.410156"/>
       <use xlink:href="#DejaVuSans-30" x="159.033203"/>
       <use xlink:href="#DejaVuSans-33" x="222.65625"/>
      </g>
     </g>
    </g>
    <g id="ytick_8">
     <g id="line2d_17">
      <g>
       <use xlink:href="#ma0fd3650a6" x="585" y="159.615064" style="stroke: #000000; stroke-width: 0.8"/>
      </g>
     </g>
     <g id="text_18">
      <!-- 0.004 -->
      <g transform="translate(520.74375 167.213502) scale(0.2 -0.2)">
       <use xlink:href="#DejaVuSans-30"/>
       <use xlink:href="#DejaVuSans-2e" x="63.623047"/>
       <use xlink:href="#DejaVuSans-30" x="95.410156"/>
       <use xlink:href="#DejaVuSans-30" x="159.033203"/>
       <use xlink:href="#DejaVuSans-34" x="222.65625"/>
      </g>
     </g>
    </g>
    <g id="text_19">
     <!-- North(m) -->
     <g transform="translate(495.825 590.9125) rotate(-90) scale(0.2 -0.2)">
      <defs>
       <path id="DejaVuSans-4e" d="M 628 4666 
L 1478 4666 
L 3547 763 
L 3547 4666 
L 4159 4666 
L 4159 0 
L 3309 0 
L 1241 3903 
L 1241 0 
L 628 0 
L 628 4666 
z
" transform="scale(0.015625)"/>
       <path id="DejaVuSans-6f" d="M 1959 3097 
Q 1497 3097 1228 2736 
Q 959 2375 959 1747 
Q 959 1119 1226 758 
Q 1494 397 1959 397 
Q 2419 397 2687 759 
Q 2956 1122 2956 1747 
Q 2956 2369 2687 2733 
Q 2419 3097 1959 3097 
z
M 1959 3584 
Q 2709 3584 3137 3096 
Q 3566 2609 3566 1747 
Q 3566 888 3137 398 
Q 2709 -91 1959 -91 
Q 1206 -91 779 398 
Q 353 888 353 1747 
Q 353 2609 779 3096 
Q 1206 3584 1959 3584 
z
" transform="scale(0.015625)"/>
       <path id="DejaVuSans-72" d="M 2631 2963 
Q 2534 3019 2420 3045 
Q 2306 3072 2169 3072 
Q 1681 3072 1420 2755 
Q 1159 2438 1159 1844 
L 1159 0 
L 581 0 
L 581 3500 
L 1159 3500 
L 1159 2956 
Q 1341 3275 1631 3429 
Q 1922 3584 2338 3584 
Q 2397 3584 2469 3576 
Q 2541 3569 2628 3553 
L 2631 2963 
z
" transform="scale(0.015625)"/>
       <path id="DejaVuSans-74" d="M 1172 4494 
L 1172 3500 
L 2356 3500 
L 2356 3053 
L 1172 3053 
L 1172 1153 
Q 1172 725 1289 603 
Q 1406 481 1766 481 
L 2356 481 
L 2356 0 
L 1766 0 
Q 1100 0 847 248 
Q 594 497 594 1153 
L 594 3053 
L 172 3053 
L 172 3500 
L 594 3500 
L 594 4494 
L 1172 4494 
z
" transform="scale(0.015625)"/>
       <path id="DejaVuSans-68" d="M 3513 2113 
L 3513 0 
L 2938 0 
L 2938 2094 
Q 2938 2591 2744 2837 
Q 2550 3084 2163 3084 
Q 1697 3084 1428 2787 
Q 1159 2491 1159 1978 
L 1159 0 
L 581 0 
L 581 4863 
L 1159 4863 
L 1159 2956 
Q 1366 3272 1645 3428 
Q 1925 3584 2291 3584 
Q 2894 3584 3203 3211 
Q 3513 2838 3513 2113 
z
" transform="scale(0.015625)"/>
       <path id="DejaVuSans-28" d="M 1984 4856 
Q 1566 4138 1362 3434 
Q 1159 2731 1159 2009 
Q 1159 1288 1364 580 
Q 1569 -128 1984 -844 
L 1484 -844 
Q 1016 -109 783 600 
Q 550 1309 550 2009 
Q 550 2706 781 3412 
Q 1013 4119 1484 4856 
L 1984 4856 
z
" transform="scale(0.015625)"/>
       <path id="DejaVuSans-29" d="M 513 4856 
L 1013 4856 
Q 1481 4119 1714 3412 
Q 1947 2706 1947 2009 
Q 1947 1309 1714 600 
Q 1481 -109 1013 -844 
L 513 -844 
Q 928 -128 1133 580 
Q 1338 1288 1338 2009 
Q 1338 2731 1133 3434 
Q 928 4138 513 4856 
z
" transform="scale(0.015625)"/>
      </defs>
      <use xlink:href="#DejaVuSans-4e"/>
      <use xlink:href="#DejaVuSans-6f" x="74.804688"/>
      <use xlink:href="#DejaVuSans-72" x="135.986328"/>
      <use xlink:href="#DejaVuSans-74" x="177.099609"/>
      <use xlink:href="#DejaVuSans-68" x="216.308594"/>
      <use xlink:href="#DejaVuSans-28" x="279.6875"/>
      <use xlink:href="#DejaVuSans-6d" x="318.701172"/>
      <use xlink:href="#DejaVuSans-29" x="416.113281"/>
     </g>
    </g>
   </g>
   <g id="line2d_18">
    <path d="M 749.863636 697.989289 
L 755.924799 798.290088 
L 761.985963 801.596309 
L 764.00635 791.803023 
L 766.026738 779.582769 
L 768.047126 737.647083 
L 770.067513 729.025735 
L 772.087901 703.487753 
L 774.108289 691.056158 
L 776.128676 663.443172 
L 790.27139 605.100518 
L 792.291778 694.637989 
L 794.312166 708.323738 
L 796.332553 704.259634 
L 798.352941 708.013283 
L 800.373329 727.075517 
L 802.393717 724.352122 
L 806.434492 650.581817 
L 808.45488 627.371907 
L 810.475267 606.625471 
L 812.495655 608.914272 
L 824.617981 710.950294 
L 830.679144 696.534007 
L 832.699532 678.352802 
L 834.71992 677.245755 
L 836.740307 674.50775 
L 844.821858 641.975198 
L 850.883021 593.428441 
L 852.903409 581.36391 
L 854.923797 594.717229 
L 856.944184 626.541425 
L 860.98496 667.031078 
L 867.046123 708.853629 
L 869.066511 713.289715 
L 873.107286 707.977223 
L 875.127674 702.273696 
L 877.148061 723.366619 
L 879.168449 711.270451 
L 881.188837 723.680961 
L 883.209225 697.607572 
L 885.229612 682.201672 
L 889.270388 700.829043 
L 891.290775 706.836452 
L 893.311163 705.595994 
L 895.331551 711.331946 
L 897.351939 733.71806 
L 899.372326 735.541291 
L 901.392714 724.658235 
L 905.433489 691.180515 
L 907.453877 692.92162 
L 909.474265 685.027867 
L 913.51504 680.2883 
L 915.535428 689.211495 
L 917.555816 702.57856 
L 933.718917 744.148531 
L 937.759693 743.378297 
L 1044.840241 827.601874 
L 1048.881016 800.294776 
L 1212.53242 697.944495 
L 1214.552807 698.034867 
L 1216.573195 695.354855 
L 1226.675134 775.530062 
L 1230.715909 758.676119 
L 1232.736297 774.179458 
L 1234.756684 769.421233 
L 1236.777072 753.894453 
L 1238.79746 752.998076 
L 1240.817848 721.11722 
L 1242.838235 693.579257 
L 1252.940174 710.025645 
L 1333.755682 599.529349 
L 1335.77607 717.50685 
L 1337.796457 761.747472 
L 1341.837233 801.833868 
L 1372.143048 757.297429 
L 1374.163436 737.227333 
L 1376.183824 755.83045 
L 1378.204211 748.028722 
L 1382.244987 711.369499 
L 1384.265374 734.639854 
L 1386.285762 704.479428 
L 1388.30615 687.564042 
L 1390.326537 650.870245 
L 1392.346925 657.411796 
L 1394.367313 713.551866 
L 1398.408088 747.45309 
L 1400.428476 800.018 
L 1402.448864 828.35211 
L 1404.469251 862.405647 
L 1406.489639 871.004229 
L 1414.57119 709.70935 
L 1416.591578 676.707051 
L 1418.611965 667.95765 
L 1420.632353 676.598694 
L 1422.652741 706.656686 
L 1424.673128 735.043658 
L 1426.693516 784.914701 
L 1432.754679 868.230661 
L 1434.775067 857.91741 
L 1436.795455 839.354579 
L 1442.856618 795.585572 
L 1444.877005 765.368476 
L 1446.897393 745.71488 
L 1454.978944 707.443261 
L 1456.999332 700.048346 
L 1459.019719 691.006276 
L 1461.040107 687.913285 
L 1463.060495 682.860711 
L 1465.080882 695.415819 
L 1471.142045 706.972791 
L 1473.162433 679.45113 
L 1475.182821 667.067398 
L 1479.223596 585.113643 
L 1481.243984 566.571015 
L 1483.264372 558.171311 
L 1485.284759 548.683495 
L 1487.305147 576.637716 
L 1489.325535 606.688739 
L 1491.345922 611.886593 
L 1493.36631 654.586206 
L 1495.386698 692.354363 
L 1497.407086 682.729073 
L 1501.447861 649.633154 
L 1669.14004 578.162881 
L 1673.180816 634.076241 
L 1677.221591 699.340242 
L 1681.262366 715.110581 
L 1683.282754 738.221673 
L 1687.323529 709.811036 
L 1689.343917 723.105073 
L 1691.364305 705.878346 
L 1693.384693 703.517815 
L 1695.40508 725.969363 
L 1697.425468 734.333662 
L 1699.445856 728.920371 
L 1701.466243 720.230575 
L 1703.486631 716.628551 
L 1705.507019 732.529415 
L 1707.527406 731.31523 
L 1709.547794 707.884109 
L 1711.568182 693.638021 
L 1715.608957 774.368881 
L 1717.629345 766.743214 
L 1719.649733 736.020815 
L 1721.67012 743.519134 
L 1723.690508 750.564198 
L 1725.710896 796.438339 
L 1727.731283 792.092022 
L 1729.751671 788.912731 
L 1731.772059 796.373504 
L 1737.833222 827.10429 
L 1739.85361 758.204988 
L 1741.873997 722.474624 
L 1743.894385 712.441319 
L 1745.914773 701.652256 
L 1747.93516 672.984363 
L 1749.955548 662.712977 
L 1751.975936 672.877488 
L 1753.996324 709.391075 
L 1756.016711 718.441663 
L 1758.037099 725.1473 
L 1768.139037 847.937401 
L 1780.261364 818.492837 
L 1782.281751 794.225402 
L 1784.302139 784.482839 
L 1786.322527 794.310845 
L 1788.342914 796.886313 
L 1790.363302 818.881271 
L 1792.38369 829.809727 
L 1794.404078 807.371929 
L 1796.424465 806.963931 
L 1806.526404 741.234671 
L 1808.546791 742.673472 
L 1810.567179 749.08883 
L 1812.587567 757.004457 
L 1814.607955 742.004326 
L 1816.628342 722.066047 
L 1818.64873 725.587195 
L 1822.689505 718.856151 
L 1824.709893 728.290938 
L 1826.730281 718.909437 
L 1828.750668 750.841618 
L 1832.791444 766.468644 
L 1834.811832 788.350969 
L 1836.832219 781.212497 
L 1838.852607 776.937209 
L 1954.014706 823.172994 
L 1956.035094 834.591937 
L 1958.055481 808.314066 
L 1960.075869 827.720551 
L 1962.096257 872.062877 
L 1966.137032 918.183563 
L 1968.15742 923.4 
L 1980.279746 689.56179 
L 1982.300134 693.419103 
L 1988.361297 808.343665 
L 1990.381684 828.986584 
L 1992.402072 855.552702 
L 1994.42246 860.341067 
L 1996.442848 849.272193 
L 2000.483623 804.903718 
L 2073.21758 835.617251 
L 2075.237968 807.849342 
L 2079.278743 774.176269 
L 2081.299131 777.92539 
L 2380.316511 895.542605 
L 2438.907754 832.429061 
L 2442.948529 812.593416 
L 2446.989305 782.870327 
L 2451.03008 774.595994 
L 2467.193182 760.897998 
L 3176.349265 243.597188 
L 3178.369652 266.012986 
L 3180.39004 276.235461 
L 3182.410428 257.353978 
L 3184.430816 241.154352 
L 3186.451203 235.662244 
L 3190.491979 221.109139 
L 3192.512366 205.057293 
L 3194.532754 167.4 
L 3196.553142 184.727364 
L 3200.593917 267.160443 
L 3208.675468 317.230246 
L 3210.695856 292.830419 
L 3212.716243 262.522161 
L 3214.736631 217.949346 
L 3216.757019 232.83688 
L 3218.777406 233.202627 
L 3220.797794 203.502834 
L 3222.818182 191.339569 
L 3224.83857 205.970467 
L 3226.858957 197.684764 
L 3228.879345 236.164304 
L 3230.899733 249.860481 
L 3253.123997 262.99665 
L 3257.164773 253.960639 
L 3259.18516 279.016359 
L 3261.205548 310.848299 
L 3265.246324 333.244396 
L 3267.266711 354.794226 
L 3269.287099 361.813817 
L 3277.36865 272.280035 
L 3287.470588 270.125159 
L 3289.490976 265.015959 
L 3291.511364 300.174926 
L 3293.531751 297.903823 
L 3295.552139 290.504403 
L 3297.572527 271.79101 
L 3299.592914 276.641916 
L 3301.613302 280.834108 
L 3303.63369 295.643631 
L 3305.654078 276.891815 
L 3309.694853 260.486246 
L 3315.756016 221.06721 
L 3317.776404 196.483149 
L 3319.796791 204.990897 
L 3321.817179 212.38466 
L 3323.837567 232.052075 
L 3325.857955 194.662387 
L 3327.878342 203.500139 
L 3329.89873 205.71699 
L 3331.919118 215.189825 
L 3340.000668 242.703945 
L 3342.021056 298.46995 
L 3344.041444 343.673309 
L 3346.061832 352.447554 
L 3348.082219 341.969387 
L 3350.102607 313.292326 
L 3352.122995 299.386788 
L 3354.143382 268.028851 
L 3360.204545 208.108187 
L 3362.224933 221.628527 
L 3364.245321 269.677244 
L 3366.265709 291.285276 
L 3368.286096 286.202156 
L 3370.306484 261.688856 
L 3372.326872 264.35402 
L 3374.347259 280.470688 
L 3376.367647 271.40603 
L 3400.612299 269.558756 
L 3402.632687 255.727395 
L 3404.653075 261.148753 
L 3406.673463 273.832843 
L 3410.714238 325.652514 
L 3412.734626 370.973344 
L 3414.755013 339.513802 
L 3416.775401 342.112408 
L 3418.795789 325.880969 
L 3420.816176 323.015891 
L 3422.836564 304.980583 
L 3424.856952 296.738367 
L 3426.87734 270.649568 
L 3428.897727 289.913932 
L 3432.938503 292.382602 
L 3434.95889 292.982762 
L 3436.979278 286.62211 
L 3438.999666 279.151802 
L 3441.020053 310.785743 
L 3443.040441 317.137184 
L 3445.060829 310.177075 
L 3447.081217 330.03678 
L 3449.101604 340.706719 
L 3451.121992 360.318961 
L 3453.14238 355.889805 
L 3455.162767 345.734932 
L 3457.183155 358.833784 
L 3459.203543 360.411225 
L 3461.22393 377.843956 
L 3463.244318 378.971967 
L 3465.264706 370.375045 
L 3467.285094 367.008323 
L 3471.325869 349.198306 
L 3473.346257 332.688208 
L 3475.366644 308.393892 
L 3477.387032 303.643456 
L 3479.40742 301.871857 
L 3481.427807 306.375559 
L 3483.448195 304.322121 
L 3485.468583 293.080106 
L 3487.488971 308.423071 
L 3489.509358 306.222149 
L 3491.529746 313.351393 
L 3493.550134 314.484905 
L 3497.590909 313.207425 
L 3499.611297 330.385278 
L 3503.652072 360.855485 
L 3505.67246 354.940518 
L 3507.692848 358.505258 
L 3509.713235 360.505341 
L 3511.733623 345.873524 
L 3513.754011 324.554039 
L 3515.774398 297.692533 
L 3517.794786 268.865754 
L 3521.835561 283.434199 
L 3523.855949 283.244534 
L 3527.896725 301.862984 
L 3529.917112 326.799875 
L 3531.9375 369.842451 
L 3533.957888 375.023022 
L 3537.998663 399.772024 
L 3540.019051 441.152179 
L 3542.039439 451.023666 
L 3544.059826 458.735767 
L 3548.100602 470.299447 
L 3550.120989 469.480767 
L 3552.141377 453.438969 
L 3554.161765 407.739087 
L 3556.182152 383.615338 
L 3558.20254 307.579573 
L 3560.222928 299.547309 
L 3562.243316 272.267502 
L 3564.263703 256.321599 
L 3566.284091 269.016955 
L 3568.304479 299.490868 
L 3570.324866 315.566214 
L 3572.345254 344.321061 
L 3582.447193 375.376416 
L 3584.46758 392.376872 
L 3586.487968 426.769323 
L 3590.528743 354.477635 
L 3592.549131 338.519617 
L 3594.569519 309.364512 
L 3596.589906 310.466109 
L 3598.610294 300.231935 
L 3600.630682 282.677885 
L 3602.65107 319.834183 
L 3604.671457 303.519397 
L 3647.099599 268.002805 
L 3649.119987 228.764342 
L 3653.160762 220.613245 
L 3659.221925 243.658563 
L 3661.242313 270.88589 
L 3663.262701 285.83767 
L 3665.283088 288.37107 
L 3667.303476 276.054529 
L 3671.344251 233.374769 
L 3673.364639 269.818753 
L 3675.385027 254.541059 
L 3677.405414 260.631531 
L 3679.425802 292.960873 
L 3681.44619 289.449467 
L 3683.466578 320.235837 
L 3685.486965 320.761025 
L 3687.507353 302.793555 
L 3689.527741 318.826675 
L 3691.548128 300.409693 
L 3693.568516 272.356941 
L 3695.588904 275.586587 
L 3697.609291 256.836078 
L 3703.670455 299.519433 
L 3705.690842 315.796987 
L 3707.71123 339.689293 
L 3711.752005 312.542234 
L 3713.772393 292.681674 
L 3715.792781 268.40986 
L 3717.813168 242.181449 
L 3719.833556 234.174141 
L 3721.853944 238.803645 
L 3723.874332 271.570392 
L 3725.894719 272.307748 
L 3727.915107 297.969243 
L 3729.935495 300.006975 
L 3733.97627 300.857764 
L 3735.996658 298.924404 
L 3738.017045 275.253569 
L 3740.037433 304.082743 
L 3744.078209 347.802105 
L 3746.098596 346.361022 
L 3748.118984 346.626848 
L 3750.139372 332.266631 
L 3752.159759 347.805837 
L 3756.200535 309.552655 
L 3758.220922 295.403454 
L 3760.24131 333.722098 
L 3762.261698 340.16311 
L 3764.282086 359.491965 
L 3766.302473 368.227969 
L 3768.322861 378.92297 
L 3772.363636 365.638796 
L 3774.384024 348.818714 
L 3776.404412 333.377067 
L 3778.424799 325.814507 
L 3780.445187 332.485801 
L 3786.50635 357.566762 
L 3788.526738 364.997777 
L 3790.547126 374.346569 
L 3792.567513 390.215573 
L 3794.587901 391.422176 
L 3796.608289 383.783509 
L 3798.628676 383.586848 
L 3952.178142 346.756754 
L 3954.198529 377.58002 
L 3956.218917 391.464319 
L 3958.239305 383.963242 
L 3960.259693 374.869714 
L 3962.28008 401.693258 
L 3970.361631 362.51018 
L 3972.382019 389.401239 
L 3978.443182 387.174508 
L 3980.46357 394.963391 
L 3982.483957 385.383479 
L 3984.504345 447.880988 
L 3986.524733 428.748995 
L 3988.54512 449.204916 
L 3990.565508 428.914714 
L 3996.626671 440.391335 
L 4002.687834 370.775284 
L 4004.708222 386.074114 
L 4006.72861 389.391542 
L 4008.748997 409.00506 
L 4010.769385 409.933298 
L 4012.789773 411.58798 
L 4014.81016 434.574717 
L 4016.830548 437.376475 
L 4018.850936 450.223915 
L 4020.871324 424.429651 
L 4028.952874 279.201331 
L 4030.973262 268.282023 
L 4032.99365 280.018589 
L 4035.014037 307.7428 
L 4037.034425 321.182165 
L 4039.054813 337.756045 
L 4041.075201 352.900483 
L 4043.095588 446.73032 
L 4045.115976 447.709402 
L 4047.136364 433.867907 
L 4047.136364 433.867907 
" clip-path="url(#p425d9270b0)" style="fill: none; stroke: #ffc400; stroke-width: 2.5; stroke-linecap: square"/>
   </g>
   <g id="patch_3">
    <path d="M 585 961.2 
L 585 129.6 
" style="fill: none; stroke: #000000; stroke-width: 0.8; stroke-linejoin: miter; stroke-linecap: square"/>
   </g>
   <g id="patch_4">
    <path d="M 4212 961.2 
L 4212 129.6 
" style="fill: none; stroke: #000000; stroke-width: 0.8; stroke-linejoin: miter; stroke-linecap: square"/>
   </g>
   <g id="patch_5">
    <path d="M 585 961.2 
L 4212 961.2 
" style="fill: none; stroke: #000000; stroke-width: 0.8; stroke-linejoin: miter; stroke-linecap: square"/>
   </g>
   <g id="patch_6">
    <path d="M 585 129.6 
L 4212 129.6 
" style="fill: none; stroke: #000000; stroke-width: 0.8; stroke-linejoin: miter; stroke-linecap: square"/>
   </g>
   <g id="text_20">
    <!-- ROVR -->
    <g transform="translate(2355.848437 123.360937) scale(0.3 -0.3)">
     <defs>
      <path id="DejaVuSans-52" d="M 2841 2188 
Q 3044 2119 3236 1894 
Q 3428 1669 3622 1275 
L 4263 0 
L 3584 0 
L 2988 1197 
Q 2756 1666 2539 1819 
Q 2322 1972 1947 1972 
L 1259 1972 
L 1259 0 
L 628 0 
L 628 4666 
L 2053 4666 
Q 2853 4666 3247 4331 
Q 3641 3997 3641 3322 
Q 3641 2881 3436 2590 
Q 3231 2300 2841 2188 
z
M 1259 4147 
L 1259 2491 
L 2053 2491 
Q 2509 2491 2742 2702 
Q 2975 2913 2975 3322 
Q 2975 3731 2742 3939 
Q 2509 4147 2053 4147 
L 1259 4147 
z
" transform="scale(0.015625)"/>
      <path id="DejaVuSans-4f" d="M 2522 4238 
Q 1834 4238 1429 3725 
Q 1025 3213 1025 2328 
Q 1025 1447 1429 934 
Q 1834 422 2522 422 
Q 3209 422 3611 934 
Q 4013 1447 4013 2328 
Q 4013 3213 3611 3725 
Q 3209 4238 2522 4238 
z
M 2522 4750 
Q 3503 4750 4090 4092 
Q 4678 3434 4678 2328 
Q 4678 1225 4090 567 
Q 3503 -91 2522 -91 
Q 1538 -91 948 565 
Q 359 1222 359 2328 
Q 359 3434 948 4092 
Q 1538 4750 2522 4750 
z
" transform="scale(0.015625)"/>
      <path id="DejaVuSans-56" d="M 1831 0 
L 50 4666 
L 709 4666 
L 2188 738 
L 3669 4666 
L 4325 4666 
L 2547 0 
L 1831 0 
z
" transform="scale(0.015625)"/>
     </defs>
     <use xlink:href="#DejaVuSans-52"/>
     <use xlink:href="#DejaVuSans-4f" x="69.482422"/>
     <use xlink:href="#DejaVuSans-56" x="146.443359"/>
     <use xlink:href="#DejaVuSans-52" x="214.851562"/>
    </g>
   </g>
   <g id="legend_1">
    <g id="patch_7">
     <path d="M 4152.965625 152.278125 
L 4205 152.278125 
Q 4207 152.278125 4207 150.278125 
L 4207 136.6 
Q 4207 134.6 4205 134.6 
L 4152.965625 134.6 
Q 4150.965625 134.6 4150.965625 136.6 
L 4150.965625 150.278125 
Q 4150.965625 152.278125 4152.965625 152.278125 
z
" style="fill: #ffffff; opacity: 0.8; stroke: #cccccc; stroke-linejoin: miter"/>
    </g>
    <g id="line2d_19">
     <path d="M 4154.965625 142.698438 
L 4164.965625 142.698438 
L 4174.965625 142.698438 
" style="fill: none; stroke: #ffc400; stroke-width: 2.5; stroke-linecap: square"/>
    </g>
    <g id="text_21">
     <!-- rovr -->
     <g transform="translate(4182.965625 146.198438) scale(0.1 -0.1)">
      <defs>
       <path id="DejaVuSans-76" d="M 191 3500 
L 800 3500 
L 1894 563 
L 2988 3500 
L 3597 3500 
L 2284 0 
L 1503 0 
L 191 3500 
z
" transform="scale(0.015625)"/>
      </defs>
      <use xlink:href="#DejaVuSans-72"/>
      <use xlink:href="#DejaVuSans-6f" x="38.863281"/>
      <use xlink:href="#DejaVuSans-76" x="100.044922"/>
      <use xlink:href="#DejaVuSans-72" x="159.224609"/>
     </g>
    </g>
   </g>
  </g>
 </g>
 <defs>
  <clipPath id="p425d9270b0">
   <rect x="585" y="129.6" width="3627" height="831.6"/>
  </clipPath>
 </defs>
</svg>
