<?xml version="1.0" encoding="utf-8" standalone="no"?>
<!DOCTYPE svg PUBLIC "-//W3C//DTD SVG 1.1//EN"
  "http://www.w3.org/Graphics/SVG/1.1/DTD/svg11.dtd">
<svg xmlns:xlink="http://www.w3.org/1999/xlink" width="4680pt" height="1080pt" viewBox="0 0 4680 1080" xmlns="http://www.w3.org/2000/svg" version="1.1">
 <metadata>
  <rdf:RDF xmlns:dc="http://purl.org/dc/elements/1.1/" xmlns:cc="http://creativecommons.org/ns#" xmlns:rdf="http://www.w3.org/1999/02/22-rdf-syntax-ns#">
   <cc:Work>
    <dc:type rdf:resource="http://purl.org/dc/dcmitype/StillImage"/>
    <dc:date>2024-03-25T15:24:56.770944</dc:date>
    <dc:format>image/svg+xml</dc:format>
    <dc:creator>
     <cc:Agent>
      <dc:title>Matplotlib v3.7.2, https://matplotlib.org/</dc:title>
     </cc:Agent>
    </dc:creator>
   </cc:Work>
  </rdf:RDF>
 </metadata>
 <defs>
  <style type="text/css">*{stroke-linejoin: round; stroke-linecap: butt}</style>
 </defs>
 <g id="figure_1">
  <g id="patch_1">
   <path d="M 0 1080 
L 4680 1080 
L 4680 0 
L 0 0 
z
" style="fill: #ffffff"/>
  </g>
  <g id="axes_1">
   <g id="patch_2">
    <path d="M 585 961.2 
L 4212 961.2 
L 4212 129.6 
L 585 129.6 
z
" style="fill: #ffffff"/>
   </g>
   <g id="matplotlib.axis_1">
    <g id="xtick_1">
     <g id="line2d_1">
      <defs>
       <path id="m186c530d58" d="M 0 0 
L 0 3.5 
" style="stroke: #000000; stroke-width: 0.8"/>
      </defs>
      <g>
       <use xlink:href="#m186c530d58" x="941.800468" y="961.2" style="stroke: #000000; stroke-width: 0.8"/>
      </g>
     </g>
     <g id="text_1">
      <!-- 2012-07 -->
      <g transform="translate(900.017655 983.396875) scale(0.2 -0.2)">
       <defs>
        <path id="DejaVuSans-32" d="M 1228 531 
L 3431 531 
L 3431 0 
L 469 0 
L 469 531 
Q 828 903 1448 1529 
Q 2069 2156 2228 2338 
Q 2531 2678 2651 2914 
Q 2772 3150 2772 3378 
Q 2772 3750 2511 3984 
Q 2250 4219 1831 4219 
Q 1534 4219 1204 4116 
Q 875 4013 500 3803 
L 500 4441 
Q 881 4594 1212 4672 
Q 1544 4750 1819 4750 
Q 2544 4750 2975 4387 
Q 3406 4025 3406 3419 
Q 3406 3131 3298 2873 
Q 3191 2616 2906 2266 
Q 2828 2175 2409 1742 
Q 1991 1309 1228 531 
z
" transform="scale(0.015625)"/>
        <path id="DejaVuSans-30" d="M 2034 4250 
Q 1547 4250 1301 3770 
Q 1056 3291 1056 2328 
Q 1056 1369 1301 889 
Q 1547 409 2034 409 
Q 2525 409 2770 889 
Q 3016 1369 3016 2328 
Q 3016 3291 2770 3770 
Q 2525 4250 2034 4250 
z
M 2034 4750 
Q 2819 4750 3233 4129 
Q 3647 3509 3647 2328 
Q 3647 1150 3233 529 
Q 2819 -91 2034 -91 
Q 1250 -91 836 529 
Q 422 1150 422 2328 
Q 422 3509 836 4129 
Q 1250 4750 2034 4750 
z
" transform="scale(0.015625)"/>
        <path id="DejaVuSans-31" d="M 794 531 
L 1825 531 
L 1825 4091 
L 703 3866 
L 703 4441 
L 1819 4666 
L 2450 4666 
L 2450 531 
L 3481 531 
L 3481 0 
L 794 0 
L 794 531 
z
" transform="scale(0.015625)"/>
        <path id="DejaVuSans-2d" d="M 313 2009 
L 1997 2009 
L 1997 1497 
L 313 1497 
L 313 2009 
z
" transform="scale(0.015625)"/>
        <path id="DejaVuSans-37" d="M 525 4666 
L 3525 4666 
L 3525 4397 
L 1831 0 
L 1172 0 
L 2766 4134 
L 525 4134 
L 525 4666 
z
" transform="scale(0.015625)"/>
       </defs>
       <use xlink:href="#DejaVuSans-32"/>
       <use xlink:href="#DejaVuSans-30" x="63.623047"/>
       <use xlink:href="#DejaVuSans-31" x="127.246094"/>
       <use xlink:href="#DejaVuSans-32" x="190.869141"/>
       <use xlink:href="#DejaVuSans-2d" x="254.492188"/>
       <use xlink:href="#DejaVuSans-30" x="290.576172"/>
       <use xlink:href="#DejaVuSans-37" x="354.199219"/>
      </g>
     </g>
    </g>
    <g id="xtick_2">
     <g id="line2d_2">
      <g>
       <use xlink:href="#m186c530d58" x="1313.551805" y="961.2" style="stroke: #000000; stroke-width: 0.8"/>
      </g>
     </g>
     <g id="text_2">
      <!-- 2013-01 -->
      <g transform="translate(1271.768992 983.396875) scale(0.2 -0.2)">
       <defs>
        <path id="DejaVuSans-33" d="M 2597 2516 
Q 3050 2419 3304 2112 
Q 3559 1806 3559 1356 
Q 3559 666 3084 287 
Q 2609 -91 1734 -91 
Q 1441 -91 1130 -33 
Q 819 25 488 141 
L 488 750 
Q 750 597 1062 519 
Q 1375 441 1716 441 
Q 2309 441 2620 675 
Q 2931 909 2931 1356 
Q 2931 1769 2642 2001 
Q 2353 2234 1838 2234 
L 1294 2234 
L 1294 2753 
L 1863 2753 
Q 2328 2753 2575 2939 
Q 2822 3125 2822 3475 
Q 2822 3834 2567 4026 
Q 2313 4219 1838 4219 
Q 1578 4219 1281 4162 
Q 984 4106 628 3988 
L 628 4550 
Q 988 4650 1302 4700 
Q 1616 4750 1894 4750 
Q 2613 4750 3031 4423 
Q 3450 4097 3450 3541 
Q 3450 3153 3228 2886 
Q 3006 2619 2597 2516 
z
" transform="scale(0.015625)"/>
       </defs>
       <use xlink:href="#DejaVuSans-32"/>
       <use xlink:href="#DejaVuSans-30" x="63.623047"/>
       <use xlink:href="#DejaVuSans-31" x="127.246094"/>
       <use xlink:href="#DejaVuSans-33" x="190.869141"/>
       <use xlink:href="#DejaVuSans-2d" x="254.492188"/>
       <use xlink:href="#DejaVuSans-30" x="290.576172"/>
       <use xlink:href="#DejaVuSans-31" x="354.199219"/>
      </g>
     </g>
    </g>
    <g id="xtick_3">
     <g id="line2d_3">
      <g>
       <use xlink:href="#m186c530d58" x="1679.241979" y="961.2" style="stroke: #000000; stroke-width: 0.8"/>
      </g>
     </g>
     <g id="text_3">
      <!-- 2013-07 -->
      <g transform="translate(1637.459166 983.396875) scale(0.2 -0.2)">
       <use xlink:href="#DejaVuSans-32"/>
       <use xlink:href="#DejaVuSans-30" x="63.623047"/>
       <use xlink:href="#DejaVuSans-31" x="127.246094"/>
       <use xlink:href="#DejaVuSans-33" x="190.869141"/>
       <use xlink:href="#DejaVuSans-2d" x="254.492188"/>
       <use xlink:href="#DejaVuSans-30" x="290.576172"/>
       <use xlink:href="#DejaVuSans-37" x="354.199219"/>
      </g>
     </g>
    </g>
    <g id="xtick_4">
     <g id="line2d_4">
      <g>
       <use xlink:href="#m186c530d58" x="2050.993316" y="961.2" style="stroke: #000000; stroke-width: 0.8"/>
      </g>
     </g>
     <g id="text_4">
      <!-- 2014-01 -->
      <g transform="translate(2009.210503 983.396875) scale(0.2 -0.2)">
       <defs>
        <path id="DejaVuSans-34" d="M 2419 4116 
L 825 1625 
L 2419 1625 
L 2419 4116 
z
M 2253 4666 
L 3047 4666 
L 3047 1625 
L 3713 1625 
L 3713 1100 
L 3047 1100 
L 3047 0 
L 2419 0 
L 2419 1100 
L 313 1100 
L 313 1709 
L 2253 4666 
z
" transform="scale(0.015625)"/>
       </defs>
       <use xlink:href="#DejaVuSans-32"/>
       <use xlink:href="#DejaVuSans-30" x="63.623047"/>
       <use xlink:href="#DejaVuSans-31" x="127.246094"/>
       <use xlink:href="#DejaVuSans-34" x="190.869141"/>
       <use xlink:href="#DejaVuSans-2d" x="254.492188"/>
       <use xlink:href="#DejaVuSans-30" x="290.576172"/>
       <use xlink:href="#DejaVuSans-31" x="354.199219"/>
      </g>
     </g>
    </g>
    <g id="xtick_5">
     <g id="line2d_5">
      <g>
       <use xlink:href="#m186c530d58" x="2416.683489" y="961.2" style="stroke: #000000; stroke-width: 0.8"/>
      </g>
     </g>
     <g id="text_5">
      <!-- 2014-07 -->
      <g transform="translate(2374.900677 983.396875) scale(0.2 -0.2)">
       <use xlink:href="#DejaVuSans-32"/>
       <use xlink:href="#DejaVuSans-30" x="63.623047"/>
       <use xlink:href="#DejaVuSans-31" x="127.246094"/>
       <use xlink:href="#DejaVuSans-34" x="190.869141"/>
       <use xlink:href="#DejaVuSans-2d" x="254.492188"/>
       <use xlink:href="#DejaVuSans-30" x="290.576172"/>
       <use xlink:href="#DejaVuSans-37" x="354.199219"/>
      </g>
     </g>
    </g>
    <g id="xtick_6">
     <g id="line2d_6">
      <g>
       <use xlink:href="#m186c530d58" x="2788.434826" y="961.2" style="stroke: #000000; stroke-width: 0.8"/>
      </g>
     </g>
     <g id="text_6">
      <!-- 2015-01 -->
      <g transform="translate(2746.652014 983.396875) scale(0.2 -0.2)">
       <defs>
        <path id="DejaVuSans-35" d="M 691 4666 
L 3169 4666 
L 3169 4134 
L 1269 4134 
L 1269 2991 
Q 1406 3038 1543 3061 
Q 1681 3084 1819 3084 
Q 2600 3084 3056 2656 
Q 3513 2228 3513 1497 
Q 3513 744 3044 326 
Q 2575 -91 1722 -91 
Q 1428 -91 1123 -41 
Q 819 9 494 109 
L 494 744 
Q 775 591 1075 516 
Q 1375 441 1709 441 
Q 2250 441 2565 725 
Q 2881 1009 2881 1497 
Q 2881 1984 2565 2268 
Q 2250 2553 1709 2553 
Q 1456 2553 1204 2497 
Q 953 2441 691 2322 
L 691 4666 
z
" transform="scale(0.015625)"/>
       </defs>
       <use xlink:href="#DejaVuSans-32"/>
       <use xlink:href="#DejaVuSans-30" x="63.623047"/>
       <use xlink:href="#DejaVuSans-31" x="127.246094"/>
       <use xlink:href="#DejaVuSans-35" x="190.869141"/>
       <use xlink:href="#DejaVuSans-2d" x="254.492188"/>
       <use xlink:href="#DejaVuSans-30" x="290.576172"/>
       <use xlink:href="#DejaVuSans-31" x="354.199219"/>
      </g>
     </g>
    </g>
    <g id="xtick_7">
     <g id="line2d_7">
      <g>
       <use xlink:href="#m186c530d58" x="3154.125" y="961.2" style="stroke: #000000; stroke-width: 0.8"/>
      </g>
     </g>
     <g id="text_7">
      <!-- 2015-07 -->
      <g transform="translate(3112.342188 983.396875) scale(0.2 -0.2)">
       <use xlink:href="#DejaVuSans-32"/>
       <use xlink:href="#DejaVuSans-30" x="63.623047"/>
       <use xlink:href="#DejaVuSans-31" x="127.246094"/>
       <use xlink:href="#DejaVuSans-35" x="190.869141"/>
       <use xlink:href="#DejaVuSans-2d" x="254.492188"/>
       <use xlink:href="#DejaVuSans-30" x="290.576172"/>
       <use xlink:href="#DejaVuSans-37" x="354.199219"/>
      </g>
     </g>
    </g>
    <g id="xtick_8">
     <g id="line2d_8">
      <g>
       <use xlink:href="#m186c530d58" x="3525.876337" y="961.2" style="stroke: #000000; stroke-width: 0.8"/>
      </g>
     </g>
     <g id="text_8">
      <!-- 2016-01 -->
      <g transform="translate(3484.093524 983.396875) scale(0.2 -0.2)">
       <defs>
        <path id="DejaVuSans-36" d="M 2113 2584 
Q 1688 2584 1439 2293 
Q 1191 2003 1191 1497 
Q 1191 994 1439 701 
Q 1688 409 2113 409 
Q 2538 409 2786 701 
Q 3034 994 3034 1497 
Q 3034 2003 2786 2293 
Q 2538 2584 2113 2584 
z
M 3366 4563 
L 3366 3988 
Q 3128 4100 2886 4159 
Q 2644 4219 2406 4219 
Q 1781 4219 1451 3797 
Q 1122 3375 1075 2522 
Q 1259 2794 1537 2939 
Q 1816 3084 2150 3084 
Q 2853 3084 3261 2657 
Q 3669 2231 3669 1497 
Q 3669 778 3244 343 
Q 2819 -91 2113 -91 
Q 1303 -91 875 529 
Q 447 1150 447 2328 
Q 447 3434 972 4092 
Q 1497 4750 2381 4750 
Q 2619 4750 2861 4703 
Q 3103 4656 3366 4563 
z
" transform="scale(0.015625)"/>
       </defs>
       <use xlink:href="#DejaVuSans-32"/>
       <use xlink:href="#DejaVuSans-30" x="63.623047"/>
       <use xlink:href="#DejaVuSans-31" x="127.246094"/>
       <use xlink:href="#DejaVuSans-36" x="190.869141"/>
       <use xlink:href="#DejaVuSans-2d" x="254.492188"/>
       <use xlink:href="#DejaVuSans-30" x="290.576172"/>
       <use xlink:href="#DejaVuSans-31" x="354.199219"/>
      </g>
     </g>
    </g>
    <g id="xtick_9">
     <g id="line2d_9">
      <g>
       <use xlink:href="#m186c530d58" x="3893.586898" y="961.2" style="stroke: #000000; stroke-width: 0.8"/>
      </g>
     </g>
     <g id="text_9">
      <!-- 2016-07 -->
      <g transform="translate(3851.804086 983.396875) scale(0.2 -0.2)">
       <use xlink:href="#DejaVuSans-32"/>
       <use xlink:href="#DejaVuSans-30" x="63.623047"/>
       <use xlink:href="#DejaVuSans-31" x="127.246094"/>
       <use xlink:href="#DejaVuSans-36" x="190.869141"/>
       <use xlink:href="#DejaVuSans-2d" x="254.492188"/>
       <use xlink:href="#DejaVuSans-30" x="290.576172"/>
       <use xlink:href="#DejaVuSans-37" x="354.199219"/>
      </g>
     </g>
    </g>
    <g id="text_10">
     <!-- Time -->
     <g transform="translate(2374.032813 1006.753125) scale(0.2 -0.2)">
      <defs>
       <path id="DejaVuSans-54" d="M -19 4666 
L 3928 4666 
L 3928 4134 
L 2272 4134 
L 2272 0 
L 1638 0 
L 1638 4134 
L -19 4134 
L -19 4666 
z
" transform="scale(0.015625)"/>
       <path id="DejaVuSans-69" d="M 603 3500 
L 1178 3500 
L 1178 0 
L 603 0 
L 603 3500 
z
M 603 4863 
L 1178 4863 
L 1178 4134 
L 603 4134 
L 603 4863 
z
" transform="scale(0.015625)"/>
       <path id="DejaVuSans-6d" d="M 3328 2828 
Q 3544 3216 3844 3400 
Q 4144 3584 4550 3584 
Q 5097 3584 5394 3201 
Q 5691 2819 5691 2113 
L 5691 0 
L 5113 0 
L 5113 2094 
Q 5113 2597 4934 2840 
Q 4756 3084 4391 3084 
Q 3944 3084 3684 2787 
Q 3425 2491 3425 1978 
L 3425 0 
L 2847 0 
L 2847 2094 
Q 2847 2600 2669 2842 
Q 2491 3084 2119 3084 
Q 1678 3084 1418 2786 
Q 1159 2488 1159 1978 
L 1159 0 
L 581 0 
L 581 3500 
L 1159 3500 
L 1159 2956 
Q 1356 3278 1631 3431 
Q 1906 3584 2284 3584 
Q 2666 3584 2933 3390 
Q 3200 3197 3328 2828 
z
" transform="scale(0.015625)"/>
       <path id="DejaVuSans-65" d="M 3597 1894 
L 3597 1613 
L 953 1613 
Q 991 1019 1311 708 
Q 1631 397 2203 397 
Q 2534 397 2845 478 
Q 3156 559 3463 722 
L 3463 178 
Q 3153 47 2828 -22 
Q 2503 -91 2169 -91 
Q 1331 -91 842 396 
Q 353 884 353 1716 
Q 353 2575 817 3079 
Q 1281 3584 2069 3584 
Q 2775 3584 3186 3129 
Q 3597 2675 3597 1894 
z
M 3022 2063 
Q 3016 2534 2758 2815 
Q 2500 3097 2075 3097 
Q 1594 3097 1305 2825 
Q 1016 2553 972 2059 
L 3022 2063 
z
" transform="scale(0.015625)"/>
      </defs>
      <use xlink:href="#DejaVuSans-54"/>
      <use xlink:href="#DejaVuSans-69" x="57.958984"/>
      <use xlink:href="#DejaVuSans-6d" x="85.742188"/>
      <use xlink:href="#DejaVuSans-65" x="183.154297"/>
     </g>
    </g>
   </g>
   <g id="matplotlib.axis_2">
    <g id="ytick_1">
     <g id="line2d_10">
      <defs>
       <path id="md0e025bb10" d="M 0 0 
L -3.5 0 
" style="stroke: #000000; stroke-width: 0.8"/>
      </defs>
      <g>
       <use xlink:href="#md0e025bb10" x="585" y="916.453572" style="stroke: #000000; stroke-width: 0.8"/>
      </g>
     </g>
     <g id="text_11">
      <!-- −0.004 -->
      <g transform="translate(503.984375 924.05201) scale(0.2 -0.2)">
       <defs>
        <path id="DejaVuSans-2212" d="M 678 2272 
L 4684 2272 
L 4684 1741 
L 678 1741 
L 678 2272 
z
" transform="scale(0.015625)"/>
        <path id="DejaVuSans-2e" d="M 684 794 
L 1344 794 
L 1344 0 
L 684 0 
L 684 794 
z
" transform="scale(0.015625)"/>
       </defs>
       <use xlink:href="#DejaVuSans-2212"/>
       <use xlink:href="#DejaVuSans-30" x="83.789062"/>
       <use xlink:href="#DejaVuSans-2e" x="147.412109"/>
       <use xlink:href="#DejaVuSans-30" x="179.199219"/>
       <use xlink:href="#DejaVuSans-30" x="242.822266"/>
       <use xlink:href="#DejaVuSans-34" x="306.445312"/>
      </g>
     </g>
    </g>
    <g id="ytick_2">
     <g id="line2d_11">
      <g>
       <use xlink:href="#md0e025bb10" x="585" y="745.176186" style="stroke: #000000; stroke-width: 0.8"/>
      </g>
     </g>
     <g id="text_12">
      <!-- −0.002 -->
      <g transform="translate(503.984375 752.774624) scale(0.2 -0.2)">
       <use xlink:href="#DejaVuSans-2212"/>
       <use xlink:href="#DejaVuSans-30" x="83.789062"/>
       <use xlink:href="#DejaVuSans-2e" x="147.412109"/>
       <use xlink:href="#DejaVuSans-30" x="179.199219"/>
       <use xlink:href="#DejaVuSans-30" x="242.822266"/>
       <use xlink:href="#DejaVuSans-32" x="306.445312"/>
      </g>
     </g>
    </g>
    <g id="ytick_3">
     <g id="line2d_12">
      <g>
       <use xlink:href="#md0e025bb10" x="585" y="573.8988" style="stroke: #000000; stroke-width: 0.8"/>
      </g>
     </g>
     <g id="text_13">
      <!-- 0.000 -->
      <g transform="translate(520.74375 581.497237) scale(0.2 -0.2)">
       <use xlink:href="#DejaVuSans-30"/>
       <use xlink:href="#DejaVuSans-2e" x="63.623047"/>
       <use xlink:href="#DejaVuSans-30" x="95.410156"/>
       <use xlink:href="#DejaVuSans-30" x="159.033203"/>
       <use xlink:href="#DejaVuSans-30" x="222.65625"/>
      </g>
     </g>
    </g>
    <g id="ytick_4">
     <g id="line2d_13">
      <g>
       <use xlink:href="#md0e025bb10" x="585" y="402.621414" style="stroke: #000000; stroke-width: 0.8"/>
      </g>
     </g>
     <g id="text_14">
      <!-- 0.002 -->
      <g transform="translate(520.74375 410.219851) scale(0.2 -0.2)">
       <use xlink:href="#DejaVuSans-30"/>
       <use xlink:href="#DejaVuSans-2e" x="63.623047"/>
       <use xlink:href="#DejaVuSans-30" x="95.410156"/>
       <use xlink:href="#DejaVuSans-30" x="159.033203"/>
       <use xlink:href="#DejaVuSans-32" x="222.65625"/>
      </g>
     </g>
    </g>
    <g id="ytick_5">
     <g id="line2d_14">
      <g>
       <use xlink:href="#md0e025bb10" x="585" y="231.344027" style="stroke: #000000; stroke-width: 0.8"/>
      </g>
     </g>
     <g id="text_15">
      <!-- 0.004 -->
      <g transform="translate(520.74375 238.942465) scale(0.2 -0.2)">
       <use xlink:href="#DejaVuSans-30"/>
       <use xlink:href="#DejaVuSans-2e" x="63.623047"/>
       <use xlink:href="#DejaVuSans-30" x="95.410156"/>
       <use xlink:href="#DejaVuSans-30" x="159.033203"/>
       <use xlink:href="#DejaVuSans-34" x="222.65625"/>
      </g>
     </g>
    </g>
    <g id="text_16">
     <!-- North(m) -->
     <g transform="translate(495.825 590.9125) rotate(-90) scale(0.2 -0.2)">
      <defs>
       <path id="DejaVuSans-4e" d="M 628 4666 
L 1478 4666 
L 3547 763 
L 3547 4666 
L 4159 4666 
L 4159 0 
L 3309 0 
L 1241 3903 
L 1241 0 
L 628 0 
L 628 4666 
z
" transform="scale(0.015625)"/>
       <path id="DejaVuSans-6f" d="M 1959 3097 
Q 1497 3097 1228 2736 
Q 959 2375 959 1747 
Q 959 1119 1226 758 
Q 1494 397 1959 397 
Q 2419 397 2687 759 
Q 2956 1122 2956 1747 
Q 2956 2369 2687 2733 
Q 2419 3097 1959 3097 
z
M 1959 3584 
Q 2709 3584 3137 3096 
Q 3566 2609 3566 1747 
Q 3566 888 3137 398 
Q 2709 -91 1959 -91 
Q 1206 -91 779 398 
Q 353 888 353 1747 
Q 353 2609 779 3096 
Q 1206 3584 1959 3584 
z
" transform="scale(0.015625)"/>
       <path id="DejaVuSans-72" d="M 2631 2963 
Q 2534 3019 2420 3045 
Q 2306 3072 2169 3072 
Q 1681 3072 1420 2755 
Q 1159 2438 1159 1844 
L 1159 0 
L 581 0 
L 581 3500 
L 1159 3500 
L 1159 2956 
Q 1341 3275 1631 3429 
Q 1922 3584 2338 3584 
Q 2397 3584 2469 3576 
Q 2541 3569 2628 3553 
L 2631 2963 
z
" transform="scale(0.015625)"/>
       <path id="DejaVuSans-74" d="M 1172 4494 
L 1172 3500 
L 2356 3500 
L 2356 3053 
L 1172 3053 
L 1172 1153 
Q 1172 725 1289 603 
Q 1406 481 1766 481 
L 2356 481 
L 2356 0 
L 1766 0 
Q 1100 0 847 248 
Q 594 497 594 1153 
L 594 3053 
L 172 3053 
L 172 3500 
L 594 3500 
L 594 4494 
L 1172 4494 
z
" transform="scale(0.015625)"/>
       <path id="DejaVuSans-68" d="M 3513 2113 
L 3513 0 
L 2938 0 
L 2938 2094 
Q 2938 2591 2744 2837 
Q 2550 3084 2163 3084 
Q 1697 3084 1428 2787 
Q 1159 2491 1159 1978 
L 1159 0 
L 581 0 
L 581 4863 
L 1159 4863 
L 1159 2956 
Q 1366 3272 1645 3428 
Q 1925 3584 2291 3584 
Q 2894 3584 3203 3211 
Q 3513 2838 3513 2113 
z
" transform="scale(0.015625)"/>
       <path id="DejaVuSans-28" d="M 1984 4856 
Q 1566 4138 1362 3434 
Q 1159 2731 1159 2009 
Q 1159 1288 1364 580 
Q 1569 -128 1984 -844 
L 1484 -844 
Q 1016 -109 783 600 
Q 550 1309 550 2009 
Q 550 2706 781 3412 
Q 1013 4119 1484 4856 
L 1984 4856 
z
" transform="scale(0.015625)"/>
       <path id="DejaVuSans-29" d="M 513 4856 
L 1013 4856 
Q 1481 4119 1714 3412 
Q 1947 2706 1947 2009 
Q 1947 1309 1714 600 
Q 1481 -109 1013 -844 
L 513 -844 
Q 928 -128 1133 580 
Q 1338 1288 1338 2009 
Q 1338 2731 1133 3434 
Q 928 4138 513 4856 
z
" transform="scale(0.015625)"/>
      </defs>
      <use xlink:href="#DejaVuSans-4e"/>
      <use xlink:href="#DejaVuSans-6f" x="74.804688"/>
      <use xlink:href="#DejaVuSans-72" x="135.986328"/>
      <use xlink:href="#DejaVuSans-74" x="177.099609"/>
      <use xlink:href="#DejaVuSans-68" x="216.308594"/>
      <use xlink:href="#DejaVuSans-28" x="279.6875"/>
      <use xlink:href="#DejaVuSans-6d" x="318.701172"/>
      <use xlink:href="#DejaVuSans-29" x="416.113281"/>
     </g>
    </g>
   </g>
   <g id="line2d_15">
    <path d="M 749.863636 832.780192 
L 755.924799 905.102336 
L 761.985963 890.835455 
L 764.00635 882.337809 
L 766.026738 878.887235 
L 768.047126 871.025262 
L 770.067513 882.583532 
L 772.087901 853.424236 
L 774.108289 858.529342 
L 776.128676 846.778823 
L 790.27139 853.441546 
L 792.291778 857.173859 
L 794.312166 847.681663 
L 796.332553 852.490668 
L 798.352941 877.065562 
L 800.373329 889.572575 
L 802.393717 882.674283 
L 806.434492 904.765358 
L 808.45488 907.581033 
L 810.475267 903.802436 
L 812.495655 897.918379 
L 824.617981 898.841982 
L 830.679144 904.602745 
L 832.699532 904.678571 
L 834.71992 886.833116 
L 836.740307 879.188371 
L 844.821858 784.60145 
L 850.883021 768.536151 
L 852.903409 774.466793 
L 854.923797 779.409924 
L 856.944184 850.479396 
L 860.98496 862.221507 
L 867.046123 819.995266 
L 869.066511 826.345864 
L 873.107286 807.096808 
L 875.127674 807.675333 
L 877.148061 825.784981 
L 879.168449 824.935534 
L 881.188837 877.194759 
L 883.209225 882.42352 
L 885.229612 901.84925 
L 889.270388 900.996528 
L 891.290775 914.27245 
L 893.311163 923.4 
L 895.331551 906.692077 
L 897.351939 893.846541 
L 899.372326 847.329178 
L 901.392714 852.036502 
L 903.413102 858.520064 
L 905.433489 826.670633 
L 907.453877 804.196938 
L 909.474265 799.45331 
L 913.51504 813.967522 
L 915.535428 829.731713 
L 917.555816 807.514583 
L 933.718917 814.328465 
L 937.759693 795.009471 
L 1044.840241 647.807098 
L 1048.881016 621.625336 
L 1212.53242 280.856833 
L 1214.552807 299.005496 
L 1216.573195 297.612686 
L 1226.675134 399.362877 
L 1230.715909 409.105218 
L 1232.736297 412.570902 
L 1234.756684 423.482523 
L 1236.777072 419.695392 
L 1238.79746 417.578374 
L 1240.817848 397.114267 
L 1242.838235 378.931149 
L 1252.940174 393.311616 
L 1333.755682 358.277167 
L 1335.77607 392.546465 
L 1337.796457 405.734437 
L 1341.837233 416.583575 
L 1372.143048 347.354538 
L 1374.163436 338.314614 
L 1376.183824 354.701453 
L 1378.204211 367.078071 
L 1382.244987 388.595327 
L 1384.265374 400.93217 
L 1386.285762 379.433267 
L 1388.30615 367.065324 
L 1390.326537 346.465765 
L 1392.346925 343.067533 
L 1394.367313 361.111883 
L 1398.408088 364.959204 
L 1400.428476 412.339016 
L 1402.448864 449.333453 
L 1404.469251 473.139434 
L 1406.489639 474.90131 
L 1412.550802 375.038777 
L 1414.57119 336.644276 
L 1416.591578 301.036304 
L 1418.611965 282.304312 
L 1420.632353 272.932514 
L 1422.652741 307.500398 
L 1424.673128 335.376385 
L 1428.713904 404.358987 
L 1432.754679 429.742483 
L 1434.775067 449.137464 
L 1436.795455 424.384319 
L 1442.856618 390.90536 
L 1444.877005 380.405725 
L 1446.897393 373.407791 
L 1454.978944 367.232358 
L 1456.999332 360.453279 
L 1459.019719 356.092506 
L 1461.040107 353.761764 
L 1463.060495 363.359063 
L 1465.080882 357.837087 
L 1471.142045 346.761694 
L 1473.162433 343.897277 
L 1475.182821 327.657822 
L 1479.223596 262.913114 
L 1481.243984 265.642678 
L 1483.264372 265.522088 
L 1485.284759 269.505706 
L 1487.305147 291.276416 
L 1489.325535 326.437854 
L 1491.345922 346.452414 
L 1493.36631 360.54616 
L 1495.386698 352.786159 
L 1497.407086 347.281717 
L 1501.447861 327.574133 
L 1669.14004 279.294169 
L 1673.180816 329.745649 
L 1677.221591 388.492321 
L 1681.262366 404.005031 
L 1683.282754 438.215775 
L 1687.323529 351.50461 
L 1689.343917 343.184573 
L 1691.364305 308.029269 
L 1693.384693 324.52486 
L 1695.40508 344.779191 
L 1697.425468 339.442087 
L 1699.445856 383.490147 
L 1701.466243 416.351028 
L 1703.486631 452.737141 
L 1705.507019 484.336269 
L 1707.527406 436.499697 
L 1709.547794 404.003425 
L 1711.568182 386.341532 
L 1715.608957 331.56915 
L 1717.629345 322.281877 
L 1719.649733 264.94921 
L 1721.67012 270.75604 
L 1723.690508 275.762015 
L 1725.710896 315.661728 
L 1727.731283 372.201535 
L 1729.751671 374.642213 
L 1731.772059 375.070859 
L 1737.833222 467.421027 
L 1741.873997 388.03258 
L 1743.894385 393.547137 
L 1745.914773 384.60762 
L 1749.955548 327.15057 
L 1751.975936 292.928204 
L 1753.996324 330.347738 
L 1756.016711 335.649848 
L 1758.037099 332.25638 
L 1768.139037 417.807995 
L 1780.261364 376.594693 
L 1782.281751 370.16868 
L 1784.302139 380.371108 
L 1786.322527 366.55085 
L 1788.342914 358.818195 
L 1790.363302 387.199731 
L 1792.38369 389.3986 
L 1794.404078 400.552953 
L 1796.424465 390.225618 
L 1806.526404 331.948948 
L 1808.546791 336.965479 
L 1810.567179 347.358023 
L 1812.587567 349.665483 
L 1814.607955 349.506438 
L 1816.628342 352.592336 
L 1818.64873 349.944669 
L 1822.689505 321.232987 
L 1824.709893 336.46512 
L 1826.730281 335.926763 
L 1828.750668 365.797851 
L 1830.771056 384.852433 
L 1832.791444 401.228317 
L 1834.811832 393.974149 
L 1836.832219 421.570444 
L 1838.852607 418.015502 
L 1954.014706 244.063785 
L 1956.035094 248.636623 
L 1958.055481 271.210971 
L 1960.075869 272.608136 
L 1962.096257 325.056058 
L 1966.137032 378.588096 
L 1968.15742 377.869404 
L 1980.279746 365.477229 
L 1982.300134 384.54917 
L 1988.361297 426.017554 
L 1990.381684 411.141193 
L 1992.402072 414.299558 
L 1994.42246 414.24502 
L 1996.442848 401.776918 
L 2000.483623 366.600038 
L 2073.21758 372.017976 
L 2075.237968 360.172601 
L 2079.278743 380.494245 
L 2081.299131 379.141238 
L 2380.316511 468.141815 
L 2438.907754 357.794225 
L 2442.948529 389.230202 
L 2446.989305 338.559484 
L 2451.03008 304.536717 
L 2467.193182 167.4 
L 3176.349265 366.724449 
L 3178.369652 375.411666 
L 3180.39004 415.462802 
L 3182.410428 408.643403 
L 3184.430816 447.336697 
L 3186.451203 387.303516 
L 3190.491979 444.659476 
L 3192.512366 385.348553 
L 3194.532754 298.710828 
L 3196.553142 317.709018 
L 3200.593917 321.503139 
L 3208.675468 520.088344 
L 3210.695856 566.083127 
L 3212.716243 607.501 
L 3214.736631 578.081981 
L 3216.757019 526.925548 
L 3218.777406 532.193099 
L 3220.797794 499.022536 
L 3222.818182 506.76562 
L 3224.83857 487.921726 
L 3226.858957 422.139661 
L 3228.879345 452.236586 
L 3230.899733 550.242038 
L 3253.123997 432.607927 
L 3257.164773 434.589586 
L 3259.18516 457.434594 
L 3261.205548 411.723933 
L 3265.246324 466.274448 
L 3267.266711 491.916808 
L 3269.287099 442.33707 
L 3277.36865 388.60567 
L 3287.470588 468.816196 
L 3289.490976 407.848063 
L 3291.511364 408.246899 
L 3293.531751 388.201772 
L 3295.552139 384.501861 
L 3297.572527 346.224523 
L 3299.592914 338.18529 
L 3301.613302 338.248431 
L 3303.63369 372.05274 
L 3305.654078 393.445178 
L 3309.694853 418.863023 
L 3315.756016 432.190949 
L 3317.776404 426.340216 
L 3319.796791 403.936017 
L 3321.817179 421.753585 
L 3323.837567 453.455976 
L 3325.857955 469.224691 
L 3327.878342 453.046497 
L 3329.89873 450.612528 
L 3331.919118 433.566715 
L 3340.000668 404.149717 
L 3342.021056 449.586653 
L 3344.041444 484.720453 
L 3346.061832 510.647036 
L 3348.082219 502.19174 
L 3350.102607 516.966476 
L 3352.122995 502.921447 
L 3354.143382 485.201405 
L 3356.16377 438.877948 
L 3358.184158 403.675838 
L 3360.204545 392.385781 
L 3362.224933 400.064372 
L 3364.245321 405.683404 
L 3368.286096 357.74244 
L 3370.306484 395.54189 
L 3374.347259 426.433245 
L 3376.367647 422.616058 
L 3400.612299 434.971185 
L 3402.632687 427.803538 
L 3404.653075 440.275944 
L 3406.673463 431.731568 
L 3410.714238 474.051947 
L 3412.734626 518.363204 
L 3414.755013 516.693658 
L 3416.775401 519.612083 
L 3418.795789 496.312649 
L 3420.816176 489.281808 
L 3422.836564 471.191549 
L 3424.856952 461.123798 
L 3426.87734 437.968597 
L 3428.897727 444.187651 
L 3432.938503 455.916549 
L 3434.95889 480.321546 
L 3436.979278 473.307444 
L 3438.999666 481.389945 
L 3441.020053 488.044367 
L 3443.040441 488.974611 
L 3445.060829 477.279633 
L 3447.081217 490.488313 
L 3449.101604 496.3948 
L 3451.121992 522.997657 
L 3453.14238 520.290781 
L 3455.162767 525.530827 
L 3457.183155 551.924458 
L 3459.203543 573.733797 
L 3461.22393 592.956038 
L 3463.244318 593.842676 
L 3465.264706 578.237519 
L 3467.285094 567.624293 
L 3469.305481 586.680228 
L 3471.325869 564.616402 
L 3473.346257 547.234088 
L 3475.366644 523.302721 
L 3477.387032 501.458039 
L 3479.40742 497.313217 
L 3481.427807 508.773917 
L 3483.448195 491.005659 
L 3485.468583 491.175163 
L 3487.488971 504.169597 
L 3489.509358 493.066023 
L 3491.529746 516.408991 
L 3493.550134 523.41735 
L 3497.590909 512.476163 
L 3499.611297 504.542481 
L 3501.631684 512.05704 
L 3503.652072 531.082209 
L 3505.67246 517.9258 
L 3509.713235 538.144032 
L 3511.733623 513.340191 
L 3513.754011 508.989334 
L 3515.774398 480.810389 
L 3517.794786 445.665205 
L 3519.815174 449.79848 
L 3521.835561 436.423136 
L 3523.855949 433.609432 
L 3527.896725 459.480639 
L 3529.917112 482.628464 
L 3531.9375 533.78915 
L 3533.957888 545.922508 
L 3535.978275 572.597059 
L 3537.998663 578.675747 
L 3540.019051 616.1784 
L 3542.039439 627.438266 
L 3544.059826 609.851527 
L 3548.100602 589.48176 
L 3550.120989 593.951496 
L 3552.141377 596.761627 
L 3554.161765 574.411091 
L 3556.182152 568.69433 
L 3558.20254 564.41786 
L 3560.222928 564.315675 
L 3562.243316 551.233185 
L 3564.263703 500.111201 
L 3566.284091 499.871111 
L 3568.304479 503.595236 
L 3570.324866 505.466862 
L 3572.345254 490.713554 
L 3582.447193 596.421903 
L 3584.46758 605.06159 
L 3586.487968 624.897904 
L 3590.528743 567.783056 
L 3592.549131 528.762543 
L 3594.569519 522.614748 
L 3596.589906 525.986946 
L 3598.610294 514.863831 
L 3600.630682 540.148404 
L 3602.65107 554.807759 
L 3604.671457 556.908943 
L 3647.099599 581.113346 
L 3649.119987 566.464107 
L 3653.160762 569.236053 
L 3659.221925 569.200946 
L 3661.242313 588.140018 
L 3663.262701 601.744291 
L 3665.283088 616.645698 
L 3667.303476 604.965448 
L 3669.323864 600.415944 
L 3671.344251 582.710415 
L 3673.364639 609.892072 
L 3675.385027 603.60049 
L 3677.405414 606.083069 
L 3679.425802 620.656239 
L 3681.44619 614.520172 
L 3683.466578 619.476124 
L 3685.486965 612.277948 
L 3687.507353 602.013948 
L 3689.527741 596.142234 
L 3691.548128 592.188569 
L 3693.568516 587.001342 
L 3695.588904 592.131707 
L 3697.609291 587.992689 
L 3703.670455 632.625485 
L 3705.690842 635.182654 
L 3707.71123 628.179471 
L 3711.752005 592.786759 
L 3713.772393 563.408185 
L 3715.792781 548.157668 
L 3717.813168 526.486578 
L 3719.833556 526.148669 
L 3721.853944 537.300238 
L 3723.874332 552.991126 
L 3725.894719 562.26894 
L 3727.915107 580.587911 
L 3729.935495 590.859875 
L 3733.97627 554.945534 
L 3735.996658 552.180377 
L 3738.017045 544.768425 
L 3740.037433 577.265155 
L 3744.078209 615.361691 
L 3746.098596 629.383791 
L 3748.118984 645.503775 
L 3750.139372 636.663624 
L 3752.159759 645.469365 
L 3756.200535 577.779994 
L 3758.220922 579.407911 
L 3760.24131 615.154934 
L 3762.261698 614.142613 
L 3764.282086 613.846721 
L 3766.302473 610.109843 
L 3768.322861 621.469552 
L 3772.363636 654.382736 
L 3774.384024 624.209472 
L 3776.404412 614.903651 
L 3778.424799 649.614851 
L 3780.445187 654.266724 
L 3786.50635 625.081384 
L 3788.526738 633.510329 
L 3790.547126 645.464102 
L 3792.567513 645.447732 
L 3794.587901 651.233578 
L 3796.608289 655.869905 
L 3798.628676 654.958779 
L 3952.178142 537.83053 
L 3956.218917 557.375183 
L 3958.239305 561.210791 
L 3962.28008 622.418149 
L 3970.361631 627.825084 
L 3972.382019 662.957934 
L 3978.443182 657.097416 
L 3980.46357 675.519663 
L 3982.483957 687.046919 
L 3984.504345 713.364911 
L 3986.524733 660.589486 
L 3988.54512 718.396155 
L 3990.565508 698.219802 
L 3996.626671 649.762174 
L 4002.687834 578.001827 
L 4004.708222 573.243808 
L 4006.72861 567.474729 
L 4008.748997 586.652571 
L 4010.769385 584.225402 
L 4012.789773 608.51045 
L 4014.81016 604.200523 
L 4016.830548 603.339847 
L 4018.850936 609.101272 
L 4020.871324 586.550973 
L 4028.952874 507.900896 
L 4030.973262 529.766344 
L 4032.99365 525.396626 
L 4035.014037 549.834794 
L 4039.054813 637.352718 
L 4041.075201 633.405618 
L 4043.095588 678.158107 
L 4045.115976 693.489089 
L 4047.136364 747.312055 
L 4047.136364 747.312055 
" clip-path="url(#p5a8616a91c)" style="fill: none; stroke: #023eff; stroke-width: 2.5; stroke-linecap: square"/>
   </g>
   <g id="patch_3">
    <path d="M 585 961.2 
L 585 129.6 
" style="fill: none; stroke: #000000; stroke-width: 0.8; stroke-linejoin: miter; stroke-linecap: square"/>
   </g>
   <g id="patch_4">
    <path d="M 4212 961.2 
L 4212 129.6 
" style="fill: none; stroke: #000000; stroke-width: 0.8; stroke-linejoin: miter; stroke-linecap: square"/>
   </g>
   <g id="patch_5">
    <path d="M 585 961.2 
L 4212 961.2 
" style="fill: none; stroke: #000000; stroke-width: 0.8; stroke-linejoin: miter; stroke-linecap: square"/>
   </g>
   <g id="patch_6">
    <path d="M 585 129.6 
L 4212 129.6 
" style="fill: none; stroke: #000000; stroke-width: 0.8; stroke-linejoin: miter; stroke-linecap: square"/>
   </g>
   <g id="text_17">
    <!-- SUSE -->
    <g transform="translate(2358.998437 123.360937) scale(0.3 -0.3)">
     <defs>
      <path id="DejaVuSans-53" d="M 3425 4513 
L 3425 3897 
Q 3066 4069 2747 4153 
Q 2428 4238 2131 4238 
Q 1616 4238 1336 4038 
Q 1056 3838 1056 3469 
Q 1056 3159 1242 3001 
Q 1428 2844 1947 2747 
L 2328 2669 
Q 3034 2534 3370 2195 
Q 3706 1856 3706 1288 
Q 3706 609 3251 259 
Q 2797 -91 1919 -91 
Q 1588 -91 1214 -16 
Q 841 59 441 206 
L 441 856 
Q 825 641 1194 531 
Q 1563 422 1919 422 
Q 2459 422 2753 634 
Q 3047 847 3047 1241 
Q 3047 1584 2836 1778 
Q 2625 1972 2144 2069 
L 1759 2144 
Q 1053 2284 737 2584 
Q 422 2884 422 3419 
Q 422 4038 858 4394 
Q 1294 4750 2059 4750 
Q 2388 4750 2728 4690 
Q 3069 4631 3425 4513 
z
" transform="scale(0.015625)"/>
      <path id="DejaVuSans-55" d="M 556 4666 
L 1191 4666 
L 1191 1831 
Q 1191 1081 1462 751 
Q 1734 422 2344 422 
Q 2950 422 3222 751 
Q 3494 1081 3494 1831 
L 3494 4666 
L 4128 4666 
L 4128 1753 
Q 4128 841 3676 375 
Q 3225 -91 2344 -91 
Q 1459 -91 1007 375 
Q 556 841 556 1753 
L 556 4666 
z
" transform="scale(0.015625)"/>
      <path id="DejaVuSans-45" d="M 628 4666 
L 3578 4666 
L 3578 4134 
L 1259 4134 
L 1259 2753 
L 3481 2753 
L 3481 2222 
L 1259 2222 
L 1259 531 
L 3634 531 
L 3634 0 
L 628 0 
L 628 4666 
z
" transform="scale(0.015625)"/>
     </defs>
     <use xlink:href="#DejaVuSans-53"/>
     <use xlink:href="#DejaVuSans-55" x="63.476562"/>
     <use xlink:href="#DejaVuSans-53" x="136.669922"/>
     <use xlink:href="#DejaVuSans-45" x="200.146484"/>
    </g>
   </g>
   <g id="legend_1">
    <g id="patch_7">
     <path d="M 4150.090625 152.278125 
L 4205 152.278125 
Q 4207 152.278125 4207 150.278125 
L 4207 136.6 
Q 4207 134.6 4205 134.6 
L 4150.090625 134.6 
Q 4148.090625 134.6 4148.090625 136.6 
L 4148.090625 150.278125 
Q 4148.090625 152.278125 4150.090625 152.278125 
z
" style="fill: #ffffff; opacity: 0.8; stroke: #cccccc; stroke-linejoin: miter"/>
    </g>
    <g id="line2d_16">
     <path d="M 4152.090625 142.698438 
L 4162.090625 142.698438 
L 4172.090625 142.698438 
" style="fill: none; stroke: #023eff; stroke-width: 2.5; stroke-linecap: square"/>
    </g>
    <g id="text_18">
     <!-- suse -->
     <g transform="translate(4180.090625 146.198438) scale(0.1 -0.1)">
      <defs>
       <path id="DejaVuSans-73" d="M 2834 3397 
L 2834 2853 
Q 2591 2978 2328 3040 
Q 2066 3103 1784 3103 
Q 1356 3103 1142 2972 
Q 928 2841 928 2578 
Q 928 2378 1081 2264 
Q 1234 2150 1697 2047 
L 1894 2003 
Q 2506 1872 2764 1633 
Q 3022 1394 3022 966 
Q 3022 478 2636 193 
Q 2250 -91 1575 -91 
Q 1294 -91 989 -36 
Q 684 19 347 128 
L 347 722 
Q 666 556 975 473 
Q 1284 391 1588 391 
Q 1994 391 2212 530 
Q 2431 669 2431 922 
Q 2431 1156 2273 1281 
Q 2116 1406 1581 1522 
L 1381 1569 
Q 847 1681 609 1914 
Q 372 2147 372 2553 
Q 372 3047 722 3315 
Q 1072 3584 1716 3584 
Q 2034 3584 2315 3537 
Q 2597 3491 2834 3397 
z
" transform="scale(0.015625)"/>
       <path id="DejaVuSans-75" d="M 544 1381 
L 544 3500 
L 1119 3500 
L 1119 1403 
Q 1119 906 1312 657 
Q 1506 409 1894 409 
Q 2359 409 2629 706 
Q 2900 1003 2900 1516 
L 2900 3500 
L 3475 3500 
L 3475 0 
L 2900 0 
L 2900 538 
Q 2691 219 2414 64 
Q 2138 -91 1772 -91 
Q 1169 -91 856 284 
Q 544 659 544 1381 
z
M 1991 3584 
L 1991 3584 
z
" transform="scale(0.015625)"/>
      </defs>
      <use xlink:href="#DejaVuSans-73"/>
      <use xlink:href="#DejaVuSans-75" x="52.099609"/>
      <use xlink:href="#DejaVuSans-73" x="115.478516"/>
      <use xlink:href="#DejaVuSans-65" x="167.578125"/>
     </g>
    </g>
   </g>
  </g>
 </g>
 <defs>
  <clipPath id="p5a8616a91c">
   <rect x="585" y="129.6" width="3627" height="831.6"/>
  </clipPath>
 </defs>
</svg>
