<?xml version="1.0" encoding="utf-8" standalone="no"?>
<!DOCTYPE svg PUBLIC "-//W3C//DTD SVG 1.1//EN"
  "http://www.w3.org/Graphics/SVG/1.1/DTD/svg11.dtd">
<svg xmlns:xlink="http://www.w3.org/1999/xlink" width="4680pt" height="1080pt" viewBox="0 0 4680 1080" xmlns="http://www.w3.org/2000/svg" version="1.1">
 <metadata>
  <rdf:RDF xmlns:dc="http://purl.org/dc/elements/1.1/" xmlns:cc="http://creativecommons.org/ns#" xmlns:rdf="http://www.w3.org/1999/02/22-rdf-syntax-ns#">
   <cc:Work>
    <dc:type rdf:resource="http://purl.org/dc/dcmitype/StillImage"/>
    <dc:date>2024-03-25T15:24:59.179579</dc:date>
    <dc:format>image/svg+xml</dc:format>
    <dc:creator>
     <cc:Agent>
      <dc:title>Matplotlib v3.7.2, https://matplotlib.org/</dc:title>
     </cc:Agent>
    </dc:creator>
   </cc:Work>
  </rdf:RDF>
 </metadata>
 <defs>
  <style type="text/css">*{stroke-linejoin: round; stroke-linecap: butt}</style>
 </defs>
 <g id="figure_1">
  <g id="patch_1">
   <path d="M 0 1080 
L 4680 1080 
L 4680 0 
L 0 0 
z
" style="fill: #ffffff"/>
  </g>
  <g id="axes_1">
   <g id="patch_2">
    <path d="M 585 961.2 
L 4212 961.2 
L 4212 129.6 
L 585 129.6 
z
" style="fill: #ffffff"/>
   </g>
   <g id="matplotlib.axis_1">
    <g id="xtick_1">
     <g id="line2d_1">
      <defs>
       <path id="m472415cf63" d="M 0 0 
L 0 3.5 
" style="stroke: #000000; stroke-width: 0.8"/>
      </defs>
      <g>
       <use xlink:href="#m472415cf63" x="941.800468" y="961.2" style="stroke: #000000; stroke-width: 0.8"/>
      </g>
     </g>
     <g id="text_1">
      <!-- 2012-07 -->
      <g transform="translate(900.017655 983.396875) scale(0.2 -0.2)">
       <defs>
        <path id="DejaVuSans-32" d="M 1228 531 
L 3431 531 
L 3431 0 
L 469 0 
L 469 531 
Q 828 903 1448 1529 
Q 2069 2156 2228 2338 
Q 2531 2678 2651 2914 
Q 2772 3150 2772 3378 
Q 2772 3750 2511 3984 
Q 2250 4219 1831 4219 
Q 1534 4219 1204 4116 
Q 875 4013 500 3803 
L 500 4441 
Q 881 4594 1212 4672 
Q 1544 4750 1819 4750 
Q 2544 4750 2975 4387 
Q 3406 4025 3406 3419 
Q 3406 3131 3298 2873 
Q 3191 2616 2906 2266 
Q 2828 2175 2409 1742 
Q 1991 1309 1228 531 
z
" transform="scale(0.015625)"/>
        <path id="DejaVuSans-30" d="M 2034 4250 
Q 1547 4250 1301 3770 
Q 1056 3291 1056 2328 
Q 1056 1369 1301 889 
Q 1547 409 2034 409 
Q 2525 409 2770 889 
Q 3016 1369 3016 2328 
Q 3016 3291 2770 3770 
Q 2525 4250 2034 4250 
z
M 2034 4750 
Q 2819 4750 3233 4129 
Q 3647 3509 3647 2328 
Q 3647 1150 3233 529 
Q 2819 -91 2034 -91 
Q 1250 -91 836 529 
Q 422 1150 422 2328 
Q 422 3509 836 4129 
Q 1250 4750 2034 4750 
z
" transform="scale(0.015625)"/>
        <path id="DejaVuSans-31" d="M 794 531 
L 1825 531 
L 1825 4091 
L 703 3866 
L 703 4441 
L 1819 4666 
L 2450 4666 
L 2450 531 
L 3481 531 
L 3481 0 
L 794 0 
L 794 531 
z
" transform="scale(0.015625)"/>
        <path id="DejaVuSans-2d" d="M 313 2009 
L 1997 2009 
L 1997 1497 
L 313 1497 
L 313 2009 
z
" transform="scale(0.015625)"/>
        <path id="DejaVuSans-37" d="M 525 4666 
L 3525 4666 
L 3525 4397 
L 1831 0 
L 1172 0 
L 2766 4134 
L 525 4134 
L 525 4666 
z
" transform="scale(0.015625)"/>
       </defs>
       <use xlink:href="#DejaVuSans-32"/>
       <use xlink:href="#DejaVuSans-30" x="63.623047"/>
       <use xlink:href="#DejaVuSans-31" x="127.246094"/>
       <use xlink:href="#DejaVuSans-32" x="190.869141"/>
       <use xlink:href="#DejaVuSans-2d" x="254.492188"/>
       <use xlink:href="#DejaVuSans-30" x="290.576172"/>
       <use xlink:href="#DejaVuSans-37" x="354.199219"/>
      </g>
     </g>
    </g>
    <g id="xtick_2">
     <g id="line2d_2">
      <g>
       <use xlink:href="#m472415cf63" x="1313.551805" y="961.2" style="stroke: #000000; stroke-width: 0.8"/>
      </g>
     </g>
     <g id="text_2">
      <!-- 2013-01 -->
      <g transform="translate(1271.768992 983.396875) scale(0.2 -0.2)">
       <defs>
        <path id="DejaVuSans-33" d="M 2597 2516 
Q 3050 2419 3304 2112 
Q 3559 1806 3559 1356 
Q 3559 666 3084 287 
Q 2609 -91 1734 -91 
Q 1441 -91 1130 -33 
Q 819 25 488 141 
L 488 750 
Q 750 597 1062 519 
Q 1375 441 1716 441 
Q 2309 441 2620 675 
Q 2931 909 2931 1356 
Q 2931 1769 2642 2001 
Q 2353 2234 1838 2234 
L 1294 2234 
L 1294 2753 
L 1863 2753 
Q 2328 2753 2575 2939 
Q 2822 3125 2822 3475 
Q 2822 3834 2567 4026 
Q 2313 4219 1838 4219 
Q 1578 4219 1281 4162 
Q 984 4106 628 3988 
L 628 4550 
Q 988 4650 1302 4700 
Q 1616 4750 1894 4750 
Q 2613 4750 3031 4423 
Q 3450 4097 3450 3541 
Q 3450 3153 3228 2886 
Q 3006 2619 2597 2516 
z
" transform="scale(0.015625)"/>
       </defs>
       <use xlink:href="#DejaVuSans-32"/>
       <use xlink:href="#DejaVuSans-30" x="63.623047"/>
       <use xlink:href="#DejaVuSans-31" x="127.246094"/>
       <use xlink:href="#DejaVuSans-33" x="190.869141"/>
       <use xlink:href="#DejaVuSans-2d" x="254.492188"/>
       <use xlink:href="#DejaVuSans-30" x="290.576172"/>
       <use xlink:href="#DejaVuSans-31" x="354.199219"/>
      </g>
     </g>
    </g>
    <g id="xtick_3">
     <g id="line2d_3">
      <g>
       <use xlink:href="#m472415cf63" x="1679.241979" y="961.2" style="stroke: #000000; stroke-width: 0.8"/>
      </g>
     </g>
     <g id="text_3">
      <!-- 2013-07 -->
      <g transform="translate(1637.459166 983.396875) scale(0.2 -0.2)">
       <use xlink:href="#DejaVuSans-32"/>
       <use xlink:href="#DejaVuSans-30" x="63.623047"/>
       <use xlink:href="#DejaVuSans-31" x="127.246094"/>
       <use xlink:href="#DejaVuSans-33" x="190.869141"/>
       <use xlink:href="#DejaVuSans-2d" x="254.492188"/>
       <use xlink:href="#DejaVuSans-30" x="290.576172"/>
       <use xlink:href="#DejaVuSans-37" x="354.199219"/>
      </g>
     </g>
    </g>
    <g id="xtick_4">
     <g id="line2d_4">
      <g>
       <use xlink:href="#m472415cf63" x="2050.993316" y="961.2" style="stroke: #000000; stroke-width: 0.8"/>
      </g>
     </g>
     <g id="text_4">
      <!-- 2014-01 -->
      <g transform="translate(2009.210503 983.396875) scale(0.2 -0.2)">
       <defs>
        <path id="DejaVuSans-34" d="M 2419 4116 
L 825 1625 
L 2419 1625 
L 2419 4116 
z
M 2253 4666 
L 3047 4666 
L 3047 1625 
L 3713 1625 
L 3713 1100 
L 3047 1100 
L 3047 0 
L 2419 0 
L 2419 1100 
L 313 1100 
L 313 1709 
L 2253 4666 
z
" transform="scale(0.015625)"/>
       </defs>
       <use xlink:href="#DejaVuSans-32"/>
       <use xlink:href="#DejaVuSans-30" x="63.623047"/>
       <use xlink:href="#DejaVuSans-31" x="127.246094"/>
       <use xlink:href="#DejaVuSans-34" x="190.869141"/>
       <use xlink:href="#DejaVuSans-2d" x="254.492188"/>
       <use xlink:href="#DejaVuSans-30" x="290.576172"/>
       <use xlink:href="#DejaVuSans-31" x="354.199219"/>
      </g>
     </g>
    </g>
    <g id="xtick_5">
     <g id="line2d_5">
      <g>
       <use xlink:href="#m472415cf63" x="2416.683489" y="961.2" style="stroke: #000000; stroke-width: 0.8"/>
      </g>
     </g>
     <g id="text_5">
      <!-- 2014-07 -->
      <g transform="translate(2374.900677 983.396875) scale(0.2 -0.2)">
       <use xlink:href="#DejaVuSans-32"/>
       <use xlink:href="#DejaVuSans-30" x="63.623047"/>
       <use xlink:href="#DejaVuSans-31" x="127.246094"/>
       <use xlink:href="#DejaVuSans-34" x="190.869141"/>
       <use xlink:href="#DejaVuSans-2d" x="254.492188"/>
       <use xlink:href="#DejaVuSans-30" x="290.576172"/>
       <use xlink:href="#DejaVuSans-37" x="354.199219"/>
      </g>
     </g>
    </g>
    <g id="xtick_6">
     <g id="line2d_6">
      <g>
       <use xlink:href="#m472415cf63" x="2788.434826" y="961.2" style="stroke: #000000; stroke-width: 0.8"/>
      </g>
     </g>
     <g id="text_6">
      <!-- 2015-01 -->
      <g transform="translate(2746.652014 983.396875) scale(0.2 -0.2)">
       <defs>
        <path id="DejaVuSans-35" d="M 691 4666 
L 3169 4666 
L 3169 4134 
L 1269 4134 
L 1269 2991 
Q 1406 3038 1543 3061 
Q 1681 3084 1819 3084 
Q 2600 3084 3056 2656 
Q 3513 2228 3513 1497 
Q 3513 744 3044 326 
Q 2575 -91 1722 -91 
Q 1428 -91 1123 -41 
Q 819 9 494 109 
L 494 744 
Q 775 591 1075 516 
Q 1375 441 1709 441 
Q 2250 441 2565 725 
Q 2881 1009 2881 1497 
Q 2881 1984 2565 2268 
Q 2250 2553 1709 2553 
Q 1456 2553 1204 2497 
Q 953 2441 691 2322 
L 691 4666 
z
" transform="scale(0.015625)"/>
       </defs>
       <use xlink:href="#DejaVuSans-32"/>
       <use xlink:href="#DejaVuSans-30" x="63.623047"/>
       <use xlink:href="#DejaVuSans-31" x="127.246094"/>
       <use xlink:href="#DejaVuSans-35" x="190.869141"/>
       <use xlink:href="#DejaVuSans-2d" x="254.492188"/>
       <use xlink:href="#DejaVuSans-30" x="290.576172"/>
       <use xlink:href="#DejaVuSans-31" x="354.199219"/>
      </g>
     </g>
    </g>
    <g id="xtick_7">
     <g id="line2d_7">
      <g>
       <use xlink:href="#m472415cf63" x="3154.125" y="961.2" style="stroke: #000000; stroke-width: 0.8"/>
      </g>
     </g>
     <g id="text_7">
      <!-- 2015-07 -->
      <g transform="translate(3112.342188 983.396875) scale(0.2 -0.2)">
       <use xlink:href="#DejaVuSans-32"/>
       <use xlink:href="#DejaVuSans-30" x="63.623047"/>
       <use xlink:href="#DejaVuSans-31" x="127.246094"/>
       <use xlink:href="#DejaVuSans-35" x="190.869141"/>
       <use xlink:href="#DejaVuSans-2d" x="254.492188"/>
       <use xlink:href="#DejaVuSans-30" x="290.576172"/>
       <use xlink:href="#DejaVuSans-37" x="354.199219"/>
      </g>
     </g>
    </g>
    <g id="xtick_8">
     <g id="line2d_8">
      <g>
       <use xlink:href="#m472415cf63" x="3525.876337" y="961.2" style="stroke: #000000; stroke-width: 0.8"/>
      </g>
     </g>
     <g id="text_8">
      <!-- 2016-01 -->
      <g transform="translate(3484.093524 983.396875) scale(0.2 -0.2)">
       <defs>
        <path id="DejaVuSans-36" d="M 2113 2584 
Q 1688 2584 1439 2293 
Q 1191 2003 1191 1497 
Q 1191 994 1439 701 
Q 1688 409 2113 409 
Q 2538 409 2786 701 
Q 3034 994 3034 1497 
Q 3034 2003 2786 2293 
Q 2538 2584 2113 2584 
z
M 3366 4563 
L 3366 3988 
Q 3128 4100 2886 4159 
Q 2644 4219 2406 4219 
Q 1781 4219 1451 3797 
Q 1122 3375 1075 2522 
Q 1259 2794 1537 2939 
Q 1816 3084 2150 3084 
Q 2853 3084 3261 2657 
Q 3669 2231 3669 1497 
Q 3669 778 3244 343 
Q 2819 -91 2113 -91 
Q 1303 -91 875 529 
Q 447 1150 447 2328 
Q 447 3434 972 4092 
Q 1497 4750 2381 4750 
Q 2619 4750 2861 4703 
Q 3103 4656 3366 4563 
z
" transform="scale(0.015625)"/>
       </defs>
       <use xlink:href="#DejaVuSans-32"/>
       <use xlink:href="#DejaVuSans-30" x="63.623047"/>
       <use xlink:href="#DejaVuSans-31" x="127.246094"/>
       <use xlink:href="#DejaVuSans-36" x="190.869141"/>
       <use xlink:href="#DejaVuSans-2d" x="254.492188"/>
       <use xlink:href="#DejaVuSans-30" x="290.576172"/>
       <use xlink:href="#DejaVuSans-31" x="354.199219"/>
      </g>
     </g>
    </g>
    <g id="xtick_9">
     <g id="line2d_9">
      <g>
       <use xlink:href="#m472415cf63" x="3893.586898" y="961.2" style="stroke: #000000; stroke-width: 0.8"/>
      </g>
     </g>
     <g id="text_9">
      <!-- 2016-07 -->
      <g transform="translate(3851.804086 983.396875) scale(0.2 -0.2)">
       <use xlink:href="#DejaVuSans-32"/>
       <use xlink:href="#DejaVuSans-30" x="63.623047"/>
       <use xlink:href="#DejaVuSans-31" x="127.246094"/>
       <use xlink:href="#DejaVuSans-36" x="190.869141"/>
       <use xlink:href="#DejaVuSans-2d" x="254.492188"/>
       <use xlink:href="#DejaVuSans-30" x="290.576172"/>
       <use xlink:href="#DejaVuSans-37" x="354.199219"/>
      </g>
     </g>
    </g>
    <g id="text_10">
     <!-- Time -->
     <g transform="translate(2374.032813 1006.753125) scale(0.2 -0.2)">
      <defs>
       <path id="DejaVuSans-54" d="M -19 4666 
L 3928 4666 
L 3928 4134 
L 2272 4134 
L 2272 0 
L 1638 0 
L 1638 4134 
L -19 4134 
L -19 4666 
z
" transform="scale(0.015625)"/>
       <path id="DejaVuSans-69" d="M 603 3500 
L 1178 3500 
L 1178 0 
L 603 0 
L 603 3500 
z
M 603 4863 
L 1178 4863 
L 1178 4134 
L 603 4134 
L 603 4863 
z
" transform="scale(0.015625)"/>
       <path id="DejaVuSans-6d" d="M 3328 2828 
Q 3544 3216 3844 3400 
Q 4144 3584 4550 3584 
Q 5097 3584 5394 3201 
Q 5691 2819 5691 2113 
L 5691 0 
L 5113 0 
L 5113 2094 
Q 5113 2597 4934 2840 
Q 4756 3084 4391 3084 
Q 3944 3084 3684 2787 
Q 3425 2491 3425 1978 
L 3425 0 
L 2847 0 
L 2847 2094 
Q 2847 2600 2669 2842 
Q 2491 3084 2119 3084 
Q 1678 3084 1418 2786 
Q 1159 2488 1159 1978 
L 1159 0 
L 581 0 
L 581 3500 
L 1159 3500 
L 1159 2956 
Q 1356 3278 1631 3431 
Q 1906 3584 2284 3584 
Q 2666 3584 2933 3390 
Q 3200 3197 3328 2828 
z
" transform="scale(0.015625)"/>
       <path id="DejaVuSans-65" d="M 3597 1894 
L 3597 1613 
L 953 1613 
Q 991 1019 1311 708 
Q 1631 397 2203 397 
Q 2534 397 2845 478 
Q 3156 559 3463 722 
L 3463 178 
Q 3153 47 2828 -22 
Q 2503 -91 2169 -91 
Q 1331 -91 842 396 
Q 353 884 353 1716 
Q 353 2575 817 3079 
Q 1281 3584 2069 3584 
Q 2775 3584 3186 3129 
Q 3597 2675 3597 1894 
z
M 3022 2063 
Q 3016 2534 2758 2815 
Q 2500 3097 2075 3097 
Q 1594 3097 1305 2825 
Q 1016 2553 972 2059 
L 3022 2063 
z
" transform="scale(0.015625)"/>
      </defs>
      <use xlink:href="#DejaVuSans-54"/>
      <use xlink:href="#DejaVuSans-69" x="57.958984"/>
      <use xlink:href="#DejaVuSans-6d" x="85.742188"/>
      <use xlink:href="#DejaVuSans-65" x="183.154297"/>
     </g>
    </g>
   </g>
   <g id="matplotlib.axis_2">
    <g id="ytick_1">
     <g id="line2d_10">
      <defs>
       <path id="m38607ca167" d="M 0 0 
L -3.5 0 
" style="stroke: #000000; stroke-width: 0.8"/>
      </defs>
      <g>
       <use xlink:href="#m38607ca167" x="585" y="903.004668" style="stroke: #000000; stroke-width: 0.8"/>
      </g>
     </g>
     <g id="text_11">
      <!-- −0.002 -->
      <g transform="translate(503.984375 910.603105) scale(0.2 -0.2)">
       <defs>
        <path id="DejaVuSans-2212" d="M 678 2272 
L 4684 2272 
L 4684 1741 
L 678 1741 
L 678 2272 
z
" transform="scale(0.015625)"/>
        <path id="DejaVuSans-2e" d="M 684 794 
L 1344 794 
L 1344 0 
L 684 0 
L 684 794 
z
" transform="scale(0.015625)"/>
       </defs>
       <use xlink:href="#DejaVuSans-2212"/>
       <use xlink:href="#DejaVuSans-30" x="83.789062"/>
       <use xlink:href="#DejaVuSans-2e" x="147.412109"/>
       <use xlink:href="#DejaVuSans-30" x="179.199219"/>
       <use xlink:href="#DejaVuSans-30" x="242.822266"/>
       <use xlink:href="#DejaVuSans-32" x="306.445312"/>
      </g>
     </g>
    </g>
    <g id="ytick_2">
     <g id="line2d_11">
      <g>
       <use xlink:href="#m38607ca167" x="585" y="748.558318" style="stroke: #000000; stroke-width: 0.8"/>
      </g>
     </g>
     <g id="text_12">
      <!-- −0.001 -->
      <g transform="translate(503.984375 756.156756) scale(0.2 -0.2)">
       <use xlink:href="#DejaVuSans-2212"/>
       <use xlink:href="#DejaVuSans-30" x="83.789062"/>
       <use xlink:href="#DejaVuSans-2e" x="147.412109"/>
       <use xlink:href="#DejaVuSans-30" x="179.199219"/>
       <use xlink:href="#DejaVuSans-30" x="242.822266"/>
       <use xlink:href="#DejaVuSans-31" x="306.445312"/>
      </g>
     </g>
    </g>
    <g id="ytick_3">
     <g id="line2d_12">
      <g>
       <use xlink:href="#m38607ca167" x="585" y="594.111969" style="stroke: #000000; stroke-width: 0.8"/>
      </g>
     </g>
     <g id="text_13">
      <!-- 0.000 -->
      <g transform="translate(520.74375 601.710406) scale(0.2 -0.2)">
       <use xlink:href="#DejaVuSans-30"/>
       <use xlink:href="#DejaVuSans-2e" x="63.623047"/>
       <use xlink:href="#DejaVuSans-30" x="95.410156"/>
       <use xlink:href="#DejaVuSans-30" x="159.033203"/>
       <use xlink:href="#DejaVuSans-30" x="222.65625"/>
      </g>
     </g>
    </g>
    <g id="ytick_4">
     <g id="line2d_13">
      <g>
       <use xlink:href="#m38607ca167" x="585" y="439.66562" style="stroke: #000000; stroke-width: 0.8"/>
      </g>
     </g>
     <g id="text_14">
      <!-- 0.001 -->
      <g transform="translate(520.74375 447.264057) scale(0.2 -0.2)">
       <use xlink:href="#DejaVuSans-30"/>
       <use xlink:href="#DejaVuSans-2e" x="63.623047"/>
       <use xlink:href="#DejaVuSans-30" x="95.410156"/>
       <use xlink:href="#DejaVuSans-30" x="159.033203"/>
       <use xlink:href="#DejaVuSans-31" x="222.65625"/>
      </g>
     </g>
    </g>
    <g id="ytick_5">
     <g id="line2d_14">
      <g>
       <use xlink:href="#m38607ca167" x="585" y="285.21927" style="stroke: #000000; stroke-width: 0.8"/>
      </g>
     </g>
     <g id="text_15">
      <!-- 0.002 -->
      <g transform="translate(520.74375 292.817708) scale(0.2 -0.2)">
       <use xlink:href="#DejaVuSans-30"/>
       <use xlink:href="#DejaVuSans-2e" x="63.623047"/>
       <use xlink:href="#DejaVuSans-30" x="95.410156"/>
       <use xlink:href="#DejaVuSans-30" x="159.033203"/>
       <use xlink:href="#DejaVuSans-32" x="222.65625"/>
      </g>
     </g>
    </g>
    <g id="ytick_6">
     <g id="line2d_15">
      <g>
       <use xlink:href="#m38607ca167" x="585" y="130.772921" style="stroke: #000000; stroke-width: 0.8"/>
      </g>
     </g>
     <g id="text_16">
      <!-- 0.003 -->
      <g transform="translate(520.74375 138.371358) scale(0.2 -0.2)">
       <use xlink:href="#DejaVuSans-30"/>
       <use xlink:href="#DejaVuSans-2e" x="63.623047"/>
       <use xlink:href="#DejaVuSans-30" x="95.410156"/>
       <use xlink:href="#DejaVuSans-30" x="159.033203"/>
       <use xlink:href="#DejaVuSans-33" x="222.65625"/>
      </g>
     </g>
    </g>
    <g id="text_17">
     <!-- North(m) -->
     <g transform="translate(495.825 590.9125) rotate(-90) scale(0.2 -0.2)">
      <defs>
       <path id="DejaVuSans-4e" d="M 628 4666 
L 1478 4666 
L 3547 763 
L 3547 4666 
L 4159 4666 
L 4159 0 
L 3309 0 
L 1241 3903 
L 1241 0 
L 628 0 
L 628 4666 
z
" transform="scale(0.015625)"/>
       <path id="DejaVuSans-6f" d="M 1959 3097 
Q 1497 3097 1228 2736 
Q 959 2375 959 1747 
Q 959 1119 1226 758 
Q 1494 397 1959 397 
Q 2419 397 2687 759 
Q 2956 1122 2956 1747 
Q 2956 2369 2687 2733 
Q 2419 3097 1959 3097 
z
M 1959 3584 
Q 2709 3584 3137 3096 
Q 3566 2609 3566 1747 
Q 3566 888 3137 398 
Q 2709 -91 1959 -91 
Q 1206 -91 779 398 
Q 353 888 353 1747 
Q 353 2609 779 3096 
Q 1206 3584 1959 3584 
z
" transform="scale(0.015625)"/>
       <path id="DejaVuSans-72" d="M 2631 2963 
Q 2534 3019 2420 3045 
Q 2306 3072 2169 3072 
Q 1681 3072 1420 2755 
Q 1159 2438 1159 1844 
L 1159 0 
L 581 0 
L 581 3500 
L 1159 3500 
L 1159 2956 
Q 1341 3275 1631 3429 
Q 1922 3584 2338 3584 
Q 2397 3584 2469 3576 
Q 2541 3569 2628 3553 
L 2631 2963 
z
" transform="scale(0.015625)"/>
       <path id="DejaVuSans-74" d="M 1172 4494 
L 1172 3500 
L 2356 3500 
L 2356 3053 
L 1172 3053 
L 1172 1153 
Q 1172 725 1289 603 
Q 1406 481 1766 481 
L 2356 481 
L 2356 0 
L 1766 0 
Q 1100 0 847 248 
Q 594 497 594 1153 
L 594 3053 
L 172 3053 
L 172 3500 
L 594 3500 
L 594 4494 
L 1172 4494 
z
" transform="scale(0.015625)"/>
       <path id="DejaVuSans-68" d="M 3513 2113 
L 3513 0 
L 2938 0 
L 2938 2094 
Q 2938 2591 2744 2837 
Q 2550 3084 2163 3084 
Q 1697 3084 1428 2787 
Q 1159 2491 1159 1978 
L 1159 0 
L 581 0 
L 581 4863 
L 1159 4863 
L 1159 2956 
Q 1366 3272 1645 3428 
Q 1925 3584 2291 3584 
Q 2894 3584 3203 3211 
Q 3513 2838 3513 2113 
z
" transform="scale(0.015625)"/>
       <path id="DejaVuSans-28" d="M 1984 4856 
Q 1566 4138 1362 3434 
Q 1159 2731 1159 2009 
Q 1159 1288 1364 580 
Q 1569 -128 1984 -844 
L 1484 -844 
Q 1016 -109 783 600 
Q 550 1309 550 2009 
Q 550 2706 781 3412 
Q 1013 4119 1484 4856 
L 1984 4856 
z
" transform="scale(0.015625)"/>
       <path id="DejaVuSans-29" d="M 513 4856 
L 1013 4856 
Q 1481 4119 1714 3412 
Q 1947 2706 1947 2009 
Q 1947 1309 1714 600 
Q 1481 -109 1013 -844 
L 513 -844 
Q 928 -128 1133 580 
Q 1338 1288 1338 2009 
Q 1338 2731 1133 3434 
Q 928 4138 513 4856 
z
" transform="scale(0.015625)"/>
      </defs>
      <use xlink:href="#DejaVuSans-4e"/>
      <use xlink:href="#DejaVuSans-6f" x="74.804688"/>
      <use xlink:href="#DejaVuSans-72" x="135.986328"/>
      <use xlink:href="#DejaVuSans-74" x="177.099609"/>
      <use xlink:href="#DejaVuSans-68" x="216.308594"/>
      <use xlink:href="#DejaVuSans-28" x="279.6875"/>
      <use xlink:href="#DejaVuSans-6d" x="318.701172"/>
      <use xlink:href="#DejaVuSans-29" x="416.113281"/>
     </g>
    </g>
   </g>
   <g id="line2d_16">
    <path d="M 749.863636 452.744961 
L 755.924799 640.551679 
L 761.985963 652.079848 
L 764.00635 676.531759 
L 768.047126 618.856579 
L 770.067513 568.939164 
L 772.087901 572.985239 
L 774.108289 565.088846 
L 776.128676 541.797291 
L 790.27139 558.684479 
L 792.291778 609.097974 
L 794.312166 610.575034 
L 796.332553 658.539617 
L 800.373329 626.893111 
L 802.393717 684.633269 
L 806.434492 687.733708 
L 808.45488 697.308834 
L 810.475267 645.193509 
L 812.495655 630.89332 
L 824.617981 667.021588 
L 830.679144 656.681489 
L 832.699532 654.784519 
L 834.71992 626.45818 
L 836.740307 651.543654 
L 844.821858 558.255536 
L 850.883021 523.997543 
L 852.903409 508.654151 
L 854.923797 510.681165 
L 856.944184 584.417282 
L 860.98496 637.644709 
L 867.046123 661.163709 
L 869.066511 670.053539 
L 873.107286 648.282274 
L 875.127674 650.424958 
L 877.148061 672.887756 
L 879.168449 680.508419 
L 881.188837 722.659681 
L 883.209225 719.818261 
L 885.229612 709.33048 
L 889.270388 665.75345 
L 891.290775 668.202146 
L 893.311163 683.357745 
L 895.331551 729.849198 
L 897.351939 719.740626 
L 899.372326 689.459304 
L 901.392714 678.92598 
L 903.413102 709.391266 
L 905.433489 704.879062 
L 907.453877 660.329093 
L 909.474265 603.472695 
L 913.51504 576.356867 
L 915.535428 593.265891 
L 917.555816 592.180902 
L 933.718917 502.832188 
L 937.759693 531.593194 
L 1044.840241 372.891674 
L 1048.881016 290.717086 
L 1212.53242 331.355851 
L 1214.552807 258.021954 
L 1216.573195 230.993376 
L 1226.675134 295.354718 
L 1230.715909 334.388864 
L 1232.736297 370.355141 
L 1234.756684 408.872465 
L 1236.777072 422.690339 
L 1238.79746 434.357283 
L 1240.817848 393.144705 
L 1242.838235 358.561079 
L 1252.940174 451.020794 
L 1333.755682 376.497973 
L 1335.77607 428.457147 
L 1341.837233 575.03202 
L 1372.143048 525.050664 
L 1374.163436 526.57115 
L 1376.183824 535.976165 
L 1378.204211 557.763575 
L 1382.244987 532.686893 
L 1384.265374 558.263729 
L 1386.285762 507.021339 
L 1388.30615 476.460493 
L 1390.326537 433.282658 
L 1392.346925 393.76774 
L 1394.367313 433.984424 
L 1398.408088 527.890584 
L 1400.428476 592.396033 
L 1402.448864 649.799429 
L 1404.469251 727.589567 
L 1406.489639 749.230568 
L 1412.550802 504.804596 
L 1414.57119 442.860729 
L 1416.591578 361.208787 
L 1418.611965 342.867084 
L 1420.632353 349.569754 
L 1422.652741 386.887549 
L 1424.673128 440.179787 
L 1426.693516 506.053534 
L 1428.713904 546.333029 
L 1432.754679 592.280069 
L 1434.775067 570.10923 
L 1436.795455 534.885185 
L 1442.856618 551.56424 
L 1444.877005 569.846239 
L 1446.897393 645.852 
L 1454.978944 654.247912 
L 1456.999332 598.662936 
L 1459.019719 579.05666 
L 1461.040107 506.032518 
L 1463.060495 500.302484 
L 1465.080882 533.960005 
L 1471.142045 618.821378 
L 1473.162433 602.730088 
L 1475.182821 614.676129 
L 1479.223596 542.671015 
L 1481.243984 577.861319 
L 1483.264372 575.411547 
L 1485.284759 599.228087 
L 1487.305147 658.145753 
L 1489.325535 675.043893 
L 1491.345922 766.559766 
L 1493.36631 850.310078 
L 1495.386698 829.383318 
L 1497.407086 815.723623 
L 1501.447861 724.065837 
L 1669.14004 542.465545 
L 1673.180816 664.721161 
L 1677.221591 736.230973 
L 1681.262366 697.787963 
L 1683.282754 735.65311 
L 1687.323529 626.15039 
L 1689.343917 589.673603 
L 1691.364305 540.190641 
L 1693.384693 499.486403 
L 1695.40508 465.958068 
L 1697.425468 428.815424 
L 1699.445856 424.651085 
L 1701.466243 456.529537 
L 1703.486631 502.046662 
L 1705.507019 517.727351 
L 1707.527406 505.012525 
L 1709.547794 558.354337 
L 1711.568182 565.705196 
L 1715.608957 585.664619 
L 1717.629345 569.485157 
L 1719.649733 523.824741 
L 1721.67012 487.496059 
L 1723.690508 458.063164 
L 1725.710896 430.752156 
L 1727.731283 452.425805 
L 1729.751671 403.892658 
L 1731.772059 395.880475 
L 1737.833222 416.511503 
L 1739.85361 383.098627 
L 1741.873997 353.0018 
L 1743.894385 354.228068 
L 1745.914773 350.899096 
L 1747.93516 315.313119 
L 1749.955548 331.663536 
L 1751.975936 326.777116 
L 1753.996324 404.517718 
L 1756.016711 427.821759 
L 1758.037099 425.603193 
L 1768.139037 515.932451 
L 1780.261364 445.112811 
L 1782.281751 407.925905 
L 1784.302139 387.04827 
L 1786.322527 404.548691 
L 1788.342914 447.766481 
L 1790.363302 480.987821 
L 1792.38369 522.259375 
L 1794.404078 542.372004 
L 1796.424465 549.623965 
L 1806.526404 411.541531 
L 1808.546791 358.651828 
L 1810.567179 356.099028 
L 1812.587567 339.671106 
L 1814.607955 311.844845 
L 1816.628342 287.267198 
L 1818.64873 286.327467 
L 1822.689505 302.473591 
L 1824.709893 324.998068 
L 1826.730281 325.832537 
L 1828.750668 353.973784 
L 1830.771056 400.66784 
L 1832.791444 455.923663 
L 1834.811832 477.168395 
L 1836.832219 430.911979 
L 1838.852607 418.054297 
L 1954.014706 560.086839 
L 1956.035094 554.760722 
L 1958.055481 537.308825 
L 1960.075869 560.564648 
L 1962.096257 611.815533 
L 1966.137032 690.015974 
L 1968.15742 671.726888 
L 1980.279746 643.088817 
L 1982.300134 676.134646 
L 1988.361297 734.119326 
L 1990.381684 728.931036 
L 1992.402072 706.977287 
L 1994.42246 687.1942 
L 1996.442848 658.570842 
L 2000.483623 605.294276 
L 2073.21758 726.687304 
L 2075.237968 707.615369 
L 2079.278743 775.719957 
L 2081.299131 845.15975 
L 2380.316511 509.17661 
L 2438.907754 516.000102 
L 2442.948529 554.17457 
L 2446.989305 556.510892 
L 2451.03008 509.772607 
L 2467.193182 472.335232 
L 3176.349265 365.320075 
L 3178.369652 374.452437 
L 3180.39004 341.280788 
L 3182.410428 322.800536 
L 3186.451203 387.565519 
L 3190.491979 302.374137 
L 3192.512366 291.84585 
L 3194.532754 308.551776 
L 3196.553142 268.367346 
L 3200.593917 248.858071 
L 3208.675468 311.660561 
L 3210.695856 308.20497 
L 3212.716243 167.4 
L 3214.736631 226.821058 
L 3216.757019 246.090719 
L 3218.777406 284.84326 
L 3220.797794 208.955053 
L 3222.818182 201.072451 
L 3224.83857 200.444715 
L 3226.858957 272.325843 
L 3228.879345 299.021023 
L 3230.899733 298.197359 
L 3253.123997 377.931696 
L 3261.205548 469.506116 
L 3265.246324 540.210373 
L 3267.266711 596.049346 
L 3269.287099 546.124331 
L 3277.36865 395.304469 
L 3287.470588 313.876723 
L 3289.490976 298.881443 
L 3291.511364 304.230267 
L 3293.531751 332.104783 
L 3295.552139 319.294546 
L 3297.572527 322.23087 
L 3301.613302 361.078428 
L 3303.63369 411.537099 
L 3305.654078 454.195547 
L 3309.694853 455.525414 
L 3315.756016 446.697355 
L 3317.776404 411.077477 
L 3319.796791 368.395877 
L 3321.817179 389.647941 
L 3323.837567 401.786086 
L 3325.857955 373.825571 
L 3327.878342 397.178743 
L 3329.89873 396.447897 
L 3331.919118 395.400353 
L 3340.000668 458.123065 
L 3342.021056 501.914868 
L 3344.041444 569.620142 
L 3346.061832 614.895692 
L 3348.082219 555.647866 
L 3350.102607 545.399114 
L 3352.122995 559.294922 
L 3354.143382 470.717983 
L 3358.184158 385.063198 
L 3360.204545 337.228742 
L 3362.224933 423.839251 
L 3364.245321 496.564022 
L 3366.265709 555.117719 
L 3368.286096 621.687987 
L 3370.306484 625.582359 
L 3372.326872 628.80353 
L 3374.347259 661.627305 
L 3376.367647 623.805893 
L 3400.612299 490.4701 
L 3402.632687 453.931424 
L 3404.653075 453.232097 
L 3410.714238 412.354221 
L 3412.734626 461.507264 
L 3414.755013 441.503346 
L 3416.775401 445.284497 
L 3418.795789 421.794504 
L 3420.816176 395.431245 
L 3422.836564 358.27918 
L 3424.856952 356.180916 
L 3426.87734 340.80574 
L 3428.897727 352.481071 
L 3432.938503 404.934501 
L 3434.95889 467.874905 
L 3436.979278 510.601417 
L 3438.999666 491.570956 
L 3441.020053 512.283306 
L 3443.040441 537.8963 
L 3445.060829 515.852227 
L 3447.081217 553.680252 
L 3449.101604 566.91 
L 3451.121992 581.567173 
L 3453.14238 616.61698 
L 3455.162767 599.454465 
L 3457.183155 604.621972 
L 3459.203543 620.982112 
L 3461.22393 588.416601 
L 3463.244318 532.425345 
L 3465.264706 515.861622 
L 3467.285094 475.425659 
L 3469.305481 500.874751 
L 3471.325869 501.500385 
L 3473.346257 492.675249 
L 3475.366644 498.339134 
L 3477.387032 518.95261 
L 3479.40742 509.289407 
L 3481.427807 525.652086 
L 3483.448195 505.121095 
L 3485.468583 491.258 
L 3487.488971 475.040566 
L 3489.509358 475.685558 
L 3491.529746 508.976481 
L 3493.550134 521.501637 
L 3497.590909 534.967855 
L 3499.611297 511.786253 
L 3501.631684 514.523398 
L 3503.652072 530.826732 
L 3505.67246 523.224374 
L 3507.692848 551.056363 
L 3509.713235 554.07534 
L 3511.733623 516.20047 
L 3513.754011 523.52987 
L 3515.774398 520.584658 
L 3517.794786 498.854098 
L 3519.815174 516.939196 
L 3521.835561 482.134522 
L 3523.855949 496.957769 
L 3527.896725 589.765266 
L 3529.917112 648.518858 
L 3531.9375 683.879042 
L 3533.957888 684.333357 
L 3535.978275 716.285436 
L 3537.998663 712.086477 
L 3540.019051 767.074794 
L 3542.039439 764.850608 
L 3544.059826 722.583216 
L 3548.100602 732.3939 
L 3550.120989 743.760625 
L 3552.141377 744.522309 
L 3554.161765 676.343523 
L 3556.182152 635.405191 
L 3558.20254 590.092222 
L 3560.222928 577.040909 
L 3564.263703 535.928551 
L 3566.284091 534.256133 
L 3568.304479 583.088336 
L 3570.324866 613.311496 
L 3572.345254 610.044038 
L 3582.447193 654.670111 
L 3584.46758 631.768424 
L 3586.487968 617.321535 
L 3590.528743 513.272229 
L 3592.549131 470.277393 
L 3594.569519 417.882845 
L 3596.589906 401.058446 
L 3598.610294 401.425494 
L 3600.630682 484.50781 
L 3602.65107 555.598643 
L 3604.671457 599.341679 
L 3647.099599 753.099005 
L 3649.119987 758.293144 
L 3653.160762 797.527508 
L 3659.221925 806.587035 
L 3661.242313 878.181336 
L 3663.262701 915.156272 
L 3665.283088 909.681101 
L 3667.303476 889.296308 
L 3669.323864 846.204776 
L 3671.344251 853.366619 
L 3673.364639 905.627297 
L 3675.385027 884.855572 
L 3677.405414 877.877868 
L 3679.425802 894.955623 
L 3681.44619 894.520325 
L 3683.466578 923.4 
L 3685.486965 895.058113 
L 3687.507353 859.642657 
L 3689.527741 802.759599 
L 3691.548128 791.10238 
L 3695.588904 797.986341 
L 3697.609291 755.392404 
L 3703.670455 806.375261 
L 3705.690842 818.948192 
L 3707.71123 776.837156 
L 3711.752005 698.504057 
L 3715.792781 585.156423 
L 3717.813168 556.660134 
L 3719.833556 513.596194 
L 3721.853944 547.890802 
L 3723.874332 560.453446 
L 3725.894719 588.699087 
L 3727.915107 630.492166 
L 3729.935495 630.877021 
L 3733.97627 613.933317 
L 3735.996658 566.690493 
L 3738.017045 553.937234 
L 3740.037433 568.213981 
L 3744.078209 607.280393 
L 3746.098596 610.302564 
L 3748.118984 635.575565 
L 3750.139372 642.2883 
L 3752.159759 624.849005 
L 3756.200535 598.677101 
L 3758.220922 620.275084 
L 3760.24131 671.677973 
L 3762.261698 675.231995 
L 3764.282086 695.566833 
L 3766.302473 755.059073 
L 3768.322861 808.218489 
L 3772.363636 812.365008 
L 3774.384024 832.343755 
L 3776.404412 802.318926 
L 3778.424799 798.746265 
L 3780.445187 817.545998 
L 3786.50635 735.929993 
L 3788.526738 678.272894 
L 3790.547126 712.712487 
L 3792.567513 752.504207 
L 3794.587901 749.586345 
L 3796.608289 804.366103 
L 3798.628676 765.629881 
L 3952.178142 410.308101 
L 3954.198529 428.852248 
L 3956.218917 439.944291 
L 3958.239305 409.85689 
L 3960.259693 469.182146 
L 3962.28008 524.1839 
L 3970.361631 382.584348 
L 3972.382019 409.183116 
L 3978.443182 424.394863 
L 3980.46357 428.821668 
L 3982.483957 433.831222 
L 3984.504345 528.375009 
L 3986.524733 492.124863 
L 3988.54512 446.538268 
L 3990.565508 497.453392 
L 3996.626671 483.61081 
L 4002.687834 436.546041 
L 4004.708222 363.336505 
L 4006.72861 374.087473 
L 4008.748997 350.289459 
L 4010.769385 396.875589 
L 4012.789773 422.135399 
L 4014.81016 423.735845 
L 4016.830548 429.857984 
L 4018.850936 443.179139 
L 4020.871324 396.417023 
L 4028.952874 313.094152 
L 4032.99365 400.593083 
L 4035.014037 435.108991 
L 4037.034425 438.569544 
L 4039.054813 463.753424 
L 4041.075201 467.927764 
L 4043.095588 509.823279 
L 4045.115976 457.398909 
L 4047.136364 426.117954 
L 4047.136364 426.117954 
" clip-path="url(#pf0c7b70a84)" style="fill: none; stroke: #ffc400; stroke-width: 2.5; stroke-linecap: square"/>
   </g>
   <g id="patch_3">
    <path d="M 585 961.2 
L 585 129.6 
" style="fill: none; stroke: #000000; stroke-width: 0.8; stroke-linejoin: miter; stroke-linecap: square"/>
   </g>
   <g id="patch_4">
    <path d="M 4212 961.2 
L 4212 129.6 
" style="fill: none; stroke: #000000; stroke-width: 0.8; stroke-linejoin: miter; stroke-linecap: square"/>
   </g>
   <g id="patch_5">
    <path d="M 585 961.2 
L 4212 961.2 
" style="fill: none; stroke: #000000; stroke-width: 0.8; stroke-linejoin: miter; stroke-linecap: square"/>
   </g>
   <g id="patch_6">
    <path d="M 585 129.6 
L 4212 129.6 
" style="fill: none; stroke: #000000; stroke-width: 0.8; stroke-linejoin: miter; stroke-linecap: square"/>
   </g>
   <g id="text_18">
    <!-- VERO -->
    <g transform="translate(2356.530469 123.360937) scale(0.3 -0.3)">
     <defs>
      <path id="DejaVuSans-56" d="M 1831 0 
L 50 4666 
L 709 4666 
L 2188 738 
L 3669 4666 
L 4325 4666 
L 2547 0 
L 1831 0 
z
" transform="scale(0.015625)"/>
      <path id="DejaVuSans-45" d="M 628 4666 
L 3578 4666 
L 3578 4134 
L 1259 4134 
L 1259 2753 
L 3481 2753 
L 3481 2222 
L 1259 2222 
L 1259 531 
L 3634 531 
L 3634 0 
L 628 0 
L 628 4666 
z
" transform="scale(0.015625)"/>
      <path id="DejaVuSans-52" d="M 2841 2188 
Q 3044 2119 3236 1894 
Q 3428 1669 3622 1275 
L 4263 0 
L 3584 0 
L 2988 1197 
Q 2756 1666 2539 1819 
Q 2322 1972 1947 1972 
L 1259 1972 
L 1259 0 
L 628 0 
L 628 4666 
L 2053 4666 
Q 2853 4666 3247 4331 
Q 3641 3997 3641 3322 
Q 3641 2881 3436 2590 
Q 3231 2300 2841 2188 
z
M 1259 4147 
L 1259 2491 
L 2053 2491 
Q 2509 2491 2742 2702 
Q 2975 2913 2975 3322 
Q 2975 3731 2742 3939 
Q 2509 4147 2053 4147 
L 1259 4147 
z
" transform="scale(0.015625)"/>
      <path id="DejaVuSans-4f" d="M 2522 4238 
Q 1834 4238 1429 3725 
Q 1025 3213 1025 2328 
Q 1025 1447 1429 934 
Q 1834 422 2522 422 
Q 3209 422 3611 934 
Q 4013 1447 4013 2328 
Q 4013 3213 3611 3725 
Q 3209 4238 2522 4238 
z
M 2522 4750 
Q 3503 4750 4090 4092 
Q 4678 3434 4678 2328 
Q 4678 1225 4090 567 
Q 3503 -91 2522 -91 
Q 1538 -91 948 565 
Q 359 1222 359 2328 
Q 359 3434 948 4092 
Q 1538 4750 2522 4750 
z
" transform="scale(0.015625)"/>
     </defs>
     <use xlink:href="#DejaVuSans-56"/>
     <use xlink:href="#DejaVuSans-45" x="68.408203"/>
     <use xlink:href="#DejaVuSans-52" x="131.591797"/>
     <use xlink:href="#DejaVuSans-4f" x="201.074219"/>
    </g>
   </g>
   <g id="legend_1">
    <g id="patch_7">
     <path d="M 4150.923437 152.278125 
L 4205 152.278125 
Q 4207 152.278125 4207 150.278125 
L 4207 136.6 
Q 4207 134.6 4205 134.6 
L 4150.923437 134.6 
Q 4148.923437 134.6 4148.923437 136.6 
L 4148.923437 150.278125 
Q 4148.923437 152.278125 4150.923437 152.278125 
z
" style="fill: #ffffff; opacity: 0.8; stroke: #cccccc; stroke-linejoin: miter"/>
    </g>
    <g id="line2d_17">
     <path d="M 4152.923437 142.698438 
L 4162.923437 142.698438 
L 4172.923437 142.698438 
" style="fill: none; stroke: #ffc400; stroke-width: 2.5; stroke-linecap: square"/>
    </g>
    <g id="text_19">
     <!-- vero -->
     <g transform="translate(4180.923437 146.198438) scale(0.1 -0.1)">
      <defs>
       <path id="DejaVuSans-76" d="M 191 3500 
L 800 3500 
L 1894 563 
L 2988 3500 
L 3597 3500 
L 2284 0 
L 1503 0 
L 191 3500 
z
" transform="scale(0.015625)"/>
      </defs>
      <use xlink:href="#DejaVuSans-76"/>
      <use xlink:href="#DejaVuSans-65" x="59.179688"/>
      <use xlink:href="#DejaVuSans-72" x="120.703125"/>
      <use xlink:href="#DejaVuSans-6f" x="159.566406"/>
     </g>
    </g>
   </g>
  </g>
 </g>
 <defs>
  <clipPath id="pf0c7b70a84">
   <rect x="585" y="129.6" width="3627" height="831.6"/>
  </clipPath>
 </defs>
</svg>
