<?xml version="1.0" encoding="utf-8" standalone="no"?>
<!DOCTYPE svg PUBLIC "-//W3C//DTD SVG 1.1//EN"
  "http://www.w3.org/Graphics/SVG/1.1/DTD/svg11.dtd">
<svg xmlns:xlink="http://www.w3.org/1999/xlink" width="1800pt" height="360pt" viewBox="0 0 1800 360" xmlns="http://www.w3.org/2000/svg" version="1.1">
 <metadata>
  <rdf:RDF xmlns:dc="http://purl.org/dc/elements/1.1/" xmlns:cc="http://creativecommons.org/ns#" xmlns:rdf="http://www.w3.org/1999/02/22-rdf-syntax-ns#">
   <cc:Work>
    <dc:type rdf:resource="http://purl.org/dc/dcmitype/StillImage"/>
    <dc:date>2024-03-20T09:36:10.915675</dc:date>
    <dc:format>image/svg+xml</dc:format>
    <dc:creator>
     <cc:Agent>
      <dc:title>Matplotlib v3.7.2, https://matplotlib.org/</dc:title>
     </cc:Agent>
    </dc:creator>
   </cc:Work>
  </rdf:RDF>
 </metadata>
 <defs>
  <style type="text/css">*{stroke-linejoin: round; stroke-linecap: butt}</style>
 </defs>
 <g id="figure_1">
  <g id="patch_1">
   <path d="M 0 360 
L 1800 360 
L 1800 0 
L 0 0 
z
" style="fill: #ffffff"/>
  </g>
  <g id="axes_1">
   <g id="patch_2">
    <path d="M 225 320.4 
L 1620 320.4 
L 1620 43.2 
L 225 43.2 
z
" style="fill: #ffffff"/>
   </g>
   <g id="matplotlib.axis_1">
    <g id="xtick_1">
     <g id="line2d_1">
      <defs>
       <path id="m6a3813ee48" d="M 0 0 
L 0 3.5 
" style="stroke: #000000; stroke-width: 0.8"/>
      </defs>
      <g>
       <use xlink:href="#m6a3813ee48" x="281.924597" y="320.4" style="stroke: #000000; stroke-width: 0.8"/>
      </g>
     </g>
     <g id="text_1">
      <!-- 2011 -->
      <g transform="translate(262.837097 338.797656) scale(0.15 -0.15)">
       <defs>
        <path id="DejaVuSans-32" d="M 1228 531 
L 3431 531 
L 3431 0 
L 469 0 
L 469 531 
Q 828 903 1448 1529 
Q 2069 2156 2228 2338 
Q 2531 2678 2651 2914 
Q 2772 3150 2772 3378 
Q 2772 3750 2511 3984 
Q 2250 4219 1831 4219 
Q 1534 4219 1204 4116 
Q 875 4013 500 3803 
L 500 4441 
Q 881 4594 1212 4672 
Q 1544 4750 1819 4750 
Q 2544 4750 2975 4387 
Q 3406 4025 3406 3419 
Q 3406 3131 3298 2873 
Q 3191 2616 2906 2266 
Q 2828 2175 2409 1742 
Q 1991 1309 1228 531 
z
" transform="scale(0.015625)"/>
        <path id="DejaVuSans-30" d="M 2034 4250 
Q 1547 4250 1301 3770 
Q 1056 3291 1056 2328 
Q 1056 1369 1301 889 
Q 1547 409 2034 409 
Q 2525 409 2770 889 
Q 3016 1369 3016 2328 
Q 3016 3291 2770 3770 
Q 2525 4250 2034 4250 
z
M 2034 4750 
Q 2819 4750 3233 4129 
Q 3647 3509 3647 2328 
Q 3647 1150 3233 529 
Q 2819 -91 2034 -91 
Q 1250 -91 836 529 
Q 422 1150 422 2328 
Q 422 3509 836 4129 
Q 1250 4750 2034 4750 
z
" transform="scale(0.015625)"/>
        <path id="DejaVuSans-31" d="M 794 531 
L 1825 531 
L 1825 4091 
L 703 3866 
L 703 4441 
L 1819 4666 
L 2450 4666 
L 2450 531 
L 3481 531 
L 3481 0 
L 794 0 
L 794 531 
z
" transform="scale(0.015625)"/>
       </defs>
       <use xlink:href="#DejaVuSans-32"/>
       <use xlink:href="#DejaVuSans-30" x="63.623047"/>
       <use xlink:href="#DejaVuSans-31" x="127.246094"/>
       <use xlink:href="#DejaVuSans-31" x="190.869141"/>
      </g>
     </g>
    </g>
    <g id="xtick_2">
     <g id="line2d_2">
      <g>
       <use xlink:href="#m6a3813ee48" x="450.984627" y="320.4" style="stroke: #000000; stroke-width: 0.8"/>
      </g>
     </g>
     <g id="text_2">
      <!-- 2012 -->
      <g transform="translate(431.897127 338.797656) scale(0.15 -0.15)">
       <use xlink:href="#DejaVuSans-32"/>
       <use xlink:href="#DejaVuSans-30" x="63.623047"/>
       <use xlink:href="#DejaVuSans-31" x="127.246094"/>
       <use xlink:href="#DejaVuSans-32" x="190.869141"/>
      </g>
     </g>
    </g>
    <g id="xtick_3">
     <g id="line2d_3">
      <g>
       <use xlink:href="#m6a3813ee48" x="620.507836" y="320.4" style="stroke: #000000; stroke-width: 0.8"/>
      </g>
     </g>
     <g id="text_3">
      <!-- 2013 -->
      <g transform="translate(601.420336 338.797656) scale(0.15 -0.15)">
       <defs>
        <path id="DejaVuSans-33" d="M 2597 2516 
Q 3050 2419 3304 2112 
Q 3559 1806 3559 1356 
Q 3559 666 3084 287 
Q 2609 -91 1734 -91 
Q 1441 -91 1130 -33 
Q 819 25 488 141 
L 488 750 
Q 750 597 1062 519 
Q 1375 441 1716 441 
Q 2309 441 2620 675 
Q 2931 909 2931 1356 
Q 2931 1769 2642 2001 
Q 2353 2234 1838 2234 
L 1294 2234 
L 1294 2753 
L 1863 2753 
Q 2328 2753 2575 2939 
Q 2822 3125 2822 3475 
Q 2822 3834 2567 4026 
Q 2313 4219 1838 4219 
Q 1578 4219 1281 4162 
Q 984 4106 628 3988 
L 628 4550 
Q 988 4650 1302 4700 
Q 1616 4750 1894 4750 
Q 2613 4750 3031 4423 
Q 3450 4097 3450 3541 
Q 3450 3153 3228 2886 
Q 3006 2619 2597 2516 
z
" transform="scale(0.015625)"/>
       </defs>
       <use xlink:href="#DejaVuSans-32"/>
       <use xlink:href="#DejaVuSans-30" x="63.623047"/>
       <use xlink:href="#DejaVuSans-31" x="127.246094"/>
       <use xlink:href="#DejaVuSans-33" x="190.869141"/>
      </g>
     </g>
    </g>
    <g id="xtick_4">
     <g id="line2d_4">
      <g>
       <use xlink:href="#m6a3813ee48" x="789.567866" y="320.4" style="stroke: #000000; stroke-width: 0.8"/>
      </g>
     </g>
     <g id="text_4">
      <!-- 2014 -->
      <g transform="translate(770.480366 338.797656) scale(0.15 -0.15)">
       <defs>
        <path id="DejaVuSans-34" d="M 2419 4116 
L 825 1625 
L 2419 1625 
L 2419 4116 
z
M 2253 4666 
L 3047 4666 
L 3047 1625 
L 3713 1625 
L 3713 1100 
L 3047 1100 
L 3047 0 
L 2419 0 
L 2419 1100 
L 313 1100 
L 313 1709 
L 2253 4666 
z
" transform="scale(0.015625)"/>
       </defs>
       <use xlink:href="#DejaVuSans-32"/>
       <use xlink:href="#DejaVuSans-30" x="63.623047"/>
       <use xlink:href="#DejaVuSans-31" x="127.246094"/>
       <use xlink:href="#DejaVuSans-34" x="190.869141"/>
      </g>
     </g>
    </g>
    <g id="xtick_5">
     <g id="line2d_5">
      <g>
       <use xlink:href="#m6a3813ee48" x="958.627897" y="320.4" style="stroke: #000000; stroke-width: 0.8"/>
      </g>
     </g>
     <g id="text_5">
      <!-- 2015 -->
      <g transform="translate(939.540397 338.797656) scale(0.15 -0.15)">
       <defs>
        <path id="DejaVuSans-35" d="M 691 4666 
L 3169 4666 
L 3169 4134 
L 1269 4134 
L 1269 2991 
Q 1406 3038 1543 3061 
Q 1681 3084 1819 3084 
Q 2600 3084 3056 2656 
Q 3513 2228 3513 1497 
Q 3513 744 3044 326 
Q 2575 -91 1722 -91 
Q 1428 -91 1123 -41 
Q 819 9 494 109 
L 494 744 
Q 775 591 1075 516 
Q 1375 441 1709 441 
Q 2250 441 2565 725 
Q 2881 1009 2881 1497 
Q 2881 1984 2565 2268 
Q 2250 2553 1709 2553 
Q 1456 2553 1204 2497 
Q 953 2441 691 2322 
L 691 4666 
z
" transform="scale(0.015625)"/>
       </defs>
       <use xlink:href="#DejaVuSans-32"/>
       <use xlink:href="#DejaVuSans-30" x="63.623047"/>
       <use xlink:href="#DejaVuSans-31" x="127.246094"/>
       <use xlink:href="#DejaVuSans-35" x="190.869141"/>
      </g>
     </g>
    </g>
    <g id="xtick_6">
     <g id="line2d_6">
      <g>
       <use xlink:href="#m6a3813ee48" x="1127.687927" y="320.4" style="stroke: #000000; stroke-width: 0.8"/>
      </g>
     </g>
     <g id="text_6">
      <!-- 2016 -->
      <g transform="translate(1108.600427 338.797656) scale(0.15 -0.15)">
       <defs>
        <path id="DejaVuSans-36" d="M 2113 2584 
Q 1688 2584 1439 2293 
Q 1191 2003 1191 1497 
Q 1191 994 1439 701 
Q 1688 409 2113 409 
Q 2538 409 2786 701 
Q 3034 994 3034 1497 
Q 3034 2003 2786 2293 
Q 2538 2584 2113 2584 
z
M 3366 4563 
L 3366 3988 
Q 3128 4100 2886 4159 
Q 2644 4219 2406 4219 
Q 1781 4219 1451 3797 
Q 1122 3375 1075 2522 
Q 1259 2794 1537 2939 
Q 1816 3084 2150 3084 
Q 2853 3084 3261 2657 
Q 3669 2231 3669 1497 
Q 3669 778 3244 343 
Q 2819 -91 2113 -91 
Q 1303 -91 875 529 
Q 447 1150 447 2328 
Q 447 3434 972 4092 
Q 1497 4750 2381 4750 
Q 2619 4750 2861 4703 
Q 3103 4656 3366 4563 
z
" transform="scale(0.015625)"/>
       </defs>
       <use xlink:href="#DejaVuSans-32"/>
       <use xlink:href="#DejaVuSans-30" x="63.623047"/>
       <use xlink:href="#DejaVuSans-31" x="127.246094"/>
       <use xlink:href="#DejaVuSans-36" x="190.869141"/>
      </g>
     </g>
    </g>
    <g id="xtick_7">
     <g id="line2d_7">
      <g>
       <use xlink:href="#m6a3813ee48" x="1297.211136" y="320.4" style="stroke: #000000; stroke-width: 0.8"/>
      </g>
     </g>
     <g id="text_7">
      <!-- 2017 -->
      <g transform="translate(1278.123636 338.797656) scale(0.15 -0.15)">
       <defs>
        <path id="DejaVuSans-37" d="M 525 4666 
L 3525 4666 
L 3525 4397 
L 1831 0 
L 1172 0 
L 2766 4134 
L 525 4134 
L 525 4666 
z
" transform="scale(0.015625)"/>
       </defs>
       <use xlink:href="#DejaVuSans-32"/>
       <use xlink:href="#DejaVuSans-30" x="63.623047"/>
       <use xlink:href="#DejaVuSans-31" x="127.246094"/>
       <use xlink:href="#DejaVuSans-37" x="190.869141"/>
      </g>
     </g>
    </g>
    <g id="xtick_8">
     <g id="line2d_8">
      <g>
       <use xlink:href="#m6a3813ee48" x="1466.271167" y="320.4" style="stroke: #000000; stroke-width: 0.8"/>
      </g>
     </g>
     <g id="text_8">
      <!-- 2018 -->
      <g transform="translate(1447.183667 338.797656) scale(0.15 -0.15)">
       <defs>
        <path id="DejaVuSans-38" d="M 2034 2216 
Q 1584 2216 1326 1975 
Q 1069 1734 1069 1313 
Q 1069 891 1326 650 
Q 1584 409 2034 409 
Q 2484 409 2743 651 
Q 3003 894 3003 1313 
Q 3003 1734 2745 1975 
Q 2488 2216 2034 2216 
z
M 1403 2484 
Q 997 2584 770 2862 
Q 544 3141 544 3541 
Q 544 4100 942 4425 
Q 1341 4750 2034 4750 
Q 2731 4750 3128 4425 
Q 3525 4100 3525 3541 
Q 3525 3141 3298 2862 
Q 3072 2584 2669 2484 
Q 3125 2378 3379 2068 
Q 3634 1759 3634 1313 
Q 3634 634 3220 271 
Q 2806 -91 2034 -91 
Q 1263 -91 848 271 
Q 434 634 434 1313 
Q 434 1759 690 2068 
Q 947 2378 1403 2484 
z
M 1172 3481 
Q 1172 3119 1398 2916 
Q 1625 2713 2034 2713 
Q 2441 2713 2670 2916 
Q 2900 3119 2900 3481 
Q 2900 3844 2670 4047 
Q 2441 4250 2034 4250 
Q 1625 4250 1398 4047 
Q 1172 3844 1172 3481 
z
" transform="scale(0.015625)"/>
       </defs>
       <use xlink:href="#DejaVuSans-32"/>
       <use xlink:href="#DejaVuSans-30" x="63.623047"/>
       <use xlink:href="#DejaVuSans-31" x="127.246094"/>
       <use xlink:href="#DejaVuSans-38" x="190.869141"/>
      </g>
     </g>
    </g>
    <g id="text_9">
     <!-- Time -->
     <g transform="translate(904.149609 357.314844) scale(0.15 -0.15)">
      <defs>
       <path id="DejaVuSans-54" d="M -19 4666 
L 3928 4666 
L 3928 4134 
L 2272 4134 
L 2272 0 
L 1638 0 
L 1638 4134 
L -19 4134 
L -19 4666 
z
" transform="scale(0.015625)"/>
       <path id="DejaVuSans-69" d="M 603 3500 
L 1178 3500 
L 1178 0 
L 603 0 
L 603 3500 
z
M 603 4863 
L 1178 4863 
L 1178 4134 
L 603 4134 
L 603 4863 
z
" transform="scale(0.015625)"/>
       <path id="DejaVuSans-6d" d="M 3328 2828 
Q 3544 3216 3844 3400 
Q 4144 3584 4550 3584 
Q 5097 3584 5394 3201 
Q 5691 2819 5691 2113 
L 5691 0 
L 5113 0 
L 5113 2094 
Q 5113 2597 4934 2840 
Q 4756 3084 4391 3084 
Q 3944 3084 3684 2787 
Q 3425 2491 3425 1978 
L 3425 0 
L 2847 0 
L 2847 2094 
Q 2847 2600 2669 2842 
Q 2491 3084 2119 3084 
Q 1678 3084 1418 2786 
Q 1159 2488 1159 1978 
L 1159 0 
L 581 0 
L 581 3500 
L 1159 3500 
L 1159 2956 
Q 1356 3278 1631 3431 
Q 1906 3584 2284 3584 
Q 2666 3584 2933 3390 
Q 3200 3197 3328 2828 
z
" transform="scale(0.015625)"/>
       <path id="DejaVuSans-65" d="M 3597 1894 
L 3597 1613 
L 953 1613 
Q 991 1019 1311 708 
Q 1631 397 2203 397 
Q 2534 397 2845 478 
Q 3156 559 3463 722 
L 3463 178 
Q 3153 47 2828 -22 
Q 2503 -91 2169 -91 
Q 1331 -91 842 396 
Q 353 884 353 1716 
Q 353 2575 817 3079 
Q 1281 3584 2069 3584 
Q 2775 3584 3186 3129 
Q 3597 2675 3597 1894 
z
M 3022 2063 
Q 3016 2534 2758 2815 
Q 2500 3097 2075 3097 
Q 1594 3097 1305 2825 
Q 1016 2553 972 2059 
L 3022 2063 
z
" transform="scale(0.015625)"/>
      </defs>
      <use xlink:href="#DejaVuSans-54"/>
      <use xlink:href="#DejaVuSans-69" x="57.958984"/>
      <use xlink:href="#DejaVuSans-6d" x="85.742188"/>
      <use xlink:href="#DejaVuSans-65" x="183.154297"/>
     </g>
    </g>
   </g>
   <g id="matplotlib.axis_2">
    <g id="ytick_1">
     <g id="line2d_9">
      <defs>
       <path id="m4b132ef2c2" d="M 0 0 
L -3.5 0 
" style="stroke: #000000; stroke-width: 0.8"/>
      </defs>
      <g>
       <use xlink:href="#m4b132ef2c2" x="225" y="287.334135" style="stroke: #000000; stroke-width: 0.8"/>
      </g>
     </g>
     <g id="text_10">
      <!-- −0.002 -->
      <g transform="translate(162.488281 293.032963) scale(0.15 -0.15)">
       <defs>
        <path id="DejaVuSans-2212" d="M 678 2272 
L 4684 2272 
L 4684 1741 
L 678 1741 
L 678 2272 
z
" transform="scale(0.015625)"/>
        <path id="DejaVuSans-2e" d="M 684 794 
L 1344 794 
L 1344 0 
L 684 0 
L 684 794 
z
" transform="scale(0.015625)"/>
       </defs>
       <use xlink:href="#DejaVuSans-2212"/>
       <use xlink:href="#DejaVuSans-30" x="83.789062"/>
       <use xlink:href="#DejaVuSans-2e" x="147.412109"/>
       <use xlink:href="#DejaVuSans-30" x="179.199219"/>
       <use xlink:href="#DejaVuSans-30" x="242.822266"/>
       <use xlink:href="#DejaVuSans-32" x="306.445312"/>
      </g>
     </g>
    </g>
    <g id="ytick_2">
     <g id="line2d_10">
      <g>
       <use xlink:href="#m4b132ef2c2" x="225" y="228.914966" style="stroke: #000000; stroke-width: 0.8"/>
      </g>
     </g>
     <g id="text_11">
      <!-- −0.001 -->
      <g transform="translate(162.488281 234.613794) scale(0.15 -0.15)">
       <use xlink:href="#DejaVuSans-2212"/>
       <use xlink:href="#DejaVuSans-30" x="83.789062"/>
       <use xlink:href="#DejaVuSans-2e" x="147.412109"/>
       <use xlink:href="#DejaVuSans-30" x="179.199219"/>
       <use xlink:href="#DejaVuSans-30" x="242.822266"/>
       <use xlink:href="#DejaVuSans-31" x="306.445312"/>
      </g>
     </g>
    </g>
    <g id="ytick_3">
     <g id="line2d_11">
      <g>
       <use xlink:href="#m4b132ef2c2" x="225" y="170.495797" style="stroke: #000000; stroke-width: 0.8"/>
      </g>
     </g>
     <g id="text_12">
      <!-- 0.000 -->
      <g transform="translate(175.057813 176.194626) scale(0.15 -0.15)">
       <use xlink:href="#DejaVuSans-30"/>
       <use xlink:href="#DejaVuSans-2e" x="63.623047"/>
       <use xlink:href="#DejaVuSans-30" x="95.410156"/>
       <use xlink:href="#DejaVuSans-30" x="159.033203"/>
       <use xlink:href="#DejaVuSans-30" x="222.65625"/>
      </g>
     </g>
    </g>
    <g id="ytick_4">
     <g id="line2d_12">
      <g>
       <use xlink:href="#m4b132ef2c2" x="225" y="112.076629" style="stroke: #000000; stroke-width: 0.8"/>
      </g>
     </g>
     <g id="text_13">
      <!-- 0.001 -->
      <g transform="translate(175.057813 117.775457) scale(0.15 -0.15)">
       <use xlink:href="#DejaVuSans-30"/>
       <use xlink:href="#DejaVuSans-2e" x="63.623047"/>
       <use xlink:href="#DejaVuSans-30" x="95.410156"/>
       <use xlink:href="#DejaVuSans-30" x="159.033203"/>
       <use xlink:href="#DejaVuSans-31" x="222.65625"/>
      </g>
     </g>
    </g>
    <g id="ytick_5">
     <g id="line2d_13">
      <g>
       <use xlink:href="#m4b132ef2c2" x="225" y="53.65746" style="stroke: #000000; stroke-width: 0.8"/>
      </g>
     </g>
     <g id="text_14">
      <!-- 0.002 -->
      <g transform="translate(175.057813 59.356288) scale(0.15 -0.15)">
       <use xlink:href="#DejaVuSans-30"/>
       <use xlink:href="#DejaVuSans-2e" x="63.623047"/>
       <use xlink:href="#DejaVuSans-30" x="95.410156"/>
       <use xlink:href="#DejaVuSans-30" x="159.033203"/>
       <use xlink:href="#DejaVuSans-32" x="222.65625"/>
      </g>
     </g>
    </g>
    <g id="text_15">
     <!-- East(m) -->
     <g transform="translate(155.36875 211.140234) rotate(-90) scale(0.15 -0.15)">
      <defs>
       <path id="DejaVuSans-45" d="M 628 4666 
L 3578 4666 
L 3578 4134 
L 1259 4134 
L 1259 2753 
L 3481 2753 
L 3481 2222 
L 1259 2222 
L 1259 531 
L 3634 531 
L 3634 0 
L 628 0 
L 628 4666 
z
" transform="scale(0.015625)"/>
       <path id="DejaVuSans-61" d="M 2194 1759 
Q 1497 1759 1228 1600 
Q 959 1441 959 1056 
Q 959 750 1161 570 
Q 1363 391 1709 391 
Q 2188 391 2477 730 
Q 2766 1069 2766 1631 
L 2766 1759 
L 2194 1759 
z
M 3341 1997 
L 3341 0 
L 2766 0 
L 2766 531 
Q 2569 213 2275 61 
Q 1981 -91 1556 -91 
Q 1019 -91 701 211 
Q 384 513 384 1019 
Q 384 1609 779 1909 
Q 1175 2209 1959 2209 
L 2766 2209 
L 2766 2266 
Q 2766 2663 2505 2880 
Q 2244 3097 1772 3097 
Q 1472 3097 1187 3025 
Q 903 2953 641 2809 
L 641 3341 
Q 956 3463 1253 3523 
Q 1550 3584 1831 3584 
Q 2591 3584 2966 3190 
Q 3341 2797 3341 1997 
z
" transform="scale(0.015625)"/>
       <path id="DejaVuSans-73" d="M 2834 3397 
L 2834 2853 
Q 2591 2978 2328 3040 
Q 2066 3103 1784 3103 
Q 1356 3103 1142 2972 
Q 928 2841 928 2578 
Q 928 2378 1081 2264 
Q 1234 2150 1697 2047 
L 1894 2003 
Q 2506 1872 2764 1633 
Q 3022 1394 3022 966 
Q 3022 478 2636 193 
Q 2250 -91 1575 -91 
Q 1294 -91 989 -36 
Q 684 19 347 128 
L 347 722 
Q 666 556 975 473 
Q 1284 391 1588 391 
Q 1994 391 2212 530 
Q 2431 669 2431 922 
Q 2431 1156 2273 1281 
Q 2116 1406 1581 1522 
L 1381 1569 
Q 847 1681 609 1914 
Q 372 2147 372 2553 
Q 372 3047 722 3315 
Q 1072 3584 1716 3584 
Q 2034 3584 2315 3537 
Q 2597 3491 2834 3397 
z
" transform="scale(0.015625)"/>
       <path id="DejaVuSans-74" d="M 1172 4494 
L 1172 3500 
L 2356 3500 
L 2356 3053 
L 1172 3053 
L 1172 1153 
Q 1172 725 1289 603 
Q 1406 481 1766 481 
L 2356 481 
L 2356 0 
L 1766 0 
Q 1100 0 847 248 
Q 594 497 594 1153 
L 594 3053 
L 172 3053 
L 172 3500 
L 594 3500 
L 594 4494 
L 1172 4494 
z
" transform="scale(0.015625)"/>
       <path id="DejaVuSans-28" d="M 1984 4856 
Q 1566 4138 1362 3434 
Q 1159 2731 1159 2009 
Q 1159 1288 1364 580 
Q 1569 -128 1984 -844 
L 1484 -844 
Q 1016 -109 783 600 
Q 550 1309 550 2009 
Q 550 2706 781 3412 
Q 1013 4119 1484 4856 
L 1984 4856 
z
" transform="scale(0.015625)"/>
       <path id="DejaVuSans-29" d="M 513 4856 
L 1013 4856 
Q 1481 4119 1714 3412 
Q 1947 2706 1947 2009 
Q 1947 1309 1714 600 
Q 1481 -109 1013 -844 
L 513 -844 
Q 928 -128 1133 580 
Q 1338 1288 1338 2009 
Q 1338 2731 1133 3434 
Q 928 4138 513 4856 
z
" transform="scale(0.015625)"/>
      </defs>
      <use xlink:href="#DejaVuSans-45"/>
      <use xlink:href="#DejaVuSans-61" x="63.183594"/>
      <use xlink:href="#DejaVuSans-73" x="124.462891"/>
      <use xlink:href="#DejaVuSans-74" x="176.5625"/>
      <use xlink:href="#DejaVuSans-28" x="215.771484"/>
      <use xlink:href="#DejaVuSans-6d" x="254.785156"/>
      <use xlink:href="#DejaVuSans-29" x="352.197266"/>
     </g>
    </g>
   </g>
   <g id="line2d_14">
    <path d="M 288.409091 122.168322 
L 288.872269 113.921275 
L 289.335447 142.205682 
L 289.798625 133.690881 
L 290.261804 128.367713 
L 291.18816 151.218096 
L 291.651338 158.033251 
L 292.114516 162.561712 
L 292.577694 152.218323 
L 293.040873 158.849875 
L 293.504051 167.609554 
L 293.967229 162.432088 
L 294.430407 151.905095 
L 294.893585 152.168958 
L 296.28312 190.140174 
L 296.746298 189.945028 
L 297.209476 194.75724 
L 297.672654 203.675486 
L 298.135832 199.607984 
L 298.599011 196.600373 
L 299.062189 189.311472 
L 299.525367 186.120258 
L 299.988545 189.747395 
L 300.451723 177.284224 
L 300.914901 173.166649 
L 301.37808 179.113862 
L 301.841258 176.598641 
L 302.304436 193.002886 
L 302.767614 199.450835 
L 303.230792 188.75693 
L 303.69397 193.877929 
L 304.157149 192.339143 
L 304.620327 186.510721 
L 306.009861 146.425581 
L 306.473039 144.561317 
L 307.399396 116.280046 
L 307.862574 109.05791 
L 308.325752 106.300666 
L 308.78893 90.624441 
L 309.252108 79.496566 
L 309.715287 79.651936 
L 310.178465 87.159775 
L 310.641643 103.555674 
L 311.567999 149.833954 
L 312.031177 160.688377 
L 312.957534 189.858186 
L 313.420712 210.81078 
L 313.88389 206.509602 
L 314.810246 181.750172 
L 315.273425 180.361607 
L 315.736603 153.45221 
L 316.199781 140.471613 
L 316.662959 131.279915 
L 317.126137 132.862382 
L 317.589315 141.271546 
L 318.052494 142.520188 
L 318.515672 137.017244 
L 318.97885 165.389073 
L 319.442028 164.058927 
L 319.905206 166.751357 
L 320.368384 176.387324 
L 320.831563 168.105296 
L 321.294741 169.829638 
L 321.757919 184.815131 
L 322.221097 175.848765 
L 322.684275 175.945716 
L 323.147453 166.336739 
L 323.610632 134.56186 
L 324.07381 116.99953 
L 324.536988 106.096986 
L 325.000166 90.228812 
L 325.463344 88.47304 
L 325.926522 96.239593 
L 326.389701 110.248652 
L 326.852879 149.695085 
L 327.779235 202.407819 
L 328.242413 217.126253 
L 328.705591 221.070524 
L 329.16877 233.760978 
L 329.631948 228.182924 
L 330.095126 217.038357 
L 330.558304 214.973798 
L 331.021482 198.05408 
L 331.48466 189.279662 
L 331.947839 183.993704 
L 333.800551 121.505789 
L 334.263729 114.675895 
L 334.726907 118.386489 
L 335.190086 135.500109 
L 335.653264 127.193045 
L 336.57962 145.488543 
L 337.042798 136.046477 
L 337.505976 138.112989 
L 337.969155 129.11324 
L 338.432333 109.648115 
L 338.895511 111.881538 
L 339.358689 100.09436 
L 339.821867 98.43039 
L 340.285045 105.896502 
L 340.748224 104.057274 
L 341.211402 108.176802 
L 341.67458 103.33316 
L 342.137758 106.042282 
L 342.600936 128.305134 
L 343.064114 127.442341 
L 343.527293 129.141646 
L 343.990471 134.796763 
L 344.453649 130.003195 
L 344.916827 139.998022 
L 346.306362 119.424885 
L 346.76954 108.572414 
L 347.232718 92.228542 
L 347.695896 83.362323 
L 348.159074 82.08225 
L 348.622252 87.795786 
L 349.085431 85.789647 
L 349.548609 86.237112 
L 350.474965 92.030908 
L 350.938143 103.235846 
L 351.401321 105.727983 
L 351.8645 99.081692 
L 352.327678 100.146732 
L 352.790856 105.451334 
L 353.254034 118.02495 
L 353.717212 122.31139 
L 354.18039 131.08776 
L 354.643569 129.907834 
L 355.106747 141.621854 
L 355.569925 149.304951 
L 356.496281 135.937259 
L 356.959459 125.46034 
L 357.422638 129.788508 
L 357.885816 127.999354 
L 358.348994 135.682451 
L 358.812172 125.647848 
L 359.27535 134.833153 
L 359.738528 138.184885 
L 360.201707 151.250892 
L 360.664885 154.40233 
L 361.128063 161.351015 
L 361.591241 158.493624 
L 362.054419 163.330873 
L 362.517597 161.541719 
L 362.980776 172.145775 
L 363.443954 190.694837 
L 363.907132 179.132991 
L 364.37031 189.803811 
L 364.833488 204.013164 
L 365.296666 195.956467 
L 365.759845 185.028886 
L 366.223023 179.167082 
L 366.686201 165.159976 
L 367.149379 165.690897 
L 368.538914 106.819822 
L 369.002092 118.408658 
L 369.46527 120.975905 
L 369.928448 116.900058 
L 370.391626 117.389251 
L 370.854804 115.065979 
L 371.317983 108.236085 
L 371.781161 145.02862 
L 372.244339 141.854097 
L 372.707517 150.238224 
L 373.170695 156.394077 
L 373.633873 149.230359 
L 374.097052 174.038618 
L 374.56023 192.696173 
L 375.023408 197.358165 
L 375.486586 205.133063 
L 375.949764 194.998314 
L 376.412942 191.156143 
L 376.876121 212.751348 
L 377.339299 197.375564 
L 377.802477 197.797993 
L 378.265655 189.040267 
L 378.728833 191.782771 
L 379.192011 207.55275 
L 379.65519 217.756217 
L 380.118368 202.171794 
L 380.581546 206.76702 
L 381.507902 194.033594 
L 382.897437 181.947928 
L 383.360615 191.909372 
L 383.823793 198.641071 
L 384.286971 202.209789 
L 384.750149 202.415233 
L 385.213328 197.179348 
L 385.676506 187.077981 
L 386.139684 168.30554 
L 386.602862 163.804067 
L 387.06604 152.884832 
L 387.529218 149.009279 
L 387.992397 152.778291 
L 388.455575 168.156028 
L 388.918753 175.63883 
L 389.381931 188.295902 
L 389.845109 186.665314 
L 390.308287 173.392621 
L 390.771466 172.571556 
L 391.234644 164.87372 
L 391.697822 139.60006 
L 392.161 134.497705 
L 392.624178 116.326147 
L 393.087356 118.584607 
L 393.550535 127.294212 
L 394.476891 110.095892 
L 394.940069 115.375458 
L 395.403247 107.143504 
L 396.329604 126.574358 
L 396.792782 121.060227 
L 397.25596 126.320261 
L 397.719138 141.077582 
L 398.182316 143.516803 
L 398.645494 141.424367 
L 399.108673 137.85476 
L 399.571851 119.850114 
L 400.035029 117.009415 
L 400.498207 111.898714 
L 400.961385 94.745318 
L 401.424563 102.520217 
L 402.35092 138.934003 
L 402.814098 164.969064 
L 403.277276 168.562819 
L 403.740454 168.083924 
L 404.203632 169.015434 
L 404.666811 172.484005 
L 405.593167 152.322999 
L 406.056345 126.590331 
L 406.519523 125.794303 
L 406.982701 126.54221 
L 407.44588 135.760897 
L 407.909058 127.91284 
L 408.835414 148.887274 
L 409.298592 173.503585 
L 410.224949 193.317981 
L 410.688127 192.488571 
L 411.151305 197.501077 
L 411.614483 192.949531 
L 412.077661 175.8629 
L 412.540839 165.327562 
L 413.004018 157.946859 
L 413.467196 155.03105 
L 413.930374 165.409774 
L 414.393552 168.602941 
L 414.85673 158.10933 
L 415.319908 168.521437 
L 415.783087 174.894276 
L 416.246265 176.192992 
L 416.709443 176.573693 
L 417.172621 169.618615 
L 417.635799 169.657147 
L 418.098977 179.351532 
L 418.562156 178.14657 
L 419.488512 160.689536 
L 419.95169 142.943604 
L 420.414868 118.229099 
L 420.878046 112.509169 
L 421.804403 94.735003 
L 422.267581 94.481439 
L 422.730759 96.272545 
L 423.193937 109.789214 
L 423.657115 131.901845 
L 424.120294 126.482357 
L 424.583472 124.5096 
L 425.04665 121.485298 
L 425.509828 116.658347 
L 425.973006 115.970812 
L 426.436184 105.552312 
L 426.899363 102.52801 
L 427.362541 105.545919 
L 427.825719 107.620776 
L 428.752075 127.234878 
L 429.215253 128.400064 
L 429.678432 140.965335 
L 430.14161 138.124636 
L 430.604788 146.316814 
L 431.067966 161.494256 
L 431.531144 167.95055 
L 431.994322 168.665075 
L 432.4575 163.053638 
L 432.920679 169.985632 
L 433.847035 142.171714 
L 434.310213 129.391411 
L 435.236569 120.947621 
L 435.699748 124.265971 
L 436.162926 107.713458 
L 436.626104 123.30818 
L 437.089282 128.195502 
L 437.55246 129.385726 
L 438.015638 124.141496 
L 438.478817 125.807418 
L 439.405173 130.190808 
L 439.868351 117.293667 
L 440.331529 110.121603 
L 441.257886 84.777982 
L 441.721064 87.336884 
L 442.184242 79.605666 
L 442.64742 81.30497 
L 443.110598 91.775496 
L 444.036955 118.157876 
L 444.500133 124.922958 
L 444.963311 119.603617 
L 445.426489 126.101639 
L 445.889667 116.509353 
L 446.352845 123.708406 
L 446.816024 117.41263 
L 447.279202 114.880718 
L 448.205558 123.795767 
L 448.668736 124.98599 
L 449.131914 140.922881 
L 449.595093 149.766016 
L 450.058271 147.092229 
L 450.984627 168.517325 
L 451.447805 170.875932 
L 452.374162 187.519002 
L 452.83734 186.681246 
L 453.300518 205.213617 
L 453.763696 211.01061 
L 454.226874 198.322108 
L 454.690052 193.303209 
L 455.153231 185.672138 
L 455.616409 189.282584 
L 456.079587 196.882225 
L 456.542765 199.783296 
L 457.005943 204.219956 
L 457.9323 227.706414 
L 458.395478 219.382659 
L 459.785012 199.271726 
L 460.24819 180.107042 
L 460.711369 171.098948 
L 461.174547 168.950934 
L 461.637725 159.650744 
L 462.100903 167.584208 
L 462.564081 153.952654 
L 463.027259 146.48015 
L 463.490438 144.140187 
L 463.953616 140.523347 
L 464.416794 133.609997 
L 464.879972 134.224375 
L 465.34315 136.608019 
L 465.806328 144.691704 
L 466.269507 135.775412 
L 466.732685 147.464394 
L 467.195863 145.725314 
L 467.659041 144.820793 
L 468.585397 130.37652 
L 469.511754 142.896866 
L 469.974932 148.618748 
L 470.43811 157.345044 
L 470.901288 170.895095 
L 471.827645 212.107598 
L 472.290823 221.276211 
L 472.754001 235.168431 
L 473.217179 230.800488 
L 473.680357 232.216043 
L 474.143535 216.21434 
L 474.606714 212.255331 
L 475.069892 197.956129 
L 475.53307 197.886168 
L 475.996248 202.965439 
L 476.459426 211.332875 
L 476.922604 208.742543 
L 477.385783 220.581747 
L 477.848961 223.975208 
L 478.312139 242.86644 
L 480.164852 216.189476 
L 480.62803 220.175474 
L 481.091208 219.145769 
L 482.017564 187.668135 
L 482.943921 162.516463 
L 483.407099 174.906475 
L 484.333455 185.048326 
L 484.796633 184.819799 
L 485.259811 214.460158 
L 485.72299 218.746597 
L 486.186168 225.444914 
L 486.649346 222.579178 
L 487.575702 197.778021 
L 488.03888 186.658491 
L 488.502059 168.678881 
L 488.965237 165.888256 
L 489.428415 160.435386 
L 489.891593 151.660968 
L 490.354771 152.642552 
L 491.281128 163.129769 
L 491.744306 182.772104 
L 492.207484 194.168991 
L 492.670662 196.803003 
L 493.597018 212.669933 
L 494.060197 211.498353 
L 494.986553 178.768879 
L 495.449731 155.356287 
L 495.912909 144.645692 
L 496.376087 150.300809 
L 496.839266 147.927463 
L 497.302444 151.462799 
L 497.765622 159.221006 
L 498.2288 163.34888 
L 498.691978 176.106099 
L 499.618335 190.395711 
L 500.081513 180.803425 
L 500.544691 174.916584 
L 501.471047 171.830666 
L 501.934225 174.15589 
L 502.397404 167.050592 
L 502.860582 144.722927 
L 503.786938 130.829463 
L 504.250116 136.968625 
L 504.713294 140.387123 
L 505.639651 123.0052 
L 506.102829 112.853759 
L 506.566007 117.382221 
L 507.029185 120.174799 
L 507.492363 117.016967 
L 507.955542 108.73494 
L 508.41872 103.056738 
L 508.881898 109.279356 
L 509.345076 113.490685 
L 509.808254 115.807564 
L 510.271432 114.068484 
L 510.734611 99.301929 
L 511.197789 97.145568 
L 511.660967 103.944032 
L 512.124145 116.11706 
L 512.587323 112.792316 
L 513.050501 113.615333 
L 513.976858 142.793488 
L 514.440036 150.092688 
L 514.903214 145.900002 
L 515.366392 144.152576 
L 515.82957 157.577443 
L 516.755927 158.83159 
L 517.682283 131.295741 
L 518.145461 134.861618 
L 518.608639 119.983729 
L 519.071818 109.670881 
L 519.534996 102.295682 
L 519.998174 87.821223 
L 520.461352 85.831775 
L 520.92453 87.522734 
L 521.387708 83.029607 
L 521.850887 85.905641 
L 522.314065 72.908352 
L 522.777243 89.429435 
L 523.240421 100.951506 
L 524.166777 113.605381 
L 524.629956 111.449021 
L 525.556312 143.222656 
L 526.01949 133.054524 
L 526.482668 132.892761 
L 526.945846 139.966629 
L 527.872203 158.170326 
L 528.335381 155.913818 
L 528.798559 156.703454 
L 529.261737 154.196578 
L 529.724915 160.268975 
L 530.188093 157.770446 
L 530.651272 145.132017 
L 531.11445 123.655604 
L 531.577628 123.243473 
L 532.040806 127.78028 
L 533.430341 158.382335 
L 533.893519 164.00407 
L 534.356697 187.310122 
L 534.819875 183.367804 
L 535.283053 178.098537 
L 535.746231 171.402173 
L 536.20941 146.086785 
L 536.672588 139.882811 
L 537.135766 145.529582 
L 537.598944 134.476817 
L 538.062122 151.440217 
L 538.988479 173.699872 
L 539.451657 194.744268 
L 540.378013 184.339263 
L 540.841191 184.811765 
L 541.767548 196.989942 
L 542.693904 197.709971 
L 543.157082 193.915033 
L 543.62026 197.180468 
L 544.083438 215.943675 
L 544.546617 226.327904 
L 545.009795 223.626239 
L 545.472973 219.656043 
L 545.936151 228.699472 
L 546.399329 231.767455 
L 546.862507 253.771594 
L 547.325686 261.705059 
L 547.788864 260.024398 
L 548.252042 257.826309 
L 548.71522 251.029798 
L 549.178398 239.284349 
L 549.641576 251.557523 
L 550.104755 231.491515 
L 550.567933 204.098074 
L 551.031111 219.075221 
L 551.494289 207.496684 
L 551.957467 203.9633 
L 552.420645 198.435319 
L 552.883824 185.721781 
L 553.347002 186.402923 
L 553.81018 193.66874 
L 554.273358 175.455454 
L 555.662893 188.54845 
L 556.126071 186.876134 
L 556.589249 177.400686 
L 557.052427 176.529548 
L 557.515605 185.856727 
L 557.978783 187.697907 
L 558.441962 181.577389 
L 558.90514 185.938939 
L 559.368318 182.388864 
L 559.831496 194.536855 
L 560.294674 192.897922 
L 560.757852 182.504459 
L 561.221031 193.909691 
L 561.684209 201.258964 
L 562.147387 193.16054 
L 562.610565 201.686542 
L 563.536921 164.625705 
L 564.0001 152.813491 
L 564.463278 151.600183 
L 564.926456 140.405543 
L 565.389634 146.578087 
L 565.852812 144.4718 
L 566.779169 195.273393 
L 567.242347 207.496494 
L 567.705525 215.221319 
L 568.168703 233.002586 
L 568.631881 233.708765 
L 569.095059 248.627494 
L 569.558238 249.609077 
L 570.021416 251.800772 
L 570.484594 266.744538 
L 571.41095 243.412205 
L 571.874128 238.393305 
L 572.337307 206.710228 
L 572.800485 200.431144 
L 573.726841 180.086534 
L 574.190019 183.521723 
L 574.653197 182.433599 
L 575.116376 184.324853 
L 575.579554 190.872949 
L 576.042732 175.922791 
L 576.50591 180.901915 
L 577.432266 146.67858 
L 577.895445 154.995942 
L 578.358623 134.796404 
L 579.284979 154.752676 
L 579.748157 149.433335 
L 580.211335 175.259756 
L 580.674514 179.504468 
L 581.137692 179.092337 
L 581.60087 205.719936 
L 582.064048 205.733431 
L 582.527226 205.304609 
L 582.990404 197.690229 
L 583.453583 193.706184 
L 583.916761 197.099644 
L 584.379939 198.732185 
L 585.306295 174.289888 
L 585.769473 174.754045 
L 586.232652 166.663966 
L 586.69583 160.610213 
L 587.159008 162.41801 
L 587.622186 161.071173 
L 588.548542 198.544849 
L 589.011721 207.529859 
L 589.938077 263.664287 
L 590.401255 262.075428 
L 590.864433 265.627455 
L 591.327611 247.881522 
L 591.79079 237.838574 
L 592.253968 223.030291 
L 593.180324 164.796678 
L 593.643502 191.249019 
L 594.10668 196.678805 
L 594.569859 200.305943 
L 595.033037 206.603671 
L 595.496215 207.785549 
L 595.959393 215.894271 
L 596.422571 212.577873 
L 597.812106 167.480227 
L 598.275284 158.639045 
L 598.738462 153.494962 
L 599.20164 156.062209 
L 599.664818 157.828278 
L 600.127997 149.713163 
L 601.054353 128.9012 
L 601.517531 120.327077 
L 601.980709 106.812361 
L 602.443887 107.318246 
L 602.907066 106.780931 
L 603.370244 115.365353 
L 603.833422 114.928185 
L 604.2966 125.966212 
L 605.222956 134.091625 
L 605.686135 134.280377 
L 606.149313 131.81523 
L 607.538847 201.107466 
L 608.002025 206.328612 
L 608.465204 198.60574 
L 608.928382 202.015892 
L 609.39156 202.713725 
L 609.854738 176.972712 
L 610.781094 140.120514 
L 611.244273 126.330394 
L 611.707451 122.621753 
L 612.170629 123.044182 
L 612.633807 123.157824 
L 613.096985 107.072665 
L 613.560163 95.126921 
L 614.023342 92.186075 
L 614.48652 99.026266 
L 614.949698 99.941085 
L 615.412876 97.275644 
L 615.876054 82.52578 
L 616.339232 82.856407 
L 616.802411 92.667631 
L 617.265589 91.329139 
L 617.728767 93.337231 
L 618.191945 99.826908 
L 618.655123 112.158502 
L 619.118301 118.998693 
L 619.58148 128.092196 
L 620.044658 120.920133 
L 620.507836 123.086791 
L 620.971014 113.002115 
L 621.89737 126.599043 
L 622.360549 138.613504 
L 624.676439 219.599872 
L 625.139618 212.669831 
L 625.602796 199.196843 
L 626.065974 190.83136 
L 626.529152 190.102096 
L 626.99233 177.446977 
L 627.918686 143.791143 
L 628.381865 143.303902 
L 628.845043 155.460238 
L 630.234577 181.135906 
L 630.697755 194.207416 
L 631.160934 214.748235 
L 631.624112 216.236059 
L 632.550468 221.907334 
L 633.013646 225.23403 
L 633.476824 221.266676 
L 633.940003 227.764698 
L 634.403181 230.206761 
L 634.866359 246.861373 
L 635.329537 270.142388 
L 635.792715 285.820566 
L 636.255893 277.4217 
L 636.719072 278.520122 
L 637.18225 274.970047 
L 637.645428 272.980599 
L 638.108606 263.914086 
L 638.571784 228.834351 
L 639.498141 188.577151 
L 640.424497 160.103931 
L 640.887675 151.471389 
L 641.350853 130.938027 
L 641.814031 136.284357 
L 642.27721 145.811831 
L 642.740388 161.665266 
L 643.203566 171.418071 
L 643.666744 175.370686 
L 644.129922 169.684139 
L 644.5931 184.853235 
L 645.056279 187.445519 
L 645.519457 174.598451 
L 645.982635 168.853485 
L 646.908991 178.41949 
L 647.372169 180.227287 
L 647.835348 175.650705 
L 648.298526 174.161992 
L 648.761704 175.001701 
L 649.224882 181.908657 
L 649.68806 168.894677 
L 650.151238 137.186563 
L 650.614417 146.380213 
L 651.077595 134.142373 
L 651.540773 149.887315 
L 652.003951 148.757464 
L 652.467129 125.970791 
L 652.930307 126.693661 
L 653.393486 148.822984 
L 653.856664 136.38485 
L 654.319842 139.260884 
L 654.78302 115.080497 
L 655.246198 114.735131 
L 655.709376 125.531136 
L 656.172555 125.110659 
L 656.635733 130.941034 
L 657.098911 127.566217 
L 657.562089 125.159489 
L 658.025267 142.406638 
L 658.488445 134.909097 
L 659.414802 159.23846 
L 659.87798 158.951514 
L 660.341158 190.928639 
L 660.804336 212.073182 
L 661.267514 208.831894 
L 661.730693 230.5189 
L 662.193871 223.956066 
L 662.657049 215.573891 
L 663.120227 215.053268 
L 663.583405 192.483581 
L 664.046583 189.250639 
L 664.509762 181.853245 
L 664.97294 171.276179 
L 665.436118 170.713827 
L 665.899296 167.998312 
L 666.362474 155.326501 
L 666.825652 163.6689 
L 667.288831 139.413403 
L 668.215187 121.939679 
L 668.678365 109.443126 
L 669.141543 105.575918 
L 669.604721 114.694458 
L 670.0679 103.007427 
L 670.531078 135.460252 
L 671.457434 149.916776 
L 671.920612 164.343114 
L 672.846969 170.328859 
L 673.310147 180.039935 
L 673.773325 174.954271 
L 674.236503 180.70119 
L 674.699681 178.110859 
L 675.162859 171.047288 
L 675.626038 188.127526 
L 676.089216 196.11941 
L 676.552394 199.212429 
L 677.015572 199.793424 
L 677.47875 205.882513 
L 677.941928 205.962772 
L 678.405107 204.298802 
L 678.868285 191.777212 
L 679.331463 186.916879 
L 680.257819 151.291484 
L 680.720997 133.804265 
L 681.184176 159.004767 
L 681.647354 176.218534 
L 682.110532 177.65078 
L 682.57371 182.312771 
L 683.036888 181.833876 
L 683.500066 166.791916 
L 683.963245 171.503981 
L 684.889601 140.752414 
L 685.352779 133.647115 
L 685.815957 129.020459 
L 686.742314 203.465124 
L 687.205492 210.455536 
L 687.66867 214.358078 
L 688.131848 222.333271 
L 689.058204 250.117711 
L 689.521383 236.194061 
L 689.984561 212.881616 
L 690.447739 214.973164 
L 690.910917 218.909089 
L 691.374095 208.549008 
L 691.837273 202.528637 
L 692.300452 183.055166 
L 692.76363 169.623907 
L 693.226808 166.240744 
L 693.689986 177.612594 
L 694.153164 182.074291 
L 694.616342 195.382319 
L 695.079521 196.605925 
L 695.542699 195.70975 
L 696.005877 215.694255 
L 696.469055 217.026354 
L 696.932233 205.606382 
L 697.395411 206.571275 
L 697.85859 209.25536 
L 698.321768 217.973311 
L 698.784946 223.820377 
L 699.248124 201.851573 
L 699.711302 225.124242 
L 700.17448 213.428866 
L 700.637659 217.948983 
L 701.100837 189.011606 
L 701.564015 190.48558 
L 702.027193 201.00618 
L 702.490371 214.923437 
L 702.953549 197.327725 
L 703.416728 213.439873 
L 703.879906 216.457782 
L 704.343084 241.524755 
L 705.26944 237.328873 
L 706.195797 243.751785 
L 706.658975 246.0937 
L 707.122153 256.046799 
L 707.585331 245.98716 
L 708.511687 245.580178 
L 708.974866 251.886252 
L 709.438044 250.05537 
L 709.901222 257.546518 
L 710.3644 253.403906 
L 710.827578 252.324128 
L 711.290756 262.227153 
L 711.753935 275.209704 
L 712.217113 278.945334 
L 712.680291 295.841968 
L 713.143469 301.2801 
L 713.606647 292.038329 
L 714.069825 298.152454 
L 714.533004 298.18264 
L 714.996182 290.952158 
L 715.922538 252.956614 
L 716.385716 255.148309 
L 716.848894 261.637986 
L 717.312073 258.154676 
L 717.775251 261.231004 
L 718.238429 253.074161 
L 718.701607 254.848576 
L 719.164785 246.775188 
L 719.627963 244.335078 
L 720.091142 257.651452 
L 720.55432 253.650715 
L 721.017498 239.535116 
L 721.480676 228.832866 
L 721.943854 232.793828 
L 722.407032 240.885859 
L 722.870211 232.353464 
L 723.333389 206.203516 
L 723.796567 195.184134 
L 724.259745 194.646819 
L 724.722923 218.203239 
L 725.186101 208.761174 
L 725.64928 190.689763 
L 726.112458 181.055749 
L 726.575636 183.347591 
L 727.501992 204.522319 
L 727.96517 181.668882 
L 728.428348 186.948448 
L 729.354705 220.649915 
L 729.817883 220.546571 
L 730.281061 218.757417 
L 730.744239 208.522521 
L 731.207417 208.778038 
L 731.670596 208.4744 
L 732.133774 209.8983 
L 732.596952 205.004584 
L 733.523308 193.951819 
L 734.912843 167.878935 
L 735.376021 164.470735 
L 736.302377 132.776116 
L 737.228734 140.400794 
L 737.691912 146.673485 
L 738.15509 148.815106 
L 738.618268 152.150148 
L 739.081446 143.200473 
L 739.544624 146.134926 
L 740.007803 147.266731 
L 740.470981 154.14865 
L 740.934159 162.766454 
L 741.397337 165.592414 
L 742.323693 185.431848 
L 742.786872 189.526338 
L 743.25005 212.83239 
L 743.713228 217.561146 
L 744.176406 196.343446 
L 744.639584 200.154187 
L 745.102762 193.49955 
L 745.565941 184.524839 
L 746.029119 170.818174 
L 746.492297 136.547962 
L 746.955475 115.430409 
L 747.418653 115.569088 
L 748.34501 99.430658 
L 748.808188 91.983191 
L 750.197722 119.263698 
L 750.6609 121.730798 
L 751.124079 121.994661 
L 751.587257 129.953162 
L 752.050435 139.998063 
L 752.513613 137.749901 
L 753.439969 170.21622 
L 753.903148 175.787881 
L 754.829504 176.632739 
L 755.292682 175.035534 
L 756.219038 151.644782 
L 756.682217 128.72458 
L 757.145395 122.01987 
L 757.608573 105.433975 
L 758.071751 103.803388 
L 758.534929 109.10799 
L 758.998107 112.860311 
L 759.461286 114.008807 
L 759.924464 114.606493 
L 760.85082 139.311409 
L 761.313998 142.971929 
L 761.777176 137.210271 
L 762.240355 155.108377 
L 762.703533 162.791474 
L 763.166711 163.130447 
L 763.629889 153.80522 
L 764.093067 161.972362 
L 764.556245 150.844486 
L 765.019424 153.43677 
L 765.482602 137.777236 
L 765.94578 133.759808 
L 766.408958 156.757073 
L 766.872136 164.72392 
L 767.335314 168.693227 
L 767.798493 186.574642 
L 768.261671 186.796776 
L 768.724849 198.277119 
L 769.188027 193.892485 
L 769.651205 163.845144 
L 770.114383 161.555255 
L 770.577562 149.851533 
L 771.04074 149.205726 
L 771.503918 162.088129 
L 771.967096 170.372109 
L 772.893452 222.283665 
L 773.356631 221.738005 
L 773.819809 244.852108 
L 774.282987 258.460578 
L 774.746165 267.053345 
L 775.209343 266.324082 
L 775.672521 252.283593 
L 776.1357 260.642684 
L 776.598878 279.967886 
L 777.062056 283.044214 
L 777.988412 276.637105 
L 778.45159 266.733191 
L 778.914769 266.359947 
L 779.377947 279.439803 
L 779.841125 265.112724 
L 780.767481 247.424677 
L 781.230659 245.017949 
L 781.693838 244.438906 
L 782.157016 251.270753 
L 782.620194 239.358391 
L 783.083372 223.256541 
L 783.54655 215.817419 
L 784.009728 211.207453 
L 784.472907 213.933267 
L 784.936085 211.159332 
L 785.399263 206.582749 
L 785.862441 199.026789 
L 786.325619 212.919009 
L 786.788797 217.639419 
L 787.251976 224.721634 
L 787.715154 220.462183 
L 788.178332 231.57532 
L 788.64151 235.127347 
L 789.104688 232.094699 
L 789.567866 223.478848 
L 790.494223 186.142606 
L 790.957401 195.703462 
L 791.883757 170.368187 
L 792.346935 163.396418 
L 792.810114 165.638186 
L 793.73647 187.589055 
L 794.199648 180.108205 
L 794.662826 183.13446 
L 795.126004 195.098847 
L 795.589183 219.272841 
L 796.052361 222.758103 
L 796.515539 214.709753 
L 796.978717 226.682486 
L 797.441895 243.195223 
L 797.905073 242.132136 
L 798.83143 203.852841 
L 799.294608 211.243842 
L 799.757786 233.264673 
L 800.220964 227.36114 
L 800.684142 217.017751 
L 801.147321 226.70379 
L 802.073677 252.093045 
L 803.000033 224.621297 
L 803.463211 220.537104 
L 804.389568 187.532226 
L 804.852746 179.901155 
L 805.315924 187.033443 
L 805.779102 196.293857 
L 806.24228 186.68488 
L 806.705459 172.026818 
L 807.168637 161.875377 
L 807.631815 155.4878 
L 809.021349 130.666755 
L 809.484528 132.666501 
L 810.410884 155.744025 
L 810.874062 156.224873 
L 811.33724 145.956594 
L 811.800418 145.010345 
L 812.726775 158.924406 
L 813.189953 144.191233 
L 813.653131 136.117845 
L 814.116309 131.741557 
L 814.579487 137.663733 
L 815.042666 134.322298 
L 815.505844 124.312733 
L 815.969022 126.095494 
L 816.4322 139.420213 
L 817.358556 184.755441 
L 817.821735 191.044823 
L 818.284913 192.919386 
L 818.748091 209.615726 
L 819.211269 215.512865 
L 819.674447 205.828778 
L 820.600804 159.596131 
L 821.063982 157.715176 
L 821.52716 168.544562 
L 822.453516 153.507751 
L 822.916694 165.196734 
L 824.306229 234.555735 
L 824.769407 234.352244 
L 825.232585 235.517431 
L 825.695763 230.390039 
L 826.158941 226.673052 
L 826.62212 227.738092 
L 827.085298 236.890014 
L 827.548476 234.700271 
L 828.011654 227.945488 
L 828.474832 234.894172 
L 828.93801 239.572855 
L 829.401189 245.678634 
L 829.864367 241.043632 
L 830.327545 218.04832 
L 830.790723 205.576803 
L 831.253901 220.528914 
L 831.717079 212.180122 
L 832.180258 207.803833 
L 832.643436 209.736815 
L 833.106614 198.492101 
L 833.569792 192.872319 
L 834.03297 189.455774 
L 834.496148 173.287159 
L 834.959327 162.835276 
L 835.422505 163.866934 
L 835.885683 143.391991 
L 836.348861 143.405486 
L 836.812039 145.814167 
L 837.275217 154.916015 
L 837.738396 146.550531 
L 838.201574 160.793267 
L 838.664752 162.959925 
L 839.12793 198.967973 
L 839.591108 204.122355 
L 840.054286 222.212409 
L 840.517465 211.702108 
L 840.980643 223.933554 
L 841.443821 217.120352 
L 841.906999 216.908515 
L 842.370177 189.506729 
L 842.833355 189.111289 
L 843.296534 161.125311 
L 843.759712 160.905129 
L 844.22289 152.264241 
L 844.686068 146.494238 
L 845.149246 150.079647 
L 845.612424 155.284102 
L 846.075603 157.217084 
L 846.538781 190.496122 
L 847.001959 209.287207 
L 847.465137 207.982098 
L 847.928315 231.22973 
L 848.391493 227.904987 
L 848.854672 229.696093 
L 849.31785 230.894662 
L 849.781028 218.089322 
L 850.244206 209.223103 
L 850.707384 216.372082 
L 851.170562 216.043407 
L 851.633741 221.523267 
L 852.096919 229.00607 
L 852.560097 221.725514 
L 853.023275 205.456752 
L 853.486453 198.843843 
L 853.949631 213.720844 
L 854.41281 217.389709 
L 854.875988 219.623132 
L 855.339166 213.694563 
L 855.802344 217.713943 
L 856.265522 228.977301 
L 856.7287 228.456677 
L 857.191879 216.46086 
L 857.655057 196.561764 
L 858.118235 191.668048 
L 858.581413 209.833213 
L 859.044591 214.403403 
L 859.507769 212.83958 
L 859.970948 217.100983 
L 860.434126 203.402664 
L 860.897304 207.455427 
L 861.360482 204.447816 
L 861.82366 162.34109 
L 862.286838 165.567639 
L 862.750017 170.421579 
L 863.213195 183.954938 
L 863.676373 201.427419 
L 864.139551 188.989285 
L 864.602729 199.718524 
L 865.065907 232.463445 
L 865.529086 239.8461 
L 865.992264 240.385367 
L 866.455442 232.445509 
L 866.91862 241.380446 
L 867.381798 265.454292 
L 868.308155 270.063013 
L 868.771333 271.36173 
L 869.234511 270.432172 
L 869.697689 273.274824 
L 871.087224 259.781948 
L 871.550402 249.688927 
L 872.01358 249.285142 
L 872.476758 238.98348 
L 872.939936 243.862457 
L 873.403114 244.760585 
L 873.866293 244.448601 
L 874.329471 254.760561 
L 874.792649 257.394572 
L 875.255827 247.551919 
L 875.719005 252.91494 
L 876.182183 255.490532 
L 876.645362 257.064653 
L 877.10854 263.76297 
L 877.571718 236.202617 
L 878.034896 248.701123 
L 878.498074 241.654244 
L 879.424431 211.670471 
L 879.887609 193.273582 
L 880.350787 195.632189 
L 880.813965 212.261764 
L 881.277143 199.214402 
L 881.740321 200.271096 
L 882.2035 199.909039 
L 882.666678 226.686859 
L 883.129856 240.111725 
L 883.593034 234.408487 
L 884.056212 224.807856 
L 884.51939 229.244516 
L 884.982569 236.435223 
L 885.908925 215.593074 
L 886.372103 191.679746 
L 886.835281 190.090886 
L 887.298459 184.83831 
L 887.761638 192.471334 
L 888.224816 193.761704 
L 888.687994 202.905281 
L 889.151172 244.262856 
L 890.540707 277.099044 
L 891.003885 281.232422 
L 891.467063 265.328025 
L 891.930241 263.502648 
L 892.393419 245.395013 
L 893.319776 229.35389 
L 893.782954 235.284412 
L 894.246132 239.420631 
L 894.70931 271.364374 
L 895.172488 278.27133 
L 895.635666 295.159619 
L 896.562023 307.8 
L 897.025201 302.13849 
L 897.488379 281.822114 
L 897.951557 280.39182 
L 898.414735 266.025854 
L 898.877914 271.405566 
L 899.341092 269.007184 
L 899.80427 251.302979 
L 900.267448 250.506951 
L 900.730626 251.63041 
L 901.193804 238.040584 
L 901.656983 238.271064 
L 902.120161 211.75391 
L 902.583339 207.319202 
L 903.046517 204.094606 
L 903.509695 196.855778 
L 903.972873 199.506481 
L 904.89923 182.191323 
L 905.362408 203.085497 
L 905.825586 198.834393 
L 906.288764 204.239142 
L 907.215121 209.919296 
L 907.678299 208.029995 
L 908.141477 226.311998 
L 908.604655 225.324021 
L 909.067833 223.15097 
L 909.531011 222.763876 
L 910.457368 203.629378 
L 910.920546 208.191222 
L 911.846902 189.310289 
L 912.31008 189.933012 
L 912.773259 168.665238 
L 913.236437 157.29534 
L 913.699615 160.163028 
L 914.162793 156.421005 
L 914.625971 144.683901 
L 915.089149 151.665968 
L 915.552328 140.229306 
L 916.015506 136.353753 
L 916.478684 147.992662 
L 916.941862 139.176516 
L 917.40504 143.028985 
L 917.868218 144.2359 
L 918.331397 142.830643 
L 918.794575 134.573653 
L 919.257753 141.263624 
L 919.720931 134.675752 
L 920.647287 139.462928 
L 921.110466 130.421451 
L 921.573644 124.317624 
L 922.5 128.145056 
L 922.963178 149.105996 
L 923.426356 149.261365 
L 924.352713 134.408158 
L 924.815891 141.356842 
L 925.279069 150.166595 
L 925.742247 164.300837 
L 926.205425 155.476346 
L 926.668603 141.736299 
L 927.131782 146.006047 
L 927.59496 140.845273 
L 928.058138 122.698752 
L 928.521316 112.956245 
L 928.984494 86.197069 
L 929.447672 92.336231 
L 929.910851 100.778777 
L 930.837207 94.738518 
L 931.300385 107.963091 
L 931.763563 108.452284 
L 932.226741 130.464769 
L 932.68992 133.148854 
L 933.153098 134.397497 
L 933.616276 140.453203 
L 934.079454 139.87416 
L 934.542632 132.793899 
L 935.00581 133.658644 
L 935.468989 115.829255 
L 935.932167 104.935057 
L 936.395345 99.982922 
L 936.858523 88.07056 
L 937.321701 109.423743 
L 938.248058 119.935997 
L 938.711236 120.191514 
L 939.174414 124.92027 
L 939.637592 128.438915 
L 940.10077 119.939902 
L 940.563948 131.395208 
L 941.027127 118.523103 
L 941.490305 114.221925 
L 941.953483 113.459279 
L 942.416661 107.205231 
L 942.879839 109.622258 
L 943.343017 110.537077 
L 943.806196 108.78965 
L 944.269374 97.962217 
L 945.19573 114.129588 
L 945.658908 113.784222 
L 946.122086 98.024541 
L 946.585265 113.402277 
L 947.048443 111.254262 
L 947.511621 120.798427 
L 947.974799 119.293023 
L 948.437977 105.419447 
L 949.364334 114.309459 
L 949.827512 114.289571 
L 950.29069 114.50336 
L 950.753868 113.498692 
L 951.217046 119.178846 
L 951.680224 120.410797 
L 952.143403 110.02568 
L 952.606581 119.962088 
L 953.069759 119.182751 
L 953.532937 112.912012 
L 953.996115 128.056071 
L 954.459293 133.085269 
L 955.38565 170.241813 
L 955.848828 171.098213 
L 956.312006 166.262916 
L 956.775184 191.76386 
L 957.238362 193.062576 
L 957.701541 191.757467 
L 958.164719 189.65118 
L 958.627897 199.070161 
L 959.091075 215.582898 
L 959.554253 240.524686 
L 960.017431 242.708036 
L 960.48061 241.436309 
L 960.943788 232.962333 
L 961.406966 230.096597 
L 961.870144 217.324639 
L 962.333322 214.091697 
L 962.7965 215.089972 
L 963.259679 225.560498 
L 963.722857 224.772816 
L 964.186035 239.950257 
L 964.649213 247.858685 
L 965.575569 259.761457 
L 966.038748 246.64733 
L 966.501926 224.478232 
L 966.965104 216.429881 
L 967.428282 201.846929 
L 967.89146 198.547222 
L 968.354638 190.114974 
L 969.280995 162.359476 
L 969.744173 154.636603 
L 970.207351 161.376648 
L 970.670529 163.242865 
L 971.133707 162.438491 
L 971.596886 163.036178 
L 972.060064 164.944122 
L 972.523242 163.764197 
L 973.449598 170.162072 
L 973.912776 164.650782 
L 974.375955 156.235226 
L 974.839133 144.790218 
L 975.302311 146.731545 
L 975.765489 154.314495 
L 976.228667 183.69614 
L 976.691845 180.34636 
L 977.155024 187.236625 
L 978.08138 221.81438 
L 978.544558 225.157767 
L 979.007736 222.826149 
L 979.470914 197.585872 
L 979.934093 203.583159 
L 980.397271 182.94965 
L 980.860449 171.663208 
L 981.323627 177.660495 
L 981.786805 176.288621 
L 982.249983 172.44645 
L 982.713162 198.347982 
L 983.17634 197.159711 
L 983.639518 219.097085 
L 984.102696 212.584324 
L 984.565874 185.199229 
L 985.029052 175.565215 
L 985.492231 168.910579 
L 985.955409 152.967294 
L 986.418587 150.977846 
L 986.881765 149.681082 
L 987.344943 155.402964 
L 987.808121 150.509249 
L 988.2713 160.161906 
L 988.734478 158.706576 
L 989.197656 142.379395 
L 989.660834 131.652108 
L 990.124012 130.972918 
L 990.58719 138.013404 
L 991.050369 159.024417 
L 991.513547 146.19404 
L 991.976725 147.342536 
L 992.439903 145.695257 
L 992.903081 144.782391 
L 993.366259 139.771837 
L 993.829438 124.128994 
L 994.292616 115.655018 
L 994.755794 125.724955 
L 995.218972 123.268154 
L 995.68215 140.590414 
L 996.145328 163.070251 
L 996.608507 167.248198 
L 997.071685 176.007877 
L 997.998041 189.262635 
L 998.924397 184.360574 
L 999.387576 195.999483 
L 999.850754 191.990401 
L 1000.77711 190.690796 
L 1001.240288 194.815828 
L 1001.703466 194.884901 
L 1002.166645 191.073272 
L 1002.629823 195.890988 
L 1003.093001 195.676311 
L 1003.556179 199.517593 
L 1004.019357 201.108405 
L 1004.482535 203.692343 
L 1004.945714 203.39705 
L 1005.408892 208.484667 
L 1005.87207 215.942433 
L 1006.798426 195.497676 
L 1007.261604 196.329039 
L 1007.724783 193.446612 
L 1008.187961 193.702129 
L 1008.651139 202.829014 
L 1009.114317 205.805195 
L 1009.577495 226.056759 
L 1010.96703 260.606281 
L 1011.430208 275.341406 
L 1011.893386 267.49335 
L 1012.356564 276.586852 
L 1013.282921 245.90205 
L 1013.746099 244.571904 
L 1014.209277 239.56135 
L 1014.672455 230.795278 
L 1015.135633 242.54268 
L 1015.598811 233.968557 
L 1016.06199 233.064036 
L 1016.525168 250.352913 
L 1018.37788 186.304372 
L 1018.841059 188.629597 
L 1019.304237 174.230248 
L 1019.767415 147.087175 
L 1020.693771 141.247211 
L 1021.156949 148.604829 
L 1021.620127 142.726333 
L 1022.083306 124.296062 
L 1023.47284 148.204949 
L 1024.399196 189.509254 
L 1024.862375 191.575765 
L 1025.325553 227.208262 
L 1025.788731 240.5914 
L 1026.251909 246.012841 
L 1026.715087 263.476976 
L 1027.178265 262.739367 
L 1027.641444 263.120068 
L 1028.104622 261.380987 
L 1029.030978 225.997615 
L 1029.494156 238.779871 
L 1029.957334 236.197885 
L 1030.420513 236.253108 
L 1030.883691 205.220987 
L 1031.346869 208.706249 
L 1031.810047 217.783061 
L 1032.273225 229.104837 
L 1033.199582 203.177024 
L 1033.66276 199.98581 
L 1034.589116 227.786942 
L 1035.052294 234.693898 
L 1035.515472 222.414331 
L 1035.978651 234.195115 
L 1036.441829 233.190447 
L 1037.368185 232.795007 
L 1037.831363 230.480081 
L 1038.294541 217.624667 
L 1038.75772 201.264103 
L 1039.220898 201.836753 
L 1039.684076 189.390273 
L 1040.147254 192.808771 
L 1040.610432 198.42216 
L 1041.07361 195.523042 
L 1041.536789 181.540973 
L 1041.999967 182.681123 
L 1047.558105 173.739794 
L 1048.021283 168.345342 
L 1048.484461 165.896886 
L 1048.947639 132.12741 
L 1049.410817 109.699598 
L 1049.873996 100.583011 
L 1050.337174 102.12375 
L 1050.800352 111.18387 
L 1051.26353 90.984333 
L 1051.726708 90.06312 
L 1052.189886 111.950421 
L 1052.653065 140.497507 
L 1053.116243 154.28958 
L 1053.579421 151.749322 
L 1054.505777 167.460882 
L 1054.968955 200.981943 
L 1055.432134 212.829492 
L 1055.895312 203.245552 
L 1056.35849 203.718054 
L 1056.821668 203.12232 
L 1057.284846 200.114709 
L 1057.748024 195.120847 
L 1058.211203 186.42154 
L 1058.674381 167.03987 
L 1059.137559 169.381786 
L 1059.600737 164.604909 
L 1060.063915 176.569296 
L 1060.527093 175.264187 
L 1063.769341 159.91344 
L 1064.232519 138.153276 
L 1064.695697 148.264941 
L 1065.158875 138.881295 
L 1065.622053 142.349866 
L 1066.085231 136.838577 
L 1066.54841 123.265442 
L 1067.011588 127.969161 
L 1067.474766 144.840759 
L 1067.937944 135.315238 
L 1068.401122 145.410212 
L 1068.8643 131.73693 
L 1069.790657 130.540313 
L 1070.253835 139.333374 
L 1070.717013 124.007664 
L 1071.180191 131.006422 
L 1071.643369 117.767111 
L 1072.106548 108.558723 
L 1072.569726 112.88689 
L 1073.032904 126.34514 
L 1073.496082 120.733703 
L 1073.95926 128.925881 
L 1074.422438 119.225102 
L 1074.885617 124.337756 
L 1075.348795 120.912865 
L 1075.811973 107.915576 
L 1076.738329 71.622534 
L 1077.201507 82.009604 
L 1077.664686 70.890074 
L 1078.127864 73.09846 
L 1078.591042 79.613174 
L 1079.517398 102.757463 
L 1079.980576 129.602047 
L 1080.443755 119.567445 
L 1080.906933 117.118989 
L 1081.370111 121.355355 
L 1081.833289 121.460651 
L 1082.296467 116.875722 
L 1082.759645 110.922116 
L 1083.222824 94.695082 
L 1084.14918 100.146708 
L 1084.612358 90.295709 
L 1085.075536 100.816309 
L 1085.538714 90.940272 
L 1086.001893 76.173717 
L 1087.391427 109.838606 
L 1087.854605 133.052856 
L 1088.317783 137.389369 
L 1088.780962 153.45979 
L 1089.24414 161.034394 
L 1089.707318 154.496596 
L 1090.170496 125.550874 
L 1090.633674 112.895755 
L 1091.096852 93.689343 
L 1091.560031 81.067606 
L 1092.486387 93.429385 
L 1092.949565 104.434029 
L 1093.412743 124.209894 
L 1093.875921 134.012772 
L 1094.3391 138.774911 
L 1094.802278 145.489919 
L 1095.728634 128.224834 
L 1096.191812 117.68115 
L 1096.65499 113.371627 
L 1097.118169 111.140156 
L 1098.044525 104.282029 
L 1098.507703 97.493863 
L 1098.970881 97.832836 
L 1099.434059 95.209123 
L 1099.897238 94.454822 
L 1100.360416 105.058878 
L 1100.823594 112.191165 
L 1101.286772 109.68429 
L 1101.74995 109.572601 
L 1102.213128 110.212015 
L 1102.676307 122.368351 
L 1103.602663 121.151847 
L 1104.065841 109.489853 
L 1104.529019 119.134165 
L 1104.992197 138.517787 
L 1105.918554 168.363589 
L 1106.381732 188.623499 
L 1106.84491 195.355198 
L 1107.308088 203.8812 
L 1107.771266 177.20548 
L 1108.234445 163.381977 
L 1108.697623 159.030726 
L 1109.623979 104.19377 
L 1110.087157 87.33247 
L 1110.550335 94.022441 
L 1111.013514 116.16011 
L 1111.476692 125.92126 
L 1111.93987 120.785522 
L 1112.403048 142.931536 
L 1114.255761 196.188686 
L 1114.718939 193.089274 
L 1115.182117 205.304029 
L 1115.645295 198.023473 
L 1116.108473 199.055131 
L 1116.571652 197.65822 
L 1117.498008 188.30476 
L 1117.961186 212.737467 
L 1118.424364 223.416633 
L 1118.887542 228.545977 
L 1119.35072 225.45491 
L 1119.813899 227.212634 
L 1120.277077 236.164262 
L 1120.740255 236.119337 
L 1121.203433 222.629658 
L 1121.666611 217.126714 
L 1122.129789 220.611977 
L 1123.056146 238.106298 
L 1123.519324 235.290635 
L 1123.982502 227.851513 
L 1124.44568 214.820842 
L 1124.908858 212.756283 
L 1125.372037 212.043711 
L 1125.835215 221.512766 
L 1126.298393 225.215013 
L 1126.761571 221.573137 
L 1127.687927 245.476875 
L 1128.614284 219.832813 
L 1129.077462 198.58173 
L 1129.54064 192.377756 
L 1130.003818 188.009813 
L 1130.466996 191.3532 
L 1130.930175 187.485993 
L 1131.393353 191.296734 
L 1131.856531 201.116303 
L 1132.319709 201.739026 
L 1132.782887 202.820757 
L 1133.246065 211.296685 
L 1133.709244 198.649912 
L 1134.172422 202.176902 
L 1134.6356 207.364666 
L 1135.098778 209.130736 
L 1135.561956 225.635127 
L 1136.025134 220.182257 
L 1136.488313 210.481478 
L 1136.951491 205.1371 
L 1137.414669 194.443196 
L 1137.877847 203.853831 
L 1138.341025 195.363164 
L 1138.804203 191.938273 
L 1139.267382 186.068123 
L 1139.73056 182.442938 
L 1140.193738 184.442684 
L 1140.656916 206.788993 
L 1141.583272 194.280897 
L 1142.046451 178.996915 
L 1142.509629 178.977028 
L 1143.435985 199.759513 
L 1143.899163 175.453942 
L 1144.362341 162.924007 
L 1144.82552 161.460331 
L 1145.288698 163.98585 
L 1145.751876 163.09802 
L 1146.215054 154.323603 
L 1146.678232 138.11326 
L 1147.14141 135.973591 
L 1147.604589 145.909999 
L 1148.067767 163.223913 
L 1148.530945 166.892778 
L 1148.994123 158.026559 
L 1149.457301 158.373878 
L 1149.920479 167.817895 
L 1150.383658 171.428342 
L 1150.846836 153.348585 
L 1151.310014 130.553567 
L 1151.773192 125.392793 
L 1152.23637 135.779862 
L 1152.699548 131.395228 
L 1153.162727 134.538321 
L 1153.625905 134.852257 
L 1154.089083 136.660055 
L 1154.552261 144.977417 
L 1155.015439 149.213783 
L 1155.478617 155.444747 
L 1155.941796 164.146006 
L 1156.404974 163.116301 
L 1156.868152 171.525465 
L 1157.33133 176.579699 
L 1157.794508 175.399774 
L 1158.257686 169.621425 
L 1158.720865 150.031116 
L 1159.184043 139.537506 
L 1159.647221 138.991846 
L 1160.110399 129.808494 
L 1160.573577 140.871557 
L 1161.036755 157.492787 
L 1161.499934 156.279479 
L 1161.963112 162.677354 
L 1162.42629 171.069827 
L 1162.889468 185.170687 
L 1163.352646 192.928894 
L 1163.815824 207.764166 
L 1164.279003 202.678502 
L 1164.742181 207.36553 
L 1165.205359 200.30196 
L 1165.668537 202.952663 
L 1166.131715 187.969122 
L 1166.594893 177.108306 
L 1167.058072 146.059494 
L 1167.52125 134.480956 
L 1167.984428 148.42325 
L 1168.447606 153.986566 
L 1168.910784 149.293144 
L 1169.373962 134.059236 
L 1169.837141 142.977481 
L 1170.763497 153.586685 
L 1171.226675 130.107329 
L 1171.689853 147.896942 
L 1172.153031 136.168183 
L 1172.61621 139.753593 
L 1173.079388 137.255063 
L 1173.542566 155.411883 
L 1174.468922 177.095693 
L 1174.9321 170.708115 
L 1175.395279 167.750578 
L 1175.858457 179.172502 
L 1176.321635 176.799156 
L 1177.247991 148.292554 
L 1177.711169 147.346305 
L 1178.174348 149.028919 
L 1178.637526 159.290805 
L 1179.100704 146.919436 
L 1179.563882 156.555402 
L 1180.02706 169.880122 
L 1180.490238 176.353107 
L 1180.953417 192.982683 
L 1181.879773 174.858002 
L 1182.342951 180.913708 
L 1182.806129 162.141267 
L 1183.269307 154.026151 
L 1183.732486 138.60864 
L 1184.195664 115.79693 
L 1184.658842 105.728946 
L 1185.12202 120.822932 
L 1185.585198 118.332747 
L 1186.048376 117.40319 
L 1186.511555 97.153578 
L 1187.437911 73.570878 
L 1187.901089 84.108169 
L 1188.364267 72.554668 
L 1188.827445 77.900998 
L 1189.290624 96.50848 
L 1189.753802 124.663322 
L 1190.680158 160.551336 
L 1191.143336 155.58251 
L 1191.606514 149.061403 
L 1192.069693 139.377316 
L 1192.532871 115.689319 
L 1192.996049 102.049419 
L 1193.459227 98.474308 
L 1193.922405 93.931107 
L 1194.385583 105.461524 
L 1194.848762 106.251159 
L 1195.31194 105.855719 
L 1196.238296 118.559668 
L 1196.701474 114.859373 
L 1197.164652 124.386847 
L 1197.627831 103.411168 
L 1198.091009 112.997061 
L 1198.554187 126.154869 
L 1199.017365 127.612151 
L 1199.480543 133.308997 
L 1199.943721 155.271408 
L 1200.4069 144.969746 
L 1200.870078 165.01267 
L 1201.333256 176.250991 
L 1201.796434 171.440731 
L 1202.259612 167.873965 
L 1202.72279 155.110353 
L 1203.185969 151.468477 
L 1203.649147 151.507008 
L 1204.112325 164.673162 
L 1204.575503 165.087245 
L 1205.038681 169.215118 
L 1205.501859 179.193254 
L 1205.965038 171.220014 
L 1206.428216 165.541812 
L 1206.891394 167.850346 
L 1207.354572 131.885978 
L 1207.81775 127.793439 
L 1208.280928 117.016079 
L 1208.744107 118.039391 
L 1209.207285 139.592867 
L 1209.670463 126.537159 
L 1210.133641 138.409745 
L 1210.596819 159.637744 
L 1211.059997 161.337049 
L 1211.523176 184.77663 
L 1211.986354 189.021342 
L 1212.449532 189.669102 
L 1212.91271 201.282974 
L 1213.375888 184.830609 
L 1213.839066 177.091045 
L 1214.302245 180.234138 
L 1214.765423 159.583938 
L 1215.691779 146.19121 
L 1216.154957 145.22827 
L 1216.618135 141.227533 
L 1217.081314 153.976406 
L 1217.544492 162.894652 
L 1218.00767 165.411825 
L 1218.470848 155.953069 
L 1218.934026 151.009279 
L 1219.397204 153.534798 
L 1219.860382 167.368599 
L 1220.323561 167.240219 
L 1220.786739 157.681315 
L 1221.249917 167.826363 
L 1221.713095 173.231112 
L 1222.176273 186.747781 
L 1222.639451 205.855998 
L 1223.10263 206.428647 
L 1223.565808 210.139241 
L 1224.028986 194.312795 
L 1224.492164 190.787757 
L 1224.955342 206.449244 
L 1225.41852 211.436713 
L 1225.881699 187.206253 
L 1226.344877 177.263452 
L 1226.808055 150.863137 
L 1227.271233 146.762253 
L 1227.734411 149.61325 
L 1229.123946 122.98121 
L 1229.587124 120.641247 
L 1230.050302 143.454909 
L 1230.51348 156.328966 
L 1230.976658 139.951711 
L 1231.439837 140.432559 
L 1231.903015 127.602182 
L 1232.366193 133.933293 
L 1232.829371 143.861355 
L 1233.292549 130.121308 
L 1233.755727 128.181933 
L 1234.682084 149.256515 
L 1235.145262 138.946507 
L 1235.60844 141.146548 
L 1236.071618 136.14434 
L 1236.534796 127.82893 
L 1236.997975 128.651948 
L 1237.461153 142.469057 
L 1237.924331 126.367207 
L 1238.387509 134.676224 
L 1238.850687 130.817362 
L 1239.313865 113.822533 
L 1239.777044 128.699533 
L 1240.240222 112.597683 
L 1240.7034 86.748177 
L 1241.166578 93.596714 
L 1241.629756 93.985761 
L 1242.092934 98.889774 
L 1242.556113 119.116301 
L 1243.019291 109.999714 
L 1243.945647 119.457227 
L 1244.408825 120.07995 
L 1244.872003 121.487159 
L 1245.335182 116.601789 
L 1245.79836 109.721822 
L 1246.261538 110.052449 
L 1246.724716 109.506789 
L 1247.187894 116.013157 
L 1247.651072 105.769914 
L 1248.577429 93.311893 
L 1249.040607 85.054902 
L 1249.503785 83.466042 
L 1249.966963 91.441235 
L 1250.430141 87.891161 
L 1250.89332 83.364651 
L 1251.356498 91.924036 
L 1251.819676 87.539402 
L 1252.282854 92.752202 
L 1252.746032 96.003788 
L 1253.672389 94.153018 
L 1254.135567 110.65741 
L 1254.598745 104.65373 
L 1255.061923 114.406535 
L 1255.988279 146.522339 
L 1256.451458 147.562342 
L 1257.377814 150.485253 
L 1257.840992 154.179155 
L 1258.30417 162.571628 
L 1259.230527 143.478857 
L 1259.693705 157.454533 
L 1260.156883 144.824451 
L 1260.620061 147.84236 
L 1261.083239 158.30454 
L 1261.546417 149.279755 
L 1262.009596 145.86321 
L 1262.472774 144.240968 
L 1262.935952 133.755703 
L 1263.39913 153.164362 
L 1264.325486 139.696523 
L 1264.788665 149.123849 
L 1265.251843 147.793703 
L 1265.715021 151.445877 
L 1266.178199 149.089223 
L 1266.641377 148.743857 
L 1267.104555 139.810873 
L 1267.567734 148.303493 
L 1268.030912 154.267397 
L 1268.49409 180.936724 
L 1268.957268 178.012569 
L 1269.420446 180.262683 
L 1269.883624 166.130394 
L 1270.346803 165.835101 
L 1270.809981 163.670395 
L 1271.273159 150.314246 
L 1271.736337 125.149079 
L 1272.199515 119.545988 
L 1272.662693 112.207013 
L 1273.58905 116.293158 
L 1274.052228 114.128452 
L 1274.515406 96.724689 
L 1274.978584 97.380794 
L 1275.441762 107.28382 
L 1275.904941 111.920774 
L 1276.368119 120.722181 
L 1276.831297 127.044946 
L 1277.294475 128.193442 
L 1277.757653 139.581983 
L 1278.220831 141.214523 
L 1278.68401 125.49657 
L 1279.147188 117.247925 
L 1279.610366 117.086162 
L 1280.073544 122.908191 
L 1280.536722 143.827403 
L 1280.9999 138.591518 
L 1281.463079 140.265786 
L 1281.926257 142.807996 
L 1282.389435 164.094414 
L 1283.315791 188.74091 
L 1283.778969 183.555099 
L 1284.242148 190.862644 
L 1285.168504 222.277418 
L 1285.631682 213.235942 
L 1286.09486 211.663773 
L 1286.558038 206.895241 
L 1287.484395 244.268771 
L 1287.947573 251.643081 
L 1288.873929 277.190901 
L 1289.337107 280.976605 
L 1289.800286 279.996974 
L 1290.263464 280.369329 
L 1291.18982 269.096382 
L 1291.652998 276.988119 
L 1292.116176 277.919629 
L 1292.579355 268.485909 
L 1293.042533 272.304996 
L 1293.505711 273.395072 
L 1294.432067 282.176947 
L 1294.895245 283.397712 
L 1295.358424 270.330817 
L 1295.821602 271.810295 
L 1296.28478 277.387461 
L 1296.747958 277.556681 
L 1297.674314 246.41003 
L 1298.137493 227.737736 
L 1298.600671 235.72962 
L 1299.063849 237.253667 
L 1299.527027 235.923521 
L 1299.990205 222.692556 
L 1300.453383 235.115951 
L 1300.916562 241.205039 
L 1301.37974 244.965706 
L 1301.842918 234.238419 
L 1302.306096 218.094841 
L 1302.769274 214.845208 
L 1303.232452 223.855254 
L 1303.695631 203.814283 
L 1304.158809 194.514093 
L 1304.621987 192.87516 
L 1305.085165 190.009424 
L 1305.548343 185.391113 
L 1306.011521 177.509674 
L 1306.4747 178.641479 
L 1306.937878 175.241625 
L 1307.401056 159.865841 
L 1307.864234 152.718815 
L 1308.327412 147.683224 
L 1308.79059 145.81896 
L 1309.253769 156.681729 
L 1309.716947 152.505734 
L 1310.180125 157.86041 
L 1310.643303 173.037852 
L 1311.106481 182.924186 
L 1311.569659 185.908713 
L 1312.032838 199.191704 
L 1312.496016 191.861075 
L 1312.959194 198.642847 
L 1313.422372 199.048585 
L 1314.348728 217.569414 
L 1314.811907 206.491612 
L 1316.201441 158.970547 
L 1316.664619 147.709142 
L 1317.127797 123.411917 
L 1317.590975 113.402351 
L 1318.054154 122.462472 
L 1318.517332 122.67626 
L 1318.98051 131.7948 
L 1319.443688 145.853932 
L 1319.906866 167.532593 
L 1320.370044 177.594184 
L 1321.296401 162.165131 
L 1321.759579 166.226239 
L 1322.222757 167.925544 
L 1322.685935 155.946418 
L 1323.149113 138.83475 
L 1323.612292 136.194346 
L 1324.07547 149.769433 
L 1324.538648 173.384272 
L 1325.001826 175.384018 
L 1325.465004 184.160388 
L 1325.928182 187.437011 
L 1326.391361 166.42795 
L 1327.780895 169.10369 
L 1328.707251 120.459166 
L 1329.17043 116.833981 
L 1329.633608 102.009007 
L 1330.096786 97.357313 
L 1330.559964 120.888696 
L 1331.023142 136.909043 
L 1331.949499 157.791676 
L 1332.412677 161.569034 
L 1332.875855 166.773489 
L 1333.339033 168.623015 
L 1333.802211 172.42541 
L 1334.265389 145.691271 
L 1334.728568 141.723916 
L 1335.191746 133.057992 
L 1335.654924 141.542266 
L 1336.118102 140.612708 
L 1336.58128 146.601649 
L 1337.044458 138.820357 
L 1337.507637 162.518652 
L 1337.970815 168.17377 
L 1338.433993 176.299183 
L 1338.897171 180.952829 
L 1339.360349 197.79939 
L 1339.823527 191.495269 
L 1340.286706 202.232853 
L 1340.749884 189.352403 
L 1341.213062 198.278994 
L 1341.67624 194.186455 
L 1342.139418 188.024209 
L 1342.602596 158.677899 
L 1343.065775 158.791541 
L 1343.528953 150.976867 
L 1343.992131 148.912308 
L 1344.455309 138.193367 
L 1344.918487 148.34676 
L 1345.381665 133.788845 
L 1345.844844 155.050226 
L 1346.308022 145.207572 
L 1346.7712 138.160693 
L 1347.234378 145.092686 
L 1347.697556 145.298129 
L 1348.160734 140.421105 
L 1348.623913 159.462558 
L 1349.087091 146.490306 
L 1349.550269 153.630939 
L 1350.013447 149.338106 
L 1350.476625 137.667767 
L 1350.939803 136.270856 
L 1351.402982 136.309387 
L 1351.86616 115.926247 
L 1352.329338 127.590193 
L 1352.792516 127.92082 
L 1353.255694 131.78998 
L 1353.718872 140.315982 
L 1354.182051 137.99271 
L 1354.645229 131.922265 
L 1355.108407 151.431071 
L 1355.571585 158.99733 
L 1356.497941 167.486753 
L 1356.96112 164.395686 
L 1357.424298 170.443046 
L 1357.887476 165.657823 
L 1358.350654 158.736128 
L 1359.27701 129.745482 
L 1359.740189 120.837535 
L 1360.203367 114.666943 
L 1360.666545 102.696162 
L 1361.129723 102.901606 
L 1361.592901 104.918043 
L 1362.056079 121.839715 
L 1362.519258 134.588588 
L 1362.982436 136.972232 
L 1363.445614 143.887534 
L 1363.908792 138.810215 
L 1364.37197 138.606724 
L 1364.835148 131.159257 
L 1365.298327 106.244457 
L 1365.761505 111.190199 
L 1366.224683 110.577774 
L 1366.687861 96.81269 
L 1367.151039 128.99011 
L 1367.614217 127.910332 
L 1368.077396 128.624857 
L 1368.540574 116.837679 
L 1369.003752 94.10108 
L 1369.46693 109.336941 
L 1369.930108 98.843331 
L 1370.393286 78.067947 
L 1370.856465 84.56597 
L 1371.319643 89.07774 
L 1372.245999 127.586271 
L 1372.709177 131.371974 
L 1373.172355 155.303946 
L 1373.635534 153.42299 
L 1374.098712 167.265137 
L 1375.025068 179.151217 
L 1375.951424 172.359855 
L 1376.414603 174.100888 
L 1376.877781 182.843876 
L 1377.804137 169.008831 
L 1378.267315 181.206895 
L 1379.193672 159.493608 
L 1379.65685 154.883643 
L 1380.120028 156.340925 
L 1380.583206 154.376514 
L 1381.046384 143.649227 
L 1381.509562 122.356416 
L 1382.899097 153.041927 
L 1383.362275 157.712264 
L 1383.825453 171.228932 
L 1384.288631 172.001876 
L 1384.75181 185.476816 
L 1385.678166 193.523923 
L 1386.141344 191.25907 
L 1386.604522 176.601008 
L 1387.0677 153.438783 
L 1387.530879 167.664827 
L 1387.994057 155.927723 
L 1388.457235 153.178826 
L 1388.920413 141.049479 
L 1389.383591 135.563226 
L 1389.846769 145.057317 
L 1390.309948 143.168016 
L 1390.773126 123.360721 
L 1391.236304 125.443924 
L 1391.699482 130.072533 
L 1392.16266 141.394309 
L 1393.089017 147.129686 
L 1393.552195 161.322347 
L 1394.015373 167.152722 
L 1394.478551 169.502984 
L 1394.941729 172.554275 
L 1395.404907 156.911432 
L 1395.868086 161.323056 
L 1396.331264 155.336067 
L 1396.794442 162.693686 
L 1397.25762 171.954101 
L 1397.720798 177.133519 
L 1398.183976 157.476445 
L 1398.647155 161.495825 
L 1399.110333 137.891285 
L 1399.573511 130.293596 
L 1400.036689 108.116152 
L 1400.499867 98.148314 
L 1400.963045 92.670407 
L 1401.889402 113.302672 
L 1402.35258 132.719676 
L 1403.278936 156.923856 
L 1403.742114 155.794004 
L 1404.205293 145.050026 
L 1404.668471 139.405207 
L 1405.131649 128.060346 
L 1405.594827 128.257444 
L 1406.058005 135.50657 
L 1406.521183 130.746384 
L 1406.984362 129.825172 
L 1407.44754 139.3443 
L 1407.910718 134.959665 
L 1408.373896 132.603011 
L 1408.837074 132.057351 
L 1409.300252 129.467019 
L 1409.763431 112.956235 
L 1410.226609 125.296174 
L 1411.152965 112.863189 
L 1411.616143 107.318517 
L 1412.079321 108.133189 
L 1412.5425 92.740714 
L 1413.005678 105.205838 
L 1413.468856 95.830537 
L 1413.932034 105.41643 
L 1414.395212 123.489793 
L 1414.85839 150.300995 
L 1415.321568 155.205009 
L 1415.784747 176.349552 
L 1416.247925 182.922684 
L 1416.711103 200.678915 
L 1417.174281 204.548075 
L 1417.637459 206.539476 
L 1418.100637 199.943259 
L 1418.563816 186.153138 
L 1419.026994 177.946221 
L 1419.490172 182.316117 
L 1419.95335 171.071403 
L 1420.416528 151.931756 
L 1420.879706 158.321286 
L 1421.342885 158.802134 
L 1421.806063 162.262359 
L 1422.732419 111.314451 
L 1423.195597 100.428598 
L 1423.658775 103.91386 
L 1424.121954 93.253338 
L 1424.585132 93.851024 
L 1425.04831 90.876796 
L 1425.974666 135.995038 
L 1426.437844 164.667308 
L 1427.364201 195.673148 
L 1427.827379 192.465242 
L 1428.290557 186.970644 
L 1428.753735 196.748485 
L 1429.216913 191.462527 
L 1429.680092 166.280668 
L 1430.606448 128.57722 
L 1431.069626 120.403686 
L 1431.532804 149.877133 
L 1431.995982 125.988842 
L 1432.459161 117.564939 
L 1432.922339 122.018291 
L 1433.385517 120.537924 
L 1433.848695 120.259322 
L 1434.311873 123.193776 
L 1434.775051 104.830269 
L 1435.23823 127.260033 
L 1435.701408 135.510631 
L 1436.164586 139.279643 
L 1436.627764 144.617628 
L 1437.090942 140.024354 
L 1437.55412 139.261708 
L 1438.017299 147.528997 
L 1438.480477 144.546422 
L 1438.943655 142.965908 
L 1439.870011 123.539314 
L 1440.333189 140.494368 
L 1440.796368 138.780324 
L 1441.259546 122.002481 
L 1441.722724 117.142148 
L 1442.185902 109.402584 
L 1443.112258 135.309265 
L 1443.575437 128.012018 
L 1444.038615 139.734383 
L 1444.501793 130.442539 
L 1444.964971 137.407915 
L 1445.428149 147.1023 
L 1445.891327 142.21693 
L 1446.354506 146.962377 
L 1446.817684 149.938559 
L 1447.280862 144.335467 
L 1447.74404 173.333215 
L 1448.207218 173.755644 
L 1448.670396 178.985136 
L 1449.133575 191.575443 
L 1449.596753 191.538864 
L 1450.059931 187.054083 
L 1450.523109 180.833418 
L 1450.986287 168.078151 
L 1451.449465 173.74996 
L 1451.912644 167.654478 
L 1452.375822 153.647372 
L 1452.839 145.565639 
L 1453.302178 160.884956 
L 1453.765356 162.083525 
L 1454.228534 171.986551 
L 1454.691713 159.648564 
L 1455.154891 157.208454 
L 1455.618069 160.89401 
L 1456.081247 154.823566 
L 1456.544425 127.321632 
L 1457.007603 125.574206 
L 1457.470782 113.837102 
L 1457.93396 120.493691 
L 1458.860316 154.261923 
L 1459.786672 209.595174 
L 1460.249851 228.211001 
L 1460.713029 238.331012 
L 1461.176207 241.799583 
L 1461.639385 233.333953 
L 1462.565741 223.029095 
L 1463.02892 220.755896 
L 1463.492098 213.166553 
L 1463.955276 210.476075 
L 1464.418454 212.425748 
L 1464.881632 207.148135 
L 1465.34481 215.039872 
L 1465.807989 204.654754 
L 1466.271167 208.540605 
L 1466.734345 214.020465 
L 1467.197523 213.708481 
L 1467.660701 212.687122 
L 1468.123879 227.522394 
L 1468.587058 225.416108 
L 1469.050236 222.525335 
L 1469.513414 204.370468 
L 1469.976592 208.281356 
L 1470.43977 217.333131 
L 1470.902948 235.097707 
L 1471.366127 243.740547 
L 1471.829305 247.985259 
L 1472.755661 266.614581 
L 1473.218839 262.371822 
L 1474.145196 243.237324 
L 1474.608374 228.161982 
L 1475.071552 225.2879 
L 1475.53473 219.175728 
L 1475.997908 239.811189 
L 1476.461086 242.361745 
L 1476.924265 248.809693 
L 1477.387443 240.586085 
L 1477.850621 241.667816 
L 1478.313799 234.161929 
L 1478.776977 239.975613 
L 1479.240155 228.447149 
L 1479.703334 234.068884 
L 1480.166512 231.65381 
L 1480.62969 224.615276 
L 1481.092868 214.856079 
L 1481.556046 217.473399 
L 1482.019224 224.530576 
L 1482.945581 227.002825 
L 1483.408759 235.887688 
L 1483.871937 254.670427 
L 1484.335115 265.616652 
L 1484.798293 272.264895 
L 1485.261472 269.6996 
L 1485.72465 269.487764 
L 1486.187828 264.318644 
L 1486.651006 256.762683 
L 1487.114184 246.16058 
L 1487.577362 245.840251 
L 1488.040541 239.419292 
L 1489.430075 266.658072 
L 1489.893253 271.804107 
L 1490.81961 279.008309 
L 1491.282788 285.790082 
L 1491.745966 274.837464 
L 1492.209144 268.967313 
L 1493.1355 241.445492 
L 1493.598679 240.916523 
L 1494.061857 240.05373 
L 1494.525035 242.078513 
L 1494.988213 230.733652 
L 1495.451391 208.622973 
L 1495.914569 198.580025 
L 1496.377748 200.972014 
L 1496.840926 205.684079 
L 1497.304104 209.027467 
L 1497.767282 195.637935 
L 1498.23046 187.689731 
L 1498.693638 184.448444 
L 1499.156817 207.53751 
L 1499.619995 211.623655 
L 1500.546351 172.593257 
L 1501.009529 171.555207 
L 1501.472707 185.923126 
L 1501.935886 191.060816 
L 1502.862242 176.424594 
L 1503.32542 184.958942 
L 1503.788598 199.527155 
L 1504.251776 205.43264 
L 1504.714955 207.807938 
L 1505.178133 229.645165 
L 1505.641311 225.143693 
L 1506.104489 228.737448 
L 1506.567667 224.277703 
L 1507.494024 179.363661 
L 1507.957202 177.716382 
L 1508.42038 152.392648 
L 1508.883558 142.282936 
L 1509.346736 140.443708 
L 1509.809914 146.699708 
L 1510.273093 159.515346 
L 1510.736271 179.366322 
L 1511.199449 177.001322 
L 1511.662627 181.162577 
L 1512.125805 189.254608 
L 1512.588983 188.358433 
L 1513.052161 183.698394 
L 1513.51534 181.875858 
L 1513.978518 171.899675 
L 1514.441696 177.454645 
L 1514.904874 188.901605 
L 1515.368052 182.297043 
L 1515.83123 167.931076 
L 1516.294409 159.523865 
L 1516.757587 164.845158 
L 1517.220765 173.888587 
L 1518.147121 179.557199 
L 1518.610299 189.39346 
L 1519.073478 194.005378 
L 1519.536656 210.902012 
L 1519.999834 208.720615 
L 1520.463012 192.994316 
L 1520.92619 162.821792 
L 1521.389368 141.51229 
L 1521.852547 128.164486 
L 1522.315725 139.319351 
L 1522.778903 127.76585 
L 1523.242081 99.362592 
L 1523.705259 96.738878 
L 1524.631616 126.342658 
L 1525.094794 121.882914 
L 1526.02115 79.556006 
L 1526.484328 88.674545 
L 1526.947506 89.739585 
L 1527.410685 75.82428 
L 1527.873863 55.8 
L 1528.337041 56.055517 
L 1528.800219 68.136743 
L 1529.726575 114.214728 
L 1530.189754 117.900285 
L 1530.652932 127.895112 
L 1531.11611 126.948863 
L 1531.579288 128.973646 
L 1532.042466 142.281675 
L 1532.505644 132.906374 
L 1532.968823 118.273349 
L 1533.432001 120.273095 
L 1533.895179 124.1506 
L 1534.358357 125.933361 
L 1534.821535 120.171704 
L 1535.284713 104.353604 
L 1535.747892 96.872754 
L 1536.21107 106.967728 
L 1536.674248 98.627281 
L 1537.137426 98.473864 
L 1537.600604 127.087715 
L 1538.063782 167.135031 
L 1538.990139 172.686805 
L 1539.453317 167.442574 
L 1539.916495 178.054975 
L 1540.842851 189.757452 
L 1541.30603 170.125415 
L 1543.158742 231.394337 
L 1543.62192 236.047983 
L 1544.548277 205.313107 
L 1545.011455 197.857294 
L 1545.474633 197.762296 
L 1545.937811 174.191137 
L 1546.400989 173.403455 
L 1546.864168 181.386993 
L 1547.327346 176.718609 
L 1547.790524 181.814571 
L 1548.253702 172.773094 
L 1548.71688 166.160186 
L 1549.180058 187.24631 
L 1549.643237 196.231319 
L 1550.106415 186.138298 
L 1550.569593 181.13609 
L 1551.032771 190.989041 
L 1551.495949 195.901401 
L 1551.959127 190.799045 
L 1552.422306 184.336358 
L 1552.885484 164.512372 
L 1553.348662 162.723218 
L 1553.81184 173.702825 
L 1554.275018 162.032486 
L 1554.738196 162.404841 
L 1555.201375 170.797314 
L 1556.127731 163.00448 
L 1556.590909 152.035171 
L 1556.590909 152.035171 
" clip-path="url(#p671078613a)" style="fill: none; stroke: #3aa5df; stroke-width: 2.5; stroke-linecap: square"/>
   </g>
   <g id="patch_3">
    <path d="M 225 320.4 
L 225 43.2 
" style="fill: none; stroke: #000000; stroke-width: 0.8; stroke-linejoin: miter; stroke-linecap: square"/>
   </g>
   <g id="patch_4">
    <path d="M 1620 320.4 
L 1620 43.2 
" style="fill: none; stroke: #000000; stroke-width: 0.8; stroke-linejoin: miter; stroke-linecap: square"/>
   </g>
   <g id="patch_5">
    <path d="M 225 320.4 
L 1620 320.4 
" style="fill: none; stroke: #000000; stroke-width: 0.8; stroke-linejoin: miter; stroke-linecap: square"/>
   </g>
   <g id="patch_6">
    <path d="M 225 43.2 
L 1620 43.2 
" style="fill: none; stroke: #000000; stroke-width: 0.8; stroke-linejoin: miter; stroke-linecap: square"/>
   </g>
   <g id="text_16">
    <!-- MT01 -->
    <g transform="translate(895.039062 37.2) scale(0.2 -0.2)">
     <defs>
      <path id="DejaVuSans-4d" d="M 628 4666 
L 1569 4666 
L 2759 1491 
L 3956 4666 
L 4897 4666 
L 4897 0 
L 4281 0 
L 4281 4097 
L 3078 897 
L 2444 897 
L 1241 4097 
L 1241 0 
L 628 0 
L 628 4666 
z
" transform="scale(0.015625)"/>
     </defs>
     <use xlink:href="#DejaVuSans-4d"/>
     <use xlink:href="#DejaVuSans-54" x="86.279297"/>
     <use xlink:href="#DejaVuSans-30" x="147.363281"/>
     <use xlink:href="#DejaVuSans-31" x="210.986328"/>
    </g>
   </g>
   <g id="legend_1">
    <g id="patch_7">
     <path d="M 1554.614063 65.878125 
L 1613 65.878125 
Q 1615 65.878125 1615 63.878125 
L 1615 50.2 
Q 1615 48.2 1613 48.2 
L 1554.614063 48.2 
Q 1552.614063 48.2 1552.614063 50.2 
L 1552.614063 63.878125 
Q 1552.614063 65.878125 1554.614063 65.878125 
z
" style="fill: #ffffff; opacity: 0.8; stroke: #cccccc; stroke-linejoin: miter"/>
    </g>
    <g id="line2d_15">
     <path d="M 1556.614063 56.298437 
L 1566.614063 56.298437 
L 1576.614063 56.298437 
" style="fill: none; stroke: #3aa5df; stroke-width: 2.5; stroke-linecap: square"/>
    </g>
    <g id="text_17">
     <!-- mt01 -->
     <g transform="translate(1584.614063 59.798437) scale(0.1 -0.1)">
      <use xlink:href="#DejaVuSans-6d"/>
      <use xlink:href="#DejaVuSans-74" x="97.412109"/>
      <use xlink:href="#DejaVuSans-30" x="136.621094"/>
      <use xlink:href="#DejaVuSans-31" x="200.244141"/>
     </g>
    </g>
   </g>
  </g>
 </g>
 <defs>
  <clipPath id="p671078613a">
   <rect x="225" y="43.2" width="1395" height="277.2"/>
  </clipPath>
 </defs>
</svg>
