<?xml version="1.0" encoding="utf-8" standalone="no"?>
<!DOCTYPE svg PUBLIC "-//W3C//DTD SVG 1.1//EN"
  "http://www.w3.org/Graphics/SVG/1.1/DTD/svg11.dtd">
<svg xmlns:xlink="http://www.w3.org/1999/xlink" width="1800pt" height="360pt" viewBox="0 0 1800 360" xmlns="http://www.w3.org/2000/svg" version="1.1">
 <metadata>
  <rdf:RDF xmlns:dc="http://purl.org/dc/elements/1.1/" xmlns:cc="http://creativecommons.org/ns#" xmlns:rdf="http://www.w3.org/1999/02/22-rdf-syntax-ns#">
   <cc:Work>
    <dc:type rdf:resource="http://purl.org/dc/dcmitype/StillImage"/>
    <dc:date>2024-03-20T09:36:10.770264</dc:date>
    <dc:format>image/svg+xml</dc:format>
    <dc:creator>
     <cc:Agent>
      <dc:title>Matplotlib v3.7.2, https://matplotlib.org/</dc:title>
     </cc:Agent>
    </dc:creator>
   </cc:Work>
  </rdf:RDF>
 </metadata>
 <defs>
  <style type="text/css">*{stroke-linejoin: round; stroke-linecap: butt}</style>
 </defs>
 <g id="figure_1">
  <g id="patch_1">
   <path d="M 0 360 
L 1800 360 
L 1800 0 
L 0 0 
z
" style="fill: #ffffff"/>
  </g>
  <g id="axes_1">
   <g id="patch_2">
    <path d="M 225 320.4 
L 1620 320.4 
L 1620 43.2 
L 225 43.2 
z
" style="fill: #ffffff"/>
   </g>
   <g id="matplotlib.axis_1">
    <g id="xtick_1">
     <g id="line2d_1">
      <defs>
       <path id="mba98091be8" d="M 0 0 
L 0 3.5 
" style="stroke: #000000; stroke-width: 0.8"/>
      </defs>
      <g>
       <use xlink:href="#mba98091be8" x="281.924597" y="320.4" style="stroke: #000000; stroke-width: 0.8"/>
      </g>
     </g>
     <g id="text_1">
      <!-- 2011 -->
      <g transform="translate(262.837097 338.797656) scale(0.15 -0.15)">
       <defs>
        <path id="DejaVuSans-32" d="M 1228 531 
L 3431 531 
L 3431 0 
L 469 0 
L 469 531 
Q 828 903 1448 1529 
Q 2069 2156 2228 2338 
Q 2531 2678 2651 2914 
Q 2772 3150 2772 3378 
Q 2772 3750 2511 3984 
Q 2250 4219 1831 4219 
Q 1534 4219 1204 4116 
Q 875 4013 500 3803 
L 500 4441 
Q 881 4594 1212 4672 
Q 1544 4750 1819 4750 
Q 2544 4750 2975 4387 
Q 3406 4025 3406 3419 
Q 3406 3131 3298 2873 
Q 3191 2616 2906 2266 
Q 2828 2175 2409 1742 
Q 1991 1309 1228 531 
z
" transform="scale(0.015625)"/>
        <path id="DejaVuSans-30" d="M 2034 4250 
Q 1547 4250 1301 3770 
Q 1056 3291 1056 2328 
Q 1056 1369 1301 889 
Q 1547 409 2034 409 
Q 2525 409 2770 889 
Q 3016 1369 3016 2328 
Q 3016 3291 2770 3770 
Q 2525 4250 2034 4250 
z
M 2034 4750 
Q 2819 4750 3233 4129 
Q 3647 3509 3647 2328 
Q 3647 1150 3233 529 
Q 2819 -91 2034 -91 
Q 1250 -91 836 529 
Q 422 1150 422 2328 
Q 422 3509 836 4129 
Q 1250 4750 2034 4750 
z
" transform="scale(0.015625)"/>
        <path id="DejaVuSans-31" d="M 794 531 
L 1825 531 
L 1825 4091 
L 703 3866 
L 703 4441 
L 1819 4666 
L 2450 4666 
L 2450 531 
L 3481 531 
L 3481 0 
L 794 0 
L 794 531 
z
" transform="scale(0.015625)"/>
       </defs>
       <use xlink:href="#DejaVuSans-32"/>
       <use xlink:href="#DejaVuSans-30" x="63.623047"/>
       <use xlink:href="#DejaVuSans-31" x="127.246094"/>
       <use xlink:href="#DejaVuSans-31" x="190.869141"/>
      </g>
     </g>
    </g>
    <g id="xtick_2">
     <g id="line2d_2">
      <g>
       <use xlink:href="#mba98091be8" x="450.984627" y="320.4" style="stroke: #000000; stroke-width: 0.8"/>
      </g>
     </g>
     <g id="text_2">
      <!-- 2012 -->
      <g transform="translate(431.897127 338.797656) scale(0.15 -0.15)">
       <use xlink:href="#DejaVuSans-32"/>
       <use xlink:href="#DejaVuSans-30" x="63.623047"/>
       <use xlink:href="#DejaVuSans-31" x="127.246094"/>
       <use xlink:href="#DejaVuSans-32" x="190.869141"/>
      </g>
     </g>
    </g>
    <g id="xtick_3">
     <g id="line2d_3">
      <g>
       <use xlink:href="#mba98091be8" x="620.507836" y="320.4" style="stroke: #000000; stroke-width: 0.8"/>
      </g>
     </g>
     <g id="text_3">
      <!-- 2013 -->
      <g transform="translate(601.420336 338.797656) scale(0.15 -0.15)">
       <defs>
        <path id="DejaVuSans-33" d="M 2597 2516 
Q 3050 2419 3304 2112 
Q 3559 1806 3559 1356 
Q 3559 666 3084 287 
Q 2609 -91 1734 -91 
Q 1441 -91 1130 -33 
Q 819 25 488 141 
L 488 750 
Q 750 597 1062 519 
Q 1375 441 1716 441 
Q 2309 441 2620 675 
Q 2931 909 2931 1356 
Q 2931 1769 2642 2001 
Q 2353 2234 1838 2234 
L 1294 2234 
L 1294 2753 
L 1863 2753 
Q 2328 2753 2575 2939 
Q 2822 3125 2822 3475 
Q 2822 3834 2567 4026 
Q 2313 4219 1838 4219 
Q 1578 4219 1281 4162 
Q 984 4106 628 3988 
L 628 4550 
Q 988 4650 1302 4700 
Q 1616 4750 1894 4750 
Q 2613 4750 3031 4423 
Q 3450 4097 3450 3541 
Q 3450 3153 3228 2886 
Q 3006 2619 2597 2516 
z
" transform="scale(0.015625)"/>
       </defs>
       <use xlink:href="#DejaVuSans-32"/>
       <use xlink:href="#DejaVuSans-30" x="63.623047"/>
       <use xlink:href="#DejaVuSans-31" x="127.246094"/>
       <use xlink:href="#DejaVuSans-33" x="190.869141"/>
      </g>
     </g>
    </g>
    <g id="xtick_4">
     <g id="line2d_4">
      <g>
       <use xlink:href="#mba98091be8" x="789.567866" y="320.4" style="stroke: #000000; stroke-width: 0.8"/>
      </g>
     </g>
     <g id="text_4">
      <!-- 2014 -->
      <g transform="translate(770.480366 338.797656) scale(0.15 -0.15)">
       <defs>
        <path id="DejaVuSans-34" d="M 2419 4116 
L 825 1625 
L 2419 1625 
L 2419 4116 
z
M 2253 4666 
L 3047 4666 
L 3047 1625 
L 3713 1625 
L 3713 1100 
L 3047 1100 
L 3047 0 
L 2419 0 
L 2419 1100 
L 313 1100 
L 313 1709 
L 2253 4666 
z
" transform="scale(0.015625)"/>
       </defs>
       <use xlink:href="#DejaVuSans-32"/>
       <use xlink:href="#DejaVuSans-30" x="63.623047"/>
       <use xlink:href="#DejaVuSans-31" x="127.246094"/>
       <use xlink:href="#DejaVuSans-34" x="190.869141"/>
      </g>
     </g>
    </g>
    <g id="xtick_5">
     <g id="line2d_5">
      <g>
       <use xlink:href="#mba98091be8" x="958.627897" y="320.4" style="stroke: #000000; stroke-width: 0.8"/>
      </g>
     </g>
     <g id="text_5">
      <!-- 2015 -->
      <g transform="translate(939.540397 338.797656) scale(0.15 -0.15)">
       <defs>
        <path id="DejaVuSans-35" d="M 691 4666 
L 3169 4666 
L 3169 4134 
L 1269 4134 
L 1269 2991 
Q 1406 3038 1543 3061 
Q 1681 3084 1819 3084 
Q 2600 3084 3056 2656 
Q 3513 2228 3513 1497 
Q 3513 744 3044 326 
Q 2575 -91 1722 -91 
Q 1428 -91 1123 -41 
Q 819 9 494 109 
L 494 744 
Q 775 591 1075 516 
Q 1375 441 1709 441 
Q 2250 441 2565 725 
Q 2881 1009 2881 1497 
Q 2881 1984 2565 2268 
Q 2250 2553 1709 2553 
Q 1456 2553 1204 2497 
Q 953 2441 691 2322 
L 691 4666 
z
" transform="scale(0.015625)"/>
       </defs>
       <use xlink:href="#DejaVuSans-32"/>
       <use xlink:href="#DejaVuSans-30" x="63.623047"/>
       <use xlink:href="#DejaVuSans-31" x="127.246094"/>
       <use xlink:href="#DejaVuSans-35" x="190.869141"/>
      </g>
     </g>
    </g>
    <g id="xtick_6">
     <g id="line2d_6">
      <g>
       <use xlink:href="#mba98091be8" x="1127.687927" y="320.4" style="stroke: #000000; stroke-width: 0.8"/>
      </g>
     </g>
     <g id="text_6">
      <!-- 2016 -->
      <g transform="translate(1108.600427 338.797656) scale(0.15 -0.15)">
       <defs>
        <path id="DejaVuSans-36" d="M 2113 2584 
Q 1688 2584 1439 2293 
Q 1191 2003 1191 1497 
Q 1191 994 1439 701 
Q 1688 409 2113 409 
Q 2538 409 2786 701 
Q 3034 994 3034 1497 
Q 3034 2003 2786 2293 
Q 2538 2584 2113 2584 
z
M 3366 4563 
L 3366 3988 
Q 3128 4100 2886 4159 
Q 2644 4219 2406 4219 
Q 1781 4219 1451 3797 
Q 1122 3375 1075 2522 
Q 1259 2794 1537 2939 
Q 1816 3084 2150 3084 
Q 2853 3084 3261 2657 
Q 3669 2231 3669 1497 
Q 3669 778 3244 343 
Q 2819 -91 2113 -91 
Q 1303 -91 875 529 
Q 447 1150 447 2328 
Q 447 3434 972 4092 
Q 1497 4750 2381 4750 
Q 2619 4750 2861 4703 
Q 3103 4656 3366 4563 
z
" transform="scale(0.015625)"/>
       </defs>
       <use xlink:href="#DejaVuSans-32"/>
       <use xlink:href="#DejaVuSans-30" x="63.623047"/>
       <use xlink:href="#DejaVuSans-31" x="127.246094"/>
       <use xlink:href="#DejaVuSans-36" x="190.869141"/>
      </g>
     </g>
    </g>
    <g id="xtick_7">
     <g id="line2d_7">
      <g>
       <use xlink:href="#mba98091be8" x="1297.211136" y="320.4" style="stroke: #000000; stroke-width: 0.8"/>
      </g>
     </g>
     <g id="text_7">
      <!-- 2017 -->
      <g transform="translate(1278.123636 338.797656) scale(0.15 -0.15)">
       <defs>
        <path id="DejaVuSans-37" d="M 525 4666 
L 3525 4666 
L 3525 4397 
L 1831 0 
L 1172 0 
L 2766 4134 
L 525 4134 
L 525 4666 
z
" transform="scale(0.015625)"/>
       </defs>
       <use xlink:href="#DejaVuSans-32"/>
       <use xlink:href="#DejaVuSans-30" x="63.623047"/>
       <use xlink:href="#DejaVuSans-31" x="127.246094"/>
       <use xlink:href="#DejaVuSans-37" x="190.869141"/>
      </g>
     </g>
    </g>
    <g id="xtick_8">
     <g id="line2d_8">
      <g>
       <use xlink:href="#mba98091be8" x="1466.271167" y="320.4" style="stroke: #000000; stroke-width: 0.8"/>
      </g>
     </g>
     <g id="text_8">
      <!-- 2018 -->
      <g transform="translate(1447.183667 338.797656) scale(0.15 -0.15)">
       <defs>
        <path id="DejaVuSans-38" d="M 2034 2216 
Q 1584 2216 1326 1975 
Q 1069 1734 1069 1313 
Q 1069 891 1326 650 
Q 1584 409 2034 409 
Q 2484 409 2743 651 
Q 3003 894 3003 1313 
Q 3003 1734 2745 1975 
Q 2488 2216 2034 2216 
z
M 1403 2484 
Q 997 2584 770 2862 
Q 544 3141 544 3541 
Q 544 4100 942 4425 
Q 1341 4750 2034 4750 
Q 2731 4750 3128 4425 
Q 3525 4100 3525 3541 
Q 3525 3141 3298 2862 
Q 3072 2584 2669 2484 
Q 3125 2378 3379 2068 
Q 3634 1759 3634 1313 
Q 3634 634 3220 271 
Q 2806 -91 2034 -91 
Q 1263 -91 848 271 
Q 434 634 434 1313 
Q 434 1759 690 2068 
Q 947 2378 1403 2484 
z
M 1172 3481 
Q 1172 3119 1398 2916 
Q 1625 2713 2034 2713 
Q 2441 2713 2670 2916 
Q 2900 3119 2900 3481 
Q 2900 3844 2670 4047 
Q 2441 4250 2034 4250 
Q 1625 4250 1398 4047 
Q 1172 3844 1172 3481 
z
" transform="scale(0.015625)"/>
       </defs>
       <use xlink:href="#DejaVuSans-32"/>
       <use xlink:href="#DejaVuSans-30" x="63.623047"/>
       <use xlink:href="#DejaVuSans-31" x="127.246094"/>
       <use xlink:href="#DejaVuSans-38" x="190.869141"/>
      </g>
     </g>
    </g>
    <g id="text_9">
     <!-- Time -->
     <g transform="translate(904.149609 357.314844) scale(0.15 -0.15)">
      <defs>
       <path id="DejaVuSans-54" d="M -19 4666 
L 3928 4666 
L 3928 4134 
L 2272 4134 
L 2272 0 
L 1638 0 
L 1638 4134 
L -19 4134 
L -19 4666 
z
" transform="scale(0.015625)"/>
       <path id="DejaVuSans-69" d="M 603 3500 
L 1178 3500 
L 1178 0 
L 603 0 
L 603 3500 
z
M 603 4863 
L 1178 4863 
L 1178 4134 
L 603 4134 
L 603 4863 
z
" transform="scale(0.015625)"/>
       <path id="DejaVuSans-6d" d="M 3328 2828 
Q 3544 3216 3844 3400 
Q 4144 3584 4550 3584 
Q 5097 3584 5394 3201 
Q 5691 2819 5691 2113 
L 5691 0 
L 5113 0 
L 5113 2094 
Q 5113 2597 4934 2840 
Q 4756 3084 4391 3084 
Q 3944 3084 3684 2787 
Q 3425 2491 3425 1978 
L 3425 0 
L 2847 0 
L 2847 2094 
Q 2847 2600 2669 2842 
Q 2491 3084 2119 3084 
Q 1678 3084 1418 2786 
Q 1159 2488 1159 1978 
L 1159 0 
L 581 0 
L 581 3500 
L 1159 3500 
L 1159 2956 
Q 1356 3278 1631 3431 
Q 1906 3584 2284 3584 
Q 2666 3584 2933 3390 
Q 3200 3197 3328 2828 
z
" transform="scale(0.015625)"/>
       <path id="DejaVuSans-65" d="M 3597 1894 
L 3597 1613 
L 953 1613 
Q 991 1019 1311 708 
Q 1631 397 2203 397 
Q 2534 397 2845 478 
Q 3156 559 3463 722 
L 3463 178 
Q 3153 47 2828 -22 
Q 2503 -91 2169 -91 
Q 1331 -91 842 396 
Q 353 884 353 1716 
Q 353 2575 817 3079 
Q 1281 3584 2069 3584 
Q 2775 3584 3186 3129 
Q 3597 2675 3597 1894 
z
M 3022 2063 
Q 3016 2534 2758 2815 
Q 2500 3097 2075 3097 
Q 1594 3097 1305 2825 
Q 1016 2553 972 2059 
L 3022 2063 
z
" transform="scale(0.015625)"/>
      </defs>
      <use xlink:href="#DejaVuSans-54"/>
      <use xlink:href="#DejaVuSans-69" x="57.958984"/>
      <use xlink:href="#DejaVuSans-6d" x="85.742188"/>
      <use xlink:href="#DejaVuSans-65" x="183.154297"/>
     </g>
    </g>
   </g>
   <g id="matplotlib.axis_2">
    <g id="ytick_1">
     <g id="line2d_9">
      <defs>
       <path id="mcf18fedafd" d="M 0 0 
L -3.5 0 
" style="stroke: #000000; stroke-width: 0.8"/>
      </defs>
      <g>
       <use xlink:href="#mcf18fedafd" x="225" y="296.713253" style="stroke: #000000; stroke-width: 0.8"/>
      </g>
     </g>
     <g id="text_10">
      <!-- −0.003 -->
      <g transform="translate(162.488281 302.412082) scale(0.15 -0.15)">
       <defs>
        <path id="DejaVuSans-2212" d="M 678 2272 
L 4684 2272 
L 4684 1741 
L 678 1741 
L 678 2272 
z
" transform="scale(0.015625)"/>
        <path id="DejaVuSans-2e" d="M 684 794 
L 1344 794 
L 1344 0 
L 684 0 
L 684 794 
z
" transform="scale(0.015625)"/>
       </defs>
       <use xlink:href="#DejaVuSans-2212"/>
       <use xlink:href="#DejaVuSans-30" x="83.789062"/>
       <use xlink:href="#DejaVuSans-2e" x="147.412109"/>
       <use xlink:href="#DejaVuSans-30" x="179.199219"/>
       <use xlink:href="#DejaVuSans-30" x="242.822266"/>
       <use xlink:href="#DejaVuSans-33" x="306.445312"/>
      </g>
     </g>
    </g>
    <g id="ytick_2">
     <g id="line2d_10">
      <g>
       <use xlink:href="#mcf18fedafd" x="225" y="258.341674" style="stroke: #000000; stroke-width: 0.8"/>
      </g>
     </g>
     <g id="text_11">
      <!-- −0.002 -->
      <g transform="translate(162.488281 264.040502) scale(0.15 -0.15)">
       <use xlink:href="#DejaVuSans-2212"/>
       <use xlink:href="#DejaVuSans-30" x="83.789062"/>
       <use xlink:href="#DejaVuSans-2e" x="147.412109"/>
       <use xlink:href="#DejaVuSans-30" x="179.199219"/>
       <use xlink:href="#DejaVuSans-30" x="242.822266"/>
       <use xlink:href="#DejaVuSans-32" x="306.445312"/>
      </g>
     </g>
    </g>
    <g id="ytick_3">
     <g id="line2d_11">
      <g>
       <use xlink:href="#mcf18fedafd" x="225" y="219.970094" style="stroke: #000000; stroke-width: 0.8"/>
      </g>
     </g>
     <g id="text_12">
      <!-- −0.001 -->
      <g transform="translate(162.488281 225.668922) scale(0.15 -0.15)">
       <use xlink:href="#DejaVuSans-2212"/>
       <use xlink:href="#DejaVuSans-30" x="83.789062"/>
       <use xlink:href="#DejaVuSans-2e" x="147.412109"/>
       <use xlink:href="#DejaVuSans-30" x="179.199219"/>
       <use xlink:href="#DejaVuSans-30" x="242.822266"/>
       <use xlink:href="#DejaVuSans-31" x="306.445312"/>
      </g>
     </g>
    </g>
    <g id="ytick_4">
     <g id="line2d_12">
      <g>
       <use xlink:href="#mcf18fedafd" x="225" y="181.598514" style="stroke: #000000; stroke-width: 0.8"/>
      </g>
     </g>
     <g id="text_13">
      <!-- 0.000 -->
      <g transform="translate(175.057813 187.297342) scale(0.15 -0.15)">
       <use xlink:href="#DejaVuSans-30"/>
       <use xlink:href="#DejaVuSans-2e" x="63.623047"/>
       <use xlink:href="#DejaVuSans-30" x="95.410156"/>
       <use xlink:href="#DejaVuSans-30" x="159.033203"/>
       <use xlink:href="#DejaVuSans-30" x="222.65625"/>
      </g>
     </g>
    </g>
    <g id="ytick_5">
     <g id="line2d_13">
      <g>
       <use xlink:href="#mcf18fedafd" x="225" y="143.226934" style="stroke: #000000; stroke-width: 0.8"/>
      </g>
     </g>
     <g id="text_14">
      <!-- 0.001 -->
      <g transform="translate(175.057813 148.925763) scale(0.15 -0.15)">
       <use xlink:href="#DejaVuSans-30"/>
       <use xlink:href="#DejaVuSans-2e" x="63.623047"/>
       <use xlink:href="#DejaVuSans-30" x="95.410156"/>
       <use xlink:href="#DejaVuSans-30" x="159.033203"/>
       <use xlink:href="#DejaVuSans-31" x="222.65625"/>
      </g>
     </g>
    </g>
    <g id="ytick_6">
     <g id="line2d_14">
      <g>
       <use xlink:href="#mcf18fedafd" x="225" y="104.855355" style="stroke: #000000; stroke-width: 0.8"/>
      </g>
     </g>
     <g id="text_15">
      <!-- 0.002 -->
      <g transform="translate(175.057813 110.554183) scale(0.15 -0.15)">
       <use xlink:href="#DejaVuSans-30"/>
       <use xlink:href="#DejaVuSans-2e" x="63.623047"/>
       <use xlink:href="#DejaVuSans-30" x="95.410156"/>
       <use xlink:href="#DejaVuSans-30" x="159.033203"/>
       <use xlink:href="#DejaVuSans-32" x="222.65625"/>
      </g>
     </g>
    </g>
    <g id="ytick_7">
     <g id="line2d_15">
      <g>
       <use xlink:href="#mcf18fedafd" x="225" y="66.483775" style="stroke: #000000; stroke-width: 0.8"/>
      </g>
     </g>
     <g id="text_16">
      <!-- 0.003 -->
      <g transform="translate(175.057813 72.182603) scale(0.15 -0.15)">
       <use xlink:href="#DejaVuSans-30"/>
       <use xlink:href="#DejaVuSans-2e" x="63.623047"/>
       <use xlink:href="#DejaVuSans-30" x="95.410156"/>
       <use xlink:href="#DejaVuSans-30" x="159.033203"/>
       <use xlink:href="#DejaVuSans-33" x="222.65625"/>
      </g>
     </g>
    </g>
    <g id="text_17">
     <!-- East(m) -->
     <g transform="translate(155.36875 211.140234) rotate(-90) scale(0.15 -0.15)">
      <defs>
       <path id="DejaVuSans-45" d="M 628 4666 
L 3578 4666 
L 3578 4134 
L 1259 4134 
L 1259 2753 
L 3481 2753 
L 3481 2222 
L 1259 2222 
L 1259 531 
L 3634 531 
L 3634 0 
L 628 0 
L 628 4666 
z
" transform="scale(0.015625)"/>
       <path id="DejaVuSans-61" d="M 2194 1759 
Q 1497 1759 1228 1600 
Q 959 1441 959 1056 
Q 959 750 1161 570 
Q 1363 391 1709 391 
Q 2188 391 2477 730 
Q 2766 1069 2766 1631 
L 2766 1759 
L 2194 1759 
z
M 3341 1997 
L 3341 0 
L 2766 0 
L 2766 531 
Q 2569 213 2275 61 
Q 1981 -91 1556 -91 
Q 1019 -91 701 211 
Q 384 513 384 1019 
Q 384 1609 779 1909 
Q 1175 2209 1959 2209 
L 2766 2209 
L 2766 2266 
Q 2766 2663 2505 2880 
Q 2244 3097 1772 3097 
Q 1472 3097 1187 3025 
Q 903 2953 641 2809 
L 641 3341 
Q 956 3463 1253 3523 
Q 1550 3584 1831 3584 
Q 2591 3584 2966 3190 
Q 3341 2797 3341 1997 
z
" transform="scale(0.015625)"/>
       <path id="DejaVuSans-73" d="M 2834 3397 
L 2834 2853 
Q 2591 2978 2328 3040 
Q 2066 3103 1784 3103 
Q 1356 3103 1142 2972 
Q 928 2841 928 2578 
Q 928 2378 1081 2264 
Q 1234 2150 1697 2047 
L 1894 2003 
Q 2506 1872 2764 1633 
Q 3022 1394 3022 966 
Q 3022 478 2636 193 
Q 2250 -91 1575 -91 
Q 1294 -91 989 -36 
Q 684 19 347 128 
L 347 722 
Q 666 556 975 473 
Q 1284 391 1588 391 
Q 1994 391 2212 530 
Q 2431 669 2431 922 
Q 2431 1156 2273 1281 
Q 2116 1406 1581 1522 
L 1381 1569 
Q 847 1681 609 1914 
Q 372 2147 372 2553 
Q 372 3047 722 3315 
Q 1072 3584 1716 3584 
Q 2034 3584 2315 3537 
Q 2597 3491 2834 3397 
z
" transform="scale(0.015625)"/>
       <path id="DejaVuSans-74" d="M 1172 4494 
L 1172 3500 
L 2356 3500 
L 2356 3053 
L 1172 3053 
L 1172 1153 
Q 1172 725 1289 603 
Q 1406 481 1766 481 
L 2356 481 
L 2356 0 
L 1766 0 
Q 1100 0 847 248 
Q 594 497 594 1153 
L 594 3053 
L 172 3053 
L 172 3500 
L 594 3500 
L 594 4494 
L 1172 4494 
z
" transform="scale(0.015625)"/>
       <path id="DejaVuSans-28" d="M 1984 4856 
Q 1566 4138 1362 3434 
Q 1159 2731 1159 2009 
Q 1159 1288 1364 580 
Q 1569 -128 1984 -844 
L 1484 -844 
Q 1016 -109 783 600 
Q 550 1309 550 2009 
Q 550 2706 781 3412 
Q 1013 4119 1484 4856 
L 1984 4856 
z
" transform="scale(0.015625)"/>
       <path id="DejaVuSans-29" d="M 513 4856 
L 1013 4856 
Q 1481 4119 1714 3412 
Q 1947 2706 1947 2009 
Q 1947 1309 1714 600 
Q 1481 -109 1013 -844 
L 513 -844 
Q 928 -128 1133 580 
Q 1338 1288 1338 2009 
Q 1338 2731 1133 3434 
Q 928 4138 513 4856 
z
" transform="scale(0.015625)"/>
      </defs>
      <use xlink:href="#DejaVuSans-45"/>
      <use xlink:href="#DejaVuSans-61" x="63.183594"/>
      <use xlink:href="#DejaVuSans-73" x="124.462891"/>
      <use xlink:href="#DejaVuSans-74" x="176.5625"/>
      <use xlink:href="#DejaVuSans-28" x="215.771484"/>
      <use xlink:href="#DejaVuSans-6d" x="254.785156"/>
      <use xlink:href="#DejaVuSans-29" x="352.197266"/>
     </g>
    </g>
   </g>
   <g id="line2d_16">
    <path d="M 288.409091 218.113039 
L 288.872269 193.179806 
L 289.335447 204.648412 
L 289.798625 208.708105 
L 290.261804 196.681153 
L 290.724982 200.880902 
L 291.18816 200.013045 
L 291.651338 194.805617 
L 292.114516 197.042274 
L 292.577694 185.909177 
L 293.040873 181.332139 
L 293.504051 189.883662 
L 293.967229 187.104607 
L 294.430407 187.581653 
L 294.893585 190.772119 
L 295.819942 210.139089 
L 296.28312 215.993639 
L 296.746298 213.60378 
L 297.209476 216.750393 
L 297.672654 219.08572 
L 298.135832 209.520376 
L 298.599011 208.577675 
L 299.062189 205.064077 
L 299.525367 208.835598 
L 299.988545 211.044847 
L 300.451723 205.40985 
L 300.914901 205.514144 
L 301.37808 215.16748 
L 301.841258 211.774479 
L 302.304436 221.701897 
L 302.767614 222.518807 
L 303.230792 213.057614 
L 303.69397 210.925394 
L 304.157149 209.57705 
L 304.620327 213.217011 
L 306.009861 180.755083 
L 306.473039 179.845271 
L 306.936218 176.381009 
L 307.399396 154.96981 
L 307.862574 144.735704 
L 308.325752 144.982521 
L 309.252108 129.042157 
L 309.715287 133.690742 
L 310.178465 141.392609 
L 310.641643 166.252054 
L 311.567999 194.932355 
L 312.031177 200.315482 
L 312.957534 223.229083 
L 313.420712 232.515148 
L 313.88389 229.297559 
L 314.347068 220.505129 
L 314.810246 205.973406 
L 315.273425 202.119946 
L 316.199781 173.297694 
L 316.662959 158.097209 
L 317.126137 156.145883 
L 317.589315 155.011324 
L 318.052494 164.182274 
L 318.515672 169.368062 
L 318.97885 182.853074 
L 319.442028 186.279251 
L 319.905206 195.505018 
L 320.368384 201.282824 
L 320.831563 204.160836 
L 321.294741 210.85956 
L 321.757919 214.899682 
L 322.221097 206.819866 
L 322.684275 209.774621 
L 324.536988 192.310356 
L 325.463344 188.889947 
L 325.926522 182.745155 
L 326.389701 192.809615 
L 326.852879 209.402725 
L 327.316057 207.906377 
L 328.242413 225.338323 
L 329.16877 237.946413 
L 329.631948 238.078116 
L 330.095126 239.909131 
L 330.558304 246.405034 
L 331.021482 245.451369 
L 331.48466 243.116327 
L 332.411017 233.013924 
L 332.874195 218.208119 
L 333.800551 208.368835 
L 334.263729 205.419848 
L 334.726907 223.745161 
L 335.190086 226.332645 
L 335.653264 226.058705 
L 336.116442 228.991533 
L 336.57962 223.400388 
L 337.042798 219.530483 
L 337.505976 220.473471 
L 337.969155 195.921284 
L 338.895511 184.651289 
L 339.358689 176.280945 
L 339.821867 171.111888 
L 340.285045 169.434645 
L 340.748224 158.83875 
L 341.211402 159.233572 
L 341.67458 153.549239 
L 342.137758 151.4225 
L 342.600936 163.487764 
L 343.527293 174.517138 
L 343.990471 172.998863 
L 344.453649 169.019325 
L 344.916827 177.883302 
L 345.843183 190.354351 
L 346.306362 184.922175 
L 346.76954 190.277894 
L 347.232718 197.502857 
L 347.695896 208.318304 
L 348.159074 214.540124 
L 348.622252 215.806529 
L 349.085431 210.445614 
L 349.548609 213.422295 
L 350.011787 208.598582 
L 350.474965 206.987119 
L 350.938143 203.495448 
L 351.401321 209.750158 
L 351.8645 202.88727 
L 352.790856 205.271932 
L 353.254034 217.178228 
L 354.18039 231.288149 
L 354.643569 240.683847 
L 355.106747 254.936291 
L 355.569925 251.406249 
L 356.033103 256.50433 
L 356.959459 236.86933 
L 357.422638 230.801282 
L 357.885816 239.484365 
L 358.812172 235.280079 
L 359.27535 231.56366 
L 359.738528 233.400157 
L 360.201707 234.189658 
L 360.664885 238.536753 
L 361.128063 237.056849 
L 361.591241 227.184533 
L 362.517597 222.404816 
L 362.980776 237.797444 
L 365.759845 214.001725 
L 369.002092 203.36212 
L 369.46527 196.247076 
L 369.928448 202.721052 
L 370.391626 205.949889 
L 370.854804 187.794793 
L 372.244339 248.142754 
L 372.707517 263.913616 
L 373.170695 260.800179 
L 373.633873 268.365005 
L 374.097052 282.946348 
L 374.56023 305.037557 
L 375.023408 301.995382 
L 375.486586 291.141849 
L 375.949764 297.358188 
L 376.412942 290.939314 
L 376.876121 290.478998 
L 377.339299 282.371774 
L 377.802477 278.649873 
L 378.265655 270.679691 
L 378.728833 272.565523 
L 379.192011 262.939881 
L 379.65519 267.396609 
L 380.118368 257.727113 
L 380.581546 259.722578 
L 381.044724 254.619301 
L 381.507902 256.713436 
L 381.97108 249.318827 
L 382.434259 245.174839 
L 382.897437 237.319772 
L 383.360615 246.967626 
L 383.823793 245.915291 
L 384.286971 244.506649 
L 384.750149 239.754197 
L 385.213328 250.262671 
L 386.602862 238.356947 
L 387.06604 236.443992 
L 387.529218 235.336841 
L 388.455575 222.455239 
L 388.918753 233.972338 
L 389.381931 237.190212 
L 389.845109 235.51845 
L 390.308287 237.667401 
L 390.771466 237.327681 
L 391.234644 242.853332 
L 391.697822 230.020922 
L 392.624178 223.70086 
L 393.087356 225.0166 
L 393.550535 219.880433 
L 394.013713 216.487432 
L 394.476891 216.14223 
L 394.940069 216.986548 
L 395.403247 203.732051 
L 395.866425 195.756387 
L 396.329604 194.227148 
L 396.792782 194.764493 
L 397.25596 206.150032 
L 397.719138 206.659968 
L 398.182316 209.43931 
L 398.645494 206.013419 
L 399.108673 209.71916 
L 400.498207 186.883017 
L 400.961385 184.235521 
L 401.424563 191.789383 
L 401.887742 206.995635 
L 402.35092 213.639543 
L 402.814098 222.086915 
L 403.277276 237.550804 
L 403.740454 234.157803 
L 404.203632 226.110877 
L 404.666811 220.749962 
L 405.129989 213.799368 
L 405.593167 217.565407 
L 406.519523 191.418202 
L 406.982701 187.942976 
L 407.44588 189.319014 
L 407.909058 186.973009 
L 408.835414 187.296712 
L 409.298592 202.064431 
L 409.76177 206.0607 
L 410.224949 212.901948 
L 410.688127 222.07838 
L 411.151305 225.296253 
L 411.614483 238.035761 
L 412.077661 225.230759 
L 412.540839 206.264378 
L 413.004018 200.804794 
L 413.467196 218.998547 
L 413.930374 210.05263 
L 414.393552 213.939266 
L 414.85673 190.499855 
L 415.319908 198.338763 
L 415.783087 210.075128 
L 416.246265 211.878735 
L 416.709443 189.809738 
L 417.172621 184.722906 
L 417.635799 183.99947 
L 418.098977 186.800738 
L 418.562156 184.109389 
L 419.025334 179.746135 
L 419.488512 170.83859 
L 420.878046 134.484687 
L 421.341225 131.239691 
L 421.804403 120.583498 
L 422.267581 115.918753 
L 422.730759 113.753642 
L 423.193937 120.841564 
L 423.657115 131.525451 
L 424.120294 132.013461 
L 424.583472 130.127915 
L 425.04665 130.122576 
L 425.509828 129.327879 
L 426.436184 113.683523 
L 426.899363 115.591282 
L 427.362541 115.805209 
L 427.825719 116.940054 
L 428.288897 122.641118 
L 428.752075 118.787657 
L 429.215253 126.314112 
L 429.678432 130.134967 
L 430.14161 127.076347 
L 431.067966 142.534898 
L 431.531144 144.946969 
L 431.994322 149.968307 
L 432.4575 148.981752 
L 432.920679 153.729007 
L 433.383857 145.44637 
L 433.847035 135.069742 
L 434.310213 127.329789 
L 435.236569 121.398925 
L 435.699748 120.735787 
L 436.162926 108.495396 
L 436.626104 113.725037 
L 437.089282 110.924055 
L 437.55246 116.904682 
L 438.015638 118.521913 
L 438.478817 116.51577 
L 438.941995 118.604424 
L 439.405173 117.645277 
L 439.868351 110.020439 
L 440.331529 110.634527 
L 440.794707 98.882003 
L 441.257886 91.810812 
L 441.721064 87.129622 
L 442.184242 81.286321 
L 442.64742 91.630346 
L 443.110598 98.378405 
L 444.500133 106.146195 
L 444.963311 105.510466 
L 445.426489 108.196619 
L 445.889667 108.810707 
L 446.352845 100.599332 
L 446.816024 106.048239 
L 447.279202 101.586315 
L 447.74238 102.556711 
L 448.668736 106.459792 
L 449.595093 118.114074 
L 450.058271 122.472132 
L 450.521449 120.021976 
L 450.984627 128.420013 
L 451.447805 126.720843 
L 451.910983 123.305915 
L 452.374162 130.525396 
L 452.83734 140.047173 
L 453.300518 143.720024 
L 453.763696 150.511936 
L 454.226874 142.717167 
L 454.690052 145.540362 
L 455.153231 145.343165 
L 455.616409 146.965877 
L 456.079587 144.225193 
L 456.542765 154.947452 
L 457.005943 154.202089 
L 457.469121 165.116206 
L 457.9323 170.417108 
L 458.395478 171.277871 
L 458.858656 155.518258 
L 459.321834 155.068905 
L 459.785012 149.971109 
L 460.24819 150.541344 
L 460.711369 137.851458 
L 461.174547 137.621371 
L 461.637725 147.921542 
L 462.100903 150.262351 
L 462.564081 140.581893 
L 463.027259 134.141092 
L 463.490438 126.110611 
L 463.953616 134.004336 
L 464.416794 130.304362 
L 464.879972 121.391335 
L 465.34315 127.202032 
L 465.806328 131.044814 
L 466.269507 125.864794 
L 467.195863 136.488525 
L 467.659041 139.054082 
L 468.585397 135.589963 
L 469.048576 141.088205 
L 469.511754 144.322523 
L 470.43811 154.469351 
L 470.901288 162.922205 
L 471.364466 178.429947 
L 471.827645 190.023789 
L 472.290823 195.598774 
L 472.754001 202.867591 
L 473.217179 201.458948 
L 473.680357 192.9406 
L 474.143535 173.305458 
L 474.606714 164.266353 
L 475.069892 152.524792 
L 475.53307 150.946219 
L 475.996248 155.737327 
L 476.459426 146.774965 
L 476.922604 148.129077 
L 477.385783 163.198287 
L 477.848961 169.880567 
L 478.312139 179.98888 
L 479.238495 169.091637 
L 479.701673 181.107566 
L 480.164852 181.617502 
L 480.62803 185.427395 
L 481.091208 185.805772 
L 481.554386 182.20995 
L 482.017564 177.375273 
L 482.480742 175.023787 
L 482.943921 170.282298 
L 483.407099 153.853923 
L 483.870277 126.785658 
L 484.333455 125.645616 
L 484.796633 127.613673 
L 485.259811 146.328184 
L 485.72299 148.351057 
L 486.186168 145.698079 
L 486.649346 164.840158 
L 487.112524 189.288479 
L 487.575702 188.8172 
L 488.502059 170.695137 
L 489.428415 165.805787 
L 489.891593 157.561521 
L 490.354771 162.643158 
L 490.817949 165.559541 
L 491.281128 176.643588 
L 491.744306 182.383023 
L 492.207484 178.546008 
L 493.13384 212.280394 
L 493.597018 209.786384 
L 494.060197 205.806846 
L 494.523375 199.831986 
L 494.986553 195.764741 
L 495.449731 197.233967 
L 496.376087 174.019447 
L 496.839266 167.479976 
L 497.302444 172.112117 
L 497.765622 166.986913 
L 498.2288 167.853157 
L 498.691978 174.771148 
L 499.155156 179.452624 
L 499.618335 186.255499 
L 500.081513 188.015253 
L 500.544691 183.690371 
L 501.007869 187.259071 
L 501.471047 180.725081 
L 501.934225 175.934259 
L 502.397404 174.701029 
L 503.32376 168.052068 
L 503.786938 166.879137 
L 504.250116 170.305314 
L 504.713294 166.53956 
L 505.176473 161.134792 
L 505.639651 161.962665 
L 506.102829 158.443585 
L 506.566007 156.201732 
L 507.029185 148.702971 
L 507.492363 150.248941 
L 508.41872 154.499735 
L 508.881898 157.402043 
L 509.808254 148.219815 
L 510.271432 153.841024 
L 510.734611 161.090283 
L 511.197789 152.837424 
L 511.660967 154.591696 
L 512.124145 163.598197 
L 512.587323 158.65937 
L 513.050501 168.652568 
L 513.51368 174.008287 
L 513.976858 162.639479 
L 514.440036 170.604465 
L 514.903214 168.877887 
L 515.366392 182.044964 
L 515.82957 186.29887 
L 516.292749 184.391397 
L 516.755927 184.29287 
L 517.219105 201.373848 
L 517.682283 197.432681 
L 518.145461 214.036755 
L 518.608639 203.199667 
L 519.071818 202.903801 
L 519.534996 211.784223 
L 519.998174 211.356797 
L 520.461352 212.974028 
L 520.92453 208.347655 
L 521.387708 188.926296 
L 521.850887 178.736044 
L 522.777243 169.253068 
L 523.240421 184.004342 
L 523.703599 183.330242 
L 524.166777 192.347706 
L 525.093134 205.624558 
L 525.556312 229.393154 
L 526.01949 234.567978 
L 526.482668 220.94621 
L 526.945846 218.704356 
L 527.409025 221.872895 
L 527.872203 224.224668 
L 528.335381 218.178546 
L 529.261737 191.039162 
L 529.724915 192.21786 
L 530.651272 187.114726 
L 531.11445 173.054425 
L 531.577628 176.091405 
L 532.040806 174.688244 
L 532.503984 180.186486 
L 532.967162 187.888353 
L 533.430341 198.676391 
L 533.893519 199.542636 
L 534.356697 212.715194 
L 534.819875 208.083339 
L 535.283053 213.537727 
L 535.746231 211.295874 
L 536.20941 212.60065 
L 536.672588 216.986116 
L 537.135766 217.715319 
L 537.598944 223.328676 
L 538.062122 247.32202 
L 538.988479 277.904454 
L 539.451657 276.035353 
L 539.914835 264.513059 
L 540.378013 273.042655 
L 540.841191 276.775805 
L 541.767548 244.774193 
L 542.230726 251.895005 
L 542.693904 249.242027 
L 543.157082 254.389443 
L 543.62026 246.6166 
L 544.083438 251.912021 
L 544.546617 251.490076 
L 545.009795 248.206708 
L 545.472973 238.630401 
L 545.936151 241.091807 
L 546.399329 244.693397 
L 546.862507 262.459581 
L 547.325686 264.641422 
L 547.788864 265.979088 
L 548.252042 272.041941 
L 548.71522 271.252726 
L 549.178398 270.008533 
L 549.641576 268.188766 
L 550.104755 251.299933 
L 550.567933 239.317179 
L 551.031111 246.065238 
L 551.494289 226.397206 
L 552.420645 209.481106 
L 552.883824 212.172742 
L 553.347002 213.45011 
L 553.81018 213.494106 
L 554.273358 215.308676 
L 554.736536 229.341854 
L 555.199714 231.172869 
L 555.662893 230.811223 
L 556.126071 226.162923 
L 556.589249 219.94687 
L 557.052427 217.118479 
L 557.978783 207.175044 
L 558.441962 210.891748 
L 558.90514 216.296802 
L 559.368318 207.487927 
L 559.831496 214.285321 
L 560.294674 226.317695 
L 560.757852 231.349996 
L 561.221031 246.095789 
L 562.147387 249.401512 
L 562.610565 248.798673 
L 563.073743 243.284272 
L 564.0001 219.9656 
L 564.463278 212.987597 
L 564.926456 211.705033 
L 565.389634 204.014415 
L 565.852812 208.986418 
L 566.31599 206.640413 
L 566.779169 207.281909 
L 567.242347 212.758225 
L 567.705525 221.074037 
L 568.168703 216.968421 
L 568.631881 223.546549 
L 569.095059 224.193527 
L 569.558238 227.970529 
L 570.484594 240.880111 
L 570.947772 228.979582 
L 571.874128 214.469929 
L 572.337307 211.268786 
L 572.800485 213.943976 
L 573.263663 200.459249 
L 573.726841 192.220466 
L 574.190019 191.864301 
L 574.653197 197.296763 
L 575.116376 194.578006 
L 575.579554 197.982256 
L 576.042732 184.513974 
L 576.50591 183.598681 
L 576.969088 180.720955 
L 577.432266 179.860478 
L 577.895445 177.191056 
L 578.358623 175.585074 
L 578.821801 177.498314 
L 579.284979 182.864996 
L 579.748157 186.81193 
L 580.211335 185.967898 
L 580.674514 181.653979 
L 581.137692 184.56488 
L 581.60087 186.5439 
L 582.064048 179.878352 
L 582.527226 179.966201 
L 582.990404 178.119026 
L 583.453583 179.840409 
L 583.916761 172.769217 
L 584.379939 161.323666 
L 584.843117 153.315112 
L 585.306295 136.086416 
L 585.769473 128.982335 
L 586.232652 114.932998 
L 586.69583 108.853986 
L 587.159008 110.959084 
L 587.622186 114.763495 
L 588.085364 123.457541 
L 588.548542 139.272257 
L 589.474899 160.842852 
L 589.938077 160.503132 
L 590.401255 165.59025 
L 590.864433 177.090903 
L 591.327611 172.190447 
L 591.79079 169.334648 
L 592.253968 160.860154 
L 592.717146 157.12729 
L 593.643502 137.048276 
L 594.10668 123.015384 
L 595.033037 126.688378 
L 595.496215 126.990012 
L 595.959393 128.031669 
L 596.885749 127.116376 
L 597.348928 126.29427 
L 597.812106 123.783816 
L 598.275284 116.487877 
L 598.738462 111.214668 
L 599.20164 109.756691 
L 599.664818 105.311212 
L 600.127997 104.478144 
L 600.591175 103.294249 
L 601.054353 100.158886 
L 601.980709 87.337582 
L 602.443887 88.505317 
L 602.907066 87.228235 
L 603.370244 93.104711 
L 603.833422 92.414165 
L 604.2966 89.898229 
L 604.759778 89.690069 
L 605.222956 91.219593 
L 605.686135 84.066177 
L 606.149313 87.273088 
L 606.612491 93.505871 
L 608.002025 136.016529 
L 608.465204 139.996352 
L 608.928382 145.84542 
L 609.854738 128.753908 
L 610.317916 127.126 
L 610.781094 117.878592 
L 611.244273 111.93114 
L 612.633807 85.899192 
L 613.560163 61.040176 
L 614.023342 60.51408 
L 614.949698 55.8 
L 615.412876 62.975628 
L 615.876054 65.628892 
L 616.339232 79.322207 
L 616.802411 87.11178 
L 617.265589 85.105638 
L 617.728767 75.370363 
L 618.655123 86.054392 
L 619.118301 88.789881 
L 619.58148 86.674105 
L 620.044658 90.533332 
L 620.507836 98.372241 
L 621.89737 112.937425 
L 622.360549 111.682269 
L 622.823727 127.858773 
L 623.286905 137.418921 
L 623.750083 135.41826 
L 624.213261 145.652651 
L 624.676439 151.019334 
L 625.139618 149.479132 
L 625.602796 149.917807 
L 626.529152 135.780906 
L 626.99233 135.802976 
L 627.455508 129.110019 
L 627.918686 114.342585 
L 628.381865 116.025596 
L 628.845043 123.612348 
L 629.308221 124.939051 
L 629.771399 126.698805 
L 631.160934 161.732486 
L 631.624112 158.164072 
L 632.550468 162.478419 
L 633.013646 170.980608 
L 633.476824 173.957289 
L 633.940003 173.305115 
L 634.403181 176.670994 
L 634.866359 186.642265 
L 635.329537 193.549293 
L 635.792715 197.50719 
L 636.255893 198.620108 
L 636.719072 192.157381 
L 637.18225 194.569452 
L 637.645428 187.755898 
L 638.108606 183.61191 
L 638.571784 169.84762 
L 639.034962 160.819478 
L 639.961319 128.856238 
L 640.424497 111.008114 
L 640.887675 110.690321 
L 641.350853 99.34344 
L 641.814031 102.45168 
L 642.27721 103.73453 
L 642.740388 111.814632 
L 643.203566 128.955907 
L 643.666744 140.566194 
L 644.129922 133.357961 
L 644.5931 146.20162 
L 645.056279 155.40546 
L 645.519457 157.702416 
L 645.982635 158.080793 
L 646.445813 161.112291 
L 646.908991 160.246332 
L 647.372169 163.102417 
L 648.761704 147.688434 
L 649.224882 146.701879 
L 649.68806 138.254792 
L 650.614417 131.640948 
L 651.077595 130.207267 
L 651.540773 132.758749 
L 652.003951 122.61472 
L 652.467129 125.034642 
L 652.930307 119.166303 
L 653.393486 118.998884 
L 654.319842 125.511375 
L 654.78302 122.156745 
L 655.246198 128.351157 
L 655.709376 117.048129 
L 656.172555 114.877537 
L 656.635733 120.540228 
L 657.562089 113.036129 
L 658.025267 113.968153 
L 658.488445 106.502283 
L 659.414802 136.646186 
L 659.87798 134.853828 
L 660.804336 147.412583 
L 661.267514 140.675773 
L 661.730693 144.430849 
L 662.193871 145.768515 
L 662.657049 135.413813 
L 663.583405 125.294965 
L 664.046583 116.277787 
L 664.509762 117.960797 
L 664.97294 117.933532 
L 665.436118 111.235093 
L 665.899296 101.987685 
L 666.362474 99.060625 
L 666.825652 103.380311 
L 667.288831 104.745386 
L 667.752009 107.420576 
L 668.678365 88.646196 
L 669.604721 100.607451 
L 670.0679 96.600505 
L 670.531078 110.419898 
L 670.994256 106.867929 
L 671.457434 117.244843 
L 671.920612 135.197404 
L 672.38379 146.676131 
L 672.846969 144.275309 
L 673.310147 150.743804 
L 673.773325 151.599085 
L 674.236503 159.914897 
L 674.699681 163.516487 
L 675.162859 159.027155 
L 675.626038 161.828423 
L 676.089216 175.406623 
L 676.552394 180.131952 
L 677.015572 186.035836 
L 677.47875 202.459015 
L 677.941928 206.197646 
L 678.405107 208.626162 
L 678.868285 201.138365 
L 679.331463 203.753257 
L 679.794641 195.596698 
L 680.257819 182.506651 
L 680.720997 161.479168 
L 681.184176 167.57491 
L 681.647354 177.80382 
L 682.110532 181.822015 
L 682.57371 168.386624 
L 683.036888 162.959929 
L 683.500066 166.320326 
L 683.963245 166.331432 
L 685.352779 149.355177 
L 686.279135 172.636048 
L 687.205492 184.356111 
L 687.66867 191.679744 
L 688.131848 196.936793 
L 688.595026 208.94724 
L 689.058204 206.497084 
L 689.521383 218.556866 
L 689.984561 216.353384 
L 690.447739 203.762167 
L 690.910917 197.579004 
L 691.374095 193.358273 
L 691.837273 194.032659 
L 692.300452 194.197251 
L 692.76363 187.45496 
L 693.226808 182.516132 
L 693.689986 200.200091 
L 694.153164 197.552595 
L 694.616342 200.101707 
L 695.079521 185.416498 
L 695.542699 179.759574 
L 696.005877 180.675153 
L 696.469055 181.228943 
L 696.932233 173.472545 
L 697.395411 182.65994 
L 697.85859 181.996803 
L 698.321768 204.970559 
L 698.784946 195.619 
L 699.248124 190.833658 
L 699.711302 197.121259 
L 700.17448 211.910905 
L 700.637659 221.076373 
L 701.100837 223.01154 
L 701.564015 214.970096 
L 702.027193 239.632201 
L 702.490371 251.527534 
L 702.953549 256.779102 
L 703.416728 251.292108 
L 703.879906 251.823972 
L 704.343084 254.701983 
L 704.806262 255.414741 
L 705.26944 252.931694 
L 706.195797 273.427885 
L 706.658975 278.854866 
L 707.122153 273.395281 
L 707.585331 278.931895 
L 708.048509 280.23119 
L 708.511687 273.823279 
L 708.974866 273.242366 
L 709.438044 270.973104 
L 709.901222 270.041366 
L 710.3644 273.566212 
L 711.290756 285.461688 
L 711.753935 296.293579 
L 712.217113 292.653904 
L 713.143469 307.8 
L 713.606647 302.400713 
L 714.069825 291.37725 
L 714.533004 287.331932 
L 715.922538 259.765121 
L 716.385716 263.849096 
L 716.848894 256.882056 
L 717.312073 258.11009 
L 717.775251 261.777459 
L 718.238429 274.105843 
L 718.701607 278.255598 
L 719.164785 265.593119 
L 719.627963 261.580691 
L 720.091142 273.421207 
L 720.55432 275.065846 
L 721.017498 272.829474 
L 721.480676 248.989903 
L 721.943854 245.476305 
L 722.407032 251.588492 
L 722.870211 244.363815 
L 723.333389 244.177582 
L 724.259745 229.339029 
L 724.722923 250.701179 
L 725.64928 241.338799 
L 726.575636 241.936585 
L 727.038814 245.373725 
L 727.501992 245.922033 
L 727.96517 221.4137 
L 728.891527 246.054021 
L 729.354705 245.917123 
L 730.281061 241.899356 
L 730.744239 247.30441 
L 731.207417 254.715749 
L 731.670596 245.479305 
L 732.133774 241.220202 
L 732.596952 241.527318 
L 733.06013 249.97469 
L 733.523308 250.550406 
L 733.986486 246.176189 
L 734.449665 252.940693 
L 734.912843 245.507713 
L 735.839199 218.461516 
L 736.302377 193.618802 
L 736.765555 189.776305 
L 737.228734 189.622962 
L 737.691912 190.253495 
L 738.15509 196.667173 
L 738.618268 196.963325 
L 739.544624 214.433643 
L 740.007803 214.669497 
L 740.470981 211.676657 
L 740.934159 212.696387 
L 741.397337 209.166345 
L 741.860515 217.142294 
L 742.786872 208.223929 
L 743.25005 216.846714 
L 743.713228 223.150759 
L 744.176406 211.897066 
L 744.639584 206.563559 
L 745.565941 183.091401 
L 746.029119 173.904291 
L 746.492297 159.701468 
L 746.955475 139.41949 
L 747.418653 131.948138 
L 747.881831 136.223971 
L 748.34501 135.741729 
L 748.808188 134.393384 
L 749.271366 144.101537 
L 749.734544 137.901929 
L 750.197722 144.819919 
L 750.6609 148.152908 
L 751.124079 135.939925 
L 751.587257 142.139819 
L 752.050435 136.756977 
L 752.513613 124.99349 
L 752.976791 129.976457 
L 753.439969 137.283645 
L 753.903148 137.42631 
L 754.366326 142.672396 
L 754.829504 135.414829 
L 755.292682 140.145639 
L 755.75586 138.704107 
L 756.219038 133.556977 
L 756.682217 117.797364 
L 757.608573 97.915689 
L 758.071751 101.846178 
L 758.534929 104.620038 
L 758.998107 105.17931 
L 759.461286 107.048697 
L 759.924464 112.338636 
L 760.387642 119.662269 
L 760.85082 123.773652 
L 761.313998 124.250699 
L 761.777176 123.77942 
L 762.240355 125.829701 
L 763.166711 116.39606 
L 763.629889 119.191846 
L 764.093067 120.891302 
L 765.019424 99.836554 
L 765.482602 95.456855 
L 765.94578 102.48996 
L 766.408958 117.997703 
L 766.872136 120.031539 
L 767.335314 126.812488 
L 767.798493 128.857288 
L 768.724849 144.392582 
L 769.188027 137.337836 
L 769.651205 113.070695 
L 770.114383 114.523477 
L 770.577562 103.98788 
L 771.04074 113.728922 
L 771.503918 107.342938 
L 771.967096 95.223143 
L 772.430274 95.990718 
L 772.893452 101.275175 
L 773.356631 100.754561 
L 773.819809 115.566134 
L 774.282987 122.659537 
L 775.209343 153.527018 
L 775.672521 162.226546 
L 776.1357 173.348965 
L 776.598878 179.165143 
L 777.062056 181.99382 
L 777.525234 195.714543 
L 777.988412 194.081153 
L 778.45159 202.945131 
L 778.914769 203.515365 
L 779.377947 206.026106 
L 780.304303 197.343451 
L 780.767481 182.674687 
L 781.230659 176.376409 
L 781.693838 164.415583 
L 782.157016 166.542607 
L 784.009728 139.44188 
L 784.936085 151.688181 
L 785.399263 150.285021 
L 785.862441 143.986743 
L 786.325619 142.490394 
L 787.251976 145.359812 
L 787.715154 144.611338 
L 788.178332 139.696806 
L 788.64151 142.632004 
L 789.104688 135.349398 
L 790.031045 123.842949 
L 790.494223 106.860927 
L 790.957401 106.115565 
L 791.420579 120.998399 
L 792.346935 95.640552 
L 792.810114 99.532669 
L 793.273292 112.951902 
L 793.73647 131.721229 
L 794.199648 126.437057 
L 794.662826 109.657856 
L 795.589183 132.445379 
L 796.052361 136.408757 
L 796.515539 130.823095 
L 796.978717 118.741671 
L 797.441895 120.81388 
L 797.905073 117.239984 
L 798.368252 109.352026 
L 798.83143 114.099282 
L 799.294608 116.971811 
L 799.757786 125.358885 
L 800.684142 145.400099 
L 801.147321 164.218761 
L 801.610499 173.291041 
L 802.073677 173.137698 
L 802.536855 169.618618 
L 803.000033 162.744767 
L 803.92639 144.540479 
L 804.852746 110.170792 
L 805.315924 103.510725 
L 805.779102 100.808413 
L 806.24228 100.95656 
L 806.705459 97.141472 
L 807.168637 82.324703 
L 807.631815 87.554344 
L 808.094993 88.541185 
L 809.947706 109.344634 
L 810.410884 121.711389 
L 810.874062 119.699764 
L 811.33724 118.428163 
L 811.800418 119.787756 
L 812.263597 117.047072 
L 812.726775 115.676801 
L 813.189953 109.192147 
L 813.653131 100.048891 
L 814.116309 99.879102 
L 814.579487 101.030393 
L 815.042666 95.658514 
L 815.505844 96.946846 
L 815.969022 97.500636 
L 816.4322 110.29496 
L 816.895378 129.612452 
L 817.358556 132.857734 
L 817.821735 134.820309 
L 818.284913 136.026416 
L 818.748091 140.598258 
L 819.211269 146.337693 
L 820.137625 128.736387 
L 820.600804 122.947903 
L 821.063982 125.261304 
L 821.52716 137.463609 
L 821.990338 139.305588 
L 822.453516 135.835844 
L 824.306229 179.300451 
L 824.769407 181.169838 
L 825.232585 186.256956 
L 825.695763 189.820174 
L 826.158941 187.265866 
L 826.62212 187.710023 
L 827.085298 192.846476 
L 827.548476 186.745538 
L 828.011654 187.255474 
L 828.474832 188.340985 
L 828.93801 182.305826 
L 829.401189 182.897988 
L 829.864367 185.715701 
L 830.327545 175.569302 
L 831.253901 178.26108 
L 831.717079 176.512575 
L 832.180258 180.700701 
L 832.643436 183.381373 
L 833.106614 177.477774 
L 833.569792 179.056634 
L 834.03297 169.792781 
L 834.496148 158.275968 
L 834.959327 160.106983 
L 835.422505 156.587904 
L 835.885683 149.050772 
L 836.348861 147.050112 
L 836.812039 152.148193 
L 837.275217 169.283987 
L 837.738396 168.32484 
L 838.201574 153.354585 
L 838.664752 161.018081 
L 839.12793 177.983943 
L 839.591108 181.50879 
L 840.054286 186.738431 
L 840.517465 172.782282 
L 840.980643 179.069882 
L 841.443821 190.658242 
L 841.906999 187.429691 
L 842.370177 173.983336 
L 842.833355 186.61321 
L 843.296534 177.765963 
L 843.759712 175.611816 
L 844.22289 180.863383 
L 844.686068 175.283202 
L 845.149246 189.513719 
L 845.612424 189.979803 
L 846.075603 176.626636 
L 846.538781 180.611941 
L 847.001959 193.740646 
L 847.465137 182.136127 
L 847.928315 186.066616 
L 848.391493 167.697735 
L 848.854672 168.755837 
L 849.781028 186.505719 
L 850.244206 184.822994 
L 851.633741 204.447745 
L 852.096919 218.623446 
L 852.560097 208.082367 
L 853.023275 188.173142 
L 853.486453 182.932823 
L 854.41281 198.363966 
L 854.875988 197.931058 
L 855.339166 196.07292 
L 855.802344 204.284581 
L 856.265522 217.583217 
L 856.7287 223.974969 
L 857.191879 219.907724 
L 857.655057 208.708847 
L 858.118235 213.478029 
L 858.581413 200.914221 
L 859.044591 216.284922 
L 859.507769 218.165272 
L 859.970948 213.478601 
L 860.434126 202.674403 
L 861.360482 199.478884 
L 861.82366 196.897168 
L 862.286838 173.496129 
L 862.750017 166.298859 
L 863.213195 177.004673 
L 863.676373 201.047351 
L 864.139551 210.262155 
L 864.602729 210.388376 
L 865.065907 232.293209 
L 865.992264 262.716676 
L 866.455442 269.196134 
L 867.844976 276.360057 
L 868.308155 281.73696 
L 868.771333 290.863315 
L 869.234511 283.813308 
L 869.697689 285.851884 
L 870.160867 290.27498 
L 870.624045 277.88036 
L 871.087224 270.403526 
L 871.550402 270.474931 
L 872.01358 263.288625 
L 872.476758 264.050718 
L 872.939936 266.150334 
L 873.403114 257.385312 
L 873.866293 257.670501 
L 874.329471 260.373099 
L 874.792649 259.984044 
L 875.255827 261.81506 
L 875.719005 252.485427 
L 876.182183 248.116691 
L 876.645362 251.668946 
L 877.10854 260.099873 
L 877.571718 256.821987 
L 878.034896 248.270749 
L 878.498074 248.440823 
L 878.961252 262.254735 
L 879.424431 256.433361 
L 879.887609 245.212557 
L 880.350787 258.982616 
L 880.813965 255.014041 
L 881.277143 258.791043 
L 881.740321 248.425378 
L 882.2035 232.934366 
L 882.666678 239.112333 
L 883.129856 256.708586 
L 883.593034 245.586452 
L 884.056212 240.790148 
L 884.51939 241.398754 
L 884.982569 245.345688 
L 885.445747 261.193293 
L 885.908925 248.503407 
L 886.372103 246.552081 
L 887.298459 239.020573 
L 887.761638 240.774845 
L 888.224816 248.515084 
L 888.687994 234.087513 
L 889.151172 244.217753 
L 889.61435 240.199843 
L 890.077528 241.603289 
L 890.540707 256.798578 
L 891.003885 257.703194 
L 891.467063 253.27416 
L 891.930241 259.068411 
L 892.393419 263.327799 
L 892.856597 264.720282 
L 893.319776 263.426755 
L 893.782954 250.457304 
L 894.246132 248.741689 
L 894.70931 262.215738 
L 895.172488 265.411685 
L 895.635666 269.747816 
L 896.098845 270.208418 
L 897.025201 275.297906 
L 897.488379 279.625444 
L 897.951557 279.019492 
L 898.414735 270.870785 
L 898.877914 268.050246 
L 899.341092 257.632133 
L 899.80427 249.79588 
L 900.267448 245.14758 
L 900.730626 235.872764 
L 901.193804 229.300404 
L 901.656983 228.302885 
L 902.120161 212.400749 
L 902.583339 210.323345 
L 903.046517 209.128487 
L 903.509695 200.061974 
L 903.972873 205.878152 
L 904.436052 206.612837 
L 904.89923 188.896273 
L 905.362408 208.789339 
L 905.825586 208.350949 
L 906.288764 208.148271 
L 906.751942 211.727934 
L 907.215121 209.962984 
L 907.678299 207.085259 
L 908.141477 225.487315 
L 908.604655 214.167842 
L 909.067833 212.315185 
L 909.99419 198.819638 
L 910.457368 191.123539 
L 910.920546 194.242743 
L 911.846902 177.321162 
L 912.31008 174.717519 
L 912.773259 173.237615 
L 913.236437 175.457828 
L 913.699615 178.47288 
L 914.162793 173.402493 
L 914.625971 165.015705 
L 915.089149 166.304036 
L 915.552328 162.92748 
L 916.015506 164.572119 
L 916.478684 171.183137 
L 916.941862 175.042365 
L 917.40504 174.993173 
L 917.868218 179.121001 
L 918.331397 181.571443 
L 919.257753 178.233402 
L 920.184109 165.105125 
L 920.647287 170.499216 
L 921.110466 169.298877 
L 922.036822 160.725855 
L 922.5 163.412008 
L 922.963178 162.633756 
L 923.426356 160.7811 
L 923.889534 148.167956 
L 924.352713 147.192365 
L 925.279069 152.986759 
L 925.742247 161.160048 
L 926.205425 146.063715 
L 926.668603 144.145279 
L 927.131782 149.610631 
L 927.59496 146.820612 
L 928.058138 133.242697 
L 928.521316 131.543527 
L 928.984494 116.79802 
L 929.447672 127.772435 
L 929.910851 124.680925 
L 930.837207 113.520562 
L 931.300385 123.530206 
L 931.763563 123.683835 
L 932.226741 118.12558 
L 933.153098 125.405503 
L 933.616276 126.008628 
L 934.542632 131.698871 
L 935.00581 130.399861 
L 935.468989 132.899639 
L 935.932167 128.086889 
L 936.395345 124.584255 
L 936.858523 115.484851 
L 937.321701 120.226625 
L 937.784879 120.703672 
L 938.248058 113.210393 
L 938.711236 121.986665 
L 939.174414 120.462908 
L 939.637592 122.770827 
L 940.10077 120.293262 
L 940.563948 116.927669 
L 941.027127 116.730473 
L 941.490305 124.108922 
L 942.416661 111.994752 
L 942.879839 108.656567 
L 943.343017 110.657514 
L 943.806196 109.797037 
L 944.269374 100.955271 
L 944.732552 102.9617 
L 945.19573 105.916454 
L 945.658908 107.621391 
L 946.122086 102.298848 
L 946.585265 114.709456 
L 947.048443 113.311777 
L 947.511621 121.934562 
L 948.437977 112.210393 
L 948.901155 119.062604 
L 949.364334 117.769076 
L 949.827512 114.233552 
L 950.29069 112.994841 
L 950.753868 113.493814 
L 951.217046 112.978682 
L 951.680224 110.967057 
L 952.143403 102.761164 
L 952.606581 113.24223 
L 953.069759 127.176738 
L 953.532937 127.467408 
L 953.996115 126.93583 
L 954.459293 140.333136 
L 954.922472 149.909729 
L 955.38565 154.158154 
L 955.848828 151.549029 
L 956.312006 137.949188 
L 956.775184 139.391006 
L 957.238362 132.665159 
L 958.164719 103.760682 
L 959.091075 117.377397 
L 959.554253 132.249267 
L 960.017431 137.38572 
L 960.48061 150.229379 
L 960.943788 156.456681 
L 961.406966 168.615133 
L 961.870144 162.886947 
L 962.333322 170.835489 
L 962.7965 186.754355 
L 963.259679 194.659044 
L 963.722857 200.239511 
L 964.186035 210.051814 
L 965.112391 217.37559 
L 965.575569 213.549538 
L 966.038748 183.230652 
L 966.965104 166.117213 
L 967.89146 154.381277 
L 968.354638 150.856716 
L 969.280995 131.73151 
L 969.744173 127.708118 
L 970.207351 127.132688 
L 970.670529 114.327686 
L 971.133707 118.378771 
L 972.060064 121.541972 
L 972.523242 128.015948 
L 972.98642 128.876711 
L 973.449598 130.329492 
L 973.912776 141.928815 
L 974.839133 124.848266 
L 975.765489 130.458511 
L 976.228667 135.964604 
L 976.691845 121.720297 
L 977.155024 118.488634 
L 977.618202 119.477844 
L 978.08138 124.633112 
L 978.544558 133.631019 
L 979.007736 131.53717 
L 979.470914 121.198913 
L 979.934093 135.889889 
L 980.397271 123.35897 
L 980.860449 126.017715 
L 981.323627 134.262266 
L 981.786805 137.869337 
L 982.249983 136.493585 
L 982.713162 149.890891 
L 983.17634 156.129156 
L 983.639518 172.541372 
L 984.102696 166.467842 
L 984.565874 149.95176 
L 985.029052 142.611968 
L 985.492231 142.590184 
L 985.955409 141.230877 
L 986.418587 146.43311 
L 986.881765 146.22495 
L 987.344943 146.954152 
L 987.808121 146.53769 
L 988.2713 141.555009 
L 988.734478 140.305334 
L 989.197656 136.177792 
L 989.660834 123.328937 
L 990.124012 123.438713 
L 990.58719 127.051266 
L 991.050369 133.78288 
L 991.513547 135.411074 
L 991.976725 136.293763 
L 992.439903 132.347115 
L 992.903081 125.730901 
L 993.829438 108.568127 
L 994.292616 107.861137 
L 994.755794 119.109634 
L 995.218972 116.209982 
L 995.68215 120.940792 
L 996.145328 137.199522 
L 997.071685 151.983829 
L 997.534863 151.803077 
L 997.998041 149.320031 
L 998.461219 158.474536 
L 998.924397 161.144245 
L 999.387576 169.213382 
L 999.850754 166.982492 
L 1000.313932 183.542712 
L 1001.240288 202.56982 
L 1001.703466 203.348358 
L 1002.166645 203.808959 
L 1002.629823 184.941248 
L 1003.093001 181.498912 
L 1003.556179 165.141799 
L 1004.019357 163.716712 
L 1004.482535 155.45052 
L 1004.945714 150.308871 
L 1005.408892 155.43436 
L 1005.87207 171.572493 
L 1006.335248 175.579726 
L 1007.261604 181.489234 
L 1007.724783 181.182405 
L 1008.651139 183.687806 
L 1009.114317 182.536802 
L 1010.040673 203.268704 
L 1010.96703 237.194948 
L 1011.430208 245.011929 
L 1011.893386 250.926777 
L 1012.356564 250.258158 
L 1013.282921 230.129809 
L 1013.746099 215.450082 
L 1014.209277 209.519075 
L 1014.672455 211.728325 
L 1015.135633 209.031494 
L 1015.598811 210.637761 
L 1016.06199 209.30038 
L 1016.525168 217.226995 
L 1016.988346 212.781516 
L 1017.451524 200.360231 
L 1017.914702 191.721286 
L 1018.37788 187.078468 
L 1018.841059 185.38478 
L 1019.767415 178.878342 
L 1020.230593 183.96546 
L 1020.693771 177.0642 
L 1021.156949 188.860863 
L 1021.620127 197.165712 
L 1022.083306 192.747641 
L 1022.546484 206.895934 
L 1023.009662 203.683827 
L 1023.47284 197.632224 
L 1023.936018 215.864349 
L 1024.399196 222.130022 
L 1024.862375 220.743307 
L 1025.325553 232.638639 
L 1025.788731 230.298116 
L 1026.251909 235.801839 
L 1026.715087 244.402698 
L 1027.178265 241.546899 
L 1027.641444 230.30965 
L 1028.5678 216.709952 
L 1029.030978 217.313077 
L 1029.494156 231.72997 
L 1029.957334 229.181144 
L 1030.420513 235.194661 
L 1030.883691 222.959752 
L 1031.346869 220.789159 
L 1032.273225 240.5234 
L 1032.736403 236.845353 
L 1033.199582 239.613732 
L 1033.66276 233.556646 
L 1034.125938 247.255443 
L 1034.589116 255.198503 
L 1035.052294 253.214287 
L 1035.978651 228.152449 
L 1036.441829 228.240299 
L 1036.905007 234.401821 
L 1037.368185 232.724578 
L 1037.831363 232.319078 
L 1038.294541 227.139058 
L 1038.75772 227.780554 
L 1039.220898 230.428336 
L 1039.684076 217.464366 
L 1041.07361 208.738001 
L 1041.536789 191.706644 
L 1041.999967 200.175943 
L 1042.463145 197.742231 
L 1042.926323 194.409528 
L 1043.389501 185.419758 
L 1043.852679 187.365888 
L 1044.315858 191.652685 
L 1044.779036 201.941893 
L 1045.242214 178.853308 
L 1046.16857 219.297239 
L 1046.631748 228.018693 
L 1047.094927 223.167572 
L 1047.558105 225.250744 
L 1048.021283 233.040317 
L 1048.484461 251.162809 
L 1048.947639 235.534755 
L 1049.410817 226.035191 
L 1049.873996 220.350859 
L 1050.337174 228.584446 
L 1050.800352 240.951201 
L 1051.26353 238.956022 
L 1051.726708 244.07603 
L 1052.653065 261.142932 
L 1053.116243 265.733589 
L 1053.579421 268.444039 
L 1054.042599 274.180362 
L 1054.505777 268.525807 
L 1055.432134 293.565547 
L 1055.895312 276.336851 
L 1056.821668 288.566707 
L 1057.284846 290.797883 
L 1057.748024 285.716532 
L 1058.211203 274.824628 
L 1058.674381 259.651552 
L 1060.063915 272.550313 
L 1061.45345 261.964782 
L 1061.916628 264.938351 
L 1062.379806 280.744473 
L 1062.842984 292.006303 
L 1063.769341 271.740171 
L 1064.232519 268.34717 
L 1064.695697 272.491443 
L 1065.158875 261.467979 
L 1065.622053 253.421054 
L 1066.085231 247.714794 
L 1066.54841 243.784591 
L 1067.011588 246.629713 
L 1067.474766 246.898456 
L 1067.937944 238.478778 
L 1068.401122 246.142274 
L 1069.327479 223.388213 
L 1069.790657 224.52854 
L 1070.253835 225.071366 
L 1070.717013 218.603157 
L 1071.180191 226.162501 
L 1072.106548 236.084581 
L 1072.569726 237.871743 
L 1073.032904 240.163217 
L 1073.496082 241.764003 
L 1073.95926 252.831606 
L 1074.422438 247.119865 
L 1074.885617 232.451101 
L 1075.348795 227.293007 
L 1075.811973 218.083971 
L 1076.275151 212.761428 
L 1076.738329 209.143679 
L 1077.201507 176.637612 
L 1077.664686 180.294018 
L 1078.127864 173.601061 
L 1078.591042 160.774133 
L 1079.05422 159.502532 
L 1079.517398 173.448003 
L 1079.980576 179.461521 
L 1080.443755 201.503395 
L 1080.906933 193.017937 
L 1081.370111 197.962532 
L 1081.833289 212.450687 
L 1082.296467 220.547234 
L 1082.759645 211.365605 
L 1083.222824 199.021063 
L 1083.686002 197.130035 
L 1084.14918 191.922606 
L 1084.612358 184.851415 
L 1085.075536 181.025363 
L 1085.538714 168.598596 
L 1086.001893 162.026235 
L 1086.465071 162.854108 
L 1086.928249 165.172991 
L 1087.854605 193.869736 
L 1088.317783 191.375726 
L 1088.780962 205.348606 
L 1089.24414 201.451293 
L 1089.707318 209.12027 
L 1090.633674 189.863504 
L 1091.096852 176.713158 
L 1091.560031 179.59117 
L 1092.023209 179.311748 
L 1092.486387 184.80999 
L 1092.949565 183.483573 
L 1093.412743 196.584869 
L 1093.875921 198.689967 
L 1094.3391 203.102842 
L 1094.802278 205.630027 
L 1095.265456 202.456292 
L 1095.728634 195.960675 
L 1096.191812 191.29593 
L 1096.65499 185.184028 
L 1097.118169 186.044791 
L 1097.581347 188.752871 
L 1098.044525 190.457808 
L 1098.507703 178.853289 
L 1098.970881 179.637308 
L 1099.434059 177.647611 
L 1099.897238 178.546745 
L 1100.360416 182.444344 
L 1100.823594 185.020864 
L 1101.286772 173.832951 
L 1102.676307 186.967423 
L 1103.139485 198.862755 
L 1103.602663 197.508929 
L 1104.065841 183.311588 
L 1104.529019 188.585082 
L 1104.992197 198.380941 
L 1105.455376 198.452345 
L 1105.918554 190.641131 
L 1106.381732 191.726641 
L 1106.84491 189.978136 
L 1107.308088 184.118391 
L 1107.771266 163.688408 
L 1108.697623 152.056624 
L 1109.160801 151.377041 
L 1109.623979 132.991716 
L 1110.087157 121.721577 
L 1110.550335 137.887119 
L 1111.013514 158.42702 
L 1111.476692 159.337117 
L 1111.93987 158.520494 
L 1112.403048 173.501998 
L 1112.866226 179.438772 
L 1113.329404 192.973119 
L 1113.792583 197.00776 
L 1114.255761 203.174763 
L 1114.718939 198.71284 
L 1115.182117 203.553283 
L 1115.645295 197.452345 
L 1116.108473 195.166638 
L 1116.571652 189.290447 
L 1117.03483 178.3218 
L 1117.498008 172.774509 
L 1117.961186 191.050487 
L 1118.424364 193.539301 
L 1118.887542 191.023364 
L 1119.35072 186.687519 
L 1119.813899 184.281215 
L 1120.277077 191.835078 
L 1120.740255 190.804669 
L 1121.203433 178.728728 
L 1121.666611 174.387401 
L 1122.129789 173.071947 
L 1122.592968 177.199775 
L 1123.519324 187.050593 
L 1123.982502 183.125872 
L 1124.44568 176.893374 
L 1125.372037 184.080108 
L 1125.835215 188.734175 
L 1126.298393 191.952049 
L 1126.761571 188.109552 
L 1127.224749 192.971923 
L 1127.687927 199.632275 
L 1128.151106 196.540765 
L 1128.614284 185.15003 
L 1129.54064 176.626344 
L 1130.003818 177.755707 
L 1130.466996 186.652575 
L 1130.930175 178.687874 
L 1131.393353 177.619095 
L 1131.856531 182.223827 
L 1132.319709 185.414293 
L 1132.782887 189.717534 
L 1133.246065 185.431023 
L 1133.709244 171.118567 
L 1134.172422 177.598025 
L 1134.6356 179.094659 
L 1135.098778 181.046271 
L 1135.561956 184.954833 
L 1136.025134 173.53669 
L 1136.488313 177.215023 
L 1136.951491 176.96301 
L 1137.414669 166.685051 
L 1137.877847 166.416593 
L 1138.804203 150.454301 
L 1139.267382 154.050409 
L 1139.73056 148.398967 
L 1140.193738 148.081174 
L 1140.656916 160.009396 
L 1141.120094 158.403414 
L 1141.583272 159.647893 
L 1142.046451 157.652713 
L 1142.509629 150.417073 
L 1142.972807 158.064123 
L 1143.435985 154.446374 
L 1143.899163 146.454265 
L 1144.362341 144.80443 
L 1144.82552 142.354273 
L 1145.288698 145.429624 
L 1145.751876 146.147864 
L 1146.215054 140.567683 
L 1146.678232 141.779271 
L 1147.14141 140.321294 
L 1147.604589 146.970683 
L 1148.067767 161.097049 
L 1148.530945 153.729849 
L 1148.994123 151.685334 
L 1149.457301 144.773111 
L 1149.920479 148.495297 
L 1150.383658 153.544044 
L 1150.846836 135.816517 
L 1151.310014 127.544843 
L 1151.773192 128.263083 
L 1152.23637 136.277404 
L 1152.699548 141.660531 
L 1153.162727 143.491547 
L 1153.625905 137.681136 
L 1154.089083 143.437016 
L 1154.552261 125.523113 
L 1155.015439 127.600802 
L 1155.478617 125.545325 
L 1155.941796 133.762467 
L 1156.868152 145.712759 
L 1157.33133 133.000946 
L 1158.257686 151.010693 
L 1158.720865 145.049165 
L 1159.184043 145.210646 
L 1159.647221 141.299257 
L 1160.110399 133.495894 
L 1160.573577 134.145242 
L 1161.036755 151.294369 
L 1161.499934 150.06114 
L 1161.963112 149.737865 
L 1162.42629 150.554774 
L 1162.889468 159.67639 
L 1163.352646 160.504262 
L 1163.815824 164.900692 
L 1164.279003 170.409897 
L 1164.742181 173.858001 
L 1165.205359 173.830735 
L 1165.668537 178.967188 
L 1166.131715 161.793308 
L 1166.594893 160.236661 
L 1167.058072 148.933633 
L 1167.52125 142.076226 
L 1167.984428 148.40768 
L 1168.447606 151.866746 
L 1169.373962 136.167574 
L 1170.300319 142.937703 
L 1170.763497 149.658354 
L 1171.226675 137.768789 
L 1171.689853 151.193503 
L 1172.153031 154.241445 
L 1172.61621 169.063981 
L 1173.079388 169.475248 
L 1173.542566 182.582026 
L 1174.005744 184.040289 
L 1174.468922 192.169725 
L 1174.9321 190.941978 
L 1175.395279 187.751798 
L 1175.858457 193.233595 
L 1176.321635 195.788188 
L 1176.784813 188.009864 
L 1177.247991 185.406221 
L 1177.711169 190.756458 
L 1178.174348 185.806667 
L 1178.637526 186.135709 
L 1179.100704 178.647913 
L 1179.563882 180.303515 
L 1180.02706 186.519854 
L 1180.490238 195.931997 
L 1180.953417 191.798972 
L 1181.416595 186.366796 
L 1181.879773 195.696714 
L 1182.342951 198.333533 
L 1182.806129 188.713372 
L 1183.269307 184.892802 
L 1184.195664 143.062584 
L 1184.658842 136.961646 
L 1185.12202 128.536486 
L 1185.585198 132.165484 
L 1186.511555 146.363254 
L 1186.974733 150.885762 
L 1187.437911 157.92983 
L 1187.901089 173.004523 
L 1188.364267 172.812807 
L 1188.827445 166.470676 
L 1189.290624 173.048804 
L 1189.753802 167.139724 
L 1190.21698 176.968473 
L 1190.680158 189.461306 
L 1191.143336 185.498212 
L 1191.606514 185.443539 
L 1192.069693 181.140583 
L 1192.532871 162.179684 
L 1192.996049 150.36138 
L 1193.922405 138.252691 
L 1194.385583 146.453389 
L 1194.848762 143.40025 
L 1195.31194 143.658031 
L 1195.775118 152.056068 
L 1196.238296 154.374951 
L 1197.164652 169.86091 
L 1197.627831 163.370774 
L 1198.091009 170.710852 
L 1198.554187 200.361262 
L 1199.017365 207.10384 
L 1199.943721 236.77632 
L 1200.4069 236.66683 
L 1200.870078 241.282526 
L 1201.333256 243.886454 
L 1201.796434 221.981907 
L 1202.259612 221.209136 
L 1202.72279 216.802029 
L 1203.649147 197.759048 
L 1204.112325 202.500822 
L 1204.575503 203.953603 
L 1205.038681 194.267663 
L 1205.501859 202.824668 
L 1205.965038 197.145817 
L 1206.428216 196.301785 
L 1206.891394 208.005259 
L 1207.354572 193.857253 
L 1207.81775 192.492464 
L 1208.280928 195.003204 
L 1208.744107 203.072342 
L 1209.207285 214.128981 
L 1210.133641 208.932659 
L 1211.059997 227.784353 
L 1211.523176 251.673546 
L 1211.986354 243.818478 
L 1212.91271 267.724258 
L 1213.375888 271.166879 
L 1213.839066 268.552273 
L 1214.302245 268.601751 
L 1214.765423 256.29558 
L 1215.228601 264.035819 
L 1215.691779 266.694564 
L 1216.154957 250.770501 
L 1216.618135 248.451904 
L 1217.081314 250.743378 
L 1217.544492 246.86251 
L 1218.00767 251.681027 
L 1218.934026 199.835827 
L 1219.397204 208.085859 
L 1219.860382 208.826025 
L 1220.323561 216.171585 
L 1220.786739 234.009031 
L 1221.249917 239.540163 
L 1221.713095 259.033068 
L 1222.639451 280.768113 
L 1223.10263 285.751079 
L 1223.565808 296.325333 
L 1224.028986 278.723884 
L 1224.492164 288.234697 
L 1224.955342 288.26773 
L 1225.41852 289.567025 
L 1225.881699 278.07762 
L 1226.344877 283.26889 
L 1226.808055 267.410607 
L 1227.271233 267.915062 
L 1227.734411 259.955843 
L 1228.197589 255.373323 
L 1228.660768 252.824496 
L 1229.123946 254.200534 
L 1229.587124 244.558447 
L 1230.050302 251.904007 
L 1230.51348 250.917452 
L 1230.976658 241.664562 
L 1231.439837 241.576999 
L 1231.903015 228.952892 
L 1232.366193 220.757961 
L 1232.829371 221.591316 
L 1233.292549 213.719803 
L 1234.218906 220.374817 
L 1235.145262 231.859168 
L 1235.60844 233.098165 
L 1236.071618 236.513378 
L 1236.534796 229.250329 
L 1236.997975 227.397673 
L 1237.461153 227.819903 
L 1237.924331 217.322678 
L 1238.387509 216.933624 
L 1238.850687 218.167139 
L 1239.313865 218.282396 
L 1239.777044 229.45415 
L 1240.240222 220.409564 
L 1240.7034 223.923447 
L 1241.166578 228.544624 
L 1241.629756 228.807887 
L 1242.092934 232.689041 
L 1242.556113 234.498129 
L 1243.482469 230.806007 
L 1243.945647 233.49453 
L 1244.408825 239.203445 
L 1244.872003 235.692217 
L 1245.335182 236.374454 
L 1245.79836 238.317473 
L 1246.261538 225.158533 
L 1247.187894 228.34366 
L 1247.651072 209.168976 
L 1248.577429 204.367333 
L 1249.040607 199.148941 
L 1249.503785 200.612685 
L 1249.966963 194.128031 
L 1250.430141 189.24402 
L 1251.356498 183.713317 
L 1251.819676 170.557489 
L 1252.282854 168.502012 
L 1252.746032 163.826303 
L 1253.20921 165.553167 
L 1254.135567 181.899746 
L 1254.598745 180.584292 
L 1255.061923 190.977651 
L 1255.525101 197.314586 
L 1255.988279 211.090126 
L 1256.451458 208.535818 
L 1256.914636 205.21956 
L 1257.377814 203.657432 
L 1257.840992 205.948906 
L 1258.30417 211.682859 
L 1258.767348 210.422221 
L 1259.230527 203.915641 
L 1259.693705 211.820329 
L 1260.156883 203.680215 
L 1260.620061 198.779759 
L 1261.083239 202.025041 
L 1262.009596 178.953044 
L 1262.472774 173.707244 
L 1262.935952 164.087084 
L 1263.39913 173.603378 
L 1263.862308 171.81102 
L 1264.325486 164.964577 
L 1264.788665 169.755685 
L 1265.715021 168.957876 
L 1266.178199 163.796671 
L 1266.641377 165.158633 
L 1267.104555 154.022424 
L 1267.567734 158.278701 
L 1268.030912 166.722961 
L 1268.49409 172.311279 
L 1268.957268 170.211948 
L 1269.420446 175.754043 
L 1269.883624 165.311635 
L 1270.346803 166.424554 
L 1270.809981 157.407375 
L 1271.273159 141.406569 
L 1271.736337 141.53279 
L 1272.199515 145.260458 
L 1272.662693 143.095347 
L 1273.125872 151.635907 
L 1273.58905 152.096509 
L 1274.052228 144.827979 
L 1274.515406 142.514863 
L 1274.978584 128.421673 
L 1275.441762 129.59489 
L 1275.904941 134.396962 
L 1276.368119 130.126896 
L 1276.831297 129.074561 
L 1277.294475 122.694059 
L 1277.757653 126.388836 
L 1278.220831 126.520539 
L 1278.68401 115.222992 
L 1279.147188 98.032667 
L 1279.610366 96.602099 
L 1280.073544 100.812152 
L 1280.536722 122.749875 
L 1280.9999 123.029582 
L 1281.463079 128.176998 
L 1281.926257 137.188981 
L 1282.389435 151.008374 
L 1282.852613 150.942737 
L 1283.315791 152.296848 
L 1283.778969 146.552218 
L 1284.242148 152.434175 
L 1285.168504 166.209858 
L 1285.631682 164.899886 
L 1286.558038 175.720957 
L 1287.021217 183.735278 
L 1287.947573 193.312014 
L 1288.410751 196.146172 
L 1288.873929 196.930191 
L 1289.337107 201.951529 
L 1289.800286 198.5969 
L 1290.726642 205.564368 
L 1291.18982 194.233932 
L 1291.652998 195.456483 
L 1292.116176 198.91555 
L 1292.579355 189.772293 
L 1293.042533 188.950188 
L 1293.505711 181.900924 
L 1293.968889 186.763294 
L 1294.432067 189.860571 
L 1294.895245 183.55133 
L 1295.358424 167.501189 
L 1295.821602 178.020627 
L 1296.28478 172.730973 
L 1296.747958 174.709993 
L 1297.211136 160.167307 
L 1297.674314 154.740612 
L 1298.137493 143.903525 
L 1298.600671 171.777879 
L 1299.063849 160.381663 
L 1299.527027 161.384949 
L 1299.990205 153.590179 
L 1300.453383 148.004516 
L 1300.916562 152.68051 
L 1301.37974 160.49201 
L 1301.842918 142.835745 
L 1302.306096 140.336253 
L 1302.769274 142.035709 
L 1303.232452 140.53936 
L 1303.695631 143.24744 
L 1304.158809 137.146502 
L 1304.621987 126.961731 
L 1305.085165 127.548411 
L 1305.548343 127.340251 
L 1306.011521 120.433509 
L 1306.4747 126.912968 
L 1306.937878 131.495773 
L 1307.401056 127.011923 
L 1307.864234 134.472597 
L 1308.327412 131.638725 
L 1308.79059 131.331895 
L 1309.253769 140.130093 
L 1309.716947 140.694846 
L 1310.180125 139.527397 
L 1310.643303 148.490044 
L 1311.106481 155.172324 
L 1311.569659 157.041711 
L 1312.032838 171.310599 
L 1312.496016 168.52058 
L 1312.959194 170.773683 
L 1313.422372 171.930455 
L 1313.88555 172.352685 
L 1314.348728 174.797646 
L 1314.811907 168.099207 
L 1315.275085 148.305096 
L 1317.590975 84.943369 
L 1318.054154 91.505052 
L 1318.517332 91.779278 
L 1318.98051 100.566512 
L 1319.443688 112.790744 
L 1319.906866 131.532663 
L 1320.370044 142.232995 
L 1320.833223 155.564521 
L 1321.296401 146.547342 
L 1321.759579 151.842763 
L 1322.222757 154.737219 
L 1322.685935 152.555664 
L 1323.149113 141.417085 
L 1324.07547 126.622386 
L 1324.538648 147.743343 
L 1325.001826 147.589999 
L 1325.465004 150.687277 
L 1325.928182 146.472027 
L 1326.391361 134.60987 
L 1326.854539 139.417424 
L 1327.317717 133.733091 
L 1328.244073 118.9658 
L 1328.707251 119.799155 
L 1329.17043 115.951176 
L 1329.633608 126.432242 
L 1330.096786 124.469953 
L 1330.559964 127.939983 
L 1331.023142 132.939394 
L 1331.48632 140.356215 
L 1331.949499 136.924842 
L 1332.412677 151.034763 
L 1332.875855 171.645926 
L 1333.339033 178.350132 
L 1333.802211 178.690138 
L 1334.265389 166.36204 
L 1334.728568 168.450693 
L 1335.191746 167.162647 
L 1335.654924 176.585754 
L 1336.118102 161.71965 
L 1336.58128 159.48876 
L 1337.044458 159.68076 
L 1337.507637 173.900314 
L 1338.433993 180.182576 
L 1338.897171 176.658015 
L 1339.360349 182.781166 
L 1339.823527 179.843142 
L 1340.286706 183.181612 
L 1340.749884 171.982735 
L 1341.213062 175.989967 
L 1341.67624 168.436391 
L 1342.139418 158.004945 
L 1342.602596 142.239851 
L 1343.065775 146.027817 
L 1343.528953 143.616032 
L 1343.992131 143.451725 
L 1344.455309 150.161412 
L 1344.918487 167.861817 
L 1345.381665 177.087584 
L 1345.844844 177.635892 
L 1346.308022 164.798001 
L 1346.7712 160.429265 
L 1347.234378 167.714526 
L 1347.697556 161.207945 
L 1348.160734 151.746753 
L 1348.623913 157.365592 
L 1349.087091 182.351114 
L 1349.550269 194.076516 
L 1350.013447 198.050858 
L 1350.939803 174.282691 
L 1351.402982 169.826249 
L 1351.86616 150.196588 
L 1352.329338 140.483239 
L 1352.792516 139.589872 
L 1353.255694 141.355108 
L 1354.182051 165.00325 
L 1354.645229 167.623623 
L 1355.108407 175.901064 
L 1355.571585 179.118938 
L 1356.034763 178.011787 
L 1356.497941 175.254658 
L 1356.96112 173.615786 
L 1357.424298 165.990948 
L 1357.887476 165.99109 
L 1358.350654 163.645085 
L 1358.813832 154.501829 
L 1359.27701 161.502044 
L 1359.740189 156.793446 
L 1360.203367 149.228906 
L 1360.666545 148.933039 
L 1361.129723 153.746075 
L 1361.592901 160.883331 
L 1362.056079 173.716027 
L 1362.519258 171.983967 
L 1362.982436 173.118812 
L 1363.445614 184.80036 
L 1363.908792 188.188165 
L 1364.37197 183.287709 
L 1364.835148 174.670692 
L 1365.298327 160.128006 
L 1365.761505 164.014641 
L 1366.224683 166.722721 
L 1366.687861 156.751735 
L 1368.077396 190.683603 
L 1368.540574 192.262463 
L 1369.003752 191.08405 
L 1369.46693 198.325458 
L 1369.930108 203.023378 
L 1370.393286 189.686657 
L 1370.856465 181.124455 
L 1371.782821 193.332385 
L 1372.245999 192.652803 
L 1372.709177 198.23327 
L 1373.172355 198.096371 
L 1373.635534 209.690213 
L 1374.098712 197.104477 
L 1374.56189 188.465533 
L 1375.025068 196.616896 
L 1375.488246 198.798737 
L 1375.951424 199.867802 
L 1376.414603 203.436502 
L 1376.877781 210.491534 
L 1377.340959 231.804349 
L 1377.804137 245.371586 
L 1378.730493 245.061644 
L 1379.193672 246.111152 
L 1379.65685 250.449653 
L 1380.120028 258.367675 
L 1380.583206 262.651359 
L 1381.046384 268.57954 
L 1381.509562 260.397943 
L 1381.972741 265.068455 
L 1382.435919 262.859491 
L 1382.899097 261.642707 
L 1383.362275 262.931038 
L 1383.825453 254.51136 
L 1384.288631 248.185674 
L 1384.75181 247.248454 
L 1385.214988 248.339446 
L 1385.678166 259.385122 
L 1386.141344 251.869917 
L 1386.604522 253.152767 
L 1387.0677 258.908647 
L 1387.530879 249.244633 
L 1387.994057 255.937876 
L 1388.920413 228.365441 
L 1389.846769 220.06102 
L 1390.309948 212.929531 
L 1390.773126 223.246147 
L 1391.236304 208.385525 
L 1392.625838 246.099735 
L 1393.089017 241.012902 
L 1393.552195 245.173621 
L 1394.015373 235.991993 
L 1394.478551 237.23099 
L 1395.404907 217.99615 
L 1395.868086 211.774616 
L 1396.331264 211.193703 
L 1396.794442 210.064625 
L 1397.25762 219.827594 
L 1397.720798 219.482393 
L 1398.183976 216.171617 
L 1398.647155 223.177314 
L 1399.110333 222.95819 
L 1399.573511 221.105534 
L 1400.036689 222.870769 
L 1400.499867 215.657055 
L 1400.963045 222.180367 
L 1401.426224 217.987044 
L 1401.889402 210.80622 
L 1402.815758 220.646075 
L 1403.278936 220.635254 
L 1403.742114 213.065233 
L 1404.205293 194.712797 
L 1404.668471 197.141313 
L 1405.131649 192.597164 
L 1405.594827 191.709279 
L 1406.521183 183.783093 
L 1406.984362 190.498262 
L 1407.44754 199.948777 
L 1407.910718 202.56915 
L 1408.373896 203.649179 
L 1408.837074 200.672784 
L 1409.300252 206.264214 
L 1409.763431 194.533616 
L 1410.226609 192.532956 
L 1410.689787 191.782112 
L 1411.152965 183.576218 
L 1412.079321 178.02907 
L 1412.5425 164.560788 
L 1413.005678 169.921989 
L 1414.395212 177.717187 
L 1414.85839 187.765202 
L 1415.321568 194.474889 
L 1416.247925 219.844271 
L 1416.711103 226.482697 
L 1417.174281 228.078001 
L 1417.637459 226.033487 
L 1418.563816 208.974865 
L 1419.026994 197.737616 
L 1419.490172 190.962435 
L 1419.95335 179.873191 
L 1420.416528 173.108972 
L 1420.879706 171.957968 
L 1421.342885 187.09844 
L 1421.806063 189.148721 
L 1422.732419 160.896561 
L 1423.195597 153.375874 
L 1423.658775 150.207621 
L 1424.121954 145.718289 
L 1424.585132 136.487326 
L 1425.04831 136.065381 
L 1425.511488 153.809639 
L 1425.974666 165.10199 
L 1426.901023 194.292084 
L 1427.364201 204.482622 
L 1427.827379 198.250124 
L 1428.290557 190.367648 
L 1428.753735 185.478155 
L 1429.216913 186.766487 
L 1430.14327 163.009283 
L 1430.606448 148.631047 
L 1431.069626 145.45183 
L 1431.532804 163.163198 
L 1431.995982 152.402854 
L 1432.459161 148.965999 
L 1432.922339 153.773553 
L 1433.385517 147.480756 
L 1434.311873 155.69256 
L 1434.775051 145.513271 
L 1435.23823 152.475115 
L 1435.701408 164.414301 
L 1436.164586 160.286758 
L 1436.627764 166.431835 
L 1437.090942 158.642547 
L 1437.55412 158.423424 
L 1438.017299 163.724326 
L 1438.480477 165.155181 
L 1438.943655 154.466098 
L 1439.406833 147.104379 
L 1439.870011 137.330733 
L 1440.333189 146.348197 
L 1440.796368 139.638795 
L 1441.259546 131.054667 
L 1441.722724 127.414991 
L 1442.185902 118.721231 
L 1443.112258 137.227581 
L 1443.575437 134.207332 
L 1444.038615 138.335161 
L 1444.501793 125.837132 
L 1444.964971 132.996315 
L 1445.428149 144.233849 
L 1445.891327 136.532268 
L 1446.354506 133.725804 
L 1446.817684 138.670399 
L 1447.280862 137.481023 
L 1447.74404 161.501774 
L 1448.670396 159.994605 
L 1449.596753 173.211159 
L 1450.059931 162.034209 
L 1450.523109 156.974785 
L 1450.986287 148.06724 
L 1451.449465 144.926394 
L 1451.912644 144.241331 
L 1452.839 132.636954 
L 1453.302178 138.529875 
L 1453.765356 136.616921 
L 1454.228534 137.43383 
L 1454.691713 133.717411 
L 1455.154891 131.206957 
L 1455.618069 131.426366 
L 1456.081247 126.312125 
L 1456.544425 106.112372 
L 1457.007603 104.034968 
L 1457.470782 93.011504 
L 1457.93396 93.126762 
L 1458.397138 99.299247 
L 1459.323494 133.099413 
L 1459.786672 154.340966 
L 1460.249851 166.636459 
L 1461.176207 184.490493 
L 1461.639385 186.321508 
L 1462.102563 181.782841 
L 1462.565741 173.226122 
L 1463.02892 170.638924 
L 1464.418454 149.896773 
L 1464.881632 126.446399 
L 1465.34481 125.531105 
L 1465.807989 126.189046 
L 1466.271167 128.316071 
L 1466.734345 135.135392 
L 1467.660701 153.427958 
L 1468.123879 178.276439 
L 1468.587058 179.767592 
L 1469.050236 174.932916 
L 1469.976592 158.148376 
L 1470.43977 161.229209 
L 1470.902948 169.703989 
L 1471.366127 174.231978 
L 1471.829305 175.081778 
L 1472.292483 179.357611 
L 1473.218839 191.576504 
L 1473.682017 187.734007 
L 1474.145196 170.839691 
L 1474.608374 161.575839 
L 1475.071552 156.987837 
L 1475.997908 189.324401 
L 1476.461086 194.685601 
L 1476.924265 192.169665 
L 1477.387443 195.842516 
L 1477.850621 200.447249 
L 1478.313799 201.318974 
L 1478.776977 187.538239 
L 1479.240155 180.362896 
L 1479.703334 179.30508 
L 1480.166512 183.482243 
L 1480.62969 185.806607 
L 1481.092868 184.968057 
L 1481.556046 186.442765 
L 1482.019224 187.281601 
L 1482.482403 179.026372 
L 1482.945581 186.552826 
L 1483.408759 189.408911 
L 1483.871937 194.315134 
L 1484.335115 195.197824 
L 1484.798293 197.92783 
L 1485.261472 198.607698 
L 1485.72465 205.437982 
L 1486.187828 198.9917 
L 1486.651006 195.944043 
L 1487.114184 188.763218 
L 1487.577362 191.317812 
L 1488.040541 186.680476 
L 1488.503719 192.874888 
L 1488.966897 196.821822 
L 1489.430075 201.969238 
L 1489.893253 200.697637 
L 1490.356431 205.675122 
L 1490.81961 205.653338 
L 1491.282788 207.741991 
L 1491.745966 199.980111 
L 1492.209144 194.805573 
L 1492.672322 186.457156 
L 1493.1355 186.303813 
L 1493.598679 182.768288 
L 1494.061857 186.589144 
L 1494.525035 193.92374 
L 1494.988213 190.728079 
L 1495.914569 178.707097 
L 1496.377748 174.508292 
L 1496.840926 184.013624 
L 1497.304104 175.747432 
L 1498.23046 149.117841 
L 1498.693638 139.19619 
L 1499.156817 148.169801 
L 1499.619995 152.714235 
L 1500.083173 138.292145 
L 1500.546351 133.945337 
L 1501.009529 132.098162 
L 1501.472707 146.920698 
L 1501.935886 155.198139 
L 1502.399064 155.850598 
L 1502.862242 153.976015 
L 1503.788598 159.436029 
L 1504.251776 169.347002 
L 1504.714955 172.860886 
L 1505.178133 189.848675 
L 1505.641311 191.21375 
L 1506.104489 187.201322 
L 1506.567667 180.009534 
L 1507.494024 153.253865 
L 1507.957202 150.705039 
L 1508.42038 131.941479 
L 1508.883558 117.941477 
L 1509.346736 119.103731 
L 1510.736271 147.005779 
L 1511.199449 142.510966 
L 1511.662627 144.243311 
L 1512.125805 156.144125 
L 1512.588983 162.541359 
L 1513.052161 161.93852 
L 1513.51534 157.22444 
L 1513.978518 160.436832 
L 1514.904874 180.165591 
L 1515.368052 183.098419 
L 1515.83123 176.197159 
L 1516.294409 172.826085 
L 1517.220765 186.925185 
L 1517.683943 184.157093 
L 1518.147121 189.63889 
L 1518.610299 193.202108 
L 1519.073478 193.147434 
L 1519.536656 196.677762 
L 1519.999834 188.532167 
L 1520.463012 187.046781 
L 1520.92619 180.556646 
L 1521.389368 166.803318 
L 1521.852547 157.385979 
L 1522.315725 165.109772 
L 1522.778903 165.581338 
L 1523.242081 162.626869 
L 1523.705259 161.640314 
L 1524.631616 173.152073 
L 1525.557972 155.72618 
L 1526.02115 156.142929 
L 1526.484328 164.38748 
L 1526.947506 158.494844 
L 1527.410685 165.610174 
L 1527.873863 163.680775 
L 1528.337041 167.540002 
L 1528.800219 174.096203 
L 1529.263397 169.190266 
L 1529.726575 177.423853 
L 1530.189754 180.712989 
L 1530.652932 169.146841 
L 1532.042466 179.91872 
L 1532.505644 189.511758 
L 1532.968823 182.561163 
L 1533.432001 182.056994 
L 1533.895179 192.949184 
L 1534.358357 194.878869 
L 1534.821535 190.46628 
L 1535.284713 183.904883 
L 1535.747892 179.728005 
L 1536.21107 198.447997 
L 1536.674248 197.280547 
L 1537.137426 191.667476 
L 1537.600604 201.172808 
L 1538.063782 225.292229 
L 1538.526961 237.395865 
L 1538.990139 243.453235 
L 1539.453317 223.143849 
L 1539.916495 229.985097 
L 1540.379673 233.811434 
L 1540.842851 231.333869 
L 1541.30603 223.517173 
L 1541.769208 222.333279 
L 1542.232386 226.022575 
L 1542.695564 254.987779 
L 1543.158742 258.885378 
L 1543.62192 257.992011 
L 1544.085099 255.16362 
L 1544.548277 254.703304 
L 1545.011455 256.364388 
L 1545.474633 259.57678 
L 1545.937811 234.361313 
L 1546.400989 240.599579 
L 1547.327346 259.264897 
L 1548.71688 235.074786 
L 1549.180058 250.187849 
L 1549.643237 255.905357 
L 1550.106415 244.27343 
L 1550.569593 226.162187 
L 1551.495949 239.504819 
L 1551.959127 244.032808 
L 1552.422306 237.03836 
L 1552.885484 221.963954 
L 1553.348662 226.64543 
L 1553.81184 242.038058 
L 1554.275018 240.229255 
L 1554.738196 240.125246 
L 1555.201375 229.82536 
L 1555.664553 231.557706 
L 1556.127731 230.456036 
L 1556.590909 236.244806 
L 1556.590909 236.244806 
" clip-path="url(#pa48f386730)" style="fill: none; stroke: #38a9c5; stroke-width: 2.5; stroke-linecap: square"/>
   </g>
   <g id="patch_3">
    <path d="M 225 320.4 
L 225 43.2 
" style="fill: none; stroke: #000000; stroke-width: 0.8; stroke-linejoin: miter; stroke-linecap: square"/>
   </g>
   <g id="patch_4">
    <path d="M 1620 320.4 
L 1620 43.2 
" style="fill: none; stroke: #000000; stroke-width: 0.8; stroke-linejoin: miter; stroke-linecap: square"/>
   </g>
   <g id="patch_5">
    <path d="M 225 320.4 
L 1620 320.4 
" style="fill: none; stroke: #000000; stroke-width: 0.8; stroke-linejoin: miter; stroke-linecap: square"/>
   </g>
   <g id="patch_6">
    <path d="M 225 43.2 
L 1620 43.2 
" style="fill: none; stroke: #000000; stroke-width: 0.8; stroke-linejoin: miter; stroke-linecap: square"/>
   </g>
   <g id="text_18">
    <!-- SARN -->
    <g transform="translate(894.69375 37.2) scale(0.2 -0.2)">
     <defs>
      <path id="DejaVuSans-53" d="M 3425 4513 
L 3425 3897 
Q 3066 4069 2747 4153 
Q 2428 4238 2131 4238 
Q 1616 4238 1336 4038 
Q 1056 3838 1056 3469 
Q 1056 3159 1242 3001 
Q 1428 2844 1947 2747 
L 2328 2669 
Q 3034 2534 3370 2195 
Q 3706 1856 3706 1288 
Q 3706 609 3251 259 
Q 2797 -91 1919 -91 
Q 1588 -91 1214 -16 
Q 841 59 441 206 
L 441 856 
Q 825 641 1194 531 
Q 1563 422 1919 422 
Q 2459 422 2753 634 
Q 3047 847 3047 1241 
Q 3047 1584 2836 1778 
Q 2625 1972 2144 2069 
L 1759 2144 
Q 1053 2284 737 2584 
Q 422 2884 422 3419 
Q 422 4038 858 4394 
Q 1294 4750 2059 4750 
Q 2388 4750 2728 4690 
Q 3069 4631 3425 4513 
z
" transform="scale(0.015625)"/>
      <path id="DejaVuSans-41" d="M 2188 4044 
L 1331 1722 
L 3047 1722 
L 2188 4044 
z
M 1831 4666 
L 2547 4666 
L 4325 0 
L 3669 0 
L 3244 1197 
L 1141 1197 
L 716 0 
L 50 0 
L 1831 4666 
z
" transform="scale(0.015625)"/>
      <path id="DejaVuSans-52" d="M 2841 2188 
Q 3044 2119 3236 1894 
Q 3428 1669 3622 1275 
L 4263 0 
L 3584 0 
L 2988 1197 
Q 2756 1666 2539 1819 
Q 2322 1972 1947 1972 
L 1259 1972 
L 1259 0 
L 628 0 
L 628 4666 
L 2053 4666 
Q 2853 4666 3247 4331 
Q 3641 3997 3641 3322 
Q 3641 2881 3436 2590 
Q 3231 2300 2841 2188 
z
M 1259 4147 
L 1259 2491 
L 2053 2491 
Q 2509 2491 2742 2702 
Q 2975 2913 2975 3322 
Q 2975 3731 2742 3939 
Q 2509 4147 2053 4147 
L 1259 4147 
z
" transform="scale(0.015625)"/>
      <path id="DejaVuSans-4e" d="M 628 4666 
L 1478 4666 
L 3547 763 
L 3547 4666 
L 4159 4666 
L 4159 0 
L 3309 0 
L 1241 3903 
L 1241 0 
L 628 0 
L 628 4666 
z
" transform="scale(0.015625)"/>
     </defs>
     <use xlink:href="#DejaVuSans-53"/>
     <use xlink:href="#DejaVuSans-41" x="65.351562"/>
     <use xlink:href="#DejaVuSans-52" x="133.759766"/>
     <use xlink:href="#DejaVuSans-4e" x="203.242188"/>
    </g>
   </g>
   <g id="legend_1">
    <g id="patch_7">
     <path d="M 1559.389062 65.878125 
L 1613 65.878125 
Q 1615 65.878125 1615 63.878125 
L 1615 50.2 
Q 1615 48.2 1613 48.2 
L 1559.389062 48.2 
Q 1557.389062 48.2 1557.389062 50.2 
L 1557.389062 63.878125 
Q 1557.389062 65.878125 1559.389062 65.878125 
z
" style="fill: #ffffff; opacity: 0.8; stroke: #cccccc; stroke-linejoin: miter"/>
    </g>
    <g id="line2d_17">
     <path d="M 1561.389062 56.298437 
L 1571.389062 56.298437 
L 1581.389062 56.298437 
" style="fill: none; stroke: #38a9c5; stroke-width: 2.5; stroke-linecap: square"/>
    </g>
    <g id="text_19">
     <!-- sarn -->
     <g transform="translate(1589.389062 59.798437) scale(0.1 -0.1)">
      <defs>
       <path id="DejaVuSans-72" d="M 2631 2963 
Q 2534 3019 2420 3045 
Q 2306 3072 2169 3072 
Q 1681 3072 1420 2755 
Q 1159 2438 1159 1844 
L 1159 0 
L 581 0 
L 581 3500 
L 1159 3500 
L 1159 2956 
Q 1341 3275 1631 3429 
Q 1922 3584 2338 3584 
Q 2397 3584 2469 3576 
Q 2541 3569 2628 3553 
L 2631 2963 
z
" transform="scale(0.015625)"/>
       <path id="DejaVuSans-6e" d="M 3513 2113 
L 3513 0 
L 2938 0 
L 2938 2094 
Q 2938 2591 2744 2837 
Q 2550 3084 2163 3084 
Q 1697 3084 1428 2787 
Q 1159 2491 1159 1978 
L 1159 0 
L 581 0 
L 581 3500 
L 1159 3500 
L 1159 2956 
Q 1366 3272 1645 3428 
Q 1925 3584 2291 3584 
Q 2894 3584 3203 3211 
Q 3513 2838 3513 2113 
z
" transform="scale(0.015625)"/>
      </defs>
      <use xlink:href="#DejaVuSans-73"/>
      <use xlink:href="#DejaVuSans-61" x="52.099609"/>
      <use xlink:href="#DejaVuSans-72" x="113.378906"/>
      <use xlink:href="#DejaVuSans-6e" x="152.742188"/>
     </g>
    </g>
   </g>
  </g>
 </g>
 <defs>
  <clipPath id="pa48f386730">
   <rect x="225" y="43.2" width="1395" height="277.2"/>
  </clipPath>
 </defs>
</svg>
