<?xml version="1.0" encoding="utf-8" standalone="no"?>
<!DOCTYPE svg PUBLIC "-//W3C//DTD SVG 1.1//EN"
  "http://www.w3.org/Graphics/SVG/1.1/DTD/svg11.dtd">
<svg xmlns:xlink="http://www.w3.org/1999/xlink" width="4680pt" height="1080pt" viewBox="0 0 4680 1080" xmlns="http://www.w3.org/2000/svg" version="1.1">
 <metadata>
  <rdf:RDF xmlns:dc="http://purl.org/dc/elements/1.1/" xmlns:cc="http://creativecommons.org/ns#" xmlns:rdf="http://www.w3.org/1999/02/22-rdf-syntax-ns#">
   <cc:Work>
    <dc:type rdf:resource="http://purl.org/dc/dcmitype/StillImage"/>
    <dc:date>2024-03-25T14:09:16.620742</dc:date>
    <dc:format>image/svg+xml</dc:format>
    <dc:creator>
     <cc:Agent>
      <dc:title>Matplotlib v3.7.2, https://matplotlib.org/</dc:title>
     </cc:Agent>
    </dc:creator>
   </cc:Work>
  </rdf:RDF>
 </metadata>
 <defs>
  <style type="text/css">*{stroke-linejoin: round; stroke-linecap: butt}</style>
 </defs>
 <g id="figure_1">
  <g id="patch_1">
   <path d="M 0 1080 
L 4680 1080 
L 4680 0 
L 0 0 
z
" style="fill: #ffffff"/>
  </g>
  <g id="axes_1">
   <g id="patch_2">
    <path d="M 585 961.2 
L 4212 961.2 
L 4212 129.6 
L 585 129.6 
z
" style="fill: #ffffff"/>
   </g>
   <g id="matplotlib.axis_1">
    <g id="xtick_1">
     <g id="line2d_1">
      <defs>
       <path id="mb1be7f9999" d="M 0 0 
L 0 3.5 
" style="stroke: #000000; stroke-width: 0.8"/>
      </defs>
      <g>
       <use xlink:href="#mb1be7f9999" x="941.800468" y="961.2" style="stroke: #000000; stroke-width: 0.8"/>
      </g>
     </g>
     <g id="text_1">
      <!-- 2012-07 -->
      <g transform="translate(900.017655 983.396875) scale(0.2 -0.2)">
       <defs>
        <path id="DejaVuSans-32" d="M 1228 531 
L 3431 531 
L 3431 0 
L 469 0 
L 469 531 
Q 828 903 1448 1529 
Q 2069 2156 2228 2338 
Q 2531 2678 2651 2914 
Q 2772 3150 2772 3378 
Q 2772 3750 2511 3984 
Q 2250 4219 1831 4219 
Q 1534 4219 1204 4116 
Q 875 4013 500 3803 
L 500 4441 
Q 881 4594 1212 4672 
Q 1544 4750 1819 4750 
Q 2544 4750 2975 4387 
Q 3406 4025 3406 3419 
Q 3406 3131 3298 2873 
Q 3191 2616 2906 2266 
Q 2828 2175 2409 1742 
Q 1991 1309 1228 531 
z
" transform="scale(0.015625)"/>
        <path id="DejaVuSans-30" d="M 2034 4250 
Q 1547 4250 1301 3770 
Q 1056 3291 1056 2328 
Q 1056 1369 1301 889 
Q 1547 409 2034 409 
Q 2525 409 2770 889 
Q 3016 1369 3016 2328 
Q 3016 3291 2770 3770 
Q 2525 4250 2034 4250 
z
M 2034 4750 
Q 2819 4750 3233 4129 
Q 3647 3509 3647 2328 
Q 3647 1150 3233 529 
Q 2819 -91 2034 -91 
Q 1250 -91 836 529 
Q 422 1150 422 2328 
Q 422 3509 836 4129 
Q 1250 4750 2034 4750 
z
" transform="scale(0.015625)"/>
        <path id="DejaVuSans-31" d="M 794 531 
L 1825 531 
L 1825 4091 
L 703 3866 
L 703 4441 
L 1819 4666 
L 2450 4666 
L 2450 531 
L 3481 531 
L 3481 0 
L 794 0 
L 794 531 
z
" transform="scale(0.015625)"/>
        <path id="DejaVuSans-2d" d="M 313 2009 
L 1997 2009 
L 1997 1497 
L 313 1497 
L 313 2009 
z
" transform="scale(0.015625)"/>
        <path id="DejaVuSans-37" d="M 525 4666 
L 3525 4666 
L 3525 4397 
L 1831 0 
L 1172 0 
L 2766 4134 
L 525 4134 
L 525 4666 
z
" transform="scale(0.015625)"/>
       </defs>
       <use xlink:href="#DejaVuSans-32"/>
       <use xlink:href="#DejaVuSans-30" x="63.623047"/>
       <use xlink:href="#DejaVuSans-31" x="127.246094"/>
       <use xlink:href="#DejaVuSans-32" x="190.869141"/>
       <use xlink:href="#DejaVuSans-2d" x="254.492188"/>
       <use xlink:href="#DejaVuSans-30" x="290.576172"/>
       <use xlink:href="#DejaVuSans-37" x="354.199219"/>
      </g>
     </g>
    </g>
    <g id="xtick_2">
     <g id="line2d_2">
      <g>
       <use xlink:href="#mb1be7f9999" x="1313.551805" y="961.2" style="stroke: #000000; stroke-width: 0.8"/>
      </g>
     </g>
     <g id="text_2">
      <!-- 2013-01 -->
      <g transform="translate(1271.768992 983.396875) scale(0.2 -0.2)">
       <defs>
        <path id="DejaVuSans-33" d="M 2597 2516 
Q 3050 2419 3304 2112 
Q 3559 1806 3559 1356 
Q 3559 666 3084 287 
Q 2609 -91 1734 -91 
Q 1441 -91 1130 -33 
Q 819 25 488 141 
L 488 750 
Q 750 597 1062 519 
Q 1375 441 1716 441 
Q 2309 441 2620 675 
Q 2931 909 2931 1356 
Q 2931 1769 2642 2001 
Q 2353 2234 1838 2234 
L 1294 2234 
L 1294 2753 
L 1863 2753 
Q 2328 2753 2575 2939 
Q 2822 3125 2822 3475 
Q 2822 3834 2567 4026 
Q 2313 4219 1838 4219 
Q 1578 4219 1281 4162 
Q 984 4106 628 3988 
L 628 4550 
Q 988 4650 1302 4700 
Q 1616 4750 1894 4750 
Q 2613 4750 3031 4423 
Q 3450 4097 3450 3541 
Q 3450 3153 3228 2886 
Q 3006 2619 2597 2516 
z
" transform="scale(0.015625)"/>
       </defs>
       <use xlink:href="#DejaVuSans-32"/>
       <use xlink:href="#DejaVuSans-30" x="63.623047"/>
       <use xlink:href="#DejaVuSans-31" x="127.246094"/>
       <use xlink:href="#DejaVuSans-33" x="190.869141"/>
       <use xlink:href="#DejaVuSans-2d" x="254.492188"/>
       <use xlink:href="#DejaVuSans-30" x="290.576172"/>
       <use xlink:href="#DejaVuSans-31" x="354.199219"/>
      </g>
     </g>
    </g>
    <g id="xtick_3">
     <g id="line2d_3">
      <g>
       <use xlink:href="#mb1be7f9999" x="1679.241979" y="961.2" style="stroke: #000000; stroke-width: 0.8"/>
      </g>
     </g>
     <g id="text_3">
      <!-- 2013-07 -->
      <g transform="translate(1637.459166 983.396875) scale(0.2 -0.2)">
       <use xlink:href="#DejaVuSans-32"/>
       <use xlink:href="#DejaVuSans-30" x="63.623047"/>
       <use xlink:href="#DejaVuSans-31" x="127.246094"/>
       <use xlink:href="#DejaVuSans-33" x="190.869141"/>
       <use xlink:href="#DejaVuSans-2d" x="254.492188"/>
       <use xlink:href="#DejaVuSans-30" x="290.576172"/>
       <use xlink:href="#DejaVuSans-37" x="354.199219"/>
      </g>
     </g>
    </g>
    <g id="xtick_4">
     <g id="line2d_4">
      <g>
       <use xlink:href="#mb1be7f9999" x="2050.993316" y="961.2" style="stroke: #000000; stroke-width: 0.8"/>
      </g>
     </g>
     <g id="text_4">
      <!-- 2014-01 -->
      <g transform="translate(2009.210503 983.396875) scale(0.2 -0.2)">
       <defs>
        <path id="DejaVuSans-34" d="M 2419 4116 
L 825 1625 
L 2419 1625 
L 2419 4116 
z
M 2253 4666 
L 3047 4666 
L 3047 1625 
L 3713 1625 
L 3713 1100 
L 3047 1100 
L 3047 0 
L 2419 0 
L 2419 1100 
L 313 1100 
L 313 1709 
L 2253 4666 
z
" transform="scale(0.015625)"/>
       </defs>
       <use xlink:href="#DejaVuSans-32"/>
       <use xlink:href="#DejaVuSans-30" x="63.623047"/>
       <use xlink:href="#DejaVuSans-31" x="127.246094"/>
       <use xlink:href="#DejaVuSans-34" x="190.869141"/>
       <use xlink:href="#DejaVuSans-2d" x="254.492188"/>
       <use xlink:href="#DejaVuSans-30" x="290.576172"/>
       <use xlink:href="#DejaVuSans-31" x="354.199219"/>
      </g>
     </g>
    </g>
    <g id="xtick_5">
     <g id="line2d_5">
      <g>
       <use xlink:href="#mb1be7f9999" x="2416.683489" y="961.2" style="stroke: #000000; stroke-width: 0.8"/>
      </g>
     </g>
     <g id="text_5">
      <!-- 2014-07 -->
      <g transform="translate(2374.900677 983.396875) scale(0.2 -0.2)">
       <use xlink:href="#DejaVuSans-32"/>
       <use xlink:href="#DejaVuSans-30" x="63.623047"/>
       <use xlink:href="#DejaVuSans-31" x="127.246094"/>
       <use xlink:href="#DejaVuSans-34" x="190.869141"/>
       <use xlink:href="#DejaVuSans-2d" x="254.492188"/>
       <use xlink:href="#DejaVuSans-30" x="290.576172"/>
       <use xlink:href="#DejaVuSans-37" x="354.199219"/>
      </g>
     </g>
    </g>
    <g id="xtick_6">
     <g id="line2d_6">
      <g>
       <use xlink:href="#mb1be7f9999" x="2788.434826" y="961.2" style="stroke: #000000; stroke-width: 0.8"/>
      </g>
     </g>
     <g id="text_6">
      <!-- 2015-01 -->
      <g transform="translate(2746.652014 983.396875) scale(0.2 -0.2)">
       <defs>
        <path id="DejaVuSans-35" d="M 691 4666 
L 3169 4666 
L 3169 4134 
L 1269 4134 
L 1269 2991 
Q 1406 3038 1543 3061 
Q 1681 3084 1819 3084 
Q 2600 3084 3056 2656 
Q 3513 2228 3513 1497 
Q 3513 744 3044 326 
Q 2575 -91 1722 -91 
Q 1428 -91 1123 -41 
Q 819 9 494 109 
L 494 744 
Q 775 591 1075 516 
Q 1375 441 1709 441 
Q 2250 441 2565 725 
Q 2881 1009 2881 1497 
Q 2881 1984 2565 2268 
Q 2250 2553 1709 2553 
Q 1456 2553 1204 2497 
Q 953 2441 691 2322 
L 691 4666 
z
" transform="scale(0.015625)"/>
       </defs>
       <use xlink:href="#DejaVuSans-32"/>
       <use xlink:href="#DejaVuSans-30" x="63.623047"/>
       <use xlink:href="#DejaVuSans-31" x="127.246094"/>
       <use xlink:href="#DejaVuSans-35" x="190.869141"/>
       <use xlink:href="#DejaVuSans-2d" x="254.492188"/>
       <use xlink:href="#DejaVuSans-30" x="290.576172"/>
       <use xlink:href="#DejaVuSans-31" x="354.199219"/>
      </g>
     </g>
    </g>
    <g id="xtick_7">
     <g id="line2d_7">
      <g>
       <use xlink:href="#mb1be7f9999" x="3154.125" y="961.2" style="stroke: #000000; stroke-width: 0.8"/>
      </g>
     </g>
     <g id="text_7">
      <!-- 2015-07 -->
      <g transform="translate(3112.342188 983.396875) scale(0.2 -0.2)">
       <use xlink:href="#DejaVuSans-32"/>
       <use xlink:href="#DejaVuSans-30" x="63.623047"/>
       <use xlink:href="#DejaVuSans-31" x="127.246094"/>
       <use xlink:href="#DejaVuSans-35" x="190.869141"/>
       <use xlink:href="#DejaVuSans-2d" x="254.492188"/>
       <use xlink:href="#DejaVuSans-30" x="290.576172"/>
       <use xlink:href="#DejaVuSans-37" x="354.199219"/>
      </g>
     </g>
    </g>
    <g id="xtick_8">
     <g id="line2d_8">
      <g>
       <use xlink:href="#mb1be7f9999" x="3525.876337" y="961.2" style="stroke: #000000; stroke-width: 0.8"/>
      </g>
     </g>
     <g id="text_8">
      <!-- 2016-01 -->
      <g transform="translate(3484.093524 983.396875) scale(0.2 -0.2)">
       <defs>
        <path id="DejaVuSans-36" d="M 2113 2584 
Q 1688 2584 1439 2293 
Q 1191 2003 1191 1497 
Q 1191 994 1439 701 
Q 1688 409 2113 409 
Q 2538 409 2786 701 
Q 3034 994 3034 1497 
Q 3034 2003 2786 2293 
Q 2538 2584 2113 2584 
z
M 3366 4563 
L 3366 3988 
Q 3128 4100 2886 4159 
Q 2644 4219 2406 4219 
Q 1781 4219 1451 3797 
Q 1122 3375 1075 2522 
Q 1259 2794 1537 2939 
Q 1816 3084 2150 3084 
Q 2853 3084 3261 2657 
Q 3669 2231 3669 1497 
Q 3669 778 3244 343 
Q 2819 -91 2113 -91 
Q 1303 -91 875 529 
Q 447 1150 447 2328 
Q 447 3434 972 4092 
Q 1497 4750 2381 4750 
Q 2619 4750 2861 4703 
Q 3103 4656 3366 4563 
z
" transform="scale(0.015625)"/>
       </defs>
       <use xlink:href="#DejaVuSans-32"/>
       <use xlink:href="#DejaVuSans-30" x="63.623047"/>
       <use xlink:href="#DejaVuSans-31" x="127.246094"/>
       <use xlink:href="#DejaVuSans-36" x="190.869141"/>
       <use xlink:href="#DejaVuSans-2d" x="254.492188"/>
       <use xlink:href="#DejaVuSans-30" x="290.576172"/>
       <use xlink:href="#DejaVuSans-31" x="354.199219"/>
      </g>
     </g>
    </g>
    <g id="xtick_9">
     <g id="line2d_9">
      <g>
       <use xlink:href="#mb1be7f9999" x="3893.586898" y="961.2" style="stroke: #000000; stroke-width: 0.8"/>
      </g>
     </g>
     <g id="text_9">
      <!-- 2016-07 -->
      <g transform="translate(3851.804086 983.396875) scale(0.2 -0.2)">
       <use xlink:href="#DejaVuSans-32"/>
       <use xlink:href="#DejaVuSans-30" x="63.623047"/>
       <use xlink:href="#DejaVuSans-31" x="127.246094"/>
       <use xlink:href="#DejaVuSans-36" x="190.869141"/>
       <use xlink:href="#DejaVuSans-2d" x="254.492188"/>
       <use xlink:href="#DejaVuSans-30" x="290.576172"/>
       <use xlink:href="#DejaVuSans-37" x="354.199219"/>
      </g>
     </g>
    </g>
    <g id="text_10">
     <!-- Time -->
     <g transform="translate(2374.032813 1006.753125) scale(0.2 -0.2)">
      <defs>
       <path id="DejaVuSans-54" d="M -19 4666 
L 3928 4666 
L 3928 4134 
L 2272 4134 
L 2272 0 
L 1638 0 
L 1638 4134 
L -19 4134 
L -19 4666 
z
" transform="scale(0.015625)"/>
       <path id="DejaVuSans-69" d="M 603 3500 
L 1178 3500 
L 1178 0 
L 603 0 
L 603 3500 
z
M 603 4863 
L 1178 4863 
L 1178 4134 
L 603 4134 
L 603 4863 
z
" transform="scale(0.015625)"/>
       <path id="DejaVuSans-6d" d="M 3328 2828 
Q 3544 3216 3844 3400 
Q 4144 3584 4550 3584 
Q 5097 3584 5394 3201 
Q 5691 2819 5691 2113 
L 5691 0 
L 5113 0 
L 5113 2094 
Q 5113 2597 4934 2840 
Q 4756 3084 4391 3084 
Q 3944 3084 3684 2787 
Q 3425 2491 3425 1978 
L 3425 0 
L 2847 0 
L 2847 2094 
Q 2847 2600 2669 2842 
Q 2491 3084 2119 3084 
Q 1678 3084 1418 2786 
Q 1159 2488 1159 1978 
L 1159 0 
L 581 0 
L 581 3500 
L 1159 3500 
L 1159 2956 
Q 1356 3278 1631 3431 
Q 1906 3584 2284 3584 
Q 2666 3584 2933 3390 
Q 3200 3197 3328 2828 
z
" transform="scale(0.015625)"/>
       <path id="DejaVuSans-65" d="M 3597 1894 
L 3597 1613 
L 953 1613 
Q 991 1019 1311 708 
Q 1631 397 2203 397 
Q 2534 397 2845 478 
Q 3156 559 3463 722 
L 3463 178 
Q 3153 47 2828 -22 
Q 2503 -91 2169 -91 
Q 1331 -91 842 396 
Q 353 884 353 1716 
Q 353 2575 817 3079 
Q 1281 3584 2069 3584 
Q 2775 3584 3186 3129 
Q 3597 2675 3597 1894 
z
M 3022 2063 
Q 3016 2534 2758 2815 
Q 2500 3097 2075 3097 
Q 1594 3097 1305 2825 
Q 1016 2553 972 2059 
L 3022 2063 
z
" transform="scale(0.015625)"/>
      </defs>
      <use xlink:href="#DejaVuSans-54"/>
      <use xlink:href="#DejaVuSans-69" x="57.958984"/>
      <use xlink:href="#DejaVuSans-6d" x="85.742188"/>
      <use xlink:href="#DejaVuSans-65" x="183.154297"/>
     </g>
    </g>
   </g>
   <g id="matplotlib.axis_2">
    <g id="ytick_1">
     <g id="line2d_10">
      <defs>
       <path id="m056cef17b1" d="M 0 0 
L -3.5 0 
" style="stroke: #000000; stroke-width: 0.8"/>
      </defs>
      <g>
       <use xlink:href="#m056cef17b1" x="585" y="904.862918" style="stroke: #000000; stroke-width: 0.8"/>
      </g>
     </g>
     <g id="text_11">
      <!-- −0.0125 -->
      <g transform="translate(491.259375 912.461356) scale(0.2 -0.2)">
       <defs>
        <path id="DejaVuSans-2212" d="M 678 2272 
L 4684 2272 
L 4684 1741 
L 678 1741 
L 678 2272 
z
" transform="scale(0.015625)"/>
        <path id="DejaVuSans-2e" d="M 684 794 
L 1344 794 
L 1344 0 
L 684 0 
L 684 794 
z
" transform="scale(0.015625)"/>
       </defs>
       <use xlink:href="#DejaVuSans-2212"/>
       <use xlink:href="#DejaVuSans-30" x="83.789062"/>
       <use xlink:href="#DejaVuSans-2e" x="147.412109"/>
       <use xlink:href="#DejaVuSans-30" x="179.199219"/>
       <use xlink:href="#DejaVuSans-31" x="242.822266"/>
       <use xlink:href="#DejaVuSans-32" x="306.445312"/>
       <use xlink:href="#DejaVuSans-35" x="370.068359"/>
      </g>
     </g>
    </g>
    <g id="ytick_2">
     <g id="line2d_11">
      <g>
       <use xlink:href="#m056cef17b1" x="585" y="809.039817" style="stroke: #000000; stroke-width: 0.8"/>
      </g>
     </g>
     <g id="text_12">
      <!-- −0.0100 -->
      <g transform="translate(491.259375 816.638254) scale(0.2 -0.2)">
       <use xlink:href="#DejaVuSans-2212"/>
       <use xlink:href="#DejaVuSans-30" x="83.789062"/>
       <use xlink:href="#DejaVuSans-2e" x="147.412109"/>
       <use xlink:href="#DejaVuSans-30" x="179.199219"/>
       <use xlink:href="#DejaVuSans-31" x="242.822266"/>
       <use xlink:href="#DejaVuSans-30" x="306.445312"/>
       <use xlink:href="#DejaVuSans-30" x="370.068359"/>
      </g>
     </g>
    </g>
    <g id="ytick_3">
     <g id="line2d_12">
      <g>
       <use xlink:href="#m056cef17b1" x="585" y="713.216716" style="stroke: #000000; stroke-width: 0.8"/>
      </g>
     </g>
     <g id="text_13">
      <!-- −0.0075 -->
      <g transform="translate(491.259375 720.815153) scale(0.2 -0.2)">
       <use xlink:href="#DejaVuSans-2212"/>
       <use xlink:href="#DejaVuSans-30" x="83.789062"/>
       <use xlink:href="#DejaVuSans-2e" x="147.412109"/>
       <use xlink:href="#DejaVuSans-30" x="179.199219"/>
       <use xlink:href="#DejaVuSans-30" x="242.822266"/>
       <use xlink:href="#DejaVuSans-37" x="306.445312"/>
       <use xlink:href="#DejaVuSans-35" x="370.068359"/>
      </g>
     </g>
    </g>
    <g id="ytick_4">
     <g id="line2d_13">
      <g>
       <use xlink:href="#m056cef17b1" x="585" y="617.393615" style="stroke: #000000; stroke-width: 0.8"/>
      </g>
     </g>
     <g id="text_14">
      <!-- −0.0050 -->
      <g transform="translate(491.259375 624.992052) scale(0.2 -0.2)">
       <use xlink:href="#DejaVuSans-2212"/>
       <use xlink:href="#DejaVuSans-30" x="83.789062"/>
       <use xlink:href="#DejaVuSans-2e" x="147.412109"/>
       <use xlink:href="#DejaVuSans-30" x="179.199219"/>
       <use xlink:href="#DejaVuSans-30" x="242.822266"/>
       <use xlink:href="#DejaVuSans-35" x="306.445312"/>
       <use xlink:href="#DejaVuSans-30" x="370.068359"/>
      </g>
     </g>
    </g>
    <g id="ytick_5">
     <g id="line2d_14">
      <g>
       <use xlink:href="#m056cef17b1" x="585" y="521.570513" style="stroke: #000000; stroke-width: 0.8"/>
      </g>
     </g>
     <g id="text_15">
      <!-- −0.0025 -->
      <g transform="translate(491.259375 529.168951) scale(0.2 -0.2)">
       <use xlink:href="#DejaVuSans-2212"/>
       <use xlink:href="#DejaVuSans-30" x="83.789062"/>
       <use xlink:href="#DejaVuSans-2e" x="147.412109"/>
       <use xlink:href="#DejaVuSans-30" x="179.199219"/>
       <use xlink:href="#DejaVuSans-30" x="242.822266"/>
       <use xlink:href="#DejaVuSans-32" x="306.445312"/>
       <use xlink:href="#DejaVuSans-35" x="370.068359"/>
      </g>
     </g>
    </g>
    <g id="ytick_6">
     <g id="line2d_15">
      <g>
       <use xlink:href="#m056cef17b1" x="585" y="425.747412" style="stroke: #000000; stroke-width: 0.8"/>
      </g>
     </g>
     <g id="text_16">
      <!-- 0.0000 -->
      <g transform="translate(508.01875 433.34585) scale(0.2 -0.2)">
       <use xlink:href="#DejaVuSans-30"/>
       <use xlink:href="#DejaVuSans-2e" x="63.623047"/>
       <use xlink:href="#DejaVuSans-30" x="95.410156"/>
       <use xlink:href="#DejaVuSans-30" x="159.033203"/>
       <use xlink:href="#DejaVuSans-30" x="222.65625"/>
       <use xlink:href="#DejaVuSans-30" x="286.279297"/>
      </g>
     </g>
    </g>
    <g id="ytick_7">
     <g id="line2d_16">
      <g>
       <use xlink:href="#m056cef17b1" x="585" y="329.924311" style="stroke: #000000; stroke-width: 0.8"/>
      </g>
     </g>
     <g id="text_17">
      <!-- 0.0025 -->
      <g transform="translate(508.01875 337.522748) scale(0.2 -0.2)">
       <use xlink:href="#DejaVuSans-30"/>
       <use xlink:href="#DejaVuSans-2e" x="63.623047"/>
       <use xlink:href="#DejaVuSans-30" x="95.410156"/>
       <use xlink:href="#DejaVuSans-30" x="159.033203"/>
       <use xlink:href="#DejaVuSans-32" x="222.65625"/>
       <use xlink:href="#DejaVuSans-35" x="286.279297"/>
      </g>
     </g>
    </g>
    <g id="ytick_8">
     <g id="line2d_17">
      <g>
       <use xlink:href="#m056cef17b1" x="585" y="234.10121" style="stroke: #000000; stroke-width: 0.8"/>
      </g>
     </g>
     <g id="text_18">
      <!-- 0.0050 -->
      <g transform="translate(508.01875 241.699647) scale(0.2 -0.2)">
       <use xlink:href="#DejaVuSans-30"/>
       <use xlink:href="#DejaVuSans-2e" x="63.623047"/>
       <use xlink:href="#DejaVuSans-30" x="95.410156"/>
       <use xlink:href="#DejaVuSans-30" x="159.033203"/>
       <use xlink:href="#DejaVuSans-35" x="222.65625"/>
       <use xlink:href="#DejaVuSans-30" x="286.279297"/>
      </g>
     </g>
    </g>
    <g id="ytick_9">
     <g id="line2d_18">
      <g>
       <use xlink:href="#m056cef17b1" x="585" y="138.278108" style="stroke: #000000; stroke-width: 0.8"/>
      </g>
     </g>
     <g id="text_19">
      <!-- 0.0075 -->
      <g transform="translate(508.01875 145.876546) scale(0.2 -0.2)">
       <use xlink:href="#DejaVuSans-30"/>
       <use xlink:href="#DejaVuSans-2e" x="63.623047"/>
       <use xlink:href="#DejaVuSans-30" x="95.410156"/>
       <use xlink:href="#DejaVuSans-30" x="159.033203"/>
       <use xlink:href="#DejaVuSans-37" x="222.65625"/>
       <use xlink:href="#DejaVuSans-35" x="286.279297"/>
      </g>
     </g>
    </g>
    <g id="text_20">
     <!-- East(m) -->
     <g transform="translate(483.1 584.520313) rotate(-90) scale(0.2 -0.2)">
      <defs>
       <path id="DejaVuSans-45" d="M 628 4666 
L 3578 4666 
L 3578 4134 
L 1259 4134 
L 1259 2753 
L 3481 2753 
L 3481 2222 
L 1259 2222 
L 1259 531 
L 3634 531 
L 3634 0 
L 628 0 
L 628 4666 
z
" transform="scale(0.015625)"/>
       <path id="DejaVuSans-61" d="M 2194 1759 
Q 1497 1759 1228 1600 
Q 959 1441 959 1056 
Q 959 750 1161 570 
Q 1363 391 1709 391 
Q 2188 391 2477 730 
Q 2766 1069 2766 1631 
L 2766 1759 
L 2194 1759 
z
M 3341 1997 
L 3341 0 
L 2766 0 
L 2766 531 
Q 2569 213 2275 61 
Q 1981 -91 1556 -91 
Q 1019 -91 701 211 
Q 384 513 384 1019 
Q 384 1609 779 1909 
Q 1175 2209 1959 2209 
L 2766 2209 
L 2766 2266 
Q 2766 2663 2505 2880 
Q 2244 3097 1772 3097 
Q 1472 3097 1187 3025 
Q 903 2953 641 2809 
L 641 3341 
Q 956 3463 1253 3523 
Q 1550 3584 1831 3584 
Q 2591 3584 2966 3190 
Q 3341 2797 3341 1997 
z
" transform="scale(0.015625)"/>
       <path id="DejaVuSans-73" d="M 2834 3397 
L 2834 2853 
Q 2591 2978 2328 3040 
Q 2066 3103 1784 3103 
Q 1356 3103 1142 2972 
Q 928 2841 928 2578 
Q 928 2378 1081 2264 
Q 1234 2150 1697 2047 
L 1894 2003 
Q 2506 1872 2764 1633 
Q 3022 1394 3022 966 
Q 3022 478 2636 193 
Q 2250 -91 1575 -91 
Q 1294 -91 989 -36 
Q 684 19 347 128 
L 347 722 
Q 666 556 975 473 
Q 1284 391 1588 391 
Q 1994 391 2212 530 
Q 2431 669 2431 922 
Q 2431 1156 2273 1281 
Q 2116 1406 1581 1522 
L 1381 1569 
Q 847 1681 609 1914 
Q 372 2147 372 2553 
Q 372 3047 722 3315 
Q 1072 3584 1716 3584 
Q 2034 3584 2315 3537 
Q 2597 3491 2834 3397 
z
" transform="scale(0.015625)"/>
       <path id="DejaVuSans-74" d="M 1172 4494 
L 1172 3500 
L 2356 3500 
L 2356 3053 
L 1172 3053 
L 1172 1153 
Q 1172 725 1289 603 
Q 1406 481 1766 481 
L 2356 481 
L 2356 0 
L 1766 0 
Q 1100 0 847 248 
Q 594 497 594 1153 
L 594 3053 
L 172 3053 
L 172 3500 
L 594 3500 
L 594 4494 
L 1172 4494 
z
" transform="scale(0.015625)"/>
       <path id="DejaVuSans-28" d="M 1984 4856 
Q 1566 4138 1362 3434 
Q 1159 2731 1159 2009 
Q 1159 1288 1364 580 
Q 1569 -128 1984 -844 
L 1484 -844 
Q 1016 -109 783 600 
Q 550 1309 550 2009 
Q 550 2706 781 3412 
Q 1013 4119 1484 4856 
L 1984 4856 
z
" transform="scale(0.015625)"/>
       <path id="DejaVuSans-29" d="M 513 4856 
L 1013 4856 
Q 1481 4119 1714 3412 
Q 1947 2706 1947 2009 
Q 1947 1309 1714 600 
Q 1481 -109 1013 -844 
L 513 -844 
Q 928 -128 1133 580 
Q 1338 1288 1338 2009 
Q 1338 2731 1133 3434 
Q 928 4138 513 4856 
z
" transform="scale(0.015625)"/>
      </defs>
      <use xlink:href="#DejaVuSans-45"/>
      <use xlink:href="#DejaVuSans-61" x="63.183594"/>
      <use xlink:href="#DejaVuSans-73" x="124.462891"/>
      <use xlink:href="#DejaVuSans-74" x="176.5625"/>
      <use xlink:href="#DejaVuSans-28" x="215.771484"/>
      <use xlink:href="#DejaVuSans-6d" x="254.785156"/>
      <use xlink:href="#DejaVuSans-29" x="352.197266"/>
     </g>
    </g>
   </g>
   <g id="line2d_19">
    <path d="M 749.863636 245.99726 
L 753.904412 254.573505 
L 755.924799 260.304332 
L 761.985963 228.593984 
L 764.00635 212.09316 
L 766.026738 192.853972 
L 768.047126 187.762198 
L 770.067513 176.717378 
L 772.087901 184.632983 
L 776.128676 190.329523 
L 790.27139 171.363255 
L 792.291778 178.528494 
L 794.312166 173.55411 
L 796.332553 167.4 
L 800.373329 172.852422 
L 802.393717 170.611436 
L 806.434492 170.537284 
L 808.45488 177.290947 
L 810.475267 183.261146 
L 812.495655 184.067931 
L 824.617981 181.396818 
L 830.679144 181.667848 
L 832.699532 188.962924 
L 834.71992 189.50011 
L 836.740307 198.4446 
L 844.821858 223.377271 
L 850.883021 234.853137 
L 852.903409 228.770575 
L 854.923797 228.18639 
L 856.944184 216.924819 
L 860.98496 203.283785 
L 863.005348 198.795379 
L 865.025735 197.857856 
L 867.046123 198.553519 
L 869.066511 203.180104 
L 873.107286 239.448358 
L 875.127674 238.383929 
L 877.148061 249.386115 
L 879.168449 251.193715 
L 885.229612 258.442878 
L 889.270388 277.853551 
L 891.290775 281.895444 
L 893.311163 291.409787 
L 895.331551 292.557303 
L 897.351939 288.752503 
L 899.372326 286.1392 
L 901.392714 287.933252 
L 903.413102 268.826137 
L 905.433489 266.655139 
L 907.453877 262.660387 
L 909.474265 268.164468 
L 915.535428 294.775735 
L 917.555816 309.351632 
L 921.596591 315.416673 
L 933.718917 334.19359 
L 937.759693 334.074803 
L 1044.840241 404.962734 
L 1046.860628 390.974855 
L 1048.881016 403.223612 
L 1214.552807 472.650989 
L 1216.573195 473.05178 
L 1226.675134 480.050957 
L 1230.715909 473.699719 
L 1232.736297 462.2471 
L 1234.756684 465.193665 
L 1236.777072 469.829184 
L 1238.79746 470.552674 
L 1240.817848 476.838892 
L 1242.838235 467.274605 
L 1333.755682 423.528452 
L 1335.77607 424.697781 
L 1337.796457 413.128487 
L 1341.837233 424.382052 
L 1372.143048 425.65202 
L 1374.163436 439.604214 
L 1376.183824 460.283156 
L 1378.204211 460.683775 
L 1382.244987 456.331931 
L 1384.265374 453.124665 
L 1386.285762 439.336778 
L 1388.30615 423.841351 
L 1390.326537 399.994075 
L 1392.346925 387.284566 
L 1394.367313 373.744755 
L 1402.448864 342.513361 
L 1404.469251 340.188245 
L 1406.489639 354.734073 
L 1412.550802 382.294183 
L 1414.57119 386.830482 
L 1416.591578 381.041837 
L 1418.611965 391.898799 
L 1420.632353 387.174137 
L 1424.673128 375.629468 
L 1426.693516 380.326001 
L 1428.713904 386.360817 
L 1432.754679 377.116089 
L 1434.775067 377.488058 
L 1436.795455 376.094563 
L 1444.877005 329.358311 
L 1446.897393 321.972845 
L 1454.978944 320.50864 
L 1456.999332 351.930592 
L 1459.019719 359.038918 
L 1461.040107 361.886721 
L 1463.060495 354.858298 
L 1465.080882 354.77464 
L 1469.121658 353.209214 
L 1471.142045 359.936878 
L 1473.162433 351.684996 
L 1475.182821 347.194929 
L 1479.223596 340.550923 
L 1481.243984 339.670017 
L 1483.264372 341.27185 
L 1485.284759 327.882103 
L 1487.305147 335.063854 
L 1489.325535 345.366049 
L 1491.345922 326.692191 
L 1493.36631 331.316327 
L 1495.386698 329.175034 
L 1497.407086 316.047758 
L 1501.447861 297.155835 
L 1669.14004 700.140269 
L 1673.180816 734.188006 
L 1677.221591 766.217344 
L 1681.262366 785.342901 
L 1683.282754 790.257756 
L 1689.343917 812.444304 
L 1691.364305 804.416018 
L 1693.384693 808.123726 
L 1697.425468 814.204041 
L 1699.445856 825.871197 
L 1701.466243 832.787484 
L 1703.486631 844.270567 
L 1705.507019 867.593233 
L 1707.527406 876.122393 
L 1719.649733 879.304373 
L 1723.690508 866.791243 
L 1725.710896 867.933852 
L 1727.731283 873.310477 
L 1729.751671 871.147441 
L 1731.772059 882.241606 
L 1735.812834 897.263731 
L 1737.833222 908.63645 
L 1739.85361 917.620063 
L 1741.873997 912.034056 
L 1743.894385 909.387738 
L 1749.955548 923.4 
L 1751.975936 899.784729 
L 1753.996324 888.085953 
L 1756.016711 889.466854 
L 1758.037099 893.527648 
L 1766.11865 875.869467 
L 1768.139037 890.006039 
L 1780.261364 900.716525 
L 1782.281751 879.466877 
L 1784.302139 881.435732 
L 1786.322527 896.577248 
L 1788.342914 895.870919 
L 1790.363302 888.212218 
L 1792.38369 881.179712 
L 1794.404078 882.695115 
L 1796.424465 890.002803 
L 1806.526404 883.10088 
L 1808.546791 881.067374 
L 1810.567179 880.872602 
L 1812.587567 875.634755 
L 1814.607955 859.95394 
L 1816.628342 837.628494 
L 1818.64873 823.739059 
L 1822.689505 825.403565 
L 1824.709893 839.405613 
L 1826.730281 842.880376 
L 1828.750668 840.4276 
L 1830.771056 853.563399 
L 1832.791444 870.919925 
L 1834.811832 862.836916 
L 1836.832219 866.721162 
L 1838.852607 858.090808 
L 1954.014706 826.218902 
L 1958.055481 721.779223 
L 1962.096257 631.717986 
L 1964.116644 574.896429 
L 1966.137032 530.033091 
L 1968.15742 529.019656 
L 1970.177807 549.640124 
L 1980.279746 621.521384 
L 1982.300134 632.669612 
L 1988.361297 602.366702 
L 1990.381684 580.22443 
L 1992.402072 578.283754 
L 1996.442848 563.059865 
L 2000.483623 576.483313 
L 2073.21758 453.702137 
L 2075.237968 440.354082 
L 2079.278743 442.351035 
L 2081.299131 429.291063 
L 2109.584559 381.20044 
L 2438.907754 771.447208 
L 2440.928142 799.023466 
L 2442.948529 804.433951 
L 2444.968917 803.538249 
L 2449.009693 822.851541 
L 2467.193182 851.284931 
L 3178.369652 565.139553 
L 3180.39004 555.946106 
L 3182.410428 531.934915 
L 3184.430816 521.614192 
L 3186.451203 525.852282 
L 3188.471591 527.845272 
L 3194.532754 561.113124 
L 3206.65508 577.671208 
L 3210.695856 558.777206 
L 3212.716243 554.041228 
L 3214.736631 557.943573 
L 3216.757019 554.062654 
L 3220.797794 543.570639 
L 3228.879345 561.333083 
L 3230.899733 562.100591 
L 3253.123997 513.457481 
L 3257.164773 501.736366 
L 3259.18516 521.493721 
L 3261.205548 521.596742 
L 3265.246324 503.124145 
L 3267.266711 495.492169 
L 3269.287099 501.128748 
L 3277.36865 491.555175 
L 3285.450201 497.589127 
L 3287.470588 508.363259 
L 3289.490976 509.264234 
L 3291.511364 519.485065 
L 3293.531751 511.668435 
L 3295.552139 514.764811 
L 3297.572527 520.610929 
L 3299.592914 516.884092 
L 3301.613302 505.610194 
L 3303.63369 496.640761 
L 3309.694853 504.254381 
L 3315.756016 528.335863 
L 3317.776404 541.276574 
L 3319.796791 524.768421 
L 3321.817179 524.755814 
L 3323.837567 520.160397 
L 3325.857955 522.097856 
L 3327.878342 506.395573 
L 3329.89873 495.956484 
L 3331.919118 482.240414 
L 3340.000668 458.026581 
L 3342.021056 442.526004 
L 3344.041444 440.716912 
L 3346.061832 450.150556 
L 3348.082219 457.293563 
L 3350.102607 468.272582 
L 3352.122995 478.422686 
L 3354.143382 480.964743 
L 3356.16377 499.075019 
L 3358.184158 486.910176 
L 3360.204545 479.745467 
L 3362.224933 467.460079 
L 3364.245321 443.910793 
L 3366.265709 433.725979 
L 3368.286096 421.676465 
L 3370.306484 425.102342 
L 3372.326872 439.301759 
L 3374.347259 448.623934 
L 3376.367647 458.779842 
L 3402.632687 435.431934 
L 3404.653075 437.986597 
L 3406.673463 439.618469 
L 3410.714238 447.713926 
L 3412.734626 457.120791 
L 3414.755013 464.337908 
L 3416.775401 472.046677 
L 3418.795789 467.821219 
L 3420.816176 469.445519 
L 3422.836564 462.702681 
L 3424.856952 462.465437 
L 3426.87734 466.312006 
L 3428.897727 474.986525 
L 3430.918115 479.52027 
L 3432.938503 486.665703 
L 3436.979278 474.227668 
L 3438.999666 459.83174 
L 3441.020053 464.454829 
L 3443.040441 453.563782 
L 3445.060829 435.861653 
L 3447.081217 424.624004 
L 3449.101604 417.281266 
L 3453.14238 443.72269 
L 3455.162767 430.133914 
L 3457.183155 423.075504 
L 3459.203543 427.880724 
L 3461.22393 445.672244 
L 3463.244318 443.46773 
L 3465.264706 445.023911 
L 3467.285094 450.158975 
L 3469.305481 447.037841 
L 3471.325869 445.79038 
L 3473.346257 440.903868 
L 3475.366644 419.48211 
L 3477.387032 416.590279 
L 3479.40742 409.75402 
L 3481.427807 400.436335 
L 3483.448195 412.712941 
L 3485.468583 412.205512 
L 3487.488971 413.35808 
L 3489.509358 403.549991 
L 3491.529746 405.28655 
L 3493.550134 400.680781 
L 3497.590909 393.072134 
L 3499.611297 392.936476 
L 3501.631684 392.1052 
L 3503.652072 404.096795 
L 3505.67246 406.997074 
L 3507.692848 411.011718 
L 3509.713235 400.868329 
L 3511.733623 392.691414 
L 3513.754011 395.1571 
L 3515.774398 391.465034 
L 3517.794786 389.181064 
L 3519.815174 391.387985 
L 3521.835561 379.793758 
L 3523.855949 379.998359 
L 3527.896725 367.697352 
L 3531.9375 351.643355 
L 3533.957888 343.016462 
L 3535.978275 348.832241 
L 3537.998663 358.964146 
L 3540.019051 361.150026 
L 3542.039439 371.337619 
L 3544.059826 368.226473 
L 3548.100602 402.430084 
L 3550.120989 400.912103 
L 3552.141377 389.432636 
L 3554.161765 386.349414 
L 3556.182152 374.984235 
L 3558.20254 381.917024 
L 3560.222928 378.186241 
L 3562.243316 346.762704 
L 3564.263703 344.259753 
L 3568.304479 326.693141 
L 3570.324866 333.968469 
L 3572.345254 321.951276 
L 3582.447193 328.83303 
L 3584.46758 324.206299 
L 3586.487968 338.888515 
L 3590.528743 339.232487 
L 3592.549131 347.366431 
L 3594.569519 338.235843 
L 3596.589906 321.22706 
L 3598.610294 309.003874 
L 3600.630682 288.369951 
L 3602.65107 281.891082 
L 3604.671457 279.931831 
L 3647.099599 250.057737 
L 3649.119987 252.021229 
L 3653.160762 244.51294 
L 3659.221925 257.863395 
L 3661.242313 263.633733 
L 3663.262701 252.17023 
L 3665.283088 253.049244 
L 3667.303476 257.469317 
L 3669.323864 257.356208 
L 3671.344251 249.542849 
L 3673.364639 248.950113 
L 3675.385027 237.804473 
L 3677.405414 246.012046 
L 3679.425802 256.728211 
L 3681.44619 259.355572 
L 3683.466578 271.487905 
L 3685.486965 280.047757 
L 3687.507353 290.772635 
L 3689.527741 279.786836 
L 3691.548128 279.921121 
L 3693.568516 266.724739 
L 3695.588904 263.010441 
L 3697.609291 244.734714 
L 3705.690842 252.423657 
L 3707.71123 251.715767 
L 3711.752005 253.844011 
L 3713.772393 254.517156 
L 3715.792781 233.128391 
L 3717.813168 240.438068 
L 3719.833556 231.807702 
L 3721.853944 220.992274 
L 3723.874332 205.054973 
L 3725.894719 215.18863 
L 3727.915107 218.128338 
L 3729.935495 231.308639 
L 3733.97627 234.11697 
L 3735.996658 242.476757 
L 3738.017045 257.772954 
L 3740.037433 256.922058 
L 3744.078209 251.197831 
L 3746.098596 242.142883 
L 3748.118984 243.442698 
L 3750.139372 242.490146 
L 3752.159759 238.689603 
L 3756.200535 257.916936 
L 3758.220922 258.332128 
L 3760.24131 258.575775 
L 3762.261698 258.661032 
L 3764.282086 255.3148 
L 3766.302473 241.929209 
L 3768.322861 231.295084 
L 3772.363636 223.33216 
L 3774.384024 224.890917 
L 3776.404412 233.596014 
L 3778.424799 235.509711 
L 3780.445187 244.280986 
L 3786.50635 224.145881 
L 3788.526738 225.786458 
L 3790.547126 219.883484 
L 3792.567513 217.540316 
L 3794.587901 223.575399 
L 3796.608289 245.272689 
L 3798.628676 254.991317 
L 3952.178142 561.597064 
L 3954.198529 557.372137 
L 3956.218917 559.661683 
L 3958.239305 559.201281 
L 3960.259693 551.579734 
L 3970.361631 566.238843 
L 3972.382019 565.530054 
L 3978.443182 590.829573 
L 3980.46357 583.30412 
L 3982.483957 595.973538 
L 3984.504345 565.279987 
L 3986.524733 568.309044 
L 3988.54512 570.733791 
L 3990.565508 563.494278 
L 3996.626671 574.007957 
L 4002.687834 582.283962 
L 4004.708222 587.153809 
L 4006.72861 584.876279 
L 4008.748997 592.104971 
L 4014.81016 632.562704 
L 4016.830548 638.025718 
L 4018.850936 633.268835 
L 4020.871324 640.720395 
L 4030.973262 596.060971 
L 4032.99365 598.229438 
L 4035.014037 598.598708 
L 4037.034425 592.377299 
L 4039.054813 587.109441 
L 4041.075201 589.446152 
L 4043.095588 580.235915 
L 4045.115976 591.880641 
L 4047.136364 586.447679 
L 4047.136364 586.447679 
" clip-path="url(#p5ced1aa728)" style="fill: none; stroke: #023eff; stroke-width: 2.5; stroke-linecap: square"/>
   </g>
   <g id="patch_3">
    <path d="M 585 961.2 
L 585 129.6 
" style="fill: none; stroke: #000000; stroke-width: 0.8; stroke-linejoin: miter; stroke-linecap: square"/>
   </g>
   <g id="patch_4">
    <path d="M 4212 961.2 
L 4212 129.6 
" style="fill: none; stroke: #000000; stroke-width: 0.8; stroke-linejoin: miter; stroke-linecap: square"/>
   </g>
   <g id="patch_5">
    <path d="M 585 961.2 
L 4212 961.2 
" style="fill: none; stroke: #000000; stroke-width: 0.8; stroke-linejoin: miter; stroke-linecap: square"/>
   </g>
   <g id="patch_6">
    <path d="M 585 129.6 
L 4212 129.6 
" style="fill: none; stroke: #000000; stroke-width: 0.8; stroke-linejoin: miter; stroke-linecap: square"/>
   </g>
   <g id="text_21">
    <!-- AFAL -->
    <g transform="translate(2362.361719 123.360937) scale(0.3 -0.3)">
     <defs>
      <path id="DejaVuSans-41" d="M 2188 4044 
L 1331 1722 
L 3047 1722 
L 2188 4044 
z
M 1831 4666 
L 2547 4666 
L 4325 0 
L 3669 0 
L 3244 1197 
L 1141 1197 
L 716 0 
L 50 0 
L 1831 4666 
z
" transform="scale(0.015625)"/>
      <path id="DejaVuSans-46" d="M 628 4666 
L 3309 4666 
L 3309 4134 
L 1259 4134 
L 1259 2759 
L 3109 2759 
L 3109 2228 
L 1259 2228 
L 1259 0 
L 628 0 
L 628 4666 
z
" transform="scale(0.015625)"/>
      <path id="DejaVuSans-4c" d="M 628 4666 
L 1259 4666 
L 1259 531 
L 3531 531 
L 3531 0 
L 628 0 
L 628 4666 
z
" transform="scale(0.015625)"/>
     </defs>
     <use xlink:href="#DejaVuSans-41"/>
     <use xlink:href="#DejaVuSans-46" x="68.408203"/>
     <use xlink:href="#DejaVuSans-41" x="116.802734"/>
     <use xlink:href="#DejaVuSans-4c" x="185.210938"/>
    </g>
   </g>
   <g id="legend_1">
    <g id="patch_7">
     <path d="M 4154.445312 152.278125 
L 4205 152.278125 
Q 4207 152.278125 4207 150.278125 
L 4207 136.6 
Q 4207 134.6 4205 134.6 
L 4154.445312 134.6 
Q 4152.445312 134.6 4152.445312 136.6 
L 4152.445312 150.278125 
Q 4152.445312 152.278125 4154.445312 152.278125 
z
" style="fill: #ffffff; opacity: 0.8; stroke: #cccccc; stroke-linejoin: miter"/>
    </g>
    <g id="line2d_20">
     <path d="M 4156.445312 142.698438 
L 4166.445312 142.698438 
L 4176.445312 142.698438 
" style="fill: none; stroke: #023eff; stroke-width: 2.5; stroke-linecap: square"/>
    </g>
    <g id="text_22">
     <!-- afal -->
     <g transform="translate(4184.445312 146.198438) scale(0.1 -0.1)">
      <defs>
       <path id="DejaVuSans-66" d="M 2375 4863 
L 2375 4384 
L 1825 4384 
Q 1516 4384 1395 4259 
Q 1275 4134 1275 3809 
L 1275 3500 
L 2222 3500 
L 2222 3053 
L 1275 3053 
L 1275 0 
L 697 0 
L 697 3053 
L 147 3053 
L 147 3500 
L 697 3500 
L 697 3744 
Q 697 4328 969 4595 
Q 1241 4863 1831 4863 
L 2375 4863 
z
" transform="scale(0.015625)"/>
       <path id="DejaVuSans-6c" d="M 603 4863 
L 1178 4863 
L 1178 0 
L 603 0 
L 603 4863 
z
" transform="scale(0.015625)"/>
      </defs>
      <use xlink:href="#DejaVuSans-61"/>
      <use xlink:href="#DejaVuSans-66" x="61.279297"/>
      <use xlink:href="#DejaVuSans-61" x="96.484375"/>
      <use xlink:href="#DejaVuSans-6c" x="157.763672"/>
     </g>
    </g>
   </g>
  </g>
 </g>
 <defs>
  <clipPath id="p5ced1aa728">
   <rect x="585" y="129.6" width="3627" height="831.6"/>
  </clipPath>
 </defs>
</svg>
