<?xml version="1.0" encoding="utf-8" standalone="no"?>
<!DOCTYPE svg PUBLIC "-//W3C//DTD SVG 1.1//EN"
  "http://www.w3.org/Graphics/SVG/1.1/DTD/svg11.dtd">
<svg xmlns:xlink="http://www.w3.org/1999/xlink" width="4680pt" height="1080pt" viewBox="0 0 4680 1080" xmlns="http://www.w3.org/2000/svg" version="1.1">
 <metadata>
  <rdf:RDF xmlns:dc="http://purl.org/dc/elements/1.1/" xmlns:cc="http://creativecommons.org/ns#" xmlns:rdf="http://www.w3.org/1999/02/22-rdf-syntax-ns#">
   <cc:Work>
    <dc:type rdf:resource="http://purl.org/dc/dcmitype/StillImage"/>
    <dc:date>2024-03-25T14:09:22.922126</dc:date>
    <dc:format>image/svg+xml</dc:format>
    <dc:creator>
     <cc:Agent>
      <dc:title>Matplotlib v3.7.2, https://matplotlib.org/</dc:title>
     </cc:Agent>
    </dc:creator>
   </cc:Work>
  </rdf:RDF>
 </metadata>
 <defs>
  <style type="text/css">*{stroke-linejoin: round; stroke-linecap: butt}</style>
 </defs>
 <g id="figure_1">
  <g id="patch_1">
   <path d="M 0 1080 
L 4680 1080 
L 4680 0 
L 0 0 
z
" style="fill: #ffffff"/>
  </g>
  <g id="axes_1">
   <g id="patch_2">
    <path d="M 585 961.2 
L 4212 961.2 
L 4212 129.6 
L 585 129.6 
z
" style="fill: #ffffff"/>
   </g>
   <g id="matplotlib.axis_1">
    <g id="xtick_1">
     <g id="line2d_1">
      <defs>
       <path id="m4c5f518c0d" d="M 0 0 
L 0 3.5 
" style="stroke: #000000; stroke-width: 0.8"/>
      </defs>
      <g>
       <use xlink:href="#m4c5f518c0d" x="941.800468" y="961.2" style="stroke: #000000; stroke-width: 0.8"/>
      </g>
     </g>
     <g id="text_1">
      <!-- 2012-07 -->
      <g transform="translate(900.017655 983.396875) scale(0.2 -0.2)">
       <defs>
        <path id="DejaVuSans-32" d="M 1228 531 
L 3431 531 
L 3431 0 
L 469 0 
L 469 531 
Q 828 903 1448 1529 
Q 2069 2156 2228 2338 
Q 2531 2678 2651 2914 
Q 2772 3150 2772 3378 
Q 2772 3750 2511 3984 
Q 2250 4219 1831 4219 
Q 1534 4219 1204 4116 
Q 875 4013 500 3803 
L 500 4441 
Q 881 4594 1212 4672 
Q 1544 4750 1819 4750 
Q 2544 4750 2975 4387 
Q 3406 4025 3406 3419 
Q 3406 3131 3298 2873 
Q 3191 2616 2906 2266 
Q 2828 2175 2409 1742 
Q 1991 1309 1228 531 
z
" transform="scale(0.015625)"/>
        <path id="DejaVuSans-30" d="M 2034 4250 
Q 1547 4250 1301 3770 
Q 1056 3291 1056 2328 
Q 1056 1369 1301 889 
Q 1547 409 2034 409 
Q 2525 409 2770 889 
Q 3016 1369 3016 2328 
Q 3016 3291 2770 3770 
Q 2525 4250 2034 4250 
z
M 2034 4750 
Q 2819 4750 3233 4129 
Q 3647 3509 3647 2328 
Q 3647 1150 3233 529 
Q 2819 -91 2034 -91 
Q 1250 -91 836 529 
Q 422 1150 422 2328 
Q 422 3509 836 4129 
Q 1250 4750 2034 4750 
z
" transform="scale(0.015625)"/>
        <path id="DejaVuSans-31" d="M 794 531 
L 1825 531 
L 1825 4091 
L 703 3866 
L 703 4441 
L 1819 4666 
L 2450 4666 
L 2450 531 
L 3481 531 
L 3481 0 
L 794 0 
L 794 531 
z
" transform="scale(0.015625)"/>
        <path id="DejaVuSans-2d" d="M 313 2009 
L 1997 2009 
L 1997 1497 
L 313 1497 
L 313 2009 
z
" transform="scale(0.015625)"/>
        <path id="DejaVuSans-37" d="M 525 4666 
L 3525 4666 
L 3525 4397 
L 1831 0 
L 1172 0 
L 2766 4134 
L 525 4134 
L 525 4666 
z
" transform="scale(0.015625)"/>
       </defs>
       <use xlink:href="#DejaVuSans-32"/>
       <use xlink:href="#DejaVuSans-30" x="63.623047"/>
       <use xlink:href="#DejaVuSans-31" x="127.246094"/>
       <use xlink:href="#DejaVuSans-32" x="190.869141"/>
       <use xlink:href="#DejaVuSans-2d" x="254.492188"/>
       <use xlink:href="#DejaVuSans-30" x="290.576172"/>
       <use xlink:href="#DejaVuSans-37" x="354.199219"/>
      </g>
     </g>
    </g>
    <g id="xtick_2">
     <g id="line2d_2">
      <g>
       <use xlink:href="#m4c5f518c0d" x="1313.551805" y="961.2" style="stroke: #000000; stroke-width: 0.8"/>
      </g>
     </g>
     <g id="text_2">
      <!-- 2013-01 -->
      <g transform="translate(1271.768992 983.396875) scale(0.2 -0.2)">
       <defs>
        <path id="DejaVuSans-33" d="M 2597 2516 
Q 3050 2419 3304 2112 
Q 3559 1806 3559 1356 
Q 3559 666 3084 287 
Q 2609 -91 1734 -91 
Q 1441 -91 1130 -33 
Q 819 25 488 141 
L 488 750 
Q 750 597 1062 519 
Q 1375 441 1716 441 
Q 2309 441 2620 675 
Q 2931 909 2931 1356 
Q 2931 1769 2642 2001 
Q 2353 2234 1838 2234 
L 1294 2234 
L 1294 2753 
L 1863 2753 
Q 2328 2753 2575 2939 
Q 2822 3125 2822 3475 
Q 2822 3834 2567 4026 
Q 2313 4219 1838 4219 
Q 1578 4219 1281 4162 
Q 984 4106 628 3988 
L 628 4550 
Q 988 4650 1302 4700 
Q 1616 4750 1894 4750 
Q 2613 4750 3031 4423 
Q 3450 4097 3450 3541 
Q 3450 3153 3228 2886 
Q 3006 2619 2597 2516 
z
" transform="scale(0.015625)"/>
       </defs>
       <use xlink:href="#DejaVuSans-32"/>
       <use xlink:href="#DejaVuSans-30" x="63.623047"/>
       <use xlink:href="#DejaVuSans-31" x="127.246094"/>
       <use xlink:href="#DejaVuSans-33" x="190.869141"/>
       <use xlink:href="#DejaVuSans-2d" x="254.492188"/>
       <use xlink:href="#DejaVuSans-30" x="290.576172"/>
       <use xlink:href="#DejaVuSans-31" x="354.199219"/>
      </g>
     </g>
    </g>
    <g id="xtick_3">
     <g id="line2d_3">
      <g>
       <use xlink:href="#m4c5f518c0d" x="1679.241979" y="961.2" style="stroke: #000000; stroke-width: 0.8"/>
      </g>
     </g>
     <g id="text_3">
      <!-- 2013-07 -->
      <g transform="translate(1637.459166 983.396875) scale(0.2 -0.2)">
       <use xlink:href="#DejaVuSans-32"/>
       <use xlink:href="#DejaVuSans-30" x="63.623047"/>
       <use xlink:href="#DejaVuSans-31" x="127.246094"/>
       <use xlink:href="#DejaVuSans-33" x="190.869141"/>
       <use xlink:href="#DejaVuSans-2d" x="254.492188"/>
       <use xlink:href="#DejaVuSans-30" x="290.576172"/>
       <use xlink:href="#DejaVuSans-37" x="354.199219"/>
      </g>
     </g>
    </g>
    <g id="xtick_4">
     <g id="line2d_4">
      <g>
       <use xlink:href="#m4c5f518c0d" x="2050.993316" y="961.2" style="stroke: #000000; stroke-width: 0.8"/>
      </g>
     </g>
     <g id="text_4">
      <!-- 2014-01 -->
      <g transform="translate(2009.210503 983.396875) scale(0.2 -0.2)">
       <defs>
        <path id="DejaVuSans-34" d="M 2419 4116 
L 825 1625 
L 2419 1625 
L 2419 4116 
z
M 2253 4666 
L 3047 4666 
L 3047 1625 
L 3713 1625 
L 3713 1100 
L 3047 1100 
L 3047 0 
L 2419 0 
L 2419 1100 
L 313 1100 
L 313 1709 
L 2253 4666 
z
" transform="scale(0.015625)"/>
       </defs>
       <use xlink:href="#DejaVuSans-32"/>
       <use xlink:href="#DejaVuSans-30" x="63.623047"/>
       <use xlink:href="#DejaVuSans-31" x="127.246094"/>
       <use xlink:href="#DejaVuSans-34" x="190.869141"/>
       <use xlink:href="#DejaVuSans-2d" x="254.492188"/>
       <use xlink:href="#DejaVuSans-30" x="290.576172"/>
       <use xlink:href="#DejaVuSans-31" x="354.199219"/>
      </g>
     </g>
    </g>
    <g id="xtick_5">
     <g id="line2d_5">
      <g>
       <use xlink:href="#m4c5f518c0d" x="2416.683489" y="961.2" style="stroke: #000000; stroke-width: 0.8"/>
      </g>
     </g>
     <g id="text_5">
      <!-- 2014-07 -->
      <g transform="translate(2374.900677 983.396875) scale(0.2 -0.2)">
       <use xlink:href="#DejaVuSans-32"/>
       <use xlink:href="#DejaVuSans-30" x="63.623047"/>
       <use xlink:href="#DejaVuSans-31" x="127.246094"/>
       <use xlink:href="#DejaVuSans-34" x="190.869141"/>
       <use xlink:href="#DejaVuSans-2d" x="254.492188"/>
       <use xlink:href="#DejaVuSans-30" x="290.576172"/>
       <use xlink:href="#DejaVuSans-37" x="354.199219"/>
      </g>
     </g>
    </g>
    <g id="xtick_6">
     <g id="line2d_6">
      <g>
       <use xlink:href="#m4c5f518c0d" x="2788.434826" y="961.2" style="stroke: #000000; stroke-width: 0.8"/>
      </g>
     </g>
     <g id="text_6">
      <!-- 2015-01 -->
      <g transform="translate(2746.652014 983.396875) scale(0.2 -0.2)">
       <defs>
        <path id="DejaVuSans-35" d="M 691 4666 
L 3169 4666 
L 3169 4134 
L 1269 4134 
L 1269 2991 
Q 1406 3038 1543 3061 
Q 1681 3084 1819 3084 
Q 2600 3084 3056 2656 
Q 3513 2228 3513 1497 
Q 3513 744 3044 326 
Q 2575 -91 1722 -91 
Q 1428 -91 1123 -41 
Q 819 9 494 109 
L 494 744 
Q 775 591 1075 516 
Q 1375 441 1709 441 
Q 2250 441 2565 725 
Q 2881 1009 2881 1497 
Q 2881 1984 2565 2268 
Q 2250 2553 1709 2553 
Q 1456 2553 1204 2497 
Q 953 2441 691 2322 
L 691 4666 
z
" transform="scale(0.015625)"/>
       </defs>
       <use xlink:href="#DejaVuSans-32"/>
       <use xlink:href="#DejaVuSans-30" x="63.623047"/>
       <use xlink:href="#DejaVuSans-31" x="127.246094"/>
       <use xlink:href="#DejaVuSans-35" x="190.869141"/>
       <use xlink:href="#DejaVuSans-2d" x="254.492188"/>
       <use xlink:href="#DejaVuSans-30" x="290.576172"/>
       <use xlink:href="#DejaVuSans-31" x="354.199219"/>
      </g>
     </g>
    </g>
    <g id="xtick_7">
     <g id="line2d_7">
      <g>
       <use xlink:href="#m4c5f518c0d" x="3154.125" y="961.2" style="stroke: #000000; stroke-width: 0.8"/>
      </g>
     </g>
     <g id="text_7">
      <!-- 2015-07 -->
      <g transform="translate(3112.342188 983.396875) scale(0.2 -0.2)">
       <use xlink:href="#DejaVuSans-32"/>
       <use xlink:href="#DejaVuSans-30" x="63.623047"/>
       <use xlink:href="#DejaVuSans-31" x="127.246094"/>
       <use xlink:href="#DejaVuSans-35" x="190.869141"/>
       <use xlink:href="#DejaVuSans-2d" x="254.492188"/>
       <use xlink:href="#DejaVuSans-30" x="290.576172"/>
       <use xlink:href="#DejaVuSans-37" x="354.199219"/>
      </g>
     </g>
    </g>
    <g id="xtick_8">
     <g id="line2d_8">
      <g>
       <use xlink:href="#m4c5f518c0d" x="3525.876337" y="961.2" style="stroke: #000000; stroke-width: 0.8"/>
      </g>
     </g>
     <g id="text_8">
      <!-- 2016-01 -->
      <g transform="translate(3484.093524 983.396875) scale(0.2 -0.2)">
       <defs>
        <path id="DejaVuSans-36" d="M 2113 2584 
Q 1688 2584 1439 2293 
Q 1191 2003 1191 1497 
Q 1191 994 1439 701 
Q 1688 409 2113 409 
Q 2538 409 2786 701 
Q 3034 994 3034 1497 
Q 3034 2003 2786 2293 
Q 2538 2584 2113 2584 
z
M 3366 4563 
L 3366 3988 
Q 3128 4100 2886 4159 
Q 2644 4219 2406 4219 
Q 1781 4219 1451 3797 
Q 1122 3375 1075 2522 
Q 1259 2794 1537 2939 
Q 1816 3084 2150 3084 
Q 2853 3084 3261 2657 
Q 3669 2231 3669 1497 
Q 3669 778 3244 343 
Q 2819 -91 2113 -91 
Q 1303 -91 875 529 
Q 447 1150 447 2328 
Q 447 3434 972 4092 
Q 1497 4750 2381 4750 
Q 2619 4750 2861 4703 
Q 3103 4656 3366 4563 
z
" transform="scale(0.015625)"/>
       </defs>
       <use xlink:href="#DejaVuSans-32"/>
       <use xlink:href="#DejaVuSans-30" x="63.623047"/>
       <use xlink:href="#DejaVuSans-31" x="127.246094"/>
       <use xlink:href="#DejaVuSans-36" x="190.869141"/>
       <use xlink:href="#DejaVuSans-2d" x="254.492188"/>
       <use xlink:href="#DejaVuSans-30" x="290.576172"/>
       <use xlink:href="#DejaVuSans-31" x="354.199219"/>
      </g>
     </g>
    </g>
    <g id="xtick_9">
     <g id="line2d_9">
      <g>
       <use xlink:href="#m4c5f518c0d" x="3893.586898" y="961.2" style="stroke: #000000; stroke-width: 0.8"/>
      </g>
     </g>
     <g id="text_9">
      <!-- 2016-07 -->
      <g transform="translate(3851.804086 983.396875) scale(0.2 -0.2)">
       <use xlink:href="#DejaVuSans-32"/>
       <use xlink:href="#DejaVuSans-30" x="63.623047"/>
       <use xlink:href="#DejaVuSans-31" x="127.246094"/>
       <use xlink:href="#DejaVuSans-36" x="190.869141"/>
       <use xlink:href="#DejaVuSans-2d" x="254.492188"/>
       <use xlink:href="#DejaVuSans-30" x="290.576172"/>
       <use xlink:href="#DejaVuSans-37" x="354.199219"/>
      </g>
     </g>
    </g>
    <g id="text_10">
     <!-- Time -->
     <g transform="translate(2374.032813 1006.753125) scale(0.2 -0.2)">
      <defs>
       <path id="DejaVuSans-54" d="M -19 4666 
L 3928 4666 
L 3928 4134 
L 2272 4134 
L 2272 0 
L 1638 0 
L 1638 4134 
L -19 4134 
L -19 4666 
z
" transform="scale(0.015625)"/>
       <path id="DejaVuSans-69" d="M 603 3500 
L 1178 3500 
L 1178 0 
L 603 0 
L 603 3500 
z
M 603 4863 
L 1178 4863 
L 1178 4134 
L 603 4134 
L 603 4863 
z
" transform="scale(0.015625)"/>
       <path id="DejaVuSans-6d" d="M 3328 2828 
Q 3544 3216 3844 3400 
Q 4144 3584 4550 3584 
Q 5097 3584 5394 3201 
Q 5691 2819 5691 2113 
L 5691 0 
L 5113 0 
L 5113 2094 
Q 5113 2597 4934 2840 
Q 4756 3084 4391 3084 
Q 3944 3084 3684 2787 
Q 3425 2491 3425 1978 
L 3425 0 
L 2847 0 
L 2847 2094 
Q 2847 2600 2669 2842 
Q 2491 3084 2119 3084 
Q 1678 3084 1418 2786 
Q 1159 2488 1159 1978 
L 1159 0 
L 581 0 
L 581 3500 
L 1159 3500 
L 1159 2956 
Q 1356 3278 1631 3431 
Q 1906 3584 2284 3584 
Q 2666 3584 2933 3390 
Q 3200 3197 3328 2828 
z
" transform="scale(0.015625)"/>
       <path id="DejaVuSans-65" d="M 3597 1894 
L 3597 1613 
L 953 1613 
Q 991 1019 1311 708 
Q 1631 397 2203 397 
Q 2534 397 2845 478 
Q 3156 559 3463 722 
L 3463 178 
Q 3153 47 2828 -22 
Q 2503 -91 2169 -91 
Q 1331 -91 842 396 
Q 353 884 353 1716 
Q 353 2575 817 3079 
Q 1281 3584 2069 3584 
Q 2775 3584 3186 3129 
Q 3597 2675 3597 1894 
z
M 3022 2063 
Q 3016 2534 2758 2815 
Q 2500 3097 2075 3097 
Q 1594 3097 1305 2825 
Q 1016 2553 972 2059 
L 3022 2063 
z
" transform="scale(0.015625)"/>
      </defs>
      <use xlink:href="#DejaVuSans-54"/>
      <use xlink:href="#DejaVuSans-69" x="57.958984"/>
      <use xlink:href="#DejaVuSans-6d" x="85.742188"/>
      <use xlink:href="#DejaVuSans-65" x="183.154297"/>
     </g>
    </g>
   </g>
   <g id="matplotlib.axis_2">
    <g id="ytick_1">
     <g id="line2d_10">
      <defs>
       <path id="mfd8f1f62e2" d="M 0 0 
L -3.5 0 
" style="stroke: #000000; stroke-width: 0.8"/>
      </defs>
      <g>
       <use xlink:href="#mfd8f1f62e2" x="585" y="904.593248" style="stroke: #000000; stroke-width: 0.8"/>
      </g>
     </g>
     <g id="text_11">
      <!-- −0.001 -->
      <g transform="translate(503.984375 912.191686) scale(0.2 -0.2)">
       <defs>
        <path id="DejaVuSans-2212" d="M 678 2272 
L 4684 2272 
L 4684 1741 
L 678 1741 
L 678 2272 
z
" transform="scale(0.015625)"/>
        <path id="DejaVuSans-2e" d="M 684 794 
L 1344 794 
L 1344 0 
L 684 0 
L 684 794 
z
" transform="scale(0.015625)"/>
       </defs>
       <use xlink:href="#DejaVuSans-2212"/>
       <use xlink:href="#DejaVuSans-30" x="83.789062"/>
       <use xlink:href="#DejaVuSans-2e" x="147.412109"/>
       <use xlink:href="#DejaVuSans-30" x="179.199219"/>
       <use xlink:href="#DejaVuSans-30" x="242.822266"/>
       <use xlink:href="#DejaVuSans-31" x="306.445312"/>
      </g>
     </g>
    </g>
    <g id="ytick_2">
     <g id="line2d_11">
      <g>
       <use xlink:href="#mfd8f1f62e2" x="585" y="795.690717" style="stroke: #000000; stroke-width: 0.8"/>
      </g>
     </g>
     <g id="text_12">
      <!-- 0.000 -->
      <g transform="translate(520.74375 803.289155) scale(0.2 -0.2)">
       <use xlink:href="#DejaVuSans-30"/>
       <use xlink:href="#DejaVuSans-2e" x="63.623047"/>
       <use xlink:href="#DejaVuSans-30" x="95.410156"/>
       <use xlink:href="#DejaVuSans-30" x="159.033203"/>
       <use xlink:href="#DejaVuSans-30" x="222.65625"/>
      </g>
     </g>
    </g>
    <g id="ytick_3">
     <g id="line2d_12">
      <g>
       <use xlink:href="#mfd8f1f62e2" x="585" y="686.788186" style="stroke: #000000; stroke-width: 0.8"/>
      </g>
     </g>
     <g id="text_13">
      <!-- 0.001 -->
      <g transform="translate(520.74375 694.386624) scale(0.2 -0.2)">
       <use xlink:href="#DejaVuSans-30"/>
       <use xlink:href="#DejaVuSans-2e" x="63.623047"/>
       <use xlink:href="#DejaVuSans-30" x="95.410156"/>
       <use xlink:href="#DejaVuSans-30" x="159.033203"/>
       <use xlink:href="#DejaVuSans-31" x="222.65625"/>
      </g>
     </g>
    </g>
    <g id="ytick_4">
     <g id="line2d_13">
      <g>
       <use xlink:href="#mfd8f1f62e2" x="585" y="577.885655" style="stroke: #000000; stroke-width: 0.8"/>
      </g>
     </g>
     <g id="text_14">
      <!-- 0.002 -->
      <g transform="translate(520.74375 585.484093) scale(0.2 -0.2)">
       <use xlink:href="#DejaVuSans-30"/>
       <use xlink:href="#DejaVuSans-2e" x="63.623047"/>
       <use xlink:href="#DejaVuSans-30" x="95.410156"/>
       <use xlink:href="#DejaVuSans-30" x="159.033203"/>
       <use xlink:href="#DejaVuSans-32" x="222.65625"/>
      </g>
     </g>
    </g>
    <g id="ytick_5">
     <g id="line2d_14">
      <g>
       <use xlink:href="#mfd8f1f62e2" x="585" y="468.983124" style="stroke: #000000; stroke-width: 0.8"/>
      </g>
     </g>
     <g id="text_15">
      <!-- 0.003 -->
      <g transform="translate(520.74375 476.581562) scale(0.2 -0.2)">
       <use xlink:href="#DejaVuSans-30"/>
       <use xlink:href="#DejaVuSans-2e" x="63.623047"/>
       <use xlink:href="#DejaVuSans-30" x="95.410156"/>
       <use xlink:href="#DejaVuSans-30" x="159.033203"/>
       <use xlink:href="#DejaVuSans-33" x="222.65625"/>
      </g>
     </g>
    </g>
    <g id="ytick_6">
     <g id="line2d_15">
      <g>
       <use xlink:href="#mfd8f1f62e2" x="585" y="360.080593" style="stroke: #000000; stroke-width: 0.8"/>
      </g>
     </g>
     <g id="text_16">
      <!-- 0.004 -->
      <g transform="translate(520.74375 367.679031) scale(0.2 -0.2)">
       <use xlink:href="#DejaVuSans-30"/>
       <use xlink:href="#DejaVuSans-2e" x="63.623047"/>
       <use xlink:href="#DejaVuSans-30" x="95.410156"/>
       <use xlink:href="#DejaVuSans-30" x="159.033203"/>
       <use xlink:href="#DejaVuSans-34" x="222.65625"/>
      </g>
     </g>
    </g>
    <g id="ytick_7">
     <g id="line2d_16">
      <g>
       <use xlink:href="#mfd8f1f62e2" x="585" y="251.178062" style="stroke: #000000; stroke-width: 0.8"/>
      </g>
     </g>
     <g id="text_17">
      <!-- 0.005 -->
      <g transform="translate(520.74375 258.7765) scale(0.2 -0.2)">
       <use xlink:href="#DejaVuSans-30"/>
       <use xlink:href="#DejaVuSans-2e" x="63.623047"/>
       <use xlink:href="#DejaVuSans-30" x="95.410156"/>
       <use xlink:href="#DejaVuSans-30" x="159.033203"/>
       <use xlink:href="#DejaVuSans-35" x="222.65625"/>
      </g>
     </g>
    </g>
    <g id="ytick_8">
     <g id="line2d_17">
      <g>
       <use xlink:href="#mfd8f1f62e2" x="585" y="142.275531" style="stroke: #000000; stroke-width: 0.8"/>
      </g>
     </g>
     <g id="text_18">
      <!-- 0.006 -->
      <g transform="translate(520.74375 149.873969) scale(0.2 -0.2)">
       <use xlink:href="#DejaVuSans-30"/>
       <use xlink:href="#DejaVuSans-2e" x="63.623047"/>
       <use xlink:href="#DejaVuSans-30" x="95.410156"/>
       <use xlink:href="#DejaVuSans-30" x="159.033203"/>
       <use xlink:href="#DejaVuSans-36" x="222.65625"/>
      </g>
     </g>
    </g>
    <g id="text_19">
     <!-- East(m) -->
     <g transform="translate(495.825 584.520313) rotate(-90) scale(0.2 -0.2)">
      <defs>
       <path id="DejaVuSans-45" d="M 628 4666 
L 3578 4666 
L 3578 4134 
L 1259 4134 
L 1259 2753 
L 3481 2753 
L 3481 2222 
L 1259 2222 
L 1259 531 
L 3634 531 
L 3634 0 
L 628 0 
L 628 4666 
z
" transform="scale(0.015625)"/>
       <path id="DejaVuSans-61" d="M 2194 1759 
Q 1497 1759 1228 1600 
Q 959 1441 959 1056 
Q 959 750 1161 570 
Q 1363 391 1709 391 
Q 2188 391 2477 730 
Q 2766 1069 2766 1631 
L 2766 1759 
L 2194 1759 
z
M 3341 1997 
L 3341 0 
L 2766 0 
L 2766 531 
Q 2569 213 2275 61 
Q 1981 -91 1556 -91 
Q 1019 -91 701 211 
Q 384 513 384 1019 
Q 384 1609 779 1909 
Q 1175 2209 1959 2209 
L 2766 2209 
L 2766 2266 
Q 2766 2663 2505 2880 
Q 2244 3097 1772 3097 
Q 1472 3097 1187 3025 
Q 903 2953 641 2809 
L 641 3341 
Q 956 3463 1253 3523 
Q 1550 3584 1831 3584 
Q 2591 3584 2966 3190 
Q 3341 2797 3341 1997 
z
" transform="scale(0.015625)"/>
       <path id="DejaVuSans-73" d="M 2834 3397 
L 2834 2853 
Q 2591 2978 2328 3040 
Q 2066 3103 1784 3103 
Q 1356 3103 1142 2972 
Q 928 2841 928 2578 
Q 928 2378 1081 2264 
Q 1234 2150 1697 2047 
L 1894 2003 
Q 2506 1872 2764 1633 
Q 3022 1394 3022 966 
Q 3022 478 2636 193 
Q 2250 -91 1575 -91 
Q 1294 -91 989 -36 
Q 684 19 347 128 
L 347 722 
Q 666 556 975 473 
Q 1284 391 1588 391 
Q 1994 391 2212 530 
Q 2431 669 2431 922 
Q 2431 1156 2273 1281 
Q 2116 1406 1581 1522 
L 1381 1569 
Q 847 1681 609 1914 
Q 372 2147 372 2553 
Q 372 3047 722 3315 
Q 1072 3584 1716 3584 
Q 2034 3584 2315 3537 
Q 2597 3491 2834 3397 
z
" transform="scale(0.015625)"/>
       <path id="DejaVuSans-74" d="M 1172 4494 
L 1172 3500 
L 2356 3500 
L 2356 3053 
L 1172 3053 
L 1172 1153 
Q 1172 725 1289 603 
Q 1406 481 1766 481 
L 2356 481 
L 2356 0 
L 1766 0 
Q 1100 0 847 248 
Q 594 497 594 1153 
L 594 3053 
L 172 3053 
L 172 3500 
L 594 3500 
L 594 4494 
L 1172 4494 
z
" transform="scale(0.015625)"/>
       <path id="DejaVuSans-28" d="M 1984 4856 
Q 1566 4138 1362 3434 
Q 1159 2731 1159 2009 
Q 1159 1288 1364 580 
Q 1569 -128 1984 -844 
L 1484 -844 
Q 1016 -109 783 600 
Q 550 1309 550 2009 
Q 550 2706 781 3412 
Q 1013 4119 1484 4856 
L 1984 4856 
z
" transform="scale(0.015625)"/>
       <path id="DejaVuSans-29" d="M 513 4856 
L 1013 4856 
Q 1481 4119 1714 3412 
Q 1947 2706 1947 2009 
Q 1947 1309 1714 600 
Q 1481 -109 1013 -844 
L 513 -844 
Q 928 -128 1133 580 
Q 1338 1288 1338 2009 
Q 1338 2731 1133 3434 
Q 928 4138 513 4856 
z
" transform="scale(0.015625)"/>
      </defs>
      <use xlink:href="#DejaVuSans-45"/>
      <use xlink:href="#DejaVuSans-61" x="63.183594"/>
      <use xlink:href="#DejaVuSans-73" x="124.462891"/>
      <use xlink:href="#DejaVuSans-74" x="176.5625"/>
      <use xlink:href="#DejaVuSans-28" x="215.771484"/>
      <use xlink:href="#DejaVuSans-6d" x="254.785156"/>
      <use xlink:href="#DejaVuSans-29" x="352.197266"/>
     </g>
    </g>
   </g>
   <g id="line2d_18">
    <path d="M 749.863636 431.632455 
L 753.904412 450.587861 
L 755.924799 468.477579 
L 761.985963 401.513294 
L 764.00635 367.470099 
L 766.026738 322.223902 
L 768.047126 299.640585 
L 770.067513 262.803574 
L 772.087901 285.142771 
L 774.108289 292.688613 
L 776.128676 297.183442 
L 790.27139 301.419987 
L 792.291778 263.971104 
L 794.312166 231.033313 
L 796.332553 225.749747 
L 798.352941 232.720113 
L 800.373329 237.439086 
L 802.393717 231.574394 
L 806.434492 241.018656 
L 808.45488 265.112688 
L 810.475267 265.775831 
L 812.495655 264.572308 
L 824.617981 339.807952 
L 830.679144 338.102751 
L 832.699532 331.779953 
L 834.71992 316.882146 
L 836.740307 328.37626 
L 844.821858 424.966634 
L 850.883021 456.077171 
L 852.903409 450.49905 
L 854.923797 402.249161 
L 856.944184 372.248353 
L 860.98496 338.214132 
L 863.005348 344.181824 
L 865.025735 363.194347 
L 867.046123 395.185963 
L 869.066511 407.760216 
L 873.107286 444.587988 
L 875.127674 433.696239 
L 877.148061 429.95634 
L 879.168449 431.954195 
L 885.229612 445.237154 
L 889.270388 493.784866 
L 891.290775 523.989174 
L 893.311163 501.273443 
L 895.331551 451.331791 
L 897.351939 455.025687 
L 901.392714 484.32014 
L 903.413102 415.770676 
L 905.433489 400.490301 
L 907.453877 405.962564 
L 909.474265 403.27888 
L 913.51504 371.746873 
L 915.535428 380.780605 
L 917.555816 434.769321 
L 921.596591 436.873393 
L 933.718917 488.384078 
L 937.759693 526.096355 
L 1044.840241 477.617964 
L 1046.860628 481.238468 
L 1048.881016 485.62984 
L 1212.53242 320.047567 
L 1214.552807 308.072657 
L 1216.573195 310.585107 
L 1226.675134 316.539591 
L 1230.715909 328.671889 
L 1232.736297 316.174972 
L 1234.756684 338.413251 
L 1236.777072 367.612743 
L 1238.79746 401.083599 
L 1240.817848 399.610914 
L 1242.838235 389.30547 
L 1333.755682 398.037184 
L 1335.77607 367.666619 
L 1337.796457 362.52361 
L 1341.837233 347.585535 
L 1372.143048 444.421849 
L 1374.163436 466.052423 
L 1376.183824 493.151362 
L 1378.204211 482.423886 
L 1382.244987 478.220683 
L 1384.265374 469.206064 
L 1386.285762 491.348154 
L 1388.30615 468.500355 
L 1390.326537 450.315401 
L 1392.346925 447.751273 
L 1394.367313 418.900619 
L 1402.448864 176.599669 
L 1404.469251 167.4 
L 1406.489639 196.535737 
L 1412.550802 349.032715 
L 1414.57119 448.659158 
L 1416.591578 523.835022 
L 1418.611965 533.855396 
L 1420.632353 507.243384 
L 1424.673128 452.079822 
L 1426.693516 464.775025 
L 1428.713904 467.893156 
L 1432.754679 470.884077 
L 1434.775067 497.273194 
L 1436.795455 506.729155 
L 1444.877005 392.954593 
L 1446.897393 382.632256 
L 1454.978944 383.266838 
L 1456.999332 457.738014 
L 1459.019719 487.133599 
L 1461.040107 487.310765 
L 1463.060495 474.735796 
L 1465.080882 483.043821 
L 1469.121658 793.955978 
L 1471.142045 806.945868 
L 1473.162433 785.66744 
L 1475.182821 783.976118 
L 1479.223596 766.010538 
L 1481.243984 546.25177 
L 1483.264372 442.294013 
L 1485.284759 448.516288 
L 1487.305147 474.88453 
L 1489.325535 484.386587 
L 1491.345922 418.390496 
L 1493.36631 390.290475 
L 1495.386698 404.56041 
L 1497.407086 383.042638 
L 1501.447861 318.951934 
L 1669.14004 744.342588 
L 1673.180816 709.846529 
L 1677.221591 687.569077 
L 1681.262366 666.962592 
L 1683.282754 661.235713 
L 1689.343917 688.037953 
L 1691.364305 673.944524 
L 1693.384693 660.991821 
L 1697.425468 625.832394 
L 1699.445856 614.118377 
L 1701.466243 627.659746 
L 1703.486631 674.323446 
L 1705.507019 679.250117 
L 1707.527406 694.433678 
L 1719.649733 726.966285 
L 1723.690508 697.500807 
L 1725.710896 661.275141 
L 1727.731283 698.064743 
L 1729.751671 723.229489 
L 1731.772059 779.915896 
L 1735.812834 779.427211 
L 1737.833222 775.479929 
L 1739.85361 798.317715 
L 1741.873997 790.774447 
L 1743.894385 775.543749 
L 1749.955548 753.995518 
L 1751.975936 780.264121 
L 1753.996324 744.976158 
L 1756.016711 764.150629 
L 1758.037099 754.954808 
L 1766.11865 791.147918 
L 1768.139037 814.671414 
L 1780.261364 803.047293 
L 1782.281751 759.960997 
L 1784.302139 791.602894 
L 1786.322527 819.366292 
L 1788.342914 824.567215 
L 1790.363302 865.026122 
L 1792.38369 822.009076 
L 1794.404078 811.306351 
L 1796.424465 806.186196 
L 1806.526404 748.415753 
L 1808.546791 743.762864 
L 1810.567179 737.815661 
L 1812.587567 729.06799 
L 1814.607955 703.437619 
L 1816.628342 748.990658 
L 1818.64873 742.218417 
L 1822.689505 774.524866 
L 1824.709893 774.034297 
L 1826.730281 798.955683 
L 1828.750668 854.330326 
L 1830.771056 832.662861 
L 1832.791444 826.550156 
L 1834.811832 786.351328 
L 1836.832219 769.077387 
L 1838.852607 772.626872 
L 1954.014706 737.100696 
L 1958.055481 699.10876 
L 1960.075869 710.093936 
L 1962.096257 668.02294 
L 1964.116644 594.82613 
L 1966.137032 573.403264 
L 1968.15742 516.248366 
L 1970.177807 554.818182 
L 1980.279746 596.077274 
L 1982.300134 640.358279 
L 1988.361297 649.050727 
L 1990.381684 623.248535 
L 1992.402072 615.934587 
L 1994.42246 603.845823 
L 1996.442848 606.448958 
L 2000.483623 599.418479 
L 2073.21758 699.784444 
L 2075.237968 739.542696 
L 2079.278743 750.562033 
L 2081.299131 738.523317 
L 2109.584559 731.114594 
L 2438.907754 680.639162 
L 2440.928142 711.870864 
L 2442.948529 735.695716 
L 2444.968917 702.429388 
L 2449.009693 721.483425 
L 2467.193182 749.153693 
L 3178.369652 856.707437 
L 3180.39004 887.049486 
L 3182.410428 830.142907 
L 3184.430816 796.841193 
L 3186.451203 824.133619 
L 3188.471591 803.742006 
L 3194.532754 808.184354 
L 3206.65508 792.623192 
L 3210.695856 803.435967 
L 3212.716243 764.828082 
L 3214.736631 794.604788 
L 3216.757019 778.122131 
L 3220.797794 737.773112 
L 3228.879345 718.841461 
L 3230.899733 752.592959 
L 3253.123997 811.044991 
L 3257.164773 799.239098 
L 3259.18516 835.138796 
L 3261.205548 806.156927 
L 3265.246324 745.802025 
L 3267.266711 699.837138 
L 3269.287099 715.669962 
L 3277.36865 644.117736 
L 3285.450201 672.948349 
L 3289.490976 691.894294 
L 3291.511364 674.281807 
L 3293.531751 651.159648 
L 3295.552139 609.368834 
L 3297.572527 604.420998 
L 3299.592914 578.294862 
L 3301.613302 576.433673 
L 3303.63369 565.546955 
L 3309.694853 602.579379 
L 3315.756016 594.782791 
L 3317.776404 610.163522 
L 3319.796791 574.948245 
L 3321.817179 556.232509 
L 3323.837567 554.397439 
L 3325.857955 581.46957 
L 3327.878342 574.244961 
L 3329.89873 554.001951 
L 3331.919118 542.277155 
L 3340.000668 553.479585 
L 3342.021056 534.771006 
L 3344.041444 537.881067 
L 3346.061832 553.160839 
L 3348.082219 553.873576 
L 3350.102607 597.067076 
L 3352.122995 631.542408 
L 3354.143382 627.894953 
L 3356.16377 650.371589 
L 3358.184158 629.721419 
L 3360.204545 605.946764 
L 3362.224933 563.858119 
L 3364.245321 529.033191 
L 3366.265709 516.217921 
L 3368.286096 521.300835 
L 3370.306484 535.099723 
L 3372.326872 553.434437 
L 3374.347259 573.531476 
L 3376.367647 607.432116 
L 3400.612299 503.815245 
L 3402.632687 515.696421 
L 3404.653075 512.302583 
L 3406.673463 533.528068 
L 3410.714238 548.526372 
L 3412.734626 578.463017 
L 3414.755013 593.325843 
L 3416.775401 587.571701 
L 3418.795789 573.299415 
L 3420.816176 555.26736 
L 3422.836564 538.49429 
L 3424.856952 552.495596 
L 3426.87734 572.608193 
L 3428.897727 569.986916 
L 3430.918115 588.489273 
L 3432.938503 605.622069 
L 3434.95889 603.456115 
L 3436.979278 589.738814 
L 3438.999666 536.675221 
L 3441.020053 493.621461 
L 3443.040441 480.619842 
L 3445.060829 443.521276 
L 3447.081217 413.386187 
L 3449.101604 385.247448 
L 3451.121992 421.671534 
L 3453.14238 469.328711 
L 3455.162767 484.50669 
L 3457.183155 477.40055 
L 3459.203543 492.271462 
L 3461.22393 523.441416 
L 3463.244318 548.73313 
L 3465.264706 555.741805 
L 3467.285094 561.888668 
L 3469.305481 556.1836 
L 3471.325869 553.328443 
L 3473.346257 548.954975 
L 3475.366644 517.545645 
L 3477.387032 506.4091 
L 3479.40742 497.973896 
L 3481.427807 492.880786 
L 3483.448195 538.438649 
L 3485.468583 558.548714 
L 3487.488971 560.676826 
L 3489.509358 551.856733 
L 3491.529746 544.784964 
L 3493.550134 538.50215 
L 3497.590909 488.547685 
L 3499.611297 483.670776 
L 3501.631684 491.550407 
L 3503.652072 518.049535 
L 3505.67246 538.071599 
L 3507.692848 544.099912 
L 3509.713235 537.26752 
L 3511.733623 534.01543 
L 3513.754011 532.313477 
L 3515.774398 526.573122 
L 3517.794786 519.668412 
L 3519.815174 525.974561 
L 3521.835561 517.758112 
L 3523.855949 529.87219 
L 3527.896725 506.303919 
L 3529.917112 507.079188 
L 3531.9375 518.324967 
L 3533.957888 501.566185 
L 3535.978275 500.794903 
L 3537.998663 526.17962 
L 3540.019051 522.018019 
L 3542.039439 526.169388 
L 3544.059826 537.20146 
L 3548.100602 541.272685 
L 3550.120989 521.998064 
L 3552.141377 515.632312 
L 3554.161765 491.89491 
L 3556.182152 486.678425 
L 3558.20254 472.869917 
L 3560.222928 461.403297 
L 3562.243316 426.515204 
L 3564.263703 431.465434 
L 3566.284091 413.167488 
L 3568.304479 383.166205 
L 3570.324866 383.928191 
L 3572.345254 395.434839 
L 3582.447193 527.678226 
L 3584.46758 543.303049 
L 3586.487968 586.174636 
L 3590.528743 582.011699 
L 3592.549131 605.998045 
L 3594.569519 589.59726 
L 3596.589906 566.479045 
L 3598.610294 558.093555 
L 3600.630682 479.745381 
L 3602.65107 471.221028 
L 3604.671457 471.819744 
L 3647.099599 515.833809 
L 3649.119987 509.60906 
L 3653.160762 585.068745 
L 3659.221925 767.785617 
L 3661.242313 756.166109 
L 3663.262701 742.50257 
L 3665.283088 767.376398 
L 3667.303476 730.031052 
L 3669.323864 734.226007 
L 3671.344251 585.906342 
L 3673.364639 584.50692 
L 3675.385027 598.412071 
L 3677.405414 631.350932 
L 3679.425802 653.168348 
L 3681.44619 661.213581 
L 3683.466578 672.912899 
L 3685.486965 670.416992 
L 3687.507353 689.661062 
L 3689.527741 655.060891 
L 3691.548128 648.632886 
L 3693.568516 617.257559 
L 3695.588904 604.904326 
L 3697.609291 575.32384 
L 3703.670455 625.555533 
L 3705.690842 614.910035 
L 3707.71123 629.160988 
L 3711.752005 614.798649 
L 3713.772393 613.666592 
L 3715.792781 598.453019 
L 3717.813168 626.740479 
L 3719.833556 612.849968 
L 3721.853944 627.833348 
L 3723.874332 639.092285 
L 3725.894719 661.868316 
L 3727.915107 657.732699 
L 3729.935495 673.467456 
L 3733.97627 633.663234 
L 3735.996658 649.625723 
L 3738.017045 682.044691 
L 3740.037433 654.941979 
L 3744.078209 687.149002 
L 3746.098596 677.652854 
L 3748.118984 700.4552 
L 3750.139372 677.964273 
L 3752.159759 674.747174 
L 3756.200535 717.391079 
L 3758.220922 689.373948 
L 3760.24131 687.441634 
L 3762.261698 672.924445 
L 3764.282086 656.171849 
L 3766.302473 612.606361 
L 3768.322861 574.789298 
L 3772.363636 568.058232 
L 3774.384024 572.211646 
L 3776.404412 622.308284 
L 3778.424799 659.674201 
L 3780.445187 669.851622 
L 3786.50635 613.745941 
L 3788.526738 656.652203 
L 3790.547126 631.732958 
L 3792.567513 621.641895 
L 3794.587901 674.326995 
L 3796.608289 716.76531 
L 3798.628676 733.134824 
L 3952.178142 916.073322 
L 3954.198529 890.647814 
L 3956.218917 891.588021 
L 3958.239305 884.932774 
L 3960.259693 869.490228 
L 3970.361631 845.993104 
L 3972.382019 847.297661 
L 3978.443182 867.293744 
L 3980.46357 838.651426 
L 3982.483957 841.126493 
L 3984.504345 800.518151 
L 3986.524733 812.58284 
L 3988.54512 830.413696 
L 3990.565508 808.682344 
L 3996.626671 872.361446 
L 4002.687834 851.068322 
L 4004.708222 901.702864 
L 4006.72861 865.95728 
L 4008.748997 875.221179 
L 4010.769385 851.683704 
L 4014.81016 878.357861 
L 4016.830548 863.515988 
L 4018.850936 833.965405 
L 4020.871324 854.92391 
L 4030.973262 909.210627 
L 4032.99365 904.175002 
L 4035.014037 923.4 
L 4037.034425 909.648626 
L 4039.054813 897.921991 
L 4041.075201 870.946024 
L 4045.115976 858.098692 
L 4047.136364 836.584012 
L 4047.136364 836.584012 
" clip-path="url(#pbafc46acdc)" style="fill: none; stroke: #ff7c00; stroke-width: 2.5; stroke-linecap: square"/>
   </g>
   <g id="patch_3">
    <path d="M 585 961.2 
L 585 129.6 
" style="fill: none; stroke: #000000; stroke-width: 0.8; stroke-linejoin: miter; stroke-linecap: square"/>
   </g>
   <g id="patch_4">
    <path d="M 4212 961.2 
L 4212 129.6 
" style="fill: none; stroke: #000000; stroke-width: 0.8; stroke-linejoin: miter; stroke-linecap: square"/>
   </g>
   <g id="patch_5">
    <path d="M 585 961.2 
L 4212 961.2 
" style="fill: none; stroke: #000000; stroke-width: 0.8; stroke-linejoin: miter; stroke-linecap: square"/>
   </g>
   <g id="patch_6">
    <path d="M 585 129.6 
L 4212 129.6 
" style="fill: none; stroke: #000000; stroke-width: 0.8; stroke-linejoin: miter; stroke-linecap: square"/>
   </g>
   <g id="text_20">
    <!-- ASIA -->
    <g transform="translate(2364.030469 123.360937) scale(0.3 -0.3)">
     <defs>
      <path id="DejaVuSans-41" d="M 2188 4044 
L 1331 1722 
L 3047 1722 
L 2188 4044 
z
M 1831 4666 
L 2547 4666 
L 4325 0 
L 3669 0 
L 3244 1197 
L 1141 1197 
L 716 0 
L 50 0 
L 1831 4666 
z
" transform="scale(0.015625)"/>
      <path id="DejaVuSans-53" d="M 3425 4513 
L 3425 3897 
Q 3066 4069 2747 4153 
Q 2428 4238 2131 4238 
Q 1616 4238 1336 4038 
Q 1056 3838 1056 3469 
Q 1056 3159 1242 3001 
Q 1428 2844 1947 2747 
L 2328 2669 
Q 3034 2534 3370 2195 
Q 3706 1856 3706 1288 
Q 3706 609 3251 259 
Q 2797 -91 1919 -91 
Q 1588 -91 1214 -16 
Q 841 59 441 206 
L 441 856 
Q 825 641 1194 531 
Q 1563 422 1919 422 
Q 2459 422 2753 634 
Q 3047 847 3047 1241 
Q 3047 1584 2836 1778 
Q 2625 1972 2144 2069 
L 1759 2144 
Q 1053 2284 737 2584 
Q 422 2884 422 3419 
Q 422 4038 858 4394 
Q 1294 4750 2059 4750 
Q 2388 4750 2728 4690 
Q 3069 4631 3425 4513 
z
" transform="scale(0.015625)"/>
      <path id="DejaVuSans-49" d="M 628 4666 
L 1259 4666 
L 1259 0 
L 628 0 
L 628 4666 
z
" transform="scale(0.015625)"/>
     </defs>
     <use xlink:href="#DejaVuSans-41"/>
     <use xlink:href="#DejaVuSans-53" x="68.408203"/>
     <use xlink:href="#DejaVuSans-49" x="131.884766"/>
     <use xlink:href="#DejaVuSans-41" x="161.376953"/>
    </g>
   </g>
   <g id="legend_1">
    <g id="patch_7">
     <path d="M 4152.75625 152.278125 
L 4205 152.278125 
Q 4207 152.278125 4207 150.278125 
L 4207 136.6 
Q 4207 134.6 4205 134.6 
L 4152.75625 134.6 
Q 4150.75625 134.6 4150.75625 136.6 
L 4150.75625 150.278125 
Q 4150.75625 152.278125 4152.75625 152.278125 
z
" style="fill: #ffffff; opacity: 0.8; stroke: #cccccc; stroke-linejoin: miter"/>
    </g>
    <g id="line2d_19">
     <path d="M 4154.75625 142.698438 
L 4164.75625 142.698438 
L 4174.75625 142.698438 
" style="fill: none; stroke: #ff7c00; stroke-width: 2.5; stroke-linecap: square"/>
    </g>
    <g id="text_21">
     <!-- asia -->
     <g transform="translate(4182.75625 146.198438) scale(0.1 -0.1)">
      <use xlink:href="#DejaVuSans-61"/>
      <use xlink:href="#DejaVuSans-73" x="61.279297"/>
      <use xlink:href="#DejaVuSans-69" x="113.378906"/>
      <use xlink:href="#DejaVuSans-61" x="141.162109"/>
     </g>
    </g>
   </g>
  </g>
 </g>
 <defs>
  <clipPath id="pbafc46acdc">
   <rect x="585" y="129.6" width="3627" height="831.6"/>
  </clipPath>
 </defs>
</svg>
