<?xml version="1.0" encoding="utf-8" standalone="no"?>
<!DOCTYPE svg PUBLIC "-//W3C//DTD SVG 1.1//EN"
  "http://www.w3.org/Graphics/SVG/1.1/DTD/svg11.dtd">
<svg xmlns:xlink="http://www.w3.org/1999/xlink" width="4680pt" height="1080pt" viewBox="0 0 4680 1080" xmlns="http://www.w3.org/2000/svg" version="1.1">
 <metadata>
  <rdf:RDF xmlns:dc="http://purl.org/dc/elements/1.1/" xmlns:cc="http://creativecommons.org/ns#" xmlns:rdf="http://www.w3.org/1999/02/22-rdf-syntax-ns#">
   <cc:Work>
    <dc:type rdf:resource="http://purl.org/dc/dcmitype/StillImage"/>
    <dc:date>2024-03-25T14:09:16.925851</dc:date>
    <dc:format>image/svg+xml</dc:format>
    <dc:creator>
     <cc:Agent>
      <dc:title>Matplotlib v3.7.2, https://matplotlib.org/</dc:title>
     </cc:Agent>
    </dc:creator>
   </cc:Work>
  </rdf:RDF>
 </metadata>
 <defs>
  <style type="text/css">*{stroke-linejoin: round; stroke-linecap: butt}</style>
 </defs>
 <g id="figure_1">
  <g id="patch_1">
   <path d="M 0 1080 
L 4680 1080 
L 4680 0 
L 0 0 
z
" style="fill: #ffffff"/>
  </g>
  <g id="axes_1">
   <g id="patch_2">
    <path d="M 585 961.2 
L 4212 961.2 
L 4212 129.6 
L 585 129.6 
z
" style="fill: #ffffff"/>
   </g>
   <g id="matplotlib.axis_1">
    <g id="xtick_1">
     <g id="line2d_1">
      <defs>
       <path id="m2e970b4e2f" d="M 0 0 
L 0 3.5 
" style="stroke: #000000; stroke-width: 0.8"/>
      </defs>
      <g>
       <use xlink:href="#m2e970b4e2f" x="941.800468" y="961.2" style="stroke: #000000; stroke-width: 0.8"/>
      </g>
     </g>
     <g id="text_1">
      <!-- 2012-07 -->
      <g transform="translate(900.017655 983.396875) scale(0.2 -0.2)">
       <defs>
        <path id="DejaVuSans-32" d="M 1228 531 
L 3431 531 
L 3431 0 
L 469 0 
L 469 531 
Q 828 903 1448 1529 
Q 2069 2156 2228 2338 
Q 2531 2678 2651 2914 
Q 2772 3150 2772 3378 
Q 2772 3750 2511 3984 
Q 2250 4219 1831 4219 
Q 1534 4219 1204 4116 
Q 875 4013 500 3803 
L 500 4441 
Q 881 4594 1212 4672 
Q 1544 4750 1819 4750 
Q 2544 4750 2975 4387 
Q 3406 4025 3406 3419 
Q 3406 3131 3298 2873 
Q 3191 2616 2906 2266 
Q 2828 2175 2409 1742 
Q 1991 1309 1228 531 
z
" transform="scale(0.015625)"/>
        <path id="DejaVuSans-30" d="M 2034 4250 
Q 1547 4250 1301 3770 
Q 1056 3291 1056 2328 
Q 1056 1369 1301 889 
Q 1547 409 2034 409 
Q 2525 409 2770 889 
Q 3016 1369 3016 2328 
Q 3016 3291 2770 3770 
Q 2525 4250 2034 4250 
z
M 2034 4750 
Q 2819 4750 3233 4129 
Q 3647 3509 3647 2328 
Q 3647 1150 3233 529 
Q 2819 -91 2034 -91 
Q 1250 -91 836 529 
Q 422 1150 422 2328 
Q 422 3509 836 4129 
Q 1250 4750 2034 4750 
z
" transform="scale(0.015625)"/>
        <path id="DejaVuSans-31" d="M 794 531 
L 1825 531 
L 1825 4091 
L 703 3866 
L 703 4441 
L 1819 4666 
L 2450 4666 
L 2450 531 
L 3481 531 
L 3481 0 
L 794 0 
L 794 531 
z
" transform="scale(0.015625)"/>
        <path id="DejaVuSans-2d" d="M 313 2009 
L 1997 2009 
L 1997 1497 
L 313 1497 
L 313 2009 
z
" transform="scale(0.015625)"/>
        <path id="DejaVuSans-37" d="M 525 4666 
L 3525 4666 
L 3525 4397 
L 1831 0 
L 1172 0 
L 2766 4134 
L 525 4134 
L 525 4666 
z
" transform="scale(0.015625)"/>
       </defs>
       <use xlink:href="#DejaVuSans-32"/>
       <use xlink:href="#DejaVuSans-30" x="63.623047"/>
       <use xlink:href="#DejaVuSans-31" x="127.246094"/>
       <use xlink:href="#DejaVuSans-32" x="190.869141"/>
       <use xlink:href="#DejaVuSans-2d" x="254.492188"/>
       <use xlink:href="#DejaVuSans-30" x="290.576172"/>
       <use xlink:href="#DejaVuSans-37" x="354.199219"/>
      </g>
     </g>
    </g>
    <g id="xtick_2">
     <g id="line2d_2">
      <g>
       <use xlink:href="#m2e970b4e2f" x="1313.551805" y="961.2" style="stroke: #000000; stroke-width: 0.8"/>
      </g>
     </g>
     <g id="text_2">
      <!-- 2013-01 -->
      <g transform="translate(1271.768992 983.396875) scale(0.2 -0.2)">
       <defs>
        <path id="DejaVuSans-33" d="M 2597 2516 
Q 3050 2419 3304 2112 
Q 3559 1806 3559 1356 
Q 3559 666 3084 287 
Q 2609 -91 1734 -91 
Q 1441 -91 1130 -33 
Q 819 25 488 141 
L 488 750 
Q 750 597 1062 519 
Q 1375 441 1716 441 
Q 2309 441 2620 675 
Q 2931 909 2931 1356 
Q 2931 1769 2642 2001 
Q 2353 2234 1838 2234 
L 1294 2234 
L 1294 2753 
L 1863 2753 
Q 2328 2753 2575 2939 
Q 2822 3125 2822 3475 
Q 2822 3834 2567 4026 
Q 2313 4219 1838 4219 
Q 1578 4219 1281 4162 
Q 984 4106 628 3988 
L 628 4550 
Q 988 4650 1302 4700 
Q 1616 4750 1894 4750 
Q 2613 4750 3031 4423 
Q 3450 4097 3450 3541 
Q 3450 3153 3228 2886 
Q 3006 2619 2597 2516 
z
" transform="scale(0.015625)"/>
       </defs>
       <use xlink:href="#DejaVuSans-32"/>
       <use xlink:href="#DejaVuSans-30" x="63.623047"/>
       <use xlink:href="#DejaVuSans-31" x="127.246094"/>
       <use xlink:href="#DejaVuSans-33" x="190.869141"/>
       <use xlink:href="#DejaVuSans-2d" x="254.492188"/>
       <use xlink:href="#DejaVuSans-30" x="290.576172"/>
       <use xlink:href="#DejaVuSans-31" x="354.199219"/>
      </g>
     </g>
    </g>
    <g id="xtick_3">
     <g id="line2d_3">
      <g>
       <use xlink:href="#m2e970b4e2f" x="1679.241979" y="961.2" style="stroke: #000000; stroke-width: 0.8"/>
      </g>
     </g>
     <g id="text_3">
      <!-- 2013-07 -->
      <g transform="translate(1637.459166 983.396875) scale(0.2 -0.2)">
       <use xlink:href="#DejaVuSans-32"/>
       <use xlink:href="#DejaVuSans-30" x="63.623047"/>
       <use xlink:href="#DejaVuSans-31" x="127.246094"/>
       <use xlink:href="#DejaVuSans-33" x="190.869141"/>
       <use xlink:href="#DejaVuSans-2d" x="254.492188"/>
       <use xlink:href="#DejaVuSans-30" x="290.576172"/>
       <use xlink:href="#DejaVuSans-37" x="354.199219"/>
      </g>
     </g>
    </g>
    <g id="xtick_4">
     <g id="line2d_4">
      <g>
       <use xlink:href="#m2e970b4e2f" x="2050.993316" y="961.2" style="stroke: #000000; stroke-width: 0.8"/>
      </g>
     </g>
     <g id="text_4">
      <!-- 2014-01 -->
      <g transform="translate(2009.210503 983.396875) scale(0.2 -0.2)">
       <defs>
        <path id="DejaVuSans-34" d="M 2419 4116 
L 825 1625 
L 2419 1625 
L 2419 4116 
z
M 2253 4666 
L 3047 4666 
L 3047 1625 
L 3713 1625 
L 3713 1100 
L 3047 1100 
L 3047 0 
L 2419 0 
L 2419 1100 
L 313 1100 
L 313 1709 
L 2253 4666 
z
" transform="scale(0.015625)"/>
       </defs>
       <use xlink:href="#DejaVuSans-32"/>
       <use xlink:href="#DejaVuSans-30" x="63.623047"/>
       <use xlink:href="#DejaVuSans-31" x="127.246094"/>
       <use xlink:href="#DejaVuSans-34" x="190.869141"/>
       <use xlink:href="#DejaVuSans-2d" x="254.492188"/>
       <use xlink:href="#DejaVuSans-30" x="290.576172"/>
       <use xlink:href="#DejaVuSans-31" x="354.199219"/>
      </g>
     </g>
    </g>
    <g id="xtick_5">
     <g id="line2d_5">
      <g>
       <use xlink:href="#m2e970b4e2f" x="2416.683489" y="961.2" style="stroke: #000000; stroke-width: 0.8"/>
      </g>
     </g>
     <g id="text_5">
      <!-- 2014-07 -->
      <g transform="translate(2374.900677 983.396875) scale(0.2 -0.2)">
       <use xlink:href="#DejaVuSans-32"/>
       <use xlink:href="#DejaVuSans-30" x="63.623047"/>
       <use xlink:href="#DejaVuSans-31" x="127.246094"/>
       <use xlink:href="#DejaVuSans-34" x="190.869141"/>
       <use xlink:href="#DejaVuSans-2d" x="254.492188"/>
       <use xlink:href="#DejaVuSans-30" x="290.576172"/>
       <use xlink:href="#DejaVuSans-37" x="354.199219"/>
      </g>
     </g>
    </g>
    <g id="xtick_6">
     <g id="line2d_6">
      <g>
       <use xlink:href="#m2e970b4e2f" x="2788.434826" y="961.2" style="stroke: #000000; stroke-width: 0.8"/>
      </g>
     </g>
     <g id="text_6">
      <!-- 2015-01 -->
      <g transform="translate(2746.652014 983.396875) scale(0.2 -0.2)">
       <defs>
        <path id="DejaVuSans-35" d="M 691 4666 
L 3169 4666 
L 3169 4134 
L 1269 4134 
L 1269 2991 
Q 1406 3038 1543 3061 
Q 1681 3084 1819 3084 
Q 2600 3084 3056 2656 
Q 3513 2228 3513 1497 
Q 3513 744 3044 326 
Q 2575 -91 1722 -91 
Q 1428 -91 1123 -41 
Q 819 9 494 109 
L 494 744 
Q 775 591 1075 516 
Q 1375 441 1709 441 
Q 2250 441 2565 725 
Q 2881 1009 2881 1497 
Q 2881 1984 2565 2268 
Q 2250 2553 1709 2553 
Q 1456 2553 1204 2497 
Q 953 2441 691 2322 
L 691 4666 
z
" transform="scale(0.015625)"/>
       </defs>
       <use xlink:href="#DejaVuSans-32"/>
       <use xlink:href="#DejaVuSans-30" x="63.623047"/>
       <use xlink:href="#DejaVuSans-31" x="127.246094"/>
       <use xlink:href="#DejaVuSans-35" x="190.869141"/>
       <use xlink:href="#DejaVuSans-2d" x="254.492188"/>
       <use xlink:href="#DejaVuSans-30" x="290.576172"/>
       <use xlink:href="#DejaVuSans-31" x="354.199219"/>
      </g>
     </g>
    </g>
    <g id="xtick_7">
     <g id="line2d_7">
      <g>
       <use xlink:href="#m2e970b4e2f" x="3154.125" y="961.2" style="stroke: #000000; stroke-width: 0.8"/>
      </g>
     </g>
     <g id="text_7">
      <!-- 2015-07 -->
      <g transform="translate(3112.342188 983.396875) scale(0.2 -0.2)">
       <use xlink:href="#DejaVuSans-32"/>
       <use xlink:href="#DejaVuSans-30" x="63.623047"/>
       <use xlink:href="#DejaVuSans-31" x="127.246094"/>
       <use xlink:href="#DejaVuSans-35" x="190.869141"/>
       <use xlink:href="#DejaVuSans-2d" x="254.492188"/>
       <use xlink:href="#DejaVuSans-30" x="290.576172"/>
       <use xlink:href="#DejaVuSans-37" x="354.199219"/>
      </g>
     </g>
    </g>
    <g id="xtick_8">
     <g id="line2d_8">
      <g>
       <use xlink:href="#m2e970b4e2f" x="3525.876337" y="961.2" style="stroke: #000000; stroke-width: 0.8"/>
      </g>
     </g>
     <g id="text_8">
      <!-- 2016-01 -->
      <g transform="translate(3484.093524 983.396875) scale(0.2 -0.2)">
       <defs>
        <path id="DejaVuSans-36" d="M 2113 2584 
Q 1688 2584 1439 2293 
Q 1191 2003 1191 1497 
Q 1191 994 1439 701 
Q 1688 409 2113 409 
Q 2538 409 2786 701 
Q 3034 994 3034 1497 
Q 3034 2003 2786 2293 
Q 2538 2584 2113 2584 
z
M 3366 4563 
L 3366 3988 
Q 3128 4100 2886 4159 
Q 2644 4219 2406 4219 
Q 1781 4219 1451 3797 
Q 1122 3375 1075 2522 
Q 1259 2794 1537 2939 
Q 1816 3084 2150 3084 
Q 2853 3084 3261 2657 
Q 3669 2231 3669 1497 
Q 3669 778 3244 343 
Q 2819 -91 2113 -91 
Q 1303 -91 875 529 
Q 447 1150 447 2328 
Q 447 3434 972 4092 
Q 1497 4750 2381 4750 
Q 2619 4750 2861 4703 
Q 3103 4656 3366 4563 
z
" transform="scale(0.015625)"/>
       </defs>
       <use xlink:href="#DejaVuSans-32"/>
       <use xlink:href="#DejaVuSans-30" x="63.623047"/>
       <use xlink:href="#DejaVuSans-31" x="127.246094"/>
       <use xlink:href="#DejaVuSans-36" x="190.869141"/>
       <use xlink:href="#DejaVuSans-2d" x="254.492188"/>
       <use xlink:href="#DejaVuSans-30" x="290.576172"/>
       <use xlink:href="#DejaVuSans-31" x="354.199219"/>
      </g>
     </g>
    </g>
    <g id="xtick_9">
     <g id="line2d_9">
      <g>
       <use xlink:href="#m2e970b4e2f" x="3893.586898" y="961.2" style="stroke: #000000; stroke-width: 0.8"/>
      </g>
     </g>
     <g id="text_9">
      <!-- 2016-07 -->
      <g transform="translate(3851.804086 983.396875) scale(0.2 -0.2)">
       <use xlink:href="#DejaVuSans-32"/>
       <use xlink:href="#DejaVuSans-30" x="63.623047"/>
       <use xlink:href="#DejaVuSans-31" x="127.246094"/>
       <use xlink:href="#DejaVuSans-36" x="190.869141"/>
       <use xlink:href="#DejaVuSans-2d" x="254.492188"/>
       <use xlink:href="#DejaVuSans-30" x="290.576172"/>
       <use xlink:href="#DejaVuSans-37" x="354.199219"/>
      </g>
     </g>
    </g>
    <g id="text_10">
     <!-- Time -->
     <g transform="translate(2374.032813 1006.753125) scale(0.2 -0.2)">
      <defs>
       <path id="DejaVuSans-54" d="M -19 4666 
L 3928 4666 
L 3928 4134 
L 2272 4134 
L 2272 0 
L 1638 0 
L 1638 4134 
L -19 4134 
L -19 4666 
z
" transform="scale(0.015625)"/>
       <path id="DejaVuSans-69" d="M 603 3500 
L 1178 3500 
L 1178 0 
L 603 0 
L 603 3500 
z
M 603 4863 
L 1178 4863 
L 1178 4134 
L 603 4134 
L 603 4863 
z
" transform="scale(0.015625)"/>
       <path id="DejaVuSans-6d" d="M 3328 2828 
Q 3544 3216 3844 3400 
Q 4144 3584 4550 3584 
Q 5097 3584 5394 3201 
Q 5691 2819 5691 2113 
L 5691 0 
L 5113 0 
L 5113 2094 
Q 5113 2597 4934 2840 
Q 4756 3084 4391 3084 
Q 3944 3084 3684 2787 
Q 3425 2491 3425 1978 
L 3425 0 
L 2847 0 
L 2847 2094 
Q 2847 2600 2669 2842 
Q 2491 3084 2119 3084 
Q 1678 3084 1418 2786 
Q 1159 2488 1159 1978 
L 1159 0 
L 581 0 
L 581 3500 
L 1159 3500 
L 1159 2956 
Q 1356 3278 1631 3431 
Q 1906 3584 2284 3584 
Q 2666 3584 2933 3390 
Q 3200 3197 3328 2828 
z
" transform="scale(0.015625)"/>
       <path id="DejaVuSans-65" d="M 3597 1894 
L 3597 1613 
L 953 1613 
Q 991 1019 1311 708 
Q 1631 397 2203 397 
Q 2534 397 2845 478 
Q 3156 559 3463 722 
L 3463 178 
Q 3153 47 2828 -22 
Q 2503 -91 2169 -91 
Q 1331 -91 842 396 
Q 353 884 353 1716 
Q 353 2575 817 3079 
Q 1281 3584 2069 3584 
Q 2775 3584 3186 3129 
Q 3597 2675 3597 1894 
z
M 3022 2063 
Q 3016 2534 2758 2815 
Q 2500 3097 2075 3097 
Q 1594 3097 1305 2825 
Q 1016 2553 972 2059 
L 3022 2063 
z
" transform="scale(0.015625)"/>
      </defs>
      <use xlink:href="#DejaVuSans-54"/>
      <use xlink:href="#DejaVuSans-69" x="57.958984"/>
      <use xlink:href="#DejaVuSans-6d" x="85.742188"/>
      <use xlink:href="#DejaVuSans-65" x="183.154297"/>
     </g>
    </g>
   </g>
   <g id="matplotlib.axis_2">
    <g id="ytick_1">
     <g id="line2d_10">
      <defs>
       <path id="mccadaa5c25" d="M 0 0 
L -3.5 0 
" style="stroke: #000000; stroke-width: 0.8"/>
      </defs>
      <g>
       <use xlink:href="#mccadaa5c25" x="585" y="845.546028" style="stroke: #000000; stroke-width: 0.8"/>
      </g>
     </g>
     <g id="text_11">
      <!-- −0.004 -->
      <g transform="translate(503.984375 853.144466) scale(0.2 -0.2)">
       <defs>
        <path id="DejaVuSans-2212" d="M 678 2272 
L 4684 2272 
L 4684 1741 
L 678 1741 
L 678 2272 
z
" transform="scale(0.015625)"/>
        <path id="DejaVuSans-2e" d="M 684 794 
L 1344 794 
L 1344 0 
L 684 0 
L 684 794 
z
" transform="scale(0.015625)"/>
       </defs>
       <use xlink:href="#DejaVuSans-2212"/>
       <use xlink:href="#DejaVuSans-30" x="83.789062"/>
       <use xlink:href="#DejaVuSans-2e" x="147.412109"/>
       <use xlink:href="#DejaVuSans-30" x="179.199219"/>
       <use xlink:href="#DejaVuSans-30" x="242.822266"/>
       <use xlink:href="#DejaVuSans-34" x="306.445312"/>
      </g>
     </g>
    </g>
    <g id="ytick_2">
     <g id="line2d_11">
      <g>
       <use xlink:href="#mccadaa5c25" x="585" y="676.877013" style="stroke: #000000; stroke-width: 0.8"/>
      </g>
     </g>
     <g id="text_12">
      <!-- −0.002 -->
      <g transform="translate(503.984375 684.475451) scale(0.2 -0.2)">
       <use xlink:href="#DejaVuSans-2212"/>
       <use xlink:href="#DejaVuSans-30" x="83.789062"/>
       <use xlink:href="#DejaVuSans-2e" x="147.412109"/>
       <use xlink:href="#DejaVuSans-30" x="179.199219"/>
       <use xlink:href="#DejaVuSans-30" x="242.822266"/>
       <use xlink:href="#DejaVuSans-32" x="306.445312"/>
      </g>
     </g>
    </g>
    <g id="ytick_3">
     <g id="line2d_12">
      <g>
       <use xlink:href="#mccadaa5c25" x="585" y="508.207999" style="stroke: #000000; stroke-width: 0.8"/>
      </g>
     </g>
     <g id="text_13">
      <!-- 0.000 -->
      <g transform="translate(520.74375 515.806436) scale(0.2 -0.2)">
       <use xlink:href="#DejaVuSans-30"/>
       <use xlink:href="#DejaVuSans-2e" x="63.623047"/>
       <use xlink:href="#DejaVuSans-30" x="95.410156"/>
       <use xlink:href="#DejaVuSans-30" x="159.033203"/>
       <use xlink:href="#DejaVuSans-30" x="222.65625"/>
      </g>
     </g>
    </g>
    <g id="ytick_4">
     <g id="line2d_13">
      <g>
       <use xlink:href="#mccadaa5c25" x="585" y="339.538984" style="stroke: #000000; stroke-width: 0.8"/>
      </g>
     </g>
     <g id="text_14">
      <!-- 0.002 -->
      <g transform="translate(520.74375 347.137421) scale(0.2 -0.2)">
       <use xlink:href="#DejaVuSans-30"/>
       <use xlink:href="#DejaVuSans-2e" x="63.623047"/>
       <use xlink:href="#DejaVuSans-30" x="95.410156"/>
       <use xlink:href="#DejaVuSans-30" x="159.033203"/>
       <use xlink:href="#DejaVuSans-32" x="222.65625"/>
      </g>
     </g>
    </g>
    <g id="ytick_5">
     <g id="line2d_14">
      <g>
       <use xlink:href="#mccadaa5c25" x="585" y="170.869969" style="stroke: #000000; stroke-width: 0.8"/>
      </g>
     </g>
     <g id="text_15">
      <!-- 0.004 -->
      <g transform="translate(520.74375 178.468407) scale(0.2 -0.2)">
       <use xlink:href="#DejaVuSans-30"/>
       <use xlink:href="#DejaVuSans-2e" x="63.623047"/>
       <use xlink:href="#DejaVuSans-30" x="95.410156"/>
       <use xlink:href="#DejaVuSans-30" x="159.033203"/>
       <use xlink:href="#DejaVuSans-34" x="222.65625"/>
      </g>
     </g>
    </g>
    <g id="text_16">
     <!-- East(m) -->
     <g transform="translate(495.825 584.520313) rotate(-90) scale(0.2 -0.2)">
      <defs>
       <path id="DejaVuSans-45" d="M 628 4666 
L 3578 4666 
L 3578 4134 
L 1259 4134 
L 1259 2753 
L 3481 2753 
L 3481 2222 
L 1259 2222 
L 1259 531 
L 3634 531 
L 3634 0 
L 628 0 
L 628 4666 
z
" transform="scale(0.015625)"/>
       <path id="DejaVuSans-61" d="M 2194 1759 
Q 1497 1759 1228 1600 
Q 959 1441 959 1056 
Q 959 750 1161 570 
Q 1363 391 1709 391 
Q 2188 391 2477 730 
Q 2766 1069 2766 1631 
L 2766 1759 
L 2194 1759 
z
M 3341 1997 
L 3341 0 
L 2766 0 
L 2766 531 
Q 2569 213 2275 61 
Q 1981 -91 1556 -91 
Q 1019 -91 701 211 
Q 384 513 384 1019 
Q 384 1609 779 1909 
Q 1175 2209 1959 2209 
L 2766 2209 
L 2766 2266 
Q 2766 2663 2505 2880 
Q 2244 3097 1772 3097 
Q 1472 3097 1187 3025 
Q 903 2953 641 2809 
L 641 3341 
Q 956 3463 1253 3523 
Q 1550 3584 1831 3584 
Q 2591 3584 2966 3190 
Q 3341 2797 3341 1997 
z
" transform="scale(0.015625)"/>
       <path id="DejaVuSans-73" d="M 2834 3397 
L 2834 2853 
Q 2591 2978 2328 3040 
Q 2066 3103 1784 3103 
Q 1356 3103 1142 2972 
Q 928 2841 928 2578 
Q 928 2378 1081 2264 
Q 1234 2150 1697 2047 
L 1894 2003 
Q 2506 1872 2764 1633 
Q 3022 1394 3022 966 
Q 3022 478 2636 193 
Q 2250 -91 1575 -91 
Q 1294 -91 989 -36 
Q 684 19 347 128 
L 347 722 
Q 666 556 975 473 
Q 1284 391 1588 391 
Q 1994 391 2212 530 
Q 2431 669 2431 922 
Q 2431 1156 2273 1281 
Q 2116 1406 1581 1522 
L 1381 1569 
Q 847 1681 609 1914 
Q 372 2147 372 2553 
Q 372 3047 722 3315 
Q 1072 3584 1716 3584 
Q 2034 3584 2315 3537 
Q 2597 3491 2834 3397 
z
" transform="scale(0.015625)"/>
       <path id="DejaVuSans-74" d="M 1172 4494 
L 1172 3500 
L 2356 3500 
L 2356 3053 
L 1172 3053 
L 1172 1153 
Q 1172 725 1289 603 
Q 1406 481 1766 481 
L 2356 481 
L 2356 0 
L 1766 0 
Q 1100 0 847 248 
Q 594 497 594 1153 
L 594 3053 
L 172 3053 
L 172 3500 
L 594 3500 
L 594 4494 
L 1172 4494 
z
" transform="scale(0.015625)"/>
       <path id="DejaVuSans-28" d="M 1984 4856 
Q 1566 4138 1362 3434 
Q 1159 2731 1159 2009 
Q 1159 1288 1364 580 
Q 1569 -128 1984 -844 
L 1484 -844 
Q 1016 -109 783 600 
Q 550 1309 550 2009 
Q 550 2706 781 3412 
Q 1013 4119 1484 4856 
L 1984 4856 
z
" transform="scale(0.015625)"/>
       <path id="DejaVuSans-29" d="M 513 4856 
L 1013 4856 
Q 1481 4119 1714 3412 
Q 1947 2706 1947 2009 
Q 1947 1309 1714 600 
Q 1481 -109 1013 -844 
L 513 -844 
Q 928 -128 1133 580 
Q 1338 1288 1338 2009 
Q 1338 2731 1133 3434 
Q 928 4138 513 4856 
z
" transform="scale(0.015625)"/>
      </defs>
      <use xlink:href="#DejaVuSans-45"/>
      <use xlink:href="#DejaVuSans-61" x="63.183594"/>
      <use xlink:href="#DejaVuSans-73" x="124.462891"/>
      <use xlink:href="#DejaVuSans-74" x="176.5625"/>
      <use xlink:href="#DejaVuSans-28" x="215.771484"/>
      <use xlink:href="#DejaVuSans-6d" x="254.785156"/>
      <use xlink:href="#DejaVuSans-29" x="352.197266"/>
     </g>
    </g>
   </g>
   <g id="line2d_15">
    <path d="M 749.863636 422.886849 
L 753.904412 457.843969 
L 755.924799 461.256479 
L 761.985963 396.664781 
L 764.00635 369.474392 
L 766.026738 376.426194 
L 768.047126 350.351601 
L 770.067513 359.59878 
L 772.087901 366.42084 
L 774.108289 367.642097 
L 776.128676 382.066379 
L 790.27139 327.811411 
L 792.291778 323.259902 
L 794.312166 309.154046 
L 796.332553 291.464563 
L 798.352941 311.119051 
L 800.373329 327.728891 
L 802.393717 346.624278 
L 806.434492 357.04239 
L 810.475267 412.679198 
L 812.495655 363.415545 
L 824.617981 374.439309 
L 830.679144 446.38158 
L 832.699532 457.332103 
L 834.71992 435.703223 
L 836.740307 434.415958 
L 844.821858 431.475792 
L 850.883021 430.279792 
L 852.903409 397.495234 
L 854.923797 430.469408 
L 856.944184 435.20367 
L 860.98496 389.265907 
L 863.005348 398.168353 
L 865.025735 395.438556 
L 867.046123 451.890689 
L 869.066511 464.138255 
L 873.107286 522.219194 
L 875.127674 516.198222 
L 877.148061 523.004579 
L 879.168449 517.543994 
L 885.229612 435.580654 
L 891.290775 448.965886 
L 893.311163 473.96775 
L 895.331551 534.35374 
L 897.351939 565.735498 
L 899.372326 568.691716 
L 901.392714 551.201726 
L 903.413102 536.987017 
L 905.433489 504.917639 
L 907.453877 467.534356 
L 909.474265 424.027843 
L 913.51504 407.655898 
L 915.535428 374.488412 
L 917.555816 379.784704 
L 921.596591 476.503398 
L 933.718917 525.369443 
L 937.759693 531.606996 
L 1044.840241 673.248978 
L 1046.860628 682.924028 
L 1048.881016 721.930012 
L 1212.53242 508.082129 
L 1214.552807 503.933106 
L 1216.573195 483.859483 
L 1226.675134 432.757996 
L 1230.715909 411.52393 
L 1232.736297 399.320317 
L 1234.756684 420.798669 
L 1236.777072 437.174186 
L 1238.79746 443.556706 
L 1240.817848 489.74404 
L 1242.838235 486.285468 
L 1333.755682 302.85067 
L 1335.77607 306.009476 
L 1337.796457 326.487799 
L 1341.837233 348.155657 
L 1372.143048 341.547349 
L 1374.163436 389.686706 
L 1376.183824 414.760501 
L 1378.204211 418.023061 
L 1382.244987 407.077711 
L 1384.265374 433.605733 
L 1386.285762 417.215688 
L 1390.326537 356.713967 
L 1394.367313 286.516436 
L 1402.448864 207.976861 
L 1404.469251 211.855954 
L 1406.489639 223.398768 
L 1412.550802 309.987121 
L 1414.57119 354.070738 
L 1416.591578 339.028684 
L 1418.611965 332.889431 
L 1420.632353 338.33239 
L 1424.673128 249.769975 
L 1426.693516 188.860301 
L 1428.713904 167.4 
L 1432.754679 207.806674 
L 1434.775067 233.896633 
L 1436.795455 226.187445 
L 1444.877005 311.198941 
L 1446.897393 316.425789 
L 1454.978944 348.884263 
L 1456.999332 407.040998 
L 1459.019719 427.447758 
L 1461.040107 412.782306 
L 1463.060495 389.675242 
L 1465.080882 378.920895 
L 1469.121658 456.874697 
L 1471.142045 460.817919 
L 1473.162433 439.560938 
L 1475.182821 454.676386 
L 1479.223596 468.289082 
L 1481.243984 452.27467 
L 1483.264372 378.279298 
L 1485.284759 366.138646 
L 1487.305147 397.309012 
L 1489.325535 435.200611 
L 1491.345922 389.651114 
L 1493.36631 360.352523 
L 1495.386698 378.515486 
L 1497.407086 364.711452 
L 1501.447861 339.652981 
L 1669.14004 771.742977 
L 1673.180816 669.883173 
L 1677.221591 677.301415 
L 1681.262366 685.748608 
L 1683.282754 658.318548 
L 1689.343917 742.313323 
L 1691.364305 713.837729 
L 1693.384693 719.256453 
L 1697.425468 754.830092 
L 1699.445856 769.231884 
L 1701.466243 749.904177 
L 1703.486631 762.045601 
L 1705.507019 789.370145 
L 1707.527406 830.010973 
L 1719.649733 857.388615 
L 1723.690508 853.215091 
L 1725.710896 836.212987 
L 1727.731283 798.323041 
L 1729.751671 824.645525 
L 1731.772059 820.742143 
L 1735.812834 822.84382 
L 1737.833222 834.705911 
L 1739.85361 868.780284 
L 1741.873997 884.01405 
L 1743.894385 894.354847 
L 1749.955548 891.524048 
L 1751.975936 923.4 
L 1753.996324 907.401516 
L 1756.016711 881.990311 
L 1758.037099 862.294865 
L 1766.11865 846.399469 
L 1768.139037 880.282352 
L 1780.261364 878.196406 
L 1782.281751 821.762794 
L 1784.302139 860.077235 
L 1786.322527 844.413968 
L 1788.342914 812.121584 
L 1790.363302 805.253654 
L 1792.38369 782.149656 
L 1794.404078 770.022264 
L 1796.424465 800.89143 
L 1806.526404 797.068679 
L 1808.546791 795.553812 
L 1810.567179 768.025419 
L 1812.587567 789.278423 
L 1814.607955 798.385085 
L 1816.628342 774.619398 
L 1818.64873 780.788284 
L 1822.689505 773.635035 
L 1824.709893 801.1137 
L 1828.750668 741.873749 
L 1830.771056 722.52024 
L 1832.791444 724.477141 
L 1834.811832 733.747336 
L 1836.832219 736.807595 
L 1838.852607 713.031183 
L 1954.014706 591.266816 
L 1958.055481 442.797657 
L 1960.075869 445.381185 
L 1962.096257 435.226268 
L 1964.116644 367.48661 
L 1966.137032 361.791946 
L 1968.15742 343.859484 
L 1970.177807 428.886934 
L 1980.279746 472.364159 
L 1982.300134 484.082055 
L 1988.361297 529.46301 
L 1990.381684 476.992901 
L 1992.402072 483.537441 
L 1994.42246 473.336595 
L 1996.442848 480.633482 
L 2000.483623 450.5113 
L 2073.21758 405.776662 
L 2075.237968 454.918454 
L 2079.278743 395.594845 
L 2081.299131 373.360873 
L 2109.584559 286.348206 
L 2438.907754 749.230241 
L 2440.928142 771.480569 
L 2442.948529 777.814626 
L 2444.968917 804.609589 
L 2449.009693 916.791667 
L 2467.193182 890.053149 
L 3178.369652 828.472771 
L 3180.39004 813.613689 
L 3182.410428 789.066527 
L 3184.430816 731.017668 
L 3186.451203 724.109853 
L 3188.471591 733.189227 
L 3194.532754 813.482422 
L 3206.65508 797.637136 
L 3210.695856 846.402929 
L 3212.716243 877.494822 
L 3214.736631 883.124942 
L 3216.757019 892.412244 
L 3220.797794 856.93316 
L 3228.879345 840.758673 
L 3230.899733 828.38326 
L 3253.123997 754.752093 
L 3257.164773 788.568087 
L 3259.18516 829.348487 
L 3261.205548 845.919639 
L 3265.246324 830.181105 
L 3267.266711 827.275458 
L 3269.287099 805.722396 
L 3277.36865 780.110548 
L 3285.450201 865.607896 
L 3287.470588 846.588027 
L 3289.490976 807.772235 
L 3291.511364 836.12368 
L 3293.531751 821.968739 
L 3295.552139 806.537005 
L 3297.572527 786.541333 
L 3299.592914 727.880801 
L 3301.613302 699.866152 
L 3303.63369 730.510492 
L 3309.694853 712.421377 
L 3315.756016 800.608525 
L 3317.776404 824.354065 
L 3319.796791 788.135444 
L 3321.817179 745.887531 
L 3323.837567 738.13339 
L 3325.857955 686.779361 
L 3327.878342 668.032496 
L 3329.89873 658.793835 
L 3331.919118 649.01942 
L 3340.000668 701.769699 
L 3344.041444 656.976522 
L 3346.061832 666.777237 
L 3348.082219 670.489783 
L 3350.102607 677.811414 
L 3352.122995 697.826792 
L 3354.143382 700.981972 
L 3356.16377 710.862173 
L 3358.184158 689.995334 
L 3362.224933 618.903013 
L 3364.245321 623.901323 
L 3366.265709 604.282744 
L 3368.286096 587.512905 
L 3370.306484 592.191048 
L 3372.326872 605.333391 
L 3376.367647 689.842855 
L 3400.612299 560.922695 
L 3402.632687 556.706365 
L 3404.653075 557.805011 
L 3406.673463 568.547579 
L 3410.714238 565.219177 
L 3412.734626 536.552626 
L 3414.755013 534.717584 
L 3416.775401 543.337485 
L 3418.795789 531.168612 
L 3420.816176 514.823144 
L 3422.836564 490.248128 
L 3424.856952 504.781491 
L 3426.87734 533.830264 
L 3428.897727 533.876637 
L 3430.918115 526.920569 
L 3432.938503 532.349239 
L 3434.95889 525.820739 
L 3436.979278 510.09383 
L 3438.999666 434.163076 
L 3441.020053 431.138403 
L 3443.040441 430.049585 
L 3445.060829 419.540657 
L 3447.081217 399.617541 
L 3449.101604 381.445217 
L 3451.121992 405.198558 
L 3453.14238 463.083722 
L 3455.162767 459.733759 
L 3457.183155 439.560615 
L 3459.203543 436.852346 
L 3461.22393 414.465997 
L 3463.244318 398.575339 
L 3465.264706 398.248119 
L 3467.285094 403.891841 
L 3469.305481 372.153516 
L 3471.325869 376.98246 
L 3473.346257 373.467185 
L 3475.366644 393.784818 
L 3477.387032 429.175283 
L 3479.40742 420.189364 
L 3481.427807 406.056894 
L 3483.448195 443.497699 
L 3485.468583 445.388799 
L 3487.488971 448.823969 
L 3489.509358 434.118485 
L 3491.529746 415.947795 
L 3493.550134 410.917773 
L 3497.590909 372.867503 
L 3499.611297 370.87796 
L 3501.631684 367.53859 
L 3503.652072 396.424853 
L 3505.67246 403.886169 
L 3507.692848 405.703271 
L 3509.713235 402.235538 
L 3511.733623 400.323578 
L 3513.754011 397.202491 
L 3515.774398 395.990028 
L 3517.794786 386.261681 
L 3519.815174 400.474253 
L 3521.835561 395.549173 
L 3523.855949 396.898564 
L 3527.896725 393.546436 
L 3529.917112 375.103336 
L 3531.9375 370.03352 
L 3533.957888 357.613738 
L 3535.978275 362.634803 
L 3537.998663 372.755051 
L 3540.019051 373.500094 
L 3542.039439 394.875025 
L 3544.059826 425.879455 
L 3548.100602 516.175429 
L 3550.120989 522.553661 
L 3552.141377 517.700367 
L 3554.161765 522.224961 
L 3556.182152 513.755791 
L 3558.20254 492.343983 
L 3560.222928 456.240275 
L 3562.243316 379.52977 
L 3564.263703 370.729198 
L 3566.284091 349.804476 
L 3568.304479 321.406955 
L 3570.324866 315.302551 
L 3572.345254 306.049358 
L 3582.447193 370.589218 
L 3584.46758 364.127578 
L 3586.487968 387.813816 
L 3590.528743 365.502441 
L 3592.549131 394.165631 
L 3594.569519 400.648961 
L 3596.589906 351.558494 
L 3598.610294 352.719166 
L 3600.630682 337.590775 
L 3602.65107 384.521882 
L 3604.671457 403.98897 
L 3647.099599 381.443771 
L 3649.119987 394.964116 
L 3653.160762 288.811661 
L 3659.221925 417.916726 
L 3661.242313 376.345401 
L 3663.262701 353.214595 
L 3665.283088 434.225963 
L 3667.303476 465.524513 
L 3669.323864 463.632776 
L 3671.344251 374.318888 
L 3673.364639 383.540109 
L 3675.385027 402.73379 
L 3677.405414 415.499283 
L 3679.425802 433.904821 
L 3681.44619 450.560494 
L 3683.466578 462.696754 
L 3685.486965 478.273429 
L 3687.507353 473.795297 
L 3689.527741 475.389467 
L 3691.548128 462.66895 
L 3693.568516 401.919263 
L 3695.588904 387.947466 
L 3697.609291 358.562603 
L 3703.670455 413.316133 
L 3705.690842 448.809767 
L 3707.71123 499.559342 
L 3711.752005 516.654573 
L 3713.772393 523.914239 
L 3715.792781 541.437093 
L 3717.813168 537.9383 
L 3719.833556 599.930055 
L 3721.853944 606.645917 
L 3723.874332 595.719018 
L 3725.894719 617.927049 
L 3727.915107 637.860243 
L 3729.935495 610.062771 
L 3733.97627 587.1377 
L 3735.996658 557.721465 
L 3738.017045 633.756903 
L 3740.037433 685.384558 
L 3744.078209 732.128398 
L 3746.098596 681.792124 
L 3748.118984 661.094269 
L 3750.139372 653.150856 
L 3752.159759 603.749522 
L 3756.200535 552.663626 
L 3758.220922 516.682466 
L 3760.24131 550.44198 
L 3762.261698 561.203155 
L 3764.282086 587.907328 
L 3766.302473 558.920967 
L 3768.322861 542.193172 
L 3772.363636 551.460684 
L 3774.384024 547.657322 
L 3776.404412 521.33813 
L 3778.424799 504.810162 
L 3780.445187 498.937101 
L 3786.50635 440.92308 
L 3788.526738 457.648455 
L 3790.547126 468.402163 
L 3792.567513 471.458792 
L 3794.587901 488.227066 
L 3796.608289 497.072242 
L 3798.628676 512.656449 
L 3952.178142 747.740066 
L 3954.198529 741.017961 
L 3956.218917 749.243865 
L 3958.239305 725.215216 
L 3960.259693 731.910507 
L 3970.361631 775.792802 
L 3972.382019 815.263671 
L 3978.443182 872.6752 
L 3980.46357 847.558907 
L 3982.483957 826.468415 
L 3984.504345 767.664727 
L 3986.524733 741.916542 
L 3988.54512 725.910629 
L 3990.565508 663.991007 
L 3996.626671 710.292576 
L 4002.687834 649.093961 
L 4004.708222 721.46512 
L 4006.72861 714.256883 
L 4008.748997 727.217897 
L 4010.769385 724.620452 
L 4014.81016 828.884767 
L 4016.830548 834.394676 
L 4018.850936 812.370072 
L 4020.871324 819.484318 
L 4030.973262 770.511469 
L 4032.99365 742.797469 
L 4035.014037 739.099721 
L 4037.034425 758.272961 
L 4039.054813 728.039979 
L 4041.075201 708.756131 
L 4043.095588 710.052332 
L 4045.115976 725.958935 
L 4047.136364 753.228201 
L 4047.136364 753.228201 
" clip-path="url(#p39ea57cdd2)" style="fill: none; stroke: #ff7c00; stroke-width: 2.5; stroke-linecap: square"/>
   </g>
   <g id="patch_3">
    <path d="M 585 961.2 
L 585 129.6 
" style="fill: none; stroke: #000000; stroke-width: 0.8; stroke-linejoin: miter; stroke-linecap: square"/>
   </g>
   <g id="patch_4">
    <path d="M 4212 961.2 
L 4212 129.6 
" style="fill: none; stroke: #000000; stroke-width: 0.8; stroke-linejoin: miter; stroke-linecap: square"/>
   </g>
   <g id="patch_5">
    <path d="M 585 961.2 
L 4212 961.2 
" style="fill: none; stroke: #000000; stroke-width: 0.8; stroke-linejoin: miter; stroke-linecap: square"/>
   </g>
   <g id="patch_6">
    <path d="M 585 129.6 
L 4212 129.6 
" style="fill: none; stroke: #000000; stroke-width: 0.8; stroke-linejoin: miter; stroke-linecap: square"/>
   </g>
   <g id="text_17">
    <!-- BORC -->
    <g transform="translate(2356.516406 123.360937) scale(0.3 -0.3)">
     <defs>
      <path id="DejaVuSans-42" d="M 1259 2228 
L 1259 519 
L 2272 519 
Q 2781 519 3026 730 
Q 3272 941 3272 1375 
Q 3272 1813 3026 2020 
Q 2781 2228 2272 2228 
L 1259 2228 
z
M 1259 4147 
L 1259 2741 
L 2194 2741 
Q 2656 2741 2882 2914 
Q 3109 3088 3109 3444 
Q 3109 3797 2882 3972 
Q 2656 4147 2194 4147 
L 1259 4147 
z
M 628 4666 
L 2241 4666 
Q 2963 4666 3353 4366 
Q 3744 4066 3744 3513 
Q 3744 3084 3544 2831 
Q 3344 2578 2956 2516 
Q 3422 2416 3680 2098 
Q 3938 1781 3938 1306 
Q 3938 681 3513 340 
Q 3088 0 2303 0 
L 628 0 
L 628 4666 
z
" transform="scale(0.015625)"/>
      <path id="DejaVuSans-4f" d="M 2522 4238 
Q 1834 4238 1429 3725 
Q 1025 3213 1025 2328 
Q 1025 1447 1429 934 
Q 1834 422 2522 422 
Q 3209 422 3611 934 
Q 4013 1447 4013 2328 
Q 4013 3213 3611 3725 
Q 3209 4238 2522 4238 
z
M 2522 4750 
Q 3503 4750 4090 4092 
Q 4678 3434 4678 2328 
Q 4678 1225 4090 567 
Q 3503 -91 2522 -91 
Q 1538 -91 948 565 
Q 359 1222 359 2328 
Q 359 3434 948 4092 
Q 1538 4750 2522 4750 
z
" transform="scale(0.015625)"/>
      <path id="DejaVuSans-52" d="M 2841 2188 
Q 3044 2119 3236 1894 
Q 3428 1669 3622 1275 
L 4263 0 
L 3584 0 
L 2988 1197 
Q 2756 1666 2539 1819 
Q 2322 1972 1947 1972 
L 1259 1972 
L 1259 0 
L 628 0 
L 628 4666 
L 2053 4666 
Q 2853 4666 3247 4331 
Q 3641 3997 3641 3322 
Q 3641 2881 3436 2590 
Q 3231 2300 2841 2188 
z
M 1259 4147 
L 1259 2491 
L 2053 2491 
Q 2509 2491 2742 2702 
Q 2975 2913 2975 3322 
Q 2975 3731 2742 3939 
Q 2509 4147 2053 4147 
L 1259 4147 
z
" transform="scale(0.015625)"/>
      <path id="DejaVuSans-43" d="M 4122 4306 
L 4122 3641 
Q 3803 3938 3442 4084 
Q 3081 4231 2675 4231 
Q 1875 4231 1450 3742 
Q 1025 3253 1025 2328 
Q 1025 1406 1450 917 
Q 1875 428 2675 428 
Q 3081 428 3442 575 
Q 3803 722 4122 1019 
L 4122 359 
Q 3791 134 3420 21 
Q 3050 -91 2638 -91 
Q 1578 -91 968 557 
Q 359 1206 359 2328 
Q 359 3453 968 4101 
Q 1578 4750 2638 4750 
Q 3056 4750 3426 4639 
Q 3797 4528 4122 4306 
z
" transform="scale(0.015625)"/>
     </defs>
     <use xlink:href="#DejaVuSans-42"/>
     <use xlink:href="#DejaVuSans-4f" x="66.853516"/>
     <use xlink:href="#DejaVuSans-52" x="145.564453"/>
     <use xlink:href="#DejaVuSans-43" x="210.046875"/>
    </g>
   </g>
   <g id="legend_1">
    <g id="patch_7">
     <path d="M 4151.148438 152.278125 
L 4205 152.278125 
Q 4207 152.278125 4207 150.278125 
L 4207 136.6 
Q 4207 134.6 4205 134.6 
L 4151.148438 134.6 
Q 4149.148438 134.6 4149.148438 136.6 
L 4149.148438 150.278125 
Q 4149.148438 152.278125 4151.148438 152.278125 
z
" style="fill: #ffffff; opacity: 0.8; stroke: #cccccc; stroke-linejoin: miter"/>
    </g>
    <g id="line2d_16">
     <path d="M 4153.148438 142.698438 
L 4163.148438 142.698438 
L 4173.148438 142.698438 
" style="fill: none; stroke: #ff7c00; stroke-width: 2.5; stroke-linecap: square"/>
    </g>
    <g id="text_18">
     <!-- borc -->
     <g transform="translate(4181.148438 146.198438) scale(0.1 -0.1)">
      <defs>
       <path id="DejaVuSans-62" d="M 3116 1747 
Q 3116 2381 2855 2742 
Q 2594 3103 2138 3103 
Q 1681 3103 1420 2742 
Q 1159 2381 1159 1747 
Q 1159 1113 1420 752 
Q 1681 391 2138 391 
Q 2594 391 2855 752 
Q 3116 1113 3116 1747 
z
M 1159 2969 
Q 1341 3281 1617 3432 
Q 1894 3584 2278 3584 
Q 2916 3584 3314 3078 
Q 3713 2572 3713 1747 
Q 3713 922 3314 415 
Q 2916 -91 2278 -91 
Q 1894 -91 1617 61 
Q 1341 213 1159 525 
L 1159 0 
L 581 0 
L 581 4863 
L 1159 4863 
L 1159 2969 
z
" transform="scale(0.015625)"/>
       <path id="DejaVuSans-6f" d="M 1959 3097 
Q 1497 3097 1228 2736 
Q 959 2375 959 1747 
Q 959 1119 1226 758 
Q 1494 397 1959 397 
Q 2419 397 2687 759 
Q 2956 1122 2956 1747 
Q 2956 2369 2687 2733 
Q 2419 3097 1959 3097 
z
M 1959 3584 
Q 2709 3584 3137 3096 
Q 3566 2609 3566 1747 
Q 3566 888 3137 398 
Q 2709 -91 1959 -91 
Q 1206 -91 779 398 
Q 353 888 353 1747 
Q 353 2609 779 3096 
Q 1206 3584 1959 3584 
z
" transform="scale(0.015625)"/>
       <path id="DejaVuSans-72" d="M 2631 2963 
Q 2534 3019 2420 3045 
Q 2306 3072 2169 3072 
Q 1681 3072 1420 2755 
Q 1159 2438 1159 1844 
L 1159 0 
L 581 0 
L 581 3500 
L 1159 3500 
L 1159 2956 
Q 1341 3275 1631 3429 
Q 1922 3584 2338 3584 
Q 2397 3584 2469 3576 
Q 2541 3569 2628 3553 
L 2631 2963 
z
" transform="scale(0.015625)"/>
       <path id="DejaVuSans-63" d="M 3122 3366 
L 3122 2828 
Q 2878 2963 2633 3030 
Q 2388 3097 2138 3097 
Q 1578 3097 1268 2742 
Q 959 2388 959 1747 
Q 959 1106 1268 751 
Q 1578 397 2138 397 
Q 2388 397 2633 464 
Q 2878 531 3122 666 
L 3122 134 
Q 2881 22 2623 -34 
Q 2366 -91 2075 -91 
Q 1284 -91 818 406 
Q 353 903 353 1747 
Q 353 2603 823 3093 
Q 1294 3584 2113 3584 
Q 2378 3584 2631 3529 
Q 2884 3475 3122 3366 
z
" transform="scale(0.015625)"/>
      </defs>
      <use xlink:href="#DejaVuSans-62"/>
      <use xlink:href="#DejaVuSans-6f" x="63.476562"/>
      <use xlink:href="#DejaVuSans-72" x="124.658203"/>
      <use xlink:href="#DejaVuSans-63" x="163.521484"/>
     </g>
    </g>
   </g>
  </g>
 </g>
 <defs>
  <clipPath id="p39ea57cdd2">
   <rect x="585" y="129.6" width="3627" height="831.6"/>
  </clipPath>
 </defs>
</svg>
