<?xml version="1.0" encoding="utf-8" standalone="no"?>
<!DOCTYPE svg PUBLIC "-//W3C//DTD SVG 1.1//EN"
  "http://www.w3.org/Graphics/SVG/1.1/DTD/svg11.dtd">
<svg xmlns:xlink="http://www.w3.org/1999/xlink" width="4680pt" height="1080pt" viewBox="0 0 4680 1080" xmlns="http://www.w3.org/2000/svg" version="1.1">
 <metadata>
  <rdf:RDF xmlns:dc="http://purl.org/dc/elements/1.1/" xmlns:cc="http://creativecommons.org/ns#" xmlns:rdf="http://www.w3.org/1999/02/22-rdf-syntax-ns#">
   <cc:Work>
    <dc:type rdf:resource="http://purl.org/dc/dcmitype/StillImage"/>
    <dc:date>2024-03-25T14:09:17.220536</dc:date>
    <dc:format>image/svg+xml</dc:format>
    <dc:creator>
     <cc:Agent>
      <dc:title>Matplotlib v3.7.2, https://matplotlib.org/</dc:title>
     </cc:Agent>
    </dc:creator>
   </cc:Work>
  </rdf:RDF>
 </metadata>
 <defs>
  <style type="text/css">*{stroke-linejoin: round; stroke-linecap: butt}</style>
 </defs>
 <g id="figure_1">
  <g id="patch_1">
   <path d="M 0 1080 
L 4680 1080 
L 4680 0 
L 0 0 
z
" style="fill: #ffffff"/>
  </g>
  <g id="axes_1">
   <g id="patch_2">
    <path d="M 585 961.2 
L 4212 961.2 
L 4212 129.6 
L 585 129.6 
z
" style="fill: #ffffff"/>
   </g>
   <g id="matplotlib.axis_1">
    <g id="xtick_1">
     <g id="line2d_1">
      <defs>
       <path id="md175eae5da" d="M 0 0 
L 0 3.5 
" style="stroke: #000000; stroke-width: 0.8"/>
      </defs>
      <g>
       <use xlink:href="#md175eae5da" x="941.800468" y="961.2" style="stroke: #000000; stroke-width: 0.8"/>
      </g>
     </g>
     <g id="text_1">
      <!-- 2012-07 -->
      <g transform="translate(900.017655 983.396875) scale(0.2 -0.2)">
       <defs>
        <path id="DejaVuSans-32" d="M 1228 531 
L 3431 531 
L 3431 0 
L 469 0 
L 469 531 
Q 828 903 1448 1529 
Q 2069 2156 2228 2338 
Q 2531 2678 2651 2914 
Q 2772 3150 2772 3378 
Q 2772 3750 2511 3984 
Q 2250 4219 1831 4219 
Q 1534 4219 1204 4116 
Q 875 4013 500 3803 
L 500 4441 
Q 881 4594 1212 4672 
Q 1544 4750 1819 4750 
Q 2544 4750 2975 4387 
Q 3406 4025 3406 3419 
Q 3406 3131 3298 2873 
Q 3191 2616 2906 2266 
Q 2828 2175 2409 1742 
Q 1991 1309 1228 531 
z
" transform="scale(0.015625)"/>
        <path id="DejaVuSans-30" d="M 2034 4250 
Q 1547 4250 1301 3770 
Q 1056 3291 1056 2328 
Q 1056 1369 1301 889 
Q 1547 409 2034 409 
Q 2525 409 2770 889 
Q 3016 1369 3016 2328 
Q 3016 3291 2770 3770 
Q 2525 4250 2034 4250 
z
M 2034 4750 
Q 2819 4750 3233 4129 
Q 3647 3509 3647 2328 
Q 3647 1150 3233 529 
Q 2819 -91 2034 -91 
Q 1250 -91 836 529 
Q 422 1150 422 2328 
Q 422 3509 836 4129 
Q 1250 4750 2034 4750 
z
" transform="scale(0.015625)"/>
        <path id="DejaVuSans-31" d="M 794 531 
L 1825 531 
L 1825 4091 
L 703 3866 
L 703 4441 
L 1819 4666 
L 2450 4666 
L 2450 531 
L 3481 531 
L 3481 0 
L 794 0 
L 794 531 
z
" transform="scale(0.015625)"/>
        <path id="DejaVuSans-2d" d="M 313 2009 
L 1997 2009 
L 1997 1497 
L 313 1497 
L 313 2009 
z
" transform="scale(0.015625)"/>
        <path id="DejaVuSans-37" d="M 525 4666 
L 3525 4666 
L 3525 4397 
L 1831 0 
L 1172 0 
L 2766 4134 
L 525 4134 
L 525 4666 
z
" transform="scale(0.015625)"/>
       </defs>
       <use xlink:href="#DejaVuSans-32"/>
       <use xlink:href="#DejaVuSans-30" x="63.623047"/>
       <use xlink:href="#DejaVuSans-31" x="127.246094"/>
       <use xlink:href="#DejaVuSans-32" x="190.869141"/>
       <use xlink:href="#DejaVuSans-2d" x="254.492188"/>
       <use xlink:href="#DejaVuSans-30" x="290.576172"/>
       <use xlink:href="#DejaVuSans-37" x="354.199219"/>
      </g>
     </g>
    </g>
    <g id="xtick_2">
     <g id="line2d_2">
      <g>
       <use xlink:href="#md175eae5da" x="1313.551805" y="961.2" style="stroke: #000000; stroke-width: 0.8"/>
      </g>
     </g>
     <g id="text_2">
      <!-- 2013-01 -->
      <g transform="translate(1271.768992 983.396875) scale(0.2 -0.2)">
       <defs>
        <path id="DejaVuSans-33" d="M 2597 2516 
Q 3050 2419 3304 2112 
Q 3559 1806 3559 1356 
Q 3559 666 3084 287 
Q 2609 -91 1734 -91 
Q 1441 -91 1130 -33 
Q 819 25 488 141 
L 488 750 
Q 750 597 1062 519 
Q 1375 441 1716 441 
Q 2309 441 2620 675 
Q 2931 909 2931 1356 
Q 2931 1769 2642 2001 
Q 2353 2234 1838 2234 
L 1294 2234 
L 1294 2753 
L 1863 2753 
Q 2328 2753 2575 2939 
Q 2822 3125 2822 3475 
Q 2822 3834 2567 4026 
Q 2313 4219 1838 4219 
Q 1578 4219 1281 4162 
Q 984 4106 628 3988 
L 628 4550 
Q 988 4650 1302 4700 
Q 1616 4750 1894 4750 
Q 2613 4750 3031 4423 
Q 3450 4097 3450 3541 
Q 3450 3153 3228 2886 
Q 3006 2619 2597 2516 
z
" transform="scale(0.015625)"/>
       </defs>
       <use xlink:href="#DejaVuSans-32"/>
       <use xlink:href="#DejaVuSans-30" x="63.623047"/>
       <use xlink:href="#DejaVuSans-31" x="127.246094"/>
       <use xlink:href="#DejaVuSans-33" x="190.869141"/>
       <use xlink:href="#DejaVuSans-2d" x="254.492188"/>
       <use xlink:href="#DejaVuSans-30" x="290.576172"/>
       <use xlink:href="#DejaVuSans-31" x="354.199219"/>
      </g>
     </g>
    </g>
    <g id="xtick_3">
     <g id="line2d_3">
      <g>
       <use xlink:href="#md175eae5da" x="1679.241979" y="961.2" style="stroke: #000000; stroke-width: 0.8"/>
      </g>
     </g>
     <g id="text_3">
      <!-- 2013-07 -->
      <g transform="translate(1637.459166 983.396875) scale(0.2 -0.2)">
       <use xlink:href="#DejaVuSans-32"/>
       <use xlink:href="#DejaVuSans-30" x="63.623047"/>
       <use xlink:href="#DejaVuSans-31" x="127.246094"/>
       <use xlink:href="#DejaVuSans-33" x="190.869141"/>
       <use xlink:href="#DejaVuSans-2d" x="254.492188"/>
       <use xlink:href="#DejaVuSans-30" x="290.576172"/>
       <use xlink:href="#DejaVuSans-37" x="354.199219"/>
      </g>
     </g>
    </g>
    <g id="xtick_4">
     <g id="line2d_4">
      <g>
       <use xlink:href="#md175eae5da" x="2050.993316" y="961.2" style="stroke: #000000; stroke-width: 0.8"/>
      </g>
     </g>
     <g id="text_4">
      <!-- 2014-01 -->
      <g transform="translate(2009.210503 983.396875) scale(0.2 -0.2)">
       <defs>
        <path id="DejaVuSans-34" d="M 2419 4116 
L 825 1625 
L 2419 1625 
L 2419 4116 
z
M 2253 4666 
L 3047 4666 
L 3047 1625 
L 3713 1625 
L 3713 1100 
L 3047 1100 
L 3047 0 
L 2419 0 
L 2419 1100 
L 313 1100 
L 313 1709 
L 2253 4666 
z
" transform="scale(0.015625)"/>
       </defs>
       <use xlink:href="#DejaVuSans-32"/>
       <use xlink:href="#DejaVuSans-30" x="63.623047"/>
       <use xlink:href="#DejaVuSans-31" x="127.246094"/>
       <use xlink:href="#DejaVuSans-34" x="190.869141"/>
       <use xlink:href="#DejaVuSans-2d" x="254.492188"/>
       <use xlink:href="#DejaVuSans-30" x="290.576172"/>
       <use xlink:href="#DejaVuSans-31" x="354.199219"/>
      </g>
     </g>
    </g>
    <g id="xtick_5">
     <g id="line2d_5">
      <g>
       <use xlink:href="#md175eae5da" x="2416.683489" y="961.2" style="stroke: #000000; stroke-width: 0.8"/>
      </g>
     </g>
     <g id="text_5">
      <!-- 2014-07 -->
      <g transform="translate(2374.900677 983.396875) scale(0.2 -0.2)">
       <use xlink:href="#DejaVuSans-32"/>
       <use xlink:href="#DejaVuSans-30" x="63.623047"/>
       <use xlink:href="#DejaVuSans-31" x="127.246094"/>
       <use xlink:href="#DejaVuSans-34" x="190.869141"/>
       <use xlink:href="#DejaVuSans-2d" x="254.492188"/>
       <use xlink:href="#DejaVuSans-30" x="290.576172"/>
       <use xlink:href="#DejaVuSans-37" x="354.199219"/>
      </g>
     </g>
    </g>
    <g id="xtick_6">
     <g id="line2d_6">
      <g>
       <use xlink:href="#md175eae5da" x="2788.434826" y="961.2" style="stroke: #000000; stroke-width: 0.8"/>
      </g>
     </g>
     <g id="text_6">
      <!-- 2015-01 -->
      <g transform="translate(2746.652014 983.396875) scale(0.2 -0.2)">
       <defs>
        <path id="DejaVuSans-35" d="M 691 4666 
L 3169 4666 
L 3169 4134 
L 1269 4134 
L 1269 2991 
Q 1406 3038 1543 3061 
Q 1681 3084 1819 3084 
Q 2600 3084 3056 2656 
Q 3513 2228 3513 1497 
Q 3513 744 3044 326 
Q 2575 -91 1722 -91 
Q 1428 -91 1123 -41 
Q 819 9 494 109 
L 494 744 
Q 775 591 1075 516 
Q 1375 441 1709 441 
Q 2250 441 2565 725 
Q 2881 1009 2881 1497 
Q 2881 1984 2565 2268 
Q 2250 2553 1709 2553 
Q 1456 2553 1204 2497 
Q 953 2441 691 2322 
L 691 4666 
z
" transform="scale(0.015625)"/>
       </defs>
       <use xlink:href="#DejaVuSans-32"/>
       <use xlink:href="#DejaVuSans-30" x="63.623047"/>
       <use xlink:href="#DejaVuSans-31" x="127.246094"/>
       <use xlink:href="#DejaVuSans-35" x="190.869141"/>
       <use xlink:href="#DejaVuSans-2d" x="254.492188"/>
       <use xlink:href="#DejaVuSans-30" x="290.576172"/>
       <use xlink:href="#DejaVuSans-31" x="354.199219"/>
      </g>
     </g>
    </g>
    <g id="xtick_7">
     <g id="line2d_7">
      <g>
       <use xlink:href="#md175eae5da" x="3154.125" y="961.2" style="stroke: #000000; stroke-width: 0.8"/>
      </g>
     </g>
     <g id="text_7">
      <!-- 2015-07 -->
      <g transform="translate(3112.342188 983.396875) scale(0.2 -0.2)">
       <use xlink:href="#DejaVuSans-32"/>
       <use xlink:href="#DejaVuSans-30" x="63.623047"/>
       <use xlink:href="#DejaVuSans-31" x="127.246094"/>
       <use xlink:href="#DejaVuSans-35" x="190.869141"/>
       <use xlink:href="#DejaVuSans-2d" x="254.492188"/>
       <use xlink:href="#DejaVuSans-30" x="290.576172"/>
       <use xlink:href="#DejaVuSans-37" x="354.199219"/>
      </g>
     </g>
    </g>
    <g id="xtick_8">
     <g id="line2d_8">
      <g>
       <use xlink:href="#md175eae5da" x="3525.876337" y="961.2" style="stroke: #000000; stroke-width: 0.8"/>
      </g>
     </g>
     <g id="text_8">
      <!-- 2016-01 -->
      <g transform="translate(3484.093524 983.396875) scale(0.2 -0.2)">
       <defs>
        <path id="DejaVuSans-36" d="M 2113 2584 
Q 1688 2584 1439 2293 
Q 1191 2003 1191 1497 
Q 1191 994 1439 701 
Q 1688 409 2113 409 
Q 2538 409 2786 701 
Q 3034 994 3034 1497 
Q 3034 2003 2786 2293 
Q 2538 2584 2113 2584 
z
M 3366 4563 
L 3366 3988 
Q 3128 4100 2886 4159 
Q 2644 4219 2406 4219 
Q 1781 4219 1451 3797 
Q 1122 3375 1075 2522 
Q 1259 2794 1537 2939 
Q 1816 3084 2150 3084 
Q 2853 3084 3261 2657 
Q 3669 2231 3669 1497 
Q 3669 778 3244 343 
Q 2819 -91 2113 -91 
Q 1303 -91 875 529 
Q 447 1150 447 2328 
Q 447 3434 972 4092 
Q 1497 4750 2381 4750 
Q 2619 4750 2861 4703 
Q 3103 4656 3366 4563 
z
" transform="scale(0.015625)"/>
       </defs>
       <use xlink:href="#DejaVuSans-32"/>
       <use xlink:href="#DejaVuSans-30" x="63.623047"/>
       <use xlink:href="#DejaVuSans-31" x="127.246094"/>
       <use xlink:href="#DejaVuSans-36" x="190.869141"/>
       <use xlink:href="#DejaVuSans-2d" x="254.492188"/>
       <use xlink:href="#DejaVuSans-30" x="290.576172"/>
       <use xlink:href="#DejaVuSans-31" x="354.199219"/>
      </g>
     </g>
    </g>
    <g id="xtick_9">
     <g id="line2d_9">
      <g>
       <use xlink:href="#md175eae5da" x="3893.586898" y="961.2" style="stroke: #000000; stroke-width: 0.8"/>
      </g>
     </g>
     <g id="text_9">
      <!-- 2016-07 -->
      <g transform="translate(3851.804086 983.396875) scale(0.2 -0.2)">
       <use xlink:href="#DejaVuSans-32"/>
       <use xlink:href="#DejaVuSans-30" x="63.623047"/>
       <use xlink:href="#DejaVuSans-31" x="127.246094"/>
       <use xlink:href="#DejaVuSans-36" x="190.869141"/>
       <use xlink:href="#DejaVuSans-2d" x="254.492188"/>
       <use xlink:href="#DejaVuSans-30" x="290.576172"/>
       <use xlink:href="#DejaVuSans-37" x="354.199219"/>
      </g>
     </g>
    </g>
    <g id="text_10">
     <!-- Time -->
     <g transform="translate(2374.032813 1006.753125) scale(0.2 -0.2)">
      <defs>
       <path id="DejaVuSans-54" d="M -19 4666 
L 3928 4666 
L 3928 4134 
L 2272 4134 
L 2272 0 
L 1638 0 
L 1638 4134 
L -19 4134 
L -19 4666 
z
" transform="scale(0.015625)"/>
       <path id="DejaVuSans-69" d="M 603 3500 
L 1178 3500 
L 1178 0 
L 603 0 
L 603 3500 
z
M 603 4863 
L 1178 4863 
L 1178 4134 
L 603 4134 
L 603 4863 
z
" transform="scale(0.015625)"/>
       <path id="DejaVuSans-6d" d="M 3328 2828 
Q 3544 3216 3844 3400 
Q 4144 3584 4550 3584 
Q 5097 3584 5394 3201 
Q 5691 2819 5691 2113 
L 5691 0 
L 5113 0 
L 5113 2094 
Q 5113 2597 4934 2840 
Q 4756 3084 4391 3084 
Q 3944 3084 3684 2787 
Q 3425 2491 3425 1978 
L 3425 0 
L 2847 0 
L 2847 2094 
Q 2847 2600 2669 2842 
Q 2491 3084 2119 3084 
Q 1678 3084 1418 2786 
Q 1159 2488 1159 1978 
L 1159 0 
L 581 0 
L 581 3500 
L 1159 3500 
L 1159 2956 
Q 1356 3278 1631 3431 
Q 1906 3584 2284 3584 
Q 2666 3584 2933 3390 
Q 3200 3197 3328 2828 
z
" transform="scale(0.015625)"/>
       <path id="DejaVuSans-65" d="M 3597 1894 
L 3597 1613 
L 953 1613 
Q 991 1019 1311 708 
Q 1631 397 2203 397 
Q 2534 397 2845 478 
Q 3156 559 3463 722 
L 3463 178 
Q 3153 47 2828 -22 
Q 2503 -91 2169 -91 
Q 1331 -91 842 396 
Q 353 884 353 1716 
Q 353 2575 817 3079 
Q 1281 3584 2069 3584 
Q 2775 3584 3186 3129 
Q 3597 2675 3597 1894 
z
M 3022 2063 
Q 3016 2534 2758 2815 
Q 2500 3097 2075 3097 
Q 1594 3097 1305 2825 
Q 1016 2553 972 2059 
L 3022 2063 
z
" transform="scale(0.015625)"/>
      </defs>
      <use xlink:href="#DejaVuSans-54"/>
      <use xlink:href="#DejaVuSans-69" x="57.958984"/>
      <use xlink:href="#DejaVuSans-6d" x="85.742188"/>
      <use xlink:href="#DejaVuSans-65" x="183.154297"/>
     </g>
    </g>
   </g>
   <g id="matplotlib.axis_2">
    <g id="ytick_1">
     <g id="line2d_10">
      <defs>
       <path id="ma2c7e469ba" d="M 0 0 
L -3.5 0 
" style="stroke: #000000; stroke-width: 0.8"/>
      </defs>
      <g>
       <use xlink:href="#ma2c7e469ba" x="585" y="849.780637" style="stroke: #000000; stroke-width: 0.8"/>
      </g>
     </g>
     <g id="text_11">
      <!-- −0.002 -->
      <g transform="translate(503.984375 857.379075) scale(0.2 -0.2)">
       <defs>
        <path id="DejaVuSans-2212" d="M 678 2272 
L 4684 2272 
L 4684 1741 
L 678 1741 
L 678 2272 
z
" transform="scale(0.015625)"/>
        <path id="DejaVuSans-2e" d="M 684 794 
L 1344 794 
L 1344 0 
L 684 0 
L 684 794 
z
" transform="scale(0.015625)"/>
       </defs>
       <use xlink:href="#DejaVuSans-2212"/>
       <use xlink:href="#DejaVuSans-30" x="83.789062"/>
       <use xlink:href="#DejaVuSans-2e" x="147.412109"/>
       <use xlink:href="#DejaVuSans-30" x="179.199219"/>
       <use xlink:href="#DejaVuSans-30" x="242.822266"/>
       <use xlink:href="#DejaVuSans-32" x="306.445312"/>
      </g>
     </g>
    </g>
    <g id="ytick_2">
     <g id="line2d_11">
      <g>
       <use xlink:href="#ma2c7e469ba" x="585" y="721.45136" style="stroke: #000000; stroke-width: 0.8"/>
      </g>
     </g>
     <g id="text_12">
      <!-- −0.001 -->
      <g transform="translate(503.984375 729.049798) scale(0.2 -0.2)">
       <use xlink:href="#DejaVuSans-2212"/>
       <use xlink:href="#DejaVuSans-30" x="83.789062"/>
       <use xlink:href="#DejaVuSans-2e" x="147.412109"/>
       <use xlink:href="#DejaVuSans-30" x="179.199219"/>
       <use xlink:href="#DejaVuSans-30" x="242.822266"/>
       <use xlink:href="#DejaVuSans-31" x="306.445312"/>
      </g>
     </g>
    </g>
    <g id="ytick_3">
     <g id="line2d_12">
      <g>
       <use xlink:href="#ma2c7e469ba" x="585" y="593.122083" style="stroke: #000000; stroke-width: 0.8"/>
      </g>
     </g>
     <g id="text_13">
      <!-- 0.000 -->
      <g transform="translate(520.74375 600.720521) scale(0.2 -0.2)">
       <use xlink:href="#DejaVuSans-30"/>
       <use xlink:href="#DejaVuSans-2e" x="63.623047"/>
       <use xlink:href="#DejaVuSans-30" x="95.410156"/>
       <use xlink:href="#DejaVuSans-30" x="159.033203"/>
       <use xlink:href="#DejaVuSans-30" x="222.65625"/>
      </g>
     </g>
    </g>
    <g id="ytick_4">
     <g id="line2d_13">
      <g>
       <use xlink:href="#ma2c7e469ba" x="585" y="464.792807" style="stroke: #000000; stroke-width: 0.8"/>
      </g>
     </g>
     <g id="text_14">
      <!-- 0.001 -->
      <g transform="translate(520.74375 472.391244) scale(0.2 -0.2)">
       <use xlink:href="#DejaVuSans-30"/>
       <use xlink:href="#DejaVuSans-2e" x="63.623047"/>
       <use xlink:href="#DejaVuSans-30" x="95.410156"/>
       <use xlink:href="#DejaVuSans-30" x="159.033203"/>
       <use xlink:href="#DejaVuSans-31" x="222.65625"/>
      </g>
     </g>
    </g>
    <g id="ytick_5">
     <g id="line2d_14">
      <g>
       <use xlink:href="#ma2c7e469ba" x="585" y="336.46353" style="stroke: #000000; stroke-width: 0.8"/>
      </g>
     </g>
     <g id="text_15">
      <!-- 0.002 -->
      <g transform="translate(520.74375 344.061967) scale(0.2 -0.2)">
       <use xlink:href="#DejaVuSans-30"/>
       <use xlink:href="#DejaVuSans-2e" x="63.623047"/>
       <use xlink:href="#DejaVuSans-30" x="95.410156"/>
       <use xlink:href="#DejaVuSans-30" x="159.033203"/>
       <use xlink:href="#DejaVuSans-32" x="222.65625"/>
      </g>
     </g>
    </g>
    <g id="ytick_6">
     <g id="line2d_15">
      <g>
       <use xlink:href="#ma2c7e469ba" x="585" y="208.134253" style="stroke: #000000; stroke-width: 0.8"/>
      </g>
     </g>
     <g id="text_16">
      <!-- 0.003 -->
      <g transform="translate(520.74375 215.73269) scale(0.2 -0.2)">
       <use xlink:href="#DejaVuSans-30"/>
       <use xlink:href="#DejaVuSans-2e" x="63.623047"/>
       <use xlink:href="#DejaVuSans-30" x="95.410156"/>
       <use xlink:href="#DejaVuSans-30" x="159.033203"/>
       <use xlink:href="#DejaVuSans-33" x="222.65625"/>
      </g>
     </g>
    </g>
    <g id="text_17">
     <!-- East(m) -->
     <g transform="translate(495.825 584.520313) rotate(-90) scale(0.2 -0.2)">
      <defs>
       <path id="DejaVuSans-45" d="M 628 4666 
L 3578 4666 
L 3578 4134 
L 1259 4134 
L 1259 2753 
L 3481 2753 
L 3481 2222 
L 1259 2222 
L 1259 531 
L 3634 531 
L 3634 0 
L 628 0 
L 628 4666 
z
" transform="scale(0.015625)"/>
       <path id="DejaVuSans-61" d="M 2194 1759 
Q 1497 1759 1228 1600 
Q 959 1441 959 1056 
Q 959 750 1161 570 
Q 1363 391 1709 391 
Q 2188 391 2477 730 
Q 2766 1069 2766 1631 
L 2766 1759 
L 2194 1759 
z
M 3341 1997 
L 3341 0 
L 2766 0 
L 2766 531 
Q 2569 213 2275 61 
Q 1981 -91 1556 -91 
Q 1019 -91 701 211 
Q 384 513 384 1019 
Q 384 1609 779 1909 
Q 1175 2209 1959 2209 
L 2766 2209 
L 2766 2266 
Q 2766 2663 2505 2880 
Q 2244 3097 1772 3097 
Q 1472 3097 1187 3025 
Q 903 2953 641 2809 
L 641 3341 
Q 956 3463 1253 3523 
Q 1550 3584 1831 3584 
Q 2591 3584 2966 3190 
Q 3341 2797 3341 1997 
z
" transform="scale(0.015625)"/>
       <path id="DejaVuSans-73" d="M 2834 3397 
L 2834 2853 
Q 2591 2978 2328 3040 
Q 2066 3103 1784 3103 
Q 1356 3103 1142 2972 
Q 928 2841 928 2578 
Q 928 2378 1081 2264 
Q 1234 2150 1697 2047 
L 1894 2003 
Q 2506 1872 2764 1633 
Q 3022 1394 3022 966 
Q 3022 478 2636 193 
Q 2250 -91 1575 -91 
Q 1294 -91 989 -36 
Q 684 19 347 128 
L 347 722 
Q 666 556 975 473 
Q 1284 391 1588 391 
Q 1994 391 2212 530 
Q 2431 669 2431 922 
Q 2431 1156 2273 1281 
Q 2116 1406 1581 1522 
L 1381 1569 
Q 847 1681 609 1914 
Q 372 2147 372 2553 
Q 372 3047 722 3315 
Q 1072 3584 1716 3584 
Q 2034 3584 2315 3537 
Q 2597 3491 2834 3397 
z
" transform="scale(0.015625)"/>
       <path id="DejaVuSans-74" d="M 1172 4494 
L 1172 3500 
L 2356 3500 
L 2356 3053 
L 1172 3053 
L 1172 1153 
Q 1172 725 1289 603 
Q 1406 481 1766 481 
L 2356 481 
L 2356 0 
L 1766 0 
Q 1100 0 847 248 
Q 594 497 594 1153 
L 594 3053 
L 172 3053 
L 172 3500 
L 594 3500 
L 594 4494 
L 1172 4494 
z
" transform="scale(0.015625)"/>
       <path id="DejaVuSans-28" d="M 1984 4856 
Q 1566 4138 1362 3434 
Q 1159 2731 1159 2009 
Q 1159 1288 1364 580 
Q 1569 -128 1984 -844 
L 1484 -844 
Q 1016 -109 783 600 
Q 550 1309 550 2009 
Q 550 2706 781 3412 
Q 1013 4119 1484 4856 
L 1984 4856 
z
" transform="scale(0.015625)"/>
       <path id="DejaVuSans-29" d="M 513 4856 
L 1013 4856 
Q 1481 4119 1714 3412 
Q 1947 2706 1947 2009 
Q 1947 1309 1714 600 
Q 1481 -109 1013 -844 
L 513 -844 
Q 928 -128 1133 580 
Q 1338 1288 1338 2009 
Q 1338 2731 1133 3434 
Q 928 4138 513 4856 
z
" transform="scale(0.015625)"/>
      </defs>
      <use xlink:href="#DejaVuSans-45"/>
      <use xlink:href="#DejaVuSans-61" x="63.183594"/>
      <use xlink:href="#DejaVuSans-73" x="124.462891"/>
      <use xlink:href="#DejaVuSans-74" x="176.5625"/>
      <use xlink:href="#DejaVuSans-28" x="215.771484"/>
      <use xlink:href="#DejaVuSans-6d" x="254.785156"/>
      <use xlink:href="#DejaVuSans-29" x="352.197266"/>
     </g>
    </g>
   </g>
   <g id="line2d_16">
    <path d="M 749.863636 377.242805 
L 753.904412 391.183944 
L 755.924799 420.685075 
L 761.985963 337.079925 
L 764.00635 323.423439 
L 766.026738 325.219582 
L 768.047126 291.683317 
L 770.067513 291.362444 
L 772.087901 303.924149 
L 774.108289 298.741906 
L 776.128676 318.563487 
L 790.27139 385.141232 
L 792.291778 393.522374 
L 794.312166 396.348001 
L 796.332553 407.635091 
L 798.352941 375.943865 
L 800.373329 365.542204 
L 802.393717 362.871589 
L 806.434492 434.876111 
L 808.45488 453.355567 
L 810.475267 430.823137 
L 812.495655 432.71021 
L 824.617981 462.844691 
L 830.679144 438.879813 
L 832.699532 378.306186 
L 834.71992 354.284742 
L 836.740307 379.604272 
L 844.821858 402.566798 
L 850.883021 425.039982 
L 852.903409 422.85372 
L 854.923797 451.579389 
L 856.944184 447.599577 
L 860.98496 401.161763 
L 863.005348 360.534244 
L 865.025735 379.918834 
L 867.046123 429.704002 
L 869.066511 406.724588 
L 873.107286 422.069929 
L 875.127674 444.146195 
L 877.148061 440.53285 
L 879.168449 466.468411 
L 885.229612 363.249142 
L 889.270388 423.969456 
L 891.290775 414.908612 
L 893.311163 438.249509 
L 895.331551 452.203697 
L 897.351939 463.235052 
L 899.372326 457.264621 
L 901.392714 419.081848 
L 903.413102 437.361345 
L 905.433489 467.264035 
L 907.453877 459.216662 
L 909.474265 454.024703 
L 913.51504 419.023528 
L 915.535428 385.913868 
L 917.555816 350.193644 
L 921.596591 354.132128 
L 933.718917 504.382825 
L 937.759693 501.974733 
L 1044.840241 431.509562 
L 1046.860628 399.244131 
L 1048.881016 393.571268 
L 1212.53242 434.432089 
L 1214.552807 428.026167 
L 1216.573195 433.228794 
L 1226.675134 582.992934 
L 1230.715909 640.712219 
L 1232.736297 652.023924 
L 1234.756684 688.390952 
L 1236.777072 719.926391 
L 1238.79746 761.884978 
L 1240.817848 775.261169 
L 1242.838235 746.43996 
L 1333.755682 593.676026 
L 1335.77607 580.515772 
L 1337.796457 563.974378 
L 1341.837233 625.561502 
L 1372.143048 674.332715 
L 1374.163436 681.146208 
L 1376.183824 697.630115 
L 1378.204211 707.067032 
L 1382.244987 750.138303 
L 1384.265374 746.047452 
L 1386.285762 714.85493 
L 1388.30615 680.603683 
L 1390.326537 659.583492 
L 1392.346925 631.653139 
L 1394.367313 579.951869 
L 1402.448864 528.595197 
L 1404.469251 509.876741 
L 1406.489639 536.625534 
L 1412.550802 623.46837 
L 1414.57119 613.29459 
L 1416.591578 583.621615 
L 1418.611965 598.514784 
L 1420.632353 605.843052 
L 1424.673128 632.128621 
L 1426.693516 635.50757 
L 1428.713904 675.926166 
L 1432.754679 696.180885 
L 1434.775067 700.627035 
L 1436.795455 657.455257 
L 1444.877005 559.558609 
L 1446.897393 546.062009 
L 1454.978944 627.47715 
L 1456.999332 745.065765 
L 1459.019719 758.902845 
L 1461.040107 777.523093 
L 1463.060495 753.800594 
L 1465.080882 769.994183 
L 1469.121658 820.176334 
L 1471.142045 846.836813 
L 1473.162433 820.796358 
L 1475.182821 807.607408 
L 1479.223596 805.44053 
L 1481.243984 757.45848 
L 1483.264372 805.456062 
L 1485.284759 778.163129 
L 1487.305147 804.968972 
L 1489.325535 838.244097 
L 1491.345922 773.570172 
L 1493.36631 778.68667 
L 1495.386698 774.058241 
L 1497.407086 721.464909 
L 1501.447861 706.564807 
L 1669.14004 923.4 
L 1673.180816 908.225291 
L 1677.221591 878.373075 
L 1681.262366 877.787376 
L 1683.282754 831.298882 
L 1689.343917 796.25241 
L 1691.364305 810.878169 
L 1693.384693 798.909028 
L 1697.425468 810.172806 
L 1699.445856 813.687871 
L 1701.466243 814.899558 
L 1703.486631 802.024973 
L 1705.507019 806.277606 
L 1707.527406 785.382995 
L 1719.649733 800.362696 
L 1723.690508 749.185001 
L 1727.731283 726.41273 
L 1729.751671 743.898973 
L 1731.772059 758.124527 
L 1735.812834 833.29206 
L 1737.833222 851.781965 
L 1739.85361 860.513007 
L 1741.873997 914.144206 
L 1743.894385 876.934225 
L 1749.955548 833.243839 
L 1751.975936 845.467726 
L 1753.996324 835.587591 
L 1756.016711 803.299657 
L 1758.037099 855.900147 
L 1766.11865 783.916399 
L 1768.139037 821.651248 
L 1780.261364 897.56465 
L 1782.281751 846.797733 
L 1784.302139 803.608722 
L 1786.322527 850.538015 
L 1788.342914 853.005556 
L 1790.363302 837.017527 
L 1792.38369 772.729308 
L 1794.404078 757.482837 
L 1796.424465 745.349903 
L 1806.526404 596.368387 
L 1808.546791 579.909559 
L 1810.567179 565.13376 
L 1812.587567 567.278956 
L 1814.607955 547.604866 
L 1816.628342 522.770163 
L 1818.64873 575.531652 
L 1822.689505 602.630604 
L 1824.709893 645.653207 
L 1826.730281 696.896602 
L 1828.750668 689.520358 
L 1830.771056 696.698735 
L 1832.791444 695.679137 
L 1834.811832 705.109645 
L 1836.832219 665.473601 
L 1838.852607 672.686564 
L 1954.014706 571.64893 
L 1958.055481 567.589245 
L 1960.075869 566.954851 
L 1962.096257 554.013192 
L 1964.116644 469.377731 
L 1966.137032 474.259423 
L 1968.15742 459.639254 
L 1970.177807 509.971311 
L 1980.279746 727.485082 
L 1982.300134 734.443712 
L 1988.361297 760.414127 
L 1990.381684 721.031516 
L 1992.402072 713.444885 
L 1994.42246 714.897879 
L 1996.442848 707.099449 
L 2000.483623 653.470381 
L 2073.21758 782.063428 
L 2075.237968 802.538578 
L 2079.278743 803.104796 
L 2081.299131 780.509195 
L 2109.584559 774.82427 
L 2438.907754 589.622677 
L 2440.928142 631.380932 
L 2442.948529 618.98249 
L 2444.968917 576.3224 
L 2449.009693 648.284643 
L 2467.193182 726.258023 
L 3178.369652 494.668816 
L 3180.39004 455.52124 
L 3182.410428 425.24419 
L 3184.430816 407.089958 
L 3186.451203 376.118375 
L 3188.471591 404.159588 
L 3194.532754 446.937718 
L 3206.65508 583.581451 
L 3210.695856 620.129781 
L 3212.716243 587.088103 
L 3214.736631 601.594283 
L 3216.757019 568.482168 
L 3220.797794 531.597544 
L 3228.879345 456.676979 
L 3230.899733 497.719644 
L 3253.123997 488.368436 
L 3257.164773 466.950888 
L 3259.18516 453.510098 
L 3261.205548 460.85067 
L 3265.246324 457.762859 
L 3267.266711 440.086028 
L 3269.287099 441.075833 
L 3277.36865 444.558453 
L 3285.450201 438.602178 
L 3287.470588 436.553553 
L 3289.490976 410.431875 
L 3291.511364 411.737254 
L 3293.531751 396.063773 
L 3295.552139 367.741106 
L 3297.572527 369.817453 
L 3299.592914 393.136117 
L 3301.613302 404.074561 
L 3303.63369 447.111094 
L 3309.694853 425.75784 
L 3315.756016 465.975065 
L 3317.776404 499.962737 
L 3319.796791 509.179319 
L 3321.817179 493.785131 
L 3323.837567 504.956014 
L 3325.857955 481.99291 
L 3327.878342 428.148022 
L 3329.89873 457.959295 
L 3331.919118 405.979554 
L 3340.000668 415.553702 
L 3342.021056 416.154109 
L 3344.041444 410.602981 
L 3346.061832 438.036888 
L 3348.082219 501.305188 
L 3350.102607 523.848451 
L 3352.122995 549.317924 
L 3354.143382 563.394625 
L 3356.16377 562.753708 
L 3358.184158 555.438015 
L 3360.204545 514.08143 
L 3362.224933 441.775849 
L 3366.265709 420.205308 
L 3368.286096 399.159527 
L 3370.306484 439.936237 
L 3372.326872 476.708197 
L 3374.347259 530.186397 
L 3376.367647 594.522411 
L 3400.612299 566.835048 
L 3402.632687 562.801628 
L 3404.653075 565.389228 
L 3406.673463 586.354909 
L 3410.714238 610.015974 
L 3412.734626 602.527991 
L 3414.755013 630.97386 
L 3416.775401 639.891487 
L 3418.795789 625.425204 
L 3420.816176 634.192585 
L 3422.836564 623.525865 
L 3424.856952 619.699184 
L 3426.87734 633.963623 
L 3428.897727 581.620029 
L 3430.918115 588.285496 
L 3432.938503 613.833111 
L 3434.95889 585.528654 
L 3436.979278 540.752335 
L 3438.999666 437.107938 
L 3441.020053 416.885062 
L 3443.040441 434.440152 
L 3445.060829 389.665795 
L 3447.081217 352.235466 
L 3449.101604 326.965632 
L 3451.121992 355.556464 
L 3453.14238 453.665774 
L 3455.162767 468.2018 
L 3457.183155 445.680528 
L 3459.203543 488.398808 
L 3461.22393 513.1815 
L 3463.244318 534.392248 
L 3465.264706 566.36082 
L 3467.285094 588.642452 
L 3469.305481 571.457068 
L 3471.325869 589.290646 
L 3473.346257 554.443343 
L 3475.366644 535.457502 
L 3477.387032 507.343547 
L 3479.40742 483.109463 
L 3481.427807 434.0129 
L 3483.448195 479.269999 
L 3485.468583 487.133323 
L 3487.488971 478.335146 
L 3489.509358 466.572104 
L 3491.529746 467.667255 
L 3493.550134 461.314032 
L 3497.590909 449.450648 
L 3499.611297 388.80256 
L 3501.631684 368.394143 
L 3503.652072 385.784523 
L 3505.67246 396.715714 
L 3507.692848 410.351251 
L 3509.713235 386.979263 
L 3511.733623 384.069076 
L 3513.754011 378.27403 
L 3515.774398 390.5078 
L 3517.794786 364.337346 
L 3519.815174 358.207583 
L 3521.835561 336.834527 
L 3527.896725 339.765705 
L 3529.917112 335.276502 
L 3531.9375 304.938482 
L 3533.957888 302.15335 
L 3535.978275 293.403456 
L 3537.998663 328.290035 
L 3540.019051 318.331613 
L 3542.039439 292.521562 
L 3544.059826 288.697533 
L 3548.100602 337.696023 
L 3550.120989 336.987767 
L 3552.141377 305.145947 
L 3556.182152 391.997372 
L 3558.20254 445.72546 
L 3560.222928 457.609608 
L 3562.243316 410.013546 
L 3564.263703 420.765402 
L 3566.284091 386.00916 
L 3568.304479 344.116652 
L 3570.324866 336.3669 
L 3572.345254 267.287518 
L 3582.447193 326.479967 
L 3584.46758 317.453309 
L 3586.487968 274.02264 
L 3590.528743 257.944898 
L 3592.549131 265.242809 
L 3594.569519 280.387315 
L 3596.589906 225.944709 
L 3598.610294 197.479342 
L 3600.630682 167.4 
L 3602.65107 186.326161 
L 3604.671457 207.588091 
L 3647.099599 449.484224 
L 3649.119987 494.971121 
L 3653.160762 527.712695 
L 3659.221925 584.323286 
L 3661.242313 552.743639 
L 3663.262701 531.404934 
L 3665.283088 520.334255 
L 3667.303476 537.123807 
L 3669.323864 559.250269 
L 3671.344251 619.741996 
L 3673.364639 584.109404 
L 3675.385027 592.672354 
L 3677.405414 621.92276 
L 3679.425802 653.943971 
L 3681.44619 662.421458 
L 3683.466578 663.270246 
L 3685.486965 655.292988 
L 3687.507353 652.822797 
L 3689.527741 628.885283 
L 3691.548128 628.062454 
L 3693.568516 578.28099 
L 3695.588904 562.464541 
L 3697.609291 529.317633 
L 3703.670455 591.10933 
L 3705.690842 590.908155 
L 3707.71123 603.05016 
L 3711.752005 657.935915 
L 3713.772393 667.606959 
L 3715.792781 619.10585 
L 3717.813168 654.956394 
L 3719.833556 641.709963 
L 3721.853944 641.5338 
L 3723.874332 633.173924 
L 3725.894719 663.134855 
L 3727.915107 672.603107 
L 3729.935495 680.077142 
L 3733.97627 656.869088 
L 3735.996658 670.184638 
L 3738.017045 667.693393 
L 3740.037433 635.522989 
L 3744.078209 661.258152 
L 3746.098596 661.201394 
L 3748.118984 691.248332 
L 3750.139372 690.398242 
L 3752.159759 706.467022 
L 3756.200535 788.884463 
L 3758.220922 776.884182 
L 3760.24131 746.196795 
L 3762.261698 750.672979 
L 3764.282086 735.080542 
L 3766.302473 695.06026 
L 3768.322861 665.462061 
L 3772.363636 668.045719 
L 3774.384024 675.420362 
L 3776.404412 673.759212 
L 3778.424799 700.673306 
L 3780.445187 745.450599 
L 3786.50635 651.670142 
L 3788.526738 688.834454 
L 3790.547126 698.835768 
L 3792.567513 714.045798 
L 3794.587901 703.316906 
L 3796.608289 723.503649 
L 3798.628676 756.914878 
L 3952.178142 744.759874 
L 3954.198529 700.101323 
L 3956.218917 711.279326 
L 3958.239305 703.753923 
L 3960.259693 704.646424 
L 3970.361631 685.216104 
L 3972.382019 701.314976 
L 3978.443182 813.313144 
L 3980.46357 760.134096 
L 3982.483957 743.953346 
L 3984.504345 756.476174 
L 3986.524733 723.454927 
L 3988.54512 734.663938 
L 3990.565508 758.761495 
L 3996.626671 825.584866 
L 4002.687834 767.033907 
L 4004.708222 761.166769 
L 4006.72861 728.839738 
L 4008.748997 737.873311 
L 4010.769385 719.730491 
L 4014.81016 742.209029 
L 4016.830548 711.085391 
L 4018.850936 691.393296 
L 4020.871324 731.770415 
L 4030.973262 681.151741 
L 4032.99365 692.859332 
L 4035.014037 672.198907 
L 4037.034425 668.099484 
L 4039.054813 647.264923 
L 4041.075201 658.839163 
L 4043.095588 665.137269 
L 4045.115976 704.997224 
L 4047.136364 685.681484 
L 4047.136364 685.681484 
" clip-path="url(#pe98d5f61ac)" style="fill: none; stroke: #1ac938; stroke-width: 2.5; stroke-linecap: square"/>
   </g>
   <g id="patch_3">
    <path d="M 585 961.2 
L 585 129.6 
" style="fill: none; stroke: #000000; stroke-width: 0.8; stroke-linejoin: miter; stroke-linecap: square"/>
   </g>
   <g id="patch_4">
    <path d="M 4212 961.2 
L 4212 129.6 
" style="fill: none; stroke: #000000; stroke-width: 0.8; stroke-linejoin: miter; stroke-linecap: square"/>
   </g>
   <g id="patch_5">
    <path d="M 585 961.2 
L 4212 961.2 
" style="fill: none; stroke: #000000; stroke-width: 0.8; stroke-linejoin: miter; stroke-linecap: square"/>
   </g>
   <g id="patch_6">
    <path d="M 585 129.6 
L 4212 129.6 
" style="fill: none; stroke: #000000; stroke-width: 0.8; stroke-linejoin: miter; stroke-linecap: square"/>
   </g>
   <g id="text_18">
    <!-- BRSE -->
    <g transform="translate(2358.785156 123.360937) scale(0.3 -0.3)">
     <defs>
      <path id="DejaVuSans-42" d="M 1259 2228 
L 1259 519 
L 2272 519 
Q 2781 519 3026 730 
Q 3272 941 3272 1375 
Q 3272 1813 3026 2020 
Q 2781 2228 2272 2228 
L 1259 2228 
z
M 1259 4147 
L 1259 2741 
L 2194 2741 
Q 2656 2741 2882 2914 
Q 3109 3088 3109 3444 
Q 3109 3797 2882 3972 
Q 2656 4147 2194 4147 
L 1259 4147 
z
M 628 4666 
L 2241 4666 
Q 2963 4666 3353 4366 
Q 3744 4066 3744 3513 
Q 3744 3084 3544 2831 
Q 3344 2578 2956 2516 
Q 3422 2416 3680 2098 
Q 3938 1781 3938 1306 
Q 3938 681 3513 340 
Q 3088 0 2303 0 
L 628 0 
L 628 4666 
z
" transform="scale(0.015625)"/>
      <path id="DejaVuSans-52" d="M 2841 2188 
Q 3044 2119 3236 1894 
Q 3428 1669 3622 1275 
L 4263 0 
L 3584 0 
L 2988 1197 
Q 2756 1666 2539 1819 
Q 2322 1972 1947 1972 
L 1259 1972 
L 1259 0 
L 628 0 
L 628 4666 
L 2053 4666 
Q 2853 4666 3247 4331 
Q 3641 3997 3641 3322 
Q 3641 2881 3436 2590 
Q 3231 2300 2841 2188 
z
M 1259 4147 
L 1259 2491 
L 2053 2491 
Q 2509 2491 2742 2702 
Q 2975 2913 2975 3322 
Q 2975 3731 2742 3939 
Q 2509 4147 2053 4147 
L 1259 4147 
z
" transform="scale(0.015625)"/>
      <path id="DejaVuSans-53" d="M 3425 4513 
L 3425 3897 
Q 3066 4069 2747 4153 
Q 2428 4238 2131 4238 
Q 1616 4238 1336 4038 
Q 1056 3838 1056 3469 
Q 1056 3159 1242 3001 
Q 1428 2844 1947 2747 
L 2328 2669 
Q 3034 2534 3370 2195 
Q 3706 1856 3706 1288 
Q 3706 609 3251 259 
Q 2797 -91 1919 -91 
Q 1588 -91 1214 -16 
Q 841 59 441 206 
L 441 856 
Q 825 641 1194 531 
Q 1563 422 1919 422 
Q 2459 422 2753 634 
Q 3047 847 3047 1241 
Q 3047 1584 2836 1778 
Q 2625 1972 2144 2069 
L 1759 2144 
Q 1053 2284 737 2584 
Q 422 2884 422 3419 
Q 422 4038 858 4394 
Q 1294 4750 2059 4750 
Q 2388 4750 2728 4690 
Q 3069 4631 3425 4513 
z
" transform="scale(0.015625)"/>
     </defs>
     <use xlink:href="#DejaVuSans-42"/>
     <use xlink:href="#DejaVuSans-52" x="68.603516"/>
     <use xlink:href="#DejaVuSans-53" x="138.085938"/>
     <use xlink:href="#DejaVuSans-45" x="201.5625"/>
    </g>
   </g>
   <g id="legend_1">
    <g id="patch_7">
     <path d="M 4151.178125 152.278125 
L 4205 152.278125 
Q 4207 152.278125 4207 150.278125 
L 4207 136.6 
Q 4207 134.6 4205 134.6 
L 4151.178125 134.6 
Q 4149.178125 134.6 4149.178125 136.6 
L 4149.178125 150.278125 
Q 4149.178125 152.278125 4151.178125 152.278125 
z
" style="fill: #ffffff; opacity: 0.8; stroke: #cccccc; stroke-linejoin: miter"/>
    </g>
    <g id="line2d_17">
     <path d="M 4153.178125 142.698438 
L 4163.178125 142.698438 
L 4173.178125 142.698438 
" style="fill: none; stroke: #1ac938; stroke-width: 2.5; stroke-linecap: square"/>
    </g>
    <g id="text_19">
     <!-- brse -->
     <g transform="translate(4181.178125 146.198438) scale(0.1 -0.1)">
      <defs>
       <path id="DejaVuSans-62" d="M 3116 1747 
Q 3116 2381 2855 2742 
Q 2594 3103 2138 3103 
Q 1681 3103 1420 2742 
Q 1159 2381 1159 1747 
Q 1159 1113 1420 752 
Q 1681 391 2138 391 
Q 2594 391 2855 752 
Q 3116 1113 3116 1747 
z
M 1159 2969 
Q 1341 3281 1617 3432 
Q 1894 3584 2278 3584 
Q 2916 3584 3314 3078 
Q 3713 2572 3713 1747 
Q 3713 922 3314 415 
Q 2916 -91 2278 -91 
Q 1894 -91 1617 61 
Q 1341 213 1159 525 
L 1159 0 
L 581 0 
L 581 4863 
L 1159 4863 
L 1159 2969 
z
" transform="scale(0.015625)"/>
       <path id="DejaVuSans-72" d="M 2631 2963 
Q 2534 3019 2420 3045 
Q 2306 3072 2169 3072 
Q 1681 3072 1420 2755 
Q 1159 2438 1159 1844 
L 1159 0 
L 581 0 
L 581 3500 
L 1159 3500 
L 1159 2956 
Q 1341 3275 1631 3429 
Q 1922 3584 2338 3584 
Q 2397 3584 2469 3576 
Q 2541 3569 2628 3553 
L 2631 2963 
z
" transform="scale(0.015625)"/>
      </defs>
      <use xlink:href="#DejaVuSans-62"/>
      <use xlink:href="#DejaVuSans-72" x="63.476562"/>
      <use xlink:href="#DejaVuSans-73" x="104.589844"/>
      <use xlink:href="#DejaVuSans-65" x="156.689453"/>
     </g>
    </g>
   </g>
  </g>
 </g>
 <defs>
  <clipPath id="pe98d5f61ac">
   <rect x="585" y="129.6" width="3627" height="831.6"/>
  </clipPath>
 </defs>
</svg>
