<?xml version="1.0" encoding="utf-8" standalone="no"?>
<!DOCTYPE svg PUBLIC "-//W3C//DTD SVG 1.1//EN"
  "http://www.w3.org/Graphics/SVG/1.1/DTD/svg11.dtd">
<svg xmlns:xlink="http://www.w3.org/1999/xlink" width="4680pt" height="1080pt" viewBox="0 0 4680 1080" xmlns="http://www.w3.org/2000/svg" version="1.1">
 <metadata>
  <rdf:RDF xmlns:dc="http://purl.org/dc/elements/1.1/" xmlns:cc="http://creativecommons.org/ns#" xmlns:rdf="http://www.w3.org/1999/02/22-rdf-syntax-ns#">
   <cc:Work>
    <dc:type rdf:resource="http://purl.org/dc/dcmitype/StillImage"/>
    <dc:date>2024-03-25T14:09:17.514632</dc:date>
    <dc:format>image/svg+xml</dc:format>
    <dc:creator>
     <cc:Agent>
      <dc:title>Matplotlib v3.7.2, https://matplotlib.org/</dc:title>
     </cc:Agent>
    </dc:creator>
   </cc:Work>
  </rdf:RDF>
 </metadata>
 <defs>
  <style type="text/css">*{stroke-linejoin: round; stroke-linecap: butt}</style>
 </defs>
 <g id="figure_1">
  <g id="patch_1">
   <path d="M 0 1080 
L 4680 1080 
L 4680 0 
L 0 0 
z
" style="fill: #ffffff"/>
  </g>
  <g id="axes_1">
   <g id="patch_2">
    <path d="M 585 961.2 
L 4212 961.2 
L 4212 129.6 
L 585 129.6 
z
" style="fill: #ffffff"/>
   </g>
   <g id="matplotlib.axis_1">
    <g id="xtick_1">
     <g id="line2d_1">
      <defs>
       <path id="mbf437118c9" d="M 0 0 
L 0 3.5 
" style="stroke: #000000; stroke-width: 0.8"/>
      </defs>
      <g>
       <use xlink:href="#mbf437118c9" x="941.800468" y="961.2" style="stroke: #000000; stroke-width: 0.8"/>
      </g>
     </g>
     <g id="text_1">
      <!-- 2012-07 -->
      <g transform="translate(900.017655 983.396875) scale(0.2 -0.2)">
       <defs>
        <path id="DejaVuSans-32" d="M 1228 531 
L 3431 531 
L 3431 0 
L 469 0 
L 469 531 
Q 828 903 1448 1529 
Q 2069 2156 2228 2338 
Q 2531 2678 2651 2914 
Q 2772 3150 2772 3378 
Q 2772 3750 2511 3984 
Q 2250 4219 1831 4219 
Q 1534 4219 1204 4116 
Q 875 4013 500 3803 
L 500 4441 
Q 881 4594 1212 4672 
Q 1544 4750 1819 4750 
Q 2544 4750 2975 4387 
Q 3406 4025 3406 3419 
Q 3406 3131 3298 2873 
Q 3191 2616 2906 2266 
Q 2828 2175 2409 1742 
Q 1991 1309 1228 531 
z
" transform="scale(0.015625)"/>
        <path id="DejaVuSans-30" d="M 2034 4250 
Q 1547 4250 1301 3770 
Q 1056 3291 1056 2328 
Q 1056 1369 1301 889 
Q 1547 409 2034 409 
Q 2525 409 2770 889 
Q 3016 1369 3016 2328 
Q 3016 3291 2770 3770 
Q 2525 4250 2034 4250 
z
M 2034 4750 
Q 2819 4750 3233 4129 
Q 3647 3509 3647 2328 
Q 3647 1150 3233 529 
Q 2819 -91 2034 -91 
Q 1250 -91 836 529 
Q 422 1150 422 2328 
Q 422 3509 836 4129 
Q 1250 4750 2034 4750 
z
" transform="scale(0.015625)"/>
        <path id="DejaVuSans-31" d="M 794 531 
L 1825 531 
L 1825 4091 
L 703 3866 
L 703 4441 
L 1819 4666 
L 2450 4666 
L 2450 531 
L 3481 531 
L 3481 0 
L 794 0 
L 794 531 
z
" transform="scale(0.015625)"/>
        <path id="DejaVuSans-2d" d="M 313 2009 
L 1997 2009 
L 1997 1497 
L 313 1497 
L 313 2009 
z
" transform="scale(0.015625)"/>
        <path id="DejaVuSans-37" d="M 525 4666 
L 3525 4666 
L 3525 4397 
L 1831 0 
L 1172 0 
L 2766 4134 
L 525 4134 
L 525 4666 
z
" transform="scale(0.015625)"/>
       </defs>
       <use xlink:href="#DejaVuSans-32"/>
       <use xlink:href="#DejaVuSans-30" x="63.623047"/>
       <use xlink:href="#DejaVuSans-31" x="127.246094"/>
       <use xlink:href="#DejaVuSans-32" x="190.869141"/>
       <use xlink:href="#DejaVuSans-2d" x="254.492188"/>
       <use xlink:href="#DejaVuSans-30" x="290.576172"/>
       <use xlink:href="#DejaVuSans-37" x="354.199219"/>
      </g>
     </g>
    </g>
    <g id="xtick_2">
     <g id="line2d_2">
      <g>
       <use xlink:href="#mbf437118c9" x="1313.551805" y="961.2" style="stroke: #000000; stroke-width: 0.8"/>
      </g>
     </g>
     <g id="text_2">
      <!-- 2013-01 -->
      <g transform="translate(1271.768992 983.396875) scale(0.2 -0.2)">
       <defs>
        <path id="DejaVuSans-33" d="M 2597 2516 
Q 3050 2419 3304 2112 
Q 3559 1806 3559 1356 
Q 3559 666 3084 287 
Q 2609 -91 1734 -91 
Q 1441 -91 1130 -33 
Q 819 25 488 141 
L 488 750 
Q 750 597 1062 519 
Q 1375 441 1716 441 
Q 2309 441 2620 675 
Q 2931 909 2931 1356 
Q 2931 1769 2642 2001 
Q 2353 2234 1838 2234 
L 1294 2234 
L 1294 2753 
L 1863 2753 
Q 2328 2753 2575 2939 
Q 2822 3125 2822 3475 
Q 2822 3834 2567 4026 
Q 2313 4219 1838 4219 
Q 1578 4219 1281 4162 
Q 984 4106 628 3988 
L 628 4550 
Q 988 4650 1302 4700 
Q 1616 4750 1894 4750 
Q 2613 4750 3031 4423 
Q 3450 4097 3450 3541 
Q 3450 3153 3228 2886 
Q 3006 2619 2597 2516 
z
" transform="scale(0.015625)"/>
       </defs>
       <use xlink:href="#DejaVuSans-32"/>
       <use xlink:href="#DejaVuSans-30" x="63.623047"/>
       <use xlink:href="#DejaVuSans-31" x="127.246094"/>
       <use xlink:href="#DejaVuSans-33" x="190.869141"/>
       <use xlink:href="#DejaVuSans-2d" x="254.492188"/>
       <use xlink:href="#DejaVuSans-30" x="290.576172"/>
       <use xlink:href="#DejaVuSans-31" x="354.199219"/>
      </g>
     </g>
    </g>
    <g id="xtick_3">
     <g id="line2d_3">
      <g>
       <use xlink:href="#mbf437118c9" x="1679.241979" y="961.2" style="stroke: #000000; stroke-width: 0.8"/>
      </g>
     </g>
     <g id="text_3">
      <!-- 2013-07 -->
      <g transform="translate(1637.459166 983.396875) scale(0.2 -0.2)">
       <use xlink:href="#DejaVuSans-32"/>
       <use xlink:href="#DejaVuSans-30" x="63.623047"/>
       <use xlink:href="#DejaVuSans-31" x="127.246094"/>
       <use xlink:href="#DejaVuSans-33" x="190.869141"/>
       <use xlink:href="#DejaVuSans-2d" x="254.492188"/>
       <use xlink:href="#DejaVuSans-30" x="290.576172"/>
       <use xlink:href="#DejaVuSans-37" x="354.199219"/>
      </g>
     </g>
    </g>
    <g id="xtick_4">
     <g id="line2d_4">
      <g>
       <use xlink:href="#mbf437118c9" x="2050.993316" y="961.2" style="stroke: #000000; stroke-width: 0.8"/>
      </g>
     </g>
     <g id="text_4">
      <!-- 2014-01 -->
      <g transform="translate(2009.210503 983.396875) scale(0.2 -0.2)">
       <defs>
        <path id="DejaVuSans-34" d="M 2419 4116 
L 825 1625 
L 2419 1625 
L 2419 4116 
z
M 2253 4666 
L 3047 4666 
L 3047 1625 
L 3713 1625 
L 3713 1100 
L 3047 1100 
L 3047 0 
L 2419 0 
L 2419 1100 
L 313 1100 
L 313 1709 
L 2253 4666 
z
" transform="scale(0.015625)"/>
       </defs>
       <use xlink:href="#DejaVuSans-32"/>
       <use xlink:href="#DejaVuSans-30" x="63.623047"/>
       <use xlink:href="#DejaVuSans-31" x="127.246094"/>
       <use xlink:href="#DejaVuSans-34" x="190.869141"/>
       <use xlink:href="#DejaVuSans-2d" x="254.492188"/>
       <use xlink:href="#DejaVuSans-30" x="290.576172"/>
       <use xlink:href="#DejaVuSans-31" x="354.199219"/>
      </g>
     </g>
    </g>
    <g id="xtick_5">
     <g id="line2d_5">
      <g>
       <use xlink:href="#mbf437118c9" x="2416.683489" y="961.2" style="stroke: #000000; stroke-width: 0.8"/>
      </g>
     </g>
     <g id="text_5">
      <!-- 2014-07 -->
      <g transform="translate(2374.900677 983.396875) scale(0.2 -0.2)">
       <use xlink:href="#DejaVuSans-32"/>
       <use xlink:href="#DejaVuSans-30" x="63.623047"/>
       <use xlink:href="#DejaVuSans-31" x="127.246094"/>
       <use xlink:href="#DejaVuSans-34" x="190.869141"/>
       <use xlink:href="#DejaVuSans-2d" x="254.492188"/>
       <use xlink:href="#DejaVuSans-30" x="290.576172"/>
       <use xlink:href="#DejaVuSans-37" x="354.199219"/>
      </g>
     </g>
    </g>
    <g id="xtick_6">
     <g id="line2d_6">
      <g>
       <use xlink:href="#mbf437118c9" x="2788.434826" y="961.2" style="stroke: #000000; stroke-width: 0.8"/>
      </g>
     </g>
     <g id="text_6">
      <!-- 2015-01 -->
      <g transform="translate(2746.652014 983.396875) scale(0.2 -0.2)">
       <defs>
        <path id="DejaVuSans-35" d="M 691 4666 
L 3169 4666 
L 3169 4134 
L 1269 4134 
L 1269 2991 
Q 1406 3038 1543 3061 
Q 1681 3084 1819 3084 
Q 2600 3084 3056 2656 
Q 3513 2228 3513 1497 
Q 3513 744 3044 326 
Q 2575 -91 1722 -91 
Q 1428 -91 1123 -41 
Q 819 9 494 109 
L 494 744 
Q 775 591 1075 516 
Q 1375 441 1709 441 
Q 2250 441 2565 725 
Q 2881 1009 2881 1497 
Q 2881 1984 2565 2268 
Q 2250 2553 1709 2553 
Q 1456 2553 1204 2497 
Q 953 2441 691 2322 
L 691 4666 
z
" transform="scale(0.015625)"/>
       </defs>
       <use xlink:href="#DejaVuSans-32"/>
       <use xlink:href="#DejaVuSans-30" x="63.623047"/>
       <use xlink:href="#DejaVuSans-31" x="127.246094"/>
       <use xlink:href="#DejaVuSans-35" x="190.869141"/>
       <use xlink:href="#DejaVuSans-2d" x="254.492188"/>
       <use xlink:href="#DejaVuSans-30" x="290.576172"/>
       <use xlink:href="#DejaVuSans-31" x="354.199219"/>
      </g>
     </g>
    </g>
    <g id="xtick_7">
     <g id="line2d_7">
      <g>
       <use xlink:href="#mbf437118c9" x="3154.125" y="961.2" style="stroke: #000000; stroke-width: 0.8"/>
      </g>
     </g>
     <g id="text_7">
      <!-- 2015-07 -->
      <g transform="translate(3112.342188 983.396875) scale(0.2 -0.2)">
       <use xlink:href="#DejaVuSans-32"/>
       <use xlink:href="#DejaVuSans-30" x="63.623047"/>
       <use xlink:href="#DejaVuSans-31" x="127.246094"/>
       <use xlink:href="#DejaVuSans-35" x="190.869141"/>
       <use xlink:href="#DejaVuSans-2d" x="254.492188"/>
       <use xlink:href="#DejaVuSans-30" x="290.576172"/>
       <use xlink:href="#DejaVuSans-37" x="354.199219"/>
      </g>
     </g>
    </g>
    <g id="xtick_8">
     <g id="line2d_8">
      <g>
       <use xlink:href="#mbf437118c9" x="3525.876337" y="961.2" style="stroke: #000000; stroke-width: 0.8"/>
      </g>
     </g>
     <g id="text_8">
      <!-- 2016-01 -->
      <g transform="translate(3484.093524 983.396875) scale(0.2 -0.2)">
       <defs>
        <path id="DejaVuSans-36" d="M 2113 2584 
Q 1688 2584 1439 2293 
Q 1191 2003 1191 1497 
Q 1191 994 1439 701 
Q 1688 409 2113 409 
Q 2538 409 2786 701 
Q 3034 994 3034 1497 
Q 3034 2003 2786 2293 
Q 2538 2584 2113 2584 
z
M 3366 4563 
L 3366 3988 
Q 3128 4100 2886 4159 
Q 2644 4219 2406 4219 
Q 1781 4219 1451 3797 
Q 1122 3375 1075 2522 
Q 1259 2794 1537 2939 
Q 1816 3084 2150 3084 
Q 2853 3084 3261 2657 
Q 3669 2231 3669 1497 
Q 3669 778 3244 343 
Q 2819 -91 2113 -91 
Q 1303 -91 875 529 
Q 447 1150 447 2328 
Q 447 3434 972 4092 
Q 1497 4750 2381 4750 
Q 2619 4750 2861 4703 
Q 3103 4656 3366 4563 
z
" transform="scale(0.015625)"/>
       </defs>
       <use xlink:href="#DejaVuSans-32"/>
       <use xlink:href="#DejaVuSans-30" x="63.623047"/>
       <use xlink:href="#DejaVuSans-31" x="127.246094"/>
       <use xlink:href="#DejaVuSans-36" x="190.869141"/>
       <use xlink:href="#DejaVuSans-2d" x="254.492188"/>
       <use xlink:href="#DejaVuSans-30" x="290.576172"/>
       <use xlink:href="#DejaVuSans-31" x="354.199219"/>
      </g>
     </g>
    </g>
    <g id="xtick_9">
     <g id="line2d_9">
      <g>
       <use xlink:href="#mbf437118c9" x="3893.586898" y="961.2" style="stroke: #000000; stroke-width: 0.8"/>
      </g>
     </g>
     <g id="text_9">
      <!-- 2016-07 -->
      <g transform="translate(3851.804086 983.396875) scale(0.2 -0.2)">
       <use xlink:href="#DejaVuSans-32"/>
       <use xlink:href="#DejaVuSans-30" x="63.623047"/>
       <use xlink:href="#DejaVuSans-31" x="127.246094"/>
       <use xlink:href="#DejaVuSans-36" x="190.869141"/>
       <use xlink:href="#DejaVuSans-2d" x="254.492188"/>
       <use xlink:href="#DejaVuSans-30" x="290.576172"/>
       <use xlink:href="#DejaVuSans-37" x="354.199219"/>
      </g>
     </g>
    </g>
    <g id="text_10">
     <!-- Time -->
     <g transform="translate(2374.032813 1006.753125) scale(0.2 -0.2)">
      <defs>
       <path id="DejaVuSans-54" d="M -19 4666 
L 3928 4666 
L 3928 4134 
L 2272 4134 
L 2272 0 
L 1638 0 
L 1638 4134 
L -19 4134 
L -19 4666 
z
" transform="scale(0.015625)"/>
       <path id="DejaVuSans-69" d="M 603 3500 
L 1178 3500 
L 1178 0 
L 603 0 
L 603 3500 
z
M 603 4863 
L 1178 4863 
L 1178 4134 
L 603 4134 
L 603 4863 
z
" transform="scale(0.015625)"/>
       <path id="DejaVuSans-6d" d="M 3328 2828 
Q 3544 3216 3844 3400 
Q 4144 3584 4550 3584 
Q 5097 3584 5394 3201 
Q 5691 2819 5691 2113 
L 5691 0 
L 5113 0 
L 5113 2094 
Q 5113 2597 4934 2840 
Q 4756 3084 4391 3084 
Q 3944 3084 3684 2787 
Q 3425 2491 3425 1978 
L 3425 0 
L 2847 0 
L 2847 2094 
Q 2847 2600 2669 2842 
Q 2491 3084 2119 3084 
Q 1678 3084 1418 2786 
Q 1159 2488 1159 1978 
L 1159 0 
L 581 0 
L 581 3500 
L 1159 3500 
L 1159 2956 
Q 1356 3278 1631 3431 
Q 1906 3584 2284 3584 
Q 2666 3584 2933 3390 
Q 3200 3197 3328 2828 
z
" transform="scale(0.015625)"/>
       <path id="DejaVuSans-65" d="M 3597 1894 
L 3597 1613 
L 953 1613 
Q 991 1019 1311 708 
Q 1631 397 2203 397 
Q 2534 397 2845 478 
Q 3156 559 3463 722 
L 3463 178 
Q 3153 47 2828 -22 
Q 2503 -91 2169 -91 
Q 1331 -91 842 396 
Q 353 884 353 1716 
Q 353 2575 817 3079 
Q 1281 3584 2069 3584 
Q 2775 3584 3186 3129 
Q 3597 2675 3597 1894 
z
M 3022 2063 
Q 3016 2534 2758 2815 
Q 2500 3097 2075 3097 
Q 1594 3097 1305 2825 
Q 1016 2553 972 2059 
L 3022 2063 
z
" transform="scale(0.015625)"/>
      </defs>
      <use xlink:href="#DejaVuSans-54"/>
      <use xlink:href="#DejaVuSans-69" x="57.958984"/>
      <use xlink:href="#DejaVuSans-6d" x="85.742188"/>
      <use xlink:href="#DejaVuSans-65" x="183.154297"/>
     </g>
    </g>
   </g>
   <g id="matplotlib.axis_2">
    <g id="ytick_1">
     <g id="line2d_10">
      <defs>
       <path id="m85ef6ac949" d="M 0 0 
L -3.5 0 
" style="stroke: #000000; stroke-width: 0.8"/>
      </defs>
      <g>
       <use xlink:href="#m85ef6ac949" x="585" y="832.964895" style="stroke: #000000; stroke-width: 0.8"/>
      </g>
     </g>
     <g id="text_11">
      <!-- −0.004 -->
      <g transform="translate(503.984375 840.563332) scale(0.2 -0.2)">
       <defs>
        <path id="DejaVuSans-2212" d="M 678 2272 
L 4684 2272 
L 4684 1741 
L 678 1741 
L 678 2272 
z
" transform="scale(0.015625)"/>
        <path id="DejaVuSans-2e" d="M 684 794 
L 1344 794 
L 1344 0 
L 684 0 
L 684 794 
z
" transform="scale(0.015625)"/>
       </defs>
       <use xlink:href="#DejaVuSans-2212"/>
       <use xlink:href="#DejaVuSans-30" x="83.789062"/>
       <use xlink:href="#DejaVuSans-2e" x="147.412109"/>
       <use xlink:href="#DejaVuSans-30" x="179.199219"/>
       <use xlink:href="#DejaVuSans-30" x="242.822266"/>
       <use xlink:href="#DejaVuSans-34" x="306.445312"/>
      </g>
     </g>
    </g>
    <g id="ytick_2">
     <g id="line2d_11">
      <g>
       <use xlink:href="#m85ef6ac949" x="585" y="660.664182" style="stroke: #000000; stroke-width: 0.8"/>
      </g>
     </g>
     <g id="text_12">
      <!-- −0.002 -->
      <g transform="translate(503.984375 668.262619) scale(0.2 -0.2)">
       <use xlink:href="#DejaVuSans-2212"/>
       <use xlink:href="#DejaVuSans-30" x="83.789062"/>
       <use xlink:href="#DejaVuSans-2e" x="147.412109"/>
       <use xlink:href="#DejaVuSans-30" x="179.199219"/>
       <use xlink:href="#DejaVuSans-30" x="242.822266"/>
       <use xlink:href="#DejaVuSans-32" x="306.445312"/>
      </g>
     </g>
    </g>
    <g id="ytick_3">
     <g id="line2d_12">
      <g>
       <use xlink:href="#m85ef6ac949" x="585" y="488.363469" style="stroke: #000000; stroke-width: 0.8"/>
      </g>
     </g>
     <g id="text_13">
      <!-- 0.000 -->
      <g transform="translate(520.74375 495.961907) scale(0.2 -0.2)">
       <use xlink:href="#DejaVuSans-30"/>
       <use xlink:href="#DejaVuSans-2e" x="63.623047"/>
       <use xlink:href="#DejaVuSans-30" x="95.410156"/>
       <use xlink:href="#DejaVuSans-30" x="159.033203"/>
       <use xlink:href="#DejaVuSans-30" x="222.65625"/>
      </g>
     </g>
    </g>
    <g id="ytick_4">
     <g id="line2d_13">
      <g>
       <use xlink:href="#m85ef6ac949" x="585" y="316.062756" style="stroke: #000000; stroke-width: 0.8"/>
      </g>
     </g>
     <g id="text_14">
      <!-- 0.002 -->
      <g transform="translate(520.74375 323.661194) scale(0.2 -0.2)">
       <use xlink:href="#DejaVuSans-30"/>
       <use xlink:href="#DejaVuSans-2e" x="63.623047"/>
       <use xlink:href="#DejaVuSans-30" x="95.410156"/>
       <use xlink:href="#DejaVuSans-30" x="159.033203"/>
       <use xlink:href="#DejaVuSans-32" x="222.65625"/>
      </g>
     </g>
    </g>
    <g id="ytick_5">
     <g id="line2d_14">
      <g>
       <use xlink:href="#m85ef6ac949" x="585" y="143.762043" style="stroke: #000000; stroke-width: 0.8"/>
      </g>
     </g>
     <g id="text_15">
      <!-- 0.004 -->
      <g transform="translate(520.74375 151.360481) scale(0.2 -0.2)">
       <use xlink:href="#DejaVuSans-30"/>
       <use xlink:href="#DejaVuSans-2e" x="63.623047"/>
       <use xlink:href="#DejaVuSans-30" x="95.410156"/>
       <use xlink:href="#DejaVuSans-30" x="159.033203"/>
       <use xlink:href="#DejaVuSans-34" x="222.65625"/>
      </g>
     </g>
    </g>
    <g id="text_16">
     <!-- East(m) -->
     <g transform="translate(495.825 584.520313) rotate(-90) scale(0.2 -0.2)">
      <defs>
       <path id="DejaVuSans-45" d="M 628 4666 
L 3578 4666 
L 3578 4134 
L 1259 4134 
L 1259 2753 
L 3481 2753 
L 3481 2222 
L 1259 2222 
L 1259 531 
L 3634 531 
L 3634 0 
L 628 0 
L 628 4666 
z
" transform="scale(0.015625)"/>
       <path id="DejaVuSans-61" d="M 2194 1759 
Q 1497 1759 1228 1600 
Q 959 1441 959 1056 
Q 959 750 1161 570 
Q 1363 391 1709 391 
Q 2188 391 2477 730 
Q 2766 1069 2766 1631 
L 2766 1759 
L 2194 1759 
z
M 3341 1997 
L 3341 0 
L 2766 0 
L 2766 531 
Q 2569 213 2275 61 
Q 1981 -91 1556 -91 
Q 1019 -91 701 211 
Q 384 513 384 1019 
Q 384 1609 779 1909 
Q 1175 2209 1959 2209 
L 2766 2209 
L 2766 2266 
Q 2766 2663 2505 2880 
Q 2244 3097 1772 3097 
Q 1472 3097 1187 3025 
Q 903 2953 641 2809 
L 641 3341 
Q 956 3463 1253 3523 
Q 1550 3584 1831 3584 
Q 2591 3584 2966 3190 
Q 3341 2797 3341 1997 
z
" transform="scale(0.015625)"/>
       <path id="DejaVuSans-73" d="M 2834 3397 
L 2834 2853 
Q 2591 2978 2328 3040 
Q 2066 3103 1784 3103 
Q 1356 3103 1142 2972 
Q 928 2841 928 2578 
Q 928 2378 1081 2264 
Q 1234 2150 1697 2047 
L 1894 2003 
Q 2506 1872 2764 1633 
Q 3022 1394 3022 966 
Q 3022 478 2636 193 
Q 2250 -91 1575 -91 
Q 1294 -91 989 -36 
Q 684 19 347 128 
L 347 722 
Q 666 556 975 473 
Q 1284 391 1588 391 
Q 1994 391 2212 530 
Q 2431 669 2431 922 
Q 2431 1156 2273 1281 
Q 2116 1406 1581 1522 
L 1381 1569 
Q 847 1681 609 1914 
Q 372 2147 372 2553 
Q 372 3047 722 3315 
Q 1072 3584 1716 3584 
Q 2034 3584 2315 3537 
Q 2597 3491 2834 3397 
z
" transform="scale(0.015625)"/>
       <path id="DejaVuSans-74" d="M 1172 4494 
L 1172 3500 
L 2356 3500 
L 2356 3053 
L 1172 3053 
L 1172 1153 
Q 1172 725 1289 603 
Q 1406 481 1766 481 
L 2356 481 
L 2356 0 
L 1766 0 
Q 1100 0 847 248 
Q 594 497 594 1153 
L 594 3053 
L 172 3053 
L 172 3500 
L 594 3500 
L 594 4494 
L 1172 4494 
z
" transform="scale(0.015625)"/>
       <path id="DejaVuSans-28" d="M 1984 4856 
Q 1566 4138 1362 3434 
Q 1159 2731 1159 2009 
Q 1159 1288 1364 580 
Q 1569 -128 1984 -844 
L 1484 -844 
Q 1016 -109 783 600 
Q 550 1309 550 2009 
Q 550 2706 781 3412 
Q 1013 4119 1484 4856 
L 1984 4856 
z
" transform="scale(0.015625)"/>
       <path id="DejaVuSans-29" d="M 513 4856 
L 1013 4856 
Q 1481 4119 1714 3412 
Q 1947 2706 1947 2009 
Q 1947 1309 1714 600 
Q 1481 -109 1013 -844 
L 513 -844 
Q 928 -128 1133 580 
Q 1338 1288 1338 2009 
Q 1338 2731 1133 3434 
Q 928 4138 513 4856 
z
" transform="scale(0.015625)"/>
      </defs>
      <use xlink:href="#DejaVuSans-45"/>
      <use xlink:href="#DejaVuSans-61" x="63.183594"/>
      <use xlink:href="#DejaVuSans-73" x="124.462891"/>
      <use xlink:href="#DejaVuSans-74" x="176.5625"/>
      <use xlink:href="#DejaVuSans-28" x="215.771484"/>
      <use xlink:href="#DejaVuSans-6d" x="254.785156"/>
      <use xlink:href="#DejaVuSans-29" x="352.197266"/>
     </g>
    </g>
   </g>
   <g id="line2d_15">
    <path d="M 749.863636 867.057612 
L 753.904412 915.884564 
L 755.924799 923.4 
L 764.00635 836.393725 
L 766.026738 828.977717 
L 768.047126 802.592839 
L 770.067513 784.217555 
L 772.087901 810.033813 
L 774.108289 810.683309 
L 776.128676 826.432354 
L 790.27139 702.923849 
L 792.291778 691.498072 
L 794.312166 695.283525 
L 796.332553 690.62069 
L 798.352941 682.630656 
L 800.373329 676.096387 
L 802.393717 678.67814 
L 806.434492 678.684839 
L 808.45488 674.5675 
L 810.475267 657.514282 
L 812.495655 663.561851 
L 824.617981 717.115854 
L 830.679144 751.423726 
L 832.699532 751.243179 
L 834.71992 743.442245 
L 836.740307 737.517061 
L 844.821858 775.614987 
L 850.883021 766.625232 
L 852.903409 754.135842 
L 854.923797 763.629052 
L 856.944184 761.270538 
L 860.98496 708.052374 
L 863.005348 672.390236 
L 865.025735 654.038058 
L 867.046123 658.260544 
L 869.066511 649.399219 
L 873.107286 619.796631 
L 875.127674 644.209777 
L 877.148061 658.170474 
L 879.168449 669.753539 
L 885.229612 694.306776 
L 889.270388 723.413568 
L 891.290775 719.231669 
L 893.311163 728.235987 
L 895.331551 726.92665 
L 897.351939 741.759029 
L 899.372326 752.389741 
L 903.413102 680.407835 
L 905.433489 682.408466 
L 907.453877 661.836854 
L 909.474265 649.668039 
L 913.51504 624.139049 
L 915.535428 651.478395 
L 917.555816 677.077518 
L 921.596591 690.304478 
L 933.718917 802.243994 
L 937.759693 820.56382 
L 1044.840241 889.006534 
L 1046.860628 878.600336 
L 1048.881016 888.150863 
L 1212.53242 427.614143 
L 1214.552807 379.641015 
L 1216.573195 315.215797 
L 1226.675134 182.340729 
L 1230.715909 217.688567 
L 1232.736297 249.176178 
L 1236.777072 320.949133 
L 1238.79746 342.661151 
L 1240.817848 361.18451 
L 1242.838235 341.361741 
L 1333.755682 548.795385 
L 1335.77607 472.571958 
L 1337.796457 479.306012 
L 1341.837233 480.651246 
L 1372.143048 496.827627 
L 1374.163436 494.576731 
L 1376.183824 541.191471 
L 1378.204211 565.476119 
L 1382.244987 570.821345 
L 1384.265374 561.410108 
L 1386.285762 565.963601 
L 1388.30615 575.577261 
L 1390.326537 547.342815 
L 1392.346925 514.814021 
L 1394.367313 501.058173 
L 1402.448864 497.81449 
L 1404.469251 498.927201 
L 1406.489639 523.129564 
L 1412.550802 582.491872 
L 1414.57119 582.584169 
L 1416.591578 573.733738 
L 1418.611965 595.786146 
L 1420.632353 607.086448 
L 1424.673128 621.789908 
L 1428.713904 642.379023 
L 1432.754679 645.009545 
L 1434.775067 647.716825 
L 1436.795455 638.27169 
L 1444.877005 569.102993 
L 1446.897393 545.427016 
L 1454.978944 476.417724 
L 1456.999332 519.721541 
L 1459.019719 511.552322 
L 1461.040107 500.502091 
L 1463.060495 483.609914 
L 1465.080882 489.93292 
L 1469.121658 523.632423 
L 1471.142045 526.791734 
L 1473.162433 528.699558 
L 1475.182821 542.619369 
L 1479.223596 574.626734 
L 1481.243984 582.074616 
L 1483.264372 591.91524 
L 1485.284759 584.477977 
L 1487.305147 588.27639 
L 1489.325535 610.792581 
L 1491.345922 567.048756 
L 1493.36631 527.327792 
L 1495.386698 490.578298 
L 1497.407086 449.763121 
L 1501.447861 400.791428 
L 1669.14004 415.970771 
L 1673.180816 420.809508 
L 1677.221591 418.157882 
L 1681.262366 405.222438 
L 1683.282754 393.181501 
L 1689.343917 433.364724 
L 1691.364305 450.371444 
L 1693.384693 455.148791 
L 1697.425468 482.821805 
L 1699.445856 487.852924 
L 1701.466243 509.047785 
L 1703.486631 514.723593 
L 1705.507019 507.098296 
L 1707.527406 523.635575 
L 1719.649733 542.878951 
L 1723.690508 485.250728 
L 1725.710896 478.583226 
L 1727.731283 461.716146 
L 1729.751671 453.830627 
L 1731.772059 457.06021 
L 1735.812834 513.341963 
L 1737.833222 533.796797 
L 1739.85361 553.029299 
L 1741.873997 564.768898 
L 1743.894385 570.008697 
L 1749.955548 592.520572 
L 1751.975936 589.483513 
L 1753.996324 582.782454 
L 1756.016711 592.286497 
L 1758.037099 598.386665 
L 1766.11865 594.09504 
L 1768.139037 629.31552 
L 1780.261364 573.444508 
L 1782.281751 534.310811 
L 1784.302139 564.027905 
L 1786.322527 602.750163 
L 1788.342914 630.663467 
L 1790.363302 671.13381 
L 1792.38369 671.425606 
L 1794.404078 674.056866 
L 1796.424465 679.110606 
L 1806.526404 672.129113 
L 1808.546791 661.885439 
L 1810.567179 681.385847 
L 1812.587567 650.955877 
L 1814.607955 662.515831 
L 1816.628342 659.768711 
L 1818.64873 659.367998 
L 1822.689505 696.585841 
L 1824.709893 718.630634 
L 1826.730281 726.85963 
L 1828.750668 729.408415 
L 1830.771056 727.156329 
L 1832.791444 722.994457 
L 1834.811832 720.506657 
L 1836.832219 718.862613 
L 1838.852607 703.009683 
L 1954.014706 770.19661 
L 1958.055481 734.622131 
L 1960.075869 722.780715 
L 1962.096257 664.192558 
L 1964.116644 599.454563 
L 1968.15742 536.708727 
L 1970.177807 562.959014 
L 1980.279746 648.183389 
L 1982.300134 657.278701 
L 1988.361297 634.103813 
L 1990.381684 611.572297 
L 1992.402072 606.115547 
L 1994.42246 616.905351 
L 1996.442848 622.407504 
L 2000.483623 631.091294 
L 2073.21758 298.872279 
L 2075.237968 306.998868 
L 2079.278743 299.277207 
L 2081.299131 319.484685 
L 2109.584559 167.4 
L 2438.907754 328.863957 
L 2440.928142 343.524845 
L 2442.948529 330.468763 
L 2444.968917 265.997071 
L 2449.009693 319.536295 
L 2467.193182 457.724933 
L 3178.369652 630.397303 
L 3180.39004 646.483551 
L 3182.410428 603.296657 
L 3184.430816 567.903485 
L 3186.451203 570.180783 
L 3188.471591 558.021515 
L 3194.532754 593.894247 
L 3206.65508 705.95411 
L 3210.695856 755.472216 
L 3212.716243 732.397705 
L 3214.736631 719.311732 
L 3216.757019 695.069982 
L 3220.797794 664.276751 
L 3228.879345 622.790384 
L 3230.899733 621.673039 
L 3253.123997 618.668515 
L 3257.164773 658.785463 
L 3259.18516 648.881781 
L 3261.205548 648.313901 
L 3265.246324 632.381863 
L 3267.266711 609.357924 
L 3269.287099 615.676948 
L 3277.36865 628.879721 
L 3285.450201 603.70096 
L 3287.470588 604.349594 
L 3291.511364 579.996633 
L 3293.531751 580.901289 
L 3295.552139 591.959657 
L 3297.572527 595.54978 
L 3299.592914 613.89264 
L 3301.613302 601.80835 
L 3303.63369 618.951925 
L 3309.694853 555.12179 
L 3315.756016 554.864415 
L 3317.776404 552.22307 
L 3319.796791 565.246406 
L 3321.817179 586.731578 
L 3323.837567 600.857659 
L 3325.857955 626.073596 
L 3327.878342 627.518013 
L 3329.89873 600.621519 
L 3331.919118 597.410598 
L 3340.000668 622.702429 
L 3342.021056 619.591181 
L 3344.041444 625.149751 
L 3346.061832 635.449551 
L 3348.082219 633.388805 
L 3350.102607 634.879475 
L 3352.122995 655.207739 
L 3354.143382 622.055786 
L 3356.16377 636.48585 
L 3358.184158 612.873268 
L 3360.204545 598.34543 
L 3362.224933 579.557083 
L 3366.265709 544.435905 
L 3368.286096 549.942912 
L 3370.306484 546.665567 
L 3372.326872 545.081103 
L 3374.347259 549.25983 
L 3376.367647 552.14954 
L 3400.612299 560.27398 
L 3402.632687 564.586897 
L 3404.653075 559.462141 
L 3406.673463 566.293485 
L 3410.714238 546.067167 
L 3414.755013 585.488271 
L 3416.775401 588.280549 
L 3418.795789 581.085216 
L 3420.816176 575.924641 
L 3422.836564 555.256074 
L 3424.856952 573.134929 
L 3426.87734 587.737849 
L 3428.897727 588.787099 
L 3430.918115 617.057128 
L 3432.938503 627.56748 
L 3434.95889 631.475287 
L 3436.979278 632.447906 
L 3438.999666 583.710692 
L 3441.020053 565.389584 
L 3443.040441 581.869298 
L 3445.060829 546.24164 
L 3447.081217 548.625932 
L 3449.101604 535.802479 
L 3451.121992 557.783123 
L 3453.14238 617.694991 
L 3455.162767 629.834187 
L 3457.183155 606.831778 
L 3459.203543 628.955338 
L 3461.22393 643.838137 
L 3463.244318 664.55652 
L 3465.264706 673.568412 
L 3467.285094 671.794337 
L 3469.305481 666.293467 
L 3471.325869 666.997707 
L 3473.346257 647.830832 
L 3475.366644 625.983425 
L 3477.387032 613.945926 
L 3479.40742 597.030297 
L 3481.427807 582.696987 
L 3483.448195 617.589081 
L 3485.468583 631.648482 
L 3487.488971 631.187389 
L 3489.509358 622.188487 
L 3491.529746 616.197196 
L 3493.550134 618.694326 
L 3497.590909 592.105041 
L 3499.611297 592.489866 
L 3501.631684 607.913596 
L 3503.652072 618.326055 
L 3505.67246 623.614654 
L 3507.692848 627.715786 
L 3509.713235 623.858397 
L 3511.733623 620.987226 
L 3513.754011 612.905671 
L 3515.774398 600.731002 
L 3517.794786 609.025139 
L 3519.815174 629.148498 
L 3521.835561 627.814527 
L 3523.855949 639.991378 
L 3527.896725 637.820093 
L 3529.917112 640.239405 
L 3531.9375 643.446623 
L 3533.957888 635.638069 
L 3535.978275 641.670667 
L 3537.998663 654.979849 
L 3540.019051 652.226072 
L 3542.039439 649.193394 
L 3544.059826 643.481139 
L 3548.100602 620.745201 
L 3550.120989 610.540286 
L 3552.141377 581.822298 
L 3556.182152 597.54352 
L 3558.20254 604.597585 
L 3560.222928 620.211687 
L 3562.243316 601.556683 
L 3564.263703 595.033056 
L 3566.284091 596.64032 
L 3568.304479 579.032815 
L 3570.324866 590.78278 
L 3572.345254 583.34142 
L 3582.447193 664.12607 
L 3584.46758 650.921333 
L 3586.487968 651.418913 
L 3590.528743 635.898377 
L 3592.549131 674.8941 
L 3594.569519 682.555827 
L 3596.589906 650.111108 
L 3598.610294 644.532811 
L 3600.630682 623.680821 
L 3602.65107 592.60293 
L 3604.671457 567.449841 
L 3647.099599 530.616998 
L 3649.119987 505.32119 
L 3653.160762 462.512641 
L 3659.221925 370.778501 
L 3661.242313 360.943451 
L 3663.262701 367.804518 
L 3665.283088 381.903345 
L 3667.303476 394.927717 
L 3669.323864 408.974982 
L 3671.344251 463.497124 
L 3673.364639 466.312924 
L 3675.385027 457.126037 
L 3677.405414 490.958236 
L 3679.425802 511.968057 
L 3681.44619 518.747763 
L 3683.466578 539.322307 
L 3685.486965 529.480411 
L 3687.507353 509.317639 
L 3689.527741 491.641143 
L 3691.548128 468.781361 
L 3693.568516 441.914905 
L 3695.588904 435.376188 
L 3697.609291 398.21314 
L 3703.670455 460.523404 
L 3705.690842 461.230783 
L 3707.71123 462.852411 
L 3711.752005 506.503121 
L 3713.772393 515.487109 
L 3715.792781 479.486743 
L 3717.813168 498.51362 
L 3719.833556 488.728109 
L 3721.853944 510.005293 
L 3723.874332 519.290366 
L 3725.894719 524.739187 
L 3727.915107 499.594567 
L 3729.935495 491.744275 
L 3733.97627 449.28405 
L 3735.996658 401.566304 
L 3738.017045 364.220863 
L 3740.037433 344.881901 
L 3744.078209 362.711103 
L 3746.098596 385.385316 
L 3748.118984 385.78439 
L 3750.139372 402.695465 
L 3756.200535 473.172569 
L 3758.220922 492.530173 
L 3760.24131 467.836281 
L 3762.261698 465.973139 
L 3764.282086 470.09515 
L 3766.302473 442.828032 
L 3768.322861 411.53025 
L 3772.363636 416.524904 
L 3774.384024 441.960383 
L 3776.404412 474.646313 
L 3778.424799 497.765848 
L 3780.445187 507.278391 
L 3786.50635 454.368435 
L 3788.526738 473.046555 
L 3790.547126 477.489377 
L 3792.567513 457.208533 
L 3794.587901 478.539602 
L 3796.608289 497.918267 
L 3798.628676 512.378465 
L 3952.178142 526.709571 
L 3954.198529 500.242366 
L 3956.218917 483.949844 
L 3958.239305 492.699777 
L 3960.259693 492.84911 
L 3970.361631 497.91208 
L 3972.382019 515.567962 
L 3978.443182 542.958056 
L 3980.46357 522.388838 
L 3982.483957 532.454107 
L 3984.504345 529.913106 
L 3986.524733 517.042668 
L 3988.54512 507.059939 
L 3990.565508 498.123736 
L 3996.626671 534.533062 
L 4002.687834 524.620376 
L 4004.708222 536.883444 
L 4006.72861 529.660377 
L 4008.748997 539.040998 
L 4010.769385 523.100853 
L 4014.81016 581.991288 
L 4016.830548 585.643371 
L 4018.850936 587.234719 
L 4020.871324 615.195535 
L 4030.973262 669.459752 
L 4032.99365 673.743473 
L 4035.014037 659.226923 
L 4037.034425 656.677346 
L 4039.054813 647.865197 
L 4041.075201 664.32967 
L 4043.095588 639.89982 
L 4045.115976 593.867204 
L 4047.136364 593.852821 
L 4047.136364 593.852821 
" clip-path="url(#p6c3f80376b)" style="fill: none; stroke: #e8000b; stroke-width: 2.5; stroke-linecap: square"/>
   </g>
   <g id="patch_3">
    <path d="M 585 961.2 
L 585 129.6 
" style="fill: none; stroke: #000000; stroke-width: 0.8; stroke-linejoin: miter; stroke-linecap: square"/>
   </g>
   <g id="patch_4">
    <path d="M 4212 961.2 
L 4212 129.6 
" style="fill: none; stroke: #000000; stroke-width: 0.8; stroke-linejoin: miter; stroke-linecap: square"/>
   </g>
   <g id="patch_5">
    <path d="M 585 961.2 
L 4212 961.2 
" style="fill: none; stroke: #000000; stroke-width: 0.8; stroke-linejoin: miter; stroke-linecap: square"/>
   </g>
   <g id="patch_6">
    <path d="M 585 129.6 
L 4212 129.6 
" style="fill: none; stroke: #000000; stroke-width: 0.8; stroke-linejoin: miter; stroke-linecap: square"/>
   </g>
   <g id="text_17">
    <!-- CANV -->
    <g transform="translate(2356.282031 123.360937) scale(0.3 -0.3)">
     <defs>
      <path id="DejaVuSans-43" d="M 4122 4306 
L 4122 3641 
Q 3803 3938 3442 4084 
Q 3081 4231 2675 4231 
Q 1875 4231 1450 3742 
Q 1025 3253 1025 2328 
Q 1025 1406 1450 917 
Q 1875 428 2675 428 
Q 3081 428 3442 575 
Q 3803 722 4122 1019 
L 4122 359 
Q 3791 134 3420 21 
Q 3050 -91 2638 -91 
Q 1578 -91 968 557 
Q 359 1206 359 2328 
Q 359 3453 968 4101 
Q 1578 4750 2638 4750 
Q 3056 4750 3426 4639 
Q 3797 4528 4122 4306 
z
" transform="scale(0.015625)"/>
      <path id="DejaVuSans-41" d="M 2188 4044 
L 1331 1722 
L 3047 1722 
L 2188 4044 
z
M 1831 4666 
L 2547 4666 
L 4325 0 
L 3669 0 
L 3244 1197 
L 1141 1197 
L 716 0 
L 50 0 
L 1831 4666 
z
" transform="scale(0.015625)"/>
      <path id="DejaVuSans-4e" d="M 628 4666 
L 1478 4666 
L 3547 763 
L 3547 4666 
L 4159 4666 
L 4159 0 
L 3309 0 
L 1241 3903 
L 1241 0 
L 628 0 
L 628 4666 
z
" transform="scale(0.015625)"/>
      <path id="DejaVuSans-56" d="M 1831 0 
L 50 4666 
L 709 4666 
L 2188 738 
L 3669 4666 
L 4325 4666 
L 2547 0 
L 1831 0 
z
" transform="scale(0.015625)"/>
     </defs>
     <use xlink:href="#DejaVuSans-43"/>
     <use xlink:href="#DejaVuSans-41" x="69.824219"/>
     <use xlink:href="#DejaVuSans-4e" x="138.232422"/>
     <use xlink:href="#DejaVuSans-56" x="213.037109"/>
    </g>
   </g>
   <g id="legend_1">
    <g id="patch_7">
     <path d="M 4149.117188 152.278125 
L 4205 152.278125 
Q 4207 152.278125 4207 150.278125 
L 4207 136.6 
Q 4207 134.6 4205 134.6 
L 4149.117188 134.6 
Q 4147.117188 134.6 4147.117188 136.6 
L 4147.117188 150.278125 
Q 4147.117188 152.278125 4149.117188 152.278125 
z
" style="fill: #ffffff; opacity: 0.8; stroke: #cccccc; stroke-linejoin: miter"/>
    </g>
    <g id="line2d_16">
     <path d="M 4151.117188 142.698438 
L 4161.117188 142.698438 
L 4171.117188 142.698438 
" style="fill: none; stroke: #e8000b; stroke-width: 2.5; stroke-linecap: square"/>
    </g>
    <g id="text_18">
     <!-- canv -->
     <g transform="translate(4179.117188 146.198438) scale(0.1 -0.1)">
      <defs>
       <path id="DejaVuSans-63" d="M 3122 3366 
L 3122 2828 
Q 2878 2963 2633 3030 
Q 2388 3097 2138 3097 
Q 1578 3097 1268 2742 
Q 959 2388 959 1747 
Q 959 1106 1268 751 
Q 1578 397 2138 397 
Q 2388 397 2633 464 
Q 2878 531 3122 666 
L 3122 134 
Q 2881 22 2623 -34 
Q 2366 -91 2075 -91 
Q 1284 -91 818 406 
Q 353 903 353 1747 
Q 353 2603 823 3093 
Q 1294 3584 2113 3584 
Q 2378 3584 2631 3529 
Q 2884 3475 3122 3366 
z
" transform="scale(0.015625)"/>
       <path id="DejaVuSans-6e" d="M 3513 2113 
L 3513 0 
L 2938 0 
L 2938 2094 
Q 2938 2591 2744 2837 
Q 2550 3084 2163 3084 
Q 1697 3084 1428 2787 
Q 1159 2491 1159 1978 
L 1159 0 
L 581 0 
L 581 3500 
L 1159 3500 
L 1159 2956 
Q 1366 3272 1645 3428 
Q 1925 3584 2291 3584 
Q 2894 3584 3203 3211 
Q 3513 2838 3513 2113 
z
" transform="scale(0.015625)"/>
       <path id="DejaVuSans-76" d="M 191 3500 
L 800 3500 
L 1894 563 
L 2988 3500 
L 3597 3500 
L 2284 0 
L 1503 0 
L 191 3500 
z
" transform="scale(0.015625)"/>
      </defs>
      <use xlink:href="#DejaVuSans-63"/>
      <use xlink:href="#DejaVuSans-61" x="54.980469"/>
      <use xlink:href="#DejaVuSans-6e" x="116.259766"/>
      <use xlink:href="#DejaVuSans-76" x="179.638672"/>
     </g>
    </g>
   </g>
  </g>
 </g>
 <defs>
  <clipPath id="p6c3f80376b">
   <rect x="585" y="129.6" width="3627" height="831.6"/>
  </clipPath>
 </defs>
</svg>
