<?xml version="1.0" encoding="utf-8" standalone="no"?>
<!DOCTYPE svg PUBLIC "-//W3C//DTD SVG 1.1//EN"
  "http://www.w3.org/Graphics/SVG/1.1/DTD/svg11.dtd">
<svg xmlns:xlink="http://www.w3.org/1999/xlink" width="4680pt" height="1080pt" viewBox="0 0 4680 1080" xmlns="http://www.w3.org/2000/svg" version="1.1">
 <metadata>
  <rdf:RDF xmlns:dc="http://purl.org/dc/elements/1.1/" xmlns:cc="http://creativecommons.org/ns#" xmlns:rdf="http://www.w3.org/1999/02/22-rdf-syntax-ns#">
   <cc:Work>
    <dc:type rdf:resource="http://purl.org/dc/dcmitype/StillImage"/>
    <dc:date>2024-03-25T14:09:17.815553</dc:date>
    <dc:format>image/svg+xml</dc:format>
    <dc:creator>
     <cc:Agent>
      <dc:title>Matplotlib v3.7.2, https://matplotlib.org/</dc:title>
     </cc:Agent>
    </dc:creator>
   </cc:Work>
  </rdf:RDF>
 </metadata>
 <defs>
  <style type="text/css">*{stroke-linejoin: round; stroke-linecap: butt}</style>
 </defs>
 <g id="figure_1">
  <g id="patch_1">
   <path d="M 0 1080 
L 4680 1080 
L 4680 0 
L 0 0 
z
" style="fill: #ffffff"/>
  </g>
  <g id="axes_1">
   <g id="patch_2">
    <path d="M 585 961.2 
L 4212 961.2 
L 4212 129.6 
L 585 129.6 
z
" style="fill: #ffffff"/>
   </g>
   <g id="matplotlib.axis_1">
    <g id="xtick_1">
     <g id="line2d_1">
      <defs>
       <path id="m2abd127a46" d="M 0 0 
L 0 3.5 
" style="stroke: #000000; stroke-width: 0.8"/>
      </defs>
      <g>
       <use xlink:href="#m2abd127a46" x="941.800468" y="961.2" style="stroke: #000000; stroke-width: 0.8"/>
      </g>
     </g>
     <g id="text_1">
      <!-- 2012-07 -->
      <g transform="translate(900.017655 983.396875) scale(0.2 -0.2)">
       <defs>
        <path id="DejaVuSans-32" d="M 1228 531 
L 3431 531 
L 3431 0 
L 469 0 
L 469 531 
Q 828 903 1448 1529 
Q 2069 2156 2228 2338 
Q 2531 2678 2651 2914 
Q 2772 3150 2772 3378 
Q 2772 3750 2511 3984 
Q 2250 4219 1831 4219 
Q 1534 4219 1204 4116 
Q 875 4013 500 3803 
L 500 4441 
Q 881 4594 1212 4672 
Q 1544 4750 1819 4750 
Q 2544 4750 2975 4387 
Q 3406 4025 3406 3419 
Q 3406 3131 3298 2873 
Q 3191 2616 2906 2266 
Q 2828 2175 2409 1742 
Q 1991 1309 1228 531 
z
" transform="scale(0.015625)"/>
        <path id="DejaVuSans-30" d="M 2034 4250 
Q 1547 4250 1301 3770 
Q 1056 3291 1056 2328 
Q 1056 1369 1301 889 
Q 1547 409 2034 409 
Q 2525 409 2770 889 
Q 3016 1369 3016 2328 
Q 3016 3291 2770 3770 
Q 2525 4250 2034 4250 
z
M 2034 4750 
Q 2819 4750 3233 4129 
Q 3647 3509 3647 2328 
Q 3647 1150 3233 529 
Q 2819 -91 2034 -91 
Q 1250 -91 836 529 
Q 422 1150 422 2328 
Q 422 3509 836 4129 
Q 1250 4750 2034 4750 
z
" transform="scale(0.015625)"/>
        <path id="DejaVuSans-31" d="M 794 531 
L 1825 531 
L 1825 4091 
L 703 3866 
L 703 4441 
L 1819 4666 
L 2450 4666 
L 2450 531 
L 3481 531 
L 3481 0 
L 794 0 
L 794 531 
z
" transform="scale(0.015625)"/>
        <path id="DejaVuSans-2d" d="M 313 2009 
L 1997 2009 
L 1997 1497 
L 313 1497 
L 313 2009 
z
" transform="scale(0.015625)"/>
        <path id="DejaVuSans-37" d="M 525 4666 
L 3525 4666 
L 3525 4397 
L 1831 0 
L 1172 0 
L 2766 4134 
L 525 4134 
L 525 4666 
z
" transform="scale(0.015625)"/>
       </defs>
       <use xlink:href="#DejaVuSans-32"/>
       <use xlink:href="#DejaVuSans-30" x="63.623047"/>
       <use xlink:href="#DejaVuSans-31" x="127.246094"/>
       <use xlink:href="#DejaVuSans-32" x="190.869141"/>
       <use xlink:href="#DejaVuSans-2d" x="254.492188"/>
       <use xlink:href="#DejaVuSans-30" x="290.576172"/>
       <use xlink:href="#DejaVuSans-37" x="354.199219"/>
      </g>
     </g>
    </g>
    <g id="xtick_2">
     <g id="line2d_2">
      <g>
       <use xlink:href="#m2abd127a46" x="1313.551805" y="961.2" style="stroke: #000000; stroke-width: 0.8"/>
      </g>
     </g>
     <g id="text_2">
      <!-- 2013-01 -->
      <g transform="translate(1271.768992 983.396875) scale(0.2 -0.2)">
       <defs>
        <path id="DejaVuSans-33" d="M 2597 2516 
Q 3050 2419 3304 2112 
Q 3559 1806 3559 1356 
Q 3559 666 3084 287 
Q 2609 -91 1734 -91 
Q 1441 -91 1130 -33 
Q 819 25 488 141 
L 488 750 
Q 750 597 1062 519 
Q 1375 441 1716 441 
Q 2309 441 2620 675 
Q 2931 909 2931 1356 
Q 2931 1769 2642 2001 
Q 2353 2234 1838 2234 
L 1294 2234 
L 1294 2753 
L 1863 2753 
Q 2328 2753 2575 2939 
Q 2822 3125 2822 3475 
Q 2822 3834 2567 4026 
Q 2313 4219 1838 4219 
Q 1578 4219 1281 4162 
Q 984 4106 628 3988 
L 628 4550 
Q 988 4650 1302 4700 
Q 1616 4750 1894 4750 
Q 2613 4750 3031 4423 
Q 3450 4097 3450 3541 
Q 3450 3153 3228 2886 
Q 3006 2619 2597 2516 
z
" transform="scale(0.015625)"/>
       </defs>
       <use xlink:href="#DejaVuSans-32"/>
       <use xlink:href="#DejaVuSans-30" x="63.623047"/>
       <use xlink:href="#DejaVuSans-31" x="127.246094"/>
       <use xlink:href="#DejaVuSans-33" x="190.869141"/>
       <use xlink:href="#DejaVuSans-2d" x="254.492188"/>
       <use xlink:href="#DejaVuSans-30" x="290.576172"/>
       <use xlink:href="#DejaVuSans-31" x="354.199219"/>
      </g>
     </g>
    </g>
    <g id="xtick_3">
     <g id="line2d_3">
      <g>
       <use xlink:href="#m2abd127a46" x="1679.241979" y="961.2" style="stroke: #000000; stroke-width: 0.8"/>
      </g>
     </g>
     <g id="text_3">
      <!-- 2013-07 -->
      <g transform="translate(1637.459166 983.396875) scale(0.2 -0.2)">
       <use xlink:href="#DejaVuSans-32"/>
       <use xlink:href="#DejaVuSans-30" x="63.623047"/>
       <use xlink:href="#DejaVuSans-31" x="127.246094"/>
       <use xlink:href="#DejaVuSans-33" x="190.869141"/>
       <use xlink:href="#DejaVuSans-2d" x="254.492188"/>
       <use xlink:href="#DejaVuSans-30" x="290.576172"/>
       <use xlink:href="#DejaVuSans-37" x="354.199219"/>
      </g>
     </g>
    </g>
    <g id="xtick_4">
     <g id="line2d_4">
      <g>
       <use xlink:href="#m2abd127a46" x="2050.993316" y="961.2" style="stroke: #000000; stroke-width: 0.8"/>
      </g>
     </g>
     <g id="text_4">
      <!-- 2014-01 -->
      <g transform="translate(2009.210503 983.396875) scale(0.2 -0.2)">
       <defs>
        <path id="DejaVuSans-34" d="M 2419 4116 
L 825 1625 
L 2419 1625 
L 2419 4116 
z
M 2253 4666 
L 3047 4666 
L 3047 1625 
L 3713 1625 
L 3713 1100 
L 3047 1100 
L 3047 0 
L 2419 0 
L 2419 1100 
L 313 1100 
L 313 1709 
L 2253 4666 
z
" transform="scale(0.015625)"/>
       </defs>
       <use xlink:href="#DejaVuSans-32"/>
       <use xlink:href="#DejaVuSans-30" x="63.623047"/>
       <use xlink:href="#DejaVuSans-31" x="127.246094"/>
       <use xlink:href="#DejaVuSans-34" x="190.869141"/>
       <use xlink:href="#DejaVuSans-2d" x="254.492188"/>
       <use xlink:href="#DejaVuSans-30" x="290.576172"/>
       <use xlink:href="#DejaVuSans-31" x="354.199219"/>
      </g>
     </g>
    </g>
    <g id="xtick_5">
     <g id="line2d_5">
      <g>
       <use xlink:href="#m2abd127a46" x="2416.683489" y="961.2" style="stroke: #000000; stroke-width: 0.8"/>
      </g>
     </g>
     <g id="text_5">
      <!-- 2014-07 -->
      <g transform="translate(2374.900677 983.396875) scale(0.2 -0.2)">
       <use xlink:href="#DejaVuSans-32"/>
       <use xlink:href="#DejaVuSans-30" x="63.623047"/>
       <use xlink:href="#DejaVuSans-31" x="127.246094"/>
       <use xlink:href="#DejaVuSans-34" x="190.869141"/>
       <use xlink:href="#DejaVuSans-2d" x="254.492188"/>
       <use xlink:href="#DejaVuSans-30" x="290.576172"/>
       <use xlink:href="#DejaVuSans-37" x="354.199219"/>
      </g>
     </g>
    </g>
    <g id="xtick_6">
     <g id="line2d_6">
      <g>
       <use xlink:href="#m2abd127a46" x="2788.434826" y="961.2" style="stroke: #000000; stroke-width: 0.8"/>
      </g>
     </g>
     <g id="text_6">
      <!-- 2015-01 -->
      <g transform="translate(2746.652014 983.396875) scale(0.2 -0.2)">
       <defs>
        <path id="DejaVuSans-35" d="M 691 4666 
L 3169 4666 
L 3169 4134 
L 1269 4134 
L 1269 2991 
Q 1406 3038 1543 3061 
Q 1681 3084 1819 3084 
Q 2600 3084 3056 2656 
Q 3513 2228 3513 1497 
Q 3513 744 3044 326 
Q 2575 -91 1722 -91 
Q 1428 -91 1123 -41 
Q 819 9 494 109 
L 494 744 
Q 775 591 1075 516 
Q 1375 441 1709 441 
Q 2250 441 2565 725 
Q 2881 1009 2881 1497 
Q 2881 1984 2565 2268 
Q 2250 2553 1709 2553 
Q 1456 2553 1204 2497 
Q 953 2441 691 2322 
L 691 4666 
z
" transform="scale(0.015625)"/>
       </defs>
       <use xlink:href="#DejaVuSans-32"/>
       <use xlink:href="#DejaVuSans-30" x="63.623047"/>
       <use xlink:href="#DejaVuSans-31" x="127.246094"/>
       <use xlink:href="#DejaVuSans-35" x="190.869141"/>
       <use xlink:href="#DejaVuSans-2d" x="254.492188"/>
       <use xlink:href="#DejaVuSans-30" x="290.576172"/>
       <use xlink:href="#DejaVuSans-31" x="354.199219"/>
      </g>
     </g>
    </g>
    <g id="xtick_7">
     <g id="line2d_7">
      <g>
       <use xlink:href="#m2abd127a46" x="3154.125" y="961.2" style="stroke: #000000; stroke-width: 0.8"/>
      </g>
     </g>
     <g id="text_7">
      <!-- 2015-07 -->
      <g transform="translate(3112.342188 983.396875) scale(0.2 -0.2)">
       <use xlink:href="#DejaVuSans-32"/>
       <use xlink:href="#DejaVuSans-30" x="63.623047"/>
       <use xlink:href="#DejaVuSans-31" x="127.246094"/>
       <use xlink:href="#DejaVuSans-35" x="190.869141"/>
       <use xlink:href="#DejaVuSans-2d" x="254.492188"/>
       <use xlink:href="#DejaVuSans-30" x="290.576172"/>
       <use xlink:href="#DejaVuSans-37" x="354.199219"/>
      </g>
     </g>
    </g>
    <g id="xtick_8">
     <g id="line2d_8">
      <g>
       <use xlink:href="#m2abd127a46" x="3525.876337" y="961.2" style="stroke: #000000; stroke-width: 0.8"/>
      </g>
     </g>
     <g id="text_8">
      <!-- 2016-01 -->
      <g transform="translate(3484.093524 983.396875) scale(0.2 -0.2)">
       <defs>
        <path id="DejaVuSans-36" d="M 2113 2584 
Q 1688 2584 1439 2293 
Q 1191 2003 1191 1497 
Q 1191 994 1439 701 
Q 1688 409 2113 409 
Q 2538 409 2786 701 
Q 3034 994 3034 1497 
Q 3034 2003 2786 2293 
Q 2538 2584 2113 2584 
z
M 3366 4563 
L 3366 3988 
Q 3128 4100 2886 4159 
Q 2644 4219 2406 4219 
Q 1781 4219 1451 3797 
Q 1122 3375 1075 2522 
Q 1259 2794 1537 2939 
Q 1816 3084 2150 3084 
Q 2853 3084 3261 2657 
Q 3669 2231 3669 1497 
Q 3669 778 3244 343 
Q 2819 -91 2113 -91 
Q 1303 -91 875 529 
Q 447 1150 447 2328 
Q 447 3434 972 4092 
Q 1497 4750 2381 4750 
Q 2619 4750 2861 4703 
Q 3103 4656 3366 4563 
z
" transform="scale(0.015625)"/>
       </defs>
       <use xlink:href="#DejaVuSans-32"/>
       <use xlink:href="#DejaVuSans-30" x="63.623047"/>
       <use xlink:href="#DejaVuSans-31" x="127.246094"/>
       <use xlink:href="#DejaVuSans-36" x="190.869141"/>
       <use xlink:href="#DejaVuSans-2d" x="254.492188"/>
       <use xlink:href="#DejaVuSans-30" x="290.576172"/>
       <use xlink:href="#DejaVuSans-31" x="354.199219"/>
      </g>
     </g>
    </g>
    <g id="xtick_9">
     <g id="line2d_9">
      <g>
       <use xlink:href="#m2abd127a46" x="3893.586898" y="961.2" style="stroke: #000000; stroke-width: 0.8"/>
      </g>
     </g>
     <g id="text_9">
      <!-- 2016-07 -->
      <g transform="translate(3851.804086 983.396875) scale(0.2 -0.2)">
       <use xlink:href="#DejaVuSans-32"/>
       <use xlink:href="#DejaVuSans-30" x="63.623047"/>
       <use xlink:href="#DejaVuSans-31" x="127.246094"/>
       <use xlink:href="#DejaVuSans-36" x="190.869141"/>
       <use xlink:href="#DejaVuSans-2d" x="254.492188"/>
       <use xlink:href="#DejaVuSans-30" x="290.576172"/>
       <use xlink:href="#DejaVuSans-37" x="354.199219"/>
      </g>
     </g>
    </g>
    <g id="text_10">
     <!-- Time -->
     <g transform="translate(2374.032813 1006.753125) scale(0.2 -0.2)">
      <defs>
       <path id="DejaVuSans-54" d="M -19 4666 
L 3928 4666 
L 3928 4134 
L 2272 4134 
L 2272 0 
L 1638 0 
L 1638 4134 
L -19 4134 
L -19 4666 
z
" transform="scale(0.015625)"/>
       <path id="DejaVuSans-69" d="M 603 3500 
L 1178 3500 
L 1178 0 
L 603 0 
L 603 3500 
z
M 603 4863 
L 1178 4863 
L 1178 4134 
L 603 4134 
L 603 4863 
z
" transform="scale(0.015625)"/>
       <path id="DejaVuSans-6d" d="M 3328 2828 
Q 3544 3216 3844 3400 
Q 4144 3584 4550 3584 
Q 5097 3584 5394 3201 
Q 5691 2819 5691 2113 
L 5691 0 
L 5113 0 
L 5113 2094 
Q 5113 2597 4934 2840 
Q 4756 3084 4391 3084 
Q 3944 3084 3684 2787 
Q 3425 2491 3425 1978 
L 3425 0 
L 2847 0 
L 2847 2094 
Q 2847 2600 2669 2842 
Q 2491 3084 2119 3084 
Q 1678 3084 1418 2786 
Q 1159 2488 1159 1978 
L 1159 0 
L 581 0 
L 581 3500 
L 1159 3500 
L 1159 2956 
Q 1356 3278 1631 3431 
Q 1906 3584 2284 3584 
Q 2666 3584 2933 3390 
Q 3200 3197 3328 2828 
z
" transform="scale(0.015625)"/>
       <path id="DejaVuSans-65" d="M 3597 1894 
L 3597 1613 
L 953 1613 
Q 991 1019 1311 708 
Q 1631 397 2203 397 
Q 2534 397 2845 478 
Q 3156 559 3463 722 
L 3463 178 
Q 3153 47 2828 -22 
Q 2503 -91 2169 -91 
Q 1331 -91 842 396 
Q 353 884 353 1716 
Q 353 2575 817 3079 
Q 1281 3584 2069 3584 
Q 2775 3584 3186 3129 
Q 3597 2675 3597 1894 
z
M 3022 2063 
Q 3016 2534 2758 2815 
Q 2500 3097 2075 3097 
Q 1594 3097 1305 2825 
Q 1016 2553 972 2059 
L 3022 2063 
z
" transform="scale(0.015625)"/>
      </defs>
      <use xlink:href="#DejaVuSans-54"/>
      <use xlink:href="#DejaVuSans-69" x="57.958984"/>
      <use xlink:href="#DejaVuSans-6d" x="85.742188"/>
      <use xlink:href="#DejaVuSans-65" x="183.154297"/>
     </g>
    </g>
   </g>
   <g id="matplotlib.axis_2">
    <g id="ytick_1">
     <g id="line2d_10">
      <defs>
       <path id="m1a4d034fda" d="M 0 0 
L -3.5 0 
" style="stroke: #000000; stroke-width: 0.8"/>
      </defs>
      <g>
       <use xlink:href="#m1a4d034fda" x="585" y="960.344024" style="stroke: #000000; stroke-width: 0.8"/>
      </g>
     </g>
     <g id="text_11">
      <!-- −0.008 -->
      <g transform="translate(503.984375 967.942461) scale(0.2 -0.2)">
       <defs>
        <path id="DejaVuSans-2212" d="M 678 2272 
L 4684 2272 
L 4684 1741 
L 678 1741 
L 678 2272 
z
" transform="scale(0.015625)"/>
        <path id="DejaVuSans-2e" d="M 684 794 
L 1344 794 
L 1344 0 
L 684 0 
L 684 794 
z
" transform="scale(0.015625)"/>
        <path id="DejaVuSans-38" d="M 2034 2216 
Q 1584 2216 1326 1975 
Q 1069 1734 1069 1313 
Q 1069 891 1326 650 
Q 1584 409 2034 409 
Q 2484 409 2743 651 
Q 3003 894 3003 1313 
Q 3003 1734 2745 1975 
Q 2488 2216 2034 2216 
z
M 1403 2484 
Q 997 2584 770 2862 
Q 544 3141 544 3541 
Q 544 4100 942 4425 
Q 1341 4750 2034 4750 
Q 2731 4750 3128 4425 
Q 3525 4100 3525 3541 
Q 3525 3141 3298 2862 
Q 3072 2584 2669 2484 
Q 3125 2378 3379 2068 
Q 3634 1759 3634 1313 
Q 3634 634 3220 271 
Q 2806 -91 2034 -91 
Q 1263 -91 848 271 
Q 434 634 434 1313 
Q 434 1759 690 2068 
Q 947 2378 1403 2484 
z
M 1172 3481 
Q 1172 3119 1398 2916 
Q 1625 2713 2034 2713 
Q 2441 2713 2670 2916 
Q 2900 3119 2900 3481 
Q 2900 3844 2670 4047 
Q 2441 4250 2034 4250 
Q 1625 4250 1398 4047 
Q 1172 3844 1172 3481 
z
" transform="scale(0.015625)"/>
       </defs>
       <use xlink:href="#DejaVuSans-2212"/>
       <use xlink:href="#DejaVuSans-30" x="83.789062"/>
       <use xlink:href="#DejaVuSans-2e" x="147.412109"/>
       <use xlink:href="#DejaVuSans-30" x="179.199219"/>
       <use xlink:href="#DejaVuSans-30" x="242.822266"/>
       <use xlink:href="#DejaVuSans-38" x="306.445312"/>
      </g>
     </g>
    </g>
    <g id="ytick_2">
     <g id="line2d_11">
      <g>
       <use xlink:href="#m1a4d034fda" x="585" y="855.065852" style="stroke: #000000; stroke-width: 0.8"/>
      </g>
     </g>
     <g id="text_12">
      <!-- −0.006 -->
      <g transform="translate(503.984375 862.664289) scale(0.2 -0.2)">
       <use xlink:href="#DejaVuSans-2212"/>
       <use xlink:href="#DejaVuSans-30" x="83.789062"/>
       <use xlink:href="#DejaVuSans-2e" x="147.412109"/>
       <use xlink:href="#DejaVuSans-30" x="179.199219"/>
       <use xlink:href="#DejaVuSans-30" x="242.822266"/>
       <use xlink:href="#DejaVuSans-36" x="306.445312"/>
      </g>
     </g>
    </g>
    <g id="ytick_3">
     <g id="line2d_12">
      <g>
       <use xlink:href="#m1a4d034fda" x="585" y="749.78768" style="stroke: #000000; stroke-width: 0.8"/>
      </g>
     </g>
     <g id="text_13">
      <!-- −0.004 -->
      <g transform="translate(503.984375 757.386118) scale(0.2 -0.2)">
       <use xlink:href="#DejaVuSans-2212"/>
       <use xlink:href="#DejaVuSans-30" x="83.789062"/>
       <use xlink:href="#DejaVuSans-2e" x="147.412109"/>
       <use xlink:href="#DejaVuSans-30" x="179.199219"/>
       <use xlink:href="#DejaVuSans-30" x="242.822266"/>
       <use xlink:href="#DejaVuSans-34" x="306.445312"/>
      </g>
     </g>
    </g>
    <g id="ytick_4">
     <g id="line2d_13">
      <g>
       <use xlink:href="#m1a4d034fda" x="585" y="644.509509" style="stroke: #000000; stroke-width: 0.8"/>
      </g>
     </g>
     <g id="text_14">
      <!-- −0.002 -->
      <g transform="translate(503.984375 652.107946) scale(0.2 -0.2)">
       <use xlink:href="#DejaVuSans-2212"/>
       <use xlink:href="#DejaVuSans-30" x="83.789062"/>
       <use xlink:href="#DejaVuSans-2e" x="147.412109"/>
       <use xlink:href="#DejaVuSans-30" x="179.199219"/>
       <use xlink:href="#DejaVuSans-30" x="242.822266"/>
       <use xlink:href="#DejaVuSans-32" x="306.445312"/>
      </g>
     </g>
    </g>
    <g id="ytick_5">
     <g id="line2d_14">
      <g>
       <use xlink:href="#m1a4d034fda" x="585" y="539.231337" style="stroke: #000000; stroke-width: 0.8"/>
      </g>
     </g>
     <g id="text_15">
      <!-- 0.000 -->
      <g transform="translate(520.74375 546.829775) scale(0.2 -0.2)">
       <use xlink:href="#DejaVuSans-30"/>
       <use xlink:href="#DejaVuSans-2e" x="63.623047"/>
       <use xlink:href="#DejaVuSans-30" x="95.410156"/>
       <use xlink:href="#DejaVuSans-30" x="159.033203"/>
       <use xlink:href="#DejaVuSans-30" x="222.65625"/>
      </g>
     </g>
    </g>
    <g id="ytick_6">
     <g id="line2d_15">
      <g>
       <use xlink:href="#m1a4d034fda" x="585" y="433.953166" style="stroke: #000000; stroke-width: 0.8"/>
      </g>
     </g>
     <g id="text_16">
      <!-- 0.002 -->
      <g transform="translate(520.74375 441.551603) scale(0.2 -0.2)">
       <use xlink:href="#DejaVuSans-30"/>
       <use xlink:href="#DejaVuSans-2e" x="63.623047"/>
       <use xlink:href="#DejaVuSans-30" x="95.410156"/>
       <use xlink:href="#DejaVuSans-30" x="159.033203"/>
       <use xlink:href="#DejaVuSans-32" x="222.65625"/>
      </g>
     </g>
    </g>
    <g id="ytick_7">
     <g id="line2d_16">
      <g>
       <use xlink:href="#m1a4d034fda" x="585" y="328.674994" style="stroke: #000000; stroke-width: 0.8"/>
      </g>
     </g>
     <g id="text_17">
      <!-- 0.004 -->
      <g transform="translate(520.74375 336.273432) scale(0.2 -0.2)">
       <use xlink:href="#DejaVuSans-30"/>
       <use xlink:href="#DejaVuSans-2e" x="63.623047"/>
       <use xlink:href="#DejaVuSans-30" x="95.410156"/>
       <use xlink:href="#DejaVuSans-30" x="159.033203"/>
       <use xlink:href="#DejaVuSans-34" x="222.65625"/>
      </g>
     </g>
    </g>
    <g id="ytick_8">
     <g id="line2d_17">
      <g>
       <use xlink:href="#m1a4d034fda" x="585" y="223.396823" style="stroke: #000000; stroke-width: 0.8"/>
      </g>
     </g>
     <g id="text_18">
      <!-- 0.006 -->
      <g transform="translate(520.74375 230.99526) scale(0.2 -0.2)">
       <use xlink:href="#DejaVuSans-30"/>
       <use xlink:href="#DejaVuSans-2e" x="63.623047"/>
       <use xlink:href="#DejaVuSans-30" x="95.410156"/>
       <use xlink:href="#DejaVuSans-30" x="159.033203"/>
       <use xlink:href="#DejaVuSans-36" x="222.65625"/>
      </g>
     </g>
    </g>
    <g id="text_19">
     <!-- East(m) -->
     <g transform="translate(495.825 584.520313) rotate(-90) scale(0.2 -0.2)">
      <defs>
       <path id="DejaVuSans-45" d="M 628 4666 
L 3578 4666 
L 3578 4134 
L 1259 4134 
L 1259 2753 
L 3481 2753 
L 3481 2222 
L 1259 2222 
L 1259 531 
L 3634 531 
L 3634 0 
L 628 0 
L 628 4666 
z
" transform="scale(0.015625)"/>
       <path id="DejaVuSans-61" d="M 2194 1759 
Q 1497 1759 1228 1600 
Q 959 1441 959 1056 
Q 959 750 1161 570 
Q 1363 391 1709 391 
Q 2188 391 2477 730 
Q 2766 1069 2766 1631 
L 2766 1759 
L 2194 1759 
z
M 3341 1997 
L 3341 0 
L 2766 0 
L 2766 531 
Q 2569 213 2275 61 
Q 1981 -91 1556 -91 
Q 1019 -91 701 211 
Q 384 513 384 1019 
Q 384 1609 779 1909 
Q 1175 2209 1959 2209 
L 2766 2209 
L 2766 2266 
Q 2766 2663 2505 2880 
Q 2244 3097 1772 3097 
Q 1472 3097 1187 3025 
Q 903 2953 641 2809 
L 641 3341 
Q 956 3463 1253 3523 
Q 1550 3584 1831 3584 
Q 2591 3584 2966 3190 
Q 3341 2797 3341 1997 
z
" transform="scale(0.015625)"/>
       <path id="DejaVuSans-73" d="M 2834 3397 
L 2834 2853 
Q 2591 2978 2328 3040 
Q 2066 3103 1784 3103 
Q 1356 3103 1142 2972 
Q 928 2841 928 2578 
Q 928 2378 1081 2264 
Q 1234 2150 1697 2047 
L 1894 2003 
Q 2506 1872 2764 1633 
Q 3022 1394 3022 966 
Q 3022 478 2636 193 
Q 2250 -91 1575 -91 
Q 1294 -91 989 -36 
Q 684 19 347 128 
L 347 722 
Q 666 556 975 473 
Q 1284 391 1588 391 
Q 1994 391 2212 530 
Q 2431 669 2431 922 
Q 2431 1156 2273 1281 
Q 2116 1406 1581 1522 
L 1381 1569 
Q 847 1681 609 1914 
Q 372 2147 372 2553 
Q 372 3047 722 3315 
Q 1072 3584 1716 3584 
Q 2034 3584 2315 3537 
Q 2597 3491 2834 3397 
z
" transform="scale(0.015625)"/>
       <path id="DejaVuSans-74" d="M 1172 4494 
L 1172 3500 
L 2356 3500 
L 2356 3053 
L 1172 3053 
L 1172 1153 
Q 1172 725 1289 603 
Q 1406 481 1766 481 
L 2356 481 
L 2356 0 
L 1766 0 
Q 1100 0 847 248 
Q 594 497 594 1153 
L 594 3053 
L 172 3053 
L 172 3500 
L 594 3500 
L 594 4494 
L 1172 4494 
z
" transform="scale(0.015625)"/>
       <path id="DejaVuSans-28" d="M 1984 4856 
Q 1566 4138 1362 3434 
Q 1159 2731 1159 2009 
Q 1159 1288 1364 580 
Q 1569 -128 1984 -844 
L 1484 -844 
Q 1016 -109 783 600 
Q 550 1309 550 2009 
Q 550 2706 781 3412 
Q 1013 4119 1484 4856 
L 1984 4856 
z
" transform="scale(0.015625)"/>
       <path id="DejaVuSans-29" d="M 513 4856 
L 1013 4856 
Q 1481 4119 1714 3412 
Q 1947 2706 1947 2009 
Q 1947 1309 1714 600 
Q 1481 -109 1013 -844 
L 513 -844 
Q 928 -128 1133 580 
Q 1338 1288 1338 2009 
Q 1338 2731 1133 3434 
Q 928 4138 513 4856 
z
" transform="scale(0.015625)"/>
      </defs>
      <use xlink:href="#DejaVuSans-45"/>
      <use xlink:href="#DejaVuSans-61" x="63.183594"/>
      <use xlink:href="#DejaVuSans-73" x="124.462891"/>
      <use xlink:href="#DejaVuSans-74" x="176.5625"/>
      <use xlink:href="#DejaVuSans-28" x="215.771484"/>
      <use xlink:href="#DejaVuSans-6d" x="254.785156"/>
      <use xlink:href="#DejaVuSans-29" x="352.197266"/>
     </g>
    </g>
   </g>
   <g id="line2d_18">
    <path d="M 749.863636 625.702345 
L 753.904412 658.0007 
L 755.924799 655.244765 
L 761.985963 627.898783 
L 764.00635 610.560872 
L 766.026738 597.643872 
L 768.047126 589.725455 
L 770.067513 597.552186 
L 772.087901 603.233559 
L 774.108289 602.162976 
L 776.128676 612.138238 
L 790.27139 604.103562 
L 794.312166 598.54575 
L 796.332553 597.019129 
L 798.352941 597.55787 
L 800.373329 600.738235 
L 802.393717 611.488903 
L 806.434492 634.554315 
L 808.45488 637.587165 
L 810.475267 638.897344 
L 812.495655 629.980613 
L 824.617981 610.380772 
L 830.679144 655.178172 
L 834.71992 659.653971 
L 836.740307 654.528566 
L 844.821858 666.530412 
L 850.883021 684.973067 
L 852.903409 677.904803 
L 854.923797 673.612564 
L 856.944184 660.078468 
L 860.98496 638.440548 
L 863.005348 630.516056 
L 865.025735 632.31845 
L 867.046123 645.966636 
L 869.066511 653.763591 
L 873.107286 663.031155 
L 875.127674 671.637702 
L 877.148061 672.98535 
L 879.168449 668.112633 
L 885.229612 668.966953 
L 889.270388 681.312628 
L 891.290775 683.644283 
L 893.311163 680.083546 
L 895.331551 685.373556 
L 897.351939 675.928891 
L 899.372326 682.543663 
L 901.392714 682.472577 
L 903.413102 661.788457 
L 905.433489 653.880689 
L 907.453877 652.101096 
L 909.474265 636.716215 
L 913.51504 637.689313 
L 915.535428 634.375087 
L 917.555816 649.940254 
L 921.596591 661.704729 
L 933.718917 648.609689 
L 937.759693 664.45604 
L 1044.840241 681.080384 
L 1046.860628 683.647074 
L 1048.881016 670.764566 
L 1212.53242 643.141042 
L 1214.552807 653.953745 
L 1216.573195 652.149713 
L 1226.675134 663.4277 
L 1230.715909 662.247404 
L 1232.736297 654.406669 
L 1234.756684 661.332681 
L 1236.777072 668.85615 
L 1238.79746 684.95643 
L 1240.817848 685.55759 
L 1242.838235 693.522589 
L 1333.755682 684.451424 
L 1335.77607 675.964911 
L 1337.796457 672.490905 
L 1341.837233 640.666988 
L 1372.143048 604.14981 
L 1374.163436 627.919864 
L 1376.183824 661.040828 
L 1378.204211 683.39038 
L 1382.244987 690.54956 
L 1384.265374 683.203889 
L 1386.285762 683.849434 
L 1388.30615 663.673629 
L 1390.326537 646.5638 
L 1392.346925 624.498905 
L 1394.367313 605.850764 
L 1402.448864 619.859349 
L 1404.469251 622.32038 
L 1406.489639 640.325809 
L 1412.550802 670.524464 
L 1414.57119 682.01752 
L 1416.591578 673.638373 
L 1418.611965 671.34248 
L 1420.632353 663.665037 
L 1424.673128 653.794625 
L 1426.693516 645.888397 
L 1428.713904 647.422674 
L 1432.754679 647.86978 
L 1434.775067 648.379885 
L 1436.795455 644.630559 
L 1444.877005 618.493385 
L 1446.897393 614.786901 
L 1454.978944 626.316394 
L 1456.999332 671.10802 
L 1459.019719 674.131632 
L 1461.040107 671.762808 
L 1463.060495 662.590929 
L 1465.080882 664.069516 
L 1471.142045 663.095519 
L 1473.162433 649.280587 
L 1475.182821 654.415826 
L 1479.223596 662.638215 
L 1481.243984 673.737722 
L 1483.264372 683.246161 
L 1485.284759 677.512689 
L 1487.305147 691.894383 
L 1489.325535 714.156006 
L 1491.345922 702.301152 
L 1493.36631 714.080275 
L 1495.386698 704.859724 
L 1497.407086 683.236276 
L 1501.447861 669.268921 
L 1669.14004 796.096542 
L 1673.180816 810.99251 
L 1677.221591 809.806362 
L 1681.262366 816.985359 
L 1683.282754 811.800359 
L 1689.343917 792.644214 
L 1691.364305 801.402688 
L 1693.384693 803.839383 
L 1697.425468 803.886318 
L 1699.445856 792.664071 
L 1701.466243 801.00369 
L 1703.486631 804.748864 
L 1707.527406 783.970306 
L 1719.649733 819.447106 
L 1723.690508 800.18297 
L 1725.710896 776.375834 
L 1727.731283 774.761718 
L 1729.751671 757.083517 
L 1731.772059 753.844509 
L 1735.812834 799.368261 
L 1737.833222 810.135824 
L 1739.85361 827.428238 
L 1741.873997 831.05086 
L 1743.894385 834.913139 
L 1749.955548 866.66008 
L 1751.975936 861.411872 
L 1753.996324 852.105101 
L 1756.016711 857.414834 
L 1758.037099 854.470938 
L 1766.11865 811.748509 
L 1768.139037 823.52191 
L 1780.261364 822.224358 
L 1782.281751 804.643786 
L 1784.302139 811.919039 
L 1786.322527 830.456795 
L 1788.342914 831.779591 
L 1790.363302 850.28755 
L 1792.38369 838.763865 
L 1794.404078 842.19035 
L 1796.424465 835.794641 
L 1806.526404 835.343642 
L 1808.546791 828.805317 
L 1810.567179 836.628472 
L 1812.587567 833.119128 
L 1814.607955 825.810893 
L 1816.628342 834.418485 
L 1818.64873 840.887826 
L 1822.689505 853.060917 
L 1824.709893 871.650568 
L 1826.730281 871.203076 
L 1828.750668 859.133356 
L 1830.771056 855.703315 
L 1832.791444 856.046922 
L 1834.811832 849.788263 
L 1836.832219 849.376738 
L 1838.852607 852.006859 
L 1954.014706 837.375587 
L 1958.055481 854.898195 
L 1960.075869 856.896262 
L 1962.096257 849.048364 
L 1966.137032 864.571448 
L 1968.15742 858.10301 
L 1970.177807 847.287792 
L 1980.279746 874.277024 
L 1988.361297 923.4 
L 1990.381684 865.317274 
L 1992.402072 847.092721 
L 1994.42246 827.206924 
L 1996.442848 804.872363 
L 2000.483623 814.507605 
L 2073.21758 887.9426 
L 2075.237968 866.504739 
L 2079.278743 819.40407 
L 2081.299131 798.918314 
L 2109.584559 756.872297 
L 2438.907754 569.227038 
L 2440.928142 561.392119 
L 2442.948529 536.884936 
L 2444.968917 513.748718 
L 2449.009693 506.033002 
L 2467.193182 498.803985 
L 3178.369652 254.375078 
L 3180.39004 260.360289 
L 3182.410428 248.567493 
L 3184.430816 229.805774 
L 3186.451203 226.31578 
L 3188.471591 239.31672 
L 3194.532754 252.599475 
L 3206.65508 285.246135 
L 3210.695856 301.55844 
L 3212.716243 284.871692 
L 3214.736631 276.822278 
L 3216.757019 269.23576 
L 3220.797794 232.995003 
L 3228.879345 233.81115 
L 3230.899733 243.655193 
L 3253.123997 209.758039 
L 3257.164773 235.583918 
L 3259.18516 256.663257 
L 3261.205548 257.270237 
L 3265.246324 257.504763 
L 3267.266711 259.956903 
L 3269.287099 252.777687 
L 3277.36865 207.66753 
L 3285.450201 232.901045 
L 3287.470588 260.736312 
L 3289.490976 260.055355 
L 3291.511364 257.224231 
L 3293.531751 244.480799 
L 3295.552139 236.189299 
L 3297.572527 228.455627 
L 3299.592914 213.869161 
L 3301.613302 209.845811 
L 3303.63369 216.928256 
L 3309.694853 245.174152 
L 3315.756016 260.775357 
L 3317.776404 264.19871 
L 3319.796791 259.544272 
L 3321.817179 246.712366 
L 3323.837567 207.756807 
L 3325.857955 212.84578 
L 3327.878342 199.8456 
L 3329.89873 202.563509 
L 3331.919118 194.073284 
L 3340.000668 202.799945 
L 3342.021056 197.581606 
L 3344.041444 202.638802 
L 3346.061832 210.93135 
L 3348.082219 227.478196 
L 3350.102607 246.405563 
L 3352.122995 269.578772 
L 3354.143382 279.874629 
L 3356.16377 289.35981 
L 3358.184158 275.269523 
L 3360.204545 262.112943 
L 3362.224933 242.39016 
L 3364.245321 236.375307 
L 3366.265709 221.108979 
L 3368.286096 220.472207 
L 3370.306484 258.557067 
L 3372.326872 288.847974 
L 3374.347259 308.184523 
L 3376.367647 326.011557 
L 3400.612299 250.056706 
L 3402.632687 255.781566 
L 3404.653075 253.04776 
L 3406.673463 257.927614 
L 3410.714238 248.868151 
L 3412.734626 256.620091 
L 3414.755013 258.432014 
L 3416.775401 257.114088 
L 3418.795789 258.454237 
L 3420.816176 257.195 
L 3422.836564 243.58005 
L 3424.856952 253.397802 
L 3426.87734 259.176026 
L 3428.897727 256.334373 
L 3430.918115 254.506232 
L 3432.938503 257.310088 
L 3434.95889 248.003356 
L 3436.979278 236.166236 
L 3438.999666 201.280057 
L 3441.020053 189.640868 
L 3443.040441 193.542853 
L 3445.060829 185.421353 
L 3447.081217 174.521984 
L 3449.101604 167.4 
L 3451.121992 190.800771 
L 3453.14238 224.872513 
L 3455.162767 234.439356 
L 3457.183155 229.271984 
L 3459.203543 235.772693 
L 3461.22393 250.858569 
L 3463.244318 246.168395 
L 3465.264706 252.252758 
L 3467.285094 257.469363 
L 3469.305481 245.459344 
L 3471.325869 242.429444 
L 3473.346257 240.139548 
L 3475.366644 223.54835 
L 3477.387032 223.110487 
L 3479.40742 212.382705 
L 3481.427807 205.601516 
L 3483.448195 229.175979 
L 3485.468583 236.584791 
L 3487.488971 233.24893 
L 3489.509358 230.659603 
L 3493.550134 236.275485 
L 3497.590909 223.892148 
L 3499.611297 223.471993 
L 3501.631684 228.714003 
L 3505.67246 254.044537 
L 3507.692848 253.578978 
L 3509.713235 251.965465 
L 3511.733623 242.577412 
L 3513.754011 242.61656 
L 3515.774398 241.139861 
L 3517.794786 237.964859 
L 3519.815174 242.784705 
L 3521.835561 240.223961 
L 3523.855949 242.105945 
L 3527.896725 237.18264 
L 3529.917112 228.876464 
L 3531.9375 238.8362 
L 3533.957888 242.245621 
L 3535.978275 251.615584 
L 3537.998663 266.439306 
L 3540.019051 265.958828 
L 3542.039439 277.196852 
L 3544.059826 291.166659 
L 3548.100602 346.85391 
L 3550.120989 356.589705 
L 3552.141377 361.728994 
L 3554.161765 388.656285 
L 3556.182152 400.682813 
L 3558.20254 393.697042 
L 3560.222928 357.365215 
L 3562.243316 312.833139 
L 3564.263703 295.242607 
L 3566.284091 273.979834 
L 3568.304479 242.781334 
L 3570.324866 235.754635 
L 3572.345254 232.613014 
L 3582.447193 276.945003 
L 3584.46758 272.131765 
L 3586.487968 287.707588 
L 3590.528743 280.778956 
L 3592.549131 291.881215 
L 3594.569519 292.876842 
L 3596.589906 285.820338 
L 3598.610294 286.245992 
L 3600.630682 260.111184 
L 3602.65107 254.905013 
L 3604.671457 252.251159 
L 3647.099599 302.267684 
L 3649.119987 305.512442 
L 3653.160762 324.527028 
L 3659.221925 324.736654 
L 3661.242313 299.63329 
L 3663.262701 280.400046 
L 3665.283088 273.605356 
L 3667.303476 272.666365 
L 3669.323864 279.451134 
L 3671.344251 293.482928 
L 3673.364639 296.458179 
L 3675.385027 303.672698 
L 3677.405414 332.41241 
L 3679.425802 349.1289 
L 3681.44619 349.375043 
L 3683.466578 357.613875 
L 3685.486965 353.885317 
L 3687.507353 356.965211 
L 3689.527741 355.51076 
L 3691.548128 341.196135 
L 3693.568516 320.508004 
L 3695.588904 314.112857 
L 3697.609291 295.164584 
L 3703.670455 322.638359 
L 3705.690842 333.116063 
L 3707.71123 334.880386 
L 3711.752005 357.578976 
L 3713.772393 358.480139 
L 3715.792781 353.214055 
L 3717.813168 365.522994 
L 3719.833556 358.24943 
L 3721.853944 359.322517 
L 3723.874332 342.495319 
L 3725.894719 342.529862 
L 3727.915107 346.047475 
L 3729.935495 337.392083 
L 3733.97627 330.178159 
L 3735.996658 336.070992 
L 3738.017045 346.722278 
L 3740.037433 350.862001 
L 3744.078209 360.204682 
L 3746.098596 357.213379 
L 3748.118984 354.944522 
L 3750.139372 351.499967 
L 3752.159759 345.129254 
L 3756.200535 360.118291 
L 3758.220922 354.634261 
L 3760.24131 342.748348 
L 3762.261698 342.217991 
L 3764.282086 335.95233 
L 3766.302473 331.314947 
L 3768.322861 307.031868 
L 3772.363636 265.774482 
L 3774.384024 274.035625 
L 3776.404412 289.97548 
L 3778.424799 301.957619 
L 3780.445187 301.670243 
L 3786.50635 325.564394 
L 3788.526738 339.382288 
L 3790.547126 332.387703 
L 3792.567513 334.026836 
L 3794.587901 358.587321 
L 3796.608289 365.14043 
L 3798.628676 384.08146 
L 3952.178142 429.830338 
L 3954.198529 419.883893 
L 3956.218917 414.725548 
L 3958.239305 409.091811 
L 3960.259693 409.204555 
L 3970.361631 412.713912 
L 3972.382019 428.96779 
L 3978.443182 451.475603 
L 3980.46357 429.243428 
L 3982.483957 423.548595 
L 3984.504345 413.219259 
L 3986.524733 400.413625 
L 3988.54512 404.276803 
L 3990.565508 401.763385 
L 3996.626671 446.573945 
L 4002.687834 440.363576 
L 4004.708222 450.765612 
L 4006.72861 443.433447 
L 4008.748997 455.563488 
L 4010.769385 431.798217 
L 4014.81016 452.340693 
L 4016.830548 450.593096 
L 4018.850936 445.398078 
L 4020.871324 445.223372 
L 4030.973262 430.344868 
L 4032.99365 429.637439 
L 4035.014037 445.161018 
L 4037.034425 451.535592 
L 4039.054813 450.556828 
L 4041.075201 441.161891 
L 4043.095588 441.123188 
L 4045.115976 423.643684 
L 4047.136364 426.20563 
L 4047.136364 426.20563 
" clip-path="url(#pb18989adf2)" style="fill: none; stroke: #8b2be2; stroke-width: 2.5; stroke-linecap: square"/>
   </g>
   <g id="patch_3">
    <path d="M 585 961.2 
L 585 129.6 
" style="fill: none; stroke: #000000; stroke-width: 0.8; stroke-linejoin: miter; stroke-linecap: square"/>
   </g>
   <g id="patch_4">
    <path d="M 4212 961.2 
L 4212 129.6 
" style="fill: none; stroke: #000000; stroke-width: 0.8; stroke-linejoin: miter; stroke-linecap: square"/>
   </g>
   <g id="patch_5">
    <path d="M 585 961.2 
L 4212 961.2 
" style="fill: none; stroke: #000000; stroke-width: 0.8; stroke-linejoin: miter; stroke-linecap: square"/>
   </g>
   <g id="patch_6">
    <path d="M 585 129.6 
L 4212 129.6 
" style="fill: none; stroke: #000000; stroke-width: 0.8; stroke-linejoin: miter; stroke-linecap: square"/>
   </g>
   <g id="text_20">
    <!-- FDOS -->
    <g transform="translate(2356.992188 123.360937) scale(0.3 -0.3)">
     <defs>
      <path id="DejaVuSans-46" d="M 628 4666 
L 3309 4666 
L 3309 4134 
L 1259 4134 
L 1259 2759 
L 3109 2759 
L 3109 2228 
L 1259 2228 
L 1259 0 
L 628 0 
L 628 4666 
z
" transform="scale(0.015625)"/>
      <path id="DejaVuSans-44" d="M 1259 4147 
L 1259 519 
L 2022 519 
Q 2988 519 3436 956 
Q 3884 1394 3884 2338 
Q 3884 3275 3436 3711 
Q 2988 4147 2022 4147 
L 1259 4147 
z
M 628 4666 
L 1925 4666 
Q 3281 4666 3915 4102 
Q 4550 3538 4550 2338 
Q 4550 1131 3912 565 
Q 3275 0 1925 0 
L 628 0 
L 628 4666 
z
" transform="scale(0.015625)"/>
      <path id="DejaVuSans-4f" d="M 2522 4238 
Q 1834 4238 1429 3725 
Q 1025 3213 1025 2328 
Q 1025 1447 1429 934 
Q 1834 422 2522 422 
Q 3209 422 3611 934 
Q 4013 1447 4013 2328 
Q 4013 3213 3611 3725 
Q 3209 4238 2522 4238 
z
M 2522 4750 
Q 3503 4750 4090 4092 
Q 4678 3434 4678 2328 
Q 4678 1225 4090 567 
Q 3503 -91 2522 -91 
Q 1538 -91 948 565 
Q 359 1222 359 2328 
Q 359 3434 948 4092 
Q 1538 4750 2522 4750 
z
" transform="scale(0.015625)"/>
      <path id="DejaVuSans-53" d="M 3425 4513 
L 3425 3897 
Q 3066 4069 2747 4153 
Q 2428 4238 2131 4238 
Q 1616 4238 1336 4038 
Q 1056 3838 1056 3469 
Q 1056 3159 1242 3001 
Q 1428 2844 1947 2747 
L 2328 2669 
Q 3034 2534 3370 2195 
Q 3706 1856 3706 1288 
Q 3706 609 3251 259 
Q 2797 -91 1919 -91 
Q 1588 -91 1214 -16 
Q 841 59 441 206 
L 441 856 
Q 825 641 1194 531 
Q 1563 422 1919 422 
Q 2459 422 2753 634 
Q 3047 847 3047 1241 
Q 3047 1584 2836 1778 
Q 2625 1972 2144 2069 
L 1759 2144 
Q 1053 2284 737 2584 
Q 422 2884 422 3419 
Q 422 4038 858 4394 
Q 1294 4750 2059 4750 
Q 2388 4750 2728 4690 
Q 3069 4631 3425 4513 
z
" transform="scale(0.015625)"/>
     </defs>
     <use xlink:href="#DejaVuSans-46"/>
     <use xlink:href="#DejaVuSans-44" x="57.519531"/>
     <use xlink:href="#DejaVuSans-4f" x="134.521484"/>
     <use xlink:href="#DejaVuSans-53" x="213.232422"/>
    </g>
   </g>
   <g id="legend_1">
    <g id="patch_7">
     <path d="M 4151.803125 152.278125 
L 4205 152.278125 
Q 4207 152.278125 4207 150.278125 
L 4207 136.6 
Q 4207 134.6 4205 134.6 
L 4151.803125 134.6 
Q 4149.803125 134.6 4149.803125 136.6 
L 4149.803125 150.278125 
Q 4149.803125 152.278125 4151.803125 152.278125 
z
" style="fill: #ffffff; opacity: 0.8; stroke: #cccccc; stroke-linejoin: miter"/>
    </g>
    <g id="line2d_19">
     <path d="M 4153.803125 142.698438 
L 4163.803125 142.698438 
L 4173.803125 142.698438 
" style="fill: none; stroke: #8b2be2; stroke-width: 2.5; stroke-linecap: square"/>
    </g>
    <g id="text_21">
     <!-- fdos -->
     <g transform="translate(4181.803125 146.198438) scale(0.1 -0.1)">
      <defs>
       <path id="DejaVuSans-66" d="M 2375 4863 
L 2375 4384 
L 1825 4384 
Q 1516 4384 1395 4259 
Q 1275 4134 1275 3809 
L 1275 3500 
L 2222 3500 
L 2222 3053 
L 1275 3053 
L 1275 0 
L 697 0 
L 697 3053 
L 147 3053 
L 147 3500 
L 697 3500 
L 697 3744 
Q 697 4328 969 4595 
Q 1241 4863 1831 4863 
L 2375 4863 
z
" transform="scale(0.015625)"/>
       <path id="DejaVuSans-64" d="M 2906 2969 
L 2906 4863 
L 3481 4863 
L 3481 0 
L 2906 0 
L 2906 525 
Q 2725 213 2448 61 
Q 2172 -91 1784 -91 
Q 1150 -91 751 415 
Q 353 922 353 1747 
Q 353 2572 751 3078 
Q 1150 3584 1784 3584 
Q 2172 3584 2448 3432 
Q 2725 3281 2906 2969 
z
M 947 1747 
Q 947 1113 1208 752 
Q 1469 391 1925 391 
Q 2381 391 2643 752 
Q 2906 1113 2906 1747 
Q 2906 2381 2643 2742 
Q 2381 3103 1925 3103 
Q 1469 3103 1208 2742 
Q 947 2381 947 1747 
z
" transform="scale(0.015625)"/>
       <path id="DejaVuSans-6f" d="M 1959 3097 
Q 1497 3097 1228 2736 
Q 959 2375 959 1747 
Q 959 1119 1226 758 
Q 1494 397 1959 397 
Q 2419 397 2687 759 
Q 2956 1122 2956 1747 
Q 2956 2369 2687 2733 
Q 2419 3097 1959 3097 
z
M 1959 3584 
Q 2709 3584 3137 3096 
Q 3566 2609 3566 1747 
Q 3566 888 3137 398 
Q 2709 -91 1959 -91 
Q 1206 -91 779 398 
Q 353 888 353 1747 
Q 353 2609 779 3096 
Q 1206 3584 1959 3584 
z
" transform="scale(0.015625)"/>
      </defs>
      <use xlink:href="#DejaVuSans-66"/>
      <use xlink:href="#DejaVuSans-64" x="35.205078"/>
      <use xlink:href="#DejaVuSans-6f" x="98.681641"/>
      <use xlink:href="#DejaVuSans-73" x="159.863281"/>
     </g>
    </g>
   </g>
  </g>
 </g>
 <defs>
  <clipPath id="pb18989adf2">
   <rect x="585" y="129.6" width="3627" height="831.6"/>
  </clipPath>
 </defs>
</svg>
