<?xml version="1.0" encoding="utf-8" standalone="no"?>
<!DOCTYPE svg PUBLIC "-//W3C//DTD SVG 1.1//EN"
  "http://www.w3.org/Graphics/SVG/1.1/DTD/svg11.dtd">
<svg xmlns:xlink="http://www.w3.org/1999/xlink" width="4680pt" height="1080pt" viewBox="0 0 4680 1080" xmlns="http://www.w3.org/2000/svg" version="1.1">
 <metadata>
  <rdf:RDF xmlns:dc="http://purl.org/dc/elements/1.1/" xmlns:cc="http://creativecommons.org/ns#" xmlns:rdf="http://www.w3.org/1999/02/22-rdf-syntax-ns#">
   <cc:Work>
    <dc:type rdf:resource="http://purl.org/dc/dcmitype/StillImage"/>
    <dc:date>2024-03-25T14:09:22.323415</dc:date>
    <dc:format>image/svg+xml</dc:format>
    <dc:creator>
     <cc:Agent>
      <dc:title>Matplotlib v3.7.2, https://matplotlib.org/</dc:title>
     </cc:Agent>
    </dc:creator>
   </cc:Work>
  </rdf:RDF>
 </metadata>
 <defs>
  <style type="text/css">*{stroke-linejoin: round; stroke-linecap: butt}</style>
 </defs>
 <g id="figure_1">
  <g id="patch_1">
   <path d="M 0 1080 
L 4680 1080 
L 4680 0 
L 0 0 
z
" style="fill: #ffffff"/>
  </g>
  <g id="axes_1">
   <g id="patch_2">
    <path d="M 585 961.2 
L 4212 961.2 
L 4212 129.6 
L 585 129.6 
z
" style="fill: #ffffff"/>
   </g>
   <g id="matplotlib.axis_1">
    <g id="xtick_1">
     <g id="line2d_1">
      <defs>
       <path id="m350cbbb677" d="M 0 0 
L 0 3.5 
" style="stroke: #000000; stroke-width: 0.8"/>
      </defs>
      <g>
       <use xlink:href="#m350cbbb677" x="941.800468" y="961.2" style="stroke: #000000; stroke-width: 0.8"/>
      </g>
     </g>
     <g id="text_1">
      <!-- 2012-07 -->
      <g transform="translate(900.017655 983.396875) scale(0.2 -0.2)">
       <defs>
        <path id="DejaVuSans-32" d="M 1228 531 
L 3431 531 
L 3431 0 
L 469 0 
L 469 531 
Q 828 903 1448 1529 
Q 2069 2156 2228 2338 
Q 2531 2678 2651 2914 
Q 2772 3150 2772 3378 
Q 2772 3750 2511 3984 
Q 2250 4219 1831 4219 
Q 1534 4219 1204 4116 
Q 875 4013 500 3803 
L 500 4441 
Q 881 4594 1212 4672 
Q 1544 4750 1819 4750 
Q 2544 4750 2975 4387 
Q 3406 4025 3406 3419 
Q 3406 3131 3298 2873 
Q 3191 2616 2906 2266 
Q 2828 2175 2409 1742 
Q 1991 1309 1228 531 
z
" transform="scale(0.015625)"/>
        <path id="DejaVuSans-30" d="M 2034 4250 
Q 1547 4250 1301 3770 
Q 1056 3291 1056 2328 
Q 1056 1369 1301 889 
Q 1547 409 2034 409 
Q 2525 409 2770 889 
Q 3016 1369 3016 2328 
Q 3016 3291 2770 3770 
Q 2525 4250 2034 4250 
z
M 2034 4750 
Q 2819 4750 3233 4129 
Q 3647 3509 3647 2328 
Q 3647 1150 3233 529 
Q 2819 -91 2034 -91 
Q 1250 -91 836 529 
Q 422 1150 422 2328 
Q 422 3509 836 4129 
Q 1250 4750 2034 4750 
z
" transform="scale(0.015625)"/>
        <path id="DejaVuSans-31" d="M 794 531 
L 1825 531 
L 1825 4091 
L 703 3866 
L 703 4441 
L 1819 4666 
L 2450 4666 
L 2450 531 
L 3481 531 
L 3481 0 
L 794 0 
L 794 531 
z
" transform="scale(0.015625)"/>
        <path id="DejaVuSans-2d" d="M 313 2009 
L 1997 2009 
L 1997 1497 
L 313 1497 
L 313 2009 
z
" transform="scale(0.015625)"/>
        <path id="DejaVuSans-37" d="M 525 4666 
L 3525 4666 
L 3525 4397 
L 1831 0 
L 1172 0 
L 2766 4134 
L 525 4134 
L 525 4666 
z
" transform="scale(0.015625)"/>
       </defs>
       <use xlink:href="#DejaVuSans-32"/>
       <use xlink:href="#DejaVuSans-30" x="63.623047"/>
       <use xlink:href="#DejaVuSans-31" x="127.246094"/>
       <use xlink:href="#DejaVuSans-32" x="190.869141"/>
       <use xlink:href="#DejaVuSans-2d" x="254.492188"/>
       <use xlink:href="#DejaVuSans-30" x="290.576172"/>
       <use xlink:href="#DejaVuSans-37" x="354.199219"/>
      </g>
     </g>
    </g>
    <g id="xtick_2">
     <g id="line2d_2">
      <g>
       <use xlink:href="#m350cbbb677" x="1313.551805" y="961.2" style="stroke: #000000; stroke-width: 0.8"/>
      </g>
     </g>
     <g id="text_2">
      <!-- 2013-01 -->
      <g transform="translate(1271.768992 983.396875) scale(0.2 -0.2)">
       <defs>
        <path id="DejaVuSans-33" d="M 2597 2516 
Q 3050 2419 3304 2112 
Q 3559 1806 3559 1356 
Q 3559 666 3084 287 
Q 2609 -91 1734 -91 
Q 1441 -91 1130 -33 
Q 819 25 488 141 
L 488 750 
Q 750 597 1062 519 
Q 1375 441 1716 441 
Q 2309 441 2620 675 
Q 2931 909 2931 1356 
Q 2931 1769 2642 2001 
Q 2353 2234 1838 2234 
L 1294 2234 
L 1294 2753 
L 1863 2753 
Q 2328 2753 2575 2939 
Q 2822 3125 2822 3475 
Q 2822 3834 2567 4026 
Q 2313 4219 1838 4219 
Q 1578 4219 1281 4162 
Q 984 4106 628 3988 
L 628 4550 
Q 988 4650 1302 4700 
Q 1616 4750 1894 4750 
Q 2613 4750 3031 4423 
Q 3450 4097 3450 3541 
Q 3450 3153 3228 2886 
Q 3006 2619 2597 2516 
z
" transform="scale(0.015625)"/>
       </defs>
       <use xlink:href="#DejaVuSans-32"/>
       <use xlink:href="#DejaVuSans-30" x="63.623047"/>
       <use xlink:href="#DejaVuSans-31" x="127.246094"/>
       <use xlink:href="#DejaVuSans-33" x="190.869141"/>
       <use xlink:href="#DejaVuSans-2d" x="254.492188"/>
       <use xlink:href="#DejaVuSans-30" x="290.576172"/>
       <use xlink:href="#DejaVuSans-31" x="354.199219"/>
      </g>
     </g>
    </g>
    <g id="xtick_3">
     <g id="line2d_3">
      <g>
       <use xlink:href="#m350cbbb677" x="1679.241979" y="961.2" style="stroke: #000000; stroke-width: 0.8"/>
      </g>
     </g>
     <g id="text_3">
      <!-- 2013-07 -->
      <g transform="translate(1637.459166 983.396875) scale(0.2 -0.2)">
       <use xlink:href="#DejaVuSans-32"/>
       <use xlink:href="#DejaVuSans-30" x="63.623047"/>
       <use xlink:href="#DejaVuSans-31" x="127.246094"/>
       <use xlink:href="#DejaVuSans-33" x="190.869141"/>
       <use xlink:href="#DejaVuSans-2d" x="254.492188"/>
       <use xlink:href="#DejaVuSans-30" x="290.576172"/>
       <use xlink:href="#DejaVuSans-37" x="354.199219"/>
      </g>
     </g>
    </g>
    <g id="xtick_4">
     <g id="line2d_4">
      <g>
       <use xlink:href="#m350cbbb677" x="2050.993316" y="961.2" style="stroke: #000000; stroke-width: 0.8"/>
      </g>
     </g>
     <g id="text_4">
      <!-- 2014-01 -->
      <g transform="translate(2009.210503 983.396875) scale(0.2 -0.2)">
       <defs>
        <path id="DejaVuSans-34" d="M 2419 4116 
L 825 1625 
L 2419 1625 
L 2419 4116 
z
M 2253 4666 
L 3047 4666 
L 3047 1625 
L 3713 1625 
L 3713 1100 
L 3047 1100 
L 3047 0 
L 2419 0 
L 2419 1100 
L 313 1100 
L 313 1709 
L 2253 4666 
z
" transform="scale(0.015625)"/>
       </defs>
       <use xlink:href="#DejaVuSans-32"/>
       <use xlink:href="#DejaVuSans-30" x="63.623047"/>
       <use xlink:href="#DejaVuSans-31" x="127.246094"/>
       <use xlink:href="#DejaVuSans-34" x="190.869141"/>
       <use xlink:href="#DejaVuSans-2d" x="254.492188"/>
       <use xlink:href="#DejaVuSans-30" x="290.576172"/>
       <use xlink:href="#DejaVuSans-31" x="354.199219"/>
      </g>
     </g>
    </g>
    <g id="xtick_5">
     <g id="line2d_5">
      <g>
       <use xlink:href="#m350cbbb677" x="2416.683489" y="961.2" style="stroke: #000000; stroke-width: 0.8"/>
      </g>
     </g>
     <g id="text_5">
      <!-- 2014-07 -->
      <g transform="translate(2374.900677 983.396875) scale(0.2 -0.2)">
       <use xlink:href="#DejaVuSans-32"/>
       <use xlink:href="#DejaVuSans-30" x="63.623047"/>
       <use xlink:href="#DejaVuSans-31" x="127.246094"/>
       <use xlink:href="#DejaVuSans-34" x="190.869141"/>
       <use xlink:href="#DejaVuSans-2d" x="254.492188"/>
       <use xlink:href="#DejaVuSans-30" x="290.576172"/>
       <use xlink:href="#DejaVuSans-37" x="354.199219"/>
      </g>
     </g>
    </g>
    <g id="xtick_6">
     <g id="line2d_6">
      <g>
       <use xlink:href="#m350cbbb677" x="2788.434826" y="961.2" style="stroke: #000000; stroke-width: 0.8"/>
      </g>
     </g>
     <g id="text_6">
      <!-- 2015-01 -->
      <g transform="translate(2746.652014 983.396875) scale(0.2 -0.2)">
       <defs>
        <path id="DejaVuSans-35" d="M 691 4666 
L 3169 4666 
L 3169 4134 
L 1269 4134 
L 1269 2991 
Q 1406 3038 1543 3061 
Q 1681 3084 1819 3084 
Q 2600 3084 3056 2656 
Q 3513 2228 3513 1497 
Q 3513 744 3044 326 
Q 2575 -91 1722 -91 
Q 1428 -91 1123 -41 
Q 819 9 494 109 
L 494 744 
Q 775 591 1075 516 
Q 1375 441 1709 441 
Q 2250 441 2565 725 
Q 2881 1009 2881 1497 
Q 2881 1984 2565 2268 
Q 2250 2553 1709 2553 
Q 1456 2553 1204 2497 
Q 953 2441 691 2322 
L 691 4666 
z
" transform="scale(0.015625)"/>
       </defs>
       <use xlink:href="#DejaVuSans-32"/>
       <use xlink:href="#DejaVuSans-30" x="63.623047"/>
       <use xlink:href="#DejaVuSans-31" x="127.246094"/>
       <use xlink:href="#DejaVuSans-35" x="190.869141"/>
       <use xlink:href="#DejaVuSans-2d" x="254.492188"/>
       <use xlink:href="#DejaVuSans-30" x="290.576172"/>
       <use xlink:href="#DejaVuSans-31" x="354.199219"/>
      </g>
     </g>
    </g>
    <g id="xtick_7">
     <g id="line2d_7">
      <g>
       <use xlink:href="#m350cbbb677" x="3154.125" y="961.2" style="stroke: #000000; stroke-width: 0.8"/>
      </g>
     </g>
     <g id="text_7">
      <!-- 2015-07 -->
      <g transform="translate(3112.342188 983.396875) scale(0.2 -0.2)">
       <use xlink:href="#DejaVuSans-32"/>
       <use xlink:href="#DejaVuSans-30" x="63.623047"/>
       <use xlink:href="#DejaVuSans-31" x="127.246094"/>
       <use xlink:href="#DejaVuSans-35" x="190.869141"/>
       <use xlink:href="#DejaVuSans-2d" x="254.492188"/>
       <use xlink:href="#DejaVuSans-30" x="290.576172"/>
       <use xlink:href="#DejaVuSans-37" x="354.199219"/>
      </g>
     </g>
    </g>
    <g id="xtick_8">
     <g id="line2d_8">
      <g>
       <use xlink:href="#m350cbbb677" x="3525.876337" y="961.2" style="stroke: #000000; stroke-width: 0.8"/>
      </g>
     </g>
     <g id="text_8">
      <!-- 2016-01 -->
      <g transform="translate(3484.093524 983.396875) scale(0.2 -0.2)">
       <defs>
        <path id="DejaVuSans-36" d="M 2113 2584 
Q 1688 2584 1439 2293 
Q 1191 2003 1191 1497 
Q 1191 994 1439 701 
Q 1688 409 2113 409 
Q 2538 409 2786 701 
Q 3034 994 3034 1497 
Q 3034 2003 2786 2293 
Q 2538 2584 2113 2584 
z
M 3366 4563 
L 3366 3988 
Q 3128 4100 2886 4159 
Q 2644 4219 2406 4219 
Q 1781 4219 1451 3797 
Q 1122 3375 1075 2522 
Q 1259 2794 1537 2939 
Q 1816 3084 2150 3084 
Q 2853 3084 3261 2657 
Q 3669 2231 3669 1497 
Q 3669 778 3244 343 
Q 2819 -91 2113 -91 
Q 1303 -91 875 529 
Q 447 1150 447 2328 
Q 447 3434 972 4092 
Q 1497 4750 2381 4750 
Q 2619 4750 2861 4703 
Q 3103 4656 3366 4563 
z
" transform="scale(0.015625)"/>
       </defs>
       <use xlink:href="#DejaVuSans-32"/>
       <use xlink:href="#DejaVuSans-30" x="63.623047"/>
       <use xlink:href="#DejaVuSans-31" x="127.246094"/>
       <use xlink:href="#DejaVuSans-36" x="190.869141"/>
       <use xlink:href="#DejaVuSans-2d" x="254.492188"/>
       <use xlink:href="#DejaVuSans-30" x="290.576172"/>
       <use xlink:href="#DejaVuSans-31" x="354.199219"/>
      </g>
     </g>
    </g>
    <g id="xtick_9">
     <g id="line2d_9">
      <g>
       <use xlink:href="#m350cbbb677" x="3893.586898" y="961.2" style="stroke: #000000; stroke-width: 0.8"/>
      </g>
     </g>
     <g id="text_9">
      <!-- 2016-07 -->
      <g transform="translate(3851.804086 983.396875) scale(0.2 -0.2)">
       <use xlink:href="#DejaVuSans-32"/>
       <use xlink:href="#DejaVuSans-30" x="63.623047"/>
       <use xlink:href="#DejaVuSans-31" x="127.246094"/>
       <use xlink:href="#DejaVuSans-36" x="190.869141"/>
       <use xlink:href="#DejaVuSans-2d" x="254.492188"/>
       <use xlink:href="#DejaVuSans-30" x="290.576172"/>
       <use xlink:href="#DejaVuSans-37" x="354.199219"/>
      </g>
     </g>
    </g>
    <g id="text_10">
     <!-- Time -->
     <g transform="translate(2374.032813 1006.753125) scale(0.2 -0.2)">
      <defs>
       <path id="DejaVuSans-54" d="M -19 4666 
L 3928 4666 
L 3928 4134 
L 2272 4134 
L 2272 0 
L 1638 0 
L 1638 4134 
L -19 4134 
L -19 4666 
z
" transform="scale(0.015625)"/>
       <path id="DejaVuSans-69" d="M 603 3500 
L 1178 3500 
L 1178 0 
L 603 0 
L 603 3500 
z
M 603 4863 
L 1178 4863 
L 1178 4134 
L 603 4134 
L 603 4863 
z
" transform="scale(0.015625)"/>
       <path id="DejaVuSans-6d" d="M 3328 2828 
Q 3544 3216 3844 3400 
Q 4144 3584 4550 3584 
Q 5097 3584 5394 3201 
Q 5691 2819 5691 2113 
L 5691 0 
L 5113 0 
L 5113 2094 
Q 5113 2597 4934 2840 
Q 4756 3084 4391 3084 
Q 3944 3084 3684 2787 
Q 3425 2491 3425 1978 
L 3425 0 
L 2847 0 
L 2847 2094 
Q 2847 2600 2669 2842 
Q 2491 3084 2119 3084 
Q 1678 3084 1418 2786 
Q 1159 2488 1159 1978 
L 1159 0 
L 581 0 
L 581 3500 
L 1159 3500 
L 1159 2956 
Q 1356 3278 1631 3431 
Q 1906 3584 2284 3584 
Q 2666 3584 2933 3390 
Q 3200 3197 3328 2828 
z
" transform="scale(0.015625)"/>
       <path id="DejaVuSans-65" d="M 3597 1894 
L 3597 1613 
L 953 1613 
Q 991 1019 1311 708 
Q 1631 397 2203 397 
Q 2534 397 2845 478 
Q 3156 559 3463 722 
L 3463 178 
Q 3153 47 2828 -22 
Q 2503 -91 2169 -91 
Q 1331 -91 842 396 
Q 353 884 353 1716 
Q 353 2575 817 3079 
Q 1281 3584 2069 3584 
Q 2775 3584 3186 3129 
Q 3597 2675 3597 1894 
z
M 3022 2063 
Q 3016 2534 2758 2815 
Q 2500 3097 2075 3097 
Q 1594 3097 1305 2825 
Q 1016 2553 972 2059 
L 3022 2063 
z
" transform="scale(0.015625)"/>
      </defs>
      <use xlink:href="#DejaVuSans-54"/>
      <use xlink:href="#DejaVuSans-69" x="57.958984"/>
      <use xlink:href="#DejaVuSans-6d" x="85.742188"/>
      <use xlink:href="#DejaVuSans-65" x="183.154297"/>
     </g>
    </g>
   </g>
   <g id="matplotlib.axis_2">
    <g id="ytick_1">
     <g id="line2d_10">
      <defs>
       <path id="me1bf71503f" d="M 0 0 
L -3.5 0 
" style="stroke: #000000; stroke-width: 0.8"/>
      </defs>
      <g>
       <use xlink:href="#me1bf71503f" x="585" y="901.618952" style="stroke: #000000; stroke-width: 0.8"/>
      </g>
     </g>
     <g id="text_11">
      <!-- −0.006 -->
      <g transform="translate(503.984375 909.21739) scale(0.2 -0.2)">
       <defs>
        <path id="DejaVuSans-2212" d="M 678 2272 
L 4684 2272 
L 4684 1741 
L 678 1741 
L 678 2272 
z
" transform="scale(0.015625)"/>
        <path id="DejaVuSans-2e" d="M 684 794 
L 1344 794 
L 1344 0 
L 684 0 
L 684 794 
z
" transform="scale(0.015625)"/>
       </defs>
       <use xlink:href="#DejaVuSans-2212"/>
       <use xlink:href="#DejaVuSans-30" x="83.789062"/>
       <use xlink:href="#DejaVuSans-2e" x="147.412109"/>
       <use xlink:href="#DejaVuSans-30" x="179.199219"/>
       <use xlink:href="#DejaVuSans-30" x="242.822266"/>
       <use xlink:href="#DejaVuSans-36" x="306.445312"/>
      </g>
     </g>
    </g>
    <g id="ytick_2">
     <g id="line2d_11">
      <g>
       <use xlink:href="#me1bf71503f" x="585" y="769.959477" style="stroke: #000000; stroke-width: 0.8"/>
      </g>
     </g>
     <g id="text_12">
      <!-- −0.004 -->
      <g transform="translate(503.984375 777.557914) scale(0.2 -0.2)">
       <use xlink:href="#DejaVuSans-2212"/>
       <use xlink:href="#DejaVuSans-30" x="83.789062"/>
       <use xlink:href="#DejaVuSans-2e" x="147.412109"/>
       <use xlink:href="#DejaVuSans-30" x="179.199219"/>
       <use xlink:href="#DejaVuSans-30" x="242.822266"/>
       <use xlink:href="#DejaVuSans-34" x="306.445312"/>
      </g>
     </g>
    </g>
    <g id="ytick_3">
     <g id="line2d_12">
      <g>
       <use xlink:href="#me1bf71503f" x="585" y="638.300001" style="stroke: #000000; stroke-width: 0.8"/>
      </g>
     </g>
     <g id="text_13">
      <!-- −0.002 -->
      <g transform="translate(503.984375 645.898438) scale(0.2 -0.2)">
       <use xlink:href="#DejaVuSans-2212"/>
       <use xlink:href="#DejaVuSans-30" x="83.789062"/>
       <use xlink:href="#DejaVuSans-2e" x="147.412109"/>
       <use xlink:href="#DejaVuSans-30" x="179.199219"/>
       <use xlink:href="#DejaVuSans-30" x="242.822266"/>
       <use xlink:href="#DejaVuSans-32" x="306.445312"/>
      </g>
     </g>
    </g>
    <g id="ytick_4">
     <g id="line2d_13">
      <g>
       <use xlink:href="#me1bf71503f" x="585" y="506.640525" style="stroke: #000000; stroke-width: 0.8"/>
      </g>
     </g>
     <g id="text_14">
      <!-- 0.000 -->
      <g transform="translate(520.74375 514.238962) scale(0.2 -0.2)">
       <use xlink:href="#DejaVuSans-30"/>
       <use xlink:href="#DejaVuSans-2e" x="63.623047"/>
       <use xlink:href="#DejaVuSans-30" x="95.410156"/>
       <use xlink:href="#DejaVuSans-30" x="159.033203"/>
       <use xlink:href="#DejaVuSans-30" x="222.65625"/>
      </g>
     </g>
    </g>
    <g id="ytick_5">
     <g id="line2d_14">
      <g>
       <use xlink:href="#me1bf71503f" x="585" y="374.981049" style="stroke: #000000; stroke-width: 0.8"/>
      </g>
     </g>
     <g id="text_15">
      <!-- 0.002 -->
      <g transform="translate(520.74375 382.579486) scale(0.2 -0.2)">
       <use xlink:href="#DejaVuSans-30"/>
       <use xlink:href="#DejaVuSans-2e" x="63.623047"/>
       <use xlink:href="#DejaVuSans-30" x="95.410156"/>
       <use xlink:href="#DejaVuSans-30" x="159.033203"/>
       <use xlink:href="#DejaVuSans-32" x="222.65625"/>
      </g>
     </g>
    </g>
    <g id="ytick_6">
     <g id="line2d_15">
      <g>
       <use xlink:href="#me1bf71503f" x="585" y="243.321573" style="stroke: #000000; stroke-width: 0.8"/>
      </g>
     </g>
     <g id="text_16">
      <!-- 0.004 -->
      <g transform="translate(520.74375 250.920011) scale(0.2 -0.2)">
       <use xlink:href="#DejaVuSans-30"/>
       <use xlink:href="#DejaVuSans-2e" x="63.623047"/>
       <use xlink:href="#DejaVuSans-30" x="95.410156"/>
       <use xlink:href="#DejaVuSans-30" x="159.033203"/>
       <use xlink:href="#DejaVuSans-34" x="222.65625"/>
      </g>
     </g>
    </g>
    <g id="text_17">
     <!-- East(m) -->
     <g transform="translate(495.825 584.520313) rotate(-90) scale(0.2 -0.2)">
      <defs>
       <path id="DejaVuSans-45" d="M 628 4666 
L 3578 4666 
L 3578 4134 
L 1259 4134 
L 1259 2753 
L 3481 2753 
L 3481 2222 
L 1259 2222 
L 1259 531 
L 3634 531 
L 3634 0 
L 628 0 
L 628 4666 
z
" transform="scale(0.015625)"/>
       <path id="DejaVuSans-61" d="M 2194 1759 
Q 1497 1759 1228 1600 
Q 959 1441 959 1056 
Q 959 750 1161 570 
Q 1363 391 1709 391 
Q 2188 391 2477 730 
Q 2766 1069 2766 1631 
L 2766 1759 
L 2194 1759 
z
M 3341 1997 
L 3341 0 
L 2766 0 
L 2766 531 
Q 2569 213 2275 61 
Q 1981 -91 1556 -91 
Q 1019 -91 701 211 
Q 384 513 384 1019 
Q 384 1609 779 1909 
Q 1175 2209 1959 2209 
L 2766 2209 
L 2766 2266 
Q 2766 2663 2505 2880 
Q 2244 3097 1772 3097 
Q 1472 3097 1187 3025 
Q 903 2953 641 2809 
L 641 3341 
Q 956 3463 1253 3523 
Q 1550 3584 1831 3584 
Q 2591 3584 2966 3190 
Q 3341 2797 3341 1997 
z
" transform="scale(0.015625)"/>
       <path id="DejaVuSans-73" d="M 2834 3397 
L 2834 2853 
Q 2591 2978 2328 3040 
Q 2066 3103 1784 3103 
Q 1356 3103 1142 2972 
Q 928 2841 928 2578 
Q 928 2378 1081 2264 
Q 1234 2150 1697 2047 
L 1894 2003 
Q 2506 1872 2764 1633 
Q 3022 1394 3022 966 
Q 3022 478 2636 193 
Q 2250 -91 1575 -91 
Q 1294 -91 989 -36 
Q 684 19 347 128 
L 347 722 
Q 666 556 975 473 
Q 1284 391 1588 391 
Q 1994 391 2212 530 
Q 2431 669 2431 922 
Q 2431 1156 2273 1281 
Q 2116 1406 1581 1522 
L 1381 1569 
Q 847 1681 609 1914 
Q 372 2147 372 2553 
Q 372 3047 722 3315 
Q 1072 3584 1716 3584 
Q 2034 3584 2315 3537 
Q 2597 3491 2834 3397 
z
" transform="scale(0.015625)"/>
       <path id="DejaVuSans-74" d="M 1172 4494 
L 1172 3500 
L 2356 3500 
L 2356 3053 
L 1172 3053 
L 1172 1153 
Q 1172 725 1289 603 
Q 1406 481 1766 481 
L 2356 481 
L 2356 0 
L 1766 0 
Q 1100 0 847 248 
Q 594 497 594 1153 
L 594 3053 
L 172 3053 
L 172 3500 
L 594 3500 
L 594 4494 
L 1172 4494 
z
" transform="scale(0.015625)"/>
       <path id="DejaVuSans-28" d="M 1984 4856 
Q 1566 4138 1362 3434 
Q 1159 2731 1159 2009 
Q 1159 1288 1364 580 
Q 1569 -128 1984 -844 
L 1484 -844 
Q 1016 -109 783 600 
Q 550 1309 550 2009 
Q 550 2706 781 3412 
Q 1013 4119 1484 4856 
L 1984 4856 
z
" transform="scale(0.015625)"/>
       <path id="DejaVuSans-29" d="M 513 4856 
L 1013 4856 
Q 1481 4119 1714 3412 
Q 1947 2706 1947 2009 
Q 1947 1309 1714 600 
Q 1481 -109 1013 -844 
L 513 -844 
Q 928 -128 1133 580 
Q 1338 1288 1338 2009 
Q 1338 2731 1133 3434 
Q 928 4138 513 4856 
z
" transform="scale(0.015625)"/>
      </defs>
      <use xlink:href="#DejaVuSans-45"/>
      <use xlink:href="#DejaVuSans-61" x="63.183594"/>
      <use xlink:href="#DejaVuSans-73" x="124.462891"/>
      <use xlink:href="#DejaVuSans-74" x="176.5625"/>
      <use xlink:href="#DejaVuSans-28" x="215.771484"/>
      <use xlink:href="#DejaVuSans-6d" x="254.785156"/>
      <use xlink:href="#DejaVuSans-29" x="352.197266"/>
     </g>
    </g>
   </g>
   <g id="line2d_16">
    <path d="M 749.863636 603.430526 
L 753.904412 601.637757 
L 755.924799 612.350715 
L 761.985963 586.71896 
L 764.00635 570.86373 
L 766.026738 557.584298 
L 768.047126 567.483675 
L 770.067513 556.541413 
L 772.087901 572.746472 
L 774.108289 561.727339 
L 776.128676 576.963815 
L 790.27139 562.829996 
L 792.291778 562.727732 
L 794.312166 559.709797 
L 798.352941 551.170064 
L 800.373329 554.213061 
L 802.393717 559.425682 
L 806.434492 551.221038 
L 808.45488 541.082885 
L 810.475267 541.119351 
L 812.495655 551.970844 
L 824.617981 633.679516 
L 830.679144 686.363532 
L 832.699532 683.390263 
L 834.71992 689.951194 
L 836.740307 685.832765 
L 844.821858 735.126191 
L 850.883021 768.835433 
L 852.903409 766.001968 
L 854.923797 761.561868 
L 856.944184 757.987037 
L 860.98496 735.716502 
L 863.005348 695.351979 
L 865.025735 657.850967 
L 867.046123 674.492712 
L 869.066511 689.600598 
L 875.127674 652.339686 
L 877.148061 675.736142 
L 879.168449 706.165185 
L 885.229612 641.535001 
L 889.270388 668.271637 
L 891.290775 668.92725 
L 893.311163 654.775157 
L 895.331551 651.597647 
L 897.351939 674.69154 
L 899.372326 676.659737 
L 903.413102 638.537253 
L 905.433489 610.137039 
L 907.453877 601.22178 
L 909.474265 588.824643 
L 913.51504 524.590815 
L 915.535428 527.364312 
L 917.555816 545.510003 
L 921.596591 628.001713 
L 933.718917 707.961337 
L 937.759693 679.641023 
L 1044.840241 703.792115 
L 1046.860628 710.69455 
L 1048.881016 737.379288 
L 1212.53242 399.693395 
L 1214.552807 383.372634 
L 1216.573195 368.718434 
L 1226.675134 359.746799 
L 1230.715909 366.492846 
L 1232.736297 371.608567 
L 1234.756684 379.636756 
L 1236.777072 382.496845 
L 1238.79746 386.415414 
L 1240.817848 379.856812 
L 1242.838235 351.999947 
L 1333.755682 456.796313 
L 1335.77607 397.362436 
L 1337.796457 379.848639 
L 1341.837233 386.669729 
L 1372.143048 396.630678 
L 1374.163436 405.805604 
L 1376.183824 413.725004 
L 1378.204211 401.271101 
L 1382.244987 388.917047 
L 1384.265374 400.341457 
L 1386.285762 391.553131 
L 1388.30615 374.885504 
L 1390.326537 373.21499 
L 1392.346925 371.065519 
L 1394.367313 364.264365 
L 1402.448864 392.246432 
L 1404.469251 392.932182 
L 1406.489639 409.813083 
L 1412.550802 436.821201 
L 1414.57119 439.962287 
L 1416.591578 437.276255 
L 1418.611965 452.044109 
L 1420.632353 462.169611 
L 1424.673128 457.972682 
L 1426.693516 464.040963 
L 1428.713904 453.260671 
L 1432.754679 438.333816 
L 1434.775067 425.228837 
L 1436.795455 408.395792 
L 1444.877005 382.711346 
L 1446.897393 368.433409 
L 1454.978944 383.553548 
L 1456.999332 429.46589 
L 1459.019719 433.102812 
L 1461.040107 446.218354 
L 1463.060495 452.989063 
L 1465.080882 463.251662 
L 1469.121658 488.804989 
L 1471.142045 493.151746 
L 1473.162433 450.085224 
L 1475.182821 454.557302 
L 1479.223596 455.288193 
L 1481.243984 442.14738 
L 1483.264372 455.492862 
L 1485.284759 453.454074 
L 1487.305147 507.454595 
L 1489.325535 519.66152 
L 1491.345922 468.833231 
L 1493.36631 458.329144 
L 1495.386698 435.114667 
L 1497.407086 400.000522 
L 1501.447861 341.288899 
L 1669.14004 840.461805 
L 1673.180816 804.971853 
L 1677.221591 790.438171 
L 1681.262366 798.299822 
L 1683.282754 774.640068 
L 1689.343917 762.523092 
L 1691.364305 749.802526 
L 1693.384693 769.887018 
L 1697.425468 796.938704 
L 1699.445856 813.662304 
L 1701.466243 822.198163 
L 1703.486631 816.55266 
L 1705.507019 838.774214 
L 1707.527406 839.039565 
L 1719.649733 877.452171 
L 1723.690508 864.491958 
L 1725.710896 838.77532 
L 1727.731283 835.518384 
L 1729.751671 822.554209 
L 1731.772059 843.004631 
L 1735.812834 895.330744 
L 1739.85361 923.4 
L 1741.873997 915.174938 
L 1743.894385 920.330899 
L 1749.955548 908.356348 
L 1751.975936 905.777108 
L 1753.996324 903.877681 
L 1756.016711 913.505209 
L 1758.037099 917.070985 
L 1766.11865 862.952566 
L 1768.139037 847.927282 
L 1780.261364 772.329752 
L 1782.281751 754.205566 
L 1784.302139 787.601174 
L 1786.322527 804.179159 
L 1788.342914 799.980684 
L 1790.363302 820.555827 
L 1792.38369 781.013005 
L 1794.404078 753.028842 
L 1796.424465 732.745202 
L 1806.526404 683.63875 
L 1808.546791 679.436701 
L 1810.567179 699.213647 
L 1812.587567 677.263873 
L 1816.628342 637.475319 
L 1818.64873 651.063973 
L 1822.689505 667.258913 
L 1824.709893 685.425285 
L 1826.730281 686.931288 
L 1828.750668 676.093878 
L 1830.771056 689.998232 
L 1832.791444 665.898359 
L 1834.811832 659.290612 
L 1838.852607 610.335186 
L 1954.014706 393.692296 
L 1958.055481 370.035645 
L 1960.075869 363.164466 
L 1962.096257 342.569417 
L 1964.116644 301.175044 
L 1966.137032 303.810496 
L 1968.15742 293.517256 
L 1970.177807 294.405298 
L 1980.279746 324.050306 
L 1982.300134 351.515712 
L 1988.361297 425.653983 
L 1990.381684 412.128302 
L 1992.402072 413.558959 
L 1994.42246 407.401197 
L 1996.442848 378.09357 
L 2000.483623 363.334561 
L 2073.21758 290.812508 
L 2075.237968 298.55051 
L 2079.278743 329.610879 
L 2081.299131 314.878483 
L 2109.584559 192.532195 
L 2438.907754 693.584899 
L 2440.928142 690.554409 
L 2442.948529 671.799123 
L 2444.968917 640.990528 
L 2449.009693 693.89181 
L 2467.193182 736.435228 
L 3178.369652 792.415297 
L 3180.39004 795.900213 
L 3182.410428 749.926892 
L 3184.430816 718.560865 
L 3186.451203 707.186856 
L 3188.471591 728.520648 
L 3194.532754 773.13723 
L 3206.65508 866.448804 
L 3210.695856 841.287968 
L 3214.736631 755.388221 
L 3220.797794 641.726123 
L 3228.879345 610.80615 
L 3230.899733 650.536463 
L 3253.123997 643.102004 
L 3257.164773 660.054567 
L 3259.18516 648.889852 
L 3261.205548 618.940759 
L 3265.246324 622.998551 
L 3267.266711 598.018393 
L 3269.287099 567.670406 
L 3277.36865 572.201369 
L 3285.450201 674.671691 
L 3287.470588 689.823923 
L 3289.490976 675.520949 
L 3291.511364 684.277835 
L 3293.531751 658.942922 
L 3295.552139 618.570828 
L 3297.572527 599.40701 
L 3299.592914 572.340883 
L 3301.613302 556.274848 
L 3303.63369 571.025219 
L 3309.694853 560.559368 
L 3315.756016 637.087478 
L 3317.776404 634.961081 
L 3319.796791 608.024461 
L 3321.817179 599.581784 
L 3323.837567 614.951131 
L 3325.857955 563.156158 
L 3327.878342 541.760284 
L 3329.89873 522.736232 
L 3331.919118 488.548121 
L 3340.000668 462.809402 
L 3342.021056 453.016839 
L 3344.041444 445.579581 
L 3346.061832 443.241688 
L 3348.082219 434.834905 
L 3350.102607 452.219876 
L 3352.122995 462.284735 
L 3354.143382 452.558885 
L 3356.16377 444.960233 
L 3358.184158 421.768488 
L 3360.204545 407.596974 
L 3362.224933 370.054205 
L 3364.245321 350.999199 
L 3366.265709 343.452447 
L 3368.286096 344.420803 
L 3370.306484 365.431894 
L 3372.326872 396.576552 
L 3374.347259 408.840097 
L 3376.367647 425.610751 
L 3400.612299 346.372718 
L 3402.632687 334.804989 
L 3404.653075 335.3138 
L 3406.673463 346.26577 
L 3410.714238 348.321168 
L 3412.734626 364.294376 
L 3414.755013 382.356176 
L 3416.775401 393.193533 
L 3418.795789 382.189276 
L 3420.816176 363.514263 
L 3422.836564 358.568744 
L 3424.856952 362.426588 
L 3426.87734 382.016042 
L 3428.897727 377.274069 
L 3430.918115 376.602047 
L 3432.938503 384.628652 
L 3434.95889 387.008208 
L 3436.979278 360.135909 
L 3438.999666 325.579516 
L 3441.020053 305.565934 
L 3443.040441 297.417517 
L 3445.060829 272.812649 
L 3447.081217 252.91551 
L 3449.101604 243.347251 
L 3451.121992 274.84685 
L 3453.14238 292.569572 
L 3455.162767 286.107511 
L 3457.183155 281.692088 
L 3459.203543 287.345167 
L 3461.22393 290.728666 
L 3463.244318 284.323852 
L 3465.264706 276.102221 
L 3467.285094 280.262269 
L 3469.305481 278.631044 
L 3471.325869 277.866756 
L 3473.346257 270.786637 
L 3475.366644 254.275918 
L 3477.387032 238.932146 
L 3479.40742 219.174359 
L 3481.427807 206.261189 
L 3483.448195 222.489209 
L 3485.468583 217.644895 
L 3487.488971 214.062275 
L 3489.509358 211.375645 
L 3491.529746 217.748862 
L 3493.550134 230.589495 
L 3497.590909 208.36301 
L 3499.611297 200.141591 
L 3503.652072 203.811983 
L 3505.67246 215.117994 
L 3507.692848 214.908638 
L 3509.713235 210.48001 
L 3511.733623 194.428986 
L 3513.754011 206.596717 
L 3515.774398 192.201406 
L 3517.794786 199.315097 
L 3519.815174 197.251775 
L 3521.835561 193.735698 
L 3523.855949 191.383854 
L 3527.896725 198.263921 
L 3529.917112 191.766383 
L 3531.9375 180.510482 
L 3533.957888 175.827515 
L 3535.978275 179.661402 
L 3537.998663 195.03662 
L 3540.019051 186.71155 
L 3542.039439 187.380123 
L 3544.059826 194.25809 
L 3548.100602 205.727941 
L 3550.120989 179.408504 
L 3552.141377 167.4 
L 3554.161765 176.959114 
L 3556.182152 180.447609 
L 3558.20254 177.01199 
L 3560.222928 193.3585 
L 3562.243316 199.167761 
L 3564.263703 225.400361 
L 3566.284091 226.379373 
L 3568.304479 217.782386 
L 3570.324866 222.919278 
L 3572.345254 238.25641 
L 3584.46758 255.834235 
L 3586.487968 257.89318 
L 3590.528743 253.152694 
L 3592.549131 262.566709 
L 3594.569519 265.303799 
L 3596.589906 239.90544 
L 3598.610294 236.277776 
L 3600.630682 207.098415 
L 3602.65107 204.609363 
L 3604.671457 207.888967 
L 3647.099599 231.276131 
L 3649.119987 243.004545 
L 3653.160762 234.652413 
L 3659.221925 247.045542 
L 3661.242313 232.547741 
L 3663.262701 224.977246 
L 3665.283088 245.42287 
L 3667.303476 248.439573 
L 3669.323864 247.507557 
L 3671.344251 264.563207 
L 3673.364639 245.089837 
L 3675.385027 253.356575 
L 3677.405414 254.752967 
L 3679.425802 257.796415 
L 3681.44619 253.97247 
L 3683.466578 262.636201 
L 3685.486965 262.333584 
L 3687.507353 278.74603 
L 3689.527741 270.359644 
L 3691.548128 282.62349 
L 3693.568516 279.346295 
L 3695.588904 287.62406 
L 3697.609291 267.958721 
L 3703.670455 339.576183 
L 3705.690842 344.296971 
L 3707.71123 347.543978 
L 3711.752005 379.864304 
L 3713.772393 382.991088 
L 3715.792781 351.857002 
L 3717.813168 361.83965 
L 3719.833556 383.322741 
L 3721.853944 414.275403 
L 3723.874332 399.8018 
L 3725.894719 432.352182 
L 3727.915107 436.202512 
L 3729.935495 447.973299 
L 3733.97627 431.233571 
L 3735.996658 416.22706 
L 3738.017045 439.879381 
L 3740.037433 446.266308 
L 3744.078209 508.20924 
L 3746.098596 516.01347 
L 3748.118984 538.855766 
L 3750.139372 547.268695 
L 3752.159759 551.824722 
L 3756.200535 552.020806 
L 3758.220922 529.924365 
L 3760.24131 532.1066 
L 3764.282086 499.81764 
L 3766.302473 477.171878 
L 3768.322861 463.568255 
L 3772.363636 422.272767 
L 3774.384024 406.739056 
L 3776.404412 428.127581 
L 3778.424799 444.717108 
L 3780.445187 479.82724 
L 3786.50635 510.150439 
L 3788.526738 532.449478 
L 3790.547126 535.736277 
L 3792.567513 525.980521 
L 3794.587901 533.501355 
L 3796.608289 561.319949 
L 3798.628676 612.605513 
L 3952.178142 695.052893 
L 3954.198529 676.836489 
L 3956.218917 665.012402 
L 3958.239305 614.638251 
L 3960.259693 591.444004 
L 3970.361631 623.718646 
L 3972.382019 676.374031 
L 3978.443182 714.320722 
L 3980.46357 683.495393 
L 3982.483957 680.865437 
L 3984.504345 669.082319 
L 3986.524733 629.17767 
L 3988.54512 640.720238 
L 3990.565508 636.605051 
L 3996.626671 652.337424 
L 4002.687834 653.363285 
L 4004.708222 656.54119 
L 4006.72861 630.224434 
L 4008.748997 643.942543 
L 4010.769385 638.340606 
L 4014.81016 659.491297 
L 4016.830548 643.656908 
L 4018.850936 665.7457 
L 4020.871324 690.783721 
L 4030.973262 651.358148 
L 4032.99365 614.414256 
L 4035.014037 602.282684 
L 4037.034425 609.96921 
L 4039.054813 594.080654 
L 4041.075201 595.014499 
L 4043.095588 585.314035 
L 4045.115976 585.8144 
L 4047.136364 609.403442 
L 4047.136364 609.403442 
" clip-path="url(#pcbdeb679b6)" style="fill: none; stroke: #00d7ff; stroke-width: 2.5; stroke-linecap: square"/>
   </g>
   <g id="patch_3">
    <path d="M 585 961.2 
L 585 129.6 
" style="fill: none; stroke: #000000; stroke-width: 0.8; stroke-linejoin: miter; stroke-linecap: square"/>
   </g>
   <g id="patch_4">
    <path d="M 4212 961.2 
L 4212 129.6 
" style="fill: none; stroke: #000000; stroke-width: 0.8; stroke-linejoin: miter; stroke-linecap: square"/>
   </g>
   <g id="patch_5">
    <path d="M 585 961.2 
L 4212 961.2 
" style="fill: none; stroke: #000000; stroke-width: 0.8; stroke-linejoin: miter; stroke-linecap: square"/>
   </g>
   <g id="patch_6">
    <path d="M 585 129.6 
L 4212 129.6 
" style="fill: none; stroke: #000000; stroke-width: 0.8; stroke-linejoin: miter; stroke-linecap: square"/>
   </g>
   <g id="text_18">
    <!-- KOE2 -->
    <g transform="translate(2358.658594 123.360937) scale(0.3 -0.3)">
     <defs>
      <path id="DejaVuSans-4b" d="M 628 4666 
L 1259 4666 
L 1259 2694 
L 3353 4666 
L 4166 4666 
L 1850 2491 
L 4331 0 
L 3500 0 
L 1259 2247 
L 1259 0 
L 628 0 
L 628 4666 
z
" transform="scale(0.015625)"/>
      <path id="DejaVuSans-4f" d="M 2522 4238 
Q 1834 4238 1429 3725 
Q 1025 3213 1025 2328 
Q 1025 1447 1429 934 
Q 1834 422 2522 422 
Q 3209 422 3611 934 
Q 4013 1447 4013 2328 
Q 4013 3213 3611 3725 
Q 3209 4238 2522 4238 
z
M 2522 4750 
Q 3503 4750 4090 4092 
Q 4678 3434 4678 2328 
Q 4678 1225 4090 567 
Q 3503 -91 2522 -91 
Q 1538 -91 948 565 
Q 359 1222 359 2328 
Q 359 3434 948 4092 
Q 1538 4750 2522 4750 
z
" transform="scale(0.015625)"/>
     </defs>
     <use xlink:href="#DejaVuSans-4b"/>
     <use xlink:href="#DejaVuSans-4f" x="60.076172"/>
     <use xlink:href="#DejaVuSans-45" x="138.787109"/>
     <use xlink:href="#DejaVuSans-32" x="201.970703"/>
    </g>
   </g>
   <g id="legend_1">
    <g id="patch_7">
     <path d="M 4148.9375 152.278125 
L 4205 152.278125 
Q 4207 152.278125 4207 150.278125 
L 4207 136.6 
Q 4207 134.6 4205 134.6 
L 4148.9375 134.6 
Q 4146.9375 134.6 4146.9375 136.6 
L 4146.9375 150.278125 
Q 4146.9375 152.278125 4148.9375 152.278125 
z
" style="fill: #ffffff; opacity: 0.8; stroke: #cccccc; stroke-linejoin: miter"/>
    </g>
    <g id="line2d_17">
     <path d="M 4150.9375 142.698438 
L 4160.9375 142.698438 
L 4170.9375 142.698438 
" style="fill: none; stroke: #00d7ff; stroke-width: 2.5; stroke-linecap: square"/>
    </g>
    <g id="text_19">
     <!-- koe2 -->
     <g transform="translate(4178.9375 146.198438) scale(0.1 -0.1)">
      <defs>
       <path id="DejaVuSans-6b" d="M 581 4863 
L 1159 4863 
L 1159 1991 
L 2875 3500 
L 3609 3500 
L 1753 1863 
L 3688 0 
L 2938 0 
L 1159 1709 
L 1159 0 
L 581 0 
L 581 4863 
z
" transform="scale(0.015625)"/>
       <path id="DejaVuSans-6f" d="M 1959 3097 
Q 1497 3097 1228 2736 
Q 959 2375 959 1747 
Q 959 1119 1226 758 
Q 1494 397 1959 397 
Q 2419 397 2687 759 
Q 2956 1122 2956 1747 
Q 2956 2369 2687 2733 
Q 2419 3097 1959 3097 
z
M 1959 3584 
Q 2709 3584 3137 3096 
Q 3566 2609 3566 1747 
Q 3566 888 3137 398 
Q 2709 -91 1959 -91 
Q 1206 -91 779 398 
Q 353 888 353 1747 
Q 353 2609 779 3096 
Q 1206 3584 1959 3584 
z
" transform="scale(0.015625)"/>
      </defs>
      <use xlink:href="#DejaVuSans-6b"/>
      <use xlink:href="#DejaVuSans-6f" x="54.285156"/>
      <use xlink:href="#DejaVuSans-65" x="115.466797"/>
      <use xlink:href="#DejaVuSans-32" x="176.990234"/>
     </g>
    </g>
   </g>
  </g>
 </g>
 <defs>
  <clipPath id="pcbdeb679b6">
   <rect x="585" y="129.6" width="3627" height="831.6"/>
  </clipPath>
 </defs>
</svg>
