<?xml version="1.0" encoding="utf-8" standalone="no"?>
<!DOCTYPE svg PUBLIC "-//W3C//DTD SVG 1.1//EN"
  "http://www.w3.org/Graphics/SVG/1.1/DTD/svg11.dtd">
<svg xmlns:xlink="http://www.w3.org/1999/xlink" width="4680pt" height="1080pt" viewBox="0 0 4680 1080" xmlns="http://www.w3.org/2000/svg" version="1.1">
 <metadata>
  <rdf:RDF xmlns:dc="http://purl.org/dc/elements/1.1/" xmlns:cc="http://creativecommons.org/ns#" xmlns:rdf="http://www.w3.org/1999/02/22-rdf-syntax-ns#">
   <cc:Work>
    <dc:type rdf:resource="http://purl.org/dc/dcmitype/StillImage"/>
    <dc:date>2024-03-25T14:09:22.617982</dc:date>
    <dc:format>image/svg+xml</dc:format>
    <dc:creator>
     <cc:Agent>
      <dc:title>Matplotlib v3.7.2, https://matplotlib.org/</dc:title>
     </cc:Agent>
    </dc:creator>
   </cc:Work>
  </rdf:RDF>
 </metadata>
 <defs>
  <style type="text/css">*{stroke-linejoin: round; stroke-linecap: butt}</style>
 </defs>
 <g id="figure_1">
  <g id="patch_1">
   <path d="M 0 1080 
L 4680 1080 
L 4680 0 
L 0 0 
z
" style="fill: #ffffff"/>
  </g>
  <g id="axes_1">
   <g id="patch_2">
    <path d="M 585 961.2 
L 4212 961.2 
L 4212 129.6 
L 585 129.6 
z
" style="fill: #ffffff"/>
   </g>
   <g id="matplotlib.axis_1">
    <g id="xtick_1">
     <g id="line2d_1">
      <defs>
       <path id="m923d7aab9a" d="M 0 0 
L 0 3.5 
" style="stroke: #000000; stroke-width: 0.8"/>
      </defs>
      <g>
       <use xlink:href="#m923d7aab9a" x="941.800468" y="961.2" style="stroke: #000000; stroke-width: 0.8"/>
      </g>
     </g>
     <g id="text_1">
      <!-- 2012-07 -->
      <g transform="translate(900.017655 983.396875) scale(0.2 -0.2)">
       <defs>
        <path id="DejaVuSans-32" d="M 1228 531 
L 3431 531 
L 3431 0 
L 469 0 
L 469 531 
Q 828 903 1448 1529 
Q 2069 2156 2228 2338 
Q 2531 2678 2651 2914 
Q 2772 3150 2772 3378 
Q 2772 3750 2511 3984 
Q 2250 4219 1831 4219 
Q 1534 4219 1204 4116 
Q 875 4013 500 3803 
L 500 4441 
Q 881 4594 1212 4672 
Q 1544 4750 1819 4750 
Q 2544 4750 2975 4387 
Q 3406 4025 3406 3419 
Q 3406 3131 3298 2873 
Q 3191 2616 2906 2266 
Q 2828 2175 2409 1742 
Q 1991 1309 1228 531 
z
" transform="scale(0.015625)"/>
        <path id="DejaVuSans-30" d="M 2034 4250 
Q 1547 4250 1301 3770 
Q 1056 3291 1056 2328 
Q 1056 1369 1301 889 
Q 1547 409 2034 409 
Q 2525 409 2770 889 
Q 3016 1369 3016 2328 
Q 3016 3291 2770 3770 
Q 2525 4250 2034 4250 
z
M 2034 4750 
Q 2819 4750 3233 4129 
Q 3647 3509 3647 2328 
Q 3647 1150 3233 529 
Q 2819 -91 2034 -91 
Q 1250 -91 836 529 
Q 422 1150 422 2328 
Q 422 3509 836 4129 
Q 1250 4750 2034 4750 
z
" transform="scale(0.015625)"/>
        <path id="DejaVuSans-31" d="M 794 531 
L 1825 531 
L 1825 4091 
L 703 3866 
L 703 4441 
L 1819 4666 
L 2450 4666 
L 2450 531 
L 3481 531 
L 3481 0 
L 794 0 
L 794 531 
z
" transform="scale(0.015625)"/>
        <path id="DejaVuSans-2d" d="M 313 2009 
L 1997 2009 
L 1997 1497 
L 313 1497 
L 313 2009 
z
" transform="scale(0.015625)"/>
        <path id="DejaVuSans-37" d="M 525 4666 
L 3525 4666 
L 3525 4397 
L 1831 0 
L 1172 0 
L 2766 4134 
L 525 4134 
L 525 4666 
z
" transform="scale(0.015625)"/>
       </defs>
       <use xlink:href="#DejaVuSans-32"/>
       <use xlink:href="#DejaVuSans-30" x="63.623047"/>
       <use xlink:href="#DejaVuSans-31" x="127.246094"/>
       <use xlink:href="#DejaVuSans-32" x="190.869141"/>
       <use xlink:href="#DejaVuSans-2d" x="254.492188"/>
       <use xlink:href="#DejaVuSans-30" x="290.576172"/>
       <use xlink:href="#DejaVuSans-37" x="354.199219"/>
      </g>
     </g>
    </g>
    <g id="xtick_2">
     <g id="line2d_2">
      <g>
       <use xlink:href="#m923d7aab9a" x="1313.551805" y="961.2" style="stroke: #000000; stroke-width: 0.8"/>
      </g>
     </g>
     <g id="text_2">
      <!-- 2013-01 -->
      <g transform="translate(1271.768992 983.396875) scale(0.2 -0.2)">
       <defs>
        <path id="DejaVuSans-33" d="M 2597 2516 
Q 3050 2419 3304 2112 
Q 3559 1806 3559 1356 
Q 3559 666 3084 287 
Q 2609 -91 1734 -91 
Q 1441 -91 1130 -33 
Q 819 25 488 141 
L 488 750 
Q 750 597 1062 519 
Q 1375 441 1716 441 
Q 2309 441 2620 675 
Q 2931 909 2931 1356 
Q 2931 1769 2642 2001 
Q 2353 2234 1838 2234 
L 1294 2234 
L 1294 2753 
L 1863 2753 
Q 2328 2753 2575 2939 
Q 2822 3125 2822 3475 
Q 2822 3834 2567 4026 
Q 2313 4219 1838 4219 
Q 1578 4219 1281 4162 
Q 984 4106 628 3988 
L 628 4550 
Q 988 4650 1302 4700 
Q 1616 4750 1894 4750 
Q 2613 4750 3031 4423 
Q 3450 4097 3450 3541 
Q 3450 3153 3228 2886 
Q 3006 2619 2597 2516 
z
" transform="scale(0.015625)"/>
       </defs>
       <use xlink:href="#DejaVuSans-32"/>
       <use xlink:href="#DejaVuSans-30" x="63.623047"/>
       <use xlink:href="#DejaVuSans-31" x="127.246094"/>
       <use xlink:href="#DejaVuSans-33" x="190.869141"/>
       <use xlink:href="#DejaVuSans-2d" x="254.492188"/>
       <use xlink:href="#DejaVuSans-30" x="290.576172"/>
       <use xlink:href="#DejaVuSans-31" x="354.199219"/>
      </g>
     </g>
    </g>
    <g id="xtick_3">
     <g id="line2d_3">
      <g>
       <use xlink:href="#m923d7aab9a" x="1679.241979" y="961.2" style="stroke: #000000; stroke-width: 0.8"/>
      </g>
     </g>
     <g id="text_3">
      <!-- 2013-07 -->
      <g transform="translate(1637.459166 983.396875) scale(0.2 -0.2)">
       <use xlink:href="#DejaVuSans-32"/>
       <use xlink:href="#DejaVuSans-30" x="63.623047"/>
       <use xlink:href="#DejaVuSans-31" x="127.246094"/>
       <use xlink:href="#DejaVuSans-33" x="190.869141"/>
       <use xlink:href="#DejaVuSans-2d" x="254.492188"/>
       <use xlink:href="#DejaVuSans-30" x="290.576172"/>
       <use xlink:href="#DejaVuSans-37" x="354.199219"/>
      </g>
     </g>
    </g>
    <g id="xtick_4">
     <g id="line2d_4">
      <g>
       <use xlink:href="#m923d7aab9a" x="2050.993316" y="961.2" style="stroke: #000000; stroke-width: 0.8"/>
      </g>
     </g>
     <g id="text_4">
      <!-- 2014-01 -->
      <g transform="translate(2009.210503 983.396875) scale(0.2 -0.2)">
       <defs>
        <path id="DejaVuSans-34" d="M 2419 4116 
L 825 1625 
L 2419 1625 
L 2419 4116 
z
M 2253 4666 
L 3047 4666 
L 3047 1625 
L 3713 1625 
L 3713 1100 
L 3047 1100 
L 3047 0 
L 2419 0 
L 2419 1100 
L 313 1100 
L 313 1709 
L 2253 4666 
z
" transform="scale(0.015625)"/>
       </defs>
       <use xlink:href="#DejaVuSans-32"/>
       <use xlink:href="#DejaVuSans-30" x="63.623047"/>
       <use xlink:href="#DejaVuSans-31" x="127.246094"/>
       <use xlink:href="#DejaVuSans-34" x="190.869141"/>
       <use xlink:href="#DejaVuSans-2d" x="254.492188"/>
       <use xlink:href="#DejaVuSans-30" x="290.576172"/>
       <use xlink:href="#DejaVuSans-31" x="354.199219"/>
      </g>
     </g>
    </g>
    <g id="xtick_5">
     <g id="line2d_5">
      <g>
       <use xlink:href="#m923d7aab9a" x="2416.683489" y="961.2" style="stroke: #000000; stroke-width: 0.8"/>
      </g>
     </g>
     <g id="text_5">
      <!-- 2014-07 -->
      <g transform="translate(2374.900677 983.396875) scale(0.2 -0.2)">
       <use xlink:href="#DejaVuSans-32"/>
       <use xlink:href="#DejaVuSans-30" x="63.623047"/>
       <use xlink:href="#DejaVuSans-31" x="127.246094"/>
       <use xlink:href="#DejaVuSans-34" x="190.869141"/>
       <use xlink:href="#DejaVuSans-2d" x="254.492188"/>
       <use xlink:href="#DejaVuSans-30" x="290.576172"/>
       <use xlink:href="#DejaVuSans-37" x="354.199219"/>
      </g>
     </g>
    </g>
    <g id="xtick_6">
     <g id="line2d_6">
      <g>
       <use xlink:href="#m923d7aab9a" x="2788.434826" y="961.2" style="stroke: #000000; stroke-width: 0.8"/>
      </g>
     </g>
     <g id="text_6">
      <!-- 2015-01 -->
      <g transform="translate(2746.652014 983.396875) scale(0.2 -0.2)">
       <defs>
        <path id="DejaVuSans-35" d="M 691 4666 
L 3169 4666 
L 3169 4134 
L 1269 4134 
L 1269 2991 
Q 1406 3038 1543 3061 
Q 1681 3084 1819 3084 
Q 2600 3084 3056 2656 
Q 3513 2228 3513 1497 
Q 3513 744 3044 326 
Q 2575 -91 1722 -91 
Q 1428 -91 1123 -41 
Q 819 9 494 109 
L 494 744 
Q 775 591 1075 516 
Q 1375 441 1709 441 
Q 2250 441 2565 725 
Q 2881 1009 2881 1497 
Q 2881 1984 2565 2268 
Q 2250 2553 1709 2553 
Q 1456 2553 1204 2497 
Q 953 2441 691 2322 
L 691 4666 
z
" transform="scale(0.015625)"/>
       </defs>
       <use xlink:href="#DejaVuSans-32"/>
       <use xlink:href="#DejaVuSans-30" x="63.623047"/>
       <use xlink:href="#DejaVuSans-31" x="127.246094"/>
       <use xlink:href="#DejaVuSans-35" x="190.869141"/>
       <use xlink:href="#DejaVuSans-2d" x="254.492188"/>
       <use xlink:href="#DejaVuSans-30" x="290.576172"/>
       <use xlink:href="#DejaVuSans-31" x="354.199219"/>
      </g>
     </g>
    </g>
    <g id="xtick_7">
     <g id="line2d_7">
      <g>
       <use xlink:href="#m923d7aab9a" x="3154.125" y="961.2" style="stroke: #000000; stroke-width: 0.8"/>
      </g>
     </g>
     <g id="text_7">
      <!-- 2015-07 -->
      <g transform="translate(3112.342188 983.396875) scale(0.2 -0.2)">
       <use xlink:href="#DejaVuSans-32"/>
       <use xlink:href="#DejaVuSans-30" x="63.623047"/>
       <use xlink:href="#DejaVuSans-31" x="127.246094"/>
       <use xlink:href="#DejaVuSans-35" x="190.869141"/>
       <use xlink:href="#DejaVuSans-2d" x="254.492188"/>
       <use xlink:href="#DejaVuSans-30" x="290.576172"/>
       <use xlink:href="#DejaVuSans-37" x="354.199219"/>
      </g>
     </g>
    </g>
    <g id="xtick_8">
     <g id="line2d_8">
      <g>
       <use xlink:href="#m923d7aab9a" x="3525.876337" y="961.2" style="stroke: #000000; stroke-width: 0.8"/>
      </g>
     </g>
     <g id="text_8">
      <!-- 2016-01 -->
      <g transform="translate(3484.093524 983.396875) scale(0.2 -0.2)">
       <defs>
        <path id="DejaVuSans-36" d="M 2113 2584 
Q 1688 2584 1439 2293 
Q 1191 2003 1191 1497 
Q 1191 994 1439 701 
Q 1688 409 2113 409 
Q 2538 409 2786 701 
Q 3034 994 3034 1497 
Q 3034 2003 2786 2293 
Q 2538 2584 2113 2584 
z
M 3366 4563 
L 3366 3988 
Q 3128 4100 2886 4159 
Q 2644 4219 2406 4219 
Q 1781 4219 1451 3797 
Q 1122 3375 1075 2522 
Q 1259 2794 1537 2939 
Q 1816 3084 2150 3084 
Q 2853 3084 3261 2657 
Q 3669 2231 3669 1497 
Q 3669 778 3244 343 
Q 2819 -91 2113 -91 
Q 1303 -91 875 529 
Q 447 1150 447 2328 
Q 447 3434 972 4092 
Q 1497 4750 2381 4750 
Q 2619 4750 2861 4703 
Q 3103 4656 3366 4563 
z
" transform="scale(0.015625)"/>
       </defs>
       <use xlink:href="#DejaVuSans-32"/>
       <use xlink:href="#DejaVuSans-30" x="63.623047"/>
       <use xlink:href="#DejaVuSans-31" x="127.246094"/>
       <use xlink:href="#DejaVuSans-36" x="190.869141"/>
       <use xlink:href="#DejaVuSans-2d" x="254.492188"/>
       <use xlink:href="#DejaVuSans-30" x="290.576172"/>
       <use xlink:href="#DejaVuSans-31" x="354.199219"/>
      </g>
     </g>
    </g>
    <g id="xtick_9">
     <g id="line2d_9">
      <g>
       <use xlink:href="#m923d7aab9a" x="3893.586898" y="961.2" style="stroke: #000000; stroke-width: 0.8"/>
      </g>
     </g>
     <g id="text_9">
      <!-- 2016-07 -->
      <g transform="translate(3851.804086 983.396875) scale(0.2 -0.2)">
       <use xlink:href="#DejaVuSans-32"/>
       <use xlink:href="#DejaVuSans-30" x="63.623047"/>
       <use xlink:href="#DejaVuSans-31" x="127.246094"/>
       <use xlink:href="#DejaVuSans-36" x="190.869141"/>
       <use xlink:href="#DejaVuSans-2d" x="254.492188"/>
       <use xlink:href="#DejaVuSans-30" x="290.576172"/>
       <use xlink:href="#DejaVuSans-37" x="354.199219"/>
      </g>
     </g>
    </g>
    <g id="text_10">
     <!-- Time -->
     <g transform="translate(2374.032813 1006.753125) scale(0.2 -0.2)">
      <defs>
       <path id="DejaVuSans-54" d="M -19 4666 
L 3928 4666 
L 3928 4134 
L 2272 4134 
L 2272 0 
L 1638 0 
L 1638 4134 
L -19 4134 
L -19 4666 
z
" transform="scale(0.015625)"/>
       <path id="DejaVuSans-69" d="M 603 3500 
L 1178 3500 
L 1178 0 
L 603 0 
L 603 3500 
z
M 603 4863 
L 1178 4863 
L 1178 4134 
L 603 4134 
L 603 4863 
z
" transform="scale(0.015625)"/>
       <path id="DejaVuSans-6d" d="M 3328 2828 
Q 3544 3216 3844 3400 
Q 4144 3584 4550 3584 
Q 5097 3584 5394 3201 
Q 5691 2819 5691 2113 
L 5691 0 
L 5113 0 
L 5113 2094 
Q 5113 2597 4934 2840 
Q 4756 3084 4391 3084 
Q 3944 3084 3684 2787 
Q 3425 2491 3425 1978 
L 3425 0 
L 2847 0 
L 2847 2094 
Q 2847 2600 2669 2842 
Q 2491 3084 2119 3084 
Q 1678 3084 1418 2786 
Q 1159 2488 1159 1978 
L 1159 0 
L 581 0 
L 581 3500 
L 1159 3500 
L 1159 2956 
Q 1356 3278 1631 3431 
Q 1906 3584 2284 3584 
Q 2666 3584 2933 3390 
Q 3200 3197 3328 2828 
z
" transform="scale(0.015625)"/>
       <path id="DejaVuSans-65" d="M 3597 1894 
L 3597 1613 
L 953 1613 
Q 991 1019 1311 708 
Q 1631 397 2203 397 
Q 2534 397 2845 478 
Q 3156 559 3463 722 
L 3463 178 
Q 3153 47 2828 -22 
Q 2503 -91 2169 -91 
Q 1331 -91 842 396 
Q 353 884 353 1716 
Q 353 2575 817 3079 
Q 1281 3584 2069 3584 
Q 2775 3584 3186 3129 
Q 3597 2675 3597 1894 
z
M 3022 2063 
Q 3016 2534 2758 2815 
Q 2500 3097 2075 3097 
Q 1594 3097 1305 2825 
Q 1016 2553 972 2059 
L 3022 2063 
z
" transform="scale(0.015625)"/>
      </defs>
      <use xlink:href="#DejaVuSans-54"/>
      <use xlink:href="#DejaVuSans-69" x="57.958984"/>
      <use xlink:href="#DejaVuSans-6d" x="85.742188"/>
      <use xlink:href="#DejaVuSans-65" x="183.154297"/>
     </g>
    </g>
   </g>
   <g id="matplotlib.axis_2">
    <g id="ytick_1">
     <g id="line2d_10">
      <defs>
       <path id="me458549479" d="M 0 0 
L -3.5 0 
" style="stroke: #000000; stroke-width: 0.8"/>
      </defs>
      <g>
       <use xlink:href="#me458549479" x="585" y="866.136805" style="stroke: #000000; stroke-width: 0.8"/>
      </g>
     </g>
     <g id="text_11">
      <!-- −0.002 -->
      <g transform="translate(503.984375 873.735242) scale(0.2 -0.2)">
       <defs>
        <path id="DejaVuSans-2212" d="M 678 2272 
L 4684 2272 
L 4684 1741 
L 678 1741 
L 678 2272 
z
" transform="scale(0.015625)"/>
        <path id="DejaVuSans-2e" d="M 684 794 
L 1344 794 
L 1344 0 
L 684 0 
L 684 794 
z
" transform="scale(0.015625)"/>
       </defs>
       <use xlink:href="#DejaVuSans-2212"/>
       <use xlink:href="#DejaVuSans-30" x="83.789062"/>
       <use xlink:href="#DejaVuSans-2e" x="147.412109"/>
       <use xlink:href="#DejaVuSans-30" x="179.199219"/>
       <use xlink:href="#DejaVuSans-30" x="242.822266"/>
       <use xlink:href="#DejaVuSans-32" x="306.445312"/>
      </g>
     </g>
    </g>
    <g id="ytick_2">
     <g id="line2d_11">
      <g>
       <use xlink:href="#me458549479" x="585" y="759.835902" style="stroke: #000000; stroke-width: 0.8"/>
      </g>
     </g>
     <g id="text_12">
      <!-- 0.000 -->
      <g transform="translate(520.74375 767.434339) scale(0.2 -0.2)">
       <use xlink:href="#DejaVuSans-30"/>
       <use xlink:href="#DejaVuSans-2e" x="63.623047"/>
       <use xlink:href="#DejaVuSans-30" x="95.410156"/>
       <use xlink:href="#DejaVuSans-30" x="159.033203"/>
       <use xlink:href="#DejaVuSans-30" x="222.65625"/>
      </g>
     </g>
    </g>
    <g id="ytick_3">
     <g id="line2d_12">
      <g>
       <use xlink:href="#me458549479" x="585" y="653.534999" style="stroke: #000000; stroke-width: 0.8"/>
      </g>
     </g>
     <g id="text_13">
      <!-- 0.002 -->
      <g transform="translate(520.74375 661.133437) scale(0.2 -0.2)">
       <use xlink:href="#DejaVuSans-30"/>
       <use xlink:href="#DejaVuSans-2e" x="63.623047"/>
       <use xlink:href="#DejaVuSans-30" x="95.410156"/>
       <use xlink:href="#DejaVuSans-30" x="159.033203"/>
       <use xlink:href="#DejaVuSans-32" x="222.65625"/>
      </g>
     </g>
    </g>
    <g id="ytick_4">
     <g id="line2d_13">
      <g>
       <use xlink:href="#me458549479" x="585" y="547.234097" style="stroke: #000000; stroke-width: 0.8"/>
      </g>
     </g>
     <g id="text_14">
      <!-- 0.004 -->
      <g transform="translate(520.74375 554.832534) scale(0.2 -0.2)">
       <use xlink:href="#DejaVuSans-30"/>
       <use xlink:href="#DejaVuSans-2e" x="63.623047"/>
       <use xlink:href="#DejaVuSans-30" x="95.410156"/>
       <use xlink:href="#DejaVuSans-30" x="159.033203"/>
       <use xlink:href="#DejaVuSans-34" x="222.65625"/>
      </g>
     </g>
    </g>
    <g id="ytick_5">
     <g id="line2d_14">
      <g>
       <use xlink:href="#me458549479" x="585" y="440.933194" style="stroke: #000000; stroke-width: 0.8"/>
      </g>
     </g>
     <g id="text_15">
      <!-- 0.006 -->
      <g transform="translate(520.74375 448.531632) scale(0.2 -0.2)">
       <use xlink:href="#DejaVuSans-30"/>
       <use xlink:href="#DejaVuSans-2e" x="63.623047"/>
       <use xlink:href="#DejaVuSans-30" x="95.410156"/>
       <use xlink:href="#DejaVuSans-30" x="159.033203"/>
       <use xlink:href="#DejaVuSans-36" x="222.65625"/>
      </g>
     </g>
    </g>
    <g id="ytick_6">
     <g id="line2d_15">
      <g>
       <use xlink:href="#me458549479" x="585" y="334.632292" style="stroke: #000000; stroke-width: 0.8"/>
      </g>
     </g>
     <g id="text_16">
      <!-- 0.008 -->
      <g transform="translate(520.74375 342.230729) scale(0.2 -0.2)">
       <defs>
        <path id="DejaVuSans-38" d="M 2034 2216 
Q 1584 2216 1326 1975 
Q 1069 1734 1069 1313 
Q 1069 891 1326 650 
Q 1584 409 2034 409 
Q 2484 409 2743 651 
Q 3003 894 3003 1313 
Q 3003 1734 2745 1975 
Q 2488 2216 2034 2216 
z
M 1403 2484 
Q 997 2584 770 2862 
Q 544 3141 544 3541 
Q 544 4100 942 4425 
Q 1341 4750 2034 4750 
Q 2731 4750 3128 4425 
Q 3525 4100 3525 3541 
Q 3525 3141 3298 2862 
Q 3072 2584 2669 2484 
Q 3125 2378 3379 2068 
Q 3634 1759 3634 1313 
Q 3634 634 3220 271 
Q 2806 -91 2034 -91 
Q 1263 -91 848 271 
Q 434 634 434 1313 
Q 434 1759 690 2068 
Q 947 2378 1403 2484 
z
M 1172 3481 
Q 1172 3119 1398 2916 
Q 1625 2713 2034 2713 
Q 2441 2713 2670 2916 
Q 2900 3119 2900 3481 
Q 2900 3844 2670 4047 
Q 2441 4250 2034 4250 
Q 1625 4250 1398 4047 
Q 1172 3844 1172 3481 
z
" transform="scale(0.015625)"/>
       </defs>
       <use xlink:href="#DejaVuSans-30"/>
       <use xlink:href="#DejaVuSans-2e" x="63.623047"/>
       <use xlink:href="#DejaVuSans-30" x="95.410156"/>
       <use xlink:href="#DejaVuSans-30" x="159.033203"/>
       <use xlink:href="#DejaVuSans-38" x="222.65625"/>
      </g>
     </g>
    </g>
    <g id="ytick_7">
     <g id="line2d_16">
      <g>
       <use xlink:href="#me458549479" x="585" y="228.331389" style="stroke: #000000; stroke-width: 0.8"/>
      </g>
     </g>
     <g id="text_17">
      <!-- 0.010 -->
      <g transform="translate(520.74375 235.929827) scale(0.2 -0.2)">
       <use xlink:href="#DejaVuSans-30"/>
       <use xlink:href="#DejaVuSans-2e" x="63.623047"/>
       <use xlink:href="#DejaVuSans-30" x="95.410156"/>
       <use xlink:href="#DejaVuSans-31" x="159.033203"/>
       <use xlink:href="#DejaVuSans-30" x="222.65625"/>
      </g>
     </g>
    </g>
    <g id="text_18">
     <!-- East(m) -->
     <g transform="translate(495.825 584.520313) rotate(-90) scale(0.2 -0.2)">
      <defs>
       <path id="DejaVuSans-45" d="M 628 4666 
L 3578 4666 
L 3578 4134 
L 1259 4134 
L 1259 2753 
L 3481 2753 
L 3481 2222 
L 1259 2222 
L 1259 531 
L 3634 531 
L 3634 0 
L 628 0 
L 628 4666 
z
" transform="scale(0.015625)"/>
       <path id="DejaVuSans-61" d="M 2194 1759 
Q 1497 1759 1228 1600 
Q 959 1441 959 1056 
Q 959 750 1161 570 
Q 1363 391 1709 391 
Q 2188 391 2477 730 
Q 2766 1069 2766 1631 
L 2766 1759 
L 2194 1759 
z
M 3341 1997 
L 3341 0 
L 2766 0 
L 2766 531 
Q 2569 213 2275 61 
Q 1981 -91 1556 -91 
Q 1019 -91 701 211 
Q 384 513 384 1019 
Q 384 1609 779 1909 
Q 1175 2209 1959 2209 
L 2766 2209 
L 2766 2266 
Q 2766 2663 2505 2880 
Q 2244 3097 1772 3097 
Q 1472 3097 1187 3025 
Q 903 2953 641 2809 
L 641 3341 
Q 956 3463 1253 3523 
Q 1550 3584 1831 3584 
Q 2591 3584 2966 3190 
Q 3341 2797 3341 1997 
z
" transform="scale(0.015625)"/>
       <path id="DejaVuSans-73" d="M 2834 3397 
L 2834 2853 
Q 2591 2978 2328 3040 
Q 2066 3103 1784 3103 
Q 1356 3103 1142 2972 
Q 928 2841 928 2578 
Q 928 2378 1081 2264 
Q 1234 2150 1697 2047 
L 1894 2003 
Q 2506 1872 2764 1633 
Q 3022 1394 3022 966 
Q 3022 478 2636 193 
Q 2250 -91 1575 -91 
Q 1294 -91 989 -36 
Q 684 19 347 128 
L 347 722 
Q 666 556 975 473 
Q 1284 391 1588 391 
Q 1994 391 2212 530 
Q 2431 669 2431 922 
Q 2431 1156 2273 1281 
Q 2116 1406 1581 1522 
L 1381 1569 
Q 847 1681 609 1914 
Q 372 2147 372 2553 
Q 372 3047 722 3315 
Q 1072 3584 1716 3584 
Q 2034 3584 2315 3537 
Q 2597 3491 2834 3397 
z
" transform="scale(0.015625)"/>
       <path id="DejaVuSans-74" d="M 1172 4494 
L 1172 3500 
L 2356 3500 
L 2356 3053 
L 1172 3053 
L 1172 1153 
Q 1172 725 1289 603 
Q 1406 481 1766 481 
L 2356 481 
L 2356 0 
L 1766 0 
Q 1100 0 847 248 
Q 594 497 594 1153 
L 594 3053 
L 172 3053 
L 172 3500 
L 594 3500 
L 594 4494 
L 1172 4494 
z
" transform="scale(0.015625)"/>
       <path id="DejaVuSans-28" d="M 1984 4856 
Q 1566 4138 1362 3434 
Q 1159 2731 1159 2009 
Q 1159 1288 1364 580 
Q 1569 -128 1984 -844 
L 1484 -844 
Q 1016 -109 783 600 
Q 550 1309 550 2009 
Q 550 2706 781 3412 
Q 1013 4119 1484 4856 
L 1984 4856 
z
" transform="scale(0.015625)"/>
       <path id="DejaVuSans-29" d="M 513 4856 
L 1013 4856 
Q 1481 4119 1714 3412 
Q 1947 2706 1947 2009 
Q 1947 1309 1714 600 
Q 1481 -109 1013 -844 
L 513 -844 
Q 928 -128 1133 580 
Q 1338 1288 1338 2009 
Q 1338 2731 1133 3434 
Q 928 4138 513 4856 
z
" transform="scale(0.015625)"/>
      </defs>
      <use xlink:href="#DejaVuSans-45"/>
      <use xlink:href="#DejaVuSans-61" x="63.183594"/>
      <use xlink:href="#DejaVuSans-73" x="124.462891"/>
      <use xlink:href="#DejaVuSans-74" x="176.5625"/>
      <use xlink:href="#DejaVuSans-28" x="215.771484"/>
      <use xlink:href="#DejaVuSans-6d" x="254.785156"/>
      <use xlink:href="#DejaVuSans-29" x="352.197266"/>
     </g>
    </g>
   </g>
   <g id="line2d_17">
    <path d="M 749.863636 679.803141 
L 753.904412 641.596188 
L 755.924799 612.648326 
L 761.985963 547.831535 
L 764.00635 543.55971 
L 766.026738 528.862023 
L 768.047126 522.90164 
L 770.067513 513.545746 
L 772.087901 526.708243 
L 774.108289 528.770782 
L 776.128676 534.67449 
L 790.27139 511.502986 
L 792.291778 509.783068 
L 794.312166 501.259608 
L 796.332553 509.262512 
L 798.352941 513.952276 
L 800.373329 523.184777 
L 802.393717 528.907122 
L 806.434492 553.213686 
L 808.45488 553.777982 
L 810.475267 572.465954 
L 812.495655 546.727855 
L 824.617981 519.929667 
L 830.679144 540.120959 
L 832.699532 543.319067 
L 834.71992 556.933286 
L 836.740307 569.183899 
L 844.821858 586.997243 
L 850.883021 602.627611 
L 852.903409 589.401213 
L 854.923797 573.890549 
L 856.944184 572.700199 
L 860.98496 562.704735 
L 863.005348 564.930979 
L 865.025735 572.331733 
L 867.046123 589.41548 
L 869.066511 587.888196 
L 873.107286 607.708944 
L 875.127674 603.764531 
L 877.148061 595.102668 
L 879.168449 594.267661 
L 885.229612 599.488778 
L 889.270388 596.388527 
L 891.290775 605.842268 
L 893.311163 605.185455 
L 895.331551 605.105563 
L 897.351939 597.596511 
L 899.372326 615.877581 
L 901.392714 624.196036 
L 903.413102 619.628221 
L 905.433489 611.582943 
L 907.453877 610.021496 
L 909.474265 604.631355 
L 913.51504 584.771444 
L 915.535428 580.126686 
L 917.555816 578.72867 
L 921.596591 608.807772 
L 933.718917 620.809527 
L 937.759693 623.947517 
L 1044.840241 730.651585 
L 1046.860628 732.218219 
L 1048.881016 736.226354 
L 1212.53242 823.607399 
L 1214.552807 827.311921 
L 1216.573195 833.455392 
L 1226.675134 854.266024 
L 1230.715909 839.48304 
L 1232.736297 827.192667 
L 1234.756684 828.491324 
L 1236.777072 829.497278 
L 1238.79746 840.104885 
L 1240.817848 829.816097 
L 1242.838235 821.017426 
L 1333.755682 792.112595 
L 1335.77607 759.307087 
L 1337.796457 722.770177 
L 1341.837233 642.505682 
L 1372.143048 634.618593 
L 1374.163436 632.021612 
L 1376.183824 647.643798 
L 1378.204211 657.469598 
L 1382.244987 655.6173 
L 1384.265374 651.685473 
L 1386.285762 651.775467 
L 1388.30615 647.409595 
L 1390.326537 635.205677 
L 1392.346925 617.558167 
L 1394.367313 608.432676 
L 1402.448864 591.765487 
L 1404.469251 592.162426 
L 1406.489639 607.062682 
L 1412.550802 666.105097 
L 1414.57119 672.129059 
L 1416.591578 667.335947 
L 1418.611965 678.328196 
L 1420.632353 680.614066 
L 1424.673128 689.782037 
L 1426.693516 699.938547 
L 1428.713904 708.799766 
L 1432.754679 716.327926 
L 1434.775067 725.931768 
L 1436.795455 711.500796 
L 1444.877005 684.115254 
L 1446.897393 686.02195 
L 1454.978944 712.240639 
L 1456.999332 723.489125 
L 1459.019719 719.040358 
L 1461.040107 710.650168 
L 1463.060495 743.271797 
L 1465.080882 738.014694 
L 1469.121658 740.283951 
L 1471.142045 747.835647 
L 1473.162433 724.26633 
L 1475.182821 721.258748 
L 1479.223596 731.914926 
L 1481.243984 735.149747 
L 1483.264372 741.409724 
L 1485.284759 733.972943 
L 1487.305147 757.203484 
L 1489.325535 771.230501 
L 1491.345922 770.536024 
L 1493.36631 766.294672 
L 1495.386698 761.441646 
L 1497.407086 744.004491 
L 1501.447861 728.177964 
L 1669.14004 632.498452 
L 1673.180816 595.147599 
L 1677.221591 596.804495 
L 1681.262366 573.119779 
L 1683.282754 577.208569 
L 1689.343917 571.890619 
L 1691.364305 565.548388 
L 1693.384693 569.428684 
L 1697.425468 554.776287 
L 1699.445856 550.430562 
L 1701.466243 563.665163 
L 1703.486631 578.304651 
L 1705.507019 575.322801 
L 1707.527406 581.34835 
L 1719.649733 621.133619 
L 1723.690508 605.767439 
L 1725.710896 587.355436 
L 1727.731283 598.284386 
L 1729.751671 590.874771 
L 1731.772059 599.320228 
L 1735.812834 640.457233 
L 1737.833222 646.340902 
L 1739.85361 658.250932 
L 1741.873997 662.645314 
L 1743.894385 662.99168 
L 1749.955548 652.314226 
L 1751.975936 654.122063 
L 1753.996324 665.787699 
L 1756.016711 662.151455 
L 1758.037099 662.945104 
L 1766.11865 673.580931 
L 1768.139037 681.376174 
L 1780.261364 686.687368 
L 1782.281751 668.017318 
L 1784.302139 680.617602 
L 1786.322527 692.418347 
L 1788.342914 714.930705 
L 1790.363302 740.338251 
L 1792.38369 733.508991 
L 1794.404078 751.456111 
L 1796.424465 760.76123 
L 1806.526404 773.753182 
L 1808.546791 754.190276 
L 1810.567179 752.651482 
L 1812.587567 733.223708 
L 1814.607955 727.682017 
L 1816.628342 718.423615 
L 1818.64873 716.611237 
L 1822.689505 722.623345 
L 1824.709893 733.140134 
L 1826.730281 741.685961 
L 1828.750668 740.43285 
L 1830.771056 745.147118 
L 1832.791444 753.79318 
L 1834.811832 757.633103 
L 1836.832219 764.567582 
L 1838.852607 768.354653 
L 1954.014706 826.460692 
L 1958.055481 857.661439 
L 1960.075869 859.299324 
L 1962.096257 840.669221 
L 1964.116644 812.686958 
L 1966.137032 814.179719 
L 1968.15742 802.500496 
L 1970.177807 809.810871 
L 1980.279746 889.32464 
L 1982.300134 895.360179 
L 1988.361297 861.651876 
L 1990.381684 835.115421 
L 1992.402072 832.507155 
L 1994.42246 827.158498 
L 1996.442848 821.410156 
L 2000.483623 789.651384 
L 2073.21758 898.345661 
L 2075.237968 900.867864 
L 2079.278743 923.4 
L 2081.299131 899.078279 
L 2109.584559 853.901978 
L 2438.907754 614.774921 
L 2440.928142 618.124245 
L 2442.948529 612.399308 
L 2444.968917 599.52421 
L 2449.009693 642.370841 
L 2467.193182 652.249812 
L 3178.369652 206.005759 
L 3180.39004 217.576815 
L 3182.410428 187.051667 
L 3184.430816 173.194997 
L 3186.451203 176.314959 
L 3188.471591 167.4 
L 3194.532754 187.478538 
L 3206.65508 262.590976 
L 3210.695856 260.041586 
L 3212.716243 230.451866 
L 3214.736631 240.653622 
L 3216.757019 225.613138 
L 3220.797794 214.714872 
L 3228.879345 198.804363 
L 3230.899733 211.242162 
L 3253.123997 271.654478 
L 3257.164773 278.376994 
L 3259.18516 282.68339 
L 3261.205548 277.29032 
L 3265.246324 255.067369 
L 3267.266711 252.296676 
L 3269.287099 227.120883 
L 3277.36865 237.039008 
L 3285.450201 287.627662 
L 3287.470588 280.585757 
L 3289.490976 286.898912 
L 3291.511364 289.294639 
L 3293.531751 278.280137 
L 3295.552139 263.780656 
L 3297.572527 267.938352 
L 3299.592914 252.283903 
L 3301.613302 252.66338 
L 3303.63369 260.627124 
L 3309.694853 289.967613 
L 3315.756016 278.051933 
L 3317.776404 282.207144 
L 3319.796791 285.183987 
L 3321.817179 259.357477 
L 3323.837567 259.35487 
L 3325.857955 261.805439 
L 3327.878342 269.635486 
L 3329.89873 281.605251 
L 3331.919118 273.791894 
L 3340.000668 316.694331 
L 3342.021056 310.286414 
L 3344.041444 314.838508 
L 3346.061832 314.176092 
L 3350.102607 323.1009 
L 3352.122995 333.196482 
L 3354.143382 318.148532 
L 3356.16377 331.400886 
L 3358.184158 315.510921 
L 3360.204545 314.291737 
L 3362.224933 291.96286 
L 3364.245321 283.763612 
L 3366.265709 273.011086 
L 3368.286096 284.570007 
L 3370.306484 287.277422 
L 3372.326872 301.689723 
L 3376.367647 342.965345 
L 3400.612299 306.700327 
L 3402.632687 315.745811 
L 3404.653075 309.151076 
L 3406.673463 312.650921 
L 3410.714238 289.213677 
L 3412.734626 275.37078 
L 3414.755013 282.166129 
L 3416.775401 282.278109 
L 3418.795789 276.736958 
L 3420.816176 278.829206 
L 3422.836564 267.58771 
L 3424.856952 273.15774 
L 3426.87734 280.541107 
L 3428.897727 278.514717 
L 3430.918115 286.456145 
L 3432.938503 299.773119 
L 3434.95889 292.843729 
L 3436.979278 280.603139 
L 3438.999666 253.950519 
L 3441.020053 244.673606 
L 3443.040441 248.446507 
L 3445.060829 228.082304 
L 3447.081217 212.559317 
L 3449.101604 201.49581 
L 3451.121992 221.805856 
L 3453.14238 250.263386 
L 3455.162767 258.662795 
L 3457.183155 250.537189 
L 3459.203543 267.359141 
L 3461.22393 267.253921 
L 3463.244318 280.24771 
L 3465.264706 287.234048 
L 3467.285094 291.202995 
L 3469.305481 285.226623 
L 3471.325869 289.638778 
L 3473.346257 280.136194 
L 3475.366644 283.292514 
L 3477.387032 281.225566 
L 3479.40742 277.87265 
L 3481.427807 269.582982 
L 3483.448195 292.634816 
L 3485.468583 298.012416 
L 3487.488971 299.450521 
L 3489.509358 294.596182 
L 3491.529746 289.008201 
L 3493.550134 290.380744 
L 3497.590909 279.790632 
L 3499.611297 277.779528 
L 3501.631684 284.659436 
L 3503.652072 301.970634 
L 3505.67246 307.593816 
L 3507.692848 309.006832 
L 3509.713235 305.737628 
L 3511.733623 301.831631 
L 3513.754011 307.489976 
L 3515.774398 307.661835 
L 3517.794786 306.331495 
L 3519.815174 317.469971 
L 3521.835561 315.3172 
L 3523.855949 322.175698 
L 3527.896725 313.643593 
L 3529.917112 301.202159 
L 3531.9375 300.605835 
L 3533.957888 296.053084 
L 3535.978275 298.111027 
L 3537.998663 310.914826 
L 3540.019051 309.974159 
L 3542.039439 315.262257 
L 3544.059826 329.679139 
L 3548.100602 348.899575 
L 3550.120989 352.010267 
L 3552.141377 340.76086 
L 3554.161765 349.666036 
L 3556.182152 359.858069 
L 3558.20254 359.440702 
L 3560.222928 350.523296 
L 3562.243316 336.644085 
L 3564.263703 332.451273 
L 3566.284091 325.57559 
L 3568.304479 311.332776 
L 3570.324866 315.399464 
L 3572.345254 312.060333 
L 3582.447193 382.829013 
L 3584.46758 385.189939 
L 3586.487968 385.571833 
L 3590.528743 362.585307 
L 3592.549131 373.97011 
L 3594.569519 374.330064 
L 3596.589906 356.126991 
L 3598.610294 344.225929 
L 3600.630682 344.655485 
L 3602.65107 377.317844 
L 3604.671457 372.307235 
L 3647.099599 454.002499 
L 3649.119987 457.27124 
L 3653.160762 472.180651 
L 3659.221925 407.457808 
L 3661.242313 399.088403 
L 3663.262701 393.214142 
L 3665.283088 383.673197 
L 3667.303476 373.370659 
L 3669.323864 374.185019 
L 3671.344251 392.673552 
L 3673.364639 389.679353 
L 3675.385027 383.570097 
L 3677.405414 386.340327 
L 3679.425802 390.341668 
L 3681.44619 392.640346 
L 3683.466578 403.449747 
L 3685.486965 398.705534 
L 3687.507353 398.884534 
L 3689.527741 392.753953 
L 3691.548128 393.243191 
L 3693.568516 388.891521 
L 3695.588904 392.381029 
L 3697.609291 382.162826 
L 3703.670455 423.08497 
L 3705.690842 424.575786 
L 3707.71123 420.905585 
L 3711.752005 448.365356 
L 3713.772393 461.15825 
L 3715.792781 446.008228 
L 3717.813168 469.636356 
L 3719.833556 477.143942 
L 3721.853944 497.407227 
L 3723.874332 498.533324 
L 3725.894719 510.223392 
L 3727.915107 510.252115 
L 3729.935495 516.296111 
L 3733.97627 517.933898 
L 3735.996658 509.503038 
L 3738.017045 513.667194 
L 3740.037433 501.818529 
L 3744.078209 497.0685 
L 3746.098596 501.952422 
L 3748.118984 488.727771 
L 3750.139372 488.985525 
L 3752.159759 489.94089 
L 3756.200535 507.201664 
L 3758.220922 511.542804 
L 3760.24131 491.713176 
L 3762.261698 483.630357 
L 3764.282086 478.943953 
L 3766.302473 456.645994 
L 3768.322861 440.524842 
L 3772.363636 440.741728 
L 3774.384024 454.322294 
L 3776.404412 477.022893 
L 3778.424799 487.481417 
L 3780.445187 490.205692 
L 3786.50635 466.876366 
L 3788.526738 478.163432 
L 3790.547126 471.419854 
L 3792.567513 475.588222 
L 3794.587901 508.944577 
L 3796.608289 535.842095 
L 3798.628676 548.680243 
L 3952.178142 548.26412 
L 3954.198529 545.950698 
L 3956.218917 555.115696 
L 3958.239305 557.263179 
L 3960.259693 544.210946 
L 3970.361631 534.398714 
L 3972.382019 546.634438 
L 3978.443182 561.069596 
L 3980.46357 543.898579 
L 3982.483957 550.175665 
L 3984.504345 546.640411 
L 3986.524733 534.446943 
L 3988.54512 539.858695 
L 3990.565508 543.319322 
L 3996.626671 570.16771 
L 4002.687834 564.041435 
L 4004.708222 571.53778 
L 4006.72861 559.123111 
L 4008.748997 561.690069 
L 4010.769385 561.042217 
L 4014.81016 586.636238 
L 4016.830548 584.77301 
L 4018.850936 583.87073 
L 4020.871324 593.109602 
L 4030.973262 635.352644 
L 4032.99365 630.09783 
L 4035.014037 634.952354 
L 4037.034425 631.092906 
L 4039.054813 638.487273 
L 4041.075201 628.47721 
L 4043.095588 619.508909 
L 4045.115976 611.715266 
L 4047.136364 623.656633 
L 4047.136364 623.656633 
" clip-path="url(#pd9670ef06a)" style="fill: none; stroke: #023eff; stroke-width: 2.5; stroke-linecap: square"/>
   </g>
   <g id="patch_3">
    <path d="M 585 961.2 
L 585 129.6 
" style="fill: none; stroke: #000000; stroke-width: 0.8; stroke-linejoin: miter; stroke-linecap: square"/>
   </g>
   <g id="patch_4">
    <path d="M 4212 961.2 
L 4212 129.6 
" style="fill: none; stroke: #000000; stroke-width: 0.8; stroke-linejoin: miter; stroke-linecap: square"/>
   </g>
   <g id="patch_5">
    <path d="M 585 961.2 
L 4212 961.2 
" style="fill: none; stroke: #000000; stroke-width: 0.8; stroke-linejoin: miter; stroke-linecap: square"/>
   </g>
   <g id="patch_6">
    <path d="M 585 129.6 
L 4212 129.6 
" style="fill: none; stroke: #000000; stroke-width: 0.8; stroke-linejoin: miter; stroke-linecap: square"/>
   </g>
   <g id="text_19">
    <!-- MGRD -->
    <g transform="translate(2351.9625 123.360937) scale(0.3 -0.3)">
     <defs>
      <path id="DejaVuSans-4d" d="M 628 4666 
L 1569 4666 
L 2759 1491 
L 3956 4666 
L 4897 4666 
L 4897 0 
L 4281 0 
L 4281 4097 
L 3078 897 
L 2444 897 
L 1241 4097 
L 1241 0 
L 628 0 
L 628 4666 
z
" transform="scale(0.015625)"/>
      <path id="DejaVuSans-47" d="M 3809 666 
L 3809 1919 
L 2778 1919 
L 2778 2438 
L 4434 2438 
L 4434 434 
Q 4069 175 3628 42 
Q 3188 -91 2688 -91 
Q 1594 -91 976 548 
Q 359 1188 359 2328 
Q 359 3472 976 4111 
Q 1594 4750 2688 4750 
Q 3144 4750 3555 4637 
Q 3966 4525 4313 4306 
L 4313 3634 
Q 3963 3931 3569 4081 
Q 3175 4231 2741 4231 
Q 1884 4231 1454 3753 
Q 1025 3275 1025 2328 
Q 1025 1384 1454 906 
Q 1884 428 2741 428 
Q 3075 428 3337 486 
Q 3600 544 3809 666 
z
" transform="scale(0.015625)"/>
      <path id="DejaVuSans-52" d="M 2841 2188 
Q 3044 2119 3236 1894 
Q 3428 1669 3622 1275 
L 4263 0 
L 3584 0 
L 2988 1197 
Q 2756 1666 2539 1819 
Q 2322 1972 1947 1972 
L 1259 1972 
L 1259 0 
L 628 0 
L 628 4666 
L 2053 4666 
Q 2853 4666 3247 4331 
Q 3641 3997 3641 3322 
Q 3641 2881 3436 2590 
Q 3231 2300 2841 2188 
z
M 1259 4147 
L 1259 2491 
L 2053 2491 
Q 2509 2491 2742 2702 
Q 2975 2913 2975 3322 
Q 2975 3731 2742 3939 
Q 2509 4147 2053 4147 
L 1259 4147 
z
" transform="scale(0.015625)"/>
      <path id="DejaVuSans-44" d="M 1259 4147 
L 1259 519 
L 2022 519 
Q 2988 519 3436 956 
Q 3884 1394 3884 2338 
Q 3884 3275 3436 3711 
Q 2988 4147 2022 4147 
L 1259 4147 
z
M 628 4666 
L 1925 4666 
Q 3281 4666 3915 4102 
Q 4550 3538 4550 2338 
Q 4550 1131 3912 565 
Q 3275 0 1925 0 
L 628 0 
L 628 4666 
z
" transform="scale(0.015625)"/>
     </defs>
     <use xlink:href="#DejaVuSans-4d"/>
     <use xlink:href="#DejaVuSans-47" x="86.279297"/>
     <use xlink:href="#DejaVuSans-52" x="163.769531"/>
     <use xlink:href="#DejaVuSans-44" x="233.251953"/>
    </g>
   </g>
   <g id="legend_1">
    <g id="patch_7">
     <path d="M 4146.626562 152.278125 
L 4205 152.278125 
Q 4207 152.278125 4207 150.278125 
L 4207 136.6 
Q 4207 134.6 4205 134.6 
L 4146.626562 134.6 
Q 4144.626562 134.6 4144.626562 136.6 
L 4144.626562 150.278125 
Q 4144.626562 152.278125 4146.626562 152.278125 
z
" style="fill: #ffffff; opacity: 0.8; stroke: #cccccc; stroke-linejoin: miter"/>
    </g>
    <g id="line2d_18">
     <path d="M 4148.626562 142.698438 
L 4158.626562 142.698438 
L 4168.626562 142.698438 
" style="fill: none; stroke: #023eff; stroke-width: 2.5; stroke-linecap: square"/>
    </g>
    <g id="text_20">
     <!-- mgrd -->
     <g transform="translate(4176.626562 146.198438) scale(0.1 -0.1)">
      <defs>
       <path id="DejaVuSans-67" d="M 2906 1791 
Q 2906 2416 2648 2759 
Q 2391 3103 1925 3103 
Q 1463 3103 1205 2759 
Q 947 2416 947 1791 
Q 947 1169 1205 825 
Q 1463 481 1925 481 
Q 2391 481 2648 825 
Q 2906 1169 2906 1791 
z
M 3481 434 
Q 3481 -459 3084 -895 
Q 2688 -1331 1869 -1331 
Q 1566 -1331 1297 -1286 
Q 1028 -1241 775 -1147 
L 775 -588 
Q 1028 -725 1275 -790 
Q 1522 -856 1778 -856 
Q 2344 -856 2625 -561 
Q 2906 -266 2906 331 
L 2906 616 
Q 2728 306 2450 153 
Q 2172 0 1784 0 
Q 1141 0 747 490 
Q 353 981 353 1791 
Q 353 2603 747 3093 
Q 1141 3584 1784 3584 
Q 2172 3584 2450 3431 
Q 2728 3278 2906 2969 
L 2906 3500 
L 3481 3500 
L 3481 434 
z
" transform="scale(0.015625)"/>
       <path id="DejaVuSans-72" d="M 2631 2963 
Q 2534 3019 2420 3045 
Q 2306 3072 2169 3072 
Q 1681 3072 1420 2755 
Q 1159 2438 1159 1844 
L 1159 0 
L 581 0 
L 581 3500 
L 1159 3500 
L 1159 2956 
Q 1341 3275 1631 3429 
Q 1922 3584 2338 3584 
Q 2397 3584 2469 3576 
Q 2541 3569 2628 3553 
L 2631 2963 
z
" transform="scale(0.015625)"/>
       <path id="DejaVuSans-64" d="M 2906 2969 
L 2906 4863 
L 3481 4863 
L 3481 0 
L 2906 0 
L 2906 525 
Q 2725 213 2448 61 
Q 2172 -91 1784 -91 
Q 1150 -91 751 415 
Q 353 922 353 1747 
Q 353 2572 751 3078 
Q 1150 3584 1784 3584 
Q 2172 3584 2448 3432 
Q 2725 3281 2906 2969 
z
M 947 1747 
Q 947 1113 1208 752 
Q 1469 391 1925 391 
Q 2381 391 2643 752 
Q 2906 1113 2906 1747 
Q 2906 2381 2643 2742 
Q 2381 3103 1925 3103 
Q 1469 3103 1208 2742 
Q 947 2381 947 1747 
z
" transform="scale(0.015625)"/>
      </defs>
      <use xlink:href="#DejaVuSans-6d"/>
      <use xlink:href="#DejaVuSans-67" x="97.412109"/>
      <use xlink:href="#DejaVuSans-72" x="160.888672"/>
      <use xlink:href="#DejaVuSans-64" x="200.251953"/>
     </g>
    </g>
   </g>
  </g>
 </g>
 <defs>
  <clipPath id="pd9670ef06a">
   <rect x="585" y="129.6" width="3627" height="831.6"/>
  </clipPath>
 </defs>
</svg>
