<?xml version="1.0" encoding="utf-8" standalone="no"?>
<!DOCTYPE svg PUBLIC "-//W3C//DTD SVG 1.1//EN"
  "http://www.w3.org/Graphics/SVG/1.1/DTD/svg11.dtd">
<svg xmlns:xlink="http://www.w3.org/1999/xlink" width="4680pt" height="1080pt" viewBox="0 0 4680 1080" xmlns="http://www.w3.org/2000/svg" version="1.1">
 <metadata>
  <rdf:RDF xmlns:dc="http://purl.org/dc/elements/1.1/" xmlns:cc="http://creativecommons.org/ns#" xmlns:rdf="http://www.w3.org/1999/02/22-rdf-syntax-ns#">
   <cc:Work>
    <dc:type rdf:resource="http://purl.org/dc/dcmitype/StillImage"/>
    <dc:date>2024-03-25T14:09:20.801998</dc:date>
    <dc:format>image/svg+xml</dc:format>
    <dc:creator>
     <cc:Agent>
      <dc:title>Matplotlib v3.7.2, https://matplotlib.org/</dc:title>
     </cc:Agent>
    </dc:creator>
   </cc:Work>
  </rdf:RDF>
 </metadata>
 <defs>
  <style type="text/css">*{stroke-linejoin: round; stroke-linecap: butt}</style>
 </defs>
 <g id="figure_1">
  <g id="patch_1">
   <path d="M 0 1080 
L 4680 1080 
L 4680 0 
L 0 0 
z
" style="fill: #ffffff"/>
  </g>
  <g id="axes_1">
   <g id="patch_2">
    <path d="M 585 961.2 
L 4212 961.2 
L 4212 129.6 
L 585 129.6 
z
" style="fill: #ffffff"/>
   </g>
   <g id="matplotlib.axis_1">
    <g id="xtick_1">
     <g id="line2d_1">
      <defs>
       <path id="mf1d6f4a247" d="M 0 0 
L 0 3.5 
" style="stroke: #000000; stroke-width: 0.8"/>
      </defs>
      <g>
       <use xlink:href="#mf1d6f4a247" x="941.800468" y="961.2" style="stroke: #000000; stroke-width: 0.8"/>
      </g>
     </g>
     <g id="text_1">
      <!-- 2012-07 -->
      <g transform="translate(900.017655 983.396875) scale(0.2 -0.2)">
       <defs>
        <path id="DejaVuSans-32" d="M 1228 531 
L 3431 531 
L 3431 0 
L 469 0 
L 469 531 
Q 828 903 1448 1529 
Q 2069 2156 2228 2338 
Q 2531 2678 2651 2914 
Q 2772 3150 2772 3378 
Q 2772 3750 2511 3984 
Q 2250 4219 1831 4219 
Q 1534 4219 1204 4116 
Q 875 4013 500 3803 
L 500 4441 
Q 881 4594 1212 4672 
Q 1544 4750 1819 4750 
Q 2544 4750 2975 4387 
Q 3406 4025 3406 3419 
Q 3406 3131 3298 2873 
Q 3191 2616 2906 2266 
Q 2828 2175 2409 1742 
Q 1991 1309 1228 531 
z
" transform="scale(0.015625)"/>
        <path id="DejaVuSans-30" d="M 2034 4250 
Q 1547 4250 1301 3770 
Q 1056 3291 1056 2328 
Q 1056 1369 1301 889 
Q 1547 409 2034 409 
Q 2525 409 2770 889 
Q 3016 1369 3016 2328 
Q 3016 3291 2770 3770 
Q 2525 4250 2034 4250 
z
M 2034 4750 
Q 2819 4750 3233 4129 
Q 3647 3509 3647 2328 
Q 3647 1150 3233 529 
Q 2819 -91 2034 -91 
Q 1250 -91 836 529 
Q 422 1150 422 2328 
Q 422 3509 836 4129 
Q 1250 4750 2034 4750 
z
" transform="scale(0.015625)"/>
        <path id="DejaVuSans-31" d="M 794 531 
L 1825 531 
L 1825 4091 
L 703 3866 
L 703 4441 
L 1819 4666 
L 2450 4666 
L 2450 531 
L 3481 531 
L 3481 0 
L 794 0 
L 794 531 
z
" transform="scale(0.015625)"/>
        <path id="DejaVuSans-2d" d="M 313 2009 
L 1997 2009 
L 1997 1497 
L 313 1497 
L 313 2009 
z
" transform="scale(0.015625)"/>
        <path id="DejaVuSans-37" d="M 525 4666 
L 3525 4666 
L 3525 4397 
L 1831 0 
L 1172 0 
L 2766 4134 
L 525 4134 
L 525 4666 
z
" transform="scale(0.015625)"/>
       </defs>
       <use xlink:href="#DejaVuSans-32"/>
       <use xlink:href="#DejaVuSans-30" x="63.623047"/>
       <use xlink:href="#DejaVuSans-31" x="127.246094"/>
       <use xlink:href="#DejaVuSans-32" x="190.869141"/>
       <use xlink:href="#DejaVuSans-2d" x="254.492188"/>
       <use xlink:href="#DejaVuSans-30" x="290.576172"/>
       <use xlink:href="#DejaVuSans-37" x="354.199219"/>
      </g>
     </g>
    </g>
    <g id="xtick_2">
     <g id="line2d_2">
      <g>
       <use xlink:href="#mf1d6f4a247" x="1313.551805" y="961.2" style="stroke: #000000; stroke-width: 0.8"/>
      </g>
     </g>
     <g id="text_2">
      <!-- 2013-01 -->
      <g transform="translate(1271.768992 983.396875) scale(0.2 -0.2)">
       <defs>
        <path id="DejaVuSans-33" d="M 2597 2516 
Q 3050 2419 3304 2112 
Q 3559 1806 3559 1356 
Q 3559 666 3084 287 
Q 2609 -91 1734 -91 
Q 1441 -91 1130 -33 
Q 819 25 488 141 
L 488 750 
Q 750 597 1062 519 
Q 1375 441 1716 441 
Q 2309 441 2620 675 
Q 2931 909 2931 1356 
Q 2931 1769 2642 2001 
Q 2353 2234 1838 2234 
L 1294 2234 
L 1294 2753 
L 1863 2753 
Q 2328 2753 2575 2939 
Q 2822 3125 2822 3475 
Q 2822 3834 2567 4026 
Q 2313 4219 1838 4219 
Q 1578 4219 1281 4162 
Q 984 4106 628 3988 
L 628 4550 
Q 988 4650 1302 4700 
Q 1616 4750 1894 4750 
Q 2613 4750 3031 4423 
Q 3450 4097 3450 3541 
Q 3450 3153 3228 2886 
Q 3006 2619 2597 2516 
z
" transform="scale(0.015625)"/>
       </defs>
       <use xlink:href="#DejaVuSans-32"/>
       <use xlink:href="#DejaVuSans-30" x="63.623047"/>
       <use xlink:href="#DejaVuSans-31" x="127.246094"/>
       <use xlink:href="#DejaVuSans-33" x="190.869141"/>
       <use xlink:href="#DejaVuSans-2d" x="254.492188"/>
       <use xlink:href="#DejaVuSans-30" x="290.576172"/>
       <use xlink:href="#DejaVuSans-31" x="354.199219"/>
      </g>
     </g>
    </g>
    <g id="xtick_3">
     <g id="line2d_3">
      <g>
       <use xlink:href="#mf1d6f4a247" x="1679.241979" y="961.2" style="stroke: #000000; stroke-width: 0.8"/>
      </g>
     </g>
     <g id="text_3">
      <!-- 2013-07 -->
      <g transform="translate(1637.459166 983.396875) scale(0.2 -0.2)">
       <use xlink:href="#DejaVuSans-32"/>
       <use xlink:href="#DejaVuSans-30" x="63.623047"/>
       <use xlink:href="#DejaVuSans-31" x="127.246094"/>
       <use xlink:href="#DejaVuSans-33" x="190.869141"/>
       <use xlink:href="#DejaVuSans-2d" x="254.492188"/>
       <use xlink:href="#DejaVuSans-30" x="290.576172"/>
       <use xlink:href="#DejaVuSans-37" x="354.199219"/>
      </g>
     </g>
    </g>
    <g id="xtick_4">
     <g id="line2d_4">
      <g>
       <use xlink:href="#mf1d6f4a247" x="2050.993316" y="961.2" style="stroke: #000000; stroke-width: 0.8"/>
      </g>
     </g>
     <g id="text_4">
      <!-- 2014-01 -->
      <g transform="translate(2009.210503 983.396875) scale(0.2 -0.2)">
       <defs>
        <path id="DejaVuSans-34" d="M 2419 4116 
L 825 1625 
L 2419 1625 
L 2419 4116 
z
M 2253 4666 
L 3047 4666 
L 3047 1625 
L 3713 1625 
L 3713 1100 
L 3047 1100 
L 3047 0 
L 2419 0 
L 2419 1100 
L 313 1100 
L 313 1709 
L 2253 4666 
z
" transform="scale(0.015625)"/>
       </defs>
       <use xlink:href="#DejaVuSans-32"/>
       <use xlink:href="#DejaVuSans-30" x="63.623047"/>
       <use xlink:href="#DejaVuSans-31" x="127.246094"/>
       <use xlink:href="#DejaVuSans-34" x="190.869141"/>
       <use xlink:href="#DejaVuSans-2d" x="254.492188"/>
       <use xlink:href="#DejaVuSans-30" x="290.576172"/>
       <use xlink:href="#DejaVuSans-31" x="354.199219"/>
      </g>
     </g>
    </g>
    <g id="xtick_5">
     <g id="line2d_5">
      <g>
       <use xlink:href="#mf1d6f4a247" x="2416.683489" y="961.2" style="stroke: #000000; stroke-width: 0.8"/>
      </g>
     </g>
     <g id="text_5">
      <!-- 2014-07 -->
      <g transform="translate(2374.900677 983.396875) scale(0.2 -0.2)">
       <use xlink:href="#DejaVuSans-32"/>
       <use xlink:href="#DejaVuSans-30" x="63.623047"/>
       <use xlink:href="#DejaVuSans-31" x="127.246094"/>
       <use xlink:href="#DejaVuSans-34" x="190.869141"/>
       <use xlink:href="#DejaVuSans-2d" x="254.492188"/>
       <use xlink:href="#DejaVuSans-30" x="290.576172"/>
       <use xlink:href="#DejaVuSans-37" x="354.199219"/>
      </g>
     </g>
    </g>
    <g id="xtick_6">
     <g id="line2d_6">
      <g>
       <use xlink:href="#mf1d6f4a247" x="2788.434826" y="961.2" style="stroke: #000000; stroke-width: 0.8"/>
      </g>
     </g>
     <g id="text_6">
      <!-- 2015-01 -->
      <g transform="translate(2746.652014 983.396875) scale(0.2 -0.2)">
       <defs>
        <path id="DejaVuSans-35" d="M 691 4666 
L 3169 4666 
L 3169 4134 
L 1269 4134 
L 1269 2991 
Q 1406 3038 1543 3061 
Q 1681 3084 1819 3084 
Q 2600 3084 3056 2656 
Q 3513 2228 3513 1497 
Q 3513 744 3044 326 
Q 2575 -91 1722 -91 
Q 1428 -91 1123 -41 
Q 819 9 494 109 
L 494 744 
Q 775 591 1075 516 
Q 1375 441 1709 441 
Q 2250 441 2565 725 
Q 2881 1009 2881 1497 
Q 2881 1984 2565 2268 
Q 2250 2553 1709 2553 
Q 1456 2553 1204 2497 
Q 953 2441 691 2322 
L 691 4666 
z
" transform="scale(0.015625)"/>
       </defs>
       <use xlink:href="#DejaVuSans-32"/>
       <use xlink:href="#DejaVuSans-30" x="63.623047"/>
       <use xlink:href="#DejaVuSans-31" x="127.246094"/>
       <use xlink:href="#DejaVuSans-35" x="190.869141"/>
       <use xlink:href="#DejaVuSans-2d" x="254.492188"/>
       <use xlink:href="#DejaVuSans-30" x="290.576172"/>
       <use xlink:href="#DejaVuSans-31" x="354.199219"/>
      </g>
     </g>
    </g>
    <g id="xtick_7">
     <g id="line2d_7">
      <g>
       <use xlink:href="#mf1d6f4a247" x="3154.125" y="961.2" style="stroke: #000000; stroke-width: 0.8"/>
      </g>
     </g>
     <g id="text_7">
      <!-- 2015-07 -->
      <g transform="translate(3112.342188 983.396875) scale(0.2 -0.2)">
       <use xlink:href="#DejaVuSans-32"/>
       <use xlink:href="#DejaVuSans-30" x="63.623047"/>
       <use xlink:href="#DejaVuSans-31" x="127.246094"/>
       <use xlink:href="#DejaVuSans-35" x="190.869141"/>
       <use xlink:href="#DejaVuSans-2d" x="254.492188"/>
       <use xlink:href="#DejaVuSans-30" x="290.576172"/>
       <use xlink:href="#DejaVuSans-37" x="354.199219"/>
      </g>
     </g>
    </g>
    <g id="xtick_8">
     <g id="line2d_8">
      <g>
       <use xlink:href="#mf1d6f4a247" x="3525.876337" y="961.2" style="stroke: #000000; stroke-width: 0.8"/>
      </g>
     </g>
     <g id="text_8">
      <!-- 2016-01 -->
      <g transform="translate(3484.093524 983.396875) scale(0.2 -0.2)">
       <defs>
        <path id="DejaVuSans-36" d="M 2113 2584 
Q 1688 2584 1439 2293 
Q 1191 2003 1191 1497 
Q 1191 994 1439 701 
Q 1688 409 2113 409 
Q 2538 409 2786 701 
Q 3034 994 3034 1497 
Q 3034 2003 2786 2293 
Q 2538 2584 2113 2584 
z
M 3366 4563 
L 3366 3988 
Q 3128 4100 2886 4159 
Q 2644 4219 2406 4219 
Q 1781 4219 1451 3797 
Q 1122 3375 1075 2522 
Q 1259 2794 1537 2939 
Q 1816 3084 2150 3084 
Q 2853 3084 3261 2657 
Q 3669 2231 3669 1497 
Q 3669 778 3244 343 
Q 2819 -91 2113 -91 
Q 1303 -91 875 529 
Q 447 1150 447 2328 
Q 447 3434 972 4092 
Q 1497 4750 2381 4750 
Q 2619 4750 2861 4703 
Q 3103 4656 3366 4563 
z
" transform="scale(0.015625)"/>
       </defs>
       <use xlink:href="#DejaVuSans-32"/>
       <use xlink:href="#DejaVuSans-30" x="63.623047"/>
       <use xlink:href="#DejaVuSans-31" x="127.246094"/>
       <use xlink:href="#DejaVuSans-36" x="190.869141"/>
       <use xlink:href="#DejaVuSans-2d" x="254.492188"/>
       <use xlink:href="#DejaVuSans-30" x="290.576172"/>
       <use xlink:href="#DejaVuSans-31" x="354.199219"/>
      </g>
     </g>
    </g>
    <g id="xtick_9">
     <g id="line2d_9">
      <g>
       <use xlink:href="#mf1d6f4a247" x="3893.586898" y="961.2" style="stroke: #000000; stroke-width: 0.8"/>
      </g>
     </g>
     <g id="text_9">
      <!-- 2016-07 -->
      <g transform="translate(3851.804086 983.396875) scale(0.2 -0.2)">
       <use xlink:href="#DejaVuSans-32"/>
       <use xlink:href="#DejaVuSans-30" x="63.623047"/>
       <use xlink:href="#DejaVuSans-31" x="127.246094"/>
       <use xlink:href="#DejaVuSans-36" x="190.869141"/>
       <use xlink:href="#DejaVuSans-2d" x="254.492188"/>
       <use xlink:href="#DejaVuSans-30" x="290.576172"/>
       <use xlink:href="#DejaVuSans-37" x="354.199219"/>
      </g>
     </g>
    </g>
    <g id="text_10">
     <!-- Time -->
     <g transform="translate(2374.032813 1006.753125) scale(0.2 -0.2)">
      <defs>
       <path id="DejaVuSans-54" d="M -19 4666 
L 3928 4666 
L 3928 4134 
L 2272 4134 
L 2272 0 
L 1638 0 
L 1638 4134 
L -19 4134 
L -19 4666 
z
" transform="scale(0.015625)"/>
       <path id="DejaVuSans-69" d="M 603 3500 
L 1178 3500 
L 1178 0 
L 603 0 
L 603 3500 
z
M 603 4863 
L 1178 4863 
L 1178 4134 
L 603 4134 
L 603 4863 
z
" transform="scale(0.015625)"/>
       <path id="DejaVuSans-6d" d="M 3328 2828 
Q 3544 3216 3844 3400 
Q 4144 3584 4550 3584 
Q 5097 3584 5394 3201 
Q 5691 2819 5691 2113 
L 5691 0 
L 5113 0 
L 5113 2094 
Q 5113 2597 4934 2840 
Q 4756 3084 4391 3084 
Q 3944 3084 3684 2787 
Q 3425 2491 3425 1978 
L 3425 0 
L 2847 0 
L 2847 2094 
Q 2847 2600 2669 2842 
Q 2491 3084 2119 3084 
Q 1678 3084 1418 2786 
Q 1159 2488 1159 1978 
L 1159 0 
L 581 0 
L 581 3500 
L 1159 3500 
L 1159 2956 
Q 1356 3278 1631 3431 
Q 1906 3584 2284 3584 
Q 2666 3584 2933 3390 
Q 3200 3197 3328 2828 
z
" transform="scale(0.015625)"/>
       <path id="DejaVuSans-65" d="M 3597 1894 
L 3597 1613 
L 953 1613 
Q 991 1019 1311 708 
Q 1631 397 2203 397 
Q 2534 397 2845 478 
Q 3156 559 3463 722 
L 3463 178 
Q 3153 47 2828 -22 
Q 2503 -91 2169 -91 
Q 1331 -91 842 396 
Q 353 884 353 1716 
Q 353 2575 817 3079 
Q 1281 3584 2069 3584 
Q 2775 3584 3186 3129 
Q 3597 2675 3597 1894 
z
M 3022 2063 
Q 3016 2534 2758 2815 
Q 2500 3097 2075 3097 
Q 1594 3097 1305 2825 
Q 1016 2553 972 2059 
L 3022 2063 
z
" transform="scale(0.015625)"/>
      </defs>
      <use xlink:href="#DejaVuSans-54"/>
      <use xlink:href="#DejaVuSans-69" x="57.958984"/>
      <use xlink:href="#DejaVuSans-6d" x="85.742188"/>
      <use xlink:href="#DejaVuSans-65" x="183.154297"/>
     </g>
    </g>
   </g>
   <g id="matplotlib.axis_2">
    <g id="ytick_1">
     <g id="line2d_10">
      <defs>
       <path id="m01b5021d3b" d="M 0 0 
L -3.5 0 
" style="stroke: #000000; stroke-width: 0.8"/>
      </defs>
      <g>
       <use xlink:href="#m01b5021d3b" x="585" y="887.314362" style="stroke: #000000; stroke-width: 0.8"/>
      </g>
     </g>
     <g id="text_11">
      <!-- −0.004 -->
      <g transform="translate(503.984375 894.912799) scale(0.2 -0.2)">
       <defs>
        <path id="DejaVuSans-2212" d="M 678 2272 
L 4684 2272 
L 4684 1741 
L 678 1741 
L 678 2272 
z
" transform="scale(0.015625)"/>
        <path id="DejaVuSans-2e" d="M 684 794 
L 1344 794 
L 1344 0 
L 684 0 
L 684 794 
z
" transform="scale(0.015625)"/>
       </defs>
       <use xlink:href="#DejaVuSans-2212"/>
       <use xlink:href="#DejaVuSans-30" x="83.789062"/>
       <use xlink:href="#DejaVuSans-2e" x="147.412109"/>
       <use xlink:href="#DejaVuSans-30" x="179.199219"/>
       <use xlink:href="#DejaVuSans-30" x="242.822266"/>
       <use xlink:href="#DejaVuSans-34" x="306.445312"/>
      </g>
     </g>
    </g>
    <g id="ytick_2">
     <g id="line2d_11">
      <g>
       <use xlink:href="#m01b5021d3b" x="585" y="776.780035" style="stroke: #000000; stroke-width: 0.8"/>
      </g>
     </g>
     <g id="text_12">
      <!-- −0.003 -->
      <g transform="translate(503.984375 784.378472) scale(0.2 -0.2)">
       <use xlink:href="#DejaVuSans-2212"/>
       <use xlink:href="#DejaVuSans-30" x="83.789062"/>
       <use xlink:href="#DejaVuSans-2e" x="147.412109"/>
       <use xlink:href="#DejaVuSans-30" x="179.199219"/>
       <use xlink:href="#DejaVuSans-30" x="242.822266"/>
       <use xlink:href="#DejaVuSans-33" x="306.445312"/>
      </g>
     </g>
    </g>
    <g id="ytick_3">
     <g id="line2d_12">
      <g>
       <use xlink:href="#m01b5021d3b" x="585" y="666.245708" style="stroke: #000000; stroke-width: 0.8"/>
      </g>
     </g>
     <g id="text_13">
      <!-- −0.002 -->
      <g transform="translate(503.984375 673.844145) scale(0.2 -0.2)">
       <use xlink:href="#DejaVuSans-2212"/>
       <use xlink:href="#DejaVuSans-30" x="83.789062"/>
       <use xlink:href="#DejaVuSans-2e" x="147.412109"/>
       <use xlink:href="#DejaVuSans-30" x="179.199219"/>
       <use xlink:href="#DejaVuSans-30" x="242.822266"/>
       <use xlink:href="#DejaVuSans-32" x="306.445312"/>
      </g>
     </g>
    </g>
    <g id="ytick_4">
     <g id="line2d_13">
      <g>
       <use xlink:href="#m01b5021d3b" x="585" y="555.711381" style="stroke: #000000; stroke-width: 0.8"/>
      </g>
     </g>
     <g id="text_14">
      <!-- −0.001 -->
      <g transform="translate(503.984375 563.309818) scale(0.2 -0.2)">
       <use xlink:href="#DejaVuSans-2212"/>
       <use xlink:href="#DejaVuSans-30" x="83.789062"/>
       <use xlink:href="#DejaVuSans-2e" x="147.412109"/>
       <use xlink:href="#DejaVuSans-30" x="179.199219"/>
       <use xlink:href="#DejaVuSans-30" x="242.822266"/>
       <use xlink:href="#DejaVuSans-31" x="306.445312"/>
      </g>
     </g>
    </g>
    <g id="ytick_5">
     <g id="line2d_14">
      <g>
       <use xlink:href="#m01b5021d3b" x="585" y="445.177054" style="stroke: #000000; stroke-width: 0.8"/>
      </g>
     </g>
     <g id="text_15">
      <!-- 0.000 -->
      <g transform="translate(520.74375 452.775491) scale(0.2 -0.2)">
       <use xlink:href="#DejaVuSans-30"/>
       <use xlink:href="#DejaVuSans-2e" x="63.623047"/>
       <use xlink:href="#DejaVuSans-30" x="95.410156"/>
       <use xlink:href="#DejaVuSans-30" x="159.033203"/>
       <use xlink:href="#DejaVuSans-30" x="222.65625"/>
      </g>
     </g>
    </g>
    <g id="ytick_6">
     <g id="line2d_15">
      <g>
       <use xlink:href="#m01b5021d3b" x="585" y="334.642727" style="stroke: #000000; stroke-width: 0.8"/>
      </g>
     </g>
     <g id="text_16">
      <!-- 0.001 -->
      <g transform="translate(520.74375 342.241164) scale(0.2 -0.2)">
       <use xlink:href="#DejaVuSans-30"/>
       <use xlink:href="#DejaVuSans-2e" x="63.623047"/>
       <use xlink:href="#DejaVuSans-30" x="95.410156"/>
       <use xlink:href="#DejaVuSans-30" x="159.033203"/>
       <use xlink:href="#DejaVuSans-31" x="222.65625"/>
      </g>
     </g>
    </g>
    <g id="ytick_7">
     <g id="line2d_16">
      <g>
       <use xlink:href="#m01b5021d3b" x="585" y="224.1084" style="stroke: #000000; stroke-width: 0.8"/>
      </g>
     </g>
     <g id="text_17">
      <!-- 0.002 -->
      <g transform="translate(520.74375 231.706837) scale(0.2 -0.2)">
       <use xlink:href="#DejaVuSans-30"/>
       <use xlink:href="#DejaVuSans-2e" x="63.623047"/>
       <use xlink:href="#DejaVuSans-30" x="95.410156"/>
       <use xlink:href="#DejaVuSans-30" x="159.033203"/>
       <use xlink:href="#DejaVuSans-32" x="222.65625"/>
      </g>
     </g>
    </g>
    <g id="text_18">
     <!-- East(m) -->
     <g transform="translate(495.825 584.520313) rotate(-90) scale(0.2 -0.2)">
      <defs>
       <path id="DejaVuSans-45" d="M 628 4666 
L 3578 4666 
L 3578 4134 
L 1259 4134 
L 1259 2753 
L 3481 2753 
L 3481 2222 
L 1259 2222 
L 1259 531 
L 3634 531 
L 3634 0 
L 628 0 
L 628 4666 
z
" transform="scale(0.015625)"/>
       <path id="DejaVuSans-61" d="M 2194 1759 
Q 1497 1759 1228 1600 
Q 959 1441 959 1056 
Q 959 750 1161 570 
Q 1363 391 1709 391 
Q 2188 391 2477 730 
Q 2766 1069 2766 1631 
L 2766 1759 
L 2194 1759 
z
M 3341 1997 
L 3341 0 
L 2766 0 
L 2766 531 
Q 2569 213 2275 61 
Q 1981 -91 1556 -91 
Q 1019 -91 701 211 
Q 384 513 384 1019 
Q 384 1609 779 1909 
Q 1175 2209 1959 2209 
L 2766 2209 
L 2766 2266 
Q 2766 2663 2505 2880 
Q 2244 3097 1772 3097 
Q 1472 3097 1187 3025 
Q 903 2953 641 2809 
L 641 3341 
Q 956 3463 1253 3523 
Q 1550 3584 1831 3584 
Q 2591 3584 2966 3190 
Q 3341 2797 3341 1997 
z
" transform="scale(0.015625)"/>
       <path id="DejaVuSans-73" d="M 2834 3397 
L 2834 2853 
Q 2591 2978 2328 3040 
Q 2066 3103 1784 3103 
Q 1356 3103 1142 2972 
Q 928 2841 928 2578 
Q 928 2378 1081 2264 
Q 1234 2150 1697 2047 
L 1894 2003 
Q 2506 1872 2764 1633 
Q 3022 1394 3022 966 
Q 3022 478 2636 193 
Q 2250 -91 1575 -91 
Q 1294 -91 989 -36 
Q 684 19 347 128 
L 347 722 
Q 666 556 975 473 
Q 1284 391 1588 391 
Q 1994 391 2212 530 
Q 2431 669 2431 922 
Q 2431 1156 2273 1281 
Q 2116 1406 1581 1522 
L 1381 1569 
Q 847 1681 609 1914 
Q 372 2147 372 2553 
Q 372 3047 722 3315 
Q 1072 3584 1716 3584 
Q 2034 3584 2315 3537 
Q 2597 3491 2834 3397 
z
" transform="scale(0.015625)"/>
       <path id="DejaVuSans-74" d="M 1172 4494 
L 1172 3500 
L 2356 3500 
L 2356 3053 
L 1172 3053 
L 1172 1153 
Q 1172 725 1289 603 
Q 1406 481 1766 481 
L 2356 481 
L 2356 0 
L 1766 0 
Q 1100 0 847 248 
Q 594 497 594 1153 
L 594 3053 
L 172 3053 
L 172 3500 
L 594 3500 
L 594 4494 
L 1172 4494 
z
" transform="scale(0.015625)"/>
       <path id="DejaVuSans-28" d="M 1984 4856 
Q 1566 4138 1362 3434 
Q 1159 2731 1159 2009 
Q 1159 1288 1364 580 
Q 1569 -128 1984 -844 
L 1484 -844 
Q 1016 -109 783 600 
Q 550 1309 550 2009 
Q 550 2706 781 3412 
Q 1013 4119 1484 4856 
L 1984 4856 
z
" transform="scale(0.015625)"/>
       <path id="DejaVuSans-29" d="M 513 4856 
L 1013 4856 
Q 1481 4119 1714 3412 
Q 1947 2706 1947 2009 
Q 1947 1309 1714 600 
Q 1481 -109 1013 -844 
L 513 -844 
Q 928 -128 1133 580 
Q 1338 1288 1338 2009 
Q 1338 2731 1133 3434 
Q 928 4138 513 4856 
z
" transform="scale(0.015625)"/>
      </defs>
      <use xlink:href="#DejaVuSans-45"/>
      <use xlink:href="#DejaVuSans-61" x="63.183594"/>
      <use xlink:href="#DejaVuSans-73" x="124.462891"/>
      <use xlink:href="#DejaVuSans-74" x="176.5625"/>
      <use xlink:href="#DejaVuSans-28" x="215.771484"/>
      <use xlink:href="#DejaVuSans-6d" x="254.785156"/>
      <use xlink:href="#DejaVuSans-29" x="352.197266"/>
     </g>
    </g>
   </g>
   <g id="line2d_17">
    <path d="M 749.863636 345.199361 
L 753.904412 402.992855 
L 755.924799 388.583494 
L 761.985963 314.626308 
L 764.00635 329.095994 
L 766.026738 317.620072 
L 768.047126 293.333489 
L 770.067513 298.066997 
L 772.087901 319.439209 
L 774.108289 330.58096 
L 776.128676 361.475006 
L 790.27139 316.823293 
L 792.291778 265.242251 
L 794.312166 263.653712 
L 796.332553 261.173775 
L 798.352941 243.497802 
L 800.373329 224.152534 
L 802.393717 220.45114 
L 806.434492 287.327299 
L 808.45488 301.479988 
L 810.475267 287.00298 
L 812.495655 305.323324 
L 824.617981 323.709213 
L 830.679144 349.670342 
L 832.699532 365.447528 
L 834.71992 363.378449 
L 836.740307 343.851435 
L 844.821858 424.555063 
L 850.883021 455.590017 
L 852.903409 427.625075 
L 854.923797 406.689462 
L 856.944184 419.672229 
L 860.98496 390.309383 
L 863.005348 399.43878 
L 865.025735 394.332798 
L 867.046123 454.319939 
L 869.066511 433.773306 
L 873.107286 401.565673 
L 875.127674 387.235179 
L 877.148061 363.994105 
L 879.168449 360.630411 
L 885.229612 286.516979 
L 889.270388 360.048542 
L 891.290775 381.666313 
L 893.311163 383.647244 
L 895.331551 395.954948 
L 897.351939 428.894162 
L 899.372326 468.806524 
L 901.392714 439.507146 
L 905.433489 404.258412 
L 907.453877 400.078766 
L 909.474265 408.006653 
L 913.51504 393.168593 
L 915.535428 390.172026 
L 917.555816 402.45448 
L 921.596591 444.747642 
L 933.718917 527.180518 
L 937.759693 536.989413 
L 1044.840241 578.891508 
L 1046.860628 580.632922 
L 1048.881016 601.221222 
L 1212.53242 398.318771 
L 1214.552807 366.403481 
L 1216.573195 354.356162 
L 1226.675134 384.019791 
L 1230.715909 380.387376 
L 1232.736297 363.022298 
L 1234.756684 376.317818 
L 1236.777072 386.762349 
L 1238.79746 413.479954 
L 1240.817848 413.257358 
L 1242.838235 431.34005 
L 1333.755682 471.235656 
L 1335.77607 445.614037 
L 1337.796457 427.217706 
L 1341.837233 346.858357 
L 1372.143048 415.134967 
L 1374.163436 414.39165 
L 1376.183824 452.785281 
L 1378.204211 474.955734 
L 1382.244987 466.55443 
L 1384.265374 458.755845 
L 1386.285762 441.651538 
L 1388.30615 430.13956 
L 1390.326537 391.763268 
L 1392.346925 342.30307 
L 1394.367313 312.66584 
L 1402.448864 412.994969 
L 1404.469251 419.678045 
L 1406.489639 459.981087 
L 1412.550802 492.191439 
L 1414.57119 493.286025 
L 1416.591578 478.674852 
L 1418.611965 505.923935 
L 1420.632353 502.118493 
L 1424.673128 454.530989 
L 1426.693516 454.524388 
L 1428.713904 477.089026 
L 1432.754679 499.754523 
L 1434.775067 514.199697 
L 1436.795455 520.284945 
L 1444.877005 468.793211 
L 1446.897393 463.551805 
L 1454.978944 521.835694 
L 1456.999332 569.529631 
L 1459.019719 573.793784 
L 1461.040107 545.985744 
L 1463.060495 494.023153 
L 1465.080882 468.641067 
L 1471.142045 509.670747 
L 1473.162433 470.081084 
L 1475.182821 483.927085 
L 1479.223596 537.857454 
L 1481.243984 544.189245 
L 1483.264372 536.947707 
L 1485.284759 527.292017 
L 1487.305147 555.295935 
L 1489.325535 579.208205 
L 1491.345922 510.921513 
L 1493.36631 502.084457 
L 1495.386698 481.743015 
L 1497.407086 472.086293 
L 1501.447861 433.755001 
L 1669.14004 577.561059 
L 1673.180816 532.665205 
L 1677.221591 549.406189 
L 1681.262366 589.807928 
L 1683.282754 566.460767 
L 1689.343917 644.316051 
L 1691.364305 656.706496 
L 1693.384693 656.94327 
L 1697.425468 660.73558 
L 1699.445856 619.310699 
L 1701.466243 609.220046 
L 1703.486631 609.346331 
L 1705.507019 581.179641 
L 1707.527406 583.809217 
L 1719.649733 694.019898 
L 1723.690508 651.956155 
L 1725.710896 605.469568 
L 1727.731283 581.772802 
L 1729.751671 607.197198 
L 1731.772059 635.481885 
L 1735.812834 706.740467 
L 1737.833222 734.403134 
L 1739.85361 746.507014 
L 1741.873997 735.906778 
L 1743.894385 706.150469 
L 1749.955548 687.874756 
L 1751.975936 682.569872 
L 1753.996324 703.403008 
L 1756.016711 763.692443 
L 1758.037099 756.515261 
L 1766.11865 699.314834 
L 1768.139037 692.47117 
L 1780.261364 618.637598 
L 1782.281751 604.790453 
L 1784.302139 621.093178 
L 1786.322527 650.607901 
L 1788.342914 675.53919 
L 1790.363302 744.404727 
L 1792.38369 740.433842 
L 1794.404078 775.846164 
L 1796.424465 777.211302 
L 1806.526404 689.207465 
L 1808.546791 617.936308 
L 1810.567179 600.713349 
L 1812.587567 571.726261 
L 1814.607955 576.465084 
L 1816.628342 570.095257 
L 1818.64873 590.532425 
L 1822.689505 619.093089 
L 1824.709893 666.591764 
L 1826.730281 695.558902 
L 1828.750668 698.636755 
L 1830.771056 699.13937 
L 1832.791444 697.886442 
L 1834.811832 706.581978 
L 1836.832219 725.360741 
L 1838.852607 695.701485 
L 1954.014706 665.400248 
L 1958.055481 669.838916 
L 1960.075869 685.497925 
L 1962.096257 669.965307 
L 1964.116644 613.950366 
L 1966.137032 607.974443 
L 1968.15742 596.870178 
L 1970.177807 594.734363 
L 1980.279746 668.000588 
L 1982.300134 664.808411 
L 1988.361297 626.664945 
L 1990.381684 589.684257 
L 1992.402072 582.174878 
L 1994.42246 596.69477 
L 1996.442848 573.433412 
L 2000.483623 534.276237 
L 2073.21758 650.109793 
L 2075.237968 676.213761 
L 2079.278743 666.161851 
L 2081.299131 626.081212 
L 2109.584559 532.532547 
L 2438.907754 899.100865 
L 2440.928142 898.224527 
L 2442.948529 897.885789 
L 2444.968917 882.693013 
L 2449.009693 922.806153 
L 2467.193182 923.4 
L 3178.369652 446.909258 
L 3180.39004 438.001454 
L 3182.410428 406.700378 
L 3184.430816 400.305298 
L 3186.451203 420.736105 
L 3188.471591 421.380976 
L 3194.532754 519.52339 
L 3206.65508 599.536804 
L 3210.695856 529.491956 
L 3212.716243 475.029159 
L 3214.736631 522.741159 
L 3216.757019 474.29708 
L 3220.797794 418.72338 
L 3228.879345 420.971549 
L 3230.899733 463.543552 
L 3253.123997 508.071292 
L 3257.164773 517.849992 
L 3259.18516 488.039083 
L 3261.205548 469.306314 
L 3265.246324 398.802913 
L 3267.266711 404.456721 
L 3269.287099 412.498265 
L 3277.36865 377.112221 
L 3285.450201 400.615299 
L 3287.470588 393.51778 
L 3289.490976 376.707182 
L 3291.511364 394.858096 
L 3293.531751 397.105506 
L 3295.552139 391.600079 
L 3297.572527 362.916873 
L 3299.592914 352.546182 
L 3301.613302 360.219334 
L 3303.63369 366.437541 
L 3309.694853 394.340347 
L 3315.756016 496.151077 
L 3317.776404 521.924546 
L 3319.796791 500.812621 
L 3321.817179 459.386886 
L 3323.837567 456.317348 
L 3325.857955 442.148383 
L 3327.878342 408.643582 
L 3331.919118 336.722246 
L 3340.000668 351.381025 
L 3342.021056 326.068984 
L 3344.041444 320.439178 
L 3346.061832 341.909871 
L 3348.082219 373.070715 
L 3350.102607 390.565791 
L 3352.122995 380.073837 
L 3354.143382 378.08602 
L 3356.16377 406.182419 
L 3358.184158 399.380127 
L 3360.204545 372.052643 
L 3362.224933 354.244052 
L 3366.265709 310.297616 
L 3368.286096 304.854303 
L 3370.306484 330.301268 
L 3372.326872 339.650522 
L 3374.347259 385.133103 
L 3376.367647 382.36371 
L 3400.612299 354.919143 
L 3402.632687 365.218703 
L 3404.653075 372.899513 
L 3410.714238 399.807871 
L 3412.734626 414.56928 
L 3414.755013 425.305506 
L 3416.775401 441.249312 
L 3418.795789 447.884133 
L 3420.816176 452.502979 
L 3422.836564 431.492461 
L 3424.856952 439.522545 
L 3426.87734 458.982188 
L 3428.897727 446.114009 
L 3430.918115 441.058678 
L 3432.938503 448.445847 
L 3434.95889 425.112706 
L 3436.979278 414.293732 
L 3438.999666 358.1543 
L 3441.020053 331.312917 
L 3443.040441 320.888747 
L 3445.060829 277.511208 
L 3447.081217 228.28476 
L 3449.101604 219.297872 
L 3451.121992 244.686329 
L 3453.14238 296.777302 
L 3455.162767 309.03349 
L 3457.183155 308.967137 
L 3459.203543 335.154795 
L 3461.22393 365.600618 
L 3463.244318 371.589309 
L 3465.264706 388.691578 
L 3467.285094 399.597684 
L 3469.305481 390.326311 
L 3471.325869 385.984541 
L 3473.346257 390.018219 
L 3475.366644 383.112124 
L 3477.387032 390.261057 
L 3479.40742 379.76612 
L 3481.427807 366.726082 
L 3483.448195 403.311632 
L 3485.468583 431.406173 
L 3487.488971 417.500229 
L 3489.509358 383.797192 
L 3491.529746 374.354517 
L 3493.550134 378.660925 
L 3497.590909 362.920392 
L 3499.611297 346.262675 
L 3501.631684 351.45855 
L 3503.652072 381.00068 
L 3505.67246 403.889741 
L 3507.692848 419.870633 
L 3509.713235 407.56017 
L 3511.733623 374.834545 
L 3513.754011 375.058241 
L 3515.774398 375.446492 
L 3517.794786 383.400943 
L 3519.815174 387.489268 
L 3521.835561 362.373183 
L 3523.855949 382.336134 
L 3527.896725 364.290848 
L 3529.917112 341.053318 
L 3531.9375 337.39647 
L 3533.957888 322.70091 
L 3535.978275 332.238251 
L 3537.998663 344.795491 
L 3540.019051 335.211628 
L 3542.039439 340.413126 
L 3544.059826 350.64039 
L 3548.100602 361.761233 
L 3550.120989 360.602777 
L 3552.141377 334.175415 
L 3554.161765 366.211094 
L 3556.182152 379.510908 
L 3558.20254 384.484723 
L 3560.222928 401.594118 
L 3562.243316 359.718014 
L 3564.263703 340.228494 
L 3566.284091 317.591298 
L 3568.304479 269.448099 
L 3570.324866 282.957647 
L 3572.345254 272.159776 
L 3582.447193 377.311328 
L 3584.46758 377.783327 
L 3586.487968 386.014176 
L 3590.528743 344.777674 
L 3592.549131 358.410508 
L 3594.569519 375.24899 
L 3596.589906 342.41365 
L 3598.610294 333.106097 
L 3600.630682 299.006676 
L 3602.65107 308.696408 
L 3604.671457 300.722905 
L 3647.099599 291.266314 
L 3649.119987 278.214606 
L 3653.160762 267.800694 
L 3659.221925 221.451399 
L 3661.242313 191.428526 
L 3663.262701 167.4 
L 3665.283088 180.117693 
L 3667.303476 184.998454 
L 3669.323864 224.904597 
L 3671.344251 245.431183 
L 3673.364639 231.245088 
L 3675.385027 232.908701 
L 3677.405414 249.754085 
L 3679.425802 272.507362 
L 3681.44619 272.455139 
L 3683.466578 278.732997 
L 3685.486965 279.840439 
L 3687.507353 278.632896 
L 3689.527741 261.129721 
L 3691.548128 274.763133 
L 3693.568516 255.748566 
L 3695.588904 262.578436 
L 3697.609291 232.2636 
L 3703.670455 282.783664 
L 3705.690842 270.329544 
L 3707.71123 259.52216 
L 3711.752005 288.346396 
L 3713.772393 312.471271 
L 3715.792781 283.427131 
L 3717.813168 323.279743 
L 3719.833556 327.949256 
L 3721.853944 328.812381 
L 3723.874332 316.057701 
L 3725.894719 346.447599 
L 3727.915107 350.7069 
L 3729.935495 360.828013 
L 3733.97627 323.082209 
L 3735.996658 339.703343 
L 3738.017045 334.166827 
L 3740.037433 299.971692 
L 3744.078209 319.493951 
L 3746.098596 325.797152 
L 3748.118984 316.65826 
L 3750.139372 299.429114 
L 3752.159759 313.937162 
L 3756.200535 338.289113 
L 3758.220922 312.529694 
L 3760.24131 276.8012 
L 3762.261698 280.108277 
L 3764.282086 281.399102 
L 3766.302473 247.02729 
L 3768.322861 204.925895 
L 3772.363636 186.679375 
L 3774.384024 216.216291 
L 3776.404412 247.492117 
L 3778.424799 271.815317 
L 3780.445187 300.044913 
L 3786.50635 252.26803 
L 3788.526738 290.473086 
L 3790.547126 265.315683 
L 3792.567513 271.788795 
L 3796.608289 337.579436 
L 3798.628676 403.106681 
L 3952.178142 403.383214 
L 3954.198529 358.447407 
L 3956.218917 349.162497 
L 3958.239305 345.100839 
L 3960.259693 333.715064 
L 3970.361631 367.703285 
L 3972.382019 368.294136 
L 3978.443182 394.142764 
L 3980.46357 388.845055 
L 3982.483957 372.59107 
L 3984.504345 377.002254 
L 3986.524733 351.280189 
L 3988.54512 382.161739 
L 3990.565508 348.523356 
L 3996.626671 396.461079 
L 4002.687834 412.930495 
L 4004.708222 431.725025 
L 4006.72861 435.276674 
L 4008.748997 440.014266 
L 4010.769385 453.619939 
L 4014.81016 437.950599 
L 4016.830548 420.100303 
L 4018.850936 400.442904 
L 4020.871324 387.521878 
L 4030.973262 363.870605 
L 4032.99365 357.252533 
L 4035.014037 363.320898 
L 4037.034425 383.85909 
L 4039.054813 382.545362 
L 4041.075201 403.651291 
L 4043.095588 420.354823 
L 4045.115976 417.852292 
L 4047.136364 442.527512 
L 4047.136364 442.527512 
" clip-path="url(#pa515ac6b5e)" style="fill: none; stroke: #8b2be2; stroke-width: 2.5; stroke-linecap: square"/>
   </g>
   <g id="patch_3">
    <path d="M 585 961.2 
L 585 129.6 
" style="fill: none; stroke: #000000; stroke-width: 0.8; stroke-linejoin: miter; stroke-linecap: square"/>
   </g>
   <g id="patch_4">
    <path d="M 4212 961.2 
L 4212 129.6 
" style="fill: none; stroke: #000000; stroke-width: 0.8; stroke-linejoin: miter; stroke-linecap: square"/>
   </g>
   <g id="patch_5">
    <path d="M 585 961.2 
L 4212 961.2 
" style="fill: none; stroke: #000000; stroke-width: 0.8; stroke-linejoin: miter; stroke-linecap: square"/>
   </g>
   <g id="patch_6">
    <path d="M 585 129.6 
L 4212 129.6 
" style="fill: none; stroke: #000000; stroke-width: 0.8; stroke-linejoin: miter; stroke-linecap: square"/>
   </g>
   <g id="text_19">
    <!-- MT06 -->
    <g transform="translate(2357.308594 123.360937) scale(0.3 -0.3)">
     <defs>
      <path id="DejaVuSans-4d" d="M 628 4666 
L 1569 4666 
L 2759 1491 
L 3956 4666 
L 4897 4666 
L 4897 0 
L 4281 0 
L 4281 4097 
L 3078 897 
L 2444 897 
L 1241 4097 
L 1241 0 
L 628 0 
L 628 4666 
z
" transform="scale(0.015625)"/>
     </defs>
     <use xlink:href="#DejaVuSans-4d"/>
     <use xlink:href="#DejaVuSans-54" x="86.279297"/>
     <use xlink:href="#DejaVuSans-30" x="147.363281"/>
     <use xlink:href="#DejaVuSans-36" x="210.986328"/>
    </g>
   </g>
   <g id="legend_1">
    <g id="patch_7">
     <path d="M 4146.614062 152.278125 
L 4205 152.278125 
Q 4207 152.278125 4207 150.278125 
L 4207 136.6 
Q 4207 134.6 4205 134.6 
L 4146.614062 134.6 
Q 4144.614062 134.6 4144.614062 136.6 
L 4144.614062 150.278125 
Q 4144.614062 152.278125 4146.614062 152.278125 
z
" style="fill: #ffffff; opacity: 0.8; stroke: #cccccc; stroke-linejoin: miter"/>
    </g>
    <g id="line2d_18">
     <path d="M 4148.614062 142.698438 
L 4158.614062 142.698438 
L 4168.614062 142.698438 
" style="fill: none; stroke: #8b2be2; stroke-width: 2.5; stroke-linecap: square"/>
    </g>
    <g id="text_20">
     <!-- mt06 -->
     <g transform="translate(4176.614062 146.198438) scale(0.1 -0.1)">
      <use xlink:href="#DejaVuSans-6d"/>
      <use xlink:href="#DejaVuSans-74" x="97.412109"/>
      <use xlink:href="#DejaVuSans-30" x="136.621094"/>
      <use xlink:href="#DejaVuSans-36" x="200.244141"/>
     </g>
    </g>
   </g>
  </g>
 </g>
 <defs>
  <clipPath id="pa515ac6b5e">
   <rect x="585" y="129.6" width="3627" height="831.6"/>
  </clipPath>
 </defs>
</svg>
