<?xml version="1.0" encoding="utf-8" standalone="no"?>
<!DOCTYPE svg PUBLIC "-//W3C//DTD SVG 1.1//EN"
  "http://www.w3.org/Graphics/SVG/1.1/DTD/svg11.dtd">
<svg xmlns:xlink="http://www.w3.org/1999/xlink" width="4680pt" height="1080pt" viewBox="0 0 4680 1080" xmlns="http://www.w3.org/2000/svg" version="1.1">
 <metadata>
  <rdf:RDF xmlns:dc="http://purl.org/dc/elements/1.1/" xmlns:cc="http://creativecommons.org/ns#" xmlns:rdf="http://www.w3.org/1999/02/22-rdf-syntax-ns#">
   <cc:Work>
    <dc:type rdf:resource="http://purl.org/dc/dcmitype/StillImage"/>
    <dc:date>2024-03-25T14:09:21.720436</dc:date>
    <dc:format>image/svg+xml</dc:format>
    <dc:creator>
     <cc:Agent>
      <dc:title>Matplotlib v3.7.2, https://matplotlib.org/</dc:title>
     </cc:Agent>
    </dc:creator>
   </cc:Work>
  </rdf:RDF>
 </metadata>
 <defs>
  <style type="text/css">*{stroke-linejoin: round; stroke-linecap: butt}</style>
 </defs>
 <g id="figure_1">
  <g id="patch_1">
   <path d="M 0 1080 
L 4680 1080 
L 4680 0 
L 0 0 
z
" style="fill: #ffffff"/>
  </g>
  <g id="axes_1">
   <g id="patch_2">
    <path d="M 585 961.2 
L 4212 961.2 
L 4212 129.6 
L 585 129.6 
z
" style="fill: #ffffff"/>
   </g>
   <g id="matplotlib.axis_1">
    <g id="xtick_1">
     <g id="line2d_1">
      <defs>
       <path id="m98ddc483da" d="M 0 0 
L 0 3.5 
" style="stroke: #000000; stroke-width: 0.8"/>
      </defs>
      <g>
       <use xlink:href="#m98ddc483da" x="941.800468" y="961.2" style="stroke: #000000; stroke-width: 0.8"/>
      </g>
     </g>
     <g id="text_1">
      <!-- 2012-07 -->
      <g transform="translate(900.017655 983.396875) scale(0.2 -0.2)">
       <defs>
        <path id="DejaVuSans-32" d="M 1228 531 
L 3431 531 
L 3431 0 
L 469 0 
L 469 531 
Q 828 903 1448 1529 
Q 2069 2156 2228 2338 
Q 2531 2678 2651 2914 
Q 2772 3150 2772 3378 
Q 2772 3750 2511 3984 
Q 2250 4219 1831 4219 
Q 1534 4219 1204 4116 
Q 875 4013 500 3803 
L 500 4441 
Q 881 4594 1212 4672 
Q 1544 4750 1819 4750 
Q 2544 4750 2975 4387 
Q 3406 4025 3406 3419 
Q 3406 3131 3298 2873 
Q 3191 2616 2906 2266 
Q 2828 2175 2409 1742 
Q 1991 1309 1228 531 
z
" transform="scale(0.015625)"/>
        <path id="DejaVuSans-30" d="M 2034 4250 
Q 1547 4250 1301 3770 
Q 1056 3291 1056 2328 
Q 1056 1369 1301 889 
Q 1547 409 2034 409 
Q 2525 409 2770 889 
Q 3016 1369 3016 2328 
Q 3016 3291 2770 3770 
Q 2525 4250 2034 4250 
z
M 2034 4750 
Q 2819 4750 3233 4129 
Q 3647 3509 3647 2328 
Q 3647 1150 3233 529 
Q 2819 -91 2034 -91 
Q 1250 -91 836 529 
Q 422 1150 422 2328 
Q 422 3509 836 4129 
Q 1250 4750 2034 4750 
z
" transform="scale(0.015625)"/>
        <path id="DejaVuSans-31" d="M 794 531 
L 1825 531 
L 1825 4091 
L 703 3866 
L 703 4441 
L 1819 4666 
L 2450 4666 
L 2450 531 
L 3481 531 
L 3481 0 
L 794 0 
L 794 531 
z
" transform="scale(0.015625)"/>
        <path id="DejaVuSans-2d" d="M 313 2009 
L 1997 2009 
L 1997 1497 
L 313 1497 
L 313 2009 
z
" transform="scale(0.015625)"/>
        <path id="DejaVuSans-37" d="M 525 4666 
L 3525 4666 
L 3525 4397 
L 1831 0 
L 1172 0 
L 2766 4134 
L 525 4134 
L 525 4666 
z
" transform="scale(0.015625)"/>
       </defs>
       <use xlink:href="#DejaVuSans-32"/>
       <use xlink:href="#DejaVuSans-30" x="63.623047"/>
       <use xlink:href="#DejaVuSans-31" x="127.246094"/>
       <use xlink:href="#DejaVuSans-32" x="190.869141"/>
       <use xlink:href="#DejaVuSans-2d" x="254.492188"/>
       <use xlink:href="#DejaVuSans-30" x="290.576172"/>
       <use xlink:href="#DejaVuSans-37" x="354.199219"/>
      </g>
     </g>
    </g>
    <g id="xtick_2">
     <g id="line2d_2">
      <g>
       <use xlink:href="#m98ddc483da" x="1313.551805" y="961.2" style="stroke: #000000; stroke-width: 0.8"/>
      </g>
     </g>
     <g id="text_2">
      <!-- 2013-01 -->
      <g transform="translate(1271.768992 983.396875) scale(0.2 -0.2)">
       <defs>
        <path id="DejaVuSans-33" d="M 2597 2516 
Q 3050 2419 3304 2112 
Q 3559 1806 3559 1356 
Q 3559 666 3084 287 
Q 2609 -91 1734 -91 
Q 1441 -91 1130 -33 
Q 819 25 488 141 
L 488 750 
Q 750 597 1062 519 
Q 1375 441 1716 441 
Q 2309 441 2620 675 
Q 2931 909 2931 1356 
Q 2931 1769 2642 2001 
Q 2353 2234 1838 2234 
L 1294 2234 
L 1294 2753 
L 1863 2753 
Q 2328 2753 2575 2939 
Q 2822 3125 2822 3475 
Q 2822 3834 2567 4026 
Q 2313 4219 1838 4219 
Q 1578 4219 1281 4162 
Q 984 4106 628 3988 
L 628 4550 
Q 988 4650 1302 4700 
Q 1616 4750 1894 4750 
Q 2613 4750 3031 4423 
Q 3450 4097 3450 3541 
Q 3450 3153 3228 2886 
Q 3006 2619 2597 2516 
z
" transform="scale(0.015625)"/>
       </defs>
       <use xlink:href="#DejaVuSans-32"/>
       <use xlink:href="#DejaVuSans-30" x="63.623047"/>
       <use xlink:href="#DejaVuSans-31" x="127.246094"/>
       <use xlink:href="#DejaVuSans-33" x="190.869141"/>
       <use xlink:href="#DejaVuSans-2d" x="254.492188"/>
       <use xlink:href="#DejaVuSans-30" x="290.576172"/>
       <use xlink:href="#DejaVuSans-31" x="354.199219"/>
      </g>
     </g>
    </g>
    <g id="xtick_3">
     <g id="line2d_3">
      <g>
       <use xlink:href="#m98ddc483da" x="1679.241979" y="961.2" style="stroke: #000000; stroke-width: 0.8"/>
      </g>
     </g>
     <g id="text_3">
      <!-- 2013-07 -->
      <g transform="translate(1637.459166 983.396875) scale(0.2 -0.2)">
       <use xlink:href="#DejaVuSans-32"/>
       <use xlink:href="#DejaVuSans-30" x="63.623047"/>
       <use xlink:href="#DejaVuSans-31" x="127.246094"/>
       <use xlink:href="#DejaVuSans-33" x="190.869141"/>
       <use xlink:href="#DejaVuSans-2d" x="254.492188"/>
       <use xlink:href="#DejaVuSans-30" x="290.576172"/>
       <use xlink:href="#DejaVuSans-37" x="354.199219"/>
      </g>
     </g>
    </g>
    <g id="xtick_4">
     <g id="line2d_4">
      <g>
       <use xlink:href="#m98ddc483da" x="2050.993316" y="961.2" style="stroke: #000000; stroke-width: 0.8"/>
      </g>
     </g>
     <g id="text_4">
      <!-- 2014-01 -->
      <g transform="translate(2009.210503 983.396875) scale(0.2 -0.2)">
       <defs>
        <path id="DejaVuSans-34" d="M 2419 4116 
L 825 1625 
L 2419 1625 
L 2419 4116 
z
M 2253 4666 
L 3047 4666 
L 3047 1625 
L 3713 1625 
L 3713 1100 
L 3047 1100 
L 3047 0 
L 2419 0 
L 2419 1100 
L 313 1100 
L 313 1709 
L 2253 4666 
z
" transform="scale(0.015625)"/>
       </defs>
       <use xlink:href="#DejaVuSans-32"/>
       <use xlink:href="#DejaVuSans-30" x="63.623047"/>
       <use xlink:href="#DejaVuSans-31" x="127.246094"/>
       <use xlink:href="#DejaVuSans-34" x="190.869141"/>
       <use xlink:href="#DejaVuSans-2d" x="254.492188"/>
       <use xlink:href="#DejaVuSans-30" x="290.576172"/>
       <use xlink:href="#DejaVuSans-31" x="354.199219"/>
      </g>
     </g>
    </g>
    <g id="xtick_5">
     <g id="line2d_5">
      <g>
       <use xlink:href="#m98ddc483da" x="2416.683489" y="961.2" style="stroke: #000000; stroke-width: 0.8"/>
      </g>
     </g>
     <g id="text_5">
      <!-- 2014-07 -->
      <g transform="translate(2374.900677 983.396875) scale(0.2 -0.2)">
       <use xlink:href="#DejaVuSans-32"/>
       <use xlink:href="#DejaVuSans-30" x="63.623047"/>
       <use xlink:href="#DejaVuSans-31" x="127.246094"/>
       <use xlink:href="#DejaVuSans-34" x="190.869141"/>
       <use xlink:href="#DejaVuSans-2d" x="254.492188"/>
       <use xlink:href="#DejaVuSans-30" x="290.576172"/>
       <use xlink:href="#DejaVuSans-37" x="354.199219"/>
      </g>
     </g>
    </g>
    <g id="xtick_6">
     <g id="line2d_6">
      <g>
       <use xlink:href="#m98ddc483da" x="2788.434826" y="961.2" style="stroke: #000000; stroke-width: 0.8"/>
      </g>
     </g>
     <g id="text_6">
      <!-- 2015-01 -->
      <g transform="translate(2746.652014 983.396875) scale(0.2 -0.2)">
       <defs>
        <path id="DejaVuSans-35" d="M 691 4666 
L 3169 4666 
L 3169 4134 
L 1269 4134 
L 1269 2991 
Q 1406 3038 1543 3061 
Q 1681 3084 1819 3084 
Q 2600 3084 3056 2656 
Q 3513 2228 3513 1497 
Q 3513 744 3044 326 
Q 2575 -91 1722 -91 
Q 1428 -91 1123 -41 
Q 819 9 494 109 
L 494 744 
Q 775 591 1075 516 
Q 1375 441 1709 441 
Q 2250 441 2565 725 
Q 2881 1009 2881 1497 
Q 2881 1984 2565 2268 
Q 2250 2553 1709 2553 
Q 1456 2553 1204 2497 
Q 953 2441 691 2322 
L 691 4666 
z
" transform="scale(0.015625)"/>
       </defs>
       <use xlink:href="#DejaVuSans-32"/>
       <use xlink:href="#DejaVuSans-30" x="63.623047"/>
       <use xlink:href="#DejaVuSans-31" x="127.246094"/>
       <use xlink:href="#DejaVuSans-35" x="190.869141"/>
       <use xlink:href="#DejaVuSans-2d" x="254.492188"/>
       <use xlink:href="#DejaVuSans-30" x="290.576172"/>
       <use xlink:href="#DejaVuSans-31" x="354.199219"/>
      </g>
     </g>
    </g>
    <g id="xtick_7">
     <g id="line2d_7">
      <g>
       <use xlink:href="#m98ddc483da" x="3154.125" y="961.2" style="stroke: #000000; stroke-width: 0.8"/>
      </g>
     </g>
     <g id="text_7">
      <!-- 2015-07 -->
      <g transform="translate(3112.342188 983.396875) scale(0.2 -0.2)">
       <use xlink:href="#DejaVuSans-32"/>
       <use xlink:href="#DejaVuSans-30" x="63.623047"/>
       <use xlink:href="#DejaVuSans-31" x="127.246094"/>
       <use xlink:href="#DejaVuSans-35" x="190.869141"/>
       <use xlink:href="#DejaVuSans-2d" x="254.492188"/>
       <use xlink:href="#DejaVuSans-30" x="290.576172"/>
       <use xlink:href="#DejaVuSans-37" x="354.199219"/>
      </g>
     </g>
    </g>
    <g id="xtick_8">
     <g id="line2d_8">
      <g>
       <use xlink:href="#m98ddc483da" x="3525.876337" y="961.2" style="stroke: #000000; stroke-width: 0.8"/>
      </g>
     </g>
     <g id="text_8">
      <!-- 2016-01 -->
      <g transform="translate(3484.093524 983.396875) scale(0.2 -0.2)">
       <defs>
        <path id="DejaVuSans-36" d="M 2113 2584 
Q 1688 2584 1439 2293 
Q 1191 2003 1191 1497 
Q 1191 994 1439 701 
Q 1688 409 2113 409 
Q 2538 409 2786 701 
Q 3034 994 3034 1497 
Q 3034 2003 2786 2293 
Q 2538 2584 2113 2584 
z
M 3366 4563 
L 3366 3988 
Q 3128 4100 2886 4159 
Q 2644 4219 2406 4219 
Q 1781 4219 1451 3797 
Q 1122 3375 1075 2522 
Q 1259 2794 1537 2939 
Q 1816 3084 2150 3084 
Q 2853 3084 3261 2657 
Q 3669 2231 3669 1497 
Q 3669 778 3244 343 
Q 2819 -91 2113 -91 
Q 1303 -91 875 529 
Q 447 1150 447 2328 
Q 447 3434 972 4092 
Q 1497 4750 2381 4750 
Q 2619 4750 2861 4703 
Q 3103 4656 3366 4563 
z
" transform="scale(0.015625)"/>
       </defs>
       <use xlink:href="#DejaVuSans-32"/>
       <use xlink:href="#DejaVuSans-30" x="63.623047"/>
       <use xlink:href="#DejaVuSans-31" x="127.246094"/>
       <use xlink:href="#DejaVuSans-36" x="190.869141"/>
       <use xlink:href="#DejaVuSans-2d" x="254.492188"/>
       <use xlink:href="#DejaVuSans-30" x="290.576172"/>
       <use xlink:href="#DejaVuSans-31" x="354.199219"/>
      </g>
     </g>
    </g>
    <g id="xtick_9">
     <g id="line2d_9">
      <g>
       <use xlink:href="#m98ddc483da" x="3893.586898" y="961.2" style="stroke: #000000; stroke-width: 0.8"/>
      </g>
     </g>
     <g id="text_9">
      <!-- 2016-07 -->
      <g transform="translate(3851.804086 983.396875) scale(0.2 -0.2)">
       <use xlink:href="#DejaVuSans-32"/>
       <use xlink:href="#DejaVuSans-30" x="63.623047"/>
       <use xlink:href="#DejaVuSans-31" x="127.246094"/>
       <use xlink:href="#DejaVuSans-36" x="190.869141"/>
       <use xlink:href="#DejaVuSans-2d" x="254.492188"/>
       <use xlink:href="#DejaVuSans-30" x="290.576172"/>
       <use xlink:href="#DejaVuSans-37" x="354.199219"/>
      </g>
     </g>
    </g>
    <g id="text_10">
     <!-- Time -->
     <g transform="translate(2374.032813 1006.753125) scale(0.2 -0.2)">
      <defs>
       <path id="DejaVuSans-54" d="M -19 4666 
L 3928 4666 
L 3928 4134 
L 2272 4134 
L 2272 0 
L 1638 0 
L 1638 4134 
L -19 4134 
L -19 4666 
z
" transform="scale(0.015625)"/>
       <path id="DejaVuSans-69" d="M 603 3500 
L 1178 3500 
L 1178 0 
L 603 0 
L 603 3500 
z
M 603 4863 
L 1178 4863 
L 1178 4134 
L 603 4134 
L 603 4863 
z
" transform="scale(0.015625)"/>
       <path id="DejaVuSans-6d" d="M 3328 2828 
Q 3544 3216 3844 3400 
Q 4144 3584 4550 3584 
Q 5097 3584 5394 3201 
Q 5691 2819 5691 2113 
L 5691 0 
L 5113 0 
L 5113 2094 
Q 5113 2597 4934 2840 
Q 4756 3084 4391 3084 
Q 3944 3084 3684 2787 
Q 3425 2491 3425 1978 
L 3425 0 
L 2847 0 
L 2847 2094 
Q 2847 2600 2669 2842 
Q 2491 3084 2119 3084 
Q 1678 3084 1418 2786 
Q 1159 2488 1159 1978 
L 1159 0 
L 581 0 
L 581 3500 
L 1159 3500 
L 1159 2956 
Q 1356 3278 1631 3431 
Q 1906 3584 2284 3584 
Q 2666 3584 2933 3390 
Q 3200 3197 3328 2828 
z
" transform="scale(0.015625)"/>
       <path id="DejaVuSans-65" d="M 3597 1894 
L 3597 1613 
L 953 1613 
Q 991 1019 1311 708 
Q 1631 397 2203 397 
Q 2534 397 2845 478 
Q 3156 559 3463 722 
L 3463 178 
Q 3153 47 2828 -22 
Q 2503 -91 2169 -91 
Q 1331 -91 842 396 
Q 353 884 353 1716 
Q 353 2575 817 3079 
Q 1281 3584 2069 3584 
Q 2775 3584 3186 3129 
Q 3597 2675 3597 1894 
z
M 3022 2063 
Q 3016 2534 2758 2815 
Q 2500 3097 2075 3097 
Q 1594 3097 1305 2825 
Q 1016 2553 972 2059 
L 3022 2063 
z
" transform="scale(0.015625)"/>
      </defs>
      <use xlink:href="#DejaVuSans-54"/>
      <use xlink:href="#DejaVuSans-69" x="57.958984"/>
      <use xlink:href="#DejaVuSans-6d" x="85.742188"/>
      <use xlink:href="#DejaVuSans-65" x="183.154297"/>
     </g>
    </g>
   </g>
   <g id="matplotlib.axis_2">
    <g id="ytick_1">
     <g id="line2d_10">
      <defs>
       <path id="m18b14985d4" d="M 0 0 
L -3.5 0 
" style="stroke: #000000; stroke-width: 0.8"/>
      </defs>
      <g>
       <use xlink:href="#m18b14985d4" x="585" y="928.792392" style="stroke: #000000; stroke-width: 0.8"/>
      </g>
     </g>
     <g id="text_11">
      <!-- −0.003 -->
      <g transform="translate(503.984375 936.390829) scale(0.2 -0.2)">
       <defs>
        <path id="DejaVuSans-2212" d="M 678 2272 
L 4684 2272 
L 4684 1741 
L 678 1741 
L 678 2272 
z
" transform="scale(0.015625)"/>
        <path id="DejaVuSans-2e" d="M 684 794 
L 1344 794 
L 1344 0 
L 684 0 
L 684 794 
z
" transform="scale(0.015625)"/>
       </defs>
       <use xlink:href="#DejaVuSans-2212"/>
       <use xlink:href="#DejaVuSans-30" x="83.789062"/>
       <use xlink:href="#DejaVuSans-2e" x="147.412109"/>
       <use xlink:href="#DejaVuSans-30" x="179.199219"/>
       <use xlink:href="#DejaVuSans-30" x="242.822266"/>
       <use xlink:href="#DejaVuSans-33" x="306.445312"/>
      </g>
     </g>
    </g>
    <g id="ytick_2">
     <g id="line2d_11">
      <g>
       <use xlink:href="#m18b14985d4" x="585" y="797.826713" style="stroke: #000000; stroke-width: 0.8"/>
      </g>
     </g>
     <g id="text_12">
      <!-- −0.002 -->
      <g transform="translate(503.984375 805.42515) scale(0.2 -0.2)">
       <use xlink:href="#DejaVuSans-2212"/>
       <use xlink:href="#DejaVuSans-30" x="83.789062"/>
       <use xlink:href="#DejaVuSans-2e" x="147.412109"/>
       <use xlink:href="#DejaVuSans-30" x="179.199219"/>
       <use xlink:href="#DejaVuSans-30" x="242.822266"/>
       <use xlink:href="#DejaVuSans-32" x="306.445312"/>
      </g>
     </g>
    </g>
    <g id="ytick_3">
     <g id="line2d_12">
      <g>
       <use xlink:href="#m18b14985d4" x="585" y="666.861034" style="stroke: #000000; stroke-width: 0.8"/>
      </g>
     </g>
     <g id="text_13">
      <!-- −0.001 -->
      <g transform="translate(503.984375 674.459472) scale(0.2 -0.2)">
       <use xlink:href="#DejaVuSans-2212"/>
       <use xlink:href="#DejaVuSans-30" x="83.789062"/>
       <use xlink:href="#DejaVuSans-2e" x="147.412109"/>
       <use xlink:href="#DejaVuSans-30" x="179.199219"/>
       <use xlink:href="#DejaVuSans-30" x="242.822266"/>
       <use xlink:href="#DejaVuSans-31" x="306.445312"/>
      </g>
     </g>
    </g>
    <g id="ytick_4">
     <g id="line2d_13">
      <g>
       <use xlink:href="#m18b14985d4" x="585" y="535.895355" style="stroke: #000000; stroke-width: 0.8"/>
      </g>
     </g>
     <g id="text_14">
      <!-- 0.000 -->
      <g transform="translate(520.74375 543.493793) scale(0.2 -0.2)">
       <use xlink:href="#DejaVuSans-30"/>
       <use xlink:href="#DejaVuSans-2e" x="63.623047"/>
       <use xlink:href="#DejaVuSans-30" x="95.410156"/>
       <use xlink:href="#DejaVuSans-30" x="159.033203"/>
       <use xlink:href="#DejaVuSans-30" x="222.65625"/>
      </g>
     </g>
    </g>
    <g id="ytick_5">
     <g id="line2d_14">
      <g>
       <use xlink:href="#m18b14985d4" x="585" y="404.929676" style="stroke: #000000; stroke-width: 0.8"/>
      </g>
     </g>
     <g id="text_15">
      <!-- 0.001 -->
      <g transform="translate(520.74375 412.528114) scale(0.2 -0.2)">
       <use xlink:href="#DejaVuSans-30"/>
       <use xlink:href="#DejaVuSans-2e" x="63.623047"/>
       <use xlink:href="#DejaVuSans-30" x="95.410156"/>
       <use xlink:href="#DejaVuSans-30" x="159.033203"/>
       <use xlink:href="#DejaVuSans-31" x="222.65625"/>
      </g>
     </g>
    </g>
    <g id="ytick_6">
     <g id="line2d_15">
      <g>
       <use xlink:href="#m18b14985d4" x="585" y="273.963997" style="stroke: #000000; stroke-width: 0.8"/>
      </g>
     </g>
     <g id="text_16">
      <!-- 0.002 -->
      <g transform="translate(520.74375 281.562435) scale(0.2 -0.2)">
       <use xlink:href="#DejaVuSans-30"/>
       <use xlink:href="#DejaVuSans-2e" x="63.623047"/>
       <use xlink:href="#DejaVuSans-30" x="95.410156"/>
       <use xlink:href="#DejaVuSans-30" x="159.033203"/>
       <use xlink:href="#DejaVuSans-32" x="222.65625"/>
      </g>
     </g>
    </g>
    <g id="ytick_7">
     <g id="line2d_16">
      <g>
       <use xlink:href="#m18b14985d4" x="585" y="142.998319" style="stroke: #000000; stroke-width: 0.8"/>
      </g>
     </g>
     <g id="text_17">
      <!-- 0.003 -->
      <g transform="translate(520.74375 150.596756) scale(0.2 -0.2)">
       <use xlink:href="#DejaVuSans-30"/>
       <use xlink:href="#DejaVuSans-2e" x="63.623047"/>
       <use xlink:href="#DejaVuSans-30" x="95.410156"/>
       <use xlink:href="#DejaVuSans-30" x="159.033203"/>
       <use xlink:href="#DejaVuSans-33" x="222.65625"/>
      </g>
     </g>
    </g>
    <g id="text_18">
     <!-- East(m) -->
     <g transform="translate(495.825 584.520313) rotate(-90) scale(0.2 -0.2)">
      <defs>
       <path id="DejaVuSans-45" d="M 628 4666 
L 3578 4666 
L 3578 4134 
L 1259 4134 
L 1259 2753 
L 3481 2753 
L 3481 2222 
L 1259 2222 
L 1259 531 
L 3634 531 
L 3634 0 
L 628 0 
L 628 4666 
z
" transform="scale(0.015625)"/>
       <path id="DejaVuSans-61" d="M 2194 1759 
Q 1497 1759 1228 1600 
Q 959 1441 959 1056 
Q 959 750 1161 570 
Q 1363 391 1709 391 
Q 2188 391 2477 730 
Q 2766 1069 2766 1631 
L 2766 1759 
L 2194 1759 
z
M 3341 1997 
L 3341 0 
L 2766 0 
L 2766 531 
Q 2569 213 2275 61 
Q 1981 -91 1556 -91 
Q 1019 -91 701 211 
Q 384 513 384 1019 
Q 384 1609 779 1909 
Q 1175 2209 1959 2209 
L 2766 2209 
L 2766 2266 
Q 2766 2663 2505 2880 
Q 2244 3097 1772 3097 
Q 1472 3097 1187 3025 
Q 903 2953 641 2809 
L 641 3341 
Q 956 3463 1253 3523 
Q 1550 3584 1831 3584 
Q 2591 3584 2966 3190 
Q 3341 2797 3341 1997 
z
" transform="scale(0.015625)"/>
       <path id="DejaVuSans-73" d="M 2834 3397 
L 2834 2853 
Q 2591 2978 2328 3040 
Q 2066 3103 1784 3103 
Q 1356 3103 1142 2972 
Q 928 2841 928 2578 
Q 928 2378 1081 2264 
Q 1234 2150 1697 2047 
L 1894 2003 
Q 2506 1872 2764 1633 
Q 3022 1394 3022 966 
Q 3022 478 2636 193 
Q 2250 -91 1575 -91 
Q 1294 -91 989 -36 
Q 684 19 347 128 
L 347 722 
Q 666 556 975 473 
Q 1284 391 1588 391 
Q 1994 391 2212 530 
Q 2431 669 2431 922 
Q 2431 1156 2273 1281 
Q 2116 1406 1581 1522 
L 1381 1569 
Q 847 1681 609 1914 
Q 372 2147 372 2553 
Q 372 3047 722 3315 
Q 1072 3584 1716 3584 
Q 2034 3584 2315 3537 
Q 2597 3491 2834 3397 
z
" transform="scale(0.015625)"/>
       <path id="DejaVuSans-74" d="M 1172 4494 
L 1172 3500 
L 2356 3500 
L 2356 3053 
L 1172 3053 
L 1172 1153 
Q 1172 725 1289 603 
Q 1406 481 1766 481 
L 2356 481 
L 2356 0 
L 1766 0 
Q 1100 0 847 248 
Q 594 497 594 1153 
L 594 3053 
L 172 3053 
L 172 3500 
L 594 3500 
L 594 4494 
L 1172 4494 
z
" transform="scale(0.015625)"/>
       <path id="DejaVuSans-28" d="M 1984 4856 
Q 1566 4138 1362 3434 
Q 1159 2731 1159 2009 
Q 1159 1288 1364 580 
Q 1569 -128 1984 -844 
L 1484 -844 
Q 1016 -109 783 600 
Q 550 1309 550 2009 
Q 550 2706 781 3412 
Q 1013 4119 1484 4856 
L 1984 4856 
z
" transform="scale(0.015625)"/>
       <path id="DejaVuSans-29" d="M 513 4856 
L 1013 4856 
Q 1481 4119 1714 3412 
Q 1947 2706 1947 2009 
Q 1947 1309 1714 600 
Q 1481 -109 1013 -844 
L 513 -844 
Q 928 -128 1133 580 
Q 1338 1288 1338 2009 
Q 1338 2731 1133 3434 
Q 928 4138 513 4856 
z
" transform="scale(0.015625)"/>
      </defs>
      <use xlink:href="#DejaVuSans-45"/>
      <use xlink:href="#DejaVuSans-61" x="63.183594"/>
      <use xlink:href="#DejaVuSans-73" x="124.462891"/>
      <use xlink:href="#DejaVuSans-74" x="176.5625"/>
      <use xlink:href="#DejaVuSans-28" x="215.771484"/>
      <use xlink:href="#DejaVuSans-6d" x="254.785156"/>
      <use xlink:href="#DejaVuSans-29" x="352.197266"/>
     </g>
    </g>
   </g>
   <g id="line2d_17">
    <path d="M 749.863636 684.503953 
L 753.904412 771.178497 
L 755.924799 800.389784 
L 761.985963 755.672809 
L 764.00635 699.56695 
L 766.026738 692.646136 
L 768.047126 686.206468 
L 770.067513 710.034951 
L 772.087901 715.953096 
L 774.108289 707.205287 
L 776.128676 724.798194 
L 790.27139 489.138048 
L 792.291778 466.112069 
L 794.312166 496.706476 
L 796.332553 495.505202 
L 798.352941 497.029027 
L 800.373329 494.53568 
L 802.393717 505.975338 
L 806.434492 556.937295 
L 808.45488 515.834956 
L 810.475267 527.809589 
L 812.495655 535.705858 
L 824.617981 546.546466 
L 830.679144 597.559815 
L 832.699532 624.033472 
L 834.71992 633.141425 
L 836.740307 670.433398 
L 844.821858 746.491462 
L 850.883021 734.740798 
L 852.903409 672.173997 
L 854.923797 696.36557 
L 856.944184 656.477663 
L 860.98496 506.375586 
L 863.005348 489.555805 
L 865.025735 489.752044 
L 867.046123 534.799645 
L 869.066511 496.139547 
L 873.107286 655.562564 
L 875.127674 643.276338 
L 877.148061 677.32772 
L 879.168449 682.787599 
L 885.229612 720.823757 
L 889.270388 693.63948 
L 891.290775 804.730327 
L 893.311163 810.96301 
L 895.331551 739.757211 
L 897.351939 608.130727 
L 899.372326 678.8605 
L 901.392714 718.063233 
L 903.413102 664.913788 
L 905.433489 544.766276 
L 907.453877 511.148369 
L 909.474265 571.93342 
L 913.51504 554.721028 
L 915.535428 517.939795 
L 917.555816 543.284959 
L 921.596591 568.674738 
L 933.718917 616.385296 
L 937.759693 694.154353 
L 1044.840241 743.788559 
L 1046.860628 749.048249 
L 1048.881016 767.71414 
L 1212.53242 317.394806 
L 1214.552807 300.71893 
L 1216.573195 313.214977 
L 1226.675134 345.222646 
L 1230.715909 338.630438 
L 1232.736297 318.80103 
L 1234.756684 356.75924 
L 1236.777072 373.864917 
L 1238.79746 458.72762 
L 1240.817848 457.806136 
L 1242.838235 389.460733 
L 1333.755682 394.76803 
L 1335.77607 379.206676 
L 1337.796457 384.086602 
L 1341.837233 308.53123 
L 1372.143048 408.093882 
L 1374.163436 458.212032 
L 1376.183824 498.760217 
L 1378.204211 439.037458 
L 1382.244987 429.750953 
L 1384.265374 436.916079 
L 1386.285762 423.345228 
L 1390.326537 278.74653 
L 1392.346925 286.89619 
L 1394.367313 289.94499 
L 1402.448864 211.573158 
L 1404.469251 222.089236 
L 1412.550802 491.945125 
L 1414.57119 501.489961 
L 1416.591578 494.240768 
L 1418.611965 561.323156 
L 1420.632353 547.082516 
L 1424.673128 432.282339 
L 1426.693516 394.927676 
L 1428.713904 299.207377 
L 1432.754679 227.08394 
L 1434.775067 253.045809 
L 1436.795455 274.041766 
L 1444.877005 346.512005 
L 1446.897393 352.590919 
L 1454.978944 431.83306 
L 1456.999332 561.961331 
L 1459.019719 578.255103 
L 1461.040107 533.199094 
L 1463.060495 521.395694 
L 1465.080882 530.739697 
L 1469.121658 421.748616 
L 1471.142045 405.609304 
L 1473.162433 330.616124 
L 1475.182821 363.987939 
L 1479.223596 385.466892 
L 1481.243984 390.271997 
L 1483.264372 419.519378 
L 1485.284759 399.806454 
L 1487.305147 506.960648 
L 1489.325535 595.964517 
L 1491.345922 527.382168 
L 1493.36631 448.844007 
L 1495.386698 486.649053 
L 1497.407086 456.233138 
L 1501.447861 380.127411 
L 1669.14004 624.779817 
L 1673.180816 571.934989 
L 1677.221591 554.925804 
L 1681.262366 556.240696 
L 1683.282754 541.821336 
L 1689.343917 643.114123 
L 1691.364305 527.817844 
L 1693.384693 431.891824 
L 1697.425468 409.101004 
L 1699.445856 391.522765 
L 1701.466243 313.388938 
L 1703.486631 301.561648 
L 1705.507019 433.576608 
L 1707.527406 618.39485 
L 1719.649733 655.132025 
L 1723.690508 547.849516 
L 1725.710896 544.742021 
L 1729.751671 615.259503 
L 1731.772059 672.5678 
L 1735.812834 633.192127 
L 1737.833222 710.194075 
L 1739.85361 723.653002 
L 1741.873997 712.194341 
L 1743.894385 662.285465 
L 1749.955548 736.901381 
L 1751.975936 719.387391 
L 1753.996324 664.647115 
L 1756.016711 621.838147 
L 1758.037099 668.280866 
L 1766.11865 675.071361 
L 1768.139037 722.021502 
L 1780.261364 525.57819 
L 1782.281751 475.678807 
L 1784.302139 480.380014 
L 1786.322527 524.140785 
L 1788.342914 529.224338 
L 1790.363302 544.547551 
L 1792.38369 500.362969 
L 1794.404078 559.025531 
L 1796.424465 563.278112 
L 1806.526404 767.997094 
L 1808.546791 718.329884 
L 1810.567179 727.462606 
L 1812.587567 679.101255 
L 1814.607955 627.705607 
L 1816.628342 641.409315 
L 1818.64873 585.226993 
L 1822.689505 637.00333 
L 1824.709893 641.940281 
L 1826.730281 660.206189 
L 1828.750668 656.40371 
L 1830.771056 575.704048 
L 1832.791444 632.515049 
L 1834.811832 662.777881 
L 1836.832219 623.751599 
L 1838.852607 697.589317 
L 1954.014706 361.721927 
L 1958.055481 326.768755 
L 1960.075869 354.337211 
L 1962.096257 344.387245 
L 1964.116644 267.781462 
L 1966.137032 274.393294 
L 1968.15742 210.830506 
L 1970.177807 359.768153 
L 1980.279746 430.206547 
L 1982.300134 464.451492 
L 1988.361297 453.337713 
L 1990.381684 400.60678 
L 1992.402072 383.284174 
L 1994.42246 406.097849 
L 1996.442848 443.492885 
L 2000.483623 406.91443 
L 2073.21758 410.450266 
L 2075.237968 442.686079 
L 2079.278743 466.205901 
L 2081.299131 437.479286 
L 2109.584559 167.4 
L 2438.907754 471.052506 
L 2440.928142 550.88374 
L 2442.948529 618.926287 
L 2444.968917 560.705054 
L 2449.009693 677.667985 
L 2467.193182 545.865147 
L 3178.369652 783.259698 
L 3180.39004 749.558941 
L 3182.410428 796.998198 
L 3184.430816 782.196306 
L 3186.451203 800.78785 
L 3188.471591 839.454215 
L 3194.532754 855.031319 
L 3206.65508 861.194202 
L 3210.695856 834.062536 
L 3212.716243 818.323899 
L 3214.736631 846.919044 
L 3216.757019 755.335524 
L 3220.797794 693.581015 
L 3228.879345 602.948103 
L 3230.899733 651.96436 
L 3253.123997 514.696852 
L 3257.164773 741.098369 
L 3259.18516 719.469516 
L 3261.205548 732.987448 
L 3265.246324 810.852097 
L 3267.266711 844.115374 
L 3269.287099 736.519681 
L 3277.36865 740.213351 
L 3285.450201 918.809329 
L 3287.470588 923.4 
L 3289.490976 904.470787 
L 3291.511364 855.682682 
L 3293.531751 774.019406 
L 3295.552139 698.661613 
L 3297.572527 677.321185 
L 3299.592914 628.528638 
L 3301.613302 672.229553 
L 3303.63369 657.573287 
L 3309.694853 554.589032 
L 3315.756016 328.319225 
L 3317.776404 346.917206 
L 3319.796791 377.691383 
L 3321.817179 348.699408 
L 3323.837567 395.144595 
L 3325.857955 427.166481 
L 3327.878342 485.297044 
L 3329.89873 495.011609 
L 3331.919118 473.940463 
L 3340.000668 487.573973 
L 3342.021056 435.802577 
L 3344.041444 485.556733 
L 3346.061832 501.844304 
L 3348.082219 543.981974 
L 3350.102607 569.946583 
L 3352.122995 586.848677 
L 3354.143382 578.372548 
L 3356.16377 626.570797 
L 3358.184158 504.680359 
L 3360.204545 491.307436 
L 3362.224933 444.553598 
L 3364.245321 444.009966 
L 3366.265709 431.03824 
L 3368.286096 460.545295 
L 3370.306484 475.051962 
L 3372.326872 568.054821 
L 3374.347259 624.747973 
L 3376.367647 651.080721 
L 3400.612299 494.503793 
L 3402.632687 409.003831 
L 3404.653075 382.235575 
L 3406.673463 398.189679 
L 3410.714238 397.569884 
L 3412.734626 382.633543 
L 3414.755013 391.32884 
L 3416.775401 496.392229 
L 3418.795789 519.760607 
L 3420.816176 491.759208 
L 3422.836564 459.004216 
L 3424.856952 481.537412 
L 3426.87734 495.797684 
L 3428.897727 486.909207 
L 3430.918115 475.584352 
L 3432.938503 484.034714 
L 3434.95889 472.962236 
L 3436.979278 443.844677 
L 3438.999666 371.431969 
L 3441.020053 433.659624 
L 3443.040441 439.210598 
L 3445.060829 404.631902 
L 3447.081217 372.010133 
L 3449.101604 349.067115 
L 3451.121992 394.487198 
L 3453.14238 429.093945 
L 3455.162767 373.415071 
L 3457.183155 365.026573 
L 3459.203543 383.497893 
L 3461.22393 420.48522 
L 3463.244318 450.7963 
L 3465.264706 446.042424 
L 3467.285094 478.94314 
L 3469.305481 438.225908 
L 3471.325869 434.519307 
L 3473.346257 418.621795 
L 3475.366644 364.822777 
L 3479.40742 327.400089 
L 3481.427807 330.58134 
L 3483.448195 404.29184 
L 3485.468583 421.336764 
L 3487.488971 429.198416 
L 3489.509358 430.030484 
L 3491.529746 416.706626 
L 3493.550134 428.391826 
L 3497.590909 383.093799 
L 3499.611297 378.826787 
L 3501.631684 389.00268 
L 3503.652072 454.72332 
L 3505.67246 477.873931 
L 3507.692848 486.272463 
L 3509.713235 505.921769 
L 3511.733623 495.526304 
L 3513.754011 485.722787 
L 3515.774398 472.016887 
L 3517.794786 435.787844 
L 3519.815174 450.488794 
L 3521.835561 452.926144 
L 3523.855949 437.67936 
L 3527.896725 421.157164 
L 3529.917112 437.064644 
L 3531.9375 440.530756 
L 3533.957888 439.430513 
L 3535.978275 452.729742 
L 3537.998663 494.135075 
L 3540.019051 501.617149 
L 3542.039439 499.152162 
L 3544.059826 502.230305 
L 3548.100602 464.642361 
L 3550.120989 460.965607 
L 3552.141377 425.534388 
L 3554.161765 449.531484 
L 3556.182152 447.307028 
L 3558.20254 420.755227 
L 3560.222928 458.723315 
L 3562.243316 430.114483 
L 3564.263703 398.937121 
L 3566.284091 380.213877 
L 3568.304479 343.019549 
L 3570.324866 357.769782 
L 3572.345254 358.312891 
L 3582.447193 383.221384 
L 3584.46758 361.569677 
L 3586.487968 417.736995 
L 3590.528743 417.348452 
L 3592.549131 431.870572 
L 3594.569519 418.852661 
L 3596.589906 384.173389 
L 3598.610294 403.171058 
L 3600.630682 300.61316 
L 3602.65107 338.620949 
L 3604.671457 312.725149 
L 3647.099599 467.473206 
L 3649.119987 474.363796 
L 3653.160762 459.942391 
L 3659.221925 388.848686 
L 3661.242313 352.372324 
L 3663.262701 339.499991 
L 3665.283088 323.355234 
L 3667.303476 309.057037 
L 3669.323864 317.661246 
L 3671.344251 371.034758 
L 3673.364639 378.69544 
L 3675.385027 395.238254 
L 3677.405414 416.897007 
L 3679.425802 475.52811 
L 3681.44619 525.941235 
L 3683.466578 552.871766 
L 3685.486965 557.773197 
L 3687.507353 574.001194 
L 3689.527741 545.065079 
L 3691.548128 526.023251 
L 3693.568516 423.04074 
L 3695.588904 411.990444 
L 3697.609291 373.767994 
L 3703.670455 540.204884 
L 3705.690842 625.821648 
L 3707.71123 684.053222 
L 3711.752005 724.766545 
L 3713.772393 686.63013 
L 3715.792781 617.358929 
L 3717.813168 644.649558 
L 3719.833556 613.733401 
L 3721.853944 614.060906 
L 3723.874332 605.325616 
L 3725.894719 626.699183 
L 3727.915107 596.943416 
L 3729.935495 631.065618 
L 3733.97627 589.9479 
L 3735.996658 644.044953 
L 3738.017045 614.61928 
L 3740.037433 529.104478 
L 3744.078209 418.794121 
L 3746.098596 389.34589 
L 3748.118984 413.332998 
L 3750.139372 358.285207 
L 3752.159759 405.743814 
L 3756.200535 521.514986 
L 3758.220922 598.008907 
L 3760.24131 573.70923 
L 3762.261698 558.428852 
L 3764.282086 537.055078 
L 3766.302473 479.750495 
L 3768.322861 415.158518 
L 3772.363636 335.553077 
L 3774.384024 345.214228 
L 3778.424799 400.569773 
L 3780.445187 423.555916 
L 3786.50635 395.040626 
L 3788.526738 428.461616 
L 3790.547126 412.34643 
L 3792.567513 420.031839 
L 3794.587901 450.638205 
L 3796.608289 498.875557 
L 3798.628676 590.693767 
L 3952.178142 670.019447 
L 3954.198529 638.79566 
L 3956.218917 643.78812 
L 3958.239305 613.827374 
L 3960.259693 637.603211 
L 3970.361631 516.978231 
L 3972.382019 538.66731 
L 3978.443182 626.237067 
L 3980.46357 625.177125 
L 3982.483957 610.780252 
L 3984.504345 583.374729 
L 3986.524733 601.146739 
L 3988.54512 644.880558 
L 3990.565508 608.445303 
L 3996.626671 696.947579 
L 4002.687834 510.069894 
L 4004.708222 517.686076 
L 4006.72861 482.264832 
L 4008.748997 523.872067 
L 4010.769385 477.837153 
L 4014.81016 576.760562 
L 4016.830548 590.089265 
L 4018.850936 666.535165 
L 4020.871324 733.282234 
L 4030.973262 751.364189 
L 4032.99365 629.168161 
L 4035.014037 551.115351 
L 4037.034425 533.631473 
L 4039.054813 435.176107 
L 4041.075201 434.249174 
L 4043.095588 503.205559 
L 4045.115976 548.133563 
L 4047.136364 595.964005 
L 4047.136364 595.964005 
" clip-path="url(#pc97e883914)" style="fill: none; stroke: #a3a3a3; stroke-width: 2.5; stroke-linecap: square"/>
   </g>
   <g id="patch_3">
    <path d="M 585 961.2 
L 585 129.6 
" style="fill: none; stroke: #000000; stroke-width: 0.8; stroke-linejoin: miter; stroke-linecap: square"/>
   </g>
   <g id="patch_4">
    <path d="M 4212 961.2 
L 4212 129.6 
" style="fill: none; stroke: #000000; stroke-width: 0.8; stroke-linejoin: miter; stroke-linecap: square"/>
   </g>
   <g id="patch_5">
    <path d="M 585 961.2 
L 4212 961.2 
" style="fill: none; stroke: #000000; stroke-width: 0.8; stroke-linejoin: miter; stroke-linecap: square"/>
   </g>
   <g id="patch_6">
    <path d="M 585 129.6 
L 4212 129.6 
" style="fill: none; stroke: #000000; stroke-width: 0.8; stroke-linejoin: miter; stroke-linecap: square"/>
   </g>
   <g id="text_19">
    <!-- PARR -->
    <g transform="translate(2359.305469 123.360937) scale(0.3 -0.3)">
     <defs>
      <path id="DejaVuSans-50" d="M 1259 4147 
L 1259 2394 
L 2053 2394 
Q 2494 2394 2734 2622 
Q 2975 2850 2975 3272 
Q 2975 3691 2734 3919 
Q 2494 4147 2053 4147 
L 1259 4147 
z
M 628 4666 
L 2053 4666 
Q 2838 4666 3239 4311 
Q 3641 3956 3641 3272 
Q 3641 2581 3239 2228 
Q 2838 1875 2053 1875 
L 1259 1875 
L 1259 0 
L 628 0 
L 628 4666 
z
" transform="scale(0.015625)"/>
      <path id="DejaVuSans-41" d="M 2188 4044 
L 1331 1722 
L 3047 1722 
L 2188 4044 
z
M 1831 4666 
L 2547 4666 
L 4325 0 
L 3669 0 
L 3244 1197 
L 1141 1197 
L 716 0 
L 50 0 
L 1831 4666 
z
" transform="scale(0.015625)"/>
      <path id="DejaVuSans-52" d="M 2841 2188 
Q 3044 2119 3236 1894 
Q 3428 1669 3622 1275 
L 4263 0 
L 3584 0 
L 2988 1197 
Q 2756 1666 2539 1819 
Q 2322 1972 1947 1972 
L 1259 1972 
L 1259 0 
L 628 0 
L 628 4666 
L 2053 4666 
Q 2853 4666 3247 4331 
Q 3641 3997 3641 3322 
Q 3641 2881 3436 2590 
Q 3231 2300 2841 2188 
z
M 1259 4147 
L 1259 2491 
L 2053 2491 
Q 2509 2491 2742 2702 
Q 2975 2913 2975 3322 
Q 2975 3731 2742 3939 
Q 2509 4147 2053 4147 
L 1259 4147 
z
" transform="scale(0.015625)"/>
     </defs>
     <use xlink:href="#DejaVuSans-50"/>
     <use xlink:href="#DejaVuSans-41" x="53.927734"/>
     <use xlink:href="#DejaVuSans-52" x="122.335938"/>
     <use xlink:href="#DejaVuSans-52" x="191.818359"/>
    </g>
   </g>
   <g id="legend_1">
    <g id="patch_7">
     <path d="M 4152.476562 152.278125 
L 4205 152.278125 
Q 4207 152.278125 4207 150.278125 
L 4207 136.6 
Q 4207 134.6 4205 134.6 
L 4152.476562 134.6 
Q 4150.476562 134.6 4150.476562 136.6 
L 4150.476562 150.278125 
Q 4150.476562 152.278125 4152.476562 152.278125 
z
" style="fill: #ffffff; opacity: 0.8; stroke: #cccccc; stroke-linejoin: miter"/>
    </g>
    <g id="line2d_18">
     <path d="M 4154.476562 142.698438 
L 4164.476562 142.698438 
L 4174.476562 142.698438 
" style="fill: none; stroke: #a3a3a3; stroke-width: 2.5; stroke-linecap: square"/>
    </g>
    <g id="text_20">
     <!-- parr -->
     <g transform="translate(4182.476562 146.198438) scale(0.1 -0.1)">
      <defs>
       <path id="DejaVuSans-70" d="M 1159 525 
L 1159 -1331 
L 581 -1331 
L 581 3500 
L 1159 3500 
L 1159 2969 
Q 1341 3281 1617 3432 
Q 1894 3584 2278 3584 
Q 2916 3584 3314 3078 
Q 3713 2572 3713 1747 
Q 3713 922 3314 415 
Q 2916 -91 2278 -91 
Q 1894 -91 1617 61 
Q 1341 213 1159 525 
z
M 3116 1747 
Q 3116 2381 2855 2742 
Q 2594 3103 2138 3103 
Q 1681 3103 1420 2742 
Q 1159 2381 1159 1747 
Q 1159 1113 1420 752 
Q 1681 391 2138 391 
Q 2594 391 2855 752 
Q 3116 1113 3116 1747 
z
" transform="scale(0.015625)"/>
       <path id="DejaVuSans-72" d="M 2631 2963 
Q 2534 3019 2420 3045 
Q 2306 3072 2169 3072 
Q 1681 3072 1420 2755 
Q 1159 2438 1159 1844 
L 1159 0 
L 581 0 
L 581 3500 
L 1159 3500 
L 1159 2956 
Q 1341 3275 1631 3429 
Q 1922 3584 2338 3584 
Q 2397 3584 2469 3576 
Q 2541 3569 2628 3553 
L 2631 2963 
z
" transform="scale(0.015625)"/>
      </defs>
      <use xlink:href="#DejaVuSans-70"/>
      <use xlink:href="#DejaVuSans-61" x="63.476562"/>
      <use xlink:href="#DejaVuSans-72" x="124.755859"/>
      <use xlink:href="#DejaVuSans-72" x="164.119141"/>
     </g>
    </g>
   </g>
  </g>
 </g>
 <defs>
  <clipPath id="pc97e883914">
   <rect x="585" y="129.6" width="3627" height="831.6"/>
  </clipPath>
 </defs>
</svg>
