<?xml version="1.0" encoding="utf-8" standalone="no"?>
<!DOCTYPE svg PUBLIC "-//W3C//DTD SVG 1.1//EN"
  "http://www.w3.org/Graphics/SVG/1.1/DTD/svg11.dtd">
<svg xmlns:xlink="http://www.w3.org/1999/xlink" width="4680pt" height="1080pt" viewBox="0 0 4680 1080" xmlns="http://www.w3.org/2000/svg" version="1.1">
 <metadata>
  <rdf:RDF xmlns:dc="http://purl.org/dc/elements/1.1/" xmlns:cc="http://creativecommons.org/ns#" xmlns:rdf="http://www.w3.org/1999/02/22-rdf-syntax-ns#">
   <cc:Work>
    <dc:type rdf:resource="http://purl.org/dc/dcmitype/StillImage"/>
    <dc:date>2024-03-25T14:09:18.109732</dc:date>
    <dc:format>image/svg+xml</dc:format>
    <dc:creator>
     <cc:Agent>
      <dc:title>Matplotlib v3.7.2, https://matplotlib.org/</dc:title>
     </cc:Agent>
    </dc:creator>
   </cc:Work>
  </rdf:RDF>
 </metadata>
 <defs>
  <style type="text/css">*{stroke-linejoin: round; stroke-linecap: butt}</style>
 </defs>
 <g id="figure_1">
  <g id="patch_1">
   <path d="M 0 1080 
L 4680 1080 
L 4680 0 
L 0 0 
z
" style="fill: #ffffff"/>
  </g>
  <g id="axes_1">
   <g id="patch_2">
    <path d="M 585 961.2 
L 4212 961.2 
L 4212 129.6 
L 585 129.6 
z
" style="fill: #ffffff"/>
   </g>
   <g id="matplotlib.axis_1">
    <g id="xtick_1">
     <g id="line2d_1">
      <defs>
       <path id="m416189e8aa" d="M 0 0 
L 0 3.5 
" style="stroke: #000000; stroke-width: 0.8"/>
      </defs>
      <g>
       <use xlink:href="#m416189e8aa" x="941.800468" y="961.2" style="stroke: #000000; stroke-width: 0.8"/>
      </g>
     </g>
     <g id="text_1">
      <!-- 2012-07 -->
      <g transform="translate(900.017655 983.396875) scale(0.2 -0.2)">
       <defs>
        <path id="DejaVuSans-32" d="M 1228 531 
L 3431 531 
L 3431 0 
L 469 0 
L 469 531 
Q 828 903 1448 1529 
Q 2069 2156 2228 2338 
Q 2531 2678 2651 2914 
Q 2772 3150 2772 3378 
Q 2772 3750 2511 3984 
Q 2250 4219 1831 4219 
Q 1534 4219 1204 4116 
Q 875 4013 500 3803 
L 500 4441 
Q 881 4594 1212 4672 
Q 1544 4750 1819 4750 
Q 2544 4750 2975 4387 
Q 3406 4025 3406 3419 
Q 3406 3131 3298 2873 
Q 3191 2616 2906 2266 
Q 2828 2175 2409 1742 
Q 1991 1309 1228 531 
z
" transform="scale(0.015625)"/>
        <path id="DejaVuSans-30" d="M 2034 4250 
Q 1547 4250 1301 3770 
Q 1056 3291 1056 2328 
Q 1056 1369 1301 889 
Q 1547 409 2034 409 
Q 2525 409 2770 889 
Q 3016 1369 3016 2328 
Q 3016 3291 2770 3770 
Q 2525 4250 2034 4250 
z
M 2034 4750 
Q 2819 4750 3233 4129 
Q 3647 3509 3647 2328 
Q 3647 1150 3233 529 
Q 2819 -91 2034 -91 
Q 1250 -91 836 529 
Q 422 1150 422 2328 
Q 422 3509 836 4129 
Q 1250 4750 2034 4750 
z
" transform="scale(0.015625)"/>
        <path id="DejaVuSans-31" d="M 794 531 
L 1825 531 
L 1825 4091 
L 703 3866 
L 703 4441 
L 1819 4666 
L 2450 4666 
L 2450 531 
L 3481 531 
L 3481 0 
L 794 0 
L 794 531 
z
" transform="scale(0.015625)"/>
        <path id="DejaVuSans-2d" d="M 313 2009 
L 1997 2009 
L 1997 1497 
L 313 1497 
L 313 2009 
z
" transform="scale(0.015625)"/>
        <path id="DejaVuSans-37" d="M 525 4666 
L 3525 4666 
L 3525 4397 
L 1831 0 
L 1172 0 
L 2766 4134 
L 525 4134 
L 525 4666 
z
" transform="scale(0.015625)"/>
       </defs>
       <use xlink:href="#DejaVuSans-32"/>
       <use xlink:href="#DejaVuSans-30" x="63.623047"/>
       <use xlink:href="#DejaVuSans-31" x="127.246094"/>
       <use xlink:href="#DejaVuSans-32" x="190.869141"/>
       <use xlink:href="#DejaVuSans-2d" x="254.492188"/>
       <use xlink:href="#DejaVuSans-30" x="290.576172"/>
       <use xlink:href="#DejaVuSans-37" x="354.199219"/>
      </g>
     </g>
    </g>
    <g id="xtick_2">
     <g id="line2d_2">
      <g>
       <use xlink:href="#m416189e8aa" x="1313.551805" y="961.2" style="stroke: #000000; stroke-width: 0.8"/>
      </g>
     </g>
     <g id="text_2">
      <!-- 2013-01 -->
      <g transform="translate(1271.768992 983.396875) scale(0.2 -0.2)">
       <defs>
        <path id="DejaVuSans-33" d="M 2597 2516 
Q 3050 2419 3304 2112 
Q 3559 1806 3559 1356 
Q 3559 666 3084 287 
Q 2609 -91 1734 -91 
Q 1441 -91 1130 -33 
Q 819 25 488 141 
L 488 750 
Q 750 597 1062 519 
Q 1375 441 1716 441 
Q 2309 441 2620 675 
Q 2931 909 2931 1356 
Q 2931 1769 2642 2001 
Q 2353 2234 1838 2234 
L 1294 2234 
L 1294 2753 
L 1863 2753 
Q 2328 2753 2575 2939 
Q 2822 3125 2822 3475 
Q 2822 3834 2567 4026 
Q 2313 4219 1838 4219 
Q 1578 4219 1281 4162 
Q 984 4106 628 3988 
L 628 4550 
Q 988 4650 1302 4700 
Q 1616 4750 1894 4750 
Q 2613 4750 3031 4423 
Q 3450 4097 3450 3541 
Q 3450 3153 3228 2886 
Q 3006 2619 2597 2516 
z
" transform="scale(0.015625)"/>
       </defs>
       <use xlink:href="#DejaVuSans-32"/>
       <use xlink:href="#DejaVuSans-30" x="63.623047"/>
       <use xlink:href="#DejaVuSans-31" x="127.246094"/>
       <use xlink:href="#DejaVuSans-33" x="190.869141"/>
       <use xlink:href="#DejaVuSans-2d" x="254.492188"/>
       <use xlink:href="#DejaVuSans-30" x="290.576172"/>
       <use xlink:href="#DejaVuSans-31" x="354.199219"/>
      </g>
     </g>
    </g>
    <g id="xtick_3">
     <g id="line2d_3">
      <g>
       <use xlink:href="#m416189e8aa" x="1679.241979" y="961.2" style="stroke: #000000; stroke-width: 0.8"/>
      </g>
     </g>
     <g id="text_3">
      <!-- 2013-07 -->
      <g transform="translate(1637.459166 983.396875) scale(0.2 -0.2)">
       <use xlink:href="#DejaVuSans-32"/>
       <use xlink:href="#DejaVuSans-30" x="63.623047"/>
       <use xlink:href="#DejaVuSans-31" x="127.246094"/>
       <use xlink:href="#DejaVuSans-33" x="190.869141"/>
       <use xlink:href="#DejaVuSans-2d" x="254.492188"/>
       <use xlink:href="#DejaVuSans-30" x="290.576172"/>
       <use xlink:href="#DejaVuSans-37" x="354.199219"/>
      </g>
     </g>
    </g>
    <g id="xtick_4">
     <g id="line2d_4">
      <g>
       <use xlink:href="#m416189e8aa" x="2050.993316" y="961.2" style="stroke: #000000; stroke-width: 0.8"/>
      </g>
     </g>
     <g id="text_4">
      <!-- 2014-01 -->
      <g transform="translate(2009.210503 983.396875) scale(0.2 -0.2)">
       <defs>
        <path id="DejaVuSans-34" d="M 2419 4116 
L 825 1625 
L 2419 1625 
L 2419 4116 
z
M 2253 4666 
L 3047 4666 
L 3047 1625 
L 3713 1625 
L 3713 1100 
L 3047 1100 
L 3047 0 
L 2419 0 
L 2419 1100 
L 313 1100 
L 313 1709 
L 2253 4666 
z
" transform="scale(0.015625)"/>
       </defs>
       <use xlink:href="#DejaVuSans-32"/>
       <use xlink:href="#DejaVuSans-30" x="63.623047"/>
       <use xlink:href="#DejaVuSans-31" x="127.246094"/>
       <use xlink:href="#DejaVuSans-34" x="190.869141"/>
       <use xlink:href="#DejaVuSans-2d" x="254.492188"/>
       <use xlink:href="#DejaVuSans-30" x="290.576172"/>
       <use xlink:href="#DejaVuSans-31" x="354.199219"/>
      </g>
     </g>
    </g>
    <g id="xtick_5">
     <g id="line2d_5">
      <g>
       <use xlink:href="#m416189e8aa" x="2416.683489" y="961.2" style="stroke: #000000; stroke-width: 0.8"/>
      </g>
     </g>
     <g id="text_5">
      <!-- 2014-07 -->
      <g transform="translate(2374.900677 983.396875) scale(0.2 -0.2)">
       <use xlink:href="#DejaVuSans-32"/>
       <use xlink:href="#DejaVuSans-30" x="63.623047"/>
       <use xlink:href="#DejaVuSans-31" x="127.246094"/>
       <use xlink:href="#DejaVuSans-34" x="190.869141"/>
       <use xlink:href="#DejaVuSans-2d" x="254.492188"/>
       <use xlink:href="#DejaVuSans-30" x="290.576172"/>
       <use xlink:href="#DejaVuSans-37" x="354.199219"/>
      </g>
     </g>
    </g>
    <g id="xtick_6">
     <g id="line2d_6">
      <g>
       <use xlink:href="#m416189e8aa" x="2788.434826" y="961.2" style="stroke: #000000; stroke-width: 0.8"/>
      </g>
     </g>
     <g id="text_6">
      <!-- 2015-01 -->
      <g transform="translate(2746.652014 983.396875) scale(0.2 -0.2)">
       <defs>
        <path id="DejaVuSans-35" d="M 691 4666 
L 3169 4666 
L 3169 4134 
L 1269 4134 
L 1269 2991 
Q 1406 3038 1543 3061 
Q 1681 3084 1819 3084 
Q 2600 3084 3056 2656 
Q 3513 2228 3513 1497 
Q 3513 744 3044 326 
Q 2575 -91 1722 -91 
Q 1428 -91 1123 -41 
Q 819 9 494 109 
L 494 744 
Q 775 591 1075 516 
Q 1375 441 1709 441 
Q 2250 441 2565 725 
Q 2881 1009 2881 1497 
Q 2881 1984 2565 2268 
Q 2250 2553 1709 2553 
Q 1456 2553 1204 2497 
Q 953 2441 691 2322 
L 691 4666 
z
" transform="scale(0.015625)"/>
       </defs>
       <use xlink:href="#DejaVuSans-32"/>
       <use xlink:href="#DejaVuSans-30" x="63.623047"/>
       <use xlink:href="#DejaVuSans-31" x="127.246094"/>
       <use xlink:href="#DejaVuSans-35" x="190.869141"/>
       <use xlink:href="#DejaVuSans-2d" x="254.492188"/>
       <use xlink:href="#DejaVuSans-30" x="290.576172"/>
       <use xlink:href="#DejaVuSans-31" x="354.199219"/>
      </g>
     </g>
    </g>
    <g id="xtick_7">
     <g id="line2d_7">
      <g>
       <use xlink:href="#m416189e8aa" x="3154.125" y="961.2" style="stroke: #000000; stroke-width: 0.8"/>
      </g>
     </g>
     <g id="text_7">
      <!-- 2015-07 -->
      <g transform="translate(3112.342188 983.396875) scale(0.2 -0.2)">
       <use xlink:href="#DejaVuSans-32"/>
       <use xlink:href="#DejaVuSans-30" x="63.623047"/>
       <use xlink:href="#DejaVuSans-31" x="127.246094"/>
       <use xlink:href="#DejaVuSans-35" x="190.869141"/>
       <use xlink:href="#DejaVuSans-2d" x="254.492188"/>
       <use xlink:href="#DejaVuSans-30" x="290.576172"/>
       <use xlink:href="#DejaVuSans-37" x="354.199219"/>
      </g>
     </g>
    </g>
    <g id="xtick_8">
     <g id="line2d_8">
      <g>
       <use xlink:href="#m416189e8aa" x="3525.876337" y="961.2" style="stroke: #000000; stroke-width: 0.8"/>
      </g>
     </g>
     <g id="text_8">
      <!-- 2016-01 -->
      <g transform="translate(3484.093524 983.396875) scale(0.2 -0.2)">
       <defs>
        <path id="DejaVuSans-36" d="M 2113 2584 
Q 1688 2584 1439 2293 
Q 1191 2003 1191 1497 
Q 1191 994 1439 701 
Q 1688 409 2113 409 
Q 2538 409 2786 701 
Q 3034 994 3034 1497 
Q 3034 2003 2786 2293 
Q 2538 2584 2113 2584 
z
M 3366 4563 
L 3366 3988 
Q 3128 4100 2886 4159 
Q 2644 4219 2406 4219 
Q 1781 4219 1451 3797 
Q 1122 3375 1075 2522 
Q 1259 2794 1537 2939 
Q 1816 3084 2150 3084 
Q 2853 3084 3261 2657 
Q 3669 2231 3669 1497 
Q 3669 778 3244 343 
Q 2819 -91 2113 -91 
Q 1303 -91 875 529 
Q 447 1150 447 2328 
Q 447 3434 972 4092 
Q 1497 4750 2381 4750 
Q 2619 4750 2861 4703 
Q 3103 4656 3366 4563 
z
" transform="scale(0.015625)"/>
       </defs>
       <use xlink:href="#DejaVuSans-32"/>
       <use xlink:href="#DejaVuSans-30" x="63.623047"/>
       <use xlink:href="#DejaVuSans-31" x="127.246094"/>
       <use xlink:href="#DejaVuSans-36" x="190.869141"/>
       <use xlink:href="#DejaVuSans-2d" x="254.492188"/>
       <use xlink:href="#DejaVuSans-30" x="290.576172"/>
       <use xlink:href="#DejaVuSans-31" x="354.199219"/>
      </g>
     </g>
    </g>
    <g id="xtick_9">
     <g id="line2d_9">
      <g>
       <use xlink:href="#m416189e8aa" x="3893.586898" y="961.2" style="stroke: #000000; stroke-width: 0.8"/>
      </g>
     </g>
     <g id="text_9">
      <!-- 2016-07 -->
      <g transform="translate(3851.804086 983.396875) scale(0.2 -0.2)">
       <use xlink:href="#DejaVuSans-32"/>
       <use xlink:href="#DejaVuSans-30" x="63.623047"/>
       <use xlink:href="#DejaVuSans-31" x="127.246094"/>
       <use xlink:href="#DejaVuSans-36" x="190.869141"/>
       <use xlink:href="#DejaVuSans-2d" x="254.492188"/>
       <use xlink:href="#DejaVuSans-30" x="290.576172"/>
       <use xlink:href="#DejaVuSans-37" x="354.199219"/>
      </g>
     </g>
    </g>
    <g id="text_10">
     <!-- Time -->
     <g transform="translate(2374.032813 1006.753125) scale(0.2 -0.2)">
      <defs>
       <path id="DejaVuSans-54" d="M -19 4666 
L 3928 4666 
L 3928 4134 
L 2272 4134 
L 2272 0 
L 1638 0 
L 1638 4134 
L -19 4134 
L -19 4666 
z
" transform="scale(0.015625)"/>
       <path id="DejaVuSans-69" d="M 603 3500 
L 1178 3500 
L 1178 0 
L 603 0 
L 603 3500 
z
M 603 4863 
L 1178 4863 
L 1178 4134 
L 603 4134 
L 603 4863 
z
" transform="scale(0.015625)"/>
       <path id="DejaVuSans-6d" d="M 3328 2828 
Q 3544 3216 3844 3400 
Q 4144 3584 4550 3584 
Q 5097 3584 5394 3201 
Q 5691 2819 5691 2113 
L 5691 0 
L 5113 0 
L 5113 2094 
Q 5113 2597 4934 2840 
Q 4756 3084 4391 3084 
Q 3944 3084 3684 2787 
Q 3425 2491 3425 1978 
L 3425 0 
L 2847 0 
L 2847 2094 
Q 2847 2600 2669 2842 
Q 2491 3084 2119 3084 
Q 1678 3084 1418 2786 
Q 1159 2488 1159 1978 
L 1159 0 
L 581 0 
L 581 3500 
L 1159 3500 
L 1159 2956 
Q 1356 3278 1631 3431 
Q 1906 3584 2284 3584 
Q 2666 3584 2933 3390 
Q 3200 3197 3328 2828 
z
" transform="scale(0.015625)"/>
       <path id="DejaVuSans-65" d="M 3597 1894 
L 3597 1613 
L 953 1613 
Q 991 1019 1311 708 
Q 1631 397 2203 397 
Q 2534 397 2845 478 
Q 3156 559 3463 722 
L 3463 178 
Q 3153 47 2828 -22 
Q 2503 -91 2169 -91 
Q 1331 -91 842 396 
Q 353 884 353 1716 
Q 353 2575 817 3079 
Q 1281 3584 2069 3584 
Q 2775 3584 3186 3129 
Q 3597 2675 3597 1894 
z
M 3022 2063 
Q 3016 2534 2758 2815 
Q 2500 3097 2075 3097 
Q 1594 3097 1305 2825 
Q 1016 2553 972 2059 
L 3022 2063 
z
" transform="scale(0.015625)"/>
      </defs>
      <use xlink:href="#DejaVuSans-54"/>
      <use xlink:href="#DejaVuSans-69" x="57.958984"/>
      <use xlink:href="#DejaVuSans-6d" x="85.742188"/>
      <use xlink:href="#DejaVuSans-65" x="183.154297"/>
     </g>
    </g>
   </g>
   <g id="matplotlib.axis_2">
    <g id="ytick_1">
     <g id="line2d_10">
      <defs>
       <path id="mf317ef6415" d="M 0 0 
L -3.5 0 
" style="stroke: #000000; stroke-width: 0.8"/>
      </defs>
      <g>
       <use xlink:href="#mf317ef6415" x="585" y="952.126893" style="stroke: #000000; stroke-width: 0.8"/>
      </g>
     </g>
     <g id="text_11">
      <!-- −0.003 -->
      <g transform="translate(503.984375 959.72533) scale(0.2 -0.2)">
       <defs>
        <path id="DejaVuSans-2212" d="M 678 2272 
L 4684 2272 
L 4684 1741 
L 678 1741 
L 678 2272 
z
" transform="scale(0.015625)"/>
        <path id="DejaVuSans-2e" d="M 684 794 
L 1344 794 
L 1344 0 
L 684 0 
L 684 794 
z
" transform="scale(0.015625)"/>
       </defs>
       <use xlink:href="#DejaVuSans-2212"/>
       <use xlink:href="#DejaVuSans-30" x="83.789062"/>
       <use xlink:href="#DejaVuSans-2e" x="147.412109"/>
       <use xlink:href="#DejaVuSans-30" x="179.199219"/>
       <use xlink:href="#DejaVuSans-30" x="242.822266"/>
       <use xlink:href="#DejaVuSans-33" x="306.445312"/>
      </g>
     </g>
    </g>
    <g id="ytick_2">
     <g id="line2d_11">
      <g>
       <use xlink:href="#mf317ef6415" x="585" y="842.030354" style="stroke: #000000; stroke-width: 0.8"/>
      </g>
     </g>
     <g id="text_12">
      <!-- −0.002 -->
      <g transform="translate(503.984375 849.628792) scale(0.2 -0.2)">
       <use xlink:href="#DejaVuSans-2212"/>
       <use xlink:href="#DejaVuSans-30" x="83.789062"/>
       <use xlink:href="#DejaVuSans-2e" x="147.412109"/>
       <use xlink:href="#DejaVuSans-30" x="179.199219"/>
       <use xlink:href="#DejaVuSans-30" x="242.822266"/>
       <use xlink:href="#DejaVuSans-32" x="306.445312"/>
      </g>
     </g>
    </g>
    <g id="ytick_3">
     <g id="line2d_12">
      <g>
       <use xlink:href="#mf317ef6415" x="585" y="731.933816" style="stroke: #000000; stroke-width: 0.8"/>
      </g>
     </g>
     <g id="text_13">
      <!-- −0.001 -->
      <g transform="translate(503.984375 739.532253) scale(0.2 -0.2)">
       <use xlink:href="#DejaVuSans-2212"/>
       <use xlink:href="#DejaVuSans-30" x="83.789062"/>
       <use xlink:href="#DejaVuSans-2e" x="147.412109"/>
       <use xlink:href="#DejaVuSans-30" x="179.199219"/>
       <use xlink:href="#DejaVuSans-30" x="242.822266"/>
       <use xlink:href="#DejaVuSans-31" x="306.445312"/>
      </g>
     </g>
    </g>
    <g id="ytick_4">
     <g id="line2d_13">
      <g>
       <use xlink:href="#mf317ef6415" x="585" y="621.837277" style="stroke: #000000; stroke-width: 0.8"/>
      </g>
     </g>
     <g id="text_14">
      <!-- 0.000 -->
      <g transform="translate(520.74375 629.435714) scale(0.2 -0.2)">
       <use xlink:href="#DejaVuSans-30"/>
       <use xlink:href="#DejaVuSans-2e" x="63.623047"/>
       <use xlink:href="#DejaVuSans-30" x="95.410156"/>
       <use xlink:href="#DejaVuSans-30" x="159.033203"/>
       <use xlink:href="#DejaVuSans-30" x="222.65625"/>
      </g>
     </g>
    </g>
    <g id="ytick_5">
     <g id="line2d_14">
      <g>
       <use xlink:href="#mf317ef6415" x="585" y="511.740738" style="stroke: #000000; stroke-width: 0.8"/>
      </g>
     </g>
     <g id="text_15">
      <!-- 0.001 -->
      <g transform="translate(520.74375 519.339176) scale(0.2 -0.2)">
       <use xlink:href="#DejaVuSans-30"/>
       <use xlink:href="#DejaVuSans-2e" x="63.623047"/>
       <use xlink:href="#DejaVuSans-30" x="95.410156"/>
       <use xlink:href="#DejaVuSans-30" x="159.033203"/>
       <use xlink:href="#DejaVuSans-31" x="222.65625"/>
      </g>
     </g>
    </g>
    <g id="ytick_6">
     <g id="line2d_15">
      <g>
       <use xlink:href="#mf317ef6415" x="585" y="401.644199" style="stroke: #000000; stroke-width: 0.8"/>
      </g>
     </g>
     <g id="text_16">
      <!-- 0.002 -->
      <g transform="translate(520.74375 409.242637) scale(0.2 -0.2)">
       <use xlink:href="#DejaVuSans-30"/>
       <use xlink:href="#DejaVuSans-2e" x="63.623047"/>
       <use xlink:href="#DejaVuSans-30" x="95.410156"/>
       <use xlink:href="#DejaVuSans-30" x="159.033203"/>
       <use xlink:href="#DejaVuSans-32" x="222.65625"/>
      </g>
     </g>
    </g>
    <g id="ytick_7">
     <g id="line2d_16">
      <g>
       <use xlink:href="#mf317ef6415" x="585" y="291.547661" style="stroke: #000000; stroke-width: 0.8"/>
      </g>
     </g>
     <g id="text_17">
      <!-- 0.003 -->
      <g transform="translate(520.74375 299.146098) scale(0.2 -0.2)">
       <use xlink:href="#DejaVuSans-30"/>
       <use xlink:href="#DejaVuSans-2e" x="63.623047"/>
       <use xlink:href="#DejaVuSans-30" x="95.410156"/>
       <use xlink:href="#DejaVuSans-30" x="159.033203"/>
       <use xlink:href="#DejaVuSans-33" x="222.65625"/>
      </g>
     </g>
    </g>
    <g id="ytick_8">
     <g id="line2d_17">
      <g>
       <use xlink:href="#mf317ef6415" x="585" y="181.451122" style="stroke: #000000; stroke-width: 0.8"/>
      </g>
     </g>
     <g id="text_18">
      <!-- 0.004 -->
      <g transform="translate(520.74375 189.049559) scale(0.2 -0.2)">
       <use xlink:href="#DejaVuSans-30"/>
       <use xlink:href="#DejaVuSans-2e" x="63.623047"/>
       <use xlink:href="#DejaVuSans-30" x="95.410156"/>
       <use xlink:href="#DejaVuSans-30" x="159.033203"/>
       <use xlink:href="#DejaVuSans-34" x="222.65625"/>
      </g>
     </g>
    </g>
    <g id="text_19">
     <!-- East(m) -->
     <g transform="translate(495.825 584.520313) rotate(-90) scale(0.2 -0.2)">
      <defs>
       <path id="DejaVuSans-45" d="M 628 4666 
L 3578 4666 
L 3578 4134 
L 1259 4134 
L 1259 2753 
L 3481 2753 
L 3481 2222 
L 1259 2222 
L 1259 531 
L 3634 531 
L 3634 0 
L 628 0 
L 628 4666 
z
" transform="scale(0.015625)"/>
       <path id="DejaVuSans-61" d="M 2194 1759 
Q 1497 1759 1228 1600 
Q 959 1441 959 1056 
Q 959 750 1161 570 
Q 1363 391 1709 391 
Q 2188 391 2477 730 
Q 2766 1069 2766 1631 
L 2766 1759 
L 2194 1759 
z
M 3341 1997 
L 3341 0 
L 2766 0 
L 2766 531 
Q 2569 213 2275 61 
Q 1981 -91 1556 -91 
Q 1019 -91 701 211 
Q 384 513 384 1019 
Q 384 1609 779 1909 
Q 1175 2209 1959 2209 
L 2766 2209 
L 2766 2266 
Q 2766 2663 2505 2880 
Q 2244 3097 1772 3097 
Q 1472 3097 1187 3025 
Q 903 2953 641 2809 
L 641 3341 
Q 956 3463 1253 3523 
Q 1550 3584 1831 3584 
Q 2591 3584 2966 3190 
Q 3341 2797 3341 1997 
z
" transform="scale(0.015625)"/>
       <path id="DejaVuSans-73" d="M 2834 3397 
L 2834 2853 
Q 2591 2978 2328 3040 
Q 2066 3103 1784 3103 
Q 1356 3103 1142 2972 
Q 928 2841 928 2578 
Q 928 2378 1081 2264 
Q 1234 2150 1697 2047 
L 1894 2003 
Q 2506 1872 2764 1633 
Q 3022 1394 3022 966 
Q 3022 478 2636 193 
Q 2250 -91 1575 -91 
Q 1294 -91 989 -36 
Q 684 19 347 128 
L 347 722 
Q 666 556 975 473 
Q 1284 391 1588 391 
Q 1994 391 2212 530 
Q 2431 669 2431 922 
Q 2431 1156 2273 1281 
Q 2116 1406 1581 1522 
L 1381 1569 
Q 847 1681 609 1914 
Q 372 2147 372 2553 
Q 372 3047 722 3315 
Q 1072 3584 1716 3584 
Q 2034 3584 2315 3537 
Q 2597 3491 2834 3397 
z
" transform="scale(0.015625)"/>
       <path id="DejaVuSans-74" d="M 1172 4494 
L 1172 3500 
L 2356 3500 
L 2356 3053 
L 1172 3053 
L 1172 1153 
Q 1172 725 1289 603 
Q 1406 481 1766 481 
L 2356 481 
L 2356 0 
L 1766 0 
Q 1100 0 847 248 
Q 594 497 594 1153 
L 594 3053 
L 172 3053 
L 172 3500 
L 594 3500 
L 594 4494 
L 1172 4494 
z
" transform="scale(0.015625)"/>
       <path id="DejaVuSans-28" d="M 1984 4856 
Q 1566 4138 1362 3434 
Q 1159 2731 1159 2009 
Q 1159 1288 1364 580 
Q 1569 -128 1984 -844 
L 1484 -844 
Q 1016 -109 783 600 
Q 550 1309 550 2009 
Q 550 2706 781 3412 
Q 1013 4119 1484 4856 
L 1984 4856 
z
" transform="scale(0.015625)"/>
       <path id="DejaVuSans-29" d="M 513 4856 
L 1013 4856 
Q 1481 4119 1714 3412 
Q 1947 2706 1947 2009 
Q 1947 1309 1714 600 
Q 1481 -109 1013 -844 
L 513 -844 
Q 928 -128 1133 580 
Q 1338 1288 1338 2009 
Q 1338 2731 1133 3434 
Q 928 4138 513 4856 
z
" transform="scale(0.015625)"/>
      </defs>
      <use xlink:href="#DejaVuSans-45"/>
      <use xlink:href="#DejaVuSans-61" x="63.183594"/>
      <use xlink:href="#DejaVuSans-73" x="124.462891"/>
      <use xlink:href="#DejaVuSans-74" x="176.5625"/>
      <use xlink:href="#DejaVuSans-28" x="215.771484"/>
      <use xlink:href="#DejaVuSans-6d" x="254.785156"/>
      <use xlink:href="#DejaVuSans-29" x="352.197266"/>
     </g>
    </g>
   </g>
   <g id="line2d_18">
    <path d="M 749.863636 686.745439 
L 753.904412 738.615726 
L 755.924799 742.15375 
L 761.985963 681.928008 
L 764.00635 649.556848 
L 766.026738 606.457524 
L 768.047126 603.47607 
L 770.067513 586.257655 
L 772.087901 591.997643 
L 774.108289 571.945437 
L 776.128676 580.815403 
L 790.27139 639.584898 
L 792.291778 610.785432 
L 794.312166 593.451144 
L 796.332553 596.273155 
L 798.352941 574.019171 
L 800.373329 560.561676 
L 802.393717 539.07825 
L 806.434492 542.902309 
L 808.45488 532.879566 
L 810.475267 521.770285 
L 812.495655 536.817032 
L 824.617981 677.979878 
L 830.679144 695.383227 
L 832.699532 713.370259 
L 834.71992 724.182434 
L 836.740307 721.490654 
L 844.821858 808.69914 
L 850.883021 818.715308 
L 852.903409 784.483019 
L 854.923797 737.985323 
L 856.944184 753.487838 
L 860.98496 754.611461 
L 863.005348 711.888178 
L 865.025735 714.280747 
L 867.046123 734.135661 
L 869.066511 730.538396 
L 873.107286 697.372345 
L 875.127674 676.044195 
L 877.148061 684.406001 
L 879.168449 682.46292 
L 885.229612 685.276965 
L 889.270388 750.573871 
L 891.290775 735.624375 
L 893.311163 730.181301 
L 895.331551 696.207204 
L 897.351939 699.124375 
L 899.372326 691.591822 
L 901.392714 676.712803 
L 903.413102 623.376395 
L 905.433489 633.314236 
L 907.453877 655.37734 
L 909.474265 680.61366 
L 913.51504 670.418476 
L 915.535428 704.024777 
L 917.555816 724.586229 
L 921.596591 747.192595 
L 933.718917 895.936612 
L 937.759693 923.4 
L 1044.840241 803.385912 
L 1046.860628 820.132507 
L 1048.881016 824.808581 
L 1212.53242 503.525471 
L 1214.552807 521.806547 
L 1216.573195 538.172158 
L 1226.675134 535.953588 
L 1230.715909 509.261727 
L 1232.736297 486.609643 
L 1234.756684 516.107099 
L 1236.777072 532.620249 
L 1238.79746 560.655054 
L 1240.817848 553.048635 
L 1242.838235 542.253364 
L 1333.755682 432.645866 
L 1335.77607 437.802968 
L 1337.796457 394.337794 
L 1341.837233 367.236685 
L 1372.143048 560.833851 
L 1374.163436 526.096868 
L 1376.183824 518.954697 
L 1378.204211 515.313699 
L 1382.244987 503.248828 
L 1384.265374 442.673739 
L 1386.285762 424.087589 
L 1388.30615 417.960516 
L 1390.326537 398.334299 
L 1392.346925 352.175919 
L 1394.367313 303.129291 
L 1402.448864 263.488608 
L 1404.469251 264.034485 
L 1406.489639 302.313751 
L 1412.550802 455.037628 
L 1414.57119 472.429658 
L 1416.591578 472.070572 
L 1418.611965 501.090864 
L 1420.632353 494.146642 
L 1424.673128 500.867185 
L 1428.713904 544.316388 
L 1432.754679 550.895916 
L 1434.775067 558.260919 
L 1436.795455 500.19046 
L 1444.877005 398.995991 
L 1446.897393 387.161316 
L 1454.978944 468.584797 
L 1456.999332 533.382482 
L 1459.019719 539.147134 
L 1461.040107 529.669837 
L 1463.060495 499.153448 
L 1465.080882 463.404485 
L 1469.121658 475.574666 
L 1471.142045 471.202262 
L 1473.162433 431.30505 
L 1475.182821 430.838338 
L 1479.223596 515.051105 
L 1481.243984 590.364383 
L 1483.264372 596.79526 
L 1485.284759 595.961573 
L 1487.305147 649.026991 
L 1489.325535 651.163027 
L 1491.345922 691.221904 
L 1493.36631 715.519214 
L 1495.386698 634.932927 
L 1497.407086 593.739965 
L 1501.447861 562.118355 
L 1669.14004 889.018795 
L 1673.180816 816.492774 
L 1677.221591 763.868802 
L 1681.262366 714.994495 
L 1683.282754 702.01773 
L 1689.343917 723.280617 
L 1691.364305 725.783704 
L 1693.384693 759.150362 
L 1697.425468 762.266329 
L 1699.445856 736.756814 
L 1701.466243 775.392016 
L 1703.486631 836.959162 
L 1705.507019 791.956655 
L 1707.527406 782.834435 
L 1719.649733 712.629993 
L 1723.690508 640.266821 
L 1725.710896 642.744609 
L 1727.731283 681.385191 
L 1729.751671 688.456084 
L 1731.772059 714.874692 
L 1735.812834 831.32017 
L 1737.833222 846.172481 
L 1739.85361 845.826461 
L 1741.873997 816.936763 
L 1743.894385 786.393572 
L 1749.955548 765.303025 
L 1751.975936 785.223023 
L 1753.996324 807.333752 
L 1756.016711 843.29648 
L 1758.037099 837.806664 
L 1766.11865 766.188461 
L 1768.139037 763.7518 
L 1780.261364 677.736059 
L 1782.281751 630.843647 
L 1784.302139 655.991387 
L 1786.322527 694.990831 
L 1788.342914 716.638068 
L 1790.363302 736.465578 
L 1792.38369 713.188106 
L 1794.404078 726.82583 
L 1796.424465 743.386375 
L 1806.526404 715.267866 
L 1808.546791 680.665523 
L 1810.567179 674.307732 
L 1814.607955 615.112606 
L 1816.628342 639.822723 
L 1818.64873 628.887565 
L 1822.689505 671.04925 
L 1824.709893 703.677267 
L 1826.730281 730.036404 
L 1828.750668 732.464707 
L 1830.771056 720.421819 
L 1832.791444 735.853106 
L 1834.811832 726.198485 
L 1838.852607 684.753504 
L 1954.014706 515.130004 
L 1958.055481 510.666331 
L 1960.075869 517.331631 
L 1962.096257 493.337772 
L 1964.116644 586.459978 
L 1966.137032 671.417867 
L 1968.15742 678.195079 
L 1970.177807 675.613467 
L 1980.279746 721.8275 
L 1982.300134 655.344315 
L 1988.361297 586.28445 
L 1990.381684 521.697665 
L 1992.402072 510.497966 
L 1994.42246 486.072308 
L 1996.442848 459.057193 
L 2000.483623 437.040685 
L 2073.21758 340.090873 
L 2075.237968 369.574849 
L 2079.278743 369.234774 
L 2081.299131 335.705972 
L 2109.584559 296.674381 
L 2438.907754 676.829216 
L 2440.928142 663.89352 
L 2442.948529 636.046113 
L 2444.968917 625.787609 
L 2449.009693 679.040198 
L 2467.193182 711.423416 
L 3178.369652 714.555241 
L 3180.39004 673.46338 
L 3182.410428 683.83162 
L 3184.430816 598.923345 
L 3186.451203 603.489735 
L 3188.471591 655.381618 
L 3194.532754 776.54545 
L 3206.65508 736.31314 
L 3210.695856 723.386242 
L 3212.716243 688.476451 
L 3214.736631 713.657375 
L 3220.797794 610.797542 
L 3228.879345 648.895334 
L 3230.899733 691.778058 
L 3253.123997 662.746003 
L 3257.164773 687.0337 
L 3259.18516 600.271163 
L 3261.205548 601.437457 
L 3265.246324 542.127837 
L 3267.266711 539.871249 
L 3269.287099 506.098935 
L 3277.36865 593.200265 
L 3285.450201 620.871076 
L 3287.470588 605.080077 
L 3289.490976 608.664228 
L 3291.511364 607.719771 
L 3293.531751 583.228041 
L 3295.552139 542.222185 
L 3297.572527 510.891935 
L 3299.592914 497.644387 
L 3301.613302 486.987159 
L 3303.63369 477.538794 
L 3309.694853 501.657464 
L 3315.756016 562.084336 
L 3317.776404 545.879348 
L 3319.796791 514.49373 
L 3321.817179 474.151789 
L 3323.837567 489.472293 
L 3325.857955 492.133069 
L 3327.878342 476.855749 
L 3329.89873 450.807962 
L 3331.919118 436.973512 
L 3340.000668 478.986782 
L 3342.021056 446.044272 
L 3344.041444 450.415856 
L 3346.061832 472.674048 
L 3348.082219 479.592096 
L 3350.102607 511.164913 
L 3352.122995 538.846865 
L 3354.143382 537.770914 
L 3356.16377 573.957852 
L 3360.204545 541.598228 
L 3362.224933 494.880817 
L 3364.245321 462.710222 
L 3366.265709 418.503391 
L 3368.286096 434.652322 
L 3370.306484 537.71842 
L 3372.326872 561.036125 
L 3374.347259 574.134956 
L 3376.367647 606.489092 
L 3400.612299 531.728607 
L 3402.632687 561.812242 
L 3404.653075 551.807493 
L 3406.673463 550.838091 
L 3410.714238 471.91675 
L 3412.734626 467.643397 
L 3414.755013 505.915912 
L 3416.775401 469.06782 
L 3420.816176 477.728222 
L 3422.836564 459.545096 
L 3424.856952 489.176974 
L 3426.87734 520.599015 
L 3428.897727 535.958281 
L 3430.918115 529.011639 
L 3432.938503 526.955923 
L 3434.95889 507.906358 
L 3436.979278 497.656752 
L 3438.999666 436.336702 
L 3441.020053 369.077867 
L 3443.040441 327.796804 
L 3445.060829 316.306363 
L 3449.101604 266.123972 
L 3451.121992 290.381313 
L 3453.14238 350.845266 
L 3455.162767 399.48663 
L 3457.183155 390.101282 
L 3459.203543 415.925334 
L 3461.22393 415.509674 
L 3463.244318 412.674414 
L 3465.264706 408.499263 
L 3467.285094 405.167213 
L 3469.305481 392.291138 
L 3471.325869 383.192721 
L 3473.346257 348.809951 
L 3475.366644 353.200004 
L 3477.387032 360.957237 
L 3479.40742 343.355084 
L 3481.427807 316.59639 
L 3483.448195 356.661987 
L 3485.468583 390.802425 
L 3487.488971 383.596298 
L 3489.509358 363.922131 
L 3491.529746 340.274709 
L 3493.550134 335.3549 
L 3497.590909 313.25891 
L 3499.611297 284.705594 
L 3501.631684 292.593612 
L 3503.652072 304.049035 
L 3505.67246 328.144635 
L 3507.692848 335.702387 
L 3509.713235 317.377136 
L 3511.733623 297.103702 
L 3513.754011 296.767793 
L 3515.774398 293.513085 
L 3517.794786 312.311624 
L 3519.815174 323.390243 
L 3521.835561 307.865157 
L 3523.855949 316.856976 
L 3529.917112 254.149765 
L 3531.9375 247.558013 
L 3533.957888 225.111296 
L 3535.978275 230.875072 
L 3537.998663 241.943086 
L 3540.019051 242.800932 
L 3542.039439 247.706216 
L 3544.059826 261.061809 
L 3548.100602 240.021128 
L 3550.120989 237.176121 
L 3552.141377 225.5824 
L 3554.161765 251.506291 
L 3556.182152 274.653882 
L 3558.20254 257.659093 
L 3560.222928 261.386535 
L 3562.243316 247.915678 
L 3564.263703 233.638194 
L 3566.284091 206.269629 
L 3568.304479 171.897931 
L 3570.324866 167.4 
L 3572.345254 174.692492 
L 3582.447193 324.352967 
L 3584.46758 308.473388 
L 3586.487968 273.285365 
L 3590.528743 253.475803 
L 3592.549131 291.535021 
L 3594.569519 316.540088 
L 3596.589906 298.327849 
L 3598.610294 300.483235 
L 3600.630682 367.327608 
L 3602.65107 412.468996 
L 3604.671457 428.677163 
L 3647.099599 560.846809 
L 3649.119987 569.700585 
L 3653.160762 596.854367 
L 3659.221925 410.102114 
L 3661.242313 387.9124 
L 3663.262701 379.494419 
L 3665.283088 385.988099 
L 3667.303476 400.576973 
L 3669.323864 433.192007 
L 3671.344251 484.345992 
L 3673.364639 487.162714 
L 3675.385027 494.898268 
L 3677.405414 526.61037 
L 3679.425802 544.0593 
L 3681.44619 544.895548 
L 3683.466578 538.778037 
L 3685.486965 517.051416 
L 3687.507353 518.058079 
L 3689.527741 501.135019 
L 3691.548128 478.012594 
L 3693.568516 422.874796 
L 3695.588904 417.165558 
L 3697.609291 391.350685 
L 3703.670455 459.38722 
L 3705.690842 440.824512 
L 3707.71123 459.022814 
L 3711.752005 507.785441 
L 3713.772393 504.89579 
L 3715.792781 455.433308 
L 3717.813168 468.979777 
L 3719.833556 484.066002 
L 3721.853944 503.99563 
L 3723.874332 485.589667 
L 3725.894719 507.184794 
L 3727.915107 517.018186 
L 3729.935495 559.522271 
L 3733.97627 566.750241 
L 3735.996658 590.437854 
L 3738.017045 583.342223 
L 3740.037433 580.16423 
L 3744.078209 579.224836 
L 3746.098596 585.117362 
L 3748.118984 589.233743 
L 3750.139372 568.399958 
L 3752.159759 596.132533 
L 3756.200535 644.671441 
L 3758.220922 643.069768 
L 3760.24131 585.109221 
L 3762.261698 563.135672 
L 3764.282086 533.711942 
L 3766.302473 490.172735 
L 3768.322861 474.212636 
L 3772.363636 482.099065 
L 3774.384024 538.40577 
L 3776.404412 573.434322 
L 3778.424799 620.096917 
L 3780.445187 653.522559 
L 3786.50635 537.162771 
L 3788.526738 525.413182 
L 3790.547126 528.028597 
L 3792.567513 519.966549 
L 3794.587901 543.362304 
L 3796.608289 620.868317 
L 3798.628676 681.34646 
L 3952.178142 800.35964 
L 3954.198529 799.758013 
L 3956.218917 803.666042 
L 3958.239305 790.851695 
L 3960.259693 786.234396 
L 3970.361631 746.046983 
L 3972.382019 756.158473 
L 3978.443182 730.339616 
L 3980.46357 692.340253 
L 3982.483957 707.425553 
L 3984.504345 693.330539 
L 3986.524733 700.809717 
L 3988.54512 748.9717 
L 3990.565508 763.712052 
L 3996.626671 837.229248 
L 4002.687834 751.958674 
L 4004.708222 795.206329 
L 4006.72861 773.350559 
L 4008.748997 780.042889 
L 4010.769385 782.734065 
L 4014.81016 902.356048 
L 4016.830548 848.834023 
L 4018.850936 814.729229 
L 4020.871324 861.822301 
L 4030.973262 848.070062 
L 4032.99365 856.159989 
L 4035.014037 843.872874 
L 4037.034425 870.707084 
L 4039.054813 884.001707 
L 4041.075201 848.441914 
L 4043.095588 798.415462 
L 4045.115976 764.442726 
L 4047.136364 763.563951 
L 4047.136364 763.563951 
" clip-path="url(#p754f62d6e9)" style="fill: none; stroke: #9f4800; stroke-width: 2.5; stroke-linecap: square"/>
   </g>
   <g id="patch_3">
    <path d="M 585 961.2 
L 585 129.6 
" style="fill: none; stroke: #000000; stroke-width: 0.8; stroke-linejoin: miter; stroke-linecap: square"/>
   </g>
   <g id="patch_4">
    <path d="M 4212 961.2 
L 4212 129.6 
" style="fill: none; stroke: #000000; stroke-width: 0.8; stroke-linejoin: miter; stroke-linecap: square"/>
   </g>
   <g id="patch_5">
    <path d="M 585 961.2 
L 4212 961.2 
" style="fill: none; stroke: #000000; stroke-width: 0.8; stroke-linejoin: miter; stroke-linecap: square"/>
   </g>
   <g id="patch_6">
    <path d="M 585 129.6 
L 4212 129.6 
" style="fill: none; stroke: #000000; stroke-width: 0.8; stroke-linejoin: miter; stroke-linecap: square"/>
   </g>
   <g id="text_20">
    <!-- PAS2 -->
    <g transform="translate(2361.084375 123.360937) scale(0.3 -0.3)">
     <defs>
      <path id="DejaVuSans-50" d="M 1259 4147 
L 1259 2394 
L 2053 2394 
Q 2494 2394 2734 2622 
Q 2975 2850 2975 3272 
Q 2975 3691 2734 3919 
Q 2494 4147 2053 4147 
L 1259 4147 
z
M 628 4666 
L 2053 4666 
Q 2838 4666 3239 4311 
Q 3641 3956 3641 3272 
Q 3641 2581 3239 2228 
Q 2838 1875 2053 1875 
L 1259 1875 
L 1259 0 
L 628 0 
L 628 4666 
z
" transform="scale(0.015625)"/>
      <path id="DejaVuSans-41" d="M 2188 4044 
L 1331 1722 
L 3047 1722 
L 2188 4044 
z
M 1831 4666 
L 2547 4666 
L 4325 0 
L 3669 0 
L 3244 1197 
L 1141 1197 
L 716 0 
L 50 0 
L 1831 4666 
z
" transform="scale(0.015625)"/>
      <path id="DejaVuSans-53" d="M 3425 4513 
L 3425 3897 
Q 3066 4069 2747 4153 
Q 2428 4238 2131 4238 
Q 1616 4238 1336 4038 
Q 1056 3838 1056 3469 
Q 1056 3159 1242 3001 
Q 1428 2844 1947 2747 
L 2328 2669 
Q 3034 2534 3370 2195 
Q 3706 1856 3706 1288 
Q 3706 609 3251 259 
Q 2797 -91 1919 -91 
Q 1588 -91 1214 -16 
Q 841 59 441 206 
L 441 856 
Q 825 641 1194 531 
Q 1563 422 1919 422 
Q 2459 422 2753 634 
Q 3047 847 3047 1241 
Q 3047 1584 2836 1778 
Q 2625 1972 2144 2069 
L 1759 2144 
Q 1053 2284 737 2584 
Q 422 2884 422 3419 
Q 422 4038 858 4394 
Q 1294 4750 2059 4750 
Q 2388 4750 2728 4690 
Q 3069 4631 3425 4513 
z
" transform="scale(0.015625)"/>
     </defs>
     <use xlink:href="#DejaVuSans-50"/>
     <use xlink:href="#DejaVuSans-41" x="53.927734"/>
     <use xlink:href="#DejaVuSans-53" x="122.335938"/>
     <use xlink:href="#DejaVuSans-32" x="185.8125"/>
    </g>
   </g>
   <g id="legend_1">
    <g id="patch_7">
     <path d="M 4148.951563 152.278125 
L 4205 152.278125 
Q 4207 152.278125 4207 150.278125 
L 4207 136.6 
Q 4207 134.6 4205 134.6 
L 4148.951563 134.6 
Q 4146.951563 134.6 4146.951563 136.6 
L 4146.951563 150.278125 
Q 4146.951563 152.278125 4148.951563 152.278125 
z
" style="fill: #ffffff; opacity: 0.8; stroke: #cccccc; stroke-linejoin: miter"/>
    </g>
    <g id="line2d_19">
     <path d="M 4150.951563 142.698438 
L 4160.951563 142.698438 
L 4170.951563 142.698438 
" style="fill: none; stroke: #9f4800; stroke-width: 2.5; stroke-linecap: square"/>
    </g>
    <g id="text_21">
     <!-- pas2 -->
     <g transform="translate(4178.951563 146.198438) scale(0.1 -0.1)">
      <defs>
       <path id="DejaVuSans-70" d="M 1159 525 
L 1159 -1331 
L 581 -1331 
L 581 3500 
L 1159 3500 
L 1159 2969 
Q 1341 3281 1617 3432 
Q 1894 3584 2278 3584 
Q 2916 3584 3314 3078 
Q 3713 2572 3713 1747 
Q 3713 922 3314 415 
Q 2916 -91 2278 -91 
Q 1894 -91 1617 61 
Q 1341 213 1159 525 
z
M 3116 1747 
Q 3116 2381 2855 2742 
Q 2594 3103 2138 3103 
Q 1681 3103 1420 2742 
Q 1159 2381 1159 1747 
Q 1159 1113 1420 752 
Q 1681 391 2138 391 
Q 2594 391 2855 752 
Q 3116 1113 3116 1747 
z
" transform="scale(0.015625)"/>
      </defs>
      <use xlink:href="#DejaVuSans-70"/>
      <use xlink:href="#DejaVuSans-61" x="63.476562"/>
      <use xlink:href="#DejaVuSans-73" x="124.755859"/>
      <use xlink:href="#DejaVuSans-32" x="176.855469"/>
     </g>
    </g>
   </g>
  </g>
 </g>
 <defs>
  <clipPath id="p754f62d6e9">
   <rect x="585" y="129.6" width="3627" height="831.6"/>
  </clipPath>
 </defs>
</svg>
