<?xml version="1.0" encoding="utf-8" standalone="no"?>
<!DOCTYPE svg PUBLIC "-//W3C//DTD SVG 1.1//EN"
  "http://www.w3.org/Graphics/SVG/1.1/DTD/svg11.dtd">
<svg xmlns:xlink="http://www.w3.org/1999/xlink" width="4680pt" height="1080pt" viewBox="0 0 4680 1080" xmlns="http://www.w3.org/2000/svg" version="1.1">
 <metadata>
  <rdf:RDF xmlns:dc="http://purl.org/dc/elements/1.1/" xmlns:cc="http://creativecommons.org/ns#" xmlns:rdf="http://www.w3.org/1999/02/22-rdf-syntax-ns#">
   <cc:Work>
    <dc:type rdf:resource="http://purl.org/dc/dcmitype/StillImage"/>
    <dc:date>2024-03-25T14:09:18.411522</dc:date>
    <dc:format>image/svg+xml</dc:format>
    <dc:creator>
     <cc:Agent>
      <dc:title>Matplotlib v3.7.2, https://matplotlib.org/</dc:title>
     </cc:Agent>
    </dc:creator>
   </cc:Work>
  </rdf:RDF>
 </metadata>
 <defs>
  <style type="text/css">*{stroke-linejoin: round; stroke-linecap: butt}</style>
 </defs>
 <g id="figure_1">
  <g id="patch_1">
   <path d="M 0 1080 
L 4680 1080 
L 4680 0 
L 0 0 
z
" style="fill: #ffffff"/>
  </g>
  <g id="axes_1">
   <g id="patch_2">
    <path d="M 585 961.2 
L 4212 961.2 
L 4212 129.6 
L 585 129.6 
z
" style="fill: #ffffff"/>
   </g>
   <g id="matplotlib.axis_1">
    <g id="xtick_1">
     <g id="line2d_1">
      <defs>
       <path id="m401618b0d9" d="M 0 0 
L 0 3.5 
" style="stroke: #000000; stroke-width: 0.8"/>
      </defs>
      <g>
       <use xlink:href="#m401618b0d9" x="941.800468" y="961.2" style="stroke: #000000; stroke-width: 0.8"/>
      </g>
     </g>
     <g id="text_1">
      <!-- 2012-07 -->
      <g transform="translate(900.017655 983.396875) scale(0.2 -0.2)">
       <defs>
        <path id="DejaVuSans-32" d="M 1228 531 
L 3431 531 
L 3431 0 
L 469 0 
L 469 531 
Q 828 903 1448 1529 
Q 2069 2156 2228 2338 
Q 2531 2678 2651 2914 
Q 2772 3150 2772 3378 
Q 2772 3750 2511 3984 
Q 2250 4219 1831 4219 
Q 1534 4219 1204 4116 
Q 875 4013 500 3803 
L 500 4441 
Q 881 4594 1212 4672 
Q 1544 4750 1819 4750 
Q 2544 4750 2975 4387 
Q 3406 4025 3406 3419 
Q 3406 3131 3298 2873 
Q 3191 2616 2906 2266 
Q 2828 2175 2409 1742 
Q 1991 1309 1228 531 
z
" transform="scale(0.015625)"/>
        <path id="DejaVuSans-30" d="M 2034 4250 
Q 1547 4250 1301 3770 
Q 1056 3291 1056 2328 
Q 1056 1369 1301 889 
Q 1547 409 2034 409 
Q 2525 409 2770 889 
Q 3016 1369 3016 2328 
Q 3016 3291 2770 3770 
Q 2525 4250 2034 4250 
z
M 2034 4750 
Q 2819 4750 3233 4129 
Q 3647 3509 3647 2328 
Q 3647 1150 3233 529 
Q 2819 -91 2034 -91 
Q 1250 -91 836 529 
Q 422 1150 422 2328 
Q 422 3509 836 4129 
Q 1250 4750 2034 4750 
z
" transform="scale(0.015625)"/>
        <path id="DejaVuSans-31" d="M 794 531 
L 1825 531 
L 1825 4091 
L 703 3866 
L 703 4441 
L 1819 4666 
L 2450 4666 
L 2450 531 
L 3481 531 
L 3481 0 
L 794 0 
L 794 531 
z
" transform="scale(0.015625)"/>
        <path id="DejaVuSans-2d" d="M 313 2009 
L 1997 2009 
L 1997 1497 
L 313 1497 
L 313 2009 
z
" transform="scale(0.015625)"/>
        <path id="DejaVuSans-37" d="M 525 4666 
L 3525 4666 
L 3525 4397 
L 1831 0 
L 1172 0 
L 2766 4134 
L 525 4134 
L 525 4666 
z
" transform="scale(0.015625)"/>
       </defs>
       <use xlink:href="#DejaVuSans-32"/>
       <use xlink:href="#DejaVuSans-30" x="63.623047"/>
       <use xlink:href="#DejaVuSans-31" x="127.246094"/>
       <use xlink:href="#DejaVuSans-32" x="190.869141"/>
       <use xlink:href="#DejaVuSans-2d" x="254.492188"/>
       <use xlink:href="#DejaVuSans-30" x="290.576172"/>
       <use xlink:href="#DejaVuSans-37" x="354.199219"/>
      </g>
     </g>
    </g>
    <g id="xtick_2">
     <g id="line2d_2">
      <g>
       <use xlink:href="#m401618b0d9" x="1313.551805" y="961.2" style="stroke: #000000; stroke-width: 0.8"/>
      </g>
     </g>
     <g id="text_2">
      <!-- 2013-01 -->
      <g transform="translate(1271.768992 983.396875) scale(0.2 -0.2)">
       <defs>
        <path id="DejaVuSans-33" d="M 2597 2516 
Q 3050 2419 3304 2112 
Q 3559 1806 3559 1356 
Q 3559 666 3084 287 
Q 2609 -91 1734 -91 
Q 1441 -91 1130 -33 
Q 819 25 488 141 
L 488 750 
Q 750 597 1062 519 
Q 1375 441 1716 441 
Q 2309 441 2620 675 
Q 2931 909 2931 1356 
Q 2931 1769 2642 2001 
Q 2353 2234 1838 2234 
L 1294 2234 
L 1294 2753 
L 1863 2753 
Q 2328 2753 2575 2939 
Q 2822 3125 2822 3475 
Q 2822 3834 2567 4026 
Q 2313 4219 1838 4219 
Q 1578 4219 1281 4162 
Q 984 4106 628 3988 
L 628 4550 
Q 988 4650 1302 4700 
Q 1616 4750 1894 4750 
Q 2613 4750 3031 4423 
Q 3450 4097 3450 3541 
Q 3450 3153 3228 2886 
Q 3006 2619 2597 2516 
z
" transform="scale(0.015625)"/>
       </defs>
       <use xlink:href="#DejaVuSans-32"/>
       <use xlink:href="#DejaVuSans-30" x="63.623047"/>
       <use xlink:href="#DejaVuSans-31" x="127.246094"/>
       <use xlink:href="#DejaVuSans-33" x="190.869141"/>
       <use xlink:href="#DejaVuSans-2d" x="254.492188"/>
       <use xlink:href="#DejaVuSans-30" x="290.576172"/>
       <use xlink:href="#DejaVuSans-31" x="354.199219"/>
      </g>
     </g>
    </g>
    <g id="xtick_3">
     <g id="line2d_3">
      <g>
       <use xlink:href="#m401618b0d9" x="1679.241979" y="961.2" style="stroke: #000000; stroke-width: 0.8"/>
      </g>
     </g>
     <g id="text_3">
      <!-- 2013-07 -->
      <g transform="translate(1637.459166 983.396875) scale(0.2 -0.2)">
       <use xlink:href="#DejaVuSans-32"/>
       <use xlink:href="#DejaVuSans-30" x="63.623047"/>
       <use xlink:href="#DejaVuSans-31" x="127.246094"/>
       <use xlink:href="#DejaVuSans-33" x="190.869141"/>
       <use xlink:href="#DejaVuSans-2d" x="254.492188"/>
       <use xlink:href="#DejaVuSans-30" x="290.576172"/>
       <use xlink:href="#DejaVuSans-37" x="354.199219"/>
      </g>
     </g>
    </g>
    <g id="xtick_4">
     <g id="line2d_4">
      <g>
       <use xlink:href="#m401618b0d9" x="2050.993316" y="961.2" style="stroke: #000000; stroke-width: 0.8"/>
      </g>
     </g>
     <g id="text_4">
      <!-- 2014-01 -->
      <g transform="translate(2009.210503 983.396875) scale(0.2 -0.2)">
       <defs>
        <path id="DejaVuSans-34" d="M 2419 4116 
L 825 1625 
L 2419 1625 
L 2419 4116 
z
M 2253 4666 
L 3047 4666 
L 3047 1625 
L 3713 1625 
L 3713 1100 
L 3047 1100 
L 3047 0 
L 2419 0 
L 2419 1100 
L 313 1100 
L 313 1709 
L 2253 4666 
z
" transform="scale(0.015625)"/>
       </defs>
       <use xlink:href="#DejaVuSans-32"/>
       <use xlink:href="#DejaVuSans-30" x="63.623047"/>
       <use xlink:href="#DejaVuSans-31" x="127.246094"/>
       <use xlink:href="#DejaVuSans-34" x="190.869141"/>
       <use xlink:href="#DejaVuSans-2d" x="254.492188"/>
       <use xlink:href="#DejaVuSans-30" x="290.576172"/>
       <use xlink:href="#DejaVuSans-31" x="354.199219"/>
      </g>
     </g>
    </g>
    <g id="xtick_5">
     <g id="line2d_5">
      <g>
       <use xlink:href="#m401618b0d9" x="2416.683489" y="961.2" style="stroke: #000000; stroke-width: 0.8"/>
      </g>
     </g>
     <g id="text_5">
      <!-- 2014-07 -->
      <g transform="translate(2374.900677 983.396875) scale(0.2 -0.2)">
       <use xlink:href="#DejaVuSans-32"/>
       <use xlink:href="#DejaVuSans-30" x="63.623047"/>
       <use xlink:href="#DejaVuSans-31" x="127.246094"/>
       <use xlink:href="#DejaVuSans-34" x="190.869141"/>
       <use xlink:href="#DejaVuSans-2d" x="254.492188"/>
       <use xlink:href="#DejaVuSans-30" x="290.576172"/>
       <use xlink:href="#DejaVuSans-37" x="354.199219"/>
      </g>
     </g>
    </g>
    <g id="xtick_6">
     <g id="line2d_6">
      <g>
       <use xlink:href="#m401618b0d9" x="2788.434826" y="961.2" style="stroke: #000000; stroke-width: 0.8"/>
      </g>
     </g>
     <g id="text_6">
      <!-- 2015-01 -->
      <g transform="translate(2746.652014 983.396875) scale(0.2 -0.2)">
       <defs>
        <path id="DejaVuSans-35" d="M 691 4666 
L 3169 4666 
L 3169 4134 
L 1269 4134 
L 1269 2991 
Q 1406 3038 1543 3061 
Q 1681 3084 1819 3084 
Q 2600 3084 3056 2656 
Q 3513 2228 3513 1497 
Q 3513 744 3044 326 
Q 2575 -91 1722 -91 
Q 1428 -91 1123 -41 
Q 819 9 494 109 
L 494 744 
Q 775 591 1075 516 
Q 1375 441 1709 441 
Q 2250 441 2565 725 
Q 2881 1009 2881 1497 
Q 2881 1984 2565 2268 
Q 2250 2553 1709 2553 
Q 1456 2553 1204 2497 
Q 953 2441 691 2322 
L 691 4666 
z
" transform="scale(0.015625)"/>
       </defs>
       <use xlink:href="#DejaVuSans-32"/>
       <use xlink:href="#DejaVuSans-30" x="63.623047"/>
       <use xlink:href="#DejaVuSans-31" x="127.246094"/>
       <use xlink:href="#DejaVuSans-35" x="190.869141"/>
       <use xlink:href="#DejaVuSans-2d" x="254.492188"/>
       <use xlink:href="#DejaVuSans-30" x="290.576172"/>
       <use xlink:href="#DejaVuSans-31" x="354.199219"/>
      </g>
     </g>
    </g>
    <g id="xtick_7">
     <g id="line2d_7">
      <g>
       <use xlink:href="#m401618b0d9" x="3154.125" y="961.2" style="stroke: #000000; stroke-width: 0.8"/>
      </g>
     </g>
     <g id="text_7">
      <!-- 2015-07 -->
      <g transform="translate(3112.342188 983.396875) scale(0.2 -0.2)">
       <use xlink:href="#DejaVuSans-32"/>
       <use xlink:href="#DejaVuSans-30" x="63.623047"/>
       <use xlink:href="#DejaVuSans-31" x="127.246094"/>
       <use xlink:href="#DejaVuSans-35" x="190.869141"/>
       <use xlink:href="#DejaVuSans-2d" x="254.492188"/>
       <use xlink:href="#DejaVuSans-30" x="290.576172"/>
       <use xlink:href="#DejaVuSans-37" x="354.199219"/>
      </g>
     </g>
    </g>
    <g id="xtick_8">
     <g id="line2d_8">
      <g>
       <use xlink:href="#m401618b0d9" x="3525.876337" y="961.2" style="stroke: #000000; stroke-width: 0.8"/>
      </g>
     </g>
     <g id="text_8">
      <!-- 2016-01 -->
      <g transform="translate(3484.093524 983.396875) scale(0.2 -0.2)">
       <defs>
        <path id="DejaVuSans-36" d="M 2113 2584 
Q 1688 2584 1439 2293 
Q 1191 2003 1191 1497 
Q 1191 994 1439 701 
Q 1688 409 2113 409 
Q 2538 409 2786 701 
Q 3034 994 3034 1497 
Q 3034 2003 2786 2293 
Q 2538 2584 2113 2584 
z
M 3366 4563 
L 3366 3988 
Q 3128 4100 2886 4159 
Q 2644 4219 2406 4219 
Q 1781 4219 1451 3797 
Q 1122 3375 1075 2522 
Q 1259 2794 1537 2939 
Q 1816 3084 2150 3084 
Q 2853 3084 3261 2657 
Q 3669 2231 3669 1497 
Q 3669 778 3244 343 
Q 2819 -91 2113 -91 
Q 1303 -91 875 529 
Q 447 1150 447 2328 
Q 447 3434 972 4092 
Q 1497 4750 2381 4750 
Q 2619 4750 2861 4703 
Q 3103 4656 3366 4563 
z
" transform="scale(0.015625)"/>
       </defs>
       <use xlink:href="#DejaVuSans-32"/>
       <use xlink:href="#DejaVuSans-30" x="63.623047"/>
       <use xlink:href="#DejaVuSans-31" x="127.246094"/>
       <use xlink:href="#DejaVuSans-36" x="190.869141"/>
       <use xlink:href="#DejaVuSans-2d" x="254.492188"/>
       <use xlink:href="#DejaVuSans-30" x="290.576172"/>
       <use xlink:href="#DejaVuSans-31" x="354.199219"/>
      </g>
     </g>
    </g>
    <g id="xtick_9">
     <g id="line2d_9">
      <g>
       <use xlink:href="#m401618b0d9" x="3893.586898" y="961.2" style="stroke: #000000; stroke-width: 0.8"/>
      </g>
     </g>
     <g id="text_9">
      <!-- 2016-07 -->
      <g transform="translate(3851.804086 983.396875) scale(0.2 -0.2)">
       <use xlink:href="#DejaVuSans-32"/>
       <use xlink:href="#DejaVuSans-30" x="63.623047"/>
       <use xlink:href="#DejaVuSans-31" x="127.246094"/>
       <use xlink:href="#DejaVuSans-36" x="190.869141"/>
       <use xlink:href="#DejaVuSans-2d" x="254.492188"/>
       <use xlink:href="#DejaVuSans-30" x="290.576172"/>
       <use xlink:href="#DejaVuSans-37" x="354.199219"/>
      </g>
     </g>
    </g>
    <g id="text_10">
     <!-- Time -->
     <g transform="translate(2374.032813 1006.753125) scale(0.2 -0.2)">
      <defs>
       <path id="DejaVuSans-54" d="M -19 4666 
L 3928 4666 
L 3928 4134 
L 2272 4134 
L 2272 0 
L 1638 0 
L 1638 4134 
L -19 4134 
L -19 4666 
z
" transform="scale(0.015625)"/>
       <path id="DejaVuSans-69" d="M 603 3500 
L 1178 3500 
L 1178 0 
L 603 0 
L 603 3500 
z
M 603 4863 
L 1178 4863 
L 1178 4134 
L 603 4134 
L 603 4863 
z
" transform="scale(0.015625)"/>
       <path id="DejaVuSans-6d" d="M 3328 2828 
Q 3544 3216 3844 3400 
Q 4144 3584 4550 3584 
Q 5097 3584 5394 3201 
Q 5691 2819 5691 2113 
L 5691 0 
L 5113 0 
L 5113 2094 
Q 5113 2597 4934 2840 
Q 4756 3084 4391 3084 
Q 3944 3084 3684 2787 
Q 3425 2491 3425 1978 
L 3425 0 
L 2847 0 
L 2847 2094 
Q 2847 2600 2669 2842 
Q 2491 3084 2119 3084 
Q 1678 3084 1418 2786 
Q 1159 2488 1159 1978 
L 1159 0 
L 581 0 
L 581 3500 
L 1159 3500 
L 1159 2956 
Q 1356 3278 1631 3431 
Q 1906 3584 2284 3584 
Q 2666 3584 2933 3390 
Q 3200 3197 3328 2828 
z
" transform="scale(0.015625)"/>
       <path id="DejaVuSans-65" d="M 3597 1894 
L 3597 1613 
L 953 1613 
Q 991 1019 1311 708 
Q 1631 397 2203 397 
Q 2534 397 2845 478 
Q 3156 559 3463 722 
L 3463 178 
Q 3153 47 2828 -22 
Q 2503 -91 2169 -91 
Q 1331 -91 842 396 
Q 353 884 353 1716 
Q 353 2575 817 3079 
Q 1281 3584 2069 3584 
Q 2775 3584 3186 3129 
Q 3597 2675 3597 1894 
z
M 3022 2063 
Q 3016 2534 2758 2815 
Q 2500 3097 2075 3097 
Q 1594 3097 1305 2825 
Q 1016 2553 972 2059 
L 3022 2063 
z
" transform="scale(0.015625)"/>
      </defs>
      <use xlink:href="#DejaVuSans-54"/>
      <use xlink:href="#DejaVuSans-69" x="57.958984"/>
      <use xlink:href="#DejaVuSans-6d" x="85.742188"/>
      <use xlink:href="#DejaVuSans-65" x="183.154297"/>
     </g>
    </g>
   </g>
   <g id="matplotlib.axis_2">
    <g id="ytick_1">
     <g id="line2d_10">
      <defs>
       <path id="m128a487d6d" d="M 0 0 
L -3.5 0 
" style="stroke: #000000; stroke-width: 0.8"/>
      </defs>
      <g>
       <use xlink:href="#m128a487d6d" x="585" y="960.6115" style="stroke: #000000; stroke-width: 0.8"/>
      </g>
     </g>
     <g id="text_11">
      <!-- −0.003 -->
      <g transform="translate(503.984375 968.209938) scale(0.2 -0.2)">
       <defs>
        <path id="DejaVuSans-2212" d="M 678 2272 
L 4684 2272 
L 4684 1741 
L 678 1741 
L 678 2272 
z
" transform="scale(0.015625)"/>
        <path id="DejaVuSans-2e" d="M 684 794 
L 1344 794 
L 1344 0 
L 684 0 
L 684 794 
z
" transform="scale(0.015625)"/>
       </defs>
       <use xlink:href="#DejaVuSans-2212"/>
       <use xlink:href="#DejaVuSans-30" x="83.789062"/>
       <use xlink:href="#DejaVuSans-2e" x="147.412109"/>
       <use xlink:href="#DejaVuSans-30" x="179.199219"/>
       <use xlink:href="#DejaVuSans-30" x="242.822266"/>
       <use xlink:href="#DejaVuSans-33" x="306.445312"/>
      </g>
     </g>
    </g>
    <g id="ytick_2">
     <g id="line2d_11">
      <g>
       <use xlink:href="#m128a487d6d" x="585" y="825.383955" style="stroke: #000000; stroke-width: 0.8"/>
      </g>
     </g>
     <g id="text_12">
      <!-- −0.002 -->
      <g transform="translate(503.984375 832.982392) scale(0.2 -0.2)">
       <use xlink:href="#DejaVuSans-2212"/>
       <use xlink:href="#DejaVuSans-30" x="83.789062"/>
       <use xlink:href="#DejaVuSans-2e" x="147.412109"/>
       <use xlink:href="#DejaVuSans-30" x="179.199219"/>
       <use xlink:href="#DejaVuSans-30" x="242.822266"/>
       <use xlink:href="#DejaVuSans-32" x="306.445312"/>
      </g>
     </g>
    </g>
    <g id="ytick_3">
     <g id="line2d_12">
      <g>
       <use xlink:href="#m128a487d6d" x="585" y="690.15641" style="stroke: #000000; stroke-width: 0.8"/>
      </g>
     </g>
     <g id="text_13">
      <!-- −0.001 -->
      <g transform="translate(503.984375 697.754847) scale(0.2 -0.2)">
       <use xlink:href="#DejaVuSans-2212"/>
       <use xlink:href="#DejaVuSans-30" x="83.789062"/>
       <use xlink:href="#DejaVuSans-2e" x="147.412109"/>
       <use xlink:href="#DejaVuSans-30" x="179.199219"/>
       <use xlink:href="#DejaVuSans-30" x="242.822266"/>
       <use xlink:href="#DejaVuSans-31" x="306.445312"/>
      </g>
     </g>
    </g>
    <g id="ytick_4">
     <g id="line2d_13">
      <g>
       <use xlink:href="#m128a487d6d" x="585" y="554.928864" style="stroke: #000000; stroke-width: 0.8"/>
      </g>
     </g>
     <g id="text_14">
      <!-- 0.000 -->
      <g transform="translate(520.74375 562.527302) scale(0.2 -0.2)">
       <use xlink:href="#DejaVuSans-30"/>
       <use xlink:href="#DejaVuSans-2e" x="63.623047"/>
       <use xlink:href="#DejaVuSans-30" x="95.410156"/>
       <use xlink:href="#DejaVuSans-30" x="159.033203"/>
       <use xlink:href="#DejaVuSans-30" x="222.65625"/>
      </g>
     </g>
    </g>
    <g id="ytick_5">
     <g id="line2d_14">
      <g>
       <use xlink:href="#m128a487d6d" x="585" y="419.701319" style="stroke: #000000; stroke-width: 0.8"/>
      </g>
     </g>
     <g id="text_15">
      <!-- 0.001 -->
      <g transform="translate(520.74375 427.299757) scale(0.2 -0.2)">
       <use xlink:href="#DejaVuSans-30"/>
       <use xlink:href="#DejaVuSans-2e" x="63.623047"/>
       <use xlink:href="#DejaVuSans-30" x="95.410156"/>
       <use xlink:href="#DejaVuSans-30" x="159.033203"/>
       <use xlink:href="#DejaVuSans-31" x="222.65625"/>
      </g>
     </g>
    </g>
    <g id="ytick_6">
     <g id="line2d_15">
      <g>
       <use xlink:href="#m128a487d6d" x="585" y="284.473774" style="stroke: #000000; stroke-width: 0.8"/>
      </g>
     </g>
     <g id="text_16">
      <!-- 0.002 -->
      <g transform="translate(520.74375 292.072211) scale(0.2 -0.2)">
       <use xlink:href="#DejaVuSans-30"/>
       <use xlink:href="#DejaVuSans-2e" x="63.623047"/>
       <use xlink:href="#DejaVuSans-30" x="95.410156"/>
       <use xlink:href="#DejaVuSans-30" x="159.033203"/>
       <use xlink:href="#DejaVuSans-32" x="222.65625"/>
      </g>
     </g>
    </g>
    <g id="ytick_7">
     <g id="line2d_16">
      <g>
       <use xlink:href="#m128a487d6d" x="585" y="149.246229" style="stroke: #000000; stroke-width: 0.8"/>
      </g>
     </g>
     <g id="text_17">
      <!-- 0.003 -->
      <g transform="translate(520.74375 156.844666) scale(0.2 -0.2)">
       <use xlink:href="#DejaVuSans-30"/>
       <use xlink:href="#DejaVuSans-2e" x="63.623047"/>
       <use xlink:href="#DejaVuSans-30" x="95.410156"/>
       <use xlink:href="#DejaVuSans-30" x="159.033203"/>
       <use xlink:href="#DejaVuSans-33" x="222.65625"/>
      </g>
     </g>
    </g>
    <g id="text_18">
     <!-- East(m) -->
     <g transform="translate(495.825 584.520313) rotate(-90) scale(0.2 -0.2)">
      <defs>
       <path id="DejaVuSans-45" d="M 628 4666 
L 3578 4666 
L 3578 4134 
L 1259 4134 
L 1259 2753 
L 3481 2753 
L 3481 2222 
L 1259 2222 
L 1259 531 
L 3634 531 
L 3634 0 
L 628 0 
L 628 4666 
z
" transform="scale(0.015625)"/>
       <path id="DejaVuSans-61" d="M 2194 1759 
Q 1497 1759 1228 1600 
Q 959 1441 959 1056 
Q 959 750 1161 570 
Q 1363 391 1709 391 
Q 2188 391 2477 730 
Q 2766 1069 2766 1631 
L 2766 1759 
L 2194 1759 
z
M 3341 1997 
L 3341 0 
L 2766 0 
L 2766 531 
Q 2569 213 2275 61 
Q 1981 -91 1556 -91 
Q 1019 -91 701 211 
Q 384 513 384 1019 
Q 384 1609 779 1909 
Q 1175 2209 1959 2209 
L 2766 2209 
L 2766 2266 
Q 2766 2663 2505 2880 
Q 2244 3097 1772 3097 
Q 1472 3097 1187 3025 
Q 903 2953 641 2809 
L 641 3341 
Q 956 3463 1253 3523 
Q 1550 3584 1831 3584 
Q 2591 3584 2966 3190 
Q 3341 2797 3341 1997 
z
" transform="scale(0.015625)"/>
       <path id="DejaVuSans-73" d="M 2834 3397 
L 2834 2853 
Q 2591 2978 2328 3040 
Q 2066 3103 1784 3103 
Q 1356 3103 1142 2972 
Q 928 2841 928 2578 
Q 928 2378 1081 2264 
Q 1234 2150 1697 2047 
L 1894 2003 
Q 2506 1872 2764 1633 
Q 3022 1394 3022 966 
Q 3022 478 2636 193 
Q 2250 -91 1575 -91 
Q 1294 -91 989 -36 
Q 684 19 347 128 
L 347 722 
Q 666 556 975 473 
Q 1284 391 1588 391 
Q 1994 391 2212 530 
Q 2431 669 2431 922 
Q 2431 1156 2273 1281 
Q 2116 1406 1581 1522 
L 1381 1569 
Q 847 1681 609 1914 
Q 372 2147 372 2553 
Q 372 3047 722 3315 
Q 1072 3584 1716 3584 
Q 2034 3584 2315 3537 
Q 2597 3491 2834 3397 
z
" transform="scale(0.015625)"/>
       <path id="DejaVuSans-74" d="M 1172 4494 
L 1172 3500 
L 2356 3500 
L 2356 3053 
L 1172 3053 
L 1172 1153 
Q 1172 725 1289 603 
Q 1406 481 1766 481 
L 2356 481 
L 2356 0 
L 1766 0 
Q 1100 0 847 248 
Q 594 497 594 1153 
L 594 3053 
L 172 3053 
L 172 3500 
L 594 3500 
L 594 4494 
L 1172 4494 
z
" transform="scale(0.015625)"/>
       <path id="DejaVuSans-28" d="M 1984 4856 
Q 1566 4138 1362 3434 
Q 1159 2731 1159 2009 
Q 1159 1288 1364 580 
Q 1569 -128 1984 -844 
L 1484 -844 
Q 1016 -109 783 600 
Q 550 1309 550 2009 
Q 550 2706 781 3412 
Q 1013 4119 1484 4856 
L 1984 4856 
z
" transform="scale(0.015625)"/>
       <path id="DejaVuSans-29" d="M 513 4856 
L 1013 4856 
Q 1481 4119 1714 3412 
Q 1947 2706 1947 2009 
Q 1947 1309 1714 600 
Q 1481 -109 1013 -844 
L 513 -844 
Q 928 -128 1133 580 
Q 1338 1288 1338 2009 
Q 1338 2731 1133 3434 
Q 928 4138 513 4856 
z
" transform="scale(0.015625)"/>
      </defs>
      <use xlink:href="#DejaVuSans-45"/>
      <use xlink:href="#DejaVuSans-61" x="63.183594"/>
      <use xlink:href="#DejaVuSans-73" x="124.462891"/>
      <use xlink:href="#DejaVuSans-74" x="176.5625"/>
      <use xlink:href="#DejaVuSans-28" x="215.771484"/>
      <use xlink:href="#DejaVuSans-6d" x="254.785156"/>
      <use xlink:href="#DejaVuSans-29" x="352.197266"/>
     </g>
    </g>
   </g>
   <g id="line2d_17">
    <path d="M 749.863636 636.31441 
L 753.904412 719.230521 
L 755.924799 719.163647 
L 761.985963 650.247429 
L 764.00635 629.29512 
L 766.026738 574.823714 
L 768.047126 535.782096 
L 770.067513 515.436767 
L 772.087901 520.257443 
L 774.108289 522.723571 
L 776.128676 546.572806 
L 790.27139 492.939985 
L 792.291778 481.493987 
L 794.312166 486.854114 
L 796.332553 465.314563 
L 798.352941 456.15131 
L 800.373329 465.886797 
L 802.393717 488.347326 
L 806.434492 505.005682 
L 808.45488 525.045188 
L 810.475267 531.521705 
L 812.495655 544.663299 
L 824.617981 632.285832 
L 830.679144 657.346988 
L 832.699532 675.104575 
L 834.71992 663.301776 
L 836.740307 690.974042 
L 844.821858 744.642367 
L 850.883021 735.651661 
L 852.903409 690.97017 
L 856.944184 664.185193 
L 860.98496 646.269822 
L 863.005348 631.37969 
L 865.025735 633.074083 
L 867.046123 670.647546 
L 869.066511 661.179156 
L 873.107286 658.560787 
L 875.127674 651.056293 
L 877.148061 686.954126 
L 879.168449 664.816344 
L 885.229612 674.430725 
L 889.270388 751.100715 
L 891.290775 756.434308 
L 893.311163 780.321577 
L 895.331551 788.039137 
L 897.351939 818.814301 
L 899.372326 811.698719 
L 901.392714 748.152828 
L 903.413102 746.924765 
L 905.433489 731.459413 
L 907.453877 714.5825 
L 909.474265 716.748616 
L 913.51504 673.291397 
L 915.535428 679.440314 
L 917.555816 699.722464 
L 921.596591 719.243581 
L 933.718917 832.211912 
L 937.759693 923.4 
L 1044.840241 845.91597 
L 1046.860628 820.731706 
L 1048.881016 859.153641 
L 1212.53242 408.410617 
L 1214.552807 416.812302 
L 1216.573195 409.145353 
L 1226.675134 400.945939 
L 1230.715909 347.938554 
L 1232.736297 336.006779 
L 1234.756684 363.169232 
L 1236.777072 372.046034 
L 1238.79746 387.115354 
L 1240.817848 401.120452 
L 1242.838235 395.870131 
L 1333.755682 460.034928 
L 1335.77607 390.962245 
L 1337.796457 342.841494 
L 1341.837233 299.164418 
L 1372.143048 328.776301 
L 1374.163436 354.817103 
L 1376.183824 383.340174 
L 1378.204211 381.95104 
L 1382.244987 365.512896 
L 1384.265374 342.392664 
L 1386.285762 346.987904 
L 1388.30615 321.488354 
L 1390.326537 292.718553 
L 1394.367313 232.329589 
L 1402.448864 207.447291 
L 1404.469251 220.33826 
L 1406.489639 271.114388 
L 1412.550802 390.443737 
L 1414.57119 402.138675 
L 1416.591578 368.578246 
L 1418.611965 376.802307 
L 1420.632353 364.44002 
L 1424.673128 327.068407 
L 1426.693516 323.796807 
L 1428.713904 336.00699 
L 1432.754679 356.745244 
L 1434.775067 379.209625 
L 1436.795455 386.945339 
L 1444.877005 361.12236 
L 1446.897393 373.83655 
L 1454.978944 381.010409 
L 1456.999332 420.21623 
L 1459.019719 437.21836 
L 1461.040107 438.648233 
L 1463.060495 410.392234 
L 1465.080882 406.946819 
L 1469.121658 430.977998 
L 1471.142045 428.458685 
L 1473.162433 370.753256 
L 1475.182821 370.732292 
L 1479.223596 391.122145 
L 1481.243984 399.024251 
L 1483.264372 414.526495 
L 1485.284759 407.563868 
L 1487.305147 445.650086 
L 1489.325535 476.296493 
L 1491.345922 416.304815 
L 1493.36631 425.778961 
L 1495.386698 414.397961 
L 1497.407086 364.064665 
L 1501.447861 329.690935 
L 1669.14004 634.449338 
L 1673.180816 625.793464 
L 1677.221591 652.709841 
L 1681.262366 616.849841 
L 1683.282754 600.47801 
L 1689.343917 650.8536 
L 1691.364305 662.516713 
L 1693.384693 656.567853 
L 1697.425468 640.809831 
L 1699.445856 585.611481 
L 1701.466243 602.901996 
L 1703.486631 614.146409 
L 1705.507019 577.23516 
L 1707.527406 606.243261 
L 1719.649733 698.987994 
L 1723.690508 681.974168 
L 1725.710896 657.249316 
L 1727.731283 654.049806 
L 1729.751671 663.15178 
L 1731.772059 659.313225 
L 1735.812834 681.89326 
L 1737.833222 684.074422 
L 1739.85361 703.442648 
L 1741.873997 697.21765 
L 1743.894385 660.67985 
L 1749.955548 658.667224 
L 1751.975936 626.601168 
L 1753.996324 618.302086 
L 1756.016711 587.569099 
L 1758.037099 579.040938 
L 1766.11865 546.969388 
L 1768.139037 575.553872 
L 1780.261364 629.134944 
L 1782.281751 574.988729 
L 1784.302139 610.833612 
L 1786.322527 603.071462 
L 1788.342914 632.665666 
L 1790.363302 652.567934 
L 1792.38369 618.173656 
L 1794.404078 626.107319 
L 1796.424465 615.569567 
L 1806.526404 565.673555 
L 1808.546791 552.296695 
L 1810.567179 552.941088 
L 1812.587567 494.993171 
L 1814.607955 488.949828 
L 1816.628342 485.620755 
L 1818.64873 466.984954 
L 1822.689505 512.418339 
L 1824.709893 555.268015 
L 1826.730281 582.787158 
L 1828.750668 563.796991 
L 1830.771056 547.722204 
L 1832.791444 539.390615 
L 1834.811832 511.91513 
L 1836.832219 521.444817 
L 1838.852607 535.948582 
L 1954.014706 442.733681 
L 1958.055481 423.072085 
L 1960.075869 431.93394 
L 1962.096257 418.071259 
L 1964.116644 355.957562 
L 1966.137032 375.191118 
L 1968.15742 359.714245 
L 1970.177807 403.215142 
L 1980.279746 448.094906 
L 1982.300134 451.261326 
L 1988.361297 458.981222 
L 1990.381684 417.15968 
L 1992.402072 404.226238 
L 1994.42246 410.999043 
L 1996.442848 383.720797 
L 2000.483623 327.550276 
L 2073.21758 438.590149 
L 2075.237968 458.993986 
L 2079.278743 437.503533 
L 2081.299131 402.881583 
L 2109.584559 366.227019 
L 2438.907754 531.181507 
L 2440.928142 538.273802 
L 2442.948529 571.598405 
L 2444.968917 570.658521 
L 2449.009693 608.696233 
L 2467.193182 644.845288 
L 3178.369652 772.058796 
L 3180.39004 804.821436 
L 3182.410428 725.458461 
L 3184.430816 672.025667 
L 3186.451203 634.894547 
L 3188.471591 648.02908 
L 3194.532754 655.320372 
L 3206.65508 790.828788 
L 3210.695856 822.516039 
L 3212.716243 788.960377 
L 3214.736631 786.924352 
L 3216.757019 742.553537 
L 3220.797794 635.988774 
L 3228.879345 558.592908 
L 3230.899733 609.884648 
L 3253.123997 574.891646 
L 3257.164773 623.349526 
L 3259.18516 597.041541 
L 3261.205548 612.220684 
L 3265.246324 652.60037 
L 3267.266711 629.150244 
L 3269.287099 576.243933 
L 3277.36865 611.834016 
L 3285.450201 681.895031 
L 3287.470588 709.357583 
L 3289.490976 698.046205 
L 3291.511364 682.94978 
L 3293.531751 653.979996 
L 3295.552139 648.327741 
L 3297.572527 609.14254 
L 3299.592914 587.917653 
L 3301.613302 539.641344 
L 3303.63369 552.021547 
L 3309.694853 618.51959 
L 3315.756016 732.53072 
L 3317.776404 730.063135 
L 3319.796791 691.795157 
L 3321.817179 657.57535 
L 3323.837567 659.442939 
L 3325.857955 639.231488 
L 3327.878342 596.079376 
L 3329.89873 562.764248 
L 3331.919118 522.25368 
L 3340.000668 520.970605 
L 3342.021056 491.164239 
L 3344.041444 500.21553 
L 3346.061832 536.973797 
L 3348.082219 549.713045 
L 3352.122995 639.728786 
L 3354.143382 639.423155 
L 3356.16377 659.98498 
L 3358.184158 628.772229 
L 3360.204545 593.563802 
L 3362.224933 537.352984 
L 3364.245321 504.28336 
L 3366.265709 476.405109 
L 3368.286096 469.032249 
L 3370.306484 504.222113 
L 3372.326872 535.984003 
L 3374.347259 577.738786 
L 3376.367647 621.932749 
L 3400.612299 546.297095 
L 3402.632687 555.672676 
L 3404.653075 555.256968 
L 3406.673463 577.52998 
L 3410.714238 574.25038 
L 3412.734626 534.935608 
L 3414.755013 536.306753 
L 3416.775401 551.853404 
L 3418.795789 544.169387 
L 3420.816176 549.840651 
L 3422.836564 486.447819 
L 3424.856952 501.121944 
L 3426.87734 511.851665 
L 3428.897727 518.094145 
L 3430.918115 526.51529 
L 3432.938503 539.069915 
L 3434.95889 529.437977 
L 3436.979278 517.149908 
L 3438.999666 440.85888 
L 3441.020053 406.728105 
L 3443.040441 410.512843 
L 3445.060829 382.327945 
L 3449.101604 310.011203 
L 3451.121992 343.777214 
L 3453.14238 419.715611 
L 3455.162767 444.06109 
L 3457.183155 428.855004 
L 3459.203543 445.883947 
L 3461.22393 461.109811 
L 3463.244318 485.147885 
L 3465.264706 478.910615 
L 3467.285094 480.354363 
L 3469.305481 458.330058 
L 3471.325869 444.113899 
L 3473.346257 409.312371 
L 3475.366644 402.139723 
L 3477.387032 382.508508 
L 3479.40742 387.94531 
L 3481.427807 353.872911 
L 3483.448195 394.209006 
L 3485.468583 426.552672 
L 3487.488971 430.153958 
L 3489.509358 403.508221 
L 3491.529746 393.850507 
L 3493.550134 381.212226 
L 3497.590909 347.623673 
L 3499.611297 316.427697 
L 3501.631684 321.182168 
L 3503.652072 334.336543 
L 3505.67246 356.003869 
L 3507.692848 357.223136 
L 3509.713235 359.067231 
L 3511.733623 345.613874 
L 3513.754011 354.214953 
L 3515.774398 354.807105 
L 3517.794786 353.335257 
L 3519.815174 367.050683 
L 3521.835561 356.589769 
L 3523.855949 347.515877 
L 3527.896725 304.71336 
L 3529.917112 262.647191 
L 3531.9375 262.888309 
L 3533.957888 238.284889 
L 3535.978275 238.846138 
L 3537.998663 266.225838 
L 3540.019051 264.393138 
L 3542.039439 276.572684 
L 3544.059826 296.079158 
L 3548.100602 312.700537 
L 3550.120989 327.531164 
L 3552.141377 305.150104 
L 3554.161765 337.736936 
L 3556.182152 344.833012 
L 3558.20254 345.780579 
L 3560.222928 332.520196 
L 3562.243316 302.38578 
L 3566.284091 226.625478 
L 3568.304479 167.4 
L 3570.324866 183.890182 
L 3572.345254 168.942698 
L 3582.447193 301.66739 
L 3584.46758 296.856306 
L 3586.487968 308.743085 
L 3590.528743 280.356756 
L 3592.549131 341.043309 
L 3594.569519 336.2606 
L 3596.589906 315.892322 
L 3598.610294 268.825977 
L 3600.630682 247.220317 
L 3602.65107 278.297607 
L 3604.671457 296.980512 
L 3647.099599 386.748094 
L 3649.119987 387.318305 
L 3653.160762 381.824785 
L 3659.221925 343.631746 
L 3661.242313 316.523533 
L 3663.262701 301.906763 
L 3665.283088 315.399778 
L 3667.303476 338.777868 
L 3669.323864 355.126317 
L 3671.344251 404.4455 
L 3673.364639 438.362065 
L 3675.385027 457.688391 
L 3677.405414 495.047164 
L 3679.425802 515.60178 
L 3681.44619 511.424366 
L 3683.466578 530.638923 
L 3685.486965 531.859794 
L 3687.507353 525.457598 
L 3689.527741 491.025013 
L 3691.548128 492.965565 
L 3693.568516 460.76009 
L 3695.588904 457.468113 
L 3697.609291 411.940177 
L 3703.670455 501.491089 
L 3705.690842 510.751496 
L 3707.71123 514.183319 
L 3711.752005 570.293724 
L 3713.772393 595.578629 
L 3715.792781 556.647317 
L 3717.813168 586.588257 
L 3719.833556 569.023733 
L 3721.853944 578.909363 
L 3723.874332 568.754299 
L 3725.894719 616.250445 
L 3727.915107 610.431821 
L 3729.935495 607.379975 
L 3733.97627 567.268675 
L 3735.996658 588.956479 
L 3738.017045 600.015087 
L 3740.037433 602.884424 
L 3744.078209 585.951042 
L 3746.098596 596.599995 
L 3748.118984 605.028738 
L 3750.139372 596.779179 
L 3752.159759 617.388658 
L 3756.200535 649.675365 
L 3758.220922 634.428525 
L 3760.24131 621.763971 
L 3762.261698 629.28838 
L 3764.282086 619.760854 
L 3766.302473 556.249138 
L 3768.322861 516.682266 
L 3772.363636 479.274481 
L 3774.384024 474.726987 
L 3776.404412 483.472805 
L 3778.424799 502.316237 
L 3780.445187 528.488753 
L 3786.50635 491.813983 
L 3788.526738 531.252965 
L 3790.547126 544.734732 
L 3792.567513 551.901774 
L 3796.608289 659.186841 
L 3798.628676 699.07555 
L 3952.178142 758.144208 
L 3954.198529 715.399493 
L 3956.218917 736.090532 
L 3958.239305 694.244277 
L 3960.259693 679.755964 
L 3970.361631 591.815657 
L 3972.382019 658.936485 
L 3978.443182 742.047114 
L 3980.46357 704.715962 
L 3982.483957 699.919645 
L 3984.504345 727.958492 
L 3986.524733 691.951628 
L 3988.54512 682.558235 
L 3990.565508 692.309852 
L 3996.626671 781.135627 
L 4002.687834 722.508978 
L 4004.708222 743.900025 
L 4006.72861 712.063336 
L 4008.748997 708.220764 
L 4010.769385 672.823895 
L 4014.81016 734.75445 
L 4016.830548 689.619904 
L 4018.850936 649.209791 
L 4020.871324 640.454633 
L 4030.973262 704.331651 
L 4032.99365 716.018225 
L 4035.014037 741.177637 
L 4037.034425 761.95869 
L 4039.054813 726.854939 
L 4041.075201 696.596365 
L 4043.095588 670.205332 
L 4045.115976 650.222235 
L 4047.136364 645.541733 
L 4047.136364 645.541733 
" clip-path="url(#pcf443c20d1)" style="fill: none; stroke: #f14cc1; stroke-width: 2.5; stroke-linecap: square"/>
   </g>
   <g id="patch_3">
    <path d="M 585 961.2 
L 585 129.6 
" style="fill: none; stroke: #000000; stroke-width: 0.8; stroke-linejoin: miter; stroke-linecap: square"/>
   </g>
   <g id="patch_4">
    <path d="M 4212 961.2 
L 4212 129.6 
" style="fill: none; stroke: #000000; stroke-width: 0.8; stroke-linejoin: miter; stroke-linecap: square"/>
   </g>
   <g id="patch_5">
    <path d="M 585 961.2 
L 4212 961.2 
" style="fill: none; stroke: #000000; stroke-width: 0.8; stroke-linejoin: miter; stroke-linecap: square"/>
   </g>
   <g id="patch_6">
    <path d="M 585 129.6 
L 4212 129.6 
" style="fill: none; stroke: #000000; stroke-width: 0.8; stroke-linejoin: miter; stroke-linecap: square"/>
   </g>
   <g id="text_19">
    <!-- PORD -->
    <g transform="translate(2355.675 123.360937) scale(0.3 -0.3)">
     <defs>
      <path id="DejaVuSans-50" d="M 1259 4147 
L 1259 2394 
L 2053 2394 
Q 2494 2394 2734 2622 
Q 2975 2850 2975 3272 
Q 2975 3691 2734 3919 
Q 2494 4147 2053 4147 
L 1259 4147 
z
M 628 4666 
L 2053 4666 
Q 2838 4666 3239 4311 
Q 3641 3956 3641 3272 
Q 3641 2581 3239 2228 
Q 2838 1875 2053 1875 
L 1259 1875 
L 1259 0 
L 628 0 
L 628 4666 
z
" transform="scale(0.015625)"/>
      <path id="DejaVuSans-4f" d="M 2522 4238 
Q 1834 4238 1429 3725 
Q 1025 3213 1025 2328 
Q 1025 1447 1429 934 
Q 1834 422 2522 422 
Q 3209 422 3611 934 
Q 4013 1447 4013 2328 
Q 4013 3213 3611 3725 
Q 3209 4238 2522 4238 
z
M 2522 4750 
Q 3503 4750 4090 4092 
Q 4678 3434 4678 2328 
Q 4678 1225 4090 567 
Q 3503 -91 2522 -91 
Q 1538 -91 948 565 
Q 359 1222 359 2328 
Q 359 3434 948 4092 
Q 1538 4750 2522 4750 
z
" transform="scale(0.015625)"/>
      <path id="DejaVuSans-52" d="M 2841 2188 
Q 3044 2119 3236 1894 
Q 3428 1669 3622 1275 
L 4263 0 
L 3584 0 
L 2988 1197 
Q 2756 1666 2539 1819 
Q 2322 1972 1947 1972 
L 1259 1972 
L 1259 0 
L 628 0 
L 628 4666 
L 2053 4666 
Q 2853 4666 3247 4331 
Q 3641 3997 3641 3322 
Q 3641 2881 3436 2590 
Q 3231 2300 2841 2188 
z
M 1259 4147 
L 1259 2491 
L 2053 2491 
Q 2509 2491 2742 2702 
Q 2975 2913 2975 3322 
Q 2975 3731 2742 3939 
Q 2509 4147 2053 4147 
L 1259 4147 
z
" transform="scale(0.015625)"/>
      <path id="DejaVuSans-44" d="M 1259 4147 
L 1259 519 
L 2022 519 
Q 2988 519 3436 956 
Q 3884 1394 3884 2338 
Q 3884 3275 3436 3711 
Q 2988 4147 2022 4147 
L 1259 4147 
z
M 628 4666 
L 1925 4666 
Q 3281 4666 3915 4102 
Q 4550 3538 4550 2338 
Q 4550 1131 3912 565 
Q 3275 0 1925 0 
L 628 0 
L 628 4666 
z
" transform="scale(0.015625)"/>
     </defs>
     <use xlink:href="#DejaVuSans-50"/>
     <use xlink:href="#DejaVuSans-4f" x="60.302734"/>
     <use xlink:href="#DejaVuSans-52" x="139.013672"/>
     <use xlink:href="#DejaVuSans-44" x="208.496094"/>
    </g>
   </g>
   <g id="legend_1">
    <g id="patch_7">
     <path d="M 4150.248438 152.278125 
L 4205 152.278125 
Q 4207 152.278125 4207 150.278125 
L 4207 136.6 
Q 4207 134.6 4205 134.6 
L 4150.248438 134.6 
Q 4148.248438 134.6 4148.248438 136.6 
L 4148.248438 150.278125 
Q 4148.248438 152.278125 4150.248438 152.278125 
z
" style="fill: #ffffff; opacity: 0.8; stroke: #cccccc; stroke-linejoin: miter"/>
    </g>
    <g id="line2d_18">
     <path d="M 4152.248438 142.698438 
L 4162.248438 142.698438 
L 4172.248438 142.698438 
" style="fill: none; stroke: #f14cc1; stroke-width: 2.5; stroke-linecap: square"/>
    </g>
    <g id="text_20">
     <!-- pord -->
     <g transform="translate(4180.248438 146.198438) scale(0.1 -0.1)">
      <defs>
       <path id="DejaVuSans-70" d="M 1159 525 
L 1159 -1331 
L 581 -1331 
L 581 3500 
L 1159 3500 
L 1159 2969 
Q 1341 3281 1617 3432 
Q 1894 3584 2278 3584 
Q 2916 3584 3314 3078 
Q 3713 2572 3713 1747 
Q 3713 922 3314 415 
Q 2916 -91 2278 -91 
Q 1894 -91 1617 61 
Q 1341 213 1159 525 
z
M 3116 1747 
Q 3116 2381 2855 2742 
Q 2594 3103 2138 3103 
Q 1681 3103 1420 2742 
Q 1159 2381 1159 1747 
Q 1159 1113 1420 752 
Q 1681 391 2138 391 
Q 2594 391 2855 752 
Q 3116 1113 3116 1747 
z
" transform="scale(0.015625)"/>
       <path id="DejaVuSans-6f" d="M 1959 3097 
Q 1497 3097 1228 2736 
Q 959 2375 959 1747 
Q 959 1119 1226 758 
Q 1494 397 1959 397 
Q 2419 397 2687 759 
Q 2956 1122 2956 1747 
Q 2956 2369 2687 2733 
Q 2419 3097 1959 3097 
z
M 1959 3584 
Q 2709 3584 3137 3096 
Q 3566 2609 3566 1747 
Q 3566 888 3137 398 
Q 2709 -91 1959 -91 
Q 1206 -91 779 398 
Q 353 888 353 1747 
Q 353 2609 779 3096 
Q 1206 3584 1959 3584 
z
" transform="scale(0.015625)"/>
       <path id="DejaVuSans-72" d="M 2631 2963 
Q 2534 3019 2420 3045 
Q 2306 3072 2169 3072 
Q 1681 3072 1420 2755 
Q 1159 2438 1159 1844 
L 1159 0 
L 581 0 
L 581 3500 
L 1159 3500 
L 1159 2956 
Q 1341 3275 1631 3429 
Q 1922 3584 2338 3584 
Q 2397 3584 2469 3576 
Q 2541 3569 2628 3553 
L 2631 2963 
z
" transform="scale(0.015625)"/>
       <path id="DejaVuSans-64" d="M 2906 2969 
L 2906 4863 
L 3481 4863 
L 3481 0 
L 2906 0 
L 2906 525 
Q 2725 213 2448 61 
Q 2172 -91 1784 -91 
Q 1150 -91 751 415 
Q 353 922 353 1747 
Q 353 2572 751 3078 
Q 1150 3584 1784 3584 
Q 2172 3584 2448 3432 
Q 2725 3281 2906 2969 
z
M 947 1747 
Q 947 1113 1208 752 
Q 1469 391 1925 391 
Q 2381 391 2643 752 
Q 2906 1113 2906 1747 
Q 2906 2381 2643 2742 
Q 2381 3103 1925 3103 
Q 1469 3103 1208 2742 
Q 947 2381 947 1747 
z
" transform="scale(0.015625)"/>
      </defs>
      <use xlink:href="#DejaVuSans-70"/>
      <use xlink:href="#DejaVuSans-6f" x="63.476562"/>
      <use xlink:href="#DejaVuSans-72" x="124.658203"/>
      <use xlink:href="#DejaVuSans-64" x="164.021484"/>
     </g>
    </g>
   </g>
  </g>
 </g>
 <defs>
  <clipPath id="pcf443c20d1">
   <rect x="585" y="129.6" width="3627" height="831.6"/>
  </clipPath>
 </defs>
</svg>
