<?xml version="1.0" encoding="utf-8" standalone="no"?>
<!DOCTYPE svg PUBLIC "-//W3C//DTD SVG 1.1//EN"
  "http://www.w3.org/Graphics/SVG/1.1/DTD/svg11.dtd">
<svg xmlns:xlink="http://www.w3.org/1999/xlink" width="4680pt" height="1080pt" viewBox="0 0 4680 1080" xmlns="http://www.w3.org/2000/svg" version="1.1">
 <metadata>
  <rdf:RDF xmlns:dc="http://purl.org/dc/elements/1.1/" xmlns:cc="http://creativecommons.org/ns#" xmlns:rdf="http://www.w3.org/1999/02/22-rdf-syntax-ns#">
   <cc:Work>
    <dc:type rdf:resource="http://purl.org/dc/dcmitype/StillImage"/>
    <dc:date>2024-03-25T14:09:21.414676</dc:date>
    <dc:format>image/svg+xml</dc:format>
    <dc:creator>
     <cc:Agent>
      <dc:title>Matplotlib v3.7.2, https://matplotlib.org/</dc:title>
     </cc:Agent>
    </dc:creator>
   </cc:Work>
  </rdf:RDF>
 </metadata>
 <defs>
  <style type="text/css">*{stroke-linejoin: round; stroke-linecap: butt}</style>
 </defs>
 <g id="figure_1">
  <g id="patch_1">
   <path d="M 0 1080 
L 4680 1080 
L 4680 0 
L 0 0 
z
" style="fill: #ffffff"/>
  </g>
  <g id="axes_1">
   <g id="patch_2">
    <path d="M 585 961.2 
L 4212 961.2 
L 4212 129.6 
L 585 129.6 
z
" style="fill: #ffffff"/>
   </g>
   <g id="matplotlib.axis_1">
    <g id="xtick_1">
     <g id="line2d_1">
      <defs>
       <path id="mc50929141f" d="M 0 0 
L 0 3.5 
" style="stroke: #000000; stroke-width: 0.8"/>
      </defs>
      <g>
       <use xlink:href="#mc50929141f" x="941.800468" y="961.2" style="stroke: #000000; stroke-width: 0.8"/>
      </g>
     </g>
     <g id="text_1">
      <!-- 2012-07 -->
      <g transform="translate(900.017655 983.396875) scale(0.2 -0.2)">
       <defs>
        <path id="DejaVuSans-32" d="M 1228 531 
L 3431 531 
L 3431 0 
L 469 0 
L 469 531 
Q 828 903 1448 1529 
Q 2069 2156 2228 2338 
Q 2531 2678 2651 2914 
Q 2772 3150 2772 3378 
Q 2772 3750 2511 3984 
Q 2250 4219 1831 4219 
Q 1534 4219 1204 4116 
Q 875 4013 500 3803 
L 500 4441 
Q 881 4594 1212 4672 
Q 1544 4750 1819 4750 
Q 2544 4750 2975 4387 
Q 3406 4025 3406 3419 
Q 3406 3131 3298 2873 
Q 3191 2616 2906 2266 
Q 2828 2175 2409 1742 
Q 1991 1309 1228 531 
z
" transform="scale(0.015625)"/>
        <path id="DejaVuSans-30" d="M 2034 4250 
Q 1547 4250 1301 3770 
Q 1056 3291 1056 2328 
Q 1056 1369 1301 889 
Q 1547 409 2034 409 
Q 2525 409 2770 889 
Q 3016 1369 3016 2328 
Q 3016 3291 2770 3770 
Q 2525 4250 2034 4250 
z
M 2034 4750 
Q 2819 4750 3233 4129 
Q 3647 3509 3647 2328 
Q 3647 1150 3233 529 
Q 2819 -91 2034 -91 
Q 1250 -91 836 529 
Q 422 1150 422 2328 
Q 422 3509 836 4129 
Q 1250 4750 2034 4750 
z
" transform="scale(0.015625)"/>
        <path id="DejaVuSans-31" d="M 794 531 
L 1825 531 
L 1825 4091 
L 703 3866 
L 703 4441 
L 1819 4666 
L 2450 4666 
L 2450 531 
L 3481 531 
L 3481 0 
L 794 0 
L 794 531 
z
" transform="scale(0.015625)"/>
        <path id="DejaVuSans-2d" d="M 313 2009 
L 1997 2009 
L 1997 1497 
L 313 1497 
L 313 2009 
z
" transform="scale(0.015625)"/>
        <path id="DejaVuSans-37" d="M 525 4666 
L 3525 4666 
L 3525 4397 
L 1831 0 
L 1172 0 
L 2766 4134 
L 525 4134 
L 525 4666 
z
" transform="scale(0.015625)"/>
       </defs>
       <use xlink:href="#DejaVuSans-32"/>
       <use xlink:href="#DejaVuSans-30" x="63.623047"/>
       <use xlink:href="#DejaVuSans-31" x="127.246094"/>
       <use xlink:href="#DejaVuSans-32" x="190.869141"/>
       <use xlink:href="#DejaVuSans-2d" x="254.492188"/>
       <use xlink:href="#DejaVuSans-30" x="290.576172"/>
       <use xlink:href="#DejaVuSans-37" x="354.199219"/>
      </g>
     </g>
    </g>
    <g id="xtick_2">
     <g id="line2d_2">
      <g>
       <use xlink:href="#mc50929141f" x="1313.551805" y="961.2" style="stroke: #000000; stroke-width: 0.8"/>
      </g>
     </g>
     <g id="text_2">
      <!-- 2013-01 -->
      <g transform="translate(1271.768992 983.396875) scale(0.2 -0.2)">
       <defs>
        <path id="DejaVuSans-33" d="M 2597 2516 
Q 3050 2419 3304 2112 
Q 3559 1806 3559 1356 
Q 3559 666 3084 287 
Q 2609 -91 1734 -91 
Q 1441 -91 1130 -33 
Q 819 25 488 141 
L 488 750 
Q 750 597 1062 519 
Q 1375 441 1716 441 
Q 2309 441 2620 675 
Q 2931 909 2931 1356 
Q 2931 1769 2642 2001 
Q 2353 2234 1838 2234 
L 1294 2234 
L 1294 2753 
L 1863 2753 
Q 2328 2753 2575 2939 
Q 2822 3125 2822 3475 
Q 2822 3834 2567 4026 
Q 2313 4219 1838 4219 
Q 1578 4219 1281 4162 
Q 984 4106 628 3988 
L 628 4550 
Q 988 4650 1302 4700 
Q 1616 4750 1894 4750 
Q 2613 4750 3031 4423 
Q 3450 4097 3450 3541 
Q 3450 3153 3228 2886 
Q 3006 2619 2597 2516 
z
" transform="scale(0.015625)"/>
       </defs>
       <use xlink:href="#DejaVuSans-32"/>
       <use xlink:href="#DejaVuSans-30" x="63.623047"/>
       <use xlink:href="#DejaVuSans-31" x="127.246094"/>
       <use xlink:href="#DejaVuSans-33" x="190.869141"/>
       <use xlink:href="#DejaVuSans-2d" x="254.492188"/>
       <use xlink:href="#DejaVuSans-30" x="290.576172"/>
       <use xlink:href="#DejaVuSans-31" x="354.199219"/>
      </g>
     </g>
    </g>
    <g id="xtick_3">
     <g id="line2d_3">
      <g>
       <use xlink:href="#mc50929141f" x="1679.241979" y="961.2" style="stroke: #000000; stroke-width: 0.8"/>
      </g>
     </g>
     <g id="text_3">
      <!-- 2013-07 -->
      <g transform="translate(1637.459166 983.396875) scale(0.2 -0.2)">
       <use xlink:href="#DejaVuSans-32"/>
       <use xlink:href="#DejaVuSans-30" x="63.623047"/>
       <use xlink:href="#DejaVuSans-31" x="127.246094"/>
       <use xlink:href="#DejaVuSans-33" x="190.869141"/>
       <use xlink:href="#DejaVuSans-2d" x="254.492188"/>
       <use xlink:href="#DejaVuSans-30" x="290.576172"/>
       <use xlink:href="#DejaVuSans-37" x="354.199219"/>
      </g>
     </g>
    </g>
    <g id="xtick_4">
     <g id="line2d_4">
      <g>
       <use xlink:href="#mc50929141f" x="2050.993316" y="961.2" style="stroke: #000000; stroke-width: 0.8"/>
      </g>
     </g>
     <g id="text_4">
      <!-- 2014-01 -->
      <g transform="translate(2009.210503 983.396875) scale(0.2 -0.2)">
       <defs>
        <path id="DejaVuSans-34" d="M 2419 4116 
L 825 1625 
L 2419 1625 
L 2419 4116 
z
M 2253 4666 
L 3047 4666 
L 3047 1625 
L 3713 1625 
L 3713 1100 
L 3047 1100 
L 3047 0 
L 2419 0 
L 2419 1100 
L 313 1100 
L 313 1709 
L 2253 4666 
z
" transform="scale(0.015625)"/>
       </defs>
       <use xlink:href="#DejaVuSans-32"/>
       <use xlink:href="#DejaVuSans-30" x="63.623047"/>
       <use xlink:href="#DejaVuSans-31" x="127.246094"/>
       <use xlink:href="#DejaVuSans-34" x="190.869141"/>
       <use xlink:href="#DejaVuSans-2d" x="254.492188"/>
       <use xlink:href="#DejaVuSans-30" x="290.576172"/>
       <use xlink:href="#DejaVuSans-31" x="354.199219"/>
      </g>
     </g>
    </g>
    <g id="xtick_5">
     <g id="line2d_5">
      <g>
       <use xlink:href="#mc50929141f" x="2416.683489" y="961.2" style="stroke: #000000; stroke-width: 0.8"/>
      </g>
     </g>
     <g id="text_5">
      <!-- 2014-07 -->
      <g transform="translate(2374.900677 983.396875) scale(0.2 -0.2)">
       <use xlink:href="#DejaVuSans-32"/>
       <use xlink:href="#DejaVuSans-30" x="63.623047"/>
       <use xlink:href="#DejaVuSans-31" x="127.246094"/>
       <use xlink:href="#DejaVuSans-34" x="190.869141"/>
       <use xlink:href="#DejaVuSans-2d" x="254.492188"/>
       <use xlink:href="#DejaVuSans-30" x="290.576172"/>
       <use xlink:href="#DejaVuSans-37" x="354.199219"/>
      </g>
     </g>
    </g>
    <g id="xtick_6">
     <g id="line2d_6">
      <g>
       <use xlink:href="#mc50929141f" x="2788.434826" y="961.2" style="stroke: #000000; stroke-width: 0.8"/>
      </g>
     </g>
     <g id="text_6">
      <!-- 2015-01 -->
      <g transform="translate(2746.652014 983.396875) scale(0.2 -0.2)">
       <defs>
        <path id="DejaVuSans-35" d="M 691 4666 
L 3169 4666 
L 3169 4134 
L 1269 4134 
L 1269 2991 
Q 1406 3038 1543 3061 
Q 1681 3084 1819 3084 
Q 2600 3084 3056 2656 
Q 3513 2228 3513 1497 
Q 3513 744 3044 326 
Q 2575 -91 1722 -91 
Q 1428 -91 1123 -41 
Q 819 9 494 109 
L 494 744 
Q 775 591 1075 516 
Q 1375 441 1709 441 
Q 2250 441 2565 725 
Q 2881 1009 2881 1497 
Q 2881 1984 2565 2268 
Q 2250 2553 1709 2553 
Q 1456 2553 1204 2497 
Q 953 2441 691 2322 
L 691 4666 
z
" transform="scale(0.015625)"/>
       </defs>
       <use xlink:href="#DejaVuSans-32"/>
       <use xlink:href="#DejaVuSans-30" x="63.623047"/>
       <use xlink:href="#DejaVuSans-31" x="127.246094"/>
       <use xlink:href="#DejaVuSans-35" x="190.869141"/>
       <use xlink:href="#DejaVuSans-2d" x="254.492188"/>
       <use xlink:href="#DejaVuSans-30" x="290.576172"/>
       <use xlink:href="#DejaVuSans-31" x="354.199219"/>
      </g>
     </g>
    </g>
    <g id="xtick_7">
     <g id="line2d_7">
      <g>
       <use xlink:href="#mc50929141f" x="3154.125" y="961.2" style="stroke: #000000; stroke-width: 0.8"/>
      </g>
     </g>
     <g id="text_7">
      <!-- 2015-07 -->
      <g transform="translate(3112.342188 983.396875) scale(0.2 -0.2)">
       <use xlink:href="#DejaVuSans-32"/>
       <use xlink:href="#DejaVuSans-30" x="63.623047"/>
       <use xlink:href="#DejaVuSans-31" x="127.246094"/>
       <use xlink:href="#DejaVuSans-35" x="190.869141"/>
       <use xlink:href="#DejaVuSans-2d" x="254.492188"/>
       <use xlink:href="#DejaVuSans-30" x="290.576172"/>
       <use xlink:href="#DejaVuSans-37" x="354.199219"/>
      </g>
     </g>
    </g>
    <g id="xtick_8">
     <g id="line2d_8">
      <g>
       <use xlink:href="#mc50929141f" x="3525.876337" y="961.2" style="stroke: #000000; stroke-width: 0.8"/>
      </g>
     </g>
     <g id="text_8">
      <!-- 2016-01 -->
      <g transform="translate(3484.093524 983.396875) scale(0.2 -0.2)">
       <defs>
        <path id="DejaVuSans-36" d="M 2113 2584 
Q 1688 2584 1439 2293 
Q 1191 2003 1191 1497 
Q 1191 994 1439 701 
Q 1688 409 2113 409 
Q 2538 409 2786 701 
Q 3034 994 3034 1497 
Q 3034 2003 2786 2293 
Q 2538 2584 2113 2584 
z
M 3366 4563 
L 3366 3988 
Q 3128 4100 2886 4159 
Q 2644 4219 2406 4219 
Q 1781 4219 1451 3797 
Q 1122 3375 1075 2522 
Q 1259 2794 1537 2939 
Q 1816 3084 2150 3084 
Q 2853 3084 3261 2657 
Q 3669 2231 3669 1497 
Q 3669 778 3244 343 
Q 2819 -91 2113 -91 
Q 1303 -91 875 529 
Q 447 1150 447 2328 
Q 447 3434 972 4092 
Q 1497 4750 2381 4750 
Q 2619 4750 2861 4703 
Q 3103 4656 3366 4563 
z
" transform="scale(0.015625)"/>
       </defs>
       <use xlink:href="#DejaVuSans-32"/>
       <use xlink:href="#DejaVuSans-30" x="63.623047"/>
       <use xlink:href="#DejaVuSans-31" x="127.246094"/>
       <use xlink:href="#DejaVuSans-36" x="190.869141"/>
       <use xlink:href="#DejaVuSans-2d" x="254.492188"/>
       <use xlink:href="#DejaVuSans-30" x="290.576172"/>
       <use xlink:href="#DejaVuSans-31" x="354.199219"/>
      </g>
     </g>
    </g>
    <g id="xtick_9">
     <g id="line2d_9">
      <g>
       <use xlink:href="#mc50929141f" x="3893.586898" y="961.2" style="stroke: #000000; stroke-width: 0.8"/>
      </g>
     </g>
     <g id="text_9">
      <!-- 2016-07 -->
      <g transform="translate(3851.804086 983.396875) scale(0.2 -0.2)">
       <use xlink:href="#DejaVuSans-32"/>
       <use xlink:href="#DejaVuSans-30" x="63.623047"/>
       <use xlink:href="#DejaVuSans-31" x="127.246094"/>
       <use xlink:href="#DejaVuSans-36" x="190.869141"/>
       <use xlink:href="#DejaVuSans-2d" x="254.492188"/>
       <use xlink:href="#DejaVuSans-30" x="290.576172"/>
       <use xlink:href="#DejaVuSans-37" x="354.199219"/>
      </g>
     </g>
    </g>
    <g id="text_10">
     <!-- Time -->
     <g transform="translate(2374.032813 1006.753125) scale(0.2 -0.2)">
      <defs>
       <path id="DejaVuSans-54" d="M -19 4666 
L 3928 4666 
L 3928 4134 
L 2272 4134 
L 2272 0 
L 1638 0 
L 1638 4134 
L -19 4134 
L -19 4666 
z
" transform="scale(0.015625)"/>
       <path id="DejaVuSans-69" d="M 603 3500 
L 1178 3500 
L 1178 0 
L 603 0 
L 603 3500 
z
M 603 4863 
L 1178 4863 
L 1178 4134 
L 603 4134 
L 603 4863 
z
" transform="scale(0.015625)"/>
       <path id="DejaVuSans-6d" d="M 3328 2828 
Q 3544 3216 3844 3400 
Q 4144 3584 4550 3584 
Q 5097 3584 5394 3201 
Q 5691 2819 5691 2113 
L 5691 0 
L 5113 0 
L 5113 2094 
Q 5113 2597 4934 2840 
Q 4756 3084 4391 3084 
Q 3944 3084 3684 2787 
Q 3425 2491 3425 1978 
L 3425 0 
L 2847 0 
L 2847 2094 
Q 2847 2600 2669 2842 
Q 2491 3084 2119 3084 
Q 1678 3084 1418 2786 
Q 1159 2488 1159 1978 
L 1159 0 
L 581 0 
L 581 3500 
L 1159 3500 
L 1159 2956 
Q 1356 3278 1631 3431 
Q 1906 3584 2284 3584 
Q 2666 3584 2933 3390 
Q 3200 3197 3328 2828 
z
" transform="scale(0.015625)"/>
       <path id="DejaVuSans-65" d="M 3597 1894 
L 3597 1613 
L 953 1613 
Q 991 1019 1311 708 
Q 1631 397 2203 397 
Q 2534 397 2845 478 
Q 3156 559 3463 722 
L 3463 178 
Q 3153 47 2828 -22 
Q 2503 -91 2169 -91 
Q 1331 -91 842 396 
Q 353 884 353 1716 
Q 353 2575 817 3079 
Q 1281 3584 2069 3584 
Q 2775 3584 3186 3129 
Q 3597 2675 3597 1894 
z
M 3022 2063 
Q 3016 2534 2758 2815 
Q 2500 3097 2075 3097 
Q 1594 3097 1305 2825 
Q 1016 2553 972 2059 
L 3022 2063 
z
" transform="scale(0.015625)"/>
      </defs>
      <use xlink:href="#DejaVuSans-54"/>
      <use xlink:href="#DejaVuSans-69" x="57.958984"/>
      <use xlink:href="#DejaVuSans-6d" x="85.742188"/>
      <use xlink:href="#DejaVuSans-65" x="183.154297"/>
     </g>
    </g>
   </g>
   <g id="matplotlib.axis_2">
    <g id="ytick_1">
     <g id="line2d_10">
      <defs>
       <path id="m1c7c926790" d="M 0 0 
L -3.5 0 
" style="stroke: #000000; stroke-width: 0.8"/>
      </defs>
      <g>
       <use xlink:href="#m1c7c926790" x="585" y="860.784345" style="stroke: #000000; stroke-width: 0.8"/>
      </g>
     </g>
     <g id="text_11">
      <!-- −0.0015 -->
      <g transform="translate(491.259375 868.382783) scale(0.2 -0.2)">
       <defs>
        <path id="DejaVuSans-2212" d="M 678 2272 
L 4684 2272 
L 4684 1741 
L 678 1741 
L 678 2272 
z
" transform="scale(0.015625)"/>
        <path id="DejaVuSans-2e" d="M 684 794 
L 1344 794 
L 1344 0 
L 684 0 
L 684 794 
z
" transform="scale(0.015625)"/>
       </defs>
       <use xlink:href="#DejaVuSans-2212"/>
       <use xlink:href="#DejaVuSans-30" x="83.789062"/>
       <use xlink:href="#DejaVuSans-2e" x="147.412109"/>
       <use xlink:href="#DejaVuSans-30" x="179.199219"/>
       <use xlink:href="#DejaVuSans-30" x="242.822266"/>
       <use xlink:href="#DejaVuSans-31" x="306.445312"/>
       <use xlink:href="#DejaVuSans-35" x="370.068359"/>
      </g>
     </g>
    </g>
    <g id="ytick_2">
     <g id="line2d_11">
      <g>
       <use xlink:href="#m1c7c926790" x="585" y="753.696833" style="stroke: #000000; stroke-width: 0.8"/>
      </g>
     </g>
     <g id="text_12">
      <!-- −0.0010 -->
      <g transform="translate(491.259375 761.29527) scale(0.2 -0.2)">
       <use xlink:href="#DejaVuSans-2212"/>
       <use xlink:href="#DejaVuSans-30" x="83.789062"/>
       <use xlink:href="#DejaVuSans-2e" x="147.412109"/>
       <use xlink:href="#DejaVuSans-30" x="179.199219"/>
       <use xlink:href="#DejaVuSans-30" x="242.822266"/>
       <use xlink:href="#DejaVuSans-31" x="306.445312"/>
       <use xlink:href="#DejaVuSans-30" x="370.068359"/>
      </g>
     </g>
    </g>
    <g id="ytick_3">
     <g id="line2d_12">
      <g>
       <use xlink:href="#m1c7c926790" x="585" y="646.60932" style="stroke: #000000; stroke-width: 0.8"/>
      </g>
     </g>
     <g id="text_13">
      <!-- −0.0005 -->
      <g transform="translate(491.259375 654.207757) scale(0.2 -0.2)">
       <use xlink:href="#DejaVuSans-2212"/>
       <use xlink:href="#DejaVuSans-30" x="83.789062"/>
       <use xlink:href="#DejaVuSans-2e" x="147.412109"/>
       <use xlink:href="#DejaVuSans-30" x="179.199219"/>
       <use xlink:href="#DejaVuSans-30" x="242.822266"/>
       <use xlink:href="#DejaVuSans-30" x="306.445312"/>
       <use xlink:href="#DejaVuSans-35" x="370.068359"/>
      </g>
     </g>
    </g>
    <g id="ytick_4">
     <g id="line2d_13">
      <g>
       <use xlink:href="#m1c7c926790" x="585" y="539.521807" style="stroke: #000000; stroke-width: 0.8"/>
      </g>
     </g>
     <g id="text_14">
      <!-- 0.0000 -->
      <g transform="translate(508.01875 547.120244) scale(0.2 -0.2)">
       <use xlink:href="#DejaVuSans-30"/>
       <use xlink:href="#DejaVuSans-2e" x="63.623047"/>
       <use xlink:href="#DejaVuSans-30" x="95.410156"/>
       <use xlink:href="#DejaVuSans-30" x="159.033203"/>
       <use xlink:href="#DejaVuSans-30" x="222.65625"/>
       <use xlink:href="#DejaVuSans-30" x="286.279297"/>
      </g>
     </g>
    </g>
    <g id="ytick_5">
     <g id="line2d_14">
      <g>
       <use xlink:href="#m1c7c926790" x="585" y="432.434294" style="stroke: #000000; stroke-width: 0.8"/>
      </g>
     </g>
     <g id="text_15">
      <!-- 0.0005 -->
      <g transform="translate(508.01875 440.032731) scale(0.2 -0.2)">
       <use xlink:href="#DejaVuSans-30"/>
       <use xlink:href="#DejaVuSans-2e" x="63.623047"/>
       <use xlink:href="#DejaVuSans-30" x="95.410156"/>
       <use xlink:href="#DejaVuSans-30" x="159.033203"/>
       <use xlink:href="#DejaVuSans-30" x="222.65625"/>
       <use xlink:href="#DejaVuSans-35" x="286.279297"/>
      </g>
     </g>
    </g>
    <g id="ytick_6">
     <g id="line2d_15">
      <g>
       <use xlink:href="#m1c7c926790" x="585" y="325.346781" style="stroke: #000000; stroke-width: 0.8"/>
      </g>
     </g>
     <g id="text_16">
      <!-- 0.0010 -->
      <g transform="translate(508.01875 332.945218) scale(0.2 -0.2)">
       <use xlink:href="#DejaVuSans-30"/>
       <use xlink:href="#DejaVuSans-2e" x="63.623047"/>
       <use xlink:href="#DejaVuSans-30" x="95.410156"/>
       <use xlink:href="#DejaVuSans-30" x="159.033203"/>
       <use xlink:href="#DejaVuSans-31" x="222.65625"/>
       <use xlink:href="#DejaVuSans-30" x="286.279297"/>
      </g>
     </g>
    </g>
    <g id="ytick_7">
     <g id="line2d_16">
      <g>
       <use xlink:href="#m1c7c926790" x="585" y="218.259268" style="stroke: #000000; stroke-width: 0.8"/>
      </g>
     </g>
     <g id="text_17">
      <!-- 0.0015 -->
      <g transform="translate(508.01875 225.857705) scale(0.2 -0.2)">
       <use xlink:href="#DejaVuSans-30"/>
       <use xlink:href="#DejaVuSans-2e" x="63.623047"/>
       <use xlink:href="#DejaVuSans-30" x="95.410156"/>
       <use xlink:href="#DejaVuSans-30" x="159.033203"/>
       <use xlink:href="#DejaVuSans-31" x="222.65625"/>
       <use xlink:href="#DejaVuSans-35" x="286.279297"/>
      </g>
     </g>
    </g>
    <g id="text_18">
     <!-- East(m) -->
     <g transform="translate(483.1 584.520313) rotate(-90) scale(0.2 -0.2)">
      <defs>
       <path id="DejaVuSans-45" d="M 628 4666 
L 3578 4666 
L 3578 4134 
L 1259 4134 
L 1259 2753 
L 3481 2753 
L 3481 2222 
L 1259 2222 
L 1259 531 
L 3634 531 
L 3634 0 
L 628 0 
L 628 4666 
z
" transform="scale(0.015625)"/>
       <path id="DejaVuSans-61" d="M 2194 1759 
Q 1497 1759 1228 1600 
Q 959 1441 959 1056 
Q 959 750 1161 570 
Q 1363 391 1709 391 
Q 2188 391 2477 730 
Q 2766 1069 2766 1631 
L 2766 1759 
L 2194 1759 
z
M 3341 1997 
L 3341 0 
L 2766 0 
L 2766 531 
Q 2569 213 2275 61 
Q 1981 -91 1556 -91 
Q 1019 -91 701 211 
Q 384 513 384 1019 
Q 384 1609 779 1909 
Q 1175 2209 1959 2209 
L 2766 2209 
L 2766 2266 
Q 2766 2663 2505 2880 
Q 2244 3097 1772 3097 
Q 1472 3097 1187 3025 
Q 903 2953 641 2809 
L 641 3341 
Q 956 3463 1253 3523 
Q 1550 3584 1831 3584 
Q 2591 3584 2966 3190 
Q 3341 2797 3341 1997 
z
" transform="scale(0.015625)"/>
       <path id="DejaVuSans-73" d="M 2834 3397 
L 2834 2853 
Q 2591 2978 2328 3040 
Q 2066 3103 1784 3103 
Q 1356 3103 1142 2972 
Q 928 2841 928 2578 
Q 928 2378 1081 2264 
Q 1234 2150 1697 2047 
L 1894 2003 
Q 2506 1872 2764 1633 
Q 3022 1394 3022 966 
Q 3022 478 2636 193 
Q 2250 -91 1575 -91 
Q 1294 -91 989 -36 
Q 684 19 347 128 
L 347 722 
Q 666 556 975 473 
Q 1284 391 1588 391 
Q 1994 391 2212 530 
Q 2431 669 2431 922 
Q 2431 1156 2273 1281 
Q 2116 1406 1581 1522 
L 1381 1569 
Q 847 1681 609 1914 
Q 372 2147 372 2553 
Q 372 3047 722 3315 
Q 1072 3584 1716 3584 
Q 2034 3584 2315 3537 
Q 2597 3491 2834 3397 
z
" transform="scale(0.015625)"/>
       <path id="DejaVuSans-74" d="M 1172 4494 
L 1172 3500 
L 2356 3500 
L 2356 3053 
L 1172 3053 
L 1172 1153 
Q 1172 725 1289 603 
Q 1406 481 1766 481 
L 2356 481 
L 2356 0 
L 1766 0 
Q 1100 0 847 248 
Q 594 497 594 1153 
L 594 3053 
L 172 3053 
L 172 3500 
L 594 3500 
L 594 4494 
L 1172 4494 
z
" transform="scale(0.015625)"/>
       <path id="DejaVuSans-28" d="M 1984 4856 
Q 1566 4138 1362 3434 
Q 1159 2731 1159 2009 
Q 1159 1288 1364 580 
Q 1569 -128 1984 -844 
L 1484 -844 
Q 1016 -109 783 600 
Q 550 1309 550 2009 
Q 550 2706 781 3412 
Q 1013 4119 1484 4856 
L 1984 4856 
z
" transform="scale(0.015625)"/>
       <path id="DejaVuSans-29" d="M 513 4856 
L 1013 4856 
Q 1481 4119 1714 3412 
Q 1947 2706 1947 2009 
Q 1947 1309 1714 600 
Q 1481 -109 1013 -844 
L 513 -844 
Q 928 -128 1133 580 
Q 1338 1288 1338 2009 
Q 1338 2731 1133 3434 
Q 928 4138 513 4856 
z
" transform="scale(0.015625)"/>
      </defs>
      <use xlink:href="#DejaVuSans-45"/>
      <use xlink:href="#DejaVuSans-61" x="63.183594"/>
      <use xlink:href="#DejaVuSans-73" x="124.462891"/>
      <use xlink:href="#DejaVuSans-74" x="176.5625"/>
      <use xlink:href="#DejaVuSans-28" x="215.771484"/>
      <use xlink:href="#DejaVuSans-6d" x="254.785156"/>
      <use xlink:href="#DejaVuSans-29" x="352.197266"/>
     </g>
    </g>
   </g>
   <g id="line2d_17">
    <path d="M 749.863636 661.638857 
L 753.904412 727.4531 
L 755.924799 792.210452 
L 761.985963 757.283549 
L 764.00635 717.213662 
L 766.026738 707.400504 
L 768.047126 627.543449 
L 770.067513 621.387262 
L 772.087901 706.338323 
L 774.108289 704.766276 
L 776.128676 736.326739 
L 790.27139 612.792147 
L 792.291778 585.514334 
L 794.312166 590.300432 
L 796.332553 517.908524 
L 798.352941 512.35924 
L 800.373329 486.80863 
L 802.393717 514.48684 
L 806.434492 542.58161 
L 808.45488 603.018707 
L 810.475267 650.419194 
L 812.495655 611.171044 
L 824.617981 777.723223 
L 830.679144 798.778654 
L 832.699532 819.069479 
L 834.71992 726.821072 
L 836.740307 627.089113 
L 844.821858 650.157804 
L 850.883021 728.744285 
L 852.903409 682.361386 
L 854.923797 666.426789 
L 856.944184 682.679893 
L 860.98496 675.812265 
L 863.005348 659.020334 
L 865.025735 675.960703 
L 867.046123 721.731041 
L 869.066511 716.493985 
L 873.107286 627.347753 
L 875.127674 585.506969 
L 877.148061 514.468138 
L 879.168449 468.26778 
L 885.229612 448.244558 
L 889.270388 599.688181 
L 891.290775 665.166171 
L 893.311163 760.060294 
L 895.331551 760.869822 
L 897.351939 741.503073 
L 899.372326 707.651992 
L 901.392714 603.365095 
L 903.413102 525.142 
L 905.433489 482.013393 
L 907.453877 451.641389 
L 909.474265 477.957072 
L 913.51504 495.745164 
L 915.535428 477.395201 
L 917.555816 517.013273 
L 921.596591 440.963591 
L 933.718917 462.121986 
L 937.759693 442.425186 
L 1044.840241 585.097752 
L 1046.860628 471.563828 
L 1048.881016 484.868931 
L 1212.53242 454.750324 
L 1214.552807 462.18133 
L 1216.573195 396.585188 
L 1226.675134 341.502264 
L 1230.715909 368.182886 
L 1232.736297 346.530349 
L 1234.756684 389.977754 
L 1236.777072 437.263496 
L 1238.79746 500.292734 
L 1240.817848 556.863398 
L 1242.838235 541.815493 
L 1333.755682 706.996557 
L 1335.77607 615.74092 
L 1337.796457 556.843103 
L 1341.837233 462.514215 
L 1372.143048 563.184875 
L 1374.163436 581.541312 
L 1376.183824 627.449645 
L 1378.204211 623.68793 
L 1382.244987 677.41556 
L 1384.265374 679.470178 
L 1386.285762 669.30704 
L 1388.30615 641.861666 
L 1390.326537 573.591985 
L 1392.346925 532.494083 
L 1394.367313 497.771363 
L 1402.448864 472.829916 
L 1404.469251 519.069008 
L 1406.489639 581.925335 
L 1412.550802 743.166136 
L 1414.57119 751.774308 
L 1416.591578 732.184011 
L 1418.611965 725.259335 
L 1420.632353 752.766537 
L 1424.673128 737.970008 
L 1426.693516 721.9867 
L 1428.713904 713.817974 
L 1432.754679 747.946185 
L 1434.775067 746.074344 
L 1436.795455 693.644235 
L 1444.877005 703.929645 
L 1446.897393 722.93313 
L 1454.978944 739.674806 
L 1456.999332 778.270064 
L 1459.019719 798.986 
L 1461.040107 750.092247 
L 1463.060495 742.0852 
L 1465.080882 768.416834 
L 1469.121658 868.890962 
L 1471.142045 873.069111 
L 1473.162433 790.60773 
L 1475.182821 789.808637 
L 1479.223596 820.1422 
L 1481.243984 806.34374 
L 1483.264372 754.404133 
L 1485.284759 760.234104 
L 1487.305147 829.580298 
L 1489.325535 923.4 
L 1491.345922 812.717911 
L 1493.36631 812.576775 
L 1495.386698 834.111428 
L 1497.407086 748.211295 
L 1501.447861 662.95682 
L 1669.14004 488.208431 
L 1673.180816 360.708871 
L 1677.221591 382.868005 
L 1681.262366 519.776178 
L 1683.282754 582.177004 
L 1689.343917 675.481464 
L 1691.364305 773.839948 
L 1693.384693 777.267592 
L 1697.425468 821.179138 
L 1699.445856 780.597667 
L 1701.466243 726.625889 
L 1703.486631 690.370237 
L 1705.507019 657.548584 
L 1707.527406 586.796193 
L 1719.649733 657.433293 
L 1723.690508 539.306884 
L 1725.710896 466.031173 
L 1727.731283 384.012555 
L 1729.751671 285.985314 
L 1731.772059 315.059896 
L 1735.812834 351.615599 
L 1737.833222 390.866807 
L 1739.85361 376.533919 
L 1741.873997 467.091013 
L 1743.894385 438.073269 
L 1749.955548 359.001862 
L 1751.975936 390.182115 
L 1753.996324 448.54081 
L 1756.016711 515.48847 
L 1758.037099 456.085836 
L 1766.11865 522.317582 
L 1768.139037 575.146184 
L 1780.261364 670.526697 
L 1782.281751 646.940046 
L 1784.302139 701.354514 
L 1786.322527 697.412383 
L 1788.342914 758.296041 
L 1790.363302 713.631209 
L 1792.38369 730.996388 
L 1794.404078 816.869702 
L 1796.424465 775.242623 
L 1806.526404 537.017633 
L 1808.546791 452.464821 
L 1810.567179 501.092298 
L 1812.587567 489.108012 
L 1814.607955 458.484978 
L 1816.628342 422.79833 
L 1818.64873 450.221514 
L 1822.689505 534.353374 
L 1824.709893 609.989724 
L 1826.730281 588.831845 
L 1828.750668 585.893044 
L 1830.771056 631.01859 
L 1832.791444 700.156937 
L 1834.811832 729.000512 
L 1836.832219 731.272672 
L 1838.852607 697.058011 
L 1954.014706 638.636901 
L 1958.055481 702.649194 
L 1960.075869 687.831103 
L 1962.096257 565.915508 
L 1964.116644 469.710261 
L 1966.137032 451.278332 
L 1968.15742 406.815831 
L 1970.177807 488.654201 
L 1980.279746 621.014127 
L 1982.300134 691.565531 
L 1988.361297 737.414369 
L 1990.381684 680.538243 
L 1992.402072 675.595919 
L 1994.42246 683.904484 
L 1996.442848 617.048656 
L 2000.483623 545.920486 
L 2073.21758 566.804382 
L 2075.237968 609.460653 
L 2079.278743 644.630605 
L 2081.299131 576.424131 
L 2109.584559 575.446771 
L 2438.907754 401.444109 
L 2440.928142 386.54645 
L 2442.948529 482.588548 
L 2444.968917 464.484917 
L 2449.009693 436.578847 
L 2467.193182 718.980788 
L 3178.369652 715.026224 
L 3180.39004 619.960258 
L 3182.410428 516.812618 
L 3184.430816 528.50151 
L 3186.451203 451.180782 
L 3188.471591 475.439643 
L 3194.532754 491.604235 
L 3206.65508 555.681897 
L 3210.695856 608.926231 
L 3212.716243 333.771674 
L 3214.736631 362.182725 
L 3216.757019 299.463839 
L 3220.797794 234.86379 
L 3228.879345 347.534574 
L 3230.899733 326.333028 
L 3253.123997 613.424892 
L 3257.164773 541.74744 
L 3259.18516 541.38455 
L 3261.205548 597.275179 
L 3265.246324 538.779755 
L 3267.266711 502.402903 
L 3269.287099 563.3598 
L 3277.36865 607.362171 
L 3285.450201 542.850443 
L 3287.470588 505.998566 
L 3289.490976 430.28564 
L 3291.511364 448.475261 
L 3293.531751 382.458945 
L 3295.552139 346.213648 
L 3297.572527 278.887897 
L 3299.592914 307.779006 
L 3301.613302 352.999245 
L 3303.63369 366.88446 
L 3309.694853 302.819512 
L 3315.756016 335.421612 
L 3317.776404 350.910767 
L 3319.796791 326.282091 
L 3321.817179 292.032427 
L 3323.837567 294.469406 
L 3325.857955 270.71851 
L 3327.878342 303.616473 
L 3329.89873 270.768678 
L 3331.919118 265.045566 
L 3340.000668 446.862704 
L 3342.021056 456.379637 
L 3344.041444 511.009514 
L 3346.061832 613.530169 
L 3348.082219 576.64323 
L 3352.122995 676.435102 
L 3354.143382 682.528105 
L 3356.16377 662.681314 
L 3358.184158 594.122243 
L 3360.204545 478.541516 
L 3362.224933 425.892129 
L 3364.245321 413.840987 
L 3366.265709 343.189396 
L 3368.286096 334.631838 
L 3370.306484 397.096019 
L 3372.326872 440.546115 
L 3374.347259 541.923769 
L 3376.367647 589.459754 
L 3400.612299 573.80332 
L 3402.632687 582.532023 
L 3404.653075 562.504911 
L 3406.673463 487.969413 
L 3410.714238 414.361667 
L 3412.734626 437.334947 
L 3414.755013 435.160721 
L 3416.775401 420.955655 
L 3418.795789 447.42774 
L 3420.816176 436.857669 
L 3422.836564 476.157474 
L 3424.856952 522.161107 
L 3426.87734 536.430719 
L 3428.897727 539.860618 
L 3430.918115 578.561405 
L 3432.938503 604.04355 
L 3434.95889 620.821666 
L 3436.979278 547.937133 
L 3438.999666 418.691292 
L 3441.020053 354.383583 
L 3443.040441 348.964258 
L 3445.060829 275.532264 
L 3447.081217 192.633611 
L 3449.101604 171.91672 
L 3451.121992 236.715249 
L 3453.14238 375.497077 
L 3455.162767 441.683152 
L 3457.183155 419.067028 
L 3459.203543 470.421863 
L 3461.22393 512.954654 
L 3463.244318 499.225518 
L 3465.264706 527.530034 
L 3467.285094 517.791093 
L 3469.305481 455.646142 
L 3471.325869 465.561467 
L 3475.366644 389.136081 
L 3477.387032 388.302626 
L 3479.40742 318.70785 
L 3481.427807 283.650998 
L 3483.448195 403.862658 
L 3485.468583 415.006453 
L 3487.488971 397.578142 
L 3489.509358 373.610606 
L 3491.529746 328.696086 
L 3493.550134 357.510161 
L 3497.590909 351.305986 
L 3499.611297 336.072467 
L 3501.631684 373.188237 
L 3503.652072 453.286416 
L 3505.67246 527.010426 
L 3507.692848 533.285041 
L 3509.713235 459.438125 
L 3511.733623 400.70993 
L 3513.754011 391.842877 
L 3515.774398 394.27879 
L 3517.794786 364.532088 
L 3519.815174 374.963494 
L 3521.835561 382.993734 
L 3523.855949 440.981788 
L 3527.896725 500.989603 
L 3529.917112 460.462282 
L 3531.9375 514.386756 
L 3533.957888 515.469122 
L 3535.978275 508.891337 
L 3537.998663 510.949285 
L 3540.019051 486.597366 
L 3542.039439 451.332872 
L 3544.059826 502.878884 
L 3548.100602 531.343439 
L 3550.120989 553.454358 
L 3552.141377 486.124313 
L 3554.161765 527.760127 
L 3556.182152 582.04699 
L 3558.20254 544.627928 
L 3560.222928 480.26966 
L 3562.243316 411.613278 
L 3564.263703 391.627078 
L 3566.284091 415.964756 
L 3568.304479 362.824216 
L 3570.324866 346.809111 
L 3572.345254 327.906979 
L 3582.447193 504.578423 
L 3584.46758 530.797054 
L 3586.487968 555.343843 
L 3590.528743 551.139827 
L 3592.549131 610.630829 
L 3594.569519 598.067528 
L 3596.589906 549.804901 
L 3598.610294 530.271869 
L 3602.65107 448.433106 
L 3604.671457 389.567863 
L 3647.099599 450.913131 
L 3649.119987 510.499027 
L 3653.160762 514.156945 
L 3659.221925 656.700764 
L 3661.242313 534.948871 
L 3663.262701 473.796715 
L 3665.283088 462.703132 
L 3667.303476 491.283852 
L 3669.323864 508.608553 
L 3671.344251 550.462933 
L 3673.364639 556.632375 
L 3675.385027 606.883386 
L 3677.405414 638.514706 
L 3679.425802 721.093354 
L 3681.44619 729.101042 
L 3683.466578 768.649857 
L 3685.486965 734.203162 
L 3687.507353 755.056304 
L 3689.527741 729.097457 
L 3691.548128 752.608174 
L 3693.568516 664.945058 
L 3695.588904 663.340396 
L 3697.609291 559.472433 
L 3703.670455 677.741495 
L 3705.690842 749.805978 
L 3713.772393 878.79717 
L 3715.792781 864.774764 
L 3717.813168 910.083265 
L 3719.833556 823.150883 
L 3721.853944 806.282686 
L 3723.874332 756.174573 
L 3725.894719 769.593583 
L 3727.915107 694.839249 
L 3729.935495 676.817466 
L 3733.97627 550.046027 
L 3735.996658 533.298223 
L 3738.017045 610.994994 
L 3740.037433 592.560396 
L 3744.078209 562.342559 
L 3746.098596 525.571786 
L 3748.118984 530.506143 
L 3750.139372 542.222334 
L 3752.159759 504.337931 
L 3756.200535 570.800484 
L 3758.220922 569.292545 
L 3760.24131 581.910093 
L 3762.261698 619.894335 
L 3764.282086 608.780891 
L 3766.302473 553.747185 
L 3768.322861 543.430019 
L 3772.363636 534.389525 
L 3774.384024 536.976838 
L 3776.404412 558.445914 
L 3778.424799 569.105238 
L 3780.445187 617.65479 
L 3786.50635 528.020418 
L 3788.526738 600.732992 
L 3790.547126 625.725385 
L 3792.567513 656.290024 
L 3794.587901 717.821463 
L 3796.608289 798.945655 
L 3798.628676 848.597084 
L 3952.178142 322.545369 
L 3954.198529 167.4 
L 3956.218917 229.450335 
L 3958.239305 243.427003 
L 3960.259693 279.927936 
L 3970.361631 243.383424 
L 3972.382019 219.899159 
L 3978.443182 321.543147 
L 3980.46357 311.860282 
L 3982.483957 316.654204 
L 3984.504345 255.258839 
L 3986.524733 220.595554 
L 3988.54512 267.491213 
L 3990.565508 263.842599 
L 3996.626671 380.596023 
L 4002.687834 389.502654 
L 4004.708222 440.239519 
L 4006.72861 416.862263 
L 4008.748997 422.891369 
L 4010.769385 480.218588 
L 4014.81016 520.995497 
L 4016.830548 460.065456 
L 4018.850936 495.317088 
L 4020.871324 488.027627 
L 4030.973262 511.904391 
L 4032.99365 503.39591 
L 4035.014037 549.667775 
L 4037.034425 582.610485 
L 4039.054813 550.356648 
L 4041.075201 601.931182 
L 4043.095588 599.753955 
L 4045.115976 678.34226 
L 4047.136364 647.062839 
L 4047.136364 647.062839 
" clip-path="url(#p31f7deb476)" style="fill: none; stroke: #f14cc1; stroke-width: 2.5; stroke-linecap: square"/>
   </g>
   <g id="patch_3">
    <path d="M 585 961.2 
L 585 129.6 
" style="fill: none; stroke: #000000; stroke-width: 0.8; stroke-linejoin: miter; stroke-linecap: square"/>
   </g>
   <g id="patch_4">
    <path d="M 4212 961.2 
L 4212 129.6 
" style="fill: none; stroke: #000000; stroke-width: 0.8; stroke-linejoin: miter; stroke-linecap: square"/>
   </g>
   <g id="patch_5">
    <path d="M 585 961.2 
L 4212 961.2 
" style="fill: none; stroke: #000000; stroke-width: 0.8; stroke-linejoin: miter; stroke-linecap: square"/>
   </g>
   <g id="patch_6">
    <path d="M 585 129.6 
L 4212 129.6 
" style="fill: none; stroke: #000000; stroke-width: 0.8; stroke-linejoin: miter; stroke-linecap: square"/>
   </g>
   <g id="text_19">
    <!-- ROVE -->
    <g transform="translate(2356.792969 123.360937) scale(0.3 -0.3)">
     <defs>
      <path id="DejaVuSans-52" d="M 2841 2188 
Q 3044 2119 3236 1894 
Q 3428 1669 3622 1275 
L 4263 0 
L 3584 0 
L 2988 1197 
Q 2756 1666 2539 1819 
Q 2322 1972 1947 1972 
L 1259 1972 
L 1259 0 
L 628 0 
L 628 4666 
L 2053 4666 
Q 2853 4666 3247 4331 
Q 3641 3997 3641 3322 
Q 3641 2881 3436 2590 
Q 3231 2300 2841 2188 
z
M 1259 4147 
L 1259 2491 
L 2053 2491 
Q 2509 2491 2742 2702 
Q 2975 2913 2975 3322 
Q 2975 3731 2742 3939 
Q 2509 4147 2053 4147 
L 1259 4147 
z
" transform="scale(0.015625)"/>
      <path id="DejaVuSans-4f" d="M 2522 4238 
Q 1834 4238 1429 3725 
Q 1025 3213 1025 2328 
Q 1025 1447 1429 934 
Q 1834 422 2522 422 
Q 3209 422 3611 934 
Q 4013 1447 4013 2328 
Q 4013 3213 3611 3725 
Q 3209 4238 2522 4238 
z
M 2522 4750 
Q 3503 4750 4090 4092 
Q 4678 3434 4678 2328 
Q 4678 1225 4090 567 
Q 3503 -91 2522 -91 
Q 1538 -91 948 565 
Q 359 1222 359 2328 
Q 359 3434 948 4092 
Q 1538 4750 2522 4750 
z
" transform="scale(0.015625)"/>
      <path id="DejaVuSans-56" d="M 1831 0 
L 50 4666 
L 709 4666 
L 2188 738 
L 3669 4666 
L 4325 4666 
L 2547 0 
L 1831 0 
z
" transform="scale(0.015625)"/>
     </defs>
     <use xlink:href="#DejaVuSans-52"/>
     <use xlink:href="#DejaVuSans-4f" x="69.482422"/>
     <use xlink:href="#DejaVuSans-56" x="146.443359"/>
     <use xlink:href="#DejaVuSans-45" x="214.851562"/>
    </g>
   </g>
   <g id="legend_1">
    <g id="patch_7">
     <path d="M 4150.923437 152.278125 
L 4205 152.278125 
Q 4207 152.278125 4207 150.278125 
L 4207 136.6 
Q 4207 134.6 4205 134.6 
L 4150.923437 134.6 
Q 4148.923437 134.6 4148.923437 136.6 
L 4148.923437 150.278125 
Q 4148.923437 152.278125 4150.923437 152.278125 
z
" style="fill: #ffffff; opacity: 0.8; stroke: #cccccc; stroke-linejoin: miter"/>
    </g>
    <g id="line2d_18">
     <path d="M 4152.923437 142.698438 
L 4162.923437 142.698438 
L 4172.923437 142.698438 
" style="fill: none; stroke: #f14cc1; stroke-width: 2.5; stroke-linecap: square"/>
    </g>
    <g id="text_20">
     <!-- rove -->
     <g transform="translate(4180.923437 146.198438) scale(0.1 -0.1)">
      <defs>
       <path id="DejaVuSans-72" d="M 2631 2963 
Q 2534 3019 2420 3045 
Q 2306 3072 2169 3072 
Q 1681 3072 1420 2755 
Q 1159 2438 1159 1844 
L 1159 0 
L 581 0 
L 581 3500 
L 1159 3500 
L 1159 2956 
Q 1341 3275 1631 3429 
Q 1922 3584 2338 3584 
Q 2397 3584 2469 3576 
Q 2541 3569 2628 3553 
L 2631 2963 
z
" transform="scale(0.015625)"/>
       <path id="DejaVuSans-6f" d="M 1959 3097 
Q 1497 3097 1228 2736 
Q 959 2375 959 1747 
Q 959 1119 1226 758 
Q 1494 397 1959 397 
Q 2419 397 2687 759 
Q 2956 1122 2956 1747 
Q 2956 2369 2687 2733 
Q 2419 3097 1959 3097 
z
M 1959 3584 
Q 2709 3584 3137 3096 
Q 3566 2609 3566 1747 
Q 3566 888 3137 398 
Q 2709 -91 1959 -91 
Q 1206 -91 779 398 
Q 353 888 353 1747 
Q 353 2609 779 3096 
Q 1206 3584 1959 3584 
z
" transform="scale(0.015625)"/>
       <path id="DejaVuSans-76" d="M 191 3500 
L 800 3500 
L 1894 563 
L 2988 3500 
L 3597 3500 
L 2284 0 
L 1503 0 
L 191 3500 
z
" transform="scale(0.015625)"/>
      </defs>
      <use xlink:href="#DejaVuSans-72"/>
      <use xlink:href="#DejaVuSans-6f" x="38.863281"/>
      <use xlink:href="#DejaVuSans-76" x="100.044922"/>
      <use xlink:href="#DejaVuSans-65" x="159.224609"/>
     </g>
    </g>
   </g>
  </g>
 </g>
 <defs>
  <clipPath id="p31f7deb476">
   <rect x="585" y="129.6" width="3627" height="831.6"/>
  </clipPath>
 </defs>
</svg>
