<?xml version="1.0" encoding="utf-8" standalone="no"?>
<!DOCTYPE svg PUBLIC "-//W3C//DTD SVG 1.1//EN"
  "http://www.w3.org/Graphics/SVG/1.1/DTD/svg11.dtd">
<svg xmlns:xlink="http://www.w3.org/1999/xlink" width="4680pt" height="1080pt" viewBox="0 0 4680 1080" xmlns="http://www.w3.org/2000/svg" version="1.1">
 <metadata>
  <rdf:RDF xmlns:dc="http://purl.org/dc/elements/1.1/" xmlns:cc="http://creativecommons.org/ns#" xmlns:rdf="http://www.w3.org/1999/02/22-rdf-syntax-ns#">
   <cc:Work>
    <dc:type rdf:resource="http://purl.org/dc/dcmitype/StillImage"/>
    <dc:date>2024-03-25T14:09:19.006378</dc:date>
    <dc:format>image/svg+xml</dc:format>
    <dc:creator>
     <cc:Agent>
      <dc:title>Matplotlib v3.7.2, https://matplotlib.org/</dc:title>
     </cc:Agent>
    </dc:creator>
   </cc:Work>
  </rdf:RDF>
 </metadata>
 <defs>
  <style type="text/css">*{stroke-linejoin: round; stroke-linecap: butt}</style>
 </defs>
 <g id="figure_1">
  <g id="patch_1">
   <path d="M 0 1080 
L 4680 1080 
L 4680 0 
L 0 0 
z
" style="fill: #ffffff"/>
  </g>
  <g id="axes_1">
   <g id="patch_2">
    <path d="M 585 961.2 
L 4212 961.2 
L 4212 129.6 
L 585 129.6 
z
" style="fill: #ffffff"/>
   </g>
   <g id="matplotlib.axis_1">
    <g id="xtick_1">
     <g id="line2d_1">
      <defs>
       <path id="m360dcf3abc" d="M 0 0 
L 0 3.5 
" style="stroke: #000000; stroke-width: 0.8"/>
      </defs>
      <g>
       <use xlink:href="#m360dcf3abc" x="941.800468" y="961.2" style="stroke: #000000; stroke-width: 0.8"/>
      </g>
     </g>
     <g id="text_1">
      <!-- 2012-07 -->
      <g transform="translate(900.017655 983.396875) scale(0.2 -0.2)">
       <defs>
        <path id="DejaVuSans-32" d="M 1228 531 
L 3431 531 
L 3431 0 
L 469 0 
L 469 531 
Q 828 903 1448 1529 
Q 2069 2156 2228 2338 
Q 2531 2678 2651 2914 
Q 2772 3150 2772 3378 
Q 2772 3750 2511 3984 
Q 2250 4219 1831 4219 
Q 1534 4219 1204 4116 
Q 875 4013 500 3803 
L 500 4441 
Q 881 4594 1212 4672 
Q 1544 4750 1819 4750 
Q 2544 4750 2975 4387 
Q 3406 4025 3406 3419 
Q 3406 3131 3298 2873 
Q 3191 2616 2906 2266 
Q 2828 2175 2409 1742 
Q 1991 1309 1228 531 
z
" transform="scale(0.015625)"/>
        <path id="DejaVuSans-30" d="M 2034 4250 
Q 1547 4250 1301 3770 
Q 1056 3291 1056 2328 
Q 1056 1369 1301 889 
Q 1547 409 2034 409 
Q 2525 409 2770 889 
Q 3016 1369 3016 2328 
Q 3016 3291 2770 3770 
Q 2525 4250 2034 4250 
z
M 2034 4750 
Q 2819 4750 3233 4129 
Q 3647 3509 3647 2328 
Q 3647 1150 3233 529 
Q 2819 -91 2034 -91 
Q 1250 -91 836 529 
Q 422 1150 422 2328 
Q 422 3509 836 4129 
Q 1250 4750 2034 4750 
z
" transform="scale(0.015625)"/>
        <path id="DejaVuSans-31" d="M 794 531 
L 1825 531 
L 1825 4091 
L 703 3866 
L 703 4441 
L 1819 4666 
L 2450 4666 
L 2450 531 
L 3481 531 
L 3481 0 
L 794 0 
L 794 531 
z
" transform="scale(0.015625)"/>
        <path id="DejaVuSans-2d" d="M 313 2009 
L 1997 2009 
L 1997 1497 
L 313 1497 
L 313 2009 
z
" transform="scale(0.015625)"/>
        <path id="DejaVuSans-37" d="M 525 4666 
L 3525 4666 
L 3525 4397 
L 1831 0 
L 1172 0 
L 2766 4134 
L 525 4134 
L 525 4666 
z
" transform="scale(0.015625)"/>
       </defs>
       <use xlink:href="#DejaVuSans-32"/>
       <use xlink:href="#DejaVuSans-30" x="63.623047"/>
       <use xlink:href="#DejaVuSans-31" x="127.246094"/>
       <use xlink:href="#DejaVuSans-32" x="190.869141"/>
       <use xlink:href="#DejaVuSans-2d" x="254.492188"/>
       <use xlink:href="#DejaVuSans-30" x="290.576172"/>
       <use xlink:href="#DejaVuSans-37" x="354.199219"/>
      </g>
     </g>
    </g>
    <g id="xtick_2">
     <g id="line2d_2">
      <g>
       <use xlink:href="#m360dcf3abc" x="1313.551805" y="961.2" style="stroke: #000000; stroke-width: 0.8"/>
      </g>
     </g>
     <g id="text_2">
      <!-- 2013-01 -->
      <g transform="translate(1271.768992 983.396875) scale(0.2 -0.2)">
       <defs>
        <path id="DejaVuSans-33" d="M 2597 2516 
Q 3050 2419 3304 2112 
Q 3559 1806 3559 1356 
Q 3559 666 3084 287 
Q 2609 -91 1734 -91 
Q 1441 -91 1130 -33 
Q 819 25 488 141 
L 488 750 
Q 750 597 1062 519 
Q 1375 441 1716 441 
Q 2309 441 2620 675 
Q 2931 909 2931 1356 
Q 2931 1769 2642 2001 
Q 2353 2234 1838 2234 
L 1294 2234 
L 1294 2753 
L 1863 2753 
Q 2328 2753 2575 2939 
Q 2822 3125 2822 3475 
Q 2822 3834 2567 4026 
Q 2313 4219 1838 4219 
Q 1578 4219 1281 4162 
Q 984 4106 628 3988 
L 628 4550 
Q 988 4650 1302 4700 
Q 1616 4750 1894 4750 
Q 2613 4750 3031 4423 
Q 3450 4097 3450 3541 
Q 3450 3153 3228 2886 
Q 3006 2619 2597 2516 
z
" transform="scale(0.015625)"/>
       </defs>
       <use xlink:href="#DejaVuSans-32"/>
       <use xlink:href="#DejaVuSans-30" x="63.623047"/>
       <use xlink:href="#DejaVuSans-31" x="127.246094"/>
       <use xlink:href="#DejaVuSans-33" x="190.869141"/>
       <use xlink:href="#DejaVuSans-2d" x="254.492188"/>
       <use xlink:href="#DejaVuSans-30" x="290.576172"/>
       <use xlink:href="#DejaVuSans-31" x="354.199219"/>
      </g>
     </g>
    </g>
    <g id="xtick_3">
     <g id="line2d_3">
      <g>
       <use xlink:href="#m360dcf3abc" x="1679.241979" y="961.2" style="stroke: #000000; stroke-width: 0.8"/>
      </g>
     </g>
     <g id="text_3">
      <!-- 2013-07 -->
      <g transform="translate(1637.459166 983.396875) scale(0.2 -0.2)">
       <use xlink:href="#DejaVuSans-32"/>
       <use xlink:href="#DejaVuSans-30" x="63.623047"/>
       <use xlink:href="#DejaVuSans-31" x="127.246094"/>
       <use xlink:href="#DejaVuSans-33" x="190.869141"/>
       <use xlink:href="#DejaVuSans-2d" x="254.492188"/>
       <use xlink:href="#DejaVuSans-30" x="290.576172"/>
       <use xlink:href="#DejaVuSans-37" x="354.199219"/>
      </g>
     </g>
    </g>
    <g id="xtick_4">
     <g id="line2d_4">
      <g>
       <use xlink:href="#m360dcf3abc" x="2050.993316" y="961.2" style="stroke: #000000; stroke-width: 0.8"/>
      </g>
     </g>
     <g id="text_4">
      <!-- 2014-01 -->
      <g transform="translate(2009.210503 983.396875) scale(0.2 -0.2)">
       <defs>
        <path id="DejaVuSans-34" d="M 2419 4116 
L 825 1625 
L 2419 1625 
L 2419 4116 
z
M 2253 4666 
L 3047 4666 
L 3047 1625 
L 3713 1625 
L 3713 1100 
L 3047 1100 
L 3047 0 
L 2419 0 
L 2419 1100 
L 313 1100 
L 313 1709 
L 2253 4666 
z
" transform="scale(0.015625)"/>
       </defs>
       <use xlink:href="#DejaVuSans-32"/>
       <use xlink:href="#DejaVuSans-30" x="63.623047"/>
       <use xlink:href="#DejaVuSans-31" x="127.246094"/>
       <use xlink:href="#DejaVuSans-34" x="190.869141"/>
       <use xlink:href="#DejaVuSans-2d" x="254.492188"/>
       <use xlink:href="#DejaVuSans-30" x="290.576172"/>
       <use xlink:href="#DejaVuSans-31" x="354.199219"/>
      </g>
     </g>
    </g>
    <g id="xtick_5">
     <g id="line2d_5">
      <g>
       <use xlink:href="#m360dcf3abc" x="2416.683489" y="961.2" style="stroke: #000000; stroke-width: 0.8"/>
      </g>
     </g>
     <g id="text_5">
      <!-- 2014-07 -->
      <g transform="translate(2374.900677 983.396875) scale(0.2 -0.2)">
       <use xlink:href="#DejaVuSans-32"/>
       <use xlink:href="#DejaVuSans-30" x="63.623047"/>
       <use xlink:href="#DejaVuSans-31" x="127.246094"/>
       <use xlink:href="#DejaVuSans-34" x="190.869141"/>
       <use xlink:href="#DejaVuSans-2d" x="254.492188"/>
       <use xlink:href="#DejaVuSans-30" x="290.576172"/>
       <use xlink:href="#DejaVuSans-37" x="354.199219"/>
      </g>
     </g>
    </g>
    <g id="xtick_6">
     <g id="line2d_6">
      <g>
       <use xlink:href="#m360dcf3abc" x="2788.434826" y="961.2" style="stroke: #000000; stroke-width: 0.8"/>
      </g>
     </g>
     <g id="text_6">
      <!-- 2015-01 -->
      <g transform="translate(2746.652014 983.396875) scale(0.2 -0.2)">
       <defs>
        <path id="DejaVuSans-35" d="M 691 4666 
L 3169 4666 
L 3169 4134 
L 1269 4134 
L 1269 2991 
Q 1406 3038 1543 3061 
Q 1681 3084 1819 3084 
Q 2600 3084 3056 2656 
Q 3513 2228 3513 1497 
Q 3513 744 3044 326 
Q 2575 -91 1722 -91 
Q 1428 -91 1123 -41 
Q 819 9 494 109 
L 494 744 
Q 775 591 1075 516 
Q 1375 441 1709 441 
Q 2250 441 2565 725 
Q 2881 1009 2881 1497 
Q 2881 1984 2565 2268 
Q 2250 2553 1709 2553 
Q 1456 2553 1204 2497 
Q 953 2441 691 2322 
L 691 4666 
z
" transform="scale(0.015625)"/>
       </defs>
       <use xlink:href="#DejaVuSans-32"/>
       <use xlink:href="#DejaVuSans-30" x="63.623047"/>
       <use xlink:href="#DejaVuSans-31" x="127.246094"/>
       <use xlink:href="#DejaVuSans-35" x="190.869141"/>
       <use xlink:href="#DejaVuSans-2d" x="254.492188"/>
       <use xlink:href="#DejaVuSans-30" x="290.576172"/>
       <use xlink:href="#DejaVuSans-31" x="354.199219"/>
      </g>
     </g>
    </g>
    <g id="xtick_7">
     <g id="line2d_7">
      <g>
       <use xlink:href="#m360dcf3abc" x="3154.125" y="961.2" style="stroke: #000000; stroke-width: 0.8"/>
      </g>
     </g>
     <g id="text_7">
      <!-- 2015-07 -->
      <g transform="translate(3112.342188 983.396875) scale(0.2 -0.2)">
       <use xlink:href="#DejaVuSans-32"/>
       <use xlink:href="#DejaVuSans-30" x="63.623047"/>
       <use xlink:href="#DejaVuSans-31" x="127.246094"/>
       <use xlink:href="#DejaVuSans-35" x="190.869141"/>
       <use xlink:href="#DejaVuSans-2d" x="254.492188"/>
       <use xlink:href="#DejaVuSans-30" x="290.576172"/>
       <use xlink:href="#DejaVuSans-37" x="354.199219"/>
      </g>
     </g>
    </g>
    <g id="xtick_8">
     <g id="line2d_8">
      <g>
       <use xlink:href="#m360dcf3abc" x="3525.876337" y="961.2" style="stroke: #000000; stroke-width: 0.8"/>
      </g>
     </g>
     <g id="text_8">
      <!-- 2016-01 -->
      <g transform="translate(3484.093524 983.396875) scale(0.2 -0.2)">
       <defs>
        <path id="DejaVuSans-36" d="M 2113 2584 
Q 1688 2584 1439 2293 
Q 1191 2003 1191 1497 
Q 1191 994 1439 701 
Q 1688 409 2113 409 
Q 2538 409 2786 701 
Q 3034 994 3034 1497 
Q 3034 2003 2786 2293 
Q 2538 2584 2113 2584 
z
M 3366 4563 
L 3366 3988 
Q 3128 4100 2886 4159 
Q 2644 4219 2406 4219 
Q 1781 4219 1451 3797 
Q 1122 3375 1075 2522 
Q 1259 2794 1537 2939 
Q 1816 3084 2150 3084 
Q 2853 3084 3261 2657 
Q 3669 2231 3669 1497 
Q 3669 778 3244 343 
Q 2819 -91 2113 -91 
Q 1303 -91 875 529 
Q 447 1150 447 2328 
Q 447 3434 972 4092 
Q 1497 4750 2381 4750 
Q 2619 4750 2861 4703 
Q 3103 4656 3366 4563 
z
" transform="scale(0.015625)"/>
       </defs>
       <use xlink:href="#DejaVuSans-32"/>
       <use xlink:href="#DejaVuSans-30" x="63.623047"/>
       <use xlink:href="#DejaVuSans-31" x="127.246094"/>
       <use xlink:href="#DejaVuSans-36" x="190.869141"/>
       <use xlink:href="#DejaVuSans-2d" x="254.492188"/>
       <use xlink:href="#DejaVuSans-30" x="290.576172"/>
       <use xlink:href="#DejaVuSans-31" x="354.199219"/>
      </g>
     </g>
    </g>
    <g id="xtick_9">
     <g id="line2d_9">
      <g>
       <use xlink:href="#m360dcf3abc" x="3893.586898" y="961.2" style="stroke: #000000; stroke-width: 0.8"/>
      </g>
     </g>
     <g id="text_9">
      <!-- 2016-07 -->
      <g transform="translate(3851.804086 983.396875) scale(0.2 -0.2)">
       <use xlink:href="#DejaVuSans-32"/>
       <use xlink:href="#DejaVuSans-30" x="63.623047"/>
       <use xlink:href="#DejaVuSans-31" x="127.246094"/>
       <use xlink:href="#DejaVuSans-36" x="190.869141"/>
       <use xlink:href="#DejaVuSans-2d" x="254.492188"/>
       <use xlink:href="#DejaVuSans-30" x="290.576172"/>
       <use xlink:href="#DejaVuSans-37" x="354.199219"/>
      </g>
     </g>
    </g>
    <g id="text_10">
     <!-- Time -->
     <g transform="translate(2374.032813 1006.753125) scale(0.2 -0.2)">
      <defs>
       <path id="DejaVuSans-54" d="M -19 4666 
L 3928 4666 
L 3928 4134 
L 2272 4134 
L 2272 0 
L 1638 0 
L 1638 4134 
L -19 4134 
L -19 4666 
z
" transform="scale(0.015625)"/>
       <path id="DejaVuSans-69" d="M 603 3500 
L 1178 3500 
L 1178 0 
L 603 0 
L 603 3500 
z
M 603 4863 
L 1178 4863 
L 1178 4134 
L 603 4134 
L 603 4863 
z
" transform="scale(0.015625)"/>
       <path id="DejaVuSans-6d" d="M 3328 2828 
Q 3544 3216 3844 3400 
Q 4144 3584 4550 3584 
Q 5097 3584 5394 3201 
Q 5691 2819 5691 2113 
L 5691 0 
L 5113 0 
L 5113 2094 
Q 5113 2597 4934 2840 
Q 4756 3084 4391 3084 
Q 3944 3084 3684 2787 
Q 3425 2491 3425 1978 
L 3425 0 
L 2847 0 
L 2847 2094 
Q 2847 2600 2669 2842 
Q 2491 3084 2119 3084 
Q 1678 3084 1418 2786 
Q 1159 2488 1159 1978 
L 1159 0 
L 581 0 
L 581 3500 
L 1159 3500 
L 1159 2956 
Q 1356 3278 1631 3431 
Q 1906 3584 2284 3584 
Q 2666 3584 2933 3390 
Q 3200 3197 3328 2828 
z
" transform="scale(0.015625)"/>
       <path id="DejaVuSans-65" d="M 3597 1894 
L 3597 1613 
L 953 1613 
Q 991 1019 1311 708 
Q 1631 397 2203 397 
Q 2534 397 2845 478 
Q 3156 559 3463 722 
L 3463 178 
Q 3153 47 2828 -22 
Q 2503 -91 2169 -91 
Q 1331 -91 842 396 
Q 353 884 353 1716 
Q 353 2575 817 3079 
Q 1281 3584 2069 3584 
Q 2775 3584 3186 3129 
Q 3597 2675 3597 1894 
z
M 3022 2063 
Q 3016 2534 2758 2815 
Q 2500 3097 2075 3097 
Q 1594 3097 1305 2825 
Q 1016 2553 972 2059 
L 3022 2063 
z
" transform="scale(0.015625)"/>
      </defs>
      <use xlink:href="#DejaVuSans-54"/>
      <use xlink:href="#DejaVuSans-69" x="57.958984"/>
      <use xlink:href="#DejaVuSans-6d" x="85.742188"/>
      <use xlink:href="#DejaVuSans-65" x="183.154297"/>
     </g>
    </g>
   </g>
   <g id="matplotlib.axis_2">
    <g id="ytick_1">
     <g id="line2d_10">
      <defs>
       <path id="m6026021852" d="M 0 0 
L -3.5 0 
" style="stroke: #000000; stroke-width: 0.8"/>
      </defs>
      <g>
       <use xlink:href="#m6026021852" x="585" y="958.098895" style="stroke: #000000; stroke-width: 0.8"/>
      </g>
     </g>
     <g id="text_11">
      <!-- −0.006 -->
      <g transform="translate(503.984375 965.697333) scale(0.2 -0.2)">
       <defs>
        <path id="DejaVuSans-2212" d="M 678 2272 
L 4684 2272 
L 4684 1741 
L 678 1741 
L 678 2272 
z
" transform="scale(0.015625)"/>
        <path id="DejaVuSans-2e" d="M 684 794 
L 1344 794 
L 1344 0 
L 684 0 
L 684 794 
z
" transform="scale(0.015625)"/>
       </defs>
       <use xlink:href="#DejaVuSans-2212"/>
       <use xlink:href="#DejaVuSans-30" x="83.789062"/>
       <use xlink:href="#DejaVuSans-2e" x="147.412109"/>
       <use xlink:href="#DejaVuSans-30" x="179.199219"/>
       <use xlink:href="#DejaVuSans-30" x="242.822266"/>
       <use xlink:href="#DejaVuSans-36" x="306.445312"/>
      </g>
     </g>
    </g>
    <g id="ytick_2">
     <g id="line2d_11">
      <g>
       <use xlink:href="#m6026021852" x="585" y="809.538481" style="stroke: #000000; stroke-width: 0.8"/>
      </g>
     </g>
     <g id="text_12">
      <!-- −0.004 -->
      <g transform="translate(503.984375 817.136919) scale(0.2 -0.2)">
       <use xlink:href="#DejaVuSans-2212"/>
       <use xlink:href="#DejaVuSans-30" x="83.789062"/>
       <use xlink:href="#DejaVuSans-2e" x="147.412109"/>
       <use xlink:href="#DejaVuSans-30" x="179.199219"/>
       <use xlink:href="#DejaVuSans-30" x="242.822266"/>
       <use xlink:href="#DejaVuSans-34" x="306.445312"/>
      </g>
     </g>
    </g>
    <g id="ytick_3">
     <g id="line2d_12">
      <g>
       <use xlink:href="#m6026021852" x="585" y="660.978067" style="stroke: #000000; stroke-width: 0.8"/>
      </g>
     </g>
     <g id="text_13">
      <!-- −0.002 -->
      <g transform="translate(503.984375 668.576505) scale(0.2 -0.2)">
       <use xlink:href="#DejaVuSans-2212"/>
       <use xlink:href="#DejaVuSans-30" x="83.789062"/>
       <use xlink:href="#DejaVuSans-2e" x="147.412109"/>
       <use xlink:href="#DejaVuSans-30" x="179.199219"/>
       <use xlink:href="#DejaVuSans-30" x="242.822266"/>
       <use xlink:href="#DejaVuSans-32" x="306.445312"/>
      </g>
     </g>
    </g>
    <g id="ytick_4">
     <g id="line2d_13">
      <g>
       <use xlink:href="#m6026021852" x="585" y="512.417654" style="stroke: #000000; stroke-width: 0.8"/>
      </g>
     </g>
     <g id="text_14">
      <!-- 0.000 -->
      <g transform="translate(520.74375 520.016091) scale(0.2 -0.2)">
       <use xlink:href="#DejaVuSans-30"/>
       <use xlink:href="#DejaVuSans-2e" x="63.623047"/>
       <use xlink:href="#DejaVuSans-30" x="95.410156"/>
       <use xlink:href="#DejaVuSans-30" x="159.033203"/>
       <use xlink:href="#DejaVuSans-30" x="222.65625"/>
      </g>
     </g>
    </g>
    <g id="ytick_5">
     <g id="line2d_14">
      <g>
       <use xlink:href="#m6026021852" x="585" y="363.85724" style="stroke: #000000; stroke-width: 0.8"/>
      </g>
     </g>
     <g id="text_15">
      <!-- 0.002 -->
      <g transform="translate(520.74375 371.455677) scale(0.2 -0.2)">
       <use xlink:href="#DejaVuSans-30"/>
       <use xlink:href="#DejaVuSans-2e" x="63.623047"/>
       <use xlink:href="#DejaVuSans-30" x="95.410156"/>
       <use xlink:href="#DejaVuSans-30" x="159.033203"/>
       <use xlink:href="#DejaVuSans-32" x="222.65625"/>
      </g>
     </g>
    </g>
    <g id="ytick_6">
     <g id="line2d_15">
      <g>
       <use xlink:href="#m6026021852" x="585" y="215.296826" style="stroke: #000000; stroke-width: 0.8"/>
      </g>
     </g>
     <g id="text_16">
      <!-- 0.004 -->
      <g transform="translate(520.74375 222.895263) scale(0.2 -0.2)">
       <use xlink:href="#DejaVuSans-30"/>
       <use xlink:href="#DejaVuSans-2e" x="63.623047"/>
       <use xlink:href="#DejaVuSans-30" x="95.410156"/>
       <use xlink:href="#DejaVuSans-30" x="159.033203"/>
       <use xlink:href="#DejaVuSans-34" x="222.65625"/>
      </g>
     </g>
    </g>
    <g id="text_17">
     <!-- East(m) -->
     <g transform="translate(495.825 584.520313) rotate(-90) scale(0.2 -0.2)">
      <defs>
       <path id="DejaVuSans-45" d="M 628 4666 
L 3578 4666 
L 3578 4134 
L 1259 4134 
L 1259 2753 
L 3481 2753 
L 3481 2222 
L 1259 2222 
L 1259 531 
L 3634 531 
L 3634 0 
L 628 0 
L 628 4666 
z
" transform="scale(0.015625)"/>
       <path id="DejaVuSans-61" d="M 2194 1759 
Q 1497 1759 1228 1600 
Q 959 1441 959 1056 
Q 959 750 1161 570 
Q 1363 391 1709 391 
Q 2188 391 2477 730 
Q 2766 1069 2766 1631 
L 2766 1759 
L 2194 1759 
z
M 3341 1997 
L 3341 0 
L 2766 0 
L 2766 531 
Q 2569 213 2275 61 
Q 1981 -91 1556 -91 
Q 1019 -91 701 211 
Q 384 513 384 1019 
Q 384 1609 779 1909 
Q 1175 2209 1959 2209 
L 2766 2209 
L 2766 2266 
Q 2766 2663 2505 2880 
Q 2244 3097 1772 3097 
Q 1472 3097 1187 3025 
Q 903 2953 641 2809 
L 641 3341 
Q 956 3463 1253 3523 
Q 1550 3584 1831 3584 
Q 2591 3584 2966 3190 
Q 3341 2797 3341 1997 
z
" transform="scale(0.015625)"/>
       <path id="DejaVuSans-73" d="M 2834 3397 
L 2834 2853 
Q 2591 2978 2328 3040 
Q 2066 3103 1784 3103 
Q 1356 3103 1142 2972 
Q 928 2841 928 2578 
Q 928 2378 1081 2264 
Q 1234 2150 1697 2047 
L 1894 2003 
Q 2506 1872 2764 1633 
Q 3022 1394 3022 966 
Q 3022 478 2636 193 
Q 2250 -91 1575 -91 
Q 1294 -91 989 -36 
Q 684 19 347 128 
L 347 722 
Q 666 556 975 473 
Q 1284 391 1588 391 
Q 1994 391 2212 530 
Q 2431 669 2431 922 
Q 2431 1156 2273 1281 
Q 2116 1406 1581 1522 
L 1381 1569 
Q 847 1681 609 1914 
Q 372 2147 372 2553 
Q 372 3047 722 3315 
Q 1072 3584 1716 3584 
Q 2034 3584 2315 3537 
Q 2597 3491 2834 3397 
z
" transform="scale(0.015625)"/>
       <path id="DejaVuSans-74" d="M 1172 4494 
L 1172 3500 
L 2356 3500 
L 2356 3053 
L 1172 3053 
L 1172 1153 
Q 1172 725 1289 603 
Q 1406 481 1766 481 
L 2356 481 
L 2356 0 
L 1766 0 
Q 1100 0 847 248 
Q 594 497 594 1153 
L 594 3053 
L 172 3053 
L 172 3500 
L 594 3500 
L 594 4494 
L 1172 4494 
z
" transform="scale(0.015625)"/>
       <path id="DejaVuSans-28" d="M 1984 4856 
Q 1566 4138 1362 3434 
Q 1159 2731 1159 2009 
Q 1159 1288 1364 580 
Q 1569 -128 1984 -844 
L 1484 -844 
Q 1016 -109 783 600 
Q 550 1309 550 2009 
Q 550 2706 781 3412 
Q 1013 4119 1484 4856 
L 1984 4856 
z
" transform="scale(0.015625)"/>
       <path id="DejaVuSans-29" d="M 513 4856 
L 1013 4856 
Q 1481 4119 1714 3412 
Q 1947 2706 1947 2009 
Q 1947 1309 1714 600 
Q 1481 -109 1013 -844 
L 513 -844 
Q 928 -128 1133 580 
Q 1338 1288 1338 2009 
Q 1338 2731 1133 3434 
Q 928 4138 513 4856 
z
" transform="scale(0.015625)"/>
      </defs>
      <use xlink:href="#DejaVuSans-45"/>
      <use xlink:href="#DejaVuSans-61" x="63.183594"/>
      <use xlink:href="#DejaVuSans-73" x="124.462891"/>
      <use xlink:href="#DejaVuSans-74" x="176.5625"/>
      <use xlink:href="#DejaVuSans-28" x="215.771484"/>
      <use xlink:href="#DejaVuSans-6d" x="254.785156"/>
      <use xlink:href="#DejaVuSans-29" x="352.197266"/>
     </g>
    </g>
   </g>
   <g id="line2d_16">
    <path d="M 749.863636 652.971429 
L 753.904412 702.819471 
L 755.924799 711.974637 
L 761.985963 684.440574 
L 764.00635 676.743405 
L 766.026738 656.322009 
L 768.047126 638.561084 
L 770.067513 632.247863 
L 772.087901 632.691044 
L 774.108289 632.392673 
L 776.128676 632.220451 
L 790.27139 631.756591 
L 792.291778 586.899056 
L 794.312166 528.500901 
L 798.352941 494.60928 
L 800.373329 482.779389 
L 802.393717 488.062669 
L 806.434492 504.433616 
L 808.45488 542.28003 
L 810.475267 541.011731 
L 812.495655 552.466731 
L 824.617981 544.86988 
L 830.679144 526.246272 
L 832.699532 526.717829 
L 834.71992 516.682116 
L 836.740307 511.362251 
L 844.821858 544.119989 
L 850.883021 566.406936 
L 852.903409 559.873509 
L 854.923797 564.791528 
L 856.944184 544.464977 
L 860.98496 536.178129 
L 863.005348 521.793686 
L 865.025735 516.975379 
L 867.046123 537.266603 
L 869.066511 521.955295 
L 873.107286 509.761766 
L 875.127674 490.403887 
L 877.148061 492.669021 
L 879.168449 494.688069 
L 885.229612 501.366463 
L 889.270388 560.85684 
L 891.290775 570.42111 
L 893.311163 578.005533 
L 895.331551 578.511918 
L 897.351939 579.703459 
L 899.372326 590.133342 
L 901.392714 579.891124 
L 903.413102 570.878323 
L 905.433489 584.521117 
L 907.453877 572.218164 
L 909.474265 568.285051 
L 913.51504 560.102582 
L 915.535428 558.505773 
L 917.555816 560.194284 
L 921.596591 558.464096 
L 933.718917 676.7193 
L 937.759693 682.92449 
L 1044.840241 751.495154 
L 1046.860628 730.989261 
L 1048.881016 732.46553 
L 1212.53242 522.739185 
L 1214.552807 497.00782 
L 1216.573195 478.579405 
L 1226.675134 449.037168 
L 1230.715909 460.577573 
L 1232.736297 457.156232 
L 1234.756684 469.171349 
L 1236.777072 485.255435 
L 1238.79746 520.03217 
L 1240.817848 526.496589 
L 1242.838235 525.949497 
L 1333.755682 586.023538 
L 1335.77607 563.959178 
L 1337.796457 560.046442 
L 1341.837233 567.395106 
L 1372.143048 598.204166 
L 1374.163436 610.526358 
L 1376.183824 628.934155 
L 1378.204211 642.817297 
L 1382.244987 644.987702 
L 1384.265374 646.530762 
L 1388.30615 636.84616 
L 1390.326537 625.565828 
L 1392.346925 605.064882 
L 1394.367313 596.855864 
L 1402.448864 573.763994 
L 1404.469251 578.788731 
L 1406.489639 598.278055 
L 1412.550802 658.038693 
L 1414.57119 672.933019 
L 1416.591578 670.85298 
L 1418.611965 686.005498 
L 1420.632353 691.855544 
L 1424.673128 693.435818 
L 1426.693516 700.798802 
L 1428.713904 693.299464 
L 1432.754679 691.399542 
L 1434.775067 697.629358 
L 1436.795455 685.231569 
L 1444.877005 647.361924 
L 1446.897393 635.682501 
L 1454.978944 645.479019 
L 1456.999332 670.646067 
L 1459.019719 669.195826 
L 1461.040107 652.655119 
L 1463.060495 628.488197 
L 1465.080882 619.191218 
L 1469.121658 614.462885 
L 1471.142045 622.090537 
L 1473.162433 609.198948 
L 1475.182821 618.114046 
L 1479.223596 651.401349 
L 1481.243984 655.861064 
L 1483.264372 656.027574 
L 1485.284759 641.148255 
L 1487.305147 662.824727 
L 1489.325535 679.565608 
L 1491.345922 653.140729 
L 1493.36631 623.828162 
L 1495.386698 612.825047 
L 1497.407086 598.27399 
L 1501.447861 571.948084 
L 1669.14004 620.591759 
L 1673.180816 623.779231 
L 1677.221591 613.748895 
L 1681.262366 602.640497 
L 1683.282754 604.18704 
L 1689.343917 692.159685 
L 1691.364305 719.006254 
L 1693.384693 725.174521 
L 1697.425468 733.395647 
L 1699.445856 713.158572 
L 1701.466243 706.720183 
L 1703.486631 692.227973 
L 1705.507019 673.85453 
L 1707.527406 703.904236 
L 1719.649733 774.515409 
L 1723.690508 744.726226 
L 1725.710896 723.740497 
L 1727.731283 712.360798 
L 1729.751671 702.273377 
L 1731.772059 711.34111 
L 1735.812834 759.361084 
L 1737.833222 777.37012 
L 1739.85361 787.91592 
L 1741.873997 785.846575 
L 1743.894385 775.827866 
L 1749.955548 811.179827 
L 1751.975936 788.252047 
L 1753.996324 798.392626 
L 1756.016711 810.949623 
L 1758.037099 835.586958 
L 1766.11865 816.695647 
L 1768.139037 831.58234 
L 1780.261364 846.809222 
L 1782.281751 818.257681 
L 1784.302139 834.384128 
L 1786.322527 858.423531 
L 1788.342914 871.265054 
L 1790.363302 881.053668 
L 1792.38369 868.105757 
L 1794.404078 861.186099 
L 1796.424465 865.173265 
L 1806.526404 849.375702 
L 1808.546791 835.811885 
L 1810.567179 834.916074 
L 1812.587567 827.143958 
L 1814.607955 836.772719 
L 1816.628342 816.418838 
L 1818.64873 815.21496 
L 1822.689505 831.506617 
L 1824.709893 853.995697 
L 1826.730281 865.442718 
L 1828.750668 872.65008 
L 1830.771056 883.878267 
L 1832.791444 888.090408 
L 1834.811832 904.569647 
L 1836.832219 905.381683 
L 1838.852607 923.4 
L 1954.014706 799.587992 
L 1958.055481 775.708746 
L 1960.075869 771.601628 
L 1962.096257 744.761302 
L 1964.116644 713.849417 
L 1966.137032 724.427358 
L 1968.15742 725.181513 
L 1970.177807 758.438148 
L 1980.279746 862.635276 
L 1982.300134 851.356702 
L 1988.361297 813.434423 
L 1990.381684 779.269227 
L 1992.402072 763.136941 
L 1994.42246 762.795418 
L 1996.442848 767.731619 
L 2000.483623 742.484875 
L 2073.21758 714.534306 
L 2075.237968 732.206847 
L 2079.278743 752.952284 
L 2081.299131 720.364842 
L 2109.584559 619.319651 
L 2438.907754 846.157772 
L 2440.928142 849.143347 
L 2442.948529 836.210727 
L 2444.968917 804.955434 
L 2449.009693 827.361051 
L 2467.193182 903.363053 
L 3178.369652 292.262343 
L 3180.39004 306.685108 
L 3182.410428 286.619173 
L 3184.430816 243.125955 
L 3186.451203 235.20075 
L 3188.471591 252.127383 
L 3194.532754 278.593453 
L 3206.65508 362.125616 
L 3210.695856 360.870557 
L 3212.716243 328.380697 
L 3214.736631 354.47247 
L 3216.757019 320.530517 
L 3220.797794 285.578131 
L 3228.879345 255.797393 
L 3230.899733 275.113648 
L 3253.123997 340.014026 
L 3257.164773 348.098375 
L 3261.205548 345.385748 
L 3265.246324 310.672342 
L 3267.266711 325.945812 
L 3269.287099 304.665064 
L 3277.36865 307.298856 
L 3285.450201 333.207546 
L 3287.470588 354.354189 
L 3289.490976 328.830396 
L 3291.511364 330.281658 
L 3293.531751 316.578178 
L 3295.552139 298.0255 
L 3297.572527 298.41619 
L 3299.592914 286.250432 
L 3301.613302 277.413424 
L 3303.63369 281.913535 
L 3309.694853 284.841415 
L 3315.756016 260.970016 
L 3317.776404 275.841873 
L 3319.796791 271.091097 
L 3321.817179 254.079331 
L 3323.837567 258.651798 
L 3325.857955 275.820993 
L 3327.878342 284.018049 
L 3329.89873 274.899408 
L 3331.919118 262.443792 
L 3340.000668 292.649078 
L 3342.021056 294.912602 
L 3344.041444 296.926238 
L 3346.061832 313.225449 
L 3348.082219 316.193115 
L 3350.102607 323.358293 
L 3352.122995 340.568453 
L 3354.143382 337.65458 
L 3356.16377 350.80853 
L 3358.184158 343.49202 
L 3360.204545 322.180751 
L 3362.224933 297.715965 
L 3364.245321 288.15916 
L 3366.265709 275.95723 
L 3368.286096 274.52013 
L 3370.306484 262.8031 
L 3372.326872 276.134971 
L 3374.347259 291.814926 
L 3376.367647 313.397645 
L 3400.612299 289.112678 
L 3402.632687 287.431264 
L 3404.653075 283.777793 
L 3406.673463 289.456808 
L 3410.714238 267.658349 
L 3412.734626 277.167389 
L 3414.755013 273.285727 
L 3416.775401 280.374077 
L 3418.795789 278.330989 
L 3420.816176 281.07718 
L 3422.836564 264.796225 
L 3424.856952 282.271432 
L 3426.87734 291.701238 
L 3428.897727 296.002737 
L 3430.918115 303.60204 
L 3432.938503 320.284411 
L 3434.95889 322.615013 
L 3436.979278 319.231412 
L 3438.999666 277.709301 
L 3441.020053 244.394183 
L 3443.040441 248.693304 
L 3447.081217 208.561662 
L 3449.101604 195.108039 
L 3451.121992 224.980441 
L 3453.14238 276.245933 
L 3455.162767 314.887114 
L 3457.183155 303.544389 
L 3459.203543 321.761297 
L 3461.22393 328.737109 
L 3463.244318 336.192139 
L 3465.264706 334.752741 
L 3467.285094 333.075696 
L 3469.305481 315.4516 
L 3471.325869 308.44093 
L 3473.346257 299.566959 
L 3475.366644 287.405536 
L 3477.387032 273.568428 
L 3479.40742 269.925068 
L 3481.427807 260.772473 
L 3483.448195 293.956688 
L 3485.468583 315.471218 
L 3487.488971 315.361317 
L 3489.509358 316.962778 
L 3491.529746 320.669322 
L 3493.550134 318.897299 
L 3497.590909 291.474638 
L 3499.611297 283.435152 
L 3501.631684 283.332617 
L 3503.652072 307.2631 
L 3505.67246 320.642287 
L 3507.692848 329.952133 
L 3509.713235 334.278243 
L 3511.733623 328.790171 
L 3513.754011 331.087079 
L 3515.774398 331.138827 
L 3517.794786 322.331682 
L 3519.815174 319.097284 
L 3521.835561 312.440918 
L 3523.855949 317.847644 
L 3527.896725 315.468479 
L 3529.917112 310.010853 
L 3531.9375 310.909702 
L 3533.957888 310.290394 
L 3535.978275 307.619245 
L 3537.998663 322.353502 
L 3540.019051 311.459303 
L 3542.039439 309.896165 
L 3544.059826 304.685609 
L 3548.100602 301.691556 
L 3550.120989 298.167762 
L 3552.141377 276.18801 
L 3554.161765 291.193338 
L 3556.182152 294.658505 
L 3558.20254 295.043431 
L 3560.222928 294.287954 
L 3562.243316 283.711811 
L 3564.263703 282.969458 
L 3566.284091 270.412962 
L 3568.304479 258.766258 
L 3570.324866 261.831185 
L 3572.345254 253.102979 
L 3582.447193 330.572578 
L 3584.46758 332.02826 
L 3586.487968 332.171923 
L 3590.528743 330.401107 
L 3592.549131 349.349344 
L 3594.569519 331.51837 
L 3596.589906 317.860026 
L 3598.610294 310.780628 
L 3600.630682 335.821714 
L 3602.65107 332.28733 
L 3604.671457 304.202378 
L 3647.099599 252.135683 
L 3649.119987 258.552865 
L 3653.160762 252.197432 
L 3659.221925 203.943149 
L 3661.242313 185.585096 
L 3663.262701 171.775268 
L 3665.283088 167.4 
L 3667.303476 172.423269 
L 3669.323864 172.7787 
L 3671.344251 196.582449 
L 3673.364639 210.217128 
L 3675.385027 209.72522 
L 3677.405414 221.770138 
L 3679.425802 239.111654 
L 3681.44619 242.294899 
L 3683.466578 242.823965 
L 3685.486965 249.640999 
L 3687.507353 235.759269 
L 3689.527741 224.880774 
L 3691.548128 219.423046 
L 3693.568516 202.22315 
L 3695.588904 201.499621 
L 3697.609291 193.302149 
L 3703.670455 246.075471 
L 3705.690842 251.207017 
L 3707.71123 253.91157 
L 3711.752005 272.863431 
L 3713.772393 284.229227 
L 3715.792781 243.788538 
L 3717.813168 262.497652 
L 3719.833556 256.343043 
L 3721.853944 248.723483 
L 3723.874332 248.283651 
L 3725.894719 259.020782 
L 3727.915107 259.169611 
L 3729.935495 275.810993 
L 3733.97627 248.414159 
L 3735.996658 258.875832 
L 3740.037433 223.130315 
L 3744.078209 233.061561 
L 3746.098596 248.612259 
L 3748.118984 256.152067 
L 3750.139372 247.346562 
L 3752.159759 269.397867 
L 3756.200535 297.876439 
L 3758.220922 285.110615 
L 3760.24131 259.469602 
L 3762.261698 258.405508 
L 3764.282086 260.400838 
L 3766.302473 231.511837 
L 3768.322861 218.205713 
L 3772.363636 200.739773 
L 3774.384024 209.025463 
L 3776.404412 233.484321 
L 3778.424799 249.822219 
L 3780.445187 250.406209 
L 3786.50635 233.960755 
L 3788.526738 265.166584 
L 3790.547126 255.85081 
L 3792.567513 264.703134 
L 3794.587901 301.878553 
L 3796.608289 331.279601 
L 3798.628676 364.67436 
L 3952.178142 400.904555 
L 3954.198529 393.132308 
L 3956.218917 380.178768 
L 3958.239305 392.945088 
L 3960.259693 371.385177 
L 3970.361631 379.131642 
L 3972.382019 390.843582 
L 3978.443182 414.558714 
L 3980.46357 394.479626 
L 3982.483957 376.51384 
L 3984.504345 361.579739 
L 3986.524733 326.809631 
L 3988.54512 311.008946 
L 3990.565508 318.426489 
L 3996.626671 366.991982 
L 4002.687834 369.29347 
L 4004.708222 394.416342 
L 4006.72861 376.665607 
L 4008.748997 377.05096 
L 4010.769385 376.827263 
L 4014.81016 401.416756 
L 4016.830548 399.452068 
L 4018.850936 394.256812 
L 4020.871324 410.460687 
L 4030.973262 423.817209 
L 4032.99365 411.658334 
L 4035.014037 425.077489 
L 4037.034425 431.984985 
L 4039.054813 435.328575 
L 4041.075201 438.415459 
L 4043.095588 455.097762 
L 4045.115976 412.851499 
L 4047.136364 417.498678 
L 4047.136364 417.498678 
" clip-path="url(#p76ee3d75c2)" style="fill: none; stroke: #ffc400; stroke-width: 2.5; stroke-linecap: square"/>
   </g>
   <g id="patch_3">
    <path d="M 585 961.2 
L 585 129.6 
" style="fill: none; stroke: #000000; stroke-width: 0.8; stroke-linejoin: miter; stroke-linecap: square"/>
   </g>
   <g id="patch_4">
    <path d="M 4212 961.2 
L 4212 129.6 
" style="fill: none; stroke: #000000; stroke-width: 0.8; stroke-linejoin: miter; stroke-linecap: square"/>
   </g>
   <g id="patch_5">
    <path d="M 585 961.2 
L 4212 961.2 
" style="fill: none; stroke: #000000; stroke-width: 0.8; stroke-linejoin: miter; stroke-linecap: square"/>
   </g>
   <g id="patch_6">
    <path d="M 585 129.6 
L 4212 129.6 
" style="fill: none; stroke: #000000; stroke-width: 0.8; stroke-linejoin: miter; stroke-linecap: square"/>
   </g>
   <g id="text_18">
    <!-- ROVR -->
    <g transform="translate(2355.848437 123.360937) scale(0.3 -0.3)">
     <defs>
      <path id="DejaVuSans-52" d="M 2841 2188 
Q 3044 2119 3236 1894 
Q 3428 1669 3622 1275 
L 4263 0 
L 3584 0 
L 2988 1197 
Q 2756 1666 2539 1819 
Q 2322 1972 1947 1972 
L 1259 1972 
L 1259 0 
L 628 0 
L 628 4666 
L 2053 4666 
Q 2853 4666 3247 4331 
Q 3641 3997 3641 3322 
Q 3641 2881 3436 2590 
Q 3231 2300 2841 2188 
z
M 1259 4147 
L 1259 2491 
L 2053 2491 
Q 2509 2491 2742 2702 
Q 2975 2913 2975 3322 
Q 2975 3731 2742 3939 
Q 2509 4147 2053 4147 
L 1259 4147 
z
" transform="scale(0.015625)"/>
      <path id="DejaVuSans-4f" d="M 2522 4238 
Q 1834 4238 1429 3725 
Q 1025 3213 1025 2328 
Q 1025 1447 1429 934 
Q 1834 422 2522 422 
Q 3209 422 3611 934 
Q 4013 1447 4013 2328 
Q 4013 3213 3611 3725 
Q 3209 4238 2522 4238 
z
M 2522 4750 
Q 3503 4750 4090 4092 
Q 4678 3434 4678 2328 
Q 4678 1225 4090 567 
Q 3503 -91 2522 -91 
Q 1538 -91 948 565 
Q 359 1222 359 2328 
Q 359 3434 948 4092 
Q 1538 4750 2522 4750 
z
" transform="scale(0.015625)"/>
      <path id="DejaVuSans-56" d="M 1831 0 
L 50 4666 
L 709 4666 
L 2188 738 
L 3669 4666 
L 4325 4666 
L 2547 0 
L 1831 0 
z
" transform="scale(0.015625)"/>
     </defs>
     <use xlink:href="#DejaVuSans-52"/>
     <use xlink:href="#DejaVuSans-4f" x="69.482422"/>
     <use xlink:href="#DejaVuSans-56" x="146.443359"/>
     <use xlink:href="#DejaVuSans-52" x="214.851562"/>
    </g>
   </g>
   <g id="legend_1">
    <g id="patch_7">
     <path d="M 4152.965625 152.278125 
L 4205 152.278125 
Q 4207 152.278125 4207 150.278125 
L 4207 136.6 
Q 4207 134.6 4205 134.6 
L 4152.965625 134.6 
Q 4150.965625 134.6 4150.965625 136.6 
L 4150.965625 150.278125 
Q 4150.965625 152.278125 4152.965625 152.278125 
z
" style="fill: #ffffff; opacity: 0.8; stroke: #cccccc; stroke-linejoin: miter"/>
    </g>
    <g id="line2d_17">
     <path d="M 4154.965625 142.698438 
L 4164.965625 142.698438 
L 4174.965625 142.698438 
" style="fill: none; stroke: #ffc400; stroke-width: 2.5; stroke-linecap: square"/>
    </g>
    <g id="text_19">
     <!-- rovr -->
     <g transform="translate(4182.965625 146.198438) scale(0.1 -0.1)">
      <defs>
       <path id="DejaVuSans-72" d="M 2631 2963 
Q 2534 3019 2420 3045 
Q 2306 3072 2169 3072 
Q 1681 3072 1420 2755 
Q 1159 2438 1159 1844 
L 1159 0 
L 581 0 
L 581 3500 
L 1159 3500 
L 1159 2956 
Q 1341 3275 1631 3429 
Q 1922 3584 2338 3584 
Q 2397 3584 2469 3576 
Q 2541 3569 2628 3553 
L 2631 2963 
z
" transform="scale(0.015625)"/>
       <path id="DejaVuSans-6f" d="M 1959 3097 
Q 1497 3097 1228 2736 
Q 959 2375 959 1747 
Q 959 1119 1226 758 
Q 1494 397 1959 397 
Q 2419 397 2687 759 
Q 2956 1122 2956 1747 
Q 2956 2369 2687 2733 
Q 2419 3097 1959 3097 
z
M 1959 3584 
Q 2709 3584 3137 3096 
Q 3566 2609 3566 1747 
Q 3566 888 3137 398 
Q 2709 -91 1959 -91 
Q 1206 -91 779 398 
Q 353 888 353 1747 
Q 353 2609 779 3096 
Q 1206 3584 1959 3584 
z
" transform="scale(0.015625)"/>
       <path id="DejaVuSans-76" d="M 191 3500 
L 800 3500 
L 1894 563 
L 2988 3500 
L 3597 3500 
L 2284 0 
L 1503 0 
L 191 3500 
z
" transform="scale(0.015625)"/>
      </defs>
      <use xlink:href="#DejaVuSans-72"/>
      <use xlink:href="#DejaVuSans-6f" x="38.863281"/>
      <use xlink:href="#DejaVuSans-76" x="100.044922"/>
      <use xlink:href="#DejaVuSans-72" x="159.224609"/>
     </g>
    </g>
   </g>
  </g>
 </g>
 <defs>
  <clipPath id="p76ee3d75c2">
   <rect x="585" y="129.6" width="3627" height="831.6"/>
  </clipPath>
 </defs>
</svg>
