<?xml version="1.0" encoding="utf-8" standalone="no"?>
<!DOCTYPE svg PUBLIC "-//W3C//DTD SVG 1.1//EN"
  "http://www.w3.org/Graphics/SVG/1.1/DTD/svg11.dtd">
<svg xmlns:xlink="http://www.w3.org/1999/xlink" width="4680pt" height="1080pt" viewBox="0 0 4680 1080" xmlns="http://www.w3.org/2000/svg" version="1.1">
 <metadata>
  <rdf:RDF xmlns:dc="http://purl.org/dc/elements/1.1/" xmlns:cc="http://creativecommons.org/ns#" xmlns:rdf="http://www.w3.org/1999/02/22-rdf-syntax-ns#">
   <cc:Work>
    <dc:type rdf:resource="http://purl.org/dc/dcmitype/StillImage"/>
    <dc:date>2024-03-25T14:09:19.301714</dc:date>
    <dc:format>image/svg+xml</dc:format>
    <dc:creator>
     <cc:Agent>
      <dc:title>Matplotlib v3.7.2, https://matplotlib.org/</dc:title>
     </cc:Agent>
    </dc:creator>
   </cc:Work>
  </rdf:RDF>
 </metadata>
 <defs>
  <style type="text/css">*{stroke-linejoin: round; stroke-linecap: butt}</style>
 </defs>
 <g id="figure_1">
  <g id="patch_1">
   <path d="M 0 1080 
L 4680 1080 
L 4680 0 
L 0 0 
z
" style="fill: #ffffff"/>
  </g>
  <g id="axes_1">
   <g id="patch_2">
    <path d="M 585 961.2 
L 4212 961.2 
L 4212 129.6 
L 585 129.6 
z
" style="fill: #ffffff"/>
   </g>
   <g id="matplotlib.axis_1">
    <g id="xtick_1">
     <g id="line2d_1">
      <defs>
       <path id="mc0e21e205d" d="M 0 0 
L 0 3.5 
" style="stroke: #000000; stroke-width: 0.8"/>
      </defs>
      <g>
       <use xlink:href="#mc0e21e205d" x="941.800468" y="961.2" style="stroke: #000000; stroke-width: 0.8"/>
      </g>
     </g>
     <g id="text_1">
      <!-- 2012-07 -->
      <g transform="translate(900.017655 983.396875) scale(0.2 -0.2)">
       <defs>
        <path id="DejaVuSans-32" d="M 1228 531 
L 3431 531 
L 3431 0 
L 469 0 
L 469 531 
Q 828 903 1448 1529 
Q 2069 2156 2228 2338 
Q 2531 2678 2651 2914 
Q 2772 3150 2772 3378 
Q 2772 3750 2511 3984 
Q 2250 4219 1831 4219 
Q 1534 4219 1204 4116 
Q 875 4013 500 3803 
L 500 4441 
Q 881 4594 1212 4672 
Q 1544 4750 1819 4750 
Q 2544 4750 2975 4387 
Q 3406 4025 3406 3419 
Q 3406 3131 3298 2873 
Q 3191 2616 2906 2266 
Q 2828 2175 2409 1742 
Q 1991 1309 1228 531 
z
" transform="scale(0.015625)"/>
        <path id="DejaVuSans-30" d="M 2034 4250 
Q 1547 4250 1301 3770 
Q 1056 3291 1056 2328 
Q 1056 1369 1301 889 
Q 1547 409 2034 409 
Q 2525 409 2770 889 
Q 3016 1369 3016 2328 
Q 3016 3291 2770 3770 
Q 2525 4250 2034 4250 
z
M 2034 4750 
Q 2819 4750 3233 4129 
Q 3647 3509 3647 2328 
Q 3647 1150 3233 529 
Q 2819 -91 2034 -91 
Q 1250 -91 836 529 
Q 422 1150 422 2328 
Q 422 3509 836 4129 
Q 1250 4750 2034 4750 
z
" transform="scale(0.015625)"/>
        <path id="DejaVuSans-31" d="M 794 531 
L 1825 531 
L 1825 4091 
L 703 3866 
L 703 4441 
L 1819 4666 
L 2450 4666 
L 2450 531 
L 3481 531 
L 3481 0 
L 794 0 
L 794 531 
z
" transform="scale(0.015625)"/>
        <path id="DejaVuSans-2d" d="M 313 2009 
L 1997 2009 
L 1997 1497 
L 313 1497 
L 313 2009 
z
" transform="scale(0.015625)"/>
        <path id="DejaVuSans-37" d="M 525 4666 
L 3525 4666 
L 3525 4397 
L 1831 0 
L 1172 0 
L 2766 4134 
L 525 4134 
L 525 4666 
z
" transform="scale(0.015625)"/>
       </defs>
       <use xlink:href="#DejaVuSans-32"/>
       <use xlink:href="#DejaVuSans-30" x="63.623047"/>
       <use xlink:href="#DejaVuSans-31" x="127.246094"/>
       <use xlink:href="#DejaVuSans-32" x="190.869141"/>
       <use xlink:href="#DejaVuSans-2d" x="254.492188"/>
       <use xlink:href="#DejaVuSans-30" x="290.576172"/>
       <use xlink:href="#DejaVuSans-37" x="354.199219"/>
      </g>
     </g>
    </g>
    <g id="xtick_2">
     <g id="line2d_2">
      <g>
       <use xlink:href="#mc0e21e205d" x="1313.551805" y="961.2" style="stroke: #000000; stroke-width: 0.8"/>
      </g>
     </g>
     <g id="text_2">
      <!-- 2013-01 -->
      <g transform="translate(1271.768992 983.396875) scale(0.2 -0.2)">
       <defs>
        <path id="DejaVuSans-33" d="M 2597 2516 
Q 3050 2419 3304 2112 
Q 3559 1806 3559 1356 
Q 3559 666 3084 287 
Q 2609 -91 1734 -91 
Q 1441 -91 1130 -33 
Q 819 25 488 141 
L 488 750 
Q 750 597 1062 519 
Q 1375 441 1716 441 
Q 2309 441 2620 675 
Q 2931 909 2931 1356 
Q 2931 1769 2642 2001 
Q 2353 2234 1838 2234 
L 1294 2234 
L 1294 2753 
L 1863 2753 
Q 2328 2753 2575 2939 
Q 2822 3125 2822 3475 
Q 2822 3834 2567 4026 
Q 2313 4219 1838 4219 
Q 1578 4219 1281 4162 
Q 984 4106 628 3988 
L 628 4550 
Q 988 4650 1302 4700 
Q 1616 4750 1894 4750 
Q 2613 4750 3031 4423 
Q 3450 4097 3450 3541 
Q 3450 3153 3228 2886 
Q 3006 2619 2597 2516 
z
" transform="scale(0.015625)"/>
       </defs>
       <use xlink:href="#DejaVuSans-32"/>
       <use xlink:href="#DejaVuSans-30" x="63.623047"/>
       <use xlink:href="#DejaVuSans-31" x="127.246094"/>
       <use xlink:href="#DejaVuSans-33" x="190.869141"/>
       <use xlink:href="#DejaVuSans-2d" x="254.492188"/>
       <use xlink:href="#DejaVuSans-30" x="290.576172"/>
       <use xlink:href="#DejaVuSans-31" x="354.199219"/>
      </g>
     </g>
    </g>
    <g id="xtick_3">
     <g id="line2d_3">
      <g>
       <use xlink:href="#mc0e21e205d" x="1679.241979" y="961.2" style="stroke: #000000; stroke-width: 0.8"/>
      </g>
     </g>
     <g id="text_3">
      <!-- 2013-07 -->
      <g transform="translate(1637.459166 983.396875) scale(0.2 -0.2)">
       <use xlink:href="#DejaVuSans-32"/>
       <use xlink:href="#DejaVuSans-30" x="63.623047"/>
       <use xlink:href="#DejaVuSans-31" x="127.246094"/>
       <use xlink:href="#DejaVuSans-33" x="190.869141"/>
       <use xlink:href="#DejaVuSans-2d" x="254.492188"/>
       <use xlink:href="#DejaVuSans-30" x="290.576172"/>
       <use xlink:href="#DejaVuSans-37" x="354.199219"/>
      </g>
     </g>
    </g>
    <g id="xtick_4">
     <g id="line2d_4">
      <g>
       <use xlink:href="#mc0e21e205d" x="2050.993316" y="961.2" style="stroke: #000000; stroke-width: 0.8"/>
      </g>
     </g>
     <g id="text_4">
      <!-- 2014-01 -->
      <g transform="translate(2009.210503 983.396875) scale(0.2 -0.2)">
       <defs>
        <path id="DejaVuSans-34" d="M 2419 4116 
L 825 1625 
L 2419 1625 
L 2419 4116 
z
M 2253 4666 
L 3047 4666 
L 3047 1625 
L 3713 1625 
L 3713 1100 
L 3047 1100 
L 3047 0 
L 2419 0 
L 2419 1100 
L 313 1100 
L 313 1709 
L 2253 4666 
z
" transform="scale(0.015625)"/>
       </defs>
       <use xlink:href="#DejaVuSans-32"/>
       <use xlink:href="#DejaVuSans-30" x="63.623047"/>
       <use xlink:href="#DejaVuSans-31" x="127.246094"/>
       <use xlink:href="#DejaVuSans-34" x="190.869141"/>
       <use xlink:href="#DejaVuSans-2d" x="254.492188"/>
       <use xlink:href="#DejaVuSans-30" x="290.576172"/>
       <use xlink:href="#DejaVuSans-31" x="354.199219"/>
      </g>
     </g>
    </g>
    <g id="xtick_5">
     <g id="line2d_5">
      <g>
       <use xlink:href="#mc0e21e205d" x="2416.683489" y="961.2" style="stroke: #000000; stroke-width: 0.8"/>
      </g>
     </g>
     <g id="text_5">
      <!-- 2014-07 -->
      <g transform="translate(2374.900677 983.396875) scale(0.2 -0.2)">
       <use xlink:href="#DejaVuSans-32"/>
       <use xlink:href="#DejaVuSans-30" x="63.623047"/>
       <use xlink:href="#DejaVuSans-31" x="127.246094"/>
       <use xlink:href="#DejaVuSans-34" x="190.869141"/>
       <use xlink:href="#DejaVuSans-2d" x="254.492188"/>
       <use xlink:href="#DejaVuSans-30" x="290.576172"/>
       <use xlink:href="#DejaVuSans-37" x="354.199219"/>
      </g>
     </g>
    </g>
    <g id="xtick_6">
     <g id="line2d_6">
      <g>
       <use xlink:href="#mc0e21e205d" x="2788.434826" y="961.2" style="stroke: #000000; stroke-width: 0.8"/>
      </g>
     </g>
     <g id="text_6">
      <!-- 2015-01 -->
      <g transform="translate(2746.652014 983.396875) scale(0.2 -0.2)">
       <defs>
        <path id="DejaVuSans-35" d="M 691 4666 
L 3169 4666 
L 3169 4134 
L 1269 4134 
L 1269 2991 
Q 1406 3038 1543 3061 
Q 1681 3084 1819 3084 
Q 2600 3084 3056 2656 
Q 3513 2228 3513 1497 
Q 3513 744 3044 326 
Q 2575 -91 1722 -91 
Q 1428 -91 1123 -41 
Q 819 9 494 109 
L 494 744 
Q 775 591 1075 516 
Q 1375 441 1709 441 
Q 2250 441 2565 725 
Q 2881 1009 2881 1497 
Q 2881 1984 2565 2268 
Q 2250 2553 1709 2553 
Q 1456 2553 1204 2497 
Q 953 2441 691 2322 
L 691 4666 
z
" transform="scale(0.015625)"/>
       </defs>
       <use xlink:href="#DejaVuSans-32"/>
       <use xlink:href="#DejaVuSans-30" x="63.623047"/>
       <use xlink:href="#DejaVuSans-31" x="127.246094"/>
       <use xlink:href="#DejaVuSans-35" x="190.869141"/>
       <use xlink:href="#DejaVuSans-2d" x="254.492188"/>
       <use xlink:href="#DejaVuSans-30" x="290.576172"/>
       <use xlink:href="#DejaVuSans-31" x="354.199219"/>
      </g>
     </g>
    </g>
    <g id="xtick_7">
     <g id="line2d_7">
      <g>
       <use xlink:href="#mc0e21e205d" x="3154.125" y="961.2" style="stroke: #000000; stroke-width: 0.8"/>
      </g>
     </g>
     <g id="text_7">
      <!-- 2015-07 -->
      <g transform="translate(3112.342188 983.396875) scale(0.2 -0.2)">
       <use xlink:href="#DejaVuSans-32"/>
       <use xlink:href="#DejaVuSans-30" x="63.623047"/>
       <use xlink:href="#DejaVuSans-31" x="127.246094"/>
       <use xlink:href="#DejaVuSans-35" x="190.869141"/>
       <use xlink:href="#DejaVuSans-2d" x="254.492188"/>
       <use xlink:href="#DejaVuSans-30" x="290.576172"/>
       <use xlink:href="#DejaVuSans-37" x="354.199219"/>
      </g>
     </g>
    </g>
    <g id="xtick_8">
     <g id="line2d_8">
      <g>
       <use xlink:href="#mc0e21e205d" x="3525.876337" y="961.2" style="stroke: #000000; stroke-width: 0.8"/>
      </g>
     </g>
     <g id="text_8">
      <!-- 2016-01 -->
      <g transform="translate(3484.093524 983.396875) scale(0.2 -0.2)">
       <defs>
        <path id="DejaVuSans-36" d="M 2113 2584 
Q 1688 2584 1439 2293 
Q 1191 2003 1191 1497 
Q 1191 994 1439 701 
Q 1688 409 2113 409 
Q 2538 409 2786 701 
Q 3034 994 3034 1497 
Q 3034 2003 2786 2293 
Q 2538 2584 2113 2584 
z
M 3366 4563 
L 3366 3988 
Q 3128 4100 2886 4159 
Q 2644 4219 2406 4219 
Q 1781 4219 1451 3797 
Q 1122 3375 1075 2522 
Q 1259 2794 1537 2939 
Q 1816 3084 2150 3084 
Q 2853 3084 3261 2657 
Q 3669 2231 3669 1497 
Q 3669 778 3244 343 
Q 2819 -91 2113 -91 
Q 1303 -91 875 529 
Q 447 1150 447 2328 
Q 447 3434 972 4092 
Q 1497 4750 2381 4750 
Q 2619 4750 2861 4703 
Q 3103 4656 3366 4563 
z
" transform="scale(0.015625)"/>
       </defs>
       <use xlink:href="#DejaVuSans-32"/>
       <use xlink:href="#DejaVuSans-30" x="63.623047"/>
       <use xlink:href="#DejaVuSans-31" x="127.246094"/>
       <use xlink:href="#DejaVuSans-36" x="190.869141"/>
       <use xlink:href="#DejaVuSans-2d" x="254.492188"/>
       <use xlink:href="#DejaVuSans-30" x="290.576172"/>
       <use xlink:href="#DejaVuSans-31" x="354.199219"/>
      </g>
     </g>
    </g>
    <g id="xtick_9">
     <g id="line2d_9">
      <g>
       <use xlink:href="#mc0e21e205d" x="3893.586898" y="961.2" style="stroke: #000000; stroke-width: 0.8"/>
      </g>
     </g>
     <g id="text_9">
      <!-- 2016-07 -->
      <g transform="translate(3851.804086 983.396875) scale(0.2 -0.2)">
       <use xlink:href="#DejaVuSans-32"/>
       <use xlink:href="#DejaVuSans-30" x="63.623047"/>
       <use xlink:href="#DejaVuSans-31" x="127.246094"/>
       <use xlink:href="#DejaVuSans-36" x="190.869141"/>
       <use xlink:href="#DejaVuSans-2d" x="254.492188"/>
       <use xlink:href="#DejaVuSans-30" x="290.576172"/>
       <use xlink:href="#DejaVuSans-37" x="354.199219"/>
      </g>
     </g>
    </g>
    <g id="text_10">
     <!-- Time -->
     <g transform="translate(2374.032813 1006.753125) scale(0.2 -0.2)">
      <defs>
       <path id="DejaVuSans-54" d="M -19 4666 
L 3928 4666 
L 3928 4134 
L 2272 4134 
L 2272 0 
L 1638 0 
L 1638 4134 
L -19 4134 
L -19 4666 
z
" transform="scale(0.015625)"/>
       <path id="DejaVuSans-69" d="M 603 3500 
L 1178 3500 
L 1178 0 
L 603 0 
L 603 3500 
z
M 603 4863 
L 1178 4863 
L 1178 4134 
L 603 4134 
L 603 4863 
z
" transform="scale(0.015625)"/>
       <path id="DejaVuSans-6d" d="M 3328 2828 
Q 3544 3216 3844 3400 
Q 4144 3584 4550 3584 
Q 5097 3584 5394 3201 
Q 5691 2819 5691 2113 
L 5691 0 
L 5113 0 
L 5113 2094 
Q 5113 2597 4934 2840 
Q 4756 3084 4391 3084 
Q 3944 3084 3684 2787 
Q 3425 2491 3425 1978 
L 3425 0 
L 2847 0 
L 2847 2094 
Q 2847 2600 2669 2842 
Q 2491 3084 2119 3084 
Q 1678 3084 1418 2786 
Q 1159 2488 1159 1978 
L 1159 0 
L 581 0 
L 581 3500 
L 1159 3500 
L 1159 2956 
Q 1356 3278 1631 3431 
Q 1906 3584 2284 3584 
Q 2666 3584 2933 3390 
Q 3200 3197 3328 2828 
z
" transform="scale(0.015625)"/>
       <path id="DejaVuSans-65" d="M 3597 1894 
L 3597 1613 
L 953 1613 
Q 991 1019 1311 708 
Q 1631 397 2203 397 
Q 2534 397 2845 478 
Q 3156 559 3463 722 
L 3463 178 
Q 3153 47 2828 -22 
Q 2503 -91 2169 -91 
Q 1331 -91 842 396 
Q 353 884 353 1716 
Q 353 2575 817 3079 
Q 1281 3584 2069 3584 
Q 2775 3584 3186 3129 
Q 3597 2675 3597 1894 
z
M 3022 2063 
Q 3016 2534 2758 2815 
Q 2500 3097 2075 3097 
Q 1594 3097 1305 2825 
Q 1016 2553 972 2059 
L 3022 2063 
z
" transform="scale(0.015625)"/>
      </defs>
      <use xlink:href="#DejaVuSans-54"/>
      <use xlink:href="#DejaVuSans-69" x="57.958984"/>
      <use xlink:href="#DejaVuSans-6d" x="85.742188"/>
      <use xlink:href="#DejaVuSans-65" x="183.154297"/>
     </g>
    </g>
   </g>
   <g id="matplotlib.axis_2">
    <g id="ytick_1">
     <g id="line2d_10">
      <defs>
       <path id="mc7fb16c92c" d="M 0 0 
L -3.5 0 
" style="stroke: #000000; stroke-width: 0.8"/>
      </defs>
      <g>
       <use xlink:href="#mc7fb16c92c" x="585" y="868.576663" style="stroke: #000000; stroke-width: 0.8"/>
      </g>
     </g>
     <g id="text_11">
      <!-- −0.0015 -->
      <g transform="translate(491.259375 876.175101) scale(0.2 -0.2)">
       <defs>
        <path id="DejaVuSans-2212" d="M 678 2272 
L 4684 2272 
L 4684 1741 
L 678 1741 
L 678 2272 
z
" transform="scale(0.015625)"/>
        <path id="DejaVuSans-2e" d="M 684 794 
L 1344 794 
L 1344 0 
L 684 0 
L 684 794 
z
" transform="scale(0.015625)"/>
       </defs>
       <use xlink:href="#DejaVuSans-2212"/>
       <use xlink:href="#DejaVuSans-30" x="83.789062"/>
       <use xlink:href="#DejaVuSans-2e" x="147.412109"/>
       <use xlink:href="#DejaVuSans-30" x="179.199219"/>
       <use xlink:href="#DejaVuSans-30" x="242.822266"/>
       <use xlink:href="#DejaVuSans-31" x="306.445312"/>
       <use xlink:href="#DejaVuSans-35" x="370.068359"/>
      </g>
     </g>
    </g>
    <g id="ytick_2">
     <g id="line2d_11">
      <g>
       <use xlink:href="#mc7fb16c92c" x="585" y="774.609778" style="stroke: #000000; stroke-width: 0.8"/>
      </g>
     </g>
     <g id="text_12">
      <!-- −0.0010 -->
      <g transform="translate(491.259375 782.208216) scale(0.2 -0.2)">
       <use xlink:href="#DejaVuSans-2212"/>
       <use xlink:href="#DejaVuSans-30" x="83.789062"/>
       <use xlink:href="#DejaVuSans-2e" x="147.412109"/>
       <use xlink:href="#DejaVuSans-30" x="179.199219"/>
       <use xlink:href="#DejaVuSans-30" x="242.822266"/>
       <use xlink:href="#DejaVuSans-31" x="306.445312"/>
       <use xlink:href="#DejaVuSans-30" x="370.068359"/>
      </g>
     </g>
    </g>
    <g id="ytick_3">
     <g id="line2d_12">
      <g>
       <use xlink:href="#mc7fb16c92c" x="585" y="680.642893" style="stroke: #000000; stroke-width: 0.8"/>
      </g>
     </g>
     <g id="text_13">
      <!-- −0.0005 -->
      <g transform="translate(491.259375 688.241331) scale(0.2 -0.2)">
       <use xlink:href="#DejaVuSans-2212"/>
       <use xlink:href="#DejaVuSans-30" x="83.789062"/>
       <use xlink:href="#DejaVuSans-2e" x="147.412109"/>
       <use xlink:href="#DejaVuSans-30" x="179.199219"/>
       <use xlink:href="#DejaVuSans-30" x="242.822266"/>
       <use xlink:href="#DejaVuSans-30" x="306.445312"/>
       <use xlink:href="#DejaVuSans-35" x="370.068359"/>
      </g>
     </g>
    </g>
    <g id="ytick_4">
     <g id="line2d_13">
      <g>
       <use xlink:href="#mc7fb16c92c" x="585" y="586.676008" style="stroke: #000000; stroke-width: 0.8"/>
      </g>
     </g>
     <g id="text_14">
      <!-- 0.0000 -->
      <g transform="translate(508.01875 594.274446) scale(0.2 -0.2)">
       <use xlink:href="#DejaVuSans-30"/>
       <use xlink:href="#DejaVuSans-2e" x="63.623047"/>
       <use xlink:href="#DejaVuSans-30" x="95.410156"/>
       <use xlink:href="#DejaVuSans-30" x="159.033203"/>
       <use xlink:href="#DejaVuSans-30" x="222.65625"/>
       <use xlink:href="#DejaVuSans-30" x="286.279297"/>
      </g>
     </g>
    </g>
    <g id="ytick_5">
     <g id="line2d_14">
      <g>
       <use xlink:href="#mc7fb16c92c" x="585" y="492.709123" style="stroke: #000000; stroke-width: 0.8"/>
      </g>
     </g>
     <g id="text_15">
      <!-- 0.0005 -->
      <g transform="translate(508.01875 500.307561) scale(0.2 -0.2)">
       <use xlink:href="#DejaVuSans-30"/>
       <use xlink:href="#DejaVuSans-2e" x="63.623047"/>
       <use xlink:href="#DejaVuSans-30" x="95.410156"/>
       <use xlink:href="#DejaVuSans-30" x="159.033203"/>
       <use xlink:href="#DejaVuSans-30" x="222.65625"/>
       <use xlink:href="#DejaVuSans-35" x="286.279297"/>
      </g>
     </g>
    </g>
    <g id="ytick_6">
     <g id="line2d_15">
      <g>
       <use xlink:href="#mc7fb16c92c" x="585" y="398.742238" style="stroke: #000000; stroke-width: 0.8"/>
      </g>
     </g>
     <g id="text_16">
      <!-- 0.0010 -->
      <g transform="translate(508.01875 406.340676) scale(0.2 -0.2)">
       <use xlink:href="#DejaVuSans-30"/>
       <use xlink:href="#DejaVuSans-2e" x="63.623047"/>
       <use xlink:href="#DejaVuSans-30" x="95.410156"/>
       <use xlink:href="#DejaVuSans-30" x="159.033203"/>
       <use xlink:href="#DejaVuSans-31" x="222.65625"/>
       <use xlink:href="#DejaVuSans-30" x="286.279297"/>
      </g>
     </g>
    </g>
    <g id="ytick_7">
     <g id="line2d_16">
      <g>
       <use xlink:href="#mc7fb16c92c" x="585" y="304.775353" style="stroke: #000000; stroke-width: 0.8"/>
      </g>
     </g>
     <g id="text_17">
      <!-- 0.0015 -->
      <g transform="translate(508.01875 312.373791) scale(0.2 -0.2)">
       <use xlink:href="#DejaVuSans-30"/>
       <use xlink:href="#DejaVuSans-2e" x="63.623047"/>
       <use xlink:href="#DejaVuSans-30" x="95.410156"/>
       <use xlink:href="#DejaVuSans-30" x="159.033203"/>
       <use xlink:href="#DejaVuSans-31" x="222.65625"/>
       <use xlink:href="#DejaVuSans-35" x="286.279297"/>
      </g>
     </g>
    </g>
    <g id="ytick_8">
     <g id="line2d_17">
      <g>
       <use xlink:href="#mc7fb16c92c" x="585" y="210.808468" style="stroke: #000000; stroke-width: 0.8"/>
      </g>
     </g>
     <g id="text_18">
      <!-- 0.0020 -->
      <g transform="translate(508.01875 218.406906) scale(0.2 -0.2)">
       <use xlink:href="#DejaVuSans-30"/>
       <use xlink:href="#DejaVuSans-2e" x="63.623047"/>
       <use xlink:href="#DejaVuSans-30" x="95.410156"/>
       <use xlink:href="#DejaVuSans-30" x="159.033203"/>
       <use xlink:href="#DejaVuSans-32" x="222.65625"/>
       <use xlink:href="#DejaVuSans-30" x="286.279297"/>
      </g>
     </g>
    </g>
    <g id="text_19">
     <!-- East(m) -->
     <g transform="translate(483.1 584.520313) rotate(-90) scale(0.2 -0.2)">
      <defs>
       <path id="DejaVuSans-45" d="M 628 4666 
L 3578 4666 
L 3578 4134 
L 1259 4134 
L 1259 2753 
L 3481 2753 
L 3481 2222 
L 1259 2222 
L 1259 531 
L 3634 531 
L 3634 0 
L 628 0 
L 628 4666 
z
" transform="scale(0.015625)"/>
       <path id="DejaVuSans-61" d="M 2194 1759 
Q 1497 1759 1228 1600 
Q 959 1441 959 1056 
Q 959 750 1161 570 
Q 1363 391 1709 391 
Q 2188 391 2477 730 
Q 2766 1069 2766 1631 
L 2766 1759 
L 2194 1759 
z
M 3341 1997 
L 3341 0 
L 2766 0 
L 2766 531 
Q 2569 213 2275 61 
Q 1981 -91 1556 -91 
Q 1019 -91 701 211 
Q 384 513 384 1019 
Q 384 1609 779 1909 
Q 1175 2209 1959 2209 
L 2766 2209 
L 2766 2266 
Q 2766 2663 2505 2880 
Q 2244 3097 1772 3097 
Q 1472 3097 1187 3025 
Q 903 2953 641 2809 
L 641 3341 
Q 956 3463 1253 3523 
Q 1550 3584 1831 3584 
Q 2591 3584 2966 3190 
Q 3341 2797 3341 1997 
z
" transform="scale(0.015625)"/>
       <path id="DejaVuSans-73" d="M 2834 3397 
L 2834 2853 
Q 2591 2978 2328 3040 
Q 2066 3103 1784 3103 
Q 1356 3103 1142 2972 
Q 928 2841 928 2578 
Q 928 2378 1081 2264 
Q 1234 2150 1697 2047 
L 1894 2003 
Q 2506 1872 2764 1633 
Q 3022 1394 3022 966 
Q 3022 478 2636 193 
Q 2250 -91 1575 -91 
Q 1294 -91 989 -36 
Q 684 19 347 128 
L 347 722 
Q 666 556 975 473 
Q 1284 391 1588 391 
Q 1994 391 2212 530 
Q 2431 669 2431 922 
Q 2431 1156 2273 1281 
Q 2116 1406 1581 1522 
L 1381 1569 
Q 847 1681 609 1914 
Q 372 2147 372 2553 
Q 372 3047 722 3315 
Q 1072 3584 1716 3584 
Q 2034 3584 2315 3537 
Q 2597 3491 2834 3397 
z
" transform="scale(0.015625)"/>
       <path id="DejaVuSans-74" d="M 1172 4494 
L 1172 3500 
L 2356 3500 
L 2356 3053 
L 1172 3053 
L 1172 1153 
Q 1172 725 1289 603 
Q 1406 481 1766 481 
L 2356 481 
L 2356 0 
L 1766 0 
Q 1100 0 847 248 
Q 594 497 594 1153 
L 594 3053 
L 172 3053 
L 172 3500 
L 594 3500 
L 594 4494 
L 1172 4494 
z
" transform="scale(0.015625)"/>
       <path id="DejaVuSans-28" d="M 1984 4856 
Q 1566 4138 1362 3434 
Q 1159 2731 1159 2009 
Q 1159 1288 1364 580 
Q 1569 -128 1984 -844 
L 1484 -844 
Q 1016 -109 783 600 
Q 550 1309 550 2009 
Q 550 2706 781 3412 
Q 1013 4119 1484 4856 
L 1984 4856 
z
" transform="scale(0.015625)"/>
       <path id="DejaVuSans-29" d="M 513 4856 
L 1013 4856 
Q 1481 4119 1714 3412 
Q 1947 2706 1947 2009 
Q 1947 1309 1714 600 
Q 1481 -109 1013 -844 
L 513 -844 
Q 928 -128 1133 580 
Q 1338 1288 1338 2009 
Q 1338 2731 1133 3434 
Q 928 4138 513 4856 
z
" transform="scale(0.015625)"/>
      </defs>
      <use xlink:href="#DejaVuSans-45"/>
      <use xlink:href="#DejaVuSans-61" x="63.183594"/>
      <use xlink:href="#DejaVuSans-73" x="124.462891"/>
      <use xlink:href="#DejaVuSans-74" x="176.5625"/>
      <use xlink:href="#DejaVuSans-28" x="215.771484"/>
      <use xlink:href="#DejaVuSans-6d" x="254.785156"/>
      <use xlink:href="#DejaVuSans-29" x="352.197266"/>
     </g>
    </g>
   </g>
   <g id="line2d_18">
    <path d="M 749.863636 585.193335 
L 753.904412 504.510811 
L 755.924799 467.914226 
L 761.985963 383.279795 
L 764.00635 337.471066 
L 766.026738 394.164027 
L 768.047126 405.98691 
L 770.067513 450.666145 
L 772.087901 455.978846 
L 774.108289 438.313093 
L 776.128676 469.6682 
L 790.27139 339.245308 
L 792.291778 376.532579 
L 794.312166 365.761491 
L 796.332553 357.850994 
L 798.352941 366.657316 
L 800.373329 329.991337 
L 802.393717 348.757947 
L 806.434492 414.293098 
L 808.45488 430.634737 
L 810.475267 436.95997 
L 812.495655 397.778787 
L 824.617981 480.813337 
L 830.679144 581.393041 
L 832.699532 566.749163 
L 834.71992 606.896528 
L 836.740307 566.646121 
L 844.821858 626.153743 
L 850.883021 658.585169 
L 852.903409 638.454721 
L 854.923797 668.667935 
L 856.944184 629.050552 
L 860.98496 540.798276 
L 863.005348 468.882353 
L 867.046123 578.967786 
L 869.066511 580.450188 
L 873.107286 677.562184 
L 875.127674 671.383876 
L 877.148061 678.433532 
L 879.168449 622.386023 
L 885.229612 487.79088 
L 889.270388 446.37771 
L 891.290775 457.504301 
L 893.311163 485.234133 
L 895.331551 549.288382 
L 897.351939 574.133408 
L 899.372326 567.01897 
L 901.392714 566.962991 
L 903.413102 604.570485 
L 905.433489 620.646471 
L 907.453877 600.9058 
L 909.474265 592.273486 
L 913.51504 650.670944 
L 915.535428 682.5026 
L 917.555816 707.074675 
L 921.596591 789.904825 
L 933.718917 670.830435 
L 937.759693 614.933572 
L 1044.840241 655.479789 
L 1046.860628 622.690428 
L 1048.881016 625.999104 
L 1212.53242 277.425432 
L 1216.573195 370.203465 
L 1226.675134 432.398773 
L 1230.715909 415.102937 
L 1232.736297 419.873746 
L 1234.756684 435.751364 
L 1236.777072 439.774402 
L 1238.79746 500.783075 
L 1240.817848 531.907886 
L 1242.838235 521.022813 
L 1333.755682 246.180729 
L 1335.77607 176.735777 
L 1337.796457 227.381005 
L 1341.837233 347.920622 
L 1372.143048 422.717924 
L 1376.183824 612.58909 
L 1378.204211 591.63272 
L 1382.244987 569.343006 
L 1384.265374 570.001663 
L 1386.285762 540.018533 
L 1388.30615 432.933029 
L 1390.326537 347.801323 
L 1392.346925 339.778043 
L 1394.367313 295.573849 
L 1402.448864 174.127671 
L 1404.469251 167.4 
L 1406.489639 175.334123 
L 1412.550802 327.758847 
L 1414.57119 409.395303 
L 1416.591578 385.637802 
L 1418.611965 390.471938 
L 1420.632353 395.772042 
L 1424.673128 334.509892 
L 1426.693516 372.552779 
L 1428.713904 384.644918 
L 1432.754679 449.272463 
L 1434.775067 454.486348 
L 1436.795455 461.165483 
L 1444.877005 474.134927 
L 1446.897393 508.452999 
L 1454.978944 574.27749 
L 1456.999332 600.81856 
L 1459.019719 617.449387 
L 1461.040107 602.961291 
L 1463.060495 577.393764 
L 1465.080882 579.433976 
L 1469.121658 569.607743 
L 1471.142045 572.096692 
L 1473.162433 497.943905 
L 1475.182821 509.381886 
L 1479.223596 506.689268 
L 1481.243984 488.303087 
L 1483.264372 538.932718 
L 1485.284759 534.876705 
L 1487.305147 594.555358 
L 1489.325535 625.799125 
L 1491.345922 533.467192 
L 1493.36631 545.059163 
L 1495.386698 553.548663 
L 1497.407086 505.514392 
L 1501.447861 473.037903 
L 1669.14004 711.29014 
L 1673.180816 683.626758 
L 1677.221591 641.422226 
L 1681.262366 583.764326 
L 1683.282754 588.942207 
L 1689.343917 685.236795 
L 1691.364305 686.554454 
L 1693.384693 749.174048 
L 1697.425468 782.03501 
L 1699.445856 634.829765 
L 1701.466243 711.892794 
L 1703.486631 707.608043 
L 1705.507019 710.09539 
L 1707.527406 676.104492 
L 1719.649733 788.433853 
L 1723.690508 747.839392 
L 1725.710896 681.189233 
L 1727.731283 639.191977 
L 1729.751671 651.260083 
L 1731.772059 670.580785 
L 1735.812834 738.707632 
L 1739.85361 852.573504 
L 1741.873997 870.0274 
L 1743.894385 923.4 
L 1749.955548 892.521011 
L 1751.975936 836.448449 
L 1753.996324 841.462093 
L 1756.016711 832.480519 
L 1758.037099 813.120275 
L 1766.11865 651.341507 
L 1768.139037 693.250928 
L 1780.261364 774.563397 
L 1782.281751 678.085862 
L 1784.302139 703.237811 
L 1786.322527 753.242639 
L 1788.342914 787.373422 
L 1790.363302 724.645845 
L 1792.38369 648.181944 
L 1794.404078 675.271942 
L 1796.424465 670.865167 
L 1806.526404 569.2431 
L 1808.546791 532.378411 
L 1810.567179 565.983637 
L 1812.587567 570.351536 
L 1814.607955 567.304631 
L 1816.628342 641.995271 
L 1818.64873 685.291664 
L 1822.689505 702.837333 
L 1824.709893 719.360445 
L 1826.730281 731.652929 
L 1828.750668 668.569582 
L 1830.771056 620.438072 
L 1832.791444 596.706367 
L 1834.811832 636.980174 
L 1836.832219 572.455614 
L 1838.852607 550.685482 
L 1954.014706 630.270064 
L 1958.055481 599.98348 
L 1960.075869 627.289534 
L 1962.096257 574.688121 
L 1964.116644 435.618525 
L 1966.137032 462.03557 
L 1968.15742 416.748593 
L 1970.177807 463.279632 
L 1980.279746 507.30705 
L 1982.300134 561.277632 
L 1988.361297 594.290758 
L 1990.381684 600.69305 
L 1992.402072 612.582497 
L 1994.42246 597.975593 
L 1996.442848 559.72557 
L 2000.483623 529.156576 
L 2073.21758 562.150228 
L 2075.237968 599.939391 
L 2079.278743 607.973308 
L 2081.299131 577.344163 
L 2109.584559 361.015976 
L 2438.907754 713.731649 
L 2440.928142 742.04179 
L 2442.948529 655.521848 
L 2444.968917 614.302332 
L 2449.009693 674.083859 
L 2467.193182 798.209429 
L 3178.369652 570.832595 
L 3180.39004 677.694091 
L 3182.410428 698.397677 
L 3184.430816 648.176817 
L 3186.451203 657.312144 
L 3188.471591 609.771519 
L 3194.532754 765.50039 
L 3206.65508 830.299825 
L 3210.695856 834.916639 
L 3212.716243 832.455974 
L 3214.736631 768.932982 
L 3216.757019 808.734807 
L 3220.797794 714.214936 
L 3228.879345 670.18486 
L 3230.899733 690.788821 
L 3253.123997 552.694297 
L 3257.164773 594.847524 
L 3259.18516 713.152378 
L 3261.205548 731.894341 
L 3265.246324 742.765603 
L 3267.266711 765.410447 
L 3269.287099 784.248622 
L 3277.36865 688.876989 
L 3285.450201 858.877882 
L 3287.470588 813.852461 
L 3289.490976 783.026322 
L 3291.511364 772.686802 
L 3293.531751 667.114561 
L 3295.552139 583.853347 
L 3297.572527 561.621759 
L 3299.592914 522.307218 
L 3301.613302 506.154009 
L 3303.63369 530.993456 
L 3309.694853 567.755254 
L 3315.756016 615.591612 
L 3317.776404 667.77301 
L 3319.796791 608.96091 
L 3321.817179 583.642687 
L 3323.837567 598.651016 
L 3325.857955 622.387185 
L 3327.878342 553.780372 
L 3329.89873 593.455831 
L 3331.919118 554.965096 
L 3340.000668 604.712583 
L 3342.021056 560.344857 
L 3344.041444 552.71687 
L 3346.061832 559.673634 
L 3348.082219 592.744199 
L 3350.102607 643.737313 
L 3352.122995 747.475825 
L 3354.143382 731.22014 
L 3356.16377 749.576364 
L 3358.184158 697.293916 
L 3360.204545 669.178823 
L 3362.224933 577.107707 
L 3364.245321 542.004546 
L 3366.265709 445.412927 
L 3368.286096 447.095995 
L 3370.306484 503.340062 
L 3374.347259 633.155222 
L 3376.367647 662.285643 
L 3400.612299 542.621837 
L 3402.632687 551.445753 
L 3404.653075 564.676928 
L 3406.673463 594.136788 
L 3410.714238 565.302361 
L 3412.734626 575.134765 
L 3414.755013 606.313499 
L 3416.775401 608.840105 
L 3420.816176 550.03015 
L 3422.836564 515.445987 
L 3424.856952 558.588678 
L 3426.87734 574.798299 
L 3428.897727 548.500515 
L 3430.918115 492.315296 
L 3432.938503 519.6792 
L 3434.95889 488.717091 
L 3436.979278 405.630381 
L 3438.999666 276.309611 
L 3441.020053 250.417081 
L 3443.040441 233.107256 
L 3445.060829 250.621681 
L 3447.081217 210.698069 
L 3449.101604 176.609013 
L 3451.121992 311.820025 
L 3453.14238 436.266104 
L 3455.162767 464.015243 
L 3457.183155 459.32242 
L 3459.203543 501.334723 
L 3461.22393 550.801668 
L 3463.244318 565.827348 
L 3465.264706 572.471422 
L 3467.285094 565.573654 
L 3469.305481 513.361982 
L 3471.325869 515.548695 
L 3473.346257 483.971941 
L 3475.366644 440.37274 
L 3479.40742 425.255272 
L 3481.427807 421.029407 
L 3483.448195 543.624635 
L 3485.468583 582.274547 
L 3487.488971 562.159239 
L 3489.509358 551.850715 
L 3491.529746 545.44526 
L 3493.550134 529.662235 
L 3497.590909 400.256069 
L 3499.611297 372.777344 
L 3501.631684 385.998644 
L 3503.652072 415.269964 
L 3505.67246 440.532106 
L 3507.692848 438.933529 
L 3509.713235 432.323671 
L 3511.733623 410.118894 
L 3513.754011 412.255274 
L 3515.774398 417.16827 
L 3517.794786 419.910842 
L 3519.815174 427.382988 
L 3521.835561 407.135476 
L 3523.855949 436.711856 
L 3527.896725 436.793207 
L 3529.917112 407.201805 
L 3531.9375 394.041718 
L 3533.957888 387.027933 
L 3535.978275 387.575505 
L 3537.998663 413.420209 
L 3540.019051 403.230808 
L 3542.039439 404.05804 
L 3544.059826 348.405145 
L 3548.100602 336.03063 
L 3550.120989 347.254147 
L 3552.141377 298.708063 
L 3554.161765 330.796063 
L 3556.182152 322.732852 
L 3558.20254 375.230623 
L 3560.222928 455.717937 
L 3562.243316 364.313573 
L 3564.263703 330.436119 
L 3566.284091 307.906151 
L 3568.304479 257.179052 
L 3570.324866 251.083296 
L 3572.345254 252.495272 
L 3582.447193 429.130307 
L 3584.46758 473.275917 
L 3586.487968 487.818153 
L 3590.528743 425.219013 
L 3592.549131 442.63666 
L 3594.569519 376.155561 
L 3596.589906 293.652285 
L 3598.610294 270.965244 
L 3600.630682 233.537812 
L 3602.65107 211.309172 
L 3604.671457 219.107237 
L 3647.099599 420.840157 
L 3649.119987 432.67621 
L 3653.160762 430.697951 
L 3659.221925 409.756237 
L 3661.242313 371.957302 
L 3663.262701 362.230693 
L 3665.283088 392.724375 
L 3667.303476 369.004454 
L 3669.323864 459.900329 
L 3671.344251 543.647122 
L 3673.364639 550.654908 
L 3675.385027 555.481107 
L 3677.405414 582.575913 
L 3679.425802 635.394542 
L 3681.44619 653.948989 
L 3683.466578 680.339629 
L 3685.486965 640.404793 
L 3687.507353 646.92705 
L 3689.527741 636.159884 
L 3691.548128 607.749521 
L 3693.568516 525.763121 
L 3695.588904 505.840391 
L 3697.609291 423.461159 
L 3703.670455 532.129708 
L 3705.690842 546.995375 
L 3707.71123 553.411693 
L 3711.752005 639.813386 
L 3713.772393 686.963437 
L 3715.792781 629.00141 
L 3717.813168 650.968814 
L 3719.833556 684.048435 
L 3721.853944 713.663262 
L 3723.874332 667.368996 
L 3725.894719 710.861212 
L 3727.915107 684.581197 
L 3729.935495 712.485738 
L 3733.97627 637.135602 
L 3735.996658 571.090392 
L 3738.017045 586.092531 
L 3740.037433 556.986228 
L 3744.078209 565.044172 
L 3746.098596 555.797333 
L 3748.118984 560.862234 
L 3750.139372 617.277469 
L 3752.159759 631.135816 
L 3756.200535 665.446988 
L 3758.220922 613.177132 
L 3760.24131 599.236932 
L 3764.282086 539.259072 
L 3766.302473 483.487954 
L 3768.322861 408.507193 
L 3772.363636 385.184244 
L 3774.384024 366.872606 
L 3776.404412 407.709714 
L 3778.424799 470.231666 
L 3780.445187 505.164595 
L 3786.50635 465.364872 
L 3788.526738 544.052362 
L 3790.547126 556.864638 
L 3792.567513 565.384528 
L 3794.587901 601.775129 
L 3796.608289 708.408948 
L 3798.628676 703.715055 
L 3952.178142 640.266157 
L 3954.198529 616.282575 
L 3956.218917 574.43794 
L 3958.239305 597.129278 
L 3960.259693 605.837617 
L 3972.382019 751.06596 
L 3978.443182 709.941127 
L 3980.46357 589.446329 
L 3982.483957 573.90322 
L 3984.504345 533.222604 
L 3986.524733 512.508589 
L 3988.54512 523.303974 
L 3990.565508 496.969921 
L 3996.626671 583.329112 
L 4002.687834 588.866256 
L 4004.708222 618.469628 
L 4006.72861 636.117392 
L 4008.748997 621.899758 
L 4010.769385 605.792165 
L 4014.81016 606.718299 
L 4016.830548 585.131981 
L 4018.850936 628.048786 
L 4020.871324 638.415627 
L 4030.973262 693.326698 
L 4032.99365 668.285692 
L 4035.014037 683.607922 
L 4037.034425 732.633549 
L 4039.054813 658.378526 
L 4041.075201 626.215532 
L 4043.095588 635.161754 
L 4045.115976 642.972431 
L 4047.136364 633.416224 
L 4047.136364 633.416224 
" clip-path="url(#p48836e7b08)" style="fill: none; stroke: #00d7ff; stroke-width: 2.5; stroke-linecap: square"/>
   </g>
   <g id="patch_3">
    <path d="M 585 961.2 
L 585 129.6 
" style="fill: none; stroke: #000000; stroke-width: 0.8; stroke-linejoin: miter; stroke-linecap: square"/>
   </g>
   <g id="patch_4">
    <path d="M 4212 961.2 
L 4212 129.6 
" style="fill: none; stroke: #000000; stroke-width: 0.8; stroke-linejoin: miter; stroke-linecap: square"/>
   </g>
   <g id="patch_5">
    <path d="M 585 961.2 
L 4212 961.2 
" style="fill: none; stroke: #000000; stroke-width: 0.8; stroke-linejoin: miter; stroke-linecap: square"/>
   </g>
   <g id="patch_6">
    <path d="M 585 129.6 
L 4212 129.6 
" style="fill: none; stroke: #000000; stroke-width: 0.8; stroke-linejoin: miter; stroke-linecap: square"/>
   </g>
   <g id="text_20">
    <!-- SPER -->
    <g transform="translate(2360.032031 123.360937) scale(0.3 -0.3)">
     <defs>
      <path id="DejaVuSans-53" d="M 3425 4513 
L 3425 3897 
Q 3066 4069 2747 4153 
Q 2428 4238 2131 4238 
Q 1616 4238 1336 4038 
Q 1056 3838 1056 3469 
Q 1056 3159 1242 3001 
Q 1428 2844 1947 2747 
L 2328 2669 
Q 3034 2534 3370 2195 
Q 3706 1856 3706 1288 
Q 3706 609 3251 259 
Q 2797 -91 1919 -91 
Q 1588 -91 1214 -16 
Q 841 59 441 206 
L 441 856 
Q 825 641 1194 531 
Q 1563 422 1919 422 
Q 2459 422 2753 634 
Q 3047 847 3047 1241 
Q 3047 1584 2836 1778 
Q 2625 1972 2144 2069 
L 1759 2144 
Q 1053 2284 737 2584 
Q 422 2884 422 3419 
Q 422 4038 858 4394 
Q 1294 4750 2059 4750 
Q 2388 4750 2728 4690 
Q 3069 4631 3425 4513 
z
" transform="scale(0.015625)"/>
      <path id="DejaVuSans-50" d="M 1259 4147 
L 1259 2394 
L 2053 2394 
Q 2494 2394 2734 2622 
Q 2975 2850 2975 3272 
Q 2975 3691 2734 3919 
Q 2494 4147 2053 4147 
L 1259 4147 
z
M 628 4666 
L 2053 4666 
Q 2838 4666 3239 4311 
Q 3641 3956 3641 3272 
Q 3641 2581 3239 2228 
Q 2838 1875 2053 1875 
L 1259 1875 
L 1259 0 
L 628 0 
L 628 4666 
z
" transform="scale(0.015625)"/>
      <path id="DejaVuSans-52" d="M 2841 2188 
Q 3044 2119 3236 1894 
Q 3428 1669 3622 1275 
L 4263 0 
L 3584 0 
L 2988 1197 
Q 2756 1666 2539 1819 
Q 2322 1972 1947 1972 
L 1259 1972 
L 1259 0 
L 628 0 
L 628 4666 
L 2053 4666 
Q 2853 4666 3247 4331 
Q 3641 3997 3641 3322 
Q 3641 2881 3436 2590 
Q 3231 2300 2841 2188 
z
M 1259 4147 
L 1259 2491 
L 2053 2491 
Q 2509 2491 2742 2702 
Q 2975 2913 2975 3322 
Q 2975 3731 2742 3939 
Q 2509 4147 2053 4147 
L 1259 4147 
z
" transform="scale(0.015625)"/>
     </defs>
     <use xlink:href="#DejaVuSans-53"/>
     <use xlink:href="#DejaVuSans-50" x="63.476562"/>
     <use xlink:href="#DejaVuSans-45" x="123.779297"/>
     <use xlink:href="#DejaVuSans-52" x="186.962891"/>
    </g>
   </g>
   <g id="legend_1">
    <g id="patch_7">
     <path d="M 4151.178125 152.278125 
L 4205 152.278125 
Q 4207 152.278125 4207 150.278125 
L 4207 136.6 
Q 4207 134.6 4205 134.6 
L 4151.178125 134.6 
Q 4149.178125 134.6 4149.178125 136.6 
L 4149.178125 150.278125 
Q 4149.178125 152.278125 4151.178125 152.278125 
z
" style="fill: #ffffff; opacity: 0.8; stroke: #cccccc; stroke-linejoin: miter"/>
    </g>
    <g id="line2d_19">
     <path d="M 4153.178125 142.698438 
L 4163.178125 142.698438 
L 4173.178125 142.698438 
" style="fill: none; stroke: #00d7ff; stroke-width: 2.5; stroke-linecap: square"/>
    </g>
    <g id="text_21">
     <!-- sper -->
     <g transform="translate(4181.178125 146.198438) scale(0.1 -0.1)">
      <defs>
       <path id="DejaVuSans-70" d="M 1159 525 
L 1159 -1331 
L 581 -1331 
L 581 3500 
L 1159 3500 
L 1159 2969 
Q 1341 3281 1617 3432 
Q 1894 3584 2278 3584 
Q 2916 3584 3314 3078 
Q 3713 2572 3713 1747 
Q 3713 922 3314 415 
Q 2916 -91 2278 -91 
Q 1894 -91 1617 61 
Q 1341 213 1159 525 
z
M 3116 1747 
Q 3116 2381 2855 2742 
Q 2594 3103 2138 3103 
Q 1681 3103 1420 2742 
Q 1159 2381 1159 1747 
Q 1159 1113 1420 752 
Q 1681 391 2138 391 
Q 2594 391 2855 752 
Q 3116 1113 3116 1747 
z
" transform="scale(0.015625)"/>
       <path id="DejaVuSans-72" d="M 2631 2963 
Q 2534 3019 2420 3045 
Q 2306 3072 2169 3072 
Q 1681 3072 1420 2755 
Q 1159 2438 1159 1844 
L 1159 0 
L 581 0 
L 581 3500 
L 1159 3500 
L 1159 2956 
Q 1341 3275 1631 3429 
Q 1922 3584 2338 3584 
Q 2397 3584 2469 3576 
Q 2541 3569 2628 3553 
L 2631 2963 
z
" transform="scale(0.015625)"/>
      </defs>
      <use xlink:href="#DejaVuSans-73"/>
      <use xlink:href="#DejaVuSans-70" x="52.099609"/>
      <use xlink:href="#DejaVuSans-65" x="115.576172"/>
      <use xlink:href="#DejaVuSans-72" x="177.099609"/>
     </g>
    </g>
   </g>
  </g>
 </g>
 <defs>
  <clipPath id="p48836e7b08">
   <rect x="585" y="129.6" width="3627" height="831.6"/>
  </clipPath>
 </defs>
</svg>
