<?xml version="1.0" encoding="utf-8" standalone="no"?>
<!DOCTYPE svg PUBLIC "-//W3C//DTD SVG 1.1//EN"
  "http://www.w3.org/Graphics/SVG/1.1/DTD/svg11.dtd">
<svg xmlns:xlink="http://www.w3.org/1999/xlink" width="4680pt" height="1080pt" viewBox="0 0 4680 1080" xmlns="http://www.w3.org/2000/svg" version="1.1">
 <metadata>
  <rdf:RDF xmlns:dc="http://purl.org/dc/elements/1.1/" xmlns:cc="http://creativecommons.org/ns#" xmlns:rdf="http://www.w3.org/1999/02/22-rdf-syntax-ns#">
   <cc:Work>
    <dc:type rdf:resource="http://purl.org/dc/dcmitype/StillImage"/>
    <dc:date>2024-03-25T14:09:19.608138</dc:date>
    <dc:format>image/svg+xml</dc:format>
    <dc:creator>
     <cc:Agent>
      <dc:title>Matplotlib v3.7.2, https://matplotlib.org/</dc:title>
     </cc:Agent>
    </dc:creator>
   </cc:Work>
  </rdf:RDF>
 </metadata>
 <defs>
  <style type="text/css">*{stroke-linejoin: round; stroke-linecap: butt}</style>
 </defs>
 <g id="figure_1">
  <g id="patch_1">
   <path d="M 0 1080 
L 4680 1080 
L 4680 0 
L 0 0 
z
" style="fill: #ffffff"/>
  </g>
  <g id="axes_1">
   <g id="patch_2">
    <path d="M 585 961.2 
L 4212 961.2 
L 4212 129.6 
L 585 129.6 
z
" style="fill: #ffffff"/>
   </g>
   <g id="matplotlib.axis_1">
    <g id="xtick_1">
     <g id="line2d_1">
      <defs>
       <path id="m24b25c6a40" d="M 0 0 
L 0 3.5 
" style="stroke: #000000; stroke-width: 0.8"/>
      </defs>
      <g>
       <use xlink:href="#m24b25c6a40" x="941.800468" y="961.2" style="stroke: #000000; stroke-width: 0.8"/>
      </g>
     </g>
     <g id="text_1">
      <!-- 2012-07 -->
      <g transform="translate(900.017655 983.396875) scale(0.2 -0.2)">
       <defs>
        <path id="DejaVuSans-32" d="M 1228 531 
L 3431 531 
L 3431 0 
L 469 0 
L 469 531 
Q 828 903 1448 1529 
Q 2069 2156 2228 2338 
Q 2531 2678 2651 2914 
Q 2772 3150 2772 3378 
Q 2772 3750 2511 3984 
Q 2250 4219 1831 4219 
Q 1534 4219 1204 4116 
Q 875 4013 500 3803 
L 500 4441 
Q 881 4594 1212 4672 
Q 1544 4750 1819 4750 
Q 2544 4750 2975 4387 
Q 3406 4025 3406 3419 
Q 3406 3131 3298 2873 
Q 3191 2616 2906 2266 
Q 2828 2175 2409 1742 
Q 1991 1309 1228 531 
z
" transform="scale(0.015625)"/>
        <path id="DejaVuSans-30" d="M 2034 4250 
Q 1547 4250 1301 3770 
Q 1056 3291 1056 2328 
Q 1056 1369 1301 889 
Q 1547 409 2034 409 
Q 2525 409 2770 889 
Q 3016 1369 3016 2328 
Q 3016 3291 2770 3770 
Q 2525 4250 2034 4250 
z
M 2034 4750 
Q 2819 4750 3233 4129 
Q 3647 3509 3647 2328 
Q 3647 1150 3233 529 
Q 2819 -91 2034 -91 
Q 1250 -91 836 529 
Q 422 1150 422 2328 
Q 422 3509 836 4129 
Q 1250 4750 2034 4750 
z
" transform="scale(0.015625)"/>
        <path id="DejaVuSans-31" d="M 794 531 
L 1825 531 
L 1825 4091 
L 703 3866 
L 703 4441 
L 1819 4666 
L 2450 4666 
L 2450 531 
L 3481 531 
L 3481 0 
L 794 0 
L 794 531 
z
" transform="scale(0.015625)"/>
        <path id="DejaVuSans-2d" d="M 313 2009 
L 1997 2009 
L 1997 1497 
L 313 1497 
L 313 2009 
z
" transform="scale(0.015625)"/>
        <path id="DejaVuSans-37" d="M 525 4666 
L 3525 4666 
L 3525 4397 
L 1831 0 
L 1172 0 
L 2766 4134 
L 525 4134 
L 525 4666 
z
" transform="scale(0.015625)"/>
       </defs>
       <use xlink:href="#DejaVuSans-32"/>
       <use xlink:href="#DejaVuSans-30" x="63.623047"/>
       <use xlink:href="#DejaVuSans-31" x="127.246094"/>
       <use xlink:href="#DejaVuSans-32" x="190.869141"/>
       <use xlink:href="#DejaVuSans-2d" x="254.492188"/>
       <use xlink:href="#DejaVuSans-30" x="290.576172"/>
       <use xlink:href="#DejaVuSans-37" x="354.199219"/>
      </g>
     </g>
    </g>
    <g id="xtick_2">
     <g id="line2d_2">
      <g>
       <use xlink:href="#m24b25c6a40" x="1313.551805" y="961.2" style="stroke: #000000; stroke-width: 0.8"/>
      </g>
     </g>
     <g id="text_2">
      <!-- 2013-01 -->
      <g transform="translate(1271.768992 983.396875) scale(0.2 -0.2)">
       <defs>
        <path id="DejaVuSans-33" d="M 2597 2516 
Q 3050 2419 3304 2112 
Q 3559 1806 3559 1356 
Q 3559 666 3084 287 
Q 2609 -91 1734 -91 
Q 1441 -91 1130 -33 
Q 819 25 488 141 
L 488 750 
Q 750 597 1062 519 
Q 1375 441 1716 441 
Q 2309 441 2620 675 
Q 2931 909 2931 1356 
Q 2931 1769 2642 2001 
Q 2353 2234 1838 2234 
L 1294 2234 
L 1294 2753 
L 1863 2753 
Q 2328 2753 2575 2939 
Q 2822 3125 2822 3475 
Q 2822 3834 2567 4026 
Q 2313 4219 1838 4219 
Q 1578 4219 1281 4162 
Q 984 4106 628 3988 
L 628 4550 
Q 988 4650 1302 4700 
Q 1616 4750 1894 4750 
Q 2613 4750 3031 4423 
Q 3450 4097 3450 3541 
Q 3450 3153 3228 2886 
Q 3006 2619 2597 2516 
z
" transform="scale(0.015625)"/>
       </defs>
       <use xlink:href="#DejaVuSans-32"/>
       <use xlink:href="#DejaVuSans-30" x="63.623047"/>
       <use xlink:href="#DejaVuSans-31" x="127.246094"/>
       <use xlink:href="#DejaVuSans-33" x="190.869141"/>
       <use xlink:href="#DejaVuSans-2d" x="254.492188"/>
       <use xlink:href="#DejaVuSans-30" x="290.576172"/>
       <use xlink:href="#DejaVuSans-31" x="354.199219"/>
      </g>
     </g>
    </g>
    <g id="xtick_3">
     <g id="line2d_3">
      <g>
       <use xlink:href="#m24b25c6a40" x="1679.241979" y="961.2" style="stroke: #000000; stroke-width: 0.8"/>
      </g>
     </g>
     <g id="text_3">
      <!-- 2013-07 -->
      <g transform="translate(1637.459166 983.396875) scale(0.2 -0.2)">
       <use xlink:href="#DejaVuSans-32"/>
       <use xlink:href="#DejaVuSans-30" x="63.623047"/>
       <use xlink:href="#DejaVuSans-31" x="127.246094"/>
       <use xlink:href="#DejaVuSans-33" x="190.869141"/>
       <use xlink:href="#DejaVuSans-2d" x="254.492188"/>
       <use xlink:href="#DejaVuSans-30" x="290.576172"/>
       <use xlink:href="#DejaVuSans-37" x="354.199219"/>
      </g>
     </g>
    </g>
    <g id="xtick_4">
     <g id="line2d_4">
      <g>
       <use xlink:href="#m24b25c6a40" x="2050.993316" y="961.2" style="stroke: #000000; stroke-width: 0.8"/>
      </g>
     </g>
     <g id="text_4">
      <!-- 2014-01 -->
      <g transform="translate(2009.210503 983.396875) scale(0.2 -0.2)">
       <defs>
        <path id="DejaVuSans-34" d="M 2419 4116 
L 825 1625 
L 2419 1625 
L 2419 4116 
z
M 2253 4666 
L 3047 4666 
L 3047 1625 
L 3713 1625 
L 3713 1100 
L 3047 1100 
L 3047 0 
L 2419 0 
L 2419 1100 
L 313 1100 
L 313 1709 
L 2253 4666 
z
" transform="scale(0.015625)"/>
       </defs>
       <use xlink:href="#DejaVuSans-32"/>
       <use xlink:href="#DejaVuSans-30" x="63.623047"/>
       <use xlink:href="#DejaVuSans-31" x="127.246094"/>
       <use xlink:href="#DejaVuSans-34" x="190.869141"/>
       <use xlink:href="#DejaVuSans-2d" x="254.492188"/>
       <use xlink:href="#DejaVuSans-30" x="290.576172"/>
       <use xlink:href="#DejaVuSans-31" x="354.199219"/>
      </g>
     </g>
    </g>
    <g id="xtick_5">
     <g id="line2d_5">
      <g>
       <use xlink:href="#m24b25c6a40" x="2416.683489" y="961.2" style="stroke: #000000; stroke-width: 0.8"/>
      </g>
     </g>
     <g id="text_5">
      <!-- 2014-07 -->
      <g transform="translate(2374.900677 983.396875) scale(0.2 -0.2)">
       <use xlink:href="#DejaVuSans-32"/>
       <use xlink:href="#DejaVuSans-30" x="63.623047"/>
       <use xlink:href="#DejaVuSans-31" x="127.246094"/>
       <use xlink:href="#DejaVuSans-34" x="190.869141"/>
       <use xlink:href="#DejaVuSans-2d" x="254.492188"/>
       <use xlink:href="#DejaVuSans-30" x="290.576172"/>
       <use xlink:href="#DejaVuSans-37" x="354.199219"/>
      </g>
     </g>
    </g>
    <g id="xtick_6">
     <g id="line2d_6">
      <g>
       <use xlink:href="#m24b25c6a40" x="2788.434826" y="961.2" style="stroke: #000000; stroke-width: 0.8"/>
      </g>
     </g>
     <g id="text_6">
      <!-- 2015-01 -->
      <g transform="translate(2746.652014 983.396875) scale(0.2 -0.2)">
       <defs>
        <path id="DejaVuSans-35" d="M 691 4666 
L 3169 4666 
L 3169 4134 
L 1269 4134 
L 1269 2991 
Q 1406 3038 1543 3061 
Q 1681 3084 1819 3084 
Q 2600 3084 3056 2656 
Q 3513 2228 3513 1497 
Q 3513 744 3044 326 
Q 2575 -91 1722 -91 
Q 1428 -91 1123 -41 
Q 819 9 494 109 
L 494 744 
Q 775 591 1075 516 
Q 1375 441 1709 441 
Q 2250 441 2565 725 
Q 2881 1009 2881 1497 
Q 2881 1984 2565 2268 
Q 2250 2553 1709 2553 
Q 1456 2553 1204 2497 
Q 953 2441 691 2322 
L 691 4666 
z
" transform="scale(0.015625)"/>
       </defs>
       <use xlink:href="#DejaVuSans-32"/>
       <use xlink:href="#DejaVuSans-30" x="63.623047"/>
       <use xlink:href="#DejaVuSans-31" x="127.246094"/>
       <use xlink:href="#DejaVuSans-35" x="190.869141"/>
       <use xlink:href="#DejaVuSans-2d" x="254.492188"/>
       <use xlink:href="#DejaVuSans-30" x="290.576172"/>
       <use xlink:href="#DejaVuSans-31" x="354.199219"/>
      </g>
     </g>
    </g>
    <g id="xtick_7">
     <g id="line2d_7">
      <g>
       <use xlink:href="#m24b25c6a40" x="3154.125" y="961.2" style="stroke: #000000; stroke-width: 0.8"/>
      </g>
     </g>
     <g id="text_7">
      <!-- 2015-07 -->
      <g transform="translate(3112.342188 983.396875) scale(0.2 -0.2)">
       <use xlink:href="#DejaVuSans-32"/>
       <use xlink:href="#DejaVuSans-30" x="63.623047"/>
       <use xlink:href="#DejaVuSans-31" x="127.246094"/>
       <use xlink:href="#DejaVuSans-35" x="190.869141"/>
       <use xlink:href="#DejaVuSans-2d" x="254.492188"/>
       <use xlink:href="#DejaVuSans-30" x="290.576172"/>
       <use xlink:href="#DejaVuSans-37" x="354.199219"/>
      </g>
     </g>
    </g>
    <g id="xtick_8">
     <g id="line2d_8">
      <g>
       <use xlink:href="#m24b25c6a40" x="3525.876337" y="961.2" style="stroke: #000000; stroke-width: 0.8"/>
      </g>
     </g>
     <g id="text_8">
      <!-- 2016-01 -->
      <g transform="translate(3484.093524 983.396875) scale(0.2 -0.2)">
       <defs>
        <path id="DejaVuSans-36" d="M 2113 2584 
Q 1688 2584 1439 2293 
Q 1191 2003 1191 1497 
Q 1191 994 1439 701 
Q 1688 409 2113 409 
Q 2538 409 2786 701 
Q 3034 994 3034 1497 
Q 3034 2003 2786 2293 
Q 2538 2584 2113 2584 
z
M 3366 4563 
L 3366 3988 
Q 3128 4100 2886 4159 
Q 2644 4219 2406 4219 
Q 1781 4219 1451 3797 
Q 1122 3375 1075 2522 
Q 1259 2794 1537 2939 
Q 1816 3084 2150 3084 
Q 2853 3084 3261 2657 
Q 3669 2231 3669 1497 
Q 3669 778 3244 343 
Q 2819 -91 2113 -91 
Q 1303 -91 875 529 
Q 447 1150 447 2328 
Q 447 3434 972 4092 
Q 1497 4750 2381 4750 
Q 2619 4750 2861 4703 
Q 3103 4656 3366 4563 
z
" transform="scale(0.015625)"/>
       </defs>
       <use xlink:href="#DejaVuSans-32"/>
       <use xlink:href="#DejaVuSans-30" x="63.623047"/>
       <use xlink:href="#DejaVuSans-31" x="127.246094"/>
       <use xlink:href="#DejaVuSans-36" x="190.869141"/>
       <use xlink:href="#DejaVuSans-2d" x="254.492188"/>
       <use xlink:href="#DejaVuSans-30" x="290.576172"/>
       <use xlink:href="#DejaVuSans-31" x="354.199219"/>
      </g>
     </g>
    </g>
    <g id="xtick_9">
     <g id="line2d_9">
      <g>
       <use xlink:href="#m24b25c6a40" x="3893.586898" y="961.2" style="stroke: #000000; stroke-width: 0.8"/>
      </g>
     </g>
     <g id="text_9">
      <!-- 2016-07 -->
      <g transform="translate(3851.804086 983.396875) scale(0.2 -0.2)">
       <use xlink:href="#DejaVuSans-32"/>
       <use xlink:href="#DejaVuSans-30" x="63.623047"/>
       <use xlink:href="#DejaVuSans-31" x="127.246094"/>
       <use xlink:href="#DejaVuSans-36" x="190.869141"/>
       <use xlink:href="#DejaVuSans-2d" x="254.492188"/>
       <use xlink:href="#DejaVuSans-30" x="290.576172"/>
       <use xlink:href="#DejaVuSans-37" x="354.199219"/>
      </g>
     </g>
    </g>
    <g id="text_10">
     <!-- Time -->
     <g transform="translate(2374.032813 1006.753125) scale(0.2 -0.2)">
      <defs>
       <path id="DejaVuSans-54" d="M -19 4666 
L 3928 4666 
L 3928 4134 
L 2272 4134 
L 2272 0 
L 1638 0 
L 1638 4134 
L -19 4134 
L -19 4666 
z
" transform="scale(0.015625)"/>
       <path id="DejaVuSans-69" d="M 603 3500 
L 1178 3500 
L 1178 0 
L 603 0 
L 603 3500 
z
M 603 4863 
L 1178 4863 
L 1178 4134 
L 603 4134 
L 603 4863 
z
" transform="scale(0.015625)"/>
       <path id="DejaVuSans-6d" d="M 3328 2828 
Q 3544 3216 3844 3400 
Q 4144 3584 4550 3584 
Q 5097 3584 5394 3201 
Q 5691 2819 5691 2113 
L 5691 0 
L 5113 0 
L 5113 2094 
Q 5113 2597 4934 2840 
Q 4756 3084 4391 3084 
Q 3944 3084 3684 2787 
Q 3425 2491 3425 1978 
L 3425 0 
L 2847 0 
L 2847 2094 
Q 2847 2600 2669 2842 
Q 2491 3084 2119 3084 
Q 1678 3084 1418 2786 
Q 1159 2488 1159 1978 
L 1159 0 
L 581 0 
L 581 3500 
L 1159 3500 
L 1159 2956 
Q 1356 3278 1631 3431 
Q 1906 3584 2284 3584 
Q 2666 3584 2933 3390 
Q 3200 3197 3328 2828 
z
" transform="scale(0.015625)"/>
       <path id="DejaVuSans-65" d="M 3597 1894 
L 3597 1613 
L 953 1613 
Q 991 1019 1311 708 
Q 1631 397 2203 397 
Q 2534 397 2845 478 
Q 3156 559 3463 722 
L 3463 178 
Q 3153 47 2828 -22 
Q 2503 -91 2169 -91 
Q 1331 -91 842 396 
Q 353 884 353 1716 
Q 353 2575 817 3079 
Q 1281 3584 2069 3584 
Q 2775 3584 3186 3129 
Q 3597 2675 3597 1894 
z
M 3022 2063 
Q 3016 2534 2758 2815 
Q 2500 3097 2075 3097 
Q 1594 3097 1305 2825 
Q 1016 2553 972 2059 
L 3022 2063 
z
" transform="scale(0.015625)"/>
      </defs>
      <use xlink:href="#DejaVuSans-54"/>
      <use xlink:href="#DejaVuSans-69" x="57.958984"/>
      <use xlink:href="#DejaVuSans-6d" x="85.742188"/>
      <use xlink:href="#DejaVuSans-65" x="183.154297"/>
     </g>
    </g>
   </g>
   <g id="matplotlib.axis_2">
    <g id="ytick_1">
     <g id="line2d_10">
      <defs>
       <path id="m225ce96289" d="M 0 0 
L -3.5 0 
" style="stroke: #000000; stroke-width: 0.8"/>
      </defs>
      <g>
       <use xlink:href="#m225ce96289" x="585" y="849.870023" style="stroke: #000000; stroke-width: 0.8"/>
      </g>
     </g>
     <g id="text_11">
      <!-- −0.004 -->
      <g transform="translate(503.984375 857.46846) scale(0.2 -0.2)">
       <defs>
        <path id="DejaVuSans-2212" d="M 678 2272 
L 4684 2272 
L 4684 1741 
L 678 1741 
L 678 2272 
z
" transform="scale(0.015625)"/>
        <path id="DejaVuSans-2e" d="M 684 794 
L 1344 794 
L 1344 0 
L 684 0 
L 684 794 
z
" transform="scale(0.015625)"/>
       </defs>
       <use xlink:href="#DejaVuSans-2212"/>
       <use xlink:href="#DejaVuSans-30" x="83.789062"/>
       <use xlink:href="#DejaVuSans-2e" x="147.412109"/>
       <use xlink:href="#DejaVuSans-30" x="179.199219"/>
       <use xlink:href="#DejaVuSans-30" x="242.822266"/>
       <use xlink:href="#DejaVuSans-34" x="306.445312"/>
      </g>
     </g>
    </g>
    <g id="ytick_2">
     <g id="line2d_11">
      <g>
       <use xlink:href="#m225ce96289" x="585" y="705.624687" style="stroke: #000000; stroke-width: 0.8"/>
      </g>
     </g>
     <g id="text_12">
      <!-- −0.002 -->
      <g transform="translate(503.984375 713.223125) scale(0.2 -0.2)">
       <use xlink:href="#DejaVuSans-2212"/>
       <use xlink:href="#DejaVuSans-30" x="83.789062"/>
       <use xlink:href="#DejaVuSans-2e" x="147.412109"/>
       <use xlink:href="#DejaVuSans-30" x="179.199219"/>
       <use xlink:href="#DejaVuSans-30" x="242.822266"/>
       <use xlink:href="#DejaVuSans-32" x="306.445312"/>
      </g>
     </g>
    </g>
    <g id="ytick_3">
     <g id="line2d_12">
      <g>
       <use xlink:href="#m225ce96289" x="585" y="561.379352" style="stroke: #000000; stroke-width: 0.8"/>
      </g>
     </g>
     <g id="text_13">
      <!-- 0.000 -->
      <g transform="translate(520.74375 568.977789) scale(0.2 -0.2)">
       <use xlink:href="#DejaVuSans-30"/>
       <use xlink:href="#DejaVuSans-2e" x="63.623047"/>
       <use xlink:href="#DejaVuSans-30" x="95.410156"/>
       <use xlink:href="#DejaVuSans-30" x="159.033203"/>
       <use xlink:href="#DejaVuSans-30" x="222.65625"/>
      </g>
     </g>
    </g>
    <g id="ytick_4">
     <g id="line2d_13">
      <g>
       <use xlink:href="#m225ce96289" x="585" y="417.134016" style="stroke: #000000; stroke-width: 0.8"/>
      </g>
     </g>
     <g id="text_14">
      <!-- 0.002 -->
      <g transform="translate(520.74375 424.732454) scale(0.2 -0.2)">
       <use xlink:href="#DejaVuSans-30"/>
       <use xlink:href="#DejaVuSans-2e" x="63.623047"/>
       <use xlink:href="#DejaVuSans-30" x="95.410156"/>
       <use xlink:href="#DejaVuSans-30" x="159.033203"/>
       <use xlink:href="#DejaVuSans-32" x="222.65625"/>
      </g>
     </g>
    </g>
    <g id="ytick_5">
     <g id="line2d_14">
      <g>
       <use xlink:href="#m225ce96289" x="585" y="272.888681" style="stroke: #000000; stroke-width: 0.8"/>
      </g>
     </g>
     <g id="text_15">
      <!-- 0.004 -->
      <g transform="translate(520.74375 280.487118) scale(0.2 -0.2)">
       <use xlink:href="#DejaVuSans-30"/>
       <use xlink:href="#DejaVuSans-2e" x="63.623047"/>
       <use xlink:href="#DejaVuSans-30" x="95.410156"/>
       <use xlink:href="#DejaVuSans-30" x="159.033203"/>
       <use xlink:href="#DejaVuSans-34" x="222.65625"/>
      </g>
     </g>
    </g>
    <g id="text_16">
     <!-- East(m) -->
     <g transform="translate(495.825 584.520313) rotate(-90) scale(0.2 -0.2)">
      <defs>
       <path id="DejaVuSans-45" d="M 628 4666 
L 3578 4666 
L 3578 4134 
L 1259 4134 
L 1259 2753 
L 3481 2753 
L 3481 2222 
L 1259 2222 
L 1259 531 
L 3634 531 
L 3634 0 
L 628 0 
L 628 4666 
z
" transform="scale(0.015625)"/>
       <path id="DejaVuSans-61" d="M 2194 1759 
Q 1497 1759 1228 1600 
Q 959 1441 959 1056 
Q 959 750 1161 570 
Q 1363 391 1709 391 
Q 2188 391 2477 730 
Q 2766 1069 2766 1631 
L 2766 1759 
L 2194 1759 
z
M 3341 1997 
L 3341 0 
L 2766 0 
L 2766 531 
Q 2569 213 2275 61 
Q 1981 -91 1556 -91 
Q 1019 -91 701 211 
Q 384 513 384 1019 
Q 384 1609 779 1909 
Q 1175 2209 1959 2209 
L 2766 2209 
L 2766 2266 
Q 2766 2663 2505 2880 
Q 2244 3097 1772 3097 
Q 1472 3097 1187 3025 
Q 903 2953 641 2809 
L 641 3341 
Q 956 3463 1253 3523 
Q 1550 3584 1831 3584 
Q 2591 3584 2966 3190 
Q 3341 2797 3341 1997 
z
" transform="scale(0.015625)"/>
       <path id="DejaVuSans-73" d="M 2834 3397 
L 2834 2853 
Q 2591 2978 2328 3040 
Q 2066 3103 1784 3103 
Q 1356 3103 1142 2972 
Q 928 2841 928 2578 
Q 928 2378 1081 2264 
Q 1234 2150 1697 2047 
L 1894 2003 
Q 2506 1872 2764 1633 
Q 3022 1394 3022 966 
Q 3022 478 2636 193 
Q 2250 -91 1575 -91 
Q 1294 -91 989 -36 
Q 684 19 347 128 
L 347 722 
Q 666 556 975 473 
Q 1284 391 1588 391 
Q 1994 391 2212 530 
Q 2431 669 2431 922 
Q 2431 1156 2273 1281 
Q 2116 1406 1581 1522 
L 1381 1569 
Q 847 1681 609 1914 
Q 372 2147 372 2553 
Q 372 3047 722 3315 
Q 1072 3584 1716 3584 
Q 2034 3584 2315 3537 
Q 2597 3491 2834 3397 
z
" transform="scale(0.015625)"/>
       <path id="DejaVuSans-74" d="M 1172 4494 
L 1172 3500 
L 2356 3500 
L 2356 3053 
L 1172 3053 
L 1172 1153 
Q 1172 725 1289 603 
Q 1406 481 1766 481 
L 2356 481 
L 2356 0 
L 1766 0 
Q 1100 0 847 248 
Q 594 497 594 1153 
L 594 3053 
L 172 3053 
L 172 3500 
L 594 3500 
L 594 4494 
L 1172 4494 
z
" transform="scale(0.015625)"/>
       <path id="DejaVuSans-28" d="M 1984 4856 
Q 1566 4138 1362 3434 
Q 1159 2731 1159 2009 
Q 1159 1288 1364 580 
Q 1569 -128 1984 -844 
L 1484 -844 
Q 1016 -109 783 600 
Q 550 1309 550 2009 
Q 550 2706 781 3412 
Q 1013 4119 1484 4856 
L 1984 4856 
z
" transform="scale(0.015625)"/>
       <path id="DejaVuSans-29" d="M 513 4856 
L 1013 4856 
Q 1481 4119 1714 3412 
Q 1947 2706 1947 2009 
Q 1947 1309 1714 600 
Q 1481 -109 1013 -844 
L 513 -844 
Q 928 -128 1133 580 
Q 1338 1288 1338 2009 
Q 1338 2731 1133 3434 
Q 928 4138 513 4856 
z
" transform="scale(0.015625)"/>
      </defs>
      <use xlink:href="#DejaVuSans-45"/>
      <use xlink:href="#DejaVuSans-61" x="63.183594"/>
      <use xlink:href="#DejaVuSans-73" x="124.462891"/>
      <use xlink:href="#DejaVuSans-74" x="176.5625"/>
      <use xlink:href="#DejaVuSans-28" x="215.771484"/>
      <use xlink:href="#DejaVuSans-6d" x="254.785156"/>
      <use xlink:href="#DejaVuSans-29" x="352.197266"/>
     </g>
    </g>
   </g>
   <g id="line2d_15">
    <path d="M 749.863636 903.841773 
L 753.904412 919.150102 
L 755.924799 918.515091 
L 761.985963 895.416851 
L 764.00635 873.813449 
L 766.026738 863.408609 
L 770.067513 839.52073 
L 772.087901 843.223403 
L 774.108289 831.122122 
L 776.128676 837.565517 
L 790.27139 855.550075 
L 792.291778 846.012697 
L 794.312166 819.886718 
L 796.332553 811.735241 
L 798.352941 812.317347 
L 802.393717 794.454344 
L 808.45488 827.499178 
L 810.475267 833.280158 
L 812.495655 815.817188 
L 824.617981 835.89534 
L 830.679144 872.335516 
L 832.699532 867.802543 
L 834.71992 864.978038 
L 836.740307 847.084129 
L 844.821858 883.953622 
L 850.883021 909.568381 
L 852.903409 900.593333 
L 854.923797 900.284941 
L 856.944184 861.143731 
L 860.98496 847.319638 
L 863.005348 852.039014 
L 865.025735 853.497324 
L 867.046123 872.051445 
L 869.066511 854.65651 
L 873.107286 843.015088 
L 875.127674 832.107692 
L 877.148061 816.231088 
L 879.168449 821.103242 
L 885.229612 820.682593 
L 889.270388 863.322034 
L 891.290775 865.041859 
L 893.311163 883.28214 
L 895.331551 891.074746 
L 897.351939 909.712208 
L 899.372326 923.4 
L 901.392714 892.937464 
L 903.413102 901.296062 
L 905.433489 898.300619 
L 907.453877 867.619665 
L 909.474265 868.082875 
L 913.51504 836.288249 
L 915.535428 847.138855 
L 917.555816 850.463987 
L 921.596591 874.863723 
L 933.718917 908.959034 
L 937.759693 887.497121 
L 1044.840241 768.694685 
L 1046.860628 715.717248 
L 1048.881016 680.940992 
L 1212.53242 239.478762 
L 1214.552807 233.088068 
L 1216.573195 220.79582 
L 1226.675134 224.062287 
L 1230.715909 208.956112 
L 1232.736297 215.315126 
L 1234.756684 237.424671 
L 1236.777072 242.693062 
L 1238.79746 248.667775 
L 1240.817848 266.1915 
L 1242.838235 254.363884 
L 1333.755682 257.633392 
L 1335.77607 242.635067 
L 1337.796457 231.959655 
L 1341.837233 199.676854 
L 1372.143048 251.505129 
L 1374.163436 251.379647 
L 1376.183824 255.215697 
L 1378.204211 260.974398 
L 1382.244987 246.691483 
L 1384.265374 244.37346 
L 1386.285762 234.778057 
L 1390.326537 218.843353 
L 1392.346925 196.790739 
L 1394.367313 185.663303 
L 1402.448864 170.180583 
L 1404.469251 167.4 
L 1406.489639 189.925306 
L 1412.550802 265.824365 
L 1414.57119 274.615225 
L 1416.591578 271.396362 
L 1418.611965 293.275749 
L 1420.632353 300.404566 
L 1424.673128 294.23429 
L 1426.693516 297.752603 
L 1428.713904 295.258032 
L 1432.754679 293.199099 
L 1434.775067 290.414023 
L 1436.795455 282.49357 
L 1444.877005 218.404042 
L 1446.897393 209.913791 
L 1454.978944 219.378589 
L 1456.999332 279.923421 
L 1459.019719 280.479157 
L 1461.040107 272.533777 
L 1463.060495 259.295856 
L 1465.080882 258.72381 
L 1469.121658 278.759728 
L 1471.142045 274.210006 
L 1473.162433 259.216022 
L 1475.182821 269.990575 
L 1479.223596 264.757886 
L 1481.243984 276.965975 
L 1483.264372 275.299911 
L 1485.284759 275.376277 
L 1487.305147 300.200357 
L 1489.325535 305.488273 
L 1491.345922 272.46005 
L 1493.36631 278.850683 
L 1495.386698 275.756586 
L 1497.407086 252.938483 
L 1501.447861 220.136234 
L 1669.14004 413.854794 
L 1673.180816 385.681528 
L 1677.221591 385.897633 
L 1681.262366 383.573021 
L 1683.282754 392.839219 
L 1689.343917 434.476262 
L 1691.364305 422.592156 
L 1693.384693 402.973648 
L 1697.425468 373.29982 
L 1699.445856 374.294174 
L 1703.486631 359.671387 
L 1705.507019 365.329239 
L 1707.527406 389.185587 
L 1719.649733 477.616953 
L 1723.690508 447.345473 
L 1727.731283 393.553972 
L 1729.751671 385.053692 
L 1731.772059 383.715592 
L 1735.812834 406.089131 
L 1739.85361 432.559742 
L 1741.873997 436.738683 
L 1743.894385 436.67135 
L 1749.955548 447.358958 
L 1751.975936 422.568778 
L 1753.996324 418.439558 
L 1756.016711 435.439372 
L 1758.037099 444.777945 
L 1766.11865 419.309855 
L 1768.139037 442.126313 
L 1780.261364 452.6725 
L 1782.281751 424.018908 
L 1784.302139 444.062062 
L 1786.322527 467.26521 
L 1788.342914 493.165096 
L 1790.363302 532.019251 
L 1792.38369 521.091877 
L 1794.404078 474.979862 
L 1796.424465 473.798565 
L 1806.526404 350.935543 
L 1808.546791 366.806462 
L 1810.567179 363.841048 
L 1812.587567 357.207604 
L 1814.607955 347.337084 
L 1816.628342 346.435564 
L 1818.64873 367.754558 
L 1822.689505 387.098889 
L 1824.709893 415.390818 
L 1826.730281 430.478333 
L 1828.750668 427.344202 
L 1830.771056 430.916588 
L 1832.791444 426.120926 
L 1834.811832 443.271407 
L 1836.832219 432.959205 
L 1838.852607 418.139142 
L 1954.014706 349.11807 
L 1958.055481 314.528907 
L 1960.075869 329.062241 
L 1962.096257 323.717265 
L 1964.116644 275.441841 
L 1966.137032 260.79524 
L 1968.15742 249.396514 
L 1970.177807 276.943624 
L 1980.279746 331.574799 
L 1982.300134 344.409934 
L 1988.361297 346.863195 
L 1990.381684 302.795771 
L 1992.402072 302.4077 
L 1994.42246 312.014656 
L 1996.442848 305.129847 
L 2000.483623 278.475517 
L 2073.21758 333.60789 
L 2075.237968 343.416841 
L 2079.278743 350.816773 
L 2081.299131 336.244265 
L 2109.584559 270.944443 
L 2438.907754 358.713983 
L 2440.928142 371.973831 
L 2442.948529 322.547799 
L 2444.968917 305.889284 
L 2449.009693 361.337871 
L 2467.193182 424.091876 
L 3178.369652 816.67967 
L 3180.39004 708.158831 
L 3182.410428 676.509034 
L 3184.430816 572.152019 
L 3186.451203 668.162133 
L 3188.471591 613.033855 
L 3194.532754 633.119764 
L 3206.65508 806.948045 
L 3210.695856 846.44131 
L 3212.716243 787.928193 
L 3214.736631 738.50873 
L 3216.757019 647.576156 
L 3220.797794 614.58197 
L 3228.879345 591.189233 
L 3230.899733 639.093718 
L 3253.123997 494.79701 
L 3257.164773 541.70921 
L 3259.18516 591.731506 
L 3261.205548 552.77055 
L 3265.246324 536.490376 
L 3267.266711 513.915394 
L 3269.287099 427.277065 
L 3277.36865 442.861995 
L 3285.450201 470.515871 
L 3287.470588 468.150429 
L 3289.490976 436.275306 
L 3291.511364 427.397717 
L 3293.531751 417.364632 
L 3295.552139 402.664412 
L 3297.572527 380.568326 
L 3299.592914 344.941085 
L 3301.613302 338.489461 
L 3303.63369 351.468304 
L 3309.694853 371.392017 
L 3315.756016 419.881418 
L 3317.776404 446.856284 
L 3319.796791 436.016277 
L 3321.817179 464.952456 
L 3323.837567 486.079292 
L 3325.857955 472.608754 
L 3327.878342 490.403246 
L 3329.89873 462.340163 
L 3331.919118 439.949332 
L 3340.000668 441.184691 
L 3342.021056 432.529094 
L 3344.041444 465.86384 
L 3346.061832 467.415575 
L 3348.082219 470.159035 
L 3350.102607 477.462338 
L 3352.122995 487.27568 
L 3354.143382 488.058816 
L 3356.16377 487.762125 
L 3358.184158 446.941869 
L 3360.204545 442.679206 
L 3362.224933 415.500282 
L 3364.245321 409.287363 
L 3366.265709 395.06604 
L 3368.286096 390.235638 
L 3370.306484 401.315934 
L 3372.326872 414.658329 
L 3374.347259 430.239393 
L 3376.367647 456.754905 
L 3400.612299 458.575533 
L 3402.632687 466.871213 
L 3404.653075 469.563558 
L 3406.673463 473.81656 
L 3410.714238 447.666664 
L 3412.734626 446.736446 
L 3414.755013 449.114498 
L 3416.775401 443.577493 
L 3418.795789 440.394508 
L 3420.816176 428.580817 
L 3422.836564 409.791057 
L 3424.856952 429.289211 
L 3426.87734 434.433095 
L 3428.897727 430.352693 
L 3430.918115 433.523481 
L 3432.938503 432.541734 
L 3434.95889 439.230968 
L 3436.979278 425.174697 
L 3438.999666 383.515149 
L 3441.020053 377.478106 
L 3443.040441 375.435437 
L 3445.060829 356.16683 
L 3447.081217 350.267665 
L 3449.101604 335.923148 
L 3451.121992 367.551139 
L 3453.14238 417.848976 
L 3455.162767 429.471683 
L 3457.183155 420.370755 
L 3459.203543 446.740101 
L 3461.22393 437.642241 
L 3463.244318 447.967639 
L 3465.264706 448.925426 
L 3467.285094 448.653055 
L 3469.305481 433.401688 
L 3471.325869 444.435793 
L 3473.346257 430.31358 
L 3475.366644 437.912633 
L 3477.387032 435.992392 
L 3479.40742 428.030703 
L 3481.427807 417.141059 
L 3483.448195 447.708824 
L 3485.468583 453.067399 
L 3487.488971 442.375199 
L 3489.509358 435.271359 
L 3491.529746 432.570898 
L 3493.550134 434.287561 
L 3497.590909 403.501083 
L 3499.611297 401.615407 
L 3505.67246 437.276288 
L 3507.692848 430.444667 
L 3509.713235 433.754978 
L 3511.733623 428.102846 
L 3513.754011 425.826458 
L 3515.774398 424.852617 
L 3517.794786 432.761793 
L 3519.815174 438.776855 
L 3521.835561 438.357765 
L 3523.855949 443.242769 
L 3527.896725 428.16917 
L 3529.917112 413.16035 
L 3531.9375 407.383437 
L 3533.957888 402.811305 
L 3535.978275 403.7889 
L 3537.998663 413.753458 
L 3540.019051 416.339164 
L 3542.039439 423.461781 
L 3544.059826 442.168076 
L 3548.100602 432.401204 
L 3550.120989 436.548577 
L 3552.141377 429.792567 
L 3554.161765 445.841652 
L 3556.182152 451.92216 
L 3558.20254 449.262688 
L 3560.222928 459.31258 
L 3564.263703 418.888661 
L 3566.284091 390.104601 
L 3568.304479 347.727859 
L 3570.324866 361.518096 
L 3572.345254 347.279834 
L 3582.447193 453.975928 
L 3584.46758 444.381404 
L 3586.487968 465.401493 
L 3590.528743 466.311611 
L 3592.549131 471.33181 
L 3594.569519 470.72654 
L 3596.589906 448.909163 
L 3598.610294 448.749039 
L 3600.630682 433.071849 
L 3602.65107 421.702566 
L 3604.671457 429.831229 
L 3647.099599 444.154818 
L 3649.119987 448.866965 
L 3653.160762 460.285932 
L 3659.221925 453.325487 
L 3661.242313 438.834844 
L 3663.262701 431.356736 
L 3665.283088 426.949938 
L 3667.303476 427.042533 
L 3669.323864 437.573478 
L 3671.344251 449.780933 
L 3673.364639 449.353421 
L 3675.385027 458.865876 
L 3677.405414 474.626652 
L 3679.425802 493.469533 
L 3681.44619 492.960423 
L 3683.466578 503.021157 
L 3685.486965 494.284294 
L 3687.507353 501.202119 
L 3689.527741 483.46448 
L 3691.548128 473.802942 
L 3693.568516 443.415868 
L 3695.588904 441.792301 
L 3697.609291 413.22239 
L 3703.670455 447.821239 
L 3705.690842 446.081957 
L 3707.71123 451.434247 
L 3711.752005 488.84728 
L 3713.772393 494.459377 
L 3715.792781 472.818102 
L 3717.813168 505.847299 
L 3719.833556 508.285137 
L 3721.853944 505.694441 
L 3723.874332 500.441404 
L 3725.894719 509.636514 
L 3727.915107 502.41014 
L 3729.935495 505.715953 
L 3733.97627 462.044593 
L 3735.996658 470.405568 
L 3738.017045 460.249398 
L 3740.037433 453.174778 
L 3744.078209 482.900746 
L 3746.098596 489.145212 
L 3748.118984 497.348032 
L 3750.139372 495.769518 
L 3752.159759 510.458546 
L 3756.200535 536.339946 
L 3758.220922 519.345608 
L 3760.24131 506.242505 
L 3762.261698 502.876721 
L 3764.282086 500.214786 
L 3766.302473 475.323922 
L 3768.322861 454.116418 
L 3772.363636 408.661209 
L 3774.384024 421.019225 
L 3776.404412 450.554006 
L 3778.424799 456.656122 
L 3780.445187 461.402199 
L 3786.50635 460.248583 
L 3788.526738 478.221271 
L 3790.547126 451.11044 
L 3792.567513 464.008328 
L 3794.587901 489.889378 
L 3796.608289 510.777073 
L 3798.628676 528.51567 
L 3952.178142 587.822693 
L 3954.198529 581.40549 
L 3956.218917 578.498872 
L 3958.239305 598.308649 
L 3960.259693 605.622379 
L 3970.361631 685.678052 
L 3972.382019 709.770241 
L 3978.443182 748.950129 
L 3980.46357 721.063357 
L 3982.483957 748.619883 
L 3984.504345 791.422103 
L 3986.524733 788.114233 
L 3988.54512 779.609778 
L 3990.565508 765.160703 
L 3996.626671 800.681316 
L 4002.687834 743.206797 
L 4004.708222 764.010359 
L 4008.748997 730.18211 
L 4010.769385 733.113636 
L 4014.81016 775.413266 
L 4016.830548 747.928942 
L 4018.850936 726.178973 
L 4020.871324 749.71798 
L 4030.973262 806.794992 
L 4032.99365 841.854649 
L 4035.014037 849.202882 
L 4037.034425 850.754059 
L 4039.054813 824.220107 
L 4041.075201 829.129667 
L 4043.095588 814.722733 
L 4045.115976 815.839732 
L 4047.136364 805.820299 
L 4047.136364 805.820299 
" clip-path="url(#p6e65d91b40)" style="fill: none; stroke: #023eff; stroke-width: 2.5; stroke-linecap: square"/>
   </g>
   <g id="patch_3">
    <path d="M 585 961.2 
L 585 129.6 
" style="fill: none; stroke: #000000; stroke-width: 0.8; stroke-linejoin: miter; stroke-linecap: square"/>
   </g>
   <g id="patch_4">
    <path d="M 4212 961.2 
L 4212 129.6 
" style="fill: none; stroke: #000000; stroke-width: 0.8; stroke-linejoin: miter; stroke-linecap: square"/>
   </g>
   <g id="patch_5">
    <path d="M 585 961.2 
L 4212 961.2 
" style="fill: none; stroke: #000000; stroke-width: 0.8; stroke-linejoin: miter; stroke-linecap: square"/>
   </g>
   <g id="patch_6">
    <path d="M 585 129.6 
L 4212 129.6 
" style="fill: none; stroke: #000000; stroke-width: 0.8; stroke-linejoin: miter; stroke-linecap: square"/>
   </g>
   <g id="text_17">
    <!-- SUSE -->
    <g transform="translate(2358.998437 123.360937) scale(0.3 -0.3)">
     <defs>
      <path id="DejaVuSans-53" d="M 3425 4513 
L 3425 3897 
Q 3066 4069 2747 4153 
Q 2428 4238 2131 4238 
Q 1616 4238 1336 4038 
Q 1056 3838 1056 3469 
Q 1056 3159 1242 3001 
Q 1428 2844 1947 2747 
L 2328 2669 
Q 3034 2534 3370 2195 
Q 3706 1856 3706 1288 
Q 3706 609 3251 259 
Q 2797 -91 1919 -91 
Q 1588 -91 1214 -16 
Q 841 59 441 206 
L 441 856 
Q 825 641 1194 531 
Q 1563 422 1919 422 
Q 2459 422 2753 634 
Q 3047 847 3047 1241 
Q 3047 1584 2836 1778 
Q 2625 1972 2144 2069 
L 1759 2144 
Q 1053 2284 737 2584 
Q 422 2884 422 3419 
Q 422 4038 858 4394 
Q 1294 4750 2059 4750 
Q 2388 4750 2728 4690 
Q 3069 4631 3425 4513 
z
" transform="scale(0.015625)"/>
      <path id="DejaVuSans-55" d="M 556 4666 
L 1191 4666 
L 1191 1831 
Q 1191 1081 1462 751 
Q 1734 422 2344 422 
Q 2950 422 3222 751 
Q 3494 1081 3494 1831 
L 3494 4666 
L 4128 4666 
L 4128 1753 
Q 4128 841 3676 375 
Q 3225 -91 2344 -91 
Q 1459 -91 1007 375 
Q 556 841 556 1753 
L 556 4666 
z
" transform="scale(0.015625)"/>
     </defs>
     <use xlink:href="#DejaVuSans-53"/>
     <use xlink:href="#DejaVuSans-55" x="63.476562"/>
     <use xlink:href="#DejaVuSans-53" x="136.669922"/>
     <use xlink:href="#DejaVuSans-45" x="200.146484"/>
    </g>
   </g>
   <g id="legend_1">
    <g id="patch_7">
     <path d="M 4150.090625 152.278125 
L 4205 152.278125 
Q 4207 152.278125 4207 150.278125 
L 4207 136.6 
Q 4207 134.6 4205 134.6 
L 4150.090625 134.6 
Q 4148.090625 134.6 4148.090625 136.6 
L 4148.090625 150.278125 
Q 4148.090625 152.278125 4150.090625 152.278125 
z
" style="fill: #ffffff; opacity: 0.8; stroke: #cccccc; stroke-linejoin: miter"/>
    </g>
    <g id="line2d_16">
     <path d="M 4152.090625 142.698438 
L 4162.090625 142.698438 
L 4172.090625 142.698438 
" style="fill: none; stroke: #023eff; stroke-width: 2.5; stroke-linecap: square"/>
    </g>
    <g id="text_18">
     <!-- suse -->
     <g transform="translate(4180.090625 146.198438) scale(0.1 -0.1)">
      <defs>
       <path id="DejaVuSans-75" d="M 544 1381 
L 544 3500 
L 1119 3500 
L 1119 1403 
Q 1119 906 1312 657 
Q 1506 409 1894 409 
Q 2359 409 2629 706 
Q 2900 1003 2900 1516 
L 2900 3500 
L 3475 3500 
L 3475 0 
L 2900 0 
L 2900 538 
Q 2691 219 2414 64 
Q 2138 -91 1772 -91 
Q 1169 -91 856 284 
Q 544 659 544 1381 
z
M 1991 3584 
L 1991 3584 
z
" transform="scale(0.015625)"/>
      </defs>
      <use xlink:href="#DejaVuSans-73"/>
      <use xlink:href="#DejaVuSans-75" x="52.099609"/>
      <use xlink:href="#DejaVuSans-73" x="115.478516"/>
      <use xlink:href="#DejaVuSans-65" x="167.578125"/>
     </g>
    </g>
   </g>
  </g>
 </g>
 <defs>
  <clipPath id="p6e65d91b40">
   <rect x="585" y="129.6" width="3627" height="831.6"/>
  </clipPath>
 </defs>
</svg>
