<?xml version="1.0" encoding="utf-8" standalone="no"?>
<!DOCTYPE svg PUBLIC "-//W3C//DTD SVG 1.1//EN"
  "http://www.w3.org/Graphics/SVG/1.1/DTD/svg11.dtd">
<svg xmlns:xlink="http://www.w3.org/1999/xlink" width="4680pt" height="1080pt" viewBox="0 0 4680 1080" xmlns="http://www.w3.org/2000/svg" version="1.1">
 <metadata>
  <rdf:RDF xmlns:dc="http://purl.org/dc/elements/1.1/" xmlns:cc="http://creativecommons.org/ns#" xmlns:rdf="http://www.w3.org/1999/02/22-rdf-syntax-ns#">
   <cc:Work>
    <dc:type rdf:resource="http://purl.org/dc/dcmitype/StillImage"/>
    <dc:date>2024-03-25T14:09:21.110414</dc:date>
    <dc:format>image/svg+xml</dc:format>
    <dc:creator>
     <cc:Agent>
      <dc:title>Matplotlib v3.7.2, https://matplotlib.org/</dc:title>
     </cc:Agent>
    </dc:creator>
   </cc:Work>
  </rdf:RDF>
 </metadata>
 <defs>
  <style type="text/css">*{stroke-linejoin: round; stroke-linecap: butt}</style>
 </defs>
 <g id="figure_1">
  <g id="patch_1">
   <path d="M 0 1080 
L 4680 1080 
L 4680 0 
L 0 0 
z
" style="fill: #ffffff"/>
  </g>
  <g id="axes_1">
   <g id="patch_2">
    <path d="M 585 961.2 
L 4212 961.2 
L 4212 129.6 
L 585 129.6 
z
" style="fill: #ffffff"/>
   </g>
   <g id="matplotlib.axis_1">
    <g id="xtick_1">
     <g id="line2d_1">
      <defs>
       <path id="mab809e9c2b" d="M 0 0 
L 0 3.5 
" style="stroke: #000000; stroke-width: 0.8"/>
      </defs>
      <g>
       <use xlink:href="#mab809e9c2b" x="941.800468" y="961.2" style="stroke: #000000; stroke-width: 0.8"/>
      </g>
     </g>
     <g id="text_1">
      <!-- 2012-07 -->
      <g transform="translate(900.017655 983.396875) scale(0.2 -0.2)">
       <defs>
        <path id="DejaVuSans-32" d="M 1228 531 
L 3431 531 
L 3431 0 
L 469 0 
L 469 531 
Q 828 903 1448 1529 
Q 2069 2156 2228 2338 
Q 2531 2678 2651 2914 
Q 2772 3150 2772 3378 
Q 2772 3750 2511 3984 
Q 2250 4219 1831 4219 
Q 1534 4219 1204 4116 
Q 875 4013 500 3803 
L 500 4441 
Q 881 4594 1212 4672 
Q 1544 4750 1819 4750 
Q 2544 4750 2975 4387 
Q 3406 4025 3406 3419 
Q 3406 3131 3298 2873 
Q 3191 2616 2906 2266 
Q 2828 2175 2409 1742 
Q 1991 1309 1228 531 
z
" transform="scale(0.015625)"/>
        <path id="DejaVuSans-30" d="M 2034 4250 
Q 1547 4250 1301 3770 
Q 1056 3291 1056 2328 
Q 1056 1369 1301 889 
Q 1547 409 2034 409 
Q 2525 409 2770 889 
Q 3016 1369 3016 2328 
Q 3016 3291 2770 3770 
Q 2525 4250 2034 4250 
z
M 2034 4750 
Q 2819 4750 3233 4129 
Q 3647 3509 3647 2328 
Q 3647 1150 3233 529 
Q 2819 -91 2034 -91 
Q 1250 -91 836 529 
Q 422 1150 422 2328 
Q 422 3509 836 4129 
Q 1250 4750 2034 4750 
z
" transform="scale(0.015625)"/>
        <path id="DejaVuSans-31" d="M 794 531 
L 1825 531 
L 1825 4091 
L 703 3866 
L 703 4441 
L 1819 4666 
L 2450 4666 
L 2450 531 
L 3481 531 
L 3481 0 
L 794 0 
L 794 531 
z
" transform="scale(0.015625)"/>
        <path id="DejaVuSans-2d" d="M 313 2009 
L 1997 2009 
L 1997 1497 
L 313 1497 
L 313 2009 
z
" transform="scale(0.015625)"/>
        <path id="DejaVuSans-37" d="M 525 4666 
L 3525 4666 
L 3525 4397 
L 1831 0 
L 1172 0 
L 2766 4134 
L 525 4134 
L 525 4666 
z
" transform="scale(0.015625)"/>
       </defs>
       <use xlink:href="#DejaVuSans-32"/>
       <use xlink:href="#DejaVuSans-30" x="63.623047"/>
       <use xlink:href="#DejaVuSans-31" x="127.246094"/>
       <use xlink:href="#DejaVuSans-32" x="190.869141"/>
       <use xlink:href="#DejaVuSans-2d" x="254.492188"/>
       <use xlink:href="#DejaVuSans-30" x="290.576172"/>
       <use xlink:href="#DejaVuSans-37" x="354.199219"/>
      </g>
     </g>
    </g>
    <g id="xtick_2">
     <g id="line2d_2">
      <g>
       <use xlink:href="#mab809e9c2b" x="1313.551805" y="961.2" style="stroke: #000000; stroke-width: 0.8"/>
      </g>
     </g>
     <g id="text_2">
      <!-- 2013-01 -->
      <g transform="translate(1271.768992 983.396875) scale(0.2 -0.2)">
       <defs>
        <path id="DejaVuSans-33" d="M 2597 2516 
Q 3050 2419 3304 2112 
Q 3559 1806 3559 1356 
Q 3559 666 3084 287 
Q 2609 -91 1734 -91 
Q 1441 -91 1130 -33 
Q 819 25 488 141 
L 488 750 
Q 750 597 1062 519 
Q 1375 441 1716 441 
Q 2309 441 2620 675 
Q 2931 909 2931 1356 
Q 2931 1769 2642 2001 
Q 2353 2234 1838 2234 
L 1294 2234 
L 1294 2753 
L 1863 2753 
Q 2328 2753 2575 2939 
Q 2822 3125 2822 3475 
Q 2822 3834 2567 4026 
Q 2313 4219 1838 4219 
Q 1578 4219 1281 4162 
Q 984 4106 628 3988 
L 628 4550 
Q 988 4650 1302 4700 
Q 1616 4750 1894 4750 
Q 2613 4750 3031 4423 
Q 3450 4097 3450 3541 
Q 3450 3153 3228 2886 
Q 3006 2619 2597 2516 
z
" transform="scale(0.015625)"/>
       </defs>
       <use xlink:href="#DejaVuSans-32"/>
       <use xlink:href="#DejaVuSans-30" x="63.623047"/>
       <use xlink:href="#DejaVuSans-31" x="127.246094"/>
       <use xlink:href="#DejaVuSans-33" x="190.869141"/>
       <use xlink:href="#DejaVuSans-2d" x="254.492188"/>
       <use xlink:href="#DejaVuSans-30" x="290.576172"/>
       <use xlink:href="#DejaVuSans-31" x="354.199219"/>
      </g>
     </g>
    </g>
    <g id="xtick_3">
     <g id="line2d_3">
      <g>
       <use xlink:href="#mab809e9c2b" x="1679.241979" y="961.2" style="stroke: #000000; stroke-width: 0.8"/>
      </g>
     </g>
     <g id="text_3">
      <!-- 2013-07 -->
      <g transform="translate(1637.459166 983.396875) scale(0.2 -0.2)">
       <use xlink:href="#DejaVuSans-32"/>
       <use xlink:href="#DejaVuSans-30" x="63.623047"/>
       <use xlink:href="#DejaVuSans-31" x="127.246094"/>
       <use xlink:href="#DejaVuSans-33" x="190.869141"/>
       <use xlink:href="#DejaVuSans-2d" x="254.492188"/>
       <use xlink:href="#DejaVuSans-30" x="290.576172"/>
       <use xlink:href="#DejaVuSans-37" x="354.199219"/>
      </g>
     </g>
    </g>
    <g id="xtick_4">
     <g id="line2d_4">
      <g>
       <use xlink:href="#mab809e9c2b" x="2050.993316" y="961.2" style="stroke: #000000; stroke-width: 0.8"/>
      </g>
     </g>
     <g id="text_4">
      <!-- 2014-01 -->
      <g transform="translate(2009.210503 983.396875) scale(0.2 -0.2)">
       <defs>
        <path id="DejaVuSans-34" d="M 2419 4116 
L 825 1625 
L 2419 1625 
L 2419 4116 
z
M 2253 4666 
L 3047 4666 
L 3047 1625 
L 3713 1625 
L 3713 1100 
L 3047 1100 
L 3047 0 
L 2419 0 
L 2419 1100 
L 313 1100 
L 313 1709 
L 2253 4666 
z
" transform="scale(0.015625)"/>
       </defs>
       <use xlink:href="#DejaVuSans-32"/>
       <use xlink:href="#DejaVuSans-30" x="63.623047"/>
       <use xlink:href="#DejaVuSans-31" x="127.246094"/>
       <use xlink:href="#DejaVuSans-34" x="190.869141"/>
       <use xlink:href="#DejaVuSans-2d" x="254.492188"/>
       <use xlink:href="#DejaVuSans-30" x="290.576172"/>
       <use xlink:href="#DejaVuSans-31" x="354.199219"/>
      </g>
     </g>
    </g>
    <g id="xtick_5">
     <g id="line2d_5">
      <g>
       <use xlink:href="#mab809e9c2b" x="2416.683489" y="961.2" style="stroke: #000000; stroke-width: 0.8"/>
      </g>
     </g>
     <g id="text_5">
      <!-- 2014-07 -->
      <g transform="translate(2374.900677 983.396875) scale(0.2 -0.2)">
       <use xlink:href="#DejaVuSans-32"/>
       <use xlink:href="#DejaVuSans-30" x="63.623047"/>
       <use xlink:href="#DejaVuSans-31" x="127.246094"/>
       <use xlink:href="#DejaVuSans-34" x="190.869141"/>
       <use xlink:href="#DejaVuSans-2d" x="254.492188"/>
       <use xlink:href="#DejaVuSans-30" x="290.576172"/>
       <use xlink:href="#DejaVuSans-37" x="354.199219"/>
      </g>
     </g>
    </g>
    <g id="xtick_6">
     <g id="line2d_6">
      <g>
       <use xlink:href="#mab809e9c2b" x="2788.434826" y="961.2" style="stroke: #000000; stroke-width: 0.8"/>
      </g>
     </g>
     <g id="text_6">
      <!-- 2015-01 -->
      <g transform="translate(2746.652014 983.396875) scale(0.2 -0.2)">
       <defs>
        <path id="DejaVuSans-35" d="M 691 4666 
L 3169 4666 
L 3169 4134 
L 1269 4134 
L 1269 2991 
Q 1406 3038 1543 3061 
Q 1681 3084 1819 3084 
Q 2600 3084 3056 2656 
Q 3513 2228 3513 1497 
Q 3513 744 3044 326 
Q 2575 -91 1722 -91 
Q 1428 -91 1123 -41 
Q 819 9 494 109 
L 494 744 
Q 775 591 1075 516 
Q 1375 441 1709 441 
Q 2250 441 2565 725 
Q 2881 1009 2881 1497 
Q 2881 1984 2565 2268 
Q 2250 2553 1709 2553 
Q 1456 2553 1204 2497 
Q 953 2441 691 2322 
L 691 4666 
z
" transform="scale(0.015625)"/>
       </defs>
       <use xlink:href="#DejaVuSans-32"/>
       <use xlink:href="#DejaVuSans-30" x="63.623047"/>
       <use xlink:href="#DejaVuSans-31" x="127.246094"/>
       <use xlink:href="#DejaVuSans-35" x="190.869141"/>
       <use xlink:href="#DejaVuSans-2d" x="254.492188"/>
       <use xlink:href="#DejaVuSans-30" x="290.576172"/>
       <use xlink:href="#DejaVuSans-31" x="354.199219"/>
      </g>
     </g>
    </g>
    <g id="xtick_7">
     <g id="line2d_7">
      <g>
       <use xlink:href="#mab809e9c2b" x="3154.125" y="961.2" style="stroke: #000000; stroke-width: 0.8"/>
      </g>
     </g>
     <g id="text_7">
      <!-- 2015-07 -->
      <g transform="translate(3112.342188 983.396875) scale(0.2 -0.2)">
       <use xlink:href="#DejaVuSans-32"/>
       <use xlink:href="#DejaVuSans-30" x="63.623047"/>
       <use xlink:href="#DejaVuSans-31" x="127.246094"/>
       <use xlink:href="#DejaVuSans-35" x="190.869141"/>
       <use xlink:href="#DejaVuSans-2d" x="254.492188"/>
       <use xlink:href="#DejaVuSans-30" x="290.576172"/>
       <use xlink:href="#DejaVuSans-37" x="354.199219"/>
      </g>
     </g>
    </g>
    <g id="xtick_8">
     <g id="line2d_8">
      <g>
       <use xlink:href="#mab809e9c2b" x="3525.876337" y="961.2" style="stroke: #000000; stroke-width: 0.8"/>
      </g>
     </g>
     <g id="text_8">
      <!-- 2016-01 -->
      <g transform="translate(3484.093524 983.396875) scale(0.2 -0.2)">
       <defs>
        <path id="DejaVuSans-36" d="M 2113 2584 
Q 1688 2584 1439 2293 
Q 1191 2003 1191 1497 
Q 1191 994 1439 701 
Q 1688 409 2113 409 
Q 2538 409 2786 701 
Q 3034 994 3034 1497 
Q 3034 2003 2786 2293 
Q 2538 2584 2113 2584 
z
M 3366 4563 
L 3366 3988 
Q 3128 4100 2886 4159 
Q 2644 4219 2406 4219 
Q 1781 4219 1451 3797 
Q 1122 3375 1075 2522 
Q 1259 2794 1537 2939 
Q 1816 3084 2150 3084 
Q 2853 3084 3261 2657 
Q 3669 2231 3669 1497 
Q 3669 778 3244 343 
Q 2819 -91 2113 -91 
Q 1303 -91 875 529 
Q 447 1150 447 2328 
Q 447 3434 972 4092 
Q 1497 4750 2381 4750 
Q 2619 4750 2861 4703 
Q 3103 4656 3366 4563 
z
" transform="scale(0.015625)"/>
       </defs>
       <use xlink:href="#DejaVuSans-32"/>
       <use xlink:href="#DejaVuSans-30" x="63.623047"/>
       <use xlink:href="#DejaVuSans-31" x="127.246094"/>
       <use xlink:href="#DejaVuSans-36" x="190.869141"/>
       <use xlink:href="#DejaVuSans-2d" x="254.492188"/>
       <use xlink:href="#DejaVuSans-30" x="290.576172"/>
       <use xlink:href="#DejaVuSans-31" x="354.199219"/>
      </g>
     </g>
    </g>
    <g id="xtick_9">
     <g id="line2d_9">
      <g>
       <use xlink:href="#mab809e9c2b" x="3893.586898" y="961.2" style="stroke: #000000; stroke-width: 0.8"/>
      </g>
     </g>
     <g id="text_9">
      <!-- 2016-07 -->
      <g transform="translate(3851.804086 983.396875) scale(0.2 -0.2)">
       <use xlink:href="#DejaVuSans-32"/>
       <use xlink:href="#DejaVuSans-30" x="63.623047"/>
       <use xlink:href="#DejaVuSans-31" x="127.246094"/>
       <use xlink:href="#DejaVuSans-36" x="190.869141"/>
       <use xlink:href="#DejaVuSans-2d" x="254.492188"/>
       <use xlink:href="#DejaVuSans-30" x="290.576172"/>
       <use xlink:href="#DejaVuSans-37" x="354.199219"/>
      </g>
     </g>
    </g>
    <g id="text_10">
     <!-- Time -->
     <g transform="translate(2374.032813 1006.753125) scale(0.2 -0.2)">
      <defs>
       <path id="DejaVuSans-54" d="M -19 4666 
L 3928 4666 
L 3928 4134 
L 2272 4134 
L 2272 0 
L 1638 0 
L 1638 4134 
L -19 4134 
L -19 4666 
z
" transform="scale(0.015625)"/>
       <path id="DejaVuSans-69" d="M 603 3500 
L 1178 3500 
L 1178 0 
L 603 0 
L 603 3500 
z
M 603 4863 
L 1178 4863 
L 1178 4134 
L 603 4134 
L 603 4863 
z
" transform="scale(0.015625)"/>
       <path id="DejaVuSans-6d" d="M 3328 2828 
Q 3544 3216 3844 3400 
Q 4144 3584 4550 3584 
Q 5097 3584 5394 3201 
Q 5691 2819 5691 2113 
L 5691 0 
L 5113 0 
L 5113 2094 
Q 5113 2597 4934 2840 
Q 4756 3084 4391 3084 
Q 3944 3084 3684 2787 
Q 3425 2491 3425 1978 
L 3425 0 
L 2847 0 
L 2847 2094 
Q 2847 2600 2669 2842 
Q 2491 3084 2119 3084 
Q 1678 3084 1418 2786 
Q 1159 2488 1159 1978 
L 1159 0 
L 581 0 
L 581 3500 
L 1159 3500 
L 1159 2956 
Q 1356 3278 1631 3431 
Q 1906 3584 2284 3584 
Q 2666 3584 2933 3390 
Q 3200 3197 3328 2828 
z
" transform="scale(0.015625)"/>
       <path id="DejaVuSans-65" d="M 3597 1894 
L 3597 1613 
L 953 1613 
Q 991 1019 1311 708 
Q 1631 397 2203 397 
Q 2534 397 2845 478 
Q 3156 559 3463 722 
L 3463 178 
Q 3153 47 2828 -22 
Q 2503 -91 2169 -91 
Q 1331 -91 842 396 
Q 353 884 353 1716 
Q 353 2575 817 3079 
Q 1281 3584 2069 3584 
Q 2775 3584 3186 3129 
Q 3597 2675 3597 1894 
z
M 3022 2063 
Q 3016 2534 2758 2815 
Q 2500 3097 2075 3097 
Q 1594 3097 1305 2825 
Q 1016 2553 972 2059 
L 3022 2063 
z
" transform="scale(0.015625)"/>
      </defs>
      <use xlink:href="#DejaVuSans-54"/>
      <use xlink:href="#DejaVuSans-69" x="57.958984"/>
      <use xlink:href="#DejaVuSans-6d" x="85.742188"/>
      <use xlink:href="#DejaVuSans-65" x="183.154297"/>
     </g>
    </g>
   </g>
   <g id="matplotlib.axis_2">
    <g id="ytick_1">
     <g id="line2d_10">
      <defs>
       <path id="mba4ee4722f" d="M 0 0 
L -3.5 0 
" style="stroke: #000000; stroke-width: 0.8"/>
      </defs>
      <g>
       <use xlink:href="#mba4ee4722f" x="585" y="875.624879" style="stroke: #000000; stroke-width: 0.8"/>
      </g>
     </g>
     <g id="text_11">
      <!-- −0.003 -->
      <g transform="translate(503.984375 883.223317) scale(0.2 -0.2)">
       <defs>
        <path id="DejaVuSans-2212" d="M 678 2272 
L 4684 2272 
L 4684 1741 
L 678 1741 
L 678 2272 
z
" transform="scale(0.015625)"/>
        <path id="DejaVuSans-2e" d="M 684 794 
L 1344 794 
L 1344 0 
L 684 0 
L 684 794 
z
" transform="scale(0.015625)"/>
       </defs>
       <use xlink:href="#DejaVuSans-2212"/>
       <use xlink:href="#DejaVuSans-30" x="83.789062"/>
       <use xlink:href="#DejaVuSans-2e" x="147.412109"/>
       <use xlink:href="#DejaVuSans-30" x="179.199219"/>
       <use xlink:href="#DejaVuSans-30" x="242.822266"/>
       <use xlink:href="#DejaVuSans-33" x="306.445312"/>
      </g>
     </g>
    </g>
    <g id="ytick_2">
     <g id="line2d_11">
      <g>
       <use xlink:href="#mba4ee4722f" x="585" y="776.432118" style="stroke: #000000; stroke-width: 0.8"/>
      </g>
     </g>
     <g id="text_12">
      <!-- −0.002 -->
      <g transform="translate(503.984375 784.030556) scale(0.2 -0.2)">
       <use xlink:href="#DejaVuSans-2212"/>
       <use xlink:href="#DejaVuSans-30" x="83.789062"/>
       <use xlink:href="#DejaVuSans-2e" x="147.412109"/>
       <use xlink:href="#DejaVuSans-30" x="179.199219"/>
       <use xlink:href="#DejaVuSans-30" x="242.822266"/>
       <use xlink:href="#DejaVuSans-32" x="306.445312"/>
      </g>
     </g>
    </g>
    <g id="ytick_3">
     <g id="line2d_12">
      <g>
       <use xlink:href="#mba4ee4722f" x="585" y="677.239357" style="stroke: #000000; stroke-width: 0.8"/>
      </g>
     </g>
     <g id="text_13">
      <!-- −0.001 -->
      <g transform="translate(503.984375 684.837795) scale(0.2 -0.2)">
       <use xlink:href="#DejaVuSans-2212"/>
       <use xlink:href="#DejaVuSans-30" x="83.789062"/>
       <use xlink:href="#DejaVuSans-2e" x="147.412109"/>
       <use xlink:href="#DejaVuSans-30" x="179.199219"/>
       <use xlink:href="#DejaVuSans-30" x="242.822266"/>
       <use xlink:href="#DejaVuSans-31" x="306.445312"/>
      </g>
     </g>
    </g>
    <g id="ytick_4">
     <g id="line2d_13">
      <g>
       <use xlink:href="#mba4ee4722f" x="585" y="578.046596" style="stroke: #000000; stroke-width: 0.8"/>
      </g>
     </g>
     <g id="text_14">
      <!-- 0.000 -->
      <g transform="translate(520.74375 585.645034) scale(0.2 -0.2)">
       <use xlink:href="#DejaVuSans-30"/>
       <use xlink:href="#DejaVuSans-2e" x="63.623047"/>
       <use xlink:href="#DejaVuSans-30" x="95.410156"/>
       <use xlink:href="#DejaVuSans-30" x="159.033203"/>
       <use xlink:href="#DejaVuSans-30" x="222.65625"/>
      </g>
     </g>
    </g>
    <g id="ytick_5">
     <g id="line2d_14">
      <g>
       <use xlink:href="#mba4ee4722f" x="585" y="478.853835" style="stroke: #000000; stroke-width: 0.8"/>
      </g>
     </g>
     <g id="text_15">
      <!-- 0.001 -->
      <g transform="translate(520.74375 486.452273) scale(0.2 -0.2)">
       <use xlink:href="#DejaVuSans-30"/>
       <use xlink:href="#DejaVuSans-2e" x="63.623047"/>
       <use xlink:href="#DejaVuSans-30" x="95.410156"/>
       <use xlink:href="#DejaVuSans-30" x="159.033203"/>
       <use xlink:href="#DejaVuSans-31" x="222.65625"/>
      </g>
     </g>
    </g>
    <g id="ytick_6">
     <g id="line2d_15">
      <g>
       <use xlink:href="#mba4ee4722f" x="585" y="379.661074" style="stroke: #000000; stroke-width: 0.8"/>
      </g>
     </g>
     <g id="text_16">
      <!-- 0.002 -->
      <g transform="translate(520.74375 387.259512) scale(0.2 -0.2)">
       <use xlink:href="#DejaVuSans-30"/>
       <use xlink:href="#DejaVuSans-2e" x="63.623047"/>
       <use xlink:href="#DejaVuSans-30" x="95.410156"/>
       <use xlink:href="#DejaVuSans-30" x="159.033203"/>
       <use xlink:href="#DejaVuSans-32" x="222.65625"/>
      </g>
     </g>
    </g>
    <g id="ytick_7">
     <g id="line2d_16">
      <g>
       <use xlink:href="#mba4ee4722f" x="585" y="280.468313" style="stroke: #000000; stroke-width: 0.8"/>
      </g>
     </g>
     <g id="text_17">
      <!-- 0.003 -->
      <g transform="translate(520.74375 288.066751) scale(0.2 -0.2)">
       <use xlink:href="#DejaVuSans-30"/>
       <use xlink:href="#DejaVuSans-2e" x="63.623047"/>
       <use xlink:href="#DejaVuSans-30" x="95.410156"/>
       <use xlink:href="#DejaVuSans-30" x="159.033203"/>
       <use xlink:href="#DejaVuSans-33" x="222.65625"/>
      </g>
     </g>
    </g>
    <g id="ytick_8">
     <g id="line2d_17">
      <g>
       <use xlink:href="#mba4ee4722f" x="585" y="181.275552" style="stroke: #000000; stroke-width: 0.8"/>
      </g>
     </g>
     <g id="text_18">
      <!-- 0.004 -->
      <g transform="translate(520.74375 188.87399) scale(0.2 -0.2)">
       <use xlink:href="#DejaVuSans-30"/>
       <use xlink:href="#DejaVuSans-2e" x="63.623047"/>
       <use xlink:href="#DejaVuSans-30" x="95.410156"/>
       <use xlink:href="#DejaVuSans-30" x="159.033203"/>
       <use xlink:href="#DejaVuSans-34" x="222.65625"/>
      </g>
     </g>
    </g>
    <g id="text_19">
     <!-- East(m) -->
     <g transform="translate(495.825 584.520313) rotate(-90) scale(0.2 -0.2)">
      <defs>
       <path id="DejaVuSans-45" d="M 628 4666 
L 3578 4666 
L 3578 4134 
L 1259 4134 
L 1259 2753 
L 3481 2753 
L 3481 2222 
L 1259 2222 
L 1259 531 
L 3634 531 
L 3634 0 
L 628 0 
L 628 4666 
z
" transform="scale(0.015625)"/>
       <path id="DejaVuSans-61" d="M 2194 1759 
Q 1497 1759 1228 1600 
Q 959 1441 959 1056 
Q 959 750 1161 570 
Q 1363 391 1709 391 
Q 2188 391 2477 730 
Q 2766 1069 2766 1631 
L 2766 1759 
L 2194 1759 
z
M 3341 1997 
L 3341 0 
L 2766 0 
L 2766 531 
Q 2569 213 2275 61 
Q 1981 -91 1556 -91 
Q 1019 -91 701 211 
Q 384 513 384 1019 
Q 384 1609 779 1909 
Q 1175 2209 1959 2209 
L 2766 2209 
L 2766 2266 
Q 2766 2663 2505 2880 
Q 2244 3097 1772 3097 
Q 1472 3097 1187 3025 
Q 903 2953 641 2809 
L 641 3341 
Q 956 3463 1253 3523 
Q 1550 3584 1831 3584 
Q 2591 3584 2966 3190 
Q 3341 2797 3341 1997 
z
" transform="scale(0.015625)"/>
       <path id="DejaVuSans-73" d="M 2834 3397 
L 2834 2853 
Q 2591 2978 2328 3040 
Q 2066 3103 1784 3103 
Q 1356 3103 1142 2972 
Q 928 2841 928 2578 
Q 928 2378 1081 2264 
Q 1234 2150 1697 2047 
L 1894 2003 
Q 2506 1872 2764 1633 
Q 3022 1394 3022 966 
Q 3022 478 2636 193 
Q 2250 -91 1575 -91 
Q 1294 -91 989 -36 
Q 684 19 347 128 
L 347 722 
Q 666 556 975 473 
Q 1284 391 1588 391 
Q 1994 391 2212 530 
Q 2431 669 2431 922 
Q 2431 1156 2273 1281 
Q 2116 1406 1581 1522 
L 1381 1569 
Q 847 1681 609 1914 
Q 372 2147 372 2553 
Q 372 3047 722 3315 
Q 1072 3584 1716 3584 
Q 2034 3584 2315 3537 
Q 2597 3491 2834 3397 
z
" transform="scale(0.015625)"/>
       <path id="DejaVuSans-74" d="M 1172 4494 
L 1172 3500 
L 2356 3500 
L 2356 3053 
L 1172 3053 
L 1172 1153 
Q 1172 725 1289 603 
Q 1406 481 1766 481 
L 2356 481 
L 2356 0 
L 1766 0 
Q 1100 0 847 248 
Q 594 497 594 1153 
L 594 3053 
L 172 3053 
L 172 3500 
L 594 3500 
L 594 4494 
L 1172 4494 
z
" transform="scale(0.015625)"/>
       <path id="DejaVuSans-28" d="M 1984 4856 
Q 1566 4138 1362 3434 
Q 1159 2731 1159 2009 
Q 1159 1288 1364 580 
Q 1569 -128 1984 -844 
L 1484 -844 
Q 1016 -109 783 600 
Q 550 1309 550 2009 
Q 550 2706 781 3412 
Q 1013 4119 1484 4856 
L 1984 4856 
z
" transform="scale(0.015625)"/>
       <path id="DejaVuSans-29" d="M 513 4856 
L 1013 4856 
Q 1481 4119 1714 3412 
Q 1947 2706 1947 2009 
Q 1947 1309 1714 600 
Q 1481 -109 1013 -844 
L 513 -844 
Q 928 -128 1133 580 
Q 1338 1288 1338 2009 
Q 1338 2731 1133 3434 
Q 928 4138 513 4856 
z
" transform="scale(0.015625)"/>
      </defs>
      <use xlink:href="#DejaVuSans-45"/>
      <use xlink:href="#DejaVuSans-61" x="63.183594"/>
      <use xlink:href="#DejaVuSans-73" x="124.462891"/>
      <use xlink:href="#DejaVuSans-74" x="176.5625"/>
      <use xlink:href="#DejaVuSans-28" x="215.771484"/>
      <use xlink:href="#DejaVuSans-6d" x="254.785156"/>
      <use xlink:href="#DejaVuSans-29" x="352.197266"/>
     </g>
    </g>
   </g>
   <g id="line2d_18">
    <path d="M 749.863636 713.707777 
L 753.904412 801.042501 
L 755.924799 833.670822 
L 761.985963 757.996291 
L 764.00635 729.562594 
L 766.026738 738.678987 
L 768.047126 697.98243 
L 770.067513 676.739076 
L 772.087901 700.057477 
L 774.108289 702.221148 
L 776.128676 697.82234 
L 790.27139 626.544382 
L 792.291778 611.786396 
L 794.312166 600.131194 
L 796.332553 560.213832 
L 798.352941 559.855311 
L 800.373329 561.243797 
L 802.393717 560.049116 
L 806.434492 567.054619 
L 808.45488 563.531412 
L 810.475267 590.700108 
L 812.495655 621.907578 
L 824.617981 728.694735 
L 830.679144 639.058135 
L 832.699532 638.168883 
L 834.71992 610.324968 
L 836.740307 566.899443 
L 844.821858 682.391632 
L 850.883021 728.497758 
L 852.903409 712.132537 
L 854.923797 701.962026 
L 856.944184 696.779612 
L 860.98496 669.426227 
L 863.005348 672.887342 
L 865.025735 698.021951 
L 867.046123 679.756408 
L 869.066511 668.007791 
L 873.107286 696.001745 
L 875.127674 684.460869 
L 877.148061 671.016969 
L 879.168449 653.262569 
L 885.229612 687.962732 
L 889.270388 680.379507 
L 891.290775 690.144647 
L 893.311163 658.793307 
L 895.331551 654.23792 
L 897.351939 669.514958 
L 899.372326 647.815778 
L 901.392714 663.000825 
L 903.413102 658.67122 
L 905.433489 626.100196 
L 907.453877 630.427901 
L 909.474265 612.788021 
L 913.51504 595.904239 
L 915.535428 520.040591 
L 917.555816 517.658956 
L 921.596591 601.456514 
L 933.718917 830.491878 
L 937.759693 817.857241 
L 1044.840241 814.920217 
L 1046.860628 818.609876 
L 1048.881016 835.1457 
L 1212.53242 373.858873 
L 1214.552807 361.628991 
L 1216.573195 362.580602 
L 1226.675134 338.831624 
L 1230.715909 308.792608 
L 1232.736297 305.340527 
L 1234.756684 317.074818 
L 1236.777072 337.969568 
L 1238.79746 362.032156 
L 1240.817848 382.395009 
L 1242.838235 384.311564 
L 1333.755682 361.577343 
L 1335.77607 281.238455 
L 1337.796457 255.548662 
L 1341.837233 219.982904 
L 1372.143048 307.517946 
L 1374.163436 297.797383 
L 1376.183824 297.946411 
L 1378.204211 317.786712 
L 1382.244987 335.133384 
L 1384.265374 340.733833 
L 1386.285762 325.75434 
L 1388.30615 317.01202 
L 1390.326537 311.439854 
L 1392.346925 271.108705 
L 1394.367313 240.872029 
L 1402.448864 167.4 
L 1404.469251 177.9049 
L 1406.489639 212.926143 
L 1414.57119 379.350988 
L 1416.591578 365.021732 
L 1418.611965 369.170067 
L 1420.632353 372.884164 
L 1424.673128 359.330694 
L 1426.693516 360.091338 
L 1428.713904 344.859392 
L 1432.754679 365.655442 
L 1434.775067 374.312011 
L 1436.795455 366.043126 
L 1444.877005 350.986785 
L 1446.897393 360.384091 
L 1454.978944 454.7792 
L 1456.999332 530.385247 
L 1459.019719 551.23188 
L 1461.040107 533.363696 
L 1463.060495 521.309946 
L 1465.080882 512.732335 
L 1469.121658 484.363591 
L 1471.142045 483.918927 
L 1473.162433 441.888586 
L 1475.182821 471.943231 
L 1479.223596 486.574665 
L 1481.243984 494.610424 
L 1483.264372 511.097662 
L 1485.284759 508.994971 
L 1487.305147 544.37206 
L 1489.325535 551.378334 
L 1491.345922 489.334482 
L 1493.36631 486.535217 
L 1495.386698 489.863822 
L 1497.407086 470.458152 
L 1501.447861 456.666396 
L 1669.14004 533.24868 
L 1673.180816 579.529116 
L 1677.221591 595.759579 
L 1681.262366 575.436176 
L 1683.282754 581.976523 
L 1689.343917 591.779129 
L 1691.364305 611.160938 
L 1693.384693 634.089926 
L 1697.425468 670.753769 
L 1699.445856 662.686717 
L 1701.466243 677.623277 
L 1703.486631 722.048794 
L 1705.507019 691.941458 
L 1707.527406 699.418101 
L 1719.649733 757.958056 
L 1723.690508 718.841022 
L 1725.710896 703.533408 
L 1727.731283 638.817183 
L 1729.751671 622.2772 
L 1731.772059 600.898753 
L 1735.812834 673.294014 
L 1737.833222 713.097779 
L 1739.85361 719.80916 
L 1741.873997 752.922493 
L 1743.894385 722.097163 
L 1749.955548 707.599595 
L 1751.975936 677.602923 
L 1753.996324 704.943746 
L 1756.016711 700.255479 
L 1758.037099 744.007628 
L 1766.11865 728.929686 
L 1768.139037 729.208784 
L 1780.261364 751.22662 
L 1782.281751 740.728826 
L 1784.302139 766.512248 
L 1786.322527 772.807117 
L 1788.342914 783.646954 
L 1790.363302 784.982717 
L 1792.38369 771.44468 
L 1794.404078 741.626122 
L 1796.424465 715.305308 
L 1806.526404 686.203709 
L 1808.546791 706.560665 
L 1810.567179 714.147326 
L 1812.587567 708.158643 
L 1814.607955 702.649196 
L 1816.628342 712.918527 
L 1818.64873 716.86295 
L 1822.689505 698.978551 
L 1824.709893 721.270392 
L 1826.730281 725.515118 
L 1830.771056 717.862247 
L 1832.791444 688.894419 
L 1834.811832 650.361912 
L 1836.832219 668.221312 
L 1838.852607 663.414899 
L 1954.014706 624.581762 
L 1958.055481 539.761864 
L 1960.075869 516.618235 
L 1962.096257 463.882195 
L 1964.116644 404.646272 
L 1966.137032 399.865871 
L 1968.15742 368.051597 
L 1970.177807 391.203726 
L 1982.300134 493.06449 
L 1988.361297 462.650736 
L 1990.381684 434.538884 
L 1992.402072 420.206053 
L 1994.42246 412.888787 
L 1996.442848 388.529651 
L 2000.483623 307.523432 
L 2073.21758 361.315181 
L 2075.237968 387.080188 
L 2079.278743 373.2512 
L 2081.299131 373.257258 
L 2109.584559 326.041058 
L 2438.907754 490.614946 
L 2440.928142 541.914058 
L 2442.948529 610.584728 
L 2444.968917 614.656998 
L 2449.009693 656.318947 
L 2467.193182 703.244551 
L 3178.369652 923.4 
L 3180.39004 912.162543 
L 3182.410428 864.462709 
L 3184.430816 824.673717 
L 3186.451203 803.360789 
L 3188.471591 789.756293 
L 3194.532754 855.967816 
L 3206.65508 871.848969 
L 3210.695856 909.391173 
L 3214.736631 824.746778 
L 3216.757019 814.546841 
L 3220.797794 787.265719 
L 3228.879345 775.266717 
L 3230.899733 797.212624 
L 3253.123997 795.666413 
L 3257.164773 824.665639 
L 3259.18516 777.027735 
L 3261.205548 748.839614 
L 3265.246324 725.859502 
L 3267.266711 715.077887 
L 3269.287099 683.256244 
L 3277.36865 754.893711 
L 3285.450201 874.545776 
L 3287.470588 874.922984 
L 3289.490976 802.264322 
L 3291.511364 789.915829 
L 3295.552139 707.385564 
L 3297.572527 692.430485 
L 3299.592914 658.057835 
L 3301.613302 652.772668 
L 3303.63369 679.666486 
L 3309.694853 714.219595 
L 3315.756016 770.796276 
L 3317.776404 766.571874 
L 3319.796791 739.261164 
L 3321.817179 724.54743 
L 3323.837567 656.553718 
L 3325.857955 583.176493 
L 3327.878342 608.828867 
L 3329.89873 573.055524 
L 3331.919118 550.354807 
L 3340.000668 618.807842 
L 3342.021056 608.280893 
L 3344.041444 611.774858 
L 3346.061832 626.041731 
L 3348.082219 615.264771 
L 3350.102607 625.439647 
L 3352.122995 618.576276 
L 3354.143382 610.077023 
L 3356.16377 640.860873 
L 3358.184158 642.282388 
L 3360.204545 624.363658 
L 3362.224933 593.405609 
L 3364.245321 589.072239 
L 3366.265709 601.696995 
L 3368.286096 608.135714 
L 3370.306484 607.152583 
L 3372.326872 602.110373 
L 3374.347259 617.463303 
L 3376.367647 607.157378 
L 3400.612299 567.071139 
L 3402.632687 550.950255 
L 3404.653075 550.70245 
L 3406.673463 531.487183 
L 3410.714238 522.42347 
L 3412.734626 530.882033 
L 3414.755013 527.452913 
L 3416.775401 529.674798 
L 3418.795789 509.740897 
L 3420.816176 507.850597 
L 3422.836564 490.371795 
L 3424.856952 499.54899 
L 3426.87734 515.624611 
L 3428.897727 509.307036 
L 3430.918115 517.567649 
L 3432.938503 534.457577 
L 3434.95889 520.137515 
L 3436.979278 502.707141 
L 3438.999666 452.68362 
L 3441.020053 422.986234 
L 3443.040441 410.345489 
L 3445.060829 383.507491 
L 3447.081217 354.028074 
L 3449.101604 334.344944 
L 3451.121992 365.802022 
L 3453.14238 434.754486 
L 3455.162767 452.428729 
L 3457.183155 435.550293 
L 3459.203543 440.319026 
L 3461.22393 466.522809 
L 3463.244318 472.720269 
L 3465.264706 476.038432 
L 3467.285094 452.611461 
L 3469.305481 433.282363 
L 3471.325869 444.748162 
L 3473.346257 439.838747 
L 3475.366644 417.601744 
L 3477.387032 403.301398 
L 3479.40742 388.117329 
L 3481.427807 365.930562 
L 3483.448195 404.856824 
L 3485.468583 410.92584 
L 3487.488971 397.640394 
L 3489.509358 382.573374 
L 3491.529746 394.421294 
L 3493.550134 393.299223 
L 3499.611297 377.365308 
L 3501.631684 389.015422 
L 3503.652072 406.926268 
L 3505.67246 412.985981 
L 3507.692848 423.99845 
L 3509.713235 410.231774 
L 3511.733623 393.080265 
L 3513.754011 393.310716 
L 3515.774398 394.709106 
L 3517.794786 398.85879 
L 3519.815174 410.223517 
L 3521.835561 400.425063 
L 3523.855949 411.666791 
L 3527.896725 391.026302 
L 3529.917112 371.804062 
L 3531.9375 362.033757 
L 3533.957888 342.399898 
L 3535.978275 333.686299 
L 3537.998663 334.93798 
L 3540.019051 333.565754 
L 3542.039439 363.883324 
L 3544.059826 383.364445 
L 3548.100602 425.414551 
L 3550.120989 447.8425 
L 3552.141377 442.266235 
L 3554.161765 468.550556 
L 3556.182152 464.587904 
L 3558.20254 462.548527 
L 3560.222928 452.992197 
L 3562.243316 427.685791 
L 3564.263703 406.739817 
L 3566.284091 396.785276 
L 3568.304479 372.486566 
L 3570.324866 365.878048 
L 3572.345254 350.804728 
L 3582.447193 449.864258 
L 3584.46758 465.026403 
L 3586.487968 491.671645 
L 3590.528743 501.629706 
L 3592.549131 526.349204 
L 3594.569519 531.72625 
L 3596.589906 503.777636 
L 3598.610294 502.114893 
L 3600.630682 485.204271 
L 3602.65107 485.923205 
L 3604.671457 494.994306 
L 3647.099599 502.723446 
L 3649.119987 506.925651 
L 3653.160762 524.280033 
L 3659.221925 462.200198 
L 3661.242313 443.308024 
L 3663.262701 428.505632 
L 3665.283088 425.465968 
L 3667.303476 430.65501 
L 3669.323864 485.909662 
L 3671.344251 557.966392 
L 3673.364639 573.422167 
L 3675.385027 598.722712 
L 3677.405414 629.626831 
L 3679.425802 652.739211 
L 3681.44619 658.801154 
L 3683.466578 672.853442 
L 3685.486965 664.354455 
L 3687.507353 672.242041 
L 3689.527741 667.135631 
L 3691.548128 650.818185 
L 3693.568516 611.111717 
L 3695.588904 606.812753 
L 3697.609291 574.310062 
L 3703.670455 631.624511 
L 3705.690842 645.318677 
L 3707.71123 647.198782 
L 3711.752005 718.243409 
L 3713.772393 732.993294 
L 3715.792781 687.970657 
L 3717.813168 696.528332 
L 3719.833556 695.03776 
L 3721.853944 721.646318 
L 3723.874332 699.318858 
L 3725.894719 698.307808 
L 3727.915107 681.697734 
L 3729.935495 712.73166 
L 3733.97627 732.142247 
L 3735.996658 712.384352 
L 3738.017045 698.815857 
L 3740.037433 717.812142 
L 3744.078209 757.545757 
L 3746.098596 785.431078 
L 3748.118984 762.729107 
L 3750.139372 724.293099 
L 3752.159759 740.581406 
L 3756.200535 740.419104 
L 3758.220922 693.866309 
L 3760.24131 630.077653 
L 3762.261698 640.557077 
L 3764.282086 625.548402 
L 3766.302473 579.811651 
L 3768.322861 554.473116 
L 3772.363636 529.599309 
L 3774.384024 537.033554 
L 3776.404412 541.408737 
L 3778.424799 561.168703 
L 3780.445187 578.610209 
L 3786.50635 494.872239 
L 3788.526738 542.081965 
L 3790.547126 553.38866 
L 3792.567513 566.468366 
L 3796.608289 671.749176 
L 3798.628676 729.406449 
L 3952.178142 822.591718 
L 3954.198529 799.527534 
L 3956.218917 801.498562 
L 3958.239305 787.694851 
L 3960.259693 776.047491 
L 3970.361631 764.738979 
L 3972.382019 779.596841 
L 3978.443182 743.494684 
L 3980.46357 713.745346 
L 3982.483957 671.99585 
L 3984.504345 643.85984 
L 3986.524733 670.75738 
L 3988.54512 664.065925 
L 3990.565508 682.909998 
L 3996.626671 800.143444 
L 4002.687834 789.718414 
L 4004.708222 788.461931 
L 4006.72861 738.809123 
L 4008.748997 732.136599 
L 4010.769385 707.816328 
L 4014.81016 748.568587 
L 4016.830548 743.77417 
L 4018.850936 736.422826 
L 4020.871324 783.225147 
L 4030.973262 787.939997 
L 4035.014037 828.798638 
L 4037.034425 877.073691 
L 4039.054813 882.244464 
L 4041.075201 897.98364 
L 4043.095588 887.567127 
L 4045.115976 874.468217 
L 4047.136364 841.334252 
L 4047.136364 841.334252 
" clip-path="url(#p8d916f4a82)" style="fill: none; stroke: #9f4800; stroke-width: 2.5; stroke-linecap: square"/>
   </g>
   <g id="patch_3">
    <path d="M 585 961.2 
L 585 129.6 
" style="fill: none; stroke: #000000; stroke-width: 0.8; stroke-linejoin: miter; stroke-linecap: square"/>
   </g>
   <g id="patch_4">
    <path d="M 4212 961.2 
L 4212 129.6 
" style="fill: none; stroke: #000000; stroke-width: 0.8; stroke-linejoin: miter; stroke-linecap: square"/>
   </g>
   <g id="patch_5">
    <path d="M 585 961.2 
L 4212 961.2 
" style="fill: none; stroke: #000000; stroke-width: 0.8; stroke-linejoin: miter; stroke-linecap: square"/>
   </g>
   <g id="patch_6">
    <path d="M 585 129.6 
L 4212 129.6 
" style="fill: none; stroke: #000000; stroke-width: 0.8; stroke-linejoin: miter; stroke-linecap: square"/>
   </g>
   <g id="text_20">
    <!-- TREN -->
    <g transform="translate(2358.215625 123.360937) scale(0.3 -0.3)">
     <defs>
      <path id="DejaVuSans-52" d="M 2841 2188 
Q 3044 2119 3236 1894 
Q 3428 1669 3622 1275 
L 4263 0 
L 3584 0 
L 2988 1197 
Q 2756 1666 2539 1819 
Q 2322 1972 1947 1972 
L 1259 1972 
L 1259 0 
L 628 0 
L 628 4666 
L 2053 4666 
Q 2853 4666 3247 4331 
Q 3641 3997 3641 3322 
Q 3641 2881 3436 2590 
Q 3231 2300 2841 2188 
z
M 1259 4147 
L 1259 2491 
L 2053 2491 
Q 2509 2491 2742 2702 
Q 2975 2913 2975 3322 
Q 2975 3731 2742 3939 
Q 2509 4147 2053 4147 
L 1259 4147 
z
" transform="scale(0.015625)"/>
      <path id="DejaVuSans-4e" d="M 628 4666 
L 1478 4666 
L 3547 763 
L 3547 4666 
L 4159 4666 
L 4159 0 
L 3309 0 
L 1241 3903 
L 1241 0 
L 628 0 
L 628 4666 
z
" transform="scale(0.015625)"/>
     </defs>
     <use xlink:href="#DejaVuSans-54"/>
     <use xlink:href="#DejaVuSans-52" x="61.083984"/>
     <use xlink:href="#DejaVuSans-45" x="130.566406"/>
     <use xlink:href="#DejaVuSans-4e" x="193.75"/>
    </g>
   </g>
   <g id="legend_1">
    <g id="patch_7">
     <path d="M 4152.703125 152.278125 
L 4205 152.278125 
Q 4207 152.278125 4207 150.278125 
L 4207 136.6 
Q 4207 134.6 4205 134.6 
L 4152.703125 134.6 
Q 4150.703125 134.6 4150.703125 136.6 
L 4150.703125 150.278125 
Q 4150.703125 152.278125 4152.703125 152.278125 
z
" style="fill: #ffffff; opacity: 0.8; stroke: #cccccc; stroke-linejoin: miter"/>
    </g>
    <g id="line2d_19">
     <path d="M 4154.703125 142.698438 
L 4164.703125 142.698438 
L 4174.703125 142.698438 
" style="fill: none; stroke: #9f4800; stroke-width: 2.5; stroke-linecap: square"/>
    </g>
    <g id="text_21">
     <!-- tren -->
     <g transform="translate(4182.703125 146.198438) scale(0.1 -0.1)">
      <defs>
       <path id="DejaVuSans-72" d="M 2631 2963 
Q 2534 3019 2420 3045 
Q 2306 3072 2169 3072 
Q 1681 3072 1420 2755 
Q 1159 2438 1159 1844 
L 1159 0 
L 581 0 
L 581 3500 
L 1159 3500 
L 1159 2956 
Q 1341 3275 1631 3429 
Q 1922 3584 2338 3584 
Q 2397 3584 2469 3576 
Q 2541 3569 2628 3553 
L 2631 2963 
z
" transform="scale(0.015625)"/>
       <path id="DejaVuSans-6e" d="M 3513 2113 
L 3513 0 
L 2938 0 
L 2938 2094 
Q 2938 2591 2744 2837 
Q 2550 3084 2163 3084 
Q 1697 3084 1428 2787 
Q 1159 2491 1159 1978 
L 1159 0 
L 581 0 
L 581 3500 
L 1159 3500 
L 1159 2956 
Q 1366 3272 1645 3428 
Q 1925 3584 2291 3584 
Q 2894 3584 3203 3211 
Q 3513 2838 3513 2113 
z
" transform="scale(0.015625)"/>
      </defs>
      <use xlink:href="#DejaVuSans-74"/>
      <use xlink:href="#DejaVuSans-72" x="39.208984"/>
      <use xlink:href="#DejaVuSans-65" x="78.072266"/>
      <use xlink:href="#DejaVuSans-6e" x="139.595703"/>
     </g>
    </g>
   </g>
  </g>
 </g>
 <defs>
  <clipPath id="p8d916f4a82">
   <rect x="585" y="129.6" width="3627" height="831.6"/>
  </clipPath>
 </defs>
</svg>
