<?xml version="1.0" encoding="utf-8" standalone="no"?>
<!DOCTYPE svg PUBLIC "-//W3C//DTD SVG 1.1//EN"
  "http://www.w3.org/Graphics/SVG/1.1/DTD/svg11.dtd">
<svg xmlns:xlink="http://www.w3.org/1999/xlink" width="4680pt" height="1080pt" viewBox="0 0 4680 1080" xmlns="http://www.w3.org/2000/svg" version="1.1">
 <metadata>
  <rdf:RDF xmlns:dc="http://purl.org/dc/elements/1.1/" xmlns:cc="http://creativecommons.org/ns#" xmlns:rdf="http://www.w3.org/1999/02/22-rdf-syntax-ns#">
   <cc:Work>
    <dc:type rdf:resource="http://purl.org/dc/dcmitype/StillImage"/>
    <dc:date>2024-03-25T14:09:19.900001</dc:date>
    <dc:format>image/svg+xml</dc:format>
    <dc:creator>
     <cc:Agent>
      <dc:title>Matplotlib v3.7.2, https://matplotlib.org/</dc:title>
     </cc:Agent>
    </dc:creator>
   </cc:Work>
  </rdf:RDF>
 </metadata>
 <defs>
  <style type="text/css">*{stroke-linejoin: round; stroke-linecap: butt}</style>
 </defs>
 <g id="figure_1">
  <g id="patch_1">
   <path d="M 0 1080 
L 4680 1080 
L 4680 0 
L 0 0 
z
" style="fill: #ffffff"/>
  </g>
  <g id="axes_1">
   <g id="patch_2">
    <path d="M 585 961.2 
L 4212 961.2 
L 4212 129.6 
L 585 129.6 
z
" style="fill: #ffffff"/>
   </g>
   <g id="matplotlib.axis_1">
    <g id="xtick_1">
     <g id="line2d_1">
      <defs>
       <path id="m7dfe00a3d4" d="M 0 0 
L 0 3.5 
" style="stroke: #000000; stroke-width: 0.8"/>
      </defs>
      <g>
       <use xlink:href="#m7dfe00a3d4" x="941.800468" y="961.2" style="stroke: #000000; stroke-width: 0.8"/>
      </g>
     </g>
     <g id="text_1">
      <!-- 2012-07 -->
      <g transform="translate(900.017655 983.396875) scale(0.2 -0.2)">
       <defs>
        <path id="DejaVuSans-32" d="M 1228 531 
L 3431 531 
L 3431 0 
L 469 0 
L 469 531 
Q 828 903 1448 1529 
Q 2069 2156 2228 2338 
Q 2531 2678 2651 2914 
Q 2772 3150 2772 3378 
Q 2772 3750 2511 3984 
Q 2250 4219 1831 4219 
Q 1534 4219 1204 4116 
Q 875 4013 500 3803 
L 500 4441 
Q 881 4594 1212 4672 
Q 1544 4750 1819 4750 
Q 2544 4750 2975 4387 
Q 3406 4025 3406 3419 
Q 3406 3131 3298 2873 
Q 3191 2616 2906 2266 
Q 2828 2175 2409 1742 
Q 1991 1309 1228 531 
z
" transform="scale(0.015625)"/>
        <path id="DejaVuSans-30" d="M 2034 4250 
Q 1547 4250 1301 3770 
Q 1056 3291 1056 2328 
Q 1056 1369 1301 889 
Q 1547 409 2034 409 
Q 2525 409 2770 889 
Q 3016 1369 3016 2328 
Q 3016 3291 2770 3770 
Q 2525 4250 2034 4250 
z
M 2034 4750 
Q 2819 4750 3233 4129 
Q 3647 3509 3647 2328 
Q 3647 1150 3233 529 
Q 2819 -91 2034 -91 
Q 1250 -91 836 529 
Q 422 1150 422 2328 
Q 422 3509 836 4129 
Q 1250 4750 2034 4750 
z
" transform="scale(0.015625)"/>
        <path id="DejaVuSans-31" d="M 794 531 
L 1825 531 
L 1825 4091 
L 703 3866 
L 703 4441 
L 1819 4666 
L 2450 4666 
L 2450 531 
L 3481 531 
L 3481 0 
L 794 0 
L 794 531 
z
" transform="scale(0.015625)"/>
        <path id="DejaVuSans-2d" d="M 313 2009 
L 1997 2009 
L 1997 1497 
L 313 1497 
L 313 2009 
z
" transform="scale(0.015625)"/>
        <path id="DejaVuSans-37" d="M 525 4666 
L 3525 4666 
L 3525 4397 
L 1831 0 
L 1172 0 
L 2766 4134 
L 525 4134 
L 525 4666 
z
" transform="scale(0.015625)"/>
       </defs>
       <use xlink:href="#DejaVuSans-32"/>
       <use xlink:href="#DejaVuSans-30" x="63.623047"/>
       <use xlink:href="#DejaVuSans-31" x="127.246094"/>
       <use xlink:href="#DejaVuSans-32" x="190.869141"/>
       <use xlink:href="#DejaVuSans-2d" x="254.492188"/>
       <use xlink:href="#DejaVuSans-30" x="290.576172"/>
       <use xlink:href="#DejaVuSans-37" x="354.199219"/>
      </g>
     </g>
    </g>
    <g id="xtick_2">
     <g id="line2d_2">
      <g>
       <use xlink:href="#m7dfe00a3d4" x="1313.551805" y="961.2" style="stroke: #000000; stroke-width: 0.8"/>
      </g>
     </g>
     <g id="text_2">
      <!-- 2013-01 -->
      <g transform="translate(1271.768992 983.396875) scale(0.2 -0.2)">
       <defs>
        <path id="DejaVuSans-33" d="M 2597 2516 
Q 3050 2419 3304 2112 
Q 3559 1806 3559 1356 
Q 3559 666 3084 287 
Q 2609 -91 1734 -91 
Q 1441 -91 1130 -33 
Q 819 25 488 141 
L 488 750 
Q 750 597 1062 519 
Q 1375 441 1716 441 
Q 2309 441 2620 675 
Q 2931 909 2931 1356 
Q 2931 1769 2642 2001 
Q 2353 2234 1838 2234 
L 1294 2234 
L 1294 2753 
L 1863 2753 
Q 2328 2753 2575 2939 
Q 2822 3125 2822 3475 
Q 2822 3834 2567 4026 
Q 2313 4219 1838 4219 
Q 1578 4219 1281 4162 
Q 984 4106 628 3988 
L 628 4550 
Q 988 4650 1302 4700 
Q 1616 4750 1894 4750 
Q 2613 4750 3031 4423 
Q 3450 4097 3450 3541 
Q 3450 3153 3228 2886 
Q 3006 2619 2597 2516 
z
" transform="scale(0.015625)"/>
       </defs>
       <use xlink:href="#DejaVuSans-32"/>
       <use xlink:href="#DejaVuSans-30" x="63.623047"/>
       <use xlink:href="#DejaVuSans-31" x="127.246094"/>
       <use xlink:href="#DejaVuSans-33" x="190.869141"/>
       <use xlink:href="#DejaVuSans-2d" x="254.492188"/>
       <use xlink:href="#DejaVuSans-30" x="290.576172"/>
       <use xlink:href="#DejaVuSans-31" x="354.199219"/>
      </g>
     </g>
    </g>
    <g id="xtick_3">
     <g id="line2d_3">
      <g>
       <use xlink:href="#m7dfe00a3d4" x="1679.241979" y="961.2" style="stroke: #000000; stroke-width: 0.8"/>
      </g>
     </g>
     <g id="text_3">
      <!-- 2013-07 -->
      <g transform="translate(1637.459166 983.396875) scale(0.2 -0.2)">
       <use xlink:href="#DejaVuSans-32"/>
       <use xlink:href="#DejaVuSans-30" x="63.623047"/>
       <use xlink:href="#DejaVuSans-31" x="127.246094"/>
       <use xlink:href="#DejaVuSans-33" x="190.869141"/>
       <use xlink:href="#DejaVuSans-2d" x="254.492188"/>
       <use xlink:href="#DejaVuSans-30" x="290.576172"/>
       <use xlink:href="#DejaVuSans-37" x="354.199219"/>
      </g>
     </g>
    </g>
    <g id="xtick_4">
     <g id="line2d_4">
      <g>
       <use xlink:href="#m7dfe00a3d4" x="2050.993316" y="961.2" style="stroke: #000000; stroke-width: 0.8"/>
      </g>
     </g>
     <g id="text_4">
      <!-- 2014-01 -->
      <g transform="translate(2009.210503 983.396875) scale(0.2 -0.2)">
       <defs>
        <path id="DejaVuSans-34" d="M 2419 4116 
L 825 1625 
L 2419 1625 
L 2419 4116 
z
M 2253 4666 
L 3047 4666 
L 3047 1625 
L 3713 1625 
L 3713 1100 
L 3047 1100 
L 3047 0 
L 2419 0 
L 2419 1100 
L 313 1100 
L 313 1709 
L 2253 4666 
z
" transform="scale(0.015625)"/>
       </defs>
       <use xlink:href="#DejaVuSans-32"/>
       <use xlink:href="#DejaVuSans-30" x="63.623047"/>
       <use xlink:href="#DejaVuSans-31" x="127.246094"/>
       <use xlink:href="#DejaVuSans-34" x="190.869141"/>
       <use xlink:href="#DejaVuSans-2d" x="254.492188"/>
       <use xlink:href="#DejaVuSans-30" x="290.576172"/>
       <use xlink:href="#DejaVuSans-31" x="354.199219"/>
      </g>
     </g>
    </g>
    <g id="xtick_5">
     <g id="line2d_5">
      <g>
       <use xlink:href="#m7dfe00a3d4" x="2416.683489" y="961.2" style="stroke: #000000; stroke-width: 0.8"/>
      </g>
     </g>
     <g id="text_5">
      <!-- 2014-07 -->
      <g transform="translate(2374.900677 983.396875) scale(0.2 -0.2)">
       <use xlink:href="#DejaVuSans-32"/>
       <use xlink:href="#DejaVuSans-30" x="63.623047"/>
       <use xlink:href="#DejaVuSans-31" x="127.246094"/>
       <use xlink:href="#DejaVuSans-34" x="190.869141"/>
       <use xlink:href="#DejaVuSans-2d" x="254.492188"/>
       <use xlink:href="#DejaVuSans-30" x="290.576172"/>
       <use xlink:href="#DejaVuSans-37" x="354.199219"/>
      </g>
     </g>
    </g>
    <g id="xtick_6">
     <g id="line2d_6">
      <g>
       <use xlink:href="#m7dfe00a3d4" x="2788.434826" y="961.2" style="stroke: #000000; stroke-width: 0.8"/>
      </g>
     </g>
     <g id="text_6">
      <!-- 2015-01 -->
      <g transform="translate(2746.652014 983.396875) scale(0.2 -0.2)">
       <defs>
        <path id="DejaVuSans-35" d="M 691 4666 
L 3169 4666 
L 3169 4134 
L 1269 4134 
L 1269 2991 
Q 1406 3038 1543 3061 
Q 1681 3084 1819 3084 
Q 2600 3084 3056 2656 
Q 3513 2228 3513 1497 
Q 3513 744 3044 326 
Q 2575 -91 1722 -91 
Q 1428 -91 1123 -41 
Q 819 9 494 109 
L 494 744 
Q 775 591 1075 516 
Q 1375 441 1709 441 
Q 2250 441 2565 725 
Q 2881 1009 2881 1497 
Q 2881 1984 2565 2268 
Q 2250 2553 1709 2553 
Q 1456 2553 1204 2497 
Q 953 2441 691 2322 
L 691 4666 
z
" transform="scale(0.015625)"/>
       </defs>
       <use xlink:href="#DejaVuSans-32"/>
       <use xlink:href="#DejaVuSans-30" x="63.623047"/>
       <use xlink:href="#DejaVuSans-31" x="127.246094"/>
       <use xlink:href="#DejaVuSans-35" x="190.869141"/>
       <use xlink:href="#DejaVuSans-2d" x="254.492188"/>
       <use xlink:href="#DejaVuSans-30" x="290.576172"/>
       <use xlink:href="#DejaVuSans-31" x="354.199219"/>
      </g>
     </g>
    </g>
    <g id="xtick_7">
     <g id="line2d_7">
      <g>
       <use xlink:href="#m7dfe00a3d4" x="3154.125" y="961.2" style="stroke: #000000; stroke-width: 0.8"/>
      </g>
     </g>
     <g id="text_7">
      <!-- 2015-07 -->
      <g transform="translate(3112.342188 983.396875) scale(0.2 -0.2)">
       <use xlink:href="#DejaVuSans-32"/>
       <use xlink:href="#DejaVuSans-30" x="63.623047"/>
       <use xlink:href="#DejaVuSans-31" x="127.246094"/>
       <use xlink:href="#DejaVuSans-35" x="190.869141"/>
       <use xlink:href="#DejaVuSans-2d" x="254.492188"/>
       <use xlink:href="#DejaVuSans-30" x="290.576172"/>
       <use xlink:href="#DejaVuSans-37" x="354.199219"/>
      </g>
     </g>
    </g>
    <g id="xtick_8">
     <g id="line2d_8">
      <g>
       <use xlink:href="#m7dfe00a3d4" x="3525.876337" y="961.2" style="stroke: #000000; stroke-width: 0.8"/>
      </g>
     </g>
     <g id="text_8">
      <!-- 2016-01 -->
      <g transform="translate(3484.093524 983.396875) scale(0.2 -0.2)">
       <defs>
        <path id="DejaVuSans-36" d="M 2113 2584 
Q 1688 2584 1439 2293 
Q 1191 2003 1191 1497 
Q 1191 994 1439 701 
Q 1688 409 2113 409 
Q 2538 409 2786 701 
Q 3034 994 3034 1497 
Q 3034 2003 2786 2293 
Q 2538 2584 2113 2584 
z
M 3366 4563 
L 3366 3988 
Q 3128 4100 2886 4159 
Q 2644 4219 2406 4219 
Q 1781 4219 1451 3797 
Q 1122 3375 1075 2522 
Q 1259 2794 1537 2939 
Q 1816 3084 2150 3084 
Q 2853 3084 3261 2657 
Q 3669 2231 3669 1497 
Q 3669 778 3244 343 
Q 2819 -91 2113 -91 
Q 1303 -91 875 529 
Q 447 1150 447 2328 
Q 447 3434 972 4092 
Q 1497 4750 2381 4750 
Q 2619 4750 2861 4703 
Q 3103 4656 3366 4563 
z
" transform="scale(0.015625)"/>
       </defs>
       <use xlink:href="#DejaVuSans-32"/>
       <use xlink:href="#DejaVuSans-30" x="63.623047"/>
       <use xlink:href="#DejaVuSans-31" x="127.246094"/>
       <use xlink:href="#DejaVuSans-36" x="190.869141"/>
       <use xlink:href="#DejaVuSans-2d" x="254.492188"/>
       <use xlink:href="#DejaVuSans-30" x="290.576172"/>
       <use xlink:href="#DejaVuSans-31" x="354.199219"/>
      </g>
     </g>
    </g>
    <g id="xtick_9">
     <g id="line2d_9">
      <g>
       <use xlink:href="#m7dfe00a3d4" x="3893.586898" y="961.2" style="stroke: #000000; stroke-width: 0.8"/>
      </g>
     </g>
     <g id="text_9">
      <!-- 2016-07 -->
      <g transform="translate(3851.804086 983.396875) scale(0.2 -0.2)">
       <use xlink:href="#DejaVuSans-32"/>
       <use xlink:href="#DejaVuSans-30" x="63.623047"/>
       <use xlink:href="#DejaVuSans-31" x="127.246094"/>
       <use xlink:href="#DejaVuSans-36" x="190.869141"/>
       <use xlink:href="#DejaVuSans-2d" x="254.492188"/>
       <use xlink:href="#DejaVuSans-30" x="290.576172"/>
       <use xlink:href="#DejaVuSans-37" x="354.199219"/>
      </g>
     </g>
    </g>
    <g id="text_10">
     <!-- Time -->
     <g transform="translate(2374.032813 1006.753125) scale(0.2 -0.2)">
      <defs>
       <path id="DejaVuSans-54" d="M -19 4666 
L 3928 4666 
L 3928 4134 
L 2272 4134 
L 2272 0 
L 1638 0 
L 1638 4134 
L -19 4134 
L -19 4666 
z
" transform="scale(0.015625)"/>
       <path id="DejaVuSans-69" d="M 603 3500 
L 1178 3500 
L 1178 0 
L 603 0 
L 603 3500 
z
M 603 4863 
L 1178 4863 
L 1178 4134 
L 603 4134 
L 603 4863 
z
" transform="scale(0.015625)"/>
       <path id="DejaVuSans-6d" d="M 3328 2828 
Q 3544 3216 3844 3400 
Q 4144 3584 4550 3584 
Q 5097 3584 5394 3201 
Q 5691 2819 5691 2113 
L 5691 0 
L 5113 0 
L 5113 2094 
Q 5113 2597 4934 2840 
Q 4756 3084 4391 3084 
Q 3944 3084 3684 2787 
Q 3425 2491 3425 1978 
L 3425 0 
L 2847 0 
L 2847 2094 
Q 2847 2600 2669 2842 
Q 2491 3084 2119 3084 
Q 1678 3084 1418 2786 
Q 1159 2488 1159 1978 
L 1159 0 
L 581 0 
L 581 3500 
L 1159 3500 
L 1159 2956 
Q 1356 3278 1631 3431 
Q 1906 3584 2284 3584 
Q 2666 3584 2933 3390 
Q 3200 3197 3328 2828 
z
" transform="scale(0.015625)"/>
       <path id="DejaVuSans-65" d="M 3597 1894 
L 3597 1613 
L 953 1613 
Q 991 1019 1311 708 
Q 1631 397 2203 397 
Q 2534 397 2845 478 
Q 3156 559 3463 722 
L 3463 178 
Q 3153 47 2828 -22 
Q 2503 -91 2169 -91 
Q 1331 -91 842 396 
Q 353 884 353 1716 
Q 353 2575 817 3079 
Q 1281 3584 2069 3584 
Q 2775 3584 3186 3129 
Q 3597 2675 3597 1894 
z
M 3022 2063 
Q 3016 2534 2758 2815 
Q 2500 3097 2075 3097 
Q 1594 3097 1305 2825 
Q 1016 2553 972 2059 
L 3022 2063 
z
" transform="scale(0.015625)"/>
      </defs>
      <use xlink:href="#DejaVuSans-54"/>
      <use xlink:href="#DejaVuSans-69" x="57.958984"/>
      <use xlink:href="#DejaVuSans-6d" x="85.742188"/>
      <use xlink:href="#DejaVuSans-65" x="183.154297"/>
     </g>
    </g>
   </g>
   <g id="matplotlib.axis_2">
    <g id="ytick_1">
     <g id="line2d_10">
      <defs>
       <path id="m0e5148a821" d="M 0 0 
L -3.5 0 
" style="stroke: #000000; stroke-width: 0.8"/>
      </defs>
      <g>
       <use xlink:href="#m0e5148a821" x="585" y="845.114585" style="stroke: #000000; stroke-width: 0.8"/>
      </g>
     </g>
     <g id="text_11">
      <!-- −0.002 -->
      <g transform="translate(503.984375 852.713023) scale(0.2 -0.2)">
       <defs>
        <path id="DejaVuSans-2212" d="M 678 2272 
L 4684 2272 
L 4684 1741 
L 678 1741 
L 678 2272 
z
" transform="scale(0.015625)"/>
        <path id="DejaVuSans-2e" d="M 684 794 
L 1344 794 
L 1344 0 
L 684 0 
L 684 794 
z
" transform="scale(0.015625)"/>
       </defs>
       <use xlink:href="#DejaVuSans-2212"/>
       <use xlink:href="#DejaVuSans-30" x="83.789062"/>
       <use xlink:href="#DejaVuSans-2e" x="147.412109"/>
       <use xlink:href="#DejaVuSans-30" x="179.199219"/>
       <use xlink:href="#DejaVuSans-30" x="242.822266"/>
       <use xlink:href="#DejaVuSans-32" x="306.445312"/>
      </g>
     </g>
    </g>
    <g id="ytick_2">
     <g id="line2d_11">
      <g>
       <use xlink:href="#m0e5148a821" x="585" y="693.21799" style="stroke: #000000; stroke-width: 0.8"/>
      </g>
     </g>
     <g id="text_12">
      <!-- −0.001 -->
      <g transform="translate(503.984375 700.816428) scale(0.2 -0.2)">
       <use xlink:href="#DejaVuSans-2212"/>
       <use xlink:href="#DejaVuSans-30" x="83.789062"/>
       <use xlink:href="#DejaVuSans-2e" x="147.412109"/>
       <use xlink:href="#DejaVuSans-30" x="179.199219"/>
       <use xlink:href="#DejaVuSans-30" x="242.822266"/>
       <use xlink:href="#DejaVuSans-31" x="306.445312"/>
      </g>
     </g>
    </g>
    <g id="ytick_3">
     <g id="line2d_12">
      <g>
       <use xlink:href="#m0e5148a821" x="585" y="541.321395" style="stroke: #000000; stroke-width: 0.8"/>
      </g>
     </g>
     <g id="text_13">
      <!-- 0.000 -->
      <g transform="translate(520.74375 548.919833) scale(0.2 -0.2)">
       <use xlink:href="#DejaVuSans-30"/>
       <use xlink:href="#DejaVuSans-2e" x="63.623047"/>
       <use xlink:href="#DejaVuSans-30" x="95.410156"/>
       <use xlink:href="#DejaVuSans-30" x="159.033203"/>
       <use xlink:href="#DejaVuSans-30" x="222.65625"/>
      </g>
     </g>
    </g>
    <g id="ytick_4">
     <g id="line2d_13">
      <g>
       <use xlink:href="#m0e5148a821" x="585" y="389.4248" style="stroke: #000000; stroke-width: 0.8"/>
      </g>
     </g>
     <g id="text_14">
      <!-- 0.001 -->
      <g transform="translate(520.74375 397.023238) scale(0.2 -0.2)">
       <use xlink:href="#DejaVuSans-30"/>
       <use xlink:href="#DejaVuSans-2e" x="63.623047"/>
       <use xlink:href="#DejaVuSans-30" x="95.410156"/>
       <use xlink:href="#DejaVuSans-30" x="159.033203"/>
       <use xlink:href="#DejaVuSans-31" x="222.65625"/>
      </g>
     </g>
    </g>
    <g id="ytick_5">
     <g id="line2d_14">
      <g>
       <use xlink:href="#m0e5148a821" x="585" y="237.528205" style="stroke: #000000; stroke-width: 0.8"/>
      </g>
     </g>
     <g id="text_15">
      <!-- 0.002 -->
      <g transform="translate(520.74375 245.126642) scale(0.2 -0.2)">
       <use xlink:href="#DejaVuSans-30"/>
       <use xlink:href="#DejaVuSans-2e" x="63.623047"/>
       <use xlink:href="#DejaVuSans-30" x="95.410156"/>
       <use xlink:href="#DejaVuSans-30" x="159.033203"/>
       <use xlink:href="#DejaVuSans-32" x="222.65625"/>
      </g>
     </g>
    </g>
    <g id="text_16">
     <!-- East(m) -->
     <g transform="translate(495.825 584.520313) rotate(-90) scale(0.2 -0.2)">
      <defs>
       <path id="DejaVuSans-45" d="M 628 4666 
L 3578 4666 
L 3578 4134 
L 1259 4134 
L 1259 2753 
L 3481 2753 
L 3481 2222 
L 1259 2222 
L 1259 531 
L 3634 531 
L 3634 0 
L 628 0 
L 628 4666 
z
" transform="scale(0.015625)"/>
       <path id="DejaVuSans-61" d="M 2194 1759 
Q 1497 1759 1228 1600 
Q 959 1441 959 1056 
Q 959 750 1161 570 
Q 1363 391 1709 391 
Q 2188 391 2477 730 
Q 2766 1069 2766 1631 
L 2766 1759 
L 2194 1759 
z
M 3341 1997 
L 3341 0 
L 2766 0 
L 2766 531 
Q 2569 213 2275 61 
Q 1981 -91 1556 -91 
Q 1019 -91 701 211 
Q 384 513 384 1019 
Q 384 1609 779 1909 
Q 1175 2209 1959 2209 
L 2766 2209 
L 2766 2266 
Q 2766 2663 2505 2880 
Q 2244 3097 1772 3097 
Q 1472 3097 1187 3025 
Q 903 2953 641 2809 
L 641 3341 
Q 956 3463 1253 3523 
Q 1550 3584 1831 3584 
Q 2591 3584 2966 3190 
Q 3341 2797 3341 1997 
z
" transform="scale(0.015625)"/>
       <path id="DejaVuSans-73" d="M 2834 3397 
L 2834 2853 
Q 2591 2978 2328 3040 
Q 2066 3103 1784 3103 
Q 1356 3103 1142 2972 
Q 928 2841 928 2578 
Q 928 2378 1081 2264 
Q 1234 2150 1697 2047 
L 1894 2003 
Q 2506 1872 2764 1633 
Q 3022 1394 3022 966 
Q 3022 478 2636 193 
Q 2250 -91 1575 -91 
Q 1294 -91 989 -36 
Q 684 19 347 128 
L 347 722 
Q 666 556 975 473 
Q 1284 391 1588 391 
Q 1994 391 2212 530 
Q 2431 669 2431 922 
Q 2431 1156 2273 1281 
Q 2116 1406 1581 1522 
L 1381 1569 
Q 847 1681 609 1914 
Q 372 2147 372 2553 
Q 372 3047 722 3315 
Q 1072 3584 1716 3584 
Q 2034 3584 2315 3537 
Q 2597 3491 2834 3397 
z
" transform="scale(0.015625)"/>
       <path id="DejaVuSans-74" d="M 1172 4494 
L 1172 3500 
L 2356 3500 
L 2356 3053 
L 1172 3053 
L 1172 1153 
Q 1172 725 1289 603 
Q 1406 481 1766 481 
L 2356 481 
L 2356 0 
L 1766 0 
Q 1100 0 847 248 
Q 594 497 594 1153 
L 594 3053 
L 172 3053 
L 172 3500 
L 594 3500 
L 594 4494 
L 1172 4494 
z
" transform="scale(0.015625)"/>
       <path id="DejaVuSans-28" d="M 1984 4856 
Q 1566 4138 1362 3434 
Q 1159 2731 1159 2009 
Q 1159 1288 1364 580 
Q 1569 -128 1984 -844 
L 1484 -844 
Q 1016 -109 783 600 
Q 550 1309 550 2009 
Q 550 2706 781 3412 
Q 1013 4119 1484 4856 
L 1984 4856 
z
" transform="scale(0.015625)"/>
       <path id="DejaVuSans-29" d="M 513 4856 
L 1013 4856 
Q 1481 4119 1714 3412 
Q 1947 2706 1947 2009 
Q 1947 1309 1714 600 
Q 1481 -109 1013 -844 
L 513 -844 
Q 928 -128 1133 580 
Q 1338 1288 1338 2009 
Q 1338 2731 1133 3434 
Q 928 4138 513 4856 
z
" transform="scale(0.015625)"/>
      </defs>
      <use xlink:href="#DejaVuSans-45"/>
      <use xlink:href="#DejaVuSans-61" x="63.183594"/>
      <use xlink:href="#DejaVuSans-73" x="124.462891"/>
      <use xlink:href="#DejaVuSans-74" x="176.5625"/>
      <use xlink:href="#DejaVuSans-28" x="215.771484"/>
      <use xlink:href="#DejaVuSans-6d" x="254.785156"/>
      <use xlink:href="#DejaVuSans-29" x="352.197266"/>
     </g>
    </g>
   </g>
   <g id="line2d_15">
    <path d="M 749.863636 838.098448 
L 753.904412 923.4 
L 755.924799 906.734691 
L 761.985963 805.689039 
L 764.00635 778.626924 
L 766.026738 765.124776 
L 768.047126 717.201055 
L 770.067513 665.540807 
L 772.087901 720.852829 
L 774.108289 744.312521 
L 776.128676 775.9071 
L 790.27139 736.585924 
L 792.291778 737.691739 
L 794.312166 711.086459 
L 796.332553 689.136785 
L 798.352941 643.722432 
L 800.373329 615.001205 
L 802.393717 568.089422 
L 806.434492 594.3942 
L 808.45488 611.098376 
L 810.475267 599.98198 
L 812.495655 619.549023 
L 824.617981 640.279358 
L 832.699532 567.09229 
L 834.71992 539.609655 
L 836.740307 503.174038 
L 844.821858 474.559621 
L 850.883021 461.180444 
L 852.903409 441.597464 
L 854.923797 445.93079 
L 856.944184 441.736387 
L 860.98496 450.731567 
L 863.005348 464.199938 
L 865.025735 444.066423 
L 867.046123 522.194072 
L 869.066511 492.798402 
L 873.107286 463.230144 
L 875.127674 442.723903 
L 877.148061 418.196833 
L 879.168449 432.290763 
L 885.229612 345.038284 
L 889.270388 430.180823 
L 891.290775 416.001258 
L 893.311163 428.608086 
L 895.331551 443.341065 
L 897.351939 512.356845 
L 899.372326 520.974212 
L 901.392714 465.293914 
L 903.413102 442.615486 
L 905.433489 414.512449 
L 907.453877 369.352098 
L 909.474265 362.594566 
L 913.51504 225.374874 
L 915.535428 207.272145 
L 917.555816 184.061375 
L 921.596591 211.628842 
L 933.718917 361.800498 
L 937.759693 426.990845 
L 1044.840241 445.431071 
L 1046.860628 411.401991 
L 1048.881016 456.088972 
L 1212.53242 416.666608 
L 1214.552807 392.457931 
L 1216.573195 348.811125 
L 1226.675134 338.399154 
L 1230.715909 368.149395 
L 1232.736297 373.136254 
L 1234.756684 410.535615 
L 1236.777072 430.433244 
L 1238.79746 443.833025 
L 1240.817848 453.042866 
L 1242.838235 441.665315 
L 1333.755682 484.358083 
L 1337.796457 414.625489 
L 1341.837233 382.010888 
L 1372.143048 489.721104 
L 1374.163436 487.647707 
L 1376.183824 529.873731 
L 1378.204211 533.16229 
L 1382.244987 508.728676 
L 1384.265374 485.220472 
L 1386.285762 451.983949 
L 1388.30615 429.079761 
L 1390.326537 403.934378 
L 1392.346925 380.200986 
L 1394.367313 363.028736 
L 1402.448864 368.75327 
L 1404.469251 366.33928 
L 1406.489639 411.948705 
L 1412.550802 518.458812 
L 1414.57119 526.332301 
L 1416.591578 518.74215 
L 1418.611965 547.671358 
L 1420.632353 539.393624 
L 1424.673128 521.282973 
L 1428.713904 553.498461 
L 1432.754679 555.243606 
L 1434.775067 581.333314 
L 1436.795455 581.982 
L 1444.877005 536.354309 
L 1446.897393 545.386508 
L 1454.978944 523.203766 
L 1456.999332 544.568421 
L 1459.019719 540.6314 
L 1461.040107 541.531381 
L 1463.060495 502.598056 
L 1465.080882 486.238952 
L 1469.121658 505.353623 
L 1471.142045 487.430838 
L 1473.162433 459.771756 
L 1475.182821 446.152549 
L 1479.223596 427.239001 
L 1481.243984 437.296883 
L 1483.264372 453.114209 
L 1485.284759 450.012052 
L 1489.325535 525.218937 
L 1491.345922 453.241923 
L 1493.36631 461.26821 
L 1495.386698 422.194438 
L 1497.407086 348.024955 
L 1501.447861 286.041885 
L 1669.14004 495.719583 
L 1673.180816 412.889238 
L 1677.221591 414.196229 
L 1683.282754 486.034937 
L 1689.343917 620.355924 
L 1691.364305 647.007143 
L 1693.384693 714.699155 
L 1697.425468 674.58127 
L 1699.445856 579.106389 
L 1701.466243 540.947675 
L 1703.486631 542.629831 
L 1705.507019 512.484038 
L 1707.527406 458.952437 
L 1719.649733 591.268291 
L 1723.690508 560.481062 
L 1725.710896 540.400024 
L 1727.731283 524.707728 
L 1729.751671 456.888458 
L 1731.772059 482.770696 
L 1735.812834 492.92091 
L 1737.833222 568.595031 
L 1739.85361 574.368109 
L 1741.873997 568.145195 
L 1743.894385 540.610535 
L 1749.955548 601.438414 
L 1751.975936 533.032244 
L 1753.996324 527.040123 
L 1756.016711 568.32512 
L 1758.037099 674.717858 
L 1766.11865 591.123965 
L 1768.139037 663.147305 
L 1780.261364 716.514007 
L 1782.281751 673.236511 
L 1784.302139 678.530194 
L 1786.322527 701.046765 
L 1790.363302 756.512479 
L 1792.38369 769.207817 
L 1794.404078 746.903772 
L 1796.424465 764.110952 
L 1806.526404 741.921946 
L 1808.546791 713.539201 
L 1810.567179 691.206379 
L 1812.587567 695.021307 
L 1814.607955 677.935688 
L 1816.628342 692.932868 
L 1818.64873 722.092307 
L 1822.689505 669.986498 
L 1824.709893 691.502744 
L 1826.730281 729.780152 
L 1828.750668 779.63347 
L 1830.771056 765.384549 
L 1832.791444 769.663183 
L 1834.811832 792.777512 
L 1836.832219 838.666739 
L 1838.852607 839.800312 
L 1954.014706 760.355515 
L 1958.055481 759.034906 
L 1960.075869 752.594237 
L 1962.096257 755.08668 
L 1964.116644 671.416983 
L 1966.137032 688.517832 
L 1968.15742 660.401854 
L 1970.177807 704.175511 
L 1980.279746 761.51588 
L 1982.300134 783.982827 
L 1988.361297 794.897487 
L 1990.381684 770.194379 
L 1992.402072 821.187442 
L 1994.42246 832.038272 
L 1996.442848 814.991359 
L 2000.483623 749.117519 
L 2073.21758 618.190043 
L 2075.237968 660.474896 
L 2079.278743 665.823197 
L 2081.299131 606.979898 
L 2109.584559 485.168863 
L 2438.907754 656.624367 
L 2440.928142 684.304 
L 2442.948529 640.742069 
L 2444.968917 652.195184 
L 2449.009693 714.473484 
L 2467.193182 787.925388 
L 3178.369652 542.355177 
L 3180.39004 564.931414 
L 3182.410428 532.604892 
L 3184.430816 444.906971 
L 3186.451203 408.742134 
L 3188.471591 451.628222 
L 3194.532754 452.925951 
L 3206.65508 542.182267 
L 3210.695856 589.209316 
L 3212.716243 601.631472 
L 3214.736631 617.16971 
L 3216.757019 570.442418 
L 3220.797794 579.35296 
L 3228.879345 580.990523 
L 3230.899733 591.982506 
L 3253.123997 591.669159 
L 3257.164773 653.259293 
L 3259.18516 611.154328 
L 3261.205548 600.786305 
L 3265.246324 510.693268 
L 3267.266711 501.483375 
L 3269.287099 439.678469 
L 3277.36865 381.112779 
L 3285.450201 434.439596 
L 3287.470588 483.351297 
L 3289.490976 505.114366 
L 3291.511364 506.04739 
L 3293.531751 450.449951 
L 3295.552139 462.403586 
L 3297.572527 444.350711 
L 3299.592914 450.508166 
L 3301.613302 439.147472 
L 3303.63369 434.640791 
L 3309.694853 499.535755 
L 3315.756016 526.206938 
L 3317.776404 557.665251 
L 3319.796791 518.487458 
L 3321.817179 426.483326 
L 3323.837567 403.332829 
L 3325.857955 377.29819 
L 3327.878342 369.436586 
L 3329.89873 359.626531 
L 3331.919118 329.799345 
L 3340.000668 374.661216 
L 3342.021056 356.749206 
L 3344.041444 377.580616 
L 3346.061832 400.500401 
L 3348.082219 427.405627 
L 3350.102607 466.822015 
L 3352.122995 487.5685 
L 3354.143382 523.169525 
L 3356.16377 536.59789 
L 3358.184158 469.692697 
L 3360.204545 448.794063 
L 3362.224933 364.767628 
L 3364.245321 339.913483 
L 3366.265709 325.122038 
L 3368.286096 309.146958 
L 3370.306484 323.317765 
L 3374.347259 387.580377 
L 3376.367647 453.484855 
L 3400.612299 331.473809 
L 3402.632687 353.754459 
L 3404.653075 353.232347 
L 3406.673463 357.277385 
L 3410.714238 362.121363 
L 3412.734626 375.191943 
L 3414.755013 386.159629 
L 3416.775401 346.736476 
L 3418.795789 339.742675 
L 3420.816176 314.072771 
L 3422.836564 264.141175 
L 3424.856952 277.33574 
L 3426.87734 321.404797 
L 3428.897727 310.047214 
L 3430.918115 337.179747 
L 3432.938503 358.62631 
L 3434.95889 375.440492 
L 3436.979278 354.920799 
L 3438.999666 259.774579 
L 3441.020053 225.699657 
L 3443.040441 236.796209 
L 3445.060829 210.029379 
L 3447.081217 185.944522 
L 3449.101604 167.4 
L 3451.121992 246.458749 
L 3453.14238 363.340548 
L 3455.162767 420.056392 
L 3457.183155 429.914934 
L 3459.203543 479.58413 
L 3461.22393 490.121819 
L 3463.244318 538.550342 
L 3465.264706 542.989804 
L 3467.285094 551.218107 
L 3469.305481 498.908793 
L 3471.325869 465.959472 
L 3473.346257 439.138237 
L 3475.366644 436.776649 
L 3477.387032 397.440982 
L 3479.40742 361.569338 
L 3481.427807 345.961176 
L 3483.448195 412.39293 
L 3485.468583 470.324444 
L 3487.488971 463.464729 
L 3489.509358 467.243741 
L 3491.529746 467.841133 
L 3493.550134 475.311024 
L 3497.590909 429.334478 
L 3499.611297 427.590068 
L 3501.631684 470.176908 
L 3505.67246 532.941606 
L 3507.692848 556.541406 
L 3509.713235 550.984524 
L 3511.733623 529.437997 
L 3513.754011 518.906991 
L 3515.774398 505.173594 
L 3517.794786 511.038284 
L 3519.815174 529.318637 
L 3521.835561 515.798816 
L 3523.855949 552.595799 
L 3527.896725 531.769919 
L 3529.917112 500.672768 
L 3531.9375 481.358883 
L 3533.957888 443.425348 
L 3535.978275 453.483305 
L 3537.998663 490.345509 
L 3540.019051 473.172273 
L 3542.039439 502.139545 
L 3544.059826 516.552421 
L 3548.100602 571.068431 
L 3550.120989 570.702998 
L 3552.141377 522.115862 
L 3554.161765 569.86135 
L 3556.182152 564.193078 
L 3558.20254 564.269207 
L 3560.222928 576.85578 
L 3562.243316 533.165152 
L 3564.263703 517.330499 
L 3566.284091 506.739786 
L 3568.304479 448.643128 
L 3570.324866 474.727367 
L 3572.345254 462.634387 
L 3582.447193 543.741315 
L 3584.46758 538.412218 
L 3586.487968 552.164768 
L 3590.528743 519.454704 
L 3592.549131 549.180286 
L 3594.569519 542.689588 
L 3596.589906 491.784746 
L 3598.610294 466.636903 
L 3600.630682 450.102948 
L 3602.65107 439.517089 
L 3604.671457 450.878325 
L 3647.099599 301.103539 
L 3649.119987 308.19873 
L 3653.160762 340.651349 
L 3659.221925 267.248972 
L 3661.242313 238.610216 
L 3663.262701 229.036968 
L 3665.283088 242.662492 
L 3667.303476 237.18587 
L 3669.323864 217.737221 
L 3671.344251 272.451368 
L 3673.364639 297.104952 
L 3675.385027 323.814395 
L 3677.405414 335.604172 
L 3679.425802 364.496193 
L 3681.44619 369.014373 
L 3685.486965 416.422332 
L 3687.507353 434.065139 
L 3689.527741 394.573518 
L 3691.548128 373.110741 
L 3693.568516 302.812005 
L 3695.588904 277.294463 
L 3697.609291 235.75557 
L 3703.670455 272.317969 
L 3705.690842 291.322819 
L 3707.71123 290.847705 
L 3711.752005 356.585264 
L 3713.772393 404.721749 
L 3715.792781 357.247424 
L 3717.813168 411.785652 
L 3719.833556 404.912056 
L 3721.853944 415.98279 
L 3723.874332 404.455685 
L 3725.894719 454.301138 
L 3729.935495 425.391731 
L 3733.97627 394.223668 
L 3735.996658 403.752324 
L 3738.017045 386.000003 
L 3740.037433 329.147016 
L 3744.078209 340.829296 
L 3746.098596 367.144225 
L 3748.118984 353.685501 
L 3750.139372 349.072679 
L 3752.159759 365.462307 
L 3756.200535 431.325198 
L 3758.220922 458.67117 
L 3760.24131 423.493705 
L 3762.261698 441.416546 
L 3764.282086 439.16564 
L 3766.302473 398.3011 
L 3768.322861 388.9333 
L 3772.363636 338.905434 
L 3774.384024 341.076658 
L 3776.404412 380.638814 
L 3778.424799 411.623129 
L 3780.445187 444.395205 
L 3786.50635 364.929825 
L 3788.526738 424.212919 
L 3790.547126 413.435556 
L 3792.567513 407.7602 
L 3794.587901 425.153703 
L 3798.628676 484.701586 
L 3952.178142 483.25781 
L 3954.198529 407.196562 
L 3956.218917 408.20605 
L 3958.239305 408.950413 
L 3960.259693 451.339895 
L 3970.361631 498.88558 
L 3972.382019 472.107095 
L 3978.443182 511.373716 
L 3980.46357 484.401777 
L 3982.483957 480.543137 
L 3984.504345 436.381972 
L 3986.524733 452.47383 
L 3988.54512 482.684167 
L 3990.565508 480.042174 
L 3996.626671 496.694479 
L 4002.687834 541.429948 
L 4004.708222 589.055105 
L 4006.72861 571.227748 
L 4008.748997 598.732937 
L 4010.769385 615.075992 
L 4014.81016 656.822289 
L 4016.830548 633.966941 
L 4018.850936 635.145072 
L 4020.871324 606.174031 
L 4030.973262 675.065715 
L 4032.99365 687.638603 
L 4035.014037 713.457223 
L 4037.034425 741.171425 
L 4039.054813 765.264963 
L 4041.075201 762.62055 
L 4043.095588 721.008187 
L 4045.115976 665.024327 
L 4047.136364 638.250894 
L 4047.136364 638.250894 
" clip-path="url(#pda89973622)" style="fill: none; stroke: #ff7c00; stroke-width: 2.5; stroke-linecap: square"/>
   </g>
   <g id="patch_3">
    <path d="M 585 961.2 
L 585 129.6 
" style="fill: none; stroke: #000000; stroke-width: 0.8; stroke-linejoin: miter; stroke-linecap: square"/>
   </g>
   <g id="patch_4">
    <path d="M 4212 961.2 
L 4212 129.6 
" style="fill: none; stroke: #000000; stroke-width: 0.8; stroke-linejoin: miter; stroke-linecap: square"/>
   </g>
   <g id="patch_5">
    <path d="M 585 961.2 
L 4212 961.2 
" style="fill: none; stroke: #000000; stroke-width: 0.8; stroke-linejoin: miter; stroke-linecap: square"/>
   </g>
   <g id="patch_6">
    <path d="M 585 129.6 
L 4212 129.6 
" style="fill: none; stroke: #000000; stroke-width: 0.8; stroke-linejoin: miter; stroke-linecap: square"/>
   </g>
   <g id="text_17">
    <!-- VITT -->
    <g transform="translate(2365.753125 123.360937) scale(0.3 -0.3)">
     <defs>
      <path id="DejaVuSans-56" d="M 1831 0 
L 50 4666 
L 709 4666 
L 2188 738 
L 3669 4666 
L 4325 4666 
L 2547 0 
L 1831 0 
z
" transform="scale(0.015625)"/>
      <path id="DejaVuSans-49" d="M 628 4666 
L 1259 4666 
L 1259 0 
L 628 0 
L 628 4666 
z
" transform="scale(0.015625)"/>
     </defs>
     <use xlink:href="#DejaVuSans-56"/>
     <use xlink:href="#DejaVuSans-49" x="68.408203"/>
     <use xlink:href="#DejaVuSans-54" x="97.900391"/>
     <use xlink:href="#DejaVuSans-54" x="157.234375"/>
    </g>
   </g>
   <g id="legend_1">
    <g id="patch_7">
     <path d="M 4156.4625 152.278125 
L 4205 152.278125 
Q 4207 152.278125 4207 150.278125 
L 4207 136.6 
Q 4207 134.6 4205 134.6 
L 4156.4625 134.6 
Q 4154.4625 134.6 4154.4625 136.6 
L 4154.4625 150.278125 
Q 4154.4625 152.278125 4156.4625 152.278125 
z
" style="fill: #ffffff; opacity: 0.8; stroke: #cccccc; stroke-linejoin: miter"/>
    </g>
    <g id="line2d_16">
     <path d="M 4158.4625 142.698438 
L 4168.4625 142.698438 
L 4178.4625 142.698438 
" style="fill: none; stroke: #ff7c00; stroke-width: 2.5; stroke-linecap: square"/>
    </g>
    <g id="text_18">
     <!-- vitt -->
     <g transform="translate(4186.4625 146.198438) scale(0.1 -0.1)">
      <defs>
       <path id="DejaVuSans-76" d="M 191 3500 
L 800 3500 
L 1894 563 
L 2988 3500 
L 3597 3500 
L 2284 0 
L 1503 0 
L 191 3500 
z
" transform="scale(0.015625)"/>
      </defs>
      <use xlink:href="#DejaVuSans-76"/>
      <use xlink:href="#DejaVuSans-69" x="59.179688"/>
      <use xlink:href="#DejaVuSans-74" x="86.962891"/>
      <use xlink:href="#DejaVuSans-74" x="126.171875"/>
     </g>
    </g>
   </g>
  </g>
 </g>
 <defs>
  <clipPath id="pda89973622">
   <rect x="585" y="129.6" width="3627" height="831.6"/>
  </clipPath>
 </defs>
</svg>
