<?xml version="1.0" encoding="utf-8" standalone="no"?>
<!DOCTYPE svg PUBLIC "-//W3C//DTD SVG 1.1//EN"
  "http://www.w3.org/Graphics/SVG/1.1/DTD/svg11.dtd">
<svg xmlns:xlink="http://www.w3.org/1999/xlink" width="1800pt" height="360pt" viewBox="0 0 1800 360" xmlns="http://www.w3.org/2000/svg" version="1.1">
 <metadata>
  <rdf:RDF xmlns:dc="http://purl.org/dc/elements/1.1/" xmlns:cc="http://creativecommons.org/ns#" xmlns:rdf="http://www.w3.org/1999/02/22-rdf-syntax-ns#">
   <cc:Work>
    <dc:type rdf:resource="http://purl.org/dc/dcmitype/StillImage"/>
    <dc:date>2024-03-06T16:14:13.492969</dc:date>
    <dc:format>image/svg+xml</dc:format>
    <dc:creator>
     <cc:Agent>
      <dc:title>Matplotlib v3.7.2, https://matplotlib.org/</dc:title>
     </cc:Agent>
    </dc:creator>
   </cc:Work>
  </rdf:RDF>
 </metadata>
 <defs>
  <style type="text/css">*{stroke-linejoin: round; stroke-linecap: butt}</style>
 </defs>
 <g id="figure_1">
  <g id="patch_1">
   <path d="M 0 360 
L 1800 360 
L 1800 0 
L 0 0 
z
" style="fill: #ffffff"/>
  </g>
  <g id="axes_1">
   <g id="patch_2">
    <path d="M 225 320.4 
L 1620 320.4 
L 1620 43.2 
L 225 43.2 
z
" style="fill: #ffffff"/>
   </g>
   <g id="matplotlib.axis_1">
    <g id="xtick_1">
     <g id="line2d_1">
      <defs>
       <path id="mf5c0b5ab99" d="M 0 0 
L 0 3.5 
" style="stroke: #000000; stroke-width: 0.8"/>
      </defs>
      <g>
       <use xlink:href="#mf5c0b5ab99" x="259.661751" y="320.4" style="stroke: #000000; stroke-width: 0.8"/>
      </g>
     </g>
     <g id="text_1">
      <!-- 2011 -->
      <g transform="translate(240.574251 338.797656) scale(0.15 -0.15)">
       <defs>
        <path id="DejaVuSans-32" d="M 1228 531 
L 3431 531 
L 3431 0 
L 469 0 
L 469 531 
Q 828 903 1448 1529 
Q 2069 2156 2228 2338 
Q 2531 2678 2651 2914 
Q 2772 3150 2772 3378 
Q 2772 3750 2511 3984 
Q 2250 4219 1831 4219 
Q 1534 4219 1204 4116 
Q 875 4013 500 3803 
L 500 4441 
Q 881 4594 1212 4672 
Q 1544 4750 1819 4750 
Q 2544 4750 2975 4387 
Q 3406 4025 3406 3419 
Q 3406 3131 3298 2873 
Q 3191 2616 2906 2266 
Q 2828 2175 2409 1742 
Q 1991 1309 1228 531 
z
" transform="scale(0.015625)"/>
        <path id="DejaVuSans-30" d="M 2034 4250 
Q 1547 4250 1301 3770 
Q 1056 3291 1056 2328 
Q 1056 1369 1301 889 
Q 1547 409 2034 409 
Q 2525 409 2770 889 
Q 3016 1369 3016 2328 
Q 3016 3291 2770 3770 
Q 2525 4250 2034 4250 
z
M 2034 4750 
Q 2819 4750 3233 4129 
Q 3647 3509 3647 2328 
Q 3647 1150 3233 529 
Q 2819 -91 2034 -91 
Q 1250 -91 836 529 
Q 422 1150 422 2328 
Q 422 3509 836 4129 
Q 1250 4750 2034 4750 
z
" transform="scale(0.015625)"/>
        <path id="DejaVuSans-31" d="M 794 531 
L 1825 531 
L 1825 4091 
L 703 3866 
L 703 4441 
L 1819 4666 
L 2450 4666 
L 2450 531 
L 3481 531 
L 3481 0 
L 794 0 
L 794 531 
z
" transform="scale(0.015625)"/>
       </defs>
       <use xlink:href="#DejaVuSans-32"/>
       <use xlink:href="#DejaVuSans-30" x="63.623047"/>
       <use xlink:href="#DejaVuSans-31" x="127.246094"/>
       <use xlink:href="#DejaVuSans-31" x="190.869141"/>
      </g>
     </g>
    </g>
    <g id="xtick_2">
     <g id="line2d_2">
      <g>
       <use xlink:href="#mf5c0b5ab99" x="431.674521" y="320.4" style="stroke: #000000; stroke-width: 0.8"/>
      </g>
     </g>
     <g id="text_2">
      <!-- 2012 -->
      <g transform="translate(412.587021 338.797656) scale(0.15 -0.15)">
       <use xlink:href="#DejaVuSans-32"/>
       <use xlink:href="#DejaVuSans-30" x="63.623047"/>
       <use xlink:href="#DejaVuSans-31" x="127.246094"/>
       <use xlink:href="#DejaVuSans-32" x="190.869141"/>
      </g>
     </g>
    </g>
    <g id="xtick_3">
     <g id="line2d_3">
      <g>
       <use xlink:href="#mf5c0b5ab99" x="604.158559" y="320.4" style="stroke: #000000; stroke-width: 0.8"/>
      </g>
     </g>
     <g id="text_3">
      <!-- 2013 -->
      <g transform="translate(585.071059 338.797656) scale(0.15 -0.15)">
       <defs>
        <path id="DejaVuSans-33" d="M 2597 2516 
Q 3050 2419 3304 2112 
Q 3559 1806 3559 1356 
Q 3559 666 3084 287 
Q 2609 -91 1734 -91 
Q 1441 -91 1130 -33 
Q 819 25 488 141 
L 488 750 
Q 750 597 1062 519 
Q 1375 441 1716 441 
Q 2309 441 2620 675 
Q 2931 909 2931 1356 
Q 2931 1769 2642 2001 
Q 2353 2234 1838 2234 
L 1294 2234 
L 1294 2753 
L 1863 2753 
Q 2328 2753 2575 2939 
Q 2822 3125 2822 3475 
Q 2822 3834 2567 4026 
Q 2313 4219 1838 4219 
Q 1578 4219 1281 4162 
Q 984 4106 628 3988 
L 628 4550 
Q 988 4650 1302 4700 
Q 1616 4750 1894 4750 
Q 2613 4750 3031 4423 
Q 3450 4097 3450 3541 
Q 3450 3153 3228 2886 
Q 3006 2619 2597 2516 
z
" transform="scale(0.015625)"/>
       </defs>
       <use xlink:href="#DejaVuSans-32"/>
       <use xlink:href="#DejaVuSans-30" x="63.623047"/>
       <use xlink:href="#DejaVuSans-31" x="127.246094"/>
       <use xlink:href="#DejaVuSans-33" x="190.869141"/>
      </g>
     </g>
    </g>
    <g id="xtick_4">
     <g id="line2d_4">
      <g>
       <use xlink:href="#mf5c0b5ab99" x="776.171329" y="320.4" style="stroke: #000000; stroke-width: 0.8"/>
      </g>
     </g>
     <g id="text_4">
      <!-- 2014 -->
      <g transform="translate(757.083829 338.797656) scale(0.15 -0.15)">
       <defs>
        <path id="DejaVuSans-34" d="M 2419 4116 
L 825 1625 
L 2419 1625 
L 2419 4116 
z
M 2253 4666 
L 3047 4666 
L 3047 1625 
L 3713 1625 
L 3713 1100 
L 3047 1100 
L 3047 0 
L 2419 0 
L 2419 1100 
L 313 1100 
L 313 1709 
L 2253 4666 
z
" transform="scale(0.015625)"/>
       </defs>
       <use xlink:href="#DejaVuSans-32"/>
       <use xlink:href="#DejaVuSans-30" x="63.623047"/>
       <use xlink:href="#DejaVuSans-31" x="127.246094"/>
       <use xlink:href="#DejaVuSans-34" x="190.869141"/>
      </g>
     </g>
    </g>
    <g id="xtick_5">
     <g id="line2d_5">
      <g>
       <use xlink:href="#mf5c0b5ab99" x="948.184099" y="320.4" style="stroke: #000000; stroke-width: 0.8"/>
      </g>
     </g>
     <g id="text_5">
      <!-- 2015 -->
      <g transform="translate(929.096599 338.797656) scale(0.15 -0.15)">
       <defs>
        <path id="DejaVuSans-35" d="M 691 4666 
L 3169 4666 
L 3169 4134 
L 1269 4134 
L 1269 2991 
Q 1406 3038 1543 3061 
Q 1681 3084 1819 3084 
Q 2600 3084 3056 2656 
Q 3513 2228 3513 1497 
Q 3513 744 3044 326 
Q 2575 -91 1722 -91 
Q 1428 -91 1123 -41 
Q 819 9 494 109 
L 494 744 
Q 775 591 1075 516 
Q 1375 441 1709 441 
Q 2250 441 2565 725 
Q 2881 1009 2881 1497 
Q 2881 1984 2565 2268 
Q 2250 2553 1709 2553 
Q 1456 2553 1204 2497 
Q 953 2441 691 2322 
L 691 4666 
z
" transform="scale(0.015625)"/>
       </defs>
       <use xlink:href="#DejaVuSans-32"/>
       <use xlink:href="#DejaVuSans-30" x="63.623047"/>
       <use xlink:href="#DejaVuSans-31" x="127.246094"/>
       <use xlink:href="#DejaVuSans-35" x="190.869141"/>
      </g>
     </g>
    </g>
    <g id="xtick_6">
     <g id="line2d_6">
      <g>
       <use xlink:href="#mf5c0b5ab99" x="1120.196868" y="320.4" style="stroke: #000000; stroke-width: 0.8"/>
      </g>
     </g>
     <g id="text_6">
      <!-- 2016 -->
      <g transform="translate(1101.109368 338.797656) scale(0.15 -0.15)">
       <defs>
        <path id="DejaVuSans-36" d="M 2113 2584 
Q 1688 2584 1439 2293 
Q 1191 2003 1191 1497 
Q 1191 994 1439 701 
Q 1688 409 2113 409 
Q 2538 409 2786 701 
Q 3034 994 3034 1497 
Q 3034 2003 2786 2293 
Q 2538 2584 2113 2584 
z
M 3366 4563 
L 3366 3988 
Q 3128 4100 2886 4159 
Q 2644 4219 2406 4219 
Q 1781 4219 1451 3797 
Q 1122 3375 1075 2522 
Q 1259 2794 1537 2939 
Q 1816 3084 2150 3084 
Q 2853 3084 3261 2657 
Q 3669 2231 3669 1497 
Q 3669 778 3244 343 
Q 2819 -91 2113 -91 
Q 1303 -91 875 529 
Q 447 1150 447 2328 
Q 447 3434 972 4092 
Q 1497 4750 2381 4750 
Q 2619 4750 2861 4703 
Q 3103 4656 3366 4563 
z
" transform="scale(0.015625)"/>
       </defs>
       <use xlink:href="#DejaVuSans-32"/>
       <use xlink:href="#DejaVuSans-30" x="63.623047"/>
       <use xlink:href="#DejaVuSans-31" x="127.246094"/>
       <use xlink:href="#DejaVuSans-36" x="190.869141"/>
      </g>
     </g>
    </g>
    <g id="xtick_7">
     <g id="line2d_7">
      <g>
       <use xlink:href="#mf5c0b5ab99" x="1292.680906" y="320.4" style="stroke: #000000; stroke-width: 0.8"/>
      </g>
     </g>
     <g id="text_7">
      <!-- 2017 -->
      <g transform="translate(1273.593406 338.797656) scale(0.15 -0.15)">
       <defs>
        <path id="DejaVuSans-37" d="M 525 4666 
L 3525 4666 
L 3525 4397 
L 1831 0 
L 1172 0 
L 2766 4134 
L 525 4134 
L 525 4666 
z
" transform="scale(0.015625)"/>
       </defs>
       <use xlink:href="#DejaVuSans-32"/>
       <use xlink:href="#DejaVuSans-30" x="63.623047"/>
       <use xlink:href="#DejaVuSans-31" x="127.246094"/>
       <use xlink:href="#DejaVuSans-37" x="190.869141"/>
      </g>
     </g>
    </g>
    <g id="xtick_8">
     <g id="line2d_8">
      <g>
       <use xlink:href="#mf5c0b5ab99" x="1464.693676" y="320.4" style="stroke: #000000; stroke-width: 0.8"/>
      </g>
     </g>
     <g id="text_8">
      <!-- 2018 -->
      <g transform="translate(1445.606176 338.797656) scale(0.15 -0.15)">
       <defs>
        <path id="DejaVuSans-38" d="M 2034 2216 
Q 1584 2216 1326 1975 
Q 1069 1734 1069 1313 
Q 1069 891 1326 650 
Q 1584 409 2034 409 
Q 2484 409 2743 651 
Q 3003 894 3003 1313 
Q 3003 1734 2745 1975 
Q 2488 2216 2034 2216 
z
M 1403 2484 
Q 997 2584 770 2862 
Q 544 3141 544 3541 
Q 544 4100 942 4425 
Q 1341 4750 2034 4750 
Q 2731 4750 3128 4425 
Q 3525 4100 3525 3541 
Q 3525 3141 3298 2862 
Q 3072 2584 2669 2484 
Q 3125 2378 3379 2068 
Q 3634 1759 3634 1313 
Q 3634 634 3220 271 
Q 2806 -91 2034 -91 
Q 1263 -91 848 271 
Q 434 634 434 1313 
Q 434 1759 690 2068 
Q 947 2378 1403 2484 
z
M 1172 3481 
Q 1172 3119 1398 2916 
Q 1625 2713 2034 2713 
Q 2441 2713 2670 2916 
Q 2900 3119 2900 3481 
Q 2900 3844 2670 4047 
Q 2441 4250 2034 4250 
Q 1625 4250 1398 4047 
Q 1172 3844 1172 3481 
z
" transform="scale(0.015625)"/>
       </defs>
       <use xlink:href="#DejaVuSans-32"/>
       <use xlink:href="#DejaVuSans-30" x="63.623047"/>
       <use xlink:href="#DejaVuSans-31" x="127.246094"/>
       <use xlink:href="#DejaVuSans-38" x="190.869141"/>
      </g>
     </g>
    </g>
    <g id="text_9">
     <!-- Time -->
     <g transform="translate(904.149609 357.314844) scale(0.15 -0.15)">
      <defs>
       <path id="DejaVuSans-54" d="M -19 4666 
L 3928 4666 
L 3928 4134 
L 2272 4134 
L 2272 0 
L 1638 0 
L 1638 4134 
L -19 4134 
L -19 4666 
z
" transform="scale(0.015625)"/>
       <path id="DejaVuSans-69" d="M 603 3500 
L 1178 3500 
L 1178 0 
L 603 0 
L 603 3500 
z
M 603 4863 
L 1178 4863 
L 1178 4134 
L 603 4134 
L 603 4863 
z
" transform="scale(0.015625)"/>
       <path id="DejaVuSans-6d" d="M 3328 2828 
Q 3544 3216 3844 3400 
Q 4144 3584 4550 3584 
Q 5097 3584 5394 3201 
Q 5691 2819 5691 2113 
L 5691 0 
L 5113 0 
L 5113 2094 
Q 5113 2597 4934 2840 
Q 4756 3084 4391 3084 
Q 3944 3084 3684 2787 
Q 3425 2491 3425 1978 
L 3425 0 
L 2847 0 
L 2847 2094 
Q 2847 2600 2669 2842 
Q 2491 3084 2119 3084 
Q 1678 3084 1418 2786 
Q 1159 2488 1159 1978 
L 1159 0 
L 581 0 
L 581 3500 
L 1159 3500 
L 1159 2956 
Q 1356 3278 1631 3431 
Q 1906 3584 2284 3584 
Q 2666 3584 2933 3390 
Q 3200 3197 3328 2828 
z
" transform="scale(0.015625)"/>
       <path id="DejaVuSans-65" d="M 3597 1894 
L 3597 1613 
L 953 1613 
Q 991 1019 1311 708 
Q 1631 397 2203 397 
Q 2534 397 2845 478 
Q 3156 559 3463 722 
L 3463 178 
Q 3153 47 2828 -22 
Q 2503 -91 2169 -91 
Q 1331 -91 842 396 
Q 353 884 353 1716 
Q 353 2575 817 3079 
Q 1281 3584 2069 3584 
Q 2775 3584 3186 3129 
Q 3597 2675 3597 1894 
z
M 3022 2063 
Q 3016 2534 2758 2815 
Q 2500 3097 2075 3097 
Q 1594 3097 1305 2825 
Q 1016 2553 972 2059 
L 3022 2063 
z
" transform="scale(0.015625)"/>
      </defs>
      <use xlink:href="#DejaVuSans-54"/>
      <use xlink:href="#DejaVuSans-69" x="57.958984"/>
      <use xlink:href="#DejaVuSans-6d" x="85.742188"/>
      <use xlink:href="#DejaVuSans-65" x="183.154297"/>
     </g>
    </g>
   </g>
   <g id="matplotlib.axis_2">
    <g id="ytick_1">
     <g id="line2d_9">
      <defs>
       <path id="m6cc795f082" d="M 0 0 
L -3.5 0 
" style="stroke: #000000; stroke-width: 0.8"/>
      </defs>
      <g>
       <use xlink:href="#m6cc795f082" x="225" y="311.330837" style="stroke: #000000; stroke-width: 0.8"/>
      </g>
     </g>
     <g id="text_10">
      <!-- −0.008 -->
      <g transform="translate(162.488281 317.029665) scale(0.15 -0.15)">
       <defs>
        <path id="DejaVuSans-2212" d="M 678 2272 
L 4684 2272 
L 4684 1741 
L 678 1741 
L 678 2272 
z
" transform="scale(0.015625)"/>
        <path id="DejaVuSans-2e" d="M 684 794 
L 1344 794 
L 1344 0 
L 684 0 
L 684 794 
z
" transform="scale(0.015625)"/>
       </defs>
       <use xlink:href="#DejaVuSans-2212"/>
       <use xlink:href="#DejaVuSans-30" x="83.789062"/>
       <use xlink:href="#DejaVuSans-2e" x="147.412109"/>
       <use xlink:href="#DejaVuSans-30" x="179.199219"/>
       <use xlink:href="#DejaVuSans-30" x="242.822266"/>
       <use xlink:href="#DejaVuSans-38" x="306.445312"/>
      </g>
     </g>
    </g>
    <g id="ytick_2">
     <g id="line2d_10">
      <g>
       <use xlink:href="#m6cc795f082" x="225" y="273.326467" style="stroke: #000000; stroke-width: 0.8"/>
      </g>
     </g>
     <g id="text_11">
      <!-- −0.006 -->
      <g transform="translate(162.488281 279.025295) scale(0.15 -0.15)">
       <use xlink:href="#DejaVuSans-2212"/>
       <use xlink:href="#DejaVuSans-30" x="83.789062"/>
       <use xlink:href="#DejaVuSans-2e" x="147.412109"/>
       <use xlink:href="#DejaVuSans-30" x="179.199219"/>
       <use xlink:href="#DejaVuSans-30" x="242.822266"/>
       <use xlink:href="#DejaVuSans-36" x="306.445312"/>
      </g>
     </g>
    </g>
    <g id="ytick_3">
     <g id="line2d_11">
      <g>
       <use xlink:href="#m6cc795f082" x="225" y="235.322097" style="stroke: #000000; stroke-width: 0.8"/>
      </g>
     </g>
     <g id="text_12">
      <!-- −0.004 -->
      <g transform="translate(162.488281 241.020925) scale(0.15 -0.15)">
       <use xlink:href="#DejaVuSans-2212"/>
       <use xlink:href="#DejaVuSans-30" x="83.789062"/>
       <use xlink:href="#DejaVuSans-2e" x="147.412109"/>
       <use xlink:href="#DejaVuSans-30" x="179.199219"/>
       <use xlink:href="#DejaVuSans-30" x="242.822266"/>
       <use xlink:href="#DejaVuSans-34" x="306.445312"/>
      </g>
     </g>
    </g>
    <g id="ytick_4">
     <g id="line2d_12">
      <g>
       <use xlink:href="#m6cc795f082" x="225" y="197.317726" style="stroke: #000000; stroke-width: 0.8"/>
      </g>
     </g>
     <g id="text_13">
      <!-- −0.002 -->
      <g transform="translate(162.488281 203.016555) scale(0.15 -0.15)">
       <use xlink:href="#DejaVuSans-2212"/>
       <use xlink:href="#DejaVuSans-30" x="83.789062"/>
       <use xlink:href="#DejaVuSans-2e" x="147.412109"/>
       <use xlink:href="#DejaVuSans-30" x="179.199219"/>
       <use xlink:href="#DejaVuSans-30" x="242.822266"/>
       <use xlink:href="#DejaVuSans-32" x="306.445312"/>
      </g>
     </g>
    </g>
    <g id="ytick_5">
     <g id="line2d_13">
      <g>
       <use xlink:href="#m6cc795f082" x="225" y="159.313356" style="stroke: #000000; stroke-width: 0.8"/>
      </g>
     </g>
     <g id="text_14">
      <!-- 0.000 -->
      <g transform="translate(175.057813 165.012185) scale(0.15 -0.15)">
       <use xlink:href="#DejaVuSans-30"/>
       <use xlink:href="#DejaVuSans-2e" x="63.623047"/>
       <use xlink:href="#DejaVuSans-30" x="95.410156"/>
       <use xlink:href="#DejaVuSans-30" x="159.033203"/>
       <use xlink:href="#DejaVuSans-30" x="222.65625"/>
      </g>
     </g>
    </g>
    <g id="ytick_6">
     <g id="line2d_14">
      <g>
       <use xlink:href="#m6cc795f082" x="225" y="121.308986" style="stroke: #000000; stroke-width: 0.8"/>
      </g>
     </g>
     <g id="text_15">
      <!-- 0.002 -->
      <g transform="translate(175.057813 127.007815) scale(0.15 -0.15)">
       <use xlink:href="#DejaVuSans-30"/>
       <use xlink:href="#DejaVuSans-2e" x="63.623047"/>
       <use xlink:href="#DejaVuSans-30" x="95.410156"/>
       <use xlink:href="#DejaVuSans-30" x="159.033203"/>
       <use xlink:href="#DejaVuSans-32" x="222.65625"/>
      </g>
     </g>
    </g>
    <g id="ytick_7">
     <g id="line2d_15">
      <g>
       <use xlink:href="#m6cc795f082" x="225" y="83.304616" style="stroke: #000000; stroke-width: 0.8"/>
      </g>
     </g>
     <g id="text_16">
      <!-- 0.004 -->
      <g transform="translate(175.057813 89.003445) scale(0.15 -0.15)">
       <use xlink:href="#DejaVuSans-30"/>
       <use xlink:href="#DejaVuSans-2e" x="63.623047"/>
       <use xlink:href="#DejaVuSans-30" x="95.410156"/>
       <use xlink:href="#DejaVuSans-30" x="159.033203"/>
       <use xlink:href="#DejaVuSans-34" x="222.65625"/>
      </g>
     </g>
    </g>
    <g id="ytick_8">
     <g id="line2d_16">
      <g>
       <use xlink:href="#m6cc795f082" x="225" y="45.300246" style="stroke: #000000; stroke-width: 0.8"/>
      </g>
     </g>
     <g id="text_17">
      <!-- 0.006 -->
      <g transform="translate(175.057813 50.999075) scale(0.15 -0.15)">
       <use xlink:href="#DejaVuSans-30"/>
       <use xlink:href="#DejaVuSans-2e" x="63.623047"/>
       <use xlink:href="#DejaVuSans-30" x="95.410156"/>
       <use xlink:href="#DejaVuSans-30" x="159.033203"/>
       <use xlink:href="#DejaVuSans-36" x="222.65625"/>
      </g>
     </g>
    </g>
    <g id="text_18">
     <!-- East(m) -->
     <g transform="translate(155.36875 211.140234) rotate(-90) scale(0.15 -0.15)">
      <defs>
       <path id="DejaVuSans-45" d="M 628 4666 
L 3578 4666 
L 3578 4134 
L 1259 4134 
L 1259 2753 
L 3481 2753 
L 3481 2222 
L 1259 2222 
L 1259 531 
L 3634 531 
L 3634 0 
L 628 0 
L 628 4666 
z
" transform="scale(0.015625)"/>
       <path id="DejaVuSans-61" d="M 2194 1759 
Q 1497 1759 1228 1600 
Q 959 1441 959 1056 
Q 959 750 1161 570 
Q 1363 391 1709 391 
Q 2188 391 2477 730 
Q 2766 1069 2766 1631 
L 2766 1759 
L 2194 1759 
z
M 3341 1997 
L 3341 0 
L 2766 0 
L 2766 531 
Q 2569 213 2275 61 
Q 1981 -91 1556 -91 
Q 1019 -91 701 211 
Q 384 513 384 1019 
Q 384 1609 779 1909 
Q 1175 2209 1959 2209 
L 2766 2209 
L 2766 2266 
Q 2766 2663 2505 2880 
Q 2244 3097 1772 3097 
Q 1472 3097 1187 3025 
Q 903 2953 641 2809 
L 641 3341 
Q 956 3463 1253 3523 
Q 1550 3584 1831 3584 
Q 2591 3584 2966 3190 
Q 3341 2797 3341 1997 
z
" transform="scale(0.015625)"/>
       <path id="DejaVuSans-73" d="M 2834 3397 
L 2834 2853 
Q 2591 2978 2328 3040 
Q 2066 3103 1784 3103 
Q 1356 3103 1142 2972 
Q 928 2841 928 2578 
Q 928 2378 1081 2264 
Q 1234 2150 1697 2047 
L 1894 2003 
Q 2506 1872 2764 1633 
Q 3022 1394 3022 966 
Q 3022 478 2636 193 
Q 2250 -91 1575 -91 
Q 1294 -91 989 -36 
Q 684 19 347 128 
L 347 722 
Q 666 556 975 473 
Q 1284 391 1588 391 
Q 1994 391 2212 530 
Q 2431 669 2431 922 
Q 2431 1156 2273 1281 
Q 2116 1406 1581 1522 
L 1381 1569 
Q 847 1681 609 1914 
Q 372 2147 372 2553 
Q 372 3047 722 3315 
Q 1072 3584 1716 3584 
Q 2034 3584 2315 3537 
Q 2597 3491 2834 3397 
z
" transform="scale(0.015625)"/>
       <path id="DejaVuSans-74" d="M 1172 4494 
L 1172 3500 
L 2356 3500 
L 2356 3053 
L 1172 3053 
L 1172 1153 
Q 1172 725 1289 603 
Q 1406 481 1766 481 
L 2356 481 
L 2356 0 
L 1766 0 
Q 1100 0 847 248 
Q 594 497 594 1153 
L 594 3053 
L 172 3053 
L 172 3500 
L 594 3500 
L 594 4494 
L 1172 4494 
z
" transform="scale(0.015625)"/>
       <path id="DejaVuSans-28" d="M 1984 4856 
Q 1566 4138 1362 3434 
Q 1159 2731 1159 2009 
Q 1159 1288 1364 580 
Q 1569 -128 1984 -844 
L 1484 -844 
Q 1016 -109 783 600 
Q 550 1309 550 2009 
Q 550 2706 781 3412 
Q 1013 4119 1484 4856 
L 1984 4856 
z
" transform="scale(0.015625)"/>
       <path id="DejaVuSans-29" d="M 513 4856 
L 1013 4856 
Q 1481 4119 1714 3412 
Q 1947 2706 1947 2009 
Q 1947 1309 1714 600 
Q 1481 -109 1013 -844 
L 513 -844 
Q 928 -128 1133 580 
Q 1338 1288 1338 2009 
Q 1338 2731 1133 3434 
Q 928 4138 513 4856 
z
" transform="scale(0.015625)"/>
      </defs>
      <use xlink:href="#DejaVuSans-45"/>
      <use xlink:href="#DejaVuSans-61" x="63.183594"/>
      <use xlink:href="#DejaVuSans-73" x="124.462891"/>
      <use xlink:href="#DejaVuSans-74" x="176.5625"/>
      <use xlink:href="#DejaVuSans-28" x="215.771484"/>
      <use xlink:href="#DejaVuSans-6d" x="254.785156"/>
      <use xlink:href="#DejaVuSans-29" x="352.197266"/>
     </g>
    </g>
   </g>
   <g id="line2d_17">
    <path d="M 288.409091 140.482125 
L 289.351627 155.655989 
L 289.822894 155.475777 
L 290.294162 152.537082 
L 290.76543 153.321232 
L 291.236698 151.881221 
L 293.12177 151.152065 
L 293.593037 145.685936 
L 294.064305 136.617536 
L 294.535573 135.103862 
L 295.006841 134.695029 
L 295.478109 131.92721 
L 295.949377 130.818011 
L 296.420645 131.701326 
L 296.891912 134.205257 
L 297.36318 141.090548 
L 297.834448 138.634908 
L 298.305716 141.070974 
L 298.776984 146.829707 
L 299.248252 150.36247 
L 303.96093 151.188779 
L 304.903466 154.293707 
L 305.374734 162.362563 
L 305.846002 164.730764 
L 306.31727 168.331392 
L 307.259805 177.536021 
L 307.731073 184.915369 
L 308.202341 187.723334 
L 308.673609 189.459034 
L 309.144877 190.011168 
L 309.616145 185.21283 
L 310.087413 179.163063 
L 310.55868 176.039632 
L 311.029948 177.655889 
L 311.972484 169.450731 
L 312.443752 161.517033 
L 313.386288 159.285061 
L 313.857555 164.536165 
L 314.328823 168.397394 
L 314.800091 160.262815 
L 315.271359 157.769171 
L 315.742627 157.251754 
L 316.213895 158.992883 
L 316.685163 159.699749 
L 317.156431 155.387325 
L 317.627698 149.921196 
L 318.098966 151.621605 
L 318.570234 160.434261 
L 319.041502 163.899159 
L 319.51277 158.872795 
L 319.984038 158.442245 
L 320.455306 155.728719 
L 320.926573 159.560088 
L 321.397841 165.663575 
L 321.869109 170.040578 
L 322.340377 171.312081 
L 322.811645 177.917769 
L 323.282913 175.497418 
L 323.754181 179.727833 
L 324.225448 180.543284 
L 324.696716 175.443626 
L 325.167984 176.831856 
L 325.639252 170.985684 
L 326.11052 169.713609 
L 327.053056 175.329539 
L 327.524324 182.714317 
L 327.995591 184.596604 
L 328.466859 178.921452 
L 328.938127 185.89361 
L 329.409395 185.810529 
L 329.880663 184.552027 
L 334.593341 180.074011 
L 335.064609 167.207889 
L 335.535877 159.925694 
L 336.007145 156.967853 
L 336.478413 157.422263 
L 336.949681 155.384671 
L 337.420949 157.22081 
L 337.892216 157.683363 
L 338.363484 165.592058 
L 338.834752 166.776694 
L 339.30602 172.07666 
L 339.777288 174.561588 
L 340.248556 176.169701 
L 340.719824 179.737754 
L 341.191092 188.433682 
L 341.662359 188.589486 
L 342.133627 196.688202 
L 342.604895 202.514801 
L 343.076163 205.105598 
L 343.547431 213.752664 
L 348.260109 209.689982 
L 348.731377 198.257167 
L 349.673913 187.998129 
L 350.145181 179.353206 
L 350.616449 174.261692 
L 351.087717 164.207893 
L 352.50152 176.293782 
L 352.972788 184.715535 
L 354.386592 193.704068 
L 354.85786 190.29289 
L 355.329127 191.235926 
L 355.800395 190.452479 
L 356.271663 181.147909 
L 356.742931 174.791392 
L 357.214199 173.166419 
L 358.156735 173.143059 
L 358.628002 175.997172 
L 359.09927 173.006757 
L 363.340681 169.609151 
L 363.811949 173.318363 
L 364.283217 174.274973 
L 364.754485 172.158658 
L 365.225753 171.060317 
L 365.69702 165.252149 
L 366.168288 167.525338 
L 366.639556 173.045187 
L 367.110824 172.050001 
L 367.582092 182.743873 
L 369.938431 183.68148 
L 370.409699 184.50236 
L 370.880967 187.166452 
L 371.352235 184.105457 
L 371.823503 186.525235 
L 372.29477 182.337681 
L 372.766038 173.763338 
L 373.237306 173.970719 
L 373.708574 174.009794 
L 374.65111 177.101149 
L 375.122378 171.860332 
L 375.593645 170.433525 
L 376.064913 175.793212 
L 376.536181 174.692157 
L 377.007449 172.61656 
L 377.478717 173.822913 
L 378.892521 168.306278 
L 379.363788 167.487541 
L 379.835056 163.962349 
L 380.306324 164.582349 
L 380.777592 166.434776 
L 381.24886 169.41919 
L 381.720128 181.193472 
L 382.191396 184.89997 
L 382.662663 191.910133 
L 383.133931 190.309591 
L 383.605199 185.098634 
L 384.076467 178.098758 
L 386.904074 166.231607 
L 387.375342 156.956897 
L 387.84661 152.462595 
L 388.789146 153.86547 
L 389.731681 169.386968 
L 390.202949 177.08121 
L 390.674217 179.34897 
L 391.145485 183.286208 
L 391.616753 182.084712 
L 392.088021 178.304349 
L 392.559289 168.641452 
L 393.030556 166.831886 
L 393.501824 167.574043 
L 393.973092 168.943271 
L 394.44436 167.701057 
L 394.915628 161.749015 
L 395.386896 165.368645 
L 395.858164 170.864062 
L 396.329431 169.225516 
L 396.800699 166.031506 
L 397.271967 161.835809 
L 397.743235 160.550161 
L 398.214503 160.456221 
L 398.685771 153.361333 
L 400.099574 143.565421 
L 400.570842 133.544197 
L 403.398449 126.294577 
L 404.812253 97.618065 
L 405.754789 93.055897 
L 406.226057 92.660637 
L 406.697324 93.120475 
L 407.168592 92.540622 
L 408.111128 95.262792 
L 408.582396 100.983521 
L 409.053664 100.62355 
L 409.524932 99.096303 
L 409.996199 101.483506 
L 410.467467 99.798812 
L 410.938735 102.609492 
L 411.410003 106.549444 
L 412.352539 111.038817 
L 412.823807 110.703278 
L 413.295074 114.008015 
L 413.766342 111.728824 
L 420.83536 105.383166 
L 421.777896 85.419441 
L 422.249164 79.823011 
L 422.720432 76.015502 
L 423.1917 67.264709 
L 423.662967 65.875907 
L 424.134235 62.274706 
L 424.605503 65.620162 
L 425.076771 67.676184 
L 425.548039 67.755979 
L 426.019307 67.567028 
L 426.490575 65.282408 
L 427.43311 72.988579 
L 427.904378 71.363606 
L 428.375646 71.095932 
L 428.846914 71.873378 
L 429.318182 74.363736 
L 429.78945 79.20222 
L 430.260718 78.448633 
L 430.731985 81.92439 
L 431.674521 92.372305 
L 432.145789 91.13009 
L 432.617057 90.441654 
L 433.088325 93.176325 
L 434.03086 95.192699 
L 434.502128 93.008519 
L 434.973396 84.94452 
L 435.444664 85.328349 
L 435.915932 87.064049 
L 436.3872 86.549346 
L 436.858468 90.432293 
L 437.329735 89.160217 
L 437.801003 94.319025 
L 438.272271 102.773354 
L 438.743539 107.663415 
L 439.214807 105.511811 
L 440.157343 93.309121 
L 440.628611 93.269473 
L 441.099878 89.038487 
L 441.571146 85.879766 
L 442.042414 87.544886 
L 442.98495 92.772629 
L 443.456218 91.177517 
L 443.927486 95.405217 
L 445.341289 92.037472 
L 446.283825 88.963975 
L 447.226361 90.486292 
L 447.697628 94.898585 
L 448.168896 89.891223 
L 448.640164 92.62318 
L 449.111432 96.774871 
L 449.5827 95.101036 
L 450.053968 95.389854 
L 450.525236 98.379698 
L 451.467771 106.829669 
L 451.939039 110.025822 
L 452.410307 114.888738 
L 452.881575 122.889729 
L 456.651718 127.809651 
L 457.122986 134.078729 
L 457.594254 134.962044 
L 458.065521 133.157908 
L 459.008057 131.862473 
L 459.479325 131.822825 
L 459.950593 132.793008 
L 460.893129 131.953625 
L 461.364396 132.180008 
L 462.306932 137.081999 
L 462.7782 135.041693 
L 463.249468 130.227068 
L 464.192004 123.61102 
L 465.134539 132.907946 
L 465.605807 134.260887 
L 466.077075 136.354913 
L 466.548343 146.861478 
L 467.490879 154.247327 
L 467.962147 156.124185 
L 468.433414 154.159887 
L 469.847218 143.187982 
L 472.203557 145.398736 
L 472.674825 148.274566 
L 473.146093 152.942031 
L 473.617361 155.087635 
L 475.031164 174.413356 
L 475.502432 171.376792 
L 475.9737 171.285567 
L 476.444968 166.734258 
L 483.513986 154.397482 
L 484.92779 121.241882 
L 486.341593 103.041003 
L 486.812861 105.132314 
L 487.284129 103.154444 
L 487.755397 103.511127 
L 489.640468 106.875585 
L 490.111736 109.686265 
L 491.52554 107.493942 
L 491.996808 108.806164 
L 494.824415 111.934452 
L 495.76695 116.213729 
L 496.238218 119.670483 
L 496.709486 117.315284 
L 497.180754 119.327872 
L 497.652022 121.899667 
L 498.12329 122.164054 
L 498.594558 123.701588 
L 499.065825 123.607648 
L 499.537093 129.787144 
L 500.479629 139.040636 
L 500.950897 139.706784 
L 501.422165 141.458771 
L 501.893433 141.560282 
L 502.364701 144.900309 
L 502.835968 136.746728 
L 503.307236 132.868639 
L 503.778504 122.798552 
L 504.249772 120.353771 
L 504.72104 125.963201 
L 505.192308 127.655467 
L 505.663576 124.643334 
L 506.606111 129.007836 
L 507.548647 140.802191 
L 508.019915 136.022856 
L 508.491183 136.075504 
L 508.962451 139.201077 
L 509.904986 141.611068 
L 510.376254 138.702091 
L 510.847522 134.642123 
L 511.31879 132.0779 
L 511.790058 132.55674 
L 512.261326 134.919511 
L 512.732593 137.87678 
L 513.203861 133.854817 
L 513.675129 135.210472 
L 514.146397 140.768326 
L 514.617665 152.955227 
L 515.088933 160.098405 
L 515.560201 162.26844 
L 516.031469 160.629894 
L 516.502736 170.308506 
L 516.974004 174.104585 
L 517.445272 175.397805 
L 517.91654 165.582891 
L 518.387808 167.030842 
L 518.859076 170.175418 
L 519.330344 170.754699 
L 519.801611 176.42385 
L 520.744147 190.816076 
L 521.215415 194.411275 
L 521.686683 195.001414 
L 522.157951 197.288176 
L 522.629219 200.335026 
L 523.100486 198.883788 
L 523.571754 198.279504 
L 524.043022 193.45402 
L 524.51429 201.585312 
L 524.985558 199.892474 
L 525.456826 196.861339 
L 525.928094 199.047662 
L 526.399362 198.437948 
L 526.870629 195.108208 
L 527.341897 196.181545 
L 527.813165 190.970589 
L 528.284433 191.943486 
L 528.755701 194.72702 
L 529.226969 201.32185 
L 530.640772 208.000259 
L 531.11204 208.856429 
L 531.583308 211.498804 
L 532.054576 211.298995 
L 532.997112 198.794985 
L 533.468379 201.646384 
L 533.939647 197.602704 
L 534.410915 195.836572 
L 534.882183 187.08578 
L 535.353451 186.837108 
L 535.824719 187.714995 
L 536.295987 191.23147 
L 536.767254 186.196962 
L 537.238522 187.044988 
L 537.70979 187.127497 
L 538.181058 192.617485 
L 538.652326 193.272775 
L 539.123594 187.703491 
L 539.594862 184.053428 
L 540.06613 185.927572 
L 540.537397 188.390783 
L 541.008665 194.855312 
L 541.479933 193.651102 
L 541.951201 188.494437 
L 542.422469 190.81106 
L 542.893737 196.675663 
L 543.836272 214.539859 
L 544.30754 208.33536 
L 544.778808 204.975759 
L 545.250076 204.908965 
L 545.721344 208.770195 
L 546.192612 202.495116 
L 547.135147 173.467349 
L 547.606415 165.365345 
L 548.077683 170.526867 
L 548.548951 169.710844 
L 549.491487 165.206754 
L 549.962755 165.202396 
L 550.434022 163.504129 
L 550.90529 171.37482 
L 551.376558 171.457329 
L 551.847826 173.947686 
L 552.319094 172.14355 
L 552.790362 172.090329 
L 553.26163 178.104235 
L 553.732898 177.662826 
L 554.675433 164.702764 
L 555.146701 161.006553 
L 555.617969 158.314743 
L 556.089237 157.995492 
L 556.560505 152.382775 
L 557.50304 155.229816 
L 557.974308 153.542407 
L 558.445576 150.478697 
L 558.916844 149.326065 
L 559.388112 145.95832 
L 559.85938 141.007965 
L 560.330648 128.646757 
L 560.801915 128.319362 
L 561.273183 126.99571 
L 561.744451 127.7813 
L 562.215719 126.023311 
L 562.686987 125.098705 
L 563.629523 136.713897 
L 564.100791 140.797723 
L 564.572058 143.25822 
L 565.043326 143.207714 
L 566.45713 150.850378 
L 566.928398 150.170085 
L 567.399666 142.985616 
L 567.870933 140.234085 
L 568.342201 128.869135 
L 569.756005 106.023579 
L 570.227273 101.749158 
L 570.698541 101.294177 
L 571.169808 104.607058 
L 572.583612 125.005045 
L 573.05488 122.747571 
L 573.526148 127.230443 
L 574.468683 131.338701 
L 574.939951 129.447697 
L 575.411219 124.975111 
L 575.882487 115.472375 
L 576.353755 110.288565 
L 576.825023 109.621845 
L 577.296291 106.503843 
L 578.238826 104.491754 
L 579.181362 104.96788 
L 579.65263 104.426032 
L 580.123898 105.692105 
L 580.595166 102.35965 
L 581.066434 100.243335 
L 581.537701 96.772436 
L 582.008969 95.720243 
L 582.480237 95.259833 
L 582.951505 96.675209 
L 583.422773 93.67665 
L 583.894041 94.505674 
L 584.365309 92.199337 
L 585.307844 83.951816 
L 585.779112 83.504979 
L 586.25038 83.267165 
L 586.721648 85.125022 
L 587.192916 85.636437 
L 587.664184 85.070158 
L 588.135452 88.510624 
L 588.606719 90.278899 
L 589.077987 88.28474 
L 589.549255 88.717433 
L 590.020523 92.214906 
L 591.434327 98.96011 
L 591.905594 96.395886 
L 592.376862 95.60158 
L 592.84813 99.39223 
L 593.790666 98.437763 
L 594.261934 92.754466 
L 594.733202 83.086139 
L 595.204469 77.231823 
L 595.675737 77.952263 
L 596.147005 72.502422 
L 596.618273 63.083838 
L 597.089541 57.685574 
L 597.560809 55.8 
L 598.503344 61.679247 
L 598.974612 59.655228 
L 599.917148 62.985467 
L 600.388416 64.87047 
L 600.859684 65.392744 
L 601.330952 64.603867 
L 601.80222 67.200094 
L 602.273487 71.31921 
L 602.744755 73.448526 
L 603.216023 74.07124 
L 603.687291 75.926382 
L 604.158559 76.106616 
L 604.629827 72.817595 
L 605.572362 76.551238 
L 606.04363 79.576371 
L 606.986166 90.770801 
L 607.457434 96.760275 
L 607.928702 100.369047 
L 608.39997 110.590579 
L 608.871237 109.253353 
L 609.342505 103.762793 
L 609.813773 100.924395 
L 611.227577 87.487635 
L 611.698845 81.549166 
L 612.170112 80.936738 
L 613.112648 84.894049 
L 613.583916 92.02094 
L 614.526452 102.7376 
L 614.99772 106.023335 
L 615.468988 106.075983 
L 615.940255 108.319312 
L 616.882791 110.171739 
L 617.825327 105.882103 
L 618.296595 108.049423 
L 619.710398 122.809191 
L 620.181666 122.142471 
L 620.652934 122.567019 
L 621.124202 121.29223 
L 621.59547 119.553244 
L 622.066738 117.013451 
L 622.538005 111.045122 
L 623.009273 103.293301 
L 623.480541 102.957763 
L 623.951809 99.342989 
L 624.423077 98.784853 
L 624.894345 97.216887 
L 625.365613 90.417891 
L 625.836881 90.342953 
L 626.308148 93.406091 
L 626.779416 94.408849 
L 627.250684 98.79671 
L 627.721952 102.022724 
L 628.19322 96.274277 
L 628.664488 102.106304 
L 629.135756 105.478906 
L 629.607023 106.278069 
L 630.078291 106.116264 
L 630.549559 109.388426 
L 631.020827 110.570347 
L 632.434631 122.002018 
L 632.905898 119.73097 
L 633.377166 122.625803 
L 633.848434 118.169505 
L 634.319702 104.421138 
L 634.79097 106.118833 
L 635.262238 99.708024 
L 635.733506 98.620541 
L 636.204773 99.430563 
L 636.676041 92.46869 
L 637.147309 89.293682 
L 637.618577 102.916605 
L 638.089845 103.343868 
L 638.561113 101.189549 
L 639.503649 95.002408 
L 639.974916 94.034368 
L 640.446184 97.863022 
L 641.38872 95.375878 
L 641.859988 95.480104 
L 642.802524 103.3953 
L 643.273791 109.965698 
L 643.745059 112.675938 
L 644.216327 110.600341 
L 644.687595 115.099501 
L 645.158863 121.281712 
L 645.630131 119.200687 
L 646.101399 119.923841 
L 646.572666 116.925281 
L 647.043934 113.030905 
L 647.515202 115.629846 
L 647.98647 113.103627 
L 648.457738 107.300888 
L 654.112952 109.08545 
L 654.58422 110.481824 
L 655.526756 120.671852 
L 655.998024 123.278938 
L 656.469292 127.009866 
L 656.940559 133.721423 
L 657.411827 135.81545 
L 657.883095 135.224739 
L 658.354363 137.188464 
L 658.825631 140.851528 
L 659.768167 134.504226 
L 660.239434 136.484239 
L 661.18197 144.103543 
L 661.653238 142.470426 
L 662.595774 148.881734 
L 663.067042 155.541714 
L 663.53831 155.664942 
L 664.009577 152.012165 
L 664.480845 145.517203 
L 664.952113 143.783646 
L 665.423381 137.258824 
L 665.894649 143.422033 
L 666.365917 144.663675 
L 666.837185 142.813391 
L 667.308452 145.206023 
L 667.77972 146.892859 
L 668.250988 147.77346 
L 668.722256 149.316423 
L 669.664792 139.108963 
L 670.13606 137.646866 
L 670.607327 141.632967 
L 671.078595 147.568149 
L 671.549863 149.681177 
L 672.021131 148.876013 
L 672.963667 156.655478 
L 673.434935 161.124777 
L 673.906202 158.302667 
L 674.37747 160.209386 
L 674.848738 160.077442 
L 675.320006 160.170809 
L 675.791274 159.748403 
L 676.262542 158.557766 
L 676.73381 158.414964 
L 677.205078 161.38309 
L 677.676345 159.397076 
L 678.147613 159.468727 
L 678.618881 160.924822 
L 679.090149 165.513564 
L 679.561417 166.809498 
L 680.032685 169.419298 
L 680.503953 168.315528 
L 682.860292 175.105808 
L 683.33156 180.519788 
L 683.802828 180.738027 
L 684.274095 181.895517 
L 684.745363 189.711915 
L 685.687899 196.174801 
L 686.630435 207.567396 
L 687.101703 217.737351 
L 687.572971 218.248766 
L 688.044238 212.592615 
L 688.515506 209.808509 
L 688.986774 209.386103 
L 689.458042 203.542645 
L 689.92931 199.249223 
L 690.400578 197.206202 
L 690.871846 199.981592 
L 692.285649 221.495279 
L 692.756917 226.925546 
L 693.699453 234.810881 
L 694.170721 235.333155 
L 694.641988 236.230043 
L 695.113256 241.076672 
L 696.055792 228.610666 
L 696.998328 231.395271 
L 697.940863 235.271145 
L 698.412131 232.503326 
L 699.354667 239.454839 
L 699.825935 243.886134 
L 700.768471 242.978886 
L 701.711006 239.544348 
L 702.182274 242.357743 
L 702.653542 247.831443 
L 703.12481 244.167807 
L 704.067346 234.402827 
L 704.538614 230.630607 
L 705.009881 232.578045 
L 705.481149 235.187844 
L 705.952417 229.504548 
L 706.423685 225.202981 
L 706.894953 224.810436 
L 707.837489 240.486666 
L 708.308756 237.061915 
L 709.251292 224.536189 
L 709.72256 226.885387 
L 710.193828 232.804281 
L 712.078899 207.26963 
L 712.550167 216.239732 
L 713.021435 219.672055 
L 713.492703 211.789934 
L 713.963971 211.804578 
L 714.435239 213.483271 
L 715.377774 221.873521 
L 716.791578 201.99502 
L 717.262846 198.114216 
L 717.734114 196.10377 
L 718.205382 195.016288 
L 718.676649 193.546047 
L 719.147917 192.453135 
L 719.619185 187.961547 
L 720.090453 190.256454 
L 720.561721 189.071246 
L 721.504257 179.537006 
L 721.975524 181.00396 
L 722.446792 181.414935 
L 722.91806 182.382403 
L 723.389328 190.312815 
L 723.860596 191.882924 
L 724.331864 191.387224 
L 724.803132 192.761881 
L 725.2744 195.168086 
L 725.745667 195.587206 
L 726.216935 200.021215 
L 726.688203 198.732852 
L 727.159471 200.397972 
L 727.630739 204.500801 
L 728.102007 207.433638 
L 728.573275 208.007489 
L 729.044542 213.426898 
L 729.51581 215.838532 
L 729.987078 213.543053 
L 730.458346 214.697828 
L 731.400882 206.852068 
L 731.87215 201.456519 
L 732.343417 194.23676 
L 732.814685 184.614582 
L 733.285953 181.491151 
L 733.757221 179.258108 
L 734.228489 177.643994 
L 734.699757 175.193783 
L 735.171025 176.506005 
L 735.642292 174.878318 
L 736.11356 177.678139 
L 736.584828 177.445755 
L 737.056096 174.618215 
L 737.527364 177.90395 
L 737.998632 175.570467 
L 738.4699 171.47521 
L 738.941168 171.269972 
L 739.412435 172.370455 
L 740.354971 168.50701 
L 740.826239 165.541026 
L 741.297507 164.20923 
L 741.768775 161.620575 
L 742.240043 160.163907 
L 742.71131 156.619713 
L 743.182578 157.988942 
L 743.653846 153.524499 
L 744.125114 151.522198 
L 746.481453 151.99018 
L 747.895257 147.215701 
L 748.366525 144.415307 
L 748.837793 144.934867 
L 749.309061 142.495514 
L 749.780328 138.818306 
L 750.251596 142.67682 
L 750.722864 140.386771 
L 751.194132 133.758794 
L 751.6654 130.334043 
L 752.136668 132.843403 
L 752.607936 141.167431 
L 753.079203 147.026604 
L 753.550471 150.724958 
L 754.021739 148.277462 
L 754.964275 156.439685 
L 755.435543 154.250076 
L 755.906811 145.93362 
L 756.378078 144.854281 
L 756.849346 138.264308 
L 757.320614 143.903599 
L 757.791882 146.497112 
L 758.26315 148.352253 
L 758.734418 155.794037 
L 759.205686 160.697672 
L 759.676953 160.51958 
L 760.148221 170.165617 
L 761.090757 179.014634 
L 761.562025 178.328912 
L 762.033293 173.009372 
L 762.504561 176.827167 
L 762.975829 182.955086 
L 763.447096 181.549995 
L 763.918364 180.804552 
L 764.389632 177.545392 
L 764.8609 178.933622 
L 765.332168 182.102629 
L 765.803436 182.608616 
L 766.274704 180.875059 
L 766.745971 179.583981 
L 767.217239 179.810364 
L 768.631043 183.530435 
L 769.102311 182.711697 
L 770.044846 165.696026 
L 770.516114 165.800252 
L 770.987382 166.46097 
L 771.45865 167.409436 
L 771.929918 165.884903 
L 772.401186 162.082823 
L 772.872454 167.181909 
L 773.343721 170.62509 
L 773.814989 169.038122 
L 774.757525 162.099037 
L 775.228793 161.999669 
L 775.700061 165.502571 
L 776.171329 162.335707 
L 776.642597 157.16004 
L 777.113864 147.404846 
L 778.0564 141.69276 
L 778.998936 126.995355 
L 779.470204 128.652331 
L 779.941472 132.114515 
L 780.412739 141.193201 
L 780.884007 142.673728 
L 781.355275 145.492552 
L 782.297811 157.417208 
L 782.769079 157.665308 
L 783.711614 153.020059 
L 784.182882 153.330594 
L 784.65415 153.980454 
L 785.125418 149.236408 
L 785.596686 150.906957 
L 786.067954 153.476038 
L 786.539222 159.465512 
L 787.01049 160.397691 
L 787.481757 164.739404 
L 788.424293 165.734018 
L 788.895561 165.216601 
L 790.309365 148.234576 
L 790.780632 145.82237 
L 791.2519 141.417648 
L 791.723168 133.923715 
L 792.194436 138.729624 
L 792.665704 142.00993 
L 793.136972 143.474169 
L 793.60824 146.27942 
L 794.550775 140.852367 
L 795.022043 143.242284 
L 795.493311 140.778501 
L 795.964579 142.584779 
L 796.435847 145.170148 
L 796.907115 146.873272 
L 797.378382 152.078227 
L 797.84965 153.588615 
L 798.320918 151.705755 
L 798.792186 153.058696 
L 799.263454 152.06351 
L 799.734722 153.324155 
L 800.677258 142.961962 
L 801.148525 140.465604 
L 801.619793 140.425956 
L 802.091061 135.532607 
L 802.562329 133.476013 
L 803.033597 130.053977 
L 803.504865 135.37566 
L 803.976133 144.071588 
L 804.4474 150.693563 
L 804.918668 151.411288 
L 805.389936 155.905019 
L 805.861204 161.769621 
L 806.80374 161.998719 
L 807.275008 161.690326 
L 807.746275 154.695879 
L 808.217543 151.62131 
L 808.688811 158.734628 
L 809.160079 159.465926 
L 809.631347 157.140587 
L 811.516418 188.688499 
L 811.987686 189.365505 
L 812.458954 191.122921 
L 812.930222 195.242037 
L 813.872758 189.185197 
L 814.344026 188.784508 
L 814.815293 186.005831 
L 815.286561 185.740872 
L 815.757829 187.164392 
L 816.229097 184.173977 
L 816.700365 184.655532 
L 817.171633 183.603339 
L 817.642901 181.131411 
L 818.114168 179.281127 
L 818.585436 180.468477 
L 824.240651 179.370137 
L 825.183186 184.301989 
L 825.654454 186.208708 
L 826.125722 189.877201 
L 826.59699 200.025439 
L 827.539526 203.072289 
L 828.010794 205.383483 
L 828.482061 204.553887 
L 828.953329 205.35305 
L 829.895865 197.87919 
L 830.367133 188.482323 
L 831.309669 182.080729 
L 831.780936 184.834403 
L 832.252204 179.734745 
L 832.723472 182.485704 
L 833.19474 182.793524 
L 833.666008 186.71719 
L 834.137276 187.353477 
L 834.608544 189.759682 
L 835.079811 185.140507 
L 835.551079 188.64341 
L 836.022347 187.821958 
L 836.493615 190.548485 
L 836.964883 188.440314 
L 837.436151 189.806828 
L 837.907419 188.727489 
L 838.378687 193.948732 
L 838.849954 194.929773 
L 839.321222 197.257255 
L 839.79249 197.53793 
L 840.263758 195.361893 
L 840.735026 188.907651 
L 841.206294 189.986417 
L 842.148829 197.323403 
L 842.620097 198.689917 
L 843.091365 200.555917 
L 843.562633 200.233951 
L 844.033901 212.841615 
L 844.505169 216.005193 
L 844.976437 212.667309 
L 845.447704 206.411232 
L 845.918972 206.374299 
L 846.39024 202.232893 
L 846.861508 207.158245 
L 847.332776 197.234747 
L 847.804044 195.756362 
L 848.275312 192.570495 
L 848.74658 195.535908 
L 849.217847 191.551949 
L 849.689115 188.675547 
L 850.160383 183.909784 
L 850.631651 189.812391 
L 851.102919 194.259973 
L 851.574187 200.390607 
L 852.045455 204.029239 
L 852.516722 212.022086 
L 852.98799 227.813973 
L 853.459258 238.149519 
L 853.930526 241.750147 
L 854.401794 241.726786 
L 855.815597 257.645687 
L 856.286865 256.634214 
L 856.758133 257.731982 
L 857.229401 257.358439 
L 857.700669 257.948578 
L 858.171937 258.204821 
L 858.643205 260.214695 
L 859.114472 258.109238 
L 860.057008 248.792166 
L 860.528276 250.104388 
L 860.999544 256.769797 
L 861.470812 254.772925 
L 861.94208 244.051334 
L 862.413348 243.251599 
L 862.884615 246.626915 
L 863.355883 251.807439 
L 864.298419 242.550089 
L 865.240955 249.37673 
L 865.712223 245.77553 
L 866.18349 245.087093 
L 866.654758 236.129992 
L 867.126026 236.722845 
L 868.068562 214.552152 
L 868.53983 216.629891 
L 869.011098 212.507488 
L 869.482365 206.704749 
L 869.953633 208.682047 
L 870.424901 209.896544 
L 870.896169 224.844191 
L 871.367437 232.38913 
L 871.838705 232.710523 
L 872.78124 241.833715 
L 873.252508 245.24975 
L 873.723776 246.320373 
L 874.666312 236.411518 
L 875.13758 233.689848 
L 875.608848 234.947778 
L 876.080116 232.133811 
L 876.551383 234.219694 
L 877.022651 232.290686 
L 877.493919 237.60694 
L 877.965187 245.029721 
L 878.907723 254.67683 
L 879.378991 262.257059 
L 879.850258 261.500757 
L 880.321526 264.802779 
L 880.792794 263.055649 
L 881.264062 259.269857 
L 881.73533 267.121545 
L 882.206598 269.112416 
L 882.677866 268.45384 
L 883.149133 273.504064 
L 883.620401 274.930299 
L 884.091669 277.914713 
L 884.562937 281.661929 
L 885.034205 279.103135 
L 885.505473 272.638034 
L 885.976741 269.658477 
L 886.448009 265.118026 
L 886.919276 257.390637 
L 887.390544 254.530522 
L 887.861812 253.988673 
L 888.33308 246.063119 
L 888.804348 248.056705 
L 889.275616 246.157558 
L 889.746884 242.822388 
L 890.218151 247.6473 
L 891.160687 238.091343 
L 891.631955 236.922423 
L 892.103223 231.304276 
L 892.574491 229.440419 
L 893.045759 224.28104 
L 893.517026 221.559369 
L 893.988294 225.048699 
L 894.459562 223.130549 
L 894.93083 225.064414 
L 895.402098 224.601289 
L 896.344634 229.758453 
L 896.815901 232.531129 
L 897.287169 230.479964 
L 897.758437 234.710378 
L 898.229705 231.147183 
L 898.700973 229.576502 
L 899.172241 226.412352 
L 899.643509 227.838587 
L 900.114777 227.006277 
L 900.586044 228.953715 
L 901.057312 229.166524 
L 901.52858 229.639936 
L 901.999848 233.780769 
L 902.471116 235.19886 
L 902.942384 234.483277 
L 903.413652 232.54884 
L 904.356187 225.873072 
L 905.298723 231.931482 
L 906.241259 235.723203 
L 906.712527 235.336087 
L 907.183794 235.820357 
L 908.597598 225.198634 
L 909.068866 223.421644 
L 909.540134 225.876712 
L 910.011402 225.402728 
L 910.48267 226.896828 
L 910.953937 227.614553 
L 911.425205 232.816794 
L 911.896473 230.806348 
L 912.367741 231.097882 
L 912.839009 226.576433 
L 913.310277 227.432602 
L 913.781545 224.670213 
L 914.252812 227.214862 
L 914.72408 227.267511 
L 915.195348 224.059928 
L 915.666616 219.79908 
L 916.137884 218.76589 
L 916.609152 214.540332 
L 917.08042 206.842804 
L 917.551687 204.791639 
L 918.022955 197.70761 
L 918.494223 201.139933 
L 918.965491 199.167491 
L 919.436759 198.052863 
L 919.908027 199.080052 
L 920.379295 205.669452 
L 920.850562 206.783509 
L 921.32183 206.925739 
L 921.793098 206.788366 
L 922.264366 210.774466 
L 922.735634 209.380234 
L 923.206902 206.015204 
L 924.149438 194.958075 
L 924.620705 194.972719 
L 925.563241 188.079783 
L 926.034509 184.910204 
L 926.977045 195.184385 
L 927.448313 198.274668 
L 928.390848 202.071819 
L 928.862116 202.906271 
L 929.333384 200.257895 
L 929.804652 196.368948 
L 930.27592 195.723945 
L 930.747188 196.580114 
L 931.689723 189.448293 
L 932.160991 184.01474 
L 933.103527 189.117612 
L 933.574795 187.647371 
L 934.046063 185.729221 
L 934.51733 185.228092 
L 934.988598 186.442588 
L 935.459866 189.315704 
L 935.931134 196.290577 
L 936.402402 194.410432 
L 936.87367 193.070492 
L 937.344938 192.517785 
L 938.287473 196.726483 
L 938.758741 196.990871 
L 939.230009 198.075066 
L 939.701277 195.719867 
L 941.115081 201.328725 
L 941.586348 196.060762 
L 942.057616 197.413703 
L 942.528884 199.925777 
L 943.000152 198.355096 
L 943.47142 201.122342 
L 943.942688 205.320182 
L 944.413956 211.043625 
L 944.885223 214.910284 
L 945.356491 217.726393 
L 945.827759 218.473979 
L 946.299027 224.140416 
L 946.770295 224.624685 
L 947.241563 222.152758 
L 947.712831 214.713117 
L 948.184099 215.835317 
L 948.655366 216.137708 
L 950.06917 225.286402 
L 950.540438 223.989896 
L 951.011706 230.101527 
L 951.482974 231.829082 
L 951.954241 235.120246 
L 952.425509 237.116547 
L 952.896777 233.227599 
L 953.368045 231.703066 
L 953.839313 237.597529 
L 954.310581 239.243647 
L 954.781849 238.177881 
L 955.253116 236.191867 
L 955.724384 231.719281 
L 956.195652 233.645002 
L 956.66692 233.643359 
L 957.138188 231.057418 
L 957.609456 226.687987 
L 958.080724 224.140051 
L 958.551991 225.482133 
L 959.023259 225.483204 
L 959.965795 219.632674 
L 960.437063 217.3752 
L 960.908331 222.629018 
L 961.379599 226.430526 
L 961.850867 225.112303 
L 962.322134 222.366201 
L 962.793402 221.946509 
L 963.26467 224.719185 
L 963.735938 228.683569 
L 964.207206 224.167549 
L 964.678474 221.261286 
L 965.149742 217.155171 
L 966.092277 232.231475 
L 966.563545 229.604816 
L 967.034813 229.166122 
L 967.506081 232.307983 
L 968.448617 245.703952 
L 968.919884 246.174648 
L 969.391152 238.162227 
L 969.86242 238.34789 
L 970.333688 232.056524 
L 970.804956 232.546223 
L 971.276224 234.480088 
L 971.747492 234.128261 
L 972.21876 232.158534 
L 973.161295 241.686201 
L 973.632563 251.017345 
L 974.103831 245.38834 
L 974.575099 235.633146 
L 975.046367 233.777433 
L 975.517635 236.085912 
L 975.988902 235.066295 
L 976.46017 237.396491 
L 976.931438 237.973057 
L 977.402706 242.336487 
L 977.873974 243.613419 
L 978.345242 245.544569 
L 978.81651 243.699714 
L 979.287777 239.875917 
L 979.759045 232.992768 
L 980.230313 231.764126 
L 981.172849 242.084455 
L 981.644117 238.347525 
L 982.115385 238.72864 
L 986.828063 243.569839 
L 987.299331 246.364232 
L 988.241867 242.989414 
L 988.713135 239.675962 
L 989.184403 238.770357 
L 989.65567 240.459908 
L 990.126938 244.51116 
L 990.598206 240.77423 
L 991.069474 239.046102 
L 991.540742 239.70682 
L 992.01201 242.778102 
L 992.483278 248.683423 
L 992.954545 247.905405 
L 993.425813 248.75886 
L 993.897081 257.110034 
L 994.368349 261.250867 
L 994.839617 260.090091 
L 996.25342 267.069821 
L 997.195956 265.955192 
L 998.138492 268.088294 
L 998.60976 271.208438 
L 999.081028 273.020146 
L 999.552296 275.600085 
L 1000.023563 284.035412 
L 1000.494831 288.420559 
L 1000.966099 293.953981 
L 1001.437367 296.854242 
L 1002.379903 306.281469 
L 1002.851171 307.8 
L 1004.264974 282.025392 
L 1004.736242 279.624045 
L 1005.20751 272.773471 
L 1005.678778 268.360606 
L 1006.150046 266.393594 
L 1006.621313 266.818142 
L 1007.092581 272.033956 
L 1007.563849 270.145667 
L 1008.035117 270.125021 
L 1008.506385 271.621836 
L 1009.448921 273.662642 
L 1009.920189 274.309787 
L 1010.391456 269.44087 
L 1010.862724 271.347589 
L 1011.333992 269.429439 
L 1011.80526 270.896393 
L 1012.276528 267.41735 
L 1012.747796 265.3689 
L 1013.219064 269.675323 
L 1013.690331 278.707862 
L 1014.161599 280.682446 
L 1015.104135 289.431022 
L 1015.575403 286.92652 
L 1016.046671 291.55598 
L 1016.517939 291.421322 
L 1016.989206 290.613443 
L 1017.460474 290.158461 
L 1018.40301 282.12268 
L 1018.874278 287.107753 
L 1019.816814 282.310486 
L 1020.759349 287.543658 
L 1021.230617 294.727556 
L 1021.701885 295.920335 
L 1022.173153 297.968213 
L 1023.115689 298.640331 
L 1023.586957 301.076937 
L 1024.058224 294.86755 
L 1025.00076 294.21277 
L 1033.483582 293.294674 
L 1033.954849 297.414872 
L 1034.426117 300.337932 
L 1034.897385 301.702272 
L 1035.368653 300.935653 
L 1102.28869 266.77948 
L 1105.116297 68.829288 
L 1106.058832 78.430249 
L 1106.5301 82.264332 
L 1107.001368 83.359386 
L 1107.472636 87.551796 
L 1107.943904 85.921394 
L 1108.415172 88.270593 
L 1108.88644 86.995803 
L 1109.357708 86.228643 
L 1109.828975 83.83001 
L 1110.300243 91.80114 
L 1110.771511 95.855106 
L 1111.242779 96.844291 
L 1111.714047 94.32893 
L 1112.656583 97.203117 
L 1113.12785 97.046742 
L 1114.070386 89.494158 
L 1114.541654 90.241744 
L 1115.012922 95.188812 
L 1115.48419 98.721575 
L 1115.955458 100.294399 
L 1116.426725 99.912712 
L 1116.897993 96.680697 
L 1117.369261 98.139507 
L 1117.840529 98.561341 
L 1118.311797 97.305553 
L 1118.783065 99.798626 
L 1119.254333 96.981944 
L 1119.7256 98.120432 
L 1120.196868 99.568384 
L 1120.668136 96.686552 
L 1121.139404 89.920131 
L 1121.610672 88.52047 
L 1122.08194 83.054341 
L 1122.553208 81.48366 
L 1123.024476 81.940783 
L 1123.495743 77.221169 
L 1123.967011 76.397002 
L 1124.438279 79.63116 
L 1124.909547 77.44698 
L 1125.380815 78.588182 
L 1125.852083 78.228212 
L 1126.323351 74.504855 
L 1126.794618 78.545248 
L 1127.265886 79.770602 
L 1127.737154 79.975268 
L 1128.208422 82.547064 
L 1128.67969 77.925175 
L 1129.150958 75.868581 
L 1129.622226 72.164226 
L 1130.093493 66.179609 
L 1130.564761 66.468428 
L 1131.036029 62.796648 
L 1131.507297 61.603296 
L 1131.978565 62.616912 
L 1132.449833 62.419818 
L 1132.921101 64.26953 
L 1133.392369 72.438827 
L 1133.863636 73.113118 
L 1134.334904 75.950944 
L 1134.806172 76.014451 
L 1135.27744 77.106791 
L 1135.748708 84.48071 
L 1136.219976 86.905917 
L 1136.691244 80.14221 
L 1137.162511 77.89288 
L 1137.633779 73.824769 
L 1138.105047 73.584241 
L 1138.576315 74.893748 
L 1139.047583 66.034372 
L 1139.518851 61.094875 
L 1139.990119 59.649066 
L 1140.461386 60.225632 
L 1140.932654 67.165215 
L 1141.403922 64.785584 
L 1141.87519 59.555625 
L 1142.346458 62.597046 
L 1143.288994 71.087736 
L 1143.760261 68.309059 
L 1144.231529 60.68211 
L 1144.702797 60.85963 
L 1145.174065 64.560698 
L 1145.645333 67.346947 
L 1146.116601 71.609937 
L 1146.587869 71.125095 
L 1147.059137 72.518755 
L 1147.530404 74.832664 
L 1148.944208 84.779449 
L 1149.886744 84.773448 
L 1150.358012 85.54275 
L 1150.829279 87.414179 
L 1151.300547 86.242544 
L 1152.243083 75.551886 
L 1152.714351 70.316498 
L 1153.185619 68.056309 
L 1153.656887 70.780122 
L 1154.128154 75.808628 
L 1154.599422 77.750637 
L 1155.541958 83.293274 
L 1156.013226 92.228087 
L 1156.484494 97.699073 
L 1156.955762 105.814077 
L 1157.427029 109.602012 
L 1157.898297 109.855541 
L 1158.369565 107.247883 
L 1158.840833 111.907205 
L 1159.312101 106.07732 
L 1159.783369 105.500182 
L 1160.254637 94.976757 
L 1160.725905 87.0322 
L 1161.197172 93.659605 
L 1161.66844 96.589727 
L 1162.139708 94.959325 
L 1162.610976 93.983141 
L 1163.553512 100.929225 
L 1164.02478 108.156556 
L 1164.496047 101.840758 
L 1164.967315 112.485767 
L 1165.438583 110.554045 
L 1165.909851 112.259883 
L 1166.381119 113.311504 
L 1166.852387 120.221227 
L 1167.794922 122.389618 
L 1168.26619 118.601111 
L 1168.737458 118.629328 
L 1169.208726 125.425038 
L 1169.679994 125.002632 
L 1170.151262 117.454406 
L 1170.62253 117.083577 
L 1171.093798 119.063591 
L 1171.565065 115.850578 
L 1172.036333 117.743724 
L 1172.507601 115.630123 
L 1172.978869 120.696634 
L 1173.450137 130.89645 
L 1173.921405 133.101774 
L 1174.392673 133.811356 
L 1175.335208 136.674684 
L 1175.806476 135.459616 
L 1176.749012 115.954658 
L 1177.22028 109.790877 
L 1177.691548 110.226284 
L 1178.162815 107.309163 
L 1178.634083 109.937965 
L 1179.105351 109.352683 
L 1179.576619 109.7528 
L 1180.519155 99.691928 
L 1180.990423 96.872532 
L 1181.46169 104.029283 
L 1181.932958 101.456916 
L 1182.404226 98.015877 
L 1182.875494 104.912027 
L 1183.81803 127.594634 
L 1184.289298 129.829819 
L 1185.231833 121.74246 
L 1185.703101 123.605746 
L 1186.174369 116.633015 
L 1186.645637 112.488895 
L 1187.116905 110.912785 
L 1187.588173 110.026183 
L 1188.059441 114.30546 
L 1188.530708 115.137199 
L 1189.001976 112.586548 
L 1189.473244 120.093482 
L 1189.944512 125.466742 
L 1190.41578 123.144118 
L 1190.887048 127.811583 
L 1191.358316 122.551763 
L 1191.829583 130.216144 
L 1192.300851 134.932472 
L 1193.243387 126.05788 
L 1193.714655 127.801723 
L 1194.185923 121.817106 
L 1194.657191 128.493373 
L 1195.128458 126.244043 
L 1196.070994 128.651319 
L 1196.542262 131.603158 
L 1197.01353 133.702613 
L 1197.484798 138.790841 
L 1197.956066 137.317885 
L 1198.427334 134.943684 
L 1198.898601 136.825971 
L 1199.369869 139.530782 
L 1200.312405 141.658454 
L 1200.783673 139.938471 
L 1201.254941 133.226341 
L 1201.726209 132.844654 
L 1203.140012 133.461367 
L 1203.61128 131.719666 
L 1204.082548 137.415964 
L 1205.496351 170.108365 
L 1205.967619 171.586177 
L 1206.438887 170.311388 
L 1206.910155 177.088095 
L 1207.381423 175.539131 
L 1207.852691 171.593177 
L 1208.323959 171.615965 
L 1208.795227 161.90692 
L 1209.266494 165.198084 
L 1209.737762 171.74405 
L 1210.20903 171.291784 
L 1210.680298 174.686102 
L 1211.151566 179.46758 
L 1211.622834 177.261683 
L 1212.094102 185.52599 
L 1212.565369 181.202707 
L 1213.036637 182.64523 
L 1213.507905 186.338154 
L 1213.979173 188.054851 
L 1214.450441 190.67551 
L 1214.921709 199.243852 
L 1215.392977 201.468178 
L 1216.80678 218.49735 
L 1217.278048 216.837087 
L 1217.749316 216.65628 
L 1218.220584 211.760217 
L 1218.691852 213.327611 
L 1219.163119 211.765074 
L 1220.105655 196.788066 
L 1220.576923 195.771163 
L 1221.048191 193.711854 
L 1221.519459 189.12254 
L 1221.990727 178.911295 
L 1222.461995 185.112507 
L 1222.933262 183.609691 
L 1223.40453 180.42111 
L 1223.875798 180.286451 
L 1224.347066 188.075704 
L 1225.289602 196.148346 
L 1226.232137 187.385052 
L 1226.703405 187.483848 
L 1227.174673 183.285437 
L 1227.645941 173.345651 
L 1228.117209 171.850978 
L 1228.588477 172.316246 
L 1229.059745 173.7832 
L 1229.531012 177.272529 
L 1230.00228 177.523344 
L 1230.473548 182.027933 
L 1230.944816 180.041918 
L 1231.416084 175.75664 
L 1231.887352 175.847293 
L 1232.35862 169.854532 
L 1232.829888 168.099258 
L 1233.301155 171.70803 
L 1233.772423 172.29274 
L 1234.243691 176.984636 
L 1234.714959 174.195101 
L 1235.186227 174.07673 
L 1235.657495 181.635241 
L 1236.60003 187.253887 
L 1237.071298 188.180636 
L 1237.542566 193.469744 
L 1238.013834 202.58372 
L 1238.485102 204.07782 
L 1238.95637 202.393126 
L 1239.427638 204.639169 
L 1239.898905 204.262912 
L 1240.370173 207.62737 
L 1240.841441 202.250822 
L 1241.312709 199.78161 
L 1241.783977 198.349373 
L 1242.255245 202.045012 
L 1242.726513 193.910434 
L 1261.105959 177.803081 
L 1262.048495 148.704735 
L 1262.519763 135.187108 
L 1263.933566 107.170243 
L 1264.404834 108.878796 
L 1264.876102 103.02448 
L 1265.34737 101.451084 
L 1265.818638 99.09317 
L 1266.761174 78.266203 
L 1267.703709 67.700416 
L 1268.174977 70.24778 
L 1268.646245 69.564773 
L 1269.117513 64.465115 
L 1269.588781 61.151662 
L 1270.060049 60.216197 
L 1270.531317 66.200242 
L 1271.002584 70.433371 
L 1271.473852 72.589833 
L 1272.416388 74.967249 
L 1273.358924 81.734169 
L 1273.830192 75.906998 
L 1274.301459 73.619664 
L 1274.772727 74.538269 
L 1275.243995 77.433102 
L 1275.715263 85.254929 
L 1276.186531 86.151818 
L 1277.129067 83.495298 
L 1277.600334 89.226885 
L 1278.071602 90.058623 
L 1279.485406 80.943503 
L 1279.956674 85.811848 
L 1280.427942 89.032432 
L 1280.899209 88.140401 
L 1281.370477 91.572724 
L 1281.841745 96.275478 
L 1282.313013 103.000608 
L 1282.784281 104.69016 
L 1283.255549 108.247354 
L 1284.198085 110.076421 
L 1284.669352 112.086294 
L 1285.14062 110.002554 
L 1285.611888 108.741338 
L 1286.083156 110.715922 
L 1286.554424 106.107606 
L 1287.025692 108.155484 
L 1287.49696 109.353693 
L 1287.968227 105.155281 
L 1288.439495 108.308 
L 1288.910763 109.777669 
L 1289.382031 112.045429 
L 1289.853299 115.466894 
L 1290.324567 114.545002 
L 1290.795835 113.332648 
L 1291.267102 119.479569 
L 1291.73837 117.18409 
L 1292.209638 114.310402 
L 1292.680906 107.533122 
L 1293.623442 97.17093 
L 1294.09471 100.502813 
L 1294.565978 98.098751 
L 1295.037245 94.459546 
L 1295.508513 89.560768 
L 1296.922317 97.854364 
L 1297.393585 94.587059 
L 1297.864853 92.742204 
L 1298.33612 92.265506 
L 1298.807388 91.40062 
L 1299.749924 88.616514 
L 1300.221192 82.868067 
L 1300.69246 83.73781 
L 1301.634995 75.072241 
L 1302.106263 78.754307 
L 1302.577531 81.008495 
L 1303.048799 78.710301 
L 1303.520067 79.981804 
L 1303.991335 76.733502 
L 1304.462603 77.975145 
L 1304.93387 81.583916 
L 1305.405138 81.346103 
L 1305.876406 83.195815 
L 1306.347674 88.015298 
L 1306.818942 91.580636 
L 1307.29021 91.006212 
L 1307.761478 97.163992 
L 1308.232746 95.910919 
L 1308.704013 98.895333 
L 1309.175281 98.565223 
L 1309.646549 97.553749 
L 1310.117817 96.862598 
L 1310.589085 97.05912 
L 1311.060353 90.561444 
L 1311.531621 87.872349 
L 1312.474156 73.606565 
L 1312.945424 67.833687 
L 1313.416692 66.686483 
L 1313.88796 69.814771 
L 1314.359228 71.960375 
L 1315.301763 80.852825 
L 1315.773031 91.853447 
L 1316.244299 97.142555 
L 1316.715567 99.209435 
L 1317.186835 98.844035 
L 1317.658103 100.634027 
L 1318.129371 99.041629 
L 1318.600638 98.749524 
L 1319.071906 92.604745 
L 1319.543174 91.484688 
L 1320.014442 94.227503 
L 1320.48571 98.077874 
L 1320.956978 99.813573 
L 1321.428246 102.317503 
L 1321.899514 101.797372 
L 1322.370781 95.625447 
L 1322.842049 96.723216 
L 1323.313317 95.470143 
L 1323.784585 93.837027 
L 1324.255853 86.695991 
L 1324.727121 81.558328 
L 1325.198389 82.278768 
L 1325.669656 89.782988 
L 1326.140924 91.741284 
L 1326.612192 92.021959 
L 1327.08346 96.768147 
L 1328.025996 110.088107 
L 1328.497264 116.224169 
L 1328.968531 118.950697 
L 1329.911067 122.305367 
L 1330.382335 114.710994 
L 1330.853603 115.740898 
L 1331.324871 116.154588 
L 1331.796139 116.000927 
L 1332.738674 125.645321 
L 1333.209942 125.638248 
L 1333.68121 138.408788 
L 1334.152478 139.848596 
L 1334.623746 143.468226 
L 1335.095014 148.284994 
L 1335.566282 151.538153 
L 1336.037549 148.297995 
L 1336.508817 152.077786 
L 1336.980085 146.478642 
L 1337.451353 147.185509 
L 1337.922621 145.576823 
L 1338.393889 141.715022 
L 1338.865157 132.877363 
L 1339.336424 133.367061 
L 1339.807692 130.230057 
L 1340.27896 128.922693 
L 1340.750228 131.155163 
L 1341.221496 136.870463 
L 1341.692764 136.247177 
L 1342.164032 142.388668 
L 1342.635299 140.063329 
L 1343.106567 139.597489 
L 1343.577835 143.969063 
L 1344.049103 142.037341 
L 1344.520371 137.917653 
L 1344.991639 141.078516 
L 1345.462907 140.783696 
L 1345.934175 146.273684 
L 1346.87671 145.750838 
L 1347.347978 138.2189 
L 1347.819246 137.359444 
L 1348.761782 131.489911 
L 1349.23305 125.290841 
L 1349.704317 117.251273 
L 1350.175585 117.059608 
L 1350.646853 121.192297 
L 1351.118121 119.89579 
L 1351.589389 123.713586 
L 1352.060657 123.568069 
L 1352.531925 126.139864 
L 1353.003192 126.871163 
L 1353.47446 128.45213 
L 1353.945728 127.383649 
L 1354.416996 131.228591 
L 1355.8308 128.867962 
L 1356.302067 124.661407 
L 1356.773335 122.382216 
L 1357.244603 124.65812 
L 1357.715871 126.168508 
L 1358.658407 139.081278 
L 1359.129675 140.545517 
L 1359.600943 139.493324 
L 1360.07221 149.948312 
L 1360.543478 156.325973 
L 1361.014746 155.838417 
L 1361.486014 155.559885 
L 1361.957282 145.601096 
L 1362.42855 147.857998 
L 1362.899818 153.2204 
L 1363.371085 151.494987 
L 1364.313621 154.76822 
L 1365.256157 166.437704 
L 1366.198693 175.039693 
L 1366.66996 171.414061 
L 1367.141228 168.950278 
L 1367.612496 173.596026 
L 1368.083764 175.94251 
L 1368.555032 181.834258 
L 1369.0263 183.225204 
L 1369.497568 185.965304 
L 1369.968836 192.24524 
L 1370.440103 196.193337 
L 1370.911371 197.559851 
L 1371.382639 192.669216 
L 1371.853907 189.173886 
L 1372.325175 187.375179 
L 1372.796443 188.787841 
L 1373.267711 197.752514 
L 1373.738978 192.522555 
L 1374.210246 192.925387 
L 1376.566586 188.811128 
L 1377.037853 186.550939 
L 1378.922925 181.668449 
L 1379.865461 163.58594 
L 1380.807996 168.677954 
L 1381.750532 176.270112 
L 1382.2218 177.851079 
L 1382.693068 184.253172 
L 1383.164336 185.980727 
L 1383.635604 186.858614 
L 1384.106871 183.92249 
L 1384.578139 185.01483 
L 1385.049407 184.48384 
L 1385.520675 187.481827 
L 1385.991943 187.024131 
L 1386.463211 187.302091 
L 1386.934479 192.222014 
L 1387.405746 190.135559 
L 1387.877014 187.327022 
L 1388.348282 186.77703 
L 1388.81955 185.792702 
L 1389.290818 188.747255 
L 1389.762086 186.0283 
L 1390.233354 185.206848 
L 1390.704621 183.57916 
L 1391.647157 176.91968 
L 1392.118425 178.856259 
L 1392.589693 171.652788 
L 1393.060961 170.747183 
L 1394.003497 165.905412 
L 1394.474764 167.670972 
L 1394.946032 174.890159 
L 1395.4173 176.129086 
L 1395.888568 173.358553 
L 1396.831104 176.603569 
L 1397.302372 180.953426 
L 1398.244907 179.46254 
L 1398.716175 173.876968 
L 1399.187443 181.731371 
L 1399.658711 186.040509 
L 1400.129979 188.791468 
L 1402.01505 183.262903 
L 1402.486318 185.15062 
L 1402.957586 186.457413 
L 1403.428854 189.338673 
L 1404.842657 185.292278 
L 1405.313925 184.954025 
L 1405.785193 181.632428 
L 1406.256461 185.469226 
L 1406.727729 190.560169 
L 1407.670265 177.953004 
L 1408.141532 173.605289 
L 1408.6128 164.116127 
L 1409.084068 158.050072 
L 1409.555336 157.025025 
L 1410.026604 148.401819 
L 1410.497872 147.118885 
L 1410.96914 144.161045 
L 1411.440407 145.193663 
L 1411.911675 147.58901 
L 1412.382943 153.421037 
L 1412.854211 149.537519 
L 1413.325479 151.805279 
L 1413.796747 155.772378 
L 1414.268015 160.904039 
L 1415.681818 155.981901 
L 1416.153086 147.801174 
L 1417.095622 138.644264 
L 1417.56689 135.363386 
L 1418.038157 129.712664 
L 1418.509425 130.354381 
L 1418.980693 132.494555 
L 1419.451961 131.93099 
L 1420.865765 118.163049 
L 1421.337033 118.210268 
L 1421.8083 115.225282 
L 1422.279568 113.448291 
L 1422.750836 115.811063 
L 1423.222104 122.052994 
L 1423.693372 132.149655 
L 1424.16464 138.065835 
L 1424.635908 141.593169 
L 1425.107175 147.791667 
L 1425.578443 147.78188 
L 1426.049711 144.92448 
L 1426.992247 147.19224 
L 1427.463515 141.850983 
L 1428.40605 134.499279 
L 1428.877318 129.27475 
L 1429.348586 134.490564 
L 1429.819854 133.028467 
L 1430.76239 133.102832 
L 1431.233658 129.322468 
L 1431.704926 129.499988 
L 1432.176193 130.559753 
L 1432.647461 130.829569 
L 1433.118729 124.676647 
L 1433.589997 126.040446 
L 1434.061265 123.674388 
L 1434.532533 124.940462 
L 1435.003801 125.031115 
L 1435.475068 125.249354 
L 1435.946336 127.487254 
L 1436.417604 127.605053 
L 1436.888872 131.219254 
L 1437.36014 127.213579 
L 1438.302676 122.875079 
L 1439.245211 114.00863 
L 1439.716479 112.46781 
L 1440.187747 110.050175 
L 1440.659015 113.962981 
L 1441.130283 120.177767 
L 1441.601551 119.872089 
L 1442.072818 123.288124 
L 1442.544086 116.605855 
L 1443.486622 120.267276 
L 1443.95789 117.399017 
L 1444.429158 116.064506 
L 1444.900426 118.799177 
L 1445.371694 122.223357 
L 1445.842961 135.463522 
L 1446.314229 136.887042 
L 1446.785497 139.10594 
L 1447.256765 142.326524 
L 1447.728033 143.247844 
L 1448.199301 140.545176 
L 1449.141836 126.341828 
L 1450.084372 121.465838 
L 1451.026908 112.243777 
L 1451.498176 114.511537 
L 1451.969444 113.144451 
L 1452.440711 116.370464 
L 1452.911979 113.415339 
L 1453.383247 113.945756 
L 1453.854515 117.120193 
L 1454.325783 117.194558 
L 1454.797051 111.856015 
L 1455.268319 114.004333 
L 1455.739587 108.823237 
L 1456.210854 108.520273 
L 1457.15339 112.675751 
L 1457.624658 119.780924 
L 1458.095926 124.347949 
L 1458.567194 127.08805 
L 1459.038462 132.621471 
L 1459.509729 136.740588 
L 1459.980997 135.199767 
L 1460.923533 130.261342 
L 1461.394801 130.246125 
L 1461.866069 129.286229 
L 1462.337337 126.580846 
L 1462.808604 122.884635 
L 1463.279872 120.727601 
L 1463.75114 123.426982 
L 1464.222408 120.591299 
L 1464.693676 119.796993 
L 1465.164944 121.079354 
L 1465.636212 121.764504 
L 1466.578747 127.938571 
L 1467.050015 130.249765 
L 1467.521283 125.975345 
L 1467.992551 123.318825 
L 1468.463819 124.848214 
L 1469.406355 132.697188 
L 1469.877622 141.056506 
L 1470.34889 142.58861 
L 1470.820158 145.765761 
L 1471.291426 147.246288 
L 1471.762694 152.456673 
L 1472.233962 153.236834 
L 1472.70523 147.083911 
L 1473.176497 143.49357 
L 1473.647765 141.493982 
L 1474.119033 138.359693 
L 1474.590301 146.121799 
L 1475.061569 148.180536 
L 1475.532837 150.917922 
L 1476.004105 150.365215 
L 1476.475372 152.575969 
L 1476.94664 150.698538 
L 1477.417908 153.886548 
L 1477.889176 150.472655 
L 1478.360444 151.260959 
L 1478.831712 150.629529 
L 1482.601855 155.071683 
L 1483.073123 153.430422 
L 1483.54439 155.280134 
L 1484.015658 154.529262 
L 1484.958194 149.482252 
L 1485.429462 147.154199 
L 1485.90073 143.990049 
L 1486.371998 142.560527 
L 1486.843265 144.578544 
L 1487.314533 147.435373 
L 1487.785801 152.835779 
L 1488.728337 156.555849 
L 1489.199605 159.716712 
L 1489.670873 163.72453 
L 1490.14214 163.568155 
L 1490.613408 160.189552 
L 1491.084676 158.920191 
L 1491.555944 153.196175 
L 1492.027212 149.942444 
L 1492.49848 148.360904 
L 1492.969748 145.183182 
L 1493.441016 146.818441 
L 1493.912283 144.989873 
L 1494.383551 140.954337 
L 1494.854819 138.609996 
L 1495.326087 139.615468 
L 1495.797355 139.556818 
L 1496.268623 140.613868 
L 1496.739891 138.51927 
L 1497.211158 134.367006 
L 1497.682426 125.941966 
L 1498.153694 131.32337 
L 1498.624962 131.137134 
L 1499.09623 127.975699 
L 1500.038766 119.111965 
L 1500.981301 131.533392 
L 1501.452569 128.559264 
L 1501.923837 127.626514 
L 1502.866373 135.986903 
L 1503.337641 142.017096 
L 1503.808908 141.969305 
L 1504.280176 151.707638 
L 1504.751444 157.64825 
L 1505.222712 160.038167 
L 1505.69398 160.250977 
L 1506.165248 152.957924 
L 1506.636516 147.673673 
L 1507.107784 150.633656 
L 1508.050319 140.0858 
L 1508.992855 135.271174 
L 1509.935391 135.489413 
L 1511.349194 144.461658 
L 1511.820462 141.35723 
L 1512.29173 147.075244 
L 1512.762998 142.89312 
L 1513.234266 141.034692 
L 1514.648069 134.295416 
L 1515.119337 130.794656 
L 1515.590605 130.681714 
L 1516.061873 131.774054 
L 1516.533141 139.457437 
L 1517.004409 151.503179 
L 1517.475676 157.34335 
L 1517.946944 165.694525 
L 1518.418212 176.572989 
L 1518.88948 182.999514 
L 1519.360748 184.17872 
L 1519.832016 183.392558 
L 1520.303284 176.808015 
L 1520.774552 173.81217 
L 1521.245819 173.905538 
L 1521.717087 175.125464 
L 1522.188355 179.537756 
L 1523.130891 180.06546 
L 1523.602159 177.954574 
L 1524.073427 183.11881 
L 1524.544694 183.847393 
L 1525.015962 180.935701 
L 1525.48723 179.546898 
L 1525.958498 171.214154 
L 1526.429766 170.118528 
L 1526.901034 168.678148 
L 1527.372302 166.594408 
L 1527.843569 167.257841 
L 1528.314837 168.944677 
L 1528.786105 163.470405 
L 1529.257373 169.983796 
L 1529.728641 169.835564 
L 1530.199909 169.016827 
L 1530.671177 167.530299 
L 1531.142445 167.56123 
L 1531.613712 167.763182 
L 1532.08498 170.609152 
L 1532.556248 167.165398 
L 1533.498784 172.23841 
L 1533.970052 174.351438 
L 1534.44132 172.911058 
L 1534.912587 173.313889 
L 1535.383855 172.060816 
L 1535.855123 174.461592 
L 1536.326391 174.337792 
L 1536.797659 176.040916 
L 1537.268927 179.83971 
L 1537.740195 192.072759 
L 1538.211462 196.064289 
L 1538.68273 199.037845 
L 1539.153998 193.316544 
L 1539.625266 198.947691 
L 1540.096534 201.22631 
L 1540.567802 205.606027 
L 1541.03907 203.351268 
L 1541.510337 204.188435 
L 1542.452873 210.659464 
L 1542.924141 210.530235 
L 1543.395409 214.168867 
L 1543.866677 212.307724 
L 1544.337945 204.531473 
L 1544.809213 205.379498 
L 1545.28048 209.992671 
L 1545.751748 216.739518 
L 1546.223016 225.310575 
L 1546.694284 228.186405 
L 1547.165552 229.387329 
L 1547.63682 234.866458 
L 1548.108088 235.079268 
L 1548.579355 231.507929 
L 1549.050623 232.377671 
L 1549.993159 227.428387 
L 1550.464427 228.19226 
L 1550.935695 233.296776 
L 1551.406963 233.406431 
L 1551.87823 238.168907 
L 1552.349498 236.375629 
L 1552.820766 229.250881 
L 1553.292034 224.900451 
L 1553.763302 224.657209 
L 1554.23457 222.481173 
L 1554.705838 222.772706 
L 1555.177106 221.758517 
L 1555.648373 216.873313 
L 1556.119641 221.55435 
L 1556.590909 216.055646 
L 1556.590909 216.055646 
" clip-path="url(#pa09d204427)" style="fill: none; stroke: #bb9832; stroke-width: 2.5; stroke-linecap: square"/>
   </g>
   <g id="patch_3">
    <path d="M 225 320.4 
L 225 43.2 
" style="fill: none; stroke: #000000; stroke-width: 0.8; stroke-linejoin: miter; stroke-linecap: square"/>
   </g>
   <g id="patch_4">
    <path d="M 1620 320.4 
L 1620 43.2 
" style="fill: none; stroke: #000000; stroke-width: 0.8; stroke-linejoin: miter; stroke-linecap: square"/>
   </g>
   <g id="patch_5">
    <path d="M 225 320.4 
L 1620 320.4 
" style="fill: none; stroke: #000000; stroke-width: 0.8; stroke-linejoin: miter; stroke-linecap: square"/>
   </g>
   <g id="patch_6">
    <path d="M 225 43.2 
L 1620 43.2 
" style="fill: none; stroke: #000000; stroke-width: 0.8; stroke-linejoin: miter; stroke-linecap: square"/>
   </g>
   <g id="text_19">
    <!-- CAFV -->
    <g transform="translate(896.084375 37.2) scale(0.2 -0.2)">
     <defs>
      <path id="DejaVuSans-43" d="M 4122 4306 
L 4122 3641 
Q 3803 3938 3442 4084 
Q 3081 4231 2675 4231 
Q 1875 4231 1450 3742 
Q 1025 3253 1025 2328 
Q 1025 1406 1450 917 
Q 1875 428 2675 428 
Q 3081 428 3442 575 
Q 3803 722 4122 1019 
L 4122 359 
Q 3791 134 3420 21 
Q 3050 -91 2638 -91 
Q 1578 -91 968 557 
Q 359 1206 359 2328 
Q 359 3453 968 4101 
Q 1578 4750 2638 4750 
Q 3056 4750 3426 4639 
Q 3797 4528 4122 4306 
z
" transform="scale(0.015625)"/>
      <path id="DejaVuSans-41" d="M 2188 4044 
L 1331 1722 
L 3047 1722 
L 2188 4044 
z
M 1831 4666 
L 2547 4666 
L 4325 0 
L 3669 0 
L 3244 1197 
L 1141 1197 
L 716 0 
L 50 0 
L 1831 4666 
z
" transform="scale(0.015625)"/>
      <path id="DejaVuSans-46" d="M 628 4666 
L 3309 4666 
L 3309 4134 
L 1259 4134 
L 1259 2759 
L 3109 2759 
L 3109 2228 
L 1259 2228 
L 1259 0 
L 628 0 
L 628 4666 
z
" transform="scale(0.015625)"/>
      <path id="DejaVuSans-56" d="M 1831 0 
L 50 4666 
L 709 4666 
L 2188 738 
L 3669 4666 
L 4325 4666 
L 2547 0 
L 1831 0 
z
" transform="scale(0.015625)"/>
     </defs>
     <use xlink:href="#DejaVuSans-43"/>
     <use xlink:href="#DejaVuSans-41" x="69.824219"/>
     <use xlink:href="#DejaVuSans-46" x="138.232422"/>
     <use xlink:href="#DejaVuSans-56" x="195.751953"/>
    </g>
   </g>
   <g id="legend_1">
    <g id="patch_7">
     <path d="M 1559.934375 65.878125 
L 1613 65.878125 
Q 1615 65.878125 1615 63.878125 
L 1615 50.2 
Q 1615 48.2 1613 48.2 
L 1559.934375 48.2 
Q 1557.934375 48.2 1557.934375 50.2 
L 1557.934375 63.878125 
Q 1557.934375 65.878125 1559.934375 65.878125 
z
" style="fill: #ffffff; opacity: 0.8; stroke: #cccccc; stroke-linejoin: miter"/>
    </g>
    <g id="line2d_18">
     <path d="M 1561.934375 56.298437 
L 1571.934375 56.298437 
L 1581.934375 56.298437 
" style="fill: none; stroke: #bb9832; stroke-width: 2.5; stroke-linecap: square"/>
    </g>
    <g id="text_20">
     <!-- cafv -->
     <g transform="translate(1589.934375 59.798437) scale(0.1 -0.1)">
      <defs>
       <path id="DejaVuSans-63" d="M 3122 3366 
L 3122 2828 
Q 2878 2963 2633 3030 
Q 2388 3097 2138 3097 
Q 1578 3097 1268 2742 
Q 959 2388 959 1747 
Q 959 1106 1268 751 
Q 1578 397 2138 397 
Q 2388 397 2633 464 
Q 2878 531 3122 666 
L 3122 134 
Q 2881 22 2623 -34 
Q 2366 -91 2075 -91 
Q 1284 -91 818 406 
Q 353 903 353 1747 
Q 353 2603 823 3093 
Q 1294 3584 2113 3584 
Q 2378 3584 2631 3529 
Q 2884 3475 3122 3366 
z
" transform="scale(0.015625)"/>
       <path id="DejaVuSans-66" d="M 2375 4863 
L 2375 4384 
L 1825 4384 
Q 1516 4384 1395 4259 
Q 1275 4134 1275 3809 
L 1275 3500 
L 2222 3500 
L 2222 3053 
L 1275 3053 
L 1275 0 
L 697 0 
L 697 3053 
L 147 3053 
L 147 3500 
L 697 3500 
L 697 3744 
Q 697 4328 969 4595 
Q 1241 4863 1831 4863 
L 2375 4863 
z
" transform="scale(0.015625)"/>
       <path id="DejaVuSans-76" d="M 191 3500 
L 800 3500 
L 1894 563 
L 2988 3500 
L 3597 3500 
L 2284 0 
L 1503 0 
L 191 3500 
z
" transform="scale(0.015625)"/>
      </defs>
      <use xlink:href="#DejaVuSans-63"/>
      <use xlink:href="#DejaVuSans-61" x="54.980469"/>
      <use xlink:href="#DejaVuSans-66" x="116.259766"/>
      <use xlink:href="#DejaVuSans-76" x="151.464844"/>
     </g>
    </g>
   </g>
  </g>
 </g>
 <defs>
  <clipPath id="pa09d204427">
   <rect x="225" y="43.2" width="1395" height="277.2"/>
  </clipPath>
 </defs>
</svg>
