<?xml version="1.0" encoding="utf-8" standalone="no"?>
<!DOCTYPE svg PUBLIC "-//W3C//DTD SVG 1.1//EN"
  "http://www.w3.org/Graphics/SVG/1.1/DTD/svg11.dtd">
<svg xmlns:xlink="http://www.w3.org/1999/xlink" width="1800pt" height="360pt" viewBox="0 0 1800 360" xmlns="http://www.w3.org/2000/svg" version="1.1">
 <metadata>
  <rdf:RDF xmlns:dc="http://purl.org/dc/elements/1.1/" xmlns:cc="http://creativecommons.org/ns#" xmlns:rdf="http://www.w3.org/1999/02/22-rdf-syntax-ns#">
   <cc:Work>
    <dc:type rdf:resource="http://purl.org/dc/dcmitype/StillImage"/>
    <dc:date>2024-03-06T14:50:03.888627</dc:date>
    <dc:format>image/svg+xml</dc:format>
    <dc:creator>
     <cc:Agent>
      <dc:title>Matplotlib v3.7.2, https://matplotlib.org/</dc:title>
     </cc:Agent>
    </dc:creator>
   </cc:Work>
  </rdf:RDF>
 </metadata>
 <defs>
  <style type="text/css">*{stroke-linejoin: round; stroke-linecap: butt}</style>
 </defs>
 <g id="figure_1">
  <g id="patch_1">
   <path d="M 0 360 
L 1800 360 
L 1800 0 
L 0 0 
z
" style="fill: #ffffff"/>
  </g>
  <g id="axes_1">
   <g id="patch_2">
    <path d="M 225 320.4 
L 1620 320.4 
L 1620 43.2 
L 225 43.2 
z
" style="fill: #ffffff"/>
   </g>
   <g id="matplotlib.axis_1">
    <g id="xtick_1">
     <g id="line2d_1">
      <defs>
       <path id="mbe05687313" d="M 0 0 
L 0 3.5 
" style="stroke: #000000; stroke-width: 0.8"/>
      </defs>
      <g>
       <use xlink:href="#mbe05687313" x="281.924597" y="320.4" style="stroke: #000000; stroke-width: 0.8"/>
      </g>
     </g>
     <g id="text_1">
      <!-- 2011 -->
      <g transform="translate(262.837097 338.797656) scale(0.15 -0.15)">
       <defs>
        <path id="DejaVuSans-32" d="M 1228 531 
L 3431 531 
L 3431 0 
L 469 0 
L 469 531 
Q 828 903 1448 1529 
Q 2069 2156 2228 2338 
Q 2531 2678 2651 2914 
Q 2772 3150 2772 3378 
Q 2772 3750 2511 3984 
Q 2250 4219 1831 4219 
Q 1534 4219 1204 4116 
Q 875 4013 500 3803 
L 500 4441 
Q 881 4594 1212 4672 
Q 1544 4750 1819 4750 
Q 2544 4750 2975 4387 
Q 3406 4025 3406 3419 
Q 3406 3131 3298 2873 
Q 3191 2616 2906 2266 
Q 2828 2175 2409 1742 
Q 1991 1309 1228 531 
z
" transform="scale(0.015625)"/>
        <path id="DejaVuSans-30" d="M 2034 4250 
Q 1547 4250 1301 3770 
Q 1056 3291 1056 2328 
Q 1056 1369 1301 889 
Q 1547 409 2034 409 
Q 2525 409 2770 889 
Q 3016 1369 3016 2328 
Q 3016 3291 2770 3770 
Q 2525 4250 2034 4250 
z
M 2034 4750 
Q 2819 4750 3233 4129 
Q 3647 3509 3647 2328 
Q 3647 1150 3233 529 
Q 2819 -91 2034 -91 
Q 1250 -91 836 529 
Q 422 1150 422 2328 
Q 422 3509 836 4129 
Q 1250 4750 2034 4750 
z
" transform="scale(0.015625)"/>
        <path id="DejaVuSans-31" d="M 794 531 
L 1825 531 
L 1825 4091 
L 703 3866 
L 703 4441 
L 1819 4666 
L 2450 4666 
L 2450 531 
L 3481 531 
L 3481 0 
L 794 0 
L 794 531 
z
" transform="scale(0.015625)"/>
       </defs>
       <use xlink:href="#DejaVuSans-32"/>
       <use xlink:href="#DejaVuSans-30" x="63.623047"/>
       <use xlink:href="#DejaVuSans-31" x="127.246094"/>
       <use xlink:href="#DejaVuSans-31" x="190.869141"/>
      </g>
     </g>
    </g>
    <g id="xtick_2">
     <g id="line2d_2">
      <g>
       <use xlink:href="#mbe05687313" x="450.984627" y="320.4" style="stroke: #000000; stroke-width: 0.8"/>
      </g>
     </g>
     <g id="text_2">
      <!-- 2012 -->
      <g transform="translate(431.897127 338.797656) scale(0.15 -0.15)">
       <use xlink:href="#DejaVuSans-32"/>
       <use xlink:href="#DejaVuSans-30" x="63.623047"/>
       <use xlink:href="#DejaVuSans-31" x="127.246094"/>
       <use xlink:href="#DejaVuSans-32" x="190.869141"/>
      </g>
     </g>
    </g>
    <g id="xtick_3">
     <g id="line2d_3">
      <g>
       <use xlink:href="#mbe05687313" x="620.507836" y="320.4" style="stroke: #000000; stroke-width: 0.8"/>
      </g>
     </g>
     <g id="text_3">
      <!-- 2013 -->
      <g transform="translate(601.420336 338.797656) scale(0.15 -0.15)">
       <defs>
        <path id="DejaVuSans-33" d="M 2597 2516 
Q 3050 2419 3304 2112 
Q 3559 1806 3559 1356 
Q 3559 666 3084 287 
Q 2609 -91 1734 -91 
Q 1441 -91 1130 -33 
Q 819 25 488 141 
L 488 750 
Q 750 597 1062 519 
Q 1375 441 1716 441 
Q 2309 441 2620 675 
Q 2931 909 2931 1356 
Q 2931 1769 2642 2001 
Q 2353 2234 1838 2234 
L 1294 2234 
L 1294 2753 
L 1863 2753 
Q 2328 2753 2575 2939 
Q 2822 3125 2822 3475 
Q 2822 3834 2567 4026 
Q 2313 4219 1838 4219 
Q 1578 4219 1281 4162 
Q 984 4106 628 3988 
L 628 4550 
Q 988 4650 1302 4700 
Q 1616 4750 1894 4750 
Q 2613 4750 3031 4423 
Q 3450 4097 3450 3541 
Q 3450 3153 3228 2886 
Q 3006 2619 2597 2516 
z
" transform="scale(0.015625)"/>
       </defs>
       <use xlink:href="#DejaVuSans-32"/>
       <use xlink:href="#DejaVuSans-30" x="63.623047"/>
       <use xlink:href="#DejaVuSans-31" x="127.246094"/>
       <use xlink:href="#DejaVuSans-33" x="190.869141"/>
      </g>
     </g>
    </g>
    <g id="xtick_4">
     <g id="line2d_4">
      <g>
       <use xlink:href="#mbe05687313" x="789.567866" y="320.4" style="stroke: #000000; stroke-width: 0.8"/>
      </g>
     </g>
     <g id="text_4">
      <!-- 2014 -->
      <g transform="translate(770.480366 338.797656) scale(0.15 -0.15)">
       <defs>
        <path id="DejaVuSans-34" d="M 2419 4116 
L 825 1625 
L 2419 1625 
L 2419 4116 
z
M 2253 4666 
L 3047 4666 
L 3047 1625 
L 3713 1625 
L 3713 1100 
L 3047 1100 
L 3047 0 
L 2419 0 
L 2419 1100 
L 313 1100 
L 313 1709 
L 2253 4666 
z
" transform="scale(0.015625)"/>
       </defs>
       <use xlink:href="#DejaVuSans-32"/>
       <use xlink:href="#DejaVuSans-30" x="63.623047"/>
       <use xlink:href="#DejaVuSans-31" x="127.246094"/>
       <use xlink:href="#DejaVuSans-34" x="190.869141"/>
      </g>
     </g>
    </g>
    <g id="xtick_5">
     <g id="line2d_5">
      <g>
       <use xlink:href="#mbe05687313" x="958.627897" y="320.4" style="stroke: #000000; stroke-width: 0.8"/>
      </g>
     </g>
     <g id="text_5">
      <!-- 2015 -->
      <g transform="translate(939.540397 338.797656) scale(0.15 -0.15)">
       <defs>
        <path id="DejaVuSans-35" d="M 691 4666 
L 3169 4666 
L 3169 4134 
L 1269 4134 
L 1269 2991 
Q 1406 3038 1543 3061 
Q 1681 3084 1819 3084 
Q 2600 3084 3056 2656 
Q 3513 2228 3513 1497 
Q 3513 744 3044 326 
Q 2575 -91 1722 -91 
Q 1428 -91 1123 -41 
Q 819 9 494 109 
L 494 744 
Q 775 591 1075 516 
Q 1375 441 1709 441 
Q 2250 441 2565 725 
Q 2881 1009 2881 1497 
Q 2881 1984 2565 2268 
Q 2250 2553 1709 2553 
Q 1456 2553 1204 2497 
Q 953 2441 691 2322 
L 691 4666 
z
" transform="scale(0.015625)"/>
       </defs>
       <use xlink:href="#DejaVuSans-32"/>
       <use xlink:href="#DejaVuSans-30" x="63.623047"/>
       <use xlink:href="#DejaVuSans-31" x="127.246094"/>
       <use xlink:href="#DejaVuSans-35" x="190.869141"/>
      </g>
     </g>
    </g>
    <g id="xtick_6">
     <g id="line2d_6">
      <g>
       <use xlink:href="#mbe05687313" x="1127.687927" y="320.4" style="stroke: #000000; stroke-width: 0.8"/>
      </g>
     </g>
     <g id="text_6">
      <!-- 2016 -->
      <g transform="translate(1108.600427 338.797656) scale(0.15 -0.15)">
       <defs>
        <path id="DejaVuSans-36" d="M 2113 2584 
Q 1688 2584 1439 2293 
Q 1191 2003 1191 1497 
Q 1191 994 1439 701 
Q 1688 409 2113 409 
Q 2538 409 2786 701 
Q 3034 994 3034 1497 
Q 3034 2003 2786 2293 
Q 2538 2584 2113 2584 
z
M 3366 4563 
L 3366 3988 
Q 3128 4100 2886 4159 
Q 2644 4219 2406 4219 
Q 1781 4219 1451 3797 
Q 1122 3375 1075 2522 
Q 1259 2794 1537 2939 
Q 1816 3084 2150 3084 
Q 2853 3084 3261 2657 
Q 3669 2231 3669 1497 
Q 3669 778 3244 343 
Q 2819 -91 2113 -91 
Q 1303 -91 875 529 
Q 447 1150 447 2328 
Q 447 3434 972 4092 
Q 1497 4750 2381 4750 
Q 2619 4750 2861 4703 
Q 3103 4656 3366 4563 
z
" transform="scale(0.015625)"/>
       </defs>
       <use xlink:href="#DejaVuSans-32"/>
       <use xlink:href="#DejaVuSans-30" x="63.623047"/>
       <use xlink:href="#DejaVuSans-31" x="127.246094"/>
       <use xlink:href="#DejaVuSans-36" x="190.869141"/>
      </g>
     </g>
    </g>
    <g id="xtick_7">
     <g id="line2d_7">
      <g>
       <use xlink:href="#mbe05687313" x="1297.211136" y="320.4" style="stroke: #000000; stroke-width: 0.8"/>
      </g>
     </g>
     <g id="text_7">
      <!-- 2017 -->
      <g transform="translate(1278.123636 338.797656) scale(0.15 -0.15)">
       <defs>
        <path id="DejaVuSans-37" d="M 525 4666 
L 3525 4666 
L 3525 4397 
L 1831 0 
L 1172 0 
L 2766 4134 
L 525 4134 
L 525 4666 
z
" transform="scale(0.015625)"/>
       </defs>
       <use xlink:href="#DejaVuSans-32"/>
       <use xlink:href="#DejaVuSans-30" x="63.623047"/>
       <use xlink:href="#DejaVuSans-31" x="127.246094"/>
       <use xlink:href="#DejaVuSans-37" x="190.869141"/>
      </g>
     </g>
    </g>
    <g id="xtick_8">
     <g id="line2d_8">
      <g>
       <use xlink:href="#mbe05687313" x="1466.271167" y="320.4" style="stroke: #000000; stroke-width: 0.8"/>
      </g>
     </g>
     <g id="text_8">
      <!-- 2018 -->
      <g transform="translate(1447.183667 338.797656) scale(0.15 -0.15)">
       <defs>
        <path id="DejaVuSans-38" d="M 2034 2216 
Q 1584 2216 1326 1975 
Q 1069 1734 1069 1313 
Q 1069 891 1326 650 
Q 1584 409 2034 409 
Q 2484 409 2743 651 
Q 3003 894 3003 1313 
Q 3003 1734 2745 1975 
Q 2488 2216 2034 2216 
z
M 1403 2484 
Q 997 2584 770 2862 
Q 544 3141 544 3541 
Q 544 4100 942 4425 
Q 1341 4750 2034 4750 
Q 2731 4750 3128 4425 
Q 3525 4100 3525 3541 
Q 3525 3141 3298 2862 
Q 3072 2584 2669 2484 
Q 3125 2378 3379 2068 
Q 3634 1759 3634 1313 
Q 3634 634 3220 271 
Q 2806 -91 2034 -91 
Q 1263 -91 848 271 
Q 434 634 434 1313 
Q 434 1759 690 2068 
Q 947 2378 1403 2484 
z
M 1172 3481 
Q 1172 3119 1398 2916 
Q 1625 2713 2034 2713 
Q 2441 2713 2670 2916 
Q 2900 3119 2900 3481 
Q 2900 3844 2670 4047 
Q 2441 4250 2034 4250 
Q 1625 4250 1398 4047 
Q 1172 3844 1172 3481 
z
" transform="scale(0.015625)"/>
       </defs>
       <use xlink:href="#DejaVuSans-32"/>
       <use xlink:href="#DejaVuSans-30" x="63.623047"/>
       <use xlink:href="#DejaVuSans-31" x="127.246094"/>
       <use xlink:href="#DejaVuSans-38" x="190.869141"/>
      </g>
     </g>
    </g>
    <g id="text_9">
     <!-- Time -->
     <g transform="translate(904.149609 357.314844) scale(0.15 -0.15)">
      <defs>
       <path id="DejaVuSans-54" d="M -19 4666 
L 3928 4666 
L 3928 4134 
L 2272 4134 
L 2272 0 
L 1638 0 
L 1638 4134 
L -19 4134 
L -19 4666 
z
" transform="scale(0.015625)"/>
       <path id="DejaVuSans-69" d="M 603 3500 
L 1178 3500 
L 1178 0 
L 603 0 
L 603 3500 
z
M 603 4863 
L 1178 4863 
L 1178 4134 
L 603 4134 
L 603 4863 
z
" transform="scale(0.015625)"/>
       <path id="DejaVuSans-6d" d="M 3328 2828 
Q 3544 3216 3844 3400 
Q 4144 3584 4550 3584 
Q 5097 3584 5394 3201 
Q 5691 2819 5691 2113 
L 5691 0 
L 5113 0 
L 5113 2094 
Q 5113 2597 4934 2840 
Q 4756 3084 4391 3084 
Q 3944 3084 3684 2787 
Q 3425 2491 3425 1978 
L 3425 0 
L 2847 0 
L 2847 2094 
Q 2847 2600 2669 2842 
Q 2491 3084 2119 3084 
Q 1678 3084 1418 2786 
Q 1159 2488 1159 1978 
L 1159 0 
L 581 0 
L 581 3500 
L 1159 3500 
L 1159 2956 
Q 1356 3278 1631 3431 
Q 1906 3584 2284 3584 
Q 2666 3584 2933 3390 
Q 3200 3197 3328 2828 
z
" transform="scale(0.015625)"/>
       <path id="DejaVuSans-65" d="M 3597 1894 
L 3597 1613 
L 953 1613 
Q 991 1019 1311 708 
Q 1631 397 2203 397 
Q 2534 397 2845 478 
Q 3156 559 3463 722 
L 3463 178 
Q 3153 47 2828 -22 
Q 2503 -91 2169 -91 
Q 1331 -91 842 396 
Q 353 884 353 1716 
Q 353 2575 817 3079 
Q 1281 3584 2069 3584 
Q 2775 3584 3186 3129 
Q 3597 2675 3597 1894 
z
M 3022 2063 
Q 3016 2534 2758 2815 
Q 2500 3097 2075 3097 
Q 1594 3097 1305 2825 
Q 1016 2553 972 2059 
L 3022 2063 
z
" transform="scale(0.015625)"/>
      </defs>
      <use xlink:href="#DejaVuSans-54"/>
      <use xlink:href="#DejaVuSans-69" x="57.958984"/>
      <use xlink:href="#DejaVuSans-6d" x="85.742188"/>
      <use xlink:href="#DejaVuSans-65" x="183.154297"/>
     </g>
    </g>
   </g>
   <g id="matplotlib.axis_2">
    <g id="ytick_1">
     <g id="line2d_9">
      <defs>
       <path id="m2c3d1e8196" d="M 0 0 
L -3.5 0 
" style="stroke: #000000; stroke-width: 0.8"/>
      </defs>
      <g>
       <use xlink:href="#m2c3d1e8196" x="225" y="304.957976" style="stroke: #000000; stroke-width: 0.8"/>
      </g>
     </g>
     <g id="text_10">
      <!-- −0.006 -->
      <g transform="translate(162.488281 310.656804) scale(0.15 -0.15)">
       <defs>
        <path id="DejaVuSans-2212" d="M 678 2272 
L 4684 2272 
L 4684 1741 
L 678 1741 
L 678 2272 
z
" transform="scale(0.015625)"/>
        <path id="DejaVuSans-2e" d="M 684 794 
L 1344 794 
L 1344 0 
L 684 0 
L 684 794 
z
" transform="scale(0.015625)"/>
       </defs>
       <use xlink:href="#DejaVuSans-2212"/>
       <use xlink:href="#DejaVuSans-30" x="83.789062"/>
       <use xlink:href="#DejaVuSans-2e" x="147.412109"/>
       <use xlink:href="#DejaVuSans-30" x="179.199219"/>
       <use xlink:href="#DejaVuSans-30" x="242.822266"/>
       <use xlink:href="#DejaVuSans-36" x="306.445312"/>
      </g>
     </g>
    </g>
    <g id="ytick_2">
     <g id="line2d_10">
      <g>
       <use xlink:href="#m2c3d1e8196" x="225" y="271.384915" style="stroke: #000000; stroke-width: 0.8"/>
      </g>
     </g>
     <g id="text_11">
      <!-- −0.004 -->
      <g transform="translate(162.488281 277.083743) scale(0.15 -0.15)">
       <use xlink:href="#DejaVuSans-2212"/>
       <use xlink:href="#DejaVuSans-30" x="83.789062"/>
       <use xlink:href="#DejaVuSans-2e" x="147.412109"/>
       <use xlink:href="#DejaVuSans-30" x="179.199219"/>
       <use xlink:href="#DejaVuSans-30" x="242.822266"/>
       <use xlink:href="#DejaVuSans-34" x="306.445312"/>
      </g>
     </g>
    </g>
    <g id="ytick_3">
     <g id="line2d_11">
      <g>
       <use xlink:href="#m2c3d1e8196" x="225" y="237.811853" style="stroke: #000000; stroke-width: 0.8"/>
      </g>
     </g>
     <g id="text_12">
      <!-- −0.002 -->
      <g transform="translate(162.488281 243.510681) scale(0.15 -0.15)">
       <use xlink:href="#DejaVuSans-2212"/>
       <use xlink:href="#DejaVuSans-30" x="83.789062"/>
       <use xlink:href="#DejaVuSans-2e" x="147.412109"/>
       <use xlink:href="#DejaVuSans-30" x="179.199219"/>
       <use xlink:href="#DejaVuSans-30" x="242.822266"/>
       <use xlink:href="#DejaVuSans-32" x="306.445312"/>
      </g>
     </g>
    </g>
    <g id="ytick_4">
     <g id="line2d_12">
      <g>
       <use xlink:href="#m2c3d1e8196" x="225" y="204.238792" style="stroke: #000000; stroke-width: 0.8"/>
      </g>
     </g>
     <g id="text_13">
      <!-- 0.000 -->
      <g transform="translate(175.057813 209.93762) scale(0.15 -0.15)">
       <use xlink:href="#DejaVuSans-30"/>
       <use xlink:href="#DejaVuSans-2e" x="63.623047"/>
       <use xlink:href="#DejaVuSans-30" x="95.410156"/>
       <use xlink:href="#DejaVuSans-30" x="159.033203"/>
       <use xlink:href="#DejaVuSans-30" x="222.65625"/>
      </g>
     </g>
    </g>
    <g id="ytick_5">
     <g id="line2d_13">
      <g>
       <use xlink:href="#m2c3d1e8196" x="225" y="170.66573" style="stroke: #000000; stroke-width: 0.8"/>
      </g>
     </g>
     <g id="text_14">
      <!-- 0.002 -->
      <g transform="translate(175.057813 176.364559) scale(0.15 -0.15)">
       <use xlink:href="#DejaVuSans-30"/>
       <use xlink:href="#DejaVuSans-2e" x="63.623047"/>
       <use xlink:href="#DejaVuSans-30" x="95.410156"/>
       <use xlink:href="#DejaVuSans-30" x="159.033203"/>
       <use xlink:href="#DejaVuSans-32" x="222.65625"/>
      </g>
     </g>
    </g>
    <g id="ytick_6">
     <g id="line2d_14">
      <g>
       <use xlink:href="#m2c3d1e8196" x="225" y="137.092669" style="stroke: #000000; stroke-width: 0.8"/>
      </g>
     </g>
     <g id="text_15">
      <!-- 0.004 -->
      <g transform="translate(175.057813 142.791497) scale(0.15 -0.15)">
       <use xlink:href="#DejaVuSans-30"/>
       <use xlink:href="#DejaVuSans-2e" x="63.623047"/>
       <use xlink:href="#DejaVuSans-30" x="95.410156"/>
       <use xlink:href="#DejaVuSans-30" x="159.033203"/>
       <use xlink:href="#DejaVuSans-34" x="222.65625"/>
      </g>
     </g>
    </g>
    <g id="ytick_7">
     <g id="line2d_15">
      <g>
       <use xlink:href="#m2c3d1e8196" x="225" y="103.519608" style="stroke: #000000; stroke-width: 0.8"/>
      </g>
     </g>
     <g id="text_16">
      <!-- 0.006 -->
      <g transform="translate(175.057813 109.218436) scale(0.15 -0.15)">
       <use xlink:href="#DejaVuSans-30"/>
       <use xlink:href="#DejaVuSans-2e" x="63.623047"/>
       <use xlink:href="#DejaVuSans-30" x="95.410156"/>
       <use xlink:href="#DejaVuSans-30" x="159.033203"/>
       <use xlink:href="#DejaVuSans-36" x="222.65625"/>
      </g>
     </g>
    </g>
    <g id="ytick_8">
     <g id="line2d_16">
      <g>
       <use xlink:href="#m2c3d1e8196" x="225" y="69.946546" style="stroke: #000000; stroke-width: 0.8"/>
      </g>
     </g>
     <g id="text_17">
      <!-- 0.008 -->
      <g transform="translate(175.057813 75.645374) scale(0.15 -0.15)">
       <use xlink:href="#DejaVuSans-30"/>
       <use xlink:href="#DejaVuSans-2e" x="63.623047"/>
       <use xlink:href="#DejaVuSans-30" x="95.410156"/>
       <use xlink:href="#DejaVuSans-30" x="159.033203"/>
       <use xlink:href="#DejaVuSans-38" x="222.65625"/>
      </g>
     </g>
    </g>
    <g id="text_18">
     <!-- East(m) -->
     <g transform="translate(155.36875 211.140234) rotate(-90) scale(0.15 -0.15)">
      <defs>
       <path id="DejaVuSans-45" d="M 628 4666 
L 3578 4666 
L 3578 4134 
L 1259 4134 
L 1259 2753 
L 3481 2753 
L 3481 2222 
L 1259 2222 
L 1259 531 
L 3634 531 
L 3634 0 
L 628 0 
L 628 4666 
z
" transform="scale(0.015625)"/>
       <path id="DejaVuSans-61" d="M 2194 1759 
Q 1497 1759 1228 1600 
Q 959 1441 959 1056 
Q 959 750 1161 570 
Q 1363 391 1709 391 
Q 2188 391 2477 730 
Q 2766 1069 2766 1631 
L 2766 1759 
L 2194 1759 
z
M 3341 1997 
L 3341 0 
L 2766 0 
L 2766 531 
Q 2569 213 2275 61 
Q 1981 -91 1556 -91 
Q 1019 -91 701 211 
Q 384 513 384 1019 
Q 384 1609 779 1909 
Q 1175 2209 1959 2209 
L 2766 2209 
L 2766 2266 
Q 2766 2663 2505 2880 
Q 2244 3097 1772 3097 
Q 1472 3097 1187 3025 
Q 903 2953 641 2809 
L 641 3341 
Q 956 3463 1253 3523 
Q 1550 3584 1831 3584 
Q 2591 3584 2966 3190 
Q 3341 2797 3341 1997 
z
" transform="scale(0.015625)"/>
       <path id="DejaVuSans-73" d="M 2834 3397 
L 2834 2853 
Q 2591 2978 2328 3040 
Q 2066 3103 1784 3103 
Q 1356 3103 1142 2972 
Q 928 2841 928 2578 
Q 928 2378 1081 2264 
Q 1234 2150 1697 2047 
L 1894 2003 
Q 2506 1872 2764 1633 
Q 3022 1394 3022 966 
Q 3022 478 2636 193 
Q 2250 -91 1575 -91 
Q 1294 -91 989 -36 
Q 684 19 347 128 
L 347 722 
Q 666 556 975 473 
Q 1284 391 1588 391 
Q 1994 391 2212 530 
Q 2431 669 2431 922 
Q 2431 1156 2273 1281 
Q 2116 1406 1581 1522 
L 1381 1569 
Q 847 1681 609 1914 
Q 372 2147 372 2553 
Q 372 3047 722 3315 
Q 1072 3584 1716 3584 
Q 2034 3584 2315 3537 
Q 2597 3491 2834 3397 
z
" transform="scale(0.015625)"/>
       <path id="DejaVuSans-74" d="M 1172 4494 
L 1172 3500 
L 2356 3500 
L 2356 3053 
L 1172 3053 
L 1172 1153 
Q 1172 725 1289 603 
Q 1406 481 1766 481 
L 2356 481 
L 2356 0 
L 1766 0 
Q 1100 0 847 248 
Q 594 497 594 1153 
L 594 3053 
L 172 3053 
L 172 3500 
L 594 3500 
L 594 4494 
L 1172 4494 
z
" transform="scale(0.015625)"/>
       <path id="DejaVuSans-28" d="M 1984 4856 
Q 1566 4138 1362 3434 
Q 1159 2731 1159 2009 
Q 1159 1288 1364 580 
Q 1569 -128 1984 -844 
L 1484 -844 
Q 1016 -109 783 600 
Q 550 1309 550 2009 
Q 550 2706 781 3412 
Q 1013 4119 1484 4856 
L 1984 4856 
z
" transform="scale(0.015625)"/>
       <path id="DejaVuSans-29" d="M 513 4856 
L 1013 4856 
Q 1481 4119 1714 3412 
Q 1947 2706 1947 2009 
Q 1947 1309 1714 600 
Q 1481 -109 1013 -844 
L 513 -844 
Q 928 -128 1133 580 
Q 1338 1288 1338 2009 
Q 1338 2731 1133 3434 
Q 928 4138 513 4856 
z
" transform="scale(0.015625)"/>
      </defs>
      <use xlink:href="#DejaVuSans-45"/>
      <use xlink:href="#DejaVuSans-61" x="63.183594"/>
      <use xlink:href="#DejaVuSans-73" x="124.462891"/>
      <use xlink:href="#DejaVuSans-74" x="176.5625"/>
      <use xlink:href="#DejaVuSans-28" x="215.771484"/>
      <use xlink:href="#DejaVuSans-6d" x="254.785156"/>
      <use xlink:href="#DejaVuSans-29" x="352.197266"/>
     </g>
    </g>
   </g>
   <g id="line2d_17">
    <path d="M 288.409091 60.201432 
L 288.872269 55.8 
L 289.335447 66.489659 
L 289.798625 69.96111 
L 290.261804 72.22393 
L 290.724982 77.32927 
L 291.651338 80.047397 
L 292.114516 83.642585 
L 292.577694 82.062725 
L 293.040873 81.684301 
L 293.504051 84.353831 
L 293.967229 82.267977 
L 294.430407 85.316404 
L 296.28312 108.219915 
L 296.746298 109.733573 
L 297.209476 114.534993 
L 297.672654 116.307643 
L 298.135832 116.02754 
L 299.062189 120.064446 
L 299.988545 125.95986 
L 300.451723 125.718126 
L 300.914901 127.179026 
L 301.37808 130.428891 
L 301.841258 131.671566 
L 302.304436 136.79193 
L 302.767614 138.231247 
L 303.230792 142.001495 
L 303.69397 143.980379 
L 304.157149 143.095961 
L 304.620327 143.902186 
L 305.546683 135.776051 
L 306.009861 133.582284 
L 306.473039 130.402907 
L 306.936218 126.384204 
L 307.862574 121.768852 
L 308.78893 126.932853 
L 309.252108 127.691117 
L 309.715287 129.423 
L 311.567999 159.242563 
L 312.031177 159.533202 
L 312.957534 165.18641 
L 313.420712 168.508217 
L 313.88389 168.882789 
L 314.347068 169.406041 
L 315.273425 166.956152 
L 315.736603 164.899075 
L 316.199781 159.201719 
L 317.589315 111.584543 
L 318.515672 89.304964 
L 318.97885 82.360609 
L 319.442028 78.15006 
L 320.831563 107.050687 
L 321.294741 118.084706 
L 321.757919 124.317777 
L 322.221097 123.459738 
L 322.684275 125.644857 
L 323.147453 124.112958 
L 324.07381 116.3897 
L 324.536988 113.181547 
L 325.000166 115.793523 
L 325.463344 124.779585 
L 326.389701 138.013111 
L 327.779235 170.124762 
L 328.242413 176.206755 
L 328.705591 177.202428 
L 329.16877 181.329988 
L 329.631948 182.069068 
L 330.095126 180.93525 
L 330.558304 175.722305 
L 331.48466 169.610554 
L 331.947839 168.951555 
L 332.411017 166.836924 
L 333.337373 160.041721 
L 333.800551 159.315576 
L 334.263729 161.9923 
L 334.726907 165.757751 
L 335.190086 173.057966 
L 335.653264 175.76107 
L 336.116442 182.298696 
L 336.57962 186.536568 
L 337.042798 187.311618 
L 337.505976 185.988353 
L 337.969155 183.374922 
L 338.432333 179.819047 
L 338.895511 177.615688 
L 339.358689 171.822408 
L 339.821867 169.266532 
L 340.285045 168.806573 
L 341.211402 171.826694 
L 341.67458 169.985444 
L 342.137758 170.580639 
L 342.600936 177.852077 
L 343.064114 182.161891 
L 343.527293 184.361398 
L 343.990471 188.023732 
L 344.916827 192.962314 
L 345.380005 193.993959 
L 345.843183 192.999229 
L 346.306362 187.990121 
L 346.76954 185.995394 
L 347.232718 182.094196 
L 347.695896 182.425603 
L 348.159074 181.234231 
L 348.622252 182.79585 
L 349.085431 183.388647 
L 349.548609 187.79918 
L 350.011787 195.545437 
L 350.474965 199.322878 
L 350.938143 201.129101 
L 351.401321 208.203897 
L 351.8645 211.010118 
L 352.790856 222.277222 
L 353.254034 231.774074 
L 353.717212 233.978378 
L 354.18039 241.981229 
L 354.643569 242.190333 
L 355.106747 241.720782 
L 355.569925 239.193682 
L 356.033103 234.776899 
L 356.496281 222.453659 
L 356.959459 220.372601 
L 357.422638 214.96781 
L 357.885816 212.913131 
L 358.348994 214.081466 
L 358.812172 212.456043 
L 359.27535 218.279043 
L 359.738528 216.663211 
L 360.201707 217.227231 
L 360.664885 219.371583 
L 361.128063 222.122648 
L 362.054419 230.149951 
L 362.517597 232.056894 
L 363.443954 244.839582 
L 363.907132 243.720152 
L 364.37031 248.097113 
L 364.833488 246.733079 
L 365.296666 244.923004 
L 365.759845 244.136907 
L 366.223023 241.787265 
L 366.686201 240.428028 
L 367.149379 242.951276 
L 367.612557 238.891805 
L 368.075735 239.201629 
L 369.002092 232.893235 
L 369.46527 236.332548 
L 369.928448 231.40977 
L 370.391626 228.635668 
L 370.854804 228.055806 
L 371.317983 229.547881 
L 372.244339 243.879726 
L 372.707517 244.378998 
L 373.170695 249.449002 
L 373.633873 247.152117 
L 374.097052 254.857607 
L 374.56023 255.287335 
L 375.023408 256.882527 
L 375.486586 253.863821 
L 375.949764 254.087314 
L 376.412942 250.2077 
L 376.876121 250.188987 
L 377.339299 235.781819 
L 377.802477 229.259525 
L 378.265655 219.631723 
L 378.728833 223.40197 
L 379.192011 220.448012 
L 379.65519 221.834572 
L 380.118368 226.372204 
L 381.044724 240.581747 
L 381.507902 245.301632 
L 381.97108 241.805709 
L 382.434259 245.671879 
L 382.897437 244.216719 
L 383.360615 234.795151 
L 383.823793 237.539022 
L 384.286971 237.575465 
L 384.750149 238.336127 
L 385.213328 235.283849 
L 385.676506 233.075693 
L 386.139684 236.100138 
L 386.602862 246.7073 
L 387.06604 248.372036 
L 387.529218 246.554767 
L 387.992397 250.826212 
L 388.918753 256.134097 
L 389.381931 256.901954 
L 389.845109 256.880843 
L 390.308287 247.279419 
L 391.234644 238.700048 
L 391.697822 237.199324 
L 392.161 238.847274 
L 392.624178 242.713445 
L 393.087356 242.07363 
L 393.550535 247.956582 
L 394.013713 252.328746 
L 394.476891 252.468307 
L 394.940069 251.981969 
L 395.403247 246.18869 
L 395.866425 237.77911 
L 396.329604 243.309545 
L 396.792782 243.696107 
L 397.719138 248.814545 
L 398.182316 248.208304 
L 398.645494 249.937788 
L 399.108673 251.142094 
L 399.571851 241.730119 
L 400.035029 242.306129 
L 400.498207 242.052405 
L 400.961385 244.357427 
L 402.35092 258.037468 
L 402.814098 266.644634 
L 403.277276 265.556379 
L 403.740454 262.427362 
L 404.203632 255.384686 
L 405.129989 250.416816 
L 405.593167 250.014412 
L 406.056345 243.659983 
L 406.519523 243.152063 
L 406.982701 246.106964 
L 407.44588 250.997112 
L 408.835414 257.847433 
L 409.298592 263.504966 
L 409.76177 267.064182 
L 410.224949 268.721724 
L 410.688127 269.194617 
L 411.151305 264.933709 
L 411.614483 267.38981 
L 412.077661 263.351922 
L 412.540839 261.26367 
L 413.004018 259.947599 
L 413.930374 265.274669 
L 414.393552 270.869852 
L 414.85673 264.824775 
L 415.319908 267.496703 
L 415.783087 268.679426 
L 416.246265 269.370544 
L 416.709443 266.282294 
L 417.172621 262.294766 
L 417.635799 261.28325 
L 418.098977 262.190195 
L 419.025334 260.727841 
L 419.488512 256.438155 
L 419.95169 245.623305 
L 420.878046 214.96485 
L 421.341225 202.713552 
L 422.267581 187.026284 
L 422.730759 181.551949 
L 423.193937 184.336587 
L 424.120294 200.522144 
L 424.583472 202.731244 
L 425.04665 203.825239 
L 425.509828 200.144664 
L 427.362541 143.045969 
L 427.825719 132.365411 
L 428.288897 124.413864 
L 428.752075 120.627774 
L 429.215253 125.942382 
L 429.678432 136.120288 
L 430.14161 142.372543 
L 431.067966 158.52213 
L 432.920679 174.425658 
L 433.847035 170.994956 
L 434.310213 171.110535 
L 434.773391 171.480311 
L 435.236569 172.66783 
L 435.699748 174.545996 
L 436.162926 169.803074 
L 436.626104 175.791541 
L 437.55246 176.526296 
L 439.405173 183.784289 
L 439.868351 183.132485 
L 440.331529 181.403944 
L 440.794707 180.845664 
L 441.257886 178.927676 
L 441.721064 178.242298 
L 442.184242 175.976588 
L 442.64742 174.339174 
L 443.110598 176.780887 
L 443.573776 175.308941 
L 444.036955 180.628345 
L 444.500133 184.06526 
L 444.963311 186.005775 
L 445.426489 186.586581 
L 445.889667 186.745326 
L 446.352845 190.234998 
L 446.816024 197.259434 
L 447.279202 195.372621 
L 447.74238 196.329925 
L 448.205558 196.306416 
L 448.668736 199.155802 
L 449.595093 207.619556 
L 450.058271 208.720744 
L 450.521449 213.548543 
L 450.984627 216.949486 
L 451.447805 216.94756 
L 451.910983 217.746591 
L 452.374162 223.226667 
L 452.83734 224.260709 
L 453.300518 230.987784 
L 453.763696 230.489456 
L 454.226874 228.458758 
L 455.153231 231.476481 
L 455.616409 231.146019 
L 456.079587 230.17527 
L 457.469121 227.736899 
L 457.9323 228.850078 
L 458.858656 228.064453 
L 459.321834 228.30713 
L 459.785012 229.609758 
L 460.711369 227.143081 
L 461.174547 229.19151 
L 462.100903 234.95503 
L 463.027259 227.30851 
L 463.490438 227.160302 
L 463.953616 224.712338 
L 464.416794 221.127687 
L 464.879972 220.049025 
L 465.806328 224.27298 
L 466.269507 222.597197 
L 466.732685 225.782314 
L 467.659041 228.732891 
L 468.122219 231.337673 
L 468.585397 230.760209 
L 469.048576 234.856594 
L 469.974932 240.373112 
L 470.901288 250.803288 
L 471.364466 254.611904 
L 471.827645 261.741856 
L 472.290823 263.689565 
L 472.754001 269.313525 
L 473.217179 266.908727 
L 473.680357 265.633423 
L 474.143535 259.058371 
L 475.53307 259.663158 
L 476.459426 259.278011 
L 477.385783 253.563869 
L 478.312139 256.787826 
L 478.775317 262.234329 
L 479.238495 262.666454 
L 479.701673 259.772449 
L 480.164852 258.139831 
L 480.62803 264.81175 
L 481.091208 264.824212 
L 482.017564 257.122537 
L 482.480742 254.614621 
L 482.943921 250.571937 
L 483.407099 254.586788 
L 483.870277 251.834269 
L 484.333455 254.036175 
L 484.796633 255.125373 
L 485.259811 264.420787 
L 485.72299 266.05195 
L 486.186168 269.016444 
L 486.649346 269.875427 
L 487.112524 267.86871 
L 487.575702 261.591019 
L 488.03888 257.713802 
L 488.502059 250.644747 
L 489.428415 247.576154 
L 489.891593 243.941143 
L 490.354771 247.272542 
L 492.207484 273.528564 
L 492.670662 277.521832 
L 493.13384 279.651795 
L 493.597018 279.086321 
L 494.060197 274.472895 
L 494.523375 271.593278 
L 494.986553 270.533801 
L 495.912909 260.064746 
L 496.376087 263.355378 
L 496.839266 261.439787 
L 497.302444 263.147689 
L 497.765622 261.893967 
L 498.2288 253.841701 
L 499.155156 256.749112 
L 499.618335 251.756791 
L 500.081513 248.682929 
L 500.544691 243.721782 
L 501.007869 241.971659 
L 501.471047 242.674767 
L 501.934225 240.658457 
L 502.860582 233.479562 
L 503.32376 231.499224 
L 503.786938 230.705932 
L 504.250116 227.437827 
L 504.713294 225.395138 
L 505.176473 221.378833 
L 505.639651 221.85892 
L 506.566007 218.31311 
L 507.029185 219.488639 
L 508.41872 227.302986 
L 508.881898 227.353818 
L 509.808254 233.879926 
L 510.271432 234.635792 
L 511.660967 231.327863 
L 512.124145 238.891866 
L 512.587323 238.37915 
L 513.050501 240.904796 
L 514.440036 242.794951 
L 514.903214 241.93931 
L 515.366392 244.769512 
L 515.82957 245.539766 
L 516.755927 237.495165 
L 517.219105 231.486059 
L 517.682283 228.699967 
L 518.145461 231.295157 
L 518.608639 231.211697 
L 519.071818 228.641431 
L 519.534996 227.634711 
L 519.998174 232.827017 
L 520.461352 235.784317 
L 520.92453 237.619317 
L 521.387708 238.017869 
L 521.850887 234.89125 
L 522.777243 239.211129 
L 523.240421 239.892654 
L 523.703599 238.564592 
L 524.166777 240.761702 
L 524.629956 241.085914 
L 525.556312 250.667171 
L 526.482668 241.869574 
L 526.945846 244.057092 
L 527.409025 241.467642 
L 527.872203 240.933343 
L 528.335381 235.900253 
L 528.798559 236.301204 
L 529.724915 244.810521 
L 530.188093 247.324176 
L 530.651272 246.204747 
L 531.11445 247.682434 
L 531.577628 253.303995 
L 532.040806 253.033485 
L 532.503984 253.247385 
L 533.430341 262.823846 
L 533.893519 267.860277 
L 534.356697 268.479453 
L 534.819875 266.568658 
L 535.283053 267.561934 
L 535.746231 271.082781 
L 536.20941 271.272701 
L 536.672588 259.146103 
L 537.135766 262.472706 
L 537.598944 266.643432 
L 538.5253 271.183934 
L 538.988479 268.54892 
L 539.451657 263.712473 
L 539.914835 271.451536 
L 540.378013 272.574307 
L 540.841191 275.01602 
L 541.304369 274.589635 
L 541.767548 274.57332 
L 542.230726 279.782413 
L 543.157082 286.661038 
L 543.62026 284.081181 
L 544.083438 285.635606 
L 544.546617 290.235587 
L 545.009795 288.662921 
L 545.472973 289.104639 
L 545.936151 298.858086 
L 546.399329 298.815392 
L 546.862507 307.643181 
L 547.325686 303.602895 
L 547.788864 307.8 
L 548.252042 291.498353 
L 548.71522 289.705064 
L 549.178398 283.336246 
L 549.641576 286.49978 
L 550.104755 270.207725 
L 550.567933 260.17225 
L 551.031111 256.383762 
L 551.494289 269.36262 
L 551.957467 250.670091 
L 552.420645 254.711321 
L 552.883824 255.572702 
L 553.81018 274.321803 
L 554.273358 267.267136 
L 554.736536 265.603343 
L 555.199714 280.140951 
L 555.662893 272.402832 
L 556.126071 269.868538 
L 556.589249 265.763504 
L 557.052427 266.051745 
L 557.978783 277.472326 
L 558.441962 280.376868 
L 558.90514 281.511629 
L 559.368318 279.322658 
L 559.831496 282.013771 
L 560.294674 282.644937 
L 560.757852 282.935576 
L 561.221031 285.45163 
L 561.684209 283.910139 
L 562.147387 284.258332 
L 562.610565 288.148483 
L 563.073743 284.96431 
L 563.536921 280.820907 
L 564.463278 287.13695 
L 564.926456 289.201205 
L 565.389634 295.19111 
L 565.852812 298.348888 
L 566.31599 297.928736 
L 567.242347 305.67834 
L 568.168703 300.895123 
L 568.631881 296.943566 
L 569.095059 297.780966 
L 569.558238 297.368969 
L 570.021416 299.064881 
L 570.484594 299.403481 
L 571.41095 291.07351 
L 571.874128 289.093171 
L 572.337307 283.578069 
L 572.800485 283.631299 
L 573.263663 281.559833 
L 573.726841 283.9344 
L 574.653197 285.069634 
L 575.116376 283.48258 
L 575.579554 281.046606 
L 576.042732 271.354056 
L 576.50591 271.838939 
L 576.969088 264.901778 
L 577.432266 262.288347 
L 577.895445 261.063402 
L 578.358623 257.824074 
L 578.821801 257.455242 
L 579.284979 263.777042 
L 579.748157 261.319486 
L 580.211335 264.648487 
L 580.674514 263.545844 
L 581.137692 264.886841 
L 581.60087 270.942454 
L 582.064048 273.880569 
L 582.527226 273.214376 
L 582.990404 271.874323 
L 583.453583 272.503091 
L 583.916761 270.963999 
L 584.843117 256.881043 
L 585.306295 250.399516 
L 585.769473 247.829251 
L 586.69583 239.216306 
L 587.159008 239.511742 
L 587.622186 243.895896 
L 588.085364 247.17214 
L 588.548542 253.810486 
L 589.011721 257.698238 
L 589.474899 263.046419 
L 590.401255 266.231536 
L 591.327611 265.479484 
L 591.79079 262.647829 
L 592.253968 254.624339 
L 593.643502 226.4028 
L 594.10668 210.26662 
L 594.569859 201.885817 
L 595.033037 196.034984 
L 595.496215 192.721315 
L 595.959393 194.920823 
L 596.422571 193.00763 
L 596.885749 186.252723 
L 597.348928 182.030183 
L 597.812106 171.488714 
L 598.738462 147.492113 
L 599.20164 134.780385 
L 599.664818 127.107014 
L 600.127997 122.332917 
L 600.591175 128.820184 
L 601.517531 132.393789 
L 602.443887 141.900706 
L 602.907066 146.968312 
L 603.833422 152.957251 
L 604.2966 148.82344 
L 604.759778 148.305928 
L 605.222956 142.277637 
L 606.149313 122.777429 
L 606.612491 119.379827 
L 607.075669 120.478618 
L 607.538847 123.730881 
L 608.002025 124.15821 
L 608.465204 127.95004 
L 609.39156 140.373017 
L 610.317916 139.848782 
L 610.781094 136.942786 
L 611.244273 136.653091 
L 612.170629 133.709197 
L 612.633807 128.819993 
L 613.096985 127.002723 
L 613.560163 124.322147 
L 614.023342 125.938922 
L 614.949698 132.018988 
L 615.876054 142.096646 
L 616.339232 144.010783 
L 616.802411 147.538824 
L 617.265589 147.649608 
L 617.728767 145.851523 
L 618.655123 155.698966 
L 619.118301 157.368499 
L 619.58148 159.894144 
L 620.044658 160.474951 
L 620.507836 163.712825 
L 620.971014 164.226485 
L 621.434192 165.38283 
L 621.89737 165.764596 
L 622.360549 179.777025 
L 622.823727 183.988518 
L 623.286905 191.430219 
L 623.750083 195.176485 
L 624.213261 202.04025 
L 624.676439 206.594668 
L 625.139618 207.506409 
L 625.602796 194.478135 
L 626.065974 197.157258 
L 626.529152 194.666129 
L 626.99233 197.445971 
L 627.455508 198.108311 
L 627.918686 197.530847 
L 628.381865 197.550504 
L 629.308221 206.628165 
L 629.771399 209.717358 
L 630.697755 207.525989 
L 631.160934 208.538449 
L 631.624112 205.546122 
L 632.08729 206.836759 
L 632.550468 207.415167 
L 633.013646 207.422833 
L 633.476824 206.747048 
L 633.940003 208.694757 
L 634.403181 208.764773 
L 634.866359 218.906708 
L 635.792715 230.876448 
L 636.255893 229.601144 
L 636.719072 229.800656 
L 637.645428 235.686478 
L 638.108606 230.310464 
L 638.571784 222.91527 
L 639.498141 213.127269 
L 639.961319 213.060595 
L 640.887675 205.852923 
L 641.350853 201.462518 
L 641.814031 202.096082 
L 642.27721 203.715255 
L 642.740388 207.682144 
L 643.203566 207.941608 
L 643.666744 207.733448 
L 644.129922 205.928168 
L 644.5931 211.283544 
L 645.056279 214.773216 
L 645.519457 216.212533 
L 646.908991 224.573642 
L 647.372169 225.811521 
L 647.835348 225.828779 
L 648.298526 226.692558 
L 648.761704 224.78656 
L 649.224882 224.674322 
L 649.68806 220.648425 
L 650.151238 209.823983 
L 650.614417 209.658988 
L 651.077595 202.856118 
L 651.540773 199.451323 
L 652.003951 193.780345 
L 652.467129 182.845592 
L 652.930307 178.272933 
L 653.393486 184.306964 
L 653.856664 182.038856 
L 654.319842 181.123263 
L 654.78302 176.672906 
L 655.246198 177.174576 
L 655.709376 181.666644 
L 656.172555 183.962074 
L 656.635733 184.509308 
L 657.098911 186.130879 
L 657.562089 186.462285 
L 659.414802 203.06845 
L 659.87798 203.044941 
L 660.341158 205.409916 
L 660.804336 210.736514 
L 661.267514 206.677044 
L 661.730693 201.11398 
L 662.193871 193.299123 
L 662.657049 187.733661 
L 663.120227 185.237736 
L 663.583405 180.240618 
L 664.046583 173.59842 
L 664.509762 170.740385 
L 664.97294 169.189302 
L 665.436118 169.966751 
L 665.899296 167.509195 
L 666.362474 166.322619 
L 666.825652 167.493352 
L 667.288831 161.321177 
L 668.215187 158.701024 
L 668.678365 154.2099 
L 669.141543 155.740344 
L 669.604721 154.076552 
L 670.0679 150.163364 
L 670.531078 162.900017 
L 670.994256 167.703834 
L 671.920612 188.184346 
L 672.38379 189.798723 
L 672.846969 188.173299 
L 673.310147 189.72053 
L 673.773325 186.030363 
L 674.236503 187.273039 
L 674.699681 175.415026 
L 675.162859 169.257239 
L 675.626038 168.521502 
L 676.089216 174.35889 
L 676.552394 176.762234 
L 677.015572 175.367026 
L 677.47875 175.338721 
L 677.941928 183.861954 
L 678.405107 188.140593 
L 678.868285 186.95162 
L 679.331463 186.637944 
L 679.794641 178.693591 
L 680.257819 176.905098 
L 681.184176 171.352098 
L 681.647354 173.366954 
L 682.110532 171.921386 
L 682.57371 171.78277 
L 683.036888 175.764048 
L 683.500066 171.505537 
L 684.426423 154.108441 
L 684.889601 140.653309 
L 685.352779 138.382803 
L 685.815957 131.831732 
L 686.279135 126.932935 
L 686.742314 132.916606 
L 687.205492 133.782784 
L 687.66867 136.610587 
L 688.595026 139.448455 
L 689.058204 139.115594 
L 689.521383 142.761141 
L 689.984561 133.790412 
L 690.910917 139.870478 
L 691.374095 140.825384 
L 691.837273 138.773103 
L 692.300452 141.576925 
L 692.76363 140.618167 
L 693.689986 145.036367 
L 694.153164 141.564425 
L 694.616342 145.658412 
L 695.079521 146.416676 
L 695.542699 146.65216 
L 696.005877 151.690989 
L 696.469055 150.936067 
L 696.932233 149.303449 
L 697.85859 158.805569 
L 698.321768 166.73408 
L 698.784946 166.084673 
L 699.248124 164.564765 
L 700.17448 181.764709 
L 701.100837 190.97906 
L 701.564015 191.794878 
L 702.027193 202.073503 
L 702.490371 206.61593 
L 702.953549 204.573242 
L 703.416728 204.237983 
L 703.879906 204.051405 
L 704.343084 201.845647 
L 704.806262 202.201034 
L 705.26944 200.995274 
L 706.195797 212.715615 
L 706.658975 212.96069 
L 707.122153 217.946762 
L 708.048509 223.669515 
L 708.511687 229.068055 
L 708.974866 230.761569 
L 709.438044 235.356754 
L 709.901222 236.983121 
L 710.3644 235.844507 
L 710.827578 238.828186 
L 711.290756 240.449757 
L 711.753935 237.94424 
L 712.217113 237.44831 
L 712.680291 239.029114 
L 713.143469 246.319736 
L 713.606647 245.591193 
L 714.069825 237.529334 
L 714.996182 235.302466 
L 715.922538 228.24827 
L 716.385716 226.306301 
L 716.848894 226.054975 
L 717.312073 232.276056 
L 717.775251 234.13024 
L 718.238429 236.466438 
L 718.701607 238.020863 
L 719.164785 238.654427 
L 719.627963 236.218454 
L 720.091142 237.986308 
L 720.55432 243.780531 
L 721.017498 243.028007 
L 721.480676 241.030882 
L 722.407032 242.9335 
L 722.870211 245.324853 
L 723.333389 246.215012 
L 723.796567 238.81742 
L 724.259745 237.729165 
L 724.722923 243.214036 
L 725.186101 241.677342 
L 725.64928 237.661037 
L 726.112458 231.203491 
L 726.575636 221.873049 
L 727.038814 222.329156 
L 727.501992 222.567037 
L 727.96517 213.167052 
L 728.428348 216.954086 
L 729.817883 236.775598 
L 730.281061 237.615397 
L 730.744239 238.730974 
L 731.670596 244.201929 
L 732.133774 240.65085 
L 732.596952 241.692087 
L 733.06013 244.627804 
L 733.523308 243.285354 
L 733.986486 240.312211 
L 734.449665 243.111238 
L 734.912843 235.380313 
L 735.376021 235.397572 
L 736.302377 229.213878 
L 736.765555 229.259914 
L 737.691912 233.9443 
L 738.15509 234.551485 
L 738.618268 234.607112 
L 739.081446 234.300631 
L 739.544624 234.243549 
L 740.007803 235.001813 
L 740.470981 236.510674 
L 740.934159 235.475178 
L 741.397337 237.88092 
L 741.860515 238.598416 
L 742.323693 242.064108 
L 742.786872 242.105347 
L 743.25005 248.467914 
L 743.713228 253.13744 
L 744.176406 249.651109 
L 744.639584 252.924955 
L 745.102762 251.337901 
L 745.565941 249.158522 
L 746.029119 246.283701 
L 746.492297 239.701454 
L 746.955475 228.764303 
L 747.418653 226.716818 
L 747.881831 222.80363 
L 748.808188 219.063576 
L 749.271366 226.843406 
L 749.734544 226.628051 
L 750.197722 231.000215 
L 750.6609 231.451525 
L 751.124079 228.005962 
L 751.587257 229.246239 
L 752.050435 228.894194 
L 752.513613 220.743606 
L 752.976791 222.286041 
L 753.439969 227.085063 
L 753.903148 229.569941 
L 754.366326 234.831791 
L 754.829504 234.479746 
L 755.292682 236.192444 
L 755.75586 236.768454 
L 756.219038 236.732955 
L 756.682217 229.982844 
L 757.145395 229.338233 
L 757.608573 221.307549 
L 758.071751 220.691716 
L 758.534929 219.824084 
L 758.998107 217.256217 
L 759.461286 210.215939 
L 759.924464 208.8591 
L 760.387642 209.293623 
L 760.85082 212.047086 
L 761.313998 212.28257 
L 762.240355 215.288302 
L 762.703533 217.3751 
L 763.166711 217.423534 
L 763.629889 215.352068 
L 764.093067 218.537185 
L 765.482602 215.317513 
L 765.94578 224.38511 
L 766.408958 235.735674 
L 767.335314 244.328924 
L 767.798493 241.255063 
L 768.261671 239.639232 
L 768.724849 239.056971 
L 769.188027 229.640199 
L 769.651205 217.707846 
L 770.577562 203.802348 
L 771.04074 207.857966 
L 771.503918 216.700144 
L 771.967096 215.753376 
L 772.430274 219.163912 
L 772.893452 223.591232 
L 773.356631 225.409445 
L 773.819809 230.345157 
L 774.282987 229.213737 
L 774.746165 226.506782 
L 775.209343 229.667917 
L 775.672521 228.639615 
L 776.1357 231.373893 
L 776.598878 237.03862 
L 777.062056 240.988723 
L 777.525234 249.324907 
L 777.988412 247.114353 
L 778.45159 247.424176 
L 778.914769 248.99299 
L 779.377947 249.650535 
L 779.841125 247.005929 
L 780.304303 246.387697 
L 781.693838 235.913374 
L 782.157016 238.285543 
L 782.620194 239.242847 
L 783.083372 236.451959 
L 783.54655 234.438047 
L 784.009728 236.364174 
L 784.472907 235.889827 
L 784.936085 239.868707 
L 785.399263 240.768457 
L 785.862441 238.725768 
L 787.251976 230.810192 
L 789.104688 193.42368 
L 790.031045 167.364734 
L 790.494223 166.832833 
L 790.957401 165.78055 
L 791.420579 165.344572 
L 791.883757 153.817493 
L 792.346935 146.44628 
L 792.810114 145.468337 
L 793.273292 150.543138 
L 793.73647 150.658717 
L 794.662826 152.855827 
L 795.126004 156.484587 
L 796.052361 161.118142 
L 796.515539 166.996298 
L 798.368252 160.457217 
L 798.83143 153.321015 
L 799.294608 148.676414 
L 799.757786 141.588174 
L 800.220964 129.286517 
L 800.684142 131.900892 
L 801.147321 132.04285 
L 801.610499 142.043298 
L 802.073677 145.976614 
L 802.536855 146.526246 
L 803.000033 149.26532 
L 809.947706 142.062444 
L 810.410884 125.626977 
L 812.263597 110.039945 
L 816.895378 100.295575 
L 817.358556 89.455285 
L 818.284913 79.074465 
L 818.748091 66.158878 
L 819.211269 67.343506 
L 821.063982 69.232685 
L 821.52716 73.765026 
L 821.990338 68.389967 
L 822.453516 67.278687 
L 822.916694 71.240297 
L 824.306229 93.564435 
L 824.769407 96.886242 
L 825.232585 98.675678 
L 825.695763 101.215713 
L 826.158941 102.753351 
L 826.62212 100.458864 
L 827.085298 96.739921 
L 827.548476 89.287173 
L 828.011654 84.803243 
L 828.474832 90.647826 
L 828.93801 90.540385 
L 829.401189 90.706324 
L 830.327545 86.268429 
L 830.790723 87.170578 
L 831.253901 92.924034 
L 831.717079 89.615161 
L 832.643436 93.550875 
L 833.106614 93.508182 
L 833.569792 91.865972 
L 834.03297 94.624231 
L 834.496148 96.430454 
L 835.422505 92.182973 
L 835.885683 90.844359 
L 836.348861 87.911024 
L 836.812039 90.661128 
L 837.275217 96.924414 
L 837.738396 101.580989 
L 838.201574 102.410235 
L 838.664752 106.492232 
L 839.12793 116.164143 
L 839.591108 121.689782 
L 840.054286 123.786172 
L 840.517465 123.359787 
L 840.980643 125.199583 
L 841.443821 126.473433 
L 841.906999 124.699329 
L 842.370177 115.210615 
L 842.833355 111.853781 
L 843.296534 112.166002 
L 843.759712 114.099323 
L 844.22289 112.279656 
L 844.686068 111.637444 
L 845.149246 114.683472 
L 845.612424 119.851797 
L 846.075603 121.761137 
L 846.538781 120.869525 
L 847.001959 123.057042 
L 847.465137 121.683417 
L 847.928315 127.117929 
L 848.391493 126.070441 
L 848.854672 128.341891 
L 849.31785 133.011417 
L 849.781028 134.311646 
L 850.244206 132.295336 
L 850.707384 136.962463 
L 851.170562 136.74471 
L 852.096919 144.098155 
L 852.560097 141.525491 
L 853.023275 140.027166 
L 853.486453 145.47127 
L 853.949631 148.730727 
L 854.41281 154.045335 
L 855.339166 156.374339 
L 855.802344 155.549872 
L 856.265522 160.461604 
L 857.655057 163.306194 
L 858.581413 156.772381 
L 859.044591 154.698517 
L 859.970948 158.320556 
L 860.434126 151.517686 
L 860.897304 152.7124 
L 861.360482 155.113346 
L 861.82366 155.658181 
L 862.286838 155.639469 
L 863.213195 162.060061 
L 865.065907 193.14341 
L 865.529086 199.91365 
L 865.992264 203.328982 
L 866.455442 207.859419 
L 866.91862 213.533738 
L 867.381798 216.663699 
L 867.844976 217.891986 
L 868.308155 220.220989 
L 868.771333 223.583564 
L 869.234511 222.516892 
L 869.697689 219.785956 
L 870.160867 220.620958 
L 871.087224 218.722626 
L 871.550402 214.097209 
L 872.01358 212.690011 
L 872.476758 212.738444 
L 872.939936 214.892388 
L 873.866293 206.109181 
L 874.329471 205.97536 
L 874.792649 210.438651 
L 875.255827 210.300035 
L 875.719005 204.218987 
L 876.182183 202.994042 
L 877.10854 208.268354 
L 878.034896 200.844856 
L 878.498074 196.864522 
L 878.961252 198.800241 
L 879.424431 195.35228 
L 879.887609 180.767655 
L 880.350787 185.307684 
L 880.813965 188.250595 
L 881.740321 191.978149 
L 882.2035 197.597312 
L 882.666678 207.794403 
L 883.129856 221.533451 
L 883.593034 214.210199 
L 884.056212 211.927703 
L 884.51939 212.443761 
L 884.982569 213.319531 
L 885.445747 213.811609 
L 885.908925 205.596273 
L 886.372103 203.177086 
L 886.835281 209.952122 
L 887.298459 207.59049 
L 887.761638 204.255238 
L 888.224816 196.051893 
L 888.687994 191.443263 
L 889.151172 190.769876 
L 889.61435 196.847072 
L 890.077528 192.106548 
L 890.540707 199.651366 
L 891.003885 201.567901 
L 891.467063 206.944859 
L 891.930241 205.623991 
L 892.393419 209.878649 
L 892.856597 208.027807 
L 893.319776 205.112218 
L 893.782954 197.410071 
L 894.246132 196.369778 
L 895.172488 197.272398 
L 895.635666 193.726116 
L 896.098845 192.095897 
L 896.562023 195.348159 
L 897.025201 201.410967 
L 897.488379 196.68723 
L 897.951557 197.896332 
L 898.414735 197.081458 
L 898.877914 195.429656 
L 899.341092 188.775467 
L 899.80427 186.850284 
L 900.267448 184.26563 
L 900.730626 184.220539 
L 901.193804 177.453641 
L 901.656983 177.036848 
L 902.120161 176.91262 
L 902.583339 179.339944 
L 903.046517 180.441133 
L 903.509695 178.400843 
L 903.972873 183.758616 
L 904.436052 180.384995 
L 904.89923 178.920243 
L 905.362408 180.685699 
L 905.825586 183.050673 
L 906.288764 181.837719 
L 906.751942 184.687105 
L 907.215121 184.996929 
L 907.678299 190.112496 
L 908.141477 193.455886 
L 908.604655 189.691379 
L 909.067833 189.396887 
L 909.531011 189.270261 
L 909.99419 185.36187 
L 910.457368 183.376735 
L 910.920546 187.099021 
L 911.383724 187.47599 
L 911.846902 189.94648 
L 912.31008 188.860624 
L 912.773259 187.026568 
L 913.236437 187.336392 
L 913.699615 189.895611 
L 914.625971 189.654349 
L 915.089149 190.793907 
L 915.552328 191.530588 
L 916.478684 199.020251 
L 917.40504 201.237017 
L 918.331397 195.621195 
L 918.794575 190.276356 
L 919.257753 187.907529 
L 919.720931 187.615436 
L 920.184109 182.903689 
L 920.647287 183.407757 
L 921.110466 179.839892 
L 921.573644 182.953066 
L 922.036822 188.44753 
L 922.5 191.462383 
L 923.426356 192.326634 
L 923.889534 192.281543 
L 924.352713 192.96067 
L 924.815891 196.879598 
L 927.59496 196.366882 
L 928.058138 189.650343 
L 928.521316 188.931393 
L 928.984494 188.756805 
L 929.447672 190.12418 
L 929.910851 189.74096 
L 930.374029 186.803789 
L 930.837207 185.377406 
L 931.300385 189.281945 
L 931.763563 187.438297 
L 932.226741 186.234935 
L 933.153098 175.672355 
L 934.079454 156.673344 
L 934.542632 144.743389 
L 936.395345 131.261878 
L 937.321701 104.764085 
L 937.784879 95.985201 
L 939.174414 83.751162 
L 939.637592 79.084978 
L 940.10077 75.682581 
L 941.027127 78.505588 
L 941.490305 80.760251 
L 942.416661 88.351105 
L 942.879839 94.123746 
L 943.343017 97.366416 
L 943.806196 105.103081 
L 944.732552 108.88579 
L 945.19573 109.593694 
L 946.585265 109.121745 
L 947.048443 106.055078 
L 947.511621 109.026766 
L 947.974799 109.451698 
L 948.437977 108.488143 
L 948.901155 109.797964 
L 949.364334 107.357195 
L 949.827512 110.007541 
L 950.29069 113.583544 
L 950.753868 115.852596 
L 951.217046 115.713979 
L 951.680224 116.417087 
L 952.143403 113.043467 
L 952.606581 115.940814 
L 953.069759 116.528815 
L 953.532937 115.958545 
L 953.996115 120.04294 
L 954.459293 127.237639 
L 954.922472 132.381984 
L 955.38565 139.967569 
L 955.848828 143.478824 
L 956.312006 145.404951 
L 956.775184 149.964165 
L 957.238362 148.67687 
L 957.701541 146.132984 
L 958.164719 142.728188 
L 958.627897 144.16271 
L 959.091075 146.563655 
L 959.554253 150.034143 
L 960.017431 150.864349 
L 960.48061 155.174163 
L 960.943788 156.424033 
L 961.406966 160.25663 
L 961.870144 160.424967 
L 962.333322 162.629271 
L 962.7965 169.701668 
L 963.259679 174.519875 
L 963.722857 175.134254 
L 964.186035 179.101143 
L 964.649213 184.082419 
L 965.112391 186.996553 
L 965.575569 188.143305 
L 966.038748 178.35723 
L 966.965104 167.401365 
L 967.428282 163.106883 
L 968.354638 159.992255 
L 968.817817 160.575459 
L 969.280995 155.309757 
L 970.670529 163.01619 
L 971.133707 167.400345 
L 971.596886 166.101059 
L 972.060064 165.643499 
L 972.523242 166.161955 
L 972.98642 169.550908 
L 973.449598 170.536989 
L 973.912776 172.940333 
L 974.375955 170.463593 
L 974.839133 175.370528 
L 976.228667 178.6108 
L 976.691845 180.520141 
L 977.155024 181.666893 
L 978.08138 189.188203 
L 978.544558 192.167085 
L 979.007736 192.582424 
L 979.470914 186.33351 
L 979.934093 190.487449 
L 980.397271 185.437574 
L 980.860449 182.210236 
L 981.323627 183.306628 
L 981.786805 182.978564 
L 982.249983 181.945465 
L 982.713162 192.533442 
L 983.17634 194.43319 
L 983.639518 204.325724 
L 984.102696 207.793814 
L 985.029052 203.25233 
L 985.492231 202.636497 
L 985.955409 204.248476 
L 986.418587 197.858076 
L 986.881765 196.913706 
L 987.344943 194.813463 
L 987.808121 187.763592 
L 988.2713 188.577012 
L 988.734478 189.987553 
L 989.197656 184.899308 
L 989.660834 181.432162 
L 990.124012 180.965009 
L 990.58719 184.500245 
L 991.050369 190.136195 
L 991.513547 184.959221 
L 991.976725 183.739073 
L 992.439903 186.993733 
L 992.903081 192.936637 
L 993.366259 193.790824 
L 993.829438 186.131842 
L 994.292616 184.820566 
L 994.755794 193.643559 
L 995.218972 196.435392 
L 995.68215 198.402286 
L 996.145328 200.908747 
L 996.608507 201.858857 
L 997.071685 208.017587 
L 997.534863 206.761468 
L 997.998041 201.678019 
L 998.924397 185.326484 
L 999.387576 175.835372 
L 999.850754 171.114032 
L 1000.77711 163.028193 
L 1001.240288 163.016674 
L 1001.703466 166.072295 
L 1002.166645 173.166275 
L 1003.556179 187.455427 
L 1004.019357 191.439102 
L 1004.482535 193.144606 
L 1004.945714 194.065939 
L 1005.408892 193.886556 
L 1005.87207 200.455357 
L 1006.798426 201.051024 
L 1007.261604 204.370433 
L 1008.187961 205.790566 
L 1008.651139 207.671129 
L 1009.577495 213.026976 
L 1010.040673 213.684521 
L 1010.503852 219.313277 
L 1010.96703 220.644681 
L 1011.430208 224.22548 
L 1011.893386 224.823073 
L 1012.356564 225.61491 
L 1012.819742 224.603394 
L 1013.282921 221.517542 
L 1013.746099 216.218267 
L 1014.672455 211.530972 
L 1015.135633 212.23408 
L 1015.598811 212.455175 
L 1016.06199 211.551573 
L 1016.525168 222.770243 
L 1016.988346 222.533306 
L 1017.451524 219.946254 
L 1017.914702 219.210517 
L 1018.37788 219.172619 
L 1018.841059 217.839761 
L 1019.767415 212.864226 
L 1020.230593 206.138095 
L 1020.693771 207.284847 
L 1021.156949 210.407614 
L 1021.620127 212.55916 
L 1022.083306 208.295853 
L 1022.546484 208.445006 
L 1023.009662 212.090553 
L 1023.47284 219.299641 
L 1023.936018 224.690987 
L 1024.862375 223.202254 
L 1025.325553 223.452126 
L 1025.788731 229.241553 
L 1026.251909 232.781585 
L 1026.715087 235.326415 
L 1027.178265 230.127859 
L 1027.641444 227.13793 
L 1028.104622 227.987321 
L 1028.5678 225.131685 
L 1029.030978 224.695707 
L 1029.494156 225.660205 
L 1029.957334 222.667878 
L 1030.420513 224.287052 
L 1030.883691 218.954203 
L 1031.346869 223.033802 
L 1031.810047 232.688927 
L 1032.273225 232.864459 
L 1032.736403 229.977647 
L 1033.199582 233.385785 
L 1034.125938 227.904256 
L 1034.589116 235.720057 
L 1035.052294 235.017892 
L 1035.515472 227.099918 
L 1035.978651 224.884568 
L 1036.905007 222.257221 
L 1037.368185 227.116194 
L 1037.831363 225.258157 
L 1038.75772 226.220258 
L 1039.220898 224.626009 
L 1039.684076 224.993387 
L 1040.147254 227.50944 
L 1040.610432 228.495521 
L 1041.536789 226.009661 
L 1041.999967 223.95738 
L 1042.926323 234.624965 
L 1043.389501 229.052309 
L 1043.852679 226.251828 
L 1044.315858 224.791872 
L 1044.779036 221.13288 
L 1045.242214 219.140551 
L 1045.705392 222.131423 
L 1046.16857 220.70504 
L 1046.631748 224.146751 
L 1047.094927 229.897809 
L 1047.558105 230.207633 
L 1048.021283 237.188903 
L 1048.484461 241.726535 
L 1049.410817 228.538062 
L 1049.873996 228.385057 
L 1050.337174 225.030621 
L 1050.800352 228.047872 
L 1051.26353 229.815726 
L 1051.726708 229.964878 
L 1052.189886 232.178774 
L 1053.579421 248.607009 
L 1054.042599 252.28613 
L 1054.505777 254.236237 
L 1055.432134 266.961372 
L 1055.895312 264.021803 
L 1056.35849 263.331629 
L 1056.821668 260.749373 
L 1057.748024 257.270709 
L 1058.211203 250.820357 
L 1058.674381 242.696148 
L 1059.137559 245.766157 
L 1059.600737 245.445287 
L 1060.063915 243.529696 
L 1060.527093 254.99297 
L 1060.990272 256.638522 
L 1061.45345 254.92437 
L 1061.916628 255.804936 
L 1062.379806 254.596778 
L 1062.842984 245.870652 
L 1063.306162 243.830361 
L 1063.769341 230.221753 
L 1064.232519 224.533989 
L 1065.158875 233.371842 
L 1065.622053 231.038986 
L 1066.085231 239.602987 
L 1066.54841 237.473968 
L 1067.474766 238.908961 
L 1067.937944 237.652841 
L 1068.401122 234.751641 
L 1068.8643 236.682564 
L 1069.327479 234.603905 
L 1069.790657 242.069587 
L 1070.253835 241.763105 
L 1070.717013 241.219214 
L 1071.643369 239.412008 
L 1072.106548 238.848932 
L 1072.569726 235.657566 
L 1073.032904 235.960195 
L 1073.496082 233.317987 
L 1073.95926 231.450358 
L 1074.422438 231.484403 
L 1074.885617 232.784632 
L 1075.348795 232.31748 
L 1075.811973 234.30116 
L 1076.275151 229.438334 
L 1076.738329 230.750554 
L 1077.201507 226.376935 
L 1077.664686 217.430187 
L 1078.127864 214.368316 
L 1079.05422 211.410034 
L 1079.517398 217.904495 
L 1079.980576 220.211916 
L 1081.833289 240.523108 
L 1082.296467 241.082332 
L 1082.759645 234.720709 
L 1083.222824 231.733178 
L 1083.686002 231.628135 
L 1084.14918 234.228121 
L 1084.612358 228.765776 
L 1085.075536 228.358575 
L 1085.538714 225.385433 
L 1086.001893 224.484228 
L 1086.465071 225.415154 
L 1086.928249 224.873661 
L 1087.391427 225.231446 
L 1087.854605 230.265479 
L 1088.317783 224.827115 
L 1088.780962 229.93309 
L 1089.24414 227.729731 
L 1089.707318 226.953226 
L 1090.633674 220.776727 
L 1091.096852 216.196874 
L 1091.560031 215.933557 
L 1092.023209 213.519167 
L 1092.486387 211.886549 
L 1092.949565 212.169994 
L 1093.412743 214.117704 
L 1093.875921 213.060624 
L 1094.3391 212.713375 
L 1094.802278 214.234227 
L 1095.265456 213.841415 
L 1095.728634 214.870661 
L 1096.191812 214.209264 
L 1097.118169 219.912832 
L 1097.581347 221.982844 
L 1098.044525 227.69793 
L 1098.507703 225.211598 
L 1098.970881 225.291206 
L 1099.434059 225.749711 
L 1099.897238 224.553543 
L 1100.360416 225.896937 
L 1100.823594 228.669585 
L 1101.286772 221.710841 
L 1102.213128 229.754931 
L 1102.676307 230.808158 
L 1103.139485 230.053236 
L 1103.602663 229.542918 
L 1104.065841 225.219659 
L 1104.992197 232.649842 
L 1105.455376 233.698273 
L 1105.918554 240.444532 
L 1106.381732 244.188401 
L 1107.308088 249.30444 
L 1107.771266 240.93323 
L 1108.234445 237.434909 
L 1108.697623 240.399403 
L 1109.160801 231.83155 
L 1109.623979 229.314042 
L 1110.087157 222.734194 
L 1110.550335 222.566801 
L 1111.013514 231.898185 
L 1111.476692 232.848295 
L 1111.93987 226.712091 
L 1112.866226 235.235797 
L 1113.792583 247.884193 
L 1114.255761 250.544131 
L 1114.718939 252.05539 
L 1115.182117 255.38679 
L 1115.645295 253.691822 
L 1116.108473 251.023235 
L 1116.571652 249.215558 
L 1117.498008 242.012682 
L 1117.961186 248.703786 
L 1118.424364 251.579551 
L 1118.887542 252.033259 
L 1119.35072 250.662032 
L 1119.813899 250.050994 
L 1120.740255 252.912843 
L 1121.203433 247.942103 
L 1121.666611 247.115239 
L 1122.592968 250.885958 
L 1123.056146 252.097458 
L 1123.519324 252.769392 
L 1123.982502 251.645166 
L 1124.44568 251.029333 
L 1124.908858 249.929088 
L 1125.372037 248.020691 
L 1125.835215 249.742982 
L 1126.298393 253.527617 
L 1126.761571 253.161184 
L 1127.224749 255.118485 
L 1127.687927 256.416316 
L 1128.151106 255.639812 
L 1128.614284 255.086328 
L 1129.077462 255.350589 
L 1129.54064 252.88344 
L 1130.003818 253.082953 
L 1130.466996 255.522268 
L 1131.393353 252.343363 
L 1131.856531 251.310264 
L 1132.319709 247.231609 
L 1132.782887 246.287239 
L 1133.246065 244.798506 
L 1133.709244 238.782206 
L 1135.098778 244.260827 
L 1135.561956 248.40997 
L 1136.025134 244.933232 
L 1136.488313 243.324595 
L 1136.951491 243.557681 
L 1137.414669 238.922672 
L 1137.877847 240.17494 
L 1138.341025 236.693405 
L 1138.804203 234.749038 
L 1139.267382 237.723124 
L 1139.73056 238.124074 
L 1140.193738 237.712077 
L 1140.656916 245.240109 
L 1141.120094 242.780155 
L 1142.046451 245.282292 
L 1142.509629 243.263585 
L 1142.972807 252.292812 
L 1143.435985 255.758503 
L 1143.899163 249.097121 
L 1144.362341 248.083207 
L 1144.82552 243.146041 
L 1145.751876 230.516319 
L 1146.215054 215.898121 
L 1146.678232 205.677994 
L 1147.14141 201.83435 
L 1147.604589 202.379185 
L 1148.067767 207.120653 
L 1148.530945 209.579153 
L 1148.994123 213.620383 
L 1149.457301 222.38822 
L 1150.383658 230.521039 
L 1150.846836 223.504741 
L 1151.310014 220.711454 
L 1152.23637 219.822712 
L 1152.699548 214.202094 
L 1153.162727 217.526299 
L 1153.625905 216.051955 
L 1154.089083 220.416925 
L 1154.552261 219.000134 
L 1155.015439 219.086937 
L 1155.941796 208.732989 
L 1156.868152 200.181923 
L 1157.33133 194.801112 
L 1157.794508 185.055804 
L 1158.257686 184.535894 
L 1158.720865 181.828938 
L 1159.184043 182.426531 
L 1160.110399 185.854325 
L 1160.573577 186.936329 
L 1161.036755 196.114237 
L 1161.499934 195.805358 
L 1161.963112 194.273459 
L 1162.889468 206.919457 
L 1163.352646 209.327597 
L 1163.815824 215.423978 
L 1164.279003 215.410061 
L 1165.205359 211.919407 
L 1165.668537 208.831157 
L 1166.131715 203.625406 
L 1166.594893 201.997585 
L 1167.058072 192.674338 
L 1167.52125 189.044123 
L 1167.984428 194.893502 
L 1168.447606 195.836418 
L 1168.910784 193.127064 
L 1169.373962 191.242648 
L 1169.837141 194.034481 
L 1170.763497 200.356752 
L 1171.226675 193.388416 
L 1171.689853 197.928445 
L 1172.153031 197.029639 
L 1172.61621 202.562472 
L 1173.542566 207.925513 
L 1174.005744 204.153812 
L 1174.468922 204.93126 
L 1174.9321 199.931744 
L 1175.395279 198.385457 
L 1175.858457 189.920722 
L 1176.321635 184.014733 
L 1176.784813 180.118332 
L 1177.247991 181.840622 
L 1177.711169 182.932218 
L 1178.174348 187.354742 
L 1178.637526 187.808451 
L 1179.100704 190.945606 
L 1179.563882 195.238633 
L 1180.02706 202.773859 
L 1180.953417 211.662072 
L 1181.416595 207.585815 
L 1181.879773 207.922018 
L 1182.342951 209.838553 
L 1182.806129 204.8846 
L 1183.269307 197.753194 
L 1183.732486 195.379571 
L 1184.195664 194.744553 
L 1184.658842 197.474035 
L 1185.12202 201.649557 
L 1185.585198 203.813094 
L 1186.048376 203.96944 
L 1186.511555 201.360806 
L 1186.974733 194.689831 
L 1187.437911 191.06681 
L 1187.901089 193.302289 
L 1188.364267 192.919069 
L 1188.827445 187.996291 
L 1190.21698 199.755473 
L 1190.680158 200.741554 
L 1191.606514 188.608234 
L 1192.069693 188.635085 
L 1192.532871 182.760271 
L 1192.996049 181.46818 
L 1193.459227 181.046591 
L 1193.922405 183.9919 
L 1194.385583 189.711783 
L 1194.848762 192.860928 
L 1195.31194 191.835024 
L 1195.775118 194.214387 
L 1196.238296 195.84555 
L 1196.701474 201.088216 
L 1198.091009 192.094449 
L 1198.554187 195.082924 
L 1199.017365 196.268045 
L 1199.943721 188.822964 
L 1200.870078 181.835915 
L 1201.796434 189.292476 
L 1202.259612 188.391272 
L 1202.72279 191.439698 
L 1203.185969 191.50252 
L 1203.649147 194.349508 
L 1204.112325 198.143736 
L 1204.575503 192.27132 
L 1205.038681 188.326957 
L 1205.501859 183.116411 
L 1205.965038 180.560534 
L 1206.428216 183.352366 
L 1206.891394 182.384015 
L 1207.354572 178.631499 
L 1207.81775 180.430527 
L 1208.280928 182.766725 
L 1209.207285 209.846741 
L 1209.670463 210.235701 
L 1211.523176 234.554078 
L 1211.986354 227.78718 
L 1212.449532 224.444734 
L 1212.91271 227.533928 
L 1213.375888 227.285 
L 1213.839066 225.379002 
L 1214.302245 222.266771 
L 1214.765423 217.960299 
L 1215.228601 221.162202 
L 1215.691779 221.41687 
L 1216.618135 211.264361 
L 1217.081314 211.931498 
L 1217.544492 207.824066 
L 1218.00767 210.443237 
L 1218.934026 200.691206 
L 1219.397204 202.881122 
L 1219.860382 204.274876 
L 1220.323561 207.37606 
L 1220.786739 216.911281 
L 1221.249917 218.396162 
L 1221.713095 219.370253 
L 1222.176273 225.531381 
L 1222.639451 229.306425 
L 1223.10263 239.03589 
L 1223.565808 239.314539 
L 1224.028986 235.588401 
L 1224.492164 237.593664 
L 1224.955342 240.210437 
L 1225.41852 238.419546 
L 1226.344877 228.382145 
L 1226.808055 228.17878 
L 1227.271233 226.970622 
L 1227.734411 220.378784 
L 1228.197589 224.758142 
L 1228.660768 223.909695 
L 1229.123946 221.044466 
L 1229.587124 217.275163 
L 1230.050302 219.817596 
L 1230.51348 226.062657 
L 1230.976658 228.75377 
L 1231.903015 221.423796 
L 1232.366193 223.762392 
L 1232.829371 223.664543 
L 1234.218906 214.121617 
L 1234.682084 214.378683 
L 1235.145262 213.096184 
L 1236.071618 222.617489 
L 1236.534796 218.60598 
L 1236.997975 216.781517 
L 1237.461153 220.079343 
L 1237.924331 218.871185 
L 1238.387509 220.706185 
L 1238.850687 216.797793 
L 1239.313865 216.827042 
L 1239.777044 227.846672 
L 1240.240222 228.518605 
L 1240.7034 227.850014 
L 1241.166578 233.066301 
L 1241.629756 235.733433 
L 1242.092934 241.633172 
L 1242.556113 239.468181 
L 1243.019291 235.077776 
L 1243.482469 244.003886 
L 1243.945647 245.18661 
L 1244.408825 242.544402 
L 1244.872003 242.516097 
L 1245.335182 240.602905 
L 1245.79836 243.6897 
L 1246.261538 239.253732 
L 1246.724716 230.311779 
L 1247.187894 230.046065 
L 1247.651072 228.996179 
L 1248.114251 226.286826 
L 1248.577429 224.304089 
L 1249.040607 221.645095 
L 1249.503785 223.595202 
L 1249.966963 222.705988 
L 1250.430141 219.543398 
L 1250.89332 217.838838 
L 1251.356498 218.206216 
L 1251.819676 214.806216 
L 1252.282854 213.679593 
L 1252.746032 212.066159 
L 1253.672389 218.808094 
L 1255.061923 224.413814 
L 1255.988279 235.7025 
L 1256.914636 231.120721 
L 1257.377814 231.78546 
L 1257.840992 230.186416 
L 1258.30417 236.388312 
L 1259.230527 233.334107 
L 1259.693705 236.296203 
L 1260.156883 233.104836 
L 1260.620061 232.414662 
L 1261.083239 234.863569 
L 1261.546417 228.638636 
L 1262.009596 227.082757 
L 1262.472774 224.299063 
L 1262.935952 224.246777 
L 1263.39913 229.21846 
L 1263.862308 229.063057 
L 1264.325486 225.207423 
L 1264.788665 227.227075 
L 1265.251843 225.934984 
L 1265.715021 227.791567 
L 1266.178199 227.480289 
L 1267.104555 224.598746 
L 1268.49409 239.935856 
L 1268.957268 239.701317 
L 1269.883624 238.186677 
L 1270.346803 238.237509 
L 1270.809981 232.540152 
L 1271.273159 219.125788 
L 1271.736337 212.063927 
L 1272.199515 210.944497 
L 1272.662693 205.268724 
L 1273.125872 204.348335 
L 1273.58905 203.768472 
L 1274.052228 203.514748 
L 1274.515406 208.476839 
L 1274.978584 208.832226 
L 1275.441762 209.530538 
L 1275.904941 213.636516 
L 1276.368119 215.320437 
L 1276.831297 214.726186 
L 1277.294475 209.956885 
L 1277.757653 210.897403 
L 1278.220831 210.063345 
L 1279.147188 200.874862 
L 1279.610366 198.78661 
L 1281.926257 194.082057 
L 1282.389435 202.451814 
L 1282.852613 208.505029 
L 1283.315791 216.340015 
L 1283.778969 218.201394 
L 1284.705326 228.29344 
L 1285.168504 237.20756 
L 1285.631682 237.064148 
L 1286.09486 236.17973 
L 1286.558038 234.000351 
L 1287.021217 242.993607 
L 1287.484395 247.742269 
L 1288.410751 251.081334 
L 1288.873929 252.278446 
L 1289.337107 254.401215 
L 1289.800286 252.823753 
L 1290.263464 252.402164 
L 1290.726642 251.141248 
L 1291.652998 251.947473 
L 1292.116176 252.125403 
L 1292.579355 251.639066 
L 1293.042533 251.464478 
L 1293.505711 256.059663 
L 1293.968889 256.935433 
L 1294.432067 259.787217 
L 1294.895245 258.025103 
L 1295.358424 257.917662 
L 1295.821602 261.097982 
L 1296.28478 257.211173 
L 1296.747958 254.600141 
L 1297.211136 249.34403 
L 1298.137493 237.316226 
L 1298.600671 237.431806 
L 1299.063849 236.190074 
L 1299.527027 236.888386 
L 1299.990205 232.27496 
L 1300.453383 232.71428 
L 1301.37974 232.496527 
L 1301.842918 236.154065 
L 1302.306096 233.473488 
L 1302.769274 229.692194 
L 1303.232452 228.805378 
L 1303.695631 229.760284 
L 1304.158809 228.839895 
L 1304.621987 231.941079 
L 1305.085165 231.665772 
L 1305.548343 226.702227 
L 1306.011521 226.095986 
L 1306.937878 230.701236 
L 1307.401056 227.603394 
L 1307.864234 222.965987 
L 1308.327412 220.59716 
L 1308.79059 222.959737 
L 1309.253769 226.399049 
L 1309.716947 226.514629 
L 1310.180125 225.579851 
L 1311.106481 233.870943 
L 1311.569659 235.482922 
L 1312.032838 240.488178 
L 1312.496016 237.517434 
L 1312.959194 239.513105 
L 1313.422372 239.839716 
L 1314.348728 235.269455 
L 1315.275085 224.620544 
L 1315.738263 216.592259 
L 1316.201441 214.914077 
L 1316.664619 206.166369 
L 1317.590975 203.833513 
L 1318.054154 206.668511 
L 1318.517332 208.338043 
L 1318.98051 212.4704 
L 1319.906866 226.094812 
L 1320.370044 229.188802 
L 1320.833223 230.680877 
L 1321.296401 229.676555 
L 1321.759579 231.415632 
L 1322.222757 230.440088 
L 1322.685935 226.96335 
L 1323.149113 222.016591 
L 1323.612292 221.753275 
L 1324.07547 222.183002 
L 1324.538648 223.231433 
L 1325.001826 222.500492 
L 1325.465004 225.685609 
L 1325.928182 225.009823 
L 1326.391361 216.370028 
L 1326.854539 214.154678 
L 1327.317717 214.248675 
L 1327.780895 214.023728 
L 1328.244073 209.693275 
L 1328.707251 211.650577 
L 1329.17043 209.984386 
L 1329.633608 218.234239 
L 1330.096786 220.644777 
L 1330.559964 219.29753 
L 1331.023142 223.142118 
L 1331.48632 227.96512 
L 1331.949499 223.987184 
L 1332.412677 228.246639 
L 1332.875855 228.820251 
L 1333.802211 232.873943 
L 1334.265389 226.593854 
L 1334.728568 226.778978 
L 1335.191746 225.07202 
L 1336.118102 228.444659 
L 1336.58128 228.833619 
L 1337.044458 226.632657 
L 1337.507637 234.280593 
L 1337.970815 235.024468 
L 1338.897171 242.126115 
L 1339.360349 249.035443 
L 1340.286706 255.482415 
L 1340.749884 250.749085 
L 1341.213062 259.953372 
L 1341.67624 257.090541 
L 1342.139418 252.328435 
L 1342.602596 243.571134 
L 1343.065775 241.015257 
L 1343.528953 239.955779 
L 1343.992131 240.829151 
L 1344.455309 234.405178 
L 1344.918487 240.458393 
L 1345.381665 240.950471 
L 1345.844844 243.699138 
L 1346.308022 241.848295 
L 1346.7712 245.678494 
L 1347.234378 252.045857 
L 1347.697556 250.041538 
L 1348.160734 246.387342 
L 1349.087091 248.855906 
L 1349.550269 251.158531 
L 1350.013447 244.645829 
L 1351.402982 219.057378 
L 1351.86616 205.839656 
L 1353.255694 186.241598 
L 1353.718872 184.491475 
L 1354.645229 194.377287 
L 1355.108407 204.588766 
L 1356.034763 211.325905 
L 1356.497941 214.527808 
L 1356.96112 216.667363 
L 1357.424298 216.667835 
L 1357.887476 220.653909 
L 1358.350654 213.045287 
L 1358.813832 207.41028 
L 1359.27701 204.533061 
L 1359.740189 199.449613 
L 1360.203367 196.162323 
L 1360.666545 193.774311 
L 1361.129723 190.021794 
L 1362.056079 211.272088 
L 1363.445614 228.683534 
L 1363.908792 233.66481 
L 1364.37197 235.909881 
L 1365.298327 223.035556 
L 1365.761505 224.801011 
L 1366.224683 224.154003 
L 1367.151039 219.641768 
L 1367.614217 216.483974 
L 1368.540574 223.487299 
L 1369.003752 219.605287 
L 1369.46693 219.919907 
L 1369.930108 218.680573 
L 1370.393286 218.278169 
L 1370.856465 220.571201 
L 1371.319643 223.732337 
L 1371.782821 224.238803 
L 1372.709177 231.539489 
L 1373.172355 232.87569 
L 1373.635534 238.919313 
L 1374.098712 240.579253 
L 1374.56189 246.860286 
L 1375.025068 248.707276 
L 1375.488246 248.657388 
L 1375.951424 248.367693 
L 1376.414603 252.363359 
L 1376.877781 247.637224 
L 1377.340959 255.656861 
L 1377.804137 251.455904 
L 1378.267315 257.142214 
L 1378.730493 255.814152 
L 1379.193672 254.116786 
L 1379.65685 251.731173 
L 1380.583206 233.796908 
L 1381.046384 223.996444 
L 1381.509562 218.649207 
L 1381.972741 219.517782 
L 1382.435919 219.662139 
L 1382.899097 225.398808 
L 1383.362275 233.93643 
L 1384.288631 239.143596 
L 1385.678166 242.305676 
L 1386.141344 239.912868 
L 1387.0677 246.2855 
L 1387.530879 257.389063 
L 1389.383591 248.390972 
L 1389.846769 248.39624 
L 1390.309948 246.178492 
L 1390.773126 237.394812 
L 1391.236304 235.184258 
L 1391.699482 236.496478 
L 1392.16266 243.765517 
L 1392.625838 245.399079 
L 1393.089017 244.533846 
L 1393.552195 245.742948 
L 1394.015373 245.80577 
L 1394.478551 244.849409 
L 1394.941729 245.964987 
L 1395.404907 238.569793 
L 1396.331264 234.273385 
L 1397.25762 240.173595 
L 1397.720798 249.605699 
L 1398.183976 246.104981 
L 1398.647155 246.748137 
L 1399.110333 246.427267 
L 1399.573511 251.715496 
L 1400.036689 245.965382 
L 1400.499867 242.220059 
L 1400.963045 235.899204 
L 1401.426224 234.880493 
L 1401.889402 237.523645 
L 1402.35258 241.380223 
L 1402.815758 238.056961 
L 1403.278936 240.237284 
L 1403.742114 241.693388 
L 1404.205293 236.80898 
L 1404.668471 234.989312 
L 1405.131649 233.795542 
L 1405.594827 231.369162 
L 1406.058005 231.290497 
L 1406.521183 230.382098 
L 1406.984362 230.576814 
L 1407.44754 232.963372 
L 1407.910718 239.779175 
L 1408.373896 237.086608 
L 1408.837074 238.413216 
L 1409.300252 238.595942 
L 1409.763431 232.713934 
L 1410.226609 231.652058 
L 1410.689787 234.335977 
L 1412.5425 231.084658 
L 1413.005678 230.756593 
L 1413.468856 225.685135 
L 1413.932034 225.52014 
L 1414.85839 237.494676 
L 1415.321568 236.629443 
L 1415.784747 238.507608 
L 1416.711103 246.11285 
L 1417.174281 241.374725 
L 1417.637459 238.039473 
L 1418.100637 232.701828 
L 1419.490172 225.274005 
L 1419.95335 224.04906 
L 1420.416528 228.423623 
L 1420.879706 229.968456 
L 1421.806063 238.096478 
L 1422.732419 229.701759 
L 1423.195597 226.380896 
L 1423.658775 226.513262 
L 1424.121954 226.820688 
L 1424.585132 224.720445 
L 1425.04831 223.543462 
L 1425.511488 228.474378 
L 1426.437844 246.060412 
L 1426.901023 247.092056 
L 1427.364201 251.473813 
L 1427.827379 248.467097 
L 1428.290557 247.047908 
L 1428.753735 249.398495 
L 1429.216913 247.036862 
L 1429.680092 242.874274 
L 1430.14327 241.006645 
L 1430.606448 236.67859 
L 1431.069626 238.633494 
L 1431.532804 244.969682 
L 1431.995982 238.766332 
L 1432.459161 238.3975 
L 1432.922339 241.086215 
L 1433.385517 240.417624 
L 1433.848695 241.29819 
L 1434.311873 241.480916 
L 1434.775051 237.905857 
L 1435.23823 243.268426 
L 1435.701408 243.878009 
L 1436.164586 243.501983 
L 1436.627764 248.173907 
L 1437.090942 246.42858 
L 1437.55412 245.688046 
L 1438.017299 248.012254 
L 1438.480477 247.981551 
L 1438.943655 248.456842 
L 1439.406833 243.303849 
L 1439.870011 233.863096 
L 1440.333189 234.68371 
L 1440.796368 230.856853 
L 1442.185902 200.083762 
L 1442.64908 196.981124 
L 1443.112258 196.890469 
L 1443.575437 198.708682 
L 1444.038615 198.267908 
L 1444.501793 195.050162 
L 1444.964971 201.235272 
L 1445.428149 205.600242 
L 1445.891327 205.296158 
L 1446.354506 209.48367 
L 1446.817684 204.85106 
L 1447.280862 208.542171 
L 1447.74404 219.190099 
L 1448.207218 219.617429 
L 1449.133575 226.356966 
L 1449.596753 234.503701 
L 1450.059931 232.96221 
L 1450.523109 228.473484 
L 1450.986287 225.102262 
L 1451.449465 223.378517 
L 1451.912644 225.019273 
L 1452.375822 225.597681 
L 1452.839 214.528635 
L 1453.302178 217.375623 
L 1453.765356 216.666265 
L 1454.228534 218.839393 
L 1454.691713 218.403415 
L 1455.154891 213.631716 
L 1455.618069 217.059039 
L 1456.081247 215.543927 
L 1456.544425 209.582782 
L 1457.470782 190.562189 
L 1458.397138 190.771293 
L 1458.860316 191.678238 
L 1459.323494 188.496463 
L 1459.786672 188.614441 
L 1460.249851 189.636493 
L 1468.587058 195.569805 
L 1469.050236 195.457567 
L 1469.513414 185.443674 
L 1470.43977 177.904596 
L 1470.902948 171.631702 
L 1471.366127 171.464308 
L 1496.840926 164.651847 
L 1498.23046 156.099326 
L 1498.693638 143.979923 
L 1499.156817 138.448034 
L 1499.619995 127.779467 
L 1500.083173 124.803927 
L 1500.546351 113.881163 
L 1501.472707 112.27972 
L 1501.935886 110.539189 
L 1502.399064 118.105591 
L 1502.862242 116.396234 
L 1503.32542 117.895504 
L 1503.788598 121.512274 
L 1504.251776 128.270524 
L 1504.714955 127.796177 
L 1505.178133 134.264259 
L 1505.641311 134.756337 
L 1506.104489 137.375507 
L 1506.567667 136.085814 
L 1507.494024 126.950089 
L 1507.957202 130.216741 
L 1509.346736 117.661832 
L 1509.809914 119.986039 
L 1510.736271 129.128448 
L 1511.199449 125.77641 
L 1512.125805 130.731778 
L 1512.588983 131.211866 
L 1513.052161 129.744715 
L 1513.978518 122.82721 
L 1514.441696 127.863641 
L 1514.904874 125.825749 
L 1515.368052 121.646375 
L 1516.294409 115.895301 
L 1516.757587 115.849249 
L 1517.220765 115.983053 
L 1517.683943 118.992149 
L 1518.147121 114.919728 
L 1518.610299 116.926429 
L 1519.073478 118.242485 
L 1519.536656 128.897607 
L 1519.999834 128.468824 
L 1520.463012 131.481279 
L 1520.92619 126.937397 
L 1521.389368 120.798795 
L 1521.852547 119.367616 
L 1522.315725 128.157036 
L 1522.778903 130.903304 
L 1523.242081 135.627986 
L 1523.705259 136.014548 
L 1524.168437 140.921483 
L 1524.631616 149.202511 
L 1525.094794 146.977568 
L 1526.02115 124.002548 
L 1526.484328 118.61934 
L 1527.410685 115.138277 
L 1527.873863 111.565616 
L 1528.337041 112.251938 
L 1528.800219 117.568944 
L 1529.726575 123.596252 
L 1530.189754 119.997213 
L 1530.652932 125.72429 
L 1531.11611 133.969346 
L 1532.042466 144.656116 
L 1532.505644 147.157781 
L 1532.968823 144.664254 
L 1533.432001 146.523235 
L 1533.895179 141.029715 
L 1534.358357 133.361141 
L 1534.821535 128.399994 
L 1535.284713 120.616311 
L 1535.747892 118.858994 
L 1536.21107 119.070496 
L 1536.674248 115.327572 
L 1537.137426 117.325641 
L 1537.600604 114.083915 
L 1538.063782 120.103557 
L 1538.526961 122.166374 
L 1538.990139 126.3371 
L 1539.453317 129.00663 
L 1539.916495 138.004683 
L 1540.379673 135.384058 
L 1540.842851 140.060777 
L 1541.30603 139.869403 
L 1541.769208 148.419016 
L 1542.232386 146.757621 
L 1542.695564 146.47512 
L 1544.548277 142.11589 
L 1545.937811 151.335509 
L 1546.400989 152.264037 
L 1546.864168 156.720134 
L 1547.327346 155.507179 
L 1547.790524 156.083189 
L 1548.253702 160.246721 
L 1548.71688 156.676458 
L 1549.180058 156.509065 
L 1549.643237 156.080281 
L 1551.032771 165.235152 
L 1551.495949 165.482626 
L 1551.959127 169.881169 
L 1552.422306 167.318098 
L 1552.885484 172.445656 
L 1553.348662 172.896966 
L 1553.81184 174.530528 
L 1554.275018 175.130519 
L 1554.738196 172.613011 
L 1555.201375 165.69983 
L 1555.664553 162.91134 
L 1556.127731 153.434616 
L 1556.590909 147.140139 
L 1556.590909 147.140139 
" clip-path="url(#p49ce8ef215)" style="fill: none; stroke: #a4a031; stroke-width: 2.5; stroke-linecap: square"/>
   </g>
   <g id="patch_3">
    <path d="M 225 320.4 
L 225 43.2 
" style="fill: none; stroke: #000000; stroke-width: 0.8; stroke-linejoin: miter; stroke-linecap: square"/>
   </g>
   <g id="patch_4">
    <path d="M 1620 320.4 
L 1620 43.2 
" style="fill: none; stroke: #000000; stroke-width: 0.8; stroke-linejoin: miter; stroke-linecap: square"/>
   </g>
   <g id="patch_5">
    <path d="M 225 320.4 
L 1620 320.4 
" style="fill: none; stroke: #000000; stroke-width: 0.8; stroke-linejoin: miter; stroke-linecap: square"/>
   </g>
   <g id="patch_6">
    <path d="M 225 43.2 
L 1620 43.2 
" style="fill: none; stroke: #000000; stroke-width: 0.8; stroke-linejoin: miter; stroke-linecap: square"/>
   </g>
   <g id="text_19">
    <!-- CANV -->
    <g transform="translate(894.354687 37.2) scale(0.2 -0.2)">
     <defs>
      <path id="DejaVuSans-43" d="M 4122 4306 
L 4122 3641 
Q 3803 3938 3442 4084 
Q 3081 4231 2675 4231 
Q 1875 4231 1450 3742 
Q 1025 3253 1025 2328 
Q 1025 1406 1450 917 
Q 1875 428 2675 428 
Q 3081 428 3442 575 
Q 3803 722 4122 1019 
L 4122 359 
Q 3791 134 3420 21 
Q 3050 -91 2638 -91 
Q 1578 -91 968 557 
Q 359 1206 359 2328 
Q 359 3453 968 4101 
Q 1578 4750 2638 4750 
Q 3056 4750 3426 4639 
Q 3797 4528 4122 4306 
z
" transform="scale(0.015625)"/>
      <path id="DejaVuSans-41" d="M 2188 4044 
L 1331 1722 
L 3047 1722 
L 2188 4044 
z
M 1831 4666 
L 2547 4666 
L 4325 0 
L 3669 0 
L 3244 1197 
L 1141 1197 
L 716 0 
L 50 0 
L 1831 4666 
z
" transform="scale(0.015625)"/>
      <path id="DejaVuSans-4e" d="M 628 4666 
L 1478 4666 
L 3547 763 
L 3547 4666 
L 4159 4666 
L 4159 0 
L 3309 0 
L 1241 3903 
L 1241 0 
L 628 0 
L 628 4666 
z
" transform="scale(0.015625)"/>
      <path id="DejaVuSans-56" d="M 1831 0 
L 50 4666 
L 709 4666 
L 2188 738 
L 3669 4666 
L 4325 4666 
L 2547 0 
L 1831 0 
z
" transform="scale(0.015625)"/>
     </defs>
     <use xlink:href="#DejaVuSans-43"/>
     <use xlink:href="#DejaVuSans-41" x="69.824219"/>
     <use xlink:href="#DejaVuSans-4e" x="138.232422"/>
     <use xlink:href="#DejaVuSans-56" x="213.037109"/>
    </g>
   </g>
   <g id="legend_1">
    <g id="patch_7">
     <path d="M 1557.117188 65.878125 
L 1613 65.878125 
Q 1615 65.878125 1615 63.878125 
L 1615 50.2 
Q 1615 48.2 1613 48.2 
L 1557.117188 48.2 
Q 1555.117188 48.2 1555.117188 50.2 
L 1555.117188 63.878125 
Q 1555.117188 65.878125 1557.117188 65.878125 
z
" style="fill: #ffffff; opacity: 0.8; stroke: #cccccc; stroke-linejoin: miter"/>
    </g>
    <g id="line2d_18">
     <path d="M 1559.117188 56.298437 
L 1569.117188 56.298437 
L 1579.117188 56.298437 
" style="fill: none; stroke: #a4a031; stroke-width: 2.5; stroke-linecap: square"/>
    </g>
    <g id="text_20">
     <!-- canv -->
     <g transform="translate(1587.117188 59.798437) scale(0.1 -0.1)">
      <defs>
       <path id="DejaVuSans-63" d="M 3122 3366 
L 3122 2828 
Q 2878 2963 2633 3030 
Q 2388 3097 2138 3097 
Q 1578 3097 1268 2742 
Q 959 2388 959 1747 
Q 959 1106 1268 751 
Q 1578 397 2138 397 
Q 2388 397 2633 464 
Q 2878 531 3122 666 
L 3122 134 
Q 2881 22 2623 -34 
Q 2366 -91 2075 -91 
Q 1284 -91 818 406 
Q 353 903 353 1747 
Q 353 2603 823 3093 
Q 1294 3584 2113 3584 
Q 2378 3584 2631 3529 
Q 2884 3475 3122 3366 
z
" transform="scale(0.015625)"/>
       <path id="DejaVuSans-6e" d="M 3513 2113 
L 3513 0 
L 2938 0 
L 2938 2094 
Q 2938 2591 2744 2837 
Q 2550 3084 2163 3084 
Q 1697 3084 1428 2787 
Q 1159 2491 1159 1978 
L 1159 0 
L 581 0 
L 581 3500 
L 1159 3500 
L 1159 2956 
Q 1366 3272 1645 3428 
Q 1925 3584 2291 3584 
Q 2894 3584 3203 3211 
Q 3513 2838 3513 2113 
z
" transform="scale(0.015625)"/>
       <path id="DejaVuSans-76" d="M 191 3500 
L 800 3500 
L 1894 563 
L 2988 3500 
L 3597 3500 
L 2284 0 
L 1503 0 
L 191 3500 
z
" transform="scale(0.015625)"/>
      </defs>
      <use xlink:href="#DejaVuSans-63"/>
      <use xlink:href="#DejaVuSans-61" x="54.980469"/>
      <use xlink:href="#DejaVuSans-6e" x="116.259766"/>
      <use xlink:href="#DejaVuSans-76" x="179.638672"/>
     </g>
    </g>
   </g>
  </g>
 </g>
 <defs>
  <clipPath id="p49ce8ef215">
   <rect x="225" y="43.2" width="1395" height="277.2"/>
  </clipPath>
 </defs>
</svg>
