<?xml version="1.0" encoding="utf-8" standalone="no"?>
<!DOCTYPE svg PUBLIC "-//W3C//DTD SVG 1.1//EN"
  "http://www.w3.org/Graphics/SVG/1.1/DTD/svg11.dtd">
<svg xmlns:xlink="http://www.w3.org/1999/xlink" width="1800pt" height="360pt" viewBox="0 0 1800 360" xmlns="http://www.w3.org/2000/svg" version="1.1">
 <metadata>
  <rdf:RDF xmlns:dc="http://purl.org/dc/elements/1.1/" xmlns:cc="http://creativecommons.org/ns#" xmlns:rdf="http://www.w3.org/1999/02/22-rdf-syntax-ns#">
   <cc:Work>
    <dc:type rdf:resource="http://purl.org/dc/dcmitype/StillImage"/>
    <dc:date>2024-03-07T15:57:39.211986</dc:date>
    <dc:format>image/svg+xml</dc:format>
    <dc:creator>
     <cc:Agent>
      <dc:title>Matplotlib v3.7.2, https://matplotlib.org/</dc:title>
     </cc:Agent>
    </dc:creator>
   </cc:Work>
  </rdf:RDF>
 </metadata>
 <defs>
  <style type="text/css">*{stroke-linejoin: round; stroke-linecap: butt}</style>
 </defs>
 <g id="figure_1">
  <g id="patch_1">
   <path d="M 0 360 
L 1800 360 
L 1800 0 
L 0 0 
z
" style="fill: #ffffff"/>
  </g>
  <g id="axes_1">
   <g id="patch_2">
    <path d="M 225 320.4 
L 1620 320.4 
L 1620 43.2 
L 225 43.2 
z
" style="fill: #ffffff"/>
   </g>
   <g id="matplotlib.axis_1">
    <g id="xtick_1">
     <g id="line2d_1">
      <defs>
       <path id="m3039c3a5f2" d="M 0 0 
L 0 3.5 
" style="stroke: #000000; stroke-width: 0.8"/>
      </defs>
      <g>
       <use xlink:href="#m3039c3a5f2" x="281.924597" y="320.4" style="stroke: #000000; stroke-width: 0.8"/>
      </g>
     </g>
     <g id="text_1">
      <!-- 2011 -->
      <g transform="translate(262.837097 338.797656) scale(0.15 -0.15)">
       <defs>
        <path id="DejaVuSans-32" d="M 1228 531 
L 3431 531 
L 3431 0 
L 469 0 
L 469 531 
Q 828 903 1448 1529 
Q 2069 2156 2228 2338 
Q 2531 2678 2651 2914 
Q 2772 3150 2772 3378 
Q 2772 3750 2511 3984 
Q 2250 4219 1831 4219 
Q 1534 4219 1204 4116 
Q 875 4013 500 3803 
L 500 4441 
Q 881 4594 1212 4672 
Q 1544 4750 1819 4750 
Q 2544 4750 2975 4387 
Q 3406 4025 3406 3419 
Q 3406 3131 3298 2873 
Q 3191 2616 2906 2266 
Q 2828 2175 2409 1742 
Q 1991 1309 1228 531 
z
" transform="scale(0.015625)"/>
        <path id="DejaVuSans-30" d="M 2034 4250 
Q 1547 4250 1301 3770 
Q 1056 3291 1056 2328 
Q 1056 1369 1301 889 
Q 1547 409 2034 409 
Q 2525 409 2770 889 
Q 3016 1369 3016 2328 
Q 3016 3291 2770 3770 
Q 2525 4250 2034 4250 
z
M 2034 4750 
Q 2819 4750 3233 4129 
Q 3647 3509 3647 2328 
Q 3647 1150 3233 529 
Q 2819 -91 2034 -91 
Q 1250 -91 836 529 
Q 422 1150 422 2328 
Q 422 3509 836 4129 
Q 1250 4750 2034 4750 
z
" transform="scale(0.015625)"/>
        <path id="DejaVuSans-31" d="M 794 531 
L 1825 531 
L 1825 4091 
L 703 3866 
L 703 4441 
L 1819 4666 
L 2450 4666 
L 2450 531 
L 3481 531 
L 3481 0 
L 794 0 
L 794 531 
z
" transform="scale(0.015625)"/>
       </defs>
       <use xlink:href="#DejaVuSans-32"/>
       <use xlink:href="#DejaVuSans-30" x="63.623047"/>
       <use xlink:href="#DejaVuSans-31" x="127.246094"/>
       <use xlink:href="#DejaVuSans-31" x="190.869141"/>
      </g>
     </g>
    </g>
    <g id="xtick_2">
     <g id="line2d_2">
      <g>
       <use xlink:href="#m3039c3a5f2" x="450.984627" y="320.4" style="stroke: #000000; stroke-width: 0.8"/>
      </g>
     </g>
     <g id="text_2">
      <!-- 2012 -->
      <g transform="translate(431.897127 338.797656) scale(0.15 -0.15)">
       <use xlink:href="#DejaVuSans-32"/>
       <use xlink:href="#DejaVuSans-30" x="63.623047"/>
       <use xlink:href="#DejaVuSans-31" x="127.246094"/>
       <use xlink:href="#DejaVuSans-32" x="190.869141"/>
      </g>
     </g>
    </g>
    <g id="xtick_3">
     <g id="line2d_3">
      <g>
       <use xlink:href="#m3039c3a5f2" x="620.507836" y="320.4" style="stroke: #000000; stroke-width: 0.8"/>
      </g>
     </g>
     <g id="text_3">
      <!-- 2013 -->
      <g transform="translate(601.420336 338.797656) scale(0.15 -0.15)">
       <defs>
        <path id="DejaVuSans-33" d="M 2597 2516 
Q 3050 2419 3304 2112 
Q 3559 1806 3559 1356 
Q 3559 666 3084 287 
Q 2609 -91 1734 -91 
Q 1441 -91 1130 -33 
Q 819 25 488 141 
L 488 750 
Q 750 597 1062 519 
Q 1375 441 1716 441 
Q 2309 441 2620 675 
Q 2931 909 2931 1356 
Q 2931 1769 2642 2001 
Q 2353 2234 1838 2234 
L 1294 2234 
L 1294 2753 
L 1863 2753 
Q 2328 2753 2575 2939 
Q 2822 3125 2822 3475 
Q 2822 3834 2567 4026 
Q 2313 4219 1838 4219 
Q 1578 4219 1281 4162 
Q 984 4106 628 3988 
L 628 4550 
Q 988 4650 1302 4700 
Q 1616 4750 1894 4750 
Q 2613 4750 3031 4423 
Q 3450 4097 3450 3541 
Q 3450 3153 3228 2886 
Q 3006 2619 2597 2516 
z
" transform="scale(0.015625)"/>
       </defs>
       <use xlink:href="#DejaVuSans-32"/>
       <use xlink:href="#DejaVuSans-30" x="63.623047"/>
       <use xlink:href="#DejaVuSans-31" x="127.246094"/>
       <use xlink:href="#DejaVuSans-33" x="190.869141"/>
      </g>
     </g>
    </g>
    <g id="xtick_4">
     <g id="line2d_4">
      <g>
       <use xlink:href="#m3039c3a5f2" x="789.567866" y="320.4" style="stroke: #000000; stroke-width: 0.8"/>
      </g>
     </g>
     <g id="text_4">
      <!-- 2014 -->
      <g transform="translate(770.480366 338.797656) scale(0.15 -0.15)">
       <defs>
        <path id="DejaVuSans-34" d="M 2419 4116 
L 825 1625 
L 2419 1625 
L 2419 4116 
z
M 2253 4666 
L 3047 4666 
L 3047 1625 
L 3713 1625 
L 3713 1100 
L 3047 1100 
L 3047 0 
L 2419 0 
L 2419 1100 
L 313 1100 
L 313 1709 
L 2253 4666 
z
" transform="scale(0.015625)"/>
       </defs>
       <use xlink:href="#DejaVuSans-32"/>
       <use xlink:href="#DejaVuSans-30" x="63.623047"/>
       <use xlink:href="#DejaVuSans-31" x="127.246094"/>
       <use xlink:href="#DejaVuSans-34" x="190.869141"/>
      </g>
     </g>
    </g>
    <g id="xtick_5">
     <g id="line2d_5">
      <g>
       <use xlink:href="#m3039c3a5f2" x="958.627897" y="320.4" style="stroke: #000000; stroke-width: 0.8"/>
      </g>
     </g>
     <g id="text_5">
      <!-- 2015 -->
      <g transform="translate(939.540397 338.797656) scale(0.15 -0.15)">
       <defs>
        <path id="DejaVuSans-35" d="M 691 4666 
L 3169 4666 
L 3169 4134 
L 1269 4134 
L 1269 2991 
Q 1406 3038 1543 3061 
Q 1681 3084 1819 3084 
Q 2600 3084 3056 2656 
Q 3513 2228 3513 1497 
Q 3513 744 3044 326 
Q 2575 -91 1722 -91 
Q 1428 -91 1123 -41 
Q 819 9 494 109 
L 494 744 
Q 775 591 1075 516 
Q 1375 441 1709 441 
Q 2250 441 2565 725 
Q 2881 1009 2881 1497 
Q 2881 1984 2565 2268 
Q 2250 2553 1709 2553 
Q 1456 2553 1204 2497 
Q 953 2441 691 2322 
L 691 4666 
z
" transform="scale(0.015625)"/>
       </defs>
       <use xlink:href="#DejaVuSans-32"/>
       <use xlink:href="#DejaVuSans-30" x="63.623047"/>
       <use xlink:href="#DejaVuSans-31" x="127.246094"/>
       <use xlink:href="#DejaVuSans-35" x="190.869141"/>
      </g>
     </g>
    </g>
    <g id="xtick_6">
     <g id="line2d_6">
      <g>
       <use xlink:href="#m3039c3a5f2" x="1127.687927" y="320.4" style="stroke: #000000; stroke-width: 0.8"/>
      </g>
     </g>
     <g id="text_6">
      <!-- 2016 -->
      <g transform="translate(1108.600427 338.797656) scale(0.15 -0.15)">
       <defs>
        <path id="DejaVuSans-36" d="M 2113 2584 
Q 1688 2584 1439 2293 
Q 1191 2003 1191 1497 
Q 1191 994 1439 701 
Q 1688 409 2113 409 
Q 2538 409 2786 701 
Q 3034 994 3034 1497 
Q 3034 2003 2786 2293 
Q 2538 2584 2113 2584 
z
M 3366 4563 
L 3366 3988 
Q 3128 4100 2886 4159 
Q 2644 4219 2406 4219 
Q 1781 4219 1451 3797 
Q 1122 3375 1075 2522 
Q 1259 2794 1537 2939 
Q 1816 3084 2150 3084 
Q 2853 3084 3261 2657 
Q 3669 2231 3669 1497 
Q 3669 778 3244 343 
Q 2819 -91 2113 -91 
Q 1303 -91 875 529 
Q 447 1150 447 2328 
Q 447 3434 972 4092 
Q 1497 4750 2381 4750 
Q 2619 4750 2861 4703 
Q 3103 4656 3366 4563 
z
" transform="scale(0.015625)"/>
       </defs>
       <use xlink:href="#DejaVuSans-32"/>
       <use xlink:href="#DejaVuSans-30" x="63.623047"/>
       <use xlink:href="#DejaVuSans-31" x="127.246094"/>
       <use xlink:href="#DejaVuSans-36" x="190.869141"/>
      </g>
     </g>
    </g>
    <g id="xtick_7">
     <g id="line2d_7">
      <g>
       <use xlink:href="#m3039c3a5f2" x="1297.211136" y="320.4" style="stroke: #000000; stroke-width: 0.8"/>
      </g>
     </g>
     <g id="text_7">
      <!-- 2017 -->
      <g transform="translate(1278.123636 338.797656) scale(0.15 -0.15)">
       <defs>
        <path id="DejaVuSans-37" d="M 525 4666 
L 3525 4666 
L 3525 4397 
L 1831 0 
L 1172 0 
L 2766 4134 
L 525 4134 
L 525 4666 
z
" transform="scale(0.015625)"/>
       </defs>
       <use xlink:href="#DejaVuSans-32"/>
       <use xlink:href="#DejaVuSans-30" x="63.623047"/>
       <use xlink:href="#DejaVuSans-31" x="127.246094"/>
       <use xlink:href="#DejaVuSans-37" x="190.869141"/>
      </g>
     </g>
    </g>
    <g id="xtick_8">
     <g id="line2d_8">
      <g>
       <use xlink:href="#m3039c3a5f2" x="1466.271167" y="320.4" style="stroke: #000000; stroke-width: 0.8"/>
      </g>
     </g>
     <g id="text_8">
      <!-- 2018 -->
      <g transform="translate(1447.183667 338.797656) scale(0.15 -0.15)">
       <defs>
        <path id="DejaVuSans-38" d="M 2034 2216 
Q 1584 2216 1326 1975 
Q 1069 1734 1069 1313 
Q 1069 891 1326 650 
Q 1584 409 2034 409 
Q 2484 409 2743 651 
Q 3003 894 3003 1313 
Q 3003 1734 2745 1975 
Q 2488 2216 2034 2216 
z
M 1403 2484 
Q 997 2584 770 2862 
Q 544 3141 544 3541 
Q 544 4100 942 4425 
Q 1341 4750 2034 4750 
Q 2731 4750 3128 4425 
Q 3525 4100 3525 3541 
Q 3525 3141 3298 2862 
Q 3072 2584 2669 2484 
Q 3125 2378 3379 2068 
Q 3634 1759 3634 1313 
Q 3634 634 3220 271 
Q 2806 -91 2034 -91 
Q 1263 -91 848 271 
Q 434 634 434 1313 
Q 434 1759 690 2068 
Q 947 2378 1403 2484 
z
M 1172 3481 
Q 1172 3119 1398 2916 
Q 1625 2713 2034 2713 
Q 2441 2713 2670 2916 
Q 2900 3119 2900 3481 
Q 2900 3844 2670 4047 
Q 2441 4250 2034 4250 
Q 1625 4250 1398 4047 
Q 1172 3844 1172 3481 
z
" transform="scale(0.015625)"/>
       </defs>
       <use xlink:href="#DejaVuSans-32"/>
       <use xlink:href="#DejaVuSans-30" x="63.623047"/>
       <use xlink:href="#DejaVuSans-31" x="127.246094"/>
       <use xlink:href="#DejaVuSans-38" x="190.869141"/>
      </g>
     </g>
    </g>
    <g id="text_9">
     <!-- Time -->
     <g transform="translate(904.149609 357.314844) scale(0.15 -0.15)">
      <defs>
       <path id="DejaVuSans-54" d="M -19 4666 
L 3928 4666 
L 3928 4134 
L 2272 4134 
L 2272 0 
L 1638 0 
L 1638 4134 
L -19 4134 
L -19 4666 
z
" transform="scale(0.015625)"/>
       <path id="DejaVuSans-69" d="M 603 3500 
L 1178 3500 
L 1178 0 
L 603 0 
L 603 3500 
z
M 603 4863 
L 1178 4863 
L 1178 4134 
L 603 4134 
L 603 4863 
z
" transform="scale(0.015625)"/>
       <path id="DejaVuSans-6d" d="M 3328 2828 
Q 3544 3216 3844 3400 
Q 4144 3584 4550 3584 
Q 5097 3584 5394 3201 
Q 5691 2819 5691 2113 
L 5691 0 
L 5113 0 
L 5113 2094 
Q 5113 2597 4934 2840 
Q 4756 3084 4391 3084 
Q 3944 3084 3684 2787 
Q 3425 2491 3425 1978 
L 3425 0 
L 2847 0 
L 2847 2094 
Q 2847 2600 2669 2842 
Q 2491 3084 2119 3084 
Q 1678 3084 1418 2786 
Q 1159 2488 1159 1978 
L 1159 0 
L 581 0 
L 581 3500 
L 1159 3500 
L 1159 2956 
Q 1356 3278 1631 3431 
Q 1906 3584 2284 3584 
Q 2666 3584 2933 3390 
Q 3200 3197 3328 2828 
z
" transform="scale(0.015625)"/>
       <path id="DejaVuSans-65" d="M 3597 1894 
L 3597 1613 
L 953 1613 
Q 991 1019 1311 708 
Q 1631 397 2203 397 
Q 2534 397 2845 478 
Q 3156 559 3463 722 
L 3463 178 
Q 3153 47 2828 -22 
Q 2503 -91 2169 -91 
Q 1331 -91 842 396 
Q 353 884 353 1716 
Q 353 2575 817 3079 
Q 1281 3584 2069 3584 
Q 2775 3584 3186 3129 
Q 3597 2675 3597 1894 
z
M 3022 2063 
Q 3016 2534 2758 2815 
Q 2500 3097 2075 3097 
Q 1594 3097 1305 2825 
Q 1016 2553 972 2059 
L 3022 2063 
z
" transform="scale(0.015625)"/>
      </defs>
      <use xlink:href="#DejaVuSans-54"/>
      <use xlink:href="#DejaVuSans-69" x="57.958984"/>
      <use xlink:href="#DejaVuSans-6d" x="85.742188"/>
      <use xlink:href="#DejaVuSans-65" x="183.154297"/>
     </g>
    </g>
   </g>
   <g id="matplotlib.axis_2">
    <g id="ytick_1">
     <g id="line2d_9">
      <defs>
       <path id="m57054b0e81" d="M 0 0 
L -3.5 0 
" style="stroke: #000000; stroke-width: 0.8"/>
      </defs>
      <g>
       <use xlink:href="#m57054b0e81" x="225" y="304.367198" style="stroke: #000000; stroke-width: 0.8"/>
      </g>
     </g>
     <g id="text_10">
      <!-- −0.0100 -->
      <g transform="translate(152.944531 310.066026) scale(0.15 -0.15)">
       <defs>
        <path id="DejaVuSans-2212" d="M 678 2272 
L 4684 2272 
L 4684 1741 
L 678 1741 
L 678 2272 
z
" transform="scale(0.015625)"/>
        <path id="DejaVuSans-2e" d="M 684 794 
L 1344 794 
L 1344 0 
L 684 0 
L 684 794 
z
" transform="scale(0.015625)"/>
       </defs>
       <use xlink:href="#DejaVuSans-2212"/>
       <use xlink:href="#DejaVuSans-30" x="83.789062"/>
       <use xlink:href="#DejaVuSans-2e" x="147.412109"/>
       <use xlink:href="#DejaVuSans-30" x="179.199219"/>
       <use xlink:href="#DejaVuSans-31" x="242.822266"/>
       <use xlink:href="#DejaVuSans-30" x="306.445312"/>
       <use xlink:href="#DejaVuSans-30" x="370.068359"/>
      </g>
     </g>
    </g>
    <g id="ytick_2">
     <g id="line2d_10">
      <g>
       <use xlink:href="#m57054b0e81" x="225" y="268.000273" style="stroke: #000000; stroke-width: 0.8"/>
      </g>
     </g>
     <g id="text_11">
      <!-- −0.0075 -->
      <g transform="translate(152.944531 273.699101) scale(0.15 -0.15)">
       <use xlink:href="#DejaVuSans-2212"/>
       <use xlink:href="#DejaVuSans-30" x="83.789062"/>
       <use xlink:href="#DejaVuSans-2e" x="147.412109"/>
       <use xlink:href="#DejaVuSans-30" x="179.199219"/>
       <use xlink:href="#DejaVuSans-30" x="242.822266"/>
       <use xlink:href="#DejaVuSans-37" x="306.445312"/>
       <use xlink:href="#DejaVuSans-35" x="370.068359"/>
      </g>
     </g>
    </g>
    <g id="ytick_3">
     <g id="line2d_11">
      <g>
       <use xlink:href="#m57054b0e81" x="225" y="231.633347" style="stroke: #000000; stroke-width: 0.8"/>
      </g>
     </g>
     <g id="text_12">
      <!-- −0.0050 -->
      <g transform="translate(152.944531 237.332175) scale(0.15 -0.15)">
       <use xlink:href="#DejaVuSans-2212"/>
       <use xlink:href="#DejaVuSans-30" x="83.789062"/>
       <use xlink:href="#DejaVuSans-2e" x="147.412109"/>
       <use xlink:href="#DejaVuSans-30" x="179.199219"/>
       <use xlink:href="#DejaVuSans-30" x="242.822266"/>
       <use xlink:href="#DejaVuSans-35" x="306.445312"/>
       <use xlink:href="#DejaVuSans-30" x="370.068359"/>
      </g>
     </g>
    </g>
    <g id="ytick_4">
     <g id="line2d_12">
      <g>
       <use xlink:href="#m57054b0e81" x="225" y="195.266422" style="stroke: #000000; stroke-width: 0.8"/>
      </g>
     </g>
     <g id="text_13">
      <!-- −0.0025 -->
      <g transform="translate(152.944531 200.96525) scale(0.15 -0.15)">
       <use xlink:href="#DejaVuSans-2212"/>
       <use xlink:href="#DejaVuSans-30" x="83.789062"/>
       <use xlink:href="#DejaVuSans-2e" x="147.412109"/>
       <use xlink:href="#DejaVuSans-30" x="179.199219"/>
       <use xlink:href="#DejaVuSans-30" x="242.822266"/>
       <use xlink:href="#DejaVuSans-32" x="306.445312"/>
       <use xlink:href="#DejaVuSans-35" x="370.068359"/>
      </g>
     </g>
    </g>
    <g id="ytick_5">
     <g id="line2d_13">
      <g>
       <use xlink:href="#m57054b0e81" x="225" y="158.899497" style="stroke: #000000; stroke-width: 0.8"/>
      </g>
     </g>
     <g id="text_14">
      <!-- 0.0000 -->
      <g transform="translate(165.514062 164.598325) scale(0.15 -0.15)">
       <use xlink:href="#DejaVuSans-30"/>
       <use xlink:href="#DejaVuSans-2e" x="63.623047"/>
       <use xlink:href="#DejaVuSans-30" x="95.410156"/>
       <use xlink:href="#DejaVuSans-30" x="159.033203"/>
       <use xlink:href="#DejaVuSans-30" x="222.65625"/>
       <use xlink:href="#DejaVuSans-30" x="286.279297"/>
      </g>
     </g>
    </g>
    <g id="ytick_6">
     <g id="line2d_14">
      <g>
       <use xlink:href="#m57054b0e81" x="225" y="122.532572" style="stroke: #000000; stroke-width: 0.8"/>
      </g>
     </g>
     <g id="text_15">
      <!-- 0.0025 -->
      <g transform="translate(165.514062 128.2314) scale(0.15 -0.15)">
       <use xlink:href="#DejaVuSans-30"/>
       <use xlink:href="#DejaVuSans-2e" x="63.623047"/>
       <use xlink:href="#DejaVuSans-30" x="95.410156"/>
       <use xlink:href="#DejaVuSans-30" x="159.033203"/>
       <use xlink:href="#DejaVuSans-32" x="222.65625"/>
       <use xlink:href="#DejaVuSans-35" x="286.279297"/>
      </g>
     </g>
    </g>
    <g id="ytick_7">
     <g id="line2d_15">
      <g>
       <use xlink:href="#m57054b0e81" x="225" y="86.165647" style="stroke: #000000; stroke-width: 0.8"/>
      </g>
     </g>
     <g id="text_16">
      <!-- 0.0050 -->
      <g transform="translate(165.514062 91.864475) scale(0.15 -0.15)">
       <use xlink:href="#DejaVuSans-30"/>
       <use xlink:href="#DejaVuSans-2e" x="63.623047"/>
       <use xlink:href="#DejaVuSans-30" x="95.410156"/>
       <use xlink:href="#DejaVuSans-30" x="159.033203"/>
       <use xlink:href="#DejaVuSans-35" x="222.65625"/>
       <use xlink:href="#DejaVuSans-30" x="286.279297"/>
      </g>
     </g>
    </g>
    <g id="ytick_8">
     <g id="line2d_16">
      <g>
       <use xlink:href="#m57054b0e81" x="225" y="49.798721" style="stroke: #000000; stroke-width: 0.8"/>
      </g>
     </g>
     <g id="text_17">
      <!-- 0.0075 -->
      <g transform="translate(165.514062 55.497549) scale(0.15 -0.15)">
       <use xlink:href="#DejaVuSans-30"/>
       <use xlink:href="#DejaVuSans-2e" x="63.623047"/>
       <use xlink:href="#DejaVuSans-30" x="95.410156"/>
       <use xlink:href="#DejaVuSans-30" x="159.033203"/>
       <use xlink:href="#DejaVuSans-37" x="222.65625"/>
       <use xlink:href="#DejaVuSans-35" x="286.279297"/>
      </g>
     </g>
    </g>
    <g id="text_18">
     <!-- East(m) -->
     <g transform="translate(145.825 211.140234) rotate(-90) scale(0.15 -0.15)">
      <defs>
       <path id="DejaVuSans-45" d="M 628 4666 
L 3578 4666 
L 3578 4134 
L 1259 4134 
L 1259 2753 
L 3481 2753 
L 3481 2222 
L 1259 2222 
L 1259 531 
L 3634 531 
L 3634 0 
L 628 0 
L 628 4666 
z
" transform="scale(0.015625)"/>
       <path id="DejaVuSans-61" d="M 2194 1759 
Q 1497 1759 1228 1600 
Q 959 1441 959 1056 
Q 959 750 1161 570 
Q 1363 391 1709 391 
Q 2188 391 2477 730 
Q 2766 1069 2766 1631 
L 2766 1759 
L 2194 1759 
z
M 3341 1997 
L 3341 0 
L 2766 0 
L 2766 531 
Q 2569 213 2275 61 
Q 1981 -91 1556 -91 
Q 1019 -91 701 211 
Q 384 513 384 1019 
Q 384 1609 779 1909 
Q 1175 2209 1959 2209 
L 2766 2209 
L 2766 2266 
Q 2766 2663 2505 2880 
Q 2244 3097 1772 3097 
Q 1472 3097 1187 3025 
Q 903 2953 641 2809 
L 641 3341 
Q 956 3463 1253 3523 
Q 1550 3584 1831 3584 
Q 2591 3584 2966 3190 
Q 3341 2797 3341 1997 
z
" transform="scale(0.015625)"/>
       <path id="DejaVuSans-73" d="M 2834 3397 
L 2834 2853 
Q 2591 2978 2328 3040 
Q 2066 3103 1784 3103 
Q 1356 3103 1142 2972 
Q 928 2841 928 2578 
Q 928 2378 1081 2264 
Q 1234 2150 1697 2047 
L 1894 2003 
Q 2506 1872 2764 1633 
Q 3022 1394 3022 966 
Q 3022 478 2636 193 
Q 2250 -91 1575 -91 
Q 1294 -91 989 -36 
Q 684 19 347 128 
L 347 722 
Q 666 556 975 473 
Q 1284 391 1588 391 
Q 1994 391 2212 530 
Q 2431 669 2431 922 
Q 2431 1156 2273 1281 
Q 2116 1406 1581 1522 
L 1381 1569 
Q 847 1681 609 1914 
Q 372 2147 372 2553 
Q 372 3047 722 3315 
Q 1072 3584 1716 3584 
Q 2034 3584 2315 3537 
Q 2597 3491 2834 3397 
z
" transform="scale(0.015625)"/>
       <path id="DejaVuSans-74" d="M 1172 4494 
L 1172 3500 
L 2356 3500 
L 2356 3053 
L 1172 3053 
L 1172 1153 
Q 1172 725 1289 603 
Q 1406 481 1766 481 
L 2356 481 
L 2356 0 
L 1766 0 
Q 1100 0 847 248 
Q 594 497 594 1153 
L 594 3053 
L 172 3053 
L 172 3500 
L 594 3500 
L 594 4494 
L 1172 4494 
z
" transform="scale(0.015625)"/>
       <path id="DejaVuSans-28" d="M 1984 4856 
Q 1566 4138 1362 3434 
Q 1159 2731 1159 2009 
Q 1159 1288 1364 580 
Q 1569 -128 1984 -844 
L 1484 -844 
Q 1016 -109 783 600 
Q 550 1309 550 2009 
Q 550 2706 781 3412 
Q 1013 4119 1484 4856 
L 1984 4856 
z
" transform="scale(0.015625)"/>
       <path id="DejaVuSans-29" d="M 513 4856 
L 1013 4856 
Q 1481 4119 1714 3412 
Q 1947 2706 1947 2009 
Q 1947 1309 1714 600 
Q 1481 -109 1013 -844 
L 513 -844 
Q 928 -128 1133 580 
Q 1338 1288 1338 2009 
Q 1338 2731 1133 3434 
Q 928 4138 513 4856 
z
" transform="scale(0.015625)"/>
      </defs>
      <use xlink:href="#DejaVuSans-45"/>
      <use xlink:href="#DejaVuSans-61" x="63.183594"/>
      <use xlink:href="#DejaVuSans-73" x="124.462891"/>
      <use xlink:href="#DejaVuSans-74" x="176.5625"/>
      <use xlink:href="#DejaVuSans-28" x="215.771484"/>
      <use xlink:href="#DejaVuSans-6d" x="254.785156"/>
      <use xlink:href="#DejaVuSans-29" x="352.197266"/>
     </g>
    </g>
   </g>
   <g id="line2d_17">
    <path d="M 288.409091 251.533092 
L 288.872269 241.930279 
L 289.335447 246.592999 
L 289.798625 246.370428 
L 290.261804 242.087369 
L 290.724982 244.977322 
L 291.18816 245.210203 
L 291.651338 244.717958 
L 292.114516 247.047786 
L 292.577694 244.491977 
L 293.040873 243.985185 
L 293.504051 247.466286 
L 293.967229 246.001485 
L 294.430407 246.122281 
L 294.893585 247.724771 
L 295.819942 252.012445 
L 296.28312 255.53303 
L 296.746298 256.202448 
L 297.209476 258.887633 
L 297.672654 260.537919 
L 298.135832 257.768064 
L 298.599011 256.893447 
L 299.988545 251.659487 
L 300.451723 247.883828 
L 300.914901 247.42691 
L 301.37808 247.697331 
L 301.841258 246.247077 
L 302.304436 248.379485 
L 302.767614 249.036434 
L 303.230792 250.778157 
L 303.69397 254.415116 
L 304.157149 256.57246 
L 304.620327 259.363629 
L 305.083505 258.755009 
L 306.009861 260.83573 
L 306.473039 256.648605 
L 307.399396 246.911115 
L 307.862574 241.691169 
L 308.325752 242.425009 
L 308.78893 242.246558 
L 309.715287 249.539179 
L 310.178465 252.675313 
L 310.641643 256.813097 
L 311.104821 263.650346 
L 311.567999 267.794364 
L 312.031177 265.282195 
L 312.494356 260.251357 
L 312.957534 260.954025 
L 313.420712 264.520328 
L 313.88389 260.954558 
L 314.347068 258.955683 
L 314.810246 256.021658 
L 315.273425 258.623719 
L 315.736603 254.889621 
L 316.199781 255.457212 
L 316.662959 256.955796 
L 317.126137 260.844206 
L 318.052494 266.756962 
L 318.515672 264.693666 
L 318.97885 270.036753 
L 319.442028 268.418172 
L 319.905206 265.980816 
L 320.368384 267.161449 
L 320.831563 264.516281 
L 321.757919 272.600662 
L 322.221097 271.750982 
L 322.684275 272.081668 
L 323.147453 271.209128 
L 323.610632 263.366608 
L 324.07381 259.351966 
L 324.536988 251.931301 
L 325.000166 247.821066 
L 325.463344 249.244838 
L 325.926522 253.112468 
L 326.389701 254.318038 
L 326.852879 263.464067 
L 328.242413 282.535682 
L 328.705591 282.269951 
L 329.16877 285.468428 
L 329.631948 287.553039 
L 330.095126 287.973084 
L 331.48466 282.433376 
L 331.947839 276.953667 
L 332.411017 275.621865 
L 332.874195 266.335058 
L 333.337373 262.357822 
L 333.800551 255.755933 
L 334.263729 258.245775 
L 334.726907 259.638375 
L 335.190086 264.418295 
L 335.653264 264.246078 
L 336.116442 268.018115 
L 337.042798 271.613778 
L 337.505976 271.483124 
L 337.969155 267.672136 
L 338.432333 265.9164 
L 338.895511 267.865934 
L 339.358689 268.786803 
L 339.821867 266.769225 
L 340.748224 263.6235 
L 341.211402 255.012078 
L 341.67458 252.894751 
L 342.137758 253.152703 
L 343.064114 257.735469 
L 343.527293 264.044877 
L 343.990471 261.617911 
L 344.453649 271.329186 
L 344.916827 273.417953 
L 345.380005 270.756161 
L 345.843183 269.56567 
L 346.306362 269.148237 
L 346.76954 268.462727 
L 347.232718 269.684922 
L 347.695896 265.433376 
L 348.159074 266.096559 
L 348.622252 268.490809 
L 349.085431 268.640699 
L 349.548609 270.26397 
L 350.011787 269.2709 
L 350.474965 269.462352 
L 350.938143 275.503685 
L 351.401321 270.919641 
L 351.8645 269.467308 
L 352.327678 271.227734 
L 352.790856 270.849785 
L 353.254034 273.223253 
L 353.717212 279.601239 
L 354.18039 282.494235 
L 355.106747 297.781345 
L 356.033103 298.324265 
L 356.496281 295.448427 
L 356.959459 294.233 
L 357.422638 295.459351 
L 357.885816 295.185307 
L 358.348994 293.026417 
L 358.812172 295.135966 
L 359.27535 297.993633 
L 360.201707 296.916883 
L 360.664885 299.198359 
L 361.128063 299.376787 
L 362.054419 303.35579 
L 362.517597 303.544609 
L 363.907132 302.102111 
L 364.833488 307.8 
L 365.296666 307.265637 
L 365.759845 303.264986 
L 366.223023 304.904325 
L 366.686201 303.596905 
L 436.626104 277.877927 
L 439.405173 128.934592 
L 439.868351 126.237471 
L 440.331529 128.756407 
L 440.794707 123.937537 
L 441.721064 117.263181 
L 442.184242 118.418876 
L 442.64742 120.594924 
L 443.110598 126.245572 
L 443.573776 125.275361 
L 444.036955 126.919412 
L 444.500133 130.240499 
L 444.963311 130.338437 
L 445.426489 129.262242 
L 445.889667 126.506935 
L 446.352845 125.829738 
L 446.816024 124.061533 
L 447.279202 123.696052 
L 447.74238 120.336014 
L 448.205558 118.075297 
L 448.668736 119.548944 
L 449.131914 119.750787 
L 449.595093 118.851232 
L 450.058271 119.653649 
L 450.521449 118.939046 
L 452.374162 122.785894 
L 452.83734 129.159724 
L 453.300518 131.570598 
L 453.763696 132.794872 
L 454.226874 129.037915 
L 454.690052 127.485834 
L 455.153231 127.920425 
L 455.616409 129.668382 
L 456.079587 130.450018 
L 456.542765 129.7084 
L 457.005943 131.402326 
L 457.9323 132.678552 
L 458.395478 131.650154 
L 459.321834 124.89683 
L 459.785012 123.060047 
L 460.711369 117.526573 
L 461.174547 118.715519 
L 461.637725 118.651364 
L 462.100903 120.864818 
L 462.564081 115.649028 
L 463.027259 114.520881 
L 463.490438 114.028635 
L 463.953616 113.12908 
L 464.416794 109.072876 
L 464.879972 106.733191 
L 465.34315 107.408843 
L 465.806328 108.909505 
L 466.269507 105.559858 
L 466.732685 105.782483 
L 467.195863 105.587407 
L 467.659041 107.580581 
L 468.122219 114.187159 
L 468.585397 113.844538 
L 469.048576 117.04925 
L 469.511754 117.527482 
L 470.43811 121.258223 
L 470.901288 124.423451 
L 471.364466 124.565029 
L 471.827645 129.114278 
L 472.754001 136.292603 
L 473.217179 134.572195 
L 473.680357 134.061246 
L 474.143535 126.2686 
L 474.606714 122.010819 
L 475.069892 116.294205 
L 475.53307 114.875123 
L 475.996248 115.033326 
L 476.459426 116.644128 
L 476.922604 115.25206 
L 477.385783 122.648321 
L 477.848961 124.905415 
L 478.312139 131.056887 
L 478.775317 131.032216 
L 479.701673 133.281264 
L 480.164852 133.742871 
L 480.62803 133.682873 
L 481.091208 134.666085 
L 482.480742 126.873972 
L 482.943921 121.396341 
L 483.407099 121.309327 
L 483.870277 123.751373 
L 484.333455 124.875897 
L 484.796633 123.327972 
L 485.259811 128.382202 
L 485.72299 131.655491 
L 486.186168 136.2276 
L 486.649346 138.243633 
L 487.112524 139.312048 
L 488.03888 135.715373 
L 488.502059 128.857877 
L 489.428415 121.136153 
L 489.891593 120.43194 
L 490.354771 117.865741 
L 490.817949 118.888438 
L 491.281128 124.300103 
L 491.744306 132.294859 
L 492.670662 142.596583 
L 493.13384 145.678687 
L 493.597018 147.345598 
L 494.060197 146.489683 
L 494.523375 147.279631 
L 494.986553 147.32146 
L 495.449731 146.662966 
L 495.912909 146.563483 
L 496.376087 147.108214 
L 496.839266 147.077309 
L 497.302444 150.049273 
L 497.765622 149.702495 
L 498.2288 147.612183 
L 498.691978 150.243337 
L 499.155156 154.102654 
L 500.081513 158.797638 
L 500.544691 157.972895 
L 501.007869 160.092833 
L 501.471047 159.53201 
L 501.934225 158.322817 
L 502.397404 156.469409 
L 502.860582 157.384044 
L 503.32376 155.291654 
L 503.786938 157.748247 
L 504.713294 160.317324 
L 505.639651 157.00535 
L 506.102829 149.231407 
L 507.492363 140.591425 
L 507.955542 140.940814 
L 508.41872 138.707112 
L 508.881898 141.250985 
L 509.345076 145.388769 
L 509.808254 145.262271 
L 510.271432 147.076728 
L 510.734611 146.621888 
L 511.197789 145.057338 
L 511.660967 149.50476 
L 512.124145 149.23695 
L 512.587323 149.609198 
L 513.050501 153.015487 
L 513.51368 154.568102 
L 513.976858 153.865967 
L 514.440036 157.895689 
L 514.903214 155.722253 
L 515.366392 158.665123 
L 515.82957 159.79796 
L 516.292749 160.579596 
L 516.755927 159.715368 
L 517.219105 167.816108 
L 517.682283 168.780618 
L 518.145461 175.322774 
L 518.608639 174.132284 
L 519.071818 175.053153 
L 519.534996 179.057938 
L 519.998174 180.344554 
L 520.461352 174.168678 
L 520.92453 171.864321 
L 521.387708 166.162253 
L 522.314065 161.239744 
L 522.777243 162.420377 
L 523.240421 162.100615 
L 524.166777 166.643896 
L 524.629956 168.038575 
L 525.093134 167.384237 
L 525.556312 173.169961 
L 526.01949 172.077142 
L 526.482668 172.821372 
L 526.945846 174.097598 
L 527.409025 172.395893 
L 527.872203 171.546212 
L 528.335381 172.361098 
L 529.261737 163.111963 
L 529.724915 161.404024 
L 530.188093 161.410525 
L 530.651272 159.910396 
L 531.11445 157.462649 
L 532.503984 169.8095 
L 532.967162 175.755239 
L 533.430341 178.471596 
L 533.893519 182.39949 
L 534.356697 189.779125 
L 535.746231 189.044274 
L 536.20941 184.605698 
L 536.672588 183.209474 
L 537.135766 183.945392 
L 537.598944 180.516777 
L 538.062122 186.113394 
L 538.5253 186.560454 
L 538.988479 186.695798 
L 539.451657 193.073784 
L 539.914835 197.359113 
L 540.378013 195.412191 
L 540.841191 199.691286 
L 541.304369 197.351601 
L 542.230726 203.245654 
L 543.157082 192.026471 
L 543.62026 192.82681 
L 544.083438 196.665346 
L 544.546617 197.320217 
L 545.009795 196.834206 
L 545.472973 195.371483 
L 545.936151 201.653876 
L 546.862507 210.465596 
L 547.325686 209.89646 
L 547.788864 208.932484 
L 548.252042 212.419819 
L 548.71522 211.902636 
L 549.178398 209.423717 
L 549.641576 208.193743 
L 550.104755 203.761401 
L 550.567933 196.945466 
L 551.031111 195.636524 
L 551.494289 190.433203 
L 551.957467 192.189472 
L 552.420645 192.823562 
L 552.883824 190.340487 
L 553.81018 200.586103 
L 554.273358 202.778776 
L 554.736536 201.050055 
L 555.662893 196.430949 
L 556.126071 198.357624 
L 557.052427 190.10806 
L 557.515605 189.516065 
L 557.978783 191.85005 
L 558.441962 191.690302 
L 558.90514 192.135284 
L 559.368318 189.598178 
L 559.831496 190.685296 
L 560.294674 193.064999 
L 560.757852 194.162507 
L 561.221031 194.545146 
L 561.684209 193.788981 
L 562.147387 191.644638 
L 562.610565 194.450353 
L 563.073743 194.126434 
L 564.0001 188.495289 
L 564.463278 188.520493 
L 564.926456 187.843296 
L 565.389634 191.658972 
L 565.852812 192.340859 
L 566.31599 189.595942 
L 566.779169 194.176363 
L 567.705525 199.311906 
L 568.631881 205.469879 
L 569.095059 205.592755 
L 569.558238 205.493272 
L 570.021416 206.374657 
L 570.484594 206.615984 
L 570.947772 203.488695 
L 571.41095 201.200963 
L 571.874128 195.180945 
L 572.337307 192.506684 
L 572.800485 193.400538 
L 573.726841 186.778134 
L 574.190019 187.786284 
L 574.653197 188.098267 
L 575.116376 193.235622 
L 575.579554 195.837682 
L 576.042732 201.712766 
L 576.969088 203.194991 
L 577.432266 201.767596 
L 577.895445 207.308104 
L 579.284979 201.749693 
L 579.748157 197.238383 
L 580.211335 197.421523 
L 580.674514 198.554359 
L 581.137692 200.921593 
L 581.60087 197.615587 
L 582.527226 196.79111 
L 582.990404 194.900297 
L 583.453583 192.406831 
L 583.916761 191.582088 
L 584.379939 191.054515 
L 584.843117 187.542776 
L 585.769473 187.906978 
L 586.232652 186.462958 
L 586.69583 185.594575 
L 587.159008 185.135579 
L 587.622186 184.248493 
L 588.548542 188.006249 
L 589.011721 188.403434 
L 589.474899 193.509617 
L 589.938077 203.692623 
L 590.401255 206.236496 
L 590.864433 207.311145 
L 591.327611 207.843408 
L 591.79079 207.59638 
L 592.253968 210.059207 
L 592.717146 213.679541 
L 593.180324 209.008216 
L 593.643502 210.207552 
L 594.10668 212.840784 
L 594.569859 217.325612 
L 595.033037 218.936414 
L 595.496215 214.915538 
L 596.422571 205.452358 
L 596.885749 207.146284 
L 598.275284 192.178457 
L 598.738462 193.323762 
L 599.20164 190.984077 
L 599.664818 191.215014 
L 600.127997 181.238274 
L 600.591175 181.48168 
L 601.054353 181.267901 
L 601.517531 178.874185 
L 601.980709 174.817981 
L 602.443887 175.262963 
L 602.907066 173.735819 
L 603.370244 176.994562 
L 603.833422 175.072576 
L 604.2966 173.665962 
L 604.759778 176.274257 
L 605.222956 182.238699 
L 605.686135 180.566087 
L 606.612491 186.942262 
L 607.538847 201.148755 
L 608.002025 201.967797 
L 608.465204 198.426964 
L 608.928382 203.171556 
L 609.39156 219.058974 
L 611.707451 212.490335 
L 612.633807 203.633696 
L 613.096985 194.939151 
L 613.560163 189.51555 
L 614.023342 188.158811 
L 614.48652 184.239762 
L 614.949698 164.724497 
L 615.876054 168.370035 
L 616.339232 170.111758 
L 616.802411 174.035496 
L 617.265589 174.307995 
L 617.728767 173.292066 
L 618.655123 178.593858 
L 619.118301 176.572123 
L 619.58148 175.691271 
L 620.044658 172.593076 
L 620.507836 173.168979 
L 620.971014 170.960215 
L 621.434192 170.844107 
L 621.89737 171.243371 
L 622.360549 175.312577 
L 622.823727 177.906325 
L 623.286905 182.856649 
L 623.750083 182.854838 
L 624.213261 186.62064 
L 624.676439 187.647493 
L 625.139618 185.434572 
L 625.602796 180.50764 
L 626.065974 180.135925 
L 626.529152 176.381046 
L 626.99233 173.935377 
L 627.455508 174.509202 
L 627.918686 172.915559 
L 628.381865 174.553376 
L 628.845043 178.807534 
L 629.308221 184.175558 
L 630.697755 210.769932 
L 631.160934 216.632547 
L 631.624112 218.636111 
L 632.08729 222.034088 
L 633.013646 220.031323 
L 633.476824 220.071074 
L 633.940003 217.602546 
L 634.403181 216.042151 
L 635.329537 224.918292 
L 635.792715 228.102224 
L 636.255893 227.283715 
L 636.719072 230.288928 
L 637.18225 229.295858 
L 637.645428 229.491467 
L 638.108606 226.127274 
L 639.961319 203.003132 
L 640.424497 202.346716 
L 640.887675 199.290083 
L 641.350853 197.889703 
L 641.814031 197.056647 
L 643.203566 207.817901 
L 643.666744 206.816518 
L 644.129922 204.167195 
L 645.056279 209.672641 
L 645.519457 208.544494 
L 645.982635 207.725985 
L 646.445813 209.496802 
L 646.908991 211.753896 
L 647.372169 212.791139 
L 648.298526 206.866981 
L 648.761704 202.253843 
L 649.224882 202.031752 
L 649.68806 196.076155 
L 650.151238 182.71833 
L 650.614417 182.093086 
L 651.077595 182.240898 
L 652.003951 192.550935 
L 652.467129 192.418203 
L 652.930307 194.731406 
L 653.393486 204.839599 
L 653.856664 208.058858 
L 654.319842 207.31724 
L 654.78302 202.791383 
L 655.246198 202.309528 
L 655.709376 202.7649 
L 656.172555 204.149188 
L 656.635733 207.626133 
L 657.098911 203.1834 
L 657.562089 202.822076 
L 658.025267 204.48483 
L 658.488445 200.106519 
L 658.951624 197.88113 
L 659.414802 198.633672 
L 659.87798 194.269908 
L 660.341158 200.778815 
L 660.804336 204.766975 
L 661.267514 203.00916 
L 661.730693 206.141138 
L 662.193871 205.530441 
L 662.657049 201.650876 
L 663.120227 202.131186 
L 663.583405 200.115686 
L 664.046583 193.875388 
L 664.509762 191.147096 
L 664.97294 189.619952 
L 665.899296 190.115075 
L 666.362474 187.457439 
L 666.825652 185.558313 
L 667.288831 185.618845 
L 667.752009 184.555119 
L 668.678365 175.79434 
L 669.141543 173.201126 
L 670.0679 165.346403 
L 670.531078 166.017899 
L 670.994256 169.324439 
L 671.457434 176.614715 
L 671.920612 176.671091 
L 672.38379 177.228291 
L 672.846969 179.815804 
L 673.310147 180.229615 
L 673.773325 178.089428 
L 674.236503 174.25766 
L 674.699681 168.520265 
L 675.626038 168.913294 
L 676.089216 169.713633 
L 676.552394 169.50401 
L 677.015572 168.658486 
L 677.47875 173.617123 
L 677.941928 173.116565 
L 678.405107 171.011706 
L 678.868285 168.025729 
L 679.331463 165.958276 
L 679.794641 162.170148 
L 680.257819 163.633404 
L 680.720997 150.244408 
L 681.184176 148.546859 
L 681.647354 156.155086 
L 682.110532 157.859403 
L 682.57371 160.37626 
L 683.036888 160.746431 
L 683.500066 157.86228 
L 683.963245 165.414399 
L 684.426423 167.39926 
L 684.889601 161.229618 
L 685.352779 162.871592 
L 685.815957 163.917148 
L 686.279135 173.742719 
L 686.742314 176.342701 
L 687.205492 179.584819 
L 687.66867 181.156137 
L 688.595026 190.666101 
L 689.058204 190.795211 
L 689.521383 184.922738 
L 689.984561 182.123791 
L 690.447739 180.214274 
L 690.910917 181.999637 
L 691.374095 179.472922 
L 691.837273 175.853121 
L 692.300452 174.118166 
L 692.76363 174.691991 
L 693.226808 177.553815 
L 694.153164 180.297453 
L 694.616342 180.686326 
L 695.079521 180.753092 
L 695.542699 181.630321 
L 696.005877 181.150544 
L 696.469055 178.544861 
L 696.932233 175.292885 
L 697.395411 174.966889 
L 697.85859 174.356191 
L 698.321768 177.116188 
L 698.784946 175.412404 
L 699.248124 177.039831 
L 699.711302 183.852142 
L 700.637659 185.546335 
L 701.100837 183.613959 
L 701.564015 183.019886 
L 702.027193 184.634844 
L 702.490371 181.322603 
L 702.953549 173.027055 
L 703.416728 172.044375 
L 703.879906 167.524753 
L 704.343084 166.328028 
L 705.26944 156.817051 
L 705.732618 159.412877 
L 706.195797 163.976674 
L 706.658975 164.710513 
L 707.122153 168.156286 
L 708.048509 170.097774 
L 708.511687 172.96791 
L 708.974866 169.075877 
L 709.438044 166.370444 
L 709.901222 165.529076 
L 710.3644 161.142453 
L 710.827578 160.920361 
L 711.290756 161.3695 
L 711.753935 162.292447 
L 712.217113 166.577777 
L 712.680291 172.457016 
L 713.143469 176.472192 
L 714.069825 171.688915 
L 714.533004 174.521646 
L 714.996182 173.314531 
L 715.45936 169.626152 
L 715.922538 164.250348 
L 716.385716 162.482143 
L 716.848894 164.91172 
L 717.312073 170.071934 
L 717.775251 169.73139 
L 718.238429 167.400017 
L 718.701607 165.839623 
L 719.164785 162.219822 
L 719.627963 164.636931 
L 720.091142 164.418996 
L 720.55432 162.787946 
L 721.480676 154.825162 
L 721.943854 154.852444 
L 722.407032 155.966577 
L 723.796567 139.918133 
L 724.259745 137.054764 
L 724.722923 141.443999 
L 725.186101 141.660389 
L 725.64928 140.744209 
L 726.575636 136.310056 
L 727.038814 140.046764 
L 727.501992 137.954374 
L 727.96517 129.120595 
L 728.428348 126.386069 
L 728.891527 126.263727 
L 729.354705 122.700035 
L 731.207417 120.701159 
L 731.670596 118.249256 
L 732.133774 117.946119 
L 732.596952 121.82206 
L 733.06013 120.621179 
L 733.523308 116.772786 
L 733.986486 117.452595 
L 734.449665 116.507321 
L 735.376021 103.883336 
L 736.302377 99.841945 
L 736.765555 102.377506 
L 737.228734 100.463833 
L 737.691912 99.121641 
L 738.15509 99.635201 
L 738.618268 101.156644 
L 739.544624 102.595229 
L 740.007803 102.331576 
L 740.470981 103.726254 
L 740.934159 108.946733 
L 741.397337 117.080722 
L 741.860515 119.373144 
L 742.323693 120.53923 
L 742.786872 116.767727 
L 743.25005 117.339474 
L 743.713228 119.392913 
L 744.639584 110.636291 
L 745.102762 108.801586 
L 745.565941 103.639828 
L 746.029119 104.911897 
L 746.955475 90.8935 
L 747.418653 89.237513 
L 747.881831 85.414057 
L 748.34501 82.596407 
L 748.808188 81.083809 
L 749.271366 80.626892 
L 749.734544 79.203653 
L 750.197722 80.866408 
L 750.6609 79.798526 
L 751.587257 85.941952 
L 752.050435 87.504957 
L 752.513613 85.136178 
L 752.976791 90.641358 
L 753.903148 98.459741 
L 754.366326 94.156242 
L 754.829504 93.177719 
L 755.292682 92.585724 
L 755.75586 92.760552 
L 756.219038 90.287868 
L 756.682217 82.759142 
L 757.145395 78.763203 
L 757.608573 76.001661 
L 758.534929 77.633511 
L 758.998107 77.299201 
L 759.461286 80.316884 
L 759.924464 87.345318 
L 760.387642 88.062533 
L 760.85082 90.064019 
L 761.313998 90.430033 
L 761.777176 91.887055 
L 762.240355 97.323657 
L 762.703533 95.725857 
L 763.166711 90.360444 
L 763.629889 90.497866 
L 764.093067 95.622752 
L 764.556245 95.645877 
L 765.019424 100.251236 
L 765.482602 96.895355 
L 766.408958 111.426033 
L 766.872136 113.886782 
L 767.335314 113.377911 
L 767.798493 110.903149 
L 768.261671 106.855257 
L 768.724849 108.601136 
L 769.651205 89.628525 
L 770.114383 93.556419 
L 770.577562 96.123152 
L 771.04074 102.208125 
L 771.503918 105.689225 
L 771.967096 105.049434 
L 772.893452 116.722711 
L 773.356631 106.85819 
L 773.819809 107.122376 
L 774.282987 105.848761 
L 774.746165 103.166188 
L 775.209343 101.853089 
L 775.672521 104.627632 
L 776.1357 104.459572 
L 776.598878 112.435625 
L 777.525234 108.44203 
L 777.988412 104.813917 
L 778.45159 106.661623 
L 778.914769 99.502801 
L 779.377947 97.462363 
L 779.841125 91.446502 
L 780.304303 87.197033 
L 780.767481 85.270892 
L 781.230659 82.83977 
L 781.693838 78.207929 
L 782.157016 78.255992 
L 782.620194 74.904267 
L 783.083372 69.746665 
L 783.54655 67.471401 
L 784.009728 67.733509 
L 784.936085 71.252283 
L 785.399263 71.915466 
L 785.862441 73.680048 
L 786.325619 80.263767 
L 786.788797 85.166296 
L 787.251976 85.817011 
L 788.178332 90.476666 
L 788.64151 91.655221 
L 789.104688 89.733236 
L 790.031045 84.446791 
L 790.494223 76.356975 
L 790.957401 74.873471 
L 791.420579 76.293087 
L 791.883757 72.741863 
L 792.346935 66.863157 
L 792.810114 67.648949 
L 793.273292 73.309987 
L 793.73647 81.06576 
L 794.199648 81.577242 
L 794.662826 80.191409 
L 795.126004 83.059468 
L 795.589183 90.474431 
L 796.052361 89.489673 
L 796.515539 86.879833 
L 796.978717 89.153552 
L 797.905073 95.866381 
L 798.368252 94.526266 
L 798.83143 94.162864 
L 799.757786 106.272544 
L 800.220964 105.408317 
L 800.684142 106.416467 
L 801.147321 104.629559 
L 801.610499 109.301417 
L 802.073677 108.626297 
L 803.000033 100.104501 
L 803.463211 100.605592 
L 803.92639 102.401346 
L 804.389568 101.364636 
L 804.852746 98.499189 
L 805.315924 101.618698 
L 805.779102 106.997114 
L 806.24228 108.346074 
L 806.705459 106.505135 
L 807.168637 103.687484 
L 808.094993 107.547068 
L 808.558171 106.558154 
L 809.021349 106.178126 
L 809.484528 108.786421 
L 809.947706 112.46702 
L 810.410884 112.880831 
L 810.874062 117.922592 
L 811.33724 117.611142 
L 811.800418 116.133873 
L 812.263597 117.47452 
L 812.726775 116.367154 
L 813.653131 105.01705 
L 814.116309 96.231068 
L 814.579487 92.812843 
L 815.042666 90.277816 
L 815.505844 85.963926 
L 815.969022 85.565195 
L 816.4322 88.302333 
L 816.895378 96.646211 
L 817.358556 101.775253 
L 817.821735 101.58849 
L 818.284913 105.395854 
L 818.748091 106.877813 
L 819.211269 107.399685 
L 819.674447 106.387912 
L 820.137625 104.060696 
L 820.600804 97.56479 
L 821.063982 88.529435 
L 821.52716 89.225868 
L 821.990338 88.662967 
L 822.453516 87.316618 
L 822.916694 88.175144 
L 823.379873 87.776413 
L 823.843051 93.948667 
L 824.306229 108.447907 
L 825.232585 106.569829 
L 825.695763 107.852289 
L 826.158941 109.625183 
L 826.62212 112.108791 
L 827.085298 115.648079 
L 827.548476 114.470058 
L 828.011654 114.393434 
L 828.93801 119.66821 
L 829.401189 119.315198 
L 829.864367 116.177519 
L 830.327545 108.746464 
L 830.790723 108.038095 
L 831.253901 109.688381 
L 831.717079 109.96088 
L 832.180258 107.50482 
L 832.643436 110.551596 
L 833.106614 111.29167 
L 833.569792 113.72956 
L 834.03297 112.331258 
L 834.496148 110.132884 
L 834.959327 109.85884 
L 835.422505 106.461397 
L 835.885683 101.017016 
L 836.348861 99.159452 
L 836.812039 96.826001 
L 837.738396 94.52191 
L 838.201574 93.333498 
L 838.664752 97.63753 
L 839.12793 103.878361 
L 839.591108 104.653763 
L 840.054286 107.91874 
L 840.517465 106.695 
L 841.906999 97.402491 
L 842.370177 93.965564 
L 842.833355 93.772566 
L 843.296534 92.756637 
L 843.759712 93.359556 
L 844.22289 99.163984 
L 844.686068 101.761888 
L 845.149246 107.666065 
L 845.612424 106.643901 
L 846.075603 109.227259 
L 846.538781 110.389189 
L 847.001959 119.009455 
L 847.465137 116.781988 
L 847.928315 117.669608 
L 848.391493 116.304556 
L 848.854672 116.238323 
L 849.31785 116.693696 
L 849.781028 118.713885 
L 850.244206 118.362951 
L 850.707384 119.28382 
L 851.170562 119.828552 
L 851.633741 120.020005 
L 852.096919 123.21017 
L 853.023275 112.774435 
L 853.486453 107.438115 
L 854.875988 115.175718 
L 855.339166 113.517653 
L 855.802344 119.041536 
L 856.265522 122.38756 
L 856.7287 122.628887 
L 857.191879 121.037321 
L 857.655057 116.407559 
L 858.118235 115.298114 
L 858.581413 112.054451 
L 859.044591 113.201835 
L 859.507769 113.927362 
L 859.970948 115.72935 
L 860.434126 111.043478 
L 860.897304 115.098137 
L 861.82366 112.018911 
L 862.286838 108.438594 
L 863.213195 112.796924 
L 863.676373 118.761367 
L 864.139551 121.585785 
L 864.602729 125.228978 
L 865.065907 134.76777 
L 865.529086 138.483697 
L 865.992264 140.890415 
L 866.455442 139.683299 
L 867.381798 144.70039 
L 867.844976 147.10503 
L 868.771333 149.576436 
L 869.234511 147.309485 
L 869.697689 148.855865 
L 870.160867 151.318692 
L 870.624045 148.297387 
L 871.087224 148.441043 
L 871.550402 144.63629 
L 872.01358 146.481918 
L 872.476758 152.647937 
L 872.939936 149.44168 
L 873.403114 143.656488 
L 873.866293 140.431528 
L 874.329471 140.992884 
L 874.792649 141.282008 
L 875.255827 138.547482 
L 875.719005 129.682531 
L 876.182183 135.073415 
L 876.645362 135.643084 
L 877.10854 139.090935 
L 877.571718 133.765006 
L 878.034896 134.209988 
L 878.498074 133.5224 
L 878.961252 138.688848 
L 879.887609 128.810046 
L 880.350787 130.003148 
L 880.813965 134.751896 
L 881.277143 136.580899 
L 881.740321 135.984748 
L 882.2035 133.792609 
L 882.666678 139.212586 
L 883.129856 146.97875 
L 883.593034 145.044296 
L 884.056212 142.274442 
L 884.51939 140.562346 
L 885.445747 143.212469 
L 886.835281 131.692227 
L 887.761638 134.697707 
L 888.224816 136.541258 
L 888.687994 133.995839 
L 889.151172 139.85222 
L 889.61435 143.052776 
L 890.077528 150.309803 
L 890.540707 151.669153 
L 891.003885 152.666913 
L 891.467063 152.766928 
L 891.930241 155.271318 
L 892.393419 152.08792 
L 892.856597 152.214951 
L 893.319776 151.81622 
L 894.246132 147.67508 
L 894.70931 148.516981 
L 895.172488 148.739606 
L 896.098845 155.321513 
L 896.562023 155.714543 
L 897.025201 152.061492 
L 897.488379 150.515645 
L 897.951557 146.247473 
L 898.414735 144.161317 
L 898.877914 139.608445 
L 899.341092 138.010645 
L 899.80427 134.47189 
L 900.267448 137.603868 
L 900.730626 137.182279 
L 901.193804 138.886595 
L 901.656983 138.50449 
L 902.120161 135.921666 
L 902.583339 130.244536 
L 903.046517 117.520535 
L 903.509695 111.670921 
L 903.972873 113.982046 
L 904.436052 110.790336 
L 904.89923 109.435675 
L 905.825586 118.47183 
L 906.288764 127.006895 
L 906.751942 128.183372 
L 907.215121 124.702804 
L 907.678299 125.232988 
L 908.141477 127.751924 
L 908.604655 126.461685 
L 909.067833 124.801541 
L 909.531011 125.878269 
L 909.99419 130.169833 
L 910.920546 131.541918 
L 911.383724 130.268303 
L 911.846902 124.674298 
L 912.31008 122.170442 
L 912.773259 121.858992 
L 913.236437 119.257465 
L 914.162793 119.316185 
L 914.625971 117.134436 
L 915.089149 120.081463 
L 915.552328 119.566358 
L 916.015506 117.089517 
L 916.478684 117.328767 
L 916.941862 117.414236 
L 917.40504 113.071252 
L 917.868218 111.548264 
L 918.331397 110.453367 
L 918.794575 107.970292 
L 919.257753 111.823375 
L 919.720931 111.117084 
L 920.184109 110.830571 
L 920.647287 113.025322 
L 921.573644 113.456024 
L 922.036822 115.700649 
L 922.5 115.43284 
L 923.426356 121.910842 
L 923.889534 120.869975 
L 924.815891 123.328912 
L 925.742247 128.082083 
L 926.205425 123.574929 
L 926.668603 115.347958 
L 927.131782 110.977959 
L 927.59496 109.112083 
L 928.058138 101.922089 
L 928.521316 97.944853 
L 928.984494 89.942318 
L 929.447672 92.392676 
L 929.910851 92.773237 
L 930.374029 95.50414 
L 930.837207 94.116229 
L 931.300385 101.034524 
L 931.763563 105.141136 
L 932.226741 111.32378 
L 932.68992 112.556366 
L 933.153098 117.65008 
L 934.542632 126.784173 
L 935.00581 126.45402 
L 935.468989 125.240671 
L 935.932167 124.802456 
L 936.395345 122.780721 
L 937.321701 127.527391 
L 937.784879 133.148945 
L 938.248058 131.997939 
L 938.711236 131.468288 
L 939.637592 129.313821 
L 940.10077 125.926768 
L 941.027127 115.653125 
L 941.953483 109.83495 
L 942.416661 106.190212 
L 942.879839 105.675107 
L 943.343017 106.21776 
L 944.269374 109.946423 
L 944.732552 109.508208 
L 945.19573 113.544165 
L 945.658908 116.258443 
L 958.627897 110.136597 
L 959.091075 107.643132 
L 959.554253 101.993017 
L 960.017431 94.017498 
L 960.48061 88.120088 
L 960.943788 77.241449 
L 961.406966 72.27711 
L 961.870144 70.41539 
L 962.333322 70.739842 
L 962.7965 70.262143 
L 963.259679 72.138943 
L 963.722857 71.960492 
L 964.186035 77.089535 
L 964.649213 77.873249 
L 965.112391 80.103327 
L 965.575569 80.43817 
L 966.038748 81.681146 
L 966.501926 81.872599 
L 966.965104 83.730695 
L 967.428282 79.3794 
L 967.89146 78.373861 
L 968.354638 79.292652 
L 968.817817 83.12911 
L 969.280995 75.492322 
L 970.207351 71.367807 
L 970.670529 71.322355 
L 971.133707 72.243224 
L 971.596886 72.839909 
L 972.060064 69.465324 
L 972.523242 73.000456 
L 972.98642 71.556436 
L 973.449598 74.877523 
L 973.912776 75.584347 
L 974.839133 71.624002 
L 975.302311 70.867837 
L 976.228667 85.812059 
L 976.691845 82.414616 
L 977.155024 84.058667 
L 977.618202 88.570511 
L 978.08138 91.049962 
L 978.544558 90.503686 
L 979.007736 86.025626 
L 979.470914 78.773288 
L 979.934093 80.332137 
L 980.397271 74.497071 
L 981.323627 70.509711 
L 981.786805 69.358705 
L 982.249983 67.661155 
L 982.713162 71.235771 
L 983.17634 70.593902 
L 983.639518 76.450282 
L 984.102696 74.534531 
L 984.565874 70.918887 
L 985.029052 71.61532 
L 985.492231 71.066966 
L 985.955409 69.111731 
L 986.418587 72.378786 
L 986.881765 73.846198 
L 987.344943 72.780394 
L 987.808121 73.871669 
L 988.2713 74.354057 
L 988.734478 76.625698 
L 989.197656 77.226538 
L 989.660834 69.947185 
L 990.124012 69.810297 
L 990.58719 72.784339 
L 991.050369 73.701052 
L 992.439903 63.122193 
L 992.903081 63.07882 
L 993.829438 56.153012 
L 994.292616 55.8 
L 994.755794 57.888767 
L 995.218972 56.382404 
L 995.68215 57.943331 
L 996.145328 64.487566 
L 996.608507 67.644482 
L 997.071685 68.658866 
L 997.534863 70.797508 
L 997.998041 72.339732 
L 998.461219 76.334126 
L 998.924397 77.479431 
L 999.387576 79.283497 
L 1000.313932 92.085188 
L 1000.77711 93.546366 
L 1001.240288 97.004608 
L 1001.703466 97.087999 
L 1002.166645 104.137214 
L 1002.629823 101.830779 
L 1003.556179 94.850941 
L 1004.019357 95.273063 
L 1004.482535 94.880567 
L 1004.945714 95.986388 
L 1005.408892 93.337065 
L 1005.87207 94.798243 
L 1006.335248 92.365042 
L 1006.798426 91.96839 
L 1007.261604 94.175609 
L 1007.724783 91.15846 
L 1008.187961 88.966321 
L 1009.114317 89.232852 
L 1009.577495 95.735525 
L 1010.040673 98.476818 
L 1010.503852 101.937138 
L 1010.96703 104.439449 
L 1011.430208 108.313313 
L 1011.893386 109.535508 
L 1012.356564 112.197833 
L 1013.746099 98.385436 
L 1014.209277 99.705302 
L 1014.672455 96.729715 
L 1015.135633 98.554563 
L 1015.598811 97.640461 
L 1016.06199 99.280356 
L 1016.525168 107.765546 
L 1016.988346 108.534713 
L 1017.451524 107.456441 
L 1017.914702 111.486163 
L 1018.37788 110.102408 
L 1018.841059 111.104323 
L 1019.304237 109.390149 
L 1019.767415 103.259991 
L 1020.230593 103.193758 
L 1020.693771 101.047337 
L 1021.156949 99.653192 
L 1021.620127 98.778574 
L 1022.083306 96.164578 
L 1023.009662 100.998796 
L 1023.47284 99.876883 
L 1023.936018 102.720004 
L 1024.399196 106.67907 
L 1024.862375 106.577509 
L 1025.325553 112.055674 
L 1025.788731 115.144012 
L 1026.251909 117.301356 
L 1027.178265 126.547401 
L 1027.641444 128.014813 
L 1028.104622 125.816439 
L 1028.5678 120.987178 
L 1029.030978 117.583501 
L 1029.494156 122.005985 
L 1029.957334 119.80969 
L 1030.420513 116.829947 
L 1030.883691 111.711828 
L 1031.346869 123.875273 
L 1032.273225 132.154996 
L 1032.736403 124.148305 
L 1033.199582 123.437858 
L 1033.66276 126.453462 
L 1034.125938 126.200199 
L 1034.589116 119.567139 
L 1035.052294 119.085284 
L 1035.515472 113.179562 
L 1035.978651 117.984418 
L 1036.441829 121.128865 
L 1036.905007 120.349841 
L 1037.368185 121.187586 
L 1037.831363 120.626763 
L 1038.294541 118.773355 
L 1038.75772 120.756139 
L 1039.220898 116.508748 
L 1039.684076 114.809121 
L 1040.147254 113.64149 
L 1040.610432 116.603063 
L 1041.07361 113.995301 
L 1041.536789 112.968982 
L 1041.999967 114.386519 
L 1042.463145 114.731752 
L 1042.926323 119.977168 
L 1043.389501 117.506562 
L 1043.852679 116.488555 
L 1044.315858 119.069834 
L 1045.705392 111.865826 
L 1046.16857 107.375297 
L 1046.631748 110.378433 
L 1047.094927 110.667557 
L 1047.558105 109.113397 
L 1048.021283 114.520906 
L 1048.484461 116.883983 
L 1048.947639 120.053368 
L 1049.873996 113.422652 
L 1050.337174 114.195975 
L 1050.800352 116.467616 
L 1051.26353 113.959604 
L 1052.189886 121.967095 
L 1052.653065 130.4793 
L 1053.116243 128.438863 
L 1053.579421 130.477755 
L 1054.042599 129.000485 
L 1054.505777 131.79581 
L 1054.968955 129.341829 
L 1055.432134 131.098098 
L 1055.895312 120.957188 
L 1056.35849 127.135676 
L 1056.821668 126.217418 
L 1057.284846 126.423417 
L 1057.748024 125.139412 
L 1058.211203 125.264365 
L 1058.674381 115.742731 
L 1059.600737 125.269321 
L 1060.063915 126.740889 
L 1060.527093 130.207443 
L 1060.990272 129.282951 
L 1061.45345 125.075045 
L 1061.916628 126.619347 
L 1062.379806 127.230578 
L 1063.769341 109.673426 
L 1064.232519 108.969213 
L 1064.695697 111.783241 
L 1065.158875 111.523744 
L 1065.622053 111.684025 
L 1066.085231 112.376302 
L 1066.54841 110.364958 
L 1067.011588 113.91048 
L 1067.474766 112.595303 
L 1067.937944 108.767691 
L 1068.401122 112.390104 
L 1068.8643 109.489329 
L 1069.327479 110.196153 
L 1069.790657 114.169765 
L 1070.253835 116.279314 
L 1070.717013 115.635366 
L 1071.180191 122.246101 
L 1071.643369 119.99993 
L 1072.106548 126.436104 
L 1072.569726 129.343646 
L 1073.032904 130.235422 
L 1073.496082 125.111069 
L 1073.95926 125.281741 
L 1074.422438 120.151154 
L 1074.885617 119.006382 
L 1075.811973 102.105646 
L 1076.275151 97.933068 
L 1076.738329 98.594173 
L 1078.127864 110.529559 
L 1079.05422 123.150454 
L 1079.517398 123.875981 
L 1079.980576 126.833398 
L 1080.906933 118.669037 
L 1081.370111 115.865933 
L 1081.833289 114.941441 
L 1082.296467 108.757252 
L 1082.759645 108.17357 
L 1083.222824 100.474439 
L 1083.686002 101.197888 
L 1084.14918 97.314167 
L 1085.075536 83.274988 
L 1085.538714 79.139816 
L 1086.001893 77.512923 
L 1086.465071 82.147374 
L 1086.928249 79.888735 
L 1087.391427 83.376071 
L 1087.854605 89.54209 
L 1088.317783 90.423475 
L 1088.780962 96.475198 
L 1089.24414 93.040348 
L 1089.707318 90.615461 
L 1090.170496 86.081291 
L 1090.633674 86.821365 
L 1091.096852 86.832022 
L 1091.560031 95.589444 
L 1092.023209 95.41515 
L 1092.486387 101.95315 
L 1092.949565 106.679039 
L 1093.412743 114.378703 
L 1093.875921 114.701077 
L 1094.3391 113.971927 
L 1094.802278 109.011745 
L 1095.265456 111.561852 
L 1095.728634 109.544274 
L 1096.191812 109.099825 
L 1096.65499 107.797117 
L 1097.118169 109.019312 
L 1097.581347 107.61062 
L 1098.044525 107.687777 
L 1098.507703 100.913404 
L 1099.434059 94.598561 
L 1099.897238 94.251783 
L 1100.360416 93.082074 
L 1100.823594 95.815055 
L 1101.286772 93.20106 
L 1101.74995 97.237016 
L 1102.213128 104.421309 
L 1102.676307 108.419859 
L 1103.139485 109.718944 
L 1103.602663 110.409143 
L 1104.065841 108.574439 
L 1104.529019 110.077179 
L 1104.992197 112.184649 
L 1105.455376 111.260157 
L 1105.918554 112.276619 
L 1106.381732 113.891577 
L 1106.84491 113.964577 
L 1107.308088 114.604902 
L 1107.771266 111.467222 
L 1108.234445 110.999914 
L 1108.697623 110.748729 
L 1109.160801 104.753649 
L 1109.623979 101.011239 
L 1110.087157 95.371515 
L 1110.550335 96.387977 
L 1111.013514 102.664136 
L 1111.476692 103.271211 
L 1111.93987 100.326796 
L 1112.403048 104.433408 
L 1112.866226 107.168467 
L 1113.329404 111.678232 
L 1113.792583 114.870476 
L 1114.718939 109.023207 
L 1115.182117 108.476931 
L 1116.108473 105.740593 
L 1116.571652 103.650281 
L 1117.03483 100.001387 
L 1117.498008 97.838341 
L 1117.961186 102.954914 
L 1118.424364 104.008782 
L 1118.887542 102.425529 
L 1119.35072 96.729696 
L 1119.813899 95.069553 
L 1120.740255 96.728418 
L 1121.203433 93.243694 
L 1122.129789 91.511083 
L 1122.592968 97.09731 
L 1123.056146 101.116641 
L 1123.519324 103.481797 
L 1123.982502 105.250535 
L 1124.44568 104.465276 
L 1125.372037 104.536465 
L 1125.835215 103.175569 
L 1126.298393 103.331694 
L 1126.761571 99.819955 
L 1127.224749 98.336451 
L 1128.151106 93.216521 
L 1128.614284 88.314526 
L 1129.077462 88.965241 
L 1129.54064 87.743579 
L 1130.003818 88.018156 
L 1130.466996 94.531219 
L 1130.930175 96.919234 
L 1131.393353 102.251931 
L 1132.782887 122.462351 
L 1133.246065 126.679103 
L 1133.709244 123.97367 
L 1134.172422 127.808049 
L 1134.6356 129.703552 
L 1135.098778 130.343877 
L 1135.561956 125.061588 
L 1136.025134 117.618064 
L 1136.951491 111.596235 
L 1137.414669 105.021361 
L 1137.877847 102.960143 
L 1138.341025 98.214006 
L 1138.804203 98.875111 
L 1139.267382 100.450585 
L 1139.73056 99.646623 
L 1140.193738 99.640656 
L 1140.656916 107.026525 
L 1141.120094 108.907481 
L 1141.583272 112.822907 
L 1142.509629 109.907852 
L 1142.972807 117.277097 
L 1143.435985 120.209576 
L 1143.899163 114.530368 
L 1144.82552 106.63824 
L 1145.751876 115.859347 
L 1146.215054 111.576629 
L 1146.678232 110.61473 
L 1147.14141 111.498194 
L 1147.604589 114.858764 
L 1148.067767 125.53636 
L 1148.994123 120.684506 
L 1149.457301 120.541383 
L 1149.920479 121.067412 
L 1150.383658 128.332751 
L 1150.846836 124.53631 
L 1151.310014 118.345887 
L 1151.773192 117.970016 
L 1152.23637 121.010557 
L 1152.699548 121.625945 
L 1153.162727 121.994037 
L 1153.625905 115.479428 
L 1154.089083 117.140105 
L 1154.552261 120.303255 
L 1155.015439 126.963864 
L 1155.478617 125.956247 
L 1155.941796 128.682994 
L 1156.404974 130.007017 
L 1156.868152 133.286541 
L 1157.33133 138.92472 
L 1157.794508 139.706356 
L 1158.257686 133.88168 
L 1158.720865 130.741922 
L 1159.184043 129.121263 
L 1159.647221 131.249514 
L 1160.110399 130.703238 
L 1160.573577 127.152015 
L 1161.036755 121.121606 
L 1161.499934 118.27694 
L 1162.42629 121.610762 
L 1162.889468 125.062769 
L 1163.352646 125.428783 
L 1163.815824 130.954744 
L 1164.279003 138.475691 
L 1164.742181 142.842066 
L 1165.205359 141.803278 
L 1165.668537 142.269041 
L 1166.131715 136.822581 
L 1166.594893 136.542303 
L 1167.058072 128.967859 
L 1167.52125 123.812334 
L 1167.984428 126.516222 
L 1168.447606 128.189367 
L 1169.373962 125.814621 
L 1169.837141 128.50604 
L 1170.300319 129.607704 
L 1170.763497 132.477841 
L 1171.226675 125.16316 
L 1171.689853 127.605206 
L 1172.153031 126.011562 
L 1172.61621 127.109071 
L 1173.079388 125.189164 
L 1173.542566 130.021036 
L 1174.005744 130.889953 
L 1174.468922 136.316165 
L 1174.9321 139.404503 
L 1175.395279 138.885242 
L 1175.858457 139.880923 
L 1176.321635 141.477178 
L 1176.784813 141.04312 
L 1177.711169 150.677771 
L 1178.174348 145.644855 
L 1178.637526 147.176689 
L 1179.100704 147.607124 
L 1179.563882 148.991412 
L 1180.02706 151.003289 
L 1180.953417 141.587906 
L 1181.879773 145.906751 
L 1182.342951 145.472693 
L 1183.732486 134.598743 
L 1184.195664 133.096536 
L 1184.658842 134.295872 
L 1185.12202 136.135266 
L 1185.585198 137.006261 
L 1186.048376 139.423369 
L 1186.511555 140.242411 
L 1186.974733 138.064818 
L 1187.437911 134.551001 
L 1187.901089 133.044638 
L 1188.364267 127.878723 
L 1188.827445 127.249322 
L 1189.753802 133.307546 
L 1190.680158 146.828263 
L 1191.143336 146.092878 
L 1191.606514 147.647571 
L 1192.069693 146.656579 
L 1192.532871 141.995645 
L 1192.996049 139.882474 
L 1193.459227 139.53154 
L 1193.922405 139.718836 
L 1194.385583 144.257695 
L 1194.848762 144.943738 
L 1195.31194 143.682592 
L 1195.775118 147.886875 
L 1197.164652 155.784493 
L 1197.627831 154.714533 
L 1198.091009 157.570122 
L 1198.554187 159.237033 
L 1199.017365 155.856215 
L 1199.480543 154.474538 
L 1199.943721 153.838903 
L 1200.4069 151.023331 
L 1200.870078 152.594648 
L 1201.333256 151.096598 
L 1201.796434 151.990452 
L 1202.72279 154.835917 
L 1203.185969 157.866068 
L 1203.649147 158.870062 
L 1204.112325 157.937257 
L 1204.575503 162.960316 
L 1205.501859 179.741587 
L 1206.428216 176.184396 
L 1206.891394 171.028872 
L 1207.354572 167.315556 
L 1207.81775 160.738604 
L 1208.744107 155.190583 
L 1209.207285 163.837866 
L 1209.670463 167.711729 
L 1210.133641 179.57177 
L 1211.059997 191.52767 
L 1211.986354 193.888936 
L 1212.449532 194.741228 
L 1212.91271 187.908668 
L 1213.375888 183.289296 
L 1213.839066 183.524389 
L 1214.302245 182.404555 
L 1214.765423 179.85498 
L 1215.228601 182.922537 
L 1215.691779 178.885036 
L 1216.154957 180.948866 
L 1216.618135 180.167763 
L 1217.081314 182.175484 
L 1217.544492 187.067621 
L 1218.00767 188.95689 
L 1218.470848 181.342962 
L 1218.934026 177.852003 
L 1219.397204 179.932458 
L 1219.860382 179.305135 
L 1220.323561 176.84492 
L 1220.786739 178.549236 
L 1221.249917 179.089812 
L 1221.713095 180.434615 
L 1222.176273 186.625572 
L 1222.639451 191.226774 
L 1223.10263 191.871255 
L 1223.565808 190.890653 
L 1224.028986 187.146166 
L 1224.492164 188.867107 
L 1224.955342 194.50113 
L 1225.41852 192.510567 
L 1225.881699 187.89743 
L 1226.344877 184.666235 
L 1226.808055 185.64737 
L 1228.197589 173.5411 
L 1229.123946 166.226686 
L 1230.050302 171.210527 
L 1230.51348 171.539135 
L 1230.976658 168.07727 
L 1231.439837 167.724258 
L 1231.903015 165.370026 
L 1232.366193 167.180327 
L 1232.829371 166.681847 
L 1233.292549 163.124389 
L 1233.755727 165.566435 
L 1234.218906 166.859286 
L 1234.682084 166.709929 
L 1235.145262 168.347746 
L 1235.60844 169.150163 
L 1236.071618 172.972074 
L 1236.534796 168.797417 
L 1236.997975 167.016744 
L 1237.461153 169.68946 
L 1237.924331 171.055045 
L 1238.387509 170.835031 
L 1238.850687 171.182342 
L 1239.313865 173.042517 
L 1239.777044 180.598792 
L 1240.240222 179.445708 
L 1240.7034 176.19581 
L 1241.166578 174.165763 
L 1241.629756 173.376348 
L 1242.092934 175.97633 
L 1243.019291 158.323319 
L 1243.945647 164.942632 
L 1244.408825 173.822663 
L 1244.872003 174.716517 
L 1245.335182 172.667767 
L 1245.79836 178.933535 
L 1246.261538 182.759602 
L 1246.724716 179.993904 
L 1247.187894 178.778477 
L 1247.651072 173.566843 
L 1248.114251 171.557577 
L 1248.577429 167.493061 
L 1249.503785 156.411033 
L 1249.966963 154.883889 
L 1250.430141 149.582897 
L 1250.89332 141.51594 
L 1251.819676 137.935624 
L 1252.282854 140.947071 
L 1252.746032 141.292304 
L 1253.20921 144.553126 
L 1253.672389 144.563783 
L 1254.135567 148.788847 
L 1254.598745 150.006886 
L 1255.061923 150.025855 
L 1255.525101 148.945505 
L 1255.988279 154.155593 
L 1256.914636 153.048494 
L 1257.377814 150.941557 
L 1257.840992 147.621004 
L 1258.30417 150.530624 
L 1258.767348 147.567506 
L 1259.230527 140.944836 
L 1259.693705 142.836182 
L 1260.156883 138.858946 
L 1260.620061 137.93861 
L 1261.083239 146.182739 
L 1261.546417 144.433237 
L 1262.009596 148.415163 
L 1262.472774 149.412922 
L 1262.935952 147.765247 
L 1263.39913 151.489487 
L 1263.862308 149.773235 
L 1264.325486 146.799726 
L 1264.788665 150.75048 
L 1265.251843 147.419536 
L 1265.715021 150.987917 
L 1266.178199 153.091231 
L 1266.641377 148.33886 
L 1267.104555 151.317058 
L 1267.567734 151.446168 
L 1268.030912 153.684559 
L 1268.49409 157.820264 
L 1269.420446 150.113087 
L 1269.883624 152.638258 
L 1270.346803 149.984778 
L 1270.809981 150.0557 
L 1271.273159 146.7871 
L 1271.736337 147.57497 
L 1272.199515 148.871977 
L 1272.662693 151.417928 
L 1273.125872 154.653812 
L 1273.58905 154.670704 
L 1274.515406 143.960658 
L 1274.978584 136.837163 
L 1275.904941 133.12827 
L 1276.368119 130.630649 
L 1277.294475 140.50636 
L 1277.757653 142.730205 
L 1278.220831 147.185939 
L 1278.68401 146.523289 
L 1279.147188 144.68235 
L 1279.610366 147.107771 
L 1280.073544 147.546519 
L 1280.536722 145.930015 
L 1280.9999 146.237842 
L 1281.463079 145.77469 
L 1281.926257 145.774957 
L 1282.389435 152.21113 
L 1282.852613 153.767901 
L 1283.778969 149.782619 
L 1284.705326 153.756499 
L 1285.168504 158.374326 
L 1285.631682 154.648541 
L 1286.09486 153.271021 
L 1286.558038 155.268351 
L 1287.021217 159.414447 
L 1287.484395 161.257997 
L 1287.947573 162.266147 
L 1288.410751 161.915213 
L 1288.873929 162.480726 
L 1289.337107 163.69253 
L 1289.800286 160.114292 
L 1290.263464 159.252143 
L 1290.726642 156.658928 
L 1291.18982 151.332998 
L 1291.652998 152.30582 
L 1292.116176 151.535108 
L 1292.579355 147.589044 
L 1293.042533 147.969605 
L 1293.505711 146.72924 
L 1293.968889 147.190847 
L 1294.432067 152.188968 
L 1294.895245 152.731621 
L 1295.358424 151.480865 
L 1295.821602 151.41671 
L 1296.28478 147.983939 
L 1296.747958 147.315054 
L 1297.211136 144.009048 
L 1297.674314 137.255457 
L 1298.137493 127.846041 
L 1298.600671 130.333806 
L 1299.063849 130.629164 
L 1299.527027 133.9835 
L 1299.990205 127.901139 
L 1300.453383 128.545619 
L 1300.916562 129.975626 
L 1301.37974 130.734402 
L 1301.842918 127.571785 
L 1302.306096 126.393764 
L 1302.769274 125.75605 
L 1303.232452 128.763342 
L 1303.695631 126.429891 
L 1304.158809 122.899449 
L 1304.621987 121.790005 
L 1305.085165 125.981819 
L 1305.548343 123.839554 
L 1306.011521 119.73971 
L 1306.4747 121.344277 
L 1306.937878 122.321256 
L 1307.401056 121.947462 
L 1307.864234 125.073206 
L 1308.327412 116.677909 
L 1308.79059 114.427582 
L 1309.253769 117.314343 
L 1309.716947 116.448038 
L 1310.180125 117.183956 
L 1310.643303 121.566956 
L 1311.106481 124.202266 
L 1311.569659 127.849616 
L 1312.032838 136.929145 
L 1312.496016 140.268935 
L 1313.422372 151.083952 
L 1313.88555 160.818086 
L 1314.348728 162.12964 
L 1314.811907 164.53428 
L 1315.738263 154.672103 
L 1316.664619 143.043532 
L 1317.127797 129.721036 
L 1318.054154 126.955604 
L 1318.517332 127.735162 
L 1318.98051 129.578712 
L 1319.443688 133.051501 
L 1319.906866 138.384198 
L 1320.370044 142.39106 
L 1320.833223 142.989823 
L 1321.296401 141.094853 
L 1321.759579 141.242665 
L 1322.222757 144.38919 
L 1322.685935 141.926897 
L 1323.149113 138.701936 
L 1323.612292 139.780742 
L 1324.538648 148.5509 
L 1325.001826 150.325872 
L 1325.465004 150.267952 
L 1325.928182 153.823864 
L 1326.391361 153.12173 
L 1326.854539 156.286958 
L 1327.317717 155.034124 
L 1327.780895 156.588817 
L 1329.17043 151.595918 
L 1329.633608 153.911199 
L 1330.096786 150.58649 
L 1330.559964 148.211477 
L 1331.023142 148.540085 
L 1331.949499 150.947069 
L 1332.412677 152.054969 
L 1332.875855 150.519512 
L 1333.339033 151.384272 
L 1333.802211 151.315961 
L 1334.265389 145.92561 
L 1334.728568 145.589223 
L 1335.191746 144.939041 
L 1336.118102 149.515573 
L 1336.58128 153.593091 
L 1337.044458 154.723849 
L 1337.507637 162.753933 
L 1338.897171 165.144559 
L 1339.360349 169.519248 
L 1339.823527 167.140078 
L 1340.286706 173.594954 
L 1340.749884 170.488447 
L 1341.213062 174.950415 
L 1342.139418 169.358754 
L 1342.602596 161.657545 
L 1343.065775 161.50611 
L 1343.528953 156.074197 
L 1343.992131 155.342969 
L 1344.455309 153.103033 
L 1344.918487 160.48059 
L 1345.381665 159.859501 
L 1345.844844 167.118606 
L 1346.308022 167.817118 
L 1346.7712 164.330316 
L 1347.234378 166.454411 
L 1347.697556 166.612614 
L 1348.160734 162.510691 
L 1348.623913 164.576599 
L 1349.087091 160.977579 
L 1349.550269 159.475372 
L 1350.013447 161.117346 
L 1350.476625 162.025746 
L 1350.939803 162.27123 
L 1351.402982 164.952258 
L 1351.86616 160.603041 
L 1352.792516 167.49043 
L 1353.255694 169.460745 
L 1353.718872 166.882077 
L 1354.182051 167.233544 
L 1354.645229 164.989452 
L 1355.108407 172.14673 
L 1355.571585 171.380174 
L 1356.034763 170.981443 
L 1356.497941 172.23481 
L 1356.96112 174.778683 
L 1357.424298 176.337532 
L 1357.887476 183.368045 
L 1358.350654 180.579488 
L 1359.27701 182.29654 
L 1359.740189 176.706691 
L 1360.666545 172.659066 
L 1361.129723 170.992688 
L 1361.592901 171.959276 
L 1362.056079 175.003973 
L 1362.519258 174.840069 
L 1363.908792 184.439659 
L 1364.37197 181.540962 
L 1364.835148 180.701672 
L 1365.298327 173.819239 
L 1365.761505 175.781241 
L 1366.224683 179.291435 
L 1366.687861 179.696933 
L 1367.151039 179.898777 
L 1367.614217 181.60725 
L 1368.077396 182.613321 
L 1368.540574 187.777691 
L 1369.003752 185.55438 
L 1369.46693 184.021002 
L 1369.930108 179.449426 
L 1370.393286 177.984625 
L 1370.856465 177.727206 
L 1371.782821 182.524017 
L 1372.245999 186.077852 
L 1372.709177 190.934662 
L 1373.172355 192.767821 
L 1373.635534 192.903165 
L 1374.098712 188.822023 
L 1374.56189 191.49474 
L 1375.025068 189.778487 
L 1375.488246 187.447114 
L 1375.951424 182.112873 
L 1376.877781 188.763358 
L 1377.340959 196.647974 
L 1377.804137 198.919614 
L 1378.267315 207.803801 
L 1378.730493 208.689343 
L 1379.193672 208.785202 
L 1379.65685 211.318685 
L 1380.120028 212.092009 
L 1380.583206 214.270134 
L 1381.046384 209.551013 
L 1381.509562 201.679399 
L 1381.972741 203.01589 
L 1382.899097 210.212919 
L 1383.362275 210.992476 
L 1383.825453 212.222984 
L 1384.288631 211.404475 
L 1384.75181 216.408831 
L 1385.214988 219.044141 
L 1385.678166 224.518149 
L 1386.141344 223.543782 
L 1386.604522 223.012053 
L 1387.0677 216.075588 
L 1387.530879 220.988507 
L 1388.920413 205.224764 
L 1389.383591 203.919977 
L 1389.846769 204.335866 
L 1390.309948 205.400125 
L 1390.773126 199.357247 
L 1391.236304 201.244438 
L 1392.16266 210.519576 
L 1392.625838 209.705223 
L 1393.089017 206.918744 
L 1394.015373 213.679369 
L 1394.478551 209.226246 
L 1394.941729 210.458832 
L 1395.868086 200.819013 
L 1396.794442 205.027719 
L 1397.25762 204.304803 
L 1397.720798 208.775084 
L 1398.183976 203.738012 
L 1398.647155 206.017966 
L 1399.110333 206.870257 
L 1399.573511 206.625307 
L 1400.036689 204.850867 
L 1400.499867 201.066896 
L 1400.963045 200.686868 
L 1401.889402 202.65745 
L 1402.35258 206.288174 
L 1403.278936 204.549329 
L 1403.742114 204.670126 
L 1404.205293 200.817577 
L 1404.668471 199.822429 
L 1405.594827 192.341766 
L 1406.058005 191.668725 
L 1406.521183 185.652863 
L 1406.984362 188.392079 
L 1407.44754 189.913522 
L 1407.910718 188.993185 
L 1408.373896 186.695062 
L 1408.837074 186.817937 
L 1409.300252 187.271232 
L 1409.763431 190.228649 
L 1411.152965 180.557925 
L 1411.616143 179.539918 
L 1412.079321 181.146563 
L 1413.005678 172.622689 
L 1413.468856 173.223529 
L 1413.932034 176.355508 
L 1414.395212 185.320741 
L 1415.321568 191.925508 
L 1415.784747 204.884868 
L 1416.247925 206.425014 
L 1416.711103 211.443917 
L 1417.174281 210.531893 
L 1417.637459 207.795289 
L 1418.100637 207.841274 
L 1418.563816 201.440961 
L 1419.026994 191.343691 
L 1419.490172 194.28864 
L 1419.95335 188.960632 
L 1420.879706 182.741382 
L 1421.342885 181.688047 
L 1421.806063 183.045319 
L 1422.269241 179.211473 
L 1422.732419 172.277087 
L 1423.195597 169.486451 
L 1423.658775 167.807605 
L 1424.121954 168.408445 
L 1424.585132 167.012222 
L 1425.04831 168.600165 
L 1425.511488 173.847659 
L 1425.974666 182.999922 
L 1427.364201 200.972217 
L 1427.827379 202.348193 
L 1428.290557 200.848064 
L 1428.753735 198.603971 
L 1430.14327 186.647326 
L 1430.606448 180.82265 
L 1431.069626 180.941369 
L 1431.532804 183.626554 
L 1431.995982 178.153079 
L 1432.459161 176.035751 
L 1432.922339 176.166939 
L 1433.385517 178.89992 
L 1433.848695 178.937593 
L 1434.311873 177.93621 
L 1434.775051 174.49097 
L 1435.23823 180.091743 
L 1435.701408 181.324329 
L 1436.164586 179.009581 
L 1436.627764 179.787061 
L 1437.090942 177.619859 
L 1437.55412 177.796765 
L 1438.017299 181.045117 
L 1438.480477 179.544988 
L 1438.943655 179.871518 
L 1439.406833 178.533482 
L 1439.870011 178.161767 
L 1440.333189 180.233909 
L 1440.796368 179.698023 
L 1441.259546 177.258589 
L 1441.722724 176.130442 
L 1442.185902 173.316947 
L 1442.64908 177.539933 
L 1443.112258 175.921352 
L 1443.575437 173.826884 
L 1444.038615 176.150477 
L 1444.501793 174.041462 
L 1444.964971 178.204183 
L 1445.428149 181.296677 
L 1445.891327 179.206365 
L 1446.354506 179.480942 
L 1446.817684 181.555163 
L 1447.280862 182.719171 
L 1447.74404 188.691926 
L 1448.207218 189.488108 
L 1448.670396 192.069388 
L 1449.133575 197.206742 
L 1450.059931 193.115477 
L 1450.523109 189.549707 
L 1450.986287 187.808517 
L 1451.449465 185.524941 
L 1451.912644 185.124132 
L 1452.375822 180.720883 
L 1452.839 182.445981 
L 1453.302178 186.912106 
L 1453.765356 184.125627 
L 1454.228534 182.338719 
L 1455.154891 180.325564 
L 1455.618069 179.313791 
L 1456.544425 179.680071 
L 1457.007603 186.317821 
L 1457.470782 190.110639 
L 1458.860316 206.320696 
L 1459.323494 213.604739 
L 1459.786672 214.737575 
L 1460.249851 213.680084 
L 1460.713029 211.307149 
L 1461.176207 210.006518 
L 1463.02892 192.917208 
L 1463.492098 192.686804 
L 1463.955276 195.261849 
L 1464.418454 196.558856 
L 1464.881632 195.914909 
L 1465.34481 200.272972 
L 1465.807989 198.698031 
L 1466.271167 202.428505 
L 1466.734345 203.262094 
L 1467.660701 200.14754 
L 1468.123879 204.100372 
L 1468.587058 205.588566 
L 1469.050236 208.429608 
L 1469.513414 207.245352 
L 1469.976592 209.739351 
L 1470.43977 213.631918 
L 1471.366127 224.733714 
L 1471.829305 225.507038 
L 1472.292483 224.615795 
L 1472.755661 223.978082 
L 1473.218839 221.324602 
L 1473.682017 216.726011 
L 1475.071552 208.329168 
L 1475.53473 208.599589 
L 1475.997908 214.374924 
L 1476.461086 218.001492 
L 1476.924265 220.420679 
L 1477.850621 214.432099 
L 1478.313799 214.205851 
L 1478.776977 213.811277 
L 1479.703334 210.628146 
L 1480.166512 211.226908 
L 1480.62969 214.932445 
L 1481.092868 212.488854 
L 1481.556046 211.107177 
L 1482.019224 213.983548 
L 1482.482403 211.770628 
L 1482.945581 213.99655 
L 1483.408759 212.0143 
L 1483.871937 211.86702 
L 1484.335115 215.144466 
L 1484.798293 216.900736 
L 1485.261472 215.708167 
L 1485.72465 217.684717 
L 1486.187828 215.958074 
L 1486.651006 217.309112 
L 1487.114184 214.51432 
L 1487.577362 213.055754 
L 1488.040541 214.134559 
L 1488.503719 215.726658 
L 1488.966897 216.076047 
L 1489.430075 216.712216 
L 1489.893253 215.787723 
L 1490.81961 221.8979 
L 1491.282788 222.033244 
L 1491.745966 221.341499 
L 1492.672322 212.798922 
L 1493.1355 212.491629 
L 1493.598679 208.250473 
L 1494.061857 207.265715 
L 1494.525035 208.936782 
L 1494.988213 209.755824 
L 1495.914569 213.199786 
L 1496.377748 217.227429 
L 1496.840926 223.218887 
L 1497.304104 226.143054 
L 1498.23046 225.345593 
L 1498.693638 228.650055 
L 1499.156817 235.036353 
L 1499.619995 236.283486 
L 1500.546351 231.747505 
L 1501.009529 232.092738 
L 1501.472707 237.516872 
L 1501.935886 234.720002 
L 1502.862242 228.060193 
L 1503.32542 227.775758 
L 1503.788598 227.358325 
L 1504.251776 229.330718 
L 1504.714955 225.62987 
L 1505.178133 232.367369 
L 1505.641311 231.935389 
L 1507.030845 241.169232 
L 1507.494024 237.86946 
L 1507.957202 241.832682 
L 1508.42038 238.45602 
L 1508.883558 238.435505 
L 1509.809914 233.47559 
L 1510.273093 233.673277 
L 1510.736271 236.672256 
L 1511.199449 234.20165 
L 1511.662627 235.831155 
L 1512.125805 239.661378 
L 1512.588983 241.168274 
L 1513.052161 243.090793 
L 1513.51534 241.170886 
L 1513.978518 240.356533 
L 1514.441696 242.233333 
L 1514.904874 245.286343 
L 1515.368052 242.408427 
L 1515.83123 237.699697 
L 1516.294409 236.638049 
L 1516.757587 236.667409 
L 1517.220765 240.25865 
L 1517.683943 241.636703 
L 1518.147121 241.298238 
L 1518.610299 244.172531 
L 1519.073478 249.355604 
L 1519.536656 251.675041 
L 1519.999834 251.772979 
L 1521.852547 232.898572 
L 1522.315725 234.382609 
L 1522.778903 234.69667 
L 1523.705259 236.01238 
L 1524.168437 241.288968 
L 1524.631616 244.799163 
L 1525.557972 246.391528 
L 1526.02115 242.052701 
L 1526.484328 236.383883 
L 1526.947506 238.210809 
L 1527.410685 239.47041 
L 1527.873863 235.505643 
L 1528.337041 238.070297 
L 1528.800219 238.299156 
L 1529.263397 241.543352 
L 1529.726575 248.037712 
L 1530.189754 246.493943 
L 1530.652932 240.174677 
L 1531.11611 240.993719 
L 1531.579288 240.873455 
L 1532.505644 248.15153 
L 1532.968823 245.520909 
L 1533.432001 245.282193 
L 1533.895179 246.284108 
L 1534.358357 248.487172 
L 1534.821535 245.842004 
L 1535.284713 244.406297 
L 1536.21107 240.718185 
L 1537.137426 246.340005 
L 1537.600604 245.949587 
L 1538.063782 250.663007 
L 1538.526961 253.99864 
L 1538.990139 254.071641 
L 1539.453317 254.508311 
L 1539.916495 256.420438 
L 1540.379673 259.217841 
L 1540.842851 262.840253 
L 1541.30603 267.927733 
L 1541.769208 271.057633 
L 1542.232386 272.514655 
L 1542.695564 281.348967 
L 1543.158742 278.601972 
L 1543.62192 280.320836 
L 1544.085099 278.976565 
L 1544.548277 274.2616 
L 1545.011455 272.138039 
L 1545.474633 272.745113 
L 1545.937811 266.346879 
L 1546.400989 271.407344 
L 1546.864168 266.208179 
L 1547.327346 264.959501 
L 1547.790524 265.261094 
L 1548.253702 261.053188 
L 1548.71688 258.135788 
L 1549.180058 260.228711 
L 1549.643237 256.600598 
L 1550.106415 255.663637 
L 1550.569593 255.512201 
L 1551.032771 255.969652 
L 1551.495949 260.348496 
L 1551.959127 262.25439 
L 1552.422306 265.454946 
L 1552.885484 266.265675 
L 1553.348662 268.849033 
L 1554.738196 274.496057 
L 1555.201375 276.740683 
L 1555.664553 271.105115 
L 1556.127731 268.969084 
L 1556.590909 269.285224 
L 1556.590909 269.285224 
" clip-path="url(#pe0c46cd89a)" style="fill: none; stroke: #6cad31; stroke-width: 2.5; stroke-linecap: square"/>
   </g>
   <g id="patch_3">
    <path d="M 225 320.4 
L 225 43.2 
" style="fill: none; stroke: #000000; stroke-width: 0.8; stroke-linejoin: miter; stroke-linecap: square"/>
   </g>
   <g id="patch_4">
    <path d="M 1620 320.4 
L 1620 43.2 
" style="fill: none; stroke: #000000; stroke-width: 0.8; stroke-linejoin: miter; stroke-linecap: square"/>
   </g>
   <g id="patch_5">
    <path d="M 225 320.4 
L 1620 320.4 
" style="fill: none; stroke: #000000; stroke-width: 0.8; stroke-linejoin: miter; stroke-linecap: square"/>
   </g>
   <g id="patch_6">
    <path d="M 225 43.2 
L 1620 43.2 
" style="fill: none; stroke: #000000; stroke-width: 0.8; stroke-linejoin: miter; stroke-linecap: square"/>
   </g>
   <g id="text_19">
    <!-- KOPE -->
    <g transform="translate(896.271875 37.2) scale(0.2 -0.2)">
     <defs>
      <path id="DejaVuSans-4b" d="M 628 4666 
L 1259 4666 
L 1259 2694 
L 3353 4666 
L 4166 4666 
L 1850 2491 
L 4331 0 
L 3500 0 
L 1259 2247 
L 1259 0 
L 628 0 
L 628 4666 
z
" transform="scale(0.015625)"/>
      <path id="DejaVuSans-4f" d="M 2522 4238 
Q 1834 4238 1429 3725 
Q 1025 3213 1025 2328 
Q 1025 1447 1429 934 
Q 1834 422 2522 422 
Q 3209 422 3611 934 
Q 4013 1447 4013 2328 
Q 4013 3213 3611 3725 
Q 3209 4238 2522 4238 
z
M 2522 4750 
Q 3503 4750 4090 4092 
Q 4678 3434 4678 2328 
Q 4678 1225 4090 567 
Q 3503 -91 2522 -91 
Q 1538 -91 948 565 
Q 359 1222 359 2328 
Q 359 3434 948 4092 
Q 1538 4750 2522 4750 
z
" transform="scale(0.015625)"/>
      <path id="DejaVuSans-50" d="M 1259 4147 
L 1259 2394 
L 2053 2394 
Q 2494 2394 2734 2622 
Q 2975 2850 2975 3272 
Q 2975 3691 2734 3919 
Q 2494 4147 2053 4147 
L 1259 4147 
z
M 628 4666 
L 2053 4666 
Q 2838 4666 3239 4311 
Q 3641 3956 3641 3272 
Q 3641 2581 3239 2228 
Q 2838 1875 2053 1875 
L 1259 1875 
L 1259 0 
L 628 0 
L 628 4666 
z
" transform="scale(0.015625)"/>
     </defs>
     <use xlink:href="#DejaVuSans-4b"/>
     <use xlink:href="#DejaVuSans-4f" x="60.076172"/>
     <use xlink:href="#DejaVuSans-50" x="138.787109"/>
     <use xlink:href="#DejaVuSans-45" x="199.089844"/>
    </g>
   </g>
   <g id="legend_1">
    <g id="patch_7">
     <path d="M 1556.951562 65.878125 
L 1613 65.878125 
Q 1615 65.878125 1615 63.878125 
L 1615 50.2 
Q 1615 48.2 1613 48.2 
L 1556.951562 48.2 
Q 1554.951562 48.2 1554.951562 50.2 
L 1554.951562 63.878125 
Q 1554.951562 65.878125 1556.951562 65.878125 
z
" style="fill: #ffffff; opacity: 0.8; stroke: #cccccc; stroke-linejoin: miter"/>
    </g>
    <g id="line2d_18">
     <path d="M 1558.951562 56.298437 
L 1568.951562 56.298437 
L 1578.951562 56.298437 
" style="fill: none; stroke: #6cad31; stroke-width: 2.5; stroke-linecap: square"/>
    </g>
    <g id="text_20">
     <!-- kope -->
     <g transform="translate(1586.951562 59.798437) scale(0.1 -0.1)">
      <defs>
       <path id="DejaVuSans-6b" d="M 581 4863 
L 1159 4863 
L 1159 1991 
L 2875 3500 
L 3609 3500 
L 1753 1863 
L 3688 0 
L 2938 0 
L 1159 1709 
L 1159 0 
L 581 0 
L 581 4863 
z
" transform="scale(0.015625)"/>
       <path id="DejaVuSans-6f" d="M 1959 3097 
Q 1497 3097 1228 2736 
Q 959 2375 959 1747 
Q 959 1119 1226 758 
Q 1494 397 1959 397 
Q 2419 397 2687 759 
Q 2956 1122 2956 1747 
Q 2956 2369 2687 2733 
Q 2419 3097 1959 3097 
z
M 1959 3584 
Q 2709 3584 3137 3096 
Q 3566 2609 3566 1747 
Q 3566 888 3137 398 
Q 2709 -91 1959 -91 
Q 1206 -91 779 398 
Q 353 888 353 1747 
Q 353 2609 779 3096 
Q 1206 3584 1959 3584 
z
" transform="scale(0.015625)"/>
       <path id="DejaVuSans-70" d="M 1159 525 
L 1159 -1331 
L 581 -1331 
L 581 3500 
L 1159 3500 
L 1159 2969 
Q 1341 3281 1617 3432 
Q 1894 3584 2278 3584 
Q 2916 3584 3314 3078 
Q 3713 2572 3713 1747 
Q 3713 922 3314 415 
Q 2916 -91 2278 -91 
Q 1894 -91 1617 61 
Q 1341 213 1159 525 
z
M 3116 1747 
Q 3116 2381 2855 2742 
Q 2594 3103 2138 3103 
Q 1681 3103 1420 2742 
Q 1159 2381 1159 1747 
Q 1159 1113 1420 752 
Q 1681 391 2138 391 
Q 2594 391 2855 752 
Q 3116 1113 3116 1747 
z
" transform="scale(0.015625)"/>
      </defs>
      <use xlink:href="#DejaVuSans-6b"/>
      <use xlink:href="#DejaVuSans-6f" x="54.285156"/>
      <use xlink:href="#DejaVuSans-70" x="115.466797"/>
      <use xlink:href="#DejaVuSans-65" x="178.943359"/>
     </g>
    </g>
   </g>
  </g>
 </g>
 <defs>
  <clipPath id="pe0c46cd89a">
   <rect x="225" y="43.2" width="1395" height="277.2"/>
  </clipPath>
 </defs>
</svg>
