<?xml version="1.0" encoding="utf-8" standalone="no"?>
<!DOCTYPE svg PUBLIC "-//W3C//DTD SVG 1.1//EN"
  "http://www.w3.org/Graphics/SVG/1.1/DTD/svg11.dtd">
<svg xmlns:xlink="http://www.w3.org/1999/xlink" width="1800pt" height="360pt" viewBox="0 0 1800 360" xmlns="http://www.w3.org/2000/svg" version="1.1">
 <metadata>
  <rdf:RDF xmlns:dc="http://purl.org/dc/elements/1.1/" xmlns:cc="http://creativecommons.org/ns#" xmlns:rdf="http://www.w3.org/1999/02/22-rdf-syntax-ns#">
   <cc:Work>
    <dc:type rdf:resource="http://purl.org/dc/dcmitype/StillImage"/>
    <dc:date>2024-03-07T16:59:30.627727</dc:date>
    <dc:format>image/svg+xml</dc:format>
    <dc:creator>
     <cc:Agent>
      <dc:title>Matplotlib v3.7.2, https://matplotlib.org/</dc:title>
     </cc:Agent>
    </dc:creator>
   </cc:Work>
  </rdf:RDF>
 </metadata>
 <defs>
  <style type="text/css">*{stroke-linejoin: round; stroke-linecap: butt}</style>
 </defs>
 <g id="figure_1">
  <g id="patch_1">
   <path d="M 0 360 
L 1800 360 
L 1800 0 
L 0 0 
z
" style="fill: #ffffff"/>
  </g>
  <g id="axes_1">
   <g id="patch_2">
    <path d="M 225 320.4 
L 1620 320.4 
L 1620 43.2 
L 225 43.2 
z
" style="fill: #ffffff"/>
   </g>
   <g id="matplotlib.axis_1">
    <g id="xtick_1">
     <g id="line2d_1">
      <defs>
       <path id="mbb8736170d" d="M 0 0 
L 0 3.5 
" style="stroke: #000000; stroke-width: 0.8"/>
      </defs>
      <g>
       <use xlink:href="#mbb8736170d" x="398.538116" y="320.4" style="stroke: #000000; stroke-width: 0.8"/>
      </g>
     </g>
     <g id="text_1">
      <!-- 2012 -->
      <g transform="translate(379.450616 338.797656) scale(0.15 -0.15)">
       <defs>
        <path id="DejaVuSans-32" d="M 1228 531 
L 3431 531 
L 3431 0 
L 469 0 
L 469 531 
Q 828 903 1448 1529 
Q 2069 2156 2228 2338 
Q 2531 2678 2651 2914 
Q 2772 3150 2772 3378 
Q 2772 3750 2511 3984 
Q 2250 4219 1831 4219 
Q 1534 4219 1204 4116 
Q 875 4013 500 3803 
L 500 4441 
Q 881 4594 1212 4672 
Q 1544 4750 1819 4750 
Q 2544 4750 2975 4387 
Q 3406 4025 3406 3419 
Q 3406 3131 3298 2873 
Q 3191 2616 2906 2266 
Q 2828 2175 2409 1742 
Q 1991 1309 1228 531 
z
" transform="scale(0.015625)"/>
        <path id="DejaVuSans-30" d="M 2034 4250 
Q 1547 4250 1301 3770 
Q 1056 3291 1056 2328 
Q 1056 1369 1301 889 
Q 1547 409 2034 409 
Q 2525 409 2770 889 
Q 3016 1369 3016 2328 
Q 3016 3291 2770 3770 
Q 2525 4250 2034 4250 
z
M 2034 4750 
Q 2819 4750 3233 4129 
Q 3647 3509 3647 2328 
Q 3647 1150 3233 529 
Q 2819 -91 2034 -91 
Q 1250 -91 836 529 
Q 422 1150 422 2328 
Q 422 3509 836 4129 
Q 1250 4750 2034 4750 
z
" transform="scale(0.015625)"/>
        <path id="DejaVuSans-31" d="M 794 531 
L 1825 531 
L 1825 4091 
L 703 3866 
L 703 4441 
L 1819 4666 
L 2450 4666 
L 2450 531 
L 3481 531 
L 3481 0 
L 794 0 
L 794 531 
z
" transform="scale(0.015625)"/>
       </defs>
       <use xlink:href="#DejaVuSans-32"/>
       <use xlink:href="#DejaVuSans-30" x="63.623047"/>
       <use xlink:href="#DejaVuSans-31" x="127.246094"/>
       <use xlink:href="#DejaVuSans-32" x="190.869141"/>
      </g>
     </g>
    </g>
    <g id="xtick_2">
     <g id="line2d_2">
      <g>
       <use xlink:href="#mbb8736170d" x="576.102977" y="320.4" style="stroke: #000000; stroke-width: 0.8"/>
      </g>
     </g>
     <g id="text_2">
      <!-- 2013 -->
      <g transform="translate(557.015477 338.797656) scale(0.15 -0.15)">
       <defs>
        <path id="DejaVuSans-33" d="M 2597 2516 
Q 3050 2419 3304 2112 
Q 3559 1806 3559 1356 
Q 3559 666 3084 287 
Q 2609 -91 1734 -91 
Q 1441 -91 1130 -33 
Q 819 25 488 141 
L 488 750 
Q 750 597 1062 519 
Q 1375 441 1716 441 
Q 2309 441 2620 675 
Q 2931 909 2931 1356 
Q 2931 1769 2642 2001 
Q 2353 2234 1838 2234 
L 1294 2234 
L 1294 2753 
L 1863 2753 
Q 2328 2753 2575 2939 
Q 2822 3125 2822 3475 
Q 2822 3834 2567 4026 
Q 2313 4219 1838 4219 
Q 1578 4219 1281 4162 
Q 984 4106 628 3988 
L 628 4550 
Q 988 4650 1302 4700 
Q 1616 4750 1894 4750 
Q 2613 4750 3031 4423 
Q 3450 4097 3450 3541 
Q 3450 3153 3228 2886 
Q 3006 2619 2597 2516 
z
" transform="scale(0.015625)"/>
       </defs>
       <use xlink:href="#DejaVuSans-32"/>
       <use xlink:href="#DejaVuSans-30" x="63.623047"/>
       <use xlink:href="#DejaVuSans-31" x="127.246094"/>
       <use xlink:href="#DejaVuSans-33" x="190.869141"/>
      </g>
     </g>
    </g>
    <g id="xtick_3">
     <g id="line2d_3">
      <g>
       <use xlink:href="#mbb8736170d" x="753.182688" y="320.4" style="stroke: #000000; stroke-width: 0.8"/>
      </g>
     </g>
     <g id="text_3">
      <!-- 2014 -->
      <g transform="translate(734.095188 338.797656) scale(0.15 -0.15)">
       <defs>
        <path id="DejaVuSans-34" d="M 2419 4116 
L 825 1625 
L 2419 1625 
L 2419 4116 
z
M 2253 4666 
L 3047 4666 
L 3047 1625 
L 3713 1625 
L 3713 1100 
L 3047 1100 
L 3047 0 
L 2419 0 
L 2419 1100 
L 313 1100 
L 313 1709 
L 2253 4666 
z
" transform="scale(0.015625)"/>
       </defs>
       <use xlink:href="#DejaVuSans-32"/>
       <use xlink:href="#DejaVuSans-30" x="63.623047"/>
       <use xlink:href="#DejaVuSans-31" x="127.246094"/>
       <use xlink:href="#DejaVuSans-34" x="190.869141"/>
      </g>
     </g>
    </g>
    <g id="xtick_4">
     <g id="line2d_4">
      <g>
       <use xlink:href="#mbb8736170d" x="930.262398" y="320.4" style="stroke: #000000; stroke-width: 0.8"/>
      </g>
     </g>
     <g id="text_4">
      <!-- 2015 -->
      <g transform="translate(911.174898 338.797656) scale(0.15 -0.15)">
       <defs>
        <path id="DejaVuSans-35" d="M 691 4666 
L 3169 4666 
L 3169 4134 
L 1269 4134 
L 1269 2991 
Q 1406 3038 1543 3061 
Q 1681 3084 1819 3084 
Q 2600 3084 3056 2656 
Q 3513 2228 3513 1497 
Q 3513 744 3044 326 
Q 2575 -91 1722 -91 
Q 1428 -91 1123 -41 
Q 819 9 494 109 
L 494 744 
Q 775 591 1075 516 
Q 1375 441 1709 441 
Q 2250 441 2565 725 
Q 2881 1009 2881 1497 
Q 2881 1984 2565 2268 
Q 2250 2553 1709 2553 
Q 1456 2553 1204 2497 
Q 953 2441 691 2322 
L 691 4666 
z
" transform="scale(0.015625)"/>
       </defs>
       <use xlink:href="#DejaVuSans-32"/>
       <use xlink:href="#DejaVuSans-30" x="63.623047"/>
       <use xlink:href="#DejaVuSans-31" x="127.246094"/>
       <use xlink:href="#DejaVuSans-35" x="190.869141"/>
      </g>
     </g>
    </g>
    <g id="xtick_5">
     <g id="line2d_5">
      <g>
       <use xlink:href="#mbb8736170d" x="1107.342109" y="320.4" style="stroke: #000000; stroke-width: 0.8"/>
      </g>
     </g>
     <g id="text_5">
      <!-- 2016 -->
      <g transform="translate(1088.254609 338.797656) scale(0.15 -0.15)">
       <defs>
        <path id="DejaVuSans-36" d="M 2113 2584 
Q 1688 2584 1439 2293 
Q 1191 2003 1191 1497 
Q 1191 994 1439 701 
Q 1688 409 2113 409 
Q 2538 409 2786 701 
Q 3034 994 3034 1497 
Q 3034 2003 2786 2293 
Q 2538 2584 2113 2584 
z
M 3366 4563 
L 3366 3988 
Q 3128 4100 2886 4159 
Q 2644 4219 2406 4219 
Q 1781 4219 1451 3797 
Q 1122 3375 1075 2522 
Q 1259 2794 1537 2939 
Q 1816 3084 2150 3084 
Q 2853 3084 3261 2657 
Q 3669 2231 3669 1497 
Q 3669 778 3244 343 
Q 2819 -91 2113 -91 
Q 1303 -91 875 529 
Q 447 1150 447 2328 
Q 447 3434 972 4092 
Q 1497 4750 2381 4750 
Q 2619 4750 2861 4703 
Q 3103 4656 3366 4563 
z
" transform="scale(0.015625)"/>
       </defs>
       <use xlink:href="#DejaVuSans-32"/>
       <use xlink:href="#DejaVuSans-30" x="63.623047"/>
       <use xlink:href="#DejaVuSans-31" x="127.246094"/>
       <use xlink:href="#DejaVuSans-36" x="190.869141"/>
      </g>
     </g>
    </g>
    <g id="xtick_6">
     <g id="line2d_6">
      <g>
       <use xlink:href="#mbb8736170d" x="1284.906969" y="320.4" style="stroke: #000000; stroke-width: 0.8"/>
      </g>
     </g>
     <g id="text_6">
      <!-- 2017 -->
      <g transform="translate(1265.819469 338.797656) scale(0.15 -0.15)">
       <defs>
        <path id="DejaVuSans-37" d="M 525 4666 
L 3525 4666 
L 3525 4397 
L 1831 0 
L 1172 0 
L 2766 4134 
L 525 4134 
L 525 4666 
z
" transform="scale(0.015625)"/>
       </defs>
       <use xlink:href="#DejaVuSans-32"/>
       <use xlink:href="#DejaVuSans-30" x="63.623047"/>
       <use xlink:href="#DejaVuSans-31" x="127.246094"/>
       <use xlink:href="#DejaVuSans-37" x="190.869141"/>
      </g>
     </g>
    </g>
    <g id="xtick_7">
     <g id="line2d_7">
      <g>
       <use xlink:href="#mbb8736170d" x="1461.98668" y="320.4" style="stroke: #000000; stroke-width: 0.8"/>
      </g>
     </g>
     <g id="text_7">
      <!-- 2018 -->
      <g transform="translate(1442.89918 338.797656) scale(0.15 -0.15)">
       <defs>
        <path id="DejaVuSans-38" d="M 2034 2216 
Q 1584 2216 1326 1975 
Q 1069 1734 1069 1313 
Q 1069 891 1326 650 
Q 1584 409 2034 409 
Q 2484 409 2743 651 
Q 3003 894 3003 1313 
Q 3003 1734 2745 1975 
Q 2488 2216 2034 2216 
z
M 1403 2484 
Q 997 2584 770 2862 
Q 544 3141 544 3541 
Q 544 4100 942 4425 
Q 1341 4750 2034 4750 
Q 2731 4750 3128 4425 
Q 3525 4100 3525 3541 
Q 3525 3141 3298 2862 
Q 3072 2584 2669 2484 
Q 3125 2378 3379 2068 
Q 3634 1759 3634 1313 
Q 3634 634 3220 271 
Q 2806 -91 2034 -91 
Q 1263 -91 848 271 
Q 434 634 434 1313 
Q 434 1759 690 2068 
Q 947 2378 1403 2484 
z
M 1172 3481 
Q 1172 3119 1398 2916 
Q 1625 2713 2034 2713 
Q 2441 2713 2670 2916 
Q 2900 3119 2900 3481 
Q 2900 3844 2670 4047 
Q 2441 4250 2034 4250 
Q 1625 4250 1398 4047 
Q 1172 3844 1172 3481 
z
" transform="scale(0.015625)"/>
       </defs>
       <use xlink:href="#DejaVuSans-32"/>
       <use xlink:href="#DejaVuSans-30" x="63.623047"/>
       <use xlink:href="#DejaVuSans-31" x="127.246094"/>
       <use xlink:href="#DejaVuSans-38" x="190.869141"/>
      </g>
     </g>
    </g>
    <g id="text_8">
     <!-- Time -->
     <g transform="translate(904.149609 357.314844) scale(0.15 -0.15)">
      <defs>
       <path id="DejaVuSans-54" d="M -19 4666 
L 3928 4666 
L 3928 4134 
L 2272 4134 
L 2272 0 
L 1638 0 
L 1638 4134 
L -19 4134 
L -19 4666 
z
" transform="scale(0.015625)"/>
       <path id="DejaVuSans-69" d="M 603 3500 
L 1178 3500 
L 1178 0 
L 603 0 
L 603 3500 
z
M 603 4863 
L 1178 4863 
L 1178 4134 
L 603 4134 
L 603 4863 
z
" transform="scale(0.015625)"/>
       <path id="DejaVuSans-6d" d="M 3328 2828 
Q 3544 3216 3844 3400 
Q 4144 3584 4550 3584 
Q 5097 3584 5394 3201 
Q 5691 2819 5691 2113 
L 5691 0 
L 5113 0 
L 5113 2094 
Q 5113 2597 4934 2840 
Q 4756 3084 4391 3084 
Q 3944 3084 3684 2787 
Q 3425 2491 3425 1978 
L 3425 0 
L 2847 0 
L 2847 2094 
Q 2847 2600 2669 2842 
Q 2491 3084 2119 3084 
Q 1678 3084 1418 2786 
Q 1159 2488 1159 1978 
L 1159 0 
L 581 0 
L 581 3500 
L 1159 3500 
L 1159 2956 
Q 1356 3278 1631 3431 
Q 1906 3584 2284 3584 
Q 2666 3584 2933 3390 
Q 3200 3197 3328 2828 
z
" transform="scale(0.015625)"/>
       <path id="DejaVuSans-65" d="M 3597 1894 
L 3597 1613 
L 953 1613 
Q 991 1019 1311 708 
Q 1631 397 2203 397 
Q 2534 397 2845 478 
Q 3156 559 3463 722 
L 3463 178 
Q 3153 47 2828 -22 
Q 2503 -91 2169 -91 
Q 1331 -91 842 396 
Q 353 884 353 1716 
Q 353 2575 817 3079 
Q 1281 3584 2069 3584 
Q 2775 3584 3186 3129 
Q 3597 2675 3597 1894 
z
M 3022 2063 
Q 3016 2534 2758 2815 
Q 2500 3097 2075 3097 
Q 1594 3097 1305 2825 
Q 1016 2553 972 2059 
L 3022 2063 
z
" transform="scale(0.015625)"/>
      </defs>
      <use xlink:href="#DejaVuSans-54"/>
      <use xlink:href="#DejaVuSans-69" x="57.958984"/>
      <use xlink:href="#DejaVuSans-6d" x="85.742188"/>
      <use xlink:href="#DejaVuSans-65" x="183.154297"/>
     </g>
    </g>
   </g>
   <g id="matplotlib.axis_2">
    <g id="ytick_1">
     <g id="line2d_8">
      <defs>
       <path id="m84b875dfef" d="M 0 0 
L -3.5 0 
" style="stroke: #000000; stroke-width: 0.8"/>
      </defs>
      <g>
       <use xlink:href="#m84b875dfef" x="225" y="294.583334" style="stroke: #000000; stroke-width: 0.8"/>
      </g>
     </g>
     <g id="text_9">
      <!-- −0.010 -->
      <g transform="translate(162.488281 300.282162) scale(0.15 -0.15)">
       <defs>
        <path id="DejaVuSans-2212" d="M 678 2272 
L 4684 2272 
L 4684 1741 
L 678 1741 
L 678 2272 
z
" transform="scale(0.015625)"/>
        <path id="DejaVuSans-2e" d="M 684 794 
L 1344 794 
L 1344 0 
L 684 0 
L 684 794 
z
" transform="scale(0.015625)"/>
       </defs>
       <use xlink:href="#DejaVuSans-2212"/>
       <use xlink:href="#DejaVuSans-30" x="83.789062"/>
       <use xlink:href="#DejaVuSans-2e" x="147.412109"/>
       <use xlink:href="#DejaVuSans-30" x="179.199219"/>
       <use xlink:href="#DejaVuSans-31" x="242.822266"/>
       <use xlink:href="#DejaVuSans-30" x="306.445312"/>
      </g>
     </g>
    </g>
    <g id="ytick_2">
     <g id="line2d_9">
      <g>
       <use xlink:href="#m84b875dfef" x="225" y="236.951738" style="stroke: #000000; stroke-width: 0.8"/>
      </g>
     </g>
     <g id="text_10">
      <!-- −0.005 -->
      <g transform="translate(162.488281 242.650567) scale(0.15 -0.15)">
       <use xlink:href="#DejaVuSans-2212"/>
       <use xlink:href="#DejaVuSans-30" x="83.789062"/>
       <use xlink:href="#DejaVuSans-2e" x="147.412109"/>
       <use xlink:href="#DejaVuSans-30" x="179.199219"/>
       <use xlink:href="#DejaVuSans-30" x="242.822266"/>
       <use xlink:href="#DejaVuSans-35" x="306.445312"/>
      </g>
     </g>
    </g>
    <g id="ytick_3">
     <g id="line2d_10">
      <g>
       <use xlink:href="#m84b875dfef" x="225" y="179.320143" style="stroke: #000000; stroke-width: 0.8"/>
      </g>
     </g>
     <g id="text_11">
      <!-- 0.000 -->
      <g transform="translate(175.057813 185.018971) scale(0.15 -0.15)">
       <use xlink:href="#DejaVuSans-30"/>
       <use xlink:href="#DejaVuSans-2e" x="63.623047"/>
       <use xlink:href="#DejaVuSans-30" x="95.410156"/>
       <use xlink:href="#DejaVuSans-30" x="159.033203"/>
       <use xlink:href="#DejaVuSans-30" x="222.65625"/>
      </g>
     </g>
    </g>
    <g id="ytick_4">
     <g id="line2d_11">
      <g>
       <use xlink:href="#m84b875dfef" x="225" y="121.688547" style="stroke: #000000; stroke-width: 0.8"/>
      </g>
     </g>
     <g id="text_12">
      <!-- 0.005 -->
      <g transform="translate(175.057813 127.387375) scale(0.15 -0.15)">
       <use xlink:href="#DejaVuSans-30"/>
       <use xlink:href="#DejaVuSans-2e" x="63.623047"/>
       <use xlink:href="#DejaVuSans-30" x="95.410156"/>
       <use xlink:href="#DejaVuSans-30" x="159.033203"/>
       <use xlink:href="#DejaVuSans-35" x="222.65625"/>
      </g>
     </g>
    </g>
    <g id="ytick_5">
     <g id="line2d_12">
      <g>
       <use xlink:href="#m84b875dfef" x="225" y="64.056952" style="stroke: #000000; stroke-width: 0.8"/>
      </g>
     </g>
     <g id="text_13">
      <!-- 0.010 -->
      <g transform="translate(175.057813 69.75578) scale(0.15 -0.15)">
       <use xlink:href="#DejaVuSans-30"/>
       <use xlink:href="#DejaVuSans-2e" x="63.623047"/>
       <use xlink:href="#DejaVuSans-30" x="95.410156"/>
       <use xlink:href="#DejaVuSans-31" x="159.033203"/>
       <use xlink:href="#DejaVuSans-30" x="222.65625"/>
      </g>
     </g>
    </g>
    <g id="text_14">
     <!-- East(m) -->
     <g transform="translate(155.36875 211.140234) rotate(-90) scale(0.15 -0.15)">
      <defs>
       <path id="DejaVuSans-45" d="M 628 4666 
L 3578 4666 
L 3578 4134 
L 1259 4134 
L 1259 2753 
L 3481 2753 
L 3481 2222 
L 1259 2222 
L 1259 531 
L 3634 531 
L 3634 0 
L 628 0 
L 628 4666 
z
" transform="scale(0.015625)"/>
       <path id="DejaVuSans-61" d="M 2194 1759 
Q 1497 1759 1228 1600 
Q 959 1441 959 1056 
Q 959 750 1161 570 
Q 1363 391 1709 391 
Q 2188 391 2477 730 
Q 2766 1069 2766 1631 
L 2766 1759 
L 2194 1759 
z
M 3341 1997 
L 3341 0 
L 2766 0 
L 2766 531 
Q 2569 213 2275 61 
Q 1981 -91 1556 -91 
Q 1019 -91 701 211 
Q 384 513 384 1019 
Q 384 1609 779 1909 
Q 1175 2209 1959 2209 
L 2766 2209 
L 2766 2266 
Q 2766 2663 2505 2880 
Q 2244 3097 1772 3097 
Q 1472 3097 1187 3025 
Q 903 2953 641 2809 
L 641 3341 
Q 956 3463 1253 3523 
Q 1550 3584 1831 3584 
Q 2591 3584 2966 3190 
Q 3341 2797 3341 1997 
z
" transform="scale(0.015625)"/>
       <path id="DejaVuSans-73" d="M 2834 3397 
L 2834 2853 
Q 2591 2978 2328 3040 
Q 2066 3103 1784 3103 
Q 1356 3103 1142 2972 
Q 928 2841 928 2578 
Q 928 2378 1081 2264 
Q 1234 2150 1697 2047 
L 1894 2003 
Q 2506 1872 2764 1633 
Q 3022 1394 3022 966 
Q 3022 478 2636 193 
Q 2250 -91 1575 -91 
Q 1294 -91 989 -36 
Q 684 19 347 128 
L 347 722 
Q 666 556 975 473 
Q 1284 391 1588 391 
Q 1994 391 2212 530 
Q 2431 669 2431 922 
Q 2431 1156 2273 1281 
Q 2116 1406 1581 1522 
L 1381 1569 
Q 847 1681 609 1914 
Q 372 2147 372 2553 
Q 372 3047 722 3315 
Q 1072 3584 1716 3584 
Q 2034 3584 2315 3537 
Q 2597 3491 2834 3397 
z
" transform="scale(0.015625)"/>
       <path id="DejaVuSans-74" d="M 1172 4494 
L 1172 3500 
L 2356 3500 
L 2356 3053 
L 1172 3053 
L 1172 1153 
Q 1172 725 1289 603 
Q 1406 481 1766 481 
L 2356 481 
L 2356 0 
L 1766 0 
Q 1100 0 847 248 
Q 594 497 594 1153 
L 594 3053 
L 172 3053 
L 172 3500 
L 594 3500 
L 594 4494 
L 1172 4494 
z
" transform="scale(0.015625)"/>
       <path id="DejaVuSans-28" d="M 1984 4856 
Q 1566 4138 1362 3434 
Q 1159 2731 1159 2009 
Q 1159 1288 1364 580 
Q 1569 -128 1984 -844 
L 1484 -844 
Q 1016 -109 783 600 
Q 550 1309 550 2009 
Q 550 2706 781 3412 
Q 1013 4119 1484 4856 
L 1984 4856 
z
" transform="scale(0.015625)"/>
       <path id="DejaVuSans-29" d="M 513 4856 
L 1013 4856 
Q 1481 4119 1714 3412 
Q 1947 2706 1947 2009 
Q 1947 1309 1714 600 
Q 1481 -109 1013 -844 
L 513 -844 
Q 928 -128 1133 580 
Q 1338 1288 1338 2009 
Q 1338 2731 1133 3434 
Q 928 4138 513 4856 
z
" transform="scale(0.015625)"/>
      </defs>
      <use xlink:href="#DejaVuSans-45"/>
      <use xlink:href="#DejaVuSans-61" x="63.183594"/>
      <use xlink:href="#DejaVuSans-73" x="124.462891"/>
      <use xlink:href="#DejaVuSans-74" x="176.5625"/>
      <use xlink:href="#DejaVuSans-28" x="215.771484"/>
      <use xlink:href="#DejaVuSans-6d" x="254.785156"/>
      <use xlink:href="#DejaVuSans-29" x="352.197266"/>
     </g>
    </g>
   </g>
   <g id="line2d_13">
    <path d="M 288.409091 90.148366 
L 288.894241 91.899595 
L 289.379391 91.399349 
L 289.864541 93.454105 
L 290.34969 92.883933 
L 290.83484 94.678193 
L 291.31999 96.98049 
L 291.80514 100.405557 
L 292.29029 100.573616 
L 292.77544 102.709381 
L 293.26059 103.654643 
L 293.74574 105.810168 
L 294.23089 105.029775 
L 294.71604 105.607841 
L 295.686339 110.809712 
L 296.171489 110.403101 
L 296.656639 109.826888 
L 297.141789 114.409527 
L 297.626939 117.826361 
L 298.112089 122.112609 
L 298.597239 122.735133 
L 299.082389 124.432899 
L 299.567538 127.848086 
L 300.052688 132.707357 
L 300.537838 133.767881 
L 301.022988 135.281226 
L 301.508138 135.096908 
L 301.993288 134.123861 
L 302.478438 135.130048 
L 302.963588 131.43185 
L 303.448738 129.931885 
L 303.933887 126.521845 
L 304.904187 124.032367 
L 305.389337 125.670854 
L 305.874487 122.977092 
L 306.844787 129.682324 
L 307.329937 132.25115 
L 307.815087 131.129907 
L 308.300236 132.700884 
L 308.785386 132.065393 
L 309.270536 133.827377 
L 309.755686 136.465361 
L 310.240836 134.72499 
L 310.725986 133.707484 
L 311.211136 134.29049 
L 311.696286 130.565946 
L 312.181436 125.611379 
L 312.666586 128.519408 
L 313.151735 124.412849 
L 313.636885 122.667538 
L 314.122035 121.83116 
L 314.607185 122.924618 
L 315.092335 122.39945 
L 315.577485 132.606933 
L 316.062635 131.38854 
L 316.547785 134.719749 
L 317.032935 139.305681 
L 317.518084 137.359484 
L 318.003234 139.862445 
L 318.488384 147.608235 
L 318.973534 147.404158 
L 319.458684 149.992743 
L 319.943834 151.754727 
L 320.428984 151.218034 
L 320.914134 157.730507 
L 321.399284 158.08628 
L 321.884433 155.820639 
L 322.369583 151.412748 
L 322.854733 152.160416 
L 323.339883 155.195235 
L 324.310183 155.699307 
L 324.795333 156.876741 
L 325.280483 156.124341 
L 325.765633 159.872145 
L 326.250782 160.446918 
L 326.735932 158.555058 
L 327.221082 157.927801 
L 327.706232 155.039738 
L 328.191382 152.958518 
L 328.676532 154.177118 
L 329.161682 153.281462 
L 329.646832 149.446594 
L 330.131982 150.918773 
L 330.617132 148.718996 
L 331.102281 150.787251 
L 331.587431 154.088822 
L 332.072581 154.70476 
L 332.557731 156.26421 
L 333.042881 159.448871 
L 333.528031 159.447327 
L 334.013181 164.204508 
L 334.498331 164.907717 
L 334.983481 166.00282 
L 335.46863 164.912863 
L 335.95378 161.425432 
L 336.92408 152.947208 
L 337.40923 148.544258 
L 337.89438 148.508136 
L 338.37953 147.034517 
L 338.86468 147.131771 
L 339.34983 147.940364 
L 340.320129 153.397459 
L 340.805279 153.898134 
L 341.290429 155.506983 
L 341.775579 154.173327 
L 342.260729 154.695408 
L 342.745879 156.923384 
L 343.231029 158.286887 
L 343.716179 154.084823 
L 344.201329 155.387401 
L 344.686478 151.740248 
L 345.171628 153.309577 
L 345.656778 154.381629 
L 346.141928 153.176408 
L 346.627078 154.69634 
L 347.112228 162.503054 
L 347.597378 165.17891 
L 348.082528 170.257181 
L 348.567678 171.29136 
L 349.052827 170.789245 
L 350.023127 169.254805 
L 350.508277 166.468833 
L 350.993427 164.465003 
L 351.478577 160.103218 
L 351.963727 157.427569 
L 352.448877 156.121906 
L 352.934027 157.327333 
L 353.419176 156.734654 
L 353.904326 156.64584 
L 354.389476 159.927652 
L 359.240975 161.659996 
L 360.696425 159.473392 
L 362.151875 159.840692 
L 362.637024 158.539968 
L 363.607324 157.92753 
L 364.092474 154.342948 
L 364.577624 149.477298 
L 365.062774 146.254972 
L 365.547924 146.217204 
L 366.518224 143.953209 
L 367.003373 143.931906 
L 367.488523 144.345311 
L 368.458823 148.137677 
L 369.429123 154.156269 
L 369.914273 155.877087 
L 370.399423 155.151033 
L 372.825172 156.339994 
L 373.310322 158.288045 
L 373.795472 159.758578 
L 374.280622 160.092944 
L 374.765772 160.947642 
L 375.250922 161.525708 
L 375.736072 161.881481 
L 376.221221 161.033577 
L 376.706371 159.15489 
L 377.191521 158.85531 
L 377.676671 158.751676 
L 378.161821 157.576095 
L 378.646971 157.306154 
L 379.132121 155.783136 
L 379.617271 156.660887 
L 380.58757 147.132121 
L 381.55787 141.673793 
L 382.04302 139.055775 
L 382.52817 137.758345 
L 383.01332 132.956913 
L 383.49847 135.044927 
L 383.98362 133.73103 
L 384.46877 135.166984 
L 384.953919 135.107809 
L 385.439069 136.039898 
L 385.924219 136.173377 
L 386.409369 136.647706 
L 386.894519 133.641087 
L 387.379669 133.919469 
L 387.864819 129.244827 
L 388.349969 125.969809 
L 388.835119 124.529123 
L 389.320268 124.05994 
L 389.805418 122.039645 
L 390.290568 125.212779 
L 390.775718 122.290138 
L 391.746018 127.019429 
L 392.231168 126.88451 
L 392.716318 127.10526 
L 393.201468 127.156409 
L 393.686618 128.855821 
L 394.171767 134.569686 
L 394.656917 134.380428 
L 395.142067 134.629171 
L 395.627217 135.694636 
L 396.112367 137.580116 
L 396.597517 142.017852 
L 397.082667 143.86052 
L 397.567817 143.294187 
L 398.538116 147.657929 
L 399.023266 147.103123 
L 399.508416 148.996836 
L 399.993566 151.478391 
L 400.478716 151.964247 
L 400.963866 154.822878 
L 401.449016 154.97447 
L 401.934166 153.041445 
L 440.261007 154.284745 
L 440.746157 150.219351 
L 441.231307 147.915837 
L 442.686757 137.022129 
L 443.171907 136.075428 
L 443.657056 131.990275 
L 444.142206 132.102348 
L 444.627356 129.179707 
L 445.112506 127.503554 
L 445.597656 124.658303 
L 446.082806 126.318197 
L 446.567956 125.363263 
L 447.053106 125.709156 
L 449.964005 125.671387 
L 450.449155 123.870092 
L 450.934305 123.82409 
L 451.419455 121.95199 
L 451.904605 122.926891 
L 452.389754 122.684941 
L 452.874904 122.96003 
L 453.360054 122.495787 
L 454.330354 124.977343 
L 454.815504 124.247995 
L 455.300654 127.824551 
L 455.785804 121.763457 
L 457.241253 117.960082 
L 457.726403 113.685568 
L 458.211553 111.86616 
L 458.696703 112.52491 
L 459.181853 112.814818 
L 459.667003 117.161991 
L 460.152153 116.829478 
L 460.637303 118.066191 
L 461.607602 124.009038 
L 462.092752 124.779759 
L 462.577902 130.147834 
L 463.063052 127.330576 
L 463.548202 128.582108 
L 464.033352 131.422626 
L 464.518502 133.334452 
L 465.003652 134.472368 
L 465.488802 132.687538 
L 465.973951 129.99707 
L 466.459101 130.583369 
L 466.944251 131.943578 
L 467.429401 130.0122 
L 467.914551 131.140236 
L 468.399701 133.287528 
L 468.884851 138.20937 
L 469.370001 139.006436 
L 469.855151 140.536247 
L 470.3403 144.809322 
L 470.82545 144.252868 
L 471.3106 142.537197 
L 472.2809 141.584013 
L 472.76605 140.000071 
L 473.2512 139.361287 
L 474.2215 136.907931 
L 474.70665 138.605697 
L 475.191799 138.767169 
L 475.676949 139.147641 
L 476.162099 138.790429 
L 476.647249 144.655782 
L 477.132399 148.400293 
L 477.617549 149.059043 
L 478.102699 148.548695 
L 478.587849 149.184393 
L 479.072999 149.276707 
L 479.558148 148.115945 
L 480.043298 145.20483 
L 480.528448 143.65382 
L 481.013598 142.654427 
L 481.498748 147.684946 
L 481.983898 148.365102 
L 482.469048 141.535038 
L 482.954198 141.097142 
L 483.439348 141.653802 
L 483.924497 143.04365 
L 484.409647 147.939146 
L 484.894797 147.402452 
L 485.379947 143.50666 
L 485.865097 149.515269 
L 486.835397 156.818223 
L 487.320547 151.356498 
L 487.805697 147.801555 
L 488.290846 141.460536 
L 488.775996 146.803912 
L 489.746296 149.392601 
L 491.201746 159.710614 
L 491.686896 165.109975 
L 492.172046 164.288416 
L 492.657196 166.979092 
L 493.142345 166.165767 
L 493.627495 165.63566 
L 494.112645 171.137111 
L 494.597795 170.325432 
L 495.082945 171.18507 
L 495.568095 174.804437 
L 496.053245 174.71233 
L 496.538395 175.089509 
L 497.023545 171.330386 
L 497.508694 169.993437 
L 497.993844 173.148458 
L 498.478994 173.616201 
L 498.964144 177.001749 
L 499.449294 178.967913 
L 500.419594 183.96231 
L 500.904744 183.037015 
L 501.389894 181.65396 
L 501.875043 184.75135 
L 502.360193 178.654031 
L 503.815643 166.680142 
L 504.300793 165.168651 
L 504.785943 162.743288 
L 505.271093 159.25915 
L 506.241393 165.363366 
L 507.211692 170.11571 
L 507.696842 170.746468 
L 508.181992 174.243986 
L 508.667142 174.853338 
L 509.152292 172.391749 
L 509.637442 171.176649 
L 510.122592 169.255151 
L 511.092891 173.032697 
L 511.578041 172.446605 
L 512.063191 172.675588 
L 512.548341 174.114835 
L 513.033491 179.792474 
L 514.003791 184.706186 
L 514.974091 185.090055 
L 515.45924 183.652662 
L 515.94439 183.744976 
L 516.42954 178.497311 
L 516.91469 174.894617 
L 517.39984 175.260269 
L 518.37014 177.11292 
L 518.85529 180.3371 
L 519.34044 181.90149 
L 520.310739 188.229646 
L 520.795889 187.869141 
L 521.281039 186.489379 
L 521.766189 189.861754 
L 522.251339 190.569903 
L 522.736489 191.027766 
L 523.221639 191.699689 
L 523.706789 193.912846 
L 524.677088 191.759278 
L 525.162238 187.186726 
L 525.647388 187.19177 
L 526.132538 186.571099 
L 527.102838 181.690733 
L 527.587988 182.188115 
L 528.073138 182.372639 
L 528.558288 184.184021 
L 529.043437 181.136237 
L 529.528587 179.316829 
L 530.013737 180.942143 
L 530.498887 179.857126 
L 530.984037 183.354644 
L 531.469187 184.927267 
L 531.954337 183.084806 
L 532.439487 185.383587 
L 532.924637 186.71745 
L 533.409786 185.52705 
L 533.894936 187.577191 
L 534.380086 183.385008 
L 534.865236 182.89442 
L 535.350386 184.279328 
L 535.835536 184.724018 
L 536.320686 184.284475 
L 536.805836 184.062285 
L 537.776135 181.529995 
L 538.261285 179.338452 
L 538.746435 177.94881 
L 539.231585 174.742951 
L 539.716735 174.790806 
L 540.201885 172.559743 
L 540.687035 172.181125 
L 541.172185 173.549567 
L 542.627634 180.577639 
L 543.112784 181.341773 
L 543.597934 184.863991 
L 544.083084 186.476132 
L 544.568234 186.917529 
L 545.053384 188.424287 
L 545.538534 186.270616 
L 546.023684 185.643358 
L 546.508834 182.491837 
L 546.993983 180.078 
L 547.964283 173.32049 
L 548.449433 168.937299 
L 548.934583 171.26078 
L 549.419733 172.749425 
L 550.390033 177.379919 
L 550.875183 178.773061 
L 551.360332 181.498315 
L 551.845482 186.028262 
L 552.330632 186.0119 
L 552.815782 186.685469 
L 553.300932 188.915092 
L 553.786082 189.264279 
L 554.271232 191.34406 
L 554.756382 189.387982 
L 555.241532 188.956672 
L 556.211831 183.475291 
L 556.696981 179.53504 
L 557.667281 177.501675 
L 558.152431 179.0002 
L 559.122731 174.205458 
L 559.607881 175.664465 
L 560.093031 179.157043 
L 560.57818 181.072162 
L 561.06333 181.730912 
L 561.54848 184.834889 
L 580.954476 180.478044 
L 581.924776 167.631345 
L 582.895075 150.243276 
L 584.350525 143.240318 
L 584.835675 134.849261 
L 585.805975 136.471282 
L 586.776275 141.900282 
L 587.746574 143.247318 
L 588.716874 147.556722 
L 589.202024 151.510353 
L 590.172324 154.092456 
L 590.657474 153.878499 
L 591.627774 161.178159 
L 592.112923 163.781564 
L 592.598073 163.101615 
L 593.083223 163.645102 
L 593.568373 164.904868 
L 594.053523 164.863806 
L 594.538673 162.30342 
L 595.508973 154.116647 
L 595.994123 150.196155 
L 596.964422 144.07424 
L 597.449572 142.715885 
L 597.934722 139.638461 
L 598.419872 140.066685 
L 599.875322 148.942261 
L 600.360472 150.09335 
L 600.845621 148.998454 
L 601.330771 152.109017 
L 601.815921 153.488985 
L 602.301071 156.010059 
L 602.786221 156.505795 
L 603.756521 161.608868 
L 604.726821 163.751324 
L 605.211971 166.064924 
L 605.69712 162.89035 
L 606.18227 164.489319 
L 606.66742 161.90588 
L 607.15257 153.667959 
L 607.63772 155.818544 
L 608.12287 154.728587 
L 610.063469 152.76757 
L 610.548619 153.556403 
L 611.033769 152.127243 
L 611.518919 151.157489 
L 612.004069 157.436143 
L 612.489219 155.79457 
L 613.459519 156.4385 
L 613.944669 158.029236 
L 614.429818 153.776128 
L 614.914968 151.48908 
L 615.400118 155.037643 
L 615.885268 155.465867 
L 616.855568 160.666091 
L 617.340718 160.032247 
L 617.825868 166.185758 
L 618.796167 172.787253 
L 619.281317 173.362026 
L 619.766467 171.860415 
L 620.251617 169.718269 
L 620.736767 169.876448 
L 621.707067 165.755173 
L 622.192217 161.037719 
L 622.677367 161.153085 
L 623.162517 163.236159 
L 623.647666 162.862481 
L 624.132816 161.701719 
L 624.617966 163.45053 
L 625.103116 162.628972 
L 625.588266 163.80476 
L 626.073416 162.872878 
L 626.558566 160.109958 
L 627.043716 162.644205 
L 661.489358 159.904338 
L 662.459658 152.873387 
L 663.429958 153.22916 
L 663.915107 149.57048 
L 664.400257 148.552975 
L 664.885407 150.222748 
L 665.370557 147.907708 
L 665.855707 148.691601 
L 666.340857 151.909194 
L 666.826007 151.682065 
L 667.311157 153.72562 
L 667.796307 153.771829 
L 668.281456 152.640706 
L 668.766606 152.18799 
L 669.736906 158.909688 
L 670.222056 158.50143 
L 670.707206 159.644286 
L 671.677506 166.687074 
L 672.162656 166.124035 
L 672.647806 167.950237 
L 673.132955 167.795558 
L 673.618105 170.341332 
L 674.103255 167.855043 
L 674.588405 168.398531 
L 675.073555 164.553783 
L 675.558705 166.543 
L 676.043855 163.78502 
L 676.529005 163.850988 
L 677.014155 166.288085 
L 677.499304 169.341017 
L 677.984454 169.153406 
L 678.469604 170.767194 
L 678.954754 171.216824 
L 679.439904 171.02592 
L 679.925054 172.745092 
L 680.410204 169.866909 
L 680.895354 169.218245 
L 681.380504 169.49992 
L 681.865653 171.555002 
L 682.350803 170.213112 
L 682.835953 170.157231 
L 683.321103 171.038275 
L 683.806253 173.043958 
L 684.776553 169.464419 
L 685.261703 170.208794 
L 685.746853 170.009657 
L 686.232003 170.678287 
L 686.717152 164.49205 
L 687.202302 159.863513 
L 687.687452 164.566355 
L 688.172602 164.658669 
L 688.657752 159.391245 
L 689.142902 160.748161 
L 689.628052 162.534844 
L 690.113202 167.110896 
L 690.598352 172.979542 
L 691.083501 172.036134 
L 691.568651 176.342141 
L 692.538951 183.282839 
L 693.024101 184.343364 
L 693.509251 186.467604 
L 693.994401 184.875428 
L 694.479551 184.562675 
L 694.964701 179.649273 
L 695.44985 178.628474 
L 695.935 173.178275 
L 696.42015 170.441701 
L 696.9053 166.565668 
L 697.8756 162.106837 
L 698.36075 162.21397 
L 698.8459 163.119713 
L 699.33105 164.288915 
L 699.816199 163.714349 
L 700.301349 164.827566 
L 700.786499 167.220204 
L 701.271649 168.906443 
L 702.727099 177.171124 
L 703.212249 178.65977 
L 703.697399 179.448603 
L 704.182549 179.608428 
L 704.667698 183.506074 
L 705.152848 185.388261 
L 706.123148 181.436587 
L 706.608298 180.165502 
L 707.578598 177.103002 
L 708.548898 166.935349 
L 709.034047 164.531391 
L 709.519197 163.729592 
L 710.004347 164.126531 
L 710.489497 163.830243 
L 710.974647 165.38146 
L 711.459797 164.49239 
L 712.430097 168.143147 
L 712.915247 166.038874 
L 713.885546 169.06227 
L 714.370696 168.472885 
L 715.340996 176.04753 
L 715.826146 176.546559 
L 716.311296 178.792648 
L 716.796446 178.349811 
L 717.281596 179.003622 
L 717.766745 178.228169 
L 718.737045 175.242956 
L 719.222195 171.350456 
L 719.707345 168.689627 
L 720.192495 170.980175 
L 720.677645 173.820693 
L 721.162795 173.601796 
L 721.647945 175.179359 
L 722.618244 176.35031 
L 723.103394 178.329648 
L 724.073694 177.0422 
L 724.558844 178.534139 
L 725.043994 178.076483 
L 725.529144 177.454165 
L 726.014294 177.386757 
L 726.499444 179.916065 
L 726.984593 177.979746 
L 727.469743 171.844555 
L 727.954893 170.288605 
L 728.440043 172.544574 
L 728.925193 179.499988 
L 729.895493 183.588745 
L 730.380643 186.612038 
L 730.865793 191.894488 
L 731.350942 193.434179 
L 731.836092 190.766763 
L 732.321242 185.166722 
L 732.806392 185.293615 
L 733.291542 181.804537 
L 733.776692 182.662528 
L 734.261842 191.040619 
L 734.746992 191.952948 
L 735.232142 197.754084 
L 735.717292 200.337729 
L 736.202441 200.555186 
L 736.687591 204.036238 
L 737.172741 204.461169 
L 737.657891 199.939662 
L 738.143041 199.361803 
L 738.628191 195.915537 
L 739.113341 197.957446 
L 739.598491 199.243557 
L 740.083641 199.973112 
L 740.56879 199.556621 
L 741.05394 196.130115 
L 741.53909 196.252068 
L 742.02424 196.624307 
L 742.50939 196.334606 
L 742.99454 194.367002 
L 743.47969 194.609159 
L 744.44999 196.570486 
L 744.935139 196.051906 
L 745.420289 197.211228 
L 745.905439 195.974722 
L 746.390589 192.958223 
L 746.875739 190.908288 
L 747.360889 190.41276 
L 748.331189 194.047051 
L 748.816339 193.992816 
L 749.301488 192.860047 
L 750.756938 195.911435 
L 751.242088 197.563096 
L 751.727238 202.07987 
L 752.212388 204.029568 
L 752.697538 203.700348 
L 753.182688 202.98088 
L 753.667838 202.66648 
L 754.152987 198.182845 
L 754.638137 196.276166 
L 755.123287 192.032937 
L 755.608437 189.151461 
L 756.093587 187.697602 
L 756.578737 189.644007 
L 757.549037 199.374074 
L 758.034187 199.95214 
L 758.519336 199.428619 
L 759.004486 201.379964 
L 759.489636 207.627332 
L 759.974786 210.481023 
L 760.459936 206.539126 
L 761.915386 211.006708 
L 763.370835 212.38997 
L 763.855985 210.055171 
L 764.341135 209.893906 
L 764.826285 215.243868 
L 765.311435 215.267024 
L 765.796585 215.73312 
L 766.281735 213.521817 
L 766.766885 208.608415 
L 767.252034 204.915157 
L 767.737184 209.976961 
L 768.222334 203.387303 
L 824.499722 186.437131 
L 825.470022 160.498181 
L 825.955171 152.558297 
L 826.440321 142.443232 
L 826.925471 127.582617 
L 827.410621 121.236659 
L 827.895771 125.275914 
L 828.866071 128.378347 
L 829.351221 127.155014 
L 829.836371 131.668495 
L 830.32152 131.849726 
L 830.80667 135.679861 
L 831.29182 134.446649 
L 832.26212 144.799137 
L 832.74727 150.088174 
L 833.23242 150.261173 
L 833.71757 153.493585 
L 834.20272 153.485456 
L 834.68787 161.066584 
L 835.173019 160.98271 
L 835.658169 165.397394 
L 836.143319 166.20434 
L 836.628469 165.713751 
L 837.113619 162.199974 
L 837.598769 164.951575 
L 838.083919 164.093791 
L 838.569069 163.650954 
L 839.054219 160.394049 
L 839.539368 163.079785 
L 840.024518 164.535498 
L 840.509668 167.283806 
L 840.994818 167.629699 
L 841.479968 166.335561 
L 841.965118 169.511989 
L 842.450268 170.630146 
L 842.935418 167.875459 
L 843.420568 167.924961 
L 843.905717 168.873516 
L 844.390867 168.993822 
L 844.876017 169.433573 
L 845.361167 165.880277 
L 845.846317 164.126733 
L 846.816617 164.232324 
L 847.301767 162.370103 
L 847.786917 158.189446 
L 848.272066 163.692544 
L 848.757216 165.456174 
L 849.242366 163.82448 
L 849.727516 164.091336 
L 850.212666 163.248371 
L 850.697816 163.531693 
L 851.182966 168.204896 
L 851.668116 162.76787 
L 852.153266 161.508311 
L 852.638416 163.439897 
L 854.093865 172.065187 
L 854.579015 172.175614 
L 855.549315 177.484514 
L 856.034465 178.294753 
L 856.519615 177.460022 
L 857.004765 178.311427 
L 857.489914 179.85441 
L 857.975064 182.946861 
L 858.460214 183.75216 
L 858.945364 185.016865 
L 859.430514 187.040661 
L 859.915664 188.237855 
L 860.400814 187.925101 
L 860.885964 189.420333 
L 862.341413 183.450011 
L 862.826563 183.484693 
L 863.311713 186.634775 
L 863.796863 188.57624 
L 864.282013 188.633975 
L 864.767163 191.462967 
L 881.747409 187.828986 
L 886.113758 184.111029 
L 886.598908 177.369882 
L 887.569208 157.403211 
L 888.054358 149.222921 
L 888.539508 137.739518 
L 889.024657 135.953042 
L 889.509807 136.060176 
L 889.994957 135.765535 
L 890.480107 136.837586 
L 890.965257 135.317862 
L 891.450407 132.772296 
L 891.935557 133.635226 
L 892.420707 133.648503 
L 892.905857 132.815418 
L 893.876156 132.9984 
L 894.846456 137.362142 
L 895.816756 139.484838 
L 896.301906 135.192211 
L 896.787056 133.833856 
L 897.757355 130.626453 
L 898.242505 126.505074 
L 898.727655 125.420057 
L 899.212805 122.9914 
L 899.697955 126.917039 
L 900.183105 127.376549 
L 900.668255 128.67254 
L 901.153405 128.662763 
L 901.638555 132.598282 
L 902.123705 133.495791 
L 904.549454 137.581152 
L 905.519754 138.76682 
L 906.975203 142.443922 
L 907.945503 147.171463 
L 908.430653 150.258974 
L 909.400953 154.37243 
L 910.371253 155.834833 
L 910.856403 154.570335 
L 911.826702 152.912399 
L 912.311852 151.376208 
L 913.282152 145.37285 
L 914.252452 143.136951 
L 914.737602 142.094746 
L 916.193051 142.75679 
L 917.163351 139.944471 
L 917.648501 139.692642 
L 918.133651 140.150505 
L 918.618801 139.496902 
L 919.103951 141.249006 
L 919.589101 139.008064 
L 920.074251 136.120001 
L 920.5594 135.260571 
L 921.04455 133.355538 
L 921.5297 132.450002 
L 922.01485 132.422113 
L 922.5 132.083014 
L 922.98515 130.808636 
L 923.4703 127.673581 
L 923.95545 130.769324 
L 924.4406 131.301285 
L 925.410899 128.146574 
L 925.896049 128.438128 
L 926.381199 131.627729 
L 926.866349 133.71739 
L 931.717848 126.923551 
L 955.975343 123.856007 
L 986.539786 121.01899 
L 987.024936 115.122558 
L 987.510086 103.632568 
L 1019.044829 89.022239 
L 1020.985428 59.935163 
L 1021.470578 59.439635 
L 1021.955728 60.184009 
L 1022.440878 63.413129 
L 1022.926028 62.007021 
L 1023.411178 63.51378 
L 1023.896327 62.837123 
L 1024.381477 66.309942 
L 1024.866627 60.683555 
L 1025.351777 58.142929 
L 1025.836927 58.409784 
L 1026.322077 55.8 
L 1026.807227 59.612022 
L 1027.292377 56.090012 
L 1027.777527 58.742815 
L 1028.262676 60.340137 
L 1028.747826 67.221453 
L 1029.232976 65.816993 
L 1029.718126 70.817872 
L 1030.203276 70.559457 
L 1030.688426 76.704735 
L 1031.173576 74.743717 
L 1031.658726 78.264288 
L 1032.143876 72.91618 
L 1032.629026 76.405465 
L 1033.599325 72.962596 
L 1034.084475 73.981955 
L 1034.569625 75.355337 
L 1035.539925 69.146151 
L 1036.025075 67.962337 
L 1036.510225 69.493795 
L 1036.995375 70.491748 
L 1037.480524 68.744791 
L 1037.965674 65.501059 
L 1038.450824 67.101674 
L 1038.935974 73.76893 
L 1039.421124 72.998417 
L 1039.906274 70.508835 
L 1040.391424 70.502353 
L 1040.876574 70.960216 
L 1041.361724 75.826072 
L 1041.846873 76.022123 
L 1042.332023 78.898867 
L 1042.817173 76.391173 
L 1043.302323 77.188239 
L 1043.787473 76.621906 
L 1044.272623 77.372867 
L 1044.757773 73.529766 
L 1045.242923 74.017269 
L 1045.728073 69.038002 
L 1046.698372 75.026955 
L 1047.668672 72.537477 
L 1048.638972 79.680709 
L 1049.124122 79.272452 
L 1049.609272 83.058128 
L 1050.094422 81.65202 
L 1050.579572 82.87062 
L 1051.064721 83.702266 
L 1051.549871 81.215977 
L 1052.035021 77.484847 
L 1052.520171 77.585394 
L 1053.005321 73.098466 
L 1053.490471 71.458539 
L 1053.975621 71.792906 
L 1054.460771 69.850001 
L 1054.945921 73.512181 
L 1055.43107 75.44706 
L 1055.91622 75.77484 
L 1056.88652 75.325521 
L 1057.85682 80.426947 
L 1058.34197 75.91038 
L 1059.31227 77.805843 
L 1060.282569 81.520819 
L 1060.767719 78.204635 
L 1062.708319 81.807537 
L 1063.193469 78.792685 
L 1063.678619 78.41736 
L 1064.163769 77.534876 
L 1065.134068 79.42046 
L 1065.619218 82.346602 
L 1066.104368 79.784569 
L 1066.589518 84.233832 
L 1067.074668 82.434183 
L 1067.559818 83.580332 
L 1068.044968 79.282765 
L 1068.530118 77.547334 
L 1069.015267 74.455091 
L 1069.500417 76.04418 
L 1069.985567 75.411983 
L 1070.470717 77.628433 
L 1070.955867 81.651222 
L 1071.441017 87.165846 
L 1077.262816 85.886528 
L 1077.747966 87.58594 
L 1078.233115 86.020111 
L 1078.718265 86.787538 
L 1079.203415 85.928107 
L 1079.688565 81.536683 
L 1080.173715 78.610748 
L 1080.658865 80.257469 
L 1081.144015 80.631354 
L 1081.629165 79.874014 
L 1082.114315 80.667787 
L 1082.599464 78.026717 
L 1083.084614 79.495603 
L 1083.569764 81.59185 
L 1084.054914 81.731916 
L 1084.540064 84.304035 
L 1085.025214 88.356463 
L 1085.510364 88.055236 
L 1085.995514 87.059136 
L 1086.480664 82.051877 
L 1086.965813 80.089213 
L 1087.450963 80.738084 
L 1088.906413 64.590021 
L 1089.391563 65.938704 
L 1089.876713 70.501584 
L 1090.361863 71.351341 
L 1090.847013 68.453399 
L 1091.332162 72.128752 
L 1091.817312 72.980156 
L 1092.787612 82.020291 
L 1093.272762 84.944786 
L 1093.757912 85.422409 
L 1094.243062 88.57249 
L 1094.728212 87.912301 
L 1095.213362 89.687457 
L 1095.698512 89.608523 
L 1096.183661 88.801784 
L 1096.668811 86.318789 
L 1097.153961 91.243924 
L 1097.639111 92.50369 
L 1098.124261 93.188786 
L 1099.094561 91.568722 
L 1099.579711 92.560089 
L 1100.064861 93.999336 
L 1100.55001 91.345093 
L 1101.03516 90.289715 
L 1101.52031 91.114774 
L 1102.00546 94.668277 
L 1102.49061 96.01202 
L 1102.97576 96.231123 
L 1103.94606 94.380533 
L 1104.43121 95.933396 
L 1104.916359 96.289169 
L 1105.401509 96.073566 
L 1105.886659 98.395399 
L 1106.371809 97.855412 
L 1107.342109 100.47374 
L 1107.827259 97.855723 
L 1108.312409 94.453916 
L 1108.797559 94.076944 
L 1109.282708 92.44031 
L 1109.767858 92.216474 
L 1110.253008 94.88739 
L 1110.738158 93.858358 
L 1111.223308 94.421604 
L 1112.193608 100.089467 
L 1113.163908 102.381765 
L 1113.649058 99.653424 
L 1114.619357 104.096204 
L 1115.104507 104.419045 
L 1115.589657 103.24511 
L 1116.074807 100.343875 
L 1116.559957 99.202873 
L 1117.045107 97.656803 
L 1117.530257 93.741251 
L 1118.015407 93.910956 
L 1118.500556 91.791863 
L 1118.985706 91.111914 
L 1119.470856 93.542424 
L 1119.956006 94.229167 
L 1120.441156 96.052076 
L 1120.926306 102.199001 
L 1121.411456 102.788593 
L 1121.896606 103.689396 
L 1122.866905 100.228414 
L 1123.352055 103.679827 
L 1123.837205 105.112487 
L 1124.322355 100.93183 
L 1124.807505 98.401083 
L 1125.292655 97.894029 
L 1125.777805 104.287946 
L 1126.262955 102.741876 
L 1126.748105 98.63861 
L 1127.233255 97.290135 
L 1127.718404 97.660727 
L 1128.203554 99.574199 
L 1128.688704 104.249049 
L 1129.173854 99.607339 
L 1129.659004 103.393015 
L 1130.144154 105.698382 
L 1130.629304 106.757261 
L 1131.114454 108.604868 
L 1131.599604 104.92149 
L 1132.084753 100.246847 
L 1133.540203 98.29427 
L 1134.025353 99.267524 
L 1134.510503 97.107266 
L 1134.995653 99.960957 
L 1135.480803 106.983882 
L 1135.965953 112.343724 
L 1136.451102 113.750039 
L 1136.936252 114.522406 
L 1137.421402 115.803577 
L 1137.906552 117.611666 
L 1138.391702 118.105755 
L 1138.876852 110.174104 
L 1139.362002 105.105921 
L 1139.847152 102.748069 
L 1140.332302 100.966533 
L 1141.302601 95.388001 
L 1141.787751 94.428127 
L 1142.272901 97.444833 
L 1143.243201 95.059092 
L 1143.728351 96.004354 
L 1144.213501 97.873367 
L 1144.698651 99.118313 
L 1145.183801 102.895756 
L 1145.66895 103.174138 
L 1146.1541 104.619971 
L 1146.63925 104.54927 
L 1147.1244 105.593329 
L 1147.60955 104.669681 
L 1148.0947 105.183529 
L 1148.57985 101.538022 
L 1149.065 101.039201 
L 1149.55015 103.105809 
L 1150.035299 104.247018 
L 1150.520449 102.615324 
L 1151.005599 100.308517 
L 1151.975899 104.728244 
L 1152.461049 108.253754 
L 1152.946199 105.000143 
L 1153.431349 110.695895 
L 1153.916499 113.016081 
L 1154.401648 118.36275 
L 1154.886798 119.350824 
L 1155.371948 122.853282 
L 1155.857098 123.633882 
L 1156.342248 126.528738 
L 1156.827398 125.37621 
L 1157.312548 128.070179 
L 1157.797698 126.813914 
L 1158.282848 128.658228 
L 1158.767997 126.000692 
L 1159.253147 124.049554 
L 1159.738297 124.517297 
L 1160.223447 125.579469 
L 1160.708597 122.969684 
L 1161.678897 122.958365 
L 1162.164047 126.684763 
L 1163.134347 130.014429 
L 1163.619496 126.219081 
L 1164.104646 124.946349 
L 1164.589796 124.69452 
L 1165.560096 115.900146 
L 1166.045246 113.56864 
L 1166.530396 113.213074 
L 1167.015546 114.629268 
L 1167.500696 118.046102 
L 1167.985845 118.706499 
L 1168.470995 118.131933 
L 1168.956145 115.14178 
L 1169.441295 114.493117 
L 1169.926445 111.292197 
L 1170.411595 112.775902 
L 1170.896745 110.455922 
L 1171.381895 110.693139 
L 1172.352194 123.713147 
L 1173.322494 131.134657 
L 1173.807644 129.218098 
L 1174.292794 128.429472 
L 1174.777944 126.493154 
L 1175.263094 122.32073 
L 1175.748244 121.018359 
L 1176.233394 120.140816 
L 1176.718544 119.860995 
L 1177.203693 124.027039 
L 1177.688843 126.147985 
L 1178.173993 126.861074 
L 1178.659143 130.620404 
L 1179.629443 133.569702 
L 1180.114593 136.856453 
L 1180.599743 136.346106 
L 1181.084893 138.443999 
L 1181.570042 142.52442 
L 1182.055192 141.549726 
L 1182.540342 145.616974 
L 1183.025492 148.641913 
L 1183.510642 147.565129 
L 1183.995792 149.692661 
L 1184.480942 153.130901 
L 1184.966092 153.242975 
L 1185.451242 154.043334 
L 1186.421541 148.827058 
L 1186.906691 150.394741 
L 1187.391841 150.607259 
L 1187.876991 149.968475 
L 1188.362141 149.907653 
L 1188.847291 154.916766 
L 1189.332441 153.825162 
L 1189.817591 153.983341 
L 1190.30274 151.477294 
L 1190.78789 149.613427 
L 1191.27304 146.499777 
L 1191.75819 146.527873 
L 1208.253286 144.537217 
L 1208.738436 148.171404 
L 1209.708736 151.777703 
L 1210.193886 150.966024 
L 1210.679036 152.092413 
L 1211.164186 151.247802 
L 1212.134486 144.663188 
L 1212.619636 141.373351 
L 1213.104785 142.394357 
L 1213.589935 139.585332 
L 1214.075085 138.105127 
L 1214.560235 140.142095 
L 1215.045385 141.405154 
L 1215.530535 141.095694 
L 1216.015685 143.170535 
L 1216.500835 139.739088 
L 1216.985985 141.359463 
L 1217.471134 140.865581 
L 1217.956284 137.738759 
L 1218.441434 137.924931 
L 1218.926584 137.845996 
L 1219.411734 140.080559 
L 1219.896884 140.064197 
L 1220.867184 143.229202 
L 1221.352334 142.131012 
L 1221.837483 140.621167 
L 1222.322633 142.87055 
L 1222.807783 140.315104 
L 1223.292933 140.876704 
L 1223.778083 140.185228 
L 1224.263233 141.713392 
L 1224.748383 145.443083 
L 1225.233533 145.011773 
L 1225.718683 144.144109 
L 1226.203833 145.988424 
L 1226.688982 148.632994 
L 1227.659282 152.665767 
L 1228.144432 152.912863 
L 1228.629582 155.399358 
L 1229.114732 154.498762 
L 1229.599882 155.67949 
L 1230.085032 155.164202 
L 1230.570182 156.633088 
L 1231.055331 154.378973 
L 1232.025631 150.985502 
L 1232.510781 153.394607 
L 1244.639528 150.560882 
L 1245.124678 148.016962 
L 1245.609828 146.482419 
L 1246.094978 141.414235 
L 1246.580128 141.714023 
L 1247.065278 142.451811 
L 1247.550428 137.563109 
L 1249.005877 133.977087 
L 1249.491027 137.222673 
L 1249.976177 137.754634 
L 1250.461327 135.67012 
L 1250.946477 136.371683 
L 1251.916777 137.076642 
L 1252.401927 136.436211 
L 1252.887077 136.9303 
L 1253.372226 136.023118 
L 1254.827676 145.132513 
L 1255.312826 146.183159 
L 1255.797976 146.774398 
L 1256.283126 144.709643 
L 1256.768276 143.420446 
L 1257.253426 139.886909 
L 1257.738576 135.10359 
L 1258.223725 132.785257 
L 1258.708875 131.792451 
L 1259.194025 129.526809 
L 1259.679175 131.537432 
L 1260.164325 131.873445 
L 1260.649475 130.814774 
L 1261.134625 131.438946 
L 1261.619775 128.692492 
L 1262.104925 129.779363 
L 1262.590074 131.85585 
L 1263.075224 131.134736 
L 1263.560374 131.584366 
L 1264.045524 129.405995 
L 1265.015824 132.66146 
L 1265.500974 132.633571 
L 1265.986124 131.174772 
L 1266.471274 132.772094 
L 1267.441573 140.024002 
L 1267.926723 143.689476 
L 1268.411873 143.827895 
L 1268.897023 144.140856 
L 1269.382173 148.469915 
L 1269.867323 151.392764 
L 1270.352473 149.665566 
L 1270.837623 148.547617 
L 1271.807922 152.527697 
L 1272.293072 156.810652 
L 1272.778222 156.155402 
L 1273.263372 154.121933 
L 1273.748522 156.410834 
L 1274.718822 163.647923 
L 1275.203972 164.998253 
L 1275.689122 165.472582 
L 1276.174271 166.111573 
L 1276.659421 168.234166 
L 1277.629721 166.064132 
L 1278.114871 165.263979 
L 1278.600021 163.067496 
L 1279.570321 165.848839 
L 1280.055471 163.090859 
L 1280.54062 163.456511 
L 1281.02577 164.121848 
L 1281.51092 165.582501 
L 1281.99607 169.223275 
L 1282.96637 167.290353 
L 1283.45152 169.934924 
L 1283.93667 168.136922 
L 1284.42182 166.913589 
L 1284.906969 163.510135 
L 1285.392119 158.835493 
L 1285.877269 155.82064 
L 1286.847569 153.777396 
L 1287.817869 146.68233 
L 1288.303019 148.799983 
L 1288.788169 149.895087 
L 1289.273318 150.290379 
L 1289.758468 149.839309 
L 1290.243618 146.078539 
L 1290.728768 149.557945 
L 1291.213918 151.380853 
L 1291.699068 148.894565 
L 1292.184218 148.181683 
L 1292.669368 148.203193 
L 1293.154518 149.490951 
L 1293.639668 150.052551 
L 1294.124817 149.583369 
L 1295.095117 153.362562 
L 1295.580267 152.521244 
L 1296.065417 152.33528 
L 1296.550567 151.340827 
L 1297.035717 153.013893 
L 1297.520867 155.362072 
L 1298.006017 155.077311 
L 1298.491166 155.014843 
L 1299.461466 159.903856 
L 1299.946616 159.770584 
L 1300.431766 162.89926 
L 1300.916916 162.319754 
L 1301.402066 163.846272 
L 1302.857515 171.394675 
L 1303.342665 172.147282 
L 1303.827815 169.364603 
L 1304.312965 167.446398 
L 1304.798115 164.886012 
L 1305.768415 155.362186 
L 1306.253565 153.297432 
L 1306.738715 154.572017 
L 1307.223865 154.782887 
L 1307.709014 156.8956 
L 1308.194164 159.752585 
L 1308.679314 165.221103 
L 1309.164464 168.167005 
L 1309.649614 169.015116 
L 1310.134764 167.376835 
L 1310.619914 168.720578 
L 1311.105064 169.460013 
L 1311.590214 168.098364 
L 1312.075363 164.693264 
L 1313.045663 161.885989 
L 1313.530813 166.366537 
L 1314.015963 166.761829 
L 1314.501113 169.190693 
L 1314.986263 169.93342 
L 1315.471413 166.602418 
L 1315.956563 168.519183 
L 1316.441712 171.084716 
L 1316.926862 169.550173 
L 1317.412012 166.563313 
L 1317.897162 165.176965 
L 1318.382312 164.383399 
L 1318.867462 168.430887 
L 1319.837762 167.332801 
L 1320.322912 169.483386 
L 1320.808061 173.43537 
L 1321.293211 174.143519 
L 1321.778361 175.928556 
L 1322.263511 173.789704 
L 1322.748661 175.332687 
L 1323.233811 177.647934 
L 1323.718961 174.144037 
L 1324.204111 174.121088 
L 1324.689261 173.915364 
L 1325.174411 176.614273 
L 1325.65956 182.067972 
L 1326.14471 183.788791 
L 1326.62986 182.901367 
L 1327.11501 188.939616 
L 1327.60016 188.758591 
L 1328.08531 190.25547 
L 1328.57046 192.275972 
L 1329.05561 193.264046 
L 1329.54076 192.987518 
L 1330.025909 195.147983 
L 1330.511059 191.767582 
L 1330.996209 194.268897 
L 1331.481359 192.581218 
L 1331.966509 190.333689 
L 1332.451659 187.41434 
L 1332.936809 187.682843 
L 1333.421959 187.007833 
L 1333.907109 187.737388 
L 1334.392258 187.390055 
L 1334.877408 190.813476 
L 1335.362558 189.246 
L 1335.847708 193.680443 
L 1336.332858 192.630005 
L 1336.818008 192.070259 
L 1337.303158 193.018814 
L 1337.788308 192.71594 
L 1338.273458 190.899824 
L 1338.758607 192.721086 
L 1339.243757 190.990595 
L 1339.728907 192.676835 
L 1340.214057 191.998532 
L 1340.699207 190.707688 
L 1341.184357 189.981633 
L 1341.669507 191.891813 
L 1342.154657 191.109773 
L 1342.639807 193.375622 
L 1343.124957 192.377875 
L 1343.610106 194.192551 
L 1344.580406 201.194173 
L 1345.065556 201.484081 
L 1345.550706 205.230239 
L 1346.035856 206.079997 
L 1347.006156 211.033228 
L 1347.976455 206.87408 
L 1348.461605 207.308891 
L 1348.946755 201.399286 
L 1349.431905 200.640299 
L 1349.917055 199.489417 
L 1350.402205 196.420226 
L 1350.887355 195.901646 
L 1351.372505 196.804095 
L 1351.857655 196.290454 
L 1352.342804 202.903372 
L 1353.313104 208.307776 
L 1353.798254 208.316112 
L 1354.283404 211.810337 
L 1354.768554 211.50417 
L 1355.253704 212.918718 
L 1355.738854 211.110836 
L 1356.224004 207.97084 
L 1356.709154 209.294824 
L 1357.194303 212.398801 
L 1357.679453 209.909219 
L 1358.164603 213.744294 
L 1358.649753 216.202797 
L 1359.134903 220.740977 
L 1359.620053 220.96502 
L 1360.105203 217.5451 
L 1360.590353 216.473256 
L 1361.075503 216.407495 
L 1362.045802 214.57337 
L 1362.530952 210.929511 
L 1363.501252 218.097442 
L 1363.986402 223.686163 
L 1364.471552 226.837892 
L 1364.956702 226.054206 
L 1365.441852 225.540565 
L 1365.927001 229.975008 
L 1366.412151 228.998667 
L 1366.897301 229.80726 
L 1383.392398 227.181009 
L 1383.877547 231.325648 
L 1384.362697 234.452677 
L 1384.847847 233.515855 
L 1385.332997 227.011822 
L 1385.818147 227.374181 
L 1386.303297 223.104607 
L 1386.788447 220.132566 
L 1387.758747 216.195712 
L 1388.243897 217.531222 
L 1388.729046 220.518289 
L 1389.214196 220.086979 
L 1389.699346 223.446181 
L 1390.184496 224.509999 
L 1390.669646 219.471455 
L 1391.154796 218.19543 
L 1391.639946 210.499246 
L 1392.125096 206.420679 
L 1392.610246 207.347828 
L 1393.095395 205.460908 
L 1393.580545 207.158674 
L 1394.065695 208.375627 
L 1394.550845 210.695814 
L 1395.035995 219.054146 
L 1395.521145 224.66098 
L 1396.006295 225.734678 
L 1396.491445 224.053586 
L 1396.976595 220.882305 
L 1397.461744 221.506476 
L 1398.432044 219.109209 
L 1398.917194 217.284861 
L 1399.402344 214.288121 
L 1400.372644 220.145345 
L 1400.857794 222.216893 
L 1401.342944 221.174688 
L 1401.828093 220.483212 
L 1402.798393 222.014773 
L 1403.283543 225.070998 
L 1403.768693 223.757101 
L 1404.253843 219.093985 
L 1404.738993 218.973886 
L 1405.224143 219.60629 
L 1405.709293 215.692385 
L 1406.194443 214.297804 
L 1406.679592 209.101184 
L 1407.164742 211.073935 
L 1407.649892 216.631371 
L 1408.620192 220.124052 
L 1409.105342 226.760023 
L 1409.590492 227.581788 
L 1410.075642 229.442569 
L 1410.560792 228.846597 
L 1411.045941 227.257715 
L 1411.531091 227.458706 
L 1412.016241 224.54759 
L 1412.501391 220.5777 
L 1412.986541 220.717766 
L 1413.471691 219.828697 
L 1413.956841 218.144311 
L 1414.441991 217.63067 
L 1414.927141 218.381631 
L 1415.41229 218.037592 
L 1416.38259 211.925556 
L 1416.86774 210.066629 
L 1417.35289 210.208342 
L 1417.83804 209.538272 
L 1418.32319 209.556488 
L 1418.80834 210.747096 
L 1419.29349 214.025614 
L 1419.778639 219.859682 
L 1420.263789 223.88741 
L 1420.748939 226.189485 
L 1421.234089 230.172755 
L 1421.719239 230.164625 
L 1422.204389 229.204751 
L 1422.689539 230.543554 
L 1423.659839 226.886625 
L 1424.144989 225.582608 
L 1424.630138 221.802078 
L 1425.115288 220.065001 
L 1425.600438 225.505527 
L 1426.085588 221.642667 
L 1426.570738 220.394635 
L 1427.055888 221.863521 
L 1427.541038 220.297692 
L 1428.026188 219.565051 
L 1428.511338 220.202395 
L 1428.996487 216.917498 
L 1429.481637 220.913941 
L 1430.451937 222.099712 
L 1430.937087 220.665612 
L 1431.422237 219.585535 
L 1431.907387 220.481398 
L 1432.392537 222.890502 
L 1432.877687 222.546463 
L 1433.362836 223.154168 
L 1433.847986 221.137166 
L 1434.333136 223.44418 
L 1434.818286 228.272164 
L 1435.303436 230.96778 
L 1435.788586 228.478198 
L 1436.273736 229.026625 
L 1436.758886 227.189104 
L 1437.729186 231.266335 
L 1438.214335 230.150032 
L 1438.699485 227.341007 
L 1439.184635 223.758072 
L 1439.669785 224.07268 
L 1440.154935 224.927377 
L 1441.125235 218.530477 
L 1441.610385 217.140836 
L 1442.095535 216.722699 
L 1442.580684 222.031496 
L 1443.065834 221.193471 
L 1443.550984 222.533921 
L 1444.036134 223.540107 
L 1444.521284 229.125536 
L 1445.491584 227.347397 
L 1445.976734 226.89962 
L 1446.461884 227.597889 
L 1446.947033 227.782414 
L 1447.432183 227.464721 
L 1447.917333 223.200086 
L 1448.402483 225.915461 
L 1448.887633 224.374331 
L 1449.372783 224.565442 
L 1449.857933 222.815192 
L 1450.343083 221.899776 
L 1450.828233 223.467459 
L 1451.313382 222.78751 
L 1451.798532 220.154673 
L 1452.283682 222.125777 
L 1452.768832 220.452917 
L 1454.224282 231.660103 
L 1454.709432 237.867953 
L 1455.194582 240.919238 
L 1455.679732 242.809658 
L 1456.164881 243.626483 
L 1456.650031 242.478895 
L 1457.135181 240.522817 
L 1457.620331 237.659454 
L 1458.590631 234.061803 
L 1459.075781 232.300026 
L 1459.560931 223.43145 
L 1460.046081 222.814073 
L 1460.53123 221.979341 
L 1461.01638 224.862671 
L 1461.50153 224.218948 
L 1462.47183 229.188645 
L 1462.95698 238.582698 
L 1463.44213 238.786982 
L 1463.92728 241.303117 
L 1464.897579 239.32903 
L 1465.382729 236.175862 
L 1466.353029 239.202448 
L 1467.323329 250.430936 
L 1467.808479 252.731364 
L 1468.293629 252.938941 
L 1468.778779 253.602631 
L 1469.263928 255.764743 
L 1470.234228 246.522488 
L 1470.719378 244.826576 
L 1471.689678 239.63994 
L 1472.174828 242.582548 
L 1472.659978 244.654096 
L 1473.145128 247.614817 
L 1473.630278 246.676349 
L 1474.115427 244.889873 
L 1474.600577 244.367999 
L 1475.085727 245.10908 
L 1475.570877 245.359469 
L 1476.056027 246.113723 
L 1476.541177 246.067721 
L 1477.026327 244.492012 
L 1477.511477 241.032574 
L 1477.996627 238.533113 
L 1478.481776 239.682555 
L 1478.966926 237.273658 
L 1479.452076 237.578385 
L 1479.937226 236.980767 
L 1481.392676 249.28954 
L 1481.877826 249.71447 
L 1482.362976 251.595011 
L 1482.848125 249.790422 
L 1483.333275 249.569879 
L 1483.818425 249.097403 
L 1484.303575 248.972364 
L 1484.788725 249.698625 
L 1485.273875 253.357512 
L 1485.759025 255.175481 
L 1486.729325 259.909712 
L 1487.214475 261.218876 
L 1487.699624 262.928168 
L 1488.184774 263.232895 
L 1488.669924 259.727351 
L 1489.155074 257.963928 
L 1489.640224 254.889798 
L 1490.125374 253.15766 
L 1490.610524 252.665425 
L 1491.095674 252.599664 
L 1491.580824 254.919851 
L 1492.065973 254.465488 
L 1492.551123 254.873953 
L 1493.521423 259.970439 
L 1494.006573 261.412979 
L 1494.491723 262.284143 
L 1495.462023 258.562996 
L 1495.947173 255.026166 
L 1496.432322 257.667443 
L 1496.917472 258.88275 
L 1497.402622 259.320854 
L 1497.887772 256.888904 
L 1498.372922 257.330301 
L 1498.858072 262.182985 
L 1499.343222 264.919766 
L 1500.313522 261.600393 
L 1500.798671 260.745902 
L 1501.283821 262.652788 
L 1501.768971 263.14523 
L 1502.254121 262.116198 
L 1502.739271 265.126318 
L 1503.709571 265.459141 
L 1504.194721 264.229222 
L 1505.165021 255.958472 
L 1505.65017 255.436598 
L 1506.62047 250.753826 
L 1507.10562 250.711117 
L 1507.59077 254.136184 
L 1508.56107 265.861951 
L 1509.04622 267.502085 
L 1509.53137 267.316121 
L 1510.016519 270.230737 
L 1510.501669 271.154592 
L 1510.986819 270.041583 
L 1511.471969 267.957069 
L 1511.957119 267.291939 
L 1512.442269 268.973239 
L 1516.808618 272.548148 
L 1517.293768 269.767115 
L 1518.264068 268.323239 
L 1518.749218 266.806809 
L 1519.719517 258.763292 
L 1520.204667 257.61241 
L 1521.174967 266.645958 
L 1521.660117 266.189948 
L 1522.145267 268.223624 
L 1522.630417 269.274269 
L 1523.115567 269.36329 
L 1523.600716 265.210625 
L 1524.085866 259.44263 
L 1524.571016 255.052852 
L 1525.541316 253.890548 
L 1526.026466 256.138283 
L 1526.511616 257.653275 
L 1526.996766 259.960289 
L 1527.481916 262.873258 
L 1527.967065 264.45082 
L 1528.452215 265.628255 
L 1528.937365 262.198455 
L 1529.422515 261.986145 
L 1529.907665 260.914301 
L 1530.877965 268.732646 
L 1531.363115 268.268403 
L 1531.848265 268.820123 
L 1532.333414 276.093334 
L 1533.303714 278.952068 
L 1533.788864 275.237404 
L 1534.274014 273.449281 
L 1534.759164 276.370484 
L 1535.244314 274.865579 
L 1535.729464 275.206532 
L 1536.214614 276.971809 
L 1537.670063 289.746575 
L 1538.155213 289.0304 
L 1538.640363 294.324377 
L 1539.610663 298.464179 
L 1540.095813 299.527998 
L 1540.580963 299.712522 
L 1541.066113 299.304265 
L 1541.551262 301.570113 
L 1542.036412 301.168442 
L 1542.521562 301.515982 
L 1543.006712 300.572574 
L 1543.491862 299.095662 
L 1544.462162 299.637503 
L 1544.947312 301.422539 
L 1545.917611 307.014657 
L 1546.402761 306.038317 
L 1547.858211 305.202146 
L 1548.343361 302.272918 
L 1548.828511 301.154969 
L 1549.313661 301.828538 
L 1549.798811 301.482852 
L 1550.28396 302.722859 
L 1550.76911 304.687376 
L 1551.25426 305.815412 
L 1551.73941 307.272772 
L 1552.22456 307.126327 
L 1552.70971 306.504009 
L 1553.19486 307.8 
L 1553.68001 305.690787 
L 1554.16516 304.236928 
L 1554.65031 303.752926 
L 1555.135459 302.572405 
L 1555.620609 303.51602 
L 1556.105759 305.735763 
L 1556.590909 306.771589 
L 1556.590909 306.771589 
" clip-path="url(#p1408dfd9fc)" style="fill: none; stroke: #33b16f; stroke-width: 2.5; stroke-linecap: square"/>
   </g>
   <g id="patch_3">
    <path d="M 225 320.4 
L 225 43.2 
" style="fill: none; stroke: #000000; stroke-width: 0.8; stroke-linejoin: miter; stroke-linecap: square"/>
   </g>
   <g id="patch_4">
    <path d="M 1620 320.4 
L 1620 43.2 
" style="fill: none; stroke: #000000; stroke-width: 0.8; stroke-linejoin: miter; stroke-linecap: square"/>
   </g>
   <g id="patch_5">
    <path d="M 225 320.4 
L 1620 320.4 
" style="fill: none; stroke: #000000; stroke-width: 0.8; stroke-linejoin: miter; stroke-linecap: square"/>
   </g>
   <g id="patch_6">
    <path d="M 225 43.2 
L 1620 43.2 
" style="fill: none; stroke: #000000; stroke-width: 0.8; stroke-linejoin: miter; stroke-linecap: square"/>
   </g>
   <g id="text_15">
    <!-- MGRD -->
    <g transform="translate(891.475 37.2) scale(0.2 -0.2)">
     <defs>
      <path id="DejaVuSans-4d" d="M 628 4666 
L 1569 4666 
L 2759 1491 
L 3956 4666 
L 4897 4666 
L 4897 0 
L 4281 0 
L 4281 4097 
L 3078 897 
L 2444 897 
L 1241 4097 
L 1241 0 
L 628 0 
L 628 4666 
z
" transform="scale(0.015625)"/>
      <path id="DejaVuSans-47" d="M 3809 666 
L 3809 1919 
L 2778 1919 
L 2778 2438 
L 4434 2438 
L 4434 434 
Q 4069 175 3628 42 
Q 3188 -91 2688 -91 
Q 1594 -91 976 548 
Q 359 1188 359 2328 
Q 359 3472 976 4111 
Q 1594 4750 2688 4750 
Q 3144 4750 3555 4637 
Q 3966 4525 4313 4306 
L 4313 3634 
Q 3963 3931 3569 4081 
Q 3175 4231 2741 4231 
Q 1884 4231 1454 3753 
Q 1025 3275 1025 2328 
Q 1025 1384 1454 906 
Q 1884 428 2741 428 
Q 3075 428 3337 486 
Q 3600 544 3809 666 
z
" transform="scale(0.015625)"/>
      <path id="DejaVuSans-52" d="M 2841 2188 
Q 3044 2119 3236 1894 
Q 3428 1669 3622 1275 
L 4263 0 
L 3584 0 
L 2988 1197 
Q 2756 1666 2539 1819 
Q 2322 1972 1947 1972 
L 1259 1972 
L 1259 0 
L 628 0 
L 628 4666 
L 2053 4666 
Q 2853 4666 3247 4331 
Q 3641 3997 3641 3322 
Q 3641 2881 3436 2590 
Q 3231 2300 2841 2188 
z
M 1259 4147 
L 1259 2491 
L 2053 2491 
Q 2509 2491 2742 2702 
Q 2975 2913 2975 3322 
Q 2975 3731 2742 3939 
Q 2509 4147 2053 4147 
L 1259 4147 
z
" transform="scale(0.015625)"/>
      <path id="DejaVuSans-44" d="M 1259 4147 
L 1259 519 
L 2022 519 
Q 2988 519 3436 956 
Q 3884 1394 3884 2338 
Q 3884 3275 3436 3711 
Q 2988 4147 2022 4147 
L 1259 4147 
z
M 628 4666 
L 1925 4666 
Q 3281 4666 3915 4102 
Q 4550 3538 4550 2338 
Q 4550 1131 3912 565 
Q 3275 0 1925 0 
L 628 0 
L 628 4666 
z
" transform="scale(0.015625)"/>
     </defs>
     <use xlink:href="#DejaVuSans-4d"/>
     <use xlink:href="#DejaVuSans-47" x="86.279297"/>
     <use xlink:href="#DejaVuSans-52" x="163.769531"/>
     <use xlink:href="#DejaVuSans-44" x="233.251953"/>
    </g>
   </g>
   <g id="legend_1">
    <g id="patch_7">
     <path d="M 1554.626563 65.878125 
L 1613 65.878125 
Q 1615 65.878125 1615 63.878125 
L 1615 50.2 
Q 1615 48.2 1613 48.2 
L 1554.626563 48.2 
Q 1552.626563 48.2 1552.626563 50.2 
L 1552.626563 63.878125 
Q 1552.626563 65.878125 1554.626563 65.878125 
z
" style="fill: #ffffff; opacity: 0.8; stroke: #cccccc; stroke-linejoin: miter"/>
    </g>
    <g id="line2d_14">
     <path d="M 1556.626563 56.298437 
L 1566.626563 56.298437 
L 1576.626563 56.298437 
" style="fill: none; stroke: #33b16f; stroke-width: 2.5; stroke-linecap: square"/>
    </g>
    <g id="text_16">
     <!-- mgrd -->
     <g transform="translate(1584.626563 59.798437) scale(0.1 -0.1)">
      <defs>
       <path id="DejaVuSans-67" d="M 2906 1791 
Q 2906 2416 2648 2759 
Q 2391 3103 1925 3103 
Q 1463 3103 1205 2759 
Q 947 2416 947 1791 
Q 947 1169 1205 825 
Q 1463 481 1925 481 
Q 2391 481 2648 825 
Q 2906 1169 2906 1791 
z
M 3481 434 
Q 3481 -459 3084 -895 
Q 2688 -1331 1869 -1331 
Q 1566 -1331 1297 -1286 
Q 1028 -1241 775 -1147 
L 775 -588 
Q 1028 -725 1275 -790 
Q 1522 -856 1778 -856 
Q 2344 -856 2625 -561 
Q 2906 -266 2906 331 
L 2906 616 
Q 2728 306 2450 153 
Q 2172 0 1784 0 
Q 1141 0 747 490 
Q 353 981 353 1791 
Q 353 2603 747 3093 
Q 1141 3584 1784 3584 
Q 2172 3584 2450 3431 
Q 2728 3278 2906 2969 
L 2906 3500 
L 3481 3500 
L 3481 434 
z
" transform="scale(0.015625)"/>
       <path id="DejaVuSans-72" d="M 2631 2963 
Q 2534 3019 2420 3045 
Q 2306 3072 2169 3072 
Q 1681 3072 1420 2755 
Q 1159 2438 1159 1844 
L 1159 0 
L 581 0 
L 581 3500 
L 1159 3500 
L 1159 2956 
Q 1341 3275 1631 3429 
Q 1922 3584 2338 3584 
Q 2397 3584 2469 3576 
Q 2541 3569 2628 3553 
L 2631 2963 
z
" transform="scale(0.015625)"/>
       <path id="DejaVuSans-64" d="M 2906 2969 
L 2906 4863 
L 3481 4863 
L 3481 0 
L 2906 0 
L 2906 525 
Q 2725 213 2448 61 
Q 2172 -91 1784 -91 
Q 1150 -91 751 415 
Q 353 922 353 1747 
Q 353 2572 751 3078 
Q 1150 3584 1784 3584 
Q 2172 3584 2448 3432 
Q 2725 3281 2906 2969 
z
M 947 1747 
Q 947 1113 1208 752 
Q 1469 391 1925 391 
Q 2381 391 2643 752 
Q 2906 1113 2906 1747 
Q 2906 2381 2643 2742 
Q 2381 3103 1925 3103 
Q 1469 3103 1208 2742 
Q 947 2381 947 1747 
z
" transform="scale(0.015625)"/>
      </defs>
      <use xlink:href="#DejaVuSans-6d"/>
      <use xlink:href="#DejaVuSans-67" x="97.412109"/>
      <use xlink:href="#DejaVuSans-72" x="160.888672"/>
      <use xlink:href="#DejaVuSans-64" x="200.251953"/>
     </g>
    </g>
   </g>
  </g>
 </g>
 <defs>
  <clipPath id="p1408dfd9fc">
   <rect x="225" y="43.2" width="1395" height="277.2"/>
  </clipPath>
 </defs>
</svg>
