<?xml version="1.0" encoding="utf-8" standalone="no"?>
<!DOCTYPE svg PUBLIC "-//W3C//DTD SVG 1.1//EN"
  "http://www.w3.org/Graphics/SVG/1.1/DTD/svg11.dtd">
<svg xmlns:xlink="http://www.w3.org/1999/xlink" width="1800pt" height="360pt" viewBox="0 0 1800 360" xmlns="http://www.w3.org/2000/svg" version="1.1">
 <metadata>
  <rdf:RDF xmlns:dc="http://purl.org/dc/elements/1.1/" xmlns:cc="http://creativecommons.org/ns#" xmlns:rdf="http://www.w3.org/1999/02/22-rdf-syntax-ns#">
   <cc:Work>
    <dc:type rdf:resource="http://purl.org/dc/dcmitype/StillImage"/>
    <dc:date>2024-03-14T12:47:13.959639</dc:date>
    <dc:format>image/svg+xml</dc:format>
    <dc:creator>
     <cc:Agent>
      <dc:title>Matplotlib v3.7.2, https://matplotlib.org/</dc:title>
     </cc:Agent>
    </dc:creator>
   </cc:Work>
  </rdf:RDF>
 </metadata>
 <defs>
  <style type="text/css">*{stroke-linejoin: round; stroke-linecap: butt}</style>
 </defs>
 <g id="figure_1">
  <g id="patch_1">
   <path d="M 0 360 
L 1800 360 
L 1800 0 
L 0 0 
z
" style="fill: #ffffff"/>
  </g>
  <g id="axes_1">
   <g id="patch_2">
    <path d="M 225 320.4 
L 1620 320.4 
L 1620 43.2 
L 225 43.2 
z
" style="fill: #ffffff"/>
   </g>
   <g id="matplotlib.axis_1">
    <g id="xtick_1">
     <g id="line2d_1">
      <defs>
       <path id="m4d2042dd25" d="M 0 0 
L 0 3.5 
" style="stroke: #000000; stroke-width: 0.8"/>
      </defs>
      <g>
       <use xlink:href="#m4d2042dd25" x="277.693571" y="320.4" style="stroke: #000000; stroke-width: 0.8"/>
      </g>
     </g>
     <g id="text_1">
      <!-- 2012 -->
      <g transform="translate(258.606071 338.797656) scale(0.15 -0.15)">
       <defs>
        <path id="DejaVuSans-32" d="M 1228 531 
L 3431 531 
L 3431 0 
L 469 0 
L 469 531 
Q 828 903 1448 1529 
Q 2069 2156 2228 2338 
Q 2531 2678 2651 2914 
Q 2772 3150 2772 3378 
Q 2772 3750 2511 3984 
Q 2250 4219 1831 4219 
Q 1534 4219 1204 4116 
Q 875 4013 500 3803 
L 500 4441 
Q 881 4594 1212 4672 
Q 1544 4750 1819 4750 
Q 2544 4750 2975 4387 
Q 3406 4025 3406 3419 
Q 3406 3131 3298 2873 
Q 3191 2616 2906 2266 
Q 2828 2175 2409 1742 
Q 1991 1309 1228 531 
z
" transform="scale(0.015625)"/>
        <path id="DejaVuSans-30" d="M 2034 4250 
Q 1547 4250 1301 3770 
Q 1056 3291 1056 2328 
Q 1056 1369 1301 889 
Q 1547 409 2034 409 
Q 2525 409 2770 889 
Q 3016 1369 3016 2328 
Q 3016 3291 2770 3770 
Q 2525 4250 2034 4250 
z
M 2034 4750 
Q 2819 4750 3233 4129 
Q 3647 3509 3647 2328 
Q 3647 1150 3233 529 
Q 2819 -91 2034 -91 
Q 1250 -91 836 529 
Q 422 1150 422 2328 
Q 422 3509 836 4129 
Q 1250 4750 2034 4750 
z
" transform="scale(0.015625)"/>
        <path id="DejaVuSans-31" d="M 794 531 
L 1825 531 
L 1825 4091 
L 703 3866 
L 703 4441 
L 1819 4666 
L 2450 4666 
L 2450 531 
L 3481 531 
L 3481 0 
L 794 0 
L 794 531 
z
" transform="scale(0.015625)"/>
       </defs>
       <use xlink:href="#DejaVuSans-32"/>
       <use xlink:href="#DejaVuSans-30" x="63.623047"/>
       <use xlink:href="#DejaVuSans-31" x="127.246094"/>
       <use xlink:href="#DejaVuSans-32" x="190.869141"/>
      </g>
     </g>
    </g>
    <g id="xtick_2">
     <g id="line2d_2">
      <g>
       <use xlink:href="#m4d2042dd25" x="473.787591" y="320.4" style="stroke: #000000; stroke-width: 0.8"/>
      </g>
     </g>
     <g id="text_2">
      <!-- 2013 -->
      <g transform="translate(454.700091 338.797656) scale(0.15 -0.15)">
       <defs>
        <path id="DejaVuSans-33" d="M 2597 2516 
Q 3050 2419 3304 2112 
Q 3559 1806 3559 1356 
Q 3559 666 3084 287 
Q 2609 -91 1734 -91 
Q 1441 -91 1130 -33 
Q 819 25 488 141 
L 488 750 
Q 750 597 1062 519 
Q 1375 441 1716 441 
Q 2309 441 2620 675 
Q 2931 909 2931 1356 
Q 2931 1769 2642 2001 
Q 2353 2234 1838 2234 
L 1294 2234 
L 1294 2753 
L 1863 2753 
Q 2328 2753 2575 2939 
Q 2822 3125 2822 3475 
Q 2822 3834 2567 4026 
Q 2313 4219 1838 4219 
Q 1578 4219 1281 4162 
Q 984 4106 628 3988 
L 628 4550 
Q 988 4650 1302 4700 
Q 1616 4750 1894 4750 
Q 2613 4750 3031 4423 
Q 3450 4097 3450 3541 
Q 3450 3153 3228 2886 
Q 3006 2619 2597 2516 
z
" transform="scale(0.015625)"/>
       </defs>
       <use xlink:href="#DejaVuSans-32"/>
       <use xlink:href="#DejaVuSans-30" x="63.623047"/>
       <use xlink:href="#DejaVuSans-31" x="127.246094"/>
       <use xlink:href="#DejaVuSans-33" x="190.869141"/>
      </g>
     </g>
    </g>
    <g id="xtick_3">
     <g id="line2d_3">
      <g>
       <use xlink:href="#m4d2042dd25" x="669.345835" y="320.4" style="stroke: #000000; stroke-width: 0.8"/>
      </g>
     </g>
     <g id="text_3">
      <!-- 2014 -->
      <g transform="translate(650.258335 338.797656) scale(0.15 -0.15)">
       <defs>
        <path id="DejaVuSans-34" d="M 2419 4116 
L 825 1625 
L 2419 1625 
L 2419 4116 
z
M 2253 4666 
L 3047 4666 
L 3047 1625 
L 3713 1625 
L 3713 1100 
L 3047 1100 
L 3047 0 
L 2419 0 
L 2419 1100 
L 313 1100 
L 313 1709 
L 2253 4666 
z
" transform="scale(0.015625)"/>
       </defs>
       <use xlink:href="#DejaVuSans-32"/>
       <use xlink:href="#DejaVuSans-30" x="63.623047"/>
       <use xlink:href="#DejaVuSans-31" x="127.246094"/>
       <use xlink:href="#DejaVuSans-34" x="190.869141"/>
      </g>
     </g>
    </g>
    <g id="xtick_4">
     <g id="line2d_4">
      <g>
       <use xlink:href="#m4d2042dd25" x="864.904079" y="320.4" style="stroke: #000000; stroke-width: 0.8"/>
      </g>
     </g>
     <g id="text_4">
      <!-- 2015 -->
      <g transform="translate(845.816579 338.797656) scale(0.15 -0.15)">
       <defs>
        <path id="DejaVuSans-35" d="M 691 4666 
L 3169 4666 
L 3169 4134 
L 1269 4134 
L 1269 2991 
Q 1406 3038 1543 3061 
Q 1681 3084 1819 3084 
Q 2600 3084 3056 2656 
Q 3513 2228 3513 1497 
Q 3513 744 3044 326 
Q 2575 -91 1722 -91 
Q 1428 -91 1123 -41 
Q 819 9 494 109 
L 494 744 
Q 775 591 1075 516 
Q 1375 441 1709 441 
Q 2250 441 2565 725 
Q 2881 1009 2881 1497 
Q 2881 1984 2565 2268 
Q 2250 2553 1709 2553 
Q 1456 2553 1204 2497 
Q 953 2441 691 2322 
L 691 4666 
z
" transform="scale(0.015625)"/>
       </defs>
       <use xlink:href="#DejaVuSans-32"/>
       <use xlink:href="#DejaVuSans-30" x="63.623047"/>
       <use xlink:href="#DejaVuSans-31" x="127.246094"/>
       <use xlink:href="#DejaVuSans-35" x="190.869141"/>
      </g>
     </g>
    </g>
    <g id="xtick_5">
     <g id="line2d_5">
      <g>
       <use xlink:href="#m4d2042dd25" x="1060.462323" y="320.4" style="stroke: #000000; stroke-width: 0.8"/>
      </g>
     </g>
     <g id="text_5">
      <!-- 2016 -->
      <g transform="translate(1041.374823 338.797656) scale(0.15 -0.15)">
       <defs>
        <path id="DejaVuSans-36" d="M 2113 2584 
Q 1688 2584 1439 2293 
Q 1191 2003 1191 1497 
Q 1191 994 1439 701 
Q 1688 409 2113 409 
Q 2538 409 2786 701 
Q 3034 994 3034 1497 
Q 3034 2003 2786 2293 
Q 2538 2584 2113 2584 
z
M 3366 4563 
L 3366 3988 
Q 3128 4100 2886 4159 
Q 2644 4219 2406 4219 
Q 1781 4219 1451 3797 
Q 1122 3375 1075 2522 
Q 1259 2794 1537 2939 
Q 1816 3084 2150 3084 
Q 2853 3084 3261 2657 
Q 3669 2231 3669 1497 
Q 3669 778 3244 343 
Q 2819 -91 2113 -91 
Q 1303 -91 875 529 
Q 447 1150 447 2328 
Q 447 3434 972 4092 
Q 1497 4750 2381 4750 
Q 2619 4750 2861 4703 
Q 3103 4656 3366 4563 
z
" transform="scale(0.015625)"/>
       </defs>
       <use xlink:href="#DejaVuSans-32"/>
       <use xlink:href="#DejaVuSans-30" x="63.623047"/>
       <use xlink:href="#DejaVuSans-31" x="127.246094"/>
       <use xlink:href="#DejaVuSans-36" x="190.869141"/>
      </g>
     </g>
    </g>
    <g id="xtick_6">
     <g id="line2d_6">
      <g>
       <use xlink:href="#m4d2042dd25" x="1256.556343" y="320.4" style="stroke: #000000; stroke-width: 0.8"/>
      </g>
     </g>
     <g id="text_6">
      <!-- 2017 -->
      <g transform="translate(1237.468843 338.797656) scale(0.15 -0.15)">
       <defs>
        <path id="DejaVuSans-37" d="M 525 4666 
L 3525 4666 
L 3525 4397 
L 1831 0 
L 1172 0 
L 2766 4134 
L 525 4134 
L 525 4666 
z
" transform="scale(0.015625)"/>
       </defs>
       <use xlink:href="#DejaVuSans-32"/>
       <use xlink:href="#DejaVuSans-30" x="63.623047"/>
       <use xlink:href="#DejaVuSans-31" x="127.246094"/>
       <use xlink:href="#DejaVuSans-37" x="190.869141"/>
      </g>
     </g>
    </g>
    <g id="xtick_7">
     <g id="line2d_7">
      <g>
       <use xlink:href="#m4d2042dd25" x="1452.114587" y="320.4" style="stroke: #000000; stroke-width: 0.8"/>
      </g>
     </g>
     <g id="text_7">
      <!-- 2018 -->
      <g transform="translate(1433.027087 338.797656) scale(0.15 -0.15)">
       <defs>
        <path id="DejaVuSans-38" d="M 2034 2216 
Q 1584 2216 1326 1975 
Q 1069 1734 1069 1313 
Q 1069 891 1326 650 
Q 1584 409 2034 409 
Q 2484 409 2743 651 
Q 3003 894 3003 1313 
Q 3003 1734 2745 1975 
Q 2488 2216 2034 2216 
z
M 1403 2484 
Q 997 2584 770 2862 
Q 544 3141 544 3541 
Q 544 4100 942 4425 
Q 1341 4750 2034 4750 
Q 2731 4750 3128 4425 
Q 3525 4100 3525 3541 
Q 3525 3141 3298 2862 
Q 3072 2584 2669 2484 
Q 3125 2378 3379 2068 
Q 3634 1759 3634 1313 
Q 3634 634 3220 271 
Q 2806 -91 2034 -91 
Q 1263 -91 848 271 
Q 434 634 434 1313 
Q 434 1759 690 2068 
Q 947 2378 1403 2484 
z
M 1172 3481 
Q 1172 3119 1398 2916 
Q 1625 2713 2034 2713 
Q 2441 2713 2670 2916 
Q 2900 3119 2900 3481 
Q 2900 3844 2670 4047 
Q 2441 4250 2034 4250 
Q 1625 4250 1398 4047 
Q 1172 3844 1172 3481 
z
" transform="scale(0.015625)"/>
       </defs>
       <use xlink:href="#DejaVuSans-32"/>
       <use xlink:href="#DejaVuSans-30" x="63.623047"/>
       <use xlink:href="#DejaVuSans-31" x="127.246094"/>
       <use xlink:href="#DejaVuSans-38" x="190.869141"/>
      </g>
     </g>
    </g>
    <g id="text_8">
     <!-- Time -->
     <g transform="translate(904.149609 357.314844) scale(0.15 -0.15)">
      <defs>
       <path id="DejaVuSans-54" d="M -19 4666 
L 3928 4666 
L 3928 4134 
L 2272 4134 
L 2272 0 
L 1638 0 
L 1638 4134 
L -19 4134 
L -19 4666 
z
" transform="scale(0.015625)"/>
       <path id="DejaVuSans-69" d="M 603 3500 
L 1178 3500 
L 1178 0 
L 603 0 
L 603 3500 
z
M 603 4863 
L 1178 4863 
L 1178 4134 
L 603 4134 
L 603 4863 
z
" transform="scale(0.015625)"/>
       <path id="DejaVuSans-6d" d="M 3328 2828 
Q 3544 3216 3844 3400 
Q 4144 3584 4550 3584 
Q 5097 3584 5394 3201 
Q 5691 2819 5691 2113 
L 5691 0 
L 5113 0 
L 5113 2094 
Q 5113 2597 4934 2840 
Q 4756 3084 4391 3084 
Q 3944 3084 3684 2787 
Q 3425 2491 3425 1978 
L 3425 0 
L 2847 0 
L 2847 2094 
Q 2847 2600 2669 2842 
Q 2491 3084 2119 3084 
Q 1678 3084 1418 2786 
Q 1159 2488 1159 1978 
L 1159 0 
L 581 0 
L 581 3500 
L 1159 3500 
L 1159 2956 
Q 1356 3278 1631 3431 
Q 1906 3584 2284 3584 
Q 2666 3584 2933 3390 
Q 3200 3197 3328 2828 
z
" transform="scale(0.015625)"/>
       <path id="DejaVuSans-65" d="M 3597 1894 
L 3597 1613 
L 953 1613 
Q 991 1019 1311 708 
Q 1631 397 2203 397 
Q 2534 397 2845 478 
Q 3156 559 3463 722 
L 3463 178 
Q 3153 47 2828 -22 
Q 2503 -91 2169 -91 
Q 1331 -91 842 396 
Q 353 884 353 1716 
Q 353 2575 817 3079 
Q 1281 3584 2069 3584 
Q 2775 3584 3186 3129 
Q 3597 2675 3597 1894 
z
M 3022 2063 
Q 3016 2534 2758 2815 
Q 2500 3097 2075 3097 
Q 1594 3097 1305 2825 
Q 1016 2553 972 2059 
L 3022 2063 
z
" transform="scale(0.015625)"/>
      </defs>
      <use xlink:href="#DejaVuSans-54"/>
      <use xlink:href="#DejaVuSans-69" x="57.958984"/>
      <use xlink:href="#DejaVuSans-6d" x="85.742188"/>
      <use xlink:href="#DejaVuSans-65" x="183.154297"/>
     </g>
    </g>
   </g>
   <g id="matplotlib.axis_2">
    <g id="ytick_1">
     <g id="line2d_8">
      <defs>
       <path id="m9b8d65df05" d="M 0 0 
L -3.5 0 
" style="stroke: #000000; stroke-width: 0.8"/>
      </defs>
      <g>
       <use xlink:href="#m9b8d65df05" x="225" y="315.791902" style="stroke: #000000; stroke-width: 0.8"/>
      </g>
     </g>
     <g id="text_9">
      <!-- −0.006 -->
      <g transform="translate(162.488281 321.49073) scale(0.15 -0.15)">
       <defs>
        <path id="DejaVuSans-2212" d="M 678 2272 
L 4684 2272 
L 4684 1741 
L 678 1741 
L 678 2272 
z
" transform="scale(0.015625)"/>
        <path id="DejaVuSans-2e" d="M 684 794 
L 1344 794 
L 1344 0 
L 684 0 
L 684 794 
z
" transform="scale(0.015625)"/>
       </defs>
       <use xlink:href="#DejaVuSans-2212"/>
       <use xlink:href="#DejaVuSans-30" x="83.789062"/>
       <use xlink:href="#DejaVuSans-2e" x="147.412109"/>
       <use xlink:href="#DejaVuSans-30" x="179.199219"/>
       <use xlink:href="#DejaVuSans-30" x="242.822266"/>
       <use xlink:href="#DejaVuSans-36" x="306.445312"/>
      </g>
     </g>
    </g>
    <g id="ytick_2">
     <g id="line2d_9">
      <g>
       <use xlink:href="#m9b8d65df05" x="225" y="266.462905" style="stroke: #000000; stroke-width: 0.8"/>
      </g>
     </g>
     <g id="text_10">
      <!-- −0.004 -->
      <g transform="translate(162.488281 272.161733) scale(0.15 -0.15)">
       <use xlink:href="#DejaVuSans-2212"/>
       <use xlink:href="#DejaVuSans-30" x="83.789062"/>
       <use xlink:href="#DejaVuSans-2e" x="147.412109"/>
       <use xlink:href="#DejaVuSans-30" x="179.199219"/>
       <use xlink:href="#DejaVuSans-30" x="242.822266"/>
       <use xlink:href="#DejaVuSans-34" x="306.445312"/>
      </g>
     </g>
    </g>
    <g id="ytick_3">
     <g id="line2d_10">
      <g>
       <use xlink:href="#m9b8d65df05" x="225" y="217.133907" style="stroke: #000000; stroke-width: 0.8"/>
      </g>
     </g>
     <g id="text_11">
      <!-- −0.002 -->
      <g transform="translate(162.488281 222.832735) scale(0.15 -0.15)">
       <use xlink:href="#DejaVuSans-2212"/>
       <use xlink:href="#DejaVuSans-30" x="83.789062"/>
       <use xlink:href="#DejaVuSans-2e" x="147.412109"/>
       <use xlink:href="#DejaVuSans-30" x="179.199219"/>
       <use xlink:href="#DejaVuSans-30" x="242.822266"/>
       <use xlink:href="#DejaVuSans-32" x="306.445312"/>
      </g>
     </g>
    </g>
    <g id="ytick_4">
     <g id="line2d_11">
      <g>
       <use xlink:href="#m9b8d65df05" x="225" y="167.80491" style="stroke: #000000; stroke-width: 0.8"/>
      </g>
     </g>
     <g id="text_12">
      <!-- 0.000 -->
      <g transform="translate(175.057813 173.503738) scale(0.15 -0.15)">
       <use xlink:href="#DejaVuSans-30"/>
       <use xlink:href="#DejaVuSans-2e" x="63.623047"/>
       <use xlink:href="#DejaVuSans-30" x="95.410156"/>
       <use xlink:href="#DejaVuSans-30" x="159.033203"/>
       <use xlink:href="#DejaVuSans-30" x="222.65625"/>
      </g>
     </g>
    </g>
    <g id="ytick_5">
     <g id="line2d_12">
      <g>
       <use xlink:href="#m9b8d65df05" x="225" y="118.475913" style="stroke: #000000; stroke-width: 0.8"/>
      </g>
     </g>
     <g id="text_13">
      <!-- 0.002 -->
      <g transform="translate(175.057813 124.174741) scale(0.15 -0.15)">
       <use xlink:href="#DejaVuSans-30"/>
       <use xlink:href="#DejaVuSans-2e" x="63.623047"/>
       <use xlink:href="#DejaVuSans-30" x="95.410156"/>
       <use xlink:href="#DejaVuSans-30" x="159.033203"/>
       <use xlink:href="#DejaVuSans-32" x="222.65625"/>
      </g>
     </g>
    </g>
    <g id="ytick_6">
     <g id="line2d_13">
      <g>
       <use xlink:href="#m9b8d65df05" x="225" y="69.146916" style="stroke: #000000; stroke-width: 0.8"/>
      </g>
     </g>
     <g id="text_14">
      <!-- 0.004 -->
      <g transform="translate(175.057813 74.845744) scale(0.15 -0.15)">
       <use xlink:href="#DejaVuSans-30"/>
       <use xlink:href="#DejaVuSans-2e" x="63.623047"/>
       <use xlink:href="#DejaVuSans-30" x="95.410156"/>
       <use xlink:href="#DejaVuSans-30" x="159.033203"/>
       <use xlink:href="#DejaVuSans-34" x="222.65625"/>
      </g>
     </g>
    </g>
    <g id="text_15">
     <!-- East(m) -->
     <g transform="translate(155.36875 211.140234) rotate(-90) scale(0.15 -0.15)">
      <defs>
       <path id="DejaVuSans-45" d="M 628 4666 
L 3578 4666 
L 3578 4134 
L 1259 4134 
L 1259 2753 
L 3481 2753 
L 3481 2222 
L 1259 2222 
L 1259 531 
L 3634 531 
L 3634 0 
L 628 0 
L 628 4666 
z
" transform="scale(0.015625)"/>
       <path id="DejaVuSans-61" d="M 2194 1759 
Q 1497 1759 1228 1600 
Q 959 1441 959 1056 
Q 959 750 1161 570 
Q 1363 391 1709 391 
Q 2188 391 2477 730 
Q 2766 1069 2766 1631 
L 2766 1759 
L 2194 1759 
z
M 3341 1997 
L 3341 0 
L 2766 0 
L 2766 531 
Q 2569 213 2275 61 
Q 1981 -91 1556 -91 
Q 1019 -91 701 211 
Q 384 513 384 1019 
Q 384 1609 779 1909 
Q 1175 2209 1959 2209 
L 2766 2209 
L 2766 2266 
Q 2766 2663 2505 2880 
Q 2244 3097 1772 3097 
Q 1472 3097 1187 3025 
Q 903 2953 641 2809 
L 641 3341 
Q 956 3463 1253 3523 
Q 1550 3584 1831 3584 
Q 2591 3584 2966 3190 
Q 3341 2797 3341 1997 
z
" transform="scale(0.015625)"/>
       <path id="DejaVuSans-73" d="M 2834 3397 
L 2834 2853 
Q 2591 2978 2328 3040 
Q 2066 3103 1784 3103 
Q 1356 3103 1142 2972 
Q 928 2841 928 2578 
Q 928 2378 1081 2264 
Q 1234 2150 1697 2047 
L 1894 2003 
Q 2506 1872 2764 1633 
Q 3022 1394 3022 966 
Q 3022 478 2636 193 
Q 2250 -91 1575 -91 
Q 1294 -91 989 -36 
Q 684 19 347 128 
L 347 722 
Q 666 556 975 473 
Q 1284 391 1588 391 
Q 1994 391 2212 530 
Q 2431 669 2431 922 
Q 2431 1156 2273 1281 
Q 2116 1406 1581 1522 
L 1381 1569 
Q 847 1681 609 1914 
Q 372 2147 372 2553 
Q 372 3047 722 3315 
Q 1072 3584 1716 3584 
Q 2034 3584 2315 3537 
Q 2597 3491 2834 3397 
z
" transform="scale(0.015625)"/>
       <path id="DejaVuSans-74" d="M 1172 4494 
L 1172 3500 
L 2356 3500 
L 2356 3053 
L 1172 3053 
L 1172 1153 
Q 1172 725 1289 603 
Q 1406 481 1766 481 
L 2356 481 
L 2356 0 
L 1766 0 
Q 1100 0 847 248 
Q 594 497 594 1153 
L 594 3053 
L 172 3053 
L 172 3500 
L 594 3500 
L 594 4494 
L 1172 4494 
z
" transform="scale(0.015625)"/>
       <path id="DejaVuSans-28" d="M 1984 4856 
Q 1566 4138 1362 3434 
Q 1159 2731 1159 2009 
Q 1159 1288 1364 580 
Q 1569 -128 1984 -844 
L 1484 -844 
Q 1016 -109 783 600 
Q 550 1309 550 2009 
Q 550 2706 781 3412 
Q 1013 4119 1484 4856 
L 1984 4856 
z
" transform="scale(0.015625)"/>
       <path id="DejaVuSans-29" d="M 513 4856 
L 1013 4856 
Q 1481 4119 1714 3412 
Q 1947 2706 1947 2009 
Q 1947 1309 1714 600 
Q 1481 -109 1013 -844 
L 513 -844 
Q 928 -128 1133 580 
Q 1338 1288 1338 2009 
Q 1338 2731 1133 3434 
Q 928 4138 513 4856 
z
" transform="scale(0.015625)"/>
      </defs>
      <use xlink:href="#DejaVuSans-45"/>
      <use xlink:href="#DejaVuSans-61" x="63.183594"/>
      <use xlink:href="#DejaVuSans-73" x="124.462891"/>
      <use xlink:href="#DejaVuSans-74" x="176.5625"/>
      <use xlink:href="#DejaVuSans-28" x="215.771484"/>
      <use xlink:href="#DejaVuSans-6d" x="254.785156"/>
      <use xlink:href="#DejaVuSans-29" x="352.197266"/>
     </g>
    </g>
   </g>
   <g id="line2d_14">
    <path d="M 288.409091 89.276201 
L 288.944867 82.294415 
L 289.480643 89.24807 
L 290.016419 85.361678 
L 290.552195 78.767125 
L 291.087971 75.484191 
L 291.623747 77.053351 
L 292.159523 72.187455 
L 292.695299 71.243214 
L 293.231075 63.533854 
L 293.766851 60.651688 
L 294.302627 63.879271 
L 294.838403 61.712376 
L 295.374179 55.8 
L 295.909955 60.02121 
L 296.445731 60.627309 
L 296.981507 63.083245 
L 297.517283 67.69204 
L 298.053059 67.057867 
L 299.124611 77.994925 
L 299.660387 78.195821 
L 300.196163 81.789848 
L 300.731939 86.930691 
L 301.267715 90.866498 
L 301.803491 101.299637 
L 302.875043 113.684853 
L 303.410819 112.342457 
L 303.946595 111.792848 
L 304.482371 109.918403 
L 305.018147 104.375995 
L 305.553923 93.735083 
L 306.089699 88.559119 
L 306.625475 89.616226 
L 307.161251 99.71111 
L 307.697027 102.522919 
L 308.232803 101.698478 
L 308.768579 106.095862 
L 309.304355 114.918763 
L 309.840131 117.015302 
L 310.375907 116.384653 
L 310.911683 109.453986 
L 311.447459 107.752192 
L 311.983235 116.786503 
L 312.519011 115.715416 
L 313.054787 113.217312 
L 313.590563 109.961655 
L 314.126339 105.430491 
L 314.662115 102.417956 
L 315.197891 106.716683 
L 315.733667 107.523621 
L 316.269443 113.111949 
L 316.805219 112.396736 
L 317.340996 123.249172 
L 317.876772 126.6635 
L 318.948324 135.683774 
L 319.4841 132.022915 
L 320.019876 130.676995 
L 320.555652 127.488285 
L 321.091428 117.266669 
L 321.627204 115.970078 
L 322.16298 117.094131 
L 322.698756 109.423529 
L 323.234532 109.169894 
L 323.770308 112.985902 
L 324.306084 120.364167 
L 324.84186 131.241268 
L 325.377636 137.802082 
L 325.913412 138.302476 
L 326.449188 142.893653 
L 326.984964 143.017033 
L 327.52074 135.776298 
L 328.056516 141.227209 
L 328.592292 139.232965 
L 329.128068 132.992904 
L 329.663844 132.302355 
L 330.19962 134.51517 
L 330.735396 134.000796 
L 331.271172 138.894995 
L 331.806948 139.011327 
L 332.342724 133.204656 
L 332.8785 139.550537 
L 333.414276 140.156636 
L 333.950052 142.940258 
L 334.485828 143.563974 
L 335.021604 135.748909 
L 335.55738 124.938868 
L 336.093156 124.533723 
L 336.628932 122.352733 
L 338.23626 103.227348 
L 338.772036 108.505607 
L 339.307812 112.180675 
L 339.843588 113.516138 
L 340.379364 109.266855 
L 340.91514 112.328833 
L 341.450916 106.198 
L 341.986692 106.867522 
L 342.522468 105.933852 
L 343.058244 106.103037 
L 343.59402 109.453942 
L 344.129796 109.098126 
L 345.201348 116.039535 
L 345.737124 114.732373 
L 346.2729 119.415161 
L 346.808676 119.605488 
L 347.344452 115.310398 
L 347.880228 117.470361 
L 348.416004 125.782354 
L 348.95178 126.663286 
L 349.487556 134.837862 
L 350.023332 139.164777 
L 350.559108 140.369871 
L 351.094884 147.113907 
L 352.166436 139.961316 
L 353.237988 149.985787 
L 353.773764 141.529445 
L 354.30954 144.947297 
L 354.845316 144.968495 
L 355.381092 160.958194 
L 355.916868 158.787775 
L 356.452644 157.892863 
L 357.524196 152.262425 
L 358.059972 147.424716 
L 358.595748 146.054132 
L 359.131524 133.443583 
L 359.6673 125.889257 
L 360.203076 121.305241 
L 360.738852 125.533497 
L 361.274628 133.901866 
L 361.810404 137.971566 
L 362.34618 139.063908 
L 362.881956 142.661458 
L 363.417732 152.731678 
L 363.953508 165.705261 
L 364.489284 163.319909 
L 365.02506 162.812582 
L 365.560837 161.625219 
L 366.096613 162.777461 
L 366.632389 167.245316 
L 367.168165 167.872556 
L 367.703941 164.4372 
L 368.239717 162.605037 
L 368.775493 163.855937 
L 369.847045 171.554898 
L 370.382821 167.073063 
L 370.918597 167.474799 
L 371.454373 169.254224 
L 371.990149 169.659483 
L 372.525925 180.434403 
L 373.061701 182.319532 
L 373.597477 180.198442 
L 374.133253 187.573185 
L 374.669029 188.563345 
L 375.204805 187.580346 
L 375.740581 185.762277 
L 376.276357 181.604604 
L 376.812133 178.384182 
L 377.347909 186.139462 
L 377.883685 190.082316 
L 378.419461 196.710076 
L 378.955237 200.364002 
L 379.491013 211.94228 
L 380.026789 214.690667 
L 380.562565 219.398119 
L 381.098341 212.446311 
L 381.634117 211.921367 
L 382.169893 214.370256 
L 382.705669 214.697999 
L 383.241445 216.258966 
L 383.777221 213.049115 
L 385.384549 201.294891 
L 385.920325 193.863887 
L 386.456101 193.57854 
L 386.991877 184.607767 
L 388.063429 198.254396 
L 388.599205 215.202487 
L 389.134981 223.468674 
L 389.670757 234.405675 
L 390.742309 241.90732 
L 391.278085 234.515074 
L 391.813861 234.649025 
L 392.885413 220.287296 
L 393.421189 217.954797 
L 393.956965 207.282173 
L 394.492741 204.107556 
L 395.028517 199.632769 
L 395.564293 196.662515 
L 396.100069 192.466084 
L 396.635845 194.661282 
L 397.171621 192.564856 
L 397.707397 194.457033 
L 398.243173 189.732077 
L 398.778949 195.348592 
L 399.314725 199.523997 
L 399.850501 198.319017 
L 400.386277 196.222591 
L 400.922053 196.663086 
L 401.457829 192.966992 
L 401.993605 196.539878 
L 402.529381 196.476512 
L 403.065157 196.628079 
L 404.136709 207.434767 
L 404.672485 207.304455 
L 405.208261 214.573492 
L 405.744037 217.41349 
L 406.279813 212.74491 
L 406.815589 211.987414 
L 407.351365 206.54014 
L 407.887141 198.91182 
L 408.422917 194.000119 
L 408.958693 191.396309 
L 409.494469 189.380925 
L 410.030245 192.263205 
L 410.566021 192.562759 
L 411.101797 195.938329 
L 411.637573 203.721797 
L 412.173349 209.197373 
L 412.709125 212.675124 
L 413.244901 213.566627 
L 413.780677 216.336154 
L 414.316454 224.013918 
L 415.388006 229.235858 
L 415.923782 227.544636 
L 417.53111 209.712374 
L 418.066886 196.92565 
L 418.602662 186.883733 
L 419.138438 181.570352 
L 419.674214 180.041211 
L 420.20999 181.323822 
L 420.745766 176.901886 
L 421.281542 175.069724 
L 421.817318 174.150147 
L 422.353094 173.766143 
L 422.88887 170.397734 
L 423.424646 164.911702 
L 423.960422 155.292604 
L 424.496198 161.867512 
L 425.031974 159.436354 
L 425.56775 161.060745 
L 426.103526 163.932454 
L 426.639302 164.235532 
L 427.175078 171.095843 
L 427.710854 179.876462 
L 428.24663 178.756046 
L 428.782406 186.03213 
L 429.318182 187.357023 
L 429.853958 187.293657 
L 430.389734 185.866697 
L 430.92551 175.817732 
L 431.461286 170.007538 
L 431.997062 161.276363 
L 432.532838 155.688149 
L 433.068614 148.260669 
L 433.60439 145.744947 
L 434.140166 138.919985 
L 434.675942 141.664848 
L 436.28327 155.209352 
L 436.819046 159.31781 
L 437.354822 161.844217 
L 437.890598 172.760076 
L 438.426374 176.593701 
L 438.96215 170.720084 
L 439.497926 174.254211 
L 440.033702 168.792844 
L 441.105254 162.792437 
L 441.64103 150.710414 
L 442.176806 143.462632 
L 442.712582 148.360353 
L 443.248358 146.626849 
L 443.784134 151.133462 
L 444.31991 153.332183 
L 444.855686 150.094144 
L 445.391462 156.239184 
L 445.927238 151.54594 
L 446.463014 144.904199 
L 446.99879 142.110121 
L 447.534566 133.234482 
L 448.070342 129.136709 
L 448.606118 130.63073 
L 449.141894 130.444042 
L 449.67767 134.538405 
L 450.213446 133.446177 
L 450.749222 130.958644 
L 451.284998 129.461213 
L 451.820774 125.278876 
L 452.35655 118.675895 
L 452.892326 118.852127 
L 453.428102 118.552686 
L 453.963878 122.79856 
L 454.499654 121.745091 
L 455.03543 125.3814 
L 455.571206 131.93869 
L 456.106982 141.473338 
L 457.178534 135.430649 
L 457.71431 140.832232 
L 458.250086 147.935664 
L 458.785862 150.078009 
L 459.321638 146.54752 
L 459.857414 139.144704 
L 460.39319 134.69458 
L 460.928966 133.373325 
L 461.464742 119.63878 
L 462.000518 117.112487 
L 462.536295 111.457327 
L 463.072071 107.923314 
L 463.607847 101.602212 
L 464.143623 108.23702 
L 464.679399 112.102356 
L 465.215175 110.62959 
L 465.750951 101.260661 
L 466.286727 102.324815 
L 466.822503 103.688467 
L 467.358279 106.419236 
L 467.894055 104.572979 
L 468.429831 99.678895 
L 468.965607 101.088352 
L 469.501383 105.344797 
L 470.037159 103.153237 
L 470.572935 106.916392 
L 471.644487 119.953455 
L 472.180263 122.969628 
L 472.716039 122.22975 
L 473.251815 122.455311 
L 473.787591 125.827358 
L 474.323367 127.057116 
L 474.859143 129.005668 
L 475.394919 130.147339 
L 475.930695 134.421402 
L 476.466471 144.875683 
L 477.002247 152.796567 
L 477.538023 157.891605 
L 478.073799 157.046022 
L 478.609575 163.525795 
L 479.145351 161.119302 
L 479.681127 158.082102 
L 480.216903 155.985677 
L 480.752679 142.592911 
L 481.288455 138.093459 
L 481.824231 142.159635 
L 483.431559 133.79397 
L 484.503111 150.106898 
L 485.038887 168.291242 
L 485.574663 176.12002 
L 486.110439 175.478305 
L 486.646215 173.832888 
L 487.181991 178.705945 
L 487.717767 175.992907 
L 488.789319 165.503563 
L 489.325095 165.225263 
L 489.860871 165.806698 
L 490.396647 175.92977 
L 490.932423 183.13186 
L 491.468199 187.888642 
L 492.003975 186.232654 
L 492.539751 187.48003 
L 493.075527 186.317332 
L 493.611303 185.686683 
L 494.147079 177.307857 
L 495.218631 154.56378 
L 495.754407 156.973911 
L 496.290183 166.085739 
L 496.825959 163.918843 
L 497.361735 160.289696 
L 497.897511 155.01155 
L 498.433287 158.006582 
L 498.969063 166.49475 
L 499.504839 166.494807 
L 500.040615 156.787622 
L 500.576391 156.699592 
L 501.112167 153.320612 
L 501.647943 160.956094 
L 502.183719 161.999107 
L 502.719495 156.280523 
L 503.255271 153.58158 
L 503.791047 154.448418 
L 504.326823 160.709734 
L 504.862599 164.300237 
L 505.398375 166.858355 
L 505.934151 170.575704 
L 506.469927 171.837174 
L 507.005703 176.037243 
L 507.541479 169.663289 
L 508.077255 153.201555 
L 508.613031 157.923102 
L 509.148807 153.536402 
L 510.220359 159.660358 
L 510.756135 151.330862 
L 511.291912 150.178735 
L 511.827688 157.289214 
L 512.363464 157.246989 
L 512.89924 152.860289 
L 513.435016 139.562658 
L 513.970792 132.825783 
L 514.506568 135.302861 
L 515.042344 139.305613 
L 515.57812 142.205511 
L 516.113896 135.207897 
L 516.649672 134.799228 
L 517.185448 144.35854 
L 518.257 156.292748 
L 518.792776 156.916465 
L 519.328552 156.856622 
L 519.864328 165.492777 
L 520.400104 172.208625 
L 520.93588 163.530302 
L 521.471656 164.756537 
L 522.007432 159.256411 
L 522.543208 160.609492 
L 523.078984 160.003507 
L 523.61476 155.067141 
L 534.33028 153.795214 
L 534.866056 157.63941 
L 535.401832 157.227217 
L 535.937608 160.757821 
L 536.473384 157.710051 
L 537.00916 157.075878 
L 538.616488 177.142381 
L 539.152264 178.45318 
L 539.68804 180.806934 
L 540.759592 189.111938 
L 541.295368 179.447035 
L 541.831144 173.309155 
L 542.36692 165.659694 
L 542.902696 160.621146 
L 543.438472 157.397201 
L 543.974248 152.98936 
L 545.0458 161.417686 
L 545.581576 164.3352 
L 546.117352 162.823676 
L 546.653128 162.672223 
L 547.188904 156.555484 
L 547.72468 161.925355 
L 548.260456 153.599382 
L 548.796232 152.147757 
L 549.332008 151.672141 
L 550.40356 173.303021 
L 550.939336 180.025915 
L 551.475112 177.619422 
L 552.010888 179.789955 
L 552.546664 179.339004 
L 553.08244 182.189573 
L 553.618216 183.461613 
L 554.153992 176.428764 
L 554.689768 175.223785 
L 555.225544 176.020153 
L 555.76132 176.041351 
L 556.297096 184.829016 
L 556.832872 178.011101 
L 557.368648 175.893535 
L 557.904424 173.275631 
L 558.4402 176.855564 
L 559.511753 188.891954 
L 560.047529 183.088807 
L 560.583305 187.521426 
L 561.119081 189.586254 
L 561.654857 190.132454 
L 562.190633 190.146605 
L 562.726409 191.873177 
L 563.262185 191.041688 
L 563.797961 198.98019 
L 564.333737 202.161967 
L 565.941065 205.833568 
L 566.476841 215.466874 
L 567.012617 205.78083 
L 568.084169 214.889191 
L 568.619945 212.901994 
L 569.155721 207.158747 
L 569.691497 215.104296 
L 570.227273 210.886723 
L 570.763049 223.035808 
L 571.298825 220.88653 
L 571.834601 217.352517 
L 572.906153 240.304708 
L 573.441929 240.801579 
L 573.977705 246.023463 
L 574.513481 248.648527 
L 575.049257 248.042542 
L 575.585033 253.972649 
L 576.120809 245.777046 
L 576.656585 244.209146 
L 577.192361 245.00199 
L 577.728137 239.227031 
L 578.263913 239.463163 
L 579.335465 251.594686 
L 579.871241 259.191409 
L 580.407017 258.648847 
L 580.942793 262.612841 
L 581.478569 268.483049 
L 582.550121 262.070394 
L 583.085897 252.014382 
L 583.621673 245.911738 
L 584.157449 249.121703 
L 584.693225 251.655156 
L 585.229001 250.756721 
L 585.764777 260.213852 
L 586.300553 263.254689 
L 586.836329 263.881929 
L 587.372105 260.439527 
L 587.907881 253.230503 
L 588.443657 250.154545 
L 588.979433 253.938841 
L 589.515209 250.239223 
L 590.050985 248.81931 
L 590.586761 252.452095 
L 591.122537 264.720978 
L 591.658313 262.6316 
L 592.194089 265.612538 
L 593.265641 246.931056 
L 594.337193 239.898264 
L 594.872969 228.42933 
L 595.408745 226.73106 
L 596.480297 207.492865 
L 597.016073 209.779673 
L 597.551849 209.082077 
L 598.087625 203.384635 
L 598.623401 204.078822 
L 599.694953 213.920071 
L 600.230729 230.054234 
L 600.766505 230.318553 
L 601.302281 239.106219 
L 601.838057 241.8088 
L 602.373833 242.883524 
L 602.909609 240.269145 
L 603.445385 238.588492 
L 603.981161 228.997583 
L 604.516937 227.017433 
L 605.052713 209.678348 
L 605.588489 204.364967 
L 606.124265 195.24973 
L 606.660041 193.022935 
L 607.195817 187.60385 
L 607.731594 187.977398 
L 608.26737 182.87895 
L 608.803146 187.276335 
L 609.338922 194.932957 
L 609.874698 199.932861 
L 610.410474 199.971676 
L 610.94625 200.278278 
L 611.482026 201.106357 
L 612.017802 204.873036 
L 612.553578 211.750964 
L 613.089354 208.150004 
L 613.62513 209.883623 
L 614.160906 209.947103 
L 614.696682 214.224689 
L 615.232458 213.319207 
L 615.768234 219.379684 
L 616.30401 218.460107 
L 616.839786 217.085999 
L 617.375562 221.423485 
L 617.911338 217.653397 
L 618.447114 215.951603 
L 620.054442 188.669316 
L 620.590218 184.536307 
L 621.125994 177.905138 
L 621.66177 175.142771 
L 622.197546 167.109249 
L 622.733322 176.802454 
L 623.269098 183.440784 
L 624.34065 185.699462 
L 624.876426 184.226696 
L 625.412202 191.354793 
L 625.947978 196.879698 
L 626.483754 194.043337 
L 627.01953 188.958984 
L 627.555306 194.413419 
L 628.091082 194.550893 
L 628.626858 200.738215 
L 629.162634 201.263274 
L 629.69841 202.901758 
L 630.234186 199.582678 
L 630.769962 201.527707 
L 631.305738 192.97623 
L 631.841514 192.405481 
L 632.37729 177.416569 
L 632.913066 175.619642 
L 633.448842 174.855099 
L 633.984618 174.633176 
L 634.520394 172.427522 
L 635.05617 174.319698 
L 635.591946 176.888387 
L 636.127722 184.136283 
L 636.663498 185.397753 
L 637.199274 181.729847 
L 637.73505 188.424553 
L 638.270826 189.083505 
L 638.806602 190.246317 
L 639.342378 188.674893 
L 639.878154 192.473283 
L 640.41393 186.205034 
L 640.949706 187.11063 
L 641.485482 179.232142 
L 642.021258 177.699476 
L 642.557034 188.097381 
L 643.09281 191.166407 
L 643.628586 195.162112 
L 644.164362 201.458664 
L 644.700138 199.446802 
L 645.235914 205.475567 
L 645.77169 204.9471 
L 646.307466 193.449977 
L 646.843242 191.695331 
L 647.379018 187.171214 
L 647.914794 185.138212 
L 648.45057 198.809448 
L 648.986346 196.755305 
L 650.057898 205.486651 
L 650.593674 202.875795 
L 651.12945 206.811601 
L 651.665226 209.683311 
L 652.201002 205.289564 
L 652.736778 203.94012 
L 653.272554 200.628087 
L 653.80833 204.532182 
L 654.344106 213.006256 
L 654.879882 212.044398 
L 655.415658 214.042279 
L 655.951434 209.821184 
L 656.487211 210.663357 
L 657.022987 213.686577 
L 657.558763 212.900894 
L 658.094539 203.176091 
L 658.630315 200.96339 
L 659.166091 202.024021 
L 659.701867 200.346892 
L 660.237643 202.027659 
L 660.773419 202.513959 
L 661.309195 195.301412 
L 661.844971 190.527126 
L 662.380747 187.789424 
L 662.916523 183.124367 
L 663.452299 188.994575 
L 663.988075 188.564765 
L 665.059627 185.428964 
L 665.595403 198.226373 
L 666.131179 202.232649 
L 666.666955 202.200995 
L 667.202731 198.459095 
L 667.738507 201.51755 
L 668.274283 203.378015 
L 668.810059 204.773378 
L 669.345835 195.834316 
L 669.881611 190.549123 
L 670.417387 179.760224 
L 670.953163 181.208439 
L 671.488939 177.554627 
L 672.024715 172.280005 
L 672.560491 171.053884 
L 673.096267 174.341366 
L 673.632043 176.818444 
L 674.167819 190.42978 
L 674.703595 187.396104 
L 675.239371 192.286779 
L 676.310923 208.900195 
L 676.846699 207.892531 
L 677.382475 201.800457 
L 677.918251 203.833573 
L 678.454027 212.402782 
L 678.989803 208.227491 
L 680.061355 197.442173 
L 680.597131 201.152475 
L 681.132907 209.157924 
L 681.668683 207.72744 
L 682.204459 202.738221 
L 682.740235 209.158095 
L 683.276011 212.741551 
L 683.811787 209.736063 
L 684.347563 201.251532 
L 684.883339 198.415172 
L 685.419115 196.466734 
L 685.954891 197.957231 
L 686.490667 188.849041 
L 687.026443 188.338191 
L 687.562219 202.689462 
L 688.097995 209.577962 
L 688.633771 208.609056 
L 689.169547 201.389462 
L 689.705323 189.864151 
L 690.241099 191.590723 
L 690.776875 187.274493 
L 691.312651 171.852192 
L 691.848427 167.345692 
L 692.384203 167.292897 
L 693.455755 186.274104 
L 693.991531 186.39396 
L 694.527307 180.167993 
L 695.063083 184.17427 
L 695.598859 190.756224 
L 696.134635 193.864008 
L 696.670411 181.912354 
L 697.741963 177.349536 
L 698.277739 177.472915 
L 698.813515 173.177826 
L 699.349291 164.548832 
L 699.885067 159.964816 
L 701.492395 180.647931 
L 702.028171 181.088425 
L 702.563947 182.649393 
L 703.635499 198.72019 
L 704.171275 197.191048 
L 704.707052 190.341421 
L 705.242828 180.186752 
L 705.778604 186.099242 
L 706.31438 194.24563 
L 706.850156 194.432433 
L 707.385932 189.326938 
L 707.921708 191.913244 
L 708.99326 208.537231 
L 709.529036 218.727249 
L 710.064812 218.808347 
L 710.600588 223.381906 
L 711.136364 228.917382 
L 711.67214 230.717947 
L 712.207916 229.745518 
L 712.743692 236.83838 
L 713.279468 232.666614 
L 713.815244 231.489822 
L 714.35102 228.590038 
L 714.886796 224.629682 
L 715.422572 226.673369 
L 715.958348 222.6813 
L 716.494124 213.580157 
L 717.0299 209.383726 
L 717.565676 215.17994 
L 718.101452 209.894748 
L 718.637228 209.708059 
L 719.173004 208.235293 
L 719.70878 209.274783 
L 720.244556 207.241781 
L 720.780332 204.645018 
L 721.316108 196.597402 
L 721.851884 194.444601 
L 722.38766 196.939295 
L 722.923436 191.513163 
L 723.459212 189.402643 
L 723.994988 194.092479 
L 724.530764 205.015385 
L 725.06654 209.479716 
L 725.602316 216.727613 
L 726.138092 218.094788 
L 726.673868 231.371392 
L 727.74542 243.002579 
L 728.281196 237.062015 
L 728.816972 236.966938 
L 729.352748 239.461633 
L 729.888524 236.815541 
L 730.4243 230.529675 
L 730.960076 229.856743 
L 731.495852 230.092875 
L 732.031628 230.751826 
L 732.567404 230.205741 
L 733.10318 225.30461 
L 734.174732 233.144511 
L 734.710508 235.353802 
L 735.246284 229.392098 
L 735.78206 234.388477 
L 736.317836 231.153962 
L 736.853612 238.708402 
L 737.389388 239.511817 
L 737.925164 237.66556 
L 738.46094 238.173002 
L 738.996716 242.193372 
L 739.532492 241.122285 
L 740.068268 247.626723 
L 740.604044 248.701447 
L 741.13982 250.808557 
L 741.675596 255.663997 
L 742.211372 253.039047 
L 742.747148 245.914587 
L 743.282924 244.765983 
L 743.8187 251.830657 
L 744.354476 254.875018 
L 744.890252 254.318362 
L 745.426028 250.336864 
L 745.961804 254.248006 
L 746.49758 266.932663 
L 747.033356 265.424662 
L 747.569132 266.414822 
L 748.104908 260.298084 
L 748.640684 257.278501 
L 749.17646 262.472197 
L 749.712236 259.843723 
L 750.248012 253.568427 
L 750.783788 259.812126 
L 751.319564 246.458119 
L 751.85534 247.997945 
L 752.391116 253.95624 
L 752.926892 243.794524 
L 753.462669 243.308338 
L 753.998445 245.824174 
L 755.069997 244.07608 
L 756.141549 257.415117 
L 757.748877 263.653311 
L 758.284653 264.120013 
L 759.356205 285.264211 
L 759.891981 292.8061 
L 760.963533 298.24446 
L 761.499309 297.605278 
L 762.035085 298.968435 
L 762.570861 305.775398 
L 763.642413 306.813897 
L 764.178189 305.357758 
L 765.249741 302.082998 
L 765.785517 301.62401 
L 766.857069 305.483899 
L 767.928621 305.182973 
L 768.464397 307.8 
L 769.000173 305.660302 
L 770.607501 306.441091 
L 771.143277 307.355772 
L 772.750605 302.373219 
L 773.286381 300.969438 
L 773.822157 294.608092 
L 774.357933 299.151978 
L 774.893709 299.225534 
L 776.501037 297.307321 
L 777.036813 301.118814 
L 778.644141 298.202956 
L 779.715693 296.629056 
L 819.363118 269.213809 
L 822.577774 124.594254 
L 823.11355 132.567991 
L 823.649326 136.228964 
L 824.185102 134.904186 
L 824.720878 133.015647 
L 825.256654 136.602627 
L 826.328206 138.928194 
L 826.863982 146.271224 
L 827.399758 139.67529 
L 827.935534 131.525492 
L 828.47131 130.48964 
L 829.007086 129.101438 
L 829.542862 119.595092 
L 830.078638 113.266944 
L 830.614414 102.657743 
L 831.15019 108.239024 
L 831.685966 110.353181 
L 832.221742 108.933267 
L 832.757518 106.79456 
L 833.82907 119.493367 
L 834.364846 124.239579 
L 834.900622 124.785778 
L 835.436398 124.197411 
L 835.972174 122.33706 
L 836.50795 122.724702 
L 837.043726 120.314685 
L 837.579502 110.336191 
L 838.115278 106.837412 
L 838.651054 100.488123 
L 839.18683 98.818041 
L 839.722606 96.506682 
L 840.794158 108.44089 
L 841.329934 112.256897 
L 841.86571 114.596558 
L 842.401486 120.093275 
L 842.937262 121.266658 
L 843.473038 120.509162 
L 844.008814 118.046293 
L 844.54459 111.305895 
L 845.080366 110.192526 
L 845.616142 107.986872 
L 846.151918 101.930033 
L 846.687694 99.710285 
L 847.22347 96.444058 
L 847.759246 94.492096 
L 848.295022 89.580394 
L 849.902351 98.533778 
L 850.438127 96.965878 
L 850.973903 104.664782 
L 851.509679 105.697225 
L 852.045455 111.873977 
L 852.581231 111.186951 
L 853.117007 107.364011 
L 854.188559 109.435943 
L 854.724335 106.004111 
L 855.260111 107.114071 
L 855.795887 110.228902 
L 856.331663 109.47493 
L 856.867439 111.226166 
L 857.403215 107.494837 
L 857.938991 110.507486 
L 858.474767 117.758906 
L 859.010543 117.033122 
L 859.546319 118.231169 
L 860.082095 124.231746 
L 860.617871 127.61084 
L 861.153647 135.285079 
L 861.689423 130.852574 
L 862.225199 123.960665 
L 863.296751 123.847475 
L 863.832527 121.958441 
L 864.368303 113.684825 
L 864.904079 111.76408 
L 865.439855 113.532438 
L 865.975631 119.557185 
L 866.511407 116.135428 
L 867.047183 118.852104 
L 867.582959 116.089737 
L 868.118735 119.976214 
L 868.654511 119.141202 
L 869.190287 121.174318 
L 869.726063 122.513305 
L 870.261839 132.6998 
L 870.797615 130.680892 
L 871.333391 140.02527 
L 871.869167 143.372652 
L 872.404943 143.739153 
L 872.940719 141.491218 
L 873.476495 138.147473 
L 874.012271 141.072035 
L 874.548047 139.423094 
L 875.083823 133.355685 
L 875.619599 132.034429 
L 876.155375 126.245376 
L 876.691151 127.527987 
L 877.226927 125.794482 
L 877.762703 119.131601 
L 878.298479 120.829985 
L 878.834255 116.778017 
L 879.370031 118.236803 
L 879.905807 125.315572 
L 880.441583 104.083019 
L 880.977359 102.342467 
L 881.513135 104.921726 
L 882.048911 108.59327 
L 882.584687 115.16113 
L 883.120463 110.224764 
L 883.656239 102.508357 
L 884.192015 117.349395 
L 884.727791 127.6874 
L 885.263567 135.618856 
L 886.335119 127.307034 
L 886.870895 131.003242 
L 887.406671 141.527993 
L 887.942447 145.375712 
L 888.478223 142.666197 
L 889.013999 129.294573 
L 899.193744 117.857406 
L 899.72952 113.269867 
L 900.801072 94.42278 
L 901.336848 88.313089 
L 901.872624 92.791514 
L 902.4084 104.993451 
L 902.944176 98.224865 
L 904.551504 90.984244 
L 905.08728 89.846211 
L 905.623056 85.80129 
L 906.158832 80.494956 
L 906.694608 87.76047 
L 907.230384 87.901467 
L 907.76616 89.631562 
L 908.301936 103.450786 
L 908.837712 110.582406 
L 909.373488 108.820713 
L 909.909264 106.283851 
L 910.44504 112.263287 
L 910.980816 113.496569 
L 911.516592 114.113238 
L 912.052368 106.925356 
L 912.588144 101.298384 
L 913.12392 99.927799 
L 913.659696 101.63323 
L 914.195472 98.782776 
L 914.731248 103.233013 
L 915.267024 109.420336 
L 915.8028 110.931974 
L 916.338576 118.433562 
L 916.874352 129.779289 
L 917.410128 136.636077 
L 918.48168 133.422759 
L 919.017456 132.781539 
L 919.553232 139.588998 
L 920.089008 136.632838 
L 920.624784 135.47014 
L 921.16056 140.480614 
L 921.696336 137.785194 
L 922.232112 137.609076 
L 922.767888 142.922571 
L 923.303664 140.392755 
L 923.83944 151.449554 
L 924.375216 153.958343 
L 924.910992 152.108563 
L 925.446768 160.952604 
L 930.804528 165.593111 
L 931.340304 166.625553 
L 931.87608 171.636027 
L 932.947632 151.196319 
L 933.483408 145.424883 
L 934.019184 143.356646 
L 934.55496 146.069798 
L 935.090736 139.227218 
L 935.626512 126.21499 
L 936.162288 124.069236 
L 936.698064 127.025509 
L 937.23384 132.201588 
L 938.305392 128.279989 
L 938.841168 119.619284 
L 939.376944 118.858265 
L 939.91272 126.585357 
L 940.448496 131.310427 
L 940.984272 142.938034 
L 941.520048 139.710565 
L 942.055824 145.665337 
L 943.127376 159.787638 
L 943.663152 163.582504 
L 944.198928 160.957554 
L 944.734704 161.225397 
L 945.27048 166.133689 
L 945.806256 167.712274 
L 946.342032 165.358634 
L 946.877809 169.097124 
L 947.413585 163.956395 
L 947.949361 168.762505 
L 948.485137 169.21357 
L 949.020913 169.918327 
L 949.556689 172.687855 
L 950.092465 178.896319 
L 950.628241 174.675223 
L 951.164017 178.945762 
L 951.699793 177.247492 
L 952.235569 174.488649 
L 952.771345 172.480311 
L 953.307121 171.4656 
L 953.842897 163.854898 
L 954.378673 170.137355 
L 954.914449 169.866103 
L 955.450225 172.956269 
L 955.986001 174.023946 
L 956.521777 177.290288 
L 957.057553 169.376564 
L 957.593329 180.415746 
L 958.129105 169.260403 
L 958.664881 166.085787 
L 959.200657 166.233831 
L 959.736433 170.099167 
L 960.272209 168.217675 
L 960.807985 172.354321 
L 961.343761 168.985912 
L 967.773073 172.051414 
L 968.308849 175.941415 
L 968.844625 176.015465 
L 969.380401 171.156616 
L 969.916177 170.723283 
L 970.451953 174.405397 
L 970.987729 173.101759 
L 971.523505 183.499664 
L 972.059281 188.379768 
L 972.595057 191.980842 
L 973.130833 204.623217 
L 973.666609 214.312898 
L 974.202385 205.532394 
L 974.738161 209.270884 
L 975.273937 210.923462 
L 975.809713 213.414634 
L 976.345489 214.690198 
L 977.417041 192.439411 
L 977.952817 205.818197 
L 979.024369 191.861728 
L 979.560145 189.458758 
L 980.095921 182.387151 
L 980.631697 183.225801 
L 981.167473 186.516807 
L 981.703249 184.462664 
L 982.239025 191.467438 
L 982.774801 195.37858 
L 983.846353 200.153036 
L 984.382129 205.02257 
L 984.917905 205.515917 
L 985.453681 200.864954 
L 985.989457 200.251923 
L 986.525233 198.261202 
L 987.061009 191.235401 
L 987.596785 195.791343 
L 988.132561 187.338524 
L 988.668337 183.237227 
L 989.204113 187.190651 
L 989.739889 180.24589 
L 990.275665 177.356677 
L 990.811441 177.673849 
L 991.347217 165.320516 
L 991.882993 168.911019 
L 992.418769 171.7334 
L 992.954545 168.646871 
L 993.490321 173.005497 
L 994.026097 173.519985 
L 994.561873 166.723211 
L 995.097649 173.632851 
L 995.633426 173.104383 
L 997.240754 169.679713 
L 997.77653 165.606604 
L 998.312306 170.324627 
L 998.848082 170.617135 
L 999.383858 168.133125 
L 999.919634 160.018562 
L 1000.45541 155.367599 
L 1001.526962 151.801931 
L 1002.062738 152.393936 
L 1002.598514 151.470836 
L 1003.13429 152.231969 
L 1003.670066 159.754698 
L 1005.277394 190.116867 
L 1005.81317 188.866082 
L 1006.348946 181.942462 
L 1006.884722 183.115844 
L 1007.420498 181.015896 
L 1007.956274 173.947812 
L 1009.027826 152.782263 
L 1009.563602 147.56754 
L 1010.099378 146.42246 
L 1010.635154 143.476871 
L 1011.17093 143.853943 
L 1011.706706 134.728135 
L 1012.242482 130.556368 
L 1012.778258 133.766334 
L 1013.314034 140.513893 
L 1013.84981 144.516646 
L 1014.385586 143.752103 
L 1014.921362 144.80921 
L 1015.457138 154.449563 
L 1015.992914 156.454491 
L 1017.064466 150.566837 
L 1017.600242 145.690371 
L 1018.136018 139.224805 
L 1018.671794 136.046666 
L 1019.20757 139.115691 
L 1019.743346 139.256688 
L 1020.279122 148.625731 
L 1020.814898 150.042235 
L 1021.350674 155.190125 
L 1021.88645 164.981988 
L 1022.422226 170.425853 
L 1022.958002 166.849557 
L 1023.493778 169.530998 
L 1024.029554 164.555873 
L 1024.56533 166.39872 
L 1025.101106 169.020261 
L 1025.636882 165.116281 
L 1026.172658 163.738649 
L 1026.708434 158.460504 
L 1027.24421 158.009553 
L 1028.851538 163.171651 
L 1029.387314 167.269538 
L 1029.92309 166.832681 
L 1031.530418 177.36107 
L 1032.066194 179.792342 
L 1032.60197 181.550625 
L 1033.137746 176.427514 
L 1033.673522 178.777745 
L 1034.209298 184.179327 
L 1034.745074 182.548004 
L 1035.28085 183.238667 
L 1035.816626 187.378836 
L 1036.352402 184.743315 
L 1036.888178 185.877939 
L 1037.423954 175.004476 
L 1037.95973 169.120289 
L 1038.495506 166.431915 
L 1039.031282 154.363985 
L 1039.567058 138.99806 
L 1040.102834 130.996249 
L 1040.63861 130.122478 
L 1041.174386 138.304102 
L 1041.710162 138.95953 
L 1042.245938 136.514278 
L 1042.781714 142.416197 
L 1043.31749 151.08054 
L 1043.853267 157.017694 
L 1044.389043 166.305697 
L 1044.924819 173.155437 
L 1045.460595 174.882009 
L 1046.532147 182.503454 
L 1047.067923 183.296298 
L 1047.603699 185.681764 
L 1048.139475 183.169566 
L 1048.675251 178.793436 
L 1049.746803 193.268088 
L 1050.282579 190.963776 
L 1050.818355 184.004921 
L 1051.354131 182.715377 
L 1051.889907 185.160743 
L 1052.425683 185.048048 
L 1052.961459 183.962867 
L 1053.497235 178.920796 
L 1054.033011 178.653067 
L 1055.104563 190.189119 
L 1055.640339 193.568213 
L 1056.176115 190.273797 
L 1056.711891 182.888599 
L 1057.783443 184.403818 
L 1058.319219 186.334753 
L 1058.854995 187.046557 
L 1059.390771 181.285692 
L 1059.926547 185.129887 
L 1060.462323 187.846562 
L 1060.998099 182.4909 
L 1061.533875 175.799831 
L 1062.069651 174.453911 
L 1062.605427 169.785331 
L 1063.141203 170.479517 
L 1063.676979 173.055253 
L 1064.212755 169.151272 
L 1064.748531 169.063241 
L 1065.284307 171.462802 
L 1065.820083 168.721576 
L 1066.355859 173.073155 
L 1066.891635 173.548885 
L 1067.427411 167.033991 
L 1067.963187 174.517961 
L 1068.498963 177.794873 
L 1069.034739 179.789231 
L 1069.570515 185.233095 
L 1070.106291 176.121382 
L 1071.177843 166.10771 
L 1071.713619 153.595819 
L 1072.249395 155.086316 
L 1072.785171 149.691895 
L 1073.320947 145.918284 
L 1073.856723 147.267841 
L 1074.392499 147.003636 
L 1074.928275 150.780885 
L 1075.464051 162.584666 
L 1075.999827 162.856033 
L 1076.535603 166.443013 
L 1077.071379 163.007657 
L 1077.607155 160.502506 
L 1078.142931 165.646873 
L 1078.678707 172.302821 
L 1079.214483 164.477185 
L 1079.750259 162.507606 
L 1080.286035 153.614349 
L 1080.821811 154.301489 
L 1081.357587 151.539122 
L 1081.893363 141.10962 
L 1092.073108 134.788518 
L 1092.608884 135.073979 
L 1093.14466 132.297518 
L 1093.680436 135.489866 
L 1094.216212 129.665577 
L 1094.751988 125.063944 
L 1095.287764 124.845544 
L 1095.82354 122.597608 
L 1096.895092 108.288789 
L 1097.430868 109.543212 
L 1097.966644 109.486893 
L 1098.50242 115.95962 
L 1099.038196 118.415556 
L 1099.573972 113.990097 
L 1100.109748 114.74066 
L 1100.645524 119.236703 
L 1101.1813 126.456411 
L 1101.717076 128.042043 
L 1102.252852 132.509898 
L 1103.324404 138.295598 
L 1103.86018 137.083571 
L 1104.395956 142.132804 
L 1104.931732 137.932849 
L 1105.467508 138.937103 
L 1106.53906 121.05898 
L 1107.074836 125.843949 
L 1107.610612 127.193507 
L 1108.682164 114.586539 
L 1109.753716 117.733138 
L 1110.289492 124.723819 
L 1110.825268 118.311106 
L 1111.361044 128.427131 
L 1112.432596 133.180446 
L 1112.968372 131.926138 
L 1113.504148 140.777226 
L 1114.039924 143.384673 
L 1114.5757 149.0329 
L 1115.111476 144.420696 
L 1115.647252 143.14877 
L 1116.183028 148.081726 
L 1116.718804 148.860477 
L 1117.25458 141.041888 
L 1117.790356 140.872817 
L 1118.326132 144.428085 
L 1118.861908 145.841066 
L 1119.397684 144.354206 
L 1119.93346 140.277574 
L 1120.469236 143.159854 
L 1121.005012 153.695175 
L 1121.540788 152.363349 
L 1122.076564 147.920273 
L 1122.61234 141.028364 
L 1123.683892 144.717583 
L 1124.219668 137.575506 
L 1124.755444 126.663284 
L 1125.29122 118.894024 
L 1125.826996 116.741223 
L 1126.898548 123.816524 
L 1127.434324 125.803835 
L 1127.9701 129.609272 
L 1128.505876 126.505126 
L 1129.041652 118.369422 
L 1129.577428 115.138429 
L 1130.113204 121.600585 
L 1130.64898 114.151964 
L 1131.184756 114.169638 
L 1131.720532 120.741022 
L 1132.256308 128.749994 
L 1132.792084 144.954627 
L 1133.32786 154.485751 
L 1133.863636 148.978578 
L 1134.399412 151.416897 
L 1134.935188 142.942937 
L 1135.470964 137.206736 
L 1136.00674 138.728945 
L 1136.542516 136.040572 
L 1137.078292 134.155557 
L 1137.614068 138.084316 
L 1138.149844 136.46004 
L 1138.68562 139.462118 
L 1139.221396 141.495235 
L 1140.292948 147.619192 
L 1140.828725 146.033674 
L 1141.364501 145.854032 
L 1141.900277 157.101101 
L 1142.436053 165.201684 
L 1142.971829 164.719021 
L 1143.507605 165.571765 
L 1144.043381 168.929718 
L 1144.579157 169.585146 
L 1145.114933 170.603494 
L 1145.650709 170.240631 
L 1149.401141 166.713665 
L 1149.936917 165.135194 
L 1150.472693 167.488949 
L 1152.080021 159.381547 
L 1152.615797 149.63208 
L 1153.151573 147.898575 
L 1153.687349 156.129528 
L 1154.223125 150.090306 
L 1154.758901 153.818226 
L 1155.294677 154.660399 
L 1159.580885 154.3821 
L 1160.116661 161.591237 
L 1160.652437 173.363307 
L 1161.188213 168.060497 
L 1162.259765 183.039009 
L 1163.867093 195.075455 
L 1164.402869 186.340756 
L 1164.938645 195.43849 
L 1165.474421 183.990696 
L 1166.010197 176.031167 
L 1166.545973 175.009409 
L 1167.081749 172.151908 
L 1167.617525 174.139219 
L 1168.153301 184.487795 
L 1168.689077 180.104618 
L 1169.760629 194.057791 
L 1170.296405 201.643944 
L 1170.832181 204.247867 
L 1171.367957 202.130301 
L 1171.903733 194.70282 
L 1172.439509 199.230574 
L 1172.975285 200.756307 
L 1173.511061 197.722631 
L 1174.046837 187.032389 
L 1175.654165 175.049138 
L 1176.189941 173.523519 
L 1178.333045 166.938155 
L 1178.868821 165.750793 
L 1180.476149 171.300362 
L 1181.011925 170.743706 
L 1181.547701 167.671271 
L 1182.083477 169.239286 
L 1182.619253 162.467176 
L 1183.155029 167.245099 
L 1183.690805 157.964258 
L 1184.226581 152.326715 
L 1184.762357 155.420405 
L 1185.298133 164.556897 
L 1186.905461 168.658308 
L 1187.441237 174.186736 
L 1188.512789 176.339708 
L 1189.048566 178.19665 
L 1189.584342 178.358788 
L 1190.655894 170.032872 
L 1191.19167 164.208584 
L 1191.727446 160.984638 
L 1193.87055 156.432334 
L 1194.406326 156.242122 
L 1194.942102 155.27674 
L 1195.477878 156.904654 
L 1196.013654 162.175867 
L 1196.54943 161.594546 
L 1197.620982 170.329416 
L 1198.156758 169.811519 
L 1198.692534 174.931221 
L 1199.22831 176.752928 
L 1199.764086 171.351459 
L 1200.299862 177.017304 
L 1200.835638 167.084615 
L 1201.371414 164.614699 
L 1201.90719 166.880366 
L 1202.978742 150.059292 
L 1203.514518 144.337186 
L 1204.58607 137.829339 
L 1205.121846 138.710271 
L 1205.657622 143.230978 
L 1206.193398 143.174659 
L 1206.729174 148.075904 
L 1207.26495 143.202961 
L 1212.086934 148.713772 
L 1212.62271 144.56667 
L 1213.158486 147.864723 
L 1213.694262 138.231531 
L 1214.230038 134.627048 
L 1215.837366 132.488341 
L 1216.373142 136.399482 
L 1216.908918 137.072528 
L 1217.444694 138.379803 
L 1217.98047 133.594948 
L 1218.516246 134.852894 
L 1219.052022 131.554955 
L 1219.587798 125.691909 
L 1220.123574 125.681395 
L 1220.65935 119.444858 
L 1221.195126 118.969242 
L 1221.730902 120.699338 
L 1222.802454 135.40654 
L 1223.33823 144.972899 
L 1223.874006 141.019589 
L 1224.409782 140.293805 
L 1224.945558 136.84788 
L 1226.01711 127.066758 
L 1230.839094 114.576009 
L 1231.37487 102.800529 
L 1231.910646 99.544873 
L 1232.982198 97.483739 
L 1233.517974 95.711476 
L 1234.589526 93.611584 
L 1235.661078 84.817043 
L 1236.196854 86.938247 
L 1236.73263 97.942194 
L 1237.268406 111.719135 
L 1237.804183 105.25357 
L 1238.339959 108.583334 
L 1238.875735 110.690444 
L 1239.411511 118.893209 
L 1239.947287 115.116074 
L 1240.483063 108.54128 
L 1241.018839 95.973014 
L 1241.554615 99.35563 
L 1242.090391 105.638088 
L 1242.626167 109.496377 
L 1243.161943 108.42529 
L 1243.697719 111.987605 
L 1244.233495 112.495046 
L 1245.305047 127.205772 
L 1245.840823 128.911203 
L 1246.376599 132.699022 
L 1246.912375 134.982307 
L 1247.448151 138.107709 
L 1247.983927 133.721009 
L 1248.519703 134.601941 
L 1249.055479 134.524481 
L 1249.591255 128.605058 
L 1250.127031 130.123743 
L 1250.662807 130.719272 
L 1251.198583 125.874517 
L 1252.270135 129.785716 
L 1252.805911 130.550372 
L 1253.341687 134.105641 
L 1253.877463 133.823818 
L 1254.413239 135.264986 
L 1254.949015 141.660195 
L 1255.484791 140.247329 
L 1256.556343 127.358481 
L 1257.092119 123.842085 
L 1257.627895 115.981214 
L 1258.163671 119.589335 
L 1258.699447 115.438709 
L 1259.235223 115.181551 
L 1259.770999 111.337469 
L 1260.306775 110.273429 
L 1260.842551 110.98171 
L 1261.378327 112.475731 
L 1261.914103 104.269557 
L 1262.449879 98.871612 
L 1262.985655 97.48341 
L 1263.521431 99.132465 
L 1264.057207 98.836548 
L 1265.128759 89.31969 
L 1265.664535 92.117406 
L 1266.200311 90.454371 
L 1266.736087 89.985802 
L 1267.271863 92.772948 
L 1267.807639 93.002032 
L 1268.343415 90.05292 
L 1268.879191 91.18402 
L 1269.414967 86.286413 
L 1270.486519 94.031179 
L 1271.022295 92.738112 
L 1271.558071 92.480954 
L 1273.165399 95.123635 
L 1273.701175 102.029752 
L 1274.236951 99.267385 
L 1274.772727 107.029712 
L 1275.308503 109.041688 
L 1275.844279 118.555194 
L 1276.380055 121.888482 
L 1276.915831 122.128137 
L 1277.451607 113.044612 
L 1277.987383 112.202552 
L 1278.523159 98.031093 
L 1279.058935 90.314686 
L 1279.594711 75.558326 
L 1280.130487 71.812902 
L 1280.666263 75.889649 
L 1281.737815 87.767481 
L 1282.809367 108.105236 
L 1283.345143 112.907823 
L 1283.880919 112.995967 
L 1284.416695 109.021517 
L 1284.952471 109.373924 
L 1285.488247 103.031681 
L 1286.5598 99.120653 
L 1287.095576 86.520675 
L 1288.702904 100.410482 
L 1289.23868 105.56542 
L 1289.774456 112.327073 
L 1290.846008 112.44291 
L 1291.381784 116.702383 
L 1291.91756 111.621058 
L 1292.453336 102.952811 
L 1292.989112 101.877705 
L 1293.524888 95.859129 
L 1294.060664 92.691065 
L 1294.59644 93.240788 
L 1295.132216 94.477593 
L 1296.203768 108.275733 
L 1296.739544 110.488548 
L 1297.27532 111.232063 
L 1297.811096 107.624056 
L 1298.346872 112.127146 
L 1298.882648 115.3653 
L 1299.418424 103.847036 
L 1299.9542 101.521583 
L 1300.489976 97.931194 
L 1301.025752 102.01851 
L 1301.561528 113.240914 
L 1302.097304 117.000546 
L 1302.63308 117.106308 
L 1303.168856 129.945998 
L 1303.704632 130.375922 
L 1304.240408 136.623144 
L 1304.776184 147.916018 
L 1305.31196 151.809543 
L 1305.847736 143.709074 
L 1306.383512 147.105784 
L 1306.919288 143.015058 
L 1307.455064 155.921695 
L 1307.99084 153.018388 
L 1308.526616 142.617074 
L 1309.062392 134.463752 
L 1309.598168 137.208616 
L 1310.133944 133.086178 
L 1310.66972 134.590769 
L 1311.205496 125.454392 
L 1311.741272 131.014531 
L 1312.277048 134.858727 
L 1312.812824 139.8692 
L 1313.3486 138.297777 
L 1313.884376 134.379702 
L 1314.420152 133.657441 
L 1314.955928 133.534176 
L 1315.491704 131.462415 
L 1316.02748 130.944518 
L 1316.563256 131.437865 
L 1317.099032 132.177857 
L 1317.634808 130.328076 
L 1318.170584 131.103303 
L 1318.70636 133.671992 
L 1319.777912 130.476235 
L 1320.313688 128.161352 
L 1320.849464 124.680191 
L 1321.38524 123.36246 
L 1321.921016 131.100122 
L 1322.456792 125.008048 
L 1322.992568 123.440148 
L 1324.06412 137.421509 
L 1324.599896 137.463848 
L 1325.135672 148.992796 
L 1325.671448 149.306445 
L 1326.207224 147.354483 
L 1326.743 149.937266 
L 1327.278776 145.388484 
L 1327.814552 137.284492 
L 1328.350328 137.051998 
L 1328.886104 130.406734 
L 1329.42188 125.410469 
L 1329.957656 129.134865 
L 1330.493432 127.010252 
L 1331.029208 135.301104 
L 1331.564984 145.646156 
L 1332.10076 152.950428 
L 1332.636536 144.920429 
L 1333.708088 148.359422 
L 1334.243865 153.74691 
L 1334.779641 153.591933 
L 1335.315417 141.259741 
L 1336.386969 130.449758 
L 1336.922745 143.440959 
L 1337.458521 149.832644 
L 1337.994297 150.699482 
L 1339.065849 160.431503 
L 1339.601625 158.370313 
L 1340.673177 150.798426 
L 1341.208953 145.689408 
L 1341.744729 143.057411 
L 1342.280505 145.326602 
L 1342.816281 148.110224 
L 1343.352057 145.70373 
L 1343.887833 155.668245 
L 1344.423609 157.165789 
L 1344.959385 164.399591 
L 1345.495161 182.690136 
L 1347.102489 195.794203 
L 1347.638265 198.701147 
L 1348.174041 204.613637 
L 1348.709817 203.415704 
L 1349.245593 194.754998 
L 1349.781369 193.504213 
L 1350.317145 201.893723 
L 1350.852921 201.083375 
L 1351.388697 201.791656 
L 1351.924473 199.247746 
L 1352.460249 193.120437 
L 1353.531801 187.838825 
L 1354.067577 181.024433 
L 1354.603353 184.583225 
L 1355.139129 179.012629 
L 1355.674905 181.595411 
L 1356.210681 191.51412 
L 1356.746457 195.59439 
L 1357.282233 195.93975 
L 1357.818009 199.706428 
L 1358.353785 201.510517 
L 1358.889561 207.740122 
L 1359.425337 211.203779 
L 1361.032665 199.178246 
L 1361.568441 193.202447 
L 1362.104217 191.941091 
L 1363.175769 179.605433 
L 1363.711545 183.252312 
L 1364.247321 182.56881 
L 1364.783097 185.186827 
L 1365.318873 189.520789 
L 1365.854649 190.539138 
L 1366.390425 198.438881 
L 1366.926201 199.865956 
L 1367.461977 197.787148 
L 1367.997753 200.560199 
L 1368.533529 195.095308 
L 1369.069305 196.145368 
L 1369.605081 199.802818 
L 1370.140857 196.349845 
L 1370.676633 200.461827 
L 1371.748185 194.736253 
L 1372.283961 201.184315 
L 1372.819737 202.47045 
L 1373.355513 194.116289 
L 1373.891289 192.16785 
L 1374.427065 184.194227 
L 1374.962841 180.498133 
L 1375.498617 180.758929 
L 1376.034393 179.782977 
L 1376.570169 175.561881 
L 1377.105945 176.340632 
L 1377.641721 180.526606 
L 1378.713273 193.838503 
L 1379.249049 197.069609 
L 1381.392153 169.177813 
L 1381.927929 165.929203 
L 1382.463705 166.968693 
L 1382.999482 170.048288 
L 1383.535258 178.624544 
L 1384.071034 185.276969 
L 1384.60681 190.301536 
L 1385.142586 189.15998 
L 1385.678362 187.200971 
L 1386.214138 191.098018 
L 1386.749914 175.284608 
L 1387.28569 170.65831 
L 1387.821466 170.048802 
L 1388.357242 167.87486 
L 1388.893018 159.908284 
L 1389.428794 165.105503 
L 1389.96457 158.160742 
L 1390.500346 163.361484 
L 1391.571898 169.154232 
L 1392.107674 176.187195 
L 1392.64345 186.578053 
L 1393.179226 183.118033 
L 1393.715002 187.342766 
L 1394.250778 190.535114 
L 1394.786554 192.635177 
L 1395.32233 190.454188 
L 1395.858106 190.975723 
L 1396.393882 195.464719 
L 1396.929658 188.322642 
L 1397.465434 186.624372 
L 1398.00121 186.871074 
L 1399.072762 180.394995 
L 1399.608538 180.972906 
L 1400.144314 177.794767 
L 1400.68009 180.391643 
L 1401.215866 170.888821 
L 1401.751642 165.938361 
L 1402.287418 159.691253 
L 1403.35897 143.472697 
L 1403.894746 143.543224 
L 1404.430522 148.786249 
L 1404.966298 152.866519 
L 1405.502074 158.673304 
L 1406.03785 167.707614 
L 1407.109402 196.163513 
L 1407.645178 195.839408 
L 1408.180954 188.609243 
L 1408.71673 190.561319 
L 1409.252506 188.979325 
L 1409.788282 185.21276 
L 1410.324058 177.22152 
L 1410.859834 163.620868 
L 1411.39561 158.983999 
L 1411.931386 170.653887 
L 1412.467162 162.299726 
L 1413.002938 160.065885 
L 1413.538714 160.249164 
L 1414.07449 160.72137 
L 1414.610266 158.744743 
L 1415.146042 161.486083 
L 1415.681818 152.754908 
L 1416.217594 163.149289 
L 1416.75337 169.854566 
L 1417.289146 169.939187 
L 1417.824922 173.786906 
L 1418.360698 173.15978 
L 1418.896474 171.398088 
L 1419.43225 178.054036 
L 1419.968026 174.629251 
L 1421.039578 164.657861 
L 1421.575354 154.016948 
L 1422.11113 163.315521 
L 1422.646906 162.554502 
L 1423.182682 151.934731 
L 1423.718458 148.541658 
L 1424.254234 144.415697 
L 1425.325786 158.978435 
L 1425.861562 151.885687 
L 1426.397338 149.458053 
L 1426.933114 143.351885 
L 1427.46889 148.961354 
L 1428.004666 151.484237 
L 1428.540442 146.244849 
L 1429.076218 142.217546 
L 1430.14777 148.767846 
L 1430.683546 159.377161 
L 1431.219323 158.517484 
L 1432.290875 167.210072 
L 1432.826651 176.247907 
L 1433.898203 165.86779 
L 1434.433979 165.945364 
L 1435.505531 158.243108 
L 1436.041307 152.658418 
L 1436.577083 144.87154 
L 1437.112859 148.645265 
L 1437.648635 145.875852 
L 1438.184411 147.429772 
L 1438.720187 147.725803 
L 1439.255963 143.737258 
L 1439.791739 148.310818 
L 1440.327515 142.500624 
L 1441.934843 148.056307 
L 1442.470619 146.280025 
L 1443.006395 152.840343 
L 1443.542171 163.16376 
L 1444.613723 175.114595 
L 1445.149499 170.512961 
L 1445.685275 177.616394 
L 1446.221051 178.536084 
L 1446.756827 176.376236 
L 1447.828379 166.468268 
L 1448.364155 169.339978 
L 1448.899931 170.474602 
L 1449.435707 169.847476 
L 1449.971483 170.531092 
L 1450.507259 166.133821 
L 1451.043035 166.091596 
L 1451.578811 162.036105 
L 1452.114587 163.234152 
L 1452.650363 165.189751 
L 1453.721915 155.235979 
L 1454.257691 161.881356 
L 1455.329243 158.967536 
L 1455.865019 152.664052 
L 1456.400795 155.405392 
L 1457.472347 174.199854 
L 1458.008123 177.438007 
L 1458.543899 184.569628 
L 1459.079675 188.06852 
L 1459.615451 193.318592 
L 1460.151227 189.700015 
L 1461.222779 171.825414 
L 1461.758555 167.900293 
L 1462.294331 161.709561 
L 1462.830107 164.267678 
L 1463.365883 166.149284 
L 1463.901659 169.309921 
L 1464.437435 175.944728 
L 1464.973211 175.331696 
L 1465.508987 178.147029 
L 1466.044763 179.27813 
L 1466.580539 176.730697 
L 1467.116315 179.989991 
L 1467.652091 180.1028 
L 1468.187867 180.465777 
L 1468.723643 178.746367 
L 1469.259419 172.80228 
L 1469.795195 172.309047 
L 1470.330971 177.164486 
L 1470.866747 170.980801 
L 1471.402523 173.19714 
L 1471.938299 173.546023 
L 1472.474075 180.275965 
L 1473.545627 187.752946 
L 1474.081403 186.801658 
L 1474.617179 190.885451 
L 1476.224507 177.739444 
L 1476.760283 179.614003 
L 1477.296059 178.176472 
L 1477.831835 181.844493 
L 1478.367611 184.564692 
L 1478.903387 189.272144 
L 1479.439163 195.0895 
L 1479.97494 199.490408 
L 1480.510716 200.822348 
L 1481.046492 200.381968 
L 1481.582268 194.240564 
L 1482.118044 190.452859 
L 1482.65382 185.495352 
L 1483.189596 183.687854 
L 1483.725372 187.746982 
L 1484.261148 188.240329 
L 1485.3327 190.195986 
L 1485.868476 188.959295 
L 1486.404252 190.386369 
L 1486.940028 193.962778 
L 1487.475804 188.758626 
L 1488.01158 186.845423 
L 1488.547356 189.354212 
L 1489.083132 188.254937 
L 1489.618908 182.856992 
L 1490.154684 185.876689 
L 1490.69046 185.753423 
L 1491.226236 186.919759 
L 1491.762012 186.609748 
L 1492.297788 181.201233 
L 1492.833564 180.71857 
L 1493.36934 185.93693 
L 1493.905116 184.115338 
L 1494.440892 179.98233 
L 1494.976668 177.561743 
L 1495.512444 176.208776 
L 1496.583996 180.535748 
L 1497.119772 187.315018 
L 1497.655548 185.65903 
L 1498.191324 185.278549 
L 1498.7271 180.405606 
L 1499.262876 170.740703 
L 1499.798652 164.828328 
L 1500.334428 167.196177 
L 1501.40598 154.032495 
L 1501.941756 158.458068 
L 1502.477532 165.779958 
L 1503.549084 184.169217 
L 1504.08486 183.372964 
L 1504.620636 180.621167 
L 1505.156412 186.251777 
L 1505.692188 185.293442 
L 1506.227964 185.265311 
L 1506.76374 184.877783 
L 1507.299516 178.535541 
L 1507.835292 178.528551 
L 1508.371068 183.190198 
L 1508.906844 183.764585 
L 1509.44262 172.010247 
L 1509.978396 166.513645 
L 1510.514172 168.360015 
L 1511.585724 178.187171 
L 1512.1215 188.193967 
L 1513.728828 208.221711 
L 1514.264604 205.790553 
L 1514.80038 208.03508 
L 1515.871932 194.966533 
L 1516.407708 190.766578 
L 1516.943484 197.729071 
L 1517.47926 194.427609 
L 1518.015036 195.523474 
L 1518.550812 191.936608 
L 1519.086588 199.931486 
L 1519.622364 199.973825 
L 1520.15814 190.502715 
L 1520.693916 183.036476 
L 1521.229692 181.63418 
L 1521.765468 174.643614 
L 1522.301244 177.66331 
L 1522.83702 177.557662 
L 1523.372796 174.531033 
L 1523.908572 182.455441 
L 1524.444348 187.913399 
L 1524.980124 183.329383 
L 1525.5159 191.408825 
L 1526.051676 189.865589 
L 1526.587452 185.295667 
L 1527.123228 185.757302 
L 1527.659004 182.769432 
L 1528.194781 186.004062 
L 1528.730557 194.224444 
L 1529.266333 193.819298 
L 1529.802109 191.758108 
L 1530.337885 195.827807 
L 1530.873661 201.609927 
L 1531.409437 209.203127 
L 1531.945213 205.073642 
L 1532.480989 206.923536 
L 1533.016765 214.728145 
L 1533.552541 219.513115 
L 1534.088317 220.471564 
L 1534.624093 221.095281 
L 1535.159869 226.570856 
L 1535.695645 233.885699 
L 1536.231421 238.924361 
L 1536.767197 237.35646 
L 1537.302973 243.011735 
L 1538.374525 248.145588 
L 1539.446077 246.897831 
L 1540.517629 253.517611 
L 1541.589181 263.290923 
L 1542.660733 252.518708 
L 1543.196509 258.42415 
L 1543.732285 261.109114 
L 1544.268061 262.483336 
L 1544.803837 259.241773 
L 1545.339613 254.58024 
L 1545.875389 260.971926 
L 1546.411165 270.696842 
L 1547.482717 255.433155 
L 1548.018493 253.777167 
L 1548.554269 258.195693 
L 1549.090045 261.328142 
L 1549.625821 259.129535 
L 1550.161597 256.113476 
L 1550.697373 258.160686 
L 1551.768925 260.500404 
L 1552.304701 260.074118 
L 1552.840477 258.809239 
L 1553.376253 265.436999 
L 1553.912029 266.582193 
L 1554.447805 270.771692 
L 1554.983581 267.202443 
L 1556.590909 260.786321 
L 1556.590909 260.786321 
" clip-path="url(#p678c663ecc)" style="fill: none; stroke: #3ba3ec; stroke-width: 2.5; stroke-linecap: square"/>
   </g>
   <g id="patch_3">
    <path d="M 225 320.4 
L 225 43.2 
" style="fill: none; stroke: #000000; stroke-width: 0.8; stroke-linejoin: miter; stroke-linecap: square"/>
   </g>
   <g id="patch_4">
    <path d="M 1620 320.4 
L 1620 43.2 
" style="fill: none; stroke: #000000; stroke-width: 0.8; stroke-linejoin: miter; stroke-linecap: square"/>
   </g>
   <g id="patch_5">
    <path d="M 225 320.4 
L 1620 320.4 
" style="fill: none; stroke: #000000; stroke-width: 0.8; stroke-linejoin: miter; stroke-linecap: square"/>
   </g>
   <g id="patch_6">
    <path d="M 225 43.2 
L 1620 43.2 
" style="fill: none; stroke: #000000; stroke-width: 0.8; stroke-linejoin: miter; stroke-linecap: square"/>
   </g>
   <g id="text_16">
    <!-- MT06 -->
    <g transform="translate(895.039062 37.2) scale(0.2 -0.2)">
     <defs>
      <path id="DejaVuSans-4d" d="M 628 4666 
L 1569 4666 
L 2759 1491 
L 3956 4666 
L 4897 4666 
L 4897 0 
L 4281 0 
L 4281 4097 
L 3078 897 
L 2444 897 
L 1241 4097 
L 1241 0 
L 628 0 
L 628 4666 
z
" transform="scale(0.015625)"/>
     </defs>
     <use xlink:href="#DejaVuSans-4d"/>
     <use xlink:href="#DejaVuSans-54" x="86.279297"/>
     <use xlink:href="#DejaVuSans-30" x="147.363281"/>
     <use xlink:href="#DejaVuSans-36" x="210.986328"/>
    </g>
   </g>
   <g id="legend_1">
    <g id="patch_7">
     <path d="M 1554.614063 65.878125 
L 1613 65.878125 
Q 1615 65.878125 1615 63.878125 
L 1615 50.2 
Q 1615 48.2 1613 48.2 
L 1554.614063 48.2 
Q 1552.614063 48.2 1552.614063 50.2 
L 1552.614063 63.878125 
Q 1552.614063 65.878125 1554.614063 65.878125 
z
" style="fill: #ffffff; opacity: 0.8; stroke: #cccccc; stroke-linejoin: miter"/>
    </g>
    <g id="line2d_15">
     <path d="M 1556.614063 56.298437 
L 1566.614063 56.298437 
L 1576.614063 56.298437 
" style="fill: none; stroke: #3ba3ec; stroke-width: 2.5; stroke-linecap: square"/>
    </g>
    <g id="text_17">
     <!-- mt06 -->
     <g transform="translate(1584.614063 59.798437) scale(0.1 -0.1)">
      <use xlink:href="#DejaVuSans-6d"/>
      <use xlink:href="#DejaVuSans-74" x="97.412109"/>
      <use xlink:href="#DejaVuSans-30" x="136.621094"/>
      <use xlink:href="#DejaVuSans-36" x="200.244141"/>
     </g>
    </g>
   </g>
  </g>
 </g>
 <defs>
  <clipPath id="p678c663ecc">
   <rect x="225" y="43.2" width="1395" height="277.2"/>
  </clipPath>
 </defs>
</svg>
