<?xml version="1.0" encoding="utf-8" standalone="no"?>
<!DOCTYPE svg PUBLIC "-//W3C//DTD SVG 1.1//EN"
  "http://www.w3.org/Graphics/SVG/1.1/DTD/svg11.dtd">
<svg xmlns:xlink="http://www.w3.org/1999/xlink" width="1800pt" height="360pt" viewBox="0 0 1800 360" xmlns="http://www.w3.org/2000/svg" version="1.1">
 <metadata>
  <rdf:RDF xmlns:dc="http://purl.org/dc/elements/1.1/" xmlns:cc="http://creativecommons.org/ns#" xmlns:rdf="http://www.w3.org/1999/02/22-rdf-syntax-ns#">
   <cc:Work>
    <dc:type rdf:resource="http://purl.org/dc/dcmitype/StillImage"/>
    <dc:date>2024-03-19T10:37:18.965736</dc:date>
    <dc:format>image/svg+xml</dc:format>
    <dc:creator>
     <cc:Agent>
      <dc:title>Matplotlib v3.7.2, https://matplotlib.org/</dc:title>
     </cc:Agent>
    </dc:creator>
   </cc:Work>
  </rdf:RDF>
 </metadata>
 <defs>
  <style type="text/css">*{stroke-linejoin: round; stroke-linecap: butt}</style>
 </defs>
 <g id="figure_1">
  <g id="patch_1">
   <path d="M 0 360 
L 1800 360 
L 1800 0 
L 0 0 
z
" style="fill: #ffffff"/>
  </g>
  <g id="axes_1">
   <g id="patch_2">
    <path d="M 225 320.4 
L 1620 320.4 
L 1620 43.2 
L 225 43.2 
z
" style="fill: #ffffff"/>
   </g>
   <g id="matplotlib.axis_1">
    <g id="xtick_1">
     <g id="line2d_1">
      <defs>
       <path id="m4ecc13bf22" d="M 0 0 
L 0 3.5 
" style="stroke: #000000; stroke-width: 0.8"/>
      </defs>
      <g>
       <use xlink:href="#m4ecc13bf22" x="281.924597" y="320.4" style="stroke: #000000; stroke-width: 0.8"/>
      </g>
     </g>
     <g id="text_1">
      <!-- 2011 -->
      <g transform="translate(262.837097 338.797656) scale(0.15 -0.15)">
       <defs>
        <path id="DejaVuSans-32" d="M 1228 531 
L 3431 531 
L 3431 0 
L 469 0 
L 469 531 
Q 828 903 1448 1529 
Q 2069 2156 2228 2338 
Q 2531 2678 2651 2914 
Q 2772 3150 2772 3378 
Q 2772 3750 2511 3984 
Q 2250 4219 1831 4219 
Q 1534 4219 1204 4116 
Q 875 4013 500 3803 
L 500 4441 
Q 881 4594 1212 4672 
Q 1544 4750 1819 4750 
Q 2544 4750 2975 4387 
Q 3406 4025 3406 3419 
Q 3406 3131 3298 2873 
Q 3191 2616 2906 2266 
Q 2828 2175 2409 1742 
Q 1991 1309 1228 531 
z
" transform="scale(0.015625)"/>
        <path id="DejaVuSans-30" d="M 2034 4250 
Q 1547 4250 1301 3770 
Q 1056 3291 1056 2328 
Q 1056 1369 1301 889 
Q 1547 409 2034 409 
Q 2525 409 2770 889 
Q 3016 1369 3016 2328 
Q 3016 3291 2770 3770 
Q 2525 4250 2034 4250 
z
M 2034 4750 
Q 2819 4750 3233 4129 
Q 3647 3509 3647 2328 
Q 3647 1150 3233 529 
Q 2819 -91 2034 -91 
Q 1250 -91 836 529 
Q 422 1150 422 2328 
Q 422 3509 836 4129 
Q 1250 4750 2034 4750 
z
" transform="scale(0.015625)"/>
        <path id="DejaVuSans-31" d="M 794 531 
L 1825 531 
L 1825 4091 
L 703 3866 
L 703 4441 
L 1819 4666 
L 2450 4666 
L 2450 531 
L 3481 531 
L 3481 0 
L 794 0 
L 794 531 
z
" transform="scale(0.015625)"/>
       </defs>
       <use xlink:href="#DejaVuSans-32"/>
       <use xlink:href="#DejaVuSans-30" x="63.623047"/>
       <use xlink:href="#DejaVuSans-31" x="127.246094"/>
       <use xlink:href="#DejaVuSans-31" x="190.869141"/>
      </g>
     </g>
    </g>
    <g id="xtick_2">
     <g id="line2d_2">
      <g>
       <use xlink:href="#m4ecc13bf22" x="450.984627" y="320.4" style="stroke: #000000; stroke-width: 0.8"/>
      </g>
     </g>
     <g id="text_2">
      <!-- 2012 -->
      <g transform="translate(431.897127 338.797656) scale(0.15 -0.15)">
       <use xlink:href="#DejaVuSans-32"/>
       <use xlink:href="#DejaVuSans-30" x="63.623047"/>
       <use xlink:href="#DejaVuSans-31" x="127.246094"/>
       <use xlink:href="#DejaVuSans-32" x="190.869141"/>
      </g>
     </g>
    </g>
    <g id="xtick_3">
     <g id="line2d_3">
      <g>
       <use xlink:href="#m4ecc13bf22" x="620.507836" y="320.4" style="stroke: #000000; stroke-width: 0.8"/>
      </g>
     </g>
     <g id="text_3">
      <!-- 2013 -->
      <g transform="translate(601.420336 338.797656) scale(0.15 -0.15)">
       <defs>
        <path id="DejaVuSans-33" d="M 2597 2516 
Q 3050 2419 3304 2112 
Q 3559 1806 3559 1356 
Q 3559 666 3084 287 
Q 2609 -91 1734 -91 
Q 1441 -91 1130 -33 
Q 819 25 488 141 
L 488 750 
Q 750 597 1062 519 
Q 1375 441 1716 441 
Q 2309 441 2620 675 
Q 2931 909 2931 1356 
Q 2931 1769 2642 2001 
Q 2353 2234 1838 2234 
L 1294 2234 
L 1294 2753 
L 1863 2753 
Q 2328 2753 2575 2939 
Q 2822 3125 2822 3475 
Q 2822 3834 2567 4026 
Q 2313 4219 1838 4219 
Q 1578 4219 1281 4162 
Q 984 4106 628 3988 
L 628 4550 
Q 988 4650 1302 4700 
Q 1616 4750 1894 4750 
Q 2613 4750 3031 4423 
Q 3450 4097 3450 3541 
Q 3450 3153 3228 2886 
Q 3006 2619 2597 2516 
z
" transform="scale(0.015625)"/>
       </defs>
       <use xlink:href="#DejaVuSans-32"/>
       <use xlink:href="#DejaVuSans-30" x="63.623047"/>
       <use xlink:href="#DejaVuSans-31" x="127.246094"/>
       <use xlink:href="#DejaVuSans-33" x="190.869141"/>
      </g>
     </g>
    </g>
    <g id="xtick_4">
     <g id="line2d_4">
      <g>
       <use xlink:href="#m4ecc13bf22" x="789.567866" y="320.4" style="stroke: #000000; stroke-width: 0.8"/>
      </g>
     </g>
     <g id="text_4">
      <!-- 2014 -->
      <g transform="translate(770.480366 338.797656) scale(0.15 -0.15)">
       <defs>
        <path id="DejaVuSans-34" d="M 2419 4116 
L 825 1625 
L 2419 1625 
L 2419 4116 
z
M 2253 4666 
L 3047 4666 
L 3047 1625 
L 3713 1625 
L 3713 1100 
L 3047 1100 
L 3047 0 
L 2419 0 
L 2419 1100 
L 313 1100 
L 313 1709 
L 2253 4666 
z
" transform="scale(0.015625)"/>
       </defs>
       <use xlink:href="#DejaVuSans-32"/>
       <use xlink:href="#DejaVuSans-30" x="63.623047"/>
       <use xlink:href="#DejaVuSans-31" x="127.246094"/>
       <use xlink:href="#DejaVuSans-34" x="190.869141"/>
      </g>
     </g>
    </g>
    <g id="xtick_5">
     <g id="line2d_5">
      <g>
       <use xlink:href="#m4ecc13bf22" x="958.627897" y="320.4" style="stroke: #000000; stroke-width: 0.8"/>
      </g>
     </g>
     <g id="text_5">
      <!-- 2015 -->
      <g transform="translate(939.540397 338.797656) scale(0.15 -0.15)">
       <defs>
        <path id="DejaVuSans-35" d="M 691 4666 
L 3169 4666 
L 3169 4134 
L 1269 4134 
L 1269 2991 
Q 1406 3038 1543 3061 
Q 1681 3084 1819 3084 
Q 2600 3084 3056 2656 
Q 3513 2228 3513 1497 
Q 3513 744 3044 326 
Q 2575 -91 1722 -91 
Q 1428 -91 1123 -41 
Q 819 9 494 109 
L 494 744 
Q 775 591 1075 516 
Q 1375 441 1709 441 
Q 2250 441 2565 725 
Q 2881 1009 2881 1497 
Q 2881 1984 2565 2268 
Q 2250 2553 1709 2553 
Q 1456 2553 1204 2497 
Q 953 2441 691 2322 
L 691 4666 
z
" transform="scale(0.015625)"/>
       </defs>
       <use xlink:href="#DejaVuSans-32"/>
       <use xlink:href="#DejaVuSans-30" x="63.623047"/>
       <use xlink:href="#DejaVuSans-31" x="127.246094"/>
       <use xlink:href="#DejaVuSans-35" x="190.869141"/>
      </g>
     </g>
    </g>
    <g id="xtick_6">
     <g id="line2d_6">
      <g>
       <use xlink:href="#m4ecc13bf22" x="1127.687927" y="320.4" style="stroke: #000000; stroke-width: 0.8"/>
      </g>
     </g>
     <g id="text_6">
      <!-- 2016 -->
      <g transform="translate(1108.600427 338.797656) scale(0.15 -0.15)">
       <defs>
        <path id="DejaVuSans-36" d="M 2113 2584 
Q 1688 2584 1439 2293 
Q 1191 2003 1191 1497 
Q 1191 994 1439 701 
Q 1688 409 2113 409 
Q 2538 409 2786 701 
Q 3034 994 3034 1497 
Q 3034 2003 2786 2293 
Q 2538 2584 2113 2584 
z
M 3366 4563 
L 3366 3988 
Q 3128 4100 2886 4159 
Q 2644 4219 2406 4219 
Q 1781 4219 1451 3797 
Q 1122 3375 1075 2522 
Q 1259 2794 1537 2939 
Q 1816 3084 2150 3084 
Q 2853 3084 3261 2657 
Q 3669 2231 3669 1497 
Q 3669 778 3244 343 
Q 2819 -91 2113 -91 
Q 1303 -91 875 529 
Q 447 1150 447 2328 
Q 447 3434 972 4092 
Q 1497 4750 2381 4750 
Q 2619 4750 2861 4703 
Q 3103 4656 3366 4563 
z
" transform="scale(0.015625)"/>
       </defs>
       <use xlink:href="#DejaVuSans-32"/>
       <use xlink:href="#DejaVuSans-30" x="63.623047"/>
       <use xlink:href="#DejaVuSans-31" x="127.246094"/>
       <use xlink:href="#DejaVuSans-36" x="190.869141"/>
      </g>
     </g>
    </g>
    <g id="xtick_7">
     <g id="line2d_7">
      <g>
       <use xlink:href="#m4ecc13bf22" x="1297.211136" y="320.4" style="stroke: #000000; stroke-width: 0.8"/>
      </g>
     </g>
     <g id="text_7">
      <!-- 2017 -->
      <g transform="translate(1278.123636 338.797656) scale(0.15 -0.15)">
       <defs>
        <path id="DejaVuSans-37" d="M 525 4666 
L 3525 4666 
L 3525 4397 
L 1831 0 
L 1172 0 
L 2766 4134 
L 525 4134 
L 525 4666 
z
" transform="scale(0.015625)"/>
       </defs>
       <use xlink:href="#DejaVuSans-32"/>
       <use xlink:href="#DejaVuSans-30" x="63.623047"/>
       <use xlink:href="#DejaVuSans-31" x="127.246094"/>
       <use xlink:href="#DejaVuSans-37" x="190.869141"/>
      </g>
     </g>
    </g>
    <g id="xtick_8">
     <g id="line2d_8">
      <g>
       <use xlink:href="#m4ecc13bf22" x="1466.271167" y="320.4" style="stroke: #000000; stroke-width: 0.8"/>
      </g>
     </g>
     <g id="text_8">
      <!-- 2018 -->
      <g transform="translate(1447.183667 338.797656) scale(0.15 -0.15)">
       <defs>
        <path id="DejaVuSans-38" d="M 2034 2216 
Q 1584 2216 1326 1975 
Q 1069 1734 1069 1313 
Q 1069 891 1326 650 
Q 1584 409 2034 409 
Q 2484 409 2743 651 
Q 3003 894 3003 1313 
Q 3003 1734 2745 1975 
Q 2488 2216 2034 2216 
z
M 1403 2484 
Q 997 2584 770 2862 
Q 544 3141 544 3541 
Q 544 4100 942 4425 
Q 1341 4750 2034 4750 
Q 2731 4750 3128 4425 
Q 3525 4100 3525 3541 
Q 3525 3141 3298 2862 
Q 3072 2584 2669 2484 
Q 3125 2378 3379 2068 
Q 3634 1759 3634 1313 
Q 3634 634 3220 271 
Q 2806 -91 2034 -91 
Q 1263 -91 848 271 
Q 434 634 434 1313 
Q 434 1759 690 2068 
Q 947 2378 1403 2484 
z
M 1172 3481 
Q 1172 3119 1398 2916 
Q 1625 2713 2034 2713 
Q 2441 2713 2670 2916 
Q 2900 3119 2900 3481 
Q 2900 3844 2670 4047 
Q 2441 4250 2034 4250 
Q 1625 4250 1398 4047 
Q 1172 3844 1172 3481 
z
" transform="scale(0.015625)"/>
       </defs>
       <use xlink:href="#DejaVuSans-32"/>
       <use xlink:href="#DejaVuSans-30" x="63.623047"/>
       <use xlink:href="#DejaVuSans-31" x="127.246094"/>
       <use xlink:href="#DejaVuSans-38" x="190.869141"/>
      </g>
     </g>
    </g>
    <g id="text_9">
     <!-- Time -->
     <g transform="translate(904.149609 357.314844) scale(0.15 -0.15)">
      <defs>
       <path id="DejaVuSans-54" d="M -19 4666 
L 3928 4666 
L 3928 4134 
L 2272 4134 
L 2272 0 
L 1638 0 
L 1638 4134 
L -19 4134 
L -19 4666 
z
" transform="scale(0.015625)"/>
       <path id="DejaVuSans-69" d="M 603 3500 
L 1178 3500 
L 1178 0 
L 603 0 
L 603 3500 
z
M 603 4863 
L 1178 4863 
L 1178 4134 
L 603 4134 
L 603 4863 
z
" transform="scale(0.015625)"/>
       <path id="DejaVuSans-6d" d="M 3328 2828 
Q 3544 3216 3844 3400 
Q 4144 3584 4550 3584 
Q 5097 3584 5394 3201 
Q 5691 2819 5691 2113 
L 5691 0 
L 5113 0 
L 5113 2094 
Q 5113 2597 4934 2840 
Q 4756 3084 4391 3084 
Q 3944 3084 3684 2787 
Q 3425 2491 3425 1978 
L 3425 0 
L 2847 0 
L 2847 2094 
Q 2847 2600 2669 2842 
Q 2491 3084 2119 3084 
Q 1678 3084 1418 2786 
Q 1159 2488 1159 1978 
L 1159 0 
L 581 0 
L 581 3500 
L 1159 3500 
L 1159 2956 
Q 1356 3278 1631 3431 
Q 1906 3584 2284 3584 
Q 2666 3584 2933 3390 
Q 3200 3197 3328 2828 
z
" transform="scale(0.015625)"/>
       <path id="DejaVuSans-65" d="M 3597 1894 
L 3597 1613 
L 953 1613 
Q 991 1019 1311 708 
Q 1631 397 2203 397 
Q 2534 397 2845 478 
Q 3156 559 3463 722 
L 3463 178 
Q 3153 47 2828 -22 
Q 2503 -91 2169 -91 
Q 1331 -91 842 396 
Q 353 884 353 1716 
Q 353 2575 817 3079 
Q 1281 3584 2069 3584 
Q 2775 3584 3186 3129 
Q 3597 2675 3597 1894 
z
M 3022 2063 
Q 3016 2534 2758 2815 
Q 2500 3097 2075 3097 
Q 1594 3097 1305 2825 
Q 1016 2553 972 2059 
L 3022 2063 
z
" transform="scale(0.015625)"/>
      </defs>
      <use xlink:href="#DejaVuSans-54"/>
      <use xlink:href="#DejaVuSans-69" x="57.958984"/>
      <use xlink:href="#DejaVuSans-6d" x="85.742188"/>
      <use xlink:href="#DejaVuSans-65" x="183.154297"/>
     </g>
    </g>
   </g>
   <g id="matplotlib.axis_2">
    <g id="ytick_1">
     <g id="line2d_9">
      <defs>
       <path id="mac0898b5bd" d="M 0 0 
L -3.5 0 
" style="stroke: #000000; stroke-width: 0.8"/>
      </defs>
      <g>
       <use xlink:href="#mac0898b5bd" x="225" y="273.717432" style="stroke: #000000; stroke-width: 0.8"/>
      </g>
     </g>
     <g id="text_10">
      <!-- −0.004 -->
      <g transform="translate(162.488281 279.41626) scale(0.15 -0.15)">
       <defs>
        <path id="DejaVuSans-2212" d="M 678 2272 
L 4684 2272 
L 4684 1741 
L 678 1741 
L 678 2272 
z
" transform="scale(0.015625)"/>
        <path id="DejaVuSans-2e" d="M 684 794 
L 1344 794 
L 1344 0 
L 684 0 
L 684 794 
z
" transform="scale(0.015625)"/>
       </defs>
       <use xlink:href="#DejaVuSans-2212"/>
       <use xlink:href="#DejaVuSans-30" x="83.789062"/>
       <use xlink:href="#DejaVuSans-2e" x="147.412109"/>
       <use xlink:href="#DejaVuSans-30" x="179.199219"/>
       <use xlink:href="#DejaVuSans-30" x="242.822266"/>
       <use xlink:href="#DejaVuSans-34" x="306.445312"/>
      </g>
     </g>
    </g>
    <g id="ytick_2">
     <g id="line2d_10">
      <g>
       <use xlink:href="#mac0898b5bd" x="225" y="217.460017" style="stroke: #000000; stroke-width: 0.8"/>
      </g>
     </g>
     <g id="text_11">
      <!-- −0.002 -->
      <g transform="translate(162.488281 223.158845) scale(0.15 -0.15)">
       <use xlink:href="#DejaVuSans-2212"/>
       <use xlink:href="#DejaVuSans-30" x="83.789062"/>
       <use xlink:href="#DejaVuSans-2e" x="147.412109"/>
       <use xlink:href="#DejaVuSans-30" x="179.199219"/>
       <use xlink:href="#DejaVuSans-30" x="242.822266"/>
       <use xlink:href="#DejaVuSans-32" x="306.445312"/>
      </g>
     </g>
    </g>
    <g id="ytick_3">
     <g id="line2d_11">
      <g>
       <use xlink:href="#mac0898b5bd" x="225" y="161.202603" style="stroke: #000000; stroke-width: 0.8"/>
      </g>
     </g>
     <g id="text_12">
      <!-- 0.000 -->
      <g transform="translate(175.057813 166.901431) scale(0.15 -0.15)">
       <use xlink:href="#DejaVuSans-30"/>
       <use xlink:href="#DejaVuSans-2e" x="63.623047"/>
       <use xlink:href="#DejaVuSans-30" x="95.410156"/>
       <use xlink:href="#DejaVuSans-30" x="159.033203"/>
       <use xlink:href="#DejaVuSans-30" x="222.65625"/>
      </g>
     </g>
    </g>
    <g id="ytick_4">
     <g id="line2d_12">
      <g>
       <use xlink:href="#mac0898b5bd" x="225" y="104.945189" style="stroke: #000000; stroke-width: 0.8"/>
      </g>
     </g>
     <g id="text_13">
      <!-- 0.002 -->
      <g transform="translate(175.057813 110.644017) scale(0.15 -0.15)">
       <use xlink:href="#DejaVuSans-30"/>
       <use xlink:href="#DejaVuSans-2e" x="63.623047"/>
       <use xlink:href="#DejaVuSans-30" x="95.410156"/>
       <use xlink:href="#DejaVuSans-30" x="159.033203"/>
       <use xlink:href="#DejaVuSans-32" x="222.65625"/>
      </g>
     </g>
    </g>
    <g id="ytick_5">
     <g id="line2d_13">
      <g>
       <use xlink:href="#mac0898b5bd" x="225" y="48.687774" style="stroke: #000000; stroke-width: 0.8"/>
      </g>
     </g>
     <g id="text_14">
      <!-- 0.004 -->
      <g transform="translate(175.057813 54.386602) scale(0.15 -0.15)">
       <use xlink:href="#DejaVuSans-30"/>
       <use xlink:href="#DejaVuSans-2e" x="63.623047"/>
       <use xlink:href="#DejaVuSans-30" x="95.410156"/>
       <use xlink:href="#DejaVuSans-30" x="159.033203"/>
       <use xlink:href="#DejaVuSans-34" x="222.65625"/>
      </g>
     </g>
    </g>
    <g id="text_15">
     <!-- East(m) -->
     <g transform="translate(155.36875 211.140234) rotate(-90) scale(0.15 -0.15)">
      <defs>
       <path id="DejaVuSans-45" d="M 628 4666 
L 3578 4666 
L 3578 4134 
L 1259 4134 
L 1259 2753 
L 3481 2753 
L 3481 2222 
L 1259 2222 
L 1259 531 
L 3634 531 
L 3634 0 
L 628 0 
L 628 4666 
z
" transform="scale(0.015625)"/>
       <path id="DejaVuSans-61" d="M 2194 1759 
Q 1497 1759 1228 1600 
Q 959 1441 959 1056 
Q 959 750 1161 570 
Q 1363 391 1709 391 
Q 2188 391 2477 730 
Q 2766 1069 2766 1631 
L 2766 1759 
L 2194 1759 
z
M 3341 1997 
L 3341 0 
L 2766 0 
L 2766 531 
Q 2569 213 2275 61 
Q 1981 -91 1556 -91 
Q 1019 -91 701 211 
Q 384 513 384 1019 
Q 384 1609 779 1909 
Q 1175 2209 1959 2209 
L 2766 2209 
L 2766 2266 
Q 2766 2663 2505 2880 
Q 2244 3097 1772 3097 
Q 1472 3097 1187 3025 
Q 903 2953 641 2809 
L 641 3341 
Q 956 3463 1253 3523 
Q 1550 3584 1831 3584 
Q 2591 3584 2966 3190 
Q 3341 2797 3341 1997 
z
" transform="scale(0.015625)"/>
       <path id="DejaVuSans-73" d="M 2834 3397 
L 2834 2853 
Q 2591 2978 2328 3040 
Q 2066 3103 1784 3103 
Q 1356 3103 1142 2972 
Q 928 2841 928 2578 
Q 928 2378 1081 2264 
Q 1234 2150 1697 2047 
L 1894 2003 
Q 2506 1872 2764 1633 
Q 3022 1394 3022 966 
Q 3022 478 2636 193 
Q 2250 -91 1575 -91 
Q 1294 -91 989 -36 
Q 684 19 347 128 
L 347 722 
Q 666 556 975 473 
Q 1284 391 1588 391 
Q 1994 391 2212 530 
Q 2431 669 2431 922 
Q 2431 1156 2273 1281 
Q 2116 1406 1581 1522 
L 1381 1569 
Q 847 1681 609 1914 
Q 372 2147 372 2553 
Q 372 3047 722 3315 
Q 1072 3584 1716 3584 
Q 2034 3584 2315 3537 
Q 2597 3491 2834 3397 
z
" transform="scale(0.015625)"/>
       <path id="DejaVuSans-74" d="M 1172 4494 
L 1172 3500 
L 2356 3500 
L 2356 3053 
L 1172 3053 
L 1172 1153 
Q 1172 725 1289 603 
Q 1406 481 1766 481 
L 2356 481 
L 2356 0 
L 1766 0 
Q 1100 0 847 248 
Q 594 497 594 1153 
L 594 3053 
L 172 3053 
L 172 3500 
L 594 3500 
L 594 4494 
L 1172 4494 
z
" transform="scale(0.015625)"/>
       <path id="DejaVuSans-28" d="M 1984 4856 
Q 1566 4138 1362 3434 
Q 1159 2731 1159 2009 
Q 1159 1288 1364 580 
Q 1569 -128 1984 -844 
L 1484 -844 
Q 1016 -109 783 600 
Q 550 1309 550 2009 
Q 550 2706 781 3412 
Q 1013 4119 1484 4856 
L 1984 4856 
z
" transform="scale(0.015625)"/>
       <path id="DejaVuSans-29" d="M 513 4856 
L 1013 4856 
Q 1481 4119 1714 3412 
Q 1947 2706 1947 2009 
Q 1947 1309 1714 600 
Q 1481 -109 1013 -844 
L 513 -844 
Q 928 -128 1133 580 
Q 1338 1288 1338 2009 
Q 1338 2731 1133 3434 
Q 928 4138 513 4856 
z
" transform="scale(0.015625)"/>
      </defs>
      <use xlink:href="#DejaVuSans-45"/>
      <use xlink:href="#DejaVuSans-61" x="63.183594"/>
      <use xlink:href="#DejaVuSans-73" x="124.462891"/>
      <use xlink:href="#DejaVuSans-74" x="176.5625"/>
      <use xlink:href="#DejaVuSans-28" x="215.771484"/>
      <use xlink:href="#DejaVuSans-6d" x="254.785156"/>
      <use xlink:href="#DejaVuSans-29" x="352.197266"/>
     </g>
    </g>
   </g>
   <g id="line2d_14">
    <path d="M 288.409091 268.736094 
L 288.872269 275.259665 
L 289.335447 297.572816 
L 289.798625 307.8 
L 290.261804 299.893544 
L 290.724982 302.540041 
L 291.18816 298.052562 
L 291.651338 296.737989 
L 292.114516 295.764978 
L 292.577694 281.334391 
L 293.040873 271.914732 
L 293.504051 273.296496 
L 293.967229 268.598441 
L 294.893585 274.2753 
L 295.356763 279.743764 
L 295.819942 287.968841 
L 296.28312 290.845445 
L 296.746298 290.519395 
L 297.209476 295.481542 
L 297.672654 293.182464 
L 298.135832 291.948259 
L 298.599011 285.879934 
L 299.062189 286.441947 
L 299.988545 296.603326 
L 300.451723 291.419046 
L 300.914901 294.673379 
L 301.37808 294.548248 
L 338.895511 275.854152 
L 340.285045 210.613961 
L 340.748224 198.084071 
L 341.67458 153.406526 
L 342.137758 161.33826 
L 342.600936 165.609245 
L 343.527293 178.595549 
L 343.990471 168.790125 
L 344.453649 166.012859 
L 344.916827 174.121403 
L 345.380005 172.429101 
L 346.306362 159.974999 
L 346.76954 151.367054 
L 347.232718 158.603608 
L 347.695896 154.789598 
L 348.159074 160.997445 
L 348.622252 160.767836 
L 349.085431 178.351736 
L 349.548609 168.859746 
L 350.474965 165.917165 
L 350.938143 175.725487 
L 352.327678 135.592176 
L 352.790856 134.506651 
L 353.254034 132.995177 
L 353.717212 153.387929 
L 354.18039 162.730117 
L 354.643569 168.556217 
L 355.106747 191.110861 
L 355.569925 198.966247 
L 356.033103 212.419245 
L 356.496281 205.647702 
L 356.959459 189.408841 
L 357.422638 188.050065 
L 357.885816 206.839481 
L 358.348994 209.245934 
L 358.812172 216.474451 
L 359.27535 229.762695 
L 359.738528 233.189819 
L 360.201707 235.182378 
L 360.664885 233.827621 
L 361.591241 229.137042 
L 362.054419 216.329883 
L 362.517597 197.201801 
L 362.980776 204.603109 
L 363.443954 203.481418 
L 363.907132 207.961359 
L 364.37031 204.167441 
L 364.833488 206.376993 
L 365.296666 211.592298 
L 366.223023 224.044157 
L 366.686201 228.933973 
L 367.149379 222.829483 
L 367.612557 218.219833 
L 368.075735 208.498794 
L 368.538914 193.995876 
L 369.002092 175.546902 
L 369.928448 171.041169 
L 370.854804 169.103185 
L 371.317983 161.194439 
L 372.244339 174.956199 
L 372.707517 207.933884 
L 373.170695 205.111761 
L 373.633873 194.064001 
L 374.097052 191.205714 
L 374.56023 190.40484 
L 375.023408 207.015636 
L 375.486586 214.063325 
L 375.949764 207.287765 
L 376.412942 208.388242 
L 376.876121 217.421014 
L 377.339299 222.640338 
L 377.802477 219.179946 
L 378.265655 220.730483 
L 378.728833 225.162203 
L 379.192011 225.386672 
L 379.65519 239.350005 
L 380.118368 243.387923 
L 380.581546 241.908596 
L 381.044724 253.702 
L 381.97108 231.025122 
L 382.434259 228.894817 
L 382.897437 206.805184 
L 383.360615 173.174745 
L 383.823793 174.616785 
L 384.286971 174.065705 
L 384.750149 176.460103 
L 385.213328 176.527855 
L 385.676506 179.25176 
L 386.139684 189.658821 
L 386.602862 219.418433 
L 387.06604 223.35991 
L 387.529218 213.265161 
L 387.992397 214.309381 
L 388.455575 228.361119 
L 388.918753 228.895004 
L 389.845109 224.059669 
L 390.308287 202.52392 
L 390.771466 203.88092 
L 391.234644 209.569741 
L 391.697822 188.926073 
L 392.161 158.196255 
L 392.624178 147.859749 
L 393.087356 147.176063 
L 393.550535 173.150354 
L 394.013713 171.437961 
L 394.476891 163.203725 
L 394.940069 172.666465 
L 395.403247 184.620605 
L 395.866425 178.090166 
L 396.329604 186.833615 
L 396.792782 182.537399 
L 397.25596 180.808932 
L 397.719138 192.803256 
L 398.182316 199.312481 
L 398.645494 208.284978 
L 399.108673 213.845865 
L 399.571851 200.391745 
L 400.035029 198.108741 
L 400.498207 212.87977 
L 400.961385 213.542243 
L 401.424563 219.336196 
L 401.887742 218.945852 
L 402.35092 214.38844 
L 402.814098 216.176062 
L 403.277276 202.352251 
L 403.740454 179.28615 
L 404.203632 167.608157 
L 404.666811 160.374501 
L 405.129989 160.562804 
L 405.593167 170.146096 
L 406.056345 168.14036 
L 406.982701 183.726561 
L 407.44588 179.755834 
L 407.909058 181.68008 
L 408.372236 178.625546 
L 408.835414 180.553811 
L 409.298592 189.940201 
L 409.76177 192.8811 
L 410.224949 185.707719 
L 410.688127 211.055142 
L 411.151305 211.203261 
L 411.614483 213.842781 
L 412.077661 206.464462 
L 412.540839 202.236558 
L 413.004018 207.443827 
L 413.467196 216.058687 
L 413.930374 198.184342 
L 414.393552 201.020763 
L 414.85673 190.833592 
L 415.783087 197.20965 
L 416.246265 194.102876 
L 417.172621 179.498937 
L 417.635799 176.906517 
L 418.098977 177.938682 
L 418.562156 178.279684 
L 419.025334 173.079331 
L 419.488512 162.237163 
L 419.95169 157.868616 
L 420.414868 154.918559 
L 420.878046 144.77559 
L 421.341225 147.451275 
L 421.804403 141.378932 
L 422.267581 140.265278 
L 422.730759 145.444418 
L 423.193937 145.793457 
L 423.657115 163.184474 
L 424.120294 162.649468 
L 425.509828 133.095822 
L 425.973006 119.110621 
L 426.436184 118.607108 
L 426.899363 117.436543 
L 427.362541 107.610372 
L 427.825719 113.45591 
L 428.288897 131.670696 
L 429.215253 160.332728 
L 429.678432 166.046313 
L 430.604788 169.878732 
L 431.067966 170.561297 
L 431.531144 170.862116 
L 431.994322 171.47235 
L 432.4575 168.120454 
L 432.920679 168.485567 
L 433.383857 163.502207 
L 433.847035 154.886225 
L 434.310213 152.997022 
L 434.773391 149.58887 
L 435.236569 144.227781 
L 435.699748 144.199092 
L 436.162926 136.688166 
L 436.626104 144.607846 
L 437.089282 144.100968 
L 437.55246 143.79501 
L 438.015638 155.929977 
L 438.478817 156.998308 
L 438.941995 165.954731 
L 439.405173 169.602865 
L 439.868351 162.349116 
L 440.794707 183.492746 
L 441.257886 169.797523 
L 441.721064 168.716017 
L 442.184242 164.182716 
L 442.64742 154.77913 
L 443.110598 159.58456 
L 443.573776 138.567836 
L 444.036955 123.594767 
L 449.131914 125.125211 
L 450.058271 126.727987 
L 450.521449 122.267017 
L 450.984627 130.70105 
L 451.447805 133.368698 
L 452.374162 149.316554 
L 452.83734 148.681088 
L 453.300518 151.593858 
L 453.763696 157.882072 
L 454.226874 155.884373 
L 454.690052 152.415945 
L 455.153231 155.766718 
L 455.616409 152.680037 
L 456.079587 158.62267 
L 456.542765 156.886166 
L 457.005943 154.133011 
L 457.469121 155.008458 
L 457.9323 154.666335 
L 458.395478 153.219155 
L 458.858656 142.453336 
L 459.321834 138.273653 
L 459.785012 142.496417 
L 460.24819 140.615251 
L 460.711369 146.176138 
L 461.174547 146.272018 
L 461.637725 142.245034 
L 462.100903 141.685917 
L 462.564081 134.010238 
L 463.027259 128.713444 
L 463.490438 125.474063 
L 463.953616 114.543491 
L 464.416794 109.359211 
L 464.879972 108.964848 
L 465.34315 118.041823 
L 465.806328 119.182484 
L 466.269507 115.272033 
L 466.732685 117.348979 
L 467.195863 121.728459 
L 467.659041 123.933993 
L 468.122219 128.466173 
L 468.585397 125.909918 
L 469.048576 130.847954 
L 469.511754 130.811228 
L 469.974932 127.527646 
L 470.43811 120.346228 
L 470.901288 125.601717 
L 471.827645 146.721236 
L 472.290823 150.731025 
L 472.754001 163.689762 
L 473.217179 173.236888 
L 473.680357 188.703098 
L 474.143535 176.534862 
L 474.606714 170.996965 
L 475.069892 159.335046 
L 475.996248 154.194407 
L 476.459426 155.668595 
L 476.922604 146.281083 
L 477.385783 160.971744 
L 477.848961 161.706548 
L 478.312139 162.164083 
L 478.775317 165.386269 
L 479.238495 164.545865 
L 479.701673 162.21464 
L 480.164852 164.645203 
L 480.62803 155.615328 
L 481.091208 151.9942 
L 481.554386 157.691712 
L 482.017564 149.204319 
L 482.480742 144.81568 
L 482.943921 131.928153 
L 483.407099 141.378837 
L 483.870277 158.026453 
L 484.333455 157.804881 
L 484.796633 156.377793 
L 485.259811 167.174637 
L 485.72299 166.961102 
L 486.186168 179.739011 
L 486.649346 174.245316 
L 487.112524 166.079393 
L 488.03888 158.029443 
L 488.502059 145.796913 
L 488.965237 144.550653 
L 489.891593 134.583932 
L 490.354771 136.825631 
L 490.817949 153.545578 
L 493.13384 206.545295 
L 493.597018 209.703187 
L 494.060197 205.101573 
L 494.523375 195.585473 
L 494.986553 194.745069 
L 495.449731 192.425899 
L 495.912909 195.551643 
L 496.376087 193.907562 
L 496.839266 188.60675 
L 497.302444 190.105047 
L 497.765622 198.36629 
L 498.2288 192.141248 
L 498.691978 183.971307 
L 499.155156 168.516031 
L 500.081513 155.073406 
L 500.544691 147.26512 
L 501.007869 143.117584 
L 501.471047 149.630828 
L 501.934225 147.516596 
L 502.397404 144.771477 
L 502.860582 140.021183 
L 503.32376 138.316826 
L 503.786938 135.997657 
L 504.250116 142.454643 
L 504.713294 131.548181 
L 505.176473 132.958074 
L 505.639651 133.483922 
L 506.566007 131.031585 
L 507.029185 127.997142 
L 507.492363 113.896062 
L 507.955542 123.366839 
L 508.41872 127.448959 
L 508.881898 129.754952 
L 509.345076 129.947274 
L 510.271432 145.236114 
L 510.734611 147.93591 
L 511.197789 156.016325 
L 511.660967 161.661597 
L 512.124145 169.066923 
L 512.587323 173.948703 
L 513.050501 174.084767 
L 513.51368 182.289752 
L 513.976858 186.934446 
L 514.903214 166.86952 
L 515.366392 173.708253 
L 515.82957 167.201925 
L 516.292749 149.190954 
L 516.755927 138.859121 
L 517.219105 136.821239 
L 517.682283 138.186929 
L 518.145461 150.832232 
L 518.608639 145.282279 
L 519.071818 157.292676 
L 519.534996 183.194636 
L 519.998174 181.285342 
L 520.461352 188.996065 
L 520.92453 189.461638 
L 521.387708 193.776824 
L 522.314065 188.266401 
L 523.240421 178.081379 
L 523.703599 201.08141 
L 524.166777 203.16172 
L 524.629956 188.838975 
L 525.093134 163.670604 
L 525.556312 183.500781 
L 526.01949 196.656419 
L 526.482668 189.266045 
L 526.945846 166.473195 
L 527.409025 161.630478 
L 527.872203 177.76374 
L 528.335381 189.733953 
L 528.798559 174.640332 
L 529.261737 165.413555 
L 529.724915 169.158131 
L 530.188093 169.454931 
L 530.651272 172.628896 
L 531.577628 154.090956 
L 532.503984 160.543271 
L 532.967162 165.211421 
L 533.430341 174.175227 
L 534.356697 194.373788 
L 534.819875 200.757136 
L 535.283053 198.850551 
L 536.20941 196.561566 
L 536.672588 183.945981 
L 537.135766 180.355693 
L 537.598944 175.72866 
L 538.062122 166.436935 
L 538.5253 162.766933 
L 539.451657 183.222765 
L 540.841191 184.752088 
L 541.304369 178.145299 
L 541.767548 161.601041 
L 542.230726 170.477096 
L 542.693904 176.94212 
L 543.157082 180.839394 
L 543.62026 177.925503 
L 544.083438 166.564963 
L 544.546617 171.008738 
L 545.009795 184.996182 
L 545.936151 129.569452 
L 546.399329 133.535039 
L 547.325686 170.961171 
L 547.788864 174.219522 
L 548.252042 179.406699 
L 549.178398 232.922452 
L 549.641576 238.559688 
L 550.567933 219.005097 
L 551.031111 217.489604 
L 551.494289 200.278293 
L 551.957467 170.063482 
L 552.883824 150.456652 
L 553.347002 152.50145 
L 553.81018 161.373488 
L 554.273358 175.272527 
L 554.736536 185.209436 
L 555.199714 210.597043 
L 555.662893 215.402473 
L 556.126071 226.126986 
L 556.589249 217.924898 
L 557.052427 214.376102 
L 557.515605 200.238857 
L 557.978783 197.473646 
L 558.441962 195.548278 
L 558.90514 204.524793 
L 559.368318 205.384167 
L 559.831496 210.784318 
L 560.757852 177.567212 
L 561.221031 182.187796 
L 561.684209 185.26532 
L 562.147387 181.065545 
L 563.073743 154.932854 
L 563.536921 161.401896 
L 564.0001 156.575253 
L 564.463278 138.917901 
L 564.926456 110.141673 
L 565.852812 71.475634 
L 566.31599 83.317259 
L 566.779169 87.487784 
L 567.242347 100.165234 
L 567.705525 109.551624 
L 568.168703 134.710183 
L 568.631881 147.009904 
L 569.095059 174.700046 
L 569.558238 165.714373 
L 570.021416 159.746508 
L 570.484594 170.663904 
L 570.947772 177.060615 
L 571.41095 172.479093 
L 571.874128 166.28218 
L 572.337307 162.303417 
L 572.800485 164.979101 
L 573.263663 168.587052 
L 573.726841 173.818431 
L 574.190019 186.74502 
L 574.653197 179.386793 
L 575.116376 176.898851 
L 575.579554 152.510702 
L 576.042732 148.170283 
L 576.50591 150.347688 
L 576.969088 129.294799 
L 577.432266 100.269431 
L 578.358623 115.204653 
L 578.821801 132.057206 
L 579.284979 143.641655 
L 579.748157 139.361512 
L 580.211335 147.032052 
L 581.137692 180.090198 
L 581.60087 182.086775 
L 582.064048 181.921461 
L 582.527226 168.905345 
L 582.990404 162.949536 
L 583.453583 163.487439 
L 583.916761 154.634372 
L 584.379939 131.913853 
L 584.843117 123.595231 
L 585.306295 129.541883 
L 585.769473 130.819169 
L 586.232652 125.369676 
L 586.69583 121.607906 
L 587.159008 118.810548 
L 587.622186 120.614243 
L 588.085364 130.916825 
L 588.548542 125.583866 
L 589.011721 125.462753 
L 589.474899 137.047201 
L 589.938077 131.971418 
L 590.401255 113.944375 
L 590.864433 106.216456 
L 591.327611 101.530457 
L 591.79079 94.236524 
L 592.253968 89.072336 
L 592.717146 80.323748 
L 593.180324 81.890358 
L 593.643502 94.921425 
L 594.10668 102.60402 
L 594.569859 97.238913 
L 595.033037 100.33251 
L 595.959393 112.474953 
L 596.422571 102.323948 
L 596.885749 101.202257 
L 597.348928 96.893986 
L 597.812106 91.311886 
L 598.275284 92.388253 
L 598.738462 88.574243 
L 599.20164 81.710278 
L 599.664818 91.526636 
L 600.127997 93.599563 
L 600.591175 93.791885 
L 601.054353 95.961253 
L 601.980709 79.452599 
L 602.443887 84.422782 
L 602.907066 85.097311 
L 603.370244 101.367198 
L 603.833422 100.024496 
L 604.2966 84.890691 
L 604.759778 89.25008 
L 605.222956 94.782837 
L 605.686135 88.618071 
L 606.149313 88.866651 
L 606.612491 77.711048 
L 607.075669 89.520526 
L 607.538847 117.439717 
L 608.002025 123.285909 
L 608.465204 120.818058 
L 608.928382 124.940363 
L 609.854738 111.272708 
L 610.317916 108.523571 
L 610.781094 96.801376 
L 611.244273 93.903558 
L 611.707451 95.289341 
L 612.170629 93.765812 
L 612.633807 98.153329 
L 613.096985 109.560968 
L 613.560163 101.93351 
L 614.023342 103.616653 
L 614.949698 97.705045 
L 615.412876 92.476564 
L 616.339232 87.962794 
L 616.802411 91.759609 
L 617.265589 90.252153 
L 617.728767 79.498389 
L 618.191945 90.644833 
L 618.655123 93.244169 
L 619.118301 93.143148 
L 619.58148 93.93421 
L 620.044658 76.602347 
L 620.507836 96.364213 
L 620.971014 99.538177 
L 621.434192 94.62313 
L 621.89737 105.279331 
L 622.360549 107.207595 
L 622.823727 107.456175 
L 623.286905 121.696777 
L 623.750083 111.819021 
L 624.213261 119.819069 
L 624.676439 122.382239 
L 625.139618 116.635385 
L 625.602796 116.349519 
L 626.065974 119.688237 
L 626.529152 108.504506 
L 626.99233 103.505073 
L 627.455508 94.306425 
L 627.918686 74.744357 
L 628.381865 66.048008 
L 628.845043 67.574434 
L 629.308221 55.8 
L 630.234577 67.042325 
L 630.697755 78.421835 
L 631.624112 108.779626 
L 632.08729 114.56956 
L 632.550468 126.25045 
L 633.013646 128.773436 
L 633.940003 138.456626 
L 634.866359 160.556632 
L 635.329537 150.301148 
L 635.792715 155.15078 
L 636.255893 153.980869 
L 636.719072 158.926943 
L 637.18225 159.038897 
L 638.108606 130.402751 
L 638.571784 130.382099 
L 639.034962 126.998056 
L 639.498141 113.459551 
L 639.961319 93.210339 
L 640.424497 88.014004 
L 640.887675 91.163859 
L 641.350853 85.702311 
L 641.814031 93.521531 
L 642.27721 95.831542 
L 643.203566 127.234113 
L 643.666744 128.905201 
L 644.129922 127.2129 
L 644.5931 143.394382 
L 645.056279 142.493703 
L 645.519457 135.187715 
L 645.982635 120.347252 
L 646.445813 113.314515 
L 646.908991 94.154286 
L 647.372169 88.226605 
L 647.835348 79.907984 
L 648.298526 86.047518 
L 648.761704 90.447091 
L 649.224882 100.307651 
L 649.68806 97.779525 
L 650.151238 95.950598 
L 650.614417 103.247428 
L 651.077595 100.884056 
L 651.540773 97.933999 
L 652.003951 97.30657 
L 652.467129 96.470185 
L 652.930307 99.242311 
L 653.393486 123.163207 
L 653.856664 125.529476 
L 654.319842 117.926127 
L 654.78302 113.449084 
L 655.246198 114.232109 
L 655.709376 97.969137 
L 656.172555 91.193576 
L 656.635733 87.612633 
L 657.098911 73.599958 
L 657.562089 76.777941 
L 658.025267 85.887063 
L 658.488445 85.456535 
L 658.951624 91.600087 
L 659.414802 100.435959 
L 659.87798 98.590959 
L 660.804336 145.018278 
L 661.267514 137.768547 
L 661.730693 124.547494 
L 662.193871 131.571073 
L 662.657049 129.038929 
L 663.120227 130.951121 
L 663.583405 116.126731 
L 664.046583 81.929699 
L 664.509762 75.700639 
L 664.97294 84.182893 
L 665.436118 89.595099 
L 665.899296 87.918871 
L 666.362474 85.334488 
L 666.825652 87.495819 
L 667.288831 92.530297 
L 667.752009 96.142266 
L 668.215187 97.319092 
L 668.678365 91.178437 
L 669.141543 94.087188 
L 669.604721 101.689415 
L 670.0679 102.72158 
L 670.531078 114.089035 
L 671.457434 107.111901 
L 672.38379 114.720856 
L 672.846969 128.719047 
L 673.310147 128.841748 
L 673.773325 129.450673 
L 674.236503 134.294979 
L 674.699681 134.003786 
L 675.626038 144.405614 
L 676.089216 142.821808 
L 676.552394 151.822434 
L 677.015572 144.186939 
L 677.47875 140.730565 
L 678.405107 148.183551 
L 678.868285 142.203631 
L 679.331463 141.379301 
L 679.794641 135.652539 
L 680.257819 135.266213 
L 680.720997 130.994108 
L 681.184176 134.561874 
L 681.647354 142.156064 
L 682.110532 144.747363 
L 682.57371 135.146877 
L 683.036888 121.925824 
L 683.500066 122.146274 
L 683.963245 124.962602 
L 684.426423 129.968952 
L 684.889601 139.564298 
L 685.352779 141.564894 
L 685.815957 154.294583 
L 686.279135 171.862409 
L 686.742314 180.963494 
L 687.205492 179.508277 
L 687.66867 174.336053 
L 688.131848 164.185047 
L 688.595026 163.159798 
L 689.058204 160.607562 
L 689.521383 159.096088 
L 689.984561 160.321135 
L 690.447739 160.296464 
L 690.910917 154.44915 
L 691.374095 150.201155 
L 691.837273 147.524349 
L 692.300452 147.584064 
L 692.76363 150.52898 
L 693.226808 147.052515 
L 693.689986 156.454979 
L 694.153164 169.285128 
L 694.616342 174.114668 
L 695.079521 189.572841 
L 695.542699 200.470145 
L 696.005877 196.64408 
L 696.469055 190.595847 
L 696.932233 199.218745 
L 697.395411 199.688335 
L 697.85859 208.636722 
L 698.321768 214.141351 
L 698.784946 207.209073 
L 699.248124 204.02595 
L 699.711302 221.5335 
L 700.17448 216.960015 
L 700.637659 218.253375 
L 701.100837 209.946809 
L 701.564015 195.347449 
L 702.027193 200.301559 
L 702.490371 206.541553 
L 702.953549 191.560447 
L 703.416728 185.009916 
L 703.879906 187.898575 
L 704.343084 189.5777 
L 704.806262 189.303889 
L 705.26944 188.117904 
L 705.732618 196.648379 
L 706.195797 214.497492 
L 706.658975 216.803485 
L 707.585331 177.173034 
L 708.048509 183.726462 
L 708.511687 177.384887 
L 708.974866 174.804522 
L 709.438044 158.802745 
L 709.901222 157.134554 
L 710.3644 186.070396 
L 710.827578 225.365639 
L 711.290756 223.138892 
L 711.753935 231.247436 
L 712.217113 228.156736 
L 713.143469 247.584514 
L 713.606647 238.305499 
L 714.069825 220.173977 
L 714.533004 218.654466 
L 714.996182 218.348508 
L 715.45936 224.861752 
L 715.922538 229.755586 
L 716.385716 237.755634 
L 716.848894 235.810174 
L 717.312073 220.925509 
L 717.775251 233.892282 
L 718.238429 234.41813 
L 718.701607 230.72869 
L 719.164785 219.360113 
L 719.627963 213.392248 
L 720.091142 217.715472 
L 720.55432 236.625439 
L 721.017498 232.594436 
L 721.943854 209.133973 
L 722.407032 218.552511 
L 722.870211 213.617371 
L 723.333389 216.228762 
L 723.796567 212.294201 
L 724.259745 212.69146 
L 724.722923 220.466478 
L 725.186101 223.415413 
L 725.64928 211.890119 
L 726.112458 205.50836 
L 726.575636 186.263745 
L 727.038814 184.913007 
L 727.501992 161.919237 
L 727.96517 148.228033 
L 728.428348 145.880734 
L 728.891527 153.394557 
L 729.354705 153.739577 
L 729.817883 157.906084 
L 730.281061 149.728106 
L 730.744239 163.337821 
L 731.207417 166.985956 
L 731.670596 178.895893 
L 732.133774 185.718553 
L 732.596952 201.980403 
L 733.06013 211.234187 
L 733.523308 216.48164 
L 733.986486 204.176779 
L 734.449665 204.461524 
L 735.376021 176.271419 
L 735.839199 174.655467 
L 736.302377 157.813848 
L 736.765555 150.302922 
L 737.228734 160.8667 
L 737.691912 158.57164 
L 738.15509 160.825395 
L 738.618268 159.269718 
L 739.081446 142.158867 
L 739.544624 155.62392 
L 740.007803 164.206634 
L 740.470981 158.889747 
L 740.934159 178.189498 
L 741.397337 178.574702 
L 741.860515 179.655088 
L 742.323693 183.443866 
L 742.786872 179.063263 
L 743.25005 181.280852 
L 743.713228 186.68904 
L 744.176406 173.21081 
L 744.639584 174.793494 
L 745.565941 157.927203 
L 746.029119 147.04887 
L 746.955475 121.71182 
L 747.881831 103.410965 
L 748.34501 102.305348 
L 748.808188 102.831196 
L 749.271366 99.278382 
L 749.734544 83.565929 
L 750.197722 83.818526 
L 750.6609 84.838636 
L 751.124079 77.472372 
L 751.587257 74.108422 
L 752.050435 61.176693 
L 752.513613 74.400643 
L 753.439969 117.8423 
L 753.903148 123.909503 
L 754.366326 136.996828 
L 755.292682 152.161098 
L 755.75586 147.290253 
L 756.219038 151.40452 
L 756.682217 129.238538 
L 757.145395 120.449766 
L 757.608573 103.841213 
L 758.071751 105.841809 
L 758.534929 110.02037 
L 758.998107 108.046782 
L 759.461286 87.094352 
L 759.924464 74.648848 
L 760.387642 75.785491 
L 760.85082 86.301048 
L 761.313998 91.042184 
L 761.777176 105.073829 
L 762.240355 100.930312 
L 762.703533 112.374117 
L 763.166711 128.599802 
L 763.629889 138.822017 
L 764.093067 142.032147 
L 764.556245 135.320881 
L 765.019424 114.276028 
L 765.482602 112.45112 
L 765.94578 105.639394 
L 766.408958 105.385675 
L 766.872136 100.482682 
L 767.335314 98.951116 
L 767.798493 89.286335 
L 768.261671 95.20084 
L 768.724849 104.012601 
L 769.188027 105.225593 
L 769.651205 89.914979 
L 770.114383 90.854721 
L 770.577562 74.869018 
L 771.04074 105.082707 
L 771.503918 114.481153 
L 773.356631 121.795551 
L 773.819809 134.451601 
L 774.282987 138.427934 
L 774.746165 157.051288 
L 775.209343 138.496527 
L 775.672521 132.804623 
L 776.1357 135.447506 
L 777.062056 159.17094 
L 777.525234 158.784614 
L 777.988412 158.74387 
L 778.45159 163.239884 
L 778.914769 162.813374 
L 779.377947 160.65494 
L 780.304303 145.858118 
L 780.767481 144.611858 
L 781.230659 140.251347 
L 781.693838 131.197361 
L 782.157016 132.137103 
L 782.620194 129.773731 
L 783.083372 126.140549 
L 783.54655 125.569377 
L 784.009728 126.308199 
L 784.472907 136.012043 
L 785.399263 162.102306 
L 785.862441 159.284856 
L 786.325619 153.899658 
L 786.788797 132.348489 
L 787.251976 131.459865 
L 787.715154 130.836454 
L 788.64151 112.31057 
L 789.104688 109.758333 
L 789.567866 110.444917 
L 790.031045 122.905373 
L 790.957401 107.996037 
L 791.420579 104.314634 
L 792.346935 88.637786 
L 792.810114 93.306591 
L 793.73647 106.317006 
L 794.199648 107.05181 
L 794.662826 110.028873 
L 795.589183 130.465267 
L 796.052361 135.716738 
L 796.515539 132.798828 
L 796.978717 122.808558 
L 797.441895 125.448077 
L 797.905073 122.666793 
L 798.368252 113.35563 
L 798.83143 111.607071 
L 799.294608 114.760944 
L 799.757786 117.026754 
L 800.220964 118.312077 
L 800.684142 116.097385 
L 801.147321 129.228912 
L 801.610499 138.121041 
L 802.073677 132.241581 
L 803.000033 94.736856 
L 803.463211 102.041722 
L 803.92639 92.2805 
L 804.852746 58.062816 
L 805.315924 67.505464 
L 805.779102 88.448735 
L 806.24228 97.569912 
L 806.705459 94.864977 
L 807.168637 95.137666 
L 808.558171 116.911622 
L 809.021349 113.025281 
L 809.484528 121.957594 
L 809.947706 124.259569 
L 810.410884 127.260743 
L 810.874062 121.76303 
L 811.33724 125.226318 
L 811.800418 116.196443 
L 812.726775 110.059245 
L 813.189953 105.043737 
L 813.653131 104.854312 
L 814.116309 107.509905 
L 814.579487 105.078221 
L 815.042666 105.945631 
L 815.505844 109.203982 
L 815.969022 114.274626 
L 816.4322 122.242526 
L 816.895378 126.392959 
L 817.358556 122.321772 
L 817.821735 122.112255 
L 818.284913 107.320013 
L 818.748091 107.918192 
L 819.211269 109.806273 
L 819.674447 107.784464 
L 820.137625 109.917666 
L 820.600804 108.980822 
L 821.063982 108.707011 
L 821.52716 123.188716 
L 821.990338 124.044071 
L 822.453516 122.584836 
L 822.916694 128.909216 
L 824.306229 170.521947 
L 824.769407 178.714877 
L 825.695763 183.969805 
L 826.158941 188.714959 
L 826.62212 174.838909 
L 827.085298 171.290113 
L 827.548476 158.876756 
L 828.011654 157.803286 
L 828.474832 154.788935 
L 828.93801 140.904848 
L 829.401189 134.663733 
L 829.864367 138.360088 
L 830.327545 135.566748 
L 830.790723 143.470354 
L 831.253901 147.974405 
L 831.717079 153.748266 
L 832.180258 164.577258 
L 833.106614 132.774624 
L 833.569792 132.147195 
L 834.03297 128.875667 
L 834.959327 114.323967 
L 835.422505 111.868172 
L 835.885683 122.825752 
L 836.348861 129.588136 
L 836.812039 133.802863 
L 837.275217 156.337416 
L 837.738396 148.549221 
L 838.664752 154.67614 
L 839.591108 150.231243 
L 840.054286 155.213482 
L 840.517465 147.405196 
L 840.980643 123.250113 
L 841.443821 131.169792 
L 841.906999 125.266221 
L 842.370177 122.806408 
L 842.833355 131.409213 
L 843.296534 128.668113 
L 843.759712 115.692181 
L 844.22289 118.022285 
L 844.686068 111.001602 
L 845.149246 121.794429 
L 845.612424 108.059022 
L 846.075603 102.886798 
L 846.538781 110.183627 
L 847.001959 140.421427 
L 847.465137 148.377272 
L 847.928315 161.219475 
L 848.391493 158.876195 
L 848.854672 175.39924 
L 849.31785 187.2047 
L 849.781028 188.638703 
L 850.244206 176.365989 
L 850.707384 173.146701 
L 851.170562 159.985924 
L 851.633741 157.329209 
L 852.096919 156.97503 
L 852.560097 154.197765 
L 853.486453 150.977915 
L 853.949631 154.12777 
L 854.41281 176.967719 
L 854.875988 179.084848 
L 855.339166 185.586037 
L 855.802344 179.268573 
L 856.265522 177.716915 
L 856.7287 184.45117 
L 857.191879 180.669308 
L 857.655057 169.188216 
L 858.118235 165.173287 
L 858.581413 158.04009 
L 859.044591 166.301332 
L 859.507769 177.644677 
L 859.970948 178.877761 
L 860.434126 171.177972 
L 860.897304 170.076373 
L 861.360482 182.33591 
L 861.82366 175.761269 
L 862.286838 179.742929 
L 862.750017 179.412861 
L 863.213195 182.578789 
L 863.676373 189.960005 
L 864.602729 195.677047 
L 865.065907 215.732255 
L 865.529086 217.700704 
L 865.992264 201.453805 
L 866.455442 199.922239 
L 866.91862 204.968772 
L 867.381798 202.685768 
L 867.844976 209.1307 
L 868.308155 209.656548 
L 868.771333 213.039468 
L 869.234511 236.855886 
L 870.624045 231.626096 
L 871.087224 232.954313 
L 871.550402 245.831373 
L 872.01358 244.467271 
L 873.403114 206.966097 
L 873.866293 209.352458 
L 874.329471 213.591296 
L 875.255827 199.063706 
L 875.719005 192.030969 
L 876.182183 178.170992 
L 876.645362 188.192288 
L 877.10854 195.091297 
L 877.571718 187.865677 
L 878.034896 191.41737 
L 878.498074 186.996584 
L 879.424431 215.698799 
L 879.887609 199.805519 
L 880.350787 212.470913 
L 880.813965 219.984736 
L 881.277143 225.320593 
L 881.740321 225.295922 
L 882.2035 217.764904 
L 882.666678 215.783279 
L 883.129856 217.084675 
L 883.593034 203.477857 
L 884.056212 193.294704 
L 884.51939 187.507667 
L 884.982569 188.563942 
L 885.445747 193.77121 
L 885.908925 204.238547 
L 886.372103 205.073811 
L 886.835281 189.960098 
L 887.298459 193.921666 
L 887.761638 192.245438 
L 888.224816 192.112271 
L 888.687994 191.549136 
L 889.151172 202.060675 
L 890.077528 249.151028 
L 890.540707 255.989761 
L 891.467063 253.011015 
L 891.930241 264.438746 
L 892.393419 261.633352 
L 892.856597 251.209096 
L 893.319776 229.802589 
L 893.782954 227.981699 
L 894.246132 228.326719 
L 894.70931 237.950195 
L 895.172488 239.922662 
L 895.635666 237.077084 
L 896.098845 241.151167 
L 896.562023 262.198916 
L 897.025201 264.038776 
L 897.488379 259.915351 
L 897.951557 252.934852 
L 898.414735 238.09439 
L 898.877914 240.18339 
L 899.341092 212.922094 
L 899.80427 206.781438 
L 900.267448 202.31645 
L 900.730626 204.15631 
L 901.193804 199.201078 
L 901.656983 208.499065 
L 902.120161 188.081081 
L 902.583339 205.427896 
L 903.046517 190.157465 
L 903.509695 168.148201 
L 903.972873 162.067821 
L 904.436052 161.235454 
L 904.89923 149.553443 
L 905.362408 162.805522 
L 905.825586 158.549489 
L 906.288764 169.707989 
L 906.751942 195.015228 
L 907.215121 202.046844 
L 907.678299 199.83617 
L 908.141477 203.307496 
L 908.604655 192.863148 
L 909.067833 192.97912 
L 909.531011 188.815511 
L 909.99419 178.101931 
L 910.457368 179.122041 
L 911.383724 194.615819 
L 911.846902 197.219173 
L 912.31008 198.552716 
L 912.773259 191.877615 
L 913.236437 194.525171 
L 913.699615 189.216322 
L 914.162793 177.13649 
L 914.625971 162.075016 
L 915.089149 159.550909 
L 915.552328 154.756413 
L 916.015506 154.394197 
L 916.478684 155.583079 
L 916.941862 162.863835 
L 917.40504 166.813348 
L 918.331397 162.050439 
L 918.794575 159.449982 
L 919.257753 161.547019 
L 919.720931 162.141179 
L 920.184109 159.540722 
L 920.647287 158.495381 
L 921.110466 165.165342 
L 921.573644 155.351881 
L 922.036822 164.388672 
L 922.5 178.010443 
L 922.963178 171.877824 
L 923.426356 172.359469 
L 923.889534 170.349715 
L 924.352713 164.044306 
L 924.815891 176.014519 
L 925.279069 169.604632 
L 925.742247 157.187256 
L 926.205425 153.316989 
L 926.668603 138.64128 
L 927.131782 133.33243 
L 927.59496 134.023032 
L 928.058138 121.677987 
L 928.521316 117.329532 
L 928.984494 108.729624 
L 929.910851 106.703235 
L 930.374029 109.12978 
L 930.837207 101.723333 
L 931.300385 104.917389 
L 931.763563 88.545921 
L 932.226741 79.495954 
L 932.68992 78.567146 
L 933.153098 82.006324 
L 933.616276 74.24224 
L 934.079454 75.250294 
L 934.542632 72.509194 
L 935.00581 84.812933 
L 935.468989 87.862328 
L 935.932167 86.190119 
L 936.395345 83.011014 
L 936.858523 73.707888 
L 937.321701 87.912324 
L 937.784879 98.673003 
L 938.248058 104.792446 
L 938.711236 116.449225 
L 939.637592 129.560099 
L 940.10077 139.04695 
L 940.563948 126.890769 
L 941.027127 126.870116 
L 941.490305 133.06189 
L 941.953483 134.515985 
L 942.416661 130.935042 
L 942.879839 124.718037 
L 943.806196 129.924744 
L 944.269374 119.633095 
L 944.732552 114.633661 
L 945.19573 115.392576 
L 945.658908 113.648035 
L 946.122086 112.887999 
L 946.585265 119.349005 
L 947.048443 118.753723 
L 947.511621 126.10681 
L 947.974799 120.351919 
L 948.437977 116.144108 
L 949.364334 126.377817 
L 949.827512 131.781987 
L 950.753868 145.809053 
L 951.217046 147.660969 
L 951.680224 151.072018 
L 952.143403 142.275209 
L 952.606581 141.177629 
L 953.069759 134.900348 
L 953.532937 130.431341 
L 953.996115 132.074301 
L 954.459293 139.861374 
L 954.922472 144.62662 
L 955.38565 153.494638 
L 955.848828 155.672043 
L 956.312006 158.76564 
L 956.775184 157.463122 
L 957.238362 153.612947 
L 958.164719 139.531399 
L 958.627897 137.718545 
L 959.091075 139.803527 
L 959.554253 147.116431 
L 960.017431 159.76977 
L 960.48061 163.212966 
L 960.943788 164.233076 
L 961.406966 167.933449 
L 961.870144 167.30602 
L 962.333322 174.389875 
L 962.7965 176.51906 
L 963.259679 171.816986 
L 963.722857 173.753288 
L 964.186035 180.427268 
L 964.649213 191.67819 
L 965.112391 194.434243 
L 965.575569 182.716066 
L 966.038748 161.100603 
L 967.428282 145.50758 
L 968.354638 118.840445 
L 968.817817 118.679148 
L 969.280995 127.048887 
L 969.744173 122.628101 
L 970.207351 123.447291 
L 970.670529 114.714776 
L 971.133707 121.159708 
L 971.596886 139.157501 
L 972.060064 142.206896 
L 972.523242 143.536422 
L 972.98642 146.248272 
L 973.449598 145.572622 
L 973.912776 152.339025 
L 974.375955 144.422242 
L 974.839133 124.008277 
L 975.302311 120.837209 
L 975.765489 113.937078 
L 976.228667 129.439454 
L 976.691845 124.648976 
L 977.155024 123.101336 
L 977.618202 129.650746 
L 978.08138 145.611217 
L 978.544558 150.171526 
L 979.007736 165.10329 
L 979.470914 135.077344 
L 979.934093 143.921252 
L 980.397271 134.240398 
L 980.860449 130.088843 
L 981.323627 132.105513 
L 981.786805 136.183615 
L 982.249983 129.231245 
L 982.713162 141.334065 
L 983.17634 138.805939 
L 983.639518 152.861695 
L 984.102696 155.565509 
L 984.565874 144.936315 
L 985.029052 139.354215 
L 985.492231 140.796255 
L 985.955409 148.748082 
L 986.418587 148.42605 
L 986.881765 149.020211 
L 988.734478 135.303214 
L 989.660834 99.960381 
L 990.124012 98.223877 
L 990.58719 98.034453 
L 991.050369 102.904177 
L 991.976725 101.175149 
L 992.439903 101.150478 
L 992.903081 99.711335 
L 993.366259 86.819789 
L 993.829438 84.589024 
L 994.292616 90.073561 
L 994.755794 98.302656 
L 995.218972 100.516227 
L 995.68215 110.408934 
L 996.145328 132.477354 
L 996.608507 147.670313 
L 997.534863 132.174292 
L 997.998041 127.351668 
L 998.461219 126.017002 
L 998.924397 131.545742 
L 999.387576 140.940169 
L 999.850754 137.407447 
L 1000.313932 154.251963 
L 1001.703466 177.701586 
L 1002.166645 176.471399 
L 1002.629823 160.091894 
L 1003.093001 166.018454 
L 1003.556179 162.859441 
L 1004.019357 165.643622 
L 1004.482535 176.195345 
L 1004.945714 177.653459 
L 1005.408892 182.442815 
L 1005.87207 191.359055 
L 1006.335248 187.999123 
L 1006.798426 194.391815 
L 1007.261604 206.570985 
L 1007.724783 193.209288 
L 1008.187961 191.786218 
L 1008.651139 199.814394 
L 1009.114317 198.519913 
L 1009.577495 210.13249 
L 1010.040673 210.871312 
L 1010.503852 211.340903 
L 1010.96703 226.1923 
L 1011.430208 228.872003 
L 1011.893386 228.863405 
L 1013.282921 197.614748 
L 1013.746099 191.409798 
L 1014.209277 179.181287 
L 1014.672455 186.843789 
L 1015.135633 198.560844 
L 1015.598811 213.914539 
L 1016.06199 217.526508 
L 1016.525168 231.682724 
L 1016.988346 225.321057 
L 1017.451524 226.791226 
L 1017.914702 214.233207 
L 1018.37788 193.505807 
L 1018.841059 192.460466 
L 1019.304237 184.210157 
L 1019.767415 180.376056 
L 1020.230593 197.365234 
L 1020.693771 179.679753 
L 1021.156949 175.84967 
L 1021.620127 173.876082 
L 1022.083306 165.272155 
L 1022.546484 167.682626 
L 1023.009662 156.322086 
L 1023.47284 132.259426 
L 1023.936018 132.086074 
L 1024.399196 134.275534 
L 1024.862375 132.036732 
L 1025.325553 140.760089 
L 1025.788731 141.993173 
L 1026.251909 167.786637 
L 1026.715087 181.733896 
L 1027.178265 199.450403 
L 1027.641444 208.676058 
L 1028.104622 215.442461 
L 1028.5678 212.134768 
L 1029.030978 214.123308 
L 1029.494156 204.189296 
L 1029.957334 198.426368 
L 1030.420513 203.372442 
L 1030.883691 194.539467 
L 1031.346869 174.193814 
L 1031.810047 172.01127 
L 1032.273225 159.601931 
L 1032.736403 152.095023 
L 1033.199582 148.429694 
L 1034.125938 131.728157 
L 1034.589116 154.475684 
L 1035.052294 163.2995 
L 1035.515472 169.595752 
L 1035.978651 165.833981 
L 1036.441829 174.959177 
L 1036.905007 173.925891 
L 1037.368185 189.564891 
L 1037.831363 188.149858 
L 1038.294541 173.759455 
L 1039.220898 190.406509 
L 1039.684076 188.199854 
L 1040.147254 200.724605 
L 1040.610432 203.364124 
L 1041.07361 220.289009 
L 1041.536789 221.82749 
L 1041.999967 232.322956 
L 1042.463145 229.979675 
L 1042.926323 229.070959 
L 1043.389501 213.812584 
L 1043.852679 207.953215 
L 1044.315858 180.993298 
L 1044.779036 177.291803 
L 1045.242214 172.159763 
L 1045.705392 172.569077 
L 1046.16857 176.116752 
L 1046.631748 189.738522 
L 1047.094927 191.550254 
L 1047.558105 214.370112 
L 1048.021283 223.169818 
L 1048.484461 218.282899 
L 1048.947639 230.896054 
L 1049.410817 228.850135 
L 1049.873996 231.843272 
L 1050.337174 238.49716 
L 1051.26353 224.017698 
L 1051.726708 238.398289 
L 1052.189886 237.665728 
L 1052.653065 233.654163 
L 1053.116243 222.546127 
L 1053.579421 227.825072 
L 1054.042599 234.699317 
L 1054.505777 243.804421 
L 1054.968955 232.528267 
L 1055.432134 243.132229 
L 1055.895312 242.360138 
L 1056.35849 251.61794 
L 1056.821668 235.535796 
L 1057.284846 229.334864 
L 1057.748024 226.497322 
L 1058.211203 222.558743 
L 1058.674381 200.099418 
L 1059.137559 189.968505 
L 1059.600737 200.761331 
L 1060.063915 208.443926 
L 1060.527093 192.309542 
L 1061.45345 168.238191 
L 1061.916628 168.341454 
L 1062.379806 174.93843 
L 1062.842984 157.746557 
L 1063.306162 146.984102 
L 1063.769341 140.396751 
L 1064.232519 146.186032 
L 1064.695697 164.055237 
L 1065.158875 162.921491 
L 1066.085231 208.890714 
L 1066.54841 203.911372 
L 1067.011588 208.286835 
L 1067.474766 223.298967 
L 1067.937944 229.225526 
L 1068.401122 239.025811 
L 1068.8643 217.088877 
L 1069.327479 212.985543 
L 1069.790657 216.276042 
L 1070.253835 217.505107 
L 1070.717013 221.173334 
L 1071.180191 234.15618 
L 1072.106548 246.547764 
L 1072.569726 258.433591 
L 1073.032904 259.714896 
L 1073.496082 255.282054 
L 1073.95926 245.565034 
L 1074.885617 210.169963 
L 1075.348795 203.631487 
L 1075.811973 190.486783 
L 1076.275151 195.669941 
L 1076.738329 189.123428 
L 1077.201507 168.69339 
L 1077.664686 175.580344 
L 1078.127864 160.394299 
L 1078.591042 140.056683 
L 1079.517398 117.805755 
L 1080.443755 137.084853 
L 1080.906933 133.50391 
L 1081.370111 145.598693 
L 1081.833289 153.687145 
L 1082.296467 166.637844 
L 1082.759645 166.84624 
L 1083.222824 158.362865 
L 1083.686002 153.612571 
L 1084.612358 134.154421 
L 1085.075536 147.378371 
L 1085.538714 132.292786 
L 1086.001893 139.65391 
L 1086.465071 141.349109 
L 1086.928249 150.164888 
L 1087.854605 161.282643 
L 1088.317783 161.173586 
L 1088.780962 175.369986 
L 1089.24414 153.208022 
L 1089.707318 153.778072 
L 1090.170496 145.065649 
L 1090.633674 145.053033 
L 1091.096852 140.411236 
L 1091.560031 144.50943 
L 1092.023209 144.649512 
L 1092.486387 162.406203 
L 1092.949565 173.69329 
L 1093.412743 181.669227 
L 1093.875921 180.443059 
L 1094.3391 187.542987 
L 1095.728634 155.924638 
L 1096.191812 145.287408 
L 1096.65499 143.470536 
L 1097.118169 146.825329 
L 1097.581347 152.193332 
L 1098.044525 152.747309 
L 1098.507703 163.853569 
L 1098.970881 164.110185 
L 1099.434059 145.106674 
L 1099.897238 139.026294 
L 1100.360416 142.473509 
L 1100.823594 141.142862 
L 1101.286772 141.929905 
L 1101.74995 138.907518 
L 1102.213128 141.197438 
L 1102.676307 164.616035 
L 1103.139485 170.719404 
L 1103.602663 165.535124 
L 1104.065841 158.004106 
L 1104.992197 167.751591 
L 1105.918554 166.898572 
L 1106.381732 171.555321 
L 1106.84491 172.109298 
L 1107.308088 169.902643 
L 1107.771266 156.235549 
L 1108.234445 169.720694 
L 1108.697623 170.4997 
L 1109.623979 148.345213 
L 1110.087157 136.578816 
L 1110.550335 138.876772 
L 1111.013514 142.384263 
L 1111.476692 128.054135 
L 1111.93987 123.480651 
L 1112.403048 127.51455 
L 1113.329404 149.349342 
L 1113.792583 154.568666 
L 1114.255761 166.671486 
L 1114.718939 162.254718 
L 1115.182117 166.811008 
L 1115.645295 166.814466 
L 1116.108473 157.921215 
L 1116.571652 154.689872 
L 1117.03483 150.590557 
L 1117.498008 149.601473 
L 1117.961186 165.252528 
L 1118.424364 169.141766 
L 1118.887542 171.741101 
L 1119.35072 172.560292 
L 1119.813899 170.630905 
L 1120.277077 174.833577 
L 1120.740255 174.981697 
L 1121.203433 167.744021 
L 1121.666611 165.316355 
L 1122.129789 165.87435 
L 1122.592968 179.500139 
L 1123.056146 184.77572 
L 1123.519324 186.36644 
L 1123.982502 189.962336 
L 1124.44568 187.635129 
L 1124.908858 186.324574 
L 1125.372037 184.158103 
L 1125.835215 176.554755 
L 1126.298393 179.483598 
L 1126.761571 179.828619 
L 1127.224749 175.857892 
L 1127.687927 174.679944 
L 1128.151106 173.891779 
L 1128.614284 175.590996 
L 1129.077462 175.731079 
L 1129.54064 173.910189 
L 1130.003818 175.131218 
L 1130.466996 183.76617 
L 1130.930175 183.359752 
L 1131.393353 181.406256 
L 1131.856531 182.201336 
L 1132.319709 174.385013 
L 1132.782887 173.134734 
L 1133.246065 173.182394 
L 1133.709244 164.867791 
L 1134.172422 170.404567 
L 1134.6356 170.279436 
L 1135.098778 165.5854 
L 1135.561956 175.594641 
L 1136.951491 158.297822 
L 1137.414669 148.291478 
L 1137.877847 149.721463 
L 1138.341025 146.433862 
L 1138.804203 136.765063 
L 1139.267382 134.108349 
L 1139.73056 134.389075 
L 1140.193738 129.606634 
L 1140.656916 139.728389 
L 1141.120094 135.267419 
L 1141.583272 149.327194 
L 1142.046451 155.322066 
L 1142.509629 152.962713 
L 1142.972807 158.479397 
L 1143.435985 158.989171 
L 1143.899163 150.971929 
L 1144.362341 155.174601 
L 1144.82552 131.682551 
L 1145.288698 138.163648 
L 1146.215054 124.435718 
L 1146.678232 130.020715 
L 1147.14141 124.277879 
L 1147.604589 126.423137 
L 1148.067767 150.440474 
L 1148.530945 132.445577 
L 1148.994123 136.957665 
L 1149.457301 134.449631 
L 1149.920479 131.005313 
L 1150.383658 139.945663 
L 1150.846836 132.209707 
L 1151.310014 115.223426 
L 1151.773192 121.604063 
L 1152.699548 137.644342 
L 1153.162727 144.643811 
L 1153.625905 138.651835 
L 1154.089083 140.849332 
L 1154.552261 149.608855 
L 1155.015439 151.275924 
L 1155.478617 148.34596 
L 1155.941796 149.980882 
L 1156.404974 142.164559 
L 1156.868152 146.531985 
L 1157.794508 141.853368 
L 1158.257686 134.996785 
L 1158.720865 125.837667 
L 1159.184043 121.834139 
L 1160.110399 112.183563 
L 1160.573577 111.258119 
L 1161.036755 120.298928 
L 1161.499934 120.507324 
L 1161.963112 124.493003 
L 1162.42629 129.985577 
L 1163.352646 157.67114 
L 1163.815824 166.953053 
L 1164.279003 171.195908 
L 1164.742181 178.11501 
L 1165.205359 174.97207 
L 1165.668537 173.171272 
L 1166.131715 151.101732 
L 1166.594893 148.135602 
L 1167.058072 136.437517 
L 1167.984428 148.162048 
L 1168.447606 157.138563 
L 1168.910784 170.756315 
L 1169.373962 179.576114 
L 1169.837141 179.101383 
L 1170.300319 184.573865 
L 1170.763497 178.216217 
L 1171.226675 163.415938 
L 1171.689853 170.672583 
L 1172.153031 165.72137 
L 1172.61621 168.115768 
L 1173.079388 168.054931 
L 1173.542566 175.00618 
L 1174.005744 170.505026 
L 1174.468922 181.699691 
L 1174.9321 184.680773 
L 1175.395279 175.763412 
L 1175.858457 188.778406 
L 1176.321635 184.75544 
L 1176.784813 166.173859 
L 1177.247991 159.960873 
L 1177.711169 141.375273 
L 1178.174348 135.057808 
L 1178.637526 140.839706 
L 1179.100704 128.751838 
L 1179.563882 138.540068 
L 1180.02706 157.884021 
L 1180.490238 167.704397 
L 1180.953417 185.621823 
L 1181.416595 181.635023 
L 1181.879773 179.524809 
L 1182.342951 176.799782 
L 1182.806129 165.093661 
L 1183.732486 133.676792 
L 1184.195664 125.719825 
L 1184.658842 124.063689 
L 1186.048376 130.447224 
L 1186.511555 130.72795 
L 1186.974733 122.276722 
L 1187.437911 119.977644 
L 1187.901089 124.803166 
L 1188.364267 119.249195 
L 1188.827445 119.272744 
L 1189.290624 125.191267 
L 1189.753802 136.09259 
L 1190.21698 157.618527 
L 1190.680158 170.468767 
L 1191.143336 168.008953 
L 1191.606514 168.506673 
L 1192.532871 141.911868 
L 1192.996049 143.337834 
L 1193.459227 149.489424 
L 1193.922405 128.962943 
L 1194.385583 130.051366 
L 1194.848762 135.459553 
L 1195.775118 153.151389 
L 1196.238296 153.974597 
L 1196.701474 143.22887 
L 1197.164652 170.416714 
L 1197.627831 186.489701 
L 1198.091009 187.039659 
L 1198.554187 189.847951 
L 1199.017365 191.651645 
L 1199.480543 189.505266 
L 1199.943721 202.998448 
L 1200.4069 191.718276 
L 1200.870078 186.067863 
L 1201.333256 189.844586 
L 1201.796434 179.432386 
L 1202.72279 191.213174 
L 1203.185969 185.305585 
L 1203.649147 191.228126 
L 1204.575503 175.370451 
L 1205.038681 174.550139 
L 1205.501859 152.641334 
L 1206.428216 136.550592 
L 1206.891394 127.576974 
L 1207.354572 121.801991 
L 1207.81775 126.229693 
L 1208.280928 144.476626 
L 1208.744107 180.58127 
L 1209.207285 173.648992 
L 1210.133641 199.498153 
L 1210.596819 215.912702 
L 1211.059997 218.588387 
L 1211.523176 236.264709 
L 1211.986354 221.243419 
L 1212.91271 233.562578 
L 1213.375888 230.43104 
L 1213.839066 229.17207 
L 1214.302245 221.335001 
L 1214.765423 225.368246 
L 1215.228601 217.728078 
L 1216.154957 216.946642 
L 1216.618135 215.591231 
L 1217.081314 215.143975 
L 1217.544492 202.038801 
L 1218.00767 203.69718 
L 1218.934026 164.202045 
L 1219.397204 163.212961 
L 1219.860382 168.452377 
L 1220.323561 180.760135 
L 1220.786739 200.859545 
L 1221.249917 205.411816 
L 1222.176273 236.279942 
L 1222.639451 242.106042 
L 1223.10263 242.575632 
L 1223.565808 238.078497 
L 1224.028986 224.11806 
L 1224.955342 238.060741 
L 1225.41852 234.765103 
L 1225.881699 227.302398 
L 1226.344877 226.273131 
L 1226.808055 216.640497 
L 1227.271233 219.673818 
L 1228.660768 182.915953 
L 1229.123946 183.076127 
L 1229.587124 175.866581 
L 1230.050302 179.020454 
L 1230.51348 178.549742 
L 1230.976658 189.933271 
L 1231.439837 197.5797 
L 1231.903015 198.065364 
L 1232.366193 195.60555 
L 1232.829371 190.385105 
L 1233.292549 193.024625 
L 1233.755727 200.00802 
L 1234.218906 190.158394 
L 1234.682084 191.174485 
L 1235.145262 193.303669 
L 1235.60844 204.486279 
L 1236.071618 202.392138 
L 1236.534796 175.456331 
L 1236.997975 164.835174 
L 1237.461153 167.993066 
L 1237.924331 160.719225 
L 1238.387509 169.667612 
L 1238.850687 158.43566 
L 1239.313865 155.127967 
L 1239.777044 178.968495 
L 1240.240222 181.764731 
L 1241.166578 210.491057 
L 1241.629756 206.592661 
L 1242.556113 240.619238 
L 1243.019291 225.155925 
L 1243.482469 214.984828 
L 1243.945647 189.322849 
L 1244.408825 172.871013 
L 1244.872003 169.900865 
L 1245.335182 148.426045 
L 1245.79836 148.023646 
L 1246.261538 163.377341 
L 1247.187894 182.905579 
L 1247.651072 188.518705 
L 1248.114251 184.314911 
L 1248.577429 190.341931 
L 1249.040607 180.548562 
L 1249.503785 174.512384 
L 1249.966963 173.989433 
L 1250.89332 164.211577 
L 1251.356498 170.170283 
L 1251.819676 169.47856 
L 1252.282854 176.449901 
L 1252.746032 175.947041 
L 1253.20921 174.423512 
L 1253.672389 179.289218 
L 1254.135567 194.377699 
L 1254.598745 188.74336 
L 1255.061923 200.842162 
L 1255.525101 197.787628 
L 1255.988279 207.897328 
L 1256.451458 208.660261 
L 1257.377814 196.52763 
L 1257.840992 196.981147 
L 1258.30417 190.241751 
L 1258.767348 191.699865 
L 1259.230527 186.258409 
L 1259.693705 188.423758 
L 1260.156883 179.112596 
L 1260.620061 172.578138 
L 1261.083239 177.146483 
L 1261.546417 167.666548 
L 1262.009596 165.098238 
L 1262.472774 159.905922 
L 1262.935952 158.081014 
L 1263.39913 165.811829 
L 1263.862308 168.162024 
L 1264.325486 159.039726 
L 1264.788665 163.853192 
L 1265.251843 151.660846 
L 1265.715021 144.985745 
L 1266.178199 141.955321 
L 1266.641377 137.856006 
L 1267.104555 128.97481 
L 1267.567734 128.986305 
L 1268.030912 127.888724 
L 1268.49409 148.317642 
L 1269.420446 158.659848 
L 1269.883624 156.079483 
L 1270.346803 159.763783 
L 1270.809981 154.117389 
L 1271.273159 134.121336 
L 1272.199515 118.042649 
L 1272.662693 105.239508 
L 1273.125872 112.407749 
L 1273.58905 109.212571 
L 1274.052228 103.051824 
L 1274.515406 112.687354 
L 1274.978584 107.808472 
L 1275.441762 116.495663 
L 1275.904941 119.701775 
L 1276.368119 120.50891 
L 1276.831297 105.543877 
L 1277.294475 103.992219 
L 1277.757653 106.097293 
L 1278.220831 105.562287 
L 1278.68401 96.423915 
L 1279.147188 90.777521 
L 1279.610366 80.980133 
L 1280.073544 96.442325 
L 1280.536722 106.483713 
L 1280.9999 105.635272 
L 1281.463079 106.880411 
L 1281.926257 112.95967 
L 1282.389435 124.073967 
L 1283.315791 134.512614 
L 1283.778969 135.488521 
L 1284.705326 150.978281 
L 1285.168504 158.218853 
L 1285.631682 156.120695 
L 1286.558038 167.28667 
L 1287.021217 178.035294 
L 1287.947573 187.626061 
L 1288.410751 187.139276 
L 1288.873929 189.127817 
L 1289.337107 192.924631 
L 1289.800286 190.995245 
L 1290.263464 193.932125 
L 1290.726642 193.714571 
L 1291.18982 183.430959 
L 1291.652998 184.651988 
L 1292.116176 187.568776 
L 1292.579355 181.874161 
L 1293.042533 182.408046 
L 1293.505711 180.052711 
L 1293.968889 183.266859 
L 1294.432067 191.339237 
L 1294.895245 195.574056 
L 1295.358424 193.853626 
L 1295.821602 197.087867 
L 1296.747958 190.376039 
L 1297.211136 179.405283 
L 1297.674314 183.081546 
L 1298.137493 173.854769 
L 1298.600671 174.248011 
L 1299.527027 165.816314 
L 1299.990205 156.854751 
L 1300.453383 152.341542 
L 1300.916562 142.528081 
L 1301.37974 142.897211 
L 1301.842918 140.610189 
L 1302.306096 135.52235 
L 1302.769274 139.186558 
L 1303.232452 144.164779 
L 1303.695631 147.760674 
L 1304.158809 142.849645 
L 1304.621987 133.454096 
L 1305.085165 119.919609 
L 1305.548343 112.762301 
L 1306.011521 110.250249 
L 1306.4747 112.182532 
L 1306.937878 116.582105 
L 1307.401056 112.410459 
L 1307.864234 117.537359 
L 1308.327412 120.285375 
L 1308.79059 126.959355 
L 1309.253769 131.704509 
L 1309.716947 130.691315 
L 1310.180125 127.09028 
L 1311.106481 147.844126 
L 1311.569659 174.18409 
L 1312.032838 187.765676 
L 1312.496016 181.456249 
L 1313.422372 189.238742 
L 1313.88555 178.967185 
L 1314.348728 174.895999 
L 1315.275085 128.824073 
L 1315.738263 126.778154 
L 1316.664619 105.379123 
L 1317.127797 102.634004 
L 1317.590975 102.352156 
L 1318.054154 107.250009 
L 1318.517332 114.112853 
L 1318.98051 116.000934 
L 1319.443688 116.345954 
L 1319.906866 133.146269 
L 1320.370044 143.107289 
L 1320.833223 140.478703 
L 1321.296401 140.883999 
L 1321.759579 147.220434 
L 1322.222757 127.987875 
L 1322.685935 131.58377 
L 1323.149113 118.684188 
L 1323.612292 116.987868 
L 1324.07547 113.704285 
L 1324.538648 121.615928 
L 1325.001826 120.791598 
L 1325.465004 150.000691 
L 1325.928182 140.074715 
L 1326.391361 136.493771 
L 1326.854539 141.488065 
L 1327.317717 137.995527 
L 1327.780895 131.139598 
L 1328.707251 130.793456 
L 1329.17043 122.928913 
L 1329.633608 128.473726 
L 1330.096786 136.377332 
L 1330.559964 126.41519 
L 1331.023142 133.491009 
L 1331.48632 136.122491 
L 1331.949499 147.264917 
L 1332.412677 150.913051 
L 1332.875855 150.426266 
L 1333.339033 152.350512 
L 1333.802211 159.9005 
L 1334.265389 156.363759 
L 1334.728568 156.809239 
L 1335.191746 143.114017 
L 1335.654924 139.070959 
L 1336.118102 136.964764 
L 1336.58128 143.859755 
L 1337.044458 139.213939 
L 1337.507637 152.863838 
L 1337.970815 146.670943 
L 1338.433993 150.471776 
L 1338.897171 158.150353 
L 1339.360349 158.62798 
L 1339.823527 145.816802 
L 1340.286706 153.804794 
L 1340.749884 143.163546 
L 1341.213062 151.473009 
L 1341.67624 142.017184 
L 1342.139418 135.080888 
L 1342.602596 136.71581 
L 1343.065775 150.048257 
L 1343.528953 148.460433 
L 1344.455309 156.411699 
L 1344.918487 173.288363 
L 1345.381665 172.3475 
L 1345.844844 186.624267 
L 1346.308022 188.528422 
L 1346.7712 184.139783 
L 1347.234378 182.985945 
L 1348.160734 165.80622 
L 1348.623913 175.775277 
L 1349.087091 165.330929 
L 1349.550269 165.712115 
L 1350.013447 161.480193 
L 1350.476625 150.553639 
L 1350.939803 132.582853 
L 1351.402982 126.277443 
L 1351.86616 114.836536 
L 1352.329338 119.276292 
L 1352.792516 99.714225 
L 1353.255694 97.403092 
L 1353.718872 110.671244 
L 1354.182051 132.884325 
L 1354.645229 139.948088 
L 1355.108407 149.563527 
L 1355.571585 145.645039 
L 1356.034763 153.223156 
L 1356.96112 193.490288 
L 1357.424298 177.661302 
L 1357.887476 181.000021 
L 1358.350654 178.166497 
L 1358.813832 172.620563 
L 1359.27701 164.792185 
L 1359.740189 153.278946 
L 1360.203367 120.709361 
L 1360.666545 126.121567 
L 1361.129723 123.404577 
L 1361.592901 129.905766 
L 1362.519258 170.586792 
L 1362.982436 168.733755 
L 1363.908792 192.879119 
L 1364.37197 192.745952 
L 1364.835148 183.197704 
L 1365.298327 164.085696 
L 1365.761505 159.118409 
L 1366.224683 162.055289 
L 1366.687861 165.984711 
L 1367.151039 167.844663 
L 1367.614217 176.150108 
L 1368.077396 186.545114 
L 1368.540574 189.606564 
L 1369.003752 176.051985 
L 1369.46693 170.043936 
L 1369.930108 160.146088 
L 1370.393286 154.531841 
L 1370.856465 134.041527 
L 1371.319643 133.787808 
L 1372.709177 162.71851 
L 1373.172355 162.484883 
L 1373.635534 166.305808 
L 1374.098712 183.009681 
L 1374.56189 185.223251 
L 1375.488246 182.031531 
L 1375.951424 185.261753 
L 1376.414603 197.493162 
L 1376.877781 201.326142 
L 1377.340959 213.818745 
L 1377.804137 215.895691 
L 1378.267315 212.796954 
L 1378.730493 222.838342 
L 1379.193672 214.431316 
L 1380.120028 171.144132 
L 1380.583206 162.246863 
L 1381.046384 156.090134 
L 1381.972741 167.135558 
L 1382.435919 178.08912 
L 1382.899097 206.237358 
L 1383.362275 242.699638 
L 1383.825453 249.534354 
L 1384.288631 254.022331 
L 1384.75181 253.097541 
L 1385.214988 238.413795 
L 1385.678166 237.673851 
L 1386.141344 230.685316 
L 1386.604522 206.56238 
L 1387.0677 197.126647 
L 1387.994057 214.806427 
L 1388.457235 214.974639 
L 1388.920413 203.738669 
L 1389.383591 210.255931 
L 1389.846769 228.731913 
L 1390.773126 201.072236 
L 1391.236304 204.913253 
L 1391.699482 209.963804 
L 1392.16266 221.841594 
L 1393.089017 207.506888 
L 1393.552195 227.750959 
L 1394.015373 224.407101 
L 1394.478551 207.191771 
L 1394.941729 210.5546 
L 1396.794442 187.832399 
L 1397.720798 191.226814 
L 1398.183976 180.605657 
L 1398.647155 175.095888 
L 1399.573511 167.732989 
L 1400.036689 172.356937 
L 1400.499867 172.637009 
L 1400.963045 179.487144 
L 1401.426224 179.518076 
L 1402.35258 204.232743 
L 1402.815758 229.037684 
L 1403.278936 222.057185 
L 1403.742114 207.879756 
L 1404.205293 201.79134 
L 1404.668471 203.635218 
L 1405.131649 190.076621 
L 1405.594827 183.919892 
L 1406.058005 180.053643 
L 1406.521183 181.13001 
L 1406.984362 195.491163 
L 1407.44754 195.036525 
L 1407.910718 193.842503 
L 1408.373896 196.100276 
L 1408.837074 200.600308 
L 1409.300252 186.740332 
L 1409.763431 178.469931 
L 1410.226609 175.584169 
L 1410.689787 164.199518 
L 1411.152965 165.316069 
L 1411.616143 162.856256 
L 1412.079321 161.011256 
L 1412.5425 153.536496 
L 1413.005678 156.822975 
L 1413.468856 156.08705 
L 1414.395212 169.672655 
L 1414.85839 168.972895 
L 1415.321568 190.768064 
L 1415.784747 197.056278 
L 1416.247925 209.45244 
L 1417.174281 225.61327 
L 1417.637459 222.104658 
L 1418.100637 214.40085 
L 1418.563816 191.10972 
L 1419.026994 184.675722 
L 1419.490172 182.98342 
L 1419.95335 171.900149 
L 1420.416528 154.616507 
L 1420.879706 155.419624 
L 1421.342885 167.116587 
L 1421.806063 163.571809 
L 1422.269241 146.436847 
L 1422.732419 134.899498 
L 1423.195597 132.72499 
L 1423.658775 134.26749 
L 1424.121954 129.272075 
L 1424.585132 128.88173 
L 1425.04831 132.164192 
L 1426.437844 163.485834 
L 1426.901023 167.756818 
L 1427.364201 179.236789 
L 1427.827379 168.253977 
L 1428.290557 170.242518 
L 1428.753735 170.655851 
L 1429.216913 167.376286 
L 1429.680092 157.82402 
L 1430.14327 153.04158 
L 1430.606448 139.679883 
L 1431.069626 138.815369 
L 1431.532804 152.324625 
L 1431.995982 141.844111 
L 1432.459161 137.029523 
L 1432.922339 144.563438 
L 1433.385517 132.716673 
L 1433.848695 127.520338 
L 1434.311873 123.979579 
L 1434.775051 108.793534 
L 1435.23823 116.42389 
L 1435.701408 112.867057 
L 1436.164586 103.24246 
L 1436.627764 107.429058 
L 1437.090942 110.016339 
L 1437.55412 117.859669 
L 1438.017299 116.774144 
L 1438.480477 116.934319 
L 1439.406833 123.217954 
L 1439.870011 114.863167 
L 1440.333189 110.293701 
L 1440.796368 86.813706 
L 1441.259546 82.131725 
L 1442.185902 70.288418 
L 1442.64908 69.263169 
L 1443.112258 89.318376 
L 1443.575437 81.441778 
L 1444.038615 97.832216 
L 1444.501793 82.887275 
L 1444.964971 86.029093 
L 1445.428149 93.394235 
L 1445.891327 88.615813 
L 1446.354506 78.617506 
L 1446.817684 95.409783 
L 1447.280862 104.936817 
L 1447.74404 131.935797 
L 1448.207218 140.831945 
L 1448.670396 143.973762 
L 1449.133575 145.825678 
L 1449.596753 153.411831 
L 1450.523109 158.100728 
L 1450.986287 153.26203 
L 1451.449465 140.322264 
L 1451.912644 135.965772 
L 1452.375822 129.64027 
L 1452.839 137.756851 
L 1453.302178 137.35847 
L 1453.765356 128.099546 
L 1454.228534 132.450898 
L 1454.691713 150.770163 
L 1455.154891 145.340761 
L 1455.618069 147.164548 
L 1456.081247 139.529053 
L 1456.544425 124.86138 
L 1457.007603 115.007736 
L 1457.470782 113.014055 
L 1457.93396 102.489339 
L 1459.323494 128.80809 
L 1460.249851 161.83409 
L 1460.713029 152.048757 
L 1461.176207 150.006856 
L 1461.639385 150.078626 
L 1462.102563 145.376553 
L 1462.565741 145.609059 
L 1463.02892 144.684269 
L 1463.492098 141.223877 
L 1463.955276 144.072353 
L 1464.418454 137.75087 
L 1464.881632 135.4317 
L 1465.34481 140.317497 
L 1465.807989 139.364579 
L 1466.271167 136.892711 
L 1466.734345 136.522458 
L 1467.197523 141.802058 
L 1467.660701 159.345773 
L 1468.123879 167.42217 
L 1468.587058 167.035844 
L 1469.050236 156.462908 
L 1469.976592 156.276847 
L 1470.902948 173.814676 
L 1471.366127 174.066619 
L 1471.829305 168.978127 
L 1472.292483 165.657724 
L 1472.755661 175.027387 
L 1473.218839 188.480386 
L 1473.682017 182.387951 
L 1474.145196 187.446539 
L 1474.608374 184.596942 
L 1475.071552 183.535527 
L 1475.53473 185.588362 
L 1475.997908 193.443747 
L 1476.461086 186.913308 
L 1476.924265 190.328376 
L 1477.387443 190.468459 
L 1477.850621 199.895034 
L 1478.313799 201.59425 
L 1478.776977 199.488055 
L 1479.240155 193.283105 
L 1479.703334 192.784265 
L 1480.166512 203.235528 
L 1480.62969 182.725121 
L 1481.092868 170.613143 
L 1481.556046 169.69639 
L 1482.019224 170.752665 
L 1482.482403 170.551185 
L 1482.945581 177.602893 
L 1483.871937 170.984049 
L 1484.335115 184.059319 
L 1484.798293 187.189081 
L 1485.261472 188.715508 
L 1485.72465 193.846427 
L 1486.187828 193.371696 
L 1486.651006 186.80911 
L 1487.114184 184.976165 
L 1487.577362 183.66561 
L 1488.040541 184.115109 
L 1488.503719 185.737976 
L 1488.966897 190.627792 
L 1489.430075 192.182347 
L 1489.893253 188.963059 
L 1490.81961 169.938895 
L 1491.282788 165.86369 
L 1491.745966 163.870009 
L 1492.209144 157.516379 
L 1492.672322 155.659324 
L 1493.1355 157.65992 
L 1494.061857 177.939596 
L 1494.525035 179.466022 
L 1494.988213 181.900604 
L 1495.451391 175.494735 
L 1495.914569 174.429302 
L 1496.840926 181.962655 
L 1497.304104 193.75606 
L 1497.767282 197.392139 
L 1498.23046 186.734817 
L 1498.693638 180.369131 
L 1499.156817 187.810623 
L 1499.619995 193.106296 
L 1500.083173 183.775041 
L 1500.546351 163.67451 
L 1501.009529 149.927048 
L 1501.472707 142.094652 
L 1502.399064 129.909782 
L 1502.862242 120.176688 
L 1503.32542 118.134787 
L 1503.788598 119.416092 
L 1504.251776 129.144045 
L 1504.714955 143.465015 
L 1505.178133 162.760747 
L 1506.104489 166.327953 
L 1506.567667 162.638514 
L 1507.494024 126.291084 
L 1507.957202 119.571781 
L 1508.883558 100.567709 
L 1509.346736 93.330033 
L 1509.809914 103.44777 
L 1510.273093 125.025946 
L 1510.736271 140.267127 
L 1511.199449 139.257951 
L 1511.662627 126.000732 
L 1512.125805 139.739036 
L 1512.588983 133.956017 
L 1513.052161 122.133362 
L 1513.51534 132.407816 
L 1513.978518 131.169592 
L 1514.441696 134.415888 
L 1514.904874 162.391336 
L 1515.368052 148.350532 
L 1515.83123 146.847095 
L 1516.294409 148.602569 
L 1516.757587 138.467637 
L 1517.220765 144.538858 
L 1517.683943 152.45452 
L 1518.147121 156.813909 
L 1518.610299 165.259997 
L 1519.073478 186.484555 
L 1519.536656 199.724578 
L 1519.999834 198.265343 
L 1521.389368 142.978696 
L 1521.852547 137.030923 
L 1522.315725 121.005036 
L 1522.778903 110.40799 
L 1523.242081 102.543446 
L 1523.705259 96.571563 
L 1524.168437 99.568719 
L 1524.631616 108.428701 
L 1525.094794 106.816767 
L 1525.557972 103.034904 
L 1526.02115 104.376485 
L 1526.484328 99.537786 
L 1526.947506 119.67738 
L 1527.410685 128.66595 
L 1527.873863 120.576377 
L 1528.337041 119.406466 
L 1528.800219 130.665425 
L 1529.263397 133.280834 
L 1529.726575 154.915267 
L 1530.189754 147.93075 
L 1530.652932 137.755635 
L 1531.11611 132.326233 
L 1531.579288 134.861275 
L 1532.042466 140.217223 
L 1532.505644 142.077176 
L 1532.968823 145.504299 
L 1533.432001 157.325832 
L 1534.358357 171.180108 
L 1534.821535 160.048616 
L 1535.284713 152.505543 
L 1535.747892 142.382667 
L 1536.21107 142.502657 
L 1536.674248 138.893585 
L 1537.600604 155.817909 
L 1538.063782 177.094706 
L 1538.526961 183.206112 
L 1538.990139 195.863469 
L 1539.453317 184.237716 
L 1539.916495 201.158581 
L 1540.379673 201.575933 
L 1540.842851 203.001899 
L 1541.30603 201.225212 
L 1541.769208 202.844061 
L 1542.232386 210.321718 
L 1542.695564 226.025013 
L 1543.158742 222.713301 
L 1543.62192 238.537147 
L 1544.548277 250.908639 
L 1545.011455 254.323707 
L 1545.474633 254.391459 
L 1545.937811 249.460337 
L 1546.400989 251.862772 
L 1546.864168 246.469536 
L 1547.327346 246.45692 
L 1547.790524 245.311119 
L 1548.253702 249.059714 
L 1548.71688 238.95291 
L 1549.180058 233.539583 
L 1549.643237 232.691142 
L 1550.106415 225.69457 
L 1550.569593 215.776631 
L 1551.032771 215.715795 
L 1551.495949 213.372514 
L 1551.959127 222.288754 
L 1552.422306 224.442048 
L 1552.885484 215.898397 
L 1553.348662 216.601054 
L 1553.81184 231.524782 
L 1554.275018 224.025912 
L 1554.738196 218.391573 
L 1555.201375 221.436949 
L 1555.664553 213.548295 
L 1556.127731 210.622349 
L 1556.590909 214.949591 
L 1556.590909 214.949591 
" clip-path="url(#pdf06b7392c)" style="fill: none; stroke: #f45cf2; stroke-width: 2.5; stroke-linecap: square"/>
   </g>
   <g id="patch_3">
    <path d="M 225 320.4 
L 225 43.2 
" style="fill: none; stroke: #000000; stroke-width: 0.8; stroke-linejoin: miter; stroke-linecap: square"/>
   </g>
   <g id="patch_4">
    <path d="M 1620 320.4 
L 1620 43.2 
" style="fill: none; stroke: #000000; stroke-width: 0.8; stroke-linejoin: miter; stroke-linecap: square"/>
   </g>
   <g id="patch_5">
    <path d="M 225 320.4 
L 1620 320.4 
" style="fill: none; stroke: #000000; stroke-width: 0.8; stroke-linejoin: miter; stroke-linecap: square"/>
   </g>
   <g id="patch_6">
    <path d="M 225 43.2 
L 1620 43.2 
" style="fill: none; stroke: #000000; stroke-width: 0.8; stroke-linejoin: miter; stroke-linecap: square"/>
   </g>
   <g id="text_16">
    <!-- PARR -->
    <g transform="translate(896.370312 37.2) scale(0.2 -0.2)">
     <defs>
      <path id="DejaVuSans-50" d="M 1259 4147 
L 1259 2394 
L 2053 2394 
Q 2494 2394 2734 2622 
Q 2975 2850 2975 3272 
Q 2975 3691 2734 3919 
Q 2494 4147 2053 4147 
L 1259 4147 
z
M 628 4666 
L 2053 4666 
Q 2838 4666 3239 4311 
Q 3641 3956 3641 3272 
Q 3641 2581 3239 2228 
Q 2838 1875 2053 1875 
L 1259 1875 
L 1259 0 
L 628 0 
L 628 4666 
z
" transform="scale(0.015625)"/>
      <path id="DejaVuSans-41" d="M 2188 4044 
L 1331 1722 
L 3047 1722 
L 2188 4044 
z
M 1831 4666 
L 2547 4666 
L 4325 0 
L 3669 0 
L 3244 1197 
L 1141 1197 
L 716 0 
L 50 0 
L 1831 4666 
z
" transform="scale(0.015625)"/>
      <path id="DejaVuSans-52" d="M 2841 2188 
Q 3044 2119 3236 1894 
Q 3428 1669 3622 1275 
L 4263 0 
L 3584 0 
L 2988 1197 
Q 2756 1666 2539 1819 
Q 2322 1972 1947 1972 
L 1259 1972 
L 1259 0 
L 628 0 
L 628 4666 
L 2053 4666 
Q 2853 4666 3247 4331 
Q 3641 3997 3641 3322 
Q 3641 2881 3436 2590 
Q 3231 2300 2841 2188 
z
M 1259 4147 
L 1259 2491 
L 2053 2491 
Q 2509 2491 2742 2702 
Q 2975 2913 2975 3322 
Q 2975 3731 2742 3939 
Q 2509 4147 2053 4147 
L 1259 4147 
z
" transform="scale(0.015625)"/>
     </defs>
     <use xlink:href="#DejaVuSans-50"/>
     <use xlink:href="#DejaVuSans-41" x="53.927734"/>
     <use xlink:href="#DejaVuSans-52" x="122.335938"/>
     <use xlink:href="#DejaVuSans-52" x="191.818359"/>
    </g>
   </g>
   <g id="legend_1">
    <g id="patch_7">
     <path d="M 1560.476562 65.878125 
L 1613 65.878125 
Q 1615 65.878125 1615 63.878125 
L 1615 50.2 
Q 1615 48.2 1613 48.2 
L 1560.476562 48.2 
Q 1558.476562 48.2 1558.476562 50.2 
L 1558.476562 63.878125 
Q 1558.476562 65.878125 1560.476562 65.878125 
z
" style="fill: #ffffff; opacity: 0.8; stroke: #cccccc; stroke-linejoin: miter"/>
    </g>
    <g id="line2d_15">
     <path d="M 1562.476562 56.298437 
L 1572.476562 56.298437 
L 1582.476562 56.298437 
" style="fill: none; stroke: #f45cf2; stroke-width: 2.5; stroke-linecap: square"/>
    </g>
    <g id="text_17">
     <!-- parr -->
     <g transform="translate(1590.476562 59.798437) scale(0.1 -0.1)">
      <defs>
       <path id="DejaVuSans-70" d="M 1159 525 
L 1159 -1331 
L 581 -1331 
L 581 3500 
L 1159 3500 
L 1159 2969 
Q 1341 3281 1617 3432 
Q 1894 3584 2278 3584 
Q 2916 3584 3314 3078 
Q 3713 2572 3713 1747 
Q 3713 922 3314 415 
Q 2916 -91 2278 -91 
Q 1894 -91 1617 61 
Q 1341 213 1159 525 
z
M 3116 1747 
Q 3116 2381 2855 2742 
Q 2594 3103 2138 3103 
Q 1681 3103 1420 2742 
Q 1159 2381 1159 1747 
Q 1159 1113 1420 752 
Q 1681 391 2138 391 
Q 2594 391 2855 752 
Q 3116 1113 3116 1747 
z
" transform="scale(0.015625)"/>
       <path id="DejaVuSans-72" d="M 2631 2963 
Q 2534 3019 2420 3045 
Q 2306 3072 2169 3072 
Q 1681 3072 1420 2755 
Q 1159 2438 1159 1844 
L 1159 0 
L 581 0 
L 581 3500 
L 1159 3500 
L 1159 2956 
Q 1341 3275 1631 3429 
Q 1922 3584 2338 3584 
Q 2397 3584 2469 3576 
Q 2541 3569 2628 3553 
L 2631 2963 
z
" transform="scale(0.015625)"/>
      </defs>
      <use xlink:href="#DejaVuSans-70"/>
      <use xlink:href="#DejaVuSans-61" x="63.476562"/>
      <use xlink:href="#DejaVuSans-72" x="124.755859"/>
      <use xlink:href="#DejaVuSans-72" x="164.119141"/>
     </g>
    </g>
   </g>
  </g>
 </g>
 <defs>
  <clipPath id="pdf06b7392c">
   <rect x="225" y="43.2" width="1395" height="277.2"/>
  </clipPath>
 </defs>
</svg>
