<?xml version="1.0" encoding="utf-8" standalone="no"?>
<!DOCTYPE svg PUBLIC "-//W3C//DTD SVG 1.1//EN"
  "http://www.w3.org/Graphics/SVG/1.1/DTD/svg11.dtd">
<svg xmlns:xlink="http://www.w3.org/1999/xlink" width="1800pt" height="360pt" viewBox="0 0 1800 360" xmlns="http://www.w3.org/2000/svg" version="1.1">
 <metadata>
  <rdf:RDF xmlns:dc="http://purl.org/dc/elements/1.1/" xmlns:cc="http://creativecommons.org/ns#" xmlns:rdf="http://www.w3.org/1999/02/22-rdf-syntax-ns#">
   <cc:Work>
    <dc:type rdf:resource="http://purl.org/dc/dcmitype/StillImage"/>
    <dc:date>2024-03-07T16:59:30.752249</dc:date>
    <dc:format>image/svg+xml</dc:format>
    <dc:creator>
     <cc:Agent>
      <dc:title>Matplotlib v3.7.2, https://matplotlib.org/</dc:title>
     </cc:Agent>
    </dc:creator>
   </cc:Work>
  </rdf:RDF>
 </metadata>
 <defs>
  <style type="text/css">*{stroke-linejoin: round; stroke-linecap: butt}</style>
 </defs>
 <g id="figure_1">
  <g id="patch_1">
   <path d="M 0 360 
L 1800 360 
L 1800 0 
L 0 0 
z
" style="fill: #ffffff"/>
  </g>
  <g id="axes_1">
   <g id="patch_2">
    <path d="M 225 320.4 
L 1620 320.4 
L 1620 43.2 
L 225 43.2 
z
" style="fill: #ffffff"/>
   </g>
   <g id="matplotlib.axis_1">
    <g id="xtick_1">
     <g id="line2d_1">
      <defs>
       <path id="m90e0b3d4d1" d="M 0 0 
L 0 3.5 
" style="stroke: #000000; stroke-width: 0.8"/>
      </defs>
      <g>
       <use xlink:href="#m90e0b3d4d1" x="281.924597" y="320.4" style="stroke: #000000; stroke-width: 0.8"/>
      </g>
     </g>
     <g id="text_1">
      <!-- 2011 -->
      <g transform="translate(262.837097 338.797656) scale(0.15 -0.15)">
       <defs>
        <path id="DejaVuSans-32" d="M 1228 531 
L 3431 531 
L 3431 0 
L 469 0 
L 469 531 
Q 828 903 1448 1529 
Q 2069 2156 2228 2338 
Q 2531 2678 2651 2914 
Q 2772 3150 2772 3378 
Q 2772 3750 2511 3984 
Q 2250 4219 1831 4219 
Q 1534 4219 1204 4116 
Q 875 4013 500 3803 
L 500 4441 
Q 881 4594 1212 4672 
Q 1544 4750 1819 4750 
Q 2544 4750 2975 4387 
Q 3406 4025 3406 3419 
Q 3406 3131 3298 2873 
Q 3191 2616 2906 2266 
Q 2828 2175 2409 1742 
Q 1991 1309 1228 531 
z
" transform="scale(0.015625)"/>
        <path id="DejaVuSans-30" d="M 2034 4250 
Q 1547 4250 1301 3770 
Q 1056 3291 1056 2328 
Q 1056 1369 1301 889 
Q 1547 409 2034 409 
Q 2525 409 2770 889 
Q 3016 1369 3016 2328 
Q 3016 3291 2770 3770 
Q 2525 4250 2034 4250 
z
M 2034 4750 
Q 2819 4750 3233 4129 
Q 3647 3509 3647 2328 
Q 3647 1150 3233 529 
Q 2819 -91 2034 -91 
Q 1250 -91 836 529 
Q 422 1150 422 2328 
Q 422 3509 836 4129 
Q 1250 4750 2034 4750 
z
" transform="scale(0.015625)"/>
        <path id="DejaVuSans-31" d="M 794 531 
L 1825 531 
L 1825 4091 
L 703 3866 
L 703 4441 
L 1819 4666 
L 2450 4666 
L 2450 531 
L 3481 531 
L 3481 0 
L 794 0 
L 794 531 
z
" transform="scale(0.015625)"/>
       </defs>
       <use xlink:href="#DejaVuSans-32"/>
       <use xlink:href="#DejaVuSans-30" x="63.623047"/>
       <use xlink:href="#DejaVuSans-31" x="127.246094"/>
       <use xlink:href="#DejaVuSans-31" x="190.869141"/>
      </g>
     </g>
    </g>
    <g id="xtick_2">
     <g id="line2d_2">
      <g>
       <use xlink:href="#m90e0b3d4d1" x="450.984627" y="320.4" style="stroke: #000000; stroke-width: 0.8"/>
      </g>
     </g>
     <g id="text_2">
      <!-- 2012 -->
      <g transform="translate(431.897127 338.797656) scale(0.15 -0.15)">
       <use xlink:href="#DejaVuSans-32"/>
       <use xlink:href="#DejaVuSans-30" x="63.623047"/>
       <use xlink:href="#DejaVuSans-31" x="127.246094"/>
       <use xlink:href="#DejaVuSans-32" x="190.869141"/>
      </g>
     </g>
    </g>
    <g id="xtick_3">
     <g id="line2d_3">
      <g>
       <use xlink:href="#m90e0b3d4d1" x="620.507836" y="320.4" style="stroke: #000000; stroke-width: 0.8"/>
      </g>
     </g>
     <g id="text_3">
      <!-- 2013 -->
      <g transform="translate(601.420336 338.797656) scale(0.15 -0.15)">
       <defs>
        <path id="DejaVuSans-33" d="M 2597 2516 
Q 3050 2419 3304 2112 
Q 3559 1806 3559 1356 
Q 3559 666 3084 287 
Q 2609 -91 1734 -91 
Q 1441 -91 1130 -33 
Q 819 25 488 141 
L 488 750 
Q 750 597 1062 519 
Q 1375 441 1716 441 
Q 2309 441 2620 675 
Q 2931 909 2931 1356 
Q 2931 1769 2642 2001 
Q 2353 2234 1838 2234 
L 1294 2234 
L 1294 2753 
L 1863 2753 
Q 2328 2753 2575 2939 
Q 2822 3125 2822 3475 
Q 2822 3834 2567 4026 
Q 2313 4219 1838 4219 
Q 1578 4219 1281 4162 
Q 984 4106 628 3988 
L 628 4550 
Q 988 4650 1302 4700 
Q 1616 4750 1894 4750 
Q 2613 4750 3031 4423 
Q 3450 4097 3450 3541 
Q 3450 3153 3228 2886 
Q 3006 2619 2597 2516 
z
" transform="scale(0.015625)"/>
       </defs>
       <use xlink:href="#DejaVuSans-32"/>
       <use xlink:href="#DejaVuSans-30" x="63.623047"/>
       <use xlink:href="#DejaVuSans-31" x="127.246094"/>
       <use xlink:href="#DejaVuSans-33" x="190.869141"/>
      </g>
     </g>
    </g>
    <g id="xtick_4">
     <g id="line2d_4">
      <g>
       <use xlink:href="#m90e0b3d4d1" x="789.567866" y="320.4" style="stroke: #000000; stroke-width: 0.8"/>
      </g>
     </g>
     <g id="text_4">
      <!-- 2014 -->
      <g transform="translate(770.480366 338.797656) scale(0.15 -0.15)">
       <defs>
        <path id="DejaVuSans-34" d="M 2419 4116 
L 825 1625 
L 2419 1625 
L 2419 4116 
z
M 2253 4666 
L 3047 4666 
L 3047 1625 
L 3713 1625 
L 3713 1100 
L 3047 1100 
L 3047 0 
L 2419 0 
L 2419 1100 
L 313 1100 
L 313 1709 
L 2253 4666 
z
" transform="scale(0.015625)"/>
       </defs>
       <use xlink:href="#DejaVuSans-32"/>
       <use xlink:href="#DejaVuSans-30" x="63.623047"/>
       <use xlink:href="#DejaVuSans-31" x="127.246094"/>
       <use xlink:href="#DejaVuSans-34" x="190.869141"/>
      </g>
     </g>
    </g>
    <g id="xtick_5">
     <g id="line2d_5">
      <g>
       <use xlink:href="#m90e0b3d4d1" x="958.627897" y="320.4" style="stroke: #000000; stroke-width: 0.8"/>
      </g>
     </g>
     <g id="text_5">
      <!-- 2015 -->
      <g transform="translate(939.540397 338.797656) scale(0.15 -0.15)">
       <defs>
        <path id="DejaVuSans-35" d="M 691 4666 
L 3169 4666 
L 3169 4134 
L 1269 4134 
L 1269 2991 
Q 1406 3038 1543 3061 
Q 1681 3084 1819 3084 
Q 2600 3084 3056 2656 
Q 3513 2228 3513 1497 
Q 3513 744 3044 326 
Q 2575 -91 1722 -91 
Q 1428 -91 1123 -41 
Q 819 9 494 109 
L 494 744 
Q 775 591 1075 516 
Q 1375 441 1709 441 
Q 2250 441 2565 725 
Q 2881 1009 2881 1497 
Q 2881 1984 2565 2268 
Q 2250 2553 1709 2553 
Q 1456 2553 1204 2497 
Q 953 2441 691 2322 
L 691 4666 
z
" transform="scale(0.015625)"/>
       </defs>
       <use xlink:href="#DejaVuSans-32"/>
       <use xlink:href="#DejaVuSans-30" x="63.623047"/>
       <use xlink:href="#DejaVuSans-31" x="127.246094"/>
       <use xlink:href="#DejaVuSans-35" x="190.869141"/>
      </g>
     </g>
    </g>
    <g id="xtick_6">
     <g id="line2d_6">
      <g>
       <use xlink:href="#m90e0b3d4d1" x="1127.687927" y="320.4" style="stroke: #000000; stroke-width: 0.8"/>
      </g>
     </g>
     <g id="text_6">
      <!-- 2016 -->
      <g transform="translate(1108.600427 338.797656) scale(0.15 -0.15)">
       <defs>
        <path id="DejaVuSans-36" d="M 2113 2584 
Q 1688 2584 1439 2293 
Q 1191 2003 1191 1497 
Q 1191 994 1439 701 
Q 1688 409 2113 409 
Q 2538 409 2786 701 
Q 3034 994 3034 1497 
Q 3034 2003 2786 2293 
Q 2538 2584 2113 2584 
z
M 3366 4563 
L 3366 3988 
Q 3128 4100 2886 4159 
Q 2644 4219 2406 4219 
Q 1781 4219 1451 3797 
Q 1122 3375 1075 2522 
Q 1259 2794 1537 2939 
Q 1816 3084 2150 3084 
Q 2853 3084 3261 2657 
Q 3669 2231 3669 1497 
Q 3669 778 3244 343 
Q 2819 -91 2113 -91 
Q 1303 -91 875 529 
Q 447 1150 447 2328 
Q 447 3434 972 4092 
Q 1497 4750 2381 4750 
Q 2619 4750 2861 4703 
Q 3103 4656 3366 4563 
z
" transform="scale(0.015625)"/>
       </defs>
       <use xlink:href="#DejaVuSans-32"/>
       <use xlink:href="#DejaVuSans-30" x="63.623047"/>
       <use xlink:href="#DejaVuSans-31" x="127.246094"/>
       <use xlink:href="#DejaVuSans-36" x="190.869141"/>
      </g>
     </g>
    </g>
    <g id="xtick_7">
     <g id="line2d_7">
      <g>
       <use xlink:href="#m90e0b3d4d1" x="1297.211136" y="320.4" style="stroke: #000000; stroke-width: 0.8"/>
      </g>
     </g>
     <g id="text_7">
      <!-- 2017 -->
      <g transform="translate(1278.123636 338.797656) scale(0.15 -0.15)">
       <defs>
        <path id="DejaVuSans-37" d="M 525 4666 
L 3525 4666 
L 3525 4397 
L 1831 0 
L 1172 0 
L 2766 4134 
L 525 4134 
L 525 4666 
z
" transform="scale(0.015625)"/>
       </defs>
       <use xlink:href="#DejaVuSans-32"/>
       <use xlink:href="#DejaVuSans-30" x="63.623047"/>
       <use xlink:href="#DejaVuSans-31" x="127.246094"/>
       <use xlink:href="#DejaVuSans-37" x="190.869141"/>
      </g>
     </g>
    </g>
    <g id="xtick_8">
     <g id="line2d_8">
      <g>
       <use xlink:href="#m90e0b3d4d1" x="1466.271167" y="320.4" style="stroke: #000000; stroke-width: 0.8"/>
      </g>
     </g>
     <g id="text_8">
      <!-- 2018 -->
      <g transform="translate(1447.183667 338.797656) scale(0.15 -0.15)">
       <defs>
        <path id="DejaVuSans-38" d="M 2034 2216 
Q 1584 2216 1326 1975 
Q 1069 1734 1069 1313 
Q 1069 891 1326 650 
Q 1584 409 2034 409 
Q 2484 409 2743 651 
Q 3003 894 3003 1313 
Q 3003 1734 2745 1975 
Q 2488 2216 2034 2216 
z
M 1403 2484 
Q 997 2584 770 2862 
Q 544 3141 544 3541 
Q 544 4100 942 4425 
Q 1341 4750 2034 4750 
Q 2731 4750 3128 4425 
Q 3525 4100 3525 3541 
Q 3525 3141 3298 2862 
Q 3072 2584 2669 2484 
Q 3125 2378 3379 2068 
Q 3634 1759 3634 1313 
Q 3634 634 3220 271 
Q 2806 -91 2034 -91 
Q 1263 -91 848 271 
Q 434 634 434 1313 
Q 434 1759 690 2068 
Q 947 2378 1403 2484 
z
M 1172 3481 
Q 1172 3119 1398 2916 
Q 1625 2713 2034 2713 
Q 2441 2713 2670 2916 
Q 2900 3119 2900 3481 
Q 2900 3844 2670 4047 
Q 2441 4250 2034 4250 
Q 1625 4250 1398 4047 
Q 1172 3844 1172 3481 
z
" transform="scale(0.015625)"/>
       </defs>
       <use xlink:href="#DejaVuSans-32"/>
       <use xlink:href="#DejaVuSans-30" x="63.623047"/>
       <use xlink:href="#DejaVuSans-31" x="127.246094"/>
       <use xlink:href="#DejaVuSans-38" x="190.869141"/>
      </g>
     </g>
    </g>
    <g id="text_9">
     <!-- Time -->
     <g transform="translate(904.149609 357.314844) scale(0.15 -0.15)">
      <defs>
       <path id="DejaVuSans-54" d="M -19 4666 
L 3928 4666 
L 3928 4134 
L 2272 4134 
L 2272 0 
L 1638 0 
L 1638 4134 
L -19 4134 
L -19 4666 
z
" transform="scale(0.015625)"/>
       <path id="DejaVuSans-69" d="M 603 3500 
L 1178 3500 
L 1178 0 
L 603 0 
L 603 3500 
z
M 603 4863 
L 1178 4863 
L 1178 4134 
L 603 4134 
L 603 4863 
z
" transform="scale(0.015625)"/>
       <path id="DejaVuSans-6d" d="M 3328 2828 
Q 3544 3216 3844 3400 
Q 4144 3584 4550 3584 
Q 5097 3584 5394 3201 
Q 5691 2819 5691 2113 
L 5691 0 
L 5113 0 
L 5113 2094 
Q 5113 2597 4934 2840 
Q 4756 3084 4391 3084 
Q 3944 3084 3684 2787 
Q 3425 2491 3425 1978 
L 3425 0 
L 2847 0 
L 2847 2094 
Q 2847 2600 2669 2842 
Q 2491 3084 2119 3084 
Q 1678 3084 1418 2786 
Q 1159 2488 1159 1978 
L 1159 0 
L 581 0 
L 581 3500 
L 1159 3500 
L 1159 2956 
Q 1356 3278 1631 3431 
Q 1906 3584 2284 3584 
Q 2666 3584 2933 3390 
Q 3200 3197 3328 2828 
z
" transform="scale(0.015625)"/>
       <path id="DejaVuSans-65" d="M 3597 1894 
L 3597 1613 
L 953 1613 
Q 991 1019 1311 708 
Q 1631 397 2203 397 
Q 2534 397 2845 478 
Q 3156 559 3463 722 
L 3463 178 
Q 3153 47 2828 -22 
Q 2503 -91 2169 -91 
Q 1331 -91 842 396 
Q 353 884 353 1716 
Q 353 2575 817 3079 
Q 1281 3584 2069 3584 
Q 2775 3584 3186 3129 
Q 3597 2675 3597 1894 
z
M 3022 2063 
Q 3016 2534 2758 2815 
Q 2500 3097 2075 3097 
Q 1594 3097 1305 2825 
Q 1016 2553 972 2059 
L 3022 2063 
z
" transform="scale(0.015625)"/>
      </defs>
      <use xlink:href="#DejaVuSans-54"/>
      <use xlink:href="#DejaVuSans-69" x="57.958984"/>
      <use xlink:href="#DejaVuSans-6d" x="85.742188"/>
      <use xlink:href="#DejaVuSans-65" x="183.154297"/>
     </g>
    </g>
   </g>
   <g id="matplotlib.axis_2">
    <g id="ytick_1">
     <g id="line2d_9">
      <defs>
       <path id="m18ef92833e" d="M 0 0 
L -3.5 0 
" style="stroke: #000000; stroke-width: 0.8"/>
      </defs>
      <g>
       <use xlink:href="#m18ef92833e" x="225" y="319.389177" style="stroke: #000000; stroke-width: 0.8"/>
      </g>
     </g>
     <g id="text_10">
      <!-- −0.005 -->
      <g transform="translate(162.488281 325.088005) scale(0.15 -0.15)">
       <defs>
        <path id="DejaVuSans-2212" d="M 678 2272 
L 4684 2272 
L 4684 1741 
L 678 1741 
L 678 2272 
z
" transform="scale(0.015625)"/>
        <path id="DejaVuSans-2e" d="M 684 794 
L 1344 794 
L 1344 0 
L 684 0 
L 684 794 
z
" transform="scale(0.015625)"/>
       </defs>
       <use xlink:href="#DejaVuSans-2212"/>
       <use xlink:href="#DejaVuSans-30" x="83.789062"/>
       <use xlink:href="#DejaVuSans-2e" x="147.412109"/>
       <use xlink:href="#DejaVuSans-30" x="179.199219"/>
       <use xlink:href="#DejaVuSans-30" x="242.822266"/>
       <use xlink:href="#DejaVuSans-35" x="306.445312"/>
      </g>
     </g>
    </g>
    <g id="ytick_2">
     <g id="line2d_10">
      <g>
       <use xlink:href="#m18ef92833e" x="225" y="288.516368" style="stroke: #000000; stroke-width: 0.8"/>
      </g>
     </g>
     <g id="text_11">
      <!-- −0.004 -->
      <g transform="translate(162.488281 294.215196) scale(0.15 -0.15)">
       <use xlink:href="#DejaVuSans-2212"/>
       <use xlink:href="#DejaVuSans-30" x="83.789062"/>
       <use xlink:href="#DejaVuSans-2e" x="147.412109"/>
       <use xlink:href="#DejaVuSans-30" x="179.199219"/>
       <use xlink:href="#DejaVuSans-30" x="242.822266"/>
       <use xlink:href="#DejaVuSans-34" x="306.445312"/>
      </g>
     </g>
    </g>
    <g id="ytick_3">
     <g id="line2d_11">
      <g>
       <use xlink:href="#m18ef92833e" x="225" y="257.643559" style="stroke: #000000; stroke-width: 0.8"/>
      </g>
     </g>
     <g id="text_12">
      <!-- −0.003 -->
      <g transform="translate(162.488281 263.342387) scale(0.15 -0.15)">
       <use xlink:href="#DejaVuSans-2212"/>
       <use xlink:href="#DejaVuSans-30" x="83.789062"/>
       <use xlink:href="#DejaVuSans-2e" x="147.412109"/>
       <use xlink:href="#DejaVuSans-30" x="179.199219"/>
       <use xlink:href="#DejaVuSans-30" x="242.822266"/>
       <use xlink:href="#DejaVuSans-33" x="306.445312"/>
      </g>
     </g>
    </g>
    <g id="ytick_4">
     <g id="line2d_12">
      <g>
       <use xlink:href="#m18ef92833e" x="225" y="226.77075" style="stroke: #000000; stroke-width: 0.8"/>
      </g>
     </g>
     <g id="text_13">
      <!-- −0.002 -->
      <g transform="translate(162.488281 232.469578) scale(0.15 -0.15)">
       <use xlink:href="#DejaVuSans-2212"/>
       <use xlink:href="#DejaVuSans-30" x="83.789062"/>
       <use xlink:href="#DejaVuSans-2e" x="147.412109"/>
       <use xlink:href="#DejaVuSans-30" x="179.199219"/>
       <use xlink:href="#DejaVuSans-30" x="242.822266"/>
       <use xlink:href="#DejaVuSans-32" x="306.445312"/>
      </g>
     </g>
    </g>
    <g id="ytick_5">
     <g id="line2d_13">
      <g>
       <use xlink:href="#m18ef92833e" x="225" y="195.897941" style="stroke: #000000; stroke-width: 0.8"/>
      </g>
     </g>
     <g id="text_14">
      <!-- −0.001 -->
      <g transform="translate(162.488281 201.596769) scale(0.15 -0.15)">
       <use xlink:href="#DejaVuSans-2212"/>
       <use xlink:href="#DejaVuSans-30" x="83.789062"/>
       <use xlink:href="#DejaVuSans-2e" x="147.412109"/>
       <use xlink:href="#DejaVuSans-30" x="179.199219"/>
       <use xlink:href="#DejaVuSans-30" x="242.822266"/>
       <use xlink:href="#DejaVuSans-31" x="306.445312"/>
      </g>
     </g>
    </g>
    <g id="ytick_6">
     <g id="line2d_14">
      <g>
       <use xlink:href="#m18ef92833e" x="225" y="165.025132" style="stroke: #000000; stroke-width: 0.8"/>
      </g>
     </g>
     <g id="text_15">
      <!-- 0.000 -->
      <g transform="translate(175.057813 170.723961) scale(0.15 -0.15)">
       <use xlink:href="#DejaVuSans-30"/>
       <use xlink:href="#DejaVuSans-2e" x="63.623047"/>
       <use xlink:href="#DejaVuSans-30" x="95.410156"/>
       <use xlink:href="#DejaVuSans-30" x="159.033203"/>
       <use xlink:href="#DejaVuSans-30" x="222.65625"/>
      </g>
     </g>
    </g>
    <g id="ytick_7">
     <g id="line2d_15">
      <g>
       <use xlink:href="#m18ef92833e" x="225" y="134.152324" style="stroke: #000000; stroke-width: 0.8"/>
      </g>
     </g>
     <g id="text_16">
      <!-- 0.001 -->
      <g transform="translate(175.057813 139.851152) scale(0.15 -0.15)">
       <use xlink:href="#DejaVuSans-30"/>
       <use xlink:href="#DejaVuSans-2e" x="63.623047"/>
       <use xlink:href="#DejaVuSans-30" x="95.410156"/>
       <use xlink:href="#DejaVuSans-30" x="159.033203"/>
       <use xlink:href="#DejaVuSans-31" x="222.65625"/>
      </g>
     </g>
    </g>
    <g id="ytick_8">
     <g id="line2d_16">
      <g>
       <use xlink:href="#m18ef92833e" x="225" y="103.279515" style="stroke: #000000; stroke-width: 0.8"/>
      </g>
     </g>
     <g id="text_17">
      <!-- 0.002 -->
      <g transform="translate(175.057813 108.978343) scale(0.15 -0.15)">
       <use xlink:href="#DejaVuSans-30"/>
       <use xlink:href="#DejaVuSans-2e" x="63.623047"/>
       <use xlink:href="#DejaVuSans-30" x="95.410156"/>
       <use xlink:href="#DejaVuSans-30" x="159.033203"/>
       <use xlink:href="#DejaVuSans-32" x="222.65625"/>
      </g>
     </g>
    </g>
    <g id="ytick_9">
     <g id="line2d_17">
      <g>
       <use xlink:href="#m18ef92833e" x="225" y="72.406706" style="stroke: #000000; stroke-width: 0.8"/>
      </g>
     </g>
     <g id="text_18">
      <!-- 0.003 -->
      <g transform="translate(175.057813 78.105534) scale(0.15 -0.15)">
       <use xlink:href="#DejaVuSans-30"/>
       <use xlink:href="#DejaVuSans-2e" x="63.623047"/>
       <use xlink:href="#DejaVuSans-30" x="95.410156"/>
       <use xlink:href="#DejaVuSans-30" x="159.033203"/>
       <use xlink:href="#DejaVuSans-33" x="222.65625"/>
      </g>
     </g>
    </g>
    <g id="text_19">
     <!-- East(m) -->
     <g transform="translate(155.36875 211.140234) rotate(-90) scale(0.15 -0.15)">
      <defs>
       <path id="DejaVuSans-45" d="M 628 4666 
L 3578 4666 
L 3578 4134 
L 1259 4134 
L 1259 2753 
L 3481 2753 
L 3481 2222 
L 1259 2222 
L 1259 531 
L 3634 531 
L 3634 0 
L 628 0 
L 628 4666 
z
" transform="scale(0.015625)"/>
       <path id="DejaVuSans-61" d="M 2194 1759 
Q 1497 1759 1228 1600 
Q 959 1441 959 1056 
Q 959 750 1161 570 
Q 1363 391 1709 391 
Q 2188 391 2477 730 
Q 2766 1069 2766 1631 
L 2766 1759 
L 2194 1759 
z
M 3341 1997 
L 3341 0 
L 2766 0 
L 2766 531 
Q 2569 213 2275 61 
Q 1981 -91 1556 -91 
Q 1019 -91 701 211 
Q 384 513 384 1019 
Q 384 1609 779 1909 
Q 1175 2209 1959 2209 
L 2766 2209 
L 2766 2266 
Q 2766 2663 2505 2880 
Q 2244 3097 1772 3097 
Q 1472 3097 1187 3025 
Q 903 2953 641 2809 
L 641 3341 
Q 956 3463 1253 3523 
Q 1550 3584 1831 3584 
Q 2591 3584 2966 3190 
Q 3341 2797 3341 1997 
z
" transform="scale(0.015625)"/>
       <path id="DejaVuSans-73" d="M 2834 3397 
L 2834 2853 
Q 2591 2978 2328 3040 
Q 2066 3103 1784 3103 
Q 1356 3103 1142 2972 
Q 928 2841 928 2578 
Q 928 2378 1081 2264 
Q 1234 2150 1697 2047 
L 1894 2003 
Q 2506 1872 2764 1633 
Q 3022 1394 3022 966 
Q 3022 478 2636 193 
Q 2250 -91 1575 -91 
Q 1294 -91 989 -36 
Q 684 19 347 128 
L 347 722 
Q 666 556 975 473 
Q 1284 391 1588 391 
Q 1994 391 2212 530 
Q 2431 669 2431 922 
Q 2431 1156 2273 1281 
Q 2116 1406 1581 1522 
L 1381 1569 
Q 847 1681 609 1914 
Q 372 2147 372 2553 
Q 372 3047 722 3315 
Q 1072 3584 1716 3584 
Q 2034 3584 2315 3537 
Q 2597 3491 2834 3397 
z
" transform="scale(0.015625)"/>
       <path id="DejaVuSans-74" d="M 1172 4494 
L 1172 3500 
L 2356 3500 
L 2356 3053 
L 1172 3053 
L 1172 1153 
Q 1172 725 1289 603 
Q 1406 481 1766 481 
L 2356 481 
L 2356 0 
L 1766 0 
Q 1100 0 847 248 
Q 594 497 594 1153 
L 594 3053 
L 172 3053 
L 172 3500 
L 594 3500 
L 594 4494 
L 1172 4494 
z
" transform="scale(0.015625)"/>
       <path id="DejaVuSans-28" d="M 1984 4856 
Q 1566 4138 1362 3434 
Q 1159 2731 1159 2009 
Q 1159 1288 1364 580 
Q 1569 -128 1984 -844 
L 1484 -844 
Q 1016 -109 783 600 
Q 550 1309 550 2009 
Q 550 2706 781 3412 
Q 1013 4119 1484 4856 
L 1984 4856 
z
" transform="scale(0.015625)"/>
       <path id="DejaVuSans-29" d="M 513 4856 
L 1013 4856 
Q 1481 4119 1714 3412 
Q 1947 2706 1947 2009 
Q 1947 1309 1714 600 
Q 1481 -109 1013 -844 
L 513 -844 
Q 928 -128 1133 580 
Q 1338 1288 1338 2009 
Q 1338 2731 1133 3434 
Q 928 4138 513 4856 
z
" transform="scale(0.015625)"/>
      </defs>
      <use xlink:href="#DejaVuSans-45"/>
      <use xlink:href="#DejaVuSans-61" x="63.183594"/>
      <use xlink:href="#DejaVuSans-73" x="124.462891"/>
      <use xlink:href="#DejaVuSans-74" x="176.5625"/>
      <use xlink:href="#DejaVuSans-28" x="215.771484"/>
      <use xlink:href="#DejaVuSans-6d" x="254.785156"/>
      <use xlink:href="#DejaVuSans-29" x="352.197266"/>
     </g>
    </g>
   </g>
   <g id="line2d_18">
    <path d="M 288.409091 287.902573 
L 288.872269 276.566723 
L 289.335447 291.884398 
L 289.798625 297.132391 
L 290.261804 293.270848 
L 290.724982 304.031696 
L 291.18816 307.8 
L 291.651338 305.495532 
L 292.114516 305.109589 
L 292.577694 291.726194 
L 293.040873 288.627854 
L 293.504051 282.481927 
L 293.967229 269.905635 
L 294.430407 261.060542 
L 294.893585 260.440848 
L 295.819942 271.255086 
L 296.28312 271.173461 
L 296.746298 274.236451 
L 297.209476 273.563832 
L 297.672654 277.605932 
L 298.599011 268.321971 
L 299.525367 276.216524 
L 299.988545 276.977285 
L 300.451723 276.604573 
L 300.914901 271.340727 
L 301.37808 275.86356 
L 338.895511 261.99061 
L 340.748224 170.89364 
L 341.67458 138.384506 
L 342.137758 139.352557 
L 343.064114 146.073942 
L 343.527293 152.740231 
L 343.990471 181.017486 
L 344.453649 178.205822 
L 344.916827 179.667837 
L 345.380005 172.511928 
L 345.843183 172.311222 
L 346.306362 168.361675 
L 346.76954 172.205306 
L 347.232718 153.683793 
L 347.695896 160.848457 
L 348.159074 163.642414 
L 348.622252 174.767618 
L 349.085431 179.250758 
L 349.548609 176.536123 
L 350.011787 172.970281 
L 350.474965 170.701096 
L 350.938143 170.765014 
L 351.401321 169.752794 
L 351.8645 167.311604 
L 352.327678 171.556582 
L 352.790856 185.896969 
L 353.717212 205.651091 
L 354.18039 213.111251 
L 354.643569 211.441882 
L 355.106747 208.75812 
L 355.569925 209.492418 
L 356.033103 205.437022 
L 356.496281 193.160637 
L 356.959459 189.233141 
L 357.422638 188.53847 
L 357.885816 194.419707 
L 358.348994 206.374067 
L 358.812172 205.83376 
L 359.27535 211.41068 
L 359.738528 207.403797 
L 360.201707 210.775516 
L 361.128063 225.60763 
L 361.591241 218.173865 
L 362.054419 223.120097 
L 362.517597 223.775009 
L 362.980776 248.356348 
L 363.443954 239.440689 
L 363.907132 237.502284 
L 364.37031 236.393035 
L 364.833488 237.308161 
L 365.296666 234.223052 
L 366.223023 218.746888 
L 366.686201 233.704731 
L 367.149379 228.930439 
L 367.612557 221.809813 
L 368.075735 217.785289 
L 368.538914 209.694375 
L 369.002092 209.193762 
L 369.46527 201.270443 
L 369.928448 196.38148 
L 370.391626 201.808446 
L 370.854804 209.400919 
L 371.317983 220.407042 
L 371.781161 238.297802 
L 372.244339 242.273746 
L 372.707517 252.530101 
L 373.170695 251.248847 
L 373.633873 255.140993 
L 374.097052 262.362992 
L 374.56023 260.168784 
L 375.023408 261.013343 
L 375.486586 266.925453 
L 375.949764 268.73589 
L 376.412942 267.198832 
L 376.876121 260.400166 
L 377.339299 248.145833 
L 377.802477 244.218338 
L 378.265655 237.371157 
L 378.728833 236.455966 
L 379.192011 231.611107 
L 379.65519 232.746752 
L 381.044724 246.028577 
L 381.507902 246.604101 
L 382.434259 245.417638 
L 383.360615 226.911528 
L 383.823793 222.587097 
L 384.286971 223.890337 
L 384.750149 218.630901 
L 385.213328 219.510743 
L 385.676506 216.16101 
L 386.139684 227.484683 
L 386.602862 227.045815 
L 387.06604 235.590934 
L 387.529218 236.241436 
L 387.992397 241.849228 
L 388.455575 239.853488 
L 389.381931 254.293076 
L 389.845109 262.216329 
L 390.308287 260.141203 
L 390.771466 261.391518 
L 391.234644 261.724471 
L 391.697822 251.494512 
L 392.161 249.626674 
L 393.087356 230.141456 
L 393.550535 225.521527 
L 394.013713 214.519748 
L 394.476891 197.753575 
L 394.940069 202.739501 
L 395.403247 195.826164 
L 395.866425 182.667699 
L 396.329604 184.764812 
L 396.792782 177.132579 
L 397.25596 182.325794 
L 397.719138 202.633454 
L 398.182316 205.074578 
L 398.645494 202.095319 
L 399.108673 214.3981 
L 399.571851 210.466195 
L 400.035029 215.840236 
L 400.498207 215.53809 
L 400.961385 209.775868 
L 401.424563 215.418944 
L 401.887742 232.088022 
L 402.35092 233.752916 
L 402.814098 231.629275 
L 403.740454 222.667273 
L 404.203632 211.325894 
L 404.666811 210.185772 
L 405.129989 196.780324 
L 406.519523 190.39617 
L 406.982701 190.177822 
L 407.44588 197.479208 
L 407.909058 194.447025 
L 408.372236 195.560618 
L 408.835414 200.339255 
L 409.298592 213.11836 
L 410.224949 229.961616 
L 410.688127 231.313371 
L 411.151305 215.208758 
L 411.614483 213.623186 
L 412.077661 208.165281 
L 412.540839 197.811831 
L 413.004018 198.444691 
L 413.467196 204.938974 
L 413.930374 199.476659 
L 414.393552 209.406645 
L 414.85673 201.500968 
L 415.319908 199.774262 
L 415.783087 199.767614 
L 416.246265 186.679715 
L 416.709443 165.688378 
L 417.172621 186.710522 
L 417.635799 183.078524 
L 418.098977 182.957205 
L 418.562156 177.402272 
L 419.025334 163.943899 
L 419.488512 157.101129 
L 419.95169 156.516718 
L 420.414868 123.251233 
L 420.878046 119.883859 
L 421.341225 117.491183 
L 421.804403 113.493122 
L 422.267581 121.209086 
L 422.730759 125.048307 
L 423.193937 123.789105 
L 423.657115 127.385754 
L 424.120294 125.112159 
L 424.583472 124.907042 
L 425.04665 137.478858 
L 425.509828 139.099648 
L 425.973006 131.670294 
L 426.436184 132.435466 
L 426.899363 131.815771 
L 427.362541 137.719061 
L 427.825719 141.346583 
L 428.288897 137.66166 
L 428.752075 132.265501 
L 429.215253 138.270229 
L 429.678432 138.175373 
L 430.14161 138.856747 
L 430.604788 142.202003 
L 431.067966 146.402877 
L 431.531144 142.942885 
L 431.994322 147.187863 
L 432.4575 148.169144 
L 432.920679 153.009527 
L 434.310213 133.235394 
L 434.773391 131.610128 
L 435.236569 128.599996 
L 435.699748 130.450127 
L 436.162926 122.376854 
L 436.626104 129.22838 
L 437.089282 124.211515 
L 437.55246 122.303984 
L 438.015638 122.509035 
L 438.478817 123.150715 
L 438.941995 119.342301 
L 439.405173 112.587738 
L 439.868351 110.018647 
L 440.331529 109.147559 
L 440.794707 105.303862 
L 441.257886 94.985695 
L 441.721064 90.308432 
L 442.64742 84.998243 
L 443.110598 84.316803 
L 444.036955 88.718317 
L 449.131914 94.939155 
L 450.058271 100.070624 
L 450.521449 105.105064 
L 450.984627 111.991873 
L 451.447805 108.897944 
L 451.910983 128.023616 
L 452.374162 137.075932 
L 452.83734 135.807908 
L 453.300518 141.565654 
L 453.763696 130.493309 
L 454.226874 126.446733 
L 454.690052 127.330985 
L 455.153231 108.12145 
L 455.616409 108.644049 
L 456.079587 118.40644 
L 456.542765 117.341295 
L 457.005943 128.153361 
L 457.469121 134.17132 
L 457.9323 136.630086 
L 458.395478 132.389452 
L 459.321834 98.398424 
L 459.785012 89.077008 
L 460.24819 87.720776 
L 460.711369 77.698107 
L 461.174547 85.277348 
L 462.100903 89.356904 
L 462.564081 93.222587 
L 463.027259 92.616124 
L 463.490438 88.25641 
L 463.953616 97.154361 
L 464.416794 84.167902 
L 464.879972 84.681681 
L 465.34315 87.003724 
L 465.806328 84.897725 
L 466.269507 75.179372 
L 466.732685 73.964274 
L 467.195863 71.417234 
L 467.659041 70.03013 
L 468.122219 77.860765 
L 468.585397 77.377793 
L 469.048576 80.083541 
L 469.511754 90.608931 
L 470.901288 109.381705 
L 471.364466 103.901749 
L 471.827645 110.784147 
L 472.290823 114.826247 
L 472.754001 115.075401 
L 474.606714 88.440856 
L 475.069892 75.075102 
L 475.53307 73.643894 
L 475.996248 80.848252 
L 476.459426 93.040773 
L 476.922604 101.625586 
L 477.385783 112.834588 
L 478.312139 146.388855 
L 478.775317 149.985505 
L 479.238495 152.523658 
L 479.701673 155.8204 
L 480.164852 157.12364 
L 480.62803 164.261842 
L 481.091208 165.229892 
L 481.554386 158.664977 
L 482.017564 157.202896 
L 482.480742 151.330414 
L 482.943921 138.908486 
L 483.407099 151.175984 
L 483.870277 173.119902 
L 484.333455 173.254387 
L 484.796633 176.154193 
L 485.259811 187.843928 
L 486.186168 198.287693 
L 486.649346 183.894315 
L 487.112524 156.759288 
L 487.575702 149.241726 
L 488.03888 144.268966 
L 488.502059 131.54272 
L 488.965237 127.871028 
L 489.428415 128.049617 
L 489.891593 125.626068 
L 490.354771 129.385902 
L 491.281128 151.768623 
L 491.744306 171.366208 
L 492.207484 171.999068 
L 492.670662 177.642143 
L 493.13384 185.375749 
L 493.597018 188.421098 
L 494.060197 178.248475 
L 494.523375 171.952594 
L 494.986553 160.575931 
L 495.449731 158.712503 
L 495.912909 151.697727 
L 496.376087 150.107745 
L 496.839266 140.728994 
L 497.302444 140.713524 
L 497.765622 150.462683 
L 498.2288 148.255245 
L 498.691978 150.802218 
L 499.155156 155.682294 
L 499.618335 156.213715 
L 500.081513 163.188732 
L 500.544691 165.726885 
L 501.007869 158.526872 
L 501.471047 153.602626 
L 501.934225 152.356654 
L 503.32376 123.752898 
L 503.786938 123.102331 
L 504.713294 112.261499 
L 505.176473 107.870911 
L 505.639651 110.806001 
L 506.102829 104.479247 
L 506.566007 115.723532 
L 507.029185 119.686245 
L 507.492363 126.414279 
L 507.955542 135.268127 
L 508.41872 141.211109 
L 508.881898 138.408266 
L 509.345076 146.472652 
L 509.808254 145.892652 
L 510.271432 152.391345 
L 510.734611 156.239387 
L 511.197789 155.562358 
L 511.660967 161.046659 
L 512.124145 185.350142 
L 512.587323 183.32794 
L 513.51368 180.245004 
L 514.440036 191.425305 
L 514.903214 184.728078 
L 515.366392 173.492548 
L 515.82957 180.101501 
L 516.292749 183.03218 
L 516.755927 184.692663 
L 517.219105 174.440652 
L 517.682283 176.564227 
L 518.145461 185.391613 
L 518.608639 187.404928 
L 519.071818 185.792893 
L 519.534996 182.134433 
L 519.998174 176.954383 
L 520.461352 179.735108 
L 520.92453 178.41416 
L 521.387708 176.396369 
L 521.850887 169.928482 
L 522.314065 168.925083 
L 522.777243 173.778697 
L 523.240421 182.464949 
L 523.703599 177.329004 
L 524.166777 176.616691 
L 524.629956 168.155304 
L 525.093134 172.37823 
L 525.556312 175.357423 
L 526.01949 176.382808 
L 526.482668 165.844122 
L 526.945846 171.937058 
L 527.872203 191.188394 
L 528.798559 188.958903 
L 529.261737 196.92626 
L 529.724915 200.827227 
L 530.188093 203.718212 
L 530.651272 204.99058 
L 531.11445 196.855562 
L 531.577628 194.136517 
L 532.040806 199.567893 
L 532.503984 206.520857 
L 532.967162 224.010271 
L 533.430341 237.151028 
L 533.893519 235.993265 
L 534.356697 248.688572 
L 534.819875 252.294042 
L 535.283053 264.089628 
L 535.746231 261.480842 
L 536.20941 244.260398 
L 536.672588 240.725428 
L 537.135766 252.313725 
L 537.598944 249.180102 
L 538.062122 256.582927 
L 538.988479 243.920599 
L 539.451657 242.864275 
L 539.914835 237.252007 
L 540.378013 236.733752 
L 540.841191 225.348268 
L 541.304369 218.712786 
L 541.767548 215.195458 
L 542.230726 226.854321 
L 542.693904 229.114619 
L 543.157082 224.331506 
L 543.62026 215.918632 
L 544.083438 229.698898 
L 544.546617 234.715697 
L 545.009795 237.108307 
L 545.472973 230.85653 
L 545.936151 246.33039 
L 546.862507 265.793425 
L 547.325686 274.664914 
L 547.788864 273.577717 
L 548.252042 283.463599 
L 548.71522 282.014749 
L 549.178398 274.431031 
L 549.641576 281.463383 
L 550.104755 282.427023 
L 550.567933 272.761595 
L 551.031111 274.091298 
L 555.662893 263.724617 
L 556.126071 261.675953 
L 557.052427 230.609021 
L 557.515605 227.400421 
L 557.978783 222.242423 
L 558.441962 211.227413 
L 558.90514 214.475641 
L 559.368318 218.874983 
L 560.294674 224.224734 
L 560.757852 225.902859 
L 564.463278 234.253921 
L 564.926456 248.607539 
L 565.852812 235.512992 
L 566.31599 234.04209 
L 566.779169 231.993426 
L 567.705525 215.524921 
L 568.168703 201.246214 
L 568.631881 203.091934 
L 569.095059 202.705991 
L 569.558238 200.789639 
L 570.484594 209.308296 
L 570.947772 207.665389 
L 571.41095 196.469552 
L 571.874128 195.810164 
L 572.337307 190.255231 
L 572.800485 180.66037 
L 573.263663 182.373778 
L 573.726841 176.170516 
L 574.190019 174.038054 
L 574.653197 168.902109 
L 575.116376 166.579999 
L 575.579554 152.632073 
L 576.042732 159.117535 
L 576.50591 151.136881 
L 576.969088 136.743503 
L 577.432266 132.564615 
L 577.895445 138.922176 
L 578.358623 134.88442 
L 578.821801 151.138921 
L 579.284979 146.70864 
L 579.748157 148.020702 
L 580.211335 155.644047 
L 580.674514 152.827973 
L 581.137692 152.539059 
L 581.60087 157.538216 
L 582.064048 150.770422 
L 582.527226 146.595945 
L 582.990404 144.957448 
L 583.916761 139.307658 
L 584.843117 116.810135 
L 585.306295 106.077391 
L 585.769473 102.343953 
L 586.232652 95.174813 
L 586.69583 95.609204 
L 587.159008 93.882499 
L 587.622186 102.537879 
L 588.548542 123.50045 
L 589.474899 140.965573 
L 589.938077 138.48469 
L 593.180324 131.752179 
L 593.643502 129.350683 
L 594.10668 120.593798 
L 595.033037 114.057518 
L 596.422571 106.877319 
L 596.885749 114.549179 
L 597.348928 112.773959 
L 598.275284 118.529467 
L 598.738462 116.255872 
L 599.20164 113.289845 
L 599.664818 113.980039 
L 600.127997 112.5356 
L 600.591175 111.902675 
L 601.980709 88.556117 
L 602.443887 93.334754 
L 602.907066 94.673277 
L 603.370244 100.386919 
L 604.2966 93.471344 
L 604.759778 119.922693 
L 605.222956 137.45621 
L 605.686135 137.608336 
L 606.149313 142.647187 
L 606.612491 152.497785 
L 607.075669 181.066126 
L 607.538847 201.259116 
L 608.002025 182.137788 
L 608.465204 169.6056 
L 608.928382 165.087111 
L 609.39156 165.120156 
L 609.854738 150.475386 
L 610.317916 122.339198 
L 610.781094 108.034028 
L 611.244273 98.443578 
L 611.707451 85.990777 
L 612.633807 73.654819 
L 620.507836 67.433915 
L 620.971014 59.651729 
L 621.434192 59.759751 
L 621.89737 59.325293 
L 622.360549 62.458851 
L 622.823727 75.61725 
L 623.286905 80.898672 
L 623.750083 79.934967 
L 624.213261 95.369133 
L 624.676439 101.312116 
L 625.139618 96.326124 
L 625.602796 101.126813 
L 626.529152 82.947073 
L 626.99233 83.901892 
L 627.455508 82.241343 
L 627.918686 74.582649 
L 628.381865 83.626143 
L 628.845043 84.629477 
L 629.308221 94.793214 
L 630.234577 139.691033 
L 630.697755 144.998918 
L 631.160934 154.302626 
L 631.624112 157.705218 
L 632.08729 169.827173 
L 632.550468 166.428926 
L 633.013646 155.722644 
L 633.476824 157.259636 
L 633.940003 153.080748 
L 634.403181 144.275348 
L 634.866359 144.220186 
L 635.329537 146.021802 
L 635.792715 150.844542 
L 636.255893 148.866445 
L 636.719072 135.619771 
L 637.18225 133.729882 
L 637.645428 134.437718 
L 638.108606 129.16505 
L 639.034962 96.091385 
L 639.498141 79.938258 
L 639.961319 75.503566 
L 641.350853 55.8 
L 641.814031 59.026176 
L 642.740388 87.036568 
L 643.666744 95.791149 
L 644.129922 95.541928 
L 644.5931 105.626278 
L 645.056279 106.047438 
L 645.519457 114.06772 
L 645.982635 110.687115 
L 646.908991 125.492766 
L 647.372169 125.834539 
L 648.298526 131.387168 
L 648.761704 114.982648 
L 649.224882 115.130363 
L 649.68806 100.944275 
L 650.151238 82.396299 
L 650.614417 83.571638 
L 651.077595 76.226082 
L 651.540773 81.110569 
L 652.003951 84.786605 
L 652.467129 75.734224 
L 652.930307 78.576694 
L 653.393486 92.326087 
L 653.856664 92.698733 
L 654.319842 92.317201 
L 655.246198 70.260718 
L 655.709376 70.642185 
L 656.172555 74.08006 
L 656.635733 72.728239 
L 657.098911 63.839042 
L 657.562089 59.329374 
L 658.025267 66.710147 
L 658.488445 87.405923 
L 658.951624 114.135126 
L 659.414802 118.741758 
L 659.87798 121.129957 
L 660.341158 138.998665 
L 660.804336 141.325119 
L 661.267514 160.76834 
L 661.730693 171.584816 
L 662.193871 147.784052 
L 662.657049 140.623733 
L 663.583405 135.525243 
L 664.046583 143.04715 
L 664.97294 101.911271 
L 665.436118 101.953137 
L 665.899296 94.576708 
L 666.362474 92.854414 
L 666.825652 89.906027 
L 667.288831 80.884519 
L 667.752009 84.516451 
L 668.215187 82.754463 
L 668.678365 81.724601 
L 669.141543 93.758348 
L 670.0679 102.393848 
L 670.531078 126.931083 
L 670.994256 125.962967 
L 673.773325 133.057064 
L 674.236503 140.274653 
L 674.699681 137.149851 
L 675.162859 138.470733 
L 675.626038 141.224996 
L 676.089216 134.571872 
L 676.552394 142.142293 
L 677.015572 144.914198 
L 677.47875 166.584671 
L 677.941928 182.627473 
L 678.405107 185.849238 
L 678.868285 194.870681 
L 679.331463 192.050196 
L 679.794641 186.02335 
L 680.257819 184.905281 
L 680.720997 167.001224 
L 681.184176 165.790536 
L 681.647354 179.209149 
L 682.110532 177.358952 
L 682.57371 186.65825 
L 683.036888 185.75629 
L 683.500066 181.943466 
L 683.963245 182.854181 
L 684.426423 170.586617 
L 684.889601 150.578798 
L 685.352779 145.654552 
L 685.815957 146.856354 
L 686.279135 168.919353 
L 687.66867 190.681458 
L 688.595026 220.426389 
L 689.058204 225.666538 
L 689.521383 223.091456 
L 689.984561 206.588327 
L 690.447739 204.28827 
L 694.616342 200.537191 
L 695.079521 198.268006 
L 695.542699 191.954484 
L 696.005877 196.684606 
L 696.469055 195.60182 
L 696.932233 198.162025 
L 697.395411 211.629152 
L 697.85859 219.353937 
L 698.321768 231.66995 
L 698.784946 236.034009 
L 699.248124 245.403873 
L 699.711302 250.442724 
L 700.17448 263.684921 
L 700.637659 264.917595 
L 701.100837 267.610112 
L 701.564015 261.243665 
L 702.027193 261.907397 
L 702.953549 244.433322 
L 704.343084 219.199112 
L 705.26944 215.653084 
L 705.732618 224.405492 
L 706.195797 237.713845 
L 706.658975 229.221584 
L 707.122153 232.99906 
L 707.585331 245.575287 
L 708.048509 245.180523 
L 708.511687 252.0541 
L 708.974866 246.212491 
L 709.438044 257.902226 
L 709.901222 276.123766 
L 710.3644 264.142878 
L 710.827578 261.145978 
L 711.290756 268.535572 
L 711.753935 265.498978 
L 712.680291 246.856146 
L 713.143469 245.623406 
L 713.606647 247.001623 
L 714.069825 233.380066 
L 714.533004 230.43168 
L 714.996182 231.523221 
L 715.45936 241.338536 
L 715.922538 240.238108 
L 716.385716 242.917394 
L 716.848894 248.388464 
L 717.312073 266.380663 
L 717.775251 266.625407 
L 718.238429 263.932825 
L 719.164785 245.206195 
L 719.627963 240.917047 
L 720.091142 241.36908 
L 720.55432 240.652357 
L 721.480676 250.871191 
L 721.943854 259.473645 
L 722.870211 254.997022 
L 723.333389 253.887773 
L 723.796567 243.512272 
L 724.259745 229.207102 
L 724.722923 225.989682 
L 725.186101 213.408979 
L 725.64928 210.279766 
L 726.575636 185.797563 
L 727.038814 187.012596 
L 727.501992 183.918666 
L 727.96517 167.505325 
L 728.428348 170.872633 
L 728.891527 179.739712 
L 729.354705 184.990262 
L 729.817883 191.511007 
L 730.281061 186.423577 
L 730.744239 191.356578 
L 731.670596 208.146909 
L 732.133774 210.455721 
L 733.06013 200.223525 
L 733.523308 197.18252 
L 733.986486 185.682366 
L 734.449665 182.059188 
L 735.376021 158.035667 
L 735.839199 159.960774 
L 736.302377 151.65375 
L 736.765555 149.437491 
L 738.15509 165.647822 
L 738.618268 165.517682 
L 739.081446 162.384059 
L 739.544624 168.097701 
L 740.007803 167.676475 
L 740.934159 163.195441 
L 741.397337 156.074815 
L 741.860515 158.824668 
L 742.323693 156.308501 
L 742.786872 154.683235 
L 743.25005 162.024315 
L 743.713228 172.94223 
L 744.176406 167.224112 
L 744.639584 173.709574 
L 745.102762 164.855661 
L 745.565941 158.621526 
L 746.029119 155.770168 
L 746.492297 143.110079 
L 746.955475 124.75175 
L 747.418653 116.206565 
L 747.881831 102.108684 
L 748.34501 95.160064 
L 748.808188 92.114649 
L 749.271366 97.444586 
L 749.734544 96.886638 
L 750.197722 106.3403 
L 750.6609 104.944375 
L 751.124079 104.417299 
L 751.587257 114.117944 
L 752.050435 126.835303 
L 752.513613 115.449819 
L 752.976791 115.43876 
L 753.439969 119.91749 
L 753.903148 122.340972 
L 754.366326 126.744725 
L 754.829504 124.065373 
L 755.292682 117.588666 
L 755.75586 113.198079 
L 756.219038 117.985536 
L 756.682217 97.708684 
L 757.145395 95.576222 
L 757.608573 82.664739 
L 758.071751 82.437571 
L 758.534929 84.913978 
L 758.998107 82.16847 
L 759.461286 76.401838 
L 759.924464 80.748255 
L 760.85082 96.153721 
L 761.313998 99.85622 
L 761.777176 93.075195 
L 762.240355 99.640044 
L 762.703533 98.041241 
L 763.166711 98.096338 
L 763.629889 96.404916 
L 764.093067 99.794277 
L 764.556245 90.931542 
L 765.019424 94.170949 
L 767.335314 107.836545 
L 768.261671 110.708308 
L 768.724849 115.749989 
L 769.188027 112.698584 
L 770.114383 163.362048 
L 770.577562 162.701081 
L 771.04074 160.02897 
L 771.967096 176.356868 
L 772.430274 189.641589 
L 772.893452 196.209269 
L 773.356631 174.726797 
L 773.819809 161.901942 
L 774.282987 164.460567 
L 774.746165 164.527316 
L 775.672521 137.667906 
L 776.1357 141.511538 
L 776.598878 141.213803 
L 777.062056 138.931387 
L 777.525234 141.870887 
L 777.988412 140.911592 
L 787.251976 138.261533 
L 787.715154 132.859384 
L 788.178332 137.601158 
L 788.64151 133.182528 
L 789.104688 123.025966 
L 790.031045 78.402711 
L 790.494223 68.1507 
L 790.957401 92.665883 
L 791.420579 94.546886 
L 791.883757 78.208522 
L 792.346935 73.703264 
L 793.273292 95.124517 
L 793.73647 103.431475 
L 794.662826 59.424425 
L 795.589183 81.013274 
L 796.052361 82.647294 
L 796.515539 76.814506 
L 796.978717 94.894913 
L 797.441895 117.654756 
L 797.905073 157.227048 
L 798.368252 157.811393 
L 798.83143 159.29546 
L 799.294608 161.458729 
L 799.757786 177.651485 
L 800.220964 162.52157 
L 800.684142 143.320855 
L 801.147321 112.198826 
L 801.610499 116.408521 
L 802.073677 110.050895 
L 803.000033 87.760661 
L 803.463211 106.118923 
L 803.92639 91.44328 
L 804.852746 143.155169 
L 805.315924 165.368122 
L 805.779102 179.61589 
L 806.24228 185.347174 
L 806.705459 161.736058 
L 807.168637 173.888886 
L 811.33724 131.956963 
L 811.800418 96.0717 
L 812.263597 83.169038 
L 812.726775 98.453251 
L 813.189953 95.919442 
L 813.653131 117.475245 
L 814.116309 120.454439 
L 814.579487 124.964041 
L 815.042666 126.650987 
L 815.505844 118.052876 
L 815.969022 98.384659 
L 816.4322 103.64403 
L 816.895378 105.776426 
L 818.284913 140.1532 
L 819.211269 167.290333 
L 819.674447 163.759774 
L 820.600804 128.216284 
L 821.063982 130.688281 
L 821.52716 126.015428 
L 821.990338 116.177995 
L 822.453516 101.612612 
L 823.379873 110.931724 
L 823.843051 119.754699 
L 824.306229 121.626881 
L 824.769407 125.814524 
L 825.232585 126.023985 
L 825.695763 132.469754 
L 826.158941 132.366076 
L 826.62212 130.365927 
L 827.085298 150.638303 
L 827.548476 163.121911 
L 828.011654 158.162382 
L 828.474832 167.593992 
L 828.93801 169.078059 
L 829.401189 175.082787 
L 829.864367 177.17108 
L 830.327545 154.534662 
L 830.790723 139.519418 
L 831.253901 146.639978 
L 831.717079 146.231983 
L 832.180258 142.238332 
L 832.643436 149.036932 
L 833.106614 148.090868 
L 837.275217 148.081982 
L 837.738396 135.232245 
L 838.201574 132.358835 
L 838.664752 137.869599 
L 839.12793 138.811186 
L 840.054286 141.259552 
L 840.517465 138.79473 
L 840.980643 139.959668 
L 841.443821 145.129251 
L 841.906999 141.447158 
L 842.370177 139.485122 
L 842.833355 128.468532 
L 843.296534 129.224883 
L 843.759712 135.785322 
L 844.22289 134.601096 
L 844.686068 135.260418 
L 845.149246 142.319233 
L 846.075603 151.982356 
L 846.538781 152.293256 
L 847.001959 162.540791 
L 847.928315 173.716682 
L 848.391493 177.308921 
L 849.31785 195.144518 
L 849.781028 193.801517 
L 850.244206 189.155127 
L 850.707384 187.596017 
L 851.170562 180.695911 
L 852.096919 189.750399 
L 852.560097 177.478425 
L 853.023275 170.635654 
L 853.486453 166.518512 
L 853.949631 177.088006 
L 854.41281 193.805599 
L 854.875988 187.117192 
L 855.339166 172.569451 
L 855.802344 183.509418 
L 856.265522 207.129289 
L 856.7287 210.18787 
L 857.191879 200.93702 
L 857.655057 195.479115 
L 858.118235 191.573672 
L 858.581413 192.669624 
L 859.044591 186.744217 
L 859.507769 173.907711 
L 859.970948 180.269682 
L 860.434126 172.284618 
L 860.897304 170.619658 
L 861.360482 172.068442 
L 861.82366 163.867268 
L 862.286838 161.23202 
L 862.750017 165.278531 
L 863.213195 167.89166 
L 863.676373 172.25572 
L 864.139551 195.064077 
L 864.602729 208.072522 
L 865.529086 241.132824 
L 865.992264 242.577198 
L 866.455442 240.466788 
L 866.91862 255.164417 
L 867.381798 240.607855 
L 867.844976 241.531801 
L 868.308155 247.439501 
L 868.771333 234.170776 
L 869.234511 230.662268 
L 869.697689 233.081341 
L 870.160867 237.185186 
L 870.624045 232.185963 
L 871.087224 230.640085 
L 871.550402 221.376004 
L 872.01358 222.970331 
L 872.476758 211.853882 
L 872.939936 217.249975 
L 873.403114 208.991466 
L 873.866293 205.006635 
L 874.329471 204.572178 
L 874.792649 212.976164 
L 875.255827 226.681453 
L 875.719005 246.129085 
L 876.182183 243.621739 
L 876.645362 246.239279 
L 877.10854 250.554824 
L 878.034896 235.475596 
L 878.498074 224.041598 
L 878.961252 218.720416 
L 879.424431 209.249046 
L 879.887609 202.653258 
L 880.350787 212.530319 
L 880.813965 212.162017 
L 881.277143 205.036981 
L 881.740321 202.838363 
L 882.2035 196.163188 
L 882.666678 206.917918 
L 883.129856 207.484622 
L 883.593034 197.488415 
L 884.056212 201.018908 
L 884.51939 205.462354 
L 885.445747 230.138484 
L 885.908925 218.184058 
L 886.372103 221.648395 
L 886.835281 229.205585 
L 887.298459 219.597493 
L 887.761638 228.698323 
L 888.224816 220.298681 
L 888.687994 217.919236 
L 889.61435 237.567508 
L 890.077528 232.07432 
L 890.540707 254.423996 
L 891.003885 249.367438 
L 891.467063 256.249836 
L 891.930241 250.668441 
L 892.856597 226.706665 
L 893.319776 226.536831 
L 893.782954 217.175722 
L 894.246132 212.657233 
L 894.70931 210.762932 
L 895.172488 217.296909 
L 896.098845 235.114864 
L 896.562023 236.532775 
L 897.025201 232.371529 
L 897.488379 231.284332 
L 897.951557 224.692954 
L 898.414735 225.83742 
L 898.877914 225.47794 
L 899.341092 206.012601 
L 899.80427 208.233205 
L 900.267448 211.203577 
L 900.730626 212.167217 
L 901.193804 209.699565 
L 901.656983 202.931771 
L 902.120161 194.117551 
L 902.583339 203.879941 
L 903.046517 194.068971 
L 903.509695 187.040964 
L 903.972873 188.652932 
L 904.436052 186.366106 
L 904.89923 182.09901 
L 905.362408 188.209588 
L 905.825586 184.220347 
L 906.288764 188.588817 
L 906.751942 184.546651 
L 907.215121 177.937632 
L 907.678299 176.943054 
L 911.383724 176.11166 
L 911.846902 164.514477 
L 912.31008 162.995061 
L 912.773259 148.623735 
L 913.236437 143.624513 
L 913.699615 141.496461 
L 914.162793 138.521612 
L 914.625971 134.364776 
L 915.089149 135.694479 
L 915.552328 135.180635 
L 916.015506 138.821388 
L 916.478684 138.064971 
L 916.941862 140.342911 
L 917.40504 138.497125 
L 917.868218 139.257886 
L 918.331397 134.920223 
L 919.257753 110.490945 
L 919.720931 111.794186 
L 920.184109 101.511302 
L 920.647287 103.189427 
L 921.110466 91.751018 
L 921.573644 83.558665 
L 922.036822 84.588461 
L 922.5 96.035624 
L 922.963178 97.863703 
L 923.426356 105.129806 
L 923.889534 101.63012 
L 924.352713 108.190559 
L 925.279069 125.002942 
L 925.742247 126.235617 
L 926.205425 120.036765 
L 926.668603 107.239952 
L 927.131782 106.461484 
L 927.59496 108.285152 
L 928.058138 96.295443 
L 928.521316 89.545291 
L 928.984494 75.981069 
L 929.447672 76.644801 
L 929.910851 77.017447 
L 930.374029 75.634754 
L 934.079454 73.37439 
L 934.542632 82.832463 
L 935.00581 88.210914 
L 935.468989 103.473075 
L 936.395345 111.84395 
L 936.858523 110.725881 
L 937.321701 116.368956 
L 938.248058 156.847553 
L 938.711236 154.005017 
L 939.174414 153.063363 
L 939.637592 156.368926 
L 940.563948 144.773915 
L 941.027127 125.167443 
L 941.490305 100.563987 
L 941.953483 96.764393 
L 942.416661 91.42557 
L 942.879839 90.792644 
L 943.343017 93.498393 
L 943.806196 90.378001 
L 944.269374 85.149437 
L 945.19573 103.717161 
L 945.658908 111.962373 
L 946.122086 107.249826 
L 947.048443 121.438021 
L 947.511621 128.501246 
L 947.974799 124.878068 
L 948.437977 117.087062 
L 948.901155 117.256829 
L 949.364334 112.090011 
L 950.29069 98.40447 
L 950.753868 94.384356 
L 951.217046 93.85287 
L 951.680224 90.428161 
L 952.143403 79.986503 
L 952.606581 87.124704 
L 953.069759 87.391501 
L 953.532937 83.097942 
L 954.459293 93.965105 
L 954.922472 101.6943 
L 955.38565 105.458545 
L 955.848828 107.957004 
L 956.312006 112.029977 
L 956.775184 121.439535 
L 957.238362 118.151548 
L 957.701541 113.072938 
L 958.164719 109.952546 
L 958.627897 112.548034 
L 959.091075 112.819241 
L 959.554253 111.90846 
L 960.017431 106.327065 
L 960.48061 105.81322 
L 961.406966 96.617467 
L 961.870144 95.287699 
L 962.333322 99.67381 
L 962.7965 92.994224 
L 963.259679 105.34993 
L 964.186035 116.327353 
L 964.649213 116.920519 
L 965.112391 113.628122 
L 965.575569 120.422312 
L 966.038748 150.970923 
L 967.428282 132.960951 
L 967.89146 138.899523 
L 968.354638 155.65681 
L 968.817817 149.272721 
L 969.280995 123.509329 
L 969.744173 118.263124 
L 970.207351 117.131823 
L 970.670529 117.486828 
L 971.133707 115.155898 
L 971.596886 98.155973 
L 972.523242 88.541233 
L 972.98642 90.448698 
L 973.449598 91.209459 
L 973.912776 91.692365 
L 974.375955 82.961943 
L 974.839133 85.967599 
L 975.765489 114.714528 
L 976.228667 122.232024 
L 976.691845 139.293629 
L 977.155024 136.896543 
L 977.618202 147.72184 
L 978.08138 152.152055 
L 978.544558 137.410256 
L 979.007736 133.403373 
L 979.470914 131.487021 
L 979.934093 119.80163 
L 980.397271 112.050317 
L 980.860449 108.10518 
L 981.323627 109.496629 
L 981.786805 109.719321 
L 982.249983 106.06086 
L 982.713162 107.381742 
L 983.17634 101.778295 
L 983.639518 118.438553 
L 984.102696 120.14755 
L 984.565874 110.243961 
L 985.029052 109.584573 
L 985.492231 112.515252 
L 985.955409 105.681302 
L 986.418587 107.213884 
L 986.881765 100.349061 
L 987.344943 98.732616 
L 987.808121 97.804194 
L 988.2713 95.032224 
L 988.734478 94.302269 
L 989.197656 91.658201 
L 989.660834 79.822856 
L 990.124012 79.361936 
L 990.58719 81.609003 
L 991.050369 86.211224 
L 991.976725 78.188638 
L 992.439903 76.051766 
L 992.903081 75.520279 
L 993.829438 67.303636 
L 994.292616 68.845038 
L 994.755794 80.477439 
L 995.218972 81.952685 
L 995.68215 85.813958 
L 996.145328 108.392975 
L 996.608507 118.274446 
L 997.071685 145.594644 
L 997.998041 142.313897 
L 998.461219 132.999722 
L 998.924397 141.203661 
L 999.387576 142.143669 
L 999.850754 134.827406 
L 1000.313932 136.653904 
L 1000.77711 105.539116 
L 1001.703466 128.146767 
L 1002.166645 129.904279 
L 1002.629823 130.250463 
L 1003.093001 134.768886 
L 1003.556179 135.366462 
L 1004.019357 147.400209 
L 1004.482535 146.899596 
L 1004.945714 147.069363 
L 1005.408892 145.479381 
L 1005.87207 162.439546 
L 1006.335248 157.947519 
L 1006.798426 159.533025 
L 1007.261604 166.979955 
L 1007.724783 164.066852 
L 1008.187961 162.185783 
L 1008.651139 161.349979 
L 1009.114317 155.931768 
L 1009.577495 169.932554 
L 1010.040673 170.291969 
L 1010.503852 165.786711 
L 1010.96703 172.214838 
L 1011.430208 175.097002 
L 1011.893386 182.588036 
L 1012.356564 180.640811 
L 1013.282921 159.140039 
L 1013.746099 152.945597 
L 1014.209277 140.497207 
L 1014.672455 151.384249 
L 1015.135633 153.088837 
L 1015.598811 152.817564 
L 1016.06199 150.649819 
L 1016.525168 174.732782 
L 1016.988346 181.055059 
L 1017.451524 190.486669 
L 1017.914702 181.795941 
L 1018.37788 169.810642 
L 1019.304237 175.376503 
L 1019.767415 150.26144 
L 1020.230593 147.286592 
L 1020.693771 147.103527 
L 1021.156949 141.29279 
L 1021.620127 150.287771 
L 1022.083306 146.532281 
L 1022.546484 151.169785 
L 1023.009662 154.325394 
L 1023.47284 158.729147 
L 1023.936018 157.686054 
L 1024.399196 167.047098 
L 1024.862375 161.747968 
L 1025.325553 168.484823 
L 1025.788731 172.469588 
L 1026.251909 187.158396 
L 1026.715087 189.542185 
L 1027.178265 197.981455 
L 1027.641444 200.493146 
L 1028.104622 202.307993 
L 1028.5678 202.843824 
L 1029.030978 202.771019 
L 1029.494156 209.851885 
L 1029.957334 208.985209 
L 1030.420513 207.099729 
L 1030.883691 201.209605 
L 1031.346869 200.047432 
L 1031.810047 202.175417 
L 1032.273225 197.052703 
L 1032.736403 193.923491 
L 1033.199582 196.823297 
L 1033.66276 201.619575 
L 1034.125938 195.257538 
L 1034.589116 205.236038 
L 1035.052294 201.004225 
L 1035.515472 200.790288 
L 1035.978651 190.952855 
L 1036.905007 199.553072 
L 1037.368185 195.744657 
L 1038.294541 176.647554 
L 1038.75772 177.690581 
L 1039.220898 175.646327 
L 1040.147254 158.617702 
L 1040.610432 175.141237 
L 1041.536789 187.521168 
L 1041.999967 188.696507 
L 1042.463145 198.882296 
L 1042.926323 200.99264 
L 1043.389501 194.207204 
L 1043.852679 182.865825 
L 1044.315858 179.414653 
L 1044.779036 187.93331 
L 1045.242214 187.03576 
L 1045.705392 183.403762 
L 1046.631748 208.128406 
L 1047.094927 205.920967 
L 1047.558105 208.278293 
L 1048.484461 191.783327 
L 1048.947639 197.351425 
L 1049.410817 174.785574 
L 1049.873996 174.968573 
L 1050.337174 187.707984 
L 1050.800352 192.905609 
L 1051.26353 202.844416 
L 1051.726708 217.903698 
L 1052.189886 207.550248 
L 1052.653065 220.585156 
L 1053.116243 209.208493 
L 1053.579421 210.679329 
L 1054.042599 218.082154 
L 1054.505777 211.102662 
L 1054.968955 209.587656 
L 1055.432134 213.135791 
L 1055.895312 206.209223 
L 1056.35849 216.690508 
L 1056.821668 211.060598 
L 1057.284846 195.529337 
L 1057.748024 196.42241 
L 1058.211203 200.468921 
L 1058.674381 197.039801 
L 1059.137559 199.957248 
L 1059.600737 200.224045 
L 1060.527093 217.4907 
L 1060.990272 219.706893 
L 1061.45345 208.722756 
L 1061.916628 203.2428 
L 1062.379806 201.039771 
L 1062.842984 190.324669 
L 1063.306162 192.148337 
L 1064.232519 174.466972 
L 1065.158875 183.380327 
L 1065.622053 184.979065 
L 1066.085231 187.274646 
L 1066.54841 162.578571 
L 1067.011588 164.52132 
L 1067.937944 152.516141 
L 1068.401122 154.798491 
L 1068.8643 146.614959 
L 1069.327479 152.804924 
L 1069.790657 169.363743 
L 1070.253835 169.110112 
L 1071.180191 179.474489 
L 1071.643369 182.515428 
L 1072.106548 188.67011 
L 1072.569726 181.205473 
L 1073.032904 177.101561 
L 1073.95926 178.274662 
L 1074.422438 171.145216 
L 1075.348795 147.143746 
L 1076.738329 126.522816 
L 1077.201507 125.589983 
L 1077.664686 129.195453 
L 1078.127864 126.030958 
L 1078.591042 129.239492 
L 1079.05422 136.271843 
L 1079.517398 149.571376 
L 1079.980576 150.217466 
L 1080.443755 145.747492 
L 1080.906933 137.339029 
L 1081.370111 143.961213 
L 1081.833289 146.036274 
L 1082.296467 142.263143 
L 1083.222824 124.674397 
L 1083.686002 125.990869 
L 1084.14918 124.026002 
L 1084.612358 119.966195 
L 1085.075536 121.185638 
L 1085.538714 107.594953 
L 1086.001893 105.171405 
L 1086.465071 109.434025 
L 1086.928249 111.11656 
L 1087.854605 129.829827 
L 1088.317783 131.406512 
L 1088.780962 145.773362 
L 1089.24414 145.638811 
L 1089.707318 144.886805 
L 1091.096852 109.905609 
L 1091.560031 111.976259 
L 1092.023209 137.611684 
L 1092.486387 141.715529 
L 1092.949565 144.412456 
L 1093.412743 156.031626 
L 1093.875921 158.547727 
L 1094.3391 163.172 
L 1094.802278 157.295107 
L 1095.265456 134.208829 
L 1095.728634 128.627433 
L 1096.191812 131.244973 
L 1096.65499 132.133636 
L 1097.581347 149.347366 
L 1098.044525 166.532462 
L 1098.507703 157.47126 
L 1098.970881 152.705788 
L 1099.434059 160.439394 
L 1099.897238 157.270488 
L 1100.360416 157.021267 
L 1100.823594 156.048741 
L 1101.286772 134.439947 
L 1101.74995 133.445368 
L 1102.213128 144.641139 
L 1102.676307 135.244746 
L 1103.602663 139.774162 
L 1104.065841 134.131021 
L 1105.455376 159.135692 
L 1105.918554 159.464234 
L 1106.381732 162.006798 
L 1106.84491 159.883156 
L 1107.308088 161.451021 
L 1108.697623 115.567313 
L 1109.160801 109.35523 
L 1110.087157 82.292942 
L 1110.550335 80.910248 
L 1111.476692 104.594037 
L 1111.93987 98.920023 
L 1112.403048 106.23464 
L 1112.866226 108.459655 
L 1114.255761 123.695287 
L 1114.718939 124.835343 
L 1115.182117 128.158547 
L 1115.645295 122.268424 
L 1116.571652 129.585214 
L 1117.03483 124.436037 
L 1117.498008 115.096979 
L 1118.424364 135.958112 
L 1118.887542 134.937071 
L 1119.813899 124.515227 
L 1120.277077 124.993722 
L 1120.740255 129.084337 
L 1121.203433 121.694676 
L 1121.666611 112.029249 
L 1122.129789 112.45482 
L 1122.592968 115.129695 
L 1123.056146 122.219382 
L 1123.519324 124.104796 
L 1124.44568 112.492144 
L 1124.908858 113.270547 
L 1125.372037 113.210973 
L 1125.835215 118.677633 
L 1126.298393 121.533335 
L 1126.761571 116.983973 
L 1127.224749 118.741485 
L 1127.687927 116.123879 
L 1128.614284 101.009368 
L 1129.077462 98.497611 
L 1129.54064 90.464032 
L 1130.003818 90.285378 
L 1130.466996 93.105797 
L 1130.930175 91.13652 
L 1131.393353 90.949045 
L 1131.856531 94.841191 
L 1132.319709 89.855199 
L 1132.782887 87.850639 
L 1133.246065 87.971892 
L 1133.709244 83.947368 
L 1134.6356 98.514858 
L 1135.098778 94.856397 
L 1135.561956 97.937029 
L 1136.025134 94.450574 
L 1136.488313 89.826236 
L 1136.951491 82.004356 
L 1137.414669 70.15137 
L 1137.877847 66.982463 
L 1138.341025 65.291042 
L 1138.804203 67.255842 
L 1139.267382 70.848081 
L 1139.73056 73.037813 
L 1140.193738 78.844073 
L 1140.656916 94.026846 
L 1141.120094 89.781802 
L 1141.583272 82.105466 
L 1142.046451 79.651045 
L 1142.509629 80.632326 
L 1143.435985 104.576329 
L 1143.899163 98.844979 
L 1144.362341 99.583689 
L 1144.82552 116.72027 
L 1145.288698 127.532336 
L 1145.751876 130.846719 
L 1146.215054 150.192912 
L 1146.678232 150.089234 
L 1147.14141 147.431934 
L 1147.604589 153.123524 
L 1148.067767 154.219476 
L 1148.530945 148.505768 
L 1148.994123 150.655806 
L 1149.457301 120.786331 
L 1149.920479 111.248805 
L 1150.383658 116.847776 
L 1150.846836 108.968562 
L 1151.773192 85.800658 
L 1152.23637 77.127571 
L 1152.699548 77.275286 
L 1153.162727 82.649327 
L 1153.625905 74.311431 
L 1154.089083 74.992805 
L 1154.552261 102.339465 
L 1155.015439 143.03641 
L 1155.478617 149.94086 
L 1156.404974 154.849571 
L 1156.868152 159.822265 
L 1157.33133 167.21186 
L 1157.794508 146.172008 
L 1158.257686 111.55253 
L 1158.720865 103.876194 
L 1159.184043 100.155987 
L 1159.647221 99.994975 
L 1160.110399 102.652209 
L 1160.573577 108.753966 
L 1161.036755 120.439291 
L 1161.499934 119.652001 
L 1161.963112 122.296004 
L 1162.889468 139.68615 
L 1163.815824 144.043561 
L 1164.279003 141.452417 
L 1164.742181 145.503338 
L 1165.205359 144.129465 
L 1165.668537 140.157866 
L 1166.131715 124.750096 
L 1166.594893 122.498553 
L 1167.058072 111.430618 
L 1167.52125 107.864776 
L 1167.984428 107.624376 
L 1168.447606 113.995168 
L 1168.910784 103.55351 
L 1169.373962 104.609768 
L 1169.837141 111.152566 
L 1170.300319 114.171452 
L 1170.763497 115.373254 
L 1171.226675 101.588512 
L 1172.153031 113.002564 
L 1172.61621 121.141927 
L 1173.079388 117.973021 
L 1173.542566 126.619579 
L 1174.005744 131.451141 
L 1174.468922 147.613024 
L 1174.9321 149.890963 
L 1175.395279 152.817231 
L 1175.858457 160.991877 
L 1176.321635 161.523298 
L 1176.784813 160.396407 
L 1177.247991 154.36515 
L 1177.711169 158.918857 
L 1178.637526 162.42506 
L 1179.100704 156.292364 
L 1180.02706 172.288824 
L 1180.490238 181.954185 
L 1180.953417 183.138345 
L 1181.416595 168.237771 
L 1181.879773 163.36204 
L 1182.342951 157.158777 
L 1182.806129 145.610109 
L 1183.732486 133.565237 
L 1184.195664 134.12312 
L 1184.658842 145.817266 
L 1185.12202 151.605885 
L 1185.585198 160.384756 
L 1186.048376 166.636466 
L 1186.511555 150.39072 
L 1186.974733 141.620605 
L 1187.437911 129.23837 
L 1187.901089 123.361477 
L 1188.364267 121.797957 
L 1188.827445 117.751381 
L 1189.290624 123.592925 
L 1190.21698 164.860984 
L 1190.680158 176.991759 
L 1191.143336 180.517842 
L 1191.606514 177.234266 
L 1192.069693 176.133838 
L 1192.532871 163.420823 
L 1192.996049 158.774432 
L 1193.459227 151.274512 
L 1193.922405 150.848875 
L 1194.848762 174.400352 
L 1195.31194 180.83289 
L 1195.775118 192.253591 
L 1196.701474 205.740532 
L 1197.164652 209.363644 
L 1197.627831 197.493016 
L 1198.091009 194.041844 
L 1198.554187 194.08371 
L 1199.017365 189.371163 
L 1199.480543 188.575053 
L 1199.943721 181.70582 
L 1200.4069 179.868855 
L 1200.870078 195.188351 
L 1201.333256 202.908725 
L 1201.796434 205.993768 
L 1202.259612 215.672361 
L 1203.649147 225.981575 
L 1204.112325 221.299901 
L 1204.575503 226.197619 
L 1205.038681 228.510841 
L 1205.501859 234.453824 
L 1205.965038 225.965974 
L 1206.428216 226.863458 
L 1207.354572 216.423972 
L 1207.81775 206.26458 
L 1208.280928 206.80041 
L 1210.596819 254.906698 
L 1211.059997 268.422339 
L 1211.523176 272.596751 
L 1211.986354 262.565261 
L 1212.449532 263.533311 
L 1212.91271 268.717705 
L 1213.375888 263.899308 
L 1213.839066 263.257562 
L 1214.765423 270.428809 
L 1215.228601 276.186555 
L 1215.691779 285.353541 
L 1216.154957 275.666061 
L 1216.618135 275.968141 
L 1217.081314 261.173417 
L 1218.00767 248.127384 
L 1218.934026 219.322988 
L 1219.397204 217.199346 
L 1219.860382 227.305748 
L 1220.323561 245.712525 
L 1221.249917 250.555738 
L 1221.713095 248.598112 
L 1222.639451 264.807522 
L 1223.565808 263.031315 
L 1224.028986 260.143094 
L 1224.492164 253.47674 
L 1224.955342 259.971023 
L 1225.41852 264.20718 
L 1226.344877 261.997503 
L 1226.808055 254.894519 
L 1227.271233 251.324267 
L 1227.734411 252.451091 
L 1228.197589 247.478331 
L 1228.660768 238.527389 
L 1229.123946 224.103138 
L 1229.587124 220.409394 
L 1230.050302 221.593554 
L 1230.51348 221.666293 
L 1230.976658 213.659176 
L 1231.439837 214.080337 
L 1231.903015 204.207621 
L 1232.366193 209.131801 
L 1232.829371 205.90997 
L 1233.292549 206.714835 
L 1233.755727 217.575415 
L 1234.218906 219.487291 
L 1234.682084 219.026371 
L 1235.145262 223.928499 
L 1235.60844 234.965496 
L 1236.071618 234.508986 
L 1236.534796 218.801309 
L 1236.997975 211.588065 
L 1237.461153 225.385972 
L 1237.924331 219.62375 
L 1238.387509 221.513574 
L 1238.850687 220.792441 
L 1239.313865 239.77257 
L 1239.777044 253.552835 
L 1240.240222 238.471435 
L 1240.7034 227.108004 
L 1241.166578 239.887108 
L 1241.629756 230.367224 
L 1242.092934 227.154214 
L 1242.556113 222.406384 
L 1243.019291 226.351455 
L 1243.482469 236.700429 
L 1243.945647 239.609056 
L 1244.408825 236.506305 
L 1244.872003 244.89265 
L 1245.335182 248.259959 
L 1245.79836 238.065283 
L 1246.261538 224.633373 
L 1246.724716 215.157593 
L 1247.187894 214.427639 
L 1247.651072 206.367598 
L 1248.114251 201.694745 
L 1248.577429 189.665342 
L 1249.040607 181.989006 
L 1249.503785 185.647401 
L 1249.966963 187.969444 
L 1250.430141 181.951419 
L 1250.89332 177.970999 
L 1251.356498 175.851768 
L 1251.819676 160.338149 
L 1252.282854 165.412282 
L 1252.746032 160.479216 
L 1253.20921 165.623916 
L 1253.672389 168.598699 
L 1254.135567 173.615497 
L 1254.598745 173.18986 
L 1255.061923 181.981962 
L 1255.525101 184.052613 
L 1255.988279 189.082643 
L 1256.451458 188.114527 
L 1256.914636 177.783129 
L 1257.377814 173.630703 
L 1257.840992 171.718761 
L 1258.30417 176.51504 
L 1258.767348 174.651612 
L 1259.230527 169.98758 
L 1259.693705 169.438452 
L 1260.156883 163.67623 
L 1260.620061 154.773802 
L 1261.083239 159.795011 
L 1262.009596 148.508728 
L 1262.935952 143.255874 
L 1263.39913 151.858329 
L 1263.862308 155.635805 
L 1264.325486 144.594332 
L 1264.788665 136.600447 
L 1265.251843 133.012553 
L 1265.715021 130.963889 
L 1266.178199 129.616478 
L 1267.104555 116.40726 
L 1267.567734 125.181721 
L 1268.030912 136.36426 
L 1268.49409 151.586727 
L 1268.957268 153.68384 
L 1269.420446 154.197619 
L 1269.883624 155.747842 
L 1270.346803 157.915521 
L 1270.809981 149.617319 
L 1271.736337 130.740735 
L 1272.199515 124.753583 
L 1272.662693 116.380403 
L 1273.125872 120.39604 
L 1273.58905 119.004526 
L 1274.052228 118.786178 
L 1274.515406 119.326419 
L 1274.978584 107.274965 
L 1275.904941 119.090364 
L 1276.368119 116.697688 
L 1276.831297 122.089371 
L 1277.294475 117.138663 
L 1277.757653 117.52454 
L 1278.220831 122.404616 
L 1279.147188 108.154544 
L 1279.610366 108.897663 
L 1280.073544 115.744778 
L 1280.536722 131.575881 
L 1280.9999 137.615892 
L 1281.463079 141.904975 
L 1281.926257 142.978874 
L 1282.389435 153.879148 
L 1282.852613 159.120877 
L 1283.315791 156.168081 
L 1283.778969 151.08506 
L 1284.705326 155.773251 
L 1285.168504 164.472735 
L 1285.631682 161.175927 
L 1286.09486 162.188081 
L 1286.558038 162.834172 
L 1288.410751 188.873049 
L 1288.873929 191.137757 
L 1289.337107 191.501582 
L 1289.800286 187.776966 
L 1290.263464 186.636844 
L 1290.726642 184.92337 
L 1291.18982 176.170896 
L 1291.652998 173.848787 
L 1292.116176 170.723984 
L 1292.579355 164.701549 
L 1293.042533 167.574892 
L 1293.505711 169.433843 
L 1293.968889 173.850827 
L 1294.432067 172.984151 
L 1294.895245 181.238184 
L 1295.358424 191.573926 
L 1295.821602 196.559852 
L 1296.747958 184.95161 
L 1297.211136 173.292681 
L 1297.674314 169.934128 
L 1298.137493 149.511732 
L 1298.600671 143.489296 
L 1299.063849 143.037197 
L 1299.527027 161.765933 
L 1299.990205 155.875809 
L 1300.453383 152.358481 
L 1300.916562 152.338601 
L 1301.37974 155.4898 
L 1301.842918 152.444385 
L 1302.306096 147.652451 
L 1302.769274 125.990732 
L 1303.232452 124.722709 
L 1303.695631 122.832819 
L 1304.158809 116.466372 
L 1304.621987 117.998954 
L 1305.085165 117.820299 
L 1305.548343 109.711744 
L 1306.011521 104.875706 
L 1306.4747 105.327739 
L 1306.937878 107.671834 
L 1308.79059 86.387106 
L 1309.253769 93.463562 
L 1309.716947 92.495446 
L 1310.180125 89.4368 
L 1310.643303 96.945475 
L 1311.106481 98.702987 
L 1311.569659 102.6657 
L 1312.032838 115.083152 
L 1312.496016 120.98203 
L 1312.959194 129.782953 
L 1313.422372 142.989867 
L 1313.88555 159.764795 
L 1314.348728 165.888604 
L 1314.811907 158.816493 
L 1316.201441 131.685811 
L 1317.127797 93.862144 
L 1317.590975 89.339244 
L 1318.054154 94.051725 
L 1318.517332 92.126552 
L 1318.98051 96.309785 
L 1319.443688 97.758569 
L 1319.906866 110.259818 
L 1320.370044 116.017564 
L 1320.833223 125.912266 
L 1321.296401 130.514487 
L 1321.759579 141.913136 
L 1322.222757 142.118187 
L 1322.685935 143.297936 
L 1323.149113 138.69565 
L 1323.612292 132.390948 
L 1324.07547 132.798877 
L 1324.538648 144.479792 
L 1325.001826 132.110789 
L 1325.465004 137.533344 
L 1325.928182 144.795037 
L 1326.391361 138.481515 
L 1326.854539 142.095806 
L 1327.317717 143.496075 
L 1327.780895 130.871269 
L 1328.244073 135.327946 
L 1328.707251 130.297851 
L 1329.17043 120.623603 
L 1329.633608 126.341655 
L 1330.559964 133.942949 
L 1331.023142 131.726689 
L 1331.48632 132.540375 
L 1331.949499 139.82412 
L 1332.412677 150.649417 
L 1332.875855 148.662498 
L 1333.339033 153.255898 
L 1333.802211 156.036623 
L 1334.265389 145.731688 
L 1334.728568 141.693933 
L 1335.191746 138.930783 
L 1335.654924 135.012109 
L 1336.118102 145.960897 
L 1336.58128 149.875095 
L 1337.044458 147.742633 
L 1337.507637 165.439335 
L 1337.970815 169.238863 
L 1338.897171 183.33444 
L 1339.360349 183.764421 
L 1339.823527 184.798627 
L 1340.286706 185.224198 
L 1340.749884 201.937381 
L 1341.213062 204.263834 
L 1341.67624 200.543628 
L 1342.139418 191.689715 
L 1342.602596 179.924936 
L 1343.065775 179.314063 
L 1343.528953 184.21178 
L 1343.992131 153.283809 
L 1344.455309 157.634636 
L 1344.918487 171.741272 
L 1345.381665 171.289173 
L 1345.844844 185.029745 
L 1346.308022 176.092034 
L 1346.7712 169.350703 
L 1347.234378 171.897677 
L 1347.697556 161.173753 
L 1348.160734 144.381117 
L 1348.623913 154.156739 
L 1349.087091 152.407982 
L 1349.550269 158.386248 
L 1356.034763 163.219982 
L 1356.497941 175.117006 
L 1356.96112 175.635195 
L 1357.424298 163.358811 
L 1358.350654 154.502659 
L 1358.813832 156.02642 
L 1359.27701 151.309463 
L 1359.740189 142.548168 
L 1360.203367 146.929868 
L 1360.666545 145.798567 
L 1361.129723 142.929568 
L 1361.592901 154.103287 
L 1362.056079 157.554393 
L 1362.519258 167.074211 
L 1362.982436 162.233763 
L 1363.445614 172.873823 
L 1363.908792 180.148747 
L 1364.37197 181.050641 
L 1364.835148 181.308617 
L 1365.298327 174.262968 
L 1366.224683 190.343225 
L 1366.687861 182.02297 
L 1367.151039 193.470134 
L 1367.614217 194.314693 
L 1368.077396 193.350987 
L 1368.540574 184.858727 
L 1369.003752 182.082346 
L 1369.46693 172.677132 
L 1369.930108 175.352008 
L 1370.393286 160.169169 
L 1370.856465 172.401384 
L 1371.319643 176.18768 
L 1371.782821 188.071473 
L 1372.245999 188.020721 
L 1372.709177 207.732976 
L 1373.172355 206.156225 
L 1373.635534 206.467125 
L 1374.098712 200.316788 
L 1374.56189 199.498626 
L 1375.025068 204.237569 
L 1375.488246 207.547542 
L 1375.951424 208.969864 
L 1376.414603 217.351798 
L 1376.877781 221.288048 
L 1377.804137 244.385254 
L 1378.267315 251.126519 
L 1378.730493 250.374513 
L 1379.193672 242.971622 
L 1379.65685 240.680385 
L 1380.120028 243.271463 
L 1380.583206 244.19982 
L 1381.509562 223.753134 
L 1381.972741 222.008787 
L 1382.435919 226.377256 
L 1382.899097 233.070007 
L 1383.362275 236.415264 
L 1383.825453 230.820637 
L 1384.288631 221.353678 
L 1384.75181 232.408316 
L 1385.214988 238.562998 
L 1385.678166 238.02269 
L 1386.141344 233.345427 
L 1387.0677 238.968623 
L 1387.530879 255.809707 
L 1387.994057 240.565122 
L 1388.457235 231.812648 
L 1388.920413 235.519557 
L 1389.383591 217.033327 
L 1389.846769 215.249287 
L 1390.309948 218.396076 
L 1391.699482 205.167044 
L 1392.16266 222.162492 
L 1392.625838 220.90329 
L 1393.089017 211.612747 
L 1393.552195 235.250259 
L 1394.015373 225.192306 
L 1394.478551 204.972789 
L 1394.941729 215.73634 
L 1395.404907 202.560234 
L 1396.331264 206.262732 
L 1398.183976 202.890948 
L 1398.647155 188.427004 
L 1399.110333 197.448447 
L 1399.573511 209.160234 
L 1400.036689 189.408219 
L 1400.499867 192.859325 
L 1400.963045 191.547198 
L 1402.35258 196.140598 
L 1402.815758 199.609346 
L 1403.278936 199.695316 
L 1403.742114 191.300084 
L 1404.668471 200.855185 
L 1405.131649 188.980147 
L 1405.594827 181.643412 
L 1406.058005 178.549482 
L 1406.521183 179.945341 
L 1406.984362 178.646445 
L 1407.44754 183.998434 
L 1407.910718 186.34253 
L 1408.373896 194.508355 
L 1409.300252 186.113123 
L 1409.763431 175.649413 
L 1411.152965 156.400184 
L 1411.616143 141.371708 
L 1412.5425 131.34239 
L 1414.395212 132.539781 
L 1414.85839 143.978124 
L 1415.321568 150.50328 
L 1416.247925 174.31056 
L 1416.711103 171.909063 
L 1417.174281 165.03101 
L 1417.637459 161.804768 
L 1418.100637 157.696447 
L 1418.563816 158.139659 
L 1419.026994 154.022516 
L 1419.490172 148.520508 
L 1419.95335 149.457685 
L 1420.416528 153.601224 
L 1420.879706 150.811613 
L 1421.342885 155.943082 
L 1421.806063 156.351011 
L 1422.269241 149.587628 
L 1423.195597 133.516059 
L 1423.658775 135.533785 
L 1425.04831 126.490159 
L 1425.511488 129.292936 
L 1425.974666 136.647247 
L 1426.437844 147.009452 
L 1426.901023 153.622815 
L 1427.364201 164.589245 
L 1427.827379 162.716997 
L 1428.290557 158.776271 
L 1428.753735 164.511965 
L 1429.216913 166.917805 
L 1429.680092 157.671366 
L 1430.606448 129.907824 
L 1431.069626 128.423692 
L 1431.532804 145.74992 
L 1431.995982 132.273906 
L 1432.459161 127.953885 
L 1432.922339 130.888974 
L 1433.385517 128.685946 
L 1433.848695 130.483151 
L 1434.311873 123.472786 
L 1434.775051 111.51836 
L 1435.23823 116.685112 
L 1435.701408 115.117182 
L 1436.164586 105.711968 
L 1436.627764 115.765445 
L 1437.090942 109.937067 
L 1437.55412 114.010039 
L 1438.017299 116.781944 
L 1438.480477 123.708446 
L 1439.406833 121.392919 
L 1439.870011 115.564541 
L 1440.796368 168.458418 
L 1441.259546 178.375172 
L 1442.185902 168.553142 
L 1442.64908 173.256803 
L 1443.112258 172.716495 
L 1443.575437 158.301066 
L 1444.501793 116.913795 
L 1444.964971 120.303155 
L 1445.428149 126.365219 
L 1445.891327 117.154063 
L 1446.354506 112.128378 
L 1446.817684 108.84039 
L 1447.280862 96.669855 
L 1447.74404 107.204066 
L 1448.207218 103.836691 
L 1448.670396 103.274332 
L 1449.133575 107.439923 
L 1449.596753 116.995025 
L 1450.059931 105.763905 
L 1450.523109 107.045094 
L 1450.986287 102.513374 
L 1452.375822 115.980435 
L 1452.839 105.626985 
L 1453.765356 99.17233 
L 1454.228534 101.807512 
L 1454.691713 97.086144 
L 1455.154891 84.937661 
L 1455.618069 79.351855 
L 1456.081247 70.991906 
L 1457.007603 89.078896 
L 1457.470782 86.042302 
L 1457.93396 91.301673 
L 1458.397138 105.655291 
L 1458.860316 113.221301 
L 1459.323494 128.514335 
L 1459.786672 124.626533 
L 1460.249851 128.412829 
L 1460.713029 133.641327 
L 1461.176207 136.907196 
L 1461.639385 133.667724 
L 1462.102563 131.570545 
L 1462.565741 128.511899 
L 1463.02892 124.500606 
L 1463.492098 116.4979 
L 1463.955276 119.040463 
L 1464.418454 127.77082 
L 1464.881632 131.499781 
L 1465.34481 139.934641 
L 1465.807989 144.259006 
L 1466.271167 171.830597 
L 1466.734345 212.439333 
L 1467.660701 224.524425 
L 1468.587058 202.998442 
L 1469.050236 186.433567 
L 1469.513414 178.96294 
L 1469.976592 158.613941 
L 1470.43977 132.3109 
L 1470.902948 131.999934 
L 1471.829305 158.748951 
L 1472.292483 165.252055 
L 1472.755661 163.203391 
L 1473.682017 148.022724 
L 1474.145196 130.268621 
L 1475.53473 108.54509 
L 1475.997908 126.255024 
L 1477.387443 143.100453 
L 1477.850621 141.977973 
L 1478.313799 142.434416 
L 1478.776977 147.958411 
L 1479.240155 136.872834 
L 1479.703334 145.36944 
L 1480.166512 144.665948 
L 1480.62969 145.338501 
L 1481.092868 141.278694 
L 1481.556046 138.502313 
L 1482.019224 139.338051 
L 1482.482403 133.47439 
L 1482.945581 130.442206 
L 1483.408759 121.583882 
L 1483.871937 121.881551 
L 1485.261472 149.347226 
L 1485.72465 163.899312 
L 1486.187828 166.92261 
L 1486.651006 172.001154 
L 1487.114184 172.501701 
L 1487.577362 162.818632 
L 1488.040541 156.575677 
L 1488.503719 159.969447 
L 1488.966897 159.415909 
L 1489.430075 160.520682 
L 1489.893253 169.012876 
L 1490.356431 174.347224 
L 1490.81961 182.389558 
L 1491.282788 186.074415 
L 1491.745966 181.873475 
L 1492.209144 180.045331 
L 1493.598679 156.535588 
L 1494.061857 155.995281 
L 1494.525035 158.767185 
L 1495.451391 150.440282 
L 1496.377748 166.820446 
L 1496.840926 177.195882 
L 1497.304104 178.724053 
L 1497.767282 172.569305 
L 1498.693638 191.635404 
L 1500.546351 166.196078 
L 1501.472707 190.263572 
L 1501.935886 179.804272 
L 1502.862242 187.703235 
L 1503.32542 182.183585 
L 1503.788598 181.590353 
L 1504.251776 168.334859 
L 1504.714955 145.936603 
L 1505.178133 152.108927 
L 1505.641311 150.765927 
L 1506.104489 145.815219 
L 1506.567667 145.195524 
L 1507.030845 135.186086 
L 1507.494024 137.794805 
L 1507.957202 155.121034 
L 1508.883558 135.587301 
L 1509.346736 133.428376 
L 1509.809914 139.084683 
L 1510.273093 150.56713 
L 1510.736271 152.911225 
L 1511.199449 145.640646 
L 1511.662627 157.118682 
L 1512.125805 164.265704 
L 1513.052161 191.424889 
L 1513.51534 179.955608 
L 1513.978518 179.150677 
L 1514.441696 180.061392 
L 1514.904874 184.676844 
L 1515.368052 196.445967 
L 1516.294409 179.077741 
L 1516.757587 202.274213 
L 1517.683943 222.473785 
L 1518.147121 221.664444 
L 1518.610299 224.202597 
L 1519.073478 233.99586 
L 1519.536656 235.127095 
L 1519.999834 226.162921 
L 1520.463012 223.686448 
L 1520.92619 210.774965 
L 1521.389368 206.040367 
L 1521.852547 198.487522 
L 1522.315725 209.43631 
L 1522.778903 228.284127 
L 1523.242081 242.090855 
L 1524.168437 255.604259 
L 1524.631616 254.464137 
L 1525.094794 252.799178 
L 1526.484328 190.940996 
L 1527.410685 170.154709 
L 1527.873863 168.216304 
L 1528.337041 169.603343 
L 1528.800219 177.389873 
L 1529.263397 182.119996 
L 1529.726575 194.065535 
L 1530.189754 192.493194 
L 1530.652932 205.025316 
L 1532.042466 226.528129 
L 1532.505644 224.726447 
L 1532.968823 216.931029 
L 1533.432001 229.211759 
L 1533.895179 231.238305 
L 1534.821535 218.156989 
L 1535.284713 211.32304 
L 1536.21107 243.946712 
L 1536.674248 234.219539 
L 1537.137426 232.810383 
L 1538.526961 265.030471 
L 1538.990139 258.240625 
L 1539.453317 254.013222 
L 1539.916495 261.746828 
L 1540.379673 267.094407 
L 1540.842851 270.157398 
L 1541.30603 278.257067 
L 1541.769208 280.093966 
L 1542.232386 281.467773 
L 1543.158742 291.880664 
L 1543.62192 287.909065 
L 1544.085099 288.502231 
L 1544.548277 272.141815 
L 1545.011455 272.029317 
L 1545.474633 278.999923 
L 1546.400989 287.719879 
L 1546.864168 288.615782 
L 1547.790524 281.075181 
L 1548.253702 279.117555 
L 1548.71688 273.64484 
L 1549.180058 273.102953 
L 1549.643237 270.913156 
L 1550.106415 275.303677 
L 1550.569593 276.995033 
L 1551.032771 280.529937 
L 1551.495949 289.573432 
L 1551.959127 295.569339 
L 1552.422306 295.417148 
L 1552.885484 287.582037 
L 1553.348662 274.441213 
L 1553.81184 270.482845 
L 1554.275018 268.054887 
L 1554.738196 271.651536 
L 1555.201375 269.227987 
L 1555.664553 264.237585 
L 1556.127731 266.206797 
L 1556.590909 269.221273 
L 1556.590909 269.221273 
" clip-path="url(#paf243c2344)" style="fill: none; stroke: #35ae97; stroke-width: 2.5; stroke-linecap: square"/>
   </g>
   <g id="patch_3">
    <path d="M 225 320.4 
L 225 43.2 
" style="fill: none; stroke: #000000; stroke-width: 0.8; stroke-linejoin: miter; stroke-linecap: square"/>
   </g>
   <g id="patch_4">
    <path d="M 1620 320.4 
L 1620 43.2 
" style="fill: none; stroke: #000000; stroke-width: 0.8; stroke-linejoin: miter; stroke-linecap: square"/>
   </g>
   <g id="patch_5">
    <path d="M 225 320.4 
L 1620 320.4 
" style="fill: none; stroke: #000000; stroke-width: 0.8; stroke-linejoin: miter; stroke-linecap: square"/>
   </g>
   <g id="patch_6">
    <path d="M 225 43.2 
L 1620 43.2 
" style="fill: none; stroke: #000000; stroke-width: 0.8; stroke-linejoin: miter; stroke-linecap: square"/>
   </g>
   <g id="text_20">
    <!-- PAS2 -->
    <g transform="translate(897.55625 37.2) scale(0.2 -0.2)">
     <defs>
      <path id="DejaVuSans-50" d="M 1259 4147 
L 1259 2394 
L 2053 2394 
Q 2494 2394 2734 2622 
Q 2975 2850 2975 3272 
Q 2975 3691 2734 3919 
Q 2494 4147 2053 4147 
L 1259 4147 
z
M 628 4666 
L 2053 4666 
Q 2838 4666 3239 4311 
Q 3641 3956 3641 3272 
Q 3641 2581 3239 2228 
Q 2838 1875 2053 1875 
L 1259 1875 
L 1259 0 
L 628 0 
L 628 4666 
z
" transform="scale(0.015625)"/>
      <path id="DejaVuSans-41" d="M 2188 4044 
L 1331 1722 
L 3047 1722 
L 2188 4044 
z
M 1831 4666 
L 2547 4666 
L 4325 0 
L 3669 0 
L 3244 1197 
L 1141 1197 
L 716 0 
L 50 0 
L 1831 4666 
z
" transform="scale(0.015625)"/>
      <path id="DejaVuSans-53" d="M 3425 4513 
L 3425 3897 
Q 3066 4069 2747 4153 
Q 2428 4238 2131 4238 
Q 1616 4238 1336 4038 
Q 1056 3838 1056 3469 
Q 1056 3159 1242 3001 
Q 1428 2844 1947 2747 
L 2328 2669 
Q 3034 2534 3370 2195 
Q 3706 1856 3706 1288 
Q 3706 609 3251 259 
Q 2797 -91 1919 -91 
Q 1588 -91 1214 -16 
Q 841 59 441 206 
L 441 856 
Q 825 641 1194 531 
Q 1563 422 1919 422 
Q 2459 422 2753 634 
Q 3047 847 3047 1241 
Q 3047 1584 2836 1778 
Q 2625 1972 2144 2069 
L 1759 2144 
Q 1053 2284 737 2584 
Q 422 2884 422 3419 
Q 422 4038 858 4394 
Q 1294 4750 2059 4750 
Q 2388 4750 2728 4690 
Q 3069 4631 3425 4513 
z
" transform="scale(0.015625)"/>
     </defs>
     <use xlink:href="#DejaVuSans-50"/>
     <use xlink:href="#DejaVuSans-41" x="53.927734"/>
     <use xlink:href="#DejaVuSans-53" x="122.335938"/>
     <use xlink:href="#DejaVuSans-32" x="185.8125"/>
    </g>
   </g>
   <g id="legend_1">
    <g id="patch_7">
     <path d="M 1556.951562 65.878125 
L 1613 65.878125 
Q 1615 65.878125 1615 63.878125 
L 1615 50.2 
Q 1615 48.2 1613 48.2 
L 1556.951562 48.2 
Q 1554.951562 48.2 1554.951562 50.2 
L 1554.951562 63.878125 
Q 1554.951562 65.878125 1556.951562 65.878125 
z
" style="fill: #ffffff; opacity: 0.8; stroke: #cccccc; stroke-linejoin: miter"/>
    </g>
    <g id="line2d_19">
     <path d="M 1558.951562 56.298437 
L 1568.951562 56.298437 
L 1578.951562 56.298437 
" style="fill: none; stroke: #35ae97; stroke-width: 2.5; stroke-linecap: square"/>
    </g>
    <g id="text_21">
     <!-- pas2 -->
     <g transform="translate(1586.951562 59.798437) scale(0.1 -0.1)">
      <defs>
       <path id="DejaVuSans-70" d="M 1159 525 
L 1159 -1331 
L 581 -1331 
L 581 3500 
L 1159 3500 
L 1159 2969 
Q 1341 3281 1617 3432 
Q 1894 3584 2278 3584 
Q 2916 3584 3314 3078 
Q 3713 2572 3713 1747 
Q 3713 922 3314 415 
Q 2916 -91 2278 -91 
Q 1894 -91 1617 61 
Q 1341 213 1159 525 
z
M 3116 1747 
Q 3116 2381 2855 2742 
Q 2594 3103 2138 3103 
Q 1681 3103 1420 2742 
Q 1159 2381 1159 1747 
Q 1159 1113 1420 752 
Q 1681 391 2138 391 
Q 2594 391 2855 752 
Q 3116 1113 3116 1747 
z
" transform="scale(0.015625)"/>
      </defs>
      <use xlink:href="#DejaVuSans-70"/>
      <use xlink:href="#DejaVuSans-61" x="63.476562"/>
      <use xlink:href="#DejaVuSans-73" x="124.755859"/>
      <use xlink:href="#DejaVuSans-32" x="176.855469"/>
     </g>
    </g>
   </g>
  </g>
 </g>
 <defs>
  <clipPath id="paf243c2344">
   <rect x="225" y="43.2" width="1395" height="277.2"/>
  </clipPath>
 </defs>
</svg>
