<?xml version="1.0" encoding="utf-8" standalone="no"?>
<!DOCTYPE svg PUBLIC "-//W3C//DTD SVG 1.1//EN"
  "http://www.w3.org/Graphics/SVG/1.1/DTD/svg11.dtd">
<svg xmlns:xlink="http://www.w3.org/1999/xlink" width="1800pt" height="360pt" viewBox="0 0 1800 360" xmlns="http://www.w3.org/2000/svg" version="1.1">
 <metadata>
  <rdf:RDF xmlns:dc="http://purl.org/dc/elements/1.1/" xmlns:cc="http://creativecommons.org/ns#" xmlns:rdf="http://www.w3.org/1999/02/22-rdf-syntax-ns#">
   <cc:Work>
    <dc:type rdf:resource="http://purl.org/dc/dcmitype/StillImage"/>
    <dc:date>2024-03-06T14:50:05.402545</dc:date>
    <dc:format>image/svg+xml</dc:format>
    <dc:creator>
     <cc:Agent>
      <dc:title>Matplotlib v3.7.2, https://matplotlib.org/</dc:title>
     </cc:Agent>
    </dc:creator>
   </cc:Work>
  </rdf:RDF>
 </metadata>
 <defs>
  <style type="text/css">*{stroke-linejoin: round; stroke-linecap: butt}</style>
 </defs>
 <g id="figure_1">
  <g id="patch_1">
   <path d="M 0 360 
L 1800 360 
L 1800 0 
L 0 0 
z
" style="fill: #ffffff"/>
  </g>
  <g id="axes_1">
   <g id="patch_2">
    <path d="M 225 320.4 
L 1620 320.4 
L 1620 43.2 
L 225 43.2 
z
" style="fill: #ffffff"/>
   </g>
   <g id="matplotlib.axis_1">
    <g id="xtick_1">
     <g id="line2d_1">
      <defs>
       <path id="m0e73361ef2" d="M 0 0 
L 0 3.5 
" style="stroke: #000000; stroke-width: 0.8"/>
      </defs>
      <g>
       <use xlink:href="#m0e73361ef2" x="255.035885" y="320.4" style="stroke: #000000; stroke-width: 0.8"/>
      </g>
     </g>
     <g id="text_1">
      <!-- 2011-01 -->
      <g transform="translate(223.698776 338.797656) scale(0.15 -0.15)">
       <defs>
        <path id="DejaVuSans-32" d="M 1228 531 
L 3431 531 
L 3431 0 
L 469 0 
L 469 531 
Q 828 903 1448 1529 
Q 2069 2156 2228 2338 
Q 2531 2678 2651 2914 
Q 2772 3150 2772 3378 
Q 2772 3750 2511 3984 
Q 2250 4219 1831 4219 
Q 1534 4219 1204 4116 
Q 875 4013 500 3803 
L 500 4441 
Q 881 4594 1212 4672 
Q 1544 4750 1819 4750 
Q 2544 4750 2975 4387 
Q 3406 4025 3406 3419 
Q 3406 3131 3298 2873 
Q 3191 2616 2906 2266 
Q 2828 2175 2409 1742 
Q 1991 1309 1228 531 
z
" transform="scale(0.015625)"/>
        <path id="DejaVuSans-30" d="M 2034 4250 
Q 1547 4250 1301 3770 
Q 1056 3291 1056 2328 
Q 1056 1369 1301 889 
Q 1547 409 2034 409 
Q 2525 409 2770 889 
Q 3016 1369 3016 2328 
Q 3016 3291 2770 3770 
Q 2525 4250 2034 4250 
z
M 2034 4750 
Q 2819 4750 3233 4129 
Q 3647 3509 3647 2328 
Q 3647 1150 3233 529 
Q 2819 -91 2034 -91 
Q 1250 -91 836 529 
Q 422 1150 422 2328 
Q 422 3509 836 4129 
Q 1250 4750 2034 4750 
z
" transform="scale(0.015625)"/>
        <path id="DejaVuSans-31" d="M 794 531 
L 1825 531 
L 1825 4091 
L 703 3866 
L 703 4441 
L 1819 4666 
L 2450 4666 
L 2450 531 
L 3481 531 
L 3481 0 
L 794 0 
L 794 531 
z
" transform="scale(0.015625)"/>
        <path id="DejaVuSans-2d" d="M 313 2009 
L 1997 2009 
L 1997 1497 
L 313 1497 
L 313 2009 
z
" transform="scale(0.015625)"/>
       </defs>
       <use xlink:href="#DejaVuSans-32"/>
       <use xlink:href="#DejaVuSans-30" x="63.623047"/>
       <use xlink:href="#DejaVuSans-31" x="127.246094"/>
       <use xlink:href="#DejaVuSans-31" x="190.869141"/>
       <use xlink:href="#DejaVuSans-2d" x="254.492188"/>
       <use xlink:href="#DejaVuSans-30" x="290.576172"/>
       <use xlink:href="#DejaVuSans-31" x="354.199219"/>
      </g>
     </g>
    </g>
    <g id="xtick_2">
     <g id="line2d_2">
      <g>
       <use xlink:href="#m0e73361ef2" x="395.680109" y="320.4" style="stroke: #000000; stroke-width: 0.8"/>
      </g>
     </g>
     <g id="text_2">
      <!-- 2011-03 -->
      <g transform="translate(364.343 338.797656) scale(0.15 -0.15)">
       <defs>
        <path id="DejaVuSans-33" d="M 2597 2516 
Q 3050 2419 3304 2112 
Q 3559 1806 3559 1356 
Q 3559 666 3084 287 
Q 2609 -91 1734 -91 
Q 1441 -91 1130 -33 
Q 819 25 488 141 
L 488 750 
Q 750 597 1062 519 
Q 1375 441 1716 441 
Q 2309 441 2620 675 
Q 2931 909 2931 1356 
Q 2931 1769 2642 2001 
Q 2353 2234 1838 2234 
L 1294 2234 
L 1294 2753 
L 1863 2753 
Q 2328 2753 2575 2939 
Q 2822 3125 2822 3475 
Q 2822 3834 2567 4026 
Q 2313 4219 1838 4219 
Q 1578 4219 1281 4162 
Q 984 4106 628 3988 
L 628 4550 
Q 988 4650 1302 4700 
Q 1616 4750 1894 4750 
Q 2613 4750 3031 4423 
Q 3450 4097 3450 3541 
Q 3450 3153 3228 2886 
Q 3006 2619 2597 2516 
z
" transform="scale(0.015625)"/>
       </defs>
       <use xlink:href="#DejaVuSans-32"/>
       <use xlink:href="#DejaVuSans-30" x="63.623047"/>
       <use xlink:href="#DejaVuSans-31" x="127.246094"/>
       <use xlink:href="#DejaVuSans-31" x="190.869141"/>
       <use xlink:href="#DejaVuSans-2d" x="254.492188"/>
       <use xlink:href="#DejaVuSans-30" x="290.576172"/>
       <use xlink:href="#DejaVuSans-33" x="354.199219"/>
      </g>
     </g>
    </g>
    <g id="xtick_3">
     <g id="line2d_3">
      <g>
       <use xlink:href="#m0e73361ef2" x="541.091934" y="320.4" style="stroke: #000000; stroke-width: 0.8"/>
      </g>
     </g>
     <g id="text_3">
      <!-- 2011-05 -->
      <g transform="translate(509.754825 338.797656) scale(0.15 -0.15)">
       <defs>
        <path id="DejaVuSans-35" d="M 691 4666 
L 3169 4666 
L 3169 4134 
L 1269 4134 
L 1269 2991 
Q 1406 3038 1543 3061 
Q 1681 3084 1819 3084 
Q 2600 3084 3056 2656 
Q 3513 2228 3513 1497 
Q 3513 744 3044 326 
Q 2575 -91 1722 -91 
Q 1428 -91 1123 -41 
Q 819 9 494 109 
L 494 744 
Q 775 591 1075 516 
Q 1375 441 1709 441 
Q 2250 441 2565 725 
Q 2881 1009 2881 1497 
Q 2881 1984 2565 2268 
Q 2250 2553 1709 2553 
Q 1456 2553 1204 2497 
Q 953 2441 691 2322 
L 691 4666 
z
" transform="scale(0.015625)"/>
       </defs>
       <use xlink:href="#DejaVuSans-32"/>
       <use xlink:href="#DejaVuSans-30" x="63.623047"/>
       <use xlink:href="#DejaVuSans-31" x="127.246094"/>
       <use xlink:href="#DejaVuSans-31" x="190.869141"/>
       <use xlink:href="#DejaVuSans-2d" x="254.492188"/>
       <use xlink:href="#DejaVuSans-30" x="290.576172"/>
       <use xlink:href="#DejaVuSans-35" x="354.199219"/>
      </g>
     </g>
    </g>
    <g id="xtick_4">
     <g id="line2d_4">
      <g>
       <use xlink:href="#m0e73361ef2" x="686.503759" y="320.4" style="stroke: #000000; stroke-width: 0.8"/>
      </g>
     </g>
     <g id="text_4">
      <!-- 2011-07 -->
      <g transform="translate(655.16665 338.797656) scale(0.15 -0.15)">
       <defs>
        <path id="DejaVuSans-37" d="M 525 4666 
L 3525 4666 
L 3525 4397 
L 1831 0 
L 1172 0 
L 2766 4134 
L 525 4134 
L 525 4666 
z
" transform="scale(0.015625)"/>
       </defs>
       <use xlink:href="#DejaVuSans-32"/>
       <use xlink:href="#DejaVuSans-30" x="63.623047"/>
       <use xlink:href="#DejaVuSans-31" x="127.246094"/>
       <use xlink:href="#DejaVuSans-31" x="190.869141"/>
       <use xlink:href="#DejaVuSans-2d" x="254.492188"/>
       <use xlink:href="#DejaVuSans-30" x="290.576172"/>
       <use xlink:href="#DejaVuSans-37" x="354.199219"/>
      </g>
     </g>
    </g>
    <g id="xtick_5">
     <g id="line2d_5">
      <g>
       <use xlink:href="#m0e73361ef2" x="834.299385" y="320.4" style="stroke: #000000; stroke-width: 0.8"/>
      </g>
     </g>
     <g id="text_5">
      <!-- 2011-09 -->
      <g transform="translate(802.962275 338.797656) scale(0.15 -0.15)">
       <defs>
        <path id="DejaVuSans-39" d="M 703 97 
L 703 672 
Q 941 559 1184 500 
Q 1428 441 1663 441 
Q 2288 441 2617 861 
Q 2947 1281 2994 2138 
Q 2813 1869 2534 1725 
Q 2256 1581 1919 1581 
Q 1219 1581 811 2004 
Q 403 2428 403 3163 
Q 403 3881 828 4315 
Q 1253 4750 1959 4750 
Q 2769 4750 3195 4129 
Q 3622 3509 3622 2328 
Q 3622 1225 3098 567 
Q 2575 -91 1691 -91 
Q 1453 -91 1209 -44 
Q 966 3 703 97 
z
M 1959 2075 
Q 2384 2075 2632 2365 
Q 2881 2656 2881 3163 
Q 2881 3666 2632 3958 
Q 2384 4250 1959 4250 
Q 1534 4250 1286 3958 
Q 1038 3666 1038 3163 
Q 1038 2656 1286 2365 
Q 1534 2075 1959 2075 
z
" transform="scale(0.015625)"/>
       </defs>
       <use xlink:href="#DejaVuSans-32"/>
       <use xlink:href="#DejaVuSans-30" x="63.623047"/>
       <use xlink:href="#DejaVuSans-31" x="127.246094"/>
       <use xlink:href="#DejaVuSans-31" x="190.869141"/>
       <use xlink:href="#DejaVuSans-2d" x="254.492188"/>
       <use xlink:href="#DejaVuSans-30" x="290.576172"/>
       <use xlink:href="#DejaVuSans-39" x="354.199219"/>
      </g>
     </g>
    </g>
    <g id="xtick_6">
     <g id="line2d_6">
      <g>
       <use xlink:href="#m0e73361ef2" x="979.71121" y="320.4" style="stroke: #000000; stroke-width: 0.8"/>
      </g>
     </g>
     <g id="text_6">
      <!-- 2011-11 -->
      <g transform="translate(948.3741 338.797656) scale(0.15 -0.15)">
       <use xlink:href="#DejaVuSans-32"/>
       <use xlink:href="#DejaVuSans-30" x="63.623047"/>
       <use xlink:href="#DejaVuSans-31" x="127.246094"/>
       <use xlink:href="#DejaVuSans-31" x="190.869141"/>
       <use xlink:href="#DejaVuSans-2d" x="254.492188"/>
       <use xlink:href="#DejaVuSans-31" x="290.576172"/>
       <use xlink:href="#DejaVuSans-31" x="354.199219"/>
      </g>
     </g>
    </g>
    <g id="xtick_7">
     <g id="line2d_7">
      <g>
       <use xlink:href="#m0e73361ef2" x="1125.123035" y="320.4" style="stroke: #000000; stroke-width: 0.8"/>
      </g>
     </g>
     <g id="text_7">
      <!-- 2012-01 -->
      <g transform="translate(1093.785925 338.797656) scale(0.15 -0.15)">
       <use xlink:href="#DejaVuSans-32"/>
       <use xlink:href="#DejaVuSans-30" x="63.623047"/>
       <use xlink:href="#DejaVuSans-31" x="127.246094"/>
       <use xlink:href="#DejaVuSans-32" x="190.869141"/>
       <use xlink:href="#DejaVuSans-2d" x="254.492188"/>
       <use xlink:href="#DejaVuSans-30" x="290.576172"/>
       <use xlink:href="#DejaVuSans-31" x="354.199219"/>
      </g>
     </g>
    </g>
    <g id="xtick_8">
     <g id="line2d_8">
      <g>
       <use xlink:href="#m0e73361ef2" x="1268.151059" y="320.4" style="stroke: #000000; stroke-width: 0.8"/>
      </g>
     </g>
     <g id="text_8">
      <!-- 2012-03 -->
      <g transform="translate(1236.81395 338.797656) scale(0.15 -0.15)">
       <use xlink:href="#DejaVuSans-32"/>
       <use xlink:href="#DejaVuSans-30" x="63.623047"/>
       <use xlink:href="#DejaVuSans-31" x="127.246094"/>
       <use xlink:href="#DejaVuSans-32" x="190.869141"/>
       <use xlink:href="#DejaVuSans-2d" x="254.492188"/>
       <use xlink:href="#DejaVuSans-30" x="290.576172"/>
       <use xlink:href="#DejaVuSans-33" x="354.199219"/>
      </g>
     </g>
    </g>
    <g id="xtick_9">
     <g id="line2d_9">
      <g>
       <use xlink:href="#m0e73361ef2" x="1413.562884" y="320.4" style="stroke: #000000; stroke-width: 0.8"/>
      </g>
     </g>
     <g id="text_9">
      <!-- 2012-05 -->
      <g transform="translate(1382.225775 338.797656) scale(0.15 -0.15)">
       <use xlink:href="#DejaVuSans-32"/>
       <use xlink:href="#DejaVuSans-30" x="63.623047"/>
       <use xlink:href="#DejaVuSans-31" x="127.246094"/>
       <use xlink:href="#DejaVuSans-32" x="190.869141"/>
       <use xlink:href="#DejaVuSans-2d" x="254.492188"/>
       <use xlink:href="#DejaVuSans-30" x="290.576172"/>
       <use xlink:href="#DejaVuSans-35" x="354.199219"/>
      </g>
     </g>
    </g>
    <g id="xtick_10">
     <g id="line2d_10">
      <g>
       <use xlink:href="#m0e73361ef2" x="1558.97471" y="320.4" style="stroke: #000000; stroke-width: 0.8"/>
      </g>
     </g>
     <g id="text_10">
      <!-- 2012-07 -->
      <g transform="translate(1527.6376 338.797656) scale(0.15 -0.15)">
       <use xlink:href="#DejaVuSans-32"/>
       <use xlink:href="#DejaVuSans-30" x="63.623047"/>
       <use xlink:href="#DejaVuSans-31" x="127.246094"/>
       <use xlink:href="#DejaVuSans-32" x="190.869141"/>
       <use xlink:href="#DejaVuSans-2d" x="254.492188"/>
       <use xlink:href="#DejaVuSans-30" x="290.576172"/>
       <use xlink:href="#DejaVuSans-37" x="354.199219"/>
      </g>
     </g>
    </g>
    <g id="text_11">
     <!-- Time -->
     <g transform="translate(904.149609 357.314844) scale(0.15 -0.15)">
      <defs>
       <path id="DejaVuSans-54" d="M -19 4666 
L 3928 4666 
L 3928 4134 
L 2272 4134 
L 2272 0 
L 1638 0 
L 1638 4134 
L -19 4134 
L -19 4666 
z
" transform="scale(0.015625)"/>
       <path id="DejaVuSans-69" d="M 603 3500 
L 1178 3500 
L 1178 0 
L 603 0 
L 603 3500 
z
M 603 4863 
L 1178 4863 
L 1178 4134 
L 603 4134 
L 603 4863 
z
" transform="scale(0.015625)"/>
       <path id="DejaVuSans-6d" d="M 3328 2828 
Q 3544 3216 3844 3400 
Q 4144 3584 4550 3584 
Q 5097 3584 5394 3201 
Q 5691 2819 5691 2113 
L 5691 0 
L 5113 0 
L 5113 2094 
Q 5113 2597 4934 2840 
Q 4756 3084 4391 3084 
Q 3944 3084 3684 2787 
Q 3425 2491 3425 1978 
L 3425 0 
L 2847 0 
L 2847 2094 
Q 2847 2600 2669 2842 
Q 2491 3084 2119 3084 
Q 1678 3084 1418 2786 
Q 1159 2488 1159 1978 
L 1159 0 
L 581 0 
L 581 3500 
L 1159 3500 
L 1159 2956 
Q 1356 3278 1631 3431 
Q 1906 3584 2284 3584 
Q 2666 3584 2933 3390 
Q 3200 3197 3328 2828 
z
" transform="scale(0.015625)"/>
       <path id="DejaVuSans-65" d="M 3597 1894 
L 3597 1613 
L 953 1613 
Q 991 1019 1311 708 
Q 1631 397 2203 397 
Q 2534 397 2845 478 
Q 3156 559 3463 722 
L 3463 178 
Q 3153 47 2828 -22 
Q 2503 -91 2169 -91 
Q 1331 -91 842 396 
Q 353 884 353 1716 
Q 353 2575 817 3079 
Q 1281 3584 2069 3584 
Q 2775 3584 3186 3129 
Q 3597 2675 3597 1894 
z
M 3022 2063 
Q 3016 2534 2758 2815 
Q 2500 3097 2075 3097 
Q 1594 3097 1305 2825 
Q 1016 2553 972 2059 
L 3022 2063 
z
" transform="scale(0.015625)"/>
      </defs>
      <use xlink:href="#DejaVuSans-54"/>
      <use xlink:href="#DejaVuSans-69" x="57.958984"/>
      <use xlink:href="#DejaVuSans-6d" x="85.742188"/>
      <use xlink:href="#DejaVuSans-65" x="183.154297"/>
     </g>
    </g>
   </g>
   <g id="matplotlib.axis_2">
    <g id="ytick_1">
     <g id="line2d_11">
      <defs>
       <path id="m324a304c1e" d="M 0 0 
L -3.5 0 
" style="stroke: #000000; stroke-width: 0.8"/>
      </defs>
      <g>
       <use xlink:href="#m324a304c1e" x="225" y="285.201944" style="stroke: #000000; stroke-width: 0.8"/>
      </g>
     </g>
     <g id="text_12">
      <!-- −0.002 -->
      <g transform="translate(162.488281 290.900772) scale(0.15 -0.15)">
       <defs>
        <path id="DejaVuSans-2212" d="M 678 2272 
L 4684 2272 
L 4684 1741 
L 678 1741 
L 678 2272 
z
" transform="scale(0.015625)"/>
        <path id="DejaVuSans-2e" d="M 684 794 
L 1344 794 
L 1344 0 
L 684 0 
L 684 794 
z
" transform="scale(0.015625)"/>
       </defs>
       <use xlink:href="#DejaVuSans-2212"/>
       <use xlink:href="#DejaVuSans-30" x="83.789062"/>
       <use xlink:href="#DejaVuSans-2e" x="147.412109"/>
       <use xlink:href="#DejaVuSans-30" x="179.199219"/>
       <use xlink:href="#DejaVuSans-30" x="242.822266"/>
       <use xlink:href="#DejaVuSans-32" x="306.445312"/>
      </g>
     </g>
    </g>
    <g id="ytick_2">
     <g id="line2d_12">
      <g>
       <use xlink:href="#m324a304c1e" x="225" y="230.4742" style="stroke: #000000; stroke-width: 0.8"/>
      </g>
     </g>
     <g id="text_13">
      <!-- −0.001 -->
      <g transform="translate(162.488281 236.173028) scale(0.15 -0.15)">
       <use xlink:href="#DejaVuSans-2212"/>
       <use xlink:href="#DejaVuSans-30" x="83.789062"/>
       <use xlink:href="#DejaVuSans-2e" x="147.412109"/>
       <use xlink:href="#DejaVuSans-30" x="179.199219"/>
       <use xlink:href="#DejaVuSans-30" x="242.822266"/>
       <use xlink:href="#DejaVuSans-31" x="306.445312"/>
      </g>
     </g>
    </g>
    <g id="ytick_3">
     <g id="line2d_13">
      <g>
       <use xlink:href="#m324a304c1e" x="225" y="175.746456" style="stroke: #000000; stroke-width: 0.8"/>
      </g>
     </g>
     <g id="text_14">
      <!-- 0.000 -->
      <g transform="translate(175.057813 181.445284) scale(0.15 -0.15)">
       <use xlink:href="#DejaVuSans-30"/>
       <use xlink:href="#DejaVuSans-2e" x="63.623047"/>
       <use xlink:href="#DejaVuSans-30" x="95.410156"/>
       <use xlink:href="#DejaVuSans-30" x="159.033203"/>
       <use xlink:href="#DejaVuSans-30" x="222.65625"/>
      </g>
     </g>
    </g>
    <g id="ytick_4">
     <g id="line2d_14">
      <g>
       <use xlink:href="#m324a304c1e" x="225" y="121.018712" style="stroke: #000000; stroke-width: 0.8"/>
      </g>
     </g>
     <g id="text_15">
      <!-- 0.001 -->
      <g transform="translate(175.057813 126.71754) scale(0.15 -0.15)">
       <use xlink:href="#DejaVuSans-30"/>
       <use xlink:href="#DejaVuSans-2e" x="63.623047"/>
       <use xlink:href="#DejaVuSans-30" x="95.410156"/>
       <use xlink:href="#DejaVuSans-30" x="159.033203"/>
       <use xlink:href="#DejaVuSans-31" x="222.65625"/>
      </g>
     </g>
    </g>
    <g id="ytick_5">
     <g id="line2d_15">
      <g>
       <use xlink:href="#m324a304c1e" x="225" y="66.290967" style="stroke: #000000; stroke-width: 0.8"/>
      </g>
     </g>
     <g id="text_16">
      <!-- 0.002 -->
      <g transform="translate(175.057813 71.989796) scale(0.15 -0.15)">
       <use xlink:href="#DejaVuSans-30"/>
       <use xlink:href="#DejaVuSans-2e" x="63.623047"/>
       <use xlink:href="#DejaVuSans-30" x="95.410156"/>
       <use xlink:href="#DejaVuSans-30" x="159.033203"/>
       <use xlink:href="#DejaVuSans-32" x="222.65625"/>
      </g>
     </g>
    </g>
    <g id="text_17">
     <!-- East(m) -->
     <g transform="translate(155.36875 211.140234) rotate(-90) scale(0.15 -0.15)">
      <defs>
       <path id="DejaVuSans-45" d="M 628 4666 
L 3578 4666 
L 3578 4134 
L 1259 4134 
L 1259 2753 
L 3481 2753 
L 3481 2222 
L 1259 2222 
L 1259 531 
L 3634 531 
L 3634 0 
L 628 0 
L 628 4666 
z
" transform="scale(0.015625)"/>
       <path id="DejaVuSans-61" d="M 2194 1759 
Q 1497 1759 1228 1600 
Q 959 1441 959 1056 
Q 959 750 1161 570 
Q 1363 391 1709 391 
Q 2188 391 2477 730 
Q 2766 1069 2766 1631 
L 2766 1759 
L 2194 1759 
z
M 3341 1997 
L 3341 0 
L 2766 0 
L 2766 531 
Q 2569 213 2275 61 
Q 1981 -91 1556 -91 
Q 1019 -91 701 211 
Q 384 513 384 1019 
Q 384 1609 779 1909 
Q 1175 2209 1959 2209 
L 2766 2209 
L 2766 2266 
Q 2766 2663 2505 2880 
Q 2244 3097 1772 3097 
Q 1472 3097 1187 3025 
Q 903 2953 641 2809 
L 641 3341 
Q 956 3463 1253 3523 
Q 1550 3584 1831 3584 
Q 2591 3584 2966 3190 
Q 3341 2797 3341 1997 
z
" transform="scale(0.015625)"/>
       <path id="DejaVuSans-73" d="M 2834 3397 
L 2834 2853 
Q 2591 2978 2328 3040 
Q 2066 3103 1784 3103 
Q 1356 3103 1142 2972 
Q 928 2841 928 2578 
Q 928 2378 1081 2264 
Q 1234 2150 1697 2047 
L 1894 2003 
Q 2506 1872 2764 1633 
Q 3022 1394 3022 966 
Q 3022 478 2636 193 
Q 2250 -91 1575 -91 
Q 1294 -91 989 -36 
Q 684 19 347 128 
L 347 722 
Q 666 556 975 473 
Q 1284 391 1588 391 
Q 1994 391 2212 530 
Q 2431 669 2431 922 
Q 2431 1156 2273 1281 
Q 2116 1406 1581 1522 
L 1381 1569 
Q 847 1681 609 1914 
Q 372 2147 372 2553 
Q 372 3047 722 3315 
Q 1072 3584 1716 3584 
Q 2034 3584 2315 3537 
Q 2597 3491 2834 3397 
z
" transform="scale(0.015625)"/>
       <path id="DejaVuSans-74" d="M 1172 4494 
L 1172 3500 
L 2356 3500 
L 2356 3053 
L 1172 3053 
L 1172 1153 
Q 1172 725 1289 603 
Q 1406 481 1766 481 
L 2356 481 
L 2356 0 
L 1766 0 
Q 1100 0 847 248 
Q 594 497 594 1153 
L 594 3053 
L 172 3053 
L 172 3500 
L 594 3500 
L 594 4494 
L 1172 4494 
z
" transform="scale(0.015625)"/>
       <path id="DejaVuSans-28" d="M 1984 4856 
Q 1566 4138 1362 3434 
Q 1159 2731 1159 2009 
Q 1159 1288 1364 580 
Q 1569 -128 1984 -844 
L 1484 -844 
Q 1016 -109 783 600 
Q 550 1309 550 2009 
Q 550 2706 781 3412 
Q 1013 4119 1484 4856 
L 1984 4856 
z
" transform="scale(0.015625)"/>
       <path id="DejaVuSans-29" d="M 513 4856 
L 1013 4856 
Q 1481 4119 1714 3412 
Q 1947 2706 1947 2009 
Q 1947 1309 1714 600 
Q 1481 -109 1013 -844 
L 513 -844 
Q 928 -128 1133 580 
Q 1338 1288 1338 2009 
Q 1338 2731 1133 3434 
Q 928 4138 513 4856 
z
" transform="scale(0.015625)"/>
      </defs>
      <use xlink:href="#DejaVuSans-45"/>
      <use xlink:href="#DejaVuSans-61" x="63.183594"/>
      <use xlink:href="#DejaVuSans-73" x="124.462891"/>
      <use xlink:href="#DejaVuSans-74" x="176.5625"/>
      <use xlink:href="#DejaVuSans-28" x="215.771484"/>
      <use xlink:href="#DejaVuSans-6d" x="254.785156"/>
      <use xlink:href="#DejaVuSans-29" x="352.197266"/>
     </g>
    </g>
   </g>
   <g id="line2d_16">
    <path d="M 288.409091 118.010484 
L 290.792891 107.080828 
L 293.176692 135.099083 
L 295.560492 150.935854 
L 297.944293 144.321481 
L 300.328093 151.546842 
L 302.711893 151.833767 
L 305.095694 157.776149 
L 307.479494 161.052508 
L 309.863295 146.526714 
L 312.247095 128.662527 
L 314.630895 130.500328 
L 317.014696 122.252588 
L 319.398496 118.617614 
L 321.782297 114.623002 
L 324.166097 124.849784 
L 326.549897 132.989094 
L 328.933698 154.286517 
L 331.317498 156.953053 
L 333.701299 160.276321 
L 336.085099 169.697824 
L 338.4689 165.273208 
L 340.8527 163.280067 
L 343.2365 162.811484 
L 345.620301 161.271802 
L 348.004101 163.320696 
L 350.387902 159.11499 
L 352.771702 151.383254 
L 355.155502 159.71802 
L 357.539303 159.671624 
L 359.923103 177.685382 
L 362.306904 178.577175 
L 364.690704 178.296231 
L 367.074504 179.571118 
L 369.458305 182.43311 
L 371.842105 186.022199 
L 374.225906 179.142652 
L 376.609706 162.920297 
L 378.993506 158.691137 
L 381.377307 157.651823 
L 383.761107 161.366004 
L 386.144908 151.867343 
L 388.528708 136.974091 
L 390.912509 136.310053 
L 393.296309 131.744708 
L 395.680109 129.399746 
L 398.06391 126.429323 
L 400.44771 129.13495 
L 402.831511 140.89411 
L 405.215311 161.526982 
L 407.599111 174.396332 
L 409.982912 178.016694 
L 412.366712 179.643403 
L 414.750513 190.096914 
L 417.134313 199.111868 
L 419.518113 195.719261 
L 421.901914 190.489364 
L 424.285714 170.373522 
L 426.669515 158.975027 
L 429.053315 148.530359 
L 431.437116 135.85749 
L 436.204716 113.552537 
L 438.588517 112.92759 
L 440.972317 105.30531 
L 443.356118 109.33222 
L 445.739918 131.00492 
L 448.123718 134.351643 
L 450.507519 148.878462 
L 452.891319 162.396728 
L 455.27512 150.638594 
L 462.426521 146.409433 
L 464.810321 140.163165 
L 467.194122 128.412849 
L 469.577922 114.137239 
L 471.961722 88.611168 
L 474.345523 78.135226 
L 476.729323 91.606582 
L 479.113124 95.445855 
L 481.496924 111.551961 
L 483.880725 128.58062 
L 486.264525 162.543607 
L 488.648325 184.740129 
L 491.032126 219.742943 
L 493.415926 227.342794 
L 495.799727 230.744245 
L 498.183527 249.492919 
L 500.567327 248.414513 
L 502.951128 244.560629 
L 505.334928 242.192212 
L 507.718729 214.234665 
L 510.102529 212.702801 
L 512.486329 208.622188 
L 514.87013 183.729395 
L 517.25393 153.144917 
L 519.637731 135.265093 
L 522.021531 111.419946 
L 524.405332 113.539204 
L 526.789132 113.7039 
L 529.172932 138.535172 
L 531.556733 144.516645 
L 533.940533 154.970157 
L 536.324334 157.237961 
L 538.708134 179.332846 
L 541.091934 179.536633 
L 543.475735 155.879124 
L 545.859535 129.625956 
L 548.243336 129.689014 
L 550.627136 131.612816 
L 553.010936 128.454756 
L 555.394737 111.48185 
L 557.778537 108.472336 
L 560.162338 124.265712 
L 562.546138 127.471707 
L 564.929938 126.049298 
L 567.313739 133.55533 
L 569.697539 143.617929 
L 572.08134 140.63187 
L 574.46514 151.27302 
L 576.848941 151.164077 
L 581.616541 159.342991 
L 584.000342 172.853438 
L 586.384142 170.438112 
L 588.767943 198.881415 
L 591.151743 174.44208 
L 593.535543 181.565018 
L 595.919344 202.041525 
L 598.303144 212.92504 
L 600.686945 180.33909 
L 603.070745 188.4784 
L 605.454545 189.596923 
L 607.838346 208.189232 
L 610.222146 207.634649 
L 612.605947 201.959112 
L 614.989747 198.480504 
L 617.373548 242.419577 
L 619.757348 243.741373 
L 622.141148 244.023343 
L 624.524949 246.947881 
L 626.908749 261.005605 
L 629.29255 254.063513 
L 631.67635 252.938197 
L 634.06015 236.661115 
L 636.443951 235.699983 
L 638.827751 229.320804 
L 641.211552 231.651155 
L 643.595352 238.523909 
L 645.979152 243.26228 
L 648.362953 245.42063 
L 650.746753 230.269375 
L 653.130554 237.501768 
L 655.514354 238.62029 
L 657.898154 233.820398 
L 660.281955 218.528415 
L 662.665755 221.710955 
L 665.049556 214.604679 
L 667.433356 230.515329 
L 669.817157 225.144704 
L 674.584757 244.714807 
L 676.968558 241.27529 
L 679.352358 234.849202 
L 681.736159 259.688292 
L 684.119959 268.984703 
L 686.503759 267.335565 
L 688.88756 262.520036 
L 691.27136 264.96766 
L 693.655161 261.340505 
L 696.038961 245.509063 
L 698.422761 210.702731 
L 700.806562 190.899618 
L 705.574163 185.166077 
L 707.957963 145.376242 
L 710.341763 135.366118 
L 712.725564 143.384877 
L 715.109364 152.701465 
L 717.493165 168.499381 
L 719.876965 176.666687 
L 722.260766 178.871946 
L 724.644566 211.654377 
L 727.028366 215.595287 
L 729.412167 210.95176 
L 731.795967 234.500839 
L 734.179768 253.609152 
L 736.563568 262.092465 
L 738.947368 277.346382 
L 741.331169 288.792811 
L 743.714969 297.901584 
L 746.09877 307.8 
L 748.48257 288.121979 
L 750.86637 284.885737 
L 753.250171 283.783876 
L 755.633971 287.544967 
L 758.017772 285.88801 
L 760.401572 282.964498 
L 762.785373 288.641059 
L 765.169173 291.847054 
L 767.552973 276.508162 
L 769.936774 265.602217 
L 772.320574 249.669137 
L 774.704375 256.05716 
L 777.088175 232.876563 
L 779.471975 228.35031 
L 781.855776 234.370874 
L 784.239576 228.484245 
L 786.623377 239.649217 
L 789.007177 242.894303 
L 791.390977 226.249764 
L 793.774778 244.27134 
L 796.158578 242.528383 
L 798.542379 243.435813 
L 800.926179 243.623963 
L 803.309979 254.116566 
L 805.69378 250.825596 
L 808.07758 249.098276 
L 810.461381 250.96735 
L 812.845181 220.062323 
L 815.228982 206.631084 
L 817.612782 195.928413 
L 822.380383 161.298623 
L 824.764183 166.580994 
L 827.147984 184.912024 
L 829.531784 180.132309 
L 831.915584 204.108114 
L 834.299385 199.81313 
L 836.683185 205.978964 
L 839.066986 224.665092 
L 841.450786 208.661649 
L 843.834586 204.276123 
L 846.218387 208.576673 
L 848.602187 204.644606 
L 850.985988 210.821536 
L 853.369788 214.7859 
L 855.753589 196.75753 
L 858.137389 176.328958 
L 860.521189 168.089036 
L 862.90499 153.664879 
L 865.28879 156.112503 
L 867.672591 163.423079 
L 870.056391 174.431686 
L 872.440191 209.981778 
L 874.823992 220.364925 
L 877.207792 229.372061 
L 879.591593 255.516799 
L 881.975393 255.384401 
L 884.359193 243.391719 
L 886.742994 245.260793 
L 889.126794 221.790922 
L 891.510595 239.304313 
L 893.894395 225.904346 
L 896.278195 206.671966 
L 898.661996 209.979598 
L 901.045796 232.911035 
L 903.429597 225.140208 
L 905.813397 238.142469 
L 908.197198 253.15402 
L 910.580998 269.338308 
L 912.964798 279.643273 
L 915.348599 280.933797 
L 917.732399 257.268469 
L 920.1162 262.108478 
L 922.5 261.21771 
L 924.8838 243.830437 
L 927.267601 235.363785 
L 929.651401 237.099949 
L 932.035202 240.298126 
L 934.419002 260.141355 
L 936.802802 262.557706 
L 939.186603 242.582592 
L 941.570403 247.399146 
L 943.954204 242.325615 
L 946.338004 226.845994 
L 948.721805 208.958353 
L 951.105605 192.884545 
L 953.489405 179.844218 
L 955.873206 181.40838 
L 958.257006 176.405213 
L 963.024607 153.842771 
L 965.408407 146.541039 
L 967.792208 126.980292 
L 970.176008 117.739635 
L 972.559809 115.683948 
L 974.943609 104.83273 
L 979.71121 120.954985 
L 982.09501 132.112139 
L 984.478811 125.904962 
L 986.862611 127.727127 
L 989.246411 114.561708 
L 1008.316815 125.531224 
L 1010.700615 112.928719 
L 1013.084416 106.612086 
L 1015.468216 98.849077 
L 1017.852016 110.193869 
L 1020.235817 116.448981 
L 1022.619617 134.337648 
L 1025.003418 133.071604 
L 1027.387218 138.834166 
L 1029.771018 131.180613 
L 1032.154819 141.641943 
L 1034.538619 130.626542 
L 1036.92242 117.179666 
L 1041.690021 98.330893 
L 1044.073821 88.019135 
L 1046.457621 94.110063 
L 1048.841422 72.712028 
L 1051.225222 86.527387 
L 1053.609023 83.126961 
L 1055.992823 90.562628 
L 1058.376623 85.911283 
L 1060.760424 102.330118 
L 1063.144224 105.309384 
L 1065.528025 111.259584 
L 1067.911825 104.114217 
L 1070.295625 107.859671 
L 1072.679426 96.44554 
L 1075.063226 84.319948 
L 1077.447027 67.870864 
L 1079.830827 55.8 
L 1082.214627 81.319278 
L 1084.598428 93.219166 
L 1086.982228 88.810186 
L 1091.749829 111.577952 
L 1094.13363 112.899749 
L 1096.51743 120.89833 
L 1098.90123 86.146726 
L 1101.285031 78.923176 
L 1103.668831 85.975749 
L 1106.052632 72.036323 
L 1108.436432 77.447064 
L 1110.820232 88.721492 
L 1113.204033 91.919669 
L 1115.587833 105.164295 
L 1117.971634 117.611461 
L 1120.355434 117.009968 
L 1122.739234 126.689473 
L 1125.123035 129.199644 
L 1127.506835 115.189854 
L 1129.890636 120.366047 
L 1132.274436 134.447226 
L 1134.658237 127.223677 
L 1139.425837 141.555553 
L 1141.809638 130.055421 
L 1144.193438 139.508197 
L 1146.577239 129.23553 
L 1148.961039 129.587863 
L 1151.344839 138.751364 
L 1153.72864 152.097628 
L 1156.11244 160.22912 
L 1158.496241 177.34378 
L 1163.263841 187.594529 
L 1165.647642 163.632108 
L 1168.031442 156.721289 
L 1170.415243 142.641134 
L 1172.799043 120.203272 
L 1175.182843 115.106286 
L 1177.566644 121.416126 
L 1179.950444 121.815369 
L 1182.334245 130.93196 
L 1184.718045 120.072924 
L 1187.101846 114.616299 
L 1189.485646 121.77051 
L 1191.869446 117.869716 
L 1194.253247 103.891199 
L 1196.637047 96.081281 
L 1199.020848 103.06349 
L 1201.404648 101.875628 
L 1203.788448 95.793543 
L 1206.172249 96.904247 
L 1208.556049 99.836603 
L 1210.93985 103.011325 
L 1213.32365 108.406429 
L 1215.70745 103.77072 
L 1218.091251 118.094265 
L 1220.475051 129.775242 
L 1222.858852 140.729122 
L 1225.242652 149.572074 
L 1227.626452 159.165578 
L 1230.010253 171.245286 
L 1232.394053 186.272473 
L 1234.777854 190.666842 
L 1237.161654 197.985235 
L 1239.545455 189.792223 
L 1241.929255 187.423806 
L 1244.313055 167.128144 
L 1246.696856 157.121297 
L 1249.080656 138.068737 
L 1251.464457 140.320905 
L 1253.848257 142.033614 
L 1256.232057 145.896342 
L 1258.615858 139.775165 
L 1260.999658 152.503788 
L 1263.383459 169.51681 
L 1265.767259 202.611972 
L 1268.151059 197.45244 
L 1270.53486 201.518442 
L 1272.91866 206.577362 
L 1275.302461 209.650446 
L 1277.686261 218.48558 
L 1280.070062 212.849135 
L 1282.453862 185.704687 
L 1284.837662 179.294235 
L 1289.605263 162.540752 
L 1291.989064 192.829162 
L 1294.372864 215.502597 
L 1296.756664 216.863485 
L 1299.140465 224.369517 
L 1301.524265 249.630792 
L 1303.908066 245.331268 
L 1306.291866 236.09061 
L 1308.675666 200.619726 
L 1311.059467 172.591815 
L 1313.443267 158.730572 
L 1315.827068 143.594954 
L 1318.210868 112.689928 
L 1320.594668 110.556058 
L 1322.978469 117.702451 
L 1325.362269 128.484329 
L 1327.74607 134.661258 
L 1330.12987 154.457578 
L 1332.513671 177.928474 
L 1334.897471 198.881895 
L 1337.281271 209.022676 
L 1339.665072 228.295173 
L 1342.048872 233.393184 
L 1344.432673 233.495334 
L 1346.816473 218.29717 
L 1349.200273 204.850294 
L 1351.584074 211.785594 
L 1353.967874 204.687136 
L 1356.351675 183.78165 
L 1358.735475 184.907991 
L 1361.119275 184.025041 
L 1363.503076 191.859439 
L 1365.886876 194.361792 
L 1368.270677 180.406729 
L 1370.654477 193.268262 
L 1373.038278 207.8029 
L 1375.422078 213.276187 
L 1377.805878 208.921934 
L 1380.189679 204.043859 
L 1382.573479 206.952761 
L 1384.95728 197.117916 
L 1387.34108 178.065355 
L 1389.72488 165.650488 
L 1392.108681 167.433562 
L 1396.876282 165.870424 
L 1399.260082 167.614406 
L 1401.643882 140.821779 
L 1404.027683 144.793962 
L 1406.411483 141.940814 
L 1411.179084 139.303299 
L 1413.562884 129.605905 
L 1415.946685 147.546022 
L 1418.330485 151.749475 
L 1420.714286 165.827377 
L 1423.098086 155.989255 
L 1425.481887 155.822307 
L 1427.865687 158.277749 
L 1430.249487 144.455597 
L 1432.633288 114.308941 
L 1435.017088 110.064145 
L 1437.400889 125.685519 
L 1439.784689 148.014951 
L 1442.168489 165.856708 
L 1444.55229 179.672067 
L 1446.93609 202.110955 
L 1449.319891 223.306741 
L 1451.703691 230.875318 
L 1454.087491 216.716982 
L 1456.471292 216.264036 
L 1461.238893 220.994589 
L 1463.622693 218.751264 
L 1466.006494 223.794548 
L 1468.390294 234.044785 
L 1473.157895 250.171068 
L 1475.541695 266.453716 
L 1477.925496 274.644476 
L 1480.309296 261.436689 
L 1482.693096 256.414608 
L 1485.076897 239.125694 
L 1487.460697 218.873664 
L 1489.844498 176.014534 
L 1492.228298 148.784085 
L 1494.612098 144.406378 
L 1496.995899 143.757976 
L 1499.379699 148.691804 
L 1501.7635 151.717979 
L 1504.1473 165.564611 
L 1508.914901 228.299267 
L 1511.298701 220.067163 
L 1513.682502 232.701966 
L 1516.066302 232.968299 
L 1518.450103 233.117359 
L 1525.601504 228.161101 
L 1527.985304 232.813472 
L 1530.369105 208.374138 
L 1532.752905 198.437656 
L 1535.136705 171.215025 
L 1537.520506 169.518977 
L 1539.904306 174.624807 
L 1542.288107 181.380286 
L 1544.671907 184.476826 
L 1547.055707 215.421968 
L 1549.439508 237.407398 
L 1551.823308 246.836719 
L 1554.207109 242.576285 
L 1556.590909 217.378581 
L 1556.590909 217.378581 
" clip-path="url(#pfbb1dfce5c)" style="fill: none; stroke: #e866f4; stroke-width: 2.5; stroke-linecap: square"/>
   </g>
   <g id="patch_3">
    <path d="M 225 320.4 
L 225 43.2 
" style="fill: none; stroke: #000000; stroke-width: 0.8; stroke-linejoin: miter; stroke-linecap: square"/>
   </g>
   <g id="patch_4">
    <path d="M 1620 320.4 
L 1620 43.2 
" style="fill: none; stroke: #000000; stroke-width: 0.8; stroke-linejoin: miter; stroke-linecap: square"/>
   </g>
   <g id="patch_5">
    <path d="M 225 320.4 
L 1620 320.4 
" style="fill: none; stroke: #000000; stroke-width: 0.8; stroke-linejoin: miter; stroke-linecap: square"/>
   </g>
   <g id="patch_6">
    <path d="M 225 43.2 
L 1620 43.2 
" style="fill: none; stroke: #000000; stroke-width: 0.8; stroke-linejoin: miter; stroke-linecap: square"/>
   </g>
   <g id="text_18">
    <!-- TARV -->
    <g transform="translate(897.0875 37.2) scale(0.2 -0.2)">
     <defs>
      <path id="DejaVuSans-41" d="M 2188 4044 
L 1331 1722 
L 3047 1722 
L 2188 4044 
z
M 1831 4666 
L 2547 4666 
L 4325 0 
L 3669 0 
L 3244 1197 
L 1141 1197 
L 716 0 
L 50 0 
L 1831 4666 
z
" transform="scale(0.015625)"/>
      <path id="DejaVuSans-52" d="M 2841 2188 
Q 3044 2119 3236 1894 
Q 3428 1669 3622 1275 
L 4263 0 
L 3584 0 
L 2988 1197 
Q 2756 1666 2539 1819 
Q 2322 1972 1947 1972 
L 1259 1972 
L 1259 0 
L 628 0 
L 628 4666 
L 2053 4666 
Q 2853 4666 3247 4331 
Q 3641 3997 3641 3322 
Q 3641 2881 3436 2590 
Q 3231 2300 2841 2188 
z
M 1259 4147 
L 1259 2491 
L 2053 2491 
Q 2509 2491 2742 2702 
Q 2975 2913 2975 3322 
Q 2975 3731 2742 3939 
Q 2509 4147 2053 4147 
L 1259 4147 
z
" transform="scale(0.015625)"/>
      <path id="DejaVuSans-56" d="M 1831 0 
L 50 4666 
L 709 4666 
L 2188 738 
L 3669 4666 
L 4325 4666 
L 2547 0 
L 1831 0 
z
" transform="scale(0.015625)"/>
     </defs>
     <use xlink:href="#DejaVuSans-54"/>
     <use xlink:href="#DejaVuSans-41" x="53.333984"/>
     <use xlink:href="#DejaVuSans-52" x="121.742188"/>
     <use xlink:href="#DejaVuSans-56" x="185.724609"/>
    </g>
   </g>
   <g id="legend_1">
    <g id="patch_7">
     <path d="M 1560.921875 65.878125 
L 1613 65.878125 
Q 1615 65.878125 1615 63.878125 
L 1615 50.2 
Q 1615 48.2 1613 48.2 
L 1560.921875 48.2 
Q 1558.921875 48.2 1558.921875 50.2 
L 1558.921875 63.878125 
Q 1558.921875 65.878125 1560.921875 65.878125 
z
" style="fill: #ffffff; opacity: 0.8; stroke: #cccccc; stroke-linejoin: miter"/>
    </g>
    <g id="line2d_17">
     <path d="M 1562.921875 56.298437 
L 1572.921875 56.298437 
L 1582.921875 56.298437 
" style="fill: none; stroke: #e866f4; stroke-width: 2.5; stroke-linecap: square"/>
    </g>
    <g id="text_19">
     <!-- tarv -->
     <g transform="translate(1590.921875 59.798437) scale(0.1 -0.1)">
      <defs>
       <path id="DejaVuSans-72" d="M 2631 2963 
Q 2534 3019 2420 3045 
Q 2306 3072 2169 3072 
Q 1681 3072 1420 2755 
Q 1159 2438 1159 1844 
L 1159 0 
L 581 0 
L 581 3500 
L 1159 3500 
L 1159 2956 
Q 1341 3275 1631 3429 
Q 1922 3584 2338 3584 
Q 2397 3584 2469 3576 
Q 2541 3569 2628 3553 
L 2631 2963 
z
" transform="scale(0.015625)"/>
       <path id="DejaVuSans-76" d="M 191 3500 
L 800 3500 
L 1894 563 
L 2988 3500 
L 3597 3500 
L 2284 0 
L 1503 0 
L 191 3500 
z
" transform="scale(0.015625)"/>
      </defs>
      <use xlink:href="#DejaVuSans-74"/>
      <use xlink:href="#DejaVuSans-61" x="39.208984"/>
      <use xlink:href="#DejaVuSans-72" x="100.488281"/>
      <use xlink:href="#DejaVuSans-76" x="141.601562"/>
     </g>
    </g>
   </g>
  </g>
 </g>
 <defs>
  <clipPath id="pfbb1dfce5c">
   <rect x="225" y="43.2" width="1395" height="277.2"/>
  </clipPath>
 </defs>
</svg>
