<?xml version="1.0" encoding="utf-8" standalone="no"?>
<!DOCTYPE svg PUBLIC "-//W3C//DTD SVG 1.1//EN"
  "http://www.w3.org/Graphics/SVG/1.1/DTD/svg11.dtd">
<svg xmlns:xlink="http://www.w3.org/1999/xlink" width="1800pt" height="360pt" viewBox="0 0 1800 360" xmlns="http://www.w3.org/2000/svg" version="1.1">
 <metadata>
  <rdf:RDF xmlns:dc="http://purl.org/dc/elements/1.1/" xmlns:cc="http://creativecommons.org/ns#" xmlns:rdf="http://www.w3.org/1999/02/22-rdf-syntax-ns#">
   <cc:Work>
    <dc:type rdf:resource="http://purl.org/dc/dcmitype/StillImage"/>
    <dc:date>2024-03-19T10:37:18.678818</dc:date>
    <dc:format>image/svg+xml</dc:format>
    <dc:creator>
     <cc:Agent>
      <dc:title>Matplotlib v3.7.2, https://matplotlib.org/</dc:title>
     </cc:Agent>
    </dc:creator>
   </cc:Work>
  </rdf:RDF>
 </metadata>
 <defs>
  <style type="text/css">*{stroke-linejoin: round; stroke-linecap: butt}</style>
 </defs>
 <g id="figure_1">
  <g id="patch_1">
   <path d="M 0 360 
L 1800 360 
L 1800 0 
L 0 0 
z
" style="fill: #ffffff"/>
  </g>
  <g id="axes_1">
   <g id="patch_2">
    <path d="M 225 320.4 
L 1620 320.4 
L 1620 43.2 
L 225 43.2 
z
" style="fill: #ffffff"/>
   </g>
   <g id="matplotlib.axis_1">
    <g id="xtick_1">
     <g id="line2d_1">
      <defs>
       <path id="mc102868bb8" d="M 0 0 
L 0 3.5 
" style="stroke: #000000; stroke-width: 0.8"/>
      </defs>
      <g>
       <use xlink:href="#mc102868bb8" x="281.924597" y="320.4" style="stroke: #000000; stroke-width: 0.8"/>
      </g>
     </g>
     <g id="text_1">
      <!-- 2011 -->
      <g transform="translate(262.837097 338.797656) scale(0.15 -0.15)">
       <defs>
        <path id="DejaVuSans-32" d="M 1228 531 
L 3431 531 
L 3431 0 
L 469 0 
L 469 531 
Q 828 903 1448 1529 
Q 2069 2156 2228 2338 
Q 2531 2678 2651 2914 
Q 2772 3150 2772 3378 
Q 2772 3750 2511 3984 
Q 2250 4219 1831 4219 
Q 1534 4219 1204 4116 
Q 875 4013 500 3803 
L 500 4441 
Q 881 4594 1212 4672 
Q 1544 4750 1819 4750 
Q 2544 4750 2975 4387 
Q 3406 4025 3406 3419 
Q 3406 3131 3298 2873 
Q 3191 2616 2906 2266 
Q 2828 2175 2409 1742 
Q 1991 1309 1228 531 
z
" transform="scale(0.015625)"/>
        <path id="DejaVuSans-30" d="M 2034 4250 
Q 1547 4250 1301 3770 
Q 1056 3291 1056 2328 
Q 1056 1369 1301 889 
Q 1547 409 2034 409 
Q 2525 409 2770 889 
Q 3016 1369 3016 2328 
Q 3016 3291 2770 3770 
Q 2525 4250 2034 4250 
z
M 2034 4750 
Q 2819 4750 3233 4129 
Q 3647 3509 3647 2328 
Q 3647 1150 3233 529 
Q 2819 -91 2034 -91 
Q 1250 -91 836 529 
Q 422 1150 422 2328 
Q 422 3509 836 4129 
Q 1250 4750 2034 4750 
z
" transform="scale(0.015625)"/>
        <path id="DejaVuSans-31" d="M 794 531 
L 1825 531 
L 1825 4091 
L 703 3866 
L 703 4441 
L 1819 4666 
L 2450 4666 
L 2450 531 
L 3481 531 
L 3481 0 
L 794 0 
L 794 531 
z
" transform="scale(0.015625)"/>
       </defs>
       <use xlink:href="#DejaVuSans-32"/>
       <use xlink:href="#DejaVuSans-30" x="63.623047"/>
       <use xlink:href="#DejaVuSans-31" x="127.246094"/>
       <use xlink:href="#DejaVuSans-31" x="190.869141"/>
      </g>
     </g>
    </g>
    <g id="xtick_2">
     <g id="line2d_2">
      <g>
       <use xlink:href="#mc102868bb8" x="450.984627" y="320.4" style="stroke: #000000; stroke-width: 0.8"/>
      </g>
     </g>
     <g id="text_2">
      <!-- 2012 -->
      <g transform="translate(431.897127 338.797656) scale(0.15 -0.15)">
       <use xlink:href="#DejaVuSans-32"/>
       <use xlink:href="#DejaVuSans-30" x="63.623047"/>
       <use xlink:href="#DejaVuSans-31" x="127.246094"/>
       <use xlink:href="#DejaVuSans-32" x="190.869141"/>
      </g>
     </g>
    </g>
    <g id="xtick_3">
     <g id="line2d_3">
      <g>
       <use xlink:href="#mc102868bb8" x="620.507836" y="320.4" style="stroke: #000000; stroke-width: 0.8"/>
      </g>
     </g>
     <g id="text_3">
      <!-- 2013 -->
      <g transform="translate(601.420336 338.797656) scale(0.15 -0.15)">
       <defs>
        <path id="DejaVuSans-33" d="M 2597 2516 
Q 3050 2419 3304 2112 
Q 3559 1806 3559 1356 
Q 3559 666 3084 287 
Q 2609 -91 1734 -91 
Q 1441 -91 1130 -33 
Q 819 25 488 141 
L 488 750 
Q 750 597 1062 519 
Q 1375 441 1716 441 
Q 2309 441 2620 675 
Q 2931 909 2931 1356 
Q 2931 1769 2642 2001 
Q 2353 2234 1838 2234 
L 1294 2234 
L 1294 2753 
L 1863 2753 
Q 2328 2753 2575 2939 
Q 2822 3125 2822 3475 
Q 2822 3834 2567 4026 
Q 2313 4219 1838 4219 
Q 1578 4219 1281 4162 
Q 984 4106 628 3988 
L 628 4550 
Q 988 4650 1302 4700 
Q 1616 4750 1894 4750 
Q 2613 4750 3031 4423 
Q 3450 4097 3450 3541 
Q 3450 3153 3228 2886 
Q 3006 2619 2597 2516 
z
" transform="scale(0.015625)"/>
       </defs>
       <use xlink:href="#DejaVuSans-32"/>
       <use xlink:href="#DejaVuSans-30" x="63.623047"/>
       <use xlink:href="#DejaVuSans-31" x="127.246094"/>
       <use xlink:href="#DejaVuSans-33" x="190.869141"/>
      </g>
     </g>
    </g>
    <g id="xtick_4">
     <g id="line2d_4">
      <g>
       <use xlink:href="#mc102868bb8" x="789.567866" y="320.4" style="stroke: #000000; stroke-width: 0.8"/>
      </g>
     </g>
     <g id="text_4">
      <!-- 2014 -->
      <g transform="translate(770.480366 338.797656) scale(0.15 -0.15)">
       <defs>
        <path id="DejaVuSans-34" d="M 2419 4116 
L 825 1625 
L 2419 1625 
L 2419 4116 
z
M 2253 4666 
L 3047 4666 
L 3047 1625 
L 3713 1625 
L 3713 1100 
L 3047 1100 
L 3047 0 
L 2419 0 
L 2419 1100 
L 313 1100 
L 313 1709 
L 2253 4666 
z
" transform="scale(0.015625)"/>
       </defs>
       <use xlink:href="#DejaVuSans-32"/>
       <use xlink:href="#DejaVuSans-30" x="63.623047"/>
       <use xlink:href="#DejaVuSans-31" x="127.246094"/>
       <use xlink:href="#DejaVuSans-34" x="190.869141"/>
      </g>
     </g>
    </g>
    <g id="xtick_5">
     <g id="line2d_5">
      <g>
       <use xlink:href="#mc102868bb8" x="958.627897" y="320.4" style="stroke: #000000; stroke-width: 0.8"/>
      </g>
     </g>
     <g id="text_5">
      <!-- 2015 -->
      <g transform="translate(939.540397 338.797656) scale(0.15 -0.15)">
       <defs>
        <path id="DejaVuSans-35" d="M 691 4666 
L 3169 4666 
L 3169 4134 
L 1269 4134 
L 1269 2991 
Q 1406 3038 1543 3061 
Q 1681 3084 1819 3084 
Q 2600 3084 3056 2656 
Q 3513 2228 3513 1497 
Q 3513 744 3044 326 
Q 2575 -91 1722 -91 
Q 1428 -91 1123 -41 
Q 819 9 494 109 
L 494 744 
Q 775 591 1075 516 
Q 1375 441 1709 441 
Q 2250 441 2565 725 
Q 2881 1009 2881 1497 
Q 2881 1984 2565 2268 
Q 2250 2553 1709 2553 
Q 1456 2553 1204 2497 
Q 953 2441 691 2322 
L 691 4666 
z
" transform="scale(0.015625)"/>
       </defs>
       <use xlink:href="#DejaVuSans-32"/>
       <use xlink:href="#DejaVuSans-30" x="63.623047"/>
       <use xlink:href="#DejaVuSans-31" x="127.246094"/>
       <use xlink:href="#DejaVuSans-35" x="190.869141"/>
      </g>
     </g>
    </g>
    <g id="xtick_6">
     <g id="line2d_6">
      <g>
       <use xlink:href="#mc102868bb8" x="1127.687927" y="320.4" style="stroke: #000000; stroke-width: 0.8"/>
      </g>
     </g>
     <g id="text_6">
      <!-- 2016 -->
      <g transform="translate(1108.600427 338.797656) scale(0.15 -0.15)">
       <defs>
        <path id="DejaVuSans-36" d="M 2113 2584 
Q 1688 2584 1439 2293 
Q 1191 2003 1191 1497 
Q 1191 994 1439 701 
Q 1688 409 2113 409 
Q 2538 409 2786 701 
Q 3034 994 3034 1497 
Q 3034 2003 2786 2293 
Q 2538 2584 2113 2584 
z
M 3366 4563 
L 3366 3988 
Q 3128 4100 2886 4159 
Q 2644 4219 2406 4219 
Q 1781 4219 1451 3797 
Q 1122 3375 1075 2522 
Q 1259 2794 1537 2939 
Q 1816 3084 2150 3084 
Q 2853 3084 3261 2657 
Q 3669 2231 3669 1497 
Q 3669 778 3244 343 
Q 2819 -91 2113 -91 
Q 1303 -91 875 529 
Q 447 1150 447 2328 
Q 447 3434 972 4092 
Q 1497 4750 2381 4750 
Q 2619 4750 2861 4703 
Q 3103 4656 3366 4563 
z
" transform="scale(0.015625)"/>
       </defs>
       <use xlink:href="#DejaVuSans-32"/>
       <use xlink:href="#DejaVuSans-30" x="63.623047"/>
       <use xlink:href="#DejaVuSans-31" x="127.246094"/>
       <use xlink:href="#DejaVuSans-36" x="190.869141"/>
      </g>
     </g>
    </g>
    <g id="xtick_7">
     <g id="line2d_7">
      <g>
       <use xlink:href="#mc102868bb8" x="1297.211136" y="320.4" style="stroke: #000000; stroke-width: 0.8"/>
      </g>
     </g>
     <g id="text_7">
      <!-- 2017 -->
      <g transform="translate(1278.123636 338.797656) scale(0.15 -0.15)">
       <defs>
        <path id="DejaVuSans-37" d="M 525 4666 
L 3525 4666 
L 3525 4397 
L 1831 0 
L 1172 0 
L 2766 4134 
L 525 4134 
L 525 4666 
z
" transform="scale(0.015625)"/>
       </defs>
       <use xlink:href="#DejaVuSans-32"/>
       <use xlink:href="#DejaVuSans-30" x="63.623047"/>
       <use xlink:href="#DejaVuSans-31" x="127.246094"/>
       <use xlink:href="#DejaVuSans-37" x="190.869141"/>
      </g>
     </g>
    </g>
    <g id="xtick_8">
     <g id="line2d_8">
      <g>
       <use xlink:href="#mc102868bb8" x="1466.271167" y="320.4" style="stroke: #000000; stroke-width: 0.8"/>
      </g>
     </g>
     <g id="text_8">
      <!-- 2018 -->
      <g transform="translate(1447.183667 338.797656) scale(0.15 -0.15)">
       <defs>
        <path id="DejaVuSans-38" d="M 2034 2216 
Q 1584 2216 1326 1975 
Q 1069 1734 1069 1313 
Q 1069 891 1326 650 
Q 1584 409 2034 409 
Q 2484 409 2743 651 
Q 3003 894 3003 1313 
Q 3003 1734 2745 1975 
Q 2488 2216 2034 2216 
z
M 1403 2484 
Q 997 2584 770 2862 
Q 544 3141 544 3541 
Q 544 4100 942 4425 
Q 1341 4750 2034 4750 
Q 2731 4750 3128 4425 
Q 3525 4100 3525 3541 
Q 3525 3141 3298 2862 
Q 3072 2584 2669 2484 
Q 3125 2378 3379 2068 
Q 3634 1759 3634 1313 
Q 3634 634 3220 271 
Q 2806 -91 2034 -91 
Q 1263 -91 848 271 
Q 434 634 434 1313 
Q 434 1759 690 2068 
Q 947 2378 1403 2484 
z
M 1172 3481 
Q 1172 3119 1398 2916 
Q 1625 2713 2034 2713 
Q 2441 2713 2670 2916 
Q 2900 3119 2900 3481 
Q 2900 3844 2670 4047 
Q 2441 4250 2034 4250 
Q 1625 4250 1398 4047 
Q 1172 3844 1172 3481 
z
" transform="scale(0.015625)"/>
       </defs>
       <use xlink:href="#DejaVuSans-32"/>
       <use xlink:href="#DejaVuSans-30" x="63.623047"/>
       <use xlink:href="#DejaVuSans-31" x="127.246094"/>
       <use xlink:href="#DejaVuSans-38" x="190.869141"/>
      </g>
     </g>
    </g>
    <g id="text_9">
     <!-- Time -->
     <g transform="translate(904.149609 357.314844) scale(0.15 -0.15)">
      <defs>
       <path id="DejaVuSans-54" d="M -19 4666 
L 3928 4666 
L 3928 4134 
L 2272 4134 
L 2272 0 
L 1638 0 
L 1638 4134 
L -19 4134 
L -19 4666 
z
" transform="scale(0.015625)"/>
       <path id="DejaVuSans-69" d="M 603 3500 
L 1178 3500 
L 1178 0 
L 603 0 
L 603 3500 
z
M 603 4863 
L 1178 4863 
L 1178 4134 
L 603 4134 
L 603 4863 
z
" transform="scale(0.015625)"/>
       <path id="DejaVuSans-6d" d="M 3328 2828 
Q 3544 3216 3844 3400 
Q 4144 3584 4550 3584 
Q 5097 3584 5394 3201 
Q 5691 2819 5691 2113 
L 5691 0 
L 5113 0 
L 5113 2094 
Q 5113 2597 4934 2840 
Q 4756 3084 4391 3084 
Q 3944 3084 3684 2787 
Q 3425 2491 3425 1978 
L 3425 0 
L 2847 0 
L 2847 2094 
Q 2847 2600 2669 2842 
Q 2491 3084 2119 3084 
Q 1678 3084 1418 2786 
Q 1159 2488 1159 1978 
L 1159 0 
L 581 0 
L 581 3500 
L 1159 3500 
L 1159 2956 
Q 1356 3278 1631 3431 
Q 1906 3584 2284 3584 
Q 2666 3584 2933 3390 
Q 3200 3197 3328 2828 
z
" transform="scale(0.015625)"/>
       <path id="DejaVuSans-65" d="M 3597 1894 
L 3597 1613 
L 953 1613 
Q 991 1019 1311 708 
Q 1631 397 2203 397 
Q 2534 397 2845 478 
Q 3156 559 3463 722 
L 3463 178 
Q 3153 47 2828 -22 
Q 2503 -91 2169 -91 
Q 1331 -91 842 396 
Q 353 884 353 1716 
Q 353 2575 817 3079 
Q 1281 3584 2069 3584 
Q 2775 3584 3186 3129 
Q 3597 2675 3597 1894 
z
M 3022 2063 
Q 3016 2534 2758 2815 
Q 2500 3097 2075 3097 
Q 1594 3097 1305 2825 
Q 1016 2553 972 2059 
L 3022 2063 
z
" transform="scale(0.015625)"/>
      </defs>
      <use xlink:href="#DejaVuSans-54"/>
      <use xlink:href="#DejaVuSans-69" x="57.958984"/>
      <use xlink:href="#DejaVuSans-6d" x="85.742188"/>
      <use xlink:href="#DejaVuSans-65" x="183.154297"/>
     </g>
    </g>
   </g>
   <g id="matplotlib.axis_2">
    <g id="ytick_1">
     <g id="line2d_9">
      <defs>
       <path id="mbae7bcdcac" d="M 0 0 
L -3.5 0 
" style="stroke: #000000; stroke-width: 0.8"/>
      </defs>
      <g>
       <use xlink:href="#mbae7bcdcac" x="225" y="302.423742" style="stroke: #000000; stroke-width: 0.8"/>
      </g>
     </g>
     <g id="text_10">
      <!-- −0.004 -->
      <g transform="translate(162.488281 308.12257) scale(0.15 -0.15)">
       <defs>
        <path id="DejaVuSans-2212" d="M 678 2272 
L 4684 2272 
L 4684 1741 
L 678 1741 
L 678 2272 
z
" transform="scale(0.015625)"/>
        <path id="DejaVuSans-2e" d="M 684 794 
L 1344 794 
L 1344 0 
L 684 0 
L 684 794 
z
" transform="scale(0.015625)"/>
       </defs>
       <use xlink:href="#DejaVuSans-2212"/>
       <use xlink:href="#DejaVuSans-30" x="83.789062"/>
       <use xlink:href="#DejaVuSans-2e" x="147.412109"/>
       <use xlink:href="#DejaVuSans-30" x="179.199219"/>
       <use xlink:href="#DejaVuSans-30" x="242.822266"/>
       <use xlink:href="#DejaVuSans-34" x="306.445312"/>
      </g>
     </g>
    </g>
    <g id="ytick_2">
     <g id="line2d_10">
      <g>
       <use xlink:href="#mbae7bcdcac" x="225" y="249.489347" style="stroke: #000000; stroke-width: 0.8"/>
      </g>
     </g>
     <g id="text_11">
      <!-- −0.002 -->
      <g transform="translate(162.488281 255.188175) scale(0.15 -0.15)">
       <use xlink:href="#DejaVuSans-2212"/>
       <use xlink:href="#DejaVuSans-30" x="83.789062"/>
       <use xlink:href="#DejaVuSans-2e" x="147.412109"/>
       <use xlink:href="#DejaVuSans-30" x="179.199219"/>
       <use xlink:href="#DejaVuSans-30" x="242.822266"/>
       <use xlink:href="#DejaVuSans-32" x="306.445312"/>
      </g>
     </g>
    </g>
    <g id="ytick_3">
     <g id="line2d_11">
      <g>
       <use xlink:href="#mbae7bcdcac" x="225" y="196.554951" style="stroke: #000000; stroke-width: 0.8"/>
      </g>
     </g>
     <g id="text_12">
      <!-- 0.000 -->
      <g transform="translate(175.057813 202.25378) scale(0.15 -0.15)">
       <use xlink:href="#DejaVuSans-30"/>
       <use xlink:href="#DejaVuSans-2e" x="63.623047"/>
       <use xlink:href="#DejaVuSans-30" x="95.410156"/>
       <use xlink:href="#DejaVuSans-30" x="159.033203"/>
       <use xlink:href="#DejaVuSans-30" x="222.65625"/>
      </g>
     </g>
    </g>
    <g id="ytick_4">
     <g id="line2d_12">
      <g>
       <use xlink:href="#mbae7bcdcac" x="225" y="143.620556" style="stroke: #000000; stroke-width: 0.8"/>
      </g>
     </g>
     <g id="text_13">
      <!-- 0.002 -->
      <g transform="translate(175.057813 149.319384) scale(0.15 -0.15)">
       <use xlink:href="#DejaVuSans-30"/>
       <use xlink:href="#DejaVuSans-2e" x="63.623047"/>
       <use xlink:href="#DejaVuSans-30" x="95.410156"/>
       <use xlink:href="#DejaVuSans-30" x="159.033203"/>
       <use xlink:href="#DejaVuSans-32" x="222.65625"/>
      </g>
     </g>
    </g>
    <g id="ytick_5">
     <g id="line2d_13">
      <g>
       <use xlink:href="#mbae7bcdcac" x="225" y="90.686161" style="stroke: #000000; stroke-width: 0.8"/>
      </g>
     </g>
     <g id="text_14">
      <!-- 0.004 -->
      <g transform="translate(175.057813 96.384989) scale(0.15 -0.15)">
       <use xlink:href="#DejaVuSans-30"/>
       <use xlink:href="#DejaVuSans-2e" x="63.623047"/>
       <use xlink:href="#DejaVuSans-30" x="95.410156"/>
       <use xlink:href="#DejaVuSans-30" x="159.033203"/>
       <use xlink:href="#DejaVuSans-34" x="222.65625"/>
      </g>
     </g>
    </g>
    <g id="text_15">
     <!-- East(m) -->
     <g transform="translate(155.36875 211.140234) rotate(-90) scale(0.15 -0.15)">
      <defs>
       <path id="DejaVuSans-45" d="M 628 4666 
L 3578 4666 
L 3578 4134 
L 1259 4134 
L 1259 2753 
L 3481 2753 
L 3481 2222 
L 1259 2222 
L 1259 531 
L 3634 531 
L 3634 0 
L 628 0 
L 628 4666 
z
" transform="scale(0.015625)"/>
       <path id="DejaVuSans-61" d="M 2194 1759 
Q 1497 1759 1228 1600 
Q 959 1441 959 1056 
Q 959 750 1161 570 
Q 1363 391 1709 391 
Q 2188 391 2477 730 
Q 2766 1069 2766 1631 
L 2766 1759 
L 2194 1759 
z
M 3341 1997 
L 3341 0 
L 2766 0 
L 2766 531 
Q 2569 213 2275 61 
Q 1981 -91 1556 -91 
Q 1019 -91 701 211 
Q 384 513 384 1019 
Q 384 1609 779 1909 
Q 1175 2209 1959 2209 
L 2766 2209 
L 2766 2266 
Q 2766 2663 2505 2880 
Q 2244 3097 1772 3097 
Q 1472 3097 1187 3025 
Q 903 2953 641 2809 
L 641 3341 
Q 956 3463 1253 3523 
Q 1550 3584 1831 3584 
Q 2591 3584 2966 3190 
Q 3341 2797 3341 1997 
z
" transform="scale(0.015625)"/>
       <path id="DejaVuSans-73" d="M 2834 3397 
L 2834 2853 
Q 2591 2978 2328 3040 
Q 2066 3103 1784 3103 
Q 1356 3103 1142 2972 
Q 928 2841 928 2578 
Q 928 2378 1081 2264 
Q 1234 2150 1697 2047 
L 1894 2003 
Q 2506 1872 2764 1633 
Q 3022 1394 3022 966 
Q 3022 478 2636 193 
Q 2250 -91 1575 -91 
Q 1294 -91 989 -36 
Q 684 19 347 128 
L 347 722 
Q 666 556 975 473 
Q 1284 391 1588 391 
Q 1994 391 2212 530 
Q 2431 669 2431 922 
Q 2431 1156 2273 1281 
Q 2116 1406 1581 1522 
L 1381 1569 
Q 847 1681 609 1914 
Q 372 2147 372 2553 
Q 372 3047 722 3315 
Q 1072 3584 1716 3584 
Q 2034 3584 2315 3537 
Q 2597 3491 2834 3397 
z
" transform="scale(0.015625)"/>
       <path id="DejaVuSans-74" d="M 1172 4494 
L 1172 3500 
L 2356 3500 
L 2356 3053 
L 1172 3053 
L 1172 1153 
Q 1172 725 1289 603 
Q 1406 481 1766 481 
L 2356 481 
L 2356 0 
L 1766 0 
Q 1100 0 847 248 
Q 594 497 594 1153 
L 594 3053 
L 172 3053 
L 172 3500 
L 594 3500 
L 594 4494 
L 1172 4494 
z
" transform="scale(0.015625)"/>
       <path id="DejaVuSans-28" d="M 1984 4856 
Q 1566 4138 1362 3434 
Q 1159 2731 1159 2009 
Q 1159 1288 1364 580 
Q 1569 -128 1984 -844 
L 1484 -844 
Q 1016 -109 783 600 
Q 550 1309 550 2009 
Q 550 2706 781 3412 
Q 1013 4119 1484 4856 
L 1984 4856 
z
" transform="scale(0.015625)"/>
       <path id="DejaVuSans-29" d="M 513 4856 
L 1013 4856 
Q 1481 4119 1714 3412 
Q 1947 2706 1947 2009 
Q 1947 1309 1714 600 
Q 1481 -109 1013 -844 
L 513 -844 
Q 928 -128 1133 580 
Q 1338 1288 1338 2009 
Q 1338 2731 1133 3434 
Q 928 4138 513 4856 
z
" transform="scale(0.015625)"/>
      </defs>
      <use xlink:href="#DejaVuSans-45"/>
      <use xlink:href="#DejaVuSans-61" x="63.183594"/>
      <use xlink:href="#DejaVuSans-73" x="124.462891"/>
      <use xlink:href="#DejaVuSans-74" x="176.5625"/>
      <use xlink:href="#DejaVuSans-28" x="215.771484"/>
      <use xlink:href="#DejaVuSans-6d" x="254.785156"/>
      <use xlink:href="#DejaVuSans-29" x="352.197266"/>
     </g>
    </g>
   </g>
   <g id="line2d_14">
    <path d="M 288.409091 273.039122 
L 288.872269 259.601561 
L 289.335447 273.557549 
L 289.798625 276.979593 
L 290.261804 271.979774 
L 291.18816 280.122266 
L 291.651338 276.504248 
L 292.114516 275.211562 
L 292.577694 263.093793 
L 293.040873 258.352809 
L 293.504051 262.364906 
L 293.967229 260.561781 
L 294.430407 256.505164 
L 294.893585 261.473861 
L 295.356763 268.310386 
L 295.819942 277.823879 
L 296.28312 281.714983 
L 296.746298 281.344868 
L 297.209476 286.192572 
L 297.672654 289.013645 
L 298.135832 285.021305 
L 298.599011 283.792897 
L 299.062189 283.687454 
L 299.525367 288.168398 
L 299.988545 291.564188 
L 300.451723 285.503625 
L 300.914901 285.239379 
L 301.37808 291.073932 
L 338.895511 279.477944 
L 339.358689 266.985853 
L 340.285045 231.206834 
L 340.748224 220.049446 
L 341.67458 188.482493 
L 342.137758 194.475849 
L 342.600936 202.151762 
L 343.064114 200.492316 
L 343.527293 200.587268 
L 343.990471 200.266307 
L 344.453649 195.32871 
L 344.916827 198.743404 
L 345.380005 200.868768 
L 345.843183 197.137319 
L 346.306362 195.837071 
L 346.76954 202.926925 
L 347.232718 207.441898 
L 348.159074 221.322905 
L 348.622252 207.938491 
L 349.085431 208.248961 
L 349.548609 220.556634 
L 350.011787 217.61542 
L 350.474965 217.150779 
L 350.938143 213.468484 
L 351.401321 212.512309 
L 352.327678 226.884849 
L 352.790856 225.921113 
L 353.717212 240.486486 
L 354.18039 252.7261 
L 354.643569 244.389359 
L 356.033103 231.656133 
L 356.496281 217.746156 
L 357.422638 207.436144 
L 358.348994 214.783534 
L 358.812172 212.001123 
L 359.27535 217.601252 
L 359.738528 233.444186 
L 360.201707 228.865787 
L 360.664885 237.868841 
L 362.054419 250.287015 
L 362.517597 239.832898 
L 362.980776 236.460647 
L 363.443954 245.71703 
L 363.907132 238.48813 
L 364.37031 249.27961 
L 365.296666 274.405394 
L 365.759845 283.139996 
L 366.686201 284.566295 
L 367.149379 287.115134 
L 367.612557 279.489226 
L 368.075735 253.498864 
L 368.538914 235.168865 
L 369.002092 237.944565 
L 369.46527 234.893702 
L 369.928448 221.596251 
L 370.391626 213.395627 
L 370.854804 216.360379 
L 371.317983 235.999465 
L 371.781161 250.534164 
L 372.244339 250.53459 
L 372.707517 253.624116 
L 373.170695 275.418388 
L 374.097052 275.366306 
L 374.56023 274.655898 
L 375.486586 267.979454 
L 375.949764 270.864805 
L 376.412942 258.565546 
L 376.876121 267.829491 
L 377.339299 254.078317 
L 377.802477 250.698504 
L 378.265655 249.920038 
L 379.192011 258.318553 
L 379.65519 260.727494 
L 380.118368 263.866174 
L 380.581546 276.51792 
L 381.044724 274.064458 
L 381.507902 277.225824 
L 381.97108 274.938728 
L 382.434259 271.785776 
L 382.897437 274.308148 
L 383.360615 282.180675 
L 383.823793 279.45876 
L 384.286971 280.014997 
L 384.750149 275.754204 
L 385.213328 274.752658 
L 385.676506 271.380406 
L 386.602862 250.899428 
L 387.06604 249.576494 
L 387.529218 251.478778 
L 387.992397 249.785303 
L 388.455575 256.523521 
L 389.381931 282.027408 
L 389.845109 272.991177 
L 390.308287 274.042728 
L 390.771466 286.350401 
L 391.234644 285.946257 
L 391.697822 274.013758 
L 392.624178 259.026614 
L 393.087356 261.866592 
L 393.550535 257.174762 
L 394.013713 244.187356 
L 394.476891 241.631807 
L 394.940069 247.156315 
L 395.403247 235.114166 
L 395.866425 226.10062 
L 396.329604 237.504627 
L 396.792782 238.548617 
L 397.25596 240.458462 
L 397.719138 241.305838 
L 398.182316 244.436956 
L 398.645494 245.545223 
L 399.108673 242.781717 
L 399.571851 232.478841 
L 400.035029 235.647769 
L 400.498207 233.837082 
L 401.887742 242.655292 
L 402.35092 255.825039 
L 402.814098 274.689015 
L 403.277276 277.786103 
L 403.740454 275.499006 
L 404.203632 268.489406 
L 406.056345 234.321958 
L 406.519523 233.293944 
L 406.982701 239.17765 
L 407.44588 252.279338 
L 407.909058 254.87355 
L 408.372236 255.569685 
L 408.835414 259.778395 
L 409.298592 266.251941 
L 410.224949 268.430665 
L 410.688127 268.355471 
L 411.151305 269.282248 
L 411.614483 277.128308 
L 412.077661 264.269457 
L 413.004018 257.808531 
L 413.467196 243.717065 
L 413.930374 239.282345 
L 414.393552 236.526401 
L 414.85673 221.217444 
L 415.319908 222.790778 
L 415.783087 214.461598 
L 416.246265 210.29155 
L 416.709443 218.856005 
L 417.172621 204.832597 
L 417.635799 201.615368 
L 418.098977 204.133959 
L 418.562156 200.674744 
L 419.488512 190.742834 
L 419.95169 179.997578 
L 420.414868 172.178838 
L 420.878046 161.947801 
L 421.804403 155.494438 
L 422.267581 159.022563 
L 422.730759 159.034332 
L 423.657115 172.46497 
L 424.120294 183.498436 
L 424.583472 187.979381 
L 425.04665 183.661872 
L 425.509828 182.724603 
L 425.973006 171.601244 
L 426.436184 172.081861 
L 426.899363 159.816631 
L 427.825719 156.796441 
L 428.288897 160.351034 
L 428.752075 158.169806 
L 429.215253 163.762373 
L 429.678432 164.526567 
L 430.14161 162.265938 
L 430.604788 162.134028 
L 431.067966 165.938168 
L 431.531144 167.091807 
L 431.994322 170.710677 
L 432.4575 167.86777 
L 432.920679 167.425816 
L 433.847035 150.960289 
L 434.773391 141.516133 
L 435.236569 135.935761 
L 435.699748 134.045673 
L 436.162926 126.245837 
L 436.626104 134.122145 
L 437.55246 156.230669 
L 438.015638 159.830634 
L 438.478817 170.172172 
L 438.941995 170.40324 
L 439.405173 179.273959 
L 439.868351 175.292962 
L 441.257886 134.466697 
L 441.721064 122.163657 
L 442.184242 119.672385 
L 442.64742 115.082643 
L 443.573776 123.503844 
L 444.036955 132.760227 
L 449.131914 137.282763 
L 450.058271 141.869576 
L 450.521449 145.114124 
L 450.984627 142.048136 
L 451.447805 134.467601 
L 451.910983 132.845965 
L 452.374162 133.693342 
L 453.300518 147.612158 
L 453.763696 150.455918 
L 454.226874 146.149752 
L 454.690052 146.702208 
L 455.153231 151.939358 
L 455.616409 153.28583 
L 456.542765 148.560397 
L 457.005943 150.889936 
L 457.9323 164.407964 
L 458.395478 156.532508 
L 459.321834 137.416481 
L 459.785012 140.986198 
L 460.24819 135.666717 
L 460.711369 135.652019 
L 461.174547 132.680556 
L 461.637725 137.059413 
L 462.100903 138.617622 
L 462.564081 138.428997 
L 463.027259 131.476112 
L 463.953616 129.495705 
L 464.416794 127.80223 
L 464.879972 122.456282 
L 465.34315 124.347222 
L 465.806328 127.240135 
L 466.269507 121.274098 
L 466.732685 125.316443 
L 467.195863 123.437698 
L 467.659041 119.827242 
L 468.122219 123.351586 
L 468.585397 122.013528 
L 469.048576 126.131494 
L 469.511754 131.50098 
L 469.974932 134.851397 
L 470.901288 146.081902 
L 471.364466 154.203977 
L 471.827645 165.11645 
L 472.290823 172.951166 
L 472.754001 178.880245 
L 473.217179 177.440099 
L 473.680357 176.449895 
L 474.606714 163.791865 
L 475.069892 155.708452 
L 475.53307 151.315323 
L 475.996248 155.210208 
L 476.459426 161.574105 
L 476.922604 164.950989 
L 477.848961 182.650834 
L 478.312139 191.336281 
L 478.775317 195.106392 
L 479.238495 196.604106 
L 479.701673 196.483539 
L 480.164852 195.637014 
L 480.62803 198.824847 
L 481.091208 198.398017 
L 481.554386 195.44924 
L 482.480742 181.547251 
L 482.943921 176.443289 
L 483.870277 205.830292 
L 484.333455 209.226082 
L 484.796633 210.965781 
L 485.259811 225.969326 
L 486.186168 230.711588 
L 486.649346 222.49962 
L 487.112524 210.495282 
L 487.575702 204.896005 
L 488.03888 201.830017 
L 488.502059 182.974455 
L 488.965237 182.335887 
L 489.428415 178.146934 
L 489.891593 176.445897 
L 490.354771 181.614988 
L 491.281128 205.784172 
L 492.670662 246.654584 
L 493.13384 246.515112 
L 493.597018 245.332076 
L 494.060197 241.460729 
L 494.523375 236.25846 
L 494.986553 239.298833 
L 495.449731 227.559166 
L 495.912909 220.016441 
L 496.376087 223.495413 
L 496.839266 220.8529 
L 497.765622 214.441128 
L 498.2288 208.94772 
L 499.155156 215.591838 
L 499.618335 215.108292 
L 500.544691 205.830501 
L 501.471047 199.479225 
L 501.934225 187.08166 
L 502.860582 180.499741 
L 503.32376 176.265416 
L 503.786938 175.895301 
L 504.250116 171.729033 
L 504.713294 168.833192 
L 505.639651 182.215102 
L 506.102829 175.882306 
L 506.566007 181.440843 
L 507.029185 182.515081 
L 507.955542 206.657798 
L 508.41872 202.839386 
L 508.881898 187.606049 
L 509.345076 185.731085 
L 509.808254 178.751733 
L 510.271432 179.761693 
L 510.734611 173.031889 
L 511.197789 161.511522 
L 511.660967 162.899585 
L 512.124145 179.264301 
L 512.587323 184.996766 
L 513.51368 204.114496 
L 513.976858 209.21931 
L 514.440036 212.002573 
L 514.903214 210.123828 
L 515.366392 208.955916 
L 515.82957 209.512153 
L 516.292749 209.62601 
L 516.755927 205.879437 
L 517.219105 208.284597 
L 517.682283 216.236525 
L 518.145461 214.157385 
L 518.608639 213.613343 
L 519.071818 216.150839 
L 519.534996 224.537585 
L 519.998174 222.14462 
L 520.461352 218.931172 
L 520.92453 213.528509 
L 521.387708 225.004355 
L 521.850887 216.055088 
L 522.314065 213.975948 
L 522.777243 206.60715 
L 523.240421 207.862877 
L 523.703599 209.659291 
L 524.166777 201.991792 
L 524.629956 201.689736 
L 525.093134 208.685064 
L 525.556312 207.260042 
L 526.01949 215.767782 
L 526.482668 218.399803 
L 526.945846 212.543416 
L 527.409025 215.935424 
L 528.798559 210.159291 
L 529.261737 188.668353 
L 529.724915 186.434191 
L 530.651272 206.928216 
L 531.11445 208.335184 
L 531.577628 213.443779 
L 532.040806 222.038482 
L 532.503984 249.050574 
L 532.967162 259.773996 
L 533.430341 259.853823 
L 533.893519 259.169883 
L 534.356697 259.771492 
L 534.819875 257.155447 
L 535.283053 256.456382 
L 535.746231 263.875186 
L 536.20941 266.435368 
L 536.672588 272.398475 
L 537.135766 270.663409 
L 537.598944 269.574899 
L 538.5253 264.652852 
L 538.988479 248.810769 
L 539.451657 244.073567 
L 539.914835 246.603501 
L 540.378013 243.794623 
L 540.841191 255.315842 
L 541.767548 264.84668 
L 542.230726 275.96555 
L 543.157082 267.849196 
L 543.62026 255.635342 
L 544.083438 277.462084 
L 544.546617 269.51701 
L 545.009795 264.942392 
L 545.472973 263.948407 
L 545.936151 271.253779 
L 546.399329 273.549289 
L 546.862507 285.304932 
L 547.325686 275.232699 
L 547.788864 286.810633 
L 548.252042 280.114858 
L 548.71522 282.96996 
L 549.178398 283.677438 
L 549.641576 285.24321 
L 550.104755 269.990968 
L 550.567933 265.643212 
L 551.031111 264.69838 
L 551.957467 252.26343 
L 552.420645 240.580479 
L 552.883824 234.156938 
L 553.347002 235.238738 
L 553.81018 230.138557 
L 554.273358 218.580379 
L 554.736536 224.418713 
L 555.199714 218.225815 
L 555.662893 218.373701 
L 556.126071 222.975638 
L 556.589249 223.063027 
L 557.052427 220.420515 
L 557.515605 227.952749 
L 557.978783 242.876893 
L 558.90514 258.508516 
L 559.368318 259.23868 
L 559.831496 264.959801 
L 560.294674 264.740928 
L 560.757852 255.156447 
L 561.221031 251.190574 
L 561.684209 254.2801 
L 562.147387 254.541417 
L 562.610565 250.136945 
L 563.073743 243.562163 
L 563.536921 251.075492 
L 564.0001 248.818644 
L 564.463278 241.975409 
L 564.926456 237.230644 
L 565.389634 234.614599 
L 565.852812 237.556665 
L 566.31599 242.457303 
L 567.242347 246.492512 
L 567.705525 254.73936 
L 568.168703 248.198608 
L 568.631881 253.571875 
L 569.095059 253.530709 
L 569.558238 256.2686 
L 570.021416 254.919198 
L 570.484594 261.441898 
L 570.947772 255.54392 
L 571.41095 257.211779 
L 572.800485 232.432198 
L 573.726841 210.801787 
L 574.190019 208.518472 
L 574.653197 209.944346 
L 575.116376 211.956279 
L 576.042732 204.960243 
L 576.50591 204.233152 
L 576.969088 209.05661 
L 577.432266 210.715348 
L 578.358623 194.738236 
L 578.821801 188.895414 
L 579.284979 191.758078 
L 579.748157 193.115893 
L 580.211335 191.078345 
L 580.674514 191.751794 
L 581.60087 201.420735 
L 582.064048 206.536892 
L 582.527226 208.355992 
L 582.990404 207.66449 
L 583.453583 203.921698 
L 584.379939 185.546752 
L 585.306295 158.883793 
L 585.769473 152.830793 
L 586.232652 142.890896 
L 586.69583 142.00278 
L 587.159008 142.543893 
L 587.622186 149.478725 
L 588.085364 163.215626 
L 588.548542 171.908636 
L 589.938077 188.516189 
L 590.401255 192.830769 
L 590.864433 191.613703 
L 591.79079 170.406768 
L 592.253968 159.570767 
L 592.717146 161.132757 
L 593.180324 153.045564 
L 593.643502 141.725591 
L 594.10668 141.544528 
L 594.569859 142.838065 
L 595.033037 144.808407 
L 595.496215 148.128576 
L 596.422571 133.080509 
L 597.812106 120.574146 
L 598.275284 119.315489 
L 598.738462 114.279585 
L 599.20164 111.33459 
L 599.664818 114.359839 
L 600.127997 109.565921 
L 600.591175 107.830855 
L 601.517531 94.590546 
L 601.980709 90.741885 
L 602.443887 90.878428 
L 602.907066 93.631442 
L 603.833422 102.566864 
L 604.2966 102.650472 
L 605.222956 105.944174 
L 605.686135 105.90679 
L 606.149313 104.810717 
L 606.612491 105.567349 
L 607.075669 107.496099 
L 607.538847 114.767442 
L 608.002025 116.692412 
L 608.465204 109.834052 
L 608.928382 110.791078 
L 609.39156 114.704868 
L 609.854738 103.744094 
L 610.317916 97.184435 
L 610.781094 86.2955 
L 611.244273 81.830532 
L 611.707451 80.915949 
L 612.170629 78.371743 
L 612.633807 61.920915 
L 614.023342 64.527131 
L 615.412876 56.41522 
L 615.876054 55.8 
L 616.339232 61.669244 
L 616.802411 63.020158 
L 617.265589 76.988364 
L 617.728767 79.703569 
L 618.655123 96.707704 
L 619.118301 97.445431 
L 619.58148 90.129567 
L 620.044658 86.364089 
L 620.507836 78.7344 
L 620.971014 73.501883 
L 621.434192 75.396604 
L 621.89737 75.574738 
L 622.360549 95.648643 
L 623.286905 118.135269 
L 624.213261 135.256617 
L 625.139618 125.381423 
L 625.602796 106.820781 
L 627.455508 88.665987 
L 627.918686 96.353244 
L 628.845043 104.025802 
L 629.771399 101.328795 
L 631.160934 121.497179 
L 631.624112 120.036569 
L 632.08729 119.793449 
L 632.550468 122.525999 
L 633.013646 129.241531 
L 633.476824 128.153021 
L 633.940003 128.796221 
L 634.403181 127.00444 
L 634.866359 128.713891 
L 635.792715 143.460753 
L 636.255893 146.395256 
L 636.719072 151.0955 
L 637.18225 149.946494 
L 637.645428 149.693591 
L 638.108606 148.404686 
L 640.424497 86.995355 
L 640.887675 86.62524 
L 641.350853 82.164053 
L 641.814031 85.072089 
L 642.27721 90.120188 
L 642.740388 98.665738 
L 643.666744 120.101239 
L 644.129922 116.15049 
L 645.519457 124.333913 
L 645.982635 120.693208 
L 646.445813 121.827943 
L 646.908991 119.079561 
L 647.372169 120.902443 
L 647.835348 125.7993 
L 648.298526 128.639278 
L 648.761704 126.329496 
L 649.224882 132.806823 
L 649.68806 129.956354 
L 650.151238 115.596434 
L 650.614417 119.710619 
L 651.077595 118.765788 
L 651.540773 120.902495 
L 652.003951 125.126329 
L 652.467129 123.705089 
L 652.930307 126.393825 
L 653.393486 142.777447 
L 653.856664 147.273515 
L 654.319842 144.457075 
L 654.78302 139.413609 
L 655.246198 135.973299 
L 655.709376 131.398681 
L 656.172555 128.752387 
L 656.635733 128.525952 
L 657.098911 119.281764 
L 657.562089 123.547189 
L 658.025267 133.340478 
L 658.488445 131.276463 
L 659.414802 145.032695 
L 659.87798 146.71946 
L 660.341158 158.720869 
L 660.804336 162.071286 
L 661.267514 152.554864 
L 661.730693 155.23982 
L 662.193871 155.096567 
L 663.120227 152.257866 
L 663.583405 153.233798 
L 664.046583 147.403878 
L 664.509762 148.931839 
L 664.97294 149.862398 
L 665.436118 147.669828 
L 665.899296 141.121513 
L 666.825652 138.744098 
L 667.288831 145.047498 
L 667.752009 145.819253 
L 668.215187 144.86686 
L 668.678365 143.517459 
L 669.141543 153.930837 
L 669.604721 157.455181 
L 670.0679 157.591724 
L 670.531078 165.520966 
L 670.994256 168.205922 
L 671.457434 172.762487 
L 671.920612 184.571064 
L 672.38379 192.413342 
L 672.846969 194.795816 
L 673.310147 202.339393 
L 673.773325 193.454403 
L 674.236503 196.237665 
L 675.162859 185.757507 
L 675.626038 175.825172 
L 676.089216 176.116737 
L 676.552394 166.687278 
L 677.015572 170.510324 
L 677.47875 169.675142 
L 678.405107 178.85255 
L 679.331463 192.064314 
L 679.794641 184.597209 
L 680.257819 181.020782 
L 680.720997 174.449781 
L 681.184176 174.953084 
L 681.647354 174.080092 
L 682.110532 166.053395 
L 682.57371 163.248298 
L 683.036888 170.723817 
L 683.500066 167.117142 
L 684.426423 174.048618 
L 684.889601 173.417613 
L 685.352779 169.739098 
L 685.815957 165.134232 
L 686.279135 163.841546 
L 686.742314 168.519104 
L 687.205492 174.508678 
L 687.66867 173.703745 
L 688.131848 168.202775 
L 688.595026 175.285067 
L 689.058204 169.68579 
L 689.521383 173.508835 
L 689.984561 172.673654 
L 690.447739 166.155587 
L 690.910917 162.662343 
L 691.374095 162.66655 
L 691.837273 159.687526 
L 692.300452 159.842974 
L 692.76363 168.055793 
L 693.226808 164.524738 
L 693.689986 172.699747 
L 694.153164 176.526574 
L 694.616342 179.302274 
L 695.079521 185.11036 
L 695.542699 197.194952 
L 696.005877 190.412213 
L 696.469055 194.530179 
L 696.932233 190.719328 
L 697.85859 206.60428 
L 698.321768 209.625747 
L 698.784946 204.374325 
L 699.248124 196.041364 
L 699.711302 200.023213 
L 700.17448 202.390563 
L 700.637659 199.702677 
L 701.100837 199.158635 
L 701.564015 200.679035 
L 702.027193 203.428268 
L 702.490371 218.851508 
L 702.953549 218.231845 
L 703.416728 219.079222 
L 703.879906 222.554412 
L 704.343084 218.611226 
L 704.806262 218.188177 
L 705.26944 221.731426 
L 705.732618 226.480823 
L 706.195797 234.100021 
L 706.658975 230.867668 
L 708.511687 262.142256 
L 708.974866 261.114242 
L 709.438044 265.833391 
L 709.901222 278.507824 
L 710.3644 271.021814 
L 710.827578 272.64052 
L 711.290756 273.605108 
L 711.753935 281.258335 
L 712.217113 285.504855 
L 713.143469 289.383057 
L 713.606647 293.01171 
L 714.069825 292.500138 
L 714.533004 285.764993 
L 714.996182 282.020641 
L 715.45936 263.878134 
L 715.922538 256.821602 
L 716.385716 247.063194 
L 716.848894 246.231793 
L 717.312073 258.501656 
L 717.775251 265.761656 
L 718.238429 265.327264 
L 718.701607 273.006958 
L 719.164785 264.171121 
L 719.627963 274.739521 
L 721.017498 253.211624 
L 721.480676 259.416717 
L 721.943854 256.895197 
L 722.407032 268.045875 
L 722.870211 267.297657 
L 723.333389 266.209147 
L 723.796567 254.529977 
L 724.259745 257.135531 
L 724.722923 255.037486 
L 725.64928 247.355289 
L 726.112458 238.228313 
L 726.575636 237.820387 
L 727.038814 243.152063 
L 727.501992 245.523194 
L 727.96517 239.923917 
L 728.428348 243.644875 
L 728.891527 243.550775 
L 729.354705 245.740416 
L 729.817883 246.920523 
L 730.281061 244.542682 
L 730.744239 237.536862 
L 731.207417 233.087018 
L 731.670596 230.414257 
L 732.133774 229.991208 
L 732.596952 226.070707 
L 733.06013 227.541953 
L 733.523308 230.521829 
L 733.986486 234.412933 
L 734.449665 234.859521 
L 735.376021 225.426707 
L 735.839199 223.876911 
L 736.302377 220.436602 
L 736.765555 218.557856 
L 737.228734 208.073491 
L 737.691912 210.864316 
L 738.15509 210.426142 
L 738.618268 208.74023 
L 739.081446 207.897486 
L 739.544624 201.356733 
L 740.007803 193.035116 
L 740.470981 200.684562 
L 740.934159 202.63978 
L 741.397337 197.755117 
L 741.860515 202.26631 
L 742.323693 199.075548 
L 742.786872 206.396044 
L 743.25005 218.86252 
L 743.713228 220.110686 
L 744.176406 214.613496 
L 744.639584 220.41402 
L 745.102762 213.521631 
L 745.565941 211.775222 
L 746.492297 186.991434 
L 746.955475 174.556058 
L 747.418653 167.081391 
L 748.34501 161.308613 
L 748.808188 159.668072 
L 749.271366 162.6177 
L 749.734544 159.937377 
L 750.197722 164.11962 
L 750.6609 165.847976 
L 751.124079 165.451394 
L 751.587257 168.61654 
L 752.050435 167.34276 
L 752.513613 163.7928 
L 752.976791 166.625216 
L 753.903148 177.29613 
L 754.366326 176.876862 
L 754.829504 175.727855 
L 755.292682 175.406893 
L 755.75586 178.12966 
L 756.219038 177.423033 
L 756.682217 171.298193 
L 757.145395 171.66916 
L 757.608573 165.767401 
L 758.071751 167.915451 
L 758.534929 171.473824 
L 758.998107 171.629272 
L 759.461286 157.66258 
L 759.924464 168.257447 
L 760.387642 168.628414 
L 760.85082 165.883813 
L 761.313998 165.846429 
L 761.777176 162.553579 
L 762.240355 175.870786 
L 762.703533 185.652732 
L 763.629889 165.315433 
L 764.093067 170.635766 
L 764.556245 168.492349 
L 765.019424 175.544392 
L 765.482602 164.008901 
L 766.408958 177.489119 
L 766.872136 182.113742 
L 767.335314 185.596495 
L 767.798493 178.084018 
L 768.261671 166.499373 
L 768.724849 163.043939 
L 769.188027 152.124756 
L 769.651205 137.394296 
L 770.114383 135.666792 
L 770.577562 124.982032 
L 771.503918 134.49217 
L 772.430274 145.552529 
L 772.893452 154.366532 
L 773.356631 153.731745 
L 773.819809 163.146931 
L 774.282987 167.699715 
L 774.746165 166.966621 
L 775.209343 161.083767 
L 775.672521 158.883635 
L 776.1357 161.046809 
L 776.598878 164.711051 
L 777.062056 162.749123 
L 777.525234 149.270184 
L 777.988412 148.124958 
L 778.45159 150.571709 
L 778.914769 152.402153 
L 779.377947 152.073629 
L 779.841125 145.275766 
L 780.304303 147.064618 
L 780.767481 160.260833 
L 781.230659 157.032261 
L 781.693838 148.283387 
L 782.157016 146.419766 
L 783.54655 129.020752 
L 784.009728 128.075921 
L 784.472907 133.112676 
L 784.936085 140.527699 
L 785.399263 142.736245 
L 785.862441 135.82117 
L 786.325619 149.694189 
L 786.788797 149.584965 
L 787.251976 151.124269 
L 787.715154 149.551787 
L 788.64151 142.792161 
L 789.104688 147.299572 
L 789.567866 134.939817 
L 790.031045 130.936134 
L 790.494223 119.767403 
L 790.957401 114.062257 
L 791.883757 106.081358 
L 792.346935 100.841279 
L 792.810114 100.845486 
L 793.273292 104.694998 
L 793.73647 114.027002 
L 794.199648 113.395996 
L 794.662826 115.92593 
L 795.126004 126.025482 
L 796.978717 138.181868 
L 797.441895 139.572153 
L 797.905073 142.675243 
L 798.368252 141.358312 
L 798.83143 137.250981 
L 799.294608 140.590055 
L 799.757786 146.556944 
L 800.220964 147.733269 
L 800.684142 146.61073 
L 801.610499 160.631634 
L 802.073677 157.43331 
L 802.536855 152.386063 
L 803.000033 141.243799 
L 803.463211 149.706166 
L 803.92639 141.290023 
L 804.852746 117.058265 
L 805.315924 118.261058 
L 805.779102 122.95374 
L 806.24228 124.080912 
L 806.705459 106.563834 
L 807.168637 104.212461 
L 807.631815 105.43794 
L 808.094993 107.850662 
L 808.558171 104.633433 
L 809.021349 105.99881 
L 809.484528 112.956328 
L 809.947706 116.665942 
L 810.410884 132.036248 
L 810.874062 138.498451 
L 811.33724 139.735273 
L 811.800418 145.256 
L 812.263597 139.853337 
L 812.726775 140.008785 
L 813.189953 135.989978 
L 813.653131 119.762231 
L 814.116309 114.030618 
L 814.579487 115.808127 
L 815.042666 114.031469 
L 815.505844 113.494989 
L 815.969022 111.404507 
L 817.358556 146.202587 
L 817.821735 145.802224 
L 818.284913 149.031648 
L 818.748091 157.955301 
L 819.211269 163.430655 
L 819.674447 153.615532 
L 820.600804 144.349084 
L 821.52716 160.827656 
L 821.990338 160.155059 
L 822.453516 161.127209 
L 822.916694 170.992338 
L 823.379873 177.567972 
L 824.306229 197.177236 
L 824.769407 196.686128 
L 825.232585 203.299573 
L 825.695763 208.117028 
L 826.158941 214.231377 
L 826.62212 212.409347 
L 827.085298 213.256724 
L 828.011654 202.447616 
L 828.474832 202.085063 
L 829.401189 191.1474 
L 829.864367 193.605494 
L 830.327545 186.758478 
L 830.790723 184.694463 
L 831.253901 186.558935 
L 831.717079 182.589282 
L 832.180258 181.096201 
L 832.643436 189.554787 
L 833.106614 188.375533 
L 833.569792 192.569119 
L 834.03297 187.234514 
L 834.496148 184.092905 
L 834.959327 184.327755 
L 835.422505 186.558987 
L 835.885683 177.738275 
L 836.348861 178.963754 
L 836.812039 178.952836 
L 837.275217 183.53965 
L 837.738396 184.239566 
L 838.201574 179.407837 
L 838.664752 181.393303 
L 839.12793 186.603986 
L 839.591108 181.931061 
L 840.054286 182.283123 
L 840.517465 180.143486 
L 840.980643 185.255863 
L 841.443821 194.383691 
L 841.906999 191.892419 
L 842.370177 183.241852 
L 842.833355 187.140518 
L 843.296534 184.282487 
L 843.759712 184.116547 
L 844.22289 187.731636 
L 844.686068 176.687679 
L 845.149246 179.996504 
L 845.612424 179.244506 
L 846.075603 180.163721 
L 846.538781 180.341856 
L 847.001959 185.363487 
L 847.465137 174.966085 
L 847.928315 175.926892 
L 848.391493 169.650811 
L 848.854672 172.475665 
L 849.31785 173.674677 
L 849.781028 178.594221 
L 850.244206 180.239394 
L 850.707384 183.862045 
L 851.170562 185.507218 
L 851.633741 190.956106 
L 852.096919 194.798056 
L 852.560097 189.210123 
L 853.023275 180.533089 
L 853.486453 176.9491 
L 853.949631 182.73828 
L 854.41281 195.14804 
L 855.339166 203.232731 
L 855.802344 205.573613 
L 856.265522 218.85301 
L 856.7287 223.776335 
L 857.191879 218.430387 
L 857.655057 210.762887 
L 858.118235 212.971434 
L 858.581413 205.719848 
L 859.044591 209.614732 
L 859.507769 206.741577 
L 859.970948 206.828966 
L 860.434126 204.534308 
L 860.897304 204.674632 
L 861.360482 200.882687 
L 861.82366 194.788095 
L 862.286838 202.955542 
L 862.750017 201.080578 
L 863.676373 220.228557 
L 864.139551 236.468499 
L 864.602729 245.887466 
L 865.065907 264.96696 
L 865.529086 262.672302 
L 865.992264 270.77169 
L 866.455442 274.027582 
L 866.91862 283.767936 
L 867.381798 283.511252 
L 868.308155 292.68866 
L 868.771333 291.569901 
L 869.234511 289.955828 
L 869.697689 284.946392 
L 870.160867 289.612606 
L 870.624045 287.922913 
L 871.087224 285.291743 
L 871.550402 274.822502 
L 872.01358 277.745662 
L 872.476758 281.87119 
L 872.939936 271.670402 
L 873.403114 264.17683 
L 873.866293 253.023222 
L 874.329471 247.193303 
L 874.792649 245.862807 
L 875.255827 245.020063 
L 875.719005 227.714723 
L 876.645362 212.561214 
L 877.10854 215.862477 
L 877.571718 215.942305 
L 878.034896 221.141644 
L 878.498074 210.600564 
L 878.961252 222.836397 
L 879.424431 239.734238 
L 879.887609 237.632412 
L 880.350787 238.884358 
L 880.813965 244.098822 
L 881.277143 241.940281 
L 881.740321 250.618167 
L 882.2035 253.008202 
L 882.666678 250.119923 
L 883.129856 263.433349 
L 883.593034 264.288287 
L 884.056212 256.855212 
L 884.51939 253.293909 
L 884.982569 253.691343 
L 885.445747 256.981263 
L 885.908925 254.021144 
L 886.372103 241.986557 
L 886.835281 245.276478 
L 887.298459 244.592538 
L 887.761638 252.332728 
L 888.224816 254.098894 
L 888.687994 242.877228 
L 889.151172 241.951302 
L 889.61435 257.18171 
L 890.077528 256.675478 
L 890.540707 259.545704 
L 891.003885 256.468373 
L 891.467063 257.417837 
L 891.930241 259.308777 
L 892.393419 257.842164 
L 892.856597 241.451833 
L 893.319776 249.165556 
L 893.782954 248.818128 
L 894.246132 247.70315 
L 894.70931 247.851036 
L 895.172488 252.683616 
L 896.098845 265.876475 
L 897.025201 254.00868 
L 897.488379 247.116291 
L 898.414735 237.819595 
L 899.341092 233.389081 
L 899.80427 221.656977 
L 900.267448 227.979282 
L 900.730626 229.367345 
L 901.193804 224.448653 
L 901.656983 225.18638 
L 902.120161 228.73341 
L 902.583339 225.584239 
L 903.046517 227.509209 
L 903.509695 221.138602 
L 903.972873 222.488855 
L 904.436052 220.818066 
L 904.89923 215.044862 
L 905.362408 213.196365 
L 905.825586 212.130541 
L 906.288764 216.728697 
L 906.751942 228.212106 
L 907.215121 227.210559 
L 907.678299 231.328525 
L 908.141477 239.609403 
L 908.604655 232.395627 
L 909.067833 231.378956 
L 909.531011 221.231102 
L 909.99419 206.89765 
L 910.457368 201.283249 
L 910.920546 203.737562 
L 911.383724 197.355613 
L 912.31008 206.226757 
L 912.773259 205.380232 
L 913.236437 211.256376 
L 913.699615 211.657591 
L 914.162793 205.661306 
L 914.625971 202.682282 
L 915.552328 187.547678 
L 916.015506 187.336366 
L 916.478684 187.930413 
L 916.941862 193.814119 
L 917.40504 189.133632 
L 917.868218 188.733269 
L 918.331397 185.251368 
L 918.794575 180.597348 
L 919.257753 181.951382 
L 920.184109 171.342669 
L 920.647287 181.385506 
L 921.110466 177.049092 
L 921.573644 179.707581 
L 922.036822 180.101234 
L 922.5 178.880387 
L 922.963178 176.782343 
L 923.426356 179.331182 
L 923.889534 168.672889 
L 924.352713 172.836227 
L 924.815891 175.498497 
L 925.742247 191.443945 
L 926.205425 204.625035 
L 926.668603 199.555102 
L 927.131782 197.336064 
L 927.59496 193.192483 
L 928.058138 180.352537 
L 928.521316 172.503549 
L 928.984494 159.130478 
L 929.447672 149.254858 
L 929.910851 146.842988 
L 930.374029 145.830098 
L 930.837207 144.461792 
L 931.300385 147.437887 
L 932.226741 156.176695 
L 932.68992 154.536155 
L 933.153098 158.374324 
L 933.616276 157.67526 
L 934.079454 155.773828 
L 934.542632 154.791187 
L 935.00581 147.153936 
L 935.468989 143.475421 
L 935.932167 136.371295 
L 936.395345 132.061349 
L 936.858523 130.6817 
L 937.321701 132.549953 
L 937.784879 138.872259 
L 938.248058 138.044639 
L 938.711236 137.935415 
L 939.174414 137.035957 
L 939.637592 138.374866 
L 940.10077 133.528014 
L 940.563948 132.076525 
L 941.027127 129.097501 
L 941.490305 127.812377 
L 941.953483 127.060378 
L 942.879839 118.062383 
L 943.343017 117.711173 
L 943.806196 114.467477 
L 944.269374 114.857349 
L 944.732552 115.666915 
L 945.19573 119.259318 
L 945.658908 120.968768 
L 946.122086 117.963277 
L 946.585265 121.688015 
L 947.048443 121.317901 
L 947.974799 115.439253 
L 948.437977 108.887157 
L 948.901155 114.16968 
L 949.364334 110.536538 
L 949.827512 111.274264 
L 950.29069 117.426423 
L 950.753868 117.165958 
L 951.680224 117.960825 
L 952.143403 107.306314 
L 952.606581 117.073136 
L 953.069759 109.572002 
L 953.532937 104.502069 
L 953.996115 103.424901 
L 954.922472 107.010168 
L 955.38565 115.559499 
L 955.848828 114.013484 
L 956.312006 118.732633 
L 956.775184 128.242345 
L 957.238362 128.080187 
L 957.701541 123.705963 
L 958.164719 120.439581 
L 958.627897 120.19424 
L 959.091075 119.559453 
L 959.554253 129.284683 
L 960.017431 115.563758 
L 960.48061 119.81784 
L 960.943788 121.11894 
L 961.406966 123.115749 
L 961.870144 117.353888 
L 962.333322 118.484841 
L 962.7965 106.688459 
L 963.259679 116.950595 
L 963.722857 115.192843 
L 964.186035 122.388566 
L 964.649213 127.175773 
L 965.112391 133.188034 
L 966.038748 152.457006 
L 966.965104 147.164418 
L 967.428282 142.824224 
L 967.89146 141.512633 
L 968.354638 139.399464 
L 968.817817 134.817284 
L 969.280995 123.349851 
L 969.744173 119.569249 
L 970.207351 120.991341 
L 970.670529 120.63635 
L 971.133707 122.610473 
L 971.596886 122.675176 
L 972.060064 122.361777 
L 972.523242 126.58183 
L 973.449598 131.486676 
L 973.912776 132.519322 
L 974.375955 123.691047 
L 974.839133 119.502094 
L 975.302311 118.58373 
L 975.765489 129.322276 
L 976.228667 136.820481 
L 976.691845 134.427516 
L 977.155024 136.095375 
L 978.08138 162.438651 
L 978.544558 162.658376 
L 979.007736 163.634308 
L 979.470914 154.567828 
L 979.934093 156.765031 
L 980.860449 144.417045 
L 981.323627 147.24568 
L 981.786805 146.493681 
L 982.249983 142.883225 
L 982.713162 153.697392 
L 983.17634 157.868292 
L 983.639518 174.584643 
L 984.102696 175.647538 
L 984.565874 164.671639 
L 985.029052 163.216369 
L 985.492231 163.693205 
L 985.955409 160.506224 
L 986.418587 165.928644 
L 986.881765 162.586641 
L 987.344943 165.06364 
L 987.808121 161.525024 
L 988.2713 167.325547 
L 988.734478 167.991434 
L 989.197656 164.157897 
L 989.660834 149.397189 
L 990.124012 146.28961 
L 990.58719 154.385217 
L 991.050369 169.347172 
L 991.513547 163.910479 
L 991.976725 160.579819 
L 992.439903 160.875165 
L 992.903081 164.747364 
L 993.366259 163.847905 
L 993.829438 152.743451 
L 994.292616 149.019564 
L 994.755794 153.882392 
L 995.218972 155.149463 
L 995.68215 156.904286 
L 996.145328 172.853089 
L 996.608507 182.998013 
L 997.071685 187.395775 
L 997.534863 187.35461 
L 997.998041 186.201822 
L 998.461219 186.482044 
L 998.924397 192.796787 
L 999.387576 181.12896 
L 999.850754 188.419208 
L 1000.313932 188.483911 
L 1000.77711 188.86244 
L 1001.240288 193.744174 
L 1001.703466 201.612919 
L 1002.629823 199.942556 
L 1003.093001 192.702313 
L 1003.556179 200.862198 
L 1004.019357 204.337389 
L 1004.482535 205.702766 
L 1004.945714 204.145408 
L 1005.408892 206.093064 
L 1005.87207 222.004056 
L 1006.335248 221.202904 
L 1006.798426 218.673822 
L 1007.261604 220.912617 
L 1007.724783 219.774953 
L 1008.187961 222.928757 
L 1008.651139 229.050667 
L 1009.114317 223.969391 
L 1009.577495 230.613084 
L 1010.040673 230.443364 
L 1010.503852 232.538479 
L 1010.96703 237.397526 
L 1011.430208 240.804659 
L 1011.893386 239.856046 
L 1012.356564 241.520125 
L 1013.746099 226.529626 
L 1014.209277 227.191731 
L 1014.672455 224.299671 
L 1015.135633 222.825496 
L 1015.598811 220.76148 
L 1016.06199 216.719987 
L 1016.525168 226.781729 
L 1016.988346 224.66856 
L 1017.451524 224.245511 
L 1017.914702 224.3329 
L 1018.37788 221.077861 
L 1018.841059 221.463952 
L 1019.304237 218.579453 
L 1019.767415 220.806905 
L 1020.230593 243.697675 
L 1020.693771 237.262791 
L 1021.156949 241.87229 
L 1021.620127 241.585358 
L 1022.083306 231.441285 
L 1022.546484 233.131831 
L 1023.009662 230.621654 
L 1023.47284 206.086988 
L 1023.936018 215.502174 
L 1024.862375 216.799919 
L 1025.325553 227.542246 
L 1025.788731 232.216022 
L 1026.251909 235.052219 
L 1026.715087 242.316001 
L 1027.641444 221.887957 
L 1028.104622 222.689961 
L 1028.5678 219.090848 
L 1029.030978 217.877564 
L 1029.494156 222.154333 
L 1029.957334 221.614071 
L 1030.883691 247.635959 
L 1032.273225 266.928043 
L 1032.736403 253.744024 
L 1033.199582 249.233683 
L 1033.66276 241.861104 
L 1034.125938 226.102204 
L 1034.589116 226.408893 
L 1035.052294 225.721172 
L 1035.515472 214.775521 
L 1036.441829 234.577618 
L 1036.905007 242.106071 
L 1037.368185 253.438238 
L 1037.831363 248.319152 
L 1038.294541 238.224233 
L 1038.75772 247.450367 
L 1039.220898 241.696068 
L 1039.684076 233.514349 
L 1040.147254 227.654181 
L 1040.610432 224.486106 
L 1041.07361 219.805619 
L 1041.536789 218.679298 
L 1041.999967 218.883899 
L 1042.463145 217.133709 
L 1042.926323 229.373324 
L 1043.389501 226.643847 
L 1043.852679 228.296582 
L 1045.242214 247.176534 
L 1045.705392 258.675067 
L 1046.16857 263.511428 
L 1047.094927 285.415776 
L 1047.558105 288.68301 
L 1048.021283 297.020603 
L 1048.484461 296.234575 
L 1049.410817 276.237569 
L 1050.337174 264.426489 
L 1051.26353 280.413528 
L 1051.726708 278.852389 
L 1052.189886 276.803498 
L 1053.116243 297.316428 
L 1053.579421 297.021933 
L 1054.042599 302.550222 
L 1054.505777 286.931221 
L 1054.968955 293.075817 
L 1055.432134 301.799075 
L 1056.35849 284.60003 
L 1056.821668 285.254574 
L 1057.284846 277.628666 
L 1057.748024 281.950807 
L 1058.211203 275.224784 
L 1058.674381 259.458322 
L 1059.600737 272.84959 
L 1060.063915 276.028301 
L 1060.527093 289.536781 
L 1060.990272 281.432904 
L 1061.45345 286.366012 
L 1062.379806 306.588465 
L 1062.842984 296.943488 
L 1063.306162 296.773767 
L 1063.769341 284.81102 
L 1064.232519 279.635218 
L 1065.158875 260.522972 
L 1065.622053 266.04748 
L 1066.085231 265.760548 
L 1066.54841 252.735332 
L 1067.011588 246.599149 
L 1067.474766 254.951866 
L 1067.937944 244.433472 
L 1068.401122 244.055795 
L 1068.8643 236.668091 
L 1069.327479 233.40549 
L 1069.790657 242.287551 
L 1070.253835 257.544426 
L 1070.717013 258.879555 
L 1071.180191 278.979927 
L 1071.643369 287.468761 
L 1072.106548 285.56733 
L 1072.569726 289.772259 
L 1073.032904 290.150788 
L 1073.496082 270.418027 
L 1073.95926 267.839792 
L 1074.885617 244.247028 
L 1075.348795 238.417108 
L 1075.811973 226.737938 
L 1076.275151 221.373085 
L 1076.738329 225.351152 
L 1077.664686 216.460821 
L 1078.127864 228.351021 
L 1078.591042 244.782236 
L 1079.05422 239.10956 
L 1079.517398 249.101684 
L 1079.980576 252.424074 
L 1080.443755 248.849869 
L 1080.906933 247.413504 
L 1081.833289 212.82551 
L 1082.296467 220.108196 
L 1083.222824 199.014691 
L 1083.686002 204.792528 
L 1084.14918 205.980197 
L 1084.612358 203.43221 
L 1085.075536 204.188841 
L 1085.538714 197.648089 
L 1086.001893 195.451737 
L 1086.465071 197.561977 
L 1086.928249 194.465741 
L 1087.391427 197.286813 
L 1087.854605 197.147341 
L 1088.317783 196.489868 
L 1088.780962 208.321132 
L 1089.24414 212.480688 
L 1089.707318 210.938455 
L 1090.170496 203.928854 
L 1090.633674 202.870592 
L 1091.096852 204.493079 
L 1091.560031 204.104059 
L 1092.486387 197.609105 
L 1092.949565 200.868777 
L 1093.412743 200.302049 
L 1093.875921 194.105369 
L 1094.3391 192.313588 
L 1094.802278 186.831523 
L 1095.265456 186.809263 
L 1095.728634 187.010083 
L 1096.191812 186.602158 
L 1096.65499 190.164312 
L 1097.118169 201.330115 
L 1097.581347 202.963945 
L 1098.044525 208.36746 
L 1098.507703 202.015758 
L 1098.970881 204.727182 
L 1099.434059 199.823614 
L 1099.897238 199.445937 
L 1100.360416 194.338194 
L 1100.823594 195.336811 
L 1101.286772 191.533523 
L 1101.74995 193.96515 
L 1102.213128 193.447575 
L 1102.676307 194.8432 
L 1103.139485 190.544597 
L 1103.602663 190.821038 
L 1104.065841 185.690608 
L 1104.529019 188.738543 
L 1104.992197 194.164744 
L 1105.455376 193.809754 
L 1105.918554 197.96553 
L 1106.381732 205.146128 
L 1107.308088 203.241342 
L 1107.771266 191.66804 
L 1108.234445 183.856862 
L 1108.697623 180.095165 
L 1109.160801 170.370786 
L 1110.087157 146.116342 
L 1110.550335 147.493062 
L 1111.013514 162.197906 
L 1111.476692 164.682468 
L 1111.93987 157.57078 
L 1112.403048 158.905909 
L 1112.866226 167.905182 
L 1113.792583 181.253063 
L 1114.255761 179.741078 
L 1114.718939 178.656349 
L 1115.182117 186.751956 
L 1115.645295 188.65802 
L 1117.03483 178.027046 
L 1117.498008 170.533474 
L 1117.961186 180.750238 
L 1118.424364 182.584463 
L 1118.887542 179.896578 
L 1119.35072 176.478954 
L 1119.813899 180.517518 
L 1120.277077 181.811056 
L 1120.740255 186.760848 
L 1121.203433 181.513206 
L 1121.666611 178.621146 
L 1122.129789 180.19826 
L 1122.592968 184.516621 
L 1123.056146 186.418904 
L 1123.519324 189.156794 
L 1124.44568 180.230638 
L 1124.908858 181.040204 
L 1125.835215 183.419323 
L 1126.298393 186.236615 
L 1126.761571 183.454204 
L 1127.224749 185.798867 
L 1127.687927 185.500592 
L 1128.151106 181.780486 
L 1128.614284 175.035558 
L 1129.077462 171.85992 
L 1129.54064 165.130115 
L 1130.003818 161.26633 
L 1130.466996 161.357501 
L 1130.930175 159.096872 
L 1131.856531 171.170547 
L 1132.782887 181.455796 
L 1133.246065 188.228043 
L 1133.709244 186.077064 
L 1134.172422 193.450495 
L 1134.6356 192.724963 
L 1135.098778 193.129959 
L 1135.561956 192.325026 
L 1136.488313 179.701025 
L 1136.951491 176.918614 
L 1137.414669 168.5365 
L 1137.877847 165.137782 
L 1138.341025 157.912663 
L 1138.804203 154.154746 
L 1139.267382 157.300988 
L 1139.73056 158.258014 
L 1140.193738 159.789756 
L 1140.656916 173.001095 
L 1141.120094 177.224929 
L 1141.583272 186.212859 
L 1142.046451 189.744765 
L 1142.509629 192.369225 
L 1142.972807 201.221038 
L 1143.435985 205.76626 
L 1143.899163 197.773592 
L 1144.362341 197.445068 
L 1144.82552 191.554652 
L 1145.288698 190.16366 
L 1145.751876 191.529037 
L 1146.215054 188.122756 
L 1146.678232 182.3798 
L 1147.14141 180.349814 
L 1147.604589 178.932355 
L 1148.067767 187.68208 
L 1148.530945 186.911176 
L 1148.994123 179.531035 
L 1149.457301 176.778872 
L 1149.920479 181.108575 
L 1150.383658 183.838904 
L 1151.310014 173.767096 
L 1151.773192 182.630252 
L 1152.23637 186.510013 
L 1152.699548 187.13809 
L 1153.162727 189.962944 
L 1153.625905 187.577541 
L 1154.089083 188.602625 
L 1154.552261 184.145219 
L 1155.015439 178.372015 
L 1155.478617 178.18717 
L 1155.941796 179.454241 
L 1156.404974 182.15054 
L 1156.868152 183.754122 
L 1157.794508 175.886654 
L 1159.184043 159.300561 
L 1159.647221 156.790384 
L 1160.110399 156.945832 
L 1160.573577 169.079577 
L 1161.036755 186.026572 
L 1161.499934 188.798491 
L 1161.963112 195.956404 
L 1162.889468 213.459635 
L 1163.352646 216.791147 
L 1163.815824 223.831847 
L 1164.279003 224.565793 
L 1164.742181 229.901249 
L 1165.205359 231.429211 
L 1165.668537 229.229078 
L 1166.131715 218.680435 
L 1166.594893 216.975617 
L 1167.058072 205.020432 
L 1167.52125 200.460938 
L 1167.984428 202.919032 
L 1168.447606 206.156018 
L 1168.910784 205.320837 
L 1169.373962 202.353156 
L 1170.300319 217.784384 
L 1170.763497 223.445009 
L 1171.226675 211.504948 
L 1171.689853 215.101131 
L 1172.153031 216.292581 
L 1172.61621 225.579212 
L 1173.079388 221.329763 
L 1173.542566 223.281199 
L 1174.005744 220.627343 
L 1174.468922 232.54557 
L 1174.9321 230.258474 
L 1175.395279 240.448771 
L 1175.858457 236.49046 
L 1176.321635 235.031409 
L 1177.711169 249.459105 
L 1178.174348 256.906597 
L 1178.637526 251.441877 
L 1179.100704 240.937047 
L 1179.563882 244.902212 
L 1180.02706 252.364828 
L 1180.490238 248.904054 
L 1180.953417 237.882782 
L 1181.416595 222.021795 
L 1181.879773 225.920461 
L 1182.342951 223.671175 
L 1182.806129 212.033596 
L 1183.269307 203.64392 
L 1183.732486 191.548837 
L 1184.195664 190.72878 
L 1184.658842 189.20167 
L 1185.12202 186.910793 
L 1185.585198 188.491689 
L 1186.048376 190.469592 
L 1186.974733 168.774904 
L 1187.437911 164.037702 
L 1187.901089 174.420831 
L 1188.364267 175.468602 
L 1188.827445 177.4276 
L 1189.753802 205.411842 
L 1190.21698 222.494954 
L 1190.680158 228.098863 
L 1191.143336 219.890677 
L 1192.069693 212.669765 
L 1192.996049 199.353835 
L 1193.459227 192.438761 
L 1193.922405 194.208708 
L 1194.385583 203.355441 
L 1194.848762 202.036288 
L 1195.31194 203.140774 
L 1195.775118 209.924365 
L 1196.238296 213.350402 
L 1196.701474 226.455872 
L 1197.164652 229.205105 
L 1197.627831 229.209312 
L 1198.091009 237.032685 
L 1198.554187 235.237123 
L 1199.017365 225.71692 
L 1199.480543 233.23403 
L 1199.943721 229.453427 
L 1200.870078 232.063189 
L 1201.333256 239.829847 
L 1201.796434 250.428495 
L 1202.259612 254.739293 
L 1202.72279 256.762569 
L 1203.649147 253.073137 
L 1204.112325 250.665048 
L 1204.575503 252.767725 
L 1205.038681 262.428678 
L 1205.501859 267.998559 
L 1205.965038 252.889996 
L 1206.428216 251.937603 
L 1207.354572 241.854452 
L 1207.81775 230.700845 
L 1208.280928 224.092034 
L 1208.744107 225.582185 
L 1209.207285 233.866843 
L 1210.133641 257.431063 
L 1211.059997 271.705296 
L 1211.523176 273.407185 
L 1211.986354 278.069619 
L 1212.449532 286.123635 
L 1213.839066 275.348982 
L 1214.302245 273.647945 
L 1214.765423 268.555326 
L 1215.228601 269.330863 
L 1215.691779 268.091111 
L 1216.618135 270.700873 
L 1217.081314 287.927663 
L 1217.544492 288.540616 
L 1218.00767 288.344428 
L 1218.470848 270.403875 
L 1218.934026 267.012719 
L 1219.397204 265.065915 
L 1219.860382 261.413868 
L 1220.323561 247.186284 
L 1221.249917 265.744423 
L 1221.713095 279.715748 
L 1222.176273 289.773709 
L 1222.639451 293.740433 
L 1223.10263 301.087397 
L 1223.565808 303.995434 
L 1224.028986 303.069508 
L 1224.492164 307.8 
L 1224.955342 307.206804 
L 1225.41852 303.917736 
L 1225.881699 297.051814 
L 1226.344877 295.600326 
L 1226.808055 288.908331 
L 1227.271233 283.849742 
L 1227.734411 271.743315 
L 1228.197589 276.159982 
L 1228.660768 266.75321 
L 1229.123946 267.487155 
L 1229.587124 263.99013 
L 1230.050302 266.538969 
L 1230.51348 266.459993 
L 1230.976658 262.350441 
L 1231.439837 256.671763 
L 1231.903015 249.405053 
L 1232.366193 238.860191 
L 1232.829371 231.979145 
L 1233.292549 238.048121 
L 1233.755727 233.995285 
L 1234.218906 237.11884 
L 1234.682084 239.00978 
L 1235.60844 263.995667 
L 1236.071618 270.140263 
L 1236.534796 263.917117 
L 1236.997975 261.671612 
L 1237.461153 262.768536 
L 1237.924331 249.834064 
L 1238.387509 248.064969 
L 1238.850687 240.310506 
L 1239.313865 243.331974 
L 1239.777044 250.512572 
L 1240.240222 249.170733 
L 1240.7034 245.666146 
L 1241.166578 257.788548 
L 1241.629756 249.470712 
L 1242.092934 257.883926 
L 1242.556113 260.209684 
L 1243.019291 252.557309 
L 1243.945647 265.598927 
L 1244.408825 271.365421 
L 1244.872003 284.98511 
L 1245.335182 286.055567 
L 1245.79836 290.063883 
L 1246.261538 287.795692 
L 1246.724716 284.344039 
L 1247.187894 275.088508 
L 1247.651072 268.736806 
L 1248.577429 253.11445 
L 1249.040607 239.117509 
L 1249.503785 240.989544 
L 1249.966963 241.307576 
L 1250.430141 238.759589 
L 1250.89332 227.836624 
L 1251.356498 225.118491 
L 1251.819676 220.513625 
L 1252.282854 218.85796 
L 1252.746032 215.996148 
L 1253.20921 214.858484 
L 1253.672389 218.579442 
L 1254.135567 229.32555 
L 1254.598745 227.291783 
L 1255.061923 229.005014 
L 1255.525101 232.714629 
L 1255.988279 238.193765 
L 1256.451458 232.836474 
L 1256.914636 232.364271 
L 1257.377814 224.734582 
L 1257.840992 222.28112 
L 1258.30417 227.688417 
L 1258.767348 224.301041 
L 1259.230527 217.208258 
L 1259.693705 218.256029 
L 1260.156883 208.966469 
L 1260.620061 206.463854 
L 1261.083239 207.53053 
L 1261.546417 199.258066 
L 1262.009596 196.025713 
L 1262.472774 194.30199 
L 1262.935952 194.332664 
L 1263.39913 199.826924 
L 1263.862308 201.124242 
L 1264.325486 197.695276 
L 1264.788665 200.52013 
L 1265.251843 200.460059 
L 1265.715021 205.107369 
L 1266.178199 198.869098 
L 1267.104555 190.109307 
L 1267.567734 195.24437 
L 1268.030912 198.375487 
L 1268.49409 205.007836 
L 1268.957268 198.036046 
L 1269.420446 200.467673 
L 1269.883624 199.560652 
L 1270.346803 196.335861 
L 1270.809981 191.545724 
L 1271.273159 188.978832 
L 1271.736337 181.201683 
L 1272.199515 176.517415 
L 1272.662693 170.543816 
L 1273.125872 171.213484 
L 1273.58905 171.365151 
L 1274.052228 163.894265 
L 1274.515406 148.339541 
L 1274.978584 141.65889 
L 1275.441762 140.986293 
L 1275.904941 144.525761 
L 1276.368119 143.558244 
L 1276.831297 158.043789 
L 1277.294475 165.386972 
L 1277.757653 165.844902 
L 1278.220831 168.688661 
L 1279.147188 158.405116 
L 1279.610366 160.057851 
L 1280.073544 152.299607 
L 1280.536722 153.339816 
L 1280.9999 157.128832 
L 1281.463079 159.087831 
L 1281.926257 164.684178 
L 1282.389435 173.082268 
L 1282.852613 170.659055 
L 1283.315791 170.958182 
L 1283.778969 165.476117 
L 1285.168504 178.866016 
L 1285.631682 177.883374 
L 1286.09486 181.906814 
L 1286.558038 182.130321 
L 1287.021217 192.093756 
L 1287.484395 195.637005 
L 1287.947573 198.261465 
L 1288.410751 202.647883 
L 1288.873929 201.676585 
L 1289.337107 204.977849 
L 1289.800286 202.05554 
L 1290.263464 202.853763 
L 1290.726642 203.258758 
L 1291.18982 193.97676 
L 1291.652998 191.924088 
L 1292.116176 190.748614 
L 1292.579355 182.415653 
L 1293.042533 184.593952 
L 1293.505711 183.478974 
L 1293.968889 187.5251 
L 1294.432067 196.221891 
L 1295.358424 215.437928 
L 1295.821602 221.937942 
L 1296.28478 213.971741 
L 1296.747958 209.306378 
L 1297.674314 189.763095 
L 1298.137493 169.614422 
L 1298.600671 160.782366 
L 1299.063849 154.075248 
L 1299.527027 152.926241 
L 1299.990205 143.761454 
L 1300.453383 147.864296 
L 1300.916562 150.904668 
L 1301.37974 150.443809 
L 1301.842918 149.555693 
L 1302.306096 151.042063 
L 1302.769274 154.263925 
L 1303.232452 155.43647 
L 1303.695631 148.139511 
L 1304.158809 144.10558 
L 1304.621987 150.477038 
L 1305.085165 152.417132 
L 1305.548343 145.91797 
L 1306.011521 143.5061 
L 1306.4747 150.384216 
L 1306.937878 154.997497 
L 1307.401056 153.508198 
L 1307.864234 149.425113 
L 1308.327412 143.394799 
L 1308.79059 145.758367 
L 1309.253769 150.26956 
L 1309.716947 150.76152 
L 1310.180125 151.729889 
L 1311.106481 161.984889 
L 1311.569659 165.150036 
L 1312.032838 176.009574 
L 1312.496016 177.571565 
L 1312.959194 181.122376 
L 1313.422372 183.497288 
L 1314.348728 194.606801 
L 1314.811907 195.159257 
L 1315.275085 183.498992 
L 1317.127797 153.052075 
L 1317.590975 148.874465 
L 1318.517332 157.964908 
L 1319.443688 170.24654 
L 1319.906866 183.567528 
L 1320.370044 188.974824 
L 1320.833223 187.046926 
L 1321.296401 181.235912 
L 1322.222757 186.492393 
L 1322.685935 185.067371 
L 1323.612292 167.913698 
L 1324.538648 191.443888 
L 1325.001826 190.759948 
L 1325.465004 192.745414 
L 1325.928182 189.505498 
L 1326.391361 179.796244 
L 1326.854539 185.899249 
L 1327.317717 172.242601 
L 1327.780895 168.083896 
L 1328.244073 159.070351 
L 1328.707251 155.970333 
L 1329.17043 156.038818 
L 1329.633608 167.125218 
L 1330.559964 171.035227 
L 1331.023142 180.843641 
L 1331.48632 178.057449 
L 1331.949499 189.068229 
L 1332.412677 195.957688 
L 1332.875855 196.389151 
L 1333.339033 202.719018 
L 1333.802211 200.870521 
L 1334.265389 188.087291 
L 1334.728568 188.337265 
L 1335.191746 186.065293 
L 1335.654924 186.428697 
L 1336.118102 196.520688 
L 1336.58128 199.901353 
L 1337.044458 198.136038 
L 1337.507637 214.493192 
L 1338.433993 221.72337 
L 1338.897171 231.233082 
L 1339.360349 235.173339 
L 1339.823527 234.901531 
L 1340.286706 239.374914 
L 1340.749884 229.48417 
L 1341.213062 234.154165 
L 1341.67624 232.12796 
L 1342.602596 202.77669 
L 1343.065775 200.338353 
L 1343.528953 202.078051 
L 1343.992131 205.678016 
L 1344.455309 203.349329 
L 1344.918487 213.792955 
L 1345.381665 216.005282 
L 1345.844844 228.422605 
L 1346.308022 227.269817 
L 1346.7712 224.763421 
L 1347.234378 232.072575 
L 1347.697556 225.838085 
L 1348.160734 221.289934 
L 1348.623913 221.73274 
L 1349.087091 213.237196 
L 1349.550269 212.182715 
L 1350.013447 214.561407 
L 1350.476625 207.653895 
L 1350.939803 213.692623 
L 1351.402982 208.690748 
L 1351.86616 200.372912 
L 1352.329338 202.320567 
L 1353.255694 186.822984 
L 1353.718872 187.099425 
L 1354.182051 180.086044 
L 1354.645229 177.908598 
L 1355.571585 194.156528 
L 1356.034763 198.384143 
L 1356.497941 196.883501 
L 1356.96112 193.757016 
L 1357.887476 200.851077 
L 1358.350654 189.621849 
L 1358.813832 184.351522 
L 1359.27701 183.784793 
L 1359.740189 186.859195 
L 1360.203367 191.714461 
L 1360.666545 192.856758 
L 1361.129723 196.970943 
L 1361.592901 217.094001 
L 1362.056079 229.492418 
L 1362.519258 237.247733 
L 1362.982436 239.800353 
L 1363.445614 240.360371 
L 1363.908792 246.020996 
L 1364.37197 248.195513 
L 1364.835148 244.320385 
L 1365.298327 233.1025 
L 1365.761505 236.226056 
L 1366.224683 238.041375 
L 1367.151039 225.874878 
L 1367.614217 230.476815 
L 1368.077396 224.087303 
L 1368.540574 225.214476 
L 1369.003752 219.150132 
L 1369.46693 215.66445 
L 1369.930108 213.596654 
L 1370.393286 215.922412 
L 1370.856465 210.289106 
L 1371.319643 215.420387 
L 1371.782821 216.211048 
L 1372.709177 242.792528 
L 1373.172355 250.717989 
L 1373.635534 250.707072 
L 1374.098712 250.291585 
L 1374.56189 256.379466 
L 1375.025068 270.191988 
L 1375.488246 268.959799 
L 1375.951424 274.27635 
L 1376.414603 275.819436 
L 1376.877781 280.682264 
L 1377.340959 290.105012 
L 1377.804137 292.090478 
L 1378.267315 292.741241 
L 1378.730493 279.908857 
L 1379.193672 273.160147 
L 1379.65685 275.164518 
L 1380.120028 277.819226 
L 1380.583206 285.283402 
L 1381.509562 265.146497 
L 1381.972741 266.511874 
L 1382.435919 262.073373 
L 1382.899097 266.164871 
L 1383.362275 268.225958 
L 1383.825453 248.421358 
L 1384.288631 247.499213 
L 1384.75181 256.241376 
L 1385.678166 260.106439 
L 1386.141344 265.468362 
L 1386.604522 254.757135 
L 1387.0677 264.713009 
L 1387.994057 269.413253 
L 1388.457235 255.529743 
L 1388.920413 247.722345 
L 1389.383591 246.301105 
L 1389.846769 235.669279 
L 1390.309948 238.615126 
L 1391.699482 236.864936 
L 1392.16266 243.001971 
L 1392.625838 255.218899 
L 1393.089017 262.233132 
L 1393.552195 258.229449 
L 1394.015373 255.481068 
L 1394.478551 256.411626 
L 1394.941729 260.389694 
L 1395.404907 265.604158 
L 1396.331264 259.812048 
L 1398.183976 257.615697 
L 1398.647155 262.176043 
L 1399.573511 228.113611 
L 1400.036689 220.559543 
L 1400.499867 206.199624 
L 1400.963045 203.976805 
L 1402.35258 209.024904 
L 1402.815758 197.058375 
L 1403.278936 215.40435 
L 1403.742114 221.900582 
L 1404.205293 216.199218 
L 1405.131649 210.048337 
L 1405.594827 210.846559 
L 1406.058005 221.978332 
L 1406.521183 220.568435 
L 1406.984362 222.141768 
L 1407.44754 228.006569 
L 1407.910718 236.782762 
L 1408.373896 226.2379 
L 1409.300252 234.254105 
L 1409.763431 229.683268 
L 1411.616143 219.56987 
L 1412.079321 215.399821 
L 1412.5425 193.16402 
L 1414.395212 200.378648 
L 1415.321568 186.242235 
L 1415.784747 205.786796 
L 1416.247925 212.139349 
L 1416.711103 208.434368 
L 1417.174281 212.170449 
L 1417.637459 207.202604 
L 1418.100637 195.258762 
L 1418.563816 193.088878 
L 1419.026994 173.148161 
L 1419.490172 164.380382 
L 1419.95335 159.507063 
L 1420.416528 165.734842 
L 1420.879706 164.158579 
L 1421.806063 173.487228 
L 1422.269241 166.988066 
L 1422.732419 162.768864 
L 1423.195597 162.266414 
L 1423.658775 157.899752 
L 1424.121954 156.266774 
L 1424.585132 152.323587 
L 1425.04831 151.288011 
L 1425.974666 158.92654 
L 1426.437844 164.768655 
L 1426.901023 169.177759 
L 1427.364201 175.375291 
L 1427.827379 177.621647 
L 1428.290557 175.935735 
L 1428.753735 183.025588 
L 1429.216913 185.903377 
L 1430.606448 173.196619 
L 1431.069626 174.917412 
L 1431.532804 183.421371 
L 1431.995982 174.264146 
L 1432.459161 173.674732 
L 1432.922339 177.289821 
L 1433.385517 176.851647 
L 1433.848695 172.288372 
L 1434.311873 170.209233 
L 1434.775051 163.097544 
L 1435.23823 169.990785 
L 1435.701408 168.924961 
L 1436.164586 162.807683 
L 1436.627764 170.971349 
L 1437.090942 169.950897 
L 1437.55412 164.899869 
L 1438.017299 167.460051 
L 1438.480477 164.424311 
L 1438.943655 163.483261 
L 1439.406833 160.984428 
L 1439.870011 140.669389 
L 1440.333189 143.653046 
L 1440.796368 141.77052 
L 1441.259546 131.093322 
L 1441.722724 126.480894 
L 1442.185902 120.148097 
L 1442.64908 123.880398 
L 1443.112258 137.927344 
L 1443.575437 146.499361 
L 1444.038615 147.093408 
L 1444.501793 143.887522 
L 1444.964971 146.511981 
L 1445.428149 150.040107 
L 1445.891327 144.524012 
L 1446.817684 125.434453 
L 1447.280862 127.752649 
L 1447.74404 137.424945 
L 1448.207218 138.737388 
L 1449.133575 144.334161 
L 1449.596753 146.066298 
L 1450.523109 130.058276 
L 1450.986287 126.345733 
L 1451.912644 117.461168 
L 1452.839 105.150992 
L 1453.765356 101.124623 
L 1454.228534 106.565948 
L 1454.691713 98.800142 
L 1455.154891 101.984194 
L 1455.618069 95.016185 
L 1456.544425 91.046957 
L 1457.007603 112.10771 
L 1457.470782 106.49709 
L 1457.93396 120.702839 
L 1458.397138 126.510924 
L 1459.323494 149.768881 
L 1459.786672 154.212015 
L 1460.249851 143.897796 
L 1460.713029 147.546914 
L 1461.176207 139.002216 
L 1461.639385 135.849264 
L 1462.102563 131.093157 
L 1462.565741 129.739975 
L 1463.02892 130.239496 
L 1463.492098 126.617697 
L 1463.955276 128.720375 
L 1464.418454 129.889138 
L 1464.881632 123.382415 
L 1465.34481 123.110606 
L 1465.807989 120.604211 
L 1466.734345 132.186352 
L 1467.197523 132.164092 
L 1467.660701 123.218605 
L 1468.123879 130.981482 
L 1468.587058 132.64556 
L 1469.050236 132.570365 
L 1469.513414 122.89514 
L 1469.976592 120.324467 
L 1470.43977 124.669294 
L 1470.902948 143.986993 
L 1471.366127 152.710251 
L 1471.829305 157.274378 
L 1472.292483 159.963115 
L 1472.755661 163.903372 
L 1473.218839 169.870261 
L 1473.682017 172.64218 
L 1474.145196 173.111454 
L 1474.608374 168.449872 
L 1475.071552 165.652337 
L 1475.53473 165.210382 
L 1476.461086 178.76622 
L 1476.924265 177.923477 
L 1477.387443 167.790747 
L 1477.850621 166.585025 
L 1478.313799 166.456896 
L 1478.776977 168.086945 
L 1479.240155 170.862646 
L 1479.703334 167.535767 
L 1480.166512 163.032988 
L 1480.62969 176.777452 
L 1481.092868 172.282235 
L 1481.556046 170.747564 
L 1482.019224 172.044882 
L 1482.482403 166.876642 
L 1482.945581 167.10393 
L 1483.408759 168.949498 
L 1483.871937 161.274436 
L 1484.335115 166.625017 
L 1484.798293 167.124539 
L 1485.261472 168.856676 
L 1485.72465 173.507766 
L 1486.187828 170.256508 
L 1486.651006 170.551854 
L 1487.114184 169.085241 
L 1487.577362 168.200906 
L 1488.503719 179.110024 
L 1488.966897 180.233416 
L 1490.81961 195.003816 
L 1491.282788 196.104521 
L 1491.745966 192.335261 
L 1492.209144 190.921583 
L 1492.672322 181.892913 
L 1493.598679 173.980073 
L 1494.061857 175.152618 
L 1494.525035 174.627481 
L 1495.451391 167.716613 
L 1495.914569 170.601963 
L 1496.377748 176.088661 
L 1496.840926 179.416392 
L 1497.304104 178.301415 
L 1497.767282 178.071198 
L 1498.23046 171.360299 
L 1498.693638 167.118411 
L 1499.156817 177.006225 
L 1499.619995 175.774036 
L 1500.083173 170.757038 
L 1500.546351 167.297823 
L 1501.009529 165.755589 
L 1501.472707 176.656719 
L 1501.935886 179.182872 
L 1502.862242 171.746441 
L 1503.788598 174.779678 
L 1504.714955 174.330587 
L 1505.178133 185.526638 
L 1505.641311 183.216855 
L 1506.104489 185.52749 
L 1507.030845 181.679255 
L 1507.494024 175.72078 
L 1507.957202 174.617146 
L 1508.883558 157.433224 
L 1509.346736 159.607741 
L 1509.809914 159.453145 
L 1510.273093 160.14928 
L 1510.736271 165.560358 
L 1511.199449 166.895486 
L 1511.662627 169.845114 
L 1512.125805 171.554565 
L 1512.588983 174.413448 
L 1513.052161 181.964588 
L 1513.51534 181.80621 
L 1513.978518 185.111255 
L 1514.441696 189.792594 
L 1514.904874 200.103884 
L 1515.368052 205.204916 
L 1515.83123 196.648876 
L 1516.294409 193.235033 
L 1517.220765 204.072312 
L 1517.683943 201.085725 
L 1518.147121 197.214378 
L 1518.610299 204.527313 
L 1519.073478 206.769888 
L 1519.536656 206.883745 
L 1519.999834 202.785536 
L 1520.463012 190.161109 
L 1520.92619 185.03068 
L 1521.389368 167.812303 
L 1521.852547 162.137406 
L 1522.315725 166.051196 
L 1522.778903 175.477725 
L 1523.242081 175.788195 
L 1523.705259 177.03636 
L 1524.168437 184.818142 
L 1524.631616 201.008931 
L 1525.094794 195.129858 
L 1525.557972 185.068968 
L 1526.02115 169.374346 
L 1526.947506 166.165105 
L 1527.873863 149.578586 
L 1528.337041 151.344752 
L 1528.800219 159.95836 
L 1529.263397 161.641343 
L 1530.652932 172.622727 
L 1531.11611 178.487528 
L 1531.579288 182.26142 
L 1532.505644 191.52201 
L 1532.968823 184.962352 
L 1533.432001 183.839812 
L 1533.895179 185.968957 
L 1534.358357 190.170105 
L 1534.821535 182.600913 
L 1535.284713 177.682221 
L 1535.747892 167.54571 
L 1536.674248 179.702568 
L 1537.137426 181.018791 
L 1537.600604 180.319727 
L 1538.063782 196.786531 
L 1538.526961 196.855015 
L 1538.990139 205.064053 
L 1539.453317 201.222955 
L 1539.916495 207.998983 
L 1540.379673 211.322933 
L 1540.842851 220.507476 
L 1541.30603 221.407787 
L 1541.769208 227.495668 
L 1542.232386 236.298328 
L 1542.695564 251.116603 
L 1543.158742 253.593603 
L 1543.62192 265.22069 
L 1544.085099 264.139742 
L 1544.548277 265.369002 
L 1545.011455 269.093741 
L 1545.474633 268.632881 
L 1545.937811 268.640869 
L 1546.400989 276.297878 
L 1546.864168 265.265263 
L 1547.327346 269.409696 
L 1547.790524 261.908562 
L 1548.253702 262.869369 
L 1548.71688 259.965965 
L 1549.180058 260.767969 
L 1549.643237 257.788945 
L 1550.106415 257.505793 
L 1550.569593 252.284619 
L 1551.032771 260.917133 
L 1551.495949 262.732452 
L 1551.959127 270.015138 
L 1552.885484 255.874945 
L 1553.348662 260.805831 
L 1553.81184 260.507556 
L 1554.275018 248.911568 
L 1554.738196 249.52074 
L 1555.201375 238.851104 
L 1555.664553 239.36575 
L 1556.127731 243.502621 
L 1556.590909 242.08138 
L 1556.590909 242.08138 
" clip-path="url(#pe0164052a6)" style="fill: none; stroke: #a48cf4; stroke-width: 2.5; stroke-linecap: square"/>
   </g>
   <g id="patch_3">
    <path d="M 225 320.4 
L 225 43.2 
" style="fill: none; stroke: #000000; stroke-width: 0.8; stroke-linejoin: miter; stroke-linecap: square"/>
   </g>
   <g id="patch_4">
    <path d="M 1620 320.4 
L 1620 43.2 
" style="fill: none; stroke: #000000; stroke-width: 0.8; stroke-linejoin: miter; stroke-linecap: square"/>
   </g>
   <g id="patch_5">
    <path d="M 225 320.4 
L 1620 320.4 
" style="fill: none; stroke: #000000; stroke-width: 0.8; stroke-linejoin: miter; stroke-linecap: square"/>
   </g>
   <g id="patch_6">
    <path d="M 225 43.2 
L 1620 43.2 
" style="fill: none; stroke: #000000; stroke-width: 0.8; stroke-linejoin: miter; stroke-linecap: square"/>
   </g>
   <g id="text_16">
    <!-- TREN -->
    <g transform="translate(895.64375 37.2) scale(0.2 -0.2)">
     <defs>
      <path id="DejaVuSans-52" d="M 2841 2188 
Q 3044 2119 3236 1894 
Q 3428 1669 3622 1275 
L 4263 0 
L 3584 0 
L 2988 1197 
Q 2756 1666 2539 1819 
Q 2322 1972 1947 1972 
L 1259 1972 
L 1259 0 
L 628 0 
L 628 4666 
L 2053 4666 
Q 2853 4666 3247 4331 
Q 3641 3997 3641 3322 
Q 3641 2881 3436 2590 
Q 3231 2300 2841 2188 
z
M 1259 4147 
L 1259 2491 
L 2053 2491 
Q 2509 2491 2742 2702 
Q 2975 2913 2975 3322 
Q 2975 3731 2742 3939 
Q 2509 4147 2053 4147 
L 1259 4147 
z
" transform="scale(0.015625)"/>
      <path id="DejaVuSans-4e" d="M 628 4666 
L 1478 4666 
L 3547 763 
L 3547 4666 
L 4159 4666 
L 4159 0 
L 3309 0 
L 1241 3903 
L 1241 0 
L 628 0 
L 628 4666 
z
" transform="scale(0.015625)"/>
     </defs>
     <use xlink:href="#DejaVuSans-54"/>
     <use xlink:href="#DejaVuSans-52" x="61.083984"/>
     <use xlink:href="#DejaVuSans-45" x="130.566406"/>
     <use xlink:href="#DejaVuSans-4e" x="193.75"/>
    </g>
   </g>
   <g id="legend_1">
    <g id="patch_7">
     <path d="M 1560.703125 65.878125 
L 1613 65.878125 
Q 1615 65.878125 1615 63.878125 
L 1615 50.2 
Q 1615 48.2 1613 48.2 
L 1560.703125 48.2 
Q 1558.703125 48.2 1558.703125 50.2 
L 1558.703125 63.878125 
Q 1558.703125 65.878125 1560.703125 65.878125 
z
" style="fill: #ffffff; opacity: 0.8; stroke: #cccccc; stroke-linejoin: miter"/>
    </g>
    <g id="line2d_15">
     <path d="M 1562.703125 56.298437 
L 1572.703125 56.298437 
L 1582.703125 56.298437 
" style="fill: none; stroke: #a48cf4; stroke-width: 2.5; stroke-linecap: square"/>
    </g>
    <g id="text_17">
     <!-- tren -->
     <g transform="translate(1590.703125 59.798437) scale(0.1 -0.1)">
      <defs>
       <path id="DejaVuSans-72" d="M 2631 2963 
Q 2534 3019 2420 3045 
Q 2306 3072 2169 3072 
Q 1681 3072 1420 2755 
Q 1159 2438 1159 1844 
L 1159 0 
L 581 0 
L 581 3500 
L 1159 3500 
L 1159 2956 
Q 1341 3275 1631 3429 
Q 1922 3584 2338 3584 
Q 2397 3584 2469 3576 
Q 2541 3569 2628 3553 
L 2631 2963 
z
" transform="scale(0.015625)"/>
       <path id="DejaVuSans-6e" d="M 3513 2113 
L 3513 0 
L 2938 0 
L 2938 2094 
Q 2938 2591 2744 2837 
Q 2550 3084 2163 3084 
Q 1697 3084 1428 2787 
Q 1159 2491 1159 1978 
L 1159 0 
L 581 0 
L 581 3500 
L 1159 3500 
L 1159 2956 
Q 1366 3272 1645 3428 
Q 1925 3584 2291 3584 
Q 2894 3584 3203 3211 
Q 3513 2838 3513 2113 
z
" transform="scale(0.015625)"/>
      </defs>
      <use xlink:href="#DejaVuSans-74"/>
      <use xlink:href="#DejaVuSans-72" x="39.208984"/>
      <use xlink:href="#DejaVuSans-65" x="78.072266"/>
      <use xlink:href="#DejaVuSans-6e" x="139.595703"/>
     </g>
    </g>
   </g>
  </g>
 </g>
 <defs>
  <clipPath id="pe0164052a6">
   <rect x="225" y="43.2" width="1395" height="277.2"/>
  </clipPath>
 </defs>
</svg>
