<?xml version="1.0" encoding="utf-8" standalone="no"?>
<!DOCTYPE svg PUBLIC "-//W3C//DTD SVG 1.1//EN"
  "http://www.w3.org/Graphics/SVG/1.1/DTD/svg11.dtd">
<svg xmlns:xlink="http://www.w3.org/1999/xlink" width="4680pt" height="720pt" viewBox="0 0 4680 720" xmlns="http://www.w3.org/2000/svg" version="1.1">
 <metadata>
  <rdf:RDF xmlns:dc="http://purl.org/dc/elements/1.1/" xmlns:cc="http://creativecommons.org/ns#" xmlns:rdf="http://www.w3.org/1999/02/22-rdf-syntax-ns#">
   <cc:Work>
    <dc:type rdf:resource="http://purl.org/dc/dcmitype/StillImage"/>
    <dc:date>2024-02-26T15:25:25.559847</dc:date>
    <dc:format>image/svg+xml</dc:format>
    <dc:creator>
     <cc:Agent>
      <dc:title>Matplotlib v3.7.1, https://matplotlib.org/</dc:title>
     </cc:Agent>
    </dc:creator>
   </cc:Work>
  </rdf:RDF>
 </metadata>
 <defs>
  <style type="text/css">*{stroke-linejoin: round; stroke-linecap: butt}</style>
 </defs>
 <g id="figure_1">
  <g id="patch_1">
   <path d="M 0 720 
L 4680 720 
L 4680 0 
L 0 0 
z
" style="fill: #ffffff"/>
  </g>
  <g id="axes_1">
   <g id="patch_2">
    <path d="M 585 640.8 
L 4212 640.8 
L 4212 86.4 
L 585 86.4 
z
" style="fill: #ffffff"/>
   </g>
   <g id="matplotlib.axis_1">
    <g id="xtick_1">
     <g id="line2d_1">
      <defs>
       <path id="m97f0bf6bd0" d="M 0 0 
L 0 3.5 
" style="stroke: #000000; stroke-width: 0.8"/>
      </defs>
      <g>
       <use xlink:href="#m97f0bf6bd0" x="1032.164384" y="640.8" style="stroke: #000000; stroke-width: 0.8"/>
      </g>
     </g>
     <g id="text_1">
      <!-- 2011-03 -->
      <g transform="translate(979.935868 666.796094) scale(0.25 -0.25)">
       <defs>
        <path id="DejaVuSans-32" d="M 1228 531 
L 3431 531 
L 3431 0 
L 469 0 
L 469 531 
Q 828 903 1448 1529 
Q 2069 2156 2228 2338 
Q 2531 2678 2651 2914 
Q 2772 3150 2772 3378 
Q 2772 3750 2511 3984 
Q 2250 4219 1831 4219 
Q 1534 4219 1204 4116 
Q 875 4013 500 3803 
L 500 4441 
Q 881 4594 1212 4672 
Q 1544 4750 1819 4750 
Q 2544 4750 2975 4387 
Q 3406 4025 3406 3419 
Q 3406 3131 3298 2873 
Q 3191 2616 2906 2266 
Q 2828 2175 2409 1742 
Q 1991 1309 1228 531 
z
" transform="scale(0.015625)"/>
        <path id="DejaVuSans-30" d="M 2034 4250 
Q 1547 4250 1301 3770 
Q 1056 3291 1056 2328 
Q 1056 1369 1301 889 
Q 1547 409 2034 409 
Q 2525 409 2770 889 
Q 3016 1369 3016 2328 
Q 3016 3291 2770 3770 
Q 2525 4250 2034 4250 
z
M 2034 4750 
Q 2819 4750 3233 4129 
Q 3647 3509 3647 2328 
Q 3647 1150 3233 529 
Q 2819 -91 2034 -91 
Q 1250 -91 836 529 
Q 422 1150 422 2328 
Q 422 3509 836 4129 
Q 1250 4750 2034 4750 
z
" transform="scale(0.015625)"/>
        <path id="DejaVuSans-31" d="M 794 531 
L 1825 531 
L 1825 4091 
L 703 3866 
L 703 4441 
L 1819 4666 
L 2450 4666 
L 2450 531 
L 3481 531 
L 3481 0 
L 794 0 
L 794 531 
z
" transform="scale(0.015625)"/>
        <path id="DejaVuSans-2d" d="M 313 2009 
L 1997 2009 
L 1997 1497 
L 313 1497 
L 313 2009 
z
" transform="scale(0.015625)"/>
        <path id="DejaVuSans-33" d="M 2597 2516 
Q 3050 2419 3304 2112 
Q 3559 1806 3559 1356 
Q 3559 666 3084 287 
Q 2609 -91 1734 -91 
Q 1441 -91 1130 -33 
Q 819 25 488 141 
L 488 750 
Q 750 597 1062 519 
Q 1375 441 1716 441 
Q 2309 441 2620 675 
Q 2931 909 2931 1356 
Q 2931 1769 2642 2001 
Q 2353 2234 1838 2234 
L 1294 2234 
L 1294 2753 
L 1863 2753 
Q 2328 2753 2575 2939 
Q 2822 3125 2822 3475 
Q 2822 3834 2567 4026 
Q 2313 4219 1838 4219 
Q 1578 4219 1281 4162 
Q 984 4106 628 3988 
L 628 4550 
Q 988 4650 1302 4700 
Q 1616 4750 1894 4750 
Q 2613 4750 3031 4423 
Q 3450 4097 3450 3541 
Q 3450 3153 3228 2886 
Q 3006 2619 2597 2516 
z
" transform="scale(0.015625)"/>
       </defs>
       <use xlink:href="#DejaVuSans-32"/>
       <use xlink:href="#DejaVuSans-30" x="63.623047"/>
       <use xlink:href="#DejaVuSans-31" x="127.246094"/>
       <use xlink:href="#DejaVuSans-31" x="190.869141"/>
       <use xlink:href="#DejaVuSans-2d" x="254.492188"/>
       <use xlink:href="#DejaVuSans-30" x="290.576172"/>
       <use xlink:href="#DejaVuSans-33" x="354.199219"/>
      </g>
     </g>
    </g>
    <g id="xtick_2">
     <g id="line2d_2">
      <g>
       <use xlink:href="#m97f0bf6bd0" x="1638.320548" y="640.8" style="stroke: #000000; stroke-width: 0.8"/>
      </g>
     </g>
     <g id="text_2">
      <!-- 2011-05 -->
      <g transform="translate(1586.092032 666.796094) scale(0.25 -0.25)">
       <defs>
        <path id="DejaVuSans-35" d="M 691 4666 
L 3169 4666 
L 3169 4134 
L 1269 4134 
L 1269 2991 
Q 1406 3038 1543 3061 
Q 1681 3084 1819 3084 
Q 2600 3084 3056 2656 
Q 3513 2228 3513 1497 
Q 3513 744 3044 326 
Q 2575 -91 1722 -91 
Q 1428 -91 1123 -41 
Q 819 9 494 109 
L 494 744 
Q 775 591 1075 516 
Q 1375 441 1709 441 
Q 2250 441 2565 725 
Q 2881 1009 2881 1497 
Q 2881 1984 2565 2268 
Q 2250 2553 1709 2553 
Q 1456 2553 1204 2497 
Q 953 2441 691 2322 
L 691 4666 
z
" transform="scale(0.015625)"/>
       </defs>
       <use xlink:href="#DejaVuSans-32"/>
       <use xlink:href="#DejaVuSans-30" x="63.623047"/>
       <use xlink:href="#DejaVuSans-31" x="127.246094"/>
       <use xlink:href="#DejaVuSans-31" x="190.869141"/>
       <use xlink:href="#DejaVuSans-2d" x="254.492188"/>
       <use xlink:href="#DejaVuSans-30" x="290.576172"/>
       <use xlink:href="#DejaVuSans-35" x="354.199219"/>
      </g>
     </g>
    </g>
    <g id="xtick_3">
     <g id="line2d_3">
      <g>
       <use xlink:href="#m97f0bf6bd0" x="2244.476712" y="640.8" style="stroke: #000000; stroke-width: 0.8"/>
      </g>
     </g>
     <g id="text_3">
      <!-- 2011-07 -->
      <g transform="translate(2192.248197 666.796094) scale(0.25 -0.25)">
       <defs>
        <path id="DejaVuSans-37" d="M 525 4666 
L 3525 4666 
L 3525 4397 
L 1831 0 
L 1172 0 
L 2766 4134 
L 525 4134 
L 525 4666 
z
" transform="scale(0.015625)"/>
       </defs>
       <use xlink:href="#DejaVuSans-32"/>
       <use xlink:href="#DejaVuSans-30" x="63.623047"/>
       <use xlink:href="#DejaVuSans-31" x="127.246094"/>
       <use xlink:href="#DejaVuSans-31" x="190.869141"/>
       <use xlink:href="#DejaVuSans-2d" x="254.492188"/>
       <use xlink:href="#DejaVuSans-30" x="290.576172"/>
       <use xlink:href="#DejaVuSans-37" x="354.199219"/>
      </g>
     </g>
    </g>
    <g id="xtick_4">
     <g id="line2d_4">
      <g>
       <use xlink:href="#m97f0bf6bd0" x="2860.569863" y="640.8" style="stroke: #000000; stroke-width: 0.8"/>
      </g>
     </g>
     <g id="text_4">
      <!-- 2011-09 -->
      <g transform="translate(2808.341347 666.796094) scale(0.25 -0.25)">
       <defs>
        <path id="DejaVuSans-39" d="M 703 97 
L 703 672 
Q 941 559 1184 500 
Q 1428 441 1663 441 
Q 2288 441 2617 861 
Q 2947 1281 2994 2138 
Q 2813 1869 2534 1725 
Q 2256 1581 1919 1581 
Q 1219 1581 811 2004 
Q 403 2428 403 3163 
Q 403 3881 828 4315 
Q 1253 4750 1959 4750 
Q 2769 4750 3195 4129 
Q 3622 3509 3622 2328 
Q 3622 1225 3098 567 
Q 2575 -91 1691 -91 
Q 1453 -91 1209 -44 
Q 966 3 703 97 
z
M 1959 2075 
Q 2384 2075 2632 2365 
Q 2881 2656 2881 3163 
Q 2881 3666 2632 3958 
Q 2384 4250 1959 4250 
Q 1534 4250 1286 3958 
Q 1038 3666 1038 3163 
Q 1038 2656 1286 2365 
Q 1534 2075 1959 2075 
z
" transform="scale(0.015625)"/>
       </defs>
       <use xlink:href="#DejaVuSans-32"/>
       <use xlink:href="#DejaVuSans-30" x="63.623047"/>
       <use xlink:href="#DejaVuSans-31" x="127.246094"/>
       <use xlink:href="#DejaVuSans-31" x="190.869141"/>
       <use xlink:href="#DejaVuSans-2d" x="254.492188"/>
       <use xlink:href="#DejaVuSans-30" x="290.576172"/>
       <use xlink:href="#DejaVuSans-39" x="354.199219"/>
      </g>
     </g>
    </g>
    <g id="xtick_5">
     <g id="line2d_5">
      <g>
       <use xlink:href="#m97f0bf6bd0" x="3466.726027" y="640.8" style="stroke: #000000; stroke-width: 0.8"/>
      </g>
     </g>
     <g id="text_5">
      <!-- 2011-11 -->
      <g transform="translate(3414.497512 666.796094) scale(0.25 -0.25)">
       <use xlink:href="#DejaVuSans-32"/>
       <use xlink:href="#DejaVuSans-30" x="63.623047"/>
       <use xlink:href="#DejaVuSans-31" x="127.246094"/>
       <use xlink:href="#DejaVuSans-31" x="190.869141"/>
       <use xlink:href="#DejaVuSans-2d" x="254.492188"/>
       <use xlink:href="#DejaVuSans-31" x="290.576172"/>
       <use xlink:href="#DejaVuSans-31" x="354.199219"/>
      </g>
     </g>
    </g>
    <g id="xtick_6">
     <g id="line2d_6">
      <g>
       <use xlink:href="#m97f0bf6bd0" x="4072.882192" y="640.8" style="stroke: #000000; stroke-width: 0.8"/>
      </g>
     </g>
     <g id="text_6">
      <!-- 2012-01 -->
      <g transform="translate(4020.653676 666.796094) scale(0.25 -0.25)">
       <use xlink:href="#DejaVuSans-32"/>
       <use xlink:href="#DejaVuSans-30" x="63.623047"/>
       <use xlink:href="#DejaVuSans-31" x="127.246094"/>
       <use xlink:href="#DejaVuSans-32" x="190.869141"/>
       <use xlink:href="#DejaVuSans-2d" x="254.492188"/>
       <use xlink:href="#DejaVuSans-30" x="290.576172"/>
       <use xlink:href="#DejaVuSans-31" x="354.199219"/>
      </g>
     </g>
    </g>
   </g>
   <g id="matplotlib.axis_2">
    <g id="ytick_1">
     <g id="line2d_7">
      <defs>
       <path id="mdc457e73bb" d="M 0 0 
L -3.5 0 
" style="stroke: #000000; stroke-width: 0.8"/>
      </defs>
      <g>
       <use xlink:href="#mdc457e73bb" x="585" y="585.36" style="stroke: #000000; stroke-width: 0.8"/>
      </g>
     </g>
     <g id="text_7">
      <!-- −0.004 -->
      <g transform="translate(485.480469 594.858047) scale(0.25 -0.25)">
       <defs>
        <path id="DejaVuSans-2212" d="M 678 2272 
L 4684 2272 
L 4684 1741 
L 678 1741 
L 678 2272 
z
" transform="scale(0.015625)"/>
        <path id="DejaVuSans-2e" d="M 684 794 
L 1344 794 
L 1344 0 
L 684 0 
L 684 794 
z
" transform="scale(0.015625)"/>
        <path id="DejaVuSans-34" d="M 2419 4116 
L 825 1625 
L 2419 1625 
L 2419 4116 
z
M 2253 4666 
L 3047 4666 
L 3047 1625 
L 3713 1625 
L 3713 1100 
L 3047 1100 
L 3047 0 
L 2419 0 
L 2419 1100 
L 313 1100 
L 313 1709 
L 2253 4666 
z
" transform="scale(0.015625)"/>
       </defs>
       <use xlink:href="#DejaVuSans-2212"/>
       <use xlink:href="#DejaVuSans-30" x="83.789062"/>
       <use xlink:href="#DejaVuSans-2e" x="147.412109"/>
       <use xlink:href="#DejaVuSans-30" x="179.199219"/>
       <use xlink:href="#DejaVuSans-30" x="242.822266"/>
       <use xlink:href="#DejaVuSans-34" x="306.445312"/>
      </g>
     </g>
    </g>
    <g id="ytick_2">
     <g id="line2d_8">
      <g>
       <use xlink:href="#mdc457e73bb" x="585" y="474.48" style="stroke: #000000; stroke-width: 0.8"/>
      </g>
     </g>
     <g id="text_8">
      <!-- −0.002 -->
      <g transform="translate(485.480469 483.978047) scale(0.25 -0.25)">
       <use xlink:href="#DejaVuSans-2212"/>
       <use xlink:href="#DejaVuSans-30" x="83.789062"/>
       <use xlink:href="#DejaVuSans-2e" x="147.412109"/>
       <use xlink:href="#DejaVuSans-30" x="179.199219"/>
       <use xlink:href="#DejaVuSans-30" x="242.822266"/>
       <use xlink:href="#DejaVuSans-32" x="306.445312"/>
      </g>
     </g>
    </g>
    <g id="ytick_3">
     <g id="line2d_9">
      <g>
       <use xlink:href="#mdc457e73bb" x="585" y="363.6" style="stroke: #000000; stroke-width: 0.8"/>
      </g>
     </g>
     <g id="text_9">
      <!-- 0.000 -->
      <g transform="translate(506.429688 373.098047) scale(0.25 -0.25)">
       <use xlink:href="#DejaVuSans-30"/>
       <use xlink:href="#DejaVuSans-2e" x="63.623047"/>
       <use xlink:href="#DejaVuSans-30" x="95.410156"/>
       <use xlink:href="#DejaVuSans-30" x="159.033203"/>
       <use xlink:href="#DejaVuSans-30" x="222.65625"/>
      </g>
     </g>
    </g>
    <g id="ytick_4">
     <g id="line2d_10">
      <g>
       <use xlink:href="#mdc457e73bb" x="585" y="252.72" style="stroke: #000000; stroke-width: 0.8"/>
      </g>
     </g>
     <g id="text_10">
      <!-- 0.002 -->
      <g transform="translate(506.429688 262.218047) scale(0.25 -0.25)">
       <use xlink:href="#DejaVuSans-30"/>
       <use xlink:href="#DejaVuSans-2e" x="63.623047"/>
       <use xlink:href="#DejaVuSans-30" x="95.410156"/>
       <use xlink:href="#DejaVuSans-30" x="159.033203"/>
       <use xlink:href="#DejaVuSans-32" x="222.65625"/>
      </g>
     </g>
    </g>
    <g id="ytick_5">
     <g id="line2d_11">
      <g>
       <use xlink:href="#mdc457e73bb" x="585" y="141.84" style="stroke: #000000; stroke-width: 0.8"/>
      </g>
     </g>
     <g id="text_11">
      <!-- 0.004 -->
      <g transform="translate(506.429688 151.338047) scale(0.25 -0.25)">
       <use xlink:href="#DejaVuSans-30"/>
       <use xlink:href="#DejaVuSans-2e" x="63.623047"/>
       <use xlink:href="#DejaVuSans-30" x="95.410156"/>
       <use xlink:href="#DejaVuSans-30" x="159.033203"/>
       <use xlink:href="#DejaVuSans-34" x="222.65625"/>
      </g>
     </g>
    </g>
   </g>
   <g id="line2d_12">
    <path d="M 575.063014 506.209197 
L 585 499.031469 
L 594.936986 449.867181 
L 604.873973 466.288413 
L 614.810959 506.918445 
L 624.747945 508.426317 
L 634.684932 501.322509 
L 644.621918 499.189821 
L 654.558904 491.162013 
L 664.49589 468.331725 
L 674.432877 416.746557 
L 684.369863 426.773709 
L 694.306849 425.269341 
L 704.243836 446.643213 
L 714.180822 440.722125 
L 724.117808 436.907757 
L 734.054795 449.189469 
L 743.991781 457.775181 
L 753.928767 459.708093 
L 763.865753 448.612606 
L 773.80274 451.839118 
L 783.739726 454.51123 
L 793.676712 411.962782 
L 803.613699 384.327694 
L 813.550685 378.480526 
L 823.487671 438.311278 
L 833.424658 449.05915 
L 843.361644 446.852542 
L 853.29863 416.131294 
L 863.235616 417.546766 
L 873.172603 429.976318 
L 883.109589 480.40075 
L 893.046575 507.854542 
L 902.983562 496.463374 
L 912.920548 444.120526 
L 922.857534 422.158798 
L 932.794521 419.39779 
L 942.731507 400.189582 
L 952.668493 391.995454 
L 962.605479 398.899486 
L 972.542466 404.472959 
L 982.479452 380.293631 
L 992.416438 345.026303 
L 1002.353425 337.700735 
L 1012.290411 345.159167 
L 1022.227397 351.268559 
L 1032.164384 355.492991 
L 1042.10137 353.397263 
L 1052.038356 376.027775 
L 1061.975342 405.089327 
L 1071.912329 443.243039 
L 1081.849315 444.880271 
L 1091.786301 420.774863 
L 1101.723288 424.204655 
L 1111.660274 434.693807 
L 1121.59726 465.899039 
L 1131.534247 435.362591 
L 1141.471233 405.306623 
L 1151.408219 386.024495 
L 1161.345205 373.764767 
L 1171.282192 371.26248 
L 1181.219178 332.650272 
L 1191.156164 346.946304 
L 1201.093151 366.601536 
L 1211.030137 432.068688 
L 1220.967123 467.41344 
L 1230.90411 451.346832 
L 1240.841096 432.988704 
L 1250.778082 386.189856 
L 1260.715068 429.425568 
L 1270.652055 466.93248 
L 1280.589041 515.324112 
L 1290.526027 524.926224 
L 1300.463014 479.827536 
L 1310.4 436.835568 
L 1320.336986 403.176 
L 1330.273973 418.469952 
L 1340.210959 405.119904 
L 1350.147945 369.686256 
L 1360.084932 353.619648 
L 1370.021918 405.02352 
L 1389.89589 465.350737 
L 1399.832877 499.713553 
L 1479.328767 493.512769 
L 1489.265753 451.167601 
L 1509.139726 428.041633 
L 1519.076712 387.489025 
L 1529.013699 387.573937 
L 1548.887671 340.756609 
L 1558.824658 330.030721 
L 1568.761644 338.062033 
L 1578.69863 361.376305 
L 1588.635616 379.479217 
L 1598.572603 370.416529 
L 1608.509589 352.890001 
L 1618.446575 340.888993 
L 1628.383562 318.705505 
L 1638.320548 317.570737 
L 1648.257534 328.318609 
L 1658.194521 345.645361 
L 1668.131507 369.144434 
L 1678.068493 347.053346 
L 1688.005479 321.044498 
L 1697.942466 254.04701 
L 1707.879452 230.348162 
L 1717.816438 207.610274 
L 1727.753425 216.436226 
L 1737.690411 252.815858 
L 1747.627397 295.01669 
L 1757.564384 334.334642 
L 1767.50137 356.115074 
L 1777.438356 364.109426 
L 1787.375342 361.089698 
L 1797.312329 336.50381 
L 1807.249315 306.300002 
L 1817.186301 289.900754 
L 1827.123288 283.166546 
L 1837.060274 321.431138 
L 1846.99726 336.81749 
L 1856.934247 328.937522 
L 1866.871233 341.367074 
L 1876.808219 357.400227 
L 1886.745205 368.536179 
L 1896.682192 299.746131 
L 1906.619178 284.788323 
L 1916.556164 276.963795 
L 1926.493151 310.608387 
L 1936.430137 325.588179 
L 1946.367123 352.376691 
L 1956.30411 365.490003 
L 1966.241096 352.768275 
L 1976.178082 346.588467 
L 1986.115068 319.212099 
L 1996.052055 345.205971 
L 2005.989041 335.274723 
L 2015.926027 388.988595 
L 2025.863014 389.757267 
L 2035.8 384.076419 
L 2045.736986 320.312931 
L 2055.673973 301.067763 
L 2065.610959 341.753235 
L 2075.547945 357.490708 
L 2085.484932 378.71674 
L 2095.421918 351.802372 
L 2105.358904 391.804084 
L 2115.29589 393.940276 
L 2125.232877 396.483028 
L 2135.169863 394.42426 
L 2145.106849 378.523972 
L 2155.043836 415.328644 
L 2164.980822 427.906036 
L 2174.917808 418.492228 
L 2184.854795 387.60466 
L 2194.791781 347.107492 
L 2204.728767 329.636404 
L 2214.665753 406.006756 
L 2224.60274 458.260708 
L 2234.539726 491.24002 
L 2244.476712 386.802052 
L 2254.413699 353.105524 
L 2264.350685 377.547076 
L 2274.287671 406.294468 
L 2284.224658 384.332741 
L 2294.161644 349.860053 
L 2304.09863 289.644725 
L 2314.035616 329.424677 
L 2323.972603 326.552789 
L 2333.909589 372.394181 
L 2343.846575 356.179733 
L 2353.783562 346.747445 
L 2363.720548 353.485157 
L 2373.657534 418.878389 
L 2383.594521 466.771061 
L 2393.531507 440.632853 
L 2403.468493 412.517285 
L 2413.405479 413.119637 
L 2423.342466 484.093829 
L 2433.279452 475.788821 
L 2443.216438 499.454213 
L 2453.153425 468.474245 
L 2482.964384 461.924837 
L 2492.90137 422.721269 
L 2502.838356 424.580262 
L 2512.775342 434.367174 
L 2522.712329 405.863526 
L 2532.649315 406.354998 
L 2542.586301 398.01303 
L 2552.523288 434.688342 
L 2562.460274 433.202454 
L 2572.39726 414.271446 
L 2582.334247 438.361878 
L 2592.271233 449.46087 
L 2602.208219 455.755062 
L 2612.145205 413.834934 
L 2622.082192 388.528326 
L 2632.019178 368.932038 
L 2641.956164 350.40759 
L 2651.893151 364.204662 
L 2661.830137 369.593334 
L 2671.767123 400.225686 
L 2681.70411 362.685318 
L 2691.641096 346.54479 
L 2701.578082 335.319942 
L 2711.515068 367.135015 
L 2721.452055 395.531287 
L 2731.389041 407.498839 
L 2741.326027 423.772231 
L 2751.263014 396.063223 
L 2761.2 390.844375 
L 2771.136986 349.959127 
L 2781.073973 392.067559 
L 2791.010959 381.637351 
L 2800.947945 386.841223 
L 2810.884932 319.658935 
L 2820.821918 293.890327 
L 2830.758904 314.340199 
L 2840.69589 337.210951 
L 2850.632877 344.798743 
L 2860.569863 321.062935 
L 2870.506849 308.784727 
L 2880.443836 289.798279 
L 2890.380822 275.764471 
L 2900.317808 337.258423 
L 2910.254795 337.842296 
L 2920.191781 357.589928 
L 2930.128767 314.69036 
L 2940.065753 319.727912 
L 2950.00274 308.429144 
L 2959.939726 294.247496 
L 2969.876712 268.959368 
L 2979.813699 287.33948 
L 2989.750685 324.070232 
L 2999.687671 388.188344 
L 3009.624658 394.519496 
L 3019.561644 404.749928 
L 3029.49863 399.30932 
L 3039.435616 399.523592 
L 3049.372603 370.613384 
L 3059.309589 346.360136 
L 3069.246575 313.328888 
L 3079.183562 311.12228 
L 3089.120548 307.677512 
L 3099.057534 325.983704 
L 3108.994521 303.911096 
L 3118.931507 318.244089 
L 3128.868493 315.741801 
L 3138.805479 348.536313 
L 3148.742466 342.374985 
L 3158.679452 345.638457 
L 3168.616438 349.733529 
L 3178.553425 369.074601 
L 3188.490411 390.466953 
L 3198.427397 374.418825 
L 3208.364384 352.457097 
L 3218.30137 379.023849 
L 3228.238356 425.271801 
L 3238.175342 416.061273 
L 3248.112329 330.084825 
L 3258.049315 274.507977 
L 3267.986301 315.692409 
L 3277.923288 378.017961 
L 3287.860274 377.770233 
L 3297.79726 307.982265 
L 3307.734247 282.546297 
L 3317.671233 298.22833 
L 3327.608219 323.926522 
L 3337.545205 330.165274 
L 3347.482192 287.783146 
L 3357.419178 285.576538 
L 3367.356164 271.54273 
L 3377.293151 274.898602 
L 3387.230137 258.425434 
L 3397.167123 228.997786 
L 3407.10411 219.620938 
L 3417.041096 205.86433 
L 3426.978082 217.018762 
L 3436.915068 239.501434 
L 3446.852055 262.483066 
L 3456.789041 264.970378 
L 3466.726027 273.07561 
L 3476.663014 285.227962 
L 3486.6 281.838634 
L 3496.536986 274.309786 
L 3506.473973 251.424058 
L 3516.410959 224.91625 
L 3526.347945 208.276763 
L 3546.221918 222.865979 
L 3556.158904 286.519595 
L 3566.09589 328.366811 
L 3576.032877 356.929403 
L 3585.969863 360.507035 
L 3595.906849 340.097627 
L 3605.843836 333.067739 
L 3615.780822 346.199531 
L 3625.717808 351.976283 
L 3635.654795 376.177595 
L 3645.591781 375.393947 
L 3655.528767 402.163979 
L 3665.465753 392.343611 
L 3675.40274 384.038603 
L 3695.276712 326.428955 
L 3705.213699 307.331627 
L 3715.150685 311.426699 
L 3725.087671 363.754571 
L 3735.024658 371.896764 
L 3744.961644 350.064396 
L 3754.89863 320.821548 
L 3764.835616 309.9663 
L 3774.772603 312.767772 
L 3784.709589 366.149004 
L 3794.646575 379.964556 
L 3804.583562 369.294108 
L 3814.520548 337.57494 
L 3824.457534 366.451692 
L 3834.394521 380.877084 
L 3844.331507 362.056956 
L 3854.268493 307.755228 
L 3864.205479 273.00534 
L 3874.142466 285.730572 
L 3884.079452 311.391804 
L 3894.016438 341.783916 
L 3903.953425 337.858668 
L 3913.890411 319.29726 
L 3923.827397 324.334812 
L 3933.764384 325.214364 
L 3943.70137 304.416877 
L 3953.638356 261.184669 
L 3963.575342 241.422061 
L 3973.512329 254.202733 
L 3983.449315 272.915485 
L 4003.323288 288.368269 
L 4013.260274 282.835261 
L 4023.19726 284.232253 
L 4033.134247 279.697165 
L 4043.071233 349.654957 
L 4053.008219 399.395629 
L 4062.945205 412.305661 
L 4072.882192 355.361293 
L 4082.819178 278.809645 
L 4092.756164 281.574157 
L 4102.693151 315.144829 
L 4112.630137 369.671821 
L 4122.567123 438.779533 
L 4132.50411 440.065645 
L 4142.441096 391.141598 
L 4152.378082 291.98891 
L 4162.315068 268.437902 
L 4172.252055 307.201454 
L 4182.189041 349.531646 
L 4192.126027 325.222958 
L 4202.063014 355.07915 
L 4212 339.918062 
L 4221.936986 350.684414 
L 4221.936986 350.684414 
" clip-path="url(#pce6823259b)" style="fill: none; stroke: #9932cc; stroke-width: 2.5; stroke-linecap: square"/>
   </g>
   <g id="line2d_13">
    <path d="M 575.063014 369.673023 
L 585 355.060564 
L 594.936986 355.176666 
L 604.873973 391.513567 
L 614.810959 412.419668 
L 624.747945 399.876969 
L 634.684932 380.940191 
L 644.621918 382.553172 
L 654.558904 394.829113 
L 664.49589 367.354574 
L 674.432877 328.200676 
L 684.369863 312.738137 
L 694.306849 323.665038 
L 704.243836 342.723139 
L 714.180822 345.241641 
L 724.117808 352.269262 
L 734.054795 366.189923 
L 743.991781 388.870104 
L 753.928767 403.751726 
L 763.865753 394.720227 
L 773.80274 388.442248 
L 783.739726 387.246269 
L 793.676712 375.71997 
L 803.613699 377.092712 
L 813.550685 360.244173 
L 823.487671 391.554514 
L 833.424658 411.647495 
L 843.361644 405.905437 
L 853.29863 384.788018 
L 863.235616 354.134919 
L 873.172603 371.06782 
L 883.109589 409.271202 
L 893.046575 444.185143 
L 902.983562 439.884524 
L 912.920548 409.933665 
L 922.857534 398.850887 
L 932.794521 398.985468 
L 942.731507 371.529409 
L 952.668493 349.96847 
L 962.605479 353.743612 
L 972.542466 365.335793 
L 982.479452 337.879734 
L 992.416438 294.641755 
L 1002.353425 275.076657 
L 1012.290411 283.157638 
L 1022.227397 287.727419 
L 1032.164384 296.28888 
L 1042.10137 293.207942 
L 1052.038356 314.502123 
L 1061.975342 348.140944 
L 1071.912329 401.627285 
L 1081.849315 425.822827 
L 1091.786301 406.461008 
L 1101.723288 389.963589 
L 1111.660274 378.06769 
L 1121.59726 412.685952 
L 1131.534247 402.508693 
L 1141.471233 404.657594 
L 1161.345205 337.216037 
L 1171.282192 311.275338 
L 1181.219178 313.091599 
L 1191.156164 358.74242 
L 1201.093151 384.157642 
L 1211.030137 407.096543 
L 1220.967123 416.859204 
L 1230.90411 400.287865 
L 1240.841096 398.519007 
L 1250.778082 373.816468 
L 1260.715068 411.040409 
L 1270.652055 410.06619 
L 1280.589041 419.717972 
L 1300.463014 398.655993 
L 1310.4 378.813694 
L 1320.336986 367.564595 
L 1330.273973 371.173417 
L 1340.210959 337.064558 
L 1350.147945 310.440099 
L 1360.084932 320.77564 
L 1370.021918 352.511022 
L 1379.958904 414.775363 
L 1389.89589 421.230104 
L 1399.832877 464.811165 
L 1409.769863 488.526227 
L 1419.706849 495.332088 
L 1429.643836 498.515869 
L 1439.580822 488.30165 
L 1449.517808 498.323032 
L 1459.454795 489.808973 
L 1469.391781 489.167394 
L 1479.328767 483.332935 
L 1489.265753 460.570797 
L 1499.20274 441.634018 
L 1509.139726 413.309399 
L 1519.076712 400.84062 
L 1529.013699 385.950962 
L 1538.950685 379.820823 
L 1548.887671 374.817964 
L 1558.824658 364.363505 
L 1568.761644 375.881767 
L 1578.69863 384.997628 
L 1588.635616 403.113249 
L 1598.572603 412.80199 
L 1608.509589 412.585452 
L 1618.446575 411.943873 
L 1628.383562 383.822534 
L 1638.320548 387.301995 
L 1648.257534 365.537777 
L 1658.194521 382.008678 
L 1668.131507 385.987099 
L 1678.068493 391.40696 
L 1688.005479 379.769782 
L 1697.942466 372.660203 
L 1707.879452 341.027664 
L 1717.816438 351.899125 
L 1727.753425 334.311387 
L 1737.690411 386.005168 
L 1747.627397 412.455269 
L 1757.564384 454.09593 
L 1767.50137 461.215952 
L 1777.438356 434.332773 
L 1787.375342 381.817834 
L 1797.312329 357.226175 
L 1807.249315 348.730597 
L 1817.186301 390.038618 
L 1827.123288 420.036879 
L 1837.060274 403.8721 
L 1846.99726 386.617002 
L 1856.934247 361.212223 
L 1866.871233 377.664644 
L 1876.808219 399.106665 
L 1886.745205 407.150687 
L 1896.682192 433.434468 
L 1906.619178 426.435769 
L 1916.556164 432.33611 
L 1926.493151 419.793411 
L 1936.430137 438.463433 
L 1946.367123 437.858814 
L 1956.30411 478.778755 
L 1966.241096 484.013816 
L 1976.178082 498.433438 
L 1986.115068 493.486019 
L 2005.989041 480.532341 
L 2015.926027 471.699702 
L 2025.863014 443.167384 
L 2035.8 451.876685 
L 2045.736986 399.103026 
L 2055.673973 413.208488 
L 2065.610959 428.570589 
L 2075.547945 453.78253 
L 2085.484932 459.257831 
L 2095.421918 448.433773 
L 2105.358904 495.544514 
L 2115.29589 510.555495 
L 2125.232877 491.803516 
L 2145.106849 487.997438 
L 2155.043836 472.08696 
L 2174.917808 490.655742 
L 2184.854795 482.044864 
L 2194.791781 488.402785 
L 2204.728767 504.707366 
L 2214.665753 519.847708 
L 2224.60274 522.532529 
L 2244.476712 522.939891 
L 2254.413699 502.206132 
L 2264.350685 504.738694 
L 2274.287671 489.885995 
L 2284.224658 516.206736 
L 2294.161644 507.692678 
L 2304.09863 478.795179 
L 2314.035616 453.42736 
L 2323.972603 448.812581 
L 2333.909589 487.736683 
L 2343.846575 492.583664 
L 2353.783562 501.366885 
L 2363.720548 484.388986 
L 2373.657534 481.049328 
L 2383.594521 491.754469 
L 2393.531507 512.30945 
L 2403.468493 532.346991 
L 2423.342466 499.822993 
L 2453.153425 508.260316 
L 2482.964384 512.364479 
L 2492.90137 542.677702 
L 2502.838356 529.941364 
L 2512.775342 534.973145 
L 2522.712329 522.245646 
L 2542.586301 506.852608 
L 2552.523288 494.52725 
L 2562.460274 511.585091 
L 2582.334247 526.148133 
L 2592.271233 538.087015 
L 2612.145205 526.718197 
L 2632.019178 526.030819 
L 2651.893151 511.885581 
L 2661.830137 493.716123 
L 2671.767123 493.735405 
L 2681.70411 507.582146 
L 2691.641096 514.997848 
L 2701.578082 527.994509 
L 2711.515068 522.52965 
L 2751.263014 544.734573 
L 2771.136986 524.837635 
L 2791.010959 519.054999 
L 2800.947945 486.692901 
L 2820.821918 485.968563 
L 2840.69589 475.320465 
L 2850.632877 485.591727 
L 2860.569863 469.866049 
L 2870.506849 463.45871 
L 2880.443836 457.993851 
L 2890.380822 456.372833 
L 2900.317808 474.359094 
L 2910.254795 480.203995 
L 2920.191781 495.824816 
L 2930.128767 496.920358 
L 2940.065753 490.087979 
L 2950.00274 474.69936 
L 2959.939726 429.853621 
L 2969.876712 436.234443 
L 2979.813699 453.814144 
L 2989.750685 490.760885 
L 2999.687671 494.147946 
L 3009.624658 512.374448 
L 3039.435616 507.47363 
L 3049.372603 504.679532 
L 3059.309589 464.906954 
L 3069.246575 444.584175 
L 3079.183562 427.384516 
L 3089.120548 460.413497 
L 3099.057534 457.591279 
L 3108.994521 444.03218 
L 3118.931507 428.163081 
L 3128.868493 430.071742 
L 3138.805479 457.464324 
L 3148.742466 451.740745 
L 3158.679452 480.112766 
L 3168.616438 502.626627 
L 3188.490411 517.078789 
L 3208.364384 517.721971 
L 3218.30137 490.829953 
L 3228.238356 491.181875 
L 3238.175342 450.549576 
L 3248.112329 437.082877 
L 3258.049315 409.386579 
L 3267.986301 443.32108 
L 3277.923288 466.130621 
L 3287.860274 485.077842 
L 3297.79726 454.868264 
L 3307.734247 437.391405 
L 3317.671233 421.762546 
L 3327.608219 430.250087 
L 3337.545205 431.826109 
L 3347.482192 430.33445 
L 3357.419178 440.244951 
L 3367.356164 412.788892 
L 3377.293151 395.053314 
L 3387.230137 364.880695 
L 3397.167123 367.620956 
L 3407.10411 354.985857 
L 3417.041096 329.156039 
L 3426.978082 333.07902 
L 3436.915068 337.131361 
L 3446.852055 355.043702 
L 3456.789041 354.827164 
L 3466.726027 353.908385 
L 3476.663014 375.775446 
L 3486.6 384.651067 
L 3496.536986 398.183649 
L 3506.473973 386.58343 
L 3536.284932 352.197371 
L 3546.221918 339.802512 
L 3556.158904 347.624774 
L 3585.969863 364.964235 
L 3595.906849 357.115456 
L 3605.843836 336.995957 
L 3615.780822 333.231259 
L 3625.717808 333.4028 
L 3635.654795 349.079061 
L 3645.591781 362.020282 
L 3655.528767 371.154624 
L 3665.465753 357.909685 
L 3675.40274 330.268826 
L 3685.339726 357.199407 
L 3695.276712 320.835989 
L 3705.213699 313.22745 
L 3715.150685 276.974911 
L 3725.087671 304.552292 
L 3735.024658 303.467194 
L 3744.961644 291.349535 
L 3754.89863 280.821156 
L 3764.835616 296.589817 
L 3774.772603 317.052399 
L 3784.709589 348.19642 
L 3794.646575 352.914041 
L 3804.583562 350.738622 
L 3814.520548 336.440324 
L 3824.457534 324.932505 
L 3834.394521 281.066206 
L 3844.331507 272.515187 
L 3854.268493 253.227289 
L 3864.205479 264.19115 
L 3874.142466 246.270771 
L 3884.079452 253.132072 
L 3894.016438 268.161534 
L 3903.953425 294.371395 
L 3913.890411 295.097336 
L 3923.827397 322.674717 
L 3933.764384 312.977939 
L 3943.70137 307.91964 
L 3953.638356 271.667101 
L 3963.575342 248.461442 
L 3973.512329 263.860504 
L 3983.449315 282.050045 
L 3993.386301 286.157826 
L 4003.323288 269.789767 
L 4013.260274 251.998749 
L 4023.19726 266.28901 
L 4033.134247 279.913991 
L 4043.071233 305.236812 
L 4053.008219 329.524754 
L 4062.945205 340.525575 
L 4072.882192 318.299356 
L 4082.819178 282.749057 
L 4092.756164 283.179319 
L 4102.693151 321.0131 
L 4112.630137 356.056401 
L 4122.567123 379.937782 
L 4132.50411 372.643404 
L 4152.378082 293.799686 
L 4162.315068 274.807467 
L 4172.252055 317.076449 
L 4182.189041 360.80535 
L 4192.126027 370.826731 
L 4202.063014 375.673712 
L 4212 358.104453 
L 4221.936986 354.968075 
L 4221.936986 354.968075 
" clip-path="url(#pce6823259b)" style="fill: none; stroke: #00ced1; stroke-width: 2.5; stroke-linecap: square"/>
   </g>
   <g id="patch_3">
    <path d="M 585 640.8 
L 585 86.4 
" style="fill: none; stroke: #000000; stroke-width: 0.8; stroke-linejoin: miter; stroke-linecap: square"/>
   </g>
   <g id="patch_4">
    <path d="M 4212 640.8 
L 4212 86.4 
" style="fill: none; stroke: #000000; stroke-width: 0.8; stroke-linejoin: miter; stroke-linecap: square"/>
   </g>
   <g id="patch_5">
    <path d="M 585 640.8 
L 4212 640.8 
" style="fill: none; stroke: #000000; stroke-width: 0.8; stroke-linejoin: miter; stroke-linecap: square"/>
   </g>
   <g id="patch_6">
    <path d="M 585 86.4 
L 4212 86.4 
" style="fill: none; stroke: #000000; stroke-width: 0.8; stroke-linejoin: miter; stroke-linecap: square"/>
   </g>
   <g id="text_12">
    <!-- Rolling Mean (w = 6) - East(m) -->
    <g transform="translate(2206.744141 80.4) scale(0.25 -0.25)">
     <defs>
      <path id="DejaVuSans-52" d="M 2841 2188 
Q 3044 2119 3236 1894 
Q 3428 1669 3622 1275 
L 4263 0 
L 3584 0 
L 2988 1197 
Q 2756 1666 2539 1819 
Q 2322 1972 1947 1972 
L 1259 1972 
L 1259 0 
L 628 0 
L 628 4666 
L 2053 4666 
Q 2853 4666 3247 4331 
Q 3641 3997 3641 3322 
Q 3641 2881 3436 2590 
Q 3231 2300 2841 2188 
z
M 1259 4147 
L 1259 2491 
L 2053 2491 
Q 2509 2491 2742 2702 
Q 2975 2913 2975 3322 
Q 2975 3731 2742 3939 
Q 2509 4147 2053 4147 
L 1259 4147 
z
" transform="scale(0.015625)"/>
      <path id="DejaVuSans-6f" d="M 1959 3097 
Q 1497 3097 1228 2736 
Q 959 2375 959 1747 
Q 959 1119 1226 758 
Q 1494 397 1959 397 
Q 2419 397 2687 759 
Q 2956 1122 2956 1747 
Q 2956 2369 2687 2733 
Q 2419 3097 1959 3097 
z
M 1959 3584 
Q 2709 3584 3137 3096 
Q 3566 2609 3566 1747 
Q 3566 888 3137 398 
Q 2709 -91 1959 -91 
Q 1206 -91 779 398 
Q 353 888 353 1747 
Q 353 2609 779 3096 
Q 1206 3584 1959 3584 
z
" transform="scale(0.015625)"/>
      <path id="DejaVuSans-6c" d="M 603 4863 
L 1178 4863 
L 1178 0 
L 603 0 
L 603 4863 
z
" transform="scale(0.015625)"/>
      <path id="DejaVuSans-69" d="M 603 3500 
L 1178 3500 
L 1178 0 
L 603 0 
L 603 3500 
z
M 603 4863 
L 1178 4863 
L 1178 4134 
L 603 4134 
L 603 4863 
z
" transform="scale(0.015625)"/>
      <path id="DejaVuSans-6e" d="M 3513 2113 
L 3513 0 
L 2938 0 
L 2938 2094 
Q 2938 2591 2744 2837 
Q 2550 3084 2163 3084 
Q 1697 3084 1428 2787 
Q 1159 2491 1159 1978 
L 1159 0 
L 581 0 
L 581 3500 
L 1159 3500 
L 1159 2956 
Q 1366 3272 1645 3428 
Q 1925 3584 2291 3584 
Q 2894 3584 3203 3211 
Q 3513 2838 3513 2113 
z
" transform="scale(0.015625)"/>
      <path id="DejaVuSans-67" d="M 2906 1791 
Q 2906 2416 2648 2759 
Q 2391 3103 1925 3103 
Q 1463 3103 1205 2759 
Q 947 2416 947 1791 
Q 947 1169 1205 825 
Q 1463 481 1925 481 
Q 2391 481 2648 825 
Q 2906 1169 2906 1791 
z
M 3481 434 
Q 3481 -459 3084 -895 
Q 2688 -1331 1869 -1331 
Q 1566 -1331 1297 -1286 
Q 1028 -1241 775 -1147 
L 775 -588 
Q 1028 -725 1275 -790 
Q 1522 -856 1778 -856 
Q 2344 -856 2625 -561 
Q 2906 -266 2906 331 
L 2906 616 
Q 2728 306 2450 153 
Q 2172 0 1784 0 
Q 1141 0 747 490 
Q 353 981 353 1791 
Q 353 2603 747 3093 
Q 1141 3584 1784 3584 
Q 2172 3584 2450 3431 
Q 2728 3278 2906 2969 
L 2906 3500 
L 3481 3500 
L 3481 434 
z
" transform="scale(0.015625)"/>
      <path id="DejaVuSans-20" transform="scale(0.015625)"/>
      <path id="DejaVuSans-4d" d="M 628 4666 
L 1569 4666 
L 2759 1491 
L 3956 4666 
L 4897 4666 
L 4897 0 
L 4281 0 
L 4281 4097 
L 3078 897 
L 2444 897 
L 1241 4097 
L 1241 0 
L 628 0 
L 628 4666 
z
" transform="scale(0.015625)"/>
      <path id="DejaVuSans-65" d="M 3597 1894 
L 3597 1613 
L 953 1613 
Q 991 1019 1311 708 
Q 1631 397 2203 397 
Q 2534 397 2845 478 
Q 3156 559 3463 722 
L 3463 178 
Q 3153 47 2828 -22 
Q 2503 -91 2169 -91 
Q 1331 -91 842 396 
Q 353 884 353 1716 
Q 353 2575 817 3079 
Q 1281 3584 2069 3584 
Q 2775 3584 3186 3129 
Q 3597 2675 3597 1894 
z
M 3022 2063 
Q 3016 2534 2758 2815 
Q 2500 3097 2075 3097 
Q 1594 3097 1305 2825 
Q 1016 2553 972 2059 
L 3022 2063 
z
" transform="scale(0.015625)"/>
      <path id="DejaVuSans-61" d="M 2194 1759 
Q 1497 1759 1228 1600 
Q 959 1441 959 1056 
Q 959 750 1161 570 
Q 1363 391 1709 391 
Q 2188 391 2477 730 
Q 2766 1069 2766 1631 
L 2766 1759 
L 2194 1759 
z
M 3341 1997 
L 3341 0 
L 2766 0 
L 2766 531 
Q 2569 213 2275 61 
Q 1981 -91 1556 -91 
Q 1019 -91 701 211 
Q 384 513 384 1019 
Q 384 1609 779 1909 
Q 1175 2209 1959 2209 
L 2766 2209 
L 2766 2266 
Q 2766 2663 2505 2880 
Q 2244 3097 1772 3097 
Q 1472 3097 1187 3025 
Q 903 2953 641 2809 
L 641 3341 
Q 956 3463 1253 3523 
Q 1550 3584 1831 3584 
Q 2591 3584 2966 3190 
Q 3341 2797 3341 1997 
z
" transform="scale(0.015625)"/>
      <path id="DejaVuSans-28" d="M 1984 4856 
Q 1566 4138 1362 3434 
Q 1159 2731 1159 2009 
Q 1159 1288 1364 580 
Q 1569 -128 1984 -844 
L 1484 -844 
Q 1016 -109 783 600 
Q 550 1309 550 2009 
Q 550 2706 781 3412 
Q 1013 4119 1484 4856 
L 1984 4856 
z
" transform="scale(0.015625)"/>
      <path id="DejaVuSans-77" d="M 269 3500 
L 844 3500 
L 1563 769 
L 2278 3500 
L 2956 3500 
L 3675 769 
L 4391 3500 
L 4966 3500 
L 4050 0 
L 3372 0 
L 2619 2869 
L 1863 0 
L 1184 0 
L 269 3500 
z
" transform="scale(0.015625)"/>
      <path id="DejaVuSans-3d" d="M 678 2906 
L 4684 2906 
L 4684 2381 
L 678 2381 
L 678 2906 
z
M 678 1631 
L 4684 1631 
L 4684 1100 
L 678 1100 
L 678 1631 
z
" transform="scale(0.015625)"/>
      <path id="DejaVuSans-36" d="M 2113 2584 
Q 1688 2584 1439 2293 
Q 1191 2003 1191 1497 
Q 1191 994 1439 701 
Q 1688 409 2113 409 
Q 2538 409 2786 701 
Q 3034 994 3034 1497 
Q 3034 2003 2786 2293 
Q 2538 2584 2113 2584 
z
M 3366 4563 
L 3366 3988 
Q 3128 4100 2886 4159 
Q 2644 4219 2406 4219 
Q 1781 4219 1451 3797 
Q 1122 3375 1075 2522 
Q 1259 2794 1537 2939 
Q 1816 3084 2150 3084 
Q 2853 3084 3261 2657 
Q 3669 2231 3669 1497 
Q 3669 778 3244 343 
Q 2819 -91 2113 -91 
Q 1303 -91 875 529 
Q 447 1150 447 2328 
Q 447 3434 972 4092 
Q 1497 4750 2381 4750 
Q 2619 4750 2861 4703 
Q 3103 4656 3366 4563 
z
" transform="scale(0.015625)"/>
      <path id="DejaVuSans-29" d="M 513 4856 
L 1013 4856 
Q 1481 4119 1714 3412 
Q 1947 2706 1947 2009 
Q 1947 1309 1714 600 
Q 1481 -109 1013 -844 
L 513 -844 
Q 928 -128 1133 580 
Q 1338 1288 1338 2009 
Q 1338 2731 1133 3434 
Q 928 4138 513 4856 
z
" transform="scale(0.015625)"/>
      <path id="DejaVuSans-45" d="M 628 4666 
L 3578 4666 
L 3578 4134 
L 1259 4134 
L 1259 2753 
L 3481 2753 
L 3481 2222 
L 1259 2222 
L 1259 531 
L 3634 531 
L 3634 0 
L 628 0 
L 628 4666 
z
" transform="scale(0.015625)"/>
      <path id="DejaVuSans-73" d="M 2834 3397 
L 2834 2853 
Q 2591 2978 2328 3040 
Q 2066 3103 1784 3103 
Q 1356 3103 1142 2972 
Q 928 2841 928 2578 
Q 928 2378 1081 2264 
Q 1234 2150 1697 2047 
L 1894 2003 
Q 2506 1872 2764 1633 
Q 3022 1394 3022 966 
Q 3022 478 2636 193 
Q 2250 -91 1575 -91 
Q 1294 -91 989 -36 
Q 684 19 347 128 
L 347 722 
Q 666 556 975 473 
Q 1284 391 1588 391 
Q 1994 391 2212 530 
Q 2431 669 2431 922 
Q 2431 1156 2273 1281 
Q 2116 1406 1581 1522 
L 1381 1569 
Q 847 1681 609 1914 
Q 372 2147 372 2553 
Q 372 3047 722 3315 
Q 1072 3584 1716 3584 
Q 2034 3584 2315 3537 
Q 2597 3491 2834 3397 
z
" transform="scale(0.015625)"/>
      <path id="DejaVuSans-74" d="M 1172 4494 
L 1172 3500 
L 2356 3500 
L 2356 3053 
L 1172 3053 
L 1172 1153 
Q 1172 725 1289 603 
Q 1406 481 1766 481 
L 2356 481 
L 2356 0 
L 1766 0 
Q 1100 0 847 248 
Q 594 497 594 1153 
L 594 3053 
L 172 3053 
L 172 3500 
L 594 3500 
L 594 4494 
L 1172 4494 
z
" transform="scale(0.015625)"/>
      <path id="DejaVuSans-6d" d="M 3328 2828 
Q 3544 3216 3844 3400 
Q 4144 3584 4550 3584 
Q 5097 3584 5394 3201 
Q 5691 2819 5691 2113 
L 5691 0 
L 5113 0 
L 5113 2094 
Q 5113 2597 4934 2840 
Q 4756 3084 4391 3084 
Q 3944 3084 3684 2787 
Q 3425 2491 3425 1978 
L 3425 0 
L 2847 0 
L 2847 2094 
Q 2847 2600 2669 2842 
Q 2491 3084 2119 3084 
Q 1678 3084 1418 2786 
Q 1159 2488 1159 1978 
L 1159 0 
L 581 0 
L 581 3500 
L 1159 3500 
L 1159 2956 
Q 1356 3278 1631 3431 
Q 1906 3584 2284 3584 
Q 2666 3584 2933 3390 
Q 3200 3197 3328 2828 
z
" transform="scale(0.015625)"/>
     </defs>
     <use xlink:href="#DejaVuSans-52"/>
     <use xlink:href="#DejaVuSans-6f" x="64.982422"/>
     <use xlink:href="#DejaVuSans-6c" x="126.164062"/>
     <use xlink:href="#DejaVuSans-6c" x="153.947266"/>
     <use xlink:href="#DejaVuSans-69" x="181.730469"/>
     <use xlink:href="#DejaVuSans-6e" x="209.513672"/>
     <use xlink:href="#DejaVuSans-67" x="272.892578"/>
     <use xlink:href="#DejaVuSans-20" x="336.369141"/>
     <use xlink:href="#DejaVuSans-4d" x="368.15625"/>
     <use xlink:href="#DejaVuSans-65" x="454.435547"/>
     <use xlink:href="#DejaVuSans-61" x="515.958984"/>
     <use xlink:href="#DejaVuSans-6e" x="577.238281"/>
     <use xlink:href="#DejaVuSans-20" x="640.617188"/>
     <use xlink:href="#DejaVuSans-28" x="672.404297"/>
     <use xlink:href="#DejaVuSans-77" x="711.417969"/>
     <use xlink:href="#DejaVuSans-20" x="793.205078"/>
     <use xlink:href="#DejaVuSans-3d" x="824.992188"/>
     <use xlink:href="#DejaVuSans-20" x="908.78125"/>
     <use xlink:href="#DejaVuSans-36" x="940.568359"/>
     <use xlink:href="#DejaVuSans-29" x="1004.191406"/>
     <use xlink:href="#DejaVuSans-20" x="1043.205078"/>
     <use xlink:href="#DejaVuSans-2d" x="1074.992188"/>
     <use xlink:href="#DejaVuSans-20" x="1111.076172"/>
     <use xlink:href="#DejaVuSans-45" x="1142.863281"/>
     <use xlink:href="#DejaVuSans-61" x="1206.046875"/>
     <use xlink:href="#DejaVuSans-73" x="1267.326172"/>
     <use xlink:href="#DejaVuSans-74" x="1319.425781"/>
     <use xlink:href="#DejaVuSans-28" x="1358.634766"/>
     <use xlink:href="#DejaVuSans-6d" x="1397.648438"/>
     <use xlink:href="#DejaVuSans-29" x="1495.060547"/>
    </g>
   </g>
   <g id="legend_1">
    <g id="patch_7">
     <path d="M 4150.248438 123.75625 
L 4205 123.75625 
Q 4207 123.75625 4207 121.75625 
L 4207 93.4 
Q 4207 91.4 4205 91.4 
L 4150.248438 91.4 
Q 4148.248438 91.4 4148.248438 93.4 
L 4148.248438 121.75625 
Q 4148.248438 123.75625 4150.248438 123.75625 
z
" style="fill: #ffffff; opacity: 0.8; stroke: #cccccc; stroke-linejoin: miter"/>
    </g>
    <g id="line2d_14">
     <path d="M 4152.248438 99.498437 
L 4162.248438 99.498437 
L 4172.248438 99.498437 
" style="fill: none; stroke: #9932cc; stroke-width: 2.5; stroke-linecap: square"/>
    </g>
    <g id="text_13">
     <!-- brse -->
     <g transform="translate(4180.248438 102.998437) scale(0.1 -0.1)">
      <defs>
       <path id="DejaVuSans-62" d="M 3116 1747 
Q 3116 2381 2855 2742 
Q 2594 3103 2138 3103 
Q 1681 3103 1420 2742 
Q 1159 2381 1159 1747 
Q 1159 1113 1420 752 
Q 1681 391 2138 391 
Q 2594 391 2855 752 
Q 3116 1113 3116 1747 
z
M 1159 2969 
Q 1341 3281 1617 3432 
Q 1894 3584 2278 3584 
Q 2916 3584 3314 3078 
Q 3713 2572 3713 1747 
Q 3713 922 3314 415 
Q 2916 -91 2278 -91 
Q 1894 -91 1617 61 
Q 1341 213 1159 525 
L 1159 0 
L 581 0 
L 581 4863 
L 1159 4863 
L 1159 2969 
z
" transform="scale(0.015625)"/>
       <path id="DejaVuSans-72" d="M 2631 2963 
Q 2534 3019 2420 3045 
Q 2306 3072 2169 3072 
Q 1681 3072 1420 2755 
Q 1159 2438 1159 1844 
L 1159 0 
L 581 0 
L 581 3500 
L 1159 3500 
L 1159 2956 
Q 1341 3275 1631 3429 
Q 1922 3584 2338 3584 
Q 2397 3584 2469 3576 
Q 2541 3569 2628 3553 
L 2631 2963 
z
" transform="scale(0.015625)"/>
      </defs>
      <use xlink:href="#DejaVuSans-62"/>
      <use xlink:href="#DejaVuSans-72" x="63.476562"/>
      <use xlink:href="#DejaVuSans-73" x="104.589844"/>
      <use xlink:href="#DejaVuSans-65" x="156.689453"/>
     </g>
    </g>
    <g id="line2d_15">
     <path d="M 4152.248438 114.176562 
L 4162.248438 114.176562 
L 4172.248438 114.176562 
" style="fill: none; stroke: #00ced1; stroke-width: 2.5; stroke-linecap: square"/>
    </g>
    <g id="text_14">
     <!-- pord -->
     <g transform="translate(4180.248438 117.676562) scale(0.1 -0.1)">
      <defs>
       <path id="DejaVuSans-70" d="M 1159 525 
L 1159 -1331 
L 581 -1331 
L 581 3500 
L 1159 3500 
L 1159 2969 
Q 1341 3281 1617 3432 
Q 1894 3584 2278 3584 
Q 2916 3584 3314 3078 
Q 3713 2572 3713 1747 
Q 3713 922 3314 415 
Q 2916 -91 2278 -91 
Q 1894 -91 1617 61 
Q 1341 213 1159 525 
z
M 3116 1747 
Q 3116 2381 2855 2742 
Q 2594 3103 2138 3103 
Q 1681 3103 1420 2742 
Q 1159 2381 1159 1747 
Q 1159 1113 1420 752 
Q 1681 391 2138 391 
Q 2594 391 2855 752 
Q 3116 1113 3116 1747 
z
" transform="scale(0.015625)"/>
       <path id="DejaVuSans-64" d="M 2906 2969 
L 2906 4863 
L 3481 4863 
L 3481 0 
L 2906 0 
L 2906 525 
Q 2725 213 2448 61 
Q 2172 -91 1784 -91 
Q 1150 -91 751 415 
Q 353 922 353 1747 
Q 353 2572 751 3078 
Q 1150 3584 1784 3584 
Q 2172 3584 2448 3432 
Q 2725 3281 2906 2969 
z
M 947 1747 
Q 947 1113 1208 752 
Q 1469 391 1925 391 
Q 2381 391 2643 752 
Q 2906 1113 2906 1747 
Q 2906 2381 2643 2742 
Q 2381 3103 1925 3103 
Q 1469 3103 1208 2742 
Q 947 2381 947 1747 
z
" transform="scale(0.015625)"/>
      </defs>
      <use xlink:href="#DejaVuSans-70"/>
      <use xlink:href="#DejaVuSans-6f" x="63.476562"/>
      <use xlink:href="#DejaVuSans-72" x="124.658203"/>
      <use xlink:href="#DejaVuSans-64" x="164.021484"/>
     </g>
    </g>
   </g>
  </g>
 </g>
 <defs>
  <clipPath id="pce6823259b">
   <rect x="585" y="86.4" width="3627" height="554.4"/>
  </clipPath>
 </defs>
</svg>
