<?xml version="1.0" encoding="utf-8" standalone="no"?>
<!DOCTYPE svg PUBLIC "-//W3C//DTD SVG 1.1//EN"
  "http://www.w3.org/Graphics/SVG/1.1/DTD/svg11.dtd">
<svg xmlns:xlink="http://www.w3.org/1999/xlink" width="4680pt" height="720pt" viewBox="0 0 4680 720" xmlns="http://www.w3.org/2000/svg" version="1.1">
 <metadata>
  <rdf:RDF xmlns:dc="http://purl.org/dc/elements/1.1/" xmlns:cc="http://creativecommons.org/ns#" xmlns:rdf="http://www.w3.org/1999/02/22-rdf-syntax-ns#">
   <cc:Work>
    <dc:type rdf:resource="http://purl.org/dc/dcmitype/StillImage"/>
    <dc:date>2024-02-26T10:39:16.093516</dc:date>
    <dc:format>image/svg+xml</dc:format>
    <dc:creator>
     <cc:Agent>
      <dc:title>Matplotlib v3.7.1, https://matplotlib.org/</dc:title>
     </cc:Agent>
    </dc:creator>
   </cc:Work>
  </rdf:RDF>
 </metadata>
 <defs>
  <style type="text/css">*{stroke-linejoin: round; stroke-linecap: butt}</style>
 </defs>
 <g id="figure_1">
  <g id="patch_1">
   <path d="M 0 720 
L 4680 720 
L 4680 0 
L 0 0 
z
" style="fill: #ffffff"/>
  </g>
  <g id="axes_1">
   <g id="patch_2">
    <path d="M 585 640.8 
L 4212 640.8 
L 4212 86.4 
L 585 86.4 
z
" style="fill: #ffffff"/>
   </g>
   <g id="matplotlib.axis_1">
    <g id="xtick_1">
     <g id="line2d_1">
      <defs>
       <path id="mc1722c6e2b" d="M 0 0 
L 0 3.5 
" style="stroke: #000000; stroke-width: 0.8"/>
      </defs>
      <g>
       <use xlink:href="#mc1722c6e2b" x="1008.572727" y="640.8" style="stroke: #000000; stroke-width: 0.8"/>
      </g>
     </g>
     <g id="text_1">
      <!-- 2011-07 -->
      <g transform="translate(956.344212 666.796094) scale(0.25 -0.25)">
       <defs>
        <path id="DejaVuSans-32" d="M 1228 531 
L 3431 531 
L 3431 0 
L 469 0 
L 469 531 
Q 828 903 1448 1529 
Q 2069 2156 2228 2338 
Q 2531 2678 2651 2914 
Q 2772 3150 2772 3378 
Q 2772 3750 2511 3984 
Q 2250 4219 1831 4219 
Q 1534 4219 1204 4116 
Q 875 4013 500 3803 
L 500 4441 
Q 881 4594 1212 4672 
Q 1544 4750 1819 4750 
Q 2544 4750 2975 4387 
Q 3406 4025 3406 3419 
Q 3406 3131 3298 2873 
Q 3191 2616 2906 2266 
Q 2828 2175 2409 1742 
Q 1991 1309 1228 531 
z
" transform="scale(0.015625)"/>
        <path id="DejaVuSans-30" d="M 2034 4250 
Q 1547 4250 1301 3770 
Q 1056 3291 1056 2328 
Q 1056 1369 1301 889 
Q 1547 409 2034 409 
Q 2525 409 2770 889 
Q 3016 1369 3016 2328 
Q 3016 3291 2770 3770 
Q 2525 4250 2034 4250 
z
M 2034 4750 
Q 2819 4750 3233 4129 
Q 3647 3509 3647 2328 
Q 3647 1150 3233 529 
Q 2819 -91 2034 -91 
Q 1250 -91 836 529 
Q 422 1150 422 2328 
Q 422 3509 836 4129 
Q 1250 4750 2034 4750 
z
" transform="scale(0.015625)"/>
        <path id="DejaVuSans-31" d="M 794 531 
L 1825 531 
L 1825 4091 
L 703 3866 
L 703 4441 
L 1819 4666 
L 2450 4666 
L 2450 531 
L 3481 531 
L 3481 0 
L 794 0 
L 794 531 
z
" transform="scale(0.015625)"/>
        <path id="DejaVuSans-2d" d="M 313 2009 
L 1997 2009 
L 1997 1497 
L 313 1497 
L 313 2009 
z
" transform="scale(0.015625)"/>
        <path id="DejaVuSans-37" d="M 525 4666 
L 3525 4666 
L 3525 4397 
L 1831 0 
L 1172 0 
L 2766 4134 
L 525 4134 
L 525 4666 
z
" transform="scale(0.015625)"/>
       </defs>
       <use xlink:href="#DejaVuSans-32"/>
       <use xlink:href="#DejaVuSans-30" x="63.623047"/>
       <use xlink:href="#DejaVuSans-31" x="127.246094"/>
       <use xlink:href="#DejaVuSans-31" x="190.869141"/>
       <use xlink:href="#DejaVuSans-2d" x="254.492188"/>
       <use xlink:href="#DejaVuSans-30" x="290.576172"/>
       <use xlink:href="#DejaVuSans-37" x="354.199219"/>
      </g>
     </g>
    </g>
    <g id="xtick_2">
     <g id="line2d_2">
      <g>
       <use xlink:href="#mc1722c6e2b" x="1475.263636" y="640.8" style="stroke: #000000; stroke-width: 0.8"/>
      </g>
     </g>
     <g id="text_2">
      <!-- 2012-01 -->
      <g transform="translate(1423.035121 666.796094) scale(0.25 -0.25)">
       <use xlink:href="#DejaVuSans-32"/>
       <use xlink:href="#DejaVuSans-30" x="63.623047"/>
       <use xlink:href="#DejaVuSans-31" x="127.246094"/>
       <use xlink:href="#DejaVuSans-32" x="190.869141"/>
       <use xlink:href="#DejaVuSans-2d" x="254.492188"/>
       <use xlink:href="#DejaVuSans-30" x="290.576172"/>
       <use xlink:href="#DejaVuSans-31" x="354.199219"/>
      </g>
     </g>
    </g>
    <g id="xtick_3">
     <g id="line2d_3">
      <g>
       <use xlink:href="#mc1722c6e2b" x="1936.881818" y="640.8" style="stroke: #000000; stroke-width: 0.8"/>
      </g>
     </g>
     <g id="text_3">
      <!-- 2012-07 -->
      <g transform="translate(1884.653303 666.796094) scale(0.25 -0.25)">
       <use xlink:href="#DejaVuSans-32"/>
       <use xlink:href="#DejaVuSans-30" x="63.623047"/>
       <use xlink:href="#DejaVuSans-31" x="127.246094"/>
       <use xlink:href="#DejaVuSans-32" x="190.869141"/>
       <use xlink:href="#DejaVuSans-2d" x="254.492188"/>
       <use xlink:href="#DejaVuSans-30" x="290.576172"/>
       <use xlink:href="#DejaVuSans-37" x="354.199219"/>
      </g>
     </g>
    </g>
    <g id="xtick_4">
     <g id="line2d_4">
      <g>
       <use xlink:href="#mc1722c6e2b" x="2403.572727" y="640.8" style="stroke: #000000; stroke-width: 0.8"/>
      </g>
     </g>
     <g id="text_4">
      <!-- 2013-01 -->
      <g transform="translate(2351.344212 666.796094) scale(0.25 -0.25)">
       <defs>
        <path id="DejaVuSans-33" d="M 2597 2516 
Q 3050 2419 3304 2112 
Q 3559 1806 3559 1356 
Q 3559 666 3084 287 
Q 2609 -91 1734 -91 
Q 1441 -91 1130 -33 
Q 819 25 488 141 
L 488 750 
Q 750 597 1062 519 
Q 1375 441 1716 441 
Q 2309 441 2620 675 
Q 2931 909 2931 1356 
Q 2931 1769 2642 2001 
Q 2353 2234 1838 2234 
L 1294 2234 
L 1294 2753 
L 1863 2753 
Q 2328 2753 2575 2939 
Q 2822 3125 2822 3475 
Q 2822 3834 2567 4026 
Q 2313 4219 1838 4219 
Q 1578 4219 1281 4162 
Q 984 4106 628 3988 
L 628 4550 
Q 988 4650 1302 4700 
Q 1616 4750 1894 4750 
Q 2613 4750 3031 4423 
Q 3450 4097 3450 3541 
Q 3450 3153 3228 2886 
Q 3006 2619 2597 2516 
z
" transform="scale(0.015625)"/>
       </defs>
       <use xlink:href="#DejaVuSans-32"/>
       <use xlink:href="#DejaVuSans-30" x="63.623047"/>
       <use xlink:href="#DejaVuSans-31" x="127.246094"/>
       <use xlink:href="#DejaVuSans-33" x="190.869141"/>
       <use xlink:href="#DejaVuSans-2d" x="254.492188"/>
       <use xlink:href="#DejaVuSans-30" x="290.576172"/>
       <use xlink:href="#DejaVuSans-31" x="354.199219"/>
      </g>
     </g>
    </g>
    <g id="xtick_5">
     <g id="line2d_5">
      <g>
       <use xlink:href="#mc1722c6e2b" x="2862.654545" y="640.8" style="stroke: #000000; stroke-width: 0.8"/>
      </g>
     </g>
     <g id="text_5">
      <!-- 2013-07 -->
      <g transform="translate(2810.42603 666.796094) scale(0.25 -0.25)">
       <use xlink:href="#DejaVuSans-32"/>
       <use xlink:href="#DejaVuSans-30" x="63.623047"/>
       <use xlink:href="#DejaVuSans-31" x="127.246094"/>
       <use xlink:href="#DejaVuSans-33" x="190.869141"/>
       <use xlink:href="#DejaVuSans-2d" x="254.492188"/>
       <use xlink:href="#DejaVuSans-30" x="290.576172"/>
       <use xlink:href="#DejaVuSans-37" x="354.199219"/>
      </g>
     </g>
    </g>
    <g id="xtick_6">
     <g id="line2d_6">
      <g>
       <use xlink:href="#mc1722c6e2b" x="3329.345455" y="640.8" style="stroke: #000000; stroke-width: 0.8"/>
      </g>
     </g>
     <g id="text_6">
      <!-- 2014-01 -->
      <g transform="translate(3277.116939 666.796094) scale(0.25 -0.25)">
       <defs>
        <path id="DejaVuSans-34" d="M 2419 4116 
L 825 1625 
L 2419 1625 
L 2419 4116 
z
M 2253 4666 
L 3047 4666 
L 3047 1625 
L 3713 1625 
L 3713 1100 
L 3047 1100 
L 3047 0 
L 2419 0 
L 2419 1100 
L 313 1100 
L 313 1709 
L 2253 4666 
z
" transform="scale(0.015625)"/>
       </defs>
       <use xlink:href="#DejaVuSans-32"/>
       <use xlink:href="#DejaVuSans-30" x="63.623047"/>
       <use xlink:href="#DejaVuSans-31" x="127.246094"/>
       <use xlink:href="#DejaVuSans-34" x="190.869141"/>
       <use xlink:href="#DejaVuSans-2d" x="254.492188"/>
       <use xlink:href="#DejaVuSans-30" x="290.576172"/>
       <use xlink:href="#DejaVuSans-31" x="354.199219"/>
      </g>
     </g>
    </g>
    <g id="xtick_7">
     <g id="line2d_7">
      <g>
       <use xlink:href="#mc1722c6e2b" x="3788.427273" y="640.8" style="stroke: #000000; stroke-width: 0.8"/>
      </g>
     </g>
     <g id="text_7">
      <!-- 2014-07 -->
      <g transform="translate(3736.198757 666.796094) scale(0.25 -0.25)">
       <use xlink:href="#DejaVuSans-32"/>
       <use xlink:href="#DejaVuSans-30" x="63.623047"/>
       <use xlink:href="#DejaVuSans-31" x="127.246094"/>
       <use xlink:href="#DejaVuSans-34" x="190.869141"/>
       <use xlink:href="#DejaVuSans-2d" x="254.492188"/>
       <use xlink:href="#DejaVuSans-30" x="290.576172"/>
       <use xlink:href="#DejaVuSans-37" x="354.199219"/>
      </g>
     </g>
    </g>
   </g>
   <g id="matplotlib.axis_2">
    <g id="ytick_1">
     <g id="line2d_8">
      <defs>
       <path id="mc01e6d1bf8" d="M 0 0 
L -3.5 0 
" style="stroke: #000000; stroke-width: 0.8"/>
      </defs>
      <g>
       <use xlink:href="#mc01e6d1bf8" x="585" y="585.36" style="stroke: #000000; stroke-width: 0.8"/>
      </g>
     </g>
     <g id="text_8">
      <!-- −0.004 -->
      <g transform="translate(485.480469 594.858047) scale(0.25 -0.25)">
       <defs>
        <path id="DejaVuSans-2212" d="M 678 2272 
L 4684 2272 
L 4684 1741 
L 678 1741 
L 678 2272 
z
" transform="scale(0.015625)"/>
        <path id="DejaVuSans-2e" d="M 684 794 
L 1344 794 
L 1344 0 
L 684 0 
L 684 794 
z
" transform="scale(0.015625)"/>
       </defs>
       <use xlink:href="#DejaVuSans-2212"/>
       <use xlink:href="#DejaVuSans-30" x="83.789062"/>
       <use xlink:href="#DejaVuSans-2e" x="147.412109"/>
       <use xlink:href="#DejaVuSans-30" x="179.199219"/>
       <use xlink:href="#DejaVuSans-30" x="242.822266"/>
       <use xlink:href="#DejaVuSans-34" x="306.445312"/>
      </g>
     </g>
    </g>
    <g id="ytick_2">
     <g id="line2d_9">
      <g>
       <use xlink:href="#mc01e6d1bf8" x="585" y="474.48" style="stroke: #000000; stroke-width: 0.8"/>
      </g>
     </g>
     <g id="text_9">
      <!-- −0.002 -->
      <g transform="translate(485.480469 483.978047) scale(0.25 -0.25)">
       <use xlink:href="#DejaVuSans-2212"/>
       <use xlink:href="#DejaVuSans-30" x="83.789062"/>
       <use xlink:href="#DejaVuSans-2e" x="147.412109"/>
       <use xlink:href="#DejaVuSans-30" x="179.199219"/>
       <use xlink:href="#DejaVuSans-30" x="242.822266"/>
       <use xlink:href="#DejaVuSans-32" x="306.445312"/>
      </g>
     </g>
    </g>
    <g id="ytick_3">
     <g id="line2d_10">
      <g>
       <use xlink:href="#mc01e6d1bf8" x="585" y="363.6" style="stroke: #000000; stroke-width: 0.8"/>
      </g>
     </g>
     <g id="text_10">
      <!-- 0.000 -->
      <g transform="translate(506.429688 373.098047) scale(0.25 -0.25)">
       <use xlink:href="#DejaVuSans-30"/>
       <use xlink:href="#DejaVuSans-2e" x="63.623047"/>
       <use xlink:href="#DejaVuSans-30" x="95.410156"/>
       <use xlink:href="#DejaVuSans-30" x="159.033203"/>
       <use xlink:href="#DejaVuSans-30" x="222.65625"/>
      </g>
     </g>
    </g>
    <g id="ytick_4">
     <g id="line2d_11">
      <g>
       <use xlink:href="#mc01e6d1bf8" x="585" y="252.72" style="stroke: #000000; stroke-width: 0.8"/>
      </g>
     </g>
     <g id="text_11">
      <!-- 0.002 -->
      <g transform="translate(506.429688 262.218047) scale(0.25 -0.25)">
       <use xlink:href="#DejaVuSans-30"/>
       <use xlink:href="#DejaVuSans-2e" x="63.623047"/>
       <use xlink:href="#DejaVuSans-30" x="95.410156"/>
       <use xlink:href="#DejaVuSans-30" x="159.033203"/>
       <use xlink:href="#DejaVuSans-32" x="222.65625"/>
      </g>
     </g>
    </g>
    <g id="ytick_5">
     <g id="line2d_12">
      <g>
       <use xlink:href="#mc01e6d1bf8" x="585" y="141.84" style="stroke: #000000; stroke-width: 0.8"/>
      </g>
     </g>
     <g id="text_12">
      <!-- 0.004 -->
      <g transform="translate(506.429688 151.338047) scale(0.25 -0.25)">
       <use xlink:href="#DejaVuSans-30"/>
       <use xlink:href="#DejaVuSans-2e" x="63.623047"/>
       <use xlink:href="#DejaVuSans-30" x="95.410156"/>
       <use xlink:href="#DejaVuSans-30" x="159.033203"/>
       <use xlink:href="#DejaVuSans-34" x="222.65625"/>
      </g>
     </g>
    </g>
   </g>
   <g id="line2d_13">
    <path d="M 582.463636 344.800351 
L 585 357.048572 
L 587.536364 356.730394 
L 590.072727 380.593295 
L 592.609091 383.740116 
L 595.145455 377.526817 
L 597.681818 386.226879 
L 600.218182 397.48642 
L 602.754545 397.353041 
L 605.290909 374.147382 
L 607.827273 355.376924 
L 610.363636 353.783625 
L 612.9 345.509806 
L 615.436364 335.461907 
L 617.972727 328.989889 
L 620.509091 337.96715 
L 623.045455 354.456531 
L 625.581818 367.055872 
L 628.118182 378.010494 
L 630.654545 380.455075 
L 633.190909 388.656176 
L 635.727273 395.498997 
L 638.263636 385.220099 
L 640.8 382.76748 
L 643.336364 373.745221 
L 645.872727 383.637242 
L 648.409091 394.370104 
L 650.945455 383.074805 
L 653.481818 388.171266 
L 656.018182 382.891207 
L 658.554545 388.486629 
L 661.090909 397.02961 
L 663.627273 399.160031 
L 666.163636 405.476172 
L 668.7 409.602434 
L 671.236364 421.518015 
L 673.772727 419.434996 
L 676.309091 390.731537 
L 678.845455 374.409679 
L 681.381818 376.36454 
L 683.918182 368.432601 
L 686.454545 343.924102 
L 688.990909 324.192684 
L 691.527273 320.206225 
L 694.063636 310.518686 
L 696.6 291.184587 
L 699.136364 285.682769 
L 701.672727 288.18279 
L 704.209091 301.114771 
L 706.745455 322.214912 
L 709.281818 347.417614 
L 711.818182 370.162475 
L 714.354545 377.300976 
L 716.890909 395.795437 
L 719.427273 401.945259 
L 721.963636 409.57348 
L 724.5 396.236141 
L 727.036364 391.362642 
L 729.572727 391.746704 
L 732.109091 369.862365 
L 734.645455 357.966466 
L 737.181818 341.949527 
L 739.718182 347.979229 
L 742.254545 347.71649 
L 744.790909 360.094071 
L 747.327273 387.800812 
L 749.863636 392.222754 
L 752.4 402.807775 
L 754.936364 395.337836 
L 757.472727 405.664137 
L 760.009091 404.292599 
L 762.545455 396.76722 
L 767.618182 404.848201 
L 770.154545 394.439942 
L 772.690909 393.641284 
L 775.227273 384.914705 
L 777.763636 357.939126 
L 780.3 339.002347 
L 782.836364 345.974528 
L 785.372727 344.78779 
L 787.909091 362.607731 
L 790.445455 371.002872 
L 792.981818 408.661093 
L 795.518182 451.650795 
L 798.054545 458.281096 
L 800.590909 481.663517 
L 803.127273 488.413938 
L 805.663636 496.82756 
L 808.2 494.162421 
L 810.736364 488.734522 
L 813.272727 490.827983 
L 815.809091 475.189885 
L 818.345455 465.400706 
L 828.490909 396.565111 
L 831.027273 387.829292 
L 833.563636 375.157233 
L 836.1 377.851295 
L 838.636364 379.907796 
L 841.172727 383.738377 
L 843.709091 394.341878 
L 846.245455 398.79154 
L 848.781818 407.528561 
L 851.318182 398.312262 
L 853.854545 399.943723 
L 856.390909 388.740825 
L 858.927273 382.915606 
L 861.463636 386.644547 
L 864 378.472368 
L 866.536364 380.88923 
L 869.072727 379.323651 
L 871.609091 366.217312 
L 874.145455 365.834453 
L 876.681818 353.485795 
L 879.218182 363.516416 
L 881.754545 382.177197 
L 884.290909 394.203658 
L 886.827273 423.61056 
L 889.363636 423.394021 
L 891.9 417.956882 
L 894.436364 409.221063 
L 896.972727 391.531685 
L 899.509091 385.928226 
L 902.045455 388.631527 
L 904.581818 376.301348 
L 907.118182 388.32781 
L 909.654545 390.624551 
L 912.190909 390.768372 
L 914.727273 392.861833 
L 917.263636 384.181455 
L 919.8 405.549556 
L 924.872727 419.743398 
L 927.409091 426.61394 
L 929.945455 432.449601 
L 932.481818 435.097462 
L 935.018182 449.286083 
L 937.554545 461.238625 
L 940.090909 468.146126 
L 942.627273 486.132387 
L 947.7 482.273079 
L 950.236364 485.06657 
L 952.772727 468.326701 
L 955.309091 466.204513 
L 957.845455 435.401364 
L 960.381818 428.187936 
L 962.918182 440.223637 
L 965.454545 426.442778 
L 967.990909 436.23316 
L 970.527273 438.502181 
L 973.063636 474.663522 
L 975.6 484.906663 
L 978.136364 470.118645 
L 983.209091 491.770976 
L 985.745455 491.321227 
L 990.818182 491.229629 
L 993.354545 485.021151 
L 995.890909 480.244872 
L 998.427273 497.681554 
L 1000.963636 500.946286 
L 1003.5 505.467657 
L 1008.572727 513.823629 
L 1011.109091 511.02692 
L 1013.645455 513.635611 
L 1016.181818 506.412943 
L 1018.718182 509.206434 
L 1021.254545 506.215686 
L 1023.790909 484.340587 
L 1026.327273 484.817048 
L 1028.863636 478.25263 
L 1031.4 483.265931 
L 1033.936364 473.005512 
L 1036.472727 475.089733 
L 1039.009091 486.062835 
L 1041.545455 486.816496 
L 1044.081818 496.560677 
L 1046.618182 498.349218 
L 1049.154545 506.69816 
L 1054.227273 495.788731 
L 1061.836364 510.284883 
L 1069.445455 522.355735 
L 1071.981818 521.250347 
L 1074.518182 519.10084 
L 1077.054545 523.668812 
L 1079.590909 532.461674 
L 1084.663636 518.396986 
L 1087.2 514.750197 
L 1089.736364 516.915369 
L 1097.345455 516.307132 
L 1102.418182 519.151644 
L 1107.490909 526.089476 
L 1112.563636 524.986298 
L 1115.1 510.21716 
L 1117.636364 509.883112 
L 1120.172727 509.733864 
L 1122.709091 504.356985 
L 1125.245455 510.864957 
L 1127.781818 515.055898 
L 1137.927273 529.86621 
L 1143 526.416072 
L 1148.072727 520.792324 
L 1155.681818 505.403099 
L 1160.754545 497.187732 
L 1163.290909 486.142314 
L 1168.363636 469.389588 
L 1170.9 471.792789 
L 1173.436364 463.119441 
L 1175.972727 468.908902 
L 1178.509091 469.098923 
L 1181.045455 476.098824 
L 1183.581818 485.639726 
L 1186.118182 485.145987 
L 1188.654545 485.262088 
L 1191.190909 463.386989 
L 1193.727273 463.161211 
L 1196.263636 464.256752 
L 1198.8 460.307253 
L 1201.336364 465.191194 
L 1203.872727 483.094296 
L 1211.481818 499.117257 
L 1214.018182 499.413739 
L 1216.554545 488.640701 
L 1219.090909 476.028902 
L 1221.627273 466.032024 
L 1224.163636 462.660226 
L 1226.7 451.087727 
L 1229.236364 435.708348 
L 1231.772727 444.288289 
L 1234.309091 443.831511 
L 1236.845455 450.748252 
L 1239.381818 439.951913 
L 1241.918182 455.092254 
L 1244.454545 480.045476 
L 1249.527273 484.409767 
L 1254.6 498.917369 
L 1257.136364 496.72829 
L 1259.672727 504.130332 
L 1264.745455 463.956415 
L 1267.281818 450.284227 
L 1269.818182 446.935328 
L 1272.354545 451.606749 
L 1274.890909 447.232211 
L 1277.427273 449.094672 
L 1279.963636 451.761013 
L 1282.5 453.420194 
L 1285.036364 442.559176 
L 1287.572727 434.608757 
L 1290.109091 426.048498 
L 1292.645455 435.247519 
L 1295.181818 422.307501 
L 1297.718182 412.693882 
L 1300.254545 402.562823 
L 1302.790909 390.204924 
L 1305.327273 375.019586 
L 1307.863636 347.018367 
L 1310.4 350.349988 
L 1312.936364 346.058609 
L 1315.472727 342.099871 
L 1318.009091 343.953092 
L 1320.545455 345.519873 
L 1323.081818 365.409574 
L 1325.618182 369.739116 
L 1328.154545 376.046017 
L 1330.690909 381.179438 
L 1338.3 368.424219 
L 1340.836364 368.993081 
L 1343.372727 367.104102 
L 1350.981818 358.580803 
L 1353.518182 348.458984 
L 1356.054545 342.310366 
L 1358.590909 349.097747 
L 1361.127273 345.259128 
L 1363.663636 343.037509 
L 1368.736364 352.278712 
L 1371.272727 353.494373 
L 1373.809091 346.144554 
L 1376.345455 364.177015 
L 1378.881818 339.372837 
L 1381.418182 321.748138 
L 1383.954545 317.087159 
L 1389.027273 308.347322 
L 1391.563636 284.162223 
L 1394.1 292.686724 
L 1396.636364 300.028505 
L 1399.172727 304.200967 
L 1404.245455 324.751929 
L 1406.781818 333.89551 
L 1409.318182 342.318372 
L 1411.854545 338.923273 
L 1414.390909 315.902414 
L 1416.927273 304.477755 
L 1419.463636 289.079897 
L 1422 272.628678 
L 1424.536364 259.392979 
L 1427.072727 253.17968 
L 1429.609091 266.176342 
L 1432.145455 270.321083 
L 1434.681818 274.114704 
L 1437.218182 295.418125 
L 1439.754545 303.674667 
L 1442.290909 301.508488 
L 1444.827273 297.170909 
L 1447.363636 280.71969 
L 1449.9 285.890072 
L 1452.436364 276.858573 
L 1454.972727 267.309634 
L 1457.509091 266.825135 
L 1460.045455 267.024397 
L 1462.581818 276.223418 
L 1465.118182 274.851879 
L 1467.654545 278.61778 
L 1470.190909 297.906882 
L 1472.727273 310.219783 
L 1475.263636 311.768084 
L 1477.8 306.136905 
L 1480.336364 311.852447 
L 1482.872727 319.656228 
L 1485.409091 319.402729 
L 1487.945455 331.55855 
L 1490.481818 346.828252 
L 1493.018182 344.578913 
L 1495.554545 336.868734 
L 1498.090909 323.725435 
L 1500.627273 325.088937 
L 1503.163636 327.302518 
L 1505.7 322.817099 
L 1508.236364 346.37508 
L 1510.772727 359.454902 
L 1513.309091 362.897403 
L 1515.845455 349.292104 
L 1518.381818 320.025005 
L 1520.918182 318.884467 
L 1523.454545 323.186288 
L 1525.990909 312.667149 
L 1528.527273 309.66013 
L 1531.063636 317.972112 
L 1533.6 342.167653 
L 1536.136364 331.010954 
L 1538.672727 298.491375 
L 1541.209091 304.216157 
L 1543.745455 298.363218 
L 1546.281818 293.692999 
L 1548.818182 274.74698 
L 1551.354545 269.476162 
L 1553.890909 286.390583 
L 1556.427273 273.293484 
L 1558.963636 269.445625 
L 1561.5 271.880967 
L 1564.036364 280.969108 
L 1566.572727 290.879609 
L 1569.109091 280.29579 
L 1571.645455 284.301932 
L 1574.181818 293.288433 
L 1576.718182 290.854294 
L 1579.254545 292.984715 
L 1581.790909 300.243337 
L 1586.863636 335.190219 
L 1589.4 350.87572 
L 1591.936364 358.670262 
L 1594.472727 369.218323 
L 1597.009091 370.812824 
L 1599.545455 368.757525 
L 1602.081818 339.970907 
L 1604.618182 319.398648 
L 1607.154545 306.061309 
L 1609.690909 290.51561 
L 1612.227273 298.846072 
L 1614.763636 298.823573 
L 1617.3 316.809834 
L 1619.836364 326.258335 
L 1622.372727 341.564997 
L 1624.909091 358.165258 
L 1627.445455 350.732279 
L 1629.981818 366.7227 
L 1632.518182 376.337522 
L 1635.054545 370.687863 
L 1637.590909 376.458844 
L 1640.127273 362.992145 
L 1642.663636 363.246847 
L 1645.2 337.675748 
L 1647.736364 334.955169 
L 1650.272727 333.87931 
L 1652.809091 334.956371 
L 1655.345455 347.084473 
L 1657.881818 356.634614 
L 1660.418182 371.165115 
L 1662.954545 392.708776 
L 1665.490909 411.471198 
L 1668.027273 401.155339 
L 1670.563636 407.12036 
L 1673.1 403.983981 
L 1675.636364 390.886883 
L 1678.172727 356.482344 
L 1680.709091 338.395645 
L 1683.245455 341.200586 
L 1685.781818 329.507968 
L 1688.318182 319.848149 
L 1693.390909 362.491951 
L 1695.927273 383.730693 
L 1698.463636 407.889274 
L 1701 424.406375 
L 1703.536364 439.084716 
L 1706.072727 441.778778 
L 1708.609091 440.213199 
L 1711.145455 427.36558 
L 1716.218182 392.430343 
L 1718.754545 378.409244 
L 1721.290909 360.876945 
L 1723.827273 363.792766 
L 1726.363636 365.128548 
L 1728.9 362.638969 
L 1731.436364 362.70887 
L 1733.972727 359.332251 
L 1736.509091 371.099993 
L 1739.045455 367.095054 
L 1741.581818 376.386475 
L 1744.118182 365.368376 
L 1746.654545 361.520518 
L 1749.190909 364.963019 
L 1754.263636 340.607581 
L 1756.8 325.468443 
L 1759.336364 335.914864 
L 1761.872727 334.182965 
L 1764.409091 324.809586 
L 1766.945455 327.300368 
L 1769.481818 334.254069 
L 1772.018182 334.19461 
L 1774.554545 327.685631 
L 1777.090909 320.261893 
L 1779.627273 329.183714 
L 1782.163636 328.449735 
L 1784.7 333.361396 
L 1787.236364 344.001858 
L 1789.772727 356.776759 
L 1792.309091 363.0929 
L 1794.845455 366.267441 
L 1797.381818 368.425583 
L 1799.918182 372.006684 
L 1802.454545 368.870305 
L 1804.990909 376.480046 
L 1807.527273 393.163468 
L 1810.063636 410.817089 
L 1812.6 414.80475 
L 1815.136364 407.445691 
L 1817.672727 424.147593 
L 1820.209091 408.463294 
L 1822.745455 415.731155 
L 1825.281818 393.698976 
L 1827.818182 404.579678 
L 1830.354545 404.852859 
L 1832.890909 397.5862 
L 1835.427273 404.549141 
L 1837.963636 385.667803 
L 1840.5 412.080944 
L 1843.036364 417.454605 
L 1845.572727 431.828026 
L 1848.109091 426.649608 
L 1850.645455 431.635189 
L 1853.181818 440.18741 
L 1855.718182 435.535671 
L 1858.254545 424.933373 
L 1860.790909 420.069114 
L 1863.327273 412.405135 
L 1865.863636 413.574596 
L 1870.936364 418.456328 
L 1873.472727 419.013739 
L 1876.009091 432.128311 
L 1878.545455 438.035682 
L 1881.081818 459.872814 
L 1883.618182 467.119985 
L 1886.154545 471.394086 
L 1888.690909 474.855068 
L 1891.227273 469.390209 
L 1893.763636 471.82555 
L 1896.3 477.356291 
L 1898.836364 473.850313 
L 1901.372727 461.261414 
L 1903.909091 456.757515 
L 1906.445455 466.483216 
L 1908.981818 473.233638 
L 1911.518182 462.723739 
L 1914.054545 440.38664 
L 1916.590909 464.489781 
L 1919.127273 466.694123 
L 1921.663636 470.413824 
L 1931.809091 472.463696 
L 1934.345455 478.837888 
L 1939.418182 500.50207 
L 1941.954545 501.801292 
L 1944.490909 510.908314 
L 1949.563636 512.085206 
L 1957.172727 511.296188 
L 1959.709091 517.95461 
L 1962.245455 522.369922 
L 1964.781818 511.973514 
L 1967.318182 513.746186 
L 1969.854545 510.235787 
L 1972.390909 504.909529 
L 1980 505.811832 
L 1982.536364 519.416123 
L 1985.072727 515.704655 
L 1987.609091 519.255826 
L 1990.145455 529.857117 
L 1992.681818 532.597379 
L 1997.754545 542.09911 
L 2018.045455 541.134933 
L 2025.654545 536.211616 
L 2028.190909 537.74706 
L 2030.727273 519.425743 
L 2033.263636 519.935546 
L 2038.336364 515.30791 
L 2043.409091 500.917612 
L 2045.945455 503.755093 
L 2048.481818 503.136815 
L 2051.018182 517.210137 
L 2053.554545 500.172378 
L 2056.090909 490.49187 
L 2058.627273 504.218491 
L 2061.163636 505.905392 
L 2063.7 494.360614 
L 2068.772727 481.677105 
L 2076.381818 489.270977 
L 2078.918182 499.729249 
L 2081.454545 491.947761 
L 2083.990909 483.500993 
L 2086.527273 478.731744 
L 2089.063636 479.499466 
L 2091.6 478.294247 
L 2094.136364 472.450549 
L 2099.209091 459.95184 
L 2101.745455 469.435092 
L 2104.281818 481.265303 
L 2106.818182 488.235274 
L 2109.354545 491.971246 
L 2111.890909 494.737017 
L 2114.427273 515.643119 
L 2116.963636 512.37738 
L 2122.036364 514.949111 
L 2124.572727 516.633803 
L 2127.109091 521.238334 
L 2129.645455 524.826466 
L 2132.181818 518.694117 
L 2134.718182 507.424329 
L 2137.254545 495.26971 
L 2139.790909 500.440091 
L 2142.327273 477.982872 
L 2144.863636 461.938214 
L 2147.4 450.097755 
L 2149.936364 462.364456 
L 2152.472727 462.961037 
L 2155.009091 447.729499 
L 2157.545455 453.70376 
L 2160.081818 457.857741 
L 2162.618182 467.611162 
L 2165.154545 460.150464 
L 2167.690909 465.635005 
L 2170.227273 465.030386 
L 2172.763636 455.000967 
L 2175.3 453.749549 
L 2177.836364 443.76633 
L 2180.372727 439.253191 
L 2182.909091 434.065532 
L 2185.445455 429.247474 
L 2187.981818 459.282695 
L 2190.518182 463.122516 
L 2193.054545 464.763217 
L 2195.590909 464.768439 
L 2198.127273 453.99982 
L 2200.663636 462.552041 
L 2203.2 433.247982 
L 2208.272727 417.203324 
L 2210.809091 400.548825 
L 2213.345455 393.975166 
L 2215.881818 387.881987 
L 2218.418182 375.727369 
L 2220.954545 373.19159 
L 2223.490909 392.767131 
L 2226.027273 413.904232 
L 2231.1 414.251334 
L 2233.636364 410.911675 
L 2236.172727 402.582416 
L 2238.709091 398.106237 
L 2241.245455 376.314298 
L 2243.781818 349.02456 
L 2246.318182 332.129821 
L 2248.854545 323.541842 
L 2251.390909 318.557463 
L 2253.927273 310.865765 
L 2256.463636 292.714386 
L 2259 290.465047 
L 2261.536364 296.522468 
L 2264.072727 299.12413 
L 2266.609091 296.015471 
L 2269.145455 305.242212 
L 2271.681818 305.552353 
L 2276.754545 297.250815 
L 2279.290909 291.471796 
L 2281.827273 286.025417 
L 2294.509091 272.614158 
L 2297.045455 251.1179 
L 2302.118182 230.024182 
L 2304.654545 227.978123 
L 2307.190909 226.911505 
L 2309.727273 240.675086 
L 2312.263636 244.644267 
L 2314.8 244.400008 
L 2317.336364 258.36687 
L 2319.872727 244.124011 
L 2322.409091 236.145872 
L 2324.945455 232.427373 
L 2327.481818 248.510195 
L 2330.018182 280.319496 
L 2332.554545 299.340637 
L 2335.090909 320.828858 
L 2337.627273 325.30624 
L 2340.163636 317.078621 
L 2342.7 317.102322 
L 2345.236364 288.897823 
L 2347.772727 277.325325 
L 2350.309091 263.276506 
L 2352.845455 255.963647 
L 2357.918182 255.329099 
L 2360.454545 229.06279 
L 2365.527273 233.018312 
L 2368.063636 225.146633 
L 2370.6 226.866075 
L 2373.136364 224.094877 
L 2375.672727 225.659448 
L 2378.209091 236.98146 
L 2380.745455 228.273361 
L 2383.281818 227.576342 
L 2385.818182 229.143123 
L 2388.354545 233.657465 
L 2390.890909 244.898526 
L 2393.427273 259.549147 
L 2395.963636 264.460808 
L 2398.5 254.42215 
L 2401.036364 250.343291 
L 2403.572727 262.545312 
L 2406.109091 246.925693 
L 2408.645455 242.698995 
L 2411.181818 264.381256 
L 2413.718182 287.819117 
L 2416.254545 307.791978 
L 2418.790909 315.36476 
L 2421.327273 330.754581 
L 2423.863636 326.315362 
L 2426.4 332.141783 
L 2428.936364 320.744845 
L 2431.472727 292.457186 
L 2434.009091 276.985407 
L 2436.545455 270.448708 
L 2439.081818 265.67685 
L 2441.618182 249.964831 
L 2444.154545 242.439452 
L 2446.690909 261.090993 
L 2449.227273 262.953455 
L 2451.763636 269.177196 
L 2454.3 285.269257 
L 2456.836364 294.532958 
L 2459.372727 314.30254 
L 2461.909091 313.725641 
L 2464.445455 315.292422 
L 2466.981818 316.083043 
L 2469.518182 303.882225 
L 2472.054545 307.842166 
L 2474.590909 305.250947 
L 2477.127273 309.201648 
L 2479.663636 327.72383 
L 2482.2 339.861171 
L 2484.736364 349.013992 
L 2487.272727 352.160813 
L 2489.809091 345.485515 
L 2492.345455 344.502056 
L 2494.881818 343.195197 
L 2499.954545 330.4914 
L 2502.490909 302.850541 
L 2505.027273 295.362122 
L 2507.563636 278.855463 
L 2510.1 254.836685 
L 2512.636364 241.369986 
L 2515.172727 238.945087 
L 2517.709091 239.624828 
L 2520.245455 244.12993 
L 2522.781818 258.669671 
L 2525.318182 269.356332 
L 2527.854545 277.354153 
L 2530.390909 277.996935 
L 2532.927273 270.794956 
L 2535.463636 270.929537 
L 2538 265.510878 
L 2540.536364 255.823339 
L 2543.072727 252.576081 
L 2545.609091 256.563742 
L 2548.145455 282.625763 
L 2550.681818 275.506944 
L 2553.218182 281.277926 
L 2555.754545 298.811427 
L 2558.290909 293.762368 
L 2560.827273 296.345549 
L 2563.363636 278.693131 
L 2568.436364 283.990662 
L 2570.972727 269.828754 
L 2573.509091 267.577205 
L 2576.045455 266.462177 
L 2578.581818 244.085908 
L 2581.118182 241.732719 
L 2583.654545 246.237821 
L 2586.190909 259.419282 
L 2588.727273 246.691783 
L 2591.263636 241.661204 
L 2593.8 246.868546 
L 2598.872727 242.517708 
L 2601.409091 240.028129 
L 2606.481818 230.828101 
L 2609.018182 250.253592 
L 2611.554545 249.896244 
L 2614.090909 265.413215 
L 2616.627273 278.684867 
L 2619.163636 280.831558 
L 2621.7 299.436899 
L 2624.236364 294.341641 
L 2626.772727 302.062262 
L 2629.309091 301.614723 
L 2631.845455 284.091664 
L 2634.381818 279.615486 
L 2636.918182 275.444227 
L 2639.454545 269.378768 
L 2644.527273 255.381371 
L 2647.063636 257.068272 
L 2649.6 254.754253 
L 2652.136364 251.885834 
L 2654.672727 240.100816 
L 2657.209091 252.829517 
L 2662.281818 238.564159 
L 2664.818182 234.476061 
L 2667.354545 225.888082 
L 2669.890909 245.750063 
L 2672.427273 247.631004 
L 2674.963636 249.761426 
L 2677.5 272.367687 
L 2682.572727 302.731529 
L 2685.109091 306.247951 
L 2687.645455 306.946172 
L 2690.181818 323.186073 
L 2692.718182 322.997254 
L 2695.254545 326.319636 
L 2697.790909 321.178177 
L 2700.327273 310.751438 
L 2702.863636 309.971259 
L 2705.4 314.060561 
L 2710.472727 340.201723 
L 2713.009091 363.159104 
L 2715.545455 402.535966 
L 2718.081818 402.799907 
L 2720.618182 398.065008 
L 2723.154545 377.123149 
L 2725.690909 352.485291 
L 2728.227273 322.626832 
L 2730.763636 289.996373 
L 2733.3 288.116634 
L 2735.836364 296.816696 
L 2738.372727 325.512117 
L 2740.909091 334.138258 
L 2743.445455 364.071839 
L 2745.981818 359.004301 
L 2748.518182 361.726082 
L 2751.054545 357.536343 
L 2753.590909 340.225804 
L 2756.127273 341.848026 
L 2758.663636 327.226327 
L 2761.2 337.423268 
L 2763.736364 350.586249 
L 2766.272727 369.829151 
L 2768.809091 375.267492 
L 2771.345455 383.089753 
L 2773.881818 388.398734 
L 2776.418182 398.725036 
L 2778.954545 415.630217 
L 2781.490909 405.600798 
L 2786.563636 383.610801 
L 2789.1 388.171342 
L 2791.636364 385.081163 
L 2794.172727 369.249024 
L 2796.709091 364.172246 
L 2801.781818 373.241907 
L 2804.318182 399.969208 
L 2809.390909 429.981931 
L 2811.927273 430.855712 
L 2814.463636 435.952173 
L 2817 446.352394 
L 2819.536364 424.449576 
L 2822.072727 421.692037 
L 2824.609091 429.135458 
L 2827.145455 439.175319 
L 2829.681818 457.34638 
L 2832.218182 448.167042 
L 2834.754545 453.439063 
L 2837.290909 459.034484 
L 2839.827273 437.408865 
L 2842.363636 441.026927 
L 2844.9 442.963308 
L 2847.436364 458.011249 
L 2849.972727 474.50987 
L 2852.509091 470.698972 
L 2855.045455 473.513153 
L 2857.581818 469.563654 
L 2860.118182 464.782555 
L 2862.654545 453.283977 
L 2865.190909 458.057038 
L 2867.727273 456.168059 
L 2872.8 468.404831 
L 2875.336364 466.245682 
L 2880.409091 458.235404 
L 2882.945455 464.898245 
L 2885.481818 467.754207 
L 2888.018182 475.876969 
L 2890.554545 485.92386 
L 2893.090909 493.291152 
L 2895.627273 496.973893 
L 2898.163636 507.133874 
L 2900.7 510.410055 
L 2903.236364 518.703557 
L 2905.772727 520.242618 
L 2913.381818 519.65206 
L 2915.918182 523.468981 
L 2920.990909 517.396893 
L 2923.527273 515.769245 
L 2928.6 512.919707 
L 2931.136364 490.740089 
L 2933.672727 494.058051 
L 2936.209091 500.258892 
L 2938.745455 504.068784 
L 2941.281818 498.250595 
L 2943.818182 485.144257 
L 2948.890909 492.335988 
L 2951.427273 479.88348 
L 2953.963636 463.910531 
L 2956.5 457.260742 
L 2959.036364 439.439794 
L 2961.572727 434.065125 
L 2964.109091 440.048627 
L 2966.645455 447.732288 
L 2969.181818 444.041509 
L 2971.718182 419.93033 
L 2974.254545 441.751192 
L 2976.790909 434.706293 
L 2979.327273 431.985714 
L 2981.863636 413.409295 
L 2984.4 400.330677 
L 2986.936364 427.806418 
L 2989.472727 407.853239 
L 2992.009091 397.97166 
L 2994.545455 390.732722 
L 2997.081818 400.920423 
L 2999.618182 420.283444 
L 3002.154545 405.366065 
L 3004.690909 406.886647 
L 3007.227273 425.787668 
L 3009.763636 407.728689 
L 3012.3 412.33543 
L 3014.836364 410.132292 
L 3017.372727 420.125953 
L 3019.909091 421.997654 
L 3022.445455 396.879315 
L 3024.981818 404.368937 
L 3027.518182 378.964158 
L 3030.054545 348.865459 
L 3032.590909 332.99636 
L 3035.127273 327.559222 
L 3037.663636 330.059243 
L 3040.2 334.157784 
L 3042.736364 329.321245 
L 3045.272727 351.354627 
L 3047.809091 342.082888 
L 3050.345455 327.507389 
L 3052.881818 334.78449 
L 3055.418182 317.150552 
L 3057.954545 328.770453 
L 3060.490909 322.760434 
L 3063.027273 350.319335 
L 3065.563636 355.240237 
L 3068.1 355.587338 
L 3070.636364 366.301719 
L 3073.172727 370.00294 
L 3075.709091 387.665802 
L 3078.245455 373.432183 
L 3080.781818 383.398124 
L 3083.318182 385.195905 
L 3085.854545 378.261887 
L 3088.390909 372.122508 
L 3090.927273 336.017809 
L 3093.463636 317.34899 
L 3096 287.601412 
L 3098.536364 269.948993 
L 3101.072727 271.552734 
L 3103.609091 255.387955 
L 3106.145455 256.095417 
L 3108.681818 255.601678 
L 3111.218182 253.675739 
L 3113.754545 256.98888 
L 3116.290909 238.597261 
L 3118.827273 240.820083 
L 3121.363636 259.194424 
L 3123.9 267.367805 
L 3126.436364 280.456866 
L 3128.972727 278.549408 
L 3131.509091 304.214109 
L 3134.045455 304.45033 
L 3139.118182 283.245733 
L 3141.654545 273.410354 
L 3144.190909 271.040895 
L 3146.727273 254.922316 
L 3149.263636 255.555858 
L 3151.8 247.633159 
L 3154.336364 237.28958 
L 3156.872727 247.634361 
L 3159.409091 251.409503 
L 3161.945455 248.531844 
L 3164.481818 250.107865 
L 3167.018182 252.922046 
L 3169.554545 272.386708 
L 3172.090909 268.391009 
L 3174.627273 268.12827 
L 3177.163636 281.328211 
L 3179.7 283.375473 
L 3182.236364 281.911534 
L 3184.772727 263.501435 
L 3187.309091 265.391616 
L 3189.845455 265.193558 
L 3192.381818 250.146819 
L 3194.918182 249.42208 
L 3197.454545 243.328901 
L 3199.990909 251.650123 
L 3202.527273 272.519264 
L 3205.063636 281.755245 
L 3207.6 299.187106 
L 3210.136364 294.526128 
L 3212.672727 303.799069 
L 3215.209091 307.58345 
L 3217.745455 285.560511 
L 3220.281818 270.578453 
L 3222.818182 273.863874 
L 3225.354545 278.332015 
L 3227.890909 291.356396 
L 3230.427273 294.734218 
L 3232.963636 300.486719 
L 3235.5 321.6885 
L 3238.036364 315.798601 
L 3240.572727 315.600543 
L 3243.109091 317.047204 
L 3245.645455 324.296585 
L 3248.181818 334.040766 
L 3250.718182 333.510068 
L 3253.254545 330.475329 
L 3255.790909 349.28395 
L 3258.327273 352.347611 
L 3260.863636 352.620793 
L 3265.936364 340.563795 
L 3268.472727 344.560696 
L 3271.009091 331.759278 
L 3273.545455 334.508779 
L 3276.081818 330.20816 
L 3278.618182 339.675141 
L 3281.154545 349.641083 
L 3283.690909 340.480224 
L 3286.227273 328.454965 
L 3288.763636 317.677106 
L 3291.3 311.620888 
L 3293.836364 287.528189 
L 3296.372727 269.86653 
L 3298.909091 275.600551 
L 3301.445455 290.084853 
L 3303.981818 293.120794 
L 3306.518182 307.374095 
L 3309.054545 314.752836 
L 3311.590909 317.520818 
L 3314.127273 318.995199 
L 3316.663636 322.44694 
L 3321.736364 319.389703 
L 3324.272727 338.235284 
L 3326.809091 343.461105 
L 3329.345455 325.753246 
L 3331.881818 303.684108 
L 3334.418182 284.008129 
L 3336.954545 268.12055 
L 3339.490909 257.730771 
L 3342.027273 245.982713 
L 3344.563636 249.868734 
L 3347.1 258.189955 
L 3349.636364 274.734776 
L 3352.172727 285.624718 
L 3354.709091 280.695779 
L 3357.245455 296.74164 
L 3359.781818 315.263821 
L 3362.318182 323.797563 
L 3364.854545 316.918984 
L 3367.390909 305.743805 
L 3369.927273 318.056706 
L 3372.463636 318.496208 
L 3375 316.200669 
L 3377.536364 309.94117 
L 3380.072727 317.597111 
L 3382.609091 332.820613 
L 3385.145455 330.488114 
L 3387.681818 331.435815 
L 3390.218182 337.373116 
L 3392.754545 361.698018 
L 3395.290909 374.149519 
L 3397.827273 362.38298 
L 3400.363636 341.607441 
L 3402.9 329.277262 
L 3405.436364 321.696444 
L 3407.972727 290.128585 
L 3410.509091 267.431126 
L 3413.045455 265.551387 
L 3415.581818 286.614569 
L 3418.118182 297.08871 
L 3420.654545 292.289131 
L 3423.190909 302.292032 
L 3425.727273 304.838254 
L 3428.263636 311.126675 
L 3430.8 301.217376 
L 3433.336364 301.804717 
L 3435.872727 313.526259 
L 3438.409091 328.04752 
L 3440.945455 349.803701 
L 3443.481818 364.177122 
L 3446.018182 381.895424 
L 3448.554545 376.827885 
L 3451.090909 378.450106 
L 3453.627273 388.942727 
L 3456.163636 384.217069 
L 3458.7 368.08001 
L 3461.236364 355.426431 
L 3463.772727 358.776532 
L 3468.845455 314.582815 
L 3471.381818 305.569796 
L 3473.918182 320.636217 
L 3476.454545 330.731519 
L 3478.990909 352.29366 
L 3481.527273 376.406041 
L 3484.063636 376.725422 
L 3486.6 386.441884 
L 3489.136364 388.729385 
L 3491.672727 398.390406 
L 3494.209091 369.077107 
L 3496.745455 353.217249 
L 3499.281818 352.09519 
L 3501.818182 356.757371 
L 3504.354545 365.097072 
L 3506.890909 355.326374 
L 3509.427273 368.711115 
L 3511.963636 393.488776 
L 3514.5 423.921317 
L 3517.036364 426.245779 
L 3519.572727 433.0424 
L 3522.109091 445.614021 
L 3524.645455 449.537002 
L 3527.181818 441.946944 
L 3529.718182 427.491565 
L 3532.254545 428.152826 
L 3534.790909 421.717767 
L 3537.327273 427.387109 
L 3539.863636 428.62125 
L 3542.4 430.446751 
L 3544.936364 427.910972 
L 3547.472727 429.939754 
L 3550.009091 419.540735 
L 3552.545455 392.805396 
L 3555.081818 392.958457 
L 3557.618182 402.545559 
L 3560.154545 410.3401 
L 3562.690909 403.119641 
L 3565.227273 403.734702 
L 3567.763636 407.694644 
L 3570.3 395.669385 
L 3572.836364 376.723366 
L 3575.372727 361.602707 
L 3577.909091 350.159569 
L 3580.445455 336.48035 
L 3582.981818 325.351371 
L 3585.518182 330.835912 
L 3588.054545 327.403854 
L 3590.590909 332.019835 
L 3593.127273 342.272216 
L 3595.663636 356.756517 
L 3598.2 369.910259 
L 3600.736364 392.94156 
L 3603.272727 399.645781 
L 3605.809091 404.622122 
L 3608.345455 393.363784 
L 3610.881818 389.035445 
L 3613.418182 386.361066 
L 3615.954545 361.242727 
L 3618.490909 343.701189 
L 3621.027273 329.21809 
L 3623.563636 339.368831 
L 3626.1 331.501572 
L 3628.636364 334.537514 
L 3631.172727 332.472975 
L 3633.709091 356.188036 
L 3638.781818 371.407519 
L 3641.318182 375.01634 
L 3643.854545 389.260401 
L 3646.390909 388.166062 
L 3648.927273 387.626124 
L 3651.463636 380.045305 
L 3654 373.998326 
L 3656.536364 388.362507 
L 3659.072727 376.762289 
L 3661.609091 382.91211 
L 3664.145455 379.202851 
L 3666.681818 392.116352 
L 3669.218182 397.896574 
L 3671.754545 395.129795 
L 3674.290909 386.929896 
L 3676.827273 376.207477 
L 3679.363636 380.509299 
L 3681.9 388.26688 
L 3684.436364 399.572621 
L 3686.972727 399.097362 
L 3692.045455 436.612965 
L 3694.581818 442.531786 
L 3697.118182 426.764327 
L 3699.654545 403.771188 
L 3702.190909 392.07857 
L 3704.727273 383.823231 
L 3707.263636 365.311492 
L 3709.8 370.269353 
L 3712.336364 372.048655 
L 3714.872727 381.857516 
L 3717.409091 377.538417 
L 3719.945455 368.285158 
L 3722.481818 369.91662 
L 3725.018182 350.998321 
L 3727.554545 377.439182 
L 3730.090909 376.991643 
L 3732.627273 413.762825 
L 3735.163636 443.668686 
L 3737.7 477.649387 
L 3740.236364 494.674688 
L 3742.772727 491.98183 
L 3745.309091 502.178771 
L 3747.845455 486.771672 
L 3750.381818 479.708293 
L 3752.918182 474.622275 
L 3755.454545 486.316096 
L 3763.063636 500.720249 
L 3765.6 514.37074 
L 3768.136364 511.925152 
L 3770.672727 521.556243 
L 3773.209091 514.010174 
L 3775.745455 512.229866 
L 3778.281818 504.307167 
L 3780.818182 492.753148 
L 3785.890909 504.70348 
L 3788.427273 493.581531 
L 3790.963636 476.536743 
L 3793.5 482.610434 
L 3796.036364 486.900806 
L 3798.572727 480.916297 
L 3801.109091 461.535998 
L 3803.645455 445.64842 
L 3806.181818 460.299041 
L 3808.718182 444.115782 
L 3811.254545 437.495923 
L 3813.790909 452.811825 
L 3816.327273 455.820046 
L 3818.863636 462.450347 
L 3821.4 459.277008 
L 3823.936364 455.63243 
L 3826.472727 463.223691 
L 3829.009091 451.771312 
L 3831.545455 446.287973 
L 3834.081818 444.241915 
L 3836.618182 449.938976 
L 3839.154545 467.999157 
L 3841.690909 473.622298 
L 3844.227273 469.35864 
L 3846.763636 470.334061 
L 3849.3 472.566122 
L 3851.836364 465.280983 
L 3854.372727 458.753525 
L 3856.909091 443.521986 
L 3859.445455 461.471287 
L 3864.518182 461.862379 
L 3867.054545 473.44311 
L 3869.590909 473.704841 
L 3872.127273 472.146293 
L 3879.736364 483.482365 
L 3882.272727 474.471957 
L 3884.809091 491.649918 
L 3887.345455 481.2742 
L 3889.881818 489.914402 
L 3892.418182 473.052203 
L 3897.490909 474.200975 
L 3902.563636 481.686176 
L 3907.636364 471.945808 
L 3910.172727 489.5004 
L 3912.709091 496.613792 
L 3915.245455 523.112704 
L 3917.781818 511.979306 
L 3920.318182 503.379877 
L 3922.854545 502.950818 
L 3925.390909 487.31272 
L 3927.927273 476.627261 
L 3930.463636 472.197282 
L 3933 481.987663 
L 3935.536364 486.659085 
L 3938.072727 486.719746 
L 3940.609091 485.375927 
L 3943.145455 476.797188 
L 3945.681818 464.86433 
L 3948.218182 456.913911 
L 3950.754545 441.146452 
L 3953.290909 433.491713 
L 3955.827273 436.111855 
L 3958.363636 435.627356 
L 3960.9 432.278457 
L 3963.436364 419.005798 
L 3965.972727 428.0385 
L 3968.509091 440.138881 
L 3971.045455 430.238822 
L 3973.581818 428.931963 
L 3976.118182 426.155944 
L 3978.654545 445.186326 
L 3981.190909 427.062667 
L 3983.727273 428.416928 
L 3986.263636 432.081189 
L 3988.8 424.611251 
L 3991.336364 421.160712 
L 3993.872727 410.780173 
L 3996.409091 428.664794 
L 3998.945455 401.772376 
L 4001.481818 407.164517 
L 4004.018182 399.657618 
L 4006.554545 398.526319 
L 4009.090909 393.006021 
L 4011.627273 385.277362 
L 4014.163636 390.392303 
L 4016.7 381.785844 
L 4019.236364 391.834946 
L 4021.772727 403.159167 
L 4024.309091 406.906588 
L 4026.845455 411.966089 
L 4029.381818 413.717671 
L 4031.918182 408.788732 
L 4034.454545 401.133993 
L 4036.990909 385.154014 
L 4039.527273 374.339196 
L 4042.063636 365.224537 
L 4044.6 365.063438 
L 4047.136364 366.833499 
L 4049.672727 364.002041 
L 4052.209091 354.905862 
L 4054.745455 347.121763 
L 4057.281818 354.093944 
L 4062.354545 373.859507 
L 4064.890909 373.504368 
L 4067.427273 381.936469 
L 4069.963636 397.021371 
L 4075.036364 389.824613 
L 4077.572727 371.765634 
L 4080.109091 371.170256 
L 4082.645455 363.885117 
L 4085.181818 352.275658 
L 4087.718182 323.027039 
L 4090.254545 309.689701 
L 4092.790909 308.299682 
L 4095.327273 310.411623 
L 4097.863636 307.820404 
L 4100.4 301.172826 
L 4102.936364 309.429367 
L 4105.472727 305.202668 
L 4108.009091 303.877329 
L 4110.545455 306.682271 
L 4113.081818 314.578452 
L 4115.618182 320.645113 
L 4118.154545 315.365054 
L 4120.690909 313.753276 
L 4123.227273 319.320977 
L 4125.763636 305.475438 
L 4128.3 307.208539 
L 4130.836364 299.821761 
L 4133.372727 306.110182 
L 4135.909091 301.264403 
L 4138.445455 306.785904 
L 4140.981818 332.358206 
L 4143.518182 332.317227 
L 4146.054545 341.978248 
L 4151.127273 379.022611 
L 4153.663636 363.864992 
L 4156.2 354.713373 
L 4158.736364 355.032754 
L 4161.272727 347.156256 
L 4163.809091 342.042517 
L 4166.345455 330.571658 
L 4168.881818 343.300359 
L 4171.418182 324.040181 
L 4173.954545 324.655242 
L 4176.490909 321.481903 
L 4179.027273 324.702644 
L 4181.563636 341.672506 
L 4184.1 337.575167 
L 4186.636364 343.133628 
L 4189.172727 346.668529 
L 4191.709091 358.177551 
L 4194.245455 350.495092 
L 4196.781818 344.078513 
L 4199.318182 339.482214 
L 4201.854545 354.798116 
L 4204.390909 337.265817 
L 4206.927273 338.814118 
L 4209.463636 342.968099 
L 4212 341.550361 
L 4214.536364 342.571982 
L 4214.536364 342.571982 
" clip-path="url(#p6a9abc1906)" style="fill: none; stroke: #00ced1; stroke-width: 2.5; stroke-linecap: square"/>
   </g>
   <g id="line2d_14">
    <path d="M 582.463636 379.827133 
L 585 395.173623 
L 587.536364 391.735193 
L 590.072727 407.959483 
L 592.609091 412.864774 
L 595.145455 403.623624 
L 597.681818 413.925074 
L 600.218182 419.412484 
L 602.754545 423.088854 
L 605.290909 403.036904 
L 607.827273 384.518795 
L 610.363636 388.638685 
L 612.9 380.358495 
L 615.436364 369.832985 
L 617.972727 366.514675 
L 620.509091 379.588125 
L 623.045455 398.843136 
L 625.581818 397.603826 
L 628.118182 407.295436 
L 630.654545 404.235846 
L 633.190909 414.370976 
L 635.727273 417.705466 
L 638.263636 401.534317 
L 640.8 402.660447 
L 643.336364 393.751937 
L 645.872727 412.350907 
L 648.409091 403.580997 
L 650.945455 395.559527 
L 653.481818 403.005818 
L 656.018182 393.884788 
L 661.090909 401.847368 
L 663.627273 414.394138 
L 666.163636 411.510108 
L 668.7 405.502959 
L 671.236364 413.244929 
L 673.772727 408.365059 
L 676.309091 382.242429 
L 678.845455 363.059039 
L 681.381818 363.131809 
L 683.918182 359.00962 
L 686.454545 338.82831 
L 688.990909 330.81608 
L 691.527273 321.37165 
L 694.063636 317.06466 
L 699.136364 298.998161 
L 701.672727 300.863491 
L 704.209091 310.296381 
L 706.745455 332.452751 
L 711.818182 371.563371 
L 714.354545 393.507222 
L 716.890909 409.860872 
L 719.427273 416.660362 
L 721.963636 421.269972 
L 724.5 408.027902 
L 727.036364 397.483912 
L 729.572727 385.008763 
L 732.109091 381.598053 
L 734.645455 365.075783 
L 737.181818 358.190833 
L 739.718182 369.083643 
L 742.254545 381.621173 
L 744.790909 406.337023 
L 747.327273 414.263794 
L 749.863636 419.815884 
L 752.4 431.087534 
L 754.936364 424.322704 
L 757.472727 425.901594 
L 760.009091 422.333804 
L 762.545455 426.148775 
L 765.081818 448.554625 
L 767.618182 434.314635 
L 770.154545 431.938805 
L 772.690909 413.901175 
L 775.227273 398.293665 
L 777.763636 379.368996 
L 780.3 349.892246 
L 782.836364 350.861296 
L 785.372727 348.781146 
L 787.909091 372.674636 
L 790.445455 381.460726 
L 792.981818 411.489577 
L 795.518182 452.209107 
L 798.054545 464.811317 
L 800.590909 487.217167 
L 803.127273 477.671097 
L 805.663636 477.651467 
L 808.2 478.500398 
L 810.736364 459.233848 
L 813.272727 446.915778 
L 815.809091 420.294188 
L 818.345455 411.977038 
L 820.881818 398.919768 
L 823.418182 370.727379 
L 825.954545 353.586029 
L 828.490909 333.404719 
L 831.027273 327.924249 
L 833.563636 313.776659 
L 836.1 314.126629 
L 838.636364 318.7732 
L 841.172727 313.04325 
L 843.709091 327.85382 
L 846.245455 336.22411 
L 848.781818 347.7822 
L 851.318182 337.24745 
L 853.854545 335.795621 
L 856.390909 333.336631 
L 858.927273 331.441281 
L 861.463636 326.570651 
L 864 309.660301 
L 866.536364 310.841871 
L 869.072727 294.467442 
L 871.609091 288.377132 
L 874.145455 279.745822 
L 876.681818 268.730592 
L 879.218182 286.886042 
L 884.290909 328.556143 
L 886.827273 338.589633 
L 889.363636 340.630523 
L 891.9 343.336693 
L 894.436364 338.216583 
L 896.972727 313.747913 
L 899.509091 324.511364 
L 902.045455 330.229774 
L 904.581818 328.020264 
L 907.118182 332.999474 
L 909.654545 318.657844 
L 912.190909 337.580214 
L 914.727273 318.535425 
L 917.263636 309.580715 
L 919.8 316.047565 
L 922.336364 331.079895 
L 924.872727 340.651385 
L 927.409091 329.275795 
L 929.945455 341.702446 
L 932.481818 351.560376 
L 935.018182 376.756706 
L 937.554545 372.061636 
L 940.090909 369.353166 
L 942.627273 385.854656 
L 945.163636 398.928107 
L 947.7 407.242957 
L 950.236364 386.784447 
L 952.772727 395.302577 
L 955.309091 405.299107 
L 957.845455 389.469837 
L 960.381818 383.749128 
L 962.918182 388.940858 
L 965.454545 396.008308 
L 967.990909 382.193358 
L 970.527273 387.606848 
L 973.063636 405.595978 
L 975.6 384.111829 
L 978.136364 370.675719 
L 980.672727 381.152729 
L 983.209091 397.423219 
L 985.745455 401.700189 
L 988.281818 394.399439 
L 990.818182 384.47453 
L 993.354545 399.59926 
L 995.890909 400.24491 
L 998.427273 402.29504 
L 1000.963636 408.80809 
L 1003.5 424.60734 
L 1006.036364 458.082711 
L 1008.572727 447.058241 
L 1011.109091 443.333371 
L 1013.645455 442.352781 
L 1016.181818 438.738791 
L 1018.718182 424.923841 
L 1023.790909 396.314502 
L 1026.327273 386.315672 
L 1028.863636 377.379442 
L 1031.4 365.726652 
L 1033.936364 362.177342 
L 1036.472727 366.722273 
L 1039.009091 382.955803 
L 1041.545455 376.458933 
L 1044.081818 391.805423 
L 1046.618182 400.924153 
L 1049.154545 418.691523 
L 1051.690909 425.786694 
L 1054.227273 436.466984 
L 1059.3 467.850842 
L 1061.836364 466.552821 
L 1064.372727 480.879639 
L 1066.909091 467.828338 
L 1069.445455 462.575596 
L 1071.981818 455.317775 
L 1074.518182 442.112665 
L 1077.054545 437.195835 
L 1079.590909 438.941045 
L 1082.127273 452.208536 
L 1084.663636 450.655066 
L 1087.2 447.179676 
L 1089.736364 449.507006 
L 1092.272727 451.381576 
L 1094.809091 439.774986 
L 1097.345455 438.378597 
L 1099.881818 444.133967 
L 1102.418182 452.254777 
L 1104.954545 443.623467 
L 1107.490909 453.084077 
L 1110.027273 451.225687 
L 1112.563636 447.371458 
L 1115.1 439.377708 
L 1117.636364 431.929118 
L 1120.172727 437.943208 
L 1122.709091 422.455818 
L 1125.245455 424.145588 
L 1127.781818 419.810879 
L 1130.318182 430.177009 
L 1132.854545 447.232899 
L 1135.390909 439.590269 
L 1137.927273 448.995439 
L 1140.463636 444.854769 
L 1143 437.46162 
L 1145.536364 436.76747 
L 1148.072727 423.27592 
L 1150.609091 414.24729 
L 1153.145455 396.41294 
L 1155.681818 372.90523 
L 1158.218182 384.019801 
L 1160.754545 375.647211 
L 1163.290909 360.224501 
L 1165.827273 350.974111 
L 1168.363636 348.422721 
L 1170.9 356.303291 
L 1173.436364 336.085022 
L 1175.972727 352.697392 
L 1178.509091 362.804802 
L 1181.045455 383.806172 
L 1183.581818 393.128182 
L 1186.118182 395.381592 
L 1188.654545 394.391763 
L 1191.190909 370.080173 
L 1193.727273 350.046703 
L 1196.263636 347.670873 
L 1198.8 348.325763 
L 1201.336364 357.213493 
L 1203.872727 375.017823 
L 1206.409091 391.094274 
L 1208.945455 408.981764 
L 1211.481818 403.408894 
L 1214.018182 393.262224 
L 1216.554545 387.985034 
L 1219.090909 368.090164 
L 1221.627273 355.263895 
L 1224.163636 359.670225 
L 1226.7 358.458635 
L 1229.236364 349.300645 
L 1231.772727 343.145655 
L 1234.309091 340.363265 
L 1239.381818 335.620846 
L 1241.918182 339.629856 
L 1244.454545 360.760586 
L 1246.990909 370.184236 
L 1249.527273 383.183766 
L 1252.063636 393.189537 
L 1254.6 401.411987 
L 1257.136364 382.367197 
L 1259.672727 381.682287 
L 1262.209091 367.627097 
L 1264.745455 362.239027 
L 1267.281818 366.349678 
L 1269.818182 372.511608 
L 1272.354545 383.709338 
L 1274.890909 376.907548 
L 1277.427273 376.481358 
L 1279.963636 380.342528 
L 1282.5 367.608659 
L 1285.036364 348.563869 
L 1287.572727 346.954959 
L 1290.109091 342.001169 
L 1292.645455 351.757459 
L 1295.181818 343.514229 
L 1300.254545 325.85544 
L 1302.790909 315.45005 
L 1305.327273 323.36758 
L 1307.863636 321.75867 
L 1310.4 315.08624 
L 1312.936364 323.80765 
L 1315.472727 335.689141 
L 1318.009091 346.933071 
L 1320.545455 338.865401 
L 1323.081818 351.134971 
L 1325.618182 358.960101 
L 1328.154545 357.064751 
L 1330.690909 354.125282 
L 1333.227273 349.079092 
L 1335.763636 351.563502 
L 1338.3 342.636512 
L 1340.836364 336.694042 
L 1343.372727 342.477132 
L 1345.909091 342.309663 
L 1348.445455 338.806553 
L 1350.981818 338.130883 
L 1353.518182 329.739813 
L 1356.054545 329.673983 
L 1358.590909 319.739833 
L 1361.127273 315.996484 
L 1363.663636 323.664534 
L 1366.2 321.242504 
L 1368.736364 331.470034 
L 1371.272727 333.039684 
L 1373.809091 323.521334 
L 1376.345455 334.109225 
L 1378.881818 306.046195 
L 1381.418182 295.030965 
L 1383.954545 285.318575 
L 1386.490909 279.551665 
L 1389.027273 274.653315 
L 1391.563636 256.735806 
L 1394.1 263.378216 
L 1396.636364 268.560706 
L 1399.172727 271.969116 
L 1401.709091 278.630006 
L 1404.245455 293.301976 
L 1409.318182 308.907187 
L 1411.854545 322.128477 
L 1414.390909 309.098927 
L 1416.927273 302.352577 
L 1422 261.721997 
L 1424.536364 245.948168 
L 1427.072727 232.761538 
L 1429.609091 242.046588 
L 1432.145455 238.164638 
L 1434.681818 243.208528 
L 1437.218182 260.615538 
L 1439.754545 269.734269 
L 1442.290909 269.890199 
L 1444.827273 271.709329 
L 1447.363636 269.435139 
L 1449.9 284.790869 
L 1452.436364 285.778399 
L 1454.972727 277.16557 
L 1457.509091 281.48874 
L 1460.045455 283.85303 
L 1462.581818 294.97684 
L 1465.118182 287.78697 
L 1467.654545 292.41506 
L 1470.190909 301.367471 
L 1472.727273 316.935721 
L 1475.263636 319.383171 
L 1477.8 314.632661 
L 1480.336364 321.348991 
L 1482.872727 335.900841 
L 1485.409091 348.031812 
L 1487.945455 352.761542 
L 1490.481818 364.134832 
L 1495.554545 361.980762 
L 1498.090909 358.200452 
L 1500.627273 355.242502 
L 1503.163636 361.995793 
L 1505.7 365.589003 
L 1508.236364 374.643053 
L 1510.772727 387.762703 
L 1513.309091 396.049833 
L 1515.845455 383.371403 
L 1518.381818 357.858614 
L 1520.918182 343.683304 
L 1525.990909 321.597404 
L 1528.527273 317.290414 
L 1531.063636 326.307504 
L 1533.6 342.005115 
L 1536.136364 338.381885 
L 1538.672727 313.368055 
L 1541.209091 323.392305 
L 1543.745455 319.168475 
L 1546.281818 304.411045 
L 1548.818182 296.546656 
L 1551.354545 293.126706 
L 1553.890909 313.093196 
L 1556.427273 299.278246 
L 1558.963636 290.905656 
L 1561.5 294.508106 
L 1564.036364 296.512037 
L 1566.572727 305.381287 
L 1569.109091 299.974737 
L 1571.645455 301.747667 
L 1574.181818 310.127197 
L 1576.718182 302.918847 
L 1579.254545 306.087018 
L 1581.790909 313.403948 
L 1584.327273 322.883038 
L 1586.863636 340.715088 
L 1589.4 350.443658 
L 1591.936364 373.847428 
L 1594.472727 383.317279 
L 1597.009091 378.843969 
L 1599.545455 373.779299 
L 1602.081818 360.186109 
L 1604.618182 349.087719 
L 1607.154545 323.075969 
L 1609.690909 313.6223 
L 1612.227273 319.12819 
L 1614.763636 328.42248 
L 1619.836364 328.54145 
L 1622.372727 338.17762 
L 1624.909091 358.07943 
L 1627.445455 357.902721 
L 1629.981818 359.943611 
L 1632.518182 347.228221 
L 1635.054545 349.315311 
L 1637.590909 346.726961 
L 1640.127273 339.093571 
L 1642.663636 330.979702 
L 1645.2 310.539672 
L 1647.736364 299.515202 
L 1650.272727 292.131292 
L 1652.809091 293.839542 
L 1655.345455 297.589832 
L 1657.881818 311.596522 
L 1660.418182 324.512893 
L 1662.954545 355.973943 
L 1665.490909 375.487673 
L 1668.027273 361.885243 
L 1670.563636 352.939773 
L 1673.1 337.406183 
L 1675.636364 328.747154 
L 1678.172727 304.075204 
L 1680.709091 289.169934 
L 1683.245455 290.074304 
L 1685.781818 281.322874 
L 1688.318182 281.377164 
L 1690.854545 295.430055 
L 1693.390909 307.810505 
L 1695.927273 321.826435 
L 1698.463636 337.801245 
L 1701 352.436255 
L 1703.536364 359.374345 
L 1706.072727 358.523116 
L 1708.609091 361.682046 
L 1711.145455 346.037576 
L 1713.681818 328.785346 
L 1716.218182 339.234636 
L 1718.754545 334.114526 
L 1721.290909 335.961377 
L 1726.363636 367.818597 
L 1728.9 384.532607 
L 1731.436364 386.887657 
L 1733.972727 416.399067 
L 1736.509091 428.206638 
L 1739.045455 421.118408 
L 1741.581818 433.369498 
L 1744.118182 433.423788 
L 1746.654545 419.165318 
L 1751.727273 384.309739 
L 1754.263636 374.745189 
L 1756.8 357.058679 
L 1759.336364 374.853769 
L 1761.872727 385.644939 
L 1764.409091 394.412549 
L 1766.945455 418.40768 
L 1769.481818 425.12401 
L 1772.018182 435.26838 
L 1774.554545 422.19263 
L 1782.163636 405.98452 
L 1784.7 402.65697 
L 1787.236364 387.613101 
L 1789.772727 386.484671 
L 1792.309091 384.801841 
L 1794.845455 393.338451 
L 1797.381818 402.466421 
L 1799.918182 409.727911 
L 1802.454545 404.349082 
L 1804.990909 403.174452 
L 1807.527273 402.332462 
L 1810.063636 400.400152 
L 1812.6 408.040482 
L 1815.136364 386.981372 
L 1817.672727 402.189263 
L 1820.209091 414.754513 
L 1822.745455 419.253243 
L 1825.281818 403.248413 
L 1827.818182 410.121823 
L 1830.354545 422.040273 
L 1832.890909 422.325564 
L 1835.427273 412.021814 
L 1837.963636 431.193664 
L 1840.5 456.704154 
L 1843.036364 462.367124 
L 1845.572727 470.552614 
L 1848.109091 458.345425 
L 1850.645455 457.170795 
L 1855.718182 413.186095 
L 1858.254545 401.145225 
L 1860.790909 392.403035 
L 1863.327273 382.986326 
L 1865.863636 380.037616 
L 1868.4 385.876146 
L 1870.936364 408.171116 
L 1873.472727 411.579526 
L 1876.009091 429.328416 
L 1878.545455 454.238307 
L 1883.618182 446.899447 
L 1888.690909 468.712787 
L 1891.227273 467.140837 
L 1893.763636 460.089568 
L 1896.3 473.107578 
L 1898.836364 468.495668 
L 1901.372727 445.329838 
L 1903.909091 435.543528 
L 1906.445455 433.906898 
L 1908.981818 433.406789 
L 1911.518182 413.040679 
L 1914.054545 395.428089 
L 1916.590909 395.888939 
L 1919.127273 389.022469 
L 1921.663636 391.876479 
L 1924.2 408.55353 
L 1926.736364 429.85982 
L 1929.272727 443.71867 
L 1931.809091 445.13124 
L 1934.345455 440.70413 
L 1936.881818 449.00974 
L 1939.418182 452.981791 
L 1941.954545 426.711321 
L 1944.490909 451.685891 
L 1947.027273 440.254861 
L 1949.563636 440.955951 
L 1952.1 421.319801 
L 1954.636364 413.908172 
L 1957.172727 428.533942 
L 1959.709091 423.053472 
L 1962.245455 429.889922 
L 1964.781818 440.126692 
L 1967.318182 460.453542 
L 1969.854545 439.200393 
L 1972.390909 449.926883 
L 1974.927273 457.031293 
L 1977.463636 463.008423 
L 1980 461.547353 
L 1982.536364 448.277563 
L 1985.072727 456.573934 
L 1987.609091 453.246384 
L 1990.145455 426.652514 
L 1992.681818 421.319884 
L 1995.218182 429.884214 
L 1997.754545 429.883064 
L 2000.290909 437.680475 
L 2005.363636 450.833813 
L 2007.9 456.604392 
L 2010.436364 454.61337 
L 2012.972727 457.297789 
L 2015.509091 458.088007 
L 2018.045455 438.236066 
L 2020.581818 423.515596 
L 2023.118182 435.147606 
L 2025.654545 428.826296 
L 2028.190909 403.230346 
L 2030.727273 389.563237 
L 2033.263636 389.709927 
L 2035.8 409.565537 
L 2038.336364 401.581027 
L 2040.872727 404.906277 
L 2043.409091 418.395527 
L 2045.945455 425.305898 
L 2048.481818 431.070508 
L 2051.018182 412.358358 
L 2053.554545 402.664448 
L 2056.090909 401.037058 
L 2058.627273 401.091348 
L 2061.163636 399.879759 
L 2063.7 395.933129 
L 2066.236364 400.570459 
L 2068.772727 408.275469 
L 2071.309091 426.172199 
L 2073.845455 430.366009 
L 2076.381818 426.8629 
L 2078.918182 431.86983 
L 2081.454545 422.333 
L 2083.990909 418.28473 
L 2086.527273 389.72274 
L 2089.063636 374.25383 
L 2091.6 374.409761 
L 2094.136364 390.837331 
L 2096.672727 404.354301 
L 2099.209091 420.366071 
L 2106.818182 456.612291 
L 2109.354545 462.210582 
L 2111.890909 445.974752 
L 2114.427273 437.121682 
L 2116.963636 411.451812 
L 2119.5 406.534982 
L 2124.572727 406.696881 
L 2127.109091 418.926219 
L 2129.645455 430.508758 
L 2132.181818 427.870936 
L 2134.718182 427.598555 
L 2137.254545 422.133293 
L 2139.790909 424.183423 
L 2142.327273 395.889394 
L 2144.863636 379.431804 
L 2147.4 376.076534 
L 2149.936364 386.516584 
L 2152.472727 381.886194 
L 2155.009091 370.935644 
L 2157.545455 370.472495 
L 2160.081818 352.481065 
L 2162.618182 352.064115 
L 2165.154545 354.326765 
L 2167.690909 353.244535 
L 2170.227273 361.596345 
L 2172.763636 375.335076 
L 2175.3 400.559126 
L 2177.836364 400.650376 
L 2180.372727 399.983946 
L 2182.909091 401.581316 
L 2185.445455 402.421006 
L 2187.981818 401.505097 
L 2190.518182 397.438347 
L 2193.054545 398.250317 
L 2195.590909 388.842847 
L 2198.127273 380.470257 
L 2200.663636 377.105747 
L 2203.2 366.672638 
L 2205.736364 347.766448 
L 2210.809091 354.583268 
L 2213.345455 360.486478 
L 2215.881818 341.284608 
L 2218.418182 346.060539 
L 2220.954545 358.062149 
L 2223.490909 340.745239 
L 2226.027273 341.252289 
L 2228.563636 353.762099 
L 2231.1 367.316029 
L 2233.636364 373.04368 
L 2238.709091 378.47565 
L 2241.245455 398.41442 
L 2243.781818 406.17487 
L 2246.318182 402.5424 
L 2248.854545 407.99285 
L 2251.390909 399.130541 
L 2253.927273 396.967231 
L 2256.463636 383.494161 
L 2259 398.508011 
L 2261.536364 405.621661 
L 2266.609091 432.165882 
L 2269.145455 443.400572 
L 2271.681818 443.916862 
L 2274.218182 440.469192 
L 2276.754545 451.140242 
L 2279.290909 445.133092 
L 2281.827273 445.963543 
L 2284.363636 451.182993 
L 2286.9 464.644523 
L 2289.436364 454.035853 
L 2291.972727 431.646183 
L 2294.509091 426.295073 
L 2299.581818 417.756164 
L 2302.118182 392.187934 
L 2304.654545 390.680664 
L 2307.190909 397.498634 
L 2309.727273 403.115404 
L 2312.263636 393.135054 
L 2314.8 379.255425 
L 2317.336364 399.868715 
L 2319.872727 407.241085 
L 2322.409091 398.554335 
L 2324.945455 406.074545 
L 2327.481818 431.086075 
L 2330.018182 473.773726 
L 2332.554545 486.329736 
L 2335.090909 483.528866 
L 2337.627273 471.857596 
L 2340.163636 463.429566 
L 2342.7 442.241096 
L 2345.236364 404.688587 
L 2347.772727 379.323637 
L 2350.309091 362.265447 
L 2352.845455 368.140937 
L 2355.381818 344.226667 
L 2357.918182 345.010917 
L 2362.990909 313.407818 
L 2365.527273 306.901708 
L 2368.063636 295.110318 
L 2370.6 310.863368 
L 2373.136364 293.315458 
L 2375.672727 310.999669 
L 2378.209091 321.273399 
L 2380.745455 321.401609 
L 2383.281818 332.802619 
L 2385.818182 327.904269 
L 2388.354545 324.401159 
L 2390.890909 333.93569 
L 2393.427273 346.70422 
L 2395.963636 344.53167 
L 2398.5 335.60468 
L 2401.036364 336.21337 
L 2403.572727 354.27642 
L 2406.109091 334.242951 
L 2408.645455 329.954441 
L 2411.181818 341.549491 
L 2413.718182 340.116141 
L 2416.254545 348.800591 
L 2418.790909 360.340201 
L 2421.327273 374.901292 
L 2423.863636 371.398182 
L 2426.4 381.902912 
L 2428.936364 395.817202 
L 2431.472727 383.563812 
L 2434.009091 373.934582 
L 2436.545455 372.602873 
L 2439.081818 355.905043 
L 2441.618182 344.122893 
L 2444.154545 327.720743 
L 2446.690909 336.784033 
L 2449.227273 334.121763 
L 2451.763636 340.588614 
L 2454.3 374.720024 
L 2459.372727 394.489202 
L 2461.909091 421.890621 
L 2466.981818 439.622578 
L 2469.518182 434.739436 
L 2472.054545 432.526655 
L 2474.590909 420.559705 
L 2477.127273 418.387155 
L 2479.663636 419.356205 
L 2482.2 431.847536 
L 2484.736364 454.493626 
L 2487.272727 466.513716 
L 2489.809091 468.332846 
L 2492.345455 467.527816 
L 2494.881818 469.577946 
L 2497.418182 456.104877 
L 2499.954545 438.270527 
L 2502.490909 406.345177 
L 2505.027273 400.938627 
L 2507.563636 378.271757 
L 2510.1 365.667247 
L 2512.636364 352.378978 
L 2515.172727 346.584348 
L 2517.709091 339.034118 
L 2520.245455 333.978688 
L 2522.781818 346.423818 
L 2525.318182 351.597068 
L 2527.854545 365.280359 
L 2530.390909 361.869649 
L 2532.927273 365.656899 
L 2535.463636 374.147309 
L 2538 376.798039 
L 2540.536364 378.423129 
L 2543.072727 382.31202 
L 2545.609091 392.48411 
L 2548.145455 408.34804 
L 2550.681818 392.77749 
L 2553.218182 394.97546 
L 2555.754545 397.56151 
L 2558.290909 378.756961 
L 2560.827273 384.050331 
L 2563.363636 374.439581 
L 2568.436364 386.447159 
L 2570.972727 376.685298 
L 2576.045455 395.914135 
L 2578.581818 388.619353 
L 2583.654545 399.516982 
L 2586.190909 410.049432 
L 2588.727273 393.268442 
L 2591.263636 392.186213 
L 2593.8 387.287863 
L 2596.336364 387.868833 
L 2598.872727 399.824243 
L 2601.409091 407.011813 
L 2603.945455 406.095903 
L 2606.481818 402.740634 
L 2609.018182 412.533884 
L 2611.554545 417.633214 
L 2616.627273 414.006713 
L 2619.163636 405.298211 
L 2621.7 427.09095 
L 2624.236364 438.645768 
L 2626.772727 425.520547 
L 2629.309091 421.533685 
L 2631.845455 409.612935 
L 2634.381818 410.018345 
L 2636.918182 391.241516 
L 2639.454545 387.359566 
L 2641.990909 388.236216 
L 2644.527273 386.451746 
L 2647.063636 376.129516 
L 2649.6 368.810286 
L 2652.136364 356.667777 
L 2654.672727 352.305347 
L 2657.209091 359.114077 
L 2659.745455 349.466367 
L 2662.281818 355.055417 
L 2664.818182 343.421107 
L 2667.354545 335.381158 
L 2669.890909 338.715648 
L 2672.427273 336.672458 
L 2674.963636 338.121988 
L 2677.5 340.440078 
L 2680.036364 355.158248 
L 2682.572727 374.662739 
L 2685.109091 377.017789 
L 2687.645455 381.377919 
L 2690.181818 390.727649 
L 2692.718182 395.919379 
L 2695.254545 404.354349 
L 2697.790909 403.25364 
L 2700.327273 397.67153 
L 2702.863636 403.90738 
L 2705.4 417.56295 
L 2707.936364 430.46084 
L 2710.472727 441.55693 
L 2713.009091 453.983581 
L 2715.545455 480.020751 
L 2718.081818 463.618601 
L 2720.618182 460.207891 
L 2723.154545 462.387381 
L 2725.690909 468.244391 
L 2728.227273 459.132602 
L 2730.763636 446.066092 
L 2733.3 462.050142 
L 2735.836364 465.199832 
L 2738.372727 470.197522 
L 2740.909091 455.070492 
L 2743.445455 453.276783 
L 2745.981818 436.791473 
L 2748.518182 423.937483 
L 2751.054545 419.676693 
L 2753.590909 409.474583 
L 2756.127273 410.480593 
L 2758.663636 424.320964 
L 2761.2 453.758454 
L 2763.736364 466.517744 
L 2766.272727 485.569474 
L 2768.809091 497.173764 
L 2771.345455 513.527414 
L 2773.881818 517.157585 
L 2776.418182 522.580315 
L 2778.954545 530.544045 
L 2781.490909 522.809015 
L 2784.027273 515.563705 
L 2786.563636 500.769315 
L 2789.1 512.613846 
L 2791.636364 500.425136 
L 2794.172727 498.770026 
L 2796.709091 471.455436 
L 2799.245455 465.050966 
L 2801.781818 456.622936 
L 2804.318182 449.442307 
L 2806.854545 459.106197 
L 2809.390909 455.871047 
L 2811.927273 465.488737 
L 2814.463636 477.425667 
L 2817 500.700077 
L 2819.536364 482.662448 
L 2822.072727 473.014738 
L 2824.609091 482.068788 
L 2827.145455 496.657598 
L 2832.218182 484.992297 
L 2834.754545 477.475755 
L 2837.290909 493.502734 
L 2839.827273 475.452592 
L 2842.363636 467.612651 
L 2844.9 465.344429 
L 2847.436364 472.162399 
L 2849.972727 476.07901 
L 2852.509091 475.0245 
L 2855.045455 483.82907 
L 2857.581818 482.89468 
L 2860.118182 494.10165 
L 2862.654545 489.12938 
L 2865.190909 491.789351 
L 2867.727273 489.857041 
L 2872.8 498.510499 
L 2875.336364 505.731758 
L 2877.872727 497.716256 
L 2880.409091 513.188835 
L 2885.481818 510.011822 
L 2890.554545 512.079857 
L 2895.627273 514.517492 
L 2898.163636 522.018647 
L 2900.7 524.225283 
L 2905.772727 522.483166 
L 2913.381818 508.226818 
L 2915.918182 497.873022 
L 2918.454545 504.440937 
L 2920.990909 495.818292 
L 2923.527273 488.747968 
L 2926.063636 465.289155 
L 2931.136364 505.637935 
L 2933.672727 506.847225 
L 2936.209091 511.087235 
L 2938.745455 500.672605 
L 2941.281818 498.777256 
L 2943.818182 477.995346 
L 2946.354545 465.307676 
L 2948.890909 455.530606 
L 2951.427273 448.590216 
L 2953.963636 465.248786 
L 2956.5 467.354357 
L 2959.036364 467.796727 
L 2961.572727 469.634337 
L 2964.109091 472.931867 
L 2966.645455 461.962837 
L 2969.181818 439.499247 
L 2971.718182 444.275178 
L 2974.254545 451.850828 
L 2976.790909 426.448918 
L 2979.327273 404.197848 
L 2981.863636 400.648538 
L 2984.4 397.376428 
L 2986.936364 391.729639 
L 2989.472727 375.928089 
L 2992.009091 378.264659 
L 2994.545455 381.728509 
L 2997.081818 385.755999 
L 2999.618182 397.471169 
L 3002.154545 414.10202 
L 3004.690909 422.58319 
L 3007.227273 446.97564 
L 3009.763636 444.00845 
L 3012.3 441.27226 
L 3014.836364 438.86871 
L 3017.372727 424.711881 
L 3019.909091 430.984691 
L 3022.445455 416.365861 
L 3024.981818 417.658311 
L 3027.518182 414.469361 
L 3030.054545 407.297971 
L 3032.590909 401.872942 
L 3035.127273 390.183192 
L 3037.663636 379.158722 
L 3040.2 383.509612 
L 3042.736364 382.963302 
L 3045.272727 397.949432 
L 3047.809091 411.531082 
L 3050.345455 409.146013 
L 3052.881818 419.428983 
L 3055.418182 428.584673 
L 3057.954545 440.318323 
L 3060.490909 446.323173 
L 3063.027273 448.899983 
L 3065.563636 452.299154 
L 3068.1 452.695324 
L 3070.636364 447.492054 
L 3073.172727 430.341464 
L 3075.709091 430.404994 
L 3078.245455 426.504564 
L 3080.781818 411.432975 
L 3083.318182 422.741585 
L 3085.854545 415.727275 
L 3088.390909 425.428125 
L 3090.927273 395.433935 
L 3093.463636 373.386145 
L 3096 370.520596 
L 3098.536364 349.017966 
L 3101.072727 348.129776 
L 3103.609091 329.981266 
L 3106.145455 327.051036 
L 3108.681818 330.681206 
L 3111.218182 331.086617 
L 3113.754545 336.666427 
L 3116.290909 325.466397 
L 3118.827273 339.085007 
L 3121.363636 347.242777 
L 3123.9 350.447907 
L 3126.436364 364.888878 
L 3128.972727 365.885648 
L 3131.509091 401.597098 
L 3134.045455 407.722068 
L 3136.581818 422.966918 
L 3139.118182 424.933888 
L 3141.654545 416.321059 
L 3144.190909 405.398229 
L 3146.727273 377.261279 
L 3149.263636 370.810609 
L 3151.8 357.642459 
L 3154.336364 347.791469 
L 3156.872727 356.402 
L 3159.409091 371.86861 
L 3164.481818 360.93539 
L 3167.018182 365.76676 
L 3169.554545 386.26917 
L 3172.090909 379.855461 
L 3174.627273 380.334791 
L 3179.7 423.566451 
L 3182.236364 428.360861 
L 3184.772727 422.686351 
L 3187.309091 441.562522 
L 3189.845455 440.184612 
L 3192.381818 427.164302 
L 3194.918182 407.010712 
L 3197.454545 405.521922 
L 3199.990909 398.147252 
L 3202.527273 412.412663 
L 3205.063636 407.089273 
L 3207.6 421.022043 
L 3210.136364 430.704413 
L 3212.672727 436.034743 
L 3215.209091 447.186273 
L 3217.745455 414.780444 
L 3220.281818 408.080294 
L 3222.818182 418.021384 
L 3227.890909 415.699844 
L 3230.427273 431.443654 
L 3232.963636 457.554745 
L 3238.036364 491.636683 
L 3240.572727 480.581222 
L 3248.181818 509.450075 
L 3253.254545 477.445809 
L 3255.790909 475.316188 
L 3258.327273 485.318686 
L 3260.863636 484.254936 
L 3265.936364 476.960155 
L 3268.472727 476.318173 
L 3271.009091 477.773672 
L 3273.545455 469.296171 
L 3276.081818 456.642189 
L 3286.227273 434.338376 
L 3288.763636 436.523834 
L 3291.3 443.874453 
L 3293.836364 440.525152 
L 3296.372727 431.44705 
L 3298.909091 428.264069 
L 3301.445455 434.416759 
L 3303.981818 445.134009 
L 3306.518182 452.256899 
L 3311.590909 431.436879 
L 3314.127273 432.15645 
L 3319.2 452.516988 
L 3321.736364 449.352487 
L 3324.272727 449.551345 
L 3326.809091 466.816484 
L 3329.345455 469.122062 
L 3331.881818 464.192721 
L 3334.418182 439.502291 
L 3336.954545 430.196461 
L 3339.490909 432.551511 
L 3342.027273 433.511321 
L 3344.563636 444.394892 
L 3347.1 457.505302 
L 3349.636364 484.281672 
L 3352.172727 500.210282 
L 3354.709091 485.092492 
L 3357.245455 493.342662 
L 3359.781818 511.608993 
L 3362.318182 520.903283 
L 3364.854545 515.441293 
L 3367.390909 494.031063 
L 3369.927273 495.138713 
L 3377.536364 502.55998 
L 3382.609091 497.282215 
L 3385.145455 498.860531 
L 3387.681818 502.379246 
L 3397.827273 512.152866 
L 3400.363636 511.254287 
L 3402.9 505.57593 
L 3410.509091 511.333422 
L 3413.045455 508.802634 
L 3420.654545 513.038223 
L 3423.190909 516.442786 
L 3425.727273 518.26731 
L 3443.481818 524.572084 
L 3458.7 520.897083 
L 3466.309091 507.633658 
L 3471.381818 497.237905 
L 3473.918182 505.978193 
L 3476.454545 507.00308 
L 3484.063636 502.709574 
L 3486.6 504.438426 
L 3491.672727 521.952469 
L 3494.209091 521.812144 
L 3499.281818 506.173068 
L 3501.818182 518.106152 
L 3504.354545 524.141419 
L 3506.890909 519.042485 
L 3509.427273 509.271384 
L 3514.5 513.366251 
L 3517.036364 530.224829 
L 3522.109091 523.896976 
L 3524.645455 516.663603 
L 3529.718182 510.341718 
L 3532.254545 514.775194 
L 3534.790909 519.701661 
L 3544.936364 510.536553 
L 3547.472727 514.828156 
L 3550.009091 519.80352 
L 3552.545455 526.251315 
L 3555.081818 531.72891 
L 3560.154545 520.848434 
L 3567.763636 523.686661 
L 3570.3 505.836528 
L 3572.836364 484.050155 
L 3575.372727 475.467741 
L 3577.909091 460.814648 
L 3580.445455 458.407827 
L 3582.981818 446.025077 
L 3585.518182 453.037087 
L 3588.054545 466.461657 
L 3590.590909 463.050947 
L 3593.127273 461.257238 
L 3595.663636 470.098768 
L 3598.2 470.568858 
L 3603.272727 473.179356 
L 3605.809091 473.526055 
L 3608.345455 465.501314 
L 3610.881818 462.410732 
L 3613.418182 457.758591 
L 3615.954545 436.289649 
L 3618.490909 430.513499 
L 3621.027273 418.509589 
L 3623.563636 420.2086 
L 3626.1 423.31209 
L 3628.636364 430.0469 
L 3631.172727 458.76367 
L 3633.709091 456.95148 
L 3636.245455 460.98821 
L 3638.781818 482.359181 
L 3641.318182 490.045711 
L 3643.854545 489.647241 
L 3646.390909 472.579811 
L 3648.927273 480.220141 
L 3651.463636 478.278591 
L 3654 470.811522 
L 3656.536364 466.578452 
L 3659.072727 459.028222 
L 3664.145455 485.43172 
L 3666.681818 493.974299 
L 3669.218182 496.095078 
L 3671.754545 480.253296 
L 3674.290909 470.740915 
L 3676.827273 470.431573 
L 3679.363636 457.725423 
L 3681.9 454.259273 
L 3689.509091 459.882012 
L 3692.045455 473.56203 
L 3694.581818 465.297049 
L 3702.190909 446.332148 
L 3704.727273 437.549726 
L 3707.263636 427.085625 
L 3709.8 423.887435 
L 3712.336364 428.580205 
L 3714.872727 437.523375 
L 3717.409091 428.975225 
L 3719.945455 425.167195 
L 3722.481818 430.275766 
L 3725.018182 413.337696 
L 3727.554545 416.163986 
L 3730.090909 424.109236 
L 3732.627273 444.602406 
L 3737.7 471.116785 
L 3740.236364 473.357683 
L 3745.309091 501.13467 
L 3747.845455 499.482257 
L 3750.381818 506.062684 
L 3752.918182 521.726031 
L 3760.527273 521.136218 
L 3765.6 506.609213 
L 3773.209091 507.454297 
L 3778.281818 515.087509 
L 3780.818182 520.429201 
L 3785.890909 510.614021 
L 3788.427273 504.110033 
L 3798.572727 527.010422 
L 3801.109091 500.058314 
L 3811.254545 478.699102 
L 3813.790909 459.751531 
L 3816.327273 455.877671 
L 3818.863636 453.010972 
L 3823.936364 434.692295 
L 3826.472727 452.908579 
L 3831.545455 460.329846 
L 3834.081818 472.491233 
L 3836.618182 488.099139 
L 3839.154545 470.045726 
L 3841.690909 487.745145 
L 3851.836364 485.373559 
L 3854.372727 483.314586 
L 3856.909091 463.228372 
L 3859.445455 452.825679 
L 3864.518182 454.684466 
L 3869.590909 453.672885 
L 3877.2 469.296575 
L 3884.809091 466.529393 
L 3887.345455 448.442292 
L 3889.881818 461.60487 
L 3902.563636 427.664626 
L 3922.854545 413.630038 
L 3925.390909 408.97405 
L 3927.927273 421.646333 
L 3940.609091 452.040937 
L 3953.290909 464.3159 
L 3955.827273 476.227807 
L 3958.363636 470.313058 
L 3960.9 448.949028 
L 3963.436364 451.377998 
L 3973.581818 452.048096 
L 3976.118182 435.005115 
L 3978.654545 444.998373 
L 3981.190909 444.559672 
L 3983.727273 453.39793 
L 3986.263636 425.377829 
L 3988.8 431.133199 
L 3991.336364 431.446209 
L 3993.872727 418.27806 
L 3996.409091 427.15655 
L 3998.945455 432.34828 
L 4001.481818 436.67145 
L 4004.018182 387.6059 
L 4006.554545 388.69507 
L 4009.090909 385.164241 
L 4011.627273 381.365451 
L 4014.163636 352.655621 
L 4016.7 352.044631 
L 4019.236364 371.105601 
L 4029.381818 357.346091 
L 4034.454545 342.163621 
L 4057.281818 348.103792 
L 4059.818182 341.745522 
L 4062.354545 328.355612 
L 4064.890909 311.990422 
L 4067.427273 312.026232 
L 4069.963636 323.464202 
L 4092.790909 305.813503 
L 4095.327273 292.109433 
L 4097.863636 286.869203 
L 4100.4 264.590413 
L 4105.472727 247.787672 
L 4108.009091 234.76409 
L 4110.545455 239.231829 
L 4113.081818 272.288127 
L 4115.618182 279.149026 
L 4118.154545 317.675404 
L 4120.690909 337.632655 
L 4123.227273 345.587145 
L 4125.763636 361.922315 
L 4128.3 359.121445 
L 4130.836364 373.359135 
L 4133.372727 360.477425 
L 4135.909091 354.886076 
L 4138.445455 366.231646 
L 4140.981818 366.729456 
L 4143.518182 361.886546 
L 4146.054545 370.266076 
L 4148.590909 399.213846 
L 4151.127273 396.523857 
L 4153.663636 384.917267 
L 4158.736364 384.491077 
L 4161.272727 382.429407 
L 4163.809091 367.930697 
L 4166.345455 333.251827 
L 4168.881818 326.764198 
L 4171.418182 311.396928 
L 4173.954545 301.582898 
L 4176.490909 300.334348 
L 4179.027273 301.081638 
L 4181.563636 330.001688 
L 4186.636364 368.021989 
L 4189.172727 390.963759 
L 4191.709091 372.750569 
L 4194.245455 369.459979 
L 4196.781818 357.788709 
L 4199.318182 352.00332 
L 4201.854545 362.29553 
L 4204.390909 325.01098 
L 4206.927273 331.38543 
L 4209.463636 322.97588 
L 4212 331.51249 
L 4214.536364 312.800341 
L 4214.536364 312.800341 
" clip-path="url(#p6a9abc1906)" style="fill: none; stroke: #ff8c00; stroke-width: 2.5; stroke-linecap: square"/>
   </g>
   <g id="patch_3">
    <path d="M 585 640.8 
L 585 86.4 
" style="fill: none; stroke: #000000; stroke-width: 0.8; stroke-linejoin: miter; stroke-linecap: square"/>
   </g>
   <g id="patch_4">
    <path d="M 4212 640.8 
L 4212 86.4 
" style="fill: none; stroke: #000000; stroke-width: 0.8; stroke-linejoin: miter; stroke-linecap: square"/>
   </g>
   <g id="patch_5">
    <path d="M 585 640.8 
L 4212 640.8 
" style="fill: none; stroke: #000000; stroke-width: 0.8; stroke-linejoin: miter; stroke-linecap: square"/>
   </g>
   <g id="patch_6">
    <path d="M 585 86.4 
L 4212 86.4 
" style="fill: none; stroke: #000000; stroke-width: 0.8; stroke-linejoin: miter; stroke-linecap: square"/>
   </g>
   <g id="text_13">
    <!-- Rolling Mean (w = 6) - East(m) -->
    <g transform="translate(2206.744141 80.4) scale(0.25 -0.25)">
     <defs>
      <path id="DejaVuSans-52" d="M 2841 2188 
Q 3044 2119 3236 1894 
Q 3428 1669 3622 1275 
L 4263 0 
L 3584 0 
L 2988 1197 
Q 2756 1666 2539 1819 
Q 2322 1972 1947 1972 
L 1259 1972 
L 1259 0 
L 628 0 
L 628 4666 
L 2053 4666 
Q 2853 4666 3247 4331 
Q 3641 3997 3641 3322 
Q 3641 2881 3436 2590 
Q 3231 2300 2841 2188 
z
M 1259 4147 
L 1259 2491 
L 2053 2491 
Q 2509 2491 2742 2702 
Q 2975 2913 2975 3322 
Q 2975 3731 2742 3939 
Q 2509 4147 2053 4147 
L 1259 4147 
z
" transform="scale(0.015625)"/>
      <path id="DejaVuSans-6f" d="M 1959 3097 
Q 1497 3097 1228 2736 
Q 959 2375 959 1747 
Q 959 1119 1226 758 
Q 1494 397 1959 397 
Q 2419 397 2687 759 
Q 2956 1122 2956 1747 
Q 2956 2369 2687 2733 
Q 2419 3097 1959 3097 
z
M 1959 3584 
Q 2709 3584 3137 3096 
Q 3566 2609 3566 1747 
Q 3566 888 3137 398 
Q 2709 -91 1959 -91 
Q 1206 -91 779 398 
Q 353 888 353 1747 
Q 353 2609 779 3096 
Q 1206 3584 1959 3584 
z
" transform="scale(0.015625)"/>
      <path id="DejaVuSans-6c" d="M 603 4863 
L 1178 4863 
L 1178 0 
L 603 0 
L 603 4863 
z
" transform="scale(0.015625)"/>
      <path id="DejaVuSans-69" d="M 603 3500 
L 1178 3500 
L 1178 0 
L 603 0 
L 603 3500 
z
M 603 4863 
L 1178 4863 
L 1178 4134 
L 603 4134 
L 603 4863 
z
" transform="scale(0.015625)"/>
      <path id="DejaVuSans-6e" d="M 3513 2113 
L 3513 0 
L 2938 0 
L 2938 2094 
Q 2938 2591 2744 2837 
Q 2550 3084 2163 3084 
Q 1697 3084 1428 2787 
Q 1159 2491 1159 1978 
L 1159 0 
L 581 0 
L 581 3500 
L 1159 3500 
L 1159 2956 
Q 1366 3272 1645 3428 
Q 1925 3584 2291 3584 
Q 2894 3584 3203 3211 
Q 3513 2838 3513 2113 
z
" transform="scale(0.015625)"/>
      <path id="DejaVuSans-67" d="M 2906 1791 
Q 2906 2416 2648 2759 
Q 2391 3103 1925 3103 
Q 1463 3103 1205 2759 
Q 947 2416 947 1791 
Q 947 1169 1205 825 
Q 1463 481 1925 481 
Q 2391 481 2648 825 
Q 2906 1169 2906 1791 
z
M 3481 434 
Q 3481 -459 3084 -895 
Q 2688 -1331 1869 -1331 
Q 1566 -1331 1297 -1286 
Q 1028 -1241 775 -1147 
L 775 -588 
Q 1028 -725 1275 -790 
Q 1522 -856 1778 -856 
Q 2344 -856 2625 -561 
Q 2906 -266 2906 331 
L 2906 616 
Q 2728 306 2450 153 
Q 2172 0 1784 0 
Q 1141 0 747 490 
Q 353 981 353 1791 
Q 353 2603 747 3093 
Q 1141 3584 1784 3584 
Q 2172 3584 2450 3431 
Q 2728 3278 2906 2969 
L 2906 3500 
L 3481 3500 
L 3481 434 
z
" transform="scale(0.015625)"/>
      <path id="DejaVuSans-20" transform="scale(0.015625)"/>
      <path id="DejaVuSans-4d" d="M 628 4666 
L 1569 4666 
L 2759 1491 
L 3956 4666 
L 4897 4666 
L 4897 0 
L 4281 0 
L 4281 4097 
L 3078 897 
L 2444 897 
L 1241 4097 
L 1241 0 
L 628 0 
L 628 4666 
z
" transform="scale(0.015625)"/>
      <path id="DejaVuSans-65" d="M 3597 1894 
L 3597 1613 
L 953 1613 
Q 991 1019 1311 708 
Q 1631 397 2203 397 
Q 2534 397 2845 478 
Q 3156 559 3463 722 
L 3463 178 
Q 3153 47 2828 -22 
Q 2503 -91 2169 -91 
Q 1331 -91 842 396 
Q 353 884 353 1716 
Q 353 2575 817 3079 
Q 1281 3584 2069 3584 
Q 2775 3584 3186 3129 
Q 3597 2675 3597 1894 
z
M 3022 2063 
Q 3016 2534 2758 2815 
Q 2500 3097 2075 3097 
Q 1594 3097 1305 2825 
Q 1016 2553 972 2059 
L 3022 2063 
z
" transform="scale(0.015625)"/>
      <path id="DejaVuSans-61" d="M 2194 1759 
Q 1497 1759 1228 1600 
Q 959 1441 959 1056 
Q 959 750 1161 570 
Q 1363 391 1709 391 
Q 2188 391 2477 730 
Q 2766 1069 2766 1631 
L 2766 1759 
L 2194 1759 
z
M 3341 1997 
L 3341 0 
L 2766 0 
L 2766 531 
Q 2569 213 2275 61 
Q 1981 -91 1556 -91 
Q 1019 -91 701 211 
Q 384 513 384 1019 
Q 384 1609 779 1909 
Q 1175 2209 1959 2209 
L 2766 2209 
L 2766 2266 
Q 2766 2663 2505 2880 
Q 2244 3097 1772 3097 
Q 1472 3097 1187 3025 
Q 903 2953 641 2809 
L 641 3341 
Q 956 3463 1253 3523 
Q 1550 3584 1831 3584 
Q 2591 3584 2966 3190 
Q 3341 2797 3341 1997 
z
" transform="scale(0.015625)"/>
      <path id="DejaVuSans-28" d="M 1984 4856 
Q 1566 4138 1362 3434 
Q 1159 2731 1159 2009 
Q 1159 1288 1364 580 
Q 1569 -128 1984 -844 
L 1484 -844 
Q 1016 -109 783 600 
Q 550 1309 550 2009 
Q 550 2706 781 3412 
Q 1013 4119 1484 4856 
L 1984 4856 
z
" transform="scale(0.015625)"/>
      <path id="DejaVuSans-77" d="M 269 3500 
L 844 3500 
L 1563 769 
L 2278 3500 
L 2956 3500 
L 3675 769 
L 4391 3500 
L 4966 3500 
L 4050 0 
L 3372 0 
L 2619 2869 
L 1863 0 
L 1184 0 
L 269 3500 
z
" transform="scale(0.015625)"/>
      <path id="DejaVuSans-3d" d="M 678 2906 
L 4684 2906 
L 4684 2381 
L 678 2381 
L 678 2906 
z
M 678 1631 
L 4684 1631 
L 4684 1100 
L 678 1100 
L 678 1631 
z
" transform="scale(0.015625)"/>
      <path id="DejaVuSans-36" d="M 2113 2584 
Q 1688 2584 1439 2293 
Q 1191 2003 1191 1497 
Q 1191 994 1439 701 
Q 1688 409 2113 409 
Q 2538 409 2786 701 
Q 3034 994 3034 1497 
Q 3034 2003 2786 2293 
Q 2538 2584 2113 2584 
z
M 3366 4563 
L 3366 3988 
Q 3128 4100 2886 4159 
Q 2644 4219 2406 4219 
Q 1781 4219 1451 3797 
Q 1122 3375 1075 2522 
Q 1259 2794 1537 2939 
Q 1816 3084 2150 3084 
Q 2853 3084 3261 2657 
Q 3669 2231 3669 1497 
Q 3669 778 3244 343 
Q 2819 -91 2113 -91 
Q 1303 -91 875 529 
Q 447 1150 447 2328 
Q 447 3434 972 4092 
Q 1497 4750 2381 4750 
Q 2619 4750 2861 4703 
Q 3103 4656 3366 4563 
z
" transform="scale(0.015625)"/>
      <path id="DejaVuSans-29" d="M 513 4856 
L 1013 4856 
Q 1481 4119 1714 3412 
Q 1947 2706 1947 2009 
Q 1947 1309 1714 600 
Q 1481 -109 1013 -844 
L 513 -844 
Q 928 -128 1133 580 
Q 1338 1288 1338 2009 
Q 1338 2731 1133 3434 
Q 928 4138 513 4856 
z
" transform="scale(0.015625)"/>
      <path id="DejaVuSans-45" d="M 628 4666 
L 3578 4666 
L 3578 4134 
L 1259 4134 
L 1259 2753 
L 3481 2753 
L 3481 2222 
L 1259 2222 
L 1259 531 
L 3634 531 
L 3634 0 
L 628 0 
L 628 4666 
z
" transform="scale(0.015625)"/>
      <path id="DejaVuSans-73" d="M 2834 3397 
L 2834 2853 
Q 2591 2978 2328 3040 
Q 2066 3103 1784 3103 
Q 1356 3103 1142 2972 
Q 928 2841 928 2578 
Q 928 2378 1081 2264 
Q 1234 2150 1697 2047 
L 1894 2003 
Q 2506 1872 2764 1633 
Q 3022 1394 3022 966 
Q 3022 478 2636 193 
Q 2250 -91 1575 -91 
Q 1294 -91 989 -36 
Q 684 19 347 128 
L 347 722 
Q 666 556 975 473 
Q 1284 391 1588 391 
Q 1994 391 2212 530 
Q 2431 669 2431 922 
Q 2431 1156 2273 1281 
Q 2116 1406 1581 1522 
L 1381 1569 
Q 847 1681 609 1914 
Q 372 2147 372 2553 
Q 372 3047 722 3315 
Q 1072 3584 1716 3584 
Q 2034 3584 2315 3537 
Q 2597 3491 2834 3397 
z
" transform="scale(0.015625)"/>
      <path id="DejaVuSans-74" d="M 1172 4494 
L 1172 3500 
L 2356 3500 
L 2356 3053 
L 1172 3053 
L 1172 1153 
Q 1172 725 1289 603 
Q 1406 481 1766 481 
L 2356 481 
L 2356 0 
L 1766 0 
Q 1100 0 847 248 
Q 594 497 594 1153 
L 594 3053 
L 172 3053 
L 172 3500 
L 594 3500 
L 594 4494 
L 1172 4494 
z
" transform="scale(0.015625)"/>
      <path id="DejaVuSans-6d" d="M 3328 2828 
Q 3544 3216 3844 3400 
Q 4144 3584 4550 3584 
Q 5097 3584 5394 3201 
Q 5691 2819 5691 2113 
L 5691 0 
L 5113 0 
L 5113 2094 
Q 5113 2597 4934 2840 
Q 4756 3084 4391 3084 
Q 3944 3084 3684 2787 
Q 3425 2491 3425 1978 
L 3425 0 
L 2847 0 
L 2847 2094 
Q 2847 2600 2669 2842 
Q 2491 3084 2119 3084 
Q 1678 3084 1418 2786 
Q 1159 2488 1159 1978 
L 1159 0 
L 581 0 
L 581 3500 
L 1159 3500 
L 1159 2956 
Q 1356 3278 1631 3431 
Q 1906 3584 2284 3584 
Q 2666 3584 2933 3390 
Q 3200 3197 3328 2828 
z
" transform="scale(0.015625)"/>
     </defs>
     <use xlink:href="#DejaVuSans-52"/>
     <use xlink:href="#DejaVuSans-6f" x="64.982422"/>
     <use xlink:href="#DejaVuSans-6c" x="126.164062"/>
     <use xlink:href="#DejaVuSans-6c" x="153.947266"/>
     <use xlink:href="#DejaVuSans-69" x="181.730469"/>
     <use xlink:href="#DejaVuSans-6e" x="209.513672"/>
     <use xlink:href="#DejaVuSans-67" x="272.892578"/>
     <use xlink:href="#DejaVuSans-20" x="336.369141"/>
     <use xlink:href="#DejaVuSans-4d" x="368.15625"/>
     <use xlink:href="#DejaVuSans-65" x="454.435547"/>
     <use xlink:href="#DejaVuSans-61" x="515.958984"/>
     <use xlink:href="#DejaVuSans-6e" x="577.238281"/>
     <use xlink:href="#DejaVuSans-20" x="640.617188"/>
     <use xlink:href="#DejaVuSans-28" x="672.404297"/>
     <use xlink:href="#DejaVuSans-77" x="711.417969"/>
     <use xlink:href="#DejaVuSans-20" x="793.205078"/>
     <use xlink:href="#DejaVuSans-3d" x="824.992188"/>
     <use xlink:href="#DejaVuSans-20" x="908.78125"/>
     <use xlink:href="#DejaVuSans-36" x="940.568359"/>
     <use xlink:href="#DejaVuSans-29" x="1004.191406"/>
     <use xlink:href="#DejaVuSans-20" x="1043.205078"/>
     <use xlink:href="#DejaVuSans-2d" x="1074.992188"/>
     <use xlink:href="#DejaVuSans-20" x="1111.076172"/>
     <use xlink:href="#DejaVuSans-45" x="1142.863281"/>
     <use xlink:href="#DejaVuSans-61" x="1206.046875"/>
     <use xlink:href="#DejaVuSans-73" x="1267.326172"/>
     <use xlink:href="#DejaVuSans-74" x="1319.425781"/>
     <use xlink:href="#DejaVuSans-28" x="1358.634766"/>
     <use xlink:href="#DejaVuSans-6d" x="1397.648438"/>
     <use xlink:href="#DejaVuSans-29" x="1495.060547"/>
    </g>
   </g>
   <g id="legend_1">
    <g id="patch_7">
     <path d="M 4146.671875 123.75625 
L 4205 123.75625 
Q 4207 123.75625 4207 121.75625 
L 4207 93.4 
Q 4207 91.4 4205 91.4 
L 4146.671875 91.4 
Q 4144.671875 91.4 4144.671875 93.4 
L 4144.671875 121.75625 
Q 4144.671875 123.75625 4146.671875 123.75625 
z
" style="fill: #ffffff; opacity: 0.8; stroke: #cccccc; stroke-linejoin: miter"/>
    </g>
    <g id="line2d_15">
     <path d="M 4148.671875 99.498437 
L 4158.671875 99.498437 
L 4168.671875 99.498437 
" style="fill: none; stroke: #00ced1; stroke-width: 2.5; stroke-linecap: square"/>
    </g>
    <g id="text_14">
     <!-- pord -->
     <g transform="translate(4176.671875 102.998437) scale(0.1 -0.1)">
      <defs>
       <path id="DejaVuSans-70" d="M 1159 525 
L 1159 -1331 
L 581 -1331 
L 581 3500 
L 1159 3500 
L 1159 2969 
Q 1341 3281 1617 3432 
Q 1894 3584 2278 3584 
Q 2916 3584 3314 3078 
Q 3713 2572 3713 1747 
Q 3713 922 3314 415 
Q 2916 -91 2278 -91 
Q 1894 -91 1617 61 
Q 1341 213 1159 525 
z
M 3116 1747 
Q 3116 2381 2855 2742 
Q 2594 3103 2138 3103 
Q 1681 3103 1420 2742 
Q 1159 2381 1159 1747 
Q 1159 1113 1420 752 
Q 1681 391 2138 391 
Q 2594 391 2855 752 
Q 3116 1113 3116 1747 
z
" transform="scale(0.015625)"/>
       <path id="DejaVuSans-72" d="M 2631 2963 
Q 2534 3019 2420 3045 
Q 2306 3072 2169 3072 
Q 1681 3072 1420 2755 
Q 1159 2438 1159 1844 
L 1159 0 
L 581 0 
L 581 3500 
L 1159 3500 
L 1159 2956 
Q 1341 3275 1631 3429 
Q 1922 3584 2338 3584 
Q 2397 3584 2469 3576 
Q 2541 3569 2628 3553 
L 2631 2963 
z
" transform="scale(0.015625)"/>
       <path id="DejaVuSans-64" d="M 2906 2969 
L 2906 4863 
L 3481 4863 
L 3481 0 
L 2906 0 
L 2906 525 
Q 2725 213 2448 61 
Q 2172 -91 1784 -91 
Q 1150 -91 751 415 
Q 353 922 353 1747 
Q 353 2572 751 3078 
Q 1150 3584 1784 3584 
Q 2172 3584 2448 3432 
Q 2725 3281 2906 2969 
z
M 947 1747 
Q 947 1113 1208 752 
Q 1469 391 1925 391 
Q 2381 391 2643 752 
Q 2906 1113 2906 1747 
Q 2906 2381 2643 2742 
Q 2381 3103 1925 3103 
Q 1469 3103 1208 2742 
Q 947 2381 947 1747 
z
" transform="scale(0.015625)"/>
      </defs>
      <use xlink:href="#DejaVuSans-70"/>
      <use xlink:href="#DejaVuSans-6f" x="63.476562"/>
      <use xlink:href="#DejaVuSans-72" x="124.658203"/>
      <use xlink:href="#DejaVuSans-64" x="164.021484"/>
     </g>
    </g>
    <g id="line2d_16">
     <path d="M 4148.671875 114.176562 
L 4158.671875 114.176562 
L 4168.671875 114.176562 
" style="fill: none; stroke: #ff8c00; stroke-width: 2.5; stroke-linecap: square"/>
    </g>
    <g id="text_15">
     <!-- mpra -->
     <g transform="translate(4176.671875 117.676562) scale(0.1 -0.1)">
      <use xlink:href="#DejaVuSans-6d"/>
      <use xlink:href="#DejaVuSans-70" x="97.412109"/>
      <use xlink:href="#DejaVuSans-72" x="160.888672"/>
      <use xlink:href="#DejaVuSans-61" x="202.001953"/>
     </g>
    </g>
   </g>
  </g>
 </g>
 <defs>
  <clipPath id="p6a9abc1906">
   <rect x="585" y="86.4" width="3627" height="554.4"/>
  </clipPath>
 </defs>
</svg>
