<?xml version="1.0" encoding="utf-8" standalone="no"?>
<!DOCTYPE svg PUBLIC "-//W3C//DTD SVG 1.1//EN"
  "http://www.w3.org/Graphics/SVG/1.1/DTD/svg11.dtd">
<svg xmlns:xlink="http://www.w3.org/1999/xlink" width="4680pt" height="720pt" viewBox="0 0 4680 720" xmlns="http://www.w3.org/2000/svg" version="1.1">
 <metadata>
  <rdf:RDF xmlns:dc="http://purl.org/dc/elements/1.1/" xmlns:cc="http://creativecommons.org/ns#" xmlns:rdf="http://www.w3.org/1999/02/22-rdf-syntax-ns#">
   <cc:Work>
    <dc:type rdf:resource="http://purl.org/dc/dcmitype/StillImage"/>
    <dc:date>2024-02-26T10:08:37.764113</dc:date>
    <dc:format>image/svg+xml</dc:format>
    <dc:creator>
     <cc:Agent>
      <dc:title>Matplotlib v3.7.1, https://matplotlib.org/</dc:title>
     </cc:Agent>
    </dc:creator>
   </cc:Work>
  </rdf:RDF>
 </metadata>
 <defs>
  <style type="text/css">*{stroke-linejoin: round; stroke-linecap: butt}</style>
 </defs>
 <g id="figure_1">
  <g id="patch_1">
   <path d="M 0 720 
L 4680 720 
L 4680 0 
L 0 0 
z
" style="fill: #ffffff"/>
  </g>
  <g id="axes_1">
   <g id="patch_2">
    <path d="M 585 640.8 
L 4212 640.8 
L 4212 86.4 
L 585 86.4 
z
" style="fill: #ffffff"/>
   </g>
   <g id="matplotlib.axis_1">
    <g id="xtick_1">
     <g id="line2d_1">
      <defs>
       <path id="me04e1174f7" d="M 0 0 
L 0 3.5 
" style="stroke: #000000; stroke-width: 0.8"/>
      </defs>
      <g>
       <use xlink:href="#me04e1174f7" x="1008.572727" y="640.8" style="stroke: #000000; stroke-width: 0.8"/>
      </g>
     </g>
     <g id="text_1">
      <!-- 2011-07 -->
      <g transform="translate(956.344212 666.796094) scale(0.25 -0.25)">
       <defs>
        <path id="DejaVuSans-32" d="M 1228 531 
L 3431 531 
L 3431 0 
L 469 0 
L 469 531 
Q 828 903 1448 1529 
Q 2069 2156 2228 2338 
Q 2531 2678 2651 2914 
Q 2772 3150 2772 3378 
Q 2772 3750 2511 3984 
Q 2250 4219 1831 4219 
Q 1534 4219 1204 4116 
Q 875 4013 500 3803 
L 500 4441 
Q 881 4594 1212 4672 
Q 1544 4750 1819 4750 
Q 2544 4750 2975 4387 
Q 3406 4025 3406 3419 
Q 3406 3131 3298 2873 
Q 3191 2616 2906 2266 
Q 2828 2175 2409 1742 
Q 1991 1309 1228 531 
z
" transform="scale(0.015625)"/>
        <path id="DejaVuSans-30" d="M 2034 4250 
Q 1547 4250 1301 3770 
Q 1056 3291 1056 2328 
Q 1056 1369 1301 889 
Q 1547 409 2034 409 
Q 2525 409 2770 889 
Q 3016 1369 3016 2328 
Q 3016 3291 2770 3770 
Q 2525 4250 2034 4250 
z
M 2034 4750 
Q 2819 4750 3233 4129 
Q 3647 3509 3647 2328 
Q 3647 1150 3233 529 
Q 2819 -91 2034 -91 
Q 1250 -91 836 529 
Q 422 1150 422 2328 
Q 422 3509 836 4129 
Q 1250 4750 2034 4750 
z
" transform="scale(0.015625)"/>
        <path id="DejaVuSans-31" d="M 794 531 
L 1825 531 
L 1825 4091 
L 703 3866 
L 703 4441 
L 1819 4666 
L 2450 4666 
L 2450 531 
L 3481 531 
L 3481 0 
L 794 0 
L 794 531 
z
" transform="scale(0.015625)"/>
        <path id="DejaVuSans-2d" d="M 313 2009 
L 1997 2009 
L 1997 1497 
L 313 1497 
L 313 2009 
z
" transform="scale(0.015625)"/>
        <path id="DejaVuSans-37" d="M 525 4666 
L 3525 4666 
L 3525 4397 
L 1831 0 
L 1172 0 
L 2766 4134 
L 525 4134 
L 525 4666 
z
" transform="scale(0.015625)"/>
       </defs>
       <use xlink:href="#DejaVuSans-32"/>
       <use xlink:href="#DejaVuSans-30" x="63.623047"/>
       <use xlink:href="#DejaVuSans-31" x="127.246094"/>
       <use xlink:href="#DejaVuSans-31" x="190.869141"/>
       <use xlink:href="#DejaVuSans-2d" x="254.492188"/>
       <use xlink:href="#DejaVuSans-30" x="290.576172"/>
       <use xlink:href="#DejaVuSans-37" x="354.199219"/>
      </g>
     </g>
    </g>
    <g id="xtick_2">
     <g id="line2d_2">
      <g>
       <use xlink:href="#me04e1174f7" x="1475.263636" y="640.8" style="stroke: #000000; stroke-width: 0.8"/>
      </g>
     </g>
     <g id="text_2">
      <!-- 2012-01 -->
      <g transform="translate(1423.035121 666.796094) scale(0.25 -0.25)">
       <use xlink:href="#DejaVuSans-32"/>
       <use xlink:href="#DejaVuSans-30" x="63.623047"/>
       <use xlink:href="#DejaVuSans-31" x="127.246094"/>
       <use xlink:href="#DejaVuSans-32" x="190.869141"/>
       <use xlink:href="#DejaVuSans-2d" x="254.492188"/>
       <use xlink:href="#DejaVuSans-30" x="290.576172"/>
       <use xlink:href="#DejaVuSans-31" x="354.199219"/>
      </g>
     </g>
    </g>
    <g id="xtick_3">
     <g id="line2d_3">
      <g>
       <use xlink:href="#me04e1174f7" x="1936.881818" y="640.8" style="stroke: #000000; stroke-width: 0.8"/>
      </g>
     </g>
     <g id="text_3">
      <!-- 2012-07 -->
      <g transform="translate(1884.653303 666.796094) scale(0.25 -0.25)">
       <use xlink:href="#DejaVuSans-32"/>
       <use xlink:href="#DejaVuSans-30" x="63.623047"/>
       <use xlink:href="#DejaVuSans-31" x="127.246094"/>
       <use xlink:href="#DejaVuSans-32" x="190.869141"/>
       <use xlink:href="#DejaVuSans-2d" x="254.492188"/>
       <use xlink:href="#DejaVuSans-30" x="290.576172"/>
       <use xlink:href="#DejaVuSans-37" x="354.199219"/>
      </g>
     </g>
    </g>
    <g id="xtick_4">
     <g id="line2d_4">
      <g>
       <use xlink:href="#me04e1174f7" x="2403.572727" y="640.8" style="stroke: #000000; stroke-width: 0.8"/>
      </g>
     </g>
     <g id="text_4">
      <!-- 2013-01 -->
      <g transform="translate(2351.344212 666.796094) scale(0.25 -0.25)">
       <defs>
        <path id="DejaVuSans-33" d="M 2597 2516 
Q 3050 2419 3304 2112 
Q 3559 1806 3559 1356 
Q 3559 666 3084 287 
Q 2609 -91 1734 -91 
Q 1441 -91 1130 -33 
Q 819 25 488 141 
L 488 750 
Q 750 597 1062 519 
Q 1375 441 1716 441 
Q 2309 441 2620 675 
Q 2931 909 2931 1356 
Q 2931 1769 2642 2001 
Q 2353 2234 1838 2234 
L 1294 2234 
L 1294 2753 
L 1863 2753 
Q 2328 2753 2575 2939 
Q 2822 3125 2822 3475 
Q 2822 3834 2567 4026 
Q 2313 4219 1838 4219 
Q 1578 4219 1281 4162 
Q 984 4106 628 3988 
L 628 4550 
Q 988 4650 1302 4700 
Q 1616 4750 1894 4750 
Q 2613 4750 3031 4423 
Q 3450 4097 3450 3541 
Q 3450 3153 3228 2886 
Q 3006 2619 2597 2516 
z
" transform="scale(0.015625)"/>
       </defs>
       <use xlink:href="#DejaVuSans-32"/>
       <use xlink:href="#DejaVuSans-30" x="63.623047"/>
       <use xlink:href="#DejaVuSans-31" x="127.246094"/>
       <use xlink:href="#DejaVuSans-33" x="190.869141"/>
       <use xlink:href="#DejaVuSans-2d" x="254.492188"/>
       <use xlink:href="#DejaVuSans-30" x="290.576172"/>
       <use xlink:href="#DejaVuSans-31" x="354.199219"/>
      </g>
     </g>
    </g>
    <g id="xtick_5">
     <g id="line2d_5">
      <g>
       <use xlink:href="#me04e1174f7" x="2862.654545" y="640.8" style="stroke: #000000; stroke-width: 0.8"/>
      </g>
     </g>
     <g id="text_5">
      <!-- 2013-07 -->
      <g transform="translate(2810.42603 666.796094) scale(0.25 -0.25)">
       <use xlink:href="#DejaVuSans-32"/>
       <use xlink:href="#DejaVuSans-30" x="63.623047"/>
       <use xlink:href="#DejaVuSans-31" x="127.246094"/>
       <use xlink:href="#DejaVuSans-33" x="190.869141"/>
       <use xlink:href="#DejaVuSans-2d" x="254.492188"/>
       <use xlink:href="#DejaVuSans-30" x="290.576172"/>
       <use xlink:href="#DejaVuSans-37" x="354.199219"/>
      </g>
     </g>
    </g>
    <g id="xtick_6">
     <g id="line2d_6">
      <g>
       <use xlink:href="#me04e1174f7" x="3329.345455" y="640.8" style="stroke: #000000; stroke-width: 0.8"/>
      </g>
     </g>
     <g id="text_6">
      <!-- 2014-01 -->
      <g transform="translate(3277.116939 666.796094) scale(0.25 -0.25)">
       <defs>
        <path id="DejaVuSans-34" d="M 2419 4116 
L 825 1625 
L 2419 1625 
L 2419 4116 
z
M 2253 4666 
L 3047 4666 
L 3047 1625 
L 3713 1625 
L 3713 1100 
L 3047 1100 
L 3047 0 
L 2419 0 
L 2419 1100 
L 313 1100 
L 313 1709 
L 2253 4666 
z
" transform="scale(0.015625)"/>
       </defs>
       <use xlink:href="#DejaVuSans-32"/>
       <use xlink:href="#DejaVuSans-30" x="63.623047"/>
       <use xlink:href="#DejaVuSans-31" x="127.246094"/>
       <use xlink:href="#DejaVuSans-34" x="190.869141"/>
       <use xlink:href="#DejaVuSans-2d" x="254.492188"/>
       <use xlink:href="#DejaVuSans-30" x="290.576172"/>
       <use xlink:href="#DejaVuSans-31" x="354.199219"/>
      </g>
     </g>
    </g>
    <g id="xtick_7">
     <g id="line2d_7">
      <g>
       <use xlink:href="#me04e1174f7" x="3788.427273" y="640.8" style="stroke: #000000; stroke-width: 0.8"/>
      </g>
     </g>
     <g id="text_7">
      <!-- 2014-07 -->
      <g transform="translate(3736.198757 666.796094) scale(0.25 -0.25)">
       <use xlink:href="#DejaVuSans-32"/>
       <use xlink:href="#DejaVuSans-30" x="63.623047"/>
       <use xlink:href="#DejaVuSans-31" x="127.246094"/>
       <use xlink:href="#DejaVuSans-34" x="190.869141"/>
       <use xlink:href="#DejaVuSans-2d" x="254.492188"/>
       <use xlink:href="#DejaVuSans-30" x="290.576172"/>
       <use xlink:href="#DejaVuSans-37" x="354.199219"/>
      </g>
     </g>
    </g>
   </g>
   <g id="matplotlib.axis_2">
    <g id="ytick_1">
     <g id="line2d_8">
      <defs>
       <path id="me30bce36b8" d="M 0 0 
L -3.5 0 
" style="stroke: #000000; stroke-width: 0.8"/>
      </defs>
      <g>
       <use xlink:href="#me30bce36b8" x="585" y="585.36" style="stroke: #000000; stroke-width: 0.8"/>
      </g>
     </g>
     <g id="text_8">
      <!-- −0.004 -->
      <g transform="translate(485.480469 594.858047) scale(0.25 -0.25)">
       <defs>
        <path id="DejaVuSans-2212" d="M 678 2272 
L 4684 2272 
L 4684 1741 
L 678 1741 
L 678 2272 
z
" transform="scale(0.015625)"/>
        <path id="DejaVuSans-2e" d="M 684 794 
L 1344 794 
L 1344 0 
L 684 0 
L 684 794 
z
" transform="scale(0.015625)"/>
       </defs>
       <use xlink:href="#DejaVuSans-2212"/>
       <use xlink:href="#DejaVuSans-30" x="83.789062"/>
       <use xlink:href="#DejaVuSans-2e" x="147.412109"/>
       <use xlink:href="#DejaVuSans-30" x="179.199219"/>
       <use xlink:href="#DejaVuSans-30" x="242.822266"/>
       <use xlink:href="#DejaVuSans-34" x="306.445312"/>
      </g>
     </g>
    </g>
    <g id="ytick_2">
     <g id="line2d_9">
      <g>
       <use xlink:href="#me30bce36b8" x="585" y="474.48" style="stroke: #000000; stroke-width: 0.8"/>
      </g>
     </g>
     <g id="text_9">
      <!-- −0.002 -->
      <g transform="translate(485.480469 483.978047) scale(0.25 -0.25)">
       <use xlink:href="#DejaVuSans-2212"/>
       <use xlink:href="#DejaVuSans-30" x="83.789062"/>
       <use xlink:href="#DejaVuSans-2e" x="147.412109"/>
       <use xlink:href="#DejaVuSans-30" x="179.199219"/>
       <use xlink:href="#DejaVuSans-30" x="242.822266"/>
       <use xlink:href="#DejaVuSans-32" x="306.445312"/>
      </g>
     </g>
    </g>
    <g id="ytick_3">
     <g id="line2d_10">
      <g>
       <use xlink:href="#me30bce36b8" x="585" y="363.6" style="stroke: #000000; stroke-width: 0.8"/>
      </g>
     </g>
     <g id="text_10">
      <!-- 0.000 -->
      <g transform="translate(506.429688 373.098047) scale(0.25 -0.25)">
       <use xlink:href="#DejaVuSans-30"/>
       <use xlink:href="#DejaVuSans-2e" x="63.623047"/>
       <use xlink:href="#DejaVuSans-30" x="95.410156"/>
       <use xlink:href="#DejaVuSans-30" x="159.033203"/>
       <use xlink:href="#DejaVuSans-30" x="222.65625"/>
      </g>
     </g>
    </g>
    <g id="ytick_4">
     <g id="line2d_11">
      <g>
       <use xlink:href="#me30bce36b8" x="585" y="252.72" style="stroke: #000000; stroke-width: 0.8"/>
      </g>
     </g>
     <g id="text_11">
      <!-- 0.002 -->
      <g transform="translate(506.429688 262.218047) scale(0.25 -0.25)">
       <use xlink:href="#DejaVuSans-30"/>
       <use xlink:href="#DejaVuSans-2e" x="63.623047"/>
       <use xlink:href="#DejaVuSans-30" x="95.410156"/>
       <use xlink:href="#DejaVuSans-30" x="159.033203"/>
       <use xlink:href="#DejaVuSans-32" x="222.65625"/>
      </g>
     </g>
    </g>
    <g id="ytick_5">
     <g id="line2d_12">
      <g>
       <use xlink:href="#me30bce36b8" x="585" y="141.84" style="stroke: #000000; stroke-width: 0.8"/>
      </g>
     </g>
     <g id="text_12">
      <!-- 0.004 -->
      <g transform="translate(506.429688 151.338047) scale(0.25 -0.25)">
       <use xlink:href="#DejaVuSans-30"/>
       <use xlink:href="#DejaVuSans-2e" x="63.623047"/>
       <use xlink:href="#DejaVuSans-30" x="95.410156"/>
       <use xlink:href="#DejaVuSans-30" x="159.033203"/>
       <use xlink:href="#DejaVuSans-34" x="222.65625"/>
      </g>
     </g>
    </g>
   </g>
   <g id="line2d_13">
    <path d="M 582.463636 461.646032 
L 585 455.946704 
L 587.536364 451.753496 
L 590.072727 464.261589 
L 592.609091 478.696221 
L 595.145455 471.171993 
L 597.681818 476.329665 
L 600.218182 490.870557 
L 602.754545 482.907429 
L 605.290909 485.537961 
L 607.827273 480.471573 
L 610.363636 469.057305 
L 612.9 465.302997 
L 615.436364 467.374509 
L 617.972727 466.771041 
L 620.509091 457.957833 
L 623.045455 452.942265 
L 625.581818 454.108257 
L 628.118182 447.554229 
L 630.654545 440.297961 
L 633.190909 444.277533 
L 635.727273 444.099105 
L 638.263636 439.102017 
L 640.8 433.666029 
L 643.336364 432.401902 
L 645.872727 437.019034 
L 648.409091 435.750286 
L 650.945455 434.888098 
L 653.481818 428.75449 
L 656.018182 425.693182 
L 658.554545 427.455154 
L 661.090909 436.701526 
L 663.627273 439.697038 
L 666.163636 437.94319 
L 668.7 444.740962 
L 671.236364 449.154814 
L 673.772727 448.172506 
L 676.309091 435.210538 
L 678.845455 434.88889 
L 681.381818 436.184242 
L 683.918182 432.295954 
L 686.454545 425.575606 
L 688.990909 414.946738 
L 691.527273 396.62095 
L 694.063636 384.901763 
L 696.6 378.648035 
L 699.136364 374.464067 
L 701.672727 367.711379 
L 704.209091 367.805531 
L 706.745455 375.689003 
L 709.281818 380.523275 
L 711.818182 379.300727 
L 714.354545 379.764479 
L 716.890909 391.501031 
L 721.963636 411.814055 
L 724.5 414.051887 
L 727.036364 415.227119 
L 729.572727 419.446931 
L 732.109091 419.143763 
L 734.645455 414.035795 
L 737.181818 401.337167 
L 739.718182 395.069579 
L 742.254545 394.466111 
L 744.790909 404.160623 
L 747.327273 405.871776 
L 749.863636 398.629368 
L 752.4 395.93304 
L 754.936364 393.578592 
L 760.009091 416.160036 
L 762.545455 428.968428 
L 765.081818 443.07504 
L 767.618182 452.954352 
L 770.154545 451.440744 
L 772.690909 452.218656 
L 775.227273 449.554668 
L 777.763636 435.86736 
L 780.3 431.803512 
L 782.836364 429.712404 
L 785.372727 440.575776 
L 790.445455 440.784804 
L 792.981818 437.907672 
L 813.272727 435.12294 
L 815.809091 422.345148 
L 820.881818 424.961197 
L 823.418182 422.786305 
L 825.954545 418.444633 
L 831.027273 405.532861 
L 833.563636 404.014009 
L 836.1 410.538577 
L 838.636364 407.472025 
L 841.172727 397.627933 
L 843.709091 386.805025 
L 846.245455 370.766137 
L 848.781818 359.471989 
L 851.318182 353.689501 
L 853.854545 343.148413 
L 856.390909 344.679385 
L 858.927273 343.207357 
L 861.463636 350.245369 
L 864 348.935041 
L 866.536364 338.952973 
L 869.072727 323.413045 
L 871.609091 311.652277 
L 874.145455 298.25141 
L 876.681818 289.299602 
L 879.218182 289.633994 
L 881.754545 292.329206 
L 884.290909 293.490578 
L 886.827273 296.58311 
L 889.363636 296.945222 
L 891.9 291.476894 
L 894.436364 293.945726 
L 896.972727 293.259098 
L 899.509091 300.44033 
L 902.045455 307.150322 
L 904.581818 321.714314 
L 907.118182 330.535646 
L 909.654545 326.180738 
L 912.190909 333.30191 
L 914.727273 336.302042 
L 917.263636 329.286014 
L 919.8 317.211086 
L 922.336364 317.226698 
L 924.872727 314.401011 
L 927.409091 318.288183 
L 929.945455 326.148555 
L 932.481818 331.703547 
L 935.018182 329.302899 
L 937.554545 330.136251 
L 940.090909 336.116283 
L 942.627273 323.764155 
L 945.163636 327.087687 
L 947.7 327.800919 
L 950.236364 346.074771 
L 952.772727 353.329923 
L 955.309091 354.579075 
L 957.845455 348.500907 
L 960.381818 347.199819 
L 962.918182 351.923211 
L 965.454545 346.501083 
L 967.990909 353.686935 
L 970.527273 353.226687 
L 973.063636 364.649079 
L 975.6 365.870511 
L 978.136364 368.528764 
L 980.672727 366.007996 
L 983.209091 363.062188 
L 985.745455 376.34182 
L 988.281818 392.906272 
L 990.818182 392.418304 
L 993.354545 387.804676 
L 995.890909 390.310468 
L 998.427273 380.14822 
L 1000.963636 401.355772 
L 1003.5 406.924624 
L 1006.036364 404.473156 
L 1008.572727 398.935528 
L 1011.109091 396.59494 
L 1013.645455 404.228932 
L 1016.181818 396.676984 
L 1018.718182 385.701616 
L 1021.254545 387.070888 
L 1023.790909 372.187 
L 1026.327273 381.280912 
L 1028.863636 386.299985 
L 1031.4 363.783857 
L 1033.936364 355.760669 
L 1036.472727 350.176841 
L 1039.009091 355.454633 
L 1041.545455 372.203885 
L 1044.081818 372.482837 
L 1046.618182 364.039229 
L 1049.154545 379.250021 
L 1051.690909 388.297733 
L 1054.227273 412.651505 
L 1056.763636 415.841057 
L 1059.3 431.523089 
L 1061.836364 436.671521 
L 1069.445455 442.277333 
L 1071.981818 450.516545 
L 1074.518182 454.445297 
L 1077.054545 446.149529 
L 1079.590909 435.289661 
L 1082.127273 445.875833 
L 1084.663636 442.523465 
L 1087.2 440.681838 
L 1089.736364 433.15299 
L 1092.272727 427.144122 
L 1094.809091 425.408754 
L 1097.345455 428.399646 
L 1099.881818 425.601678 
L 1102.418182 423.18717 
L 1104.954545 419.386662 
L 1107.490909 409.242894 
L 1110.027273 409.323186 
L 1112.563636 408.849078 
L 1115.1 402.13797 
L 1117.636364 400.707522 
L 1120.172727 391.219794 
L 1122.709091 385.206306 
L 1125.245455 374.947038 
L 1127.781818 370.63833 
L 1130.318182 370.150362 
L 1132.854545 373.363014 
L 1135.390909 379.449306 
L 1137.927273 376.933159 
L 1140.463636 383.472211 
L 1143 375.887923 
L 1145.536364 382.551715 
L 1148.072727 378.825127 
L 1150.609091 381.926899 
L 1153.145455 375.830251 
L 1155.681818 368.467723 
L 1158.218182 368.728195 
L 1160.754545 361.250167 
L 1163.290909 352.792699 
L 1165.827273 343.050871 
L 1168.363636 339.430543 
L 1170.9 327.531175 
L 1173.436364 324.502207 
L 1175.972727 325.728259 
L 1178.509091 316.582411 
L 1181.045455 317.189383 
L 1183.581818 324.486115 
L 1186.118182 323.041807 
L 1188.654545 315.711619 
L 1191.190909 313.745252 
L 1193.727273 304.081964 
L 1196.263636 307.280756 
L 1198.8 317.566628 
L 1201.336364 328.67948 
L 1203.872727 336.969512 
L 1206.409091 334.439504 
L 1208.945455 344.046236 
L 1211.481818 347.452928 
L 1214.018182 348.42026 
L 1216.554545 350.704292 
L 1219.090909 348.677864 
L 1221.627273 352.638956 
L 1224.163636 360.383828 
L 1226.7 358.33892 
L 1229.236364 347.599172 
L 1231.772727 342.897764 
L 1234.309091 338.644496 
L 1239.381818 328.66418 
L 1241.918182 325.173213 
L 1244.454545 328.325805 
L 1246.990909 334.342797 
L 1249.527273 344.457729 
L 1252.063636 344.149941 
L 1254.6 345.537693 
L 1257.136364 357.717765 
L 1259.672727 374.490117 
L 1262.209091 369.991989 
L 1264.745455 361.303521 
L 1267.281818 355.983033 
L 1269.818182 363.321345 
L 1272.354545 369.398397 
L 1274.890909 362.992209 
L 1277.427273 348.048261 
L 1279.963636 342.418233 
L 1282.5 343.944585 
L 1285.036364 340.915617 
L 1287.572727 330.203589 
L 1290.109091 309.572421 
L 1292.645455 308.294433 
L 1295.181818 315.568066 
L 1297.718182 309.670078 
L 1302.790909 278.313022 
L 1305.327273 270.132754 
L 1307.863636 268.448206 
L 1312.936364 255.45103 
L 1315.472727 253.087342 
L 1318.009091 245.632414 
L 1320.545455 251.774146 
L 1323.081818 253.000198 
L 1325.618182 248.20639 
L 1328.154545 251.626942 
L 1330.690909 251.249854 
L 1333.227273 247.186006 
L 1335.763636 248.790898 
L 1340.836364 255.500266 
L 1343.372727 264.561214 
L 1345.909091 271.007242 
L 1348.445455 279.111851 
L 1350.981818 288.445379 
L 1353.518182 287.762747 
L 1356.054545 291.071795 
L 1358.590909 304.535603 
L 1361.127273 307.179371 
L 1363.663636 322.260179 
L 1366.2 342.155027 
L 1368.736364 355.651175 
L 1371.272727 364.629587 
L 1373.809091 366.534779 
L 1378.881818 355.166711 
L 1381.418182 352.230143 
L 1383.954545 354.264695 
L 1386.490909 361.080947 
L 1389.027273 361.937399 
L 1391.563636 355.230911 
L 1394.1 353.292263 
L 1396.636364 345.384575 
L 1399.172727 339.574367 
L 1401.709091 344.28852 
L 1404.245455 342.289812 
L 1406.781818 335.888244 
L 1409.318182 347.075016 
L 1411.854545 357.069828 
L 1414.390909 353.25084 
L 1416.927273 346.650612 
L 1419.463636 341.034444 
L 1422 333.986076 
L 1424.536364 337.877868 
L 1427.072727 341.39082 
L 1429.609091 341.240112 
L 1432.145455 330.805284 
L 1434.681818 326.223996 
L 1437.218182 330.000288 
L 1439.754545 327.71514 
L 1442.290909 310.715292 
L 1444.827273 300.077184 
L 1447.363636 297.556416 
L 1449.9 297.327168 
L 1452.436364 300.054721 
L 1454.972727 296.281933 
L 1457.509091 291.571285 
L 1460.045455 285.317557 
L 1462.581818 282.875329 
L 1465.118182 281.671261 
L 1470.190909 301.420645 
L 1472.727273 308.643457 
L 1475.263636 315.191749 
L 1477.8 310.767541 
L 1480.336364 315.486313 
L 1482.872727 325.749085 
L 1485.409091 333.027337 
L 1487.945455 353.089129 
L 1490.481818 365.056681 
L 1493.018182 359.754673 
L 1495.554545 356.162065 
L 1498.090909 344.752417 
L 1500.627273 336.706129 
L 1503.163636 340.468561 
L 1505.7 337.217834 
L 1508.236364 355.773506 
L 1510.772727 355.054538 
L 1513.309091 346.10273 
L 1515.845455 338.065682 
L 1518.381818 309.247874 
L 1520.918182 303.761066 
L 1523.454545 326.830478 
L 1525.990909 329.48873 
L 1528.527273 327.379142 
L 1531.063636 322.442114 
L 1533.6 315.204326 
L 1536.136364 314.143478 
L 1538.672727 294.62111 
L 1541.209091 289.697942 
L 1543.745455 285.296834 
L 1546.281818 280.322846 
L 1548.818182 281.488838 
L 1551.354545 270.75833 
L 1553.890909 249.083042 
L 1556.427273 245.772255 
L 1558.963636 237.721347 
L 1561.5 237.413559 
L 1564.036364 234.130491 
L 1566.572727 232.071723 
L 1569.109091 237.266355 
L 1571.645455 236.565867 
L 1574.181818 241.307739 
L 1576.718182 244.714431 
L 1579.254545 254.330403 
L 1581.790909 265.276935 
L 1584.327273 270.531627 
L 1586.863636 281.270259 
L 1589.4 305.332971 
L 1594.472727 324.477135 
L 1597.009091 331.991007 
L 1599.545455 334.917219 
L 1602.081818 341.909031 
L 1604.618182 335.045463 
L 1607.154545 333.282375 
L 1609.690909 329.805268 
L 1612.227273 331.96456 
L 1614.763636 331.268692 
L 1617.3 323.993944 
L 1619.836364 302.535796 
L 1622.372727 295.376548 
L 1624.909091 281.19952 
L 1627.445455 277.874872 
L 1629.981818 278.662024 
L 1632.518182 273.641836 
L 1635.054545 271.583068 
L 1637.590909 273.9364 
L 1640.127273 272.566012 
L 1642.663636 259.132804 
L 1645.2 249.889936 
L 1647.736364 243.479128 
L 1650.272727 240.33928 
L 1652.809091 238.497652 
L 1655.345455 241.982884 
L 1657.881818 244.775116 
L 1662.954545 246.518609 
L 1665.490909 245.106641 
L 1668.027273 244.193633 
L 1670.563636 243.580925 
L 1673.1 242.455397 
L 1675.636364 238.031189 
L 1678.172727 233.302061 
L 1680.709091 233.294573 
L 1683.245455 234.765485 
L 1685.781818 219.378017 
L 1688.318182 216.598529 
L 1690.854545 211.472081 
L 1693.390909 209.801393 
L 1695.927273 207.978245 
L 1701 215.650949 
L 1703.536364 215.934521 
L 1706.072727 226.502213 
L 1708.609091 235.328165 
L 1711.145455 235.343777 
L 1713.681818 236.657609 
L 1716.218182 247.216062 
L 1718.754545 247.166994 
L 1721.290909 245.912106 
L 1723.827273 242.647518 
L 1726.363636 237.49797 
L 1728.9 238.109562 
L 1731.436364 229.467294 
L 1733.972727 229.182606 
L 1736.509091 232.848018 
L 1739.045455 236.12997 
L 1741.581818 246.304962 
L 1746.654545 249.254274 
L 1749.190909 251.700006 
L 1751.727273 253.230978 
L 1754.263636 256.02783 
L 1756.8 248.360382 
L 1759.336364 249.415494 
L 1761.872727 251.759586 
L 1764.409091 256.256598 
L 1766.945455 268.27497 
L 1769.481818 261.808723 
L 1772.018182 252.953935 
L 1774.554545 240.370807 
L 1777.090909 237.346459 
L 1789.772727 231.148171 
L 1797.381818 228.752143 
L 1799.918182 226.319155 
L 1802.454545 226.173067 
L 1804.990909 231.247579 
L 1815.136364 231.900751 
L 1820.209091 236.864383 
L 1822.745455 225.038935 
L 1825.281818 222.864667 
L 1827.818182 236.573959 
L 1830.354545 238.663951 
L 1832.890909 231.500083 
L 1835.427273 239.189515 
L 1837.963636 241.972507 
L 1840.5 250.294879 
L 1843.036364 269.280211 
L 1845.572727 273.901963 
L 1850.645455 276.301496 
L 1853.181818 268.269068 
L 1855.718182 270.09572 
L 1858.254545 276.112712 
L 1860.790909 266.116784 
L 1863.327273 262.353236 
L 1865.863636 269.515988 
L 1868.4 280.83674 
L 1870.936364 281.092592 
L 1873.472727 273.240344 
L 1876.009091 270.031196 
L 1878.545455 267.293288 
L 1881.081818 261.788 
L 1883.618182 266.377412 
L 1886.154545 273.974444 
L 1888.690909 277.741496 
L 1891.227273 290.078648 
L 1893.763636 308.95772 
L 1896.3 314.655932 
L 1898.836364 294.680804 
L 1901.372727 295.273917 
L 1903.909091 296.273589 
L 1906.445455 282.350661 
L 1908.981818 292.673493 
L 1911.518182 301.300785 
L 1914.054545 292.529157 
L 1916.590909 286.266189 
L 1919.127273 283.884021 
L 1921.663636 283.363713 
L 1924.2 285.222705 
L 1926.736364 290.056977 
L 1929.272727 298.134489 
L 1931.809091 301.485741 
L 1934.345455 301.870953 
L 1936.881818 311.436105 
L 1939.418182 305.616657 
L 1941.954545 300.148329 
L 1944.490909 303.143841 
L 1947.027273 308.948313 
L 1952.1 318.958737 
L 1954.636364 325.98289 
L 1957.172727 319.840042 
L 1959.709091 319.315114 
L 1964.781818 338.556298 
L 1967.318182 341.91217 
L 1969.854545 347.517982 
L 1972.390909 355.248994 
L 1974.927273 371.152786 
L 1980 359.55547 
L 1982.536364 352.668802 
L 1985.072727 342.478834 
L 1987.609091 348.375706 
L 1990.145455 365.790238 
L 1992.681818 360.98719 
L 1995.218182 359.598322 
L 1997.754545 360.135994 
L 2000.290909 358.918066 
L 2002.827273 368.247598 
L 2005.363636 365.445011 
L 2007.9 381.667583 
L 2010.436364 382.089755 
L 2012.972727 387.737147 
L 2015.509091 388.122359 
L 2018.045455 378.144911 
L 2020.581818 365.187563 
L 2023.118182 363.988115 
L 2025.654545 360.404747 
L 2030.727273 352.330115 
L 2033.263636 346.930463 
L 2035.8 328.396151 
L 2038.336364 317.304659 
L 2040.872727 291.946607 
L 2043.409091 285.673775 
L 2045.945455 268.793423 
L 2048.481818 259.979591 
L 2051.018182 268.449179 
L 2053.554545 255.606707 
L 2056.090909 253.565795 
L 2058.627273 252.194784 
L 2061.163636 260.433996 
L 2063.7 254.711568 
L 2066.236364 261.63408 
L 2068.772727 261.908412 
L 2071.309091 260.755164 
L 2073.845455 259.458696 
L 2076.381818 265.752888 
L 2078.918182 268.26792 
L 2081.454545 265.044912 
L 2083.990909 271.422264 
L 2086.527273 269.072436 
L 2089.063636 264.911568 
L 2091.6 261.02328 
L 2094.136364 256.779252 
L 2096.672727 256.901124 
L 2099.209091 258.090216 
L 2101.745455 261.764868 
L 2104.281818 267.15354 
L 2106.818182 268.398072 
L 2109.354545 266.163745 
L 2111.890909 262.580377 
L 2114.427273 268.615849 
L 2116.963636 269.754121 
L 2119.5 275.780353 
L 2122.036364 275.911465 
L 2124.572727 285.818497 
L 2127.109091 283.634989 
L 2129.645455 289.310101 
L 2132.181818 293.964193 
L 2134.718182 287.151445 
L 2137.254545 286.857517 
L 2139.790909 281.264449 
L 2142.327273 282.204061 
L 2144.863636 274.823053 
L 2147.4 272.279185 
L 2149.936364 271.241437 
L 2152.472727 266.336749 
L 2155.009091 260.055301 
L 2157.545455 251.542393 
L 2160.081818 237.929005 
L 2162.618182 236.286038 
L 2165.154545 239.38781 
L 2167.690909 234.751082 
L 2170.227273 239.026334 
L 2172.763636 235.932686 
L 2175.3 237.181838 
L 2177.836364 239.18405 
L 2182.909091 234.062222 
L 2185.445455 226.454834 
L 2187.981818 228.618746 
L 2190.518182 233.850338 
L 2193.054545 241.29491 
L 2195.590909 236.122262 
L 2198.127273 234.576314 
L 2200.663636 232.628426 
L 2203.2 234.672218 
L 2208.272727 229.415786 
L 2210.809091 226.349234 
L 2213.345455 218.099042 
L 2215.881818 212.00177 
L 2218.418182 218.854359 
L 2220.954545 219.192747 
L 2223.490909 220.002375 
L 2226.027273 228.273303 
L 2228.563636 237.103251 
L 2231.1 247.296099 
L 2233.636364 259.244547 
L 2236.172727 258.243135 
L 2238.709091 260.282307 
L 2241.245455 266.604219 
L 2243.781818 274.690971 
L 2246.318182 283.456863 
L 2248.854545 279.905835 
L 2251.390909 272.584887 
L 2253.927273 268.003599 
L 2259 250.520403 
L 2261.536364 251.598615 
L 2264.072727 248.431047 
L 2266.609091 247.707459 
L 2269.145455 254.713132 
L 2271.681818 247.318264 
L 2274.218182 238.347976 
L 2276.754545 237.185488 
L 2279.290909 244.57462 
L 2281.827273 255.206992 
L 2284.363636 263.025784 
L 2286.9 270.391816 
L 2289.436364 279.023728 
L 2291.972727 269.54524 
L 2294.509091 272.134192 
L 2299.581818 286.990996 
L 2302.118182 296.292808 
L 2304.654545 315.77248 
L 2307.190909 323.258632 
L 2309.727273 326.018524 
L 2312.263636 331.199296 
L 2314.8 325.578508 
L 2317.336364 318.04042 
L 2319.872727 324.722693 
L 2322.409091 338.621405 
L 2324.945455 342.873557 
L 2327.481818 354.619349 
L 2332.554545 363.343661 
L 2335.090909 369.268253 
L 2337.627273 362.418545 
L 2340.163636 362.300177 
L 2342.7 370.271429 
L 2347.772727 373.206881 
L 2350.309091 381.635513 
L 2352.845455 391.944485 
L 2355.381818 384.614297 
L 2357.918182 384.431249 
L 2360.454545 364.798001 
L 2362.990909 346.481453 
L 2365.527273 331.047785 
L 2368.063636 326.346377 
L 2370.6 330.889589 
L 2373.136364 326.608601 
L 2375.672727 315.369893 
L 2378.209091 306.034626 
L 2380.745455 305.255598 
L 2383.281818 308.95335 
L 2385.818182 310.290282 
L 2388.354545 295.595814 
L 2390.890909 314.202306 
L 2393.427273 334.065438 
L 2395.963636 337.04709 
L 2401.036364 327.302394 
L 2403.572727 330.829206 
L 2406.109091 327.911118 
L 2411.181818 338.37717 
L 2413.718182 330.344742 
L 2416.254545 327.666894 
L 2418.790909 328.851366 
L 2421.327273 336.596238 
L 2423.863636 331.04013 
L 2426.4 324.421422 
L 2428.936364 325.120794 
L 2431.472727 323.731927 
L 2434.009091 327.619099 
L 2439.081818 346.065643 
L 2441.618182 336.346915 
L 2444.154545 341.204287 
L 2446.690909 340.429879 
L 2449.227273 341.120011 
L 2451.763636 347.257123 
L 2454.3 356.129275 
L 2456.836364 357.175147 
L 2459.372727 363.704959 
L 2461.909091 374.891731 
L 2464.445455 372.929983 
L 2472.054545 369.854815 
L 2474.590909 371.639887 
L 2479.663636 398.808991 
L 2484.736364 418.544515 
L 2487.272727 429.218467 
L 2489.809091 429.95942 
L 2492.345455 429.092612 
L 2494.881818 429.547124 
L 2497.418182 430.657676 
L 2499.954545 438.203888 
L 2502.490909 431.68682 
L 2505.027273 424.532192 
L 2507.563636 406.492844 
L 2510.1 397.767416 
L 2512.636364 383.558048 
L 2515.172727 373.65452 
L 2517.709091 352.330352 
L 2520.245455 342.588524 
L 2522.781818 329.658896 
L 2525.318182 329.656028 
L 2527.854545 327.11678 
L 2530.390909 314.963312 
L 2532.927273 306.501224 
L 2535.463636 308.642036 
L 2538 318.706148 
L 2540.536364 326.700501 
L 2543.072727 328.915233 
L 2545.609091 334.045185 
L 2548.145455 347.278617 
L 2550.681818 343.408809 
L 2553.218182 351.504801 
L 2555.754545 349.681653 
L 2558.290909 346.574145 
L 2560.827273 355.972977 
L 2563.363636 360.700989 
L 2568.436364 361.085577 
L 2570.972727 352.890825 
L 2573.509091 350.124573 
L 2576.045455 350.375181 
L 2578.581818 343.658829 
L 2581.118182 334.877337 
L 2583.654545 342.903405 
L 2586.190909 342.405573 
L 2588.727273 339.519201 
L 2591.263636 339.548049 
L 2593.8 338.287918 
L 2596.336364 352.430866 
L 2598.872727 350.954218 
L 2601.409091 365.56441 
L 2603.945455 356.012002 
L 2606.481818 349.393294 
L 2609.018182 359.619106 
L 2611.554545 360.295378 
L 2614.090909 361.45675 
L 2616.627273 372.828322 
L 2619.163636 376.230394 
L 2621.7 384.774526 
L 2624.236364 385.677178 
L 2626.772727 375.38095 
L 2629.309091 381.291682 
L 2631.845455 373.439434 
L 2634.381818 380.311126 
L 2639.454545 391.816678 
L 2641.990909 384.98545 
L 2644.527273 391.173382 
L 2647.063636 389.752175 
L 2649.6 382.689947 
L 2652.136364 376.838159 
L 2654.672727 369.240011 
L 2657.209091 372.623603 
L 2659.745455 370.915955 
L 2662.281818 364.320347 
L 2667.354545 349.997231 
L 2669.890909 351.121643 
L 2672.427273 353.816855 
L 2674.963636 348.630347 
L 2677.5 347.661899 
L 2680.036364 345.718631 
L 2682.572727 351.532343 
L 2685.109091 361.115975 
L 2687.645455 364.268567 
L 2690.181818 376.203779 
L 2692.718182 385.676531 
L 2695.254545 402.929363 
L 2697.790909 411.676775 
L 2700.327273 407.100108 
L 2702.863636 413.80086 
L 2705.4 428.448012 
L 2707.936364 444.176244 
L 2710.472727 457.197156 
L 2715.545455 474.32238 
L 2718.081818 472.988952 
L 2720.618182 470.703804 
L 2723.154545 479.123196 
L 2733.3 476.265168 
L 2738.372727 504.626232 
L 2740.909091 500.895024 
L 2743.445455 494.465736 
L 2745.981818 474.291948 
L 2748.518182 463.95876 
L 2751.054545 462.763932 
L 2753.590909 456.944484 
L 2756.127273 457.112556 
L 2758.663636 455.751409 
L 2761.2 449.151181 
L 2763.736364 461.788633 
L 2766.272727 458.089765 
L 2768.809091 459.994957 
L 2771.345455 468.770089 
L 2773.881818 473.581261 
L 2776.418182 493.504453 
L 2778.954545 501.156925 
L 2781.490909 507.178537 
L 2784.027273 507.499069 
L 2786.563636 505.066081 
L 2789.1 508.301833 
L 2791.636364 512.073505 
L 2794.172727 509.779117 
L 2796.709091 510.760309 
L 2799.245455 514.855381 
L 2801.781818 516.548053 
L 2804.318182 527.157325 
L 2806.854545 532.148677 
L 2809.390909 530.976949 
L 2811.927273 523.503542 
L 2814.463636 526.711574 
L 2817 530.889806 
L 2819.536364 539.272238 
L 2822.072727 540.17951 
L 2824.609091 543.863402 
L 2827.145455 541.726094 
L 2829.681818 536.424086 
L 2832.218182 537.128078 
L 2834.754545 528.59207 
L 2837.290909 522.749522 
L 2839.827273 520.325774 
L 2844.9 524.822162 
L 2847.436364 526.04297 
L 2849.972727 531.149198 
L 2852.509091 532.397726 
L 2855.045455 529.654574 
L 2857.581818 516.622682 
L 2860.118182 520.87421 
L 2862.654545 521.475939 
L 2865.190909 520.058727 
L 2867.727273 512.011815 
L 2870.263636 511.611003 
L 2875.336364 514.046247 
L 2877.872727 515.128455 
L 2880.409091 517.957023 
L 2885.481818 524.769159 
L 2888.018182 522.968487 
L 2890.554545 530.107515 
L 2893.090909 521.778783 
L 2895.627273 522.653091 
L 2898.163636 520.561359 
L 2903.236364 533.391603 
L 2905.772727 530.370627 
L 2908.309091 530.930775 
L 2910.845455 537.663243 
L 2913.381818 537.077631 
L 2915.918182 524.75722 
L 2918.454545 518.151748 
L 2920.990909 526.330276 
L 2923.527273 518.112424 
L 2926.063636 522.091372 
L 2928.6 525.71458 
L 2931.136364 525.720328 
L 2933.672727 528.0367 
L 2936.209091 531.849952 
L 2938.745455 534.485104 
L 2941.281818 531.871936 
L 2943.818182 517.630228 
L 2946.354545 525.54142 
L 2948.890909 526.924552 
L 2951.427273 525.387844 
L 2953.963636 535.969396 
L 2956.5 533.605708 
L 2959.036364 522.67192 
L 2961.572727 526.180252 
L 2964.109091 522.407464 
L 2966.645455 507.472757 
L 2969.181818 497.305889 
L 2971.718182 491.375561 
L 2974.254545 505.990373 
L 2989.472727 502.060505 
L 2992.009091 486.016997 
L 2994.545455 473.748029 
L 2997.081818 465.701741 
L 2999.618182 459.119993 
L 3002.154545 459.856325 
L 3004.690909 447.162317 
L 3007.227273 437.785469 
L 3009.763636 437.593181 
L 3012.3 431.293253 
L 3014.836364 421.907165 
L 3017.372727 413.699177 
L 3019.909091 392.934029 
L 3022.445455 390.136061 
L 3024.981818 389.472533 
L 3027.518182 373.969565 
L 3030.054545 364.976177 
L 3032.590909 349.34847 
L 3035.127273 344.332902 
L 3037.663636 334.055154 
L 3040.2 325.897986 
L 3042.736364 331.240458 
L 3045.272727 328.47021 
L 3047.809091 325.242582 
L 3050.345455 328.081014 
L 3052.881818 331.446126 
L 3055.418182 328.394058 
L 3057.954545 330.65961 
L 3060.490909 332.467782 
L 3063.027273 344.735634 
L 3065.563636 344.991486 
L 3068.1 346.005018 
L 3070.636364 349.75821 
L 3073.172727 349.478142 
L 3075.709091 354.095274 
L 3078.245455 354.494346 
L 3080.781818 356.856918 
L 3083.318182 360.157351 
L 3085.854545 353.566363 
L 3088.390909 351.673915 
L 3090.927273 348.349267 
L 3093.463636 338.838439 
L 3098.536364 327.973327 
L 3101.072727 322.934035 
L 3103.609091 314.813203 
L 3106.145455 301.628851 
L 3108.681818 295.919659 
L 3111.218182 280.083427 
L 3113.754545 285.568495 
L 3116.290909 273.603823 
L 3118.827273 274.787671 
L 3121.363636 275.430979 
L 3123.9 276.979807 
L 3126.436364 273.169435 
L 3128.972727 282.314167 
L 3131.509091 293.297659 
L 3134.045455 298.672471 
L 3136.581818 296.756924 
L 3139.118182 289.985756 
L 3141.654545 299.162828 
L 3144.190909 291.03338 
L 3146.727273 290.619332 
L 3149.263636 296.470004 
L 3151.8 292.318376 
L 3154.336364 283.167908 
L 3156.872727 282.4628 
L 3159.409091 282.506132 
L 3161.945455 265.691084 
L 3164.481818 271.204496 
L 3167.018182 273.682568 
L 3169.554545 277.47272 
L 3172.090909 266.141612 
L 3174.627273 268.282424 
L 3177.163636 267.988496 
L 3179.7 263.975468 
L 3182.236364 268.44938 
L 3184.772727 273.768752 
L 3187.309091 280.086045 
L 3189.845455 275.754237 
L 3192.381818 279.872409 
L 3194.918182 268.813881 
L 3197.454545 270.525033 
L 3199.990909 265.592625 
L 3202.527273 281.616537 
L 3205.063636 285.448269 
L 3207.6 291.779421 
L 3210.136364 286.856253 
L 3212.672727 283.328325 
L 3215.209091 287.372577 
L 3217.745455 280.892469 
L 3220.281818 273.335901 
L 3222.818182 280.475553 
L 3225.354545 284.242605 
L 3227.890909 291.705657 
L 3230.427273 310.358349 
L 3232.963636 309.962781 
L 3238.036364 316.141473 
L 3240.572727 321.756525 
L 3243.109091 338.302498 
L 3245.645455 354.10927 
L 3248.181818 365.245222 
L 3250.718182 373.516774 
L 3253.254545 389.688526 
L 3255.790909 400.593478 
L 3258.327273 419.80519 
L 3260.863636 429.287182 
L 3263.4 428.628274 
L 3265.936364 423.649666 
L 3268.472727 422.380918 
L 3271.009091 420.88117 
L 3273.545455 418.961002 
L 3276.081818 411.529174 
L 3278.618182 407.072626 
L 3281.154545 406.108798 
L 3288.763636 407.02069 
L 3291.3 393.582862 
L 3293.836364 371.501014 
L 3298.909091 347.646839 
L 3301.445455 347.260511 
L 3303.981818 343.880423 
L 3306.518182 339.636395 
L 3309.054545 328.928987 
L 3311.590909 321.413999 
L 3314.127273 311.930891 
L 3316.663636 314.834003 
L 3319.2 309.883115 
L 3321.736364 319.175687 
L 3324.272727 338.211839 
L 3326.809091 335.302991 
L 3329.345455 331.784303 
L 3331.881818 327.438635 
L 3334.418182 322.418447 
L 3336.954545 325.155239 
L 3339.490909 333.593111 
L 3342.027273 341.120843 
L 3344.563636 344.679995 
L 3347.1 341.512427 
L 3349.636364 346.808699 
L 3352.172727 349.882752 
L 3354.709091 345.892824 
L 3357.245455 356.511336 
L 3359.781818 371.315568 
L 3362.318182 378.87102 
L 3364.854545 390.593712 
L 3367.390909 391.126764 
L 3369.927273 393.752676 
L 3372.463636 400.453428 
L 3375 407.69472 
L 3377.536364 411.447912 
L 3380.072727 417.760584 
L 3382.609091 420.141636 
L 3385.145455 429.392628 
L 3387.681818 433.93584 
L 3390.218182 437.896932 
L 3392.754545 452.862864 
L 3395.290909 456.380436 
L 3397.827273 462.097128 
L 3402.9 450.236473 
L 3405.436364 443.913445 
L 3407.972727 440.302357 
L 3410.509091 430.144729 
L 3413.045455 429.000721 
L 3415.581818 423.111973 
L 3418.118182 421.607605 
L 3420.654545 414.106477 
L 3423.190909 402.530509 
L 3425.727273 397.302421 
L 3428.263636 403.758313 
L 3430.8 410.773225 
L 3433.336364 419.830177 
L 3435.872727 433.853629 
L 3438.409091 446.856061 
L 3440.945455 458.038213 
L 3443.481818 457.443985 
L 3446.018182 463.063657 
L 3448.554545 460.131709 
L 3451.090909 466.259581 
L 3453.627273 470.576413 
L 3458.7 472.832102 
L 3461.236364 468.47195 
L 3463.772727 472.926758 
L 3466.309091 469.693886 
L 3468.845455 468.235094 
L 3471.381818 467.122802 
L 3473.918182 470.83841 
L 3476.454545 478.028258 
L 3481.527273 482.219102 
L 3484.063636 483.933626 
L 3486.6 478.77359 
L 3489.136364 484.415114 
L 3494.209091 493.494542 
L 3496.745455 492.59477 
L 3499.281818 487.828058 
L 3504.354545 501.122054 
L 3506.890909 502.439882 
L 3509.427273 499.701351 
L 3511.963636 502.691619 
L 3514.5 502.499331 
L 3522.109091 523.536447 
L 3524.645455 516.256455 
L 3527.181818 510.778263 
L 3529.718182 516.850071 
L 3532.254545 529.098819 
L 3534.790909 532.989987 
L 3539.863636 535.217331 
L 3542.4 538.317855 
L 3544.936364 541.658619 
L 3547.472727 537.251643 
L 3550.009091 536.194167 
L 3552.545455 529.057395 
L 3555.081818 528.693543 
L 3557.618182 538.179531 
L 3588.054545 537.127299 
L 3590.590909 543.942928 
L 3593.127273 525.972256 
L 3595.663636 515.652304 
L 3598.2 503.392576 
L 3600.736364 500.991928 
L 3603.272727 494.96458 
L 3608.345455 487.449592 
L 3610.881818 478.155904 
L 3613.418182 480.218176 
L 3615.954545 472.929568 
L 3618.490909 452.28454 
L 3621.027273 445.573432 
L 3623.563636 427.266124 
L 3626.1 424.112416 
L 3628.636364 423.398068 
L 3631.172727 418.86298 
L 3633.709091 425.887132 
L 3636.245455 425.551624 
L 3638.781818 431.573236 
L 3641.318182 434.273068 
L 3643.854545 429.927401 
L 3646.390909 424.611533 
L 3648.927273 438.838265 
L 3651.463636 442.314257 
L 3654 448.308149 
L 3656.536364 461.042621 
L 3659.072727 464.680313 
L 3661.609091 468.789245 
L 3664.145455 459.514037 
L 3666.681818 469.970849 
L 3669.218182 468.189281 
L 3671.754545 465.040193 
L 3674.290909 456.120725 
L 3676.827273 453.941837 
L 3679.363636 447.554129 
L 3681.9 457.017641 
L 3684.436364 460.992593 
L 3686.972727 457.889705 
L 3689.509091 448.910177 
L 3692.045455 441.316649 
L 3694.581818 441.858941 
L 3697.118182 432.107874 
L 3699.654545 426.463986 
L 3702.190909 418.015758 
L 3704.727273 424.33767 
L 3707.263636 433.228302 
L 3709.8 433.890714 
L 3712.336364 427.752486 
L 3714.872727 424.076718 
L 3717.409091 415.80405 
L 3719.945455 420.227142 
L 3722.481818 423.536814 
L 3725.018182 410.708826 
L 3727.554545 410.682858 
L 3730.090909 410.04243 
L 3732.627273 420.993582 
L 3735.163636 419.475354 
L 3737.7 413.387946 
L 3740.236364 417.325938 
L 3742.772727 418.65825 
L 3745.309091 417.301722 
L 3747.845455 428.303695 
L 3750.381818 439.878547 
L 3752.918182 452.058619 
L 3755.454545 467.588191 
L 3757.990909 469.461043 
L 3760.527273 480.730975 
L 3763.063636 483.338407 
L 3765.6 475.583179 
L 3768.136364 478.800451 
L 3770.672727 478.945423 
L 3775.745455 475.477555 
L 3778.281818 479.808247 
L 3780.818182 485.437159 
L 3783.354545 473.001871 
L 3785.890909 466.600303 
L 3788.427273 461.002615 
L 3790.963636 453.681667 
L 3793.5 448.527499 
L 3796.036364 454.812451 
L 3798.572727 457.595443 
L 3801.109091 450.713395 
L 3803.645455 448.280408 
L 3806.181818 452.92526 
L 3808.718182 446.699252 
L 3811.254545 436.241324 
L 3813.790909 443.408696 
L 3816.327273 436.083128 
L 3818.863636 433.30826 
L 3821.4 433.014332 
L 3823.936364 418.809584 
L 3826.472727 412.920836 
L 3829.009091 420.536348 
L 3831.545455 436.31078 
L 3834.081818 435.942932 
L 3836.618182 426.071744 
L 3839.154545 427.182296 
L 3841.690909 438.322868 
L 3844.227273 433.34426 
L 3846.763636 447.242972 
L 3849.3 446.177504 
L 3851.836364 449.616536 
L 3854.372727 464.125089 
L 3856.909091 453.228261 
L 3859.445455 448.046373 
L 3861.981818 441.215145 
L 3864.518182 443.975037 
L 3867.054545 445.861749 
L 3869.590909 449.596461 
L 3872.127273 448.835913 
L 3874.663636 459.921045 
L 3879.736364 457.422753 
L 3882.272727 465.786081 
L 3884.809091 469.561749 
L 3887.345455 457.860417 
L 3889.881818 469.411545 
L 3892.418182 473.727753 
L 3894.954545 474.819201 
L 3897.490909 473.656089 
L 3900.027273 481.691397 
L 3902.563636 488.654865 
L 3907.636364 492.651669 
L 3910.172727 492.892414 
L 3912.709091 502.678702 
L 3917.781818 503.926606 
L 3920.318182 507.69703 
L 3922.854545 522.282874 
L 3925.390909 520.001098 
L 3927.927273 522.759742 
L 3930.463636 531.270286 
L 3933 533.76097 
L 3935.536364 540.243334 
L 3938.072727 534.704458 
L 3940.609091 522.647386 
L 3943.145455 515.284234 
L 3945.681818 501.956662 
L 3948.218182 499.833214 
L 3950.754545 496.065046 
L 3953.290909 488.342158 
L 3955.827273 486.18637 
L 3958.363636 478.006103 
L 3960.9 472.177415 
L 3963.436364 476.480387 
L 3965.972727 468.923819 
L 3968.509091 465.086351 
L 3971.045455 463.073783 
L 3973.581818 459.314855 
L 3976.118182 459.570707 
L 3978.654545 454.046939 
L 3981.190909 448.056551 
L 4016.7 434.013503 
L 4019.236364 423.236795 
L 4021.772727 419.593367 
L 4024.309091 411.052739 
L 4029.381818 383.544143 
L 4031.918182 374.601575 
L 4036.990909 352.720139 
L 4039.527273 341.735531 
L 4042.063636 329.420363 
L 4044.6 324.973056 
L 4047.136364 329.081988 
L 4049.672727 332.62728 
L 4052.209091 322.973232 
L 4054.745455 316.160484 
L 4057.281818 312.378456 
L 4059.818182 313.844748 
L 4062.354545 323.5716 
L 4064.890909 325.222692 
L 4067.427273 327.012384 
L 4069.963636 326.011596 
L 4072.5 326.068788 
L 4075.036364 336.48402 
L 4077.572727 338.744952 
L 4080.109091 333.687804 
L 4082.645455 334.036056 
L 4085.181818 335.160468 
L 4087.718182 321.81966 
L 4090.254545 324.112932 
L 4092.790909 313.858284 
L 4095.327273 319.907617 
L 4097.863636 315.788329 
L 4100.4 315.397381 
L 4102.936364 313.426393 
L 4105.472727 303.314965 
L 4108.009091 301.182277 
L 4110.545455 302.094169 
L 4113.081818 309.210721 
L 4115.618182 308.579533 
L 4118.154545 315.594445 
L 4120.690909 315.637777 
L 4123.227273 314.941909 
L 4125.763636 309.436621 
L 4128.3 311.905453 
L 4130.836364 317.081605 
L 4133.372727 322.830637 
L 4135.909091 320.651749 
L 4138.445455 330.147601 
L 4140.981818 339.121393 
L 4143.518182 343.798585 
L 4146.054545 352.897117 
L 4148.590909 371.19869 
L 4151.127273 377.460542 
L 4153.663636 377.277494 
L 4156.2 386.616266 
L 4158.736364 397.461158 
L 4161.272727 396.52043 
L 4163.809091 397.580162 
L 4166.345455 399.051074 
L 4168.881818 395.509286 
L 4171.418182 386.756138 
L 4173.954545 386.91959 
L 4176.490909 374.493542 
L 4179.027273 369.672014 
L 4181.563636 369.221006 
L 4184.1 373.815038 
L 4186.636364 367.11779 
L 4189.172727 367.664702 
L 4191.709091 372.415814 
L 4194.245455 376.663346 
L 4196.781818 383.119238 
L 4201.854545 389.066931 
L 4204.390909 394.266183 
L 4206.927273 403.706595 
L 4209.463636 420.867027 
L 4212 423.049419 
L 4214.536364 422.270391 
L 4214.536364 422.270391 
" clip-path="url(#p0670178ee4)" style="fill: none; stroke: #9932cc; stroke-width: 2.5; stroke-linecap: square"/>
   </g>
   <g id="line2d_14">
    <path d="M 582.463636 291.215787 
L 585 298.899449 
L 587.536364 305.92707 
L 590.072727 329.392651 
L 592.609091 347.780852 
L 595.145455 354.928594 
L 597.681818 365.513615 
L 600.218182 377.267496 
L 602.754545 377.041717 
L 605.290909 377.370339 
L 607.827273 369.55852 
L 610.363636 365.655221 
L 612.9 365.868342 
L 615.436364 366.474164 
L 617.972727 363.171465 
L 620.509091 356.057266 
L 623.045455 354.916727 
L 625.581818 360.419749 
L 628.118182 361.76015 
L 630.654545 357.958491 
L 633.190909 358.823032 
L 635.727273 366.733074 
L 638.263636 369.838315 
L 640.8 374.911676 
L 643.336364 375.877857 
L 645.872727 382.046159 
L 648.409091 391.51314 
L 650.945455 389.286901 
L 653.481818 386.695682 
L 656.018182 382.829344 
L 658.554545 381.115925 
L 661.090909 390.333426 
L 663.627273 396.765067 
L 666.163636 394.275489 
L 668.7 398.88685 
L 671.236364 402.204611 
L 673.772727 403.960812 
L 676.309091 393.880574 
L 678.845455 386.784855 
L 681.381818 390.920356 
L 683.918182 389.017517 
L 686.454545 382.721059 
L 688.990909 371.81384 
L 691.527273 355.468881 
L 694.063636 342.464182 
L 696.6 333.774564 
L 699.136364 327.057685 
L 701.672727 316.053446 
L 704.209091 312.653727 
L 706.745455 321.210569 
L 709.281818 328.96815 
L 711.818182 330.673531 
L 714.354545 331.491872 
L 716.890909 341.989114 
L 719.427273 351.530015 
L 721.963636 365.894196 
L 724.5 371.826877 
L 727.036364 380.762559 
L 729.572727 384.52384 
L 732.109091 382.828901 
L 734.645455 379.955862 
L 737.181818 375.761504 
L 739.718182 372.107685 
L 742.254545 369.539566 
L 744.790909 375.920387 
L 747.327273 378.831589 
L 749.863636 375.09461 
L 752.4 372.378651 
L 754.936364 371.658532 
L 757.472727 376.690314 
L 760.009091 382.193335 
L 762.545455 392.284016 
L 767.618182 398.535477 
L 770.154545 398.623859 
L 772.690909 394.48956 
L 775.227273 395.289421 
L 777.763636 381.115862 
L 780.3 367.884784 
L 782.836364 375.411365 
L 785.372727 369.613866 
L 787.909091 378.124507 
L 790.445455 377.958788 
L 792.981818 383.30011 
L 795.518182 395.326571 
L 798.054545 402.127812 
L 800.590909 413.225653 
L 803.127273 425.510835 
L 805.663636 433.915216 
L 808.2 451.411757 
L 810.736364 470.192658 
L 813.272727 474.55454 
L 815.809091 478.426701 
L 818.345455 476.907322 
L 820.881818 472.574363 
L 823.418182 462.434065 
L 825.954545 451.263506 
L 828.490909 443.696547 
L 831.027273 431.509588 
L 833.563636 420.27897 
L 836.1 413.086231 
L 838.636364 405.306752 
L 841.172727 398.765433 
L 843.709091 395.453495 
L 846.245455 393.310416 
L 848.781818 391.342897 
L 851.318182 388.081778 
L 853.854545 389.92576 
L 856.390909 386.239601 
L 858.927273 388.628742 
L 861.463636 392.718043 
L 864 393.000465 
L 866.536364 389.600746 
L 869.072727 389.633687 
L 871.609091 377.479068 
L 874.145455 374.37503 
L 876.681818 370.065171 
L 879.218182 370.994392 
L 881.754545 381.533213 
L 884.290909 386.763655 
L 886.827273 394.913936 
L 889.363636 394.614237 
L 891.9 385.721338 
L 894.436364 386.36874 
L 896.972727 386.854441 
L 899.509091 390.065942 
L 902.045455 406.121043 
L 904.581818 399.847685 
L 907.118182 403.142346 
L 909.654545 399.922807 
L 912.190909 391.150028 
L 914.727273 389.39503 
L 917.263636 386.406491 
L 919.8 390.925452 
L 922.336364 400.549513 
L 924.872727 405.183975 
L 927.409091 408.691156 
L 929.945455 412.655717 
L 932.481818 409.639458 
L 935.018182 427.41782 
L 937.554545 437.004921 
L 940.090909 443.944762 
L 942.627273 456.373163 
L 947.7 457.36134 
L 950.236364 460.082016 
L 952.772727 458.806392 
L 955.309091 463.721569 
L 957.845455 451.773745 
L 960.381818 457.160161 
L 962.918182 461.248358 
L 965.454545 455.754674 
L 967.990909 452.279931 
L 970.527273 452.353347 
L 973.063636 455.032443 
L 975.6 456.5473 
L 978.136364 455.171141 
L 983.209091 459.106877 
L 985.745455 463.777194 
L 990.818182 464.865905 
L 993.354545 479.842336 
L 995.890909 482.575768 
L 998.427273 483.900099 
L 1000.963636 496.358631 
L 1008.572727 502.526629 
L 1011.109091 498.024035 
L 1013.645455 496.940242 
L 1016.181818 502.047249 
L 1018.718182 505.07636 
L 1021.254545 505.841671 
L 1023.790909 499.082108 
L 1026.327273 497.921984 
L 1028.863636 495.94412 
L 1031.4 494.839437 
L 1033.936364 491.105973 
L 1036.472727 490.65271 
L 1039.009091 485.201711 
L 1041.545455 485.816772 
L 1044.081818 487.406653 
L 1046.618182 490.807575 
L 1049.154545 489.851836 
L 1054.227273 485.439232 
L 1061.836364 498.173859 
L 1069.445455 504.586115 
L 1071.981818 508.905512 
L 1074.518182 508.725029 
L 1077.054545 515.183486 
L 1079.590909 514.125203 
L 1084.663636 514.340934 
L 1087.2 518.552966 
L 1089.736364 519.082858 
L 1094.809091 517.800605 
L 1097.345455 519.987972 
L 1102.418182 525.806659 
L 1107.490909 522.243231 
L 1112.563636 519.868248 
L 1115.1 513.566264 
L 1117.636364 513.191741 
L 1120.172727 513.020498 
L 1122.709091 511.754315 
L 1125.245455 518.477216 
L 1127.781818 520.021098 
L 1137.927273 520.041685 
L 1143 518.149592 
L 1148.072727 515.263094 
L 1150.609091 510.035361 
L 1160.754545 506.121815 
L 1163.290909 508.004262 
L 1165.827273 502.166689 
L 1168.363636 495.090956 
L 1170.9 493.753263 
L 1173.436364 484.26127 
L 1175.972727 483.048317 
L 1178.509091 477.620619 
L 1181.045455 477.008065 
L 1183.581818 477.514657 
L 1186.118182 478.469388 
L 1188.654545 474.190764 
L 1191.190909 466.147946 
L 1193.727273 466.130067 
L 1196.263636 470.177788 
L 1198.8 472.973489 
L 1201.336364 475.168591 
L 1203.872727 484.178192 
L 1211.481818 481.252123 
L 1214.018182 481.287475 
L 1216.554545 476.448726 
L 1219.090909 468.168078 
L 1221.627273 465.611609 
L 1224.163636 472.877261 
L 1226.7 475.102492 
L 1229.236364 467.561044 
L 1231.772727 466.464495 
L 1234.309091 459.930206 
L 1236.845455 458.390138 
L 1239.381818 451.306069 
L 1241.918182 453.089991 
L 1244.454545 457.876912 
L 1249.527273 464.349028 
L 1254.6 471.37444 
L 1257.136364 473.738271 
L 1259.672727 472.041123 
L 1262.209091 469.614014 
L 1264.745455 472.000945 
L 1267.281818 467.346997 
L 1269.818182 472.926348 
L 1272.354545 474.16752 
L 1274.890909 475.681271 
L 1279.963636 457.858714 
L 1282.5 451.852211 
L 1285.036364 444.747252 
L 1287.572727 443.107753 
L 1290.109091 436.640354 
L 1292.645455 442.171096 
L 1295.181818 437.034257 
L 1297.718182 433.057038 
L 1302.790909 412.406841 
L 1305.327273 400.534042 
L 1307.863636 391.132943 
L 1310.4 386.328744 
L 1315.472727 372.331347 
L 1318.009091 367.079008 
L 1320.545455 360.269729 
L 1323.081818 356.213971 
L 1325.618182 360.044552 
L 1328.154545 361.052313 
L 1330.690909 361.639654 
L 1338.3 356.188656 
L 1340.836364 357.256477 
L 1343.372727 366.256838 
L 1350.981818 364.159959 
L 1353.518182 362.252501 
L 1356.054545 361.744902 
L 1358.590909 358.760983 
L 1361.127273 357.126104 
L 1366.2 353.103287 
L 1368.736364 350.368848 
L 1371.272727 347.902369 
L 1373.809091 347.62115 
L 1376.345455 354.718072 
L 1378.881818 341.205173 
L 1381.418182 334.686954 
L 1383.954545 334.682935 
L 1386.490909 333.094257 
L 1389.027273 327.245938 
L 1391.563636 324.169619 
L 1394.1 316.02978 
L 1396.636364 310.888322 
L 1399.172727 310.644063 
L 1404.245455 316.549625 
L 1406.781818 309.028867 
L 1409.318182 317.502548 
L 1411.854545 319.475889 
L 1414.390909 310.05169 
L 1416.927273 309.493272 
L 1419.463636 306.915913 
L 1422 303.262094 
L 1424.536364 300.855675 
L 1429.609091 291.039378 
L 1432.145455 287.399419 
L 1434.681818 281.5973 
L 1437.218182 284.023402 
L 1439.754545 281.533823 
L 1442.290909 277.344084 
L 1444.827273 281.673625 
L 1447.363636 275.520387 
L 1449.9 280.002388 
L 1452.436364 286.138349 
L 1454.972727 285.49215 
L 1457.509091 284.166812 
L 1460.045455 282.097653 
L 1462.581818 278.471554 
L 1465.118182 280.370975 
L 1467.654545 277.738177 
L 1470.190909 282.608258 
L 1472.727273 288.522459 
L 1475.263636 289.39624 
L 1477.8 291.180162 
L 1480.336364 293.352163 
L 1482.872727 299.137004 
L 1485.409091 308.654805 
L 1487.945455 320.889167 
L 1490.481818 329.298168 
L 1493.018182 325.357909 
L 1495.554545 324.36059 
L 1498.090909 321.690832 
L 1500.627273 322.245833 
L 1503.163636 329.430534 
L 1505.7 334.822675 
L 1508.236364 345.476997 
L 1510.772727 348.161818 
L 1513.309091 343.311419 
L 1515.845455 337.19052 
L 1518.381818 323.663762 
L 1520.918182 320.850783 
L 1523.454545 334.780684 
L 1525.990909 336.061025 
L 1528.527273 336.278767 
L 1533.6 331.096329 
L 1536.136364 324.94771 
L 1538.672727 310.838832 
L 1541.209091 308.441653 
L 1543.745455 304.011674 
L 1546.281818 305.832555 
L 1548.818182 308.457317 
L 1551.354545 300.243558 
L 1553.890909 292.440979 
L 1556.427273 288.75482 
L 1558.963636 283.904422 
L 1561.5 282.786983 
L 1564.036364 277.858044 
L 1566.572727 280.177885 
L 1569.109091 283.343187 
L 1571.645455 278.797708 
L 1574.181818 281.367029 
L 1576.718182 281.36763 
L 1579.254545 286.976912 
L 1581.790909 295.561473 
L 1584.327273 299.031694 
L 1586.863636 309.746075 
L 1589.4 322.082077 
L 1591.936364 324.762278 
L 1594.472727 331.101519 
L 1597.009091 335.52808 
L 1599.545455 343.262562 
L 1602.081818 337.580563 
L 1604.618182 335.137184 
L 1607.154545 332.365785 
L 1609.690909 329.866967 
L 1612.227273 334.829448 
L 1614.763636 333.790549 
L 1619.836364 322.828492 
L 1622.372727 323.813153 
L 1627.445455 324.789175 
L 1629.981818 332.773137 
L 1632.518182 346.573678 
L 1635.054545 348.473099 
L 1637.590909 359.01192 
L 1640.127273 360.578702 
L 1642.663636 356.989563 
L 1645.2 352.199224 
L 1647.736364 355.646345 
L 1650.272727 352.283587 
L 1652.809091 355.707608 
L 1655.345455 355.038309 
L 1657.881818 359.94073 
L 1660.418182 354.420431 
L 1662.954545 363.831973 
L 1665.490909 372.675254 
L 1668.027273 368.055855 
L 1670.563636 377.102416 
L 1673.1 380.309298 
L 1675.636364 381.025999 
L 1678.172727 374.59556 
L 1680.709091 374.933421 
L 1683.245455 371.177963 
L 1685.781818 368.314164 
L 1688.318182 361.916065 
L 1690.854545 366.245606 
L 1693.390909 359.487148 
L 1695.927273 361.063169 
L 1698.463636 374.54493 
L 1703.536364 379.466433 
L 1706.072727 391.691554 
L 1708.609091 401.352575 
L 1711.145455 405.548136 
L 1713.681818 408.755018 
L 1716.218182 408.418359 
L 1718.754545 408.74698 
L 1721.290909 401.327861 
L 1723.827273 402.002983 
L 1726.363636 396.247064 
L 1728.9 386.129865 
L 1733.972727 368.870748 
L 1736.509091 365.988469 
L 1739.045455 365.44391 
L 1741.581818 370.757511 
L 1744.118182 364.003673 
L 1746.654545 362.114694 
L 1749.190909 362.147635 
L 1751.727273 361.820216 
L 1754.263636 353.851318 
L 1756.8 350.927459 
L 1759.336364 350.64162 
L 1761.872727 347.851741 
L 1764.409091 344.886303 
L 1766.945455 339.920404 
L 1769.481818 337.430825 
L 1772.018182 329.831526 
L 1774.554545 331.800248 
L 1777.090909 327.222429 
L 1779.627273 326.99665 
L 1782.163636 327.875051 
L 1784.7 333.807733 
L 1787.236364 339.098234 
L 1789.772727 342.231195 
L 1792.309091 341.677396 
L 1794.845455 347.725578 
L 1797.381818 348.437659 
L 1799.918182 352.68404 
L 1802.454545 356.436081 
L 1804.990909 366.628403 
L 1807.527273 378.128184 
L 1810.063636 388.542265 
L 1812.6 391.615166 
L 1815.136364 389.726188 
L 1817.672727 396.508949 
L 1820.209091 392.47167 
L 1822.745455 404.447311 
L 1825.281818 402.258033 
L 1827.818182 409.692214 
L 1830.354545 406.149275 
L 1832.890909 410.866896 
L 1835.427273 406.506218 
L 1837.963636 400.699479 
L 1840.5 402.88996 
L 1843.036364 411.017141 
L 1845.572727 418.340443 
L 1848.109091 412.117904 
L 1850.645455 418.092165 
L 1853.181818 412.927606 
L 1855.718182 423.808308 
L 1858.254545 421.193989 
L 1860.790909 425.94857 
L 1863.327273 419.527371 
L 1865.863636 422.604893 
L 1870.936364 429.321869 
L 1873.472727 427.274705 
L 1876.009091 428.530842 
L 1878.545455 429.052398 
L 1881.081818 436.138974 
L 1883.618182 440.347291 
L 1886.154545 444.925207 
L 1888.690909 446.934403 
L 1891.227273 450.75926 
L 1893.763636 454.930616 
L 1896.3 468.614552 
L 1898.836364 470.485149 
L 1901.372727 466.32775 
L 1903.909091 465.806291 
L 1906.445455 467.936713 
L 1908.981818 472.529594 
L 1911.518182 470.040015 
L 1914.054545 457.118476 
L 1916.590909 462.875598 
L 1919.127273 461.725819 
L 1921.663636 468.44852 
L 1931.809091 472.848667 
L 1934.345455 470.780813 
L 1939.418182 470.444355 
L 1941.954545 483.145536 
L 1944.490909 488.801218 
L 1949.563636 491.249515 
L 1957.172727 491.879942 
L 1959.709091 498.396249 
L 1962.245455 511.435996 
L 1964.781818 506.887403 
L 1967.318182 512.32725 
L 1969.854545 511.160497 
L 1972.390909 508.102858 
L 1977.463636 511.715395 
L 1980 514.090877 
L 1982.536364 515.694819 
L 1985.072727 514.72542 
L 1987.609091 514.745807 
L 1990.145455 517.383323 
L 1992.681818 519.036779 
L 1997.754545 523.955471 
L 2018.045455 530.275528 
L 2025.654545 525.958135 
L 2028.190909 528.501443 
L 2030.727273 524.64143 
L 2033.263636 526.266463 
L 2038.336364 528.70351 
L 2043.409091 521.026272 
L 2045.945455 519.983355 
L 2048.481818 520.441937 
L 2051.018182 518.31794 
L 2053.554545 510.053962 
L 2056.090909 502.89989 
L 2058.627273 502.568051 
L 2061.163636 504.830243 
L 2063.7 498.748714 
L 2068.772727 499.443621 
L 2076.381818 494.721678 
L 2078.918182 495.110559 
L 2081.454545 498.083126 
L 2083.990909 494.703192 
L 2086.527273 486.546179 
L 2089.063636 480.588286 
L 2091.6 483.782612 
L 2094.136364 486.089899 
L 2099.209091 475.9498 
L 2101.745455 476.468042 
L 2104.281818 479.998524 
L 2106.818182 483.86737 
L 2109.354545 485.132747 
L 2111.890909 483.593783 
L 2114.427273 487.797479 
L 2116.963636 490.906236 
L 2122.036364 498.107207 
L 2127.109091 506.60479 
L 2129.645455 509.781742 
L 2132.181818 517.168618 
L 2134.718182 509.900854 
L 2137.254545 505.109411 
L 2139.790909 508.536947 
L 2142.327273 499.610603 
L 2144.863636 493.38234 
L 2147.4 484.395936 
L 2149.936364 484.894392 
L 2152.472727 479.115374 
L 2155.009091 474.084795 
L 2157.545455 465.843316 
L 2160.081818 459.897977 
L 2162.618182 458.854459 
L 2165.154545 461.25746 
L 2167.690909 464.298021 
L 2170.227273 456.379942 
L 2172.763636 454.352364 
L 2175.3 455.803645 
L 2177.836364 455.688746 
L 2180.372727 449.701827 
L 2182.909091 449.850269 
L 2185.445455 447.13893 
L 2187.981818 457.141831 
L 2190.518182 458.436032 
L 2193.054545 454.264774 
L 2195.590909 452.010815 
L 2198.127273 444.032676 
L 2200.663636 445.899757 
L 2203.2 446.265339 
L 2208.272727 440.16292 
L 2210.809091 432.656021 
L 2213.345455 429.371802 
L 2215.881818 420.940904 
L 2218.418182 419.139705 
L 2220.954545 403.219786 
L 2223.490909 404.985227 
L 2226.027273 407.226529 
L 2231.1 404.11325 
L 2233.636364 399.396831 
L 2236.172727 389.154892 
L 2238.709091 385.648914 
L 2241.245455 384.540715 
L 2243.781818 381.464396 
L 2246.318182 373.190577 
L 2248.854545 367.226758 
L 2251.390909 360.56994 
L 2253.927273 354.486001 
L 2256.463636 334.514342 
L 2259 319.744803 
L 2261.536364 314.326145 
L 2264.072727 311.332986 
L 2266.609091 307.286467 
L 2269.145455 308.053988 
L 2271.681818 299.13337 
L 2276.754545 293.857931 
L 2279.290909 293.997132 
L 2281.827273 292.574773 
L 2294.509091 284.314815 
L 2297.045455 278.180056 
L 2299.581818 273.024737 
L 2302.118182 263.637498 
L 2304.654545 259.72496 
L 2307.190909 256.468461 
L 2309.727273 256.644622 
L 2312.263636 247.881083 
L 2314.8 242.448565 
L 2317.336364 244.195526 
L 2319.872727 236.051067 
L 2322.409091 231.528688 
L 2324.945455 236.55123 
L 2327.481818 246.577231 
L 2330.018182 262.359752 
L 2332.554545 278.853753 
L 2335.090909 282.476435 
L 2337.627273 280.726056 
L 2340.163636 274.752997 
L 2342.7 282.806258 
L 2345.236364 284.60866 
L 2350.309091 292.052682 
L 2352.845455 290.634943 
L 2357.918182 286.20386 
L 2360.454545 273.082556 
L 2365.527273 260.958068 
L 2368.063636 251.235979 
L 2370.6 245.07129 
L 2373.136364 240.029262 
L 2375.672727 240.494273 
L 2378.209091 233.022125 
L 2380.745455 230.645836 
L 2383.281818 226.361488 
L 2385.818182 228.004599 
L 2388.354545 228.876171 
L 2390.890909 235.278987 
L 2393.427273 248.265303 
L 2395.963636 246.367085 
L 2398.5 240.999246 
L 2401.036364 239.743207 
L 2403.572727 248.101388 
L 2406.109091 245.91211 
L 2408.645455 251.124071 
L 2411.181818 264.421032 
L 2413.718182 271.120633 
L 2416.254545 279.067635 
L 2418.790909 288.955036 
L 2421.327273 288.840137 
L 2423.863636 284.507178 
L 2426.4 298.26152 
L 2428.936364 304.281981 
L 2434.009091 296.175083 
L 2436.545455 300.601645 
L 2439.081818 295.996106 
L 2441.618182 291.053307 
L 2444.154545 281.592148 
L 2446.690909 276.77409 
L 2449.227273 269.969431 
L 2451.763636 269.812952 
L 2454.3 275.473053 
L 2456.836364 272.248895 
L 2459.372727 278.370996 
L 2461.909091 287.408317 
L 2464.445455 289.122938 
L 2466.981818 292.63012 
L 2469.518182 294.575741 
L 2472.054545 301.187562 
L 2474.590909 309.776743 
L 2477.127273 311.463645 
L 2479.663636 321.508126 
L 2482.2 327.972107 
L 2484.736364 326.448108 
L 2487.272727 330.00149 
L 2489.809091 325.368231 
L 2492.345455 326.851852 
L 2494.881818 335.459513 
L 2497.418182 338.370715 
L 2499.954545 339.752696 
L 2502.490909 327.505677 
L 2505.027273 320.423818 
L 2507.563636 311.67876 
L 2510.1 299.015941 
L 2512.636364 289.125122 
L 2515.172727 284.718243 
L 2517.709091 271.237685 
L 2520.245455 269.746026 
L 2522.781818 268.762567 
L 2525.318182 262.096508 
L 2527.854545 259.36207 
L 2530.390909 258.471011 
L 2532.927273 255.209892 
L 2535.463636 257.529733 
L 2538 262.090275 
L 2540.536364 262.589836 
L 2545.609091 267.280338 
L 2548.145455 276.710359 
L 2550.681818 273.218241 
L 2553.218182 273.394402 
L 2555.754545 277.317383 
L 2558.290909 273.169224 
L 2560.827273 276.454646 
L 2563.363636 280.659447 
L 2568.436364 279.748803 
L 2570.972727 275.55334 
L 2573.509091 283.194316 
L 2576.045455 280.112272 
L 2581.118182 260.212925 
L 2583.654545 265.114241 
L 2586.190909 264.624018 
L 2588.727273 257.134494 
L 2591.263636 254.06169 
L 2593.8 245.477227 
L 2596.336364 243.222163 
L 2598.872727 244.377764 
L 2601.409091 249.723706 
L 2606.481818 238.759942 
L 2609.018182 245.957398 
L 2611.554545 248.382395 
L 2614.090909 255.062411 
L 2616.627273 260.601287 
L 2619.163636 260.429844 
L 2621.7 265.1325 
L 2624.236364 272.297617 
L 2626.772727 275.979253 
L 2629.309091 283.513969 
L 2631.845455 281.388266 
L 2634.381818 280.223522 
L 2636.918182 287.440563 
L 2639.454545 281.860204 
L 2641.990909 282.165726 
L 2644.527273 278.498047 
L 2647.063636 270.579968 
L 2652.136364 263.665031 
L 2654.672727 254.739792 
L 2657.209091 257.549353 
L 2659.745455 250.582994 
L 2662.281818 247.816216 
L 2664.818182 244.615157 
L 2667.354545 238.886958 
L 2669.890909 242.925439 
L 2672.427273 250.230261 
L 2674.963636 247.773022 
L 2677.5 255.465923 
L 2680.036364 261.153744 
L 2682.572727 264.309806 
L 2685.109091 275.999007 
L 2687.645455 277.288588 
L 2690.181818 286.473749 
L 2692.718182 297.682471 
L 2695.254545 307.075532 
L 2697.790909 311.954853 
L 2700.327273 308.499694 
L 2702.863636 308.458716 
L 2705.4 318.623317 
L 2707.936364 325.017998 
L 2710.472727 333.260679 
L 2713.009091 342.168641 
L 2715.545455 356.643702 
L 2720.618182 356.062784 
L 2723.154545 352.080946 
L 2725.690909 346.343507 
L 2728.227273 342.892968 
L 2730.763636 346.266169 
L 2733.3 345.458271 
L 2735.836364 347.440852 
L 2738.372727 351.317633 
L 2740.909091 343.311774 
L 2743.445455 343.349336 
L 2745.981818 324.500337 
L 2748.518182 324.921358 
L 2751.054545 327.176519 
L 2753.590909 332.868961 
L 2756.127273 337.993142 
L 2758.663636 345.649083 
L 2761.2 348.213784 
L 2763.736364 356.156166 
L 2766.272727 363.682747 
L 2768.809091 357.746648 
L 2771.345455 362.468889 
L 2773.881818 357.812531 
L 2776.418182 368.074152 
L 2778.954545 383.108233 
L 2781.490909 387.714974 
L 2784.027273 384.892756 
L 2786.563636 383.350277 
L 2789.1 388.285038 
L 2791.636364 391.903099 
L 2794.172727 392.439621 
L 2796.709091 384.886522 
L 2801.781818 383.879963 
L 2804.318182 391.790004 
L 2806.854545 401.663546 
L 2809.390909 407.531547 
L 2811.927273 400.052368 
L 2814.463636 400.062209 
L 2817 409.797151 
L 2819.536364 412.209392 
L 2822.072727 418.423893 
L 2824.609091 429.558694 
L 2827.145455 435.015516 
L 2829.681818 446.649277 
L 2832.218182 447.259718 
L 2834.754545 438.944319 
L 2837.290909 440.36326 
L 2839.827273 433.272162 
L 2842.363636 440.101123 
L 2844.9 450.154844 
L 2847.436364 453.089145 
L 2849.972727 463.974467 
L 2852.509091 464.866728 
L 2855.045455 455.461009 
L 2857.581818 455.29529 
L 2860.118182 453.872932 
L 2862.654545 455.647613 
L 2865.190909 466.283454 
L 2867.727273 463.433515 
L 2872.8 470.958992 
L 2875.336364 467.904668 
L 2880.409091 461.50898 
L 2882.945455 459.091111 
L 2885.481818 462.905623 
L 2888.018182 466.022514 
L 2890.554545 477.164345 
L 2893.090909 479.768417 
L 2895.627273 477.604648 
L 2898.163636 486.01606 
L 2900.7 489.082131 
L 2903.236364 497.290263 
L 2905.772727 503.083239 
L 2913.381818 506.471606 
L 2915.918182 510.221437 
L 2920.990909 512.265384 
L 2923.527273 513.08965 
L 2928.6 515.811632 
L 2931.136364 505.491354 
L 2933.672727 506.855055 
L 2936.209091 511.863937 
L 2938.745455 510.732839 
L 2941.281818 507.00992 
L 2943.818182 499.031982 
L 2948.890909 491.538039 
L 2951.427273 486.970765 
L 2953.963636 482.084712 
L 2956.5 480.664763 
L 2959.036364 468.845195 
L 2961.572727 459.604691 
L 2964.109091 466.192307 
L 2966.645455 463.807884 
L 2969.181818 453.97602 
L 2971.718182 438.595536 
L 2974.254545 440.595493 
L 2976.790909 434.385709 
L 2979.327273 436.01717 
L 2981.863636 430.570792 
L 2984.4 422.186093 
L 2986.936364 423.868374 
L 2989.472727 424.802215 
L 2992.009091 416.338977 
L 2994.545455 411.359218 
L 2997.081818 407.164859 
L 2999.618182 410.30706 
L 3002.154545 416.586242 
L 3004.690909 407.369943 
L 3007.227273 411.879664 
L 3009.763636 399.230705 
L 3012.3 406.627927 
L 3014.836364 415.207868 
L 3017.372727 412.746009 
L 3019.909091 414.44215 
L 3022.445455 411.333492 
L 3024.981818 406.048813 
L 3027.518182 395.649794 
L 3030.054545 379.498875 
L 3032.590909 376.561157 
L 3035.127273 374.778438 
L 3037.663636 363.469279 
L 3040.2 369.26336 
L 3042.736364 354.142702 
L 3045.272727 350.110043 
L 3047.809091 337.539624 
L 3050.345455 327.533305 
L 3052.881818 332.421867 
L 3055.418182 325.654168 
L 3057.954545 329.045849 
L 3060.490909 337.05753 
L 3063.027273 346.201112 
L 3065.563636 341.373813 
L 3068.1 345.185914 
L 3070.636364 341.726135 
L 3073.172727 349.386697 
L 3075.709091 355.213118 
L 3078.245455 361.875759 
L 3080.781818 369.31918 
L 3083.318182 370.391622 
L 3085.854545 372.281803 
L 3088.390909 371.062724 
L 3090.927273 361.841805 
L 3093.463636 345.390587 
L 3096 335.499768 
L 3098.536364 327.572449 
L 3101.072727 324.90731 
L 3103.609091 313.755232 
L 3106.145455 296.056613 
L 3108.681818 286.475334 
L 3111.218182 270.638575 
L 3113.754545 263.468937 
L 3116.290909 255.074998 
L 3118.827273 248.104019 
L 3121.363636 257.64492 
L 3123.9 261.484741 
L 3126.436364 267.066303 
L 3128.972727 267.769144 
L 3131.509091 271.405685 
L 3134.045455 272.635206 
L 3136.581818 276.419588 
L 3139.118182 275.306769 
L 3141.654545 276.93361 
L 3144.190909 274.795151 
L 3146.727273 279.568213 
L 3149.263636 280.003094 
L 3151.8 270.638955 
L 3154.336364 260.267656 
L 3156.872727 260.522358 
L 3159.409091 261.225199 
L 3161.945455 251.72708 
L 3164.481818 252.831861 
L 3167.018182 250.277603 
L 3169.554545 254.838144 
L 3172.090909 258.012685 
L 3174.627273 259.768886 
L 3177.163636 264.930028 
L 3179.7 266.741669 
L 3182.236364 267.41679 
L 3184.772727 267.944071 
L 3187.309091 266.891313 
L 3189.845455 266.660914 
L 3192.381818 265.737515 
L 3194.918182 266.398776 
L 3197.454545 262.620218 
L 3199.990909 257.575779 
L 3202.527273 268.95544 
L 3205.063636 273.474401 
L 3207.6 274.666963 
L 3210.136364 271.974104 
L 3212.672727 273.563985 
L 3215.209091 279.616786 
L 3217.745455 279.039888 
L 3220.281818 276.166849 
L 3222.818182 286.52549 
L 3225.354545 286.429071 
L 3227.890909 297.577733 
L 3230.427273 301.158834 
L 3232.963636 293.023615 
L 3235.5 296.133476 
L 3238.036364 294.831238 
L 3240.572727 296.966279 
L 3243.109091 304.2018 
L 3245.645455 309.515401 
L 3248.181818 317.263743 
L 3250.718182 327.599284 
L 3253.254545 323.136965 
L 3255.790909 332.442246 
L 3258.327273 334.697408 
L 3260.863636 338.458689 
L 3263.4 340.28419 
L 3265.936364 337.036931 
L 3268.472727 337.518013 
L 3273.545455 343.428195 
L 3276.081818 341.414476 
L 3278.618182 343.101378 
L 3281.154545 345.102439 
L 3283.690909 342.52046 
L 3286.227273 330.107121 
L 3288.763636 326.092943 
L 3291.3 320.914524 
L 3293.836364 313.601665 
L 3296.372727 309.753806 
L 3298.909091 308.040388 
L 3301.445455 309.269909 
L 3303.981818 305.39895 
L 3306.518182 309.497491 
L 3309.054545 301.140513 
L 3311.590909 293.693674 
L 3314.127273 297.297875 
L 3316.663636 306.265896 
L 3319.2 306.996458 
L 3321.736364 313.381899 
L 3324.272727 326.49406 
L 3326.809091 330.490961 
L 3329.345455 322.374223 
L 3331.881818 313.065524 
L 3334.418182 302.440125 
L 3336.954545 293.755126 
L 3339.490909 297.983028 
L 3342.027273 294.721909 
L 3347.1 280.937031 
L 3349.636364 279.371453 
L 3352.172727 276.872634 
L 3354.709091 269.213275 
L 3357.245455 271.362176 
L 3359.781818 282.566278 
L 3362.318182 290.993759 
L 3364.854545 295.82688 
L 3367.390909 295.684261 
L 3369.927273 299.376243 
L 3375 315.732245 
L 3377.536364 316.869366 
L 3380.072727 317.258048 
L 3382.609091 319.282209 
L 3385.145455 324.27241 
L 3387.681818 324.966011 
L 3390.218182 326.786893 
L 3392.754545 335.819594 
L 3395.290909 345.873315 
L 3397.827273 347.601796 
L 3400.363636 336.047778 
L 3402.9 330.356539 
L 3405.436364 329.53478 
L 3407.972727 325.913301 
L 3410.509091 320.790322 
L 3413.045455 313.967184 
L 3415.581818 314.111005 
L 3418.118182 313.182986 
L 3420.654545 306.992787 
L 3423.190909 296.210309 
L 3425.727273 286.13469 
L 3428.263636 288.339031 
L 3433.336364 299.446714 
L 3435.872727 302.907695 
L 3440.945455 327.320977 
L 3443.481818 337.651899 
L 3446.018182 341.5564 
L 3448.554545 339.316301 
L 3451.090909 345.988182 
L 3453.627273 358.495124 
L 3456.163636 367.010385 
L 3458.7 366.128566 
L 3461.236364 368.660927 
L 3463.772727 367.802209 
L 3466.309091 357.49559 
L 3468.845455 351.762771 
L 3471.381818 344.893432 
L 3473.918182 344.358114 
L 3476.454545 343.078975 
L 3478.990909 355.535096 
L 3481.527273 356.473557 
L 3484.063636 345.654119 
L 3486.6 346.00584 
L 3489.136364 354.682801 
L 3491.672727 364.560962 
L 3494.209091 360.685384 
L 3496.745455 364.811645 
L 3499.281818 364.410306 
L 3501.818182 371.599627 
L 3504.354545 376.913229 
L 3506.890909 376.85839 
L 3509.427273 368.894111 
L 3511.963636 373.353012 
L 3514.5 388.008254 
L 3517.036364 391.501575 
L 3519.572727 399.069736 
L 3522.109091 400.470197 
L 3527.181818 417.71786 
L 3529.718182 425.706441 
L 3532.254545 427.199302 
L 3534.790909 427.380084 
L 3537.327273 436.500565 
L 3539.863636 439.079126 
L 3542.4 436.196847 
L 3544.936364 427.701269 
L 3547.472727 429.04629 
L 3550.009091 420.629251 
L 3552.545455 410.096252 
L 3555.081818 410.789854 
L 3557.618182 416.496155 
L 3560.154545 419.125536 
L 3562.690909 416.529697 
L 3565.227273 411.637719 
L 3567.763636 400.25002 
L 3570.3 394.313921 
L 3572.836364 389.634462 
L 3575.372727 385.971404 
L 3577.909091 376.639605 
L 3580.445455 370.107526 
L 3582.981818 366.523007 
L 3585.518182 363.252649 
L 3588.054545 352.06361 
L 3590.590909 346.811271 
L 3593.127273 346.215892 
L 3595.663636 346.618434 
L 3598.2 347.630815 
L 3600.736364 361.888736 
L 3603.272727 363.524817 
L 3605.809091 368.320979 
L 3608.345455 367.818 
L 3613.418182 378.135662 
L 3615.954545 377.092144 
L 3618.490909 371.673485 
L 3621.027273 366.920106 
L 3623.563636 366.366307 
L 3626.1 360.268509 
L 3628.636364 360.44929 
L 3631.172727 346.857851 
L 3633.709091 349.944612 
L 3636.245455 346.443254 
L 3638.781818 355.388175 
L 3641.318182 353.258956 
L 3643.854545 361.898957 
L 3646.390909 360.319519 
L 3648.927273 371.90708 
L 3651.463636 371.856861 
L 3654 372.702922 
L 3656.536364 381.689424 
L 3659.072727 383.011345 
L 3661.609091 385.539086 
L 3664.145455 383.414487 
L 3666.681818 386.080829 
L 3669.218182 385.94745 
L 3671.754545 391.746151 
L 3674.290909 381.846092 
L 3676.827273 379.559794 
L 3679.363636 379.856075 
L 3681.9 390.191616 
L 3684.436364 398.734597 
L 3686.972727 397.113579 
L 3689.509091 402.34402 
L 3692.045455 406.410221 
L 3694.581818 411.520542 
L 3697.118182 407.515603 
L 3702.190909 395.587966 
L 3704.727273 400.790687 
L 3707.263636 400.962228 
L 3709.8 406.40057 
L 3712.336364 399.406491 
L 3714.872727 392.814352 
L 3717.409091 384.808493 
L 3722.481818 367.614056 
L 3725.018182 360.633837 
L 3727.554545 374.743918 
L 3730.090909 379.42458 
L 3732.627273 395.650621 
L 3735.163636 405.976922 
L 3737.7 423.783003 
L 3740.236364 422.836505 
L 3742.772727 434.710506 
L 3745.309091 439.585207 
L 3747.845455 450.267248 
L 3750.381818 461.68849 
L 3755.454545 490.495392 
L 3757.990909 491.581693 
L 3763.063636 501.44951 
L 3765.6 500.571206 
L 3768.136364 495.816722 
L 3770.672727 498.089259 
L 3773.209091 500.163135 
L 3775.745455 501.705712 
L 3778.281818 502.513708 
L 3780.818182 503.561944 
L 3785.890909 508.314316 
L 3788.427273 507.568887 
L 3790.963636 495.273459 
L 3793.5 497.42015 
L 3796.036364 495.603986 
L 3798.572727 486.834723 
L 3801.109091 483.119739 
L 3803.645455 469.614975 
L 3806.181818 468.417892 
L 3808.718182 463.363108 
L 3811.254545 462.198365 
L 3813.790909 466.864061 
L 3816.327273 458.678022 
L 3818.863636 454.049383 
L 3821.4 459.788025 
L 3823.936364 449.874106 
L 3826.472727 450.359807 
L 3829.009091 452.291568 
L 3831.545455 451.05401 
L 3834.081818 453.346131 
L 3836.618182 454.607992 
L 3839.154545 461.815793 
L 3841.690909 468.422995 
L 3844.227273 460.564976 
L 3846.763636 458.311017 
L 3849.3 458.404018 
L 3851.836364 457.60998 
L 3854.372727 463.376341 
L 3856.909091 458.572142 
L 3859.445455 465.414963 
L 3864.518182 466.09822 
L 3867.054545 473.004616 
L 3869.590909 469.492912 
L 3872.127273 465.449909 
L 3879.736364 463.502175 
L 3882.272727 467.971622 
L 3884.809091 476.756148 
L 3887.345455 477.358655 
L 3889.881818 481.809622 
L 3892.418182 472.599248 
L 3897.490909 478.84167 
L 3902.563636 478.079067 
L 3907.636364 481.797863 
L 3910.172727 485.3873 
L 3912.709091 493.264097 
L 3915.245455 498.082454 
L 3917.781818 493.09014 
L 3920.318182 492.533027 
L 3922.854545 487.448313 
L 3925.390909 488.40656 
L 3927.927273 486.620526 
L 3930.463636 497.654993 
L 3933 496.983484 
L 3935.536364 495.019481 
L 3938.072727 494.835282 
L 3940.609091 486.344323 
L 3943.145455 476.712225 
L 3945.681818 468.530806 
L 3948.218182 469.450787 
L 3950.754545 463.902768 
L 3953.290909 460.10573 
L 3955.827273 460.743891 
L 3958.363636 456.212272 
L 3960.9 448.571393 
L 3963.436364 437.959855 
L 3965.972727 434.592476 
L 3968.509091 436.815297 
L 3971.045455 433.175338 
L 3973.581818 432.27966 
L 3976.118182 429.217201 
L 3978.654545 432.096062 
L 3981.190909 427.550583 
L 3983.727273 434.277904 
L 3986.263636 431.160006 
L 3988.8 426.771607 
L 3991.336364 423.658328 
L 3993.872727 427.983249 
L 3996.409091 427.863731 
L 3998.945455 415.094652 
L 4001.481818 419.622853 
L 4004.018182 412.134434 
L 4006.554545 409.843516 
L 4009.090909 401.893097 
L 4011.627273 406.971078 
L 4014.163636 396.082339 
L 4016.7 394.475181 
L 4019.236364 395.746282 
L 4021.772727 400.842743 
L 4024.309091 399.956304 
L 4026.845455 398.621726 
L 4029.381818 402.054987 
L 4031.918182 395.287288 
L 4034.454545 396.484469 
L 4036.990909 394.156591 
L 4039.527273 390.622892 
L 4042.063636 388.595313 
L 4044.6 389.390554 
L 4047.136364 387.811116 
L 4049.672727 382.568017 
L 4052.209091 370.029938 
L 4054.745455 360.730479 
L 4057.281818 359.659241 
L 4059.818182 364.473882 
L 4062.354545 370.346503 
L 4064.890909 368.753204 
L 4067.427273 368.421166 
L 4069.963636 372.071567 
L 4072.5 373.739988 
L 4075.036364 376.854469 
L 4077.572727 372.812571 
L 4080.109091 372.337312 
L 4082.645455 372.910793 
L 4085.181818 374.648514 
L 4087.718182 358.206536 
L 4090.254545 349.757157 
L 4092.790909 340.032658 
L 4095.327273 340.790939 
L 4097.863636 335.852761 
L 4100.4 326.724242 
L 4102.936364 316.228203 
L 4105.472727 307.446184 
L 4108.009091 306.088506 
L 4110.545455 308.546947 
L 4113.081818 311.199428 
L 4115.618182 310.908969 
L 4118.154545 312.397211 
L 4120.690909 309.477972 
L 4123.227273 311.599153 
L 4125.763636 306.078854 
L 4128.3 310.893496 
L 4130.836364 310.233437 
L 4133.372727 310.737618 
L 4135.909091 307.508839 
L 4138.445455 313.053441 
L 4140.981818 318.916822 
L 4143.518182 319.762883 
L 4146.054545 320.900004 
L 4148.590909 333.443906 
L 4151.127273 340.143507 
L 4153.663636 335.325448 
L 4156.2 343.535789 
L 4158.736364 343.674991 
L 4161.272727 344.567252 
L 4163.809091 351.410073 
L 4166.345455 354.797134 
L 4168.881818 353.582676 
L 4171.418182 339.376777 
L 4173.954545 339.843998 
L 4176.490909 334.319079 
L 4179.027273 333.372581 
L 4181.563636 336.122082 
L 4184.1 340.437763 
L 4186.636364 333.586904 
L 4189.172727 335.661886 
L 4191.709091 339.829727 
L 4194.245455 337.598868 
L 4196.781818 342.875509 
L 4199.318182 338.528691 
L 4201.854545 348.965872 
L 4204.390909 341.967173 
L 4206.927273 348.495834 
L 4209.463636 346.731596 
L 4212 342.814437 
L 4214.536364 341.027098 
L 4214.536364 341.027098 
" clip-path="url(#p0670178ee4)" style="fill: none; stroke: #00ced1; stroke-width: 2.5; stroke-linecap: square"/>
   </g>
   <g id="patch_3">
    <path d="M 585 640.8 
L 585 86.4 
" style="fill: none; stroke: #000000; stroke-width: 0.8; stroke-linejoin: miter; stroke-linecap: square"/>
   </g>
   <g id="patch_4">
    <path d="M 4212 640.8 
L 4212 86.4 
" style="fill: none; stroke: #000000; stroke-width: 0.8; stroke-linejoin: miter; stroke-linecap: square"/>
   </g>
   <g id="patch_5">
    <path d="M 585 640.8 
L 4212 640.8 
" style="fill: none; stroke: #000000; stroke-width: 0.8; stroke-linejoin: miter; stroke-linecap: square"/>
   </g>
   <g id="patch_6">
    <path d="M 585 86.4 
L 4212 86.4 
" style="fill: none; stroke: #000000; stroke-width: 0.8; stroke-linejoin: miter; stroke-linecap: square"/>
   </g>
   <g id="text_13">
    <!-- Rolling Mean (w = 12) - East(m) -->
    <g transform="translate(2198.791016 80.4) scale(0.25 -0.25)">
     <defs>
      <path id="DejaVuSans-52" d="M 2841 2188 
Q 3044 2119 3236 1894 
Q 3428 1669 3622 1275 
L 4263 0 
L 3584 0 
L 2988 1197 
Q 2756 1666 2539 1819 
Q 2322 1972 1947 1972 
L 1259 1972 
L 1259 0 
L 628 0 
L 628 4666 
L 2053 4666 
Q 2853 4666 3247 4331 
Q 3641 3997 3641 3322 
Q 3641 2881 3436 2590 
Q 3231 2300 2841 2188 
z
M 1259 4147 
L 1259 2491 
L 2053 2491 
Q 2509 2491 2742 2702 
Q 2975 2913 2975 3322 
Q 2975 3731 2742 3939 
Q 2509 4147 2053 4147 
L 1259 4147 
z
" transform="scale(0.015625)"/>
      <path id="DejaVuSans-6f" d="M 1959 3097 
Q 1497 3097 1228 2736 
Q 959 2375 959 1747 
Q 959 1119 1226 758 
Q 1494 397 1959 397 
Q 2419 397 2687 759 
Q 2956 1122 2956 1747 
Q 2956 2369 2687 2733 
Q 2419 3097 1959 3097 
z
M 1959 3584 
Q 2709 3584 3137 3096 
Q 3566 2609 3566 1747 
Q 3566 888 3137 398 
Q 2709 -91 1959 -91 
Q 1206 -91 779 398 
Q 353 888 353 1747 
Q 353 2609 779 3096 
Q 1206 3584 1959 3584 
z
" transform="scale(0.015625)"/>
      <path id="DejaVuSans-6c" d="M 603 4863 
L 1178 4863 
L 1178 0 
L 603 0 
L 603 4863 
z
" transform="scale(0.015625)"/>
      <path id="DejaVuSans-69" d="M 603 3500 
L 1178 3500 
L 1178 0 
L 603 0 
L 603 3500 
z
M 603 4863 
L 1178 4863 
L 1178 4134 
L 603 4134 
L 603 4863 
z
" transform="scale(0.015625)"/>
      <path id="DejaVuSans-6e" d="M 3513 2113 
L 3513 0 
L 2938 0 
L 2938 2094 
Q 2938 2591 2744 2837 
Q 2550 3084 2163 3084 
Q 1697 3084 1428 2787 
Q 1159 2491 1159 1978 
L 1159 0 
L 581 0 
L 581 3500 
L 1159 3500 
L 1159 2956 
Q 1366 3272 1645 3428 
Q 1925 3584 2291 3584 
Q 2894 3584 3203 3211 
Q 3513 2838 3513 2113 
z
" transform="scale(0.015625)"/>
      <path id="DejaVuSans-67" d="M 2906 1791 
Q 2906 2416 2648 2759 
Q 2391 3103 1925 3103 
Q 1463 3103 1205 2759 
Q 947 2416 947 1791 
Q 947 1169 1205 825 
Q 1463 481 1925 481 
Q 2391 481 2648 825 
Q 2906 1169 2906 1791 
z
M 3481 434 
Q 3481 -459 3084 -895 
Q 2688 -1331 1869 -1331 
Q 1566 -1331 1297 -1286 
Q 1028 -1241 775 -1147 
L 775 -588 
Q 1028 -725 1275 -790 
Q 1522 -856 1778 -856 
Q 2344 -856 2625 -561 
Q 2906 -266 2906 331 
L 2906 616 
Q 2728 306 2450 153 
Q 2172 0 1784 0 
Q 1141 0 747 490 
Q 353 981 353 1791 
Q 353 2603 747 3093 
Q 1141 3584 1784 3584 
Q 2172 3584 2450 3431 
Q 2728 3278 2906 2969 
L 2906 3500 
L 3481 3500 
L 3481 434 
z
" transform="scale(0.015625)"/>
      <path id="DejaVuSans-20" transform="scale(0.015625)"/>
      <path id="DejaVuSans-4d" d="M 628 4666 
L 1569 4666 
L 2759 1491 
L 3956 4666 
L 4897 4666 
L 4897 0 
L 4281 0 
L 4281 4097 
L 3078 897 
L 2444 897 
L 1241 4097 
L 1241 0 
L 628 0 
L 628 4666 
z
" transform="scale(0.015625)"/>
      <path id="DejaVuSans-65" d="M 3597 1894 
L 3597 1613 
L 953 1613 
Q 991 1019 1311 708 
Q 1631 397 2203 397 
Q 2534 397 2845 478 
Q 3156 559 3463 722 
L 3463 178 
Q 3153 47 2828 -22 
Q 2503 -91 2169 -91 
Q 1331 -91 842 396 
Q 353 884 353 1716 
Q 353 2575 817 3079 
Q 1281 3584 2069 3584 
Q 2775 3584 3186 3129 
Q 3597 2675 3597 1894 
z
M 3022 2063 
Q 3016 2534 2758 2815 
Q 2500 3097 2075 3097 
Q 1594 3097 1305 2825 
Q 1016 2553 972 2059 
L 3022 2063 
z
" transform="scale(0.015625)"/>
      <path id="DejaVuSans-61" d="M 2194 1759 
Q 1497 1759 1228 1600 
Q 959 1441 959 1056 
Q 959 750 1161 570 
Q 1363 391 1709 391 
Q 2188 391 2477 730 
Q 2766 1069 2766 1631 
L 2766 1759 
L 2194 1759 
z
M 3341 1997 
L 3341 0 
L 2766 0 
L 2766 531 
Q 2569 213 2275 61 
Q 1981 -91 1556 -91 
Q 1019 -91 701 211 
Q 384 513 384 1019 
Q 384 1609 779 1909 
Q 1175 2209 1959 2209 
L 2766 2209 
L 2766 2266 
Q 2766 2663 2505 2880 
Q 2244 3097 1772 3097 
Q 1472 3097 1187 3025 
Q 903 2953 641 2809 
L 641 3341 
Q 956 3463 1253 3523 
Q 1550 3584 1831 3584 
Q 2591 3584 2966 3190 
Q 3341 2797 3341 1997 
z
" transform="scale(0.015625)"/>
      <path id="DejaVuSans-28" d="M 1984 4856 
Q 1566 4138 1362 3434 
Q 1159 2731 1159 2009 
Q 1159 1288 1364 580 
Q 1569 -128 1984 -844 
L 1484 -844 
Q 1016 -109 783 600 
Q 550 1309 550 2009 
Q 550 2706 781 3412 
Q 1013 4119 1484 4856 
L 1984 4856 
z
" transform="scale(0.015625)"/>
      <path id="DejaVuSans-77" d="M 269 3500 
L 844 3500 
L 1563 769 
L 2278 3500 
L 2956 3500 
L 3675 769 
L 4391 3500 
L 4966 3500 
L 4050 0 
L 3372 0 
L 2619 2869 
L 1863 0 
L 1184 0 
L 269 3500 
z
" transform="scale(0.015625)"/>
      <path id="DejaVuSans-3d" d="M 678 2906 
L 4684 2906 
L 4684 2381 
L 678 2381 
L 678 2906 
z
M 678 1631 
L 4684 1631 
L 4684 1100 
L 678 1100 
L 678 1631 
z
" transform="scale(0.015625)"/>
      <path id="DejaVuSans-29" d="M 513 4856 
L 1013 4856 
Q 1481 4119 1714 3412 
Q 1947 2706 1947 2009 
Q 1947 1309 1714 600 
Q 1481 -109 1013 -844 
L 513 -844 
Q 928 -128 1133 580 
Q 1338 1288 1338 2009 
Q 1338 2731 1133 3434 
Q 928 4138 513 4856 
z
" transform="scale(0.015625)"/>
      <path id="DejaVuSans-45" d="M 628 4666 
L 3578 4666 
L 3578 4134 
L 1259 4134 
L 1259 2753 
L 3481 2753 
L 3481 2222 
L 1259 2222 
L 1259 531 
L 3634 531 
L 3634 0 
L 628 0 
L 628 4666 
z
" transform="scale(0.015625)"/>
      <path id="DejaVuSans-73" d="M 2834 3397 
L 2834 2853 
Q 2591 2978 2328 3040 
Q 2066 3103 1784 3103 
Q 1356 3103 1142 2972 
Q 928 2841 928 2578 
Q 928 2378 1081 2264 
Q 1234 2150 1697 2047 
L 1894 2003 
Q 2506 1872 2764 1633 
Q 3022 1394 3022 966 
Q 3022 478 2636 193 
Q 2250 -91 1575 -91 
Q 1294 -91 989 -36 
Q 684 19 347 128 
L 347 722 
Q 666 556 975 473 
Q 1284 391 1588 391 
Q 1994 391 2212 530 
Q 2431 669 2431 922 
Q 2431 1156 2273 1281 
Q 2116 1406 1581 1522 
L 1381 1569 
Q 847 1681 609 1914 
Q 372 2147 372 2553 
Q 372 3047 722 3315 
Q 1072 3584 1716 3584 
Q 2034 3584 2315 3537 
Q 2597 3491 2834 3397 
z
" transform="scale(0.015625)"/>
      <path id="DejaVuSans-74" d="M 1172 4494 
L 1172 3500 
L 2356 3500 
L 2356 3053 
L 1172 3053 
L 1172 1153 
Q 1172 725 1289 603 
Q 1406 481 1766 481 
L 2356 481 
L 2356 0 
L 1766 0 
Q 1100 0 847 248 
Q 594 497 594 1153 
L 594 3053 
L 172 3053 
L 172 3500 
L 594 3500 
L 594 4494 
L 1172 4494 
z
" transform="scale(0.015625)"/>
      <path id="DejaVuSans-6d" d="M 3328 2828 
Q 3544 3216 3844 3400 
Q 4144 3584 4550 3584 
Q 5097 3584 5394 3201 
Q 5691 2819 5691 2113 
L 5691 0 
L 5113 0 
L 5113 2094 
Q 5113 2597 4934 2840 
Q 4756 3084 4391 3084 
Q 3944 3084 3684 2787 
Q 3425 2491 3425 1978 
L 3425 0 
L 2847 0 
L 2847 2094 
Q 2847 2600 2669 2842 
Q 2491 3084 2119 3084 
Q 1678 3084 1418 2786 
Q 1159 2488 1159 1978 
L 1159 0 
L 581 0 
L 581 3500 
L 1159 3500 
L 1159 2956 
Q 1356 3278 1631 3431 
Q 1906 3584 2284 3584 
Q 2666 3584 2933 3390 
Q 3200 3197 3328 2828 
z
" transform="scale(0.015625)"/>
     </defs>
     <use xlink:href="#DejaVuSans-52"/>
     <use xlink:href="#DejaVuSans-6f" x="64.982422"/>
     <use xlink:href="#DejaVuSans-6c" x="126.164062"/>
     <use xlink:href="#DejaVuSans-6c" x="153.947266"/>
     <use xlink:href="#DejaVuSans-69" x="181.730469"/>
     <use xlink:href="#DejaVuSans-6e" x="209.513672"/>
     <use xlink:href="#DejaVuSans-67" x="272.892578"/>
     <use xlink:href="#DejaVuSans-20" x="336.369141"/>
     <use xlink:href="#DejaVuSans-4d" x="368.15625"/>
     <use xlink:href="#DejaVuSans-65" x="454.435547"/>
     <use xlink:href="#DejaVuSans-61" x="515.958984"/>
     <use xlink:href="#DejaVuSans-6e" x="577.238281"/>
     <use xlink:href="#DejaVuSans-20" x="640.617188"/>
     <use xlink:href="#DejaVuSans-28" x="672.404297"/>
     <use xlink:href="#DejaVuSans-77" x="711.417969"/>
     <use xlink:href="#DejaVuSans-20" x="793.205078"/>
     <use xlink:href="#DejaVuSans-3d" x="824.992188"/>
     <use xlink:href="#DejaVuSans-20" x="908.78125"/>
     <use xlink:href="#DejaVuSans-31" x="940.568359"/>
     <use xlink:href="#DejaVuSans-32" x="1004.191406"/>
     <use xlink:href="#DejaVuSans-29" x="1067.814453"/>
     <use xlink:href="#DejaVuSans-20" x="1106.828125"/>
     <use xlink:href="#DejaVuSans-2d" x="1138.615234"/>
     <use xlink:href="#DejaVuSans-20" x="1174.699219"/>
     <use xlink:href="#DejaVuSans-45" x="1206.486328"/>
     <use xlink:href="#DejaVuSans-61" x="1269.669922"/>
     <use xlink:href="#DejaVuSans-73" x="1330.949219"/>
     <use xlink:href="#DejaVuSans-74" x="1383.048828"/>
     <use xlink:href="#DejaVuSans-28" x="1422.257812"/>
     <use xlink:href="#DejaVuSans-6d" x="1461.271484"/>
     <use xlink:href="#DejaVuSans-29" x="1558.683594"/>
    </g>
   </g>
   <g id="legend_1">
    <g id="patch_7">
     <path d="M 4150.248438 123.75625 
L 4205 123.75625 
Q 4207 123.75625 4207 121.75625 
L 4207 93.4 
Q 4207 91.4 4205 91.4 
L 4150.248438 91.4 
Q 4148.248438 91.4 4148.248438 93.4 
L 4148.248438 121.75625 
Q 4148.248438 123.75625 4150.248438 123.75625 
z
" style="fill: #ffffff; opacity: 0.8; stroke: #cccccc; stroke-linejoin: miter"/>
    </g>
    <g id="line2d_15">
     <path d="M 4152.248438 99.498437 
L 4162.248438 99.498437 
L 4172.248438 99.498437 
" style="fill: none; stroke: #9932cc; stroke-width: 2.5; stroke-linecap: square"/>
    </g>
    <g id="text_14">
     <!-- brse -->
     <g transform="translate(4180.248438 102.998437) scale(0.1 -0.1)">
      <defs>
       <path id="DejaVuSans-62" d="M 3116 1747 
Q 3116 2381 2855 2742 
Q 2594 3103 2138 3103 
Q 1681 3103 1420 2742 
Q 1159 2381 1159 1747 
Q 1159 1113 1420 752 
Q 1681 391 2138 391 
Q 2594 391 2855 752 
Q 3116 1113 3116 1747 
z
M 1159 2969 
Q 1341 3281 1617 3432 
Q 1894 3584 2278 3584 
Q 2916 3584 3314 3078 
Q 3713 2572 3713 1747 
Q 3713 922 3314 415 
Q 2916 -91 2278 -91 
Q 1894 -91 1617 61 
Q 1341 213 1159 525 
L 1159 0 
L 581 0 
L 581 4863 
L 1159 4863 
L 1159 2969 
z
" transform="scale(0.015625)"/>
       <path id="DejaVuSans-72" d="M 2631 2963 
Q 2534 3019 2420 3045 
Q 2306 3072 2169 3072 
Q 1681 3072 1420 2755 
Q 1159 2438 1159 1844 
L 1159 0 
L 581 0 
L 581 3500 
L 1159 3500 
L 1159 2956 
Q 1341 3275 1631 3429 
Q 1922 3584 2338 3584 
Q 2397 3584 2469 3576 
Q 2541 3569 2628 3553 
L 2631 2963 
z
" transform="scale(0.015625)"/>
      </defs>
      <use xlink:href="#DejaVuSans-62"/>
      <use xlink:href="#DejaVuSans-72" x="63.476562"/>
      <use xlink:href="#DejaVuSans-73" x="104.589844"/>
      <use xlink:href="#DejaVuSans-65" x="156.689453"/>
     </g>
    </g>
    <g id="line2d_16">
     <path d="M 4152.248438 114.176562 
L 4162.248438 114.176562 
L 4172.248438 114.176562 
" style="fill: none; stroke: #00ced1; stroke-width: 2.5; stroke-linecap: square"/>
    </g>
    <g id="text_15">
     <!-- pord -->
     <g transform="translate(4180.248438 117.676562) scale(0.1 -0.1)">
      <defs>
       <path id="DejaVuSans-70" d="M 1159 525 
L 1159 -1331 
L 581 -1331 
L 581 3500 
L 1159 3500 
L 1159 2969 
Q 1341 3281 1617 3432 
Q 1894 3584 2278 3584 
Q 2916 3584 3314 3078 
Q 3713 2572 3713 1747 
Q 3713 922 3314 415 
Q 2916 -91 2278 -91 
Q 1894 -91 1617 61 
Q 1341 213 1159 525 
z
M 3116 1747 
Q 3116 2381 2855 2742 
Q 2594 3103 2138 3103 
Q 1681 3103 1420 2742 
Q 1159 2381 1159 1747 
Q 1159 1113 1420 752 
Q 1681 391 2138 391 
Q 2594 391 2855 752 
Q 3116 1113 3116 1747 
z
" transform="scale(0.015625)"/>
       <path id="DejaVuSans-64" d="M 2906 2969 
L 2906 4863 
L 3481 4863 
L 3481 0 
L 2906 0 
L 2906 525 
Q 2725 213 2448 61 
Q 2172 -91 1784 -91 
Q 1150 -91 751 415 
Q 353 922 353 1747 
Q 353 2572 751 3078 
Q 1150 3584 1784 3584 
Q 2172 3584 2448 3432 
Q 2725 3281 2906 2969 
z
M 947 1747 
Q 947 1113 1208 752 
Q 1469 391 1925 391 
Q 2381 391 2643 752 
Q 2906 1113 2906 1747 
Q 2906 2381 2643 2742 
Q 2381 3103 1925 3103 
Q 1469 3103 1208 2742 
Q 947 2381 947 1747 
z
" transform="scale(0.015625)"/>
      </defs>
      <use xlink:href="#DejaVuSans-70"/>
      <use xlink:href="#DejaVuSans-6f" x="63.476562"/>
      <use xlink:href="#DejaVuSans-72" x="124.658203"/>
      <use xlink:href="#DejaVuSans-64" x="164.021484"/>
     </g>
    </g>
   </g>
  </g>
 </g>
 <defs>
  <clipPath id="p0670178ee4">
   <rect x="585" y="86.4" width="3627" height="554.4"/>
  </clipPath>
 </defs>
</svg>
