<?xml version="1.0" encoding="utf-8" standalone="no"?>
<!DOCTYPE svg PUBLIC "-//W3C//DTD SVG 1.1//EN"
  "http://www.w3.org/Graphics/SVG/1.1/DTD/svg11.dtd">
<svg xmlns:xlink="http://www.w3.org/1999/xlink" width="2520pt" height="720pt" viewBox="0 0 2520 720" xmlns="http://www.w3.org/2000/svg" version="1.1">
 <metadata>
  <rdf:RDF xmlns:dc="http://purl.org/dc/elements/1.1/" xmlns:cc="http://creativecommons.org/ns#" xmlns:rdf="http://www.w3.org/1999/02/22-rdf-syntax-ns#">
   <cc:Work>
    <dc:type rdf:resource="http://purl.org/dc/dcmitype/StillImage"/>
    <dc:date>2024-02-08T11:46:12.802891</dc:date>
    <dc:format>image/svg+xml</dc:format>
    <dc:creator>
     <cc:Agent>
      <dc:title>Matplotlib v3.7.1, https://matplotlib.org/</dc:title>
     </cc:Agent>
    </dc:creator>
   </cc:Work>
  </rdf:RDF>
 </metadata>
 <defs>
  <style type="text/css">*{stroke-linejoin: round; stroke-linecap: butt}</style>
 </defs>
 <g id="figure_1">
  <g id="patch_1">
   <path d="M 0 720 
L 2520 720 
L 2520 0 
L 0 0 
z
" style="fill: #ffffff"/>
  </g>
  <g id="axes_1">
   <g id="patch_2">
    <path d="M 315 640.8 
L 2268 640.8 
L 2268 86.4 
L 315 86.4 
z
" style="fill: #ffffff"/>
   </g>
   <g id="matplotlib.axis_1">
    <g id="xtick_1">
     <g id="line2d_1">
      <defs>
       <path id="me76ba084ff" d="M 0 0 
L 0 3.5 
" style="stroke: #000000; stroke-width: 0.8"/>
      </defs>
      <g>
       <use xlink:href="#me76ba084ff" x="520.719562" y="640.8" style="stroke: #000000; stroke-width: 0.8"/>
      </g>
     </g>
     <g id="text_1">
      <!-- 2012-04 -->
      <g transform="translate(489.382453 659.197656) scale(0.15 -0.15)">
       <defs>
        <path id="DejaVuSans-32" d="M 1228 531 
L 3431 531 
L 3431 0 
L 469 0 
L 469 531 
Q 828 903 1448 1529 
Q 2069 2156 2228 2338 
Q 2531 2678 2651 2914 
Q 2772 3150 2772 3378 
Q 2772 3750 2511 3984 
Q 2250 4219 1831 4219 
Q 1534 4219 1204 4116 
Q 875 4013 500 3803 
L 500 4441 
Q 881 4594 1212 4672 
Q 1544 4750 1819 4750 
Q 2544 4750 2975 4387 
Q 3406 4025 3406 3419 
Q 3406 3131 3298 2873 
Q 3191 2616 2906 2266 
Q 2828 2175 2409 1742 
Q 1991 1309 1228 531 
z
" transform="scale(0.015625)"/>
        <path id="DejaVuSans-30" d="M 2034 4250 
Q 1547 4250 1301 3770 
Q 1056 3291 1056 2328 
Q 1056 1369 1301 889 
Q 1547 409 2034 409 
Q 2525 409 2770 889 
Q 3016 1369 3016 2328 
Q 3016 3291 2770 3770 
Q 2525 4250 2034 4250 
z
M 2034 4750 
Q 2819 4750 3233 4129 
Q 3647 3509 3647 2328 
Q 3647 1150 3233 529 
Q 2819 -91 2034 -91 
Q 1250 -91 836 529 
Q 422 1150 422 2328 
Q 422 3509 836 4129 
Q 1250 4750 2034 4750 
z
" transform="scale(0.015625)"/>
        <path id="DejaVuSans-31" d="M 794 531 
L 1825 531 
L 1825 4091 
L 703 3866 
L 703 4441 
L 1819 4666 
L 2450 4666 
L 2450 531 
L 3481 531 
L 3481 0 
L 794 0 
L 794 531 
z
" transform="scale(0.015625)"/>
        <path id="DejaVuSans-2d" d="M 313 2009 
L 1997 2009 
L 1997 1497 
L 313 1497 
L 313 2009 
z
" transform="scale(0.015625)"/>
        <path id="DejaVuSans-34" d="M 2419 4116 
L 825 1625 
L 2419 1625 
L 2419 4116 
z
M 2253 4666 
L 3047 4666 
L 3047 1625 
L 3713 1625 
L 3713 1100 
L 3047 1100 
L 3047 0 
L 2419 0 
L 2419 1100 
L 313 1100 
L 313 1709 
L 2253 4666 
z
" transform="scale(0.015625)"/>
       </defs>
       <use xlink:href="#DejaVuSans-32"/>
       <use xlink:href="#DejaVuSans-30" x="63.623047"/>
       <use xlink:href="#DejaVuSans-31" x="127.246094"/>
       <use xlink:href="#DejaVuSans-32" x="190.869141"/>
       <use xlink:href="#DejaVuSans-2d" x="254.492188"/>
       <use xlink:href="#DejaVuSans-30" x="290.576172"/>
       <use xlink:href="#DejaVuSans-34" x="354.199219"/>
      </g>
     </g>
    </g>
    <g id="xtick_2">
     <g id="line2d_2">
      <g>
       <use xlink:href="#me76ba084ff" x="763.842681" y="640.8" style="stroke: #000000; stroke-width: 0.8"/>
      </g>
     </g>
     <g id="text_2">
      <!-- 2012-07 -->
      <g transform="translate(732.505572 659.197656) scale(0.15 -0.15)">
       <defs>
        <path id="DejaVuSans-37" d="M 525 4666 
L 3525 4666 
L 3525 4397 
L 1831 0 
L 1172 0 
L 2766 4134 
L 525 4134 
L 525 4666 
z
" transform="scale(0.015625)"/>
       </defs>
       <use xlink:href="#DejaVuSans-32"/>
       <use xlink:href="#DejaVuSans-30" x="63.623047"/>
       <use xlink:href="#DejaVuSans-31" x="127.246094"/>
       <use xlink:href="#DejaVuSans-32" x="190.869141"/>
       <use xlink:href="#DejaVuSans-2d" x="254.492188"/>
       <use xlink:href="#DejaVuSans-30" x="290.576172"/>
       <use xlink:href="#DejaVuSans-37" x="354.199219"/>
      </g>
     </g>
    </g>
    <g id="xtick_3">
     <g id="line2d_3">
      <g>
       <use xlink:href="#me76ba084ff" x="1009.637483" y="640.8" style="stroke: #000000; stroke-width: 0.8"/>
      </g>
     </g>
     <g id="text_3">
      <!-- 2012-10 -->
      <g transform="translate(978.300374 659.197656) scale(0.15 -0.15)">
       <use xlink:href="#DejaVuSans-32"/>
       <use xlink:href="#DejaVuSans-30" x="63.623047"/>
       <use xlink:href="#DejaVuSans-31" x="127.246094"/>
       <use xlink:href="#DejaVuSans-32" x="190.869141"/>
       <use xlink:href="#DejaVuSans-2d" x="254.492188"/>
       <use xlink:href="#DejaVuSans-31" x="290.576172"/>
       <use xlink:href="#DejaVuSans-30" x="354.199219"/>
      </g>
     </g>
    </g>
    <g id="xtick_4">
     <g id="line2d_4">
      <g>
       <use xlink:href="#me76ba084ff" x="1255.432285" y="640.8" style="stroke: #000000; stroke-width: 0.8"/>
      </g>
     </g>
     <g id="text_4">
      <!-- 2013-01 -->
      <g transform="translate(1224.095175 659.197656) scale(0.15 -0.15)">
       <defs>
        <path id="DejaVuSans-33" d="M 2597 2516 
Q 3050 2419 3304 2112 
Q 3559 1806 3559 1356 
Q 3559 666 3084 287 
Q 2609 -91 1734 -91 
Q 1441 -91 1130 -33 
Q 819 25 488 141 
L 488 750 
Q 750 597 1062 519 
Q 1375 441 1716 441 
Q 2309 441 2620 675 
Q 2931 909 2931 1356 
Q 2931 1769 2642 2001 
Q 2353 2234 1838 2234 
L 1294 2234 
L 1294 2753 
L 1863 2753 
Q 2328 2753 2575 2939 
Q 2822 3125 2822 3475 
Q 2822 3834 2567 4026 
Q 2313 4219 1838 4219 
Q 1578 4219 1281 4162 
Q 984 4106 628 3988 
L 628 4550 
Q 988 4650 1302 4700 
Q 1616 4750 1894 4750 
Q 2613 4750 3031 4423 
Q 3450 4097 3450 3541 
Q 3450 3153 3228 2886 
Q 3006 2619 2597 2516 
z
" transform="scale(0.015625)"/>
       </defs>
       <use xlink:href="#DejaVuSans-32"/>
       <use xlink:href="#DejaVuSans-30" x="63.623047"/>
       <use xlink:href="#DejaVuSans-31" x="127.246094"/>
       <use xlink:href="#DejaVuSans-33" x="190.869141"/>
       <use xlink:href="#DejaVuSans-2d" x="254.492188"/>
       <use xlink:href="#DejaVuSans-30" x="290.576172"/>
       <use xlink:href="#DejaVuSans-31" x="354.199219"/>
      </g>
     </g>
    </g>
    <g id="xtick_5">
     <g id="line2d_5">
      <g>
       <use xlink:href="#me76ba084ff" x="1495.883721" y="640.8" style="stroke: #000000; stroke-width: 0.8"/>
      </g>
     </g>
     <g id="text_5">
      <!-- 2013-04 -->
      <g transform="translate(1464.546612 659.197656) scale(0.15 -0.15)">
       <use xlink:href="#DejaVuSans-32"/>
       <use xlink:href="#DejaVuSans-30" x="63.623047"/>
       <use xlink:href="#DejaVuSans-31" x="127.246094"/>
       <use xlink:href="#DejaVuSans-33" x="190.869141"/>
       <use xlink:href="#DejaVuSans-2d" x="254.492188"/>
       <use xlink:href="#DejaVuSans-30" x="290.576172"/>
       <use xlink:href="#DejaVuSans-34" x="354.199219"/>
      </g>
     </g>
    </g>
    <g id="xtick_6">
     <g id="line2d_6">
      <g>
       <use xlink:href="#me76ba084ff" x="1739.00684" y="640.8" style="stroke: #000000; stroke-width: 0.8"/>
      </g>
     </g>
     <g id="text_6">
      <!-- 2013-07 -->
      <g transform="translate(1707.669731 659.197656) scale(0.15 -0.15)">
       <use xlink:href="#DejaVuSans-32"/>
       <use xlink:href="#DejaVuSans-30" x="63.623047"/>
       <use xlink:href="#DejaVuSans-31" x="127.246094"/>
       <use xlink:href="#DejaVuSans-33" x="190.869141"/>
       <use xlink:href="#DejaVuSans-2d" x="254.492188"/>
       <use xlink:href="#DejaVuSans-30" x="290.576172"/>
       <use xlink:href="#DejaVuSans-37" x="354.199219"/>
      </g>
     </g>
    </g>
    <g id="xtick_7">
     <g id="line2d_7">
      <g>
       <use xlink:href="#me76ba084ff" x="1984.801642" y="640.8" style="stroke: #000000; stroke-width: 0.8"/>
      </g>
     </g>
     <g id="text_7">
      <!-- 2013-10 -->
      <g transform="translate(1953.464532 659.197656) scale(0.15 -0.15)">
       <use xlink:href="#DejaVuSans-32"/>
       <use xlink:href="#DejaVuSans-30" x="63.623047"/>
       <use xlink:href="#DejaVuSans-31" x="127.246094"/>
       <use xlink:href="#DejaVuSans-33" x="190.869141"/>
       <use xlink:href="#DejaVuSans-2d" x="254.492188"/>
       <use xlink:href="#DejaVuSans-31" x="290.576172"/>
       <use xlink:href="#DejaVuSans-30" x="354.199219"/>
      </g>
     </g>
    </g>
    <g id="xtick_8">
     <g id="line2d_8">
      <g>
       <use xlink:href="#me76ba084ff" x="2230.596443" y="640.8" style="stroke: #000000; stroke-width: 0.8"/>
      </g>
     </g>
     <g id="text_8">
      <!-- 2014-01 -->
      <g transform="translate(2199.259334 659.197656) scale(0.15 -0.15)">
       <use xlink:href="#DejaVuSans-32"/>
       <use xlink:href="#DejaVuSans-30" x="63.623047"/>
       <use xlink:href="#DejaVuSans-31" x="127.246094"/>
       <use xlink:href="#DejaVuSans-34" x="190.869141"/>
       <use xlink:href="#DejaVuSans-2d" x="254.492188"/>
       <use xlink:href="#DejaVuSans-30" x="290.576172"/>
       <use xlink:href="#DejaVuSans-31" x="354.199219"/>
      </g>
     </g>
    </g>
    <g id="text_9">
     <!-- Time -->
     <g transform="translate(1273.149609 677.714844) scale(0.15 -0.15)">
      <defs>
       <path id="DejaVuSans-54" d="M -19 4666 
L 3928 4666 
L 3928 4134 
L 2272 4134 
L 2272 0 
L 1638 0 
L 1638 4134 
L -19 4134 
L -19 4666 
z
" transform="scale(0.015625)"/>
       <path id="DejaVuSans-69" d="M 603 3500 
L 1178 3500 
L 1178 0 
L 603 0 
L 603 3500 
z
M 603 4863 
L 1178 4863 
L 1178 4134 
L 603 4134 
L 603 4863 
z
" transform="scale(0.015625)"/>
       <path id="DejaVuSans-6d" d="M 3328 2828 
Q 3544 3216 3844 3400 
Q 4144 3584 4550 3584 
Q 5097 3584 5394 3201 
Q 5691 2819 5691 2113 
L 5691 0 
L 5113 0 
L 5113 2094 
Q 5113 2597 4934 2840 
Q 4756 3084 4391 3084 
Q 3944 3084 3684 2787 
Q 3425 2491 3425 1978 
L 3425 0 
L 2847 0 
L 2847 2094 
Q 2847 2600 2669 2842 
Q 2491 3084 2119 3084 
Q 1678 3084 1418 2786 
Q 1159 2488 1159 1978 
L 1159 0 
L 581 0 
L 581 3500 
L 1159 3500 
L 1159 2956 
Q 1356 3278 1631 3431 
Q 1906 3584 2284 3584 
Q 2666 3584 2933 3390 
Q 3200 3197 3328 2828 
z
" transform="scale(0.015625)"/>
       <path id="DejaVuSans-65" d="M 3597 1894 
L 3597 1613 
L 953 1613 
Q 991 1019 1311 708 
Q 1631 397 2203 397 
Q 2534 397 2845 478 
Q 3156 559 3463 722 
L 3463 178 
Q 3153 47 2828 -22 
Q 2503 -91 2169 -91 
Q 1331 -91 842 396 
Q 353 884 353 1716 
Q 353 2575 817 3079 
Q 1281 3584 2069 3584 
Q 2775 3584 3186 3129 
Q 3597 2675 3597 1894 
z
M 3022 2063 
Q 3016 2534 2758 2815 
Q 2500 3097 2075 3097 
Q 1594 3097 1305 2825 
Q 1016 2553 972 2059 
L 3022 2063 
z
" transform="scale(0.015625)"/>
      </defs>
      <use xlink:href="#DejaVuSans-54"/>
      <use xlink:href="#DejaVuSans-69" x="57.958984"/>
      <use xlink:href="#DejaVuSans-6d" x="85.742188"/>
      <use xlink:href="#DejaVuSans-65" x="183.154297"/>
     </g>
    </g>
   </g>
   <g id="matplotlib.axis_2">
    <g id="ytick_1">
     <g id="line2d_9">
      <defs>
       <path id="m577dd75a69" d="M 0 0 
L -3.5 0 
" style="stroke: #000000; stroke-width: 0.8"/>
      </defs>
      <g>
       <use xlink:href="#m577dd75a69" x="315" y="610" style="stroke: #000000; stroke-width: 0.8"/>
      </g>
     </g>
     <g id="text_10">
      <!-- −0.004 -->
      <g transform="translate(252.488281 615.698828) scale(0.15 -0.15)">
       <defs>
        <path id="DejaVuSans-2212" d="M 678 2272 
L 4684 2272 
L 4684 1741 
L 678 1741 
L 678 2272 
z
" transform="scale(0.015625)"/>
        <path id="DejaVuSans-2e" d="M 684 794 
L 1344 794 
L 1344 0 
L 684 0 
L 684 794 
z
" transform="scale(0.015625)"/>
       </defs>
       <use xlink:href="#DejaVuSans-2212"/>
       <use xlink:href="#DejaVuSans-30" x="83.789062"/>
       <use xlink:href="#DejaVuSans-2e" x="147.412109"/>
       <use xlink:href="#DejaVuSans-30" x="179.199219"/>
       <use xlink:href="#DejaVuSans-30" x="242.822266"/>
       <use xlink:href="#DejaVuSans-34" x="306.445312"/>
      </g>
     </g>
    </g>
    <g id="ytick_2">
     <g id="line2d_10">
      <g>
       <use xlink:href="#m577dd75a69" x="315" y="548.4" style="stroke: #000000; stroke-width: 0.8"/>
      </g>
     </g>
     <g id="text_11">
      <!-- −0.003 -->
      <g transform="translate(252.488281 554.098828) scale(0.15 -0.15)">
       <use xlink:href="#DejaVuSans-2212"/>
       <use xlink:href="#DejaVuSans-30" x="83.789062"/>
       <use xlink:href="#DejaVuSans-2e" x="147.412109"/>
       <use xlink:href="#DejaVuSans-30" x="179.199219"/>
       <use xlink:href="#DejaVuSans-30" x="242.822266"/>
       <use xlink:href="#DejaVuSans-33" x="306.445312"/>
      </g>
     </g>
    </g>
    <g id="ytick_3">
     <g id="line2d_11">
      <g>
       <use xlink:href="#m577dd75a69" x="315" y="486.8" style="stroke: #000000; stroke-width: 0.8"/>
      </g>
     </g>
     <g id="text_12">
      <!-- −0.002 -->
      <g transform="translate(252.488281 492.498828) scale(0.15 -0.15)">
       <use xlink:href="#DejaVuSans-2212"/>
       <use xlink:href="#DejaVuSans-30" x="83.789062"/>
       <use xlink:href="#DejaVuSans-2e" x="147.412109"/>
       <use xlink:href="#DejaVuSans-30" x="179.199219"/>
       <use xlink:href="#DejaVuSans-30" x="242.822266"/>
       <use xlink:href="#DejaVuSans-32" x="306.445312"/>
      </g>
     </g>
    </g>
    <g id="ytick_4">
     <g id="line2d_12">
      <g>
       <use xlink:href="#m577dd75a69" x="315" y="425.2" style="stroke: #000000; stroke-width: 0.8"/>
      </g>
     </g>
     <g id="text_13">
      <!-- −0.001 -->
      <g transform="translate(252.488281 430.898828) scale(0.15 -0.15)">
       <use xlink:href="#DejaVuSans-2212"/>
       <use xlink:href="#DejaVuSans-30" x="83.789062"/>
       <use xlink:href="#DejaVuSans-2e" x="147.412109"/>
       <use xlink:href="#DejaVuSans-30" x="179.199219"/>
       <use xlink:href="#DejaVuSans-30" x="242.822266"/>
       <use xlink:href="#DejaVuSans-31" x="306.445312"/>
      </g>
     </g>
    </g>
    <g id="ytick_5">
     <g id="line2d_13">
      <g>
       <use xlink:href="#m577dd75a69" x="315" y="363.6" style="stroke: #000000; stroke-width: 0.8"/>
      </g>
     </g>
     <g id="text_14">
      <!-- 0.000 -->
      <g transform="translate(265.057813 369.298828) scale(0.15 -0.15)">
       <use xlink:href="#DejaVuSans-30"/>
       <use xlink:href="#DejaVuSans-2e" x="63.623047"/>
       <use xlink:href="#DejaVuSans-30" x="95.410156"/>
       <use xlink:href="#DejaVuSans-30" x="159.033203"/>
       <use xlink:href="#DejaVuSans-30" x="222.65625"/>
      </g>
     </g>
    </g>
    <g id="ytick_6">
     <g id="line2d_14">
      <g>
       <use xlink:href="#m577dd75a69" x="315" y="302" style="stroke: #000000; stroke-width: 0.8"/>
      </g>
     </g>
     <g id="text_15">
      <!-- 0.001 -->
      <g transform="translate(265.057813 307.698828) scale(0.15 -0.15)">
       <use xlink:href="#DejaVuSans-30"/>
       <use xlink:href="#DejaVuSans-2e" x="63.623047"/>
       <use xlink:href="#DejaVuSans-30" x="95.410156"/>
       <use xlink:href="#DejaVuSans-30" x="159.033203"/>
       <use xlink:href="#DejaVuSans-31" x="222.65625"/>
      </g>
     </g>
    </g>
    <g id="ytick_7">
     <g id="line2d_15">
      <g>
       <use xlink:href="#m577dd75a69" x="315" y="240.4" style="stroke: #000000; stroke-width: 0.8"/>
      </g>
     </g>
     <g id="text_16">
      <!-- 0.002 -->
      <g transform="translate(265.057813 246.098828) scale(0.15 -0.15)">
       <use xlink:href="#DejaVuSans-30"/>
       <use xlink:href="#DejaVuSans-2e" x="63.623047"/>
       <use xlink:href="#DejaVuSans-30" x="95.410156"/>
       <use xlink:href="#DejaVuSans-30" x="159.033203"/>
       <use xlink:href="#DejaVuSans-32" x="222.65625"/>
      </g>
     </g>
    </g>
    <g id="ytick_8">
     <g id="line2d_16">
      <g>
       <use xlink:href="#m577dd75a69" x="315" y="178.8" style="stroke: #000000; stroke-width: 0.8"/>
      </g>
     </g>
     <g id="text_17">
      <!-- 0.003 -->
      <g transform="translate(265.057813 184.498828) scale(0.15 -0.15)">
       <use xlink:href="#DejaVuSans-30"/>
       <use xlink:href="#DejaVuSans-2e" x="63.623047"/>
       <use xlink:href="#DejaVuSans-30" x="95.410156"/>
       <use xlink:href="#DejaVuSans-30" x="159.033203"/>
       <use xlink:href="#DejaVuSans-33" x="222.65625"/>
      </g>
     </g>
    </g>
    <g id="ytick_9">
     <g id="line2d_17">
      <g>
       <use xlink:href="#m577dd75a69" x="315" y="117.2" style="stroke: #000000; stroke-width: 0.8"/>
      </g>
     </g>
     <g id="text_18">
      <!-- 0.004 -->
      <g transform="translate(265.057813 122.898828) scale(0.15 -0.15)">
       <use xlink:href="#DejaVuSans-30"/>
       <use xlink:href="#DejaVuSans-2e" x="63.623047"/>
       <use xlink:href="#DejaVuSans-30" x="95.410156"/>
       <use xlink:href="#DejaVuSans-30" x="159.033203"/>
       <use xlink:href="#DejaVuSans-34" x="222.65625"/>
      </g>
     </g>
    </g>
    <g id="text_19">
     <!-- North(m) -->
     <g transform="translate(245.36875 397.734375) rotate(-90) scale(0.15 -0.15)">
      <defs>
       <path id="DejaVuSans-4e" d="M 628 4666 
L 1478 4666 
L 3547 763 
L 3547 4666 
L 4159 4666 
L 4159 0 
L 3309 0 
L 1241 3903 
L 1241 0 
L 628 0 
L 628 4666 
z
" transform="scale(0.015625)"/>
       <path id="DejaVuSans-6f" d="M 1959 3097 
Q 1497 3097 1228 2736 
Q 959 2375 959 1747 
Q 959 1119 1226 758 
Q 1494 397 1959 397 
Q 2419 397 2687 759 
Q 2956 1122 2956 1747 
Q 2956 2369 2687 2733 
Q 2419 3097 1959 3097 
z
M 1959 3584 
Q 2709 3584 3137 3096 
Q 3566 2609 3566 1747 
Q 3566 888 3137 398 
Q 2709 -91 1959 -91 
Q 1206 -91 779 398 
Q 353 888 353 1747 
Q 353 2609 779 3096 
Q 1206 3584 1959 3584 
z
" transform="scale(0.015625)"/>
       <path id="DejaVuSans-72" d="M 2631 2963 
Q 2534 3019 2420 3045 
Q 2306 3072 2169 3072 
Q 1681 3072 1420 2755 
Q 1159 2438 1159 1844 
L 1159 0 
L 581 0 
L 581 3500 
L 1159 3500 
L 1159 2956 
Q 1341 3275 1631 3429 
Q 1922 3584 2338 3584 
Q 2397 3584 2469 3576 
Q 2541 3569 2628 3553 
L 2631 2963 
z
" transform="scale(0.015625)"/>
       <path id="DejaVuSans-74" d="M 1172 4494 
L 1172 3500 
L 2356 3500 
L 2356 3053 
L 1172 3053 
L 1172 1153 
Q 1172 725 1289 603 
Q 1406 481 1766 481 
L 2356 481 
L 2356 0 
L 1766 0 
Q 1100 0 847 248 
Q 594 497 594 1153 
L 594 3053 
L 172 3053 
L 172 3500 
L 594 3500 
L 594 4494 
L 1172 4494 
z
" transform="scale(0.015625)"/>
       <path id="DejaVuSans-68" d="M 3513 2113 
L 3513 0 
L 2938 0 
L 2938 2094 
Q 2938 2591 2744 2837 
Q 2550 3084 2163 3084 
Q 1697 3084 1428 2787 
Q 1159 2491 1159 1978 
L 1159 0 
L 581 0 
L 581 4863 
L 1159 4863 
L 1159 2956 
Q 1366 3272 1645 3428 
Q 1925 3584 2291 3584 
Q 2894 3584 3203 3211 
Q 3513 2838 3513 2113 
z
" transform="scale(0.015625)"/>
       <path id="DejaVuSans-28" d="M 1984 4856 
Q 1566 4138 1362 3434 
Q 1159 2731 1159 2009 
Q 1159 1288 1364 580 
Q 1569 -128 1984 -844 
L 1484 -844 
Q 1016 -109 783 600 
Q 550 1309 550 2009 
Q 550 2706 781 3412 
Q 1013 4119 1484 4856 
L 1984 4856 
z
" transform="scale(0.015625)"/>
       <path id="DejaVuSans-29" d="M 513 4856 
L 1013 4856 
Q 1481 4119 1714 3412 
Q 1947 2706 1947 2009 
Q 1947 1309 1714 600 
Q 1481 -109 1013 -844 
L 513 -844 
Q 928 -128 1133 580 
Q 1338 1288 1338 2009 
Q 1338 2731 1133 3434 
Q 928 4138 513 4856 
z
" transform="scale(0.015625)"/>
      </defs>
      <use xlink:href="#DejaVuSans-4e"/>
      <use xlink:href="#DejaVuSans-6f" x="74.804688"/>
      <use xlink:href="#DejaVuSans-72" x="135.986328"/>
      <use xlink:href="#DejaVuSans-74" x="177.099609"/>
      <use xlink:href="#DejaVuSans-68" x="216.308594"/>
      <use xlink:href="#DejaVuSans-28" x="279.6875"/>
      <use xlink:href="#DejaVuSans-6d" x="318.701172"/>
      <use xlink:href="#DejaVuSans-29" x="416.113281"/>
     </g>
    </g>
   </g>
   <g id="line2d_18">
    <path d="M 312.328317 441.322995 
L 315 301.496174 
L 317.671683 341.539545 
L 320.343365 414.924283 
L 323.015048 330.103248 
L 325.686731 366.37197 
L 328.358413 312.488444 
L 331.030096 359.819804 
L 333.701778 385.910256 
L 336.373461 373.447532 
L 339.045144 340.762125 
L 341.716826 397.148385 
L 344.388509 381.317624 
L 347.060192 309.526641 
L 349.731874 348.854151 
L 352.403557 338.495267 
L 355.075239 396.376626 
L 357.746922 386.883493 
L 360.418605 384.645068 
L 363.090287 372.814161 
L 365.76197 347.120359 
L 368.433653 326.387214 
L 371.105335 416.243592 
L 373.777018 321.960666 
L 376.4487 396.886743 
L 379.120383 351.316633 
L 381.792066 388.581251 
L 384.463748 371.80445 
L 387.135431 383.31013 
L 389.807114 348.535797 
L 392.478796 450.963669 
L 395.150479 325.977188 
L 397.822161 371.925302 
L 400.493844 379.991383 
L 403.165527 304.543961 
L 405.837209 347.936217 
L 408.508892 375.478628 
L 411.180575 312.466997 
L 413.852257 397.721417 
L 416.52394 408.612242 
L 419.195622 344.55667 
L 421.867305 377.619518 
L 424.538988 418.0965 
L 427.21067 207.889776 
L 429.882353 482.436361 
L 432.554036 409.592576 
L 435.225718 360.072437 
L 437.897401 304.599559 
L 440.569083 453.342064 
L 443.240766 322.877217 
L 445.912449 402.257846 
L 448.584131 336.424379 
L 451.255814 282.594728 
L 453.927497 396.401801 
L 456.599179 364.987433 
L 459.270862 402.723461 
L 461.942544 366.902062 
L 464.614227 376.209501 
L 467.28591 362.436515 
L 469.957592 275.389317 
M 475.300958 427.044933 
L 477.97264 399.213282 
L 480.644323 356.355589 
L 483.316005 353.766981 
L 485.987688 326.908924 
L 488.659371 376.503163 
L 491.331053 340.721244 
L 494.002736 322.851857 
L 496.674419 368.809161 
L 499.346101 342.016704 
L 502.017784 337.04344 
L 504.689466 371.352283 
L 507.361149 409.159694 
L 510.032832 356.591506 
L 512.704514 437.998182 
L 515.376197 314.091207 
L 518.04788 398.664618 
L 520.719562 268.690387 
L 523.391245 433.156083 
L 526.062927 375.862904 
L 528.73461 331.504109 
L 531.406293 436.965179 
L 534.077975 380.866268 
L 536.749658 279.266428 
L 539.421341 314.845764 
L 542.093023 482.874407 
L 544.764706 277.373829 
L 547.436389 453.166628 
L 550.108071 291.913788 
L 552.779754 387.673662 
L 555.451436 334.577779 
L 558.123119 360.451124 
M 563.466484 282.946195 
L 566.138167 450.43925 
L 568.80985 338.786998 
L 571.481532 339.995697 
L 574.153215 427.389888 
L 576.824897 310.075 
L 579.49658 331.200247 
L 582.168263 359.967795 
L 584.839945 348.436923 
L 587.511628 305.976923 
L 590.183311 372.801109 
L 592.854993 410.337412 
L 595.526676 344.960656 
M 616.900137 146.086152 
L 619.571819 466.838275 
L 622.243502 388.660341 
L 624.915185 423.89879 
M 640.94528 431.088899 
L 643.616963 197.591937 
L 646.288646 503.262133 
L 648.960328 347.625784 
L 651.632011 389.302935 
L 654.303694 294.260316 
L 656.975376 443.081638 
L 659.647059 276.306646 
L 662.318741 378.55152 
L 664.990424 256.104605 
L 667.662107 419.11711 
M 673.005472 388.369226 
L 675.677155 419.675757 
L 678.348837 380.20822 
L 681.02052 261.328602 
L 683.692202 423.088139 
L 686.363885 340.612533 
L 689.035568 361.133562 
L 691.70725 303.165763 
L 694.378933 424.968482 
L 697.050616 412.536884 
L 699.722298 329.912001 
L 702.393981 400.467063 
L 705.065663 415.273445 
L 707.737346 244.864384 
L 710.409029 392.89801 
L 713.080711 361.058294 
L 715.752394 316.186512 
L 718.424077 385.602195 
L 721.095759 415.592257 
L 723.767442 353.803711 
L 726.439124 356.945395 
L 729.110807 311.883084 
L 731.78249 342.499716 
L 734.454172 375.549716 
L 737.125855 340.673526 
L 739.797538 452.17922 
L 742.46922 362.328879 
L 745.140903 259.270594 
L 747.812585 442.512485 
L 750.484268 333.972625 
L 753.155951 331.485528 
L 755.827633 449.711982 
L 758.499316 303.364998 
L 761.170999 415.984673 
L 763.842681 322.794408 
L 766.514364 350.788436 
L 769.186047 447.614707 
L 771.857729 196.766631 
L 774.529412 448.510164 
L 777.201094 276.116367 
L 779.872777 481.904171 
L 782.54446 332.816811 
L 785.216142 384.29477 
L 787.887825 330.842714 
L 790.559508 412.275323 
L 793.23119 294.950163 
L 795.902873 386.935349 
L 798.574555 410.40935 
L 801.246238 231.034705 
L 803.917921 447.414106 
L 806.589603 403.793591 
L 809.261286 337.859635 
L 811.932969 417.297096 
L 814.604651 385.622989 
L 817.276334 273.613403 
L 819.948016 333.210648 
L 822.619699 428.80246 
L 825.291382 385.872778 
L 827.963064 278.065648 
L 830.634747 409.714033 
L 833.30643 383.774073 
L 835.978112 346.302196 
L 838.649795 371.669213 
L 841.321477 342.345875 
L 843.99316 383.471823 
L 846.664843 395.251268 
L 849.336525 424.145176 
L 852.008208 256.461737 
L 854.679891 344.815806 
L 857.351573 381.450451 
L 860.023256 302.787773 
L 862.694938 473.508965 
L 865.366621 387.153418 
L 868.038304 252.044006 
L 870.709986 382.15375 
L 873.381669 324.259249 
L 876.053352 433.527439 
L 878.725034 379.029818 
L 881.396717 370.662393 
L 884.068399 412.498445 
L 886.740082 293.890371 
L 889.411765 382.019595 
L 894.75513 348.953021 
L 897.426813 429.389248 
L 900.098495 244.893941 
L 902.770178 458.823196 
L 905.44186 354.55326 
L 908.113543 292.207294 
L 910.785226 419.407019 
L 913.456908 232.679052 
L 916.128591 468.665628 
L 918.800274 442.021398 
L 921.471956 281.18171 
L 924.143639 392.106869 
L 926.815321 320.601904 
L 929.487004 331.417769 
L 932.158687 416.922636 
L 934.830369 377.049969 
L 937.502052 348.95462 
L 940.173735 420.557207 
L 942.845417 344.159863 
L 945.5171 406.862669 
L 948.188782 368.500282 
L 950.860465 311.475004 
L 953.532148 395.52787 
L 956.20383 334.961357 
L 958.875513 363.450486 
L 961.547196 312.226016 
L 964.218878 379.586728 
L 966.890561 406.463406 
L 969.562244 393.700683 
L 972.233926 314.623785 
L 974.905609 367.860506 
L 977.577291 341.030148 
L 980.248974 418.432191 
L 982.920657 331.823527 
L 985.592339 341.77719 
L 988.264022 368.606605 
L 990.935705 332.558136 
L 993.607387 341.831467 
L 996.27907 409.16216 
L 998.950752 356.203194 
L 1001.622435 311.660595 
L 1004.294118 403.624197 
L 1006.9658 243.605341 
L 1009.637483 377.356179 
L 1012.309166 415.595527 
L 1014.980848 443.693287 
L 1017.652531 279.140982 
M 1022.995896 338.680212 
L 1025.667579 503.288315 
L 1028.339261 225.478201 
L 1031.010944 338.055841 
L 1033.682627 386.943588 
L 1036.354309 375.013983 
L 1039.025992 306.029449 
L 1041.697674 419.491891 
L 1044.369357 379.045394 
L 1047.04104 205.449394 
L 1049.712722 469.498112 
L 1052.384405 411.188622 
L 1055.056088 327.383058 
L 1057.72777 348.835864 
L 1060.399453 315.11949 
L 1063.071135 400.786099 
L 1065.742818 346.233757 
L 1068.414501 350.969693 
L 1071.086183 437.92875 
L 1073.757866 294.673277 
L 1076.429549 414.998827 
L 1079.101231 332.211426 
L 1081.772914 327.608571 
L 1084.444596 396.833578 
L 1087.116279 340.573035 
L 1089.787962 362.556911 
L 1092.459644 334.512379 
L 1095.131327 375.181261 
L 1097.80301 406.368983 
L 1100.474692 388.835705 
L 1103.146375 327.55748 
L 1105.818057 317.115054 
L 1108.48974 358.685374 
L 1111.161423 335.981138 
L 1113.833105 332.683056 
L 1116.504788 356.607705 
L 1119.176471 318.541054 
L 1121.848153 347.54735 
L 1124.519836 392.698509 
L 1127.191518 361.9273 
L 1129.863201 312.511594 
L 1132.534884 373.814292 
L 1135.206566 342.393308 
L 1137.878249 403.531102 
L 1140.549932 425.721083 
L 1143.221614 286.432068 
L 1145.893297 334.37132 
L 1148.564979 395.131911 
L 1151.236662 360.925289 
L 1153.908345 383.626002 
L 1156.580027 331.799222 
L 1159.25171 344.809594 
L 1161.923393 309.711506 
L 1164.595075 293.378211 
L 1167.266758 481.472838 
L 1169.93844 339.695645 
L 1172.610123 345.269715 
L 1175.281806 401.156971 
M 1180.625171 455.21328 
L 1183.296854 324.20371 
L 1185.968536 300.989462 
L 1188.640219 403.921913 
L 1191.311902 245.864231 
M 1196.655267 402.424594 
L 1199.326949 374.580637 
L 1201.998632 410.772224 
L 1204.670315 341.289828 
L 1207.341997 451.848492 
L 1210.01368 258.466483 
L 1212.685363 363.228953 
L 1215.357045 389.170399 
L 1218.028728 350.683581 
L 1220.70041 349.684476 
L 1223.372093 370.761464 
L 1226.043776 360.111929 
L 1228.715458 443.987107 
L 1231.387141 193.852072 
L 1234.058824 530.487095 
L 1236.730506 332.213868 
L 1239.402189 363.042994 
L 1242.073871 411.483758 
L 1244.745554 355.23902 
L 1247.417237 306.255693 
L 1250.088919 362.412081 
L 1252.760602 386.879953 
L 1255.432285 351.272039 
L 1258.103967 310.565927 
M 1263.447332 401.524546 
L 1266.119015 318.07109 
L 1268.790698 266.754337 
L 1271.46238 470.238773 
L 1274.134063 438.24942 
L 1276.805746 265.620316 
L 1279.477428 326.860698 
L 1282.149111 423.78086 
L 1284.820793 415.782068 
L 1287.492476 358.142195 
L 1290.164159 328.303021 
L 1292.835841 367.644579 
L 1295.507524 291.023491 
L 1298.179207 358.522475 
L 1300.850889 352.890388 
L 1303.522572 414.051501 
L 1306.194254 276.105381 
L 1308.865937 402.718192 
L 1311.53762 356.819215 
L 1314.209302 396.5846 
L 1316.880985 376.947104 
L 1319.552668 375.392348 
M 1327.567715 356.998974 
L 1330.239398 346.729804 
L 1332.911081 442.243407 
L 1335.582763 254.416608 
L 1338.254446 429.591281 
L 1340.926129 308.392349 
L 1343.597811 409.460769 
L 1346.269494 327.301554 
L 1348.941176 480.840509 
L 1351.612859 245.46991 
L 1354.284542 326.693713 
L 1356.956224 360.821807 
L 1359.627907 384.939736 
L 1362.29959 462.281212 
L 1364.971272 409.08141 
L 1367.642955 265.624684 
L 1370.314637 349.436165 
L 1372.98632 406.731972 
L 1375.658003 479.608966 
L 1378.329685 224.778877 
L 1381.001368 315.147567 
L 1383.673051 448.221969 
L 1386.344733 249.191477 
L 1389.016416 373.823611 
L 1391.688098 309.093669 
L 1394.359781 454.384208 
L 1397.031464 433.622218 
L 1399.703146 349.574347 
L 1402.374829 388.610934 
L 1405.046512 316.221418 
L 1407.718194 407.564028 
L 1410.389877 338.479156 
L 1413.06156 346.017794 
L 1415.733242 371.055133 
L 1418.404925 416.96206 
L 1421.076607 314.985958 
L 1423.74829 360.743727 
L 1426.419973 408.870819 
L 1429.091655 329.903471 
L 1431.763338 350.764541 
L 1434.435021 388.902511 
L 1437.106703 357.551681 
L 1439.778386 317.904292 
L 1442.450068 368.12355 
L 1445.121751 349.325992 
L 1447.793434 352.183175 
L 1450.465116 396.039698 
L 1453.136799 363.525833 
L 1455.808482 365.491296 
L 1458.480164 151.839356 
L 1461.151847 545.218079 
L 1466.495212 224.750552 
L 1469.166895 417.080531 
L 1471.838577 364.673787 
L 1474.51026 380.857215 
L 1477.181943 330.12689 
L 1479.853625 348.202554 
L 1482.525308 380.404136 
L 1485.19699 374.447394 
L 1487.868673 198.578294 
L 1490.540356 533.990577 
L 1493.212038 346.384242 
L 1495.883721 367.449988 
L 1498.555404 321.115377 
M 1503.898769 368.002533 
L 1506.570451 394.64864 
L 1509.242134 359.861492 
L 1511.913817 365.524748 
L 1514.585499 329.629635 
L 1517.257182 420.338772 
L 1519.928865 365.48849 
L 1522.600547 419.725676 
L 1527.943912 232.137342 
L 1530.615595 422.100091 
L 1533.287278 309.905028 
L 1535.95896 369.32967 
L 1538.630643 391.294758 
L 1541.302326 329.879861 
L 1543.974008 336.252919 
L 1546.645691 379.822006 
L 1549.317373 385.445486 
L 1551.989056 334.252691 
L 1554.660739 359.276704 
L 1560.004104 377.384899 
L 1562.675787 356.20825 
L 1565.347469 352.440138 
L 1568.019152 378.973051 
L 1570.690834 354.287021 
L 1573.362517 319.5672 
L 1576.0342 439.716769 
L 1578.705882 338.426718 
L 1581.377565 250.834706 
L 1584.049248 447.027931 
L 1586.72093 466.896985 
L 1589.392613 343.474189 
L 1592.064295 268.092094 
M 1602.751026 260.459707 
L 1605.422709 555.257499 
L 1608.094391 296.027153 
L 1610.766074 414.457563 
L 1613.437756 265.913747 
L 1616.109439 484.62234 
L 1618.781122 312.907971 
L 1621.452804 383.043651 
L 1624.124487 379.758425 
L 1626.79617 338.1256 
L 1629.467852 399.355878 
L 1632.139535 322.188681 
L 1634.811218 350.073406 
L 1637.4829 333.194486 
L 1640.154583 327.155331 
L 1642.826265 462.719345 
L 1645.497948 413.904106 
L 1648.169631 295.181683 
L 1650.841313 300.943742 
L 1653.512996 422.449255 
L 1656.184679 317.306445 
L 1658.856361 377.931397 
L 1661.528044 338.817651 
L 1664.199726 410.80955 
L 1666.871409 314.802652 
L 1669.543092 382.176114 
L 1672.214774 305.083904 
L 1674.886457 433.161013 
L 1677.55814 313.784262 
L 1680.229822 357.583479 
L 1682.901505 386.37729 
L 1685.573187 384.465038 
L 1688.24487 378.634594 
L 1690.916553 367.294565 
L 1693.588235 351.852051 
L 1696.259918 431.939423 
L 1698.931601 304.680924 
L 1701.603283 423.332657 
L 1704.274966 213.860339 
L 1706.946648 388.691274 
L 1709.618331 488.729144 
L 1712.290014 291.712957 
L 1714.961696 322.169094 
L 1717.633379 363.415433 
L 1720.305062 468.153644 
L 1722.976744 250.483038 
L 1725.648427 391.545909 
L 1728.320109 347.392043 
L 1730.991792 422.50809 
L 1733.663475 359.092187 
L 1736.335157 312.632943 
L 1739.00684 410.983211 
L 1741.678523 415.715594 
L 1744.350205 296.633991 
L 1747.021888 390.680683 
L 1749.69357 285.936568 
L 1752.365253 368.767135 
L 1755.036936 379.510116 
L 1757.708618 270.412649 
L 1760.380301 402.761356 
L 1763.051984 436.383799 
L 1765.723666 343.882305 
L 1768.395349 345.512535 
L 1771.067031 353.820216 
L 1773.738714 447.609119 
L 1776.410397 309.267169 
L 1779.082079 438.888336 
L 1781.753762 331.190354 
L 1784.425445 304.884795 
L 1787.097127 479.052525 
L 1789.76881 264.611628 
L 1792.440492 289.693444 
L 1795.112175 429.975321 
L 1797.783858 397.49781 
L 1800.45554 371.09844 
L 1803.127223 272.019035 
L 1805.798906 428.478861 
L 1808.470588 419.528875 
L 1811.142271 461.357279 
L 1813.813953 296.636354 
L 1816.485636 335.726111 
L 1819.157319 297.809991 
L 1821.829001 413.425505 
L 1824.500684 435.176929 
L 1827.172367 305.215663 
L 1829.844049 359.608666 
L 1832.515732 329.942643 
L 1835.187415 296.561776 
L 1837.859097 480.18854 
L 1840.53078 398.098132 
L 1843.202462 286.60662 
L 1845.874145 415.300255 
L 1848.545828 346.115358 
L 1851.21751 432.421307 
L 1853.889193 468.885149 
L 1856.560876 104.765211 
M 1872.590971 371.868253 
L 1875.262654 462.868727 
L 1877.934337 364.487379 
L 1880.606019 389.302563 
L 1883.277702 360.899802 
L 1885.949384 328.58213 
L 1888.621067 390.776871 
L 1891.29275 276.048355 
L 1893.964432 433.58699 
L 1896.636115 377.651323 
L 1899.307798 341.895752 
L 1901.97948 344.564239 
L 1904.651163 369.439472 
L 1907.322845 365.374126 
L 1909.994528 391.808083 
L 1912.666211 393.670802 
L 1915.337893 346.066161 
L 1918.009576 305.042086 
L 1920.681259 353.550198 
L 1923.352941 391.277862 
L 1926.024624 400.572483 
L 1928.696306 258.213029 
L 1931.367989 469.356808 
L 1934.039672 311.733566 
L 1936.711354 403.373917 
L 1939.383037 336.021673 
L 1942.05472 399.128797 
L 1944.726402 323.118763 
L 1947.398085 386.998238 
L 1950.069767 313.709276 
L 1952.74145 419.961 
L 1955.413133 345.374049 
L 1958.084815 325.317187 
L 1960.756498 395.229651 
L 1963.428181 376.759171 
L 1966.099863 423.184113 
L 1968.771546 271.049334 
L 1971.443228 437.244684 
L 1974.114911 268.824609 
L 1976.786594 424.46276 
L 1979.458276 365.263761 
L 1982.129959 294.905566 
L 1984.801642 445.199352 
L 1987.473324 326.630379 
L 1990.145007 352.846007 
L 1992.816689 314.177951 
L 1995.488372 375.379385 
L 1998.160055 415.138211 
L 2000.831737 318.450924 
L 2003.50342 319.148308 
L 2006.175103 396.455716 
L 2008.846785 376.451722 
L 2011.518468 312.984168 
L 2014.19015 387.629028 
L 2016.861833 342.523343 
L 2019.533516 413.848902 
L 2024.876881 354.511408 
L 2027.548564 372.429955 
L 2030.220246 246.512085 
L 2032.891929 412.814776 
L 2035.563611 436.941695 
L 2038.235294 374.649443 
L 2040.906977 301.024984 
L 2043.578659 430.573172 
L 2046.250342 300.614366 
L 2048.922025 357.397275 
L 2051.593707 348.538839 
L 2054.26539 377.405923 
L 2056.937073 367.661155 
L 2059.608755 363.04619 
L 2062.280438 304.297355 
L 2064.95212 406.364494 
L 2067.623803 368.620041 
L 2070.295486 295.495212 
L 2072.967168 313.583947 
L 2075.638851 488.88249 
L 2078.310534 273.401896 
L 2080.982216 356.854286 
L 2083.653899 422.751523 
L 2086.325581 365.112723 
L 2088.997264 336.266036 
L 2091.668947 353.016419 
L 2094.340629 337.425433 
L 2097.012312 365.184904 
L 2099.683995 381.884631 
L 2102.355677 371.564359 
L 2105.02736 307.355329 
L 2107.699042 414.793084 
L 2110.370725 350.917547 
L 2113.042408 376.688039 
L 2115.71409 342.918486 
L 2118.385773 404.969974 
L 2121.057456 402.414214 
L 2123.729138 292.152075 
L 2126.400821 395.1272 
L 2129.072503 293.524613 
M 2134.415869 403.807111 
L 2137.087551 356.079902 
L 2139.759234 371.488754 
L 2142.430917 392.583256 
L 2145.102599 344.755646 
L 2147.774282 328.286972 
L 2150.445964 332.432249 
L 2153.117647 366.215127 
L 2155.78933 340.988346 
L 2158.461012 390.263479 
L 2161.132695 374.099149 
L 2166.47606 329.867984 
L 2169.147743 379.837672 
L 2171.819425 342.539718 
L 2174.491108 371.478354 
L 2177.162791 367.650013 
L 2179.834473 413.952846 
M 2187.849521 382.433035 
L 2190.521204 355.933412 
L 2193.192886 340.937544 
L 2195.864569 340.835391 
L 2198.536252 306.762051 
L 2201.207934 399.596187 
L 2203.879617 398.548935 
L 2206.5513 366.178684 
L 2209.222982 376.495038 
L 2211.894665 330.667746 
L 2214.566347 385.737081 
L 2217.23803 304.53638 
L 2219.909713 338.136164 
L 2222.581395 412.071294 
L 2225.253078 232.811265 
L 2227.924761 401.895728 
L 2230.596443 416.267934 
L 2233.268126 361.981041 
L 2235.939808 385.680383 
L 2238.611491 315.989841 
L 2241.283174 268.893877 
L 2243.954856 447.71474 
L 2246.626539 334.9609 
L 2249.298222 379.921552 
L 2251.969904 368.379651 
L 2254.641587 364.408901 
L 2257.313269 404.463308 
L 2259.984952 297.518692 
L 2262.656635 339.053614 
L 2265.328317 315.417587 
L 2268 452.35537 
L 2270.671683 389.376236 
L 2270.671683 389.376236 
" clip-path="url(#pfe7e106907)" style="fill: none; stroke: #008000; stroke-linecap: square"/>
   </g>
   <g id="line2d_19">
    <path d="M 312.328317 359.656574 
L 315 359.681752 
L 317.671683 323.013886 
L 320.343365 329.97455 
L 323.015048 367.75367 
L 325.686731 355.951597 
L 328.358413 358.078342 
L 331.030096 339.679393 
L 333.701778 345.754086 
L 336.373461 363.819852 
L 339.045144 369.780698 
L 341.716826 357.92919 
L 344.388509 372.883796 
L 347.060192 378.533183 
L 349.731874 349.833492 
L 352.403557 345.914169 
L 355.075239 343.058519 
L 357.746922 365.023476 
L 360.418605 376.920984 
L 363.090287 381.027749 
L 365.76197 377.89776 
L 368.433653 364.546885 
L 371.105335 347.025398 
L 373.777018 374.259749 
L 376.4487 355.979519 
L 379.120383 370.17521 
L 381.792066 364.590875 
L 384.463748 373.497212 
L 387.135431 374.100265 
L 389.807114 377.763136 
L 392.478796 365.987731 
L 395.150479 364.468598 
L 397.822161 344.424105 
L 400.493844 355.278218 
L 403.165527 367.287992 
L 405.837209 341.966929 
L 408.508892 341.21466 
L 411.180575 356.157139 
L 413.852257 339.500314 
L 419.195622 384.466248 
L 421.867305 369.818254 
L 424.538988 370.893463 
L 427.21067 391.289789 
L 429.882353 393.623224 
L 432.554036 393.420106 
L 435.225718 403.109318 
L 437.897401 383.45555 
L 440.569083 347.414095 
L 443.240766 343.687232 
L 445.912449 333.063879 
L 448.584131 363.558518 
L 451.255814 355.328957 
L 453.927497 353.683376 
L 456.599179 376.272655 
L 459.270862 372.908432 
L 461.942544 384.961968 
L 464.614227 378.901169 
L 467.28591 376.726997 
L 469.957592 370.693935 
L 472.629275 369.976077 
L 475.300958 370.038564 
L 477.97264 404.124442 
L 480.644323 403.812399 
L 483.316005 382.946676 
L 485.987688 368.314409 
L 488.659371 349.660951 
L 491.331053 358.937744 
L 494.002736 352.831393 
L 496.674419 339.204629 
L 499.346101 350.196938 
L 502.017784 348.386384 
L 504.689466 343.074839 
L 507.361149 354.409025 
L 510.032832 378.845612 
L 512.704514 372.151263 
L 515.376197 370.796838 
L 518.04788 341.191251 
L 520.719562 364.87128 
L 523.391245 367.812878 
L 526.062927 367.556822 
L 528.73461 372.577862 
L 531.406293 353.533264 
L 534.077975 351.615699 
L 536.749658 367.36182 
L 539.421341 368.537338 
L 542.093023 338.928845 
L 544.764706 336.832493 
L 547.436389 337.014973 
L 552.779754 337.000472 
L 555.451436 372.733193 
L 558.123119 355.241685 
L 563.466484 356.128785 
L 568.80985 356.096034 
L 571.481532 344.785187 
L 574.153215 341.955223 
L 576.824897 341.784653 
L 579.49658 324.852567 
L 582.168263 326.457933 
L 584.839945 341.210168 
L 587.511628 345.887782 
L 590.183311 329.357941 
L 592.854993 345.525788 
L 595.526676 375.100336 
L 598.198358 365.517116 
L 600.870041 363.727744 
L 603.541724 363.883503 
L 622.243502 363.871031 
L 624.915185 383.885815 
L 627.586867 404.792341 
L 630.25855 406.455494 
L 632.930233 406.310722 
L 648.960328 406.322315 
L 651.632011 359.670389 
L 654.303694 373.728373 
L 656.975376 375.084087 
L 659.647059 374.966077 
L 662.318741 374.976349 
L 664.990424 377.334645 
L 667.662107 377.44057 
L 670.333789 401.199114 
L 673.005472 402.758816 
L 675.677155 394.621506 
L 678.348837 405.620035 
L 681.02052 395.938637 
L 683.692202 394.569357 
L 686.363885 409.681607 
L 689.035568 379.529871 
L 691.70725 368.279308 
L 694.378933 340.231049 
L 697.050616 372.568897 
L 699.722298 393.877528 
L 702.393981 368.652877 
L 705.065663 378.633011 
L 707.737346 395.911564 
L 710.409029 397.596952 
L 713.080711 394.986172 
L 715.752394 379.431176 
L 718.424077 350.804744 
L 721.095759 362.447607 
L 723.767442 386.767679 
L 726.439124 375.464112 
L 729.110807 365.808547 
L 731.78249 342.404793 
L 734.454172 339.787818 
L 737.125855 355.032969 
L 739.797538 350.792297 
L 742.46922 349.911492 
L 745.140903 356.499663 
L 747.812585 357.007077 
L 750.484268 356.962908 
L 753.155951 342.828202 
L 755.827633 336.6862 
L 758.499316 336.233499 
L 761.170999 318.751147 
L 763.842681 361.675065 
L 766.514364 349.767842 
L 769.186047 347.849878 
L 771.857729 348.10567 
L 782.54446 348.085188 
L 785.216142 337.003545 
L 787.887825 360.124832 
L 790.559508 349.421059 
L 793.23119 374.429294 
L 795.902873 377.723665 
L 798.574555 382.271143 
L 801.246238 395.429772 
L 803.917921 396.733695 
L 806.589603 396.620192 
L 809.261286 400.947282 
L 811.932969 371.503838 
L 814.604651 388.33222 
L 817.276334 389.709742 
L 819.948016 389.354004 
L 822.619699 359.934805 
L 825.291382 357.608556 
L 827.963064 373.303554 
L 830.634747 374.397663 
L 833.30643 393.806083 
L 835.978112 390.577991 
L 838.649795 370.995118 
L 841.321477 369.129858 
L 843.99316 358.10732 
L 846.664843 367.372045 
L 849.336525 380.459296 
L 852.008208 400.066218 
L 854.679891 402.162211 
L 857.351573 371.921727 
L 860.023256 373.879295 
L 862.694938 344.158891 
L 865.366621 340.557673 
L 868.038304 365.353616 
L 870.709986 367.251217 
L 873.381669 375.25687 
L 876.053352 352.45601 
L 878.725034 350.001575 
L 881.396717 365.619949 
L 884.068399 369.07975 
L 886.740082 387.787812 
L 889.411765 389.938791 
L 892.083447 385.590129 
L 894.75513 376.308982 
L 897.426813 363.702533 
L 900.098495 362.418637 
L 902.770178 362.530396 
L 905.44186 362.520668 
L 908.113543 357.321681 
L 910.785226 357.080699 
L 913.456908 392.574434 
L 916.128591 394.910122 
L 918.800274 394.706808 
L 924.143639 394.722965 
L 926.815321 392.874521 
L 929.487004 357.191399 
L 932.158687 342.755568 
L 934.830369 373.17088 
L 937.502052 378.609444 
L 940.173735 366.034614 
L 942.845417 387.399121 
L 945.5171 372.146378 
L 948.188782 384.272422 
L 950.860465 379.623009 
L 953.532148 350.06929 
L 956.20383 365.777949 
L 958.875513 355.44118 
L 961.547196 357.018082 
L 964.218878 338.789416 
L 966.890561 353.590097 
L 969.562244 378.03138 
L 972.233926 387.078976 
L 974.905609 357.263148 
L 977.577291 357.996726 
L 980.248974 351.738495 
L 982.920657 378.781864 
L 985.592339 362.536038 
L 988.264022 351.155061 
L 990.935705 357.659014 
L 993.607387 348.083092 
L 996.27907 344.109375 
L 998.950752 371.198285 
L 1001.622435 368.213038 
L 1004.294118 343.446 
L 1006.9658 365.921675 
L 1009.637483 369.203554 
L 1012.309166 373.191678 
L 1014.980848 392.766296 
L 1017.652531 394.753505 
L 1020.324213 394.580525 
L 1022.995896 394.595582 
L 1025.667579 357.973734 
L 1028.339261 356.294297 
L 1031.010944 356.440486 
L 1033.682627 344.836403 
L 1036.354309 364.327516 
L 1039.025992 370.922232 
L 1041.697674 343.859534 
L 1044.369357 372.333674 
L 1047.04104 379.253607 
L 1052.384405 379.237061 
L 1055.056088 398.33792 
L 1057.72777 366.126322 
L 1060.399453 355.297665 
L 1063.071135 337.774914 
L 1065.742818 362.262696 
L 1068.414501 358.8937 
L 1071.086183 354.470382 
L 1073.757866 354.165841 
L 1076.429549 354.192351 
L 1079.101231 390.544575 
L 1081.772914 365.271127 
L 1084.444596 346.152001 
L 1087.116279 365.931933 
L 1089.787962 357.973023 
L 1092.459644 358.380835 
L 1095.131327 348.739993 
L 1097.80301 358.591204 
L 1100.474692 380.072699 
L 1103.146375 386.036795 
L 1105.818057 361.754959 
L 1108.48974 340.05678 
L 1111.161423 345.872372 
L 1113.833105 342.839445 
L 1116.504788 337.982993 
L 1119.176471 345.332616 
L 1121.848153 335.078039 
L 1124.519836 338.868018 
L 1127.191518 362.19934 
L 1129.863201 364.740101 
L 1132.534884 342.591292 
L 1135.206566 353.067479 
L 1137.878249 350.39681 
L 1140.549932 371.98397 
L 1143.221614 397.266697 
L 1145.893297 399.743557 
L 1148.564979 365.261685 
L 1151.236662 376.105845 
L 1153.908345 371.274893 
L 1156.580027 375.576095 
L 1159.25171 357.903911 
L 1161.923393 350.144765 
L 1164.595075 332.711588 
L 1167.266758 330.709508 
L 1169.93844 330.883782 
L 1172.610123 336.138321 
L 1175.281806 340.737773 
L 1177.953488 367.187573 
L 1180.625171 370.144496 
L 1183.296854 369.887106 
L 1185.968536 342.53469 
L 1188.640219 321.410527 
L 1191.311902 355.220475 
L 1193.983584 359.459773 
L 1196.655267 359.090757 
L 1199.326949 385.090098 
L 1201.998632 381.658973 
L 1204.670315 393.599516 
L 1207.341997 373.012108 
L 1210.01368 370.250789 
L 1212.685363 370.491153 
L 1215.357045 366.12642 
L 1218.028728 376.700531 
L 1220.70041 366.566229 
L 1223.372093 358.057393 
L 1226.043776 362.663305 
L 1228.715458 362.298208 
L 1231.387141 362.1079 
L 1236.730506 362.123024 
L 1239.402189 342.624874 
L 1242.073871 351.550591 
L 1244.745554 378.559106 
L 1247.417237 371.565794 
L 1250.088919 342.708983 
L 1252.760602 347.799834 
L 1255.432285 365.451434 
L 1258.103967 361.368409 
L 1260.77565 339.181679 
L 1263.447332 336.690773 
L 1266.119015 370.893365 
L 1268.790698 349.627597 
L 1271.46238 346.880708 
L 1274.134063 347.119815 
L 1279.477428 347.100814 
L 1282.149111 333.02343 
L 1284.820793 377.009269 
L 1287.492476 397.986135 
L 1290.164159 382.670209 
L 1292.835841 357.689892 
L 1295.507524 359.307408 
L 1298.179207 360.033131 
L 1300.850889 359.178236 
L 1303.522572 356.272491 
L 1306.194254 380.668532 
L 1308.865937 383.574409 
L 1311.53762 393.380033 
L 1314.209302 377.617427 
L 1316.880985 383.913618 
L 1319.552668 382.082274 
L 1322.22435 378.827523 
L 1324.896033 378.528502 
L 1327.567715 378.554531 
L 1330.239398 365.665369 
L 1332.911081 356.016084 
L 1335.582763 355.207744 
L 1340.926129 355.271982 
L 1343.597811 324.500772 
L 1346.269494 364.089916 
L 1348.941176 352.066913 
L 1351.612859 349.911171 
L 1354.284542 350.098821 
L 1356.956224 336.049289 
L 1359.627907 346.881273 
L 1362.29959 364.510224 
L 1364.971272 366.288545 
L 1367.642955 388.646861 
L 1370.314637 390.425621 
L 1372.98632 367.792032 
L 1375.658003 384.06363 
L 1378.329685 386.036834 
L 1381.001368 385.865073 
L 1383.673051 343.272383 
L 1386.344733 340.824212 
L 1389.016416 341.037317 
L 1391.688098 361.488023 
L 1394.359781 337.644386 
L 1397.031464 335.159141 
L 1399.703146 335.375473 
L 1402.374829 343.939216 
L 1405.046512 365.479727 
L 1407.718194 346.234632 
L 1410.389877 369.515904 
L 1413.06156 359.794193 
L 1415.733242 352.161079 
L 1418.404925 359.545647 
L 1421.076607 384.627045 
L 1423.74829 358.234787 
L 1426.419973 355.52235 
L 1429.091655 378.350773 
L 1431.763338 360.689032 
L 1434.435021 353.846999 
L 1437.106703 368.280682 
L 1439.778386 365.576086 
L 1442.450068 344.88442 
L 1445.121751 352.282194 
L 1447.793434 352.421324 
L 1450.465116 352.052008 
L 1453.136799 370.51151 
L 1455.808482 369.803917 
L 1458.480164 367.448752 
L 1461.151847 367.278362 
L 1463.823529 367.293194 
L 1466.495212 376.520805 
L 1469.166895 377.061239 
L 1471.838577 399.435742 
L 1474.51026 384.922059 
L 1477.181943 381.414238 
L 1479.853625 359.73916 
L 1482.525308 352.318288 
L 1485.19699 363.738118 
L 1487.868673 369.677698 
L 1490.540356 370.092676 
L 1493.212038 370.056554 
L 1495.883721 355.906981 
L 1498.555404 360.500375 
L 1501.227086 344.121177 
L 1503.898769 342.118599 
L 1506.570451 355.909939 
L 1509.242134 374.531604 
L 1511.913817 370.012138 
L 1514.585499 367.238418 
L 1517.257182 351.304817 
L 1519.928865 378.3447 
L 1522.600547 376.599906 
L 1525.27223 393.73261 
L 1527.943912 366.91151 
L 1530.615595 363.214184 
L 1533.287278 394.415186 
L 1535.95896 358.532231 
L 1538.630643 358.9136 
L 1541.302326 373.458836 
L 1543.974008 356.721517 
L 1546.645691 345.808233 
L 1549.317373 359.253197 
L 1551.989056 372.036415 
L 1554.660739 357.345991 
L 1557.332421 356.146107 
L 1560.004104 361.470004 
L 1562.675787 368.733659 
L 1565.347469 364.229869 
L 1568.019152 358.583523 
L 1570.690834 366.606144 
L 1573.362517 362.512368 
L 1576.0342 343.772508 
L 1578.705882 341.665516 
L 1581.377565 340.150543 
L 1584.049248 340.00049 
L 1589.392613 340.012415 
L 1592.064295 342.314124 
L 1597.407661 342.406314 
L 1610.766074 342.407018 
L 1613.437756 398.951198 
L 1616.109439 400.300976 
L 1618.781122 400.183482 
L 1621.452804 343.910324 
L 1624.124487 359.99557 
L 1626.79617 370.571006 
L 1629.467852 357.656179 
L 1632.139535 373.472557 
L 1634.811218 354.216088 
L 1637.4829 349.691878 
L 1640.154583 342.805853 
L 1642.826265 335.40506 
L 1645.497948 334.686949 
L 1648.169631 376.274697 
L 1650.841313 379.550212 
L 1653.512996 336.183387 
L 1656.184679 372.696152 
L 1658.856361 353.282342 
L 1661.528044 360.540631 
L 1664.199726 352.935701 
L 1666.871409 375.97621 
L 1669.543092 353.366827 
L 1672.214774 362.09225 
L 1674.886457 339.933995 
L 1677.55814 336.90041 
L 1680.229822 325.048232 
L 1682.901505 338.808023 
L 1685.573187 360.770071 
L 1688.24487 372.979048 
L 1690.916553 376.352465 
L 1693.588235 372.755648 
L 1696.259918 363.507741 
L 1698.931601 362.493152 
L 1701.603283 332.265596 
L 1704.274966 371.128207 
L 1706.946648 375.67243 
L 1709.618331 382.17334 
L 1712.290014 382.740705 
L 1714.961696 382.691318 
L 1717.633379 345.434662 
L 1720.305062 351.926669 
L 1722.976744 352.926727 
L 1725.648427 352.839676 
L 1728.320109 376.234894 
L 1730.991792 363.977884 
L 1733.663475 387.793577 
L 1736.335157 378.697453 
L 1739.00684 349.247576 
L 1741.678523 371.951814 
L 1744.350205 393.692676 
L 1747.021888 354.903044 
L 1749.69357 364.835766 
L 1752.365253 367.08548 
L 1755.036936 367.771131 
L 1757.708618 373.176327 
L 1760.380301 373.727662 
L 1763.051984 389.059437 
L 1765.723666 390.252143 
L 1768.395349 364.689347 
L 1771.067031 354.075075 
L 1773.738714 353.220466 
L 1776.410397 353.272673 
L 1779.082079 330.136186 
L 1781.753762 328.319607 
L 1784.425445 330.051841 
L 1787.097127 318.602326 
L 1789.76881 317.40826 
L 1792.440492 317.5122 
L 1797.783858 317.50394 
L 1800.45554 373.172522 
L 1803.127223 374.27232 
L 1805.798906 373.996044 
L 1808.470588 374.020093 
L 1811.142271 401.60542 
L 1813.813953 403.165597 
L 1816.485636 343.199154 
L 1819.157319 335.693314 
L 1821.829001 319.427793 
L 1824.500684 357.184221 
L 1827.172367 362.079837 
L 1829.844049 331.830069 
L 1832.515732 342.100829 
L 1835.187415 338.42906 
L 1837.859097 320.056305 
L 1840.53078 318.011184 
L 1843.202462 360.185671 
L 1845.874145 363.485825 
L 1848.545828 391.598142 
L 1851.21751 372.792686 
L 1853.889193 370.470514 
L 1856.560876 370.672651 
L 1872.590971 370.656465 
L 1875.262654 371.617553 
L 1877.934337 371.639376 
L 1880.606019 367.415375 
L 1883.277702 377.417985 
L 1885.949384 371.333507 
L 1888.621067 352.381395 
L 1891.29275 366.432334 
L 1893.964432 368.551445 
L 1896.636115 368.366983 
L 1899.307798 373.933877 
L 1901.97948 359.207509 
L 1904.651163 351.385898 
L 1907.322845 358.413001 
L 1909.994528 362.295958 
L 1912.666211 374.940908 
L 1915.337893 384.25969 
L 1918.009576 369.06059 
L 1920.681259 340.210464 
L 1923.352941 342.743687 
L 1926.024624 364.038966 
L 1928.696306 381.731709 
L 1931.367989 383.371735 
L 1934.039672 383.228977 
L 1936.711354 340.496248 
L 1939.383037 367.52946 
L 1942.05472 357.06236 
L 1944.726402 372.988228 
L 1947.398085 354.322321 
L 1950.069767 365.310014 
L 1952.74145 345.569686 
L 1955.413133 373.996292 
L 1958.084815 365.993566 
L 1960.756498 347.139556 
L 1963.428181 365.408358 
L 1966.099863 372.764587 
L 1968.771546 394.257603 
L 1971.443228 396.775559 
L 1974.114911 396.55638 
L 1976.786594 396.575459 
L 1979.458276 414.755341 
L 1982.129959 391.768095 
L 1984.801642 389.460981 
L 1987.473324 389.661808 
L 1990.145007 351.501017 
L 1992.816689 349.970097 
L 1995.488372 334.772214 
L 1998.160055 350.124613 
L 2000.831737 379.625117 
L 2003.50342 357.060417 
L 2006.175103 337.808981 
L 2008.846785 360.781532 
L 2011.518468 370.458811 
L 2014.19015 346.87604 
L 2016.861833 361.017362 
L 2019.533516 355.577567 
L 2022.205198 378.8798 
L 2024.876881 384.31563 
L 2027.548564 371.839238 
L 2030.220246 370.57865 
L 2032.891929 370.7398 
L 2035.563611 392.780436 
L 2038.235294 394.524359 
L 2040.906977 383.479817 
L 2043.578659 344.879539 
L 2046.250342 341.062146 
L 2048.922025 319.929937 
L 2051.593707 335.282802 
L 2054.26539 342.877431 
L 2056.937073 357.916225 
L 2059.608755 363.702843 
L 2062.280438 363.772254 
L 2064.95212 338.746521 
L 2067.623803 364.12819 
L 2070.295486 369.690022 
L 2072.967168 369.596884 
L 2075.638851 340.231783 
L 2078.310534 337.912178 
L 2080.982216 338.114092 
L 2083.653899 349.621385 
L 2086.325581 384.880697 
L 2088.997264 379.635272 
L 2091.668947 360.054643 
L 2094.340629 355.028048 
L 2097.012312 347.470412 
L 2099.683995 354.020891 
L 2102.355677 366.678286 
L 2105.02736 370.051165 
L 2107.699042 343.888273 
L 2110.370725 370.445653 
L 2113.042408 366.115869 
L 2115.71409 369.22687 
L 2118.385773 358.842613 
L 2121.057456 376.802269 
L 2123.729138 389.995814 
L 2126.400821 391.076795 
L 2129.072503 393.105842 
L 2131.744186 393.281794 
L 2134.415869 393.266478 
L 2137.087551 399.749808 
L 2139.759234 379.424002 
L 2142.430917 373.963081 
L 2145.102599 381.611706 
L 2147.774282 367.088132 
L 2150.445964 348.870972 
L 2153.117647 340.189069 
L 2155.78933 350.429588 
L 2158.461012 347.844014 
L 2161.132695 365.037958 
L 2163.804378 371.034016 
L 2166.47606 363.393441 
L 2169.147743 348.356781 
L 2171.819425 359.950466 
L 2174.491108 354.37952 
L 2177.162791 360.520149 
L 2179.834473 364.464286 
L 2182.506156 385.497076 
L 2185.177839 387.974056 
L 2187.849521 387.758443 
L 2190.521204 384.593262 
L 2193.192886 370.942162 
L 2195.864569 356.696668 
L 2198.536252 348.62941 
L 2201.207934 330.369881 
L 2203.879617 357.34752 
L 2206.5513 378.294513 
L 2209.222982 374.975421 
L 2211.894665 374.847002 
L 2214.566347 356.462246 
L 2217.23803 366.49441 
L 2219.909713 342.185019 
L 2222.581395 337.209792 
L 2225.253078 368.686381 
L 2227.924761 372.462893 
L 2230.596443 387.562016 
L 2233.268126 401.815278 
L 2235.939808 386.050968 
L 2238.611491 383.799676 
L 2241.283174 355.503988 
L 2243.954856 352.064413 
L 2246.626539 352.363817 
L 2249.298222 341.933505 
L 2251.969904 359.171289 
L 2254.641587 364.94848 
L 2257.313269 365.019381 
L 2259.984952 381.529666 
L 2262.656635 348.292843 
L 2265.328317 340.000541 
L 2268 329.608553 
L 2270.671683 328.373276 
L 2270.671683 328.373276 
" clip-path="url(#pfe7e106907)" style="fill: none; stroke: #ff0000; stroke-width: 1.8; stroke-linecap: square"/>
   </g>
   <g id="patch_3">
    <path d="M 315 640.8 
L 315 86.4 
" style="fill: none; stroke: #000000; stroke-width: 0.8; stroke-linejoin: miter; stroke-linecap: square"/>
   </g>
   <g id="patch_4">
    <path d="M 2268 640.8 
L 2268 86.4 
" style="fill: none; stroke: #000000; stroke-width: 0.8; stroke-linejoin: miter; stroke-linecap: square"/>
   </g>
   <g id="patch_5">
    <path d="M 315 640.8 
L 2268 640.8 
" style="fill: none; stroke: #000000; stroke-width: 0.8; stroke-linejoin: miter; stroke-linecap: square"/>
   </g>
   <g id="patch_6">
    <path d="M 315 86.4 
L 2268 86.4 
" style="fill: none; stroke: #000000; stroke-width: 0.8; stroke-linejoin: miter; stroke-linecap: square"/>
   </g>
   <g id="text_20">
    <!-- RSS: 0.0040 -->
    <g transform="translate(1230.317188 80.4) scale(0.2 -0.2)">
     <defs>
      <path id="DejaVuSans-52" d="M 2841 2188 
Q 3044 2119 3236 1894 
Q 3428 1669 3622 1275 
L 4263 0 
L 3584 0 
L 2988 1197 
Q 2756 1666 2539 1819 
Q 2322 1972 1947 1972 
L 1259 1972 
L 1259 0 
L 628 0 
L 628 4666 
L 2053 4666 
Q 2853 4666 3247 4331 
Q 3641 3997 3641 3322 
Q 3641 2881 3436 2590 
Q 3231 2300 2841 2188 
z
M 1259 4147 
L 1259 2491 
L 2053 2491 
Q 2509 2491 2742 2702 
Q 2975 2913 2975 3322 
Q 2975 3731 2742 3939 
Q 2509 4147 2053 4147 
L 1259 4147 
z
" transform="scale(0.015625)"/>
      <path id="DejaVuSans-53" d="M 3425 4513 
L 3425 3897 
Q 3066 4069 2747 4153 
Q 2428 4238 2131 4238 
Q 1616 4238 1336 4038 
Q 1056 3838 1056 3469 
Q 1056 3159 1242 3001 
Q 1428 2844 1947 2747 
L 2328 2669 
Q 3034 2534 3370 2195 
Q 3706 1856 3706 1288 
Q 3706 609 3251 259 
Q 2797 -91 1919 -91 
Q 1588 -91 1214 -16 
Q 841 59 441 206 
L 441 856 
Q 825 641 1194 531 
Q 1563 422 1919 422 
Q 2459 422 2753 634 
Q 3047 847 3047 1241 
Q 3047 1584 2836 1778 
Q 2625 1972 2144 2069 
L 1759 2144 
Q 1053 2284 737 2584 
Q 422 2884 422 3419 
Q 422 4038 858 4394 
Q 1294 4750 2059 4750 
Q 2388 4750 2728 4690 
Q 3069 4631 3425 4513 
z
" transform="scale(0.015625)"/>
      <path id="DejaVuSans-3a" d="M 750 794 
L 1409 794 
L 1409 0 
L 750 0 
L 750 794 
z
M 750 3309 
L 1409 3309 
L 1409 2516 
L 750 2516 
L 750 3309 
z
" transform="scale(0.015625)"/>
      <path id="DejaVuSans-20" transform="scale(0.015625)"/>
     </defs>
     <use xlink:href="#DejaVuSans-52"/>
     <use xlink:href="#DejaVuSans-53" x="69.482422"/>
     <use xlink:href="#DejaVuSans-53" x="132.958984"/>
     <use xlink:href="#DejaVuSans-3a" x="196.435547"/>
     <use xlink:href="#DejaVuSans-20" x="230.126953"/>
     <use xlink:href="#DejaVuSans-30" x="261.914062"/>
     <use xlink:href="#DejaVuSans-2e" x="325.537109"/>
     <use xlink:href="#DejaVuSans-30" x="357.324219"/>
     <use xlink:href="#DejaVuSans-30" x="420.947266"/>
     <use xlink:href="#DejaVuSans-34" x="484.570312"/>
     <use xlink:href="#DejaVuSans-30" x="548.193359"/>
    </g>
   </g>
   <g id="legend_1">
    <g id="patch_7">
     <path d="M 2128.292188 123.75625 
L 2261 123.75625 
Q 2263 123.75625 2263 121.75625 
L 2263 93.4 
Q 2263 91.4 2261 91.4 
L 2128.292188 91.4 
Q 2126.292188 91.4 2126.292188 93.4 
L 2126.292188 121.75625 
Q 2126.292188 123.75625 2128.292188 123.75625 
z
" style="fill: #ffffff; opacity: 0.8; stroke: #cccccc; stroke-linejoin: miter"/>
    </g>
    <g id="line2d_20">
     <path d="M 2130.292188 99.498437 
L 2140.292188 99.498437 
L 2150.292188 99.498437 
" style="fill: none; stroke: #008000; stroke-linecap: square"/>
    </g>
    <g id="text_21">
     <!-- Original Time Series -->
     <g transform="translate(2158.292188 102.998437) scale(0.1 -0.1)">
      <defs>
       <path id="DejaVuSans-4f" d="M 2522 4238 
Q 1834 4238 1429 3725 
Q 1025 3213 1025 2328 
Q 1025 1447 1429 934 
Q 1834 422 2522 422 
Q 3209 422 3611 934 
Q 4013 1447 4013 2328 
Q 4013 3213 3611 3725 
Q 3209 4238 2522 4238 
z
M 2522 4750 
Q 3503 4750 4090 4092 
Q 4678 3434 4678 2328 
Q 4678 1225 4090 567 
Q 3503 -91 2522 -91 
Q 1538 -91 948 565 
Q 359 1222 359 2328 
Q 359 3434 948 4092 
Q 1538 4750 2522 4750 
z
" transform="scale(0.015625)"/>
       <path id="DejaVuSans-67" d="M 2906 1791 
Q 2906 2416 2648 2759 
Q 2391 3103 1925 3103 
Q 1463 3103 1205 2759 
Q 947 2416 947 1791 
Q 947 1169 1205 825 
Q 1463 481 1925 481 
Q 2391 481 2648 825 
Q 2906 1169 2906 1791 
z
M 3481 434 
Q 3481 -459 3084 -895 
Q 2688 -1331 1869 -1331 
Q 1566 -1331 1297 -1286 
Q 1028 -1241 775 -1147 
L 775 -588 
Q 1028 -725 1275 -790 
Q 1522 -856 1778 -856 
Q 2344 -856 2625 -561 
Q 2906 -266 2906 331 
L 2906 616 
Q 2728 306 2450 153 
Q 2172 0 1784 0 
Q 1141 0 747 490 
Q 353 981 353 1791 
Q 353 2603 747 3093 
Q 1141 3584 1784 3584 
Q 2172 3584 2450 3431 
Q 2728 3278 2906 2969 
L 2906 3500 
L 3481 3500 
L 3481 434 
z
" transform="scale(0.015625)"/>
       <path id="DejaVuSans-6e" d="M 3513 2113 
L 3513 0 
L 2938 0 
L 2938 2094 
Q 2938 2591 2744 2837 
Q 2550 3084 2163 3084 
Q 1697 3084 1428 2787 
Q 1159 2491 1159 1978 
L 1159 0 
L 581 0 
L 581 3500 
L 1159 3500 
L 1159 2956 
Q 1366 3272 1645 3428 
Q 1925 3584 2291 3584 
Q 2894 3584 3203 3211 
Q 3513 2838 3513 2113 
z
" transform="scale(0.015625)"/>
       <path id="DejaVuSans-61" d="M 2194 1759 
Q 1497 1759 1228 1600 
Q 959 1441 959 1056 
Q 959 750 1161 570 
Q 1363 391 1709 391 
Q 2188 391 2477 730 
Q 2766 1069 2766 1631 
L 2766 1759 
L 2194 1759 
z
M 3341 1997 
L 3341 0 
L 2766 0 
L 2766 531 
Q 2569 213 2275 61 
Q 1981 -91 1556 -91 
Q 1019 -91 701 211 
Q 384 513 384 1019 
Q 384 1609 779 1909 
Q 1175 2209 1959 2209 
L 2766 2209 
L 2766 2266 
Q 2766 2663 2505 2880 
Q 2244 3097 1772 3097 
Q 1472 3097 1187 3025 
Q 903 2953 641 2809 
L 641 3341 
Q 956 3463 1253 3523 
Q 1550 3584 1831 3584 
Q 2591 3584 2966 3190 
Q 3341 2797 3341 1997 
z
" transform="scale(0.015625)"/>
       <path id="DejaVuSans-6c" d="M 603 4863 
L 1178 4863 
L 1178 0 
L 603 0 
L 603 4863 
z
" transform="scale(0.015625)"/>
       <path id="DejaVuSans-73" d="M 2834 3397 
L 2834 2853 
Q 2591 2978 2328 3040 
Q 2066 3103 1784 3103 
Q 1356 3103 1142 2972 
Q 928 2841 928 2578 
Q 928 2378 1081 2264 
Q 1234 2150 1697 2047 
L 1894 2003 
Q 2506 1872 2764 1633 
Q 3022 1394 3022 966 
Q 3022 478 2636 193 
Q 2250 -91 1575 -91 
Q 1294 -91 989 -36 
Q 684 19 347 128 
L 347 722 
Q 666 556 975 473 
Q 1284 391 1588 391 
Q 1994 391 2212 530 
Q 2431 669 2431 922 
Q 2431 1156 2273 1281 
Q 2116 1406 1581 1522 
L 1381 1569 
Q 847 1681 609 1914 
Q 372 2147 372 2553 
Q 372 3047 722 3315 
Q 1072 3584 1716 3584 
Q 2034 3584 2315 3537 
Q 2597 3491 2834 3397 
z
" transform="scale(0.015625)"/>
      </defs>
      <use xlink:href="#DejaVuSans-4f"/>
      <use xlink:href="#DejaVuSans-72" x="78.710938"/>
      <use xlink:href="#DejaVuSans-69" x="119.824219"/>
      <use xlink:href="#DejaVuSans-67" x="147.607422"/>
      <use xlink:href="#DejaVuSans-69" x="211.083984"/>
      <use xlink:href="#DejaVuSans-6e" x="238.867188"/>
      <use xlink:href="#DejaVuSans-61" x="302.246094"/>
      <use xlink:href="#DejaVuSans-6c" x="363.525391"/>
      <use xlink:href="#DejaVuSans-20" x="391.308594"/>
      <use xlink:href="#DejaVuSans-54" x="423.095703"/>
      <use xlink:href="#DejaVuSans-69" x="481.054688"/>
      <use xlink:href="#DejaVuSans-6d" x="508.837891"/>
      <use xlink:href="#DejaVuSans-65" x="606.25"/>
      <use xlink:href="#DejaVuSans-20" x="667.773438"/>
      <use xlink:href="#DejaVuSans-53" x="699.560547"/>
      <use xlink:href="#DejaVuSans-65" x="763.037109"/>
      <use xlink:href="#DejaVuSans-72" x="824.560547"/>
      <use xlink:href="#DejaVuSans-69" x="865.673828"/>
      <use xlink:href="#DejaVuSans-65" x="893.457031"/>
      <use xlink:href="#DejaVuSans-73" x="954.980469"/>
     </g>
    </g>
    <g id="line2d_21">
     <path d="M 2130.292188 114.176562 
L 2140.292188 114.176562 
L 2150.292188 114.176562 
" style="fill: none; stroke: #ff0000; stroke-width: 1.8; stroke-linecap: square"/>
    </g>
    <g id="text_22">
     <!-- Fitted Values -->
     <g transform="translate(2158.292188 117.676562) scale(0.1 -0.1)">
      <defs>
       <path id="DejaVuSans-46" d="M 628 4666 
L 3309 4666 
L 3309 4134 
L 1259 4134 
L 1259 2759 
L 3109 2759 
L 3109 2228 
L 1259 2228 
L 1259 0 
L 628 0 
L 628 4666 
z
" transform="scale(0.015625)"/>
       <path id="DejaVuSans-64" d="M 2906 2969 
L 2906 4863 
L 3481 4863 
L 3481 0 
L 2906 0 
L 2906 525 
Q 2725 213 2448 61 
Q 2172 -91 1784 -91 
Q 1150 -91 751 415 
Q 353 922 353 1747 
Q 353 2572 751 3078 
Q 1150 3584 1784 3584 
Q 2172 3584 2448 3432 
Q 2725 3281 2906 2969 
z
M 947 1747 
Q 947 1113 1208 752 
Q 1469 391 1925 391 
Q 2381 391 2643 752 
Q 2906 1113 2906 1747 
Q 2906 2381 2643 2742 
Q 2381 3103 1925 3103 
Q 1469 3103 1208 2742 
Q 947 2381 947 1747 
z
" transform="scale(0.015625)"/>
       <path id="DejaVuSans-56" d="M 1831 0 
L 50 4666 
L 709 4666 
L 2188 738 
L 3669 4666 
L 4325 4666 
L 2547 0 
L 1831 0 
z
" transform="scale(0.015625)"/>
       <path id="DejaVuSans-75" d="M 544 1381 
L 544 3500 
L 1119 3500 
L 1119 1403 
Q 1119 906 1312 657 
Q 1506 409 1894 409 
Q 2359 409 2629 706 
Q 2900 1003 2900 1516 
L 2900 3500 
L 3475 3500 
L 3475 0 
L 2900 0 
L 2900 538 
Q 2691 219 2414 64 
Q 2138 -91 1772 -91 
Q 1169 -91 856 284 
Q 544 659 544 1381 
z
M 1991 3584 
L 1991 3584 
z
" transform="scale(0.015625)"/>
      </defs>
      <use xlink:href="#DejaVuSans-46"/>
      <use xlink:href="#DejaVuSans-69" x="50.269531"/>
      <use xlink:href="#DejaVuSans-74" x="78.052734"/>
      <use xlink:href="#DejaVuSans-74" x="117.261719"/>
      <use xlink:href="#DejaVuSans-65" x="156.470703"/>
      <use xlink:href="#DejaVuSans-64" x="217.994141"/>
      <use xlink:href="#DejaVuSans-20" x="281.470703"/>
      <use xlink:href="#DejaVuSans-56" x="313.257812"/>
      <use xlink:href="#DejaVuSans-61" x="373.916016"/>
      <use xlink:href="#DejaVuSans-6c" x="435.195312"/>
      <use xlink:href="#DejaVuSans-75" x="462.978516"/>
      <use xlink:href="#DejaVuSans-65" x="526.357422"/>
      <use xlink:href="#DejaVuSans-73" x="587.880859"/>
     </g>
    </g>
   </g>
  </g>
 </g>
 <defs>
  <clipPath id="pfe7e106907">
   <rect x="315" y="86.4" width="1953" height="554.4"/>
  </clipPath>
 </defs>
</svg>
