<?xml version="1.0" encoding="utf-8" standalone="no"?>
<!DOCTYPE svg PUBLIC "-//W3C//DTD SVG 1.1//EN"
  "http://www.w3.org/Graphics/SVG/1.1/DTD/svg11.dtd">
<svg xmlns:xlink="http://www.w3.org/1999/xlink" width="2520pt" height="720pt" viewBox="0 0 2520 720" xmlns="http://www.w3.org/2000/svg" version="1.1">
 <metadata>
  <rdf:RDF xmlns:dc="http://purl.org/dc/elements/1.1/" xmlns:cc="http://creativecommons.org/ns#" xmlns:rdf="http://www.w3.org/1999/02/22-rdf-syntax-ns#">
   <cc:Work>
    <dc:type rdf:resource="http://purl.org/dc/dcmitype/StillImage"/>
    <dc:date>2024-02-08T14:47:50.246817</dc:date>
    <dc:format>image/svg+xml</dc:format>
    <dc:creator>
     <cc:Agent>
      <dc:title>Matplotlib v3.7.1, https://matplotlib.org/</dc:title>
     </cc:Agent>
    </dc:creator>
   </cc:Work>
  </rdf:RDF>
 </metadata>
 <defs>
  <style type="text/css">*{stroke-linejoin: round; stroke-linecap: butt}</style>
 </defs>
 <g id="figure_1">
  <g id="patch_1">
   <path d="M 0 720 
L 2520 720 
L 2520 0 
L 0 0 
z
" style="fill: #ffffff"/>
  </g>
  <g id="axes_1">
   <g id="patch_2">
    <path d="M 315 640.8 
L 2268 640.8 
L 2268 86.4 
L 315 86.4 
z
" style="fill: #ffffff"/>
   </g>
   <g id="matplotlib.axis_1">
    <g id="xtick_1">
     <g id="line2d_1">
      <defs>
       <path id="mec823661f7" d="M 0 0 
L 0 3.5 
" style="stroke: #000000; stroke-width: 0.8"/>
      </defs>
      <g>
       <use xlink:href="#mec823661f7" x="520.719562" y="640.8" style="stroke: #000000; stroke-width: 0.8"/>
      </g>
     </g>
     <g id="text_1">
      <!-- 2012-04 -->
      <g transform="translate(489.382453 659.197656) scale(0.15 -0.15)">
       <defs>
        <path id="DejaVuSans-32" d="M 1228 531 
L 3431 531 
L 3431 0 
L 469 0 
L 469 531 
Q 828 903 1448 1529 
Q 2069 2156 2228 2338 
Q 2531 2678 2651 2914 
Q 2772 3150 2772 3378 
Q 2772 3750 2511 3984 
Q 2250 4219 1831 4219 
Q 1534 4219 1204 4116 
Q 875 4013 500 3803 
L 500 4441 
Q 881 4594 1212 4672 
Q 1544 4750 1819 4750 
Q 2544 4750 2975 4387 
Q 3406 4025 3406 3419 
Q 3406 3131 3298 2873 
Q 3191 2616 2906 2266 
Q 2828 2175 2409 1742 
Q 1991 1309 1228 531 
z
" transform="scale(0.015625)"/>
        <path id="DejaVuSans-30" d="M 2034 4250 
Q 1547 4250 1301 3770 
Q 1056 3291 1056 2328 
Q 1056 1369 1301 889 
Q 1547 409 2034 409 
Q 2525 409 2770 889 
Q 3016 1369 3016 2328 
Q 3016 3291 2770 3770 
Q 2525 4250 2034 4250 
z
M 2034 4750 
Q 2819 4750 3233 4129 
Q 3647 3509 3647 2328 
Q 3647 1150 3233 529 
Q 2819 -91 2034 -91 
Q 1250 -91 836 529 
Q 422 1150 422 2328 
Q 422 3509 836 4129 
Q 1250 4750 2034 4750 
z
" transform="scale(0.015625)"/>
        <path id="DejaVuSans-31" d="M 794 531 
L 1825 531 
L 1825 4091 
L 703 3866 
L 703 4441 
L 1819 4666 
L 2450 4666 
L 2450 531 
L 3481 531 
L 3481 0 
L 794 0 
L 794 531 
z
" transform="scale(0.015625)"/>
        <path id="DejaVuSans-2d" d="M 313 2009 
L 1997 2009 
L 1997 1497 
L 313 1497 
L 313 2009 
z
" transform="scale(0.015625)"/>
        <path id="DejaVuSans-34" d="M 2419 4116 
L 825 1625 
L 2419 1625 
L 2419 4116 
z
M 2253 4666 
L 3047 4666 
L 3047 1625 
L 3713 1625 
L 3713 1100 
L 3047 1100 
L 3047 0 
L 2419 0 
L 2419 1100 
L 313 1100 
L 313 1709 
L 2253 4666 
z
" transform="scale(0.015625)"/>
       </defs>
       <use xlink:href="#DejaVuSans-32"/>
       <use xlink:href="#DejaVuSans-30" x="63.623047"/>
       <use xlink:href="#DejaVuSans-31" x="127.246094"/>
       <use xlink:href="#DejaVuSans-32" x="190.869141"/>
       <use xlink:href="#DejaVuSans-2d" x="254.492188"/>
       <use xlink:href="#DejaVuSans-30" x="290.576172"/>
       <use xlink:href="#DejaVuSans-34" x="354.199219"/>
      </g>
     </g>
    </g>
    <g id="xtick_2">
     <g id="line2d_2">
      <g>
       <use xlink:href="#mec823661f7" x="763.842681" y="640.8" style="stroke: #000000; stroke-width: 0.8"/>
      </g>
     </g>
     <g id="text_2">
      <!-- 2012-07 -->
      <g transform="translate(732.505572 659.197656) scale(0.15 -0.15)">
       <defs>
        <path id="DejaVuSans-37" d="M 525 4666 
L 3525 4666 
L 3525 4397 
L 1831 0 
L 1172 0 
L 2766 4134 
L 525 4134 
L 525 4666 
z
" transform="scale(0.015625)"/>
       </defs>
       <use xlink:href="#DejaVuSans-32"/>
       <use xlink:href="#DejaVuSans-30" x="63.623047"/>
       <use xlink:href="#DejaVuSans-31" x="127.246094"/>
       <use xlink:href="#DejaVuSans-32" x="190.869141"/>
       <use xlink:href="#DejaVuSans-2d" x="254.492188"/>
       <use xlink:href="#DejaVuSans-30" x="290.576172"/>
       <use xlink:href="#DejaVuSans-37" x="354.199219"/>
      </g>
     </g>
    </g>
    <g id="xtick_3">
     <g id="line2d_3">
      <g>
       <use xlink:href="#mec823661f7" x="1009.637483" y="640.8" style="stroke: #000000; stroke-width: 0.8"/>
      </g>
     </g>
     <g id="text_3">
      <!-- 2012-10 -->
      <g transform="translate(978.300374 659.197656) scale(0.15 -0.15)">
       <use xlink:href="#DejaVuSans-32"/>
       <use xlink:href="#DejaVuSans-30" x="63.623047"/>
       <use xlink:href="#DejaVuSans-31" x="127.246094"/>
       <use xlink:href="#DejaVuSans-32" x="190.869141"/>
       <use xlink:href="#DejaVuSans-2d" x="254.492188"/>
       <use xlink:href="#DejaVuSans-31" x="290.576172"/>
       <use xlink:href="#DejaVuSans-30" x="354.199219"/>
      </g>
     </g>
    </g>
    <g id="xtick_4">
     <g id="line2d_4">
      <g>
       <use xlink:href="#mec823661f7" x="1255.432285" y="640.8" style="stroke: #000000; stroke-width: 0.8"/>
      </g>
     </g>
     <g id="text_4">
      <!-- 2013-01 -->
      <g transform="translate(1224.095175 659.197656) scale(0.15 -0.15)">
       <defs>
        <path id="DejaVuSans-33" d="M 2597 2516 
Q 3050 2419 3304 2112 
Q 3559 1806 3559 1356 
Q 3559 666 3084 287 
Q 2609 -91 1734 -91 
Q 1441 -91 1130 -33 
Q 819 25 488 141 
L 488 750 
Q 750 597 1062 519 
Q 1375 441 1716 441 
Q 2309 441 2620 675 
Q 2931 909 2931 1356 
Q 2931 1769 2642 2001 
Q 2353 2234 1838 2234 
L 1294 2234 
L 1294 2753 
L 1863 2753 
Q 2328 2753 2575 2939 
Q 2822 3125 2822 3475 
Q 2822 3834 2567 4026 
Q 2313 4219 1838 4219 
Q 1578 4219 1281 4162 
Q 984 4106 628 3988 
L 628 4550 
Q 988 4650 1302 4700 
Q 1616 4750 1894 4750 
Q 2613 4750 3031 4423 
Q 3450 4097 3450 3541 
Q 3450 3153 3228 2886 
Q 3006 2619 2597 2516 
z
" transform="scale(0.015625)"/>
       </defs>
       <use xlink:href="#DejaVuSans-32"/>
       <use xlink:href="#DejaVuSans-30" x="63.623047"/>
       <use xlink:href="#DejaVuSans-31" x="127.246094"/>
       <use xlink:href="#DejaVuSans-33" x="190.869141"/>
       <use xlink:href="#DejaVuSans-2d" x="254.492188"/>
       <use xlink:href="#DejaVuSans-30" x="290.576172"/>
       <use xlink:href="#DejaVuSans-31" x="354.199219"/>
      </g>
     </g>
    </g>
    <g id="xtick_5">
     <g id="line2d_5">
      <g>
       <use xlink:href="#mec823661f7" x="1495.883721" y="640.8" style="stroke: #000000; stroke-width: 0.8"/>
      </g>
     </g>
     <g id="text_5">
      <!-- 2013-04 -->
      <g transform="translate(1464.546612 659.197656) scale(0.15 -0.15)">
       <use xlink:href="#DejaVuSans-32"/>
       <use xlink:href="#DejaVuSans-30" x="63.623047"/>
       <use xlink:href="#DejaVuSans-31" x="127.246094"/>
       <use xlink:href="#DejaVuSans-33" x="190.869141"/>
       <use xlink:href="#DejaVuSans-2d" x="254.492188"/>
       <use xlink:href="#DejaVuSans-30" x="290.576172"/>
       <use xlink:href="#DejaVuSans-34" x="354.199219"/>
      </g>
     </g>
    </g>
    <g id="xtick_6">
     <g id="line2d_6">
      <g>
       <use xlink:href="#mec823661f7" x="1739.00684" y="640.8" style="stroke: #000000; stroke-width: 0.8"/>
      </g>
     </g>
     <g id="text_6">
      <!-- 2013-07 -->
      <g transform="translate(1707.669731 659.197656) scale(0.15 -0.15)">
       <use xlink:href="#DejaVuSans-32"/>
       <use xlink:href="#DejaVuSans-30" x="63.623047"/>
       <use xlink:href="#DejaVuSans-31" x="127.246094"/>
       <use xlink:href="#DejaVuSans-33" x="190.869141"/>
       <use xlink:href="#DejaVuSans-2d" x="254.492188"/>
       <use xlink:href="#DejaVuSans-30" x="290.576172"/>
       <use xlink:href="#DejaVuSans-37" x="354.199219"/>
      </g>
     </g>
    </g>
    <g id="xtick_7">
     <g id="line2d_7">
      <g>
       <use xlink:href="#mec823661f7" x="1984.801642" y="640.8" style="stroke: #000000; stroke-width: 0.8"/>
      </g>
     </g>
     <g id="text_7">
      <!-- 2013-10 -->
      <g transform="translate(1953.464532 659.197656) scale(0.15 -0.15)">
       <use xlink:href="#DejaVuSans-32"/>
       <use xlink:href="#DejaVuSans-30" x="63.623047"/>
       <use xlink:href="#DejaVuSans-31" x="127.246094"/>
       <use xlink:href="#DejaVuSans-33" x="190.869141"/>
       <use xlink:href="#DejaVuSans-2d" x="254.492188"/>
       <use xlink:href="#DejaVuSans-31" x="290.576172"/>
       <use xlink:href="#DejaVuSans-30" x="354.199219"/>
      </g>
     </g>
    </g>
    <g id="xtick_8">
     <g id="line2d_8">
      <g>
       <use xlink:href="#mec823661f7" x="2230.596443" y="640.8" style="stroke: #000000; stroke-width: 0.8"/>
      </g>
     </g>
     <g id="text_8">
      <!-- 2014-01 -->
      <g transform="translate(2199.259334 659.197656) scale(0.15 -0.15)">
       <use xlink:href="#DejaVuSans-32"/>
       <use xlink:href="#DejaVuSans-30" x="63.623047"/>
       <use xlink:href="#DejaVuSans-31" x="127.246094"/>
       <use xlink:href="#DejaVuSans-34" x="190.869141"/>
       <use xlink:href="#DejaVuSans-2d" x="254.492188"/>
       <use xlink:href="#DejaVuSans-30" x="290.576172"/>
       <use xlink:href="#DejaVuSans-31" x="354.199219"/>
      </g>
     </g>
    </g>
    <g id="text_9">
     <!-- Time -->
     <g transform="translate(1267.032813 681.514063) scale(0.2 -0.2)">
      <defs>
       <path id="DejaVuSans-54" d="M -19 4666 
L 3928 4666 
L 3928 4134 
L 2272 4134 
L 2272 0 
L 1638 0 
L 1638 4134 
L -19 4134 
L -19 4666 
z
" transform="scale(0.015625)"/>
       <path id="DejaVuSans-69" d="M 603 3500 
L 1178 3500 
L 1178 0 
L 603 0 
L 603 3500 
z
M 603 4863 
L 1178 4863 
L 1178 4134 
L 603 4134 
L 603 4863 
z
" transform="scale(0.015625)"/>
       <path id="DejaVuSans-6d" d="M 3328 2828 
Q 3544 3216 3844 3400 
Q 4144 3584 4550 3584 
Q 5097 3584 5394 3201 
Q 5691 2819 5691 2113 
L 5691 0 
L 5113 0 
L 5113 2094 
Q 5113 2597 4934 2840 
Q 4756 3084 4391 3084 
Q 3944 3084 3684 2787 
Q 3425 2491 3425 1978 
L 3425 0 
L 2847 0 
L 2847 2094 
Q 2847 2600 2669 2842 
Q 2491 3084 2119 3084 
Q 1678 3084 1418 2786 
Q 1159 2488 1159 1978 
L 1159 0 
L 581 0 
L 581 3500 
L 1159 3500 
L 1159 2956 
Q 1356 3278 1631 3431 
Q 1906 3584 2284 3584 
Q 2666 3584 2933 3390 
Q 3200 3197 3328 2828 
z
" transform="scale(0.015625)"/>
       <path id="DejaVuSans-65" d="M 3597 1894 
L 3597 1613 
L 953 1613 
Q 991 1019 1311 708 
Q 1631 397 2203 397 
Q 2534 397 2845 478 
Q 3156 559 3463 722 
L 3463 178 
Q 3153 47 2828 -22 
Q 2503 -91 2169 -91 
Q 1331 -91 842 396 
Q 353 884 353 1716 
Q 353 2575 817 3079 
Q 1281 3584 2069 3584 
Q 2775 3584 3186 3129 
Q 3597 2675 3597 1894 
z
M 3022 2063 
Q 3016 2534 2758 2815 
Q 2500 3097 2075 3097 
Q 1594 3097 1305 2825 
Q 1016 2553 972 2059 
L 3022 2063 
z
" transform="scale(0.015625)"/>
      </defs>
      <use xlink:href="#DejaVuSans-54"/>
      <use xlink:href="#DejaVuSans-69" x="57.958984"/>
      <use xlink:href="#DejaVuSans-6d" x="85.742188"/>
      <use xlink:href="#DejaVuSans-65" x="183.154297"/>
     </g>
    </g>
   </g>
   <g id="matplotlib.axis_2">
    <g id="ytick_1">
     <g id="line2d_9">
      <defs>
       <path id="m3cbe9b5d1f" d="M 0 0 
L -3.5 0 
" style="stroke: #000000; stroke-width: 0.8"/>
      </defs>
      <g>
       <use xlink:href="#m3cbe9b5d1f" x="315" y="640.8" style="stroke: #000000; stroke-width: 0.8"/>
      </g>
     </g>
     <g id="text_10">
      <!-- −0.015 -->
      <g transform="translate(252.488281 646.498828) scale(0.15 -0.15)">
       <defs>
        <path id="DejaVuSans-2212" d="M 678 2272 
L 4684 2272 
L 4684 1741 
L 678 1741 
L 678 2272 
z
" transform="scale(0.015625)"/>
        <path id="DejaVuSans-2e" d="M 684 794 
L 1344 794 
L 1344 0 
L 684 0 
L 684 794 
z
" transform="scale(0.015625)"/>
        <path id="DejaVuSans-35" d="M 691 4666 
L 3169 4666 
L 3169 4134 
L 1269 4134 
L 1269 2991 
Q 1406 3038 1543 3061 
Q 1681 3084 1819 3084 
Q 2600 3084 3056 2656 
Q 3513 2228 3513 1497 
Q 3513 744 3044 326 
Q 2575 -91 1722 -91 
Q 1428 -91 1123 -41 
Q 819 9 494 109 
L 494 744 
Q 775 591 1075 516 
Q 1375 441 1709 441 
Q 2250 441 2565 725 
Q 2881 1009 2881 1497 
Q 2881 1984 2565 2268 
Q 2250 2553 1709 2553 
Q 1456 2553 1204 2497 
Q 953 2441 691 2322 
L 691 4666 
z
" transform="scale(0.015625)"/>
       </defs>
       <use xlink:href="#DejaVuSans-2212"/>
       <use xlink:href="#DejaVuSans-30" x="83.789062"/>
       <use xlink:href="#DejaVuSans-2e" x="147.412109"/>
       <use xlink:href="#DejaVuSans-30" x="179.199219"/>
       <use xlink:href="#DejaVuSans-31" x="242.822266"/>
       <use xlink:href="#DejaVuSans-35" x="306.445312"/>
      </g>
     </g>
    </g>
    <g id="ytick_2">
     <g id="line2d_10">
      <g>
       <use xlink:href="#m3cbe9b5d1f" x="315" y="548.4" style="stroke: #000000; stroke-width: 0.8"/>
      </g>
     </g>
     <g id="text_11">
      <!-- −0.010 -->
      <g transform="translate(252.488281 554.098828) scale(0.15 -0.15)">
       <use xlink:href="#DejaVuSans-2212"/>
       <use xlink:href="#DejaVuSans-30" x="83.789062"/>
       <use xlink:href="#DejaVuSans-2e" x="147.412109"/>
       <use xlink:href="#DejaVuSans-30" x="179.199219"/>
       <use xlink:href="#DejaVuSans-31" x="242.822266"/>
       <use xlink:href="#DejaVuSans-30" x="306.445312"/>
      </g>
     </g>
    </g>
    <g id="ytick_3">
     <g id="line2d_11">
      <g>
       <use xlink:href="#m3cbe9b5d1f" x="315" y="456" style="stroke: #000000; stroke-width: 0.8"/>
      </g>
     </g>
     <g id="text_12">
      <!-- −0.005 -->
      <g transform="translate(252.488281 461.698828) scale(0.15 -0.15)">
       <use xlink:href="#DejaVuSans-2212"/>
       <use xlink:href="#DejaVuSans-30" x="83.789062"/>
       <use xlink:href="#DejaVuSans-2e" x="147.412109"/>
       <use xlink:href="#DejaVuSans-30" x="179.199219"/>
       <use xlink:href="#DejaVuSans-30" x="242.822266"/>
       <use xlink:href="#DejaVuSans-35" x="306.445312"/>
      </g>
     </g>
    </g>
    <g id="ytick_4">
     <g id="line2d_12">
      <g>
       <use xlink:href="#m3cbe9b5d1f" x="315" y="363.6" style="stroke: #000000; stroke-width: 0.8"/>
      </g>
     </g>
     <g id="text_13">
      <!-- 0.000 -->
      <g transform="translate(265.057813 369.298828) scale(0.15 -0.15)">
       <use xlink:href="#DejaVuSans-30"/>
       <use xlink:href="#DejaVuSans-2e" x="63.623047"/>
       <use xlink:href="#DejaVuSans-30" x="95.410156"/>
       <use xlink:href="#DejaVuSans-30" x="159.033203"/>
       <use xlink:href="#DejaVuSans-30" x="222.65625"/>
      </g>
     </g>
    </g>
    <g id="ytick_5">
     <g id="line2d_13">
      <g>
       <use xlink:href="#m3cbe9b5d1f" x="315" y="271.2" style="stroke: #000000; stroke-width: 0.8"/>
      </g>
     </g>
     <g id="text_14">
      <!-- 0.005 -->
      <g transform="translate(265.057813 276.898828) scale(0.15 -0.15)">
       <use xlink:href="#DejaVuSans-30"/>
       <use xlink:href="#DejaVuSans-2e" x="63.623047"/>
       <use xlink:href="#DejaVuSans-30" x="95.410156"/>
       <use xlink:href="#DejaVuSans-30" x="159.033203"/>
       <use xlink:href="#DejaVuSans-35" x="222.65625"/>
      </g>
     </g>
    </g>
    <g id="ytick_6">
     <g id="line2d_14">
      <g>
       <use xlink:href="#m3cbe9b5d1f" x="315" y="178.8" style="stroke: #000000; stroke-width: 0.8"/>
      </g>
     </g>
     <g id="text_15">
      <!-- 0.010 -->
      <g transform="translate(265.057813 184.498828) scale(0.15 -0.15)">
       <use xlink:href="#DejaVuSans-30"/>
       <use xlink:href="#DejaVuSans-2e" x="63.623047"/>
       <use xlink:href="#DejaVuSans-30" x="95.410156"/>
       <use xlink:href="#DejaVuSans-31" x="159.033203"/>
       <use xlink:href="#DejaVuSans-30" x="222.65625"/>
      </g>
     </g>
    </g>
    <g id="ytick_7">
     <g id="line2d_15">
      <g>
       <use xlink:href="#m3cbe9b5d1f" x="315" y="86.4" style="stroke: #000000; stroke-width: 0.8"/>
      </g>
     </g>
     <g id="text_16">
      <!-- 0.015 -->
      <g transform="translate(265.057813 92.098828) scale(0.15 -0.15)">
       <use xlink:href="#DejaVuSans-30"/>
       <use xlink:href="#DejaVuSans-2e" x="63.623047"/>
       <use xlink:href="#DejaVuSans-30" x="95.410156"/>
       <use xlink:href="#DejaVuSans-31" x="159.033203"/>
       <use xlink:href="#DejaVuSans-35" x="222.65625"/>
      </g>
     </g>
    </g>
    <g id="text_17">
     <!-- East(m) -->
     <g transform="translate(244.328906 402.720312) rotate(-90) scale(0.2 -0.2)">
      <defs>
       <path id="DejaVuSans-45" d="M 628 4666 
L 3578 4666 
L 3578 4134 
L 1259 4134 
L 1259 2753 
L 3481 2753 
L 3481 2222 
L 1259 2222 
L 1259 531 
L 3634 531 
L 3634 0 
L 628 0 
L 628 4666 
z
" transform="scale(0.015625)"/>
       <path id="DejaVuSans-61" d="M 2194 1759 
Q 1497 1759 1228 1600 
Q 959 1441 959 1056 
Q 959 750 1161 570 
Q 1363 391 1709 391 
Q 2188 391 2477 730 
Q 2766 1069 2766 1631 
L 2766 1759 
L 2194 1759 
z
M 3341 1997 
L 3341 0 
L 2766 0 
L 2766 531 
Q 2569 213 2275 61 
Q 1981 -91 1556 -91 
Q 1019 -91 701 211 
Q 384 513 384 1019 
Q 384 1609 779 1909 
Q 1175 2209 1959 2209 
L 2766 2209 
L 2766 2266 
Q 2766 2663 2505 2880 
Q 2244 3097 1772 3097 
Q 1472 3097 1187 3025 
Q 903 2953 641 2809 
L 641 3341 
Q 956 3463 1253 3523 
Q 1550 3584 1831 3584 
Q 2591 3584 2966 3190 
Q 3341 2797 3341 1997 
z
" transform="scale(0.015625)"/>
       <path id="DejaVuSans-73" d="M 2834 3397 
L 2834 2853 
Q 2591 2978 2328 3040 
Q 2066 3103 1784 3103 
Q 1356 3103 1142 2972 
Q 928 2841 928 2578 
Q 928 2378 1081 2264 
Q 1234 2150 1697 2047 
L 1894 2003 
Q 2506 1872 2764 1633 
Q 3022 1394 3022 966 
Q 3022 478 2636 193 
Q 2250 -91 1575 -91 
Q 1294 -91 989 -36 
Q 684 19 347 128 
L 347 722 
Q 666 556 975 473 
Q 1284 391 1588 391 
Q 1994 391 2212 530 
Q 2431 669 2431 922 
Q 2431 1156 2273 1281 
Q 2116 1406 1581 1522 
L 1381 1569 
Q 847 1681 609 1914 
Q 372 2147 372 2553 
Q 372 3047 722 3315 
Q 1072 3584 1716 3584 
Q 2034 3584 2315 3537 
Q 2597 3491 2834 3397 
z
" transform="scale(0.015625)"/>
       <path id="DejaVuSans-74" d="M 1172 4494 
L 1172 3500 
L 2356 3500 
L 2356 3053 
L 1172 3053 
L 1172 1153 
Q 1172 725 1289 603 
Q 1406 481 1766 481 
L 2356 481 
L 2356 0 
L 1766 0 
Q 1100 0 847 248 
Q 594 497 594 1153 
L 594 3053 
L 172 3053 
L 172 3500 
L 594 3500 
L 594 4494 
L 1172 4494 
z
" transform="scale(0.015625)"/>
       <path id="DejaVuSans-28" d="M 1984 4856 
Q 1566 4138 1362 3434 
Q 1159 2731 1159 2009 
Q 1159 1288 1364 580 
Q 1569 -128 1984 -844 
L 1484 -844 
Q 1016 -109 783 600 
Q 550 1309 550 2009 
Q 550 2706 781 3412 
Q 1013 4119 1484 4856 
L 1984 4856 
z
" transform="scale(0.015625)"/>
       <path id="DejaVuSans-29" d="M 513 4856 
L 1013 4856 
Q 1481 4119 1714 3412 
Q 1947 2706 1947 2009 
Q 1947 1309 1714 600 
Q 1481 -109 1013 -844 
L 513 -844 
Q 928 -128 1133 580 
Q 1338 1288 1338 2009 
Q 1338 2731 1133 3434 
Q 928 4138 513 4856 
z
" transform="scale(0.015625)"/>
      </defs>
      <use xlink:href="#DejaVuSans-45"/>
      <use xlink:href="#DejaVuSans-61" x="63.183594"/>
      <use xlink:href="#DejaVuSans-73" x="124.462891"/>
      <use xlink:href="#DejaVuSans-74" x="176.5625"/>
      <use xlink:href="#DejaVuSans-28" x="215.771484"/>
      <use xlink:href="#DejaVuSans-6d" x="254.785156"/>
      <use xlink:href="#DejaVuSans-29" x="352.197266"/>
     </g>
    </g>
   </g>
   <g id="line2d_16">
    <path d="M 312.328317 501.726585 
L 315 272.22828 
L 317.671683 334.182774 
L 320.343365 356.59466 
L 323.015048 292.543564 
L 325.686731 469.153477 
L 328.358413 496.804776 
L 331.030096 178.99379 
L 333.701778 384.220309 
L 336.373461 349.978624 
L 339.045144 355.406392 
L 341.716826 331.458118 
L 344.388509 330.748625 
L 347.060192 407.443235 
L 349.731874 339.111583 
L 352.403557 351.346684 
L 355.075239 349.229727 
L 357.746922 359.308092 
L 360.418605 394.770861 
L 363.090287 349.560226 
L 365.76197 340.521381 
L 368.433653 421.329374 
L 371.105335 328.013639 
L 373.777018 342.816254 
L 376.4487 397.529096 
L 379.120383 353.134011 
L 381.792066 389.264986 
L 384.463748 339.040895 
L 387.135431 406.439998 
L 389.807114 371.574257 
L 392.478796 342.328754 
L 395.150479 400.147077 
L 397.822161 463.80275 
L 400.493844 286.804851 
L 403.165527 329.054302 
L 405.837209 323.200766 
L 408.508892 355.300971 
L 411.180575 390.596134 
L 413.852257 261.7832 
L 416.52394 385.946523 
L 419.195622 390.562022 
L 421.867305 423.481562 
L 424.538988 316.044899 
L 427.21067 339.507315 
L 429.882353 332.669773 
L 432.554036 418.878028 
L 435.225718 264.878056 
L 437.897401 422.94806 
L 440.569083 393.111921 
L 443.240766 337.143242 
L 445.912449 289.273923 
L 448.584131 426.344591 
L 451.255814 356.349358 
L 453.927497 312.629066 
L 456.599179 354.724102 
L 459.270862 365.54388 
L 461.942544 362.712551 
L 464.614227 430.616493 
L 467.28591 313.833002 
L 469.957592 416.590589 
M 475.300958 383.462938 
L 477.97264 308.223773 
L 480.644323 294.00065 
L 483.316005 428.966041 
L 485.987688 351.667291 
L 488.659371 282.644429 
L 491.331053 351.979635 
L 494.002736 408.606384 
L 496.674419 376.219766 
L 499.346101 276.576659 
L 502.017784 429.018829 
L 504.689466 394.960135 
L 507.361149 415.039357 
L 510.032832 306.96545 
L 512.704514 345.111894 
L 515.376197 430.337075 
L 518.04788 318.47642 
L 520.719562 376.614055 
L 523.391245 336.019387 
L 526.062927 328.22366 
L 528.73461 388.048407 
L 531.406293 360.858483 
L 534.077975 332.33331 
L 536.749658 383.904685 
L 539.421341 396.547765 
L 542.093023 289.981036 
L 544.764706 397.654982 
L 547.436389 345.743828 
L 550.108071 394.859633 
L 552.779754 412.702534 
L 555.451436 332.5105 
L 558.123119 391.180865 
M 563.466484 322.05434 
L 566.138167 356.26322 
L 568.80985 324.014814 
L 571.481532 395.429919 
L 574.153215 301.170777 
L 576.824897 369.522559 
L 579.49658 409.364254 
L 582.168263 365.368909 
L 584.839945 463.692344 
L 587.511628 243.806521 
L 590.183311 310.956317 
L 592.854993 357.140163 
L 595.526676 409.160652 
M 616.900137 358.691216 
L 619.571819 395.005159 
L 622.243502 322.087692 
L 624.915185 416.966088 
M 640.94528 404.654753 
L 643.616963 310.3937 
L 646.288646 332.14403 
L 648.960328 455.514223 
L 651.632011 251.38753 
L 654.303694 325.161573 
L 656.975376 462.327324 
L 659.647059 314.086528 
L 662.318741 445.438023 
L 664.990424 419.248015 
L 667.662107 286.101466 
M 673.005472 348.879156 
L 675.677155 309.737649 
L 678.348837 400.106824 
L 681.02052 370.23772 
L 683.692202 309.852626 
L 686.363885 308.379335 
L 689.035568 424.142274 
L 691.70725 500.475805 
L 694.378933 213.318349 
L 697.050616 371.642341 
L 699.722298 461.224424 
L 702.393981 290.627039 
L 705.065663 323.830156 
L 707.737346 401.398194 
L 710.409029 427.512931 
L 713.080711 335.377103 
L 715.752394 387.740319 
L 718.424077 367.640485 
L 721.095759 304.511825 
L 723.767442 267.221073 
L 726.439124 400.284419 
L 729.110807 375.314235 
L 731.78249 325.72291 
L 734.454172 510.860796 
L 737.125855 308.281567 
L 739.797538 243.780237 
L 742.46922 449.872286 
L 745.140903 370.681833 
L 747.812585 404.593815 
L 750.484268 389.283164 
L 753.155951 331.575103 
L 755.827633 296.494349 
L 758.499316 357.534366 
L 761.170999 348.465515 
L 763.842681 408.831223 
L 766.514364 371.226148 
L 769.186047 311.703843 
L 771.857729 320.519846 
L 774.529412 475.348142 
L 777.201094 363.516103 
L 779.872777 404.460955 
L 782.54446 407.796148 
L 785.216142 212.006777 
L 787.887825 347.514903 
L 790.559508 450.878079 
L 793.23119 345.566434 
L 795.902873 353.500506 
L 798.574555 391.649143 
L 801.246238 330.901079 
L 803.917921 394.494781 
L 806.589603 279.588154 
L 809.261286 361.97126 
L 811.932969 395.198111 
L 814.604651 377.619102 
L 817.276334 358.158489 
L 819.948016 452.034469 
L 822.619699 249.402901 
L 825.291382 376.518648 
L 827.963064 370.962233 
L 830.634747 375.695488 
L 833.30643 426.632873 
L 835.978112 284.413682 
L 838.649795 452.114812 
L 841.321477 218.784174 
L 843.99316 442.461159 
L 846.664843 329.958224 
L 849.336525 264.662192 
L 852.008208 424.534414 
L 854.679891 356.133797 
L 857.351573 354.969658 
L 860.023256 161.505729 
L 862.694938 530.089851 
L 865.366621 399.746304 
L 868.038304 307.827738 
L 870.709986 352.050389 
L 873.381669 323.067345 
L 876.053352 391.469618 
L 878.725034 346.632683 
L 881.396717 402.702165 
L 884.068399 420.533038 
L 886.740082 232.766272 
L 889.411765 453.17307 
L 892.083447 361.021666 
L 894.75513 417.070018 
L 897.426813 273.988024 
L 900.098495 421.66927 
L 902.770178 292.254897 
L 905.44186 310.343718 
L 908.113543 390.126132 
L 910.785226 414.773363 
L 913.456908 368.750062 
L 916.128591 368.834598 
L 918.800274 319.111658 
L 921.471956 374.795 
L 924.143639 344.779699 
L 926.815321 419.328874 
L 929.487004 271.114929 
L 932.158687 460.698634 
L 934.830369 301.931745 
L 937.502052 332.636066 
L 940.173735 405.50478 
L 942.845417 377.575574 
L 945.5171 337.523567 
L 948.188782 356.724276 
L 950.860465 405.47385 
L 953.532148 330.839107 
L 956.20383 388.64234 
L 958.875513 366.379968 
L 961.547196 358.828671 
L 964.218878 352.195293 
L 966.890561 372.515807 
L 969.562244 323.450616 
L 972.233926 302.858317 
L 974.905609 435.851369 
L 977.577291 290.193582 
L 980.248974 415.152414 
L 982.920657 330.908668 
L 985.592339 374.215242 
L 988.264022 402.064169 
L 990.935705 331.747623 
L 993.607387 346.538137 
L 996.27907 332.326419 
L 998.950752 326.988926 
L 1001.622435 430.45236 
L 1004.294118 345.317291 
L 1006.9658 366.611482 
L 1009.637483 369.913329 
L 1012.309166 349.284636 
L 1014.980848 369.745585 
L 1017.652531 380.934133 
M 1022.995896 338.347105 
L 1025.667579 309.743538 
L 1028.339261 433.710087 
L 1031.010944 359.720933 
L 1033.682627 346.690179 
L 1036.354309 317.938374 
L 1039.025992 377.669375 
L 1041.697674 363.02385 
L 1044.369357 405.499969 
L 1047.04104 228.682043 
L 1049.712722 416.783787 
L 1052.384405 389.20078 
L 1055.056088 334.755426 
L 1057.72777 357.606637 
L 1060.399453 425.062537 
L 1063.071135 375.628622 
L 1065.742818 363.929662 
L 1068.414501 413.32254 
L 1071.086183 322.821773 
L 1073.757866 389.880918 
L 1076.429549 378.717106 
L 1079.101231 289.94861 
L 1081.772914 311.446555 
L 1084.444596 427.321933 
L 1087.116279 350.426493 
L 1089.787962 363.641153 
L 1092.459644 315.472993 
L 1095.131327 342.104614 
L 1097.80301 388.256168 
L 1100.474692 375.550175 
L 1103.146375 324.16502 
L 1105.818057 476.630893 
L 1108.48974 340.806631 
L 1111.161423 311.893736 
L 1113.833105 380.20263 
L 1116.504788 299.286271 
L 1119.176471 336.537829 
L 1121.848153 432.910815 
L 1124.519836 391.545335 
L 1127.191518 370.922087 
L 1129.863201 363.270855 
L 1132.534884 371.542254 
L 1135.206566 335.344403 
L 1137.878249 315.537341 
L 1140.549932 448.193353 
L 1143.221614 354.707507 
L 1145.893297 380.771297 
L 1148.564979 315.544082 
L 1151.236662 427.070138 
L 1153.908345 326.322947 
L 1156.580027 349.491418 
L 1159.25171 392.486836 
L 1161.923393 267.239823 
L 1164.595075 354.507487 
L 1167.266758 461.764999 
L 1169.93844 379.702638 
L 1172.610123 362.405205 
L 1175.281806 421.616066 
M 1180.625171 353.807848 
L 1183.296854 290.467786 
L 1185.968536 313.350478 
L 1188.640219 386.263162 
L 1191.311902 421.533662 
M 1196.655267 347.617189 
L 1199.326949 316.021821 
L 1201.998632 371.199351 
L 1204.670315 305.063054 
L 1207.341997 443.143839 
L 1210.01368 190.055687 
L 1212.685363 432.634135 
L 1215.357045 379.435389 
L 1218.028728 386.08746 
L 1220.70041 395.514414 
L 1223.372093 307.929158 
L 1226.043776 359.588997 
L 1228.715458 364.582206 
L 1231.387141 392.065715 
L 1234.058824 410.962437 
L 1236.730506 284.129763 
L 1239.402189 301.019292 
L 1242.073871 485.074004 
L 1244.745554 444.355137 
L 1247.417237 229.394498 
L 1250.088919 316.181713 
L 1252.760602 396.125652 
L 1255.432285 382.053916 
L 1258.103967 302.580103 
M 1263.447332 483.172325 
L 1266.119015 228.202788 
L 1268.790698 458.138559 
L 1271.46238 318.497958 
L 1274.134063 359.022283 
L 1276.805746 367.278433 
L 1279.477428 434.573444 
L 1282.149111 294.670447 
L 1284.820793 297.818541 
L 1287.492476 442.71317 
L 1290.164159 430.197916 
L 1292.835841 300.847984 
L 1295.507524 316.195869 
L 1298.179207 357.315826 
L 1300.850889 408.288517 
L 1303.522572 331.522795 
L 1306.194254 407.214088 
L 1308.865937 391.531065 
L 1311.53762 365.198508 
L 1314.209302 343.280556 
L 1316.880985 338.886292 
L 1319.552668 326.509681 
M 1327.567715 420.163924 
L 1330.239398 344.003727 
L 1332.911081 419.416074 
L 1335.582763 359.827207 
L 1338.254446 374.305257 
L 1340.926129 331.21612 
L 1343.597811 414.620073 
L 1346.269494 303.40798 
L 1348.941176 350.955092 
L 1351.612859 355.011309 
L 1354.284542 344.718918 
L 1356.956224 383.421553 
L 1359.627907 295.845121 
L 1362.29959 338.479601 
L 1364.971272 323.242786 
L 1367.642955 441.874862 
L 1370.314637 325.885784 
L 1372.98632 369.378395 
L 1375.658003 313.688736 
L 1378.329685 405.820699 
L 1381.001368 323.002953 
L 1383.673051 468.954637 
L 1386.344733 322.371784 
L 1389.016416 298.702327 
L 1391.688098 328.683822 
L 1394.359781 431.709133 
L 1397.031464 392.983015 
L 1399.703146 423.814097 
L 1402.374829 274.856859 
L 1405.046512 395.06177 
L 1407.718194 385.039321 
L 1410.389877 255.313238 
L 1413.06156 428.219214 
L 1415.733242 381.551491 
L 1418.404925 311.178471 
L 1421.076607 408.773704 
L 1423.74829 287.547333 
L 1426.419973 201.894528 
L 1429.091655 552.854654 
L 1431.763338 317.572478 
L 1434.435021 471.285061 
L 1437.106703 301.617636 
L 1442.450068 366.80272 
L 1445.121751 403.17301 
L 1447.793434 353.282558 
L 1450.465116 360.514011 
L 1453.136799 336.903353 
L 1455.808482 397.362699 
L 1458.480164 423.078046 
L 1461.151847 256.215121 
L 1463.823529 458.927347 
L 1466.495212 258.876234 
L 1469.166895 327.638064 
L 1471.838577 481.617669 
L 1474.51026 282.92103 
L 1477.181943 407.385917 
L 1479.853625 443.166225 
L 1482.525308 290.326387 
L 1485.19699 382.084247 
L 1487.868673 330.21994 
L 1490.540356 324.61119 
L 1493.212038 398.653775 
L 1495.883721 337.981915 
L 1498.555404 388.244597 
M 1503.898769 368.224523 
L 1506.570451 320.725583 
L 1509.242134 397.226527 
L 1511.913817 340.622004 
L 1514.585499 393.391781 
L 1517.257182 301.274566 
L 1519.928865 366.713306 
L 1522.600547 426.585125 
L 1525.27223 280.044427 
L 1527.943912 355.806186 
L 1530.615595 333.989264 
L 1533.287278 386.469518 
L 1535.95896 441.576847 
L 1538.630643 334.522441 
L 1541.302326 328.185609 
L 1543.974008 377.579768 
L 1546.645691 384.791828 
L 1549.317373 369.266055 
L 1551.989056 399.782275 
L 1554.660739 370.212032 
L 1557.332421 356.987968 
L 1560.004104 334.178792 
L 1562.675787 402.10829 
L 1565.347469 311.976685 
L 1568.019152 324.956741 
L 1570.690834 433.305323 
L 1573.362517 397.840864 
L 1576.0342 387.167286 
L 1578.705882 361.079303 
L 1581.377565 330.537542 
L 1584.049248 398.97986 
L 1586.72093 283.756364 
L 1589.392613 348.667647 
L 1592.064295 428.069446 
M 1602.751026 303.176071 
L 1605.422709 460.186257 
L 1608.094391 327.437672 
L 1610.766074 275.037627 
L 1613.437756 374.106475 
L 1616.109439 267.04437 
L 1618.781122 446.942685 
L 1621.452804 410.676336 
L 1624.124487 358.336381 
L 1626.79617 336.415017 
L 1629.467852 335.32477 
L 1632.139535 382.054783 
L 1634.811218 471.913019 
L 1637.4829 316.720167 
L 1640.154583 376.698144 
L 1642.826265 335.225662 
L 1645.497948 339.394667 
L 1648.169631 399.068784 
L 1650.841313 339.784676 
L 1653.512996 396.455359 
L 1656.184679 308.374867 
L 1658.856361 312.409279 
L 1661.528044 384.858421 
L 1664.199726 386.741778 
L 1666.871409 418.642681 
L 1669.543092 345.531166 
L 1672.214774 404.015965 
L 1674.886457 314.156239 
L 1677.55814 417.589497 
L 1680.229822 349.803898 
L 1682.901505 285.804527 
L 1685.573187 341.277135 
L 1688.24487 401.884294 
L 1690.916553 320.878566 
L 1693.588235 421.649295 
L 1696.259918 321.367926 
L 1698.931601 442.930355 
L 1701.603283 294.566181 
L 1704.274966 376.205923 
L 1706.946648 366.833674 
L 1709.618331 336.616173 
L 1712.290014 373.411414 
L 1714.961696 315.924224 
L 1717.633379 491.618186 
L 1720.305062 271.30693 
L 1722.976744 373.24875 
L 1725.648427 354.839209 
L 1728.320109 387.914358 
L 1730.991792 286.606695 
L 1733.663475 352.897173 
L 1736.335157 445.638775 
L 1739.00684 344.297207 
L 1741.678523 349.19662 
L 1744.350205 278.980285 
L 1747.021888 439.953937 
L 1749.69357 467.371329 
L 1752.365253 234.570411 
L 1755.036936 389.866084 
L 1757.708618 388.490523 
L 1760.380301 360.693705 
L 1763.051984 386.297397 
L 1765.723666 242.118662 
L 1768.395349 430.726874 
L 1771.067031 310.770937 
L 1773.738714 424.529722 
L 1776.410397 323.373505 
L 1779.082079 480.049612 
L 1781.753762 290.158525 
L 1784.425445 301.897642 
L 1789.76881 443.691688 
L 1792.440492 324.598561 
L 1795.112175 258.661351 
L 1797.783858 435.811974 
L 1800.45554 371.001703 
L 1803.127223 288.113143 
L 1805.798906 416.85045 
L 1808.470588 421.438155 
L 1811.142271 291.902763 
L 1813.813953 429.049888 
L 1816.485636 314.943028 
L 1819.157319 361.670851 
L 1821.829001 397.872365 
L 1824.500684 223.853066 
L 1827.172367 451.038735 
L 1829.844049 379.104132 
L 1832.515732 345.606779 
L 1835.187415 393.451008 
L 1837.859097 304.387001 
L 1840.53078 346.854083 
L 1843.202462 417.497465 
L 1845.874145 365.648315 
L 1848.545828 218.571474 
L 1851.21751 402.855334 
L 1853.889193 434.382225 
L 1856.560876 402.246368 
M 1872.590971 290.188849 
L 1875.262654 274.344712 
L 1877.934337 378.299849 
L 1880.606019 429.75442 
L 1883.277702 317.342853 
L 1885.949384 410.177115 
L 1888.621067 301.191047 
L 1891.29275 394.279026 
L 1893.964432 298.35345 
L 1896.636115 350.156847 
L 1899.307798 407.425683 
L 1901.97948 412.204304 
L 1904.651163 182.721275 
L 1907.322845 429.122496 
L 1909.994528 396.627581 
L 1912.666211 301.845523 
L 1915.337893 373.55413 
L 1918.009576 352.892589 
L 1920.681259 392.7228 
L 1923.352941 348.913833 
L 1926.024624 316.92 
L 1928.696306 466.149635 
L 1931.367989 337.551522 
L 1934.039672 408.123383 
L 1936.711354 235.136579 
L 1939.383037 433.636041 
L 1942.05472 341.454667 
L 1944.726402 347.583008 
L 1947.398085 369.624566 
L 1950.069767 442.815217 
L 1952.74145 289.459625 
L 1955.413133 355.433358 
L 1958.084815 340.427981 
L 1960.756498 431.455157 
L 1963.428181 379.698099 
L 1966.099863 371.793552 
L 1968.771546 252.10603 
L 1971.443228 441.666428 
L 1974.114911 256.728424 
L 1976.786594 387.818608 
L 1979.458276 357.354647 
L 1982.129959 389.504319 
L 1984.801642 189.495429 
L 1987.473324 450.132135 
L 1990.145007 405.202411 
L 1992.816689 314.239543 
L 1995.488372 387.830075 
L 1998.160055 443.528032 
L 2000.831737 285.130726 
L 2003.50342 434.864349 
L 2006.175103 292.217369 
L 2008.846785 369.396707 
L 2011.518468 383.172385 
L 2014.19015 365.100353 
L 2016.861833 343.671045 
L 2019.533516 389.057621 
L 2022.205198 421.07753 
L 2024.876881 266.155887 
L 2027.548564 325.686076 
L 2030.220246 401.868627 
L 2032.891929 421.468221 
L 2035.563611 286.981274 
L 2038.235294 358.206845 
L 2040.906977 422.853501 
L 2043.578659 297.813835 
L 2046.250342 322.567903 
L 2048.922025 415.613016 
L 2051.593707 395.398793 
L 2054.26539 277.197267 
L 2056.937073 456.747798 
L 2059.608755 299.797981 
L 2062.280438 413.047058 
L 2064.95212 292.502484 
L 2067.623803 401.888637 
L 2070.295486 337.489081 
L 2072.967168 391.048918 
L 2075.638851 370.212708 
L 2078.310534 329.734855 
L 2080.982216 424.176216 
L 2083.653899 304.635003 
L 2086.325581 349.182617 
L 2088.997264 327.586079 
L 2091.668947 408.490869 
L 2094.340629 356.450973 
L 2097.012312 471.08739 
L 2099.683995 297.946155 
L 2102.355677 358.759136 
L 2105.02736 295.333396 
L 2107.699042 382.036186 
L 2110.370725 394.158251 
L 2113.042408 334.572387 
L 2115.71409 295.784992 
L 2118.385773 473.970367 
L 2121.057456 298.882391 
L 2123.729138 439.965693 
L 2126.400821 451.986483 
L 2129.072503 308.545538 
M 2134.415869 354.059168 
L 2137.087551 353.945908 
L 2139.759234 388.35611 
L 2142.430917 375.83261 
L 2145.102599 354.405057 
L 2147.774282 310.060381 
L 2150.445964 362.773893 
L 2153.117647 429.568685 
L 2155.78933 369.522685 
L 2158.461012 357.203583 
L 2161.132695 365.376561 
L 2163.804378 271.876708 
L 2166.47606 385.652344 
L 2169.147743 352.000567 
L 2171.819425 384.720339 
L 2174.491108 328.884173 
L 2177.162791 379.75067 
L 2179.834473 339.909326 
M 2187.849521 378.722381 
L 2190.521204 307.415075 
L 2193.192886 296.301312 
L 2195.864569 443.517571 
L 2198.536252 364.815316 
L 2201.207934 370.501375 
L 2203.879617 360.188203 
L 2209.222982 329.864222 
L 2211.894665 356.094145 
L 2214.566347 363.013733 
L 2217.23803 444.995156 
L 2219.909713 312.049881 
L 2222.581395 428.344958 
L 2225.253078 378.848628 
L 2227.924761 257.474712 
L 2230.596443 359.652163 
L 2233.268126 363.48275 
L 2235.939808 354.495887 
L 2238.611491 410.418651 
L 2241.283174 378.17435 
L 2243.954856 348.359893 
L 2246.626539 329.404504 
L 2249.298222 387.929432 
L 2251.969904 383.846778 
L 2254.641587 409.501663 
L 2257.313269 318.834694 
L 2259.984952 381.438199 
L 2262.656635 395.202132 
L 2265.328317 301.937705 
L 2268 389.816634 
L 2270.671683 315.623218 
L 2270.671683 315.623218 
" clip-path="url(#p1b4ea60dce)" style="fill: none; stroke: #008000; stroke-linecap: square"/>
   </g>
   <g id="line2d_17">
    <path d="M 312.328317 375.767651 
L 317.671683 375.743951 
L 320.343365 344.65336 
L 323.015048 349.398358 
L 325.686731 350.533661 
L 328.358413 350.354553 
L 333.701778 350.378352 
L 336.373461 376.918678 
L 339.045144 363.517127 
L 341.716826 357.350632 
L 344.388509 344.312197 
L 347.060192 335.623658 
L 349.731874 370.117241 
L 352.403557 360.783134 
L 355.075239 352.731122 
L 357.746922 350.793561 
L 360.418605 354.727395 
L 363.090287 375.110988 
L 365.76197 365.667406 
L 368.433653 350.779864 
L 371.105335 349.161465 
L 373.777018 336.270743 
L 376.4487 338.367501 
L 379.120383 368.321481 
L 381.792066 365.466124 
L 384.463748 375.206571 
L 387.135431 359.667647 
L 389.807114 379.377417 
L 392.478796 379.81551 
L 395.150479 360.109915 
L 397.822161 376.962373 
L 400.493844 380.620039 
L 403.165527 380.042998 
L 405.837209 344.656643 
L 408.508892 330.849387 
L 411.180575 341.760528 
L 413.852257 367.901635 
L 416.52394 371.481965 
L 419.195622 379.909238 
L 421.867305 386.394285 
L 424.538988 387.051796 
L 427.21067 342.644743 
L 429.882353 336.817788 
L 432.554036 335.190956 
L 435.225718 375.917946 
L 437.897401 382.695416 
L 440.569083 381.626188 
L 443.240766 389.786742 
L 445.912449 362.473482 
L 448.584131 358.477332 
L 451.255814 359.107773 
L 453.927497 357.08381 
L 456.599179 333.449355 
L 459.270862 340.708755 
L 461.942544 355.127538 
L 464.614227 360.495454 
L 467.28591 360.845228 
L 469.957592 331.566092 
L 472.629275 372.925991 
L 475.300958 379.814607 
L 477.97264 381.004146 
L 480.644323 343.568354 
L 483.316005 337.992322 
L 485.987688 338.872008 
L 488.659371 347.65448 
L 491.331053 348.287549 
L 494.002736 350.580422 
L 496.674419 381.16479 
L 499.346101 383.046645 
L 502.017784 381.969623 
L 504.689466 382.139536 
L 507.361149 391.035682 
L 510.032832 404.348497 
L 512.704514 357.773371 
L 515.376197 343.534109 
L 518.04788 343.783024 
L 520.719562 328.011517 
L 523.391245 351.749286 
L 526.062927 347.894426 
L 528.73461 336.354667 
L 531.406293 360.455147 
L 534.077975 365.006347 
L 536.749658 348.310444 
L 539.421341 363.266185 
L 542.093023 382.862916 
L 544.764706 385.021865 
L 547.436389 392.534302 
L 550.108071 369.041509 
L 552.779754 378.131653 
L 555.451436 397.759021 
L 558.123119 368.077475 
L 560.794802 373.809777 
L 563.466484 376.550275 
L 566.138167 342.242201 
L 568.80985 346.339134 
L 571.481532 336.86664 
L 574.153215 363.617439 
L 576.824897 368.63624 
L 579.49658 368.395447 
L 582.168263 389.850609 
L 584.839945 380.824262 
L 587.511628 378.385994 
L 590.183311 378.770661 
L 592.854993 331.513795 
L 595.526676 341.822327 
L 598.198358 377.610849 
L 600.870041 382.588209 
L 603.541724 381.802971 
L 606.213406 381.926852 
L 608.885089 381.907308 
L 611.556772 339.2492 
L 614.228454 337.385561 
L 616.900137 337.679573 
L 619.571819 352.708271 
L 622.243502 376.13797 
L 624.915185 352.309756 
L 627.586867 379.326107 
L 630.25855 385.264266 
L 632.930233 384.32745 
L 635.601915 384.475244 
L 638.273598 372.974811 
L 640.94528 372.364954 
L 643.616963 393.543287 
L 646.288646 351.727279 
L 648.960328 335.512621 
L 651.632011 334.981185 
L 654.303694 335.065026 
L 656.975376 328.159097 
L 659.647059 327.686201 
L 662.318741 318.948821 
L 664.990424 318.181736 
L 667.662107 318.302753 
L 673.005472 318.286673 
L 675.677155 342.462986 
L 678.348837 325.77199 
L 681.02052 360.189729 
L 683.692202 371.427977 
L 686.363885 341.002353 
L 689.035568 320.070535 
L 691.70725 318.226108 
L 694.378933 318.517089 
L 697.050616 318.471183 
L 699.722298 358.191416 
L 702.393981 360.313461 
L 705.065663 359.978683 
L 707.737346 334.17391 
L 710.409029 368.261098 
L 713.080711 373.488873 
L 715.752394 348.84816 
L 718.424077 366.940698 
L 721.095759 370.568136 
L 723.767442 337.645332 
L 726.439124 332.418123 
L 729.110807 375.432159 
L 731.78249 379.291657 
L 734.454172 352.177362 
L 737.125855 348.003854 
L 739.797538 323.958884 
L 742.46922 321.485599 
L 745.140903 321.875789 
L 747.812585 356.365327 
L 750.484268 384.203515 
L 753.155951 389.938688 
L 755.827633 361.145526 
L 758.499316 356.480436 
L 761.170999 357.871604 
L 763.842681 352.933284 
L 766.514364 379.86692 
L 769.186047 380.190261 
L 771.857729 345.14709 
L 774.529412 327.779406 
L 777.201094 326.634124 
L 779.872777 349.741358 
L 782.54446 380.333092 
L 785.216142 397.718511 
L 787.887825 399.308379 
L 790.559508 366.847067 
L 793.23119 363.797185 
L 795.902873 352.58957 
L 798.574555 351.95733 
L 801.246238 371.840139 
L 803.917921 354.845788 
L 806.589603 370.53733 
L 809.261286 374.316905 
L 811.932969 366.046288 
L 814.604651 380.54341 
L 817.276334 381.409457 
L 819.948016 369.385824 
L 822.619699 367.614577 
L 825.291382 367.894012 
L 827.963064 373.851021 
L 830.634747 372.744282 
L 833.30643 373.925712 
L 835.978112 374.204916 
L 843.99316 374.166721 
L 846.664843 374.166894 
L 849.336525 338.343267 
L 852.008208 337.020426 
L 854.679891 337.22912 
L 857.351573 350.789655 
L 860.023256 353.855782 
L 862.694938 354.03151 
L 865.366621 354.003786 
L 868.038304 385.928896 
L 870.709986 346.788142 
L 873.381669 343.249723 
L 876.053352 334.71749 
L 878.725034 360.747618 
L 881.396717 358.664129 
L 884.068399 378.387335 
L 886.740082 382.223141 
L 889.411765 381.617996 
L 892.083447 381.713465 
L 894.75513 366.243868 
L 897.426813 392.639639 
L 900.098495 396.493825 
L 902.770178 395.885781 
L 905.44186 395.981707 
L 908.113543 331.870404 
L 910.785226 359.684436 
L 913.456908 391.834022 
L 916.128591 384.103791 
L 918.800274 374.183447 
L 921.471956 346.299972 
L 924.143639 356.000817 
L 926.815321 353.456268 
L 929.487004 352.087435 
L 932.158687 352.303385 
L 937.502052 352.274691 
L 940.173735 336.895376 
L 942.845417 373.277624 
L 945.5171 380.497641 
L 948.188782 358.905791 
L 950.860465 354.461213 
L 953.532148 379.86492 
L 956.20383 359.835015 
L 958.875513 369.404878 
L 961.547196 370.954619 
L 966.890561 357.486238 
L 969.562244 364.030892 
L 972.233926 345.44499 
L 974.905609 341.975113 
L 977.577291 342.522528 
L 980.248974 342.436167 
L 982.920657 396.761012 
L 985.592339 364.395649 
L 988.264022 363.987047 
L 990.935705 384.321106 
L 993.607387 361.303509 
L 996.27907 349.391081 
L 998.950752 340.562802 
L 1001.622435 332.598861 
L 1004.294118 331.713827 
L 1006.9658 340.309712 
L 1009.637483 354.759557 
L 1012.309166 364.122042 
L 1014.980848 357.744501 
L 1017.652531 362.302763 
L 1020.324213 372.624682 
L 1022.995896 373.935598 
L 1025.667579 351.606289 
L 1028.339261 327.773089 
L 1031.010944 324.928711 
L 1033.682627 347.085332 
L 1036.354309 348.87339 
L 1039.025992 333.232015 
L 1041.697674 352.656261 
L 1044.369357 361.693198 
L 1047.04104 383.411599 
L 1049.712722 386.896305 
L 1052.384405 404.925188 
L 1055.056088 398.629559 
L 1057.72777 365.559838 
L 1060.399453 356.791824 
L 1063.071135 356.92037 
L 1065.742818 368.530146 
L 1068.414501 367.260732 
L 1071.086183 389.510255 
L 1073.757866 360.495823 
L 1076.429549 368.98129 
L 1079.101231 377.058598 
L 1081.772914 377.320247 
L 1084.444596 336.330607 
L 1087.116279 332.404849 
L 1089.787962 344.578339 
L 1092.459644 355.456596 
L 1095.131327 336.964098 
L 1097.80301 336.099919 
L 1100.474692 362.657859 
L 1103.146375 373.026243 
L 1105.818057 349.434995 
L 1108.48974 345.44849 
L 1111.161423 343.19192 
L 1113.833105 326.560892 
L 1116.504788 350.769841 
L 1119.176471 355.413218 
L 1121.848153 342.942018 
L 1124.519836 341.93168 
L 1127.191518 373.901206 
L 1129.863201 375.128908 
L 1132.534884 368.597913 
L 1135.206566 369.204499 
L 1137.878249 352.946761 
L 1140.549932 331.802285 
L 1143.221614 329.236295 
L 1145.893297 345.47451 
L 1148.564979 365.2625 
L 1151.236662 343.126198 
L 1153.908345 338.774787 
L 1156.580027 331.717444 
L 1159.25171 340.09806 
L 1161.923393 367.48359 
L 1164.595075 371.428153 
L 1167.266758 360.282839 
L 1169.93844 359.371708 
L 1172.610123 372.550765 
L 1175.281806 368.380449 
L 1177.953488 367.437783 
L 1180.625171 367.5865 
L 1183.296854 357.954386 
L 1185.968536 357.300219 
L 1188.640219 328.920178 
L 1191.311902 356.470213 
L 1193.983584 361.170409 
L 1196.655267 360.428897 
L 1199.326949 351.610881 
L 1201.998632 332.15388 
L 1204.670315 348.960145 
L 1207.341997 330.891076 
L 1210.01368 326.816395 
L 1212.685363 327.459225 
L 1215.357045 327.357811 
L 1218.028728 366.271047 
L 1220.70041 378.960485 
L 1223.372093 388.302101 
L 1226.043776 349.924948 
L 1228.715458 348.045243 
L 1231.387141 357.985872 
L 1234.058824 375.758615 
L 1236.730506 395.6158 
L 1239.402189 398.036916 
L 1242.073871 397.654956 
L 1247.417237 397.705708 
L 1250.088919 397.707208 
L 1252.760602 331.651748 
L 1255.432285 364.246264 
L 1258.103967 378.131892 
L 1260.77565 378.750638 
L 1263.447332 378.653024 
L 1271.46238 378.666377 
L 1274.134063 329.907977 
L 1279.477428 357.922569 
L 1282.149111 359.398569 
L 1284.820793 359.165712 
L 1292.835841 359.197567 
L 1295.507524 359.197423 
L 1298.179207 323.443698 
L 1300.850889 340.792551 
L 1303.522572 376.987445 
L 1306.194254 359.56616 
L 1308.865937 378.540908 
L 1311.53762 389.442498 
L 1314.209302 377.869047 
L 1316.880985 358.887597 
L 1319.552668 346.604937 
L 1322.22435 335.520637 
L 1324.896033 334.09905 
L 1327.567715 334.323323 
L 1330.239398 334.287941 
L 1332.911081 341.550174 
L 1335.582763 341.937252 
L 1340.926129 365.417793 
L 1343.597811 349.889929 
L 1346.269494 378.75713 
L 1348.941176 384.414941 
L 1351.612859 362.721723 
L 1354.284542 356.860948 
L 1356.956224 350.565576 
L 1359.627907 365.788813 
L 1362.29959 368.57059 
L 1364.971272 349.425553 
L 1367.642955 334.100552 
L 1370.314637 332.387609 
L 1372.98632 328.601165 
L 1375.658003 349.364562 
L 1378.329685 334.88077 
L 1381.001368 366.398124 
L 1383.673051 351.309095 
L 1386.344733 346.843461 
L 1389.016416 332.335807 
L 1391.688098 330.763862 
L 1394.359781 329.678286 
L 1397.031464 329.521397 
L 1399.703146 370.36486 
L 1402.374829 373.933146 
L 1405.046512 373.370206 
L 1407.718194 388.845857 
L 1410.389877 387.806866 
L 1413.06156 387.370253 
L 1415.733242 387.439134 
L 1418.404925 383.320031 
L 1421.076607 344.874015 
L 1423.74829 371.227771 
L 1426.419973 377.151093 
L 1429.091655 376.216618 
L 1431.763338 376.364043 
L 1434.435021 332.420364 
L 1437.106703 330.077932 
L 1439.778386 330.447479 
L 1442.450068 332.773784 
L 1445.121751 351.013719 
L 1447.793434 379.369853 
L 1450.465116 370.301005 
L 1453.136799 362.810206 
L 1455.808482 349.728005 
L 1458.480164 371.091894 
L 1461.151847 375.236256 
L 1463.823529 374.582433 
L 1466.495212 374.685582 
L 1469.166895 374.669309 
L 1471.838577 337.843012 
L 1474.51026 336.233058 
L 1477.181943 336.487048 
L 1479.853625 387.313824 
L 1482.525308 390.480438 
L 1485.19699 389.980866 
L 1487.868673 384.425563 
L 1490.540356 355.267341 
L 1493.212038 336.114634 
L 1495.883721 365.042813 
L 1498.555404 357.057017 
L 1501.227086 369.36041 
L 1503.898769 372.339618 
L 1506.570451 369.311589 
L 1509.242134 343.906966 
L 1511.913817 366.613391 
L 1514.585499 358.670666 
L 1517.257182 372.872426 
L 1519.928865 376.109601 
L 1522.600547 369.757944 
L 1525.27223 369.277616 
L 1527.943912 369.353393 
L 1530.615595 359.751264 
L 1533.287278 345.465208 
L 1535.95896 363.983602 
L 1538.630643 367.531026 
L 1541.302326 346.439669 
L 1543.974008 335.078269 
L 1546.645691 355.005806 
L 1549.317373 373.204167 
L 1551.989056 373.098523 
L 1554.660739 385.59523 
L 1557.332421 380.280696 
L 1560.004104 367.2559 
L 1562.675787 349.395643 
L 1565.347469 372.876126 
L 1568.019152 347.587133 
L 1570.690834 330.857972 
L 1573.362517 329.926982 
L 1576.0342 372.290697 
L 1578.705882 384.047702 
L 1581.377565 373.183253 
L 1584.049248 350.317363 
L 1586.72093 371.091667 
L 1589.392613 375.491364 
L 1592.064295 358.123016 
L 1594.735978 356.631318 
L 1597.407661 356.866651 
L 1605.422709 356.834458 
L 1608.094391 356.834603 
L 1610.766074 332.282792 
L 1613.437756 331.518416 
L 1616.109439 359.792462 
L 1618.781122 362.050669 
L 1621.452804 361.69441 
L 1624.124487 396.55359 
L 1626.79617 378.498942 
L 1629.467852 354.452229 
L 1632.139535 342.204076 
L 1634.811218 360.687555 
L 1637.4829 364.058492 
L 1640.154583 334.100008 
L 1642.826265 353.48149 
L 1645.497948 348.1177 
L 1648.169631 341.797278 
L 1650.841313 369.540338 
L 1653.512996 359.589219 
L 1656.184679 374.565035 
L 1658.856361 345.520017 
L 1661.528044 323.403044 
L 1664.199726 351.842319 
L 1666.871409 374.18612 
L 1669.543092 397.994435 
L 1672.214774 375.493261 
L 1674.886457 384.770603 
L 1677.55814 353.13619 
L 1680.229822 378.632247 
L 1682.901505 370.623932 
L 1685.573187 367.339321 
L 1688.24487 351.65665 
L 1690.916553 376.104894 
L 1693.588235 352.865543 
L 1696.259918 347.819213 
L 1698.931601 332.165211 
L 1701.603283 330.461809 
L 1704.274966 330.730541 
L 1706.946648 362.881377 
L 1709.618331 367.079717 
L 1712.290014 351.937865 
L 1714.961696 360.076421 
L 1717.633379 340.499176 
L 1720.305062 336.622182 
L 1722.976744 337.233824 
L 1725.648427 362.196168 
L 1728.320109 360.049508 
L 1730.991792 373.036882 
L 1733.663475 375.383983 
L 1736.335157 361.027002 
L 1739.00684 359.744424 
L 1741.678523 350.042523 
L 1744.350205 348.694349 
L 1749.69357 348.761087 
L 1755.036936 348.762748 
L 1757.708618 380.982785 
L 1760.380301 386.439719 
L 1763.051984 373.968895 
L 1765.723666 377.936662 
L 1768.395349 379.255668 
L 1771.067031 379.047579 
L 1773.738714 331.571898 
L 1776.410397 328.290297 
L 1779.082079 325.622224 
L 1781.753762 325.267462 
L 1787.097127 325.3146 
L 1789.76881 360.581046 
L 1792.440492 362.36984 
L 1795.112175 337.391736 
L 1797.783858 335.373459 
L 1800.45554 335.691866 
L 1803.127223 360.71338 
L 1805.798906 362.336487 
L 1808.470588 397.476252 
L 1811.142271 400.532765 
L 1813.813953 400.050563 
L 1816.485636 400.126636 
L 1819.157319 335.652498 
L 1821.829001 346.351912 
L 1824.500684 374.350743 
L 1827.172367 378.061562 
L 1829.844049 377.476136 
L 1832.515732 378.701689 
L 1835.187415 361.263488 
L 1837.859097 374.745201 
L 1840.53078 343.111948 
L 1843.202462 338.840192 
L 1845.874145 378.724196 
L 1848.545828 378.421292 
L 1851.21751 376.406246 
L 1853.889193 393.165546 
L 1856.560876 394.694227 
L 1859.232558 399.294941 
L 1861.904241 399.760564 
L 1867.247606 399.698695 
L 1877.934337 399.697117 
L 1880.606019 381.473295 
L 1883.277702 380.972646 
L 1885.949384 338.893518 
L 1888.621067 372.945013 
L 1891.29275 378.818824 
L 1893.964432 387.54578 
L 1896.636115 388.608031 
L 1899.307798 363.776868 
L 1901.97948 384.425863 
L 1904.651163 401.799159 
L 1907.322845 403.440695 
L 1909.994528 403.181723 
L 1912.666211 398.66103 
L 1915.337893 398.340229 
L 1918.009576 382.330571 
L 1920.681259 365.542293 
L 1923.352941 376.99874 
L 1926.024624 365.676684 
L 1928.696306 339.090736 
L 1931.367989 335.593036 
L 1934.039672 337.362282 
L 1936.711354 374.141934 
L 1939.383037 379.502916 
L 1942.05472 378.657157 
L 1944.726402 352.852543 
L 1947.398085 348.266893 
L 1950.069767 358.743993 
L 1952.74145 360.460534 
L 1955.413133 360.189729 
L 1958.084815 356.921922 
L 1960.756498 347.96464 
L 1963.428181 346.775641 
L 1966.099863 367.529724 
L 1968.771546 371.665817 
L 1976.786594 371.683291 
L 1979.458276 383.750886 
L 1982.129959 370.25286 
L 1984.801642 377.774588 
L 1987.473324 379.625095 
L 1990.145007 379.333155 
L 1992.816689 397.385781 
L 1995.488372 354.648521 
L 1998.160055 364.717894 
L 2000.831737 368.364118 
L 2003.50342 367.788882 
L 2008.846785 367.865316 
L 2011.518468 369.066944 
L 2014.19015 376.737165 
L 2016.861833 371.969656 
L 2019.533516 356.971174 
L 2022.205198 370.62958 
L 2024.876881 373.536825 
L 2027.548564 373.078172 
L 2030.220246 340.175525 
L 2032.891929 370.51277 
L 2035.563611 375.459534 
L 2038.235294 374.679122 
L 2040.906977 363.309792 
L 2043.578659 362.504741 
L 2046.250342 362.631747 
L 2048.922025 334.074333 
L 2051.593707 375.552082 
L 2054.26539 391.713013 
L 2056.937073 392.294489 
L 2062.280438 392.217226 
L 2064.95212 407.7761 
L 2067.623803 408.607657 
L 2070.295486 404.089502 
L 2072.967168 368.844658 
L 2075.638851 374.889144 
L 2078.310534 375.140193 
L 2080.982216 352.066996 
L 2083.653899 348.543832 
L 2086.325581 321.80488 
L 2088.997264 333.314761 
L 2091.668947 332.98559 
L 2094.340629 369.237479 
L 2097.012312 369.151598 
L 2099.683995 367.147922 
L 2102.355677 367.464026 
L 2105.02736 361.357387 
L 2107.699042 360.947482 
L 2110.370725 374.676289 
L 2113.042408 386.031461 
L 2115.71409 361.845617 
L 2118.385773 357.542937 
L 2121.057456 358.221736 
L 2123.729138 358.114647 
L 2129.072503 358.128877 
L 2131.744186 317.951099 
L 2134.415869 316.467259 
L 2137.087551 341.46689 
L 2139.759234 350.00298 
L 2142.430917 369.61395 
L 2145.102599 375.627143 
L 2147.774282 365.238636 
L 2150.445964 336.43774 
L 2153.117647 345.206657 
L 2155.78933 347.978019 
L 2158.461012 360.933484 
L 2161.132695 360.351408 
L 2163.804378 362.33946 
L 2166.47606 362.8186 
L 2169.147743 376.943372 
L 2171.819425 365.36222 
L 2174.491108 372.825875 
L 2177.162791 353.109138 
L 2179.834473 362.369186 
L 2182.506156 354.083868 
L 2185.177839 351.847663 
L 2187.849521 352.200451 
L 2190.521204 370.598408 
L 2193.192886 338.468938 
L 2195.864569 333.569818 
L 2198.536252 334.342713 
L 2201.207934 355.481036 
L 2203.879617 364.900075 
L 2206.5513 363.44848 
L 2209.222982 353.722878 
L 2211.894665 340.585102 
L 2214.566347 346.508497 
L 2217.23803 356.124308 
L 2219.909713 357.211141 
L 2222.581395 328.966331 
L 2225.253078 326.297558 
L 2227.924761 360.410503 
L 2230.596443 363.319339 
L 2233.268126 360.501696 
L 2235.939808 361.925454 
L 2238.611491 358.494745 
L 2241.283174 383.38206 
L 2243.954856 385.090228 
L 2246.626539 365.965091 
L 2249.298222 345.237485 
L 2251.969904 363.700886 
L 2254.641587 377.414578 
L 2257.313269 394.183638 
L 2259.984952 359.604978 
L 2262.656635 363.892777 
L 2265.328317 382.033228 
L 2268 384.110781 
L 2270.671683 387.329915 
L 2270.671683 387.329915 
" clip-path="url(#p1b4ea60dce)" style="fill: none; stroke: #ff0000; stroke-width: 1.8; stroke-linecap: square"/>
   </g>
   <g id="patch_3">
    <path d="M 315 640.8 
L 315 86.4 
" style="fill: none; stroke: #000000; stroke-width: 0.8; stroke-linejoin: miter; stroke-linecap: square"/>
   </g>
   <g id="patch_4">
    <path d="M 2268 640.8 
L 2268 86.4 
" style="fill: none; stroke: #000000; stroke-width: 0.8; stroke-linejoin: miter; stroke-linecap: square"/>
   </g>
   <g id="patch_5">
    <path d="M 315 640.8 
L 2268 640.8 
" style="fill: none; stroke: #000000; stroke-width: 0.8; stroke-linejoin: miter; stroke-linecap: square"/>
   </g>
   <g id="patch_6">
    <path d="M 315 86.4 
L 2268 86.4 
" style="fill: none; stroke: #000000; stroke-width: 0.8; stroke-linejoin: miter; stroke-linecap: square"/>
   </g>
   <g id="text_18">
    <!-- Model ARIMA - BRSE (east) -->
    <g transform="translate(1157.254688 80.4) scale(0.2 -0.2)">
     <defs>
      <path id="DejaVuSans-4d" d="M 628 4666 
L 1569 4666 
L 2759 1491 
L 3956 4666 
L 4897 4666 
L 4897 0 
L 4281 0 
L 4281 4097 
L 3078 897 
L 2444 897 
L 1241 4097 
L 1241 0 
L 628 0 
L 628 4666 
z
" transform="scale(0.015625)"/>
      <path id="DejaVuSans-6f" d="M 1959 3097 
Q 1497 3097 1228 2736 
Q 959 2375 959 1747 
Q 959 1119 1226 758 
Q 1494 397 1959 397 
Q 2419 397 2687 759 
Q 2956 1122 2956 1747 
Q 2956 2369 2687 2733 
Q 2419 3097 1959 3097 
z
M 1959 3584 
Q 2709 3584 3137 3096 
Q 3566 2609 3566 1747 
Q 3566 888 3137 398 
Q 2709 -91 1959 -91 
Q 1206 -91 779 398 
Q 353 888 353 1747 
Q 353 2609 779 3096 
Q 1206 3584 1959 3584 
z
" transform="scale(0.015625)"/>
      <path id="DejaVuSans-64" d="M 2906 2969 
L 2906 4863 
L 3481 4863 
L 3481 0 
L 2906 0 
L 2906 525 
Q 2725 213 2448 61 
Q 2172 -91 1784 -91 
Q 1150 -91 751 415 
Q 353 922 353 1747 
Q 353 2572 751 3078 
Q 1150 3584 1784 3584 
Q 2172 3584 2448 3432 
Q 2725 3281 2906 2969 
z
M 947 1747 
Q 947 1113 1208 752 
Q 1469 391 1925 391 
Q 2381 391 2643 752 
Q 2906 1113 2906 1747 
Q 2906 2381 2643 2742 
Q 2381 3103 1925 3103 
Q 1469 3103 1208 2742 
Q 947 2381 947 1747 
z
" transform="scale(0.015625)"/>
      <path id="DejaVuSans-6c" d="M 603 4863 
L 1178 4863 
L 1178 0 
L 603 0 
L 603 4863 
z
" transform="scale(0.015625)"/>
      <path id="DejaVuSans-20" transform="scale(0.015625)"/>
      <path id="DejaVuSans-41" d="M 2188 4044 
L 1331 1722 
L 3047 1722 
L 2188 4044 
z
M 1831 4666 
L 2547 4666 
L 4325 0 
L 3669 0 
L 3244 1197 
L 1141 1197 
L 716 0 
L 50 0 
L 1831 4666 
z
" transform="scale(0.015625)"/>
      <path id="DejaVuSans-52" d="M 2841 2188 
Q 3044 2119 3236 1894 
Q 3428 1669 3622 1275 
L 4263 0 
L 3584 0 
L 2988 1197 
Q 2756 1666 2539 1819 
Q 2322 1972 1947 1972 
L 1259 1972 
L 1259 0 
L 628 0 
L 628 4666 
L 2053 4666 
Q 2853 4666 3247 4331 
Q 3641 3997 3641 3322 
Q 3641 2881 3436 2590 
Q 3231 2300 2841 2188 
z
M 1259 4147 
L 1259 2491 
L 2053 2491 
Q 2509 2491 2742 2702 
Q 2975 2913 2975 3322 
Q 2975 3731 2742 3939 
Q 2509 4147 2053 4147 
L 1259 4147 
z
" transform="scale(0.015625)"/>
      <path id="DejaVuSans-49" d="M 628 4666 
L 1259 4666 
L 1259 0 
L 628 0 
L 628 4666 
z
" transform="scale(0.015625)"/>
      <path id="DejaVuSans-42" d="M 1259 2228 
L 1259 519 
L 2272 519 
Q 2781 519 3026 730 
Q 3272 941 3272 1375 
Q 3272 1813 3026 2020 
Q 2781 2228 2272 2228 
L 1259 2228 
z
M 1259 4147 
L 1259 2741 
L 2194 2741 
Q 2656 2741 2882 2914 
Q 3109 3088 3109 3444 
Q 3109 3797 2882 3972 
Q 2656 4147 2194 4147 
L 1259 4147 
z
M 628 4666 
L 2241 4666 
Q 2963 4666 3353 4366 
Q 3744 4066 3744 3513 
Q 3744 3084 3544 2831 
Q 3344 2578 2956 2516 
Q 3422 2416 3680 2098 
Q 3938 1781 3938 1306 
Q 3938 681 3513 340 
Q 3088 0 2303 0 
L 628 0 
L 628 4666 
z
" transform="scale(0.015625)"/>
      <path id="DejaVuSans-53" d="M 3425 4513 
L 3425 3897 
Q 3066 4069 2747 4153 
Q 2428 4238 2131 4238 
Q 1616 4238 1336 4038 
Q 1056 3838 1056 3469 
Q 1056 3159 1242 3001 
Q 1428 2844 1947 2747 
L 2328 2669 
Q 3034 2534 3370 2195 
Q 3706 1856 3706 1288 
Q 3706 609 3251 259 
Q 2797 -91 1919 -91 
Q 1588 -91 1214 -16 
Q 841 59 441 206 
L 441 856 
Q 825 641 1194 531 
Q 1563 422 1919 422 
Q 2459 422 2753 634 
Q 3047 847 3047 1241 
Q 3047 1584 2836 1778 
Q 2625 1972 2144 2069 
L 1759 2144 
Q 1053 2284 737 2584 
Q 422 2884 422 3419 
Q 422 4038 858 4394 
Q 1294 4750 2059 4750 
Q 2388 4750 2728 4690 
Q 3069 4631 3425 4513 
z
" transform="scale(0.015625)"/>
     </defs>
     <use xlink:href="#DejaVuSans-4d"/>
     <use xlink:href="#DejaVuSans-6f" x="86.279297"/>
     <use xlink:href="#DejaVuSans-64" x="147.460938"/>
     <use xlink:href="#DejaVuSans-65" x="210.9375"/>
     <use xlink:href="#DejaVuSans-6c" x="272.460938"/>
     <use xlink:href="#DejaVuSans-20" x="300.244141"/>
     <use xlink:href="#DejaVuSans-41" x="332.03125"/>
     <use xlink:href="#DejaVuSans-52" x="400.439453"/>
     <use xlink:href="#DejaVuSans-49" x="469.921875"/>
     <use xlink:href="#DejaVuSans-4d" x="499.414062"/>
     <use xlink:href="#DejaVuSans-41" x="585.693359"/>
     <use xlink:href="#DejaVuSans-20" x="654.101562"/>
     <use xlink:href="#DejaVuSans-2d" x="685.888672"/>
     <use xlink:href="#DejaVuSans-20" x="721.972656"/>
     <use xlink:href="#DejaVuSans-42" x="753.759766"/>
     <use xlink:href="#DejaVuSans-52" x="822.363281"/>
     <use xlink:href="#DejaVuSans-53" x="891.845703"/>
     <use xlink:href="#DejaVuSans-45" x="955.322266"/>
     <use xlink:href="#DejaVuSans-20" x="1018.505859"/>
     <use xlink:href="#DejaVuSans-28" x="1050.292969"/>
     <use xlink:href="#DejaVuSans-65" x="1089.306641"/>
     <use xlink:href="#DejaVuSans-61" x="1150.830078"/>
     <use xlink:href="#DejaVuSans-73" x="1212.109375"/>
     <use xlink:href="#DejaVuSans-74" x="1264.208984"/>
     <use xlink:href="#DejaVuSans-29" x="1303.417969"/>
    </g>
   </g>
   <g id="legend_1">
    <g id="patch_7">
     <path d="M 2128.292188 123.75625 
L 2261 123.75625 
Q 2263 123.75625 2263 121.75625 
L 2263 93.4 
Q 2263 91.4 2261 91.4 
L 2128.292188 91.4 
Q 2126.292188 91.4 2126.292188 93.4 
L 2126.292188 121.75625 
Q 2126.292188 123.75625 2128.292188 123.75625 
z
" style="fill: #ffffff; opacity: 0.8; stroke: #cccccc; stroke-linejoin: miter"/>
    </g>
    <g id="line2d_18">
     <path d="M 2130.292188 99.498437 
L 2140.292188 99.498437 
L 2150.292188 99.498437 
" style="fill: none; stroke: #008000; stroke-linecap: square"/>
    </g>
    <g id="text_19">
     <!-- Original Time Series -->
     <g transform="translate(2158.292188 102.998437) scale(0.1 -0.1)">
      <defs>
       <path id="DejaVuSans-4f" d="M 2522 4238 
Q 1834 4238 1429 3725 
Q 1025 3213 1025 2328 
Q 1025 1447 1429 934 
Q 1834 422 2522 422 
Q 3209 422 3611 934 
Q 4013 1447 4013 2328 
Q 4013 3213 3611 3725 
Q 3209 4238 2522 4238 
z
M 2522 4750 
Q 3503 4750 4090 4092 
Q 4678 3434 4678 2328 
Q 4678 1225 4090 567 
Q 3503 -91 2522 -91 
Q 1538 -91 948 565 
Q 359 1222 359 2328 
Q 359 3434 948 4092 
Q 1538 4750 2522 4750 
z
" transform="scale(0.015625)"/>
       <path id="DejaVuSans-72" d="M 2631 2963 
Q 2534 3019 2420 3045 
Q 2306 3072 2169 3072 
Q 1681 3072 1420 2755 
Q 1159 2438 1159 1844 
L 1159 0 
L 581 0 
L 581 3500 
L 1159 3500 
L 1159 2956 
Q 1341 3275 1631 3429 
Q 1922 3584 2338 3584 
Q 2397 3584 2469 3576 
Q 2541 3569 2628 3553 
L 2631 2963 
z
" transform="scale(0.015625)"/>
       <path id="DejaVuSans-67" d="M 2906 1791 
Q 2906 2416 2648 2759 
Q 2391 3103 1925 3103 
Q 1463 3103 1205 2759 
Q 947 2416 947 1791 
Q 947 1169 1205 825 
Q 1463 481 1925 481 
Q 2391 481 2648 825 
Q 2906 1169 2906 1791 
z
M 3481 434 
Q 3481 -459 3084 -895 
Q 2688 -1331 1869 -1331 
Q 1566 -1331 1297 -1286 
Q 1028 -1241 775 -1147 
L 775 -588 
Q 1028 -725 1275 -790 
Q 1522 -856 1778 -856 
Q 2344 -856 2625 -561 
Q 2906 -266 2906 331 
L 2906 616 
Q 2728 306 2450 153 
Q 2172 0 1784 0 
Q 1141 0 747 490 
Q 353 981 353 1791 
Q 353 2603 747 3093 
Q 1141 3584 1784 3584 
Q 2172 3584 2450 3431 
Q 2728 3278 2906 2969 
L 2906 3500 
L 3481 3500 
L 3481 434 
z
" transform="scale(0.015625)"/>
       <path id="DejaVuSans-6e" d="M 3513 2113 
L 3513 0 
L 2938 0 
L 2938 2094 
Q 2938 2591 2744 2837 
Q 2550 3084 2163 3084 
Q 1697 3084 1428 2787 
Q 1159 2491 1159 1978 
L 1159 0 
L 581 0 
L 581 3500 
L 1159 3500 
L 1159 2956 
Q 1366 3272 1645 3428 
Q 1925 3584 2291 3584 
Q 2894 3584 3203 3211 
Q 3513 2838 3513 2113 
z
" transform="scale(0.015625)"/>
      </defs>
      <use xlink:href="#DejaVuSans-4f"/>
      <use xlink:href="#DejaVuSans-72" x="78.710938"/>
      <use xlink:href="#DejaVuSans-69" x="119.824219"/>
      <use xlink:href="#DejaVuSans-67" x="147.607422"/>
      <use xlink:href="#DejaVuSans-69" x="211.083984"/>
      <use xlink:href="#DejaVuSans-6e" x="238.867188"/>
      <use xlink:href="#DejaVuSans-61" x="302.246094"/>
      <use xlink:href="#DejaVuSans-6c" x="363.525391"/>
      <use xlink:href="#DejaVuSans-20" x="391.308594"/>
      <use xlink:href="#DejaVuSans-54" x="423.095703"/>
      <use xlink:href="#DejaVuSans-69" x="481.054688"/>
      <use xlink:href="#DejaVuSans-6d" x="508.837891"/>
      <use xlink:href="#DejaVuSans-65" x="606.25"/>
      <use xlink:href="#DejaVuSans-20" x="667.773438"/>
      <use xlink:href="#DejaVuSans-53" x="699.560547"/>
      <use xlink:href="#DejaVuSans-65" x="763.037109"/>
      <use xlink:href="#DejaVuSans-72" x="824.560547"/>
      <use xlink:href="#DejaVuSans-69" x="865.673828"/>
      <use xlink:href="#DejaVuSans-65" x="893.457031"/>
      <use xlink:href="#DejaVuSans-73" x="954.980469"/>
     </g>
    </g>
    <g id="line2d_19">
     <path d="M 2130.292188 114.176562 
L 2140.292188 114.176562 
L 2150.292188 114.176562 
" style="fill: none; stroke: #ff0000; stroke-width: 1.8; stroke-linecap: square"/>
    </g>
    <g id="text_20">
     <!-- Fitted Values -->
     <g transform="translate(2158.292188 117.676562) scale(0.1 -0.1)">
      <defs>
       <path id="DejaVuSans-46" d="M 628 4666 
L 3309 4666 
L 3309 4134 
L 1259 4134 
L 1259 2759 
L 3109 2759 
L 3109 2228 
L 1259 2228 
L 1259 0 
L 628 0 
L 628 4666 
z
" transform="scale(0.015625)"/>
       <path id="DejaVuSans-56" d="M 1831 0 
L 50 4666 
L 709 4666 
L 2188 738 
L 3669 4666 
L 4325 4666 
L 2547 0 
L 1831 0 
z
" transform="scale(0.015625)"/>
       <path id="DejaVuSans-75" d="M 544 1381 
L 544 3500 
L 1119 3500 
L 1119 1403 
Q 1119 906 1312 657 
Q 1506 409 1894 409 
Q 2359 409 2629 706 
Q 2900 1003 2900 1516 
L 2900 3500 
L 3475 3500 
L 3475 0 
L 2900 0 
L 2900 538 
Q 2691 219 2414 64 
Q 2138 -91 1772 -91 
Q 1169 -91 856 284 
Q 544 659 544 1381 
z
M 1991 3584 
L 1991 3584 
z
" transform="scale(0.015625)"/>
      </defs>
      <use xlink:href="#DejaVuSans-46"/>
      <use xlink:href="#DejaVuSans-69" x="50.269531"/>
      <use xlink:href="#DejaVuSans-74" x="78.052734"/>
      <use xlink:href="#DejaVuSans-74" x="117.261719"/>
      <use xlink:href="#DejaVuSans-65" x="156.470703"/>
      <use xlink:href="#DejaVuSans-64" x="217.994141"/>
      <use xlink:href="#DejaVuSans-20" x="281.470703"/>
      <use xlink:href="#DejaVuSans-56" x="313.257812"/>
      <use xlink:href="#DejaVuSans-61" x="373.916016"/>
      <use xlink:href="#DejaVuSans-6c" x="435.195312"/>
      <use xlink:href="#DejaVuSans-75" x="462.978516"/>
      <use xlink:href="#DejaVuSans-65" x="526.357422"/>
      <use xlink:href="#DejaVuSans-73" x="587.880859"/>
     </g>
    </g>
   </g>
  </g>
 </g>
 <defs>
  <clipPath id="p1b4ea60dce">
   <rect x="315" y="86.4" width="1953" height="554.4"/>
  </clipPath>
 </defs>
</svg>
