<?xml version="1.0" encoding="utf-8" standalone="no"?>
<!DOCTYPE svg PUBLIC "-//W3C//DTD SVG 1.1//EN"
  "http://www.w3.org/Graphics/SVG/1.1/DTD/svg11.dtd">
<svg xmlns:xlink="http://www.w3.org/1999/xlink" width="2520pt" height="720pt" viewBox="0 0 2520 720" xmlns="http://www.w3.org/2000/svg" version="1.1">
 <metadata>
  <rdf:RDF xmlns:dc="http://purl.org/dc/elements/1.1/" xmlns:cc="http://creativecommons.org/ns#" xmlns:rdf="http://www.w3.org/1999/02/22-rdf-syntax-ns#">
   <cc:Work>
    <dc:type rdf:resource="http://purl.org/dc/dcmitype/StillImage"/>
    <dc:date>2024-02-08T11:49:19.100990</dc:date>
    <dc:format>image/svg+xml</dc:format>
    <dc:creator>
     <cc:Agent>
      <dc:title>Matplotlib v3.7.1, https://matplotlib.org/</dc:title>
     </cc:Agent>
    </dc:creator>
   </cc:Work>
  </rdf:RDF>
 </metadata>
 <defs>
  <style type="text/css">*{stroke-linejoin: round; stroke-linecap: butt}</style>
 </defs>
 <g id="figure_1">
  <g id="patch_1">
   <path d="M 0 720 
L 2520 720 
L 2520 0 
L 0 0 
z
" style="fill: #ffffff"/>
  </g>
  <g id="axes_1">
   <g id="patch_2">
    <path d="M 315 640.8 
L 2268 640.8 
L 2268 86.4 
L 315 86.4 
z
" style="fill: #ffffff"/>
   </g>
   <g id="matplotlib.axis_1">
    <g id="xtick_1">
     <g id="line2d_1">
      <defs>
       <path id="m93a6dcd2ea" d="M 0 0 
L 0 3.5 
" style="stroke: #000000; stroke-width: 0.8"/>
      </defs>
      <g>
       <use xlink:href="#m93a6dcd2ea" x="520.719562" y="640.8" style="stroke: #000000; stroke-width: 0.8"/>
      </g>
     </g>
     <g id="text_1">
      <!-- 2012-04 -->
      <g transform="translate(489.382453 659.197656) scale(0.15 -0.15)">
       <defs>
        <path id="DejaVuSans-32" d="M 1228 531 
L 3431 531 
L 3431 0 
L 469 0 
L 469 531 
Q 828 903 1448 1529 
Q 2069 2156 2228 2338 
Q 2531 2678 2651 2914 
Q 2772 3150 2772 3378 
Q 2772 3750 2511 3984 
Q 2250 4219 1831 4219 
Q 1534 4219 1204 4116 
Q 875 4013 500 3803 
L 500 4441 
Q 881 4594 1212 4672 
Q 1544 4750 1819 4750 
Q 2544 4750 2975 4387 
Q 3406 4025 3406 3419 
Q 3406 3131 3298 2873 
Q 3191 2616 2906 2266 
Q 2828 2175 2409 1742 
Q 1991 1309 1228 531 
z
" transform="scale(0.015625)"/>
        <path id="DejaVuSans-30" d="M 2034 4250 
Q 1547 4250 1301 3770 
Q 1056 3291 1056 2328 
Q 1056 1369 1301 889 
Q 1547 409 2034 409 
Q 2525 409 2770 889 
Q 3016 1369 3016 2328 
Q 3016 3291 2770 3770 
Q 2525 4250 2034 4250 
z
M 2034 4750 
Q 2819 4750 3233 4129 
Q 3647 3509 3647 2328 
Q 3647 1150 3233 529 
Q 2819 -91 2034 -91 
Q 1250 -91 836 529 
Q 422 1150 422 2328 
Q 422 3509 836 4129 
Q 1250 4750 2034 4750 
z
" transform="scale(0.015625)"/>
        <path id="DejaVuSans-31" d="M 794 531 
L 1825 531 
L 1825 4091 
L 703 3866 
L 703 4441 
L 1819 4666 
L 2450 4666 
L 2450 531 
L 3481 531 
L 3481 0 
L 794 0 
L 794 531 
z
" transform="scale(0.015625)"/>
        <path id="DejaVuSans-2d" d="M 313 2009 
L 1997 2009 
L 1997 1497 
L 313 1497 
L 313 2009 
z
" transform="scale(0.015625)"/>
        <path id="DejaVuSans-34" d="M 2419 4116 
L 825 1625 
L 2419 1625 
L 2419 4116 
z
M 2253 4666 
L 3047 4666 
L 3047 1625 
L 3713 1625 
L 3713 1100 
L 3047 1100 
L 3047 0 
L 2419 0 
L 2419 1100 
L 313 1100 
L 313 1709 
L 2253 4666 
z
" transform="scale(0.015625)"/>
       </defs>
       <use xlink:href="#DejaVuSans-32"/>
       <use xlink:href="#DejaVuSans-30" x="63.623047"/>
       <use xlink:href="#DejaVuSans-31" x="127.246094"/>
       <use xlink:href="#DejaVuSans-32" x="190.869141"/>
       <use xlink:href="#DejaVuSans-2d" x="254.492188"/>
       <use xlink:href="#DejaVuSans-30" x="290.576172"/>
       <use xlink:href="#DejaVuSans-34" x="354.199219"/>
      </g>
     </g>
    </g>
    <g id="xtick_2">
     <g id="line2d_2">
      <g>
       <use xlink:href="#m93a6dcd2ea" x="763.842681" y="640.8" style="stroke: #000000; stroke-width: 0.8"/>
      </g>
     </g>
     <g id="text_2">
      <!-- 2012-07 -->
      <g transform="translate(732.505572 659.197656) scale(0.15 -0.15)">
       <defs>
        <path id="DejaVuSans-37" d="M 525 4666 
L 3525 4666 
L 3525 4397 
L 1831 0 
L 1172 0 
L 2766 4134 
L 525 4134 
L 525 4666 
z
" transform="scale(0.015625)"/>
       </defs>
       <use xlink:href="#DejaVuSans-32"/>
       <use xlink:href="#DejaVuSans-30" x="63.623047"/>
       <use xlink:href="#DejaVuSans-31" x="127.246094"/>
       <use xlink:href="#DejaVuSans-32" x="190.869141"/>
       <use xlink:href="#DejaVuSans-2d" x="254.492188"/>
       <use xlink:href="#DejaVuSans-30" x="290.576172"/>
       <use xlink:href="#DejaVuSans-37" x="354.199219"/>
      </g>
     </g>
    </g>
    <g id="xtick_3">
     <g id="line2d_3">
      <g>
       <use xlink:href="#m93a6dcd2ea" x="1009.637483" y="640.8" style="stroke: #000000; stroke-width: 0.8"/>
      </g>
     </g>
     <g id="text_3">
      <!-- 2012-10 -->
      <g transform="translate(978.300374 659.197656) scale(0.15 -0.15)">
       <use xlink:href="#DejaVuSans-32"/>
       <use xlink:href="#DejaVuSans-30" x="63.623047"/>
       <use xlink:href="#DejaVuSans-31" x="127.246094"/>
       <use xlink:href="#DejaVuSans-32" x="190.869141"/>
       <use xlink:href="#DejaVuSans-2d" x="254.492188"/>
       <use xlink:href="#DejaVuSans-31" x="290.576172"/>
       <use xlink:href="#DejaVuSans-30" x="354.199219"/>
      </g>
     </g>
    </g>
    <g id="xtick_4">
     <g id="line2d_4">
      <g>
       <use xlink:href="#m93a6dcd2ea" x="1255.432285" y="640.8" style="stroke: #000000; stroke-width: 0.8"/>
      </g>
     </g>
     <g id="text_4">
      <!-- 2013-01 -->
      <g transform="translate(1224.095175 659.197656) scale(0.15 -0.15)">
       <defs>
        <path id="DejaVuSans-33" d="M 2597 2516 
Q 3050 2419 3304 2112 
Q 3559 1806 3559 1356 
Q 3559 666 3084 287 
Q 2609 -91 1734 -91 
Q 1441 -91 1130 -33 
Q 819 25 488 141 
L 488 750 
Q 750 597 1062 519 
Q 1375 441 1716 441 
Q 2309 441 2620 675 
Q 2931 909 2931 1356 
Q 2931 1769 2642 2001 
Q 2353 2234 1838 2234 
L 1294 2234 
L 1294 2753 
L 1863 2753 
Q 2328 2753 2575 2939 
Q 2822 3125 2822 3475 
Q 2822 3834 2567 4026 
Q 2313 4219 1838 4219 
Q 1578 4219 1281 4162 
Q 984 4106 628 3988 
L 628 4550 
Q 988 4650 1302 4700 
Q 1616 4750 1894 4750 
Q 2613 4750 3031 4423 
Q 3450 4097 3450 3541 
Q 3450 3153 3228 2886 
Q 3006 2619 2597 2516 
z
" transform="scale(0.015625)"/>
       </defs>
       <use xlink:href="#DejaVuSans-32"/>
       <use xlink:href="#DejaVuSans-30" x="63.623047"/>
       <use xlink:href="#DejaVuSans-31" x="127.246094"/>
       <use xlink:href="#DejaVuSans-33" x="190.869141"/>
       <use xlink:href="#DejaVuSans-2d" x="254.492188"/>
       <use xlink:href="#DejaVuSans-30" x="290.576172"/>
       <use xlink:href="#DejaVuSans-31" x="354.199219"/>
      </g>
     </g>
    </g>
    <g id="xtick_5">
     <g id="line2d_5">
      <g>
       <use xlink:href="#m93a6dcd2ea" x="1495.883721" y="640.8" style="stroke: #000000; stroke-width: 0.8"/>
      </g>
     </g>
     <g id="text_5">
      <!-- 2013-04 -->
      <g transform="translate(1464.546612 659.197656) scale(0.15 -0.15)">
       <use xlink:href="#DejaVuSans-32"/>
       <use xlink:href="#DejaVuSans-30" x="63.623047"/>
       <use xlink:href="#DejaVuSans-31" x="127.246094"/>
       <use xlink:href="#DejaVuSans-33" x="190.869141"/>
       <use xlink:href="#DejaVuSans-2d" x="254.492188"/>
       <use xlink:href="#DejaVuSans-30" x="290.576172"/>
       <use xlink:href="#DejaVuSans-34" x="354.199219"/>
      </g>
     </g>
    </g>
    <g id="xtick_6">
     <g id="line2d_6">
      <g>
       <use xlink:href="#m93a6dcd2ea" x="1739.00684" y="640.8" style="stroke: #000000; stroke-width: 0.8"/>
      </g>
     </g>
     <g id="text_6">
      <!-- 2013-07 -->
      <g transform="translate(1707.669731 659.197656) scale(0.15 -0.15)">
       <use xlink:href="#DejaVuSans-32"/>
       <use xlink:href="#DejaVuSans-30" x="63.623047"/>
       <use xlink:href="#DejaVuSans-31" x="127.246094"/>
       <use xlink:href="#DejaVuSans-33" x="190.869141"/>
       <use xlink:href="#DejaVuSans-2d" x="254.492188"/>
       <use xlink:href="#DejaVuSans-30" x="290.576172"/>
       <use xlink:href="#DejaVuSans-37" x="354.199219"/>
      </g>
     </g>
    </g>
    <g id="xtick_7">
     <g id="line2d_7">
      <g>
       <use xlink:href="#m93a6dcd2ea" x="1984.801642" y="640.8" style="stroke: #000000; stroke-width: 0.8"/>
      </g>
     </g>
     <g id="text_7">
      <!-- 2013-10 -->
      <g transform="translate(1953.464532 659.197656) scale(0.15 -0.15)">
       <use xlink:href="#DejaVuSans-32"/>
       <use xlink:href="#DejaVuSans-30" x="63.623047"/>
       <use xlink:href="#DejaVuSans-31" x="127.246094"/>
       <use xlink:href="#DejaVuSans-33" x="190.869141"/>
       <use xlink:href="#DejaVuSans-2d" x="254.492188"/>
       <use xlink:href="#DejaVuSans-31" x="290.576172"/>
       <use xlink:href="#DejaVuSans-30" x="354.199219"/>
      </g>
     </g>
    </g>
    <g id="xtick_8">
     <g id="line2d_8">
      <g>
       <use xlink:href="#m93a6dcd2ea" x="2230.596443" y="640.8" style="stroke: #000000; stroke-width: 0.8"/>
      </g>
     </g>
     <g id="text_8">
      <!-- 2014-01 -->
      <g transform="translate(2199.259334 659.197656) scale(0.15 -0.15)">
       <use xlink:href="#DejaVuSans-32"/>
       <use xlink:href="#DejaVuSans-30" x="63.623047"/>
       <use xlink:href="#DejaVuSans-31" x="127.246094"/>
       <use xlink:href="#DejaVuSans-34" x="190.869141"/>
       <use xlink:href="#DejaVuSans-2d" x="254.492188"/>
       <use xlink:href="#DejaVuSans-30" x="290.576172"/>
       <use xlink:href="#DejaVuSans-31" x="354.199219"/>
      </g>
     </g>
    </g>
    <g id="text_9">
     <!-- Time -->
     <g transform="translate(1267.032813 681.514063) scale(0.2 -0.2)">
      <defs>
       <path id="DejaVuSans-54" d="M -19 4666 
L 3928 4666 
L 3928 4134 
L 2272 4134 
L 2272 0 
L 1638 0 
L 1638 4134 
L -19 4134 
L -19 4666 
z
" transform="scale(0.015625)"/>
       <path id="DejaVuSans-69" d="M 603 3500 
L 1178 3500 
L 1178 0 
L 603 0 
L 603 3500 
z
M 603 4863 
L 1178 4863 
L 1178 4134 
L 603 4134 
L 603 4863 
z
" transform="scale(0.015625)"/>
       <path id="DejaVuSans-6d" d="M 3328 2828 
Q 3544 3216 3844 3400 
Q 4144 3584 4550 3584 
Q 5097 3584 5394 3201 
Q 5691 2819 5691 2113 
L 5691 0 
L 5113 0 
L 5113 2094 
Q 5113 2597 4934 2840 
Q 4756 3084 4391 3084 
Q 3944 3084 3684 2787 
Q 3425 2491 3425 1978 
L 3425 0 
L 2847 0 
L 2847 2094 
Q 2847 2600 2669 2842 
Q 2491 3084 2119 3084 
Q 1678 3084 1418 2786 
Q 1159 2488 1159 1978 
L 1159 0 
L 581 0 
L 581 3500 
L 1159 3500 
L 1159 2956 
Q 1356 3278 1631 3431 
Q 1906 3584 2284 3584 
Q 2666 3584 2933 3390 
Q 3200 3197 3328 2828 
z
" transform="scale(0.015625)"/>
       <path id="DejaVuSans-65" d="M 3597 1894 
L 3597 1613 
L 953 1613 
Q 991 1019 1311 708 
Q 1631 397 2203 397 
Q 2534 397 2845 478 
Q 3156 559 3463 722 
L 3463 178 
Q 3153 47 2828 -22 
Q 2503 -91 2169 -91 
Q 1331 -91 842 396 
Q 353 884 353 1716 
Q 353 2575 817 3079 
Q 1281 3584 2069 3584 
Q 2775 3584 3186 3129 
Q 3597 2675 3597 1894 
z
M 3022 2063 
Q 3016 2534 2758 2815 
Q 2500 3097 2075 3097 
Q 1594 3097 1305 2825 
Q 1016 2553 972 2059 
L 3022 2063 
z
" transform="scale(0.015625)"/>
      </defs>
      <use xlink:href="#DejaVuSans-54"/>
      <use xlink:href="#DejaVuSans-69" x="57.958984"/>
      <use xlink:href="#DejaVuSans-6d" x="85.742188"/>
      <use xlink:href="#DejaVuSans-65" x="183.154297"/>
     </g>
    </g>
   </g>
   <g id="matplotlib.axis_2">
    <g id="ytick_1">
     <g id="line2d_9">
      <defs>
       <path id="me524100c42" d="M 0 0 
L -3.5 0 
" style="stroke: #000000; stroke-width: 0.8"/>
      </defs>
      <g>
       <use xlink:href="#me524100c42" x="315" y="640.8" style="stroke: #000000; stroke-width: 0.8"/>
      </g>
     </g>
     <g id="text_10">
      <!-- −0.00100 -->
      <g transform="translate(233.400781 646.498828) scale(0.15 -0.15)">
       <defs>
        <path id="DejaVuSans-2212" d="M 678 2272 
L 4684 2272 
L 4684 1741 
L 678 1741 
L 678 2272 
z
" transform="scale(0.015625)"/>
        <path id="DejaVuSans-2e" d="M 684 794 
L 1344 794 
L 1344 0 
L 684 0 
L 684 794 
z
" transform="scale(0.015625)"/>
       </defs>
       <use xlink:href="#DejaVuSans-2212"/>
       <use xlink:href="#DejaVuSans-30" x="83.789062"/>
       <use xlink:href="#DejaVuSans-2e" x="147.412109"/>
       <use xlink:href="#DejaVuSans-30" x="179.199219"/>
       <use xlink:href="#DejaVuSans-30" x="242.822266"/>
       <use xlink:href="#DejaVuSans-31" x="306.445312"/>
       <use xlink:href="#DejaVuSans-30" x="370.068359"/>
       <use xlink:href="#DejaVuSans-30" x="433.691406"/>
      </g>
     </g>
    </g>
    <g id="ytick_2">
     <g id="line2d_10">
      <g>
       <use xlink:href="#me524100c42" x="315" y="571.5" style="stroke: #000000; stroke-width: 0.8"/>
      </g>
     </g>
     <g id="text_11">
      <!-- −0.00075 -->
      <g transform="translate(233.400781 577.198828) scale(0.15 -0.15)">
       <defs>
        <path id="DejaVuSans-35" d="M 691 4666 
L 3169 4666 
L 3169 4134 
L 1269 4134 
L 1269 2991 
Q 1406 3038 1543 3061 
Q 1681 3084 1819 3084 
Q 2600 3084 3056 2656 
Q 3513 2228 3513 1497 
Q 3513 744 3044 326 
Q 2575 -91 1722 -91 
Q 1428 -91 1123 -41 
Q 819 9 494 109 
L 494 744 
Q 775 591 1075 516 
Q 1375 441 1709 441 
Q 2250 441 2565 725 
Q 2881 1009 2881 1497 
Q 2881 1984 2565 2268 
Q 2250 2553 1709 2553 
Q 1456 2553 1204 2497 
Q 953 2441 691 2322 
L 691 4666 
z
" transform="scale(0.015625)"/>
       </defs>
       <use xlink:href="#DejaVuSans-2212"/>
       <use xlink:href="#DejaVuSans-30" x="83.789062"/>
       <use xlink:href="#DejaVuSans-2e" x="147.412109"/>
       <use xlink:href="#DejaVuSans-30" x="179.199219"/>
       <use xlink:href="#DejaVuSans-30" x="242.822266"/>
       <use xlink:href="#DejaVuSans-30" x="306.445312"/>
       <use xlink:href="#DejaVuSans-37" x="370.068359"/>
       <use xlink:href="#DejaVuSans-35" x="433.691406"/>
      </g>
     </g>
    </g>
    <g id="ytick_3">
     <g id="line2d_11">
      <g>
       <use xlink:href="#me524100c42" x="315" y="502.2" style="stroke: #000000; stroke-width: 0.8"/>
      </g>
     </g>
     <g id="text_12">
      <!-- −0.00050 -->
      <g transform="translate(233.400781 507.898828) scale(0.15 -0.15)">
       <use xlink:href="#DejaVuSans-2212"/>
       <use xlink:href="#DejaVuSans-30" x="83.789062"/>
       <use xlink:href="#DejaVuSans-2e" x="147.412109"/>
       <use xlink:href="#DejaVuSans-30" x="179.199219"/>
       <use xlink:href="#DejaVuSans-30" x="242.822266"/>
       <use xlink:href="#DejaVuSans-30" x="306.445312"/>
       <use xlink:href="#DejaVuSans-35" x="370.068359"/>
       <use xlink:href="#DejaVuSans-30" x="433.691406"/>
      </g>
     </g>
    </g>
    <g id="ytick_4">
     <g id="line2d_12">
      <g>
       <use xlink:href="#me524100c42" x="315" y="432.9" style="stroke: #000000; stroke-width: 0.8"/>
      </g>
     </g>
     <g id="text_13">
      <!-- −0.00025 -->
      <g transform="translate(233.400781 438.598828) scale(0.15 -0.15)">
       <use xlink:href="#DejaVuSans-2212"/>
       <use xlink:href="#DejaVuSans-30" x="83.789062"/>
       <use xlink:href="#DejaVuSans-2e" x="147.412109"/>
       <use xlink:href="#DejaVuSans-30" x="179.199219"/>
       <use xlink:href="#DejaVuSans-30" x="242.822266"/>
       <use xlink:href="#DejaVuSans-30" x="306.445312"/>
       <use xlink:href="#DejaVuSans-32" x="370.068359"/>
       <use xlink:href="#DejaVuSans-35" x="433.691406"/>
      </g>
     </g>
    </g>
    <g id="ytick_5">
     <g id="line2d_13">
      <g>
       <use xlink:href="#me524100c42" x="315" y="363.6" style="stroke: #000000; stroke-width: 0.8"/>
      </g>
     </g>
     <g id="text_14">
      <!-- 0.00000 -->
      <g transform="translate(245.970313 369.298828) scale(0.15 -0.15)">
       <use xlink:href="#DejaVuSans-30"/>
       <use xlink:href="#DejaVuSans-2e" x="63.623047"/>
       <use xlink:href="#DejaVuSans-30" x="95.410156"/>
       <use xlink:href="#DejaVuSans-30" x="159.033203"/>
       <use xlink:href="#DejaVuSans-30" x="222.65625"/>
       <use xlink:href="#DejaVuSans-30" x="286.279297"/>
       <use xlink:href="#DejaVuSans-30" x="349.902344"/>
      </g>
     </g>
    </g>
    <g id="ytick_6">
     <g id="line2d_14">
      <g>
       <use xlink:href="#me524100c42" x="315" y="294.3" style="stroke: #000000; stroke-width: 0.8"/>
      </g>
     </g>
     <g id="text_15">
      <!-- 0.00025 -->
      <g transform="translate(245.970313 299.998828) scale(0.15 -0.15)">
       <use xlink:href="#DejaVuSans-30"/>
       <use xlink:href="#DejaVuSans-2e" x="63.623047"/>
       <use xlink:href="#DejaVuSans-30" x="95.410156"/>
       <use xlink:href="#DejaVuSans-30" x="159.033203"/>
       <use xlink:href="#DejaVuSans-30" x="222.65625"/>
       <use xlink:href="#DejaVuSans-32" x="286.279297"/>
       <use xlink:href="#DejaVuSans-35" x="349.902344"/>
      </g>
     </g>
    </g>
    <g id="ytick_7">
     <g id="line2d_15">
      <g>
       <use xlink:href="#me524100c42" x="315" y="225" style="stroke: #000000; stroke-width: 0.8"/>
      </g>
     </g>
     <g id="text_16">
      <!-- 0.00050 -->
      <g transform="translate(245.970313 230.698828) scale(0.15 -0.15)">
       <use xlink:href="#DejaVuSans-30"/>
       <use xlink:href="#DejaVuSans-2e" x="63.623047"/>
       <use xlink:href="#DejaVuSans-30" x="95.410156"/>
       <use xlink:href="#DejaVuSans-30" x="159.033203"/>
       <use xlink:href="#DejaVuSans-30" x="222.65625"/>
       <use xlink:href="#DejaVuSans-35" x="286.279297"/>
       <use xlink:href="#DejaVuSans-30" x="349.902344"/>
      </g>
     </g>
    </g>
    <g id="ytick_8">
     <g id="line2d_16">
      <g>
       <use xlink:href="#me524100c42" x="315" y="155.7" style="stroke: #000000; stroke-width: 0.8"/>
      </g>
     </g>
     <g id="text_17">
      <!-- 0.00075 -->
      <g transform="translate(245.970313 161.398828) scale(0.15 -0.15)">
       <use xlink:href="#DejaVuSans-30"/>
       <use xlink:href="#DejaVuSans-2e" x="63.623047"/>
       <use xlink:href="#DejaVuSans-30" x="95.410156"/>
       <use xlink:href="#DejaVuSans-30" x="159.033203"/>
       <use xlink:href="#DejaVuSans-30" x="222.65625"/>
       <use xlink:href="#DejaVuSans-37" x="286.279297"/>
       <use xlink:href="#DejaVuSans-35" x="349.902344"/>
      </g>
     </g>
    </g>
    <g id="ytick_9">
     <g id="line2d_17">
      <g>
       <use xlink:href="#me524100c42" x="315" y="86.4" style="stroke: #000000; stroke-width: 0.8"/>
      </g>
     </g>
     <g id="text_18">
      <!-- 0.00100 -->
      <g transform="translate(245.970313 92.098828) scale(0.15 -0.15)">
       <use xlink:href="#DejaVuSans-30"/>
       <use xlink:href="#DejaVuSans-2e" x="63.623047"/>
       <use xlink:href="#DejaVuSans-30" x="95.410156"/>
       <use xlink:href="#DejaVuSans-30" x="159.033203"/>
       <use xlink:href="#DejaVuSans-31" x="222.65625"/>
       <use xlink:href="#DejaVuSans-30" x="286.279297"/>
       <use xlink:href="#DejaVuSans-30" x="349.902344"/>
      </g>
     </g>
    </g>
    <g id="text_19">
     <!-- North(m) -->
     <g transform="translate(225.241406 409.1125) rotate(-90) scale(0.2 -0.2)">
      <defs>
       <path id="DejaVuSans-4e" d="M 628 4666 
L 1478 4666 
L 3547 763 
L 3547 4666 
L 4159 4666 
L 4159 0 
L 3309 0 
L 1241 3903 
L 1241 0 
L 628 0 
L 628 4666 
z
" transform="scale(0.015625)"/>
       <path id="DejaVuSans-6f" d="M 1959 3097 
Q 1497 3097 1228 2736 
Q 959 2375 959 1747 
Q 959 1119 1226 758 
Q 1494 397 1959 397 
Q 2419 397 2687 759 
Q 2956 1122 2956 1747 
Q 2956 2369 2687 2733 
Q 2419 3097 1959 3097 
z
M 1959 3584 
Q 2709 3584 3137 3096 
Q 3566 2609 3566 1747 
Q 3566 888 3137 398 
Q 2709 -91 1959 -91 
Q 1206 -91 779 398 
Q 353 888 353 1747 
Q 353 2609 779 3096 
Q 1206 3584 1959 3584 
z
" transform="scale(0.015625)"/>
       <path id="DejaVuSans-72" d="M 2631 2963 
Q 2534 3019 2420 3045 
Q 2306 3072 2169 3072 
Q 1681 3072 1420 2755 
Q 1159 2438 1159 1844 
L 1159 0 
L 581 0 
L 581 3500 
L 1159 3500 
L 1159 2956 
Q 1341 3275 1631 3429 
Q 1922 3584 2338 3584 
Q 2397 3584 2469 3576 
Q 2541 3569 2628 3553 
L 2631 2963 
z
" transform="scale(0.015625)"/>
       <path id="DejaVuSans-74" d="M 1172 4494 
L 1172 3500 
L 2356 3500 
L 2356 3053 
L 1172 3053 
L 1172 1153 
Q 1172 725 1289 603 
Q 1406 481 1766 481 
L 2356 481 
L 2356 0 
L 1766 0 
Q 1100 0 847 248 
Q 594 497 594 1153 
L 594 3053 
L 172 3053 
L 172 3500 
L 594 3500 
L 594 4494 
L 1172 4494 
z
" transform="scale(0.015625)"/>
       <path id="DejaVuSans-68" d="M 3513 2113 
L 3513 0 
L 2938 0 
L 2938 2094 
Q 2938 2591 2744 2837 
Q 2550 3084 2163 3084 
Q 1697 3084 1428 2787 
Q 1159 2491 1159 1978 
L 1159 0 
L 581 0 
L 581 4863 
L 1159 4863 
L 1159 2956 
Q 1366 3272 1645 3428 
Q 1925 3584 2291 3584 
Q 2894 3584 3203 3211 
Q 3513 2838 3513 2113 
z
" transform="scale(0.015625)"/>
       <path id="DejaVuSans-28" d="M 1984 4856 
Q 1566 4138 1362 3434 
Q 1159 2731 1159 2009 
Q 1159 1288 1364 580 
Q 1569 -128 1984 -844 
L 1484 -844 
Q 1016 -109 783 600 
Q 550 1309 550 2009 
Q 550 2706 781 3412 
Q 1013 4119 1484 4856 
L 1984 4856 
z
" transform="scale(0.015625)"/>
       <path id="DejaVuSans-29" d="M 513 4856 
L 1013 4856 
Q 1481 4119 1714 3412 
Q 1947 2706 1947 2009 
Q 1947 1309 1714 600 
Q 1481 -109 1013 -844 
L 513 -844 
Q 928 -128 1133 580 
Q 1338 1288 1338 2009 
Q 1338 2731 1133 3434 
Q 928 4138 513 4856 
z
" transform="scale(0.015625)"/>
      </defs>
      <use xlink:href="#DejaVuSans-4e"/>
      <use xlink:href="#DejaVuSans-6f" x="74.804688"/>
      <use xlink:href="#DejaVuSans-72" x="135.986328"/>
      <use xlink:href="#DejaVuSans-74" x="177.099609"/>
      <use xlink:href="#DejaVuSans-68" x="216.308594"/>
      <use xlink:href="#DejaVuSans-28" x="279.6875"/>
      <use xlink:href="#DejaVuSans-6d" x="318.701172"/>
      <use xlink:href="#DejaVuSans-29" x="416.113281"/>
     </g>
    </g>
   </g>
   <g id="line2d_18">
    <path d="M 312.328317 345.854582 
L 315 345.967886 
L 317.671683 180.962487 
L 320.343365 212.285476 
L 323.015048 382.291517 
L 325.686731 329.182185 
L 328.358413 338.752538 
L 331.030096 255.957269 
L 333.701778 283.293387 
L 336.373461 364.589333 
L 339.045144 391.413141 
L 341.716826 338.081355 
L 344.388509 405.37708 
L 347.060192 430.799325 
L 349.731874 301.650714 
L 352.403557 284.013758 
L 355.075239 271.163335 
L 357.746922 370.005642 
L 360.418605 423.544428 
L 363.090287 442.024872 
L 365.76197 427.939919 
L 368.433653 367.860981 
L 371.105335 289.014289 
L 373.777018 411.568869 
L 376.4487 329.307835 
L 379.120383 393.188444 
L 381.792066 368.058938 
L 384.463748 408.137452 
L 387.135431 410.851192 
L 389.807114 427.33411 
L 392.478796 374.344788 
L 395.150479 367.50869 
L 397.822161 277.308474 
L 400.493844 326.151981 
L 403.165527 380.195964 
L 405.837209 266.251182 
L 408.508892 262.865971 
L 411.180575 330.107124 
L 413.852257 255.151411 
L 419.195622 457.498117 
L 421.867305 391.582144 
L 424.538988 396.420584 
L 427.21067 488.204051 
L 429.882353 498.704509 
L 432.554036 497.790479 
L 435.225718 541.391931 
L 437.897401 452.949973 
L 440.569083 290.763426 
L 443.240766 273.992542 
L 445.912449 226.187454 
L 448.584131 363.41333 
L 451.255814 326.380304 
L 453.927497 318.975191 
L 456.599179 420.626946 
L 459.270862 405.487943 
L 461.942544 459.728858 
L 464.614227 432.455261 
L 467.28591 422.671488 
L 469.957592 395.522708 
L 472.629275 392.292347 
L 475.300958 392.573539 
L 477.97264 545.959989 
L 480.644323 544.555797 
L 483.316005 450.660041 
L 485.987688 384.81484 
L 488.659371 300.874281 
L 491.331053 342.61985 
L 494.002736 315.141267 
L 496.674419 253.820832 
L 499.346101 303.286222 
L 502.017784 295.13873 
L 504.689466 271.236774 
L 507.361149 322.240614 
L 510.032832 432.205253 
L 512.704514 402.080685 
L 515.376197 395.985772 
L 518.04788 262.760631 
L 520.719562 369.320761 
L 523.391245 382.557951 
L 526.062927 381.405698 
L 528.73461 404.000379 
L 531.406293 318.299687 
L 534.077975 309.670646 
L 536.749658 380.528191 
L 539.421341 385.818019 
L 542.093023 252.579802 
L 544.764706 243.146217 
L 547.436389 243.967379 
L 552.779754 243.902122 
L 555.451436 404.699371 
L 558.123119 325.987582 
L 560.794802 328.124997 
L 563.466484 329.979532 
L 566.138167 329.818101 
L 568.80985 329.832153 
L 571.481532 278.933342 
L 574.153215 266.198504 
L 576.824897 265.430938 
L 579.49658 189.236551 
L 582.168263 196.460701 
L 584.839945 262.845755 
L 587.511628 283.895019 
L 590.183311 209.510736 
L 592.854993 282.266047 
L 595.526676 415.351512 
L 598.198358 372.227022 
L 600.870041 364.17485 
L 603.541724 364.875765 
L 608.885089 364.820063 
L 622.243502 364.819638 
L 624.915185 454.886166 
L 627.586867 548.965535 
L 630.25855 556.449723 
L 632.930233 555.798249 
L 638.273598 555.850022 
L 648.960328 555.850417 
L 651.632011 345.916749 
L 654.303694 409.177679 
L 656.975376 415.278391 
L 659.647059 414.747345 
L 662.318741 414.793571 
L 664.990424 425.405903 
L 667.662107 425.882565 
L 670.333789 532.796015 
L 673.005472 539.814673 
L 675.677155 503.196779 
L 678.348837 552.690156 
L 681.02052 509.123868 
L 683.692202 502.962106 
L 686.363885 570.967231 
L 689.035568 435.28442 
L 691.70725 384.656887 
L 694.378933 258.439719 
L 697.050616 403.960036 
L 699.722298 499.848875 
L 702.393981 386.337948 
L 705.065663 431.248548 
L 707.737346 509.002039 
L 710.409029 516.586282 
L 713.080711 504.837773 
L 715.752394 434.84029 
L 718.424077 306.021347 
L 721.095759 358.41423 
L 723.767442 467.854558 
L 726.439124 416.988506 
L 729.110807 373.53846 
L 731.78249 268.221568 
L 734.454172 256.445183 
L 737.125855 325.04836 
L 739.797538 305.965338 
L 742.46922 302.001714 
L 745.140903 331.648484 
L 747.812585 333.931846 
L 750.484268 333.733087 
L 753.155951 270.126909 
L 755.827633 242.487899 
L 758.499316 240.450744 
L 761.170999 161.780163 
L 763.842681 354.937791 
L 766.514364 301.355288 
L 769.186047 292.724453 
L 771.857729 293.875516 
L 777.201094 293.784041 
L 782.54446 293.783348 
L 785.216142 243.915951 
L 787.887825 347.961746 
L 790.559508 299.794765 
L 793.23119 412.331822 
L 795.902873 427.156492 
L 798.574555 447.620142 
L 801.246238 506.833974 
L 803.917921 512.701625 
L 806.589603 512.190866 
L 809.261286 531.66277 
L 811.932969 399.167271 
L 814.604651 474.894991 
L 817.276334 481.09384 
L 819.948016 479.493018 
L 822.619699 347.106621 
L 825.291382 336.6385 
L 827.963064 407.265991 
L 830.634747 412.189483 
L 833.30643 499.527375 
L 835.978112 485.000958 
L 838.649795 396.87803 
L 841.321477 388.484362 
L 843.99316 338.882938 
L 846.664843 380.574202 
L 849.336525 439.466831 
L 852.008208 527.697982 
L 854.679891 537.129952 
L 857.351573 401.04777 
L 860.023256 409.856829 
L 862.694938 276.115011 
L 865.366621 259.909529 
L 868.038304 371.491274 
L 870.709986 380.030475 
L 873.381669 416.055914 
L 876.053352 313.452043 
L 878.725034 302.407089 
L 881.396717 372.689772 
L 884.068399 388.258876 
L 886.740082 472.445155 
L 889.411765 482.124558 
L 892.083447 462.555582 
L 894.75513 420.790419 
L 897.426813 364.061399 
L 900.098495 358.283867 
L 902.770178 358.786782 
L 905.44186 358.743005 
L 908.113543 335.347563 
L 910.785226 334.263145 
L 913.456908 493.984955 
L 916.128591 504.495547 
L 918.800274 503.580635 
L 924.143639 503.653343 
L 926.815321 495.335345 
L 929.487004 334.761294 
L 932.158687 269.800054 
L 934.830369 406.668961 
L 937.502052 431.142496 
L 940.173735 374.555764 
L 942.845417 470.696044 
L 945.5171 402.058699 
L 948.188782 456.6259 
L 950.860465 435.70354 
L 953.532148 302.711803 
L 956.20383 373.400769 
L 958.875513 326.885311 
L 961.547196 333.981369 
L 964.218878 251.95237 
L 966.890561 318.555436 
L 969.562244 428.541211 
L 972.233926 469.255394 
L 974.905609 335.084167 
L 977.577291 338.385267 
L 980.248974 310.223225 
L 982.920657 431.918387 
L 985.592339 358.812172 
L 988.264022 307.597773 
L 990.935705 336.865564 
L 993.607387 293.773915 
L 996.27907 275.892187 
L 998.950752 397.792284 
L 1001.622435 384.358672 
L 1004.294118 272.907 
L 1006.9658 374.047536 
L 1009.637483 388.815993 
L 1012.309166 406.762551 
L 1014.980848 494.848334 
L 1017.652531 503.790773 
L 1020.324213 503.012363 
L 1022.995896 503.080121 
L 1025.667579 338.281803 
L 1028.339261 330.724337 
L 1031.010944 331.382189 
L 1033.682627 279.163812 
L 1036.354309 366.873824 
L 1039.025992 396.550044 
L 1041.697674 274.767905 
L 1044.369357 402.901533 
L 1047.04104 434.041233 
L 1052.384405 433.966774 
L 1055.056088 519.920642 
L 1057.72777 374.96845 
L 1060.399453 326.239493 
L 1063.071135 247.387114 
L 1065.742818 357.58213 
L 1068.414501 342.42165 
L 1071.086183 322.51672 
L 1073.757866 321.146286 
L 1076.429549 321.265578 
L 1079.101231 484.85059 
L 1081.772914 371.120069 
L 1084.444596 285.084004 
L 1087.116279 374.093698 
L 1089.787962 338.278603 
L 1092.459644 340.11376 
L 1095.131327 296.72997 
L 1097.80301 341.060419 
L 1100.474692 437.727148 
L 1103.146375 464.565578 
L 1105.818057 355.297314 
L 1108.48974 257.65551 
L 1111.161423 283.825672 
L 1113.833105 270.177501 
L 1116.504788 248.323469 
L 1119.176471 281.396771 
L 1121.848153 235.251174 
L 1124.519836 252.306081 
L 1127.191518 357.297032 
L 1129.863201 368.730456 
L 1132.534884 269.060814 
L 1135.206566 316.203655 
L 1137.878249 304.185644 
L 1140.549932 401.327866 
L 1143.221614 515.100136 
L 1145.893297 526.246004 
L 1148.564979 371.077583 
L 1151.236662 419.876301 
L 1153.908345 398.13702 
L 1156.580027 417.492426 
L 1159.25171 337.9676 
L 1161.923393 303.051442 
L 1164.595075 224.602147 
L 1167.266758 215.592784 
L 1169.93844 216.377019 
L 1172.610123 240.022443 
L 1175.281806 260.719978 
L 1177.953488 379.744078 
L 1180.625171 393.050232 
L 1183.296854 391.891976 
L 1185.968536 268.806105 
L 1188.640219 173.74737 
L 1191.311902 325.892138 
L 1193.983584 344.968981 
L 1196.655267 343.308405 
L 1199.326949 460.305439 
L 1201.998632 444.86538 
L 1204.670315 498.597821 
L 1207.341997 405.954487 
L 1210.01368 393.528551 
L 1212.685363 394.610187 
L 1215.357045 374.968892 
L 1218.028728 422.552389 
L 1220.70041 376.94803 
L 1223.372093 338.658266 
L 1226.043776 359.384874 
L 1228.715458 357.741937 
L 1231.387141 356.88555 
L 1236.730506 356.953607 
L 1239.402189 269.211931 
L 1242.073871 309.377661 
L 1244.745554 430.915976 
L 1247.417237 399.446072 
L 1250.088919 269.590425 
L 1252.760602 292.499254 
L 1255.432285 371.931454 
L 1258.103967 353.557838 
L 1260.77565 253.717557 
L 1263.447332 242.508479 
L 1266.119015 396.420142 
L 1268.790698 300.724186 
L 1271.46238 288.363185 
L 1274.134063 289.439169 
L 1279.477428 289.353661 
L 1282.149111 226.005435 
L 1284.820793 423.941709 
L 1287.492476 518.337606 
L 1290.164159 449.415941 
L 1292.835841 337.004516 
L 1295.507524 344.283334 
L 1298.179207 347.549088 
L 1300.850889 343.702061 
L 1303.522572 330.62621 
L 1306.194254 440.408394 
L 1308.865937 453.484838 
L 1311.53762 497.610147 
L 1314.209302 426.678423 
L 1316.880985 455.011281 
L 1319.552668 446.770231 
L 1322.22435 432.123852 
L 1324.896033 430.77826 
L 1327.567715 430.895389 
L 1330.239398 372.894158 
L 1332.911081 329.472376 
L 1335.582763 325.834847 
L 1338.254446 326.151482 
L 1340.926129 326.12392 
L 1343.597811 187.653474 
L 1346.269494 365.80462 
L 1348.941176 311.701108 
L 1351.612859 302.000268 
L 1354.284542 302.844694 
L 1356.956224 239.621802 
L 1359.627907 288.365728 
L 1362.29959 367.696008 
L 1364.971272 375.698453 
L 1367.642955 476.310876 
L 1370.314637 484.315294 
L 1372.98632 382.464142 
L 1375.658003 455.686336 
L 1378.329685 464.565753 
L 1381.001368 463.79283 
L 1383.673051 272.125725 
L 1386.344733 261.108952 
L 1389.016416 262.067925 
L 1391.688098 354.096106 
L 1394.359781 246.799736 
L 1397.031464 235.616134 
L 1399.703146 236.589629 
L 1402.374829 275.126471 
L 1405.046512 372.058771 
L 1407.718194 285.455844 
L 1410.389877 390.22157 
L 1413.06156 346.473868 
L 1415.733242 312.124854 
L 1418.404925 345.355412 
L 1421.076607 458.221702 
L 1423.74829 339.456543 
L 1426.419973 327.250573 
L 1429.091655 429.978478 
L 1431.763338 350.500642 
L 1434.435021 319.711497 
L 1437.106703 384.663068 
L 1439.778386 372.492389 
L 1442.450068 279.379892 
L 1445.121751 312.669875 
L 1447.793434 313.295959 
L 1450.465116 311.634035 
L 1453.136799 394.701793 
L 1455.808482 391.517625 
L 1458.480164 380.919383 
L 1461.151847 380.152627 
L 1463.823529 380.219371 
L 1466.495212 421.743621 
L 1469.166895 424.175576 
L 1471.838577 524.860838 
L 1474.51026 459.549266 
L 1477.181943 443.764073 
L 1479.853625 346.226219 
L 1482.525308 312.832294 
L 1485.19699 364.221529 
L 1487.868673 390.949642 
L 1490.540356 392.817042 
L 1493.212038 392.654491 
L 1495.883721 328.981417 
L 1498.555404 349.651686 
L 1501.227086 275.945298 
L 1503.898769 266.933695 
L 1506.570451 328.994725 
L 1509.242134 412.792219 
L 1511.913817 392.45462 
L 1514.585499 379.972882 
L 1517.257182 308.271675 
L 1519.928865 429.951151 
L 1522.600547 422.099579 
L 1525.27223 499.196745 
L 1527.943912 378.501794 
L 1530.615595 361.863826 
L 1533.287278 502.268335 
L 1535.95896 340.795041 
L 1538.630643 342.511201 
L 1541.302326 407.964764 
L 1543.974008 332.646826 
L 1546.645691 283.53705 
L 1549.317373 344.039385 
L 1551.989056 401.563869 
L 1554.660739 335.45696 
L 1557.332421 330.05748 
L 1560.004104 354.015017 
L 1562.675787 386.701466 
L 1565.347469 366.434412 
L 1568.019152 341.025853 
L 1570.690834 377.127649 
L 1573.362517 358.705656 
L 1576.0342 274.376284 
L 1578.705882 264.894822 
L 1581.377565 258.077445 
L 1584.049248 257.402205 
L 1589.392613 257.455866 
L 1592.064295 267.813558 
L 1594.735978 268.267968 
L 1602.751026 268.231556 
L 1610.766074 268.23158 
L 1613.437756 522.680392 
L 1616.109439 528.754391 
L 1618.781122 528.225669 
L 1621.452804 274.996458 
L 1624.124487 347.380063 
L 1626.79617 394.969529 
L 1629.467852 336.852805 
L 1632.139535 408.026505 
L 1634.811218 321.372395 
L 1637.4829 301.013449 
L 1640.154583 270.026337 
L 1642.826265 236.722771 
L 1645.497948 233.491269 
L 1648.169631 420.636136 
L 1650.841313 435.375953 
L 1653.512996 240.22524 
L 1656.184679 404.532686 
L 1658.856361 317.170539 
L 1661.528044 349.832841 
L 1664.199726 315.610656 
L 1666.871409 419.292945 
L 1669.543092 317.550721 
L 1672.214774 356.815126 
L 1674.886457 257.102976 
L 1677.55814 243.451846 
L 1680.229822 190.117042 
L 1682.901505 252.036103 
L 1685.573187 350.865318 
L 1688.24487 405.805714 
L 1690.916553 420.986091 
L 1693.588235 404.800416 
L 1696.259918 363.184835 
L 1698.931601 358.619184 
L 1701.603283 222.595182 
L 1704.274966 397.476929 
L 1706.946648 417.925937 
L 1709.618331 447.180032 
L 1712.290014 449.733172 
L 1714.961696 449.51093 
L 1717.633379 281.855981 
L 1720.305062 311.070009 
L 1722.976744 315.570274 
L 1725.648427 315.178541 
L 1728.320109 420.457021 
L 1730.991792 365.30048 
L 1733.663475 472.471096 
L 1736.335157 431.538538 
L 1739.00684 299.014091 
L 1741.678523 401.183163 
L 1744.350205 499.017044 
L 1747.021888 324.4637 
L 1749.69357 369.160946 
L 1752.365253 379.28466 
L 1755.036936 382.37009 
L 1757.708618 406.693471 
L 1760.380301 409.174479 
L 1763.051984 478.167466 
L 1765.723666 483.534645 
L 1768.395349 368.50206 
L 1771.067031 320.737836 
L 1773.738714 316.892099 
L 1776.410397 317.127027 
L 1779.082079 213.012837 
L 1781.753762 204.838233 
L 1784.425445 212.633287 
L 1787.097127 161.110465 
L 1789.76881 155.737171 
L 1792.440492 156.204898 
L 1797.783858 156.167728 
L 1800.45554 406.676349 
L 1803.127223 411.625441 
L 1805.798906 410.3822 
L 1808.470588 410.49042 
L 1811.142271 534.624391 
L 1813.813953 541.645189 
L 1816.485636 271.796193 
L 1819.157319 238.019911 
L 1821.829001 164.825068 
L 1824.500684 334.728993 
L 1827.172367 356.759269 
L 1829.844049 220.635311 
L 1832.515732 266.853729 
L 1835.187415 250.330772 
L 1837.859097 167.653373 
L 1840.53078 158.45033 
L 1843.202462 348.23552 
L 1845.874145 363.086211 
L 1848.545828 489.591638 
L 1851.21751 404.967089 
L 1853.889193 394.517312 
L 1856.560876 395.42693 
L 1861.904241 395.354643 
L 1872.590971 395.354091 
L 1875.262654 399.678988 
L 1877.934337 399.77719 
L 1880.606019 380.769186 
L 1883.277702 425.780934 
L 1885.949384 398.400781 
L 1888.621067 313.116278 
L 1891.29275 376.345502 
L 1893.964432 385.881502 
L 1896.636115 385.051425 
L 1899.307798 410.102445 
L 1901.97948 343.833793 
L 1904.651163 308.636542 
L 1907.322845 340.258504 
L 1909.994528 357.731812 
L 1912.666211 414.634085 
L 1915.337893 456.568605 
L 1918.009576 388.172654 
L 1920.681259 258.34709 
L 1923.352941 269.746591 
L 1926.024624 365.575349 
L 1928.696306 445.192689 
L 1931.367989 452.572809 
L 1934.039672 451.930394 
L 1936.711354 259.633114 
L 1939.383037 381.282569 
L 1942.05472 334.180619 
L 1944.726402 405.847027 
L 1947.398085 321.850446 
L 1950.069767 371.295064 
L 1952.74145 282.463585 
L 1955.413133 410.383314 
L 1958.084815 374.371048 
L 1960.756498 289.528 
L 1963.428181 371.737613 
L 1966.099863 404.840643 
L 1968.771546 501.559213 
L 1971.443228 512.890018 
L 1974.114911 511.903709 
L 1976.786594 511.989564 
L 1979.458276 593.799034 
L 1982.129959 490.35643 
L 1984.801642 479.974416 
L 1987.473324 480.878136 
L 1990.145007 309.154579 
L 1992.816689 302.265436 
L 1995.488372 233.874964 
L 1998.160055 302.960759 
L 2000.831737 435.713027 
L 2003.50342 334.171877 
L 2006.175103 247.540413 
L 2008.846785 350.916893 
L 2011.518468 394.464649 
L 2014.19015 288.342182 
L 2016.861833 351.97813 
L 2019.533516 327.499049 
L 2022.205198 432.359099 
L 2024.876881 456.820333 
L 2027.548564 400.676572 
L 2030.220246 395.003926 
L 2032.891929 395.729101 
L 2035.563611 494.911962 
L 2038.235294 502.759614 
L 2040.906977 453.059177 
L 2043.578659 279.357927 
L 2046.250342 262.179658 
L 2048.922025 167.084716 
L 2051.593707 236.172608 
L 2054.26539 270.348441 
L 2056.937073 338.023011 
L 2059.608755 364.062792 
L 2062.280438 364.375143 
L 2064.95212 251.759345 
L 2067.623803 365.976857 
L 2070.295486 391.005101 
L 2072.967168 390.585978 
L 2075.638851 258.443025 
L 2078.310534 248.0048 
L 2080.982216 248.913413 
L 2083.653899 300.69623 
L 2086.325581 459.363138 
L 2088.997264 435.758726 
L 2091.668947 347.645893 
L 2094.340629 325.026214 
L 2097.012312 291.016853 
L 2099.683995 320.494009 
L 2102.355677 377.452286 
L 2105.02736 392.630241 
L 2107.699042 274.897227 
L 2110.370725 394.405438 
L 2113.042408 374.921411 
L 2115.71409 388.920915 
L 2118.385773 342.19176 
L 2121.057456 423.010211 
L 2123.729138 482.381165 
L 2126.400821 487.245577 
L 2129.072503 496.376288 
L 2131.744186 497.168075 
L 2134.415869 497.099152 
L 2137.087551 526.274137 
L 2139.759234 434.808009 
L 2142.430917 410.233865 
L 2145.102599 444.652676 
L 2147.774282 379.296595 
L 2150.445964 297.319374 
L 2153.117647 258.250809 
L 2155.78933 304.333147 
L 2158.461012 292.698061 
L 2161.132695 370.07081 
L 2163.804378 397.05307 
L 2166.47606 362.670484 
L 2169.147743 295.005513 
L 2171.819425 347.177096 
L 2174.491108 322.10784 
L 2177.162791 349.740669 
L 2179.834473 367.489289 
L 2182.506156 462.136842 
L 2185.177839 473.283253 
L 2187.849521 472.312995 
L 2190.521204 458.069681 
L 2193.192886 396.639729 
L 2195.864569 332.535006 
L 2198.536252 296.232344 
L 2201.207934 214.064464 
L 2203.879617 335.463841 
L 2206.5513 429.725308 
L 2209.222982 414.789393 
L 2211.894665 414.211508 
L 2214.566347 331.480108 
L 2217.23803 376.624845 
L 2219.909713 267.232588 
L 2222.581395 244.844066 
L 2225.253078 386.488715 
L 2227.924761 403.483021 
L 2230.596443 471.429073 
L 2233.268126 535.568751 
L 2235.939808 464.629357 
L 2238.611491 454.498543 
L 2241.283174 327.167947 
L 2243.954856 311.689859 
L 2246.626539 313.037175 
L 2249.298222 266.100773 
L 2251.969904 343.670799 
L 2254.641587 369.668158 
L 2257.313269 369.987214 
L 2259.984952 444.283499 
L 2262.656635 294.717795 
L 2265.328317 257.402434 
L 2268 210.638488 
L 2270.671683 205.079744 
L 2270.671683 205.079744 
" clip-path="url(#pb4d74442a6)" style="fill: none; stroke: #ff0000; stroke-width: 1.2; stroke-linecap: square"/>
   </g>
   <g id="patch_3">
    <path d="M 315 640.8 
L 315 86.4 
" style="fill: none; stroke: #000000; stroke-width: 0.8; stroke-linejoin: miter; stroke-linecap: square"/>
   </g>
   <g id="patch_4">
    <path d="M 2268 640.8 
L 2268 86.4 
" style="fill: none; stroke: #000000; stroke-width: 0.8; stroke-linejoin: miter; stroke-linecap: square"/>
   </g>
   <g id="patch_5">
    <path d="M 315 640.8 
L 2268 640.8 
" style="fill: none; stroke: #000000; stroke-width: 0.8; stroke-linejoin: miter; stroke-linecap: square"/>
   </g>
   <g id="patch_6">
    <path d="M 315 86.4 
L 2268 86.4 
" style="fill: none; stroke: #000000; stroke-width: 0.8; stroke-linejoin: miter; stroke-linecap: square"/>
   </g>
   <g id="text_20">
    <!-- Model ARIMA - BRSE (north) -->
    <g transform="translate(1151.840625 80.4) scale(0.2 -0.2)">
     <defs>
      <path id="DejaVuSans-4d" d="M 628 4666 
L 1569 4666 
L 2759 1491 
L 3956 4666 
L 4897 4666 
L 4897 0 
L 4281 0 
L 4281 4097 
L 3078 897 
L 2444 897 
L 1241 4097 
L 1241 0 
L 628 0 
L 628 4666 
z
" transform="scale(0.015625)"/>
      <path id="DejaVuSans-64" d="M 2906 2969 
L 2906 4863 
L 3481 4863 
L 3481 0 
L 2906 0 
L 2906 525 
Q 2725 213 2448 61 
Q 2172 -91 1784 -91 
Q 1150 -91 751 415 
Q 353 922 353 1747 
Q 353 2572 751 3078 
Q 1150 3584 1784 3584 
Q 2172 3584 2448 3432 
Q 2725 3281 2906 2969 
z
M 947 1747 
Q 947 1113 1208 752 
Q 1469 391 1925 391 
Q 2381 391 2643 752 
Q 2906 1113 2906 1747 
Q 2906 2381 2643 2742 
Q 2381 3103 1925 3103 
Q 1469 3103 1208 2742 
Q 947 2381 947 1747 
z
" transform="scale(0.015625)"/>
      <path id="DejaVuSans-6c" d="M 603 4863 
L 1178 4863 
L 1178 0 
L 603 0 
L 603 4863 
z
" transform="scale(0.015625)"/>
      <path id="DejaVuSans-20" transform="scale(0.015625)"/>
      <path id="DejaVuSans-41" d="M 2188 4044 
L 1331 1722 
L 3047 1722 
L 2188 4044 
z
M 1831 4666 
L 2547 4666 
L 4325 0 
L 3669 0 
L 3244 1197 
L 1141 1197 
L 716 0 
L 50 0 
L 1831 4666 
z
" transform="scale(0.015625)"/>
      <path id="DejaVuSans-52" d="M 2841 2188 
Q 3044 2119 3236 1894 
Q 3428 1669 3622 1275 
L 4263 0 
L 3584 0 
L 2988 1197 
Q 2756 1666 2539 1819 
Q 2322 1972 1947 1972 
L 1259 1972 
L 1259 0 
L 628 0 
L 628 4666 
L 2053 4666 
Q 2853 4666 3247 4331 
Q 3641 3997 3641 3322 
Q 3641 2881 3436 2590 
Q 3231 2300 2841 2188 
z
M 1259 4147 
L 1259 2491 
L 2053 2491 
Q 2509 2491 2742 2702 
Q 2975 2913 2975 3322 
Q 2975 3731 2742 3939 
Q 2509 4147 2053 4147 
L 1259 4147 
z
" transform="scale(0.015625)"/>
      <path id="DejaVuSans-49" d="M 628 4666 
L 1259 4666 
L 1259 0 
L 628 0 
L 628 4666 
z
" transform="scale(0.015625)"/>
      <path id="DejaVuSans-42" d="M 1259 2228 
L 1259 519 
L 2272 519 
Q 2781 519 3026 730 
Q 3272 941 3272 1375 
Q 3272 1813 3026 2020 
Q 2781 2228 2272 2228 
L 1259 2228 
z
M 1259 4147 
L 1259 2741 
L 2194 2741 
Q 2656 2741 2882 2914 
Q 3109 3088 3109 3444 
Q 3109 3797 2882 3972 
Q 2656 4147 2194 4147 
L 1259 4147 
z
M 628 4666 
L 2241 4666 
Q 2963 4666 3353 4366 
Q 3744 4066 3744 3513 
Q 3744 3084 3544 2831 
Q 3344 2578 2956 2516 
Q 3422 2416 3680 2098 
Q 3938 1781 3938 1306 
Q 3938 681 3513 340 
Q 3088 0 2303 0 
L 628 0 
L 628 4666 
z
" transform="scale(0.015625)"/>
      <path id="DejaVuSans-53" d="M 3425 4513 
L 3425 3897 
Q 3066 4069 2747 4153 
Q 2428 4238 2131 4238 
Q 1616 4238 1336 4038 
Q 1056 3838 1056 3469 
Q 1056 3159 1242 3001 
Q 1428 2844 1947 2747 
L 2328 2669 
Q 3034 2534 3370 2195 
Q 3706 1856 3706 1288 
Q 3706 609 3251 259 
Q 2797 -91 1919 -91 
Q 1588 -91 1214 -16 
Q 841 59 441 206 
L 441 856 
Q 825 641 1194 531 
Q 1563 422 1919 422 
Q 2459 422 2753 634 
Q 3047 847 3047 1241 
Q 3047 1584 2836 1778 
Q 2625 1972 2144 2069 
L 1759 2144 
Q 1053 2284 737 2584 
Q 422 2884 422 3419 
Q 422 4038 858 4394 
Q 1294 4750 2059 4750 
Q 2388 4750 2728 4690 
Q 3069 4631 3425 4513 
z
" transform="scale(0.015625)"/>
      <path id="DejaVuSans-45" d="M 628 4666 
L 3578 4666 
L 3578 4134 
L 1259 4134 
L 1259 2753 
L 3481 2753 
L 3481 2222 
L 1259 2222 
L 1259 531 
L 3634 531 
L 3634 0 
L 628 0 
L 628 4666 
z
" transform="scale(0.015625)"/>
      <path id="DejaVuSans-6e" d="M 3513 2113 
L 3513 0 
L 2938 0 
L 2938 2094 
Q 2938 2591 2744 2837 
Q 2550 3084 2163 3084 
Q 1697 3084 1428 2787 
Q 1159 2491 1159 1978 
L 1159 0 
L 581 0 
L 581 3500 
L 1159 3500 
L 1159 2956 
Q 1366 3272 1645 3428 
Q 1925 3584 2291 3584 
Q 2894 3584 3203 3211 
Q 3513 2838 3513 2113 
z
" transform="scale(0.015625)"/>
     </defs>
     <use xlink:href="#DejaVuSans-4d"/>
     <use xlink:href="#DejaVuSans-6f" x="86.279297"/>
     <use xlink:href="#DejaVuSans-64" x="147.460938"/>
     <use xlink:href="#DejaVuSans-65" x="210.9375"/>
     <use xlink:href="#DejaVuSans-6c" x="272.460938"/>
     <use xlink:href="#DejaVuSans-20" x="300.244141"/>
     <use xlink:href="#DejaVuSans-41" x="332.03125"/>
     <use xlink:href="#DejaVuSans-52" x="400.439453"/>
     <use xlink:href="#DejaVuSans-49" x="469.921875"/>
     <use xlink:href="#DejaVuSans-4d" x="499.414062"/>
     <use xlink:href="#DejaVuSans-41" x="585.693359"/>
     <use xlink:href="#DejaVuSans-20" x="654.101562"/>
     <use xlink:href="#DejaVuSans-2d" x="685.888672"/>
     <use xlink:href="#DejaVuSans-20" x="721.972656"/>
     <use xlink:href="#DejaVuSans-42" x="753.759766"/>
     <use xlink:href="#DejaVuSans-52" x="822.363281"/>
     <use xlink:href="#DejaVuSans-53" x="891.845703"/>
     <use xlink:href="#DejaVuSans-45" x="955.322266"/>
     <use xlink:href="#DejaVuSans-20" x="1018.505859"/>
     <use xlink:href="#DejaVuSans-28" x="1050.292969"/>
     <use xlink:href="#DejaVuSans-6e" x="1089.306641"/>
     <use xlink:href="#DejaVuSans-6f" x="1152.685547"/>
     <use xlink:href="#DejaVuSans-72" x="1213.867188"/>
     <use xlink:href="#DejaVuSans-74" x="1254.980469"/>
     <use xlink:href="#DejaVuSans-68" x="1294.189453"/>
     <use xlink:href="#DejaVuSans-29" x="1357.568359"/>
    </g>
   </g>
   <g id="legend_1">
    <g id="patch_7">
     <path d="M 2165.003125 109.078125 
L 2261 109.078125 
Q 2263 109.078125 2263 107.078125 
L 2263 93.4 
Q 2263 91.4 2261 91.4 
L 2165.003125 91.4 
Q 2163.003125 91.4 2163.003125 93.4 
L 2163.003125 107.078125 
Q 2163.003125 109.078125 2165.003125 109.078125 
z
" style="fill: #ffffff; opacity: 0.8; stroke: #cccccc; stroke-linejoin: miter"/>
    </g>
    <g id="line2d_19">
     <path d="M 2167.003125 99.498438 
L 2177.003125 99.498438 
L 2187.003125 99.498438 
" style="fill: none; stroke: #ff0000; stroke-width: 1.2; stroke-linecap: square"/>
    </g>
    <g id="text_21">
     <!-- Fitted Values -->
     <g transform="translate(2195.003125 102.998438) scale(0.1 -0.1)">
      <defs>
       <path id="DejaVuSans-46" d="M 628 4666 
L 3309 4666 
L 3309 4134 
L 1259 4134 
L 1259 2759 
L 3109 2759 
L 3109 2228 
L 1259 2228 
L 1259 0 
L 628 0 
L 628 4666 
z
" transform="scale(0.015625)"/>
       <path id="DejaVuSans-56" d="M 1831 0 
L 50 4666 
L 709 4666 
L 2188 738 
L 3669 4666 
L 4325 4666 
L 2547 0 
L 1831 0 
z
" transform="scale(0.015625)"/>
       <path id="DejaVuSans-61" d="M 2194 1759 
Q 1497 1759 1228 1600 
Q 959 1441 959 1056 
Q 959 750 1161 570 
Q 1363 391 1709 391 
Q 2188 391 2477 730 
Q 2766 1069 2766 1631 
L 2766 1759 
L 2194 1759 
z
M 3341 1997 
L 3341 0 
L 2766 0 
L 2766 531 
Q 2569 213 2275 61 
Q 1981 -91 1556 -91 
Q 1019 -91 701 211 
Q 384 513 384 1019 
Q 384 1609 779 1909 
Q 1175 2209 1959 2209 
L 2766 2209 
L 2766 2266 
Q 2766 2663 2505 2880 
Q 2244 3097 1772 3097 
Q 1472 3097 1187 3025 
Q 903 2953 641 2809 
L 641 3341 
Q 956 3463 1253 3523 
Q 1550 3584 1831 3584 
Q 2591 3584 2966 3190 
Q 3341 2797 3341 1997 
z
" transform="scale(0.015625)"/>
       <path id="DejaVuSans-75" d="M 544 1381 
L 544 3500 
L 1119 3500 
L 1119 1403 
Q 1119 906 1312 657 
Q 1506 409 1894 409 
Q 2359 409 2629 706 
Q 2900 1003 2900 1516 
L 2900 3500 
L 3475 3500 
L 3475 0 
L 2900 0 
L 2900 538 
Q 2691 219 2414 64 
Q 2138 -91 1772 -91 
Q 1169 -91 856 284 
Q 544 659 544 1381 
z
M 1991 3584 
L 1991 3584 
z
" transform="scale(0.015625)"/>
       <path id="DejaVuSans-73" d="M 2834 3397 
L 2834 2853 
Q 2591 2978 2328 3040 
Q 2066 3103 1784 3103 
Q 1356 3103 1142 2972 
Q 928 2841 928 2578 
Q 928 2378 1081 2264 
Q 1234 2150 1697 2047 
L 1894 2003 
Q 2506 1872 2764 1633 
Q 3022 1394 3022 966 
Q 3022 478 2636 193 
Q 2250 -91 1575 -91 
Q 1294 -91 989 -36 
Q 684 19 347 128 
L 347 722 
Q 666 556 975 473 
Q 1284 391 1588 391 
Q 1994 391 2212 530 
Q 2431 669 2431 922 
Q 2431 1156 2273 1281 
Q 2116 1406 1581 1522 
L 1381 1569 
Q 847 1681 609 1914 
Q 372 2147 372 2553 
Q 372 3047 722 3315 
Q 1072 3584 1716 3584 
Q 2034 3584 2315 3537 
Q 2597 3491 2834 3397 
z
" transform="scale(0.015625)"/>
      </defs>
      <use xlink:href="#DejaVuSans-46"/>
      <use xlink:href="#DejaVuSans-69" x="50.269531"/>
      <use xlink:href="#DejaVuSans-74" x="78.052734"/>
      <use xlink:href="#DejaVuSans-74" x="117.261719"/>
      <use xlink:href="#DejaVuSans-65" x="156.470703"/>
      <use xlink:href="#DejaVuSans-64" x="217.994141"/>
      <use xlink:href="#DejaVuSans-20" x="281.470703"/>
      <use xlink:href="#DejaVuSans-56" x="313.257812"/>
      <use xlink:href="#DejaVuSans-61" x="373.916016"/>
      <use xlink:href="#DejaVuSans-6c" x="435.195312"/>
      <use xlink:href="#DejaVuSans-75" x="462.978516"/>
      <use xlink:href="#DejaVuSans-65" x="526.357422"/>
      <use xlink:href="#DejaVuSans-73" x="587.880859"/>
     </g>
    </g>
   </g>
  </g>
 </g>
 <defs>
  <clipPath id="pb4d74442a6">
   <rect x="315" y="86.4" width="1953" height="554.4"/>
  </clipPath>
 </defs>
</svg>
