<?xml version="1.0" encoding="utf-8" standalone="no"?>
<!DOCTYPE svg PUBLIC "-//W3C//DTD SVG 1.1//EN"
  "http://www.w3.org/Graphics/SVG/1.1/DTD/svg11.dtd">
<svg xmlns:xlink="http://www.w3.org/1999/xlink" width="2520pt" height="720pt" viewBox="0 0 2520 720" xmlns="http://www.w3.org/2000/svg" version="1.1">
 <metadata>
  <rdf:RDF xmlns:dc="http://purl.org/dc/elements/1.1/" xmlns:cc="http://creativecommons.org/ns#" xmlns:rdf="http://www.w3.org/1999/02/22-rdf-syntax-ns#">
   <cc:Work>
    <dc:type rdf:resource="http://purl.org/dc/dcmitype/StillImage"/>
    <dc:date>2024-02-08T14:50:02.133555</dc:date>
    <dc:format>image/svg+xml</dc:format>
    <dc:creator>
     <cc:Agent>
      <dc:title>Matplotlib v3.7.1, https://matplotlib.org/</dc:title>
     </cc:Agent>
    </dc:creator>
   </cc:Work>
  </rdf:RDF>
 </metadata>
 <defs>
  <style type="text/css">*{stroke-linejoin: round; stroke-linecap: butt}</style>
 </defs>
 <g id="figure_1">
  <g id="patch_1">
   <path d="M 0 720 
L 2520 720 
L 2520 0 
L 0 0 
z
" style="fill: #ffffff"/>
  </g>
  <g id="axes_1">
   <g id="patch_2">
    <path d="M 315 640.8 
L 2268 640.8 
L 2268 86.4 
L 315 86.4 
z
" style="fill: #ffffff"/>
   </g>
   <g id="matplotlib.axis_1">
    <g id="xtick_1">
     <g id="line2d_1">
      <defs>
       <path id="mad5d8e16ab" d="M 0 0 
L 0 3.5 
" style="stroke: #000000; stroke-width: 0.8"/>
      </defs>
      <g>
       <use xlink:href="#mad5d8e16ab" x="520.719562" y="640.8" style="stroke: #000000; stroke-width: 0.8"/>
      </g>
     </g>
     <g id="text_1">
      <!-- 2012-04 -->
      <g transform="translate(489.382453 659.197656) scale(0.15 -0.15)">
       <defs>
        <path id="DejaVuSans-32" d="M 1228 531 
L 3431 531 
L 3431 0 
L 469 0 
L 469 531 
Q 828 903 1448 1529 
Q 2069 2156 2228 2338 
Q 2531 2678 2651 2914 
Q 2772 3150 2772 3378 
Q 2772 3750 2511 3984 
Q 2250 4219 1831 4219 
Q 1534 4219 1204 4116 
Q 875 4013 500 3803 
L 500 4441 
Q 881 4594 1212 4672 
Q 1544 4750 1819 4750 
Q 2544 4750 2975 4387 
Q 3406 4025 3406 3419 
Q 3406 3131 3298 2873 
Q 3191 2616 2906 2266 
Q 2828 2175 2409 1742 
Q 1991 1309 1228 531 
z
" transform="scale(0.015625)"/>
        <path id="DejaVuSans-30" d="M 2034 4250 
Q 1547 4250 1301 3770 
Q 1056 3291 1056 2328 
Q 1056 1369 1301 889 
Q 1547 409 2034 409 
Q 2525 409 2770 889 
Q 3016 1369 3016 2328 
Q 3016 3291 2770 3770 
Q 2525 4250 2034 4250 
z
M 2034 4750 
Q 2819 4750 3233 4129 
Q 3647 3509 3647 2328 
Q 3647 1150 3233 529 
Q 2819 -91 2034 -91 
Q 1250 -91 836 529 
Q 422 1150 422 2328 
Q 422 3509 836 4129 
Q 1250 4750 2034 4750 
z
" transform="scale(0.015625)"/>
        <path id="DejaVuSans-31" d="M 794 531 
L 1825 531 
L 1825 4091 
L 703 3866 
L 703 4441 
L 1819 4666 
L 2450 4666 
L 2450 531 
L 3481 531 
L 3481 0 
L 794 0 
L 794 531 
z
" transform="scale(0.015625)"/>
        <path id="DejaVuSans-2d" d="M 313 2009 
L 1997 2009 
L 1997 1497 
L 313 1497 
L 313 2009 
z
" transform="scale(0.015625)"/>
        <path id="DejaVuSans-34" d="M 2419 4116 
L 825 1625 
L 2419 1625 
L 2419 4116 
z
M 2253 4666 
L 3047 4666 
L 3047 1625 
L 3713 1625 
L 3713 1100 
L 3047 1100 
L 3047 0 
L 2419 0 
L 2419 1100 
L 313 1100 
L 313 1709 
L 2253 4666 
z
" transform="scale(0.015625)"/>
       </defs>
       <use xlink:href="#DejaVuSans-32"/>
       <use xlink:href="#DejaVuSans-30" x="63.623047"/>
       <use xlink:href="#DejaVuSans-31" x="127.246094"/>
       <use xlink:href="#DejaVuSans-32" x="190.869141"/>
       <use xlink:href="#DejaVuSans-2d" x="254.492188"/>
       <use xlink:href="#DejaVuSans-30" x="290.576172"/>
       <use xlink:href="#DejaVuSans-34" x="354.199219"/>
      </g>
     </g>
    </g>
    <g id="xtick_2">
     <g id="line2d_2">
      <g>
       <use xlink:href="#mad5d8e16ab" x="763.842681" y="640.8" style="stroke: #000000; stroke-width: 0.8"/>
      </g>
     </g>
     <g id="text_2">
      <!-- 2012-07 -->
      <g transform="translate(732.505572 659.197656) scale(0.15 -0.15)">
       <defs>
        <path id="DejaVuSans-37" d="M 525 4666 
L 3525 4666 
L 3525 4397 
L 1831 0 
L 1172 0 
L 2766 4134 
L 525 4134 
L 525 4666 
z
" transform="scale(0.015625)"/>
       </defs>
       <use xlink:href="#DejaVuSans-32"/>
       <use xlink:href="#DejaVuSans-30" x="63.623047"/>
       <use xlink:href="#DejaVuSans-31" x="127.246094"/>
       <use xlink:href="#DejaVuSans-32" x="190.869141"/>
       <use xlink:href="#DejaVuSans-2d" x="254.492188"/>
       <use xlink:href="#DejaVuSans-30" x="290.576172"/>
       <use xlink:href="#DejaVuSans-37" x="354.199219"/>
      </g>
     </g>
    </g>
    <g id="xtick_3">
     <g id="line2d_3">
      <g>
       <use xlink:href="#mad5d8e16ab" x="1009.637483" y="640.8" style="stroke: #000000; stroke-width: 0.8"/>
      </g>
     </g>
     <g id="text_3">
      <!-- 2012-10 -->
      <g transform="translate(978.300374 659.197656) scale(0.15 -0.15)">
       <use xlink:href="#DejaVuSans-32"/>
       <use xlink:href="#DejaVuSans-30" x="63.623047"/>
       <use xlink:href="#DejaVuSans-31" x="127.246094"/>
       <use xlink:href="#DejaVuSans-32" x="190.869141"/>
       <use xlink:href="#DejaVuSans-2d" x="254.492188"/>
       <use xlink:href="#DejaVuSans-31" x="290.576172"/>
       <use xlink:href="#DejaVuSans-30" x="354.199219"/>
      </g>
     </g>
    </g>
    <g id="xtick_4">
     <g id="line2d_4">
      <g>
       <use xlink:href="#mad5d8e16ab" x="1255.432285" y="640.8" style="stroke: #000000; stroke-width: 0.8"/>
      </g>
     </g>
     <g id="text_4">
      <!-- 2013-01 -->
      <g transform="translate(1224.095175 659.197656) scale(0.15 -0.15)">
       <defs>
        <path id="DejaVuSans-33" d="M 2597 2516 
Q 3050 2419 3304 2112 
Q 3559 1806 3559 1356 
Q 3559 666 3084 287 
Q 2609 -91 1734 -91 
Q 1441 -91 1130 -33 
Q 819 25 488 141 
L 488 750 
Q 750 597 1062 519 
Q 1375 441 1716 441 
Q 2309 441 2620 675 
Q 2931 909 2931 1356 
Q 2931 1769 2642 2001 
Q 2353 2234 1838 2234 
L 1294 2234 
L 1294 2753 
L 1863 2753 
Q 2328 2753 2575 2939 
Q 2822 3125 2822 3475 
Q 2822 3834 2567 4026 
Q 2313 4219 1838 4219 
Q 1578 4219 1281 4162 
Q 984 4106 628 3988 
L 628 4550 
Q 988 4650 1302 4700 
Q 1616 4750 1894 4750 
Q 2613 4750 3031 4423 
Q 3450 4097 3450 3541 
Q 3450 3153 3228 2886 
Q 3006 2619 2597 2516 
z
" transform="scale(0.015625)"/>
       </defs>
       <use xlink:href="#DejaVuSans-32"/>
       <use xlink:href="#DejaVuSans-30" x="63.623047"/>
       <use xlink:href="#DejaVuSans-31" x="127.246094"/>
       <use xlink:href="#DejaVuSans-33" x="190.869141"/>
       <use xlink:href="#DejaVuSans-2d" x="254.492188"/>
       <use xlink:href="#DejaVuSans-30" x="290.576172"/>
       <use xlink:href="#DejaVuSans-31" x="354.199219"/>
      </g>
     </g>
    </g>
    <g id="xtick_5">
     <g id="line2d_5">
      <g>
       <use xlink:href="#mad5d8e16ab" x="1495.883721" y="640.8" style="stroke: #000000; stroke-width: 0.8"/>
      </g>
     </g>
     <g id="text_5">
      <!-- 2013-04 -->
      <g transform="translate(1464.546612 659.197656) scale(0.15 -0.15)">
       <use xlink:href="#DejaVuSans-32"/>
       <use xlink:href="#DejaVuSans-30" x="63.623047"/>
       <use xlink:href="#DejaVuSans-31" x="127.246094"/>
       <use xlink:href="#DejaVuSans-33" x="190.869141"/>
       <use xlink:href="#DejaVuSans-2d" x="254.492188"/>
       <use xlink:href="#DejaVuSans-30" x="290.576172"/>
       <use xlink:href="#DejaVuSans-34" x="354.199219"/>
      </g>
     </g>
    </g>
    <g id="xtick_6">
     <g id="line2d_6">
      <g>
       <use xlink:href="#mad5d8e16ab" x="1739.00684" y="640.8" style="stroke: #000000; stroke-width: 0.8"/>
      </g>
     </g>
     <g id="text_6">
      <!-- 2013-07 -->
      <g transform="translate(1707.669731 659.197656) scale(0.15 -0.15)">
       <use xlink:href="#DejaVuSans-32"/>
       <use xlink:href="#DejaVuSans-30" x="63.623047"/>
       <use xlink:href="#DejaVuSans-31" x="127.246094"/>
       <use xlink:href="#DejaVuSans-33" x="190.869141"/>
       <use xlink:href="#DejaVuSans-2d" x="254.492188"/>
       <use xlink:href="#DejaVuSans-30" x="290.576172"/>
       <use xlink:href="#DejaVuSans-37" x="354.199219"/>
      </g>
     </g>
    </g>
    <g id="xtick_7">
     <g id="line2d_7">
      <g>
       <use xlink:href="#mad5d8e16ab" x="1984.801642" y="640.8" style="stroke: #000000; stroke-width: 0.8"/>
      </g>
     </g>
     <g id="text_7">
      <!-- 2013-10 -->
      <g transform="translate(1953.464532 659.197656) scale(0.15 -0.15)">
       <use xlink:href="#DejaVuSans-32"/>
       <use xlink:href="#DejaVuSans-30" x="63.623047"/>
       <use xlink:href="#DejaVuSans-31" x="127.246094"/>
       <use xlink:href="#DejaVuSans-33" x="190.869141"/>
       <use xlink:href="#DejaVuSans-2d" x="254.492188"/>
       <use xlink:href="#DejaVuSans-31" x="290.576172"/>
       <use xlink:href="#DejaVuSans-30" x="354.199219"/>
      </g>
     </g>
    </g>
    <g id="xtick_8">
     <g id="line2d_8">
      <g>
       <use xlink:href="#mad5d8e16ab" x="2230.596443" y="640.8" style="stroke: #000000; stroke-width: 0.8"/>
      </g>
     </g>
     <g id="text_8">
      <!-- 2014-01 -->
      <g transform="translate(2199.259334 659.197656) scale(0.15 -0.15)">
       <use xlink:href="#DejaVuSans-32"/>
       <use xlink:href="#DejaVuSans-30" x="63.623047"/>
       <use xlink:href="#DejaVuSans-31" x="127.246094"/>
       <use xlink:href="#DejaVuSans-34" x="190.869141"/>
       <use xlink:href="#DejaVuSans-2d" x="254.492188"/>
       <use xlink:href="#DejaVuSans-30" x="290.576172"/>
       <use xlink:href="#DejaVuSans-31" x="354.199219"/>
      </g>
     </g>
    </g>
    <g id="text_9">
     <!-- Time -->
     <g transform="translate(1267.032813 681.514063) scale(0.2 -0.2)">
      <defs>
       <path id="DejaVuSans-54" d="M -19 4666 
L 3928 4666 
L 3928 4134 
L 2272 4134 
L 2272 0 
L 1638 0 
L 1638 4134 
L -19 4134 
L -19 4666 
z
" transform="scale(0.015625)"/>
       <path id="DejaVuSans-69" d="M 603 3500 
L 1178 3500 
L 1178 0 
L 603 0 
L 603 3500 
z
M 603 4863 
L 1178 4863 
L 1178 4134 
L 603 4134 
L 603 4863 
z
" transform="scale(0.015625)"/>
       <path id="DejaVuSans-6d" d="M 3328 2828 
Q 3544 3216 3844 3400 
Q 4144 3584 4550 3584 
Q 5097 3584 5394 3201 
Q 5691 2819 5691 2113 
L 5691 0 
L 5113 0 
L 5113 2094 
Q 5113 2597 4934 2840 
Q 4756 3084 4391 3084 
Q 3944 3084 3684 2787 
Q 3425 2491 3425 1978 
L 3425 0 
L 2847 0 
L 2847 2094 
Q 2847 2600 2669 2842 
Q 2491 3084 2119 3084 
Q 1678 3084 1418 2786 
Q 1159 2488 1159 1978 
L 1159 0 
L 581 0 
L 581 3500 
L 1159 3500 
L 1159 2956 
Q 1356 3278 1631 3431 
Q 1906 3584 2284 3584 
Q 2666 3584 2933 3390 
Q 3200 3197 3328 2828 
z
" transform="scale(0.015625)"/>
       <path id="DejaVuSans-65" d="M 3597 1894 
L 3597 1613 
L 953 1613 
Q 991 1019 1311 708 
Q 1631 397 2203 397 
Q 2534 397 2845 478 
Q 3156 559 3463 722 
L 3463 178 
Q 3153 47 2828 -22 
Q 2503 -91 2169 -91 
Q 1331 -91 842 396 
Q 353 884 353 1716 
Q 353 2575 817 3079 
Q 1281 3584 2069 3584 
Q 2775 3584 3186 3129 
Q 3597 2675 3597 1894 
z
M 3022 2063 
Q 3016 2534 2758 2815 
Q 2500 3097 2075 3097 
Q 1594 3097 1305 2825 
Q 1016 2553 972 2059 
L 3022 2063 
z
" transform="scale(0.015625)"/>
      </defs>
      <use xlink:href="#DejaVuSans-54"/>
      <use xlink:href="#DejaVuSans-69" x="57.958984"/>
      <use xlink:href="#DejaVuSans-6d" x="85.742188"/>
      <use xlink:href="#DejaVuSans-65" x="183.154297"/>
     </g>
    </g>
   </g>
   <g id="matplotlib.axis_2">
    <g id="ytick_1">
     <g id="line2d_9">
      <defs>
       <path id="m51052a5092" d="M 0 0 
L -3.5 0 
" style="stroke: #000000; stroke-width: 0.8"/>
      </defs>
      <g>
       <use xlink:href="#m51052a5092" x="315" y="640.8" style="stroke: #000000; stroke-width: 0.8"/>
      </g>
     </g>
     <g id="text_10">
      <!-- −0.004 -->
      <g transform="translate(252.488281 646.498828) scale(0.15 -0.15)">
       <defs>
        <path id="DejaVuSans-2212" d="M 678 2272 
L 4684 2272 
L 4684 1741 
L 678 1741 
L 678 2272 
z
" transform="scale(0.015625)"/>
        <path id="DejaVuSans-2e" d="M 684 794 
L 1344 794 
L 1344 0 
L 684 0 
L 684 794 
z
" transform="scale(0.015625)"/>
       </defs>
       <use xlink:href="#DejaVuSans-2212"/>
       <use xlink:href="#DejaVuSans-30" x="83.789062"/>
       <use xlink:href="#DejaVuSans-2e" x="147.412109"/>
       <use xlink:href="#DejaVuSans-30" x="179.199219"/>
       <use xlink:href="#DejaVuSans-30" x="242.822266"/>
       <use xlink:href="#DejaVuSans-34" x="306.445312"/>
      </g>
     </g>
    </g>
    <g id="ytick_2">
     <g id="line2d_10">
      <g>
       <use xlink:href="#m51052a5092" x="315" y="571.5" style="stroke: #000000; stroke-width: 0.8"/>
      </g>
     </g>
     <g id="text_11">
      <!-- −0.003 -->
      <g transform="translate(252.488281 577.198828) scale(0.15 -0.15)">
       <use xlink:href="#DejaVuSans-2212"/>
       <use xlink:href="#DejaVuSans-30" x="83.789062"/>
       <use xlink:href="#DejaVuSans-2e" x="147.412109"/>
       <use xlink:href="#DejaVuSans-30" x="179.199219"/>
       <use xlink:href="#DejaVuSans-30" x="242.822266"/>
       <use xlink:href="#DejaVuSans-33" x="306.445312"/>
      </g>
     </g>
    </g>
    <g id="ytick_3">
     <g id="line2d_11">
      <g>
       <use xlink:href="#m51052a5092" x="315" y="502.2" style="stroke: #000000; stroke-width: 0.8"/>
      </g>
     </g>
     <g id="text_12">
      <!-- −0.002 -->
      <g transform="translate(252.488281 507.898828) scale(0.15 -0.15)">
       <use xlink:href="#DejaVuSans-2212"/>
       <use xlink:href="#DejaVuSans-30" x="83.789062"/>
       <use xlink:href="#DejaVuSans-2e" x="147.412109"/>
       <use xlink:href="#DejaVuSans-30" x="179.199219"/>
       <use xlink:href="#DejaVuSans-30" x="242.822266"/>
       <use xlink:href="#DejaVuSans-32" x="306.445312"/>
      </g>
     </g>
    </g>
    <g id="ytick_4">
     <g id="line2d_12">
      <g>
       <use xlink:href="#m51052a5092" x="315" y="432.9" style="stroke: #000000; stroke-width: 0.8"/>
      </g>
     </g>
     <g id="text_13">
      <!-- −0.001 -->
      <g transform="translate(252.488281 438.598828) scale(0.15 -0.15)">
       <use xlink:href="#DejaVuSans-2212"/>
       <use xlink:href="#DejaVuSans-30" x="83.789062"/>
       <use xlink:href="#DejaVuSans-2e" x="147.412109"/>
       <use xlink:href="#DejaVuSans-30" x="179.199219"/>
       <use xlink:href="#DejaVuSans-30" x="242.822266"/>
       <use xlink:href="#DejaVuSans-31" x="306.445312"/>
      </g>
     </g>
    </g>
    <g id="ytick_5">
     <g id="line2d_13">
      <g>
       <use xlink:href="#m51052a5092" x="315" y="363.6" style="stroke: #000000; stroke-width: 0.8"/>
      </g>
     </g>
     <g id="text_14">
      <!-- 0.000 -->
      <g transform="translate(265.057813 369.298828) scale(0.15 -0.15)">
       <use xlink:href="#DejaVuSans-30"/>
       <use xlink:href="#DejaVuSans-2e" x="63.623047"/>
       <use xlink:href="#DejaVuSans-30" x="95.410156"/>
       <use xlink:href="#DejaVuSans-30" x="159.033203"/>
       <use xlink:href="#DejaVuSans-30" x="222.65625"/>
      </g>
     </g>
    </g>
    <g id="ytick_6">
     <g id="line2d_14">
      <g>
       <use xlink:href="#m51052a5092" x="315" y="294.3" style="stroke: #000000; stroke-width: 0.8"/>
      </g>
     </g>
     <g id="text_15">
      <!-- 0.001 -->
      <g transform="translate(265.057813 299.998828) scale(0.15 -0.15)">
       <use xlink:href="#DejaVuSans-30"/>
       <use xlink:href="#DejaVuSans-2e" x="63.623047"/>
       <use xlink:href="#DejaVuSans-30" x="95.410156"/>
       <use xlink:href="#DejaVuSans-30" x="159.033203"/>
       <use xlink:href="#DejaVuSans-31" x="222.65625"/>
      </g>
     </g>
    </g>
    <g id="ytick_7">
     <g id="line2d_15">
      <g>
       <use xlink:href="#m51052a5092" x="315" y="225" style="stroke: #000000; stroke-width: 0.8"/>
      </g>
     </g>
     <g id="text_16">
      <!-- 0.002 -->
      <g transform="translate(265.057813 230.698828) scale(0.15 -0.15)">
       <use xlink:href="#DejaVuSans-30"/>
       <use xlink:href="#DejaVuSans-2e" x="63.623047"/>
       <use xlink:href="#DejaVuSans-30" x="95.410156"/>
       <use xlink:href="#DejaVuSans-30" x="159.033203"/>
       <use xlink:href="#DejaVuSans-32" x="222.65625"/>
      </g>
     </g>
    </g>
    <g id="ytick_8">
     <g id="line2d_16">
      <g>
       <use xlink:href="#m51052a5092" x="315" y="155.7" style="stroke: #000000; stroke-width: 0.8"/>
      </g>
     </g>
     <g id="text_17">
      <!-- 0.003 -->
      <g transform="translate(265.057813 161.398828) scale(0.15 -0.15)">
       <use xlink:href="#DejaVuSans-30"/>
       <use xlink:href="#DejaVuSans-2e" x="63.623047"/>
       <use xlink:href="#DejaVuSans-30" x="95.410156"/>
       <use xlink:href="#DejaVuSans-30" x="159.033203"/>
       <use xlink:href="#DejaVuSans-33" x="222.65625"/>
      </g>
     </g>
    </g>
    <g id="ytick_9">
     <g id="line2d_17">
      <g>
       <use xlink:href="#m51052a5092" x="315" y="86.4" style="stroke: #000000; stroke-width: 0.8"/>
      </g>
     </g>
     <g id="text_18">
      <!-- 0.004 -->
      <g transform="translate(265.057813 92.098828) scale(0.15 -0.15)">
       <use xlink:href="#DejaVuSans-30"/>
       <use xlink:href="#DejaVuSans-2e" x="63.623047"/>
       <use xlink:href="#DejaVuSans-30" x="95.410156"/>
       <use xlink:href="#DejaVuSans-30" x="159.033203"/>
       <use xlink:href="#DejaVuSans-34" x="222.65625"/>
      </g>
     </g>
    </g>
    <g id="text_19">
     <!-- East(m) -->
     <g transform="translate(244.328906 402.720312) rotate(-90) scale(0.2 -0.2)">
      <defs>
       <path id="DejaVuSans-45" d="M 628 4666 
L 3578 4666 
L 3578 4134 
L 1259 4134 
L 1259 2753 
L 3481 2753 
L 3481 2222 
L 1259 2222 
L 1259 531 
L 3634 531 
L 3634 0 
L 628 0 
L 628 4666 
z
" transform="scale(0.015625)"/>
       <path id="DejaVuSans-61" d="M 2194 1759 
Q 1497 1759 1228 1600 
Q 959 1441 959 1056 
Q 959 750 1161 570 
Q 1363 391 1709 391 
Q 2188 391 2477 730 
Q 2766 1069 2766 1631 
L 2766 1759 
L 2194 1759 
z
M 3341 1997 
L 3341 0 
L 2766 0 
L 2766 531 
Q 2569 213 2275 61 
Q 1981 -91 1556 -91 
Q 1019 -91 701 211 
Q 384 513 384 1019 
Q 384 1609 779 1909 
Q 1175 2209 1959 2209 
L 2766 2209 
L 2766 2266 
Q 2766 2663 2505 2880 
Q 2244 3097 1772 3097 
Q 1472 3097 1187 3025 
Q 903 2953 641 2809 
L 641 3341 
Q 956 3463 1253 3523 
Q 1550 3584 1831 3584 
Q 2591 3584 2966 3190 
Q 3341 2797 3341 1997 
z
" transform="scale(0.015625)"/>
       <path id="DejaVuSans-73" d="M 2834 3397 
L 2834 2853 
Q 2591 2978 2328 3040 
Q 2066 3103 1784 3103 
Q 1356 3103 1142 2972 
Q 928 2841 928 2578 
Q 928 2378 1081 2264 
Q 1234 2150 1697 2047 
L 1894 2003 
Q 2506 1872 2764 1633 
Q 3022 1394 3022 966 
Q 3022 478 2636 193 
Q 2250 -91 1575 -91 
Q 1294 -91 989 -36 
Q 684 19 347 128 
L 347 722 
Q 666 556 975 473 
Q 1284 391 1588 391 
Q 1994 391 2212 530 
Q 2431 669 2431 922 
Q 2431 1156 2273 1281 
Q 2116 1406 1581 1522 
L 1381 1569 
Q 847 1681 609 1914 
Q 372 2147 372 2553 
Q 372 3047 722 3315 
Q 1072 3584 1716 3584 
Q 2034 3584 2315 3537 
Q 2597 3491 2834 3397 
z
" transform="scale(0.015625)"/>
       <path id="DejaVuSans-74" d="M 1172 4494 
L 1172 3500 
L 2356 3500 
L 2356 3053 
L 1172 3053 
L 1172 1153 
Q 1172 725 1289 603 
Q 1406 481 1766 481 
L 2356 481 
L 2356 0 
L 1766 0 
Q 1100 0 847 248 
Q 594 497 594 1153 
L 594 3053 
L 172 3053 
L 172 3500 
L 594 3500 
L 594 4494 
L 1172 4494 
z
" transform="scale(0.015625)"/>
       <path id="DejaVuSans-28" d="M 1984 4856 
Q 1566 4138 1362 3434 
Q 1159 2731 1159 2009 
Q 1159 1288 1364 580 
Q 1569 -128 1984 -844 
L 1484 -844 
Q 1016 -109 783 600 
Q 550 1309 550 2009 
Q 550 2706 781 3412 
Q 1013 4119 1484 4856 
L 1984 4856 
z
" transform="scale(0.015625)"/>
       <path id="DejaVuSans-29" d="M 513 4856 
L 1013 4856 
Q 1481 4119 1714 3412 
Q 1947 2706 1947 2009 
Q 1947 1309 1714 600 
Q 1481 -109 1013 -844 
L 513 -844 
Q 928 -128 1133 580 
Q 1338 1288 1338 2009 
Q 1338 2731 1133 3434 
Q 928 4138 513 4856 
z
" transform="scale(0.015625)"/>
      </defs>
      <use xlink:href="#DejaVuSans-45"/>
      <use xlink:href="#DejaVuSans-61" x="63.183594"/>
      <use xlink:href="#DejaVuSans-73" x="124.462891"/>
      <use xlink:href="#DejaVuSans-74" x="176.5625"/>
      <use xlink:href="#DejaVuSans-28" x="215.771484"/>
      <use xlink:href="#DejaVuSans-6d" x="254.785156"/>
      <use xlink:href="#DejaVuSans-29" x="352.197266"/>
     </g>
    </g>
   </g>
   <g id="line2d_18">
    <path d="M 312.328317 409.228693 
L 315 409.12317 
L 317.671683 409.139818 
L 320.343365 292.550099 
L 323.015048 310.343842 
L 325.686731 314.601229 
L 328.358413 313.929575 
L 331.030096 314.035537 
L 333.701778 314.01882 
L 336.373461 413.545044 
L 339.045144 363.289228 
L 341.716826 340.16487 
L 344.388509 291.270737 
L 347.060192 258.688717 
L 349.731874 388.039654 
L 352.403557 353.036751 
L 355.075239 322.841708 
L 357.746922 315.575854 
L 360.418605 330.327732 
L 363.090287 406.766204 
L 365.76197 371.352774 
L 368.433653 315.524489 
L 371.105335 309.455492 
L 373.777018 261.115287 
L 376.4487 268.978129 
L 379.120383 381.305555 
L 381.792066 370.597965 
L 384.463748 407.12464 
L 387.135431 348.853678 
L 389.807114 422.765313 
L 392.478796 424.408161 
L 395.150479 350.512182 
L 397.822161 413.708898 
L 400.493844 427.425145 
L 403.165527 425.261242 
L 405.837209 292.562411 
L 408.508892 240.785202 
L 411.180575 281.70198 
L 413.852257 379.731131 
L 416.52394 393.157368 
L 419.195622 424.759644 
L 421.867305 449.078569 
L 424.538988 451.544234 
L 427.21067 285.017788 
L 429.882353 263.166705 
L 432.554036 257.066085 
L 435.225718 409.792299 
L 437.897401 435.207809 
L 440.569083 431.198207 
L 443.240766 461.800283 
L 445.912449 359.375558 
L 448.584131 344.389996 
L 451.255814 346.754148 
L 453.927497 339.164288 
L 456.599179 250.535083 
L 459.270862 277.75783 
L 461.942544 331.828268 
L 464.614227 351.957954 
L 467.28591 353.269605 
L 469.957592 243.472844 
L 472.629275 398.572468 
L 475.300958 424.404775 
L 477.97264 428.865546 
L 480.644323 288.481329 
L 483.316005 267.571206 
L 485.987688 270.870029 
L 488.659371 303.8043 
L 491.331053 306.178309 
L 494.002736 314.776581 
L 496.674419 429.467963 
L 499.346101 436.52492 
L 502.017784 432.486086 
L 504.689466 433.123261 
L 507.361149 466.483806 
L 510.032832 516.406862 
L 512.704514 341.750141 
L 515.376197 288.352911 
L 518.04788 289.28634 
L 520.719562 230.143189 
L 523.391245 319.159824 
L 526.062927 304.704098 
L 528.73461 261.430001 
L 531.406293 351.8068 
L 534.077975 368.873801 
L 536.749658 306.264165 
L 539.421341 362.348192 
L 542.093023 435.835935 
L 544.764706 443.931995 
L 547.436389 472.103634 
L 550.108071 384.005658 
L 552.779754 418.093697 
L 555.451436 491.69633 
L 558.123119 380.390531 
L 560.794802 401.886665 
L 563.466484 412.163532 
L 566.138167 283.508254 
L 568.80985 298.871753 
L 571.481532 263.349898 
L 574.153215 363.665398 
L 576.824897 382.485902 
L 579.49658 381.582928 
L 582.168263 462.039784 
L 584.839945 428.190984 
L 587.511628 419.047479 
L 590.183311 420.489977 
L 592.854993 243.276731 
L 595.526676 281.933726 
L 598.198358 416.140683 
L 600.870041 434.805786 
L 603.541724 431.861141 
L 606.213406 432.325694 
L 608.885089 432.252405 
L 611.556772 272.284502 
L 614.228454 265.295854 
L 616.900137 266.398397 
L 619.571819 322.756016 
L 622.243502 410.617387 
L 624.915185 321.261586 
L 627.586867 422.572901 
L 630.25855 444.840999 
L 632.930233 441.327939 
L 635.601915 441.882167 
L 638.273598 398.755542 
L 640.94528 396.468576 
L 643.616963 475.887325 
L 646.288646 319.077296 
L 648.960328 258.272329 
L 651.632011 256.279445 
L 654.303694 256.593847 
L 656.975376 230.696612 
L 659.647059 228.923254 
L 662.318741 196.158079 
L 664.990424 193.281509 
L 667.662107 193.735323 
L 673.005472 193.675023 
L 675.677155 284.336197 
L 678.348837 221.744961 
L 681.02052 350.811485 
L 683.692202 392.954914 
L 686.363885 278.858823 
L 689.035568 200.364507 
L 691.70725 193.447905 
L 694.378933 194.539082 
L 697.050616 194.366936 
L 699.722298 343.317811 
L 702.393981 351.27548 
L 705.065663 350.020062 
L 707.737346 253.252161 
L 710.409029 381.079116 
L 713.080711 400.683274 
L 715.752394 308.280598 
L 718.424077 376.127619 
L 721.095759 389.730509 
L 723.767442 266.269995 
L 726.439124 246.667961 
L 729.110807 407.970597 
L 731.78249 422.443716 
L 734.454172 320.765106 
L 737.125855 305.114452 
L 739.797538 214.945814 
L 742.46922 205.670994 
L 745.140903 207.134209 
L 747.812585 336.469977 
L 750.484268 440.863179 
L 753.155951 462.37008 
L 755.827633 354.395722 
L 758.499316 336.901636 
L 761.170999 342.118514 
L 763.842681 323.599815 
L 766.514364 424.60095 
L 769.186047 425.81348 
L 771.857729 294.401589 
L 774.529412 229.272774 
L 777.201094 224.977963 
L 779.872777 311.630091 
L 782.54446 426.349095 
L 785.216142 491.544416 
L 787.887825 497.506422 
L 790.559508 375.7765 
L 793.23119 364.339445 
L 795.902873 322.310889 
L 798.574555 319.939989 
L 801.246238 394.500522 
L 803.917921 330.771706 
L 806.589603 389.614986 
L 809.261286 403.788395 
L 811.932969 372.773579 
L 814.604651 427.137787 
L 817.276334 430.385462 
L 819.948016 385.29684 
L 822.619699 378.654663 
L 825.291382 379.702546 
L 827.963064 402.041327 
L 830.634747 397.891058 
L 833.30643 402.321421 
L 835.978112 403.368433 
L 838.649795 403.203255 
L 846.664843 403.225851 
L 849.336525 268.887251 
L 852.008208 263.926596 
L 854.679891 264.709199 
L 857.351573 315.561205 
L 860.023256 327.059183 
L 862.694938 327.718161 
L 865.366621 327.614199 
L 868.038304 447.333361 
L 870.709986 300.555532 
L 873.381669 287.286461 
L 876.053352 255.290586 
L 878.725034 352.903568 
L 881.396717 345.090484 
L 884.068399 419.052505 
L 886.740082 433.436777 
L 889.411765 431.167485 
L 892.083447 431.525493 
L 894.75513 373.514507 
L 897.426813 472.498645 
L 900.098495 486.951843 
L 902.770178 484.671678 
L 905.44186 485.031401 
L 908.113543 244.614014 
L 910.785226 348.916636 
L 913.456908 469.477582 
L 916.128591 440.489214 
L 918.800274 403.287928 
L 921.471956 298.724893 
L 924.143639 335.103064 
L 926.815321 325.561005 
L 929.487004 320.427881 
L 932.158687 321.237693 
L 934.830369 321.109935 
L 937.502052 321.130091 
L 940.173735 263.457661 
L 942.845417 399.891091 
L 945.5171 426.966153 
L 948.188782 345.996716 
L 950.860465 329.329551 
L 953.532148 424.593451 
L 956.20383 349.481307 
L 958.875513 385.368294 
L 961.547196 391.179821 
L 966.890561 340.673392 
L 969.562244 365.215845 
L 972.233926 295.518713 
L 974.905609 282.506674 
L 977.577291 284.55948 
L 980.248974 284.235625 
L 982.920657 487.953796 
L 985.592339 366.583682 
L 988.264022 365.051426 
L 990.935705 441.304147 
L 993.607387 354.98816 
L 996.27907 310.316555 
L 998.950752 277.210508 
L 1001.622435 247.345731 
L 1004.294118 244.02685 
L 1006.9658 276.261422 
L 1009.637483 330.448338 
L 1012.309166 365.557658 
L 1014.980848 341.641878 
L 1017.652531 358.735361 
L 1020.324213 397.442559 
L 1022.995896 402.358492 
L 1025.667579 318.623585 
L 1028.339261 229.249086 
L 1031.010944 218.582667 
L 1033.682627 301.669995 
L 1036.354309 308.375213 
L 1039.025992 249.720055 
L 1041.697674 322.560979 
L 1044.369357 356.449492 
L 1047.04104 437.893496 
L 1049.712722 450.961143 
L 1052.384405 518.569454 
L 1055.056088 494.960846 
L 1057.72777 370.949393 
L 1060.399453 338.069338 
L 1063.071135 338.551388 
L 1065.742818 382.088048 
L 1068.414501 377.327746 
L 1071.086183 460.763455 
L 1073.757866 351.959336 
L 1076.429549 383.779837 
L 1079.101231 414.069742 
L 1081.772914 415.050928 
L 1084.444596 261.339778 
L 1087.116279 246.618184 
L 1089.787962 292.26877 
L 1092.459644 333.062234 
L 1095.131327 263.715368 
L 1097.80301 260.474695 
L 1100.474692 360.066971 
L 1103.146375 398.948412 
L 1105.818057 310.481231 
L 1108.48974 295.531839 
L 1111.161423 287.0697 
L 1113.833105 224.703345 
L 1116.504788 315.486905 
L 1119.176471 332.899566 
L 1121.848153 286.132567 
L 1124.519836 282.343801 
L 1127.191518 402.229523 
L 1129.863201 406.833404 
L 1132.534884 382.342173 
L 1135.206566 384.616871 
L 1137.878249 323.650354 
L 1140.549932 244.35857 
L 1143.221614 234.736105 
L 1145.893297 295.629413 
L 1148.564979 369.834374 
L 1151.236662 286.823242 
L 1153.908345 270.505453 
L 1156.580027 244.040416 
L 1159.25171 275.467726 
L 1161.923393 378.163462 
L 1164.595075 392.955572 
L 1167.266758 351.160647 
L 1169.93844 347.743905 
L 1172.610123 397.16537 
L 1175.281806 381.526685 
L 1177.953488 377.991685 
L 1180.625171 378.549373 
L 1183.296854 342.428946 
L 1185.968536 339.975823 
L 1188.640219 233.550669 
L 1191.311902 336.863299 
L 1193.983584 354.489034 
L 1196.655267 351.708362 
L 1199.326949 318.640802 
L 1201.998632 245.677049 
L 1204.670315 308.700542 
L 1207.341997 240.941536 
L 1210.01368 225.661482 
L 1212.685363 228.072095 
L 1215.357045 227.691791 
L 1218.028728 373.616426 
L 1220.70041 421.201817 
L 1223.372093 456.232878 
L 1226.043776 312.318553 
L 1228.715458 305.269662 
L 1231.387141 342.547018 
L 1234.058824 409.194806 
L 1236.730506 483.659249 
L 1239.402189 492.738436 
L 1242.073871 491.306085 
L 1244.745554 491.532055 
L 1250.088919 491.50203 
L 1252.760602 243.794056 
L 1255.432285 366.023489 
L 1258.103967 418.094595 
L 1260.77565 420.414894 
L 1263.447332 420.048839 
L 1268.790698 420.097478 
L 1271.46238 420.098915 
L 1274.134063 237.254915 
L 1279.477428 342.309634 
L 1282.149111 347.844634 
L 1284.820793 346.971422 
L 1287.492476 347.109181 
L 1295.507524 347.090336 
L 1298.179207 213.013868 
L 1300.850889 278.072068 
L 1303.522572 413.802919 
L 1306.194254 348.473101 
L 1308.865937 419.628406 
L 1311.53762 460.509367 
L 1314.209302 417.108928 
L 1316.880985 345.928487 
L 1319.552668 299.868512 
L 1322.22435 258.302389 
L 1324.896033 252.971439 
L 1327.567715 253.812461 
L 1330.239398 253.679779 
L 1332.911081 280.913153 
L 1335.582763 282.364693 
L 1340.926129 370.416724 
L 1343.597811 312.187235 
L 1346.269494 420.439239 
L 1348.941176 441.656028 
L 1351.612859 360.306461 
L 1354.284542 338.328556 
L 1356.956224 314.72091 
L 1359.627907 371.80805 
L 1362.29959 382.239712 
L 1364.971272 310.445826 
L 1367.642955 252.977069 
L 1370.314637 246.553532 
L 1372.98632 232.354367 
L 1375.658003 310.217106 
L 1378.329685 255.902889 
L 1381.001368 374.092967 
L 1383.673051 317.509107 
L 1386.344733 300.762979 
L 1389.016416 246.359275 
L 1391.688098 240.464483 
L 1394.359781 236.393571 
L 1397.031464 235.805239 
L 1399.703146 388.968226 
L 1402.374829 402.349298 
L 1405.046512 400.238273 
L 1407.718194 458.271965 
L 1410.389877 454.375748 
L 1413.06156 452.738448 
L 1415.733242 452.996752 
L 1418.404925 437.550117 
L 1421.076607 293.377556 
L 1423.74829 392.204141 
L 1426.419973 414.4166 
L 1429.091655 410.912317 
L 1431.763338 411.46516 
L 1434.435021 246.676366 
L 1437.106703 237.892244 
L 1439.778386 239.278045 
L 1442.450068 248.001689 
L 1445.121751 316.401447 
L 1447.793434 422.736948 
L 1450.465116 388.72877 
L 1453.136799 360.638271 
L 1455.808482 311.580019 
L 1458.480164 391.694601 
L 1461.151847 407.235961 
L 1463.823529 404.784125 
L 1466.495212 405.170931 
L 1469.166895 405.109908 
L 1471.838577 267.011294 
L 1474.51026 260.973969 
L 1477.181943 261.926429 
L 1479.853625 452.526839 
L 1482.525308 464.401642 
L 1485.19699 462.528249 
L 1487.868673 441.695861 
L 1490.540356 332.352527 
L 1493.212038 260.529876 
L 1495.883721 369.010549 
L 1498.555404 339.063815 
L 1501.227086 385.201538 
L 1503.898769 396.373566 
L 1506.570451 385.018457 
L 1509.242134 289.751121 
L 1511.913817 374.900217 
L 1514.585499 345.114996 
L 1517.257182 398.371598 
L 1519.928865 410.511004 
L 1522.600547 386.692289 
L 1525.27223 384.891058 
L 1527.943912 385.175224 
L 1530.615595 349.167241 
L 1533.287278 295.594529 
L 1535.95896 365.038509 
L 1538.630643 378.341347 
L 1541.302326 299.248757 
L 1543.974008 256.643508 
L 1546.645691 331.371774 
L 1549.317373 399.615628 
L 1551.989056 399.219463 
L 1554.660739 446.082113 
L 1557.332421 426.152612 
L 1560.004104 377.309627 
L 1562.675787 310.333662 
L 1565.347469 398.385473 
L 1568.019152 303.55175 
L 1570.690834 240.817394 
L 1573.362517 237.326181 
L 1576.0342 396.190114 
L 1578.705882 440.278883 
L 1581.377565 399.537197 
L 1584.049248 313.790112 
L 1586.72093 391.69375 
L 1589.392613 408.192616 
L 1592.064295 343.06131 
L 1594.735978 337.467442 
L 1597.407661 338.349942 
L 1600.079343 338.210717 
L 1608.094391 338.229763 
L 1610.766074 246.160471 
L 1613.437756 243.294062 
L 1616.109439 349.321732 
L 1618.781122 357.79001 
L 1621.452804 356.454038 
L 1624.124487 487.175964 
L 1626.79617 419.471031 
L 1629.467852 329.29586 
L 1632.139535 283.365284 
L 1634.811218 352.67833 
L 1637.4829 365.319344 
L 1640.154583 252.975029 
L 1642.826265 325.655588 
L 1645.497948 305.541374 
L 1648.169631 281.839791 
L 1650.841313 385.876267 
L 1653.512996 348.559572 
L 1656.184679 404.718883 
L 1658.856361 295.800064 
L 1661.528044 212.861416 
L 1664.199726 319.508698 
L 1666.871409 403.297951 
L 1669.543092 492.579131 
L 1672.214774 408.199729 
L 1674.886457 442.98976 
L 1677.55814 324.360713 
L 1680.229822 419.970926 
L 1682.901505 389.939744 
L 1685.573187 377.622454 
L 1688.24487 318.812438 
L 1690.916553 410.493351 
L 1693.588235 323.345787 
L 1696.259918 304.422049 
L 1698.931601 245.719541 
L 1701.603283 239.331785 
L 1704.274966 240.33953 
L 1706.946648 360.905164 
L 1709.618331 376.648937 
L 1712.290014 319.866992 
L 1714.961696 350.386578 
L 1717.633379 276.971909 
L 1720.305062 262.433181 
L 1722.976744 264.72684 
L 1725.648427 358.335628 
L 1728.320109 350.285656 
L 1730.991792 398.988309 
L 1733.663475 407.789937 
L 1736.335157 353.951258 
L 1739.00684 349.14159 
L 1741.678523 312.759463 
L 1744.350205 307.703807 
L 1747.021888 308.000955 
L 1755.036936 307.960305 
L 1757.708618 428.785443 
L 1760.380301 449.248945 
L 1763.051984 402.483355 
L 1765.723666 417.362482 
L 1768.395349 422.308756 
L 1771.067031 421.528422 
L 1773.738714 243.494619 
L 1776.410397 231.188612 
L 1779.082079 221.183341 
L 1781.753762 219.852982 
L 1784.425445 220.062862 
L 1787.097127 220.029751 
L 1789.76881 352.278922 
L 1792.440492 358.986901 
L 1795.112175 265.31901 
L 1797.783858 257.750471 
L 1800.45554 258.944499 
L 1803.127223 352.775175 
L 1805.798906 358.861825 
L 1808.470588 490.635946 
L 1811.142271 502.097868 
L 1813.813953 500.289612 
L 1816.485636 500.574886 
L 1819.157319 258.796869 
L 1821.829001 298.919671 
L 1824.500684 403.915288 
L 1827.172367 417.830858 
L 1829.844049 415.635509 
L 1832.515732 420.231332 
L 1835.187415 354.83808 
L 1837.859097 405.394503 
L 1840.53078 286.769805 
L 1843.202462 270.75072 
L 1845.874145 420.315736 
L 1848.545828 419.179846 
L 1851.21751 411.623423 
L 1853.889193 474.470798 
L 1856.560876 480.20335 
L 1859.232558 497.456029 
L 1861.904241 499.202115 
L 1864.575923 498.926649 
L 1872.590971 498.964332 
L 1877.934337 498.964189 
L 1880.606019 430.624855 
L 1883.277702 428.747421 
L 1885.949384 270.950692 
L 1888.621067 398.643797 
L 1891.29275 420.670592 
L 1893.964432 453.396675 
L 1896.636115 457.380115 
L 1899.307798 364.263256 
L 1901.97948 441.696986 
L 1904.651163 506.846845 
L 1907.322845 513.002607 
L 1909.994528 512.031462 
L 1912.666211 495.078864 
L 1915.337893 493.87586 
L 1918.009576 433.839641 
L 1920.681259 370.883599 
L 1923.352941 413.845273 
L 1926.024624 371.387563 
L 1928.696306 271.69026 
L 1931.367989 258.573884 
L 1934.039672 265.208556 
L 1936.711354 403.132254 
L 1939.383037 423.235937 
L 1942.05472 420.064339 
L 1944.726402 323.297037 
L 1947.398085 306.100849 
L 1950.069767 345.389974 
L 1952.74145 351.827003 
L 1955.413133 350.811484 
L 1958.084815 338.557207 
L 1960.756498 304.967398 
L 1963.428181 300.508654 
L 1966.099863 378.336465 
L 1968.771546 393.846814 
L 1974.114911 393.910461 
L 1976.786594 393.912342 
L 1979.458276 439.165823 
L 1982.129959 388.548223 
L 1984.801642 416.754707 
L 1987.473324 423.694104 
L 1990.145007 422.599331 
L 1992.816689 490.296679 
L 1995.488372 330.031955 
L 1998.160055 367.792101 
L 2000.831737 381.465443 
L 2003.50342 379.308309 
L 2006.175103 379.648622 
L 2008.846785 379.594934 
L 2011.518468 384.101041 
L 2014.19015 412.864369 
L 2016.861833 394.98621 
L 2019.533516 338.741902 
L 2022.205198 389.960925 
L 2024.876881 400.863094 
L 2027.548564 399.143146 
L 2030.220246 275.75822 
L 2032.891929 389.522889 
L 2035.563611 408.073252 
L 2038.235294 405.146709 
L 2040.906977 362.51172 
L 2043.578659 359.492778 
L 2046.250342 359.969052 
L 2048.922025 252.87875 
L 2051.593707 408.420307 
L 2054.26539 469.023798 
L 2056.937073 471.204333 
L 2059.608755 470.860327 
L 2062.280438 470.914598 
L 2064.95212 529.260376 
L 2067.623803 532.378714 
L 2070.295486 515.435632 
L 2072.967168 383.267466 
L 2075.638851 405.93429 
L 2078.310534 406.875724 
L 2080.982216 320.351235 
L 2083.653899 307.139371 
L 2086.325581 206.868298 
L 2088.997264 250.030355 
L 2091.668947 248.795964 
L 2094.340629 384.740544 
L 2097.012312 384.418494 
L 2099.683995 376.904707 
L 2102.355677 378.090098 
L 2105.02736 355.190201 
L 2107.699042 353.653056 
L 2110.370725 405.136084 
L 2113.042408 447.717978 
L 2115.71409 357.021062 
L 2118.385773 340.886013 
L 2121.057456 343.431511 
L 2123.729138 343.029928 
L 2129.072503 343.083287 
L 2131.744186 192.416622 
L 2134.415869 186.85222 
L 2137.087551 280.600837 
L 2139.759234 312.611174 
L 2142.430917 386.152313 
L 2145.102599 408.701788 
L 2147.774282 369.744886 
L 2150.445964 261.741525 
L 2153.117647 294.624964 
L 2155.78933 305.017572 
L 2158.461012 353.600564 
L 2161.132695 351.41778 
L 2163.804378 358.872977 
L 2166.47606 360.669748 
L 2169.147743 413.637646 
L 2171.819425 370.208324 
L 2174.491108 398.197031 
L 2177.162791 324.259269 
L 2179.834473 358.984448 
L 2182.506156 327.914503 
L 2185.177839 319.528737 
L 2187.849521 320.851693 
L 2190.521204 389.844031 
L 2193.192886 269.358517 
L 2195.864569 250.986817 
L 2198.536252 253.885174 
L 2201.207934 333.153885 
L 2203.879617 368.47528 
L 2206.5513 363.0318 
L 2209.222982 326.560794 
L 2211.894665 277.294134 
L 2214.566347 299.506866 
L 2217.23803 335.566155 
L 2219.909713 339.64178 
L 2222.581395 233.723741 
L 2225.253078 223.715841 
L 2227.924761 351.639386 
L 2230.596443 362.54752 
L 2233.268126 351.98136 
L 2235.939808 357.320452 
L 2238.611491 344.455294 
L 2241.283174 437.782726 
L 2243.954856 444.188355 
L 2246.626539 372.469093 
L 2249.298222 294.740569 
L 2251.969904 363.978323 
L 2254.641587 415.404666 
L 2257.313269 478.288644 
L 2259.984952 348.618667 
L 2262.656635 364.697914 
L 2265.328317 432.724604 
L 2268 440.515428 
L 2270.671683 452.58718 
L 2270.671683 452.58718 
" clip-path="url(#p1aaa970b37)" style="fill: none; stroke: #ff0000; stroke-width: 1.8; stroke-linecap: square"/>
   </g>
   <g id="patch_3">
    <path d="M 315 640.8 
L 315 86.4 
" style="fill: none; stroke: #000000; stroke-width: 0.8; stroke-linejoin: miter; stroke-linecap: square"/>
   </g>
   <g id="patch_4">
    <path d="M 2268 640.8 
L 2268 86.4 
" style="fill: none; stroke: #000000; stroke-width: 0.8; stroke-linejoin: miter; stroke-linecap: square"/>
   </g>
   <g id="patch_5">
    <path d="M 315 640.8 
L 2268 640.8 
" style="fill: none; stroke: #000000; stroke-width: 0.8; stroke-linejoin: miter; stroke-linecap: square"/>
   </g>
   <g id="patch_6">
    <path d="M 315 86.4 
L 2268 86.4 
" style="fill: none; stroke: #000000; stroke-width: 0.8; stroke-linejoin: miter; stroke-linecap: square"/>
   </g>
   <g id="text_20">
    <!-- Model ARIMA - BRSE (east) -->
    <g transform="translate(1157.254688 80.4) scale(0.2 -0.2)">
     <defs>
      <path id="DejaVuSans-4d" d="M 628 4666 
L 1569 4666 
L 2759 1491 
L 3956 4666 
L 4897 4666 
L 4897 0 
L 4281 0 
L 4281 4097 
L 3078 897 
L 2444 897 
L 1241 4097 
L 1241 0 
L 628 0 
L 628 4666 
z
" transform="scale(0.015625)"/>
      <path id="DejaVuSans-6f" d="M 1959 3097 
Q 1497 3097 1228 2736 
Q 959 2375 959 1747 
Q 959 1119 1226 758 
Q 1494 397 1959 397 
Q 2419 397 2687 759 
Q 2956 1122 2956 1747 
Q 2956 2369 2687 2733 
Q 2419 3097 1959 3097 
z
M 1959 3584 
Q 2709 3584 3137 3096 
Q 3566 2609 3566 1747 
Q 3566 888 3137 398 
Q 2709 -91 1959 -91 
Q 1206 -91 779 398 
Q 353 888 353 1747 
Q 353 2609 779 3096 
Q 1206 3584 1959 3584 
z
" transform="scale(0.015625)"/>
      <path id="DejaVuSans-64" d="M 2906 2969 
L 2906 4863 
L 3481 4863 
L 3481 0 
L 2906 0 
L 2906 525 
Q 2725 213 2448 61 
Q 2172 -91 1784 -91 
Q 1150 -91 751 415 
Q 353 922 353 1747 
Q 353 2572 751 3078 
Q 1150 3584 1784 3584 
Q 2172 3584 2448 3432 
Q 2725 3281 2906 2969 
z
M 947 1747 
Q 947 1113 1208 752 
Q 1469 391 1925 391 
Q 2381 391 2643 752 
Q 2906 1113 2906 1747 
Q 2906 2381 2643 2742 
Q 2381 3103 1925 3103 
Q 1469 3103 1208 2742 
Q 947 2381 947 1747 
z
" transform="scale(0.015625)"/>
      <path id="DejaVuSans-6c" d="M 603 4863 
L 1178 4863 
L 1178 0 
L 603 0 
L 603 4863 
z
" transform="scale(0.015625)"/>
      <path id="DejaVuSans-20" transform="scale(0.015625)"/>
      <path id="DejaVuSans-41" d="M 2188 4044 
L 1331 1722 
L 3047 1722 
L 2188 4044 
z
M 1831 4666 
L 2547 4666 
L 4325 0 
L 3669 0 
L 3244 1197 
L 1141 1197 
L 716 0 
L 50 0 
L 1831 4666 
z
" transform="scale(0.015625)"/>
      <path id="DejaVuSans-52" d="M 2841 2188 
Q 3044 2119 3236 1894 
Q 3428 1669 3622 1275 
L 4263 0 
L 3584 0 
L 2988 1197 
Q 2756 1666 2539 1819 
Q 2322 1972 1947 1972 
L 1259 1972 
L 1259 0 
L 628 0 
L 628 4666 
L 2053 4666 
Q 2853 4666 3247 4331 
Q 3641 3997 3641 3322 
Q 3641 2881 3436 2590 
Q 3231 2300 2841 2188 
z
M 1259 4147 
L 1259 2491 
L 2053 2491 
Q 2509 2491 2742 2702 
Q 2975 2913 2975 3322 
Q 2975 3731 2742 3939 
Q 2509 4147 2053 4147 
L 1259 4147 
z
" transform="scale(0.015625)"/>
      <path id="DejaVuSans-49" d="M 628 4666 
L 1259 4666 
L 1259 0 
L 628 0 
L 628 4666 
z
" transform="scale(0.015625)"/>
      <path id="DejaVuSans-42" d="M 1259 2228 
L 1259 519 
L 2272 519 
Q 2781 519 3026 730 
Q 3272 941 3272 1375 
Q 3272 1813 3026 2020 
Q 2781 2228 2272 2228 
L 1259 2228 
z
M 1259 4147 
L 1259 2741 
L 2194 2741 
Q 2656 2741 2882 2914 
Q 3109 3088 3109 3444 
Q 3109 3797 2882 3972 
Q 2656 4147 2194 4147 
L 1259 4147 
z
M 628 4666 
L 2241 4666 
Q 2963 4666 3353 4366 
Q 3744 4066 3744 3513 
Q 3744 3084 3544 2831 
Q 3344 2578 2956 2516 
Q 3422 2416 3680 2098 
Q 3938 1781 3938 1306 
Q 3938 681 3513 340 
Q 3088 0 2303 0 
L 628 0 
L 628 4666 
z
" transform="scale(0.015625)"/>
      <path id="DejaVuSans-53" d="M 3425 4513 
L 3425 3897 
Q 3066 4069 2747 4153 
Q 2428 4238 2131 4238 
Q 1616 4238 1336 4038 
Q 1056 3838 1056 3469 
Q 1056 3159 1242 3001 
Q 1428 2844 1947 2747 
L 2328 2669 
Q 3034 2534 3370 2195 
Q 3706 1856 3706 1288 
Q 3706 609 3251 259 
Q 2797 -91 1919 -91 
Q 1588 -91 1214 -16 
Q 841 59 441 206 
L 441 856 
Q 825 641 1194 531 
Q 1563 422 1919 422 
Q 2459 422 2753 634 
Q 3047 847 3047 1241 
Q 3047 1584 2836 1778 
Q 2625 1972 2144 2069 
L 1759 2144 
Q 1053 2284 737 2584 
Q 422 2884 422 3419 
Q 422 4038 858 4394 
Q 1294 4750 2059 4750 
Q 2388 4750 2728 4690 
Q 3069 4631 3425 4513 
z
" transform="scale(0.015625)"/>
     </defs>
     <use xlink:href="#DejaVuSans-4d"/>
     <use xlink:href="#DejaVuSans-6f" x="86.279297"/>
     <use xlink:href="#DejaVuSans-64" x="147.460938"/>
     <use xlink:href="#DejaVuSans-65" x="210.9375"/>
     <use xlink:href="#DejaVuSans-6c" x="272.460938"/>
     <use xlink:href="#DejaVuSans-20" x="300.244141"/>
     <use xlink:href="#DejaVuSans-41" x="332.03125"/>
     <use xlink:href="#DejaVuSans-52" x="400.439453"/>
     <use xlink:href="#DejaVuSans-49" x="469.921875"/>
     <use xlink:href="#DejaVuSans-4d" x="499.414062"/>
     <use xlink:href="#DejaVuSans-41" x="585.693359"/>
     <use xlink:href="#DejaVuSans-20" x="654.101562"/>
     <use xlink:href="#DejaVuSans-2d" x="685.888672"/>
     <use xlink:href="#DejaVuSans-20" x="721.972656"/>
     <use xlink:href="#DejaVuSans-42" x="753.759766"/>
     <use xlink:href="#DejaVuSans-52" x="822.363281"/>
     <use xlink:href="#DejaVuSans-53" x="891.845703"/>
     <use xlink:href="#DejaVuSans-45" x="955.322266"/>
     <use xlink:href="#DejaVuSans-20" x="1018.505859"/>
     <use xlink:href="#DejaVuSans-28" x="1050.292969"/>
     <use xlink:href="#DejaVuSans-65" x="1089.306641"/>
     <use xlink:href="#DejaVuSans-61" x="1150.830078"/>
     <use xlink:href="#DejaVuSans-73" x="1212.109375"/>
     <use xlink:href="#DejaVuSans-74" x="1264.208984"/>
     <use xlink:href="#DejaVuSans-29" x="1303.417969"/>
    </g>
   </g>
   <g id="legend_1">
    <g id="patch_7">
     <path d="M 2165.003125 109.078125 
L 2261 109.078125 
Q 2263 109.078125 2263 107.078125 
L 2263 93.4 
Q 2263 91.4 2261 91.4 
L 2165.003125 91.4 
Q 2163.003125 91.4 2163.003125 93.4 
L 2163.003125 107.078125 
Q 2163.003125 109.078125 2165.003125 109.078125 
z
" style="fill: #ffffff; opacity: 0.8; stroke: #cccccc; stroke-linejoin: miter"/>
    </g>
    <g id="line2d_19">
     <path d="M 2167.003125 99.498438 
L 2177.003125 99.498438 
L 2187.003125 99.498438 
" style="fill: none; stroke: #ff0000; stroke-width: 1.8; stroke-linecap: square"/>
    </g>
    <g id="text_21">
     <!-- Fitted Values -->
     <g transform="translate(2195.003125 102.998438) scale(0.1 -0.1)">
      <defs>
       <path id="DejaVuSans-46" d="M 628 4666 
L 3309 4666 
L 3309 4134 
L 1259 4134 
L 1259 2759 
L 3109 2759 
L 3109 2228 
L 1259 2228 
L 1259 0 
L 628 0 
L 628 4666 
z
" transform="scale(0.015625)"/>
       <path id="DejaVuSans-56" d="M 1831 0 
L 50 4666 
L 709 4666 
L 2188 738 
L 3669 4666 
L 4325 4666 
L 2547 0 
L 1831 0 
z
" transform="scale(0.015625)"/>
       <path id="DejaVuSans-75" d="M 544 1381 
L 544 3500 
L 1119 3500 
L 1119 1403 
Q 1119 906 1312 657 
Q 1506 409 1894 409 
Q 2359 409 2629 706 
Q 2900 1003 2900 1516 
L 2900 3500 
L 3475 3500 
L 3475 0 
L 2900 0 
L 2900 538 
Q 2691 219 2414 64 
Q 2138 -91 1772 -91 
Q 1169 -91 856 284 
Q 544 659 544 1381 
z
M 1991 3584 
L 1991 3584 
z
" transform="scale(0.015625)"/>
      </defs>
      <use xlink:href="#DejaVuSans-46"/>
      <use xlink:href="#DejaVuSans-69" x="50.269531"/>
      <use xlink:href="#DejaVuSans-74" x="78.052734"/>
      <use xlink:href="#DejaVuSans-74" x="117.261719"/>
      <use xlink:href="#DejaVuSans-65" x="156.470703"/>
      <use xlink:href="#DejaVuSans-64" x="217.994141"/>
      <use xlink:href="#DejaVuSans-20" x="281.470703"/>
      <use xlink:href="#DejaVuSans-56" x="313.257812"/>
      <use xlink:href="#DejaVuSans-61" x="373.916016"/>
      <use xlink:href="#DejaVuSans-6c" x="435.195312"/>
      <use xlink:href="#DejaVuSans-75" x="462.978516"/>
      <use xlink:href="#DejaVuSans-65" x="526.357422"/>
      <use xlink:href="#DejaVuSans-73" x="587.880859"/>
     </g>
    </g>
   </g>
  </g>
 </g>
 <defs>
  <clipPath id="p1aaa970b37">
   <rect x="315" y="86.4" width="1953" height="554.4"/>
  </clipPath>
 </defs>
</svg>
