<?xml version="1.0" encoding="utf-8" standalone="no"?>
<!DOCTYPE svg PUBLIC "-//W3C//DTD SVG 1.1//EN"
  "http://www.w3.org/Graphics/SVG/1.1/DTD/svg11.dtd">
<svg xmlns:xlink="http://www.w3.org/1999/xlink" width="2520pt" height="720pt" viewBox="0 0 2520 720" xmlns="http://www.w3.org/2000/svg" version="1.1">
 <metadata>
  <rdf:RDF xmlns:dc="http://purl.org/dc/elements/1.1/" xmlns:cc="http://creativecommons.org/ns#" xmlns:rdf="http://www.w3.org/1999/02/22-rdf-syntax-ns#">
   <cc:Work>
    <dc:type rdf:resource="http://purl.org/dc/dcmitype/StillImage"/>
    <dc:date>2024-02-08T15:12:47.032782</dc:date>
    <dc:format>image/svg+xml</dc:format>
    <dc:creator>
     <cc:Agent>
      <dc:title>Matplotlib v3.7.1, https://matplotlib.org/</dc:title>
     </cc:Agent>
    </dc:creator>
   </cc:Work>
  </rdf:RDF>
 </metadata>
 <defs>
  <style type="text/css">*{stroke-linejoin: round; stroke-linecap: butt}</style>
 </defs>
 <g id="figure_1">
  <g id="patch_1">
   <path d="M 0 720 
L 2520 720 
L 2520 0 
L 0 0 
z
" style="fill: #ffffff"/>
  </g>
  <g id="axes_1">
   <g id="patch_2">
    <path d="M 315 640.8 
L 2268 640.8 
L 2268 86.4 
L 315 86.4 
z
" style="fill: #ffffff"/>
   </g>
   <g id="matplotlib.axis_1">
    <g id="xtick_1">
     <g id="line2d_1">
      <defs>
       <path id="m7bcbd72eb2" d="M 0 0 
L 0 3.5 
" style="stroke: #000000; stroke-width: 0.8"/>
      </defs>
      <g>
       <use xlink:href="#m7bcbd72eb2" x="520.719562" y="640.8" style="stroke: #000000; stroke-width: 0.8"/>
      </g>
     </g>
     <g id="text_1">
      <!-- 2012-04 -->
      <g transform="translate(489.382453 659.197656) scale(0.15 -0.15)">
       <defs>
        <path id="DejaVuSans-32" d="M 1228 531 
L 3431 531 
L 3431 0 
L 469 0 
L 469 531 
Q 828 903 1448 1529 
Q 2069 2156 2228 2338 
Q 2531 2678 2651 2914 
Q 2772 3150 2772 3378 
Q 2772 3750 2511 3984 
Q 2250 4219 1831 4219 
Q 1534 4219 1204 4116 
Q 875 4013 500 3803 
L 500 4441 
Q 881 4594 1212 4672 
Q 1544 4750 1819 4750 
Q 2544 4750 2975 4387 
Q 3406 4025 3406 3419 
Q 3406 3131 3298 2873 
Q 3191 2616 2906 2266 
Q 2828 2175 2409 1742 
Q 1991 1309 1228 531 
z
" transform="scale(0.015625)"/>
        <path id="DejaVuSans-30" d="M 2034 4250 
Q 1547 4250 1301 3770 
Q 1056 3291 1056 2328 
Q 1056 1369 1301 889 
Q 1547 409 2034 409 
Q 2525 409 2770 889 
Q 3016 1369 3016 2328 
Q 3016 3291 2770 3770 
Q 2525 4250 2034 4250 
z
M 2034 4750 
Q 2819 4750 3233 4129 
Q 3647 3509 3647 2328 
Q 3647 1150 3233 529 
Q 2819 -91 2034 -91 
Q 1250 -91 836 529 
Q 422 1150 422 2328 
Q 422 3509 836 4129 
Q 1250 4750 2034 4750 
z
" transform="scale(0.015625)"/>
        <path id="DejaVuSans-31" d="M 794 531 
L 1825 531 
L 1825 4091 
L 703 3866 
L 703 4441 
L 1819 4666 
L 2450 4666 
L 2450 531 
L 3481 531 
L 3481 0 
L 794 0 
L 794 531 
z
" transform="scale(0.015625)"/>
        <path id="DejaVuSans-2d" d="M 313 2009 
L 1997 2009 
L 1997 1497 
L 313 1497 
L 313 2009 
z
" transform="scale(0.015625)"/>
        <path id="DejaVuSans-34" d="M 2419 4116 
L 825 1625 
L 2419 1625 
L 2419 4116 
z
M 2253 4666 
L 3047 4666 
L 3047 1625 
L 3713 1625 
L 3713 1100 
L 3047 1100 
L 3047 0 
L 2419 0 
L 2419 1100 
L 313 1100 
L 313 1709 
L 2253 4666 
z
" transform="scale(0.015625)"/>
       </defs>
       <use xlink:href="#DejaVuSans-32"/>
       <use xlink:href="#DejaVuSans-30" x="63.623047"/>
       <use xlink:href="#DejaVuSans-31" x="127.246094"/>
       <use xlink:href="#DejaVuSans-32" x="190.869141"/>
       <use xlink:href="#DejaVuSans-2d" x="254.492188"/>
       <use xlink:href="#DejaVuSans-30" x="290.576172"/>
       <use xlink:href="#DejaVuSans-34" x="354.199219"/>
      </g>
     </g>
    </g>
    <g id="xtick_2">
     <g id="line2d_2">
      <g>
       <use xlink:href="#m7bcbd72eb2" x="763.842681" y="640.8" style="stroke: #000000; stroke-width: 0.8"/>
      </g>
     </g>
     <g id="text_2">
      <!-- 2012-07 -->
      <g transform="translate(732.505572 659.197656) scale(0.15 -0.15)">
       <defs>
        <path id="DejaVuSans-37" d="M 525 4666 
L 3525 4666 
L 3525 4397 
L 1831 0 
L 1172 0 
L 2766 4134 
L 525 4134 
L 525 4666 
z
" transform="scale(0.015625)"/>
       </defs>
       <use xlink:href="#DejaVuSans-32"/>
       <use xlink:href="#DejaVuSans-30" x="63.623047"/>
       <use xlink:href="#DejaVuSans-31" x="127.246094"/>
       <use xlink:href="#DejaVuSans-32" x="190.869141"/>
       <use xlink:href="#DejaVuSans-2d" x="254.492188"/>
       <use xlink:href="#DejaVuSans-30" x="290.576172"/>
       <use xlink:href="#DejaVuSans-37" x="354.199219"/>
      </g>
     </g>
    </g>
    <g id="xtick_3">
     <g id="line2d_3">
      <g>
       <use xlink:href="#m7bcbd72eb2" x="1009.637483" y="640.8" style="stroke: #000000; stroke-width: 0.8"/>
      </g>
     </g>
     <g id="text_3">
      <!-- 2012-10 -->
      <g transform="translate(978.300374 659.197656) scale(0.15 -0.15)">
       <use xlink:href="#DejaVuSans-32"/>
       <use xlink:href="#DejaVuSans-30" x="63.623047"/>
       <use xlink:href="#DejaVuSans-31" x="127.246094"/>
       <use xlink:href="#DejaVuSans-32" x="190.869141"/>
       <use xlink:href="#DejaVuSans-2d" x="254.492188"/>
       <use xlink:href="#DejaVuSans-31" x="290.576172"/>
       <use xlink:href="#DejaVuSans-30" x="354.199219"/>
      </g>
     </g>
    </g>
    <g id="xtick_4">
     <g id="line2d_4">
      <g>
       <use xlink:href="#m7bcbd72eb2" x="1255.432285" y="640.8" style="stroke: #000000; stroke-width: 0.8"/>
      </g>
     </g>
     <g id="text_4">
      <!-- 2013-01 -->
      <g transform="translate(1224.095175 659.197656) scale(0.15 -0.15)">
       <defs>
        <path id="DejaVuSans-33" d="M 2597 2516 
Q 3050 2419 3304 2112 
Q 3559 1806 3559 1356 
Q 3559 666 3084 287 
Q 2609 -91 1734 -91 
Q 1441 -91 1130 -33 
Q 819 25 488 141 
L 488 750 
Q 750 597 1062 519 
Q 1375 441 1716 441 
Q 2309 441 2620 675 
Q 2931 909 2931 1356 
Q 2931 1769 2642 2001 
Q 2353 2234 1838 2234 
L 1294 2234 
L 1294 2753 
L 1863 2753 
Q 2328 2753 2575 2939 
Q 2822 3125 2822 3475 
Q 2822 3834 2567 4026 
Q 2313 4219 1838 4219 
Q 1578 4219 1281 4162 
Q 984 4106 628 3988 
L 628 4550 
Q 988 4650 1302 4700 
Q 1616 4750 1894 4750 
Q 2613 4750 3031 4423 
Q 3450 4097 3450 3541 
Q 3450 3153 3228 2886 
Q 3006 2619 2597 2516 
z
" transform="scale(0.015625)"/>
       </defs>
       <use xlink:href="#DejaVuSans-32"/>
       <use xlink:href="#DejaVuSans-30" x="63.623047"/>
       <use xlink:href="#DejaVuSans-31" x="127.246094"/>
       <use xlink:href="#DejaVuSans-33" x="190.869141"/>
       <use xlink:href="#DejaVuSans-2d" x="254.492188"/>
       <use xlink:href="#DejaVuSans-30" x="290.576172"/>
       <use xlink:href="#DejaVuSans-31" x="354.199219"/>
      </g>
     </g>
    </g>
    <g id="xtick_5">
     <g id="line2d_5">
      <g>
       <use xlink:href="#m7bcbd72eb2" x="1495.883721" y="640.8" style="stroke: #000000; stroke-width: 0.8"/>
      </g>
     </g>
     <g id="text_5">
      <!-- 2013-04 -->
      <g transform="translate(1464.546612 659.197656) scale(0.15 -0.15)">
       <use xlink:href="#DejaVuSans-32"/>
       <use xlink:href="#DejaVuSans-30" x="63.623047"/>
       <use xlink:href="#DejaVuSans-31" x="127.246094"/>
       <use xlink:href="#DejaVuSans-33" x="190.869141"/>
       <use xlink:href="#DejaVuSans-2d" x="254.492188"/>
       <use xlink:href="#DejaVuSans-30" x="290.576172"/>
       <use xlink:href="#DejaVuSans-34" x="354.199219"/>
      </g>
     </g>
    </g>
    <g id="xtick_6">
     <g id="line2d_6">
      <g>
       <use xlink:href="#m7bcbd72eb2" x="1739.00684" y="640.8" style="stroke: #000000; stroke-width: 0.8"/>
      </g>
     </g>
     <g id="text_6">
      <!-- 2013-07 -->
      <g transform="translate(1707.669731 659.197656) scale(0.15 -0.15)">
       <use xlink:href="#DejaVuSans-32"/>
       <use xlink:href="#DejaVuSans-30" x="63.623047"/>
       <use xlink:href="#DejaVuSans-31" x="127.246094"/>
       <use xlink:href="#DejaVuSans-33" x="190.869141"/>
       <use xlink:href="#DejaVuSans-2d" x="254.492188"/>
       <use xlink:href="#DejaVuSans-30" x="290.576172"/>
       <use xlink:href="#DejaVuSans-37" x="354.199219"/>
      </g>
     </g>
    </g>
    <g id="xtick_7">
     <g id="line2d_7">
      <g>
       <use xlink:href="#m7bcbd72eb2" x="1984.801642" y="640.8" style="stroke: #000000; stroke-width: 0.8"/>
      </g>
     </g>
     <g id="text_7">
      <!-- 2013-10 -->
      <g transform="translate(1953.464532 659.197656) scale(0.15 -0.15)">
       <use xlink:href="#DejaVuSans-32"/>
       <use xlink:href="#DejaVuSans-30" x="63.623047"/>
       <use xlink:href="#DejaVuSans-31" x="127.246094"/>
       <use xlink:href="#DejaVuSans-33" x="190.869141"/>
       <use xlink:href="#DejaVuSans-2d" x="254.492188"/>
       <use xlink:href="#DejaVuSans-31" x="290.576172"/>
       <use xlink:href="#DejaVuSans-30" x="354.199219"/>
      </g>
     </g>
    </g>
    <g id="xtick_8">
     <g id="line2d_8">
      <g>
       <use xlink:href="#m7bcbd72eb2" x="2230.596443" y="640.8" style="stroke: #000000; stroke-width: 0.8"/>
      </g>
     </g>
     <g id="text_8">
      <!-- 2014-01 -->
      <g transform="translate(2199.259334 659.197656) scale(0.15 -0.15)">
       <use xlink:href="#DejaVuSans-32"/>
       <use xlink:href="#DejaVuSans-30" x="63.623047"/>
       <use xlink:href="#DejaVuSans-31" x="127.246094"/>
       <use xlink:href="#DejaVuSans-34" x="190.869141"/>
       <use xlink:href="#DejaVuSans-2d" x="254.492188"/>
       <use xlink:href="#DejaVuSans-30" x="290.576172"/>
       <use xlink:href="#DejaVuSans-31" x="354.199219"/>
      </g>
     </g>
    </g>
    <g id="text_9">
     <!-- Time -->
     <g transform="translate(1267.032813 681.514063) scale(0.2 -0.2)">
      <defs>
       <path id="DejaVuSans-54" d="M -19 4666 
L 3928 4666 
L 3928 4134 
L 2272 4134 
L 2272 0 
L 1638 0 
L 1638 4134 
L -19 4134 
L -19 4666 
z
" transform="scale(0.015625)"/>
       <path id="DejaVuSans-69" d="M 603 3500 
L 1178 3500 
L 1178 0 
L 603 0 
L 603 3500 
z
M 603 4863 
L 1178 4863 
L 1178 4134 
L 603 4134 
L 603 4863 
z
" transform="scale(0.015625)"/>
       <path id="DejaVuSans-6d" d="M 3328 2828 
Q 3544 3216 3844 3400 
Q 4144 3584 4550 3584 
Q 5097 3584 5394 3201 
Q 5691 2819 5691 2113 
L 5691 0 
L 5113 0 
L 5113 2094 
Q 5113 2597 4934 2840 
Q 4756 3084 4391 3084 
Q 3944 3084 3684 2787 
Q 3425 2491 3425 1978 
L 3425 0 
L 2847 0 
L 2847 2094 
Q 2847 2600 2669 2842 
Q 2491 3084 2119 3084 
Q 1678 3084 1418 2786 
Q 1159 2488 1159 1978 
L 1159 0 
L 581 0 
L 581 3500 
L 1159 3500 
L 1159 2956 
Q 1356 3278 1631 3431 
Q 1906 3584 2284 3584 
Q 2666 3584 2933 3390 
Q 3200 3197 3328 2828 
z
" transform="scale(0.015625)"/>
       <path id="DejaVuSans-65" d="M 3597 1894 
L 3597 1613 
L 953 1613 
Q 991 1019 1311 708 
Q 1631 397 2203 397 
Q 2534 397 2845 478 
Q 3156 559 3463 722 
L 3463 178 
Q 3153 47 2828 -22 
Q 2503 -91 2169 -91 
Q 1331 -91 842 396 
Q 353 884 353 1716 
Q 353 2575 817 3079 
Q 1281 3584 2069 3584 
Q 2775 3584 3186 3129 
Q 3597 2675 3597 1894 
z
M 3022 2063 
Q 3016 2534 2758 2815 
Q 2500 3097 2075 3097 
Q 1594 3097 1305 2825 
Q 1016 2553 972 2059 
L 3022 2063 
z
" transform="scale(0.015625)"/>
      </defs>
      <use xlink:href="#DejaVuSans-54"/>
      <use xlink:href="#DejaVuSans-69" x="57.958984"/>
      <use xlink:href="#DejaVuSans-6d" x="85.742188"/>
      <use xlink:href="#DejaVuSans-65" x="183.154297"/>
     </g>
    </g>
   </g>
   <g id="matplotlib.axis_2">
    <g id="ytick_1">
     <g id="line2d_9">
      <defs>
       <path id="maaf7b4c19e" d="M 0 0 
L -3.5 0 
" style="stroke: #000000; stroke-width: 0.8"/>
      </defs>
      <g>
       <use xlink:href="#maaf7b4c19e" x="315" y="640.8" style="stroke: #000000; stroke-width: 0.8"/>
      </g>
     </g>
     <g id="text_10">
      <!-- −0.00100 -->
      <g transform="translate(233.400781 646.498828) scale(0.15 -0.15)">
       <defs>
        <path id="DejaVuSans-2212" d="M 678 2272 
L 4684 2272 
L 4684 1741 
L 678 1741 
L 678 2272 
z
" transform="scale(0.015625)"/>
        <path id="DejaVuSans-2e" d="M 684 794 
L 1344 794 
L 1344 0 
L 684 0 
L 684 794 
z
" transform="scale(0.015625)"/>
       </defs>
       <use xlink:href="#DejaVuSans-2212"/>
       <use xlink:href="#DejaVuSans-30" x="83.789062"/>
       <use xlink:href="#DejaVuSans-2e" x="147.412109"/>
       <use xlink:href="#DejaVuSans-30" x="179.199219"/>
       <use xlink:href="#DejaVuSans-30" x="242.822266"/>
       <use xlink:href="#DejaVuSans-31" x="306.445312"/>
       <use xlink:href="#DejaVuSans-30" x="370.068359"/>
       <use xlink:href="#DejaVuSans-30" x="433.691406"/>
      </g>
     </g>
    </g>
    <g id="ytick_2">
     <g id="line2d_10">
      <g>
       <use xlink:href="#maaf7b4c19e" x="315" y="571.5" style="stroke: #000000; stroke-width: 0.8"/>
      </g>
     </g>
     <g id="text_11">
      <!-- −0.00075 -->
      <g transform="translate(233.400781 577.198828) scale(0.15 -0.15)">
       <defs>
        <path id="DejaVuSans-35" d="M 691 4666 
L 3169 4666 
L 3169 4134 
L 1269 4134 
L 1269 2991 
Q 1406 3038 1543 3061 
Q 1681 3084 1819 3084 
Q 2600 3084 3056 2656 
Q 3513 2228 3513 1497 
Q 3513 744 3044 326 
Q 2575 -91 1722 -91 
Q 1428 -91 1123 -41 
Q 819 9 494 109 
L 494 744 
Q 775 591 1075 516 
Q 1375 441 1709 441 
Q 2250 441 2565 725 
Q 2881 1009 2881 1497 
Q 2881 1984 2565 2268 
Q 2250 2553 1709 2553 
Q 1456 2553 1204 2497 
Q 953 2441 691 2322 
L 691 4666 
z
" transform="scale(0.015625)"/>
       </defs>
       <use xlink:href="#DejaVuSans-2212"/>
       <use xlink:href="#DejaVuSans-30" x="83.789062"/>
       <use xlink:href="#DejaVuSans-2e" x="147.412109"/>
       <use xlink:href="#DejaVuSans-30" x="179.199219"/>
       <use xlink:href="#DejaVuSans-30" x="242.822266"/>
       <use xlink:href="#DejaVuSans-30" x="306.445312"/>
       <use xlink:href="#DejaVuSans-37" x="370.068359"/>
       <use xlink:href="#DejaVuSans-35" x="433.691406"/>
      </g>
     </g>
    </g>
    <g id="ytick_3">
     <g id="line2d_11">
      <g>
       <use xlink:href="#maaf7b4c19e" x="315" y="502.2" style="stroke: #000000; stroke-width: 0.8"/>
      </g>
     </g>
     <g id="text_12">
      <!-- −0.00050 -->
      <g transform="translate(233.400781 507.898828) scale(0.15 -0.15)">
       <use xlink:href="#DejaVuSans-2212"/>
       <use xlink:href="#DejaVuSans-30" x="83.789062"/>
       <use xlink:href="#DejaVuSans-2e" x="147.412109"/>
       <use xlink:href="#DejaVuSans-30" x="179.199219"/>
       <use xlink:href="#DejaVuSans-30" x="242.822266"/>
       <use xlink:href="#DejaVuSans-30" x="306.445312"/>
       <use xlink:href="#DejaVuSans-35" x="370.068359"/>
       <use xlink:href="#DejaVuSans-30" x="433.691406"/>
      </g>
     </g>
    </g>
    <g id="ytick_4">
     <g id="line2d_12">
      <g>
       <use xlink:href="#maaf7b4c19e" x="315" y="432.9" style="stroke: #000000; stroke-width: 0.8"/>
      </g>
     </g>
     <g id="text_13">
      <!-- −0.00025 -->
      <g transform="translate(233.400781 438.598828) scale(0.15 -0.15)">
       <use xlink:href="#DejaVuSans-2212"/>
       <use xlink:href="#DejaVuSans-30" x="83.789062"/>
       <use xlink:href="#DejaVuSans-2e" x="147.412109"/>
       <use xlink:href="#DejaVuSans-30" x="179.199219"/>
       <use xlink:href="#DejaVuSans-30" x="242.822266"/>
       <use xlink:href="#DejaVuSans-30" x="306.445312"/>
       <use xlink:href="#DejaVuSans-32" x="370.068359"/>
       <use xlink:href="#DejaVuSans-35" x="433.691406"/>
      </g>
     </g>
    </g>
    <g id="ytick_5">
     <g id="line2d_13">
      <g>
       <use xlink:href="#maaf7b4c19e" x="315" y="363.6" style="stroke: #000000; stroke-width: 0.8"/>
      </g>
     </g>
     <g id="text_14">
      <!-- 0.00000 -->
      <g transform="translate(245.970313 369.298828) scale(0.15 -0.15)">
       <use xlink:href="#DejaVuSans-30"/>
       <use xlink:href="#DejaVuSans-2e" x="63.623047"/>
       <use xlink:href="#DejaVuSans-30" x="95.410156"/>
       <use xlink:href="#DejaVuSans-30" x="159.033203"/>
       <use xlink:href="#DejaVuSans-30" x="222.65625"/>
       <use xlink:href="#DejaVuSans-30" x="286.279297"/>
       <use xlink:href="#DejaVuSans-30" x="349.902344"/>
      </g>
     </g>
    </g>
    <g id="ytick_6">
     <g id="line2d_14">
      <g>
       <use xlink:href="#maaf7b4c19e" x="315" y="294.3" style="stroke: #000000; stroke-width: 0.8"/>
      </g>
     </g>
     <g id="text_15">
      <!-- 0.00025 -->
      <g transform="translate(245.970313 299.998828) scale(0.15 -0.15)">
       <use xlink:href="#DejaVuSans-30"/>
       <use xlink:href="#DejaVuSans-2e" x="63.623047"/>
       <use xlink:href="#DejaVuSans-30" x="95.410156"/>
       <use xlink:href="#DejaVuSans-30" x="159.033203"/>
       <use xlink:href="#DejaVuSans-30" x="222.65625"/>
       <use xlink:href="#DejaVuSans-32" x="286.279297"/>
       <use xlink:href="#DejaVuSans-35" x="349.902344"/>
      </g>
     </g>
    </g>
    <g id="ytick_7">
     <g id="line2d_15">
      <g>
       <use xlink:href="#maaf7b4c19e" x="315" y="225" style="stroke: #000000; stroke-width: 0.8"/>
      </g>
     </g>
     <g id="text_16">
      <!-- 0.00050 -->
      <g transform="translate(245.970313 230.698828) scale(0.15 -0.15)">
       <use xlink:href="#DejaVuSans-30"/>
       <use xlink:href="#DejaVuSans-2e" x="63.623047"/>
       <use xlink:href="#DejaVuSans-30" x="95.410156"/>
       <use xlink:href="#DejaVuSans-30" x="159.033203"/>
       <use xlink:href="#DejaVuSans-30" x="222.65625"/>
       <use xlink:href="#DejaVuSans-35" x="286.279297"/>
       <use xlink:href="#DejaVuSans-30" x="349.902344"/>
      </g>
     </g>
    </g>
    <g id="ytick_8">
     <g id="line2d_16">
      <g>
       <use xlink:href="#maaf7b4c19e" x="315" y="155.7" style="stroke: #000000; stroke-width: 0.8"/>
      </g>
     </g>
     <g id="text_17">
      <!-- 0.00075 -->
      <g transform="translate(245.970313 161.398828) scale(0.15 -0.15)">
       <use xlink:href="#DejaVuSans-30"/>
       <use xlink:href="#DejaVuSans-2e" x="63.623047"/>
       <use xlink:href="#DejaVuSans-30" x="95.410156"/>
       <use xlink:href="#DejaVuSans-30" x="159.033203"/>
       <use xlink:href="#DejaVuSans-30" x="222.65625"/>
       <use xlink:href="#DejaVuSans-37" x="286.279297"/>
       <use xlink:href="#DejaVuSans-35" x="349.902344"/>
      </g>
     </g>
    </g>
    <g id="ytick_9">
     <g id="line2d_17">
      <g>
       <use xlink:href="#maaf7b4c19e" x="315" y="86.4" style="stroke: #000000; stroke-width: 0.8"/>
      </g>
     </g>
     <g id="text_18">
      <!-- 0.00100 -->
      <g transform="translate(245.970313 92.098828) scale(0.15 -0.15)">
       <use xlink:href="#DejaVuSans-30"/>
       <use xlink:href="#DejaVuSans-2e" x="63.623047"/>
       <use xlink:href="#DejaVuSans-30" x="95.410156"/>
       <use xlink:href="#DejaVuSans-30" x="159.033203"/>
       <use xlink:href="#DejaVuSans-31" x="222.65625"/>
       <use xlink:href="#DejaVuSans-30" x="286.279297"/>
       <use xlink:href="#DejaVuSans-30" x="349.902344"/>
      </g>
     </g>
    </g>
    <g id="text_19">
     <!-- East(m) -->
     <g transform="translate(225.241406 402.720312) rotate(-90) scale(0.2 -0.2)">
      <defs>
       <path id="DejaVuSans-45" d="M 628 4666 
L 3578 4666 
L 3578 4134 
L 1259 4134 
L 1259 2753 
L 3481 2753 
L 3481 2222 
L 1259 2222 
L 1259 531 
L 3634 531 
L 3634 0 
L 628 0 
L 628 4666 
z
" transform="scale(0.015625)"/>
       <path id="DejaVuSans-61" d="M 2194 1759 
Q 1497 1759 1228 1600 
Q 959 1441 959 1056 
Q 959 750 1161 570 
Q 1363 391 1709 391 
Q 2188 391 2477 730 
Q 2766 1069 2766 1631 
L 2766 1759 
L 2194 1759 
z
M 3341 1997 
L 3341 0 
L 2766 0 
L 2766 531 
Q 2569 213 2275 61 
Q 1981 -91 1556 -91 
Q 1019 -91 701 211 
Q 384 513 384 1019 
Q 384 1609 779 1909 
Q 1175 2209 1959 2209 
L 2766 2209 
L 2766 2266 
Q 2766 2663 2505 2880 
Q 2244 3097 1772 3097 
Q 1472 3097 1187 3025 
Q 903 2953 641 2809 
L 641 3341 
Q 956 3463 1253 3523 
Q 1550 3584 1831 3584 
Q 2591 3584 2966 3190 
Q 3341 2797 3341 1997 
z
" transform="scale(0.015625)"/>
       <path id="DejaVuSans-73" d="M 2834 3397 
L 2834 2853 
Q 2591 2978 2328 3040 
Q 2066 3103 1784 3103 
Q 1356 3103 1142 2972 
Q 928 2841 928 2578 
Q 928 2378 1081 2264 
Q 1234 2150 1697 2047 
L 1894 2003 
Q 2506 1872 2764 1633 
Q 3022 1394 3022 966 
Q 3022 478 2636 193 
Q 2250 -91 1575 -91 
Q 1294 -91 989 -36 
Q 684 19 347 128 
L 347 722 
Q 666 556 975 473 
Q 1284 391 1588 391 
Q 1994 391 2212 530 
Q 2431 669 2431 922 
Q 2431 1156 2273 1281 
Q 2116 1406 1581 1522 
L 1381 1569 
Q 847 1681 609 1914 
Q 372 2147 372 2553 
Q 372 3047 722 3315 
Q 1072 3584 1716 3584 
Q 2034 3584 2315 3537 
Q 2597 3491 2834 3397 
z
" transform="scale(0.015625)"/>
       <path id="DejaVuSans-74" d="M 1172 4494 
L 1172 3500 
L 2356 3500 
L 2356 3053 
L 1172 3053 
L 1172 1153 
Q 1172 725 1289 603 
Q 1406 481 1766 481 
L 2356 481 
L 2356 0 
L 1766 0 
Q 1100 0 847 248 
Q 594 497 594 1153 
L 594 3053 
L 172 3053 
L 172 3500 
L 594 3500 
L 594 4494 
L 1172 4494 
z
" transform="scale(0.015625)"/>
       <path id="DejaVuSans-28" d="M 1984 4856 
Q 1566 4138 1362 3434 
Q 1159 2731 1159 2009 
Q 1159 1288 1364 580 
Q 1569 -128 1984 -844 
L 1484 -844 
Q 1016 -109 783 600 
Q 550 1309 550 2009 
Q 550 2706 781 3412 
Q 1013 4119 1484 4856 
L 1984 4856 
z
" transform="scale(0.015625)"/>
       <path id="DejaVuSans-29" d="M 513 4856 
L 1013 4856 
Q 1481 4119 1714 3412 
Q 1947 2706 1947 2009 
Q 1947 1309 1714 600 
Q 1481 -109 1013 -844 
L 513 -844 
Q 928 -128 1133 580 
Q 1338 1288 1338 2009 
Q 1338 2731 1133 3434 
Q 928 4138 513 4856 
z
" transform="scale(0.015625)"/>
      </defs>
      <use xlink:href="#DejaVuSans-45"/>
      <use xlink:href="#DejaVuSans-61" x="63.183594"/>
      <use xlink:href="#DejaVuSans-73" x="124.462891"/>
      <use xlink:href="#DejaVuSans-74" x="176.5625"/>
      <use xlink:href="#DejaVuSans-28" x="215.771484"/>
      <use xlink:href="#DejaVuSans-6d" x="254.785156"/>
      <use xlink:href="#DejaVuSans-29" x="352.197266"/>
     </g>
    </g>
   </g>
   <g id="line2d_18">
    <path d="M 312.328317 293.227479 
L 315 351.930548 
L 317.671683 353.881686 
L 320.343365 353.822892 
L 323.015048 318.003858 
L 325.686731 252.840476 
L 328.358413 251.090592 
L 331.030096 374.270144 
L 333.701778 274.349195 
L 336.373461 332.004137 
L 339.045144 336.701423 
L 341.716826 271.545851 
L 344.388509 317.862174 
L 347.060192 319.486968 
L 349.731874 319.438007 
L 352.403557 256.266033 
L 355.075239 313.129479 
L 357.746922 314.742824 
L 360.418605 326.9175 
L 363.090287 327.171698 
L 365.76197 235.867108 
L 368.433653 317.941299 
L 371.105335 410.031177 
L 373.777018 376.020771 
L 376.4487 319.818024 
L 379.120383 318.086243 
L 381.792066 318.138427 
L 384.463748 405.913663 
L 387.135431 292.800846 
L 389.807114 289.625626 
L 392.478796 327.172842 
L 395.150479 341.677422 
L 397.822161 399.436742 
L 400.493844 405.71347 
L 403.165527 378.184893 
L 405.837209 312.91571 
L 408.508892 236.002913 
L 411.180575 335.508506 
L 413.852257 338.860625 
L 416.52394 338.759615 
L 419.195622 310.280965 
L 421.867305 309.831081 
L 424.538988 345.242572 
L 427.21067 307.614116 
L 429.882353 260.339675 
L 432.554036 361.08467 
L 435.225718 351.414523 
L 437.897401 350.896415 
L 440.569083 263.864834 
L 443.240766 356.88541 
L 445.912449 324.120467 
L 448.584131 241.183631 
L 451.255814 330.123717 
L 453.927497 374.244493 
L 456.599179 351.535748 
L 459.270862 300.25574 
L 461.942544 320.925482 
L 464.614227 321.691278 
L 467.28591 469.693373 
L 469.957592 472.83167 
L 472.629275 376.123755 
L 475.300958 374.218977 
L 477.97264 374.276374 
L 480.644323 262.873036 
L 483.316005 236.408842 
L 485.987688 304.398784 
L 488.659371 427.389552 
L 491.331053 431.186323 
L 494.002736 255.639445 
L 496.674419 304.778204 
L 499.346101 366.094318 
L 502.017784 308.639992 
L 504.689466 306.68345 
L 507.361149 366.662861 
L 510.032832 365.303597 
L 512.704514 417.846954 
L 515.376197 488.374704 
L 518.04788 362.677129 
L 520.719562 283.782891 
L 523.391245 368.563952 
L 526.062927 337.77549 
L 528.73461 253.46938 
L 531.406293 250.826268 
L 534.077975 398.29279 
L 536.749658 284.894968 
L 539.421341 265.017731 
L 542.093023 385.165699 
L 544.764706 325.775987 
L 547.436389 358.851919 
L 550.108071 352.449874 
L 552.779754 358.960228 
L 555.451436 444.767607 
L 558.123119 400.102844 
L 560.794802 397.539427 
L 563.466484 326.808328 
L 566.138167 241.082485 
L 568.80985 398.198958 
L 571.481532 287.579942 
L 574.153215 379.411542 
L 576.824897 342.633104 
L 579.49658 341.248603 
L 582.168263 341.290323 
L 584.839945 450.061105 
L 587.511628 469.182593 
L 590.183311 314.046924 
L 592.854993 289.769466 
L 595.526676 279.265822 
L 598.198358 217.694106 
L 600.870041 306.349028 
L 603.541724 403.646201 
L 606.213406 439.337582 
L 608.885089 427.837343 
L 611.556772 427.406948 
L 614.228454 427.419917 
L 616.900137 327.916991 
L 619.571819 326.346168 
L 622.243502 326.393502 
L 624.915185 305.513107 
L 627.586867 316.832473 
L 630.25855 427.180109 
L 632.930233 356.152067 
L 635.601915 338.815017 
L 638.273598 324.412375 
L 640.94528 412.861255 
L 643.616963 415.735509 
L 648.960328 415.651509 
L 651.632011 415.65143 
L 654.303694 244.472152 
L 656.975376 263.320195 
L 659.647059 322.153286 
L 662.318741 323.91654 
L 664.990424 216.113149 
L 667.662107 354.174155 
L 670.333789 358.310162 
L 673.005472 352.55545 
L 675.677155 438.699084 
L 678.348837 309.705945 
L 681.02052 270.376861 
L 683.692202 351.933736 
L 686.363885 294.824344 
L 689.035568 304.977757 
L 691.70725 328.862985 
L 694.378933 329.604267 
L 697.050616 329.581929 
L 699.722298 395.845943 
L 702.393981 428.437499 
L 705.065663 293.459037 
L 707.737346 225.126436 
L 710.409029 223.205168 
L 713.080711 249.800469 
L 715.752394 223.038177 
L 718.424077 343.893019 
L 721.095759 290.30906 
L 723.767442 253.787268 
L 726.439124 270.339979 
L 729.110807 326.192453 
L 731.78249 344.789441 
L 734.454172 360.276772 
L 737.125855 360.745227 
L 739.797538 360.731111 
L 742.46922 219.58479 
L 745.140903 217.355671 
L 747.812585 315.231582 
L 750.484268 369.700652 
L 753.155951 426.584945 
L 755.827633 393.29779 
L 758.499316 299.873797 
L 761.170999 351.39866 
L 763.842681 275.909136 
L 766.514364 325.003295 
L 769.186047 370.13196 
L 771.857729 268.7951 
L 774.529412 265.447427 
L 777.201094 325.536049 
L 779.872777 326.804273 
L 785.216142 326.767209 
L 787.887825 372.375949 
L 790.559508 372.925878 
L 793.23119 407.182673 
L 795.902873 407.810642 
L 798.574555 507.966163 
L 801.246238 442.955816 
L 803.917921 413.528194 
L 806.589603 407.874297 
L 809.261286 407.742966 
L 811.932969 401.744611 
L 814.604651 398.976142 
L 817.276334 398.903295 
L 819.948016 240.707956 
L 822.619699 266.939388 
L 825.291382 297.716378 
L 827.963064 298.62559 
L 830.634747 284.472182 
L 833.30643 318.50119 
L 835.978112 381.242964 
L 838.649795 383.155578 
L 843.99316 383.099682 
L 846.664843 419.725723 
L 849.336525 394.327838 
L 852.008208 393.634518 
L 854.679891 314.384418 
L 857.351573 421.301728 
L 860.023256 385.539307 
L 862.694938 467.04724 
L 865.366621 412.285185 
L 868.038304 274.187674 
L 870.709986 269.85445 
L 873.381669 204.832616 
L 876.053352 277.837204 
L 878.725034 280.038824 
L 881.396717 416.931273 
L 884.068399 384.309054 
L 886.740082 419.367822 
L 889.411765 333.981579 
L 892.083447 279.903761 
L 894.75513 278.336852 
L 897.426813 270.439797 
L 900.098495 295.055497 
L 902.770178 344.229992 
L 905.44186 289.313091 
L 908.113543 399.335974 
L 910.785226 368.453254 
L 913.456908 426.215463 
L 916.128591 323.442797 
L 918.800274 275.405204 
L 921.471956 279.619956 
L 924.143639 279.8389 
L 926.815321 279.322921 
L 929.487004 207.228677 
L 932.158687 341.266646 
L 934.830369 389.323499 
L 937.502052 287.959355 
L 940.173735 284.614414 
L 942.845417 333.709387 
L 945.5171 334.745582 
L 948.188782 334.714358 
L 950.860465 326.122086 
L 953.532148 390.203797 
L 956.20383 312.167049 
L 958.875513 309.642835 
L 961.547196 221.642872 
L 964.218878 219.783885 
L 966.890561 219.839902 
L 969.562244 254.962851 
L 972.233926 220.165405 
L 974.905609 255.274954 
L 977.577291 280.587722 
L 980.248974 347.97986 
L 982.920657 313.837376 
L 985.592339 385.200193 
L 988.264022 323.866122 
L 990.935705 421.829253 
L 993.607387 337.017861 
L 996.27907 334.083099 
L 998.950752 268.763368 
L 1001.622435 398.152686 
L 1004.294118 401.991195 
L 1006.9658 316.47821 
L 1009.637483 337.674423 
L 1012.309166 338.392847 
L 1017.652531 338.371851 
L 1020.324213 389.447344 
L 1022.995896 341.13713 
L 1025.667579 382.84068 
L 1028.339261 358.892381 
L 1031.010944 405.370495 
L 1033.682627 375.152754 
L 1036.354309 274.775854 
L 1039.025992 332.547783 
L 1041.697674 265.093695 
L 1044.369357 319.108353 
L 1047.04104 388.833458 
L 1049.712722 434.86689 
L 1052.384405 436.215584 
L 1055.056088 449.026641 
L 1057.72777 421.21188 
L 1060.399453 420.388246 
L 1063.071135 423.648119 
L 1065.742818 458.017168 
L 1068.414501 453.40723 
L 1071.086183 387.345496 
L 1073.757866 424.555054 
L 1076.429549 353.379598 
L 1079.101231 387.994512 
L 1081.772914 389.257965 
L 1084.444596 389.219893 
L 1087.116279 352.544002 
L 1089.787962 311.673501 
L 1092.459644 358.327714 
L 1095.131327 420.467187 
L 1097.80301 470.113841 
L 1100.474692 330.600107 
L 1103.146375 337.625689 
L 1105.818057 389.510327 
L 1108.48974 405.12424 
L 1111.161423 300.07064 
L 1113.833105 296.663676 
L 1116.504788 371.777328 
L 1119.176471 315.409366 
L 1121.848153 313.679048 
L 1124.519836 313.731188 
L 1127.191518 336.674559 
L 1129.863201 365.091377 
L 1132.534884 387.891651 
L 1135.206566 276.09887 
L 1137.878249 359.403004 
L 1140.549932 362.310046 
L 1143.221614 362.222448 
L 1145.893297 330.184213 
L 1148.564979 273.207582 
L 1151.236662 275.976356 
L 1153.908345 386.05981 
L 1156.580027 349.959885 
L 1159.25171 368.895276 
L 1161.923393 334.422179 
L 1164.595075 342.276318 
L 1167.266758 433.982644 
L 1169.93844 488.262323 
L 1172.610123 489.82701 
L 1175.281806 489.779861 
L 1177.953488 430.699713 
L 1180.625171 429.766956 
L 1183.296854 305.216837 
L 1185.968536 302.856783 
L 1188.640219 243.248311 
L 1191.311902 400.956936 
L 1193.983584 405.519962 
L 1196.655267 405.382464 
L 1210.01368 405.386486 
L 1212.685363 466.340574 
L 1215.357045 341.07327 
L 1218.028728 348.710351 
L 1220.70041 431.213729 
L 1226.043776 364.213237 
L 1228.715458 344.821198 
L 1231.387141 397.843236 
L 1234.058824 326.111586 
L 1236.730506 422.269992 
L 1239.402189 335.912893 
L 1242.073871 294.477647 
L 1244.745554 293.328271 
L 1247.417237 304.796872 
L 1250.088919 305.038271 
L 1252.760602 322.192164 
L 1255.432285 341.810899 
L 1258.103967 429.18748 
L 1260.77565 431.894874 
L 1263.447332 431.813291 
L 1266.119015 379.678355 
L 1268.790698 381.812881 
L 1271.46238 302.257681 
L 1274.134063 415.533184 
L 1276.805746 285.447 
L 1279.477428 303.418554 
L 1282.149111 433.309545 
L 1284.820793 437.437797 
L 1287.492476 284.396924 
L 1290.164159 426.524431 
L 1292.835841 359.649338 
L 1295.507524 299.020688 
L 1298.179207 425.085816 
L 1300.850889 418.986613 
L 1303.522572 386.055655 
L 1306.194254 381.033722 
L 1308.865937 380.936303 
L 1311.53762 490.926635 
L 1314.209302 328.154497 
L 1316.880985 323.290432 
L 1319.552668 213.811928 
L 1322.22435 211.519928 
L 1324.896033 376.912116 
L 1327.567715 344.251302 
L 1330.239398 343.126536 
L 1332.911081 279.885166 
L 1335.582763 370.505499 
L 1338.254446 293.555008 
L 1340.926129 415.58091 
L 1343.597811 419.783544 
L 1346.269494 335.316066 
L 1348.941176 306.82834 
L 1351.612859 413.954633 
L 1354.284542 291.22713 
L 1356.956224 290.864207 
L 1359.627907 284.538723 
L 1362.29959 259.84789 
L 1364.971272 266.204884 
L 1367.642955 273.542932 
L 1370.314637 349.183621 
L 1372.98632 351.606698 
L 1375.658003 351.533683 
L 1378.329685 386.234396 
L 1381.001368 329.800409 
L 1383.673051 328.224674 
L 1386.344733 328.057352 
L 1389.016416 320.868491 
L 1391.688098 322.216291 
L 1397.031464 322.269762 
L 1399.703146 297.564111 
L 1402.374829 308.719214 
L 1405.046512 330.187021 
L 1407.718194 419.400774 
L 1410.389877 394.154711 
L 1413.06156 393.166699 
L 1415.733242 462.235468 
L 1421.076607 282.359264 
L 1423.74829 279.744644 
L 1429.091655 279.821057 
L 1431.763338 279.821128 
L 1434.435021 495.305448 
L 1437.106703 497.555709 
L 1439.778386 497.487901 
L 1442.450068 375.385336 
L 1445.121751 312.842678 
L 1447.793434 350.093075 
L 1450.465116 348.076357 
L 1453.136799 308.467569 
L 1455.808482 355.943299 
L 1458.480164 395.141806 
L 1461.151847 394.145916 
L 1463.823529 363.865681 
L 1466.495212 453.841223 
L 1469.166895 456.797318 
L 1471.838577 528.479136 
L 1474.51026 548.364446 
L 1477.181943 548.851632 
L 1482.525308 556.488026 
L 1485.19699 362.494624 
L 1487.868673 456.729305 
L 1490.540356 425.976221 
L 1493.212038 424.773373 
L 1495.883721 378.260452 
L 1498.555404 321.595797 
L 1501.227086 314.100851 
L 1503.898769 400.977318 
L 1506.570451 392.860822 
L 1509.242134 392.42505 
L 1511.913817 392.968016 
L 1514.585499 415.593684 
L 1517.257182 410.577131 
L 1519.928865 362.202003 
L 1522.600547 316.388511 
L 1525.27223 372.952417 
L 1527.943912 297.437174 
L 1530.615595 299.675211 
L 1533.287278 225.566361 
L 1535.95896 346.049854 
L 1538.630643 380.901802 
L 1541.302326 277.097429 
L 1543.974008 354.942396 
L 1546.645691 456.729801 
L 1549.317373 485.039159 
L 1551.989056 469.0255 
L 1554.660739 468.464801 
L 1557.332421 456.517637 
L 1560.004104 386.457306 
L 1562.675787 331.942981 
L 1565.347469 346.224413 
L 1568.019152 362.851592 
L 1570.690834 335.281107 
L 1573.362517 334.360666 
L 1576.0342 370.284632 
L 1578.705882 426.510269 
L 1581.377565 337.994679 
L 1584.049248 283.089661 
L 1586.72093 281.508018 
L 1589.392613 281.555678 
L 1592.064295 216.410017 
L 1594.735978 273.987557 
L 1597.407661 411.161434 
L 1600.079343 415.320732 
L 1602.751026 415.195399 
L 1618.781122 415.199065 
L 1621.452804 388.598046 
L 1624.124487 434.141442 
L 1626.79617 433.274701 
L 1629.467852 353.771058 
L 1632.139535 409.343008 
L 1634.811218 486.860399 
L 1637.4829 489.237852 
L 1640.154583 489.166212 
L 1642.826265 509.188788 
L 1645.497948 401.281705 
L 1648.169631 471.816365 
L 1650.841313 439.012857 
L 1656.184679 253.138379 
L 1658.856361 250.314709 
L 1664.199726 250.397232 
L 1666.871409 229.880775 
L 1669.543092 275.552047 
L 1672.214774 335.237636 
L 1674.886457 337.144179 
L 1677.55814 290.554355 
L 1680.229822 383.674988 
L 1682.901505 471.56269 
L 1685.573187 323.116003 
L 1688.24487 302.794026 
L 1690.916553 376.321254 
L 1693.588235 308.926804 
L 1696.259918 306.609505 
L 1698.931601 383.387507 
L 1701.603283 385.009965 
L 1704.274966 235.436692 
L 1706.946648 393.076241 
L 1709.618331 397.757983 
L 1712.290014 449.86368 
L 1714.961696 463.404606 
L 1717.633379 463.731766 
L 1725.648427 463.722196 
L 1728.320109 329.70512 
L 1730.991792 328.314777 
L 1733.663475 328.356673 
L 1736.335157 475.734186 
L 1739.00684 492.60489 
L 1741.678523 340.288502 
L 1744.350205 332.975475 
L 1747.021888 351.822212 
L 1749.69357 352.425048 
L 1752.365253 288.983323 
L 1755.036936 268.971849 
L 1757.708618 268.470301 
L 1760.380301 268.485414 
L 1763.051984 301.434986 
L 1765.723666 419.08699 
L 1768.395349 422.2698 
L 1771.067031 370.300927 
L 1773.738714 381.477347 
L 1776.410397 410.585023 
L 1779.082079 367.790091 
L 1781.753762 367.242541 
L 1784.425445 460.741166 
L 1787.097127 418.716213 
L 1789.76881 435.301788 
L 1792.440492 347.48583 
L 1795.112175 344.617511 
L 1797.783858 312.147017 
L 1800.45554 311.454356 
L 1803.127223 276.253668 
L 1805.798906 225.520623 
L 1808.470588 274.183117 
L 1811.142271 398.282617 
L 1813.813953 348.706133 
L 1816.485636 418.421046 
L 1819.157319 394.593024 
L 1821.829001 393.678174 
L 1824.500684 302.017866 
L 1827.172367 233.474269 
L 1829.844049 231.599167 
L 1832.515732 231.65567 
L 1835.187415 335.546268 
L 1837.859097 265.825059 
L 1840.53078 263.828257 
L 1843.202462 437.313827 
L 1845.874145 347.218709 
L 1848.545828 422.442775 
L 1851.21751 287.624419 
L 1853.889193 264.802154 
L 1856.560876 360.791589 
L 1859.232558 363.91578 
L 1861.904241 290.576499 
L 1864.575923 226.539516 
L 1867.247606 308.94255 
L 1869.919289 238.251498 
L 1872.590971 235.81601 
L 1877.934337 235.887188 
L 1880.606019 235.887254 
L 1883.277702 332.686049 
L 1885.949384 228.041545 
L 1888.621067 225.313429 
L 1893.964432 225.393159 
L 1896.636115 261.528546 
L 1899.307798 261.973722 
L 1901.97948 214.29551 
L 1904.651163 325.044161 
L 1907.322845 324.236262 
L 1909.994528 247.07457 
L 1912.666211 357.68081 
L 1915.337893 262.665787 
L 1918.009576 237.61924 
L 1920.681259 244.064355 
L 1923.352941 244.309395 
L 1926.024624 311.472686 
L 1928.696306 403.87341 
L 1931.367989 279.222086 
L 1934.039672 235.112451 
L 1936.711354 293.462245 
L 1939.383037 312.335041 
L 1942.05472 312.821926 
L 1944.726402 339.195813 
L 1947.398085 378.895384 
L 1950.069767 326.469359 
L 1952.74145 402.245126 
L 1955.413133 404.782525 
L 1958.084815 404.706065 
L 1960.756498 503.662247 
L 1963.428181 505.224941 
L 1966.099863 505.177852 
L 1968.771546 421.835063 
L 1971.443228 420.626051 
L 1974.114911 474.776395 
L 1976.786594 475.788765 
L 1979.458276 370.94396 
L 1982.129959 420.344709 
L 1984.801642 421.871326 
L 1987.473324 430.397489 
L 1990.145007 421.437225 
L 1992.816689 383.404185 
L 1995.488372 288.737621 
L 1998.160055 340.634494 
L 2000.831737 443.943244 
L 2003.50342 447.159243 
L 2006.175103 447.062335 
L 2008.846785 288.880246 
L 2011.518468 286.382031 
L 2014.19015 229.216653 
L 2016.861833 257.772323 
L 2019.533516 256.535495 
L 2022.205198 256.44313 
L 2024.876881 416.080299 
L 2027.548564 333.97839 
L 2030.220246 331.397163 
L 2032.891929 398.390655 
L 2035.563611 357.757923 
L 2038.235294 333.846244 
L 2040.906977 371.474945 
L 2043.578659 263.600251 
L 2046.250342 381.6047 
L 2048.922025 385.632142 
L 2051.593707 385.510783 
L 2056.937073 277.989433 
L 2059.608755 276.566573 
L 2062.280438 378.745384 
L 2064.95212 380.855887 
L 2067.623803 273.96196 
L 2070.295486 271.862335 
L 2072.967168 341.2178 
L 2075.638851 440.328508 
L 2078.310534 293.217368 
L 2080.982216 225.857095 
L 2083.653899 334.417263 
L 2086.325581 338.030052 
L 2088.997264 263.985071 
L 2091.668947 262.420124 
L 2097.012312 262.465859 
L 2099.683995 213.97668 
L 2102.355677 213.391973 
L 2105.02736 302.549866 
L 2107.699042 304.181312 
L 2110.370725 304.132151 
L 2113.042408 346.816312 
L 2115.71409 347.445056 
L 2118.385773 295.065255 
L 2121.057456 294.083231 
L 2123.729138 269.590386 
L 2126.400821 299.833406 
L 2129.072503 358.006271 
L 2131.744186 359.774673 
L 2134.415869 446.04035 
L 2137.087551 376.75102 
L 2139.759234 374.632861 
L 2142.430917 374.696688 
L 2145.102599 268.298556 
L 2147.774282 288.640969 
L 2150.445964 225.908606 
L 2153.117647 223.921906 
L 2155.78933 223.981771 
L 2158.461012 380.771535 
L 2161.132695 322.070799 
L 2163.804378 268.303073 
L 2166.47606 226.639319 
L 2169.147743 392.971269 
L 2171.819425 274.046341 
L 2174.491108 364.930741 
L 2177.162791 270.333898 
L 2179.834473 328.543796 
L 2182.506156 361.205124 
L 2185.177839 258.926664 
L 2187.849521 327.230626 
L 2190.521204 407.504133 
L 2193.192886 316.543002 
L 2195.864569 313.462997 
L 2201.207934 313.553011 
L 2203.879617 272.281806 
L 2206.5513 349.733004 
L 2209.222982 376.717695 
L 2211.894665 338.867319 
L 2214.566347 362.301822 
L 2217.23803 423.792556 
L 2219.909713 347.743729 
L 2222.581395 355.268685 
L 2225.253078 398.719571 
L 2227.924761 352.498129 
L 2230.596443 350.925315 
L 2233.268126 350.972709 
L 2235.939808 210.303557 
L 2238.611491 242.952569 
L 2241.283174 243.9735 
L 2249.298222 243.943635 
L 2251.969904 483.552514 
L 2254.641587 496.933009 
L 2257.313269 466.152271 
L 2259.984952 342.89241 
L 2262.656635 388.110382 
L 2265.328317 390.821689 
L 2268 427.932478 
L 2270.671683 429.127271 
L 2270.671683 429.127271 
" clip-path="url(#pd404c0e677)" style="fill: none; stroke: #ff0000; stroke-width: 1.8; stroke-linecap: square"/>
   </g>
   <g id="patch_3">
    <path d="M 315 640.8 
L 315 86.4 
" style="fill: none; stroke: #000000; stroke-width: 0.8; stroke-linejoin: miter; stroke-linecap: square"/>
   </g>
   <g id="patch_4">
    <path d="M 2268 640.8 
L 2268 86.4 
" style="fill: none; stroke: #000000; stroke-width: 0.8; stroke-linejoin: miter; stroke-linecap: square"/>
   </g>
   <g id="patch_5">
    <path d="M 315 640.8 
L 2268 640.8 
" style="fill: none; stroke: #000000; stroke-width: 0.8; stroke-linejoin: miter; stroke-linecap: square"/>
   </g>
   <g id="patch_6">
    <path d="M 315 86.4 
L 2268 86.4 
" style="fill: none; stroke: #000000; stroke-width: 0.8; stroke-linejoin: miter; stroke-linecap: square"/>
   </g>
   <g id="text_20">
    <!-- Model ARIMA - KOPE (east) -->
    <g transform="translate(1157.503125 80.4) scale(0.2 -0.2)">
     <defs>
      <path id="DejaVuSans-4d" d="M 628 4666 
L 1569 4666 
L 2759 1491 
L 3956 4666 
L 4897 4666 
L 4897 0 
L 4281 0 
L 4281 4097 
L 3078 897 
L 2444 897 
L 1241 4097 
L 1241 0 
L 628 0 
L 628 4666 
z
" transform="scale(0.015625)"/>
      <path id="DejaVuSans-6f" d="M 1959 3097 
Q 1497 3097 1228 2736 
Q 959 2375 959 1747 
Q 959 1119 1226 758 
Q 1494 397 1959 397 
Q 2419 397 2687 759 
Q 2956 1122 2956 1747 
Q 2956 2369 2687 2733 
Q 2419 3097 1959 3097 
z
M 1959 3584 
Q 2709 3584 3137 3096 
Q 3566 2609 3566 1747 
Q 3566 888 3137 398 
Q 2709 -91 1959 -91 
Q 1206 -91 779 398 
Q 353 888 353 1747 
Q 353 2609 779 3096 
Q 1206 3584 1959 3584 
z
" transform="scale(0.015625)"/>
      <path id="DejaVuSans-64" d="M 2906 2969 
L 2906 4863 
L 3481 4863 
L 3481 0 
L 2906 0 
L 2906 525 
Q 2725 213 2448 61 
Q 2172 -91 1784 -91 
Q 1150 -91 751 415 
Q 353 922 353 1747 
Q 353 2572 751 3078 
Q 1150 3584 1784 3584 
Q 2172 3584 2448 3432 
Q 2725 3281 2906 2969 
z
M 947 1747 
Q 947 1113 1208 752 
Q 1469 391 1925 391 
Q 2381 391 2643 752 
Q 2906 1113 2906 1747 
Q 2906 2381 2643 2742 
Q 2381 3103 1925 3103 
Q 1469 3103 1208 2742 
Q 947 2381 947 1747 
z
" transform="scale(0.015625)"/>
      <path id="DejaVuSans-6c" d="M 603 4863 
L 1178 4863 
L 1178 0 
L 603 0 
L 603 4863 
z
" transform="scale(0.015625)"/>
      <path id="DejaVuSans-20" transform="scale(0.015625)"/>
      <path id="DejaVuSans-41" d="M 2188 4044 
L 1331 1722 
L 3047 1722 
L 2188 4044 
z
M 1831 4666 
L 2547 4666 
L 4325 0 
L 3669 0 
L 3244 1197 
L 1141 1197 
L 716 0 
L 50 0 
L 1831 4666 
z
" transform="scale(0.015625)"/>
      <path id="DejaVuSans-52" d="M 2841 2188 
Q 3044 2119 3236 1894 
Q 3428 1669 3622 1275 
L 4263 0 
L 3584 0 
L 2988 1197 
Q 2756 1666 2539 1819 
Q 2322 1972 1947 1972 
L 1259 1972 
L 1259 0 
L 628 0 
L 628 4666 
L 2053 4666 
Q 2853 4666 3247 4331 
Q 3641 3997 3641 3322 
Q 3641 2881 3436 2590 
Q 3231 2300 2841 2188 
z
M 1259 4147 
L 1259 2491 
L 2053 2491 
Q 2509 2491 2742 2702 
Q 2975 2913 2975 3322 
Q 2975 3731 2742 3939 
Q 2509 4147 2053 4147 
L 1259 4147 
z
" transform="scale(0.015625)"/>
      <path id="DejaVuSans-49" d="M 628 4666 
L 1259 4666 
L 1259 0 
L 628 0 
L 628 4666 
z
" transform="scale(0.015625)"/>
      <path id="DejaVuSans-4b" d="M 628 4666 
L 1259 4666 
L 1259 2694 
L 3353 4666 
L 4166 4666 
L 1850 2491 
L 4331 0 
L 3500 0 
L 1259 2247 
L 1259 0 
L 628 0 
L 628 4666 
z
" transform="scale(0.015625)"/>
      <path id="DejaVuSans-4f" d="M 2522 4238 
Q 1834 4238 1429 3725 
Q 1025 3213 1025 2328 
Q 1025 1447 1429 934 
Q 1834 422 2522 422 
Q 3209 422 3611 934 
Q 4013 1447 4013 2328 
Q 4013 3213 3611 3725 
Q 3209 4238 2522 4238 
z
M 2522 4750 
Q 3503 4750 4090 4092 
Q 4678 3434 4678 2328 
Q 4678 1225 4090 567 
Q 3503 -91 2522 -91 
Q 1538 -91 948 565 
Q 359 1222 359 2328 
Q 359 3434 948 4092 
Q 1538 4750 2522 4750 
z
" transform="scale(0.015625)"/>
      <path id="DejaVuSans-50" d="M 1259 4147 
L 1259 2394 
L 2053 2394 
Q 2494 2394 2734 2622 
Q 2975 2850 2975 3272 
Q 2975 3691 2734 3919 
Q 2494 4147 2053 4147 
L 1259 4147 
z
M 628 4666 
L 2053 4666 
Q 2838 4666 3239 4311 
Q 3641 3956 3641 3272 
Q 3641 2581 3239 2228 
Q 2838 1875 2053 1875 
L 1259 1875 
L 1259 0 
L 628 0 
L 628 4666 
z
" transform="scale(0.015625)"/>
     </defs>
     <use xlink:href="#DejaVuSans-4d"/>
     <use xlink:href="#DejaVuSans-6f" x="86.279297"/>
     <use xlink:href="#DejaVuSans-64" x="147.460938"/>
     <use xlink:href="#DejaVuSans-65" x="210.9375"/>
     <use xlink:href="#DejaVuSans-6c" x="272.460938"/>
     <use xlink:href="#DejaVuSans-20" x="300.244141"/>
     <use xlink:href="#DejaVuSans-41" x="332.03125"/>
     <use xlink:href="#DejaVuSans-52" x="400.439453"/>
     <use xlink:href="#DejaVuSans-49" x="469.921875"/>
     <use xlink:href="#DejaVuSans-4d" x="499.414062"/>
     <use xlink:href="#DejaVuSans-41" x="585.693359"/>
     <use xlink:href="#DejaVuSans-20" x="654.101562"/>
     <use xlink:href="#DejaVuSans-2d" x="685.888672"/>
     <use xlink:href="#DejaVuSans-20" x="721.972656"/>
     <use xlink:href="#DejaVuSans-4b" x="753.759766"/>
     <use xlink:href="#DejaVuSans-4f" x="813.835938"/>
     <use xlink:href="#DejaVuSans-50" x="892.546875"/>
     <use xlink:href="#DejaVuSans-45" x="952.849609"/>
     <use xlink:href="#DejaVuSans-20" x="1016.033203"/>
     <use xlink:href="#DejaVuSans-28" x="1047.820312"/>
     <use xlink:href="#DejaVuSans-65" x="1086.833984"/>
     <use xlink:href="#DejaVuSans-61" x="1148.357422"/>
     <use xlink:href="#DejaVuSans-73" x="1209.636719"/>
     <use xlink:href="#DejaVuSans-74" x="1261.736328"/>
     <use xlink:href="#DejaVuSans-29" x="1300.945312"/>
    </g>
   </g>
   <g id="legend_1">
    <g id="patch_7">
     <path d="M 2165.003125 109.078125 
L 2261 109.078125 
Q 2263 109.078125 2263 107.078125 
L 2263 93.4 
Q 2263 91.4 2261 91.4 
L 2165.003125 91.4 
Q 2163.003125 91.4 2163.003125 93.4 
L 2163.003125 107.078125 
Q 2163.003125 109.078125 2165.003125 109.078125 
z
" style="fill: #ffffff; opacity: 0.8; stroke: #cccccc; stroke-linejoin: miter"/>
    </g>
    <g id="line2d_19">
     <path d="M 2167.003125 99.498438 
L 2177.003125 99.498438 
L 2187.003125 99.498438 
" style="fill: none; stroke: #ff0000; stroke-width: 1.8; stroke-linecap: square"/>
    </g>
    <g id="text_21">
     <!-- Fitted Values -->
     <g transform="translate(2195.003125 102.998438) scale(0.1 -0.1)">
      <defs>
       <path id="DejaVuSans-46" d="M 628 4666 
L 3309 4666 
L 3309 4134 
L 1259 4134 
L 1259 2759 
L 3109 2759 
L 3109 2228 
L 1259 2228 
L 1259 0 
L 628 0 
L 628 4666 
z
" transform="scale(0.015625)"/>
       <path id="DejaVuSans-56" d="M 1831 0 
L 50 4666 
L 709 4666 
L 2188 738 
L 3669 4666 
L 4325 4666 
L 2547 0 
L 1831 0 
z
" transform="scale(0.015625)"/>
       <path id="DejaVuSans-75" d="M 544 1381 
L 544 3500 
L 1119 3500 
L 1119 1403 
Q 1119 906 1312 657 
Q 1506 409 1894 409 
Q 2359 409 2629 706 
Q 2900 1003 2900 1516 
L 2900 3500 
L 3475 3500 
L 3475 0 
L 2900 0 
L 2900 538 
Q 2691 219 2414 64 
Q 2138 -91 1772 -91 
Q 1169 -91 856 284 
Q 544 659 544 1381 
z
M 1991 3584 
L 1991 3584 
z
" transform="scale(0.015625)"/>
      </defs>
      <use xlink:href="#DejaVuSans-46"/>
      <use xlink:href="#DejaVuSans-69" x="50.269531"/>
      <use xlink:href="#DejaVuSans-74" x="78.052734"/>
      <use xlink:href="#DejaVuSans-74" x="117.261719"/>
      <use xlink:href="#DejaVuSans-65" x="156.470703"/>
      <use xlink:href="#DejaVuSans-64" x="217.994141"/>
      <use xlink:href="#DejaVuSans-20" x="281.470703"/>
      <use xlink:href="#DejaVuSans-56" x="313.257812"/>
      <use xlink:href="#DejaVuSans-61" x="373.916016"/>
      <use xlink:href="#DejaVuSans-6c" x="435.195312"/>
      <use xlink:href="#DejaVuSans-75" x="462.978516"/>
      <use xlink:href="#DejaVuSans-65" x="526.357422"/>
      <use xlink:href="#DejaVuSans-73" x="587.880859"/>
     </g>
    </g>
   </g>
  </g>
 </g>
 <defs>
  <clipPath id="pd404c0e677">
   <rect x="315" y="86.4" width="1953" height="554.4"/>
  </clipPath>
 </defs>
</svg>
