<?xml version="1.0" encoding="utf-8" standalone="no"?>
<!DOCTYPE svg PUBLIC "-//W3C//DTD SVG 1.1//EN"
  "http://www.w3.org/Graphics/SVG/1.1/DTD/svg11.dtd">
<svg xmlns:xlink="http://www.w3.org/1999/xlink" width="2520pt" height="720pt" viewBox="0 0 2520 720" xmlns="http://www.w3.org/2000/svg" version="1.1">
 <metadata>
  <rdf:RDF xmlns:dc="http://purl.org/dc/elements/1.1/" xmlns:cc="http://creativecommons.org/ns#" xmlns:rdf="http://www.w3.org/1999/02/22-rdf-syntax-ns#">
   <cc:Work>
    <dc:type rdf:resource="http://purl.org/dc/dcmitype/StillImage"/>
    <dc:date>2024-02-08T12:11:43.947965</dc:date>
    <dc:format>image/svg+xml</dc:format>
    <dc:creator>
     <cc:Agent>
      <dc:title>Matplotlib v3.7.1, https://matplotlib.org/</dc:title>
     </cc:Agent>
    </dc:creator>
   </cc:Work>
  </rdf:RDF>
 </metadata>
 <defs>
  <style type="text/css">*{stroke-linejoin: round; stroke-linecap: butt}</style>
 </defs>
 <g id="figure_1">
  <g id="patch_1">
   <path d="M 0 720 
L 2520 720 
L 2520 0 
L 0 0 
z
" style="fill: #ffffff"/>
  </g>
  <g id="axes_1">
   <g id="patch_2">
    <path d="M 315 640.8 
L 2268 640.8 
L 2268 86.4 
L 315 86.4 
z
" style="fill: #ffffff"/>
   </g>
   <g id="matplotlib.axis_1">
    <g id="xtick_1">
     <g id="line2d_1">
      <defs>
       <path id="me6be53b71f" d="M 0 0 
L 0 3.5 
" style="stroke: #000000; stroke-width: 0.8"/>
      </defs>
      <g>
       <use xlink:href="#me6be53b71f" x="520.719562" y="640.8" style="stroke: #000000; stroke-width: 0.8"/>
      </g>
     </g>
     <g id="text_1">
      <!-- 2012-04 -->
      <g transform="translate(489.382453 659.197656) scale(0.15 -0.15)">
       <defs>
        <path id="DejaVuSans-32" d="M 1228 531 
L 3431 531 
L 3431 0 
L 469 0 
L 469 531 
Q 828 903 1448 1529 
Q 2069 2156 2228 2338 
Q 2531 2678 2651 2914 
Q 2772 3150 2772 3378 
Q 2772 3750 2511 3984 
Q 2250 4219 1831 4219 
Q 1534 4219 1204 4116 
Q 875 4013 500 3803 
L 500 4441 
Q 881 4594 1212 4672 
Q 1544 4750 1819 4750 
Q 2544 4750 2975 4387 
Q 3406 4025 3406 3419 
Q 3406 3131 3298 2873 
Q 3191 2616 2906 2266 
Q 2828 2175 2409 1742 
Q 1991 1309 1228 531 
z
" transform="scale(0.015625)"/>
        <path id="DejaVuSans-30" d="M 2034 4250 
Q 1547 4250 1301 3770 
Q 1056 3291 1056 2328 
Q 1056 1369 1301 889 
Q 1547 409 2034 409 
Q 2525 409 2770 889 
Q 3016 1369 3016 2328 
Q 3016 3291 2770 3770 
Q 2525 4250 2034 4250 
z
M 2034 4750 
Q 2819 4750 3233 4129 
Q 3647 3509 3647 2328 
Q 3647 1150 3233 529 
Q 2819 -91 2034 -91 
Q 1250 -91 836 529 
Q 422 1150 422 2328 
Q 422 3509 836 4129 
Q 1250 4750 2034 4750 
z
" transform="scale(0.015625)"/>
        <path id="DejaVuSans-31" d="M 794 531 
L 1825 531 
L 1825 4091 
L 703 3866 
L 703 4441 
L 1819 4666 
L 2450 4666 
L 2450 531 
L 3481 531 
L 3481 0 
L 794 0 
L 794 531 
z
" transform="scale(0.015625)"/>
        <path id="DejaVuSans-2d" d="M 313 2009 
L 1997 2009 
L 1997 1497 
L 313 1497 
L 313 2009 
z
" transform="scale(0.015625)"/>
        <path id="DejaVuSans-34" d="M 2419 4116 
L 825 1625 
L 2419 1625 
L 2419 4116 
z
M 2253 4666 
L 3047 4666 
L 3047 1625 
L 3713 1625 
L 3713 1100 
L 3047 1100 
L 3047 0 
L 2419 0 
L 2419 1100 
L 313 1100 
L 313 1709 
L 2253 4666 
z
" transform="scale(0.015625)"/>
       </defs>
       <use xlink:href="#DejaVuSans-32"/>
       <use xlink:href="#DejaVuSans-30" x="63.623047"/>
       <use xlink:href="#DejaVuSans-31" x="127.246094"/>
       <use xlink:href="#DejaVuSans-32" x="190.869141"/>
       <use xlink:href="#DejaVuSans-2d" x="254.492188"/>
       <use xlink:href="#DejaVuSans-30" x="290.576172"/>
       <use xlink:href="#DejaVuSans-34" x="354.199219"/>
      </g>
     </g>
    </g>
    <g id="xtick_2">
     <g id="line2d_2">
      <g>
       <use xlink:href="#me6be53b71f" x="763.842681" y="640.8" style="stroke: #000000; stroke-width: 0.8"/>
      </g>
     </g>
     <g id="text_2">
      <!-- 2012-07 -->
      <g transform="translate(732.505572 659.197656) scale(0.15 -0.15)">
       <defs>
        <path id="DejaVuSans-37" d="M 525 4666 
L 3525 4666 
L 3525 4397 
L 1831 0 
L 1172 0 
L 2766 4134 
L 525 4134 
L 525 4666 
z
" transform="scale(0.015625)"/>
       </defs>
       <use xlink:href="#DejaVuSans-32"/>
       <use xlink:href="#DejaVuSans-30" x="63.623047"/>
       <use xlink:href="#DejaVuSans-31" x="127.246094"/>
       <use xlink:href="#DejaVuSans-32" x="190.869141"/>
       <use xlink:href="#DejaVuSans-2d" x="254.492188"/>
       <use xlink:href="#DejaVuSans-30" x="290.576172"/>
       <use xlink:href="#DejaVuSans-37" x="354.199219"/>
      </g>
     </g>
    </g>
    <g id="xtick_3">
     <g id="line2d_3">
      <g>
       <use xlink:href="#me6be53b71f" x="1009.637483" y="640.8" style="stroke: #000000; stroke-width: 0.8"/>
      </g>
     </g>
     <g id="text_3">
      <!-- 2012-10 -->
      <g transform="translate(978.300374 659.197656) scale(0.15 -0.15)">
       <use xlink:href="#DejaVuSans-32"/>
       <use xlink:href="#DejaVuSans-30" x="63.623047"/>
       <use xlink:href="#DejaVuSans-31" x="127.246094"/>
       <use xlink:href="#DejaVuSans-32" x="190.869141"/>
       <use xlink:href="#DejaVuSans-2d" x="254.492188"/>
       <use xlink:href="#DejaVuSans-31" x="290.576172"/>
       <use xlink:href="#DejaVuSans-30" x="354.199219"/>
      </g>
     </g>
    </g>
    <g id="xtick_4">
     <g id="line2d_4">
      <g>
       <use xlink:href="#me6be53b71f" x="1255.432285" y="640.8" style="stroke: #000000; stroke-width: 0.8"/>
      </g>
     </g>
     <g id="text_4">
      <!-- 2013-01 -->
      <g transform="translate(1224.095175 659.197656) scale(0.15 -0.15)">
       <defs>
        <path id="DejaVuSans-33" d="M 2597 2516 
Q 3050 2419 3304 2112 
Q 3559 1806 3559 1356 
Q 3559 666 3084 287 
Q 2609 -91 1734 -91 
Q 1441 -91 1130 -33 
Q 819 25 488 141 
L 488 750 
Q 750 597 1062 519 
Q 1375 441 1716 441 
Q 2309 441 2620 675 
Q 2931 909 2931 1356 
Q 2931 1769 2642 2001 
Q 2353 2234 1838 2234 
L 1294 2234 
L 1294 2753 
L 1863 2753 
Q 2328 2753 2575 2939 
Q 2822 3125 2822 3475 
Q 2822 3834 2567 4026 
Q 2313 4219 1838 4219 
Q 1578 4219 1281 4162 
Q 984 4106 628 3988 
L 628 4550 
Q 988 4650 1302 4700 
Q 1616 4750 1894 4750 
Q 2613 4750 3031 4423 
Q 3450 4097 3450 3541 
Q 3450 3153 3228 2886 
Q 3006 2619 2597 2516 
z
" transform="scale(0.015625)"/>
       </defs>
       <use xlink:href="#DejaVuSans-32"/>
       <use xlink:href="#DejaVuSans-30" x="63.623047"/>
       <use xlink:href="#DejaVuSans-31" x="127.246094"/>
       <use xlink:href="#DejaVuSans-33" x="190.869141"/>
       <use xlink:href="#DejaVuSans-2d" x="254.492188"/>
       <use xlink:href="#DejaVuSans-30" x="290.576172"/>
       <use xlink:href="#DejaVuSans-31" x="354.199219"/>
      </g>
     </g>
    </g>
    <g id="xtick_5">
     <g id="line2d_5">
      <g>
       <use xlink:href="#me6be53b71f" x="1495.883721" y="640.8" style="stroke: #000000; stroke-width: 0.8"/>
      </g>
     </g>
     <g id="text_5">
      <!-- 2013-04 -->
      <g transform="translate(1464.546612 659.197656) scale(0.15 -0.15)">
       <use xlink:href="#DejaVuSans-32"/>
       <use xlink:href="#DejaVuSans-30" x="63.623047"/>
       <use xlink:href="#DejaVuSans-31" x="127.246094"/>
       <use xlink:href="#DejaVuSans-33" x="190.869141"/>
       <use xlink:href="#DejaVuSans-2d" x="254.492188"/>
       <use xlink:href="#DejaVuSans-30" x="290.576172"/>
       <use xlink:href="#DejaVuSans-34" x="354.199219"/>
      </g>
     </g>
    </g>
    <g id="xtick_6">
     <g id="line2d_6">
      <g>
       <use xlink:href="#me6be53b71f" x="1739.00684" y="640.8" style="stroke: #000000; stroke-width: 0.8"/>
      </g>
     </g>
     <g id="text_6">
      <!-- 2013-07 -->
      <g transform="translate(1707.669731 659.197656) scale(0.15 -0.15)">
       <use xlink:href="#DejaVuSans-32"/>
       <use xlink:href="#DejaVuSans-30" x="63.623047"/>
       <use xlink:href="#DejaVuSans-31" x="127.246094"/>
       <use xlink:href="#DejaVuSans-33" x="190.869141"/>
       <use xlink:href="#DejaVuSans-2d" x="254.492188"/>
       <use xlink:href="#DejaVuSans-30" x="290.576172"/>
       <use xlink:href="#DejaVuSans-37" x="354.199219"/>
      </g>
     </g>
    </g>
    <g id="xtick_7">
     <g id="line2d_7">
      <g>
       <use xlink:href="#me6be53b71f" x="1984.801642" y="640.8" style="stroke: #000000; stroke-width: 0.8"/>
      </g>
     </g>
     <g id="text_7">
      <!-- 2013-10 -->
      <g transform="translate(1953.464532 659.197656) scale(0.15 -0.15)">
       <use xlink:href="#DejaVuSans-32"/>
       <use xlink:href="#DejaVuSans-30" x="63.623047"/>
       <use xlink:href="#DejaVuSans-31" x="127.246094"/>
       <use xlink:href="#DejaVuSans-33" x="190.869141"/>
       <use xlink:href="#DejaVuSans-2d" x="254.492188"/>
       <use xlink:href="#DejaVuSans-31" x="290.576172"/>
       <use xlink:href="#DejaVuSans-30" x="354.199219"/>
      </g>
     </g>
    </g>
    <g id="xtick_8">
     <g id="line2d_8">
      <g>
       <use xlink:href="#me6be53b71f" x="2230.596443" y="640.8" style="stroke: #000000; stroke-width: 0.8"/>
      </g>
     </g>
     <g id="text_8">
      <!-- 2014-01 -->
      <g transform="translate(2199.259334 659.197656) scale(0.15 -0.15)">
       <use xlink:href="#DejaVuSans-32"/>
       <use xlink:href="#DejaVuSans-30" x="63.623047"/>
       <use xlink:href="#DejaVuSans-31" x="127.246094"/>
       <use xlink:href="#DejaVuSans-34" x="190.869141"/>
       <use xlink:href="#DejaVuSans-2d" x="254.492188"/>
       <use xlink:href="#DejaVuSans-30" x="290.576172"/>
       <use xlink:href="#DejaVuSans-31" x="354.199219"/>
      </g>
     </g>
    </g>
    <g id="text_9">
     <!-- Time -->
     <g transform="translate(1267.032813 681.514063) scale(0.2 -0.2)">
      <defs>
       <path id="DejaVuSans-54" d="M -19 4666 
L 3928 4666 
L 3928 4134 
L 2272 4134 
L 2272 0 
L 1638 0 
L 1638 4134 
L -19 4134 
L -19 4666 
z
" transform="scale(0.015625)"/>
       <path id="DejaVuSans-69" d="M 603 3500 
L 1178 3500 
L 1178 0 
L 603 0 
L 603 3500 
z
M 603 4863 
L 1178 4863 
L 1178 4134 
L 603 4134 
L 603 4863 
z
" transform="scale(0.015625)"/>
       <path id="DejaVuSans-6d" d="M 3328 2828 
Q 3544 3216 3844 3400 
Q 4144 3584 4550 3584 
Q 5097 3584 5394 3201 
Q 5691 2819 5691 2113 
L 5691 0 
L 5113 0 
L 5113 2094 
Q 5113 2597 4934 2840 
Q 4756 3084 4391 3084 
Q 3944 3084 3684 2787 
Q 3425 2491 3425 1978 
L 3425 0 
L 2847 0 
L 2847 2094 
Q 2847 2600 2669 2842 
Q 2491 3084 2119 3084 
Q 1678 3084 1418 2786 
Q 1159 2488 1159 1978 
L 1159 0 
L 581 0 
L 581 3500 
L 1159 3500 
L 1159 2956 
Q 1356 3278 1631 3431 
Q 1906 3584 2284 3584 
Q 2666 3584 2933 3390 
Q 3200 3197 3328 2828 
z
" transform="scale(0.015625)"/>
       <path id="DejaVuSans-65" d="M 3597 1894 
L 3597 1613 
L 953 1613 
Q 991 1019 1311 708 
Q 1631 397 2203 397 
Q 2534 397 2845 478 
Q 3156 559 3463 722 
L 3463 178 
Q 3153 47 2828 -22 
Q 2503 -91 2169 -91 
Q 1331 -91 842 396 
Q 353 884 353 1716 
Q 353 2575 817 3079 
Q 1281 3584 2069 3584 
Q 2775 3584 3186 3129 
Q 3597 2675 3597 1894 
z
M 3022 2063 
Q 3016 2534 2758 2815 
Q 2500 3097 2075 3097 
Q 1594 3097 1305 2825 
Q 1016 2553 972 2059 
L 3022 2063 
z
" transform="scale(0.015625)"/>
      </defs>
      <use xlink:href="#DejaVuSans-54"/>
      <use xlink:href="#DejaVuSans-69" x="57.958984"/>
      <use xlink:href="#DejaVuSans-6d" x="85.742188"/>
      <use xlink:href="#DejaVuSans-65" x="183.154297"/>
     </g>
    </g>
   </g>
   <g id="matplotlib.axis_2">
    <g id="ytick_1">
     <g id="line2d_9">
      <defs>
       <path id="m1f709268a5" d="M 0 0 
L -3.5 0 
" style="stroke: #000000; stroke-width: 0.8"/>
      </defs>
      <g>
       <use xlink:href="#m1f709268a5" x="315" y="640.8" style="stroke: #000000; stroke-width: 0.8"/>
      </g>
     </g>
     <g id="text_10">
      <!-- −0.00100 -->
      <g transform="translate(233.400781 646.498828) scale(0.15 -0.15)">
       <defs>
        <path id="DejaVuSans-2212" d="M 678 2272 
L 4684 2272 
L 4684 1741 
L 678 1741 
L 678 2272 
z
" transform="scale(0.015625)"/>
        <path id="DejaVuSans-2e" d="M 684 794 
L 1344 794 
L 1344 0 
L 684 0 
L 684 794 
z
" transform="scale(0.015625)"/>
       </defs>
       <use xlink:href="#DejaVuSans-2212"/>
       <use xlink:href="#DejaVuSans-30" x="83.789062"/>
       <use xlink:href="#DejaVuSans-2e" x="147.412109"/>
       <use xlink:href="#DejaVuSans-30" x="179.199219"/>
       <use xlink:href="#DejaVuSans-30" x="242.822266"/>
       <use xlink:href="#DejaVuSans-31" x="306.445312"/>
       <use xlink:href="#DejaVuSans-30" x="370.068359"/>
       <use xlink:href="#DejaVuSans-30" x="433.691406"/>
      </g>
     </g>
    </g>
    <g id="ytick_2">
     <g id="line2d_10">
      <g>
       <use xlink:href="#m1f709268a5" x="315" y="571.5" style="stroke: #000000; stroke-width: 0.8"/>
      </g>
     </g>
     <g id="text_11">
      <!-- −0.00075 -->
      <g transform="translate(233.400781 577.198828) scale(0.15 -0.15)">
       <defs>
        <path id="DejaVuSans-35" d="M 691 4666 
L 3169 4666 
L 3169 4134 
L 1269 4134 
L 1269 2991 
Q 1406 3038 1543 3061 
Q 1681 3084 1819 3084 
Q 2600 3084 3056 2656 
Q 3513 2228 3513 1497 
Q 3513 744 3044 326 
Q 2575 -91 1722 -91 
Q 1428 -91 1123 -41 
Q 819 9 494 109 
L 494 744 
Q 775 591 1075 516 
Q 1375 441 1709 441 
Q 2250 441 2565 725 
Q 2881 1009 2881 1497 
Q 2881 1984 2565 2268 
Q 2250 2553 1709 2553 
Q 1456 2553 1204 2497 
Q 953 2441 691 2322 
L 691 4666 
z
" transform="scale(0.015625)"/>
       </defs>
       <use xlink:href="#DejaVuSans-2212"/>
       <use xlink:href="#DejaVuSans-30" x="83.789062"/>
       <use xlink:href="#DejaVuSans-2e" x="147.412109"/>
       <use xlink:href="#DejaVuSans-30" x="179.199219"/>
       <use xlink:href="#DejaVuSans-30" x="242.822266"/>
       <use xlink:href="#DejaVuSans-30" x="306.445312"/>
       <use xlink:href="#DejaVuSans-37" x="370.068359"/>
       <use xlink:href="#DejaVuSans-35" x="433.691406"/>
      </g>
     </g>
    </g>
    <g id="ytick_3">
     <g id="line2d_11">
      <g>
       <use xlink:href="#m1f709268a5" x="315" y="502.2" style="stroke: #000000; stroke-width: 0.8"/>
      </g>
     </g>
     <g id="text_12">
      <!-- −0.00050 -->
      <g transform="translate(233.400781 507.898828) scale(0.15 -0.15)">
       <use xlink:href="#DejaVuSans-2212"/>
       <use xlink:href="#DejaVuSans-30" x="83.789062"/>
       <use xlink:href="#DejaVuSans-2e" x="147.412109"/>
       <use xlink:href="#DejaVuSans-30" x="179.199219"/>
       <use xlink:href="#DejaVuSans-30" x="242.822266"/>
       <use xlink:href="#DejaVuSans-30" x="306.445312"/>
       <use xlink:href="#DejaVuSans-35" x="370.068359"/>
       <use xlink:href="#DejaVuSans-30" x="433.691406"/>
      </g>
     </g>
    </g>
    <g id="ytick_4">
     <g id="line2d_12">
      <g>
       <use xlink:href="#m1f709268a5" x="315" y="432.9" style="stroke: #000000; stroke-width: 0.8"/>
      </g>
     </g>
     <g id="text_13">
      <!-- −0.00025 -->
      <g transform="translate(233.400781 438.598828) scale(0.15 -0.15)">
       <use xlink:href="#DejaVuSans-2212"/>
       <use xlink:href="#DejaVuSans-30" x="83.789062"/>
       <use xlink:href="#DejaVuSans-2e" x="147.412109"/>
       <use xlink:href="#DejaVuSans-30" x="179.199219"/>
       <use xlink:href="#DejaVuSans-30" x="242.822266"/>
       <use xlink:href="#DejaVuSans-30" x="306.445312"/>
       <use xlink:href="#DejaVuSans-32" x="370.068359"/>
       <use xlink:href="#DejaVuSans-35" x="433.691406"/>
      </g>
     </g>
    </g>
    <g id="ytick_5">
     <g id="line2d_13">
      <g>
       <use xlink:href="#m1f709268a5" x="315" y="363.6" style="stroke: #000000; stroke-width: 0.8"/>
      </g>
     </g>
     <g id="text_14">
      <!-- 0.00000 -->
      <g transform="translate(245.970313 369.298828) scale(0.15 -0.15)">
       <use xlink:href="#DejaVuSans-30"/>
       <use xlink:href="#DejaVuSans-2e" x="63.623047"/>
       <use xlink:href="#DejaVuSans-30" x="95.410156"/>
       <use xlink:href="#DejaVuSans-30" x="159.033203"/>
       <use xlink:href="#DejaVuSans-30" x="222.65625"/>
       <use xlink:href="#DejaVuSans-30" x="286.279297"/>
       <use xlink:href="#DejaVuSans-30" x="349.902344"/>
      </g>
     </g>
    </g>
    <g id="ytick_6">
     <g id="line2d_14">
      <g>
       <use xlink:href="#m1f709268a5" x="315" y="294.3" style="stroke: #000000; stroke-width: 0.8"/>
      </g>
     </g>
     <g id="text_15">
      <!-- 0.00025 -->
      <g transform="translate(245.970313 299.998828) scale(0.15 -0.15)">
       <use xlink:href="#DejaVuSans-30"/>
       <use xlink:href="#DejaVuSans-2e" x="63.623047"/>
       <use xlink:href="#DejaVuSans-30" x="95.410156"/>
       <use xlink:href="#DejaVuSans-30" x="159.033203"/>
       <use xlink:href="#DejaVuSans-30" x="222.65625"/>
       <use xlink:href="#DejaVuSans-32" x="286.279297"/>
       <use xlink:href="#DejaVuSans-35" x="349.902344"/>
      </g>
     </g>
    </g>
    <g id="ytick_7">
     <g id="line2d_15">
      <g>
       <use xlink:href="#m1f709268a5" x="315" y="225" style="stroke: #000000; stroke-width: 0.8"/>
      </g>
     </g>
     <g id="text_16">
      <!-- 0.00050 -->
      <g transform="translate(245.970313 230.698828) scale(0.15 -0.15)">
       <use xlink:href="#DejaVuSans-30"/>
       <use xlink:href="#DejaVuSans-2e" x="63.623047"/>
       <use xlink:href="#DejaVuSans-30" x="95.410156"/>
       <use xlink:href="#DejaVuSans-30" x="159.033203"/>
       <use xlink:href="#DejaVuSans-30" x="222.65625"/>
       <use xlink:href="#DejaVuSans-35" x="286.279297"/>
       <use xlink:href="#DejaVuSans-30" x="349.902344"/>
      </g>
     </g>
    </g>
    <g id="ytick_8">
     <g id="line2d_16">
      <g>
       <use xlink:href="#m1f709268a5" x="315" y="155.7" style="stroke: #000000; stroke-width: 0.8"/>
      </g>
     </g>
     <g id="text_17">
      <!-- 0.00075 -->
      <g transform="translate(245.970313 161.398828) scale(0.15 -0.15)">
       <use xlink:href="#DejaVuSans-30"/>
       <use xlink:href="#DejaVuSans-2e" x="63.623047"/>
       <use xlink:href="#DejaVuSans-30" x="95.410156"/>
       <use xlink:href="#DejaVuSans-30" x="159.033203"/>
       <use xlink:href="#DejaVuSans-30" x="222.65625"/>
       <use xlink:href="#DejaVuSans-37" x="286.279297"/>
       <use xlink:href="#DejaVuSans-35" x="349.902344"/>
      </g>
     </g>
    </g>
    <g id="ytick_9">
     <g id="line2d_17">
      <g>
       <use xlink:href="#m1f709268a5" x="315" y="86.4" style="stroke: #000000; stroke-width: 0.8"/>
      </g>
     </g>
     <g id="text_18">
      <!-- 0.00100 -->
      <g transform="translate(245.970313 92.098828) scale(0.15 -0.15)">
       <use xlink:href="#DejaVuSans-30"/>
       <use xlink:href="#DejaVuSans-2e" x="63.623047"/>
       <use xlink:href="#DejaVuSans-30" x="95.410156"/>
       <use xlink:href="#DejaVuSans-30" x="159.033203"/>
       <use xlink:href="#DejaVuSans-31" x="222.65625"/>
       <use xlink:href="#DejaVuSans-30" x="286.279297"/>
       <use xlink:href="#DejaVuSans-30" x="349.902344"/>
      </g>
     </g>
    </g>
    <g id="text_19">
     <!-- North(m) -->
     <g transform="translate(225.241406 409.1125) rotate(-90) scale(0.2 -0.2)">
      <defs>
       <path id="DejaVuSans-4e" d="M 628 4666 
L 1478 4666 
L 3547 763 
L 3547 4666 
L 4159 4666 
L 4159 0 
L 3309 0 
L 1241 3903 
L 1241 0 
L 628 0 
L 628 4666 
z
" transform="scale(0.015625)"/>
       <path id="DejaVuSans-6f" d="M 1959 3097 
Q 1497 3097 1228 2736 
Q 959 2375 959 1747 
Q 959 1119 1226 758 
Q 1494 397 1959 397 
Q 2419 397 2687 759 
Q 2956 1122 2956 1747 
Q 2956 2369 2687 2733 
Q 2419 3097 1959 3097 
z
M 1959 3584 
Q 2709 3584 3137 3096 
Q 3566 2609 3566 1747 
Q 3566 888 3137 398 
Q 2709 -91 1959 -91 
Q 1206 -91 779 398 
Q 353 888 353 1747 
Q 353 2609 779 3096 
Q 1206 3584 1959 3584 
z
" transform="scale(0.015625)"/>
       <path id="DejaVuSans-72" d="M 2631 2963 
Q 2534 3019 2420 3045 
Q 2306 3072 2169 3072 
Q 1681 3072 1420 2755 
Q 1159 2438 1159 1844 
L 1159 0 
L 581 0 
L 581 3500 
L 1159 3500 
L 1159 2956 
Q 1341 3275 1631 3429 
Q 1922 3584 2338 3584 
Q 2397 3584 2469 3576 
Q 2541 3569 2628 3553 
L 2631 2963 
z
" transform="scale(0.015625)"/>
       <path id="DejaVuSans-74" d="M 1172 4494 
L 1172 3500 
L 2356 3500 
L 2356 3053 
L 1172 3053 
L 1172 1153 
Q 1172 725 1289 603 
Q 1406 481 1766 481 
L 2356 481 
L 2356 0 
L 1766 0 
Q 1100 0 847 248 
Q 594 497 594 1153 
L 594 3053 
L 172 3053 
L 172 3500 
L 594 3500 
L 594 4494 
L 1172 4494 
z
" transform="scale(0.015625)"/>
       <path id="DejaVuSans-68" d="M 3513 2113 
L 3513 0 
L 2938 0 
L 2938 2094 
Q 2938 2591 2744 2837 
Q 2550 3084 2163 3084 
Q 1697 3084 1428 2787 
Q 1159 2491 1159 1978 
L 1159 0 
L 581 0 
L 581 4863 
L 1159 4863 
L 1159 2956 
Q 1366 3272 1645 3428 
Q 1925 3584 2291 3584 
Q 2894 3584 3203 3211 
Q 3513 2838 3513 2113 
z
" transform="scale(0.015625)"/>
       <path id="DejaVuSans-28" d="M 1984 4856 
Q 1566 4138 1362 3434 
Q 1159 2731 1159 2009 
Q 1159 1288 1364 580 
Q 1569 -128 1984 -844 
L 1484 -844 
Q 1016 -109 783 600 
Q 550 1309 550 2009 
Q 550 2706 781 3412 
Q 1013 4119 1484 4856 
L 1984 4856 
z
" transform="scale(0.015625)"/>
       <path id="DejaVuSans-29" d="M 513 4856 
L 1013 4856 
Q 1481 4119 1714 3412 
Q 1947 2706 1947 2009 
Q 1947 1309 1714 600 
Q 1481 -109 1013 -844 
L 513 -844 
Q 928 -128 1133 580 
Q 1338 1288 1338 2009 
Q 1338 2731 1133 3434 
Q 928 4138 513 4856 
z
" transform="scale(0.015625)"/>
      </defs>
      <use xlink:href="#DejaVuSans-4e"/>
      <use xlink:href="#DejaVuSans-6f" x="74.804688"/>
      <use xlink:href="#DejaVuSans-72" x="135.986328"/>
      <use xlink:href="#DejaVuSans-74" x="177.099609"/>
      <use xlink:href="#DejaVuSans-68" x="216.308594"/>
      <use xlink:href="#DejaVuSans-28" x="279.6875"/>
      <use xlink:href="#DejaVuSans-6d" x="318.701172"/>
      <use xlink:href="#DejaVuSans-29" x="416.113281"/>
     </g>
    </g>
   </g>
   <g id="line2d_18">
    <path d="M 312.328317 399.435589 
L 315 291.620408 
L 317.671683 287.79986 
L 320.343365 341.863554 
L 323.015048 279.01986 
L 325.686731 311.209113 
L 328.358413 410.662653 
L 331.030096 425.673574 
L 333.701778 294.728034 
L 336.373461 297.035832 
L 339.045144 356.640079 
L 341.716826 330.820469 
L 344.388509 325.184059 
L 347.060192 327.848566 
L 349.731874 327.621497 
L 352.403557 382.079148 
L 355.075239 347.370523 
L 357.746922 354.404551 
L 360.418605 426.112578 
L 363.090287 516.321197 
L 365.76197 401.437602 
L 368.433653 299.37183 
L 371.105335 302.871387 
L 373.777018 362.410677 
L 376.4487 284.747594 
L 379.120383 274.661359 
L 381.792066 283.352432 
L 384.463748 283.609062 
L 387.135431 300.139191 
L 389.807114 460.917602 
L 392.478796 337.62174 
L 395.150479 313.04172 
L 397.822161 218.853184 
L 400.493844 216.651403 
L 403.165527 225.493082 
L 405.837209 272.981779 
L 408.508892 347.877626 
L 411.180575 468.675809 
L 413.852257 300.543964 
L 416.52394 233.338781 
L 419.195622 409.679284 
L 421.867305 433.387831 
L 424.538988 418.831829 
L 427.21067 331.180634 
L 429.882353 344.275769 
L 432.554036 383.744736 
L 435.225718 359.097197 
L 437.897401 223.440926 
L 440.569083 371.388192 
L 443.240766 396.309551 
L 445.912449 291.762584 
L 448.584131 307.60566 
L 453.927497 319.046866 
L 456.599179 342.784665 
L 459.270862 268.238849 
L 461.942544 419.239625 
L 464.614227 438.40685 
L 467.28591 422.19019 
L 469.957592 421.753086 
L 472.629275 335.568128 
L 475.300958 421.961354 
L 477.97264 435.583209 
L 480.644323 457.145384 
L 483.316005 514.731072 
L 485.987688 355.34135 
L 488.659371 337.483 
L 491.331053 353.083528 
L 494.002736 196.567164 
L 496.674419 231.378743 
L 499.346101 327.729178 
L 502.017784 328.819861 
L 504.689466 414.548205 
L 507.361149 445.74313 
L 510.032832 436.833382 
L 512.704514 477.256725 
L 515.376197 522.243619 
L 518.04788 440.887124 
L 520.719562 466.820615 
L 523.391245 476.964763 
L 526.062927 533.190275 
L 528.73461 482.981221 
L 531.406293 455.049781 
L 534.077975 458.014011 
L 536.749658 459.737436 
L 539.421341 478.894894 
L 542.093023 356.23624 
L 544.764706 323.179214 
L 547.436389 251.8874 
L 550.108071 248.967719 
L 552.779754 259.038854 
L 558.123119 497.830557 
L 560.794802 500.405704 
L 563.466484 475.071805 
L 566.138167 331.004594 
L 568.80985 363.38307 
L 571.481532 475.022951 
L 574.153215 494.101014 
L 576.824897 285.385261 
L 579.49658 268.044808 
L 582.168263 253.612622 
L 584.839945 414.404113 
L 587.511628 400.545193 
L 590.183311 383.674874 
L 592.854993 217.325732 
L 595.526676 331.37696 
L 598.198358 354.681303 
L 600.870041 472.724177 
L 603.541724 362.741628 
L 606.213406 310.482743 
L 608.885089 281.572436 
L 611.556772 280.978066 
L 614.228454 487.930686 
L 616.900137 433.012443 
L 619.571819 415.204346 
L 622.243502 218.798717 
L 624.915185 417.1657 
L 627.586867 387.858732 
L 630.25855 351.28999 
L 632.930233 426.358662 
L 635.601915 431.405514 
L 638.273598 534.478009 
L 640.94528 544.072752 
L 643.616963 444.80468 
L 646.288646 435.488851 
L 648.960328 324.463209 
L 651.632011 370.211212 
L 654.303694 468.70294 
L 656.975376 360.342389 
L 659.647059 335.999125 
L 662.318741 301.570364 
L 664.990424 398.00432 
L 667.662107 411.122991 
L 670.333789 499.741821 
L 673.005472 475.512752 
L 675.677155 424.938177 
L 678.348837 425.26026 
L 681.02052 408.94224 
L 683.692202 255.611572 
L 686.363885 306.429761 
L 689.035568 422.554904 
L 691.70725 480.946327 
L 694.378933 382.510737 
L 697.050616 333.393928 
L 699.722298 384.03897 
L 702.393981 257.34321 
L 705.065663 367.798339 
L 707.737346 407.875268 
L 710.409029 397.029336 
L 713.080711 292.72683 
L 715.752394 275.601521 
L 718.424077 351.934748 
L 721.095759 359.318124 
L 723.767442 327.520751 
L 726.439124 384.373411 
L 729.110807 430.443032 
L 731.78249 281.288416 
L 737.125855 397.557373 
L 739.797538 282.614398 
L 742.46922 420.549068 
L 745.140903 461.529591 
L 747.812585 447.882939 
L 750.484268 430.403251 
L 753.155951 428.224659 
L 755.827633 242.790537 
L 758.499316 305.447284 
L 761.170999 335.467551 
L 763.842681 332.013076 
L 766.514364 332.058777 
L 769.186047 331.651358 
L 771.857729 321.830968 
L 774.529412 321.740449 
L 777.201094 392.282502 
L 779.872777 384.183249 
L 782.54446 357.799067 
L 785.216142 218.727695 
L 787.887825 247.868798 
L 790.559508 338.210913 
L 793.23119 341.042759 
L 795.902873 335.037735 
L 798.574555 435.047571 
L 801.246238 434.939459 
L 803.917921 429.061123 
L 806.589603 428.054722 
L 809.261286 447.008076 
L 811.932969 523.338464 
L 814.604651 468.682152 
L 817.276334 385.465709 
L 819.948016 384.835368 
L 822.619699 391.695953 
L 825.291382 392.965314 
L 827.963064 489.900906 
L 830.634747 490.921274 
L 833.30643 485.710646 
L 835.978112 235.546904 
L 838.649795 232.954719 
L 841.321477 246.655312 
L 843.99316 345.209314 
L 846.664843 309.632373 
L 849.336525 383.182321 
L 852.008208 398.049763 
L 854.679891 333.570557 
L 857.351573 385.333322 
L 860.023256 459.995866 
L 862.694938 459.100662 
L 865.366621 452.303064 
L 868.038304 514.509955 
L 870.709986 398.032975 
L 873.381669 306.630598 
L 876.053352 367.549694 
L 878.725034 324.06238 
L 881.396717 316.050893 
L 884.068399 322.677233 
L 886.740082 322.834267 
L 889.411765 365.927595 
L 892.083447 366.218789 
L 894.75513 495.196157 
L 897.426813 455.826811 
L 900.098495 385.551412 
L 902.770178 398.574674 
L 905.44186 505.877707 
L 908.113543 512.355186 
L 910.785226 502.409514 
L 913.456908 501.50718 
L 916.128591 356.632479 
L 918.800274 355.843801 
L 921.471956 439.664143 
L 924.143639 423.694276 
L 926.815321 253.455765 
L 929.487004 390.260196 
L 932.158687 419.082037 
L 934.830369 348.73788 
L 937.502052 391.548196 
L 940.173735 469.644143 
L 942.845417 470.3092 
L 945.5171 463.169296 
L 948.188782 278.492088 
L 950.860465 276.117342 
L 953.532148 220.659728 
L 956.20383 281.817947 
L 958.875513 326.186975 
L 961.547196 438.784806 
L 964.218878 444.124417 
L 966.890561 394.386263 
L 969.562244 468.665261 
L 972.233926 432.706976 
L 974.905609 422.087907 
L 977.577291 418.528123 
L 980.248974 417.817698 
L 982.920657 212.733972 
L 985.592339 359.704883 
L 988.264022 397.082021 
L 990.935705 383.889723 
L 993.607387 415.694401 
L 996.27907 469.519521 
L 998.950752 284.717979 
L 1001.622435 407.257813 
L 1004.294118 435.891201 
L 1006.9658 477.682381 
L 1009.637483 298.907364 
L 1012.309166 427.000705 
L 1014.980848 454.61178 
L 1017.652531 439.970938 
L 1020.324213 514.565829 
L 1022.995896 493.747987 
L 1025.667579 307.1749 
L 1028.339261 352.161334 
L 1031.010944 285.305019 
L 1033.682627 269.507019 
L 1036.354309 315.158617 
L 1039.025992 442.902413 
L 1041.697674 407.968774 
L 1044.369357 256.014441 
L 1047.04104 319.761991 
L 1049.712722 337.668598 
L 1052.384405 182.384231 
L 1055.056088 354.090587 
L 1057.72777 377.087333 
L 1060.399453 363.834081 
L 1063.071135 358.144491 
L 1065.742818 363.879495 
L 1068.414501 330.238015 
L 1071.086183 285.552934 
L 1073.757866 395.275908 
L 1076.429549 307.228981 
L 1079.101231 289.329659 
L 1081.772914 425.747367 
L 1084.444596 426.934311 
L 1087.116279 288.321144 
L 1089.787962 318.659873 
L 1092.459644 360.730237 
L 1095.131327 456.837256 
L 1097.80301 396.092769 
L 1100.474692 387.822984 
L 1103.146375 393.922199 
L 1105.818057 392.340282 
L 1108.48974 392.805922 
L 1111.161423 229.102108 
L 1113.833105 192.925301 
L 1116.504788 377.689567 
L 1119.176471 446.475378 
L 1121.848153 433.34408 
L 1124.519836 427.373829 
L 1127.191518 394.208009 
L 1129.863201 292.373235 
L 1132.534884 285.866514 
L 1135.206566 295.325088 
L 1137.878249 376.576544 
L 1140.549932 494.694025 
L 1143.221614 433.098371 
L 1145.893297 274.680314 
L 1148.564979 253.474159 
L 1151.236662 422.181321 
L 1153.908345 446.239687 
L 1156.580027 340.419262 
L 1159.25171 334.424559 
L 1161.923393 342.296988 
L 1164.595075 342.357019 
L 1167.266758 343.313236 
L 1169.93844 254.605569 
L 1172.610123 254.468409 
L 1175.281806 315.968605 
L 1177.953488 317.296378 
L 1180.625171 314.300956 
L 1185.968536 313.535753 
L 1188.640219 313.423361 
L 1191.311902 303.731897 
L 1193.983584 303.6925 
L 1196.655267 304.001832 
L 1207.341997 304.115623 
L 1212.685363 304.119943 
L 1215.357045 199.746365 
L 1218.028728 208.015299 
L 1220.70041 211.179671 
L 1223.372093 282.394783 
L 1226.043776 384.283467 
L 1228.715458 471.397274 
L 1231.387141 370.287885 
L 1234.058824 388.383534 
L 1236.730506 365.186169 
L 1239.402189 358.34555 
L 1242.073871 362.366747 
L 1244.745554 362.224235 
L 1247.417237 362.6834 
L 1250.088919 362.74387 
L 1252.760602 419.355098 
L 1255.432285 456.186733 
L 1258.103967 359.342755 
L 1260.77565 387.253873 
L 1263.447332 399.366723 
L 1266.119015 531.324108 
L 1268.790698 338.317085 
L 1271.46238 213.909052 
L 1274.134063 395.93407 
L 1276.805746 418.784463 
L 1279.477428 403.927621 
L 1282.149111 325.180032 
L 1284.820793 356.437634 
L 1287.492476 363.190718 
L 1290.164159 361.830392 
L 1292.835841 409.640067 
L 1295.507524 347.65207 
L 1298.179207 281.79585 
L 1300.850889 267.01789 
L 1303.522572 271.587333 
L 1306.194254 491.277418 
L 1308.865937 495.112476 
L 1311.53762 287.514217 
L 1314.209302 176.347817 
L 1316.880985 310.615186 
L 1319.552668 472.239926 
L 1322.22435 471.222651 
L 1324.896033 390.102815 
L 1327.567715 343.240819 
L 1330.239398 342.593845 
L 1332.911081 264.891101 
L 1335.582763 387.841275 
L 1338.254446 380.055416 
L 1340.926129 367.40306 
L 1343.597811 268.662813 
L 1346.269494 225.279707 
L 1348.941176 213.14483 
L 1351.612859 216.863286 
L 1354.284542 219.866763 
L 1356.956224 220.821202 
L 1359.627907 428.096547 
L 1362.29959 457.576754 
L 1364.971272 493.112801 
L 1367.642955 492.191576 
L 1370.314637 486.298812 
L 1372.98632 485.192256 
L 1375.658003 484.297089 
L 1378.329685 416.723491 
L 1381.001368 396.9656 
L 1383.673051 387.506371 
L 1386.344733 237.08159 
L 1389.016416 207.209745 
L 1391.688098 395.47794 
L 1394.359781 411.789344 
L 1397.031464 396.06036 
L 1399.703146 389.750942 
L 1402.374829 387.702309 
L 1405.046512 292.17245 
L 1407.718194 234.704753 
L 1410.389877 407.960877 
L 1413.06156 426.762553 
L 1415.733242 402.395626 
L 1418.404925 291.059319 
L 1421.076607 281.212808 
L 1423.74829 226.05538 
L 1426.419973 359.5368 
L 1429.091655 375.584564 
L 1431.763338 280.260931 
L 1434.435021 299.36792 
L 1437.106703 382.704127 
L 1439.778386 314.251723 
L 1442.450068 252.418638 
L 1445.121751 337.710629 
L 1447.793434 408.951222 
L 1450.465116 266.059357 
L 1453.136799 382.109476 
L 1455.808482 391.057634 
L 1458.480164 366.690135 
L 1461.151847 367.872101 
L 1463.823529 367.461725 
L 1466.495212 389.516046 
L 1469.166895 389.637616 
L 1471.838577 403.32734 
L 1474.51026 457.4854 
L 1477.181943 323.204834 
L 1479.853625 272.110357 
L 1482.525308 375.229458 
L 1485.19699 393.723719 
L 1487.868673 395.926601 
L 1490.540356 395.823606 
L 1493.212038 339.947703 
L 1495.883721 338.915153 
L 1498.555404 371.48192 
L 1501.227086 372.274911 
L 1503.898769 289.918192 
L 1506.570451 398.647715 
L 1509.242134 425.264954 
L 1511.913817 384.474622 
L 1514.585499 293.232001 
L 1517.257182 342.730838 
L 1519.928865 471.217088 
L 1522.600547 339.510648 
L 1525.27223 384.347525 
L 1527.943912 401.819668 
L 1530.615595 394.551406 
L 1533.287278 456.73689 
L 1535.95896 324.082346 
L 1538.630643 344.651957 
L 1541.302326 382.766205 
L 1543.974008 397.7618 
L 1546.645691 323.567385 
L 1549.317373 328.227318 
L 1551.989056 336.4789 
L 1554.660739 335.560599 
L 1557.332421 175.62387 
L 1560.004104 130.231132 
L 1562.675787 362.688193 
L 1565.347469 487.754212 
L 1568.019152 473.729824 
L 1570.690834 462.123923 
L 1573.362517 458.477198 
L 1576.0342 456.466177 
L 1578.705882 489.384656 
L 1581.377565 444.80852 
L 1584.049248 353.273931 
L 1586.72093 434.637461 
L 1589.392613 449.504624 
L 1592.064295 441.99154 
L 1594.735978 228.995113 
L 1597.407661 330.232267 
L 1600.079343 352.122248 
L 1602.751026 347.285391 
L 1605.422709 445.651368 
L 1608.094391 451.635002 
L 1610.766074 441.449364 
L 1613.437756 207.6909 
L 1616.109439 350.224842 
L 1618.781122 374.143113 
L 1621.452804 362.264289 
L 1624.124487 261.476261 
L 1626.79617 259.44961 
L 1629.467852 279.620505 
L 1632.139535 278.475933 
L 1634.811218 278.158184 
L 1637.4829 278.422933 
L 1640.154583 491.983242 
L 1642.826265 314.65572 
L 1645.497948 253.763518 
L 1648.169631 445.959206 
L 1650.841313 369.357192 
L 1653.512996 311.598563 
L 1656.184679 317.886374 
L 1658.856361 320.148023 
L 1661.528044 321.28587 
L 1664.199726 512.969656 
L 1666.871409 532.068623 
L 1669.543092 386.628429 
L 1672.214774 326.337352 
L 1674.886457 383.482392 
L 1677.55814 505.941756 
L 1680.229822 311.202574 
L 1682.901505 223.998071 
L 1685.573187 279.621281 
L 1688.24487 289.173829 
L 1690.916553 179.076791 
L 1693.588235 178.611314 
L 1696.259918 161.989716 
L 1698.931601 352.420184 
L 1701.603283 353.25532 
L 1704.274966 395.715433 
L 1706.946648 246.178448 
L 1709.618331 243.858876 
L 1712.290014 260.445975 
L 1714.961696 436.437099 
L 1717.633379 257.564823 
L 1720.305062 381.061052 
L 1722.976744 293.973532 
L 1725.648427 201.271972 
L 1728.320109 208.726526 
L 1730.991792 397.276989 
L 1733.663475 401.587406 
L 1736.335157 189.327192 
L 1739.00684 413.609309 
L 1741.678523 442.662107 
L 1744.350205 444.403822 
L 1747.021888 444.753883 
L 1749.69357 440.79192 
L 1752.365253 440.164437 
L 1755.036936 467.675425 
L 1757.708618 298.738707 
L 1760.380301 366.202982 
L 1763.051984 311.502853 
L 1765.723666 448.406081 
L 1768.395349 455.417282 
L 1771.067031 382.897434 
L 1773.738714 335.919502 
L 1776.410397 336.751173 
L 1779.082079 297.632674 
L 1781.753762 199.584891 
L 1784.425445 344.2024 
L 1787.097127 427.531309 
L 1789.76881 343.919693 
L 1792.440492 253.771476 
L 1795.112175 244.434517 
L 1797.783858 251.449449 
L 1800.45554 253.674325 
L 1803.127223 254.89334 
L 1805.798906 314.7957 
L 1808.470588 267.434883 
L 1811.142271 380.277894 
L 1813.813953 354.99515 
L 1816.485636 340.042271 
L 1819.157319 356.237624 
L 1821.829001 355.17874 
L 1824.500684 449.748304 
L 1827.172367 433.755759 
L 1829.844049 354.628247 
L 1832.515732 427.542684 
L 1835.187415 385.006644 
L 1837.859097 231.442045 
L 1840.53078 226.991866 
L 1843.202462 425.384854 
L 1845.874145 376.082478 
L 1848.545828 357.632255 
L 1851.21751 361.25111 
L 1853.889193 492.641319 
L 1856.560876 494.645188 
L 1859.232558 485.312439 
L 1861.904241 414.404056 
L 1864.575923 383.528088 
L 1867.247606 294.146706 
L 1869.919289 381.578527 
L 1872.590971 272.334958 
L 1875.262654 384.71547 
L 1877.934337 459.970457 
L 1880.606019 286.776257 
L 1883.277702 261.5227 
L 1885.949384 451.616256 
L 1888.621067 465.825146 
L 1891.29275 449.533062 
L 1893.964432 448.487342 
L 1896.636115 229.024794 
L 1899.307798 437.761272 
L 1901.97948 463.910034 
L 1904.651163 421.234252 
L 1907.322845 427.291652 
L 1909.994528 326.814124 
L 1912.666211 290.80096 
L 1915.337893 364.921203 
L 1918.009576 287.33463 
L 1920.681259 363.719023 
L 1923.352941 360.292111 
L 1926.024624 381.408567 
L 1928.696306 386.019282 
L 1931.367989 220.8803 
L 1934.039672 233.622749 
L 1936.711354 245.5685 
L 1939.383037 399.713725 
L 1942.05472 345.243321 
L 1944.726402 404.150643 
L 1947.398085 280.85114 
L 1950.069767 413.517904 
L 1952.74145 383.15944 
L 1955.413133 316.949083 
L 1958.084815 292.406722 
L 1960.756498 248.482211 
L 1963.428181 416.652615 
L 1966.099863 434.423003 
L 1968.771546 417.932565 
L 1971.443228 398.985252 
L 1974.114911 399.15267 
L 1976.786594 399.933408 
L 1979.458276 368.882449 
L 1982.129959 392.935968 
L 1984.801642 490.64831 
L 1987.473324 495.466726 
L 1990.145007 387.65479 
L 1992.816689 461.062364 
L 1995.488372 520.560178 
L 1998.160055 498.567091 
L 2000.831737 324.618219 
L 2003.50342 308.454111 
L 2006.175103 385.841546 
L 2008.846785 381.113469 
L 2011.518468 449.21586 
L 2014.19015 455.778045 
L 2016.861833 422.816504 
L 2019.533516 421.937549 
L 2022.205198 529.637601 
L 2024.876881 488.051069 
L 2027.548564 368.835728 
L 2030.220246 227.551225 
L 2032.891929 258.545682 
L 2035.563611 382.227072 
L 2038.235294 389.43156 
L 2040.906977 452.326047 
L 2043.578659 452.58558 
L 2046.250342 449.912835 
L 2048.922025 417.05699 
L 2051.593707 300.777169 
L 2054.26539 310.91791 
L 2056.937073 420.72528 
L 2059.608755 443.429673 
L 2062.280438 431.198506 
L 2064.95212 428.538414 
L 2067.623803 284.433085 
L 2070.295486 430.654389 
L 2072.967168 473.012912 
L 2075.638851 461.539058 
L 2078.310534 367.666673 
L 2080.982216 364.790753 
L 2083.653899 370.750474 
L 2086.325581 462.238564 
L 2088.997264 496.761478 
L 2091.668947 494.617965 
L 2094.340629 490.930417 
L 2099.683995 263.434283 
L 2102.355677 391.034992 
L 2105.02736 443.179437 
L 2107.699042 347.932805 
L 2110.370725 310.723116 
L 2113.042408 382.384035 
L 2115.71409 326.909586 
L 2118.385773 316.542869 
L 2121.057456 309.681264 
L 2123.729138 372.300745 
L 2126.400821 393.161173 
L 2129.072503 380.939157 
L 2131.744186 378.69944 
L 2134.415869 363.148441 
L 2137.087551 381.003713 
L 2139.759234 383.418193 
L 2142.430917 381.75216 
L 2145.102599 524.156163 
L 2147.774282 482.851898 
L 2150.445964 471.618453 
L 2153.117647 370.463403 
L 2155.78933 367.85974 
L 2158.461012 296.968493 
L 2161.132695 432.567683 
L 2163.804378 467.662692 
L 2166.47606 275.180644 
L 2169.147743 260.464555 
L 2171.819425 431.083403 
L 2174.491108 338.041822 
L 2177.162791 230.252077 
L 2179.834473 343.733257 
L 2182.506156 360.884377 
L 2185.177839 381.399813 
L 2187.849521 272.125653 
L 2190.521204 260.540842 
L 2193.192886 427.504084 
L 2195.864569 407.179388 
L 2198.536252 352.3468 
L 2201.207934 396.043844 
L 2203.879617 516.638844 
L 2206.5513 513.178511 
L 2209.222982 396.259592 
L 2211.894665 387.854723 
L 2214.566347 397.129101 
L 2217.23803 495.259752 
L 2219.909713 497.172484 
L 2222.581395 367.306826 
L 2225.253078 365.263955 
L 2227.924761 372.616706 
L 2230.596443 443.596673 
L 2233.268126 445.161784 
L 2235.939808 441.725271 
L 2238.611491 462.255588 
L 2241.283174 547.405577 
L 2243.954856 552.784686 
L 2246.626539 544.637257 
L 2249.298222 398.961939 
L 2251.969904 408.35411 
L 2254.641587 330.912497 
L 2257.313269 400.709045 
L 2259.984952 314.232116 
L 2262.656635 298.700307 
L 2265.328317 260.074003 
L 2268 256.730568 
L 2270.671683 263.303503 
L 2270.671683 263.303503 
" clip-path="url(#pe465faf257)" style="fill: none; stroke: #ff0000; stroke-width: 1.2; stroke-linecap: square"/>
   </g>
   <g id="patch_3">
    <path d="M 315 640.8 
L 315 86.4 
" style="fill: none; stroke: #000000; stroke-width: 0.8; stroke-linejoin: miter; stroke-linecap: square"/>
   </g>
   <g id="patch_4">
    <path d="M 2268 640.8 
L 2268 86.4 
" style="fill: none; stroke: #000000; stroke-width: 0.8; stroke-linejoin: miter; stroke-linecap: square"/>
   </g>
   <g id="patch_5">
    <path d="M 315 640.8 
L 2268 640.8 
" style="fill: none; stroke: #000000; stroke-width: 0.8; stroke-linejoin: miter; stroke-linecap: square"/>
   </g>
   <g id="patch_6">
    <path d="M 315 86.4 
L 2268 86.4 
" style="fill: none; stroke: #000000; stroke-width: 0.8; stroke-linejoin: miter; stroke-linecap: square"/>
   </g>
   <g id="text_20">
    <!-- Model ARIMA - KOPE (north) -->
    <g transform="translate(1152.089062 80.4) scale(0.2 -0.2)">
     <defs>
      <path id="DejaVuSans-4d" d="M 628 4666 
L 1569 4666 
L 2759 1491 
L 3956 4666 
L 4897 4666 
L 4897 0 
L 4281 0 
L 4281 4097 
L 3078 897 
L 2444 897 
L 1241 4097 
L 1241 0 
L 628 0 
L 628 4666 
z
" transform="scale(0.015625)"/>
      <path id="DejaVuSans-64" d="M 2906 2969 
L 2906 4863 
L 3481 4863 
L 3481 0 
L 2906 0 
L 2906 525 
Q 2725 213 2448 61 
Q 2172 -91 1784 -91 
Q 1150 -91 751 415 
Q 353 922 353 1747 
Q 353 2572 751 3078 
Q 1150 3584 1784 3584 
Q 2172 3584 2448 3432 
Q 2725 3281 2906 2969 
z
M 947 1747 
Q 947 1113 1208 752 
Q 1469 391 1925 391 
Q 2381 391 2643 752 
Q 2906 1113 2906 1747 
Q 2906 2381 2643 2742 
Q 2381 3103 1925 3103 
Q 1469 3103 1208 2742 
Q 947 2381 947 1747 
z
" transform="scale(0.015625)"/>
      <path id="DejaVuSans-6c" d="M 603 4863 
L 1178 4863 
L 1178 0 
L 603 0 
L 603 4863 
z
" transform="scale(0.015625)"/>
      <path id="DejaVuSans-20" transform="scale(0.015625)"/>
      <path id="DejaVuSans-41" d="M 2188 4044 
L 1331 1722 
L 3047 1722 
L 2188 4044 
z
M 1831 4666 
L 2547 4666 
L 4325 0 
L 3669 0 
L 3244 1197 
L 1141 1197 
L 716 0 
L 50 0 
L 1831 4666 
z
" transform="scale(0.015625)"/>
      <path id="DejaVuSans-52" d="M 2841 2188 
Q 3044 2119 3236 1894 
Q 3428 1669 3622 1275 
L 4263 0 
L 3584 0 
L 2988 1197 
Q 2756 1666 2539 1819 
Q 2322 1972 1947 1972 
L 1259 1972 
L 1259 0 
L 628 0 
L 628 4666 
L 2053 4666 
Q 2853 4666 3247 4331 
Q 3641 3997 3641 3322 
Q 3641 2881 3436 2590 
Q 3231 2300 2841 2188 
z
M 1259 4147 
L 1259 2491 
L 2053 2491 
Q 2509 2491 2742 2702 
Q 2975 2913 2975 3322 
Q 2975 3731 2742 3939 
Q 2509 4147 2053 4147 
L 1259 4147 
z
" transform="scale(0.015625)"/>
      <path id="DejaVuSans-49" d="M 628 4666 
L 1259 4666 
L 1259 0 
L 628 0 
L 628 4666 
z
" transform="scale(0.015625)"/>
      <path id="DejaVuSans-4b" d="M 628 4666 
L 1259 4666 
L 1259 2694 
L 3353 4666 
L 4166 4666 
L 1850 2491 
L 4331 0 
L 3500 0 
L 1259 2247 
L 1259 0 
L 628 0 
L 628 4666 
z
" transform="scale(0.015625)"/>
      <path id="DejaVuSans-4f" d="M 2522 4238 
Q 1834 4238 1429 3725 
Q 1025 3213 1025 2328 
Q 1025 1447 1429 934 
Q 1834 422 2522 422 
Q 3209 422 3611 934 
Q 4013 1447 4013 2328 
Q 4013 3213 3611 3725 
Q 3209 4238 2522 4238 
z
M 2522 4750 
Q 3503 4750 4090 4092 
Q 4678 3434 4678 2328 
Q 4678 1225 4090 567 
Q 3503 -91 2522 -91 
Q 1538 -91 948 565 
Q 359 1222 359 2328 
Q 359 3434 948 4092 
Q 1538 4750 2522 4750 
z
" transform="scale(0.015625)"/>
      <path id="DejaVuSans-50" d="M 1259 4147 
L 1259 2394 
L 2053 2394 
Q 2494 2394 2734 2622 
Q 2975 2850 2975 3272 
Q 2975 3691 2734 3919 
Q 2494 4147 2053 4147 
L 1259 4147 
z
M 628 4666 
L 2053 4666 
Q 2838 4666 3239 4311 
Q 3641 3956 3641 3272 
Q 3641 2581 3239 2228 
Q 2838 1875 2053 1875 
L 1259 1875 
L 1259 0 
L 628 0 
L 628 4666 
z
" transform="scale(0.015625)"/>
      <path id="DejaVuSans-45" d="M 628 4666 
L 3578 4666 
L 3578 4134 
L 1259 4134 
L 1259 2753 
L 3481 2753 
L 3481 2222 
L 1259 2222 
L 1259 531 
L 3634 531 
L 3634 0 
L 628 0 
L 628 4666 
z
" transform="scale(0.015625)"/>
      <path id="DejaVuSans-6e" d="M 3513 2113 
L 3513 0 
L 2938 0 
L 2938 2094 
Q 2938 2591 2744 2837 
Q 2550 3084 2163 3084 
Q 1697 3084 1428 2787 
Q 1159 2491 1159 1978 
L 1159 0 
L 581 0 
L 581 3500 
L 1159 3500 
L 1159 2956 
Q 1366 3272 1645 3428 
Q 1925 3584 2291 3584 
Q 2894 3584 3203 3211 
Q 3513 2838 3513 2113 
z
" transform="scale(0.015625)"/>
     </defs>
     <use xlink:href="#DejaVuSans-4d"/>
     <use xlink:href="#DejaVuSans-6f" x="86.279297"/>
     <use xlink:href="#DejaVuSans-64" x="147.460938"/>
     <use xlink:href="#DejaVuSans-65" x="210.9375"/>
     <use xlink:href="#DejaVuSans-6c" x="272.460938"/>
     <use xlink:href="#DejaVuSans-20" x="300.244141"/>
     <use xlink:href="#DejaVuSans-41" x="332.03125"/>
     <use xlink:href="#DejaVuSans-52" x="400.439453"/>
     <use xlink:href="#DejaVuSans-49" x="469.921875"/>
     <use xlink:href="#DejaVuSans-4d" x="499.414062"/>
     <use xlink:href="#DejaVuSans-41" x="585.693359"/>
     <use xlink:href="#DejaVuSans-20" x="654.101562"/>
     <use xlink:href="#DejaVuSans-2d" x="685.888672"/>
     <use xlink:href="#DejaVuSans-20" x="721.972656"/>
     <use xlink:href="#DejaVuSans-4b" x="753.759766"/>
     <use xlink:href="#DejaVuSans-4f" x="813.835938"/>
     <use xlink:href="#DejaVuSans-50" x="892.546875"/>
     <use xlink:href="#DejaVuSans-45" x="952.849609"/>
     <use xlink:href="#DejaVuSans-20" x="1016.033203"/>
     <use xlink:href="#DejaVuSans-28" x="1047.820312"/>
     <use xlink:href="#DejaVuSans-6e" x="1086.833984"/>
     <use xlink:href="#DejaVuSans-6f" x="1150.212891"/>
     <use xlink:href="#DejaVuSans-72" x="1211.394531"/>
     <use xlink:href="#DejaVuSans-74" x="1252.507812"/>
     <use xlink:href="#DejaVuSans-68" x="1291.716797"/>
     <use xlink:href="#DejaVuSans-29" x="1355.095703"/>
    </g>
   </g>
   <g id="legend_1">
    <g id="patch_7">
     <path d="M 2188.320312 109.078125 
L 2261 109.078125 
Q 2263 109.078125 2263 107.078125 
L 2263 93.4 
Q 2263 91.4 2261 91.4 
L 2188.320312 91.4 
Q 2186.320312 91.4 2186.320312 93.4 
L 2186.320312 107.078125 
Q 2186.320312 109.078125 2188.320312 109.078125 
z
" style="fill: #ffffff; opacity: 0.8; stroke: #cccccc; stroke-linejoin: miter"/>
    </g>
    <g id="line2d_19">
     <path d="M 2190.320312 99.498438 
L 2200.320312 99.498438 
L 2210.320312 99.498438 
" style="fill: none; stroke: #ff0000; stroke-width: 1.2; stroke-linecap: square"/>
    </g>
    <g id="text_21">
     <!-- model 2 -->
     <g transform="translate(2218.320312 102.998438) scale(0.1 -0.1)">
      <use xlink:href="#DejaVuSans-6d"/>
      <use xlink:href="#DejaVuSans-6f" x="97.412109"/>
      <use xlink:href="#DejaVuSans-64" x="158.59375"/>
      <use xlink:href="#DejaVuSans-65" x="222.070312"/>
      <use xlink:href="#DejaVuSans-6c" x="283.59375"/>
      <use xlink:href="#DejaVuSans-20" x="311.376953"/>
      <use xlink:href="#DejaVuSans-32" x="343.164062"/>
     </g>
    </g>
   </g>
  </g>
 </g>
 <defs>
  <clipPath id="pe465faf257">
   <rect x="315" y="86.4" width="1953" height="554.4"/>
  </clipPath>
 </defs>
</svg>
