<?xml version="1.0" encoding="utf-8" standalone="no"?>
<!DOCTYPE svg PUBLIC "-//W3C//DTD SVG 1.1//EN"
  "http://www.w3.org/Graphics/SVG/1.1/DTD/svg11.dtd">
<svg xmlns:xlink="http://www.w3.org/1999/xlink" width="2520pt" height="720pt" viewBox="0 0 2520 720" xmlns="http://www.w3.org/2000/svg" version="1.1">
 <metadata>
  <rdf:RDF xmlns:dc="http://purl.org/dc/elements/1.1/" xmlns:cc="http://creativecommons.org/ns#" xmlns:rdf="http://www.w3.org/1999/02/22-rdf-syntax-ns#">
   <cc:Work>
    <dc:type rdf:resource="http://purl.org/dc/dcmitype/StillImage"/>
    <dc:date>2024-02-08T12:27:16.069326</dc:date>
    <dc:format>image/svg+xml</dc:format>
    <dc:creator>
     <cc:Agent>
      <dc:title>Matplotlib v3.7.1, https://matplotlib.org/</dc:title>
     </cc:Agent>
    </dc:creator>
   </cc:Work>
  </rdf:RDF>
 </metadata>
 <defs>
  <style type="text/css">*{stroke-linejoin: round; stroke-linecap: butt}</style>
 </defs>
 <g id="figure_1">
  <g id="patch_1">
   <path d="M 0 720 
L 2520 720 
L 2520 0 
L 0 0 
z
" style="fill: #ffffff"/>
  </g>
  <g id="axes_1">
   <g id="patch_2">
    <path d="M 315 640.8 
L 2268 640.8 
L 2268 86.4 
L 315 86.4 
z
" style="fill: #ffffff"/>
   </g>
   <g id="matplotlib.axis_1">
    <g id="xtick_1">
     <g id="line2d_1">
      <defs>
       <path id="mc5f7e753ae" d="M 0 0 
L 0 3.5 
" style="stroke: #000000; stroke-width: 0.8"/>
      </defs>
      <g>
       <use xlink:href="#mc5f7e753ae" x="520.719562" y="640.8" style="stroke: #000000; stroke-width: 0.8"/>
      </g>
     </g>
     <g id="text_1">
      <!-- 2012-04 -->
      <g transform="translate(489.382453 659.197656) scale(0.15 -0.15)">
       <defs>
        <path id="DejaVuSans-32" d="M 1228 531 
L 3431 531 
L 3431 0 
L 469 0 
L 469 531 
Q 828 903 1448 1529 
Q 2069 2156 2228 2338 
Q 2531 2678 2651 2914 
Q 2772 3150 2772 3378 
Q 2772 3750 2511 3984 
Q 2250 4219 1831 4219 
Q 1534 4219 1204 4116 
Q 875 4013 500 3803 
L 500 4441 
Q 881 4594 1212 4672 
Q 1544 4750 1819 4750 
Q 2544 4750 2975 4387 
Q 3406 4025 3406 3419 
Q 3406 3131 3298 2873 
Q 3191 2616 2906 2266 
Q 2828 2175 2409 1742 
Q 1991 1309 1228 531 
z
" transform="scale(0.015625)"/>
        <path id="DejaVuSans-30" d="M 2034 4250 
Q 1547 4250 1301 3770 
Q 1056 3291 1056 2328 
Q 1056 1369 1301 889 
Q 1547 409 2034 409 
Q 2525 409 2770 889 
Q 3016 1369 3016 2328 
Q 3016 3291 2770 3770 
Q 2525 4250 2034 4250 
z
M 2034 4750 
Q 2819 4750 3233 4129 
Q 3647 3509 3647 2328 
Q 3647 1150 3233 529 
Q 2819 -91 2034 -91 
Q 1250 -91 836 529 
Q 422 1150 422 2328 
Q 422 3509 836 4129 
Q 1250 4750 2034 4750 
z
" transform="scale(0.015625)"/>
        <path id="DejaVuSans-31" d="M 794 531 
L 1825 531 
L 1825 4091 
L 703 3866 
L 703 4441 
L 1819 4666 
L 2450 4666 
L 2450 531 
L 3481 531 
L 3481 0 
L 794 0 
L 794 531 
z
" transform="scale(0.015625)"/>
        <path id="DejaVuSans-2d" d="M 313 2009 
L 1997 2009 
L 1997 1497 
L 313 1497 
L 313 2009 
z
" transform="scale(0.015625)"/>
        <path id="DejaVuSans-34" d="M 2419 4116 
L 825 1625 
L 2419 1625 
L 2419 4116 
z
M 2253 4666 
L 3047 4666 
L 3047 1625 
L 3713 1625 
L 3713 1100 
L 3047 1100 
L 3047 0 
L 2419 0 
L 2419 1100 
L 313 1100 
L 313 1709 
L 2253 4666 
z
" transform="scale(0.015625)"/>
       </defs>
       <use xlink:href="#DejaVuSans-32"/>
       <use xlink:href="#DejaVuSans-30" x="63.623047"/>
       <use xlink:href="#DejaVuSans-31" x="127.246094"/>
       <use xlink:href="#DejaVuSans-32" x="190.869141"/>
       <use xlink:href="#DejaVuSans-2d" x="254.492188"/>
       <use xlink:href="#DejaVuSans-30" x="290.576172"/>
       <use xlink:href="#DejaVuSans-34" x="354.199219"/>
      </g>
     </g>
    </g>
    <g id="xtick_2">
     <g id="line2d_2">
      <g>
       <use xlink:href="#mc5f7e753ae" x="763.842681" y="640.8" style="stroke: #000000; stroke-width: 0.8"/>
      </g>
     </g>
     <g id="text_2">
      <!-- 2012-07 -->
      <g transform="translate(732.505572 659.197656) scale(0.15 -0.15)">
       <defs>
        <path id="DejaVuSans-37" d="M 525 4666 
L 3525 4666 
L 3525 4397 
L 1831 0 
L 1172 0 
L 2766 4134 
L 525 4134 
L 525 4666 
z
" transform="scale(0.015625)"/>
       </defs>
       <use xlink:href="#DejaVuSans-32"/>
       <use xlink:href="#DejaVuSans-30" x="63.623047"/>
       <use xlink:href="#DejaVuSans-31" x="127.246094"/>
       <use xlink:href="#DejaVuSans-32" x="190.869141"/>
       <use xlink:href="#DejaVuSans-2d" x="254.492188"/>
       <use xlink:href="#DejaVuSans-30" x="290.576172"/>
       <use xlink:href="#DejaVuSans-37" x="354.199219"/>
      </g>
     </g>
    </g>
    <g id="xtick_3">
     <g id="line2d_3">
      <g>
       <use xlink:href="#mc5f7e753ae" x="1009.637483" y="640.8" style="stroke: #000000; stroke-width: 0.8"/>
      </g>
     </g>
     <g id="text_3">
      <!-- 2012-10 -->
      <g transform="translate(978.300374 659.197656) scale(0.15 -0.15)">
       <use xlink:href="#DejaVuSans-32"/>
       <use xlink:href="#DejaVuSans-30" x="63.623047"/>
       <use xlink:href="#DejaVuSans-31" x="127.246094"/>
       <use xlink:href="#DejaVuSans-32" x="190.869141"/>
       <use xlink:href="#DejaVuSans-2d" x="254.492188"/>
       <use xlink:href="#DejaVuSans-31" x="290.576172"/>
       <use xlink:href="#DejaVuSans-30" x="354.199219"/>
      </g>
     </g>
    </g>
    <g id="xtick_4">
     <g id="line2d_4">
      <g>
       <use xlink:href="#mc5f7e753ae" x="1255.432285" y="640.8" style="stroke: #000000; stroke-width: 0.8"/>
      </g>
     </g>
     <g id="text_4">
      <!-- 2013-01 -->
      <g transform="translate(1224.095175 659.197656) scale(0.15 -0.15)">
       <defs>
        <path id="DejaVuSans-33" d="M 2597 2516 
Q 3050 2419 3304 2112 
Q 3559 1806 3559 1356 
Q 3559 666 3084 287 
Q 2609 -91 1734 -91 
Q 1441 -91 1130 -33 
Q 819 25 488 141 
L 488 750 
Q 750 597 1062 519 
Q 1375 441 1716 441 
Q 2309 441 2620 675 
Q 2931 909 2931 1356 
Q 2931 1769 2642 2001 
Q 2353 2234 1838 2234 
L 1294 2234 
L 1294 2753 
L 1863 2753 
Q 2328 2753 2575 2939 
Q 2822 3125 2822 3475 
Q 2822 3834 2567 4026 
Q 2313 4219 1838 4219 
Q 1578 4219 1281 4162 
Q 984 4106 628 3988 
L 628 4550 
Q 988 4650 1302 4700 
Q 1616 4750 1894 4750 
Q 2613 4750 3031 4423 
Q 3450 4097 3450 3541 
Q 3450 3153 3228 2886 
Q 3006 2619 2597 2516 
z
" transform="scale(0.015625)"/>
       </defs>
       <use xlink:href="#DejaVuSans-32"/>
       <use xlink:href="#DejaVuSans-30" x="63.623047"/>
       <use xlink:href="#DejaVuSans-31" x="127.246094"/>
       <use xlink:href="#DejaVuSans-33" x="190.869141"/>
       <use xlink:href="#DejaVuSans-2d" x="254.492188"/>
       <use xlink:href="#DejaVuSans-30" x="290.576172"/>
       <use xlink:href="#DejaVuSans-31" x="354.199219"/>
      </g>
     </g>
    </g>
    <g id="xtick_5">
     <g id="line2d_5">
      <g>
       <use xlink:href="#mc5f7e753ae" x="1495.883721" y="640.8" style="stroke: #000000; stroke-width: 0.8"/>
      </g>
     </g>
     <g id="text_5">
      <!-- 2013-04 -->
      <g transform="translate(1464.546612 659.197656) scale(0.15 -0.15)">
       <use xlink:href="#DejaVuSans-32"/>
       <use xlink:href="#DejaVuSans-30" x="63.623047"/>
       <use xlink:href="#DejaVuSans-31" x="127.246094"/>
       <use xlink:href="#DejaVuSans-33" x="190.869141"/>
       <use xlink:href="#DejaVuSans-2d" x="254.492188"/>
       <use xlink:href="#DejaVuSans-30" x="290.576172"/>
       <use xlink:href="#DejaVuSans-34" x="354.199219"/>
      </g>
     </g>
    </g>
    <g id="xtick_6">
     <g id="line2d_6">
      <g>
       <use xlink:href="#mc5f7e753ae" x="1739.00684" y="640.8" style="stroke: #000000; stroke-width: 0.8"/>
      </g>
     </g>
     <g id="text_6">
      <!-- 2013-07 -->
      <g transform="translate(1707.669731 659.197656) scale(0.15 -0.15)">
       <use xlink:href="#DejaVuSans-32"/>
       <use xlink:href="#DejaVuSans-30" x="63.623047"/>
       <use xlink:href="#DejaVuSans-31" x="127.246094"/>
       <use xlink:href="#DejaVuSans-33" x="190.869141"/>
       <use xlink:href="#DejaVuSans-2d" x="254.492188"/>
       <use xlink:href="#DejaVuSans-30" x="290.576172"/>
       <use xlink:href="#DejaVuSans-37" x="354.199219"/>
      </g>
     </g>
    </g>
    <g id="xtick_7">
     <g id="line2d_7">
      <g>
       <use xlink:href="#mc5f7e753ae" x="1984.801642" y="640.8" style="stroke: #000000; stroke-width: 0.8"/>
      </g>
     </g>
     <g id="text_7">
      <!-- 2013-10 -->
      <g transform="translate(1953.464532 659.197656) scale(0.15 -0.15)">
       <use xlink:href="#DejaVuSans-32"/>
       <use xlink:href="#DejaVuSans-30" x="63.623047"/>
       <use xlink:href="#DejaVuSans-31" x="127.246094"/>
       <use xlink:href="#DejaVuSans-33" x="190.869141"/>
       <use xlink:href="#DejaVuSans-2d" x="254.492188"/>
       <use xlink:href="#DejaVuSans-31" x="290.576172"/>
       <use xlink:href="#DejaVuSans-30" x="354.199219"/>
      </g>
     </g>
    </g>
    <g id="xtick_8">
     <g id="line2d_8">
      <g>
       <use xlink:href="#mc5f7e753ae" x="2230.596443" y="640.8" style="stroke: #000000; stroke-width: 0.8"/>
      </g>
     </g>
     <g id="text_8">
      <!-- 2014-01 -->
      <g transform="translate(2199.259334 659.197656) scale(0.15 -0.15)">
       <use xlink:href="#DejaVuSans-32"/>
       <use xlink:href="#DejaVuSans-30" x="63.623047"/>
       <use xlink:href="#DejaVuSans-31" x="127.246094"/>
       <use xlink:href="#DejaVuSans-34" x="190.869141"/>
       <use xlink:href="#DejaVuSans-2d" x="254.492188"/>
       <use xlink:href="#DejaVuSans-30" x="290.576172"/>
       <use xlink:href="#DejaVuSans-31" x="354.199219"/>
      </g>
     </g>
    </g>
    <g id="text_9">
     <!-- Time -->
     <g transform="translate(1267.032813 681.514063) scale(0.2 -0.2)">
      <defs>
       <path id="DejaVuSans-54" d="M -19 4666 
L 3928 4666 
L 3928 4134 
L 2272 4134 
L 2272 0 
L 1638 0 
L 1638 4134 
L -19 4134 
L -19 4666 
z
" transform="scale(0.015625)"/>
       <path id="DejaVuSans-69" d="M 603 3500 
L 1178 3500 
L 1178 0 
L 603 0 
L 603 3500 
z
M 603 4863 
L 1178 4863 
L 1178 4134 
L 603 4134 
L 603 4863 
z
" transform="scale(0.015625)"/>
       <path id="DejaVuSans-6d" d="M 3328 2828 
Q 3544 3216 3844 3400 
Q 4144 3584 4550 3584 
Q 5097 3584 5394 3201 
Q 5691 2819 5691 2113 
L 5691 0 
L 5113 0 
L 5113 2094 
Q 5113 2597 4934 2840 
Q 4756 3084 4391 3084 
Q 3944 3084 3684 2787 
Q 3425 2491 3425 1978 
L 3425 0 
L 2847 0 
L 2847 2094 
Q 2847 2600 2669 2842 
Q 2491 3084 2119 3084 
Q 1678 3084 1418 2786 
Q 1159 2488 1159 1978 
L 1159 0 
L 581 0 
L 581 3500 
L 1159 3500 
L 1159 2956 
Q 1356 3278 1631 3431 
Q 1906 3584 2284 3584 
Q 2666 3584 2933 3390 
Q 3200 3197 3328 2828 
z
" transform="scale(0.015625)"/>
       <path id="DejaVuSans-65" d="M 3597 1894 
L 3597 1613 
L 953 1613 
Q 991 1019 1311 708 
Q 1631 397 2203 397 
Q 2534 397 2845 478 
Q 3156 559 3463 722 
L 3463 178 
Q 3153 47 2828 -22 
Q 2503 -91 2169 -91 
Q 1331 -91 842 396 
Q 353 884 353 1716 
Q 353 2575 817 3079 
Q 1281 3584 2069 3584 
Q 2775 3584 3186 3129 
Q 3597 2675 3597 1894 
z
M 3022 2063 
Q 3016 2534 2758 2815 
Q 2500 3097 2075 3097 
Q 1594 3097 1305 2825 
Q 1016 2553 972 2059 
L 3022 2063 
z
" transform="scale(0.015625)"/>
      </defs>
      <use xlink:href="#DejaVuSans-54"/>
      <use xlink:href="#DejaVuSans-69" x="57.958984"/>
      <use xlink:href="#DejaVuSans-6d" x="85.742188"/>
      <use xlink:href="#DejaVuSans-65" x="183.154297"/>
     </g>
    </g>
   </g>
   <g id="matplotlib.axis_2">
    <g id="ytick_1">
     <g id="line2d_9">
      <defs>
       <path id="mf206abb4e5" d="M 0 0 
L -3.5 0 
" style="stroke: #000000; stroke-width: 0.8"/>
      </defs>
      <g>
       <use xlink:href="#mf206abb4e5" x="315" y="640.8" style="stroke: #000000; stroke-width: 0.8"/>
      </g>
     </g>
     <g id="text_10">
      <!-- −0.00100 -->
      <g transform="translate(233.400781 646.498828) scale(0.15 -0.15)">
       <defs>
        <path id="DejaVuSans-2212" d="M 678 2272 
L 4684 2272 
L 4684 1741 
L 678 1741 
L 678 2272 
z
" transform="scale(0.015625)"/>
        <path id="DejaVuSans-2e" d="M 684 794 
L 1344 794 
L 1344 0 
L 684 0 
L 684 794 
z
" transform="scale(0.015625)"/>
       </defs>
       <use xlink:href="#DejaVuSans-2212"/>
       <use xlink:href="#DejaVuSans-30" x="83.789062"/>
       <use xlink:href="#DejaVuSans-2e" x="147.412109"/>
       <use xlink:href="#DejaVuSans-30" x="179.199219"/>
       <use xlink:href="#DejaVuSans-30" x="242.822266"/>
       <use xlink:href="#DejaVuSans-31" x="306.445312"/>
       <use xlink:href="#DejaVuSans-30" x="370.068359"/>
       <use xlink:href="#DejaVuSans-30" x="433.691406"/>
      </g>
     </g>
    </g>
    <g id="ytick_2">
     <g id="line2d_10">
      <g>
       <use xlink:href="#mf206abb4e5" x="315" y="571.5" style="stroke: #000000; stroke-width: 0.8"/>
      </g>
     </g>
     <g id="text_11">
      <!-- −0.00075 -->
      <g transform="translate(233.400781 577.198828) scale(0.15 -0.15)">
       <defs>
        <path id="DejaVuSans-35" d="M 691 4666 
L 3169 4666 
L 3169 4134 
L 1269 4134 
L 1269 2991 
Q 1406 3038 1543 3061 
Q 1681 3084 1819 3084 
Q 2600 3084 3056 2656 
Q 3513 2228 3513 1497 
Q 3513 744 3044 326 
Q 2575 -91 1722 -91 
Q 1428 -91 1123 -41 
Q 819 9 494 109 
L 494 744 
Q 775 591 1075 516 
Q 1375 441 1709 441 
Q 2250 441 2565 725 
Q 2881 1009 2881 1497 
Q 2881 1984 2565 2268 
Q 2250 2553 1709 2553 
Q 1456 2553 1204 2497 
Q 953 2441 691 2322 
L 691 4666 
z
" transform="scale(0.015625)"/>
       </defs>
       <use xlink:href="#DejaVuSans-2212"/>
       <use xlink:href="#DejaVuSans-30" x="83.789062"/>
       <use xlink:href="#DejaVuSans-2e" x="147.412109"/>
       <use xlink:href="#DejaVuSans-30" x="179.199219"/>
       <use xlink:href="#DejaVuSans-30" x="242.822266"/>
       <use xlink:href="#DejaVuSans-30" x="306.445312"/>
       <use xlink:href="#DejaVuSans-37" x="370.068359"/>
       <use xlink:href="#DejaVuSans-35" x="433.691406"/>
      </g>
     </g>
    </g>
    <g id="ytick_3">
     <g id="line2d_11">
      <g>
       <use xlink:href="#mf206abb4e5" x="315" y="502.2" style="stroke: #000000; stroke-width: 0.8"/>
      </g>
     </g>
     <g id="text_12">
      <!-- −0.00050 -->
      <g transform="translate(233.400781 507.898828) scale(0.15 -0.15)">
       <use xlink:href="#DejaVuSans-2212"/>
       <use xlink:href="#DejaVuSans-30" x="83.789062"/>
       <use xlink:href="#DejaVuSans-2e" x="147.412109"/>
       <use xlink:href="#DejaVuSans-30" x="179.199219"/>
       <use xlink:href="#DejaVuSans-30" x="242.822266"/>
       <use xlink:href="#DejaVuSans-30" x="306.445312"/>
       <use xlink:href="#DejaVuSans-35" x="370.068359"/>
       <use xlink:href="#DejaVuSans-30" x="433.691406"/>
      </g>
     </g>
    </g>
    <g id="ytick_4">
     <g id="line2d_12">
      <g>
       <use xlink:href="#mf206abb4e5" x="315" y="432.9" style="stroke: #000000; stroke-width: 0.8"/>
      </g>
     </g>
     <g id="text_13">
      <!-- −0.00025 -->
      <g transform="translate(233.400781 438.598828) scale(0.15 -0.15)">
       <use xlink:href="#DejaVuSans-2212"/>
       <use xlink:href="#DejaVuSans-30" x="83.789062"/>
       <use xlink:href="#DejaVuSans-2e" x="147.412109"/>
       <use xlink:href="#DejaVuSans-30" x="179.199219"/>
       <use xlink:href="#DejaVuSans-30" x="242.822266"/>
       <use xlink:href="#DejaVuSans-30" x="306.445312"/>
       <use xlink:href="#DejaVuSans-32" x="370.068359"/>
       <use xlink:href="#DejaVuSans-35" x="433.691406"/>
      </g>
     </g>
    </g>
    <g id="ytick_5">
     <g id="line2d_13">
      <g>
       <use xlink:href="#mf206abb4e5" x="315" y="363.6" style="stroke: #000000; stroke-width: 0.8"/>
      </g>
     </g>
     <g id="text_14">
      <!-- 0.00000 -->
      <g transform="translate(245.970313 369.298828) scale(0.15 -0.15)">
       <use xlink:href="#DejaVuSans-30"/>
       <use xlink:href="#DejaVuSans-2e" x="63.623047"/>
       <use xlink:href="#DejaVuSans-30" x="95.410156"/>
       <use xlink:href="#DejaVuSans-30" x="159.033203"/>
       <use xlink:href="#DejaVuSans-30" x="222.65625"/>
       <use xlink:href="#DejaVuSans-30" x="286.279297"/>
       <use xlink:href="#DejaVuSans-30" x="349.902344"/>
      </g>
     </g>
    </g>
    <g id="ytick_6">
     <g id="line2d_14">
      <g>
       <use xlink:href="#mf206abb4e5" x="315" y="294.3" style="stroke: #000000; stroke-width: 0.8"/>
      </g>
     </g>
     <g id="text_15">
      <!-- 0.00025 -->
      <g transform="translate(245.970313 299.998828) scale(0.15 -0.15)">
       <use xlink:href="#DejaVuSans-30"/>
       <use xlink:href="#DejaVuSans-2e" x="63.623047"/>
       <use xlink:href="#DejaVuSans-30" x="95.410156"/>
       <use xlink:href="#DejaVuSans-30" x="159.033203"/>
       <use xlink:href="#DejaVuSans-30" x="222.65625"/>
       <use xlink:href="#DejaVuSans-32" x="286.279297"/>
       <use xlink:href="#DejaVuSans-35" x="349.902344"/>
      </g>
     </g>
    </g>
    <g id="ytick_7">
     <g id="line2d_15">
      <g>
       <use xlink:href="#mf206abb4e5" x="315" y="225" style="stroke: #000000; stroke-width: 0.8"/>
      </g>
     </g>
     <g id="text_16">
      <!-- 0.00050 -->
      <g transform="translate(245.970313 230.698828) scale(0.15 -0.15)">
       <use xlink:href="#DejaVuSans-30"/>
       <use xlink:href="#DejaVuSans-2e" x="63.623047"/>
       <use xlink:href="#DejaVuSans-30" x="95.410156"/>
       <use xlink:href="#DejaVuSans-30" x="159.033203"/>
       <use xlink:href="#DejaVuSans-30" x="222.65625"/>
       <use xlink:href="#DejaVuSans-35" x="286.279297"/>
       <use xlink:href="#DejaVuSans-30" x="349.902344"/>
      </g>
     </g>
    </g>
    <g id="ytick_8">
     <g id="line2d_16">
      <g>
       <use xlink:href="#mf206abb4e5" x="315" y="155.7" style="stroke: #000000; stroke-width: 0.8"/>
      </g>
     </g>
     <g id="text_17">
      <!-- 0.00075 -->
      <g transform="translate(245.970313 161.398828) scale(0.15 -0.15)">
       <use xlink:href="#DejaVuSans-30"/>
       <use xlink:href="#DejaVuSans-2e" x="63.623047"/>
       <use xlink:href="#DejaVuSans-30" x="95.410156"/>
       <use xlink:href="#DejaVuSans-30" x="159.033203"/>
       <use xlink:href="#DejaVuSans-30" x="222.65625"/>
       <use xlink:href="#DejaVuSans-37" x="286.279297"/>
       <use xlink:href="#DejaVuSans-35" x="349.902344"/>
      </g>
     </g>
    </g>
    <g id="ytick_9">
     <g id="line2d_17">
      <g>
       <use xlink:href="#mf206abb4e5" x="315" y="86.4" style="stroke: #000000; stroke-width: 0.8"/>
      </g>
     </g>
     <g id="text_18">
      <!-- 0.00100 -->
      <g transform="translate(245.970313 92.098828) scale(0.15 -0.15)">
       <use xlink:href="#DejaVuSans-30"/>
       <use xlink:href="#DejaVuSans-2e" x="63.623047"/>
       <use xlink:href="#DejaVuSans-30" x="95.410156"/>
       <use xlink:href="#DejaVuSans-30" x="159.033203"/>
       <use xlink:href="#DejaVuSans-31" x="222.65625"/>
       <use xlink:href="#DejaVuSans-30" x="286.279297"/>
       <use xlink:href="#DejaVuSans-30" x="349.902344"/>
      </g>
     </g>
    </g>
    <g id="text_19">
     <!-- North(m) -->
     <g transform="translate(225.241406 409.1125) rotate(-90) scale(0.2 -0.2)">
      <defs>
       <path id="DejaVuSans-4e" d="M 628 4666 
L 1478 4666 
L 3547 763 
L 3547 4666 
L 4159 4666 
L 4159 0 
L 3309 0 
L 1241 3903 
L 1241 0 
L 628 0 
L 628 4666 
z
" transform="scale(0.015625)"/>
       <path id="DejaVuSans-6f" d="M 1959 3097 
Q 1497 3097 1228 2736 
Q 959 2375 959 1747 
Q 959 1119 1226 758 
Q 1494 397 1959 397 
Q 2419 397 2687 759 
Q 2956 1122 2956 1747 
Q 2956 2369 2687 2733 
Q 2419 3097 1959 3097 
z
M 1959 3584 
Q 2709 3584 3137 3096 
Q 3566 2609 3566 1747 
Q 3566 888 3137 398 
Q 2709 -91 1959 -91 
Q 1206 -91 779 398 
Q 353 888 353 1747 
Q 353 2609 779 3096 
Q 1206 3584 1959 3584 
z
" transform="scale(0.015625)"/>
       <path id="DejaVuSans-72" d="M 2631 2963 
Q 2534 3019 2420 3045 
Q 2306 3072 2169 3072 
Q 1681 3072 1420 2755 
Q 1159 2438 1159 1844 
L 1159 0 
L 581 0 
L 581 3500 
L 1159 3500 
L 1159 2956 
Q 1341 3275 1631 3429 
Q 1922 3584 2338 3584 
Q 2397 3584 2469 3576 
Q 2541 3569 2628 3553 
L 2631 2963 
z
" transform="scale(0.015625)"/>
       <path id="DejaVuSans-74" d="M 1172 4494 
L 1172 3500 
L 2356 3500 
L 2356 3053 
L 1172 3053 
L 1172 1153 
Q 1172 725 1289 603 
Q 1406 481 1766 481 
L 2356 481 
L 2356 0 
L 1766 0 
Q 1100 0 847 248 
Q 594 497 594 1153 
L 594 3053 
L 172 3053 
L 172 3500 
L 594 3500 
L 594 4494 
L 1172 4494 
z
" transform="scale(0.015625)"/>
       <path id="DejaVuSans-68" d="M 3513 2113 
L 3513 0 
L 2938 0 
L 2938 2094 
Q 2938 2591 2744 2837 
Q 2550 3084 2163 3084 
Q 1697 3084 1428 2787 
Q 1159 2491 1159 1978 
L 1159 0 
L 581 0 
L 581 4863 
L 1159 4863 
L 1159 2956 
Q 1366 3272 1645 3428 
Q 1925 3584 2291 3584 
Q 2894 3584 3203 3211 
Q 3513 2838 3513 2113 
z
" transform="scale(0.015625)"/>
       <path id="DejaVuSans-28" d="M 1984 4856 
Q 1566 4138 1362 3434 
Q 1159 2731 1159 2009 
Q 1159 1288 1364 580 
Q 1569 -128 1984 -844 
L 1484 -844 
Q 1016 -109 783 600 
Q 550 1309 550 2009 
Q 550 2706 781 3412 
Q 1013 4119 1484 4856 
L 1984 4856 
z
" transform="scale(0.015625)"/>
       <path id="DejaVuSans-29" d="M 513 4856 
L 1013 4856 
Q 1481 4119 1714 3412 
Q 1947 2706 1947 2009 
Q 1947 1309 1714 600 
Q 1481 -109 1013 -844 
L 513 -844 
Q 928 -128 1133 580 
Q 1338 1288 1338 2009 
Q 1338 2731 1133 3434 
Q 928 4138 513 4856 
z
" transform="scale(0.015625)"/>
      </defs>
      <use xlink:href="#DejaVuSans-4e"/>
      <use xlink:href="#DejaVuSans-6f" x="74.804688"/>
      <use xlink:href="#DejaVuSans-72" x="135.986328"/>
      <use xlink:href="#DejaVuSans-74" x="177.099609"/>
      <use xlink:href="#DejaVuSans-68" x="216.308594"/>
      <use xlink:href="#DejaVuSans-28" x="279.6875"/>
      <use xlink:href="#DejaVuSans-6d" x="318.701172"/>
      <use xlink:href="#DejaVuSans-29" x="416.113281"/>
     </g>
    </g>
   </g>
   <g id="line2d_18">
    <path d="M 312.328317 309.570373 
L 315 327.513403 
L 317.671683 270.640589 
L 320.343365 227.888092 
L 323.015048 349.384605 
L 325.686731 381.044607 
L 328.358413 389.37766 
L 331.030096 287.8672 
L 333.701778 286.927451 
L 336.373461 289.472477 
L 339.045144 370.870744 
L 341.716826 436.975563 
L 344.388509 305.51946 
L 347.060192 365.325881 
L 349.731874 277.400627 
L 352.403557 242.548555 
L 355.075239 228.309509 
L 357.746922 368.856859 
L 360.418605 462.497757 
L 363.090287 423.108044 
L 365.76197 330.126422 
L 368.433653 337.439427 
L 371.105335 294.149563 
L 373.777018 421.601119 
L 376.4487 340.243173 
L 379.120383 364.541315 
L 381.792066 296.873462 
L 384.463748 441.821664 
L 387.135431 358.173676 
L 389.807114 380.894079 
L 392.478796 439.985652 
L 395.150479 478.816872 
L 397.822161 440.069644 
L 400.493844 408.629427 
L 403.165527 335.870361 
L 405.837209 281.515031 
L 408.508892 313.422852 
L 411.180575 324.404187 
L 413.852257 254.503062 
L 416.52394 375.656692 
L 419.195622 431.268182 
L 421.867305 426.777548 
L 424.538988 398.262521 
L 427.21067 385.440813 
L 429.882353 385.985197 
L 432.554036 386.656718 
L 435.225718 517.845298 
L 437.897401 436.724991 
L 440.569083 330.096386 
L 443.240766 327.442285 
L 445.912449 273.325172 
L 448.584131 231.731467 
L 451.255814 264.812341 
L 453.927497 296.219806 
L 456.599179 366.377304 
L 459.270862 309.942352 
L 461.942544 412.250195 
L 464.614227 368.456923 
L 467.28591 263.333623 
L 469.957592 224.605581 
L 472.629275 389.786804 
L 475.300958 380.633703 
L 477.97264 435.389789 
L 480.644323 440.710385 
L 483.316005 357.497084 
L 485.987688 249.20819 
L 488.659371 319.419057 
L 491.331053 361.874677 
L 494.002736 287.478848 
L 496.674419 206.987593 
L 499.346101 235.572728 
L 502.017784 242.445604 
L 504.689466 241.354884 
L 507.361149 241.651592 
L 510.032832 236.174811 
L 512.704514 389.640987 
L 515.376197 384.259661 
L 518.04788 416.962455 
L 520.719562 433.7548 
L 523.391245 273.69368 
L 526.062927 324.090801 
L 528.73461 337.894973 
L 531.406293 263.239899 
L 534.077975 345.476498 
L 536.749658 390.534107 
L 539.421341 420.244004 
L 542.093023 483.316898 
L 544.764706 409.230042 
L 547.436389 275.567966 
L 550.108071 336.046939 
L 552.779754 414.956047 
L 555.451436 392.941982 
L 558.123119 291.784341 
L 560.794802 262.569385 
L 563.466484 358.099761 
L 566.138167 254.084627 
L 568.80985 407.701631 
L 571.481532 334.492058 
L 574.153215 318.074526 
L 576.824897 416.094642 
L 579.49658 296.440769 
L 582.168263 343.38825 
L 584.839945 427.794851 
L 587.511628 483.678473 
L 590.183311 374.40301 
L 592.854993 362.971667 
L 595.526676 406.248034 
L 598.198358 407.397996 
L 600.870041 406.253636 
L 603.541724 427.867554 
L 606.213406 363.608975 
L 608.885089 287.245361 
L 611.556772 285.730904 
L 614.228454 386.528012 
L 616.900137 293.143382 
L 619.571819 283.036143 
L 622.243502 483.736228 
L 624.915185 454.108811 
L 627.586867 402.822549 
L 630.25855 383.501433 
L 632.930233 337.980179 
L 635.601915 336.121468 
L 638.273598 378.639195 
L 640.94528 349.734918 
L 643.616963 346.312091 
L 646.288646 347.899973 
L 648.960328 381.702259 
L 651.632011 382.389346 
L 654.303694 381.286474 
L 656.975376 255.580685 
L 659.647059 376.570554 
L 662.318741 385.060872 
L 664.990424 378.754817 
L 667.662107 447.097109 
L 670.333789 504.572219 
L 673.005472 419.205099 
L 675.677155 326.646114 
L 678.348837 288.712818 
L 681.02052 305.360554 
L 683.692202 414.616164 
L 686.363885 443.903153 
L 689.035568 356.988655 
L 691.70725 367.962574 
L 694.378933 424.921295 
L 697.050616 453.217519 
L 699.722298 439.654135 
L 702.393981 358.116944 
L 705.065663 353.110784 
L 707.737346 357.920135 
L 710.409029 220.632693 
L 713.080711 218.705188 
L 715.752394 223.432955 
L 718.424077 492.252783 
L 721.095759 320.988607 
L 723.767442 365.629495 
L 726.439124 433.705223 
L 729.110807 326.096354 
L 731.78249 212.707776 
L 734.454172 316.437531 
L 737.125855 367.791951 
L 739.797538 460.434725 
L 742.46922 464.643722 
L 745.140903 510.874088 
L 747.812585 373.965545 
L 750.484268 465.06737 
L 753.155951 375.625977 
L 755.827633 362.58763 
L 758.499316 483.279995 
L 761.170999 455.856477 
L 763.842681 350.365955 
L 766.514364 365.116845 
L 769.186047 479.234797 
L 771.857729 411.799807 
L 774.529412 400.437904 
L 777.201094 404.490091 
L 779.872777 404.378772 
L 782.54446 359.566146 
L 785.216142 375.536304 
L 787.887825 490.941253 
L 790.559508 497.987835 
L 793.23119 491.23449 
L 795.902873 490.588645 
L 798.574555 262.441633 
L 801.246238 259.424377 
L 803.917921 306.813082 
L 806.589603 308.546152 
L 809.261286 307.550359 
L 811.932969 231.706339 
L 814.604651 322.820512 
L 817.276334 358.037106 
L 819.948016 355.229601 
L 822.619699 428.297419 
L 825.291382 450.069085 
L 827.963064 369.760467 
L 830.634747 361.751618 
L 833.30643 357.645117 
L 835.978112 321.513512 
L 838.649795 323.260494 
L 841.321477 469.89287 
L 843.99316 456.754575 
L 846.664843 441.069639 
L 849.336525 375.512065 
L 852.008208 294.834055 
L 854.679891 337.271116 
L 857.351573 364.107305 
L 860.023256 486.936264 
L 862.694938 431.072686 
L 865.366621 418.799616 
L 868.038304 421.956842 
L 870.709986 350.609506 
L 873.381669 296.251788 
L 876.053352 295.108458 
L 878.725034 475.607084 
L 881.396717 349.464013 
L 884.068399 470.417128 
L 886.740082 417.161721 
L 889.411765 313.088316 
L 892.083447 397.369619 
L 894.75513 408.72547 
L 897.426813 414.868802 
L 900.098495 448.722725 
L 902.770178 510.877324 
L 905.44186 481.904231 
L 908.113543 475.796645 
L 910.785226 414.182394 
L 913.456908 471.70995 
L 916.128591 394.279854 
L 918.800274 284.042743 
L 921.471956 340.163418 
L 924.143639 386.987168 
L 926.815321 415.981727 
L 929.487004 313.82478 
L 932.158687 337.903159 
L 934.830369 346.21224 
L 937.502052 505.339534 
L 940.173735 509.625098 
L 942.845417 502.600144 
L 945.5171 564.103844 
L 948.188782 366.279618 
L 950.860465 350.975878 
L 953.532148 239.225659 
L 956.20383 276.872543 
L 958.875513 236.004647 
L 961.547196 318.384687 
L 964.218878 304.101942 
L 966.890561 389.526709 
L 969.562244 493.806277 
L 972.233926 442.324388 
L 974.905609 258.523522 
L 977.577291 382.112969 
L 980.248974 302.07952 
L 982.920657 298.723145 
L 985.592339 447.49868 
L 988.264022 433.002418 
L 990.935705 372.131167 
L 993.607387 388.636655 
L 996.27907 310.232951 
L 998.950752 303.654387 
L 1001.622435 232.941537 
L 1004.294118 271.971706 
L 1006.9658 228.177842 
L 1009.637483 293.923208 
L 1012.309166 397.418927 
L 1014.980848 360.314992 
L 1017.652531 408.336195 
L 1020.324213 299.057564 
L 1022.995896 266.516903 
L 1025.667579 394.285201 
L 1028.339261 340.63071 
L 1031.010944 347.702208 
L 1033.682627 352.468808 
L 1036.354309 378.621812 
L 1039.025992 368.910022 
L 1041.697674 386.001031 
L 1044.369357 371.046885 
L 1047.04104 380.257669 
L 1049.712722 395.405456 
L 1052.384405 395.586727 
L 1055.056088 414.001994 
L 1057.72777 285.875886 
L 1060.399453 186.885617 
L 1063.071135 291.51894 
L 1065.742818 354.822833 
L 1068.414501 331.892701 
L 1071.086183 328.810681 
L 1073.757866 319.796733 
L 1076.429549 320.463078 
L 1079.101231 343.989615 
L 1081.772914 345.477445 
L 1084.444596 344.086053 
L 1087.116279 245.817858 
L 1089.787962 347.525536 
L 1092.459644 311.040974 
L 1095.131327 302.66313 
L 1097.80301 359.16042 
L 1100.474692 303.653374 
L 1103.146375 308.321591 
L 1105.818057 311.995793 
L 1108.48974 212.900049 
L 1111.161423 268.618668 
L 1113.833105 247.775308 
L 1116.504788 188.016105 
L 1119.176471 238.865127 
L 1121.848153 245.886077 
L 1124.519836 400.867116 
L 1127.191518 446.487356 
L 1129.863201 278.382845 
L 1132.534884 263.913047 
L 1135.206566 432.651313 
L 1137.878249 400.582819 
L 1140.549932 407.805462 
L 1143.221614 416.955962 
L 1145.893297 416.070991 
L 1148.564979 242.194237 
L 1151.236662 271.299711 
L 1153.908345 353.973837 
L 1156.580027 344.159389 
L 1159.25171 382.896625 
L 1161.923393 262.497232 
L 1164.595075 165.3198 
L 1167.266758 166.993337 
L 1169.93844 172.840716 
L 1172.610123 173.943589 
L 1175.281806 366.466744 
L 1177.953488 309.919 
L 1180.625171 440.179852 
L 1183.296854 452.092038 
L 1185.968536 283.526164 
L 1188.640219 278.945394 
L 1191.311902 339.281628 
L 1193.983584 341.244244 
L 1196.655267 339.603613 
L 1199.326949 179.945638 
L 1201.998632 262.166856 
L 1204.670315 387.776126 
L 1207.341997 283.867706 
L 1210.01368 269.62241 
L 1212.685363 382.300607 
L 1215.357045 273.165243 
L 1218.028728 398.82002 
L 1220.70041 414.038449 
L 1223.372093 350.662887 
L 1226.043776 430.823311 
L 1228.715458 390.587696 
L 1231.387141 469.729729 
L 1234.058824 309.24443 
L 1236.730506 381.088297 
L 1239.402189 513.065101 
L 1242.073871 515.903312 
L 1244.745554 508.938154 
L 1247.417237 267.397027 
L 1250.088919 220.751763 
L 1252.760602 266.614934 
L 1255.432285 359.709628 
L 1258.103967 329.199001 
L 1260.77565 301.621238 
L 1263.447332 382.430009 
L 1266.119015 388.912795 
L 1268.790698 384.048712 
L 1271.46238 383.681966 
L 1274.134063 243.369133 
L 1276.805746 241.502374 
L 1279.477428 245.284923 
L 1282.149111 245.792111 
L 1284.820793 246.142124 
L 1287.492476 246.236601 
L 1290.164159 157.482664 
L 1292.835841 332.445295 
L 1295.507524 319.652964 
L 1298.179207 330.573049 
L 1300.850889 288.641407 
L 1303.522572 283.794033 
L 1306.194254 461.59801 
L 1308.865937 509.156794 
L 1311.53762 481.755382 
L 1314.209302 301.468831 
L 1316.880985 434.795302 
L 1319.552668 419.571506 
L 1322.22435 322.787109 
L 1324.896033 401.651186 
L 1327.567715 367.136279 
L 1330.239398 372.778281 
L 1332.911081 349.29557 
L 1335.582763 378.927494 
L 1338.254446 297.653617 
L 1340.926129 289.920128 
L 1343.597811 244.114154 
L 1346.269494 411.849686 
L 1348.941176 281.209005 
L 1351.612859 384.259068 
L 1354.284542 400.912002 
L 1356.956224 315.267047 
L 1359.627907 372.770992 
L 1362.29959 328.545881 
L 1364.971272 322.000026 
L 1367.642955 450.067706 
L 1370.314637 295.030152 
L 1372.98632 360.701337 
L 1375.658003 329.621541 
L 1378.329685 419.174824 
L 1381.001368 297.750338 
L 1383.673051 289.985278 
L 1386.344733 351.018648 
L 1389.016416 354.422831 
L 1391.688098 329.335562 
L 1394.359781 223.229924 
L 1397.031464 216.972934 
L 1399.703146 316.14494 
L 1402.374829 319.031702 
L 1405.046512 341.524615 
L 1407.718194 319.817745 
L 1410.389877 246.601805 
L 1413.06156 240.483025 
L 1415.733242 374.269547 
L 1418.404925 333.049422 
L 1421.076607 321.855224 
L 1423.74829 208.927016 
L 1426.419973 257.874164 
L 1429.091655 358.083098 
L 1431.763338 463.902705 
L 1434.435021 432.174401 
L 1437.106703 461.962408 
L 1439.778386 371.336493 
L 1442.450068 316.293937 
L 1445.121751 412.042262 
L 1447.793434 301.246163 
L 1450.465116 247.064757 
L 1453.136799 393.832403 
L 1455.808482 371.674953 
L 1458.480164 374.068009 
L 1461.151847 330.382322 
L 1463.823529 315.100609 
L 1466.495212 435.332998 
L 1469.166895 444.242622 
L 1471.838577 437.123931 
L 1474.51026 231.756465 
L 1477.181943 271.05984 
L 1479.853625 352.864737 
L 1482.525308 334.303822 
L 1485.19699 335.305679 
L 1487.868673 363.075674 
L 1490.540356 438.985096 
L 1493.212038 391.644138 
L 1495.883721 278.347995 
L 1498.555404 442.537335 
L 1501.227086 460.474554 
L 1503.898769 284.513427 
L 1506.570451 354.475042 
L 1509.242134 440.154713 
L 1511.913817 447.119685 
L 1514.585499 317.297314 
L 1517.257182 377.74785 
L 1519.928865 405.416677 
L 1522.600547 310.101352 
L 1525.27223 432.851919 
L 1527.943912 447.191038 
L 1530.615595 439.47489 
L 1533.287278 290.351768 
L 1535.95896 207.626458 
L 1538.630643 317.798709 
L 1541.302326 330.130533 
L 1543.974008 364.682641 
L 1546.645691 395.5561 
L 1549.317373 267.21429 
L 1551.989056 416.147763 
L 1554.660739 369.53475 
L 1557.332421 330.276032 
L 1560.004104 347.023273 
L 1562.675787 301.767388 
L 1565.347469 367.658337 
L 1568.019152 403.824411 
L 1570.690834 487.195524 
L 1573.362517 305.45476 
L 1576.0342 306.472271 
L 1578.705882 424.318907 
L 1581.377565 396.81782 
L 1584.049248 390.002319 
L 1586.72093 390.114223 
L 1589.392613 485.551124 
L 1592.064295 440.553818 
L 1594.735978 391.216728 
L 1597.407661 414.216438 
L 1600.079343 310.724804 
L 1602.751026 214.111406 
L 1605.422709 231.648319 
L 1608.094391 238.881578 
L 1610.766074 238.915877 
L 1613.437756 438.170698 
L 1616.109439 336.86588 
L 1618.781122 433.758402 
L 1621.452804 446.117425 
L 1624.124487 345.750101 
L 1626.79617 479.512546 
L 1629.467852 360.281065 
L 1632.139535 343.925937 
L 1634.811218 355.816225 
L 1637.4829 308.996292 
L 1640.154583 306.262419 
L 1642.826265 211.021445 
L 1645.497948 301.838596 
L 1648.169631 312.439193 
L 1650.841313 307.748575 
L 1653.512996 288.234866 
L 1656.184679 287.569387 
L 1658.856361 260.974379 
L 1661.528044 233.241409 
L 1664.199726 343.831145 
L 1666.871409 387.026901 
L 1669.543092 282.497577 
L 1672.214774 246.653831 
L 1674.886457 401.13028 
L 1677.55814 408.404863 
L 1680.229822 326.760911 
L 1682.901505 263.462914 
L 1685.573187 251.114514 
L 1688.24487 323.978187 
L 1690.916553 401.342519 
L 1693.588235 440.665457 
L 1696.259918 378.336377 
L 1698.931601 402.756949 
L 1701.603283 299.698237 
L 1704.274966 285.16486 
L 1706.946648 410.209144 
L 1709.618331 362.744593 
L 1712.290014 352.058158 
L 1714.961696 400.959162 
L 1717.633379 389.477334 
L 1720.305062 495.84064 
L 1722.976744 503.740937 
L 1725.648427 299.213822 
L 1728.320109 260.349925 
L 1730.991792 410.291716 
L 1733.663475 422.988782 
L 1736.335157 414.977509 
L 1739.00684 414.514703 
L 1741.678523 287.603937 
L 1744.350205 335.04179 
L 1747.021888 483.012197 
L 1749.69357 490.568889 
L 1752.365253 379.7854 
L 1755.036936 459.629261 
L 1757.708618 437.570189 
L 1760.380301 476.999888 
L 1763.051984 299.741462 
L 1765.723666 296.609695 
L 1768.395349 360.351665 
L 1771.067031 261.161522 
L 1773.738714 417.142508 
L 1776.410397 520.39138 
L 1779.082079 327.674391 
L 1781.753762 308.813592 
L 1784.425445 331.664789 
L 1787.097127 344.666497 
L 1789.76881 345.510349 
L 1792.440492 344.878105 
L 1795.112175 344.830518 
L 1797.783858 463.640451 
L 1800.45554 467.830686 
L 1803.127223 326.120879 
L 1805.798906 316.05761 
L 1808.470588 220.811336 
L 1811.142271 329.687952 
L 1813.813953 302.897648 
L 1816.485636 328.683056 
L 1819.157319 333.353892 
L 1821.829001 331.045088 
L 1824.500684 365.229345 
L 1827.172367 365.639475 
L 1829.844049 390.757541 
L 1832.515732 352.635554 
L 1835.187415 348.936355 
L 1837.859097 328.06709 
L 1840.53078 380.55788 
L 1843.202462 385.197879 
L 1845.874145 412.855715 
L 1848.545828 259.504678 
L 1851.21751 423.219919 
L 1853.889193 386.572264 
L 1856.560876 376.013138 
L 1859.232558 487.04041 
L 1861.904241 308.68405 
L 1864.575923 344.383978 
L 1867.247606 292.447573 
L 1869.919289 276.521752 
L 1872.590971 415.616777 
L 1875.262654 329.221344 
L 1877.934337 374.315973 
L 1880.606019 380.283913 
L 1883.277702 306.419428 
L 1885.949384 301.893243 
L 1888.621067 306.023423 
L 1891.29275 421.004455 
L 1893.964432 437.841497 
L 1896.636115 417.534217 
L 1899.307798 399.561958 
L 1901.97948 303.931462 
L 1904.651163 346.021516 
L 1907.322845 355.363183 
L 1909.994528 420.20649 
L 1912.666211 455.936962 
L 1915.337893 498.377004 
L 1918.009576 328.097099 
L 1920.681259 242.04454 
L 1923.352941 282.830684 
L 1926.024624 439.371406 
L 1928.696306 448.543621 
L 1931.367989 439.558785 
L 1934.039672 223.458205 
L 1936.711354 219.024087 
L 1939.383037 226.060117 
L 1942.05472 356.27861 
L 1944.726402 322.148732 
L 1947.398085 240.726547 
L 1950.069767 212.012983 
L 1952.74145 418.043323 
L 1955.413133 380.193913 
L 1958.084815 395.595742 
L 1960.756498 326.280924 
L 1963.428181 308.674168 
L 1966.099863 308.476669 
L 1968.771546 309.045448 
L 1971.443228 251.257603 
L 1974.114911 332.992567 
L 1976.786594 341.105914 
L 1979.458276 407.907905 
L 1982.129959 335.800597 
L 1984.801642 334.266842 
L 1987.473324 304.568588 
L 1990.145007 354.954363 
L 1992.816689 362.362275 
L 1995.488372 315.856381 
L 1998.160055 344.745381 
L 2000.831737 403.535775 
L 2003.50342 289.959352 
L 2006.175103 222.132018 
L 2008.846785 420.763344 
L 2011.518468 400.101586 
L 2014.19015 287.07479 
L 2016.861833 398.403492 
L 2019.533516 400.636174 
L 2022.205198 410.600275 
L 2024.876881 460.86587 
L 2027.548564 376.869058 
L 2030.220246 303.643114 
L 2032.891929 257.964754 
L 2035.563611 437.80364 
L 2038.235294 324.167826 
L 2040.906977 304.814929 
L 2043.578659 218.216392 
L 2046.250342 213.142054 
L 2048.922025 394.883546 
L 2051.593707 470.468212 
L 2054.26539 290.109453 
L 2056.937073 405.170105 
L 2059.608755 357.69471 
L 2062.280438 350.423293 
L 2064.95212 352.880202 
L 2070.295486 348.528894 
L 2072.967168 348.484067 
L 2075.638851 332.257628 
L 2078.310534 481.441283 
L 2080.982216 492.098308 
L 2083.653899 513.092656 
L 2086.325581 442.12246 
L 2088.997264 435.444381 
L 2091.668947 439.156416 
L 2094.340629 439.315274 
L 2097.012312 332.792892 
L 2099.683995 247.236015 
L 2105.02736 430.662865 
L 2107.699042 458.474548 
L 2110.370725 318.580295 
L 2113.042408 276.390874 
L 2115.71409 405.908636 
L 2118.385773 488.476529 
L 2121.057456 530.227308 
L 2123.729138 355.184391 
L 2126.400821 463.086739 
L 2129.072503 360.124642 
L 2131.744186 363.79302 
L 2134.415869 365.51853 
L 2137.087551 271.719069 
L 2139.759234 246.074455 
L 2142.430917 250.541554 
L 2145.102599 385.600393 
L 2147.774282 311.201852 
L 2150.445964 257.877184 
L 2153.117647 258.78629 
L 2155.78933 397.56411 
L 2158.461012 344.856934 
L 2161.132695 278.477435 
L 2163.804378 277.13789 
L 2166.47606 280.428116 
L 2169.147743 328.593506 
L 2171.819425 305.409939 
L 2174.491108 389.026328 
L 2177.162791 356.975616 
L 2179.834473 397.057085 
L 2182.506156 402.367486 
L 2185.177839 399.141528 
L 2187.849521 514.865503 
L 2190.521204 410.329125 
L 2193.192886 432.542455 
L 2195.864569 350.671983 
L 2198.536252 309.730928 
L 2201.207934 313.247897 
L 2203.879617 498.577068 
L 2206.5513 450.145261 
L 2209.222982 499.536014 
L 2211.894665 505.80901 
L 2214.566347 334.170265 
L 2217.23803 329.754111 
L 2219.909713 354.185766 
L 2222.581395 297.621149 
L 2225.253078 404.273856 
L 2227.924761 415.136794 
L 2230.596443 309.635059 
L 2233.268126 414.47654 
L 2235.939808 403.035798 
L 2238.611491 395.81293 
L 2241.283174 396.991833 
L 2243.954856 442.751528 
L 2246.626539 443.564511 
L 2249.298222 357.505361 
L 2251.969904 356.896051 
L 2254.641587 360.155914 
L 2257.313269 492.356948 
L 2259.984952 392.174555 
L 2262.656635 432.397662 
L 2265.328317 306.753833 
L 2268 322.810329 
L 2270.671683 450.690421 
L 2270.671683 450.690421 
" clip-path="url(#pa54f579ef5)" style="fill: none; stroke: #ff0000; stroke-width: 1.8; stroke-linecap: square"/>
   </g>
   <g id="patch_3">
    <path d="M 315 640.8 
L 315 86.4 
" style="fill: none; stroke: #000000; stroke-width: 0.8; stroke-linejoin: miter; stroke-linecap: square"/>
   </g>
   <g id="patch_4">
    <path d="M 2268 640.8 
L 2268 86.4 
" style="fill: none; stroke: #000000; stroke-width: 0.8; stroke-linejoin: miter; stroke-linecap: square"/>
   </g>
   <g id="patch_5">
    <path d="M 315 640.8 
L 2268 640.8 
" style="fill: none; stroke: #000000; stroke-width: 0.8; stroke-linejoin: miter; stroke-linecap: square"/>
   </g>
   <g id="patch_6">
    <path d="M 315 86.4 
L 2268 86.4 
" style="fill: none; stroke: #000000; stroke-width: 0.8; stroke-linejoin: miter; stroke-linecap: square"/>
   </g>
   <g id="text_20">
    <!-- Model ARIMA - MPRA (north) -->
    <g transform="translate(1150.270313 80.4) scale(0.2 -0.2)">
     <defs>
      <path id="DejaVuSans-4d" d="M 628 4666 
L 1569 4666 
L 2759 1491 
L 3956 4666 
L 4897 4666 
L 4897 0 
L 4281 0 
L 4281 4097 
L 3078 897 
L 2444 897 
L 1241 4097 
L 1241 0 
L 628 0 
L 628 4666 
z
" transform="scale(0.015625)"/>
      <path id="DejaVuSans-64" d="M 2906 2969 
L 2906 4863 
L 3481 4863 
L 3481 0 
L 2906 0 
L 2906 525 
Q 2725 213 2448 61 
Q 2172 -91 1784 -91 
Q 1150 -91 751 415 
Q 353 922 353 1747 
Q 353 2572 751 3078 
Q 1150 3584 1784 3584 
Q 2172 3584 2448 3432 
Q 2725 3281 2906 2969 
z
M 947 1747 
Q 947 1113 1208 752 
Q 1469 391 1925 391 
Q 2381 391 2643 752 
Q 2906 1113 2906 1747 
Q 2906 2381 2643 2742 
Q 2381 3103 1925 3103 
Q 1469 3103 1208 2742 
Q 947 2381 947 1747 
z
" transform="scale(0.015625)"/>
      <path id="DejaVuSans-6c" d="M 603 4863 
L 1178 4863 
L 1178 0 
L 603 0 
L 603 4863 
z
" transform="scale(0.015625)"/>
      <path id="DejaVuSans-20" transform="scale(0.015625)"/>
      <path id="DejaVuSans-41" d="M 2188 4044 
L 1331 1722 
L 3047 1722 
L 2188 4044 
z
M 1831 4666 
L 2547 4666 
L 4325 0 
L 3669 0 
L 3244 1197 
L 1141 1197 
L 716 0 
L 50 0 
L 1831 4666 
z
" transform="scale(0.015625)"/>
      <path id="DejaVuSans-52" d="M 2841 2188 
Q 3044 2119 3236 1894 
Q 3428 1669 3622 1275 
L 4263 0 
L 3584 0 
L 2988 1197 
Q 2756 1666 2539 1819 
Q 2322 1972 1947 1972 
L 1259 1972 
L 1259 0 
L 628 0 
L 628 4666 
L 2053 4666 
Q 2853 4666 3247 4331 
Q 3641 3997 3641 3322 
Q 3641 2881 3436 2590 
Q 3231 2300 2841 2188 
z
M 1259 4147 
L 1259 2491 
L 2053 2491 
Q 2509 2491 2742 2702 
Q 2975 2913 2975 3322 
Q 2975 3731 2742 3939 
Q 2509 4147 2053 4147 
L 1259 4147 
z
" transform="scale(0.015625)"/>
      <path id="DejaVuSans-49" d="M 628 4666 
L 1259 4666 
L 1259 0 
L 628 0 
L 628 4666 
z
" transform="scale(0.015625)"/>
      <path id="DejaVuSans-50" d="M 1259 4147 
L 1259 2394 
L 2053 2394 
Q 2494 2394 2734 2622 
Q 2975 2850 2975 3272 
Q 2975 3691 2734 3919 
Q 2494 4147 2053 4147 
L 1259 4147 
z
M 628 4666 
L 2053 4666 
Q 2838 4666 3239 4311 
Q 3641 3956 3641 3272 
Q 3641 2581 3239 2228 
Q 2838 1875 2053 1875 
L 1259 1875 
L 1259 0 
L 628 0 
L 628 4666 
z
" transform="scale(0.015625)"/>
      <path id="DejaVuSans-6e" d="M 3513 2113 
L 3513 0 
L 2938 0 
L 2938 2094 
Q 2938 2591 2744 2837 
Q 2550 3084 2163 3084 
Q 1697 3084 1428 2787 
Q 1159 2491 1159 1978 
L 1159 0 
L 581 0 
L 581 3500 
L 1159 3500 
L 1159 2956 
Q 1366 3272 1645 3428 
Q 1925 3584 2291 3584 
Q 2894 3584 3203 3211 
Q 3513 2838 3513 2113 
z
" transform="scale(0.015625)"/>
     </defs>
     <use xlink:href="#DejaVuSans-4d"/>
     <use xlink:href="#DejaVuSans-6f" x="86.279297"/>
     <use xlink:href="#DejaVuSans-64" x="147.460938"/>
     <use xlink:href="#DejaVuSans-65" x="210.9375"/>
     <use xlink:href="#DejaVuSans-6c" x="272.460938"/>
     <use xlink:href="#DejaVuSans-20" x="300.244141"/>
     <use xlink:href="#DejaVuSans-41" x="332.03125"/>
     <use xlink:href="#DejaVuSans-52" x="400.439453"/>
     <use xlink:href="#DejaVuSans-49" x="469.921875"/>
     <use xlink:href="#DejaVuSans-4d" x="499.414062"/>
     <use xlink:href="#DejaVuSans-41" x="585.693359"/>
     <use xlink:href="#DejaVuSans-20" x="654.101562"/>
     <use xlink:href="#DejaVuSans-2d" x="685.888672"/>
     <use xlink:href="#DejaVuSans-20" x="721.972656"/>
     <use xlink:href="#DejaVuSans-4d" x="753.759766"/>
     <use xlink:href="#DejaVuSans-50" x="840.039062"/>
     <use xlink:href="#DejaVuSans-52" x="900.341797"/>
     <use xlink:href="#DejaVuSans-41" x="965.824219"/>
     <use xlink:href="#DejaVuSans-20" x="1034.232422"/>
     <use xlink:href="#DejaVuSans-28" x="1066.019531"/>
     <use xlink:href="#DejaVuSans-6e" x="1105.033203"/>
     <use xlink:href="#DejaVuSans-6f" x="1168.412109"/>
     <use xlink:href="#DejaVuSans-72" x="1229.59375"/>
     <use xlink:href="#DejaVuSans-74" x="1270.707031"/>
     <use xlink:href="#DejaVuSans-68" x="1309.916016"/>
     <use xlink:href="#DejaVuSans-29" x="1373.294922"/>
    </g>
   </g>
   <g id="legend_1">
    <g id="patch_7">
     <path d="M 2188.320312 109.078125 
L 2261 109.078125 
Q 2263 109.078125 2263 107.078125 
L 2263 93.4 
Q 2263 91.4 2261 91.4 
L 2188.320312 91.4 
Q 2186.320312 91.4 2186.320312 93.4 
L 2186.320312 107.078125 
Q 2186.320312 109.078125 2188.320312 109.078125 
z
" style="fill: #ffffff; opacity: 0.8; stroke: #cccccc; stroke-linejoin: miter"/>
    </g>
    <g id="line2d_19">
     <path d="M 2190.320312 99.498438 
L 2200.320312 99.498438 
L 2210.320312 99.498438 
" style="fill: none; stroke: #ff0000; stroke-width: 1.8; stroke-linecap: square"/>
    </g>
    <g id="text_21">
     <!-- model 2 -->
     <g transform="translate(2218.320312 102.998438) scale(0.1 -0.1)">
      <use xlink:href="#DejaVuSans-6d"/>
      <use xlink:href="#DejaVuSans-6f" x="97.412109"/>
      <use xlink:href="#DejaVuSans-64" x="158.59375"/>
      <use xlink:href="#DejaVuSans-65" x="222.070312"/>
      <use xlink:href="#DejaVuSans-6c" x="283.59375"/>
      <use xlink:href="#DejaVuSans-20" x="311.376953"/>
      <use xlink:href="#DejaVuSans-32" x="343.164062"/>
     </g>
    </g>
   </g>
  </g>
 </g>
 <defs>
  <clipPath id="pa54f579ef5">
   <rect x="315" y="86.4" width="1953" height="554.4"/>
  </clipPath>
 </defs>
</svg>
