<?xml version="1.0" encoding="utf-8" standalone="no"?>
<!DOCTYPE svg PUBLIC "-//W3C//DTD SVG 1.1//EN"
  "http://www.w3.org/Graphics/SVG/1.1/DTD/svg11.dtd">
<svg xmlns:xlink="http://www.w3.org/1999/xlink" width="2520pt" height="720pt" viewBox="0 0 2520 720" xmlns="http://www.w3.org/2000/svg" version="1.1">
 <metadata>
  <rdf:RDF xmlns:dc="http://purl.org/dc/elements/1.1/" xmlns:cc="http://creativecommons.org/ns#" xmlns:rdf="http://www.w3.org/1999/02/22-rdf-syntax-ns#">
   <cc:Work>
    <dc:type rdf:resource="http://purl.org/dc/dcmitype/StillImage"/>
    <dc:date>2024-02-08T15:21:21.247209</dc:date>
    <dc:format>image/svg+xml</dc:format>
    <dc:creator>
     <cc:Agent>
      <dc:title>Matplotlib v3.7.1, https://matplotlib.org/</dc:title>
     </cc:Agent>
    </dc:creator>
   </cc:Work>
  </rdf:RDF>
 </metadata>
 <defs>
  <style type="text/css">*{stroke-linejoin: round; stroke-linecap: butt}</style>
 </defs>
 <g id="figure_1">
  <g id="patch_1">
   <path d="M 0 720 
L 2520 720 
L 2520 0 
L 0 0 
z
" style="fill: #ffffff"/>
  </g>
  <g id="axes_1">
   <g id="patch_2">
    <path d="M 315 640.8 
L 2268 640.8 
L 2268 86.4 
L 315 86.4 
z
" style="fill: #ffffff"/>
   </g>
   <g id="matplotlib.axis_1">
    <g id="xtick_1">
     <g id="line2d_1">
      <defs>
       <path id="ma540ae3ef2" d="M 0 0 
L 0 3.5 
" style="stroke: #000000; stroke-width: 0.8"/>
      </defs>
      <g>
       <use xlink:href="#ma540ae3ef2" x="520.719562" y="640.8" style="stroke: #000000; stroke-width: 0.8"/>
      </g>
     </g>
     <g id="text_1">
      <!-- 2012-04 -->
      <g transform="translate(489.382453 659.197656) scale(0.15 -0.15)">
       <defs>
        <path id="DejaVuSans-32" d="M 1228 531 
L 3431 531 
L 3431 0 
L 469 0 
L 469 531 
Q 828 903 1448 1529 
Q 2069 2156 2228 2338 
Q 2531 2678 2651 2914 
Q 2772 3150 2772 3378 
Q 2772 3750 2511 3984 
Q 2250 4219 1831 4219 
Q 1534 4219 1204 4116 
Q 875 4013 500 3803 
L 500 4441 
Q 881 4594 1212 4672 
Q 1544 4750 1819 4750 
Q 2544 4750 2975 4387 
Q 3406 4025 3406 3419 
Q 3406 3131 3298 2873 
Q 3191 2616 2906 2266 
Q 2828 2175 2409 1742 
Q 1991 1309 1228 531 
z
" transform="scale(0.015625)"/>
        <path id="DejaVuSans-30" d="M 2034 4250 
Q 1547 4250 1301 3770 
Q 1056 3291 1056 2328 
Q 1056 1369 1301 889 
Q 1547 409 2034 409 
Q 2525 409 2770 889 
Q 3016 1369 3016 2328 
Q 3016 3291 2770 3770 
Q 2525 4250 2034 4250 
z
M 2034 4750 
Q 2819 4750 3233 4129 
Q 3647 3509 3647 2328 
Q 3647 1150 3233 529 
Q 2819 -91 2034 -91 
Q 1250 -91 836 529 
Q 422 1150 422 2328 
Q 422 3509 836 4129 
Q 1250 4750 2034 4750 
z
" transform="scale(0.015625)"/>
        <path id="DejaVuSans-31" d="M 794 531 
L 1825 531 
L 1825 4091 
L 703 3866 
L 703 4441 
L 1819 4666 
L 2450 4666 
L 2450 531 
L 3481 531 
L 3481 0 
L 794 0 
L 794 531 
z
" transform="scale(0.015625)"/>
        <path id="DejaVuSans-2d" d="M 313 2009 
L 1997 2009 
L 1997 1497 
L 313 1497 
L 313 2009 
z
" transform="scale(0.015625)"/>
        <path id="DejaVuSans-34" d="M 2419 4116 
L 825 1625 
L 2419 1625 
L 2419 4116 
z
M 2253 4666 
L 3047 4666 
L 3047 1625 
L 3713 1625 
L 3713 1100 
L 3047 1100 
L 3047 0 
L 2419 0 
L 2419 1100 
L 313 1100 
L 313 1709 
L 2253 4666 
z
" transform="scale(0.015625)"/>
       </defs>
       <use xlink:href="#DejaVuSans-32"/>
       <use xlink:href="#DejaVuSans-30" x="63.623047"/>
       <use xlink:href="#DejaVuSans-31" x="127.246094"/>
       <use xlink:href="#DejaVuSans-32" x="190.869141"/>
       <use xlink:href="#DejaVuSans-2d" x="254.492188"/>
       <use xlink:href="#DejaVuSans-30" x="290.576172"/>
       <use xlink:href="#DejaVuSans-34" x="354.199219"/>
      </g>
     </g>
    </g>
    <g id="xtick_2">
     <g id="line2d_2">
      <g>
       <use xlink:href="#ma540ae3ef2" x="763.842681" y="640.8" style="stroke: #000000; stroke-width: 0.8"/>
      </g>
     </g>
     <g id="text_2">
      <!-- 2012-07 -->
      <g transform="translate(732.505572 659.197656) scale(0.15 -0.15)">
       <defs>
        <path id="DejaVuSans-37" d="M 525 4666 
L 3525 4666 
L 3525 4397 
L 1831 0 
L 1172 0 
L 2766 4134 
L 525 4134 
L 525 4666 
z
" transform="scale(0.015625)"/>
       </defs>
       <use xlink:href="#DejaVuSans-32"/>
       <use xlink:href="#DejaVuSans-30" x="63.623047"/>
       <use xlink:href="#DejaVuSans-31" x="127.246094"/>
       <use xlink:href="#DejaVuSans-32" x="190.869141"/>
       <use xlink:href="#DejaVuSans-2d" x="254.492188"/>
       <use xlink:href="#DejaVuSans-30" x="290.576172"/>
       <use xlink:href="#DejaVuSans-37" x="354.199219"/>
      </g>
     </g>
    </g>
    <g id="xtick_3">
     <g id="line2d_3">
      <g>
       <use xlink:href="#ma540ae3ef2" x="1009.637483" y="640.8" style="stroke: #000000; stroke-width: 0.8"/>
      </g>
     </g>
     <g id="text_3">
      <!-- 2012-10 -->
      <g transform="translate(978.300374 659.197656) scale(0.15 -0.15)">
       <use xlink:href="#DejaVuSans-32"/>
       <use xlink:href="#DejaVuSans-30" x="63.623047"/>
       <use xlink:href="#DejaVuSans-31" x="127.246094"/>
       <use xlink:href="#DejaVuSans-32" x="190.869141"/>
       <use xlink:href="#DejaVuSans-2d" x="254.492188"/>
       <use xlink:href="#DejaVuSans-31" x="290.576172"/>
       <use xlink:href="#DejaVuSans-30" x="354.199219"/>
      </g>
     </g>
    </g>
    <g id="xtick_4">
     <g id="line2d_4">
      <g>
       <use xlink:href="#ma540ae3ef2" x="1255.432285" y="640.8" style="stroke: #000000; stroke-width: 0.8"/>
      </g>
     </g>
     <g id="text_4">
      <!-- 2013-01 -->
      <g transform="translate(1224.095175 659.197656) scale(0.15 -0.15)">
       <defs>
        <path id="DejaVuSans-33" d="M 2597 2516 
Q 3050 2419 3304 2112 
Q 3559 1806 3559 1356 
Q 3559 666 3084 287 
Q 2609 -91 1734 -91 
Q 1441 -91 1130 -33 
Q 819 25 488 141 
L 488 750 
Q 750 597 1062 519 
Q 1375 441 1716 441 
Q 2309 441 2620 675 
Q 2931 909 2931 1356 
Q 2931 1769 2642 2001 
Q 2353 2234 1838 2234 
L 1294 2234 
L 1294 2753 
L 1863 2753 
Q 2328 2753 2575 2939 
Q 2822 3125 2822 3475 
Q 2822 3834 2567 4026 
Q 2313 4219 1838 4219 
Q 1578 4219 1281 4162 
Q 984 4106 628 3988 
L 628 4550 
Q 988 4650 1302 4700 
Q 1616 4750 1894 4750 
Q 2613 4750 3031 4423 
Q 3450 4097 3450 3541 
Q 3450 3153 3228 2886 
Q 3006 2619 2597 2516 
z
" transform="scale(0.015625)"/>
       </defs>
       <use xlink:href="#DejaVuSans-32"/>
       <use xlink:href="#DejaVuSans-30" x="63.623047"/>
       <use xlink:href="#DejaVuSans-31" x="127.246094"/>
       <use xlink:href="#DejaVuSans-33" x="190.869141"/>
       <use xlink:href="#DejaVuSans-2d" x="254.492188"/>
       <use xlink:href="#DejaVuSans-30" x="290.576172"/>
       <use xlink:href="#DejaVuSans-31" x="354.199219"/>
      </g>
     </g>
    </g>
    <g id="xtick_5">
     <g id="line2d_5">
      <g>
       <use xlink:href="#ma540ae3ef2" x="1495.883721" y="640.8" style="stroke: #000000; stroke-width: 0.8"/>
      </g>
     </g>
     <g id="text_5">
      <!-- 2013-04 -->
      <g transform="translate(1464.546612 659.197656) scale(0.15 -0.15)">
       <use xlink:href="#DejaVuSans-32"/>
       <use xlink:href="#DejaVuSans-30" x="63.623047"/>
       <use xlink:href="#DejaVuSans-31" x="127.246094"/>
       <use xlink:href="#DejaVuSans-33" x="190.869141"/>
       <use xlink:href="#DejaVuSans-2d" x="254.492188"/>
       <use xlink:href="#DejaVuSans-30" x="290.576172"/>
       <use xlink:href="#DejaVuSans-34" x="354.199219"/>
      </g>
     </g>
    </g>
    <g id="xtick_6">
     <g id="line2d_6">
      <g>
       <use xlink:href="#ma540ae3ef2" x="1739.00684" y="640.8" style="stroke: #000000; stroke-width: 0.8"/>
      </g>
     </g>
     <g id="text_6">
      <!-- 2013-07 -->
      <g transform="translate(1707.669731 659.197656) scale(0.15 -0.15)">
       <use xlink:href="#DejaVuSans-32"/>
       <use xlink:href="#DejaVuSans-30" x="63.623047"/>
       <use xlink:href="#DejaVuSans-31" x="127.246094"/>
       <use xlink:href="#DejaVuSans-33" x="190.869141"/>
       <use xlink:href="#DejaVuSans-2d" x="254.492188"/>
       <use xlink:href="#DejaVuSans-30" x="290.576172"/>
       <use xlink:href="#DejaVuSans-37" x="354.199219"/>
      </g>
     </g>
    </g>
    <g id="xtick_7">
     <g id="line2d_7">
      <g>
       <use xlink:href="#ma540ae3ef2" x="1984.801642" y="640.8" style="stroke: #000000; stroke-width: 0.8"/>
      </g>
     </g>
     <g id="text_7">
      <!-- 2013-10 -->
      <g transform="translate(1953.464532 659.197656) scale(0.15 -0.15)">
       <use xlink:href="#DejaVuSans-32"/>
       <use xlink:href="#DejaVuSans-30" x="63.623047"/>
       <use xlink:href="#DejaVuSans-31" x="127.246094"/>
       <use xlink:href="#DejaVuSans-33" x="190.869141"/>
       <use xlink:href="#DejaVuSans-2d" x="254.492188"/>
       <use xlink:href="#DejaVuSans-31" x="290.576172"/>
       <use xlink:href="#DejaVuSans-30" x="354.199219"/>
      </g>
     </g>
    </g>
    <g id="xtick_8">
     <g id="line2d_8">
      <g>
       <use xlink:href="#ma540ae3ef2" x="2230.596443" y="640.8" style="stroke: #000000; stroke-width: 0.8"/>
      </g>
     </g>
     <g id="text_8">
      <!-- 2014-01 -->
      <g transform="translate(2199.259334 659.197656) scale(0.15 -0.15)">
       <use xlink:href="#DejaVuSans-32"/>
       <use xlink:href="#DejaVuSans-30" x="63.623047"/>
       <use xlink:href="#DejaVuSans-31" x="127.246094"/>
       <use xlink:href="#DejaVuSans-34" x="190.869141"/>
       <use xlink:href="#DejaVuSans-2d" x="254.492188"/>
       <use xlink:href="#DejaVuSans-30" x="290.576172"/>
       <use xlink:href="#DejaVuSans-31" x="354.199219"/>
      </g>
     </g>
    </g>
    <g id="text_9">
     <!-- Time -->
     <g transform="translate(1267.032813 681.514063) scale(0.2 -0.2)">
      <defs>
       <path id="DejaVuSans-54" d="M -19 4666 
L 3928 4666 
L 3928 4134 
L 2272 4134 
L 2272 0 
L 1638 0 
L 1638 4134 
L -19 4134 
L -19 4666 
z
" transform="scale(0.015625)"/>
       <path id="DejaVuSans-69" d="M 603 3500 
L 1178 3500 
L 1178 0 
L 603 0 
L 603 3500 
z
M 603 4863 
L 1178 4863 
L 1178 4134 
L 603 4134 
L 603 4863 
z
" transform="scale(0.015625)"/>
       <path id="DejaVuSans-6d" d="M 3328 2828 
Q 3544 3216 3844 3400 
Q 4144 3584 4550 3584 
Q 5097 3584 5394 3201 
Q 5691 2819 5691 2113 
L 5691 0 
L 5113 0 
L 5113 2094 
Q 5113 2597 4934 2840 
Q 4756 3084 4391 3084 
Q 3944 3084 3684 2787 
Q 3425 2491 3425 1978 
L 3425 0 
L 2847 0 
L 2847 2094 
Q 2847 2600 2669 2842 
Q 2491 3084 2119 3084 
Q 1678 3084 1418 2786 
Q 1159 2488 1159 1978 
L 1159 0 
L 581 0 
L 581 3500 
L 1159 3500 
L 1159 2956 
Q 1356 3278 1631 3431 
Q 1906 3584 2284 3584 
Q 2666 3584 2933 3390 
Q 3200 3197 3328 2828 
z
" transform="scale(0.015625)"/>
       <path id="DejaVuSans-65" d="M 3597 1894 
L 3597 1613 
L 953 1613 
Q 991 1019 1311 708 
Q 1631 397 2203 397 
Q 2534 397 2845 478 
Q 3156 559 3463 722 
L 3463 178 
Q 3153 47 2828 -22 
Q 2503 -91 2169 -91 
Q 1331 -91 842 396 
Q 353 884 353 1716 
Q 353 2575 817 3079 
Q 1281 3584 2069 3584 
Q 2775 3584 3186 3129 
Q 3597 2675 3597 1894 
z
M 3022 2063 
Q 3016 2534 2758 2815 
Q 2500 3097 2075 3097 
Q 1594 3097 1305 2825 
Q 1016 2553 972 2059 
L 3022 2063 
z
" transform="scale(0.015625)"/>
      </defs>
      <use xlink:href="#DejaVuSans-54"/>
      <use xlink:href="#DejaVuSans-69" x="57.958984"/>
      <use xlink:href="#DejaVuSans-6d" x="85.742188"/>
      <use xlink:href="#DejaVuSans-65" x="183.154297"/>
     </g>
    </g>
   </g>
   <g id="matplotlib.axis_2">
    <g id="ytick_1">
     <g id="line2d_9">
      <defs>
       <path id="m209ec0d02b" d="M 0 0 
L -3.5 0 
" style="stroke: #000000; stroke-width: 0.8"/>
      </defs>
      <g>
       <use xlink:href="#m209ec0d02b" x="315" y="640.8" style="stroke: #000000; stroke-width: 0.8"/>
      </g>
     </g>
     <g id="text_10">
      <!-- −0.00100 -->
      <g transform="translate(233.400781 646.498828) scale(0.15 -0.15)">
       <defs>
        <path id="DejaVuSans-2212" d="M 678 2272 
L 4684 2272 
L 4684 1741 
L 678 1741 
L 678 2272 
z
" transform="scale(0.015625)"/>
        <path id="DejaVuSans-2e" d="M 684 794 
L 1344 794 
L 1344 0 
L 684 0 
L 684 794 
z
" transform="scale(0.015625)"/>
       </defs>
       <use xlink:href="#DejaVuSans-2212"/>
       <use xlink:href="#DejaVuSans-30" x="83.789062"/>
       <use xlink:href="#DejaVuSans-2e" x="147.412109"/>
       <use xlink:href="#DejaVuSans-30" x="179.199219"/>
       <use xlink:href="#DejaVuSans-30" x="242.822266"/>
       <use xlink:href="#DejaVuSans-31" x="306.445312"/>
       <use xlink:href="#DejaVuSans-30" x="370.068359"/>
       <use xlink:href="#DejaVuSans-30" x="433.691406"/>
      </g>
     </g>
    </g>
    <g id="ytick_2">
     <g id="line2d_10">
      <g>
       <use xlink:href="#m209ec0d02b" x="315" y="571.5" style="stroke: #000000; stroke-width: 0.8"/>
      </g>
     </g>
     <g id="text_11">
      <!-- −0.00075 -->
      <g transform="translate(233.400781 577.198828) scale(0.15 -0.15)">
       <defs>
        <path id="DejaVuSans-35" d="M 691 4666 
L 3169 4666 
L 3169 4134 
L 1269 4134 
L 1269 2991 
Q 1406 3038 1543 3061 
Q 1681 3084 1819 3084 
Q 2600 3084 3056 2656 
Q 3513 2228 3513 1497 
Q 3513 744 3044 326 
Q 2575 -91 1722 -91 
Q 1428 -91 1123 -41 
Q 819 9 494 109 
L 494 744 
Q 775 591 1075 516 
Q 1375 441 1709 441 
Q 2250 441 2565 725 
Q 2881 1009 2881 1497 
Q 2881 1984 2565 2268 
Q 2250 2553 1709 2553 
Q 1456 2553 1204 2497 
Q 953 2441 691 2322 
L 691 4666 
z
" transform="scale(0.015625)"/>
       </defs>
       <use xlink:href="#DejaVuSans-2212"/>
       <use xlink:href="#DejaVuSans-30" x="83.789062"/>
       <use xlink:href="#DejaVuSans-2e" x="147.412109"/>
       <use xlink:href="#DejaVuSans-30" x="179.199219"/>
       <use xlink:href="#DejaVuSans-30" x="242.822266"/>
       <use xlink:href="#DejaVuSans-30" x="306.445312"/>
       <use xlink:href="#DejaVuSans-37" x="370.068359"/>
       <use xlink:href="#DejaVuSans-35" x="433.691406"/>
      </g>
     </g>
    </g>
    <g id="ytick_3">
     <g id="line2d_11">
      <g>
       <use xlink:href="#m209ec0d02b" x="315" y="502.2" style="stroke: #000000; stroke-width: 0.8"/>
      </g>
     </g>
     <g id="text_12">
      <!-- −0.00050 -->
      <g transform="translate(233.400781 507.898828) scale(0.15 -0.15)">
       <use xlink:href="#DejaVuSans-2212"/>
       <use xlink:href="#DejaVuSans-30" x="83.789062"/>
       <use xlink:href="#DejaVuSans-2e" x="147.412109"/>
       <use xlink:href="#DejaVuSans-30" x="179.199219"/>
       <use xlink:href="#DejaVuSans-30" x="242.822266"/>
       <use xlink:href="#DejaVuSans-30" x="306.445312"/>
       <use xlink:href="#DejaVuSans-35" x="370.068359"/>
       <use xlink:href="#DejaVuSans-30" x="433.691406"/>
      </g>
     </g>
    </g>
    <g id="ytick_4">
     <g id="line2d_12">
      <g>
       <use xlink:href="#m209ec0d02b" x="315" y="432.9" style="stroke: #000000; stroke-width: 0.8"/>
      </g>
     </g>
     <g id="text_13">
      <!-- −0.00025 -->
      <g transform="translate(233.400781 438.598828) scale(0.15 -0.15)">
       <use xlink:href="#DejaVuSans-2212"/>
       <use xlink:href="#DejaVuSans-30" x="83.789062"/>
       <use xlink:href="#DejaVuSans-2e" x="147.412109"/>
       <use xlink:href="#DejaVuSans-30" x="179.199219"/>
       <use xlink:href="#DejaVuSans-30" x="242.822266"/>
       <use xlink:href="#DejaVuSans-30" x="306.445312"/>
       <use xlink:href="#DejaVuSans-32" x="370.068359"/>
       <use xlink:href="#DejaVuSans-35" x="433.691406"/>
      </g>
     </g>
    </g>
    <g id="ytick_5">
     <g id="line2d_13">
      <g>
       <use xlink:href="#m209ec0d02b" x="315" y="363.6" style="stroke: #000000; stroke-width: 0.8"/>
      </g>
     </g>
     <g id="text_14">
      <!-- 0.00000 -->
      <g transform="translate(245.970313 369.298828) scale(0.15 -0.15)">
       <use xlink:href="#DejaVuSans-30"/>
       <use xlink:href="#DejaVuSans-2e" x="63.623047"/>
       <use xlink:href="#DejaVuSans-30" x="95.410156"/>
       <use xlink:href="#DejaVuSans-30" x="159.033203"/>
       <use xlink:href="#DejaVuSans-30" x="222.65625"/>
       <use xlink:href="#DejaVuSans-30" x="286.279297"/>
       <use xlink:href="#DejaVuSans-30" x="349.902344"/>
      </g>
     </g>
    </g>
    <g id="ytick_6">
     <g id="line2d_14">
      <g>
       <use xlink:href="#m209ec0d02b" x="315" y="294.3" style="stroke: #000000; stroke-width: 0.8"/>
      </g>
     </g>
     <g id="text_15">
      <!-- 0.00025 -->
      <g transform="translate(245.970313 299.998828) scale(0.15 -0.15)">
       <use xlink:href="#DejaVuSans-30"/>
       <use xlink:href="#DejaVuSans-2e" x="63.623047"/>
       <use xlink:href="#DejaVuSans-30" x="95.410156"/>
       <use xlink:href="#DejaVuSans-30" x="159.033203"/>
       <use xlink:href="#DejaVuSans-30" x="222.65625"/>
       <use xlink:href="#DejaVuSans-32" x="286.279297"/>
       <use xlink:href="#DejaVuSans-35" x="349.902344"/>
      </g>
     </g>
    </g>
    <g id="ytick_7">
     <g id="line2d_15">
      <g>
       <use xlink:href="#m209ec0d02b" x="315" y="225" style="stroke: #000000; stroke-width: 0.8"/>
      </g>
     </g>
     <g id="text_16">
      <!-- 0.00050 -->
      <g transform="translate(245.970313 230.698828) scale(0.15 -0.15)">
       <use xlink:href="#DejaVuSans-30"/>
       <use xlink:href="#DejaVuSans-2e" x="63.623047"/>
       <use xlink:href="#DejaVuSans-30" x="95.410156"/>
       <use xlink:href="#DejaVuSans-30" x="159.033203"/>
       <use xlink:href="#DejaVuSans-30" x="222.65625"/>
       <use xlink:href="#DejaVuSans-35" x="286.279297"/>
       <use xlink:href="#DejaVuSans-30" x="349.902344"/>
      </g>
     </g>
    </g>
    <g id="ytick_8">
     <g id="line2d_16">
      <g>
       <use xlink:href="#m209ec0d02b" x="315" y="155.7" style="stroke: #000000; stroke-width: 0.8"/>
      </g>
     </g>
     <g id="text_17">
      <!-- 0.00075 -->
      <g transform="translate(245.970313 161.398828) scale(0.15 -0.15)">
       <use xlink:href="#DejaVuSans-30"/>
       <use xlink:href="#DejaVuSans-2e" x="63.623047"/>
       <use xlink:href="#DejaVuSans-30" x="95.410156"/>
       <use xlink:href="#DejaVuSans-30" x="159.033203"/>
       <use xlink:href="#DejaVuSans-30" x="222.65625"/>
       <use xlink:href="#DejaVuSans-37" x="286.279297"/>
       <use xlink:href="#DejaVuSans-35" x="349.902344"/>
      </g>
     </g>
    </g>
    <g id="ytick_9">
     <g id="line2d_17">
      <g>
       <use xlink:href="#m209ec0d02b" x="315" y="86.4" style="stroke: #000000; stroke-width: 0.8"/>
      </g>
     </g>
     <g id="text_18">
      <!-- 0.00100 -->
      <g transform="translate(245.970313 92.098828) scale(0.15 -0.15)">
       <use xlink:href="#DejaVuSans-30"/>
       <use xlink:href="#DejaVuSans-2e" x="63.623047"/>
       <use xlink:href="#DejaVuSans-30" x="95.410156"/>
       <use xlink:href="#DejaVuSans-30" x="159.033203"/>
       <use xlink:href="#DejaVuSans-31" x="222.65625"/>
       <use xlink:href="#DejaVuSans-30" x="286.279297"/>
       <use xlink:href="#DejaVuSans-30" x="349.902344"/>
      </g>
     </g>
    </g>
    <g id="text_19">
     <!-- East(m) -->
     <g transform="translate(225.241406 402.720312) rotate(-90) scale(0.2 -0.2)">
      <defs>
       <path id="DejaVuSans-45" d="M 628 4666 
L 3578 4666 
L 3578 4134 
L 1259 4134 
L 1259 2753 
L 3481 2753 
L 3481 2222 
L 1259 2222 
L 1259 531 
L 3634 531 
L 3634 0 
L 628 0 
L 628 4666 
z
" transform="scale(0.015625)"/>
       <path id="DejaVuSans-61" d="M 2194 1759 
Q 1497 1759 1228 1600 
Q 959 1441 959 1056 
Q 959 750 1161 570 
Q 1363 391 1709 391 
Q 2188 391 2477 730 
Q 2766 1069 2766 1631 
L 2766 1759 
L 2194 1759 
z
M 3341 1997 
L 3341 0 
L 2766 0 
L 2766 531 
Q 2569 213 2275 61 
Q 1981 -91 1556 -91 
Q 1019 -91 701 211 
Q 384 513 384 1019 
Q 384 1609 779 1909 
Q 1175 2209 1959 2209 
L 2766 2209 
L 2766 2266 
Q 2766 2663 2505 2880 
Q 2244 3097 1772 3097 
Q 1472 3097 1187 3025 
Q 903 2953 641 2809 
L 641 3341 
Q 956 3463 1253 3523 
Q 1550 3584 1831 3584 
Q 2591 3584 2966 3190 
Q 3341 2797 3341 1997 
z
" transform="scale(0.015625)"/>
       <path id="DejaVuSans-73" d="M 2834 3397 
L 2834 2853 
Q 2591 2978 2328 3040 
Q 2066 3103 1784 3103 
Q 1356 3103 1142 2972 
Q 928 2841 928 2578 
Q 928 2378 1081 2264 
Q 1234 2150 1697 2047 
L 1894 2003 
Q 2506 1872 2764 1633 
Q 3022 1394 3022 966 
Q 3022 478 2636 193 
Q 2250 -91 1575 -91 
Q 1294 -91 989 -36 
Q 684 19 347 128 
L 347 722 
Q 666 556 975 473 
Q 1284 391 1588 391 
Q 1994 391 2212 530 
Q 2431 669 2431 922 
Q 2431 1156 2273 1281 
Q 2116 1406 1581 1522 
L 1381 1569 
Q 847 1681 609 1914 
Q 372 2147 372 2553 
Q 372 3047 722 3315 
Q 1072 3584 1716 3584 
Q 2034 3584 2315 3537 
Q 2597 3491 2834 3397 
z
" transform="scale(0.015625)"/>
       <path id="DejaVuSans-74" d="M 1172 4494 
L 1172 3500 
L 2356 3500 
L 2356 3053 
L 1172 3053 
L 1172 1153 
Q 1172 725 1289 603 
Q 1406 481 1766 481 
L 2356 481 
L 2356 0 
L 1766 0 
Q 1100 0 847 248 
Q 594 497 594 1153 
L 594 3053 
L 172 3053 
L 172 3500 
L 594 3500 
L 594 4494 
L 1172 4494 
z
" transform="scale(0.015625)"/>
       <path id="DejaVuSans-28" d="M 1984 4856 
Q 1566 4138 1362 3434 
Q 1159 2731 1159 2009 
Q 1159 1288 1364 580 
Q 1569 -128 1984 -844 
L 1484 -844 
Q 1016 -109 783 600 
Q 550 1309 550 2009 
Q 550 2706 781 3412 
Q 1013 4119 1484 4856 
L 1984 4856 
z
" transform="scale(0.015625)"/>
       <path id="DejaVuSans-29" d="M 513 4856 
L 1013 4856 
Q 1481 4119 1714 3412 
Q 1947 2706 1947 2009 
Q 1947 1309 1714 600 
Q 1481 -109 1013 -844 
L 513 -844 
Q 928 -128 1133 580 
Q 1338 1288 1338 2009 
Q 1338 2731 1133 3434 
Q 928 4138 513 4856 
z
" transform="scale(0.015625)"/>
      </defs>
      <use xlink:href="#DejaVuSans-45"/>
      <use xlink:href="#DejaVuSans-61" x="63.183594"/>
      <use xlink:href="#DejaVuSans-73" x="124.462891"/>
      <use xlink:href="#DejaVuSans-74" x="176.5625"/>
      <use xlink:href="#DejaVuSans-28" x="215.771484"/>
      <use xlink:href="#DejaVuSans-6d" x="254.785156"/>
      <use xlink:href="#DejaVuSans-29" x="352.197266"/>
     </g>
    </g>
   </g>
   <g id="line2d_18">
    <path d="M 312.328317 414.286658 
L 315 392.798128 
L 317.671683 412.078021 
L 320.343365 316.938713 
L 323.015048 335.616119 
L 325.686731 309.421892 
L 328.358413 249.012603 
L 331.030096 328.014664 
L 333.701778 381.079872 
L 336.373461 293.197315 
L 339.045144 359.490036 
L 341.716826 404.050998 
L 344.388509 353.751496 
L 347.060192 295.771566 
L 349.731874 247.69284 
L 352.403557 379.865078 
L 355.075239 344.569656 
L 357.746922 336.018185 
L 360.418605 340.551527 
L 363.090287 317.120571 
L 365.76197 383.980527 
L 368.433653 299.896971 
L 371.105335 316.242316 
L 373.777018 379.964932 
L 376.4487 367.818452 
L 379.120383 372.142267 
L 381.792066 349.620839 
L 384.463748 315.013885 
L 387.135431 359.997563 
L 389.807114 330.564342 
L 392.478796 388.234418 
L 395.150479 411.642457 
L 397.822161 394.72977 
L 400.493844 393.942608 
L 403.165527 380.364051 
L 405.837209 418.118221 
L 408.508892 374.785418 
L 411.180575 323.681294 
L 413.852257 320.672435 
L 416.52394 289.92698 
L 419.195622 309.071919 
L 421.867305 284.979657 
L 424.538988 367.657087 
L 427.21067 402.235133 
L 429.882353 405.246547 
L 432.554036 398.12688 
L 435.225718 310.505905 
L 437.897401 383.63637 
L 440.569083 390.754731 
L 443.240766 340.565428 
L 445.912449 387.813709 
L 448.584131 311.151515 
L 451.255814 315.442618 
L 453.927497 357.232226 
L 456.599179 345.12422 
L 459.270862 297.468755 
L 461.942544 290.178377 
L 464.614227 288.824674 
L 467.28591 320.655208 
L 469.957592 412.202263 
L 472.629275 402.210953 
L 475.300958 398.263848 
L 477.97264 367.813577 
L 480.644323 448.314999 
L 483.316005 368.475466 
L 485.987688 267.342692 
L 488.659371 313.608749 
L 491.331053 295.065224 
L 494.002736 321.065042 
L 496.674419 326.172408 
L 499.346101 332.483285 
L 502.017784 324.108054 
L 504.689466 306.850987 
L 507.361149 342.64815 
L 510.032832 434.970325 
L 512.704514 405.792986 
L 515.376197 403.908672 
L 518.04788 389.977396 
L 520.719562 348.260909 
L 523.391245 329.922186 
L 526.062927 383.170266 
L 528.73461 382.258652 
L 531.406293 281.142448 
L 534.077975 293.97118 
L 536.749658 422.431922 
L 539.421341 303.401976 
L 542.093023 405.255448 
L 544.764706 477.444398 
L 547.436389 355.033126 
L 550.108071 351.476272 
L 552.779754 395.648683 
L 555.451436 427.690902 
L 558.123119 398.203324 
L 560.794802 373.005261 
L 563.466484 377.49769 
L 566.138167 297.182632 
L 568.80985 273.295328 
L 571.481532 313.584663 
L 574.153215 315.368241 
L 576.824897 348.100406 
L 579.49658 323.6888 
L 582.168263 449.722136 
L 584.839945 352.275407 
L 587.511628 368.184767 
L 590.183311 436.947308 
L 592.854993 347.832203 
L 595.526676 335.592193 
L 598.198358 334.339569 
L 600.870041 334.605844 
L 603.541724 313.307443 
L 606.213406 256.995637 
L 608.885089 366.698112 
L 611.556772 375.415232 
L 614.228454 375.856534 
L 616.900137 358.727894 
L 619.571819 402.559159 
L 622.243502 305.598408 
L 624.915185 385.383084 
L 627.586867 320.942059 
L 630.25855 357.993804 
L 632.930233 344.973419 
L 635.601915 390.307097 
L 638.273598 339.895633 
L 640.94528 264.446674 
L 643.616963 426.678897 
L 646.288646 423.065352 
L 648.960328 344.764422 
L 651.632011 283.607317 
L 654.303694 385.018982 
L 656.975376 323.841587 
L 659.647059 405.366119 
L 662.318741 356.729148 
L 664.990424 458.191572 
L 667.662107 400.691606 
L 670.333789 366.937951 
L 673.005472 317.682879 
L 675.677155 291.167982 
L 678.348837 322.848574 
L 681.02052 315.819764 
L 683.692202 295.330485 
L 686.363885 340.07354 
L 689.035568 314.910419 
L 691.70725 287.253859 
L 694.378933 358.096904 
L 697.050616 396.585726 
L 699.722298 443.321576 
L 702.393981 354.827898 
L 705.065663 407.694996 
L 707.737346 390.301784 
L 710.409029 280.409134 
L 713.080711 340.293692 
L 715.752394 480.149055 
L 718.424077 380.098206 
L 721.095759 356.501751 
L 723.767442 326.263187 
L 726.439124 336.31901 
L 729.110807 280.864563 
L 731.78249 335.398139 
L 734.454172 344.17623 
L 737.125855 373.975378 
L 739.797538 340.226623 
L 742.46922 238.404478 
L 745.140903 225.528019 
L 747.812585 389.869794 
L 750.484268 348.903867 
L 753.155951 435.374536 
L 755.827633 465.590322 
L 758.499316 358.893024 
L 761.170999 274.204341 
L 763.842681 357.336654 
L 766.514364 295.246287 
L 769.186047 462.699287 
L 771.857729 453.907579 
L 774.529412 198.290809 
L 777.201094 421.364509 
L 779.872777 274.325541 
L 782.54446 291.703087 
L 785.216142 351.304474 
L 787.887825 441.399987 
L 790.559508 304.185282 
L 793.23119 396.343666 
L 795.902873 323.874951 
L 798.574555 351.888187 
L 801.246238 441.407784 
L 803.917921 291.416874 
L 806.589603 363.09024 
L 809.261286 421.779895 
L 811.932969 335.17236 
L 814.604651 316.153308 
L 817.276334 354.880704 
L 819.948016 339.791757 
L 822.619699 329.674168 
L 825.291382 273.890614 
L 827.963064 341.733514 
L 830.634747 395.30316 
L 833.30643 371.394262 
L 835.978112 400.760597 
L 838.649795 472.887618 
L 841.321477 373.180786 
L 843.99316 264.636885 
L 846.664843 293.192681 
L 849.336525 382.818292 
L 852.008208 345.163372 
L 854.679891 264.650325 
L 857.351573 334.716573 
L 860.023256 374.685394 
L 862.694938 274.047275 
L 865.366621 265.348654 
L 868.038304 323.760393 
L 870.709986 329.945759 
L 873.381669 485.733168 
L 876.053352 341.838786 
L 878.725034 313.845425 
L 881.396717 350.200323 
L 884.068399 353.08426 
L 886.740082 339.152507 
L 889.411765 360.718942 
L 892.083447 297.003496 
L 894.75513 323.928892 
L 897.426813 366.891589 
L 900.098495 358.264867 
L 902.770178 330.675529 
L 905.44186 402.265129 
L 908.113543 349.117508 
L 910.785226 416.416596 
L 913.456908 360.989275 
L 916.128591 313.865165 
L 918.800274 338.72502 
L 921.471956 330.129412 
L 924.143639 316.118059 
L 926.815321 259.896737 
L 929.487004 316.137145 
L 932.158687 369.768183 
L 934.830369 470.765485 
L 937.502052 417.293926 
L 940.173735 401.761217 
L 942.845417 402.93 
L 945.5171 360.501647 
L 948.188782 327.857032 
L 950.860465 335.363175 
L 953.532148 326.738534 
L 956.20383 339.437664 
L 958.875513 254.23198 
L 961.547196 377.454982 
L 964.218878 519.76493 
L 966.890561 325.209427 
L 969.562244 399.967654 
L 972.233926 368.549718 
L 974.905609 296.244214 
L 977.577291 231.119853 
L 980.248974 323.43866 
L 982.920657 362.82038 
L 985.592339 265.919504 
L 988.264022 333.349339 
L 990.935705 344.936931 
L 993.607387 340.236017 
L 996.27907 323.557982 
L 998.950752 331.258383 
L 1001.622435 293.923727 
L 1004.294118 264.076711 
L 1006.9658 388.327462 
L 1009.637483 387.645628 
L 1012.309166 344.75864 
L 1014.980848 401.058749 
L 1017.652531 380.990788 
L 1020.324213 387.291431 
L 1022.995896 345.876237 
L 1025.667579 351.20015 
L 1028.339261 328.680601 
L 1031.010944 383.900753 
L 1033.682627 357.122497 
L 1036.354309 352.896932 
L 1039.025992 342.98279 
L 1041.697674 293.218787 
L 1044.369357 290.841511 
L 1047.04104 379.88736 
L 1049.712722 312.801234 
L 1052.384405 278.600674 
L 1055.056088 407.630077 
L 1057.72777 344.118823 
L 1060.399453 336.695345 
L 1063.071135 284.887837 
L 1065.742818 372.580579 
L 1068.414501 356.023253 
L 1071.086183 312.25627 
L 1073.757866 371.28858 
L 1076.429549 423.884076 
L 1079.101231 355.943964 
L 1081.772914 385.426257 
L 1084.444596 377.979438 
L 1087.116279 367.680476 
L 1089.787962 394.953316 
L 1092.459644 364.726915 
L 1095.131327 358.762778 
L 1097.80301 350.024276 
L 1100.474692 304.025253 
L 1103.146375 338.710873 
L 1105.818057 321.597672 
L 1108.48974 462.273095 
L 1111.161423 393.067757 
L 1113.833105 410.086363 
L 1116.504788 352.604406 
L 1119.176471 360.763107 
L 1121.848153 278.325065 
L 1124.519836 411.101593 
L 1127.191518 425.935377 
L 1129.863201 346.120861 
L 1132.534884 341.741095 
L 1135.206566 378.793002 
L 1137.878249 330.42868 
L 1140.549932 316.217631 
L 1143.221614 292.699215 
L 1145.893297 335.850742 
L 1148.564979 325.277966 
L 1151.236662 294.559126 
L 1153.908345 266.110598 
L 1156.580027 379.873938 
L 1159.25171 398.277628 
L 1164.595075 287.927534 
L 1167.266758 263.902815 
L 1169.93844 417.15972 
L 1172.610123 417.123515 
L 1175.281806 345.553453 
L 1177.953488 398.187653 
L 1180.625171 431.456988 
L 1183.296854 462.331583 
L 1185.968536 401.604341 
L 1188.640219 318.459615 
L 1191.311902 221.426696 
L 1193.983584 315.812924 
L 1196.655267 292.905339 
L 1199.326949 268.748758 
L 1201.998632 320.521831 
L 1204.670315 307.773286 
L 1207.341997 329.927585 
L 1210.01368 244.400627 
L 1212.685363 367.711314 
L 1215.357045 237.612765 
L 1218.028728 296.057938 
L 1220.70041 339.543432 
L 1223.372093 333.714465 
L 1226.043776 388.120703 
L 1228.715458 307.603703 
L 1231.387141 381.215617 
L 1234.058824 364.113122 
L 1236.730506 340.242952 
L 1239.402189 391.084014 
L 1242.073871 344.026747 
L 1244.745554 284.836732 
L 1247.417237 435.669397 
L 1250.088919 419.70288 
L 1252.760602 299.816063 
L 1258.103967 350.33116 
L 1260.77565 373.926896 
L 1263.447332 301.411389 
L 1266.119015 406.055584 
L 1268.790698 372.189821 
L 1271.46238 313.581347 
L 1274.134063 397.07816 
L 1276.805746 426.697885 
L 1279.477428 353.558254 
L 1282.149111 351.992206 
L 1284.820793 407.729058 
L 1287.492476 352.139422 
L 1290.164159 284.94172 
L 1292.835841 356.345465 
L 1295.507524 339.836554 
L 1298.179207 258.971299 
L 1300.850889 360.913845 
L 1303.522572 298.06758 
L 1306.194254 378.502651 
L 1308.865937 367.630256 
L 1311.53762 406.453398 
L 1314.209302 464.183033 
L 1316.880985 564.669205 
L 1319.552668 389.290547 
L 1324.896033 323.401421 
L 1327.567715 319.10092 
L 1330.239398 295.437376 
L 1332.911081 383.014137 
L 1335.582763 330.673044 
L 1338.254446 365.245509 
L 1340.926129 350.825915 
L 1343.597811 406.253159 
L 1346.269494 415.42899 
L 1348.941176 415.195805 
L 1351.612859 299.15655 
L 1354.284542 327.286413 
L 1356.956224 332.443676 
L 1359.627907 305.976103 
L 1362.29959 309.692883 
L 1364.971272 263.973176 
L 1367.642955 321.540622 
L 1370.314637 253.507715 
L 1372.98632 329.80387 
L 1375.658003 302.424116 
L 1378.329685 347.263709 
L 1381.001368 284.346186 
L 1383.673051 355.977512 
L 1386.344733 373.48309 
L 1389.016416 385.779874 
L 1391.688098 387.282286 
L 1394.359781 322.0689 
L 1397.031464 305.368391 
L 1399.703146 396.233716 
L 1402.374829 372.605345 
L 1405.046512 380.164374 
L 1407.718194 397.08519 
L 1410.389877 365.555484 
L 1413.06156 361.002473 
L 1415.733242 273.354994 
L 1418.404925 374.117467 
L 1421.076607 377.253191 
L 1423.74829 285.305414 
L 1426.419973 405.741989 
L 1429.091655 306.089657 
L 1431.763338 145.131204 
L 1434.435021 399.188215 
L 1437.106703 358.916671 
L 1439.778386 471.855559 
L 1442.450068 351.914091 
L 1445.121751 369.984681 
L 1447.793434 358.75159 
L 1450.465116 384.909813 
L 1453.136799 367.378752 
L 1455.808482 334.204185 
L 1458.480164 329.521138 
L 1461.151847 333.417186 
L 1463.823529 363.493277 
L 1466.495212 449.172562 
L 1469.166895 388.917905 
L 1471.838577 306.098046 
L 1474.51026 298.250679 
L 1477.181943 379.337315 
L 1479.853625 376.089882 
L 1482.525308 502.818736 
L 1485.19699 370.678738 
L 1487.868673 309.199339 
L 1490.540356 407.3391 
L 1493.212038 313.894936 
L 1495.883721 259.852931 
L 1498.555404 325.726588 
L 1501.227086 331.217766 
L 1503.898769 340.123594 
L 1506.570451 331.212035 
L 1509.242134 337.307973 
L 1511.913817 303.155256 
L 1514.585499 342.383935 
L 1517.257182 298.610533 
L 1519.928865 329.738766 
L 1522.600547 299.21347 
L 1525.27223 357.973745 
L 1527.943912 375.16934 
L 1530.615595 313.243658 
L 1533.287278 353.818474 
L 1535.95896 280.078601 
L 1538.630643 283.509855 
L 1541.302326 405.975387 
L 1543.974008 384.204106 
L 1546.645691 339.499683 
L 1549.317373 382.493224 
L 1551.989056 371.055138 
L 1554.660739 375.142778 
L 1557.332421 384.554395 
L 1560.004104 379.917903 
L 1562.675787 362.071559 
L 1565.347469 378.36849 
L 1568.019152 382.722593 
L 1570.690834 331.089438 
L 1573.362517 329.435107 
L 1576.0342 403.496014 
L 1578.705882 420.487879 
L 1581.377565 419.078377 
L 1584.049248 404.908081 
L 1586.72093 359.444353 
L 1589.392613 413.180182 
L 1592.064295 241.631854 
L 1594.735978 367.005036 
L 1597.407661 409.025612 
L 1600.079343 412.784091 
L 1602.751026 283.064082 
L 1605.422709 340.73763 
L 1608.094391 339.566938 
L 1610.766074 373.861354 
L 1613.437756 418.577576 
L 1616.109439 314.642645 
L 1618.781122 275.176876 
L 1621.452804 255.908329 
L 1624.124487 295.920254 
L 1626.79617 384.884307 
L 1629.467852 398.049516 
L 1632.139535 363.366516 
L 1634.811218 387.193746 
L 1637.4829 422.726406 
L 1640.154583 336.616405 
L 1642.826265 448.597624 
L 1645.497948 408.389139 
L 1648.169631 393.509151 
L 1650.841313 341.965331 
L 1653.512996 398.106452 
L 1656.184679 326.753806 
L 1658.856361 355.762765 
L 1661.528044 336.839056 
L 1664.199726 304.688226 
L 1666.871409 410.826807 
L 1669.543092 323.987723 
L 1672.214774 319.079453 
L 1674.886457 216.623665 
L 1677.55814 341.703008 
L 1680.229822 297.882528 
L 1682.901505 417.086589 
L 1685.573187 416.64683 
L 1688.24487 324.661203 
L 1690.916553 291.34585 
L 1693.588235 415.622044 
L 1696.259918 404.839035 
L 1698.931601 278.308443 
L 1701.603283 359.82705 
L 1704.274966 383.70206 
L 1706.946648 366.321396 
L 1709.618331 450.481413 
L 1712.290014 303.313079 
L 1714.961696 346.973528 
L 1717.633379 351.338515 
L 1720.305062 234.657421 
L 1722.976744 343.466638 
L 1725.648427 361.227395 
L 1728.320109 377.043515 
L 1730.991792 387.022575 
L 1733.663475 358.288492 
L 1736.335157 290.694251 
L 1739.00684 337.679783 
L 1741.678523 417.93627 
L 1744.350205 335.480412 
L 1747.021888 394.835283 
L 1749.69357 349.031039 
L 1752.365253 455.596273 
L 1755.036936 310.324741 
L 1757.708618 340.761483 
L 1760.380301 344.448664 
L 1763.051984 403.850678 
L 1765.723666 408.683916 
L 1768.395349 339.038457 
L 1771.067031 457.983084 
L 1773.738714 302.145458 
L 1776.410397 409.0727 
L 1779.082079 288.502617 
L 1781.753762 349.754443 
L 1784.425445 323.942327 
L 1787.097127 407.54747 
L 1789.76881 352.830283 
L 1792.440492 403.783884 
L 1795.112175 411.920393 
L 1797.783858 207.572338 
L 1800.45554 251.760854 
L 1803.127223 355.769832 
L 1805.798906 320.059746 
L 1808.470588 302.252 
L 1811.142271 266.542388 
L 1813.813953 412.026641 
L 1816.485636 403.664408 
L 1819.157319 372.455848 
L 1821.829001 345.215625 
L 1824.500684 244.908865 
L 1827.172367 262.717344 
L 1829.844049 309.066881 
L 1832.515732 368.396075 
L 1835.187415 361.687971 
L 1837.859097 359.033924 
L 1840.53078 379.203385 
L 1843.202462 287.707162 
L 1845.874145 319.864739 
L 1848.545828 384.737828 
L 1851.21751 378.168379 
L 1853.889193 291.336127 
L 1856.560876 272.334701 
L 1859.232558 352.912961 
L 1861.904241 376.133036 
L 1864.575923 251.006037 
L 1867.247606 296.768392 
L 1869.919289 329.390691 
L 1872.590971 302.705161 
L 1875.262654 360.694401 
L 1877.934337 332.49302 
L 1880.606019 315.521342 
L 1883.277702 353.088751 
L 1885.949384 378.357249 
L 1888.621067 383.651294 
L 1891.29275 447.798109 
L 1893.964432 360.580446 
L 1896.636115 415.451861 
L 1899.307798 282.880869 
L 1901.97948 325.198007 
L 1907.322845 356.859797 
L 1909.994528 394.435859 
L 1912.666211 333.384202 
L 1915.337893 303.915226 
L 1918.009576 316.182556 
L 1920.681259 312.812848 
L 1923.352941 342.749685 
L 1926.024624 349.821542 
L 1928.696306 306.833085 
L 1931.367989 364.886163 
L 1934.039672 341.53568 
L 1936.711354 415.935574 
L 1939.383037 410.62928 
L 1942.05472 319.936886 
L 1944.726402 351.673287 
L 1947.398085 394.36887 
L 1950.069767 376.677098 
L 1952.74145 411.315977 
L 1955.413133 388.760222 
L 1958.084815 306.543164 
L 1960.756498 323.464042 
L 1963.428181 338.810931 
L 1966.099863 274.080269 
L 1968.771546 423.390621 
L 1971.443228 373.528003 
L 1974.114911 242.137507 
L 1976.786594 410.48671 
L 1979.458276 312.280476 
L 1982.129959 332.24481 
L 1984.801642 256.735911 
L 1987.473324 292.567581 
L 1990.145007 277.44329 
L 1992.816689 343.229389 
L 1995.488372 366.333718 
L 1998.160055 285.580882 
L 2000.831737 304.412378 
L 2003.50342 363.967088 
L 2006.175103 316.980404 
L 2008.846785 396.97112 
L 2011.518468 324.77223 
L 2014.19015 385.423028 
L 2016.861833 351.069357 
L 2019.533516 376.735211 
L 2022.205198 383.540758 
L 2024.876881 386.183937 
L 2027.548564 495.041186 
L 2030.220246 360.689968 
L 2032.891929 377.200483 
L 2035.563611 322.449922 
L 2038.235294 283.780726 
L 2040.906977 291.38442 
L 2043.578659 334.79483 
L 2046.250342 351.345069 
L 2048.922025 334.71645 
L 2051.593707 312.681193 
L 2054.26539 377.541024 
L 2056.937073 395.108448 
L 2059.608755 303.220066 
L 2062.280438 328.473401 
L 2064.95212 377.551477 
L 2067.623803 422.590244 
L 2070.295486 319.919189 
L 2072.967168 393.592433 
L 2075.638851 416.885103 
L 2078.310534 409.609815 
L 2080.982216 348.118898 
L 2083.653899 350.398555 
L 2086.325581 390.280627 
L 2088.997264 335.822857 
L 2091.668947 307.323448 
L 2094.340629 291.541969 
L 2097.012312 355.273955 
L 2099.683995 330.487824 
L 2102.355677 485.763144 
L 2105.02736 309.932968 
L 2107.699042 389.648626 
L 2110.370725 331.286439 
L 2113.042408 364.384676 
L 2115.71409 356.39992 
L 2118.385773 278.751246 
L 2121.057456 292.510221 
L 2123.729138 462.480639 
L 2126.400821 327.883049 
L 2129.072503 366.914823 
L 2131.744186 452.180185 
L 2134.415869 413.284439 
L 2137.087551 470.044414 
L 2139.759234 397.869418 
L 2142.430917 313.125169 
L 2145.102599 429.758949 
L 2147.774282 352.117592 
L 2150.445964 325.071686 
L 2153.117647 283.499591 
L 2155.78933 282.164866 
L 2158.461012 404.28307 
L 2161.132695 377.153358 
L 2163.804378 367.270079 
L 2166.47606 410.28823 
L 2169.147743 285.882925 
L 2171.819425 289.493517 
L 2174.491108 295.25471 
L 2177.162791 359.761142 
L 2179.834473 327.015466 
L 2182.506156 454.142874 
L 2185.177839 427.118854 
L 2187.849521 386.191294 
L 2190.521204 218.799306 
L 2193.192886 330.038247 
L 2195.864569 342.818545 
L 2198.536252 278.788318 
L 2201.207934 318.142695 
L 2203.879617 319.456309 
L 2206.5513 324.360161 
L 2209.222982 428.651951 
L 2211.894665 400.078365 
L 2214.566347 227.267308 
L 2217.23803 282.159656 
L 2219.909713 359.801093 
L 2222.581395 516.237954 
L 2225.253078 412.697256 
L 2227.924761 371.658416 
L 2230.596443 379.338132 
L 2233.268126 298.507063 
L 2235.939808 255.046178 
L 2238.611491 290.827814 
L 2241.283174 298.111706 
L 2246.626539 439.353734 
L 2249.298222 340.452711 
L 2251.969904 341.521114 
L 2254.641587 373.84819 
L 2257.313269 432.849334 
L 2259.984952 406.106309 
L 2262.656635 308.232505 
L 2265.328317 367.158239 
L 2268 413.492651 
L 2270.671683 377.223285 
L 2270.671683 377.223285 
" clip-path="url(#p0d030c32b2)" style="fill: none; stroke: #ff0000; stroke-width: 1.8; stroke-linecap: square"/>
   </g>
   <g id="patch_3">
    <path d="M 315 640.8 
L 315 86.4 
" style="fill: none; stroke: #000000; stroke-width: 0.8; stroke-linejoin: miter; stroke-linecap: square"/>
   </g>
   <g id="patch_4">
    <path d="M 2268 640.8 
L 2268 86.4 
" style="fill: none; stroke: #000000; stroke-width: 0.8; stroke-linejoin: miter; stroke-linecap: square"/>
   </g>
   <g id="patch_5">
    <path d="M 315 640.8 
L 2268 640.8 
" style="fill: none; stroke: #000000; stroke-width: 0.8; stroke-linejoin: miter; stroke-linecap: square"/>
   </g>
   <g id="patch_6">
    <path d="M 315 86.4 
L 2268 86.4 
" style="fill: none; stroke: #000000; stroke-width: 0.8; stroke-linejoin: miter; stroke-linecap: square"/>
   </g>
   <g id="text_20">
    <!-- Model ARIMA - MPRA (east) -->
    <g transform="translate(1155.684375 80.4) scale(0.2 -0.2)">
     <defs>
      <path id="DejaVuSans-4d" d="M 628 4666 
L 1569 4666 
L 2759 1491 
L 3956 4666 
L 4897 4666 
L 4897 0 
L 4281 0 
L 4281 4097 
L 3078 897 
L 2444 897 
L 1241 4097 
L 1241 0 
L 628 0 
L 628 4666 
z
" transform="scale(0.015625)"/>
      <path id="DejaVuSans-6f" d="M 1959 3097 
Q 1497 3097 1228 2736 
Q 959 2375 959 1747 
Q 959 1119 1226 758 
Q 1494 397 1959 397 
Q 2419 397 2687 759 
Q 2956 1122 2956 1747 
Q 2956 2369 2687 2733 
Q 2419 3097 1959 3097 
z
M 1959 3584 
Q 2709 3584 3137 3096 
Q 3566 2609 3566 1747 
Q 3566 888 3137 398 
Q 2709 -91 1959 -91 
Q 1206 -91 779 398 
Q 353 888 353 1747 
Q 353 2609 779 3096 
Q 1206 3584 1959 3584 
z
" transform="scale(0.015625)"/>
      <path id="DejaVuSans-64" d="M 2906 2969 
L 2906 4863 
L 3481 4863 
L 3481 0 
L 2906 0 
L 2906 525 
Q 2725 213 2448 61 
Q 2172 -91 1784 -91 
Q 1150 -91 751 415 
Q 353 922 353 1747 
Q 353 2572 751 3078 
Q 1150 3584 1784 3584 
Q 2172 3584 2448 3432 
Q 2725 3281 2906 2969 
z
M 947 1747 
Q 947 1113 1208 752 
Q 1469 391 1925 391 
Q 2381 391 2643 752 
Q 2906 1113 2906 1747 
Q 2906 2381 2643 2742 
Q 2381 3103 1925 3103 
Q 1469 3103 1208 2742 
Q 947 2381 947 1747 
z
" transform="scale(0.015625)"/>
      <path id="DejaVuSans-6c" d="M 603 4863 
L 1178 4863 
L 1178 0 
L 603 0 
L 603 4863 
z
" transform="scale(0.015625)"/>
      <path id="DejaVuSans-20" transform="scale(0.015625)"/>
      <path id="DejaVuSans-41" d="M 2188 4044 
L 1331 1722 
L 3047 1722 
L 2188 4044 
z
M 1831 4666 
L 2547 4666 
L 4325 0 
L 3669 0 
L 3244 1197 
L 1141 1197 
L 716 0 
L 50 0 
L 1831 4666 
z
" transform="scale(0.015625)"/>
      <path id="DejaVuSans-52" d="M 2841 2188 
Q 3044 2119 3236 1894 
Q 3428 1669 3622 1275 
L 4263 0 
L 3584 0 
L 2988 1197 
Q 2756 1666 2539 1819 
Q 2322 1972 1947 1972 
L 1259 1972 
L 1259 0 
L 628 0 
L 628 4666 
L 2053 4666 
Q 2853 4666 3247 4331 
Q 3641 3997 3641 3322 
Q 3641 2881 3436 2590 
Q 3231 2300 2841 2188 
z
M 1259 4147 
L 1259 2491 
L 2053 2491 
Q 2509 2491 2742 2702 
Q 2975 2913 2975 3322 
Q 2975 3731 2742 3939 
Q 2509 4147 2053 4147 
L 1259 4147 
z
" transform="scale(0.015625)"/>
      <path id="DejaVuSans-49" d="M 628 4666 
L 1259 4666 
L 1259 0 
L 628 0 
L 628 4666 
z
" transform="scale(0.015625)"/>
      <path id="DejaVuSans-50" d="M 1259 4147 
L 1259 2394 
L 2053 2394 
Q 2494 2394 2734 2622 
Q 2975 2850 2975 3272 
Q 2975 3691 2734 3919 
Q 2494 4147 2053 4147 
L 1259 4147 
z
M 628 4666 
L 2053 4666 
Q 2838 4666 3239 4311 
Q 3641 3956 3641 3272 
Q 3641 2581 3239 2228 
Q 2838 1875 2053 1875 
L 1259 1875 
L 1259 0 
L 628 0 
L 628 4666 
z
" transform="scale(0.015625)"/>
     </defs>
     <use xlink:href="#DejaVuSans-4d"/>
     <use xlink:href="#DejaVuSans-6f" x="86.279297"/>
     <use xlink:href="#DejaVuSans-64" x="147.460938"/>
     <use xlink:href="#DejaVuSans-65" x="210.9375"/>
     <use xlink:href="#DejaVuSans-6c" x="272.460938"/>
     <use xlink:href="#DejaVuSans-20" x="300.244141"/>
     <use xlink:href="#DejaVuSans-41" x="332.03125"/>
     <use xlink:href="#DejaVuSans-52" x="400.439453"/>
     <use xlink:href="#DejaVuSans-49" x="469.921875"/>
     <use xlink:href="#DejaVuSans-4d" x="499.414062"/>
     <use xlink:href="#DejaVuSans-41" x="585.693359"/>
     <use xlink:href="#DejaVuSans-20" x="654.101562"/>
     <use xlink:href="#DejaVuSans-2d" x="685.888672"/>
     <use xlink:href="#DejaVuSans-20" x="721.972656"/>
     <use xlink:href="#DejaVuSans-4d" x="753.759766"/>
     <use xlink:href="#DejaVuSans-50" x="840.039062"/>
     <use xlink:href="#DejaVuSans-52" x="900.341797"/>
     <use xlink:href="#DejaVuSans-41" x="965.824219"/>
     <use xlink:href="#DejaVuSans-20" x="1034.232422"/>
     <use xlink:href="#DejaVuSans-28" x="1066.019531"/>
     <use xlink:href="#DejaVuSans-65" x="1105.033203"/>
     <use xlink:href="#DejaVuSans-61" x="1166.556641"/>
     <use xlink:href="#DejaVuSans-73" x="1227.835938"/>
     <use xlink:href="#DejaVuSans-74" x="1279.935547"/>
     <use xlink:href="#DejaVuSans-29" x="1319.144531"/>
    </g>
   </g>
   <g id="legend_1">
    <g id="patch_7">
     <path d="M 2165.003125 109.078125 
L 2261 109.078125 
Q 2263 109.078125 2263 107.078125 
L 2263 93.4 
Q 2263 91.4 2261 91.4 
L 2165.003125 91.4 
Q 2163.003125 91.4 2163.003125 93.4 
L 2163.003125 107.078125 
Q 2163.003125 109.078125 2165.003125 109.078125 
z
" style="fill: #ffffff; opacity: 0.8; stroke: #cccccc; stroke-linejoin: miter"/>
    </g>
    <g id="line2d_19">
     <path d="M 2167.003125 99.498438 
L 2177.003125 99.498438 
L 2187.003125 99.498438 
" style="fill: none; stroke: #ff0000; stroke-width: 1.8; stroke-linecap: square"/>
    </g>
    <g id="text_21">
     <!-- Fitted Values -->
     <g transform="translate(2195.003125 102.998438) scale(0.1 -0.1)">
      <defs>
       <path id="DejaVuSans-46" d="M 628 4666 
L 3309 4666 
L 3309 4134 
L 1259 4134 
L 1259 2759 
L 3109 2759 
L 3109 2228 
L 1259 2228 
L 1259 0 
L 628 0 
L 628 4666 
z
" transform="scale(0.015625)"/>
       <path id="DejaVuSans-56" d="M 1831 0 
L 50 4666 
L 709 4666 
L 2188 738 
L 3669 4666 
L 4325 4666 
L 2547 0 
L 1831 0 
z
" transform="scale(0.015625)"/>
       <path id="DejaVuSans-75" d="M 544 1381 
L 544 3500 
L 1119 3500 
L 1119 1403 
Q 1119 906 1312 657 
Q 1506 409 1894 409 
Q 2359 409 2629 706 
Q 2900 1003 2900 1516 
L 2900 3500 
L 3475 3500 
L 3475 0 
L 2900 0 
L 2900 538 
Q 2691 219 2414 64 
Q 2138 -91 1772 -91 
Q 1169 -91 856 284 
Q 544 659 544 1381 
z
M 1991 3584 
L 1991 3584 
z
" transform="scale(0.015625)"/>
      </defs>
      <use xlink:href="#DejaVuSans-46"/>
      <use xlink:href="#DejaVuSans-69" x="50.269531"/>
      <use xlink:href="#DejaVuSans-74" x="78.052734"/>
      <use xlink:href="#DejaVuSans-74" x="117.261719"/>
      <use xlink:href="#DejaVuSans-65" x="156.470703"/>
      <use xlink:href="#DejaVuSans-64" x="217.994141"/>
      <use xlink:href="#DejaVuSans-20" x="281.470703"/>
      <use xlink:href="#DejaVuSans-56" x="313.257812"/>
      <use xlink:href="#DejaVuSans-61" x="373.916016"/>
      <use xlink:href="#DejaVuSans-6c" x="435.195312"/>
      <use xlink:href="#DejaVuSans-75" x="462.978516"/>
      <use xlink:href="#DejaVuSans-65" x="526.357422"/>
      <use xlink:href="#DejaVuSans-73" x="587.880859"/>
     </g>
    </g>
   </g>
  </g>
 </g>
 <defs>
  <clipPath id="p0d030c32b2">
   <rect x="315" y="86.4" width="1953" height="554.4"/>
  </clipPath>
 </defs>
</svg>
