<?xml version="1.0" encoding="utf-8" standalone="no"?>
<!DOCTYPE svg PUBLIC "-//W3C//DTD SVG 1.1//EN"
  "http://www.w3.org/Graphics/SVG/1.1/DTD/svg11.dtd">
<svg xmlns:xlink="http://www.w3.org/1999/xlink" width="2520pt" height="720pt" viewBox="0 0 2520 720" xmlns="http://www.w3.org/2000/svg" version="1.1">
 <metadata>
  <rdf:RDF xmlns:dc="http://purl.org/dc/elements/1.1/" xmlns:cc="http://creativecommons.org/ns#" xmlns:rdf="http://www.w3.org/1999/02/22-rdf-syntax-ns#">
   <cc:Work>
    <dc:type rdf:resource="http://purl.org/dc/dcmitype/StillImage"/>
    <dc:date>2024-02-08T15:20:21.455612</dc:date>
    <dc:format>image/svg+xml</dc:format>
    <dc:creator>
     <cc:Agent>
      <dc:title>Matplotlib v3.7.1, https://matplotlib.org/</dc:title>
     </cc:Agent>
    </dc:creator>
   </cc:Work>
  </rdf:RDF>
 </metadata>
 <defs>
  <style type="text/css">*{stroke-linejoin: round; stroke-linecap: butt}</style>
 </defs>
 <g id="figure_1">
  <g id="patch_1">
   <path d="M 0 720 
L 2520 720 
L 2520 0 
L 0 0 
z
" style="fill: #ffffff"/>
  </g>
  <g id="axes_1">
   <g id="patch_2">
    <path d="M 315 640.8 
L 2268 640.8 
L 2268 86.4 
L 315 86.4 
z
" style="fill: #ffffff"/>
   </g>
   <g id="matplotlib.axis_1">
    <g id="xtick_1">
     <g id="line2d_1">
      <defs>
       <path id="mc81064b2c6" d="M 0 0 
L 0 3.5 
" style="stroke: #000000; stroke-width: 0.8"/>
      </defs>
      <g>
       <use xlink:href="#mc81064b2c6" x="520.719562" y="640.8" style="stroke: #000000; stroke-width: 0.8"/>
      </g>
     </g>
     <g id="text_1">
      <!-- 2012-04 -->
      <g transform="translate(489.382453 659.197656) scale(0.15 -0.15)">
       <defs>
        <path id="DejaVuSans-32" d="M 1228 531 
L 3431 531 
L 3431 0 
L 469 0 
L 469 531 
Q 828 903 1448 1529 
Q 2069 2156 2228 2338 
Q 2531 2678 2651 2914 
Q 2772 3150 2772 3378 
Q 2772 3750 2511 3984 
Q 2250 4219 1831 4219 
Q 1534 4219 1204 4116 
Q 875 4013 500 3803 
L 500 4441 
Q 881 4594 1212 4672 
Q 1544 4750 1819 4750 
Q 2544 4750 2975 4387 
Q 3406 4025 3406 3419 
Q 3406 3131 3298 2873 
Q 3191 2616 2906 2266 
Q 2828 2175 2409 1742 
Q 1991 1309 1228 531 
z
" transform="scale(0.015625)"/>
        <path id="DejaVuSans-30" d="M 2034 4250 
Q 1547 4250 1301 3770 
Q 1056 3291 1056 2328 
Q 1056 1369 1301 889 
Q 1547 409 2034 409 
Q 2525 409 2770 889 
Q 3016 1369 3016 2328 
Q 3016 3291 2770 3770 
Q 2525 4250 2034 4250 
z
M 2034 4750 
Q 2819 4750 3233 4129 
Q 3647 3509 3647 2328 
Q 3647 1150 3233 529 
Q 2819 -91 2034 -91 
Q 1250 -91 836 529 
Q 422 1150 422 2328 
Q 422 3509 836 4129 
Q 1250 4750 2034 4750 
z
" transform="scale(0.015625)"/>
        <path id="DejaVuSans-31" d="M 794 531 
L 1825 531 
L 1825 4091 
L 703 3866 
L 703 4441 
L 1819 4666 
L 2450 4666 
L 2450 531 
L 3481 531 
L 3481 0 
L 794 0 
L 794 531 
z
" transform="scale(0.015625)"/>
        <path id="DejaVuSans-2d" d="M 313 2009 
L 1997 2009 
L 1997 1497 
L 313 1497 
L 313 2009 
z
" transform="scale(0.015625)"/>
        <path id="DejaVuSans-34" d="M 2419 4116 
L 825 1625 
L 2419 1625 
L 2419 4116 
z
M 2253 4666 
L 3047 4666 
L 3047 1625 
L 3713 1625 
L 3713 1100 
L 3047 1100 
L 3047 0 
L 2419 0 
L 2419 1100 
L 313 1100 
L 313 1709 
L 2253 4666 
z
" transform="scale(0.015625)"/>
       </defs>
       <use xlink:href="#DejaVuSans-32"/>
       <use xlink:href="#DejaVuSans-30" x="63.623047"/>
       <use xlink:href="#DejaVuSans-31" x="127.246094"/>
       <use xlink:href="#DejaVuSans-32" x="190.869141"/>
       <use xlink:href="#DejaVuSans-2d" x="254.492188"/>
       <use xlink:href="#DejaVuSans-30" x="290.576172"/>
       <use xlink:href="#DejaVuSans-34" x="354.199219"/>
      </g>
     </g>
    </g>
    <g id="xtick_2">
     <g id="line2d_2">
      <g>
       <use xlink:href="#mc81064b2c6" x="763.842681" y="640.8" style="stroke: #000000; stroke-width: 0.8"/>
      </g>
     </g>
     <g id="text_2">
      <!-- 2012-07 -->
      <g transform="translate(732.505572 659.197656) scale(0.15 -0.15)">
       <defs>
        <path id="DejaVuSans-37" d="M 525 4666 
L 3525 4666 
L 3525 4397 
L 1831 0 
L 1172 0 
L 2766 4134 
L 525 4134 
L 525 4666 
z
" transform="scale(0.015625)"/>
       </defs>
       <use xlink:href="#DejaVuSans-32"/>
       <use xlink:href="#DejaVuSans-30" x="63.623047"/>
       <use xlink:href="#DejaVuSans-31" x="127.246094"/>
       <use xlink:href="#DejaVuSans-32" x="190.869141"/>
       <use xlink:href="#DejaVuSans-2d" x="254.492188"/>
       <use xlink:href="#DejaVuSans-30" x="290.576172"/>
       <use xlink:href="#DejaVuSans-37" x="354.199219"/>
      </g>
     </g>
    </g>
    <g id="xtick_3">
     <g id="line2d_3">
      <g>
       <use xlink:href="#mc81064b2c6" x="1009.637483" y="640.8" style="stroke: #000000; stroke-width: 0.8"/>
      </g>
     </g>
     <g id="text_3">
      <!-- 2012-10 -->
      <g transform="translate(978.300374 659.197656) scale(0.15 -0.15)">
       <use xlink:href="#DejaVuSans-32"/>
       <use xlink:href="#DejaVuSans-30" x="63.623047"/>
       <use xlink:href="#DejaVuSans-31" x="127.246094"/>
       <use xlink:href="#DejaVuSans-32" x="190.869141"/>
       <use xlink:href="#DejaVuSans-2d" x="254.492188"/>
       <use xlink:href="#DejaVuSans-31" x="290.576172"/>
       <use xlink:href="#DejaVuSans-30" x="354.199219"/>
      </g>
     </g>
    </g>
    <g id="xtick_4">
     <g id="line2d_4">
      <g>
       <use xlink:href="#mc81064b2c6" x="1255.432285" y="640.8" style="stroke: #000000; stroke-width: 0.8"/>
      </g>
     </g>
     <g id="text_4">
      <!-- 2013-01 -->
      <g transform="translate(1224.095175 659.197656) scale(0.15 -0.15)">
       <defs>
        <path id="DejaVuSans-33" d="M 2597 2516 
Q 3050 2419 3304 2112 
Q 3559 1806 3559 1356 
Q 3559 666 3084 287 
Q 2609 -91 1734 -91 
Q 1441 -91 1130 -33 
Q 819 25 488 141 
L 488 750 
Q 750 597 1062 519 
Q 1375 441 1716 441 
Q 2309 441 2620 675 
Q 2931 909 2931 1356 
Q 2931 1769 2642 2001 
Q 2353 2234 1838 2234 
L 1294 2234 
L 1294 2753 
L 1863 2753 
Q 2328 2753 2575 2939 
Q 2822 3125 2822 3475 
Q 2822 3834 2567 4026 
Q 2313 4219 1838 4219 
Q 1578 4219 1281 4162 
Q 984 4106 628 3988 
L 628 4550 
Q 988 4650 1302 4700 
Q 1616 4750 1894 4750 
Q 2613 4750 3031 4423 
Q 3450 4097 3450 3541 
Q 3450 3153 3228 2886 
Q 3006 2619 2597 2516 
z
" transform="scale(0.015625)"/>
       </defs>
       <use xlink:href="#DejaVuSans-32"/>
       <use xlink:href="#DejaVuSans-30" x="63.623047"/>
       <use xlink:href="#DejaVuSans-31" x="127.246094"/>
       <use xlink:href="#DejaVuSans-33" x="190.869141"/>
       <use xlink:href="#DejaVuSans-2d" x="254.492188"/>
       <use xlink:href="#DejaVuSans-30" x="290.576172"/>
       <use xlink:href="#DejaVuSans-31" x="354.199219"/>
      </g>
     </g>
    </g>
    <g id="xtick_5">
     <g id="line2d_5">
      <g>
       <use xlink:href="#mc81064b2c6" x="1495.883721" y="640.8" style="stroke: #000000; stroke-width: 0.8"/>
      </g>
     </g>
     <g id="text_5">
      <!-- 2013-04 -->
      <g transform="translate(1464.546612 659.197656) scale(0.15 -0.15)">
       <use xlink:href="#DejaVuSans-32"/>
       <use xlink:href="#DejaVuSans-30" x="63.623047"/>
       <use xlink:href="#DejaVuSans-31" x="127.246094"/>
       <use xlink:href="#DejaVuSans-33" x="190.869141"/>
       <use xlink:href="#DejaVuSans-2d" x="254.492188"/>
       <use xlink:href="#DejaVuSans-30" x="290.576172"/>
       <use xlink:href="#DejaVuSans-34" x="354.199219"/>
      </g>
     </g>
    </g>
    <g id="xtick_6">
     <g id="line2d_6">
      <g>
       <use xlink:href="#mc81064b2c6" x="1739.00684" y="640.8" style="stroke: #000000; stroke-width: 0.8"/>
      </g>
     </g>
     <g id="text_6">
      <!-- 2013-07 -->
      <g transform="translate(1707.669731 659.197656) scale(0.15 -0.15)">
       <use xlink:href="#DejaVuSans-32"/>
       <use xlink:href="#DejaVuSans-30" x="63.623047"/>
       <use xlink:href="#DejaVuSans-31" x="127.246094"/>
       <use xlink:href="#DejaVuSans-33" x="190.869141"/>
       <use xlink:href="#DejaVuSans-2d" x="254.492188"/>
       <use xlink:href="#DejaVuSans-30" x="290.576172"/>
       <use xlink:href="#DejaVuSans-37" x="354.199219"/>
      </g>
     </g>
    </g>
    <g id="xtick_7">
     <g id="line2d_7">
      <g>
       <use xlink:href="#mc81064b2c6" x="1984.801642" y="640.8" style="stroke: #000000; stroke-width: 0.8"/>
      </g>
     </g>
     <g id="text_7">
      <!-- 2013-10 -->
      <g transform="translate(1953.464532 659.197656) scale(0.15 -0.15)">
       <use xlink:href="#DejaVuSans-32"/>
       <use xlink:href="#DejaVuSans-30" x="63.623047"/>
       <use xlink:href="#DejaVuSans-31" x="127.246094"/>
       <use xlink:href="#DejaVuSans-33" x="190.869141"/>
       <use xlink:href="#DejaVuSans-2d" x="254.492188"/>
       <use xlink:href="#DejaVuSans-31" x="290.576172"/>
       <use xlink:href="#DejaVuSans-30" x="354.199219"/>
      </g>
     </g>
    </g>
    <g id="xtick_8">
     <g id="line2d_8">
      <g>
       <use xlink:href="#mc81064b2c6" x="2230.596443" y="640.8" style="stroke: #000000; stroke-width: 0.8"/>
      </g>
     </g>
     <g id="text_8">
      <!-- 2014-01 -->
      <g transform="translate(2199.259334 659.197656) scale(0.15 -0.15)">
       <use xlink:href="#DejaVuSans-32"/>
       <use xlink:href="#DejaVuSans-30" x="63.623047"/>
       <use xlink:href="#DejaVuSans-31" x="127.246094"/>
       <use xlink:href="#DejaVuSans-34" x="190.869141"/>
       <use xlink:href="#DejaVuSans-2d" x="254.492188"/>
       <use xlink:href="#DejaVuSans-30" x="290.576172"/>
       <use xlink:href="#DejaVuSans-31" x="354.199219"/>
      </g>
     </g>
    </g>
    <g id="text_9">
     <!-- Time -->
     <g transform="translate(1267.032813 681.514063) scale(0.2 -0.2)">
      <defs>
       <path id="DejaVuSans-54" d="M -19 4666 
L 3928 4666 
L 3928 4134 
L 2272 4134 
L 2272 0 
L 1638 0 
L 1638 4134 
L -19 4134 
L -19 4666 
z
" transform="scale(0.015625)"/>
       <path id="DejaVuSans-69" d="M 603 3500 
L 1178 3500 
L 1178 0 
L 603 0 
L 603 3500 
z
M 603 4863 
L 1178 4863 
L 1178 4134 
L 603 4134 
L 603 4863 
z
" transform="scale(0.015625)"/>
       <path id="DejaVuSans-6d" d="M 3328 2828 
Q 3544 3216 3844 3400 
Q 4144 3584 4550 3584 
Q 5097 3584 5394 3201 
Q 5691 2819 5691 2113 
L 5691 0 
L 5113 0 
L 5113 2094 
Q 5113 2597 4934 2840 
Q 4756 3084 4391 3084 
Q 3944 3084 3684 2787 
Q 3425 2491 3425 1978 
L 3425 0 
L 2847 0 
L 2847 2094 
Q 2847 2600 2669 2842 
Q 2491 3084 2119 3084 
Q 1678 3084 1418 2786 
Q 1159 2488 1159 1978 
L 1159 0 
L 581 0 
L 581 3500 
L 1159 3500 
L 1159 2956 
Q 1356 3278 1631 3431 
Q 1906 3584 2284 3584 
Q 2666 3584 2933 3390 
Q 3200 3197 3328 2828 
z
" transform="scale(0.015625)"/>
       <path id="DejaVuSans-65" d="M 3597 1894 
L 3597 1613 
L 953 1613 
Q 991 1019 1311 708 
Q 1631 397 2203 397 
Q 2534 397 2845 478 
Q 3156 559 3463 722 
L 3463 178 
Q 3153 47 2828 -22 
Q 2503 -91 2169 -91 
Q 1331 -91 842 396 
Q 353 884 353 1716 
Q 353 2575 817 3079 
Q 1281 3584 2069 3584 
Q 2775 3584 3186 3129 
Q 3597 2675 3597 1894 
z
M 3022 2063 
Q 3016 2534 2758 2815 
Q 2500 3097 2075 3097 
Q 1594 3097 1305 2825 
Q 1016 2553 972 2059 
L 3022 2063 
z
" transform="scale(0.015625)"/>
      </defs>
      <use xlink:href="#DejaVuSans-54"/>
      <use xlink:href="#DejaVuSans-69" x="57.958984"/>
      <use xlink:href="#DejaVuSans-6d" x="85.742188"/>
      <use xlink:href="#DejaVuSans-65" x="183.154297"/>
     </g>
    </g>
   </g>
   <g id="matplotlib.axis_2">
    <g id="ytick_1">
     <g id="line2d_9">
      <defs>
       <path id="m37a2c44fa7" d="M 0 0 
L -3.5 0 
" style="stroke: #000000; stroke-width: 0.8"/>
      </defs>
      <g>
       <use xlink:href="#m37a2c44fa7" x="315" y="585.36" style="stroke: #000000; stroke-width: 0.8"/>
      </g>
     </g>
     <g id="text_10">
      <!-- −0.004 -->
      <g transform="translate(252.488281 591.058828) scale(0.15 -0.15)">
       <defs>
        <path id="DejaVuSans-2212" d="M 678 2272 
L 4684 2272 
L 4684 1741 
L 678 1741 
L 678 2272 
z
" transform="scale(0.015625)"/>
        <path id="DejaVuSans-2e" d="M 684 794 
L 1344 794 
L 1344 0 
L 684 0 
L 684 794 
z
" transform="scale(0.015625)"/>
       </defs>
       <use xlink:href="#DejaVuSans-2212"/>
       <use xlink:href="#DejaVuSans-30" x="83.789062"/>
       <use xlink:href="#DejaVuSans-2e" x="147.412109"/>
       <use xlink:href="#DejaVuSans-30" x="179.199219"/>
       <use xlink:href="#DejaVuSans-30" x="242.822266"/>
       <use xlink:href="#DejaVuSans-34" x="306.445312"/>
      </g>
     </g>
    </g>
    <g id="ytick_2">
     <g id="line2d_10">
      <g>
       <use xlink:href="#m37a2c44fa7" x="315" y="474.48" style="stroke: #000000; stroke-width: 0.8"/>
      </g>
     </g>
     <g id="text_11">
      <!-- −0.002 -->
      <g transform="translate(252.488281 480.178828) scale(0.15 -0.15)">
       <use xlink:href="#DejaVuSans-2212"/>
       <use xlink:href="#DejaVuSans-30" x="83.789062"/>
       <use xlink:href="#DejaVuSans-2e" x="147.412109"/>
       <use xlink:href="#DejaVuSans-30" x="179.199219"/>
       <use xlink:href="#DejaVuSans-30" x="242.822266"/>
       <use xlink:href="#DejaVuSans-32" x="306.445312"/>
      </g>
     </g>
    </g>
    <g id="ytick_3">
     <g id="line2d_11">
      <g>
       <use xlink:href="#m37a2c44fa7" x="315" y="363.6" style="stroke: #000000; stroke-width: 0.8"/>
      </g>
     </g>
     <g id="text_12">
      <!-- 0.000 -->
      <g transform="translate(265.057813 369.298828) scale(0.15 -0.15)">
       <use xlink:href="#DejaVuSans-30"/>
       <use xlink:href="#DejaVuSans-2e" x="63.623047"/>
       <use xlink:href="#DejaVuSans-30" x="95.410156"/>
       <use xlink:href="#DejaVuSans-30" x="159.033203"/>
       <use xlink:href="#DejaVuSans-30" x="222.65625"/>
      </g>
     </g>
    </g>
    <g id="ytick_4">
     <g id="line2d_12">
      <g>
       <use xlink:href="#m37a2c44fa7" x="315" y="252.72" style="stroke: #000000; stroke-width: 0.8"/>
      </g>
     </g>
     <g id="text_13">
      <!-- 0.002 -->
      <g transform="translate(265.057813 258.418828) scale(0.15 -0.15)">
       <use xlink:href="#DejaVuSans-30"/>
       <use xlink:href="#DejaVuSans-2e" x="63.623047"/>
       <use xlink:href="#DejaVuSans-30" x="95.410156"/>
       <use xlink:href="#DejaVuSans-30" x="159.033203"/>
       <use xlink:href="#DejaVuSans-32" x="222.65625"/>
      </g>
     </g>
    </g>
    <g id="ytick_5">
     <g id="line2d_13">
      <g>
       <use xlink:href="#m37a2c44fa7" x="315" y="141.84" style="stroke: #000000; stroke-width: 0.8"/>
      </g>
     </g>
     <g id="text_14">
      <!-- 0.004 -->
      <g transform="translate(265.057813 147.538828) scale(0.15 -0.15)">
       <use xlink:href="#DejaVuSans-30"/>
       <use xlink:href="#DejaVuSans-2e" x="63.623047"/>
       <use xlink:href="#DejaVuSans-30" x="95.410156"/>
       <use xlink:href="#DejaVuSans-30" x="159.033203"/>
       <use xlink:href="#DejaVuSans-34" x="222.65625"/>
      </g>
     </g>
    </g>
    <g id="text_15">
     <!-- East(m) -->
     <g transform="translate(244.328906 402.720312) rotate(-90) scale(0.2 -0.2)">
      <defs>
       <path id="DejaVuSans-45" d="M 628 4666 
L 3578 4666 
L 3578 4134 
L 1259 4134 
L 1259 2753 
L 3481 2753 
L 3481 2222 
L 1259 2222 
L 1259 531 
L 3634 531 
L 3634 0 
L 628 0 
L 628 4666 
z
" transform="scale(0.015625)"/>
       <path id="DejaVuSans-61" d="M 2194 1759 
Q 1497 1759 1228 1600 
Q 959 1441 959 1056 
Q 959 750 1161 570 
Q 1363 391 1709 391 
Q 2188 391 2477 730 
Q 2766 1069 2766 1631 
L 2766 1759 
L 2194 1759 
z
M 3341 1997 
L 3341 0 
L 2766 0 
L 2766 531 
Q 2569 213 2275 61 
Q 1981 -91 1556 -91 
Q 1019 -91 701 211 
Q 384 513 384 1019 
Q 384 1609 779 1909 
Q 1175 2209 1959 2209 
L 2766 2209 
L 2766 2266 
Q 2766 2663 2505 2880 
Q 2244 3097 1772 3097 
Q 1472 3097 1187 3025 
Q 903 2953 641 2809 
L 641 3341 
Q 956 3463 1253 3523 
Q 1550 3584 1831 3584 
Q 2591 3584 2966 3190 
Q 3341 2797 3341 1997 
z
" transform="scale(0.015625)"/>
       <path id="DejaVuSans-73" d="M 2834 3397 
L 2834 2853 
Q 2591 2978 2328 3040 
Q 2066 3103 1784 3103 
Q 1356 3103 1142 2972 
Q 928 2841 928 2578 
Q 928 2378 1081 2264 
Q 1234 2150 1697 2047 
L 1894 2003 
Q 2506 1872 2764 1633 
Q 3022 1394 3022 966 
Q 3022 478 2636 193 
Q 2250 -91 1575 -91 
Q 1294 -91 989 -36 
Q 684 19 347 128 
L 347 722 
Q 666 556 975 473 
Q 1284 391 1588 391 
Q 1994 391 2212 530 
Q 2431 669 2431 922 
Q 2431 1156 2273 1281 
Q 2116 1406 1581 1522 
L 1381 1569 
Q 847 1681 609 1914 
Q 372 2147 372 2553 
Q 372 3047 722 3315 
Q 1072 3584 1716 3584 
Q 2034 3584 2315 3537 
Q 2597 3491 2834 3397 
z
" transform="scale(0.015625)"/>
       <path id="DejaVuSans-74" d="M 1172 4494 
L 1172 3500 
L 2356 3500 
L 2356 3053 
L 1172 3053 
L 1172 1153 
Q 1172 725 1289 603 
Q 1406 481 1766 481 
L 2356 481 
L 2356 0 
L 1766 0 
Q 1100 0 847 248 
Q 594 497 594 1153 
L 594 3053 
L 172 3053 
L 172 3500 
L 594 3500 
L 594 4494 
L 1172 4494 
z
" transform="scale(0.015625)"/>
       <path id="DejaVuSans-28" d="M 1984 4856 
Q 1566 4138 1362 3434 
Q 1159 2731 1159 2009 
Q 1159 1288 1364 580 
Q 1569 -128 1984 -844 
L 1484 -844 
Q 1016 -109 783 600 
Q 550 1309 550 2009 
Q 550 2706 781 3412 
Q 1013 4119 1484 4856 
L 1984 4856 
z
" transform="scale(0.015625)"/>
       <path id="DejaVuSans-29" d="M 513 4856 
L 1013 4856 
Q 1481 4119 1714 3412 
Q 1947 2706 1947 2009 
Q 1947 1309 1714 600 
Q 1481 -109 1013 -844 
L 513 -844 
Q 928 -128 1133 580 
Q 1338 1288 1338 2009 
Q 1338 2731 1133 3434 
Q 928 4138 513 4856 
z
" transform="scale(0.015625)"/>
      </defs>
      <use xlink:href="#DejaVuSans-45"/>
      <use xlink:href="#DejaVuSans-61" x="63.183594"/>
      <use xlink:href="#DejaVuSans-73" x="124.462891"/>
      <use xlink:href="#DejaVuSans-74" x="176.5625"/>
      <use xlink:href="#DejaVuSans-28" x="215.771484"/>
      <use xlink:href="#DejaVuSans-6d" x="254.785156"/>
      <use xlink:href="#DejaVuSans-29" x="352.197266"/>
     </g>
    </g>
   </g>
   <g id="line2d_14">
    <path d="M 312.328317 393.141145 
L 315 283.812227 
L 317.671683 372.824573 
L 320.343365 336.944691 
L 323.015048 292.774628 
L 325.686731 411.305512 
L 328.358413 410.332339 
L 331.030096 282.181825 
L 333.701778 408.855097 
L 336.373461 406.573452 
L 339.045144 327.625569 
L 341.716826 310.429581 
L 344.388509 298.677755 
L 347.060192 465.089526 
L 349.731874 334.460003 
L 352.403557 351.543223 
L 355.075239 363.648222 
L 357.746922 333.662282 
L 360.418605 420.6933 
L 363.090287 288.821637 
L 365.76197 362.877297 
L 368.433653 414.019065 
L 371.105335 355.306143 
L 373.777018 369.482724 
L 376.4487 346.194731 
L 379.120383 326.300739 
L 381.792066 397.332097 
L 384.463748 332.710245 
L 387.135431 409.434814 
L 389.807114 391.138385 
L 392.478796 357.473817 
L 395.150479 369.870904 
L 397.822161 355.062098 
L 400.493844 404.082282 
L 403.165527 336.721099 
L 405.837209 318.364782 
L 408.508892 354.393512 
L 411.180575 325.392547 
L 413.852257 368.079461 
L 416.52394 326.282213 
L 419.195622 423.079584 
L 421.867305 396.42537 
L 424.538988 374.160308 
M 429.882353 277.536671 
L 432.554036 417.699253 
L 435.225718 379.796685 
L 437.897401 318.396082 
L 440.569083 407.984329 
L 443.240766 297.20536 
L 445.912449 354.740547 
L 448.584131 393.313644 
L 451.255814 353.484978 
L 453.927497 315.93974 
L 456.599179 343.729592 
L 459.270862 346.333444 
L 461.942544 373.699561 
L 464.614227 440.657669 
L 467.28591 364.129811 
L 469.957592 369.380088 
L 472.629275 338.027677 
L 475.300958 443.004237 
L 477.97264 311.405887 
L 480.644323 268.15845 
L 483.316005 388.371098 
L 485.987688 335.078128 
L 488.659371 373.843098 
L 491.331053 359.512152 
L 494.002736 362.34966 
L 496.674419 350.521205 
L 499.346101 338.124444 
L 502.017784 380.902876 
L 504.689466 446.729059 
L 507.361149 350.795393 
L 510.032832 370.868418 
L 512.704514 360.711773 
L 515.376197 331.117809 
L 518.04788 340.849741 
L 520.719562 406.174163 
L 523.391245 371.685569 
L 526.062927 272.993592 
L 528.73461 352.356669 
L 531.406293 475.317655 
L 534.077975 259.810097 
L 536.749658 442.410631 
L 539.421341 445.125001 
L 542.093023 272.788853 
L 544.764706 356.480071 
L 547.436389 400.604737 
L 550.108071 401.207483 
L 552.779754 350.258703 
L 555.451436 346.651069 
L 558.123119 373.566499 
L 560.794802 292.958377 
L 563.466484 326.10221 
L 566.138167 383.018766 
L 568.80985 353.553304 
L 571.481532 385.955178 
L 574.153215 331.296061 
L 576.824897 477.709353 
L 579.49658 289.58496 
L 582.168263 372.497753 
L 584.839945 432.858888 
L 587.511628 295.97653 
L 590.183311 349.123416 
L 592.854993 356.81991 
M 600.870041 273.421961 
L 603.541724 439.451215 
L 606.213406 371.820644 
L 608.885089 368.456041 
L 611.556772 346.245216 
L 614.228454 410.00375 
L 616.900137 276.450691 
L 619.571819 429.77866 
L 622.243502 306.067659 
L 624.915185 390.316035 
L 627.586867 347.982049 
L 630.25855 404.311994 
L 632.930233 326.251501 
L 635.601915 280.581354 
L 638.273598 494.642769 
L 640.94528 376.586637 
L 643.616963 306.000994 
L 646.288646 297.708622 
L 648.960328 445.207373 
L 651.632011 306.764745 
L 654.303694 434.184397 
L 656.975376 321.498013 
L 659.647059 459.38512 
L 662.318741 330.595073 
L 664.990424 342.008284 
L 667.662107 319.865282 
L 670.333789 328.156942 
L 673.005472 378.869434 
L 675.677155 350.05897 
L 678.348837 332.688909 
L 681.02052 392.734676 
L 683.692202 337.056586 
L 686.363885 324.695829 
L 689.035568 412.438463 
L 691.70725 395.718661 
L 694.378933 418.230043 
L 697.050616 294.564669 
L 699.722298 411.584138 
L 702.393981 361.87012 
L 705.065663 264.126662 
L 707.737346 395.410134 
L 710.409029 493.957747 
L 713.080711 294.947395 
L 715.752394 346.498156 
L 718.424077 333.396428 
L 721.095759 368.40074 
L 723.767442 303.860399 
L 726.439124 397.420543 
L 729.110807 364.559749 
L 731.78249 388.847367 
L 734.454172 339.312399 
L 737.125855 265.310348 
L 739.797538 318.253751 
L 742.46922 491.114042 
L 745.140903 326.527919 
L 747.812585 439.305209 
L 750.484268 411.148491 
L 753.155951 289.221425 
L 755.827633 279.546114 
L 758.499316 426.592489 
L 761.170999 296.247666 
L 763.842681 505.398701 
L 766.514364 388.629899 
L 769.186047 132.37189 
L 771.857729 545.403735 
L 774.529412 237.668718 
L 777.201094 359.193271 
L 779.872777 399.774277 
L 782.54446 452.050831 
L 785.216142 246.734802 
L 787.887825 441.114975 
L 790.559508 301.608103 
L 795.902873 452.195383 
L 798.574555 236.243711 
L 801.246238 412.666572 
L 803.917921 422.354909 
L 806.589603 295.73766 
L 809.261286 338.250874 
L 811.932969 390.866356 
L 814.604651 348.168183 
L 817.276334 352.388268 
L 819.948016 301.688842 
L 822.619699 406.015811 
L 825.291382 410.314077 
L 827.963064 346.442976 
L 830.634747 388.61844 
L 833.30643 442.803611 
L 835.978112 298.2045 
L 838.649795 263.377562 
L 841.321477 365.801797 
L 843.99316 434.535054 
L 846.664843 336.623448 
L 849.336525 281.648836 
L 852.008208 406.714571 
L 854.679891 399.993539 
L 857.351573 272.804378 
L 862.694938 398.408324 
L 865.366621 353.222155 
L 868.038304 508.875122 
L 870.709986 255.684644 
L 873.381669 331.405002 
L 876.053352 387.278009 
L 878.725034 364.365519 
L 881.396717 347.287174 
L 884.068399 382.018056 
L 886.740082 302.532956 
L 889.411765 373.1597 
L 892.083447 395.971825 
L 894.75513 357.812806 
L 897.426813 333.143492 
L 900.098495 426.443864 
L 902.770178 318.396878 
L 905.44186 425.937322 
L 908.113543 325.031577 
L 910.785226 317.984181 
L 913.456908 377.175629 
L 916.128591 351.171479 
L 918.800274 346.825915 
L 921.471956 299.131545 
L 924.143639 392.768659 
L 926.815321 398.804232 
L 929.487004 461.400619 
L 932.158687 336.083609 
L 934.830369 359.724875 
M 940.173735 340.354937 
L 942.845417 332.048228 
L 945.5171 364.412472 
L 948.188782 348.403968 
L 950.860465 374.30369 
L 953.532148 272.827572 
L 956.20383 447.634596 
L 958.875513 509.147183 
L 961.547196 210.025832 
L 964.218878 426.843995 
L 966.890561 345.044775 
L 969.562244 300.75924 
L 972.233926 285.089468 
L 974.905609 420.765664 
L 977.577291 397.172924 
L 980.248974 269.999906 
L 982.920657 406.204007 
L 985.592339 368.516119 
L 988.264022 356.345298 
L 990.935705 342.938849 
L 993.607387 364.506448 
L 996.27907 324.207046 
L 998.950752 315.755666 
L 1001.622435 459.186847 
L 1004.294118 370.185111 
L 1006.9658 325.674757 
L 1009.637483 413.218128 
L 1012.309166 352.002557 
L 1014.980848 375.006519 
L 1017.652531 329.482885 
L 1020.324213 366.271352 
L 1022.995896 337.369081 
L 1025.667579 409.297513 
L 1028.339261 342.940822 
L 1031.010944 358.734524 
L 1033.682627 354.68107 
L 1036.354309 313.547074 
L 1039.025992 342.734129 
L 1041.697674 435.091092 
L 1044.369357 306.495037 
L 1047.04104 315.073666 
L 1049.712722 469.755905 
L 1052.384405 313.546084 
L 1055.056088 355.595565 
L 1057.72777 305.649978 
L 1060.399453 430.126246 
L 1063.071135 352.308248 
L 1065.742818 318.59878 
L 1068.414501 405.457091 
L 1071.086183 417.503609 
L 1073.757866 310.982605 
L 1076.429549 389.807134 
M 1081.772914 350.780781 
L 1084.444596 393.388989 
L 1087.116279 342.674541 
L 1089.787962 358.739179 
L 1092.459644 357.834284 
L 1095.131327 316.020007 
L 1097.80301 385.31313 
L 1100.474692 335.07946 
L 1103.146375 489.601029 
L 1105.818057 317.960653 
L 1108.48974 388.203381 
L 1111.161423 318.788055 
L 1113.833105 373.417391 
L 1116.504788 279.826818 
L 1119.176471 469.111068 
L 1121.848153 390.832053 
L 1124.519836 302.144164 
L 1127.191518 354.070674 
L 1129.863201 396.054065 
L 1132.534884 322.285132 
L 1135.206566 345.025492 
L 1137.878249 330.08638 
L 1140.549932 390.018848 
M 1145.893297 337.657055 
L 1148.564979 308.327288 
L 1151.236662 446.244061 
L 1153.908345 387.936145 
L 1156.580027 323.886634 
L 1159.25171 309.694402 
L 1161.923393 317.633731 
L 1164.595075 485.896423 
L 1167.266758 378.078417 
L 1169.93844 305.185597 
L 1172.610123 407.393126 
L 1175.281806 399.80304 
L 1177.953488 408.696311 
L 1180.625171 330.703722 
L 1183.296854 298.913268 
L 1185.968536 259.58322 
L 1188.640219 424.026784 
L 1191.311902 334.067749 
L 1193.983584 324.390649 
L 1196.655267 393.491648 
L 1199.326949 341.785587 
L 1201.998632 377.619171 
L 1204.670315 270.85422 
L 1207.341997 461.051314 
L 1210.01368 240.626904 
L 1212.685363 390.592727 
L 1215.357045 390.985665 
L 1218.028728 350.451294 
L 1220.70041 412.413061 
L 1223.372093 289.922101 
L 1226.043776 421.651144 
L 1228.715458 352.535691 
L 1231.387141 338.867621 
L 1234.058824 408.373222 
L 1236.730506 328.651949 
L 1239.402189 297.136065 
L 1242.073871 488.623884 
L 1244.745554 369.159998 
L 1247.417237 262.08725 
L 1250.088919 373.657513 
L 1252.760602 377.645618 
L 1255.432285 386.764061 
L 1258.103967 292.951398 
L 1260.77565 450.013292 
L 1263.447332 343.704942 
L 1266.119015 306.755636 
L 1268.790698 429.607549 
L 1271.46238 401.45573 
L 1274.134063 308.416206 
L 1276.805746 357.239823 
L 1279.477428 415.689491 
L 1282.149111 324.231592 
L 1284.820793 295.234765 
L 1287.492476 414.877886 
L 1290.164159 351.072623 
L 1292.835841 278.403554 
L 1295.507524 440.825953 
L 1298.179207 300.588059 
L 1300.850889 425.947785 
L 1303.522572 354.682104 
L 1306.194254 397.951266 
L 1308.865937 420.440187 
L 1311.53762 485.787449 
L 1314.209302 242.220225 
L 1316.880985 339.707328 
L 1319.552668 331.648366 
L 1322.22435 352.969364 
L 1324.896033 328.210877 
L 1327.567715 434.115947 
L 1330.239398 317.038027 
L 1332.911081 390.03253 
L 1335.582763 347.795913 
L 1338.254446 412.165639 
L 1340.926129 380.368109 
L 1343.597811 379.565292 
L 1346.269494 264.603831 
L 1348.941176 376.552035 
L 1351.612859 362.461238 
L 1354.284542 332.435478 
L 1356.956224 357.957158 
L 1359.627907 307.250513 
L 1362.29959 400.796559 
L 1364.971272 288.048422 
L 1367.642955 414.035241 
L 1370.314637 328.97707 
L 1372.98632 396.375196 
L 1375.658003 298.305579 
L 1378.329685 413.546397 
L 1381.001368 377.763612 
L 1383.673051 376.77209 
L 1386.344733 372.604308 
L 1389.016416 308.743802 
L 1391.688098 335.198433 
L 1394.359781 437.663908 
L 1397.031464 347.822346 
L 1399.703146 371.511956 
L 1402.374829 384.21429 
L 1405.046512 340.948392 
L 1407.718194 364.358063 
L 1410.389877 276.585224 
L 1413.06156 438.865962 
L 1415.733242 373.501053 
L 1418.404925 274.601415 
L 1421.076607 464.444274 
L 1423.74829 287.973265 
L 1426.419973 189.676338 
L 1429.091655 558.539153 
L 1431.763338 327.348527 
L 1434.435021 473.705509 
L 1437.106703 272.753092 
L 1439.778386 378.699257 
L 1442.450068 353.091618 
L 1445.121751 387.743847 
L 1447.793434 353.183718 
L 1450.465116 333.73506 
L 1453.136799 353.23859 
L 1455.808482 359.153231 
L 1458.480164 381.152621 
L 1461.151847 446.043888 
L 1463.823529 328.732253 
L 1466.495212 292.227441 
L 1469.166895 340.75937 
L 1471.838577 426.469888 
L 1474.51026 357.115759 
L 1477.181943 490.345722 
L 1479.853625 271.840306 
L 1482.525308 302.731894 
L 1485.19699 448.483475 
L 1487.868673 288.273033 
L 1490.540356 300.141583 
L 1493.212038 403.879636 
L 1495.883721 360.667865 
L 1498.555404 365.870026 
L 1501.227086 350.217645 
L 1503.898769 364.592926 
L 1506.570451 324.511061 
L 1509.242134 390.255005 
L 1511.913817 317.00938 
L 1514.585499 381.220448 
L 1517.257182 325.578952 
L 1519.928865 404.36146 
L 1522.600547 381.652305 
L 1525.27223 306.108268 
L 1527.943912 394.913082 
L 1530.615595 293.205806 
L 1533.287278 343.975438 
L 1535.95896 462.45385 
L 1538.630643 354.150754 
L 1541.302326 323.977954 
L 1543.974008 399.348321 
L 1546.645691 356.56185 
L 1549.317373 368.417966 
L 1551.989056 374.843548 
L 1554.660739 364.403198 
L 1557.332421 349.474864 
L 1560.004104 378.103115 
L 1562.675787 373.144836 
L 1565.347469 319.669579 
L 1568.019152 351.938306 
L 1570.690834 424.815833 
L 1573.362517 387.424424 
L 1576.0342 374.23921 
L 1578.705882 363.93103 
L 1581.377565 326.44236 
L 1584.049248 421.569232 
L 1586.72093 207.844679 
L 1589.392613 453.777991 
L 1592.064295 402.833061 
L 1594.735978 382.753927 
L 1597.407661 249.908482 
L 1600.079343 401.282325 
L 1602.751026 356.373209 
L 1605.422709 388.212737 
L 1608.094391 412.290756 
L 1610.766074 279.812249 
L 1613.437756 318.14393 
L 1616.109439 326.243479 
L 1618.781122 374.9175 
L 1621.452804 432.072971 
L 1624.124487 381.8769 
L 1626.79617 337.154755 
L 1629.467852 383.716128 
L 1632.139535 405.933813 
L 1634.811218 289.678635 
L 1637.4829 464.327441 
L 1640.154583 343.789674 
L 1642.826265 361.425551 
L 1645.497948 318.664718 
L 1648.169631 415.106162 
L 1650.841313 302.64836 
L 1653.512996 384.051491 
L 1656.184679 346.312565 
L 1658.856361 322.858879 
L 1661.528044 454.848784 
L 1664.199726 292.222344 
L 1666.871409 356.519209 
L 1669.543092 253.068157 
L 1672.214774 453.036446 
L 1674.886457 312.570076 
L 1677.55814 461.125956 
L 1680.229822 378.335813 
L 1682.901505 290.620509 
L 1685.573187 318.661104 
L 1688.24487 464.940873 
L 1690.916553 370.44766 
L 1693.588235 250.179609 
L 1696.259918 421.130435 
L 1698.931601 386.1569 
L 1701.603283 346.893799 
L 1704.274966 449.827834 
L 1706.946648 241.947139 
L 1709.618331 391.617391 
L 1712.290014 370.394228 
L 1714.961696 247.269488 
L 1717.633379 438.187482 
L 1720.305062 375.341472 
L 1722.976744 377.277942 
L 1725.648427 376.809492 
L 1728.320109 345.01326 
L 1730.991792 297.558999 
L 1733.663475 388.527009 
L 1736.335157 437.31567 
L 1739.00684 294.691962 
L 1741.678523 415.756591 
L 1744.350205 321.578507 
L 1747.021888 467.083972 
L 1749.69357 245.361826 
L 1752.365253 381.230079 
L 1755.036936 359.545528 
L 1757.708618 414.585342 
L 1760.380301 379.928993 
L 1763.051984 301.518817 
L 1765.723666 477.342673 
L 1768.395349 231.896944 
L 1771.067031 456.906513 
L 1773.738714 257.427813 
L 1776.410397 407.063092 
L 1779.082079 332.531258 
L 1781.753762 436.278147 
L 1784.425445 319.01969 
L 1787.097127 407.897147 
L 1789.76881 389.420945 
L 1792.440492 181.270024 
L 1795.112175 368.259197 
L 1797.783858 439.708573 
L 1800.45554 329.583133 
L 1803.127223 340.478564 
L 1805.798906 310.894695 
L 1808.470588 479.853554 
L 1811.142271 366.993801 
L 1813.813953 343.664394 
L 1816.485636 345.037584 
L 1819.157319 265.849464 
L 1821.829001 354.290453 
L 1824.500684 383.584538 
L 1827.172367 408.203249 
L 1829.844049 358.516806 
L 1832.515732 359.505543 
L 1835.187415 386.052634 
L 1837.859097 280.18986 
L 1840.53078 375.118466 
L 1843.202462 415.298013 
L 1845.874145 365.953195 
L 1848.545828 286.890249 
L 1851.21751 327.562853 
L 1853.889193 418.81639 
L 1856.560876 389.370801 
L 1859.232558 247.537855 
L 1861.904241 381.956411 
L 1864.575923 382.056433 
L 1867.247606 328.99336 
L 1869.919289 406.708998 
L 1872.590971 337.721188 
L 1875.262654 339.798402 
L 1877.934337 387.683335 
L 1880.606019 384.922246 
L 1883.277702 368.062741 
L 1885.949384 431.760148 
L 1888.621067 296.238486 
L 1891.29275 420.708635 
L 1893.964432 248.596756 
L 1896.636115 386.083913 
L 1899.307798 369.750633 
L 1901.97948 371.958443 
L 1904.651163 400.147766 
L 1907.322845 314.468092 
L 1909.994528 329.524466 
L 1912.666211 363.318471 
L 1915.337893 349.525386 
L 1918.009576 380.818433 
L 1920.681259 368.292598 
L 1923.352941 317.910989 
L 1926.024624 407.59963 
L 1928.696306 338.453079 
L 1931.367989 428.414035 
L 1934.039672 373.697347 
L 1936.711354 287.18767 
L 1939.383037 382.224012 
L 1942.05472 401.899741 
L 1944.726402 351.534604 
L 1947.398085 399.334343 
L 1950.069767 356.272817 
L 1952.74145 291.366379 
L 1955.413133 366.977253 
L 1958.084815 373.451496 
L 1960.756498 290.927764 
L 1963.428181 486.682993 
L 1966.099863 336.135943 
L 1968.771546 234.771103 
L 1971.443228 500.830984 
L 1974.114911 280.433195 
L 1976.786594 375.741236 
L 1979.458276 285.267838 
L 1982.129959 376.475977 
L 1984.801642 332.141068 
L 1987.473324 406.20492 
L 1990.145007 385.055308 
L 1992.816689 288.261973 
L 1995.488372 362.430235 
L 1998.160055 409.707417 
L 2000.831737 315.808165 
L 2003.50342 432.422058 
L 2006.175103 300.018521 
L 2008.846785 414.019091 
L 2011.518468 334.756727 
L 2014.19015 384.622266 
L 2016.861833 372.732421 
L 2019.533516 364.302556 
L 2022.205198 476.076891 
L 2024.876881 263.958036 
L 2027.548564 380.983416 
L 2030.220246 317.318763 
L 2032.891929 319.135216 
L 2035.563611 352.606316 
L 2038.235294 388.67814 
L 2040.906977 373.990165 
L 2043.578659 346.939237 
L 2046.250342 334.175098 
L 2048.922025 412.634581 
L 2051.593707 387.337457 
L 2054.26539 283.29882 
L 2056.937073 372.719279 
L 2059.608755 399.717722 
L 2062.280438 413.55795 
L 2064.95212 276.308337 
L 2067.623803 422.231738 
L 2070.295486 391.463615 
L 2072.967168 370.532957 
L 2075.638851 315.602369 
L 2078.310534 360.510844 
L 2080.982216 400.681233 
L 2083.653899 319.638993 
L 2086.325581 332.487877 
L 2088.997264 334.421938 
L 2091.668947 410.133198 
L 2094.340629 330.718727 
L 2097.012312 510.336488 
L 2099.683995 220.370542 
L 2102.355677 429.994853 
L 2105.02736 312.872591 
L 2107.699042 388.115572 
L 2110.370725 360.184013 
L 2113.042408 289.716463 
L 2115.71409 350.657138 
L 2118.385773 514.241842 
L 2121.057456 256.47125 
L 2123.729138 388.433189 
L 2126.400821 445.661327 
L 2129.072503 342.148408 
L 2131.744186 429.667503 
L 2134.415869 322.263448 
L 2137.087551 285.650621 
L 2139.759234 465.775796 
L 2142.430917 305.839577 
L 2145.102599 338.182002 
L 2147.774282 317.615089 
L 2150.445964 340.224539 
L 2153.117647 462.217829 
L 2155.78933 347.120301 
L 2158.461012 354.659941 
L 2161.132695 410.516272 
L 2163.804378 257.042224 
L 2166.47606 351.305456 
L 2169.147743 350.840867 
L 2171.819425 411.894539 
L 2174.491108 326.007979 
L 2177.162791 475.890595 
M 2185.177839 190.906988 
L 2187.849521 430.546458 
L 2190.521204 377.438518 
L 2193.192886 296.730241 
L 2195.864569 382.89096 
L 2198.536252 355.845442 
L 2201.207934 353.091035 
L 2203.879617 453.668043 
L 2206.5513 359.249815 
L 2209.222982 207.593376 
L 2211.894665 383.940041 
L 2214.566347 411.540572 
L 2217.23803 513.430346 
L 2219.909713 299.905361 
L 2222.581395 334.655065 
L 2225.253078 376.270317 
L 2227.924761 293.832313 
L 2230.596443 308.380849 
L 2233.268126 374.984741 
L 2235.939808 352.495184 
L 2238.611491 412.421802 
L 2241.283174 435.230181 
L 2243.954856 286.786881 
L 2246.626539 358.510919 
L 2249.298222 386.24766 
L 2251.969904 421.59215 
L 2254.641587 357.615731 
L 2257.313269 278.254242 
L 2259.984952 404.925134 
L 2262.656635 409.163381 
L 2265.328317 340.883726 
L 2268 346.966 
L 2270.671683 277.052955 
L 2270.671683 277.052955 
" clip-path="url(#p2b5d4a2939)" style="fill: none; stroke: #008000; stroke-linecap: square"/>
   </g>
   <g id="line2d_15">
    <path d="M 312.328317 373.737332 
L 315 369.439626 
L 317.671683 373.295604 
L 320.343365 354.267743 
L 323.015048 358.003224 
L 325.686731 352.764378 
L 328.358413 340.682521 
L 331.030096 356.482933 
L 333.701778 367.095974 
L 336.373461 349.519463 
L 339.045144 362.778007 
L 341.716826 371.6902 
L 344.388509 361.630299 
L 347.060192 350.034313 
L 349.731874 340.418568 
L 352.403557 366.853016 
L 355.075239 359.793931 
L 357.746922 358.083637 
L 360.418605 358.990305 
L 363.090287 354.304114 
L 365.76197 367.676105 
L 368.433653 350.859394 
L 371.105335 354.128463 
L 373.777018 366.872986 
L 376.4487 364.44369 
L 379.120383 365.308453 
L 381.792066 360.804168 
L 384.463748 353.882777 
L 387.135431 362.879513 
L 389.807114 356.992868 
L 392.478796 368.526884 
L 395.150479 373.208491 
L 397.822161 369.825954 
L 400.493844 369.668522 
L 403.165527 366.95281 
L 405.837209 374.503644 
L 408.508892 365.837084 
L 411.180575 355.616259 
L 413.852257 355.014487 
L 416.52394 348.865396 
L 419.195622 352.694384 
L 421.867305 347.875931 
L 424.538988 364.411417 
L 427.21067 371.327027 
L 429.882353 371.929309 
L 432.554036 370.505376 
L 435.225718 352.981181 
L 437.897401 367.607274 
L 440.569083 369.030946 
L 443.240766 358.993086 
L 445.912449 368.442742 
L 448.584131 353.110303 
L 451.255814 353.968524 
L 453.927497 362.326445 
L 456.599179 359.904844 
L 459.270862 350.373751 
L 461.942544 348.915675 
L 464.614227 348.644935 
L 467.28591 355.011042 
L 469.957592 373.320453 
L 472.629275 371.322191 
L 475.300958 370.53277 
L 477.97264 364.442715 
L 480.644323 380.543 
L 483.316005 364.575093 
L 485.987688 344.348538 
L 488.659371 353.60175 
L 491.331053 349.893045 
L 494.002736 355.093008 
L 496.674419 356.114482 
L 499.346101 357.376657 
L 502.017784 355.701611 
L 504.689466 352.250197 
L 507.361149 359.40963 
L 510.032832 377.874065 
L 512.704514 372.038597 
L 515.376197 371.661734 
L 518.04788 368.875479 
L 520.719562 360.532182 
L 523.391245 356.864437 
L 526.062927 367.514053 
L 528.73461 367.33173 
L 531.406293 347.10849 
L 534.077975 349.674236 
L 536.749658 375.366384 
L 539.421341 351.560395 
L 542.093023 371.93109 
L 544.764706 386.36888 
L 547.436389 361.886625 
L 550.108071 361.175254 
L 552.779754 370.009737 
L 555.451436 376.41818 
L 558.123119 370.520665 
L 560.794802 365.481052 
L 563.466484 366.379538 
L 566.138167 350.316526 
L 568.80985 345.539066 
L 571.481532 353.596933 
L 574.153215 353.953648 
L 576.824897 360.500081 
L 579.49658 355.61776 
L 582.168263 380.824427 
L 584.839945 361.335081 
L 587.511628 364.516953 
L 590.183311 378.269462 
L 592.854993 360.446441 
L 595.526676 357.998439 
L 598.198358 357.747914 
L 600.870041 357.801169 
L 603.541724 353.541489 
L 606.213406 342.279127 
L 608.885089 364.219622 
L 611.556772 365.963046 
L 614.228454 366.051307 
L 616.900137 362.625579 
L 619.571819 371.391832 
L 622.243502 351.999682 
L 624.915185 367.956617 
L 627.586867 355.068412 
L 630.25855 362.478761 
L 632.930233 359.874684 
L 635.601915 368.941419 
L 638.273598 358.859127 
L 640.94528 343.769335 
L 643.616963 376.215779 
L 646.288646 375.49307 
L 648.960328 359.832884 
L 651.632011 347.601463 
L 654.303694 367.883796 
L 656.975376 355.648317 
L 659.647059 371.953224 
L 662.318741 362.22583 
L 664.990424 382.518314 
L 667.662107 371.018321 
L 670.333789 364.26759 
L 673.005472 354.416576 
L 675.677155 349.113596 
L 678.348837 355.449715 
L 681.02052 354.043953 
L 683.692202 349.946097 
L 686.363885 358.894708 
L 689.035568 353.862084 
L 691.70725 348.330772 
L 694.378933 362.499381 
L 697.050616 370.197145 
L 699.722298 379.544315 
L 702.393981 361.84558 
L 705.065663 372.418999 
L 707.737346 368.940357 
L 710.409029 346.961827 
L 713.080711 358.938738 
L 715.752394 386.909811 
L 718.424077 366.899641 
L 721.095759 362.18035 
L 723.767442 356.132637 
L 726.439124 358.143802 
L 729.110807 347.052913 
L 731.78249 357.959628 
L 734.454172 359.715246 
L 737.125855 365.675076 
L 739.797538 358.925325 
L 742.46922 338.560896 
L 745.140903 335.985604 
L 747.812585 368.853959 
L 750.484268 360.660773 
L 753.155951 377.954907 
L 755.827633 383.998064 
L 758.499316 362.658605 
L 761.170999 345.720868 
L 763.842681 362.347331 
L 766.514364 349.929257 
L 769.186047 383.419857 
L 771.857729 381.661516 
L 774.529412 330.538162 
L 777.201094 375.152902 
L 779.872777 345.745108 
L 782.54446 349.220617 
L 785.216142 361.140895 
L 787.887825 379.159997 
L 790.559508 351.717056 
L 793.23119 370.148733 
L 795.902873 355.65499 
L 798.574555 361.257637 
L 801.246238 379.161557 
L 803.917921 349.163375 
L 806.589603 363.498048 
L 809.261286 375.235979 
L 811.932969 357.914472 
L 814.604651 354.110662 
L 817.276334 361.856141 
L 819.948016 358.838351 
L 822.619699 356.814834 
L 825.291382 345.658123 
L 827.963064 359.226703 
L 830.634747 369.940632 
L 833.30643 365.158852 
L 835.978112 371.032119 
L 838.649795 385.457524 
L 841.321477 365.516157 
L 843.99316 343.807377 
L 846.664843 349.518536 
L 849.336525 367.443658 
L 852.008208 359.912674 
L 854.679891 343.810065 
L 857.351573 357.823315 
L 860.023256 365.817079 
L 862.694938 345.689455 
L 865.366621 343.949731 
L 868.038304 355.632079 
L 870.709986 356.869152 
L 873.381669 388.026634 
L 876.053352 359.247757 
L 878.725034 353.649085 
L 881.396717 360.920065 
L 884.068399 361.496852 
L 886.740082 358.710501 
L 889.411765 363.023788 
L 892.083447 350.280699 
L 894.75513 355.665778 
L 897.426813 364.258318 
L 900.098495 362.532973 
L 902.770178 357.015106 
L 905.44186 371.333026 
L 908.113543 360.703502 
L 910.785226 374.163319 
L 913.456908 363.077855 
L 916.128591 353.653033 
L 918.800274 358.625004 
L 921.471956 356.905882 
L 924.143639 354.103612 
L 926.815321 342.859347 
L 929.487004 354.107429 
L 932.158687 364.833637 
L 934.830369 385.033097 
L 937.502052 374.338785 
L 940.173735 371.232243 
L 942.845417 371.466 
L 945.5171 362.980329 
L 948.188782 356.451406 
L 950.860465 357.952635 
L 953.532148 356.227707 
L 956.20383 358.767533 
L 958.875513 341.726396 
L 961.547196 366.370996 
L 964.218878 394.832986 
L 966.890561 355.921885 
L 969.562244 370.873531 
L 972.233926 364.589944 
L 974.905609 350.128843 
L 977.577291 337.103971 
L 980.248974 355.567732 
L 982.920657 363.444076 
L 985.592339 344.063901 
L 988.264022 357.549868 
L 990.935705 359.867386 
L 993.607387 358.927203 
L 996.27907 355.591596 
L 998.950752 357.131677 
L 1001.622435 349.664745 
L 1004.294118 343.695342 
L 1006.9658 368.545492 
L 1009.637483 368.409126 
L 1012.309166 359.831728 
L 1014.980848 371.09175 
L 1017.652531 367.078158 
L 1020.324213 368.338286 
L 1022.995896 360.055247 
L 1025.667579 361.12003 
L 1028.339261 356.61612 
L 1031.010944 367.660151 
L 1033.682627 362.304499 
L 1036.354309 361.459386 
L 1039.025992 359.476558 
L 1041.697674 349.523757 
L 1044.369357 349.048302 
L 1047.04104 366.857472 
L 1049.712722 353.440247 
L 1052.384405 346.600135 
L 1055.056088 372.406015 
L 1057.72777 359.703765 
L 1060.399453 358.219069 
L 1063.071135 347.857567 
L 1065.742818 365.396116 
L 1068.414501 362.084651 
L 1071.086183 353.331254 
L 1073.757866 365.137716 
L 1076.429549 375.656815 
L 1079.101231 362.068793 
L 1081.772914 367.965251 
L 1084.444596 366.475888 
L 1087.116279 364.416095 
L 1089.787962 369.870663 
L 1092.459644 363.825383 
L 1095.131327 362.632556 
L 1097.80301 360.884855 
L 1100.474692 351.685051 
L 1103.146375 358.622175 
L 1105.818057 355.199534 
L 1108.48974 383.334619 
L 1111.161423 369.493551 
L 1113.833105 372.897273 
L 1116.504788 361.400881 
L 1119.176471 363.032621 
L 1121.848153 346.545013 
L 1124.519836 373.100319 
L 1127.191518 376.067075 
L 1129.863201 360.104172 
L 1132.534884 359.228219 
L 1135.206566 366.6386 
L 1137.878249 356.965736 
L 1140.549932 354.123526 
L 1143.221614 349.419843 
L 1145.893297 358.050148 
L 1148.564979 355.935593 
L 1151.236662 349.791825 
L 1153.908345 344.10212 
L 1156.580027 366.854788 
L 1159.25171 370.535526 
L 1164.595075 348.465507 
L 1167.266758 343.660563 
L 1169.93844 374.311944 
L 1172.610123 374.304703 
L 1175.281806 359.990691 
L 1177.953488 370.517531 
L 1180.625171 377.171398 
L 1183.296854 383.346317 
L 1185.968536 371.200868 
L 1188.640219 354.571923 
L 1191.311902 335.165339 
L 1193.983584 354.042585 
L 1196.655267 349.461068 
L 1199.326949 344.629752 
L 1201.998632 354.984366 
L 1204.670315 352.434657 
L 1207.341997 356.865517 
L 1210.01368 339.760125 
L 1212.685363 364.422263 
L 1215.357045 338.402553 
L 1218.028728 350.091588 
L 1220.70041 358.788686 
L 1223.372093 357.622893 
L 1226.043776 368.504141 
L 1228.715458 352.400741 
L 1231.387141 367.123123 
L 1234.058824 363.702624 
L 1236.730506 358.92859 
L 1239.402189 369.096803 
L 1242.073871 359.685349 
L 1244.745554 347.847346 
L 1247.417237 378.013879 
L 1250.088919 374.820576 
L 1252.760602 350.843213 
L 1258.103967 360.946232 
L 1260.77565 365.665379 
L 1263.447332 351.162278 
L 1266.119015 372.091117 
L 1268.790698 365.317964 
L 1271.46238 353.596269 
L 1274.134063 370.295632 
L 1276.805746 376.219577 
L 1279.477428 361.591651 
L 1282.149111 361.278441 
L 1284.820793 372.425812 
L 1287.492476 361.307884 
L 1290.164159 347.868344 
L 1292.835841 362.149093 
L 1295.507524 358.847311 
L 1298.179207 342.67426 
L 1300.850889 363.062769 
L 1303.522572 350.493516 
L 1306.194254 366.58053 
L 1308.865937 364.406051 
L 1311.53762 372.17068 
L 1314.209302 383.716607 
L 1316.880985 403.813841 
L 1319.552668 368.738109 
L 1324.896033 355.560284 
L 1327.567715 354.700184 
L 1330.239398 349.967475 
L 1332.911081 367.482827 
L 1335.582763 357.014609 
L 1338.254446 363.929102 
L 1340.926129 361.045183 
L 1343.597811 372.130632 
L 1346.269494 373.965798 
L 1348.941176 373.919161 
L 1351.612859 350.71131 
L 1354.284542 356.337283 
L 1356.956224 357.368735 
L 1359.627907 352.075221 
L 1362.29959 352.818577 
L 1364.971272 343.674635 
L 1367.642955 355.188124 
L 1370.314637 341.581543 
L 1372.98632 356.840774 
L 1375.658003 351.364823 
L 1378.329685 360.332742 
L 1381.001368 347.749237 
L 1383.673051 362.075502 
L 1386.344733 365.576618 
L 1389.016416 368.035975 
L 1391.688098 368.336457 
L 1394.359781 355.29378 
L 1397.031464 351.953678 
L 1399.703146 370.126743 
L 1402.374829 365.401069 
L 1405.046512 366.912875 
L 1407.718194 370.297038 
L 1410.389877 363.991097 
L 1413.06156 363.080495 
L 1415.733242 345.550999 
L 1418.404925 365.703493 
L 1421.076607 366.330638 
L 1423.74829 347.941083 
L 1426.419973 372.028398 
L 1429.091655 352.097931 
L 1431.763338 319.906241 
L 1434.435021 370.717643 
L 1437.106703 362.663334 
L 1439.778386 385.251112 
L 1442.450068 361.262818 
L 1445.121751 364.876936 
L 1447.793434 362.630318 
L 1450.465116 367.861963 
L 1453.136799 364.35575 
L 1455.808482 357.720837 
L 1458.480164 356.784228 
L 1461.151847 357.563437 
L 1463.823529 363.578655 
L 1466.495212 380.714512 
L 1469.166895 368.663581 
L 1471.838577 352.099609 
L 1474.51026 350.530136 
L 1477.181943 366.747463 
L 1479.853625 366.097976 
L 1482.525308 391.443747 
L 1485.19699 365.015748 
L 1487.868673 352.719868 
L 1490.540356 372.34782 
L 1493.212038 353.658987 
L 1495.883721 342.850586 
L 1498.555404 356.025318 
L 1501.227086 357.123553 
L 1503.898769 358.904719 
L 1506.570451 357.122407 
L 1509.242134 358.341595 
L 1511.913817 351.511051 
L 1514.585499 359.356787 
L 1517.257182 350.602107 
L 1519.928865 356.827753 
L 1522.600547 350.722694 
L 1525.27223 362.474749 
L 1527.943912 365.913868 
L 1530.615595 353.528732 
L 1533.287278 361.643695 
L 1535.95896 346.89572 
L 1538.630643 347.581971 
L 1541.302326 372.075077 
L 1543.974008 367.720821 
L 1546.645691 358.779937 
L 1549.317373 367.378645 
L 1551.989056 365.091028 
L 1554.660739 365.908556 
L 1557.332421 367.790879 
L 1560.004104 366.863581 
L 1562.675787 363.294312 
L 1565.347469 366.553698 
L 1568.019152 367.424519 
L 1570.690834 357.097888 
L 1573.362517 356.767021 
L 1576.0342 371.579203 
L 1578.705882 374.977576 
L 1581.377565 374.695675 
L 1584.049248 371.861616 
L 1586.72093 362.768871 
L 1589.392613 373.516036 
L 1592.064295 339.206371 
L 1594.735978 364.281007 
L 1597.407661 372.685122 
L 1600.079343 373.436818 
L 1602.751026 347.492816 
L 1605.422709 359.027526 
L 1608.094391 358.793388 
L 1610.766074 365.652271 
L 1613.437756 374.595515 
L 1616.109439 353.808529 
L 1618.781122 345.915375 
L 1621.452804 342.061666 
L 1624.124487 350.064051 
L 1626.79617 367.856861 
L 1629.467852 370.489903 
L 1632.139535 363.553303 
L 1634.811218 368.318749 
L 1637.4829 375.425281 
L 1640.154583 358.203281 
L 1642.826265 380.599525 
L 1645.497948 372.557828 
L 1648.169631 369.58183 
L 1650.841313 359.273066 
L 1653.512996 370.50129 
L 1656.184679 356.230761 
L 1658.856361 362.032553 
L 1661.528044 358.247811 
L 1664.199726 351.817645 
L 1666.871409 373.045361 
L 1669.543092 355.677545 
L 1672.214774 354.695891 
L 1674.886457 334.204733 
L 1677.55814 359.220602 
L 1680.229822 350.456506 
L 1682.901505 374.297318 
L 1685.573187 374.209366 
L 1688.24487 355.812241 
L 1690.916553 349.14917 
L 1693.588235 374.004409 
L 1696.259918 371.847807 
L 1698.931601 346.541689 
L 1701.603283 362.84541 
L 1704.274966 367.620412 
L 1706.946648 364.144279 
L 1709.618331 380.976283 
L 1712.290014 351.542616 
L 1714.961696 360.274706 
L 1717.633379 361.147703 
L 1720.305062 337.811484 
L 1722.976744 359.573328 
L 1725.648427 363.125479 
L 1728.320109 366.288703 
L 1730.991792 368.284515 
L 1733.663475 362.537698 
L 1736.335157 349.01885 
L 1739.00684 358.415957 
L 1741.678523 374.467254 
L 1744.350205 357.976082 
L 1747.021888 369.847057 
L 1749.69357 360.686208 
L 1752.365253 381.999255 
L 1755.036936 352.944948 
L 1757.708618 359.032297 
L 1760.380301 359.769733 
L 1763.051984 371.650136 
L 1765.723666 372.616783 
L 1768.395349 358.687691 
L 1771.067031 382.476617 
L 1773.738714 351.309092 
L 1776.410397 372.69454 
L 1779.082079 348.580523 
L 1781.753762 360.830889 
L 1784.425445 355.668465 
L 1787.097127 372.389494 
L 1789.76881 361.446057 
L 1792.440492 371.636777 
L 1795.112175 373.264079 
L 1797.783858 332.394468 
L 1800.45554 341.232171 
L 1803.127223 362.033966 
L 1805.798906 354.891949 
L 1808.470588 351.3304 
L 1811.142271 344.188478 
L 1813.813953 373.285328 
L 1816.485636 371.612882 
L 1819.157319 365.37117 
L 1821.829001 359.923125 
L 1824.500684 339.861773 
L 1827.172367 343.423469 
L 1829.844049 352.693376 
L 1832.515732 364.559215 
L 1835.187415 363.217594 
L 1837.859097 362.686785 
L 1840.53078 366.720677 
L 1843.202462 348.421432 
L 1845.874145 354.852948 
L 1848.545828 367.827566 
L 1851.21751 366.513676 
L 1853.889193 349.147225 
L 1856.560876 345.34694 
L 1859.232558 361.462592 
L 1861.904241 366.106607 
L 1864.575923 341.081207 
L 1867.247606 350.233678 
L 1869.919289 356.758138 
L 1872.590971 351.421032 
L 1875.262654 363.01888 
L 1877.934337 357.378604 
L 1880.606019 353.984268 
L 1883.277702 361.49775 
L 1885.949384 366.55145 
L 1888.621067 367.610259 
L 1891.29275 380.439622 
L 1893.964432 362.996089 
L 1896.636115 373.970372 
L 1899.307798 347.456174 
L 1901.97948 355.919601 
L 1907.322845 362.251959 
L 1909.994528 369.767172 
L 1912.666211 357.55684 
L 1915.337893 351.663045 
L 1918.009576 354.116511 
L 1920.681259 353.44257 
L 1923.352941 359.429937 
L 1926.024624 360.844308 
L 1928.696306 352.246617 
L 1931.367989 363.857233 
L 1934.039672 359.187136 
L 1936.711354 374.067115 
L 1939.383037 373.005856 
L 1942.05472 354.867377 
L 1944.726402 361.214657 
L 1947.398085 369.753774 
L 1950.069767 366.21542 
L 1952.74145 373.143195 
L 1955.413133 368.632044 
L 1958.084815 352.188633 
L 1960.756498 355.572808 
L 1963.428181 358.642186 
L 1966.099863 345.696054 
L 1968.771546 375.558124 
L 1971.443228 365.585601 
L 1974.114911 339.307501 
L 1976.786594 372.977342 
L 1979.458276 353.336095 
L 1982.129959 357.328962 
L 1984.801642 342.227182 
L 1987.473324 349.393516 
L 1990.145007 346.368658 
L 1992.816689 359.525878 
L 1995.488372 364.146744 
L 1998.160055 347.996176 
L 2000.831737 351.762476 
L 2003.50342 363.673418 
L 2006.175103 354.276081 
L 2008.846785 370.274224 
L 2011.518468 355.834446 
L 2014.19015 367.964606 
L 2016.861833 361.093871 
L 2019.533516 366.227042 
L 2022.205198 367.588152 
L 2024.876881 368.116787 
L 2027.548564 389.888237 
L 2030.220246 363.017994 
L 2032.891929 366.320097 
L 2035.563611 355.369984 
L 2038.235294 347.636145 
L 2040.906977 349.156884 
L 2043.578659 357.838966 
L 2046.250342 361.149014 
L 2048.922025 357.82329 
L 2051.593707 353.416239 
L 2054.26539 366.388205 
L 2056.937073 369.90169 
L 2059.608755 351.524013 
L 2062.280438 356.57468 
L 2064.95212 366.390295 
L 2067.623803 375.398049 
L 2070.295486 354.863838 
L 2072.967168 369.598487 
L 2075.638851 374.257021 
L 2078.310534 372.801963 
L 2080.982216 360.50378 
L 2083.653899 360.959711 
L 2086.325581 368.936125 
L 2088.997264 358.044571 
L 2091.668947 352.34469 
L 2094.340629 349.188394 
L 2097.012312 361.934791 
L 2099.683995 356.977565 
L 2102.355677 388.032629 
L 2105.02736 352.866594 
L 2107.699042 368.809725 
L 2110.370725 357.137288 
L 2113.042408 363.756935 
L 2115.71409 362.159984 
L 2118.385773 346.630249 
L 2121.057456 349.382044 
L 2123.729138 383.376128 
L 2126.400821 356.45661 
L 2129.072503 364.262965 
L 2131.744186 381.316037 
L 2134.415869 373.536888 
L 2137.087551 384.888883 
L 2139.759234 370.453884 
L 2142.430917 353.505034 
L 2145.102599 376.83179 
L 2147.774282 361.303518 
L 2150.445964 355.894337 
L 2153.117647 347.579918 
L 2155.78933 347.312973 
L 2158.461012 371.736614 
L 2161.132695 366.310672 
L 2163.804378 364.334016 
L 2166.47606 372.937646 
L 2169.147743 348.056585 
L 2171.819425 348.778703 
L 2174.491108 349.930942 
L 2177.162791 362.832228 
L 2179.834473 356.283093 
L 2182.506156 381.708575 
L 2185.177839 376.303771 
L 2187.849521 368.118259 
L 2190.521204 334.639861 
L 2193.192886 356.887649 
L 2195.864569 359.443709 
L 2198.536252 346.637664 
L 2201.207934 354.508539 
L 2203.879617 354.771262 
L 2206.5513 355.752032 
L 2209.222982 376.61039 
L 2211.894665 370.895673 
L 2214.566347 336.333462 
L 2217.23803 347.311931 
L 2219.909713 362.840219 
L 2222.581395 394.127591 
L 2225.253078 373.419451 
L 2227.924761 365.211683 
L 2230.596443 366.747626 
L 2233.268126 350.581413 
L 2235.939808 341.889236 
L 2238.611491 349.045563 
L 2241.283174 350.502341 
L 2246.626539 378.750747 
L 2249.298222 358.970542 
L 2251.969904 359.184223 
L 2254.641587 365.649638 
L 2257.313269 377.449867 
L 2259.984952 372.101262 
L 2262.656635 352.526501 
L 2265.328317 364.311648 
L 2268 373.57853 
L 2270.671683 366.324657 
L 2270.671683 366.324657 
" clip-path="url(#p2b5d4a2939)" style="fill: none; stroke: #ff0000; stroke-width: 1.8; stroke-linecap: square"/>
   </g>
   <g id="patch_3">
    <path d="M 315 640.8 
L 315 86.4 
" style="fill: none; stroke: #000000; stroke-width: 0.8; stroke-linejoin: miter; stroke-linecap: square"/>
   </g>
   <g id="patch_4">
    <path d="M 2268 640.8 
L 2268 86.4 
" style="fill: none; stroke: #000000; stroke-width: 0.8; stroke-linejoin: miter; stroke-linecap: square"/>
   </g>
   <g id="patch_5">
    <path d="M 315 640.8 
L 2268 640.8 
" style="fill: none; stroke: #000000; stroke-width: 0.8; stroke-linejoin: miter; stroke-linecap: square"/>
   </g>
   <g id="patch_6">
    <path d="M 315 86.4 
L 2268 86.4 
" style="fill: none; stroke: #000000; stroke-width: 0.8; stroke-linejoin: miter; stroke-linecap: square"/>
   </g>
   <g id="text_16">
    <!-- Model ARIMA - MPRA (east) -->
    <g transform="translate(1155.684375 80.4) scale(0.2 -0.2)">
     <defs>
      <path id="DejaVuSans-4d" d="M 628 4666 
L 1569 4666 
L 2759 1491 
L 3956 4666 
L 4897 4666 
L 4897 0 
L 4281 0 
L 4281 4097 
L 3078 897 
L 2444 897 
L 1241 4097 
L 1241 0 
L 628 0 
L 628 4666 
z
" transform="scale(0.015625)"/>
      <path id="DejaVuSans-6f" d="M 1959 3097 
Q 1497 3097 1228 2736 
Q 959 2375 959 1747 
Q 959 1119 1226 758 
Q 1494 397 1959 397 
Q 2419 397 2687 759 
Q 2956 1122 2956 1747 
Q 2956 2369 2687 2733 
Q 2419 3097 1959 3097 
z
M 1959 3584 
Q 2709 3584 3137 3096 
Q 3566 2609 3566 1747 
Q 3566 888 3137 398 
Q 2709 -91 1959 -91 
Q 1206 -91 779 398 
Q 353 888 353 1747 
Q 353 2609 779 3096 
Q 1206 3584 1959 3584 
z
" transform="scale(0.015625)"/>
      <path id="DejaVuSans-64" d="M 2906 2969 
L 2906 4863 
L 3481 4863 
L 3481 0 
L 2906 0 
L 2906 525 
Q 2725 213 2448 61 
Q 2172 -91 1784 -91 
Q 1150 -91 751 415 
Q 353 922 353 1747 
Q 353 2572 751 3078 
Q 1150 3584 1784 3584 
Q 2172 3584 2448 3432 
Q 2725 3281 2906 2969 
z
M 947 1747 
Q 947 1113 1208 752 
Q 1469 391 1925 391 
Q 2381 391 2643 752 
Q 2906 1113 2906 1747 
Q 2906 2381 2643 2742 
Q 2381 3103 1925 3103 
Q 1469 3103 1208 2742 
Q 947 2381 947 1747 
z
" transform="scale(0.015625)"/>
      <path id="DejaVuSans-6c" d="M 603 4863 
L 1178 4863 
L 1178 0 
L 603 0 
L 603 4863 
z
" transform="scale(0.015625)"/>
      <path id="DejaVuSans-20" transform="scale(0.015625)"/>
      <path id="DejaVuSans-41" d="M 2188 4044 
L 1331 1722 
L 3047 1722 
L 2188 4044 
z
M 1831 4666 
L 2547 4666 
L 4325 0 
L 3669 0 
L 3244 1197 
L 1141 1197 
L 716 0 
L 50 0 
L 1831 4666 
z
" transform="scale(0.015625)"/>
      <path id="DejaVuSans-52" d="M 2841 2188 
Q 3044 2119 3236 1894 
Q 3428 1669 3622 1275 
L 4263 0 
L 3584 0 
L 2988 1197 
Q 2756 1666 2539 1819 
Q 2322 1972 1947 1972 
L 1259 1972 
L 1259 0 
L 628 0 
L 628 4666 
L 2053 4666 
Q 2853 4666 3247 4331 
Q 3641 3997 3641 3322 
Q 3641 2881 3436 2590 
Q 3231 2300 2841 2188 
z
M 1259 4147 
L 1259 2491 
L 2053 2491 
Q 2509 2491 2742 2702 
Q 2975 2913 2975 3322 
Q 2975 3731 2742 3939 
Q 2509 4147 2053 4147 
L 1259 4147 
z
" transform="scale(0.015625)"/>
      <path id="DejaVuSans-49" d="M 628 4666 
L 1259 4666 
L 1259 0 
L 628 0 
L 628 4666 
z
" transform="scale(0.015625)"/>
      <path id="DejaVuSans-50" d="M 1259 4147 
L 1259 2394 
L 2053 2394 
Q 2494 2394 2734 2622 
Q 2975 2850 2975 3272 
Q 2975 3691 2734 3919 
Q 2494 4147 2053 4147 
L 1259 4147 
z
M 628 4666 
L 2053 4666 
Q 2838 4666 3239 4311 
Q 3641 3956 3641 3272 
Q 3641 2581 3239 2228 
Q 2838 1875 2053 1875 
L 1259 1875 
L 1259 0 
L 628 0 
L 628 4666 
z
" transform="scale(0.015625)"/>
     </defs>
     <use xlink:href="#DejaVuSans-4d"/>
     <use xlink:href="#DejaVuSans-6f" x="86.279297"/>
     <use xlink:href="#DejaVuSans-64" x="147.460938"/>
     <use xlink:href="#DejaVuSans-65" x="210.9375"/>
     <use xlink:href="#DejaVuSans-6c" x="272.460938"/>
     <use xlink:href="#DejaVuSans-20" x="300.244141"/>
     <use xlink:href="#DejaVuSans-41" x="332.03125"/>
     <use xlink:href="#DejaVuSans-52" x="400.439453"/>
     <use xlink:href="#DejaVuSans-49" x="469.921875"/>
     <use xlink:href="#DejaVuSans-4d" x="499.414062"/>
     <use xlink:href="#DejaVuSans-41" x="585.693359"/>
     <use xlink:href="#DejaVuSans-20" x="654.101562"/>
     <use xlink:href="#DejaVuSans-2d" x="685.888672"/>
     <use xlink:href="#DejaVuSans-20" x="721.972656"/>
     <use xlink:href="#DejaVuSans-4d" x="753.759766"/>
     <use xlink:href="#DejaVuSans-50" x="840.039062"/>
     <use xlink:href="#DejaVuSans-52" x="900.341797"/>
     <use xlink:href="#DejaVuSans-41" x="965.824219"/>
     <use xlink:href="#DejaVuSans-20" x="1034.232422"/>
     <use xlink:href="#DejaVuSans-28" x="1066.019531"/>
     <use xlink:href="#DejaVuSans-65" x="1105.033203"/>
     <use xlink:href="#DejaVuSans-61" x="1166.556641"/>
     <use xlink:href="#DejaVuSans-73" x="1227.835938"/>
     <use xlink:href="#DejaVuSans-74" x="1279.935547"/>
     <use xlink:href="#DejaVuSans-29" x="1319.144531"/>
    </g>
   </g>
   <g id="legend_1">
    <g id="patch_7">
     <path d="M 2128.292188 123.75625 
L 2261 123.75625 
Q 2263 123.75625 2263 121.75625 
L 2263 93.4 
Q 2263 91.4 2261 91.4 
L 2128.292188 91.4 
Q 2126.292188 91.4 2126.292188 93.4 
L 2126.292188 121.75625 
Q 2126.292188 123.75625 2128.292188 123.75625 
z
" style="fill: #ffffff; opacity: 0.8; stroke: #cccccc; stroke-linejoin: miter"/>
    </g>
    <g id="line2d_16">
     <path d="M 2130.292188 99.498437 
L 2140.292188 99.498437 
L 2150.292188 99.498437 
" style="fill: none; stroke: #008000; stroke-linecap: square"/>
    </g>
    <g id="text_17">
     <!-- Original Time Series -->
     <g transform="translate(2158.292188 102.998437) scale(0.1 -0.1)">
      <defs>
       <path id="DejaVuSans-4f" d="M 2522 4238 
Q 1834 4238 1429 3725 
Q 1025 3213 1025 2328 
Q 1025 1447 1429 934 
Q 1834 422 2522 422 
Q 3209 422 3611 934 
Q 4013 1447 4013 2328 
Q 4013 3213 3611 3725 
Q 3209 4238 2522 4238 
z
M 2522 4750 
Q 3503 4750 4090 4092 
Q 4678 3434 4678 2328 
Q 4678 1225 4090 567 
Q 3503 -91 2522 -91 
Q 1538 -91 948 565 
Q 359 1222 359 2328 
Q 359 3434 948 4092 
Q 1538 4750 2522 4750 
z
" transform="scale(0.015625)"/>
       <path id="DejaVuSans-72" d="M 2631 2963 
Q 2534 3019 2420 3045 
Q 2306 3072 2169 3072 
Q 1681 3072 1420 2755 
Q 1159 2438 1159 1844 
L 1159 0 
L 581 0 
L 581 3500 
L 1159 3500 
L 1159 2956 
Q 1341 3275 1631 3429 
Q 1922 3584 2338 3584 
Q 2397 3584 2469 3576 
Q 2541 3569 2628 3553 
L 2631 2963 
z
" transform="scale(0.015625)"/>
       <path id="DejaVuSans-67" d="M 2906 1791 
Q 2906 2416 2648 2759 
Q 2391 3103 1925 3103 
Q 1463 3103 1205 2759 
Q 947 2416 947 1791 
Q 947 1169 1205 825 
Q 1463 481 1925 481 
Q 2391 481 2648 825 
Q 2906 1169 2906 1791 
z
M 3481 434 
Q 3481 -459 3084 -895 
Q 2688 -1331 1869 -1331 
Q 1566 -1331 1297 -1286 
Q 1028 -1241 775 -1147 
L 775 -588 
Q 1028 -725 1275 -790 
Q 1522 -856 1778 -856 
Q 2344 -856 2625 -561 
Q 2906 -266 2906 331 
L 2906 616 
Q 2728 306 2450 153 
Q 2172 0 1784 0 
Q 1141 0 747 490 
Q 353 981 353 1791 
Q 353 2603 747 3093 
Q 1141 3584 1784 3584 
Q 2172 3584 2450 3431 
Q 2728 3278 2906 2969 
L 2906 3500 
L 3481 3500 
L 3481 434 
z
" transform="scale(0.015625)"/>
       <path id="DejaVuSans-6e" d="M 3513 2113 
L 3513 0 
L 2938 0 
L 2938 2094 
Q 2938 2591 2744 2837 
Q 2550 3084 2163 3084 
Q 1697 3084 1428 2787 
Q 1159 2491 1159 1978 
L 1159 0 
L 581 0 
L 581 3500 
L 1159 3500 
L 1159 2956 
Q 1366 3272 1645 3428 
Q 1925 3584 2291 3584 
Q 2894 3584 3203 3211 
Q 3513 2838 3513 2113 
z
" transform="scale(0.015625)"/>
       <path id="DejaVuSans-53" d="M 3425 4513 
L 3425 3897 
Q 3066 4069 2747 4153 
Q 2428 4238 2131 4238 
Q 1616 4238 1336 4038 
Q 1056 3838 1056 3469 
Q 1056 3159 1242 3001 
Q 1428 2844 1947 2747 
L 2328 2669 
Q 3034 2534 3370 2195 
Q 3706 1856 3706 1288 
Q 3706 609 3251 259 
Q 2797 -91 1919 -91 
Q 1588 -91 1214 -16 
Q 841 59 441 206 
L 441 856 
Q 825 641 1194 531 
Q 1563 422 1919 422 
Q 2459 422 2753 634 
Q 3047 847 3047 1241 
Q 3047 1584 2836 1778 
Q 2625 1972 2144 2069 
L 1759 2144 
Q 1053 2284 737 2584 
Q 422 2884 422 3419 
Q 422 4038 858 4394 
Q 1294 4750 2059 4750 
Q 2388 4750 2728 4690 
Q 3069 4631 3425 4513 
z
" transform="scale(0.015625)"/>
      </defs>
      <use xlink:href="#DejaVuSans-4f"/>
      <use xlink:href="#DejaVuSans-72" x="78.710938"/>
      <use xlink:href="#DejaVuSans-69" x="119.824219"/>
      <use xlink:href="#DejaVuSans-67" x="147.607422"/>
      <use xlink:href="#DejaVuSans-69" x="211.083984"/>
      <use xlink:href="#DejaVuSans-6e" x="238.867188"/>
      <use xlink:href="#DejaVuSans-61" x="302.246094"/>
      <use xlink:href="#DejaVuSans-6c" x="363.525391"/>
      <use xlink:href="#DejaVuSans-20" x="391.308594"/>
      <use xlink:href="#DejaVuSans-54" x="423.095703"/>
      <use xlink:href="#DejaVuSans-69" x="481.054688"/>
      <use xlink:href="#DejaVuSans-6d" x="508.837891"/>
      <use xlink:href="#DejaVuSans-65" x="606.25"/>
      <use xlink:href="#DejaVuSans-20" x="667.773438"/>
      <use xlink:href="#DejaVuSans-53" x="699.560547"/>
      <use xlink:href="#DejaVuSans-65" x="763.037109"/>
      <use xlink:href="#DejaVuSans-72" x="824.560547"/>
      <use xlink:href="#DejaVuSans-69" x="865.673828"/>
      <use xlink:href="#DejaVuSans-65" x="893.457031"/>
      <use xlink:href="#DejaVuSans-73" x="954.980469"/>
     </g>
    </g>
    <g id="line2d_17">
     <path d="M 2130.292188 114.176562 
L 2140.292188 114.176562 
L 2150.292188 114.176562 
" style="fill: none; stroke: #ff0000; stroke-width: 1.8; stroke-linecap: square"/>
    </g>
    <g id="text_18">
     <!-- Fitted Values -->
     <g transform="translate(2158.292188 117.676562) scale(0.1 -0.1)">
      <defs>
       <path id="DejaVuSans-46" d="M 628 4666 
L 3309 4666 
L 3309 4134 
L 1259 4134 
L 1259 2759 
L 3109 2759 
L 3109 2228 
L 1259 2228 
L 1259 0 
L 628 0 
L 628 4666 
z
" transform="scale(0.015625)"/>
       <path id="DejaVuSans-56" d="M 1831 0 
L 50 4666 
L 709 4666 
L 2188 738 
L 3669 4666 
L 4325 4666 
L 2547 0 
L 1831 0 
z
" transform="scale(0.015625)"/>
       <path id="DejaVuSans-75" d="M 544 1381 
L 544 3500 
L 1119 3500 
L 1119 1403 
Q 1119 906 1312 657 
Q 1506 409 1894 409 
Q 2359 409 2629 706 
Q 2900 1003 2900 1516 
L 2900 3500 
L 3475 3500 
L 3475 0 
L 2900 0 
L 2900 538 
Q 2691 219 2414 64 
Q 2138 -91 1772 -91 
Q 1169 -91 856 284 
Q 544 659 544 1381 
z
M 1991 3584 
L 1991 3584 
z
" transform="scale(0.015625)"/>
      </defs>
      <use xlink:href="#DejaVuSans-46"/>
      <use xlink:href="#DejaVuSans-69" x="50.269531"/>
      <use xlink:href="#DejaVuSans-74" x="78.052734"/>
      <use xlink:href="#DejaVuSans-74" x="117.261719"/>
      <use xlink:href="#DejaVuSans-65" x="156.470703"/>
      <use xlink:href="#DejaVuSans-64" x="217.994141"/>
      <use xlink:href="#DejaVuSans-20" x="281.470703"/>
      <use xlink:href="#DejaVuSans-56" x="313.257812"/>
      <use xlink:href="#DejaVuSans-61" x="373.916016"/>
      <use xlink:href="#DejaVuSans-6c" x="435.195312"/>
      <use xlink:href="#DejaVuSans-75" x="462.978516"/>
      <use xlink:href="#DejaVuSans-65" x="526.357422"/>
      <use xlink:href="#DejaVuSans-73" x="587.880859"/>
     </g>
    </g>
   </g>
  </g>
 </g>
 <defs>
  <clipPath id="p2b5d4a2939">
   <rect x="315" y="86.4" width="1953" height="554.4"/>
  </clipPath>
 </defs>
</svg>
