<?xml version="1.0" encoding="utf-8" standalone="no"?>
<!DOCTYPE svg PUBLIC "-//W3C//DTD SVG 1.1//EN"
  "http://www.w3.org/Graphics/SVG/1.1/DTD/svg11.dtd">
<svg xmlns:xlink="http://www.w3.org/1999/xlink" width="2520pt" height="720pt" viewBox="0 0 2520 720" xmlns="http://www.w3.org/2000/svg" version="1.1">
 <metadata>
  <rdf:RDF xmlns:dc="http://purl.org/dc/elements/1.1/" xmlns:cc="http://creativecommons.org/ns#" xmlns:rdf="http://www.w3.org/1999/02/22-rdf-syntax-ns#">
   <cc:Work>
    <dc:type rdf:resource="http://purl.org/dc/dcmitype/StillImage"/>
    <dc:date>2024-02-08T14:59:49.503139</dc:date>
    <dc:format>image/svg+xml</dc:format>
    <dc:creator>
     <cc:Agent>
      <dc:title>Matplotlib v3.7.1, https://matplotlib.org/</dc:title>
     </cc:Agent>
    </dc:creator>
   </cc:Work>
  </rdf:RDF>
 </metadata>
 <defs>
  <style type="text/css">*{stroke-linejoin: round; stroke-linecap: butt}</style>
 </defs>
 <g id="figure_1">
  <g id="patch_1">
   <path d="M 0 720 
L 2520 720 
L 2520 0 
L 0 0 
z
" style="fill: #ffffff"/>
  </g>
  <g id="axes_1">
   <g id="patch_2">
    <path d="M 315 640.8 
L 2268 640.8 
L 2268 86.4 
L 315 86.4 
z
" style="fill: #ffffff"/>
   </g>
   <g id="matplotlib.axis_1">
    <g id="xtick_1">
     <g id="line2d_1">
      <defs>
       <path id="m216ae48909" d="M 0 0 
L 0 3.5 
" style="stroke: #000000; stroke-width: 0.8"/>
      </defs>
      <g>
       <use xlink:href="#m216ae48909" x="520.719562" y="640.8" style="stroke: #000000; stroke-width: 0.8"/>
      </g>
     </g>
     <g id="text_1">
      <!-- 2012-04 -->
      <g transform="translate(489.382453 659.197656) scale(0.15 -0.15)">
       <defs>
        <path id="DejaVuSans-32" d="M 1228 531 
L 3431 531 
L 3431 0 
L 469 0 
L 469 531 
Q 828 903 1448 1529 
Q 2069 2156 2228 2338 
Q 2531 2678 2651 2914 
Q 2772 3150 2772 3378 
Q 2772 3750 2511 3984 
Q 2250 4219 1831 4219 
Q 1534 4219 1204 4116 
Q 875 4013 500 3803 
L 500 4441 
Q 881 4594 1212 4672 
Q 1544 4750 1819 4750 
Q 2544 4750 2975 4387 
Q 3406 4025 3406 3419 
Q 3406 3131 3298 2873 
Q 3191 2616 2906 2266 
Q 2828 2175 2409 1742 
Q 1991 1309 1228 531 
z
" transform="scale(0.015625)"/>
        <path id="DejaVuSans-30" d="M 2034 4250 
Q 1547 4250 1301 3770 
Q 1056 3291 1056 2328 
Q 1056 1369 1301 889 
Q 1547 409 2034 409 
Q 2525 409 2770 889 
Q 3016 1369 3016 2328 
Q 3016 3291 2770 3770 
Q 2525 4250 2034 4250 
z
M 2034 4750 
Q 2819 4750 3233 4129 
Q 3647 3509 3647 2328 
Q 3647 1150 3233 529 
Q 2819 -91 2034 -91 
Q 1250 -91 836 529 
Q 422 1150 422 2328 
Q 422 3509 836 4129 
Q 1250 4750 2034 4750 
z
" transform="scale(0.015625)"/>
        <path id="DejaVuSans-31" d="M 794 531 
L 1825 531 
L 1825 4091 
L 703 3866 
L 703 4441 
L 1819 4666 
L 2450 4666 
L 2450 531 
L 3481 531 
L 3481 0 
L 794 0 
L 794 531 
z
" transform="scale(0.015625)"/>
        <path id="DejaVuSans-2d" d="M 313 2009 
L 1997 2009 
L 1997 1497 
L 313 1497 
L 313 2009 
z
" transform="scale(0.015625)"/>
        <path id="DejaVuSans-34" d="M 2419 4116 
L 825 1625 
L 2419 1625 
L 2419 4116 
z
M 2253 4666 
L 3047 4666 
L 3047 1625 
L 3713 1625 
L 3713 1100 
L 3047 1100 
L 3047 0 
L 2419 0 
L 2419 1100 
L 313 1100 
L 313 1709 
L 2253 4666 
z
" transform="scale(0.015625)"/>
       </defs>
       <use xlink:href="#DejaVuSans-32"/>
       <use xlink:href="#DejaVuSans-30" x="63.623047"/>
       <use xlink:href="#DejaVuSans-31" x="127.246094"/>
       <use xlink:href="#DejaVuSans-32" x="190.869141"/>
       <use xlink:href="#DejaVuSans-2d" x="254.492188"/>
       <use xlink:href="#DejaVuSans-30" x="290.576172"/>
       <use xlink:href="#DejaVuSans-34" x="354.199219"/>
      </g>
     </g>
    </g>
    <g id="xtick_2">
     <g id="line2d_2">
      <g>
       <use xlink:href="#m216ae48909" x="763.842681" y="640.8" style="stroke: #000000; stroke-width: 0.8"/>
      </g>
     </g>
     <g id="text_2">
      <!-- 2012-07 -->
      <g transform="translate(732.505572 659.197656) scale(0.15 -0.15)">
       <defs>
        <path id="DejaVuSans-37" d="M 525 4666 
L 3525 4666 
L 3525 4397 
L 1831 0 
L 1172 0 
L 2766 4134 
L 525 4134 
L 525 4666 
z
" transform="scale(0.015625)"/>
       </defs>
       <use xlink:href="#DejaVuSans-32"/>
       <use xlink:href="#DejaVuSans-30" x="63.623047"/>
       <use xlink:href="#DejaVuSans-31" x="127.246094"/>
       <use xlink:href="#DejaVuSans-32" x="190.869141"/>
       <use xlink:href="#DejaVuSans-2d" x="254.492188"/>
       <use xlink:href="#DejaVuSans-30" x="290.576172"/>
       <use xlink:href="#DejaVuSans-37" x="354.199219"/>
      </g>
     </g>
    </g>
    <g id="xtick_3">
     <g id="line2d_3">
      <g>
       <use xlink:href="#m216ae48909" x="1009.637483" y="640.8" style="stroke: #000000; stroke-width: 0.8"/>
      </g>
     </g>
     <g id="text_3">
      <!-- 2012-10 -->
      <g transform="translate(978.300374 659.197656) scale(0.15 -0.15)">
       <use xlink:href="#DejaVuSans-32"/>
       <use xlink:href="#DejaVuSans-30" x="63.623047"/>
       <use xlink:href="#DejaVuSans-31" x="127.246094"/>
       <use xlink:href="#DejaVuSans-32" x="190.869141"/>
       <use xlink:href="#DejaVuSans-2d" x="254.492188"/>
       <use xlink:href="#DejaVuSans-31" x="290.576172"/>
       <use xlink:href="#DejaVuSans-30" x="354.199219"/>
      </g>
     </g>
    </g>
    <g id="xtick_4">
     <g id="line2d_4">
      <g>
       <use xlink:href="#m216ae48909" x="1255.432285" y="640.8" style="stroke: #000000; stroke-width: 0.8"/>
      </g>
     </g>
     <g id="text_4">
      <!-- 2013-01 -->
      <g transform="translate(1224.095175 659.197656) scale(0.15 -0.15)">
       <defs>
        <path id="DejaVuSans-33" d="M 2597 2516 
Q 3050 2419 3304 2112 
Q 3559 1806 3559 1356 
Q 3559 666 3084 287 
Q 2609 -91 1734 -91 
Q 1441 -91 1130 -33 
Q 819 25 488 141 
L 488 750 
Q 750 597 1062 519 
Q 1375 441 1716 441 
Q 2309 441 2620 675 
Q 2931 909 2931 1356 
Q 2931 1769 2642 2001 
Q 2353 2234 1838 2234 
L 1294 2234 
L 1294 2753 
L 1863 2753 
Q 2328 2753 2575 2939 
Q 2822 3125 2822 3475 
Q 2822 3834 2567 4026 
Q 2313 4219 1838 4219 
Q 1578 4219 1281 4162 
Q 984 4106 628 3988 
L 628 4550 
Q 988 4650 1302 4700 
Q 1616 4750 1894 4750 
Q 2613 4750 3031 4423 
Q 3450 4097 3450 3541 
Q 3450 3153 3228 2886 
Q 3006 2619 2597 2516 
z
" transform="scale(0.015625)"/>
       </defs>
       <use xlink:href="#DejaVuSans-32"/>
       <use xlink:href="#DejaVuSans-30" x="63.623047"/>
       <use xlink:href="#DejaVuSans-31" x="127.246094"/>
       <use xlink:href="#DejaVuSans-33" x="190.869141"/>
       <use xlink:href="#DejaVuSans-2d" x="254.492188"/>
       <use xlink:href="#DejaVuSans-30" x="290.576172"/>
       <use xlink:href="#DejaVuSans-31" x="354.199219"/>
      </g>
     </g>
    </g>
    <g id="xtick_5">
     <g id="line2d_5">
      <g>
       <use xlink:href="#m216ae48909" x="1495.883721" y="640.8" style="stroke: #000000; stroke-width: 0.8"/>
      </g>
     </g>
     <g id="text_5">
      <!-- 2013-04 -->
      <g transform="translate(1464.546612 659.197656) scale(0.15 -0.15)">
       <use xlink:href="#DejaVuSans-32"/>
       <use xlink:href="#DejaVuSans-30" x="63.623047"/>
       <use xlink:href="#DejaVuSans-31" x="127.246094"/>
       <use xlink:href="#DejaVuSans-33" x="190.869141"/>
       <use xlink:href="#DejaVuSans-2d" x="254.492188"/>
       <use xlink:href="#DejaVuSans-30" x="290.576172"/>
       <use xlink:href="#DejaVuSans-34" x="354.199219"/>
      </g>
     </g>
    </g>
    <g id="xtick_6">
     <g id="line2d_6">
      <g>
       <use xlink:href="#m216ae48909" x="1739.00684" y="640.8" style="stroke: #000000; stroke-width: 0.8"/>
      </g>
     </g>
     <g id="text_6">
      <!-- 2013-07 -->
      <g transform="translate(1707.669731 659.197656) scale(0.15 -0.15)">
       <use xlink:href="#DejaVuSans-32"/>
       <use xlink:href="#DejaVuSans-30" x="63.623047"/>
       <use xlink:href="#DejaVuSans-31" x="127.246094"/>
       <use xlink:href="#DejaVuSans-33" x="190.869141"/>
       <use xlink:href="#DejaVuSans-2d" x="254.492188"/>
       <use xlink:href="#DejaVuSans-30" x="290.576172"/>
       <use xlink:href="#DejaVuSans-37" x="354.199219"/>
      </g>
     </g>
    </g>
    <g id="xtick_7">
     <g id="line2d_7">
      <g>
       <use xlink:href="#m216ae48909" x="1984.801642" y="640.8" style="stroke: #000000; stroke-width: 0.8"/>
      </g>
     </g>
     <g id="text_7">
      <!-- 2013-10 -->
      <g transform="translate(1953.464532 659.197656) scale(0.15 -0.15)">
       <use xlink:href="#DejaVuSans-32"/>
       <use xlink:href="#DejaVuSans-30" x="63.623047"/>
       <use xlink:href="#DejaVuSans-31" x="127.246094"/>
       <use xlink:href="#DejaVuSans-33" x="190.869141"/>
       <use xlink:href="#DejaVuSans-2d" x="254.492188"/>
       <use xlink:href="#DejaVuSans-31" x="290.576172"/>
       <use xlink:href="#DejaVuSans-30" x="354.199219"/>
      </g>
     </g>
    </g>
    <g id="xtick_8">
     <g id="line2d_8">
      <g>
       <use xlink:href="#m216ae48909" x="2230.596443" y="640.8" style="stroke: #000000; stroke-width: 0.8"/>
      </g>
     </g>
     <g id="text_8">
      <!-- 2014-01 -->
      <g transform="translate(2199.259334 659.197656) scale(0.15 -0.15)">
       <use xlink:href="#DejaVuSans-32"/>
       <use xlink:href="#DejaVuSans-30" x="63.623047"/>
       <use xlink:href="#DejaVuSans-31" x="127.246094"/>
       <use xlink:href="#DejaVuSans-34" x="190.869141"/>
       <use xlink:href="#DejaVuSans-2d" x="254.492188"/>
       <use xlink:href="#DejaVuSans-30" x="290.576172"/>
       <use xlink:href="#DejaVuSans-31" x="354.199219"/>
      </g>
     </g>
    </g>
    <g id="text_9">
     <!-- Time -->
     <g transform="translate(1267.032813 681.514063) scale(0.2 -0.2)">
      <defs>
       <path id="DejaVuSans-54" d="M -19 4666 
L 3928 4666 
L 3928 4134 
L 2272 4134 
L 2272 0 
L 1638 0 
L 1638 4134 
L -19 4134 
L -19 4666 
z
" transform="scale(0.015625)"/>
       <path id="DejaVuSans-69" d="M 603 3500 
L 1178 3500 
L 1178 0 
L 603 0 
L 603 3500 
z
M 603 4863 
L 1178 4863 
L 1178 4134 
L 603 4134 
L 603 4863 
z
" transform="scale(0.015625)"/>
       <path id="DejaVuSans-6d" d="M 3328 2828 
Q 3544 3216 3844 3400 
Q 4144 3584 4550 3584 
Q 5097 3584 5394 3201 
Q 5691 2819 5691 2113 
L 5691 0 
L 5113 0 
L 5113 2094 
Q 5113 2597 4934 2840 
Q 4756 3084 4391 3084 
Q 3944 3084 3684 2787 
Q 3425 2491 3425 1978 
L 3425 0 
L 2847 0 
L 2847 2094 
Q 2847 2600 2669 2842 
Q 2491 3084 2119 3084 
Q 1678 3084 1418 2786 
Q 1159 2488 1159 1978 
L 1159 0 
L 581 0 
L 581 3500 
L 1159 3500 
L 1159 2956 
Q 1356 3278 1631 3431 
Q 1906 3584 2284 3584 
Q 2666 3584 2933 3390 
Q 3200 3197 3328 2828 
z
" transform="scale(0.015625)"/>
       <path id="DejaVuSans-65" d="M 3597 1894 
L 3597 1613 
L 953 1613 
Q 991 1019 1311 708 
Q 1631 397 2203 397 
Q 2534 397 2845 478 
Q 3156 559 3463 722 
L 3463 178 
Q 3153 47 2828 -22 
Q 2503 -91 2169 -91 
Q 1331 -91 842 396 
Q 353 884 353 1716 
Q 353 2575 817 3079 
Q 1281 3584 2069 3584 
Q 2775 3584 3186 3129 
Q 3597 2675 3597 1894 
z
M 3022 2063 
Q 3016 2534 2758 2815 
Q 2500 3097 2075 3097 
Q 1594 3097 1305 2825 
Q 1016 2553 972 2059 
L 3022 2063 
z
" transform="scale(0.015625)"/>
      </defs>
      <use xlink:href="#DejaVuSans-54"/>
      <use xlink:href="#DejaVuSans-69" x="57.958984"/>
      <use xlink:href="#DejaVuSans-6d" x="85.742188"/>
      <use xlink:href="#DejaVuSans-65" x="183.154297"/>
     </g>
    </g>
   </g>
   <g id="matplotlib.axis_2">
    <g id="ytick_1">
     <g id="line2d_9">
      <defs>
       <path id="mc637d4276c" d="M 0 0 
L -3.5 0 
" style="stroke: #000000; stroke-width: 0.8"/>
      </defs>
      <g>
       <use xlink:href="#mc637d4276c" x="315" y="585.36" style="stroke: #000000; stroke-width: 0.8"/>
      </g>
     </g>
     <g id="text_10">
      <!-- −0.002 -->
      <g transform="translate(252.488281 591.058828) scale(0.15 -0.15)">
       <defs>
        <path id="DejaVuSans-2212" d="M 678 2272 
L 4684 2272 
L 4684 1741 
L 678 1741 
L 678 2272 
z
" transform="scale(0.015625)"/>
        <path id="DejaVuSans-2e" d="M 684 794 
L 1344 794 
L 1344 0 
L 684 0 
L 684 794 
z
" transform="scale(0.015625)"/>
       </defs>
       <use xlink:href="#DejaVuSans-2212"/>
       <use xlink:href="#DejaVuSans-30" x="83.789062"/>
       <use xlink:href="#DejaVuSans-2e" x="147.412109"/>
       <use xlink:href="#DejaVuSans-30" x="179.199219"/>
       <use xlink:href="#DejaVuSans-30" x="242.822266"/>
       <use xlink:href="#DejaVuSans-32" x="306.445312"/>
      </g>
     </g>
    </g>
    <g id="ytick_2">
     <g id="line2d_10">
      <g>
       <use xlink:href="#mc637d4276c" x="315" y="474.48" style="stroke: #000000; stroke-width: 0.8"/>
      </g>
     </g>
     <g id="text_11">
      <!-- −0.001 -->
      <g transform="translate(252.488281 480.178828) scale(0.15 -0.15)">
       <use xlink:href="#DejaVuSans-2212"/>
       <use xlink:href="#DejaVuSans-30" x="83.789062"/>
       <use xlink:href="#DejaVuSans-2e" x="147.412109"/>
       <use xlink:href="#DejaVuSans-30" x="179.199219"/>
       <use xlink:href="#DejaVuSans-30" x="242.822266"/>
       <use xlink:href="#DejaVuSans-31" x="306.445312"/>
      </g>
     </g>
    </g>
    <g id="ytick_3">
     <g id="line2d_11">
      <g>
       <use xlink:href="#mc637d4276c" x="315" y="363.6" style="stroke: #000000; stroke-width: 0.8"/>
      </g>
     </g>
     <g id="text_12">
      <!-- 0.000 -->
      <g transform="translate(265.057813 369.298828) scale(0.15 -0.15)">
       <use xlink:href="#DejaVuSans-30"/>
       <use xlink:href="#DejaVuSans-2e" x="63.623047"/>
       <use xlink:href="#DejaVuSans-30" x="95.410156"/>
       <use xlink:href="#DejaVuSans-30" x="159.033203"/>
       <use xlink:href="#DejaVuSans-30" x="222.65625"/>
      </g>
     </g>
    </g>
    <g id="ytick_4">
     <g id="line2d_12">
      <g>
       <use xlink:href="#mc637d4276c" x="315" y="252.72" style="stroke: #000000; stroke-width: 0.8"/>
      </g>
     </g>
     <g id="text_13">
      <!-- 0.001 -->
      <g transform="translate(265.057813 258.418828) scale(0.15 -0.15)">
       <use xlink:href="#DejaVuSans-30"/>
       <use xlink:href="#DejaVuSans-2e" x="63.623047"/>
       <use xlink:href="#DejaVuSans-30" x="95.410156"/>
       <use xlink:href="#DejaVuSans-30" x="159.033203"/>
       <use xlink:href="#DejaVuSans-31" x="222.65625"/>
      </g>
     </g>
    </g>
    <g id="ytick_5">
     <g id="line2d_13">
      <g>
       <use xlink:href="#mc637d4276c" x="315" y="141.84" style="stroke: #000000; stroke-width: 0.8"/>
      </g>
     </g>
     <g id="text_14">
      <!-- 0.002 -->
      <g transform="translate(265.057813 147.538828) scale(0.15 -0.15)">
       <use xlink:href="#DejaVuSans-30"/>
       <use xlink:href="#DejaVuSans-2e" x="63.623047"/>
       <use xlink:href="#DejaVuSans-30" x="95.410156"/>
       <use xlink:href="#DejaVuSans-30" x="159.033203"/>
       <use xlink:href="#DejaVuSans-32" x="222.65625"/>
      </g>
     </g>
    </g>
    <g id="text_15">
     <!-- East(m) -->
     <g transform="translate(244.328906 402.720312) rotate(-90) scale(0.2 -0.2)">
      <defs>
       <path id="DejaVuSans-45" d="M 628 4666 
L 3578 4666 
L 3578 4134 
L 1259 4134 
L 1259 2753 
L 3481 2753 
L 3481 2222 
L 1259 2222 
L 1259 531 
L 3634 531 
L 3634 0 
L 628 0 
L 628 4666 
z
" transform="scale(0.015625)"/>
       <path id="DejaVuSans-61" d="M 2194 1759 
Q 1497 1759 1228 1600 
Q 959 1441 959 1056 
Q 959 750 1161 570 
Q 1363 391 1709 391 
Q 2188 391 2477 730 
Q 2766 1069 2766 1631 
L 2766 1759 
L 2194 1759 
z
M 3341 1997 
L 3341 0 
L 2766 0 
L 2766 531 
Q 2569 213 2275 61 
Q 1981 -91 1556 -91 
Q 1019 -91 701 211 
Q 384 513 384 1019 
Q 384 1609 779 1909 
Q 1175 2209 1959 2209 
L 2766 2209 
L 2766 2266 
Q 2766 2663 2505 2880 
Q 2244 3097 1772 3097 
Q 1472 3097 1187 3025 
Q 903 2953 641 2809 
L 641 3341 
Q 956 3463 1253 3523 
Q 1550 3584 1831 3584 
Q 2591 3584 2966 3190 
Q 3341 2797 3341 1997 
z
" transform="scale(0.015625)"/>
       <path id="DejaVuSans-73" d="M 2834 3397 
L 2834 2853 
Q 2591 2978 2328 3040 
Q 2066 3103 1784 3103 
Q 1356 3103 1142 2972 
Q 928 2841 928 2578 
Q 928 2378 1081 2264 
Q 1234 2150 1697 2047 
L 1894 2003 
Q 2506 1872 2764 1633 
Q 3022 1394 3022 966 
Q 3022 478 2636 193 
Q 2250 -91 1575 -91 
Q 1294 -91 989 -36 
Q 684 19 347 128 
L 347 722 
Q 666 556 975 473 
Q 1284 391 1588 391 
Q 1994 391 2212 530 
Q 2431 669 2431 922 
Q 2431 1156 2273 1281 
Q 2116 1406 1581 1522 
L 1381 1569 
Q 847 1681 609 1914 
Q 372 2147 372 2553 
Q 372 3047 722 3315 
Q 1072 3584 1716 3584 
Q 2034 3584 2315 3537 
Q 2597 3491 2834 3397 
z
" transform="scale(0.015625)"/>
       <path id="DejaVuSans-74" d="M 1172 4494 
L 1172 3500 
L 2356 3500 
L 2356 3053 
L 1172 3053 
L 1172 1153 
Q 1172 725 1289 603 
Q 1406 481 1766 481 
L 2356 481 
L 2356 0 
L 1766 0 
Q 1100 0 847 248 
Q 594 497 594 1153 
L 594 3053 
L 172 3053 
L 172 3500 
L 594 3500 
L 594 4494 
L 1172 4494 
z
" transform="scale(0.015625)"/>
       <path id="DejaVuSans-28" d="M 1984 4856 
Q 1566 4138 1362 3434 
Q 1159 2731 1159 2009 
Q 1159 1288 1364 580 
Q 1569 -128 1984 -844 
L 1484 -844 
Q 1016 -109 783 600 
Q 550 1309 550 2009 
Q 550 2706 781 3412 
Q 1013 4119 1484 4856 
L 1984 4856 
z
" transform="scale(0.015625)"/>
       <path id="DejaVuSans-29" d="M 513 4856 
L 1013 4856 
Q 1481 4119 1714 3412 
Q 1947 2706 1947 2009 
Q 1947 1309 1714 600 
Q 1481 -109 1013 -844 
L 513 -844 
Q 928 -128 1133 580 
Q 1338 1288 1338 2009 
Q 1338 2731 1133 3434 
Q 928 4138 513 4856 
z
" transform="scale(0.015625)"/>
      </defs>
      <use xlink:href="#DejaVuSans-45"/>
      <use xlink:href="#DejaVuSans-61" x="63.183594"/>
      <use xlink:href="#DejaVuSans-73" x="124.462891"/>
      <use xlink:href="#DejaVuSans-74" x="176.5625"/>
      <use xlink:href="#DejaVuSans-28" x="215.771484"/>
      <use xlink:href="#DejaVuSans-6d" x="254.785156"/>
      <use xlink:href="#DejaVuSans-29" x="352.197266"/>
     </g>
    </g>
   </g>
   <g id="line2d_14">
    <path d="M 312.328317 507.337157 
L 315 500.67891 
L 317.671683 383.648015 
L 320.343365 305.339486 
L 323.015048 249.164795 
L 325.686731 215.797598 
L 328.358413 213.442504 
L 331.030096 213.671172 
L 333.701778 213.648969 
L 336.373461 353.156321 
L 339.045144 401.691888 
L 341.716826 460.964344 
L 344.388509 465.884852 
L 347.060192 284.259533 
L 349.731874 273.748619 
L 352.403557 206.743099 
L 355.075239 336.359133 
L 357.746922 290.845974 
L 360.418605 255.812242 
L 363.090287 253.72748 
L 365.76197 188.390765 
L 368.433653 272.405076 
L 371.105335 280.322186 
L 373.777018 328.139384 
L 376.4487 289.91194 
L 379.120383 245.479434 
L 381.792066 341.346239 
L 384.463748 407.998791 
L 387.135431 384.930379 
L 389.807114 414.530479 
L 392.478796 387.372774 
L 395.150479 398.782757 
L 397.822161 421.431075 
L 400.493844 422.178683 
L 403.165527 306.993688 
L 405.837209 396.064385 
L 408.508892 294.449884 
L 411.180575 307.191038 
L 413.852257 310.664518 
L 416.52394 310.32726 
L 419.195622 331.177787 
L 421.867305 402.104041 
L 424.538988 407.76844 
L 427.21067 260.981194 
L 429.882353 254.656656 
L 432.554036 335.976516 
L 435.225718 405.026752 
L 437.897401 451.367685 
L 440.569083 313.243246 
L 443.240766 299.403596 
L 445.912449 300.747356 
L 448.584131 300.616884 
L 453.927497 300.628322 
L 456.599179 418.457842 
L 459.270862 421.18513 
L 461.942544 420.920324 
L 467.28591 420.943539 
L 469.957592 342.443909 
L 472.629275 369.594104 
L 475.300958 298.922242 
L 477.97264 291.929385 
L 480.644323 292.608356 
L 483.316005 190.732329 
L 485.987688 186.433605 
L 488.659371 203.328479 
L 491.331053 204.154334 
L 494.002736 271.477492 
L 496.674419 349.492201 
L 499.346101 465.483949 
L 502.017784 420.850094 
L 504.689466 330.049135 
L 507.361149 322.566082 
L 510.032832 303.715467 
L 512.704514 363.145685 
L 515.376197 368.470394 
L 518.04788 264.88408 
L 520.719562 232.891832 
L 523.391245 324.98544 
L 526.062927 273.703989 
L 528.73461 225.719818 
L 531.406293 373.866682 
L 534.077975 308.877828 
L 536.749658 285.146922 
L 539.421341 315.707326 
L 542.093023 318.722913 
L 544.764706 219.36251 
L 547.436389 335.644077 
L 550.108071 311.852471 
L 552.779754 256.509986 
L 555.451436 252.077477 
L 558.123119 282.237917 
L 560.794802 360.535417 
L 563.466484 366.947286 
L 566.138167 393.760284 
L 568.80985 375.754977 
L 574.153215 328.655768 
L 576.824897 343.787702 
L 579.49658 451.936257 
L 582.168263 318.247897 
L 584.839945 246.036167 
L 587.511628 241.972313 
L 590.183311 340.324647 
L 592.854993 283.291718 
L 595.526676 349.730018 
L 598.198358 255.854083 
L 600.870041 384.052702 
L 603.541724 394.474854 
L 606.213406 451.886432 
L 608.885089 399.550404 
L 611.556772 428.184607 
L 614.228454 432.091934 
L 616.900137 454.024114 
L 619.571819 403.456447 
L 622.243502 468.390599 
L 624.915185 341.005968 
L 627.586867 327.542504 
L 630.25855 249.855081 
L 632.930233 371.243403 
L 635.601915 382.532719 
L 638.273598 338.105499 
L 640.94528 335.707207 
L 643.616963 335.940069 
L 654.303694 335.919462 
L 656.975376 499.453607 
L 659.647059 401.956576 
L 662.318741 261.496514 
L 664.990424 250.065164 
L 667.662107 295.09269 
L 670.333789 290.14637 
L 673.005472 213.893505 
L 675.677155 363.118014 
L 678.348837 303.87287 
L 681.02052 415.811191 
L 683.692202 320.063583 
L 686.363885 346.802328 
L 689.035568 351.567869 
L 691.70725 351.105159 
L 697.050616 351.145724 
L 699.722298 433.482076 
L 702.393981 446.237936 
L 705.065663 347.293898 
L 707.737346 366.807182 
L 710.409029 391.370497 
L 713.080711 311.407932 
L 715.752394 368.50349 
L 718.424077 327.863209 
L 721.095759 363.933206 
L 723.767442 419.896647 
L 726.439124 327.454922 
L 729.110807 317.771947 
L 731.78249 318.712115 
L 734.454172 485.384955 
L 737.125855 419.263909 
L 739.797538 412.568156 
L 742.46922 413.21828 
L 745.140903 413.155156 
L 747.812585 227.444253 
L 750.484268 221.335087 
L 753.155951 443.700932 
L 755.827633 371.01638 
L 758.499316 326.682304 
L 761.170999 274.451277 
L 763.842681 236.327635 
L 766.514364 233.552069 
L 769.186047 233.821562 
L 771.857729 233.795396 
L 774.529412 298.363054 
L 777.201094 300.505459 
L 779.872777 300.297442 
L 782.54446 300.317639 
L 785.216142 436.698542 
L 787.887825 440.903775 
L 790.559508 385.142193 
L 793.23119 311.170027 
L 795.902873 286.213234 
L 798.574555 424.821889 
L 801.246238 387.741331 
L 803.917921 307.944988 
L 806.589603 301.509475 
L 809.261286 302.134331 
L 811.932969 264.225818 
L 814.604651 410.905726 
L 817.276334 324.742776 
L 819.948016 387.516031 
L 822.619699 392.803206 
L 825.291382 353.623762 
L 827.963064 350.083447 
L 830.634747 350.427194 
L 833.30643 350.393818 
L 835.978112 486.671131 
L 838.649795 491.193302 
L 841.321477 536.28026 
L 843.99316 330.649177 
L 846.664843 306.862422 
L 849.336525 318.331868 
L 852.008208 259.609401 
L 854.679891 342.324545 
L 857.351573 399.226754 
L 860.023256 402.92327 
L 862.694938 402.564357 
L 868.038304 402.595822 
L 870.709986 508.852951 
L 873.381669 511.750894 
L 876.053352 511.469519 
L 878.725034 511.496839 
L 881.396717 489.035221 
L 884.068399 510.385576 
L 886.740082 393.995721 
L 889.411765 382.869857 
L 892.083447 411.2046 
L 894.75513 412.687871 
L 897.426813 303.561237 
L 900.098495 277.605913 
L 902.770178 276.477423 
L 905.44186 276.586994 
L 908.113543 276.576355 
L 910.785226 437.829248 
L 913.456908 443.143481 
L 916.128591 468.951604 
L 918.800274 346.708041 
L 921.471956 276.643342 
L 924.143639 303.627386 
L 926.815321 338.984855 
L 929.487004 391.061888 
L 932.158687 395.614024 
L 934.830369 395.192236 
L 940.173735 395.229213 
L 942.845417 388.054009 
L 945.5171 323.231222 
L 948.188782 343.438416 
L 950.860465 360.736553 
L 953.532148 414.979031 
L 956.20383 304.645623 
L 958.875513 293.16349 
L 961.547196 274.821376 
L 964.218878 261.956942 
L 966.890561 346.858715 
L 969.562244 357.526383 
L 972.233926 314.49148 
L 974.905609 310.492378 
L 977.577291 418.852982 
L 980.248974 425.126496 
L 982.920657 424.517369 
L 985.592339 462.805852 
L 988.264022 406.639582 
L 990.935705 481.131895 
L 993.607387 373.521883 
L 996.27907 316.04474 
L 998.950752 306.515804 
L 1001.622435 374.883473 
L 1004.294118 428.117355 
L 1006.9658 327.795134 
L 1009.637483 408.709746 
L 1012.309166 294.237999 
L 1014.980848 281.447799 
L 1017.652531 282.689662 
L 1020.324213 291.015296 
L 1022.995896 312.437385 
L 1025.667579 407.343277 
L 1028.339261 295.992663 
L 1031.010944 283.768928 
L 1033.682627 284.955791 
L 1036.354309 261.489966 
L 1039.025992 280.089104 
L 1041.697674 283.043334 
L 1044.369357 418.540634 
L 1047.04104 431.431313 
L 1049.712722 430.179694 
L 1052.384405 381.798788 
L 1055.056088 302.786495 
L 1057.72777 395.317091 
L 1060.399453 352.97036 
L 1063.071135 386.735591 
L 1065.742818 321.381221 
L 1068.414501 314.306832 
L 1071.086183 287.488374 
L 1073.757866 285.813878 
L 1076.429549 285.976463 
L 1079.101231 239.09567 
L 1081.772914 288.508706 
L 1084.444596 311.194384 
L 1087.116279 385.007188 
L 1089.787962 279.644462 
L 1092.459644 274.443283 
L 1095.131327 330.872641 
L 1097.80301 372.913454 
L 1100.474692 324.738927 
L 1103.146375 281.639826 
L 1105.818057 375.919998 
L 1108.48974 425.265945 
L 1111.161423 372.6212 
L 1113.833105 326.505819 
L 1116.504788 417.36911 
L 1119.176471 426.679093 
L 1121.848153 425.775141 
L 1124.519836 342.563869 
L 1127.191518 426.471666 
L 1129.863201 380.590396 
L 1132.534884 374.882614 
L 1135.206566 375.436811 
L 1140.549932 375.388226 
L 1143.221614 375.387718 
L 1145.893297 358.723628 
L 1148.564979 318.942275 
L 1151.236662 310.926136 
L 1153.908345 310.752273 
L 1156.580027 329.676915 
L 1159.25171 382.283643 
L 1161.923393 275.191453 
L 1164.595075 229.336664 
L 1167.266758 227.063256 
L 1169.93844 227.283992 
L 1172.610123 391.575823 
L 1175.281806 462.619367 
L 1177.953488 512.063097 
L 1180.625171 516.53867 
L 1183.296854 425.562635 
L 1185.968536 285.461034 
L 1188.640219 273.752869 
L 1191.311902 267.363023 
L 1193.983584 266.812681 
L 1199.326949 266.860928 
L 1201.998632 266.861432 
L 1204.670315 263.723229 
L 1207.341997 242.633799 
L 1210.01368 382.749346 
L 1212.685363 309.235189 
L 1215.357045 276.333593 
L 1218.028728 275.029755 
L 1220.70041 372.297218 
L 1223.372093 341.971186 
L 1226.043776 253.65954 
L 1228.715458 358.575122 
L 1231.387141 391.543071 
L 1234.058824 276.391736 
L 1236.730506 265.223207 
L 1239.402189 318.386729 
L 1242.073871 275.951266 
L 1244.745554 271.77053 
L 1247.417237 395.102049 
L 1250.088919 402.16826 
L 1252.760602 333.025327 
L 1255.432285 399.620641 
L 1258.103967 482.54466 
L 1260.77565 489.108473 
L 1263.447332 488.47116 
L 1266.119015 480.197153 
L 1268.790698 398.172061 
L 1271.46238 391.078885 
L 1274.134063 349.909748 
L 1276.805746 279.134349 
L 1279.477428 285.3374 
L 1282.149111 287.079257 
L 1284.820793 286.910131 
L 1287.492476 286.926553 
L 1290.164159 488.764712 
L 1292.835841 442.208757 
L 1295.507524 383.879578 
L 1298.179207 419.417106 
L 1300.850889 289.65565 
L 1303.522572 276.466866 
L 1306.194254 249.519597 
L 1308.865937 368.314965 
L 1311.53762 461.032128 
L 1314.209302 401.599573 
L 1316.880985 372.761965 
L 1319.552668 275.0734 
L 1322.22435 264.983452 
L 1324.896033 364.927287 
L 1327.567715 329.933342 
L 1330.239398 324.789555 
L 1332.911081 266.459902 
L 1335.582763 285.696511 
L 1338.254446 425.807544 
L 1340.926129 393.823916 
L 1343.597811 299.99733 
L 1346.269494 407.048673 
L 1348.941176 418.782549 
L 1351.612859 418.412034 
L 1354.284542 488.560705 
L 1356.956224 368.072911 
L 1359.627907 279.585983 
L 1362.29959 273.558772 
L 1364.971272 372.758735 
L 1367.642955 310.649267 
L 1370.314637 351.691496 
L 1372.98632 403.864697 
L 1375.658003 422.102888 
L 1378.329685 298.580758 
L 1381.001368 391.094484 
L 1383.673051 426.721244 
L 1386.344733 378.758633 
L 1389.016416 381.047564 
L 1391.688098 335.93026 
L 1394.359781 331.406409 
L 1397.031464 331.845652 
L 1399.703146 331.828046 
L 1402.374829 285.585233 
L 1405.046512 400.18461 
L 1407.718194 426.530598 
L 1410.389877 439.356187 
L 1413.06156 440.519015 
L 1415.733242 440.40611 
L 1418.404925 464.229545 
L 1421.076607 465.237847 
L 1426.419973 465.149452 
L 1431.763338 465.148618 
L 1434.435021 253.225353 
L 1437.106703 248.523985 
L 1439.778386 248.980464 
L 1442.450068 189.195148 
L 1445.121751 327.480295 
L 1447.793434 339.067073 
L 1450.465116 359.091204 
L 1453.136799 277.641882 
L 1455.808482 257.081132 
L 1458.480164 310.504221 
L 1461.151847 312.670305 
L 1463.823529 311.877956 
L 1466.495212 346.36151 
L 1469.166895 348.365179 
L 1471.838577 423.778241 
L 1474.51026 427.904903 
L 1477.181943 427.504225 
L 1479.853625 427.543129 
L 1482.525308 510.899791 
L 1485.19699 315.661094 
L 1487.868673 338.793766 
L 1490.540356 347.915182 
L 1493.212038 287.906677 
L 1495.883721 365.711156 
L 1498.555404 294.53428 
L 1501.227086 341.375037 
L 1503.898769 375.969505 
L 1506.570451 344.841434 
L 1509.242134 273.09685 
L 1511.913817 359.952299 
L 1514.585499 376.22104 
L 1517.257182 351.046938 
L 1519.928865 366.905535 
L 1522.600547 368.870894 
L 1525.27223 368.680068 
L 1527.943912 368.698596 
L 1530.615595 369.67533 
L 1533.287278 379.385118 
L 1535.95896 339.750491 
L 1538.630643 335.927567 
L 1543.974008 335.907827 
L 1546.645691 335.913224 
L 1549.317373 274.651638 
L 1551.989056 280.183636 
L 1554.660739 376.685786 
L 1557.332421 337.125714 
L 1560.004104 353.67059 
L 1562.675787 403.988331 
L 1565.347469 364.500694 
L 1568.019152 359.90588 
L 1570.690834 363.769985 
L 1573.362517 418.793009 
L 1576.0342 451.939674 
L 1578.705882 454.153993 
L 1581.377565 370.562752 
L 1584.049248 336.209167 
L 1586.72093 334.146654 
L 1589.392613 334.346914 
L 1592.064295 364.938348 
L 1594.735978 334.779806 
L 1597.407661 288.632063 
L 1600.079343 247.508231 
L 1602.751026 244.326319 
L 1605.422709 283.070499 
L 1608.094391 285.286326 
L 1610.766074 285.07118 
L 1618.781122 285.090238 
L 1621.452804 423.841841 
L 1624.124487 440.979618 
L 1626.79617 441.009115 
L 1629.467852 332.963704 
L 1632.139535 312.231647 
L 1634.811218 372.709641 
L 1637.4829 449.393624 
L 1640.154583 514.706147 
L 1642.826265 347.356807 
L 1645.497948 293.196537 
L 1648.169631 276.389598 
L 1650.841313 402.552289 
L 1653.512996 414.827372 
L 1656.184679 413.635523 
L 1658.856361 232.375399 
L 1661.528044 248.942251 
L 1664.199726 411.239584 
L 1666.871409 410.774583 
L 1669.543092 399.674615 
L 1672.214774 325.813544 
L 1674.886457 318.864388 
L 1677.55814 386.255321 
L 1680.229822 390.08965 
L 1682.901505 357.165436 
L 1685.573187 364.675711 
L 1688.24487 365.628463 
L 1690.916553 346.729009 
L 1693.588235 441.989743 
L 1696.259918 450.349352 
L 1698.931601 449.537677 
L 1701.603283 449.616486 
L 1704.274966 244.701855 
L 1706.946648 374.182737 
L 1709.618331 385.681466 
L 1712.290014 313.984027 
L 1714.961696 310.044696 
L 1717.633379 310.427185 
L 1720.305062 310.390048 
L 1722.976744 423.193501 
L 1725.648427 333.265823 
L 1728.320109 309.104113 
L 1730.991792 315.43727 
L 1733.663475 244.92842 
L 1736.335157 382.662086 
L 1739.00684 428.040864 
L 1741.678523 429.586511 
L 1744.350205 429.436437 
L 1747.021888 266.067106 
L 1749.69357 259.140221 
L 1752.365253 259.812787 
L 1755.036936 255.814666 
L 1757.708618 255.666564 
L 1760.380301 255.680944 
L 1763.051984 363.466429 
L 1765.723666 464.619034 
L 1768.395349 386.111634 
L 1771.067031 426.621052 
L 1773.738714 319.088718 
L 1776.410397 278.068058 
L 1779.082079 404.222242 
L 1781.753762 418.933909 
L 1784.425445 404.881763 
L 1787.097127 377.692973 
L 1789.76881 413.185742 
L 1792.440492 423.432013 
L 1795.112175 423.669803 
L 1797.783858 374.601451 
L 1800.45554 371.736957 
L 1803.127223 372.015084 
L 1805.798906 458.513958 
L 1808.470588 475.179843 
L 1811.142271 355.852328 
L 1813.813953 344.601867 
L 1816.485636 345.69423 
L 1819.157319 383.832483 
L 1821.829001 337.381892 
L 1824.500684 318.807678 
L 1827.172367 272.637299 
L 1829.844049 268.430627 
L 1832.515732 268.839073 
L 1835.187415 272.878561 
L 1837.859097 305.590113 
L 1840.53078 394.326793 
L 1843.202462 402.092538 
L 1845.874145 442.704932 
L 1848.545828 445.190161 
L 1851.21751 356.532518 
L 1853.889193 351.753613 
L 1856.560876 352.21762 
L 1864.575923 352.176517 
L 1867.247606 352.176558 
L 1869.919289 242.66777 
L 1872.590971 240.527321 
L 1875.262654 240.735147 
L 1880.606019 240.716928 
L 1883.277702 317.622796 
L 1885.949384 363.276082 
L 1888.621067 284.375313 
L 1891.29275 325.5723 
L 1893.964432 389.289809 
L 1896.636115 394.320579 
L 1899.307798 393.832117 
L 1901.97948 304.689026 
L 1904.651163 372.440219 
L 1907.322845 303.927242 
L 1909.994528 296.354071 
L 1912.666211 297.089388 
L 1915.337893 189.269935 
L 1918.009576 177.946155 
L 1920.681259 177.832455 
L 1923.352941 333.400757 
L 1926.024624 342.349208 
L 1928.696306 341.480359 
L 1934.039672 341.556529 
L 1936.711354 341.557324 
L 1939.383037 327.571725 
L 1942.05472 420.363442 
L 1944.726402 311.346647 
L 1947.398085 410.519698 
L 1950.069767 393.025181 
L 1952.74145 389.124342 
L 1955.413133 389.503093 
L 1958.084815 401.595616 
L 1960.756498 396.608618 
L 1963.428181 395.989488 
L 1966.099863 396.027336 
L 1968.771546 237.485485 
L 1971.443228 290.1312 
L 1974.114911 276.532607 
L 1976.786594 248.08714 
L 1979.458276 328.264196 
L 1982.129959 336.341615 
L 1984.801642 421.943029 
L 1987.473324 279.414325 
L 1990.145007 368.892352 
L 1992.816689 379.805773 
L 1995.488372 378.746135 
L 1998.160055 372.332436 
L 2000.831737 415.145502 
L 2003.50342 418.710504 
L 2006.175103 418.36436 
L 2008.846785 251.29586 
L 2011.518468 360.313906 
L 2014.19015 370.504027 
L 2016.861833 298.840994 
L 2019.533516 247.560877 
L 2022.205198 268.567455 
L 2024.876881 271.238132 
L 2027.548564 270.978823 
L 2030.220246 407.060194 
L 2032.891929 336.333171 
L 2035.563611 270.567704 
L 2038.235294 350.17389 
L 2040.906977 404.694802 
L 2043.578659 355.800564 
L 2046.250342 324.349708 
L 2048.922025 269.891029 
L 2051.593707 265.074364 
L 2054.26539 295.541557 
L 2056.937073 307.713419 
L 2059.608755 347.817204 
L 2062.280438 341.19371 
L 2064.95212 438.060096 
L 2067.623803 311.498878 
L 2070.295486 334.121947 
L 2072.967168 338.955944 
L 2075.638851 235.268344 
L 2078.310534 242.954737 
L 2080.982216 230.401388 
L 2083.653899 391.702966 
L 2086.325581 383.458009 
L 2088.997264 332.07133 
L 2091.668947 384.925717 
L 2094.340629 277.088102 
L 2097.012312 371.826365 
L 2099.683995 383.059006 
L 2102.355677 381.968373 
L 2105.02736 425.522011 
L 2107.699042 427.353112 
L 2110.370725 424.487705 
L 2113.042408 402.556407 
L 2118.385773 298.422398 
L 2121.057456 294.454202 
L 2123.729138 294.839494 
L 2126.400821 294.802084 
L 2129.072503 224.898923 
L 2131.744186 289.554192 
L 2134.415869 428.292414 
L 2137.087551 363.689447 
L 2139.759234 251.04831 
L 2142.430917 241.925374 
L 2145.102599 285.871955 
L 2147.774282 345.718194 
L 2150.445964 355.320677 
L 2153.117647 291.921623 
L 2155.78933 285.88688 
L 2158.461012 306.671027 
L 2161.132695 282.000421 
L 2163.804378 275.379711 
L 2166.47606 316.84077 
L 2169.147743 372.010971 
L 2171.819425 316.303582 
L 2174.491108 310.122658 
L 2177.162791 310.722795 
L 2179.834473 466.142026 
L 2182.506156 419.161935 
L 2185.177839 414.123924 
L 2187.849521 279.422498 
L 2190.521204 271.597046 
L 2193.192886 235.635447 
L 2195.864569 210.987435 
L 2198.536252 350.531025 
L 2201.207934 438.822007 
L 2203.879617 406.875928 
L 2206.5513 409.063015 
L 2209.222982 418.777018 
L 2211.894665 419.509292 
L 2214.566347 408.259025 
L 2217.23803 442.694813 
L 2219.909713 424.721811 
L 2222.581395 371.836555 
L 2225.253078 395.579574 
L 2227.924761 424.795111 
L 2230.596443 285.497861 
L 2233.268126 271.791523 
L 2235.939808 302.650139 
L 2238.611491 339.823061 
L 2241.283174 423.71441 
L 2243.954856 495.15575 
L 2246.626539 500.547577 
L 2249.298222 397.700987 
L 2251.969904 394.35336 
L 2254.641587 461.403984 
L 2257.313269 432.849168 
L 2259.984952 337.95715 
L 2262.656635 418.753865 
L 2265.328317 410.177542 
L 2268 308.739916 
L 2270.671683 262.01166 
L 2270.671683 262.01166 
" clip-path="url(#p47065d9d3d)" style="fill: none; stroke: #ff0000; stroke-width: 1.8; stroke-linecap: square"/>
   </g>
   <g id="patch_3">
    <path d="M 315 640.8 
L 315 86.4 
" style="fill: none; stroke: #000000; stroke-width: 0.8; stroke-linejoin: miter; stroke-linecap: square"/>
   </g>
   <g id="patch_4">
    <path d="M 2268 640.8 
L 2268 86.4 
" style="fill: none; stroke: #000000; stroke-width: 0.8; stroke-linejoin: miter; stroke-linecap: square"/>
   </g>
   <g id="patch_5">
    <path d="M 315 640.8 
L 2268 640.8 
" style="fill: none; stroke: #000000; stroke-width: 0.8; stroke-linejoin: miter; stroke-linecap: square"/>
   </g>
   <g id="patch_6">
    <path d="M 315 86.4 
L 2268 86.4 
" style="fill: none; stroke: #000000; stroke-width: 0.8; stroke-linejoin: miter; stroke-linecap: square"/>
   </g>
   <g id="text_16">
    <!-- Model ARIMA - PORD (east) -->
    <g transform="translate(1155.18125 80.4) scale(0.2 -0.2)">
     <defs>
      <path id="DejaVuSans-4d" d="M 628 4666 
L 1569 4666 
L 2759 1491 
L 3956 4666 
L 4897 4666 
L 4897 0 
L 4281 0 
L 4281 4097 
L 3078 897 
L 2444 897 
L 1241 4097 
L 1241 0 
L 628 0 
L 628 4666 
z
" transform="scale(0.015625)"/>
      <path id="DejaVuSans-6f" d="M 1959 3097 
Q 1497 3097 1228 2736 
Q 959 2375 959 1747 
Q 959 1119 1226 758 
Q 1494 397 1959 397 
Q 2419 397 2687 759 
Q 2956 1122 2956 1747 
Q 2956 2369 2687 2733 
Q 2419 3097 1959 3097 
z
M 1959 3584 
Q 2709 3584 3137 3096 
Q 3566 2609 3566 1747 
Q 3566 888 3137 398 
Q 2709 -91 1959 -91 
Q 1206 -91 779 398 
Q 353 888 353 1747 
Q 353 2609 779 3096 
Q 1206 3584 1959 3584 
z
" transform="scale(0.015625)"/>
      <path id="DejaVuSans-64" d="M 2906 2969 
L 2906 4863 
L 3481 4863 
L 3481 0 
L 2906 0 
L 2906 525 
Q 2725 213 2448 61 
Q 2172 -91 1784 -91 
Q 1150 -91 751 415 
Q 353 922 353 1747 
Q 353 2572 751 3078 
Q 1150 3584 1784 3584 
Q 2172 3584 2448 3432 
Q 2725 3281 2906 2969 
z
M 947 1747 
Q 947 1113 1208 752 
Q 1469 391 1925 391 
Q 2381 391 2643 752 
Q 2906 1113 2906 1747 
Q 2906 2381 2643 2742 
Q 2381 3103 1925 3103 
Q 1469 3103 1208 2742 
Q 947 2381 947 1747 
z
" transform="scale(0.015625)"/>
      <path id="DejaVuSans-6c" d="M 603 4863 
L 1178 4863 
L 1178 0 
L 603 0 
L 603 4863 
z
" transform="scale(0.015625)"/>
      <path id="DejaVuSans-20" transform="scale(0.015625)"/>
      <path id="DejaVuSans-41" d="M 2188 4044 
L 1331 1722 
L 3047 1722 
L 2188 4044 
z
M 1831 4666 
L 2547 4666 
L 4325 0 
L 3669 0 
L 3244 1197 
L 1141 1197 
L 716 0 
L 50 0 
L 1831 4666 
z
" transform="scale(0.015625)"/>
      <path id="DejaVuSans-52" d="M 2841 2188 
Q 3044 2119 3236 1894 
Q 3428 1669 3622 1275 
L 4263 0 
L 3584 0 
L 2988 1197 
Q 2756 1666 2539 1819 
Q 2322 1972 1947 1972 
L 1259 1972 
L 1259 0 
L 628 0 
L 628 4666 
L 2053 4666 
Q 2853 4666 3247 4331 
Q 3641 3997 3641 3322 
Q 3641 2881 3436 2590 
Q 3231 2300 2841 2188 
z
M 1259 4147 
L 1259 2491 
L 2053 2491 
Q 2509 2491 2742 2702 
Q 2975 2913 2975 3322 
Q 2975 3731 2742 3939 
Q 2509 4147 2053 4147 
L 1259 4147 
z
" transform="scale(0.015625)"/>
      <path id="DejaVuSans-49" d="M 628 4666 
L 1259 4666 
L 1259 0 
L 628 0 
L 628 4666 
z
" transform="scale(0.015625)"/>
      <path id="DejaVuSans-50" d="M 1259 4147 
L 1259 2394 
L 2053 2394 
Q 2494 2394 2734 2622 
Q 2975 2850 2975 3272 
Q 2975 3691 2734 3919 
Q 2494 4147 2053 4147 
L 1259 4147 
z
M 628 4666 
L 2053 4666 
Q 2838 4666 3239 4311 
Q 3641 3956 3641 3272 
Q 3641 2581 3239 2228 
Q 2838 1875 2053 1875 
L 1259 1875 
L 1259 0 
L 628 0 
L 628 4666 
z
" transform="scale(0.015625)"/>
      <path id="DejaVuSans-4f" d="M 2522 4238 
Q 1834 4238 1429 3725 
Q 1025 3213 1025 2328 
Q 1025 1447 1429 934 
Q 1834 422 2522 422 
Q 3209 422 3611 934 
Q 4013 1447 4013 2328 
Q 4013 3213 3611 3725 
Q 3209 4238 2522 4238 
z
M 2522 4750 
Q 3503 4750 4090 4092 
Q 4678 3434 4678 2328 
Q 4678 1225 4090 567 
Q 3503 -91 2522 -91 
Q 1538 -91 948 565 
Q 359 1222 359 2328 
Q 359 3434 948 4092 
Q 1538 4750 2522 4750 
z
" transform="scale(0.015625)"/>
      <path id="DejaVuSans-44" d="M 1259 4147 
L 1259 519 
L 2022 519 
Q 2988 519 3436 956 
Q 3884 1394 3884 2338 
Q 3884 3275 3436 3711 
Q 2988 4147 2022 4147 
L 1259 4147 
z
M 628 4666 
L 1925 4666 
Q 3281 4666 3915 4102 
Q 4550 3538 4550 2338 
Q 4550 1131 3912 565 
Q 3275 0 1925 0 
L 628 0 
L 628 4666 
z
" transform="scale(0.015625)"/>
     </defs>
     <use xlink:href="#DejaVuSans-4d"/>
     <use xlink:href="#DejaVuSans-6f" x="86.279297"/>
     <use xlink:href="#DejaVuSans-64" x="147.460938"/>
     <use xlink:href="#DejaVuSans-65" x="210.9375"/>
     <use xlink:href="#DejaVuSans-6c" x="272.460938"/>
     <use xlink:href="#DejaVuSans-20" x="300.244141"/>
     <use xlink:href="#DejaVuSans-41" x="332.03125"/>
     <use xlink:href="#DejaVuSans-52" x="400.439453"/>
     <use xlink:href="#DejaVuSans-49" x="469.921875"/>
     <use xlink:href="#DejaVuSans-4d" x="499.414062"/>
     <use xlink:href="#DejaVuSans-41" x="585.693359"/>
     <use xlink:href="#DejaVuSans-20" x="654.101562"/>
     <use xlink:href="#DejaVuSans-2d" x="685.888672"/>
     <use xlink:href="#DejaVuSans-20" x="721.972656"/>
     <use xlink:href="#DejaVuSans-50" x="753.759766"/>
     <use xlink:href="#DejaVuSans-4f" x="814.0625"/>
     <use xlink:href="#DejaVuSans-52" x="892.773438"/>
     <use xlink:href="#DejaVuSans-44" x="962.255859"/>
     <use xlink:href="#DejaVuSans-20" x="1039.257812"/>
     <use xlink:href="#DejaVuSans-28" x="1071.044922"/>
     <use xlink:href="#DejaVuSans-65" x="1110.058594"/>
     <use xlink:href="#DejaVuSans-61" x="1171.582031"/>
     <use xlink:href="#DejaVuSans-73" x="1232.861328"/>
     <use xlink:href="#DejaVuSans-74" x="1284.960938"/>
     <use xlink:href="#DejaVuSans-29" x="1324.169922"/>
    </g>
   </g>
   <g id="legend_1">
    <g id="patch_7">
     <path d="M 2165.003125 109.078125 
L 2261 109.078125 
Q 2263 109.078125 2263 107.078125 
L 2263 93.4 
Q 2263 91.4 2261 91.4 
L 2165.003125 91.4 
Q 2163.003125 91.4 2163.003125 93.4 
L 2163.003125 107.078125 
Q 2163.003125 109.078125 2165.003125 109.078125 
z
" style="fill: #ffffff; opacity: 0.8; stroke: #cccccc; stroke-linejoin: miter"/>
    </g>
    <g id="line2d_15">
     <path d="M 2167.003125 99.498438 
L 2177.003125 99.498438 
L 2187.003125 99.498438 
" style="fill: none; stroke: #ff0000; stroke-width: 1.8; stroke-linecap: square"/>
    </g>
    <g id="text_17">
     <!-- Fitted Values -->
     <g transform="translate(2195.003125 102.998438) scale(0.1 -0.1)">
      <defs>
       <path id="DejaVuSans-46" d="M 628 4666 
L 3309 4666 
L 3309 4134 
L 1259 4134 
L 1259 2759 
L 3109 2759 
L 3109 2228 
L 1259 2228 
L 1259 0 
L 628 0 
L 628 4666 
z
" transform="scale(0.015625)"/>
       <path id="DejaVuSans-56" d="M 1831 0 
L 50 4666 
L 709 4666 
L 2188 738 
L 3669 4666 
L 4325 4666 
L 2547 0 
L 1831 0 
z
" transform="scale(0.015625)"/>
       <path id="DejaVuSans-75" d="M 544 1381 
L 544 3500 
L 1119 3500 
L 1119 1403 
Q 1119 906 1312 657 
Q 1506 409 1894 409 
Q 2359 409 2629 706 
Q 2900 1003 2900 1516 
L 2900 3500 
L 3475 3500 
L 3475 0 
L 2900 0 
L 2900 538 
Q 2691 219 2414 64 
Q 2138 -91 1772 -91 
Q 1169 -91 856 284 
Q 544 659 544 1381 
z
M 1991 3584 
L 1991 3584 
z
" transform="scale(0.015625)"/>
      </defs>
      <use xlink:href="#DejaVuSans-46"/>
      <use xlink:href="#DejaVuSans-69" x="50.269531"/>
      <use xlink:href="#DejaVuSans-74" x="78.052734"/>
      <use xlink:href="#DejaVuSans-74" x="117.261719"/>
      <use xlink:href="#DejaVuSans-65" x="156.470703"/>
      <use xlink:href="#DejaVuSans-64" x="217.994141"/>
      <use xlink:href="#DejaVuSans-20" x="281.470703"/>
      <use xlink:href="#DejaVuSans-56" x="313.257812"/>
      <use xlink:href="#DejaVuSans-61" x="373.916016"/>
      <use xlink:href="#DejaVuSans-6c" x="435.195312"/>
      <use xlink:href="#DejaVuSans-75" x="462.978516"/>
      <use xlink:href="#DejaVuSans-65" x="526.357422"/>
      <use xlink:href="#DejaVuSans-73" x="587.880859"/>
     </g>
    </g>
   </g>
  </g>
 </g>
 <defs>
  <clipPath id="p47065d9d3d">
   <rect x="315" y="86.4" width="1953" height="554.4"/>
  </clipPath>
 </defs>
</svg>
