<?xml version="1.0" encoding="utf-8" standalone="no"?>
<!DOCTYPE svg PUBLIC "-//W3C//DTD SVG 1.1//EN"
  "http://www.w3.org/Graphics/SVG/1.1/DTD/svg11.dtd">
<svg xmlns:xlink="http://www.w3.org/1999/xlink" width="2520pt" height="720pt" viewBox="0 0 2520 720" xmlns="http://www.w3.org/2000/svg" version="1.1">
 <metadata>
  <rdf:RDF xmlns:dc="http://purl.org/dc/elements/1.1/" xmlns:cc="http://creativecommons.org/ns#" xmlns:rdf="http://www.w3.org/1999/02/22-rdf-syntax-ns#">
   <cc:Work>
    <dc:type rdf:resource="http://purl.org/dc/dcmitype/StillImage"/>
    <dc:date>2024-02-08T11:42:16.734209</dc:date>
    <dc:format>image/svg+xml</dc:format>
    <dc:creator>
     <cc:Agent>
      <dc:title>Matplotlib v3.7.1, https://matplotlib.org/</dc:title>
     </cc:Agent>
    </dc:creator>
   </cc:Work>
  </rdf:RDF>
 </metadata>
 <defs>
  <style type="text/css">*{stroke-linejoin: round; stroke-linecap: butt}</style>
 </defs>
 <g id="figure_1">
  <g id="patch_1">
   <path d="M 0 720 
L 2520 720 
L 2520 0 
L 0 0 
z
" style="fill: #ffffff"/>
  </g>
  <g id="axes_1">
   <g id="patch_2">
    <path d="M 315 640.8 
L 2268 640.8 
L 2268 86.4 
L 315 86.4 
z
" style="fill: #ffffff"/>
   </g>
   <g id="matplotlib.axis_1">
    <g id="xtick_1">
     <g id="line2d_1">
      <defs>
       <path id="m56ab81c796" d="M 0 0 
L 0 3.5 
" style="stroke: #000000; stroke-width: 0.8"/>
      </defs>
      <g>
       <use xlink:href="#m56ab81c796" x="520.719562" y="640.8" style="stroke: #000000; stroke-width: 0.8"/>
      </g>
     </g>
     <g id="text_1">
      <!-- 2012-04 -->
      <g transform="translate(489.382453 659.197656) scale(0.15 -0.15)">
       <defs>
        <path id="DejaVuSans-32" d="M 1228 531 
L 3431 531 
L 3431 0 
L 469 0 
L 469 531 
Q 828 903 1448 1529 
Q 2069 2156 2228 2338 
Q 2531 2678 2651 2914 
Q 2772 3150 2772 3378 
Q 2772 3750 2511 3984 
Q 2250 4219 1831 4219 
Q 1534 4219 1204 4116 
Q 875 4013 500 3803 
L 500 4441 
Q 881 4594 1212 4672 
Q 1544 4750 1819 4750 
Q 2544 4750 2975 4387 
Q 3406 4025 3406 3419 
Q 3406 3131 3298 2873 
Q 3191 2616 2906 2266 
Q 2828 2175 2409 1742 
Q 1991 1309 1228 531 
z
" transform="scale(0.015625)"/>
        <path id="DejaVuSans-30" d="M 2034 4250 
Q 1547 4250 1301 3770 
Q 1056 3291 1056 2328 
Q 1056 1369 1301 889 
Q 1547 409 2034 409 
Q 2525 409 2770 889 
Q 3016 1369 3016 2328 
Q 3016 3291 2770 3770 
Q 2525 4250 2034 4250 
z
M 2034 4750 
Q 2819 4750 3233 4129 
Q 3647 3509 3647 2328 
Q 3647 1150 3233 529 
Q 2819 -91 2034 -91 
Q 1250 -91 836 529 
Q 422 1150 422 2328 
Q 422 3509 836 4129 
Q 1250 4750 2034 4750 
z
" transform="scale(0.015625)"/>
        <path id="DejaVuSans-31" d="M 794 531 
L 1825 531 
L 1825 4091 
L 703 3866 
L 703 4441 
L 1819 4666 
L 2450 4666 
L 2450 531 
L 3481 531 
L 3481 0 
L 794 0 
L 794 531 
z
" transform="scale(0.015625)"/>
        <path id="DejaVuSans-2d" d="M 313 2009 
L 1997 2009 
L 1997 1497 
L 313 1497 
L 313 2009 
z
" transform="scale(0.015625)"/>
        <path id="DejaVuSans-34" d="M 2419 4116 
L 825 1625 
L 2419 1625 
L 2419 4116 
z
M 2253 4666 
L 3047 4666 
L 3047 1625 
L 3713 1625 
L 3713 1100 
L 3047 1100 
L 3047 0 
L 2419 0 
L 2419 1100 
L 313 1100 
L 313 1709 
L 2253 4666 
z
" transform="scale(0.015625)"/>
       </defs>
       <use xlink:href="#DejaVuSans-32"/>
       <use xlink:href="#DejaVuSans-30" x="63.623047"/>
       <use xlink:href="#DejaVuSans-31" x="127.246094"/>
       <use xlink:href="#DejaVuSans-32" x="190.869141"/>
       <use xlink:href="#DejaVuSans-2d" x="254.492188"/>
       <use xlink:href="#DejaVuSans-30" x="290.576172"/>
       <use xlink:href="#DejaVuSans-34" x="354.199219"/>
      </g>
     </g>
    </g>
    <g id="xtick_2">
     <g id="line2d_2">
      <g>
       <use xlink:href="#m56ab81c796" x="763.842681" y="640.8" style="stroke: #000000; stroke-width: 0.8"/>
      </g>
     </g>
     <g id="text_2">
      <!-- 2012-07 -->
      <g transform="translate(732.505572 659.197656) scale(0.15 -0.15)">
       <defs>
        <path id="DejaVuSans-37" d="M 525 4666 
L 3525 4666 
L 3525 4397 
L 1831 0 
L 1172 0 
L 2766 4134 
L 525 4134 
L 525 4666 
z
" transform="scale(0.015625)"/>
       </defs>
       <use xlink:href="#DejaVuSans-32"/>
       <use xlink:href="#DejaVuSans-30" x="63.623047"/>
       <use xlink:href="#DejaVuSans-31" x="127.246094"/>
       <use xlink:href="#DejaVuSans-32" x="190.869141"/>
       <use xlink:href="#DejaVuSans-2d" x="254.492188"/>
       <use xlink:href="#DejaVuSans-30" x="290.576172"/>
       <use xlink:href="#DejaVuSans-37" x="354.199219"/>
      </g>
     </g>
    </g>
    <g id="xtick_3">
     <g id="line2d_3">
      <g>
       <use xlink:href="#m56ab81c796" x="1009.637483" y="640.8" style="stroke: #000000; stroke-width: 0.8"/>
      </g>
     </g>
     <g id="text_3">
      <!-- 2012-10 -->
      <g transform="translate(978.300374 659.197656) scale(0.15 -0.15)">
       <use xlink:href="#DejaVuSans-32"/>
       <use xlink:href="#DejaVuSans-30" x="63.623047"/>
       <use xlink:href="#DejaVuSans-31" x="127.246094"/>
       <use xlink:href="#DejaVuSans-32" x="190.869141"/>
       <use xlink:href="#DejaVuSans-2d" x="254.492188"/>
       <use xlink:href="#DejaVuSans-31" x="290.576172"/>
       <use xlink:href="#DejaVuSans-30" x="354.199219"/>
      </g>
     </g>
    </g>
    <g id="xtick_4">
     <g id="line2d_4">
      <g>
       <use xlink:href="#m56ab81c796" x="1255.432285" y="640.8" style="stroke: #000000; stroke-width: 0.8"/>
      </g>
     </g>
     <g id="text_4">
      <!-- 2013-01 -->
      <g transform="translate(1224.095175 659.197656) scale(0.15 -0.15)">
       <defs>
        <path id="DejaVuSans-33" d="M 2597 2516 
Q 3050 2419 3304 2112 
Q 3559 1806 3559 1356 
Q 3559 666 3084 287 
Q 2609 -91 1734 -91 
Q 1441 -91 1130 -33 
Q 819 25 488 141 
L 488 750 
Q 750 597 1062 519 
Q 1375 441 1716 441 
Q 2309 441 2620 675 
Q 2931 909 2931 1356 
Q 2931 1769 2642 2001 
Q 2353 2234 1838 2234 
L 1294 2234 
L 1294 2753 
L 1863 2753 
Q 2328 2753 2575 2939 
Q 2822 3125 2822 3475 
Q 2822 3834 2567 4026 
Q 2313 4219 1838 4219 
Q 1578 4219 1281 4162 
Q 984 4106 628 3988 
L 628 4550 
Q 988 4650 1302 4700 
Q 1616 4750 1894 4750 
Q 2613 4750 3031 4423 
Q 3450 4097 3450 3541 
Q 3450 3153 3228 2886 
Q 3006 2619 2597 2516 
z
" transform="scale(0.015625)"/>
       </defs>
       <use xlink:href="#DejaVuSans-32"/>
       <use xlink:href="#DejaVuSans-30" x="63.623047"/>
       <use xlink:href="#DejaVuSans-31" x="127.246094"/>
       <use xlink:href="#DejaVuSans-33" x="190.869141"/>
       <use xlink:href="#DejaVuSans-2d" x="254.492188"/>
       <use xlink:href="#DejaVuSans-30" x="290.576172"/>
       <use xlink:href="#DejaVuSans-31" x="354.199219"/>
      </g>
     </g>
    </g>
    <g id="xtick_5">
     <g id="line2d_5">
      <g>
       <use xlink:href="#m56ab81c796" x="1495.883721" y="640.8" style="stroke: #000000; stroke-width: 0.8"/>
      </g>
     </g>
     <g id="text_5">
      <!-- 2013-04 -->
      <g transform="translate(1464.546612 659.197656) scale(0.15 -0.15)">
       <use xlink:href="#DejaVuSans-32"/>
       <use xlink:href="#DejaVuSans-30" x="63.623047"/>
       <use xlink:href="#DejaVuSans-31" x="127.246094"/>
       <use xlink:href="#DejaVuSans-33" x="190.869141"/>
       <use xlink:href="#DejaVuSans-2d" x="254.492188"/>
       <use xlink:href="#DejaVuSans-30" x="290.576172"/>
       <use xlink:href="#DejaVuSans-34" x="354.199219"/>
      </g>
     </g>
    </g>
    <g id="xtick_6">
     <g id="line2d_6">
      <g>
       <use xlink:href="#m56ab81c796" x="1739.00684" y="640.8" style="stroke: #000000; stroke-width: 0.8"/>
      </g>
     </g>
     <g id="text_6">
      <!-- 2013-07 -->
      <g transform="translate(1707.669731 659.197656) scale(0.15 -0.15)">
       <use xlink:href="#DejaVuSans-32"/>
       <use xlink:href="#DejaVuSans-30" x="63.623047"/>
       <use xlink:href="#DejaVuSans-31" x="127.246094"/>
       <use xlink:href="#DejaVuSans-33" x="190.869141"/>
       <use xlink:href="#DejaVuSans-2d" x="254.492188"/>
       <use xlink:href="#DejaVuSans-30" x="290.576172"/>
       <use xlink:href="#DejaVuSans-37" x="354.199219"/>
      </g>
     </g>
    </g>
    <g id="xtick_7">
     <g id="line2d_7">
      <g>
       <use xlink:href="#m56ab81c796" x="1984.801642" y="640.8" style="stroke: #000000; stroke-width: 0.8"/>
      </g>
     </g>
     <g id="text_7">
      <!-- 2013-10 -->
      <g transform="translate(1953.464532 659.197656) scale(0.15 -0.15)">
       <use xlink:href="#DejaVuSans-32"/>
       <use xlink:href="#DejaVuSans-30" x="63.623047"/>
       <use xlink:href="#DejaVuSans-31" x="127.246094"/>
       <use xlink:href="#DejaVuSans-33" x="190.869141"/>
       <use xlink:href="#DejaVuSans-2d" x="254.492188"/>
       <use xlink:href="#DejaVuSans-31" x="290.576172"/>
       <use xlink:href="#DejaVuSans-30" x="354.199219"/>
      </g>
     </g>
    </g>
    <g id="xtick_8">
     <g id="line2d_8">
      <g>
       <use xlink:href="#m56ab81c796" x="2230.596443" y="640.8" style="stroke: #000000; stroke-width: 0.8"/>
      </g>
     </g>
     <g id="text_8">
      <!-- 2014-01 -->
      <g transform="translate(2199.259334 659.197656) scale(0.15 -0.15)">
       <use xlink:href="#DejaVuSans-32"/>
       <use xlink:href="#DejaVuSans-30" x="63.623047"/>
       <use xlink:href="#DejaVuSans-31" x="127.246094"/>
       <use xlink:href="#DejaVuSans-34" x="190.869141"/>
       <use xlink:href="#DejaVuSans-2d" x="254.492188"/>
       <use xlink:href="#DejaVuSans-30" x="290.576172"/>
       <use xlink:href="#DejaVuSans-31" x="354.199219"/>
      </g>
     </g>
    </g>
    <g id="text_9">
     <!-- Time -->
     <g transform="translate(1273.149609 677.714844) scale(0.15 -0.15)">
      <defs>
       <path id="DejaVuSans-54" d="M -19 4666 
L 3928 4666 
L 3928 4134 
L 2272 4134 
L 2272 0 
L 1638 0 
L 1638 4134 
L -19 4134 
L -19 4666 
z
" transform="scale(0.015625)"/>
       <path id="DejaVuSans-69" d="M 603 3500 
L 1178 3500 
L 1178 0 
L 603 0 
L 603 3500 
z
M 603 4863 
L 1178 4863 
L 1178 4134 
L 603 4134 
L 603 4863 
z
" transform="scale(0.015625)"/>
       <path id="DejaVuSans-6d" d="M 3328 2828 
Q 3544 3216 3844 3400 
Q 4144 3584 4550 3584 
Q 5097 3584 5394 3201 
Q 5691 2819 5691 2113 
L 5691 0 
L 5113 0 
L 5113 2094 
Q 5113 2597 4934 2840 
Q 4756 3084 4391 3084 
Q 3944 3084 3684 2787 
Q 3425 2491 3425 1978 
L 3425 0 
L 2847 0 
L 2847 2094 
Q 2847 2600 2669 2842 
Q 2491 3084 2119 3084 
Q 1678 3084 1418 2786 
Q 1159 2488 1159 1978 
L 1159 0 
L 581 0 
L 581 3500 
L 1159 3500 
L 1159 2956 
Q 1356 3278 1631 3431 
Q 1906 3584 2284 3584 
Q 2666 3584 2933 3390 
Q 3200 3197 3328 2828 
z
" transform="scale(0.015625)"/>
       <path id="DejaVuSans-65" d="M 3597 1894 
L 3597 1613 
L 953 1613 
Q 991 1019 1311 708 
Q 1631 397 2203 397 
Q 2534 397 2845 478 
Q 3156 559 3463 722 
L 3463 178 
Q 3153 47 2828 -22 
Q 2503 -91 2169 -91 
Q 1331 -91 842 396 
Q 353 884 353 1716 
Q 353 2575 817 3079 
Q 1281 3584 2069 3584 
Q 2775 3584 3186 3129 
Q 3597 2675 3597 1894 
z
M 3022 2063 
Q 3016 2534 2758 2815 
Q 2500 3097 2075 3097 
Q 1594 3097 1305 2825 
Q 1016 2553 972 2059 
L 3022 2063 
z
" transform="scale(0.015625)"/>
      </defs>
      <use xlink:href="#DejaVuSans-54"/>
      <use xlink:href="#DejaVuSans-69" x="57.958984"/>
      <use xlink:href="#DejaVuSans-6d" x="85.742188"/>
      <use xlink:href="#DejaVuSans-65" x="183.154297"/>
     </g>
    </g>
   </g>
   <g id="matplotlib.axis_2">
    <g id="ytick_1">
     <g id="line2d_9">
      <defs>
       <path id="m68d15ae443" d="M 0 0 
L -3.5 0 
" style="stroke: #000000; stroke-width: 0.8"/>
      </defs>
      <g>
       <use xlink:href="#m68d15ae443" x="315" y="585.36" style="stroke: #000000; stroke-width: 0.8"/>
      </g>
     </g>
     <g id="text_10">
      <!-- −0.004 -->
      <g transform="translate(252.488281 591.058828) scale(0.15 -0.15)">
       <defs>
        <path id="DejaVuSans-2212" d="M 678 2272 
L 4684 2272 
L 4684 1741 
L 678 1741 
L 678 2272 
z
" transform="scale(0.015625)"/>
        <path id="DejaVuSans-2e" d="M 684 794 
L 1344 794 
L 1344 0 
L 684 0 
L 684 794 
z
" transform="scale(0.015625)"/>
       </defs>
       <use xlink:href="#DejaVuSans-2212"/>
       <use xlink:href="#DejaVuSans-30" x="83.789062"/>
       <use xlink:href="#DejaVuSans-2e" x="147.412109"/>
       <use xlink:href="#DejaVuSans-30" x="179.199219"/>
       <use xlink:href="#DejaVuSans-30" x="242.822266"/>
       <use xlink:href="#DejaVuSans-34" x="306.445312"/>
      </g>
     </g>
    </g>
    <g id="ytick_2">
     <g id="line2d_10">
      <g>
       <use xlink:href="#m68d15ae443" x="315" y="474.48" style="stroke: #000000; stroke-width: 0.8"/>
      </g>
     </g>
     <g id="text_11">
      <!-- −0.002 -->
      <g transform="translate(252.488281 480.178828) scale(0.15 -0.15)">
       <use xlink:href="#DejaVuSans-2212"/>
       <use xlink:href="#DejaVuSans-30" x="83.789062"/>
       <use xlink:href="#DejaVuSans-2e" x="147.412109"/>
       <use xlink:href="#DejaVuSans-30" x="179.199219"/>
       <use xlink:href="#DejaVuSans-30" x="242.822266"/>
       <use xlink:href="#DejaVuSans-32" x="306.445312"/>
      </g>
     </g>
    </g>
    <g id="ytick_3">
     <g id="line2d_11">
      <g>
       <use xlink:href="#m68d15ae443" x="315" y="363.6" style="stroke: #000000; stroke-width: 0.8"/>
      </g>
     </g>
     <g id="text_12">
      <!-- 0.000 -->
      <g transform="translate(265.057813 369.298828) scale(0.15 -0.15)">
       <use xlink:href="#DejaVuSans-30"/>
       <use xlink:href="#DejaVuSans-2e" x="63.623047"/>
       <use xlink:href="#DejaVuSans-30" x="95.410156"/>
       <use xlink:href="#DejaVuSans-30" x="159.033203"/>
       <use xlink:href="#DejaVuSans-30" x="222.65625"/>
      </g>
     </g>
    </g>
    <g id="ytick_4">
     <g id="line2d_12">
      <g>
       <use xlink:href="#m68d15ae443" x="315" y="252.72" style="stroke: #000000; stroke-width: 0.8"/>
      </g>
     </g>
     <g id="text_13">
      <!-- 0.002 -->
      <g transform="translate(265.057813 258.418828) scale(0.15 -0.15)">
       <use xlink:href="#DejaVuSans-30"/>
       <use xlink:href="#DejaVuSans-2e" x="63.623047"/>
       <use xlink:href="#DejaVuSans-30" x="95.410156"/>
       <use xlink:href="#DejaVuSans-30" x="159.033203"/>
       <use xlink:href="#DejaVuSans-32" x="222.65625"/>
      </g>
     </g>
    </g>
    <g id="ytick_5">
     <g id="line2d_13">
      <g>
       <use xlink:href="#m68d15ae443" x="315" y="141.84" style="stroke: #000000; stroke-width: 0.8"/>
      </g>
     </g>
     <g id="text_14">
      <!-- 0.004 -->
      <g transform="translate(265.057813 147.538828) scale(0.15 -0.15)">
       <use xlink:href="#DejaVuSans-30"/>
       <use xlink:href="#DejaVuSans-2e" x="63.623047"/>
       <use xlink:href="#DejaVuSans-30" x="95.410156"/>
       <use xlink:href="#DejaVuSans-30" x="159.033203"/>
       <use xlink:href="#DejaVuSans-34" x="222.65625"/>
      </g>
     </g>
    </g>
    <g id="text_15">
     <!-- North(m) -->
     <g transform="translate(245.36875 397.734375) rotate(-90) scale(0.15 -0.15)">
      <defs>
       <path id="DejaVuSans-4e" d="M 628 4666 
L 1478 4666 
L 3547 763 
L 3547 4666 
L 4159 4666 
L 4159 0 
L 3309 0 
L 1241 3903 
L 1241 0 
L 628 0 
L 628 4666 
z
" transform="scale(0.015625)"/>
       <path id="DejaVuSans-6f" d="M 1959 3097 
Q 1497 3097 1228 2736 
Q 959 2375 959 1747 
Q 959 1119 1226 758 
Q 1494 397 1959 397 
Q 2419 397 2687 759 
Q 2956 1122 2956 1747 
Q 2956 2369 2687 2733 
Q 2419 3097 1959 3097 
z
M 1959 3584 
Q 2709 3584 3137 3096 
Q 3566 2609 3566 1747 
Q 3566 888 3137 398 
Q 2709 -91 1959 -91 
Q 1206 -91 779 398 
Q 353 888 353 1747 
Q 353 2609 779 3096 
Q 1206 3584 1959 3584 
z
" transform="scale(0.015625)"/>
       <path id="DejaVuSans-72" d="M 2631 2963 
Q 2534 3019 2420 3045 
Q 2306 3072 2169 3072 
Q 1681 3072 1420 2755 
Q 1159 2438 1159 1844 
L 1159 0 
L 581 0 
L 581 3500 
L 1159 3500 
L 1159 2956 
Q 1341 3275 1631 3429 
Q 1922 3584 2338 3584 
Q 2397 3584 2469 3576 
Q 2541 3569 2628 3553 
L 2631 2963 
z
" transform="scale(0.015625)"/>
       <path id="DejaVuSans-74" d="M 1172 4494 
L 1172 3500 
L 2356 3500 
L 2356 3053 
L 1172 3053 
L 1172 1153 
Q 1172 725 1289 603 
Q 1406 481 1766 481 
L 2356 481 
L 2356 0 
L 1766 0 
Q 1100 0 847 248 
Q 594 497 594 1153 
L 594 3053 
L 172 3053 
L 172 3500 
L 594 3500 
L 594 4494 
L 1172 4494 
z
" transform="scale(0.015625)"/>
       <path id="DejaVuSans-68" d="M 3513 2113 
L 3513 0 
L 2938 0 
L 2938 2094 
Q 2938 2591 2744 2837 
Q 2550 3084 2163 3084 
Q 1697 3084 1428 2787 
Q 1159 2491 1159 1978 
L 1159 0 
L 581 0 
L 581 4863 
L 1159 4863 
L 1159 2956 
Q 1366 3272 1645 3428 
Q 1925 3584 2291 3584 
Q 2894 3584 3203 3211 
Q 3513 2838 3513 2113 
z
" transform="scale(0.015625)"/>
       <path id="DejaVuSans-28" d="M 1984 4856 
Q 1566 4138 1362 3434 
Q 1159 2731 1159 2009 
Q 1159 1288 1364 580 
Q 1569 -128 1984 -844 
L 1484 -844 
Q 1016 -109 783 600 
Q 550 1309 550 2009 
Q 550 2706 781 3412 
Q 1013 4119 1484 4856 
L 1984 4856 
z
" transform="scale(0.015625)"/>
       <path id="DejaVuSans-29" d="M 513 4856 
L 1013 4856 
Q 1481 4119 1714 3412 
Q 1947 2706 1947 2009 
Q 1947 1309 1714 600 
Q 1481 -109 1013 -844 
L 513 -844 
Q 928 -128 1133 580 
Q 1338 1288 1338 2009 
Q 1338 2731 1133 3434 
Q 928 4138 513 4856 
z
" transform="scale(0.015625)"/>
      </defs>
      <use xlink:href="#DejaVuSans-4e"/>
      <use xlink:href="#DejaVuSans-6f" x="74.804688"/>
      <use xlink:href="#DejaVuSans-72" x="135.986328"/>
      <use xlink:href="#DejaVuSans-74" x="177.099609"/>
      <use xlink:href="#DejaVuSans-68" x="216.308594"/>
      <use xlink:href="#DejaVuSans-28" x="279.6875"/>
      <use xlink:href="#DejaVuSans-6d" x="318.701172"/>
      <use xlink:href="#DejaVuSans-29" x="416.113281"/>
     </g>
    </g>
   </g>
   <g id="line2d_14">
    <path d="M 312.328317 369.001136 
L 315 294.748791 
L 317.671683 356.74394 
L 320.343365 383.822595 
L 323.015048 354.444968 
L 325.686731 387.064972 
L 328.358413 332.060361 
L 331.030096 342.792271 
L 336.373461 368.261241 
L 339.045144 386.250861 
L 341.716826 307.737654 
L 344.388509 406.274314 
L 347.060192 331.947607 
L 349.731874 335.788639 
L 352.403557 362.036025 
L 355.075239 396.278862 
L 357.746922 347.710105 
L 360.418605 396.288762 
L 363.090287 368.470189 
L 365.76197 357.303623 
L 368.433653 357.617365 
L 371.105335 382.802374 
L 373.777018 324.610834 
L 376.4487 379.421913 
L 379.120383 345.761552 
L 381.792066 410.312035 
L 384.463748 359.076638 
L 387.135431 343.979839 
L 389.807114 371.078498 
L 392.478796 434.121385 
L 395.150479 359.176724 
L 397.822161 373.108738 
L 400.493844 348.066422 
L 403.165527 291.909405 
L 405.837209 400.930184 
L 408.508892 356.500807 
L 411.180575 292.51901 
L 413.852257 416.97177 
L 416.52394 373.689039 
L 419.195622 375.326466 
L 421.867305 392.874793 
L 424.538988 352.911691 
L 427.21067 338.332258 
L 429.882353 334.274626 
L 432.554036 409.978096 
L 435.225718 270.465591 
L 437.897401 424.999667 
L 440.569083 456.872544 
L 443.240766 321.244076 
L 445.912449 333.803055 
L 448.584131 296.684886 
L 451.255814 377.36595 
L 453.927497 406.762417 
L 456.599179 327.704324 
L 459.270862 436.98137 
L 461.942544 289.453665 
L 464.614227 370.51984 
L 467.28591 320.182738 
L 469.957592 351.265828 
L 472.629275 419.038458 
L 475.300958 373.755241 
L 477.97264 417.363336 
L 480.644323 329.039326 
L 483.316005 347.07557 
L 485.987688 345.168027 
L 488.659371 348.719784 
L 491.331053 319.018034 
L 494.002736 383.40206 
L 496.674419 384.312879 
L 499.346101 297.734854 
L 502.017784 368.703836 
L 504.689466 381.901288 
L 507.361149 389.169408 
L 510.032832 319.764026 
L 512.704514 419.912289 
L 515.376197 374.271388 
L 518.04788 397.574414 
L 520.719562 276.150253 
L 523.391245 368.601353 
L 526.062927 406.581608 
L 528.73461 355.397217 
L 531.406293 361.584248 
L 534.077975 395.234907 
L 536.749658 313.131777 
L 539.421341 335.188396 
L 542.093023 389.544983 
L 544.764706 321.47594 
L 547.436389 430.325698 
L 550.108071 336.01077 
L 552.779754 345.816742 
L 555.451436 364.329279 
L 558.123119 312.608302 
L 560.794802 447.766683 
L 563.466484 307.058123 
L 566.138167 401.69344 
L 568.80985 346.268927 
L 571.481532 366.378164 
L 574.153215 347.488586 
L 576.824897 351.1377 
L 579.49658 375.749841 
L 582.168263 363.391695 
L 584.839945 380.7531 
L 587.511628 323.781004 
L 590.183311 334.699674 
L 592.854993 359.368564 
L 595.526676 400.098085 
L 598.198358 347.499023 
L 600.870041 346.359096 
L 603.541724 384.484035 
L 606.213406 341.536703 
L 608.885089 407.214709 
L 611.556772 402.490084 
L 614.228454 328.944834 
L 616.900137 329.590944 
L 619.571819 331.102676 
L 622.243502 399.531986 
L 624.915185 359.74903 
L 627.586867 332.004396 
L 630.25855 419.207817 
L 632.930233 207.602369 
L 635.601915 454.109046 
L 638.273598 402.890805 
L 640.94528 334.779397 
L 643.616963 358.46866 
L 646.288646 356.631846 
L 648.960328 370.325467 
L 651.632011 421.146487 
L 654.303694 327.067186 
L 656.975376 377.821691 
L 659.647059 340.257535 
L 662.318741 335.310871 
L 664.990424 349.426197 
L 667.662107 379.853395 
L 670.333789 369.839242 
L 673.005472 387.766358 
L 675.677155 319.782406 
L 678.348837 407.278876 
L 681.02052 349.279243 
L 683.692202 349.872191 
L 686.363885 373.13284 
L 689.035568 337.535902 
L 691.70725 379.680655 
L 694.378933 342.460448 
L 697.050616 446.575678 
L 699.722298 322.0793 
L 702.393981 375.56393 
L 705.065663 369.04531 
L 707.737346 327.608442 
L 710.409029 439.38977 
L 713.080711 284.066785 
L 715.752394 371.711116 
L 718.424077 326.555039 
L 721.095759 347.251259 
L 723.767442 398.901302 
L 726.439124 373.373322 
L 729.110807 367.759383 
L 731.78249 333.278321 
L 734.454172 422.768653 
L 737.125855 323.211506 
L 739.797538 393.689233 
L 742.46922 375.147786 
L 745.140903 307.963882 
L 747.812585 393.40431 
L 750.484268 377.953371 
L 753.155951 338.605344 
L 755.827633 383.948472 
L 758.499316 325.370452 
L 761.170999 369.421113 
L 763.842681 314.763184 
L 766.514364 444.602551 
L 769.186047 374.591926 
L 771.857729 256.097578 
L 774.529412 409.340134 
L 777.201094 369.281197 
L 779.872777 344.099296 
L 782.54446 434.292372 
L 785.216142 310.987979 
L 787.887825 345.242602 
L 790.559508 413.802849 
L 793.23119 306.47141 
L 795.902873 381.574088 
L 798.574555 377.07573 
L 801.246238 302.898474 
L 803.917921 352.699465 
L 806.589603 465.213782 
L 809.261286 329.638754 
L 811.932969 342.505987 
L 814.604651 420.457865 
L 817.276334 399.872579 
L 819.948016 249.937446 
L 822.619699 381.84654 
L 825.291382 330.746707 
L 827.963064 379.903047 
L 830.634747 330.272136 
L 833.30643 398.070295 
L 835.978112 434.823405 
L 838.649795 319.109286 
L 841.321477 336.140304 
L 843.99316 338.437671 
L 846.664843 441.338951 
L 849.336525 253.654706 
L 852.008208 432.8789 
L 854.679891 308.98633 
L 857.351573 498.223909 
L 860.023256 287.710464 
L 862.694938 331.54277 
L 865.366621 413.113018 
L 868.038304 368.519092 
L 870.709986 281.556759 
L 873.381669 424.54965 
L 876.053352 348.053377 
L 878.725034 363.66924 
L 881.396717 370.316722 
L 884.068399 361.834185 
L 886.740082 357.40278 
L 889.411765 370.074207 
L 892.083447 385.382427 
L 894.75513 336.312718 
L 897.426813 374.298615 
L 900.098495 336.805417 
L 902.770178 445.721008 
L 905.44186 263.796123 
L 908.113543 346.130296 
L 910.785226 434.966417 
L 913.456908 307.21222 
L 916.128591 376.402505 
L 918.800274 431.329437 
L 921.471956 316.949233 
L 924.143639 377.206748 
L 926.815321 295.392126 
L 929.487004 377.40091 
L 932.158687 438.856348 
L 934.830369 292.633356 
L 937.502052 373.391456 
L 940.173735 439.221967 
L 942.845417 330.242984 
L 945.5171 382.371677 
L 948.188782 361.590919 
L 950.860465 331.429984 
L 953.532148 351.830924 
L 956.20383 313.747599 
L 958.875513 574.524671 
L 961.547196 134.62743 
L 964.218878 417.138489 
L 966.890561 412.341447 
L 969.562244 379.498701 
L 972.233926 313.737 
L 974.905609 363.115441 
L 977.577291 399.08785 
L 980.248974 333.165618 
L 982.920657 388.21628 
L 985.592339 381.610391 
L 988.264022 307.925247 
L 990.935705 407.948305 
L 993.607387 304.995764 
L 996.27907 394.157858 
L 998.950752 337.401576 
L 1001.622435 275.232745 
L 1004.294118 379.181958 
L 1006.9658 381.087411 
L 1009.637483 368.750506 
L 1012.309166 344.244872 
L 1014.980848 370.684576 
L 1017.652531 341.416204 
L 1020.324213 378.146316 
L 1022.995896 398.374594 
L 1025.667579 362.009433 
L 1028.339261 319.49724 
L 1031.010944 341.976201 
L 1033.682627 376.863439 
L 1036.354309 337.14535 
L 1039.025992 396.376624 
L 1041.697674 373.930897 
L 1044.369357 390.662946 
M 1049.712722 336.36428 
L 1052.384405 349.77988 
L 1055.056088 377.903887 
L 1057.72777 349.503389 
L 1060.399453 352.719039 
L 1063.071135 383.083614 
L 1065.742818 332.65051 
L 1068.414501 382.492333 
M 1073.757866 398.293 
L 1076.429549 331.048767 
L 1079.101231 391.93439 
L 1081.772914 355.44374 
L 1084.444596 375.869406 
L 1087.116279 357.274869 
L 1089.787962 317.859333 
L 1092.459644 427.039024 
L 1095.131327 355.718002 
L 1097.80301 377.843725 
L 1100.474692 386.52902 
L 1103.146375 331.612654 
L 1105.818057 333.151364 
L 1108.48974 359.868514 
L 1111.161423 339.351461 
L 1113.833105 359.248821 
L 1116.504788 341.158863 
M 1121.848153 350.553792 
L 1124.519836 418.463079 
L 1127.191518 323.923277 
M 1140.549932 419.238296 
L 1143.221614 339.693903 
L 1145.893297 349.682556 
L 1148.564979 394.755053 
L 1151.236662 350.403594 
L 1153.908345 331.90001 
L 1156.580027 391.293326 
L 1159.25171 370.508222 
L 1161.923393 299.559252 
L 1164.595075 441.010602 
L 1167.266758 415.417045 
L 1169.93844 263.431815 
L 1172.610123 391.016827 
L 1175.281806 369.644575 
L 1177.953488 405.584805 
L 1180.625171 412.328401 
L 1183.296854 329.150221 
L 1185.968536 306.887524 
L 1188.640219 381.599322 
L 1191.311902 317.214394 
L 1193.983584 394.473366 
L 1196.655267 385.435845 
L 1199.326949 339.173447 
L 1201.998632 363.116415 
L 1204.670315 341.566794 
L 1207.341997 420.254766 
L 1210.01368 393.297781 
L 1212.685363 322.082848 
L 1215.357045 390.041552 
L 1218.028728 305.997805 
L 1220.70041 335.908675 
L 1223.372093 381.207596 
L 1226.043776 375.859569 
L 1228.715458 400.394982 
L 1231.387141 303.393322 
L 1234.058824 405.285212 
L 1236.730506 403.10381 
L 1239.402189 294.08106 
L 1242.073871 449.26727 
L 1244.745554 303.318461 
L 1247.417237 372.893738 
L 1250.088919 349.193642 
L 1252.760602 378.35188 
L 1255.432285 335.308866 
L 1258.103967 336.151712 
L 1260.77565 390.323065 
L 1263.447332 337.25663 
L 1266.119015 278.027315 
L 1268.790698 450.553416 
L 1271.46238 364.152302 
L 1274.134063 404.001999 
L 1276.805746 311.980447 
L 1279.477428 324.959962 
L 1282.149111 351.082264 
L 1284.820793 456.56764 
L 1287.492476 362.218493 
L 1290.164159 385.708239 
L 1292.835841 361.596078 
L 1295.507524 318.082104 
L 1298.179207 376.132687 
L 1300.850889 257.214048 
L 1303.522572 446.925235 
L 1306.194254 349.795778 
L 1308.865937 370.501682 
L 1311.53762 330.583231 
L 1314.209302 377.259726 
L 1316.880985 371.500721 
L 1319.552668 360.52928 
L 1322.22435 364.255533 
L 1324.896033 349.835442 
L 1327.567715 379.331202 
L 1330.239398 353.388009 
L 1332.911081 412.917844 
L 1335.582763 336.951182 
L 1338.254446 363.392935 
L 1340.926129 340.379115 
L 1343.597811 375.468004 
L 1346.269494 384.616739 
L 1348.941176 391.323911 
L 1351.612859 229.528385 
L 1354.284542 382.447703 
L 1356.956224 368.287078 
L 1359.627907 368.18407 
L 1362.29959 446.626895 
L 1364.971272 311.741042 
L 1367.642955 395.165046 
L 1370.314637 390.073296 
L 1372.98632 327.948564 
L 1375.658003 387.549163 
L 1378.329685 346.965622 
L 1381.001368 367.050705 
L 1383.673051 350.833463 
L 1386.344733 273.352016 
L 1389.016416 355.67843 
L 1391.688098 356.953643 
L 1394.359781 403.869157 
L 1397.031464 363.875681 
L 1399.703146 424.041684 
L 1402.374829 385.924571 
L 1405.046512 334.410792 
L 1407.718194 341.252698 
L 1410.389877 341.813157 
L 1413.06156 401.31872 
L 1415.733242 350.909303 
L 1418.404925 382.361188 
L 1421.076607 350.838943 
L 1423.74829 354.220771 
L 1426.419973 382.22208 
L 1429.091655 369.049866 
L 1431.763338 333.287609 
L 1434.435021 394.705771 
L 1437.106703 338.010609 
L 1439.778386 361.703682 
L 1442.450068 361.496887 
L 1445.121751 370.599192 
L 1447.793434 349.016473 
L 1450.465116 358.188178 
L 1453.136799 405.702049 
L 1455.808482 338.493537 
L 1458.480164 340.159174 
L 1461.151847 388.971689 
L 1463.823529 342.226339 
L 1466.495212 273.782854 
L 1469.166895 399.261478 
L 1471.838577 353.443092 
L 1474.51026 337.682496 
L 1477.181943 363.6 
L 1479.853625 406.423759 
L 1482.525308 331.444663 
L 1485.19699 357.439597 
L 1487.868673 405.5318 
L 1490.540356 360.259441 
L 1493.212038 348.965904 
L 1495.883721 317.312829 
L 1498.555404 343.514102 
L 1501.227086 348.849755 
L 1503.898769 394.927465 
L 1506.570451 380.044546 
L 1509.242134 364.356979 
L 1511.913817 336.252077 
L 1514.585499 389.330752 
L 1517.257182 382.561711 
L 1519.928865 369.795794 
L 1522.600547 364.081924 
L 1525.27223 363.668847 
L 1527.943912 324.508866 
L 1530.615595 373.817468 
L 1533.287278 286.51666 
L 1535.95896 430.121882 
L 1538.630643 292.199551 
L 1541.302326 349.722481 
L 1543.974008 354.876804 
L 1546.645691 365.042324 
L 1549.317373 428.302758 
L 1551.989056 368.448016 
L 1554.660739 313.696037 
L 1557.332421 364.733682 
L 1560.004104 346.288106 
L 1562.675787 386.065287 
L 1565.347469 405.15385 
L 1568.019152 368.207556 
L 1570.690834 310.327037 
L 1573.362517 370.333626 
L 1576.0342 402.953094 
L 1578.705882 309.646969 
L 1581.377565 401.18975 
L 1584.049248 318.488489 
L 1586.72093 464.387028 
L 1589.392613 319.337019 
L 1592.064295 338.612357 
L 1594.735978 379.340559 
L 1597.407661 336.314624 
L 1600.079343 354.736861 
L 1602.751026 348.934274 
L 1605.422709 431.465828 
L 1608.094391 295.768514 
L 1610.766074 412.180077 
L 1613.437756 306.263546 
L 1616.109439 474.822848 
L 1618.781122 349.839719 
L 1621.452804 342.518995 
L 1624.124487 326.340964 
L 1626.79617 369.06355 
L 1629.467852 433.2989 
L 1632.139535 267.447407 
L 1634.811218 391.187705 
L 1637.4829 468.166163 
L 1640.154583 277.249933 
L 1642.826265 390.763409 
L 1645.497948 393.116609 
L 1648.169631 308.845051 
L 1650.841313 308.45262 
L 1653.512996 470.543078 
L 1656.184679 317.270487 
L 1658.856361 334.143976 
L 1661.528044 416.336322 
L 1664.199726 318.045793 
L 1666.871409 331.614099 
L 1669.543092 367.103463 
M 1674.886457 396.722098 
L 1677.55814 321.479257 
L 1680.229822 355.90766 
L 1682.901505 447.277173 
L 1685.573187 319.460445 
L 1688.24487 380.096655 
L 1690.916553 335.386827 
L 1693.588235 335.98493 
L 1696.259918 365.110917 
L 1698.931601 413.930185 
L 1701.603283 387.252068 
L 1704.274966 312.458209 
L 1706.946648 348.383428 
L 1709.618331 349.486327 
L 1712.290014 370.982617 
L 1714.961696 321.892546 
L 1717.633379 415.163921 
L 1720.305062 350.996398 
L 1722.976744 345.609631 
L 1725.648427 339.267359 
L 1728.320109 348.058782 
L 1730.991792 465.228538 
L 1733.663475 245.200069 
L 1736.335157 412.316237 
L 1739.00684 393.193708 
L 1741.678523 324.465517 
L 1744.350205 369.262492 
L 1747.021888 325.723788 
L 1749.69357 403.157912 
L 1752.365253 328.638002 
L 1755.036936 367.167241 
L 1757.708618 364.354638 
L 1760.380301 365.418034 
L 1763.051984 393.108508 
L 1765.723666 296.576609 
L 1768.395349 462.345394 
L 1771.067031 279.048295 
L 1773.738714 428.546463 
L 1776.410397 310.758756 
L 1779.082079 387.921304 
L 1781.753762 375.816132 
L 1784.425445 278.04075 
L 1787.097127 471.127609 
L 1789.76881 281.057816 
L 1792.440492 368.982423 
L 1795.112175 368.845794 
L 1797.783858 345.807458 
L 1800.45554 437.06968 
L 1803.127223 371.048441 
L 1805.798906 340.022421 
L 1808.470588 352.621144 
L 1811.142271 365.932825 
L 1813.813953 396.098227 
L 1816.485636 399.449069 
L 1819.157319 234.322707 
L 1821.829001 349.277287 
L 1824.500684 438.269495 
L 1827.172367 340.790796 
L 1829.844049 322.601332 
L 1832.515732 411.183219 
L 1835.187415 394.200988 
L 1837.859097 359.653857 
L 1840.53078 351.797561 
L 1843.202462 321.659919 
L 1845.874145 413.94563 
L 1848.545828 329.196779 
L 1851.21751 366.823324 
L 1853.889193 619.422252 
L 1856.560876 196.458321 
L 1859.232558 315.089527 
L 1861.904241 341.161531 
L 1864.575923 385.317826 
L 1867.247606 340.098465 
L 1869.919289 386.380902 
L 1872.590971 372.248215 
L 1875.262654 369.984072 
L 1877.934337 289.233424 
L 1880.606019 392.058815 
L 1883.277702 412.047865 
L 1885.949384 331.548301 
L 1888.621067 389.027077 
L 1891.29275 274.330666 
L 1893.964432 427.305031 
L 1896.636115 274.748553 
L 1899.307798 387.684143 
L 1901.97948 373.572459 
L 1904.651163 389.036178 
L 1907.322845 359.074112 
L 1909.994528 324.082756 
L 1912.666211 423.829632 
L 1915.337893 398.938655 
L 1918.009576 272.862753 
L 1920.681259 385.122085 
L 1923.352941 318.611915 
L 1926.024624 473.856552 
L 1928.696306 261.598237 
L 1931.367989 408.903331 
L 1934.039672 318.536453 
L 1936.711354 383.985433 
L 1939.383037 356.952497 
L 1942.05472 378.47232 
L 1944.726402 329.577734 
L 1947.398085 361.784695 
L 1950.069767 422.027826 
L 1952.74145 305.685933 
L 1955.413133 370.930153 
L 1958.084815 360.517107 
L 1960.756498 383.367741 
L 1963.428181 265.65262 
L 1966.099863 486.052717 
L 1968.771546 286.247998 
L 1971.443228 430.531626 
L 1974.114911 279.212304 
L 1976.786594 405.366814 
L 1979.458276 367.538659 
L 1982.129959 312.966749 
L 1984.801642 376.570579 
L 1987.473324 382.907483 
L 1990.145007 335.017731 
L 1992.816689 355.661194 
L 1995.488372 405.085965 
L 1998.160055 338.198142 
L 2000.831737 342.58893 
L 2003.50342 339.382132 
L 2006.175103 425.397024 
L 2008.846785 289.527053 
L 2011.518468 381.382164 
L 2014.19015 365.652155 
L 2016.861833 339.628726 
L 2019.533516 392.599376 
L 2022.205198 373.21281 
L 2024.876881 382.89907 
L 2027.548564 337.356277 
L 2030.220246 324.821728 
L 2032.891929 360.250064 
L 2035.563611 397.792526 
L 2038.235294 412.908549 
L 2040.906977 306.459501 
L 2043.578659 366.233327 
L 2046.250342 350.810726 
L 2048.922025 348.079015 
L 2051.593707 397.006273 
L 2054.26539 375.777609 
L 2056.937073 344.513814 
L 2059.608755 357.683932 
L 2062.280438 308.197437 
L 2064.95212 373.815063 
L 2067.623803 385.881516 
L 2070.295486 315.528218 
L 2072.967168 356.428681 
L 2075.638851 423.526092 
L 2078.310534 324.336651 
L 2080.982216 390.216763 
L 2083.653899 365.513893 
L 2086.325581 305.904668 
L 2088.997264 408.787872 
L 2091.668947 357.620654 
L 2094.340629 313.091725 
L 2097.012312 389.309417 
L 2099.683995 326.797904 
L 2102.355677 423.253536 
L 2107.699042 348.085071 
L 2110.370725 333.061264 
L 2113.042408 394.514597 
L 2115.71409 376.244083 
L 2118.385773 369.957304 
L 2121.057456 343.846893 
L 2123.729138 347.679607 
L 2126.400821 386.047025 
L 2129.072503 343.509998 
L 2131.744186 376.616671 
L 2134.415869 377.439971 
L 2137.087551 356.013218 
L 2139.759234 390.055715 
L 2142.430917 389.692092 
L 2145.102599 314.367011 
L 2147.774282 365.718853 
L 2150.445964 311.574819 
L 2153.117647 394.747757 
L 2155.78933 319.410903 
L 2158.461012 390.232178 
L 2161.132695 395.336309 
L 2163.804378 322.540973 
L 2166.47606 386.106965 
L 2169.147743 336.415192 
L 2171.819425 318.685488 
L 2174.491108 377.077358 
L 2177.162791 390.803534 
L 2179.834473 382.551377 
L 2182.506156 375.86209 
L 2185.177839 387.688044 
L 2187.849521 316.253863 
L 2190.521204 386.448174 
L 2193.192886 345.873916 
L 2195.864569 382.385047 
L 2198.536252 312.894975 
L 2201.207934 365.750181 
L 2203.879617 371.177492 
L 2206.5513 379.201971 
L 2209.222982 358.034679 
L 2211.894665 388.289699 
L 2214.566347 355.027365 
L 2217.23803 344.4103 
L 2219.909713 326.298116 
L 2222.581395 430.611178 
L 2225.253078 328.565205 
L 2227.924761 333.090646 
L 2230.596443 371.959395 
L 2233.268126 363.73649 
L 2235.939808 427.616886 
L 2238.611491 312.414709 
L 2241.283174 367.456884 
L 2243.954856 360.3916 
L 2246.626539 368.549206 
L 2249.298222 359.265154 
L 2251.969904 360.733044 
L 2254.641587 372.269582 
L 2257.313269 333.330623 
L 2259.984952 353.024971 
L 2262.656635 352.924678 
L 2265.328317 408.293172 
L 2270.671683 341.756324 
L 2270.671683 341.756324 
" clip-path="url(#pe2cd88d955)" style="fill: none; stroke: #008000; stroke-linecap: square"/>
   </g>
   <g id="line2d_15">
    <path d="M 312.328317 364.616656 
L 315 366.559012 
L 317.671683 366.674536 
L 320.343365 360.911135 
L 323.015048 372.232364 
L 325.686731 364.170392 
L 328.358413 374.602335 
L 331.030096 354.982566 
L 333.701778 348.244441 
L 336.373461 351.62957 
L 339.045144 359.671041 
L 341.716826 372.576038 
L 344.388509 373.050123 
L 347.060192 392.166266 
L 349.731874 362.544861 
L 352.403557 348.419876 
L 355.075239 354.614193 
L 357.746922 374.696563 
L 360.418605 362.689942 
L 363.090287 377.922284 
L 365.76197 374.256115 
L 368.433653 365.865848 
L 371.105335 361.684683 
L 373.777018 371.584832 
L 376.4487 349.761303 
L 379.120383 362.789334 
L 381.792066 355.519618 
L 384.463748 355.016617 
L 387.135431 357.464683 
L 389.807114 350.756941 
L 392.478796 360.240594 
L 395.150479 360.699867 
L 397.822161 359.726204 
L 400.493844 366.421201 
L 403.165527 357.871658 
L 405.837209 357.453453 
L 408.508892 382.710764 
L 411.180575 370.218692 
L 413.852257 369.580518 
L 416.52394 369.708005 
L 419.195622 372.268829 
L 421.867305 373.901338 
L 424.538988 383.127134 
L 427.21067 369.105033 
L 429.882353 353.829302 
L 432.554036 344.088386 
L 435.225718 343.791765 
L 440.569083 343.839183 
L 443.240766 343.841548 
L 445.912449 327.250935 
L 448.584131 330.529181 
L 451.255814 330.69444 
L 453.927497 358.072576 
L 456.599179 358.757527 
L 459.270862 340.065743 
L 461.942544 339.65473 
L 464.614227 339.736838 
L 467.28591 360.081958 
L 469.957592 339.777832 
L 472.629275 344.50586 
L 475.300958 344.90036 
L 477.97264 361.548928 
L 480.644323 361.992217 
L 483.316005 342.252599 
L 485.987688 344.23707 
L 488.659371 344.868424 
L 491.331053 346.681758 
L 494.002736 333.645493 
L 496.674419 356.633005 
L 499.346101 370.872898 
L 502.017784 371.206915 
L 504.689466 369.692761 
L 507.361149 375.778339 
L 510.032832 382.45043 
L 512.704514 352.873942 
L 515.376197 351.571405 
L 518.04788 364.957178 
L 520.719562 381.565061 
L 523.391245 382.146054 
L 526.062927 374.144811 
L 528.73461 373.968513 
L 531.406293 362.921891 
L 534.077975 361.97711 
L 536.749658 378.003936 
L 539.421341 378.660129 
L 542.093023 353.351334 
L 544.764706 370.852373 
L 547.436389 347.977752 
L 550.108071 346.827763 
L 552.779754 340.794256 
L 555.451436 343.102066 
L 558.123119 353.432721 
L 560.794802 353.827848 
L 566.138167 353.764682 
L 568.80985 387.172837 
L 571.481532 366.187428 
L 574.153215 365.404539 
L 576.824897 357.041417 
L 579.49658 353.84553 
L 582.168263 364.174422 
L 584.839945 364.251259 
L 587.511628 371.975617 
L 590.183311 349.461511 
L 592.854993 341.417995 
L 595.526676 349.845864 
L 598.198358 374.067769 
L 600.870041 362.396382 
L 603.541724 354.066262 
L 606.213406 368.320168 
L 608.885089 356.259419 
L 611.556772 355.591629 
L 614.228454 382.853926 
L 616.900137 356.54435 
L 619.571819 342.416415 
L 622.243502 336.739287 
L 624.915185 366.342432 
L 627.586867 364.516796 
L 630.25855 348.710797 
L 632.930233 348.135009 
L 635.601915 348.250034 
L 638.273598 348.227055 
L 640.94528 386.315548 
L 643.616963 359.816729 
L 646.288646 358.070772 
L 648.960328 357.576009 
L 651.632011 363.558187 
L 654.303694 363.827917 
L 656.975376 342.523219 
L 659.647059 359.649942 
L 662.318741 351.138278 
L 664.990424 343.06979 
L 667.662107 345.874569 
L 670.333789 362.134351 
L 673.005472 366.436823 
L 675.677155 376.574525 
L 678.348837 350.073053 
L 681.02052 348.845908 
L 683.692202 349.341616 
L 686.363885 349.564598 
L 689.035568 360.89756 
L 691.70725 350.259735 
L 694.378933 363.646139 
L 697.050616 354.318111 
L 699.722298 353.751337 
L 702.393981 335.551183 
L 705.065663 355.080584 
L 707.737346 362.66579 
L 710.409029 346.105367 
L 713.080711 345.380879 
L 715.752394 345.525609 
L 718.424077 362.435801 
L 721.095759 344.284585 
L 723.767442 344.964962 
L 726.439124 370.857279 
L 729.110807 373.090706 
L 731.78249 370.409509 
L 734.454172 352.721581 
L 737.125855 351.990017 
L 739.797538 335.491767 
L 742.46922 364.159636 
L 745.140903 370.664366 
L 747.812585 370.637677 
L 750.484268 383.825144 
L 753.155951 381.222607 
L 755.827633 360.579941 
L 758.499316 370.874342 
L 761.170999 349.932213 
L 763.842681 358.119331 
L 766.514364 358.719376 
L 769.186047 358.599506 
L 771.857729 368.968785 
L 774.529412 369.1667 
L 777.201094 369.127163 
L 779.872777 369.237731 
L 782.54446 356.180702 
L 785.216142 355.70222 
L 787.887825 355.797806 
L 790.559508 348.899473 
L 793.23119 348.771319 
L 795.902873 348.79692 
L 798.574555 370.655546 
L 801.246238 374.384268 
L 803.917921 374.427868 
L 806.589603 361.70378 
L 809.261286 361.38798 
L 811.932969 342.490701 
L 814.604651 342.037241 
L 817.276334 342.129667 
L 819.948016 375.766305 
L 822.619699 376.618949 
L 825.291382 379.568576 
L 827.963064 355.038094 
L 830.634747 366.0284 
L 833.30643 349.713464 
L 835.978112 371.787278 
L 838.649795 372.930836 
L 841.321477 341.591634 
L 843.99316 338.108687 
L 846.664843 338.310842 
L 862.694938 338.308943 
L 865.366621 332.98439 
L 868.038304 332.932794 
L 870.709986 355.219608 
L 873.381669 355.681441 
L 876.053352 355.589182 
L 878.725034 350.599946 
L 884.068399 363.868078 
L 886.740082 363.103623 
L 889.411765 360.317659 
L 892.083447 364.838176 
L 894.75513 374.799629 
L 897.426813 356.912412 
L 900.098495 364.312165 
L 902.770178 351.782632 
L 905.44186 351.125841 
L 908.113543 351.257047 
L 910.785226 347.913767 
L 916.128591 347.865976 
L 918.800274 366.884616 
L 921.471956 367.227115 
L 924.143639 367.158695 
L 926.815321 373.890189 
L 929.487004 374.007174 
L 932.158687 376.052218 
L 937.502052 376.093064 
L 940.173735 374.304621 
L 942.845417 374.27147 
L 945.5171 347.480839 
L 948.188782 364.576462 
L 950.860465 363.935458 
L 953.532148 348.254023 
L 956.20383 349.341434 
L 958.875513 349.534992 
L 966.890561 349.502506 
L 969.562244 349.502815 
L 972.233926 372.397309 
L 974.905609 372.651474 
L 977.577291 366.661653 
L 980.248974 383.097415 
L 982.920657 359.657814 
L 985.592339 372.127131 
L 988.264022 377.421618 
L 996.27907 377.448084 
L 998.950752 389.087965 
L 1001.622435 362.100343 
L 1004.294118 361.088797 
L 1006.9658 371.896242 
L 1009.637483 376.735641 
L 1012.309166 373.033622 
L 1014.980848 359.161424 
L 1017.652531 364.083989 
L 1020.324213 353.690115 
L 1022.995896 364.761819 
L 1025.667579 381.295322 
L 1028.339261 372.708203 
L 1031.010944 346.979931 
L 1033.682627 343.636866 
L 1036.354309 359.483927 
L 1039.025992 349.542209 
L 1041.697674 371.1688 
L 1044.369357 373.536187 
L 1047.04104 381.500795 
L 1049.712722 381.87642 
L 1052.384405 355.484601 
L 1055.056088 351.967943 
L 1057.72777 364.439317 
L 1060.399453 357.853043 
L 1063.071135 355.016587 
L 1065.742818 368.284437 
L 1068.414501 351.959233 
L 1071.086183 365.604681 
L 1073.757866 366.384797 
L 1076.429549 384.678889 
L 1079.101231 358.347139 
L 1081.772914 373.320785 
L 1084.444596 365.722969 
L 1087.116279 369.994823 
L 1089.787962 364.283179 
L 1092.459644 341.955218 
L 1095.131327 341.084898 
L 1097.80301 349.719902 
L 1100.474692 363.976469 
L 1103.146375 375.316583 
L 1105.818057 354.891067 
L 1108.48974 343.637125 
L 1111.161423 351.075132 
L 1113.833105 345.892891 
L 1116.504788 351.914073 
L 1119.176471 347.145744 
L 1121.848153 346.86331 
L 1124.519836 349.053639 
L 1127.191518 349.097257 
L 1129.863201 334.082199 
L 1132.534884 333.727223 
L 1137.878249 333.78397 
L 1143.221614 333.786234 
L 1145.893297 338.334639 
L 1148.564979 344.511533 
L 1151.236662 369.299349 
L 1153.908345 361.22261 
L 1156.580027 346.736517 
L 1159.25171 367.378359 
L 1161.923393 369.852287 
L 1164.595075 369.717164 
L 1172.610123 369.739843 
L 1175.281806 385.358222 
L 1177.953488 377.183574 
L 1180.625171 390.703117 
L 1183.296854 391.329346 
L 1185.968536 355.123672 
L 1188.640219 354.228662 
L 1191.311902 370.732022 
L 1193.983584 371.083814 
L 1196.655267 385.022839 
L 1199.326949 385.574379 
L 1201.998632 363.186782 
L 1204.670315 362.242283 
L 1207.341997 352.619067 
L 1210.01368 352.167123 
L 1212.685363 376.032426 
L 1215.357045 349.631347 
L 1218.028728 367.856049 
L 1220.70041 368.895899 
L 1223.372093 349.588293 
L 1226.043776 364.968715 
L 1228.715458 370.905319 
L 1231.387141 384.997576 
L 1234.058824 385.574714 
L 1236.730506 396.856442 
L 1239.402189 400.298927 
L 1244.745554 400.346177 
L 1247.417237 400.348533 
L 1250.088919 381.164713 
L 1252.760602 364.049576 
L 1255.432285 370.458614 
L 1258.103967 354.090679 
L 1260.77565 344.796541 
L 1263.447332 366.142756 
L 1266.119015 353.392872 
L 1268.790698 352.621152 
L 1271.46238 352.775318 
L 1274.134063 360.106091 
L 1276.805746 382.876939 
L 1279.477428 383.687183 
L 1282.149111 349.197194 
L 1287.492476 349.51795 
L 1290.164159 356.874224 
L 1292.835841 371.525628 
L 1295.507524 367.281005 
L 1298.179207 343.591614 
L 1300.850889 358.092448 
L 1303.522572 358.932331 
L 1306.194254 358.764549 
L 1308.865937 352.997465 
L 1311.53762 361.896249 
L 1314.209302 347.112404 
L 1316.880985 360.775049 
L 1319.552668 366.605514 
L 1322.22435 363.796068 
L 1324.896033 363.878405 
L 1327.567715 357.253852 
L 1330.239398 367.435956 
L 1332.911081 361.27455 
L 1335.582763 360.891796 
L 1338.254446 347.121926 
L 1340.926129 354.893535 
L 1343.597811 348.318117 
L 1346.269494 360.854788 
L 1348.941176 372.739199 
L 1351.612859 381.894122 
L 1354.284542 382.197116 
L 1356.956224 382.281481 
L 1359.627907 375.294252 
L 1362.29959 371.604046 
L 1367.642955 371.534928 
L 1370.314637 386.830504 
L 1372.98632 388.801585 
L 1375.658003 359.373128 
L 1378.329685 371.583091 
L 1381.001368 360.712675 
L 1383.673051 363.0572 
L 1386.344733 357.517687 
L 1389.016416 357.22023 
L 1391.688098 356.387933 
L 1394.359781 356.636249 
L 1397.031464 379.329101 
L 1399.703146 372.921756 
L 1402.374829 372.424089 
L 1405.046512 380.329748 
L 1407.718194 357.532023 
L 1410.389877 348.78262 
L 1413.06156 345.332307 
L 1415.733242 371.763388 
L 1418.404925 363.036926 
L 1421.076607 371.549779 
L 1423.74829 362.248994 
L 1426.419973 357.922586 
L 1429.091655 369.385556 
L 1431.763338 369.726718 
L 1434.435021 352.343992 
L 1437.106703 371.716297 
L 1439.778386 356.730534 
L 1442.450068 358.211674 
L 1445.121751 360.044386 
L 1447.793434 365.059606 
L 1450.465116 357.66355 
L 1453.136799 357.547583 
L 1455.808482 380.461346 
L 1458.480164 361.516146 
L 1461.151847 350.35625 
L 1463.823529 368.441112 
L 1466.495212 356.833849 
L 1469.166895 356.142432 
L 1471.838577 381.212814 
L 1474.51026 367.930081 
L 1477.181943 352.7437 
L 1479.853625 357.433904 
L 1482.525308 357.745778 
L 1485.19699 342.475667 
L 1487.868673 349.585145 
L 1490.540356 376.811083 
L 1493.212038 369.985453 
L 1495.883721 359.479511 
L 1498.555404 359.164641 
L 1501.227086 350.181136 
L 1503.898769 349.269495 
L 1506.570451 371.210405 
L 1509.242134 376.314514 
L 1511.913817 370.641945 
L 1514.585499 354.117247 
L 1517.257182 370.168418 
L 1519.928865 376.881117 
L 1522.600547 373.604028 
L 1525.27223 368.93061 
L 1527.943912 366.276178 
L 1530.615595 346.400119 
L 1533.287278 358.573421 
L 1535.95896 359.289847 
L 1538.630643 359.146727 
L 1541.302326 359.175318 
L 1543.974008 352.583877 
L 1546.645691 353.687783 
L 1549.317373 359.270074 
L 1551.989056 359.481663 
L 1554.660739 364.639754 
L 1557.332421 364.780959 
L 1560.004104 364.724556 
L 1562.675787 355.427224 
L 1565.347469 369.805685 
L 1568.019152 387.29665 
L 1570.690834 378.818758 
L 1573.362517 378.320222 
L 1576.0342 373.803281 
L 1578.705882 388.2504 
L 1581.377565 388.848373 
L 1584.049248 395.913486 
L 1586.72093 357.304986 
L 1589.392613 355.751153 
L 1592.064295 334.857537 
L 1594.735978 336.141886 
L 1597.407661 357.082116 
L 1600.079343 348.03231 
L 1602.751026 350.629805 
L 1605.422709 350.077907 
L 1610.766074 350.010495 
L 1618.781122 350.007671 
L 1621.452804 349.879498 
L 1624.124487 345.91237 
L 1626.79617 336.204307 
L 1629.467852 351.537297 
L 1632.139535 352.26658 
L 1634.811218 352.120892 
L 1637.4829 377.431691 
L 1640.154583 377.920689 
L 1642.826265 377.823002 
L 1645.497948 386.468117 
L 1648.169631 390.072677 
L 1650.841313 390.169004 
L 1658.856361 390.152837 
L 1661.528044 348.882003 
L 1664.199726 348.354434 
L 1666.871409 329.693117 
L 1669.543092 330.248115 
L 1672.214774 348.143157 
L 1674.886457 348.850863 
L 1677.55814 376.444546 
L 1680.229822 349.662672 
L 1682.901505 351.438698 
L 1685.573187 351.807316 
L 1688.24487 333.004186 
L 1690.916553 356.113307 
L 1693.588235 347.176488 
L 1696.259918 341.241486 
L 1698.931601 352.456418 
L 1701.603283 352.956911 
L 1704.274966 372.680409 
L 1706.946648 373.21071 
L 1709.618331 358.305848 
L 1712.290014 353.525807 
L 1714.961696 361.817405 
L 1717.633379 343.200165 
L 1720.305062 342.325008 
L 1722.976744 347.514139 
L 1725.648427 346.655106 
L 1728.320109 343.052514 
L 1730.991792 345.295953 
L 1733.663475 345.423669 
L 1739.00684 345.403252 
L 1741.678523 378.697543 
L 1744.350205 350.70814 
L 1747.021888 358.599367 
L 1749.69357 343.517022 
L 1752.365253 371.037737 
L 1755.036936 352.321516 
L 1757.708618 358.242596 
L 1760.380301 361.665346 
L 1763.051984 363.464333 
L 1765.723666 377.601345 
L 1768.395349 378.183024 
L 1771.067031 378.066822 
L 1779.082079 378.086325 
L 1781.753762 385.594037 
L 1784.425445 380.409075 
L 1787.097127 380.211362 
L 1792.440492 380.242968 
L 1795.112175 372.341271 
L 1797.783858 370.379757 
L 1800.45554 358.388825 
L 1803.127223 357.911991 
L 1805.798906 365.626727 
L 1808.470588 352.978769 
L 1811.142271 352.271409 
L 1813.813953 358.864848 
L 1816.485636 376.772069 
L 1819.157319 388.208539 
L 1821.829001 388.525163 
L 1824.500684 365.767882 
L 1827.172367 365.196781 
L 1832.515732 336.186528 
L 1835.187415 335.712208 
L 1837.859097 369.894529 
L 1840.53078 365.600309 
L 1843.202462 358.602705 
L 1845.874145 340.840217 
L 1848.545828 340.138588 
L 1851.21751 333.951878 
L 1853.889193 350.21067 
L 1856.560876 350.891799 
L 1859.232558 350.75573 
L 1861.904241 350.782913 
L 1864.575923 344.054782 
L 1867.247606 365.659885 
L 1869.919289 354.03219 
L 1872.590971 368.791353 
L 1875.262654 371.212551 
L 1877.934337 370.544516 
L 1880.606019 370.537109 
L 1883.277702 382.988107 
L 1885.949384 383.307711 
L 1888.621067 352.387827 
L 1891.29275 370.151964 
L 1893.964432 371.008841 
L 1896.636115 370.837664 
L 1899.307798 370.871859 
L 1901.97948 382.617809 
L 1904.651163 378.040947 
L 1907.322845 383.179316 
L 1909.994528 371.944604 
L 1912.666211 348.700593 
L 1915.337893 347.845129 
L 1918.009576 377.552463 
L 1920.681259 378.278504 
L 1923.352941 382.212817 
L 1926.024624 350.252544 
L 1928.696306 348.989821 
L 1931.367989 349.242074 
L 1934.039672 349.191682 
L 1936.711354 327.771963 
L 1939.383037 357.016596 
L 1942.05472 358.111746 
L 1944.726402 367.59327 
L 1947.398085 350.009046 
L 1950.069767 354.728333 
L 1952.74145 355.135787 
L 1955.413133 355.05439 
L 1958.084815 365.343199 
L 1960.756498 363.05408 
L 1963.428181 372.746179 
L 1966.099863 373.175238 
L 1971.443228 373.106648 
L 1976.786594 373.103911 
L 1979.458276 397.744283 
L 1982.129959 381.740436 
L 1984.801642 381.126639 
L 1987.473324 378.569342 
L 1990.145007 380.659502 
L 1992.816689 358.826868 
L 1995.488372 356.392482 
L 1998.160055 379.602077 
L 2000.831737 360.95156 
L 2003.50342 351.221611 
L 2006.175103 345.443141 
L 2008.846785 345.237931 
L 2011.518468 345.278925 
L 2014.19015 368.626055 
L 2016.861833 367.552847 
L 2019.533516 353.899847 
L 2022.205198 371.803482 
L 2024.876881 373.352855 
L 2027.548564 377.724729 
L 2030.220246 358.7985 
L 2032.891929 341.826531 
L 2035.563611 350.052959 
L 2038.235294 373.169717 
L 2040.906977 374.035298 
L 2043.578659 373.862382 
L 2046.250342 368.96102 
L 2048.922025 359.50446 
L 2051.593707 353.652219 
L 2054.26539 374.134899 
L 2056.937073 375.815883 
L 2059.608755 360.849286 
L 2062.280438 358.747957 
L 2064.95212 358.80415 
L 2067.623803 367.474667 
L 2070.295486 376.911804 
L 2072.967168 377.226829 
L 2075.638851 365.055945 
L 2078.310534 364.762209 
L 2080.982216 340.698167 
L 2083.653899 365.103432 
L 2086.325581 366.380835 
L 2088.997264 366.173263 
L 2091.668947 366.214729 
L 2094.340629 360.641339 
L 2097.012312 360.534267 
L 2099.683995 378.005347 
L 2102.355677 352.445553 
L 2105.02736 351.373862 
L 2107.699042 371.949974 
L 2110.370725 360.450835 
L 2113.042408 346.734872 
L 2115.71409 369.013874 
L 2118.385773 373.48801 
L 2121.057456 371.752578 
L 2123.729138 358.463533 
L 2126.400821 352.800934 
L 2129.072503 368.456558 
L 2131.744186 357.318983 
L 2134.415869 365.828773 
L 2137.087551 371.849884 
L 2139.759234 364.471847 
L 2142.430917 376.257116 
L 2145.102599 383.21043 
L 2147.774282 383.364122 
L 2150.445964 373.130396 
L 2153.117647 372.874094 
L 2155.78933 385.964339 
L 2158.461012 352.687963 
L 2161.132695 369.392837 
L 2163.804378 382.747646 
L 2166.47606 354.517245 
L 2169.147743 368.200778 
L 2171.819425 354.019029 
L 2174.491108 336.447955 
L 2177.162791 355.165547 
L 2179.834473 372.990464 
L 2182.506156 378.055652 
L 2185.177839 377.101629 
L 2187.849521 382.060024 
L 2190.521204 382.285213 
L 2193.192886 384.647494 
L 2195.864569 365.315061 
L 2198.536252 372.737016 
L 2201.207934 373.231534 
L 2203.879617 368.800964 
L 2206.5513 369.899338 
L 2209.222982 374.430249 
L 2211.894665 366.809754 
L 2214.566347 376.629875 
L 2217.23803 366.905091 
L 2219.909713 355.704781 
L 2222.581395 341.417241 
L 2225.253078 340.894729 
L 2227.924761 333.869922 
L 2230.596443 333.275727 
L 2233.268126 351.871632 
L 2235.939808 358.276744 
L 2241.283174 358.345008 
L 2243.954856 364.242781 
L 2246.626539 362.373128 
L 2249.298222 365.263266 
L 2251.969904 362.548899 
L 2254.641587 361.538971 
L 2257.313269 366.612388 
L 2259.984952 351.043215 
L 2262.656635 351.270543 
L 2265.328317 352.237356 
L 2268 352.234219 
L 2270.671683 365.184997 
L 2270.671683 365.184997 
" clip-path="url(#pe2cd88d955)" style="fill: none; stroke: #ff0000; stroke-width: 1.8; stroke-linecap: square"/>
   </g>
   <g id="patch_3">
    <path d="M 315 640.8 
L 315 86.4 
" style="fill: none; stroke: #000000; stroke-width: 0.8; stroke-linejoin: miter; stroke-linecap: square"/>
   </g>
   <g id="patch_4">
    <path d="M 2268 640.8 
L 2268 86.4 
" style="fill: none; stroke: #000000; stroke-width: 0.8; stroke-linejoin: miter; stroke-linecap: square"/>
   </g>
   <g id="patch_5">
    <path d="M 315 640.8 
L 2268 640.8 
" style="fill: none; stroke: #000000; stroke-width: 0.8; stroke-linejoin: miter; stroke-linecap: square"/>
   </g>
   <g id="patch_6">
    <path d="M 315 86.4 
L 2268 86.4 
" style="fill: none; stroke: #000000; stroke-width: 0.8; stroke-linejoin: miter; stroke-linecap: square"/>
   </g>
   <g id="text_16">
    <!-- RSS: 0.0044 -->
    <g transform="translate(1230.317188 80.4) scale(0.2 -0.2)">
     <defs>
      <path id="DejaVuSans-52" d="M 2841 2188 
Q 3044 2119 3236 1894 
Q 3428 1669 3622 1275 
L 4263 0 
L 3584 0 
L 2988 1197 
Q 2756 1666 2539 1819 
Q 2322 1972 1947 1972 
L 1259 1972 
L 1259 0 
L 628 0 
L 628 4666 
L 2053 4666 
Q 2853 4666 3247 4331 
Q 3641 3997 3641 3322 
Q 3641 2881 3436 2590 
Q 3231 2300 2841 2188 
z
M 1259 4147 
L 1259 2491 
L 2053 2491 
Q 2509 2491 2742 2702 
Q 2975 2913 2975 3322 
Q 2975 3731 2742 3939 
Q 2509 4147 2053 4147 
L 1259 4147 
z
" transform="scale(0.015625)"/>
      <path id="DejaVuSans-53" d="M 3425 4513 
L 3425 3897 
Q 3066 4069 2747 4153 
Q 2428 4238 2131 4238 
Q 1616 4238 1336 4038 
Q 1056 3838 1056 3469 
Q 1056 3159 1242 3001 
Q 1428 2844 1947 2747 
L 2328 2669 
Q 3034 2534 3370 2195 
Q 3706 1856 3706 1288 
Q 3706 609 3251 259 
Q 2797 -91 1919 -91 
Q 1588 -91 1214 -16 
Q 841 59 441 206 
L 441 856 
Q 825 641 1194 531 
Q 1563 422 1919 422 
Q 2459 422 2753 634 
Q 3047 847 3047 1241 
Q 3047 1584 2836 1778 
Q 2625 1972 2144 2069 
L 1759 2144 
Q 1053 2284 737 2584 
Q 422 2884 422 3419 
Q 422 4038 858 4394 
Q 1294 4750 2059 4750 
Q 2388 4750 2728 4690 
Q 3069 4631 3425 4513 
z
" transform="scale(0.015625)"/>
      <path id="DejaVuSans-3a" d="M 750 794 
L 1409 794 
L 1409 0 
L 750 0 
L 750 794 
z
M 750 3309 
L 1409 3309 
L 1409 2516 
L 750 2516 
L 750 3309 
z
" transform="scale(0.015625)"/>
      <path id="DejaVuSans-20" transform="scale(0.015625)"/>
     </defs>
     <use xlink:href="#DejaVuSans-52"/>
     <use xlink:href="#DejaVuSans-53" x="69.482422"/>
     <use xlink:href="#DejaVuSans-53" x="132.958984"/>
     <use xlink:href="#DejaVuSans-3a" x="196.435547"/>
     <use xlink:href="#DejaVuSans-20" x="230.126953"/>
     <use xlink:href="#DejaVuSans-30" x="261.914062"/>
     <use xlink:href="#DejaVuSans-2e" x="325.537109"/>
     <use xlink:href="#DejaVuSans-30" x="357.324219"/>
     <use xlink:href="#DejaVuSans-30" x="420.947266"/>
     <use xlink:href="#DejaVuSans-34" x="484.570312"/>
     <use xlink:href="#DejaVuSans-34" x="548.193359"/>
    </g>
   </g>
   <g id="legend_1">
    <g id="patch_7">
     <path d="M 2128.292188 123.75625 
L 2261 123.75625 
Q 2263 123.75625 2263 121.75625 
L 2263 93.4 
Q 2263 91.4 2261 91.4 
L 2128.292188 91.4 
Q 2126.292188 91.4 2126.292188 93.4 
L 2126.292188 121.75625 
Q 2126.292188 123.75625 2128.292188 123.75625 
z
" style="fill: #ffffff; opacity: 0.8; stroke: #cccccc; stroke-linejoin: miter"/>
    </g>
    <g id="line2d_16">
     <path d="M 2130.292188 99.498437 
L 2140.292188 99.498437 
L 2150.292188 99.498437 
" style="fill: none; stroke: #008000; stroke-linecap: square"/>
    </g>
    <g id="text_17">
     <!-- Original Time Series -->
     <g transform="translate(2158.292188 102.998437) scale(0.1 -0.1)">
      <defs>
       <path id="DejaVuSans-4f" d="M 2522 4238 
Q 1834 4238 1429 3725 
Q 1025 3213 1025 2328 
Q 1025 1447 1429 934 
Q 1834 422 2522 422 
Q 3209 422 3611 934 
Q 4013 1447 4013 2328 
Q 4013 3213 3611 3725 
Q 3209 4238 2522 4238 
z
M 2522 4750 
Q 3503 4750 4090 4092 
Q 4678 3434 4678 2328 
Q 4678 1225 4090 567 
Q 3503 -91 2522 -91 
Q 1538 -91 948 565 
Q 359 1222 359 2328 
Q 359 3434 948 4092 
Q 1538 4750 2522 4750 
z
" transform="scale(0.015625)"/>
       <path id="DejaVuSans-67" d="M 2906 1791 
Q 2906 2416 2648 2759 
Q 2391 3103 1925 3103 
Q 1463 3103 1205 2759 
Q 947 2416 947 1791 
Q 947 1169 1205 825 
Q 1463 481 1925 481 
Q 2391 481 2648 825 
Q 2906 1169 2906 1791 
z
M 3481 434 
Q 3481 -459 3084 -895 
Q 2688 -1331 1869 -1331 
Q 1566 -1331 1297 -1286 
Q 1028 -1241 775 -1147 
L 775 -588 
Q 1028 -725 1275 -790 
Q 1522 -856 1778 -856 
Q 2344 -856 2625 -561 
Q 2906 -266 2906 331 
L 2906 616 
Q 2728 306 2450 153 
Q 2172 0 1784 0 
Q 1141 0 747 490 
Q 353 981 353 1791 
Q 353 2603 747 3093 
Q 1141 3584 1784 3584 
Q 2172 3584 2450 3431 
Q 2728 3278 2906 2969 
L 2906 3500 
L 3481 3500 
L 3481 434 
z
" transform="scale(0.015625)"/>
       <path id="DejaVuSans-6e" d="M 3513 2113 
L 3513 0 
L 2938 0 
L 2938 2094 
Q 2938 2591 2744 2837 
Q 2550 3084 2163 3084 
Q 1697 3084 1428 2787 
Q 1159 2491 1159 1978 
L 1159 0 
L 581 0 
L 581 3500 
L 1159 3500 
L 1159 2956 
Q 1366 3272 1645 3428 
Q 1925 3584 2291 3584 
Q 2894 3584 3203 3211 
Q 3513 2838 3513 2113 
z
" transform="scale(0.015625)"/>
       <path id="DejaVuSans-61" d="M 2194 1759 
Q 1497 1759 1228 1600 
Q 959 1441 959 1056 
Q 959 750 1161 570 
Q 1363 391 1709 391 
Q 2188 391 2477 730 
Q 2766 1069 2766 1631 
L 2766 1759 
L 2194 1759 
z
M 3341 1997 
L 3341 0 
L 2766 0 
L 2766 531 
Q 2569 213 2275 61 
Q 1981 -91 1556 -91 
Q 1019 -91 701 211 
Q 384 513 384 1019 
Q 384 1609 779 1909 
Q 1175 2209 1959 2209 
L 2766 2209 
L 2766 2266 
Q 2766 2663 2505 2880 
Q 2244 3097 1772 3097 
Q 1472 3097 1187 3025 
Q 903 2953 641 2809 
L 641 3341 
Q 956 3463 1253 3523 
Q 1550 3584 1831 3584 
Q 2591 3584 2966 3190 
Q 3341 2797 3341 1997 
z
" transform="scale(0.015625)"/>
       <path id="DejaVuSans-6c" d="M 603 4863 
L 1178 4863 
L 1178 0 
L 603 0 
L 603 4863 
z
" transform="scale(0.015625)"/>
       <path id="DejaVuSans-73" d="M 2834 3397 
L 2834 2853 
Q 2591 2978 2328 3040 
Q 2066 3103 1784 3103 
Q 1356 3103 1142 2972 
Q 928 2841 928 2578 
Q 928 2378 1081 2264 
Q 1234 2150 1697 2047 
L 1894 2003 
Q 2506 1872 2764 1633 
Q 3022 1394 3022 966 
Q 3022 478 2636 193 
Q 2250 -91 1575 -91 
Q 1294 -91 989 -36 
Q 684 19 347 128 
L 347 722 
Q 666 556 975 473 
Q 1284 391 1588 391 
Q 1994 391 2212 530 
Q 2431 669 2431 922 
Q 2431 1156 2273 1281 
Q 2116 1406 1581 1522 
L 1381 1569 
Q 847 1681 609 1914 
Q 372 2147 372 2553 
Q 372 3047 722 3315 
Q 1072 3584 1716 3584 
Q 2034 3584 2315 3537 
Q 2597 3491 2834 3397 
z
" transform="scale(0.015625)"/>
      </defs>
      <use xlink:href="#DejaVuSans-4f"/>
      <use xlink:href="#DejaVuSans-72" x="78.710938"/>
      <use xlink:href="#DejaVuSans-69" x="119.824219"/>
      <use xlink:href="#DejaVuSans-67" x="147.607422"/>
      <use xlink:href="#DejaVuSans-69" x="211.083984"/>
      <use xlink:href="#DejaVuSans-6e" x="238.867188"/>
      <use xlink:href="#DejaVuSans-61" x="302.246094"/>
      <use xlink:href="#DejaVuSans-6c" x="363.525391"/>
      <use xlink:href="#DejaVuSans-20" x="391.308594"/>
      <use xlink:href="#DejaVuSans-54" x="423.095703"/>
      <use xlink:href="#DejaVuSans-69" x="481.054688"/>
      <use xlink:href="#DejaVuSans-6d" x="508.837891"/>
      <use xlink:href="#DejaVuSans-65" x="606.25"/>
      <use xlink:href="#DejaVuSans-20" x="667.773438"/>
      <use xlink:href="#DejaVuSans-53" x="699.560547"/>
      <use xlink:href="#DejaVuSans-65" x="763.037109"/>
      <use xlink:href="#DejaVuSans-72" x="824.560547"/>
      <use xlink:href="#DejaVuSans-69" x="865.673828"/>
      <use xlink:href="#DejaVuSans-65" x="893.457031"/>
      <use xlink:href="#DejaVuSans-73" x="954.980469"/>
     </g>
    </g>
    <g id="line2d_17">
     <path d="M 2130.292188 114.176562 
L 2140.292188 114.176562 
L 2150.292188 114.176562 
" style="fill: none; stroke: #ff0000; stroke-width: 1.8; stroke-linecap: square"/>
    </g>
    <g id="text_18">
     <!-- Fitted Values -->
     <g transform="translate(2158.292188 117.676562) scale(0.1 -0.1)">
      <defs>
       <path id="DejaVuSans-46" d="M 628 4666 
L 3309 4666 
L 3309 4134 
L 1259 4134 
L 1259 2759 
L 3109 2759 
L 3109 2228 
L 1259 2228 
L 1259 0 
L 628 0 
L 628 4666 
z
" transform="scale(0.015625)"/>
       <path id="DejaVuSans-64" d="M 2906 2969 
L 2906 4863 
L 3481 4863 
L 3481 0 
L 2906 0 
L 2906 525 
Q 2725 213 2448 61 
Q 2172 -91 1784 -91 
Q 1150 -91 751 415 
Q 353 922 353 1747 
Q 353 2572 751 3078 
Q 1150 3584 1784 3584 
Q 2172 3584 2448 3432 
Q 2725 3281 2906 2969 
z
M 947 1747 
Q 947 1113 1208 752 
Q 1469 391 1925 391 
Q 2381 391 2643 752 
Q 2906 1113 2906 1747 
Q 2906 2381 2643 2742 
Q 2381 3103 1925 3103 
Q 1469 3103 1208 2742 
Q 947 2381 947 1747 
z
" transform="scale(0.015625)"/>
       <path id="DejaVuSans-56" d="M 1831 0 
L 50 4666 
L 709 4666 
L 2188 738 
L 3669 4666 
L 4325 4666 
L 2547 0 
L 1831 0 
z
" transform="scale(0.015625)"/>
       <path id="DejaVuSans-75" d="M 544 1381 
L 544 3500 
L 1119 3500 
L 1119 1403 
Q 1119 906 1312 657 
Q 1506 409 1894 409 
Q 2359 409 2629 706 
Q 2900 1003 2900 1516 
L 2900 3500 
L 3475 3500 
L 3475 0 
L 2900 0 
L 2900 538 
Q 2691 219 2414 64 
Q 2138 -91 1772 -91 
Q 1169 -91 856 284 
Q 544 659 544 1381 
z
M 1991 3584 
L 1991 3584 
z
" transform="scale(0.015625)"/>
      </defs>
      <use xlink:href="#DejaVuSans-46"/>
      <use xlink:href="#DejaVuSans-69" x="50.269531"/>
      <use xlink:href="#DejaVuSans-74" x="78.052734"/>
      <use xlink:href="#DejaVuSans-74" x="117.261719"/>
      <use xlink:href="#DejaVuSans-65" x="156.470703"/>
      <use xlink:href="#DejaVuSans-64" x="217.994141"/>
      <use xlink:href="#DejaVuSans-20" x="281.470703"/>
      <use xlink:href="#DejaVuSans-56" x="313.257812"/>
      <use xlink:href="#DejaVuSans-61" x="373.916016"/>
      <use xlink:href="#DejaVuSans-6c" x="435.195312"/>
      <use xlink:href="#DejaVuSans-75" x="462.978516"/>
      <use xlink:href="#DejaVuSans-65" x="526.357422"/>
      <use xlink:href="#DejaVuSans-73" x="587.880859"/>
     </g>
    </g>
   </g>
  </g>
 </g>
 <defs>
  <clipPath id="pe2cd88d955">
   <rect x="315" y="86.4" width="1953" height="554.4"/>
  </clipPath>
 </defs>
</svg>
