<?xml version="1.0" encoding="utf-8" standalone="no"?>
<!DOCTYPE svg PUBLIC "-//W3C//DTD SVG 1.1//EN"
  "http://www.w3.org/Graphics/SVG/1.1/DTD/svg11.dtd">
<svg xmlns:xlink="http://www.w3.org/1999/xlink" width="2520pt" height="720pt" viewBox="0 0 2520 720" xmlns="http://www.w3.org/2000/svg" version="1.1">
 <metadata>
  <rdf:RDF xmlns:dc="http://purl.org/dc/elements/1.1/" xmlns:cc="http://creativecommons.org/ns#" xmlns:rdf="http://www.w3.org/1999/02/22-rdf-syntax-ns#">
   <cc:Work>
    <dc:type rdf:resource="http://purl.org/dc/dcmitype/StillImage"/>
    <dc:date>2024-02-08T11:39:32.592705</dc:date>
    <dc:format>image/svg+xml</dc:format>
    <dc:creator>
     <cc:Agent>
      <dc:title>Matplotlib v3.7.1, https://matplotlib.org/</dc:title>
     </cc:Agent>
    </dc:creator>
   </cc:Work>
  </rdf:RDF>
 </metadata>
 <defs>
  <style type="text/css">*{stroke-linejoin: round; stroke-linecap: butt}</style>
 </defs>
 <g id="figure_1">
  <g id="patch_1">
   <path d="M 0 720 
L 2520 720 
L 2520 0 
L 0 0 
z
" style="fill: #ffffff"/>
  </g>
  <g id="axes_1">
   <g id="patch_2">
    <path d="M 315 640.8 
L 2268 640.8 
L 2268 86.4 
L 315 86.4 
z
" style="fill: #ffffff"/>
   </g>
   <g id="matplotlib.axis_1">
    <g id="xtick_1">
     <g id="line2d_1">
      <defs>
       <path id="m94e7bd8de2" d="M 0 0 
L 0 3.5 
" style="stroke: #000000; stroke-width: 0.8"/>
      </defs>
      <g>
       <use xlink:href="#m94e7bd8de2" x="520.719562" y="640.8" style="stroke: #000000; stroke-width: 0.8"/>
      </g>
     </g>
     <g id="text_1">
      <!-- 2012-04 -->
      <g transform="translate(489.382453 659.197656) scale(0.15 -0.15)">
       <defs>
        <path id="DejaVuSans-32" d="M 1228 531 
L 3431 531 
L 3431 0 
L 469 0 
L 469 531 
Q 828 903 1448 1529 
Q 2069 2156 2228 2338 
Q 2531 2678 2651 2914 
Q 2772 3150 2772 3378 
Q 2772 3750 2511 3984 
Q 2250 4219 1831 4219 
Q 1534 4219 1204 4116 
Q 875 4013 500 3803 
L 500 4441 
Q 881 4594 1212 4672 
Q 1544 4750 1819 4750 
Q 2544 4750 2975 4387 
Q 3406 4025 3406 3419 
Q 3406 3131 3298 2873 
Q 3191 2616 2906 2266 
Q 2828 2175 2409 1742 
Q 1991 1309 1228 531 
z
" transform="scale(0.015625)"/>
        <path id="DejaVuSans-30" d="M 2034 4250 
Q 1547 4250 1301 3770 
Q 1056 3291 1056 2328 
Q 1056 1369 1301 889 
Q 1547 409 2034 409 
Q 2525 409 2770 889 
Q 3016 1369 3016 2328 
Q 3016 3291 2770 3770 
Q 2525 4250 2034 4250 
z
M 2034 4750 
Q 2819 4750 3233 4129 
Q 3647 3509 3647 2328 
Q 3647 1150 3233 529 
Q 2819 -91 2034 -91 
Q 1250 -91 836 529 
Q 422 1150 422 2328 
Q 422 3509 836 4129 
Q 1250 4750 2034 4750 
z
" transform="scale(0.015625)"/>
        <path id="DejaVuSans-31" d="M 794 531 
L 1825 531 
L 1825 4091 
L 703 3866 
L 703 4441 
L 1819 4666 
L 2450 4666 
L 2450 531 
L 3481 531 
L 3481 0 
L 794 0 
L 794 531 
z
" transform="scale(0.015625)"/>
        <path id="DejaVuSans-2d" d="M 313 2009 
L 1997 2009 
L 1997 1497 
L 313 1497 
L 313 2009 
z
" transform="scale(0.015625)"/>
        <path id="DejaVuSans-34" d="M 2419 4116 
L 825 1625 
L 2419 1625 
L 2419 4116 
z
M 2253 4666 
L 3047 4666 
L 3047 1625 
L 3713 1625 
L 3713 1100 
L 3047 1100 
L 3047 0 
L 2419 0 
L 2419 1100 
L 313 1100 
L 313 1709 
L 2253 4666 
z
" transform="scale(0.015625)"/>
       </defs>
       <use xlink:href="#DejaVuSans-32"/>
       <use xlink:href="#DejaVuSans-30" x="63.623047"/>
       <use xlink:href="#DejaVuSans-31" x="127.246094"/>
       <use xlink:href="#DejaVuSans-32" x="190.869141"/>
       <use xlink:href="#DejaVuSans-2d" x="254.492188"/>
       <use xlink:href="#DejaVuSans-30" x="290.576172"/>
       <use xlink:href="#DejaVuSans-34" x="354.199219"/>
      </g>
     </g>
    </g>
    <g id="xtick_2">
     <g id="line2d_2">
      <g>
       <use xlink:href="#m94e7bd8de2" x="763.842681" y="640.8" style="stroke: #000000; stroke-width: 0.8"/>
      </g>
     </g>
     <g id="text_2">
      <!-- 2012-07 -->
      <g transform="translate(732.505572 659.197656) scale(0.15 -0.15)">
       <defs>
        <path id="DejaVuSans-37" d="M 525 4666 
L 3525 4666 
L 3525 4397 
L 1831 0 
L 1172 0 
L 2766 4134 
L 525 4134 
L 525 4666 
z
" transform="scale(0.015625)"/>
       </defs>
       <use xlink:href="#DejaVuSans-32"/>
       <use xlink:href="#DejaVuSans-30" x="63.623047"/>
       <use xlink:href="#DejaVuSans-31" x="127.246094"/>
       <use xlink:href="#DejaVuSans-32" x="190.869141"/>
       <use xlink:href="#DejaVuSans-2d" x="254.492188"/>
       <use xlink:href="#DejaVuSans-30" x="290.576172"/>
       <use xlink:href="#DejaVuSans-37" x="354.199219"/>
      </g>
     </g>
    </g>
    <g id="xtick_3">
     <g id="line2d_3">
      <g>
       <use xlink:href="#m94e7bd8de2" x="1009.637483" y="640.8" style="stroke: #000000; stroke-width: 0.8"/>
      </g>
     </g>
     <g id="text_3">
      <!-- 2012-10 -->
      <g transform="translate(978.300374 659.197656) scale(0.15 -0.15)">
       <use xlink:href="#DejaVuSans-32"/>
       <use xlink:href="#DejaVuSans-30" x="63.623047"/>
       <use xlink:href="#DejaVuSans-31" x="127.246094"/>
       <use xlink:href="#DejaVuSans-32" x="190.869141"/>
       <use xlink:href="#DejaVuSans-2d" x="254.492188"/>
       <use xlink:href="#DejaVuSans-31" x="290.576172"/>
       <use xlink:href="#DejaVuSans-30" x="354.199219"/>
      </g>
     </g>
    </g>
    <g id="xtick_4">
     <g id="line2d_4">
      <g>
       <use xlink:href="#m94e7bd8de2" x="1255.432285" y="640.8" style="stroke: #000000; stroke-width: 0.8"/>
      </g>
     </g>
     <g id="text_4">
      <!-- 2013-01 -->
      <g transform="translate(1224.095175 659.197656) scale(0.15 -0.15)">
       <defs>
        <path id="DejaVuSans-33" d="M 2597 2516 
Q 3050 2419 3304 2112 
Q 3559 1806 3559 1356 
Q 3559 666 3084 287 
Q 2609 -91 1734 -91 
Q 1441 -91 1130 -33 
Q 819 25 488 141 
L 488 750 
Q 750 597 1062 519 
Q 1375 441 1716 441 
Q 2309 441 2620 675 
Q 2931 909 2931 1356 
Q 2931 1769 2642 2001 
Q 2353 2234 1838 2234 
L 1294 2234 
L 1294 2753 
L 1863 2753 
Q 2328 2753 2575 2939 
Q 2822 3125 2822 3475 
Q 2822 3834 2567 4026 
Q 2313 4219 1838 4219 
Q 1578 4219 1281 4162 
Q 984 4106 628 3988 
L 628 4550 
Q 988 4650 1302 4700 
Q 1616 4750 1894 4750 
Q 2613 4750 3031 4423 
Q 3450 4097 3450 3541 
Q 3450 3153 3228 2886 
Q 3006 2619 2597 2516 
z
" transform="scale(0.015625)"/>
       </defs>
       <use xlink:href="#DejaVuSans-32"/>
       <use xlink:href="#DejaVuSans-30" x="63.623047"/>
       <use xlink:href="#DejaVuSans-31" x="127.246094"/>
       <use xlink:href="#DejaVuSans-33" x="190.869141"/>
       <use xlink:href="#DejaVuSans-2d" x="254.492188"/>
       <use xlink:href="#DejaVuSans-30" x="290.576172"/>
       <use xlink:href="#DejaVuSans-31" x="354.199219"/>
      </g>
     </g>
    </g>
    <g id="xtick_5">
     <g id="line2d_5">
      <g>
       <use xlink:href="#m94e7bd8de2" x="1495.883721" y="640.8" style="stroke: #000000; stroke-width: 0.8"/>
      </g>
     </g>
     <g id="text_5">
      <!-- 2013-04 -->
      <g transform="translate(1464.546612 659.197656) scale(0.15 -0.15)">
       <use xlink:href="#DejaVuSans-32"/>
       <use xlink:href="#DejaVuSans-30" x="63.623047"/>
       <use xlink:href="#DejaVuSans-31" x="127.246094"/>
       <use xlink:href="#DejaVuSans-33" x="190.869141"/>
       <use xlink:href="#DejaVuSans-2d" x="254.492188"/>
       <use xlink:href="#DejaVuSans-30" x="290.576172"/>
       <use xlink:href="#DejaVuSans-34" x="354.199219"/>
      </g>
     </g>
    </g>
    <g id="xtick_6">
     <g id="line2d_6">
      <g>
       <use xlink:href="#m94e7bd8de2" x="1739.00684" y="640.8" style="stroke: #000000; stroke-width: 0.8"/>
      </g>
     </g>
     <g id="text_6">
      <!-- 2013-07 -->
      <g transform="translate(1707.669731 659.197656) scale(0.15 -0.15)">
       <use xlink:href="#DejaVuSans-32"/>
       <use xlink:href="#DejaVuSans-30" x="63.623047"/>
       <use xlink:href="#DejaVuSans-31" x="127.246094"/>
       <use xlink:href="#DejaVuSans-33" x="190.869141"/>
       <use xlink:href="#DejaVuSans-2d" x="254.492188"/>
       <use xlink:href="#DejaVuSans-30" x="290.576172"/>
       <use xlink:href="#DejaVuSans-37" x="354.199219"/>
      </g>
     </g>
    </g>
    <g id="xtick_7">
     <g id="line2d_7">
      <g>
       <use xlink:href="#m94e7bd8de2" x="1984.801642" y="640.8" style="stroke: #000000; stroke-width: 0.8"/>
      </g>
     </g>
     <g id="text_7">
      <!-- 2013-10 -->
      <g transform="translate(1953.464532 659.197656) scale(0.15 -0.15)">
       <use xlink:href="#DejaVuSans-32"/>
       <use xlink:href="#DejaVuSans-30" x="63.623047"/>
       <use xlink:href="#DejaVuSans-31" x="127.246094"/>
       <use xlink:href="#DejaVuSans-33" x="190.869141"/>
       <use xlink:href="#DejaVuSans-2d" x="254.492188"/>
       <use xlink:href="#DejaVuSans-31" x="290.576172"/>
       <use xlink:href="#DejaVuSans-30" x="354.199219"/>
      </g>
     </g>
    </g>
    <g id="xtick_8">
     <g id="line2d_8">
      <g>
       <use xlink:href="#m94e7bd8de2" x="2230.596443" y="640.8" style="stroke: #000000; stroke-width: 0.8"/>
      </g>
     </g>
     <g id="text_8">
      <!-- 2014-01 -->
      <g transform="translate(2199.259334 659.197656) scale(0.15 -0.15)">
       <use xlink:href="#DejaVuSans-32"/>
       <use xlink:href="#DejaVuSans-30" x="63.623047"/>
       <use xlink:href="#DejaVuSans-31" x="127.246094"/>
       <use xlink:href="#DejaVuSans-34" x="190.869141"/>
       <use xlink:href="#DejaVuSans-2d" x="254.492188"/>
       <use xlink:href="#DejaVuSans-30" x="290.576172"/>
       <use xlink:href="#DejaVuSans-31" x="354.199219"/>
      </g>
     </g>
    </g>
    <g id="text_9">
     <!-- Time -->
     <g transform="translate(1267.032813 681.514063) scale(0.2 -0.2)">
      <defs>
       <path id="DejaVuSans-54" d="M -19 4666 
L 3928 4666 
L 3928 4134 
L 2272 4134 
L 2272 0 
L 1638 0 
L 1638 4134 
L -19 4134 
L -19 4666 
z
" transform="scale(0.015625)"/>
       <path id="DejaVuSans-69" d="M 603 3500 
L 1178 3500 
L 1178 0 
L 603 0 
L 603 3500 
z
M 603 4863 
L 1178 4863 
L 1178 4134 
L 603 4134 
L 603 4863 
z
" transform="scale(0.015625)"/>
       <path id="DejaVuSans-6d" d="M 3328 2828 
Q 3544 3216 3844 3400 
Q 4144 3584 4550 3584 
Q 5097 3584 5394 3201 
Q 5691 2819 5691 2113 
L 5691 0 
L 5113 0 
L 5113 2094 
Q 5113 2597 4934 2840 
Q 4756 3084 4391 3084 
Q 3944 3084 3684 2787 
Q 3425 2491 3425 1978 
L 3425 0 
L 2847 0 
L 2847 2094 
Q 2847 2600 2669 2842 
Q 2491 3084 2119 3084 
Q 1678 3084 1418 2786 
Q 1159 2488 1159 1978 
L 1159 0 
L 581 0 
L 581 3500 
L 1159 3500 
L 1159 2956 
Q 1356 3278 1631 3431 
Q 1906 3584 2284 3584 
Q 2666 3584 2933 3390 
Q 3200 3197 3328 2828 
z
" transform="scale(0.015625)"/>
       <path id="DejaVuSans-65" d="M 3597 1894 
L 3597 1613 
L 953 1613 
Q 991 1019 1311 708 
Q 1631 397 2203 397 
Q 2534 397 2845 478 
Q 3156 559 3463 722 
L 3463 178 
Q 3153 47 2828 -22 
Q 2503 -91 2169 -91 
Q 1331 -91 842 396 
Q 353 884 353 1716 
Q 353 2575 817 3079 
Q 1281 3584 2069 3584 
Q 2775 3584 3186 3129 
Q 3597 2675 3597 1894 
z
M 3022 2063 
Q 3016 2534 2758 2815 
Q 2500 3097 2075 3097 
Q 1594 3097 1305 2825 
Q 1016 2553 972 2059 
L 3022 2063 
z
" transform="scale(0.015625)"/>
      </defs>
      <use xlink:href="#DejaVuSans-54"/>
      <use xlink:href="#DejaVuSans-69" x="57.958984"/>
      <use xlink:href="#DejaVuSans-6d" x="85.742188"/>
      <use xlink:href="#DejaVuSans-65" x="183.154297"/>
     </g>
    </g>
   </g>
   <g id="matplotlib.axis_2">
    <g id="ytick_1">
     <g id="line2d_9">
      <defs>
       <path id="m283327dfdc" d="M 0 0 
L -3.5 0 
" style="stroke: #000000; stroke-width: 0.8"/>
      </defs>
      <g>
       <use xlink:href="#m283327dfdc" x="315" y="640.8" style="stroke: #000000; stroke-width: 0.8"/>
      </g>
     </g>
     <g id="text_10">
      <!-- −0.00100 -->
      <g transform="translate(233.400781 646.498828) scale(0.15 -0.15)">
       <defs>
        <path id="DejaVuSans-2212" d="M 678 2272 
L 4684 2272 
L 4684 1741 
L 678 1741 
L 678 2272 
z
" transform="scale(0.015625)"/>
        <path id="DejaVuSans-2e" d="M 684 794 
L 1344 794 
L 1344 0 
L 684 0 
L 684 794 
z
" transform="scale(0.015625)"/>
       </defs>
       <use xlink:href="#DejaVuSans-2212"/>
       <use xlink:href="#DejaVuSans-30" x="83.789062"/>
       <use xlink:href="#DejaVuSans-2e" x="147.412109"/>
       <use xlink:href="#DejaVuSans-30" x="179.199219"/>
       <use xlink:href="#DejaVuSans-30" x="242.822266"/>
       <use xlink:href="#DejaVuSans-31" x="306.445312"/>
       <use xlink:href="#DejaVuSans-30" x="370.068359"/>
       <use xlink:href="#DejaVuSans-30" x="433.691406"/>
      </g>
     </g>
    </g>
    <g id="ytick_2">
     <g id="line2d_10">
      <g>
       <use xlink:href="#m283327dfdc" x="315" y="571.5" style="stroke: #000000; stroke-width: 0.8"/>
      </g>
     </g>
     <g id="text_11">
      <!-- −0.00075 -->
      <g transform="translate(233.400781 577.198828) scale(0.15 -0.15)">
       <defs>
        <path id="DejaVuSans-35" d="M 691 4666 
L 3169 4666 
L 3169 4134 
L 1269 4134 
L 1269 2991 
Q 1406 3038 1543 3061 
Q 1681 3084 1819 3084 
Q 2600 3084 3056 2656 
Q 3513 2228 3513 1497 
Q 3513 744 3044 326 
Q 2575 -91 1722 -91 
Q 1428 -91 1123 -41 
Q 819 9 494 109 
L 494 744 
Q 775 591 1075 516 
Q 1375 441 1709 441 
Q 2250 441 2565 725 
Q 2881 1009 2881 1497 
Q 2881 1984 2565 2268 
Q 2250 2553 1709 2553 
Q 1456 2553 1204 2497 
Q 953 2441 691 2322 
L 691 4666 
z
" transform="scale(0.015625)"/>
       </defs>
       <use xlink:href="#DejaVuSans-2212"/>
       <use xlink:href="#DejaVuSans-30" x="83.789062"/>
       <use xlink:href="#DejaVuSans-2e" x="147.412109"/>
       <use xlink:href="#DejaVuSans-30" x="179.199219"/>
       <use xlink:href="#DejaVuSans-30" x="242.822266"/>
       <use xlink:href="#DejaVuSans-30" x="306.445312"/>
       <use xlink:href="#DejaVuSans-37" x="370.068359"/>
       <use xlink:href="#DejaVuSans-35" x="433.691406"/>
      </g>
     </g>
    </g>
    <g id="ytick_3">
     <g id="line2d_11">
      <g>
       <use xlink:href="#m283327dfdc" x="315" y="502.2" style="stroke: #000000; stroke-width: 0.8"/>
      </g>
     </g>
     <g id="text_12">
      <!-- −0.00050 -->
      <g transform="translate(233.400781 507.898828) scale(0.15 -0.15)">
       <use xlink:href="#DejaVuSans-2212"/>
       <use xlink:href="#DejaVuSans-30" x="83.789062"/>
       <use xlink:href="#DejaVuSans-2e" x="147.412109"/>
       <use xlink:href="#DejaVuSans-30" x="179.199219"/>
       <use xlink:href="#DejaVuSans-30" x="242.822266"/>
       <use xlink:href="#DejaVuSans-30" x="306.445312"/>
       <use xlink:href="#DejaVuSans-35" x="370.068359"/>
       <use xlink:href="#DejaVuSans-30" x="433.691406"/>
      </g>
     </g>
    </g>
    <g id="ytick_4">
     <g id="line2d_12">
      <g>
       <use xlink:href="#m283327dfdc" x="315" y="432.9" style="stroke: #000000; stroke-width: 0.8"/>
      </g>
     </g>
     <g id="text_13">
      <!-- −0.00025 -->
      <g transform="translate(233.400781 438.598828) scale(0.15 -0.15)">
       <use xlink:href="#DejaVuSans-2212"/>
       <use xlink:href="#DejaVuSans-30" x="83.789062"/>
       <use xlink:href="#DejaVuSans-2e" x="147.412109"/>
       <use xlink:href="#DejaVuSans-30" x="179.199219"/>
       <use xlink:href="#DejaVuSans-30" x="242.822266"/>
       <use xlink:href="#DejaVuSans-30" x="306.445312"/>
       <use xlink:href="#DejaVuSans-32" x="370.068359"/>
       <use xlink:href="#DejaVuSans-35" x="433.691406"/>
      </g>
     </g>
    </g>
    <g id="ytick_5">
     <g id="line2d_13">
      <g>
       <use xlink:href="#m283327dfdc" x="315" y="363.6" style="stroke: #000000; stroke-width: 0.8"/>
      </g>
     </g>
     <g id="text_14">
      <!-- 0.00000 -->
      <g transform="translate(245.970313 369.298828) scale(0.15 -0.15)">
       <use xlink:href="#DejaVuSans-30"/>
       <use xlink:href="#DejaVuSans-2e" x="63.623047"/>
       <use xlink:href="#DejaVuSans-30" x="95.410156"/>
       <use xlink:href="#DejaVuSans-30" x="159.033203"/>
       <use xlink:href="#DejaVuSans-30" x="222.65625"/>
       <use xlink:href="#DejaVuSans-30" x="286.279297"/>
       <use xlink:href="#DejaVuSans-30" x="349.902344"/>
      </g>
     </g>
    </g>
    <g id="ytick_6">
     <g id="line2d_14">
      <g>
       <use xlink:href="#m283327dfdc" x="315" y="294.3" style="stroke: #000000; stroke-width: 0.8"/>
      </g>
     </g>
     <g id="text_15">
      <!-- 0.00025 -->
      <g transform="translate(245.970313 299.998828) scale(0.15 -0.15)">
       <use xlink:href="#DejaVuSans-30"/>
       <use xlink:href="#DejaVuSans-2e" x="63.623047"/>
       <use xlink:href="#DejaVuSans-30" x="95.410156"/>
       <use xlink:href="#DejaVuSans-30" x="159.033203"/>
       <use xlink:href="#DejaVuSans-30" x="222.65625"/>
       <use xlink:href="#DejaVuSans-32" x="286.279297"/>
       <use xlink:href="#DejaVuSans-35" x="349.902344"/>
      </g>
     </g>
    </g>
    <g id="ytick_7">
     <g id="line2d_15">
      <g>
       <use xlink:href="#m283327dfdc" x="315" y="225" style="stroke: #000000; stroke-width: 0.8"/>
      </g>
     </g>
     <g id="text_16">
      <!-- 0.00050 -->
      <g transform="translate(245.970313 230.698828) scale(0.15 -0.15)">
       <use xlink:href="#DejaVuSans-30"/>
       <use xlink:href="#DejaVuSans-2e" x="63.623047"/>
       <use xlink:href="#DejaVuSans-30" x="95.410156"/>
       <use xlink:href="#DejaVuSans-30" x="159.033203"/>
       <use xlink:href="#DejaVuSans-30" x="222.65625"/>
       <use xlink:href="#DejaVuSans-35" x="286.279297"/>
       <use xlink:href="#DejaVuSans-30" x="349.902344"/>
      </g>
     </g>
    </g>
    <g id="ytick_8">
     <g id="line2d_16">
      <g>
       <use xlink:href="#m283327dfdc" x="315" y="155.7" style="stroke: #000000; stroke-width: 0.8"/>
      </g>
     </g>
     <g id="text_17">
      <!-- 0.00075 -->
      <g transform="translate(245.970313 161.398828) scale(0.15 -0.15)">
       <use xlink:href="#DejaVuSans-30"/>
       <use xlink:href="#DejaVuSans-2e" x="63.623047"/>
       <use xlink:href="#DejaVuSans-30" x="95.410156"/>
       <use xlink:href="#DejaVuSans-30" x="159.033203"/>
       <use xlink:href="#DejaVuSans-30" x="222.65625"/>
       <use xlink:href="#DejaVuSans-37" x="286.279297"/>
       <use xlink:href="#DejaVuSans-35" x="349.902344"/>
      </g>
     </g>
    </g>
    <g id="ytick_9">
     <g id="line2d_17">
      <g>
       <use xlink:href="#m283327dfdc" x="315" y="86.4" style="stroke: #000000; stroke-width: 0.8"/>
      </g>
     </g>
     <g id="text_18">
      <!-- 0.00100 -->
      <g transform="translate(245.970313 92.098828) scale(0.15 -0.15)">
       <use xlink:href="#DejaVuSans-30"/>
       <use xlink:href="#DejaVuSans-2e" x="63.623047"/>
       <use xlink:href="#DejaVuSans-30" x="95.410156"/>
       <use xlink:href="#DejaVuSans-30" x="159.033203"/>
       <use xlink:href="#DejaVuSans-31" x="222.65625"/>
       <use xlink:href="#DejaVuSans-30" x="286.279297"/>
       <use xlink:href="#DejaVuSans-30" x="349.902344"/>
      </g>
     </g>
    </g>
    <g id="text_19">
     <!-- North(m) -->
     <g transform="translate(225.241406 409.1125) rotate(-90) scale(0.2 -0.2)">
      <defs>
       <path id="DejaVuSans-4e" d="M 628 4666 
L 1478 4666 
L 3547 763 
L 3547 4666 
L 4159 4666 
L 4159 0 
L 3309 0 
L 1241 3903 
L 1241 0 
L 628 0 
L 628 4666 
z
" transform="scale(0.015625)"/>
       <path id="DejaVuSans-6f" d="M 1959 3097 
Q 1497 3097 1228 2736 
Q 959 2375 959 1747 
Q 959 1119 1226 758 
Q 1494 397 1959 397 
Q 2419 397 2687 759 
Q 2956 1122 2956 1747 
Q 2956 2369 2687 2733 
Q 2419 3097 1959 3097 
z
M 1959 3584 
Q 2709 3584 3137 3096 
Q 3566 2609 3566 1747 
Q 3566 888 3137 398 
Q 2709 -91 1959 -91 
Q 1206 -91 779 398 
Q 353 888 353 1747 
Q 353 2609 779 3096 
Q 1206 3584 1959 3584 
z
" transform="scale(0.015625)"/>
       <path id="DejaVuSans-72" d="M 2631 2963 
Q 2534 3019 2420 3045 
Q 2306 3072 2169 3072 
Q 1681 3072 1420 2755 
Q 1159 2438 1159 1844 
L 1159 0 
L 581 0 
L 581 3500 
L 1159 3500 
L 1159 2956 
Q 1341 3275 1631 3429 
Q 1922 3584 2338 3584 
Q 2397 3584 2469 3576 
Q 2541 3569 2628 3553 
L 2631 2963 
z
" transform="scale(0.015625)"/>
       <path id="DejaVuSans-74" d="M 1172 4494 
L 1172 3500 
L 2356 3500 
L 2356 3053 
L 1172 3053 
L 1172 1153 
Q 1172 725 1289 603 
Q 1406 481 1766 481 
L 2356 481 
L 2356 0 
L 1766 0 
Q 1100 0 847 248 
Q 594 497 594 1153 
L 594 3053 
L 172 3053 
L 172 3500 
L 594 3500 
L 594 4494 
L 1172 4494 
z
" transform="scale(0.015625)"/>
       <path id="DejaVuSans-68" d="M 3513 2113 
L 3513 0 
L 2938 0 
L 2938 2094 
Q 2938 2591 2744 2837 
Q 2550 3084 2163 3084 
Q 1697 3084 1428 2787 
Q 1159 2491 1159 1978 
L 1159 0 
L 581 0 
L 581 4863 
L 1159 4863 
L 1159 2956 
Q 1366 3272 1645 3428 
Q 1925 3584 2291 3584 
Q 2894 3584 3203 3211 
Q 3513 2838 3513 2113 
z
" transform="scale(0.015625)"/>
       <path id="DejaVuSans-28" d="M 1984 4856 
Q 1566 4138 1362 3434 
Q 1159 2731 1159 2009 
Q 1159 1288 1364 580 
Q 1569 -128 1984 -844 
L 1484 -844 
Q 1016 -109 783 600 
Q 550 1309 550 2009 
Q 550 2706 781 3412 
Q 1013 4119 1484 4856 
L 1984 4856 
z
" transform="scale(0.015625)"/>
       <path id="DejaVuSans-29" d="M 513 4856 
L 1013 4856 
Q 1481 4119 1714 3412 
Q 1947 2706 1947 2009 
Q 1947 1309 1714 600 
Q 1481 -109 1013 -844 
L 513 -844 
Q 928 -128 1133 580 
Q 1338 1288 1338 2009 
Q 1338 2731 1133 3434 
Q 928 4138 513 4856 
z
" transform="scale(0.015625)"/>
      </defs>
      <use xlink:href="#DejaVuSans-4e"/>
      <use xlink:href="#DejaVuSans-6f" x="74.804688"/>
      <use xlink:href="#DejaVuSans-72" x="135.986328"/>
      <use xlink:href="#DejaVuSans-74" x="177.099609"/>
      <use xlink:href="#DejaVuSans-68" x="216.308594"/>
      <use xlink:href="#DejaVuSans-28" x="279.6875"/>
      <use xlink:href="#DejaVuSans-6d" x="318.701172"/>
      <use xlink:href="#DejaVuSans-29" x="416.113281"/>
     </g>
    </g>
   </g>
   <g id="line2d_18">
    <path d="M 312.328317 368.683281 
L 315 378.39506 
L 317.671683 378.972682 
L 320.343365 350.155677 
L 323.015048 406.761818 
L 325.686731 366.451961 
L 328.358413 418.611676 
L 331.030096 320.512832 
L 333.701778 286.822204 
L 336.373461 303.747848 
L 339.045144 343.955203 
L 341.716826 408.480191 
L 344.388509 410.850615 
L 347.060192 506.431331 
L 349.731874 358.324306 
L 352.403557 287.699382 
L 355.075239 318.670963 
L 357.746922 419.082815 
L 360.418605 359.049709 
L 363.090287 435.21142 
L 365.76197 416.880577 
L 368.433653 374.929239 
L 371.105335 354.023413 
L 373.777018 403.52416 
L 376.4487 294.406517 
L 379.120383 359.546671 
L 381.792066 323.198092 
L 384.463748 320.683087 
L 387.135431 332.923413 
L 389.807114 299.384703 
L 392.478796 346.802969 
L 395.150479 349.099335 
L 397.822161 344.231018 
L 400.493844 377.706004 
L 403.165527 334.95829 
L 405.837209 332.867264 
L 408.508892 459.15382 
L 411.180575 396.69346 
L 413.852257 393.502589 
L 416.52394 394.140026 
L 419.195622 406.944145 
L 421.867305 415.10669 
L 424.538988 461.235668 
L 427.21067 391.125166 
L 429.882353 314.746511 
L 432.554036 266.041931 
L 435.225718 264.558823 
L 437.897401 264.855101 
L 443.240766 264.807738 
L 445.912449 181.854675 
L 448.584131 198.245904 
L 451.255814 199.072202 
L 453.927497 335.962882 
L 456.599179 339.387633 
L 459.270862 245.928717 
L 461.942544 243.873651 
L 464.614227 244.284189 
L 467.28591 346.009792 
L 469.957592 244.48916 
L 472.629275 268.1293 
L 475.300958 270.101798 
L 477.97264 353.344639 
L 480.644323 355.561085 
L 483.316005 256.862996 
L 485.987688 266.785348 
L 488.659371 269.94212 
L 491.331053 279.008791 
L 494.002736 213.827463 
L 496.674419 328.765023 
L 499.346101 399.964492 
L 502.017784 401.634574 
L 504.689466 394.063807 
L 507.361149 424.491694 
L 510.032832 457.852151 
L 512.704514 309.969708 
L 515.376197 303.457024 
L 518.04788 370.38589 
L 520.719562 453.425303 
L 523.391245 456.330268 
L 526.062927 416.324053 
L 528.73461 415.442563 
L 531.406293 360.209457 
L 534.077975 355.485552 
L 536.749658 435.61968 
L 539.421341 438.900646 
L 542.093023 312.356668 
L 544.764706 399.861863 
L 547.436389 285.488761 
L 550.108071 279.738814 
L 552.779754 249.571281 
L 555.451436 261.110328 
L 558.123119 312.763605 
L 560.794802 314.739238 
L 563.466484 314.344568 
L 566.138167 314.423411 
L 568.80985 481.464183 
L 571.481532 376.537142 
L 574.153215 372.622693 
L 576.824897 330.807085 
L 579.49658 314.827648 
L 582.168263 366.472109 
L 584.839945 366.856295 
L 587.511628 405.478083 
L 590.183311 292.907557 
L 592.854993 252.689976 
L 595.526676 294.829322 
L 598.198358 415.938846 
L 600.870041 357.58191 
L 603.541724 315.931308 
L 606.213406 387.200842 
L 608.885089 326.897095 
L 611.556772 323.558144 
L 614.228454 459.869628 
L 616.900137 328.32175 
L 619.571819 257.682074 
L 622.243502 229.296436 
L 624.915185 377.31216 
L 627.586867 368.183982 
L 630.25855 289.153985 
L 632.930233 286.275046 
L 635.601915 286.850168 
L 638.273598 286.735277 
L 640.94528 477.177738 
L 643.616963 344.683643 
L 646.288646 335.953859 
L 648.960328 333.480045 
L 651.632011 363.390935 
L 654.303694 364.739584 
L 656.975376 258.216096 
L 659.647059 343.849712 
L 662.318741 301.291388 
L 664.990424 260.948951 
L 667.662107 274.972843 
L 670.333789 356.271757 
L 673.005472 377.784116 
L 675.677155 428.472624 
L 678.348837 295.965265 
L 681.02052 289.829541 
L 683.692202 292.30808 
L 686.363885 293.422988 
L 689.035568 350.087799 
L 691.70725 296.898674 
L 694.378933 363.830697 
L 697.050616 317.190553 
L 699.722298 314.356686 
L 702.393981 223.355913 
L 705.065663 321.002922 
L 707.737346 358.928948 
L 710.409029 276.126833 
L 713.080711 272.504393 
L 715.752394 273.228043 
L 718.424077 357.779007 
L 721.095759 267.022924 
L 723.767442 270.424811 
L 726.439124 399.886397 
L 729.110807 411.053529 
L 731.78249 397.647543 
L 734.454172 309.207907 
L 737.125855 305.550086 
L 739.797538 223.058834 
L 742.46922 366.398179 
L 745.140903 398.921829 
L 747.812585 398.788385 
L 750.484268 464.725721 
L 753.155951 451.713036 
L 755.827633 348.499704 
L 758.499316 399.971708 
L 761.170999 295.261063 
L 763.842681 336.196654 
L 766.514364 339.196879 
L 769.186047 338.597528 
L 771.857729 390.443927 
L 774.529412 391.433498 
L 777.201094 391.235813 
L 779.872777 391.788654 
L 782.54446 326.503508 
L 785.216142 324.111101 
L 787.887825 324.589029 
L 790.559508 290.097367 
L 793.23119 289.456594 
L 795.902873 289.5846 
L 798.574555 398.877731 
L 801.246238 417.521342 
L 803.917921 417.739339 
L 806.589603 354.118898 
L 809.261286 352.539899 
L 811.932969 258.053503 
L 814.604651 255.786205 
L 817.276334 256.248334 
L 819.948016 424.431527 
L 822.619699 428.694744 
L 825.291382 443.44288 
L 827.963064 320.79047 
L 830.634747 375.741999 
L 833.30643 294.167322 
L 835.978112 404.53639 
L 838.649795 410.254179 
L 841.321477 253.55817 
L 843.99316 236.143437 
L 846.664843 237.154212 
L 862.694938 237.144714 
L 865.366621 210.521952 
L 868.038304 210.26397 
L 870.709986 321.698041 
L 873.381669 324.007207 
L 876.053352 323.545908 
L 878.725034 298.599729 
L 884.068399 364.940391 
L 886.740082 361.118117 
L 889.411765 347.188293 
L 892.083447 369.790878 
L 894.75513 419.598146 
L 897.426813 330.162058 
L 900.098495 367.160826 
L 902.770178 304.51316 
L 905.44186 301.229204 
L 908.113543 301.885236 
L 910.785226 285.168834 
L 913.456908 284.870227 
L 916.128591 284.92988 
L 918.800274 380.023078 
L 921.471956 381.735577 
L 924.143639 381.393473 
L 926.815321 415.050946 
L 929.487004 415.635871 
L 932.158687 425.861092 
L 934.830369 426.116304 
L 937.502052 426.065321 
L 940.173735 417.123104 
L 942.845417 416.957349 
L 945.5171 283.004193 
L 948.188782 368.482312 
L 950.860465 365.277289 
L 953.532148 286.870116 
L 956.20383 292.30717 
L 958.875513 293.274959 
L 961.547196 293.081625 
L 969.562244 293.114073 
L 972.233926 407.586544 
L 974.905609 408.857372 
L 977.577291 378.908266 
L 980.248974 461.087077 
L 982.920657 343.889071 
L 985.592339 406.235654 
L 988.264022 432.708089 
L 990.935705 432.865603 
L 996.27907 432.840422 
L 998.950752 491.039827 
L 1001.622435 356.101717 
L 1004.294118 351.043987 
L 1006.9658 405.081209 
L 1009.637483 429.278204 
L 1012.309166 410.768112 
L 1014.980848 341.407121 
L 1017.652531 366.019943 
L 1020.324213 314.050575 
L 1022.995896 369.409096 
L 1025.667579 452.07661 
L 1028.339261 409.141014 
L 1031.010944 280.499657 
L 1033.682627 263.784332 
L 1036.354309 343.019634 
L 1039.025992 293.311046 
L 1041.697674 401.443998 
L 1044.369357 413.280935 
L 1047.04104 453.103974 
L 1049.712722 454.9821 
L 1052.384405 323.023006 
L 1055.056088 305.439714 
L 1057.72777 367.796583 
L 1060.399453 334.865216 
L 1063.071135 320.682937 
L 1065.742818 387.022186 
L 1068.414501 305.396167 
L 1071.086183 373.623406 
L 1073.757866 377.523983 
L 1076.429549 468.994447 
L 1079.101231 337.335693 
L 1081.772914 412.203924 
L 1084.444596 374.214843 
L 1087.116279 395.574115 
L 1089.787962 367.015897 
L 1092.459644 255.376091 
L 1095.131327 251.024491 
L 1097.80301 294.19951 
L 1100.474692 365.482345 
L 1103.146375 422.182917 
L 1105.818057 320.055334 
L 1108.48974 263.785626 
L 1111.161423 300.975661 
L 1113.833105 275.064456 
L 1116.504788 305.170365 
L 1119.176471 281.328721 
L 1121.848153 279.91655 
L 1124.519836 290.868193 
L 1127.191518 291.086284 
L 1129.863201 216.010996 
L 1132.534884 214.236113 
L 1135.206566 214.590679 
L 1140.549932 214.533997 
L 1143.221614 214.531171 
L 1145.893297 237.273196 
L 1148.564979 268.157665 
L 1151.236662 392.096747 
L 1153.908345 351.713048 
L 1156.580027 279.282584 
L 1159.25171 382.491797 
L 1161.923393 394.861437 
L 1164.595075 394.185822 
L 1167.266758 394.320789 
L 1172.610123 394.299213 
L 1175.281806 472.391112 
L 1177.953488 431.517868 
L 1180.625171 499.115585 
L 1183.296854 502.24673 
L 1185.968536 321.218361 
L 1188.640219 316.743308 
L 1191.311902 399.260111 
L 1193.983584 401.019069 
L 1196.655267 470.714194 
L 1199.326949 473.471893 
L 1201.998632 361.533909 
L 1204.670315 356.811414 
L 1207.341997 308.695335 
L 1210.01368 306.435613 
L 1212.685363 425.762129 
L 1215.357045 293.756734 
L 1218.028728 384.880247 
L 1220.70041 390.079494 
L 1223.372093 293.541463 
L 1226.043776 370.443573 
L 1228.715458 400.126597 
L 1231.387141 470.587882 
L 1234.058824 473.473572 
L 1236.730506 529.882209 
L 1239.402189 547.094635 
L 1242.073871 547.389863 
L 1247.417237 547.342667 
L 1250.088919 451.423563 
L 1252.760602 365.847882 
L 1255.432285 397.89307 
L 1258.103967 316.053397 
L 1260.77565 269.582704 
L 1263.447332 376.313781 
L 1266.119015 312.564362 
L 1268.790698 308.705762 
L 1271.46238 309.476589 
L 1274.134063 346.130453 
L 1276.805746 459.984695 
L 1279.477428 464.035914 
L 1282.149111 291.585969 
L 1284.820793 292.179327 
L 1287.492476 293.189751 
L 1290.164159 329.971118 
L 1292.835841 403.22814 
L 1295.507524 382.005027 
L 1298.179207 263.558069 
L 1300.850889 336.06224 
L 1303.522572 340.261657 
L 1306.194254 339.422745 
L 1308.865937 310.587325 
L 1311.53762 355.081243 
L 1314.209302 281.162022 
L 1316.880985 349.475247 
L 1319.552668 378.627569 
L 1322.22435 364.580341 
L 1324.896033 364.992026 
L 1327.567715 331.869262 
L 1330.239398 382.779782 
L 1332.911081 351.972751 
L 1335.582763 350.058979 
L 1338.254446 281.209629 
L 1340.926129 320.067676 
L 1343.597811 287.190585 
L 1346.269494 349.87394 
L 1348.941176 409.295995 
L 1351.612859 455.070611 
L 1354.284542 456.585579 
L 1356.956224 457.007407 
L 1359.627907 422.071262 
L 1362.29959 403.620229 
L 1364.971272 403.188368 
L 1367.642955 403.274641 
L 1370.314637 479.75252 
L 1372.98632 489.607925 
L 1375.658003 342.465642 
L 1378.329685 403.515457 
L 1381.001368 349.163375 
L 1383.673051 360.885998 
L 1386.344733 333.188436 
L 1389.016416 331.701152 
L 1391.688098 327.539665 
L 1394.359781 328.781245 
L 1397.031464 442.245503 
L 1399.703146 410.208778 
L 1402.374829 407.720443 
L 1405.046512 447.248742 
L 1407.718194 333.260114 
L 1410.389877 289.513099 
L 1413.06156 272.261537 
L 1415.733242 404.416942 
L 1418.404925 360.784628 
L 1421.076607 403.348895 
L 1423.74829 356.844968 
L 1426.419973 335.212929 
L 1429.091655 392.527782 
L 1431.763338 394.233588 
L 1434.435021 307.319962 
L 1437.106703 404.181485 
L 1439.778386 329.252672 
L 1442.450068 336.658369 
L 1445.121751 345.821929 
L 1447.793434 370.898028 
L 1450.465116 333.917752 
L 1453.136799 333.337913 
L 1455.808482 447.90673 
L 1458.480164 353.180728 
L 1461.151847 297.381248 
L 1463.823529 387.805559 
L 1466.495212 329.769245 
L 1469.166895 326.312162 
L 1471.838577 451.664069 
L 1474.51026 385.250404 
L 1477.181943 309.318498 
L 1479.853625 332.769519 
L 1482.525308 334.328888 
L 1485.19699 257.978334 
L 1487.868673 293.525727 
L 1490.540356 429.655416 
L 1493.212038 395.527264 
L 1495.883721 342.997553 
L 1498.555404 341.423203 
L 1501.227086 296.50568 
L 1503.898769 291.947475 
L 1506.570451 401.652026 
L 1509.242134 427.172572 
L 1511.913817 398.809724 
L 1514.585499 316.186233 
L 1517.257182 396.442088 
L 1519.928865 430.005584 
L 1522.600547 413.620142 
L 1525.27223 390.253049 
L 1527.943912 376.980888 
L 1530.615595 277.600596 
L 1533.287278 338.467105 
L 1535.95896 342.049235 
L 1538.630643 341.333637 
L 1541.302326 341.476591 
L 1543.974008 308.519387 
L 1546.645691 314.038916 
L 1549.317373 341.950369 
L 1551.989056 343.008317 
L 1554.660739 368.798768 
L 1557.332421 369.504795 
L 1560.004104 369.222778 
L 1562.675787 322.736118 
L 1565.347469 394.628424 
L 1568.019152 482.083252 
L 1570.690834 439.693792 
L 1573.362517 437.201109 
L 1576.0342 414.616406 
L 1578.705882 486.851998 
L 1581.377565 489.841863 
L 1584.049248 525.167432 
L 1586.72093 332.124929 
L 1589.392613 324.355767 
L 1592.064295 219.887687 
L 1594.735978 226.309429 
L 1597.407661 331.010579 
L 1600.079343 285.76155 
L 1602.751026 298.749026 
L 1605.422709 295.989535 
L 1608.094391 295.568334 
L 1613.437756 295.635668 
L 1618.781122 295.638355 
L 1621.452804 294.997488 
L 1624.124487 275.161851 
L 1626.79617 226.621536 
L 1629.467852 303.286486 
L 1632.139535 306.932898 
L 1634.811218 306.204459 
L 1637.4829 432.758456 
L 1640.154583 435.203445 
L 1642.826265 434.715012 
L 1645.497948 477.940586 
L 1648.169631 495.963383 
L 1650.841313 496.445022 
L 1653.512996 496.348806 
L 1658.856361 496.364187 
L 1661.528044 290.010014 
L 1664.199726 287.372168 
L 1666.871409 194.065585 
L 1669.543092 196.840575 
L 1672.214774 286.315787 
L 1674.886457 289.854314 
L 1677.55814 427.822729 
L 1680.229822 293.913361 
L 1682.901505 302.793492 
L 1685.573187 304.636582 
L 1688.24487 210.620929 
L 1690.916553 326.166534 
L 1693.588235 281.482441 
L 1696.259918 251.807432 
L 1698.931601 307.88209 
L 1701.603283 310.384553 
L 1704.274966 409.002044 
L 1706.946648 411.653551 
L 1709.618331 337.129239 
L 1712.290014 313.229037 
L 1714.961696 354.687027 
L 1717.633379 261.600827 
L 1720.305062 257.22504 
L 1722.976744 283.170697 
L 1725.648427 278.875531 
L 1728.320109 260.86257 
L 1730.991792 272.079764 
L 1733.663475 272.718345 
L 1736.335157 272.590777 
L 1739.00684 272.616261 
L 1741.678523 439.087715 
L 1744.350205 299.1407 
L 1747.021888 338.596835 
L 1749.69357 263.185111 
L 1752.365253 400.788685 
L 1755.036936 307.207581 
L 1757.708618 336.812978 
L 1760.380301 353.926732 
L 1763.051984 362.921667 
L 1765.723666 433.606724 
L 1768.395349 436.515118 
L 1771.067031 435.934112 
L 1773.738714 436.050179 
L 1779.082079 436.031624 
L 1781.753762 473.570185 
L 1784.425445 447.645373 
L 1787.097127 446.656809 
L 1789.76881 446.854293 
L 1792.440492 446.814842 
L 1795.112175 407.306356 
L 1797.783858 397.498783 
L 1800.45554 337.544123 
L 1803.127223 335.159955 
L 1805.798906 373.733636 
L 1808.470588 310.493843 
L 1811.142271 306.957043 
L 1813.813953 339.924239 
L 1816.485636 429.460346 
L 1819.157319 486.642697 
L 1821.829001 488.225816 
L 1824.500684 374.439411 
L 1827.172367 371.583907 
L 1832.515732 226.532639 
L 1835.187415 224.161042 
L 1837.859097 395.072645 
L 1840.53078 373.601544 
L 1843.202462 338.613527 
L 1845.874145 249.801083 
L 1848.545828 246.29294 
L 1851.21751 215.35939 
L 1853.889193 296.653348 
L 1856.560876 300.058993 
L 1859.232558 299.378652 
L 1861.904241 299.514563 
L 1864.575923 265.873909 
L 1867.247606 373.899424 
L 1869.919289 315.760952 
L 1872.590971 389.556765 
L 1875.262654 401.662753 
L 1877.934337 398.322582 
L 1880.606019 398.285544 
L 1883.277702 460.540535 
L 1885.949384 462.138557 
L 1888.621067 307.539137 
L 1891.29275 396.359821 
L 1893.964432 400.644203 
L 1896.636115 399.788318 
L 1899.307798 399.959297 
L 1901.97948 458.689044 
L 1904.651163 435.804737 
L 1907.322845 461.49658 
L 1909.994528 405.32302 
L 1912.666211 289.102963 
L 1915.337893 284.825644 
L 1918.009576 433.362317 
L 1920.681259 436.99252 
L 1923.352941 456.664083 
L 1926.024624 296.862718 
L 1928.696306 290.549106 
L 1931.367989 291.810368 
L 1934.039672 291.558408 
L 1936.711354 184.459817 
L 1939.383037 330.68298 
L 1942.05472 336.158728 
L 1944.726402 383.566352 
L 1947.398085 295.645231 
L 1950.069767 319.241667 
L 1952.74145 321.278933 
L 1955.413133 320.871951 
L 1958.084815 372.315995 
L 1960.756498 360.870398 
L 1963.428181 409.330894 
L 1966.099863 411.476189 
L 1968.771546 411.047627 
L 1974.114911 411.116137 
L 1976.786594 411.119554 
L 1979.458276 534.321416 
L 1982.129959 454.30218 
L 1984.801642 451.233193 
L 1987.473324 438.446709 
L 1990.145007 448.897509 
L 1992.816689 339.734339 
L 1995.488372 327.562409 
L 1998.160055 443.610387 
L 2000.831737 350.357798 
L 2003.50342 301.708057 
L 2006.175103 272.815704 
L 2008.846785 271.789653 
L 2011.518468 271.994626 
L 2014.19015 388.730276 
L 2016.861833 383.364237 
L 2019.533516 315.099235 
L 2022.205198 404.617409 
L 2024.876881 412.364277 
L 2027.548564 434.223645 
L 2030.220246 339.5925 
L 2032.891929 254.732655 
L 2035.563611 295.864796 
L 2038.235294 411.448584 
L 2040.906977 415.77649 
L 2043.578659 414.91191 
L 2046.250342 390.405102 
L 2048.922025 343.122302 
L 2051.593707 313.861094 
L 2054.26539 416.274495 
L 2056.937073 424.679416 
L 2059.608755 349.846431 
L 2062.280438 339.339785 
L 2064.95212 339.620748 
L 2067.623803 382.973337 
L 2070.295486 430.159018 
L 2072.967168 431.734143 
L 2075.638851 370.879726 
L 2078.310534 369.411047 
L 2080.982216 249.090835 
L 2083.653899 371.117161 
L 2086.325581 377.504177 
L 2088.997264 376.466315 
L 2091.668947 376.673647 
L 2094.340629 348.806693 
L 2097.012312 348.271337 
L 2099.683995 435.626733 
L 2102.355677 307.827767 
L 2105.02736 302.46931 
L 2107.699042 405.34987 
L 2110.370725 347.854177 
L 2113.042408 279.274359 
L 2115.71409 390.669369 
L 2118.385773 413.04005 
L 2121.057456 404.362892 
L 2123.729138 337.917665 
L 2126.400821 309.604671 
L 2129.072503 387.882789 
L 2131.744186 332.194916 
L 2134.415869 374.743863 
L 2137.087551 404.849422 
L 2139.759234 367.959234 
L 2142.430917 426.885578 
L 2145.102599 461.652151 
L 2147.774282 462.420609 
L 2150.445964 411.251978 
L 2153.117647 409.970471 
L 2155.78933 475.421697 
L 2158.461012 309.039814 
L 2161.132695 392.564185 
L 2163.804378 459.33823 
L 2166.47606 318.186223 
L 2169.147743 386.603891 
L 2171.819425 315.695147 
L 2174.491108 227.839777 
L 2177.162791 321.427737 
L 2179.834473 410.552322 
L 2182.506156 435.878258 
L 2185.177839 431.108145 
L 2187.849521 455.900121 
L 2190.521204 457.026067 
L 2193.192886 468.83747 
L 2195.864569 372.175306 
L 2198.536252 409.28508 
L 2201.207934 411.757672 
L 2203.879617 389.604821 
L 2206.5513 395.096689 
L 2209.222982 417.751243 
L 2211.894665 379.648769 
L 2214.566347 428.749376 
L 2217.23803 380.125455 
L 2219.909713 324.123903 
L 2222.581395 252.686205 
L 2225.253078 250.073643 
L 2227.924761 214.949611 
L 2230.596443 211.978635 
L 2233.268126 304.958158 
L 2235.939808 336.983718 
L 2238.611491 337.410249 
L 2241.283174 337.325042 
L 2243.954856 366.813905 
L 2246.626539 357.465639 
L 2249.298222 371.916329 
L 2251.969904 358.344497 
L 2254.641587 353.294856 
L 2257.313269 378.661942 
L 2259.984952 300.816077 
L 2262.656635 301.952715 
L 2265.328317 306.786781 
L 2268 306.771093 
L 2270.671683 371.524985 
L 2270.671683 371.524985 
" clip-path="url(#p017278f58c)" style="fill: none; stroke: #ff0000; stroke-width: 1.2; stroke-linecap: square"/>
   </g>
   <g id="patch_3">
    <path d="M 315 640.8 
L 315 86.4 
" style="fill: none; stroke: #000000; stroke-width: 0.8; stroke-linejoin: miter; stroke-linecap: square"/>
   </g>
   <g id="patch_4">
    <path d="M 2268 640.8 
L 2268 86.4 
" style="fill: none; stroke: #000000; stroke-width: 0.8; stroke-linejoin: miter; stroke-linecap: square"/>
   </g>
   <g id="patch_5">
    <path d="M 315 640.8 
L 2268 640.8 
" style="fill: none; stroke: #000000; stroke-width: 0.8; stroke-linejoin: miter; stroke-linecap: square"/>
   </g>
   <g id="patch_6">
    <path d="M 315 86.4 
L 2268 86.4 
" style="fill: none; stroke: #000000; stroke-width: 0.8; stroke-linejoin: miter; stroke-linecap: square"/>
   </g>
   <g id="text_20">
    <!-- Model ARIMA - PORD (north) -->
    <g transform="translate(1149.767188 80.4) scale(0.2 -0.2)">
     <defs>
      <path id="DejaVuSans-4d" d="M 628 4666 
L 1569 4666 
L 2759 1491 
L 3956 4666 
L 4897 4666 
L 4897 0 
L 4281 0 
L 4281 4097 
L 3078 897 
L 2444 897 
L 1241 4097 
L 1241 0 
L 628 0 
L 628 4666 
z
" transform="scale(0.015625)"/>
      <path id="DejaVuSans-64" d="M 2906 2969 
L 2906 4863 
L 3481 4863 
L 3481 0 
L 2906 0 
L 2906 525 
Q 2725 213 2448 61 
Q 2172 -91 1784 -91 
Q 1150 -91 751 415 
Q 353 922 353 1747 
Q 353 2572 751 3078 
Q 1150 3584 1784 3584 
Q 2172 3584 2448 3432 
Q 2725 3281 2906 2969 
z
M 947 1747 
Q 947 1113 1208 752 
Q 1469 391 1925 391 
Q 2381 391 2643 752 
Q 2906 1113 2906 1747 
Q 2906 2381 2643 2742 
Q 2381 3103 1925 3103 
Q 1469 3103 1208 2742 
Q 947 2381 947 1747 
z
" transform="scale(0.015625)"/>
      <path id="DejaVuSans-6c" d="M 603 4863 
L 1178 4863 
L 1178 0 
L 603 0 
L 603 4863 
z
" transform="scale(0.015625)"/>
      <path id="DejaVuSans-20" transform="scale(0.015625)"/>
      <path id="DejaVuSans-41" d="M 2188 4044 
L 1331 1722 
L 3047 1722 
L 2188 4044 
z
M 1831 4666 
L 2547 4666 
L 4325 0 
L 3669 0 
L 3244 1197 
L 1141 1197 
L 716 0 
L 50 0 
L 1831 4666 
z
" transform="scale(0.015625)"/>
      <path id="DejaVuSans-52" d="M 2841 2188 
Q 3044 2119 3236 1894 
Q 3428 1669 3622 1275 
L 4263 0 
L 3584 0 
L 2988 1197 
Q 2756 1666 2539 1819 
Q 2322 1972 1947 1972 
L 1259 1972 
L 1259 0 
L 628 0 
L 628 4666 
L 2053 4666 
Q 2853 4666 3247 4331 
Q 3641 3997 3641 3322 
Q 3641 2881 3436 2590 
Q 3231 2300 2841 2188 
z
M 1259 4147 
L 1259 2491 
L 2053 2491 
Q 2509 2491 2742 2702 
Q 2975 2913 2975 3322 
Q 2975 3731 2742 3939 
Q 2509 4147 2053 4147 
L 1259 4147 
z
" transform="scale(0.015625)"/>
      <path id="DejaVuSans-49" d="M 628 4666 
L 1259 4666 
L 1259 0 
L 628 0 
L 628 4666 
z
" transform="scale(0.015625)"/>
      <path id="DejaVuSans-50" d="M 1259 4147 
L 1259 2394 
L 2053 2394 
Q 2494 2394 2734 2622 
Q 2975 2850 2975 3272 
Q 2975 3691 2734 3919 
Q 2494 4147 2053 4147 
L 1259 4147 
z
M 628 4666 
L 2053 4666 
Q 2838 4666 3239 4311 
Q 3641 3956 3641 3272 
Q 3641 2581 3239 2228 
Q 2838 1875 2053 1875 
L 1259 1875 
L 1259 0 
L 628 0 
L 628 4666 
z
" transform="scale(0.015625)"/>
      <path id="DejaVuSans-4f" d="M 2522 4238 
Q 1834 4238 1429 3725 
Q 1025 3213 1025 2328 
Q 1025 1447 1429 934 
Q 1834 422 2522 422 
Q 3209 422 3611 934 
Q 4013 1447 4013 2328 
Q 4013 3213 3611 3725 
Q 3209 4238 2522 4238 
z
M 2522 4750 
Q 3503 4750 4090 4092 
Q 4678 3434 4678 2328 
Q 4678 1225 4090 567 
Q 3503 -91 2522 -91 
Q 1538 -91 948 565 
Q 359 1222 359 2328 
Q 359 3434 948 4092 
Q 1538 4750 2522 4750 
z
" transform="scale(0.015625)"/>
      <path id="DejaVuSans-44" d="M 1259 4147 
L 1259 519 
L 2022 519 
Q 2988 519 3436 956 
Q 3884 1394 3884 2338 
Q 3884 3275 3436 3711 
Q 2988 4147 2022 4147 
L 1259 4147 
z
M 628 4666 
L 1925 4666 
Q 3281 4666 3915 4102 
Q 4550 3538 4550 2338 
Q 4550 1131 3912 565 
Q 3275 0 1925 0 
L 628 0 
L 628 4666 
z
" transform="scale(0.015625)"/>
      <path id="DejaVuSans-6e" d="M 3513 2113 
L 3513 0 
L 2938 0 
L 2938 2094 
Q 2938 2591 2744 2837 
Q 2550 3084 2163 3084 
Q 1697 3084 1428 2787 
Q 1159 2491 1159 1978 
L 1159 0 
L 581 0 
L 581 3500 
L 1159 3500 
L 1159 2956 
Q 1366 3272 1645 3428 
Q 1925 3584 2291 3584 
Q 2894 3584 3203 3211 
Q 3513 2838 3513 2113 
z
" transform="scale(0.015625)"/>
     </defs>
     <use xlink:href="#DejaVuSans-4d"/>
     <use xlink:href="#DejaVuSans-6f" x="86.279297"/>
     <use xlink:href="#DejaVuSans-64" x="147.460938"/>
     <use xlink:href="#DejaVuSans-65" x="210.9375"/>
     <use xlink:href="#DejaVuSans-6c" x="272.460938"/>
     <use xlink:href="#DejaVuSans-20" x="300.244141"/>
     <use xlink:href="#DejaVuSans-41" x="332.03125"/>
     <use xlink:href="#DejaVuSans-52" x="400.439453"/>
     <use xlink:href="#DejaVuSans-49" x="469.921875"/>
     <use xlink:href="#DejaVuSans-4d" x="499.414062"/>
     <use xlink:href="#DejaVuSans-41" x="585.693359"/>
     <use xlink:href="#DejaVuSans-20" x="654.101562"/>
     <use xlink:href="#DejaVuSans-2d" x="685.888672"/>
     <use xlink:href="#DejaVuSans-20" x="721.972656"/>
     <use xlink:href="#DejaVuSans-50" x="753.759766"/>
     <use xlink:href="#DejaVuSans-4f" x="814.0625"/>
     <use xlink:href="#DejaVuSans-52" x="892.773438"/>
     <use xlink:href="#DejaVuSans-44" x="962.255859"/>
     <use xlink:href="#DejaVuSans-20" x="1039.257812"/>
     <use xlink:href="#DejaVuSans-28" x="1071.044922"/>
     <use xlink:href="#DejaVuSans-6e" x="1110.058594"/>
     <use xlink:href="#DejaVuSans-6f" x="1173.4375"/>
     <use xlink:href="#DejaVuSans-72" x="1234.619141"/>
     <use xlink:href="#DejaVuSans-74" x="1275.732422"/>
     <use xlink:href="#DejaVuSans-68" x="1314.941406"/>
     <use xlink:href="#DejaVuSans-29" x="1378.320312"/>
    </g>
   </g>
   <g id="legend_1">
    <g id="patch_7">
     <path d="M 2165.003125 109.078125 
L 2261 109.078125 
Q 2263 109.078125 2263 107.078125 
L 2263 93.4 
Q 2263 91.4 2261 91.4 
L 2165.003125 91.4 
Q 2163.003125 91.4 2163.003125 93.4 
L 2163.003125 107.078125 
Q 2163.003125 109.078125 2165.003125 109.078125 
z
" style="fill: #ffffff; opacity: 0.8; stroke: #cccccc; stroke-linejoin: miter"/>
    </g>
    <g id="line2d_19">
     <path d="M 2167.003125 99.498438 
L 2177.003125 99.498438 
L 2187.003125 99.498438 
" style="fill: none; stroke: #ff0000; stroke-width: 1.2; stroke-linecap: square"/>
    </g>
    <g id="text_21">
     <!-- Fitted Values -->
     <g transform="translate(2195.003125 102.998438) scale(0.1 -0.1)">
      <defs>
       <path id="DejaVuSans-46" d="M 628 4666 
L 3309 4666 
L 3309 4134 
L 1259 4134 
L 1259 2759 
L 3109 2759 
L 3109 2228 
L 1259 2228 
L 1259 0 
L 628 0 
L 628 4666 
z
" transform="scale(0.015625)"/>
       <path id="DejaVuSans-56" d="M 1831 0 
L 50 4666 
L 709 4666 
L 2188 738 
L 3669 4666 
L 4325 4666 
L 2547 0 
L 1831 0 
z
" transform="scale(0.015625)"/>
       <path id="DejaVuSans-61" d="M 2194 1759 
Q 1497 1759 1228 1600 
Q 959 1441 959 1056 
Q 959 750 1161 570 
Q 1363 391 1709 391 
Q 2188 391 2477 730 
Q 2766 1069 2766 1631 
L 2766 1759 
L 2194 1759 
z
M 3341 1997 
L 3341 0 
L 2766 0 
L 2766 531 
Q 2569 213 2275 61 
Q 1981 -91 1556 -91 
Q 1019 -91 701 211 
Q 384 513 384 1019 
Q 384 1609 779 1909 
Q 1175 2209 1959 2209 
L 2766 2209 
L 2766 2266 
Q 2766 2663 2505 2880 
Q 2244 3097 1772 3097 
Q 1472 3097 1187 3025 
Q 903 2953 641 2809 
L 641 3341 
Q 956 3463 1253 3523 
Q 1550 3584 1831 3584 
Q 2591 3584 2966 3190 
Q 3341 2797 3341 1997 
z
" transform="scale(0.015625)"/>
       <path id="DejaVuSans-75" d="M 544 1381 
L 544 3500 
L 1119 3500 
L 1119 1403 
Q 1119 906 1312 657 
Q 1506 409 1894 409 
Q 2359 409 2629 706 
Q 2900 1003 2900 1516 
L 2900 3500 
L 3475 3500 
L 3475 0 
L 2900 0 
L 2900 538 
Q 2691 219 2414 64 
Q 2138 -91 1772 -91 
Q 1169 -91 856 284 
Q 544 659 544 1381 
z
M 1991 3584 
L 1991 3584 
z
" transform="scale(0.015625)"/>
       <path id="DejaVuSans-73" d="M 2834 3397 
L 2834 2853 
Q 2591 2978 2328 3040 
Q 2066 3103 1784 3103 
Q 1356 3103 1142 2972 
Q 928 2841 928 2578 
Q 928 2378 1081 2264 
Q 1234 2150 1697 2047 
L 1894 2003 
Q 2506 1872 2764 1633 
Q 3022 1394 3022 966 
Q 3022 478 2636 193 
Q 2250 -91 1575 -91 
Q 1294 -91 989 -36 
Q 684 19 347 128 
L 347 722 
Q 666 556 975 473 
Q 1284 391 1588 391 
Q 1994 391 2212 530 
Q 2431 669 2431 922 
Q 2431 1156 2273 1281 
Q 2116 1406 1581 1522 
L 1381 1569 
Q 847 1681 609 1914 
Q 372 2147 372 2553 
Q 372 3047 722 3315 
Q 1072 3584 1716 3584 
Q 2034 3584 2315 3537 
Q 2597 3491 2834 3397 
z
" transform="scale(0.015625)"/>
      </defs>
      <use xlink:href="#DejaVuSans-46"/>
      <use xlink:href="#DejaVuSans-69" x="50.269531"/>
      <use xlink:href="#DejaVuSans-74" x="78.052734"/>
      <use xlink:href="#DejaVuSans-74" x="117.261719"/>
      <use xlink:href="#DejaVuSans-65" x="156.470703"/>
      <use xlink:href="#DejaVuSans-64" x="217.994141"/>
      <use xlink:href="#DejaVuSans-20" x="281.470703"/>
      <use xlink:href="#DejaVuSans-56" x="313.257812"/>
      <use xlink:href="#DejaVuSans-61" x="373.916016"/>
      <use xlink:href="#DejaVuSans-6c" x="435.195312"/>
      <use xlink:href="#DejaVuSans-75" x="462.978516"/>
      <use xlink:href="#DejaVuSans-65" x="526.357422"/>
      <use xlink:href="#DejaVuSans-73" x="587.880859"/>
     </g>
    </g>
   </g>
  </g>
 </g>
 <defs>
  <clipPath id="p017278f58c">
   <rect x="315" y="86.4" width="1953" height="554.4"/>
  </clipPath>
 </defs>
</svg>
