<?xml version="1.0" encoding="utf-8" standalone="no"?>
<!DOCTYPE svg PUBLIC "-//W3C//DTD SVG 1.1//EN"
  "http://www.w3.org/Graphics/SVG/1.1/DTD/svg11.dtd">
<svg xmlns:xlink="http://www.w3.org/1999/xlink" width="4680pt" height="1080pt" viewBox="0 0 4680 1080" xmlns="http://www.w3.org/2000/svg" version="1.1">
 <metadata>
  <rdf:RDF xmlns:dc="http://purl.org/dc/elements/1.1/" xmlns:cc="http://creativecommons.org/ns#" xmlns:rdf="http://www.w3.org/1999/02/22-rdf-syntax-ns#">
   <cc:Work>
    <dc:type rdf:resource="http://purl.org/dc/dcmitype/StillImage"/>
    <dc:date>2024-03-20T10:33:05.300332</dc:date>
    <dc:format>image/svg+xml</dc:format>
    <dc:creator>
     <cc:Agent>
      <dc:title>Matplotlib v3.7.2, https://matplotlib.org/</dc:title>
     </cc:Agent>
    </dc:creator>
   </cc:Work>
  </rdf:RDF>
 </metadata>
 <defs>
  <style type="text/css">*{stroke-linejoin: round; stroke-linecap: butt}</style>
 </defs>
 <g id="figure_1">
  <g id="patch_1">
   <path d="M 0 1080 
L 4680 1080 
L 4680 0 
L 0 0 
z
" style="fill: #ffffff"/>
  </g>
  <g id="axes_1">
   <g id="patch_2">
    <path d="M 585 961.2 
L 4212 961.2 
L 4212 129.6 
L 585 129.6 
z
" style="fill: #ffffff"/>
   </g>
   <g id="matplotlib.axis_1">
    <g id="xtick_1">
     <g id="line2d_1">
      <defs>
       <path id="m3f5146de8e" d="M 0 0 
L 0 3.5 
" style="stroke: #000000; stroke-width: 0.8"/>
      </defs>
      <g>
       <use xlink:href="#m3f5146de8e" x="711.411476" y="961.2" style="stroke: #000000; stroke-width: 0.8"/>
      </g>
     </g>
     <g id="text_1">
      <!-- 2012 -->
      <g transform="translate(685.961476 983.396875) scale(0.2 -0.2)">
       <defs>
        <path id="DejaVuSans-32" d="M 1228 531 
L 3431 531 
L 3431 0 
L 469 0 
L 469 531 
Q 828 903 1448 1529 
Q 2069 2156 2228 2338 
Q 2531 2678 2651 2914 
Q 2772 3150 2772 3378 
Q 2772 3750 2511 3984 
Q 2250 4219 1831 4219 
Q 1534 4219 1204 4116 
Q 875 4013 500 3803 
L 500 4441 
Q 881 4594 1212 4672 
Q 1544 4750 1819 4750 
Q 2544 4750 2975 4387 
Q 3406 4025 3406 3419 
Q 3406 3131 3298 2873 
Q 3191 2616 2906 2266 
Q 2828 2175 2409 1742 
Q 1991 1309 1228 531 
z
" transform="scale(0.015625)"/>
        <path id="DejaVuSans-30" d="M 2034 4250 
Q 1547 4250 1301 3770 
Q 1056 3291 1056 2328 
Q 1056 1369 1301 889 
Q 1547 409 2034 409 
Q 2525 409 2770 889 
Q 3016 1369 3016 2328 
Q 3016 3291 2770 3770 
Q 2525 4250 2034 4250 
z
M 2034 4750 
Q 2819 4750 3233 4129 
Q 3647 3509 3647 2328 
Q 3647 1150 3233 529 
Q 2819 -91 2034 -91 
Q 1250 -91 836 529 
Q 422 1150 422 2328 
Q 422 3509 836 4129 
Q 1250 4750 2034 4750 
z
" transform="scale(0.015625)"/>
        <path id="DejaVuSans-31" d="M 794 531 
L 1825 531 
L 1825 4091 
L 703 3866 
L 703 4441 
L 1819 4666 
L 2450 4666 
L 2450 531 
L 3481 531 
L 3481 0 
L 794 0 
L 794 531 
z
" transform="scale(0.015625)"/>
       </defs>
       <use xlink:href="#DejaVuSans-32"/>
       <use xlink:href="#DejaVuSans-30" x="63.623047"/>
       <use xlink:href="#DejaVuSans-31" x="127.246094"/>
       <use xlink:href="#DejaVuSans-32" x="190.869141"/>
      </g>
     </g>
    </g>
    <g id="xtick_2">
     <g id="line2d_2">
      <g>
       <use xlink:href="#m3f5146de8e" x="1415.086006" y="961.2" style="stroke: #000000; stroke-width: 0.8"/>
      </g>
     </g>
     <g id="text_2">
      <!-- 2013 -->
      <g transform="translate(1389.636006 983.396875) scale(0.2 -0.2)">
       <defs>
        <path id="DejaVuSans-33" d="M 2597 2516 
Q 3050 2419 3304 2112 
Q 3559 1806 3559 1356 
Q 3559 666 3084 287 
Q 2609 -91 1734 -91 
Q 1441 -91 1130 -33 
Q 819 25 488 141 
L 488 750 
Q 750 597 1062 519 
Q 1375 441 1716 441 
Q 2309 441 2620 675 
Q 2931 909 2931 1356 
Q 2931 1769 2642 2001 
Q 2353 2234 1838 2234 
L 1294 2234 
L 1294 2753 
L 1863 2753 
Q 2328 2753 2575 2939 
Q 2822 3125 2822 3475 
Q 2822 3834 2567 4026 
Q 2313 4219 1838 4219 
Q 1578 4219 1281 4162 
Q 984 4106 628 3988 
L 628 4550 
Q 988 4650 1302 4700 
Q 1616 4750 1894 4750 
Q 2613 4750 3031 4423 
Q 3450 4097 3450 3541 
Q 3450 3153 3228 2886 
Q 3006 2619 2597 2516 
z
" transform="scale(0.015625)"/>
       </defs>
       <use xlink:href="#DejaVuSans-32"/>
       <use xlink:href="#DejaVuSans-30" x="63.623047"/>
       <use xlink:href="#DejaVuSans-31" x="127.246094"/>
       <use xlink:href="#DejaVuSans-33" x="190.869141"/>
      </g>
     </g>
    </g>
    <g id="xtick_3">
     <g id="line2d_3">
      <g>
       <use xlink:href="#m3f5146de8e" x="2116.837927" y="961.2" style="stroke: #000000; stroke-width: 0.8"/>
      </g>
     </g>
     <g id="text_3">
      <!-- 2014 -->
      <g transform="translate(2091.387927 983.396875) scale(0.2 -0.2)">
       <defs>
        <path id="DejaVuSans-34" d="M 2419 4116 
L 825 1625 
L 2419 1625 
L 2419 4116 
z
M 2253 4666 
L 3047 4666 
L 3047 1625 
L 3713 1625 
L 3713 1100 
L 3047 1100 
L 3047 0 
L 2419 0 
L 2419 1100 
L 313 1100 
L 313 1709 
L 2253 4666 
z
" transform="scale(0.015625)"/>
       </defs>
       <use xlink:href="#DejaVuSans-32"/>
       <use xlink:href="#DejaVuSans-30" x="63.623047"/>
       <use xlink:href="#DejaVuSans-31" x="127.246094"/>
       <use xlink:href="#DejaVuSans-34" x="190.869141"/>
      </g>
     </g>
    </g>
    <g id="xtick_4">
     <g id="line2d_4">
      <g>
       <use xlink:href="#m3f5146de8e" x="2818.589849" y="961.2" style="stroke: #000000; stroke-width: 0.8"/>
      </g>
     </g>
     <g id="text_4">
      <!-- 2015 -->
      <g transform="translate(2793.139849 983.396875) scale(0.2 -0.2)">
       <defs>
        <path id="DejaVuSans-35" d="M 691 4666 
L 3169 4666 
L 3169 4134 
L 1269 4134 
L 1269 2991 
Q 1406 3038 1543 3061 
Q 1681 3084 1819 3084 
Q 2600 3084 3056 2656 
Q 3513 2228 3513 1497 
Q 3513 744 3044 326 
Q 2575 -91 1722 -91 
Q 1428 -91 1123 -41 
Q 819 9 494 109 
L 494 744 
Q 775 591 1075 516 
Q 1375 441 1709 441 
Q 2250 441 2565 725 
Q 2881 1009 2881 1497 
Q 2881 1984 2565 2268 
Q 2250 2553 1709 2553 
Q 1456 2553 1204 2497 
Q 953 2441 691 2322 
L 691 4666 
z
" transform="scale(0.015625)"/>
       </defs>
       <use xlink:href="#DejaVuSans-32"/>
       <use xlink:href="#DejaVuSans-30" x="63.623047"/>
       <use xlink:href="#DejaVuSans-31" x="127.246094"/>
       <use xlink:href="#DejaVuSans-35" x="190.869141"/>
      </g>
     </g>
    </g>
    <g id="xtick_5">
     <g id="line2d_5">
      <g>
       <use xlink:href="#m3f5146de8e" x="3520.34177" y="961.2" style="stroke: #000000; stroke-width: 0.8"/>
      </g>
     </g>
     <g id="text_5">
      <!-- 2016 -->
      <g transform="translate(3494.89177 983.396875) scale(0.2 -0.2)">
       <defs>
        <path id="DejaVuSans-36" d="M 2113 2584 
Q 1688 2584 1439 2293 
Q 1191 2003 1191 1497 
Q 1191 994 1439 701 
Q 1688 409 2113 409 
Q 2538 409 2786 701 
Q 3034 994 3034 1497 
Q 3034 2003 2786 2293 
Q 2538 2584 2113 2584 
z
M 3366 4563 
L 3366 3988 
Q 3128 4100 2886 4159 
Q 2644 4219 2406 4219 
Q 1781 4219 1451 3797 
Q 1122 3375 1075 2522 
Q 1259 2794 1537 2939 
Q 1816 3084 2150 3084 
Q 2853 3084 3261 2657 
Q 3669 2231 3669 1497 
Q 3669 778 3244 343 
Q 2819 -91 2113 -91 
Q 1303 -91 875 529 
Q 447 1150 447 2328 
Q 447 3434 972 4092 
Q 1497 4750 2381 4750 
Q 2619 4750 2861 4703 
Q 3103 4656 3366 4563 
z
" transform="scale(0.015625)"/>
       </defs>
       <use xlink:href="#DejaVuSans-32"/>
       <use xlink:href="#DejaVuSans-30" x="63.623047"/>
       <use xlink:href="#DejaVuSans-31" x="127.246094"/>
       <use xlink:href="#DejaVuSans-36" x="190.869141"/>
      </g>
     </g>
    </g>
    <g id="text_6">
     <!-- Time -->
     <g transform="translate(2374.032813 1006.753125) scale(0.2 -0.2)">
      <defs>
       <path id="DejaVuSans-54" d="M -19 4666 
L 3928 4666 
L 3928 4134 
L 2272 4134 
L 2272 0 
L 1638 0 
L 1638 4134 
L -19 4134 
L -19 4666 
z
" transform="scale(0.015625)"/>
       <path id="DejaVuSans-69" d="M 603 3500 
L 1178 3500 
L 1178 0 
L 603 0 
L 603 3500 
z
M 603 4863 
L 1178 4863 
L 1178 4134 
L 603 4134 
L 603 4863 
z
" transform="scale(0.015625)"/>
       <path id="DejaVuSans-6d" d="M 3328 2828 
Q 3544 3216 3844 3400 
Q 4144 3584 4550 3584 
Q 5097 3584 5394 3201 
Q 5691 2819 5691 2113 
L 5691 0 
L 5113 0 
L 5113 2094 
Q 5113 2597 4934 2840 
Q 4756 3084 4391 3084 
Q 3944 3084 3684 2787 
Q 3425 2491 3425 1978 
L 3425 0 
L 2847 0 
L 2847 2094 
Q 2847 2600 2669 2842 
Q 2491 3084 2119 3084 
Q 1678 3084 1418 2786 
Q 1159 2488 1159 1978 
L 1159 0 
L 581 0 
L 581 3500 
L 1159 3500 
L 1159 2956 
Q 1356 3278 1631 3431 
Q 1906 3584 2284 3584 
Q 2666 3584 2933 3390 
Q 3200 3197 3328 2828 
z
" transform="scale(0.015625)"/>
       <path id="DejaVuSans-65" d="M 3597 1894 
L 3597 1613 
L 953 1613 
Q 991 1019 1311 708 
Q 1631 397 2203 397 
Q 2534 397 2845 478 
Q 3156 559 3463 722 
L 3463 178 
Q 3153 47 2828 -22 
Q 2503 -91 2169 -91 
Q 1331 -91 842 396 
Q 353 884 353 1716 
Q 353 2575 817 3079 
Q 1281 3584 2069 3584 
Q 2775 3584 3186 3129 
Q 3597 2675 3597 1894 
z
M 3022 2063 
Q 3016 2534 2758 2815 
Q 2500 3097 2075 3097 
Q 1594 3097 1305 2825 
Q 1016 2553 972 2059 
L 3022 2063 
z
" transform="scale(0.015625)"/>
      </defs>
      <use xlink:href="#DejaVuSans-54"/>
      <use xlink:href="#DejaVuSans-69" x="57.958984"/>
      <use xlink:href="#DejaVuSans-6d" x="85.742188"/>
      <use xlink:href="#DejaVuSans-65" x="183.154297"/>
     </g>
    </g>
   </g>
   <g id="matplotlib.axis_2">
    <g id="ytick_1">
     <g id="line2d_6">
      <defs>
       <path id="m2a4a476c9a" d="M 0 0 
L -3.5 0 
" style="stroke: #000000; stroke-width: 0.8"/>
      </defs>
      <g>
       <use xlink:href="#m2a4a476c9a" x="585" y="933.186306" style="stroke: #000000; stroke-width: 0.8"/>
      </g>
     </g>
     <g id="text_7">
      <!-- −0.0125 -->
      <g transform="translate(491.259375 940.784744) scale(0.2 -0.2)">
       <defs>
        <path id="DejaVuSans-2212" d="M 678 2272 
L 4684 2272 
L 4684 1741 
L 678 1741 
L 678 2272 
z
" transform="scale(0.015625)"/>
        <path id="DejaVuSans-2e" d="M 684 794 
L 1344 794 
L 1344 0 
L 684 0 
L 684 794 
z
" transform="scale(0.015625)"/>
       </defs>
       <use xlink:href="#DejaVuSans-2212"/>
       <use xlink:href="#DejaVuSans-30" x="83.789062"/>
       <use xlink:href="#DejaVuSans-2e" x="147.412109"/>
       <use xlink:href="#DejaVuSans-30" x="179.199219"/>
       <use xlink:href="#DejaVuSans-31" x="242.822266"/>
       <use xlink:href="#DejaVuSans-32" x="306.445312"/>
       <use xlink:href="#DejaVuSans-35" x="370.068359"/>
      </g>
     </g>
    </g>
    <g id="ytick_2">
     <g id="line2d_7">
      <g>
       <use xlink:href="#m2a4a476c9a" x="585" y="837.93389" style="stroke: #000000; stroke-width: 0.8"/>
      </g>
     </g>
     <g id="text_8">
      <!-- −0.0100 -->
      <g transform="translate(491.259375 845.532327) scale(0.2 -0.2)">
       <use xlink:href="#DejaVuSans-2212"/>
       <use xlink:href="#DejaVuSans-30" x="83.789062"/>
       <use xlink:href="#DejaVuSans-2e" x="147.412109"/>
       <use xlink:href="#DejaVuSans-30" x="179.199219"/>
       <use xlink:href="#DejaVuSans-31" x="242.822266"/>
       <use xlink:href="#DejaVuSans-30" x="306.445312"/>
       <use xlink:href="#DejaVuSans-30" x="370.068359"/>
      </g>
     </g>
    </g>
    <g id="ytick_3">
     <g id="line2d_8">
      <g>
       <use xlink:href="#m2a4a476c9a" x="585" y="742.681473" style="stroke: #000000; stroke-width: 0.8"/>
      </g>
     </g>
     <g id="text_9">
      <!-- −0.0075 -->
      <g transform="translate(491.259375 750.279911) scale(0.2 -0.2)">
       <defs>
        <path id="DejaVuSans-37" d="M 525 4666 
L 3525 4666 
L 3525 4397 
L 1831 0 
L 1172 0 
L 2766 4134 
L 525 4134 
L 525 4666 
z
" transform="scale(0.015625)"/>
       </defs>
       <use xlink:href="#DejaVuSans-2212"/>
       <use xlink:href="#DejaVuSans-30" x="83.789062"/>
       <use xlink:href="#DejaVuSans-2e" x="147.412109"/>
       <use xlink:href="#DejaVuSans-30" x="179.199219"/>
       <use xlink:href="#DejaVuSans-30" x="242.822266"/>
       <use xlink:href="#DejaVuSans-37" x="306.445312"/>
       <use xlink:href="#DejaVuSans-35" x="370.068359"/>
      </g>
     </g>
    </g>
    <g id="ytick_4">
     <g id="line2d_9">
      <g>
       <use xlink:href="#m2a4a476c9a" x="585" y="647.429057" style="stroke: #000000; stroke-width: 0.8"/>
      </g>
     </g>
     <g id="text_10">
      <!-- −0.0050 -->
      <g transform="translate(491.259375 655.027495) scale(0.2 -0.2)">
       <use xlink:href="#DejaVuSans-2212"/>
       <use xlink:href="#DejaVuSans-30" x="83.789062"/>
       <use xlink:href="#DejaVuSans-2e" x="147.412109"/>
       <use xlink:href="#DejaVuSans-30" x="179.199219"/>
       <use xlink:href="#DejaVuSans-30" x="242.822266"/>
       <use xlink:href="#DejaVuSans-35" x="306.445312"/>
       <use xlink:href="#DejaVuSans-30" x="370.068359"/>
      </g>
     </g>
    </g>
    <g id="ytick_5">
     <g id="line2d_10">
      <g>
       <use xlink:href="#m2a4a476c9a" x="585" y="552.176641" style="stroke: #000000; stroke-width: 0.8"/>
      </g>
     </g>
     <g id="text_11">
      <!-- −0.0025 -->
      <g transform="translate(491.259375 559.775078) scale(0.2 -0.2)">
       <use xlink:href="#DejaVuSans-2212"/>
       <use xlink:href="#DejaVuSans-30" x="83.789062"/>
       <use xlink:href="#DejaVuSans-2e" x="147.412109"/>
       <use xlink:href="#DejaVuSans-30" x="179.199219"/>
       <use xlink:href="#DejaVuSans-30" x="242.822266"/>
       <use xlink:href="#DejaVuSans-32" x="306.445312"/>
       <use xlink:href="#DejaVuSans-35" x="370.068359"/>
      </g>
     </g>
    </g>
    <g id="ytick_6">
     <g id="line2d_11">
      <g>
       <use xlink:href="#m2a4a476c9a" x="585" y="456.924225" style="stroke: #000000; stroke-width: 0.8"/>
      </g>
     </g>
     <g id="text_12">
      <!-- 0.0000 -->
      <g transform="translate(508.01875 464.522662) scale(0.2 -0.2)">
       <use xlink:href="#DejaVuSans-30"/>
       <use xlink:href="#DejaVuSans-2e" x="63.623047"/>
       <use xlink:href="#DejaVuSans-30" x="95.410156"/>
       <use xlink:href="#DejaVuSans-30" x="159.033203"/>
       <use xlink:href="#DejaVuSans-30" x="222.65625"/>
       <use xlink:href="#DejaVuSans-30" x="286.279297"/>
      </g>
     </g>
    </g>
    <g id="ytick_7">
     <g id="line2d_12">
      <g>
       <use xlink:href="#m2a4a476c9a" x="585" y="361.671808" style="stroke: #000000; stroke-width: 0.8"/>
      </g>
     </g>
     <g id="text_13">
      <!-- 0.0025 -->
      <g transform="translate(508.01875 369.270246) scale(0.2 -0.2)">
       <use xlink:href="#DejaVuSans-30"/>
       <use xlink:href="#DejaVuSans-2e" x="63.623047"/>
       <use xlink:href="#DejaVuSans-30" x="95.410156"/>
       <use xlink:href="#DejaVuSans-30" x="159.033203"/>
       <use xlink:href="#DejaVuSans-32" x="222.65625"/>
       <use xlink:href="#DejaVuSans-35" x="286.279297"/>
      </g>
     </g>
    </g>
    <g id="ytick_8">
     <g id="line2d_13">
      <g>
       <use xlink:href="#m2a4a476c9a" x="585" y="266.419392" style="stroke: #000000; stroke-width: 0.8"/>
      </g>
     </g>
     <g id="text_14">
      <!-- 0.0050 -->
      <g transform="translate(508.01875 274.017829) scale(0.2 -0.2)">
       <use xlink:href="#DejaVuSans-30"/>
       <use xlink:href="#DejaVuSans-2e" x="63.623047"/>
       <use xlink:href="#DejaVuSans-30" x="95.410156"/>
       <use xlink:href="#DejaVuSans-30" x="159.033203"/>
       <use xlink:href="#DejaVuSans-35" x="222.65625"/>
       <use xlink:href="#DejaVuSans-30" x="286.279297"/>
      </g>
     </g>
    </g>
    <g id="ytick_9">
     <g id="line2d_14">
      <g>
       <use xlink:href="#m2a4a476c9a" x="585" y="171.166976" style="stroke: #000000; stroke-width: 0.8"/>
      </g>
     </g>
     <g id="text_15">
      <!-- 0.0075 -->
      <g transform="translate(508.01875 178.765413) scale(0.2 -0.2)">
       <use xlink:href="#DejaVuSans-30"/>
       <use xlink:href="#DejaVuSans-2e" x="63.623047"/>
       <use xlink:href="#DejaVuSans-30" x="95.410156"/>
       <use xlink:href="#DejaVuSans-30" x="159.033203"/>
       <use xlink:href="#DejaVuSans-37" x="222.65625"/>
       <use xlink:href="#DejaVuSans-35" x="286.279297"/>
      </g>
     </g>
    </g>
    <g id="text_16">
     <!-- East(m) -->
     <g transform="translate(483.1 584.520313) rotate(-90) scale(0.2 -0.2)">
      <defs>
       <path id="DejaVuSans-45" d="M 628 4666 
L 3578 4666 
L 3578 4134 
L 1259 4134 
L 1259 2753 
L 3481 2753 
L 3481 2222 
L 1259 2222 
L 1259 531 
L 3634 531 
L 3634 0 
L 628 0 
L 628 4666 
z
" transform="scale(0.015625)"/>
       <path id="DejaVuSans-61" d="M 2194 1759 
Q 1497 1759 1228 1600 
Q 959 1441 959 1056 
Q 959 750 1161 570 
Q 1363 391 1709 391 
Q 2188 391 2477 730 
Q 2766 1069 2766 1631 
L 2766 1759 
L 2194 1759 
z
M 3341 1997 
L 3341 0 
L 2766 0 
L 2766 531 
Q 2569 213 2275 61 
Q 1981 -91 1556 -91 
Q 1019 -91 701 211 
Q 384 513 384 1019 
Q 384 1609 779 1909 
Q 1175 2209 1959 2209 
L 2766 2209 
L 2766 2266 
Q 2766 2663 2505 2880 
Q 2244 3097 1772 3097 
Q 1472 3097 1187 3025 
Q 903 2953 641 2809 
L 641 3341 
Q 956 3463 1253 3523 
Q 1550 3584 1831 3584 
Q 2591 3584 2966 3190 
Q 3341 2797 3341 1997 
z
" transform="scale(0.015625)"/>
       <path id="DejaVuSans-73" d="M 2834 3397 
L 2834 2853 
Q 2591 2978 2328 3040 
Q 2066 3103 1784 3103 
Q 1356 3103 1142 2972 
Q 928 2841 928 2578 
Q 928 2378 1081 2264 
Q 1234 2150 1697 2047 
L 1894 2003 
Q 2506 1872 2764 1633 
Q 3022 1394 3022 966 
Q 3022 478 2636 193 
Q 2250 -91 1575 -91 
Q 1294 -91 989 -36 
Q 684 19 347 128 
L 347 722 
Q 666 556 975 473 
Q 1284 391 1588 391 
Q 1994 391 2212 530 
Q 2431 669 2431 922 
Q 2431 1156 2273 1281 
Q 2116 1406 1581 1522 
L 1381 1569 
Q 847 1681 609 1914 
Q 372 2147 372 2553 
Q 372 3047 722 3315 
Q 1072 3584 1716 3584 
Q 2034 3584 2315 3537 
Q 2597 3491 2834 3397 
z
" transform="scale(0.015625)"/>
       <path id="DejaVuSans-74" d="M 1172 4494 
L 1172 3500 
L 2356 3500 
L 2356 3053 
L 1172 3053 
L 1172 1153 
Q 1172 725 1289 603 
Q 1406 481 1766 481 
L 2356 481 
L 2356 0 
L 1766 0 
Q 1100 0 847 248 
Q 594 497 594 1153 
L 594 3053 
L 172 3053 
L 172 3500 
L 594 3500 
L 594 4494 
L 1172 4494 
z
" transform="scale(0.015625)"/>
       <path id="DejaVuSans-28" d="M 1984 4856 
Q 1566 4138 1362 3434 
Q 1159 2731 1159 2009 
Q 1159 1288 1364 580 
Q 1569 -128 1984 -844 
L 1484 -844 
Q 1016 -109 783 600 
Q 550 1309 550 2009 
Q 550 2706 781 3412 
Q 1013 4119 1484 4856 
L 1984 4856 
z
" transform="scale(0.015625)"/>
       <path id="DejaVuSans-29" d="M 513 4856 
L 1013 4856 
Q 1481 4119 1714 3412 
Q 1947 2706 1947 2009 
Q 1947 1309 1714 600 
Q 1481 -109 1013 -844 
L 513 -844 
Q 928 -128 1133 580 
Q 1338 1288 1338 2009 
Q 1338 2731 1133 3434 
Q 928 4138 513 4856 
z
" transform="scale(0.015625)"/>
      </defs>
      <use xlink:href="#DejaVuSans-45"/>
      <use xlink:href="#DejaVuSans-61" x="63.183594"/>
      <use xlink:href="#DejaVuSans-73" x="124.462891"/>
      <use xlink:href="#DejaVuSans-74" x="176.5625"/>
      <use xlink:href="#DejaVuSans-28" x="215.771484"/>
      <use xlink:href="#DejaVuSans-6d" x="254.785156"/>
      <use xlink:href="#DejaVuSans-29" x="352.197266"/>
     </g>
    </g>
   </g>
   <g id="line2d_15">
    <path d="M 749.863636 407.086197 
L 751.786244 416.05137 
L 753.708852 417.063425 
L 755.63146 430.757573 
L 757.554068 429.960623 
L 759.476676 417.67331 
L 761.399284 396.881156 
L 763.321892 389.178317 
L 765.2445 364.713088 
L 767.167108 349.771898 
L 769.089716 340.979682 
L 771.012324 339.43232 
L 772.934932 335.362271 
L 774.85754 325.142296 
L 776.780148 328.156655 
L 778.702756 327.275429 
L 780.625364 319.69171 
L 782.547972 320.911634 
L 784.47058 317.282226 
L 786.393188 323.028025 
L 788.315796 329.364853 
L 790.238404 331.46002 
L 792.161012 342.736989 
L 794.08362 353.07359 
L 796.006228 362.791291 
L 797.928836 369.30892 
L 799.851444 365.184782 
L 801.774052 366.923835 
L 803.69666 357.800092 
L 805.619268 338.642494 
L 807.541876 327.317913 
L 815.232309 300.200345 
L 817.154917 300.905766 
L 821.000133 295.280217 
L 822.922741 299.254463 
L 824.845349 302.708489 
L 826.767957 299.832022 
L 828.690565 302.031217 
L 830.613173 298.189708 
L 832.535781 282.531314 
L 834.458389 284.207915 
L 836.380997 278.168889 
L 838.303605 278.224862 
L 840.226213 277.204618 
L 842.148821 275.255809 
L 844.071429 257.800569 
L 845.994037 277.550426 
L 847.916645 301.036294 
L 849.839253 309.073721 
L 853.684469 316.057573 
L 855.607077 310.459848 
L 857.529685 294.552598 
L 859.452293 310.817352 
L 861.374901 294.880274 
L 865.220117 249.226898 
L 867.142725 235.404737 
L 869.065333 235.305772 
L 870.987941 242.251811 
L 872.910549 228.666054 
L 874.833157 230.578695 
L 878.678373 245.778623 
L 880.600981 249.054538 
L 882.523589 245.268567 
L 884.446197 247.090548 
L 890.214021 230.957864 
L 892.136629 213.263253 
L 894.059237 192.699291 
L 895.981845 189.974838 
L 897.904453 181.878736 
L 899.827061 191.453973 
L 901.749669 195.873861 
L 903.672277 198.22661 
L 905.594885 194.367201 
L 907.517493 197.462539 
L 909.440101 196.870586 
L 911.362709 195.649224 
L 913.285317 192.72837 
L 917.130533 189.323995 
L 919.053141 200.040009 
L 920.975749 198.334823 
L 922.898357 193.174849 
L 924.820965 196.169978 
L 926.743573 197.588103 
L 932.511397 185.172054 
L 934.434005 189.026773 
L 936.356613 192.543102 
L 938.279221 190.233555 
L 949.814869 172.37242 
L 955.582693 167.4 
L 957.505301 171.510287 
L 959.427909 169.65762 
L 961.350517 176.260818 
L 969.040949 198.848534 
L 974.808773 212.887778 
L 976.731381 207.83023 
L 978.653989 207.656748 
L 980.576597 197.930226 
L 984.421813 189.541197 
L 986.344421 187.395984 
L 988.267029 190.846046 
L 990.189637 198.015855 
L 992.112245 208.461347 
L 995.957461 251.307646 
L 997.880069 252.947073 
L 999.802677 264.511646 
L 1001.725285 264.883978 
L 1007.493109 259.962432 
L 1009.415717 260.886964 
L 1011.338325 273.182429 
L 1013.260933 274.847591 
L 1015.183541 283.168608 
L 1017.106149 283.329471 
L 1019.028757 280.955834 
L 1020.951365 280.265329 
L 1022.873973 286.242143 
L 1024.796581 272.848708 
L 1026.719189 276.338945 
L 1028.641797 278.374117 
L 1030.564405 291.189203 
L 1034.409621 314.039695 
L 1036.332229 326.841052 
L 1038.254837 342.830274 
L 1042.100053 347.151862 
L 1053.635701 349.526093 
L 1057.480917 348.581087 
L 1159.379141 412.112435 
L 1161.301749 391.068868 
L 1163.224357 397.431132 
L 1318.955606 446.964974 
L 1320.878214 451.838556 
L 1322.800822 462.05547 
L 1332.413862 474.365679 
L 1336.259078 473.941207 
L 1338.181686 471.365773 
L 1340.104294 482.522465 
L 1342.026902 483.173559 
L 1343.94951 479.553186 
L 1345.872118 481.415352 
L 1347.794726 468.587699 
L 1365.098198 541.896126 
L 1368.943414 539.317215 
L 1415.086006 478.982758 
L 1417.008614 473.209263 
L 1424.699046 452.647627 
L 1426.621654 445.921438 
L 1428.544262 432.365185 
L 1430.46687 444.902818 
L 1432.389478 449.556554 
L 1434.312086 453.528956 
L 1436.234694 456.836102 
L 1438.157302 450.652116 
L 1442.002518 465.926741 
L 1470.841638 487.523264 
L 1472.764246 504.712667 
L 1474.686854 528.778362 
L 1476.609462 531.896335 
L 1480.454678 532.781312 
L 1482.377286 531.284929 
L 1486.222502 505.913118 
L 1488.14511 484.163143 
L 1490.067718 473.72641 
L 1491.990326 461.186437 
L 1499.680758 412.087965 
L 1501.603366 406.538145 
L 1503.525974 416.702467 
L 1509.293798 430.130683 
L 1511.216406 430.988894 
L 1513.139014 420.990004 
L 1515.061622 427.844892 
L 1516.98423 418.212203 
L 1520.829446 403.461687 
L 1522.752054 404.582886 
L 1524.674662 412.670161 
L 1528.519878 406.079438 
L 1530.442486 407.185245 
L 1532.365094 407.103726 
L 1540.055526 360.147469 
L 1541.978134 350.061366 
L 1543.900742 345.417811 
L 1545.82335 342.752772 
L 1547.745958 329.71775 
L 1549.668566 326.706689 
L 1551.591174 349.801214 
L 1553.513782 350.533001 
L 1555.43639 351.647997 
L 1557.358998 339.471727 
L 1559.281606 335.656847 
L 1563.126822 331.736594 
L 1565.04943 335.806016 
L 1566.972038 332.328712 
L 1568.894646 324.308726 
L 1572.739862 323.919742 
L 1574.66247 329.417339 
L 1576.585078 333.680333 
L 1578.507686 323.912016 
L 1580.430294 333.478547 
L 1582.352902 341.653298 
L 1584.27551 331.934901 
L 1586.198118 341.313809 
L 1588.120726 338.308521 
L 1593.88855 322.585344 
L 1636.185926 314.649981 
L 1640.031142 308.335227 
L 1643.876358 323.841405 
L 1645.798966 328.895587 
L 1647.721574 332.792477 
L 1649.644182 336.197251 
L 1653.489398 371.817966 
L 1655.412006 366.181798 
L 1657.334614 368.660457 
L 1665.025046 364.671859 
L 1666.947654 385.644545 
L 1668.870262 403.436907 
L 1672.715478 405.380834 
L 1674.638086 396.200255 
L 1676.560694 402.816428 
L 1678.483302 405.61782 
L 1680.40591 395.172284 
L 1684.251126 391.766779 
L 1686.173734 416.459169 
L 1691.941558 478.4768 
L 1693.864166 492.99102 
L 1697.709382 518.258636 
L 1699.63199 514.241559 
L 1701.554598 519.399821 
L 1703.477206 540.444618 
L 1722.703287 564.241366 
L 1724.625895 569.523711 
L 1726.548503 575.525389 
L 1728.471111 583.241537 
L 1730.393719 585.361028 
L 1732.316327 581.009622 
L 1734.238935 594.993908 
L 1736.161543 600.804048 
L 1738.084151 614.295683 
L 1740.006759 619.431162 
L 1743.851975 634.120942 
L 1745.774583 657.191447 
L 1751.542407 691.1188 
L 1753.465015 708.247597 
L 1755.387623 734.777294 
L 1757.310231 742.967602 
L 1759.232839 752.848016 
L 1761.155447 774.534739 
L 1765.000663 795.49479 
L 1766.923271 803.297488 
L 1772.691095 833.910728 
L 1774.613703 829.045077 
L 1780.381527 845.18962 
L 1782.304135 856.968964 
L 1784.226743 863.490418 
L 1786.149351 873.977525 
L 1788.071959 898.086505 
L 1789.994567 905.629505 
L 1801.530215 912.707348 
L 1805.375431 904.165127 
L 1807.298039 905.431951 
L 1809.220647 910.156822 
L 1811.143255 905.586886 
L 1813.065863 911.281961 
L 1816.911079 913.666296 
L 1818.833687 920.362281 
L 1820.756295 923.4 
L 1822.678903 911.849985 
L 1824.601511 903.768424 
L 1830.369335 913.816358 
L 1832.291943 885.89167 
L 1834.214551 871.088464 
L 1836.137159 869.973721 
L 1838.059767 872.822873 
L 1839.982375 863.156307 
L 1841.904983 858.546154 
L 1845.750199 847.555912 
L 1847.672807 858.692047 
L 1859.208455 847.587019 
L 1861.131063 825.176269 
L 1863.053671 824.841799 
L 1864.976279 838.251158 
L 1866.898887 836.082406 
L 1868.821495 826.971812 
L 1870.744103 821.436854 
L 1872.666711 823.725685 
L 1874.589319 832.210414 
L 1876.511927 823.298942 
L 1878.434535 824.136258 
L 1880.357143 840.063254 
L 1884.202359 838.979368 
L 1886.124967 837.970102 
L 1888.047575 838.527157 
L 1889.970183 832.861249 
L 1891.892791 815.786261 
L 1893.815399 790.397821 
L 1895.738007 773.171248 
L 1899.583223 764.939025 
L 1901.505831 773.138217 
L 1903.428439 772.426634 
L 1905.351047 766.478748 
L 1907.273655 776.932529 
L 1909.196263 792.528933 
L 1911.118871 783.926699 
L 1913.041479 789.79696 
L 1914.964087 785.47748 
L 2024.552743 749.465756 
L 2028.397959 658.023606 
L 2032.243175 593.531683 
L 2034.165783 550.795548 
L 2036.088391 517.688772 
L 2038.010999 526.366823 
L 2039.933607 550.559664 
L 2049.546647 624.326117 
L 2051.469255 641.817746 
L 2057.237079 617.540546 
L 2059.159687 599.528804 
L 2061.082295 602.752248 
L 2063.004903 598.938045 
L 2064.927511 595.920452 
L 2068.772727 622.699222 
L 2137.986615 438.799361 
L 2139.909223 434.996585 
L 2143.754439 453.926847 
L 2145.677047 449.369873 
L 2172.59356 436.995663 
L 2255.265704 747.54191 
L 2257.188312 741.484645 
L 2261.033528 651.79921 
L 2262.956136 592.17285 
L 2264.878744 489.230638 
L 2266.801352 482.021461 
L 2268.72396 385.077666 
L 2270.646568 342.358006 
L 2272.569176 332.750443 
L 2274.491784 332.952548 
L 2282.182216 323.144585 
L 2314.866552 304.964027 
L 2316.78916 295.069312 
L 2328.324808 292.41171 
L 2330.247416 291.150848 
L 2334.092632 262.210314 
L 2355.24132 298.273326 
L 2485.978664 852.935367 
L 2487.901272 870.942972 
L 2489.82388 867.5385 
L 2491.746488 855.810935 
L 2495.591704 859.440677 
L 2512.895176 871.454491 
L 2747.453353 560.953074 
L 2997.392393 346.391169 
L 2999.315001 353.427309 
L 3001.237609 356.303156 
L 3014.695865 334.025979 
L 3018.541081 320.380464 
L 3020.463689 337.912909 
L 3024.308905 322.130923 
L 3026.231513 318.221636 
L 3030.076729 330.24642 
L 3031.999337 330.573635 
L 3055.070633 319.938169 
L 3056.993241 323.640332 
L 3058.915849 341.886742 
L 3060.838457 334.323151 
L 3062.761065 319.965618 
L 3064.683673 324.979129 
L 3068.528889 339.726313 
L 3072.374105 331.462705 
L 3076.219321 331.338965 
L 3078.141929 352.348342 
L 3081.987146 344.230846 
L 3085.832362 343.652437 
L 3087.75497 344.463587 
L 3089.677578 367.854212 
L 3093.522794 359.896318 
L 3095.445402 375.556033 
L 3097.36801 395.584532 
L 3101.213226 432.888168 
L 3106.98105 453.752931 
L 3108.903658 447.737627 
L 3112.748874 455.600752 
L 3114.671482 456.301766 
L 3116.59409 468.88288 
L 3122.361914 498.24255 
L 3124.284522 512.961162 
L 3126.20713 514.048919 
L 3128.129738 511.080369 
L 3133.897562 504.734179 
L 3135.82017 522.793314 
L 3137.742778 504.55057 
L 3139.665386 503.453651 
L 3141.587994 502.141945 
L 3145.43321 514.499894 
L 3147.355818 528.251342 
L 3151.201034 526.340217 
L 3153.123642 536.867295 
L 3155.04625 558.271237 
L 3158.891466 583.61805 
L 3160.814074 594.697097 
L 3162.736682 594.415065 
L 3164.65929 609.117652 
L 3189.653194 605.859505 
L 3191.575802 594.051696 
L 3193.49841 568.720145 
L 3195.421018 558.015289 
L 3197.343626 559.460098 
L 3199.266234 557.047472 
L 3205.034058 581.790206 
L 3216.569706 601.873084 
L 3220.414922 587.108135 
L 3222.33753 583.154001 
L 3224.260138 586.267331 
L 3226.182746 583.892393 
L 3230.027962 578.798126 
L 3237.718394 590.535209 
L 3239.641002 592.392311 
L 3256.944474 518.83282 
L 3258.867082 538.200208 
L 3260.78969 541.113244 
L 3264.634906 527.902333 
L 3266.557514 546.655097 
L 3268.480122 547.671875 
L 3270.40273 541.94766 
L 3272.325338 533.858572 
L 3274.247946 529.777486 
L 3276.170554 538.616836 
L 3283.860986 536.654073 
L 3291.551418 541.51775 
L 3293.474026 552.525232 
L 3295.396634 553.900773 
L 3297.319242 564.895834 
L 3299.24185 557.626866 
L 3301.164458 559.374306 
L 3303.087066 563.686058 
L 3305.009674 561.143358 
L 3306.932282 549.901268 
L 3308.85489 540.494529 
L 3314.622714 543.040608 
L 3320.390538 575.742505 
L 3322.313146 593.68492 
L 3324.235754 581.540122 
L 3326.158362 584.066822 
L 3328.08097 580.925514 
L 3330.003578 584.08614 
L 3331.926186 569.509086 
L 3333.848794 559.737648 
L 3335.771402 545.888792 
L 3337.69401 544.55455 
L 3339.616618 540.453946 
L 3341.539226 522.523913 
L 3343.461834 512.577632 
L 3345.384442 493.310581 
L 3347.30705 487.507883 
L 3351.152266 498.159965 
L 3354.997482 515.391711 
L 3356.92009 517.172304 
L 3358.842698 535.690543 
L 3360.765306 525.846852 
L 3362.687914 522.244082 
L 3364.610522 513.357036 
L 3366.53313 493.677147 
L 3368.455738 486.957596 
L 3370.378346 477.802874 
L 3372.300954 482.816763 
L 3374.223562 497.022194 
L 3376.14617 505.551226 
L 3378.068778 515.712796 
L 3379.991386 535.638379 
L 3381.913994 535.533428 
L 3383.836602 541.046484 
L 3385.75921 538.520473 
L 3387.681818 535.367532 
L 3389.604426 531.8204 
L 3393.449642 526.395359 
L 3395.37225 535.103159 
L 3397.294858 531.398875 
L 3399.217466 523.166816 
L 3401.140074 521.404757 
L 3403.062682 518.017409 
L 3404.98529 518.593099 
L 3406.907898 518.962033 
L 3410.753114 526.361691 
L 3412.675722 536.399237 
L 3414.59833 543.526702 
L 3416.520938 551.749827 
L 3418.443546 548.47364 
L 3420.366154 550.867779 
L 3422.288762 544.677466 
L 3424.21137 545.067578 
L 3426.133978 549.525643 
L 3428.056586 559.647134 
L 3429.979194 566.542795 
L 3431.901802 576.411889 
L 3433.82441 573.187015 
L 3435.747018 571.024832 
L 3437.669626 561.758044 
L 3439.592234 571.119935 
L 3441.514842 564.523021 
L 3443.43745 549.799092 
L 3445.360058 540.430579 
L 3447.282666 533.115296 
L 3449.205274 542.524493 
L 3451.127882 550.895171 
L 3453.05049 532.577871 
L 3454.973098 520.50816 
L 3456.895706 521.392484 
L 3458.818314 535.682365 
L 3460.740922 532.794205 
L 3462.66353 536.671923 
L 3464.586138 545.454003 
L 3466.508746 546.985868 
L 3468.431354 551.385574 
L 3470.353962 551.700106 
L 3472.27657 536.29344 
L 3474.199178 537.929821 
L 3476.121786 535.152008 
L 3478.044394 528.886347 
L 3479.967002 542.641956 
L 3481.88961 543.247989 
L 3483.812218 545.721353 
L 3485.734826 536.639523 
L 3487.657434 539.131348 
L 3489.580042 535.476554 
L 3493.425258 530.820541 
L 3495.347866 530.89671 
L 3497.270474 530.595403 
L 3499.193082 543.143637 
L 3503.038298 549.40205 
L 3504.960906 538.347612 
L 3506.883514 529.182719 
L 3508.806122 531.209146 
L 3510.72873 527.604881 
L 3512.651338 525.878426 
L 3514.573946 528.504561 
L 3516.496554 518.241194 
L 3518.419162 518.052045 
L 3522.264378 508.303961 
L 3524.186986 499.17552 
L 3526.109594 491.552473 
L 3528.032202 482.367633 
L 3529.95481 487.658338 
L 3531.877418 497.696732 
L 3533.800027 498.179957 
L 3535.722635 506.470558 
L 3537.645243 502.298541 
L 3539.567851 507.164308 
L 3541.490459 530.57867 
L 3543.413067 527.527014 
L 3545.335675 514.518484 
L 3547.258283 509.964431 
L 3549.180891 497.151288 
L 3551.103499 503.914807 
L 3553.026107 501.417419 
L 3554.948715 471.643482 
L 3556.871323 470.137417 
L 3560.716539 455.769312 
L 3562.639147 465.209553 
L 3564.561755 453.713896 
L 3574.174795 445.142355 
L 3576.097403 440.183989 
L 3578.020011 455.946915 
L 3581.865227 459.588675 
L 3583.787835 466.241793 
L 3585.710443 457.355185 
L 3587.633051 436.571826 
L 3589.555659 426.201597 
L 3591.478267 406.04184 
L 3593.400875 400.102967 
L 3595.323483 398.76665 
L 3635.698251 348.492017 
L 3637.620859 351.710121 
L 3641.466075 343.335429 
L 3647.233899 361.472253 
L 3649.156507 365.562435 
L 3651.079115 353.34616 
L 3653.001723 352.111585 
L 3654.924331 356.521442 
L 3656.846939 354.03225 
L 3658.769547 342.687345 
L 3660.692155 338.886327 
L 3662.614763 325.396543 
L 3664.537371 329.933237 
L 3666.459979 338.352203 
L 3668.382587 337.923746 
L 3670.305195 349.363079 
L 3672.227803 358.572699 
L 3674.150411 370.397743 
L 3676.073019 361.511265 
L 3677.995627 363.972117 
L 3679.918235 353.55683 
L 3681.840843 352.218838 
L 3683.763451 335.033424 
L 3685.686059 326.089818 
L 3687.608667 326.382535 
L 3689.531275 331.011974 
L 3691.453883 326.874762 
L 3693.376491 319.034096 
L 3695.299099 318.105384 
L 3697.221707 305.843975 
L 3699.144315 301.960856 
L 3701.066923 277.471118 
L 3702.989531 283.609861 
L 3704.912139 274.92016 
L 3706.834747 264.934033 
L 3708.757355 251.318906 
L 3710.679963 263.99219 
L 3712.602571 269.714273 
L 3714.525179 285.96868 
L 3718.370395 293.290457 
L 3720.293003 303.831567 
L 3722.215611 322.709543 
L 3724.138219 322.038377 
L 3727.983435 315.630744 
L 3729.906043 307.05113 
L 3731.828651 309.858676 
L 3733.751259 308.338596 
L 3735.673867 303.381995 
L 3739.519083 326.253132 
L 3741.441691 326.343003 
L 3743.364299 327.814842 
L 3745.286907 329.136782 
L 3747.209515 328.496077 
L 3749.132123 317.536078 
L 3751.054731 308.087781 
L 3754.899947 297.819532 
L 3756.822555 300.05332 
L 3758.745163 307.290543 
L 3760.667771 306.42892 
L 3762.590379 312.557503 
L 3768.358203 287.759816 
L 3770.280811 284.410558 
L 3772.203419 272.526546 
L 3774.126027 265.237435 
L 3776.048635 267.186928 
L 3777.971243 285.457055 
L 3779.893851 292.763035 
L 3877.946859 602.498745 
L 3879.869467 603.367359 
L 3881.792075 593.917638 
L 3887.559899 586.327666 
L 3889.482507 570.821066 
L 3891.405115 568.456022 
L 3897.172939 589.35399 
L 3904.863371 650.657424 
L 3908.708587 659.835614 
L 3926.012059 631.5724 
L 3927.934667 626.337504 
L 3929.857275 624.681278 
L 3931.779883 620.510455 
L 3933.702491 610.058068 
L 3943.315531 601.618189 
L 3945.238139 601.092627 
L 3951.005963 624.505601 
L 3952.928571 616.804874 
L 3954.851179 629.419343 
L 3956.773787 598.995836 
L 3958.696395 600.329134 
L 3960.619003 599.653626 
L 3962.541611 591.452046 
L 3968.309435 595.945794 
L 3974.077259 604.758129 
L 3975.999867 610.118885 
L 3977.922475 607.01573 
L 3979.845083 611.822592 
L 3981.767691 621.869083 
L 3985.612908 643.609582 
L 3987.535516 648.56742 
L 3989.458124 640.402021 
L 3991.380732 646.272026 
L 4000.993772 600.413819 
L 4002.91638 601.587071 
L 4004.838988 599.877485 
L 4006.761596 594.108794 
L 4008.684204 587.799669 
L 4010.606812 588.899254 
L 4012.52942 580.886662 
L 4014.452028 593.52663 
L 4016.374636 588.130578 
L 4018.297244 584.78985 
L 4020.219852 590.742737 
L 4022.14246 588.46831 
L 4024.065068 585.93863 
L 4025.987676 587.792069 
L 4027.910284 593.961261 
L 4029.832892 598.402114 
L 4041.36854 592.369216 
L 4043.291148 590.704096 
L 4045.213756 595.716022 
L 4047.136364 581.989842 
L 4047.136364 581.989842 
" clip-path="url(#p8fc6cc7a4a)" style="fill: none; stroke: #023eff; stroke-width: 2.5; stroke-linecap: square"/>
   </g>
   <g id="patch_3">
    <path d="M 585 961.2 
L 585 129.6 
" style="fill: none; stroke: #000000; stroke-width: 0.8; stroke-linejoin: miter; stroke-linecap: square"/>
   </g>
   <g id="patch_4">
    <path d="M 4212 961.2 
L 4212 129.6 
" style="fill: none; stroke: #000000; stroke-width: 0.8; stroke-linejoin: miter; stroke-linecap: square"/>
   </g>
   <g id="patch_5">
    <path d="M 585 961.2 
L 4212 961.2 
" style="fill: none; stroke: #000000; stroke-width: 0.8; stroke-linejoin: miter; stroke-linecap: square"/>
   </g>
   <g id="patch_6">
    <path d="M 585 129.6 
L 4212 129.6 
" style="fill: none; stroke: #000000; stroke-width: 0.8; stroke-linejoin: miter; stroke-linecap: square"/>
   </g>
   <g id="text_17">
    <!-- AFAL -->
    <g transform="translate(2362.361719 123.360937) scale(0.3 -0.3)">
     <defs>
      <path id="DejaVuSans-41" d="M 2188 4044 
L 1331 1722 
L 3047 1722 
L 2188 4044 
z
M 1831 4666 
L 2547 4666 
L 4325 0 
L 3669 0 
L 3244 1197 
L 1141 1197 
L 716 0 
L 50 0 
L 1831 4666 
z
" transform="scale(0.015625)"/>
      <path id="DejaVuSans-46" d="M 628 4666 
L 3309 4666 
L 3309 4134 
L 1259 4134 
L 1259 2759 
L 3109 2759 
L 3109 2228 
L 1259 2228 
L 1259 0 
L 628 0 
L 628 4666 
z
" transform="scale(0.015625)"/>
      <path id="DejaVuSans-4c" d="M 628 4666 
L 1259 4666 
L 1259 531 
L 3531 531 
L 3531 0 
L 628 0 
L 628 4666 
z
" transform="scale(0.015625)"/>
     </defs>
     <use xlink:href="#DejaVuSans-41"/>
     <use xlink:href="#DejaVuSans-46" x="68.408203"/>
     <use xlink:href="#DejaVuSans-41" x="116.802734"/>
     <use xlink:href="#DejaVuSans-4c" x="185.210938"/>
    </g>
   </g>
   <g id="legend_1">
    <g id="patch_7">
     <path d="M 4154.445312 152.278125 
L 4205 152.278125 
Q 4207 152.278125 4207 150.278125 
L 4207 136.6 
Q 4207 134.6 4205 134.6 
L 4154.445312 134.6 
Q 4152.445312 134.6 4152.445312 136.6 
L 4152.445312 150.278125 
Q 4152.445312 152.278125 4154.445312 152.278125 
z
" style="fill: #ffffff; opacity: 0.8; stroke: #cccccc; stroke-linejoin: miter"/>
    </g>
    <g id="line2d_16">
     <path d="M 4156.445312 142.698438 
L 4166.445312 142.698438 
L 4176.445312 142.698438 
" style="fill: none; stroke: #023eff; stroke-width: 2.5; stroke-linecap: square"/>
    </g>
    <g id="text_18">
     <!-- afal -->
     <g transform="translate(4184.445312 146.198438) scale(0.1 -0.1)">
      <defs>
       <path id="DejaVuSans-66" d="M 2375 4863 
L 2375 4384 
L 1825 4384 
Q 1516 4384 1395 4259 
Q 1275 4134 1275 3809 
L 1275 3500 
L 2222 3500 
L 2222 3053 
L 1275 3053 
L 1275 0 
L 697 0 
L 697 3053 
L 147 3053 
L 147 3500 
L 697 3500 
L 697 3744 
Q 697 4328 969 4595 
Q 1241 4863 1831 4863 
L 2375 4863 
z
" transform="scale(0.015625)"/>
       <path id="DejaVuSans-6c" d="M 603 4863 
L 1178 4863 
L 1178 0 
L 603 0 
L 603 4863 
z
" transform="scale(0.015625)"/>
      </defs>
      <use xlink:href="#DejaVuSans-61"/>
      <use xlink:href="#DejaVuSans-66" x="61.279297"/>
      <use xlink:href="#DejaVuSans-61" x="96.484375"/>
      <use xlink:href="#DejaVuSans-6c" x="157.763672"/>
     </g>
    </g>
   </g>
  </g>
 </g>
 <defs>
  <clipPath id="p8fc6cc7a4a">
   <rect x="585" y="129.6" width="3627" height="831.6"/>
  </clipPath>
 </defs>
</svg>
