<?xml version="1.0" encoding="utf-8" standalone="no"?>
<!DOCTYPE svg PUBLIC "-//W3C//DTD SVG 1.1//EN"
  "http://www.w3.org/Graphics/SVG/1.1/DTD/svg11.dtd">
<svg xmlns:xlink="http://www.w3.org/1999/xlink" width="4680pt" height="1080pt" viewBox="0 0 4680 1080" xmlns="http://www.w3.org/2000/svg" version="1.1">
 <metadata>
  <rdf:RDF xmlns:dc="http://purl.org/dc/elements/1.1/" xmlns:cc="http://creativecommons.org/ns#" xmlns:rdf="http://www.w3.org/1999/02/22-rdf-syntax-ns#">
   <cc:Work>
    <dc:type rdf:resource="http://purl.org/dc/dcmitype/StillImage"/>
    <dc:date>2024-03-20T10:33:05.582294</dc:date>
    <dc:format>image/svg+xml</dc:format>
    <dc:creator>
     <cc:Agent>
      <dc:title>Matplotlib v3.7.2, https://matplotlib.org/</dc:title>
     </cc:Agent>
    </dc:creator>
   </cc:Work>
  </rdf:RDF>
 </metadata>
 <defs>
  <style type="text/css">*{stroke-linejoin: round; stroke-linecap: butt}</style>
 </defs>
 <g id="figure_1">
  <g id="patch_1">
   <path d="M 0 1080 
L 4680 1080 
L 4680 0 
L 0 0 
z
" style="fill: #ffffff"/>
  </g>
  <g id="axes_1">
   <g id="patch_2">
    <path d="M 585 961.2 
L 4212 961.2 
L 4212 129.6 
L 585 129.6 
z
" style="fill: #ffffff"/>
   </g>
   <g id="matplotlib.axis_1">
    <g id="xtick_1">
     <g id="line2d_1">
      <defs>
       <path id="m3ff5221d09" d="M 0 0 
L 0 3.5 
" style="stroke: #000000; stroke-width: 0.8"/>
      </defs>
      <g>
       <use xlink:href="#m3ff5221d09" x="711.411476" y="961.2" style="stroke: #000000; stroke-width: 0.8"/>
      </g>
     </g>
     <g id="text_1">
      <!-- 2012 -->
      <g transform="translate(685.961476 983.396875) scale(0.2 -0.2)">
       <defs>
        <path id="DejaVuSans-32" d="M 1228 531 
L 3431 531 
L 3431 0 
L 469 0 
L 469 531 
Q 828 903 1448 1529 
Q 2069 2156 2228 2338 
Q 2531 2678 2651 2914 
Q 2772 3150 2772 3378 
Q 2772 3750 2511 3984 
Q 2250 4219 1831 4219 
Q 1534 4219 1204 4116 
Q 875 4013 500 3803 
L 500 4441 
Q 881 4594 1212 4672 
Q 1544 4750 1819 4750 
Q 2544 4750 2975 4387 
Q 3406 4025 3406 3419 
Q 3406 3131 3298 2873 
Q 3191 2616 2906 2266 
Q 2828 2175 2409 1742 
Q 1991 1309 1228 531 
z
" transform="scale(0.015625)"/>
        <path id="DejaVuSans-30" d="M 2034 4250 
Q 1547 4250 1301 3770 
Q 1056 3291 1056 2328 
Q 1056 1369 1301 889 
Q 1547 409 2034 409 
Q 2525 409 2770 889 
Q 3016 1369 3016 2328 
Q 3016 3291 2770 3770 
Q 2525 4250 2034 4250 
z
M 2034 4750 
Q 2819 4750 3233 4129 
Q 3647 3509 3647 2328 
Q 3647 1150 3233 529 
Q 2819 -91 2034 -91 
Q 1250 -91 836 529 
Q 422 1150 422 2328 
Q 422 3509 836 4129 
Q 1250 4750 2034 4750 
z
" transform="scale(0.015625)"/>
        <path id="DejaVuSans-31" d="M 794 531 
L 1825 531 
L 1825 4091 
L 703 3866 
L 703 4441 
L 1819 4666 
L 2450 4666 
L 2450 531 
L 3481 531 
L 3481 0 
L 794 0 
L 794 531 
z
" transform="scale(0.015625)"/>
       </defs>
       <use xlink:href="#DejaVuSans-32"/>
       <use xlink:href="#DejaVuSans-30" x="63.623047"/>
       <use xlink:href="#DejaVuSans-31" x="127.246094"/>
       <use xlink:href="#DejaVuSans-32" x="190.869141"/>
      </g>
     </g>
    </g>
    <g id="xtick_2">
     <g id="line2d_2">
      <g>
       <use xlink:href="#m3ff5221d09" x="1415.086006" y="961.2" style="stroke: #000000; stroke-width: 0.8"/>
      </g>
     </g>
     <g id="text_2">
      <!-- 2013 -->
      <g transform="translate(1389.636006 983.396875) scale(0.2 -0.2)">
       <defs>
        <path id="DejaVuSans-33" d="M 2597 2516 
Q 3050 2419 3304 2112 
Q 3559 1806 3559 1356 
Q 3559 666 3084 287 
Q 2609 -91 1734 -91 
Q 1441 -91 1130 -33 
Q 819 25 488 141 
L 488 750 
Q 750 597 1062 519 
Q 1375 441 1716 441 
Q 2309 441 2620 675 
Q 2931 909 2931 1356 
Q 2931 1769 2642 2001 
Q 2353 2234 1838 2234 
L 1294 2234 
L 1294 2753 
L 1863 2753 
Q 2328 2753 2575 2939 
Q 2822 3125 2822 3475 
Q 2822 3834 2567 4026 
Q 2313 4219 1838 4219 
Q 1578 4219 1281 4162 
Q 984 4106 628 3988 
L 628 4550 
Q 988 4650 1302 4700 
Q 1616 4750 1894 4750 
Q 2613 4750 3031 4423 
Q 3450 4097 3450 3541 
Q 3450 3153 3228 2886 
Q 3006 2619 2597 2516 
z
" transform="scale(0.015625)"/>
       </defs>
       <use xlink:href="#DejaVuSans-32"/>
       <use xlink:href="#DejaVuSans-30" x="63.623047"/>
       <use xlink:href="#DejaVuSans-31" x="127.246094"/>
       <use xlink:href="#DejaVuSans-33" x="190.869141"/>
      </g>
     </g>
    </g>
    <g id="xtick_3">
     <g id="line2d_3">
      <g>
       <use xlink:href="#m3ff5221d09" x="2116.837927" y="961.2" style="stroke: #000000; stroke-width: 0.8"/>
      </g>
     </g>
     <g id="text_3">
      <!-- 2014 -->
      <g transform="translate(2091.387927 983.396875) scale(0.2 -0.2)">
       <defs>
        <path id="DejaVuSans-34" d="M 2419 4116 
L 825 1625 
L 2419 1625 
L 2419 4116 
z
M 2253 4666 
L 3047 4666 
L 3047 1625 
L 3713 1625 
L 3713 1100 
L 3047 1100 
L 3047 0 
L 2419 0 
L 2419 1100 
L 313 1100 
L 313 1709 
L 2253 4666 
z
" transform="scale(0.015625)"/>
       </defs>
       <use xlink:href="#DejaVuSans-32"/>
       <use xlink:href="#DejaVuSans-30" x="63.623047"/>
       <use xlink:href="#DejaVuSans-31" x="127.246094"/>
       <use xlink:href="#DejaVuSans-34" x="190.869141"/>
      </g>
     </g>
    </g>
    <g id="xtick_4">
     <g id="line2d_4">
      <g>
       <use xlink:href="#m3ff5221d09" x="2818.589849" y="961.2" style="stroke: #000000; stroke-width: 0.8"/>
      </g>
     </g>
     <g id="text_4">
      <!-- 2015 -->
      <g transform="translate(2793.139849 983.396875) scale(0.2 -0.2)">
       <defs>
        <path id="DejaVuSans-35" d="M 691 4666 
L 3169 4666 
L 3169 4134 
L 1269 4134 
L 1269 2991 
Q 1406 3038 1543 3061 
Q 1681 3084 1819 3084 
Q 2600 3084 3056 2656 
Q 3513 2228 3513 1497 
Q 3513 744 3044 326 
Q 2575 -91 1722 -91 
Q 1428 -91 1123 -41 
Q 819 9 494 109 
L 494 744 
Q 775 591 1075 516 
Q 1375 441 1709 441 
Q 2250 441 2565 725 
Q 2881 1009 2881 1497 
Q 2881 1984 2565 2268 
Q 2250 2553 1709 2553 
Q 1456 2553 1204 2497 
Q 953 2441 691 2322 
L 691 4666 
z
" transform="scale(0.015625)"/>
       </defs>
       <use xlink:href="#DejaVuSans-32"/>
       <use xlink:href="#DejaVuSans-30" x="63.623047"/>
       <use xlink:href="#DejaVuSans-31" x="127.246094"/>
       <use xlink:href="#DejaVuSans-35" x="190.869141"/>
      </g>
     </g>
    </g>
    <g id="xtick_5">
     <g id="line2d_5">
      <g>
       <use xlink:href="#m3ff5221d09" x="3520.34177" y="961.2" style="stroke: #000000; stroke-width: 0.8"/>
      </g>
     </g>
     <g id="text_5">
      <!-- 2016 -->
      <g transform="translate(3494.89177 983.396875) scale(0.2 -0.2)">
       <defs>
        <path id="DejaVuSans-36" d="M 2113 2584 
Q 1688 2584 1439 2293 
Q 1191 2003 1191 1497 
Q 1191 994 1439 701 
Q 1688 409 2113 409 
Q 2538 409 2786 701 
Q 3034 994 3034 1497 
Q 3034 2003 2786 2293 
Q 2538 2584 2113 2584 
z
M 3366 4563 
L 3366 3988 
Q 3128 4100 2886 4159 
Q 2644 4219 2406 4219 
Q 1781 4219 1451 3797 
Q 1122 3375 1075 2522 
Q 1259 2794 1537 2939 
Q 1816 3084 2150 3084 
Q 2853 3084 3261 2657 
Q 3669 2231 3669 1497 
Q 3669 778 3244 343 
Q 2819 -91 2113 -91 
Q 1303 -91 875 529 
Q 447 1150 447 2328 
Q 447 3434 972 4092 
Q 1497 4750 2381 4750 
Q 2619 4750 2861 4703 
Q 3103 4656 3366 4563 
z
" transform="scale(0.015625)"/>
       </defs>
       <use xlink:href="#DejaVuSans-32"/>
       <use xlink:href="#DejaVuSans-30" x="63.623047"/>
       <use xlink:href="#DejaVuSans-31" x="127.246094"/>
       <use xlink:href="#DejaVuSans-36" x="190.869141"/>
      </g>
     </g>
    </g>
    <g id="text_6">
     <!-- Time -->
     <g transform="translate(2374.032813 1006.753125) scale(0.2 -0.2)">
      <defs>
       <path id="DejaVuSans-54" d="M -19 4666 
L 3928 4666 
L 3928 4134 
L 2272 4134 
L 2272 0 
L 1638 0 
L 1638 4134 
L -19 4134 
L -19 4666 
z
" transform="scale(0.015625)"/>
       <path id="DejaVuSans-69" d="M 603 3500 
L 1178 3500 
L 1178 0 
L 603 0 
L 603 3500 
z
M 603 4863 
L 1178 4863 
L 1178 4134 
L 603 4134 
L 603 4863 
z
" transform="scale(0.015625)"/>
       <path id="DejaVuSans-6d" d="M 3328 2828 
Q 3544 3216 3844 3400 
Q 4144 3584 4550 3584 
Q 5097 3584 5394 3201 
Q 5691 2819 5691 2113 
L 5691 0 
L 5113 0 
L 5113 2094 
Q 5113 2597 4934 2840 
Q 4756 3084 4391 3084 
Q 3944 3084 3684 2787 
Q 3425 2491 3425 1978 
L 3425 0 
L 2847 0 
L 2847 2094 
Q 2847 2600 2669 2842 
Q 2491 3084 2119 3084 
Q 1678 3084 1418 2786 
Q 1159 2488 1159 1978 
L 1159 0 
L 581 0 
L 581 3500 
L 1159 3500 
L 1159 2956 
Q 1356 3278 1631 3431 
Q 1906 3584 2284 3584 
Q 2666 3584 2933 3390 
Q 3200 3197 3328 2828 
z
" transform="scale(0.015625)"/>
       <path id="DejaVuSans-65" d="M 3597 1894 
L 3597 1613 
L 953 1613 
Q 991 1019 1311 708 
Q 1631 397 2203 397 
Q 2534 397 2845 478 
Q 3156 559 3463 722 
L 3463 178 
Q 3153 47 2828 -22 
Q 2503 -91 2169 -91 
Q 1331 -91 842 396 
Q 353 884 353 1716 
Q 353 2575 817 3079 
Q 1281 3584 2069 3584 
Q 2775 3584 3186 3129 
Q 3597 2675 3597 1894 
z
M 3022 2063 
Q 3016 2534 2758 2815 
Q 2500 3097 2075 3097 
Q 1594 3097 1305 2825 
Q 1016 2553 972 2059 
L 3022 2063 
z
" transform="scale(0.015625)"/>
      </defs>
      <use xlink:href="#DejaVuSans-54"/>
      <use xlink:href="#DejaVuSans-69" x="57.958984"/>
      <use xlink:href="#DejaVuSans-6d" x="85.742188"/>
      <use xlink:href="#DejaVuSans-65" x="183.154297"/>
     </g>
    </g>
   </g>
   <g id="matplotlib.axis_2">
    <g id="ytick_1">
     <g id="line2d_6">
      <defs>
       <path id="m2d15bd7180" d="M 0 0 
L -3.5 0 
" style="stroke: #000000; stroke-width: 0.8"/>
      </defs>
      <g>
       <use xlink:href="#m2d15bd7180" x="585" y="812.988079" style="stroke: #000000; stroke-width: 0.8"/>
      </g>
     </g>
     <g id="text_7">
      <!-- −0.004 -->
      <g transform="translate(503.984375 820.586516) scale(0.2 -0.2)">
       <defs>
        <path id="DejaVuSans-2212" d="M 678 2272 
L 4684 2272 
L 4684 1741 
L 678 1741 
L 678 2272 
z
" transform="scale(0.015625)"/>
        <path id="DejaVuSans-2e" d="M 684 794 
L 1344 794 
L 1344 0 
L 684 0 
L 684 794 
z
" transform="scale(0.015625)"/>
       </defs>
       <use xlink:href="#DejaVuSans-2212"/>
       <use xlink:href="#DejaVuSans-30" x="83.789062"/>
       <use xlink:href="#DejaVuSans-2e" x="147.412109"/>
       <use xlink:href="#DejaVuSans-30" x="179.199219"/>
       <use xlink:href="#DejaVuSans-30" x="242.822266"/>
       <use xlink:href="#DejaVuSans-34" x="306.445312"/>
      </g>
     </g>
    </g>
    <g id="ytick_2">
     <g id="line2d_7">
      <g>
       <use xlink:href="#m2d15bd7180" x="585" y="655.047079" style="stroke: #000000; stroke-width: 0.8"/>
      </g>
     </g>
     <g id="text_8">
      <!-- −0.002 -->
      <g transform="translate(503.984375 662.645516) scale(0.2 -0.2)">
       <use xlink:href="#DejaVuSans-2212"/>
       <use xlink:href="#DejaVuSans-30" x="83.789062"/>
       <use xlink:href="#DejaVuSans-2e" x="147.412109"/>
       <use xlink:href="#DejaVuSans-30" x="179.199219"/>
       <use xlink:href="#DejaVuSans-30" x="242.822266"/>
       <use xlink:href="#DejaVuSans-32" x="306.445312"/>
      </g>
     </g>
    </g>
    <g id="ytick_3">
     <g id="line2d_8">
      <g>
       <use xlink:href="#m2d15bd7180" x="585" y="497.106079" style="stroke: #000000; stroke-width: 0.8"/>
      </g>
     </g>
     <g id="text_9">
      <!-- 0.000 -->
      <g transform="translate(520.74375 504.704516) scale(0.2 -0.2)">
       <use xlink:href="#DejaVuSans-30"/>
       <use xlink:href="#DejaVuSans-2e" x="63.623047"/>
       <use xlink:href="#DejaVuSans-30" x="95.410156"/>
       <use xlink:href="#DejaVuSans-30" x="159.033203"/>
       <use xlink:href="#DejaVuSans-30" x="222.65625"/>
      </g>
     </g>
    </g>
    <g id="ytick_4">
     <g id="line2d_9">
      <g>
       <use xlink:href="#m2d15bd7180" x="585" y="339.165078" style="stroke: #000000; stroke-width: 0.8"/>
      </g>
     </g>
     <g id="text_10">
      <!-- 0.002 -->
      <g transform="translate(520.74375 346.763516) scale(0.2 -0.2)">
       <use xlink:href="#DejaVuSans-30"/>
       <use xlink:href="#DejaVuSans-2e" x="63.623047"/>
       <use xlink:href="#DejaVuSans-30" x="95.410156"/>
       <use xlink:href="#DejaVuSans-30" x="159.033203"/>
       <use xlink:href="#DejaVuSans-32" x="222.65625"/>
      </g>
     </g>
    </g>
    <g id="ytick_5">
     <g id="line2d_10">
      <g>
       <use xlink:href="#m2d15bd7180" x="585" y="181.224078" style="stroke: #000000; stroke-width: 0.8"/>
      </g>
     </g>
     <g id="text_11">
      <!-- 0.004 -->
      <g transform="translate(520.74375 188.822516) scale(0.2 -0.2)">
       <use xlink:href="#DejaVuSans-30"/>
       <use xlink:href="#DejaVuSans-2e" x="63.623047"/>
       <use xlink:href="#DejaVuSans-30" x="95.410156"/>
       <use xlink:href="#DejaVuSans-30" x="159.033203"/>
       <use xlink:href="#DejaVuSans-34" x="222.65625"/>
      </g>
     </g>
    </g>
    <g id="text_12">
     <!-- East(m) -->
     <g transform="translate(495.825 584.520313) rotate(-90) scale(0.2 -0.2)">
      <defs>
       <path id="DejaVuSans-45" d="M 628 4666 
L 3578 4666 
L 3578 4134 
L 1259 4134 
L 1259 2753 
L 3481 2753 
L 3481 2222 
L 1259 2222 
L 1259 531 
L 3634 531 
L 3634 0 
L 628 0 
L 628 4666 
z
" transform="scale(0.015625)"/>
       <path id="DejaVuSans-61" d="M 2194 1759 
Q 1497 1759 1228 1600 
Q 959 1441 959 1056 
Q 959 750 1161 570 
Q 1363 391 1709 391 
Q 2188 391 2477 730 
Q 2766 1069 2766 1631 
L 2766 1759 
L 2194 1759 
z
M 3341 1997 
L 3341 0 
L 2766 0 
L 2766 531 
Q 2569 213 2275 61 
Q 1981 -91 1556 -91 
Q 1019 -91 701 211 
Q 384 513 384 1019 
Q 384 1609 779 1909 
Q 1175 2209 1959 2209 
L 2766 2209 
L 2766 2266 
Q 2766 2663 2505 2880 
Q 2244 3097 1772 3097 
Q 1472 3097 1187 3025 
Q 903 2953 641 2809 
L 641 3341 
Q 956 3463 1253 3523 
Q 1550 3584 1831 3584 
Q 2591 3584 2966 3190 
Q 3341 2797 3341 1997 
z
" transform="scale(0.015625)"/>
       <path id="DejaVuSans-73" d="M 2834 3397 
L 2834 2853 
Q 2591 2978 2328 3040 
Q 2066 3103 1784 3103 
Q 1356 3103 1142 2972 
Q 928 2841 928 2578 
Q 928 2378 1081 2264 
Q 1234 2150 1697 2047 
L 1894 2003 
Q 2506 1872 2764 1633 
Q 3022 1394 3022 966 
Q 3022 478 2636 193 
Q 2250 -91 1575 -91 
Q 1294 -91 989 -36 
Q 684 19 347 128 
L 347 722 
Q 666 556 975 473 
Q 1284 391 1588 391 
Q 1994 391 2212 530 
Q 2431 669 2431 922 
Q 2431 1156 2273 1281 
Q 2116 1406 1581 1522 
L 1381 1569 
Q 847 1681 609 1914 
Q 372 2147 372 2553 
Q 372 3047 722 3315 
Q 1072 3584 1716 3584 
Q 2034 3584 2315 3537 
Q 2597 3491 2834 3397 
z
" transform="scale(0.015625)"/>
       <path id="DejaVuSans-74" d="M 1172 4494 
L 1172 3500 
L 2356 3500 
L 2356 3053 
L 1172 3053 
L 1172 1153 
Q 1172 725 1289 603 
Q 1406 481 1766 481 
L 2356 481 
L 2356 0 
L 1766 0 
Q 1100 0 847 248 
Q 594 497 594 1153 
L 594 3053 
L 172 3053 
L 172 3500 
L 594 3500 
L 594 4494 
L 1172 4494 
z
" transform="scale(0.015625)"/>
       <path id="DejaVuSans-28" d="M 1984 4856 
Q 1566 4138 1362 3434 
Q 1159 2731 1159 2009 
Q 1159 1288 1364 580 
Q 1569 -128 1984 -844 
L 1484 -844 
Q 1016 -109 783 600 
Q 550 1309 550 2009 
Q 550 2706 781 3412 
Q 1013 4119 1484 4856 
L 1984 4856 
z
" transform="scale(0.015625)"/>
       <path id="DejaVuSans-29" d="M 513 4856 
L 1013 4856 
Q 1481 4119 1714 3412 
Q 1947 2706 1947 2009 
Q 1947 1309 1714 600 
Q 1481 -109 1013 -844 
L 513 -844 
Q 928 -128 1133 580 
Q 1338 1288 1338 2009 
Q 1338 2731 1133 3434 
Q 928 4138 513 4856 
z
" transform="scale(0.015625)"/>
      </defs>
      <use xlink:href="#DejaVuSans-45"/>
      <use xlink:href="#DejaVuSans-61" x="63.183594"/>
      <use xlink:href="#DejaVuSans-73" x="124.462891"/>
      <use xlink:href="#DejaVuSans-74" x="176.5625"/>
      <use xlink:href="#DejaVuSans-28" x="215.771484"/>
      <use xlink:href="#DejaVuSans-6d" x="254.785156"/>
      <use xlink:href="#DejaVuSans-29" x="352.197266"/>
     </g>
    </g>
   </g>
   <g id="line2d_11">
    <path d="M 749.863636 388.533257 
L 751.786244 395.084878 
L 753.708852 391.221804 
L 755.63146 402.238852 
L 757.554068 398.213835 
L 759.476676 385.479086 
L 761.399284 341.646549 
L 763.321892 358.133936 
L 765.2445 340.453878 
L 769.089716 325.651613 
L 771.012324 327.85548 
L 772.934932 331.249839 
L 774.85754 322.450261 
L 776.780148 321.473763 
L 778.702756 323.332235 
L 780.625364 310.824871 
L 782.547972 296.505991 
L 784.47058 292.38637 
L 786.393188 310.507495 
L 788.315796 307.77573 
L 790.238404 319.052339 
L 792.161012 317.421811 
L 794.08362 323.848906 
L 796.006228 367.158542 
L 797.928836 372.800101 
L 799.851444 343.467534 
L 801.774052 366.810539 
L 803.69666 355.014623 
L 805.619268 351.302534 
L 807.541876 351.901112 
L 815.232309 340.761746 
L 817.154917 376.222198 
L 821.000133 367.094211 
L 822.922741 343.603817 
L 824.845349 358.475308 
L 826.767957 353.829202 
L 828.690565 342.702017 
L 830.613173 310.615922 
L 832.535781 315.634385 
L 834.458389 334.94455 
L 836.380997 357.610584 
L 838.303605 355.849777 
L 840.226213 346.635 
L 842.148821 358.825759 
L 844.071429 339.598917 
L 845.994037 365.141676 
L 847.916645 399.39814 
L 849.839253 407.648215 
L 853.684469 448.301305 
L 855.607077 427.906722 
L 857.529685 443.194503 
L 859.452293 420.33634 
L 865.220117 347.236366 
L 867.142725 318.312825 
L 869.065333 314.70788 
L 870.987941 300.400457 
L 872.910549 294.259146 
L 874.833157 295.680977 
L 878.678373 349.920642 
L 880.600981 345.740803 
L 882.523589 363.927368 
L 884.446197 359.091845 
L 890.214021 330.504265 
L 892.136629 302.365286 
L 894.059237 305.891628 
L 895.981845 286.31929 
L 897.904453 300.953679 
L 899.827061 310.879396 
L 901.749669 315.444677 
L 903.672277 327.830522 
L 905.594885 319.116438 
L 907.517493 305.401746 
L 909.440101 316.01631 
L 913.285317 305.888421 
L 917.130533 297.650838 
L 919.053141 300.836833 
L 920.975749 294.342711 
L 922.898357 279.762891 
L 924.820965 298.692227 
L 926.743573 311.634122 
L 928.666181 325.501299 
L 932.511397 318.118796 
L 936.356613 359.27936 
L 938.279221 306.69992 
L 949.814869 285.505748 
L 955.582693 342.007643 
L 957.505301 345.75072 
L 959.427909 320.550792 
L 961.350517 314.603101 
L 969.040949 307.297406 
L 974.808773 311.632156 
L 976.731381 282.982253 
L 978.653989 314.703177 
L 980.576597 322.178949 
L 984.421813 289.880266 
L 986.344421 303.017727 
L 988.267029 309.543972 
L 990.189637 375.832844 
L 992.112245 399.419166 
L 995.957461 467.8877 
L 997.880069 467.840731 
L 999.802677 475.515627 
L 1001.725285 467.449839 
L 1007.493109 365.563386 
L 1009.415717 353.858768 
L 1011.338325 361.390178 
L 1013.260933 360.629407 
L 1015.183541 381.685134 
L 1017.106149 436.199501 
L 1019.028757 468.504609 
L 1020.951365 475.225857 
L 1022.873973 467.539905 
L 1024.796581 465.835987 
L 1026.719189 447.513388 
L 1028.641797 424.956524 
L 1030.564405 399.438395 
L 1034.409621 395.429293 
L 1036.332229 372.116446 
L 1038.254837 380.185145 
L 1042.100053 467.213422 
L 1057.480917 483.3328 
L 1159.379141 601.593108 
L 1161.301749 595.85605 
L 1163.224357 620.331574 
L 1318.955606 381.503215 
L 1320.878214 385.925827 
L 1322.800822 387.479437 
L 1332.413862 350.722588 
L 1336.259078 343.044887 
L 1338.181686 349.875524 
L 1340.104294 387.040974 
L 1342.026902 394.173791 
L 1343.94951 391.15592 
L 1345.872118 425.313582 
L 1347.794726 415.193067 
L 1365.098198 450.889246 
L 1368.943414 437.007031 
L 1415.086006 323.193688 
L 1417.008614 305.018256 
L 1424.699046 230.615825 
L 1426.621654 246.961431 
L 1428.544262 245.3149 
L 1430.46687 258.549013 
L 1432.389478 261.692409 
L 1434.312086 302.344804 
L 1436.234694 309.748107 
L 1438.157302 339.94305 
L 1442.002518 368.705968 
L 1470.841638 404.663767 
L 1472.764246 456.623143 
L 1474.686854 487.377008 
L 1476.609462 496.069164 
L 1480.454678 496.620431 
L 1482.377286 524.967662 
L 1484.299894 511.490252 
L 1488.14511 464.764903 
L 1490.067718 436.856458 
L 1491.990326 405.491221 
L 1499.680758 294.529104 
L 1501.603366 291.449043 
L 1503.525974 293.355852 
L 1509.293798 345.486378 
L 1511.216406 379.198658 
L 1513.139014 356.315463 
L 1515.061622 342.405752 
L 1516.98423 337.271505 
L 1520.829446 247.554859 
L 1522.752054 183.166789 
L 1524.674662 167.4 
L 1528.519878 210.623392 
L 1530.442486 236.579518 
L 1532.365094 232.06275 
L 1540.055526 310.634273 
L 1541.978134 309.839993 
L 1543.900742 305.197795 
L 1545.82335 310.161768 
L 1547.745958 291.962589 
L 1549.668566 294.844313 
L 1551.591174 332.429966 
L 1553.513782 338.410097 
L 1555.43639 321.121051 
L 1557.358998 288.727173 
L 1559.281606 270.922242 
L 1563.126822 339.017787 
L 1565.04943 337.283609 
L 1566.972038 327.172888 
L 1568.894646 333.955173 
L 1572.739862 359.584593 
L 1574.66247 357.79838 
L 1576.585078 294.044873 
L 1578.507686 290.017139 
L 1580.430294 324.236446 
L 1582.352902 355.435682 
L 1584.27551 331.114465 
L 1586.198118 313.591504 
L 1588.120726 328.782027 
L 1590.043334 331.965329 
L 1593.88855 325.772265 
L 1636.185926 417.029644 
L 1640.031142 418.023691 
L 1641.95375 420.283458 
L 1643.876358 468.599856 
L 1645.798966 490.770302 
L 1647.721574 491.927594 
L 1649.644182 475.086239 
L 1653.489398 493.244905 
L 1655.412006 494.036271 
L 1657.334614 446.383469 
L 1665.025046 347.329129 
L 1666.947654 393.321424 
L 1668.870262 425.355156 
L 1672.715478 417.48538 
L 1674.638086 403.676367 
L 1676.560694 411.157992 
L 1678.483302 447.645925 
L 1680.40591 449.773148 
L 1684.251126 423.448977 
L 1686.173734 446.115562 
L 1691.941558 438.928552 
L 1693.864166 425.009711 
L 1695.786774 434.490464 
L 1697.709382 449.326995 
L 1699.63199 473.758328 
L 1701.554598 475.059374 
L 1703.477206 504.696296 
L 1722.703287 524.80928 
L 1724.625895 556.274763 
L 1726.548503 561.670476 
L 1728.471111 565.001524 
L 1730.393719 559.756024 
L 1732.316327 552.334902 
L 1734.238935 552.288236 
L 1736.161543 560.287837 
L 1738.084151 535.111506 
L 1740.006759 546.191515 
L 1743.851975 659.143199 
L 1745.774583 654.29447 
L 1751.542407 676.193282 
L 1753.465015 699.451003 
L 1755.387623 645.138885 
L 1757.310231 605.883554 
L 1759.232839 613.294264 
L 1761.155447 612.26735 
L 1765.000663 624.215641 
L 1766.923271 604.576439 
L 1772.691095 700.968387 
L 1774.613703 680.75993 
L 1776.536311 689.565333 
L 1780.381527 732.440772 
L 1782.304135 746.3031 
L 1784.226743 727.47173 
L 1786.149351 736.918334 
L 1788.071959 764.422589 
L 1789.994567 800.539806 
L 1801.530215 834.290214 
L 1805.375431 838.45804 
L 1807.298039 822.808897 
L 1809.220647 786.044403 
L 1811.143255 805.677279 
L 1813.065863 790.968614 
L 1816.911079 766.928158 
L 1818.833687 768.482856 
L 1820.756295 788.177021 
L 1822.678903 790.01152 
L 1824.601511 788.396505 
L 1830.369335 777.702003 
L 1832.291943 798.327038 
L 1834.214551 776.767272 
L 1836.137159 747.816733 
L 1838.059767 726.912797 
L 1839.982375 743.842299 
L 1841.904983 743.60143 
L 1845.750199 696.039994 
L 1847.672807 721.723394 
L 1859.208455 674.686103 
L 1861.131063 619.173013 
L 1863.053671 650.300789 
L 1864.976279 632.230496 
L 1866.898887 598.952203 
L 1868.821495 589.417275 
L 1870.744103 570.799887 
L 1872.666711 561.065608 
L 1874.589319 592.50119 
L 1876.511927 554.250141 
L 1878.434535 566.315379 
L 1880.357143 605.583831 
L 1884.202359 617.171516 
L 1886.124967 617.850806 
L 1888.047575 593.629207 
L 1889.970183 612.578555 
L 1891.892791 618.022781 
L 1893.815399 589.144541 
L 1895.738007 587.832848 
L 1899.583223 560.642526 
L 1901.505831 574.518911 
L 1905.351047 503.138391 
L 1907.273655 479.619068 
L 1909.196263 478.01761 
L 1911.118871 485.522227 
L 1913.041479 492.552132 
L 1914.964087 479.116454 
L 2024.552743 356.122902 
L 2028.397959 242.747277 
L 2030.320567 268.455781 
L 2032.243175 287.542339 
L 2034.165783 252.604133 
L 2036.088391 271.085282 
L 2038.010999 274.36808 
L 2039.933607 361.646316 
L 2049.546647 407.152892 
L 2051.469255 431.410834 
L 2057.237079 486.020595 
L 2059.159687 445.175669 
L 2061.082295 461.983481 
L 2063.004903 460.064304 
L 2064.927511 476.47029 
L 2068.772727 476.110792 
L 2137.986615 306.027349 
L 2139.909223 371.662917 
L 2143.754439 351.234233 
L 2145.677047 347.877076 
L 2172.59356 339.83325 
L 2255.265704 431.472911 
L 2257.188312 451.801581 
L 2261.033528 507.525246 
L 2262.956136 517.363913 
L 2264.878744 509.9266 
L 2266.801352 516.636702 
L 2268.72396 504.530447 
L 2270.646568 505.997945 
L 2272.569176 500.329138 
L 2274.491784 487.228706 
L 2276.414392 475.321709 
L 2282.182216 472.490634 
L 2314.866552 468.325648 
L 2316.78916 471.75248 
L 2328.324808 528.312991 
L 2330.247416 544.208499 
L 2332.170024 538.88034 
L 2334.092632 529.895106 
L 2355.24132 513.994879 
L 2485.978664 831.34418 
L 2487.901272 832.6871 
L 2489.82388 820.414629 
L 2491.746488 823.043456 
L 2495.591704 895.821987 
L 2512.895176 837.10286 
L 2747.453353 451.231178 
L 2997.392393 432.664521 
L 2999.315001 452.535008 
L 3001.237609 451.215012 
L 3014.695865 535.065513 
L 3018.541081 537.392754 
L 3020.463689 562.863444 
L 3024.308905 548.431821 
L 3026.231513 563.925987 
L 3030.076729 564.946924 
L 3031.999337 567.414798 
L 3055.070633 559.423828 
L 3056.993241 595.488612 
L 3058.915849 661.879235 
L 3060.838457 659.284901 
L 3062.761065 632.737696 
L 3064.683673 652.793174 
L 3068.528889 658.306018 
L 3072.374105 560.170714 
L 3076.219321 579.637402 
L 3078.141929 569.016208 
L 3081.987146 560.012546 
L 3085.832362 607.51903 
L 3087.75497 575.058362 
L 3089.677578 601.536252 
L 3093.522794 616.229108 
L 3095.445402 617.285928 
L 3097.36801 605.353719 
L 3101.213226 650.691667 
L 3106.98105 656.67588 
L 3108.903658 667.184501 
L 3112.748874 681.2764 
L 3114.671482 685.748718 
L 3116.59409 705.040867 
L 3122.361914 730.434849 
L 3124.284522 732.564522 
L 3126.20713 723.680144 
L 3128.129738 733.148124 
L 3133.897562 739.604613 
L 3135.82017 754.693331 
L 3137.742778 706.431157 
L 3139.665386 727.359229 
L 3141.587994 722.548996 
L 3145.43321 732.980398 
L 3147.355818 703.547933 
L 3151.201034 707.375881 
L 3153.123642 729.292417 
L 3155.04625 781.424458 
L 3158.891466 854.969136 
L 3160.814074 885.723702 
L 3162.736682 894.385882 
L 3164.65929 923.4 
L 3189.653194 818.501124 
L 3191.575802 799.054959 
L 3193.49841 773.036038 
L 3195.421018 717.755738 
L 3197.343626 705.550069 
L 3199.266234 704.945199 
L 3205.034058 762.872383 
L 3216.569706 755.545025 
L 3220.414922 809.534033 
L 3222.33753 840.2104 
L 3224.260138 843.895228 
L 3226.182746 855.665307 
L 3230.027962 833.501039 
L 3237.718394 806.086026 
L 3239.641002 796.765571 
L 3256.944474 710.329104 
L 3258.867082 728.107168 
L 3260.78969 721.753734 
L 3264.634906 750.186366 
L 3266.557514 786.534679 
L 3268.480122 803.947021 
L 3270.40273 818.420859 
L 3272.325338 798.638645 
L 3274.247946 803.183402 
L 3276.170554 789.709046 
L 3283.860986 781.382689 
L 3291.551418 859.090965 
L 3293.474026 841.897484 
L 3295.396634 806.545268 
L 3297.319242 834.824335 
L 3299.24185 822.608334 
L 3301.164458 805.40045 
L 3303.087066 783.56852 
L 3305.009674 731.047344 
L 3306.932282 704.741298 
L 3308.85489 732.41943 
L 3314.622714 705.071528 
L 3322.313146 838.57593 
L 3324.235754 813.50095 
L 3326.158362 779.203146 
L 3328.08097 774.899354 
L 3330.003578 729.370773 
L 3331.926186 713.954674 
L 3333.848794 706.558586 
L 3335.771402 696.96133 
L 3337.69401 713.302664 
L 3339.616618 711.478047 
L 3341.539226 711.799447 
L 3343.461834 727.201886 
L 3347.30705 668.960025 
L 3349.229658 669.782322 
L 3351.152266 669.53877 
L 3353.074874 671.713755 
L 3354.997482 687.319902 
L 3356.92009 688.727519 
L 3358.842698 699.048424 
L 3360.765306 684.169603 
L 3364.610522 631.785267 
L 3366.53313 644.194932 
L 3368.455738 632.880778 
L 3370.378346 623.028758 
L 3372.300954 630.743058 
L 3374.223562 643.237238 
L 3378.068778 720.979819 
L 3379.991386 697.541517 
L 3381.913994 682.056028 
L 3383.836602 677.244571 
L 3387.681818 648.487172 
L 3389.604426 618.184496 
L 3393.449642 614.547039 
L 3395.37225 624.175291 
L 3397.294858 631.712207 
L 3401.140074 656.318643 
L 3403.062682 649.192183 
L 3404.98529 646.150741 
L 3406.907898 653.612538 
L 3410.753114 649.153607 
L 3412.675722 623.73367 
L 3414.59833 621.918614 
L 3416.520938 631.1515 
L 3418.443546 621.671976 
L 3420.366154 607.981811 
L 3422.288762 586.031828 
L 3424.21137 600.938184 
L 3426.133978 629.454246 
L 3428.056586 632.603834 
L 3429.979194 631.041622 
L 3431.901802 641.858446 
L 3433.82441 641.781232 
L 3435.747018 635.479342 
L 3437.669626 574.831363 
L 3439.592234 581.878082 
L 3441.514842 589.624374 
L 3443.43745 585.738146 
L 3445.360058 570.817594 
L 3447.282666 553.767369 
L 3449.205274 568.685093 
L 3451.127882 612.587254 
L 3453.05049 599.481981 
L 3454.973098 570.118056 
L 3456.895706 559.514659 
L 3458.818314 531.514069 
L 3460.740922 515.189937 
L 3462.66353 519.714506 
L 3464.586138 532.621691 
L 3466.508746 512.507624 
L 3468.431354 528.71871 
L 3470.353962 536.146718 
L 3472.27657 567.374904 
L 3474.199178 609.86416 
L 3476.121786 609.77719 
L 3478.044394 602.754401 
L 3479.967002 641.030845 
L 3481.88961 645.10323 
L 3483.812218 651.071704 
L 3485.734826 638.685767 
L 3487.657434 623.257654 
L 3489.580042 620.461759 
L 3493.425258 590.857533 
L 3495.347866 589.431904 
L 3497.270474 587.393116 
L 3499.193082 615.74385 
L 3501.11569 623.331616 
L 3503.038298 623.156756 
L 3504.960906 617.896076 
L 3508.806122 610.154471 
L 3510.72873 609.15553 
L 3512.651338 601.173293 
L 3514.573946 615.378023 
L 3516.496554 613.381503 
L 3518.419162 613.831481 
L 3522.264378 615.832071 
L 3524.186986 596.197054 
L 3526.109594 592.170833 
L 3528.032202 579.278072 
L 3529.95481 582.963267 
L 3531.877418 592.371077 
L 3533.800027 589.566683 
L 3535.722635 605.776014 
L 3537.645243 632.571206 
L 3539.567851 666.647964 
L 3541.490459 705.268821 
L 3543.413067 708.043842 
L 3545.335675 700.188299 
L 3547.258283 701.338514 
L 3549.180891 690.266584 
L 3551.103499 669.95139 
L 3553.026107 638.654378 
L 3554.948715 569.854139 
L 3556.871323 563.648631 
L 3558.793931 546.873845 
L 3560.716539 523.876068 
L 3562.639147 522.73687 
L 3564.561755 515.004846 
L 3574.174795 543.495177 
L 3576.097403 536.700044 
L 3578.020011 561.300928 
L 3581.865227 547.248098 
L 3583.787835 571.119345 
L 3585.710443 577.58329 
L 3587.633051 523.581788 
L 3589.555659 528.358309 
L 3591.478267 514.920227 
L 3593.400875 559.905585 
L 3595.323483 579.401438 
L 3635.698251 515.637976 
L 3637.620859 530.922999 
L 3641.466075 429.633815 
L 3647.233899 560.61262 
L 3649.156507 518.274227 
L 3651.079115 494.912882 
L 3653.001723 566.401698 
L 3654.924331 595.742925 
L 3656.846939 589.045291 
L 3658.769547 497.995964 
L 3660.692155 499.973671 
L 3662.614763 512.950354 
L 3664.537371 517.396725 
L 3666.459979 530.002557 
L 3668.382587 539.297613 
L 3670.305195 549.375364 
L 3672.227803 565.413714 
L 3674.150411 563.633071 
L 3676.073019 569.341424 
L 3677.995627 562.253833 
L 3679.918235 510.969442 
L 3681.840843 502.765741 
L 3683.763451 477.284131 
L 3685.686059 457.806584 
L 3687.608667 486.274503 
L 3689.531275 508.297895 
L 3691.453883 529.039371 
L 3693.376491 561.768487 
L 3695.299099 559.489761 
L 3697.221707 546.052842 
L 3699.144315 543.41547 
L 3701.066923 553.132502 
L 3702.989531 547.519525 
L 3704.912139 605.338847 
L 3706.834747 613.212908 
L 3708.757355 607.597361 
L 3710.679963 633.781758 
L 3712.602571 658.250339 
L 3714.525179 638.755178 
L 3718.370395 626.677756 
L 3720.293003 603.756852 
L 3722.215611 682.568777 
L 3724.138219 731.274725 
L 3727.983435 773.558343 
L 3729.906043 727.297088 
L 3731.828651 711.056763 
L 3733.751259 702.430528 
L 3735.673867 653.728279 
L 3739.519083 613.681371 
L 3741.441691 579.319599 
L 3743.364299 613.480513 
L 3745.286907 626.121515 
L 3747.209515 656.693541 
L 3749.132123 634.413032 
L 3751.054731 621.075746 
L 3754.899947 624.877349 
L 3756.822555 622.734249 
L 3758.745163 595.154108 
L 3760.667771 573.9487 
L 3762.590379 563.08005 
L 3768.358203 498.843437 
L 3770.280811 504.183013 
L 3772.203419 501.783195 
L 3774.126027 494.365207 
L 3776.048635 501.673396 
L 3777.971243 503.120455 
L 3779.893851 512.832804 
L 3877.946859 817.127386 
L 3879.869467 796.417046 
L 3881.792075 753.846443 
L 3887.559899 763.681332 
L 3889.482507 734.335082 
L 3891.405115 738.296308 
L 3897.172939 639.790043 
L 3904.863371 679.426033 
L 3908.708587 755.017877 
L 3926.012059 803.496187 
L 3927.934667 795.056157 
L 3929.857275 794.608863 
L 3931.779883 764.412391 
L 3933.702491 764.720376 
L 3943.315531 758.116096 
L 3945.238139 795.447481 
L 3951.005963 845.609532 
L 3952.928571 821.634555 
L 3954.851179 801.928004 
L 3956.773787 747.045293 
L 3958.696395 719.457445 
L 3960.619003 698.073716 
L 3962.541611 638.00902 
L 3968.309435 669.018112 
L 3974.077259 612.925763 
L 3975.999867 681.771433 
L 3977.922475 673.282312 
L 3979.845083 680.488543 
L 3981.767691 671.197127 
L 3985.612908 758.216873 
L 3987.535516 762.396704 
L 3989.458124 734.649526 
L 3991.380732 738.125227 
L 4000.993772 689.231296 
L 4002.91638 661.244038 
L 4004.838988 653.477267 
L 4006.761596 672.292551 
L 4008.684204 641.759282 
L 4010.606812 621.16666 
L 4012.52942 624.749043 
L 4014.452028 641.850469 
L 4016.374636 667.39474 
L 4020.219852 638.696709 
L 4022.14246 647.098879 
L 4024.065068 625.640095 
L 4025.987676 615.612596 
L 4027.910284 624.943028 
L 4029.832892 598.042532 
L 4041.36854 633.17815 
L 4043.291148 636.401473 
L 4045.213756 638.933496 
L 4047.136364 610.716557 
L 4047.136364 610.716557 
" clip-path="url(#pb767e33da9)" style="fill: none; stroke: #ff7c00; stroke-width: 2.5; stroke-linecap: square"/>
   </g>
   <g id="patch_3">
    <path d="M 585 961.2 
L 585 129.6 
" style="fill: none; stroke: #000000; stroke-width: 0.8; stroke-linejoin: miter; stroke-linecap: square"/>
   </g>
   <g id="patch_4">
    <path d="M 4212 961.2 
L 4212 129.6 
" style="fill: none; stroke: #000000; stroke-width: 0.8; stroke-linejoin: miter; stroke-linecap: square"/>
   </g>
   <g id="patch_5">
    <path d="M 585 961.2 
L 4212 961.2 
" style="fill: none; stroke: #000000; stroke-width: 0.8; stroke-linejoin: miter; stroke-linecap: square"/>
   </g>
   <g id="patch_6">
    <path d="M 585 129.6 
L 4212 129.6 
" style="fill: none; stroke: #000000; stroke-width: 0.8; stroke-linejoin: miter; stroke-linecap: square"/>
   </g>
   <g id="text_13">
    <!-- BORC -->
    <g transform="translate(2356.516406 123.360937) scale(0.3 -0.3)">
     <defs>
      <path id="DejaVuSans-42" d="M 1259 2228 
L 1259 519 
L 2272 519 
Q 2781 519 3026 730 
Q 3272 941 3272 1375 
Q 3272 1813 3026 2020 
Q 2781 2228 2272 2228 
L 1259 2228 
z
M 1259 4147 
L 1259 2741 
L 2194 2741 
Q 2656 2741 2882 2914 
Q 3109 3088 3109 3444 
Q 3109 3797 2882 3972 
Q 2656 4147 2194 4147 
L 1259 4147 
z
M 628 4666 
L 2241 4666 
Q 2963 4666 3353 4366 
Q 3744 4066 3744 3513 
Q 3744 3084 3544 2831 
Q 3344 2578 2956 2516 
Q 3422 2416 3680 2098 
Q 3938 1781 3938 1306 
Q 3938 681 3513 340 
Q 3088 0 2303 0 
L 628 0 
L 628 4666 
z
" transform="scale(0.015625)"/>
      <path id="DejaVuSans-4f" d="M 2522 4238 
Q 1834 4238 1429 3725 
Q 1025 3213 1025 2328 
Q 1025 1447 1429 934 
Q 1834 422 2522 422 
Q 3209 422 3611 934 
Q 4013 1447 4013 2328 
Q 4013 3213 3611 3725 
Q 3209 4238 2522 4238 
z
M 2522 4750 
Q 3503 4750 4090 4092 
Q 4678 3434 4678 2328 
Q 4678 1225 4090 567 
Q 3503 -91 2522 -91 
Q 1538 -91 948 565 
Q 359 1222 359 2328 
Q 359 3434 948 4092 
Q 1538 4750 2522 4750 
z
" transform="scale(0.015625)"/>
      <path id="DejaVuSans-52" d="M 2841 2188 
Q 3044 2119 3236 1894 
Q 3428 1669 3622 1275 
L 4263 0 
L 3584 0 
L 2988 1197 
Q 2756 1666 2539 1819 
Q 2322 1972 1947 1972 
L 1259 1972 
L 1259 0 
L 628 0 
L 628 4666 
L 2053 4666 
Q 2853 4666 3247 4331 
Q 3641 3997 3641 3322 
Q 3641 2881 3436 2590 
Q 3231 2300 2841 2188 
z
M 1259 4147 
L 1259 2491 
L 2053 2491 
Q 2509 2491 2742 2702 
Q 2975 2913 2975 3322 
Q 2975 3731 2742 3939 
Q 2509 4147 2053 4147 
L 1259 4147 
z
" transform="scale(0.015625)"/>
      <path id="DejaVuSans-43" d="M 4122 4306 
L 4122 3641 
Q 3803 3938 3442 4084 
Q 3081 4231 2675 4231 
Q 1875 4231 1450 3742 
Q 1025 3253 1025 2328 
Q 1025 1406 1450 917 
Q 1875 428 2675 428 
Q 3081 428 3442 575 
Q 3803 722 4122 1019 
L 4122 359 
Q 3791 134 3420 21 
Q 3050 -91 2638 -91 
Q 1578 -91 968 557 
Q 359 1206 359 2328 
Q 359 3453 968 4101 
Q 1578 4750 2638 4750 
Q 3056 4750 3426 4639 
Q 3797 4528 4122 4306 
z
" transform="scale(0.015625)"/>
     </defs>
     <use xlink:href="#DejaVuSans-42"/>
     <use xlink:href="#DejaVuSans-4f" x="66.853516"/>
     <use xlink:href="#DejaVuSans-52" x="145.564453"/>
     <use xlink:href="#DejaVuSans-43" x="210.046875"/>
    </g>
   </g>
   <g id="legend_1">
    <g id="patch_7">
     <path d="M 4151.148438 152.278125 
L 4205 152.278125 
Q 4207 152.278125 4207 150.278125 
L 4207 136.6 
Q 4207 134.6 4205 134.6 
L 4151.148438 134.6 
Q 4149.148438 134.6 4149.148438 136.6 
L 4149.148438 150.278125 
Q 4149.148438 152.278125 4151.148438 152.278125 
z
" style="fill: #ffffff; opacity: 0.8; stroke: #cccccc; stroke-linejoin: miter"/>
    </g>
    <g id="line2d_12">
     <path d="M 4153.148438 142.698438 
L 4163.148438 142.698438 
L 4173.148438 142.698438 
" style="fill: none; stroke: #ff7c00; stroke-width: 2.5; stroke-linecap: square"/>
    </g>
    <g id="text_14">
     <!-- borc -->
     <g transform="translate(4181.148438 146.198438) scale(0.1 -0.1)">
      <defs>
       <path id="DejaVuSans-62" d="M 3116 1747 
Q 3116 2381 2855 2742 
Q 2594 3103 2138 3103 
Q 1681 3103 1420 2742 
Q 1159 2381 1159 1747 
Q 1159 1113 1420 752 
Q 1681 391 2138 391 
Q 2594 391 2855 752 
Q 3116 1113 3116 1747 
z
M 1159 2969 
Q 1341 3281 1617 3432 
Q 1894 3584 2278 3584 
Q 2916 3584 3314 3078 
Q 3713 2572 3713 1747 
Q 3713 922 3314 415 
Q 2916 -91 2278 -91 
Q 1894 -91 1617 61 
Q 1341 213 1159 525 
L 1159 0 
L 581 0 
L 581 4863 
L 1159 4863 
L 1159 2969 
z
" transform="scale(0.015625)"/>
       <path id="DejaVuSans-6f" d="M 1959 3097 
Q 1497 3097 1228 2736 
Q 959 2375 959 1747 
Q 959 1119 1226 758 
Q 1494 397 1959 397 
Q 2419 397 2687 759 
Q 2956 1122 2956 1747 
Q 2956 2369 2687 2733 
Q 2419 3097 1959 3097 
z
M 1959 3584 
Q 2709 3584 3137 3096 
Q 3566 2609 3566 1747 
Q 3566 888 3137 398 
Q 2709 -91 1959 -91 
Q 1206 -91 779 398 
Q 353 888 353 1747 
Q 353 2609 779 3096 
Q 1206 3584 1959 3584 
z
" transform="scale(0.015625)"/>
       <path id="DejaVuSans-72" d="M 2631 2963 
Q 2534 3019 2420 3045 
Q 2306 3072 2169 3072 
Q 1681 3072 1420 2755 
Q 1159 2438 1159 1844 
L 1159 0 
L 581 0 
L 581 3500 
L 1159 3500 
L 1159 2956 
Q 1341 3275 1631 3429 
Q 1922 3584 2338 3584 
Q 2397 3584 2469 3576 
Q 2541 3569 2628 3553 
L 2631 2963 
z
" transform="scale(0.015625)"/>
       <path id="DejaVuSans-63" d="M 3122 3366 
L 3122 2828 
Q 2878 2963 2633 3030 
Q 2388 3097 2138 3097 
Q 1578 3097 1268 2742 
Q 959 2388 959 1747 
Q 959 1106 1268 751 
Q 1578 397 2138 397 
Q 2388 397 2633 464 
Q 2878 531 3122 666 
L 3122 134 
Q 2881 22 2623 -34 
Q 2366 -91 2075 -91 
Q 1284 -91 818 406 
Q 353 903 353 1747 
Q 353 2603 823 3093 
Q 1294 3584 2113 3584 
Q 2378 3584 2631 3529 
Q 2884 3475 3122 3366 
z
" transform="scale(0.015625)"/>
      </defs>
      <use xlink:href="#DejaVuSans-62"/>
      <use xlink:href="#DejaVuSans-6f" x="63.476562"/>
      <use xlink:href="#DejaVuSans-72" x="124.658203"/>
      <use xlink:href="#DejaVuSans-63" x="163.521484"/>
     </g>
    </g>
   </g>
  </g>
 </g>
 <defs>
  <clipPath id="pb767e33da9">
   <rect x="585" y="129.6" width="3627" height="831.6"/>
  </clipPath>
 </defs>
</svg>
