<?xml version="1.0" encoding="utf-8" standalone="no"?>
<!DOCTYPE svg PUBLIC "-//W3C//DTD SVG 1.1//EN"
  "http://www.w3.org/Graphics/SVG/1.1/DTD/svg11.dtd">
<svg xmlns:xlink="http://www.w3.org/1999/xlink" width="4680pt" height="1080pt" viewBox="0 0 4680 1080" xmlns="http://www.w3.org/2000/svg" version="1.1">
 <metadata>
  <rdf:RDF xmlns:dc="http://purl.org/dc/elements/1.1/" xmlns:cc="http://creativecommons.org/ns#" xmlns:rdf="http://www.w3.org/1999/02/22-rdf-syntax-ns#">
   <cc:Work>
    <dc:type rdf:resource="http://purl.org/dc/dcmitype/StillImage"/>
    <dc:date>2024-03-20T10:33:05.852942</dc:date>
    <dc:format>image/svg+xml</dc:format>
    <dc:creator>
     <cc:Agent>
      <dc:title>Matplotlib v3.7.2, https://matplotlib.org/</dc:title>
     </cc:Agent>
    </dc:creator>
   </cc:Work>
  </rdf:RDF>
 </metadata>
 <defs>
  <style type="text/css">*{stroke-linejoin: round; stroke-linecap: butt}</style>
 </defs>
 <g id="figure_1">
  <g id="patch_1">
   <path d="M 0 1080 
L 4680 1080 
L 4680 0 
L 0 0 
z
" style="fill: #ffffff"/>
  </g>
  <g id="axes_1">
   <g id="patch_2">
    <path d="M 585 961.2 
L 4212 961.2 
L 4212 129.6 
L 585 129.6 
z
" style="fill: #ffffff"/>
   </g>
   <g id="matplotlib.axis_1">
    <g id="xtick_1">
     <g id="line2d_1">
      <defs>
       <path id="m431bee2cb0" d="M 0 0 
L 0 3.5 
" style="stroke: #000000; stroke-width: 0.8"/>
      </defs>
      <g>
       <use xlink:href="#m431bee2cb0" x="711.411476" y="961.2" style="stroke: #000000; stroke-width: 0.8"/>
      </g>
     </g>
     <g id="text_1">
      <!-- 2012 -->
      <g transform="translate(685.961476 983.396875) scale(0.2 -0.2)">
       <defs>
        <path id="DejaVuSans-32" d="M 1228 531 
L 3431 531 
L 3431 0 
L 469 0 
L 469 531 
Q 828 903 1448 1529 
Q 2069 2156 2228 2338 
Q 2531 2678 2651 2914 
Q 2772 3150 2772 3378 
Q 2772 3750 2511 3984 
Q 2250 4219 1831 4219 
Q 1534 4219 1204 4116 
Q 875 4013 500 3803 
L 500 4441 
Q 881 4594 1212 4672 
Q 1544 4750 1819 4750 
Q 2544 4750 2975 4387 
Q 3406 4025 3406 3419 
Q 3406 3131 3298 2873 
Q 3191 2616 2906 2266 
Q 2828 2175 2409 1742 
Q 1991 1309 1228 531 
z
" transform="scale(0.015625)"/>
        <path id="DejaVuSans-30" d="M 2034 4250 
Q 1547 4250 1301 3770 
Q 1056 3291 1056 2328 
Q 1056 1369 1301 889 
Q 1547 409 2034 409 
Q 2525 409 2770 889 
Q 3016 1369 3016 2328 
Q 3016 3291 2770 3770 
Q 2525 4250 2034 4250 
z
M 2034 4750 
Q 2819 4750 3233 4129 
Q 3647 3509 3647 2328 
Q 3647 1150 3233 529 
Q 2819 -91 2034 -91 
Q 1250 -91 836 529 
Q 422 1150 422 2328 
Q 422 3509 836 4129 
Q 1250 4750 2034 4750 
z
" transform="scale(0.015625)"/>
        <path id="DejaVuSans-31" d="M 794 531 
L 1825 531 
L 1825 4091 
L 703 3866 
L 703 4441 
L 1819 4666 
L 2450 4666 
L 2450 531 
L 3481 531 
L 3481 0 
L 794 0 
L 794 531 
z
" transform="scale(0.015625)"/>
       </defs>
       <use xlink:href="#DejaVuSans-32"/>
       <use xlink:href="#DejaVuSans-30" x="63.623047"/>
       <use xlink:href="#DejaVuSans-31" x="127.246094"/>
       <use xlink:href="#DejaVuSans-32" x="190.869141"/>
      </g>
     </g>
    </g>
    <g id="xtick_2">
     <g id="line2d_2">
      <g>
       <use xlink:href="#m431bee2cb0" x="1415.086006" y="961.2" style="stroke: #000000; stroke-width: 0.8"/>
      </g>
     </g>
     <g id="text_2">
      <!-- 2013 -->
      <g transform="translate(1389.636006 983.396875) scale(0.2 -0.2)">
       <defs>
        <path id="DejaVuSans-33" d="M 2597 2516 
Q 3050 2419 3304 2112 
Q 3559 1806 3559 1356 
Q 3559 666 3084 287 
Q 2609 -91 1734 -91 
Q 1441 -91 1130 -33 
Q 819 25 488 141 
L 488 750 
Q 750 597 1062 519 
Q 1375 441 1716 441 
Q 2309 441 2620 675 
Q 2931 909 2931 1356 
Q 2931 1769 2642 2001 
Q 2353 2234 1838 2234 
L 1294 2234 
L 1294 2753 
L 1863 2753 
Q 2328 2753 2575 2939 
Q 2822 3125 2822 3475 
Q 2822 3834 2567 4026 
Q 2313 4219 1838 4219 
Q 1578 4219 1281 4162 
Q 984 4106 628 3988 
L 628 4550 
Q 988 4650 1302 4700 
Q 1616 4750 1894 4750 
Q 2613 4750 3031 4423 
Q 3450 4097 3450 3541 
Q 3450 3153 3228 2886 
Q 3006 2619 2597 2516 
z
" transform="scale(0.015625)"/>
       </defs>
       <use xlink:href="#DejaVuSans-32"/>
       <use xlink:href="#DejaVuSans-30" x="63.623047"/>
       <use xlink:href="#DejaVuSans-31" x="127.246094"/>
       <use xlink:href="#DejaVuSans-33" x="190.869141"/>
      </g>
     </g>
    </g>
    <g id="xtick_3">
     <g id="line2d_3">
      <g>
       <use xlink:href="#m431bee2cb0" x="2116.837927" y="961.2" style="stroke: #000000; stroke-width: 0.8"/>
      </g>
     </g>
     <g id="text_3">
      <!-- 2014 -->
      <g transform="translate(2091.387927 983.396875) scale(0.2 -0.2)">
       <defs>
        <path id="DejaVuSans-34" d="M 2419 4116 
L 825 1625 
L 2419 1625 
L 2419 4116 
z
M 2253 4666 
L 3047 4666 
L 3047 1625 
L 3713 1625 
L 3713 1100 
L 3047 1100 
L 3047 0 
L 2419 0 
L 2419 1100 
L 313 1100 
L 313 1709 
L 2253 4666 
z
" transform="scale(0.015625)"/>
       </defs>
       <use xlink:href="#DejaVuSans-32"/>
       <use xlink:href="#DejaVuSans-30" x="63.623047"/>
       <use xlink:href="#DejaVuSans-31" x="127.246094"/>
       <use xlink:href="#DejaVuSans-34" x="190.869141"/>
      </g>
     </g>
    </g>
    <g id="xtick_4">
     <g id="line2d_4">
      <g>
       <use xlink:href="#m431bee2cb0" x="2818.589849" y="961.2" style="stroke: #000000; stroke-width: 0.8"/>
      </g>
     </g>
     <g id="text_4">
      <!-- 2015 -->
      <g transform="translate(2793.139849 983.396875) scale(0.2 -0.2)">
       <defs>
        <path id="DejaVuSans-35" d="M 691 4666 
L 3169 4666 
L 3169 4134 
L 1269 4134 
L 1269 2991 
Q 1406 3038 1543 3061 
Q 1681 3084 1819 3084 
Q 2600 3084 3056 2656 
Q 3513 2228 3513 1497 
Q 3513 744 3044 326 
Q 2575 -91 1722 -91 
Q 1428 -91 1123 -41 
Q 819 9 494 109 
L 494 744 
Q 775 591 1075 516 
Q 1375 441 1709 441 
Q 2250 441 2565 725 
Q 2881 1009 2881 1497 
Q 2881 1984 2565 2268 
Q 2250 2553 1709 2553 
Q 1456 2553 1204 2497 
Q 953 2441 691 2322 
L 691 4666 
z
" transform="scale(0.015625)"/>
       </defs>
       <use xlink:href="#DejaVuSans-32"/>
       <use xlink:href="#DejaVuSans-30" x="63.623047"/>
       <use xlink:href="#DejaVuSans-31" x="127.246094"/>
       <use xlink:href="#DejaVuSans-35" x="190.869141"/>
      </g>
     </g>
    </g>
    <g id="xtick_5">
     <g id="line2d_5">
      <g>
       <use xlink:href="#m431bee2cb0" x="3520.34177" y="961.2" style="stroke: #000000; stroke-width: 0.8"/>
      </g>
     </g>
     <g id="text_5">
      <!-- 2016 -->
      <g transform="translate(3494.89177 983.396875) scale(0.2 -0.2)">
       <defs>
        <path id="DejaVuSans-36" d="M 2113 2584 
Q 1688 2584 1439 2293 
Q 1191 2003 1191 1497 
Q 1191 994 1439 701 
Q 1688 409 2113 409 
Q 2538 409 2786 701 
Q 3034 994 3034 1497 
Q 3034 2003 2786 2293 
Q 2538 2584 2113 2584 
z
M 3366 4563 
L 3366 3988 
Q 3128 4100 2886 4159 
Q 2644 4219 2406 4219 
Q 1781 4219 1451 3797 
Q 1122 3375 1075 2522 
Q 1259 2794 1537 2939 
Q 1816 3084 2150 3084 
Q 2853 3084 3261 2657 
Q 3669 2231 3669 1497 
Q 3669 778 3244 343 
Q 2819 -91 2113 -91 
Q 1303 -91 875 529 
Q 447 1150 447 2328 
Q 447 3434 972 4092 
Q 1497 4750 2381 4750 
Q 2619 4750 2861 4703 
Q 3103 4656 3366 4563 
z
" transform="scale(0.015625)"/>
       </defs>
       <use xlink:href="#DejaVuSans-32"/>
       <use xlink:href="#DejaVuSans-30" x="63.623047"/>
       <use xlink:href="#DejaVuSans-31" x="127.246094"/>
       <use xlink:href="#DejaVuSans-36" x="190.869141"/>
      </g>
     </g>
    </g>
    <g id="text_6">
     <!-- Time -->
     <g transform="translate(2374.032813 1006.753125) scale(0.2 -0.2)">
      <defs>
       <path id="DejaVuSans-54" d="M -19 4666 
L 3928 4666 
L 3928 4134 
L 2272 4134 
L 2272 0 
L 1638 0 
L 1638 4134 
L -19 4134 
L -19 4666 
z
" transform="scale(0.015625)"/>
       <path id="DejaVuSans-69" d="M 603 3500 
L 1178 3500 
L 1178 0 
L 603 0 
L 603 3500 
z
M 603 4863 
L 1178 4863 
L 1178 4134 
L 603 4134 
L 603 4863 
z
" transform="scale(0.015625)"/>
       <path id="DejaVuSans-6d" d="M 3328 2828 
Q 3544 3216 3844 3400 
Q 4144 3584 4550 3584 
Q 5097 3584 5394 3201 
Q 5691 2819 5691 2113 
L 5691 0 
L 5113 0 
L 5113 2094 
Q 5113 2597 4934 2840 
Q 4756 3084 4391 3084 
Q 3944 3084 3684 2787 
Q 3425 2491 3425 1978 
L 3425 0 
L 2847 0 
L 2847 2094 
Q 2847 2600 2669 2842 
Q 2491 3084 2119 3084 
Q 1678 3084 1418 2786 
Q 1159 2488 1159 1978 
L 1159 0 
L 581 0 
L 581 3500 
L 1159 3500 
L 1159 2956 
Q 1356 3278 1631 3431 
Q 1906 3584 2284 3584 
Q 2666 3584 2933 3390 
Q 3200 3197 3328 2828 
z
" transform="scale(0.015625)"/>
       <path id="DejaVuSans-65" d="M 3597 1894 
L 3597 1613 
L 953 1613 
Q 991 1019 1311 708 
Q 1631 397 2203 397 
Q 2534 397 2845 478 
Q 3156 559 3463 722 
L 3463 178 
Q 3153 47 2828 -22 
Q 2503 -91 2169 -91 
Q 1331 -91 842 396 
Q 353 884 353 1716 
Q 353 2575 817 3079 
Q 1281 3584 2069 3584 
Q 2775 3584 3186 3129 
Q 3597 2675 3597 1894 
z
M 3022 2063 
Q 3016 2534 2758 2815 
Q 2500 3097 2075 3097 
Q 1594 3097 1305 2825 
Q 1016 2553 972 2059 
L 3022 2063 
z
" transform="scale(0.015625)"/>
      </defs>
      <use xlink:href="#DejaVuSans-54"/>
      <use xlink:href="#DejaVuSans-69" x="57.958984"/>
      <use xlink:href="#DejaVuSans-6d" x="85.742188"/>
      <use xlink:href="#DejaVuSans-65" x="183.154297"/>
     </g>
    </g>
   </g>
   <g id="matplotlib.axis_2">
    <g id="ytick_1">
     <g id="line2d_6">
      <defs>
       <path id="m200f08a48b" d="M 0 0 
L -3.5 0 
" style="stroke: #000000; stroke-width: 0.8"/>
      </defs>
      <g>
       <use xlink:href="#m200f08a48b" x="585" y="958.865169" style="stroke: #000000; stroke-width: 0.8"/>
      </g>
     </g>
     <g id="text_7">
      <!-- −0.005 -->
      <g transform="translate(503.984375 966.463607) scale(0.2 -0.2)">
       <defs>
        <path id="DejaVuSans-2212" d="M 678 2272 
L 4684 2272 
L 4684 1741 
L 678 1741 
L 678 2272 
z
" transform="scale(0.015625)"/>
        <path id="DejaVuSans-2e" d="M 684 794 
L 1344 794 
L 1344 0 
L 684 0 
L 684 794 
z
" transform="scale(0.015625)"/>
       </defs>
       <use xlink:href="#DejaVuSans-2212"/>
       <use xlink:href="#DejaVuSans-30" x="83.789062"/>
       <use xlink:href="#DejaVuSans-2e" x="147.412109"/>
       <use xlink:href="#DejaVuSans-30" x="179.199219"/>
       <use xlink:href="#DejaVuSans-30" x="242.822266"/>
       <use xlink:href="#DejaVuSans-35" x="306.445312"/>
      </g>
     </g>
    </g>
    <g id="ytick_2">
     <g id="line2d_7">
      <g>
       <use xlink:href="#m200f08a48b" x="585" y="862.7799" style="stroke: #000000; stroke-width: 0.8"/>
      </g>
     </g>
     <g id="text_8">
      <!-- −0.004 -->
      <g transform="translate(503.984375 870.378337) scale(0.2 -0.2)">
       <use xlink:href="#DejaVuSans-2212"/>
       <use xlink:href="#DejaVuSans-30" x="83.789062"/>
       <use xlink:href="#DejaVuSans-2e" x="147.412109"/>
       <use xlink:href="#DejaVuSans-30" x="179.199219"/>
       <use xlink:href="#DejaVuSans-30" x="242.822266"/>
       <use xlink:href="#DejaVuSans-34" x="306.445312"/>
      </g>
     </g>
    </g>
    <g id="ytick_3">
     <g id="line2d_8">
      <g>
       <use xlink:href="#m200f08a48b" x="585" y="766.694631" style="stroke: #000000; stroke-width: 0.8"/>
      </g>
     </g>
     <g id="text_9">
      <!-- −0.003 -->
      <g transform="translate(503.984375 774.293068) scale(0.2 -0.2)">
       <use xlink:href="#DejaVuSans-2212"/>
       <use xlink:href="#DejaVuSans-30" x="83.789062"/>
       <use xlink:href="#DejaVuSans-2e" x="147.412109"/>
       <use xlink:href="#DejaVuSans-30" x="179.199219"/>
       <use xlink:href="#DejaVuSans-30" x="242.822266"/>
       <use xlink:href="#DejaVuSans-33" x="306.445312"/>
      </g>
     </g>
    </g>
    <g id="ytick_4">
     <g id="line2d_9">
      <g>
       <use xlink:href="#m200f08a48b" x="585" y="670.609361" style="stroke: #000000; stroke-width: 0.8"/>
      </g>
     </g>
     <g id="text_10">
      <!-- −0.002 -->
      <g transform="translate(503.984375 678.207799) scale(0.2 -0.2)">
       <use xlink:href="#DejaVuSans-2212"/>
       <use xlink:href="#DejaVuSans-30" x="83.789062"/>
       <use xlink:href="#DejaVuSans-2e" x="147.412109"/>
       <use xlink:href="#DejaVuSans-30" x="179.199219"/>
       <use xlink:href="#DejaVuSans-30" x="242.822266"/>
       <use xlink:href="#DejaVuSans-32" x="306.445312"/>
      </g>
     </g>
    </g>
    <g id="ytick_5">
     <g id="line2d_10">
      <g>
       <use xlink:href="#m200f08a48b" x="585" y="574.524092" style="stroke: #000000; stroke-width: 0.8"/>
      </g>
     </g>
     <g id="text_11">
      <!-- −0.001 -->
      <g transform="translate(503.984375 582.12253) scale(0.2 -0.2)">
       <use xlink:href="#DejaVuSans-2212"/>
       <use xlink:href="#DejaVuSans-30" x="83.789062"/>
       <use xlink:href="#DejaVuSans-2e" x="147.412109"/>
       <use xlink:href="#DejaVuSans-30" x="179.199219"/>
       <use xlink:href="#DejaVuSans-30" x="242.822266"/>
       <use xlink:href="#DejaVuSans-31" x="306.445312"/>
      </g>
     </g>
    </g>
    <g id="ytick_6">
     <g id="line2d_11">
      <g>
       <use xlink:href="#m200f08a48b" x="585" y="478.438823" style="stroke: #000000; stroke-width: 0.8"/>
      </g>
     </g>
     <g id="text_12">
      <!-- 0.000 -->
      <g transform="translate(520.74375 486.03726) scale(0.2 -0.2)">
       <use xlink:href="#DejaVuSans-30"/>
       <use xlink:href="#DejaVuSans-2e" x="63.623047"/>
       <use xlink:href="#DejaVuSans-30" x="95.410156"/>
       <use xlink:href="#DejaVuSans-30" x="159.033203"/>
       <use xlink:href="#DejaVuSans-30" x="222.65625"/>
      </g>
     </g>
    </g>
    <g id="ytick_7">
     <g id="line2d_12">
      <g>
       <use xlink:href="#m200f08a48b" x="585" y="382.353553" style="stroke: #000000; stroke-width: 0.8"/>
      </g>
     </g>
     <g id="text_13">
      <!-- 0.001 -->
      <g transform="translate(520.74375 389.951991) scale(0.2 -0.2)">
       <use xlink:href="#DejaVuSans-30"/>
       <use xlink:href="#DejaVuSans-2e" x="63.623047"/>
       <use xlink:href="#DejaVuSans-30" x="95.410156"/>
       <use xlink:href="#DejaVuSans-30" x="159.033203"/>
       <use xlink:href="#DejaVuSans-31" x="222.65625"/>
      </g>
     </g>
    </g>
    <g id="ytick_8">
     <g id="line2d_13">
      <g>
       <use xlink:href="#m200f08a48b" x="585" y="286.268284" style="stroke: #000000; stroke-width: 0.8"/>
      </g>
     </g>
     <g id="text_14">
      <!-- 0.002 -->
      <g transform="translate(520.74375 293.866722) scale(0.2 -0.2)">
       <use xlink:href="#DejaVuSans-30"/>
       <use xlink:href="#DejaVuSans-2e" x="63.623047"/>
       <use xlink:href="#DejaVuSans-30" x="95.410156"/>
       <use xlink:href="#DejaVuSans-30" x="159.033203"/>
       <use xlink:href="#DejaVuSans-32" x="222.65625"/>
      </g>
     </g>
    </g>
    <g id="ytick_9">
     <g id="line2d_14">
      <g>
       <use xlink:href="#m200f08a48b" x="585" y="190.183015" style="stroke: #000000; stroke-width: 0.8"/>
      </g>
     </g>
     <g id="text_15">
      <!-- 0.003 -->
      <g transform="translate(520.74375 197.781452) scale(0.2 -0.2)">
       <use xlink:href="#DejaVuSans-30"/>
       <use xlink:href="#DejaVuSans-2e" x="63.623047"/>
       <use xlink:href="#DejaVuSans-30" x="95.410156"/>
       <use xlink:href="#DejaVuSans-30" x="159.033203"/>
       <use xlink:href="#DejaVuSans-33" x="222.65625"/>
      </g>
     </g>
    </g>
    <g id="text_16">
     <!-- East(m) -->
     <g transform="translate(495.825 584.520313) rotate(-90) scale(0.2 -0.2)">
      <defs>
       <path id="DejaVuSans-45" d="M 628 4666 
L 3578 4666 
L 3578 4134 
L 1259 4134 
L 1259 2753 
L 3481 2753 
L 3481 2222 
L 1259 2222 
L 1259 531 
L 3634 531 
L 3634 0 
L 628 0 
L 628 4666 
z
" transform="scale(0.015625)"/>
       <path id="DejaVuSans-61" d="M 2194 1759 
Q 1497 1759 1228 1600 
Q 959 1441 959 1056 
Q 959 750 1161 570 
Q 1363 391 1709 391 
Q 2188 391 2477 730 
Q 2766 1069 2766 1631 
L 2766 1759 
L 2194 1759 
z
M 3341 1997 
L 3341 0 
L 2766 0 
L 2766 531 
Q 2569 213 2275 61 
Q 1981 -91 1556 -91 
Q 1019 -91 701 211 
Q 384 513 384 1019 
Q 384 1609 779 1909 
Q 1175 2209 1959 2209 
L 2766 2209 
L 2766 2266 
Q 2766 2663 2505 2880 
Q 2244 3097 1772 3097 
Q 1472 3097 1187 3025 
Q 903 2953 641 2809 
L 641 3341 
Q 956 3463 1253 3523 
Q 1550 3584 1831 3584 
Q 2591 3584 2966 3190 
Q 3341 2797 3341 1997 
z
" transform="scale(0.015625)"/>
       <path id="DejaVuSans-73" d="M 2834 3397 
L 2834 2853 
Q 2591 2978 2328 3040 
Q 2066 3103 1784 3103 
Q 1356 3103 1142 2972 
Q 928 2841 928 2578 
Q 928 2378 1081 2264 
Q 1234 2150 1697 2047 
L 1894 2003 
Q 2506 1872 2764 1633 
Q 3022 1394 3022 966 
Q 3022 478 2636 193 
Q 2250 -91 1575 -91 
Q 1294 -91 989 -36 
Q 684 19 347 128 
L 347 722 
Q 666 556 975 473 
Q 1284 391 1588 391 
Q 1994 391 2212 530 
Q 2431 669 2431 922 
Q 2431 1156 2273 1281 
Q 2116 1406 1581 1522 
L 1381 1569 
Q 847 1681 609 1914 
Q 372 2147 372 2553 
Q 372 3047 722 3315 
Q 1072 3584 1716 3584 
Q 2034 3584 2315 3537 
Q 2597 3491 2834 3397 
z
" transform="scale(0.015625)"/>
       <path id="DejaVuSans-74" d="M 1172 4494 
L 1172 3500 
L 2356 3500 
L 2356 3053 
L 1172 3053 
L 1172 1153 
Q 1172 725 1289 603 
Q 1406 481 1766 481 
L 2356 481 
L 2356 0 
L 1766 0 
Q 1100 0 847 248 
Q 594 497 594 1153 
L 594 3053 
L 172 3053 
L 172 3500 
L 594 3500 
L 594 4494 
L 1172 4494 
z
" transform="scale(0.015625)"/>
       <path id="DejaVuSans-28" d="M 1984 4856 
Q 1566 4138 1362 3434 
Q 1159 2731 1159 2009 
Q 1159 1288 1364 580 
Q 1569 -128 1984 -844 
L 1484 -844 
Q 1016 -109 783 600 
Q 550 1309 550 2009 
Q 550 2706 781 3412 
Q 1013 4119 1484 4856 
L 1984 4856 
z
" transform="scale(0.015625)"/>
       <path id="DejaVuSans-29" d="M 513 4856 
L 1013 4856 
Q 1481 4119 1714 3412 
Q 1947 2706 1947 2009 
Q 1947 1309 1714 600 
Q 1481 -109 1013 -844 
L 513 -844 
Q 928 -128 1133 580 
Q 1338 1288 1338 2009 
Q 1338 2731 1133 3434 
Q 928 4138 513 4856 
z
" transform="scale(0.015625)"/>
      </defs>
      <use xlink:href="#DejaVuSans-45"/>
      <use xlink:href="#DejaVuSans-61" x="63.183594"/>
      <use xlink:href="#DejaVuSans-73" x="124.462891"/>
      <use xlink:href="#DejaVuSans-74" x="176.5625"/>
      <use xlink:href="#DejaVuSans-28" x="215.771484"/>
      <use xlink:href="#DejaVuSans-6d" x="254.785156"/>
      <use xlink:href="#DejaVuSans-29" x="352.197266"/>
     </g>
    </g>
   </g>
   <g id="line2d_15">
    <path d="M 749.863636 485.700729 
L 753.708852 472.540145 
L 755.63146 464.393684 
L 757.554068 469.818043 
L 759.476676 435.023351 
L 761.399284 374.854878 
L 763.321892 362.232143 
L 765.2445 340.006012 
L 767.167108 321.565356 
L 769.089716 307.156216 
L 771.012324 312.184329 
L 772.934932 319.82769 
L 774.85754 304.837769 
L 776.780148 314.149777 
L 778.702756 315.243664 
L 780.625364 313.531892 
L 782.547972 325.099461 
L 784.47058 327.74578 
L 786.393188 343.712744 
L 788.315796 357.669952 
L 790.238404 368.864189 
L 792.161012 393.646287 
L 794.08362 415.878465 
L 796.006228 434.449713 
L 797.928836 482.973148 
L 799.851444 500.006271 
L 801.774052 512.883012 
L 803.69666 501.989101 
L 805.619268 488.837956 
L 807.541876 498.103513 
L 815.232309 377.988979 
L 817.154917 384.841156 
L 821.000133 356.232454 
L 822.922741 383.668239 
L 824.845349 366.224299 
L 826.767957 358.484238 
L 828.690565 336.997296 
L 830.613173 321.415309 
L 832.535781 294.34391 
L 834.458389 301.380399 
L 836.380997 290.729876 
L 838.303605 299.595476 
L 840.226213 285.81618 
L 842.148821 262.722126 
L 844.071429 247.357747 
L 845.994037 273.466632 
L 847.916645 262.176232 
L 849.839253 267.958479 
L 853.684469 288.571277 
L 855.607077 293.213096 
L 857.529685 274.12061 
L 859.452293 275.943376 
L 861.374901 258.32676 
L 865.220117 198.405777 
L 867.142725 173.617874 
L 869.065333 176.917864 
L 870.987941 173.331627 
L 872.910549 169.276629 
L 874.833157 174.780773 
L 878.678373 234.926756 
L 880.600981 223.292912 
L 882.523589 222.579484 
L 884.446197 234.896674 
L 890.214021 211.106559 
L 892.136629 197.623008 
L 894.059237 195.338003 
L 895.981845 176.121634 
L 897.904453 183.151753 
L 899.827061 196.861446 
L 901.749669 197.144558 
L 903.672277 210.621826 
L 905.594885 206.373939 
L 907.517493 211.90949 
L 909.440101 238.824865 
L 911.362709 248.436156 
L 913.285317 259.814939 
L 917.130533 285.565511 
L 919.053141 300.902976 
L 922.898357 322.05412 
L 924.820965 298.964349 
L 926.743573 287.998743 
L 928.666181 281.343488 
L 932.511397 314.403971 
L 934.434005 321.030986 
L 936.356613 298.061405 
L 938.279221 291.6275 
L 949.814869 275.843181 
L 955.582693 244.680546 
L 957.505301 191.40462 
L 959.427909 167.4 
L 961.350517 180.587677 
L 969.040949 192.241462 
L 974.808773 215.704872 
L 976.731381 216.561517 
L 978.653989 239.096537 
L 980.576597 239.81873 
L 984.421813 218.088817 
L 986.344421 193.511155 
L 988.267029 219.075964 
L 990.189637 272.689448 
L 992.112245 270.22779 
L 995.957461 298.851086 
L 997.880069 322.183227 
L 999.802677 321.061276 
L 1001.725285 336.887872 
L 1007.493109 229.019537 
L 1009.415717 262.037867 
L 1011.338325 259.162789 
L 1013.260933 246.445496 
L 1015.183541 261.055259 
L 1017.106149 269.032353 
L 1019.028757 280.844014 
L 1020.951365 281.183492 
L 1022.873973 263.169802 
L 1024.796581 290.978513 
L 1026.719189 327.612088 
L 1028.641797 336.733318 
L 1030.564405 351.365881 
L 1034.409621 338.934263 
L 1036.332229 323.567326 
L 1038.254837 300.605289 
L 1042.100053 299.248538 
L 1053.635701 370.664005 
L 1057.480917 366.775578 
L 1159.379141 296.527898 
L 1161.301749 254.365938 
L 1163.224357 235.457497 
L 1318.955606 219.107946 
L 1320.878214 224.4198 
L 1322.800822 253.076113 
L 1332.413862 378.70932 
L 1338.181686 467.461666 
L 1340.104294 515.440156 
L 1342.026902 529.073465 
L 1343.94951 549.545796 
L 1345.872118 548.498665 
L 1347.794726 518.545675 
L 1365.098198 619.860556 
L 1368.943414 609.461136 
L 1415.086006 493.605534 
L 1417.008614 507.481243 
L 1424.699046 464.517299 
L 1426.621654 476.498327 
L 1428.544262 474.906138 
L 1430.46687 469.278788 
L 1432.389478 507.062101 
L 1434.312086 475.853771 
L 1436.234694 471.408996 
L 1438.157302 472.431018 
L 1442.002518 528.853333 
L 1470.841638 616.650073 
L 1472.764246 630.124944 
L 1474.686854 651.318602 
L 1476.609462 665.2432 
L 1480.454678 710.633549 
L 1482.377286 711.837001 
L 1484.299894 690.757382 
L 1486.222502 672.261075 
L 1488.14511 661.453347 
L 1490.067718 646.08151 
L 1491.990326 609.688791 
L 1501.603366 503.52624 
L 1503.525974 512.723059 
L 1509.293798 542.521055 
L 1511.216406 525.696048 
L 1513.139014 492.774121 
L 1515.061622 493.995627 
L 1516.98423 487.034281 
L 1520.829446 498.457254 
L 1522.752054 492.041258 
L 1524.674662 527.570932 
L 1528.519878 549.290627 
L 1530.442486 554.475861 
L 1532.365094 525.439112 
L 1540.055526 450.883209 
L 1541.978134 433.856213 
L 1543.900742 444.390835 
L 1545.82335 450.292743 
L 1547.745958 431.896089 
L 1549.668566 439.588312 
L 1551.591174 507.102954 
L 1553.513782 501.489358 
L 1555.43639 511.103958 
L 1557.358998 480.254268 
L 1559.281606 482.968184 
L 1563.126822 514.579517 
L 1565.04943 527.938619 
L 1566.972038 520.357961 
L 1568.894646 501.513471 
L 1572.739862 515.565538 
L 1574.66247 495.711911 
L 1576.585078 538.384758 
L 1578.507686 526.881078 
L 1580.430294 553.073629 
L 1582.352902 572.777663 
L 1584.27551 546.65765 
L 1586.198118 562.548893 
L 1588.120726 556.872368 
L 1590.043334 537.094253 
L 1593.88855 546.952701 
L 1636.185926 642.971247 
L 1640.031142 645.305077 
L 1641.95375 647.285297 
L 1643.876358 655.572715 
L 1645.798966 669.575896 
L 1647.721574 686.535478 
L 1649.644182 673.3598 
L 1653.489398 717.840525 
L 1655.412006 698.460164 
L 1657.334614 692.310405 
L 1665.025046 670.86057 
L 1666.947654 683.224609 
L 1668.870262 692.249044 
L 1672.715478 655.837239 
L 1674.638086 632.14419 
L 1676.560694 614.164329 
L 1678.483302 629.610328 
L 1680.40591 601.203598 
L 1684.251126 583.22904 
L 1686.173734 590.807935 
L 1691.941558 703.623092 
L 1695.786774 710.493405 
L 1697.709382 734.762842 
L 1699.63199 744.749752 
L 1701.554598 726.675853 
L 1703.477206 711.096215 
L 1722.703287 784.428275 
L 1724.625895 757.003863 
L 1726.548503 747.563283 
L 1728.471111 710.14798 
L 1730.393719 708.610488 
L 1732.316327 673.678581 
L 1734.238935 665.46767 
L 1736.161543 668.72147 
L 1738.084151 682.218816 
L 1740.006759 686.07726 
L 1743.851975 688.218957 
L 1745.774583 675.935977 
L 1751.542407 681.536272 
L 1753.465015 671.674301 
L 1755.387623 679.12354 
L 1757.310231 662.519123 
L 1759.232839 657.644114 
L 1761.155447 639.483025 
L 1765.000663 643.958071 
L 1766.923271 616.506826 
L 1772.691095 611.850284 
L 1774.613703 630.656315 
L 1776.536311 626.234538 
L 1780.381527 646.305439 
L 1782.304135 649.395463 
L 1784.226743 649.410865 
L 1786.149351 637.431903 
L 1788.071959 642.94928 
L 1789.994567 624.945794 
L 1801.530215 646.034304 
L 1805.375431 617.541648 
L 1807.298039 609.52353 
L 1809.220647 599.258672 
L 1811.143255 606.248973 
L 1813.065863 603.451097 
L 1816.911079 628.086936 
L 1818.833687 630.307809 
L 1820.756295 621.985313 
L 1822.678903 647.016852 
L 1824.601511 605.409588 
L 1830.369335 562.909823 
L 1832.291943 560.839911 
L 1834.214551 545.437617 
L 1836.137159 514.989424 
L 1838.059767 551.378919 
L 1839.982375 559.486158 
L 1841.904983 512.742112 
L 1845.750199 478.028321 
L 1847.672807 498.927552 
L 1859.208455 500.912167 
L 1861.131063 459.653656 
L 1863.053671 421.537223 
L 1864.976279 452.534224 
L 1866.898887 450.683134 
L 1868.821495 434.935759 
L 1870.744103 390.471578 
L 1872.666711 381.029173 
L 1874.589319 375.022846 
L 1876.511927 363.703397 
L 1878.434535 350.147504 
L 1880.357143 370.527716 
L 1884.202359 297.84678 
L 1886.124967 288.075844 
L 1888.047575 278.905689 
L 1889.970183 279.353705 
L 1891.892791 260.871505 
L 1893.815399 234.217016 
L 1895.738007 265.097258 
L 1899.583223 260.454172 
L 1901.505831 278.243232 
L 1903.428439 306.106027 
L 1905.351047 291.732125 
L 1907.273655 290.540481 
L 1909.196263 285.598968 
L 1911.118871 291.229153 
L 1913.041479 266.61885 
L 1914.964087 282.76128 
L 2024.552743 196.191628 
L 2028.397959 224.361315 
L 2030.320567 252.222957 
L 2032.243175 277.325938 
L 2034.165783 248.624014 
L 2036.088391 281.253712 
L 2038.010999 294.732349 
L 2039.933607 341.736701 
L 2049.546647 510.431765 
L 2051.469255 531.806569 
L 2057.237079 565.992524 
L 2059.159687 546.589242 
L 2061.082295 553.902864 
L 2063.004903 564.277854 
L 2064.927511 570.086806 
L 2068.772727 563.814427 
L 2137.986615 504.120403 
L 2139.909223 543.32234 
L 2143.754439 586.479702 
L 2145.677047 590.808683 
L 2172.59356 675.90163 
L 2255.265704 772.707867 
L 2257.188312 797.935782 
L 2261.033528 838.057441 
L 2262.956136 835.043852 
L 2264.878744 809.829694 
L 2266.801352 798.315056 
L 2268.72396 796.904537 
L 2270.646568 800.040045 
L 2272.569176 816.53735 
L 2274.491784 839.154781 
L 2276.414392 872.805366 
L 2282.182216 923.4 
L 2314.866552 872.870767 
L 2316.78916 824.865363 
L 2328.324808 736.872529 
L 2330.247416 685.589685 
L 2332.170024 725.652627 
L 2334.092632 713.854704 
L 2355.24132 717.30147 
L 2485.978664 607.888941 
L 2487.901272 615.4384 
L 2489.82388 584.006371 
L 2491.746488 524.735166 
L 2495.591704 539.354547 
L 2512.895176 556.755529 
L 2747.453353 501.972341 
L 2997.392393 484.756392 
L 2999.315001 527.930102 
L 3001.237609 538.087005 
L 3014.695865 508.345255 
L 3018.541081 493.595521 
L 3020.463689 522.032576 
L 3024.308905 523.757745 
L 3026.231513 538.216783 
L 3030.076729 568.804946 
L 3031.999337 585.917865 
L 3055.070633 576.228918 
L 3056.993241 535.650229 
L 3058.915849 567.17809 
L 3060.838457 562.59334 
L 3062.761065 531.143161 
L 3064.683673 511.72964 
L 3068.528889 512.24539 
L 3072.374105 490.778974 
L 3076.219321 500.846676 
L 3078.141929 516.021087 
L 3081.987146 481.9358 
L 3085.832362 485.997721 
L 3087.75497 459.98084 
L 3089.677578 507.830949 
L 3093.522794 546.680915 
L 3095.445402 553.031228 
L 3097.36801 563.137699 
L 3101.213226 590.119792 
L 3106.98105 547.40443 
L 3108.903658 545.406501 
L 3112.748874 531.128473 
L 3114.671482 527.029542 
L 3116.59409 523.598268 
L 3122.361914 492.834605 
L 3124.284522 483.675361 
L 3126.20713 454.814615 
L 3128.129738 422.409224 
L 3133.897562 441.022245 
L 3135.82017 449.511513 
L 3137.742778 436.224194 
L 3139.665386 487.493431 
L 3141.587994 501.900772 
L 3145.43321 528.222886 
L 3147.355818 505.849313 
L 3151.201034 520.951487 
L 3153.123642 464.709382 
L 3155.04625 444.435059 
L 3158.891466 431.751288 
L 3160.814074 412.548806 
L 3162.736682 396.485781 
L 3164.65929 407.711109 
L 3189.653194 430.882931 
L 3191.575802 394.840441 
L 3193.49841 368.480411 
L 3195.421018 353.763873 
L 3197.343626 323.5936 
L 3199.266234 333.508769 
L 3205.034058 344.538979 
L 3220.414922 493.481651 
L 3222.33753 470.642594 
L 3224.260138 479.572777 
L 3226.182746 458.519994 
L 3230.027962 444.357779 
L 3237.718394 373.333418 
L 3239.641002 406.823032 
L 3256.944474 358.283655 
L 3258.867082 367.120966 
L 3260.78969 392.443316 
L 3264.634906 372.474042 
L 3266.557514 360.173689 
L 3268.480122 367.975781 
L 3270.40273 378.228444 
L 3272.325338 377.136453 
L 3274.247946 372.741321 
L 3276.170554 381.644022 
L 3283.860986 403.301203 
L 3291.551418 395.980858 
L 3293.474026 395.197261 
L 3295.396634 376.849237 
L 3297.319242 379.932636 
L 3299.24185 369.460999 
L 3301.164458 344.899363 
L 3303.087066 342.672355 
L 3305.009674 363.062225 
L 3306.932282 371.163166 
L 3308.85489 402.148804 
L 3314.622714 373.495494 
L 3320.390538 425.708899 
L 3322.313146 463.964779 
L 3324.235754 481.621432 
L 3326.158362 476.498773 
L 3328.08097 488.4609 
L 3330.003578 474.381258 
L 3331.926186 436.667265 
L 3333.848794 460.515096 
L 3335.771402 421.054909 
L 3337.69401 403.711006 
L 3339.616618 407.461355 
L 3341.539226 392.80759 
L 3343.461834 404.917607 
L 3345.384442 395.635834 
L 3347.30705 381.381 
L 3349.229658 391.756074 
L 3351.152266 434.601414 
L 3353.074874 445.785022 
L 3354.997482 461.03918 
L 3356.92009 469.696842 
L 3358.842698 470.51779 
L 3360.765306 470.711149 
L 3362.687914 448.620917 
L 3364.610522 402.868457 
L 3366.53313 404.336597 
L 3368.455738 404.70805 
L 3370.378346 396.069513 
L 3372.300954 430.656867 
L 3374.223562 458.417936 
L 3376.14617 496.599022 
L 3378.068778 544.936785 
L 3379.991386 549.82846 
L 3381.913994 552.674108 
L 3383.836602 552.900109 
L 3385.75921 561.733202 
L 3387.681818 550.632981 
L 3389.604426 553.692682 
L 3393.449642 555.923018 
L 3395.37225 572.167063 
L 3397.294858 581.460335 
L 3399.217466 578.799863 
L 3401.140074 592.414641 
L 3403.062682 585.527539 
L 3404.98529 582.512658 
L 3406.907898 595.050061 
L 3410.753114 611.132928 
L 3412.675722 607.258148 
L 3414.59833 628.439015 
L 3416.520938 636.528913 
L 3418.443546 628.027893 
L 3420.366154 636.558203 
L 3422.288762 629.863719 
L 3424.21137 628.577072 
L 3426.133978 640.857306 
L 3428.056586 605.444905 
L 3429.979194 616.46012 
L 3431.901802 642.564653 
L 3433.82441 628.716175 
L 3435.747018 605.440912 
L 3437.669626 540.556953 
L 3439.592234 537.435303 
L 3441.514842 561.245126 
L 3443.43745 534.965496 
L 3445.360058 511.484829 
L 3447.282666 492.523248 
L 3449.205274 505.01808 
L 3451.127882 565.942642 
L 3453.05049 564.697583 
L 3454.973098 535.091197 
L 3456.895706 557.260307 
L 3458.818314 567.252677 
L 3460.740922 581.376843 
L 3462.66353 611.190956 
L 3464.586138 637.148492 
L 3466.508746 635.968438 
L 3468.431354 663.543776 
L 3470.353962 650.495113 
L 3472.27657 651.127129 
L 3474.199178 641.453164 
L 3476.121786 633.44029 
L 3478.044394 604.236554 
L 3479.967002 642.036583 
L 3481.88961 650.724539 
L 3483.812218 647.485163 
L 3485.734826 640.361917 
L 3487.657434 643.112658 
L 3489.580042 640.684794 
L 3493.425258 639.134054 
L 3495.347866 594.256562 
L 3497.270474 580.299983 
L 3499.193082 594.904728 
L 3501.11569 603.820624 
L 3503.038298 611.747052 
L 3504.960906 591.797624 
L 3506.883514 587.0043 
L 3508.806122 581.594602 
L 3510.72873 590.920483 
L 3512.651338 572.697287 
L 3514.573946 569.198035 
L 3516.496554 556.377276 
L 3518.419162 556.141757 
L 3522.264378 563.835418 
L 3524.186986 557.596657 
L 3526.109594 535.758787 
L 3528.032202 532.136815 
L 3529.95481 524.348607 
L 3531.877418 550.385935 
L 3533.800027 538.66864 
L 3535.722635 514.712687 
L 3537.645243 509.127387 
L 3539.567851 505.840488 
L 3541.490459 531.390044 
L 3543.413067 526.969234 
L 3545.335675 499.099492 
L 3549.180891 556.550842 
L 3551.103499 596.456463 
L 3553.026107 608.409013 
L 3554.948715 576.460037 
L 3556.871323 586.986795 
L 3558.793931 564.3934 
L 3560.716539 537.399157 
L 3562.639147 537.165481 
L 3564.561755 486.577734 
L 3574.174795 492.029815 
L 3576.097403 484.36537 
L 3578.020011 454.793001 
L 3581.865227 451.076676 
L 3583.787835 452.928644 
L 3585.710443 464.74609 
L 3587.633051 414.208325 
L 3589.555659 397.384476 
L 3591.478267 375.748744 
L 3593.400875 391.184005 
L 3595.323483 408.645189 
L 3635.698251 537.866542 
L 3637.620859 575.117848 
L 3641.466075 597.33506 
L 3647.233899 651.992738 
L 3649.156507 624.197341 
L 3651.079115 606.149641 
L 3653.001723 592.543608 
L 3654.924331 605.155243 
L 3656.846939 615.728364 
L 3658.769547 651.997532 
L 3660.692155 617.218246 
L 3662.614763 617.55067 
L 3664.537371 630.31745 
L 3666.459979 648.660749 
L 3668.382587 647.341302 
L 3670.305195 646.411394 
L 3672.227803 642.205687 
L 3674.150411 643.291699 
L 3676.073019 630.497917 
L 3677.995627 635.751125 
L 3679.918235 605.293077 
L 3681.840843 599.38759 
L 3683.763451 577.044305 
L 3685.686059 564.243719 
L 3687.608667 586.856311 
L 3689.531275 598.662779 
L 3691.453883 583.309649 
L 3693.376491 574.402368 
L 3695.299099 581.251431 
L 3699.144315 572.659688 
L 3701.066923 528.203505 
L 3702.989531 552.203098 
L 3704.912139 542.005711 
L 3706.834747 543.80275 
L 3708.757355 543.160207 
L 3710.679963 572.149939 
L 3714.525179 599.846634 
L 3718.370395 593.894289 
L 3720.293003 609.490721 
L 3722.215611 616.887905 
L 3724.138219 593.241109 
L 3727.983435 610.70063 
L 3729.906043 611.72086 
L 3731.828651 638.040014 
L 3733.751259 635.957984 
L 3735.673867 645.016826 
L 3739.519083 716.204004 
L 3741.441691 706.404736 
L 3743.364299 686.528849 
L 3745.286907 693.000367 
L 3747.209515 688.098386 
L 3749.132123 664.049558 
L 3751.054731 644.718975 
L 3754.899947 640.720162 
L 3756.822555 647.967595 
L 3758.745163 643.152799 
L 3760.667771 656.334235 
L 3762.590379 683.32803 
L 3768.358203 601.050057 
L 3770.280811 616.317447 
L 3772.203419 608.633837 
L 3774.126027 607.514031 
L 3776.048635 589.268241 
L 3777.971243 596.065915 
L 3779.893851 615.14385 
L 3877.946859 780.580393 
L 3879.869467 773.650951 
L 3881.792075 690.571065 
L 3887.559899 667.793887 
L 3889.482507 638.854151 
L 3891.405115 635.204027 
L 3897.172939 581.20689 
L 3904.863371 600.797081 
L 3908.708587 605.662079 
L 3926.012059 691.860872 
L 3927.934667 655.812773 
L 3929.857275 654.265898 
L 3931.779883 639.267252 
L 3933.702491 632.682055 
L 3943.315531 560.101572 
L 3945.238139 572.606869 
L 3951.005963 652.08676 
L 3952.928571 611.714433 
L 3954.851179 599.65097 
L 3956.773787 609.247334 
L 3958.696395 580.292031 
L 3960.619003 580.902681 
L 3962.541611 596.410556 
L 3968.309435 631.420378 
L 3974.077259 589.05778 
L 3975.999867 585.975962 
L 3977.922475 559.655104 
L 3979.845083 560.419955 
L 3981.767691 538.489974 
L 3985.612908 542.407533 
L 3989.458124 494.500584 
L 3991.380732 520.856006 
L 4000.993772 479.261869 
L 4002.91638 485.550588 
L 4004.838988 464.844262 
L 4006.761596 462.823113 
L 4008.684204 444.518394 
L 4010.606812 450.099729 
L 4012.52942 457.697334 
L 4014.452028 490.226835 
L 4016.374636 475.77585 
L 4018.297244 459.095808 
L 4020.219852 444.865186 
L 4022.14246 443.392745 
L 4024.065068 437.213556 
L 4025.987676 437.942583 
L 4027.910284 408.019044 
L 4029.832892 409.151159 
L 4041.36854 406.521811 
L 4043.291148 411.925551 
L 4045.213756 402.459723 
L 4047.136364 385.943852 
L 4047.136364 385.943852 
" clip-path="url(#p71829c1b79)" style="fill: none; stroke: #1ac938; stroke-width: 2.5; stroke-linecap: square"/>
   </g>
   <g id="patch_3">
    <path d="M 585 961.2 
L 585 129.6 
" style="fill: none; stroke: #000000; stroke-width: 0.8; stroke-linejoin: miter; stroke-linecap: square"/>
   </g>
   <g id="patch_4">
    <path d="M 4212 961.2 
L 4212 129.6 
" style="fill: none; stroke: #000000; stroke-width: 0.8; stroke-linejoin: miter; stroke-linecap: square"/>
   </g>
   <g id="patch_5">
    <path d="M 585 961.2 
L 4212 961.2 
" style="fill: none; stroke: #000000; stroke-width: 0.8; stroke-linejoin: miter; stroke-linecap: square"/>
   </g>
   <g id="patch_6">
    <path d="M 585 129.6 
L 4212 129.6 
" style="fill: none; stroke: #000000; stroke-width: 0.8; stroke-linejoin: miter; stroke-linecap: square"/>
   </g>
   <g id="text_17">
    <!-- BRSE -->
    <g transform="translate(2358.785156 123.360937) scale(0.3 -0.3)">
     <defs>
      <path id="DejaVuSans-42" d="M 1259 2228 
L 1259 519 
L 2272 519 
Q 2781 519 3026 730 
Q 3272 941 3272 1375 
Q 3272 1813 3026 2020 
Q 2781 2228 2272 2228 
L 1259 2228 
z
M 1259 4147 
L 1259 2741 
L 2194 2741 
Q 2656 2741 2882 2914 
Q 3109 3088 3109 3444 
Q 3109 3797 2882 3972 
Q 2656 4147 2194 4147 
L 1259 4147 
z
M 628 4666 
L 2241 4666 
Q 2963 4666 3353 4366 
Q 3744 4066 3744 3513 
Q 3744 3084 3544 2831 
Q 3344 2578 2956 2516 
Q 3422 2416 3680 2098 
Q 3938 1781 3938 1306 
Q 3938 681 3513 340 
Q 3088 0 2303 0 
L 628 0 
L 628 4666 
z
" transform="scale(0.015625)"/>
      <path id="DejaVuSans-52" d="M 2841 2188 
Q 3044 2119 3236 1894 
Q 3428 1669 3622 1275 
L 4263 0 
L 3584 0 
L 2988 1197 
Q 2756 1666 2539 1819 
Q 2322 1972 1947 1972 
L 1259 1972 
L 1259 0 
L 628 0 
L 628 4666 
L 2053 4666 
Q 2853 4666 3247 4331 
Q 3641 3997 3641 3322 
Q 3641 2881 3436 2590 
Q 3231 2300 2841 2188 
z
M 1259 4147 
L 1259 2491 
L 2053 2491 
Q 2509 2491 2742 2702 
Q 2975 2913 2975 3322 
Q 2975 3731 2742 3939 
Q 2509 4147 2053 4147 
L 1259 4147 
z
" transform="scale(0.015625)"/>
      <path id="DejaVuSans-53" d="M 3425 4513 
L 3425 3897 
Q 3066 4069 2747 4153 
Q 2428 4238 2131 4238 
Q 1616 4238 1336 4038 
Q 1056 3838 1056 3469 
Q 1056 3159 1242 3001 
Q 1428 2844 1947 2747 
L 2328 2669 
Q 3034 2534 3370 2195 
Q 3706 1856 3706 1288 
Q 3706 609 3251 259 
Q 2797 -91 1919 -91 
Q 1588 -91 1214 -16 
Q 841 59 441 206 
L 441 856 
Q 825 641 1194 531 
Q 1563 422 1919 422 
Q 2459 422 2753 634 
Q 3047 847 3047 1241 
Q 3047 1584 2836 1778 
Q 2625 1972 2144 2069 
L 1759 2144 
Q 1053 2284 737 2584 
Q 422 2884 422 3419 
Q 422 4038 858 4394 
Q 1294 4750 2059 4750 
Q 2388 4750 2728 4690 
Q 3069 4631 3425 4513 
z
" transform="scale(0.015625)"/>
     </defs>
     <use xlink:href="#DejaVuSans-42"/>
     <use xlink:href="#DejaVuSans-52" x="68.603516"/>
     <use xlink:href="#DejaVuSans-53" x="138.085938"/>
     <use xlink:href="#DejaVuSans-45" x="201.5625"/>
    </g>
   </g>
   <g id="legend_1">
    <g id="patch_7">
     <path d="M 4151.178125 152.278125 
L 4205 152.278125 
Q 4207 152.278125 4207 150.278125 
L 4207 136.6 
Q 4207 134.6 4205 134.6 
L 4151.178125 134.6 
Q 4149.178125 134.6 4149.178125 136.6 
L 4149.178125 150.278125 
Q 4149.178125 152.278125 4151.178125 152.278125 
z
" style="fill: #ffffff; opacity: 0.8; stroke: #cccccc; stroke-linejoin: miter"/>
    </g>
    <g id="line2d_16">
     <path d="M 4153.178125 142.698438 
L 4163.178125 142.698438 
L 4173.178125 142.698438 
" style="fill: none; stroke: #1ac938; stroke-width: 2.5; stroke-linecap: square"/>
    </g>
    <g id="text_18">
     <!-- brse -->
     <g transform="translate(4181.178125 146.198438) scale(0.1 -0.1)">
      <defs>
       <path id="DejaVuSans-62" d="M 3116 1747 
Q 3116 2381 2855 2742 
Q 2594 3103 2138 3103 
Q 1681 3103 1420 2742 
Q 1159 2381 1159 1747 
Q 1159 1113 1420 752 
Q 1681 391 2138 391 
Q 2594 391 2855 752 
Q 3116 1113 3116 1747 
z
M 1159 2969 
Q 1341 3281 1617 3432 
Q 1894 3584 2278 3584 
Q 2916 3584 3314 3078 
Q 3713 2572 3713 1747 
Q 3713 922 3314 415 
Q 2916 -91 2278 -91 
Q 1894 -91 1617 61 
Q 1341 213 1159 525 
L 1159 0 
L 581 0 
L 581 4863 
L 1159 4863 
L 1159 2969 
z
" transform="scale(0.015625)"/>
       <path id="DejaVuSans-72" d="M 2631 2963 
Q 2534 3019 2420 3045 
Q 2306 3072 2169 3072 
Q 1681 3072 1420 2755 
Q 1159 2438 1159 1844 
L 1159 0 
L 581 0 
L 581 3500 
L 1159 3500 
L 1159 2956 
Q 1341 3275 1631 3429 
Q 1922 3584 2338 3584 
Q 2397 3584 2469 3576 
Q 2541 3569 2628 3553 
L 2631 2963 
z
" transform="scale(0.015625)"/>
      </defs>
      <use xlink:href="#DejaVuSans-62"/>
      <use xlink:href="#DejaVuSans-72" x="63.476562"/>
      <use xlink:href="#DejaVuSans-73" x="104.589844"/>
      <use xlink:href="#DejaVuSans-65" x="156.689453"/>
     </g>
    </g>
   </g>
  </g>
 </g>
 <defs>
  <clipPath id="p71829c1b79">
   <rect x="585" y="129.6" width="3627" height="831.6"/>
  </clipPath>
 </defs>
</svg>
