<?xml version="1.0" encoding="utf-8" standalone="no"?>
<!DOCTYPE svg PUBLIC "-//W3C//DTD SVG 1.1//EN"
  "http://www.w3.org/Graphics/SVG/1.1/DTD/svg11.dtd">
<svg xmlns:xlink="http://www.w3.org/1999/xlink" width="4680pt" height="1080pt" viewBox="0 0 4680 1080" xmlns="http://www.w3.org/2000/svg" version="1.1">
 <metadata>
  <rdf:RDF xmlns:dc="http://purl.org/dc/elements/1.1/" xmlns:cc="http://creativecommons.org/ns#" xmlns:rdf="http://www.w3.org/1999/02/22-rdf-syntax-ns#">
   <cc:Work>
    <dc:type rdf:resource="http://purl.org/dc/dcmitype/StillImage"/>
    <dc:date>2024-03-20T10:33:06.136881</dc:date>
    <dc:format>image/svg+xml</dc:format>
    <dc:creator>
     <cc:Agent>
      <dc:title>Matplotlib v3.7.2, https://matplotlib.org/</dc:title>
     </cc:Agent>
    </dc:creator>
   </cc:Work>
  </rdf:RDF>
 </metadata>
 <defs>
  <style type="text/css">*{stroke-linejoin: round; stroke-linecap: butt}</style>
 </defs>
 <g id="figure_1">
  <g id="patch_1">
   <path d="M 0 1080 
L 4680 1080 
L 4680 0 
L 0 0 
z
" style="fill: #ffffff"/>
  </g>
  <g id="axes_1">
   <g id="patch_2">
    <path d="M 585 961.2 
L 4212 961.2 
L 4212 129.6 
L 585 129.6 
z
" style="fill: #ffffff"/>
   </g>
   <g id="matplotlib.axis_1">
    <g id="xtick_1">
     <g id="line2d_1">
      <defs>
       <path id="m88009ba935" d="M 0 0 
L 0 3.5 
" style="stroke: #000000; stroke-width: 0.8"/>
      </defs>
      <g>
       <use xlink:href="#m88009ba935" x="711.411476" y="961.2" style="stroke: #000000; stroke-width: 0.8"/>
      </g>
     </g>
     <g id="text_1">
      <!-- 2012 -->
      <g transform="translate(685.961476 983.396875) scale(0.2 -0.2)">
       <defs>
        <path id="DejaVuSans-32" d="M 1228 531 
L 3431 531 
L 3431 0 
L 469 0 
L 469 531 
Q 828 903 1448 1529 
Q 2069 2156 2228 2338 
Q 2531 2678 2651 2914 
Q 2772 3150 2772 3378 
Q 2772 3750 2511 3984 
Q 2250 4219 1831 4219 
Q 1534 4219 1204 4116 
Q 875 4013 500 3803 
L 500 4441 
Q 881 4594 1212 4672 
Q 1544 4750 1819 4750 
Q 2544 4750 2975 4387 
Q 3406 4025 3406 3419 
Q 3406 3131 3298 2873 
Q 3191 2616 2906 2266 
Q 2828 2175 2409 1742 
Q 1991 1309 1228 531 
z
" transform="scale(0.015625)"/>
        <path id="DejaVuSans-30" d="M 2034 4250 
Q 1547 4250 1301 3770 
Q 1056 3291 1056 2328 
Q 1056 1369 1301 889 
Q 1547 409 2034 409 
Q 2525 409 2770 889 
Q 3016 1369 3016 2328 
Q 3016 3291 2770 3770 
Q 2525 4250 2034 4250 
z
M 2034 4750 
Q 2819 4750 3233 4129 
Q 3647 3509 3647 2328 
Q 3647 1150 3233 529 
Q 2819 -91 2034 -91 
Q 1250 -91 836 529 
Q 422 1150 422 2328 
Q 422 3509 836 4129 
Q 1250 4750 2034 4750 
z
" transform="scale(0.015625)"/>
        <path id="DejaVuSans-31" d="M 794 531 
L 1825 531 
L 1825 4091 
L 703 3866 
L 703 4441 
L 1819 4666 
L 2450 4666 
L 2450 531 
L 3481 531 
L 3481 0 
L 794 0 
L 794 531 
z
" transform="scale(0.015625)"/>
       </defs>
       <use xlink:href="#DejaVuSans-32"/>
       <use xlink:href="#DejaVuSans-30" x="63.623047"/>
       <use xlink:href="#DejaVuSans-31" x="127.246094"/>
       <use xlink:href="#DejaVuSans-32" x="190.869141"/>
      </g>
     </g>
    </g>
    <g id="xtick_2">
     <g id="line2d_2">
      <g>
       <use xlink:href="#m88009ba935" x="1415.086006" y="961.2" style="stroke: #000000; stroke-width: 0.8"/>
      </g>
     </g>
     <g id="text_2">
      <!-- 2013 -->
      <g transform="translate(1389.636006 983.396875) scale(0.2 -0.2)">
       <defs>
        <path id="DejaVuSans-33" d="M 2597 2516 
Q 3050 2419 3304 2112 
Q 3559 1806 3559 1356 
Q 3559 666 3084 287 
Q 2609 -91 1734 -91 
Q 1441 -91 1130 -33 
Q 819 25 488 141 
L 488 750 
Q 750 597 1062 519 
Q 1375 441 1716 441 
Q 2309 441 2620 675 
Q 2931 909 2931 1356 
Q 2931 1769 2642 2001 
Q 2353 2234 1838 2234 
L 1294 2234 
L 1294 2753 
L 1863 2753 
Q 2328 2753 2575 2939 
Q 2822 3125 2822 3475 
Q 2822 3834 2567 4026 
Q 2313 4219 1838 4219 
Q 1578 4219 1281 4162 
Q 984 4106 628 3988 
L 628 4550 
Q 988 4650 1302 4700 
Q 1616 4750 1894 4750 
Q 2613 4750 3031 4423 
Q 3450 4097 3450 3541 
Q 3450 3153 3228 2886 
Q 3006 2619 2597 2516 
z
" transform="scale(0.015625)"/>
       </defs>
       <use xlink:href="#DejaVuSans-32"/>
       <use xlink:href="#DejaVuSans-30" x="63.623047"/>
       <use xlink:href="#DejaVuSans-31" x="127.246094"/>
       <use xlink:href="#DejaVuSans-33" x="190.869141"/>
      </g>
     </g>
    </g>
    <g id="xtick_3">
     <g id="line2d_3">
      <g>
       <use xlink:href="#m88009ba935" x="2116.837927" y="961.2" style="stroke: #000000; stroke-width: 0.8"/>
      </g>
     </g>
     <g id="text_3">
      <!-- 2014 -->
      <g transform="translate(2091.387927 983.396875) scale(0.2 -0.2)">
       <defs>
        <path id="DejaVuSans-34" d="M 2419 4116 
L 825 1625 
L 2419 1625 
L 2419 4116 
z
M 2253 4666 
L 3047 4666 
L 3047 1625 
L 3713 1625 
L 3713 1100 
L 3047 1100 
L 3047 0 
L 2419 0 
L 2419 1100 
L 313 1100 
L 313 1709 
L 2253 4666 
z
" transform="scale(0.015625)"/>
       </defs>
       <use xlink:href="#DejaVuSans-32"/>
       <use xlink:href="#DejaVuSans-30" x="63.623047"/>
       <use xlink:href="#DejaVuSans-31" x="127.246094"/>
       <use xlink:href="#DejaVuSans-34" x="190.869141"/>
      </g>
     </g>
    </g>
    <g id="xtick_4">
     <g id="line2d_4">
      <g>
       <use xlink:href="#m88009ba935" x="2818.589849" y="961.2" style="stroke: #000000; stroke-width: 0.8"/>
      </g>
     </g>
     <g id="text_4">
      <!-- 2015 -->
      <g transform="translate(2793.139849 983.396875) scale(0.2 -0.2)">
       <defs>
        <path id="DejaVuSans-35" d="M 691 4666 
L 3169 4666 
L 3169 4134 
L 1269 4134 
L 1269 2991 
Q 1406 3038 1543 3061 
Q 1681 3084 1819 3084 
Q 2600 3084 3056 2656 
Q 3513 2228 3513 1497 
Q 3513 744 3044 326 
Q 2575 -91 1722 -91 
Q 1428 -91 1123 -41 
Q 819 9 494 109 
L 494 744 
Q 775 591 1075 516 
Q 1375 441 1709 441 
Q 2250 441 2565 725 
Q 2881 1009 2881 1497 
Q 2881 1984 2565 2268 
Q 2250 2553 1709 2553 
Q 1456 2553 1204 2497 
Q 953 2441 691 2322 
L 691 4666 
z
" transform="scale(0.015625)"/>
       </defs>
       <use xlink:href="#DejaVuSans-32"/>
       <use xlink:href="#DejaVuSans-30" x="63.623047"/>
       <use xlink:href="#DejaVuSans-31" x="127.246094"/>
       <use xlink:href="#DejaVuSans-35" x="190.869141"/>
      </g>
     </g>
    </g>
    <g id="xtick_5">
     <g id="line2d_5">
      <g>
       <use xlink:href="#m88009ba935" x="3520.34177" y="961.2" style="stroke: #000000; stroke-width: 0.8"/>
      </g>
     </g>
     <g id="text_5">
      <!-- 2016 -->
      <g transform="translate(3494.89177 983.396875) scale(0.2 -0.2)">
       <defs>
        <path id="DejaVuSans-36" d="M 2113 2584 
Q 1688 2584 1439 2293 
Q 1191 2003 1191 1497 
Q 1191 994 1439 701 
Q 1688 409 2113 409 
Q 2538 409 2786 701 
Q 3034 994 3034 1497 
Q 3034 2003 2786 2293 
Q 2538 2584 2113 2584 
z
M 3366 4563 
L 3366 3988 
Q 3128 4100 2886 4159 
Q 2644 4219 2406 4219 
Q 1781 4219 1451 3797 
Q 1122 3375 1075 2522 
Q 1259 2794 1537 2939 
Q 1816 3084 2150 3084 
Q 2853 3084 3261 2657 
Q 3669 2231 3669 1497 
Q 3669 778 3244 343 
Q 2819 -91 2113 -91 
Q 1303 -91 875 529 
Q 447 1150 447 2328 
Q 447 3434 972 4092 
Q 1497 4750 2381 4750 
Q 2619 4750 2861 4703 
Q 3103 4656 3366 4563 
z
" transform="scale(0.015625)"/>
       </defs>
       <use xlink:href="#DejaVuSans-32"/>
       <use xlink:href="#DejaVuSans-30" x="63.623047"/>
       <use xlink:href="#DejaVuSans-31" x="127.246094"/>
       <use xlink:href="#DejaVuSans-36" x="190.869141"/>
      </g>
     </g>
    </g>
    <g id="text_6">
     <!-- Time -->
     <g transform="translate(2374.032813 1006.753125) scale(0.2 -0.2)">
      <defs>
       <path id="DejaVuSans-54" d="M -19 4666 
L 3928 4666 
L 3928 4134 
L 2272 4134 
L 2272 0 
L 1638 0 
L 1638 4134 
L -19 4134 
L -19 4666 
z
" transform="scale(0.015625)"/>
       <path id="DejaVuSans-69" d="M 603 3500 
L 1178 3500 
L 1178 0 
L 603 0 
L 603 3500 
z
M 603 4863 
L 1178 4863 
L 1178 4134 
L 603 4134 
L 603 4863 
z
" transform="scale(0.015625)"/>
       <path id="DejaVuSans-6d" d="M 3328 2828 
Q 3544 3216 3844 3400 
Q 4144 3584 4550 3584 
Q 5097 3584 5394 3201 
Q 5691 2819 5691 2113 
L 5691 0 
L 5113 0 
L 5113 2094 
Q 5113 2597 4934 2840 
Q 4756 3084 4391 3084 
Q 3944 3084 3684 2787 
Q 3425 2491 3425 1978 
L 3425 0 
L 2847 0 
L 2847 2094 
Q 2847 2600 2669 2842 
Q 2491 3084 2119 3084 
Q 1678 3084 1418 2786 
Q 1159 2488 1159 1978 
L 1159 0 
L 581 0 
L 581 3500 
L 1159 3500 
L 1159 2956 
Q 1356 3278 1631 3431 
Q 1906 3584 2284 3584 
Q 2666 3584 2933 3390 
Q 3200 3197 3328 2828 
z
" transform="scale(0.015625)"/>
       <path id="DejaVuSans-65" d="M 3597 1894 
L 3597 1613 
L 953 1613 
Q 991 1019 1311 708 
Q 1631 397 2203 397 
Q 2534 397 2845 478 
Q 3156 559 3463 722 
L 3463 178 
Q 3153 47 2828 -22 
Q 2503 -91 2169 -91 
Q 1331 -91 842 396 
Q 353 884 353 1716 
Q 353 2575 817 3079 
Q 1281 3584 2069 3584 
Q 2775 3584 3186 3129 
Q 3597 2675 3597 1894 
z
M 3022 2063 
Q 3016 2534 2758 2815 
Q 2500 3097 2075 3097 
Q 1594 3097 1305 2825 
Q 1016 2553 972 2059 
L 3022 2063 
z
" transform="scale(0.015625)"/>
      </defs>
      <use xlink:href="#DejaVuSans-54"/>
      <use xlink:href="#DejaVuSans-69" x="57.958984"/>
      <use xlink:href="#DejaVuSans-6d" x="85.742188"/>
      <use xlink:href="#DejaVuSans-65" x="183.154297"/>
     </g>
    </g>
   </g>
   <g id="matplotlib.axis_2">
    <g id="ytick_1">
     <g id="line2d_6">
      <defs>
       <path id="mfd8f2c9cdf" d="M 0 0 
L -3.5 0 
" style="stroke: #000000; stroke-width: 0.8"/>
      </defs>
      <g>
       <use xlink:href="#mfd8f2c9cdf" x="585" y="880.281975" style="stroke: #000000; stroke-width: 0.8"/>
      </g>
     </g>
     <g id="text_7">
      <!-- −0.004 -->
      <g transform="translate(503.984375 887.880413) scale(0.2 -0.2)">
       <defs>
        <path id="DejaVuSans-2212" d="M 678 2272 
L 4684 2272 
L 4684 1741 
L 678 1741 
L 678 2272 
z
" transform="scale(0.015625)"/>
        <path id="DejaVuSans-2e" d="M 684 794 
L 1344 794 
L 1344 0 
L 684 0 
L 684 794 
z
" transform="scale(0.015625)"/>
       </defs>
       <use xlink:href="#DejaVuSans-2212"/>
       <use xlink:href="#DejaVuSans-30" x="83.789062"/>
       <use xlink:href="#DejaVuSans-2e" x="147.412109"/>
       <use xlink:href="#DejaVuSans-30" x="179.199219"/>
       <use xlink:href="#DejaVuSans-30" x="242.822266"/>
       <use xlink:href="#DejaVuSans-34" x="306.445312"/>
      </g>
     </g>
    </g>
    <g id="ytick_2">
     <g id="line2d_7">
      <g>
       <use xlink:href="#mfd8f2c9cdf" x="585" y="764.760559" style="stroke: #000000; stroke-width: 0.8"/>
      </g>
     </g>
     <g id="text_8">
      <!-- −0.002 -->
      <g transform="translate(503.984375 772.358996) scale(0.2 -0.2)">
       <use xlink:href="#DejaVuSans-2212"/>
       <use xlink:href="#DejaVuSans-30" x="83.789062"/>
       <use xlink:href="#DejaVuSans-2e" x="147.412109"/>
       <use xlink:href="#DejaVuSans-30" x="179.199219"/>
       <use xlink:href="#DejaVuSans-30" x="242.822266"/>
       <use xlink:href="#DejaVuSans-32" x="306.445312"/>
      </g>
     </g>
    </g>
    <g id="ytick_3">
     <g id="line2d_8">
      <g>
       <use xlink:href="#mfd8f2c9cdf" x="585" y="649.239142" style="stroke: #000000; stroke-width: 0.8"/>
      </g>
     </g>
     <g id="text_9">
      <!-- 0.000 -->
      <g transform="translate(520.74375 656.83758) scale(0.2 -0.2)">
       <use xlink:href="#DejaVuSans-30"/>
       <use xlink:href="#DejaVuSans-2e" x="63.623047"/>
       <use xlink:href="#DejaVuSans-30" x="95.410156"/>
       <use xlink:href="#DejaVuSans-30" x="159.033203"/>
       <use xlink:href="#DejaVuSans-30" x="222.65625"/>
      </g>
     </g>
    </g>
    <g id="ytick_4">
     <g id="line2d_9">
      <g>
       <use xlink:href="#mfd8f2c9cdf" x="585" y="533.717725" style="stroke: #000000; stroke-width: 0.8"/>
      </g>
     </g>
     <g id="text_10">
      <!-- 0.002 -->
      <g transform="translate(520.74375 541.316163) scale(0.2 -0.2)">
       <use xlink:href="#DejaVuSans-30"/>
       <use xlink:href="#DejaVuSans-2e" x="63.623047"/>
       <use xlink:href="#DejaVuSans-30" x="95.410156"/>
       <use xlink:href="#DejaVuSans-30" x="159.033203"/>
       <use xlink:href="#DejaVuSans-32" x="222.65625"/>
      </g>
     </g>
    </g>
    <g id="ytick_5">
     <g id="line2d_10">
      <g>
       <use xlink:href="#mfd8f2c9cdf" x="585" y="418.196309" style="stroke: #000000; stroke-width: 0.8"/>
      </g>
     </g>
     <g id="text_11">
      <!-- 0.004 -->
      <g transform="translate(520.74375 425.794746) scale(0.2 -0.2)">
       <use xlink:href="#DejaVuSans-30"/>
       <use xlink:href="#DejaVuSans-2e" x="63.623047"/>
       <use xlink:href="#DejaVuSans-30" x="95.410156"/>
       <use xlink:href="#DejaVuSans-30" x="159.033203"/>
       <use xlink:href="#DejaVuSans-34" x="222.65625"/>
      </g>
     </g>
    </g>
    <g id="ytick_6">
     <g id="line2d_11">
      <g>
       <use xlink:href="#mfd8f2c9cdf" x="585" y="302.674892" style="stroke: #000000; stroke-width: 0.8"/>
      </g>
     </g>
     <g id="text_12">
      <!-- 0.006 -->
      <g transform="translate(520.74375 310.27333) scale(0.2 -0.2)">
       <use xlink:href="#DejaVuSans-30"/>
       <use xlink:href="#DejaVuSans-2e" x="63.623047"/>
       <use xlink:href="#DejaVuSans-30" x="95.410156"/>
       <use xlink:href="#DejaVuSans-30" x="159.033203"/>
       <use xlink:href="#DejaVuSans-36" x="222.65625"/>
      </g>
     </g>
    </g>
    <g id="ytick_7">
     <g id="line2d_12">
      <g>
       <use xlink:href="#mfd8f2c9cdf" x="585" y="187.153476" style="stroke: #000000; stroke-width: 0.8"/>
      </g>
     </g>
     <g id="text_13">
      <!-- 0.008 -->
      <g transform="translate(520.74375 194.751913) scale(0.2 -0.2)">
       <defs>
        <path id="DejaVuSans-38" d="M 2034 2216 
Q 1584 2216 1326 1975 
Q 1069 1734 1069 1313 
Q 1069 891 1326 650 
Q 1584 409 2034 409 
Q 2484 409 2743 651 
Q 3003 894 3003 1313 
Q 3003 1734 2745 1975 
Q 2488 2216 2034 2216 
z
M 1403 2484 
Q 997 2584 770 2862 
Q 544 3141 544 3541 
Q 544 4100 942 4425 
Q 1341 4750 2034 4750 
Q 2731 4750 3128 4425 
Q 3525 4100 3525 3541 
Q 3525 3141 3298 2862 
Q 3072 2584 2669 2484 
Q 3125 2378 3379 2068 
Q 3634 1759 3634 1313 
Q 3634 634 3220 271 
Q 2806 -91 2034 -91 
Q 1263 -91 848 271 
Q 434 634 434 1313 
Q 434 1759 690 2068 
Q 947 2378 1403 2484 
z
M 1172 3481 
Q 1172 3119 1398 2916 
Q 1625 2713 2034 2713 
Q 2441 2713 2670 2916 
Q 2900 3119 2900 3481 
Q 2900 3844 2670 4047 
Q 2441 4250 2034 4250 
Q 1625 4250 1398 4047 
Q 1172 3844 1172 3481 
z
" transform="scale(0.015625)"/>
       </defs>
       <use xlink:href="#DejaVuSans-30"/>
       <use xlink:href="#DejaVuSans-2e" x="63.623047"/>
       <use xlink:href="#DejaVuSans-30" x="95.410156"/>
       <use xlink:href="#DejaVuSans-30" x="159.033203"/>
       <use xlink:href="#DejaVuSans-38" x="222.65625"/>
      </g>
     </g>
    </g>
    <g id="text_14">
     <!-- East(m) -->
     <g transform="translate(495.825 584.520313) rotate(-90) scale(0.2 -0.2)">
      <defs>
       <path id="DejaVuSans-45" d="M 628 4666 
L 3578 4666 
L 3578 4134 
L 1259 4134 
L 1259 2753 
L 3481 2753 
L 3481 2222 
L 1259 2222 
L 1259 531 
L 3634 531 
L 3634 0 
L 628 0 
L 628 4666 
z
" transform="scale(0.015625)"/>
       <path id="DejaVuSans-61" d="M 2194 1759 
Q 1497 1759 1228 1600 
Q 959 1441 959 1056 
Q 959 750 1161 570 
Q 1363 391 1709 391 
Q 2188 391 2477 730 
Q 2766 1069 2766 1631 
L 2766 1759 
L 2194 1759 
z
M 3341 1997 
L 3341 0 
L 2766 0 
L 2766 531 
Q 2569 213 2275 61 
Q 1981 -91 1556 -91 
Q 1019 -91 701 211 
Q 384 513 384 1019 
Q 384 1609 779 1909 
Q 1175 2209 1959 2209 
L 2766 2209 
L 2766 2266 
Q 2766 2663 2505 2880 
Q 2244 3097 1772 3097 
Q 1472 3097 1187 3025 
Q 903 2953 641 2809 
L 641 3341 
Q 956 3463 1253 3523 
Q 1550 3584 1831 3584 
Q 2591 3584 2966 3190 
Q 3341 2797 3341 1997 
z
" transform="scale(0.015625)"/>
       <path id="DejaVuSans-73" d="M 2834 3397 
L 2834 2853 
Q 2591 2978 2328 3040 
Q 2066 3103 1784 3103 
Q 1356 3103 1142 2972 
Q 928 2841 928 2578 
Q 928 2378 1081 2264 
Q 1234 2150 1697 2047 
L 1894 2003 
Q 2506 1872 2764 1633 
Q 3022 1394 3022 966 
Q 3022 478 2636 193 
Q 2250 -91 1575 -91 
Q 1294 -91 989 -36 
Q 684 19 347 128 
L 347 722 
Q 666 556 975 473 
Q 1284 391 1588 391 
Q 1994 391 2212 530 
Q 2431 669 2431 922 
Q 2431 1156 2273 1281 
Q 2116 1406 1581 1522 
L 1381 1569 
Q 847 1681 609 1914 
Q 372 2147 372 2553 
Q 372 3047 722 3315 
Q 1072 3584 1716 3584 
Q 2034 3584 2315 3537 
Q 2597 3491 2834 3397 
z
" transform="scale(0.015625)"/>
       <path id="DejaVuSans-74" d="M 1172 4494 
L 1172 3500 
L 2356 3500 
L 2356 3053 
L 1172 3053 
L 1172 1153 
Q 1172 725 1289 603 
Q 1406 481 1766 481 
L 2356 481 
L 2356 0 
L 1766 0 
Q 1100 0 847 248 
Q 594 497 594 1153 
L 594 3053 
L 172 3053 
L 172 3500 
L 594 3500 
L 594 4494 
L 1172 4494 
z
" transform="scale(0.015625)"/>
       <path id="DejaVuSans-28" d="M 1984 4856 
Q 1566 4138 1362 3434 
Q 1159 2731 1159 2009 
Q 1159 1288 1364 580 
Q 1569 -128 1984 -844 
L 1484 -844 
Q 1016 -109 783 600 
Q 550 1309 550 2009 
Q 550 2706 781 3412 
Q 1013 4119 1484 4856 
L 1984 4856 
z
" transform="scale(0.015625)"/>
       <path id="DejaVuSans-29" d="M 513 4856 
L 1013 4856 
Q 1481 4119 1714 3412 
Q 1947 2706 1947 2009 
Q 1947 1309 1714 600 
Q 1481 -109 1013 -844 
L 513 -844 
Q 928 -128 1133 580 
Q 1338 1288 1338 2009 
Q 1338 2731 1133 3434 
Q 928 4138 513 4856 
z
" transform="scale(0.015625)"/>
      </defs>
      <use xlink:href="#DejaVuSans-45"/>
      <use xlink:href="#DejaVuSans-61" x="63.183594"/>
      <use xlink:href="#DejaVuSans-73" x="124.462891"/>
      <use xlink:href="#DejaVuSans-74" x="176.5625"/>
      <use xlink:href="#DejaVuSans-28" x="215.771484"/>
      <use xlink:href="#DejaVuSans-6d" x="254.785156"/>
      <use xlink:href="#DejaVuSans-29" x="352.197266"/>
     </g>
    </g>
   </g>
   <g id="line2d_13">
    <path d="M 749.863636 791.400303 
L 751.786244 786.483598 
L 753.708852 789.495244 
L 755.63146 795.238018 
L 757.554068 800.293116 
L 761.399284 772.631087 
L 763.321892 770.170971 
L 765.2445 760.386582 
L 767.167108 749.123347 
L 769.089716 748.155577 
L 771.012324 756.817689 
L 772.934932 764.931288 
L 774.85754 758.622212 
L 776.780148 767.705896 
L 778.702756 770.380565 
L 780.625364 772.829161 
L 782.547972 779.621577 
L 784.47058 778.179539 
L 786.393188 793.128629 
L 790.238404 813.19827 
L 792.161012 833.842564 
L 794.08362 849.414093 
L 796.006228 859.269739 
L 797.928836 877.212506 
L 799.851444 878.164293 
L 801.774052 891.181462 
L 803.69666 878.406507 
L 805.619268 871.313194 
L 807.541876 850.110594 
L 815.232309 856.792922 
L 817.154917 860.841494 
L 821.000133 842.840815 
L 822.922741 849.121888 
L 824.845349 852.576187 
L 826.767957 868.440346 
L 828.690565 864.661843 
L 830.613173 848.911919 
L 832.535781 840.39837 
L 834.458389 862.719355 
L 836.380997 863.647974 
L 840.226213 843.513651 
L 842.148821 837.663344 
L 844.071429 826.211255 
L 845.994037 839.871941 
L 847.916645 829.688916 
L 849.839253 835.082927 
L 853.684469 863.751465 
L 855.607077 861.743174 
L 857.529685 864.024932 
L 859.452293 858.696445 
L 861.374901 847.21069 
L 865.220117 813.128076 
L 867.142725 793.692449 
L 869.065333 796.249277 
L 870.987941 799.510166 
L 872.910549 794.510035 
L 874.833157 810.769163 
L 878.678373 853.921805 
L 880.600981 869.103812 
L 882.523589 872.961202 
L 884.446197 872.125997 
L 890.214021 852.233166 
L 892.136629 835.161967 
L 894.059237 828.007753 
L 895.981845 813.860508 
L 897.904453 805.911053 
L 899.827061 825.807376 
L 901.749669 828.745545 
L 903.672277 838.484791 
L 905.594885 835.662632 
L 907.517493 808.669618 
L 909.440101 811.848835 
L 911.362709 814.016114 
L 913.285317 796.452048 
L 917.130533 770.761957 
L 919.053141 768.549018 
L 920.975749 775.998189 
L 922.898357 774.323464 
L 924.820965 769.350394 
L 926.743573 763.0593 
L 928.666181 761.99157 
L 932.511397 749.460976 
L 934.434005 742.366652 
L 936.356613 727.266943 
L 938.279221 726.604574 
L 949.814869 739.458556 
L 955.582693 754.514174 
L 957.505301 749.630876 
L 959.427909 740.782487 
L 961.350517 733.341246 
L 969.040949 755.554709 
L 974.808773 753.517072 
L 976.731381 746.642381 
L 978.653989 753.624584 
L 980.576597 754.268728 
L 984.421813 726.426698 
L 986.344421 706.028253 
L 988.267029 700.366852 
L 990.189637 713.018904 
L 992.112245 715.940885 
L 995.957461 706.393125 
L 997.880069 726.850669 
L 999.802677 737.162722 
L 1001.725285 742.769215 
L 1007.493109 740.846046 
L 1009.415717 750.284974 
L 1011.338325 751.151347 
L 1013.260933 744.780924 
L 1015.183541 749.094826 
L 1017.106149 746.731565 
L 1019.028757 758.811418 
L 1020.951365 768.830277 
L 1022.873973 750.43859 
L 1024.796581 735.415603 
L 1026.719189 745.319733 
L 1028.641797 740.63245 
L 1030.564405 743.606807 
L 1034.409621 734.771342 
L 1036.332229 758.766287 
L 1038.254837 778.203765 
L 1042.100053 784.483664 
L 1053.635701 834.838287 
L 1057.480917 845.867458 
L 1159.379141 881.243342 
L 1161.301749 863.443712 
L 1163.224357 861.033716 
L 1318.955606 524.040716 
L 1320.878214 497.952922 
L 1322.800822 469.642905 
L 1332.413862 388.66963 
L 1336.259078 421.29666 
L 1338.181686 455.762296 
L 1340.104294 492.760317 
L 1342.026902 510.358056 
L 1343.94951 518.336458 
L 1345.872118 524.105638 
L 1347.794726 505.781601 
L 1365.098198 427.901911 
L 1368.943414 464.227478 
L 1415.086006 545.358572 
L 1417.008614 549.899578 
L 1424.699046 617.517074 
L 1426.621654 642.133795 
L 1428.544262 653.367892 
L 1430.46687 675.882084 
L 1432.389478 689.926507 
L 1434.312086 687.953256 
L 1436.234694 640.099664 
L 1438.157302 652.674225 
L 1442.002518 659.773651 
L 1470.841638 701.445664 
L 1472.764246 704.970067 
L 1474.686854 741.544559 
L 1476.609462 761.949641 
L 1480.454678 773.433102 
L 1482.377286 769.687932 
L 1484.299894 774.108763 
L 1486.222502 784.85191 
L 1488.14511 768.885912 
L 1490.067718 750.407287 
L 1491.990326 742.577985 
L 1499.680758 713.034912 
L 1501.603366 708.871331 
L 1503.525974 718.587149 
L 1509.293798 737.212449 
L 1511.216406 731.739339 
L 1513.139014 719.370491 
L 1515.061622 728.186751 
L 1516.98423 728.280016 
L 1520.829446 733.17389 
L 1522.752054 734.560415 
L 1524.674662 744.766375 
L 1530.442486 753.401007 
L 1532.365094 749.044747 
L 1540.055526 701.914139 
L 1541.978134 681.879428 
L 1543.900742 671.869649 
L 1545.82335 653.216372 
L 1547.745958 617.076471 
L 1549.668566 602.412215 
L 1551.591174 619.10526 
L 1553.513782 604.025499 
L 1555.43639 594.015509 
L 1557.358998 574.822369 
L 1559.281606 573.404463 
L 1563.126822 592.414736 
L 1565.04943 590.563812 
L 1566.972038 599.006651 
L 1568.894646 602.947519 
L 1574.66247 648.485205 
L 1576.585078 659.131748 
L 1578.507686 659.514494 
L 1580.430294 665.741338 
L 1582.352902 677.705461 
L 1584.27551 661.784599 
L 1586.198118 642.403064 
L 1588.120726 616.434712 
L 1590.043334 600.852325 
L 1593.88855 580.651379 
L 1636.185926 601.783945 
L 1640.031142 569.12377 
L 1641.95375 548.030495 
L 1643.876358 543.766146 
L 1645.798966 559.424328 
L 1647.721574 559.564515 
L 1649.644182 543.074463 
L 1653.489398 564.457549 
L 1655.412006 571.673951 
L 1657.334614 561.866418 
L 1665.025046 520.570633 
L 1666.947654 512.708533 
L 1668.870262 520.604407 
L 1672.715478 516.422775 
L 1674.638086 534.983481 
L 1676.560694 524.690377 
L 1678.483302 499.776712 
L 1680.40591 464.278338 
L 1684.251126 411.455502 
L 1686.173734 391.7557 
L 1691.941558 395.816742 
L 1693.864166 402.258135 
L 1695.786774 403.914931 
L 1697.709382 403.919274 
L 1699.63199 398.489902 
L 1701.554598 405.24569 
L 1703.477206 371.814149 
L 1722.703287 410.727442 
L 1724.625895 411.177383 
L 1726.548503 409.136662 
L 1728.471111 423.763921 
L 1730.393719 418.09876 
L 1732.316327 408.952703 
L 1734.238935 419.566394 
L 1736.161543 433.853885 
L 1738.084151 458.81277 
L 1740.006759 455.62393 
L 1743.851975 479.296972 
L 1745.774583 504.840501 
L 1751.542407 536.430192 
L 1753.465015 568.206722 
L 1755.387623 580.172613 
L 1757.310231 572.777477 
L 1759.232839 570.750047 
L 1761.155447 570.588148 
L 1765.000663 564.869151 
L 1766.923271 561.218455 
L 1772.691095 601.134959 
L 1774.613703 617.25939 
L 1776.536311 623.191605 
L 1780.381527 648.740986 
L 1782.304135 652.389585 
L 1784.226743 666.063856 
L 1786.149351 668.463067 
L 1788.071959 664.753197 
L 1789.994567 674.422845 
L 1801.530215 693.259655 
L 1805.375431 660.528893 
L 1807.298039 656.257198 
L 1809.220647 644.008919 
L 1811.143255 635.053596 
L 1813.065863 629.134111 
L 1816.911079 647.845857 
L 1818.833687 654.572878 
L 1820.756295 658.53477 
L 1822.678903 657.313932 
L 1824.601511 652.563359 
L 1830.369335 661.773388 
L 1832.291943 652.990899 
L 1834.214551 643.68617 
L 1836.137159 646.287382 
L 1838.059767 648.577151 
L 1839.982375 656.738564 
L 1841.904983 659.858097 
L 1845.750199 634.005503 
L 1847.672807 653.198564 
L 1859.208455 582.76365 
L 1861.131063 554.573843 
L 1863.053671 571.02404 
L 1864.976279 594.496693 
L 1866.898887 610.988158 
L 1868.821495 635.85186 
L 1870.744103 638.254275 
L 1872.666711 641.204631 
L 1874.589319 646.443344 
L 1876.511927 655.138859 
L 1878.434535 645.037972 
L 1880.357143 651.533484 
L 1884.202359 662.42511 
L 1886.124967 657.091475 
L 1888.047575 671.303799 
L 1889.970183 650.205374 
L 1891.892791 655.700777 
L 1893.815399 649.013892 
L 1895.738007 643.560757 
L 1899.583223 653.525658 
L 1901.505831 659.635242 
L 1903.428439 658.837398 
L 1905.351047 655.225567 
L 1909.196263 644.466301 
L 1911.118871 641.938201 
L 1913.041479 643.88178 
L 1914.964087 639.710286 
L 2024.552743 678.193013 
L 2028.397959 673.10279 
L 2030.320567 682.197837 
L 2032.243175 663.832009 
L 2034.165783 641.267863 
L 2036.088391 638.194893 
L 2038.010999 631.299877 
L 2039.933607 654.501607 
L 2049.546647 715.148405 
L 2051.469255 730.963673 
L 2057.237079 724.287071 
L 2059.159687 715.242432 
L 2061.082295 719.395114 
L 2063.004903 732.212122 
L 2064.927511 742.903167 
L 2068.772727 769.093075 
L 2137.986615 452.588299 
L 2139.909223 472.386923 
L 2143.754439 492.898595 
L 2145.677047 519.219533 
L 2172.59356 470.963788 
L 2255.265704 206.449971 
L 2257.188312 231.700906 
L 2261.033528 278.041456 
L 2262.956136 287.270893 
L 2264.878744 293.007004 
L 2266.801352 300.377222 
L 2268.72396 299.967113 
L 2270.646568 296.282689 
L 2272.569176 291.009293 
L 2274.491784 276.760342 
L 2276.414392 272.007142 
L 2282.182216 299.701499 
L 2314.866552 321.092087 
L 2316.78916 334.81242 
L 2328.324808 404.897598 
L 2330.247416 406.303616 
L 2332.170024 404.712013 
L 2334.092632 393.316226 
L 2355.24132 377.184966 
L 2485.978664 621.6932 
L 2487.901272 617.265787 
L 2489.82388 595.197611 
L 2491.746488 535.542575 
L 2495.591704 547.836953 
L 2512.895176 615.852245 
L 2747.453353 167.4 
L 2997.392393 471.134063 
L 2999.315001 506.877542 
L 3001.237609 536.71838 
L 3014.695865 623.965172 
L 3018.541081 641.203444 
L 3020.463689 669.697178 
L 3024.308905 671.721988 
L 3026.231513 677.059239 
L 3030.076729 693.094506 
L 3031.999337 691.478527 
L 3055.070633 689.997759 
L 3056.993241 688.200687 
L 3058.915849 726.878221 
L 3060.838457 727.962822 
L 3062.761065 724.078359 
L 3064.683673 728.807619 
L 3068.528889 731.452022 
L 3072.374105 717.233263 
L 3076.219321 700.130751 
L 3078.141929 714.867455 
L 3081.987146 710.409327 
L 3085.832362 722.471575 
L 3087.75497 746.682139 
L 3089.677578 761.629162 
L 3095.445402 744.953508 
L 3097.36801 759.407932 
L 3101.213226 773.572501 
L 3106.98105 746.956808 
L 3108.903658 736.559034 
L 3112.748874 741.532384 
L 3114.671482 734.905046 
L 3116.59409 744.08467 
L 3122.361914 773.692463 
L 3124.284522 775.014207 
L 3126.20713 763.213599 
L 3128.129738 770.348319 
L 3133.897562 770.803387 
L 3135.82017 760.810044 
L 3137.742778 729.09482 
L 3139.665386 718.504103 
L 3141.587994 712.266388 
L 3145.43321 720.200385 
L 3147.355818 711.655858 
L 3151.201034 715.61599 
L 3153.123642 712.794817 
L 3155.04625 716.140203 
L 3158.891466 730.958823 
L 3160.814074 728.462834 
L 3162.736682 727.788087 
L 3164.65929 722.236767 
L 3189.653194 760.19354 
L 3191.575802 766.932436 
L 3193.49841 735.75874 
L 3195.421018 711.35337 
L 3197.343626 708.683892 
L 3199.266234 693.870662 
L 3205.034058 705.298401 
L 3216.569706 785.92355 
L 3220.414922 825.212673 
L 3222.33753 810.884555 
L 3224.260138 800.949975 
L 3226.182746 786.944769 
L 3230.027962 774.387225 
L 3237.718394 737.598093 
L 3239.641002 738.507695 
L 3256.944474 685.573018 
L 3258.867082 709.752194 
L 3260.78969 732.058003 
L 3264.634906 756.590627 
L 3266.557514 748.605998 
L 3268.480122 749.611432 
L 3270.40273 752.230277 
L 3272.325338 745.826238 
L 3274.247946 735.703727 
L 3276.170554 744.846666 
L 3283.860986 765.15013 
L 3291.551418 746.549032 
L 3293.474026 747.434948 
L 3295.396634 739.825064 
L 3297.319242 733.100745 
L 3299.24185 734.46696 
L 3301.164458 739.86418 
L 3303.087066 739.997925 
L 3305.009674 754.057644 
L 3306.932282 745.901995 
L 3308.85489 756.65221 
L 3314.622714 706.242802 
L 3320.390538 719.356134 
L 3322.313146 725.284579 
L 3324.235754 740.482017 
L 3326.158362 758.736502 
L 3328.08097 770.370456 
L 3330.003578 789.148635 
L 3331.926186 791.68113 
L 3333.848794 774.565902 
L 3335.771402 772.087956 
L 3337.69401 777.16193 
L 3339.616618 789.627274 
L 3341.539226 774.658132 
L 3343.461834 775.035135 
L 3345.384442 767.099268 
L 3347.30705 764.755486 
L 3349.229658 765.550066 
L 3351.152266 761.447548 
L 3353.074874 759.023234 
L 3354.997482 770.358737 
L 3356.92009 747.000125 
L 3358.842698 757.456943 
L 3360.765306 745.034571 
L 3362.687914 740.629357 
L 3364.610522 733.073383 
L 3366.53313 727.127391 
L 3368.455738 720.340602 
L 3370.378346 728.312538 
L 3372.300954 728.553539 
L 3374.223562 727.628532 
L 3376.14617 729.311987 
L 3378.068778 731.349711 
L 3379.991386 721.875457 
L 3381.913994 713.745732 
L 3383.836602 713.241687 
L 3385.75921 709.899476 
L 3387.681818 715.327147 
L 3389.604426 718.61419 
L 3395.37225 757.992521 
L 3397.294858 781.661898 
L 3399.217466 776.633661 
L 3401.140074 777.799715 
L 3403.062682 778.366691 
L 3404.98529 771.953688 
L 3406.907898 774.633989 
L 3410.753114 760.091239 
L 3414.59833 787.491954 
L 3416.520938 790.213436 
L 3418.443546 786.79016 
L 3420.366154 784.511914 
L 3422.288762 771.431129 
L 3424.21137 784.367181 
L 3426.133978 795.119663 
L 3428.056586 798.095063 
L 3429.979194 820.670674 
L 3431.901802 831.911046 
L 3435.747018 845.760113 
L 3437.669626 820.72932 
L 3439.592234 815.671397 
L 3441.514842 833.131986 
L 3443.43745 813.600021 
L 3445.360058 817.930736 
L 3447.282666 809.3084 
L 3449.205274 818.688106 
L 3451.127882 851.32228 
L 3453.05049 852.170087 
L 3454.973098 829.086987 
L 3456.895706 838.019379 
L 3458.818314 842.849941 
L 3460.740922 855.684565 
L 3462.66353 865.260192 
L 3464.586138 869.645945 
L 3466.508746 872.983533 
L 3468.431354 882.00549 
L 3470.353962 876.995406 
L 3472.27657 871.272921 
L 3474.199178 870.040828 
L 3478.044394 859.723098 
L 3479.967002 885.469988 
L 3481.88961 896.579724 
L 3483.812218 898.283298 
L 3485.734826 893.262308 
L 3487.657434 890.406019 
L 3489.580042 893.480339 
L 3493.425258 880.060651 
L 3495.347866 880.638566 
L 3497.270474 891.775543 
L 3499.193082 899.708849 
L 3501.11569 903.694263 
L 3503.038298 905.071495 
L 3504.960906 901.012531 
L 3506.883514 897.515923 
L 3508.806122 891.453882 
L 3510.72873 883.390975 
L 3512.651338 889.776461 
L 3514.573946 903.923899 
L 3516.496554 904.942411 
L 3518.419162 912.511476 
L 3522.264378 914.814853 
L 3524.186986 914.707125 
L 3526.109594 917.384902 
L 3528.032202 911.225817 
L 3529.95481 914.526959 
L 3531.877418 923.4 
L 3533.800027 918.992219 
L 3535.722635 914.175077 
L 3537.645243 908.708855 
L 3539.567851 892.197489 
L 3541.490459 884.794097 
L 3543.413067 875.613328 
L 3545.335675 853.937262 
L 3547.258283 857.051074 
L 3549.180891 859.922461 
L 3551.103499 864.457939 
L 3553.026107 876.762761 
L 3554.948715 866.472319 
L 3556.871323 863.587134 
L 3558.793931 866.726654 
L 3560.716539 857.549855 
L 3562.639147 868.775456 
L 3564.561755 864.468438 
L 3574.174795 895.266715 
L 3576.097403 885.868888 
L 3578.020011 887.973403 
L 3581.865227 882.569965 
L 3583.787835 906.543711 
L 3585.710443 911.968057 
L 3587.633051 884.339256 
L 3589.555659 883.297913 
L 3591.478267 869.849941 
L 3593.400875 849.773469 
L 3595.323483 833.835902 
L 3635.698251 777.944061 
L 3641.466075 732.821003 
L 3647.233899 678.693196 
L 3649.156507 669.604147 
L 3651.079115 672.95955 
L 3653.001723 679.21606 
L 3654.924331 687.972854 
L 3656.846939 693.787897 
L 3658.769547 724.918693 
L 3660.692155 721.937509 
L 3662.614763 712.123701 
L 3664.537371 729.316055 
L 3666.459979 740.016603 
L 3668.382587 739.953282 
L 3670.305195 752.80673 
L 3672.227803 747.270419 
L 3674.150411 735.51668 
L 3676.073019 726.748591 
L 3677.995627 714.950198 
L 3679.918235 701.034174 
L 3681.840843 700.219123 
L 3683.763451 676.790541 
L 3685.686059 672.70523 
L 3687.608667 698.580559 
L 3689.531275 703.750759 
L 3691.453883 695.086197 
L 3693.376491 685.353828 
L 3695.299099 689.185987 
L 3697.221707 691.416773 
L 3699.144315 690.539036 
L 3701.066923 661.50793 
L 3702.989531 672.555637 
L 3704.912139 665.826934 
L 3706.834747 681.252082 
L 3708.757355 690.853891 
L 3710.679963 698.448674 
L 3712.602571 685.834709 
L 3714.525179 685.350685 
L 3718.370395 663.750333 
L 3720.293003 635.139647 
L 3722.215611 615.668923 
L 3724.138219 602.967632 
L 3727.983435 613.833751 
L 3729.906043 629.674841 
L 3731.828651 632.239848 
L 3733.751259 642.709145 
L 3735.673867 656.525546 
L 3739.519083 693.872185 
L 3741.441691 706.361326 
L 3743.364299 691.66909 
L 3745.286907 692.29549 
L 3747.209515 699.130492 
L 3749.132123 684.405193 
L 3751.054731 665.122851 
L 3754.899947 664.904841 
L 3756.822555 682.995826 
L 3758.745163 702.763876 
L 3760.667771 714.074609 
L 3762.590379 716.525324 
L 3768.358203 673.800882 
L 3770.280811 678.774158 
L 3772.203419 672.632416 
L 3774.126027 651.515681 
L 3777.971243 667.671213 
L 3779.893851 673.79645 
L 3877.946859 739.689754 
L 3881.792075 681.174402 
L 3887.559899 666.189535 
L 3889.482507 639.546451 
L 3891.405115 635.755135 
L 3897.172939 611.054627 
L 3904.863371 624.917077 
L 3908.708587 664.502351 
L 3926.012059 734.993557 
L 3927.934667 715.679002 
L 3929.857275 698.794371 
L 3931.779883 699.031765 
L 3933.702491 694.771549 
L 3943.315531 663.280591 
L 3945.238139 675.389594 
L 3951.005963 691.1221 
L 3952.928571 676.997522 
L 3954.851179 683.777008 
L 3956.773787 682.205622 
L 3960.619003 659.661926 
L 3962.541611 652.146676 
L 3968.309435 667.526581 
L 3974.077259 661.768276 
L 3975.999867 670.778402 
L 3977.922475 664.663394 
L 3979.845083 667.346555 
L 3981.767691 651.642312 
L 3985.612908 683.36369 
L 3987.535516 685.09576 
L 3989.458124 680.952476 
L 3991.380732 697.368849 
L 4000.993772 731.530494 
L 4002.91638 732.913416 
L 4004.838988 720.032399 
L 4006.761596 718.953146 
L 4008.684204 711.418805 
L 4010.606812 720.603266 
L 4012.52942 705.956395 
L 4014.452028 676.707101 
L 4016.374636 676.70436 
L 4018.297244 675.617441 
L 4020.219852 670.103123 
L 4022.14246 665.632281 
L 4024.065068 659.668772 
L 4025.987676 668.205486 
L 4027.910284 665.865864 
L 4029.832892 656.796832 
L 4041.36854 642.066872 
L 4043.291148 651.317856 
L 4045.213756 653.965329 
L 4047.136364 657.152373 
L 4047.136364 657.152373 
" clip-path="url(#pd6eab1450e)" style="fill: none; stroke: #e8000b; stroke-width: 2.5; stroke-linecap: square"/>
   </g>
   <g id="patch_3">
    <path d="M 585 961.2 
L 585 129.6 
" style="fill: none; stroke: #000000; stroke-width: 0.8; stroke-linejoin: miter; stroke-linecap: square"/>
   </g>
   <g id="patch_4">
    <path d="M 4212 961.2 
L 4212 129.6 
" style="fill: none; stroke: #000000; stroke-width: 0.8; stroke-linejoin: miter; stroke-linecap: square"/>
   </g>
   <g id="patch_5">
    <path d="M 585 961.2 
L 4212 961.2 
" style="fill: none; stroke: #000000; stroke-width: 0.8; stroke-linejoin: miter; stroke-linecap: square"/>
   </g>
   <g id="patch_6">
    <path d="M 585 129.6 
L 4212 129.6 
" style="fill: none; stroke: #000000; stroke-width: 0.8; stroke-linejoin: miter; stroke-linecap: square"/>
   </g>
   <g id="text_15">
    <!-- CANV -->
    <g transform="translate(2356.282031 123.360937) scale(0.3 -0.3)">
     <defs>
      <path id="DejaVuSans-43" d="M 4122 4306 
L 4122 3641 
Q 3803 3938 3442 4084 
Q 3081 4231 2675 4231 
Q 1875 4231 1450 3742 
Q 1025 3253 1025 2328 
Q 1025 1406 1450 917 
Q 1875 428 2675 428 
Q 3081 428 3442 575 
Q 3803 722 4122 1019 
L 4122 359 
Q 3791 134 3420 21 
Q 3050 -91 2638 -91 
Q 1578 -91 968 557 
Q 359 1206 359 2328 
Q 359 3453 968 4101 
Q 1578 4750 2638 4750 
Q 3056 4750 3426 4639 
Q 3797 4528 4122 4306 
z
" transform="scale(0.015625)"/>
      <path id="DejaVuSans-41" d="M 2188 4044 
L 1331 1722 
L 3047 1722 
L 2188 4044 
z
M 1831 4666 
L 2547 4666 
L 4325 0 
L 3669 0 
L 3244 1197 
L 1141 1197 
L 716 0 
L 50 0 
L 1831 4666 
z
" transform="scale(0.015625)"/>
      <path id="DejaVuSans-4e" d="M 628 4666 
L 1478 4666 
L 3547 763 
L 3547 4666 
L 4159 4666 
L 4159 0 
L 3309 0 
L 1241 3903 
L 1241 0 
L 628 0 
L 628 4666 
z
" transform="scale(0.015625)"/>
      <path id="DejaVuSans-56" d="M 1831 0 
L 50 4666 
L 709 4666 
L 2188 738 
L 3669 4666 
L 4325 4666 
L 2547 0 
L 1831 0 
z
" transform="scale(0.015625)"/>
     </defs>
     <use xlink:href="#DejaVuSans-43"/>
     <use xlink:href="#DejaVuSans-41" x="69.824219"/>
     <use xlink:href="#DejaVuSans-4e" x="138.232422"/>
     <use xlink:href="#DejaVuSans-56" x="213.037109"/>
    </g>
   </g>
   <g id="legend_1">
    <g id="patch_7">
     <path d="M 4149.117188 152.278125 
L 4205 152.278125 
Q 4207 152.278125 4207 150.278125 
L 4207 136.6 
Q 4207 134.6 4205 134.6 
L 4149.117188 134.6 
Q 4147.117188 134.6 4147.117188 136.6 
L 4147.117188 150.278125 
Q 4147.117188 152.278125 4149.117188 152.278125 
z
" style="fill: #ffffff; opacity: 0.8; stroke: #cccccc; stroke-linejoin: miter"/>
    </g>
    <g id="line2d_14">
     <path d="M 4151.117188 142.698438 
L 4161.117188 142.698438 
L 4171.117188 142.698438 
" style="fill: none; stroke: #e8000b; stroke-width: 2.5; stroke-linecap: square"/>
    </g>
    <g id="text_16">
     <!-- canv -->
     <g transform="translate(4179.117188 146.198438) scale(0.1 -0.1)">
      <defs>
       <path id="DejaVuSans-63" d="M 3122 3366 
L 3122 2828 
Q 2878 2963 2633 3030 
Q 2388 3097 2138 3097 
Q 1578 3097 1268 2742 
Q 959 2388 959 1747 
Q 959 1106 1268 751 
Q 1578 397 2138 397 
Q 2388 397 2633 464 
Q 2878 531 3122 666 
L 3122 134 
Q 2881 22 2623 -34 
Q 2366 -91 2075 -91 
Q 1284 -91 818 406 
Q 353 903 353 1747 
Q 353 2603 823 3093 
Q 1294 3584 2113 3584 
Q 2378 3584 2631 3529 
Q 2884 3475 3122 3366 
z
" transform="scale(0.015625)"/>
       <path id="DejaVuSans-6e" d="M 3513 2113 
L 3513 0 
L 2938 0 
L 2938 2094 
Q 2938 2591 2744 2837 
Q 2550 3084 2163 3084 
Q 1697 3084 1428 2787 
Q 1159 2491 1159 1978 
L 1159 0 
L 581 0 
L 581 3500 
L 1159 3500 
L 1159 2956 
Q 1366 3272 1645 3428 
Q 1925 3584 2291 3584 
Q 2894 3584 3203 3211 
Q 3513 2838 3513 2113 
z
" transform="scale(0.015625)"/>
       <path id="DejaVuSans-76" d="M 191 3500 
L 800 3500 
L 1894 563 
L 2988 3500 
L 3597 3500 
L 2284 0 
L 1503 0 
L 191 3500 
z
" transform="scale(0.015625)"/>
      </defs>
      <use xlink:href="#DejaVuSans-63"/>
      <use xlink:href="#DejaVuSans-61" x="54.980469"/>
      <use xlink:href="#DejaVuSans-6e" x="116.259766"/>
      <use xlink:href="#DejaVuSans-76" x="179.638672"/>
     </g>
    </g>
   </g>
  </g>
 </g>
 <defs>
  <clipPath id="pd6eab1450e">
   <rect x="585" y="129.6" width="3627" height="831.6"/>
  </clipPath>
 </defs>
</svg>
