<?xml version="1.0" encoding="utf-8" standalone="no"?>
<!DOCTYPE svg PUBLIC "-//W3C//DTD SVG 1.1//EN"
  "http://www.w3.org/Graphics/SVG/1.1/DTD/svg11.dtd">
<svg xmlns:xlink="http://www.w3.org/1999/xlink" width="4680pt" height="1080pt" viewBox="0 0 4680 1080" xmlns="http://www.w3.org/2000/svg" version="1.1">
 <metadata>
  <rdf:RDF xmlns:dc="http://purl.org/dc/elements/1.1/" xmlns:cc="http://creativecommons.org/ns#" xmlns:rdf="http://www.w3.org/1999/02/22-rdf-syntax-ns#">
   <cc:Work>
    <dc:type rdf:resource="http://purl.org/dc/dcmitype/StillImage"/>
    <dc:date>2024-03-20T10:33:06.413611</dc:date>
    <dc:format>image/svg+xml</dc:format>
    <dc:creator>
     <cc:Agent>
      <dc:title>Matplotlib v3.7.2, https://matplotlib.org/</dc:title>
     </cc:Agent>
    </dc:creator>
   </cc:Work>
  </rdf:RDF>
 </metadata>
 <defs>
  <style type="text/css">*{stroke-linejoin: round; stroke-linecap: butt}</style>
 </defs>
 <g id="figure_1">
  <g id="patch_1">
   <path d="M 0 1080 
L 4680 1080 
L 4680 0 
L 0 0 
z
" style="fill: #ffffff"/>
  </g>
  <g id="axes_1">
   <g id="patch_2">
    <path d="M 585 961.2 
L 4212 961.2 
L 4212 129.6 
L 585 129.6 
z
" style="fill: #ffffff"/>
   </g>
   <g id="matplotlib.axis_1">
    <g id="xtick_1">
     <g id="line2d_1">
      <defs>
       <path id="m7d5e714ed6" d="M 0 0 
L 0 3.5 
" style="stroke: #000000; stroke-width: 0.8"/>
      </defs>
      <g>
       <use xlink:href="#m7d5e714ed6" x="711.411476" y="961.2" style="stroke: #000000; stroke-width: 0.8"/>
      </g>
     </g>
     <g id="text_1">
      <!-- 2012 -->
      <g transform="translate(685.961476 983.396875) scale(0.2 -0.2)">
       <defs>
        <path id="DejaVuSans-32" d="M 1228 531 
L 3431 531 
L 3431 0 
L 469 0 
L 469 531 
Q 828 903 1448 1529 
Q 2069 2156 2228 2338 
Q 2531 2678 2651 2914 
Q 2772 3150 2772 3378 
Q 2772 3750 2511 3984 
Q 2250 4219 1831 4219 
Q 1534 4219 1204 4116 
Q 875 4013 500 3803 
L 500 4441 
Q 881 4594 1212 4672 
Q 1544 4750 1819 4750 
Q 2544 4750 2975 4387 
Q 3406 4025 3406 3419 
Q 3406 3131 3298 2873 
Q 3191 2616 2906 2266 
Q 2828 2175 2409 1742 
Q 1991 1309 1228 531 
z
" transform="scale(0.015625)"/>
        <path id="DejaVuSans-30" d="M 2034 4250 
Q 1547 4250 1301 3770 
Q 1056 3291 1056 2328 
Q 1056 1369 1301 889 
Q 1547 409 2034 409 
Q 2525 409 2770 889 
Q 3016 1369 3016 2328 
Q 3016 3291 2770 3770 
Q 2525 4250 2034 4250 
z
M 2034 4750 
Q 2819 4750 3233 4129 
Q 3647 3509 3647 2328 
Q 3647 1150 3233 529 
Q 2819 -91 2034 -91 
Q 1250 -91 836 529 
Q 422 1150 422 2328 
Q 422 3509 836 4129 
Q 1250 4750 2034 4750 
z
" transform="scale(0.015625)"/>
        <path id="DejaVuSans-31" d="M 794 531 
L 1825 531 
L 1825 4091 
L 703 3866 
L 703 4441 
L 1819 4666 
L 2450 4666 
L 2450 531 
L 3481 531 
L 3481 0 
L 794 0 
L 794 531 
z
" transform="scale(0.015625)"/>
       </defs>
       <use xlink:href="#DejaVuSans-32"/>
       <use xlink:href="#DejaVuSans-30" x="63.623047"/>
       <use xlink:href="#DejaVuSans-31" x="127.246094"/>
       <use xlink:href="#DejaVuSans-32" x="190.869141"/>
      </g>
     </g>
    </g>
    <g id="xtick_2">
     <g id="line2d_2">
      <g>
       <use xlink:href="#m7d5e714ed6" x="1415.086006" y="961.2" style="stroke: #000000; stroke-width: 0.8"/>
      </g>
     </g>
     <g id="text_2">
      <!-- 2013 -->
      <g transform="translate(1389.636006 983.396875) scale(0.2 -0.2)">
       <defs>
        <path id="DejaVuSans-33" d="M 2597 2516 
Q 3050 2419 3304 2112 
Q 3559 1806 3559 1356 
Q 3559 666 3084 287 
Q 2609 -91 1734 -91 
Q 1441 -91 1130 -33 
Q 819 25 488 141 
L 488 750 
Q 750 597 1062 519 
Q 1375 441 1716 441 
Q 2309 441 2620 675 
Q 2931 909 2931 1356 
Q 2931 1769 2642 2001 
Q 2353 2234 1838 2234 
L 1294 2234 
L 1294 2753 
L 1863 2753 
Q 2328 2753 2575 2939 
Q 2822 3125 2822 3475 
Q 2822 3834 2567 4026 
Q 2313 4219 1838 4219 
Q 1578 4219 1281 4162 
Q 984 4106 628 3988 
L 628 4550 
Q 988 4650 1302 4700 
Q 1616 4750 1894 4750 
Q 2613 4750 3031 4423 
Q 3450 4097 3450 3541 
Q 3450 3153 3228 2886 
Q 3006 2619 2597 2516 
z
" transform="scale(0.015625)"/>
       </defs>
       <use xlink:href="#DejaVuSans-32"/>
       <use xlink:href="#DejaVuSans-30" x="63.623047"/>
       <use xlink:href="#DejaVuSans-31" x="127.246094"/>
       <use xlink:href="#DejaVuSans-33" x="190.869141"/>
      </g>
     </g>
    </g>
    <g id="xtick_3">
     <g id="line2d_3">
      <g>
       <use xlink:href="#m7d5e714ed6" x="2116.837927" y="961.2" style="stroke: #000000; stroke-width: 0.8"/>
      </g>
     </g>
     <g id="text_3">
      <!-- 2014 -->
      <g transform="translate(2091.387927 983.396875) scale(0.2 -0.2)">
       <defs>
        <path id="DejaVuSans-34" d="M 2419 4116 
L 825 1625 
L 2419 1625 
L 2419 4116 
z
M 2253 4666 
L 3047 4666 
L 3047 1625 
L 3713 1625 
L 3713 1100 
L 3047 1100 
L 3047 0 
L 2419 0 
L 2419 1100 
L 313 1100 
L 313 1709 
L 2253 4666 
z
" transform="scale(0.015625)"/>
       </defs>
       <use xlink:href="#DejaVuSans-32"/>
       <use xlink:href="#DejaVuSans-30" x="63.623047"/>
       <use xlink:href="#DejaVuSans-31" x="127.246094"/>
       <use xlink:href="#DejaVuSans-34" x="190.869141"/>
      </g>
     </g>
    </g>
    <g id="xtick_4">
     <g id="line2d_4">
      <g>
       <use xlink:href="#m7d5e714ed6" x="2818.589849" y="961.2" style="stroke: #000000; stroke-width: 0.8"/>
      </g>
     </g>
     <g id="text_4">
      <!-- 2015 -->
      <g transform="translate(2793.139849 983.396875) scale(0.2 -0.2)">
       <defs>
        <path id="DejaVuSans-35" d="M 691 4666 
L 3169 4666 
L 3169 4134 
L 1269 4134 
L 1269 2991 
Q 1406 3038 1543 3061 
Q 1681 3084 1819 3084 
Q 2600 3084 3056 2656 
Q 3513 2228 3513 1497 
Q 3513 744 3044 326 
Q 2575 -91 1722 -91 
Q 1428 -91 1123 -41 
Q 819 9 494 109 
L 494 744 
Q 775 591 1075 516 
Q 1375 441 1709 441 
Q 2250 441 2565 725 
Q 2881 1009 2881 1497 
Q 2881 1984 2565 2268 
Q 2250 2553 1709 2553 
Q 1456 2553 1204 2497 
Q 953 2441 691 2322 
L 691 4666 
z
" transform="scale(0.015625)"/>
       </defs>
       <use xlink:href="#DejaVuSans-32"/>
       <use xlink:href="#DejaVuSans-30" x="63.623047"/>
       <use xlink:href="#DejaVuSans-31" x="127.246094"/>
       <use xlink:href="#DejaVuSans-35" x="190.869141"/>
      </g>
     </g>
    </g>
    <g id="xtick_5">
     <g id="line2d_5">
      <g>
       <use xlink:href="#m7d5e714ed6" x="3520.34177" y="961.2" style="stroke: #000000; stroke-width: 0.8"/>
      </g>
     </g>
     <g id="text_5">
      <!-- 2016 -->
      <g transform="translate(3494.89177 983.396875) scale(0.2 -0.2)">
       <defs>
        <path id="DejaVuSans-36" d="M 2113 2584 
Q 1688 2584 1439 2293 
Q 1191 2003 1191 1497 
Q 1191 994 1439 701 
Q 1688 409 2113 409 
Q 2538 409 2786 701 
Q 3034 994 3034 1497 
Q 3034 2003 2786 2293 
Q 2538 2584 2113 2584 
z
M 3366 4563 
L 3366 3988 
Q 3128 4100 2886 4159 
Q 2644 4219 2406 4219 
Q 1781 4219 1451 3797 
Q 1122 3375 1075 2522 
Q 1259 2794 1537 2939 
Q 1816 3084 2150 3084 
Q 2853 3084 3261 2657 
Q 3669 2231 3669 1497 
Q 3669 778 3244 343 
Q 2819 -91 2113 -91 
Q 1303 -91 875 529 
Q 447 1150 447 2328 
Q 447 3434 972 4092 
Q 1497 4750 2381 4750 
Q 2619 4750 2861 4703 
Q 3103 4656 3366 4563 
z
" transform="scale(0.015625)"/>
       </defs>
       <use xlink:href="#DejaVuSans-32"/>
       <use xlink:href="#DejaVuSans-30" x="63.623047"/>
       <use xlink:href="#DejaVuSans-31" x="127.246094"/>
       <use xlink:href="#DejaVuSans-36" x="190.869141"/>
      </g>
     </g>
    </g>
    <g id="text_6">
     <!-- Time -->
     <g transform="translate(2374.032813 1006.753125) scale(0.2 -0.2)">
      <defs>
       <path id="DejaVuSans-54" d="M -19 4666 
L 3928 4666 
L 3928 4134 
L 2272 4134 
L 2272 0 
L 1638 0 
L 1638 4134 
L -19 4134 
L -19 4666 
z
" transform="scale(0.015625)"/>
       <path id="DejaVuSans-69" d="M 603 3500 
L 1178 3500 
L 1178 0 
L 603 0 
L 603 3500 
z
M 603 4863 
L 1178 4863 
L 1178 4134 
L 603 4134 
L 603 4863 
z
" transform="scale(0.015625)"/>
       <path id="DejaVuSans-6d" d="M 3328 2828 
Q 3544 3216 3844 3400 
Q 4144 3584 4550 3584 
Q 5097 3584 5394 3201 
Q 5691 2819 5691 2113 
L 5691 0 
L 5113 0 
L 5113 2094 
Q 5113 2597 4934 2840 
Q 4756 3084 4391 3084 
Q 3944 3084 3684 2787 
Q 3425 2491 3425 1978 
L 3425 0 
L 2847 0 
L 2847 2094 
Q 2847 2600 2669 2842 
Q 2491 3084 2119 3084 
Q 1678 3084 1418 2786 
Q 1159 2488 1159 1978 
L 1159 0 
L 581 0 
L 581 3500 
L 1159 3500 
L 1159 2956 
Q 1356 3278 1631 3431 
Q 1906 3584 2284 3584 
Q 2666 3584 2933 3390 
Q 3200 3197 3328 2828 
z
" transform="scale(0.015625)"/>
       <path id="DejaVuSans-65" d="M 3597 1894 
L 3597 1613 
L 953 1613 
Q 991 1019 1311 708 
Q 1631 397 2203 397 
Q 2534 397 2845 478 
Q 3156 559 3463 722 
L 3463 178 
Q 3153 47 2828 -22 
Q 2503 -91 2169 -91 
Q 1331 -91 842 396 
Q 353 884 353 1716 
Q 353 2575 817 3079 
Q 1281 3584 2069 3584 
Q 2775 3584 3186 3129 
Q 3597 2675 3597 1894 
z
M 3022 2063 
Q 3016 2534 2758 2815 
Q 2500 3097 2075 3097 
Q 1594 3097 1305 2825 
Q 1016 2553 972 2059 
L 3022 2063 
z
" transform="scale(0.015625)"/>
      </defs>
      <use xlink:href="#DejaVuSans-54"/>
      <use xlink:href="#DejaVuSans-69" x="57.958984"/>
      <use xlink:href="#DejaVuSans-6d" x="85.742188"/>
      <use xlink:href="#DejaVuSans-65" x="183.154297"/>
     </g>
    </g>
   </g>
   <g id="matplotlib.axis_2">
    <g id="ytick_1">
     <g id="line2d_6">
      <defs>
       <path id="m96bc87052f" d="M 0 0 
L -3.5 0 
" style="stroke: #000000; stroke-width: 0.8"/>
      </defs>
      <g>
       <use xlink:href="#m96bc87052f" x="585" y="874.205463" style="stroke: #000000; stroke-width: 0.8"/>
      </g>
     </g>
     <g id="text_7">
      <!-- −0.006 -->
      <g transform="translate(503.984375 881.8039) scale(0.2 -0.2)">
       <defs>
        <path id="DejaVuSans-2212" d="M 678 2272 
L 4684 2272 
L 4684 1741 
L 678 1741 
L 678 2272 
z
" transform="scale(0.015625)"/>
        <path id="DejaVuSans-2e" d="M 684 794 
L 1344 794 
L 1344 0 
L 684 0 
L 684 794 
z
" transform="scale(0.015625)"/>
       </defs>
       <use xlink:href="#DejaVuSans-2212"/>
       <use xlink:href="#DejaVuSans-30" x="83.789062"/>
       <use xlink:href="#DejaVuSans-2e" x="147.412109"/>
       <use xlink:href="#DejaVuSans-30" x="179.199219"/>
       <use xlink:href="#DejaVuSans-30" x="242.822266"/>
       <use xlink:href="#DejaVuSans-36" x="306.445312"/>
      </g>
     </g>
    </g>
    <g id="ytick_2">
     <g id="line2d_7">
      <g>
       <use xlink:href="#m96bc87052f" x="585" y="765.579051" style="stroke: #000000; stroke-width: 0.8"/>
      </g>
     </g>
     <g id="text_8">
      <!-- −0.004 -->
      <g transform="translate(503.984375 773.177488) scale(0.2 -0.2)">
       <use xlink:href="#DejaVuSans-2212"/>
       <use xlink:href="#DejaVuSans-30" x="83.789062"/>
       <use xlink:href="#DejaVuSans-2e" x="147.412109"/>
       <use xlink:href="#DejaVuSans-30" x="179.199219"/>
       <use xlink:href="#DejaVuSans-30" x="242.822266"/>
       <use xlink:href="#DejaVuSans-34" x="306.445312"/>
      </g>
     </g>
    </g>
    <g id="ytick_3">
     <g id="line2d_8">
      <g>
       <use xlink:href="#m96bc87052f" x="585" y="656.952638" style="stroke: #000000; stroke-width: 0.8"/>
      </g>
     </g>
     <g id="text_9">
      <!-- −0.002 -->
      <g transform="translate(503.984375 664.551076) scale(0.2 -0.2)">
       <use xlink:href="#DejaVuSans-2212"/>
       <use xlink:href="#DejaVuSans-30" x="83.789062"/>
       <use xlink:href="#DejaVuSans-2e" x="147.412109"/>
       <use xlink:href="#DejaVuSans-30" x="179.199219"/>
       <use xlink:href="#DejaVuSans-30" x="242.822266"/>
       <use xlink:href="#DejaVuSans-32" x="306.445312"/>
      </g>
     </g>
    </g>
    <g id="ytick_4">
     <g id="line2d_9">
      <g>
       <use xlink:href="#m96bc87052f" x="585" y="548.326226" style="stroke: #000000; stroke-width: 0.8"/>
      </g>
     </g>
     <g id="text_10">
      <!-- 0.000 -->
      <g transform="translate(520.74375 555.924664) scale(0.2 -0.2)">
       <use xlink:href="#DejaVuSans-30"/>
       <use xlink:href="#DejaVuSans-2e" x="63.623047"/>
       <use xlink:href="#DejaVuSans-30" x="95.410156"/>
       <use xlink:href="#DejaVuSans-30" x="159.033203"/>
       <use xlink:href="#DejaVuSans-30" x="222.65625"/>
      </g>
     </g>
    </g>
    <g id="ytick_5">
     <g id="line2d_10">
      <g>
       <use xlink:href="#m96bc87052f" x="585" y="439.699814" style="stroke: #000000; stroke-width: 0.8"/>
      </g>
     </g>
     <g id="text_11">
      <!-- 0.002 -->
      <g transform="translate(520.74375 447.298252) scale(0.2 -0.2)">
       <use xlink:href="#DejaVuSans-30"/>
       <use xlink:href="#DejaVuSans-2e" x="63.623047"/>
       <use xlink:href="#DejaVuSans-30" x="95.410156"/>
       <use xlink:href="#DejaVuSans-30" x="159.033203"/>
       <use xlink:href="#DejaVuSans-32" x="222.65625"/>
      </g>
     </g>
    </g>
    <g id="ytick_6">
     <g id="line2d_11">
      <g>
       <use xlink:href="#m96bc87052f" x="585" y="331.073402" style="stroke: #000000; stroke-width: 0.8"/>
      </g>
     </g>
     <g id="text_12">
      <!-- 0.004 -->
      <g transform="translate(520.74375 338.671839) scale(0.2 -0.2)">
       <use xlink:href="#DejaVuSans-30"/>
       <use xlink:href="#DejaVuSans-2e" x="63.623047"/>
       <use xlink:href="#DejaVuSans-30" x="95.410156"/>
       <use xlink:href="#DejaVuSans-30" x="159.033203"/>
       <use xlink:href="#DejaVuSans-34" x="222.65625"/>
      </g>
     </g>
    </g>
    <g id="ytick_7">
     <g id="line2d_12">
      <g>
       <use xlink:href="#m96bc87052f" x="585" y="222.44699" style="stroke: #000000; stroke-width: 0.8"/>
      </g>
     </g>
     <g id="text_13">
      <!-- 0.006 -->
      <g transform="translate(520.74375 230.045427) scale(0.2 -0.2)">
       <use xlink:href="#DejaVuSans-30"/>
       <use xlink:href="#DejaVuSans-2e" x="63.623047"/>
       <use xlink:href="#DejaVuSans-30" x="95.410156"/>
       <use xlink:href="#DejaVuSans-30" x="159.033203"/>
       <use xlink:href="#DejaVuSans-36" x="222.65625"/>
      </g>
     </g>
    </g>
    <g id="text_14">
     <!-- East(m) -->
     <g transform="translate(495.825 584.520313) rotate(-90) scale(0.2 -0.2)">
      <defs>
       <path id="DejaVuSans-45" d="M 628 4666 
L 3578 4666 
L 3578 4134 
L 1259 4134 
L 1259 2753 
L 3481 2753 
L 3481 2222 
L 1259 2222 
L 1259 531 
L 3634 531 
L 3634 0 
L 628 0 
L 628 4666 
z
" transform="scale(0.015625)"/>
       <path id="DejaVuSans-61" d="M 2194 1759 
Q 1497 1759 1228 1600 
Q 959 1441 959 1056 
Q 959 750 1161 570 
Q 1363 391 1709 391 
Q 2188 391 2477 730 
Q 2766 1069 2766 1631 
L 2766 1759 
L 2194 1759 
z
M 3341 1997 
L 3341 0 
L 2766 0 
L 2766 531 
Q 2569 213 2275 61 
Q 1981 -91 1556 -91 
Q 1019 -91 701 211 
Q 384 513 384 1019 
Q 384 1609 779 1909 
Q 1175 2209 1959 2209 
L 2766 2209 
L 2766 2266 
Q 2766 2663 2505 2880 
Q 2244 3097 1772 3097 
Q 1472 3097 1187 3025 
Q 903 2953 641 2809 
L 641 3341 
Q 956 3463 1253 3523 
Q 1550 3584 1831 3584 
Q 2591 3584 2966 3190 
Q 3341 2797 3341 1997 
z
" transform="scale(0.015625)"/>
       <path id="DejaVuSans-73" d="M 2834 3397 
L 2834 2853 
Q 2591 2978 2328 3040 
Q 2066 3103 1784 3103 
Q 1356 3103 1142 2972 
Q 928 2841 928 2578 
Q 928 2378 1081 2264 
Q 1234 2150 1697 2047 
L 1894 2003 
Q 2506 1872 2764 1633 
Q 3022 1394 3022 966 
Q 3022 478 2636 193 
Q 2250 -91 1575 -91 
Q 1294 -91 989 -36 
Q 684 19 347 128 
L 347 722 
Q 666 556 975 473 
Q 1284 391 1588 391 
Q 1994 391 2212 530 
Q 2431 669 2431 922 
Q 2431 1156 2273 1281 
Q 2116 1406 1581 1522 
L 1381 1569 
Q 847 1681 609 1914 
Q 372 2147 372 2553 
Q 372 3047 722 3315 
Q 1072 3584 1716 3584 
Q 2034 3584 2315 3537 
Q 2597 3491 2834 3397 
z
" transform="scale(0.015625)"/>
       <path id="DejaVuSans-74" d="M 1172 4494 
L 1172 3500 
L 2356 3500 
L 2356 3053 
L 1172 3053 
L 1172 1153 
Q 1172 725 1289 603 
Q 1406 481 1766 481 
L 2356 481 
L 2356 0 
L 1766 0 
Q 1100 0 847 248 
Q 594 497 594 1153 
L 594 3053 
L 172 3053 
L 172 3500 
L 594 3500 
L 594 4494 
L 1172 4494 
z
" transform="scale(0.015625)"/>
       <path id="DejaVuSans-28" d="M 1984 4856 
Q 1566 4138 1362 3434 
Q 1159 2731 1159 2009 
Q 1159 1288 1364 580 
Q 1569 -128 1984 -844 
L 1484 -844 
Q 1016 -109 783 600 
Q 550 1309 550 2009 
Q 550 2706 781 3412 
Q 1013 4119 1484 4856 
L 1984 4856 
z
" transform="scale(0.015625)"/>
       <path id="DejaVuSans-29" d="M 513 4856 
L 1013 4856 
Q 1481 4119 1714 3412 
Q 1947 2706 1947 2009 
Q 1947 1309 1714 600 
Q 1481 -109 1013 -844 
L 513 -844 
Q 928 -128 1133 580 
Q 1338 1288 1338 2009 
Q 1338 2731 1133 3434 
Q 928 4138 513 4856 
z
" transform="scale(0.015625)"/>
      </defs>
      <use xlink:href="#DejaVuSans-45"/>
      <use xlink:href="#DejaVuSans-61" x="63.183594"/>
      <use xlink:href="#DejaVuSans-73" x="124.462891"/>
      <use xlink:href="#DejaVuSans-74" x="176.5625"/>
      <use xlink:href="#DejaVuSans-28" x="215.771484"/>
      <use xlink:href="#DejaVuSans-6d" x="254.785156"/>
      <use xlink:href="#DejaVuSans-29" x="352.197266"/>
     </g>
    </g>
   </g>
   <g id="line2d_13">
    <path d="M 749.863636 578.122272 
L 751.786244 602.066676 
L 753.708852 597.603988 
L 755.63146 584.210536 
L 757.554068 591.950048 
L 759.476676 584.419506 
L 761.399284 570.739704 
L 763.321892 575.44725 
L 765.2445 538.514986 
L 767.167108 532.904211 
L 769.089716 528.284293 
L 771.012324 529.856406 
L 772.934932 533.899972 
L 774.85754 524.319621 
L 776.780148 529.942648 
L 778.702756 531.766029 
L 780.625364 534.750179 
L 782.547972 499.912365 
L 784.47058 467.356245 
L 786.393188 474.778021 
L 788.315796 477.781691 
L 790.238404 477.563131 
L 792.161012 471.540058 
L 794.08362 478.732423 
L 796.006228 532.830403 
L 797.928836 564.800216 
L 799.851444 572.382385 
L 801.774052 591.263247 
L 803.69666 588.017387 
L 805.619268 597.89636 
L 807.541876 582.481677 
L 815.232309 570.212003 
L 817.154917 574.677355 
L 821.000133 598.795668 
L 822.922741 609.193234 
L 824.845349 620.95968 
L 826.767957 607.159709 
L 828.690565 603.613395 
L 830.613173 605.406748 
L 832.535781 618.334106 
L 834.458389 614.671312 
L 836.380997 607.450743 
L 838.303605 597.605976 
L 840.226213 595.382709 
L 842.148821 589.1589 
L 844.071429 580.996279 
L 845.994037 586.143563 
L 847.916645 592.915502 
L 849.839253 597.28816 
L 853.684469 617.803406 
L 855.607077 620.491716 
L 857.529685 625.638935 
L 859.452293 618.284163 
L 861.374901 601.593749 
L 865.220117 579.994612 
L 867.142725 562.586936 
L 869.065333 566.169435 
L 870.987941 556.866709 
L 872.910549 544.707494 
L 874.833157 559.870942 
L 878.678373 591.266857 
L 880.600981 613.611009 
L 882.523589 611.712644 
L 884.446197 603.345623 
L 890.214021 597.066798 
L 892.136629 577.335635 
L 894.059237 561.956015 
L 895.981845 557.117169 
L 897.904453 569.30247 
L 899.827061 577.597551 
L 901.749669 578.846248 
L 903.672277 588.367778 
L 905.594885 598.841246 
L 907.517493 592.436828 
L 909.440101 595.518304 
L 911.362709 598.835373 
L 913.285317 598.837515 
L 917.130533 594.262363 
L 919.053141 596.478914 
L 920.975749 598.268312 
L 922.898357 598.05804 
L 924.820965 598.974958 
L 926.743573 600.460374 
L 928.666181 608.921294 
L 932.511397 620.933355 
L 934.434005 619.987533 
L 936.356613 617.892056 
L 938.279221 604.256235 
L 949.814869 562.356882 
L 955.582693 601.106732 
L 957.505301 598.988936 
L 959.427909 597.844679 
L 961.350517 589.294675 
L 969.040949 598.547146 
L 974.808773 621.327889 
L 976.731381 615.444354 
L 978.653989 611.596106 
L 980.576597 599.72419 
L 984.421813 584.769066 
L 986.344421 579.894677 
L 988.267029 588.000968 
L 990.189637 611.318067 
L 992.112245 627.697168 
L 995.957461 646.944436 
L 997.880069 659.670032 
L 999.802677 661.955634 
L 1001.725285 654.897306 
L 1007.493109 638.490906 
L 1009.415717 639.916701 
L 1011.338325 642.569159 
L 1013.260933 641.621236 
L 1015.183541 636.326934 
L 1017.106149 640.388447 
L 1019.028757 632.651237 
L 1020.951365 642.195161 
L 1022.873973 648.099603 
L 1024.796581 634.740327 
L 1026.719189 634.632764 
L 1028.641797 641.358359 
L 1030.564405 635.952801 
L 1034.409621 644.743402 
L 1036.332229 646.650555 
L 1038.254837 664.849204 
L 1042.100053 674.554018 
L 1053.635701 637.819771 
L 1057.480917 652.991306 
L 1159.379141 660.259325 
L 1161.301749 652.730957 
L 1163.224357 631.151486 
L 1318.955606 576.11402 
L 1320.878214 592.984387 
L 1322.800822 605.119338 
L 1332.413862 624.386344 
L 1336.259078 631.563238 
L 1338.181686 636.0304 
L 1340.104294 654.905297 
L 1342.026902 657.027568 
L 1343.94951 667.453832 
L 1345.872118 661.820961 
L 1347.794726 665.306127 
L 1365.098198 726.326406 
L 1368.943414 850.856498 
L 1415.086006 641.856557 
L 1417.008614 641.299319 
L 1424.699046 698.607329 
L 1426.621654 715.763713 
L 1428.544262 721.406973 
L 1430.46687 739.472678 
L 1432.389478 740.255547 
L 1434.312086 696.469182 
L 1436.234694 690.770166 
L 1438.157302 694.764249 
L 1442.002518 667.755804 
L 1470.841638 659.063676 
L 1472.764246 688.322822 
L 1474.686854 727.500558 
L 1476.609462 754.43792 
L 1480.454678 769.252969 
L 1482.377286 764.085325 
L 1484.299894 766.037636 
L 1486.222502 749.261196 
L 1488.14511 734.394471 
L 1490.067718 714.759789 
L 1491.990326 696.828893 
L 1499.680758 685.548206 
L 1501.603366 683.470928 
L 1503.525974 695.926619 
L 1509.293798 707.174566 
L 1511.216406 713.828513 
L 1513.139014 699.132001 
L 1515.061622 691.150275 
L 1516.98423 676.192122 
L 1520.829446 661.339824 
L 1522.752054 648.125355 
L 1524.674662 652.685459 
L 1528.519878 656.851601 
L 1530.442486 658.427179 
L 1532.365094 656.417012 
L 1540.055526 628.73818 
L 1541.978134 621.001337 
L 1543.900742 623.164379 
L 1545.82335 619.791334 
L 1547.745958 599.284817 
L 1549.668566 601.680053 
L 1551.591174 636.292177 
L 1553.513782 630.382497 
L 1555.43639 625.492383 
L 1557.358998 608.630841 
L 1559.281606 604.836858 
L 1563.126822 600.822075 
L 1565.04943 596.729545 
L 1566.972038 589.211384 
L 1568.894646 589.439898 
L 1572.739862 606.783963 
L 1574.66247 627.3216 
L 1576.585078 640.939548 
L 1578.507686 640.072429 
L 1580.430294 658.372007 
L 1582.352902 678.396409 
L 1584.27551 678.772064 
L 1586.198118 697.743028 
L 1590.043334 675.747719 
L 1593.88855 673.214958 
L 1636.185926 730.949477 
L 1640.031142 702.610731 
L 1641.95375 713.702825 
L 1643.876358 723.526253 
L 1645.798966 722.07895 
L 1647.721574 726.748708 
L 1649.644182 729.801385 
L 1653.489398 753.886396 
L 1655.412006 738.348258 
L 1657.334614 716.066556 
L 1665.025046 663.140775 
L 1666.947654 684.005223 
L 1668.870262 701.368047 
L 1672.715478 702.779783 
L 1674.638086 708.988748 
L 1676.560694 720.886764 
L 1678.483302 718.710982 
L 1680.40591 709.414296 
L 1684.251126 699.80968 
L 1686.173734 714.113039 
L 1691.941558 711.566007 
L 1693.864166 719.592639 
L 1695.786774 725.424678 
L 1699.63199 729.244144 
L 1701.554598 736.410309 
L 1703.477206 742.092265 
L 1722.703287 744.687491 
L 1726.548503 762.749983 
L 1728.471111 764.670587 
L 1730.393719 757.022512 
L 1732.316327 735.999046 
L 1734.238935 740.942545 
L 1736.161543 752.53729 
L 1738.084151 753.364538 
L 1740.006759 757.029939 
L 1743.851975 790.639306 
L 1745.774583 798.5882 
L 1751.542407 781.851358 
L 1753.465015 782.80452 
L 1755.387623 781.462217 
L 1757.310231 799.421616 
L 1759.232839 795.000175 
L 1761.155447 797.810795 
L 1765.000663 807.995566 
L 1766.923271 806.804031 
L 1772.691095 799.239319 
L 1774.613703 812.716545 
L 1776.536311 817.797018 
L 1780.381527 824.423529 
L 1782.304135 813.103348 
L 1784.226743 821.204078 
L 1786.149351 823.74608 
L 1788.071959 814.258814 
L 1789.994567 802.292219 
L 1801.530215 844.47791 
L 1805.375431 830.155427 
L 1807.298039 805.777905 
L 1809.220647 803.229021 
L 1811.143255 781.53917 
L 1813.065863 770.594894 
L 1816.911079 799.678746 
L 1818.833687 804.218588 
L 1820.756295 813.661321 
L 1822.678903 808.849994 
L 1824.601511 805.064664 
L 1830.369335 832.289059 
L 1832.291943 820.530344 
L 1834.214551 806.402875 
L 1836.137159 808.335641 
L 1838.059767 803.605391 
L 1839.982375 807.282687 
L 1841.904983 783.174716 
L 1845.750199 748.527943 
L 1847.672807 756.518652 
L 1859.208455 724.172589 
L 1861.131063 704.197325 
L 1863.053671 708.437267 
L 1864.976279 725.22394 
L 1866.898887 724.498113 
L 1868.821495 741.45999 
L 1870.744103 731.64487 
L 1872.666711 736.295723 
L 1874.589319 731.436528 
L 1876.511927 742.715561 
L 1878.434535 749.394037 
L 1880.357143 760.924325 
L 1886.124967 745.097053 
L 1888.047575 754.239096 
L 1889.970183 749.963469 
L 1891.892791 740.302275 
L 1893.815399 744.62776 
L 1895.738007 746.42782 
L 1899.583223 744.894333 
L 1901.505831 755.922065 
L 1903.428439 749.522174 
L 1905.351047 732.065463 
L 1907.273655 724.814617 
L 1909.196263 722.807438 
L 1911.118871 715.540947 
L 1913.041479 717.980391 
L 1914.964087 726.766072 
L 2024.552743 705.497545 
L 2030.320567 759.298037 
L 2032.243175 770.867609 
L 2034.165783 798.476704 
L 2036.088391 822.859041 
L 2038.010999 829.991563 
L 2039.933607 824.099888 
L 2049.546647 855.245091 
L 2051.469255 877.028611 
L 2057.237079 923.4 
L 2059.159687 869.170143 
L 2061.082295 857.710997 
L 2063.004903 842.442373 
L 2064.927511 825.981615 
L 2068.772727 855.075366 
L 2137.986615 842.678353 
L 2139.909223 834.052231 
L 2143.754439 809.609094 
L 2145.677047 800.482025 
L 2172.59356 807.604515 
L 2257.188312 651.351029 
L 2261.033528 711.195758 
L 2262.956136 719.128366 
L 2264.878744 718.445698 
L 2266.801352 721.960951 
L 2268.72396 717.725747 
L 2270.646568 717.449098 
L 2272.569176 731.630882 
L 2274.491784 758.562733 
L 2276.414392 763.286589 
L 2282.182216 783.892513 
L 2314.866552 692.367294 
L 2316.78916 705.449186 
L 2328.324808 708.466901 
L 2330.247416 700.104637 
L 2332.170024 699.980284 
L 2334.092632 701.763368 
L 2355.24132 685.174169 
L 2485.978664 653.930005 
L 2487.901272 632.439838 
L 2491.746488 555.31284 
L 2495.591704 525.158687 
L 2512.895176 494.534926 
L 2747.453353 458.56944 
L 2997.392393 167.4 
L 2999.315001 195.406983 
L 3001.237609 196.859936 
L 3014.695865 183.851311 
L 3018.541081 195.015144 
L 3020.463689 221.535542 
L 3024.308905 206.493117 
L 3026.231513 211.883149 
L 3030.076729 243.144484 
L 3031.999337 245.844774 
L 3055.070633 239.333816 
L 3056.993241 247.512396 
L 3058.915849 264.234468 
L 3060.838457 254.452671 
L 3062.761065 238.803502 
L 3064.683673 240.518219 
L 3068.528889 235.390992 
L 3072.374105 217.87691 
L 3076.219321 225.838223 
L 3078.141929 233.789637 
L 3081.987146 223.791654 
L 3085.832362 210.473572 
L 3087.75497 202.186376 
L 3089.677578 230.400406 
L 3093.522794 241.355496 
L 3095.445402 249.137354 
L 3097.36801 258.181166 
L 3101.213226 282.531461 
L 3106.98105 257.268298 
L 3108.903658 253.185158 
L 3112.748874 256.780976 
L 3114.671482 252.774944 
L 3116.59409 259.333919 
L 3122.361914 271.808383 
L 3124.284522 274.741611 
L 3126.20713 269.610933 
L 3128.129738 269.483012 
L 3133.897562 279.972624 
L 3135.82017 259.269743 
L 3137.742778 253.724382 
L 3139.665386 263.519177 
L 3141.587994 262.680522 
L 3145.43321 264.614354 
L 3147.355818 276.829788 
L 3151.201034 263.32009 
L 3153.123642 243.355812 
L 3155.04625 240.192342 
L 3158.891466 247.932604 
L 3160.814074 244.777558 
L 3162.736682 238.338235 
L 3164.65929 253.236321 
L 3189.653194 269.197691 
L 3191.575802 271.568412 
L 3193.49841 257.314529 
L 3195.421018 237.320912 
L 3197.343626 229.774061 
L 3199.266234 236.925162 
L 3205.034058 238.760177 
L 3216.569706 277.610316 
L 3220.414922 300.167002 
L 3222.33753 284.023872 
L 3224.260138 274.626839 
L 3226.182746 268.91288 
L 3230.027962 239.124986 
L 3237.718394 231.528694 
L 3239.641002 243.245552 
L 3256.944474 174.512935 
L 3258.867082 182.257415 
L 3260.78969 204.099798 
L 3264.634906 228.523811 
L 3266.557514 249.009237 
L 3268.480122 250.938962 
L 3270.40273 260.973218 
L 3272.325338 257.665976 
L 3274.247946 265.19313 
L 3276.170554 262.399016 
L 3283.860986 226.622175 
L 3291.551418 251.041201 
L 3293.474026 280.185845 
L 3295.396634 280.167377 
L 3297.319242 278.436657 
L 3299.24185 266.00227 
L 3303.087066 245.433189 
L 3305.009674 232.039175 
L 3306.932282 227.837496 
L 3308.85489 234.445658 
L 3314.622714 256.430701 
L 3320.390538 285.020995 
L 3322.313146 295.793051 
L 3324.235754 297.070429 
L 3326.158362 287.450114 
L 3328.08097 249.289452 
L 3330.003578 256.300355 
L 3331.926186 244.357434 
L 3333.848794 248.024899 
L 3335.771402 238.958919 
L 3337.69401 231.826603 
L 3339.616618 227.190813 
L 3341.539226 237.578244 
L 3343.461834 234.789244 
L 3345.384442 223.904211 
L 3347.30705 223.413971 
L 3349.229658 226.223934 
L 3351.152266 240.738566 
L 3353.074874 257.04849 
L 3354.997482 278.801741 
L 3356.92009 288.361152 
L 3358.842698 298.883305 
L 3360.765306 287.550435 
L 3362.687914 278.992169 
L 3364.610522 263.38219 
L 3366.53313 262.491968 
L 3368.455738 251.593406 
L 3370.378346 254.960632 
L 3372.300954 296.54954 
L 3374.223562 327.932934 
L 3378.068778 365.321263 
L 3379.991386 361.57115 
L 3381.913994 360.272447 
L 3383.836602 355.522168 
L 3385.75921 318.611049 
L 3387.681818 296.603621 
L 3389.604426 292.066255 
L 3393.449642 299.709699 
L 3397.294858 324.244234 
L 3399.217466 320.927162 
L 3401.140074 325.506329 
L 3403.062682 329.227331 
L 3404.98529 323.607229 
L 3406.907898 326.855808 
L 3410.753114 316.585081 
L 3412.675722 325.562466 
L 3414.59833 327.365486 
L 3416.520938 326.804309 
L 3418.443546 329.5044 
L 3420.366154 329.316315 
L 3422.288762 315.998742 
L 3424.21137 327.021022 
L 3426.133978 333.887363 
L 3428.056586 333.091649 
L 3429.979194 334.610784 
L 3431.901802 341.447077 
L 3433.82441 335.995743 
L 3435.747018 329.576395 
L 3437.669626 300.770114 
L 3439.592234 295.555201 
L 3441.514842 305.61014 
L 3443.43745 301.325502 
L 3445.360058 292.648555 
L 3447.282666 285.276865 
L 3449.205274 304.384114 
L 3451.127882 332.454599 
L 3453.05049 335.469793 
L 3454.973098 322.934508 
L 3456.895706 324.093493 
L 3458.818314 334.818591 
L 3460.740922 328.985993 
L 3462.66353 338.586442 
L 3464.586138 349.211399 
L 3466.508746 343.425802 
L 3470.353962 353.348945 
L 3472.27657 344.622776 
L 3474.199178 350.601435 
L 3476.121786 345.259777 
L 3478.044394 342.534495 
L 3479.967002 369.071273 
L 3481.88961 378.298652 
L 3483.812218 376.749287 
L 3485.734826 375.029629 
L 3489.580042 383.232018 
L 3493.425258 374.59925 
L 3495.347866 374.466541 
L 3497.270474 380.623683 
L 3501.11569 408.068484 
L 3503.038298 406.297603 
L 3504.960906 403.247952 
L 3506.883514 392.083534 
L 3508.806122 391.518695 
L 3510.72873 390.088846 
L 3512.651338 387.588219 
L 3514.573946 393.177684 
L 3516.496554 392.334216 
L 3518.419162 393.716497 
L 3522.264378 392.171391 
L 3524.186986 381.974501 
L 3526.109594 392.746966 
L 3528.032202 395.396222 
L 3529.95481 404.365064 
L 3531.877418 419.612952 
L 3533.800027 416.708603 
L 3535.722635 425.686354 
L 3537.645243 438.56176 
L 3539.567851 466.066374 
L 3541.490459 487.866489 
L 3543.413067 495.712767 
L 3545.335675 498.738355 
L 3547.258283 524.399178 
L 3549.180891 534.647625 
L 3551.103499 527.257243 
L 3553.026107 491.496467 
L 3554.948715 447.632842 
L 3556.871323 430.882683 
L 3558.793931 410.882514 
L 3560.716539 381.163306 
L 3562.639147 377.060995 
L 3564.561755 374.46089 
L 3574.174795 398.232441 
L 3576.097403 392.754098 
L 3578.020011 410.490497 
L 3581.865227 408.045451 
L 3583.787835 417.458929 
L 3585.710443 418.756499 
L 3587.633051 405.950487 
L 3589.555659 408.927309 
L 3591.478267 382.462066 
L 3593.400875 377.805084 
L 3595.323483 375.938191 
L 3635.698251 398.210688 
L 3637.620859 403.363769 
L 3641.466075 421.684283 
L 3647.233899 428.836922 
L 3649.156507 400.589091 
L 3651.079115 379.573753 
L 3653.001723 369.557492 
L 3654.924331 368.611602 
L 3656.846939 372.224066 
L 3658.769547 381.601546 
L 3660.692155 380.09296 
L 3662.614763 384.10071 
L 3664.537371 408.591266 
L 3666.459979 422.655707 
L 3668.382587 418.575894 
L 3670.305195 426.191877 
L 3672.227803 423.343657 
L 3674.150411 428.180849 
L 3676.073019 429.579471 
L 3677.995627 418.127267 
L 3679.918235 400.633611 
L 3681.840843 397.390982 
L 3683.763451 379.239178 
L 3685.686059 374.612947 
L 3687.608667 385.806751 
L 3689.531275 393.654495 
L 3691.453883 395.872055 
L 3693.376491 387.518657 
L 3695.299099 390.880467 
L 3697.221707 389.120774 
L 3699.144315 383.561324 
L 3701.066923 373.525713 
L 3702.989531 384.619005 
L 3704.912139 376.956264 
L 3706.834747 379.153832 
L 3708.757355 364.966438 
L 3710.679963 368.708371 
L 3712.602571 376.329111 
L 3714.525179 371.8925 
L 3718.370395 370.906939 
L 3720.293003 380.167651 
L 3722.215611 396.393402 
L 3724.138219 400.913766 
L 3727.983435 409.530782 
L 3729.906043 407.045062 
L 3731.828651 406.864364 
L 3733.751259 402.493156 
L 3735.673867 394.239595 
L 3739.519083 415.062844 
L 3741.441691 408.944179 
L 3743.364299 398.433116 
L 3745.286907 399.649515 
L 3747.209515 397.012924 
L 3749.132123 395.572112 
L 3754.899947 326.193478 
L 3756.822555 335.692851 
L 3758.745163 350.121093 
L 3760.667771 358.544317 
L 3762.590379 354.555091 
L 3768.358203 372.391679 
L 3770.280811 379.549916 
L 3772.203419 363.756748 
L 3774.126027 358.377641 
L 3776.048635 377.94644 
L 3777.971243 380.006721 
L 3779.893851 396.193408 
L 3877.946859 502.596044 
L 3881.792075 448.370229 
L 3887.559899 431.103022 
L 3889.482507 421.706783 
L 3891.405115 429.911109 
L 3897.172939 438.974672 
L 3904.863371 463.124042 
L 3908.708587 458.166359 
L 3926.012059 491.906774 
L 3927.934667 480.168409 
L 3931.779883 458.134668 
L 3933.702491 454.15091 
L 3943.315531 424.968554 
L 3945.238139 441.99454 
L 3951.005963 462.743689 
L 3952.928571 439.490703 
L 3954.851179 433.643983 
L 3956.773787 423.110506 
L 3958.696395 407.506003 
L 3960.619003 407.093195 
L 3962.541611 403.066945 
L 3968.309435 440.810451 
L 3974.077259 435.237373 
L 3975.999867 446.711371 
L 3977.922475 437.949746 
L 3979.845083 447.0746 
L 3981.767691 417.835996 
L 3985.612908 431.732578 
L 3987.535516 429.255647 
L 3989.458124 418.996161 
L 3991.380732 416.624641 
L 4000.993772 399.184923 
L 4002.91638 397.05472 
L 4004.838988 410.111716 
L 4006.761596 417.281561 
L 4008.684204 414.742611 
L 4010.606812 403.305186 
L 4012.52942 404.894311 
L 4014.452028 388.37648 
L 4016.374636 391.026397 
L 4018.297244 374.275705 
L 4020.219852 374.000886 
L 4022.14246 372.270927 
L 4024.065068 373.653147 
L 4025.987676 379.956741 
L 4027.910284 382.907662 
L 4029.832892 380.167066 
L 4041.36854 384.450324 
L 4043.291148 387.546041 
L 4045.213756 393.378544 
L 4047.136364 386.357366 
L 4047.136364 386.357366 
" clip-path="url(#pdfca46114f)" style="fill: none; stroke: #8b2be2; stroke-width: 2.5; stroke-linecap: square"/>
   </g>
   <g id="patch_3">
    <path d="M 585 961.2 
L 585 129.6 
" style="fill: none; stroke: #000000; stroke-width: 0.8; stroke-linejoin: miter; stroke-linecap: square"/>
   </g>
   <g id="patch_4">
    <path d="M 4212 961.2 
L 4212 129.6 
" style="fill: none; stroke: #000000; stroke-width: 0.8; stroke-linejoin: miter; stroke-linecap: square"/>
   </g>
   <g id="patch_5">
    <path d="M 585 961.2 
L 4212 961.2 
" style="fill: none; stroke: #000000; stroke-width: 0.8; stroke-linejoin: miter; stroke-linecap: square"/>
   </g>
   <g id="patch_6">
    <path d="M 585 129.6 
L 4212 129.6 
" style="fill: none; stroke: #000000; stroke-width: 0.8; stroke-linejoin: miter; stroke-linecap: square"/>
   </g>
   <g id="text_15">
    <!-- FDOS -->
    <g transform="translate(2356.992188 123.360937) scale(0.3 -0.3)">
     <defs>
      <path id="DejaVuSans-46" d="M 628 4666 
L 3309 4666 
L 3309 4134 
L 1259 4134 
L 1259 2759 
L 3109 2759 
L 3109 2228 
L 1259 2228 
L 1259 0 
L 628 0 
L 628 4666 
z
" transform="scale(0.015625)"/>
      <path id="DejaVuSans-44" d="M 1259 4147 
L 1259 519 
L 2022 519 
Q 2988 519 3436 956 
Q 3884 1394 3884 2338 
Q 3884 3275 3436 3711 
Q 2988 4147 2022 4147 
L 1259 4147 
z
M 628 4666 
L 1925 4666 
Q 3281 4666 3915 4102 
Q 4550 3538 4550 2338 
Q 4550 1131 3912 565 
Q 3275 0 1925 0 
L 628 0 
L 628 4666 
z
" transform="scale(0.015625)"/>
      <path id="DejaVuSans-4f" d="M 2522 4238 
Q 1834 4238 1429 3725 
Q 1025 3213 1025 2328 
Q 1025 1447 1429 934 
Q 1834 422 2522 422 
Q 3209 422 3611 934 
Q 4013 1447 4013 2328 
Q 4013 3213 3611 3725 
Q 3209 4238 2522 4238 
z
M 2522 4750 
Q 3503 4750 4090 4092 
Q 4678 3434 4678 2328 
Q 4678 1225 4090 567 
Q 3503 -91 2522 -91 
Q 1538 -91 948 565 
Q 359 1222 359 2328 
Q 359 3434 948 4092 
Q 1538 4750 2522 4750 
z
" transform="scale(0.015625)"/>
      <path id="DejaVuSans-53" d="M 3425 4513 
L 3425 3897 
Q 3066 4069 2747 4153 
Q 2428 4238 2131 4238 
Q 1616 4238 1336 4038 
Q 1056 3838 1056 3469 
Q 1056 3159 1242 3001 
Q 1428 2844 1947 2747 
L 2328 2669 
Q 3034 2534 3370 2195 
Q 3706 1856 3706 1288 
Q 3706 609 3251 259 
Q 2797 -91 1919 -91 
Q 1588 -91 1214 -16 
Q 841 59 441 206 
L 441 856 
Q 825 641 1194 531 
Q 1563 422 1919 422 
Q 2459 422 2753 634 
Q 3047 847 3047 1241 
Q 3047 1584 2836 1778 
Q 2625 1972 2144 2069 
L 1759 2144 
Q 1053 2284 737 2584 
Q 422 2884 422 3419 
Q 422 4038 858 4394 
Q 1294 4750 2059 4750 
Q 2388 4750 2728 4690 
Q 3069 4631 3425 4513 
z
" transform="scale(0.015625)"/>
     </defs>
     <use xlink:href="#DejaVuSans-46"/>
     <use xlink:href="#DejaVuSans-44" x="57.519531"/>
     <use xlink:href="#DejaVuSans-4f" x="134.521484"/>
     <use xlink:href="#DejaVuSans-53" x="213.232422"/>
    </g>
   </g>
   <g id="legend_1">
    <g id="patch_7">
     <path d="M 4151.803125 152.278125 
L 4205 152.278125 
Q 4207 152.278125 4207 150.278125 
L 4207 136.6 
Q 4207 134.6 4205 134.6 
L 4151.803125 134.6 
Q 4149.803125 134.6 4149.803125 136.6 
L 4149.803125 150.278125 
Q 4149.803125 152.278125 4151.803125 152.278125 
z
" style="fill: #ffffff; opacity: 0.8; stroke: #cccccc; stroke-linejoin: miter"/>
    </g>
    <g id="line2d_14">
     <path d="M 4153.803125 142.698438 
L 4163.803125 142.698438 
L 4173.803125 142.698438 
" style="fill: none; stroke: #8b2be2; stroke-width: 2.5; stroke-linecap: square"/>
    </g>
    <g id="text_16">
     <!-- fdos -->
     <g transform="translate(4181.803125 146.198438) scale(0.1 -0.1)">
      <defs>
       <path id="DejaVuSans-66" d="M 2375 4863 
L 2375 4384 
L 1825 4384 
Q 1516 4384 1395 4259 
Q 1275 4134 1275 3809 
L 1275 3500 
L 2222 3500 
L 2222 3053 
L 1275 3053 
L 1275 0 
L 697 0 
L 697 3053 
L 147 3053 
L 147 3500 
L 697 3500 
L 697 3744 
Q 697 4328 969 4595 
Q 1241 4863 1831 4863 
L 2375 4863 
z
" transform="scale(0.015625)"/>
       <path id="DejaVuSans-64" d="M 2906 2969 
L 2906 4863 
L 3481 4863 
L 3481 0 
L 2906 0 
L 2906 525 
Q 2725 213 2448 61 
Q 2172 -91 1784 -91 
Q 1150 -91 751 415 
Q 353 922 353 1747 
Q 353 2572 751 3078 
Q 1150 3584 1784 3584 
Q 2172 3584 2448 3432 
Q 2725 3281 2906 2969 
z
M 947 1747 
Q 947 1113 1208 752 
Q 1469 391 1925 391 
Q 2381 391 2643 752 
Q 2906 1113 2906 1747 
Q 2906 2381 2643 2742 
Q 2381 3103 1925 3103 
Q 1469 3103 1208 2742 
Q 947 2381 947 1747 
z
" transform="scale(0.015625)"/>
       <path id="DejaVuSans-6f" d="M 1959 3097 
Q 1497 3097 1228 2736 
Q 959 2375 959 1747 
Q 959 1119 1226 758 
Q 1494 397 1959 397 
Q 2419 397 2687 759 
Q 2956 1122 2956 1747 
Q 2956 2369 2687 2733 
Q 2419 3097 1959 3097 
z
M 1959 3584 
Q 2709 3584 3137 3096 
Q 3566 2609 3566 1747 
Q 3566 888 3137 398 
Q 2709 -91 1959 -91 
Q 1206 -91 779 398 
Q 353 888 353 1747 
Q 353 2609 779 3096 
Q 1206 3584 1959 3584 
z
" transform="scale(0.015625)"/>
      </defs>
      <use xlink:href="#DejaVuSans-66"/>
      <use xlink:href="#DejaVuSans-64" x="35.205078"/>
      <use xlink:href="#DejaVuSans-6f" x="98.681641"/>
      <use xlink:href="#DejaVuSans-73" x="159.863281"/>
     </g>
    </g>
   </g>
  </g>
 </g>
 <defs>
  <clipPath id="pdfca46114f">
   <rect x="585" y="129.6" width="3627" height="831.6"/>
  </clipPath>
 </defs>
</svg>
