<?xml version="1.0" encoding="utf-8" standalone="no"?>
<!DOCTYPE svg PUBLIC "-//W3C//DTD SVG 1.1//EN"
  "http://www.w3.org/Graphics/SVG/1.1/DTD/svg11.dtd">
<svg xmlns:xlink="http://www.w3.org/1999/xlink" width="4680pt" height="1080pt" viewBox="0 0 4680 1080" xmlns="http://www.w3.org/2000/svg" version="1.1">
 <metadata>
  <rdf:RDF xmlns:dc="http://purl.org/dc/elements/1.1/" xmlns:cc="http://creativecommons.org/ns#" xmlns:rdf="http://www.w3.org/1999/02/22-rdf-syntax-ns#">
   <cc:Work>
    <dc:type rdf:resource="http://purl.org/dc/dcmitype/StillImage"/>
    <dc:date>2024-03-20T10:33:10.588143</dc:date>
    <dc:format>image/svg+xml</dc:format>
    <dc:creator>
     <cc:Agent>
      <dc:title>Matplotlib v3.7.2, https://matplotlib.org/</dc:title>
     </cc:Agent>
    </dc:creator>
   </cc:Work>
  </rdf:RDF>
 </metadata>
 <defs>
  <style type="text/css">*{stroke-linejoin: round; stroke-linecap: butt}</style>
 </defs>
 <g id="figure_1">
  <g id="patch_1">
   <path d="M 0 1080 
L 4680 1080 
L 4680 0 
L 0 0 
z
" style="fill: #ffffff"/>
  </g>
  <g id="axes_1">
   <g id="patch_2">
    <path d="M 585 961.2 
L 4212 961.2 
L 4212 129.6 
L 585 129.6 
z
" style="fill: #ffffff"/>
   </g>
   <g id="matplotlib.axis_1">
    <g id="xtick_1">
     <g id="line2d_1">
      <defs>
       <path id="m99f7c166f3" d="M 0 0 
L 0 3.5 
" style="stroke: #000000; stroke-width: 0.8"/>
      </defs>
      <g>
       <use xlink:href="#m99f7c166f3" x="711.411476" y="961.2" style="stroke: #000000; stroke-width: 0.8"/>
      </g>
     </g>
     <g id="text_1">
      <!-- 2012 -->
      <g transform="translate(685.961476 983.396875) scale(0.2 -0.2)">
       <defs>
        <path id="DejaVuSans-32" d="M 1228 531 
L 3431 531 
L 3431 0 
L 469 0 
L 469 531 
Q 828 903 1448 1529 
Q 2069 2156 2228 2338 
Q 2531 2678 2651 2914 
Q 2772 3150 2772 3378 
Q 2772 3750 2511 3984 
Q 2250 4219 1831 4219 
Q 1534 4219 1204 4116 
Q 875 4013 500 3803 
L 500 4441 
Q 881 4594 1212 4672 
Q 1544 4750 1819 4750 
Q 2544 4750 2975 4387 
Q 3406 4025 3406 3419 
Q 3406 3131 3298 2873 
Q 3191 2616 2906 2266 
Q 2828 2175 2409 1742 
Q 1991 1309 1228 531 
z
" transform="scale(0.015625)"/>
        <path id="DejaVuSans-30" d="M 2034 4250 
Q 1547 4250 1301 3770 
Q 1056 3291 1056 2328 
Q 1056 1369 1301 889 
Q 1547 409 2034 409 
Q 2525 409 2770 889 
Q 3016 1369 3016 2328 
Q 3016 3291 2770 3770 
Q 2525 4250 2034 4250 
z
M 2034 4750 
Q 2819 4750 3233 4129 
Q 3647 3509 3647 2328 
Q 3647 1150 3233 529 
Q 2819 -91 2034 -91 
Q 1250 -91 836 529 
Q 422 1150 422 2328 
Q 422 3509 836 4129 
Q 1250 4750 2034 4750 
z
" transform="scale(0.015625)"/>
        <path id="DejaVuSans-31" d="M 794 531 
L 1825 531 
L 1825 4091 
L 703 3866 
L 703 4441 
L 1819 4666 
L 2450 4666 
L 2450 531 
L 3481 531 
L 3481 0 
L 794 0 
L 794 531 
z
" transform="scale(0.015625)"/>
       </defs>
       <use xlink:href="#DejaVuSans-32"/>
       <use xlink:href="#DejaVuSans-30" x="63.623047"/>
       <use xlink:href="#DejaVuSans-31" x="127.246094"/>
       <use xlink:href="#DejaVuSans-32" x="190.869141"/>
      </g>
     </g>
    </g>
    <g id="xtick_2">
     <g id="line2d_2">
      <g>
       <use xlink:href="#m99f7c166f3" x="1415.086006" y="961.2" style="stroke: #000000; stroke-width: 0.8"/>
      </g>
     </g>
     <g id="text_2">
      <!-- 2013 -->
      <g transform="translate(1389.636006 983.396875) scale(0.2 -0.2)">
       <defs>
        <path id="DejaVuSans-33" d="M 2597 2516 
Q 3050 2419 3304 2112 
Q 3559 1806 3559 1356 
Q 3559 666 3084 287 
Q 2609 -91 1734 -91 
Q 1441 -91 1130 -33 
Q 819 25 488 141 
L 488 750 
Q 750 597 1062 519 
Q 1375 441 1716 441 
Q 2309 441 2620 675 
Q 2931 909 2931 1356 
Q 2931 1769 2642 2001 
Q 2353 2234 1838 2234 
L 1294 2234 
L 1294 2753 
L 1863 2753 
Q 2328 2753 2575 2939 
Q 2822 3125 2822 3475 
Q 2822 3834 2567 4026 
Q 2313 4219 1838 4219 
Q 1578 4219 1281 4162 
Q 984 4106 628 3988 
L 628 4550 
Q 988 4650 1302 4700 
Q 1616 4750 1894 4750 
Q 2613 4750 3031 4423 
Q 3450 4097 3450 3541 
Q 3450 3153 3228 2886 
Q 3006 2619 2597 2516 
z
" transform="scale(0.015625)"/>
       </defs>
       <use xlink:href="#DejaVuSans-32"/>
       <use xlink:href="#DejaVuSans-30" x="63.623047"/>
       <use xlink:href="#DejaVuSans-31" x="127.246094"/>
       <use xlink:href="#DejaVuSans-33" x="190.869141"/>
      </g>
     </g>
    </g>
    <g id="xtick_3">
     <g id="line2d_3">
      <g>
       <use xlink:href="#m99f7c166f3" x="2116.837927" y="961.2" style="stroke: #000000; stroke-width: 0.8"/>
      </g>
     </g>
     <g id="text_3">
      <!-- 2014 -->
      <g transform="translate(2091.387927 983.396875) scale(0.2 -0.2)">
       <defs>
        <path id="DejaVuSans-34" d="M 2419 4116 
L 825 1625 
L 2419 1625 
L 2419 4116 
z
M 2253 4666 
L 3047 4666 
L 3047 1625 
L 3713 1625 
L 3713 1100 
L 3047 1100 
L 3047 0 
L 2419 0 
L 2419 1100 
L 313 1100 
L 313 1709 
L 2253 4666 
z
" transform="scale(0.015625)"/>
       </defs>
       <use xlink:href="#DejaVuSans-32"/>
       <use xlink:href="#DejaVuSans-30" x="63.623047"/>
       <use xlink:href="#DejaVuSans-31" x="127.246094"/>
       <use xlink:href="#DejaVuSans-34" x="190.869141"/>
      </g>
     </g>
    </g>
    <g id="xtick_4">
     <g id="line2d_4">
      <g>
       <use xlink:href="#m99f7c166f3" x="2818.589849" y="961.2" style="stroke: #000000; stroke-width: 0.8"/>
      </g>
     </g>
     <g id="text_4">
      <!-- 2015 -->
      <g transform="translate(2793.139849 983.396875) scale(0.2 -0.2)">
       <defs>
        <path id="DejaVuSans-35" d="M 691 4666 
L 3169 4666 
L 3169 4134 
L 1269 4134 
L 1269 2991 
Q 1406 3038 1543 3061 
Q 1681 3084 1819 3084 
Q 2600 3084 3056 2656 
Q 3513 2228 3513 1497 
Q 3513 744 3044 326 
Q 2575 -91 1722 -91 
Q 1428 -91 1123 -41 
Q 819 9 494 109 
L 494 744 
Q 775 591 1075 516 
Q 1375 441 1709 441 
Q 2250 441 2565 725 
Q 2881 1009 2881 1497 
Q 2881 1984 2565 2268 
Q 2250 2553 1709 2553 
Q 1456 2553 1204 2497 
Q 953 2441 691 2322 
L 691 4666 
z
" transform="scale(0.015625)"/>
       </defs>
       <use xlink:href="#DejaVuSans-32"/>
       <use xlink:href="#DejaVuSans-30" x="63.623047"/>
       <use xlink:href="#DejaVuSans-31" x="127.246094"/>
       <use xlink:href="#DejaVuSans-35" x="190.869141"/>
      </g>
     </g>
    </g>
    <g id="xtick_5">
     <g id="line2d_5">
      <g>
       <use xlink:href="#m99f7c166f3" x="3520.34177" y="961.2" style="stroke: #000000; stroke-width: 0.8"/>
      </g>
     </g>
     <g id="text_5">
      <!-- 2016 -->
      <g transform="translate(3494.89177 983.396875) scale(0.2 -0.2)">
       <defs>
        <path id="DejaVuSans-36" d="M 2113 2584 
Q 1688 2584 1439 2293 
Q 1191 2003 1191 1497 
Q 1191 994 1439 701 
Q 1688 409 2113 409 
Q 2538 409 2786 701 
Q 3034 994 3034 1497 
Q 3034 2003 2786 2293 
Q 2538 2584 2113 2584 
z
M 3366 4563 
L 3366 3988 
Q 3128 4100 2886 4159 
Q 2644 4219 2406 4219 
Q 1781 4219 1451 3797 
Q 1122 3375 1075 2522 
Q 1259 2794 1537 2939 
Q 1816 3084 2150 3084 
Q 2853 3084 3261 2657 
Q 3669 2231 3669 1497 
Q 3669 778 3244 343 
Q 2819 -91 2113 -91 
Q 1303 -91 875 529 
Q 447 1150 447 2328 
Q 447 3434 972 4092 
Q 1497 4750 2381 4750 
Q 2619 4750 2861 4703 
Q 3103 4656 3366 4563 
z
" transform="scale(0.015625)"/>
       </defs>
       <use xlink:href="#DejaVuSans-32"/>
       <use xlink:href="#DejaVuSans-30" x="63.623047"/>
       <use xlink:href="#DejaVuSans-31" x="127.246094"/>
       <use xlink:href="#DejaVuSans-36" x="190.869141"/>
      </g>
     </g>
    </g>
    <g id="text_6">
     <!-- Time -->
     <g transform="translate(2374.032813 1006.753125) scale(0.2 -0.2)">
      <defs>
       <path id="DejaVuSans-54" d="M -19 4666 
L 3928 4666 
L 3928 4134 
L 2272 4134 
L 2272 0 
L 1638 0 
L 1638 4134 
L -19 4134 
L -19 4666 
z
" transform="scale(0.015625)"/>
       <path id="DejaVuSans-69" d="M 603 3500 
L 1178 3500 
L 1178 0 
L 603 0 
L 603 3500 
z
M 603 4863 
L 1178 4863 
L 1178 4134 
L 603 4134 
L 603 4863 
z
" transform="scale(0.015625)"/>
       <path id="DejaVuSans-6d" d="M 3328 2828 
Q 3544 3216 3844 3400 
Q 4144 3584 4550 3584 
Q 5097 3584 5394 3201 
Q 5691 2819 5691 2113 
L 5691 0 
L 5113 0 
L 5113 2094 
Q 5113 2597 4934 2840 
Q 4756 3084 4391 3084 
Q 3944 3084 3684 2787 
Q 3425 2491 3425 1978 
L 3425 0 
L 2847 0 
L 2847 2094 
Q 2847 2600 2669 2842 
Q 2491 3084 2119 3084 
Q 1678 3084 1418 2786 
Q 1159 2488 1159 1978 
L 1159 0 
L 581 0 
L 581 3500 
L 1159 3500 
L 1159 2956 
Q 1356 3278 1631 3431 
Q 1906 3584 2284 3584 
Q 2666 3584 2933 3390 
Q 3200 3197 3328 2828 
z
" transform="scale(0.015625)"/>
       <path id="DejaVuSans-65" d="M 3597 1894 
L 3597 1613 
L 953 1613 
Q 991 1019 1311 708 
Q 1631 397 2203 397 
Q 2534 397 2845 478 
Q 3156 559 3463 722 
L 3463 178 
Q 3153 47 2828 -22 
Q 2503 -91 2169 -91 
Q 1331 -91 842 396 
Q 353 884 353 1716 
Q 353 2575 817 3079 
Q 1281 3584 2069 3584 
Q 2775 3584 3186 3129 
Q 3597 2675 3597 1894 
z
M 3022 2063 
Q 3016 2534 2758 2815 
Q 2500 3097 2075 3097 
Q 1594 3097 1305 2825 
Q 1016 2553 972 2059 
L 3022 2063 
z
" transform="scale(0.015625)"/>
      </defs>
      <use xlink:href="#DejaVuSans-54"/>
      <use xlink:href="#DejaVuSans-69" x="57.958984"/>
      <use xlink:href="#DejaVuSans-6d" x="85.742188"/>
      <use xlink:href="#DejaVuSans-65" x="183.154297"/>
     </g>
    </g>
   </g>
   <g id="matplotlib.axis_2">
    <g id="ytick_1">
     <g id="line2d_6">
      <defs>
       <path id="m36455a7b26" d="M 0 0 
L -3.5 0 
" style="stroke: #000000; stroke-width: 0.8"/>
      </defs>
      <g>
       <use xlink:href="#m36455a7b26" x="585" y="940.19939" style="stroke: #000000; stroke-width: 0.8"/>
      </g>
     </g>
     <g id="text_7">
      <!-- −0.006 -->
      <g transform="translate(503.984375 947.797828) scale(0.2 -0.2)">
       <defs>
        <path id="DejaVuSans-2212" d="M 678 2272 
L 4684 2272 
L 4684 1741 
L 678 1741 
L 678 2272 
z
" transform="scale(0.015625)"/>
        <path id="DejaVuSans-2e" d="M 684 794 
L 1344 794 
L 1344 0 
L 684 0 
L 684 794 
z
" transform="scale(0.015625)"/>
       </defs>
       <use xlink:href="#DejaVuSans-2212"/>
       <use xlink:href="#DejaVuSans-30" x="83.789062"/>
       <use xlink:href="#DejaVuSans-2e" x="147.412109"/>
       <use xlink:href="#DejaVuSans-30" x="179.199219"/>
       <use xlink:href="#DejaVuSans-30" x="242.822266"/>
       <use xlink:href="#DejaVuSans-36" x="306.445312"/>
      </g>
     </g>
    </g>
    <g id="ytick_2">
     <g id="line2d_7">
      <g>
       <use xlink:href="#m36455a7b26" x="585" y="798.901215" style="stroke: #000000; stroke-width: 0.8"/>
      </g>
     </g>
     <g id="text_8">
      <!-- −0.004 -->
      <g transform="translate(503.984375 806.499653) scale(0.2 -0.2)">
       <use xlink:href="#DejaVuSans-2212"/>
       <use xlink:href="#DejaVuSans-30" x="83.789062"/>
       <use xlink:href="#DejaVuSans-2e" x="147.412109"/>
       <use xlink:href="#DejaVuSans-30" x="179.199219"/>
       <use xlink:href="#DejaVuSans-30" x="242.822266"/>
       <use xlink:href="#DejaVuSans-34" x="306.445312"/>
      </g>
     </g>
    </g>
    <g id="ytick_3">
     <g id="line2d_8">
      <g>
       <use xlink:href="#m36455a7b26" x="585" y="657.60304" style="stroke: #000000; stroke-width: 0.8"/>
      </g>
     </g>
     <g id="text_9">
      <!-- −0.002 -->
      <g transform="translate(503.984375 665.201478) scale(0.2 -0.2)">
       <use xlink:href="#DejaVuSans-2212"/>
       <use xlink:href="#DejaVuSans-30" x="83.789062"/>
       <use xlink:href="#DejaVuSans-2e" x="147.412109"/>
       <use xlink:href="#DejaVuSans-30" x="179.199219"/>
       <use xlink:href="#DejaVuSans-30" x="242.822266"/>
       <use xlink:href="#DejaVuSans-32" x="306.445312"/>
      </g>
     </g>
    </g>
    <g id="ytick_4">
     <g id="line2d_9">
      <g>
       <use xlink:href="#m36455a7b26" x="585" y="516.304866" style="stroke: #000000; stroke-width: 0.8"/>
      </g>
     </g>
     <g id="text_10">
      <!-- 0.000 -->
      <g transform="translate(520.74375 523.903303) scale(0.2 -0.2)">
       <use xlink:href="#DejaVuSans-30"/>
       <use xlink:href="#DejaVuSans-2e" x="63.623047"/>
       <use xlink:href="#DejaVuSans-30" x="95.410156"/>
       <use xlink:href="#DejaVuSans-30" x="159.033203"/>
       <use xlink:href="#DejaVuSans-30" x="222.65625"/>
      </g>
     </g>
    </g>
    <g id="ytick_5">
     <g id="line2d_10">
      <g>
       <use xlink:href="#m36455a7b26" x="585" y="375.006691" style="stroke: #000000; stroke-width: 0.8"/>
      </g>
     </g>
     <g id="text_11">
      <!-- 0.002 -->
      <g transform="translate(520.74375 382.605128) scale(0.2 -0.2)">
       <use xlink:href="#DejaVuSans-30"/>
       <use xlink:href="#DejaVuSans-2e" x="63.623047"/>
       <use xlink:href="#DejaVuSans-30" x="95.410156"/>
       <use xlink:href="#DejaVuSans-30" x="159.033203"/>
       <use xlink:href="#DejaVuSans-32" x="222.65625"/>
      </g>
     </g>
    </g>
    <g id="ytick_6">
     <g id="line2d_11">
      <g>
       <use xlink:href="#m36455a7b26" x="585" y="233.708516" style="stroke: #000000; stroke-width: 0.8"/>
      </g>
     </g>
     <g id="text_12">
      <!-- 0.004 -->
      <g transform="translate(520.74375 241.306953) scale(0.2 -0.2)">
       <use xlink:href="#DejaVuSans-30"/>
       <use xlink:href="#DejaVuSans-2e" x="63.623047"/>
       <use xlink:href="#DejaVuSans-30" x="95.410156"/>
       <use xlink:href="#DejaVuSans-30" x="159.033203"/>
       <use xlink:href="#DejaVuSans-34" x="222.65625"/>
      </g>
     </g>
    </g>
    <g id="text_13">
     <!-- East(m) -->
     <g transform="translate(495.825 584.520313) rotate(-90) scale(0.2 -0.2)">
      <defs>
       <path id="DejaVuSans-45" d="M 628 4666 
L 3578 4666 
L 3578 4134 
L 1259 4134 
L 1259 2753 
L 3481 2753 
L 3481 2222 
L 1259 2222 
L 1259 531 
L 3634 531 
L 3634 0 
L 628 0 
L 628 4666 
z
" transform="scale(0.015625)"/>
       <path id="DejaVuSans-61" d="M 2194 1759 
Q 1497 1759 1228 1600 
Q 959 1441 959 1056 
Q 959 750 1161 570 
Q 1363 391 1709 391 
Q 2188 391 2477 730 
Q 2766 1069 2766 1631 
L 2766 1759 
L 2194 1759 
z
M 3341 1997 
L 3341 0 
L 2766 0 
L 2766 531 
Q 2569 213 2275 61 
Q 1981 -91 1556 -91 
Q 1019 -91 701 211 
Q 384 513 384 1019 
Q 384 1609 779 1909 
Q 1175 2209 1959 2209 
L 2766 2209 
L 2766 2266 
Q 2766 2663 2505 2880 
Q 2244 3097 1772 3097 
Q 1472 3097 1187 3025 
Q 903 2953 641 2809 
L 641 3341 
Q 956 3463 1253 3523 
Q 1550 3584 1831 3584 
Q 2591 3584 2966 3190 
Q 3341 2797 3341 1997 
z
" transform="scale(0.015625)"/>
       <path id="DejaVuSans-73" d="M 2834 3397 
L 2834 2853 
Q 2591 2978 2328 3040 
Q 2066 3103 1784 3103 
Q 1356 3103 1142 2972 
Q 928 2841 928 2578 
Q 928 2378 1081 2264 
Q 1234 2150 1697 2047 
L 1894 2003 
Q 2506 1872 2764 1633 
Q 3022 1394 3022 966 
Q 3022 478 2636 193 
Q 2250 -91 1575 -91 
Q 1294 -91 989 -36 
Q 684 19 347 128 
L 347 722 
Q 666 556 975 473 
Q 1284 391 1588 391 
Q 1994 391 2212 530 
Q 2431 669 2431 922 
Q 2431 1156 2273 1281 
Q 2116 1406 1581 1522 
L 1381 1569 
Q 847 1681 609 1914 
Q 372 2147 372 2553 
Q 372 3047 722 3315 
Q 1072 3584 1716 3584 
Q 2034 3584 2315 3537 
Q 2597 3491 2834 3397 
z
" transform="scale(0.015625)"/>
       <path id="DejaVuSans-74" d="M 1172 4494 
L 1172 3500 
L 2356 3500 
L 2356 3053 
L 1172 3053 
L 1172 1153 
Q 1172 725 1289 603 
Q 1406 481 1766 481 
L 2356 481 
L 2356 0 
L 1766 0 
Q 1100 0 847 248 
Q 594 497 594 1153 
L 594 3053 
L 172 3053 
L 172 3500 
L 594 3500 
L 594 4494 
L 1172 4494 
z
" transform="scale(0.015625)"/>
       <path id="DejaVuSans-28" d="M 1984 4856 
Q 1566 4138 1362 3434 
Q 1159 2731 1159 2009 
Q 1159 1288 1364 580 
Q 1569 -128 1984 -844 
L 1484 -844 
Q 1016 -109 783 600 
Q 550 1309 550 2009 
Q 550 2706 781 3412 
Q 1013 4119 1484 4856 
L 1984 4856 
z
" transform="scale(0.015625)"/>
       <path id="DejaVuSans-29" d="M 513 4856 
L 1013 4856 
Q 1481 4119 1714 3412 
Q 1947 2706 1947 2009 
Q 1947 1309 1714 600 
Q 1481 -109 1013 -844 
L 513 -844 
Q 928 -128 1133 580 
Q 1338 1288 1338 2009 
Q 1338 2731 1133 3434 
Q 928 4138 513 4856 
z
" transform="scale(0.015625)"/>
      </defs>
      <use xlink:href="#DejaVuSans-45"/>
      <use xlink:href="#DejaVuSans-61" x="63.183594"/>
      <use xlink:href="#DejaVuSans-73" x="124.462891"/>
      <use xlink:href="#DejaVuSans-74" x="176.5625"/>
      <use xlink:href="#DejaVuSans-28" x="215.771484"/>
      <use xlink:href="#DejaVuSans-6d" x="254.785156"/>
      <use xlink:href="#DejaVuSans-29" x="352.197266"/>
     </g>
    </g>
   </g>
   <g id="line2d_12">
    <path d="M 749.863636 365.548452 
L 751.786244 367.513041 
L 753.708852 337.108581 
L 755.63146 321.994445 
L 757.554068 323.065619 
L 759.476676 328.627688 
L 761.399284 313.312652 
L 763.321892 322.147493 
L 765.2445 304.916594 
L 767.167108 314.358544 
L 769.089716 327.178569 
L 771.012324 325.798549 
L 772.934932 323.636606 
L 774.85754 302.652949 
L 776.780148 306.976231 
L 778.702756 309.142635 
L 780.625364 298.860691 
L 782.547972 283.556869 
L 784.47058 276.701361 
L 786.393188 289.198001 
L 788.315796 312.782362 
L 790.238404 304.803862 
L 792.161012 313.426911 
L 794.08362 323.939655 
L 796.006228 350.472524 
L 797.928836 389.551414 
L 799.851444 385.088961 
L 801.774052 383.383834 
L 803.69666 383.679706 
L 805.619268 387.947633 
L 807.541876 376.633404 
L 815.232309 327.403641 
L 817.154917 338.123658 
L 821.000133 342.813913 
L 822.922741 373.240545 
L 824.845349 365.14752 
L 826.767957 361.020397 
L 828.690565 376.92242 
L 830.613173 373.771268 
L 832.535781 377.442535 
L 834.458389 399.662481 
L 836.380997 398.300434 
L 838.303605 412.145984 
L 840.226213 417.385214 
L 842.148821 409.033594 
L 844.071429 412.320119 
L 845.994037 437.077997 
L 847.916645 459.548751 
L 849.839253 476.607539 
L 853.684469 540.689748 
L 855.607077 551.631512 
L 857.529685 574.441409 
L 859.452293 582.492884 
L 861.374901 564.422393 
L 865.220117 505.708513 
L 867.142725 488.329957 
L 869.065333 489.867774 
L 870.987941 480.993176 
L 872.910549 466.00087 
L 874.833157 474.195617 
L 878.678373 559.980453 
L 880.600981 569.653421 
L 882.523589 541.302785 
L 884.446197 545.615301 
L 890.214021 546.641913 
L 892.136629 527.230118 
L 894.059237 510.309571 
L 895.981845 525.267073 
L 897.904453 518.869455 
L 899.827061 539.425677 
L 901.749669 530.660985 
L 903.672277 546.010039 
L 905.594885 543.774412 
L 907.517493 545.835688 
L 909.440101 561.01309 
L 911.362709 561.337666 
L 913.285317 557.481485 
L 917.130533 549.292673 
L 919.053141 555.846107 
L 920.975749 558.614241 
L 922.898357 555.904832 
L 924.820965 551.694379 
L 926.743573 552.623841 
L 928.666181 554.794886 
L 932.511397 530.657495 
L 934.434005 514.476322 
L 936.356613 510.031275 
L 938.279221 515.90762 
L 949.814869 575.402385 
L 955.582693 622.223636 
L 957.505301 613.20783 
L 959.427909 615.823608 
L 961.350517 607.161083 
L 969.040949 655.990429 
L 974.808773 697.047401 
L 976.731381 695.839972 
L 978.653989 691.829914 
L 980.576597 690.715387 
L 984.421813 676.402382 
L 986.344421 637.37812 
L 988.267029 605.257054 
L 990.189637 635.129561 
L 992.112245 662.184342 
L 995.957461 648.013405 
L 997.880069 639.795405 
L 999.802677 666.069011 
L 1001.725285 696.084343 
L 1007.493109 604.235028 
L 1009.415717 617.228487 
L 1011.338325 621.664271 
L 1013.260933 618.00544 
L 1015.183541 600.709614 
L 1017.106149 595.482642 
L 1019.028757 622.878953 
L 1020.951365 628.527749 
L 1022.873973 615.302498 
L 1024.796581 605.773724 
L 1026.719189 585.767777 
L 1028.641797 587.336768 
L 1030.564405 587.64933 
L 1034.409621 528.841519 
L 1036.332229 538.746992 
L 1038.254837 561.002755 
L 1042.100053 646.367787 
L 1053.635701 701.97372 
L 1057.480917 670.046759 
L 1159.379141 683.107753 
L 1161.301749 677.27796 
L 1163.224357 695.136446 
L 1318.955606 298.21229 
L 1320.878214 288.129021 
L 1322.800822 290.608064 
L 1332.413862 290.904949 
L 1336.259078 309.064495 
L 1338.181686 330.888867 
L 1340.104294 354.761042 
L 1342.026902 350.493549 
L 1343.94951 346.652333 
L 1345.872118 331.47966 
L 1347.794726 295.426665 
L 1365.098198 362.920332 
L 1368.943414 363.942707 
L 1415.086006 307.326889 
L 1417.008614 313.168869 
L 1424.699046 434.650697 
L 1426.621654 435.577204 
L 1428.544262 446.56782 
L 1430.46687 477.350583 
L 1432.389478 491.374896 
L 1434.312086 460.605908 
L 1436.234694 400.797898 
L 1438.157302 391.859925 
L 1442.002518 406.76075 
L 1470.841638 455.155669 
L 1472.764246 471.158987 
L 1474.686854 486.166444 
L 1476.609462 477.843905 
L 1480.454678 474.247786 
L 1482.377286 489.645572 
L 1484.299894 481.886956 
L 1486.222502 469.255565 
L 1490.067718 472.855476 
L 1491.990326 467.260848 
L 1499.680758 463.816364 
L 1501.603366 458.547201 
L 1503.525974 468.700125 
L 1509.293798 471.78564 
L 1511.216406 468.386646 
L 1513.139014 457.633162 
L 1515.061622 466.181169 
L 1516.98423 467.89502 
L 1520.829446 457.318873 
L 1522.752054 457.253677 
L 1524.674662 449.556604 
L 1528.519878 438.356085 
L 1530.442486 425.656534 
L 1532.365094 410.008509 
L 1540.055526 381.519658 
L 1541.978134 361.1072 
L 1543.900742 369.21596 
L 1545.82335 368.559162 
L 1549.668566 336.727484 
L 1551.591174 370.906826 
L 1553.513782 363.064744 
L 1555.43639 373.958838 
L 1557.358998 371.602165 
L 1559.281606 375.696504 
L 1563.126822 398.736824 
L 1565.04943 398.547029 
L 1566.972038 361.089814 
L 1568.894646 359.29432 
L 1572.739862 371.603781 
L 1574.66247 369.318612 
L 1576.585078 388.593283 
L 1578.507686 392.972441 
L 1580.430294 455.427615 
L 1582.352902 464.697135 
L 1584.27551 426.547274 
L 1586.198118 424.141837 
L 1588.120726 397.602125 
L 1593.88855 326.7709 
L 1640.031142 452.951767 
L 1641.95375 454.094476 
L 1643.876358 477.224107 
L 1647.721574 486.404594 
L 1649.644182 465.897023 
L 1653.489398 480.132049 
L 1655.412006 486.692935 
L 1657.334614 474.62139 
L 1665.025046 443.761961 
L 1666.947654 466.235462 
L 1668.870262 496.315884 
L 1672.715478 544.995578 
L 1674.638086 573.667734 
L 1676.560694 600.283163 
L 1678.483302 612.941758 
L 1680.40591 588.794629 
L 1684.251126 556.683957 
L 1686.173734 551.355962 
L 1691.941558 581.156548 
L 1693.864166 597.548529 
L 1695.786774 619.099469 
L 1697.709382 616.929877 
L 1699.63199 616.54155 
L 1701.554598 605.411686 
L 1703.477206 567.61393 
L 1722.703287 668.379365 
L 1724.625895 657.600696 
L 1726.548503 669.007429 
L 1728.471111 690.103046 
L 1730.393719 694.886482 
L 1732.316327 694.231467 
L 1734.238935 693.209853 
L 1736.161543 685.781644 
L 1738.084151 730.969469 
L 1740.006759 734.815336 
L 1743.851975 766.768335 
L 1745.774583 795.372323 
L 1751.542407 795.07829 
L 1753.465015 834.818343 
L 1755.387623 808.220474 
L 1759.232839 788.994818 
L 1761.155447 782.251738 
L 1765.000663 794.301769 
L 1766.923271 774.318989 
L 1772.691095 777.185225 
L 1774.613703 769.309083 
L 1776.536311 794.202094 
L 1782.304135 850.075592 
L 1784.226743 858.58061 
L 1786.149351 850.801815 
L 1788.071959 876.365783 
L 1789.994567 874.916153 
L 1801.530215 923.4 
L 1805.375431 916.71589 
L 1807.298039 889.359499 
L 1809.220647 884.71498 
L 1811.143255 866.314801 
L 1813.065863 878.373586 
L 1816.911079 911.262607 
L 1818.833687 917.729552 
L 1820.756295 921.914481 
L 1822.678903 901.96676 
L 1824.601511 897.392609 
L 1830.369335 877.345258 
L 1832.291943 866.325624 
L 1834.214551 858.401531 
L 1836.137159 864.12156 
L 1838.059767 865.74653 
L 1839.982375 852.520883 
L 1841.904983 829.989505 
L 1845.750199 793.362481 
L 1847.672807 771.82973 
L 1859.208455 650.364407 
L 1861.131063 628.525712 
L 1863.053671 660.11697 
L 1864.976279 674.863961 
L 1866.898887 667.638604 
L 1868.821495 686.943276 
L 1870.744103 647.204733 
L 1872.666711 618.622741 
L 1874.589319 599.117391 
L 1876.511927 588.240601 
L 1878.434535 579.897799 
L 1880.357143 589.331436 
L 1884.202359 571.689024 
L 1886.124967 569.056097 
L 1888.047575 591.672832 
L 1891.892791 543.279122 
L 1893.815399 515.878645 
L 1895.738007 524.120812 
L 1899.583223 523.168647 
L 1901.505831 532.059592 
L 1903.428439 525.951649 
L 1905.351047 507.812911 
L 1907.273655 517.907097 
L 1909.196263 488.970838 
L 1911.118871 480.8273 
L 1913.041479 458.855932 
L 1914.964087 439.911539 
L 2024.552743 199.380105 
L 2028.397959 196.939009 
L 2030.320567 210.400015 
L 2032.243175 213.879578 
L 2034.165783 194.945287 
L 2036.088391 219.077961 
L 2038.010999 225.990502 
L 2039.933607 233.795381 
L 2049.546647 269.90012 
L 2051.469255 311.261673 
L 2057.237079 401.666145 
L 2059.159687 394.564811 
L 2061.082295 405.654395 
L 2063.004903 405.874381 
L 2064.927511 382.985607 
L 2068.772727 392.058576 
L 2137.986615 199.541416 
L 2139.909223 225.397932 
L 2143.754439 290.153015 
L 2145.677047 289.964612 
L 2172.59356 224.357867 
L 2255.265704 313.218974 
L 2257.188312 320.57517 
L 2261.033528 386.735132 
L 2262.956136 397.574921 
L 2264.878744 399.660735 
L 2266.801352 428.008195 
L 2268.72396 428.69255 
L 2270.646568 468.851446 
L 2272.569176 436.478285 
L 2274.491784 442.66192 
L 2276.414392 451.740017 
L 2282.182216 436.74013 
L 2314.866552 521.027972 
L 2316.78916 508.015121 
L 2328.324808 612.333999 
L 2330.247416 614.553415 
L 2332.170024 603.629269 
L 2334.092632 578.260759 
L 2355.24132 659.10999 
L 2485.978664 814.043258 
L 2487.901272 793.352674 
L 2489.82388 756.938855 
L 2491.746488 703.779805 
L 2495.591704 731.68586 
L 2512.895176 747.21169 
L 2747.453353 167.4 
L 2997.392393 487.620065 
L 2999.315001 500.955054 
L 3001.237609 493.747923 
L 3014.695865 606.917286 
L 3018.541081 626.881867 
L 3020.463689 666.774917 
L 3024.308905 649.996749 
L 3026.231513 667.90455 
L 3030.076729 675.598476 
L 3031.999337 686.192487 
L 3055.070633 669.778067 
L 3056.993241 665.051856 
L 3058.915849 712.364789 
L 3060.838457 709.437395 
L 3062.761065 721.081888 
L 3064.683673 740.688474 
L 3068.528889 774.625164 
L 3072.374105 729.74327 
L 3076.219321 704.172015 
L 3078.141929 693.104772 
L 3081.987146 651.873323 
L 3085.832362 692.040711 
L 3087.75497 718.459205 
L 3089.677578 735.656527 
L 3093.522794 712.364657 
L 3095.445402 730.436602 
L 3101.213226 666.336168 
L 3106.98105 717.162905 
L 3108.903658 693.287602 
L 3112.748874 733.211743 
L 3114.671482 744.963139 
L 3116.59409 760.314006 
L 3122.361914 790.084333 
L 3124.284522 812.143898 
L 3126.20713 803.397503 
L 3128.129738 806.790294 
L 3133.897562 862.379715 
L 3135.82017 844.903331 
L 3137.742778 810.375617 
L 3139.665386 810.628161 
L 3141.587994 792.810069 
L 3145.43321 725.20428 
L 3147.355818 705.957445 
L 3151.201034 726.356251 
L 3153.123642 704.975926 
L 3155.04625 718.832573 
L 3158.891466 749.059066 
L 3160.814074 755.003881 
L 3162.736682 752.276174 
L 3164.65929 774.023429 
L 3189.653194 842.235811 
L 3191.575802 841.026624 
L 3193.49841 788.974176 
L 3195.421018 754.485608 
L 3197.343626 737.14625 
L 3199.266234 751.894727 
L 3205.034058 784.33726 
L 3216.569706 891.198847 
L 3220.414922 871.643689 
L 3224.260138 779.432779 
L 3226.182746 741.718496 
L 3230.027962 670.092141 
L 3237.718394 625.932109 
L 3239.641002 670.599915 
L 3256.944474 651.195986 
L 3258.867082 660.973553 
L 3260.78969 657.196258 
L 3264.634906 672.497998 
L 3266.557514 658.871337 
L 3268.480122 628.425171 
L 3270.40273 635.216412 
L 3272.325338 641.215574 
L 3274.247946 620.906627 
L 3276.170554 594.337901 
L 3283.860986 613.207268 
L 3291.551418 721.076013 
L 3293.474026 737.8892 
L 3295.396634 723.429033 
L 3297.319242 734.375502 
L 3299.24185 708.115022 
L 3301.164458 662.320232 
L 3303.087066 638.972891 
L 3305.009674 612.079812 
L 3306.932282 594.772073 
L 3308.85489 609.692378 
L 3314.622714 589.147873 
L 3320.390538 687.528979 
L 3322.313146 694.664273 
L 3324.235754 673.664134 
L 3326.158362 669.31177 
L 3328.08097 688.451844 
L 3330.003578 635.154462 
L 3331.926186 614.105272 
L 3333.848794 594.811201 
L 3335.771402 557.722511 
L 3337.69401 570.413317 
L 3339.616618 555.962332 
L 3341.539226 518.381082 
L 3343.461834 512.963271 
L 3345.384442 495.298605 
L 3347.30705 479.89171 
L 3349.229658 469.908011 
L 3351.152266 457.557794 
L 3353.074874 472.027796 
L 3354.997482 480.023793 
L 3356.92009 468.202038 
L 3358.842698 461.00356 
L 3360.765306 440.283643 
L 3362.687914 431.60028 
L 3364.610522 397.47477 
L 3366.53313 383.939566 
L 3368.455738 382.153347 
L 3370.378346 388.427226 
L 3372.300954 413.958944 
L 3374.223562 447.551641 
L 3376.14617 459.345244 
L 3378.068778 477.466319 
L 3379.991386 467.901707 
L 3381.913994 449.212693 
L 3383.836602 441.516209 
L 3385.75921 426.563494 
L 3387.681818 404.806454 
L 3389.604426 425.101549 
L 3393.449642 449.186838 
L 3395.37225 462.936852 
L 3397.294858 466.600423 
L 3399.217466 450.625024 
L 3401.140074 442.579318 
L 3403.062682 427.321328 
L 3404.98529 424.226072 
L 3406.907898 433.656034 
L 3410.753114 434.661115 
L 3414.59833 472.374592 
L 3416.520938 485.044225 
L 3418.443546 474.947887 
L 3420.366154 456.351108 
L 3422.288762 451.993593 
L 3424.21137 457.294529 
L 3426.133978 479.494462 
L 3428.056586 477.18419 
L 3429.979194 480.892642 
L 3431.901802 494.636156 
L 3433.82441 502.589924 
L 3435.747018 481.287304 
L 3437.669626 453.55284 
L 3439.592234 440.912102 
L 3441.514842 440.009311 
L 3443.43745 418.930002 
L 3445.360058 400.917972 
L 3447.282666 390.619049 
L 3449.205274 417.871744 
L 3451.127882 427.676139 
L 3453.05049 411.82302 
L 3454.973098 397.714144 
L 3456.895706 396.563787 
L 3458.818314 393.898519 
L 3460.740922 385.732809 
L 3462.66353 381.231197 
L 3464.586138 392.515022 
L 3466.508746 399.357778 
L 3468.431354 408.995076 
L 3470.353962 410.986749 
L 3472.27657 404.184269 
L 3474.199178 396.081735 
L 3476.121786 382.327413 
L 3478.044394 374.025224 
L 3479.967002 394.319319 
L 3481.88961 391.179398 
L 3483.812218 389.796324 
L 3485.734826 388.151367 
L 3487.657434 396.410801 
L 3489.580042 411.903979 
L 3493.425258 393.441235 
L 3495.347866 385.009215 
L 3499.193082 391.086414 
L 3501.11569 403.757818 
L 3503.038298 401.85447 
L 3504.960906 395.300287 
L 3506.883514 376.151912 
L 3508.806122 388.423164 
L 3510.72873 373.096014 
L 3512.651338 381.739048 
L 3516.496554 378.892612 
L 3518.419162 375.640736 
L 3522.264378 387.622427 
L 3524.186986 378.533443 
L 3526.109594 367.098652 
L 3528.032202 360.943001 
L 3529.95481 364.148168 
L 3531.877418 380.587488 
L 3533.800027 368.51992 
L 3535.722635 365.832429 
L 3537.645243 371.212439 
L 3539.567851 380.432156 
L 3541.490459 372.916034 
L 3543.413067 341.809175 
L 3545.335675 325.959485 
L 3547.258283 333.457064 
L 3549.180891 334.390541 
L 3551.103499 330.466093 
L 3553.026107 350.255153 
L 3554.948715 359.201473 
L 3556.871323 389.175389 
L 3558.793931 392.748063 
L 3560.716539 386.73658 
L 3562.639147 396.344194 
L 3564.561755 413.638501 
L 3574.174795 400.951651 
L 3576.097403 403.25873 
L 3578.020011 407.634464 
L 3581.865227 408.665685 
L 3583.787835 416.112882 
L 3585.710443 419.401923 
L 3587.633051 384.957293 
L 3589.555659 384.364928 
L 3591.478267 353.700728 
L 3593.400875 351.959199 
L 3595.323483 356.612346 
L 3635.698251 343.553864 
L 3637.620859 358.488966 
L 3641.466075 347.835929 
L 3647.233899 370.158953 
L 3649.156507 351.548057 
L 3651.079115 341.900902 
L 3653.001723 359.933899 
L 3654.924331 363.201323 
L 3656.846939 357.79395 
L 3658.769547 369.463545 
L 3660.692155 342.609009 
L 3662.614763 347.011213 
L 3664.537371 341.793707 
L 3666.459979 340.918702 
L 3668.382587 331.177544 
L 3670.305195 339.324519 
L 3672.227803 340.299115 
L 3674.150411 360.071536 
L 3676.073019 354.842555 
L 3677.995627 372.319773 
L 3679.918235 373.813796 
L 3681.840843 387.06284 
L 3683.763451 367.777719 
L 3685.686059 372.374051 
L 3687.608667 400.394789 
L 3689.531275 426.515598 
L 3691.453883 420.403972 
L 3693.376491 410.654856 
L 3695.299099 419.899044 
L 3697.221707 416.960605 
L 3699.144315 411.875235 
L 3701.066923 372.475633 
L 3702.989531 381.098611 
L 3704.912139 403.949136 
L 3706.834747 438.586122 
L 3708.757355 427.18283 
L 3710.679963 466.937242 
L 3712.602571 476.261162 
L 3714.525179 494.739421 
L 3718.370395 485.174304 
L 3720.293003 473.206235 
L 3722.215611 505.400595 
L 3724.138219 512.578974 
L 3727.983435 577.726279 
L 3729.906043 586.883248 
L 3731.828651 614.207892 
L 3733.751259 622.173862 
L 3735.673867 624.877829 
L 3739.519083 632.057159 
L 3741.441691 607.744409 
L 3743.364299 612.366483 
L 3745.286907 597.716091 
L 3747.209515 584.98754 
L 3749.132123 565.033754 
L 3751.054731 552.515617 
L 3754.899947 503.834307 
L 3756.822555 488.43228 
L 3758.745163 508.760957 
L 3760.667771 521.439961 
L 3762.590379 554.317108 
L 3768.358203 577.992253 
L 3770.280811 592.689457 
L 3772.203419 585.061294 
L 3774.126027 565.394385 
L 3776.048635 565.956718 
L 3777.971243 589.696649 
L 3779.893851 640.370443 
L 3877.946859 806.097858 
L 3879.869467 796.723075 
L 3881.792075 749.846656 
L 3887.559899 726.769761 
L 3889.482507 725.272422 
L 3891.405115 720.347569 
L 3897.172939 721.76133 
L 3904.863371 745.146343 
L 3908.708587 778.920047 
L 3926.012059 791.953532 
L 3927.934667 770.484117 
L 3929.857275 750.503195 
L 3931.779883 689.556018 
L 3933.702491 659.330457 
L 3943.315531 651.298265 
L 3945.238139 708.140437 
L 3951.005963 745.646422 
L 3952.928571 712.156283 
L 3954.851179 709.371813 
L 3956.773787 696.887837 
L 3958.696395 650.950868 
L 3960.619003 657.61656 
L 3962.541611 651.336232 
L 3968.309435 657.173951 
L 3974.077259 659.360804 
L 3975.999867 663.735412 
L 3977.922475 633.935951 
L 3979.845083 644.247478 
L 3981.767691 632.099026 
L 3985.612908 645.303522 
L 3987.535516 627.433509 
L 3989.458124 644.766602 
L 3991.380732 668.787314 
L 4000.993772 623.759383 
L 4002.91638 582.289415 
L 4004.838988 565.419036 
L 4006.761596 574.439042 
L 4008.684204 555.398341 
L 4010.606812 554.132403 
L 4012.52942 545.84081 
L 4014.452028 548.35184 
L 4016.374636 573.676263 
L 4018.297244 577.650621 
L 4020.219852 587.503439 
L 4022.14246 585.178961 
L 4024.065068 577.324722 
L 4025.987676 578.99072 
L 4027.910284 575.639629 
L 4029.832892 547.919298 
L 4041.36854 509.263423 
L 4043.291148 521.572828 
L 4045.213756 536.049371 
L 4047.136364 530.021435 
L 4047.136364 530.021435 
" clip-path="url(#pb85c6d220f)" style="fill: none; stroke: #00d7ff; stroke-width: 2.5; stroke-linecap: square"/>
   </g>
   <g id="patch_3">
    <path d="M 585 961.2 
L 585 129.6 
" style="fill: none; stroke: #000000; stroke-width: 0.8; stroke-linejoin: miter; stroke-linecap: square"/>
   </g>
   <g id="patch_4">
    <path d="M 4212 961.2 
L 4212 129.6 
" style="fill: none; stroke: #000000; stroke-width: 0.8; stroke-linejoin: miter; stroke-linecap: square"/>
   </g>
   <g id="patch_5">
    <path d="M 585 961.2 
L 4212 961.2 
" style="fill: none; stroke: #000000; stroke-width: 0.8; stroke-linejoin: miter; stroke-linecap: square"/>
   </g>
   <g id="patch_6">
    <path d="M 585 129.6 
L 4212 129.6 
" style="fill: none; stroke: #000000; stroke-width: 0.8; stroke-linejoin: miter; stroke-linecap: square"/>
   </g>
   <g id="text_14">
    <!-- KOE2 -->
    <g transform="translate(2358.658594 123.360937) scale(0.3 -0.3)">
     <defs>
      <path id="DejaVuSans-4b" d="M 628 4666 
L 1259 4666 
L 1259 2694 
L 3353 4666 
L 4166 4666 
L 1850 2491 
L 4331 0 
L 3500 0 
L 1259 2247 
L 1259 0 
L 628 0 
L 628 4666 
z
" transform="scale(0.015625)"/>
      <path id="DejaVuSans-4f" d="M 2522 4238 
Q 1834 4238 1429 3725 
Q 1025 3213 1025 2328 
Q 1025 1447 1429 934 
Q 1834 422 2522 422 
Q 3209 422 3611 934 
Q 4013 1447 4013 2328 
Q 4013 3213 3611 3725 
Q 3209 4238 2522 4238 
z
M 2522 4750 
Q 3503 4750 4090 4092 
Q 4678 3434 4678 2328 
Q 4678 1225 4090 567 
Q 3503 -91 2522 -91 
Q 1538 -91 948 565 
Q 359 1222 359 2328 
Q 359 3434 948 4092 
Q 1538 4750 2522 4750 
z
" transform="scale(0.015625)"/>
     </defs>
     <use xlink:href="#DejaVuSans-4b"/>
     <use xlink:href="#DejaVuSans-4f" x="60.076172"/>
     <use xlink:href="#DejaVuSans-45" x="138.787109"/>
     <use xlink:href="#DejaVuSans-32" x="201.970703"/>
    </g>
   </g>
   <g id="legend_1">
    <g id="patch_7">
     <path d="M 4148.9375 152.278125 
L 4205 152.278125 
Q 4207 152.278125 4207 150.278125 
L 4207 136.6 
Q 4207 134.6 4205 134.6 
L 4148.9375 134.6 
Q 4146.9375 134.6 4146.9375 136.6 
L 4146.9375 150.278125 
Q 4146.9375 152.278125 4148.9375 152.278125 
z
" style="fill: #ffffff; opacity: 0.8; stroke: #cccccc; stroke-linejoin: miter"/>
    </g>
    <g id="line2d_13">
     <path d="M 4150.9375 142.698438 
L 4160.9375 142.698438 
L 4170.9375 142.698438 
" style="fill: none; stroke: #00d7ff; stroke-width: 2.5; stroke-linecap: square"/>
    </g>
    <g id="text_15">
     <!-- koe2 -->
     <g transform="translate(4178.9375 146.198438) scale(0.1 -0.1)">
      <defs>
       <path id="DejaVuSans-6b" d="M 581 4863 
L 1159 4863 
L 1159 1991 
L 2875 3500 
L 3609 3500 
L 1753 1863 
L 3688 0 
L 2938 0 
L 1159 1709 
L 1159 0 
L 581 0 
L 581 4863 
z
" transform="scale(0.015625)"/>
       <path id="DejaVuSans-6f" d="M 1959 3097 
Q 1497 3097 1228 2736 
Q 959 2375 959 1747 
Q 959 1119 1226 758 
Q 1494 397 1959 397 
Q 2419 397 2687 759 
Q 2956 1122 2956 1747 
Q 2956 2369 2687 2733 
Q 2419 3097 1959 3097 
z
M 1959 3584 
Q 2709 3584 3137 3096 
Q 3566 2609 3566 1747 
Q 3566 888 3137 398 
Q 2709 -91 1959 -91 
Q 1206 -91 779 398 
Q 353 888 353 1747 
Q 353 2609 779 3096 
Q 1206 3584 1959 3584 
z
" transform="scale(0.015625)"/>
      </defs>
      <use xlink:href="#DejaVuSans-6b"/>
      <use xlink:href="#DejaVuSans-6f" x="54.285156"/>
      <use xlink:href="#DejaVuSans-65" x="115.466797"/>
      <use xlink:href="#DejaVuSans-32" x="176.990234"/>
     </g>
    </g>
   </g>
  </g>
 </g>
 <defs>
  <clipPath id="pb85c6d220f">
   <rect x="585" y="129.6" width="3627" height="831.6"/>
  </clipPath>
 </defs>
</svg>
