<?xml version="1.0" encoding="utf-8" standalone="no"?>
<!DOCTYPE svg PUBLIC "-//W3C//DTD SVG 1.1//EN"
  "http://www.w3.org/Graphics/SVG/1.1/DTD/svg11.dtd">
<svg xmlns:xlink="http://www.w3.org/1999/xlink" width="4680pt" height="1080pt" viewBox="0 0 4680 1080" xmlns="http://www.w3.org/2000/svg" version="1.1">
 <metadata>
  <rdf:RDF xmlns:dc="http://purl.org/dc/elements/1.1/" xmlns:cc="http://creativecommons.org/ns#" xmlns:rdf="http://www.w3.org/1999/02/22-rdf-syntax-ns#">
   <cc:Work>
    <dc:type rdf:resource="http://purl.org/dc/dcmitype/StillImage"/>
    <dc:date>2024-03-20T10:33:08.904074</dc:date>
    <dc:format>image/svg+xml</dc:format>
    <dc:creator>
     <cc:Agent>
      <dc:title>Matplotlib v3.7.2, https://matplotlib.org/</dc:title>
     </cc:Agent>
    </dc:creator>
   </cc:Work>
  </rdf:RDF>
 </metadata>
 <defs>
  <style type="text/css">*{stroke-linejoin: round; stroke-linecap: butt}</style>
 </defs>
 <g id="figure_1">
  <g id="patch_1">
   <path d="M 0 1080 
L 4680 1080 
L 4680 0 
L 0 0 
z
" style="fill: #ffffff"/>
  </g>
  <g id="axes_1">
   <g id="patch_2">
    <path d="M 585 961.2 
L 4212 961.2 
L 4212 129.6 
L 585 129.6 
z
" style="fill: #ffffff"/>
   </g>
   <g id="matplotlib.axis_1">
    <g id="xtick_1">
     <g id="line2d_1">
      <defs>
       <path id="m145fa4f474" d="M 0 0 
L 0 3.5 
" style="stroke: #000000; stroke-width: 0.8"/>
      </defs>
      <g>
       <use xlink:href="#m145fa4f474" x="711.411476" y="961.2" style="stroke: #000000; stroke-width: 0.8"/>
      </g>
     </g>
     <g id="text_1">
      <!-- 2012 -->
      <g transform="translate(685.961476 983.396875) scale(0.2 -0.2)">
       <defs>
        <path id="DejaVuSans-32" d="M 1228 531 
L 3431 531 
L 3431 0 
L 469 0 
L 469 531 
Q 828 903 1448 1529 
Q 2069 2156 2228 2338 
Q 2531 2678 2651 2914 
Q 2772 3150 2772 3378 
Q 2772 3750 2511 3984 
Q 2250 4219 1831 4219 
Q 1534 4219 1204 4116 
Q 875 4013 500 3803 
L 500 4441 
Q 881 4594 1212 4672 
Q 1544 4750 1819 4750 
Q 2544 4750 2975 4387 
Q 3406 4025 3406 3419 
Q 3406 3131 3298 2873 
Q 3191 2616 2906 2266 
Q 2828 2175 2409 1742 
Q 1991 1309 1228 531 
z
" transform="scale(0.015625)"/>
        <path id="DejaVuSans-30" d="M 2034 4250 
Q 1547 4250 1301 3770 
Q 1056 3291 1056 2328 
Q 1056 1369 1301 889 
Q 1547 409 2034 409 
Q 2525 409 2770 889 
Q 3016 1369 3016 2328 
Q 3016 3291 2770 3770 
Q 2525 4250 2034 4250 
z
M 2034 4750 
Q 2819 4750 3233 4129 
Q 3647 3509 3647 2328 
Q 3647 1150 3233 529 
Q 2819 -91 2034 -91 
Q 1250 -91 836 529 
Q 422 1150 422 2328 
Q 422 3509 836 4129 
Q 1250 4750 2034 4750 
z
" transform="scale(0.015625)"/>
        <path id="DejaVuSans-31" d="M 794 531 
L 1825 531 
L 1825 4091 
L 703 3866 
L 703 4441 
L 1819 4666 
L 2450 4666 
L 2450 531 
L 3481 531 
L 3481 0 
L 794 0 
L 794 531 
z
" transform="scale(0.015625)"/>
       </defs>
       <use xlink:href="#DejaVuSans-32"/>
       <use xlink:href="#DejaVuSans-30" x="63.623047"/>
       <use xlink:href="#DejaVuSans-31" x="127.246094"/>
       <use xlink:href="#DejaVuSans-32" x="190.869141"/>
      </g>
     </g>
    </g>
    <g id="xtick_2">
     <g id="line2d_2">
      <g>
       <use xlink:href="#m145fa4f474" x="1415.086006" y="961.2" style="stroke: #000000; stroke-width: 0.8"/>
      </g>
     </g>
     <g id="text_2">
      <!-- 2013 -->
      <g transform="translate(1389.636006 983.396875) scale(0.2 -0.2)">
       <defs>
        <path id="DejaVuSans-33" d="M 2597 2516 
Q 3050 2419 3304 2112 
Q 3559 1806 3559 1356 
Q 3559 666 3084 287 
Q 2609 -91 1734 -91 
Q 1441 -91 1130 -33 
Q 819 25 488 141 
L 488 750 
Q 750 597 1062 519 
Q 1375 441 1716 441 
Q 2309 441 2620 675 
Q 2931 909 2931 1356 
Q 2931 1769 2642 2001 
Q 2353 2234 1838 2234 
L 1294 2234 
L 1294 2753 
L 1863 2753 
Q 2328 2753 2575 2939 
Q 2822 3125 2822 3475 
Q 2822 3834 2567 4026 
Q 2313 4219 1838 4219 
Q 1578 4219 1281 4162 
Q 984 4106 628 3988 
L 628 4550 
Q 988 4650 1302 4700 
Q 1616 4750 1894 4750 
Q 2613 4750 3031 4423 
Q 3450 4097 3450 3541 
Q 3450 3153 3228 2886 
Q 3006 2619 2597 2516 
z
" transform="scale(0.015625)"/>
       </defs>
       <use xlink:href="#DejaVuSans-32"/>
       <use xlink:href="#DejaVuSans-30" x="63.623047"/>
       <use xlink:href="#DejaVuSans-31" x="127.246094"/>
       <use xlink:href="#DejaVuSans-33" x="190.869141"/>
      </g>
     </g>
    </g>
    <g id="xtick_3">
     <g id="line2d_3">
      <g>
       <use xlink:href="#m145fa4f474" x="2116.837927" y="961.2" style="stroke: #000000; stroke-width: 0.8"/>
      </g>
     </g>
     <g id="text_3">
      <!-- 2014 -->
      <g transform="translate(2091.387927 983.396875) scale(0.2 -0.2)">
       <defs>
        <path id="DejaVuSans-34" d="M 2419 4116 
L 825 1625 
L 2419 1625 
L 2419 4116 
z
M 2253 4666 
L 3047 4666 
L 3047 1625 
L 3713 1625 
L 3713 1100 
L 3047 1100 
L 3047 0 
L 2419 0 
L 2419 1100 
L 313 1100 
L 313 1709 
L 2253 4666 
z
" transform="scale(0.015625)"/>
       </defs>
       <use xlink:href="#DejaVuSans-32"/>
       <use xlink:href="#DejaVuSans-30" x="63.623047"/>
       <use xlink:href="#DejaVuSans-31" x="127.246094"/>
       <use xlink:href="#DejaVuSans-34" x="190.869141"/>
      </g>
     </g>
    </g>
    <g id="xtick_4">
     <g id="line2d_4">
      <g>
       <use xlink:href="#m145fa4f474" x="2818.589849" y="961.2" style="stroke: #000000; stroke-width: 0.8"/>
      </g>
     </g>
     <g id="text_4">
      <!-- 2015 -->
      <g transform="translate(2793.139849 983.396875) scale(0.2 -0.2)">
       <defs>
        <path id="DejaVuSans-35" d="M 691 4666 
L 3169 4666 
L 3169 4134 
L 1269 4134 
L 1269 2991 
Q 1406 3038 1543 3061 
Q 1681 3084 1819 3084 
Q 2600 3084 3056 2656 
Q 3513 2228 3513 1497 
Q 3513 744 3044 326 
Q 2575 -91 1722 -91 
Q 1428 -91 1123 -41 
Q 819 9 494 109 
L 494 744 
Q 775 591 1075 516 
Q 1375 441 1709 441 
Q 2250 441 2565 725 
Q 2881 1009 2881 1497 
Q 2881 1984 2565 2268 
Q 2250 2553 1709 2553 
Q 1456 2553 1204 2497 
Q 953 2441 691 2322 
L 691 4666 
z
" transform="scale(0.015625)"/>
       </defs>
       <use xlink:href="#DejaVuSans-32"/>
       <use xlink:href="#DejaVuSans-30" x="63.623047"/>
       <use xlink:href="#DejaVuSans-31" x="127.246094"/>
       <use xlink:href="#DejaVuSans-35" x="190.869141"/>
      </g>
     </g>
    </g>
    <g id="xtick_5">
     <g id="line2d_5">
      <g>
       <use xlink:href="#m145fa4f474" x="3520.34177" y="961.2" style="stroke: #000000; stroke-width: 0.8"/>
      </g>
     </g>
     <g id="text_5">
      <!-- 2016 -->
      <g transform="translate(3494.89177 983.396875) scale(0.2 -0.2)">
       <defs>
        <path id="DejaVuSans-36" d="M 2113 2584 
Q 1688 2584 1439 2293 
Q 1191 2003 1191 1497 
Q 1191 994 1439 701 
Q 1688 409 2113 409 
Q 2538 409 2786 701 
Q 3034 994 3034 1497 
Q 3034 2003 2786 2293 
Q 2538 2584 2113 2584 
z
M 3366 4563 
L 3366 3988 
Q 3128 4100 2886 4159 
Q 2644 4219 2406 4219 
Q 1781 4219 1451 3797 
Q 1122 3375 1075 2522 
Q 1259 2794 1537 2939 
Q 1816 3084 2150 3084 
Q 2853 3084 3261 2657 
Q 3669 2231 3669 1497 
Q 3669 778 3244 343 
Q 2819 -91 2113 -91 
Q 1303 -91 875 529 
Q 447 1150 447 2328 
Q 447 3434 972 4092 
Q 1497 4750 2381 4750 
Q 2619 4750 2861 4703 
Q 3103 4656 3366 4563 
z
" transform="scale(0.015625)"/>
       </defs>
       <use xlink:href="#DejaVuSans-32"/>
       <use xlink:href="#DejaVuSans-30" x="63.623047"/>
       <use xlink:href="#DejaVuSans-31" x="127.246094"/>
       <use xlink:href="#DejaVuSans-36" x="190.869141"/>
      </g>
     </g>
    </g>
    <g id="text_6">
     <!-- Time -->
     <g transform="translate(2374.032813 1006.753125) scale(0.2 -0.2)">
      <defs>
       <path id="DejaVuSans-54" d="M -19 4666 
L 3928 4666 
L 3928 4134 
L 2272 4134 
L 2272 0 
L 1638 0 
L 1638 4134 
L -19 4134 
L -19 4666 
z
" transform="scale(0.015625)"/>
       <path id="DejaVuSans-69" d="M 603 3500 
L 1178 3500 
L 1178 0 
L 603 0 
L 603 3500 
z
M 603 4863 
L 1178 4863 
L 1178 4134 
L 603 4134 
L 603 4863 
z
" transform="scale(0.015625)"/>
       <path id="DejaVuSans-6d" d="M 3328 2828 
Q 3544 3216 3844 3400 
Q 4144 3584 4550 3584 
Q 5097 3584 5394 3201 
Q 5691 2819 5691 2113 
L 5691 0 
L 5113 0 
L 5113 2094 
Q 5113 2597 4934 2840 
Q 4756 3084 4391 3084 
Q 3944 3084 3684 2787 
Q 3425 2491 3425 1978 
L 3425 0 
L 2847 0 
L 2847 2094 
Q 2847 2600 2669 2842 
Q 2491 3084 2119 3084 
Q 1678 3084 1418 2786 
Q 1159 2488 1159 1978 
L 1159 0 
L 581 0 
L 581 3500 
L 1159 3500 
L 1159 2956 
Q 1356 3278 1631 3431 
Q 1906 3584 2284 3584 
Q 2666 3584 2933 3390 
Q 3200 3197 3328 2828 
z
" transform="scale(0.015625)"/>
       <path id="DejaVuSans-65" d="M 3597 1894 
L 3597 1613 
L 953 1613 
Q 991 1019 1311 708 
Q 1631 397 2203 397 
Q 2534 397 2845 478 
Q 3156 559 3463 722 
L 3463 178 
Q 3153 47 2828 -22 
Q 2503 -91 2169 -91 
Q 1331 -91 842 396 
Q 353 884 353 1716 
Q 353 2575 817 3079 
Q 1281 3584 2069 3584 
Q 2775 3584 3186 3129 
Q 3597 2675 3597 1894 
z
M 3022 2063 
Q 3016 2534 2758 2815 
Q 2500 3097 2075 3097 
Q 1594 3097 1305 2825 
Q 1016 2553 972 2059 
L 3022 2063 
z
" transform="scale(0.015625)"/>
      </defs>
      <use xlink:href="#DejaVuSans-54"/>
      <use xlink:href="#DejaVuSans-69" x="57.958984"/>
      <use xlink:href="#DejaVuSans-6d" x="85.742188"/>
      <use xlink:href="#DejaVuSans-65" x="183.154297"/>
     </g>
    </g>
   </g>
   <g id="matplotlib.axis_2">
    <g id="ytick_1">
     <g id="line2d_6">
      <defs>
       <path id="m7cd1606c93" d="M 0 0 
L -3.5 0 
" style="stroke: #000000; stroke-width: 0.8"/>
      </defs>
      <g>
       <use xlink:href="#m7cd1606c93" x="585" y="817.24802" style="stroke: #000000; stroke-width: 0.8"/>
      </g>
     </g>
     <g id="text_7">
      <!-- −0.002 -->
      <g transform="translate(503.984375 824.846457) scale(0.2 -0.2)">
       <defs>
        <path id="DejaVuSans-2212" d="M 678 2272 
L 4684 2272 
L 4684 1741 
L 678 1741 
L 678 2272 
z
" transform="scale(0.015625)"/>
        <path id="DejaVuSans-2e" d="M 684 794 
L 1344 794 
L 1344 0 
L 684 0 
L 684 794 
z
" transform="scale(0.015625)"/>
       </defs>
       <use xlink:href="#DejaVuSans-2212"/>
       <use xlink:href="#DejaVuSans-30" x="83.789062"/>
       <use xlink:href="#DejaVuSans-2e" x="147.412109"/>
       <use xlink:href="#DejaVuSans-30" x="179.199219"/>
       <use xlink:href="#DejaVuSans-30" x="242.822266"/>
       <use xlink:href="#DejaVuSans-32" x="306.445312"/>
      </g>
     </g>
    </g>
    <g id="ytick_2">
     <g id="line2d_7">
      <g>
       <use xlink:href="#m7cd1606c93" x="585" y="668.084972" style="stroke: #000000; stroke-width: 0.8"/>
      </g>
     </g>
     <g id="text_8">
      <!-- −0.001 -->
      <g transform="translate(503.984375 675.683409) scale(0.2 -0.2)">
       <use xlink:href="#DejaVuSans-2212"/>
       <use xlink:href="#DejaVuSans-30" x="83.789062"/>
       <use xlink:href="#DejaVuSans-2e" x="147.412109"/>
       <use xlink:href="#DejaVuSans-30" x="179.199219"/>
       <use xlink:href="#DejaVuSans-30" x="242.822266"/>
       <use xlink:href="#DejaVuSans-31" x="306.445312"/>
      </g>
     </g>
    </g>
    <g id="ytick_3">
     <g id="line2d_8">
      <g>
       <use xlink:href="#m7cd1606c93" x="585" y="518.921924" style="stroke: #000000; stroke-width: 0.8"/>
      </g>
     </g>
     <g id="text_9">
      <!-- 0.000 -->
      <g transform="translate(520.74375 526.520361) scale(0.2 -0.2)">
       <use xlink:href="#DejaVuSans-30"/>
       <use xlink:href="#DejaVuSans-2e" x="63.623047"/>
       <use xlink:href="#DejaVuSans-30" x="95.410156"/>
       <use xlink:href="#DejaVuSans-30" x="159.033203"/>
       <use xlink:href="#DejaVuSans-30" x="222.65625"/>
      </g>
     </g>
    </g>
    <g id="ytick_4">
     <g id="line2d_9">
      <g>
       <use xlink:href="#m7cd1606c93" x="585" y="369.758876" style="stroke: #000000; stroke-width: 0.8"/>
      </g>
     </g>
     <g id="text_10">
      <!-- 0.001 -->
      <g transform="translate(520.74375 377.357313) scale(0.2 -0.2)">
       <use xlink:href="#DejaVuSans-30"/>
       <use xlink:href="#DejaVuSans-2e" x="63.623047"/>
       <use xlink:href="#DejaVuSans-30" x="95.410156"/>
       <use xlink:href="#DejaVuSans-30" x="159.033203"/>
       <use xlink:href="#DejaVuSans-31" x="222.65625"/>
      </g>
     </g>
    </g>
    <g id="ytick_5">
     <g id="line2d_10">
      <g>
       <use xlink:href="#m7cd1606c93" x="585" y="220.595828" style="stroke: #000000; stroke-width: 0.8"/>
      </g>
     </g>
     <g id="text_11">
      <!-- 0.002 -->
      <g transform="translate(520.74375 228.194265) scale(0.2 -0.2)">
       <use xlink:href="#DejaVuSans-30"/>
       <use xlink:href="#DejaVuSans-2e" x="63.623047"/>
       <use xlink:href="#DejaVuSans-30" x="95.410156"/>
       <use xlink:href="#DejaVuSans-30" x="159.033203"/>
       <use xlink:href="#DejaVuSans-32" x="222.65625"/>
      </g>
     </g>
    </g>
    <g id="text_12">
     <!-- East(m) -->
     <g transform="translate(495.825 584.520313) rotate(-90) scale(0.2 -0.2)">
      <defs>
       <path id="DejaVuSans-45" d="M 628 4666 
L 3578 4666 
L 3578 4134 
L 1259 4134 
L 1259 2753 
L 3481 2753 
L 3481 2222 
L 1259 2222 
L 1259 531 
L 3634 531 
L 3634 0 
L 628 0 
L 628 4666 
z
" transform="scale(0.015625)"/>
       <path id="DejaVuSans-61" d="M 2194 1759 
Q 1497 1759 1228 1600 
Q 959 1441 959 1056 
Q 959 750 1161 570 
Q 1363 391 1709 391 
Q 2188 391 2477 730 
Q 2766 1069 2766 1631 
L 2766 1759 
L 2194 1759 
z
M 3341 1997 
L 3341 0 
L 2766 0 
L 2766 531 
Q 2569 213 2275 61 
Q 1981 -91 1556 -91 
Q 1019 -91 701 211 
Q 384 513 384 1019 
Q 384 1609 779 1909 
Q 1175 2209 1959 2209 
L 2766 2209 
L 2766 2266 
Q 2766 2663 2505 2880 
Q 2244 3097 1772 3097 
Q 1472 3097 1187 3025 
Q 903 2953 641 2809 
L 641 3341 
Q 956 3463 1253 3523 
Q 1550 3584 1831 3584 
Q 2591 3584 2966 3190 
Q 3341 2797 3341 1997 
z
" transform="scale(0.015625)"/>
       <path id="DejaVuSans-73" d="M 2834 3397 
L 2834 2853 
Q 2591 2978 2328 3040 
Q 2066 3103 1784 3103 
Q 1356 3103 1142 2972 
Q 928 2841 928 2578 
Q 928 2378 1081 2264 
Q 1234 2150 1697 2047 
L 1894 2003 
Q 2506 1872 2764 1633 
Q 3022 1394 3022 966 
Q 3022 478 2636 193 
Q 2250 -91 1575 -91 
Q 1294 -91 989 -36 
Q 684 19 347 128 
L 347 722 
Q 666 556 975 473 
Q 1284 391 1588 391 
Q 1994 391 2212 530 
Q 2431 669 2431 922 
Q 2431 1156 2273 1281 
Q 2116 1406 1581 1522 
L 1381 1569 
Q 847 1681 609 1914 
Q 372 2147 372 2553 
Q 372 3047 722 3315 
Q 1072 3584 1716 3584 
Q 2034 3584 2315 3537 
Q 2597 3491 2834 3397 
z
" transform="scale(0.015625)"/>
       <path id="DejaVuSans-74" d="M 1172 4494 
L 1172 3500 
L 2356 3500 
L 2356 3053 
L 1172 3053 
L 1172 1153 
Q 1172 725 1289 603 
Q 1406 481 1766 481 
L 2356 481 
L 2356 0 
L 1766 0 
Q 1100 0 847 248 
Q 594 497 594 1153 
L 594 3053 
L 172 3053 
L 172 3500 
L 594 3500 
L 594 4494 
L 1172 4494 
z
" transform="scale(0.015625)"/>
       <path id="DejaVuSans-28" d="M 1984 4856 
Q 1566 4138 1362 3434 
Q 1159 2731 1159 2009 
Q 1159 1288 1364 580 
Q 1569 -128 1984 -844 
L 1484 -844 
Q 1016 -109 783 600 
Q 550 1309 550 2009 
Q 550 2706 781 3412 
Q 1013 4119 1484 4856 
L 1984 4856 
z
" transform="scale(0.015625)"/>
       <path id="DejaVuSans-29" d="M 513 4856 
L 1013 4856 
Q 1481 4119 1714 3412 
Q 1947 2706 1947 2009 
Q 1947 1309 1714 600 
Q 1481 -109 1013 -844 
L 513 -844 
Q 928 -128 1133 580 
Q 1338 1288 1338 2009 
Q 1338 2731 1133 3434 
Q 928 4138 513 4856 
z
" transform="scale(0.015625)"/>
      </defs>
      <use xlink:href="#DejaVuSans-45"/>
      <use xlink:href="#DejaVuSans-61" x="63.183594"/>
      <use xlink:href="#DejaVuSans-73" x="124.462891"/>
      <use xlink:href="#DejaVuSans-74" x="176.5625"/>
      <use xlink:href="#DejaVuSans-28" x="215.771484"/>
      <use xlink:href="#DejaVuSans-6d" x="254.785156"/>
      <use xlink:href="#DejaVuSans-29" x="352.197266"/>
     </g>
    </g>
   </g>
   <g id="line2d_11">
    <path d="M 749.863636 697.34653 
L 751.786244 671.361609 
L 753.708852 655.452316 
L 755.63146 619.235207 
L 757.554068 628.633454 
L 759.476676 589.702094 
L 761.399284 571.258713 
L 763.321892 560.247914 
L 765.2445 547.497744 
L 767.167108 532.611968 
L 769.089716 541.266334 
L 771.012324 552.926162 
L 772.934932 573.781382 
L 774.85754 549.613249 
L 776.780148 574.614438 
L 778.702756 564.248936 
L 780.625364 554.876482 
L 782.547972 530.128002 
L 784.47058 513.798059 
L 786.393188 533.873173 
L 788.315796 547.781146 
L 790.238404 565.390753 
L 792.161012 589.966322 
L 794.08362 623.113086 
L 797.928836 702.930663 
L 799.851444 711.491918 
L 801.774052 730.60538 
L 803.69666 707.830907 
L 805.619268 704.459481 
L 807.541876 667.272804 
L 815.232309 646.664934 
L 817.154917 680.568952 
L 821.000133 708.473974 
L 822.922741 719.802295 
L 824.845349 761.867243 
L 826.767957 738.363238 
L 828.690565 712.05737 
L 832.535781 650.290199 
L 834.458389 658.824298 
L 836.380997 658.482484 
L 838.303605 623.189375 
L 840.226213 594.550536 
L 842.148821 573.016155 
L 844.071429 543.855748 
L 845.994037 575.093772 
L 847.916645 586.970195 
L 849.839253 593.514586 
L 853.684469 650.370646 
L 855.607077 641.634723 
L 857.529685 638.28805 
L 859.452293 609.57763 
L 861.374901 564.028896 
L 865.220117 508.250018 
L 867.142725 474.965847 
L 869.065333 489.866836 
L 870.987941 496.20853 
L 872.910549 493.192368 
L 874.833157 508.084343 
L 878.678373 525.00107 
L 880.600981 548.895334 
L 882.523589 541.413655 
L 884.446197 510.498591 
L 890.214021 523.741187 
L 892.136629 461.680143 
L 894.059237 412.614098 
L 895.981845 366.947202 
L 897.904453 361.450085 
L 899.827061 398.030162 
L 903.672277 435.581146 
L 905.594885 459.242746 
L 907.517493 471.626396 
L 909.440101 498.640003 
L 911.362709 511.831811 
L 913.285317 527.660935 
L 917.130533 493.192915 
L 919.053141 498.589101 
L 920.975749 508.139427 
L 922.898357 527.668296 
L 924.820965 526.810302 
L 926.743573 487.218267 
L 928.666181 484.981296 
L 932.511397 485.988404 
L 934.434005 494.547413 
L 936.356613 469.945987 
L 938.279221 440.883655 
L 949.814869 374.767999 
L 955.582693 387.763202 
L 957.505301 363.995457 
L 959.427909 313.004858 
L 961.350517 298.165664 
L 969.040949 322.430711 
L 974.808773 393.511454 
L 976.731381 372.655878 
L 978.653989 361.07637 
L 980.576597 390.173472 
L 984.421813 392.958924 
L 986.344421 357.372868 
L 988.267029 333.506281 
L 990.189637 352.223631 
L 992.112245 322.523001 
L 995.957461 284.487912 
L 997.880069 254.221935 
L 999.802677 249.494198 
L 1001.725285 251.984561 
L 1007.493109 216.850108 
L 1009.415717 262.11727 
L 1011.338325 287.718242 
L 1013.260933 298.828564 
L 1015.183541 306.994611 
L 1017.106149 292.504858 
L 1019.028757 320.555465 
L 1020.951365 345.563763 
L 1022.873973 310.905473 
L 1024.796581 311.071462 
L 1026.719189 335.272064 
L 1030.564405 405.085729 
L 1034.409621 419.683965 
L 1036.332229 434.948866 
L 1038.254837 465.336389 
L 1042.100053 430.515324 
L 1053.635701 446.709745 
L 1057.480917 498.798796 
L 1159.379141 470.851184 
L 1161.301749 435.271308 
L 1163.224357 436.152511 
L 1318.955606 426.362095 
L 1320.878214 411.549129 
L 1322.800822 435.938122 
L 1332.413862 435.277074 
L 1336.259078 440.585051 
L 1338.181686 457.063275 
L 1340.104294 507.441974 
L 1342.026902 506.484857 
L 1343.94951 521.791542 
L 1345.872118 509.572638 
L 1347.794726 527.168265 
L 1365.098198 697.000031 
L 1368.943414 690.908278 
L 1415.086006 489.715732 
L 1417.008614 471.128805 
L 1424.699046 575.675509 
L 1426.621654 608.911422 
L 1430.46687 683.871896 
L 1432.389478 728.438809 
L 1434.312086 697.546771 
L 1436.234694 655.334908 
L 1438.157302 642.641706 
L 1442.002518 624.235354 
L 1470.841638 760.372548 
L 1472.764246 775.087298 
L 1474.686854 821.943035 
L 1476.609462 878.39709 
L 1480.454678 887.293962 
L 1482.377286 878.654106 
L 1484.299894 857.071898 
L 1486.222502 851.369148 
L 1488.14511 834.758914 
L 1490.067718 763.182006 
L 1491.990326 730.890118 
L 1499.680758 620.751662 
L 1501.603366 596.58378 
L 1503.525974 629.695352 
L 1509.293798 715.559017 
L 1511.216406 713.367085 
L 1513.139014 682.94728 
L 1515.061622 696.859071 
L 1516.98423 672.710062 
L 1520.829446 599.1072 
L 1522.752054 590.998115 
L 1524.674662 605.153195 
L 1528.519878 601.659872 
L 1530.442486 597.752333 
L 1532.365094 605.583106 
L 1540.055526 545.213387 
L 1541.978134 522.67742 
L 1543.900742 567.284384 
L 1545.82335 566.620313 
L 1547.745958 512.274637 
L 1549.668566 516.883011 
L 1551.591174 562.877319 
L 1553.513782 512.330418 
L 1555.43639 501.959602 
L 1557.358998 430.19961 
L 1559.281606 421.198359 
L 1563.126822 436.470283 
L 1565.04943 441.714586 
L 1566.972038 440.491551 
L 1568.894646 441.578578 
L 1572.739862 469.24751 
L 1574.66247 500.177427 
L 1576.585078 526.124786 
L 1578.507686 526.589429 
L 1580.430294 603.302903 
L 1582.352902 640.856789 
L 1584.27551 627.538159 
L 1586.198118 682.29333 
L 1588.120726 667.916668 
L 1590.043334 655.727834 
L 1593.88855 611.185507 
L 1636.185926 569.55393 
L 1640.031142 587.597657 
L 1641.95375 569.807481 
L 1643.876358 608.94414 
L 1645.798966 617.915867 
L 1647.721574 604.81955 
L 1649.644182 576.116247 
L 1653.489398 571.604044 
L 1655.412006 547.971787 
L 1657.334614 501.23791 
L 1665.025046 358.831074 
L 1666.947654 429.227831 
L 1668.870262 475.66694 
L 1672.715478 494.505591 
L 1674.638086 505.837415 
L 1676.560694 478.689793 
L 1678.483302 497.295578 
L 1680.40591 449.337202 
L 1684.251126 395.963667 
L 1686.173734 391.488946 
L 1691.941558 592.569616 
L 1693.864166 594.041011 
L 1695.786774 604.63599 
L 1697.709382 626.370038 
L 1699.63199 653.356542 
L 1701.554598 602.857428 
L 1703.477206 536.711362 
L 1722.703287 487.063295 
L 1724.625895 484.61166 
L 1726.548503 474.960935 
L 1728.471111 518.987316 
L 1730.393719 514.466851 
L 1732.316327 476.196146 
L 1734.238935 461.997734 
L 1736.161543 465.384082 
L 1738.084151 481.646662 
L 1740.006759 494.111702 
L 1743.851975 492.679055 
L 1745.774583 455.346344 
L 1751.542407 389.216062 
L 1753.465015 406.804659 
L 1755.387623 432.877556 
L 1757.310231 387.00366 
L 1759.232839 425.886559 
L 1761.155447 434.832073 
L 1765.000663 494.556043 
L 1766.923271 491.082539 
L 1772.691095 510.220384 
L 1774.613703 532.968483 
L 1776.536311 498.774839 
L 1780.381527 488.720417 
L 1782.304135 499.195766 
L 1784.226743 489.001544 
L 1786.149351 499.872967 
L 1788.071959 489.832639 
L 1789.994567 485.534216 
L 1801.530215 575.486937 
L 1805.375431 588.447304 
L 1807.298039 568.581662 
L 1809.220647 520.509727 
L 1811.143255 479.492611 
L 1813.065863 487.058158 
L 1816.911079 490.009673 
L 1818.833687 498.760548 
L 1820.756295 467.405633 
L 1822.678903 454.97113 
L 1824.601511 416.459359 
L 1830.369335 412.24914 
L 1832.291943 360.21411 
L 1834.214551 326.605189 
L 1836.137159 334.141335 
L 1838.059767 353.104573 
L 1839.982375 331.145616 
L 1841.904983 264.522481 
L 1845.750199 243.656137 
L 1847.672807 304.630166 
L 1859.208455 271.271738 
L 1861.131063 223.648393 
L 1863.053671 245.959218 
L 1864.976279 296.249812 
L 1866.898887 333.796603 
L 1868.821495 323.027958 
L 1870.744103 317.201392 
L 1872.666711 288.774599 
L 1874.589319 279.703311 
L 1876.511927 276.021681 
L 1878.434535 285.126959 
L 1880.357143 280.153628 
L 1884.202359 265.901647 
L 1886.124967 256.057713 
L 1888.047575 249.426495 
L 1889.970183 238.015723 
L 1891.892791 243.351629 
L 1895.738007 186.021782 
L 1901.505831 220.983571 
L 1903.428439 218.996074 
L 1905.351047 217.68991 
L 1907.273655 183.46886 
L 1909.196263 177.776621 
L 1911.118871 167.4 
L 1913.041479 176.583368 
L 1914.964087 197.016111 
L 2024.552743 232.854768 
L 2028.397959 307.60587 
L 2030.320567 365.580129 
L 2032.243175 390.63253 
L 2034.165783 361.671017 
L 2036.088391 403.351604 
L 2038.010999 423.761704 
L 2039.933607 445.991892 
L 2049.546647 631.846175 
L 2051.469255 687.847671 
L 2057.237079 731.448574 
L 2059.159687 681.378874 
L 2061.082295 689.149891 
L 2063.004903 721.256362 
L 2064.927511 721.619982 
L 2068.772727 718.462598 
L 2137.986615 499.937983 
L 2139.909223 549.370797 
L 2143.754439 631.790617 
L 2145.677047 626.980009 
L 2172.59356 685.225538 
L 2255.265704 543.727458 
L 2257.188312 604.986028 
L 2261.033528 707.333969 
L 2262.956136 701.131608 
L 2264.878744 703.019106 
L 2266.801352 686.389861 
L 2268.72396 662.176846 
L 2270.646568 675.769993 
L 2272.569176 718.565706 
L 2274.491784 742.401849 
L 2276.414392 752.72354 
L 2282.182216 817.066723 
L 2314.866552 585.306912 
L 2316.78916 558.001186 
L 2328.324808 711.820672 
L 2330.247416 730.334256 
L 2332.170024 697.508464 
L 2334.092632 683.303214 
L 2355.24132 636.778836 
L 2485.978664 695.003833 
L 2489.82388 563.46012 
L 2491.746488 492.029073 
L 2495.591704 505.768945 
L 2512.895176 520.376927 
L 2747.453353 228.135268 
L 2997.392393 460.393909 
L 2999.315001 479.930421 
L 3001.237609 524.817426 
L 3014.695865 603.312745 
L 3018.541081 590.334292 
L 3020.463689 636.544276 
L 3024.308905 622.446729 
L 3026.231513 642.823249 
L 3030.076729 695.949773 
L 3031.999337 713.968249 
L 3055.070633 713.234969 
L 3056.993241 714.313921 
L 3058.915849 758.652361 
L 3062.761065 688.06683 
L 3064.683673 675.65556 
L 3068.528889 656.675938 
L 3072.374105 558.097718 
L 3076.219321 548.598014 
L 3078.141929 577.692397 
L 3081.987146 522.876283 
L 3085.832362 567.873662 
L 3087.75497 579.817145 
L 3089.677578 627.886955 
L 3093.522794 665.647309 
L 3095.445402 740.175632 
L 3101.213226 801.174501 
L 3106.98105 792.303861 
L 3108.903658 740.806758 
L 3112.748874 741.266156 
L 3114.671482 744.148316 
L 3116.59409 753.60729 
L 3122.361914 708.249335 
L 3124.284522 739.011054 
L 3126.20713 704.560969 
L 3128.129738 656.127182 
L 3133.897562 699.397396 
L 3135.82017 697.465317 
L 3137.742778 654.567375 
L 3139.665386 676.983062 
L 3141.587994 669.36453 
L 3145.43321 657.958707 
L 3147.355818 646.492586 
L 3151.201034 573.572401 
L 3153.123642 581.91537 
L 3155.04625 555.510238 
L 3158.891466 585.720094 
L 3160.814074 583.204186 
L 3162.736682 556.517805 
L 3164.65929 563.329393 
L 3189.653194 507.172563 
L 3191.575802 478.002762 
L 3193.49841 373.194216 
L 3195.421018 308.174937 
L 3197.343626 279.363182 
L 3199.266234 274.850148 
L 3205.034058 229.721595 
L 3216.569706 419.879712 
L 3220.414922 524.107933 
L 3222.33753 488.756304 
L 3224.260138 470.440187 
L 3226.182746 455.697212 
L 3230.027962 433.748851 
L 3237.718394 365.905632 
L 3239.641002 415.825274 
L 3256.944474 349.830102 
L 3258.867082 397.27857 
L 3260.78969 393.201163 
L 3264.634906 395.970066 
L 3266.557514 359.611909 
L 3268.480122 367.395413 
L 3270.40273 411.308954 
L 3272.325338 381.610951 
L 3274.247946 407.025705 
L 3276.170554 378.566457 
L 3283.860986 370.951329 
L 3291.551418 343.94046 
L 3293.474026 377.902415 
L 3295.396634 367.400933 
L 3297.319242 387.548648 
L 3299.24185 366.005056 
L 3301.164458 381.443588 
L 3303.087066 377.195183 
L 3305.009674 362.69041 
L 3306.932282 332.432472 
L 3308.85489 308.273065 
L 3314.622714 327.433316 
L 3320.390538 405.604567 
L 3322.313146 468.953823 
L 3324.235754 439.104002 
L 3326.158362 428.762206 
L 3328.08097 433.926122 
L 3330.003578 432.607971 
L 3331.926186 422.471967 
L 3333.848794 419.600189 
L 3335.771402 398.31502 
L 3337.69401 418.629607 
L 3339.616618 435.359112 
L 3341.539226 420.08727 
L 3343.461834 451.541688 
L 3345.384442 432.250116 
L 3347.30705 396.501657 
L 3349.229658 419.104442 
L 3351.152266 446.214559 
L 3353.074874 461.016186 
L 3354.997482 504.831038 
L 3356.92009 503.906189 
L 3358.842698 526.572117 
L 3360.765306 533.411396 
L 3362.687914 512.242046 
L 3364.610522 444.302845 
L 3366.53313 426.037349 
L 3368.455738 400.166759 
L 3370.378346 390.86615 
L 3372.300954 430.855208 
L 3374.223562 456.624592 
L 3376.14617 486.551759 
L 3378.068778 525.001118 
L 3379.991386 534.957511 
L 3381.913994 529.207949 
L 3383.836602 531.537774 
L 3385.75921 505.22922 
L 3387.681818 487.184705 
L 3389.604426 474.628923 
L 3393.449642 475.720488 
L 3395.37225 481.160274 
L 3397.294858 483.374358 
L 3399.217466 475.150146 
L 3401.140074 478.319516 
L 3403.062682 469.010288 
L 3404.98529 461.152178 
L 3406.907898 483.212219 
L 3410.753114 494.663883 
L 3412.675722 496.082749 
L 3414.59833 495.292999 
L 3416.520938 524.00125 
L 3418.443546 520.369228 
L 3420.366154 517.414102 
L 3422.288762 492.272977 
L 3424.21137 515.971487 
L 3426.133978 561.541004 
L 3428.056586 596.701032 
L 3429.979194 634.468062 
L 3431.901802 681.958102 
L 3433.82441 694.998827 
L 3435.747018 711.219715 
L 3437.669626 652.853219 
L 3439.592234 635.581251 
L 3441.514842 643.219738 
L 3443.43745 590.380819 
L 3445.360058 562.450209 
L 3447.282666 555.598986 
L 3449.205274 598.390531 
L 3451.127882 656.273128 
L 3453.05049 674.943347 
L 3454.973098 656.745187 
L 3456.895706 697.699683 
L 3458.818314 706.901645 
L 3460.740922 711.266661 
L 3462.66353 723.38908 
L 3464.586138 742.246016 
L 3466.508746 729.522435 
L 3468.431354 754.406837 
L 3470.353962 737.940301 
L 3472.27657 749.509264 
L 3474.199178 758.8235 
L 3476.121786 762.363289 
L 3478.044394 772.300131 
L 3479.967002 841.717987 
L 3481.88961 872.121789 
L 3483.812218 885.586433 
L 3485.734826 876.912135 
L 3487.657434 879.453607 
L 3489.580042 896.948216 
L 3493.425258 859.774932 
L 3495.347866 854.563973 
L 3497.270474 874.14922 
L 3499.193082 901.634745 
L 3501.11569 923.4 
L 3503.038298 913.796593 
L 3504.960906 894.309842 
L 3506.883514 857.480794 
L 3508.806122 846.331143 
L 3510.72873 840.647589 
L 3512.651338 866.011169 
L 3514.573946 878.369183 
L 3516.496554 874.956614 
L 3518.419162 907.659814 
L 3522.264378 909.044599 
L 3524.186986 878.623106 
L 3526.109594 828.929203 
L 3528.032202 819.105812 
L 3529.95481 814.705169 
L 3531.877418 824.480482 
L 3533.800027 818.668295 
L 3535.722635 828.760933 
L 3537.645243 848.897317 
L 3539.567851 844.090295 
L 3541.490459 836.12511 
L 3543.413067 847.286894 
L 3545.335675 812.478745 
L 3547.258283 813.624786 
L 3549.180891 819.06716 
L 3551.103499 817.726252 
L 3553.026107 854.774885 
L 3554.948715 845.171451 
L 3556.871323 827.245581 
L 3558.793931 819.636081 
L 3560.716539 809.818748 
L 3562.639147 851.708992 
L 3564.561755 849.843476 
L 3574.174795 882.606784 
L 3576.097403 863.716366 
L 3578.020011 842.246808 
L 3581.865227 796.368509 
L 3585.710443 814.323153 
L 3587.633051 740.105916 
L 3589.555659 714.433256 
L 3591.478267 719.838608 
L 3593.400875 737.170493 
L 3595.323483 743.242538 
L 3635.698251 729.952344 
L 3637.620859 756.305217 
L 3641.466075 773.444234 
L 3647.233899 767.829964 
L 3649.156507 718.391395 
L 3651.079115 694.952772 
L 3653.001723 694.881268 
L 3654.924331 678.423318 
L 3656.846939 712.073291 
L 3658.769547 753.352044 
L 3660.692155 745.300041 
L 3662.614763 749.904669 
L 3664.537371 752.695201 
L 3666.459979 766.998144 
L 3668.382587 765.2454 
L 3670.305195 782.146105 
L 3672.227803 754.987277 
L 3674.150411 753.303625 
L 3676.073019 726.940516 
L 3677.995627 730.681889 
L 3679.918235 702.744548 
L 3681.840843 687.373175 
L 3683.763451 630.438035 
L 3685.686059 622.58189 
L 3687.608667 673.02547 
L 3689.531275 692.203467 
L 3691.453883 681.918994 
L 3693.376491 634.633408 
L 3695.299099 642.492984 
L 3697.221707 631.130346 
L 3699.144315 616.896944 
L 3701.066923 543.895495 
L 3702.989531 577.505934 
L 3704.912139 538.168891 
L 3706.834747 537.993909 
L 3708.757355 530.707509 
L 3710.679963 574.728279 
L 3712.602571 602.722734 
L 3714.525179 622.875973 
L 3718.370395 601.39865 
L 3720.293003 631.893995 
L 3722.215611 628.032163 
L 3724.138219 589.402241 
L 3727.983435 557.709386 
L 3729.906043 563.616165 
L 3731.828651 592.410439 
L 3733.751259 559.982194 
L 3735.673867 582.118521 
L 3739.519083 624.584526 
L 3741.441691 657.889966 
L 3745.286907 608.5214 
L 3747.209515 624.604409 
L 3749.132123 582.665436 
L 3751.054731 575.518391 
L 3754.899947 504.078236 
L 3756.822555 500.836291 
L 3758.745163 553.322575 
L 3760.667771 556.948601 
L 3762.590379 559.514661 
L 3768.358203 451.914839 
L 3770.280811 471.798908 
L 3772.203419 429.843702 
L 3774.126027 432.7053 
L 3776.048635 467.835948 
L 3777.971243 523.944576 
L 3779.893851 551.789811 
L 3877.946859 581.494892 
L 3879.869467 543.352775 
L 3881.792075 451.603399 
L 3887.559899 386.083525 
L 3889.482507 356.731522 
L 3891.405115 373.564613 
L 3897.172939 372.708302 
L 3904.863371 419.921947 
L 3908.708587 425.72153 
L 3926.012059 541.186219 
L 3927.934667 479.277076 
L 3929.857275 449.640034 
L 3931.779883 384.651609 
L 3933.702491 373.914557 
L 3943.315531 312.0486 
L 3945.238139 378.978187 
L 3951.005963 365.785299 
L 3952.928571 328.380908 
L 3954.851179 341.273362 
L 3956.773787 363.434398 
L 3958.696395 328.027781 
L 3960.619003 323.773599 
L 3962.541611 358.201489 
L 3968.309435 365.172643 
L 3974.077259 332.983546 
L 3975.999867 362.227049 
L 3977.922475 316.057773 
L 3979.845083 327.896876 
L 3981.767691 312.218317 
L 3985.612908 290.550104 
L 3987.535516 247.939104 
L 3989.458124 177.178221 
L 3991.380732 190.707623 
L 4000.993772 236.056142 
L 4002.91638 240.829703 
L 4004.838988 232.633709 
L 4006.761596 233.691188 
L 4008.684204 218.760733 
L 4010.606812 197.483301 
L 4014.452028 202.449994 
L 4016.374636 221.416884 
L 4018.297244 201.78483 
L 4020.219852 195.991805 
L 4022.14246 185.882819 
L 4024.065068 173.027194 
L 4025.987676 173.687382 
L 4027.910284 195.910164 
L 4029.832892 191.527911 
L 4041.36854 208.604999 
L 4043.291148 199.9012 
L 4045.213756 232.019552 
L 4047.136364 206.015255 
L 4047.136364 206.015255 
" clip-path="url(#p13ca48ad3a)" style="fill: none; stroke: #e8000b; stroke-width: 2.5; stroke-linecap: square"/>
   </g>
   <g id="patch_3">
    <path d="M 585 961.2 
L 585 129.6 
" style="fill: none; stroke: #000000; stroke-width: 0.8; stroke-linejoin: miter; stroke-linecap: square"/>
   </g>
   <g id="patch_4">
    <path d="M 4212 961.2 
L 4212 129.6 
" style="fill: none; stroke: #000000; stroke-width: 0.8; stroke-linejoin: miter; stroke-linecap: square"/>
   </g>
   <g id="patch_5">
    <path d="M 585 961.2 
L 4212 961.2 
" style="fill: none; stroke: #000000; stroke-width: 0.8; stroke-linejoin: miter; stroke-linecap: square"/>
   </g>
   <g id="patch_6">
    <path d="M 585 129.6 
L 4212 129.6 
" style="fill: none; stroke: #000000; stroke-width: 0.8; stroke-linejoin: miter; stroke-linecap: square"/>
   </g>
   <g id="text_13">
    <!-- MT01 -->
    <g transform="translate(2357.308594 123.360937) scale(0.3 -0.3)">
     <defs>
      <path id="DejaVuSans-4d" d="M 628 4666 
L 1569 4666 
L 2759 1491 
L 3956 4666 
L 4897 4666 
L 4897 0 
L 4281 0 
L 4281 4097 
L 3078 897 
L 2444 897 
L 1241 4097 
L 1241 0 
L 628 0 
L 628 4666 
z
" transform="scale(0.015625)"/>
     </defs>
     <use xlink:href="#DejaVuSans-4d"/>
     <use xlink:href="#DejaVuSans-54" x="86.279297"/>
     <use xlink:href="#DejaVuSans-30" x="147.363281"/>
     <use xlink:href="#DejaVuSans-31" x="210.986328"/>
    </g>
   </g>
   <g id="legend_1">
    <g id="patch_7">
     <path d="M 4146.614062 152.278125 
L 4205 152.278125 
Q 4207 152.278125 4207 150.278125 
L 4207 136.6 
Q 4207 134.6 4205 134.6 
L 4146.614062 134.6 
Q 4144.614062 134.6 4144.614062 136.6 
L 4144.614062 150.278125 
Q 4144.614062 152.278125 4146.614062 152.278125 
z
" style="fill: #ffffff; opacity: 0.8; stroke: #cccccc; stroke-linejoin: miter"/>
    </g>
    <g id="line2d_12">
     <path d="M 4148.614062 142.698438 
L 4158.614062 142.698438 
L 4168.614062 142.698438 
" style="fill: none; stroke: #e8000b; stroke-width: 2.5; stroke-linecap: square"/>
    </g>
    <g id="text_14">
     <!-- mt01 -->
     <g transform="translate(4176.614062 146.198438) scale(0.1 -0.1)">
      <use xlink:href="#DejaVuSans-6d"/>
      <use xlink:href="#DejaVuSans-74" x="97.412109"/>
      <use xlink:href="#DejaVuSans-30" x="136.621094"/>
      <use xlink:href="#DejaVuSans-31" x="200.244141"/>
     </g>
    </g>
   </g>
  </g>
 </g>
 <defs>
  <clipPath id="p13ca48ad3a">
   <rect x="585" y="129.6" width="3627" height="831.6"/>
  </clipPath>
 </defs>
</svg>
