<?xml version="1.0" encoding="utf-8" standalone="no"?>
<!DOCTYPE svg PUBLIC "-//W3C//DTD SVG 1.1//EN"
  "http://www.w3.org/Graphics/SVG/1.1/DTD/svg11.dtd">
<svg xmlns:xlink="http://www.w3.org/1999/xlink" width="4680pt" height="1080pt" viewBox="0 0 4680 1080" xmlns="http://www.w3.org/2000/svg" version="1.1">
 <metadata>
  <rdf:RDF xmlns:dc="http://purl.org/dc/elements/1.1/" xmlns:cc="http://creativecommons.org/ns#" xmlns:rdf="http://www.w3.org/1999/02/22-rdf-syntax-ns#">
   <cc:Work>
    <dc:type rdf:resource="http://purl.org/dc/dcmitype/StillImage"/>
    <dc:date>2024-03-20T10:33:09.183525</dc:date>
    <dc:format>image/svg+xml</dc:format>
    <dc:creator>
     <cc:Agent>
      <dc:title>Matplotlib v3.7.2, https://matplotlib.org/</dc:title>
     </cc:Agent>
    </dc:creator>
   </cc:Work>
  </rdf:RDF>
 </metadata>
 <defs>
  <style type="text/css">*{stroke-linejoin: round; stroke-linecap: butt}</style>
 </defs>
 <g id="figure_1">
  <g id="patch_1">
   <path d="M 0 1080 
L 4680 1080 
L 4680 0 
L 0 0 
z
" style="fill: #ffffff"/>
  </g>
  <g id="axes_1">
   <g id="patch_2">
    <path d="M 585 961.2 
L 4212 961.2 
L 4212 129.6 
L 585 129.6 
z
" style="fill: #ffffff"/>
   </g>
   <g id="matplotlib.axis_1">
    <g id="xtick_1">
     <g id="line2d_1">
      <defs>
       <path id="m4bd6942fbd" d="M 0 0 
L 0 3.5 
" style="stroke: #000000; stroke-width: 0.8"/>
      </defs>
      <g>
       <use xlink:href="#m4bd6942fbd" x="711.411476" y="961.2" style="stroke: #000000; stroke-width: 0.8"/>
      </g>
     </g>
     <g id="text_1">
      <!-- 2012 -->
      <g transform="translate(685.961476 983.396875) scale(0.2 -0.2)">
       <defs>
        <path id="DejaVuSans-32" d="M 1228 531 
L 3431 531 
L 3431 0 
L 469 0 
L 469 531 
Q 828 903 1448 1529 
Q 2069 2156 2228 2338 
Q 2531 2678 2651 2914 
Q 2772 3150 2772 3378 
Q 2772 3750 2511 3984 
Q 2250 4219 1831 4219 
Q 1534 4219 1204 4116 
Q 875 4013 500 3803 
L 500 4441 
Q 881 4594 1212 4672 
Q 1544 4750 1819 4750 
Q 2544 4750 2975 4387 
Q 3406 4025 3406 3419 
Q 3406 3131 3298 2873 
Q 3191 2616 2906 2266 
Q 2828 2175 2409 1742 
Q 1991 1309 1228 531 
z
" transform="scale(0.015625)"/>
        <path id="DejaVuSans-30" d="M 2034 4250 
Q 1547 4250 1301 3770 
Q 1056 3291 1056 2328 
Q 1056 1369 1301 889 
Q 1547 409 2034 409 
Q 2525 409 2770 889 
Q 3016 1369 3016 2328 
Q 3016 3291 2770 3770 
Q 2525 4250 2034 4250 
z
M 2034 4750 
Q 2819 4750 3233 4129 
Q 3647 3509 3647 2328 
Q 3647 1150 3233 529 
Q 2819 -91 2034 -91 
Q 1250 -91 836 529 
Q 422 1150 422 2328 
Q 422 3509 836 4129 
Q 1250 4750 2034 4750 
z
" transform="scale(0.015625)"/>
        <path id="DejaVuSans-31" d="M 794 531 
L 1825 531 
L 1825 4091 
L 703 3866 
L 703 4441 
L 1819 4666 
L 2450 4666 
L 2450 531 
L 3481 531 
L 3481 0 
L 794 0 
L 794 531 
z
" transform="scale(0.015625)"/>
       </defs>
       <use xlink:href="#DejaVuSans-32"/>
       <use xlink:href="#DejaVuSans-30" x="63.623047"/>
       <use xlink:href="#DejaVuSans-31" x="127.246094"/>
       <use xlink:href="#DejaVuSans-32" x="190.869141"/>
      </g>
     </g>
    </g>
    <g id="xtick_2">
     <g id="line2d_2">
      <g>
       <use xlink:href="#m4bd6942fbd" x="1415.086006" y="961.2" style="stroke: #000000; stroke-width: 0.8"/>
      </g>
     </g>
     <g id="text_2">
      <!-- 2013 -->
      <g transform="translate(1389.636006 983.396875) scale(0.2 -0.2)">
       <defs>
        <path id="DejaVuSans-33" d="M 2597 2516 
Q 3050 2419 3304 2112 
Q 3559 1806 3559 1356 
Q 3559 666 3084 287 
Q 2609 -91 1734 -91 
Q 1441 -91 1130 -33 
Q 819 25 488 141 
L 488 750 
Q 750 597 1062 519 
Q 1375 441 1716 441 
Q 2309 441 2620 675 
Q 2931 909 2931 1356 
Q 2931 1769 2642 2001 
Q 2353 2234 1838 2234 
L 1294 2234 
L 1294 2753 
L 1863 2753 
Q 2328 2753 2575 2939 
Q 2822 3125 2822 3475 
Q 2822 3834 2567 4026 
Q 2313 4219 1838 4219 
Q 1578 4219 1281 4162 
Q 984 4106 628 3988 
L 628 4550 
Q 988 4650 1302 4700 
Q 1616 4750 1894 4750 
Q 2613 4750 3031 4423 
Q 3450 4097 3450 3541 
Q 3450 3153 3228 2886 
Q 3006 2619 2597 2516 
z
" transform="scale(0.015625)"/>
       </defs>
       <use xlink:href="#DejaVuSans-32"/>
       <use xlink:href="#DejaVuSans-30" x="63.623047"/>
       <use xlink:href="#DejaVuSans-31" x="127.246094"/>
       <use xlink:href="#DejaVuSans-33" x="190.869141"/>
      </g>
     </g>
    </g>
    <g id="xtick_3">
     <g id="line2d_3">
      <g>
       <use xlink:href="#m4bd6942fbd" x="2116.837927" y="961.2" style="stroke: #000000; stroke-width: 0.8"/>
      </g>
     </g>
     <g id="text_3">
      <!-- 2014 -->
      <g transform="translate(2091.387927 983.396875) scale(0.2 -0.2)">
       <defs>
        <path id="DejaVuSans-34" d="M 2419 4116 
L 825 1625 
L 2419 1625 
L 2419 4116 
z
M 2253 4666 
L 3047 4666 
L 3047 1625 
L 3713 1625 
L 3713 1100 
L 3047 1100 
L 3047 0 
L 2419 0 
L 2419 1100 
L 313 1100 
L 313 1709 
L 2253 4666 
z
" transform="scale(0.015625)"/>
       </defs>
       <use xlink:href="#DejaVuSans-32"/>
       <use xlink:href="#DejaVuSans-30" x="63.623047"/>
       <use xlink:href="#DejaVuSans-31" x="127.246094"/>
       <use xlink:href="#DejaVuSans-34" x="190.869141"/>
      </g>
     </g>
    </g>
    <g id="xtick_4">
     <g id="line2d_4">
      <g>
       <use xlink:href="#m4bd6942fbd" x="2818.589849" y="961.2" style="stroke: #000000; stroke-width: 0.8"/>
      </g>
     </g>
     <g id="text_4">
      <!-- 2015 -->
      <g transform="translate(2793.139849 983.396875) scale(0.2 -0.2)">
       <defs>
        <path id="DejaVuSans-35" d="M 691 4666 
L 3169 4666 
L 3169 4134 
L 1269 4134 
L 1269 2991 
Q 1406 3038 1543 3061 
Q 1681 3084 1819 3084 
Q 2600 3084 3056 2656 
Q 3513 2228 3513 1497 
Q 3513 744 3044 326 
Q 2575 -91 1722 -91 
Q 1428 -91 1123 -41 
Q 819 9 494 109 
L 494 744 
Q 775 591 1075 516 
Q 1375 441 1709 441 
Q 2250 441 2565 725 
Q 2881 1009 2881 1497 
Q 2881 1984 2565 2268 
Q 2250 2553 1709 2553 
Q 1456 2553 1204 2497 
Q 953 2441 691 2322 
L 691 4666 
z
" transform="scale(0.015625)"/>
       </defs>
       <use xlink:href="#DejaVuSans-32"/>
       <use xlink:href="#DejaVuSans-30" x="63.623047"/>
       <use xlink:href="#DejaVuSans-31" x="127.246094"/>
       <use xlink:href="#DejaVuSans-35" x="190.869141"/>
      </g>
     </g>
    </g>
    <g id="xtick_5">
     <g id="line2d_5">
      <g>
       <use xlink:href="#m4bd6942fbd" x="3520.34177" y="961.2" style="stroke: #000000; stroke-width: 0.8"/>
      </g>
     </g>
     <g id="text_5">
      <!-- 2016 -->
      <g transform="translate(3494.89177 983.396875) scale(0.2 -0.2)">
       <defs>
        <path id="DejaVuSans-36" d="M 2113 2584 
Q 1688 2584 1439 2293 
Q 1191 2003 1191 1497 
Q 1191 994 1439 701 
Q 1688 409 2113 409 
Q 2538 409 2786 701 
Q 3034 994 3034 1497 
Q 3034 2003 2786 2293 
Q 2538 2584 2113 2584 
z
M 3366 4563 
L 3366 3988 
Q 3128 4100 2886 4159 
Q 2644 4219 2406 4219 
Q 1781 4219 1451 3797 
Q 1122 3375 1075 2522 
Q 1259 2794 1537 2939 
Q 1816 3084 2150 3084 
Q 2853 3084 3261 2657 
Q 3669 2231 3669 1497 
Q 3669 778 3244 343 
Q 2819 -91 2113 -91 
Q 1303 -91 875 529 
Q 447 1150 447 2328 
Q 447 3434 972 4092 
Q 1497 4750 2381 4750 
Q 2619 4750 2861 4703 
Q 3103 4656 3366 4563 
z
" transform="scale(0.015625)"/>
       </defs>
       <use xlink:href="#DejaVuSans-32"/>
       <use xlink:href="#DejaVuSans-30" x="63.623047"/>
       <use xlink:href="#DejaVuSans-31" x="127.246094"/>
       <use xlink:href="#DejaVuSans-36" x="190.869141"/>
      </g>
     </g>
    </g>
    <g id="text_6">
     <!-- Time -->
     <g transform="translate(2374.032813 1006.753125) scale(0.2 -0.2)">
      <defs>
       <path id="DejaVuSans-54" d="M -19 4666 
L 3928 4666 
L 3928 4134 
L 2272 4134 
L 2272 0 
L 1638 0 
L 1638 4134 
L -19 4134 
L -19 4666 
z
" transform="scale(0.015625)"/>
       <path id="DejaVuSans-69" d="M 603 3500 
L 1178 3500 
L 1178 0 
L 603 0 
L 603 3500 
z
M 603 4863 
L 1178 4863 
L 1178 4134 
L 603 4134 
L 603 4863 
z
" transform="scale(0.015625)"/>
       <path id="DejaVuSans-6d" d="M 3328 2828 
Q 3544 3216 3844 3400 
Q 4144 3584 4550 3584 
Q 5097 3584 5394 3201 
Q 5691 2819 5691 2113 
L 5691 0 
L 5113 0 
L 5113 2094 
Q 5113 2597 4934 2840 
Q 4756 3084 4391 3084 
Q 3944 3084 3684 2787 
Q 3425 2491 3425 1978 
L 3425 0 
L 2847 0 
L 2847 2094 
Q 2847 2600 2669 2842 
Q 2491 3084 2119 3084 
Q 1678 3084 1418 2786 
Q 1159 2488 1159 1978 
L 1159 0 
L 581 0 
L 581 3500 
L 1159 3500 
L 1159 2956 
Q 1356 3278 1631 3431 
Q 1906 3584 2284 3584 
Q 2666 3584 2933 3390 
Q 3200 3197 3328 2828 
z
" transform="scale(0.015625)"/>
       <path id="DejaVuSans-65" d="M 3597 1894 
L 3597 1613 
L 953 1613 
Q 991 1019 1311 708 
Q 1631 397 2203 397 
Q 2534 397 2845 478 
Q 3156 559 3463 722 
L 3463 178 
Q 3153 47 2828 -22 
Q 2503 -91 2169 -91 
Q 1331 -91 842 396 
Q 353 884 353 1716 
Q 353 2575 817 3079 
Q 1281 3584 2069 3584 
Q 2775 3584 3186 3129 
Q 3597 2675 3597 1894 
z
M 3022 2063 
Q 3016 2534 2758 2815 
Q 2500 3097 2075 3097 
Q 1594 3097 1305 2825 
Q 1016 2553 972 2059 
L 3022 2063 
z
" transform="scale(0.015625)"/>
      </defs>
      <use xlink:href="#DejaVuSans-54"/>
      <use xlink:href="#DejaVuSans-69" x="57.958984"/>
      <use xlink:href="#DejaVuSans-6d" x="85.742188"/>
      <use xlink:href="#DejaVuSans-65" x="183.154297"/>
     </g>
    </g>
   </g>
   <g id="matplotlib.axis_2">
    <g id="ytick_1">
     <g id="line2d_6">
      <defs>
       <path id="mcbbf474b41" d="M 0 0 
L -3.5 0 
" style="stroke: #000000; stroke-width: 0.8"/>
      </defs>
      <g>
       <use xlink:href="#mcbbf474b41" x="585" y="801.981569" style="stroke: #000000; stroke-width: 0.8"/>
      </g>
     </g>
     <g id="text_7">
      <!-- −0.004 -->
      <g transform="translate(503.984375 809.580007) scale(0.2 -0.2)">
       <defs>
        <path id="DejaVuSans-2212" d="M 678 2272 
L 4684 2272 
L 4684 1741 
L 678 1741 
L 678 2272 
z
" transform="scale(0.015625)"/>
        <path id="DejaVuSans-2e" d="M 684 794 
L 1344 794 
L 1344 0 
L 684 0 
L 684 794 
z
" transform="scale(0.015625)"/>
       </defs>
       <use xlink:href="#DejaVuSans-2212"/>
       <use xlink:href="#DejaVuSans-30" x="83.789062"/>
       <use xlink:href="#DejaVuSans-2e" x="147.412109"/>
       <use xlink:href="#DejaVuSans-30" x="179.199219"/>
       <use xlink:href="#DejaVuSans-30" x="242.822266"/>
       <use xlink:href="#DejaVuSans-34" x="306.445312"/>
      </g>
     </g>
    </g>
    <g id="ytick_2">
     <g id="line2d_7">
      <g>
       <use xlink:href="#mcbbf474b41" x="585" y="638.02924" style="stroke: #000000; stroke-width: 0.8"/>
      </g>
     </g>
     <g id="text_8">
      <!-- −0.002 -->
      <g transform="translate(503.984375 645.627678) scale(0.2 -0.2)">
       <use xlink:href="#DejaVuSans-2212"/>
       <use xlink:href="#DejaVuSans-30" x="83.789062"/>
       <use xlink:href="#DejaVuSans-2e" x="147.412109"/>
       <use xlink:href="#DejaVuSans-30" x="179.199219"/>
       <use xlink:href="#DejaVuSans-30" x="242.822266"/>
       <use xlink:href="#DejaVuSans-32" x="306.445312"/>
      </g>
     </g>
    </g>
    <g id="ytick_3">
     <g id="line2d_8">
      <g>
       <use xlink:href="#mcbbf474b41" x="585" y="474.076912" style="stroke: #000000; stroke-width: 0.8"/>
      </g>
     </g>
     <g id="text_9">
      <!-- 0.000 -->
      <g transform="translate(520.74375 481.675349) scale(0.2 -0.2)">
       <use xlink:href="#DejaVuSans-30"/>
       <use xlink:href="#DejaVuSans-2e" x="63.623047"/>
       <use xlink:href="#DejaVuSans-30" x="95.410156"/>
       <use xlink:href="#DejaVuSans-30" x="159.033203"/>
       <use xlink:href="#DejaVuSans-30" x="222.65625"/>
      </g>
     </g>
    </g>
    <g id="ytick_4">
     <g id="line2d_9">
      <g>
       <use xlink:href="#mcbbf474b41" x="585" y="310.124583" style="stroke: #000000; stroke-width: 0.8"/>
      </g>
     </g>
     <g id="text_10">
      <!-- 0.002 -->
      <g transform="translate(520.74375 317.72302) scale(0.2 -0.2)">
       <use xlink:href="#DejaVuSans-30"/>
       <use xlink:href="#DejaVuSans-2e" x="63.623047"/>
       <use xlink:href="#DejaVuSans-30" x="95.410156"/>
       <use xlink:href="#DejaVuSans-30" x="159.033203"/>
       <use xlink:href="#DejaVuSans-32" x="222.65625"/>
      </g>
     </g>
    </g>
    <g id="ytick_5">
     <g id="line2d_10">
      <g>
       <use xlink:href="#mcbbf474b41" x="585" y="146.172254" style="stroke: #000000; stroke-width: 0.8"/>
      </g>
     </g>
     <g id="text_11">
      <!-- 0.004 -->
      <g transform="translate(520.74375 153.770692) scale(0.2 -0.2)">
       <use xlink:href="#DejaVuSans-30"/>
       <use xlink:href="#DejaVuSans-2e" x="63.623047"/>
       <use xlink:href="#DejaVuSans-30" x="95.410156"/>
       <use xlink:href="#DejaVuSans-30" x="159.033203"/>
       <use xlink:href="#DejaVuSans-34" x="222.65625"/>
      </g>
     </g>
    </g>
    <g id="text_12">
     <!-- East(m) -->
     <g transform="translate(495.825 584.520313) rotate(-90) scale(0.2 -0.2)">
      <defs>
       <path id="DejaVuSans-45" d="M 628 4666 
L 3578 4666 
L 3578 4134 
L 1259 4134 
L 1259 2753 
L 3481 2753 
L 3481 2222 
L 1259 2222 
L 1259 531 
L 3634 531 
L 3634 0 
L 628 0 
L 628 4666 
z
" transform="scale(0.015625)"/>
       <path id="DejaVuSans-61" d="M 2194 1759 
Q 1497 1759 1228 1600 
Q 959 1441 959 1056 
Q 959 750 1161 570 
Q 1363 391 1709 391 
Q 2188 391 2477 730 
Q 2766 1069 2766 1631 
L 2766 1759 
L 2194 1759 
z
M 3341 1997 
L 3341 0 
L 2766 0 
L 2766 531 
Q 2569 213 2275 61 
Q 1981 -91 1556 -91 
Q 1019 -91 701 211 
Q 384 513 384 1019 
Q 384 1609 779 1909 
Q 1175 2209 1959 2209 
L 2766 2209 
L 2766 2266 
Q 2766 2663 2505 2880 
Q 2244 3097 1772 3097 
Q 1472 3097 1187 3025 
Q 903 2953 641 2809 
L 641 3341 
Q 956 3463 1253 3523 
Q 1550 3584 1831 3584 
Q 2591 3584 2966 3190 
Q 3341 2797 3341 1997 
z
" transform="scale(0.015625)"/>
       <path id="DejaVuSans-73" d="M 2834 3397 
L 2834 2853 
Q 2591 2978 2328 3040 
Q 2066 3103 1784 3103 
Q 1356 3103 1142 2972 
Q 928 2841 928 2578 
Q 928 2378 1081 2264 
Q 1234 2150 1697 2047 
L 1894 2003 
Q 2506 1872 2764 1633 
Q 3022 1394 3022 966 
Q 3022 478 2636 193 
Q 2250 -91 1575 -91 
Q 1294 -91 989 -36 
Q 684 19 347 128 
L 347 722 
Q 666 556 975 473 
Q 1284 391 1588 391 
Q 1994 391 2212 530 
Q 2431 669 2431 922 
Q 2431 1156 2273 1281 
Q 2116 1406 1581 1522 
L 1381 1569 
Q 847 1681 609 1914 
Q 372 2147 372 2553 
Q 372 3047 722 3315 
Q 1072 3584 1716 3584 
Q 2034 3584 2315 3537 
Q 2597 3491 2834 3397 
z
" transform="scale(0.015625)"/>
       <path id="DejaVuSans-74" d="M 1172 4494 
L 1172 3500 
L 2356 3500 
L 2356 3053 
L 1172 3053 
L 1172 1153 
Q 1172 725 1289 603 
Q 1406 481 1766 481 
L 2356 481 
L 2356 0 
L 1766 0 
Q 1100 0 847 248 
Q 594 497 594 1153 
L 594 3053 
L 172 3053 
L 172 3500 
L 594 3500 
L 594 4494 
L 1172 4494 
z
" transform="scale(0.015625)"/>
       <path id="DejaVuSans-28" d="M 1984 4856 
Q 1566 4138 1362 3434 
Q 1159 2731 1159 2009 
Q 1159 1288 1364 580 
Q 1569 -128 1984 -844 
L 1484 -844 
Q 1016 -109 783 600 
Q 550 1309 550 2009 
Q 550 2706 781 3412 
Q 1013 4119 1484 4856 
L 1984 4856 
z
" transform="scale(0.015625)"/>
       <path id="DejaVuSans-29" d="M 513 4856 
L 1013 4856 
Q 1481 4119 1714 3412 
Q 1947 2706 1947 2009 
Q 1947 1309 1714 600 
Q 1481 -109 1013 -844 
L 513 -844 
Q 928 -128 1133 580 
Q 1338 1288 1338 2009 
Q 1338 2731 1133 3434 
Q 928 4138 513 4856 
z
" transform="scale(0.015625)"/>
      </defs>
      <use xlink:href="#DejaVuSans-45"/>
      <use xlink:href="#DejaVuSans-61" x="63.183594"/>
      <use xlink:href="#DejaVuSans-73" x="124.462891"/>
      <use xlink:href="#DejaVuSans-74" x="176.5625"/>
      <use xlink:href="#DejaVuSans-28" x="215.771484"/>
      <use xlink:href="#DejaVuSans-6d" x="254.785156"/>
      <use xlink:href="#DejaVuSans-29" x="352.197266"/>
     </g>
    </g>
   </g>
   <g id="line2d_11">
    <path d="M 749.863636 297.645627 
L 751.786244 272.800495 
L 753.708852 290.182857 
L 755.63146 270.412268 
L 757.554068 242.526751 
L 759.476676 229.34811 
L 761.399284 234.913167 
L 763.321892 215.972912 
L 765.2445 210.902718 
L 767.167108 186.799757 
L 769.089716 181.114543 
L 771.012324 194.905014 
L 772.934932 187.821145 
L 774.85754 167.4 
L 776.780148 178.767375 
L 778.702756 177.525573 
L 780.625364 181.806647 
L 782.547972 194.044399 
L 784.47058 192.710053 
L 786.393188 213.502656 
L 788.315796 230.168173 
L 790.238404 232.48449 
L 792.161012 245.690781 
L 794.08362 261.979767 
L 796.006228 270.449329 
L 797.928836 295.771731 
L 799.851444 307.332317 
L 801.774052 319.785264 
L 803.69666 308.936621 
L 805.619268 303.2707 
L 807.541876 299.058106 
L 815.232309 238.846615 
L 817.154917 279.289724 
L 821.000133 288.252525 
L 822.922741 304.331804 
L 824.845349 330.264901 
L 826.767957 333.150359 
L 828.690565 323.581445 
L 830.613173 292.326177 
L 832.535781 282.560068 
L 834.458389 311.683761 
L 836.380997 309.380914 
L 838.303605 305.822518 
L 840.226213 299.292777 
L 842.148821 288.177076 
L 844.071429 281.653468 
L 845.994037 295.722372 
L 847.916645 297.394007 
L 849.839253 312.870144 
L 853.684469 336.537468 
L 855.607077 337.069556 
L 859.452293 344.054004 
L 861.374901 325.385277 
L 865.220117 311.533398 
L 867.142725 284.497923 
L 869.065333 292.293627 
L 870.987941 307.16651 
L 872.910549 292.327128 
L 874.833157 298.290982 
L 878.678373 330.077734 
L 880.600981 351.798156 
L 882.523589 353.49969 
L 884.446197 334.47655 
L 890.214021 312.737092 
L 892.136629 320.68839 
L 894.059237 309.080597 
L 895.981845 296.096974 
L 897.904453 305.810303 
L 899.827061 325.332901 
L 901.749669 337.14795 
L 903.672277 358.896405 
L 905.594885 361.400225 
L 907.517493 343.114218 
L 909.440101 361.150234 
L 911.362709 359.609916 
L 913.285317 368.313869 
L 917.130533 347.19055 
L 919.053141 316.667711 
L 920.975749 322.459699 
L 922.898357 322.680567 
L 924.820965 310.11637 
L 926.743573 293.058347 
L 928.666181 286.341238 
L 932.511397 318.148698 
L 934.434005 322.494147 
L 936.356613 306.55436 
L 938.279221 313.446766 
L 949.814869 294.366063 
L 955.582693 302.341678 
L 957.505301 307.283837 
L 959.427909 300.61433 
L 961.350517 281.20961 
L 969.040949 336.336466 
L 974.808773 365.015372 
L 976.731381 346.403013 
L 978.653989 331.752585 
L 980.576597 344.539496 
L 984.421813 333.888134 
L 986.344421 345.642801 
L 988.267029 351.284122 
L 990.189637 409.711076 
L 992.112245 407.051924 
L 997.880069 392.95918 
L 999.802677 377.073763 
L 1001.725285 371.514237 
L 1007.493109 290.456088 
L 1009.415717 306.203941 
L 1011.338325 331.918866 
L 1013.260933 342.889503 
L 1015.183541 341.913045 
L 1017.106149 348.932742 
L 1019.028757 376.392093 
L 1020.951365 410.096024 
L 1022.873973 397.388984 
L 1024.796581 396.021022 
L 1026.719189 395.44833 
L 1028.641797 405.271057 
L 1030.564405 426.951184 
L 1034.409621 427.69918 
L 1036.332229 433.516657 
L 1038.254837 445.853373 
L 1042.100053 473.546064 
L 1053.635701 499.630592 
L 1057.480917 505.126041 
L 1159.379141 521.282398 
L 1161.301749 507.213982 
L 1163.224357 509.974855 
L 1318.955606 319.444724 
L 1320.878214 304.399156 
L 1322.800822 316.589461 
L 1332.413862 350.105697 
L 1336.259078 360.082125 
L 1338.181686 366.156532 
L 1340.104294 393.719222 
L 1342.026902 392.951962 
L 1343.94951 403.429911 
L 1345.872118 393.826804 
L 1347.794726 400.093716 
L 1365.098198 437.242528 
L 1368.943414 408.948121 
L 1415.086006 385.033497 
L 1417.008614 393.057118 
L 1424.699046 451.738211 
L 1426.621654 476.660267 
L 1428.544262 491.243542 
L 1430.46687 486.86726 
L 1432.389478 506.094865 
L 1436.234694 476.456278 
L 1438.157302 474.251425 
L 1442.002518 423.449809 
L 1472.764246 524.428572 
L 1474.686854 560.454394 
L 1476.609462 582.748446 
L 1480.454678 587.729264 
L 1482.377286 585.585512 
L 1484.299894 574.841696 
L 1486.222502 572.403228 
L 1488.14511 548.14889 
L 1490.067718 516.194597 
L 1491.990326 496.192283 
L 1499.680758 531.757793 
L 1501.603366 529.746291 
L 1503.525974 550.395806 
L 1509.293798 544.231805 
L 1511.216406 537.188121 
L 1513.139014 517.219231 
L 1515.061622 528.956565 
L 1516.98423 515.513905 
L 1520.829446 473.175857 
L 1522.752054 465.538629 
L 1524.674662 486.766662 
L 1528.519878 509.16796 
L 1530.442486 521.464668 
L 1532.365094 528.782631 
L 1541.978134 479.729915 
L 1543.900742 492.690788 
L 1545.82335 503.725194 
L 1547.745958 478.149069 
L 1549.668566 475.838084 
L 1551.591174 493.695345 
L 1553.513782 483.229429 
L 1555.43639 458.914271 
L 1557.358998 409.211063 
L 1559.281606 382.357825 
L 1563.126822 397.728205 
L 1565.04943 402.067163 
L 1566.972038 382.873076 
L 1568.894646 385.489425 
L 1572.739862 438.858956 
L 1574.66247 457.267221 
L 1578.507686 458.101907 
L 1580.430294 484.093603 
L 1582.352902 497.382493 
L 1584.27551 465.767515 
L 1586.198118 469.503028 
L 1588.120726 452.530728 
L 1590.043334 462.091436 
L 1593.88855 451.592553 
L 1636.185926 460.490094 
L 1640.031142 467.581778 
L 1641.95375 465.608878 
L 1645.798966 507.703093 
L 1647.721574 512.022166 
L 1649.644182 499.788932 
L 1653.489398 511.769718 
L 1655.412006 513.425315 
L 1657.334614 473.189632 
L 1665.025046 402.990583 
L 1666.947654 391.666329 
L 1668.870262 407.894302 
L 1672.715478 432.544163 
L 1674.638086 434.420069 
L 1676.560694 440.10455 
L 1678.483302 423.387749 
L 1680.40591 436.84102 
L 1684.251126 406.170901 
L 1686.173734 408.623244 
L 1691.941558 499.096992 
L 1693.864166 486.431085 
L 1695.786774 488.276787 
L 1697.709382 480.645342 
L 1699.63199 484.039574 
L 1701.554598 480.052615 
L 1703.477206 453.03869 
L 1722.703287 491.732402 
L 1724.625895 469.380402 
L 1726.548503 480.06664 
L 1728.471111 483.082095 
L 1730.393719 480.543885 
L 1732.316327 475.583296 
L 1734.238935 472.164759 
L 1736.161543 467.495812 
L 1738.084151 490.584726 
L 1740.006759 499.805463 
L 1743.851975 504.964695 
L 1745.774583 505.285932 
L 1751.542407 517.755699 
L 1753.465015 526.138416 
L 1755.387623 514.333398 
L 1757.310231 494.724764 
L 1759.232839 519.892802 
L 1761.155447 506.556439 
L 1765.000663 540.711872 
L 1766.923271 529.673112 
L 1772.691095 605.828093 
L 1774.613703 621.718981 
L 1776.536311 625.767929 
L 1780.381527 638.508891 
L 1782.304135 608.177613 
L 1784.226743 599.933148 
L 1786.149351 598.031054 
L 1788.071959 579.132288 
L 1789.994567 579.069993 
L 1801.530215 669.22905 
L 1805.375431 646.416362 
L 1807.298039 612.222161 
L 1809.220647 593.314415 
L 1811.143255 606.963762 
L 1813.065863 616.466428 
L 1816.911079 642.315957 
L 1818.833687 652.915062 
L 1820.756295 649.213951 
L 1822.678903 628.448996 
L 1824.601511 594.652555 
L 1830.369335 572.748739 
L 1832.291943 559.239918 
L 1834.214551 567.861263 
L 1836.137159 607.222228 
L 1838.059767 599.344503 
L 1839.982375 609.157027 
L 1841.904983 579.480186 
L 1845.750199 540.3257 
L 1847.672807 528.975745 
L 1859.208455 427.418213 
L 1861.131063 414.378224 
L 1863.053671 421.538409 
L 1864.976279 439.894769 
L 1866.898887 455.229163 
L 1868.821495 503.080322 
L 1870.744103 503.267311 
L 1872.666711 531.21383 
L 1874.589319 534.852367 
L 1876.511927 536.827123 
L 1878.434535 531.143791 
L 1880.357143 529.691738 
L 1884.202359 498.910755 
L 1886.124967 448.231193 
L 1888.047575 437.073137 
L 1889.970183 414.587176 
L 1891.892791 414.90109 
L 1893.815399 403.300738 
L 1895.738007 411.099668 
L 1899.583223 411.00928 
L 1901.505831 433.930256 
L 1903.428439 446.450698 
L 1907.273655 435.952585 
L 1909.196263 431.45878 
L 1911.118871 436.686983 
L 1913.041479 454.936763 
L 1914.964087 442.104887 
L 2024.552743 410.31699 
L 2028.397959 440.235438 
L 2030.320567 476.024416 
L 2032.243175 494.188825 
L 2034.165783 482.223566 
L 2036.088391 502.51158 
L 2038.010999 515.115003 
L 2039.933607 521.481376 
L 2051.469255 592.218928 
L 2057.237079 576.506711 
L 2059.159687 557.683843 
L 2061.082295 563.200623 
L 2063.004903 581.892455 
L 2064.927511 574.57858 
L 2068.772727 574.444895 
L 2137.986615 527.277907 
L 2139.909223 567.003646 
L 2143.754439 596.007257 
L 2145.677047 584.409323 
L 2172.59356 591.259779 
L 2255.265704 575.272924 
L 2257.188312 600.687559 
L 2261.033528 656.979831 
L 2262.956136 654.126259 
L 2264.878744 668.729455 
L 2266.801352 685.1834 
L 2268.72396 683.076828 
L 2270.646568 685.82075 
L 2272.569176 720.072012 
L 2274.491784 722.378985 
L 2276.414392 733.618864 
L 2282.182216 728.088137 
L 2314.866552 656.097177 
L 2316.78916 667.667318 
L 2328.324808 752.453098 
L 2330.247416 745.148017 
L 2332.170024 744.959865 
L 2334.092632 728.655602 
L 2355.24132 705.714824 
L 2485.978664 923.4 
L 2487.901272 902.515992 
L 2489.82388 883.368273 
L 2491.746488 848.783991 
L 2495.591704 845.036837 
L 2512.895176 810.514041 
L 2747.453353 201.750452 
L 2997.392393 193.073243 
L 2999.315001 229.723136 
L 3001.237609 252.655617 
L 3014.695865 362.903533 
L 3018.541081 370.770187 
L 3020.463689 411.652462 
L 3024.308905 398.047013 
L 3026.231513 414.098402 
L 3030.076729 439.04196 
L 3031.999337 441.875752 
L 3055.070633 484.447533 
L 3056.993241 489.741236 
L 3058.915849 506.501102 
L 3062.761065 448.3838 
L 3064.683673 439.506447 
L 3068.528889 452.096967 
L 3072.374105 390.22451 
L 3076.219321 395.892476 
L 3078.141929 418.760961 
L 3081.987146 409.712473 
L 3085.832362 376.985931 
L 3087.75497 401.82341 
L 3089.677578 412.412903 
L 3093.522794 431.757353 
L 3095.445402 442.5068 
L 3097.36801 460.255178 
L 3101.213226 484.686861 
L 3106.98105 491.23221 
L 3112.748874 504.747433 
L 3114.671482 492.868556 
L 3116.59409 513.963304 
L 3122.361914 528.000156 
L 3124.284522 549.653586 
L 3126.20713 532.973871 
L 3128.129738 540.650045 
L 3133.897562 508.4077 
L 3135.82017 494.281212 
L 3137.742778 462.641487 
L 3139.665386 479.309983 
L 3141.587994 475.631277 
L 3145.43321 483.737046 
L 3147.355818 491.540137 
L 3151.201034 502.850067 
L 3153.123642 469.555124 
L 3155.04625 461.957639 
L 3158.891466 479.225357 
L 3160.814074 475.657419 
L 3162.736682 494.360246 
L 3164.65929 485.308402 
L 3189.653194 497.680267 
L 3191.575802 485.331188 
L 3193.49841 458.968708 
L 3195.421018 453.267163 
L 3197.343626 462.463792 
L 3199.266234 453.488681 
L 3205.034058 508.358628 
L 3216.569706 575.495348 
L 3220.414922 532.189377 
L 3222.33753 493.419333 
L 3224.260138 527.156636 
L 3226.182746 494.41926 
L 3230.027962 464.682927 
L 3237.718394 453.613984 
L 3239.641002 487.541035 
L 3256.944474 504.407508 
L 3258.867082 531.437219 
L 3260.78969 514.269683 
L 3264.634906 518.166349 
L 3266.557514 494.149265 
L 3268.480122 482.223694 
L 3270.40273 483.736698 
L 3272.325338 439.723884 
L 3274.247946 451.459074 
L 3276.170554 464.386118 
L 3283.860986 454.394948 
L 3291.551418 469.385073 
L 3293.474026 464.761421 
L 3295.396634 453.326687 
L 3297.319242 468.584811 
L 3299.24185 471.32973 
L 3301.164458 464.384083 
L 3303.087066 439.885247 
L 3305.009674 434.693952 
L 3306.932282 440.308607 
L 3308.85489 443.864431 
L 3314.622714 453.752627 
L 3322.313146 578.156653 
L 3324.235754 571.675752 
L 3326.158362 546.41625 
L 3328.08097 547.209477 
L 3330.003578 539.357804 
L 3331.926186 516.729239 
L 3335.771402 464.231104 
L 3337.69401 454.613339 
L 3339.616618 455.801877 
L 3341.539226 451.442084 
L 3343.461834 455.21894 
L 3345.384442 428.144256 
L 3347.30705 415.353365 
L 3349.229658 422.603739 
L 3351.152266 441.852172 
L 3353.074874 449.968018 
L 3354.997482 438.931275 
L 3356.92009 435.851283 
L 3358.842698 457.798381 
L 3360.765306 457.591758 
L 3362.687914 444.896615 
L 3364.610522 438.843419 
L 3368.455738 421.599821 
L 3370.378346 423.636759 
L 3372.300954 445.969715 
L 3374.223562 453.09834 
L 3376.14617 485.242794 
L 3378.068778 483.331233 
L 3379.991386 492.156997 
L 3381.913994 514.859485 
L 3383.836602 524.810623 
L 3385.75921 510.099157 
L 3387.681818 521.688208 
L 3389.604426 513.047628 
L 3393.449642 537.66418 
L 3395.37225 532.835553 
L 3397.294858 533.939922 
L 3399.217466 521.40283 
L 3401.140074 521.17017 
L 3403.062682 525.509414 
L 3404.98529 526.98065 
L 3406.907898 530.876205 
L 3410.753114 542.847161 
L 3412.675722 555.272224 
L 3414.59833 563.134176 
L 3416.520938 576.164109 
L 3418.443546 583.072987 
L 3420.366154 588.175647 
L 3422.288762 573.695888 
L 3424.21137 580.998033 
L 3426.133978 596.794943 
L 3428.056586 590.475835 
L 3429.979194 591.866499 
L 3431.901802 603.296742 
L 3433.82441 592.257844 
L 3435.747018 592.979484 
L 3437.669626 562.195635 
L 3439.592234 552.54413 
L 3441.514842 553.912687 
L 3443.43745 527.923284 
L 3445.360058 495.292757 
L 3447.282666 488.592745 
L 3449.205274 499.818125 
L 3451.127882 527.757281 
L 3453.05049 526.499121 
L 3454.973098 515.577397 
L 3456.895706 526.624655 
L 3458.818314 541.898379 
L 3460.740922 544.840655 
L 3462.66353 562.539148 
L 3464.586138 578.540042 
L 3466.508746 581.635234 
L 3468.431354 590.549406 
L 3470.353962 604.66862 
L 3472.27657 612.214097 
L 3474.199178 627.22162 
L 3476.121786 628.08256 
L 3478.044394 624.858794 
L 3479.967002 655.331395 
L 3481.88961 678.556465 
L 3483.812218 671.099854 
L 3485.734826 647.541395 
L 3487.657434 642.185619 
L 3489.580042 647.366456 
L 3493.425258 641.947967 
L 3495.347866 630.048033 
L 3497.270474 635.03108 
L 3499.193082 658.291864 
L 3501.11569 675.891095 
L 3503.038298 685.795287 
L 3504.960906 674.575268 
L 3506.883514 648.074327 
L 3508.806122 647.326735 
L 3510.72873 647.756273 
L 3512.651338 654.82583 
L 3514.573946 658.788118 
L 3516.496554 642.875988 
L 3518.419162 656.836666 
L 3522.264378 648.788765 
L 3524.186986 629.100009 
L 3526.109594 627.136542 
L 3528.032202 614.926802 
L 3529.95481 620.944831 
L 3531.877418 630.186357 
L 3533.800027 619.443286 
L 3535.722635 619.34997 
L 3537.645243 624.612486 
L 3539.567851 611.985964 
L 3541.490459 620.553702 
L 3543.413067 616.37532 
L 3545.335675 593.3389 
L 3547.258283 613.893618 
L 3549.180891 620.496233 
L 3551.103499 623.909631 
L 3553.026107 639.204469 
L 3554.948715 611.294212 
L 3556.871323 598.952873 
L 3558.793931 585.090665 
L 3560.716539 553.116288 
L 3562.639147 567.88659 
L 3564.561755 560.846634 
L 3574.174795 605.670373 
L 3576.097403 605.24761 
L 3578.020011 613.865235 
L 3581.865227 590.382555 
L 3583.787835 597.411299 
L 3585.710443 610.30725 
L 3587.633051 577.616264 
L 3589.555659 574.543557 
L 3591.478267 550.010015 
L 3593.400875 558.275072 
L 3595.323483 553.67681 
L 3635.698251 502.387872 
L 3637.620859 495.432784 
L 3641.466075 485.749139 
L 3647.233899 461.844049 
L 3649.156507 436.037025 
L 3651.079115 416.450102 
L 3653.001723 421.345762 
L 3654.924331 425.000166 
L 3656.846939 449.482259 
L 3658.769547 457.007082 
L 3660.692155 439.575795 
L 3662.614763 435.623227 
L 3664.537371 440.323444 
L 3666.459979 452.392854 
L 3668.382587 445.813044 
L 3670.305195 449.133361 
L 3672.227803 451.462372 
L 3674.150411 453.071306 
L 3676.073019 444.466358 
L 3677.995627 459.584828 
L 3679.918235 451.297521 
L 3681.840843 461.427943 
L 3683.763451 441.057074 
L 3685.686059 426.216133 
L 3687.608667 450.277793 
L 3689.531275 457.496311 
L 3693.376491 411.918983 
L 3695.299099 409.556165 
L 3697.221707 400.365086 
L 3699.144315 408.462537 
L 3701.066923 379.976403 
L 3702.989531 407.106849 
L 3704.912139 410.331677 
L 3706.834747 412.617496 
L 3708.757355 407.950233 
L 3710.679963 436.082445 
L 3712.602571 445.265383 
L 3714.525179 459.55454 
L 3718.370395 441.307812 
L 3720.293003 458.43498 
L 3722.215611 462.231286 
L 3724.138219 437.24676 
L 3727.983435 450.181426 
L 3729.906043 455.76278 
L 3731.828651 452.245671 
L 3733.751259 438.234655 
L 3735.673867 446.458318 
L 3739.519083 472.60479 
L 3741.441691 452.80607 
L 3743.364299 428.954198 
L 3745.286907 434.06872 
L 3747.209515 440.804244 
L 3749.132123 420.360156 
L 3751.054731 391.551379 
L 3754.899947 372.957056 
L 3756.822555 396.335013 
L 3758.745163 416.483612 
L 3760.667771 428.575836 
L 3762.590379 443.938411 
L 3768.358203 398.215596 
L 3770.280811 415.834956 
L 3772.203419 384.233189 
L 3774.126027 378.362404 
L 3776.048635 393.399506 
L 3777.971243 411.346357 
L 3779.893851 454.877277 
L 3877.946859 478.558606 
L 3879.869467 492.312407 
L 3881.792075 453.241835 
L 3887.559899 500.828382 
L 3889.482507 503.380808 
L 3891.405115 508.010718 
L 3897.172939 467.924517 
L 3904.863371 445.290465 
L 3908.708587 467.482164 
L 3926.012059 528.298865 
L 3927.934667 492.745746 
L 3929.857275 477.399537 
L 3931.779883 466.398208 
L 3933.702491 451.765759 
L 3943.315531 427.461819 
L 3945.238139 428.285155 
L 3951.005963 443.720595 
L 3952.928571 439.318086 
L 3954.851179 427.307675 
L 3956.773787 430.766878 
L 3958.696395 408.080786 
L 3960.619003 424.344351 
L 3962.541611 397.234235 
L 3968.309435 419.969077 
L 3974.077259 433.443368 
L 3975.999867 448.500672 
L 3977.922475 449.329144 
L 3979.845083 447.724644 
L 3981.767691 450.694849 
L 3985.612908 428.05703 
L 3987.535516 413.801708 
L 3989.458124 391.828538 
L 3991.380732 378.938534 
L 4000.993772 358.246416 
L 4002.91638 351.224752 
L 4004.838988 351.257231 
L 4006.761596 367.383407 
L 4008.684204 364.10126 
L 4010.606812 377.122365 
L 4012.52942 391.969071 
L 4014.452028 392.403634 
L 4016.374636 410.713446 
L 4018.297244 420.352626 
L 4020.219852 407.8049 
L 4022.14246 429.973592 
L 4024.065068 401.482235 
L 4025.987676 395.865472 
L 4027.910284 404.41771 
L 4029.832892 377.268921 
L 4041.36854 327.577095 
L 4043.291148 324.016318 
L 4045.213756 334.798124 
L 4047.136364 312.735484 
L 4047.136364 312.735484 
" clip-path="url(#p9a7fc5b78b)" style="fill: none; stroke: #8b2be2; stroke-width: 2.5; stroke-linecap: square"/>
   </g>
   <g id="patch_3">
    <path d="M 585 961.2 
L 585 129.6 
" style="fill: none; stroke: #000000; stroke-width: 0.8; stroke-linejoin: miter; stroke-linecap: square"/>
   </g>
   <g id="patch_4">
    <path d="M 4212 961.2 
L 4212 129.6 
" style="fill: none; stroke: #000000; stroke-width: 0.8; stroke-linejoin: miter; stroke-linecap: square"/>
   </g>
   <g id="patch_5">
    <path d="M 585 961.2 
L 4212 961.2 
" style="fill: none; stroke: #000000; stroke-width: 0.8; stroke-linejoin: miter; stroke-linecap: square"/>
   </g>
   <g id="patch_6">
    <path d="M 585 129.6 
L 4212 129.6 
" style="fill: none; stroke: #000000; stroke-width: 0.8; stroke-linejoin: miter; stroke-linecap: square"/>
   </g>
   <g id="text_13">
    <!-- MT06 -->
    <g transform="translate(2357.308594 123.360937) scale(0.3 -0.3)">
     <defs>
      <path id="DejaVuSans-4d" d="M 628 4666 
L 1569 4666 
L 2759 1491 
L 3956 4666 
L 4897 4666 
L 4897 0 
L 4281 0 
L 4281 4097 
L 3078 897 
L 2444 897 
L 1241 4097 
L 1241 0 
L 628 0 
L 628 4666 
z
" transform="scale(0.015625)"/>
     </defs>
     <use xlink:href="#DejaVuSans-4d"/>
     <use xlink:href="#DejaVuSans-54" x="86.279297"/>
     <use xlink:href="#DejaVuSans-30" x="147.363281"/>
     <use xlink:href="#DejaVuSans-36" x="210.986328"/>
    </g>
   </g>
   <g id="legend_1">
    <g id="patch_7">
     <path d="M 4146.614062 152.278125 
L 4205 152.278125 
Q 4207 152.278125 4207 150.278125 
L 4207 136.6 
Q 4207 134.6 4205 134.6 
L 4146.614062 134.6 
Q 4144.614062 134.6 4144.614062 136.6 
L 4144.614062 150.278125 
Q 4144.614062 152.278125 4146.614062 152.278125 
z
" style="fill: #ffffff; opacity: 0.8; stroke: #cccccc; stroke-linejoin: miter"/>
    </g>
    <g id="line2d_12">
     <path d="M 4148.614062 142.698438 
L 4158.614062 142.698438 
L 4168.614062 142.698438 
" style="fill: none; stroke: #8b2be2; stroke-width: 2.5; stroke-linecap: square"/>
    </g>
    <g id="text_14">
     <!-- mt06 -->
     <g transform="translate(4176.614062 146.198438) scale(0.1 -0.1)">
      <use xlink:href="#DejaVuSans-6d"/>
      <use xlink:href="#DejaVuSans-74" x="97.412109"/>
      <use xlink:href="#DejaVuSans-30" x="136.621094"/>
      <use xlink:href="#DejaVuSans-36" x="200.244141"/>
     </g>
    </g>
   </g>
  </g>
 </g>
 <defs>
  <clipPath id="p9a7fc5b78b">
   <rect x="585" y="129.6" width="3627" height="831.6"/>
  </clipPath>
 </defs>
</svg>
