<?xml version="1.0" encoding="utf-8" standalone="no"?>
<!DOCTYPE svg PUBLIC "-//W3C//DTD SVG 1.1//EN"
  "http://www.w3.org/Graphics/SVG/1.1/DTD/svg11.dtd">
<svg xmlns:xlink="http://www.w3.org/1999/xlink" width="4680pt" height="1080pt" viewBox="0 0 4680 1080" xmlns="http://www.w3.org/2000/svg" version="1.1">
 <metadata>
  <rdf:RDF xmlns:dc="http://purl.org/dc/elements/1.1/" xmlns:cc="http://creativecommons.org/ns#" xmlns:rdf="http://www.w3.org/1999/02/22-rdf-syntax-ns#">
   <cc:Work>
    <dc:type rdf:resource="http://purl.org/dc/dcmitype/StillImage"/>
    <dc:date>2024-03-20T10:33:06.971554</dc:date>
    <dc:format>image/svg+xml</dc:format>
    <dc:creator>
     <cc:Agent>
      <dc:title>Matplotlib v3.7.2, https://matplotlib.org/</dc:title>
     </cc:Agent>
    </dc:creator>
   </cc:Work>
  </rdf:RDF>
 </metadata>
 <defs>
  <style type="text/css">*{stroke-linejoin: round; stroke-linecap: butt}</style>
 </defs>
 <g id="figure_1">
  <g id="patch_1">
   <path d="M 0 1080 
L 4680 1080 
L 4680 0 
L 0 0 
z
" style="fill: #ffffff"/>
  </g>
  <g id="axes_1">
   <g id="patch_2">
    <path d="M 585 961.2 
L 4212 961.2 
L 4212 129.6 
L 585 129.6 
z
" style="fill: #ffffff"/>
   </g>
   <g id="matplotlib.axis_1">
    <g id="xtick_1">
     <g id="line2d_1">
      <defs>
       <path id="m38a83939c4" d="M 0 0 
L 0 3.5 
" style="stroke: #000000; stroke-width: 0.8"/>
      </defs>
      <g>
       <use xlink:href="#m38a83939c4" x="711.411476" y="961.2" style="stroke: #000000; stroke-width: 0.8"/>
      </g>
     </g>
     <g id="text_1">
      <!-- 2012 -->
      <g transform="translate(685.961476 983.396875) scale(0.2 -0.2)">
       <defs>
        <path id="DejaVuSans-32" d="M 1228 531 
L 3431 531 
L 3431 0 
L 469 0 
L 469 531 
Q 828 903 1448 1529 
Q 2069 2156 2228 2338 
Q 2531 2678 2651 2914 
Q 2772 3150 2772 3378 
Q 2772 3750 2511 3984 
Q 2250 4219 1831 4219 
Q 1534 4219 1204 4116 
Q 875 4013 500 3803 
L 500 4441 
Q 881 4594 1212 4672 
Q 1544 4750 1819 4750 
Q 2544 4750 2975 4387 
Q 3406 4025 3406 3419 
Q 3406 3131 3298 2873 
Q 3191 2616 2906 2266 
Q 2828 2175 2409 1742 
Q 1991 1309 1228 531 
z
" transform="scale(0.015625)"/>
        <path id="DejaVuSans-30" d="M 2034 4250 
Q 1547 4250 1301 3770 
Q 1056 3291 1056 2328 
Q 1056 1369 1301 889 
Q 1547 409 2034 409 
Q 2525 409 2770 889 
Q 3016 1369 3016 2328 
Q 3016 3291 2770 3770 
Q 2525 4250 2034 4250 
z
M 2034 4750 
Q 2819 4750 3233 4129 
Q 3647 3509 3647 2328 
Q 3647 1150 3233 529 
Q 2819 -91 2034 -91 
Q 1250 -91 836 529 
Q 422 1150 422 2328 
Q 422 3509 836 4129 
Q 1250 4750 2034 4750 
z
" transform="scale(0.015625)"/>
        <path id="DejaVuSans-31" d="M 794 531 
L 1825 531 
L 1825 4091 
L 703 3866 
L 703 4441 
L 1819 4666 
L 2450 4666 
L 2450 531 
L 3481 531 
L 3481 0 
L 794 0 
L 794 531 
z
" transform="scale(0.015625)"/>
       </defs>
       <use xlink:href="#DejaVuSans-32"/>
       <use xlink:href="#DejaVuSans-30" x="63.623047"/>
       <use xlink:href="#DejaVuSans-31" x="127.246094"/>
       <use xlink:href="#DejaVuSans-32" x="190.869141"/>
      </g>
     </g>
    </g>
    <g id="xtick_2">
     <g id="line2d_2">
      <g>
       <use xlink:href="#m38a83939c4" x="1415.086006" y="961.2" style="stroke: #000000; stroke-width: 0.8"/>
      </g>
     </g>
     <g id="text_2">
      <!-- 2013 -->
      <g transform="translate(1389.636006 983.396875) scale(0.2 -0.2)">
       <defs>
        <path id="DejaVuSans-33" d="M 2597 2516 
Q 3050 2419 3304 2112 
Q 3559 1806 3559 1356 
Q 3559 666 3084 287 
Q 2609 -91 1734 -91 
Q 1441 -91 1130 -33 
Q 819 25 488 141 
L 488 750 
Q 750 597 1062 519 
Q 1375 441 1716 441 
Q 2309 441 2620 675 
Q 2931 909 2931 1356 
Q 2931 1769 2642 2001 
Q 2353 2234 1838 2234 
L 1294 2234 
L 1294 2753 
L 1863 2753 
Q 2328 2753 2575 2939 
Q 2822 3125 2822 3475 
Q 2822 3834 2567 4026 
Q 2313 4219 1838 4219 
Q 1578 4219 1281 4162 
Q 984 4106 628 3988 
L 628 4550 
Q 988 4650 1302 4700 
Q 1616 4750 1894 4750 
Q 2613 4750 3031 4423 
Q 3450 4097 3450 3541 
Q 3450 3153 3228 2886 
Q 3006 2619 2597 2516 
z
" transform="scale(0.015625)"/>
       </defs>
       <use xlink:href="#DejaVuSans-32"/>
       <use xlink:href="#DejaVuSans-30" x="63.623047"/>
       <use xlink:href="#DejaVuSans-31" x="127.246094"/>
       <use xlink:href="#DejaVuSans-33" x="190.869141"/>
      </g>
     </g>
    </g>
    <g id="xtick_3">
     <g id="line2d_3">
      <g>
       <use xlink:href="#m38a83939c4" x="2116.837927" y="961.2" style="stroke: #000000; stroke-width: 0.8"/>
      </g>
     </g>
     <g id="text_3">
      <!-- 2014 -->
      <g transform="translate(2091.387927 983.396875) scale(0.2 -0.2)">
       <defs>
        <path id="DejaVuSans-34" d="M 2419 4116 
L 825 1625 
L 2419 1625 
L 2419 4116 
z
M 2253 4666 
L 3047 4666 
L 3047 1625 
L 3713 1625 
L 3713 1100 
L 3047 1100 
L 3047 0 
L 2419 0 
L 2419 1100 
L 313 1100 
L 313 1709 
L 2253 4666 
z
" transform="scale(0.015625)"/>
       </defs>
       <use xlink:href="#DejaVuSans-32"/>
       <use xlink:href="#DejaVuSans-30" x="63.623047"/>
       <use xlink:href="#DejaVuSans-31" x="127.246094"/>
       <use xlink:href="#DejaVuSans-34" x="190.869141"/>
      </g>
     </g>
    </g>
    <g id="xtick_4">
     <g id="line2d_4">
      <g>
       <use xlink:href="#m38a83939c4" x="2818.589849" y="961.2" style="stroke: #000000; stroke-width: 0.8"/>
      </g>
     </g>
     <g id="text_4">
      <!-- 2015 -->
      <g transform="translate(2793.139849 983.396875) scale(0.2 -0.2)">
       <defs>
        <path id="DejaVuSans-35" d="M 691 4666 
L 3169 4666 
L 3169 4134 
L 1269 4134 
L 1269 2991 
Q 1406 3038 1543 3061 
Q 1681 3084 1819 3084 
Q 2600 3084 3056 2656 
Q 3513 2228 3513 1497 
Q 3513 744 3044 326 
Q 2575 -91 1722 -91 
Q 1428 -91 1123 -41 
Q 819 9 494 109 
L 494 744 
Q 775 591 1075 516 
Q 1375 441 1709 441 
Q 2250 441 2565 725 
Q 2881 1009 2881 1497 
Q 2881 1984 2565 2268 
Q 2250 2553 1709 2553 
Q 1456 2553 1204 2497 
Q 953 2441 691 2322 
L 691 4666 
z
" transform="scale(0.015625)"/>
       </defs>
       <use xlink:href="#DejaVuSans-32"/>
       <use xlink:href="#DejaVuSans-30" x="63.623047"/>
       <use xlink:href="#DejaVuSans-31" x="127.246094"/>
       <use xlink:href="#DejaVuSans-35" x="190.869141"/>
      </g>
     </g>
    </g>
    <g id="xtick_5">
     <g id="line2d_5">
      <g>
       <use xlink:href="#m38a83939c4" x="3520.34177" y="961.2" style="stroke: #000000; stroke-width: 0.8"/>
      </g>
     </g>
     <g id="text_5">
      <!-- 2016 -->
      <g transform="translate(3494.89177 983.396875) scale(0.2 -0.2)">
       <defs>
        <path id="DejaVuSans-36" d="M 2113 2584 
Q 1688 2584 1439 2293 
Q 1191 2003 1191 1497 
Q 1191 994 1439 701 
Q 1688 409 2113 409 
Q 2538 409 2786 701 
Q 3034 994 3034 1497 
Q 3034 2003 2786 2293 
Q 2538 2584 2113 2584 
z
M 3366 4563 
L 3366 3988 
Q 3128 4100 2886 4159 
Q 2644 4219 2406 4219 
Q 1781 4219 1451 3797 
Q 1122 3375 1075 2522 
Q 1259 2794 1537 2939 
Q 1816 3084 2150 3084 
Q 2853 3084 3261 2657 
Q 3669 2231 3669 1497 
Q 3669 778 3244 343 
Q 2819 -91 2113 -91 
Q 1303 -91 875 529 
Q 447 1150 447 2328 
Q 447 3434 972 4092 
Q 1497 4750 2381 4750 
Q 2619 4750 2861 4703 
Q 3103 4656 3366 4563 
z
" transform="scale(0.015625)"/>
       </defs>
       <use xlink:href="#DejaVuSans-32"/>
       <use xlink:href="#DejaVuSans-30" x="63.623047"/>
       <use xlink:href="#DejaVuSans-31" x="127.246094"/>
       <use xlink:href="#DejaVuSans-36" x="190.869141"/>
      </g>
     </g>
    </g>
    <g id="text_6">
     <!-- Time -->
     <g transform="translate(2374.032813 1006.753125) scale(0.2 -0.2)">
      <defs>
       <path id="DejaVuSans-54" d="M -19 4666 
L 3928 4666 
L 3928 4134 
L 2272 4134 
L 2272 0 
L 1638 0 
L 1638 4134 
L -19 4134 
L -19 4666 
z
" transform="scale(0.015625)"/>
       <path id="DejaVuSans-69" d="M 603 3500 
L 1178 3500 
L 1178 0 
L 603 0 
L 603 3500 
z
M 603 4863 
L 1178 4863 
L 1178 4134 
L 603 4134 
L 603 4863 
z
" transform="scale(0.015625)"/>
       <path id="DejaVuSans-6d" d="M 3328 2828 
Q 3544 3216 3844 3400 
Q 4144 3584 4550 3584 
Q 5097 3584 5394 3201 
Q 5691 2819 5691 2113 
L 5691 0 
L 5113 0 
L 5113 2094 
Q 5113 2597 4934 2840 
Q 4756 3084 4391 3084 
Q 3944 3084 3684 2787 
Q 3425 2491 3425 1978 
L 3425 0 
L 2847 0 
L 2847 2094 
Q 2847 2600 2669 2842 
Q 2491 3084 2119 3084 
Q 1678 3084 1418 2786 
Q 1159 2488 1159 1978 
L 1159 0 
L 581 0 
L 581 3500 
L 1159 3500 
L 1159 2956 
Q 1356 3278 1631 3431 
Q 1906 3584 2284 3584 
Q 2666 3584 2933 3390 
Q 3200 3197 3328 2828 
z
" transform="scale(0.015625)"/>
       <path id="DejaVuSans-65" d="M 3597 1894 
L 3597 1613 
L 953 1613 
Q 991 1019 1311 708 
Q 1631 397 2203 397 
Q 2534 397 2845 478 
Q 3156 559 3463 722 
L 3463 178 
Q 3153 47 2828 -22 
Q 2503 -91 2169 -91 
Q 1331 -91 842 396 
Q 353 884 353 1716 
Q 353 2575 817 3079 
Q 1281 3584 2069 3584 
Q 2775 3584 3186 3129 
Q 3597 2675 3597 1894 
z
M 3022 2063 
Q 3016 2534 2758 2815 
Q 2500 3097 2075 3097 
Q 1594 3097 1305 2825 
Q 1016 2553 972 2059 
L 3022 2063 
z
" transform="scale(0.015625)"/>
      </defs>
      <use xlink:href="#DejaVuSans-54"/>
      <use xlink:href="#DejaVuSans-69" x="57.958984"/>
      <use xlink:href="#DejaVuSans-6d" x="85.742188"/>
      <use xlink:href="#DejaVuSans-65" x="183.154297"/>
     </g>
    </g>
   </g>
   <g id="matplotlib.axis_2">
    <g id="ytick_1">
     <g id="line2d_6">
      <defs>
       <path id="mafe6866306" d="M 0 0 
L -3.5 0 
" style="stroke: #000000; stroke-width: 0.8"/>
      </defs>
      <g>
       <use xlink:href="#mafe6866306" x="585" y="865.465273" style="stroke: #000000; stroke-width: 0.8"/>
      </g>
     </g>
     <g id="text_7">
      <!-- −0.003 -->
      <g transform="translate(503.984375 873.06371) scale(0.2 -0.2)">
       <defs>
        <path id="DejaVuSans-2212" d="M 678 2272 
L 4684 2272 
L 4684 1741 
L 678 1741 
L 678 2272 
z
" transform="scale(0.015625)"/>
        <path id="DejaVuSans-2e" d="M 684 794 
L 1344 794 
L 1344 0 
L 684 0 
L 684 794 
z
" transform="scale(0.015625)"/>
       </defs>
       <use xlink:href="#DejaVuSans-2212"/>
       <use xlink:href="#DejaVuSans-30" x="83.789062"/>
       <use xlink:href="#DejaVuSans-2e" x="147.412109"/>
       <use xlink:href="#DejaVuSans-30" x="179.199219"/>
       <use xlink:href="#DejaVuSans-30" x="242.822266"/>
       <use xlink:href="#DejaVuSans-33" x="306.445312"/>
      </g>
     </g>
    </g>
    <g id="ytick_2">
     <g id="line2d_7">
      <g>
       <use xlink:href="#mafe6866306" x="585" y="759.694831" style="stroke: #000000; stroke-width: 0.8"/>
      </g>
     </g>
     <g id="text_8">
      <!-- −0.002 -->
      <g transform="translate(503.984375 767.293268) scale(0.2 -0.2)">
       <use xlink:href="#DejaVuSans-2212"/>
       <use xlink:href="#DejaVuSans-30" x="83.789062"/>
       <use xlink:href="#DejaVuSans-2e" x="147.412109"/>
       <use xlink:href="#DejaVuSans-30" x="179.199219"/>
       <use xlink:href="#DejaVuSans-30" x="242.822266"/>
       <use xlink:href="#DejaVuSans-32" x="306.445312"/>
      </g>
     </g>
    </g>
    <g id="ytick_3">
     <g id="line2d_8">
      <g>
       <use xlink:href="#mafe6866306" x="585" y="653.924388" style="stroke: #000000; stroke-width: 0.8"/>
      </g>
     </g>
     <g id="text_9">
      <!-- −0.001 -->
      <g transform="translate(503.984375 661.522826) scale(0.2 -0.2)">
       <use xlink:href="#DejaVuSans-2212"/>
       <use xlink:href="#DejaVuSans-30" x="83.789062"/>
       <use xlink:href="#DejaVuSans-2e" x="147.412109"/>
       <use xlink:href="#DejaVuSans-30" x="179.199219"/>
       <use xlink:href="#DejaVuSans-30" x="242.822266"/>
       <use xlink:href="#DejaVuSans-31" x="306.445312"/>
      </g>
     </g>
    </g>
    <g id="ytick_4">
     <g id="line2d_9">
      <g>
       <use xlink:href="#mafe6866306" x="585" y="548.153946" style="stroke: #000000; stroke-width: 0.8"/>
      </g>
     </g>
     <g id="text_10">
      <!-- 0.000 -->
      <g transform="translate(520.74375 555.752384) scale(0.2 -0.2)">
       <use xlink:href="#DejaVuSans-30"/>
       <use xlink:href="#DejaVuSans-2e" x="63.623047"/>
       <use xlink:href="#DejaVuSans-30" x="95.410156"/>
       <use xlink:href="#DejaVuSans-30" x="159.033203"/>
       <use xlink:href="#DejaVuSans-30" x="222.65625"/>
      </g>
     </g>
    </g>
    <g id="ytick_5">
     <g id="line2d_10">
      <g>
       <use xlink:href="#mafe6866306" x="585" y="442.383504" style="stroke: #000000; stroke-width: 0.8"/>
      </g>
     </g>
     <g id="text_11">
      <!-- 0.001 -->
      <g transform="translate(520.74375 449.981941) scale(0.2 -0.2)">
       <use xlink:href="#DejaVuSans-30"/>
       <use xlink:href="#DejaVuSans-2e" x="63.623047"/>
       <use xlink:href="#DejaVuSans-30" x="95.410156"/>
       <use xlink:href="#DejaVuSans-30" x="159.033203"/>
       <use xlink:href="#DejaVuSans-31" x="222.65625"/>
      </g>
     </g>
    </g>
    <g id="ytick_6">
     <g id="line2d_11">
      <g>
       <use xlink:href="#mafe6866306" x="585" y="336.613062" style="stroke: #000000; stroke-width: 0.8"/>
      </g>
     </g>
     <g id="text_12">
      <!-- 0.002 -->
      <g transform="translate(520.74375 344.211499) scale(0.2 -0.2)">
       <use xlink:href="#DejaVuSans-30"/>
       <use xlink:href="#DejaVuSans-2e" x="63.623047"/>
       <use xlink:href="#DejaVuSans-30" x="95.410156"/>
       <use xlink:href="#DejaVuSans-30" x="159.033203"/>
       <use xlink:href="#DejaVuSans-32" x="222.65625"/>
      </g>
     </g>
    </g>
    <g id="ytick_7">
     <g id="line2d_12">
      <g>
       <use xlink:href="#mafe6866306" x="585" y="230.84262" style="stroke: #000000; stroke-width: 0.8"/>
      </g>
     </g>
     <g id="text_13">
      <!-- 0.003 -->
      <g transform="translate(520.74375 238.441057) scale(0.2 -0.2)">
       <use xlink:href="#DejaVuSans-30"/>
       <use xlink:href="#DejaVuSans-2e" x="63.623047"/>
       <use xlink:href="#DejaVuSans-30" x="95.410156"/>
       <use xlink:href="#DejaVuSans-30" x="159.033203"/>
       <use xlink:href="#DejaVuSans-33" x="222.65625"/>
      </g>
     </g>
    </g>
    <g id="text_14">
     <!-- East(m) -->
     <g transform="translate(495.825 584.520313) rotate(-90) scale(0.2 -0.2)">
      <defs>
       <path id="DejaVuSans-45" d="M 628 4666 
L 3578 4666 
L 3578 4134 
L 1259 4134 
L 1259 2753 
L 3481 2753 
L 3481 2222 
L 1259 2222 
L 1259 531 
L 3634 531 
L 3634 0 
L 628 0 
L 628 4666 
z
" transform="scale(0.015625)"/>
       <path id="DejaVuSans-61" d="M 2194 1759 
Q 1497 1759 1228 1600 
Q 959 1441 959 1056 
Q 959 750 1161 570 
Q 1363 391 1709 391 
Q 2188 391 2477 730 
Q 2766 1069 2766 1631 
L 2766 1759 
L 2194 1759 
z
M 3341 1997 
L 3341 0 
L 2766 0 
L 2766 531 
Q 2569 213 2275 61 
Q 1981 -91 1556 -91 
Q 1019 -91 701 211 
Q 384 513 384 1019 
Q 384 1609 779 1909 
Q 1175 2209 1959 2209 
L 2766 2209 
L 2766 2266 
Q 2766 2663 2505 2880 
Q 2244 3097 1772 3097 
Q 1472 3097 1187 3025 
Q 903 2953 641 2809 
L 641 3341 
Q 956 3463 1253 3523 
Q 1550 3584 1831 3584 
Q 2591 3584 2966 3190 
Q 3341 2797 3341 1997 
z
" transform="scale(0.015625)"/>
       <path id="DejaVuSans-73" d="M 2834 3397 
L 2834 2853 
Q 2591 2978 2328 3040 
Q 2066 3103 1784 3103 
Q 1356 3103 1142 2972 
Q 928 2841 928 2578 
Q 928 2378 1081 2264 
Q 1234 2150 1697 2047 
L 1894 2003 
Q 2506 1872 2764 1633 
Q 3022 1394 3022 966 
Q 3022 478 2636 193 
Q 2250 -91 1575 -91 
Q 1294 -91 989 -36 
Q 684 19 347 128 
L 347 722 
Q 666 556 975 473 
Q 1284 391 1588 391 
Q 1994 391 2212 530 
Q 2431 669 2431 922 
Q 2431 1156 2273 1281 
Q 2116 1406 1581 1522 
L 1381 1569 
Q 847 1681 609 1914 
Q 372 2147 372 2553 
Q 372 3047 722 3315 
Q 1072 3584 1716 3584 
Q 2034 3584 2315 3537 
Q 2597 3491 2834 3397 
z
" transform="scale(0.015625)"/>
       <path id="DejaVuSans-74" d="M 1172 4494 
L 1172 3500 
L 2356 3500 
L 2356 3053 
L 1172 3053 
L 1172 1153 
Q 1172 725 1289 603 
Q 1406 481 1766 481 
L 2356 481 
L 2356 0 
L 1766 0 
Q 1100 0 847 248 
Q 594 497 594 1153 
L 594 3053 
L 172 3053 
L 172 3500 
L 594 3500 
L 594 4494 
L 1172 4494 
z
" transform="scale(0.015625)"/>
       <path id="DejaVuSans-28" d="M 1984 4856 
Q 1566 4138 1362 3434 
Q 1159 2731 1159 2009 
Q 1159 1288 1364 580 
Q 1569 -128 1984 -844 
L 1484 -844 
Q 1016 -109 783 600 
Q 550 1309 550 2009 
Q 550 2706 781 3412 
Q 1013 4119 1484 4856 
L 1984 4856 
z
" transform="scale(0.015625)"/>
       <path id="DejaVuSans-29" d="M 513 4856 
L 1013 4856 
Q 1481 4119 1714 3412 
Q 1947 2706 1947 2009 
Q 1947 1309 1714 600 
Q 1481 -109 1013 -844 
L 513 -844 
Q 928 -128 1133 580 
Q 1338 1288 1338 2009 
Q 1338 2731 1133 3434 
Q 928 4138 513 4856 
z
" transform="scale(0.015625)"/>
      </defs>
      <use xlink:href="#DejaVuSans-45"/>
      <use xlink:href="#DejaVuSans-61" x="63.183594"/>
      <use xlink:href="#DejaVuSans-73" x="124.462891"/>
      <use xlink:href="#DejaVuSans-74" x="176.5625"/>
      <use xlink:href="#DejaVuSans-28" x="215.771484"/>
      <use xlink:href="#DejaVuSans-6d" x="254.785156"/>
      <use xlink:href="#DejaVuSans-29" x="352.197266"/>
     </g>
    </g>
   </g>
   <g id="line2d_13">
    <path d="M 749.863636 512.076549 
L 751.786244 496.679857 
L 753.708852 490.905769 
L 755.63146 508.552044 
L 757.554068 508.43887 
L 759.476676 472.907155 
L 761.399284 452.689041 
L 763.321892 443.468032 
L 765.2445 439.873616 
L 767.167108 423.749621 
L 769.089716 388.1745 
L 771.012324 405.424792 
L 772.934932 416.669228 
L 774.85754 394.371152 
L 776.780148 403.387824 
L 778.702756 403.599768 
L 780.625364 405.180717 
L 782.547972 405.816169 
L 784.47058 396.79734 
L 786.393188 413.169992 
L 788.315796 427.79872 
L 790.238404 433.840583 
L 792.161012 439.065026 
L 794.08362 455.096691 
L 796.006228 484.928286 
L 797.928836 506.767798 
L 799.851444 509.052912 
L 801.774052 522.598035 
L 803.69666 517.078209 
L 805.619268 513.954177 
L 807.541876 476.607371 
L 815.232309 409.182647 
L 817.154917 417.25942 
L 821.000133 447.426203 
L 822.922741 473.341253 
L 824.845349 504.898767 
L 826.767957 511.99228 
L 828.690565 514.061891 
L 830.613173 512.039508 
L 832.535781 502.386149 
L 834.458389 519.233217 
L 836.380997 509.735385 
L 838.303605 501.488481 
L 840.226213 489.075354 
L 844.071429 454.819292 
L 845.994037 483.549842 
L 847.916645 481.522179 
L 849.839253 500.796316 
L 853.684469 548.288737 
L 857.529685 547.033246 
L 859.452293 539.132601 
L 861.374901 529.053129 
L 865.220117 473.996724 
L 867.142725 431.439043 
L 869.065333 434.865182 
L 870.987941 454.252459 
L 872.910549 440.757967 
L 874.833157 458.607825 
L 878.678373 521.683609 
L 880.600981 559.954174 
L 882.523589 561.455513 
L 884.446197 550.646774 
L 890.214021 539.463032 
L 892.136629 519.488009 
L 894.059237 472.886575 
L 895.981845 448.837168 
L 897.904453 440.92694 
L 899.827061 449.435611 
L 901.749669 455.947445 
L 903.672277 473.10009 
L 905.594885 464.78756 
L 907.517493 454.627712 
L 909.440101 469.453293 
L 911.362709 479.796678 
L 913.285317 478.577318 
L 917.130533 458.774003 
L 919.053141 459.796943 
L 920.975749 472.982691 
L 922.898357 458.79321 
L 924.820965 452.329122 
L 926.743573 456.446145 
L 928.666181 468.889078 
L 932.511397 458.964646 
L 934.434005 466.7029 
L 936.356613 465.055237 
L 938.279221 466.696375 
L 949.814869 493.019254 
L 955.582693 498.069616 
L 957.505301 503.238456 
L 959.427909 487.38122 
L 961.350517 502.673856 
L 969.040949 538.553904 
L 974.808773 538.827491 
L 976.731381 506.624064 
L 978.653989 497.317099 
L 980.576597 490.879426 
L 984.421813 491.220959 
L 986.344421 486.005025 
L 988.267029 499.495007 
L 990.189637 546.867806 
L 992.112245 555.692057 
L 995.957461 572.50471 
L 997.880069 574.123405 
L 999.802677 603.944604 
L 1001.725285 582.674671 
L 1007.493109 556.527993 
L 1009.415717 594.33012 
L 1011.338325 599.631935 
L 1013.260933 597.272577 
L 1015.183541 612.800957 
L 1017.106149 616.11734 
L 1019.028757 644.098722 
L 1020.951365 643.827745 
L 1022.873973 605.76553 
L 1024.796581 620.350577 
L 1028.641797 627.406928 
L 1030.564405 649.487953 
L 1034.409621 630.660844 
L 1036.332229 645.843789 
L 1038.254837 665.872261 
L 1042.100053 676.401371 
L 1053.635701 719.53706 
L 1057.480917 788.565724 
L 1159.379141 708.710026 
L 1161.301749 669.193487 
L 1163.224357 683.107103 
L 1318.955606 278.875556 
L 1320.878214 296.574181 
L 1322.800822 317.834091 
L 1332.413862 326.280229 
L 1336.259078 301.167666 
L 1338.181686 316.289255 
L 1340.104294 360.375307 
L 1342.026902 356.334093 
L 1343.94951 356.073962 
L 1345.872118 354.850791 
L 1347.794726 341.52675 
L 1365.098198 471.605467 
L 1368.943414 476.093935 
L 1415.086006 357.623107 
L 1417.008614 358.532844 
L 1424.699046 439.554187 
L 1426.621654 466.679412 
L 1428.544262 464.690033 
L 1430.46687 483.673883 
L 1432.389478 500.580883 
L 1434.312086 470.628913 
L 1436.234694 422.556614 
L 1438.157302 399.676822 
L 1442.002518 376.86283 
L 1470.841638 456.472914 
L 1472.764246 486.058501 
L 1474.686854 518.111997 
L 1476.609462 524.575615 
L 1480.454678 526.184013 
L 1482.377286 512.796627 
L 1484.299894 518.895704 
L 1486.222502 506.820385 
L 1490.067718 471.998295 
L 1491.990326 451.162333 
L 1499.680758 381.583862 
L 1501.603366 382.676342 
L 1503.525974 410.468902 
L 1509.293798 465.029026 
L 1511.216406 464.04083 
L 1513.139014 426.007411 
L 1515.061622 421.509507 
L 1516.98423 398.137068 
L 1520.829446 359.815766 
L 1522.752054 347.409149 
L 1524.674662 362.757062 
L 1528.519878 386.192649 
L 1530.442486 405.80686 
L 1532.365094 415.476557 
L 1540.055526 393.89525 
L 1541.978134 396.220635 
L 1543.900742 405.91849 
L 1545.82335 382.638596 
L 1547.745958 367.726688 
L 1549.668566 341.038388 
L 1551.591174 349.105957 
L 1553.513782 344.820341 
L 1555.43639 341.175451 
L 1557.358998 304.667642 
L 1559.281606 291.613287 
L 1563.126822 303.846653 
L 1565.04943 294.607932 
L 1566.972038 262.590751 
L 1568.894646 252.700864 
L 1572.739862 285.903571 
L 1574.66247 309.776855 
L 1576.585078 329.31621 
L 1578.507686 333.702196 
L 1580.430294 370.230978 
L 1582.352902 388.465988 
L 1584.27551 366.094644 
L 1586.198118 386.78097 
L 1588.120726 375.445233 
L 1590.043334 357.652535 
L 1593.88855 353.899547 
L 1636.185926 454.600646 
L 1641.95375 433.330082 
L 1643.876358 439.194138 
L 1645.798966 460.370801 
L 1647.721574 463.980196 
L 1649.644182 460.889598 
L 1653.489398 522.072926 
L 1655.412006 510.898091 
L 1657.334614 488.781687 
L 1665.025046 314.89381 
L 1666.947654 335.550465 
L 1668.870262 380.333407 
L 1672.715478 425.19516 
L 1674.638086 449.178606 
L 1676.560694 457.617073 
L 1678.483302 474.866814 
L 1680.40591 469.68178 
L 1684.251126 432.287212 
L 1686.173734 420.296958 
L 1691.941558 501.540889 
L 1693.864166 497.68049 
L 1695.786774 495.968079 
L 1697.709382 511.658531 
L 1699.63199 545.050272 
L 1701.554598 536.129531 
L 1703.477206 498.072234 
L 1722.703287 548.262595 
L 1724.625895 549.250985 
L 1726.548503 543.986187 
L 1728.471111 562.202226 
L 1730.393719 543.198685 
L 1732.316327 531.072512 
L 1734.238935 533.250687 
L 1736.161543 527.907474 
L 1738.084151 551.896859 
L 1740.006759 549.984379 
L 1743.851975 564.137922 
L 1745.774583 541.978949 
L 1751.542407 537.204123 
L 1753.465015 550.84656 
L 1755.387623 568.586175 
L 1757.310231 546.505394 
L 1759.232839 564.670423 
L 1761.155447 566.80493 
L 1765.000663 544.165305 
L 1766.923271 539.457883 
L 1772.691095 602.619765 
L 1774.613703 620.38918 
L 1776.536311 620.733801 
L 1780.381527 621.218675 
L 1782.304135 578.548714 
L 1784.226743 591.091042 
L 1786.149351 597.311009 
L 1788.071959 571.008719 
L 1789.994567 591.101259 
L 1801.530215 674.510816 
L 1805.375431 672.01976 
L 1807.298039 653.044531 
L 1809.220647 648.821568 
L 1811.143255 649.223374 
L 1813.065863 631.416227 
L 1816.911079 614.242714 
L 1818.833687 603.153889 
L 1820.756295 601.945457 
L 1822.678903 580.427693 
L 1824.601511 536.71676 
L 1830.369335 524.369019 
L 1832.291943 486.934407 
L 1834.214551 471.631654 
L 1836.137159 440.688123 
L 1838.059767 430.721235 
L 1839.982375 408.947077 
L 1841.904983 414.944859 
L 1845.750199 384.221598 
L 1847.672807 398.483756 
L 1859.208455 380.009045 
L 1861.131063 334.083089 
L 1863.053671 355.758143 
L 1864.976279 345.128622 
L 1866.898887 364.204764 
L 1868.821495 375.61449 
L 1870.744103 352.75345 
L 1872.666711 361.131031 
L 1874.589319 356.277107 
L 1878.434535 364.382934 
L 1880.357143 373.253648 
L 1884.202359 355.087139 
L 1886.124967 347.433938 
L 1888.047575 350.021855 
L 1889.970183 303.422022 
L 1891.892791 294.565567 
L 1893.815399 283.089521 
L 1895.738007 259.019506 
L 1899.583223 267.109612 
L 1901.505831 284.747629 
L 1903.428439 294.708092 
L 1905.351047 270.111447 
L 1907.273655 250.31003 
L 1909.196263 239.194099 
L 1911.118871 216.128662 
L 1913.041479 229.159974 
L 1914.964087 252.328875 
L 2024.552743 167.4 
L 2028.397959 186.376525 
L 2030.320567 224.500877 
L 2032.243175 251.957919 
L 2034.165783 241.537166 
L 2036.088391 288.476157 
L 2038.010999 303.258028 
L 2039.933607 347.540998 
L 2049.546647 389.066267 
L 2051.469255 409.336887 
L 2057.237079 431.601842 
L 2059.159687 409.990941 
L 2061.082295 414.178643 
L 2063.004903 429.699295 
L 2064.927511 421.185203 
L 2068.772727 414.547572 
L 2137.986615 329.700342 
L 2139.909223 371.937089 
L 2143.754439 402.16882 
L 2145.677047 398.477576 
L 2172.59356 468.163307 
L 2255.265704 566.539915 
L 2257.188312 616.754248 
L 2261.033528 663.005625 
L 2262.956136 662.271225 
L 2264.878744 663.31445 
L 2266.801352 669.586313 
L 2268.72396 646.002277 
L 2270.646568 637.092936 
L 2274.491784 681.816644 
L 2276.414392 684.639897 
L 2282.182216 708.965929 
L 2314.866552 526.160591 
L 2316.78916 534.653159 
L 2328.324808 626.239864 
L 2330.247416 613.445859 
L 2332.170024 590.856294 
L 2334.092632 575.245076 
L 2355.24132 567.626383 
L 2485.978664 674.962202 
L 2487.901272 654.402358 
L 2489.82388 656.086374 
L 2491.746488 625.266552 
L 2495.591704 611.799258 
L 2512.895176 594.962252 
L 2747.453353 381.585353 
L 2997.392393 405.152455 
L 2999.315001 444.387609 
L 3001.237609 455.437373 
L 3014.695865 509.253362 
L 3018.541081 537.069009 
L 3020.463689 595.061885 
L 3024.308905 600.839242 
L 3026.231513 618.966846 
L 3030.076729 632.340419 
L 3031.999337 629.923481 
L 3055.070633 604.495651 
L 3056.993241 615.678577 
L 3058.915849 674.157563 
L 3060.838457 668.904199 
L 3062.761065 680.676867 
L 3064.683673 701.287323 
L 3068.528889 720.239015 
L 3072.374105 651.787396 
L 3076.219321 628.247753 
L 3078.141929 630.587098 
L 3081.987146 580.791731 
L 3085.832362 598.85715 
L 3087.75497 600.941646 
L 3089.677578 620.800937 
L 3093.522794 642.830891 
L 3095.445402 667.474915 
L 3097.36801 676.263094 
L 3101.213226 731.042633 
L 3106.98105 751.412612 
L 3108.903658 734.062962 
L 3112.748874 769.639415 
L 3114.671482 758.015541 
L 3116.59409 771.499154 
L 3122.361914 803.287877 
L 3124.284522 832.058435 
L 3126.20713 777.870318 
L 3128.129738 807.781272 
L 3133.897562 844.589378 
L 3135.82017 807.26442 
L 3137.742778 766.260659 
L 3139.665386 784.806737 
L 3141.587994 759.707983 
L 3145.43321 765.847008 
L 3147.355818 727.186041 
L 3151.201034 736.628209 
L 3153.123642 726.776257 
L 3155.04625 702.58974 
L 3158.891466 651.889919 
L 3160.814074 648.722796 
L 3162.736682 659.331754 
L 3164.65929 646.323832 
L 3189.653194 746.782565 
L 3191.575802 764.998787 
L 3193.49841 698.861361 
L 3195.421018 655.831017 
L 3197.343626 619.104065 
L 3199.266234 617.180166 
L 3205.034058 599.76698 
L 3216.569706 715.815892 
L 3220.414922 751.750704 
L 3222.33753 727.596736 
L 3224.260138 723.878394 
L 3226.182746 693.289557 
L 3230.027962 624.749171 
L 3237.718394 547.779652 
L 3239.641002 590.935787 
L 3256.944474 531.762133 
L 3258.867082 527.427815 
L 3260.78969 555.443649 
L 3264.634906 589.01623 
L 3266.557514 565.976859 
L 3268.480122 580.387818 
L 3270.40273 596.589756 
L 3272.325338 624.600506 
L 3274.247946 615.989898 
L 3276.170554 583.592624 
L 3283.860986 632.39975 
L 3291.551418 684.050133 
L 3293.474026 706.356338 
L 3295.396634 698.841277 
L 3297.319242 689.351652 
L 3299.24185 668.083566 
L 3301.164458 659.969033 
L 3303.087066 625.156851 
L 3305.009674 611.781073 
L 3306.932282 573.922873 
L 3308.85489 582.243973 
L 3314.622714 620.314606 
L 3320.390538 733.819183 
L 3322.313146 745.988082 
L 3324.235754 727.896147 
L 3326.158362 708.179617 
L 3328.08097 713.601095 
L 3330.003578 701.21999 
L 3331.926186 670.331948 
L 3333.848794 645.954823 
L 3335.771402 613.673426 
L 3337.69401 624.685603 
L 3339.616618 611.502905 
L 3341.539226 582.24649 
L 3343.461834 587.014822 
L 3345.384442 552.989067 
L 3347.30705 548.952297 
L 3349.229658 566.5129 
L 3351.152266 571.494714 
L 3353.074874 599.993541 
L 3354.997482 631.431993 
L 3356.92009 629.121097 
L 3358.842698 646.635814 
L 3362.687914 610.695616 
L 3364.610522 575.960278 
L 3366.53313 560.446651 
L 3368.455738 548.092602 
L 3370.378346 550.162688 
L 3372.300954 582.152071 
L 3374.223562 607.246609 
L 3376.14617 637.858111 
L 3378.068778 672.608771 
L 3379.991386 671.032836 
L 3381.913994 653.862453 
L 3383.836602 639.202661 
L 3385.75921 625.767442 
L 3387.681818 620.080951 
L 3389.604426 615.128478 
L 3393.449642 628.004579 
L 3395.37225 651.466659 
L 3397.294858 698.796936 
L 3399.217466 688.333432 
L 3401.140074 688.532856 
L 3403.062682 691.609204 
L 3404.98529 685.832549 
L 3406.907898 699.774743 
L 3410.753114 695.411815 
L 3412.675722 666.567453 
L 3414.59833 667.510358 
L 3416.520938 681.225759 
L 3418.443546 677.780949 
L 3420.366154 684.380792 
L 3422.288762 636.219409 
L 3424.21137 649.434672 
L 3426.133978 659.58824 
L 3428.056586 668.631191 
L 3429.979194 681.849698 
L 3431.901802 699.34868 
L 3433.82441 699.899382 
L 3435.747018 701.571861 
L 3437.669626 655.900356 
L 3439.592234 642.436028 
L 3441.514842 657.137017 
L 3443.43745 643.066713 
L 3445.360058 619.94412 
L 3447.282666 591.460843 
L 3449.205274 608.060876 
L 3451.127882 653.660153 
L 3453.05049 659.351054 
L 3454.973098 633.42901 
L 3458.818314 638.425854 
L 3460.740922 655.293338 
L 3462.66353 656.885204 
L 3464.586138 668.223677 
L 3466.508746 663.862392 
L 3468.431354 668.399222 
L 3470.353962 655.53624 
L 3472.27657 666.270103 
L 3474.199178 663.437987 
L 3476.121786 678.843924 
L 3478.044394 660.512176 
L 3479.967002 696.370486 
L 3481.88961 724.751256 
L 3483.812218 731.25372 
L 3485.734826 712.266299 
L 3487.657434 706.837733 
L 3489.580042 699.516307 
L 3493.425258 681.315353 
L 3495.347866 657.50071 
L 3497.270474 662.676976 
L 3499.193082 674.709407 
L 3501.11569 692.461847 
L 3503.038298 690.902347 
L 3504.960906 689.64791 
L 3506.883514 676.247275 
L 3508.806122 681.796109 
L 3510.72873 682.441966 
L 3512.651338 682.800669 
L 3514.573946 694.728666 
L 3516.496554 690.049343 
L 3518.419162 681.86236 
L 3522.264378 655.267355 
L 3524.186986 619.197048 
L 3526.109594 620.351506 
L 3528.032202 599.416017 
L 3529.95481 598.493527 
L 3531.877418 619.816926 
L 3533.800027 613.692922 
L 3535.722635 618.121632 
L 3537.645243 630.382463 
L 3539.567851 633.206199 
L 3541.490459 627.504719 
L 3543.413067 634.822072 
L 3545.335675 612.8818 
L 3547.258283 634.23604 
L 3549.180891 635.578823 
L 3551.103499 635.964695 
L 3553.026107 628.95516 
L 3554.948715 609.444885 
L 3556.871323 581.781832 
L 3558.793931 556.689483 
L 3560.716539 515.178383 
L 3562.639147 534.206654 
L 3564.561755 523.764367 
L 3574.174795 584.791714 
L 3576.097403 580.031515 
L 3578.020011 592.571808 
L 3581.865227 579.52951 
L 3583.787835 623.020114 
L 3585.710443 619.805583 
L 3587.633051 593.114559 
L 3589.555659 561.242668 
L 3591.478267 545.318617 
L 3593.400875 571.018172 
L 3595.323483 587.328221 
L 3635.698251 600.414444 
L 3637.620859 604.375779 
L 3641.466075 597.549614 
L 3647.233899 581.184257 
L 3649.156507 555.412318 
L 3651.079115 541.700307 
L 3653.001723 546.401178 
L 3654.924331 564.731455 
L 3656.846939 570.920649 
L 3658.769547 599.563507 
L 3660.692155 617.175732 
L 3662.614763 625.600387 
L 3664.537371 644.76629 
L 3666.459979 654.643437 
L 3668.382587 642.93632 
L 3670.305195 656.242079 
L 3672.227803 659.142317 
L 3674.150411 657.366174 
L 3676.073019 636.080367 
L 3677.995627 644.059105 
L 3679.918235 626.371361 
L 3681.840843 630.331838 
L 3683.763451 597.446037 
L 3685.686059 586.095161 
L 3687.608667 618.562252 
L 3689.531275 640.357901 
L 3691.453883 630.8662 
L 3693.376491 613.737765 
L 3695.299099 612.034898 
L 3697.221707 615.135975 
L 3699.144315 622.275659 
L 3701.066923 582.862794 
L 3702.989531 603.151865 
L 3704.912139 589.106083 
L 3706.834747 598.961661 
L 3708.757355 597.201706 
L 3710.679963 641.569287 
L 3712.602571 644.790789 
L 3714.525179 651.155537 
L 3718.370395 632.357839 
L 3720.293003 655.515 
L 3722.215611 674.360787 
L 3724.138219 677.089959 
L 3727.983435 661.853424 
L 3729.906043 671.352525 
L 3731.828651 682.152242 
L 3733.751259 674.108474 
L 3735.673867 686.956397 
L 3739.519083 722.643268 
L 3741.441691 709.821458 
L 3743.364299 703.329231 
L 3745.286907 712.649081 
L 3747.209515 712.652344 
L 3749.132123 669.487889 
L 3751.054731 641.656121 
L 3754.899947 605.865644 
L 3756.822555 604.208441 
L 3758.745163 607.118148 
L 3760.667771 614.184041 
L 3762.590379 627.464058 
L 3768.358203 585.501798 
L 3770.280811 602.524705 
L 3772.203419 596.368394 
L 3774.126027 588.205254 
L 3777.971243 651.722702 
L 3779.893851 676.385343 
L 3877.946859 923.4 
L 3879.869467 872.668136 
L 3881.792075 832.729254 
L 3887.559899 727.225391 
L 3889.482507 695.131895 
L 3891.405115 678.124252 
L 3897.172939 641.304161 
L 3904.863371 705.303183 
L 3908.708587 732.880474 
L 3926.012059 817.055075 
L 3927.934667 780.748015 
L 3929.857275 786.016016 
L 3931.779883 742.97733 
L 3933.702491 723.660479 
L 3943.315531 590.994788 
L 3945.238139 643.991374 
L 3951.005963 704.178837 
L 3952.928571 674.368674 
L 3954.851179 670.674081 
L 3956.773787 692.847324 
L 3958.696395 660.02652 
L 3960.619003 644.112931 
L 3962.541611 648.949873 
L 3968.309435 701.888562 
L 3974.077259 657.65848 
L 3975.999867 675.833142 
L 3977.922475 648.601919 
L 3979.845083 638.992761 
L 3981.767691 602.119565 
L 3985.612908 636.344938 
L 3987.535516 599.730133 
L 3989.458124 558.581824 
L 3991.380732 547.466543 
L 4000.993772 593.362753 
L 4002.91638 599.776678 
L 4004.838988 613.690605 
L 4006.761596 631.09876 
L 4008.684204 600.664074 
L 4010.606812 573.601135 
L 4012.52942 556.131413 
L 4014.452028 543.456679 
L 4016.374636 539.808388 
L 4018.297244 517.311939 
L 4020.219852 493.341428 
L 4024.065068 471.903776 
L 4025.987676 478.37762 
L 4027.910284 496.42427 
L 4029.832892 490.120527 
L 4041.36854 473.138426 
L 4043.291148 457.529851 
L 4045.213756 453.763376 
L 4047.136364 452.888825 
L 4047.136364 452.888825 
" clip-path="url(#p71e148337a)" style="fill: none; stroke: #f14cc1; stroke-width: 2.5; stroke-linecap: square"/>
   </g>
   <g id="patch_3">
    <path d="M 585 961.2 
L 585 129.6 
" style="fill: none; stroke: #000000; stroke-width: 0.8; stroke-linejoin: miter; stroke-linecap: square"/>
   </g>
   <g id="patch_4">
    <path d="M 4212 961.2 
L 4212 129.6 
" style="fill: none; stroke: #000000; stroke-width: 0.8; stroke-linejoin: miter; stroke-linecap: square"/>
   </g>
   <g id="patch_5">
    <path d="M 585 961.2 
L 4212 961.2 
" style="fill: none; stroke: #000000; stroke-width: 0.8; stroke-linejoin: miter; stroke-linecap: square"/>
   </g>
   <g id="patch_6">
    <path d="M 585 129.6 
L 4212 129.6 
" style="fill: none; stroke: #000000; stroke-width: 0.8; stroke-linejoin: miter; stroke-linecap: square"/>
   </g>
   <g id="text_15">
    <!-- PORD -->
    <g transform="translate(2355.675 123.360937) scale(0.3 -0.3)">
     <defs>
      <path id="DejaVuSans-50" d="M 1259 4147 
L 1259 2394 
L 2053 2394 
Q 2494 2394 2734 2622 
Q 2975 2850 2975 3272 
Q 2975 3691 2734 3919 
Q 2494 4147 2053 4147 
L 1259 4147 
z
M 628 4666 
L 2053 4666 
Q 2838 4666 3239 4311 
Q 3641 3956 3641 3272 
Q 3641 2581 3239 2228 
Q 2838 1875 2053 1875 
L 1259 1875 
L 1259 0 
L 628 0 
L 628 4666 
z
" transform="scale(0.015625)"/>
      <path id="DejaVuSans-4f" d="M 2522 4238 
Q 1834 4238 1429 3725 
Q 1025 3213 1025 2328 
Q 1025 1447 1429 934 
Q 1834 422 2522 422 
Q 3209 422 3611 934 
Q 4013 1447 4013 2328 
Q 4013 3213 3611 3725 
Q 3209 4238 2522 4238 
z
M 2522 4750 
Q 3503 4750 4090 4092 
Q 4678 3434 4678 2328 
Q 4678 1225 4090 567 
Q 3503 -91 2522 -91 
Q 1538 -91 948 565 
Q 359 1222 359 2328 
Q 359 3434 948 4092 
Q 1538 4750 2522 4750 
z
" transform="scale(0.015625)"/>
      <path id="DejaVuSans-52" d="M 2841 2188 
Q 3044 2119 3236 1894 
Q 3428 1669 3622 1275 
L 4263 0 
L 3584 0 
L 2988 1197 
Q 2756 1666 2539 1819 
Q 2322 1972 1947 1972 
L 1259 1972 
L 1259 0 
L 628 0 
L 628 4666 
L 2053 4666 
Q 2853 4666 3247 4331 
Q 3641 3997 3641 3322 
Q 3641 2881 3436 2590 
Q 3231 2300 2841 2188 
z
M 1259 4147 
L 1259 2491 
L 2053 2491 
Q 2509 2491 2742 2702 
Q 2975 2913 2975 3322 
Q 2975 3731 2742 3939 
Q 2509 4147 2053 4147 
L 1259 4147 
z
" transform="scale(0.015625)"/>
      <path id="DejaVuSans-44" d="M 1259 4147 
L 1259 519 
L 2022 519 
Q 2988 519 3436 956 
Q 3884 1394 3884 2338 
Q 3884 3275 3436 3711 
Q 2988 4147 2022 4147 
L 1259 4147 
z
M 628 4666 
L 1925 4666 
Q 3281 4666 3915 4102 
Q 4550 3538 4550 2338 
Q 4550 1131 3912 565 
Q 3275 0 1925 0 
L 628 0 
L 628 4666 
z
" transform="scale(0.015625)"/>
     </defs>
     <use xlink:href="#DejaVuSans-50"/>
     <use xlink:href="#DejaVuSans-4f" x="60.302734"/>
     <use xlink:href="#DejaVuSans-52" x="139.013672"/>
     <use xlink:href="#DejaVuSans-44" x="208.496094"/>
    </g>
   </g>
   <g id="legend_1">
    <g id="patch_7">
     <path d="M 4150.248438 152.278125 
L 4205 152.278125 
Q 4207 152.278125 4207 150.278125 
L 4207 136.6 
Q 4207 134.6 4205 134.6 
L 4150.248438 134.6 
Q 4148.248438 134.6 4148.248438 136.6 
L 4148.248438 150.278125 
Q 4148.248438 152.278125 4150.248438 152.278125 
z
" style="fill: #ffffff; opacity: 0.8; stroke: #cccccc; stroke-linejoin: miter"/>
    </g>
    <g id="line2d_14">
     <path d="M 4152.248438 142.698438 
L 4162.248438 142.698438 
L 4172.248438 142.698438 
" style="fill: none; stroke: #f14cc1; stroke-width: 2.5; stroke-linecap: square"/>
    </g>
    <g id="text_16">
     <!-- pord -->
     <g transform="translate(4180.248438 146.198438) scale(0.1 -0.1)">
      <defs>
       <path id="DejaVuSans-70" d="M 1159 525 
L 1159 -1331 
L 581 -1331 
L 581 3500 
L 1159 3500 
L 1159 2969 
Q 1341 3281 1617 3432 
Q 1894 3584 2278 3584 
Q 2916 3584 3314 3078 
Q 3713 2572 3713 1747 
Q 3713 922 3314 415 
Q 2916 -91 2278 -91 
Q 1894 -91 1617 61 
Q 1341 213 1159 525 
z
M 3116 1747 
Q 3116 2381 2855 2742 
Q 2594 3103 2138 3103 
Q 1681 3103 1420 2742 
Q 1159 2381 1159 1747 
Q 1159 1113 1420 752 
Q 1681 391 2138 391 
Q 2594 391 2855 752 
Q 3116 1113 3116 1747 
z
" transform="scale(0.015625)"/>
       <path id="DejaVuSans-6f" d="M 1959 3097 
Q 1497 3097 1228 2736 
Q 959 2375 959 1747 
Q 959 1119 1226 758 
Q 1494 397 1959 397 
Q 2419 397 2687 759 
Q 2956 1122 2956 1747 
Q 2956 2369 2687 2733 
Q 2419 3097 1959 3097 
z
M 1959 3584 
Q 2709 3584 3137 3096 
Q 3566 2609 3566 1747 
Q 3566 888 3137 398 
Q 2709 -91 1959 -91 
Q 1206 -91 779 398 
Q 353 888 353 1747 
Q 353 2609 779 3096 
Q 1206 3584 1959 3584 
z
" transform="scale(0.015625)"/>
       <path id="DejaVuSans-72" d="M 2631 2963 
Q 2534 3019 2420 3045 
Q 2306 3072 2169 3072 
Q 1681 3072 1420 2755 
Q 1159 2438 1159 1844 
L 1159 0 
L 581 0 
L 581 3500 
L 1159 3500 
L 1159 2956 
Q 1341 3275 1631 3429 
Q 1922 3584 2338 3584 
Q 2397 3584 2469 3576 
Q 2541 3569 2628 3553 
L 2631 2963 
z
" transform="scale(0.015625)"/>
       <path id="DejaVuSans-64" d="M 2906 2969 
L 2906 4863 
L 3481 4863 
L 3481 0 
L 2906 0 
L 2906 525 
Q 2725 213 2448 61 
Q 2172 -91 1784 -91 
Q 1150 -91 751 415 
Q 353 922 353 1747 
Q 353 2572 751 3078 
Q 1150 3584 1784 3584 
Q 2172 3584 2448 3432 
Q 2725 3281 2906 2969 
z
M 947 1747 
Q 947 1113 1208 752 
Q 1469 391 1925 391 
Q 2381 391 2643 752 
Q 2906 1113 2906 1747 
Q 2906 2381 2643 2742 
Q 2381 3103 1925 3103 
Q 1469 3103 1208 2742 
Q 947 2381 947 1747 
z
" transform="scale(0.015625)"/>
      </defs>
      <use xlink:href="#DejaVuSans-70"/>
      <use xlink:href="#DejaVuSans-6f" x="63.476562"/>
      <use xlink:href="#DejaVuSans-72" x="124.658203"/>
      <use xlink:href="#DejaVuSans-64" x="164.021484"/>
     </g>
    </g>
   </g>
  </g>
 </g>
 <defs>
  <clipPath id="p71e148337a">
   <rect x="585" y="129.6" width="3627" height="831.6"/>
  </clipPath>
 </defs>
</svg>
