<?xml version="1.0" encoding="utf-8" standalone="no"?>
<!DOCTYPE svg PUBLIC "-//W3C//DTD SVG 1.1//EN"
  "http://www.w3.org/Graphics/SVG/1.1/DTD/svg11.dtd">
<svg xmlns:xlink="http://www.w3.org/1999/xlink" width="4680pt" height="1080pt" viewBox="0 0 4680 1080" xmlns="http://www.w3.org/2000/svg" version="1.1">
 <metadata>
  <rdf:RDF xmlns:dc="http://purl.org/dc/elements/1.1/" xmlns:cc="http://creativecommons.org/ns#" xmlns:rdf="http://www.w3.org/1999/02/22-rdf-syntax-ns#">
   <cc:Work>
    <dc:type rdf:resource="http://purl.org/dc/dcmitype/StillImage"/>
    <dc:date>2024-03-20T10:33:07.247816</dc:date>
    <dc:format>image/svg+xml</dc:format>
    <dc:creator>
     <cc:Agent>
      <dc:title>Matplotlib v3.7.2, https://matplotlib.org/</dc:title>
     </cc:Agent>
    </dc:creator>
   </cc:Work>
  </rdf:RDF>
 </metadata>
 <defs>
  <style type="text/css">*{stroke-linejoin: round; stroke-linecap: butt}</style>
 </defs>
 <g id="figure_1">
  <g id="patch_1">
   <path d="M 0 1080 
L 4680 1080 
L 4680 0 
L 0 0 
z
" style="fill: #ffffff"/>
  </g>
  <g id="axes_1">
   <g id="patch_2">
    <path d="M 585 961.2 
L 4212 961.2 
L 4212 129.6 
L 585 129.6 
z
" style="fill: #ffffff"/>
   </g>
   <g id="matplotlib.axis_1">
    <g id="xtick_1">
     <g id="line2d_1">
      <defs>
       <path id="m50f2b62b17" d="M 0 0 
L 0 3.5 
" style="stroke: #000000; stroke-width: 0.8"/>
      </defs>
      <g>
       <use xlink:href="#m50f2b62b17" x="711.411476" y="961.2" style="stroke: #000000; stroke-width: 0.8"/>
      </g>
     </g>
     <g id="text_1">
      <!-- 2012 -->
      <g transform="translate(685.961476 983.396875) scale(0.2 -0.2)">
       <defs>
        <path id="DejaVuSans-32" d="M 1228 531 
L 3431 531 
L 3431 0 
L 469 0 
L 469 531 
Q 828 903 1448 1529 
Q 2069 2156 2228 2338 
Q 2531 2678 2651 2914 
Q 2772 3150 2772 3378 
Q 2772 3750 2511 3984 
Q 2250 4219 1831 4219 
Q 1534 4219 1204 4116 
Q 875 4013 500 3803 
L 500 4441 
Q 881 4594 1212 4672 
Q 1544 4750 1819 4750 
Q 2544 4750 2975 4387 
Q 3406 4025 3406 3419 
Q 3406 3131 3298 2873 
Q 3191 2616 2906 2266 
Q 2828 2175 2409 1742 
Q 1991 1309 1228 531 
z
" transform="scale(0.015625)"/>
        <path id="DejaVuSans-30" d="M 2034 4250 
Q 1547 4250 1301 3770 
Q 1056 3291 1056 2328 
Q 1056 1369 1301 889 
Q 1547 409 2034 409 
Q 2525 409 2770 889 
Q 3016 1369 3016 2328 
Q 3016 3291 2770 3770 
Q 2525 4250 2034 4250 
z
M 2034 4750 
Q 2819 4750 3233 4129 
Q 3647 3509 3647 2328 
Q 3647 1150 3233 529 
Q 2819 -91 2034 -91 
Q 1250 -91 836 529 
Q 422 1150 422 2328 
Q 422 3509 836 4129 
Q 1250 4750 2034 4750 
z
" transform="scale(0.015625)"/>
        <path id="DejaVuSans-31" d="M 794 531 
L 1825 531 
L 1825 4091 
L 703 3866 
L 703 4441 
L 1819 4666 
L 2450 4666 
L 2450 531 
L 3481 531 
L 3481 0 
L 794 0 
L 794 531 
z
" transform="scale(0.015625)"/>
       </defs>
       <use xlink:href="#DejaVuSans-32"/>
       <use xlink:href="#DejaVuSans-30" x="63.623047"/>
       <use xlink:href="#DejaVuSans-31" x="127.246094"/>
       <use xlink:href="#DejaVuSans-32" x="190.869141"/>
      </g>
     </g>
    </g>
    <g id="xtick_2">
     <g id="line2d_2">
      <g>
       <use xlink:href="#m50f2b62b17" x="1415.086006" y="961.2" style="stroke: #000000; stroke-width: 0.8"/>
      </g>
     </g>
     <g id="text_2">
      <!-- 2013 -->
      <g transform="translate(1389.636006 983.396875) scale(0.2 -0.2)">
       <defs>
        <path id="DejaVuSans-33" d="M 2597 2516 
Q 3050 2419 3304 2112 
Q 3559 1806 3559 1356 
Q 3559 666 3084 287 
Q 2609 -91 1734 -91 
Q 1441 -91 1130 -33 
Q 819 25 488 141 
L 488 750 
Q 750 597 1062 519 
Q 1375 441 1716 441 
Q 2309 441 2620 675 
Q 2931 909 2931 1356 
Q 2931 1769 2642 2001 
Q 2353 2234 1838 2234 
L 1294 2234 
L 1294 2753 
L 1863 2753 
Q 2328 2753 2575 2939 
Q 2822 3125 2822 3475 
Q 2822 3834 2567 4026 
Q 2313 4219 1838 4219 
Q 1578 4219 1281 4162 
Q 984 4106 628 3988 
L 628 4550 
Q 988 4650 1302 4700 
Q 1616 4750 1894 4750 
Q 2613 4750 3031 4423 
Q 3450 4097 3450 3541 
Q 3450 3153 3228 2886 
Q 3006 2619 2597 2516 
z
" transform="scale(0.015625)"/>
       </defs>
       <use xlink:href="#DejaVuSans-32"/>
       <use xlink:href="#DejaVuSans-30" x="63.623047"/>
       <use xlink:href="#DejaVuSans-31" x="127.246094"/>
       <use xlink:href="#DejaVuSans-33" x="190.869141"/>
      </g>
     </g>
    </g>
    <g id="xtick_3">
     <g id="line2d_3">
      <g>
       <use xlink:href="#m50f2b62b17" x="2116.837927" y="961.2" style="stroke: #000000; stroke-width: 0.8"/>
      </g>
     </g>
     <g id="text_3">
      <!-- 2014 -->
      <g transform="translate(2091.387927 983.396875) scale(0.2 -0.2)">
       <defs>
        <path id="DejaVuSans-34" d="M 2419 4116 
L 825 1625 
L 2419 1625 
L 2419 4116 
z
M 2253 4666 
L 3047 4666 
L 3047 1625 
L 3713 1625 
L 3713 1100 
L 3047 1100 
L 3047 0 
L 2419 0 
L 2419 1100 
L 313 1100 
L 313 1709 
L 2253 4666 
z
" transform="scale(0.015625)"/>
       </defs>
       <use xlink:href="#DejaVuSans-32"/>
       <use xlink:href="#DejaVuSans-30" x="63.623047"/>
       <use xlink:href="#DejaVuSans-31" x="127.246094"/>
       <use xlink:href="#DejaVuSans-34" x="190.869141"/>
      </g>
     </g>
    </g>
    <g id="xtick_4">
     <g id="line2d_4">
      <g>
       <use xlink:href="#m50f2b62b17" x="2818.589849" y="961.2" style="stroke: #000000; stroke-width: 0.8"/>
      </g>
     </g>
     <g id="text_4">
      <!-- 2015 -->
      <g transform="translate(2793.139849 983.396875) scale(0.2 -0.2)">
       <defs>
        <path id="DejaVuSans-35" d="M 691 4666 
L 3169 4666 
L 3169 4134 
L 1269 4134 
L 1269 2991 
Q 1406 3038 1543 3061 
Q 1681 3084 1819 3084 
Q 2600 3084 3056 2656 
Q 3513 2228 3513 1497 
Q 3513 744 3044 326 
Q 2575 -91 1722 -91 
Q 1428 -91 1123 -41 
Q 819 9 494 109 
L 494 744 
Q 775 591 1075 516 
Q 1375 441 1709 441 
Q 2250 441 2565 725 
Q 2881 1009 2881 1497 
Q 2881 1984 2565 2268 
Q 2250 2553 1709 2553 
Q 1456 2553 1204 2497 
Q 953 2441 691 2322 
L 691 4666 
z
" transform="scale(0.015625)"/>
       </defs>
       <use xlink:href="#DejaVuSans-32"/>
       <use xlink:href="#DejaVuSans-30" x="63.623047"/>
       <use xlink:href="#DejaVuSans-31" x="127.246094"/>
       <use xlink:href="#DejaVuSans-35" x="190.869141"/>
      </g>
     </g>
    </g>
    <g id="xtick_5">
     <g id="line2d_5">
      <g>
       <use xlink:href="#m50f2b62b17" x="3520.34177" y="961.2" style="stroke: #000000; stroke-width: 0.8"/>
      </g>
     </g>
     <g id="text_5">
      <!-- 2016 -->
      <g transform="translate(3494.89177 983.396875) scale(0.2 -0.2)">
       <defs>
        <path id="DejaVuSans-36" d="M 2113 2584 
Q 1688 2584 1439 2293 
Q 1191 2003 1191 1497 
Q 1191 994 1439 701 
Q 1688 409 2113 409 
Q 2538 409 2786 701 
Q 3034 994 3034 1497 
Q 3034 2003 2786 2293 
Q 2538 2584 2113 2584 
z
M 3366 4563 
L 3366 3988 
Q 3128 4100 2886 4159 
Q 2644 4219 2406 4219 
Q 1781 4219 1451 3797 
Q 1122 3375 1075 2522 
Q 1259 2794 1537 2939 
Q 1816 3084 2150 3084 
Q 2853 3084 3261 2657 
Q 3669 2231 3669 1497 
Q 3669 778 3244 343 
Q 2819 -91 2113 -91 
Q 1303 -91 875 529 
Q 447 1150 447 2328 
Q 447 3434 972 4092 
Q 1497 4750 2381 4750 
Q 2619 4750 2861 4703 
Q 3103 4656 3366 4563 
z
" transform="scale(0.015625)"/>
       </defs>
       <use xlink:href="#DejaVuSans-32"/>
       <use xlink:href="#DejaVuSans-30" x="63.623047"/>
       <use xlink:href="#DejaVuSans-31" x="127.246094"/>
       <use xlink:href="#DejaVuSans-36" x="190.869141"/>
      </g>
     </g>
    </g>
    <g id="text_6">
     <!-- Time -->
     <g transform="translate(2374.032813 1006.753125) scale(0.2 -0.2)">
      <defs>
       <path id="DejaVuSans-54" d="M -19 4666 
L 3928 4666 
L 3928 4134 
L 2272 4134 
L 2272 0 
L 1638 0 
L 1638 4134 
L -19 4134 
L -19 4666 
z
" transform="scale(0.015625)"/>
       <path id="DejaVuSans-69" d="M 603 3500 
L 1178 3500 
L 1178 0 
L 603 0 
L 603 3500 
z
M 603 4863 
L 1178 4863 
L 1178 4134 
L 603 4134 
L 603 4863 
z
" transform="scale(0.015625)"/>
       <path id="DejaVuSans-6d" d="M 3328 2828 
Q 3544 3216 3844 3400 
Q 4144 3584 4550 3584 
Q 5097 3584 5394 3201 
Q 5691 2819 5691 2113 
L 5691 0 
L 5113 0 
L 5113 2094 
Q 5113 2597 4934 2840 
Q 4756 3084 4391 3084 
Q 3944 3084 3684 2787 
Q 3425 2491 3425 1978 
L 3425 0 
L 2847 0 
L 2847 2094 
Q 2847 2600 2669 2842 
Q 2491 3084 2119 3084 
Q 1678 3084 1418 2786 
Q 1159 2488 1159 1978 
L 1159 0 
L 581 0 
L 581 3500 
L 1159 3500 
L 1159 2956 
Q 1356 3278 1631 3431 
Q 1906 3584 2284 3584 
Q 2666 3584 2933 3390 
Q 3200 3197 3328 2828 
z
" transform="scale(0.015625)"/>
       <path id="DejaVuSans-65" d="M 3597 1894 
L 3597 1613 
L 953 1613 
Q 991 1019 1311 708 
Q 1631 397 2203 397 
Q 2534 397 2845 478 
Q 3156 559 3463 722 
L 3463 178 
Q 3153 47 2828 -22 
Q 2503 -91 2169 -91 
Q 1331 -91 842 396 
Q 353 884 353 1716 
Q 353 2575 817 3079 
Q 1281 3584 2069 3584 
Q 2775 3584 3186 3129 
Q 3597 2675 3597 1894 
z
M 3022 2063 
Q 3016 2534 2758 2815 
Q 2500 3097 2075 3097 
Q 1594 3097 1305 2825 
Q 1016 2553 972 2059 
L 3022 2063 
z
" transform="scale(0.015625)"/>
      </defs>
      <use xlink:href="#DejaVuSans-54"/>
      <use xlink:href="#DejaVuSans-69" x="57.958984"/>
      <use xlink:href="#DejaVuSans-6d" x="85.742188"/>
      <use xlink:href="#DejaVuSans-65" x="183.154297"/>
     </g>
    </g>
   </g>
   <g id="matplotlib.axis_2">
    <g id="ytick_1">
     <g id="line2d_6">
      <defs>
       <path id="mb3ebae98e7" d="M 0 0 
L -3.5 0 
" style="stroke: #000000; stroke-width: 0.8"/>
      </defs>
      <g>
       <use xlink:href="#mb3ebae98e7" x="585" y="887.774856" style="stroke: #000000; stroke-width: 0.8"/>
      </g>
     </g>
     <g id="text_7">
      <!-- −0.003 -->
      <g transform="translate(503.984375 895.373294) scale(0.2 -0.2)">
       <defs>
        <path id="DejaVuSans-2212" d="M 678 2272 
L 4684 2272 
L 4684 1741 
L 678 1741 
L 678 2272 
z
" transform="scale(0.015625)"/>
        <path id="DejaVuSans-2e" d="M 684 794 
L 1344 794 
L 1344 0 
L 684 0 
L 684 794 
z
" transform="scale(0.015625)"/>
       </defs>
       <use xlink:href="#DejaVuSans-2212"/>
       <use xlink:href="#DejaVuSans-30" x="83.789062"/>
       <use xlink:href="#DejaVuSans-2e" x="147.412109"/>
       <use xlink:href="#DejaVuSans-30" x="179.199219"/>
       <use xlink:href="#DejaVuSans-30" x="242.822266"/>
       <use xlink:href="#DejaVuSans-33" x="306.445312"/>
      </g>
     </g>
    </g>
    <g id="ytick_2">
     <g id="line2d_7">
      <g>
       <use xlink:href="#mb3ebae98e7" x="585" y="771.574605" style="stroke: #000000; stroke-width: 0.8"/>
      </g>
     </g>
     <g id="text_8">
      <!-- −0.002 -->
      <g transform="translate(503.984375 779.173042) scale(0.2 -0.2)">
       <use xlink:href="#DejaVuSans-2212"/>
       <use xlink:href="#DejaVuSans-30" x="83.789062"/>
       <use xlink:href="#DejaVuSans-2e" x="147.412109"/>
       <use xlink:href="#DejaVuSans-30" x="179.199219"/>
       <use xlink:href="#DejaVuSans-30" x="242.822266"/>
       <use xlink:href="#DejaVuSans-32" x="306.445312"/>
      </g>
     </g>
    </g>
    <g id="ytick_3">
     <g id="line2d_8">
      <g>
       <use xlink:href="#mb3ebae98e7" x="585" y="655.374353" style="stroke: #000000; stroke-width: 0.8"/>
      </g>
     </g>
     <g id="text_9">
      <!-- −0.001 -->
      <g transform="translate(503.984375 662.972791) scale(0.2 -0.2)">
       <use xlink:href="#DejaVuSans-2212"/>
       <use xlink:href="#DejaVuSans-30" x="83.789062"/>
       <use xlink:href="#DejaVuSans-2e" x="147.412109"/>
       <use xlink:href="#DejaVuSans-30" x="179.199219"/>
       <use xlink:href="#DejaVuSans-30" x="242.822266"/>
       <use xlink:href="#DejaVuSans-31" x="306.445312"/>
      </g>
     </g>
    </g>
    <g id="ytick_4">
     <g id="line2d_9">
      <g>
       <use xlink:href="#mb3ebae98e7" x="585" y="539.174102" style="stroke: #000000; stroke-width: 0.8"/>
      </g>
     </g>
     <g id="text_10">
      <!-- 0.000 -->
      <g transform="translate(520.74375 546.772539) scale(0.2 -0.2)">
       <use xlink:href="#DejaVuSans-30"/>
       <use xlink:href="#DejaVuSans-2e" x="63.623047"/>
       <use xlink:href="#DejaVuSans-30" x="95.410156"/>
       <use xlink:href="#DejaVuSans-30" x="159.033203"/>
       <use xlink:href="#DejaVuSans-30" x="222.65625"/>
      </g>
     </g>
    </g>
    <g id="ytick_5">
     <g id="line2d_10">
      <g>
       <use xlink:href="#mb3ebae98e7" x="585" y="422.97385" style="stroke: #000000; stroke-width: 0.8"/>
      </g>
     </g>
     <g id="text_11">
      <!-- 0.001 -->
      <g transform="translate(520.74375 430.572288) scale(0.2 -0.2)">
       <use xlink:href="#DejaVuSans-30"/>
       <use xlink:href="#DejaVuSans-2e" x="63.623047"/>
       <use xlink:href="#DejaVuSans-30" x="95.410156"/>
       <use xlink:href="#DejaVuSans-30" x="159.033203"/>
       <use xlink:href="#DejaVuSans-31" x="222.65625"/>
      </g>
     </g>
    </g>
    <g id="ytick_6">
     <g id="line2d_11">
      <g>
       <use xlink:href="#mb3ebae98e7" x="585" y="306.773598" style="stroke: #000000; stroke-width: 0.8"/>
      </g>
     </g>
     <g id="text_12">
      <!-- 0.002 -->
      <g transform="translate(520.74375 314.372036) scale(0.2 -0.2)">
       <use xlink:href="#DejaVuSans-30"/>
       <use xlink:href="#DejaVuSans-2e" x="63.623047"/>
       <use xlink:href="#DejaVuSans-30" x="95.410156"/>
       <use xlink:href="#DejaVuSans-30" x="159.033203"/>
       <use xlink:href="#DejaVuSans-32" x="222.65625"/>
      </g>
     </g>
    </g>
    <g id="ytick_7">
     <g id="line2d_12">
      <g>
       <use xlink:href="#mb3ebae98e7" x="585" y="190.573347" style="stroke: #000000; stroke-width: 0.8"/>
      </g>
     </g>
     <g id="text_13">
      <!-- 0.003 -->
      <g transform="translate(520.74375 198.171784) scale(0.2 -0.2)">
       <use xlink:href="#DejaVuSans-30"/>
       <use xlink:href="#DejaVuSans-2e" x="63.623047"/>
       <use xlink:href="#DejaVuSans-30" x="95.410156"/>
       <use xlink:href="#DejaVuSans-30" x="159.033203"/>
       <use xlink:href="#DejaVuSans-33" x="222.65625"/>
      </g>
     </g>
    </g>
    <g id="text_14">
     <!-- East(m) -->
     <g transform="translate(495.825 584.520313) rotate(-90) scale(0.2 -0.2)">
      <defs>
       <path id="DejaVuSans-45" d="M 628 4666 
L 3578 4666 
L 3578 4134 
L 1259 4134 
L 1259 2753 
L 3481 2753 
L 3481 2222 
L 1259 2222 
L 1259 531 
L 3634 531 
L 3634 0 
L 628 0 
L 628 4666 
z
" transform="scale(0.015625)"/>
       <path id="DejaVuSans-61" d="M 2194 1759 
Q 1497 1759 1228 1600 
Q 959 1441 959 1056 
Q 959 750 1161 570 
Q 1363 391 1709 391 
Q 2188 391 2477 730 
Q 2766 1069 2766 1631 
L 2766 1759 
L 2194 1759 
z
M 3341 1997 
L 3341 0 
L 2766 0 
L 2766 531 
Q 2569 213 2275 61 
Q 1981 -91 1556 -91 
Q 1019 -91 701 211 
Q 384 513 384 1019 
Q 384 1609 779 1909 
Q 1175 2209 1959 2209 
L 2766 2209 
L 2766 2266 
Q 2766 2663 2505 2880 
Q 2244 3097 1772 3097 
Q 1472 3097 1187 3025 
Q 903 2953 641 2809 
L 641 3341 
Q 956 3463 1253 3523 
Q 1550 3584 1831 3584 
Q 2591 3584 2966 3190 
Q 3341 2797 3341 1997 
z
" transform="scale(0.015625)"/>
       <path id="DejaVuSans-73" d="M 2834 3397 
L 2834 2853 
Q 2591 2978 2328 3040 
Q 2066 3103 1784 3103 
Q 1356 3103 1142 2972 
Q 928 2841 928 2578 
Q 928 2378 1081 2264 
Q 1234 2150 1697 2047 
L 1894 2003 
Q 2506 1872 2764 1633 
Q 3022 1394 3022 966 
Q 3022 478 2636 193 
Q 2250 -91 1575 -91 
Q 1294 -91 989 -36 
Q 684 19 347 128 
L 347 722 
Q 666 556 975 473 
Q 1284 391 1588 391 
Q 1994 391 2212 530 
Q 2431 669 2431 922 
Q 2431 1156 2273 1281 
Q 2116 1406 1581 1522 
L 1381 1569 
Q 847 1681 609 1914 
Q 372 2147 372 2553 
Q 372 3047 722 3315 
Q 1072 3584 1716 3584 
Q 2034 3584 2315 3537 
Q 2597 3491 2834 3397 
z
" transform="scale(0.015625)"/>
       <path id="DejaVuSans-74" d="M 1172 4494 
L 1172 3500 
L 2356 3500 
L 2356 3053 
L 1172 3053 
L 1172 1153 
Q 1172 725 1289 603 
Q 1406 481 1766 481 
L 2356 481 
L 2356 0 
L 1766 0 
Q 1100 0 847 248 
Q 594 497 594 1153 
L 594 3053 
L 172 3053 
L 172 3500 
L 594 3500 
L 594 4494 
L 1172 4494 
z
" transform="scale(0.015625)"/>
       <path id="DejaVuSans-28" d="M 1984 4856 
Q 1566 4138 1362 3434 
Q 1159 2731 1159 2009 
Q 1159 1288 1364 580 
Q 1569 -128 1984 -844 
L 1484 -844 
Q 1016 -109 783 600 
Q 550 1309 550 2009 
Q 550 2706 781 3412 
Q 1013 4119 1484 4856 
L 1984 4856 
z
" transform="scale(0.015625)"/>
       <path id="DejaVuSans-29" d="M 513 4856 
L 1013 4856 
Q 1481 4119 1714 3412 
Q 1947 2706 1947 2009 
Q 1947 1309 1714 600 
Q 1481 -109 1013 -844 
L 513 -844 
Q 928 -128 1133 580 
Q 1338 1288 1338 2009 
Q 1338 2731 1133 3434 
Q 928 4138 513 4856 
z
" transform="scale(0.015625)"/>
      </defs>
      <use xlink:href="#DejaVuSans-45"/>
      <use xlink:href="#DejaVuSans-61" x="63.183594"/>
      <use xlink:href="#DejaVuSans-73" x="124.462891"/>
      <use xlink:href="#DejaVuSans-74" x="176.5625"/>
      <use xlink:href="#DejaVuSans-28" x="215.771484"/>
      <use xlink:href="#DejaVuSans-6d" x="254.785156"/>
      <use xlink:href="#DejaVuSans-29" x="352.197266"/>
     </g>
    </g>
   </g>
   <g id="line2d_13">
    <path d="M 749.863636 464.414067 
L 751.786244 431.606791 
L 753.708852 494.66197 
L 755.63146 491.333347 
L 757.554068 510.907143 
L 759.476676 479.916622 
L 761.399284 491.347001 
L 763.321892 449.106145 
L 765.2445 455.4432 
L 767.167108 390.413036 
L 769.089716 346.875002 
L 771.012324 351.660368 
L 772.934932 340.23623 
L 774.85754 330.208505 
L 776.780148 343.793388 
L 778.702756 349.730531 
L 780.625364 347.726254 
L 782.547972 345.529848 
L 784.47058 355.668421 
L 786.393188 398.781889 
L 792.161012 448.061687 
L 794.08362 478.134716 
L 796.006228 515.832043 
L 797.928836 569.084856 
L 799.851444 598.265445 
L 801.774052 640.895373 
L 803.69666 614.871893 
L 805.619268 602.951075 
L 807.541876 544.734426 
L 815.232309 461.539817 
L 817.154917 558.652703 
L 821.000133 686.651151 
L 822.922741 690.846267 
L 824.845349 729.194698 
L 826.767957 707.981313 
L 828.690565 665.860395 
L 830.613173 574.540084 
L 832.535781 529.433839 
L 834.458389 471.277084 
L 836.380997 463.990584 
L 838.303605 431.302506 
L 840.226213 426.191651 
L 842.148821 388.949796 
L 844.071429 388.512243 
L 845.994037 386.85307 
L 847.916645 413.038613 
L 849.839253 420.24659 
L 853.684469 462.034896 
L 855.607077 461.671889 
L 857.529685 437.685528 
L 859.452293 433.664314 
L 865.220117 356.028169 
L 867.142725 341.405518 
L 869.065333 349.346599 
L 870.987941 370.954903 
L 872.910549 398.204726 
L 874.833157 440.899259 
L 878.678373 555.982093 
L 880.600981 604.444542 
L 882.523589 703.928424 
L 884.446197 728.634224 
L 890.214021 668.089634 
L 892.136629 599.874501 
L 894.059237 525.448232 
L 895.981845 397.296228 
L 897.904453 389.994279 
L 899.827061 425.630317 
L 901.749669 437.890968 
L 903.672277 447.001267 
L 905.594885 431.521729 
L 907.517493 418.909724 
L 909.440101 447.97314 
L 911.362709 440.954113 
L 913.285317 419.704959 
L 917.130533 414.45369 
L 919.053141 448.937459 
L 920.975749 425.519433 
L 922.898357 413.095249 
L 924.820965 381.950787 
L 926.743573 356.438203 
L 928.666181 325.032899 
L 932.511397 328.941446 
L 934.434005 354.850078 
L 936.356613 369.899466 
L 938.279221 400.895784 
L 949.814869 377.38792 
L 955.582693 384.366917 
L 957.505301 366.517083 
L 959.427909 377.542545 
L 961.350517 356.007563 
L 969.040949 476.060793 
L 974.808773 562.879008 
L 976.731381 534.598769 
L 978.653989 525.247752 
L 980.576597 494.381309 
L 984.421813 511.21153 
L 986.344421 470.681476 
L 988.267029 506.52781 
L 990.189637 535.890184 
L 992.112245 492.043348 
L 995.957461 528.960877 
L 997.880069 503.957218 
L 999.802677 490.299212 
L 1001.725285 449.230144 
L 1007.493109 476.380209 
L 1009.415717 518.192449 
L 1011.338325 530.1926 
L 1013.260933 577.417619 
L 1015.183541 599.557153 
L 1017.106149 597.573467 
L 1019.028757 552.412559 
L 1020.951365 575.5314 
L 1022.873973 574.728523 
L 1024.796581 547.153965 
L 1026.719189 501.583451 
L 1028.641797 499.350183 
L 1030.564405 498.436807 
L 1034.409621 438.631285 
L 1036.332229 417.672995 
L 1038.254837 423.452086 
L 1042.100053 467.144895 
L 1053.635701 728.665693 
L 1057.480917 660.015063 
L 1159.379141 560.423721 
L 1161.301749 559.500515 
L 1163.224357 524.232902 
L 1318.955606 276.825052 
L 1320.878214 238.262265 
L 1322.800822 262.12706 
L 1332.413862 290.836127 
L 1336.259078 309.798141 
L 1338.181686 317.789308 
L 1340.104294 358.480867 
L 1342.026902 348.042432 
L 1343.94951 354.739152 
L 1345.872118 308.386556 
L 1347.794726 271.531698 
L 1365.098198 466.639114 
L 1368.943414 454.476519 
L 1415.086006 270.580068 
L 1417.008614 249.545153 
L 1424.699046 528.552007 
L 1426.621654 603.398381 
L 1428.544262 652.18543 
L 1430.46687 713.190614 
L 1432.389478 736.572677 
L 1434.312086 673.465626 
L 1436.234694 580.508015 
L 1438.157302 530.034326 
L 1442.002518 464.636979 
L 1470.841638 417.993474 
L 1472.764246 395.693605 
L 1474.686854 414.301682 
L 1476.609462 451.293217 
L 1480.454678 488.854268 
L 1482.377286 439.081391 
L 1484.299894 451.087784 
L 1486.222502 475.680312 
L 1488.14511 484.255932 
L 1491.990326 402.248168 
L 1499.680758 280.349956 
L 1501.603366 260.711005 
L 1503.525974 277.825192 
L 1509.293798 419.452418 
L 1511.216406 454.332944 
L 1513.139014 418.104026 
L 1515.061622 430.935118 
L 1516.98423 411.11167 
L 1520.829446 361.23054 
L 1522.752054 309.065736 
L 1524.674662 273.448249 
L 1528.519878 279.777105 
L 1532.365094 307.554005 
L 1540.055526 303.022153 
L 1541.978134 307.751573 
L 1543.900742 310.969026 
L 1545.82335 308.102527 
L 1547.745958 323.027983 
L 1549.668566 307.851362 
L 1551.591174 307.518167 
L 1553.513782 289.208413 
L 1555.43639 288.601002 
L 1557.358998 268.938364 
L 1559.281606 240.580202 
L 1563.126822 260.249264 
L 1565.04943 255.30583 
L 1566.972038 277.677711 
L 1568.894646 273.214104 
L 1572.739862 307.238432 
L 1574.66247 312.128653 
L 1576.585078 248.281047 
L 1578.507686 236.244378 
L 1580.430294 240.081398 
L 1582.352902 260.872015 
L 1584.27551 205.910499 
L 1586.198118 182.980451 
L 1588.120726 167.4 
L 1590.043334 216.637237 
L 1593.88855 260.393053 
L 1636.185926 436.692149 
L 1640.031142 408.272178 
L 1641.95375 439.716457 
L 1643.876358 407.441359 
L 1645.798966 438.037314 
L 1647.721574 414.440452 
L 1649.644182 404.548369 
L 1653.489398 446.271581 
L 1655.412006 423.148882 
L 1657.334614 450.106422 
L 1665.025046 421.594915 
L 1666.947654 434.836949 
L 1668.870262 488.777343 
L 1672.715478 446.418399 
L 1674.638086 428.737396 
L 1676.560694 439.197054 
L 1678.483302 420.393162 
L 1680.40591 364.07722 
L 1684.251126 293.966162 
L 1686.173734 316.660138 
L 1691.941558 427.925279 
L 1693.864166 498.328462 
L 1695.786774 513.555719 
L 1697.709382 543.61909 
L 1699.63199 541.287325 
L 1701.554598 559.717477 
L 1703.477206 553.226191 
L 1722.703287 431.332961 
L 1724.625895 410.882455 
L 1726.548503 466.163925 
L 1728.471111 493.922316 
L 1730.393719 508.479839 
L 1732.316327 511.834852 
L 1734.238935 497.389262 
L 1736.161543 501.456475 
L 1738.084151 523.406283 
L 1740.006759 500.94746 
L 1743.851975 515.621229 
L 1745.774583 525.732766 
L 1751.542407 547.825626 
L 1753.465015 590.662063 
L 1755.387623 573.641354 
L 1757.310231 551.817325 
L 1759.232839 561.558436 
L 1761.155447 550.418081 
L 1765.000663 512.253753 
L 1766.923271 517.235252 
L 1772.691095 538.931759 
L 1774.613703 579.097711 
L 1776.536311 613.018875 
L 1780.381527 633.276779 
L 1782.304135 557.177043 
L 1784.226743 600.298897 
L 1786.149351 605.698485 
L 1789.994567 498.931964 
L 1801.530215 671.073067 
L 1805.375431 607.468416 
L 1807.298039 552.204091 
L 1809.220647 505.062506 
L 1811.143255 490.756989 
L 1813.065863 510.446887 
L 1816.911079 510.043544 
L 1818.833687 553.282679 
L 1820.756295 557.891787 
L 1822.678903 598.272425 
L 1824.601511 562.56236 
L 1830.369335 612.341033 
L 1832.291943 576.919369 
L 1834.214551 580.104573 
L 1836.137159 591.205948 
L 1838.059767 596.451768 
L 1839.982375 580.691609 
L 1841.904983 543.600013 
L 1845.750199 533.124819 
L 1847.672807 541.400211 
L 1859.208455 385.096176 
L 1861.131063 369.810918 
L 1863.053671 383.291971 
L 1864.976279 422.802692 
L 1866.898887 419.816529 
L 1868.821495 436.810643 
L 1870.744103 431.775253 
L 1872.666711 440.342015 
L 1874.589319 442.85516 
L 1876.511927 431.887892 
L 1878.434535 390.59353 
L 1880.357143 396.116445 
L 1884.202359 364.825123 
L 1886.124967 346.866122 
L 1888.047575 305.28142 
L 1889.970183 311.483284 
L 1891.892791 273.444337 
L 1893.815399 344.029929 
L 1895.738007 304.615679 
L 1899.583223 263.325999 
L 1901.505831 293.619977 
L 1903.428439 353.244414 
L 1905.351047 432.27386 
L 1907.273655 374.740675 
L 1909.196263 416.92083 
L 1911.118871 412.77309 
L 1913.041479 464.732162 
L 1914.964087 486.842983 
L 2024.552743 262.553506 
L 2028.397959 214.947095 
L 2030.320567 230.198241 
L 2032.243175 228.169185 
L 2034.165783 197.940109 
L 2036.088391 183.948005 
L 2038.010999 175.44732 
L 2039.933607 256.776302 
L 2049.546647 317.621164 
L 2051.469255 365.133171 
L 2057.237079 464.225652 
L 2059.159687 420.175787 
L 2061.082295 408.020881 
L 2064.927511 487.003273 
L 2068.772727 492.331521 
L 2137.986615 333.095081 
L 2139.909223 379.905597 
L 2143.754439 364.152687 
L 2145.677047 359.692944 
L 2172.59356 377.151539 
L 2255.265704 375.571787 
L 2257.188312 447.148977 
L 2261.033528 627.213363 
L 2262.956136 625.670032 
L 2264.878744 650.680866 
L 2266.801352 643.405241 
L 2268.72396 624.561134 
L 2270.646568 579.741073 
L 2272.569176 475.549871 
L 2274.491784 400.180574 
L 2276.414392 406.446717 
L 2282.182216 429.916146 
L 2314.866552 535.965294 
L 2316.78916 505.050697 
L 2328.324808 463.303198 
L 2330.247416 465.343524 
L 2332.170024 451.791759 
L 2334.092632 433.190835 
L 2355.24132 485.941372 
L 2485.978664 758.207838 
L 2487.901272 759.153367 
L 2489.82388 739.168282 
L 2491.746488 707.511071 
L 2495.591704 695.425976 
L 2512.895176 620.267571 
L 2747.453353 197.191865 
L 2997.392393 314.452982 
L 2999.315001 327.870059 
L 3001.237609 381.038594 
L 3014.695865 550.857319 
L 3018.541081 551.722722 
L 3020.463689 602.646018 
L 3024.308905 624.402276 
L 3026.231513 650.519708 
L 3030.076729 681.019631 
L 3031.999337 700.7185 
L 3055.070633 722.012038 
L 3056.993241 711.267327 
L 3058.915849 786.429519 
L 3060.838457 759.221372 
L 3062.761065 761.192783 
L 3064.683673 756.522423 
L 3068.528889 765.129651 
L 3072.374105 721.572199 
L 3076.219321 680.310901 
L 3078.141929 670.308585 
L 3081.987146 590.657519 
L 3085.832362 575.798031 
L 3087.75497 603.214417 
L 3089.677578 658.541352 
L 3093.522794 685.951818 
L 3095.445402 734.915274 
L 3097.36801 774.89219 
L 3101.213226 767.316457 
L 3106.98105 689.346123 
L 3108.903658 687.809185 
L 3112.748874 672.632617 
L 3114.671482 686.516082 
L 3116.59409 731.78424 
L 3122.361914 870.572272 
L 3124.284522 881.174678 
L 3126.20713 843.715116 
L 3128.129738 849.527957 
L 3133.897562 781.499264 
L 3135.82017 683.848332 
L 3137.742778 680.909452 
L 3139.665386 710.507828 
L 3141.587994 718.302701 
L 3145.43321 771.061355 
L 3147.355818 817.846823 
L 3151.201034 867.463191 
L 3153.123642 862.699092 
L 3155.04625 798.18023 
L 3158.891466 717.790958 
L 3160.814074 701.622991 
L 3162.736682 690.695915 
L 3164.65929 674.490192 
L 3189.653194 847.86953 
L 3191.575802 871.650545 
L 3193.49841 915.988816 
L 3195.421018 870.043661 
L 3197.343626 833.955235 
L 3199.266234 800.843244 
L 3205.034058 707.459281 
L 3216.569706 790.17777 
L 3220.414922 829.228814 
L 3222.33753 810.190177 
L 3224.260138 789.648427 
L 3226.182746 741.877344 
L 3230.027962 636.304238 
L 3237.718394 622.536213 
L 3239.641002 663.915963 
L 3256.944474 705.690132 
L 3258.867082 672.204241 
L 3260.78969 660.248055 
L 3264.634906 650.904435 
L 3266.557514 619.428472 
L 3268.480122 632.764348 
L 3270.40273 588.291079 
L 3272.325338 574.187903 
L 3274.247946 567.892715 
L 3276.170554 564.598368 
L 3283.860986 685.224761 
L 3291.551418 718.653983 
L 3293.474026 695.627742 
L 3295.396634 644.919232 
L 3297.319242 668.634015 
L 3299.24185 632.264786 
L 3301.164458 581.262891 
L 3303.087066 599.767361 
L 3306.932282 511.729811 
L 3308.85489 509.942501 
L 3314.622714 578.674122 
L 3320.390538 731.224279 
L 3322.313146 793.988723 
L 3324.235754 767.400252 
L 3326.158362 712.549929 
L 3328.08097 705.402468 
L 3330.003578 679.709549 
L 3331.926186 685.344072 
L 3333.848794 663.487266 
L 3335.771402 627.817353 
L 3337.69401 661.605553 
L 3339.616618 683.686702 
L 3341.539226 677.767315 
L 3343.461834 673.205709 
L 3347.30705 610.063244 
L 3349.229658 620.816931 
L 3351.152266 596.785616 
L 3353.074874 604.848492 
L 3354.997482 635.961306 
L 3356.92009 629.034015 
L 3358.842698 643.156899 
L 3360.765306 647.224791 
L 3362.687914 619.41392 
L 3364.610522 573.511672 
L 3366.53313 547.000144 
L 3368.455738 510.795925 
L 3370.378346 535.274874 
L 3372.300954 523.235251 
L 3374.223562 540.074574 
L 3376.14617 582.712322 
L 3378.068778 643.293609 
L 3379.991386 649.80638 
L 3381.913994 662.941617 
L 3383.836602 639.243924 
L 3385.75921 665.131261 
L 3387.681818 654.578514 
L 3389.604426 649.612976 
L 3393.449642 683.06898 
L 3395.37225 695.143466 
L 3397.294858 722.118519 
L 3399.217466 707.678911 
L 3401.140074 708.93769 
L 3403.062682 704.990662 
L 3404.98529 676.975223 
L 3406.907898 684.7829 
L 3410.753114 658.133228 
L 3412.675722 661.497745 
L 3414.59833 672.587137 
L 3416.520938 654.133401 
L 3418.443546 682.364262 
L 3420.366154 699.436011 
L 3422.288762 671.784674 
L 3424.21137 701.950788 
L 3426.133978 736.190117 
L 3428.056586 760.793094 
L 3429.979194 839.202477 
L 3431.901802 847.996063 
L 3433.82441 861.991185 
L 3435.747018 923.4 
L 3437.669626 902.01987 
L 3439.592234 839.081635 
L 3441.514842 841.315316 
L 3443.43745 767.70153 
L 3445.360058 715.649694 
L 3447.282666 651.267755 
L 3449.205274 610.004042 
L 3451.127882 624.03838 
L 3453.05049 665.327013 
L 3454.973098 640.976145 
L 3456.895706 674.359309 
L 3458.818314 719.543451 
L 3460.740922 772.911566 
L 3462.66353 774.60449 
L 3464.586138 779.086898 
L 3466.508746 760.445013 
L 3468.431354 748.872862 
L 3470.353962 712.424926 
L 3472.27657 679.739625 
L 3474.199178 639.371646 
L 3476.121786 651.476609 
L 3478.044394 636.958504 
L 3479.967002 711.621693 
L 3481.88961 757.884353 
L 3483.812218 764.507299 
L 3485.734826 747.276862 
L 3487.657434 753.79011 
L 3489.580042 743.516215 
L 3493.425258 721.499672 
L 3495.347866 688.375188 
L 3497.270474 689.872553 
L 3499.193082 740.501847 
L 3501.11569 736.924656 
L 3503.038298 744.152684 
L 3504.960906 727.396803 
L 3506.883514 712.519246 
L 3508.806122 714.923919 
L 3510.72873 713.585546 
L 3512.651338 687.44665 
L 3514.573946 699.698128 
L 3516.496554 697.008079 
L 3518.419162 716.825344 
L 3522.264378 710.752684 
L 3524.186986 694.342895 
L 3526.109594 748.841395 
L 3528.032202 757.690855 
L 3529.95481 763.527103 
L 3531.877418 793.719861 
L 3533.800027 791.766679 
L 3535.722635 788.342565 
L 3537.645243 793.705482 
L 3539.567851 726.799197 
L 3541.490459 696.044339 
L 3543.413067 736.679599 
L 3545.335675 711.175326 
L 3547.258283 751.577789 
L 3549.180891 782.727733 
L 3551.103499 801.156581 
L 3553.026107 818.05099 
L 3554.948715 813.526171 
L 3556.871323 819.533087 
L 3558.793931 800.061137 
L 3560.716539 746.880982 
L 3562.639147 751.129643 
L 3564.561755 744.365961 
L 3574.174795 722.188535 
L 3576.097403 702.361399 
L 3578.020011 660.671432 
L 3581.865227 681.97246 
L 3583.787835 709.427028 
L 3585.710443 726.20785 
L 3587.633051 699.617771 
L 3589.555659 685.19759 
L 3591.478267 694.937846 
L 3593.400875 626.818862 
L 3595.323483 622.819051 
L 3635.698251 583.963801 
L 3641.466075 550.851673 
L 3647.233899 596.996763 
L 3649.156507 568.644193 
L 3651.079115 548.095943 
L 3653.001723 565.770673 
L 3654.924331 575.693325 
L 3656.846939 597.244143 
L 3658.769547 621.085887 
L 3660.692155 634.203691 
L 3662.614763 644.465574 
L 3664.537371 636.415412 
L 3666.459979 644.206006 
L 3668.382587 612.895721 
L 3670.305195 631.474829 
L 3672.227803 605.87048 
L 3674.150411 583.578038 
L 3676.073019 558.078964 
L 3677.995627 589.032604 
L 3679.918235 557.244168 
L 3681.840843 577.342502 
L 3683.763451 528.259757 
L 3685.686059 529.627912 
L 3687.608667 583.948845 
L 3689.531275 585.162157 
L 3691.453883 549.761932 
L 3693.376491 534.922393 
L 3695.299099 527.036284 
L 3697.221707 523.249224 
L 3699.144315 527.932818 
L 3701.066923 440.139322 
L 3702.989531 504.885835 
L 3704.912139 483.057901 
L 3706.834747 485.280387 
L 3708.757355 475.190156 
L 3710.679963 493.332756 
L 3712.602571 475.650964 
L 3714.525179 500.249853 
L 3718.370395 469.013453 
L 3720.293003 535.914871 
L 3722.215611 535.364845 
L 3724.138219 498.035535 
L 3727.983435 554.092088 
L 3729.906043 597.672036 
L 3731.828651 624.952011 
L 3733.751259 549.642408 
L 3735.673867 603.458412 
L 3739.519083 664.481115 
L 3741.441691 682.393729 
L 3743.364299 619.462483 
L 3745.286907 628.317429 
L 3747.209515 623.866092 
L 3749.132123 553.896316 
L 3751.054731 523.629402 
L 3754.899947 484.911674 
L 3756.822555 539.641267 
L 3758.745163 557.423214 
L 3760.667771 589.4656 
L 3762.590379 603.501219 
L 3768.358203 577.369251 
L 3770.280811 585.656417 
L 3772.203419 551.397273 
L 3774.126027 538.621662 
L 3776.048635 567.20236 
L 3777.971243 604.904204 
L 3779.893851 607.524212 
L 3877.946859 830.843039 
L 3879.869467 806.426764 
L 3881.792075 709.755363 
L 3887.559899 646.899955 
L 3889.482507 598.189642 
L 3891.405115 611.553467 
L 3897.172939 671.398301 
L 3904.863371 721.597643 
L 3908.708587 712.988165 
L 3926.012059 742.991905 
L 3927.934667 721.209205 
L 3929.857275 708.614322 
L 3931.779883 662.603768 
L 3933.702491 629.971784 
L 3943.315531 632.730756 
L 3945.238139 680.007692 
L 3951.005963 721.377728 
L 3952.928571 636.53102 
L 3954.851179 580.092884 
L 3956.773787 558.580574 
L 3958.696395 498.928612 
L 3960.619003 479.696701 
L 3962.541611 485.452692 
L 3968.309435 594.621731 
L 3974.077259 667.573936 
L 3975.999867 708.948698 
L 3977.922475 706.084205 
L 3979.845083 689.910582 
L 3981.767691 602.417181 
L 3985.612908 668.739886 
L 3987.535516 639.28188 
L 3989.458124 580.325077 
L 3991.380732 595.829688 
L 4000.993772 618.266606 
L 4002.91638 636.246307 
L 4004.838988 671.761589 
L 4006.761596 702.301039 
L 4008.684204 677.806557 
L 4010.606812 669.748531 
L 4012.52942 695.41994 
L 4014.452028 683.813269 
L 4016.374636 703.288166 
L 4018.297244 657.667829 
L 4020.219852 628.920517 
L 4022.14246 614.672646 
L 4024.065068 586.133874 
L 4025.987676 570.282129 
L 4027.910284 538.160697 
L 4029.832892 496.070366 
L 4041.36854 412.854028 
L 4043.291148 420.882465 
L 4045.213756 445.771936 
L 4047.136364 446.398638 
L 4047.136364 446.398638 
" clip-path="url(#pbf56fabfc7)" style="fill: none; stroke: #a3a3a3; stroke-width: 2.5; stroke-linecap: square"/>
   </g>
   <g id="patch_3">
    <path d="M 585 961.2 
L 585 129.6 
" style="fill: none; stroke: #000000; stroke-width: 0.8; stroke-linejoin: miter; stroke-linecap: square"/>
   </g>
   <g id="patch_4">
    <path d="M 4212 961.2 
L 4212 129.6 
" style="fill: none; stroke: #000000; stroke-width: 0.8; stroke-linejoin: miter; stroke-linecap: square"/>
   </g>
   <g id="patch_5">
    <path d="M 585 961.2 
L 4212 961.2 
" style="fill: none; stroke: #000000; stroke-width: 0.8; stroke-linejoin: miter; stroke-linecap: square"/>
   </g>
   <g id="patch_6">
    <path d="M 585 129.6 
L 4212 129.6 
" style="fill: none; stroke: #000000; stroke-width: 0.8; stroke-linejoin: miter; stroke-linecap: square"/>
   </g>
   <g id="text_15">
    <!-- POZZ -->
    <g transform="translate(2357.097656 123.360937) scale(0.3 -0.3)">
     <defs>
      <path id="DejaVuSans-50" d="M 1259 4147 
L 1259 2394 
L 2053 2394 
Q 2494 2394 2734 2622 
Q 2975 2850 2975 3272 
Q 2975 3691 2734 3919 
Q 2494 4147 2053 4147 
L 1259 4147 
z
M 628 4666 
L 2053 4666 
Q 2838 4666 3239 4311 
Q 3641 3956 3641 3272 
Q 3641 2581 3239 2228 
Q 2838 1875 2053 1875 
L 1259 1875 
L 1259 0 
L 628 0 
L 628 4666 
z
" transform="scale(0.015625)"/>
      <path id="DejaVuSans-4f" d="M 2522 4238 
Q 1834 4238 1429 3725 
Q 1025 3213 1025 2328 
Q 1025 1447 1429 934 
Q 1834 422 2522 422 
Q 3209 422 3611 934 
Q 4013 1447 4013 2328 
Q 4013 3213 3611 3725 
Q 3209 4238 2522 4238 
z
M 2522 4750 
Q 3503 4750 4090 4092 
Q 4678 3434 4678 2328 
Q 4678 1225 4090 567 
Q 3503 -91 2522 -91 
Q 1538 -91 948 565 
Q 359 1222 359 2328 
Q 359 3434 948 4092 
Q 1538 4750 2522 4750 
z
" transform="scale(0.015625)"/>
      <path id="DejaVuSans-5a" d="M 359 4666 
L 4025 4666 
L 4025 4184 
L 1075 531 
L 4097 531 
L 4097 0 
L 288 0 
L 288 481 
L 3238 4134 
L 359 4134 
L 359 4666 
z
" transform="scale(0.015625)"/>
     </defs>
     <use xlink:href="#DejaVuSans-50"/>
     <use xlink:href="#DejaVuSans-4f" x="60.302734"/>
     <use xlink:href="#DejaVuSans-5a" x="139.013672"/>
     <use xlink:href="#DejaVuSans-5a" x="207.519531"/>
    </g>
   </g>
   <g id="legend_1">
    <g id="patch_7">
     <path d="M 4150.035937 152.278125 
L 4205 152.278125 
Q 4207 152.278125 4207 150.278125 
L 4207 136.6 
Q 4207 134.6 4205 134.6 
L 4150.035937 134.6 
Q 4148.035937 134.6 4148.035937 136.6 
L 4148.035937 150.278125 
Q 4148.035937 152.278125 4150.035937 152.278125 
z
" style="fill: #ffffff; opacity: 0.8; stroke: #cccccc; stroke-linejoin: miter"/>
    </g>
    <g id="line2d_14">
     <path d="M 4152.035937 142.698438 
L 4162.035937 142.698438 
L 4172.035937 142.698438 
" style="fill: none; stroke: #a3a3a3; stroke-width: 2.5; stroke-linecap: square"/>
    </g>
    <g id="text_16">
     <!-- pozz -->
     <g transform="translate(4180.035937 146.198438) scale(0.1 -0.1)">
      <defs>
       <path id="DejaVuSans-70" d="M 1159 525 
L 1159 -1331 
L 581 -1331 
L 581 3500 
L 1159 3500 
L 1159 2969 
Q 1341 3281 1617 3432 
Q 1894 3584 2278 3584 
Q 2916 3584 3314 3078 
Q 3713 2572 3713 1747 
Q 3713 922 3314 415 
Q 2916 -91 2278 -91 
Q 1894 -91 1617 61 
Q 1341 213 1159 525 
z
M 3116 1747 
Q 3116 2381 2855 2742 
Q 2594 3103 2138 3103 
Q 1681 3103 1420 2742 
Q 1159 2381 1159 1747 
Q 1159 1113 1420 752 
Q 1681 391 2138 391 
Q 2594 391 2855 752 
Q 3116 1113 3116 1747 
z
" transform="scale(0.015625)"/>
       <path id="DejaVuSans-6f" d="M 1959 3097 
Q 1497 3097 1228 2736 
Q 959 2375 959 1747 
Q 959 1119 1226 758 
Q 1494 397 1959 397 
Q 2419 397 2687 759 
Q 2956 1122 2956 1747 
Q 2956 2369 2687 2733 
Q 2419 3097 1959 3097 
z
M 1959 3584 
Q 2709 3584 3137 3096 
Q 3566 2609 3566 1747 
Q 3566 888 3137 398 
Q 2709 -91 1959 -91 
Q 1206 -91 779 398 
Q 353 888 353 1747 
Q 353 2609 779 3096 
Q 1206 3584 1959 3584 
z
" transform="scale(0.015625)"/>
       <path id="DejaVuSans-7a" d="M 353 3500 
L 3084 3500 
L 3084 2975 
L 922 459 
L 3084 459 
L 3084 0 
L 275 0 
L 275 525 
L 2438 3041 
L 353 3041 
L 353 3500 
z
" transform="scale(0.015625)"/>
      </defs>
      <use xlink:href="#DejaVuSans-70"/>
      <use xlink:href="#DejaVuSans-6f" x="63.476562"/>
      <use xlink:href="#DejaVuSans-7a" x="124.658203"/>
      <use xlink:href="#DejaVuSans-7a" x="177.148438"/>
     </g>
    </g>
   </g>
  </g>
 </g>
 <defs>
  <clipPath id="pbf56fabfc7">
   <rect x="585" y="129.6" width="3627" height="831.6"/>
  </clipPath>
 </defs>
</svg>
