<?xml version="1.0" encoding="utf-8" standalone="no"?>
<!DOCTYPE svg PUBLIC "-//W3C//DTD SVG 1.1//EN"
  "http://www.w3.org/Graphics/SVG/1.1/DTD/svg11.dtd">
<svg xmlns:xlink="http://www.w3.org/1999/xlink" width="4680pt" height="1080pt" viewBox="0 0 4680 1080" xmlns="http://www.w3.org/2000/svg" version="1.1">
 <metadata>
  <rdf:RDF xmlns:dc="http://purl.org/dc/elements/1.1/" xmlns:cc="http://creativecommons.org/ns#" xmlns:rdf="http://www.w3.org/1999/02/22-rdf-syntax-ns#">
   <cc:Work>
    <dc:type rdf:resource="http://purl.org/dc/dcmitype/StillImage"/>
    <dc:date>2024-03-20T10:33:07.526999</dc:date>
    <dc:format>image/svg+xml</dc:format>
    <dc:creator>
     <cc:Agent>
      <dc:title>Matplotlib v3.7.2, https://matplotlib.org/</dc:title>
     </cc:Agent>
    </dc:creator>
   </cc:Work>
  </rdf:RDF>
 </metadata>
 <defs>
  <style type="text/css">*{stroke-linejoin: round; stroke-linecap: butt}</style>
 </defs>
 <g id="figure_1">
  <g id="patch_1">
   <path d="M 0 1080 
L 4680 1080 
L 4680 0 
L 0 0 
z
" style="fill: #ffffff"/>
  </g>
  <g id="axes_1">
   <g id="patch_2">
    <path d="M 585 961.2 
L 4212 961.2 
L 4212 129.6 
L 585 129.6 
z
" style="fill: #ffffff"/>
   </g>
   <g id="matplotlib.axis_1">
    <g id="xtick_1">
     <g id="line2d_1">
      <defs>
       <path id="m6119774c0a" d="M 0 0 
L 0 3.5 
" style="stroke: #000000; stroke-width: 0.8"/>
      </defs>
      <g>
       <use xlink:href="#m6119774c0a" x="711.411476" y="961.2" style="stroke: #000000; stroke-width: 0.8"/>
      </g>
     </g>
     <g id="text_1">
      <!-- 2012 -->
      <g transform="translate(685.961476 983.396875) scale(0.2 -0.2)">
       <defs>
        <path id="DejaVuSans-32" d="M 1228 531 
L 3431 531 
L 3431 0 
L 469 0 
L 469 531 
Q 828 903 1448 1529 
Q 2069 2156 2228 2338 
Q 2531 2678 2651 2914 
Q 2772 3150 2772 3378 
Q 2772 3750 2511 3984 
Q 2250 4219 1831 4219 
Q 1534 4219 1204 4116 
Q 875 4013 500 3803 
L 500 4441 
Q 881 4594 1212 4672 
Q 1544 4750 1819 4750 
Q 2544 4750 2975 4387 
Q 3406 4025 3406 3419 
Q 3406 3131 3298 2873 
Q 3191 2616 2906 2266 
Q 2828 2175 2409 1742 
Q 1991 1309 1228 531 
z
" transform="scale(0.015625)"/>
        <path id="DejaVuSans-30" d="M 2034 4250 
Q 1547 4250 1301 3770 
Q 1056 3291 1056 2328 
Q 1056 1369 1301 889 
Q 1547 409 2034 409 
Q 2525 409 2770 889 
Q 3016 1369 3016 2328 
Q 3016 3291 2770 3770 
Q 2525 4250 2034 4250 
z
M 2034 4750 
Q 2819 4750 3233 4129 
Q 3647 3509 3647 2328 
Q 3647 1150 3233 529 
Q 2819 -91 2034 -91 
Q 1250 -91 836 529 
Q 422 1150 422 2328 
Q 422 3509 836 4129 
Q 1250 4750 2034 4750 
z
" transform="scale(0.015625)"/>
        <path id="DejaVuSans-31" d="M 794 531 
L 1825 531 
L 1825 4091 
L 703 3866 
L 703 4441 
L 1819 4666 
L 2450 4666 
L 2450 531 
L 3481 531 
L 3481 0 
L 794 0 
L 794 531 
z
" transform="scale(0.015625)"/>
       </defs>
       <use xlink:href="#DejaVuSans-32"/>
       <use xlink:href="#DejaVuSans-30" x="63.623047"/>
       <use xlink:href="#DejaVuSans-31" x="127.246094"/>
       <use xlink:href="#DejaVuSans-32" x="190.869141"/>
      </g>
     </g>
    </g>
    <g id="xtick_2">
     <g id="line2d_2">
      <g>
       <use xlink:href="#m6119774c0a" x="1415.086006" y="961.2" style="stroke: #000000; stroke-width: 0.8"/>
      </g>
     </g>
     <g id="text_2">
      <!-- 2013 -->
      <g transform="translate(1389.636006 983.396875) scale(0.2 -0.2)">
       <defs>
        <path id="DejaVuSans-33" d="M 2597 2516 
Q 3050 2419 3304 2112 
Q 3559 1806 3559 1356 
Q 3559 666 3084 287 
Q 2609 -91 1734 -91 
Q 1441 -91 1130 -33 
Q 819 25 488 141 
L 488 750 
Q 750 597 1062 519 
Q 1375 441 1716 441 
Q 2309 441 2620 675 
Q 2931 909 2931 1356 
Q 2931 1769 2642 2001 
Q 2353 2234 1838 2234 
L 1294 2234 
L 1294 2753 
L 1863 2753 
Q 2328 2753 2575 2939 
Q 2822 3125 2822 3475 
Q 2822 3834 2567 4026 
Q 2313 4219 1838 4219 
Q 1578 4219 1281 4162 
Q 984 4106 628 3988 
L 628 4550 
Q 988 4650 1302 4700 
Q 1616 4750 1894 4750 
Q 2613 4750 3031 4423 
Q 3450 4097 3450 3541 
Q 3450 3153 3228 2886 
Q 3006 2619 2597 2516 
z
" transform="scale(0.015625)"/>
       </defs>
       <use xlink:href="#DejaVuSans-32"/>
       <use xlink:href="#DejaVuSans-30" x="63.623047"/>
       <use xlink:href="#DejaVuSans-31" x="127.246094"/>
       <use xlink:href="#DejaVuSans-33" x="190.869141"/>
      </g>
     </g>
    </g>
    <g id="xtick_3">
     <g id="line2d_3">
      <g>
       <use xlink:href="#m6119774c0a" x="2116.837927" y="961.2" style="stroke: #000000; stroke-width: 0.8"/>
      </g>
     </g>
     <g id="text_3">
      <!-- 2014 -->
      <g transform="translate(2091.387927 983.396875) scale(0.2 -0.2)">
       <defs>
        <path id="DejaVuSans-34" d="M 2419 4116 
L 825 1625 
L 2419 1625 
L 2419 4116 
z
M 2253 4666 
L 3047 4666 
L 3047 1625 
L 3713 1625 
L 3713 1100 
L 3047 1100 
L 3047 0 
L 2419 0 
L 2419 1100 
L 313 1100 
L 313 1709 
L 2253 4666 
z
" transform="scale(0.015625)"/>
       </defs>
       <use xlink:href="#DejaVuSans-32"/>
       <use xlink:href="#DejaVuSans-30" x="63.623047"/>
       <use xlink:href="#DejaVuSans-31" x="127.246094"/>
       <use xlink:href="#DejaVuSans-34" x="190.869141"/>
      </g>
     </g>
    </g>
    <g id="xtick_4">
     <g id="line2d_4">
      <g>
       <use xlink:href="#m6119774c0a" x="2818.589849" y="961.2" style="stroke: #000000; stroke-width: 0.8"/>
      </g>
     </g>
     <g id="text_4">
      <!-- 2015 -->
      <g transform="translate(2793.139849 983.396875) scale(0.2 -0.2)">
       <defs>
        <path id="DejaVuSans-35" d="M 691 4666 
L 3169 4666 
L 3169 4134 
L 1269 4134 
L 1269 2991 
Q 1406 3038 1543 3061 
Q 1681 3084 1819 3084 
Q 2600 3084 3056 2656 
Q 3513 2228 3513 1497 
Q 3513 744 3044 326 
Q 2575 -91 1722 -91 
Q 1428 -91 1123 -41 
Q 819 9 494 109 
L 494 744 
Q 775 591 1075 516 
Q 1375 441 1709 441 
Q 2250 441 2565 725 
Q 2881 1009 2881 1497 
Q 2881 1984 2565 2268 
Q 2250 2553 1709 2553 
Q 1456 2553 1204 2497 
Q 953 2441 691 2322 
L 691 4666 
z
" transform="scale(0.015625)"/>
       </defs>
       <use xlink:href="#DejaVuSans-32"/>
       <use xlink:href="#DejaVuSans-30" x="63.623047"/>
       <use xlink:href="#DejaVuSans-31" x="127.246094"/>
       <use xlink:href="#DejaVuSans-35" x="190.869141"/>
      </g>
     </g>
    </g>
    <g id="xtick_5">
     <g id="line2d_5">
      <g>
       <use xlink:href="#m6119774c0a" x="3520.34177" y="961.2" style="stroke: #000000; stroke-width: 0.8"/>
      </g>
     </g>
     <g id="text_5">
      <!-- 2016 -->
      <g transform="translate(3494.89177 983.396875) scale(0.2 -0.2)">
       <defs>
        <path id="DejaVuSans-36" d="M 2113 2584 
Q 1688 2584 1439 2293 
Q 1191 2003 1191 1497 
Q 1191 994 1439 701 
Q 1688 409 2113 409 
Q 2538 409 2786 701 
Q 3034 994 3034 1497 
Q 3034 2003 2786 2293 
Q 2538 2584 2113 2584 
z
M 3366 4563 
L 3366 3988 
Q 3128 4100 2886 4159 
Q 2644 4219 2406 4219 
Q 1781 4219 1451 3797 
Q 1122 3375 1075 2522 
Q 1259 2794 1537 2939 
Q 1816 3084 2150 3084 
Q 2853 3084 3261 2657 
Q 3669 2231 3669 1497 
Q 3669 778 3244 343 
Q 2819 -91 2113 -91 
Q 1303 -91 875 529 
Q 447 1150 447 2328 
Q 447 3434 972 4092 
Q 1497 4750 2381 4750 
Q 2619 4750 2861 4703 
Q 3103 4656 3366 4563 
z
" transform="scale(0.015625)"/>
       </defs>
       <use xlink:href="#DejaVuSans-32"/>
       <use xlink:href="#DejaVuSans-30" x="63.623047"/>
       <use xlink:href="#DejaVuSans-31" x="127.246094"/>
       <use xlink:href="#DejaVuSans-36" x="190.869141"/>
      </g>
     </g>
    </g>
    <g id="text_6">
     <!-- Time -->
     <g transform="translate(2374.032813 1006.753125) scale(0.2 -0.2)">
      <defs>
       <path id="DejaVuSans-54" d="M -19 4666 
L 3928 4666 
L 3928 4134 
L 2272 4134 
L 2272 0 
L 1638 0 
L 1638 4134 
L -19 4134 
L -19 4666 
z
" transform="scale(0.015625)"/>
       <path id="DejaVuSans-69" d="M 603 3500 
L 1178 3500 
L 1178 0 
L 603 0 
L 603 3500 
z
M 603 4863 
L 1178 4863 
L 1178 4134 
L 603 4134 
L 603 4863 
z
" transform="scale(0.015625)"/>
       <path id="DejaVuSans-6d" d="M 3328 2828 
Q 3544 3216 3844 3400 
Q 4144 3584 4550 3584 
Q 5097 3584 5394 3201 
Q 5691 2819 5691 2113 
L 5691 0 
L 5113 0 
L 5113 2094 
Q 5113 2597 4934 2840 
Q 4756 3084 4391 3084 
Q 3944 3084 3684 2787 
Q 3425 2491 3425 1978 
L 3425 0 
L 2847 0 
L 2847 2094 
Q 2847 2600 2669 2842 
Q 2491 3084 2119 3084 
Q 1678 3084 1418 2786 
Q 1159 2488 1159 1978 
L 1159 0 
L 581 0 
L 581 3500 
L 1159 3500 
L 1159 2956 
Q 1356 3278 1631 3431 
Q 1906 3584 2284 3584 
Q 2666 3584 2933 3390 
Q 3200 3197 3328 2828 
z
" transform="scale(0.015625)"/>
       <path id="DejaVuSans-65" d="M 3597 1894 
L 3597 1613 
L 953 1613 
Q 991 1019 1311 708 
Q 1631 397 2203 397 
Q 2534 397 2845 478 
Q 3156 559 3463 722 
L 3463 178 
Q 3153 47 2828 -22 
Q 2503 -91 2169 -91 
Q 1331 -91 842 396 
Q 353 884 353 1716 
Q 353 2575 817 3079 
Q 1281 3584 2069 3584 
Q 2775 3584 3186 3129 
Q 3597 2675 3597 1894 
z
M 3022 2063 
Q 3016 2534 2758 2815 
Q 2500 3097 2075 3097 
Q 1594 3097 1305 2825 
Q 1016 2553 972 2059 
L 3022 2063 
z
" transform="scale(0.015625)"/>
      </defs>
      <use xlink:href="#DejaVuSans-54"/>
      <use xlink:href="#DejaVuSans-69" x="57.958984"/>
      <use xlink:href="#DejaVuSans-6d" x="85.742188"/>
      <use xlink:href="#DejaVuSans-65" x="183.154297"/>
     </g>
    </g>
   </g>
   <g id="matplotlib.axis_2">
    <g id="ytick_1">
     <g id="line2d_6">
      <defs>
       <path id="md29537e661" d="M 0 0 
L -3.5 0 
" style="stroke: #000000; stroke-width: 0.8"/>
      </defs>
      <g>
       <use xlink:href="#md29537e661" x="585" y="932.027832" style="stroke: #000000; stroke-width: 0.8"/>
      </g>
     </g>
     <g id="text_7">
      <!-- −0.006 -->
      <g transform="translate(503.984375 939.62627) scale(0.2 -0.2)">
       <defs>
        <path id="DejaVuSans-2212" d="M 678 2272 
L 4684 2272 
L 4684 1741 
L 678 1741 
L 678 2272 
z
" transform="scale(0.015625)"/>
        <path id="DejaVuSans-2e" d="M 684 794 
L 1344 794 
L 1344 0 
L 684 0 
L 684 794 
z
" transform="scale(0.015625)"/>
       </defs>
       <use xlink:href="#DejaVuSans-2212"/>
       <use xlink:href="#DejaVuSans-30" x="83.789062"/>
       <use xlink:href="#DejaVuSans-2e" x="147.412109"/>
       <use xlink:href="#DejaVuSans-30" x="179.199219"/>
       <use xlink:href="#DejaVuSans-30" x="242.822266"/>
       <use xlink:href="#DejaVuSans-36" x="306.445312"/>
      </g>
     </g>
    </g>
    <g id="ytick_2">
     <g id="line2d_7">
      <g>
       <use xlink:href="#md29537e661" x="585" y="801.796806" style="stroke: #000000; stroke-width: 0.8"/>
      </g>
     </g>
     <g id="text_8">
      <!-- −0.004 -->
      <g transform="translate(503.984375 809.395243) scale(0.2 -0.2)">
       <use xlink:href="#DejaVuSans-2212"/>
       <use xlink:href="#DejaVuSans-30" x="83.789062"/>
       <use xlink:href="#DejaVuSans-2e" x="147.412109"/>
       <use xlink:href="#DejaVuSans-30" x="179.199219"/>
       <use xlink:href="#DejaVuSans-30" x="242.822266"/>
       <use xlink:href="#DejaVuSans-34" x="306.445312"/>
      </g>
     </g>
    </g>
    <g id="ytick_3">
     <g id="line2d_8">
      <g>
       <use xlink:href="#md29537e661" x="585" y="671.565779" style="stroke: #000000; stroke-width: 0.8"/>
      </g>
     </g>
     <g id="text_9">
      <!-- −0.002 -->
      <g transform="translate(503.984375 679.164217) scale(0.2 -0.2)">
       <use xlink:href="#DejaVuSans-2212"/>
       <use xlink:href="#DejaVuSans-30" x="83.789062"/>
       <use xlink:href="#DejaVuSans-2e" x="147.412109"/>
       <use xlink:href="#DejaVuSans-30" x="179.199219"/>
       <use xlink:href="#DejaVuSans-30" x="242.822266"/>
       <use xlink:href="#DejaVuSans-32" x="306.445312"/>
      </g>
     </g>
    </g>
    <g id="ytick_4">
     <g id="line2d_9">
      <g>
       <use xlink:href="#md29537e661" x="585" y="541.334753" style="stroke: #000000; stroke-width: 0.8"/>
      </g>
     </g>
     <g id="text_10">
      <!-- 0.000 -->
      <g transform="translate(520.74375 548.93319) scale(0.2 -0.2)">
       <use xlink:href="#DejaVuSans-30"/>
       <use xlink:href="#DejaVuSans-2e" x="63.623047"/>
       <use xlink:href="#DejaVuSans-30" x="95.410156"/>
       <use xlink:href="#DejaVuSans-30" x="159.033203"/>
       <use xlink:href="#DejaVuSans-30" x="222.65625"/>
      </g>
     </g>
    </g>
    <g id="ytick_5">
     <g id="line2d_10">
      <g>
       <use xlink:href="#md29537e661" x="585" y="411.103726" style="stroke: #000000; stroke-width: 0.8"/>
      </g>
     </g>
     <g id="text_11">
      <!-- 0.002 -->
      <g transform="translate(520.74375 418.702164) scale(0.2 -0.2)">
       <use xlink:href="#DejaVuSans-30"/>
       <use xlink:href="#DejaVuSans-2e" x="63.623047"/>
       <use xlink:href="#DejaVuSans-30" x="95.410156"/>
       <use xlink:href="#DejaVuSans-30" x="159.033203"/>
       <use xlink:href="#DejaVuSans-32" x="222.65625"/>
      </g>
     </g>
    </g>
    <g id="ytick_6">
     <g id="line2d_11">
      <g>
       <use xlink:href="#md29537e661" x="585" y="280.8727" style="stroke: #000000; stroke-width: 0.8"/>
      </g>
     </g>
     <g id="text_12">
      <!-- 0.004 -->
      <g transform="translate(520.74375 288.471137) scale(0.2 -0.2)">
       <use xlink:href="#DejaVuSans-30"/>
       <use xlink:href="#DejaVuSans-2e" x="63.623047"/>
       <use xlink:href="#DejaVuSans-30" x="95.410156"/>
       <use xlink:href="#DejaVuSans-30" x="159.033203"/>
       <use xlink:href="#DejaVuSans-34" x="222.65625"/>
      </g>
     </g>
    </g>
    <g id="ytick_7">
     <g id="line2d_12">
      <g>
       <use xlink:href="#md29537e661" x="585" y="150.641673" style="stroke: #000000; stroke-width: 0.8"/>
      </g>
     </g>
     <g id="text_13">
      <!-- 0.006 -->
      <g transform="translate(520.74375 158.240111) scale(0.2 -0.2)">
       <use xlink:href="#DejaVuSans-30"/>
       <use xlink:href="#DejaVuSans-2e" x="63.623047"/>
       <use xlink:href="#DejaVuSans-30" x="95.410156"/>
       <use xlink:href="#DejaVuSans-30" x="159.033203"/>
       <use xlink:href="#DejaVuSans-36" x="222.65625"/>
      </g>
     </g>
    </g>
    <g id="text_14">
     <!-- East(m) -->
     <g transform="translate(495.825 584.520313) rotate(-90) scale(0.2 -0.2)">
      <defs>
       <path id="DejaVuSans-45" d="M 628 4666 
L 3578 4666 
L 3578 4134 
L 1259 4134 
L 1259 2753 
L 3481 2753 
L 3481 2222 
L 1259 2222 
L 1259 531 
L 3634 531 
L 3634 0 
L 628 0 
L 628 4666 
z
" transform="scale(0.015625)"/>
       <path id="DejaVuSans-61" d="M 2194 1759 
Q 1497 1759 1228 1600 
Q 959 1441 959 1056 
Q 959 750 1161 570 
Q 1363 391 1709 391 
Q 2188 391 2477 730 
Q 2766 1069 2766 1631 
L 2766 1759 
L 2194 1759 
z
M 3341 1997 
L 3341 0 
L 2766 0 
L 2766 531 
Q 2569 213 2275 61 
Q 1981 -91 1556 -91 
Q 1019 -91 701 211 
Q 384 513 384 1019 
Q 384 1609 779 1909 
Q 1175 2209 1959 2209 
L 2766 2209 
L 2766 2266 
Q 2766 2663 2505 2880 
Q 2244 3097 1772 3097 
Q 1472 3097 1187 3025 
Q 903 2953 641 2809 
L 641 3341 
Q 956 3463 1253 3523 
Q 1550 3584 1831 3584 
Q 2591 3584 2966 3190 
Q 3341 2797 3341 1997 
z
" transform="scale(0.015625)"/>
       <path id="DejaVuSans-73" d="M 2834 3397 
L 2834 2853 
Q 2591 2978 2328 3040 
Q 2066 3103 1784 3103 
Q 1356 3103 1142 2972 
Q 928 2841 928 2578 
Q 928 2378 1081 2264 
Q 1234 2150 1697 2047 
L 1894 2003 
Q 2506 1872 2764 1633 
Q 3022 1394 3022 966 
Q 3022 478 2636 193 
Q 2250 -91 1575 -91 
Q 1294 -91 989 -36 
Q 684 19 347 128 
L 347 722 
Q 666 556 975 473 
Q 1284 391 1588 391 
Q 1994 391 2212 530 
Q 2431 669 2431 922 
Q 2431 1156 2273 1281 
Q 2116 1406 1581 1522 
L 1381 1569 
Q 847 1681 609 1914 
Q 372 2147 372 2553 
Q 372 3047 722 3315 
Q 1072 3584 1716 3584 
Q 2034 3584 2315 3537 
Q 2597 3491 2834 3397 
z
" transform="scale(0.015625)"/>
       <path id="DejaVuSans-74" d="M 1172 4494 
L 1172 3500 
L 2356 3500 
L 2356 3053 
L 1172 3053 
L 1172 1153 
Q 1172 725 1289 603 
Q 1406 481 1766 481 
L 2356 481 
L 2356 0 
L 1766 0 
Q 1100 0 847 248 
Q 594 497 594 1153 
L 594 3053 
L 172 3053 
L 172 3500 
L 594 3500 
L 594 4494 
L 1172 4494 
z
" transform="scale(0.015625)"/>
       <path id="DejaVuSans-28" d="M 1984 4856 
Q 1566 4138 1362 3434 
Q 1159 2731 1159 2009 
Q 1159 1288 1364 580 
Q 1569 -128 1984 -844 
L 1484 -844 
Q 1016 -109 783 600 
Q 550 1309 550 2009 
Q 550 2706 781 3412 
Q 1013 4119 1484 4856 
L 1984 4856 
z
" transform="scale(0.015625)"/>
       <path id="DejaVuSans-29" d="M 513 4856 
L 1013 4856 
Q 1481 4119 1714 3412 
Q 1947 2706 1947 2009 
Q 1947 1309 1714 600 
Q 1481 -109 1013 -844 
L 513 -844 
Q 928 -128 1133 580 
Q 1338 1288 1338 2009 
Q 1338 2731 1133 3434 
Q 928 4138 513 4856 
z
" transform="scale(0.015625)"/>
      </defs>
      <use xlink:href="#DejaVuSans-45"/>
      <use xlink:href="#DejaVuSans-61" x="63.183594"/>
      <use xlink:href="#DejaVuSans-73" x="124.462891"/>
      <use xlink:href="#DejaVuSans-74" x="176.5625"/>
      <use xlink:href="#DejaVuSans-28" x="215.771484"/>
      <use xlink:href="#DejaVuSans-6d" x="254.785156"/>
      <use xlink:href="#DejaVuSans-29" x="352.197266"/>
     </g>
    </g>
   </g>
   <g id="line2d_13">
    <path d="M 749.863636 588.542842 
L 751.786244 581.149948 
L 753.708852 579.476376 
L 755.63146 587.644403 
L 757.554068 589.120982 
L 759.476676 582.197319 
L 761.399284 574.217579 
L 763.321892 574.626578 
L 765.2445 570.573991 
L 767.167108 568.556535 
L 769.089716 556.071332 
L 771.012324 565.279286 
L 772.934932 568.231742 
L 774.85754 557.073862 
L 776.780148 572.422118 
L 778.702756 579.549948 
L 780.625364 573.185865 
L 782.547972 562.453702 
L 784.47058 553.936113 
L 786.393188 568.482765 
L 788.315796 576.839586 
L 790.238404 578.272881 
L 792.161012 586.133097 
L 794.08362 593.102472 
L 796.006228 625.953348 
L 797.928836 654.088702 
L 799.851444 653.469689 
L 801.774052 663.289617 
L 803.69666 657.233094 
L 805.619268 653.144512 
L 807.541876 641.149983 
L 815.232309 604.728612 
L 817.154917 618.261043 
L 821.000133 622.436973 
L 822.922741 624.132856 
L 824.845349 648.176608 
L 826.767957 647.782941 
L 828.690565 640.9104 
L 830.613173 632.253577 
L 832.535781 626.731359 
L 834.458389 642.556111 
L 836.380997 652.943407 
L 838.303605 631.710496 
L 840.226213 623.921845 
L 842.148821 619.643866 
L 844.071429 609.171745 
L 845.994037 623.986848 
L 847.916645 616.554668 
L 849.839253 611.84595 
L 853.684469 632.818233 
L 855.607077 630.034307 
L 857.529685 622.933311 
L 859.452293 608.229772 
L 861.374901 609.26375 
L 865.220117 591.93146 
L 867.142725 570.087174 
L 869.065333 569.472944 
L 870.987941 582.201116 
L 872.910549 579.765278 
L 874.833157 588.542352 
L 878.678373 609.061836 
L 880.600981 626.903585 
L 882.523589 637.3182 
L 884.446197 638.721814 
L 890.214021 640.884768 
L 892.136629 631.929114 
L 894.059237 611.567416 
L 895.981845 599.99182 
L 897.904453 599.384542 
L 899.827061 602.689963 
L 901.749669 605.249785 
L 903.672277 604.174489 
L 905.594885 626.435548 
L 907.517493 625.494486 
L 909.440101 628.093494 
L 911.362709 624.323867 
L 913.285317 629.59381 
L 917.130533 620.773855 
L 919.053141 587.592136 
L 920.975749 541.935658 
L 922.898357 528.579063 
L 924.820965 514.294802 
L 926.743573 501.771163 
L 928.666181 503.247524 
L 932.511397 503.467416 
L 934.434005 531.75871 
L 936.356613 526.513934 
L 938.279221 531.237937 
L 949.814869 498.59107 
L 955.582693 473.306814 
L 957.505301 468.351555 
L 959.427909 455.475198 
L 961.350517 446.90141 
L 969.040949 471.863682 
L 974.808773 495.898548 
L 976.731381 491.861081 
L 978.653989 496.868271 
L 980.576597 481.558423 
L 984.421813 483.130974 
L 986.344421 474.480173 
L 988.267029 477.745301 
L 990.189637 506.604553 
L 992.112245 503.174104 
L 995.957461 504.096208 
L 997.880069 491.736828 
L 999.802677 494.795607 
L 1001.725285 494.131032 
L 1007.493109 479.259182 
L 1009.415717 494.496295 
L 1011.338325 521.027182 
L 1013.260933 525.390658 
L 1015.183541 530.09673 
L 1017.106149 528.866101 
L 1019.028757 532.317796 
L 1020.951365 544.720352 
L 1022.873973 542.908526 
L 1024.796581 544.578068 
L 1026.719189 566.190712 
L 1028.641797 565.670331 
L 1030.564405 574.773199 
L 1034.409621 576.9355 
L 1036.332229 581.921929 
L 1038.254837 585.965877 
L 1042.100053 581.531286 
L 1053.635701 657.354673 
L 1057.480917 661.381028 
L 1159.379141 709.640375 
L 1161.301749 679.463777 
L 1163.224357 670.822408 
L 1318.955606 455.15909 
L 1320.878214 439.45265 
L 1322.800822 440.078014 
L 1332.413862 423.328626 
L 1336.259078 443.509524 
L 1338.181686 455.565074 
L 1340.104294 480.159071 
L 1342.026902 487.496401 
L 1343.94951 510.565974 
L 1345.872118 508.73598 
L 1347.794726 502.581866 
L 1365.098198 514.772036 
L 1368.943414 508.20932 
L 1415.086006 506.487038 
L 1417.008614 509.6352 
L 1424.699046 551.820515 
L 1426.621654 572.698411 
L 1428.544262 576.359436 
L 1430.46687 600.792594 
L 1432.389478 617.90074 
L 1434.312086 603.826216 
L 1436.234694 588.149641 
L 1438.157302 593.80553 
L 1442.002518 607.234152 
L 1470.841638 668.99351 
L 1472.764246 685.469871 
L 1474.686854 707.605037 
L 1476.609462 724.42338 
L 1480.454678 735.231566 
L 1482.377286 739.475541 
L 1484.299894 736.804572 
L 1486.222502 737.372627 
L 1488.14511 730.825679 
L 1490.067718 716.609013 
L 1491.990326 710.983759 
L 1499.680758 659.887795 
L 1501.603366 658.757813 
L 1503.525974 668.502491 
L 1509.293798 697.018612 
L 1511.216406 703.835501 
L 1513.139014 694.757767 
L 1515.061622 701.311624 
L 1516.98423 698.003861 
L 1520.829446 693.792783 
L 1522.752054 694.184787 
L 1524.674662 691.179848 
L 1528.519878 693.956002 
L 1530.442486 700.675117 
L 1532.365094 692.034985 
L 1540.055526 657.98601 
L 1541.978134 643.056966 
L 1543.900742 641.847927 
L 1545.82335 639.806318 
L 1547.745958 621.009577 
L 1549.668566 614.218517 
L 1551.591174 622.368493 
L 1553.513782 610.271867 
L 1555.43639 592.839526 
L 1557.358998 562.784983 
L 1559.281606 548.257461 
L 1563.126822 540.072118 
L 1565.04943 542.284145 
L 1566.972038 539.059002 
L 1568.894646 540.795734 
L 1572.739862 580.598414 
L 1574.66247 595.399946 
L 1576.585078 600.110209 
L 1578.507686 593.119531 
L 1580.430294 616.270306 
L 1582.352902 627.414699 
L 1584.27551 619.365165 
L 1586.198118 601.842273 
L 1588.120726 590.698339 
L 1590.043334 591.22563 
L 1593.88855 582.389189 
L 1636.185926 501.507625 
L 1640.031142 491.341623 
L 1641.95375 499.20964 
L 1643.876358 496.105616 
L 1645.798966 499.395979 
L 1647.721574 500.317806 
L 1649.644182 479.282565 
L 1653.489398 511.548471 
L 1655.412006 498.587336 
L 1657.334614 484.211105 
L 1665.025046 447.409791 
L 1666.947654 453.142779 
L 1668.870262 483.216905 
L 1672.715478 480.635043 
L 1674.638086 473.086052 
L 1676.560694 487.157429 
L 1678.483302 491.341846 
L 1680.40591 487.296061 
L 1684.251126 462.520874 
L 1686.173734 473.643499 
L 1691.941558 516.568406 
L 1693.864166 518.30549 
L 1695.786774 522.890505 
L 1697.709382 531.33352 
L 1699.63199 525.148708 
L 1701.554598 527.872769 
L 1703.477206 510.585082 
L 1722.703287 526.631155 
L 1724.625895 525.725461 
L 1726.548503 517.667827 
L 1728.471111 505.405468 
L 1730.393719 503.261768 
L 1732.316327 508.803109 
L 1734.238935 527.178501 
L 1736.161543 516.477274 
L 1738.084151 533.945599 
L 1740.006759 529.514526 
L 1743.851975 543.766867 
L 1745.774583 543.838678 
L 1751.542407 579.704946 
L 1755.387623 619.698388 
L 1757.310231 603.818524 
L 1759.232839 601.106044 
L 1761.155447 594.561823 
L 1765.000663 588.15384 
L 1766.923271 594.494993 
L 1774.613703 715.098368 
L 1776.536311 723.582282 
L 1780.381527 738.675477 
L 1782.304135 721.245736 
L 1784.226743 714.997332 
L 1788.071959 686.182589 
L 1789.994567 710.926202 
L 1801.530215 779.515882 
L 1805.375431 760.06111 
L 1807.298039 741.888516 
L 1809.220647 730.853706 
L 1811.143255 717.875403 
L 1813.065863 716.710098 
L 1816.911079 737.359965 
L 1818.833687 745.27014 
L 1820.756295 744.444557 
L 1822.678903 732.38103 
L 1824.601511 714.282529 
L 1830.369335 738.640248 
L 1832.291943 710.936032 
L 1834.214551 714.400843 
L 1836.137159 721.157493 
L 1838.059767 740.725681 
L 1839.982375 735.93678 
L 1841.904983 717.519914 
L 1845.750199 710.981853 
L 1847.672807 719.047887 
L 1859.208455 695.221827 
L 1861.131063 667.992339 
L 1863.053671 678.212703 
L 1864.976279 696.47994 
L 1866.898887 705.230567 
L 1868.821495 711.252187 
L 1870.744103 702.389559 
L 1872.666711 697.660881 
L 1874.589319 703.242083 
L 1876.511927 705.948236 
L 1878.434535 695.455202 
L 1880.357143 711.094992 
L 1884.202359 712.687246 
L 1886.124967 702.526688 
L 1888.047575 703.024311 
L 1889.970183 695.42624 
L 1891.892791 701.324724 
L 1893.815399 678.020134 
L 1895.738007 671.120169 
L 1899.583223 668.504943 
L 1901.505831 678.44461 
L 1903.428439 681.360092 
L 1905.351047 681.680014 
L 1907.273655 687.07293 
L 1909.196263 687.933943 
L 1911.118871 701.410333 
L 1913.041479 705.555867 
L 1914.964087 728.630633 
L 2024.552743 612.695098 
L 2028.397959 612.912162 
L 2030.320567 628.515086 
L 2032.243175 628.564948 
L 2034.165783 624.960968 
L 2036.088391 653.869431 
L 2038.010999 671.083219 
L 2039.933607 706.551806 
L 2049.546647 801.846561 
L 2051.469255 802.914039 
L 2057.237079 779.66027 
L 2059.159687 756.544186 
L 2061.082295 751.208162 
L 2063.004903 757.202484 
L 2064.927511 769.423293 
L 2068.772727 770.252704 
L 2137.986615 640.0476 
L 2139.909223 671.716965 
L 2143.754439 718.862607 
L 2145.677047 704.694715 
L 2172.59356 676.667253 
L 2255.265704 641.334575 
L 2257.188312 671.505959 
L 2261.033528 739.192728 
L 2262.956136 747.598403 
L 2264.878744 754.968231 
L 2266.801352 751.938523 
L 2268.72396 738.165732 
L 2270.646568 731.6132 
L 2272.569176 734.469236 
L 2274.491784 732.676541 
L 2276.414392 728.993514 
L 2282.182216 748.143008 
L 2314.866552 662.018979 
L 2316.78916 660.309894 
L 2328.324808 745.440518 
L 2330.247416 752.254421 
L 2332.170024 748.59142 
L 2334.092632 734.564209 
L 2355.24132 711.506355 
L 2485.978664 923.4 
L 2487.901272 909.944826 
L 2489.82388 883.597918 
L 2491.746488 837.677858 
L 2495.591704 830.712064 
L 2512.895176 869.56487 
L 2747.453353 461.461212 
L 2997.392393 421.178178 
L 2999.315001 382.572569 
L 3001.237609 327.350048 
L 3014.695865 167.4 
L 3018.541081 181.235345 
L 3020.463689 211.674561 
L 3024.308905 218.444711 
L 3026.231513 236.099649 
L 3030.076729 269.676234 
L 3031.999337 278.255376 
L 3055.070633 279.956267 
L 3056.993241 277.456966 
L 3058.915849 303.535035 
L 3060.838457 295.614671 
L 3062.761065 290.911021 
L 3064.683673 295.489999 
L 3068.528889 284.464 
L 3072.374105 262.782836 
L 3076.219321 263.941609 
L 3078.141929 263.355983 
L 3081.987146 248.434651 
L 3085.832362 267.495233 
L 3087.75497 271.589866 
L 3089.677578 292.338766 
L 3093.522794 322.984116 
L 3095.445402 337.367125 
L 3097.36801 343.058548 
L 3101.213226 360.163612 
L 3106.98105 335.892075 
L 3108.903658 339.268833 
L 3112.748874 322.189364 
L 3114.671482 333.993354 
L 3116.59409 342.649846 
L 3122.361914 354.086768 
L 3124.284522 358.405695 
L 3126.20713 329.401357 
L 3128.129738 338.859504 
L 3133.897562 369.516555 
L 3135.82017 363.656333 
L 3137.742778 362.107994 
L 3139.665386 398.680803 
L 3141.587994 378.505803 
L 3145.43321 373.833628 
L 3147.355818 377.401961 
L 3151.201034 366.586653 
L 3153.123642 341.500543 
L 3155.04625 331.887026 
L 3158.891466 338.362115 
L 3160.814074 338.191145 
L 3162.736682 334.119901 
L 3164.65929 348.681088 
L 3189.653194 366.070449 
L 3191.575802 374.152149 
L 3193.49841 354.061028 
L 3195.421018 315.172464 
L 3197.343626 303.49442 
L 3199.266234 310.823621 
L 3205.034058 319.793274 
L 3216.569706 399.211731 
L 3220.414922 404.975868 
L 3222.33753 377.782596 
L 3224.260138 399.346438 
L 3226.182746 372.126501 
L 3230.027962 350.60464 
L 3237.718394 314.381549 
L 3239.641002 333.184517 
L 3256.944474 364.894297 
L 3258.867082 388.404479 
L 3260.78969 385.077464 
L 3264.634906 389.498966 
L 3266.557514 386.777641 
L 3268.480122 387.16793 
L 3270.40273 390.707288 
L 3272.325338 364.512296 
L 3274.247946 383.892207 
L 3276.170554 370.768065 
L 3283.860986 385.986524 
L 3291.551418 406.759985 
L 3293.474026 425.806016 
L 3295.396634 404.251566 
L 3297.319242 406.950981 
L 3299.24185 395.794644 
L 3301.164458 377.257147 
L 3303.087066 375.036866 
L 3305.009674 366.357906 
L 3306.932282 358.55082 
L 3308.85489 361.657046 
L 3320.390538 349.692094 
L 3322.313146 371.408812 
L 3324.235754 374.533246 
L 3326.158362 363.960005 
L 3328.08097 370.406657 
L 3330.003578 387.567659 
L 3331.926186 396.516584 
L 3333.848794 389.557782 
L 3335.771402 378.272399 
L 3337.69401 392.142204 
L 3339.616618 401.888872 
L 3341.539226 393.442492 
L 3345.384442 384.346422 
L 3347.30705 379.268028 
L 3349.229658 386.667043 
L 3351.152266 386.201242 
L 3353.074874 388.62267 
L 3354.997482 401.123492 
L 3356.92009 397.293644 
L 3358.842698 409.706211 
L 3360.765306 407.135502 
L 3362.687914 394.468136 
L 3364.610522 378.704625 
L 3366.53313 376.700144 
L 3368.455738 371.822248 
L 3370.378346 375.387086 
L 3372.300954 367.864526 
L 3376.14617 392.191058 
L 3378.068778 411.223946 
L 3379.991386 410.367464 
L 3381.913994 398.51523 
L 3383.836602 393.65039 
L 3385.75921 400.962556 
L 3387.681818 398.021995 
L 3389.604426 399.765827 
L 3393.449642 403.101622 
L 3395.37225 423.612724 
L 3397.294858 439.590135 
L 3399.217466 427.476215 
L 3401.140074 436.15911 
L 3403.062682 432.064461 
L 3404.98529 425.505644 
L 3406.907898 428.342199 
L 3410.753114 408.126494 
L 3412.675722 417.635904 
L 3414.59833 414.153401 
L 3416.520938 421.324702 
L 3418.443546 421.11301 
L 3420.366154 424.852582 
L 3422.288762 411.45602 
L 3424.21137 427.844889 
L 3426.133978 437.195458 
L 3428.056586 443.527441 
L 3429.979194 454.271862 
L 3431.901802 473.623497 
L 3433.82441 480.643602 
L 3435.747018 484.624118 
L 3437.669626 456.844309 
L 3439.592234 435.785399 
L 3441.514842 446.782024 
L 3443.43745 434.103443 
L 3445.360058 419.591486 
L 3447.282666 407.769956 
L 3449.205274 427.916993 
L 3451.127882 464.363378 
L 3453.05049 490.017532 
L 3454.973098 471.437989 
L 3456.895706 480.755293 
L 3458.818314 481.067128 
L 3460.740922 486.411549 
L 3462.66353 489.133149 
L 3464.586138 493.948127 
L 3466.508746 486.418817 
L 3468.431354 489.911578 
L 3470.353962 490.971457 
L 3472.27657 490.372418 
L 3474.199178 485.951926 
L 3476.121786 489.624491 
L 3478.044394 486.722288 
L 3479.967002 518.464845 
L 3481.88961 539.22268 
L 3483.812218 541.395344 
L 3485.734826 543.940583 
L 3487.657434 548.498257 
L 3489.580042 548.523227 
L 3493.425258 529.452658 
L 3495.347866 522.76572 
L 3497.270474 523.573105 
L 3499.193082 545.624409 
L 3501.11569 557.848446 
L 3503.038298 564.462458 
L 3504.960906 566.594564 
L 3506.883514 560.011905 
L 3508.806122 561.299814 
L 3510.72873 561.45765 
L 3512.651338 554.666692 
L 3514.573946 552.570265 
L 3516.496554 548.891625 
L 3518.419162 552.960422 
L 3522.264378 555.112606 
L 3524.186986 548.378294 
L 3526.109594 549.760858 
L 3528.032202 548.176608 
L 3529.95481 544.996857 
L 3531.877418 557.856512 
L 3533.800027 545.418807 
L 3535.722635 540.910216 
L 3537.645243 534.497816 
L 3539.567851 529.540683 
L 3541.490459 522.097925 
L 3543.413067 516.372357 
L 3545.335675 494.374417 
L 3547.258283 504.983318 
L 3549.180891 505.43067 
L 3551.103499 505.54938 
L 3553.026107 506.957043 
L 3554.948715 500.185155 
L 3556.871323 501.21262 
L 3558.793931 492.5298 
L 3560.716539 485.283145 
L 3562.639147 491.743861 
L 3564.561755 484.861547 
L 3574.174795 526.432917 
L 3576.097403 527.095133 
L 3581.865227 533.304643 
L 3583.787835 547.467066 
L 3585.710443 532.160111 
L 3587.633051 513.562969 
L 3589.555659 510.399365 
L 3591.478267 532.951225 
L 3593.400875 530.709837 
L 3595.323483 507.134676 
L 3635.698251 426.322868 
L 3637.620859 434.112445 
L 3641.466075 426.98402 
L 3647.233899 392.999262 
L 3649.156507 374.093529 
L 3651.079115 360.584372 
L 3653.001723 353.145695 
L 3654.924331 357.576723 
L 3656.846939 353.826363 
L 3658.769547 368.578178 
L 3660.692155 375.041542 
L 3662.614763 370.490681 
L 3664.537371 374.859409 
L 3666.459979 386.24443 
L 3668.382587 383.839199 
L 3670.305195 383.24212 
L 3672.227803 390.415663 
L 3674.150411 380.236034 
L 3676.073019 374.175704 
L 3677.995627 373.36888 
L 3679.918235 362.909751 
L 3681.840843 366.298852 
L 3683.763451 360.790143 
L 3685.686059 351.097337 
L 3687.608667 378.928922 
L 3689.531275 390.349096 
L 3691.453883 384.545009 
L 3693.376491 374.718577 
L 3695.299099 372.676987 
L 3697.221707 365.174346 
L 3699.144315 367.35791 
L 3701.066923 326.389452 
L 3702.989531 340.863479 
L 3706.834747 329.906734 
L 3708.757355 333.327609 
L 3710.679963 347.183423 
L 3712.602571 352.09896 
L 3714.525179 372.075003 
L 3718.370395 355.800569 
L 3720.293003 368.784505 
L 3722.215611 359.040045 
L 3724.138219 344.024813 
L 3727.983435 351.504521 
L 3729.906043 365.856768 
L 3731.828651 375.056295 
L 3733.751259 366.357597 
L 3735.673867 383.673795 
L 3739.519083 415.061734 
L 3741.441691 403.319203 
L 3743.364299 382.943272 
L 3745.286907 384.124854 
L 3747.209515 390.463756 
L 3749.132123 369.148237 
L 3754.899947 340.070295 
L 3756.822555 348.503207 
L 3758.745163 367.5243 
L 3760.667771 377.122813 
L 3762.590379 373.207601 
L 3768.358203 350.617776 
L 3770.280811 369.462374 
L 3772.203419 351.014153 
L 3774.126027 350.297685 
L 3776.048635 375.965452 
L 3777.971243 396.10273 
L 3779.893851 421.352887 
L 3877.946859 498.218208 
L 3879.869467 483.881032 
L 3881.792075 460.235046 
L 3887.559899 464.396064 
L 3889.482507 451.998465 
L 3891.405115 448.841667 
L 3897.172939 429.761701 
L 3904.863371 467.300045 
L 3908.708587 479.956104 
L 3926.012059 511.270514 
L 3927.934667 502.688144 
L 3929.857275 484.612691 
L 3931.779883 489.458012 
L 3933.702491 465.642613 
L 3943.315531 433.105771 
L 3945.238139 443.678617 
L 3951.005963 461.501126 
L 3952.928571 443.523253 
L 3954.851179 427.809131 
L 3956.773787 414.866704 
L 3958.696395 381.519268 
L 3960.619003 362.394338 
L 3962.541611 367.178821 
L 3968.309435 399.571099 
L 3974.077259 402.589468 
L 3975.999867 425.501221 
L 3977.922475 408.506378 
L 3979.845083 404.778792 
L 3981.767691 398.926925 
L 3985.612908 411.731608 
L 3987.535516 409.201567 
L 3989.458124 398.773646 
L 3991.380732 410.351213 
L 4000.993772 419.556501 
L 4002.91638 407.219013 
L 4004.838988 415.433451 
L 4006.761596 422.199085 
L 4008.684204 423.296973 
L 4010.606812 423.912501 
L 4012.52942 440.489602 
L 4014.452028 405.275102 
L 4016.374636 409.356694 
L 4018.297244 391.425605 
L 4020.219852 378.540457 
L 4022.14246 381.315202 
L 4024.065068 379.532831 
L 4025.987676 395.529573 
L 4027.910284 424.018265 
L 4029.832892 417.534953 
L 4041.36854 392.470431 
L 4043.291148 402.816653 
L 4045.213756 411.653338 
L 4047.136364 393.535834 
L 4047.136364 393.535834 
" clip-path="url(#pcc1ec8294c)" style="fill: none; stroke: #ffc400; stroke-width: 2.5; stroke-linecap: square"/>
   </g>
   <g id="patch_3">
    <path d="M 585 961.2 
L 585 129.6 
" style="fill: none; stroke: #000000; stroke-width: 0.8; stroke-linejoin: miter; stroke-linecap: square"/>
   </g>
   <g id="patch_4">
    <path d="M 4212 961.2 
L 4212 129.6 
" style="fill: none; stroke: #000000; stroke-width: 0.8; stroke-linejoin: miter; stroke-linecap: square"/>
   </g>
   <g id="patch_5">
    <path d="M 585 961.2 
L 4212 961.2 
" style="fill: none; stroke: #000000; stroke-width: 0.8; stroke-linejoin: miter; stroke-linecap: square"/>
   </g>
   <g id="patch_6">
    <path d="M 585 129.6 
L 4212 129.6 
" style="fill: none; stroke: #000000; stroke-width: 0.8; stroke-linejoin: miter; stroke-linecap: square"/>
   </g>
   <g id="text_15">
    <!-- ROVR -->
    <g transform="translate(2355.848437 123.360937) scale(0.3 -0.3)">
     <defs>
      <path id="DejaVuSans-52" d="M 2841 2188 
Q 3044 2119 3236 1894 
Q 3428 1669 3622 1275 
L 4263 0 
L 3584 0 
L 2988 1197 
Q 2756 1666 2539 1819 
Q 2322 1972 1947 1972 
L 1259 1972 
L 1259 0 
L 628 0 
L 628 4666 
L 2053 4666 
Q 2853 4666 3247 4331 
Q 3641 3997 3641 3322 
Q 3641 2881 3436 2590 
Q 3231 2300 2841 2188 
z
M 1259 4147 
L 1259 2491 
L 2053 2491 
Q 2509 2491 2742 2702 
Q 2975 2913 2975 3322 
Q 2975 3731 2742 3939 
Q 2509 4147 2053 4147 
L 1259 4147 
z
" transform="scale(0.015625)"/>
      <path id="DejaVuSans-4f" d="M 2522 4238 
Q 1834 4238 1429 3725 
Q 1025 3213 1025 2328 
Q 1025 1447 1429 934 
Q 1834 422 2522 422 
Q 3209 422 3611 934 
Q 4013 1447 4013 2328 
Q 4013 3213 3611 3725 
Q 3209 4238 2522 4238 
z
M 2522 4750 
Q 3503 4750 4090 4092 
Q 4678 3434 4678 2328 
Q 4678 1225 4090 567 
Q 3503 -91 2522 -91 
Q 1538 -91 948 565 
Q 359 1222 359 2328 
Q 359 3434 948 4092 
Q 1538 4750 2522 4750 
z
" transform="scale(0.015625)"/>
      <path id="DejaVuSans-56" d="M 1831 0 
L 50 4666 
L 709 4666 
L 2188 738 
L 3669 4666 
L 4325 4666 
L 2547 0 
L 1831 0 
z
" transform="scale(0.015625)"/>
     </defs>
     <use xlink:href="#DejaVuSans-52"/>
     <use xlink:href="#DejaVuSans-4f" x="69.482422"/>
     <use xlink:href="#DejaVuSans-56" x="146.443359"/>
     <use xlink:href="#DejaVuSans-52" x="214.851562"/>
    </g>
   </g>
   <g id="legend_1">
    <g id="patch_7">
     <path d="M 4152.965625 152.278125 
L 4205 152.278125 
Q 4207 152.278125 4207 150.278125 
L 4207 136.6 
Q 4207 134.6 4205 134.6 
L 4152.965625 134.6 
Q 4150.965625 134.6 4150.965625 136.6 
L 4150.965625 150.278125 
Q 4150.965625 152.278125 4152.965625 152.278125 
z
" style="fill: #ffffff; opacity: 0.8; stroke: #cccccc; stroke-linejoin: miter"/>
    </g>
    <g id="line2d_14">
     <path d="M 4154.965625 142.698438 
L 4164.965625 142.698438 
L 4174.965625 142.698438 
" style="fill: none; stroke: #ffc400; stroke-width: 2.5; stroke-linecap: square"/>
    </g>
    <g id="text_16">
     <!-- rovr -->
     <g transform="translate(4182.965625 146.198438) scale(0.1 -0.1)">
      <defs>
       <path id="DejaVuSans-72" d="M 2631 2963 
Q 2534 3019 2420 3045 
Q 2306 3072 2169 3072 
Q 1681 3072 1420 2755 
Q 1159 2438 1159 1844 
L 1159 0 
L 581 0 
L 581 3500 
L 1159 3500 
L 1159 2956 
Q 1341 3275 1631 3429 
Q 1922 3584 2338 3584 
Q 2397 3584 2469 3576 
Q 2541 3569 2628 3553 
L 2631 2963 
z
" transform="scale(0.015625)"/>
       <path id="DejaVuSans-6f" d="M 1959 3097 
Q 1497 3097 1228 2736 
Q 959 2375 959 1747 
Q 959 1119 1226 758 
Q 1494 397 1959 397 
Q 2419 397 2687 759 
Q 2956 1122 2956 1747 
Q 2956 2369 2687 2733 
Q 2419 3097 1959 3097 
z
M 1959 3584 
Q 2709 3584 3137 3096 
Q 3566 2609 3566 1747 
Q 3566 888 3137 398 
Q 2709 -91 1959 -91 
Q 1206 -91 779 398 
Q 353 888 353 1747 
Q 353 2609 779 3096 
Q 1206 3584 1959 3584 
z
" transform="scale(0.015625)"/>
       <path id="DejaVuSans-76" d="M 191 3500 
L 800 3500 
L 1894 563 
L 2988 3500 
L 3597 3500 
L 2284 0 
L 1503 0 
L 191 3500 
z
" transform="scale(0.015625)"/>
      </defs>
      <use xlink:href="#DejaVuSans-72"/>
      <use xlink:href="#DejaVuSans-6f" x="38.863281"/>
      <use xlink:href="#DejaVuSans-76" x="100.044922"/>
      <use xlink:href="#DejaVuSans-72" x="159.224609"/>
     </g>
    </g>
   </g>
  </g>
 </g>
 <defs>
  <clipPath id="pcc1ec8294c">
   <rect x="585" y="129.6" width="3627" height="831.6"/>
  </clipPath>
 </defs>
</svg>
