<?xml version="1.0" encoding="utf-8" standalone="no"?>
<!DOCTYPE svg PUBLIC "-//W3C//DTD SVG 1.1//EN"
  "http://www.w3.org/Graphics/SVG/1.1/DTD/svg11.dtd">
<svg xmlns:xlink="http://www.w3.org/1999/xlink" width="4680pt" height="1080pt" viewBox="0 0 4680 1080" xmlns="http://www.w3.org/2000/svg" version="1.1">
 <metadata>
  <rdf:RDF xmlns:dc="http://purl.org/dc/elements/1.1/" xmlns:cc="http://creativecommons.org/ns#" xmlns:rdf="http://www.w3.org/1999/02/22-rdf-syntax-ns#">
   <cc:Work>
    <dc:type rdf:resource="http://purl.org/dc/dcmitype/StillImage"/>
    <dc:date>2024-03-20T10:33:08.079326</dc:date>
    <dc:format>image/svg+xml</dc:format>
    <dc:creator>
     <cc:Agent>
      <dc:title>Matplotlib v3.7.2, https://matplotlib.org/</dc:title>
     </cc:Agent>
    </dc:creator>
   </cc:Work>
  </rdf:RDF>
 </metadata>
 <defs>
  <style type="text/css">*{stroke-linejoin: round; stroke-linecap: butt}</style>
 </defs>
 <g id="figure_1">
  <g id="patch_1">
   <path d="M 0 1080 
L 4680 1080 
L 4680 0 
L 0 0 
z
" style="fill: #ffffff"/>
  </g>
  <g id="axes_1">
   <g id="patch_2">
    <path d="M 585 961.2 
L 4212 961.2 
L 4212 129.6 
L 585 129.6 
z
" style="fill: #ffffff"/>
   </g>
   <g id="matplotlib.axis_1">
    <g id="xtick_1">
     <g id="line2d_1">
      <defs>
       <path id="m3c71b48860" d="M 0 0 
L 0 3.5 
" style="stroke: #000000; stroke-width: 0.8"/>
      </defs>
      <g>
       <use xlink:href="#m3c71b48860" x="711.411476" y="961.2" style="stroke: #000000; stroke-width: 0.8"/>
      </g>
     </g>
     <g id="text_1">
      <!-- 2012 -->
      <g transform="translate(685.961476 983.396875) scale(0.2 -0.2)">
       <defs>
        <path id="DejaVuSans-32" d="M 1228 531 
L 3431 531 
L 3431 0 
L 469 0 
L 469 531 
Q 828 903 1448 1529 
Q 2069 2156 2228 2338 
Q 2531 2678 2651 2914 
Q 2772 3150 2772 3378 
Q 2772 3750 2511 3984 
Q 2250 4219 1831 4219 
Q 1534 4219 1204 4116 
Q 875 4013 500 3803 
L 500 4441 
Q 881 4594 1212 4672 
Q 1544 4750 1819 4750 
Q 2544 4750 2975 4387 
Q 3406 4025 3406 3419 
Q 3406 3131 3298 2873 
Q 3191 2616 2906 2266 
Q 2828 2175 2409 1742 
Q 1991 1309 1228 531 
z
" transform="scale(0.015625)"/>
        <path id="DejaVuSans-30" d="M 2034 4250 
Q 1547 4250 1301 3770 
Q 1056 3291 1056 2328 
Q 1056 1369 1301 889 
Q 1547 409 2034 409 
Q 2525 409 2770 889 
Q 3016 1369 3016 2328 
Q 3016 3291 2770 3770 
Q 2525 4250 2034 4250 
z
M 2034 4750 
Q 2819 4750 3233 4129 
Q 3647 3509 3647 2328 
Q 3647 1150 3233 529 
Q 2819 -91 2034 -91 
Q 1250 -91 836 529 
Q 422 1150 422 2328 
Q 422 3509 836 4129 
Q 1250 4750 2034 4750 
z
" transform="scale(0.015625)"/>
        <path id="DejaVuSans-31" d="M 794 531 
L 1825 531 
L 1825 4091 
L 703 3866 
L 703 4441 
L 1819 4666 
L 2450 4666 
L 2450 531 
L 3481 531 
L 3481 0 
L 794 0 
L 794 531 
z
" transform="scale(0.015625)"/>
       </defs>
       <use xlink:href="#DejaVuSans-32"/>
       <use xlink:href="#DejaVuSans-30" x="63.623047"/>
       <use xlink:href="#DejaVuSans-31" x="127.246094"/>
       <use xlink:href="#DejaVuSans-32" x="190.869141"/>
      </g>
     </g>
    </g>
    <g id="xtick_2">
     <g id="line2d_2">
      <g>
       <use xlink:href="#m3c71b48860" x="1415.086006" y="961.2" style="stroke: #000000; stroke-width: 0.8"/>
      </g>
     </g>
     <g id="text_2">
      <!-- 2013 -->
      <g transform="translate(1389.636006 983.396875) scale(0.2 -0.2)">
       <defs>
        <path id="DejaVuSans-33" d="M 2597 2516 
Q 3050 2419 3304 2112 
Q 3559 1806 3559 1356 
Q 3559 666 3084 287 
Q 2609 -91 1734 -91 
Q 1441 -91 1130 -33 
Q 819 25 488 141 
L 488 750 
Q 750 597 1062 519 
Q 1375 441 1716 441 
Q 2309 441 2620 675 
Q 2931 909 2931 1356 
Q 2931 1769 2642 2001 
Q 2353 2234 1838 2234 
L 1294 2234 
L 1294 2753 
L 1863 2753 
Q 2328 2753 2575 2939 
Q 2822 3125 2822 3475 
Q 2822 3834 2567 4026 
Q 2313 4219 1838 4219 
Q 1578 4219 1281 4162 
Q 984 4106 628 3988 
L 628 4550 
Q 988 4650 1302 4700 
Q 1616 4750 1894 4750 
Q 2613 4750 3031 4423 
Q 3450 4097 3450 3541 
Q 3450 3153 3228 2886 
Q 3006 2619 2597 2516 
z
" transform="scale(0.015625)"/>
       </defs>
       <use xlink:href="#DejaVuSans-32"/>
       <use xlink:href="#DejaVuSans-30" x="63.623047"/>
       <use xlink:href="#DejaVuSans-31" x="127.246094"/>
       <use xlink:href="#DejaVuSans-33" x="190.869141"/>
      </g>
     </g>
    </g>
    <g id="xtick_3">
     <g id="line2d_3">
      <g>
       <use xlink:href="#m3c71b48860" x="2116.837927" y="961.2" style="stroke: #000000; stroke-width: 0.8"/>
      </g>
     </g>
     <g id="text_3">
      <!-- 2014 -->
      <g transform="translate(2091.387927 983.396875) scale(0.2 -0.2)">
       <defs>
        <path id="DejaVuSans-34" d="M 2419 4116 
L 825 1625 
L 2419 1625 
L 2419 4116 
z
M 2253 4666 
L 3047 4666 
L 3047 1625 
L 3713 1625 
L 3713 1100 
L 3047 1100 
L 3047 0 
L 2419 0 
L 2419 1100 
L 313 1100 
L 313 1709 
L 2253 4666 
z
" transform="scale(0.015625)"/>
       </defs>
       <use xlink:href="#DejaVuSans-32"/>
       <use xlink:href="#DejaVuSans-30" x="63.623047"/>
       <use xlink:href="#DejaVuSans-31" x="127.246094"/>
       <use xlink:href="#DejaVuSans-34" x="190.869141"/>
      </g>
     </g>
    </g>
    <g id="xtick_4">
     <g id="line2d_4">
      <g>
       <use xlink:href="#m3c71b48860" x="2818.589849" y="961.2" style="stroke: #000000; stroke-width: 0.8"/>
      </g>
     </g>
     <g id="text_4">
      <!-- 2015 -->
      <g transform="translate(2793.139849 983.396875) scale(0.2 -0.2)">
       <defs>
        <path id="DejaVuSans-35" d="M 691 4666 
L 3169 4666 
L 3169 4134 
L 1269 4134 
L 1269 2991 
Q 1406 3038 1543 3061 
Q 1681 3084 1819 3084 
Q 2600 3084 3056 2656 
Q 3513 2228 3513 1497 
Q 3513 744 3044 326 
Q 2575 -91 1722 -91 
Q 1428 -91 1123 -41 
Q 819 9 494 109 
L 494 744 
Q 775 591 1075 516 
Q 1375 441 1709 441 
Q 2250 441 2565 725 
Q 2881 1009 2881 1497 
Q 2881 1984 2565 2268 
Q 2250 2553 1709 2553 
Q 1456 2553 1204 2497 
Q 953 2441 691 2322 
L 691 4666 
z
" transform="scale(0.015625)"/>
       </defs>
       <use xlink:href="#DejaVuSans-32"/>
       <use xlink:href="#DejaVuSans-30" x="63.623047"/>
       <use xlink:href="#DejaVuSans-31" x="127.246094"/>
       <use xlink:href="#DejaVuSans-35" x="190.869141"/>
      </g>
     </g>
    </g>
    <g id="xtick_5">
     <g id="line2d_5">
      <g>
       <use xlink:href="#m3c71b48860" x="3520.34177" y="961.2" style="stroke: #000000; stroke-width: 0.8"/>
      </g>
     </g>
     <g id="text_5">
      <!-- 2016 -->
      <g transform="translate(3494.89177 983.396875) scale(0.2 -0.2)">
       <defs>
        <path id="DejaVuSans-36" d="M 2113 2584 
Q 1688 2584 1439 2293 
Q 1191 2003 1191 1497 
Q 1191 994 1439 701 
Q 1688 409 2113 409 
Q 2538 409 2786 701 
Q 3034 994 3034 1497 
Q 3034 2003 2786 2293 
Q 2538 2584 2113 2584 
z
M 3366 4563 
L 3366 3988 
Q 3128 4100 2886 4159 
Q 2644 4219 2406 4219 
Q 1781 4219 1451 3797 
Q 1122 3375 1075 2522 
Q 1259 2794 1537 2939 
Q 1816 3084 2150 3084 
Q 2853 3084 3261 2657 
Q 3669 2231 3669 1497 
Q 3669 778 3244 343 
Q 2819 -91 2113 -91 
Q 1303 -91 875 529 
Q 447 1150 447 2328 
Q 447 3434 972 4092 
Q 1497 4750 2381 4750 
Q 2619 4750 2861 4703 
Q 3103 4656 3366 4563 
z
" transform="scale(0.015625)"/>
       </defs>
       <use xlink:href="#DejaVuSans-32"/>
       <use xlink:href="#DejaVuSans-30" x="63.623047"/>
       <use xlink:href="#DejaVuSans-31" x="127.246094"/>
       <use xlink:href="#DejaVuSans-36" x="190.869141"/>
      </g>
     </g>
    </g>
    <g id="text_6">
     <!-- Time -->
     <g transform="translate(2374.032813 1006.753125) scale(0.2 -0.2)">
      <defs>
       <path id="DejaVuSans-54" d="M -19 4666 
L 3928 4666 
L 3928 4134 
L 2272 4134 
L 2272 0 
L 1638 0 
L 1638 4134 
L -19 4134 
L -19 4666 
z
" transform="scale(0.015625)"/>
       <path id="DejaVuSans-69" d="M 603 3500 
L 1178 3500 
L 1178 0 
L 603 0 
L 603 3500 
z
M 603 4863 
L 1178 4863 
L 1178 4134 
L 603 4134 
L 603 4863 
z
" transform="scale(0.015625)"/>
       <path id="DejaVuSans-6d" d="M 3328 2828 
Q 3544 3216 3844 3400 
Q 4144 3584 4550 3584 
Q 5097 3584 5394 3201 
Q 5691 2819 5691 2113 
L 5691 0 
L 5113 0 
L 5113 2094 
Q 5113 2597 4934 2840 
Q 4756 3084 4391 3084 
Q 3944 3084 3684 2787 
Q 3425 2491 3425 1978 
L 3425 0 
L 2847 0 
L 2847 2094 
Q 2847 2600 2669 2842 
Q 2491 3084 2119 3084 
Q 1678 3084 1418 2786 
Q 1159 2488 1159 1978 
L 1159 0 
L 581 0 
L 581 3500 
L 1159 3500 
L 1159 2956 
Q 1356 3278 1631 3431 
Q 1906 3584 2284 3584 
Q 2666 3584 2933 3390 
Q 3200 3197 3328 2828 
z
" transform="scale(0.015625)"/>
       <path id="DejaVuSans-65" d="M 3597 1894 
L 3597 1613 
L 953 1613 
Q 991 1019 1311 708 
Q 1631 397 2203 397 
Q 2534 397 2845 478 
Q 3156 559 3463 722 
L 3463 178 
Q 3153 47 2828 -22 
Q 2503 -91 2169 -91 
Q 1331 -91 842 396 
Q 353 884 353 1716 
Q 353 2575 817 3079 
Q 1281 3584 2069 3584 
Q 2775 3584 3186 3129 
Q 3597 2675 3597 1894 
z
M 3022 2063 
Q 3016 2534 2758 2815 
Q 2500 3097 2075 3097 
Q 1594 3097 1305 2825 
Q 1016 2553 972 2059 
L 3022 2063 
z
" transform="scale(0.015625)"/>
      </defs>
      <use xlink:href="#DejaVuSans-54"/>
      <use xlink:href="#DejaVuSans-69" x="57.958984"/>
      <use xlink:href="#DejaVuSans-6d" x="85.742188"/>
      <use xlink:href="#DejaVuSans-65" x="183.154297"/>
     </g>
    </g>
   </g>
   <g id="matplotlib.axis_2">
    <g id="ytick_1">
     <g id="line2d_6">
      <defs>
       <path id="m9b80235b75" d="M 0 0 
L -3.5 0 
" style="stroke: #000000; stroke-width: 0.8"/>
      </defs>
      <g>
       <use xlink:href="#m9b80235b75" x="585" y="873.970081" style="stroke: #000000; stroke-width: 0.8"/>
      </g>
     </g>
     <g id="text_7">
      <!-- −0.006 -->
      <g transform="translate(503.984375 881.568519) scale(0.2 -0.2)">
       <defs>
        <path id="DejaVuSans-2212" d="M 678 2272 
L 4684 2272 
L 4684 1741 
L 678 1741 
L 678 2272 
z
" transform="scale(0.015625)"/>
        <path id="DejaVuSans-2e" d="M 684 794 
L 1344 794 
L 1344 0 
L 684 0 
L 684 794 
z
" transform="scale(0.015625)"/>
       </defs>
       <use xlink:href="#DejaVuSans-2212"/>
       <use xlink:href="#DejaVuSans-30" x="83.789062"/>
       <use xlink:href="#DejaVuSans-2e" x="147.412109"/>
       <use xlink:href="#DejaVuSans-30" x="179.199219"/>
       <use xlink:href="#DejaVuSans-30" x="242.822266"/>
       <use xlink:href="#DejaVuSans-36" x="306.445312"/>
      </g>
     </g>
    </g>
    <g id="ytick_2">
     <g id="line2d_7">
      <g>
       <use xlink:href="#m9b80235b75" x="585" y="755.473912" style="stroke: #000000; stroke-width: 0.8"/>
      </g>
     </g>
     <g id="text_8">
      <!-- −0.004 -->
      <g transform="translate(503.984375 763.072349) scale(0.2 -0.2)">
       <use xlink:href="#DejaVuSans-2212"/>
       <use xlink:href="#DejaVuSans-30" x="83.789062"/>
       <use xlink:href="#DejaVuSans-2e" x="147.412109"/>
       <use xlink:href="#DejaVuSans-30" x="179.199219"/>
       <use xlink:href="#DejaVuSans-30" x="242.822266"/>
       <use xlink:href="#DejaVuSans-34" x="306.445312"/>
      </g>
     </g>
    </g>
    <g id="ytick_3">
     <g id="line2d_8">
      <g>
       <use xlink:href="#m9b80235b75" x="585" y="636.977743" style="stroke: #000000; stroke-width: 0.8"/>
      </g>
     </g>
     <g id="text_9">
      <!-- −0.002 -->
      <g transform="translate(503.984375 644.57618) scale(0.2 -0.2)">
       <use xlink:href="#DejaVuSans-2212"/>
       <use xlink:href="#DejaVuSans-30" x="83.789062"/>
       <use xlink:href="#DejaVuSans-2e" x="147.412109"/>
       <use xlink:href="#DejaVuSans-30" x="179.199219"/>
       <use xlink:href="#DejaVuSans-30" x="242.822266"/>
       <use xlink:href="#DejaVuSans-32" x="306.445312"/>
      </g>
     </g>
    </g>
    <g id="ytick_4">
     <g id="line2d_9">
      <g>
       <use xlink:href="#m9b80235b75" x="585" y="518.481573" style="stroke: #000000; stroke-width: 0.8"/>
      </g>
     </g>
     <g id="text_10">
      <!-- 0.000 -->
      <g transform="translate(520.74375 526.080011) scale(0.2 -0.2)">
       <use xlink:href="#DejaVuSans-30"/>
       <use xlink:href="#DejaVuSans-2e" x="63.623047"/>
       <use xlink:href="#DejaVuSans-30" x="95.410156"/>
       <use xlink:href="#DejaVuSans-30" x="159.033203"/>
       <use xlink:href="#DejaVuSans-30" x="222.65625"/>
      </g>
     </g>
    </g>
    <g id="ytick_5">
     <g id="line2d_10">
      <g>
       <use xlink:href="#m9b80235b75" x="585" y="399.985404" style="stroke: #000000; stroke-width: 0.8"/>
      </g>
     </g>
     <g id="text_11">
      <!-- 0.002 -->
      <g transform="translate(520.74375 407.583842) scale(0.2 -0.2)">
       <use xlink:href="#DejaVuSans-30"/>
       <use xlink:href="#DejaVuSans-2e" x="63.623047"/>
       <use xlink:href="#DejaVuSans-30" x="95.410156"/>
       <use xlink:href="#DejaVuSans-30" x="159.033203"/>
       <use xlink:href="#DejaVuSans-32" x="222.65625"/>
      </g>
     </g>
    </g>
    <g id="ytick_6">
     <g id="line2d_11">
      <g>
       <use xlink:href="#m9b80235b75" x="585" y="281.489235" style="stroke: #000000; stroke-width: 0.8"/>
      </g>
     </g>
     <g id="text_12">
      <!-- 0.004 -->
      <g transform="translate(520.74375 289.087672) scale(0.2 -0.2)">
       <use xlink:href="#DejaVuSans-30"/>
       <use xlink:href="#DejaVuSans-2e" x="63.623047"/>
       <use xlink:href="#DejaVuSans-30" x="95.410156"/>
       <use xlink:href="#DejaVuSans-30" x="159.033203"/>
       <use xlink:href="#DejaVuSans-34" x="222.65625"/>
      </g>
     </g>
    </g>
    <g id="ytick_7">
     <g id="line2d_12">
      <g>
       <use xlink:href="#m9b80235b75" x="585" y="162.993065" style="stroke: #000000; stroke-width: 0.8"/>
      </g>
     </g>
     <g id="text_13">
      <!-- 0.006 -->
      <g transform="translate(520.74375 170.591503) scale(0.2 -0.2)">
       <use xlink:href="#DejaVuSans-30"/>
       <use xlink:href="#DejaVuSans-2e" x="63.623047"/>
       <use xlink:href="#DejaVuSans-30" x="95.410156"/>
       <use xlink:href="#DejaVuSans-30" x="159.033203"/>
       <use xlink:href="#DejaVuSans-36" x="222.65625"/>
      </g>
     </g>
    </g>
    <g id="text_14">
     <!-- East(m) -->
     <g transform="translate(495.825 584.520313) rotate(-90) scale(0.2 -0.2)">
      <defs>
       <path id="DejaVuSans-45" d="M 628 4666 
L 3578 4666 
L 3578 4134 
L 1259 4134 
L 1259 2753 
L 3481 2753 
L 3481 2222 
L 1259 2222 
L 1259 531 
L 3634 531 
L 3634 0 
L 628 0 
L 628 4666 
z
" transform="scale(0.015625)"/>
       <path id="DejaVuSans-61" d="M 2194 1759 
Q 1497 1759 1228 1600 
Q 959 1441 959 1056 
Q 959 750 1161 570 
Q 1363 391 1709 391 
Q 2188 391 2477 730 
Q 2766 1069 2766 1631 
L 2766 1759 
L 2194 1759 
z
M 3341 1997 
L 3341 0 
L 2766 0 
L 2766 531 
Q 2569 213 2275 61 
Q 1981 -91 1556 -91 
Q 1019 -91 701 211 
Q 384 513 384 1019 
Q 384 1609 779 1909 
Q 1175 2209 1959 2209 
L 2766 2209 
L 2766 2266 
Q 2766 2663 2505 2880 
Q 2244 3097 1772 3097 
Q 1472 3097 1187 3025 
Q 903 2953 641 2809 
L 641 3341 
Q 956 3463 1253 3523 
Q 1550 3584 1831 3584 
Q 2591 3584 2966 3190 
Q 3341 2797 3341 1997 
z
" transform="scale(0.015625)"/>
       <path id="DejaVuSans-73" d="M 2834 3397 
L 2834 2853 
Q 2591 2978 2328 3040 
Q 2066 3103 1784 3103 
Q 1356 3103 1142 2972 
Q 928 2841 928 2578 
Q 928 2378 1081 2264 
Q 1234 2150 1697 2047 
L 1894 2003 
Q 2506 1872 2764 1633 
Q 3022 1394 3022 966 
Q 3022 478 2636 193 
Q 2250 -91 1575 -91 
Q 1294 -91 989 -36 
Q 684 19 347 128 
L 347 722 
Q 666 556 975 473 
Q 1284 391 1588 391 
Q 1994 391 2212 530 
Q 2431 669 2431 922 
Q 2431 1156 2273 1281 
Q 2116 1406 1581 1522 
L 1381 1569 
Q 847 1681 609 1914 
Q 372 2147 372 2553 
Q 372 3047 722 3315 
Q 1072 3584 1716 3584 
Q 2034 3584 2315 3537 
Q 2597 3491 2834 3397 
z
" transform="scale(0.015625)"/>
       <path id="DejaVuSans-74" d="M 1172 4494 
L 1172 3500 
L 2356 3500 
L 2356 3053 
L 1172 3053 
L 1172 1153 
Q 1172 725 1289 603 
Q 1406 481 1766 481 
L 2356 481 
L 2356 0 
L 1766 0 
Q 1100 0 847 248 
Q 594 497 594 1153 
L 594 3053 
L 172 3053 
L 172 3500 
L 594 3500 
L 594 4494 
L 1172 4494 
z
" transform="scale(0.015625)"/>
       <path id="DejaVuSans-28" d="M 1984 4856 
Q 1566 4138 1362 3434 
Q 1159 2731 1159 2009 
Q 1159 1288 1364 580 
Q 1569 -128 1984 -844 
L 1484 -844 
Q 1016 -109 783 600 
Q 550 1309 550 2009 
Q 550 2706 781 3412 
Q 1013 4119 1484 4856 
L 1984 4856 
z
" transform="scale(0.015625)"/>
       <path id="DejaVuSans-29" d="M 513 4856 
L 1013 4856 
Q 1481 4119 1714 3412 
Q 1947 2706 1947 2009 
Q 1947 1309 1714 600 
Q 1481 -109 1013 -844 
L 513 -844 
Q 928 -128 1133 580 
Q 1338 1288 1338 2009 
Q 1338 2731 1133 3434 
Q 928 4138 513 4856 
z
" transform="scale(0.015625)"/>
      </defs>
      <use xlink:href="#DejaVuSans-45"/>
      <use xlink:href="#DejaVuSans-61" x="63.183594"/>
      <use xlink:href="#DejaVuSans-73" x="124.462891"/>
      <use xlink:href="#DejaVuSans-74" x="176.5625"/>
      <use xlink:href="#DejaVuSans-28" x="215.771484"/>
      <use xlink:href="#DejaVuSans-6d" x="254.785156"/>
      <use xlink:href="#DejaVuSans-29" x="352.197266"/>
     </g>
    </g>
   </g>
   <g id="line2d_13">
    <path d="M 749.863636 713.798994 
L 751.786244 701.58424 
L 753.708852 700.633683 
L 755.63146 694.071354 
L 757.554068 700.91315 
L 759.476676 684.207754 
L 761.399284 683.147833 
L 763.321892 677.84575 
L 765.2445 675.890117 
L 767.167108 664.554489 
L 769.089716 670.897676 
L 772.934932 687.465728 
L 774.85754 680.086119 
L 776.780148 684.119748 
L 778.702756 688.88377 
L 780.625364 690.588916 
L 782.547972 691.341235 
L 784.47058 686.076228 
L 786.393188 691.801193 
L 788.315796 693.163681 
L 790.238404 705.374596 
L 792.161012 715.722601 
L 794.08362 731.387981 
L 796.006228 744.889063 
L 797.928836 763.249127 
L 799.851444 772.373846 
L 801.774052 783.201519 
L 803.69666 769.858187 
L 805.619268 761.377904 
L 807.541876 740.710296 
L 815.232309 702.021959 
L 817.154917 725.207926 
L 821.000133 741.603807 
L 822.922741 748.205016 
L 824.845349 769.249421 
L 826.767957 760.660868 
L 828.690565 756.757253 
L 830.613173 736.248834 
L 832.535781 733.32841 
L 834.458389 733.191177 
L 836.380997 742.495267 
L 838.303605 734.488656 
L 840.226213 735.176912 
L 842.148821 725.432441 
L 844.071429 719.497808 
L 845.994037 733.914117 
L 847.916645 744.507985 
L 849.839253 746.348165 
L 853.684469 768.377939 
L 855.607077 765.629927 
L 857.529685 762.584909 
L 859.452293 755.102353 
L 861.374901 747.144145 
L 865.220117 711.290317 
L 867.142725 701.254682 
L 869.065333 708.039223 
L 870.987941 711.957214 
L 872.910549 708.450995 
L 874.833157 712.489615 
L 878.678373 749.325684 
L 880.600981 751.946278 
L 882.523589 747.851301 
L 884.446197 741.304352 
L 890.214021 746.259403 
L 892.136629 726.503225 
L 894.059237 715.717511 
L 895.981845 709.286675 
L 897.904453 704.210995 
L 899.827061 709.906787 
L 901.749669 702.532851 
L 903.672277 706.985004 
L 905.594885 708.607534 
L 907.517493 718.996601 
L 909.440101 728.230856 
L 911.362709 726.084092 
L 913.285317 732.847946 
L 917.130533 737.232767 
L 919.053141 734.985815 
L 920.975749 718.561199 
L 922.898357 713.353754 
L 924.820965 714.225796 
L 926.743573 705.061796 
L 928.666181 694.721448 
L 932.511397 699.757018 
L 934.434005 704.564199 
L 936.356613 705.552672 
L 938.279221 686.368495 
L 949.814869 679.216854 
L 955.582693 701.000909 
L 957.505301 692.392237 
L 959.427909 686.360619 
L 961.350517 668.103003 
L 969.040949 694.975375 
L 974.808773 720.110061 
L 976.731381 714.274739 
L 978.653989 714.654643 
L 980.576597 684.783261 
L 984.421813 681.467586 
L 986.344421 688.946671 
L 988.267029 696.958795 
L 990.189637 722.274753 
L 992.112245 717.076392 
L 995.957461 718.078008 
L 997.880069 713.312401 
L 999.802677 701.246343 
L 1001.725285 703.033627 
L 1007.493109 683.829407 
L 1009.415717 702.404649 
L 1011.338325 709.41039 
L 1013.260933 707.164758 
L 1015.183541 720.381433 
L 1017.106149 725.259338 
L 1019.028757 742.760097 
L 1020.951365 756.970292 
L 1022.873973 738.466538 
L 1024.796581 754.041026 
L 1026.719189 760.363575 
L 1028.641797 744.499171 
L 1030.564405 756.299486 
L 1034.409621 738.674543 
L 1036.332229 753.398986 
L 1038.254837 758.463301 
L 1042.100053 775.852501 
L 1053.635701 778.528728 
L 1057.480917 759.612077 
L 1159.379141 651.233815 
L 1161.301749 596.612016 
L 1163.224357 559.003425 
L 1318.955606 167.4 
L 1320.878214 168.383038 
L 1322.800822 173.553135 
L 1332.413862 184.560132 
L 1336.259078 181.308024 
L 1338.181686 200.230104 
L 1340.104294 231.187153 
L 1343.94951 227.522163 
L 1345.872118 235.096428 
L 1347.794726 220.216951 
L 1365.098198 256.961785 
L 1368.943414 255.901334 
L 1415.086006 201.645571 
L 1417.008614 201.239611 
L 1426.621654 240.075901 
L 1428.544262 249.624748 
L 1430.46687 265.767319 
L 1432.389478 276.565305 
L 1436.234694 258.121631 
L 1438.157302 257.619044 
L 1442.002518 237.456114 
L 1472.764246 316.712762 
L 1476.609462 334.28204 
L 1480.454678 330.651863 
L 1482.377286 331.378398 
L 1484.299894 324.898967 
L 1486.222502 322.737869 
L 1488.14511 319.257469 
L 1490.067718 304.557984 
L 1491.990326 296.846283 
L 1499.680758 256.054324 
L 1501.603366 248.734062 
L 1503.525974 260.559731 
L 1509.293798 301.189827 
L 1511.216406 302.733914 
L 1513.139014 293.488991 
L 1515.061622 305.339906 
L 1516.98423 303.520285 
L 1520.829446 293.359362 
L 1522.752054 290.733372 
L 1528.519878 294.281669 
L 1530.442486 293.13834 
L 1532.365094 288.659018 
L 1540.055526 235.235137 
L 1541.978134 223.992511 
L 1543.900742 231.632401 
L 1545.82335 229.949162 
L 1547.745958 202.575972 
L 1549.668566 197.713887 
L 1551.591174 234.792508 
L 1555.43639 216.203926 
L 1557.358998 197.258962 
L 1559.281606 190.9861 
L 1563.126822 203.769095 
L 1565.04943 195.960207 
L 1566.972038 190.990973 
L 1568.894646 194.311459 
L 1572.739862 199.67806 
L 1574.66247 219.617484 
L 1576.585078 222.401845 
L 1578.507686 227.972001 
L 1580.430294 252.139659 
L 1582.352902 253.270804 
L 1584.27551 239.891489 
L 1586.198118 252.577963 
L 1588.120726 248.672824 
L 1590.043334 242.0141 
L 1593.88855 228.025477 
L 1636.185926 309.320235 
L 1640.031142 298.700885 
L 1641.95375 298.272837 
L 1645.798966 321.22929 
L 1647.721574 329.834677 
L 1649.644182 318.453039 
L 1653.489398 349.336836 
L 1655.412006 346.926852 
L 1657.334614 332.454597 
L 1665.025046 283.433019 
L 1666.947654 276.314014 
L 1668.870262 291.698304 
L 1672.715478 305.635632 
L 1674.638086 305.991792 
L 1676.560694 306.50214 
L 1678.483302 316.747282 
L 1680.40591 311.099064 
L 1686.173734 290.524309 
L 1693.864166 330.564521 
L 1695.786774 324.533915 
L 1697.709382 325.653199 
L 1699.63199 321.342733 
L 1701.554598 330.352212 
L 1703.477206 313.76408 
L 1722.703287 304.411579 
L 1724.625895 304.303597 
L 1726.548503 324.925312 
L 1728.471111 330.794142 
L 1730.393719 341.485502 
L 1732.316327 336.976777 
L 1734.238935 325.575612 
L 1736.161543 327.659537 
L 1738.084151 343.22039 
L 1740.006759 349.011971 
L 1743.851975 346.805873 
L 1745.774583 363.956713 
L 1751.542407 373.652872 
L 1753.465015 363.959042 
L 1755.387623 353.631729 
L 1757.310231 342.175689 
L 1759.232839 340.051309 
L 1761.155447 341.931111 
L 1765.000663 343.051277 
L 1766.923271 355.199566 
L 1772.691095 402.713219 
L 1774.613703 397.794174 
L 1776.536311 384.47721 
L 1780.381527 367.276208 
L 1782.304135 368.375567 
L 1784.226743 361.831989 
L 1786.149351 354.370738 
L 1788.071959 360.457345 
L 1789.994567 378.600591 
L 1801.530215 457.333761 
L 1805.375431 438.525019 
L 1807.298039 416.874319 
L 1809.220647 393.57585 
L 1811.143255 382.830122 
L 1813.065863 373.437893 
L 1816.911079 372.304542 
L 1818.833687 375.825226 
L 1820.756295 377.719931 
L 1822.678903 371.826956 
L 1824.601511 363.295178 
L 1830.369335 366.040073 
L 1832.291943 338.755206 
L 1834.214551 330.42727 
L 1836.137159 340.524446 
L 1838.059767 346.349466 
L 1839.982375 341.827928 
L 1841.904983 321.537737 
L 1845.750199 313.432269 
L 1847.672807 327.640927 
L 1859.208455 302.479967 
L 1861.131063 276.938972 
L 1863.053671 289.84073 
L 1864.976279 306.348571 
L 1866.898887 325.344428 
L 1868.821495 354.934083 
L 1870.744103 348.220951 
L 1872.666711 311.557107 
L 1874.589319 312.484692 
L 1876.511927 302.569274 
L 1878.434535 297.902141 
L 1880.357143 279.195851 
L 1884.202359 232.748571 
L 1886.124967 247.36027 
L 1888.047575 246.091519 
L 1889.970183 239.928053 
L 1891.892791 229.506314 
L 1893.815399 223.795921 
L 1895.738007 235.991296 
L 1899.583223 236.5082 
L 1901.505831 250.855819 
L 1903.428439 256.772363 
L 1905.351047 248.739993 
L 1907.273655 247.625712 
L 1909.196263 241.109823 
L 1911.118871 254.316512 
L 1914.964087 243.418483 
L 2024.552743 179.985625 
L 2028.397959 170.815253 
L 2030.320567 200.227183 
L 2032.243175 217.290341 
L 2034.165783 199.009539 
L 2038.010999 210.541003 
L 2039.933607 238.916801 
L 2049.546647 287.393024 
L 2051.469255 307.904378 
L 2057.237079 319.009219 
L 2059.159687 289.026279 
L 2061.082295 296.719863 
L 2063.004903 310.338481 
L 2064.927511 311.865032 
L 2068.772727 310.860977 
L 2137.986615 259.973311 
L 2139.909223 282.750833 
L 2143.754439 315.180077 
L 2145.677047 316.310354 
L 2172.59356 317.761834 
L 2255.265704 287.321143 
L 2257.188312 310.572354 
L 2261.033528 350.070717 
L 2262.956136 359.24762 
L 2264.878744 356.521119 
L 2266.801352 369.681879 
L 2268.72396 366.592624 
L 2270.646568 362.667014 
L 2272.569176 384.932723 
L 2274.491784 388.876009 
L 2276.414392 384.776679 
L 2282.182216 408.445537 
L 2314.866552 358.084154 
L 2316.78916 371.727098 
L 2328.324808 473.619264 
L 2332.170024 431.357917 
L 2334.092632 439.268911 
L 2355.24132 435.780988 
L 2485.978664 433.43105 
L 2487.901272 429.699751 
L 2489.82388 375.439335 
L 2491.746488 344.902372 
L 2495.591704 366.243357 
L 2512.895176 392.525592 
L 2747.453353 206.82314 
L 2997.392393 773.177 
L 2999.315001 785.181492 
L 3001.237609 805.037717 
L 3014.695865 842.303683 
L 3018.541081 846.65602 
L 3020.463689 891.859802 
L 3024.308905 915.07536 
L 3026.231513 923.4 
L 3030.076729 914.459209 
L 3031.999337 886.187025 
L 3055.070633 861.199586 
L 3056.993241 898.309713 
L 3058.915849 871.08971 
L 3060.838457 825.986313 
L 3062.761065 749.750593 
L 3064.683673 762.589241 
L 3068.528889 813.067219 
L 3072.374105 829.896992 
L 3076.219321 771.762421 
L 3078.141929 733.948081 
L 3081.987146 784.38112 
L 3085.832362 784.355945 
L 3087.75497 723.301877 
L 3089.677578 744.013169 
L 3093.522794 735.30128 
L 3095.445402 804.543646 
L 3097.36801 772.037104 
L 3101.213226 738.494452 
L 3106.98105 648.289489 
L 3108.903658 590.297934 
L 3112.748874 479.045564 
L 3114.671482 541.894185 
L 3116.59409 585.170964 
L 3122.361914 642.981582 
L 3124.284522 695.473184 
L 3126.20713 767.590349 
L 3128.129738 827.915162 
L 3133.897562 867.122718 
L 3135.82017 834.430205 
L 3137.742778 793.423396 
L 3139.665386 798.639163 
L 3141.587994 782.25933 
L 3145.43321 825.323768 
L 3147.355818 792.476679 
L 3151.201034 781.808984 
L 3153.123642 759.547082 
L 3155.04625 763.856451 
L 3158.891466 757.07868 
L 3160.814074 803.462061 
L 3162.736682 772.109548 
L 3164.65929 676.337524 
L 3189.653194 744.339136 
L 3191.575802 651.039752 
L 3193.49841 622.764176 
L 3195.421018 536.342964 
L 3197.343626 610.909977 
L 3199.266234 558.79022 
L 3205.034058 562.341901 
L 3216.569706 710.774679 
L 3220.414922 749.463834 
L 3222.33753 702.567796 
L 3224.260138 660.779377 
L 3226.182746 588.385035 
L 3230.027962 569.577109 
L 3237.718394 541.155092 
L 3239.641002 582.209626 
L 3256.944474 383.94504 
L 3258.867082 437.775986 
L 3260.78969 459.121776 
L 3264.634906 495.234477 
L 3266.557514 534.948125 
L 3268.480122 504.363942 
L 3270.40273 484.643563 
L 3272.325338 498.064191 
L 3274.247946 484.970113 
L 3276.170554 418.830152 
L 3283.860986 443.379387 
L 3291.551418 464.332854 
L 3293.474026 462.85231 
L 3295.396634 437.413509 
L 3297.319242 431.419262 
L 3299.24185 423.956416 
L 3301.164458 409.811368 
L 3303.087066 389.327802 
L 3305.009674 361.867214 
L 3306.932282 356.51232 
L 3308.85489 366.411225 
L 3314.622714 374.968707 
L 3320.390538 428.430301 
L 3322.313146 458.487532 
L 3324.235754 456.214827 
L 3326.158362 483.934201 
L 3328.08097 503.508318 
L 3330.003578 494.362401 
L 3331.926186 510.584748 
L 3333.848794 488.472732 
L 3335.771402 469.745364 
L 3337.69401 475.218424 
L 3339.616618 462.195564 
L 3341.539226 446.491511 
L 3343.461834 456.389351 
L 3345.384442 443.278333 
L 3347.30705 464.435585 
L 3349.229658 459.441893 
L 3351.152266 458.904692 
L 3353.074874 461.392368 
L 3354.997482 467.101002 
L 3356.92009 466.583782 
L 3358.842698 467.142171 
L 3360.765306 437.105515 
L 3362.687914 439.076341 
L 3364.610522 421.919856 
L 3366.53313 422.614931 
L 3368.455738 416.22651 
L 3370.378346 416.648272 
L 3376.14617 451.005936 
L 3378.068778 472.891036 
L 3379.991386 468.993633 
L 3381.913994 467.491062 
L 3383.836602 478.398033 
L 3385.75921 472.301172 
L 3387.681818 470.028513 
L 3389.604426 469.648221 
L 3393.449642 481.936384 
L 3395.37225 489.787389 
L 3397.294858 501.545572 
L 3399.217466 505.890519 
L 3401.140074 516.445376 
L 3403.062682 520.875656 
L 3404.98529 520.033693 
L 3406.907898 521.578702 
L 3410.753114 499.089797 
L 3412.675722 499.393477 
L 3414.59833 501.274451 
L 3416.520938 497.597086 
L 3418.443546 496.419304 
L 3420.366154 487.926634 
L 3422.288762 473.287771 
L 3424.21137 490.278679 
L 3426.133978 495.490846 
L 3428.056586 494.469253 
L 3429.979194 500.78886 
L 3431.901802 504.28391 
L 3433.82441 514.307633 
L 3435.747018 509.08124 
L 3437.669626 482.700953 
L 3439.592234 485.153366 
L 3441.514842 490.051969 
L 3443.43745 478.690234 
L 3445.360058 476.646613 
L 3447.282666 464.83742 
L 3449.205274 485.324031 
L 3451.127882 518.91463 
L 3453.05049 520.983737 
L 3454.973098 505.649327 
L 3456.895706 521.25889 
L 3458.818314 508.504708 
L 3460.740922 515.903418 
L 3462.66353 520.314699 
L 3464.586138 525.809719 
L 3466.508746 520.487506 
L 3468.431354 538.321871 
L 3470.353962 534.763124 
L 3472.27657 550.160922 
L 3474.199178 555.598178 
L 3476.121786 555.305415 
L 3478.044394 551.019366 
L 3479.967002 578.544083 
L 3481.88961 584.672865 
L 3483.812218 577.953874 
L 3485.734826 573.156657 
L 3487.657434 572.128798 
L 3489.580042 574.975158 
L 3493.425258 554.205324 
L 3495.347866 552.9844 
L 3501.11569 584.523455 
L 3503.038298 577.503574 
L 3504.960906 578.712316 
L 3506.883514 572.457083 
L 3508.806122 569.926828 
L 3510.72873 569.229165 
L 3512.651338 576.572278 
L 3514.573946 582.185924 
L 3516.496554 583.803794 
L 3518.419162 587.20638 
L 3522.264378 578.679508 
L 3524.186986 564.575572 
L 3526.109594 560.370929 
L 3528.032202 555.667448 
L 3529.95481 555.70789 
L 3531.877418 563.842099 
L 3533.800027 563.338799 
L 3535.722635 566.334435 
L 3537.645243 580.02298 
L 3539.567851 568.611014 
L 3541.490459 563.10517 
L 3543.413067 564.113231 
L 3545.335675 556.079183 
L 3547.258283 566.947615 
L 3549.180891 569.585817 
L 3551.103499 567.202071 
L 3553.026107 577.341373 
L 3556.871323 547.934671 
L 3558.793931 526.403843 
L 3560.716539 494.287834 
L 3562.639147 509.050261 
L 3564.561755 498.053375 
L 3574.174795 561.736619 
L 3576.097403 553.29626 
L 3578.020011 572.380571 
L 3581.865227 578.259565 
L 3583.787835 580.156212 
L 3585.710443 579.953825 
L 3587.633051 556.003964 
L 3589.555659 558.640623 
L 3591.478267 546.308209 
L 3593.400875 537.748159 
L 3595.323483 545.376314 
L 3635.698251 525.14292 
L 3637.620859 530.983045 
L 3641.466075 538.946801 
L 3647.233899 540.795442 
L 3649.156507 526.332267 
L 3651.079115 518.912325 
L 3653.001723 512.013632 
L 3654.924331 512.114748 
L 3656.846939 517.069893 
L 3658.769547 521.534188 
L 3660.692155 516.188531 
L 3662.614763 520.254491 
L 3664.537371 527.569507 
L 3666.459979 539.575789 
L 3668.382587 534.430009 
L 3670.305195 541.729531 
L 3672.227803 535.641963 
L 3674.150411 543.135004 
L 3676.073019 531.726466 
L 3677.995627 527.408726 
L 3679.918235 506.648501 
L 3681.840843 508.97558 
L 3683.763451 487.031887 
L 3685.686059 487.003249 
L 3687.608667 493.406578 
L 3689.531275 500.256407 
L 3691.453883 489.453439 
L 3693.376491 482.75207 
L 3695.299099 484.95383 
L 3697.221707 489.685738 
L 3699.144315 487.217136 
L 3701.066923 464.418848 
L 3702.989531 489.79888 
L 3704.912139 491.629347 
L 3708.757355 489.838667 
L 3710.679963 501.435405 
L 3712.602571 499.852904 
L 3714.525179 507.470983 
L 3718.370395 478.639922 
L 3720.293003 488.977824 
L 3722.215611 486.346055 
L 3724.138219 480.805927 
L 3727.983435 504.109798 
L 3729.906043 509.894867 
L 3731.828651 518.990008 
L 3733.751259 516.801929 
L 3735.673867 527.035924 
L 3739.519083 554.141533 
L 3741.441691 539.678809 
L 3743.364299 530.826866 
L 3745.286907 529.985772 
L 3747.209515 531.9752 
L 3749.132123 515.175491 
L 3751.054731 499.49924 
L 3754.899947 458.499627 
L 3756.822555 469.715747 
L 3758.745163 491.776322 
L 3760.667771 492.491174 
L 3762.590379 492.361802 
L 3768.358203 483.977197 
L 3770.280811 490.997447 
L 3772.203419 459.370806 
L 3774.126027 462.253515 
L 3776.048635 477.217235 
L 3777.971243 489.247882 
L 3779.893851 500.158241 
L 3877.946859 589.751288 
L 3879.869467 568.450255 
L 3881.792075 544.20621 
L 3887.559899 539.831424 
L 3889.482507 527.201831 
L 3891.405115 539.908392 
L 3897.172939 517.890922 
L 3904.863371 513.566734 
L 3908.708587 560.74305 
L 3926.012059 601.795454 
L 3927.934667 594.914125 
L 3929.857275 586.411783 
L 3931.779883 596.911251 
L 3933.702491 598.446791 
L 3943.315531 628.427942 
L 3945.238139 648.497805 
L 3951.005963 677.98438 
L 3952.928571 654.733411 
L 3954.851179 677.402722 
L 3956.773787 712.700008 
L 3958.696395 707.373722 
L 3960.619003 695.588866 
L 3962.541611 682.156 
L 3968.309435 702.07205 
L 3974.077259 655.767935 
L 3975.999867 673.66634 
L 3977.922475 658.411129 
L 3979.845083 640.872724 
L 3981.767691 638.134805 
L 3985.612908 664.921122 
L 3989.458124 618.396256 
L 3991.380732 635.342972 
L 4000.993772 679.953456 
L 4002.91638 707.227125 
L 4004.838988 710.034367 
L 4006.761596 711.955017 
L 4008.684204 688.489642 
L 4010.606812 690.620673 
L 4012.52942 680.562589 
L 4014.452028 683.135667 
L 4016.374636 674.911879 
L 4018.297244 663.349959 
L 4020.219852 660.02729 
L 4022.14246 667.407012 
L 4024.065068 662.142382 
L 4025.987676 671.709047 
L 4027.910284 665.777263 
L 4029.832892 642.997569 
L 4041.36854 542.387252 
L 4043.291148 537.789917 
L 4045.213756 547.579057 
L 4047.136364 532.453451 
L 4047.136364 532.453451 
" clip-path="url(#p912057cae7)" style="fill: none; stroke: #023eff; stroke-width: 2.5; stroke-linecap: square"/>
   </g>
   <g id="patch_3">
    <path d="M 585 961.2 
L 585 129.6 
" style="fill: none; stroke: #000000; stroke-width: 0.8; stroke-linejoin: miter; stroke-linecap: square"/>
   </g>
   <g id="patch_4">
    <path d="M 4212 961.2 
L 4212 129.6 
" style="fill: none; stroke: #000000; stroke-width: 0.8; stroke-linejoin: miter; stroke-linecap: square"/>
   </g>
   <g id="patch_5">
    <path d="M 585 961.2 
L 4212 961.2 
" style="fill: none; stroke: #000000; stroke-width: 0.8; stroke-linejoin: miter; stroke-linecap: square"/>
   </g>
   <g id="patch_6">
    <path d="M 585 129.6 
L 4212 129.6 
" style="fill: none; stroke: #000000; stroke-width: 0.8; stroke-linejoin: miter; stroke-linecap: square"/>
   </g>
   <g id="text_15">
    <!-- SUSE -->
    <g transform="translate(2358.998437 123.360937) scale(0.3 -0.3)">
     <defs>
      <path id="DejaVuSans-53" d="M 3425 4513 
L 3425 3897 
Q 3066 4069 2747 4153 
Q 2428 4238 2131 4238 
Q 1616 4238 1336 4038 
Q 1056 3838 1056 3469 
Q 1056 3159 1242 3001 
Q 1428 2844 1947 2747 
L 2328 2669 
Q 3034 2534 3370 2195 
Q 3706 1856 3706 1288 
Q 3706 609 3251 259 
Q 2797 -91 1919 -91 
Q 1588 -91 1214 -16 
Q 841 59 441 206 
L 441 856 
Q 825 641 1194 531 
Q 1563 422 1919 422 
Q 2459 422 2753 634 
Q 3047 847 3047 1241 
Q 3047 1584 2836 1778 
Q 2625 1972 2144 2069 
L 1759 2144 
Q 1053 2284 737 2584 
Q 422 2884 422 3419 
Q 422 4038 858 4394 
Q 1294 4750 2059 4750 
Q 2388 4750 2728 4690 
Q 3069 4631 3425 4513 
z
" transform="scale(0.015625)"/>
      <path id="DejaVuSans-55" d="M 556 4666 
L 1191 4666 
L 1191 1831 
Q 1191 1081 1462 751 
Q 1734 422 2344 422 
Q 2950 422 3222 751 
Q 3494 1081 3494 1831 
L 3494 4666 
L 4128 4666 
L 4128 1753 
Q 4128 841 3676 375 
Q 3225 -91 2344 -91 
Q 1459 -91 1007 375 
Q 556 841 556 1753 
L 556 4666 
z
" transform="scale(0.015625)"/>
     </defs>
     <use xlink:href="#DejaVuSans-53"/>
     <use xlink:href="#DejaVuSans-55" x="63.476562"/>
     <use xlink:href="#DejaVuSans-53" x="136.669922"/>
     <use xlink:href="#DejaVuSans-45" x="200.146484"/>
    </g>
   </g>
   <g id="legend_1">
    <g id="patch_7">
     <path d="M 4150.090625 152.278125 
L 4205 152.278125 
Q 4207 152.278125 4207 150.278125 
L 4207 136.6 
Q 4207 134.6 4205 134.6 
L 4150.090625 134.6 
Q 4148.090625 134.6 4148.090625 136.6 
L 4148.090625 150.278125 
Q 4148.090625 152.278125 4150.090625 152.278125 
z
" style="fill: #ffffff; opacity: 0.8; stroke: #cccccc; stroke-linejoin: miter"/>
    </g>
    <g id="line2d_14">
     <path d="M 4152.090625 142.698438 
L 4162.090625 142.698438 
L 4172.090625 142.698438 
" style="fill: none; stroke: #023eff; stroke-width: 2.5; stroke-linecap: square"/>
    </g>
    <g id="text_16">
     <!-- suse -->
     <g transform="translate(4180.090625 146.198438) scale(0.1 -0.1)">
      <defs>
       <path id="DejaVuSans-75" d="M 544 1381 
L 544 3500 
L 1119 3500 
L 1119 1403 
Q 1119 906 1312 657 
Q 1506 409 1894 409 
Q 2359 409 2629 706 
Q 2900 1003 2900 1516 
L 2900 3500 
L 3475 3500 
L 3475 0 
L 2900 0 
L 2900 538 
Q 2691 219 2414 64 
Q 2138 -91 1772 -91 
Q 1169 -91 856 284 
Q 544 659 544 1381 
z
M 1991 3584 
L 1991 3584 
z
" transform="scale(0.015625)"/>
      </defs>
      <use xlink:href="#DejaVuSans-73"/>
      <use xlink:href="#DejaVuSans-75" x="52.099609"/>
      <use xlink:href="#DejaVuSans-73" x="115.478516"/>
      <use xlink:href="#DejaVuSans-65" x="167.578125"/>
     </g>
    </g>
   </g>
  </g>
 </g>
 <defs>
  <clipPath id="p912057cae7">
   <rect x="585" y="129.6" width="3627" height="831.6"/>
  </clipPath>
 </defs>
</svg>
