<?xml version="1.0" encoding="utf-8" standalone="no"?>
<!DOCTYPE svg PUBLIC "-//W3C//DTD SVG 1.1//EN"
  "http://www.w3.org/Graphics/SVG/1.1/DTD/svg11.dtd">
<svg xmlns:xlink="http://www.w3.org/1999/xlink" width="1800pt" height="360pt" viewBox="0 0 1800 360" xmlns="http://www.w3.org/2000/svg" version="1.1">
 <metadata>
  <rdf:RDF xmlns:dc="http://purl.org/dc/elements/1.1/" xmlns:cc="http://creativecommons.org/ns#" xmlns:rdf="http://www.w3.org/1999/02/22-rdf-syntax-ns#">
   <cc:Work>
    <dc:type rdf:resource="http://purl.org/dc/dcmitype/StillImage"/>
    <dc:date>2024-03-25T15:23:16.272052</dc:date>
    <dc:format>image/svg+xml</dc:format>
    <dc:creator>
     <cc:Agent>
      <dc:title>Matplotlib v3.7.2, https://matplotlib.org/</dc:title>
     </cc:Agent>
    </dc:creator>
   </cc:Work>
  </rdf:RDF>
 </metadata>
 <defs>
  <style type="text/css">*{stroke-linejoin: round; stroke-linecap: butt}</style>
 </defs>
 <g id="figure_1">
  <g id="patch_1">
   <path d="M 0 360 
L 1800 360 
L 1800 0 
L 0 0 
z
" style="fill: #ffffff"/>
  </g>
  <g id="axes_1">
   <g id="patch_2">
    <path d="M 225 320.4 
L 1620 320.4 
L 1620 43.2 
L 225 43.2 
z
" style="fill: #ffffff"/>
   </g>
   <g id="matplotlib.axis_1">
    <g id="xtick_1">
     <g id="line2d_1">
      <defs>
       <path id="m7d6fd041d5" d="M 0 0 
L 0 3.5 
" style="stroke: #000000; stroke-width: 0.8"/>
      </defs>
      <g>
       <use xlink:href="#m7d6fd041d5" x="276.782928" y="320.4" style="stroke: #000000; stroke-width: 0.8"/>
      </g>
     </g>
     <g id="text_1">
      <!-- 2011 -->
      <g transform="translate(257.695428 338.797656) scale(0.15 -0.15)">
       <defs>
        <path id="DejaVuSans-32" d="M 1228 531 
L 3431 531 
L 3431 0 
L 469 0 
L 469 531 
Q 828 903 1448 1529 
Q 2069 2156 2228 2338 
Q 2531 2678 2651 2914 
Q 2772 3150 2772 3378 
Q 2772 3750 2511 3984 
Q 2250 4219 1831 4219 
Q 1534 4219 1204 4116 
Q 875 4013 500 3803 
L 500 4441 
Q 881 4594 1212 4672 
Q 1544 4750 1819 4750 
Q 2544 4750 2975 4387 
Q 3406 4025 3406 3419 
Q 3406 3131 3298 2873 
Q 3191 2616 2906 2266 
Q 2828 2175 2409 1742 
Q 1991 1309 1228 531 
z
" transform="scale(0.015625)"/>
        <path id="DejaVuSans-30" d="M 2034 4250 
Q 1547 4250 1301 3770 
Q 1056 3291 1056 2328 
Q 1056 1369 1301 889 
Q 1547 409 2034 409 
Q 2525 409 2770 889 
Q 3016 1369 3016 2328 
Q 3016 3291 2770 3770 
Q 2525 4250 2034 4250 
z
M 2034 4750 
Q 2819 4750 3233 4129 
Q 3647 3509 3647 2328 
Q 3647 1150 3233 529 
Q 2819 -91 2034 -91 
Q 1250 -91 836 529 
Q 422 1150 422 2328 
Q 422 3509 836 4129 
Q 1250 4750 2034 4750 
z
" transform="scale(0.015625)"/>
        <path id="DejaVuSans-31" d="M 794 531 
L 1825 531 
L 1825 4091 
L 703 3866 
L 703 4441 
L 1819 4666 
L 2450 4666 
L 2450 531 
L 3481 531 
L 3481 0 
L 794 0 
L 794 531 
z
" transform="scale(0.015625)"/>
       </defs>
       <use xlink:href="#DejaVuSans-32"/>
       <use xlink:href="#DejaVuSans-30" x="63.623047"/>
       <use xlink:href="#DejaVuSans-31" x="127.246094"/>
       <use xlink:href="#DejaVuSans-31" x="190.869141"/>
      </g>
     </g>
    </g>
    <g id="xtick_2">
     <g id="line2d_2">
      <g>
       <use xlink:href="#m7d6fd041d5" x="446.524902" y="320.4" style="stroke: #000000; stroke-width: 0.8"/>
      </g>
     </g>
     <g id="text_2">
      <!-- 2012 -->
      <g transform="translate(427.437402 338.797656) scale(0.15 -0.15)">
       <use xlink:href="#DejaVuSans-32"/>
       <use xlink:href="#DejaVuSans-30" x="63.623047"/>
       <use xlink:href="#DejaVuSans-31" x="127.246094"/>
       <use xlink:href="#DejaVuSans-32" x="190.869141"/>
      </g>
     </g>
    </g>
    <g id="xtick_3">
     <g id="line2d_3">
      <g>
       <use xlink:href="#m7d6fd041d5" x="616.731923" y="320.4" style="stroke: #000000; stroke-width: 0.8"/>
      </g>
     </g>
     <g id="text_3">
      <!-- 2013 -->
      <g transform="translate(597.644423 338.797656) scale(0.15 -0.15)">
       <defs>
        <path id="DejaVuSans-33" d="M 2597 2516 
Q 3050 2419 3304 2112 
Q 3559 1806 3559 1356 
Q 3559 666 3084 287 
Q 2609 -91 1734 -91 
Q 1441 -91 1130 -33 
Q 819 25 488 141 
L 488 750 
Q 750 597 1062 519 
Q 1375 441 1716 441 
Q 2309 441 2620 675 
Q 2931 909 2931 1356 
Q 2931 1769 2642 2001 
Q 2353 2234 1838 2234 
L 1294 2234 
L 1294 2753 
L 1863 2753 
Q 2328 2753 2575 2939 
Q 2822 3125 2822 3475 
Q 2822 3834 2567 4026 
Q 2313 4219 1838 4219 
Q 1578 4219 1281 4162 
Q 984 4106 628 3988 
L 628 4550 
Q 988 4650 1302 4700 
Q 1616 4750 1894 4750 
Q 2613 4750 3031 4423 
Q 3450 4097 3450 3541 
Q 3450 3153 3228 2886 
Q 3006 2619 2597 2516 
z
" transform="scale(0.015625)"/>
       </defs>
       <use xlink:href="#DejaVuSans-32"/>
       <use xlink:href="#DejaVuSans-30" x="63.623047"/>
       <use xlink:href="#DejaVuSans-31" x="127.246094"/>
       <use xlink:href="#DejaVuSans-33" x="190.869141"/>
      </g>
     </g>
    </g>
    <g id="xtick_4">
     <g id="line2d_4">
      <g>
       <use xlink:href="#m7d6fd041d5" x="786.473897" y="320.4" style="stroke: #000000; stroke-width: 0.8"/>
      </g>
     </g>
     <g id="text_4">
      <!-- 2014 -->
      <g transform="translate(767.386397 338.797656) scale(0.15 -0.15)">
       <defs>
        <path id="DejaVuSans-34" d="M 2419 4116 
L 825 1625 
L 2419 1625 
L 2419 4116 
z
M 2253 4666 
L 3047 4666 
L 3047 1625 
L 3713 1625 
L 3713 1100 
L 3047 1100 
L 3047 0 
L 2419 0 
L 2419 1100 
L 313 1100 
L 313 1709 
L 2253 4666 
z
" transform="scale(0.015625)"/>
       </defs>
       <use xlink:href="#DejaVuSans-32"/>
       <use xlink:href="#DejaVuSans-30" x="63.623047"/>
       <use xlink:href="#DejaVuSans-31" x="127.246094"/>
       <use xlink:href="#DejaVuSans-34" x="190.869141"/>
      </g>
     </g>
    </g>
    <g id="xtick_5">
     <g id="line2d_5">
      <g>
       <use xlink:href="#m7d6fd041d5" x="956.215872" y="320.4" style="stroke: #000000; stroke-width: 0.8"/>
      </g>
     </g>
     <g id="text_5">
      <!-- 2015 -->
      <g transform="translate(937.128372 338.797656) scale(0.15 -0.15)">
       <defs>
        <path id="DejaVuSans-35" d="M 691 4666 
L 3169 4666 
L 3169 4134 
L 1269 4134 
L 1269 2991 
Q 1406 3038 1543 3061 
Q 1681 3084 1819 3084 
Q 2600 3084 3056 2656 
Q 3513 2228 3513 1497 
Q 3513 744 3044 326 
Q 2575 -91 1722 -91 
Q 1428 -91 1123 -41 
Q 819 9 494 109 
L 494 744 
Q 775 591 1075 516 
Q 1375 441 1709 441 
Q 2250 441 2565 725 
Q 2881 1009 2881 1497 
Q 2881 1984 2565 2268 
Q 2250 2553 1709 2553 
Q 1456 2553 1204 2497 
Q 953 2441 691 2322 
L 691 4666 
z
" transform="scale(0.015625)"/>
       </defs>
       <use xlink:href="#DejaVuSans-32"/>
       <use xlink:href="#DejaVuSans-30" x="63.623047"/>
       <use xlink:href="#DejaVuSans-31" x="127.246094"/>
       <use xlink:href="#DejaVuSans-35" x="190.869141"/>
      </g>
     </g>
    </g>
    <g id="xtick_6">
     <g id="line2d_6">
      <g>
       <use xlink:href="#m7d6fd041d5" x="1125.957846" y="320.4" style="stroke: #000000; stroke-width: 0.8"/>
      </g>
     </g>
     <g id="text_6">
      <!-- 2016 -->
      <g transform="translate(1106.870346 338.797656) scale(0.15 -0.15)">
       <defs>
        <path id="DejaVuSans-36" d="M 2113 2584 
Q 1688 2584 1439 2293 
Q 1191 2003 1191 1497 
Q 1191 994 1439 701 
Q 1688 409 2113 409 
Q 2538 409 2786 701 
Q 3034 994 3034 1497 
Q 3034 2003 2786 2293 
Q 2538 2584 2113 2584 
z
M 3366 4563 
L 3366 3988 
Q 3128 4100 2886 4159 
Q 2644 4219 2406 4219 
Q 1781 4219 1451 3797 
Q 1122 3375 1075 2522 
Q 1259 2794 1537 2939 
Q 1816 3084 2150 3084 
Q 2853 3084 3261 2657 
Q 3669 2231 3669 1497 
Q 3669 778 3244 343 
Q 2819 -91 2113 -91 
Q 1303 -91 875 529 
Q 447 1150 447 2328 
Q 447 3434 972 4092 
Q 1497 4750 2381 4750 
Q 2619 4750 2861 4703 
Q 3103 4656 3366 4563 
z
" transform="scale(0.015625)"/>
       </defs>
       <use xlink:href="#DejaVuSans-32"/>
       <use xlink:href="#DejaVuSans-30" x="63.623047"/>
       <use xlink:href="#DejaVuSans-31" x="127.246094"/>
       <use xlink:href="#DejaVuSans-36" x="190.869141"/>
      </g>
     </g>
    </g>
    <g id="xtick_7">
     <g id="line2d_7">
      <g>
       <use xlink:href="#m7d6fd041d5" x="1296.164866" y="320.4" style="stroke: #000000; stroke-width: 0.8"/>
      </g>
     </g>
     <g id="text_7">
      <!-- 2017 -->
      <g transform="translate(1277.077366 338.797656) scale(0.15 -0.15)">
       <defs>
        <path id="DejaVuSans-37" d="M 525 4666 
L 3525 4666 
L 3525 4397 
L 1831 0 
L 1172 0 
L 2766 4134 
L 525 4134 
L 525 4666 
z
" transform="scale(0.015625)"/>
       </defs>
       <use xlink:href="#DejaVuSans-32"/>
       <use xlink:href="#DejaVuSans-30" x="63.623047"/>
       <use xlink:href="#DejaVuSans-31" x="127.246094"/>
       <use xlink:href="#DejaVuSans-37" x="190.869141"/>
      </g>
     </g>
    </g>
    <g id="xtick_8">
     <g id="line2d_8">
      <g>
       <use xlink:href="#m7d6fd041d5" x="1465.906841" y="320.4" style="stroke: #000000; stroke-width: 0.8"/>
      </g>
     </g>
     <g id="text_8">
      <!-- 2018 -->
      <g transform="translate(1446.819341 338.797656) scale(0.15 -0.15)">
       <defs>
        <path id="DejaVuSans-38" d="M 2034 2216 
Q 1584 2216 1326 1975 
Q 1069 1734 1069 1313 
Q 1069 891 1326 650 
Q 1584 409 2034 409 
Q 2484 409 2743 651 
Q 3003 894 3003 1313 
Q 3003 1734 2745 1975 
Q 2488 2216 2034 2216 
z
M 1403 2484 
Q 997 2584 770 2862 
Q 544 3141 544 3541 
Q 544 4100 942 4425 
Q 1341 4750 2034 4750 
Q 2731 4750 3128 4425 
Q 3525 4100 3525 3541 
Q 3525 3141 3298 2862 
Q 3072 2584 2669 2484 
Q 3125 2378 3379 2068 
Q 3634 1759 3634 1313 
Q 3634 634 3220 271 
Q 2806 -91 2034 -91 
Q 1263 -91 848 271 
Q 434 634 434 1313 
Q 434 1759 690 2068 
Q 947 2378 1403 2484 
z
M 1172 3481 
Q 1172 3119 1398 2916 
Q 1625 2713 2034 2713 
Q 2441 2713 2670 2916 
Q 2900 3119 2900 3481 
Q 2900 3844 2670 4047 
Q 2441 4250 2034 4250 
Q 1625 4250 1398 4047 
Q 1172 3844 1172 3481 
z
" transform="scale(0.015625)"/>
       </defs>
       <use xlink:href="#DejaVuSans-32"/>
       <use xlink:href="#DejaVuSans-30" x="63.623047"/>
       <use xlink:href="#DejaVuSans-31" x="127.246094"/>
       <use xlink:href="#DejaVuSans-38" x="190.869141"/>
      </g>
     </g>
    </g>
    <g id="text_9">
     <!-- Time -->
     <g transform="translate(904.149609 357.314844) scale(0.15 -0.15)">
      <defs>
       <path id="DejaVuSans-54" d="M -19 4666 
L 3928 4666 
L 3928 4134 
L 2272 4134 
L 2272 0 
L 1638 0 
L 1638 4134 
L -19 4134 
L -19 4666 
z
" transform="scale(0.015625)"/>
       <path id="DejaVuSans-69" d="M 603 3500 
L 1178 3500 
L 1178 0 
L 603 0 
L 603 3500 
z
M 603 4863 
L 1178 4863 
L 1178 4134 
L 603 4134 
L 603 4863 
z
" transform="scale(0.015625)"/>
       <path id="DejaVuSans-6d" d="M 3328 2828 
Q 3544 3216 3844 3400 
Q 4144 3584 4550 3584 
Q 5097 3584 5394 3201 
Q 5691 2819 5691 2113 
L 5691 0 
L 5113 0 
L 5113 2094 
Q 5113 2597 4934 2840 
Q 4756 3084 4391 3084 
Q 3944 3084 3684 2787 
Q 3425 2491 3425 1978 
L 3425 0 
L 2847 0 
L 2847 2094 
Q 2847 2600 2669 2842 
Q 2491 3084 2119 3084 
Q 1678 3084 1418 2786 
Q 1159 2488 1159 1978 
L 1159 0 
L 581 0 
L 581 3500 
L 1159 3500 
L 1159 2956 
Q 1356 3278 1631 3431 
Q 1906 3584 2284 3584 
Q 2666 3584 2933 3390 
Q 3200 3197 3328 2828 
z
" transform="scale(0.015625)"/>
       <path id="DejaVuSans-65" d="M 3597 1894 
L 3597 1613 
L 953 1613 
Q 991 1019 1311 708 
Q 1631 397 2203 397 
Q 2534 397 2845 478 
Q 3156 559 3463 722 
L 3463 178 
Q 3153 47 2828 -22 
Q 2503 -91 2169 -91 
Q 1331 -91 842 396 
Q 353 884 353 1716 
Q 353 2575 817 3079 
Q 1281 3584 2069 3584 
Q 2775 3584 3186 3129 
Q 3597 2675 3597 1894 
z
M 3022 2063 
Q 3016 2534 2758 2815 
Q 2500 3097 2075 3097 
Q 1594 3097 1305 2825 
Q 1016 2553 972 2059 
L 3022 2063 
z
" transform="scale(0.015625)"/>
      </defs>
      <use xlink:href="#DejaVuSans-54"/>
      <use xlink:href="#DejaVuSans-69" x="57.958984"/>
      <use xlink:href="#DejaVuSans-6d" x="85.742188"/>
      <use xlink:href="#DejaVuSans-65" x="183.154297"/>
     </g>
    </g>
   </g>
   <g id="matplotlib.axis_2">
    <g id="ytick_1">
     <g id="line2d_9">
      <defs>
       <path id="m4192f54d83" d="M 0 0 
L -3.5 0 
" style="stroke: #000000; stroke-width: 0.8"/>
      </defs>
      <g>
       <use xlink:href="#m4192f54d83" x="225" y="293.967734" style="stroke: #000000; stroke-width: 0.8"/>
      </g>
     </g>
     <g id="text_10">
      <!-- −0.004 -->
      <g transform="translate(162.488281 299.666562) scale(0.15 -0.15)">
       <defs>
        <path id="DejaVuSans-2212" d="M 678 2272 
L 4684 2272 
L 4684 1741 
L 678 1741 
L 678 2272 
z
" transform="scale(0.015625)"/>
        <path id="DejaVuSans-2e" d="M 684 794 
L 1344 794 
L 1344 0 
L 684 0 
L 684 794 
z
" transform="scale(0.015625)"/>
       </defs>
       <use xlink:href="#DejaVuSans-2212"/>
       <use xlink:href="#DejaVuSans-30" x="83.789062"/>
       <use xlink:href="#DejaVuSans-2e" x="147.412109"/>
       <use xlink:href="#DejaVuSans-30" x="179.199219"/>
       <use xlink:href="#DejaVuSans-30" x="242.822266"/>
       <use xlink:href="#DejaVuSans-34" x="306.445312"/>
      </g>
     </g>
    </g>
    <g id="ytick_2">
     <g id="line2d_10">
      <g>
       <use xlink:href="#m4192f54d83" x="225" y="248.005825" style="stroke: #000000; stroke-width: 0.8"/>
      </g>
     </g>
     <g id="text_11">
      <!-- −0.002 -->
      <g transform="translate(162.488281 253.704653) scale(0.15 -0.15)">
       <use xlink:href="#DejaVuSans-2212"/>
       <use xlink:href="#DejaVuSans-30" x="83.789062"/>
       <use xlink:href="#DejaVuSans-2e" x="147.412109"/>
       <use xlink:href="#DejaVuSans-30" x="179.199219"/>
       <use xlink:href="#DejaVuSans-30" x="242.822266"/>
       <use xlink:href="#DejaVuSans-32" x="306.445312"/>
      </g>
     </g>
    </g>
    <g id="ytick_3">
     <g id="line2d_11">
      <g>
       <use xlink:href="#m4192f54d83" x="225" y="202.043916" style="stroke: #000000; stroke-width: 0.8"/>
      </g>
     </g>
     <g id="text_12">
      <!-- 0.000 -->
      <g transform="translate(175.057813 207.742744) scale(0.15 -0.15)">
       <use xlink:href="#DejaVuSans-30"/>
       <use xlink:href="#DejaVuSans-2e" x="63.623047"/>
       <use xlink:href="#DejaVuSans-30" x="95.410156"/>
       <use xlink:href="#DejaVuSans-30" x="159.033203"/>
       <use xlink:href="#DejaVuSans-30" x="222.65625"/>
      </g>
     </g>
    </g>
    <g id="ytick_4">
     <g id="line2d_12">
      <g>
       <use xlink:href="#m4192f54d83" x="225" y="156.082007" style="stroke: #000000; stroke-width: 0.8"/>
      </g>
     </g>
     <g id="text_13">
      <!-- 0.002 -->
      <g transform="translate(175.057813 161.780835) scale(0.15 -0.15)">
       <use xlink:href="#DejaVuSans-30"/>
       <use xlink:href="#DejaVuSans-2e" x="63.623047"/>
       <use xlink:href="#DejaVuSans-30" x="95.410156"/>
       <use xlink:href="#DejaVuSans-30" x="159.033203"/>
       <use xlink:href="#DejaVuSans-32" x="222.65625"/>
      </g>
     </g>
    </g>
    <g id="ytick_5">
     <g id="line2d_13">
      <g>
       <use xlink:href="#m4192f54d83" x="225" y="110.120098" style="stroke: #000000; stroke-width: 0.8"/>
      </g>
     </g>
     <g id="text_14">
      <!-- 0.004 -->
      <g transform="translate(175.057813 115.818926) scale(0.15 -0.15)">
       <use xlink:href="#DejaVuSans-30"/>
       <use xlink:href="#DejaVuSans-2e" x="63.623047"/>
       <use xlink:href="#DejaVuSans-30" x="95.410156"/>
       <use xlink:href="#DejaVuSans-30" x="159.033203"/>
       <use xlink:href="#DejaVuSans-34" x="222.65625"/>
      </g>
     </g>
    </g>
    <g id="ytick_6">
     <g id="line2d_14">
      <g>
       <use xlink:href="#m4192f54d83" x="225" y="64.158189" style="stroke: #000000; stroke-width: 0.8"/>
      </g>
     </g>
     <g id="text_15">
      <!-- 0.006 -->
      <g transform="translate(175.057813 69.857017) scale(0.15 -0.15)">
       <use xlink:href="#DejaVuSans-30"/>
       <use xlink:href="#DejaVuSans-2e" x="63.623047"/>
       <use xlink:href="#DejaVuSans-30" x="95.410156"/>
       <use xlink:href="#DejaVuSans-30" x="159.033203"/>
       <use xlink:href="#DejaVuSans-36" x="222.65625"/>
      </g>
     </g>
    </g>
    <g id="text_16">
     <!-- North(m) -->
     <g transform="translate(155.36875 215.934375) rotate(-90) scale(0.15 -0.15)">
      <defs>
       <path id="DejaVuSans-4e" d="M 628 4666 
L 1478 4666 
L 3547 763 
L 3547 4666 
L 4159 4666 
L 4159 0 
L 3309 0 
L 1241 3903 
L 1241 0 
L 628 0 
L 628 4666 
z
" transform="scale(0.015625)"/>
       <path id="DejaVuSans-6f" d="M 1959 3097 
Q 1497 3097 1228 2736 
Q 959 2375 959 1747 
Q 959 1119 1226 758 
Q 1494 397 1959 397 
Q 2419 397 2687 759 
Q 2956 1122 2956 1747 
Q 2956 2369 2687 2733 
Q 2419 3097 1959 3097 
z
M 1959 3584 
Q 2709 3584 3137 3096 
Q 3566 2609 3566 1747 
Q 3566 888 3137 398 
Q 2709 -91 1959 -91 
Q 1206 -91 779 398 
Q 353 888 353 1747 
Q 353 2609 779 3096 
Q 1206 3584 1959 3584 
z
" transform="scale(0.015625)"/>
       <path id="DejaVuSans-72" d="M 2631 2963 
Q 2534 3019 2420 3045 
Q 2306 3072 2169 3072 
Q 1681 3072 1420 2755 
Q 1159 2438 1159 1844 
L 1159 0 
L 581 0 
L 581 3500 
L 1159 3500 
L 1159 2956 
Q 1341 3275 1631 3429 
Q 1922 3584 2338 3584 
Q 2397 3584 2469 3576 
Q 2541 3569 2628 3553 
L 2631 2963 
z
" transform="scale(0.015625)"/>
       <path id="DejaVuSans-74" d="M 1172 4494 
L 1172 3500 
L 2356 3500 
L 2356 3053 
L 1172 3053 
L 1172 1153 
Q 1172 725 1289 603 
Q 1406 481 1766 481 
L 2356 481 
L 2356 0 
L 1766 0 
Q 1100 0 847 248 
Q 594 497 594 1153 
L 594 3053 
L 172 3053 
L 172 3500 
L 594 3500 
L 594 4494 
L 1172 4494 
z
" transform="scale(0.015625)"/>
       <path id="DejaVuSans-68" d="M 3513 2113 
L 3513 0 
L 2938 0 
L 2938 2094 
Q 2938 2591 2744 2837 
Q 2550 3084 2163 3084 
Q 1697 3084 1428 2787 
Q 1159 2491 1159 1978 
L 1159 0 
L 581 0 
L 581 4863 
L 1159 4863 
L 1159 2956 
Q 1366 3272 1645 3428 
Q 1925 3584 2291 3584 
Q 2894 3584 3203 3211 
Q 3513 2838 3513 2113 
z
" transform="scale(0.015625)"/>
       <path id="DejaVuSans-28" d="M 1984 4856 
Q 1566 4138 1362 3434 
Q 1159 2731 1159 2009 
Q 1159 1288 1364 580 
Q 1569 -128 1984 -844 
L 1484 -844 
Q 1016 -109 783 600 
Q 550 1309 550 2009 
Q 550 2706 781 3412 
Q 1013 4119 1484 4856 
L 1984 4856 
z
" transform="scale(0.015625)"/>
       <path id="DejaVuSans-29" d="M 513 4856 
L 1013 4856 
Q 1481 4119 1714 3412 
Q 1947 2706 1947 2009 
Q 1947 1309 1714 600 
Q 1481 -109 1013 -844 
L 513 -844 
Q 928 -128 1133 580 
Q 1338 1288 1338 2009 
Q 1338 2731 1133 3434 
Q 928 4138 513 4856 
z
" transform="scale(0.015625)"/>
      </defs>
      <use xlink:href="#DejaVuSans-4e"/>
      <use xlink:href="#DejaVuSans-6f" x="74.804688"/>
      <use xlink:href="#DejaVuSans-72" x="135.986328"/>
      <use xlink:href="#DejaVuSans-74" x="177.099609"/>
      <use xlink:href="#DejaVuSans-68" x="216.308594"/>
      <use xlink:href="#DejaVuSans-28" x="279.6875"/>
      <use xlink:href="#DejaVuSans-6d" x="318.701172"/>
      <use xlink:href="#DejaVuSans-29" x="416.113281"/>
     </g>
    </g>
   </g>
   <g id="line2d_15">
    <path d="M 288.409091 285.639767 
L 289.339184 275.892243 
L 291.19937 272.847499 
L 292.129463 266.273262 
L 295.384788 265.62275 
L 295.849835 262.181201 
L 296.779928 257.236697 
L 298.175068 250.624117 
L 298.640114 246.795516 
L 300.035254 241.217079 
L 300.965347 241.173769 
L 305.150765 240.450879 
L 327.472997 238.306454 
L 337.70402 235.108187 
L 339.564206 236.161397 
L 340.959346 231.101673 
L 341.424392 221.964471 
L 348.40009 211.005208 
L 353.515602 197.055138 
L 357.235974 190.928441 
L 359.09616 182.638251 
L 360.026253 168.130072 
L 365.141764 158.661288 
L 365.606811 158.11568 
L 369.327183 158.187275 
L 372.582508 147.356048 
L 373.047555 144.600986 
L 374.907741 147.184071 
L 377.232973 143.467091 
L 383.278578 141.463834 
L 386.99895 124.597835 
L 387.463996 128.458004 
L 387.929043 125.36151 
L 388.394089 116.628117 
L 388.859136 118.912449 
L 389.789229 116.639987 
L 390.254275 114.068772 
L 390.719322 117.3577 
L 391.184368 122.212617 
L 391.649415 120.320982 
L 392.114461 129.007151 
L 392.579508 128.740598 
L 393.044554 137.787897 
L 393.509601 141.493766 
L 393.974647 148.17731 
L 394.439694 144.828025 
L 394.90474 146.114328 
L 395.369787 146.484675 
L 396.29988 153.683018 
L 396.764926 163.73163 
L 397.69502 172.302895 
L 398.160066 182.010076 
L 398.625113 185.748775 
L 399.090159 183.88997 
L 402.345485 174.375224 
L 402.810531 161.886085 
L 405.60081 152.722619 
L 406.065857 141.300454 
L 406.530903 138.693126 
L 407.460996 129.558576 
L 407.926043 134.292022 
L 408.391089 134.389881 
L 408.856136 131.464103 
L 409.321182 123.929002 
L 410.251275 111.820691 
L 411.181368 105.079443 
L 411.646415 104.543684 
L 412.111461 103.380874 
L 412.576508 107.506966 
L 413.041554 105.720386 
L 413.971647 112.400016 
L 414.436694 112.366555 
L 414.90174 111.719175 
L 415.366787 113.136797 
L 415.831833 105.250415 
L 416.29688 108.739607 
L 416.761926 109.723874 
L 417.226973 105.839461 
L 417.692019 106.521693 
L 418.157066 103.684556 
L 418.622112 104.649125 
L 419.087159 112.235492 
L 419.552205 117.339916 
L 420.017252 115.727335 
L 420.947345 116.435831 
L 421.877438 119.356433 
L 422.342484 118.883051 
L 423.272577 105.618496 
L 423.737624 103.900859 
L 424.667717 97.944247 
L 425.132763 93.800478 
L 425.59781 95.969906 
L 426.062856 97.026399 
L 426.527903 100.558269 
L 426.992949 100.692241 
L 427.457996 101.948996 
L 427.923042 104.538647 
L 428.388089 104.879448 
L 428.853135 99.770479 
L 429.318182 96.030518 
L 429.783228 96.459959 
L 430.248275 100.431751 
L 432.108461 98.484304 
L 433.038554 99.865814 
L 433.968647 105.160651 
L 434.433693 111.463368 
L 434.89874 119.410864 
L 435.363786 115.533018 
L 435.828833 110.286163 
L 436.293879 115.246136 
L 436.758926 112.711034 
L 437.223972 108.488473 
L 437.689019 106.288237 
L 438.154065 106.799753 
L 438.619112 109.898268 
L 439.084158 114.927183 
L 440.014251 107.315942 
L 440.479298 108.080248 
L 440.944344 104.428929 
L 441.874437 91.729048 
L 442.339484 86.593815 
L 442.80453 86.895219 
L 443.269577 87.429716 
L 443.734623 90.423176 
L 444.19967 88.945198 
L 444.664716 94.732484 
L 445.129763 95.004342 
L 445.594809 99.399639 
L 446.059856 98.056264 
L 446.524902 100.284785 
L 446.989949 98.084549 
L 447.454995 101.363628 
L 447.920042 98.657811 
L 448.385089 103.657179 
L 448.850135 97.527199 
L 449.315182 101.265898 
L 449.780228 100.40184 
L 450.245275 96.569955 
L 450.710321 90.75186 
L 451.175368 88.374341 
L 451.640414 86.610743 
L 452.105461 89.101904 
L 452.570507 87.843887 
L 453.035554 85.551726 
L 453.5006 82.517609 
L 453.965647 81.505816 
L 454.89574 74.390308 
L 455.825833 61.306317 
L 456.755926 57.736044 
L 457.686019 57.457585 
L 458.151065 57.553387 
L 460.941344 57.808199 
L 461.871437 55.8 
L 462.336484 56.47729 
L 462.80153 58.267514 
L 463.266577 60.853251 
L 463.731623 60.935092 
L 464.661716 63.428905 
L 465.591809 68.894026 
L 466.056856 74.345419 
L 466.521902 83.033844 
L 466.986949 88.833235 
L 467.451995 99.28791 
L 467.917042 105.577494 
L 468.847135 110.769928 
L 469.312181 110.933447 
L 469.777228 103.483704 
L 470.242274 101.178411 
L 470.707321 100.081261 
L 471.172367 102.185028 
L 471.637414 105.231015 
L 473.032553 117.409029 
L 473.4976 123.639519 
L 473.962646 121.941581 
L 474.427693 119.258744 
L 474.892739 128.411099 
L 475.357786 130.652753 
L 475.822832 135.094012 
L 476.287879 137.595022 
L 476.752925 135.946328 
L 477.217972 141.628559 
L 477.683018 144.638433 
L 478.148065 138.08823 
L 479.078158 131.087626 
L 479.543204 132.137553 
L 480.473297 126.863804 
L 480.938344 128.005654 
L 481.40339 132.588082 
L 481.868437 140.571692 
L 482.333483 143.581566 
L 482.79853 144.972924 
L 483.728623 148.409587 
L 484.193669 145.684072 
L 484.658716 144.82658 
L 485.123762 136.60205 
L 485.588809 124.572531 
L 486.053855 120.537101 
L 486.518902 117.581776 
L 486.983948 117.554881 
L 487.448995 121.812292 
L 487.914041 119.733527 
L 488.379088 125.287721 
L 488.844134 128.343557 
L 489.309181 127.758553 
L 490.239274 132.685064 
L 490.70432 137.54983 
L 491.169367 144.949066 
L 491.634413 140.700241 
L 492.09946 143.496721 
L 492.564506 148.29911 
L 493.029553 147.64188 
L 493.494599 149.972174 
L 493.959646 142.998465 
L 494.424692 137.823837 
L 494.889739 139.536928 
L 495.819832 132.940132 
L 496.749925 128.966448 
L 497.214971 133.548876 
L 497.680018 135.022309 
L 498.145065 135.638881 
L 498.610111 140.293535 
L 499.075158 139.820153 
L 499.540204 141.815582 
L 500.005251 140.619942 
L 500.470297 138.882607 
L 500.935344 132.746061 
L 501.40039 131.694872 
L 501.865437 131.700807 
L 502.330483 134.073781 
L 502.79553 133.541305 
L 503.260576 131.593859 
L 503.725623 133.540043 
L 504.190669 138.168433 
L 504.655716 139.467867 
L 505.120762 138.94524 
L 505.585809 134.532266 
L 506.050855 133.914433 
L 506.515902 133.864557 
L 506.980948 133.043177 
L 507.445995 131.867235 
L 507.911041 128.140406 
L 508.376088 128.018304 
L 508.841134 126.996663 
L 509.306181 124.189072 
L 509.771227 124.77938 
L 510.236274 119.069623 
L 510.70132 115.06374 
L 511.166367 112.535204 
L 511.631413 121.740087 
L 512.09646 133.837287 
L 512.561506 142.937114 
L 513.026553 148.126896 
L 513.491599 151.560276 
L 513.956646 160.427011 
L 514.421692 172.048177 
L 514.886739 172.677881 
L 515.351785 173.583356 
L 516.281878 183.158586 
L 517.211971 197.103481 
L 517.677018 199.916375 
L 518.142064 204.160655 
L 518.607111 203.844857 
L 519.072157 205.44961 
L 519.537204 208.938801 
L 520.00225 214.397788 
L 520.467297 217.023552 
L 520.932343 220.690025 
L 521.39739 222.163458 
L 521.862436 230.580422 
L 522.327483 232.516757 
L 522.792529 231.285004 
L 523.257576 231.625804 
L 523.722622 229.189192 
L 524.652715 227.336953 
L 525.117762 224.135403 
L 525.582808 216.777584 
L 526.512901 219.777609 
L 526.977948 217.01598 
L 527.442994 221.365316 
L 527.908041 220.264882 
L 528.838134 224.685812 
L 529.30318 224.432391 
L 529.768227 224.799455 
L 530.233273 229.943275 
L 530.69832 225.848751 
L 531.163366 227.456787 
L 531.628413 225.483077 
L 532.093459 218.469972 
L 532.558506 221.837693 
L 533.488599 213.172611 
L 533.953645 218.506844 
L 534.418692 220.262615 
L 534.883738 218.544978 
L 535.813831 230.178645 
L 536.278878 224.025685 
L 536.743924 229.812971 
L 537.208971 225.396714 
L 537.674017 219.424318 
L 538.139064 222.040233 
L 538.60411 222.482806 
L 539.069157 218.877448 
L 539.534203 225.981215 
L 539.99925 223.580716 
L 540.464296 219.512456 
L 540.929343 217.98195 
L 541.394389 218.099507 
L 541.859436 213.574911 
L 542.324482 213.699034 
L 542.789529 212.552638 
L 543.719622 214.827122 
L 544.184668 225.368183 
L 544.649715 232.380026 
L 545.114761 233.518594 
L 545.579808 241.157489 
L 546.044854 241.298026 
L 547.439994 245.052509 
L 547.905041 240.856213 
L 548.370087 237.81553 
L 549.30018 247.407175 
L 549.765227 244.691508 
L 550.230273 248.20368 
L 550.69532 248.725045 
L 551.160366 249.033016 
L 551.625413 251.557007 
L 552.090459 248.345608 
L 552.555506 247.61287 
L 553.020552 254.476978 
L 553.485599 257.831567 
L 553.950645 254.781035 
L 554.415692 258.716713 
L 555.345785 269.1882 
L 555.810831 269.92296 
L 556.275878 272.368159 
L 556.740924 273.342577 
L 557.205971 278.545491 
L 557.671017 274.043876 
L 558.136064 277.122693 
L 558.60111 271.747802 
L 559.066157 269.396547 
L 559.531203 265.715681 
L 559.99625 259.69404 
L 560.461296 262.326369 
L 560.926343 263.661917 
L 561.391389 261.901601 
L 561.856436 273.201034 
L 562.786529 282.195174 
L 563.251575 294.059282 
L 563.716622 298.523522 
L 564.181668 306.086908 
L 564.646715 307.8 
L 565.111761 303.738306 
L 565.576808 297.023953 
L 566.041854 295.44092 
L 566.971947 290.952437 
L 567.436994 284.592647 
L 567.90204 282.924256 
L 570.227273 283.810033 
L 570.692319 281.012291 
L 571.157366 284.120655 
L 571.622412 282.45883 
L 573.482598 260.673644 
L 573.947645 259.051214 
L 574.412691 256.873959 
L 574.877738 255.261378 
L 575.342784 254.197057 
L 575.807831 256.038185 
L 576.272877 253.414443 
L 576.737924 255.587153 
L 577.20297 252.815676 
L 577.668017 249.328506 
L 578.59811 238.47695 
L 579.063156 237.612892 
L 579.993249 227.421218 
L 580.458296 226.626103 
L 580.923342 229.731184 
L 581.388389 238.548674 
L 581.853435 244.056906 
L 582.318482 242.887529 
L 582.783528 245.037259 
L 583.248575 248.247396 
L 583.713621 245.889575 
L 584.178668 242.448367 
L 584.643714 232.29672 
L 585.108761 233.858794 
L 586.038854 233.706515 
L 586.5039 230.117572 
L 587.89904 237.863544 
L 588.829133 235.095349 
L 589.294179 236.943044 
L 589.759226 243.846548 
L 590.689319 250.138785 
L 591.154365 250.666716 
L 593.014551 248.725836 
L 593.944644 238.090958 
L 594.874737 219.494821 
L 595.339784 213.663593 
L 596.269877 209.129148 
L 596.734923 211.29201 
L 597.19997 212.230315 
L 597.665017 211.999875 
L 598.130063 207.179809 
L 598.59511 213.108265 
L 599.060156 213.281632 
L 599.525203 215.477324 
L 599.990249 212.886411 
L 600.455296 207.504954 
L 600.920342 204.900909 
L 601.385389 214.424242 
L 601.850435 209.70595 
L 602.780528 206.826133 
L 603.245575 203.870808 
L 603.710621 210.882652 
L 604.175668 223.363962 
L 604.640714 226.327874 
L 605.570807 217.95561 
L 606.035854 217.016043 
L 606.5009 218.496042 
L 606.965947 216.243277 
L 607.430993 211.620191 
L 607.89604 201.45213 
L 608.361086 196.152747 
L 608.826133 180.787707 
L 609.756226 184.487009 
L 610.221272 182.096359 
L 610.686319 184.512011 
L 611.151365 181.218538 
L 612.546505 184.703815 
L 613.011551 205.024914 
L 613.476598 210.441222 
L 613.941644 211.418923 
L 614.406691 217.327681 
L 615.80183 229.289016 
L 616.266877 231.553651 
L 616.731923 226.362607 
L 617.19697 229.920741 
L 618.127063 220.264195 
L 619.522202 195.826982 
L 619.987249 201.633966 
L 620.452295 197.030579 
L 620.917342 190.900599 
L 621.382388 191.287361 
L 621.847435 204.448251 
L 622.312481 214.001131 
L 623.242574 225.884937 
L 623.707621 221.452265 
L 624.172667 228.654521 
L 624.637714 227.517975 
L 625.10276 228.843673 
L 625.567807 222.214678 
L 626.032853 219.873273 
L 626.4979 210.952749 
L 627.427993 200.248928 
L 627.893039 209.647507 
L 628.358086 210.605511 
L 629.288179 213.067125 
L 629.753225 212.367216 
L 630.218272 218.220163 
L 630.683318 222.031087 
L 631.148365 228.327238 
L 631.613411 226.054775 
L 632.078458 230.102075 
L 632.543504 232.737688 
L 633.008551 241.016767 
L 633.473597 235.270897 
L 633.938644 235.096268 
L 634.40369 230.171147 
L 634.868737 231.207942 
L 635.333783 235.741125 
L 636.263876 236.994597 
L 636.728923 235.306508 
L 637.193969 244.32426 
L 638.124062 258.272437 
L 638.589109 261.794458 
L 639.054155 261.245568 
L 639.519202 255.033513 
L 639.984248 246.001367 
L 640.449295 232.524048 
L 640.914341 229.831362 
L 641.379388 225.500463 
L 641.844434 228.749995 
L 642.309481 226.59572 
L 643.239574 245.061297 
L 644.169667 259.899797 
L 644.634713 261.228778 
L 645.09976 268.861107 
L 646.494899 269.979977 
L 646.959946 271.827671 
L 647.424992 268.675367 
L 647.890039 268.740396 
L 648.355086 266.116653 
L 648.820132 267.330729 
L 649.285179 264.441064 
L 649.750225 260.080618 
L 650.215272 258.077361 
L 650.680318 258.470689 
L 651.145365 262.734667 
L 651.610411 264.667719 
L 652.075458 265.5141 
L 652.540504 269.019707 
L 653.005551 269.422884 
L 653.470597 267.564079 
L 653.935644 263.338235 
L 654.865737 252.470895 
L 655.330783 243.9115 
L 655.79583 238.057292 
L 656.260876 226.50709 
L 656.725923 222.061286 
L 657.190969 224.342335 
L 657.656016 224.77506 
L 658.586109 224.232104 
L 659.051155 221.654323 
L 659.981248 223.689148 
L 660.446295 221.003028 
L 660.911341 216.173114 
L 661.376388 212.876357 
L 661.841434 213.555306 
L 662.306481 216.991969 
L 662.771527 218.724759 
L 663.236574 222.962473 
L 663.70162 225.299333 
L 664.166667 223.141775 
L 664.631713 227.645412 
L 665.561806 222.174683 
L 666.026853 222.551596 
L 667.887039 220.065739 
L 668.817132 214.14524 
L 669.282178 208.17941 
L 669.747225 208.782849 
L 670.212271 211.654838 
L 671.142364 212.337069 
L 671.607411 210.951015 
L 672.072457 211.432984 
L 673.00255 221.878208 
L 673.467597 229.914345 
L 674.39769 232.920936 
L 674.862736 230.868434 
L 675.327783 231.652439 
L 675.792829 234.031978 
L 676.257876 238.749009 
L 677.187969 229.683402 
L 678.118062 233.500261 
L 679.048155 227.081378 
L 679.513201 231.568599 
L 679.978248 233.534481 
L 680.443294 242.158274 
L 680.908341 253.260727 
L 681.838434 247.032258 
L 682.30348 247.793281 
L 683.233573 259.073016 
L 684.163666 252.587842 
L 684.628713 254.297651 
L 685.093759 244.753358 
L 685.558806 246.413921 
L 686.023852 246.771137 
L 686.953945 246.526933 
L 687.418992 246.831621 
L 688.349085 244.175048 
L 689.744224 254.714847 
L 690.209271 249.62886 
L 690.674317 248.889555 
L 691.139364 247.155504 
L 692.069457 248.930341 
L 692.534503 248.351903 
L 692.99955 246.237025 
L 693.464596 252.858192 
L 693.929643 257.739372 
L 694.394689 261.287657 
L 694.859736 261.270611 
L 695.789829 250.799883 
L 696.254875 252.33241 
L 696.719922 248.241169 
L 697.184968 245.197203 
L 698.115062 244.44805 
L 698.580108 235.540657 
L 699.045155 231.048891 
L 699.510201 241.511161 
L 699.975248 234.718016 
L 700.440294 234.280747 
L 701.370387 235.278146 
L 701.835434 229.443636 
L 702.30048 232.614376 
L 702.765527 234.350449 
L 703.230573 224.500838 
L 703.69562 224.316359 
L 704.160666 217.749741 
L 704.625713 217.58496 
L 705.090759 218.152287 
L 706.020852 219.795805 
L 706.485899 228.419598 
L 706.950945 243.908131 
L 707.415992 255.404543 
L 707.881038 259.445277 
L 708.346085 260.836635 
L 709.276178 265.474874 
L 709.741224 271.82027 
L 711.136364 249.040968 
L 711.60141 254.378484 
L 712.066457 262.345679 
L 712.531503 262.463236 
L 712.99655 265.66024 
L 713.926643 278.239409 
L 714.391689 284.968915 
L 714.856736 275.874392 
L 715.321782 269.842902 
L 715.786829 270.167288 
L 716.716922 256.768129 
L 717.647015 241.714342 
L 718.112061 248.122115 
L 718.577108 246.844399 
L 719.042154 247.989533 
L 719.972247 262.889779 
L 721.367387 280.977811 
L 721.832433 283.124258 
L 722.29748 290.39874 
L 722.762526 289.176836 
L 723.227573 290.079028 
L 724.157666 288.505843 
L 724.622712 281.666737 
L 725.087759 281.991122 
L 725.552805 278.707498 
L 726.017852 281.763334 
L 726.482898 286.555873 
L 726.947945 289.595294 
L 727.412991 289.492891 
L 728.343084 296.523801 
L 728.808131 293.84753 
L 729.273177 288.692599 
L 729.738224 287.319677 
L 730.20327 281.977616 
L 730.668317 282.850261 
L 731.133363 284.274449 
L 731.59841 283.305335 
L 732.063456 279.299452 
L 732.528503 278.146491 
L 732.993549 273.749931 
L 733.458596 273.164928 
L 733.923642 273.577954 
L 734.388689 270.51429 
L 734.853735 265.602301 
L 735.318782 272.2366 
L 736.248875 282.350241 
L 736.713921 284.056766 
L 737.178968 286.721926 
L 737.644014 288.018078 
L 738.109061 288.099522 
L 738.574107 287.031918 
L 739.5042 275.225011 
L 739.969247 266.393128 
L 740.434293 267.045813 
L 741.364386 264.753652 
L 742.294479 260.829213 
L 742.759526 263.389317 
L 743.689619 271.569275 
L 744.619712 259.657313 
L 745.084758 258.609407 
L 745.549805 263.795905 
L 746.014851 261.621933 
L 746.479898 250.239163 
L 746.944944 243.633149 
L 747.409991 239.640398 
L 747.875038 239.666031 
L 748.340084 238.539334 
L 748.805131 232.012112 
L 749.270177 228.876222 
L 749.735224 236.626739 
L 750.20027 241.393014 
L 750.665317 250.581482 
L 751.130363 252.5211 
L 751.59541 252.113378 
L 752.060456 249.594691 
L 752.990549 260.883644 
L 753.455596 259.536986 
L 753.920642 254.753033 
L 754.850735 259.778034 
L 755.315782 263.405111 
L 755.780828 261.76955 
L 756.245875 258.256116 
L 756.710921 266.67308 
L 757.175968 256.248945 
L 757.641014 253.822182 
L 758.106061 255.63048 
L 759.036154 240.54058 
L 759.5012 239.138111 
L 759.966247 227.121724 
L 760.431293 231.956942 
L 760.89634 230.777716 
L 761.361386 227.09685 
L 761.826433 232.765949 
L 762.291479 231.48495 
L 762.756526 225.972173 
L 763.221572 227.609756 
L 764.151665 225.133748 
L 764.616712 224.68663 
L 765.081758 225.936819 
L 765.546805 223.290096 
L 766.476898 231.282923 
L 766.941944 238.110919 
L 767.406991 242.200898 
L 767.872037 241.550234 
L 768.337084 236.572585 
L 768.80213 236.542407 
L 769.267177 234.076248 
L 769.732223 233.704639 
L 770.19727 227.991599 
L 770.662316 230.876719 
L 772.057456 231.122313 
L 773.452595 240.027181 
L 773.917642 240.095493 
L 774.382688 239.34634 
L 774.847735 236.903162 
L 775.312781 231.137594 
L 775.777828 226.809978 
L 776.707921 215.587444 
L 777.172967 212.799552 
L 777.638014 212.64462 
L 778.10306 215.306497 
L 778.568107 223.359049 
L 779.4982 241.762249 
L 779.963246 248.14704 
L 780.428293 251.49178 
L 781.358386 249.136611 
L 782.753525 237.887183 
L 783.683618 235.532014 
L 784.148665 235.843268 
L 784.613711 230.215586 
L 785.078758 232.6772 
L 785.543804 225.831528 
L 786.473897 228.95959 
L 786.938944 227.829609 
L 787.40399 229.61821 
L 787.869037 227.493482 
L 788.334083 224.190159 
L 788.79913 219.304434 
L 789.264176 219.405576 
L 789.729223 212.996542 
L 790.194269 208.160061 
L 790.659316 202.102307 
L 791.124362 203.168649 
L 791.589409 206.913914 
L 792.054455 200.580389 
L 792.519502 202.930381 
L 792.984548 203.28103 
L 793.449595 202.745271 
L 793.914641 199.395987 
L 794.379688 204.122867 
L 794.844734 201.160976 
L 795.309781 209.758505 
L 796.239874 211.133448 
L 796.70492 214.304189 
L 797.169967 216.046827 
L 797.635014 215.964122 
L 798.10006 216.29179 
L 798.565107 225.693653 
L 799.030153 223.266889 
L 799.4952 223.643803 
L 799.960246 223.876264 
L 800.425293 227.805377 
L 800.890339 240.240725 
L 801.355386 235.781789 
L 801.820432 228.965663 
L 802.285479 237.750323 
L 802.750525 239.28285 
L 803.215572 243.448338 
L 803.680618 244.409624 
L 804.145665 241.838409 
L 804.610711 246.243556 
L 805.075758 248.609963 
L 805.540804 245.050567 
L 806.005851 243.894322 
L 806.470897 238.699996 
L 807.40099 232.316594 
L 807.866037 233.162976 
L 808.331083 236.149869 
L 808.79613 237.915489 
L 809.261176 243.154515 
L 809.726223 242.786189 
L 810.191269 245.85844 
L 810.656316 253.313487 
L 811.121362 255.581405 
L 811.586409 256.312881 
L 812.051455 258.180274 
L 812.516502 253.882204 
L 812.981548 261.06148 
L 813.446595 266.415412 
L 813.911641 263.922989 
L 814.376688 263.275608 
L 814.841734 267.411549 
L 815.306781 260.158785 
L 815.771827 262.472665 
L 816.236874 256.106309 
L 816.70192 254.401805 
L 817.166967 254.095855 
L 817.632013 253.284325 
L 818.09706 247.75185 
L 818.562106 252.124167 
L 819.027153 248.610733 
L 819.492199 251.94234 
L 819.957246 250.008026 
L 820.422292 252.141341 
L 820.887339 252.367236 
L 821.352385 252.753999 
L 821.817432 253.383702 
L 822.282478 255.947089 
L 822.747525 256.120457 
L 823.212571 257.905775 
L 823.677618 256.263647 
L 824.142664 258.48232 
L 824.607711 262.962975 
L 826.467897 243.781203 
L 826.932943 242.861334 
L 827.39799 237.939496 
L 827.863036 234.616475 
L 828.328083 238.253401 
L 828.793129 245.770825 
L 829.258176 247.730141 
L 830.188269 249.715091 
L 830.653315 247.544401 
L 831.118362 244.690849 
L 831.583408 238.830074 
L 832.048455 234.660042 
L 832.513501 231.855734 
L 832.978548 228.316036 
L 833.908641 226.443468 
L 834.373687 224.108629 
L 834.838734 223.451399 
L 835.30378 218.483599 
L 835.768827 211.470494 
L 836.233873 214.654367 
L 836.69892 207.746317 
L 837.163966 210.28344 
L 837.629013 210.50277 
L 839.024152 233.097721 
L 839.489199 230.785863 
L 839.954245 226.106966 
L 840.419292 226.145731 
L 840.884338 235.209445 
L 841.349385 229.368369 
L 841.814431 229.807659 
L 842.279478 235.200987 
L 842.744524 231.523403 
L 843.209571 236.240434 
L 844.139664 230.809101 
L 844.60471 234.948324 
L 845.069757 237.889256 
L 845.534803 231.30294 
L 845.99985 238.239274 
L 846.929943 247.945824 
L 847.394989 242.426481 
L 847.860036 239.655003 
L 848.325083 234.129094 
L 848.790129 233.800164 
L 850.185269 239.569774 
L 850.650315 242.36297 
L 851.115362 242.493659 
L 851.580408 249.892896 
L 852.045455 253.270465 
L 852.510501 248.145081 
L 852.975548 247.290872 
L 853.440594 247.46424 
L 853.905641 244.167483 
L 854.370687 248.635006 
L 854.835734 247.035558 
L 855.30078 247.458433 
L 855.765827 257.221425 
L 856.230873 259.600964 
L 856.69592 256.662054 
L 857.160966 256.46116 
L 857.626013 253.821003 
L 858.091059 256.863707 
L 858.556106 257.841408 
L 859.021152 250.132308 
L 859.951245 247.409444 
L 860.416292 255.383205 
L 860.881338 255.566421 
L 861.346385 253.740446 
L 861.811431 253.171857 
L 862.276478 257.639381 
L 862.741524 258.246103 
L 863.206571 263.862674 
L 863.671617 264.659811 
L 864.136664 263.280323 
L 864.60171 267.147058 
L 865.531803 263.912047 
L 865.99685 264.170773 
L 866.461896 263.923918 
L 866.926943 260.357956 
L 867.391989 265.820226 
L 867.857036 264.962734 
L 868.322082 263.596377 
L 868.787129 267.006777 
L 869.252175 267.96478 
L 869.717222 269.185423 
L 870.182268 269.046906 
L 870.647315 270.231436 
L 871.112361 270.427784 
L 871.577408 273.788939 
L 872.042454 267.727902 
L 872.507501 269.129109 
L 872.972547 266.085143 
L 873.90264 273.989329 
L 874.367687 270.617064 
L 874.832733 273.390563 
L 875.29778 280.957232 
L 875.762826 276.005847 
L 876.227873 277.223206 
L 876.692919 278.102418 
L 877.157966 278.679594 
L 877.623012 277.234445 
L 878.088059 276.491858 
L 878.553105 270.191163 
L 879.018152 276.477464 
L 879.483198 278.627194 
L 879.948245 271.948954 
L 880.413291 262.690282 
L 880.878338 267.929308 
L 881.343384 269.218894 
L 882.273477 269.645052 
L 882.738524 264.171671 
L 883.20357 262.083056 
L 883.668617 267.965549 
L 884.133663 275.794858 
L 884.59871 275.196722 
L 885.063756 277.520451 
L 885.528803 281.666241 
L 885.993849 290.963047 
L 886.458896 292.24935 
L 886.923942 301.099669 
L 888.319082 296.19955 
L 888.784128 295.844356 
L 889.249175 295.902819 
L 889.714221 295.353928 
L 890.179268 289.411079 
L 890.644314 289.594295 
L 891.109361 281.596292 
L 891.574407 280.840573 
L 896.689919 282.799889 
L 897.154965 277.454545 
L 897.620012 276.567505 
L 898.085059 271.632535 
L 898.550105 263.805248 
L 899.015152 271.884064 
L 899.945245 265.071221 
L 900.410291 257.98589 
L 900.875338 252.689791 
L 901.340384 250.686534 
L 901.805431 245.200021 
L 902.270477 254.381923 
L 902.735524 253.62292 
L 903.20057 256.987358 
L 903.665617 257.272347 
L 904.130663 259.389247 
L 904.59571 263.886317 
L 905.060756 265.441825 
L 905.525803 257.512765 
L 905.990849 256.320407 
L 906.920942 252.783362 
L 907.385989 253.570649 
L 907.851035 245.595627 
L 908.781128 257.045446 
L 909.246175 256.67712 
L 909.711221 258.1801 
L 910.176268 263.481504 
L 910.641314 260.890591 
L 911.106361 265.66015 
L 911.571407 263.765231 
L 912.5015 258.530878 
L 912.966547 257.056183 
L 913.431593 252.016157 
L 914.361686 247.85269 
L 915.756826 229.127885 
L 916.221872 228.654503 
L 916.686919 221.198194 
L 917.151965 224.844969 
L 917.617012 230.753726 
L 918.082058 231.242261 
L 918.547105 232.331584 
L 919.012151 241.378883 
L 919.477198 244.329664 
L 919.942244 253.442623 
L 920.407291 255.415071 
L 921.337384 257.66329 
L 924.592709 260.390827 
L 925.057756 261.887241 
L 925.987849 248.806533 
L 926.917942 240.975332 
L 927.382988 229.310225 
L 928.313081 221.278761 
L 928.778128 226.251865 
L 929.243174 229.301135 
L 929.708221 234.664915 
L 930.173267 237.336641 
L 931.568407 256.359696 
L 932.033453 253.712972 
L 932.4985 252.605972 
L 932.963546 248.678881 
L 933.893639 245.302702 
L 934.358686 249.277776 
L 934.823732 247.596252 
L 935.288779 251.568044 
L 935.753825 260.789342 
L 936.218872 259.757851 
L 936.683918 257.002788 
L 937.148965 262.074382 
L 937.614011 254.158454 
L 938.079058 253.547186 
L 938.544104 251.077744 
L 939.009151 243.509813 
L 939.939244 251.496705 
L 940.40429 254.240657 
L 940.869337 250.4613 
L 941.334383 251.855942 
L 941.79943 251.760104 
L 942.264476 253.039841 
L 942.729523 253.955165 
L 943.194569 249.013629 
L 943.659616 252.328821 
L 944.124662 253.946706 
L 944.589709 258.095779 
L 945.054755 258.357787 
L 945.519802 253.002594 
L 946.449895 259.019059 
L 946.914941 259.185861 
L 947.379988 262.258112 
L 947.845035 261.738768 
L 948.310081 257.470245 
L 948.775128 262.807762 
L 949.240174 256.159069 
L 959.471197 251.381683 
L 959.936244 247.49727 
L 960.40129 249.758622 
L 960.866337 249.672633 
L 961.331383 252.593866 
L 961.79643 252.560406 
L 962.726523 267.877591 
L 963.656616 264.603816 
L 964.121662 259.406206 
L 964.586709 248.384566 
L 965.051755 241.338631 
L 965.516802 236.466038 
L 965.981848 233.008415 
L 966.911941 221.030792 
L 967.376988 211.332199 
L 967.842034 214.154942 
L 968.307081 217.919905 
L 968.772127 218.82538 
L 969.237174 224.074256 
L 969.70222 227.113677 
L 970.167267 240.714488 
L 970.632313 258.248325 
L 971.09736 266.98374 
L 971.562406 273.361965 
L 972.027453 273.820954 
L 972.492499 267.825577 
L 972.957546 259.528821 
L 973.422592 256.01867 
L 973.887639 248.910358 
L 974.352685 246.30303 
L 976.212871 246.739037 
L 978.073057 234.597897 
L 978.538104 222.38453 
L 979.00315 215.512593 
L 979.468197 201.470599 
L 979.933243 191.706346 
L 980.39829 176.177155 
L 980.863336 170.887622 
L 981.328383 169.951338 
L 981.793429 177.93823 
L 982.258476 178.604047 
L 982.723522 180.254762 
L 983.188569 176.596876 
L 983.653615 175.374971 
L 984.583708 158.896996 
L 985.048755 155.308053 
L 985.513801 145.208934 
L 985.978848 139.338311 
L 986.443894 126.960794 
L 986.908941 119.668635 
L 987.373987 121.250407 
L 987.839034 128.199873 
L 988.769127 133.618833 
L 989.234173 133.713409 
L 989.69922 136.716717 
L 991.094359 140.947865 
L 991.559406 133.636008 
L 992.024452 129.091714 
L 992.954545 118.877059 
L 993.884638 128.488402 
L 994.349685 128.576412 
L 994.814731 135.693311 
L 995.279778 139.438576 
L 995.744824 149.779374 
L 996.209871 155.901526 
L 996.674917 158.07752 
L 997.139964 163.756468 
L 997.605011 166.267327 
L 998.070057 162.225331 
L 998.535104 162.283794 
L 999.00015 154.554996 
L 999.465197 144.288444 
L 999.930243 137.423074 
L 1000.39529 126.470377 
L 1000.860336 125.373226 
L 1001.325383 126.449417 
L 1001.790429 121.609654 
L 1002.255476 123.155313 
L 1002.720522 127.609704 
L 1003.185569 129.923583 
L 1003.650615 138.291303 
L 1004.115662 137.551998 
L 1004.580708 137.374086 
L 1005.045755 141.473914 
L 1005.975848 144.253347 
L 1006.440894 142.190996 
L 1006.905941 132.846966 
L 1007.370987 133.056447 
L 1007.836034 136.94288 
L 1008.30108 135.977049 
L 1008.766127 133.747265 
L 1009.231173 129.134029 
L 1009.69622 135.77161 
L 1010.161266 146.457123 
L 1010.626313 140.140013 
L 1011.091359 138.616073 
L 1011.556406 142.683071 
L 1012.021452 150.798 
L 1012.486499 156.84136 
L 1012.951545 156.134886 
L 1013.416592 157.306283 
L 1013.881638 163.116551 
L 1014.346685 163.811914 
L 1015.276778 159.00435 
L 1015.741824 163.787041 
L 1016.671917 156.280856 
L 1017.136964 156.821919 
L 1017.60201 155.2553 
L 1018.067057 160.2678 
L 1018.532103 162.706433 
L 1018.99715 162.590897 
L 1019.462196 170.108322 
L 1019.927243 174.093245 
L 1020.857336 179.607412 
L 1021.787429 173.23386 
L 1022.252475 172.96074 
L 1022.717522 173.242447 
L 1023.647615 167.381041 
L 1024.112661 168.030443 
L 1024.577708 171.664086 
L 1025.507801 173.935287 
L 1025.972847 172.56893 
L 1026.437894 167.958977 
L 1027.367987 176.047011 
L 1027.833033 177.36286 
L 1028.29808 176.676084 
L 1028.763126 175.450896 
L 1029.693219 185.485745 
L 1030.158266 173.817355 
L 1030.623312 171.446403 
L 1031.088359 168.139798 
L 1031.553405 172.722226 
L 1032.018452 172.419559 
L 1032.483498 171.131995 
L 1032.948545 167.703919 
L 1033.413591 176.875972 
L 1033.878638 181.911453 
L 1034.343684 190.889809 
L 1034.808731 189.152475 
L 1036.668917 208.1552 
L 1037.133963 208.804602 
L 1037.59901 203.570879 
L 1038.064056 194.24983 
L 1038.529103 192.505929 
L 1038.994149 180.325393 
L 1039.459196 174.211828 
L 1039.924242 170.695111 
L 1040.854335 168.7536 
L 1041.319382 177.262488 
L 1041.784428 179.379388 
L 1042.249475 184.552755 
L 1042.714521 186.515354 
L 1043.179568 190.526541 
L 1043.644614 188.231097 
L 1044.574707 174.776128 
L 1045.039754 176.564729 
L 1045.5048 175.231202 
L 1045.969847 179.180013 
L 1046.434893 175.239789 
L 1046.89994 173.338305 
L 1047.364986 179.401363 
L 1047.830033 182.792065 
L 1048.29508 172.161101 
L 1048.760126 174.845958 
L 1049.225173 166.601731 
L 1049.690219 160.412657 
L 1050.155266 151.403492 
L 1051.550405 160.039155 
L 1052.480498 159.503396 
L 1052.945545 161.06547 
L 1053.410591 165.040544 
L 1053.875638 179.665649 
L 1054.340684 176.808814 
L 1054.805731 178.137796 
L 1055.270777 179.880434 
L 1055.735824 178.36306 
L 1056.20087 182.37753 
L 1056.665917 178.585042 
L 1057.130963 179.920589 
L 1057.59601 181.719039 
L 1058.061056 179.256163 
L 1058.526103 179.104514 
L 1058.991149 177.294954 
L 1059.456196 170.652827 
L 1059.921242 181.781544 
L 1060.386289 176.249069 
L 1060.851335 187.686387 
L 1061.316382 189.639138 
L 1061.781428 194.014737 
L 1062.711521 207.798765 
L 1063.176568 209.774496 
L 1063.641614 214.146812 
L 1064.106661 205.587417 
L 1064.571707 210.137015 
L 1065.036754 212.490291 
L 1065.5018 209.685983 
L 1065.966847 210.712929 
L 1066.431893 207.800283 
L 1066.89694 212.369579 
L 1067.361986 219.062972 
L 1067.827033 223.395893 
L 1068.292079 217.223234 
L 1068.757126 221.976377 
L 1069.222172 222.789929 
L 1070.152265 219.794577 
L 1070.617312 216.501104 
L 1071.082358 208.995549 
L 1071.547405 213.735561 
L 1072.012451 206.236573 
L 1072.477498 206.28847 
L 1072.942544 204.327892 
L 1073.872637 197.140157 
L 1074.337684 197.178922 
L 1074.80273 200.819131 
L 1075.267777 201.468533 
L 1075.732823 200.207232 
L 1076.662916 207.77327 
L 1077.127963 206.351103 
L 1077.593009 207.588161 
L 1078.058056 205.135134 
L 1078.523102 213.8607 
L 1079.453195 223.685437 
L 1079.918242 225.946789 
L 1080.383288 224.291529 
L 1080.848335 219.468181 
L 1081.313381 216.174707 
L 1082.243474 201.262089 
L 1082.708521 194.830074 
L 1083.173567 191.21815 
L 1083.638614 200.478844 
L 1084.568707 210.454599 
L 1085.033753 210.099405 
L 1085.4988 212.577434 
L 1085.963846 213.919547 
L 1086.428893 211.486218 
L 1086.893939 207.916973 
L 1087.358986 201.62941 
L 1087.824032 197.84677 
L 1088.289079 203.453492 
L 1088.754125 205.07466 
L 1089.219172 203.251968 
L 1089.684218 199.410234 
L 1090.149265 196.743813 
L 1090.614311 202.780607 
L 1091.079358 204.739923 
L 1091.544404 198.271795 
L 1092.009451 200.204847 
L 1092.474497 200.135273 
L 1092.939544 203.9265 
L 1093.40459 204.162244 
L 1093.869637 202.759775 
L 1094.334683 206.321192 
L 1095.264776 205.549058 
L 1095.729823 198.962742 
L 1096.194869 197.662046 
L 1096.659916 195.494639 
L 1097.124962 192.483503 
L 1097.590009 190.979261 
L 1098.055056 185.351579 
L 1098.520102 184.838801 
L 1098.985149 189.342437 
L 1099.450195 190.100178 
L 1099.915242 200.142224 
L 1100.380288 197.472519 
L 1100.845335 198.36158 
L 1101.310381 198.649852 
L 1101.775428 199.893476 
L 1102.240474 199.085228 
L 1102.705521 199.005806 
L 1103.170567 194.356456 
L 1103.635614 198.722206 
L 1104.10066 199.013762 
L 1104.565707 195.753118 
L 1105.030753 195.965882 
L 1105.4958 193.217385 
L 1105.960846 193.912749 
L 1106.425893 192.165566 
L 1106.890939 195.776228 
L 1107.355986 192.10521 
L 1107.821032 195.85704 
L 1109.681218 214.994369 
L 1110.146265 214.406082 
L 1110.611311 220.836835 
L 1111.076358 224.890701 
L 1111.541404 225.599197 
L 1112.006451 229.623516 
L 1112.471497 228.227613 
L 1112.936544 226.444317 
L 1113.40159 231.532326 
L 1113.866637 232.362292 
L 1114.331683 232.578339 
L 1115.261776 224.56329 
L 1115.726823 226.460229 
L 1116.191869 226.469447 
L 1117.121962 218.651377 
L 1117.587009 212.445889 
L 1118.052055 215.111049 
L 1118.517102 211.781462 
L 1119.912241 206.484101 
L 1120.377288 209.461145 
L 1120.842334 216.289141 
L 1121.307381 216.85975 
L 1121.772427 220.345659 
L 1122.237474 220.246538 
L 1122.70252 215.495415 
L 1123.167567 213.196689 
L 1123.632613 208.15338 
L 1124.09766 200.395035 
L 1124.562706 202.246013 
L 1125.492799 192.060905 
L 1125.957846 194.834404 
L 1126.887939 198.365643 
L 1127.352985 209.008477 
L 1127.818032 212.228462 
L 1129.213171 230.617899 
L 1130.143264 237.054587 
L 1130.608311 238.212853 
L 1131.073357 239.728965 
L 1131.538404 242.725707 
L 1132.00345 247.304852 
L 1132.468497 248.584589 
L 1132.933543 248.820334 
L 1133.863636 241.087622 
L 1134.328683 238.033807 
L 1134.793729 232.530879 
L 1135.258776 231.111995 
L 1135.723822 227.142225 
L 1136.188869 228.320188 
L 1136.653915 221.848777 
L 1137.118962 224.458126 
L 1137.584008 219.861304 
L 1138.049055 222.739859 
L 1138.514101 221.409615 
L 1138.979148 223.533081 
L 1139.444194 226.474012 
L 1139.909241 234.772789 
L 1140.374287 228.787261 
L 1140.839334 230.769558 
L 1141.30438 232.147784 
L 1141.769427 234.14978 
L 1142.234473 234.224657 
L 1143.164566 225.182031 
L 1143.629613 231.136751 
L 1144.094659 229.819639 
L 1144.559706 223.111853 
L 1145.024752 214.424421 
L 1145.489799 211.324644 
L 1145.954845 204.515085 
L 1146.419892 210.456672 
L 1146.884938 198.804697 
L 1147.349985 197.234795 
L 1147.815032 198.911774 
L 1148.280078 201.77063 
L 1148.745125 195.814649 
L 1149.210171 198.463394 
L 1149.675218 195.396447 
L 1150.605311 200.644692 
L 1151.070357 195.561987 
L 1151.535404 194.182499 
L 1152.00045 193.804324 
L 1152.465497 199.289575 
L 1152.930543 199.522036 
L 1153.39559 206.343466 
L 1153.860636 201.55623 
L 1154.325683 203.029664 
L 1154.790729 207.408546 
L 1155.255776 213.307454 
L 1155.720822 209.587192 
L 1156.185869 212.830158 
L 1156.650915 204.211669 
L 1157.115962 209.148661 
L 1157.581008 212.184799 
L 1158.046055 207.935974 
L 1158.511101 206.175659 
L 1159.441194 198.938679 
L 1159.906241 205.435092 
L 1160.371287 199.850089 
L 1160.836334 200.075985 
L 1161.30138 204.461433 
L 1161.766427 205.06159 
L 1162.231473 211.141063 
L 1162.69652 218.740562 
L 1163.161566 217.548205 
L 1163.626613 223.276398 
L 1164.091659 221.414309 
L 1164.556706 221.741978 
L 1165.021752 229.118233 
L 1165.486799 228.848397 
L 1165.951845 230.009945 
L 1166.416892 230.025729 
L 1166.881938 234.197783 
L 1167.346985 241.298267 
L 1167.812031 244.577347 
L 1168.277078 235.328523 
L 1168.742124 233.541944 
L 1169.207171 225.868957 
L 1169.672217 223.294459 
L 1170.137264 218.743599 
L 1170.60231 216.717361 
L 1171.067357 212.88876 
L 1171.532403 218.73514 
L 1171.99745 214.322166 
L 1172.462496 215.85141 
L 1172.927543 213.697136 
L 1173.392589 207.570439 
L 1174.322682 203.117438 
L 1174.787729 195.148981 
L 1175.252775 204.334166 
L 1175.717822 206.756385 
L 1176.182868 210.984249 
L 1176.647915 211.984931 
L 1177.112961 210.743329 
L 1177.578008 205.355306 
L 1178.043054 205.167544 
L 1178.973147 196.476198 
L 1179.438194 194.725732 
L 1179.90324 197.305534 
L 1180.368287 195.469709 
L 1181.29838 207.274092 
L 1181.763426 205.530192 
L 1182.693519 208.821772 
L 1183.623612 216.029964 
L 1184.553705 220.664289 
L 1186.413891 209.044513 
L 1186.878938 209.979535 
L 1187.343984 209.479889 
L 1187.809031 209.879784 
L 1188.274077 207.072193 
L 1188.739124 207.777406 
L 1189.20417 210.964562 
L 1189.669217 212.976406 
L 1190.134263 208.537168 
L 1212.456496 200.29294 
L 1212.921542 183.296252 
L 1213.386589 174.19188 
L 1213.851635 156.17418 
L 1214.316682 152.811764 
L 1214.781728 139.291766 
L 1215.246775 133.749442 
L 1215.711821 122.731085 
L 1216.176868 119.12901 
L 1216.641914 121.682548 
L 1217.106961 120.079816 
L 1217.572007 115.089035 
L 1218.037054 119.333315 
L 1218.5021 118.029335 
L 1218.967147 124.529031 
L 1219.432193 125.687297 
L 1219.89724 122.022846 
L 1220.362286 133.325561 
L 1220.827333 141.47332 
L 1221.757426 152.768839 
L 1222.687519 160.213406 
L 1223.152565 158.889729 
L 1223.617612 160.021731 
L 1224.547705 144.895718 
L 1225.012751 144.921351 
L 1225.477798 146.168257 
L 1226.407891 167.877432 
L 1226.872937 166.051456 
L 1227.337984 178.309523 
L 1227.80303 179.26096 
L 1228.268077 171.988499 
L 1228.733123 174.144794 
L 1229.19817 171.012188 
L 1229.663216 164.320816 
L 1230.128263 162.783744 
L 1230.593309 154.099595 
L 1231.058356 162.053658 
L 1231.523402 175.874429 
L 1231.988449 176.619038 
L 1232.453495 178.240206 
L 1232.918542 174.286851 
L 1233.383588 174.542293 
L 1233.848635 181.603381 
L 1234.313681 179.524615 
L 1235.243774 158.837211 
L 1235.708821 152.017803 
L 1236.638914 158.516868 
L 1237.10396 152.445982 
L 1237.569007 156.079625 
L 1238.034053 161.147936 
L 1238.4991 172.043561 
L 1238.964146 172.102024 
L 1239.429193 184.639145 
L 1239.894239 182.107326 
L 1240.359286 187.723897 
L 1241.289379 177.148113 
L 1241.754425 171.034548 
L 1242.219472 180.416713 
L 1242.684518 170.409517 
L 1243.149565 171.587481 
L 1243.614611 170.372143 
L 1244.079658 172.029423 
L 1245.009751 176.433939 
L 1245.474797 175.047885 
L 1245.939844 172.9921 
L 1246.40489 180.256733 
L 1246.869937 180.282366 
L 1247.80003 185.855627 
L 1248.265077 185.579225 
L 1248.730123 184.130794 
L 1249.19517 184.639027 
L 1249.660216 176.952908 
L 1250.125263 175.399421 
L 1250.590309 172.342323 
L 1251.055356 171.612868 
L 1251.520402 175.532131 
L 1251.985449 175.544632 
L 1252.450495 181.098826 
L 1252.915542 183.087689 
L 1253.380588 183.421924 
L 1253.845635 181.425233 
L 1254.310681 184.149487 
L 1254.775728 184.168554 
L 1255.240774 178.380005 
L 1255.705821 175.789092 
L 1256.170867 169.186361 
L 1256.635914 171.467411 
L 1257.10096 172.540319 
L 1257.566007 170.573175 
L 1258.031053 165.868014 
L 1258.4961 174.75773 
L 1258.961146 176.503651 
L 1259.426193 181.352002 
L 1259.891239 181.541784 
L 1260.821332 174.587142 
L 1261.286379 179.143306 
L 1261.751425 175.400063 
L 1262.216472 173.485447 
L 1262.681518 176.685734 
L 1263.146565 173.517015 
L 1263.611611 179.100756 
L 1264.076658 170.718642 
L 1264.541704 169.253796 
L 1265.006751 172.969514 
L 1265.471797 170.601845 
L 1265.936844 170.968909 
L 1266.40189 174.605835 
L 1266.866937 171.108816 
L 1267.331983 181.899384 
L 1267.79703 182.2566 
L 1268.262076 176.254657 
L 1268.727123 175.938858 
L 1269.192169 175.353855 
L 1270.587309 185.305998 
L 1271.052355 186.648111 
L 1271.982448 198.967924 
L 1272.447495 198.606164 
L 1272.912541 189.340925 
L 1273.377588 186.119678 
L 1273.842634 184.274004 
L 1274.307681 176.108569 
L 1274.772727 174.407347 
L 1275.237774 167.285903 
L 1275.70282 162.377197 
L 1276.167867 165.994425 
L 1276.632913 163.134307 
L 1277.09796 154.016803 
L 1277.563006 152.614334 
L 1278.028053 151.792954 
L 1278.493099 149.008345 
L 1278.958146 147.041201 
L 1279.423192 149.118705 
L 1279.888239 154.971651 
L 1280.818332 161.326896 
L 1281.283378 170.54491 
L 1281.748425 172.514076 
L 1282.213471 178.849622 
L 1282.678518 182.483265 
L 1283.143564 183.831944 
L 1283.608611 180.709187 
L 1284.073657 186.841188 
L 1284.538704 182.195121 
L 1285.00375 174.834018 
L 1285.468797 170.663986 
L 1285.933843 172.101306 
L 1286.39889 164.152548 
L 1286.863936 163.935239 
L 1287.328983 159.98845 
L 1287.794029 162.551837 
L 1288.259076 167.725204 
L 1288.724122 167.698309 
L 1289.189169 174.401551 
L 1289.654215 174.315562 
L 1290.119262 170.930165 
L 1290.584308 169.760788 
L 1291.049355 164.957138 
L 1291.514401 162.208641 
L 1291.979448 166.058962 
L 1292.444494 155.877768 
L 1292.909541 163.726774 
L 1293.374587 169.22844 
L 1293.839634 167.625709 
L 1297.094959 171.239654 
L 1297.560006 181.022343 
L 1298.025053 178.43143 
L 1298.490099 182.255487 
L 1298.955146 180.334305 
L 1299.420192 183.183312 
L 1299.885239 189.134748 
L 1300.350285 191.619344 
L 1300.815332 188.798621 
L 1301.280378 195.823596 
L 1301.745425 194.378448 
L 1302.210471 200.930672 
L 1303.140564 196.156569 
L 1303.605611 189.947797 
L 1304.070657 188.39431 
L 1304.535704 183.577528 
L 1305.00075 181.364159 
L 1305.465797 187.066088 
L 1305.930843 183.880953 
L 1306.39589 185.603894 
L 1306.860936 185.209304 
L 1307.325983 186.374136 
L 1307.791029 190.516643 
L 1308.256076 191.72087 
L 1308.721122 190.026215 
L 1309.186169 184.227817 
L 1309.651215 184.309261 
L 1310.116262 189.108367 
L 1310.581308 191.333605 
L 1311.046355 190.24302 
L 1311.511401 182.635694 
L 1311.976448 177.244387 
L 1312.441494 176.987683 
L 1312.906541 178.067157 
L 1313.371587 173.19128 
L 1314.30168 152.040974 
L 1314.766727 153.543954 
L 1315.231773 152.542011 
L 1315.69682 155.811241 
L 1316.161866 153.78172 
L 1316.626913 158.144188 
L 1317.091959 164.164567 
L 1317.557006 172.325458 
L 1318.022052 174.928241 
L 1318.487099 179.789723 
L 1318.952145 176.91319 
L 1319.417192 181.354449 
L 1320.347285 192.272423 
L 1320.812331 201.552815 
L 1321.277378 206.151658 
L 1321.742424 203.655952 
L 1322.207471 203.225249 
L 1322.672517 202.387455 
L 1323.137564 201.283738 
L 1323.60261 201.555596 
L 1324.067657 196.53855 
L 1324.99775 203.116408 
L 1325.462796 209.819649 
L 1325.927843 209.917508 
L 1326.392889 206.207095 
L 1326.857936 201.180201 
L 1327.322982 202.256392 
L 1327.788029 193.628054 
L 1328.253075 190.958349 
L 1328.718122 186.791599 
L 1329.183168 189.34842 
L 1329.648215 186.908525 
L 1330.113261 186.474539 
L 1330.578308 183.804834 
L 1331.508401 206.255965 
L 1331.973447 210.250737 
L 1332.90354 220.732074 
L 1333.368587 220.416275 
L 1333.833633 217.654647 
L 1334.763726 206.350038 
L 1335.228773 205.023078 
L 1335.693819 202.061187 
L 1336.158866 202.319912 
L 1336.623912 212.595051 
L 1337.088959 215.430927 
L 1337.554005 212.560959 
L 1338.019052 212.100709 
L 1338.484098 217.920826 
L 1338.949145 214.748823 
L 1339.414191 214.738343 
L 1339.879238 204.002323 
L 1340.344284 203.939316 
L 1340.809331 201.102178 
L 1341.274377 199.27292 
L 1341.739424 189.209914 
L 1342.20447 188.027405 
L 1342.669517 184.165974 
L 1343.134563 188.232972 
L 1343.59961 189.68999 
L 1344.064656 196.242214 
L 1344.994749 200.462882 
L 1345.459796 199.175318 
L 1345.924842 199.663853 
L 1346.389889 199.371035 
L 1346.854935 195.90028 
L 1347.319982 196.461041 
L 1347.785029 191.013924 
L 1348.250075 189.266741 
L 1348.715122 191.859675 
L 1349.645215 191.596404 
L 1350.110261 185.624008 
L 1350.575308 182.245177 
L 1351.040354 173.817101 
L 1351.505401 173.360134 
L 1351.970447 167.913017 
L 1352.435494 165.916326 
L 1352.90054 159.743667 
L 1353.365587 158.587423 
L 1353.830633 159.98863 
L 1354.29568 162.000474 
L 1354.760726 159.123941 
L 1355.225773 161.056993 
L 1355.690819 155.18637 
L 1356.155866 161.390597 
L 1357.085959 178.753087 
L 1358.481098 203.294854 
L 1358.946145 205.753185 
L 1359.411191 204.242377 
L 1360.806331 184.194526 
L 1361.271377 181.787461 
L 1361.736424 183.231347 
L 1362.20147 190.072475 
L 1362.666517 192.07447 
L 1363.131563 195.691697 
L 1363.59661 194.922846 
L 1364.526703 210.683236 
L 1364.991749 207.987267 
L 1365.456796 202.15604 
L 1365.921842 201.607149 
L 1366.386889 201.527726 
L 1367.316982 186.966388 
L 1367.782028 182.947373 
L 1368.247075 181.55147 
L 1368.712121 182.706453 
L 1369.177168 192.262616 
L 1369.642214 191.201578 
L 1370.107261 195.879213 
L 1370.572307 198.908785 
L 1371.037354 198.494497 
L 1371.5024 197.748626 
L 1371.967447 196.707286 
L 1372.432493 187.094051 
L 1372.89754 183.685672 
L 1373.362586 182.581956 
L 1374.292679 175.538673 
L 1374.757726 178.597792 
L 1375.687819 182.066654 
L 1376.617912 198.729867 
L 1377.082958 199.464627 
L 1377.548005 196.062814 
L 1378.013051 196.088447 
L 1378.943144 197.085846 
L 1379.408191 192.761513 
L 1381.268377 189.727396 
L 1381.733423 188.180475 
L 1382.19847 194.450362 
L 1382.663516 195.204819 
L 1383.128563 200.112264 
L 1383.593609 202.711764 
L 1384.058656 211.811591 
L 1384.523702 211.735451 
L 1384.988749 208.481373 
L 1385.453795 201.343515 
L 1385.918842 206.677748 
L 1386.383888 197.015267 
L 1387.779028 176.635834 
L 1388.244074 176.14932 
L 1388.709121 183.285917 
L 1389.174167 181.079114 
L 1389.639214 176.354256 
L 1390.10426 173.957039 
L 1390.569307 176.349711 
L 1391.034353 186.654396 
L 1391.4994 190.100909 
L 1391.964446 191.777887 
L 1392.429493 195.234248 
L 1392.894539 205.089164 
L 1393.359586 210.144343 
L 1393.824632 207.875164 
L 1394.289679 209.299352 
L 1395.219772 200.903476 
L 1396.149865 203.78203 
L 1396.614911 203.581136 
L 1397.079958 205.005325 
L 1397.545005 204.702658 
L 1398.010051 192.866836 
L 1398.475098 197.468962 
L 1399.405191 182.36593 
L 1400.335284 173.077079 
L 1400.80033 171.769817 
L 1401.265377 183.70615 
L 1401.730423 187.98326 
L 1402.19547 195.011518 
L 1404.055656 196.107407 
L 1404.520702 199.967576 
L 1405.450795 216.896712 
L 1407.310981 203.441743 
L 1407.776028 201.182412 
L 1408.241074 198.190974 
L 1408.706121 192.99993 
L 1409.636214 174.305304 
L 1410.10126 173.17204 
L 1410.566307 167.705225 
L 1411.031353 173.968545 
L 1411.4964 184.027006 
L 1412.426493 192.955487 
L 1412.891539 194.281185 
L 1413.356586 196.12888 
L 1413.821632 194.644336 
L 1414.286679 189.761893 
L 1414.751725 187.958899 
L 1415.216772 194.918214 
L 1415.681818 190.160526 
L 1416.146865 190.997058 
L 1417.076958 193.580143 
L 1417.542004 193.753511 
L 1418.007051 194.649137 
L 1418.937144 180.819907 
L 1419.40219 186.482439 
L 1419.867237 184.896123 
L 1420.332283 182.341323 
L 1420.79733 183.25993 
L 1421.262376 181.335465 
L 1421.727423 177.743239 
L 1422.192469 175.135911 
L 1422.657516 170.447166 
L 1423.122562 169.937671 
L 1424.052655 171.700007 
L 1424.517702 182.313294 
L 1424.982748 186.793949 
L 1425.447795 187.705991 
L 1425.912841 191.165635 
L 1426.377888 197.527445 
L 1426.842934 200.799959 
L 1427.307981 202.723162 
L 1427.773027 199.019315 
L 1428.70312 196.063989 
L 1429.168167 199.907744 
L 1429.633213 206.072575 
L 1430.09826 205.648438 
L 1430.563306 207.440321 
L 1431.028353 210.588081 
L 1431.493399 205.318245 
L 1432.423492 212.645256 
L 1432.888539 209.69978 
L 1433.353585 203.353123 
L 1433.818632 202.548158 
L 1434.283678 199.507475 
L 1434.748725 199.470731 
L 1435.213771 201.177257 
L 1435.678818 188.668421 
L 1436.143864 189.642839 
L 1436.608911 181.982984 
L 1437.073957 177.642236 
L 1437.539004 176.778178 
L 1438.00405 172.499806 
L 1438.469097 170.700095 
L 1438.934143 171.543193 
L 1439.39919 164.533371 
L 1441.259376 149.652321 
L 1441.724422 149.060751 
L 1442.189469 151.519082 
L 1442.654515 152.319501 
L 1443.119562 155.697071 
L 1443.584608 153.588758 
L 1444.049655 150.682678 
L 1444.514701 151.427286 
L 1444.979748 151.679446 
L 1445.444794 151.166668 
L 1445.909841 156.953955 
L 1446.374887 161.352535 
L 1446.839934 167.185784 
L 1447.770027 175.424835 
L 1448.235074 176.248236 
L 1448.70012 178.420947 
L 1449.165167 174.132726 
L 1449.630213 172.749955 
L 1450.560306 177.600957 
L 1451.490399 172.586564 
L 1451.955446 169.027168 
L 1452.420492 174.272761 
L 1452.885539 177.315465 
L 1453.815632 180.675989 
L 1454.280678 184.214425 
L 1454.745725 184.827714 
L 1455.675818 190.771953 
L 1456.140864 192.031991 
L 1456.605911 191.650533 
L 1457.070957 192.54616 
L 1457.536004 191.577046 
L 1458.00105 192.364333 
L 1458.931143 189.185133 
L 1459.39619 188.376886 
L 1459.861236 185.040734 
L 1460.326283 178.552908 
L 1460.791329 177.242362 
L 1461.256376 176.979092 
L 1461.721422 178.08483 
L 1462.186469 173.934495 
L 1462.651515 177.354743 
L 1463.116562 185.318655 
L 1463.581608 197.113819 
L 1464.046655 200.524219 
L 1465.441794 221.031186 
L 1466.371887 215.087706 
L 1466.836934 207.811961 
L 1467.767027 208.658343 
L 1468.232073 204.156728 
L 1468.69712 195.026092 
L 1469.162166 191.223754 
L 1469.627213 190.586223 
L 1471.022352 184.495008 
L 1471.487399 179.973695 
L 1471.952445 178.820733 
L 1472.882538 184.686181 
L 1473.347585 177.558171 
L 1473.812631 178.942963 
L 1474.277678 178.154414 
L 1474.742724 176.357985 
L 1475.672817 161.517593 
L 1476.137864 150.059315 
L 1476.60291 154.599064 
L 1477.067957 150.783594 
L 1477.99805 140.75607 
L 1478.928143 143.916331 
L 1479.393189 148.108083 
L 1479.858236 143.297866 
L 1480.323282 142.200716 
L 1481.253375 152.422696 
L 1481.718422 162.635457 
L 1482.183468 166.49891 
L 1482.648515 161.803598 
L 1483.578608 167.488481 
L 1484.043654 168.443201 
L 1484.508701 167.467521 
L 1484.973747 163.789937 
L 1485.438794 166.254835 
L 1485.90384 172.784078 
L 1486.368887 172.212206 
L 1486.833933 170.222081 
L 1487.29898 165.145942 
L 1487.764026 167.062579 
L 1488.229073 167.82032 
L 1488.694119 163.528816 
L 1489.624212 161.302316 
L 1490.089259 162.421186 
L 1490.554305 159.800726 
L 1491.019352 166.356233 
L 1491.484398 165.554552 
L 1491.949445 161.936062 
L 1492.414491 171.449546 
L 1492.879538 177.269663 
L 1494.274677 214.450954 
L 1496.134863 258.630957 
L 1496.59991 259.214699 
L 1497.064956 257.740004 
L 1497.530003 258.011861 
L 1497.99505 257.738742 
L 1498.460096 260.144545 
L 1498.925143 259.109771 
L 1499.390189 247.717153 
L 1499.855236 248.868853 
L 1500.320282 248.608865 
L 1500.785329 241.283876 
L 1501.250375 240.7514 
L 1501.715422 230.337114 
L 1502.180468 215.963537 
L 1503.575608 190.774518 
L 1504.040654 194.0339 
L 1504.505701 190.947255 
L 1504.970747 194.160675 
L 1505.435794 199.110798 
L 1505.90084 207.258557 
L 1506.365887 208.344597 
L 1506.830933 214.886972 
L 1507.29598 218.514049 
L 1507.761026 218.52655 
L 1508.691119 218.910029 
L 1509.621212 221.647415 
L 1510.551305 220.701282 
L 1511.016352 220.904196 
L 1511.481398 222.955436 
L 1511.946445 210.121584 
L 1512.411491 211.004078 
L 1512.876538 215.107189 
L 1513.341584 218.090799 
L 1513.806631 218.339676 
L 1515.20177 215.748763 
L 1515.666817 209.208409 
L 1516.131863 213.21303 
L 1516.59691 209.04628 
L 1517.061956 206.796799 
L 1517.992049 200.879583 
L 1518.922142 208.606487 
L 1519.387189 207.483073 
L 1519.852235 209.547445 
L 1520.317282 202.698489 
L 1520.782328 203.981509 
L 1521.247375 202.956584 
L 1522.177468 195.154929 
L 1522.642514 185.673013 
L 1523.572607 181.887091 
L 1524.037654 181.43669 
L 1524.5027 177.798502 
L 1524.967747 181.789991 
L 1525.432793 187.547731 
L 1525.89784 187.13016 
L 1526.362886 206.003458 
L 1526.827933 204.994948 
L 1527.292979 209.560961 
L 1527.758026 206.723824 
L 1528.688119 198.859793 
L 1529.153165 194.213726 
L 1529.618212 186.7607 
L 1530.083258 188.598545 
L 1530.548305 180.978086 
L 1531.013351 179.004376 
L 1531.478398 181.912477 
L 1531.943444 175.749668 
L 1532.408491 177.541551 
L 1532.873537 175.54486 
L 1533.338584 167.464782 
L 1534.268677 179.279014 
L 1534.733723 175.519356 
L 1535.663816 184.260705 
L 1536.593909 200.211509 
L 1537.058956 201.405888 
L 1537.524002 192.770984 
L 1537.989049 195.974554 
L 1538.454095 203.25232 
L 1538.919142 194.213608 
L 1539.384188 180.887306 
L 1539.849235 179.681817 
L 1540.314281 176.348947 
L 1540.779328 183.255735 
L 1541.244374 181.039083 
L 1541.709421 175.276799 
L 1542.174467 177.311624 
L 1542.639514 183.377965 
L 1543.10456 191.210556 
L 1543.569607 191.892788 
L 1544.034653 194.144291 
L 1544.4997 203.87117 
L 1544.964746 205.919127 
L 1545.429793 216.653884 
L 1545.894839 223.823311 
L 1546.359886 226.836468 
L 1546.824932 228.35258 
L 1547.289979 225.561405 
L 1547.755026 217.501025 
L 1548.220072 218.587065 
L 1548.685119 216.288338 
L 1549.150165 208.43807 
L 1549.615212 212.744727 
L 1550.080258 214.841928 
L 1550.545305 218.235913 
L 1551.475398 227.515674 
L 1551.940444 227.56757 
L 1552.405491 235.702197 
L 1552.870537 223.748187 
L 1553.335584 223.908423 
L 1553.80063 229.196694 
L 1554.265677 229.304402 
L 1554.730723 217.616314 
L 1555.19577 223.219753 
L 1555.660816 224.066135 
L 1556.125863 233.008378 
L 1556.590909 235.410899 
L 1556.590909 235.410899 
" clip-path="url(#p532165f600)" style="fill: none; stroke: #f77189; stroke-width: 2.5; stroke-linecap: square"/>
   </g>
   <g id="patch_3">
    <path d="M 225 320.4 
L 225 43.2 
" style="fill: none; stroke: #000000; stroke-width: 0.8; stroke-linejoin: miter; stroke-linecap: square"/>
   </g>
   <g id="patch_4">
    <path d="M 1620 320.4 
L 1620 43.2 
" style="fill: none; stroke: #000000; stroke-width: 0.8; stroke-linejoin: miter; stroke-linecap: square"/>
   </g>
   <g id="patch_5">
    <path d="M 225 320.4 
L 1620 320.4 
" style="fill: none; stroke: #000000; stroke-width: 0.8; stroke-linejoin: miter; stroke-linecap: square"/>
   </g>
   <g id="patch_6">
    <path d="M 225 43.2 
L 1620 43.2 
" style="fill: none; stroke: #000000; stroke-width: 0.8; stroke-linejoin: miter; stroke-linecap: square"/>
   </g>
   <g id="text_17">
    <!-- BTAC -->
    <g transform="translate(896.657812 37.2) scale(0.2 -0.2)">
     <defs>
      <path id="DejaVuSans-42" d="M 1259 2228 
L 1259 519 
L 2272 519 
Q 2781 519 3026 730 
Q 3272 941 3272 1375 
Q 3272 1813 3026 2020 
Q 2781 2228 2272 2228 
L 1259 2228 
z
M 1259 4147 
L 1259 2741 
L 2194 2741 
Q 2656 2741 2882 2914 
Q 3109 3088 3109 3444 
Q 3109 3797 2882 3972 
Q 2656 4147 2194 4147 
L 1259 4147 
z
M 628 4666 
L 2241 4666 
Q 2963 4666 3353 4366 
Q 3744 4066 3744 3513 
Q 3744 3084 3544 2831 
Q 3344 2578 2956 2516 
Q 3422 2416 3680 2098 
Q 3938 1781 3938 1306 
Q 3938 681 3513 340 
Q 3088 0 2303 0 
L 628 0 
L 628 4666 
z
" transform="scale(0.015625)"/>
      <path id="DejaVuSans-41" d="M 2188 4044 
L 1331 1722 
L 3047 1722 
L 2188 4044 
z
M 1831 4666 
L 2547 4666 
L 4325 0 
L 3669 0 
L 3244 1197 
L 1141 1197 
L 716 0 
L 50 0 
L 1831 4666 
z
" transform="scale(0.015625)"/>
      <path id="DejaVuSans-43" d="M 4122 4306 
L 4122 3641 
Q 3803 3938 3442 4084 
Q 3081 4231 2675 4231 
Q 1875 4231 1450 3742 
Q 1025 3253 1025 2328 
Q 1025 1406 1450 917 
Q 1875 428 2675 428 
Q 3081 428 3442 575 
Q 3803 722 4122 1019 
L 4122 359 
Q 3791 134 3420 21 
Q 3050 -91 2638 -91 
Q 1578 -91 968 557 
Q 359 1206 359 2328 
Q 359 3453 968 4101 
Q 1578 4750 2638 4750 
Q 3056 4750 3426 4639 
Q 3797 4528 4122 4306 
z
" transform="scale(0.015625)"/>
     </defs>
     <use xlink:href="#DejaVuSans-42"/>
     <use xlink:href="#DejaVuSans-54" x="68.603516"/>
     <use xlink:href="#DejaVuSans-41" x="121.9375"/>
     <use xlink:href="#DejaVuSans-43" x="188.595703"/>
    </g>
   </g>
   <g id="legend_1">
    <g id="patch_7">
     <path d="M 1559.104687 65.878125 
L 1613 65.878125 
Q 1615 65.878125 1615 63.878125 
L 1615 50.2 
Q 1615 48.2 1613 48.2 
L 1559.104687 48.2 
Q 1557.104687 48.2 1557.104687 50.2 
L 1557.104687 63.878125 
Q 1557.104687 65.878125 1559.104687 65.878125 
z
" style="fill: #ffffff; opacity: 0.8; stroke: #cccccc; stroke-linejoin: miter"/>
    </g>
    <g id="line2d_16">
     <path d="M 1561.104687 56.298437 
L 1571.104687 56.298437 
L 1581.104687 56.298437 
" style="fill: none; stroke: #f77189; stroke-width: 2.5; stroke-linecap: square"/>
    </g>
    <g id="text_18">
     <!-- btac -->
     <g transform="translate(1589.104687 59.798437) scale(0.1 -0.1)">
      <defs>
       <path id="DejaVuSans-62" d="M 3116 1747 
Q 3116 2381 2855 2742 
Q 2594 3103 2138 3103 
Q 1681 3103 1420 2742 
Q 1159 2381 1159 1747 
Q 1159 1113 1420 752 
Q 1681 391 2138 391 
Q 2594 391 2855 752 
Q 3116 1113 3116 1747 
z
M 1159 2969 
Q 1341 3281 1617 3432 
Q 1894 3584 2278 3584 
Q 2916 3584 3314 3078 
Q 3713 2572 3713 1747 
Q 3713 922 3314 415 
Q 2916 -91 2278 -91 
Q 1894 -91 1617 61 
Q 1341 213 1159 525 
L 1159 0 
L 581 0 
L 581 4863 
L 1159 4863 
L 1159 2969 
z
" transform="scale(0.015625)"/>
       <path id="DejaVuSans-61" d="M 2194 1759 
Q 1497 1759 1228 1600 
Q 959 1441 959 1056 
Q 959 750 1161 570 
Q 1363 391 1709 391 
Q 2188 391 2477 730 
Q 2766 1069 2766 1631 
L 2766 1759 
L 2194 1759 
z
M 3341 1997 
L 3341 0 
L 2766 0 
L 2766 531 
Q 2569 213 2275 61 
Q 1981 -91 1556 -91 
Q 1019 -91 701 211 
Q 384 513 384 1019 
Q 384 1609 779 1909 
Q 1175 2209 1959 2209 
L 2766 2209 
L 2766 2266 
Q 2766 2663 2505 2880 
Q 2244 3097 1772 3097 
Q 1472 3097 1187 3025 
Q 903 2953 641 2809 
L 641 3341 
Q 956 3463 1253 3523 
Q 1550 3584 1831 3584 
Q 2591 3584 2966 3190 
Q 3341 2797 3341 1997 
z
" transform="scale(0.015625)"/>
       <path id="DejaVuSans-63" d="M 3122 3366 
L 3122 2828 
Q 2878 2963 2633 3030 
Q 2388 3097 2138 3097 
Q 1578 3097 1268 2742 
Q 959 2388 959 1747 
Q 959 1106 1268 751 
Q 1578 397 2138 397 
Q 2388 397 2633 464 
Q 2878 531 3122 666 
L 3122 134 
Q 2881 22 2623 -34 
Q 2366 -91 2075 -91 
Q 1284 -91 818 406 
Q 353 903 353 1747 
Q 353 2603 823 3093 
Q 1294 3584 2113 3584 
Q 2378 3584 2631 3529 
Q 2884 3475 3122 3366 
z
" transform="scale(0.015625)"/>
      </defs>
      <use xlink:href="#DejaVuSans-62"/>
      <use xlink:href="#DejaVuSans-74" x="63.476562"/>
      <use xlink:href="#DejaVuSans-61" x="102.685547"/>
      <use xlink:href="#DejaVuSans-63" x="163.964844"/>
     </g>
    </g>
   </g>
  </g>
 </g>
 <defs>
  <clipPath id="p532165f600">
   <rect x="225" y="43.2" width="1395" height="277.2"/>
  </clipPath>
 </defs>
</svg>
