<?xml version="1.0" encoding="utf-8" standalone="no"?>
<!DOCTYPE svg PUBLIC "-//W3C//DTD SVG 1.1//EN"
  "http://www.w3.org/Graphics/SVG/1.1/DTD/svg11.dtd">
<svg xmlns:xlink="http://www.w3.org/1999/xlink" width="1800pt" height="360pt" viewBox="0 0 1800 360" xmlns="http://www.w3.org/2000/svg" version="1.1">
 <metadata>
  <rdf:RDF xmlns:dc="http://purl.org/dc/elements/1.1/" xmlns:cc="http://creativecommons.org/ns#" xmlns:rdf="http://www.w3.org/1999/02/22-rdf-syntax-ns#">
   <cc:Work>
    <dc:type rdf:resource="http://purl.org/dc/dcmitype/StillImage"/>
    <dc:date>2024-03-25T15:23:18.283620</dc:date>
    <dc:format>image/svg+xml</dc:format>
    <dc:creator>
     <cc:Agent>
      <dc:title>Matplotlib v3.7.2, https://matplotlib.org/</dc:title>
     </cc:Agent>
    </dc:creator>
   </cc:Work>
  </rdf:RDF>
 </metadata>
 <defs>
  <style type="text/css">*{stroke-linejoin: round; stroke-linecap: butt}</style>
 </defs>
 <g id="figure_1">
  <g id="patch_1">
   <path d="M 0 360 
L 1800 360 
L 1800 0 
L 0 0 
z
" style="fill: #ffffff"/>
  </g>
  <g id="axes_1">
   <g id="patch_2">
    <path d="M 225 320.4 
L 1620 320.4 
L 1620 43.2 
L 225 43.2 
z
" style="fill: #ffffff"/>
   </g>
   <g id="matplotlib.axis_1">
    <g id="xtick_1">
     <g id="line2d_1">
      <defs>
       <path id="me01e2676b4" d="M 0 0 
L 0 3.5 
" style="stroke: #000000; stroke-width: 0.8"/>
      </defs>
      <g>
       <use xlink:href="#me01e2676b4" x="281.45888" y="320.4" style="stroke: #000000; stroke-width: 0.8"/>
      </g>
     </g>
     <g id="text_1">
      <!-- 2011 -->
      <g transform="translate(262.37138 338.797656) scale(0.15 -0.15)">
       <defs>
        <path id="DejaVuSans-32" d="M 1228 531 
L 3431 531 
L 3431 0 
L 469 0 
L 469 531 
Q 828 903 1448 1529 
Q 2069 2156 2228 2338 
Q 2531 2678 2651 2914 
Q 2772 3150 2772 3378 
Q 2772 3750 2511 3984 
Q 2250 4219 1831 4219 
Q 1534 4219 1204 4116 
Q 875 4013 500 3803 
L 500 4441 
Q 881 4594 1212 4672 
Q 1544 4750 1819 4750 
Q 2544 4750 2975 4387 
Q 3406 4025 3406 3419 
Q 3406 3131 3298 2873 
Q 3191 2616 2906 2266 
Q 2828 2175 2409 1742 
Q 1991 1309 1228 531 
z
" transform="scale(0.015625)"/>
        <path id="DejaVuSans-30" d="M 2034 4250 
Q 1547 4250 1301 3770 
Q 1056 3291 1056 2328 
Q 1056 1369 1301 889 
Q 1547 409 2034 409 
Q 2525 409 2770 889 
Q 3016 1369 3016 2328 
Q 3016 3291 2770 3770 
Q 2525 4250 2034 4250 
z
M 2034 4750 
Q 2819 4750 3233 4129 
Q 3647 3509 3647 2328 
Q 3647 1150 3233 529 
Q 2819 -91 2034 -91 
Q 1250 -91 836 529 
Q 422 1150 422 2328 
Q 422 3509 836 4129 
Q 1250 4750 2034 4750 
z
" transform="scale(0.015625)"/>
        <path id="DejaVuSans-31" d="M 794 531 
L 1825 531 
L 1825 4091 
L 703 3866 
L 703 4441 
L 1819 4666 
L 2450 4666 
L 2450 531 
L 3481 531 
L 3481 0 
L 794 0 
L 794 531 
z
" transform="scale(0.015625)"/>
       </defs>
       <use xlink:href="#DejaVuSans-32"/>
       <use xlink:href="#DejaVuSans-30" x="63.623047"/>
       <use xlink:href="#DejaVuSans-31" x="127.246094"/>
       <use xlink:href="#DejaVuSans-31" x="190.869141"/>
      </g>
     </g>
    </g>
    <g id="xtick_2">
     <g id="line2d_2">
      <g>
       <use xlink:href="#me01e2676b4" x="450.580679" y="320.4" style="stroke: #000000; stroke-width: 0.8"/>
      </g>
     </g>
     <g id="text_2">
      <!-- 2012 -->
      <g transform="translate(431.493179 338.797656) scale(0.15 -0.15)">
       <use xlink:href="#DejaVuSans-32"/>
       <use xlink:href="#DejaVuSans-30" x="63.623047"/>
       <use xlink:href="#DejaVuSans-31" x="127.246094"/>
       <use xlink:href="#DejaVuSans-32" x="190.869141"/>
      </g>
     </g>
    </g>
    <g id="xtick_3">
     <g id="line2d_3">
      <g>
       <use xlink:href="#me01e2676b4" x="620.165825" y="320.4" style="stroke: #000000; stroke-width: 0.8"/>
      </g>
     </g>
     <g id="text_3">
      <!-- 2013 -->
      <g transform="translate(601.078325 338.797656) scale(0.15 -0.15)">
       <defs>
        <path id="DejaVuSans-33" d="M 2597 2516 
Q 3050 2419 3304 2112 
Q 3559 1806 3559 1356 
Q 3559 666 3084 287 
Q 2609 -91 1734 -91 
Q 1441 -91 1130 -33 
Q 819 25 488 141 
L 488 750 
Q 750 597 1062 519 
Q 1375 441 1716 441 
Q 2309 441 2620 675 
Q 2931 909 2931 1356 
Q 2931 1769 2642 2001 
Q 2353 2234 1838 2234 
L 1294 2234 
L 1294 2753 
L 1863 2753 
Q 2328 2753 2575 2939 
Q 2822 3125 2822 3475 
Q 2822 3834 2567 4026 
Q 2313 4219 1838 4219 
Q 1578 4219 1281 4162 
Q 984 4106 628 3988 
L 628 4550 
Q 988 4650 1302 4700 
Q 1616 4750 1894 4750 
Q 2613 4750 3031 4423 
Q 3450 4097 3450 3541 
Q 3450 3153 3228 2886 
Q 3006 2619 2597 2516 
z
" transform="scale(0.015625)"/>
       </defs>
       <use xlink:href="#DejaVuSans-32"/>
       <use xlink:href="#DejaVuSans-30" x="63.623047"/>
       <use xlink:href="#DejaVuSans-31" x="127.246094"/>
       <use xlink:href="#DejaVuSans-33" x="190.869141"/>
      </g>
     </g>
    </g>
    <g id="xtick_4">
     <g id="line2d_4">
      <g>
       <use xlink:href="#me01e2676b4" x="789.287624" y="320.4" style="stroke: #000000; stroke-width: 0.8"/>
      </g>
     </g>
     <g id="text_4">
      <!-- 2014 -->
      <g transform="translate(770.200124 338.797656) scale(0.15 -0.15)">
       <defs>
        <path id="DejaVuSans-34" d="M 2419 4116 
L 825 1625 
L 2419 1625 
L 2419 4116 
z
M 2253 4666 
L 3047 4666 
L 3047 1625 
L 3713 1625 
L 3713 1100 
L 3047 1100 
L 3047 0 
L 2419 0 
L 2419 1100 
L 313 1100 
L 313 1709 
L 2253 4666 
z
" transform="scale(0.015625)"/>
       </defs>
       <use xlink:href="#DejaVuSans-32"/>
       <use xlink:href="#DejaVuSans-30" x="63.623047"/>
       <use xlink:href="#DejaVuSans-31" x="127.246094"/>
       <use xlink:href="#DejaVuSans-34" x="190.869141"/>
      </g>
     </g>
    </g>
    <g id="xtick_5">
     <g id="line2d_5">
      <g>
       <use xlink:href="#me01e2676b4" x="958.409423" y="320.4" style="stroke: #000000; stroke-width: 0.8"/>
      </g>
     </g>
     <g id="text_5">
      <!-- 2015 -->
      <g transform="translate(939.321923 338.797656) scale(0.15 -0.15)">
       <defs>
        <path id="DejaVuSans-35" d="M 691 4666 
L 3169 4666 
L 3169 4134 
L 1269 4134 
L 1269 2991 
Q 1406 3038 1543 3061 
Q 1681 3084 1819 3084 
Q 2600 3084 3056 2656 
Q 3513 2228 3513 1497 
Q 3513 744 3044 326 
Q 2575 -91 1722 -91 
Q 1428 -91 1123 -41 
Q 819 9 494 109 
L 494 744 
Q 775 591 1075 516 
Q 1375 441 1709 441 
Q 2250 441 2565 725 
Q 2881 1009 2881 1497 
Q 2881 1984 2565 2268 
Q 2250 2553 1709 2553 
Q 1456 2553 1204 2497 
Q 953 2441 691 2322 
L 691 4666 
z
" transform="scale(0.015625)"/>
       </defs>
       <use xlink:href="#DejaVuSans-32"/>
       <use xlink:href="#DejaVuSans-30" x="63.623047"/>
       <use xlink:href="#DejaVuSans-31" x="127.246094"/>
       <use xlink:href="#DejaVuSans-35" x="190.869141"/>
      </g>
     </g>
    </g>
    <g id="xtick_6">
     <g id="line2d_6">
      <g>
       <use xlink:href="#me01e2676b4" x="1127.531222" y="320.4" style="stroke: #000000; stroke-width: 0.8"/>
      </g>
     </g>
     <g id="text_6">
      <!-- 2016 -->
      <g transform="translate(1108.443722 338.797656) scale(0.15 -0.15)">
       <defs>
        <path id="DejaVuSans-36" d="M 2113 2584 
Q 1688 2584 1439 2293 
Q 1191 2003 1191 1497 
Q 1191 994 1439 701 
Q 1688 409 2113 409 
Q 2538 409 2786 701 
Q 3034 994 3034 1497 
Q 3034 2003 2786 2293 
Q 2538 2584 2113 2584 
z
M 3366 4563 
L 3366 3988 
Q 3128 4100 2886 4159 
Q 2644 4219 2406 4219 
Q 1781 4219 1451 3797 
Q 1122 3375 1075 2522 
Q 1259 2794 1537 2939 
Q 1816 3084 2150 3084 
Q 2853 3084 3261 2657 
Q 3669 2231 3669 1497 
Q 3669 778 3244 343 
Q 2819 -91 2113 -91 
Q 1303 -91 875 529 
Q 447 1150 447 2328 
Q 447 3434 972 4092 
Q 1497 4750 2381 4750 
Q 2619 4750 2861 4703 
Q 3103 4656 3366 4563 
z
" transform="scale(0.015625)"/>
       </defs>
       <use xlink:href="#DejaVuSans-32"/>
       <use xlink:href="#DejaVuSans-30" x="63.623047"/>
       <use xlink:href="#DejaVuSans-31" x="127.246094"/>
       <use xlink:href="#DejaVuSans-36" x="190.869141"/>
      </g>
     </g>
    </g>
    <g id="xtick_7">
     <g id="line2d_7">
      <g>
       <use xlink:href="#me01e2676b4" x="1297.116368" y="320.4" style="stroke: #000000; stroke-width: 0.8"/>
      </g>
     </g>
     <g id="text_7">
      <!-- 2017 -->
      <g transform="translate(1278.028868 338.797656) scale(0.15 -0.15)">
       <defs>
        <path id="DejaVuSans-37" d="M 525 4666 
L 3525 4666 
L 3525 4397 
L 1831 0 
L 1172 0 
L 2766 4134 
L 525 4134 
L 525 4666 
z
" transform="scale(0.015625)"/>
       </defs>
       <use xlink:href="#DejaVuSans-32"/>
       <use xlink:href="#DejaVuSans-30" x="63.623047"/>
       <use xlink:href="#DejaVuSans-31" x="127.246094"/>
       <use xlink:href="#DejaVuSans-37" x="190.869141"/>
      </g>
     </g>
    </g>
    <g id="xtick_8">
     <g id="line2d_8">
      <g>
       <use xlink:href="#me01e2676b4" x="1466.238167" y="320.4" style="stroke: #000000; stroke-width: 0.8"/>
      </g>
     </g>
     <g id="text_8">
      <!-- 2018 -->
      <g transform="translate(1447.150667 338.797656) scale(0.15 -0.15)">
       <defs>
        <path id="DejaVuSans-38" d="M 2034 2216 
Q 1584 2216 1326 1975 
Q 1069 1734 1069 1313 
Q 1069 891 1326 650 
Q 1584 409 2034 409 
Q 2484 409 2743 651 
Q 3003 894 3003 1313 
Q 3003 1734 2745 1975 
Q 2488 2216 2034 2216 
z
M 1403 2484 
Q 997 2584 770 2862 
Q 544 3141 544 3541 
Q 544 4100 942 4425 
Q 1341 4750 2034 4750 
Q 2731 4750 3128 4425 
Q 3525 4100 3525 3541 
Q 3525 3141 3298 2862 
Q 3072 2584 2669 2484 
Q 3125 2378 3379 2068 
Q 3634 1759 3634 1313 
Q 3634 634 3220 271 
Q 2806 -91 2034 -91 
Q 1263 -91 848 271 
Q 434 634 434 1313 
Q 434 1759 690 2068 
Q 947 2378 1403 2484 
z
M 1172 3481 
Q 1172 3119 1398 2916 
Q 1625 2713 2034 2713 
Q 2441 2713 2670 2916 
Q 2900 3119 2900 3481 
Q 2900 3844 2670 4047 
Q 2441 4250 2034 4250 
Q 1625 4250 1398 4047 
Q 1172 3844 1172 3481 
z
" transform="scale(0.015625)"/>
       </defs>
       <use xlink:href="#DejaVuSans-32"/>
       <use xlink:href="#DejaVuSans-30" x="63.623047"/>
       <use xlink:href="#DejaVuSans-31" x="127.246094"/>
       <use xlink:href="#DejaVuSans-38" x="190.869141"/>
      </g>
     </g>
    </g>
    <g id="text_9">
     <!-- Time -->
     <g transform="translate(904.149609 357.314844) scale(0.15 -0.15)">
      <defs>
       <path id="DejaVuSans-54" d="M -19 4666 
L 3928 4666 
L 3928 4134 
L 2272 4134 
L 2272 0 
L 1638 0 
L 1638 4134 
L -19 4134 
L -19 4666 
z
" transform="scale(0.015625)"/>
       <path id="DejaVuSans-69" d="M 603 3500 
L 1178 3500 
L 1178 0 
L 603 0 
L 603 3500 
z
M 603 4863 
L 1178 4863 
L 1178 4134 
L 603 4134 
L 603 4863 
z
" transform="scale(0.015625)"/>
       <path id="DejaVuSans-6d" d="M 3328 2828 
Q 3544 3216 3844 3400 
Q 4144 3584 4550 3584 
Q 5097 3584 5394 3201 
Q 5691 2819 5691 2113 
L 5691 0 
L 5113 0 
L 5113 2094 
Q 5113 2597 4934 2840 
Q 4756 3084 4391 3084 
Q 3944 3084 3684 2787 
Q 3425 2491 3425 1978 
L 3425 0 
L 2847 0 
L 2847 2094 
Q 2847 2600 2669 2842 
Q 2491 3084 2119 3084 
Q 1678 3084 1418 2786 
Q 1159 2488 1159 1978 
L 1159 0 
L 581 0 
L 581 3500 
L 1159 3500 
L 1159 2956 
Q 1356 3278 1631 3431 
Q 1906 3584 2284 3584 
Q 2666 3584 2933 3390 
Q 3200 3197 3328 2828 
z
" transform="scale(0.015625)"/>
       <path id="DejaVuSans-65" d="M 3597 1894 
L 3597 1613 
L 953 1613 
Q 991 1019 1311 708 
Q 1631 397 2203 397 
Q 2534 397 2845 478 
Q 3156 559 3463 722 
L 3463 178 
Q 3153 47 2828 -22 
Q 2503 -91 2169 -91 
Q 1331 -91 842 396 
Q 353 884 353 1716 
Q 353 2575 817 3079 
Q 1281 3584 2069 3584 
Q 2775 3584 3186 3129 
Q 3597 2675 3597 1894 
z
M 3022 2063 
Q 3016 2534 2758 2815 
Q 2500 3097 2075 3097 
Q 1594 3097 1305 2825 
Q 1016 2553 972 2059 
L 3022 2063 
z
" transform="scale(0.015625)"/>
      </defs>
      <use xlink:href="#DejaVuSans-54"/>
      <use xlink:href="#DejaVuSans-69" x="57.958984"/>
      <use xlink:href="#DejaVuSans-6d" x="85.742188"/>
      <use xlink:href="#DejaVuSans-65" x="183.154297"/>
     </g>
    </g>
   </g>
   <g id="matplotlib.axis_2">
    <g id="ytick_1">
     <g id="line2d_9">
      <defs>
       <path id="m5f723fce9a" d="M 0 0 
L -3.5 0 
" style="stroke: #000000; stroke-width: 0.8"/>
      </defs>
      <g>
       <use xlink:href="#m5f723fce9a" x="225" y="310.193586" style="stroke: #000000; stroke-width: 0.8"/>
      </g>
     </g>
     <g id="text_10">
      <!-- −0.004 -->
      <g transform="translate(162.488281 315.892414) scale(0.15 -0.15)">
       <defs>
        <path id="DejaVuSans-2212" d="M 678 2272 
L 4684 2272 
L 4684 1741 
L 678 1741 
L 678 2272 
z
" transform="scale(0.015625)"/>
        <path id="DejaVuSans-2e" d="M 684 794 
L 1344 794 
L 1344 0 
L 684 0 
L 684 794 
z
" transform="scale(0.015625)"/>
       </defs>
       <use xlink:href="#DejaVuSans-2212"/>
       <use xlink:href="#DejaVuSans-30" x="83.789062"/>
       <use xlink:href="#DejaVuSans-2e" x="147.412109"/>
       <use xlink:href="#DejaVuSans-30" x="179.199219"/>
       <use xlink:href="#DejaVuSans-30" x="242.822266"/>
       <use xlink:href="#DejaVuSans-34" x="306.445312"/>
      </g>
     </g>
    </g>
    <g id="ytick_2">
     <g id="line2d_10">
      <g>
       <use xlink:href="#m5f723fce9a" x="225" y="277.338328" style="stroke: #000000; stroke-width: 0.8"/>
      </g>
     </g>
     <g id="text_11">
      <!-- −0.003 -->
      <g transform="translate(162.488281 283.037157) scale(0.15 -0.15)">
       <use xlink:href="#DejaVuSans-2212"/>
       <use xlink:href="#DejaVuSans-30" x="83.789062"/>
       <use xlink:href="#DejaVuSans-2e" x="147.412109"/>
       <use xlink:href="#DejaVuSans-30" x="179.199219"/>
       <use xlink:href="#DejaVuSans-30" x="242.822266"/>
       <use xlink:href="#DejaVuSans-33" x="306.445312"/>
      </g>
     </g>
    </g>
    <g id="ytick_3">
     <g id="line2d_11">
      <g>
       <use xlink:href="#m5f723fce9a" x="225" y="244.483071" style="stroke: #000000; stroke-width: 0.8"/>
      </g>
     </g>
     <g id="text_12">
      <!-- −0.002 -->
      <g transform="translate(162.488281 250.181899) scale(0.15 -0.15)">
       <use xlink:href="#DejaVuSans-2212"/>
       <use xlink:href="#DejaVuSans-30" x="83.789062"/>
       <use xlink:href="#DejaVuSans-2e" x="147.412109"/>
       <use xlink:href="#DejaVuSans-30" x="179.199219"/>
       <use xlink:href="#DejaVuSans-30" x="242.822266"/>
       <use xlink:href="#DejaVuSans-32" x="306.445312"/>
      </g>
     </g>
    </g>
    <g id="ytick_4">
     <g id="line2d_12">
      <g>
       <use xlink:href="#m5f723fce9a" x="225" y="211.627813" style="stroke: #000000; stroke-width: 0.8"/>
      </g>
     </g>
     <g id="text_13">
      <!-- −0.001 -->
      <g transform="translate(162.488281 217.326641) scale(0.15 -0.15)">
       <use xlink:href="#DejaVuSans-2212"/>
       <use xlink:href="#DejaVuSans-30" x="83.789062"/>
       <use xlink:href="#DejaVuSans-2e" x="147.412109"/>
       <use xlink:href="#DejaVuSans-30" x="179.199219"/>
       <use xlink:href="#DejaVuSans-30" x="242.822266"/>
       <use xlink:href="#DejaVuSans-31" x="306.445312"/>
      </g>
     </g>
    </g>
    <g id="ytick_5">
     <g id="line2d_13">
      <g>
       <use xlink:href="#m5f723fce9a" x="225" y="178.772555" style="stroke: #000000; stroke-width: 0.8"/>
      </g>
     </g>
     <g id="text_14">
      <!-- 0.000 -->
      <g transform="translate(175.057813 184.471384) scale(0.15 -0.15)">
       <use xlink:href="#DejaVuSans-30"/>
       <use xlink:href="#DejaVuSans-2e" x="63.623047"/>
       <use xlink:href="#DejaVuSans-30" x="95.410156"/>
       <use xlink:href="#DejaVuSans-30" x="159.033203"/>
       <use xlink:href="#DejaVuSans-30" x="222.65625"/>
      </g>
     </g>
    </g>
    <g id="ytick_6">
     <g id="line2d_14">
      <g>
       <use xlink:href="#m5f723fce9a" x="225" y="145.917298" style="stroke: #000000; stroke-width: 0.8"/>
      </g>
     </g>
     <g id="text_15">
      <!-- 0.001 -->
      <g transform="translate(175.057813 151.616126) scale(0.15 -0.15)">
       <use xlink:href="#DejaVuSans-30"/>
       <use xlink:href="#DejaVuSans-2e" x="63.623047"/>
       <use xlink:href="#DejaVuSans-30" x="95.410156"/>
       <use xlink:href="#DejaVuSans-30" x="159.033203"/>
       <use xlink:href="#DejaVuSans-31" x="222.65625"/>
      </g>
     </g>
    </g>
    <g id="ytick_7">
     <g id="line2d_15">
      <g>
       <use xlink:href="#m5f723fce9a" x="225" y="113.06204" style="stroke: #000000; stroke-width: 0.8"/>
      </g>
     </g>
     <g id="text_16">
      <!-- 0.002 -->
      <g transform="translate(175.057813 118.760868) scale(0.15 -0.15)">
       <use xlink:href="#DejaVuSans-30"/>
       <use xlink:href="#DejaVuSans-2e" x="63.623047"/>
       <use xlink:href="#DejaVuSans-30" x="95.410156"/>
       <use xlink:href="#DejaVuSans-30" x="159.033203"/>
       <use xlink:href="#DejaVuSans-32" x="222.65625"/>
      </g>
     </g>
    </g>
    <g id="ytick_8">
     <g id="line2d_16">
      <g>
       <use xlink:href="#m5f723fce9a" x="225" y="80.206782" style="stroke: #000000; stroke-width: 0.8"/>
      </g>
     </g>
     <g id="text_17">
      <!-- 0.003 -->
      <g transform="translate(175.057813 85.905611) scale(0.15 -0.15)">
       <use xlink:href="#DejaVuSans-30"/>
       <use xlink:href="#DejaVuSans-2e" x="63.623047"/>
       <use xlink:href="#DejaVuSans-30" x="95.410156"/>
       <use xlink:href="#DejaVuSans-30" x="159.033203"/>
       <use xlink:href="#DejaVuSans-33" x="222.65625"/>
      </g>
     </g>
    </g>
    <g id="ytick_9">
     <g id="line2d_17">
      <g>
       <use xlink:href="#m5f723fce9a" x="225" y="47.351525" style="stroke: #000000; stroke-width: 0.8"/>
      </g>
     </g>
     <g id="text_18">
      <!-- 0.004 -->
      <g transform="translate(175.057813 53.050353) scale(0.15 -0.15)">
       <use xlink:href="#DejaVuSans-30"/>
       <use xlink:href="#DejaVuSans-2e" x="63.623047"/>
       <use xlink:href="#DejaVuSans-30" x="95.410156"/>
       <use xlink:href="#DejaVuSans-30" x="159.033203"/>
       <use xlink:href="#DejaVuSans-34" x="222.65625"/>
      </g>
     </g>
    </g>
    <g id="text_19">
     <!-- North(m) -->
     <g transform="translate(155.36875 215.934375) rotate(-90) scale(0.15 -0.15)">
      <defs>
       <path id="DejaVuSans-4e" d="M 628 4666 
L 1478 4666 
L 3547 763 
L 3547 4666 
L 4159 4666 
L 4159 0 
L 3309 0 
L 1241 3903 
L 1241 0 
L 628 0 
L 628 4666 
z
" transform="scale(0.015625)"/>
       <path id="DejaVuSans-6f" d="M 1959 3097 
Q 1497 3097 1228 2736 
Q 959 2375 959 1747 
Q 959 1119 1226 758 
Q 1494 397 1959 397 
Q 2419 397 2687 759 
Q 2956 1122 2956 1747 
Q 2956 2369 2687 2733 
Q 2419 3097 1959 3097 
z
M 1959 3584 
Q 2709 3584 3137 3096 
Q 3566 2609 3566 1747 
Q 3566 888 3137 398 
Q 2709 -91 1959 -91 
Q 1206 -91 779 398 
Q 353 888 353 1747 
Q 353 2609 779 3096 
Q 1206 3584 1959 3584 
z
" transform="scale(0.015625)"/>
       <path id="DejaVuSans-72" d="M 2631 2963 
Q 2534 3019 2420 3045 
Q 2306 3072 2169 3072 
Q 1681 3072 1420 2755 
Q 1159 2438 1159 1844 
L 1159 0 
L 581 0 
L 581 3500 
L 1159 3500 
L 1159 2956 
Q 1341 3275 1631 3429 
Q 1922 3584 2338 3584 
Q 2397 3584 2469 3576 
Q 2541 3569 2628 3553 
L 2631 2963 
z
" transform="scale(0.015625)"/>
       <path id="DejaVuSans-74" d="M 1172 4494 
L 1172 3500 
L 2356 3500 
L 2356 3053 
L 1172 3053 
L 1172 1153 
Q 1172 725 1289 603 
Q 1406 481 1766 481 
L 2356 481 
L 2356 0 
L 1766 0 
Q 1100 0 847 248 
Q 594 497 594 1153 
L 594 3053 
L 172 3053 
L 172 3500 
L 594 3500 
L 594 4494 
L 1172 4494 
z
" transform="scale(0.015625)"/>
       <path id="DejaVuSans-68" d="M 3513 2113 
L 3513 0 
L 2938 0 
L 2938 2094 
Q 2938 2591 2744 2837 
Q 2550 3084 2163 3084 
Q 1697 3084 1428 2787 
Q 1159 2491 1159 1978 
L 1159 0 
L 581 0 
L 581 4863 
L 1159 4863 
L 1159 2956 
Q 1366 3272 1645 3428 
Q 1925 3584 2291 3584 
Q 2894 3584 3203 3211 
Q 3513 2838 3513 2113 
z
" transform="scale(0.015625)"/>
       <path id="DejaVuSans-28" d="M 1984 4856 
Q 1566 4138 1362 3434 
Q 1159 2731 1159 2009 
Q 1159 1288 1364 580 
Q 1569 -128 1984 -844 
L 1484 -844 
Q 1016 -109 783 600 
Q 550 1309 550 2009 
Q 550 2706 781 3412 
Q 1013 4119 1484 4856 
L 1984 4856 
z
" transform="scale(0.015625)"/>
       <path id="DejaVuSans-29" d="M 513 4856 
L 1013 4856 
Q 1481 4119 1714 3412 
Q 1947 2706 1947 2009 
Q 1947 1309 1714 600 
Q 1481 -109 1013 -844 
L 513 -844 
Q 928 -128 1133 580 
Q 1338 1288 1338 2009 
Q 1338 2731 1133 3434 
Q 928 4138 513 4856 
z
" transform="scale(0.015625)"/>
      </defs>
      <use xlink:href="#DejaVuSans-4e"/>
      <use xlink:href="#DejaVuSans-6f" x="74.804688"/>
      <use xlink:href="#DejaVuSans-72" x="135.986328"/>
      <use xlink:href="#DejaVuSans-74" x="177.099609"/>
      <use xlink:href="#DejaVuSans-68" x="216.308594"/>
      <use xlink:href="#DejaVuSans-28" x="279.6875"/>
      <use xlink:href="#DejaVuSans-6d" x="318.701172"/>
      <use xlink:href="#DejaVuSans-29" x="416.113281"/>
     </g>
    </g>
   </g>
   <g id="line2d_18">
    <path d="M 288.409091 249.301303 
L 288.872438 238.712406 
L 289.335786 238.242928 
L 289.799133 228.656116 
L 290.26248 223.130214 
L 290.725828 219.689526 
L 291.652523 224.245887 
L 292.579217 232.013341 
L 293.042565 237.819101 
L 293.505912 238.227211 
L 293.96926 242.286949 
L 294.432607 249.627518 
L 294.895954 249.758706 
L 295.359302 249.143609 
L 295.822649 245.491748 
L 296.285997 249.542098 
L 296.749344 249.513703 
L 297.212691 249.17553 
L 297.676039 245.636315 
L 298.139386 243.519264 
L 298.602734 242.078093 
L 299.992776 238.858044 
L 300.456123 234.736822 
L 300.919471 239.378567 
L 301.382818 231.450829 
L 301.846165 233.12152 
L 302.309513 236.331714 
L 302.77286 231.896021 
L 303.236208 235.899435 
L 303.699555 234.373778 
L 304.162902 235.03065 
L 304.62625 242.680998 
L 305.089597 237.541263 
L 306.016292 219.06206 
L 306.479639 211.955703 
L 307.406334 206.003974 
L 307.869681 195.598011 
L 308.333029 197.611335 
L 308.796376 196.578508 
L 309.259724 205.364709 
L 310.649766 215.75143 
L 311.576461 232.873246 
L 312.039808 248.718633 
L 312.503155 250.492584 
L 312.966503 257.420116 
L 313.42985 255.786506 
L 313.893198 260.738029 
L 314.356545 260.75657 
L 314.819892 267.979799 
L 315.28324 264.417117 
L 315.746587 267.007755 
L 316.209935 263.323039 
L 317.136629 251.480598 
L 319.453366 249.058462 
L 319.916714 246.871007 
L 320.380061 249.644696 
L 320.843409 245.481232 
L 321.306756 246.663787 
L 322.233451 241.946477 
L 322.696798 243.560845 
L 323.160145 247.076124 
L 323.623493 238.078243 
L 324.550188 234.454544 
L 325.013535 230.661875 
L 325.94023 227.723442 
L 326.403577 231.891133 
L 326.866925 226.563654 
L 327.330272 214.43983 
L 327.793619 210.726952 
L 328.256967 211.787474 
L 328.720314 212.12518 
L 329.183662 209.210215 
L 329.647009 210.486643 
L 330.110356 216.325258 
L 331.037051 232.353463 
L 331.500399 223.289872 
L 331.963746 223.360042 
L 332.427093 230.517561 
L 350.497642 223.317332 
L 350.960989 216.605239 
L 351.887684 191.836601 
L 352.351031 183.406646 
L 353.277726 159.074514 
L 353.741074 155.098794 
L 354.204421 147.476141 
L 354.667768 159.327268 
L 355.131116 166.325204 
L 355.594463 177.519226 
L 356.05781 174.92812 
L 356.521158 174.913806 
L 356.984505 188.557891 
L 357.447853 194.715672 
L 359.301242 167.689174 
L 359.76459 177.676939 
L 360.227937 180.483483 
L 360.691284 174.081168 
L 361.154632 177.629302 
L 361.617979 182.580825 
L 362.081327 192.113309 
L 362.544674 188.597563 
L 363.471369 174.835436 
L 363.934716 171.282141 
L 364.861411 178.599009 
L 365.324758 175.4963 
L 365.788106 179.983156 
L 366.251453 190.031938 
L 367.178148 202.333417 
L 367.641495 201.962389 
L 368.104843 180.625012 
L 369.494885 165.454569 
L 369.958232 165.08354 
L 370.42158 154.996742 
L 371.811622 147.036149 
L 372.274969 159.107876 
L 372.738317 149.964493 
L 373.201664 166.086804 
L 375.518401 166.588786 
L 375.981748 155.488169 
L 376.445096 159.022222 
L 376.908443 160.275182 
L 377.371791 166.245218 
L 377.835138 173.754758 
L 378.298485 153.360796 
L 378.761833 154.012974 
L 379.688528 173.354866 
L 380.151875 171.782274 
L 380.615222 171.796121 
L 381.07857 178.620393 
L 381.541917 177.573485 
L 382.005265 177.437137 
L 382.468612 177.737294 
L 390.345518 157.41843 
L 390.808865 149.913117 
L 391.272212 146.397371 
L 391.73556 140.567675 
L 393.588949 142.970569 
L 394.052297 139.910103 
L 394.515644 138.774016 
L 395.442339 149.385797 
L 395.905686 152.408247 
L 396.369034 146.775683 
L 397.295729 173.556945 
L 399.149118 172.101692 
L 400.075813 178.775769 
L 400.53916 190.195085 
L 401.002508 190.795633 
L 401.465855 191.701265 
L 401.929203 181.070009 
L 402.39255 183.242916 
L 402.855897 194.253887 
L 403.782592 192.014802 
L 404.245939 176.567904 
L 405.172634 174.544491 
L 405.635982 175.084023 
L 406.562676 145.011607 
L 407.026024 136.755317 
L 407.489371 145.51805 
L 407.952719 139.575708 
L 408.416066 145.470646 
L 408.879413 143.546033 
L 409.342761 137.7445 
L 409.806108 143.207626 
L 410.269456 153.98861 
L 410.732803 161.972204 
L 411.19615 176.259314 
L 412.122845 193.625197 
L 412.586193 204.828606 
L 413.04954 211.066178 
L 413.512887 210.263337 
L 414.439582 196.412032 
L 415.366277 188.934647 
L 415.829624 189.61968 
L 416.292972 186.549826 
L 416.756319 191.496656 
L 417.219667 186.507116 
L 417.683014 188.811444 
L 418.146361 191.894911 
L 432.046783 189.735618 
L 432.973478 175.325773 
L 433.436825 158.691392 
L 434.826868 163.211103 
L 441.313731 156.245554 
L 441.777078 147.369707 
L 445.02051 140.413546 
L 445.483858 136.484763 
L 445.947205 130.274885 
L 446.8739 142.280901 
L 447.337247 132.691626 
L 447.800595 136.155275 
L 448.263942 133.977207 
L 448.727289 137.018432 
L 449.190637 137.797337 
L 449.653984 144.208572 
L 450.580679 143.354102 
L 451.044026 146.170033 
L 451.507374 147.479316 
L 451.970721 149.295509 
L 452.434068 155.824084 
L 452.897416 154.622287 
L 453.360763 157.353733 
L 453.824111 154.490398 
L 454.287458 154.344663 
L 454.750805 142.507149 
L 455.214153 137.930647 
L 455.6775 130.796129 
L 456.140848 132.523143 
L 456.604195 126.965677 
L 457.067542 118.296349 
L 457.53089 111.814242 
L 457.994237 113.034347 
L 458.457585 111.414818 
L 458.920932 110.677688 
L 459.384279 108.60288 
L 459.847627 101.679574 
L 460.310974 103.017018 
L 460.774322 105.795401 
L 461.701016 97.149307 
L 462.164364 94.886754 
L 462.627711 87.860189 
L 463.091059 83.22267 
L 464.017753 65.292619 
L 464.944448 74.111442 
L 465.407796 71.900519 
L 465.871143 76.898978 
L 466.33449 83.788961 
L 466.797838 99.127439 
L 467.261185 108.448711 
L 467.724533 109.025791 
L 468.18788 105.904308 
L 469.114575 118.909829 
L 469.577922 124.490296 
L 470.041269 121.134132 
L 471.431312 155.124542 
L 471.894659 163.098749 
L 472.358006 164.994733 
L 472.821354 165.454473 
L 473.284701 168.284485 
L 473.748049 158.329108 
L 474.211396 154.339307 
L 474.674743 149.199572 
L 475.138091 141.703646 
L 475.601438 139.915148 
L 476.064786 143.72143 
L 476.528133 143.730584 
L 476.99148 144.739476 
L 477.918175 148.00576 
L 478.381523 146.771107 
L 478.84487 158.387554 
L 479.308217 158.917698 
L 479.771565 161.883825 
L 480.234912 174.603269 
L 480.69826 173.730025 
L 481.624954 179.507389 
L 482.551649 172.034697 
L 483.014997 169.720515 
L 483.478344 156.376353 
L 484.405039 146.965201 
L 484.868386 149.311771 
L 485.331733 150.639829 
L 486.721776 186.456052 
L 487.185123 190.712921 
L 487.64847 185.155455 
L 488.575165 165.516931 
L 489.50186 130.215836 
L 489.965207 115.163201 
L 490.428555 105.522296 
L 490.891902 106.005503 
L 491.818597 116.828497 
L 492.281944 130.557067 
L 492.745292 132.678344 
L 493.208639 131.856729 
L 493.671987 146.401987 
L 494.135334 154.944121 
L 494.598681 167.457047 
L 495.525376 158.646676 
L 495.988724 165.118929 
L 496.452071 175.918687 
L 496.915418 171.722368 
L 497.378766 175.101532 
L 497.842113 164.751892 
L 498.305461 166.999897 
L 498.768808 167.525347 
L 499.232155 163.25393 
L 499.695503 155.072737 
L 500.15885 144.436787 
L 500.622197 138.973194 
L 501.085545 139.681695 
L 501.548892 138.658254 
L 502.01224 133.537294 
L 502.475587 135.437972 
L 502.938934 132.499539 
L 503.402282 140.722507 
L 503.865629 140.567385 
L 504.328977 136.23495 
L 504.792324 128.912688 
L 505.255671 125.955481 
L 505.719019 124.767764 
L 506.182366 126.269485 
L 506.645714 124.92688 
L 507.109061 120.003051 
L 507.572408 112.845065 
L 508.035756 115.468558 
L 508.962451 129.985421 
L 509.425798 128.811785 
L 510.352493 128.778462 
L 510.81584 135.321119 
L 511.279188 135.250481 
L 511.742535 124.680241 
L 512.66923 115.069476 
L 513.132577 114.808379 
L 513.595925 115.124595 
L 514.059272 125.860621 
L 514.522619 128.035506 
L 514.985967 124.88784 
L 515.449314 131.164938 
L 515.912662 132.718289 
L 516.376009 132.300324 
L 516.839356 135.726424 
L 517.766051 109.958048 
L 518.229398 112.482975 
L 518.692746 111.600343 
L 519.156093 113.857735 
L 519.619441 117.321384 
L 520.546135 112.861989 
L 521.009483 126.13528 
L 521.47283 125.12592 
L 521.936178 125.735855 
L 522.399525 124.665479 
L 522.862872 117.864207 
L 523.32622 115.273102 
L 523.789567 123.871558 
L 524.252915 125.847334 
L 524.716262 130.582951 
L 525.179609 128.203057 
L 525.642957 125.025251 
L 526.106304 130.089421 
L 526.569652 132.586186 
L 527.496346 123.66317 
L 528.423041 114.322656 
L 528.886389 113.341458 
L 529.349736 110.051005 
L 529.813083 108.084149 
L 530.739778 94.157746 
L 531.203126 94.988281 
L 531.666473 94.786222 
L 532.12982 93.49994 
L 532.593168 97.118478 
L 533.056515 95.545886 
L 533.519862 101.08411 
L 533.98321 100.309431 
L 534.446557 99.309458 
L 534.909905 102.092534 
L 535.373252 117.163477 
L 535.836599 119.326996 
L 536.299947 113.375268 
L 536.763294 109.446484 
L 537.226642 119.654848 
L 537.689989 118.668957 
L 538.153336 126.047075 
L 538.616684 108.680491 
L 539.080031 104.775175 
L 539.543379 112.650816 
L 540.006726 111.768184 
L 540.470073 106.689466 
L 540.933421 111.373453 
L 541.396768 94.69683 
L 542.323463 101.736775 
L 542.78681 99.694821 
L 543.250158 104.111273 
L 543.713505 103.017429 
L 544.176853 102.233362 
L 544.6402 114.342638 
L 545.103547 117.304071 
L 545.566895 116.233695 
L 546.030242 116.425899 
L 546.49359 117.1344 
L 546.956937 116.838469 
L 547.420284 110.271877 
L 547.883632 106.483902 
L 548.346979 104.010137 
L 548.810327 104.033371 
L 549.273674 109.08346 
L 549.737021 110.716602 
L 550.200369 111.48612 
L 551.127063 114.259575 
L 551.590411 118.769899 
L 552.053758 117.845024 
L 552.517106 120.881555 
L 552.980453 122.256548 
L 553.4438 124.293341 
L 553.907148 128.695711 
L 554.370495 138.054533 
L 554.833843 142.11427 
L 555.760537 140.912239 
L 556.223885 137.128957 
L 557.15058 143.525878 
L 558.077274 134.659184 
L 558.540622 144.398188 
L 559.003969 145.360144 
L 559.467317 147.866297 
L 559.930664 155.78418 
L 560.857359 165.321125 
L 561.320706 166.273693 
L 561.784054 173.069804 
L 562.247401 167.559275 
L 562.710748 171.285766 
L 563.174096 159.485801 
L 563.637443 161.503819 
L 564.100791 159.668384 
L 564.564138 158.74351 
L 565.027485 152.533633 
L 565.490833 173.631168 
L 565.95418 181.243967 
L 566.417527 195.371494 
L 567.80757 215.661261 
L 568.270917 220.500138 
L 568.734264 213.93824 
L 569.197612 205.489511 
L 570.124307 207.925026 
L 570.587654 212.125572 
L 571.051001 211.796786 
L 571.977696 204.056558 
L 572.441044 218.935063 
L 572.904391 224.614095 
L 573.831086 219.86839 
L 574.294433 228.246247 
L 574.757781 232.503116 
L 575.221128 232.488801 
L 575.684475 215.309961 
L 576.147823 205.476618 
L 576.61117 198.933495 
L 577.074518 187.457389 
L 577.537865 180.200837 
L 578.001212 168.795135 
L 578.46456 164.138842 
L 578.927907 165.70158 
L 579.391255 163.190266 
L 579.854602 163.574908 
L 580.317949 168.920694 
L 580.781297 165.653709 
L 581.244644 168.366381 
L 581.707991 157.932256 
L 582.171339 156.495778 
L 582.634686 154.467906 
L 583.098034 146.150598 
L 583.561381 142.245282 
L 584.024728 142.310759 
L 584.488076 143.305571 
L 584.951423 155.452395 
L 585.414771 158.479539 
L 585.878118 159.155184 
L 586.341465 163.505926 
L 586.804813 165.796173 
L 587.26816 161.646789 
L 587.731508 160.726608 
L 588.658202 164.091458 
L 589.12155 164.668538 
L 589.584897 170.953046 
L 590.048245 175.280319 
L 590.511592 184.362217 
L 590.974939 187.938513 
L 591.438287 187.450144 
L 591.901634 193.227742 
L 592.364982 196.287741 
L 592.828329 197.723751 
L 593.291676 201.07006 
L 593.755024 197.019243 
L 594.218371 198.750951 
L 594.681719 196.00965 
L 595.145066 186.073047 
L 595.608413 182.59485 
L 596.535108 169.27885 
L 596.998456 157.722952 
L 597.461803 151.9355 
L 597.92515 144.739965 
L 598.388498 135.343127 
L 598.851845 130.405218 
L 599.315192 122.838888 
L 600.241887 128.053019 
L 600.705235 132.413147 
L 601.168582 123.288539 
L 602.095277 133.675027 
L 602.558624 136.650541 
L 603.021972 140.541308 
L 603.485319 139.151766 
L 603.948666 131.055059 
L 604.412014 136.4337 
L 604.875361 136.5555 
L 608.118793 137.7052 
L 608.58214 145.740424 
L 609.045488 140.858838 
L 609.508835 139.48807 
L 610.898877 158.473015 
L 611.362225 153.830802 
L 611.825572 159.096797 
L 612.28892 174.834232 
L 612.752267 179.278845 
L 613.215614 187.32815 
L 613.678962 192.279673 
L 614.142309 189.951409 
L 614.605656 201.422354 
L 615.069004 193.048723 
L 615.532351 192.090993 
L 615.995699 191.527527 
L 616.459046 192.268883 
L 616.922393 200.904889 
L 617.385741 203.589399 
L 617.849088 215.10728 
L 618.312436 222.072361 
L 618.775783 214.454401 
L 619.23913 218.302926 
L 619.702478 218.063318 
L 620.165825 208.929323 
L 620.629173 208.257903 
L 621.09252 191.651683 
L 621.555867 182.907258 
L 622.019215 186.342745 
L 622.94591 167.563151 
L 623.409257 170.998639 
L 623.872604 169.008315 
L 624.335952 165.990091 
L 624.799299 170.730402 
L 625.262647 176.906957 
L 626.189341 207.011292 
L 626.652689 205.307279 
L 627.116036 209.273144 
L 627.579384 218.392591 
L 628.506078 214.463808 
L 629.432773 199.758266 
L 629.896121 184.142397 
L 630.359468 182.194316 
L 631.286163 164.639754 
L 631.74951 165.88802 
L 632.212857 160.668494 
L 632.676205 161.020281 
L 633.139552 163.470111 
L 633.6029 162.385653 
L 634.066247 166.107451 
L 634.529594 177.132503 
L 634.992942 179.263168 
L 635.456289 183.097612 
L 635.919637 182.637405 
L 636.382984 194.699744 
L 636.846331 189.034325 
L 637.309679 187.180116 
L 637.773026 175.136084 
L 638.236374 169.541069 
L 638.699721 171.864171 
L 639.163068 180.950763 
L 639.626416 178.721066 
L 640.089763 194.669713 
L 640.553111 205.314583 
L 641.016458 223.652276 
L 641.479805 236.564159 
L 641.943153 241.365486 
L 642.4065 237.478945 
L 642.869848 223.590325 
L 643.333195 206.355161 
L 643.796542 193.377101 
L 644.25989 183.708034 
L 644.723237 180.685117 
L 645.186585 185.200134 
L 645.649932 190.846311 
L 646.113279 202.932119 
L 646.576627 219.91336 
L 647.039974 232.247928 
L 647.966669 238.959321 
L 648.430016 237.964042 
L 648.893364 232.636563 
L 650.746753 247.237444 
L 651.210101 253.39053 
L 651.673448 251.250011 
L 652.136795 247.720184 
L 652.600143 242.547594 
L 653.06349 234.774745 
L 653.526838 233.71845 
L 653.990185 236.248071 
L 654.453532 233.915114 
L 654.91688 233.023094 
L 655.380227 242.715162 
L 655.843575 245.906582 
L 656.306922 250.182225 
L 656.770269 241.250055 
L 658.160312 202.522392 
L 658.623659 194.9279 
L 659.087006 189.346967 
L 659.550354 185.83122 
L 660.013701 186.722772 
L 660.477049 194.105584 
L 660.940396 204.0558 
L 661.403743 209.195067 
L 661.867091 205.026909 
L 662.330438 196.315339 
L 662.793785 183.548491 
L 663.257133 180.079681 
L 663.72048 174.700572 
L 664.183828 167.767879 
L 665.110522 163.749683 
L 666.037217 181.284536 
L 666.500565 186.865002 
L 666.963912 189.939082 
L 667.427259 183.71043 
L 667.890607 182.888815 
L 668.817302 163.869847 
L 669.280649 155.026855 
L 669.743996 143.813591 
L 670.207344 126.583122 
L 670.670691 121.283805 
L 671.134039 120.13833 
L 671.597386 131.994151 
L 672.060733 128.605132 
L 672.987428 117.65917 
L 673.914123 136.104583 
L 674.37747 134.381796 
L 674.840818 126.421202 
L 675.304165 129.068164 
L 675.767513 135.27288 
L 676.23086 143.941741 
L 676.694207 143.167062 
L 677.157555 144.016371 
L 677.620902 147.836734 
L 678.08425 154.614071 
L 678.547597 152.454778 
L 679.010944 155.815167 
L 679.474292 154.56174 
L 680.400986 138.626473 
L 680.864334 140.24084 
L 681.327681 129.557954 
L 681.791029 133.551981 
L 682.254376 126.896211 
L 683.181071 153.29729 
L 683.644418 160.055852 
L 684.107766 158.107771 
L 684.571113 170.803748 
L 685.03446 170.207426 
L 685.497808 178.472636 
L 685.961155 164.133429 
L 686.424503 166.785084 
L 686.88785 164.804148 
L 687.814545 177.053998 
L 688.277892 178.053503 
L 688.74124 177.363309 
L 689.204587 186.816002 
L 689.667934 184.159186 
L 690.131282 187.627529 
L 690.594629 186.56654 
L 691.057977 178.465138 
L 691.521324 176.601542 
L 691.984671 170.30718 
L 692.911366 166.927314 
L 694.301408 146.715936 
L 694.764756 147.494841 
L 695.228103 163.429408 
L 695.69145 160.622396 
L 696.154798 155.205739 
L 696.618145 157.613326 
L 697.081493 157.899402 
L 697.54484 165.901771 
L 698.008187 165.779503 
L 698.471535 155.537816 
L 698.934882 152.951404 
L 699.39823 151.369425 
L 699.861577 147.008829 
L 700.324924 139.104559 
L 700.788272 133.730144 
L 701.251619 136.179974 
L 701.714967 129.092392 
L 702.178314 128.176904 
L 702.641661 137.563887 
L 703.105009 141.89116 
L 703.568356 148.710739 
L 704.031704 153.56839 
L 704.495051 150.428132 
L 704.958398 158.810683 
L 705.421746 156.458952 
L 705.885093 146.766417 
L 706.348441 143.579223 
L 706.811788 141.311977 
L 707.738483 133.618685 
L 708.20183 127.45105 
L 708.665178 135.683406 
L 709.128525 136.603119 
L 709.591872 136.992455 
L 710.05522 145.834979 
L 710.518567 152.086632 
L 710.981915 162.801906 
L 711.445262 168.471551 
L 711.908609 165.181098 
L 712.371957 170.193637 
L 712.835304 180.735248 
L 713.298651 171.32433 
L 713.761999 165.597894 
L 714.225346 163.654506 
L 714.688694 160.819333 
L 715.152041 166.240217 
L 715.615388 170.140372 
L 716.078736 167.281731 
L 716.542083 178.71982 
L 717.005431 195.161296 
L 717.468778 199.277357 
L 717.932125 196.080776 
L 718.85882 182.04642 
L 719.322168 180.182824 
L 719.785515 165.745051 
L 720.248862 147.697894 
L 720.71221 136.677068 
L 721.175557 143.759489 
L 721.638905 154.36681 
L 722.102252 155.816901 
L 723.492294 191.741078 
L 723.955642 211.759083 
L 724.418989 220.662624 
L 724.882336 223.581815 
L 725.345684 232.189659 
L 726.272379 215.653609 
L 726.735726 210.119612 
L 727.199073 202.787962 
L 727.662421 204.895158 
L 728.125768 197.718398 
L 728.589115 192.404999 
L 729.51581 209.700478 
L 729.979158 223.598019 
L 730.442505 227.146153 
L 730.905852 227.16 
L 731.3692 233.683882 
L 731.832547 233.552227 
L 732.295895 229.590588 
L 732.759242 233.16219 
L 733.222589 224.793253 
L 733.685937 221.376072 
L 734.149284 222.211301 
L 734.612632 217.104421 
L 735.075979 214.837175 
L 735.539326 211.227556 
L 736.002674 211.391599 
L 736.466021 211.006489 
L 736.929369 205.67901 
L 737.392716 197.878 
L 737.856063 201.003709 
L 738.319411 207.471268 
L 738.782758 216.445213 
L 739.246106 215.609517 
L 739.709453 210.727931 
L 740.1728 215.210093 
L 740.636148 229.445573 
L 741.099495 236.715738 
L 741.562843 241.484211 
L 742.02619 232.101454 
L 742.489537 229.674625 
L 742.952885 233.889251 
L 743.416232 244.172713 
L 743.879579 234.236111 
L 744.342927 235.367037 
L 744.806274 222.586108 
L 745.269622 227.251321 
L 746.196316 242.810165 
L 746.659664 229.132757 
L 747.123011 226.194324 
L 747.586359 212.094491 
L 748.513053 230.13156 
L 748.976401 226.057275 
L 749.439748 218.481557 
L 749.903096 219.537386 
L 750.366443 219.499603 
L 750.82979 222.17942 
L 751.293138 219.06263 
L 752.219833 192.214724 
L 752.68318 190.078898 
L 753.146527 197.593131 
L 753.609875 202.263038 
L 754.073222 202.943377 
L 754.53657 204.984863 
L 754.999917 206.31292 
L 755.926612 223.641255 
L 756.389959 217.947674 
L 756.853307 220.627491 
L 757.316654 227.470538 
L 757.780001 225.691427 
L 758.706696 234.740236 
L 759.170044 225.071169 
L 759.633391 226.831039 
L 760.560086 207.568003 
L 761.023433 207.689803 
L 761.950128 190.529504 
L 762.413475 192.021838 
L 762.876823 186.89149 
L 763.34017 188.275871 
L 763.803517 191.040173 
L 764.266865 187.134857 
L 764.730212 186.787296 
L 765.656907 181.375098 
L 767.046949 168.532685 
L 767.510297 170.067261 
L 767.973644 172.484236 
L 768.900339 182.485848 
L 769.363686 194.576349 
L 770.290381 207.685129 
L 770.753728 211.744867 
L 771.217076 219.174615 
L 771.680423 218.892765 
L 772.143771 217.001007 
L 772.607118 212.893866 
L 773.070465 214.475378 
L 773.533813 219.384659 
L 773.99716 226.46708 
L 774.460508 228.541421 
L 774.923855 234.821235 
L 775.387202 227.132871 
L 775.85055 226.203303 
L 776.313897 227.845832 
L 777.240592 218.805475 
L 777.703939 215.99377 
L 778.167287 210.53487 
L 778.630634 215.350278 
L 779.093981 211.787596 
L 779.557329 204.301057 
L 780.020676 204.981397 
L 780.484024 202.028883 
L 780.947371 203.539992 
L 781.874066 215.98228 
L 782.337413 226.261048 
L 782.800761 233.798749 
L 783.264108 233.620158 
L 784.190803 226.781104 
L 784.65415 225.654404 
L 785.117498 225.391328 
L 785.580845 220.824214 
L 786.044192 218.974698 
L 786.50754 220.42479 
L 786.970887 225.531202 
L 787.434235 218.424845 
L 787.897582 218.983151 
L 788.360929 213.191005 
L 789.750972 207.436173 
L 790.214319 210.90921 
L 790.677666 208.059956 
L 791.141014 212.68762 
L 791.604361 207.120767 
L 792.067709 205.280639 
L 792.531056 207.387835 
L 792.994403 206.477041 
L 793.457751 203.806145 
L 793.921098 202.909432 
L 794.384445 202.308416 
L 794.847793 194.901669 
L 795.31114 195.342634 
L 795.774488 197.834707 
L 796.237835 201.758329 
L 796.701182 196.656143 
L 797.16453 207.592017 
L 797.627877 211.173006 
L 798.091225 222.855164 
L 798.554572 227.74567 
L 799.944614 236.681599 
L 800.407962 223.952299 
L 800.871309 227.195349 
L 801.334656 235.962775 
L 801.798004 236.877795 
L 802.261351 236.497379 
L 802.724699 238.28541 
L 803.188046 243.124287 
L 803.651393 262.696399 
L 804.114741 267.108158 
L 804.578088 258.044566 
L 805.041436 267.961927 
L 805.504783 271.697805 
L 805.96813 277.663148 
L 806.431478 279.953395 
L 806.894825 270.439217 
L 807.358173 270.237158 
L 807.82152 270.955047 
L 808.284867 267.101361 
L 808.748215 265.204909 
L 809.211562 257.244316 
L 809.674909 243.266517 
L 810.138257 240.337472 
L 810.601604 239.647278 
L 811.064952 242.585243 
L 811.528299 237.177972 
L 811.991646 237.130802 
L 812.454994 236.140217 
L 812.918341 248.639062 
L 813.381689 250.159558 
L 813.845036 248.202089 
L 814.308383 242.447492 
L 814.771731 240.006582 
L 815.235078 235.500484 
L 815.698426 234.129717 
L 816.161773 229.961559 
L 816.62512 232.317517 
L 817.088468 233.955353 
L 817.551815 241.126952 
L 818.015163 241.502207 
L 818.47851 240.009406 
L 818.941857 232.823258 
L 819.405205 231.015985 
L 820.795247 204.360283 
L 821.258594 197.756143 
L 821.721942 186.430232 
L 822.185289 184.613572 
L 822.648637 185.453494 
L 823.111984 183.087682 
L 823.575331 187.480666 
L 824.038679 188.620979 
L 824.502026 192.309921 
L 825.428721 210.431475 
L 825.892068 208.703994 
L 826.355416 213.453691 
L 826.818763 216.410431 
L 827.28211 221.596634 
L 828.208805 218.92081 
L 828.672153 215.705455 
L 829.1355 213.940424 
L 829.598847 216.915938 
L 830.062195 207.528488 
L 830.525542 206.251593 
L 830.98889 210.653964 
L 831.452237 210.663117 
L 831.915584 212.845412 
L 832.378932 210.559391 
L 832.842279 214.121606 
L 833.305627 209.277568 
L 833.768974 201.528187 
L 834.232321 190.957948 
L 834.695669 187.906869 
L 835.159016 180.035454 
L 835.622364 174.102499 
L 836.549058 165.968009 
L 837.012406 168.769859 
L 837.475753 169.872624 
L 837.939101 162.681782 
L 838.402448 158.255476 
L 838.865795 167.116775 
L 839.329143 161.610938 
L 839.79249 170.289186 
L 840.255838 162.577354 
L 840.719185 170.462382 
L 841.182532 175.141676 
L 841.64588 182.519795 
L 842.109227 178.431428 
L 843.035922 166.495115 
L 843.499269 181.115471 
L 843.962617 173.802596 
L 844.425964 185.461285 
L 844.889311 189.919979 
L 845.352659 188.079851 
L 845.816006 189.736461 
L 846.279354 196.969077 
L 846.742701 191.716696 
L 847.206048 198.212416 
L 847.669396 193.865901 
L 850.912828 174.912877 
L 851.376175 169.796611 
L 851.839522 170.467563 
L 852.30287 164.66603 
L 852.766217 156.315867 
L 853.229565 150.636367 
L 853.692912 143.013714 
L 854.156259 159.253364 
L 854.619607 164.054692 
L 855.082954 170.939982 
L 855.546302 169.26413 
L 856.009649 168.226609 
L 856.472996 163.711124 
L 856.936344 166.606846 
L 857.399691 171.933858 
L 857.863038 173.51537 
L 858.326386 177.748771 
L 859.253081 192.087277 
L 859.716428 188.660709 
L 860.179775 184.267258 
L 860.643123 172.847476 
L 861.10647 168.641769 
L 861.569818 153.326292 
L 862.033165 145.605072 
L 862.496512 148.566505 
L 862.95986 157.826761 
L 863.423207 170.992098 
L 863.886555 174.685734 
L 864.349902 175.520963 
L 864.813249 176.788003 
L 865.276597 176.036792 
L 865.739944 171.995362 
L 866.203292 175.069442 
L 866.666639 165.747702 
L 867.129986 161.025698 
L 868.056681 166.075787 
L 868.520029 169.393934 
L 868.983376 171.341548 
L 869.446723 170.81563 
L 870.373418 195.254781 
L 870.836766 187.96068 
L 871.76346 185.604021 
L 872.226808 200.872095 
L 873.153503 196.220496 
L 875.933587 174.950808 
L 879.640366 169.505251 
L 880.567061 172.268815 
L 881.030408 184.03472 
L 881.493756 188.624098 
L 882.883798 172.946476 
L 883.347145 176.733247 
L 883.810493 184.179054 
L 884.27384 179.011157 
L 884.737187 191.096965 
L 885.200535 183.723073 
L 885.663882 181.35726 
L 886.12723 186.346332 
L 886.590577 193.860565 
L 887.053924 197.413393 
L 887.517272 204.81498 
L 887.980619 205.415528 
L 888.443967 203.739676 
L 888.907314 211.347781 
L 889.370661 208.77545 
L 891.224051 200.007556 
L 891.687398 195.703284 
L 892.150746 190.263158 
L 892.614093 192.952362 
L 893.07744 194.139611 
L 894.004135 187.554245 
L 894.467483 197.002245 
L 894.93083 196.894058 
L 895.394177 198.968399 
L 895.857525 207.834391 
L 896.320872 207.726205 
L 896.78422 207.153351 
L 897.247567 201.652208 
L 897.710914 194.470754 
L 898.174262 201.57195 
L 898.637609 205.443943 
L 899.100957 198.032502 
L 899.564304 197.117014 
L 900.027651 184.608315 
L 900.490999 192.094386 
L 901.417694 183.321565 
L 901.881041 180.34089 
L 902.344388 176.402719 
L 902.807736 168.953729 
L 903.271083 175.486998 
L 903.734431 169.122231 
L 904.197778 171.989792 
L 904.661125 175.575475 
L 905.124473 172.238086 
L 905.58782 170.674881 
L 906.051168 168.126018 
L 906.514515 170.425652 
L 906.977862 181.065828 
L 907.44121 178.915922 
L 907.904557 170.875538 
L 908.367904 167.791603 
L 908.831252 165.468033 
L 909.294599 164.463368 
L 909.757947 162.163266 
L 910.221294 154.249609 
L 911.147989 169.98681 
L 911.611336 183.349279 
L 912.074684 185.503411 
L 912.538031 191.318558 
L 913.464726 194.232821 
L 914.854768 160.724451 
L 915.318115 163.526301 
L 915.781463 159.578743 
L 916.24481 157.217625 
L 916.708158 153.617393 
L 917.171505 159.179085 
L 917.634852 158.592151 
L 918.0982 162.262319 
L 918.561547 158.033144 
L 919.024895 163.754419 
L 919.488242 167.518459 
L 919.951589 168.771418 
L 920.414937 168.564666 
L 920.878284 172.78868 
L 921.341632 165.649468 
L 921.804979 170.18326 
L 922.268326 165.034138 
L 923.195021 184.976812 
L 924.121716 192.8663 
L 924.585063 210.532808 
L 925.048411 215.188633 
L 925.511758 214.888009 
L 925.975105 199.253366 
L 927.365148 180.497006 
L 928.291842 156.488733 
L 928.75519 157.056426 
L 929.218537 162.909121 
L 929.681885 151.522194 
L 930.145232 149.508402 
L 930.608579 151.456016 
L 931.071927 159.021879 
L 932.461969 167.103571 
L 932.925316 175.387556 
L 933.388664 180.625389 
L 933.852011 187.294773 
L 934.315359 188.350601 
L 934.778706 192.926635 
L 935.242053 198.737089 
L 935.705401 209.74806 
L 936.168748 211.2357 
L 936.632096 215.426858 
L 937.095443 212.413328 
L 937.55879 213.511399 
L 938.022138 223.330194 
L 938.485485 218.105974 
L 938.948832 204.780586 
L 939.41218 205.536024 
L 939.875527 204.770732 
L 940.338875 209.891225 
L 940.802222 208.853704 
L 941.265569 200.714753 
L 941.728917 196.452723 
L 942.192264 204.976082 
L 942.655612 209.467631 
L 943.118959 208.519289 
L 943.582306 200.896635 
L 944.045654 198.713874 
L 944.509001 197.554319 
L 944.972349 209.724611 
L 946.825738 234.186763 
L 947.289086 234.439984 
L 947.752433 229.187603 
L 948.21578 230.163639 
L 948.679128 226.000175 
L 949.142475 220.466177 
L 949.605823 216.992674 
L 950.06917 223.924899 
L 950.532517 218.64905 
L 950.995865 229.936944 
L 951.459212 223.534629 
L 951.92256 212.898679 
L 952.385907 218.357111 
L 952.849254 219.957398 
L 953.312602 212.775944 
L 953.775949 213.550155 
L 954.239297 210.26909 
L 954.702644 212.972374 
L 955.165991 219.317899 
L 955.629339 211.770343 
L 956.092686 211.535429 
L 956.556033 211.624374 
L 957.019381 217.552167 
L 957.482728 212.717517 
L 957.946076 206.329283 
L 958.409423 205.563991 
L 958.87277 217.62633 
L 959.799465 232.851928 
L 960.262813 230.495503 
L 961.189507 244.115887 
L 961.652855 244.96989 
L 962.116202 243.735237 
L 962.57955 244.880244 
L 963.042897 246.874794 
L 963.506244 253.182769 
L 964.432939 275.908753 
L 964.896287 291.162746 
L 965.359634 285.938526 
L 965.822981 277.292666 
L 966.286329 275.522942 
L 966.749676 265.844488 
L 967.213024 248.975427 
L 967.676371 241.207271 
L 968.139718 236.433638 
L 968.603066 239.704849 
L 969.529761 229.655367 
L 969.993108 233.658781 
L 970.456455 234.141989 
L 970.919803 235.413723 
L 971.38315 235.117792 
L 971.846497 239.285482 
L 972.773192 272.961654 
L 973.23654 286.845114 
L 973.699887 304.516315 
L 974.163234 302.272536 
L 974.626582 295.372699 
L 975.089929 292.072858 
L 976.016624 281.511772 
L 976.479971 280.413234 
L 976.943319 269.918093 
L 977.406666 280.051359 
L 977.870014 281.036783 
L 978.333361 278.464452 
L 978.796708 272.17009 
L 979.260056 258.858783 
L 979.723403 237.103675 
L 980.186751 228.054165 
L 980.650098 212.888883 
L 981.113445 205.660492 
L 981.576793 201.23888 
L 982.04014 205.706961 
L 982.503488 207.330716 
L 982.966835 228.29683 
L 983.430182 224.76231 
L 983.89353 228.906532 
L 984.356877 231.910207 
L 984.820225 229.844786 
L 985.283572 218.795799 
L 985.746919 219.279007 
L 986.210267 216.791161 
L 986.673614 219.424041 
L 987.600309 203.958135 
L 988.063656 206.731823 
L 988.527004 191.866932 
L 989.453698 172.007808 
L 989.917046 172.2094 
L 990.380393 173.424811 
L 990.843741 177.691067 
L 991.307088 166.501271 
L 991.770435 172.762311 
L 992.233783 181.046296 
L 993.160478 175.488596 
L 993.623825 170.015615 
L 994.087172 162.008086 
L 994.55052 160.740578 
L 995.940562 171.755775 
L 996.403909 177.59439 
L 997.793952 213.654681 
L 998.257299 218.202554 
L 998.720646 216.169988 
L 999.183994 215.653457 
L 999.647341 227.584376 
L 1000.110689 221.937731 
L 1000.574036 214.634243 
L 1001.037383 202.740406 
L 1001.500731 194.89246 
L 1001.964078 205.119598 
L 1002.427426 208.113887 
L 1002.890773 206.039078 
L 1003.35412 208.906639 
L 1003.817468 203.541611 
L 1004.280815 217.547104 
L 1004.744162 225.723136 
L 1006.134205 204.930218 
L 1007.060899 183.681786 
L 1007.524247 182.015322 
L 1007.987594 191.974924 
L 1008.450942 179.761922 
L 1008.914289 173.688159 
L 1009.840984 177.635017 
L 1010.304331 176.311185 
L 1010.767679 164.943032 
L 1011.231026 156.531853 
L 1011.694373 157.96317 
L 1012.157721 163.463845 
L 1012.621068 158.55879 
L 1013.084416 156.047476 
L 1013.547763 160.632898 
L 1014.474458 178.918728 
L 1024.6681 186.479897 
L 1025.131448 179.542511 
L 1025.594795 175.548016 
L 1026.058143 180.452603 
L 1026.52149 177.396831 
L 1026.984837 179.339751 
L 1027.911532 174.293888 
L 1028.37488 160.137732 
L 1028.838227 157.466835 
L 1029.301574 162.028789 
L 1029.764922 156.203787 
L 1030.228269 143.033289 
L 1030.691617 137.583776 
L 1031.618311 132.439348 
L 1032.081659 126.093356 
L 1032.545006 125.792731 
L 1033.008354 124.647257 
L 1033.471701 120.732554 
L 1034.398396 127.50027 
L 1034.861743 120.722466 
L 1035.788438 143.734759 
L 1036.251785 152.549122 
L 1036.715133 164.719414 
L 1037.17848 169.966635 
L 1037.641827 165.535635 
L 1038.105175 180.592496 
L 1038.568522 183.253538 
L 1039.495217 167.665598 
L 1039.958564 155.339949 
L 1040.421912 154.997082 
L 1040.885259 148.439878 
L 1041.348607 133.279289 
L 1041.811954 126.92391 
L 1042.275301 124.238932 
L 1042.738649 125.585764 
L 1043.201996 131.335201 
L 1043.665344 128.795725 
L 1044.128691 124.538389 
L 1044.592038 122.407257 
L 1045.055386 122.998418 
L 1045.518733 132.732728 
L 1045.982081 133.239403 
L 1046.445428 124.527833 
L 1046.908775 135.707774 
L 1047.372123 143.372203 
L 1047.83547 154.843147 
L 1048.298818 159.513054 
L 1048.762165 147.745944 
L 1049.68886 145.187694 
L 1050.152207 142.803107 
L 1050.615555 133.471981 
L 1051.078902 137.090519 
L 1051.542249 125.046486 
L 1052.005597 117.996453 
L 1052.468944 135.226455 
L 1052.932291 138.591539 
L 1053.858986 150.494062 
L 1054.322334 160.711813 
L 1055.249028 197.157214 
L 1055.712376 185.812529 
L 1056.175723 192.416202 
L 1056.639071 197.325483 
L 1057.102418 198.709863 
L 1058.029113 179.794155 
L 1058.49246 167.154034 
L 1058.955808 163.905823 
L 1059.419155 149.059707 
L 1060.34585 109.820675 
L 1060.809197 105.577419 
L 1061.272545 117.024896 
L 1061.735892 114.630922 
L 1062.199239 126.904474 
L 1063.125934 165.696678 
L 1063.589282 178.172055 
L 1064.052629 184.925924 
L 1064.515976 177.049816 
L 1064.979324 189.436014 
L 1065.442671 175.012322 
L 1065.906019 169.112223 
L 1066.369366 172.322417 
L 1066.832713 184.417612 
L 1067.296061 193.011375 
L 1067.759408 207.063805 
L 1068.222756 204.65575 
L 1068.686103 216.544426 
L 1069.14945 212.822161 
L 1069.612798 201.820109 
L 1070.076145 195.938784 
L 1070.539492 187.752898 
L 1071.00284 171.564409 
L 1071.466187 169.461439 
L 1071.929535 176.651813 
L 1072.392882 185.780648 
L 1072.856229 200.541812 
L 1073.319577 197.284214 
L 1073.782924 198.293106 
L 1074.246272 198.508779 
L 1074.709619 194.589382 
L 1075.636314 177.630908 
L 1076.099661 176.541757 
L 1076.563009 184.595755 
L 1077.489703 192.367903 
L 1077.953051 199.04198 
L 1078.416398 207.593501 
L 1078.879746 209.879054 
L 1079.343093 210.681428 
L 1079.80644 197.703367 
L 1080.269788 201.260888 
L 1080.733135 208.868994 
L 1081.196483 205.390796 
L 1081.65983 197.453671 
L 1082.586525 205.066236 
L 1083.049872 215.363779 
L 1083.51322 201.357818 
L 1083.976567 215.344537 
L 1084.439914 222.431652 
L 1084.903262 220.722945 
L 1085.366609 231.034568 
L 1086.293304 234.681035 
L 1086.756651 223.90897 
L 1087.219999 209.241211 
L 1087.683346 202.125467 
L 1088.146693 204.24205 
L 1088.610041 197.675459 
L 1089.073388 187.353981 
L 1089.536736 185.349576 
L 1090.000083 207.68153 
L 1090.46343 206.428103 
L 1090.926778 211.182495 
L 1091.390125 201.311603 
L 1092.31682 212.247243 
L 1092.780167 214.805026 
L 1093.243515 208.834522 
L 1093.706862 209.331811 
L 1094.17021 207.083339 
L 1094.633557 221.210866 
L 1095.096904 210.992647 
L 1095.560252 221.961376 
L 1096.486947 235.638083 
L 1096.950294 229.878792 
L 1097.876989 223.236869 
L 1098.340336 221.945893 
L 1098.803684 215.46848 
L 1099.267031 206.325097 
L 1099.730378 203.428907 
L 1100.657073 211.393493 
L 1101.120421 212.026896 
L 1101.583768 216.47151 
L 1102.047115 211.721345 
L 1102.510463 212.256182 
L 1102.97381 208.562079 
L 1103.437157 203.220519 
L 1103.900505 199.296429 
L 1104.363852 201.229962 
L 1104.8272 195.541075 
L 1105.753894 204.031345 
L 1106.217242 200.487437 
L 1106.680589 204.321881 
L 1107.143937 205.22282 
L 1107.607284 204.898727 
L 1108.070631 208.4187 
L 1108.533979 213.116768 
L 1108.997326 206.629968 
L 1109.460674 221.588263 
L 1110.850716 240.343455 
L 1111.314063 245.008667 
L 1111.777411 257.554449 
L 1112.240758 264.374028 
L 1112.704105 278.501555 
L 1113.167453 280.266118 
L 1113.6308 286.775919 
L 1114.094148 288.79863 
L 1114.557495 298.335808 
L 1115.48419 291.142251 
L 1115.947537 288.773724 
L 1116.410885 284.185119 
L 1116.874232 288.274997 
L 1117.337579 282.090565 
L 1117.800927 277.778884 
L 1118.264274 272.279719 
L 1118.727621 275.489914 
L 1119.190969 271.481339 
L 1119.654316 274.344206 
L 1120.117664 264.961449 
L 1120.581011 270.56069 
L 1121.044358 272.038943 
L 1121.507706 275.840532 
L 1122.434401 277.935626 
L 1122.897748 281.80021 
L 1123.361095 283.120858 
L 1123.824443 291.78231 
L 1124.28779 281.674022 
L 1124.751138 276.780333 
L 1125.677832 249.638708 
L 1126.14118 241.959731 
L 1126.604527 231.408266 
L 1127.531222 214.379622 
L 1127.994569 217.669607 
L 1128.921264 225.840945 
L 1129.384612 227.995078 
L 1129.847959 238.935645 
L 1130.311306 246.130713 
L 1131.238001 277.74639 
L 1132.628043 289.503645 
L 1133.091391 290.995979 
L 1133.554738 299.411385 
L 1134.018085 299.035663 
L 1134.481433 300.70166 
L 1134.94478 287.601566 
L 1135.408128 284.869652 
L 1135.871475 275.782593 
L 1136.334822 248.352912 
L 1137.261517 239.922725 
L 1137.724865 240.213495 
L 1138.651559 245.784574 
L 1139.578254 261.108737 
L 1140.504949 287.693101 
L 1140.968296 294.540841 
L 1141.431644 289.67803 
L 1141.894991 286.467368 
L 1142.358339 281.951883 
L 1144.211728 272.667692 
L 1145.138423 274.197575 
L 1148.845202 258.633336 
L 1149.771897 242.749932 
L 1153.478676 241.853219 
L 1159.038845 225.068643 
L 1165.062361 210.813921 
L 1165.989056 177.169669 
L 1166.452403 178.427323 
L 1166.91575 177.187976 
L 1167.842445 170.170798 
L 1168.305793 179.99898 
L 1168.76914 181.087664 
L 1169.232487 190.333838 
L 1169.695835 175.924227 
L 1171.085877 153.126905 
L 1171.549224 154.501898 
L 1172.012572 142.889678 
L 1172.475919 145.808868 
L 1172.939267 143.264699 
L 1173.402614 150.839949 
L 1173.865961 148.887174 
L 1174.329309 151.477812 
L 1174.792656 137.659596 
L 1175.256004 135.753757 
L 1175.719351 131.289902 
L 1176.182698 116.678466 
L 1176.646046 120.958803 
L 1177.109393 122.573171 
L 1178.036088 131.340363 
L 1178.499435 130.072855 
L 1178.962783 122.774061 
L 1179.42613 119.652578 
L 1179.889478 105.731102 
L 1180.352825 102.769201 
L 1180.816172 101.825553 
L 1181.27952 106.903803 
L 1181.742867 105.359372 
L 1182.206215 104.753663 
L 1182.669562 116.417046 
L 1184.059604 136.275001 
L 1184.522951 138.569942 
L 1184.986299 139.193958 
L 1185.449646 144.788505 
L 1185.912994 140.37628 
L 1186.376341 133.743978 
L 1187.303036 112.655129 
L 1187.766383 109.242642 
L 1188.229731 110.918026 
L 1188.693078 117.615571 
L 1189.156425 128.110246 
L 1189.619773 134.789017 
L 1190.08312 147.236232 
L 1190.546468 153.342382 
L 1191.009815 155.928327 
L 1191.473162 153.210494 
L 1191.93651 153.444941 
L 1192.399857 138.096608 
L 1192.863205 131.163915 
L 1193.326552 121.968903 
L 1193.789899 115.500877 
L 1194.253247 111.435979 
L 1194.716594 115.035742 
L 1195.179942 104.512439 
L 1195.643289 103.653275 
L 1196.106636 100.372209 
L 1196.569984 101.888011 
L 1197.033331 106.051008 
L 1197.496679 100.409057 
L 1197.960026 96.395788 
L 1198.423373 95.386429 
L 1198.886721 104.632603 
L 1199.350068 117.075125 
L 1199.813415 108.973723 
L 1200.276763 98.22982 
L 1200.74011 91.395693 
L 1201.203458 86.345137 
L 1201.666805 86.401227 
L 1202.5935 69.930888 
L 1203.056847 66.466771 
L 1203.520195 67.35363 
L 1203.983542 81.880113 
L 1204.446889 88.652756 
L 1204.910237 88.408455 
L 1205.373584 96.833248 
L 1205.836932 98.292727 
L 1206.300279 102.873454 
L 1206.763626 111.969434 
L 1207.226974 106.346257 
L 1207.690321 108.129595 
L 1208.153669 102.797422 
L 1209.080363 86.754202 
L 1210.007058 86.746559 
L 1210.470406 78.600199 
L 1210.933753 73.950578 
L 1211.860448 60.300594 
L 1212.323795 58.281372 
L 1212.787143 63.302562 
L 1213.25049 60.429102 
L 1214.177185 55.8 
L 1214.640532 56.440075 
L 1215.103879 68.056522 
L 1215.567227 74.847939 
L 1216.030574 68.802338 
L 1216.493922 77.048774 
L 1216.957269 77.766663 
L 1217.420616 81.281941 
L 1217.883964 88.847804 
L 1218.347311 93.663213 
L 1218.810659 91.977973 
L 1219.274006 96.967045 
L 1219.737353 99.520135 
L 1220.200701 105.706076 
L 1220.664048 106.484982 
L 1221.127396 100.364283 
L 1221.590743 102.161701 
L 1222.05409 108.652728 
L 1222.980785 128.233994 
L 1223.90748 140.291406 
L 1224.370827 149.645534 
L 1224.834175 141.28129 
L 1225.297522 142.14468 
L 1226.224217 137.727761 
L 1226.687564 123.881383 
L 1227.150912 118.023526 
L 1227.614259 124.340889 
L 1228.077607 128.654082 
L 1228.540954 134.361275 
L 1229.004301 130.920627 
L 1229.467649 118.449476 
L 1229.930996 128.70947 
L 1230.394344 130.830747 
L 1230.857691 129.553852 
L 1231.321038 123.799255 
L 1232.247733 120.443091 
L 1232.71108 127.924469 
L 1233.174428 143.666597 
L 1233.637775 140.582663 
L 1234.56447 148.594185 
L 1235.027817 148.833325 
L 1235.491165 151.245606 
L 1235.954512 151.118645 
L 1236.41786 142.364832 
L 1236.881207 145.617269 
L 1237.344554 138.384185 
L 1237.807902 134.075219 
L 1238.271249 135.567552 
L 1238.734597 138.364709 
L 1239.197944 138.472429 
L 1239.661291 151.99448 
L 1240.124639 149.088903 
L 1240.587986 162.052415 
L 1241.051334 165.910327 
L 1241.514681 167.839167 
L 1241.978028 163.135938 
L 1242.904723 140.70941 
L 1243.368071 143.070061 
L 1243.831418 140.065918 
L 1244.294765 138.000497 
L 1244.758113 137.127252 
L 1245.22146 141.172909 
L 1246.148155 155.732014 
L 1246.611502 149.442345 
L 1247.07485 148.16545 
L 1247.538197 162.185024 
L 1248.001544 164.874228 
L 1248.464892 157.026281 
L 1248.928239 156.279764 
L 1249.391587 158.753062 
L 1249.854934 164.028444 
L 1250.318281 160.770846 
L 1250.781629 142.75185 
L 1251.244976 139.311202 
L 1252.635018 154.541493 
L 1253.098366 146.993937 
L 1253.561713 160.173356 
L 1254.025061 161.834659 
L 1254.488408 167.954891 
L 1254.951755 170.536142 
L 1255.415103 158.064991 
L 1255.87845 161.157845 
L 1256.341798 156.515633 
L 1256.805145 140.30837 
L 1257.268492 133.422613 
L 1258.195187 130.390074 
L 1258.658535 145.653455 
L 1259.121882 141.114502 
L 1260.511924 181.51638 
L 1260.975272 185.228791 
L 1261.901966 181.013463 
L 1262.365314 187.28389 
L 1262.828661 183.444285 
L 1263.292009 181.726191 
L 1263.755356 176.736651 
L 1264.218703 173.694959 
L 1264.682051 185.564861 
L 1265.145398 176.430866 
L 1265.608745 171.760492 
L 1266.072093 175.463515 
L 1266.53544 172.43121 
L 1266.998788 180.081558 
L 1267.462135 179.292798 
L 1267.925482 167.685271 
L 1268.38883 176.31189 
L 1268.852177 175.846989 
L 1269.315525 175.555751 
L 1269.778872 174.457213 
L 1270.242219 172.523213 
L 1270.705567 186.711757 
L 1271.168914 196.169144 
L 1272.095609 202.519128 
L 1272.558956 203.57965 
L 1273.022304 205.935608 
L 1273.485651 211.281394 
L 1273.948999 195.496556 
L 1274.412346 183.832705 
L 1274.875693 182.199096 
L 1275.339041 174.848672 
L 1275.802388 175.369429 
L 1276.265736 171.159028 
L 1276.729083 164.094914 
L 1277.19243 168.300154 
L 1277.655778 177.593264 
L 1278.119125 168.407639 
L 1278.582473 162.531008 
L 1279.04582 162.788923 
L 1279.509167 159.381129 
L 1279.972515 154.269556 
L 1280.435862 154.208306 
L 1280.899209 152.030238 
L 1281.362557 158.403924 
L 1281.825904 169.414895 
L 1282.289252 168.07229 
L 1282.752599 171.920815 
L 1283.679294 184.198827 
L 1284.142641 183.236403 
L 1284.605989 186.357419 
L 1285.069336 185.911292 
L 1285.996031 177.307441 
L 1286.459378 173.918422 
L 1286.922726 173.735138 
L 1287.386073 173.368803 
L 1287.84942 167.337282 
L 1288.776115 172.509171 
L 1289.239463 182.595502 
L 1289.70281 182.567106 
L 1290.629505 186.082152 
L 1291.092852 190.254536 
L 1291.5562 185.10072 
L 1292.019547 184.739078 
L 1292.946242 173.309909 
L 1293.409589 176.773558 
L 1293.872937 177.960807 
L 1294.799631 177.861774 
L 1295.262979 177.636247 
L 1295.726326 183.676687 
L 1297.116368 198.742936 
L 1297.579716 205.895761 
L 1298.043063 201.173758 
L 1298.50641 212.578992 
L 1298.969758 220.06037 
L 1299.433105 220.210331 
L 1299.896453 219.017921 
L 1300.3598 214.056544 
L 1300.823147 216.797377 
L 1301.286495 217.013049 
L 1301.749842 217.355449 
L 1302.21319 220.490546 
L 1302.676537 222.180011 
L 1303.139884 228.990203 
L 1303.603232 229.689317 
L 1304.066579 224.042672 
L 1304.993274 227.501628 
L 1305.456621 216.391624 
L 1305.919969 213.77705 
L 1306.383316 220.315013 
L 1306.846664 216.367454 
L 1307.310011 217.32941 
L 1307.773358 213.372465 
L 1308.700053 210.598309 
L 1309.163401 217.366258 
L 1309.626748 217.323782 
L 1310.090095 218.220027 
L 1311.01679 209.123347 
L 1311.480138 217.224281 
L 1311.943485 219.575545 
L 1312.406832 216.233463 
L 1312.87018 216.801156 
L 1313.333527 214.069242 
L 1313.796874 217.561053 
L 1314.260222 214.861994 
L 1315.186917 183.423739 
L 1315.650264 176.993262 
L 1316.113611 168.582082 
L 1316.576959 168.548993 
L 1317.040306 166.056454 
L 1318.430348 189.087288 
L 1318.893696 192.419516 
L 1319.357043 200.867777 
L 1319.820391 195.253988 
L 1320.283738 195.582307 
L 1321.210433 209.047802 
L 1321.67378 221.105448 
L 1322.137128 228.21603 
L 1322.600475 219.189988 
L 1323.063822 222.916479 
L 1323.52717 221.639584 
L 1323.990517 213.073515 
L 1324.453865 211.56194 
L 1324.917212 197.800047 
L 1325.380559 188.595647 
L 1325.843907 199.550295 
L 1326.307254 203.544322 
L 1326.770602 198.869255 
L 1327.233949 196.972803 
L 1327.697296 186.350934 
L 1328.160644 187.392681 
L 1328.623991 177.061816 
L 1329.087338 160.23969 
L 1329.550686 149.387834 
L 1330.014033 149.922672 
L 1330.477381 143.360774 
L 1330.940728 147.645805 
L 1331.404075 148.274514 
L 1331.867423 169.522245 
L 1332.33077 183.781193 
L 1332.794118 191.492558 
L 1333.720812 212.603941 
L 1334.18416 221.723388 
L 1334.647507 220.385476 
L 1335.110855 204.150051 
L 1335.574202 200.948776 
L 1336.037549 200.375923 
L 1336.500897 199.094334 
L 1337.427592 185.534032 
L 1337.890939 182.027673 
L 1338.354286 183.792236 
L 1339.280981 175.305725 
L 1339.744329 162.909672 
L 1340.207676 161.130561 
L 1340.671023 155.784307 
L 1341.134371 154.873514 
L 1341.597718 159.745245 
L 1342.061066 160.669652 
L 1342.98776 148.113783 
L 1343.451108 144.574569 
L 1343.914455 144.54148 
L 1344.377803 153.83459 
L 1344.84115 148.920149 
L 1345.304497 148.966851 
L 1345.767845 162.690728 
L 1346.694539 178.798724 
L 1347.157887 182.191969 
L 1347.621234 174.775834 
L 1348.084582 181.712754 
L 1348.547929 172.82752 
L 1349.011276 158.568104 
L 1349.474624 162.059915 
L 1349.937971 162.740254 
L 1350.401319 159.060232 
L 1350.864666 162.148392 
L 1351.791361 158.050405 
L 1352.254708 161.772203 
L 1352.718056 153.863239 
L 1353.181403 150.286476 
L 1353.64475 151.520661 
L 1354.108098 146.221344 
L 1354.571445 142.438062 
L 1355.034793 155.22791 
L 1355.49814 156.579436 
L 1355.961487 153.317144 
L 1356.424835 147.004008 
L 1356.888182 146.825417 
L 1357.35153 151.316966 
L 1357.814877 166.463006 
L 1358.278224 164.93735 
L 1358.741572 157.403875 
L 1359.204919 158.276652 
L 1359.668267 158.773941 
L 1360.594961 127.612609 
L 1361.058309 105.876275 
L 1361.521656 95.047887 
L 1361.985003 99.64739 
L 1362.448351 105.58457 
L 1362.911698 101.735578 
L 1363.375046 107.851116 
L 1363.838393 122.49494 
L 1364.30174 124.498877 
L 1364.765088 134.984164 
L 1365.228435 133.660333 
L 1365.691783 125.896871 
L 1366.15513 127.032491 
L 1366.618477 127.858332 
L 1367.081825 130.463051 
L 1367.545172 124.506628 
L 1368.00852 112.326481 
L 1368.935214 117.944263 
L 1369.398562 121.37975 
L 1369.861909 134.718751 
L 1370.325257 123.641602 
L 1371.251951 130.409551 
L 1371.715299 140.195491 
L 1372.178646 134.990046 
L 1372.641994 134.816149 
L 1373.105341 124.602623 
L 1373.568688 120.894439 
L 1374.032036 123.377124 
L 1374.495383 114.956557 
L 1374.958731 102.452551 
L 1375.885425 117.373064 
L 1376.348773 127.539186 
L 1376.81212 123.150429 
L 1377.275467 126.341849 
L 1377.738815 130.997674 
L 1378.202162 142.177615 
L 1378.66551 139.121843 
L 1379.128857 132.08589 
L 1379.592204 132.42829 
L 1380.055552 129.062739 
L 1380.518899 117.788459 
L 1380.982247 120.449501 
L 1381.445594 111.625283 
L 1381.908941 117.768983 
L 1382.372289 116.726768 
L 1382.835636 112.877776 
L 1383.298984 119.448594 
L 1383.762331 130.633228 
L 1384.225678 127.267678 
L 1384.689026 139.55531 
L 1385.152373 136.311793 
L 1385.615721 142.014294 
L 1386.079068 139.404414 
L 1386.542415 126.94265 
L 1387.005763 130.556495 
L 1387.46911 132.485334 
L 1387.932458 125.336735 
L 1388.859152 104.022593 
L 1389.3225 108.720661 
L 1389.785847 117.272181 
L 1390.249195 111.085772 
L 1390.712542 120.172364 
L 1391.175889 125.560392 
L 1391.639237 133.243595 
L 1392.102584 148.81206 
L 1392.565932 156.575054 
L 1393.029279 167.313796 
L 1393.492626 173.612385 
L 1393.955974 170.373562 
L 1394.419321 162.924572 
L 1394.882668 167.664882 
L 1395.346016 151.274569 
L 1395.809363 151.978376 
L 1396.272711 146.744769 
L 1396.736058 144.313246 
L 1397.199405 135.667386 
L 1397.662753 133.414221 
L 1398.1261 121.126121 
L 1398.589448 123.486772 
L 1399.052795 119.403099 
L 1399.516142 120.900126 
L 1399.97949 111.113719 
L 1400.442837 116.229519 
L 1401.369532 119.125008 
L 1401.832879 126.183961 
L 1402.296227 125.559477 
L 1402.759574 123.705268 
L 1403.222922 138.771517 
L 1403.686269 135.626566 
L 1404.149616 142.521242 
L 1404.612964 155.545772 
L 1405.076311 158.15049 
L 1405.539659 164.754164 
L 1406.003006 165.523682 
L 1406.466353 154.33858 
L 1406.929701 161.787102 
L 1407.393048 155.239285 
L 1408.78309 140.965555 
L 1409.246438 124.575241 
L 1409.709785 125.954928 
L 1410.173132 130.099151 
L 1410.63648 131.159672 
L 1411.099827 141.687202 
L 1411.563175 148.506781 
L 1412.026522 157.851521 
L 1415.733301 179.573307 
L 1416.196649 172.227576 
L 1416.659996 178.765539 
L 1417.123343 181.468823 
L 1417.586691 180.74108 
L 1418.050038 176.624552 
L 1418.513386 173.648571 
L 1418.976733 161.46373 
L 1419.44008 160.77823 
L 1419.903428 159.158701 
L 1420.830123 141.130084 
L 1421.29347 137.942891 
L 1421.756817 132.113196 
L 1422.220165 130.967721 
L 1422.683512 128.691088 
L 1423.14686 124.217845 
L 1423.610207 133.435858 
L 1424.073554 151.801714 
L 1424.536902 159.630419 
L 1425.000249 170.387935 
L 1425.463597 176.597345 
L 1425.926944 180.915231 
L 1426.853639 174.033934 
L 1427.316986 164.031621 
L 1427.780333 160.506487 
L 1428.243681 151.808998 
L 1428.707028 147.884907 
L 1429.170376 152.827043 
L 1429.633723 162.026282 
L 1430.09707 167.409617 
L 1430.560418 164.128551 
L 1431.023765 167.545264 
L 1431.487113 182.719466 
L 1431.95046 186.826139 
L 1432.413807 197.424073 
L 1432.877155 200.91119 
L 1433.340502 195.593098 
L 1433.80385 201.520892 
L 1434.267197 195.522227 
L 1434.730544 181.577283 
L 1435.193892 183.952015 
L 1436.120587 159.859256 
L 1436.583934 170.142718 
L 1437.047281 161.309114 
L 1437.510629 164.697665 
L 1438.437324 165.387392 
L 1438.900671 160.717018 
L 1439.364018 160.904529 
L 1439.827366 160.46779 
L 1440.290713 149.864695 
L 1440.754061 157.580753 
L 1441.680755 162.808965 
L 1442.60745 173.547474 
L 1443.070797 182.352449 
L 1443.534145 188.416357 
L 1443.997492 177.254723 
L 1444.46084 173.45736 
L 1444.924187 173.954649 
L 1445.387534 180.272012 
L 1445.850882 179.088989 
L 1446.314229 179.168547 
L 1446.777577 171.409779 
L 1447.240924 183.594152 
L 1447.704271 184.593657 
L 1448.167619 187.925885 
L 1448.630966 179.913662 
L 1449.094314 180.091785 
L 1449.557661 178.002896 
L 1450.021008 189.882185 
L 1450.484356 188.872825 
L 1450.947703 196.678062 
L 1451.411051 198.583433 
L 1451.874398 199.33887 
L 1452.337745 203.182702 
L 1452.801093 210.706322 
L 1453.26444 210.002047 
L 1453.727788 211.991903 
L 1454.191135 211.88841 
L 1455.11783 216.3985 
L 1455.581177 214.811827 
L 1456.044525 217.543273 
L 1456.507872 221.227522 
L 1456.971219 230.539407 
L 1457.434567 236.481282 
L 1457.897914 229.163713 
L 1458.361262 228.088643 
L 1458.824609 228.853467 
L 1459.287956 232.251406 
L 1459.751304 233.58885 
L 1460.677998 217.001172 
L 1461.141346 218.812671 
L 1461.604693 215.465894 
L 1462.068041 217.854707 
L 1462.531388 210.598155 
L 1462.994735 209.832863 
L 1463.458083 220.698333 
L 1463.92143 236.745546 
L 1465.311472 265.657471 
L 1466.238167 268.243416 
L 1466.701515 267.994421 
L 1468.091557 258.66752 
L 1468.554904 253.471462 
L 1469.018252 240.873584 
L 1469.944946 239.577914 
L 1470.408294 236.503367 
L 1471.798336 206.01768 
L 1472.261683 202.187462 
L 1473.188378 210.968736 
L 1473.651726 204.50071 
L 1474.115073 211.639455 
L 1474.57842 208.837137 
L 1475.041768 207.546161 
L 1475.505115 204.481001 
L 1476.43181 179.21484 
L 1476.895157 181.307956 
L 1477.821852 167.681944 
L 1478.285199 166.883797 
L 1478.748547 168.155531 
L 1479.211894 171.126351 
L 1479.675242 179.24606 
L 1480.138589 174.045308 
L 1480.601936 170.933212 
L 1481.065284 174.626848 
L 1481.528631 175.607579 
L 1481.991979 181.751278 
L 1482.455326 180.985986 
L 1482.918673 172.692147 
L 1484.308716 182.857801 
L 1484.772063 184.95561 
L 1486.162105 178.919396 
L 1486.625453 181.655536 
L 1487.0888 182.537701 
L 1487.552147 176.675151 
L 1488.015495 175.140107 
L 1488.478842 177.848085 
L 1488.94219 175.163108 
L 1489.868884 172.229135 
L 1490.332232 173.519644 
L 1490.795579 177.865691 
L 1491.258926 193.227637 
L 1491.722274 184.750747 
L 1492.185621 185.881673 
L 1493.112316 202.332302 
L 1494.039011 244.452275 
L 1494.502358 242.865602 
L 1495.429053 284.3801 
L 1496.819095 307.8 
L 1497.74579 298.294239 
L 1498.209137 302.557779 
L 1499.135832 303.312479 
L 1499.59918 301.992604 
L 1500.062527 290.715608 
L 1500.525874 285.188282 
L 1500.989222 272.803595 
L 1501.452569 269.486958 
L 1501.915917 257.261853 
L 1502.842611 219.130512 
L 1503.305959 212.019462 
L 1503.769306 202.392638 
L 1504.232654 209.451591 
L 1504.696001 207.306378 
L 1505.159348 208.221398 
L 1506.086043 221.668118 
L 1506.549391 221.916646 
L 1507.012738 236.541695 
L 1507.476085 241.324249 
L 1507.939433 235.166001 
L 1508.40278 223.887027 
L 1508.866127 223.943116 
L 1509.329475 228.153049 
L 1509.792822 234.062068 
L 1510.25617 223.397957 
L 1511.182864 206.894996 
L 1511.646212 208.617317 
L 1512.109559 214.624902 
L 1512.572907 214.751395 
L 1513.036254 213.826521 
L 1513.499601 208.790045 
L 1513.962949 207.05787 
L 1514.426296 211.408611 
L 1514.889644 212.229759 
L 1515.352991 208.906451 
L 1515.816338 189.915878 
L 1516.279686 181.274712 
L 1516.743033 175.060141 
L 1517.669728 174.994197 
L 1518.133075 171.821084 
L 1518.596423 170.431542 
L 1519.05977 175.950992 
L 1519.523118 184.033151 
L 1519.986465 183.422748 
L 1520.449812 179.235816 
L 1521.376507 175.283564 
L 1521.839855 172.53757 
L 1522.303202 167.88597 
L 1522.766549 153.579619 
L 1523.229897 148.275608 
L 1524.156591 140.741899 
L 1524.619939 134.72446 
L 1525.083286 138.84052 
L 1525.546634 132.64003 
L 1526.009981 140.337314 
L 1526.473328 155.197044 
L 1526.936676 150.174649 
L 1527.400023 157.102182 
L 1527.863371 161.298034 
L 1528.790065 156.022184 
L 1529.253413 148.652986 
L 1529.71676 145.925766 
L 1530.180108 135.059829 
L 1530.643455 138.101053 
L 1531.57015 119.096166 
L 1532.033497 122.376764 
L 1532.496845 131.191127 
L 1532.960192 127.576815 
L 1533.886887 106.563064 
L 1534.350234 119.357606 
L 1534.813582 121.385011 
L 1535.276929 116.273438 
L 1535.740276 109.725621 
L 1536.203624 114.362672 
L 1536.666971 113.099858 
L 1537.130319 130.602089 
L 1537.593666 123.580217 
L 1538.057013 126.485327 
L 1538.520361 128.127856 
L 1538.983708 131.239485 
L 1539.447056 133.130775 
L 1539.910403 138.955309 
L 1540.37375 129.262775 
L 1540.837098 128.91052 
L 1541.300445 135.335836 
L 1541.763792 146.689441 
L 1542.22714 141.573174 
L 1542.690487 137.874377 
L 1543.153835 142.600607 
L 1543.617182 139.845225 
L 1544.080529 143.416828 
L 1544.543877 141.102645 
L 1545.007224 130.288338 
L 1545.470572 141.853155 
L 1545.933919 145.560872 
L 1546.397266 151.559069 
L 1546.860614 163.119193 
L 1547.323961 164.348684 
L 1547.787309 161.795128 
L 1548.250656 163.695806 
L 1548.714003 166.666626 
L 1549.177351 171.397549 
L 1549.640698 172.993142 
L 1550.567393 168.824751 
L 1551.03074 175.531683 
L 1551.494088 175.320237 
L 1551.957435 179.356507 
L 1552.420783 173.916381 
L 1552.88413 159.854097 
L 1553.347477 156.291415 
L 1553.810825 163.754018 
L 1554.274172 159.721975 
L 1554.73752 162.974412 
L 1555.200867 148.358282 
L 1556.127562 184.104335 
L 1556.590909 187.506967 
L 1556.590909 187.506967 
" clip-path="url(#pcf0217d67e)" style="fill: none; stroke: #539ff4; stroke-width: 2.5; stroke-linecap: square"/>
   </g>
   <g id="patch_3">
    <path d="M 225 320.4 
L 225 43.2 
" style="fill: none; stroke: #000000; stroke-width: 0.8; stroke-linejoin: miter; stroke-linecap: square"/>
   </g>
   <g id="patch_4">
    <path d="M 1620 320.4 
L 1620 43.2 
" style="fill: none; stroke: #000000; stroke-width: 0.8; stroke-linejoin: miter; stroke-linecap: square"/>
   </g>
   <g id="patch_5">
    <path d="M 225 320.4 
L 1620 320.4 
" style="fill: none; stroke: #000000; stroke-width: 0.8; stroke-linejoin: miter; stroke-linecap: square"/>
   </g>
   <g id="patch_6">
    <path d="M 225 43.2 
L 1620 43.2 
" style="fill: none; stroke: #000000; stroke-width: 0.8; stroke-linejoin: miter; stroke-linecap: square"/>
   </g>
   <g id="text_20">
    <!-- CGIA -->
    <g transform="translate(897.978125 37.2) scale(0.2 -0.2)">
     <defs>
      <path id="DejaVuSans-43" d="M 4122 4306 
L 4122 3641 
Q 3803 3938 3442 4084 
Q 3081 4231 2675 4231 
Q 1875 4231 1450 3742 
Q 1025 3253 1025 2328 
Q 1025 1406 1450 917 
Q 1875 428 2675 428 
Q 3081 428 3442 575 
Q 3803 722 4122 1019 
L 4122 359 
Q 3791 134 3420 21 
Q 3050 -91 2638 -91 
Q 1578 -91 968 557 
Q 359 1206 359 2328 
Q 359 3453 968 4101 
Q 1578 4750 2638 4750 
Q 3056 4750 3426 4639 
Q 3797 4528 4122 4306 
z
" transform="scale(0.015625)"/>
      <path id="DejaVuSans-47" d="M 3809 666 
L 3809 1919 
L 2778 1919 
L 2778 2438 
L 4434 2438 
L 4434 434 
Q 4069 175 3628 42 
Q 3188 -91 2688 -91 
Q 1594 -91 976 548 
Q 359 1188 359 2328 
Q 359 3472 976 4111 
Q 1594 4750 2688 4750 
Q 3144 4750 3555 4637 
Q 3966 4525 4313 4306 
L 4313 3634 
Q 3963 3931 3569 4081 
Q 3175 4231 2741 4231 
Q 1884 4231 1454 3753 
Q 1025 3275 1025 2328 
Q 1025 1384 1454 906 
Q 1884 428 2741 428 
Q 3075 428 3337 486 
Q 3600 544 3809 666 
z
" transform="scale(0.015625)"/>
      <path id="DejaVuSans-49" d="M 628 4666 
L 1259 4666 
L 1259 0 
L 628 0 
L 628 4666 
z
" transform="scale(0.015625)"/>
      <path id="DejaVuSans-41" d="M 2188 4044 
L 1331 1722 
L 3047 1722 
L 2188 4044 
z
M 1831 4666 
L 2547 4666 
L 4325 0 
L 3669 0 
L 3244 1197 
L 1141 1197 
L 716 0 
L 50 0 
L 1831 4666 
z
" transform="scale(0.015625)"/>
     </defs>
     <use xlink:href="#DejaVuSans-43"/>
     <use xlink:href="#DejaVuSans-47" x="69.824219"/>
     <use xlink:href="#DejaVuSans-49" x="147.314453"/>
     <use xlink:href="#DejaVuSans-41" x="176.806641"/>
    </g>
   </g>
   <g id="legend_1">
    <g id="patch_7">
     <path d="M 1560.246875 65.878125 
L 1613 65.878125 
Q 1615 65.878125 1615 63.878125 
L 1615 50.2 
Q 1615 48.2 1613 48.2 
L 1560.246875 48.2 
Q 1558.246875 48.2 1558.246875 50.2 
L 1558.246875 63.878125 
Q 1558.246875 65.878125 1560.246875 65.878125 
z
" style="fill: #ffffff; opacity: 0.8; stroke: #cccccc; stroke-linejoin: miter"/>
    </g>
    <g id="line2d_19">
     <path d="M 1562.246875 56.298437 
L 1572.246875 56.298437 
L 1582.246875 56.298437 
" style="fill: none; stroke: #539ff4; stroke-width: 2.5; stroke-linecap: square"/>
    </g>
    <g id="text_21">
     <!-- cgia -->
     <g transform="translate(1590.246875 59.798437) scale(0.1 -0.1)">
      <defs>
       <path id="DejaVuSans-63" d="M 3122 3366 
L 3122 2828 
Q 2878 2963 2633 3030 
Q 2388 3097 2138 3097 
Q 1578 3097 1268 2742 
Q 959 2388 959 1747 
Q 959 1106 1268 751 
Q 1578 397 2138 397 
Q 2388 397 2633 464 
Q 2878 531 3122 666 
L 3122 134 
Q 2881 22 2623 -34 
Q 2366 -91 2075 -91 
Q 1284 -91 818 406 
Q 353 903 353 1747 
Q 353 2603 823 3093 
Q 1294 3584 2113 3584 
Q 2378 3584 2631 3529 
Q 2884 3475 3122 3366 
z
" transform="scale(0.015625)"/>
       <path id="DejaVuSans-67" d="M 2906 1791 
Q 2906 2416 2648 2759 
Q 2391 3103 1925 3103 
Q 1463 3103 1205 2759 
Q 947 2416 947 1791 
Q 947 1169 1205 825 
Q 1463 481 1925 481 
Q 2391 481 2648 825 
Q 2906 1169 2906 1791 
z
M 3481 434 
Q 3481 -459 3084 -895 
Q 2688 -1331 1869 -1331 
Q 1566 -1331 1297 -1286 
Q 1028 -1241 775 -1147 
L 775 -588 
Q 1028 -725 1275 -790 
Q 1522 -856 1778 -856 
Q 2344 -856 2625 -561 
Q 2906 -266 2906 331 
L 2906 616 
Q 2728 306 2450 153 
Q 2172 0 1784 0 
Q 1141 0 747 490 
Q 353 981 353 1791 
Q 353 2603 747 3093 
Q 1141 3584 1784 3584 
Q 2172 3584 2450 3431 
Q 2728 3278 2906 2969 
L 2906 3500 
L 3481 3500 
L 3481 434 
z
" transform="scale(0.015625)"/>
       <path id="DejaVuSans-61" d="M 2194 1759 
Q 1497 1759 1228 1600 
Q 959 1441 959 1056 
Q 959 750 1161 570 
Q 1363 391 1709 391 
Q 2188 391 2477 730 
Q 2766 1069 2766 1631 
L 2766 1759 
L 2194 1759 
z
M 3341 1997 
L 3341 0 
L 2766 0 
L 2766 531 
Q 2569 213 2275 61 
Q 1981 -91 1556 -91 
Q 1019 -91 701 211 
Q 384 513 384 1019 
Q 384 1609 779 1909 
Q 1175 2209 1959 2209 
L 2766 2209 
L 2766 2266 
Q 2766 2663 2505 2880 
Q 2244 3097 1772 3097 
Q 1472 3097 1187 3025 
Q 903 2953 641 2809 
L 641 3341 
Q 956 3463 1253 3523 
Q 1550 3584 1831 3584 
Q 2591 3584 2966 3190 
Q 3341 2797 3341 1997 
z
" transform="scale(0.015625)"/>
      </defs>
      <use xlink:href="#DejaVuSans-63"/>
      <use xlink:href="#DejaVuSans-67" x="54.980469"/>
      <use xlink:href="#DejaVuSans-69" x="118.457031"/>
      <use xlink:href="#DejaVuSans-61" x="146.240234"/>
     </g>
    </g>
   </g>
  </g>
 </g>
 <defs>
  <clipPath id="pcf0217d67e">
   <rect x="225" y="43.2" width="1395" height="277.2"/>
  </clipPath>
 </defs>
</svg>
