<?xml version="1.0" encoding="utf-8" standalone="no"?>
<!DOCTYPE svg PUBLIC "-//W3C//DTD SVG 1.1//EN"
  "http://www.w3.org/Graphics/SVG/1.1/DTD/svg11.dtd">
<svg xmlns:xlink="http://www.w3.org/1999/xlink" width="1800pt" height="360pt" viewBox="0 0 1800 360" xmlns="http://www.w3.org/2000/svg" version="1.1">
 <metadata>
  <rdf:RDF xmlns:dc="http://purl.org/dc/elements/1.1/" xmlns:cc="http://creativecommons.org/ns#" xmlns:rdf="http://www.w3.org/1999/02/22-rdf-syntax-ns#">
   <cc:Work>
    <dc:type rdf:resource="http://purl.org/dc/dcmitype/StillImage"/>
    <dc:date>2024-03-25T15:23:16.697398</dc:date>
    <dc:format>image/svg+xml</dc:format>
    <dc:creator>
     <cc:Agent>
      <dc:title>Matplotlib v3.7.2, https://matplotlib.org/</dc:title>
     </cc:Agent>
    </dc:creator>
   </cc:Work>
  </rdf:RDF>
 </metadata>
 <defs>
  <style type="text/css">*{stroke-linejoin: round; stroke-linecap: butt}</style>
 </defs>
 <g id="figure_1">
  <g id="patch_1">
   <path d="M 0 360 
L 1800 360 
L 1800 0 
L 0 0 
z
" style="fill: #ffffff"/>
  </g>
  <g id="axes_1">
   <g id="patch_2">
    <path d="M 225 320.4 
L 1620 320.4 
L 1620 43.2 
L 225 43.2 
z
" style="fill: #ffffff"/>
   </g>
   <g id="matplotlib.axis_1">
    <g id="xtick_1">
     <g id="line2d_1">
      <defs>
       <path id="mb9bcf95b87" d="M 0 0 
L 0 3.5 
" style="stroke: #000000; stroke-width: 0.8"/>
      </defs>
      <g>
       <use xlink:href="#mb9bcf95b87" x="281.924597" y="320.4" style="stroke: #000000; stroke-width: 0.8"/>
      </g>
     </g>
     <g id="text_1">
      <!-- 2011 -->
      <g transform="translate(262.837097 338.797656) scale(0.15 -0.15)">
       <defs>
        <path id="DejaVuSans-32" d="M 1228 531 
L 3431 531 
L 3431 0 
L 469 0 
L 469 531 
Q 828 903 1448 1529 
Q 2069 2156 2228 2338 
Q 2531 2678 2651 2914 
Q 2772 3150 2772 3378 
Q 2772 3750 2511 3984 
Q 2250 4219 1831 4219 
Q 1534 4219 1204 4116 
Q 875 4013 500 3803 
L 500 4441 
Q 881 4594 1212 4672 
Q 1544 4750 1819 4750 
Q 2544 4750 2975 4387 
Q 3406 4025 3406 3419 
Q 3406 3131 3298 2873 
Q 3191 2616 2906 2266 
Q 2828 2175 2409 1742 
Q 1991 1309 1228 531 
z
" transform="scale(0.015625)"/>
        <path id="DejaVuSans-30" d="M 2034 4250 
Q 1547 4250 1301 3770 
Q 1056 3291 1056 2328 
Q 1056 1369 1301 889 
Q 1547 409 2034 409 
Q 2525 409 2770 889 
Q 3016 1369 3016 2328 
Q 3016 3291 2770 3770 
Q 2525 4250 2034 4250 
z
M 2034 4750 
Q 2819 4750 3233 4129 
Q 3647 3509 3647 2328 
Q 3647 1150 3233 529 
Q 2819 -91 2034 -91 
Q 1250 -91 836 529 
Q 422 1150 422 2328 
Q 422 3509 836 4129 
Q 1250 4750 2034 4750 
z
" transform="scale(0.015625)"/>
        <path id="DejaVuSans-31" d="M 794 531 
L 1825 531 
L 1825 4091 
L 703 3866 
L 703 4441 
L 1819 4666 
L 2450 4666 
L 2450 531 
L 3481 531 
L 3481 0 
L 794 0 
L 794 531 
z
" transform="scale(0.015625)"/>
       </defs>
       <use xlink:href="#DejaVuSans-32"/>
       <use xlink:href="#DejaVuSans-30" x="63.623047"/>
       <use xlink:href="#DejaVuSans-31" x="127.246094"/>
       <use xlink:href="#DejaVuSans-31" x="190.869141"/>
      </g>
     </g>
    </g>
    <g id="xtick_2">
     <g id="line2d_2">
      <g>
       <use xlink:href="#mb9bcf95b87" x="450.984627" y="320.4" style="stroke: #000000; stroke-width: 0.8"/>
      </g>
     </g>
     <g id="text_2">
      <!-- 2012 -->
      <g transform="translate(431.897127 338.797656) scale(0.15 -0.15)">
       <use xlink:href="#DejaVuSans-32"/>
       <use xlink:href="#DejaVuSans-30" x="63.623047"/>
       <use xlink:href="#DejaVuSans-31" x="127.246094"/>
       <use xlink:href="#DejaVuSans-32" x="190.869141"/>
      </g>
     </g>
    </g>
    <g id="xtick_3">
     <g id="line2d_3">
      <g>
       <use xlink:href="#mb9bcf95b87" x="620.507836" y="320.4" style="stroke: #000000; stroke-width: 0.8"/>
      </g>
     </g>
     <g id="text_3">
      <!-- 2013 -->
      <g transform="translate(601.420336 338.797656) scale(0.15 -0.15)">
       <defs>
        <path id="DejaVuSans-33" d="M 2597 2516 
Q 3050 2419 3304 2112 
Q 3559 1806 3559 1356 
Q 3559 666 3084 287 
Q 2609 -91 1734 -91 
Q 1441 -91 1130 -33 
Q 819 25 488 141 
L 488 750 
Q 750 597 1062 519 
Q 1375 441 1716 441 
Q 2309 441 2620 675 
Q 2931 909 2931 1356 
Q 2931 1769 2642 2001 
Q 2353 2234 1838 2234 
L 1294 2234 
L 1294 2753 
L 1863 2753 
Q 2328 2753 2575 2939 
Q 2822 3125 2822 3475 
Q 2822 3834 2567 4026 
Q 2313 4219 1838 4219 
Q 1578 4219 1281 4162 
Q 984 4106 628 3988 
L 628 4550 
Q 988 4650 1302 4700 
Q 1616 4750 1894 4750 
Q 2613 4750 3031 4423 
Q 3450 4097 3450 3541 
Q 3450 3153 3228 2886 
Q 3006 2619 2597 2516 
z
" transform="scale(0.015625)"/>
       </defs>
       <use xlink:href="#DejaVuSans-32"/>
       <use xlink:href="#DejaVuSans-30" x="63.623047"/>
       <use xlink:href="#DejaVuSans-31" x="127.246094"/>
       <use xlink:href="#DejaVuSans-33" x="190.869141"/>
      </g>
     </g>
    </g>
    <g id="xtick_4">
     <g id="line2d_4">
      <g>
       <use xlink:href="#mb9bcf95b87" x="789.567866" y="320.4" style="stroke: #000000; stroke-width: 0.8"/>
      </g>
     </g>
     <g id="text_4">
      <!-- 2014 -->
      <g transform="translate(770.480366 338.797656) scale(0.15 -0.15)">
       <defs>
        <path id="DejaVuSans-34" d="M 2419 4116 
L 825 1625 
L 2419 1625 
L 2419 4116 
z
M 2253 4666 
L 3047 4666 
L 3047 1625 
L 3713 1625 
L 3713 1100 
L 3047 1100 
L 3047 0 
L 2419 0 
L 2419 1100 
L 313 1100 
L 313 1709 
L 2253 4666 
z
" transform="scale(0.015625)"/>
       </defs>
       <use xlink:href="#DejaVuSans-32"/>
       <use xlink:href="#DejaVuSans-30" x="63.623047"/>
       <use xlink:href="#DejaVuSans-31" x="127.246094"/>
       <use xlink:href="#DejaVuSans-34" x="190.869141"/>
      </g>
     </g>
    </g>
    <g id="xtick_5">
     <g id="line2d_5">
      <g>
       <use xlink:href="#mb9bcf95b87" x="958.627897" y="320.4" style="stroke: #000000; stroke-width: 0.8"/>
      </g>
     </g>
     <g id="text_5">
      <!-- 2015 -->
      <g transform="translate(939.540397 338.797656) scale(0.15 -0.15)">
       <defs>
        <path id="DejaVuSans-35" d="M 691 4666 
L 3169 4666 
L 3169 4134 
L 1269 4134 
L 1269 2991 
Q 1406 3038 1543 3061 
Q 1681 3084 1819 3084 
Q 2600 3084 3056 2656 
Q 3513 2228 3513 1497 
Q 3513 744 3044 326 
Q 2575 -91 1722 -91 
Q 1428 -91 1123 -41 
Q 819 9 494 109 
L 494 744 
Q 775 591 1075 516 
Q 1375 441 1709 441 
Q 2250 441 2565 725 
Q 2881 1009 2881 1497 
Q 2881 1984 2565 2268 
Q 2250 2553 1709 2553 
Q 1456 2553 1204 2497 
Q 953 2441 691 2322 
L 691 4666 
z
" transform="scale(0.015625)"/>
       </defs>
       <use xlink:href="#DejaVuSans-32"/>
       <use xlink:href="#DejaVuSans-30" x="63.623047"/>
       <use xlink:href="#DejaVuSans-31" x="127.246094"/>
       <use xlink:href="#DejaVuSans-35" x="190.869141"/>
      </g>
     </g>
    </g>
    <g id="xtick_6">
     <g id="line2d_6">
      <g>
       <use xlink:href="#mb9bcf95b87" x="1127.687927" y="320.4" style="stroke: #000000; stroke-width: 0.8"/>
      </g>
     </g>
     <g id="text_6">
      <!-- 2016 -->
      <g transform="translate(1108.600427 338.797656) scale(0.15 -0.15)">
       <defs>
        <path id="DejaVuSans-36" d="M 2113 2584 
Q 1688 2584 1439 2293 
Q 1191 2003 1191 1497 
Q 1191 994 1439 701 
Q 1688 409 2113 409 
Q 2538 409 2786 701 
Q 3034 994 3034 1497 
Q 3034 2003 2786 2293 
Q 2538 2584 2113 2584 
z
M 3366 4563 
L 3366 3988 
Q 3128 4100 2886 4159 
Q 2644 4219 2406 4219 
Q 1781 4219 1451 3797 
Q 1122 3375 1075 2522 
Q 1259 2794 1537 2939 
Q 1816 3084 2150 3084 
Q 2853 3084 3261 2657 
Q 3669 2231 3669 1497 
Q 3669 778 3244 343 
Q 2819 -91 2113 -91 
Q 1303 -91 875 529 
Q 447 1150 447 2328 
Q 447 3434 972 4092 
Q 1497 4750 2381 4750 
Q 2619 4750 2861 4703 
Q 3103 4656 3366 4563 
z
" transform="scale(0.015625)"/>
       </defs>
       <use xlink:href="#DejaVuSans-32"/>
       <use xlink:href="#DejaVuSans-30" x="63.623047"/>
       <use xlink:href="#DejaVuSans-31" x="127.246094"/>
       <use xlink:href="#DejaVuSans-36" x="190.869141"/>
      </g>
     </g>
    </g>
    <g id="xtick_7">
     <g id="line2d_7">
      <g>
       <use xlink:href="#mb9bcf95b87" x="1297.211136" y="320.4" style="stroke: #000000; stroke-width: 0.8"/>
      </g>
     </g>
     <g id="text_7">
      <!-- 2017 -->
      <g transform="translate(1278.123636 338.797656) scale(0.15 -0.15)">
       <defs>
        <path id="DejaVuSans-37" d="M 525 4666 
L 3525 4666 
L 3525 4397 
L 1831 0 
L 1172 0 
L 2766 4134 
L 525 4134 
L 525 4666 
z
" transform="scale(0.015625)"/>
       </defs>
       <use xlink:href="#DejaVuSans-32"/>
       <use xlink:href="#DejaVuSans-30" x="63.623047"/>
       <use xlink:href="#DejaVuSans-31" x="127.246094"/>
       <use xlink:href="#DejaVuSans-37" x="190.869141"/>
      </g>
     </g>
    </g>
    <g id="xtick_8">
     <g id="line2d_8">
      <g>
       <use xlink:href="#mb9bcf95b87" x="1466.271167" y="320.4" style="stroke: #000000; stroke-width: 0.8"/>
      </g>
     </g>
     <g id="text_8">
      <!-- 2018 -->
      <g transform="translate(1447.183667 338.797656) scale(0.15 -0.15)">
       <defs>
        <path id="DejaVuSans-38" d="M 2034 2216 
Q 1584 2216 1326 1975 
Q 1069 1734 1069 1313 
Q 1069 891 1326 650 
Q 1584 409 2034 409 
Q 2484 409 2743 651 
Q 3003 894 3003 1313 
Q 3003 1734 2745 1975 
Q 2488 2216 2034 2216 
z
M 1403 2484 
Q 997 2584 770 2862 
Q 544 3141 544 3541 
Q 544 4100 942 4425 
Q 1341 4750 2034 4750 
Q 2731 4750 3128 4425 
Q 3525 4100 3525 3541 
Q 3525 3141 3298 2862 
Q 3072 2584 2669 2484 
Q 3125 2378 3379 2068 
Q 3634 1759 3634 1313 
Q 3634 634 3220 271 
Q 2806 -91 2034 -91 
Q 1263 -91 848 271 
Q 434 634 434 1313 
Q 434 1759 690 2068 
Q 947 2378 1403 2484 
z
M 1172 3481 
Q 1172 3119 1398 2916 
Q 1625 2713 2034 2713 
Q 2441 2713 2670 2916 
Q 2900 3119 2900 3481 
Q 2900 3844 2670 4047 
Q 2441 4250 2034 4250 
Q 1625 4250 1398 4047 
Q 1172 3844 1172 3481 
z
" transform="scale(0.015625)"/>
       </defs>
       <use xlink:href="#DejaVuSans-32"/>
       <use xlink:href="#DejaVuSans-30" x="63.623047"/>
       <use xlink:href="#DejaVuSans-31" x="127.246094"/>
       <use xlink:href="#DejaVuSans-38" x="190.869141"/>
      </g>
     </g>
    </g>
    <g id="text_9">
     <!-- Time -->
     <g transform="translate(904.149609 357.314844) scale(0.15 -0.15)">
      <defs>
       <path id="DejaVuSans-54" d="M -19 4666 
L 3928 4666 
L 3928 4134 
L 2272 4134 
L 2272 0 
L 1638 0 
L 1638 4134 
L -19 4134 
L -19 4666 
z
" transform="scale(0.015625)"/>
       <path id="DejaVuSans-69" d="M 603 3500 
L 1178 3500 
L 1178 0 
L 603 0 
L 603 3500 
z
M 603 4863 
L 1178 4863 
L 1178 4134 
L 603 4134 
L 603 4863 
z
" transform="scale(0.015625)"/>
       <path id="DejaVuSans-6d" d="M 3328 2828 
Q 3544 3216 3844 3400 
Q 4144 3584 4550 3584 
Q 5097 3584 5394 3201 
Q 5691 2819 5691 2113 
L 5691 0 
L 5113 0 
L 5113 2094 
Q 5113 2597 4934 2840 
Q 4756 3084 4391 3084 
Q 3944 3084 3684 2787 
Q 3425 2491 3425 1978 
L 3425 0 
L 2847 0 
L 2847 2094 
Q 2847 2600 2669 2842 
Q 2491 3084 2119 3084 
Q 1678 3084 1418 2786 
Q 1159 2488 1159 1978 
L 1159 0 
L 581 0 
L 581 3500 
L 1159 3500 
L 1159 2956 
Q 1356 3278 1631 3431 
Q 1906 3584 2284 3584 
Q 2666 3584 2933 3390 
Q 3200 3197 3328 2828 
z
" transform="scale(0.015625)"/>
       <path id="DejaVuSans-65" d="M 3597 1894 
L 3597 1613 
L 953 1613 
Q 991 1019 1311 708 
Q 1631 397 2203 397 
Q 2534 397 2845 478 
Q 3156 559 3463 722 
L 3463 178 
Q 3153 47 2828 -22 
Q 2503 -91 2169 -91 
Q 1331 -91 842 396 
Q 353 884 353 1716 
Q 353 2575 817 3079 
Q 1281 3584 2069 3584 
Q 2775 3584 3186 3129 
Q 3597 2675 3597 1894 
z
M 3022 2063 
Q 3016 2534 2758 2815 
Q 2500 3097 2075 3097 
Q 1594 3097 1305 2825 
Q 1016 2553 972 2059 
L 3022 2063 
z
" transform="scale(0.015625)"/>
      </defs>
      <use xlink:href="#DejaVuSans-54"/>
      <use xlink:href="#DejaVuSans-69" x="57.958984"/>
      <use xlink:href="#DejaVuSans-6d" x="85.742188"/>
      <use xlink:href="#DejaVuSans-65" x="183.154297"/>
     </g>
    </g>
   </g>
   <g id="matplotlib.axis_2">
    <g id="ytick_1">
     <g id="line2d_9">
      <defs>
       <path id="m1fceb45b55" d="M 0 0 
L -3.5 0 
" style="stroke: #000000; stroke-width: 0.8"/>
      </defs>
      <g>
       <use xlink:href="#m1fceb45b55" x="225" y="314.952321" style="stroke: #000000; stroke-width: 0.8"/>
      </g>
     </g>
     <g id="text_10">
      <!-- −0.006 -->
      <g transform="translate(162.488281 320.65115) scale(0.15 -0.15)">
       <defs>
        <path id="DejaVuSans-2212" d="M 678 2272 
L 4684 2272 
L 4684 1741 
L 678 1741 
L 678 2272 
z
" transform="scale(0.015625)"/>
        <path id="DejaVuSans-2e" d="M 684 794 
L 1344 794 
L 1344 0 
L 684 0 
L 684 794 
z
" transform="scale(0.015625)"/>
       </defs>
       <use xlink:href="#DejaVuSans-2212"/>
       <use xlink:href="#DejaVuSans-30" x="83.789062"/>
       <use xlink:href="#DejaVuSans-2e" x="147.412109"/>
       <use xlink:href="#DejaVuSans-30" x="179.199219"/>
       <use xlink:href="#DejaVuSans-30" x="242.822266"/>
       <use xlink:href="#DejaVuSans-36" x="306.445312"/>
      </g>
     </g>
    </g>
    <g id="ytick_2">
     <g id="line2d_10">
      <g>
       <use xlink:href="#m1fceb45b55" x="225" y="272.334568" style="stroke: #000000; stroke-width: 0.8"/>
      </g>
     </g>
     <g id="text_11">
      <!-- −0.004 -->
      <g transform="translate(162.488281 278.033396) scale(0.15 -0.15)">
       <use xlink:href="#DejaVuSans-2212"/>
       <use xlink:href="#DejaVuSans-30" x="83.789062"/>
       <use xlink:href="#DejaVuSans-2e" x="147.412109"/>
       <use xlink:href="#DejaVuSans-30" x="179.199219"/>
       <use xlink:href="#DejaVuSans-30" x="242.822266"/>
       <use xlink:href="#DejaVuSans-34" x="306.445312"/>
      </g>
     </g>
    </g>
    <g id="ytick_3">
     <g id="line2d_11">
      <g>
       <use xlink:href="#m1fceb45b55" x="225" y="229.716815" style="stroke: #000000; stroke-width: 0.8"/>
      </g>
     </g>
     <g id="text_12">
      <!-- −0.002 -->
      <g transform="translate(162.488281 235.415643) scale(0.15 -0.15)">
       <use xlink:href="#DejaVuSans-2212"/>
       <use xlink:href="#DejaVuSans-30" x="83.789062"/>
       <use xlink:href="#DejaVuSans-2e" x="147.412109"/>
       <use xlink:href="#DejaVuSans-30" x="179.199219"/>
       <use xlink:href="#DejaVuSans-30" x="242.822266"/>
       <use xlink:href="#DejaVuSans-32" x="306.445312"/>
      </g>
     </g>
    </g>
    <g id="ytick_4">
     <g id="line2d_12">
      <g>
       <use xlink:href="#m1fceb45b55" x="225" y="187.099062" style="stroke: #000000; stroke-width: 0.8"/>
      </g>
     </g>
     <g id="text_13">
      <!-- 0.000 -->
      <g transform="translate(175.057813 192.79789) scale(0.15 -0.15)">
       <use xlink:href="#DejaVuSans-30"/>
       <use xlink:href="#DejaVuSans-2e" x="63.623047"/>
       <use xlink:href="#DejaVuSans-30" x="95.410156"/>
       <use xlink:href="#DejaVuSans-30" x="159.033203"/>
       <use xlink:href="#DejaVuSans-30" x="222.65625"/>
      </g>
     </g>
    </g>
    <g id="ytick_5">
     <g id="line2d_13">
      <g>
       <use xlink:href="#m1fceb45b55" x="225" y="144.481308" style="stroke: #000000; stroke-width: 0.8"/>
      </g>
     </g>
     <g id="text_14">
      <!-- 0.002 -->
      <g transform="translate(175.057813 150.180136) scale(0.15 -0.15)">
       <use xlink:href="#DejaVuSans-30"/>
       <use xlink:href="#DejaVuSans-2e" x="63.623047"/>
       <use xlink:href="#DejaVuSans-30" x="95.410156"/>
       <use xlink:href="#DejaVuSans-30" x="159.033203"/>
       <use xlink:href="#DejaVuSans-32" x="222.65625"/>
      </g>
     </g>
    </g>
    <g id="ytick_6">
     <g id="line2d_14">
      <g>
       <use xlink:href="#m1fceb45b55" x="225" y="101.863555" style="stroke: #000000; stroke-width: 0.8"/>
      </g>
     </g>
     <g id="text_15">
      <!-- 0.004 -->
      <g transform="translate(175.057813 107.562383) scale(0.15 -0.15)">
       <use xlink:href="#DejaVuSans-30"/>
       <use xlink:href="#DejaVuSans-2e" x="63.623047"/>
       <use xlink:href="#DejaVuSans-30" x="95.410156"/>
       <use xlink:href="#DejaVuSans-30" x="159.033203"/>
       <use xlink:href="#DejaVuSans-34" x="222.65625"/>
      </g>
     </g>
    </g>
    <g id="ytick_7">
     <g id="line2d_15">
      <g>
       <use xlink:href="#m1fceb45b55" x="225" y="59.245802" style="stroke: #000000; stroke-width: 0.8"/>
      </g>
     </g>
     <g id="text_16">
      <!-- 0.006 -->
      <g transform="translate(175.057813 64.94463) scale(0.15 -0.15)">
       <use xlink:href="#DejaVuSans-30"/>
       <use xlink:href="#DejaVuSans-2e" x="63.623047"/>
       <use xlink:href="#DejaVuSans-30" x="95.410156"/>
       <use xlink:href="#DejaVuSans-30" x="159.033203"/>
       <use xlink:href="#DejaVuSans-36" x="222.65625"/>
      </g>
     </g>
    </g>
    <g id="text_17">
     <!-- North(m) -->
     <g transform="translate(155.36875 215.934375) rotate(-90) scale(0.15 -0.15)">
      <defs>
       <path id="DejaVuSans-4e" d="M 628 4666 
L 1478 4666 
L 3547 763 
L 3547 4666 
L 4159 4666 
L 4159 0 
L 3309 0 
L 1241 3903 
L 1241 0 
L 628 0 
L 628 4666 
z
" transform="scale(0.015625)"/>
       <path id="DejaVuSans-6f" d="M 1959 3097 
Q 1497 3097 1228 2736 
Q 959 2375 959 1747 
Q 959 1119 1226 758 
Q 1494 397 1959 397 
Q 2419 397 2687 759 
Q 2956 1122 2956 1747 
Q 2956 2369 2687 2733 
Q 2419 3097 1959 3097 
z
M 1959 3584 
Q 2709 3584 3137 3096 
Q 3566 2609 3566 1747 
Q 3566 888 3137 398 
Q 2709 -91 1959 -91 
Q 1206 -91 779 398 
Q 353 888 353 1747 
Q 353 2609 779 3096 
Q 1206 3584 1959 3584 
z
" transform="scale(0.015625)"/>
       <path id="DejaVuSans-72" d="M 2631 2963 
Q 2534 3019 2420 3045 
Q 2306 3072 2169 3072 
Q 1681 3072 1420 2755 
Q 1159 2438 1159 1844 
L 1159 0 
L 581 0 
L 581 3500 
L 1159 3500 
L 1159 2956 
Q 1341 3275 1631 3429 
Q 1922 3584 2338 3584 
Q 2397 3584 2469 3576 
Q 2541 3569 2628 3553 
L 2631 2963 
z
" transform="scale(0.015625)"/>
       <path id="DejaVuSans-74" d="M 1172 4494 
L 1172 3500 
L 2356 3500 
L 2356 3053 
L 1172 3053 
L 1172 1153 
Q 1172 725 1289 603 
Q 1406 481 1766 481 
L 2356 481 
L 2356 0 
L 1766 0 
Q 1100 0 847 248 
Q 594 497 594 1153 
L 594 3053 
L 172 3053 
L 172 3500 
L 594 3500 
L 594 4494 
L 1172 4494 
z
" transform="scale(0.015625)"/>
       <path id="DejaVuSans-68" d="M 3513 2113 
L 3513 0 
L 2938 0 
L 2938 2094 
Q 2938 2591 2744 2837 
Q 2550 3084 2163 3084 
Q 1697 3084 1428 2787 
Q 1159 2491 1159 1978 
L 1159 0 
L 581 0 
L 581 4863 
L 1159 4863 
L 1159 2956 
Q 1366 3272 1645 3428 
Q 1925 3584 2291 3584 
Q 2894 3584 3203 3211 
Q 3513 2838 3513 2113 
z
" transform="scale(0.015625)"/>
       <path id="DejaVuSans-28" d="M 1984 4856 
Q 1566 4138 1362 3434 
Q 1159 2731 1159 2009 
Q 1159 1288 1364 580 
Q 1569 -128 1984 -844 
L 1484 -844 
Q 1016 -109 783 600 
Q 550 1309 550 2009 
Q 550 2706 781 3412 
Q 1013 4119 1484 4856 
L 1984 4856 
z
" transform="scale(0.015625)"/>
       <path id="DejaVuSans-29" d="M 513 4856 
L 1013 4856 
Q 1481 4119 1714 3412 
Q 1947 2706 1947 2009 
Q 1947 1309 1714 600 
Q 1481 -109 1013 -844 
L 513 -844 
Q 928 -128 1133 580 
Q 1338 1288 1338 2009 
Q 1338 2731 1133 3434 
Q 928 4138 513 4856 
z
" transform="scale(0.015625)"/>
      </defs>
      <use xlink:href="#DejaVuSans-4e"/>
      <use xlink:href="#DejaVuSans-6f" x="74.804688"/>
      <use xlink:href="#DejaVuSans-72" x="135.986328"/>
      <use xlink:href="#DejaVuSans-74" x="177.099609"/>
      <use xlink:href="#DejaVuSans-68" x="216.308594"/>
      <use xlink:href="#DejaVuSans-28" x="279.6875"/>
      <use xlink:href="#DejaVuSans-6d" x="318.701172"/>
      <use xlink:href="#DejaVuSans-29" x="416.113281"/>
     </g>
    </g>
   </g>
   <g id="line2d_16">
    <path d="M 288.409091 160.492063 
L 288.872269 140.920437 
L 289.335447 135.085933 
L 289.798625 125.456674 
L 290.261804 121.980707 
L 290.724982 116.275478 
L 291.18816 113.813865 
L 291.651338 109.66892 
L 292.114516 110.708121 
L 292.577694 110.995423 
L 293.040873 116.150282 
L 293.504051 119.60043 
L 293.967229 120.362615 
L 294.430407 122.162847 
L 294.893585 126.270527 
L 295.356763 128.609569 
L 295.819942 127.764456 
L 296.28312 125.55862 
L 297.209476 126.127135 
L 297.672654 128.478354 
L 298.135832 125.928532 
L 298.599011 122.24325 
L 299.062189 120.609709 
L 299.525367 122.005073 
L 299.988545 118.006246 
L 300.451723 120.610128 
L 300.914901 120.678253 
L 301.37808 119.598742 
L 301.841258 116.799301 
L 302.304436 118.617798 
L 302.767614 119.864 
L 303.230792 123.320236 
L 303.69397 122.743006 
L 304.157149 120.299728 
L 304.620327 118.800129 
L 305.083505 119.9063 
L 305.546683 123.764361 
L 306.009861 120.383492 
L 306.473039 112.810863 
L 306.936218 109.606553 
L 307.399396 105.364197 
L 307.862574 103.097478 
L 308.325752 102.471542 
L 308.78893 97.367698 
L 309.252108 98.42212 
L 310.641643 118.958207 
L 311.104821 122.782783 
L 311.567999 129.103541 
L 312.031177 131.010317 
L 312.494356 135.051026 
L 312.957534 136.263742 
L 313.420712 137.028971 
L 313.88389 138.421291 
L 314.347068 139.250447 
L 314.810246 145.909103 
L 315.273425 150.716931 
L 315.736603 144.742468 
L 316.199781 150.268709 
L 316.662959 145.992867 
L 317.126137 144.447606 
L 317.589315 141.17937 
L 318.052494 131.649368 
L 318.515672 126.332435 
L 318.97885 127.587769 
L 319.442028 121.655923 
L 319.905206 125.395263 
L 320.368384 130.166562 
L 320.831563 136.803909 
L 321.294741 136.111002 
L 321.757919 139.329797 
L 322.221097 145.787541 
L 322.684275 145.916548 
L 323.147453 149.865933 
L 323.610632 150.308485 
L 324.07381 145.399466 
L 325.000166 154.54937 
L 325.463344 153.013241 
L 325.926522 158.350747 
L 326.852879 156.715316 
L 327.316057 160.031523 
L 327.779235 159.119439 
L 328.242413 157.239324 
L 328.705591 161.910166 
L 329.631948 160.095132 
L 330.095126 158.327649 
L 330.558304 158.764114 
L 331.48466 160.054087 
L 331.947839 153.784343 
L 332.411017 152.272567 
L 333.337373 158.847142 
L 333.800551 160.406888 
L 334.263729 162.758107 
L 334.726907 158.378765 
L 335.190086 160.456013 
L 335.653264 158.119279 
L 337.042798 135.285714 
L 337.505976 133.624776 
L 337.969155 136.161686 
L 338.895511 131.573454 
L 339.821867 149.548278 
L 340.285045 154.194767 
L 340.748224 151.267473 
L 341.211402 150.449757 
L 341.67458 151.966886 
L 342.137758 156.829508 
L 343.064114 149.681166 
L 343.527293 147.883242 
L 344.453649 152.929666 
L 344.916827 153.201748 
L 345.380005 153.942624 
L 345.843183 152.062509 
L 346.306362 151.476147 
L 346.76954 152.774099 
L 347.232718 147.94727 
L 347.695896 149.169119 
L 348.159074 147.818681 
L 348.622252 147.366261 
L 349.548609 153.602938 
L 350.474965 163.921787 
L 350.938143 163.390219 
L 351.401321 166.265027 
L 351.8645 170.314868 
L 352.327678 166.915734 
L 352.790856 164.478544 
L 353.717212 166.085107 
L 354.18039 164.71336 
L 354.643569 165.091986 
L 355.106747 167.038336 
L 355.569925 168.363685 
L 356.033103 167.171542 
L 356.496281 157.732864 
L 356.959459 152.227196 
L 357.422638 153.138543 
L 357.885816 150.631338 
L 358.348994 144.185035 
L 358.812172 144.082689 
L 359.27535 143.088415 
L 359.738528 149.613129 
L 360.201707 145.175949 
L 360.664885 145.146662 
L 361.128063 147.927102 
L 361.591241 150.010438 
L 362.054419 146.708716 
L 362.517597 141.099548 
L 362.980776 132.102268 
L 363.443954 130.818801 
L 363.907132 120.798695 
L 364.37031 114.507642 
L 364.833488 106.594071 
L 367.149379 103.085349 
L 367.612557 101.847544 
L 368.075735 99.188133 
L 368.538914 98.598727 
L 369.002092 97.373099 
L 369.928448 88.238998 
L 370.854804 81.366847 
L 371.781161 70.648406 
L 372.244339 63.904108 
L 374.097052 59.665621 
L 378.728833 55.8 
L 379.192011 56.342108 
L 380.118368 57.623938 
L 380.581546 56.077776 
L 381.044724 61.094748 
L 381.507902 70.224333 
L 381.97108 71.216477 
L 382.897437 87.648259 
L 383.360615 91.722453 
L 383.823793 98.06452 
L 384.286971 100.647092 
L 384.750149 101.747176 
L 385.213328 107.157741 
L 385.676506 108.854473 
L 386.139684 117.781002 
L 386.602862 123.839965 
L 387.529218 140.947214 
L 387.992397 147.121854 
L 388.455575 162.818518 
L 388.918753 169.416291 
L 389.381931 168.260678 
L 390.308287 177.492774 
L 390.771466 176.081454 
L 391.234644 177.945613 
L 391.697822 175.15226 
L 392.161 175.947931 
L 392.624178 179.802948 
L 393.550535 185.095946 
L 394.013713 194.634344 
L 394.476891 196.90946 
L 394.940069 195.501184 
L 395.403247 201.197897 
L 395.866425 201.150345 
L 396.329604 203.799888 
L 396.792782 202.151127 
L 397.25596 198.222315 
L 397.719138 201.115388 
L 398.182316 201.119587 
L 398.645494 205.312501 
L 399.108673 206.6896 
L 399.571851 202.611627 
L 400.498207 197.174083 
L 400.961385 201.491807 
L 401.424563 210.381807 
L 401.887742 211.731509 
L 402.35092 214.311037 
L 402.814098 213.234571 
L 403.740454 224.134847 
L 404.203632 219.097974 
L 405.129989 203.608729 
L 405.593167 193.469903 
L 406.056345 197.991583 
L 406.519523 196.437189 
L 407.44588 185.054469 
L 407.909058 184.09368 
L 408.372236 184.731056 
L 408.835414 187.843306 
L 409.298592 186.021029 
L 409.76177 181.516878 
L 410.224949 188.836109 
L 410.688127 197.917889 
L 411.151305 204.074265 
L 411.614483 207.484839 
L 412.077661 209.735602 
L 412.540839 215.654536 
L 413.004018 218.608491 
L 413.467196 217.066274 
L 414.393552 205.570921 
L 414.85673 202.28442 
L 415.319908 202.519972 
L 415.783087 194.630754 
L 416.709443 197.241878 
L 417.172621 197.139531 
L 417.635799 187.910898 
L 418.098977 181.278903 
L 419.025334 171.901108 
L 419.488512 169.399991 
L 419.95169 160.104387 
L 420.414868 148.32782 
L 420.878046 140.96828 
L 421.341225 141.009008 
L 422.267581 143.824088 
L 422.730759 144.644112 
L 423.193937 144.693972 
L 424.120294 155.916926 
L 424.583472 160.554283 
L 425.509828 155.488123 
L 425.973006 149.522791 
L 426.436184 150.784213 
L 426.899363 150.356146 
L 427.825719 144.361528 
L 428.288897 144.253093 
L 429.215253 151.716553 
L 429.678432 150.149982 
L 430.14161 151.475331 
L 430.604788 152.301443 
L 431.531144 154.53814 
L 431.994322 152.183141 
L 432.4575 154.232991 
L 432.920679 153.403099 
L 433.847035 147.597217 
L 434.773391 156.881063 
L 435.236569 163.509278 
L 435.699748 162.256253 
L 436.162926 164.659222 
L 436.626104 163.978492 
L 437.089282 169.060291 
L 437.55246 169.831609 
L 438.941995 167.861324 
L 439.405173 171.524561 
L 439.868351 170.091932 
L 440.794707 173.613249 
L 441.721064 166.337054 
L 442.184242 165.017058 
L 442.64742 164.150637 
L 443.110598 166.842798 
L 443.573776 167.431468 
L 444.036955 163.633554 
L 444.963311 160.509546 
L 445.889667 151.379478 
L 446.816024 145.972376 
L 447.279202 149.002435 
L 447.74238 149.003589 
L 448.205558 154.852508 
L 448.668736 158.874952 
L 449.131914 164.105913 
L 450.058271 170.692664 
L 450.521449 167.409208 
L 450.984627 171.94002 
L 451.447805 170.18167 
L 451.910983 171.887534 
L 452.374162 169.480785 
L 452.83734 170.413442 
L 453.300518 165.708379 
L 453.763696 168.397495 
L 454.690052 163.468321 
L 455.153231 161.253352 
L 456.079587 162.381987 
L 456.542765 165.692105 
L 457.005943 166.006804 
L 458.395478 154.430414 
L 458.858656 150.92778 
L 459.321834 146.566703 
L 460.24819 132.170299 
L 460.711369 131.264304 
L 461.174547 131.235017 
L 461.637725 131.571025 
L 462.100903 126.646785 
L 463.027259 119.815032 
L 463.490438 118.616801 
L 463.953616 113.415545 
L 464.416794 112.941816 
L 464.879972 107.478765 
L 465.806328 109.292328 
L 466.269507 113.725728 
L 466.732685 115.06021 
L 467.195863 122.205926 
L 467.659041 120.876797 
L 468.122219 123.343693 
L 468.585397 123.825819 
L 469.048576 126.910672 
L 469.511754 131.68197 
L 469.974932 133.777483 
L 470.43811 133.793857 
L 470.901288 143.986743 
L 471.827645 160.935697 
L 472.290823 164.011417 
L 472.754001 161.464639 
L 473.217179 163.599725 
L 473.680357 164.142733 
L 474.143535 158.676638 
L 475.53307 146.521865 
L 475.996248 149.354056 
L 476.459426 148.478502 
L 477.385783 150.914956 
L 477.848961 154.584281 
L 478.775317 157.50895 
L 479.238495 167.309143 
L 479.701673 172.269177 
L 480.164852 175.003956 
L 480.62803 174.551536 
L 481.091208 174.333513 
L 481.554386 178.602531 
L 482.017564 180.564101 
L 482.943921 171.184416 
L 483.407099 170.378877 
L 483.870277 168.529203 
L 484.796633 156.175407 
L 485.72299 153.045311 
L 486.649346 162.310892 
L 487.112524 167.855398 
L 487.575702 170.014837 
L 488.03888 169.315843 
L 488.502059 166.814726 
L 489.428415 153.639016 
L 489.891593 144.093794 
L 490.354771 137.6688 
L 490.817949 137.067217 
L 491.281128 137.710682 
L 491.744306 142.271935 
L 492.207484 149.021915 
L 492.670662 153.537507 
L 493.13384 154.141398 
L 493.597018 156.882265 
L 494.060197 162.804243 
L 494.523375 167.073261 
L 494.986553 166.383398 
L 495.449731 168.314528 
L 495.912909 166.884943 
L 496.376087 175.50706 
L 496.839266 177.465587 
L 497.302444 172.011669 
L 497.765622 172.402471 
L 498.691978 165.111055 
L 499.155156 165.818447 
L 499.618335 158.84551 
L 500.081513 154.880169 
L 500.544691 154.497763 
L 501.007869 153.899225 
L 501.471047 158.064742 
L 501.934225 161.015654 
L 502.397404 155.747427 
L 502.860582 156.320877 
L 503.32376 157.378343 
L 503.786938 160.81327 
L 504.250116 166.881366 
L 504.713294 164.179337 
L 505.176473 157.462107 
L 505.639651 158.297351 
L 506.102829 158.514639 
L 506.566007 158.905441 
L 507.029185 156.023808 
L 507.492363 146.859102 
L 507.955542 145.913533 
L 508.41872 146.855322 
L 509.345076 162.251771 
L 509.808254 159.026153 
L 510.271432 157.526553 
L 511.660967 166.750671 
L 512.124145 157.476376 
L 512.587323 153.380138 
L 513.050501 151.968818 
L 513.51368 153.148048 
L 513.976858 151.81892 
L 514.903214 140.609715 
L 515.366392 142.702183 
L 516.755927 128.505537 
L 517.219105 131.806523 
L 518.608639 113.393028 
L 519.071818 113.257197 
L 519.534996 104.077269 
L 519.998174 109.874438 
L 520.461352 103.428135 
L 520.92453 102.747405 
L 521.387708 103.107766 
L 521.850887 104.688821 
L 522.314065 102.279028 
L 522.777243 102.776375 
L 523.240421 101.815586 
L 523.703599 111.204822 
L 524.629956 115.076214 
L 525.093134 116.432004 
L 525.556312 120.116549 
L 526.01949 121.05225 
L 526.482668 121.010786 
L 526.945846 110.686268 
L 527.409025 110.656981 
L 527.872203 110.792076 
L 530.651272 130.718603 
L 531.11445 134.9724 
L 531.577628 141.357085 
L 532.040806 142.524139 
L 532.503984 142.10216 
L 532.967162 150.897792 
L 534.356697 168.070121 
L 534.819875 171.952535 
L 535.283053 178.416367 
L 535.746231 182.883253 
L 536.20941 181.277109 
L 536.672588 186.170172 
L 537.135766 186.335709 
L 537.598944 188.397736 
L 538.062122 187.443035 
L 538.988479 192.063282 
L 539.451657 195.51343 
L 539.914835 197.249735 
L 540.378013 198.018009 
L 540.841191 194.241404 
L 541.304369 196.921388 
L 541.767548 197.254352 
L 542.230726 191.69389 
L 542.693904 188.495668 
L 543.157082 188.308087 
L 543.62026 183.484302 
L 544.083438 187.914659 
L 544.546617 189.40439 
L 545.009795 188.525792 
L 545.472973 198.036794 
L 545.936151 202.442797 
L 546.399329 197.88994 
L 546.862507 203.236578 
L 547.325686 205.058119 
L 548.252042 215.705733 
L 548.71522 213.92303 
L 549.178398 217.945474 
L 549.641576 227.827859 
L 550.104755 233.497174 
L 550.567933 235.653569 
L 551.031111 231.015476 
L 551.494289 234.136859 
L 551.957467 236.466769 
L 552.420645 232.16353 
L 552.883824 232.624347 
L 553.347002 230.732055 
L 553.81018 231.281152 
L 554.273358 228.968771 
L 554.736536 226.026256 
L 555.662893 240.475983 
L 556.126071 243.21685 
L 556.589249 249.175357 
L 557.052427 251.818812 
L 557.515605 260.480503 
L 557.978783 260.499922 
L 558.441962 258.890734 
L 558.90514 261.540277 
L 559.831496 260.950871 
L 560.294674 260.09967 
L 560.757852 268.822243 
L 561.221031 270.098885 
L 561.684209 269.539921 
L 562.147387 265.614153 
L 562.610565 257.192213 
L 563.073743 254.755023 
L 563.536921 251.642037 
L 564.0001 234.754384 
L 564.463278 228.101081 
L 564.926456 225.64867 
L 565.389634 230.630013 
L 565.852812 239.093836 
L 566.31599 236.370498 
L 566.779169 238.828261 
L 567.242347 250.403179 
L 567.705525 254.903551 
L 568.168703 261.388692 
L 568.631881 257.265056 
L 569.095059 255.564544 
L 570.021416 254.912366 
L 570.484594 260.466004 
L 570.947772 263.027268 
L 571.41095 261.326756 
L 571.874128 260.916953 
L 572.337307 255.490432 
L 572.800485 258.19477 
L 573.263663 259.593177 
L 573.726841 254.437583 
L 574.190019 251.288068 
L 574.653197 250.829559 
L 575.116376 252.985954 
L 575.579554 249.71163 
L 576.042732 245.524068 
L 576.50591 238.612013 
L 578.358623 206.284976 
L 578.821801 207.707737 
L 579.284979 205.197488 
L 579.748157 205.259524 
L 580.674514 199.012244 
L 581.137692 201.810949 
L 582.064048 188.172532 
L 582.527226 186.000181 
L 582.990404 182.059193 
L 583.453583 181.530669 
L 583.916761 183.321769 
L 584.379939 183.92566 
L 584.843117 186.642174 
L 585.306295 193.081653 
L 586.232652 196.210278 
L 586.69583 194.665017 
L 587.159008 189.576394 
L 587.622186 186.898718 
L 588.085364 185.280397 
L 588.548542 186.550952 
L 589.011721 186.558194 
L 589.474899 188.468015 
L 590.401255 188.764449 
L 591.327611 201.628187 
L 591.79079 206.502986 
L 592.253968 206.190595 
L 593.180324 213.404436 
L 593.643502 222.166583 
L 594.10668 225.361024 
L 594.569859 226.561564 
L 595.033037 224.264403 
L 595.496215 216.539568 
L 596.422571 205.433863 
L 597.348928 178.772679 
L 597.812106 173.948894 
L 598.275284 170.641084 
L 599.20164 168.902153 
L 599.664818 166.562375 
L 600.127997 170.740069 
L 600.591175 181.468721 
L 601.517531 178.474456 
L 601.980709 177.961153 
L 602.443887 183.112967 
L 602.907066 184.182609 
L 603.370244 184.73475 
L 603.833422 183.904858 
L 604.2966 177.811673 
L 604.759778 177.706283 
L 605.222956 181.576521 
L 605.686135 175.026717 
L 606.149313 172.598659 
L 606.612491 174.502392 
L 607.075669 178.442644 
L 608.002025 197.19372 
L 608.465204 197.551037 
L 608.928382 206.148801 
L 609.39156 203.869905 
L 609.854738 202.38857 
L 610.317916 202.216209 
L 610.781094 194.594874 
L 611.244273 193.347937 
L 611.707451 189.084272 
L 612.170629 189.67903 
L 612.633807 201.412243 
L 613.096985 201.68128 
L 614.023342 204.505493 
L 614.48652 200.63452 
L 614.949698 203.965947 
L 615.412876 200.250224 
L 615.876054 200.844983 
L 616.339232 203.442776 
L 616.802411 202.396751 
L 617.265589 207.67033 
L 617.728767 207.887617 
L 618.191945 216.308822 
L 618.655123 216.88836 
L 619.118301 213.470961 
L 620.044658 220.392566 
L 620.507836 218.080186 
L 620.971014 219.8378 
L 621.434192 213.99119 
L 622.360549 210.252268 
L 622.823727 206.314324 
L 623.286905 201.061318 
L 623.750083 202.937654 
L 624.213261 198.004281 
L 624.676439 190.994815 
L 625.139618 190.594144 
L 626.065974 200.148918 
L 626.529152 208.192651 
L 626.99233 209.225763 
L 627.918686 224.652654 
L 628.381865 222.790804 
L 628.845043 215.744808 
L 629.308221 213.359368 
L 629.771399 207.126154 
L 630.234577 198.853376 
L 631.160934 193.869407 
L 631.624112 198.598088 
L 632.08729 201.302425 
L 632.550468 199.072236 
L 633.013646 200.921174 
L 633.476824 202.139978 
L 634.403181 199.012926 
L 634.866359 202.47525 
L 635.329537 203.958894 
L 635.792715 205.896112 
L 636.255893 205.404117 
L 636.719072 212.221068 
L 637.18225 207.701696 
L 637.645428 206.208185 
L 638.108606 199.609676 
L 638.571784 195.942659 
L 639.034962 200.659163 
L 639.498141 215.515649 
L 640.424497 234.562004 
L 640.887675 240.155217 
L 641.350853 251.842768 
L 641.814031 255.62777 
L 642.27721 252.80702 
L 642.740388 240.232893 
L 643.203566 224.572022 
L 643.666744 216.171391 
L 644.129922 205.469401 
L 644.5931 200.039836 
L 645.056279 199.018164 
L 645.519457 200.124335 
L 645.982635 202.557746 
L 646.908991 219.031816 
L 647.372169 230.600646 
L 647.835348 231.670288 
L 648.298526 234.14936 
L 648.761704 234.963296 
L 649.224882 234.526096 
L 649.68806 235.270017 
L 650.151238 235.210288 
L 650.614417 234.75178 
L 651.077595 233.541372 
L 651.540773 234.035675 
L 652.003951 230.533041 
L 652.467129 224.747313 
L 652.930307 225.476013 
L 653.393486 224.329532 
L 653.856664 224.708158 
L 654.78302 230.141185 
L 655.246198 234.516748 
L 655.709376 242.800967 
L 656.172555 241.188734 
L 656.635733 240.19446 
L 658.025267 218.688133 
L 658.488445 210.369693 
L 659.87798 181.234789 
L 660.341158 182.754962 
L 660.804336 183.164029 
L 661.267514 186.936854 
L 661.730693 186.277433 
L 662.657049 182.267585 
L 663.120227 182.764931 
L 663.583405 183.073542 
L 664.046583 182.761151 
L 664.509762 177.480748 
L 664.97294 178.054198 
L 665.436118 179.936622 
L 665.899296 186.516131 
L 666.825652 194.165282 
L 667.288831 191.621547 
L 667.752009 191.552686 
L 668.215187 192.908476 
L 668.678365 192.331247 
L 669.141543 189.120849 
L 669.604721 187.630382 
L 670.0679 183.698526 
L 670.531078 182.198927 
L 670.994256 179.66128 
L 671.457434 179.64417 
L 671.920612 179.188705 
L 672.38379 181.016335 
L 672.846969 174.235178 
L 673.310147 172.004988 
L 673.773325 173.412528 
L 674.236503 180.439523 
L 674.699681 181.685725 
L 675.162859 179.546859 
L 675.626038 176.123372 
L 676.089216 187.91138 
L 676.552394 193.008399 
L 677.015572 190.872578 
L 677.47875 193.747386 
L 677.941928 194.092526 
L 678.868285 200.450968 
L 679.331463 197.861572 
L 679.794641 192.89167 
L 680.257819 200.813638 
L 680.720997 193.423656 
L 681.184176 199.412604 
L 681.647354 200.253937 
L 682.110532 199.317501 
L 682.57371 194.079715 
L 683.036888 202.482655 
L 683.500066 200.258554 
L 683.963245 204.384498 
L 684.426423 201.996014 
L 684.889601 204.280262 
L 685.352779 207.669528 
L 685.815957 208.89442 
L 686.279135 206.758598 
L 686.742314 212.61665 
L 687.205492 213.698468 
L 687.66867 210.631144 
L 688.131848 217.006697 
L 688.595026 216.307702 
L 689.058204 216.811137 
L 689.521383 218.297824 
L 689.984561 211.623212 
L 690.447739 211.030762 
L 690.910917 214.00907 
L 691.374095 211.751484 
L 691.837273 206.799846 
L 692.300452 207.458531 
L 692.76363 200.631713 
L 693.226808 207.177736 
L 693.689986 206.350888 
L 694.153164 201.119191 
L 694.616342 201.759612 
L 695.079521 196.165664 
L 695.542699 205.083061 
L 696.005877 216.950215 
L 696.469055 214.908761 
L 696.932233 221.874874 
L 697.395411 231.790744 
L 697.85859 234.020198 
L 698.321768 251.123248 
L 698.784946 253.246157 
L 699.248124 249.454331 
L 699.711302 253.762923 
L 700.17448 240.540397 
L 700.637659 236.28282 
L 702.490371 206.555466 
L 702.953549 203.272009 
L 703.416728 212.414671 
L 703.879906 214.750669 
L 704.343084 219.741145 
L 704.806262 226.14105 
L 705.26944 228.568372 
L 705.732618 230.143339 
L 706.195797 229.127755 
L 706.658975 230.224795 
L 707.122153 230.767803 
L 707.585331 230.020103 
L 708.048509 228.590518 
L 708.511687 234.786467 
L 708.974866 238.930676 
L 709.438044 241.978999 
L 709.901222 239.998428 
L 710.827578 252.980886 
L 711.290756 264.05048 
L 712.217113 273.459135 
L 713.143469 285.269606 
L 713.606647 280.512792 
L 714.069825 279.576356 
L 714.533004 276.907812 
L 715.45936 284.048594 
L 715.922538 286.902094 
L 716.385716 288.547075 
L 717.312073 301.754799 
L 717.775251 304.118195 
L 718.238429 293.851514 
L 719.164785 282.648398 
L 719.627963 285.31925 
L 720.091142 274.519848 
L 720.55432 266.4906 
L 721.017498 262.436979 
L 721.480676 267.954088 
L 721.943854 272.031326 
L 722.407032 273.0066 
L 722.870211 276.831176 
L 723.333389 282.482226 
L 723.796567 290.40115 
L 725.186101 296.81965 
L 725.64928 298.273182 
L 726.112458 297.087457 
L 726.575636 302.014336 
L 727.038814 300.627699 
L 727.501992 304.766149 
L 727.96517 306.837638 
L 728.428348 302.141707 
L 728.891527 303.807998 
L 729.354705 307.8 
L 730.281061 297.747563 
L 731.207417 293.783376 
L 731.670596 287.897192 
L 732.133774 285.176898 
L 732.596952 284.213065 
L 733.06013 286.795637 
L 733.523308 287.770911 
L 733.986486 287.358065 
L 734.449665 287.444454 
L 734.912843 295.661703 
L 735.376021 287.461983 
L 736.302377 277.513046 
L 736.765555 280.829253 
L 737.228734 277.664517 
L 738.15509 268.068699 
L 739.081446 279.757404 
L 739.544624 277.259331 
L 740.470981 265.51436 
L 740.934159 265.713383 
L 741.397337 264.113327 
L 741.860515 264.51935 
L 742.323693 260.913216 
L 742.786872 259.928073 
L 743.25005 258.52893 
L 743.713228 267.336738 
L 744.176406 264.394223 
L 744.639584 268.185314 
L 745.565941 251.880243 
L 746.029119 253.85399 
L 746.492297 253.498982 
L 746.955475 242.172946 
L 747.418653 239.172593 
L 747.881831 227.386894 
L 748.34501 226.346958 
L 748.808188 223.626664 
L 749.271366 221.694799 
L 749.734544 216.715764 
L 750.197722 209.048767 
L 750.6609 206.45937 
L 751.124079 206.290053 
L 751.587257 200.769164 
L 752.050435 203.105163 
L 752.513613 196.549271 
L 752.976791 195.914203 
L 753.439969 202.061446 
L 753.903148 203.578575 
L 754.366326 204.13376 
L 754.829504 210.722401 
L 755.292682 209.694641 
L 755.75586 214.024541 
L 756.219038 222.573599 
L 756.682217 224.035933 
L 757.145395 224.922928 
L 757.608573 228.330458 
L 758.071751 229.454895 
L 758.998107 227.10105 
L 759.461286 220.648659 
L 759.924464 222.631539 
L 761.777176 202.748885 
L 762.240355 192.951 
L 762.703533 194.580762 
L 763.166711 188.134459 
L 763.629889 186.610506 
L 764.093067 189.600991 
L 764.556245 180.281034 
L 765.482602 180.336983 
L 765.94578 184.374647 
L 766.408958 175.109484 
L 766.872136 172.373969 
L 767.335314 171.681063 
L 767.798493 170.4737 
L 768.261671 178.465682 
L 768.724849 178.147204 
L 769.188027 181.999176 
L 769.651205 191.896782 
L 770.114383 199.152086 
L 770.577562 200.836642 
L 771.04074 201.550121 
L 771.967096 208.28299 
L 772.893452 198.961143 
L 773.356631 197.047543 
L 773.819809 202.905594 
L 774.282987 206.730169 
L 774.746165 204.816569 
L 775.209343 205.618328 
L 775.672521 206.191778 
L 776.598878 205.043407 
L 777.062056 199.260723 
L 777.525234 195.834192 
L 777.988412 196.584201 
L 778.45159 198.783214 
L 778.914769 200.385578 
L 779.377947 197.671372 
L 779.841125 196.406171 
L 780.304303 199.058758 
L 781.693838 205.720458 
L 782.157016 211.417171 
L 782.620194 214.480715 
L 783.083372 220.25353 
L 783.54655 229.700605 
L 784.009728 231.235999 
L 784.472907 228.737926 
L 784.936085 221.274885 
L 785.399263 216.399351 
L 785.862441 213.79169 
L 786.325619 213.394063 
L 786.788797 210.63724 
L 787.251976 212.187854 
L 787.715154 209.510178 
L 788.178332 213.322577 
L 788.64151 212.395273 
L 789.104688 212.986988 
L 789.567866 212.443243 
L 790.031045 211.49463 
L 790.957401 219.999181 
L 791.420579 215.473721 
L 791.883757 218.598147 
L 792.346935 219.740848 
L 793.273292 217.113033 
L 793.73647 213.576913 
L 794.199648 211.310194 
L 794.662826 212.729911 
L 795.126004 207.044639 
L 795.589183 204.796185 
L 796.052361 207.768405 
L 796.515539 209.742153 
L 796.978717 209.648939 
L 797.441895 217.713981 
L 797.905073 217.7334 
L 798.368252 222.900435 
L 799.294608 226.875326 
L 800.220964 237.209396 
L 800.684142 231.563698 
L 801.147321 238.264972 
L 801.610499 248.049944 
L 802.073677 248.748203 
L 802.536855 247.50431 
L 803.000033 248.674408 
L 803.463211 248.617724 
L 803.92639 259.136331 
L 804.389568 258.942661 
L 804.852746 253.099095 
L 805.315924 258.966279 
L 805.779102 257.96896 
L 806.24228 260.426723 
L 806.705459 265.155404 
L 807.168637 263.366612 
L 807.631815 265.58389 
L 808.094993 265.167999 
L 808.558171 262.039792 
L 809.021349 268.171815 
L 809.484528 264.106018 
L 809.947706 256.764742 
L 810.410884 253.076416 
L 811.33724 244.469938 
L 811.800418 242.157557 
L 812.263597 237.227229 
L 812.726775 230.884426 
L 813.653131 228.79542 
L 814.116309 229.000531 
L 814.579487 228.006256 
L 815.042666 228.333132 
L 815.505844 225.064895 
L 815.969022 227.470909 
L 816.4322 228.784081 
L 816.895378 228.721308 
L 817.358556 231.279528 
L 817.821735 235.295883 
L 818.284913 226.663898 
L 818.748091 226.914671 
L 819.211269 224.230906 
L 819.674447 225.531902 
L 820.600804 218.070015 
L 821.063982 211.937257 
L 821.52716 216.738997 
L 821.990338 212.259199 
L 822.453516 213.036605 
L 822.916694 212.005801 
L 823.379873 217.47116 
L 824.306229 225.446032 
L 824.769407 227.121455 
L 825.695763 237.574246 
L 826.158941 239.073109 
L 826.62212 232.772924 
L 827.085298 230.579264 
L 827.548476 230.81786 
L 828.011654 231.844885 
L 829.401189 215.1361 
L 829.864367 216.111374 
L 830.327545 214.039479 
L 830.790723 213.56575 
L 831.253901 213.597345 
L 831.717079 220.459958 
L 832.643436 222.884236 
L 833.106614 231.503308 
L 833.569792 229.903253 
L 834.03297 229.091625 
L 834.496148 223.655972 
L 834.959327 220.719545 
L 835.422505 216.002305 
L 835.885683 213.431174 
L 836.812039 205.527889 
L 838.201574 199.111291 
L 838.664752 196.841528 
L 839.591108 199.330887 
L 840.054286 202.278754 
L 840.517465 202.234247 
L 840.980643 206.905089 
L 841.906999 213.397472 
L 842.370177 210.275354 
L 842.833355 200.757529 
L 843.296534 203.187895 
L 843.759712 209.569536 
L 844.22289 208.483937 
L 844.686068 212.150218 
L 845.149246 214.668864 
L 845.612424 213.814619 
L 846.075603 213.8797 
L 846.538781 212.538395 
L 847.001959 209.933778 
L 847.465137 212.601586 
L 847.928315 210.742779 
L 848.391493 208.28428 
L 848.854672 210.273248 
L 849.31785 213.546837 
L 849.781028 217.913267 
L 850.707384 214.186522 
L 851.170562 211.012653 
L 851.633741 209.583069 
L 852.560097 213.609711 
L 853.023275 211.629139 
L 853.486453 214.26955 
L 853.949631 213.366599 
L 854.41281 216.399702 
L 855.339166 217.548492 
L 855.802344 215.671421 
L 856.265522 215.873487 
L 857.655057 214.672212 
L 858.118235 210.773842 
L 858.581413 218.994134 
L 859.044591 216.852224 
L 859.507769 221.048183 
L 859.970948 222.900165 
L 860.434126 220.624314 
L 860.897304 219.553936 
L 861.360482 223.478967 
L 861.82366 216.369045 
L 862.286838 213.727899 
L 862.750017 208.444451 
L 863.213195 205.343642 
L 863.676373 211.737459 
L 864.139551 209.951712 
L 864.602729 210.844795 
L 865.065907 209.448695 
L 865.992264 219.207425 
L 866.455442 220.630186 
L 866.91862 217.91598 
L 867.381798 226.644642 
L 867.844976 222.466212 
L 868.308155 230.00462 
L 868.771333 232.106221 
L 869.234511 226.780156 
L 869.697689 225.079644 
L 870.160867 230.937695 
L 870.624045 225.517262 
L 871.087224 224.909592 
L 872.01358 217.182866 
L 872.476758 221.144427 
L 872.939936 220.460653 
L 873.403114 211.716036 
L 873.866293 212.243823 
L 874.329471 220.205365 
L 874.792649 216.733172 
L 875.255827 220.034158 
L 875.719005 219.548253 
L 876.182183 223.588961 
L 876.645362 235.157791 
L 877.10854 233.557735 
L 877.571718 231.22709 
L 878.034896 238.378894 
L 878.498074 238.760564 
L 878.961252 242.783008 
L 879.424431 237.326045 
L 879.887609 229.579901 
L 880.350787 228.826112 
L 880.813965 230.958154 
L 881.277143 230.527042 
L 881.740321 233.331836 
L 882.2035 234.848964 
L 882.666678 241.650694 
L 883.593034 247.220708 
L 884.056212 243.29494 
L 884.51939 244.279347 
L 884.982569 239.263783 
L 885.908925 234.301123 
L 886.372103 233.988732 
L 886.835281 228.994477 
L 887.298459 230.560312 
L 887.761638 222.226651 
L 888.687994 218.075618 
L 889.61435 221.058125 
L 890.077528 220.83097 
L 890.540707 221.769715 
L 891.003885 218.556273 
L 891.467063 220.788771 
L 891.930241 229.885771 
L 892.393419 228.955423 
L 892.856597 235.945889 
L 893.319776 233.959229 
L 894.246132 238.055886 
L 894.70931 242.385787 
L 895.172488 238.670064 
L 895.635666 238.4216 
L 896.098845 238.389269 
L 897.025201 247.700512 
L 897.488379 242.983272 
L 897.951557 236.521748 
L 898.414735 235.978004 
L 898.877914 235.735628 
L 899.341092 231.401948 
L 899.80427 225.935854 
L 900.267448 221.809174 
L 900.730626 222.172579 
L 901.656983 231.121572 
L 902.120161 229.877678 
L 902.583339 222.627726 
L 903.046517 219.612152 
L 903.509695 222.346931 
L 903.972873 224.232399 
L 904.436052 224.114832 
L 904.89923 221.625892 
L 905.362408 222.196298 
L 905.825586 228.227864 
L 906.288764 221.726767 
L 906.751942 217.186086 
L 907.678299 215.434978 
L 908.141477 215.083014 
L 909.067833 206.551485 
L 909.531011 197.965162 
L 909.99419 222.060567 
L 910.920546 213.71473 
L 911.846902 219.35056 
L 912.31008 223.707858 
L 912.773259 208.692342 
L 914.625971 213.280993 
L 915.089149 223.717409 
L 915.552328 204.491868 
L 919.720931 212.462542 
L 920.184109 219.267316 
L 922.963178 212.982352 
L 923.426356 218.755167 
L 923.889534 217.441259 
L 924.352713 206.912784 
L 924.815891 204.33252 
L 928.521316 204.619822 
L 928.984494 189.00157 
L 929.447672 188.856606 
L 929.910851 194.142362 
L 930.374029 197.227215 
L 930.837207 198.595181 
L 931.300385 201.929653 
L 931.763563 198.076944 
L 933.616276 176.632655 
L 934.079454 179.458757 
L 934.542632 178.878483 
L 935.00581 185.132271 
L 935.468989 185.663103 
L 936.395345 197.284837 
L 936.858523 198.61323 
L 937.784879 197.77536 
L 938.248058 198.187471 
L 938.711236 204.024213 
L 939.174414 200.97211 
L 939.637592 198.842376 
L 941.027127 209.867462 
L 941.490305 212.386108 
L 941.953483 204.104198 
L 942.416661 206.708079 
L 942.879839 208.173457 
L 943.806196 197.993167 
L 944.269374 187.266824 
L 944.732552 182.528275 
L 945.19573 187.199117 
L 945.658908 185.468164 
L 946.122086 185.414524 
L 946.585265 191.528282 
L 947.048443 192.049981 
L 947.511621 193.755846 
L 947.974799 189.102532 
L 948.437977 190.370043 
L 948.901155 187.945029 
L 949.364334 188.375405 
L 949.827512 183.859077 
L 950.29069 184.125071 
L 950.753868 178.394137 
L 951.217046 185.981251 
L 951.680224 181.735851 
L 952.143403 180.260604 
L 952.606581 179.966478 
L 953.069759 182.646463 
L 953.532937 182.693279 
L 954.922472 188.568859 
L 955.38565 186.235169 
L 955.848828 180.756898 
L 956.312006 185.205519 
L 956.775184 183.331492 
L 957.238362 182.2946 
L 958.164719 165.889073 
L 958.627897 165.113975 
L 959.091075 169.46214 
L 959.554253 166.598773 
L 960.017431 168.152431 
L 960.48061 166.147506 
L 960.943788 169.204962 
L 961.406966 176.859047 
L 961.870144 180.184386 
L 962.333322 181.266205 
L 962.7965 185.218634 
L 963.259679 187.941236 
L 965.112391 216.962455 
L 965.575569 218.516113 
L 966.038748 215.037832 
L 966.501926 218.107464 
L 966.965104 212.994488 
L 967.428282 204.880004 
L 967.89146 200.671133 
L 968.354638 199.475946 
L 968.817817 197.18183 
L 969.744173 185.60733 
L 970.670529 193.859218 
L 971.133707 196.213481 
L 971.596886 195.611898 
L 972.060064 199.202076 
L 972.98642 220.765924 
L 973.912776 238.180628 
L 974.375955 236.221366 
L 974.839133 235.327547 
L 976.228667 223.477186 
L 977.155024 207.66222 
L 977.618202 211.742502 
L 978.08138 210.33727 
L 978.544558 211.595648 
L 979.470914 200.727386 
L 979.934093 195.014717 
L 980.397271 193.667323 
L 980.860449 183.318452 
L 981.323627 179.392685 
L 981.786805 178.556704 
L 982.249983 183.254944 
L 982.713162 184.686837 
L 983.17634 194.0365 
L 983.639518 187.097048 
L 984.102696 193.30213 
L 984.565874 191.735559 
L 985.029052 188.54647 
L 985.492231 181.558313 
L 985.955409 177.900429 
L 986.418587 175.253194 
L 986.881765 177.924046 
L 987.344943 171.681699 
L 987.808121 171.2445 
L 988.2713 170.609432 
L 988.734478 161.569534 
L 989.197656 158.139959 
L 989.660834 153.587102 
L 990.124012 153.956595 
L 990.58719 156.770521 
L 991.050369 157.502265 
L 991.513547 153.768278 
L 991.976725 159.751138 
L 992.439903 168.141901 
L 992.903081 168.666645 
L 993.366259 168.128989 
L 993.829438 160.321962 
L 994.292616 156.758446 
L 994.755794 159.344062 
L 995.68215 168.243195 
L 996.145328 164.82884 
L 996.608507 164.81173 
L 997.071685 169.418645 
L 997.998041 184.778566 
L 998.461219 189.863409 
L 998.924397 188.038088 
L 999.850754 202.13774 
L 1000.313932 199.670109 
L 1000.77711 199.519057 
L 1001.240288 195.273657 
L 1001.703466 186.623407 
L 1002.166645 183.3917 
L 1003.093001 168.374295 
L 1004.019357 163.09809 
L 1004.482535 164.691322 
L 1004.945714 173.812675 
L 1005.408892 173.530725 
L 1005.87207 176.302034 
L 1006.335248 175.185994 
L 1007.261604 184.03453 
L 1007.724783 184.942834 
L 1008.187961 182.84963 
L 1008.651139 181.462663 
L 1009.114317 177.055924 
L 1009.577495 178.338655 
L 1010.040673 178.525501 
L 1010.503852 180.718425 
L 1010.96703 178.466926 
L 1011.430208 175.098234 
L 1011.893386 178.216572 
L 1012.356564 185.575377 
L 1012.819742 183.223423 
L 1013.282921 178.399639 
L 1013.746099 177.798056 
L 1014.209277 184.179697 
L 1014.672455 187.36805 
L 1015.135633 185.682759 
L 1015.598811 179.906163 
L 1016.06199 182.656163 
L 1016.525168 188.23111 
L 1016.988346 185.300772 
L 1017.451524 184.285188 
L 1017.914702 184.581622 
L 1018.37788 183.136817 
L 1018.841059 188.918765 
L 1019.304237 187.452651 
L 1020.230593 190.030289 
L 1021.156949 200.915345 
L 1021.620127 206.685117 
L 1022.083306 210.418369 
L 1022.546484 215.44233 
L 1023.47284 219.38678 
L 1023.936018 211.820239 
L 1024.862375 209.787918 
L 1025.325553 212.778403 
L 1025.788731 199.750701 
L 1026.251909 199.608781 
L 1026.715087 200.465335 
L 1027.641444 199.819244 
L 1028.104622 196.785406 
L 1028.5678 189.261482 
L 1029.030978 198.945999 
L 1029.494156 196.420529 
L 1029.957334 196.631728 
L 1030.420513 190.200646 
L 1030.883691 194.061751 
L 1031.346869 192.887873 
L 1031.810047 200.675899 
L 1032.273225 189.654276 
L 1032.736403 191.752832 
L 1033.199582 185.699221 
L 1034.125938 189.128061 
L 1035.052294 197.446919 
L 1035.515472 194.056918 
L 1035.978651 204.742952 
L 1036.441829 204.646694 
L 1037.368185 219.650452 
L 1037.831363 216.479627 
L 1038.75772 217.94805 
L 1039.220898 218.140984 
L 1040.147254 212.128101 
L 1041.07361 192.730199 
L 1041.999967 184.80865 
L 1042.463145 185.086819 
L 1042.926323 184.174736 
L 1043.389501 184.690347 
L 1043.852679 191.388577 
L 1044.315858 194.306003 
L 1044.779036 194.209745 
L 1045.242214 210.758764 
L 1046.16857 206.190686 
L 1046.631748 207.671286 
L 1047.094927 215.806342 
L 1048.021283 219.123703 
L 1048.484461 223.630163 
L 1048.947639 207.518762 
L 1049.873996 218.132891 
L 1050.337174 215.293876 
L 1050.800352 213.882557 
L 1051.26353 215.384464 
L 1051.726708 218.177082 
L 1052.189886 207.67296 
L 1052.653065 214.005894 
L 1053.579421 209.722074 
L 1054.042599 209.373154 
L 1054.968955 217.908146 
L 1055.432134 231.869658 
L 1055.895312 219.061133 
L 1056.35849 216.419987 
L 1056.821668 217.38004 
L 1057.284846 212.939816 
L 1058.211203 198.595162 
L 1058.674381 193.10167 
L 1059.137559 199.002339 
L 1059.600737 200.988263 
L 1060.063915 199.598252 
L 1060.527093 206.013378 
L 1060.990272 207.786213 
L 1061.45345 200.913733 
L 1061.916628 200.805298 
L 1062.379806 209.040811 
L 1062.842984 213.675124 
L 1063.306162 214.982208 
L 1063.769341 211.930105 
L 1064.232519 211.288948 
L 1064.695697 216.273336 
L 1065.158875 219.114659 
L 1066.54841 206.173347 
L 1067.474766 217.143638 
L 1067.937944 217.796235 
L 1069.327479 221.869693 
L 1069.790657 220.771918 
L 1070.253835 216.748739 
L 1070.717013 211.440939 
L 1071.180191 210.836312 
L 1071.643369 210.566539 
L 1072.106548 212.171947 
L 1072.569726 212.8215 
L 1073.496082 207.804046 
L 1073.95926 211.138517 
L 1074.885617 209.658337 
L 1075.348795 206.600145 
L 1075.811973 207.998553 
L 1076.738329 218.929271 
L 1077.201507 222.108492 
L 1077.664686 221.074643 
L 1078.127864 220.780518 
L 1078.591042 226.763378 
L 1079.05422 229.814746 
L 1079.517398 223.685032 
L 1079.980576 214.185471 
L 1080.443755 212.427121 
L 1081.370111 230.064047 
L 1082.296467 221.341892 
L 1082.759645 219.894043 
L 1083.222824 224.714047 
L 1083.686002 220.785236 
L 1084.14918 214.71336 
L 1084.612358 205.219888 
L 1085.075536 203.586347 
L 1085.538714 209.493104 
L 1086.465071 224.609494 
L 1086.928249 225.103796 
L 1087.391427 221.494618 
L 1088.317783 217.280813 
L 1089.24414 201.225361 
L 1089.707318 190.231135 
L 1090.170496 189.197286 
L 1090.633674 198.522596 
L 1091.096852 200.365446 
L 1091.560031 201.145896 
L 1092.023209 204.072455 
L 1092.949565 215.064055 
L 1093.875921 209.19729 
L 1094.3391 211.000567 
L 1094.802278 210.332013 
L 1095.265456 209.337739 
L 1095.728634 211.777237 
L 1096.191812 213.196954 
L 1096.65499 213.529918 
L 1097.118169 205.960332 
L 1097.581347 203.434863 
L 1098.044525 207.926102 
L 1098.507703 207.942476 
L 1099.434059 197.533877 
L 1099.897238 203.169707 
L 1100.360416 206.266736 
L 1100.823594 210.48096 
L 1101.286772 209.22489 
L 1101.74995 217.551727 
L 1102.213128 219.912078 
L 1102.676307 227.636178 
L 1103.139485 227.911304 
L 1103.602663 229.041828 
L 1104.065841 227.347405 
L 1104.529019 228.292238 
L 1104.992197 222.597834 
L 1105.455376 224.0693 
L 1105.918554 218.581897 
L 1106.381732 218.071638 
L 1106.84491 218.319366 
L 1107.308088 215.903485 
L 1108.697623 214.387929 
L 1109.160801 214.498672 
L 1110.550335 230.203732 
L 1111.013514 230.360137 
L 1111.476692 236.665675 
L 1112.403048 251.760756 
L 1112.866226 253.271796 
L 1113.329404 253.184671 
L 1113.792583 257.249732 
L 1114.255761 258.827743 
L 1114.718939 258.527529 
L 1115.182117 259.015743 
L 1115.645295 256.779465 
L 1116.108473 257.2829 
L 1116.571652 260.72696 
L 1117.03483 257.428283 
L 1117.498008 258.564896 
L 1117.961186 257.272297 
L 1118.424364 253.742265 
L 1118.887542 253.06458 
L 1119.35072 254.478208 
L 1120.277077 251.205038 
L 1120.740255 251.662811 
L 1121.203433 252.473702 
L 1121.666611 253.92386 
L 1122.129789 261.678401 
L 1122.592968 264.948946 
L 1123.519324 263.568067 
L 1124.44568 273.634254 
L 1125.835215 238.91338 
L 1126.298393 231.307265 
L 1126.761571 227.667645 
L 1127.224749 220.840827 
L 1127.687927 209.441732 
L 1128.151106 214.566149 
L 1128.614284 215.803218 
L 1129.077462 228.416183 
L 1129.54064 227.507144 
L 1130.003818 230.482408 
L 1130.466996 232.185229 
L 1130.930175 244.095001 
L 1131.856531 260.06679 
L 1132.319709 255.760507 
L 1133.709244 276.823228 
L 1134.172422 277.801547 
L 1134.6356 279.269969 
L 1135.098778 277.864737 
L 1136.488313 268.285294 
L 1136.951491 266.082501 
L 1137.414669 261.073025 
L 1137.877847 254.203589 
L 1138.341025 245.599001 
L 1138.804203 250.254623 
L 1139.267382 251.762619 
L 1139.73056 249.785092 
L 1140.193738 251.618809 
L 1140.656916 249.163355 
L 1141.583272 259.466983 
L 1142.046451 252.737576 
L 1142.509629 247.950321 
L 1142.972807 245.208719 
L 1143.435985 237.298191 
L 1144.362341 232.049384 
L 1144.82552 241.618224 
L 1145.288698 247.622393 
L 1145.751876 245.465262 
L 1146.215054 240.994596 
L 1147.14141 247.706157 
L 1147.604589 245.698188 
L 1148.067767 240.448227 
L 1148.530945 232.330699 
L 1148.994123 228.989403 
L 1149.457301 227.136685 
L 1150.383658 217.732647 
L 1150.846836 217.834257 
L 1151.310014 210.438187 
L 1151.773192 209.288662 
L 1152.23637 213.929063 
L 1152.699548 211.881521 
L 1153.162727 215.389507 
L 1153.625905 214.005585 
L 1154.089083 213.717547 
L 1154.552261 214.863292 
L 1155.015439 219.893341 
L 1155.478617 213.535318 
L 1155.941796 211.965704 
L 1156.868152 218.692485 
L 1157.33133 215.829117 
L 1157.794508 218.402557 
L 1158.257686 208.339833 
L 1158.720865 212.267909 
L 1159.184043 213.574993 
L 1159.647221 201.308322 
L 1160.110399 195.014226 
L 1160.573577 200.899674 
L 1161.036755 205.317854 
L 1161.499934 211.793862 
L 1161.963112 205.551516 
L 1162.42629 206.678996 
L 1162.889468 214.521817 
L 1163.352646 217.235287 
L 1163.815824 211.117749 
L 1164.279003 201.31682 
L 1164.742181 200.770032 
L 1165.205359 207.343453 
L 1165.668537 205.344616 
L 1166.131715 205.479712 
L 1166.594893 206.062294 
L 1167.058072 203.192838 
L 1167.52125 206.219853 
L 1167.984428 205.27124 
L 1168.447606 208.115607 
L 1168.910784 208.963028 
L 1169.373962 206.979413 
L 1169.837141 200.919714 
L 1170.300319 202.251151 
L 1170.763497 195.345185 
L 1171.226675 193.891247 
L 1171.689853 186.760016 
L 1172.153031 188.036659 
L 1172.61621 188.774491 
L 1173.079388 194.666028 
L 1173.542566 192.116205 
L 1174.005744 194.765748 
L 1174.468922 190.760834 
L 1174.9321 183.81225 
L 1175.395279 181.155883 
L 1176.321635 166.126301 
L 1176.784813 172.313117 
L 1177.247991 172.253389 
L 1177.711169 175.67614 
L 1178.174348 181.321102 
L 1178.637526 185.514017 
L 1179.100704 191.01895 
L 1179.563882 192.365607 
L 1180.02706 181.645352 
L 1180.490238 178.821558 
L 1180.953417 180.88663 
L 1181.416595 185.980605 
L 1181.879773 183.774769 
L 1182.342951 177.097112 
L 1182.806129 181.965823 
L 1183.269307 184.962396 
L 1183.732486 192.089847 
L 1184.195664 192.130575 
L 1185.12202 185.527132 
L 1185.585198 192.773304 
L 1186.048376 192.512664 
L 1186.974733 197.912206 
L 1187.437911 189.608987 
L 1187.901089 187.451856 
L 1188.364267 191.227726 
L 1189.290624 207.105147 
L 1189.753802 209.75469 
L 1190.21698 203.740653 
L 1190.680158 207.607846 
L 1191.143336 209.949933 
L 1191.606514 214.352892 
L 1192.532871 195.499889 
L 1192.996049 189.394528 
L 1193.459227 188.893401 
L 1193.922405 190.745384 
L 1194.385583 189.209255 
L 1194.848762 184.741633 
L 1195.31194 184.727567 
L 1195.775118 179.051427 
L 1196.238296 188.510678 
L 1196.701474 194.916672 
L 1197.164652 198.348556 
L 1197.627831 199.004197 
L 1198.091009 198.241275 
L 1198.554187 191.694516 
L 1199.017365 196.076167 
L 1199.480543 190.561366 
L 1200.4069 176.557654 
L 1200.870078 174.497936 
L 1201.796434 183.909635 
L 1202.72279 171.044426 
L 1203.185969 170.518947 
L 1203.649147 168.870185 
L 1204.112325 168.563883 
L 1204.575503 159.937986 
L 1205.038681 156.039616 
L 1205.501859 163.054434 
L 1205.965038 168.358455 
L 1206.428216 165.653382 
L 1206.891394 171.928478 
L 1207.354572 171.616087 
L 1207.81775 172.019066 
L 1208.280928 171.868014 
L 1208.744107 167.242098 
L 1209.207285 168.305652 
L 1209.670463 171.853212 
L 1210.133641 164.295803 
L 1210.596819 164.717047 
L 1211.059997 168.176327 
L 1211.523176 166.628021 
L 1211.986354 168.583504 
L 1212.449532 172.75511 
L 1212.91271 169.015034 
L 1213.375888 173.835039 
L 1213.839066 183.24254 
L 1214.302245 177.791666 
L 1214.765423 181.065255 
L 1215.228601 189.873063 
L 1215.691779 185.980781 
L 1216.154957 192.806864 
L 1216.618135 195.934335 
L 1217.081314 184.666137 
L 1217.544492 191.434382 
L 1218.00767 192.543598 
L 1218.470848 187.57674 
L 1218.934026 187.970586 
L 1219.860382 184.502592 
L 1220.323561 189.395655 
L 1220.786739 184.617533 
L 1221.249917 185.401027 
L 1221.713095 184.315429 
L 1222.639451 193.303995 
L 1223.10263 192.994648 
L 1223.565808 192.094741 
L 1224.028986 195.961935 
L 1224.492164 191.205121 
L 1224.955342 188.719225 
L 1225.41852 178.647369 
L 1226.344877 165.55385 
L 1226.808055 165.819844 
L 1227.271233 161.388751 
L 1227.734411 163.712573 
L 1228.197589 161.071427 
L 1228.660768 155.848862 
L 1229.123946 147.436054 
L 1229.587124 136.283533 
L 1230.050302 121.152341 
L 1230.976658 109.034998 
L 1231.903015 81.8262 
L 1232.829371 78.591779 
L 1233.292549 79.576516 
L 1233.755727 89.979775 
L 1234.218906 97.217145 
L 1235.145262 119.804148 
L 1236.071618 141.496014 
L 1236.534796 144.325161 
L 1236.997975 144.621595 
L 1237.461153 147.36855 
L 1237.924331 143.777637 
L 1238.850687 154.440472 
L 1239.313865 158.58468 
L 1239.777044 169.447273 
L 1240.240222 169.527575 
L 1240.7034 174.140579 
L 1241.166578 183.505462 
L 1242.092934 189.178976 
L 1242.556113 182.41304 
L 1243.019291 172.98045 
L 1243.482469 179.983092 
L 1244.408825 188.58201 
L 1244.872003 195.572476 
L 1245.335182 196.30422 
L 1246.261538 215.889386 
L 1246.724716 217.278661 
L 1247.187894 216.41224 
L 1247.651072 221.871511 
L 1248.114251 211.193874 
L 1249.503785 192.780378 
L 1249.966963 191.983972 
L 1250.430141 186.718789 
L 1250.89332 171.033566 
L 1251.356498 173.451756 
L 1251.819676 178.853188 
L 1252.746032 185.68347 
L 1253.20921 179.547667 
L 1254.135567 191.272902 
L 1254.598745 194.436902 
L 1255.061923 196.005781 
L 1255.525101 194.009989 
L 1255.988279 193.18923 
L 1256.451458 194.834211 
L 1256.914636 187.855186 
L 1257.377814 184.09989 
L 1257.840992 175.994539 
L 1258.30417 171.566491 
L 1258.767348 168.426108 
L 1259.230527 166.932596 
L 1259.693705 172.662794 
L 1260.156883 179.957673 
L 1261.083239 187.004087 
L 1261.546417 182.107244 
L 1262.009596 181.164719 
L 1262.472774 183.5616 
L 1263.862308 167.263772 
L 1264.325486 166.156864 
L 1264.788665 171.646576 
L 1265.251843 160.965895 
L 1265.715021 154.94577 
L 1266.178199 154.840379 
L 1266.641377 148.92071 
L 1267.104555 144.937104 
L 1267.567734 139.044832 
L 1268.030912 130.415891 
L 1268.49409 135.257205 
L 1268.957268 131.398408 
L 1269.420446 125.411768 
L 1269.883624 129.400726 
L 1270.346803 135.447513 
L 1271.736337 176.88152 
L 1272.199515 184.234237 
L 1272.662693 196.561054 
L 1273.125872 200.367365 
L 1273.58905 200.082371 
L 1274.515406 179.18676 
L 1274.978584 176.94135 
L 1275.441762 173.566569 
L 1276.368119 162.147319 
L 1276.831297 159.353967 
L 1277.294475 157.534734 
L 1277.757653 159.237554 
L 1278.68401 145.087724 
L 1279.147188 149.079727 
L 1279.610366 148.048923 
L 1280.073544 141.435193 
L 1280.536722 144.358707 
L 1280.9999 144.03414 
L 1281.463079 145.989623 
L 1281.926257 149.33627 
L 1282.389435 148.716423 
L 1282.852613 153.207662 
L 1283.315791 160.587776 
L 1284.242148 163.555062 
L 1284.705326 165.668839 
L 1285.168504 171.71867 
L 1285.631682 171.278426 
L 1286.09486 167.099997 
L 1286.558038 166.364472 
L 1287.021217 167.479777 
L 1287.484395 165.511382 
L 1287.947573 167.920439 
L 1288.410751 167.830269 
L 1288.873929 165.928845 
L 1289.337107 170.812776 
L 1289.800286 171.020931 
L 1290.263464 170.8851 
L 1290.726642 171.251549 
L 1291.652998 167.126024 
L 1292.116176 163.702537 
L 1292.579355 158.638267 
L 1293.042533 152.118905 
L 1293.505711 148.585829 
L 1293.968889 155.615869 
L 1294.432067 156.475466 
L 1294.895245 152.427934 
L 1295.358424 156.587363 
L 1295.821602 162.107517 
L 1296.28478 171.496753 
L 1296.747958 174.974298 
L 1297.211136 173.112448 
L 1298.137493 177.795467 
L 1301.842918 186.798099 
L 1302.306096 187.411122 
L 1303.232452 187.381835 
L 1303.695631 184.153173 
L 1304.158809 180.03867 
L 1305.085165 177.709178 
L 1305.548343 171.847347 
L 1306.011521 176.353807 
L 1306.4747 177.432581 
L 1306.937878 182.194747 
L 1307.401056 184.043686 
L 1307.864234 182.245762 
L 1308.327412 179.842057 
L 1308.79059 182.080643 
L 1309.253769 176.925049 
L 1310.180125 171.965434 
L 1310.643303 172.01225 
L 1311.106481 173.161039 
L 1311.569659 170.474231 
L 1312.032838 170.128355 
L 1312.496016 170.007744 
L 1312.959194 167.814084 
L 1313.422372 163.513889 
L 1313.88555 162.480041 
L 1314.811907 152.129279 
L 1315.275085 142.392277 
L 1315.738263 138.655245 
L 1316.201441 137.085631 
L 1316.664619 141.689502 
L 1317.127797 144.311648 
L 1317.590975 151.743512 
L 1318.054154 154.737042 
L 1318.517332 162.789907 
L 1319.443688 174.302053 
L 1319.906866 173.140351 
L 1320.370044 172.575298 
L 1320.833223 175.197444 
L 1321.296401 183.125501 
L 1321.759579 193.224018 
L 1322.222757 195.462604 
L 1322.685935 191.682955 
L 1323.149113 190.031149 
L 1323.612292 190.510231 
L 1324.07547 187.893438 
L 1324.538648 189.483625 
L 1325.001826 183.576132 
L 1325.465004 183.699052 
L 1325.928182 186.409477 
L 1326.391361 186.836809 
L 1326.854539 181.519876 
L 1327.780895 158.977393 
L 1328.244073 155.14295 
L 1328.707251 146.331361 
L 1329.17043 140.015956 
L 1329.633608 139.718786 
L 1330.096786 143.312008 
L 1330.559964 150.728651 
L 1331.023142 154.20924 
L 1331.48632 153.46154 
L 1332.412677 168.224811 
L 1332.875855 170.923061 
L 1333.339033 176.577155 
L 1333.802211 175.680293 
L 1334.265389 180.710342 
L 1334.728568 182.032646 
L 1335.654924 178.156739 
L 1336.58128 172.350857 
L 1337.507637 179.911728 
L 1338.433993 183.563942 
L 1338.897171 179.769073 
L 1339.360349 183.703237 
L 1339.823527 181.21734 
L 1340.286706 176.48488 
L 1340.749884 170.111636 
L 1341.213062 171.893603 
L 1341.67624 163.60256 
L 1342.139418 164.395187 
L 1342.602596 158.883431 
L 1343.065775 157.56039 
L 1343.528953 158.663518 
L 1343.992131 160.128896 
L 1344.455309 159.018945 
L 1344.918487 169.239227 
L 1345.844844 179.631135 
L 1346.308022 184.021918 
L 1346.7712 184.129617 
L 1347.234378 185.546289 
L 1347.697556 182.131935 
L 1348.160734 189.493784 
L 1348.623913 189.385349 
L 1349.087091 180.500702 
L 1349.550269 173.780428 
L 1350.013447 179.331022 
L 1350.939803 175.563549 
L 1351.402982 174.496216 
L 1351.86616 150.308751 
L 1352.329338 143.150122 
L 1352.792516 146.68855 
L 1353.255694 153.916458 
L 1353.718872 147.424493 
L 1354.182051 143.297813 
L 1354.645229 143.521189 
L 1355.108407 150.341183 
L 1355.571585 151.788297 
L 1356.034763 152.026893 
L 1356.497941 143.906321 
L 1356.96112 142.077956 
L 1357.424298 150.194748 
L 1357.887476 143.553621 
L 1358.350654 159.356829 
L 1358.813832 160.423427 
L 1359.27701 157.191721 
L 1359.740189 158.28876 
L 1360.203367 157.513662 
L 1360.666545 153.633557 
L 1361.129723 164.639224 
L 1361.592901 150.381695 
L 1362.056079 148.312844 
L 1362.519258 157.991273 
L 1362.982436 160.738228 
L 1363.445614 164.788068 
L 1363.908792 165.617225 
L 1364.37197 158.568185 
L 1364.835148 165.074635 
L 1365.298327 167.855075 
L 1365.761505 167.880583 
L 1367.151039 183.043789 
L 1367.614217 182.950575 
L 1368.077396 181.807138 
L 1368.540574 185.808273 
L 1369.003752 178.28435 
L 1370.393286 164.126542 
L 1370.856465 172.897821 
L 1371.782821 171.000595 
L 1372.245999 173.236137 
L 1373.172355 180.736126 
L 1373.635534 187.656577 
L 1374.098712 174.954596 
L 1374.56189 177.2358 
L 1375.025068 173.398313 
L 1376.414603 202.034817 
L 1376.877781 203.728505 
L 1377.340959 220.420598 
L 1378.267315 228.663353 
L 1378.730493 226.719312 
L 1379.193672 216.489161 
L 1379.65685 209.473606 
L 1380.120028 206.095782 
L 1380.583206 196.09394 
L 1381.046384 189.306695 
L 1381.509562 184.973015 
L 1381.972741 187.987853 
L 1382.435919 185.66634 
L 1382.899097 186.842526 
L 1383.362275 184.469263 
L 1383.825453 190.844815 
L 1384.288631 190.903808 
L 1384.75181 199.641602 
L 1385.214988 194.28814 
L 1385.678166 196.484108 
L 1386.141344 188.859729 
L 1386.604522 188.270323 
L 1387.0677 176.709889 
L 1387.530879 171.950031 
L 1387.994057 165.296728 
L 1388.920413 154.976408 
L 1389.383591 161.053636 
L 1389.846769 156.741265 
L 1390.309948 167.357283 
L 1390.773126 180.819559 
L 1391.236304 182.842013 
L 1392.625838 202.781452 
L 1393.089017 214.788636 
L 1393.552195 221.142879 
L 1394.015373 219.460632 
L 1394.478551 222.101043 
L 1394.941729 219.207234 
L 1395.868086 202.664722 
L 1396.794442 191.805591 
L 1397.25762 182.561737 
L 1397.720798 176.301126 
L 1398.183976 172.859374 
L 1398.647155 176.845289 
L 1399.110333 179.811421 
L 1399.573511 176.512743 
L 1400.036689 169.411953 
L 1400.499867 173.936678 
L 1400.963045 172.37924 
L 1401.426224 175.324063 
L 1401.889402 181.56263 
L 1402.35258 181.186312 
L 1402.815758 183.781061 
L 1403.278936 188.126182 
L 1403.742114 184.419592 
L 1404.205293 187.842343 
L 1404.668471 187.66085 
L 1405.131649 184.267804 
L 1405.594827 184.138061 
L 1406.058005 183.353831 
L 1406.521183 184.079487 
L 1406.984362 189.167374 
L 1407.910718 177.644625 
L 1408.373896 175.158729 
L 1408.837074 169.46128 
L 1409.300252 166.935811 
L 1409.763431 166.203331 
L 1410.226609 166.091852 
L 1410.689787 170.802268 
L 1411.152965 178.243264 
L 1411.616143 178.950656 
L 1412.079321 189.353586 
L 1412.5425 196.648464 
L 1413.005678 194.275201 
L 1413.468856 189.975006 
L 1413.932034 191.73262 
L 1414.395212 190.330433 
L 1414.85839 191.972371 
L 1415.321568 189.784799 
L 1415.784747 188.473935 
L 1416.247925 189.574018 
L 1416.711103 191.760854 
L 1417.174281 191.576317 
L 1418.563816 174.916238 
L 1419.026994 174.451641 
L 1419.490172 175.865269 
L 1419.95335 175.772056 
L 1420.416528 170.445991 
L 1420.879706 168.989009 
L 1421.342885 170.977977 
L 1421.806063 171.447927 
L 1422.269241 164.794623 
L 1422.732419 164.969292 
L 1423.195597 162.775632 
L 1423.658775 167.412989 
L 1424.121954 178.619568 
L 1424.585132 182.206702 
L 1425.04831 186.856236 
L 1425.511488 187.654951 
L 1425.974666 185.156878 
L 1426.437844 186.320888 
L 1426.901023 186.227674 
L 1427.827379 178.817538 
L 1428.290557 176.882628 
L 1428.753735 178.427154 
L 1429.216913 181.642905 
L 1429.680092 200.858577 
L 1430.14327 205.934288 
L 1430.606448 208.462066 
L 1431.069626 212.43276 
L 1431.532804 217.925516 
L 1431.995982 215.193046 
L 1432.459161 219.991741 
L 1432.922339 207.405438 
L 1433.385517 201.211797 
L 1433.848695 201.356025 
L 1434.311873 196.425696 
L 1434.775051 188.658243 
L 1435.23823 197.889185 
L 1435.701408 192.919283 
L 1436.164586 181.191422 
L 1437.090942 172.233716 
L 1438.017299 168.356655 
L 1438.480477 169.98946 
L 1438.943655 173.57355 
L 1440.796368 173.200276 
L 1443.112258 168.577404 
L 1443.575437 172.803804 
L 1444.038615 179.252416 
L 1444.501793 174.863941 
L 1444.964971 174.222785 
L 1445.428149 171.02152 
L 1445.891327 163.135345 
L 1446.354506 168.159306 
L 1446.817684 171.971705 
L 1448.207218 180.590778 
L 1450.059931 180.244902 
L 1452.375822 180.842705 
L 1452.839 187.075183 
L 1453.302178 187.481206 
L 1453.765356 180.916182 
L 1455.618069 183.39221 
L 1456.081247 180.547107 
L 1456.544425 185.205773 
L 1457.470782 180.669291 
L 1458.397138 166.414807 
L 1458.860316 167.560552 
L 1459.786672 154.344114 
L 1460.249851 150.269185 
L 1460.713029 150.340354 
L 1461.176207 152.149719 
L 1461.639385 148.43704 
L 1462.102563 164.712088 
L 1462.565741 171.827363 
L 1463.492098 165.746355 
L 1463.955276 171.735303 
L 1464.418454 184.655725 
L 1464.881632 188.869948 
L 1465.807989 193.875644 
L 1467.660701 196.235996 
L 1469.976592 184.462473 
L 1472.292483 196.548805 
L 1472.755661 192.464743 
L 1474.145196 164.596195 
L 1474.608374 152.286907 
L 1475.071552 155.28348 
L 1475.997908 143.325421 
L 1476.461086 129.658452 
L 1476.924265 133.312557 
L 1477.387443 131.819046 
L 1477.850621 131.503611 
L 1478.313799 127.023813 
L 1478.776977 125.34461 
L 1479.240155 120.92265 
L 1479.703334 127.079025 
L 1480.166512 123.293288 
L 1480.62969 122.37816 
L 1481.092868 124.354952 
L 1481.556046 124.197812 
L 1482.019224 129.240037 
L 1482.482403 132.787597 
L 1482.945581 126.667016 
L 1483.408759 123.462706 
L 1484.335115 115.084538 
L 1484.798293 114.403808 
L 1485.261472 112.471942 
L 1485.72465 117.237153 
L 1486.187828 117.780161 
L 1486.651006 117.997448 
L 1487.114184 113.064075 
L 1487.577362 114.270703 
L 1488.040541 119.032869 
L 1488.503719 121.146646 
L 1488.966897 113.887562 
L 1489.430075 113.496024 
L 1489.893253 115.402801 
L 1490.356431 122.116251 
L 1490.81961 124.205675 
L 1491.282788 125.616259 
L 1491.745966 118.758999 
L 1492.209144 118.744933 
L 1492.672322 126.289429 
L 1493.1355 131.502126 
L 1494.525035 159.815953 
L 1495.451391 188.189509 
L 1496.377748 208.33175 
L 1496.840926 209.300936 
L 1497.767282 189.732563 
L 1498.23046 175.137137 
L 1498.693638 167.999817 
L 1500.083173 148.631203 
L 1501.009529 138.541082 
L 1501.472707 130.234818 
L 1501.935886 132.400346 
L 1503.788598 127.643532 
L 1504.251776 137.343269 
L 1504.714955 127.283589 
L 1505.178133 129.707867 
L 1505.641311 120.975426 
L 1506.104489 115.780259 
L 1506.567667 114.843822 
L 1507.494024 123.14935 
L 1507.957202 118.535611 
L 1508.42038 122.305392 
L 1508.883558 123.119327 
L 1510.273093 130.144433 
L 1510.736271 136.946163 
L 1511.199449 139.638324 
L 1511.662627 146.266539 
L 1512.125805 147.454902 
L 1512.588983 146.792436 
L 1514.441696 141.878483 
L 1516.294409 135.506393 
L 1518.610299 150.220958 
L 1519.073478 144.47176 
L 1519.999834 152.466787 
L 1520.463012 149.533405 
L 1520.92619 144.411296 
L 1521.389368 136.485548 
L 1521.852547 112.578143 
L 1522.315725 105.766545 
L 1523.242081 99.866294 
L 1523.705259 100.564553 
L 1524.168437 97.987333 
L 1524.631616 99.340079 
L 1525.094794 103.828274 
L 1525.557972 107.047069 
L 1526.02115 113.358694 
L 1526.484328 113.831688 
L 1526.947506 118.383809 
L 1527.873863 123.768131 
L 1528.337041 115.422294 
L 1528.800219 112.674603 
L 1529.263397 108.216114 
L 1529.726575 101.37103 
L 1530.652932 94.667131 
L 1531.11611 92.193411 
L 1531.579288 96.270649 
L 1532.042466 98.978031 
L 1532.505644 104.428169 
L 1535.747892 107.832655 
L 1536.21107 109.194534 
L 1536.674248 109.381379 
L 1537.137426 106.709792 
L 1537.600604 108.927069 
L 1538.063782 112.928204 
L 1538.526961 108.484935 
L 1539.453317 94.24987 
L 1539.916495 92.366711 
L 1540.379673 98.693557 
L 1540.842851 98.38421 
L 1541.30603 101.268151 
L 1541.769208 112.133788 
L 1542.695564 125.021879 
L 1543.158742 126.612067 
L 1543.62192 120.984633 
L 1544.085099 123.034484 
L 1544.548277 113.99763 
L 1545.011455 109.776583 
L 1545.474633 119.244966 
L 1545.937811 115.43792 
L 1546.400989 118.370567 
L 1546.864168 116.51176 
L 1547.327346 108.202453 
L 1547.790524 106.559779 
L 1548.253702 103.930809 
L 1548.71688 95.183147 
L 1549.180058 100.036637 
L 1549.643237 99.958644 
L 1550.106415 103.411836 
L 1551.032771 123.130944 
L 1551.495949 128.24014 
L 1551.959127 127.64769 
L 1552.422306 128.896936 
L 1552.885484 128.608898 
L 1553.348662 130.701366 
L 1553.81184 138.136274 
L 1554.275018 140.612302 
L 1554.738196 140.156838 
L 1555.664553 152.134735 
L 1556.127731 154.839072 
L 1556.590909 159.49165 
L 1556.590909 159.49165 
" clip-path="url(#p654b903bea)" style="fill: none; stroke: #bf9632; stroke-width: 2.5; stroke-linecap: square"/>
   </g>
   <g id="patch_3">
    <path d="M 225 320.4 
L 225 43.2 
" style="fill: none; stroke: #000000; stroke-width: 0.8; stroke-linejoin: miter; stroke-linecap: square"/>
   </g>
   <g id="patch_4">
    <path d="M 1620 320.4 
L 1620 43.2 
" style="fill: none; stroke: #000000; stroke-width: 0.8; stroke-linejoin: miter; stroke-linecap: square"/>
   </g>
   <g id="patch_5">
    <path d="M 225 320.4 
L 1620 320.4 
" style="fill: none; stroke: #000000; stroke-width: 0.8; stroke-linejoin: miter; stroke-linecap: square"/>
   </g>
   <g id="patch_6">
    <path d="M 225 43.2 
L 1620 43.2 
" style="fill: none; stroke: #000000; stroke-width: 0.8; stroke-linejoin: miter; stroke-linecap: square"/>
   </g>
   <g id="text_18">
    <!-- NOVE -->
    <g transform="translate(894.1625 37.2) scale(0.2 -0.2)">
     <defs>
      <path id="DejaVuSans-4f" d="M 2522 4238 
Q 1834 4238 1429 3725 
Q 1025 3213 1025 2328 
Q 1025 1447 1429 934 
Q 1834 422 2522 422 
Q 3209 422 3611 934 
Q 4013 1447 4013 2328 
Q 4013 3213 3611 3725 
Q 3209 4238 2522 4238 
z
M 2522 4750 
Q 3503 4750 4090 4092 
Q 4678 3434 4678 2328 
Q 4678 1225 4090 567 
Q 3503 -91 2522 -91 
Q 1538 -91 948 565 
Q 359 1222 359 2328 
Q 359 3434 948 4092 
Q 1538 4750 2522 4750 
z
" transform="scale(0.015625)"/>
      <path id="DejaVuSans-56" d="M 1831 0 
L 50 4666 
L 709 4666 
L 2188 738 
L 3669 4666 
L 4325 4666 
L 2547 0 
L 1831 0 
z
" transform="scale(0.015625)"/>
      <path id="DejaVuSans-45" d="M 628 4666 
L 3578 4666 
L 3578 4134 
L 1259 4134 
L 1259 2753 
L 3481 2753 
L 3481 2222 
L 1259 2222 
L 1259 531 
L 3634 531 
L 3634 0 
L 628 0 
L 628 4666 
z
" transform="scale(0.015625)"/>
     </defs>
     <use xlink:href="#DejaVuSans-4e"/>
     <use xlink:href="#DejaVuSans-4f" x="74.804688"/>
     <use xlink:href="#DejaVuSans-56" x="151.765625"/>
     <use xlink:href="#DejaVuSans-45" x="220.173828"/>
    </g>
   </g>
   <g id="legend_1">
    <g id="patch_7">
     <path d="M 1556.471875 65.878125 
L 1613 65.878125 
Q 1615 65.878125 1615 63.878125 
L 1615 50.2 
Q 1615 48.2 1613 48.2 
L 1556.471875 48.2 
Q 1554.471875 48.2 1554.471875 50.2 
L 1554.471875 63.878125 
Q 1554.471875 65.878125 1556.471875 65.878125 
z
" style="fill: #ffffff; opacity: 0.8; stroke: #cccccc; stroke-linejoin: miter"/>
    </g>
    <g id="line2d_17">
     <path d="M 1558.471875 56.298437 
L 1568.471875 56.298437 
L 1578.471875 56.298437 
" style="fill: none; stroke: #bf9632; stroke-width: 2.5; stroke-linecap: square"/>
    </g>
    <g id="text_19">
     <!-- nove -->
     <g transform="translate(1586.471875 59.798437) scale(0.1 -0.1)">
      <defs>
       <path id="DejaVuSans-6e" d="M 3513 2113 
L 3513 0 
L 2938 0 
L 2938 2094 
Q 2938 2591 2744 2837 
Q 2550 3084 2163 3084 
Q 1697 3084 1428 2787 
Q 1159 2491 1159 1978 
L 1159 0 
L 581 0 
L 581 3500 
L 1159 3500 
L 1159 2956 
Q 1366 3272 1645 3428 
Q 1925 3584 2291 3584 
Q 2894 3584 3203 3211 
Q 3513 2838 3513 2113 
z
" transform="scale(0.015625)"/>
       <path id="DejaVuSans-76" d="M 191 3500 
L 800 3500 
L 1894 563 
L 2988 3500 
L 3597 3500 
L 2284 0 
L 1503 0 
L 191 3500 
z
" transform="scale(0.015625)"/>
      </defs>
      <use xlink:href="#DejaVuSans-6e"/>
      <use xlink:href="#DejaVuSans-6f" x="63.378906"/>
      <use xlink:href="#DejaVuSans-76" x="124.560547"/>
      <use xlink:href="#DejaVuSans-65" x="183.740234"/>
     </g>
    </g>
   </g>
  </g>
 </g>
 <defs>
  <clipPath id="p654b903bea">
   <rect x="225" y="43.2" width="1395" height="277.2"/>
  </clipPath>
 </defs>
</svg>
