<?xml version="1.0" encoding="utf-8" standalone="no"?>
<!DOCTYPE svg PUBLIC "-//W3C//DTD SVG 1.1//EN"
  "http://www.w3.org/Graphics/SVG/1.1/DTD/svg11.dtd">
<svg xmlns:xlink="http://www.w3.org/1999/xlink" width="1800pt" height="360pt" viewBox="0 0 1800 360" xmlns="http://www.w3.org/2000/svg" version="1.1">
 <metadata>
  <rdf:RDF xmlns:dc="http://purl.org/dc/elements/1.1/" xmlns:cc="http://creativecommons.org/ns#" xmlns:rdf="http://www.w3.org/1999/02/22-rdf-syntax-ns#">
   <cc:Work>
    <dc:type rdf:resource="http://purl.org/dc/dcmitype/StillImage"/>
    <dc:date>2024-03-25T15:23:18.144955</dc:date>
    <dc:format>image/svg+xml</dc:format>
    <dc:creator>
     <cc:Agent>
      <dc:title>Matplotlib v3.7.2, https://matplotlib.org/</dc:title>
     </cc:Agent>
    </dc:creator>
   </cc:Work>
  </rdf:RDF>
 </metadata>
 <defs>
  <style type="text/css">*{stroke-linejoin: round; stroke-linecap: butt}</style>
 </defs>
 <g id="figure_1">
  <g id="patch_1">
   <path d="M 0 360 
L 1800 360 
L 1800 0 
L 0 0 
z
" style="fill: #ffffff"/>
  </g>
  <g id="axes_1">
   <g id="patch_2">
    <path d="M 225 320.4 
L 1620 320.4 
L 1620 43.2 
L 225 43.2 
z
" style="fill: #ffffff"/>
   </g>
   <g id="matplotlib.axis_1">
    <g id="xtick_1">
     <g id="line2d_1">
      <defs>
       <path id="mdd77c0f317" d="M 0 0 
L 0 3.5 
" style="stroke: #000000; stroke-width: 0.8"/>
      </defs>
      <g>
       <use xlink:href="#mdd77c0f317" x="281.492634" y="320.4" style="stroke: #000000; stroke-width: 0.8"/>
      </g>
     </g>
     <g id="text_1">
      <!-- 2011 -->
      <g transform="translate(262.405134 338.797656) scale(0.15 -0.15)">
       <defs>
        <path id="DejaVuSans-32" d="M 1228 531 
L 3431 531 
L 3431 0 
L 469 0 
L 469 531 
Q 828 903 1448 1529 
Q 2069 2156 2228 2338 
Q 2531 2678 2651 2914 
Q 2772 3150 2772 3378 
Q 2772 3750 2511 3984 
Q 2250 4219 1831 4219 
Q 1534 4219 1204 4116 
Q 875 4013 500 3803 
L 500 4441 
Q 881 4594 1212 4672 
Q 1544 4750 1819 4750 
Q 2544 4750 2975 4387 
Q 3406 4025 3406 3419 
Q 3406 3131 3298 2873 
Q 3191 2616 2906 2266 
Q 2828 2175 2409 1742 
Q 1991 1309 1228 531 
z
" transform="scale(0.015625)"/>
        <path id="DejaVuSans-30" d="M 2034 4250 
Q 1547 4250 1301 3770 
Q 1056 3291 1056 2328 
Q 1056 1369 1301 889 
Q 1547 409 2034 409 
Q 2525 409 2770 889 
Q 3016 1369 3016 2328 
Q 3016 3291 2770 3770 
Q 2525 4250 2034 4250 
z
M 2034 4750 
Q 2819 4750 3233 4129 
Q 3647 3509 3647 2328 
Q 3647 1150 3233 529 
Q 2819 -91 2034 -91 
Q 1250 -91 836 529 
Q 422 1150 422 2328 
Q 422 3509 836 4129 
Q 1250 4750 2034 4750 
z
" transform="scale(0.015625)"/>
        <path id="DejaVuSans-31" d="M 794 531 
L 1825 531 
L 1825 4091 
L 703 3866 
L 703 4441 
L 1819 4666 
L 2450 4666 
L 2450 531 
L 3481 531 
L 3481 0 
L 794 0 
L 794 531 
z
" transform="scale(0.015625)"/>
       </defs>
       <use xlink:href="#DejaVuSans-32"/>
       <use xlink:href="#DejaVuSans-30" x="63.623047"/>
       <use xlink:href="#DejaVuSans-31" x="127.246094"/>
       <use xlink:href="#DejaVuSans-31" x="190.869141"/>
      </g>
     </g>
    </g>
    <g id="xtick_2">
     <g id="line2d_2">
      <g>
       <use xlink:href="#mdd77c0f317" x="461.814552" y="320.4" style="stroke: #000000; stroke-width: 0.8"/>
      </g>
     </g>
     <g id="text_2">
      <!-- 2012 -->
      <g transform="translate(442.727052 338.797656) scale(0.15 -0.15)">
       <use xlink:href="#DejaVuSans-32"/>
       <use xlink:href="#DejaVuSans-30" x="63.623047"/>
       <use xlink:href="#DejaVuSans-31" x="127.246094"/>
       <use xlink:href="#DejaVuSans-32" x="190.869141"/>
      </g>
     </g>
    </g>
    <g id="xtick_3">
     <g id="line2d_3">
      <g>
       <use xlink:href="#mdd77c0f317" x="642.630503" y="320.4" style="stroke: #000000; stroke-width: 0.8"/>
      </g>
     </g>
     <g id="text_3">
      <!-- 2013 -->
      <g transform="translate(623.543003 338.797656) scale(0.15 -0.15)">
       <defs>
        <path id="DejaVuSans-33" d="M 2597 2516 
Q 3050 2419 3304 2112 
Q 3559 1806 3559 1356 
Q 3559 666 3084 287 
Q 2609 -91 1734 -91 
Q 1441 -91 1130 -33 
Q 819 25 488 141 
L 488 750 
Q 750 597 1062 519 
Q 1375 441 1716 441 
Q 2309 441 2620 675 
Q 2931 909 2931 1356 
Q 2931 1769 2642 2001 
Q 2353 2234 1838 2234 
L 1294 2234 
L 1294 2753 
L 1863 2753 
Q 2328 2753 2575 2939 
Q 2822 3125 2822 3475 
Q 2822 3834 2567 4026 
Q 2313 4219 1838 4219 
Q 1578 4219 1281 4162 
Q 984 4106 628 3988 
L 628 4550 
Q 988 4650 1302 4700 
Q 1616 4750 1894 4750 
Q 2613 4750 3031 4423 
Q 3450 4097 3450 3541 
Q 3450 3153 3228 2886 
Q 3006 2619 2597 2516 
z
" transform="scale(0.015625)"/>
       </defs>
       <use xlink:href="#DejaVuSans-32"/>
       <use xlink:href="#DejaVuSans-30" x="63.623047"/>
       <use xlink:href="#DejaVuSans-31" x="127.246094"/>
       <use xlink:href="#DejaVuSans-33" x="190.869141"/>
      </g>
     </g>
    </g>
    <g id="xtick_4">
     <g id="line2d_4">
      <g>
       <use xlink:href="#mdd77c0f317" x="822.952421" y="320.4" style="stroke: #000000; stroke-width: 0.8"/>
      </g>
     </g>
     <g id="text_4">
      <!-- 2014 -->
      <g transform="translate(803.864921 338.797656) scale(0.15 -0.15)">
       <defs>
        <path id="DejaVuSans-34" d="M 2419 4116 
L 825 1625 
L 2419 1625 
L 2419 4116 
z
M 2253 4666 
L 3047 4666 
L 3047 1625 
L 3713 1625 
L 3713 1100 
L 3047 1100 
L 3047 0 
L 2419 0 
L 2419 1100 
L 313 1100 
L 313 1709 
L 2253 4666 
z
" transform="scale(0.015625)"/>
       </defs>
       <use xlink:href="#DejaVuSans-32"/>
       <use xlink:href="#DejaVuSans-30" x="63.623047"/>
       <use xlink:href="#DejaVuSans-31" x="127.246094"/>
       <use xlink:href="#DejaVuSans-34" x="190.869141"/>
      </g>
     </g>
    </g>
    <g id="xtick_5">
     <g id="line2d_5">
      <g>
       <use xlink:href="#mdd77c0f317" x="1003.274339" y="320.4" style="stroke: #000000; stroke-width: 0.8"/>
      </g>
     </g>
     <g id="text_5">
      <!-- 2015 -->
      <g transform="translate(984.186839 338.797656) scale(0.15 -0.15)">
       <defs>
        <path id="DejaVuSans-35" d="M 691 4666 
L 3169 4666 
L 3169 4134 
L 1269 4134 
L 1269 2991 
Q 1406 3038 1543 3061 
Q 1681 3084 1819 3084 
Q 2600 3084 3056 2656 
Q 3513 2228 3513 1497 
Q 3513 744 3044 326 
Q 2575 -91 1722 -91 
Q 1428 -91 1123 -41 
Q 819 9 494 109 
L 494 744 
Q 775 591 1075 516 
Q 1375 441 1709 441 
Q 2250 441 2565 725 
Q 2881 1009 2881 1497 
Q 2881 1984 2565 2268 
Q 2250 2553 1709 2553 
Q 1456 2553 1204 2497 
Q 953 2441 691 2322 
L 691 4666 
z
" transform="scale(0.015625)"/>
       </defs>
       <use xlink:href="#DejaVuSans-32"/>
       <use xlink:href="#DejaVuSans-30" x="63.623047"/>
       <use xlink:href="#DejaVuSans-31" x="127.246094"/>
       <use xlink:href="#DejaVuSans-35" x="190.869141"/>
      </g>
     </g>
    </g>
    <g id="xtick_6">
     <g id="line2d_6">
      <g>
       <use xlink:href="#mdd77c0f317" x="1183.596257" y="320.4" style="stroke: #000000; stroke-width: 0.8"/>
      </g>
     </g>
     <g id="text_6">
      <!-- 2016 -->
      <g transform="translate(1164.508757 338.797656) scale(0.15 -0.15)">
       <defs>
        <path id="DejaVuSans-36" d="M 2113 2584 
Q 1688 2584 1439 2293 
Q 1191 2003 1191 1497 
Q 1191 994 1439 701 
Q 1688 409 2113 409 
Q 2538 409 2786 701 
Q 3034 994 3034 1497 
Q 3034 2003 2786 2293 
Q 2538 2584 2113 2584 
z
M 3366 4563 
L 3366 3988 
Q 3128 4100 2886 4159 
Q 2644 4219 2406 4219 
Q 1781 4219 1451 3797 
Q 1122 3375 1075 2522 
Q 1259 2794 1537 2939 
Q 1816 3084 2150 3084 
Q 2853 3084 3261 2657 
Q 3669 2231 3669 1497 
Q 3669 778 3244 343 
Q 2819 -91 2113 -91 
Q 1303 -91 875 529 
Q 447 1150 447 2328 
Q 447 3434 972 4092 
Q 1497 4750 2381 4750 
Q 2619 4750 2861 4703 
Q 3103 4656 3366 4563 
z
" transform="scale(0.015625)"/>
       </defs>
       <use xlink:href="#DejaVuSans-32"/>
       <use xlink:href="#DejaVuSans-30" x="63.623047"/>
       <use xlink:href="#DejaVuSans-31" x="127.246094"/>
       <use xlink:href="#DejaVuSans-36" x="190.869141"/>
      </g>
     </g>
    </g>
    <g id="xtick_7">
     <g id="line2d_7">
      <g>
       <use xlink:href="#mdd77c0f317" x="1364.412207" y="320.4" style="stroke: #000000; stroke-width: 0.8"/>
      </g>
     </g>
     <g id="text_7">
      <!-- 2017 -->
      <g transform="translate(1345.324707 338.797656) scale(0.15 -0.15)">
       <defs>
        <path id="DejaVuSans-37" d="M 525 4666 
L 3525 4666 
L 3525 4397 
L 1831 0 
L 1172 0 
L 2766 4134 
L 525 4134 
L 525 4666 
z
" transform="scale(0.015625)"/>
       </defs>
       <use xlink:href="#DejaVuSans-32"/>
       <use xlink:href="#DejaVuSans-30" x="63.623047"/>
       <use xlink:href="#DejaVuSans-31" x="127.246094"/>
       <use xlink:href="#DejaVuSans-37" x="190.869141"/>
      </g>
     </g>
    </g>
    <g id="xtick_8">
     <g id="line2d_8">
      <g>
       <use xlink:href="#mdd77c0f317" x="1544.734125" y="320.4" style="stroke: #000000; stroke-width: 0.8"/>
      </g>
     </g>
     <g id="text_8">
      <!-- 2018 -->
      <g transform="translate(1525.646625 338.797656) scale(0.15 -0.15)">
       <defs>
        <path id="DejaVuSans-38" d="M 2034 2216 
Q 1584 2216 1326 1975 
Q 1069 1734 1069 1313 
Q 1069 891 1326 650 
Q 1584 409 2034 409 
Q 2484 409 2743 651 
Q 3003 894 3003 1313 
Q 3003 1734 2745 1975 
Q 2488 2216 2034 2216 
z
M 1403 2484 
Q 997 2584 770 2862 
Q 544 3141 544 3541 
Q 544 4100 942 4425 
Q 1341 4750 2034 4750 
Q 2731 4750 3128 4425 
Q 3525 4100 3525 3541 
Q 3525 3141 3298 2862 
Q 3072 2584 2669 2484 
Q 3125 2378 3379 2068 
Q 3634 1759 3634 1313 
Q 3634 634 3220 271 
Q 2806 -91 2034 -91 
Q 1263 -91 848 271 
Q 434 634 434 1313 
Q 434 1759 690 2068 
Q 947 2378 1403 2484 
z
M 1172 3481 
Q 1172 3119 1398 2916 
Q 1625 2713 2034 2713 
Q 2441 2713 2670 2916 
Q 2900 3119 2900 3481 
Q 2900 3844 2670 4047 
Q 2441 4250 2034 4250 
Q 1625 4250 1398 4047 
Q 1172 3844 1172 3481 
z
" transform="scale(0.015625)"/>
       </defs>
       <use xlink:href="#DejaVuSans-32"/>
       <use xlink:href="#DejaVuSans-30" x="63.623047"/>
       <use xlink:href="#DejaVuSans-31" x="127.246094"/>
       <use xlink:href="#DejaVuSans-38" x="190.869141"/>
      </g>
     </g>
    </g>
    <g id="text_9">
     <!-- Time -->
     <g transform="translate(904.149609 357.314844) scale(0.15 -0.15)">
      <defs>
       <path id="DejaVuSans-54" d="M -19 4666 
L 3928 4666 
L 3928 4134 
L 2272 4134 
L 2272 0 
L 1638 0 
L 1638 4134 
L -19 4134 
L -19 4666 
z
" transform="scale(0.015625)"/>
       <path id="DejaVuSans-69" d="M 603 3500 
L 1178 3500 
L 1178 0 
L 603 0 
L 603 3500 
z
M 603 4863 
L 1178 4863 
L 1178 4134 
L 603 4134 
L 603 4863 
z
" transform="scale(0.015625)"/>
       <path id="DejaVuSans-6d" d="M 3328 2828 
Q 3544 3216 3844 3400 
Q 4144 3584 4550 3584 
Q 5097 3584 5394 3201 
Q 5691 2819 5691 2113 
L 5691 0 
L 5113 0 
L 5113 2094 
Q 5113 2597 4934 2840 
Q 4756 3084 4391 3084 
Q 3944 3084 3684 2787 
Q 3425 2491 3425 1978 
L 3425 0 
L 2847 0 
L 2847 2094 
Q 2847 2600 2669 2842 
Q 2491 3084 2119 3084 
Q 1678 3084 1418 2786 
Q 1159 2488 1159 1978 
L 1159 0 
L 581 0 
L 581 3500 
L 1159 3500 
L 1159 2956 
Q 1356 3278 1631 3431 
Q 1906 3584 2284 3584 
Q 2666 3584 2933 3390 
Q 3200 3197 3328 2828 
z
" transform="scale(0.015625)"/>
       <path id="DejaVuSans-65" d="M 3597 1894 
L 3597 1613 
L 953 1613 
Q 991 1019 1311 708 
Q 1631 397 2203 397 
Q 2534 397 2845 478 
Q 3156 559 3463 722 
L 3463 178 
Q 3153 47 2828 -22 
Q 2503 -91 2169 -91 
Q 1331 -91 842 396 
Q 353 884 353 1716 
Q 353 2575 817 3079 
Q 1281 3584 2069 3584 
Q 2775 3584 3186 3129 
Q 3597 2675 3597 1894 
z
M 3022 2063 
Q 3016 2534 2758 2815 
Q 2500 3097 2075 3097 
Q 1594 3097 1305 2825 
Q 1016 2553 972 2059 
L 3022 2063 
z
" transform="scale(0.015625)"/>
      </defs>
      <use xlink:href="#DejaVuSans-54"/>
      <use xlink:href="#DejaVuSans-69" x="57.958984"/>
      <use xlink:href="#DejaVuSans-6d" x="85.742188"/>
      <use xlink:href="#DejaVuSans-65" x="183.154297"/>
     </g>
    </g>
   </g>
   <g id="matplotlib.axis_2">
    <g id="ytick_1">
     <g id="line2d_9">
      <defs>
       <path id="m886b9a2b07" d="M 0 0 
L -3.5 0 
" style="stroke: #000000; stroke-width: 0.8"/>
      </defs>
      <g>
       <use xlink:href="#m886b9a2b07" x="225" y="296.094858" style="stroke: #000000; stroke-width: 0.8"/>
      </g>
     </g>
     <g id="text_10">
      <!-- −0.006 -->
      <g transform="translate(162.488281 301.793686) scale(0.15 -0.15)">
       <defs>
        <path id="DejaVuSans-2212" d="M 678 2272 
L 4684 2272 
L 4684 1741 
L 678 1741 
L 678 2272 
z
" transform="scale(0.015625)"/>
        <path id="DejaVuSans-2e" d="M 684 794 
L 1344 794 
L 1344 0 
L 684 0 
L 684 794 
z
" transform="scale(0.015625)"/>
       </defs>
       <use xlink:href="#DejaVuSans-2212"/>
       <use xlink:href="#DejaVuSans-30" x="83.789062"/>
       <use xlink:href="#DejaVuSans-2e" x="147.412109"/>
       <use xlink:href="#DejaVuSans-30" x="179.199219"/>
       <use xlink:href="#DejaVuSans-30" x="242.822266"/>
       <use xlink:href="#DejaVuSans-36" x="306.445312"/>
      </g>
     </g>
    </g>
    <g id="ytick_2">
     <g id="line2d_10">
      <g>
       <use xlink:href="#m886b9a2b07" x="225" y="259.005722" style="stroke: #000000; stroke-width: 0.8"/>
      </g>
     </g>
     <g id="text_11">
      <!-- −0.004 -->
      <g transform="translate(162.488281 264.70455) scale(0.15 -0.15)">
       <use xlink:href="#DejaVuSans-2212"/>
       <use xlink:href="#DejaVuSans-30" x="83.789062"/>
       <use xlink:href="#DejaVuSans-2e" x="147.412109"/>
       <use xlink:href="#DejaVuSans-30" x="179.199219"/>
       <use xlink:href="#DejaVuSans-30" x="242.822266"/>
       <use xlink:href="#DejaVuSans-34" x="306.445312"/>
      </g>
     </g>
    </g>
    <g id="ytick_3">
     <g id="line2d_11">
      <g>
       <use xlink:href="#m886b9a2b07" x="225" y="221.916587" style="stroke: #000000; stroke-width: 0.8"/>
      </g>
     </g>
     <g id="text_12">
      <!-- −0.002 -->
      <g transform="translate(162.488281 227.615415) scale(0.15 -0.15)">
       <use xlink:href="#DejaVuSans-2212"/>
       <use xlink:href="#DejaVuSans-30" x="83.789062"/>
       <use xlink:href="#DejaVuSans-2e" x="147.412109"/>
       <use xlink:href="#DejaVuSans-30" x="179.199219"/>
       <use xlink:href="#DejaVuSans-30" x="242.822266"/>
       <use xlink:href="#DejaVuSans-32" x="306.445312"/>
      </g>
     </g>
    </g>
    <g id="ytick_4">
     <g id="line2d_12">
      <g>
       <use xlink:href="#m886b9a2b07" x="225" y="184.827452" style="stroke: #000000; stroke-width: 0.8"/>
      </g>
     </g>
     <g id="text_13">
      <!-- 0.000 -->
      <g transform="translate(175.057813 190.52628) scale(0.15 -0.15)">
       <use xlink:href="#DejaVuSans-30"/>
       <use xlink:href="#DejaVuSans-2e" x="63.623047"/>
       <use xlink:href="#DejaVuSans-30" x="95.410156"/>
       <use xlink:href="#DejaVuSans-30" x="159.033203"/>
       <use xlink:href="#DejaVuSans-30" x="222.65625"/>
      </g>
     </g>
    </g>
    <g id="ytick_5">
     <g id="line2d_13">
      <g>
       <use xlink:href="#m886b9a2b07" x="225" y="147.738317" style="stroke: #000000; stroke-width: 0.8"/>
      </g>
     </g>
     <g id="text_14">
      <!-- 0.002 -->
      <g transform="translate(175.057813 153.437145) scale(0.15 -0.15)">
       <use xlink:href="#DejaVuSans-30"/>
       <use xlink:href="#DejaVuSans-2e" x="63.623047"/>
       <use xlink:href="#DejaVuSans-30" x="95.410156"/>
       <use xlink:href="#DejaVuSans-30" x="159.033203"/>
       <use xlink:href="#DejaVuSans-32" x="222.65625"/>
      </g>
     </g>
    </g>
    <g id="ytick_6">
     <g id="line2d_14">
      <g>
       <use xlink:href="#m886b9a2b07" x="225" y="110.649182" style="stroke: #000000; stroke-width: 0.8"/>
      </g>
     </g>
     <g id="text_15">
      <!-- 0.004 -->
      <g transform="translate(175.057813 116.34801) scale(0.15 -0.15)">
       <use xlink:href="#DejaVuSans-30"/>
       <use xlink:href="#DejaVuSans-2e" x="63.623047"/>
       <use xlink:href="#DejaVuSans-30" x="95.410156"/>
       <use xlink:href="#DejaVuSans-30" x="159.033203"/>
       <use xlink:href="#DejaVuSans-34" x="222.65625"/>
      </g>
     </g>
    </g>
    <g id="ytick_7">
     <g id="line2d_15">
      <g>
       <use xlink:href="#m886b9a2b07" x="225" y="73.560047" style="stroke: #000000; stroke-width: 0.8"/>
      </g>
     </g>
     <g id="text_16">
      <!-- 0.006 -->
      <g transform="translate(175.057813 79.258875) scale(0.15 -0.15)">
       <use xlink:href="#DejaVuSans-30"/>
       <use xlink:href="#DejaVuSans-2e" x="63.623047"/>
       <use xlink:href="#DejaVuSans-30" x="95.410156"/>
       <use xlink:href="#DejaVuSans-30" x="159.033203"/>
       <use xlink:href="#DejaVuSans-36" x="222.65625"/>
      </g>
     </g>
    </g>
    <g id="text_17">
     <!-- North(m) -->
     <g transform="translate(155.36875 215.934375) rotate(-90) scale(0.15 -0.15)">
      <defs>
       <path id="DejaVuSans-4e" d="M 628 4666 
L 1478 4666 
L 3547 763 
L 3547 4666 
L 4159 4666 
L 4159 0 
L 3309 0 
L 1241 3903 
L 1241 0 
L 628 0 
L 628 4666 
z
" transform="scale(0.015625)"/>
       <path id="DejaVuSans-6f" d="M 1959 3097 
Q 1497 3097 1228 2736 
Q 959 2375 959 1747 
Q 959 1119 1226 758 
Q 1494 397 1959 397 
Q 2419 397 2687 759 
Q 2956 1122 2956 1747 
Q 2956 2369 2687 2733 
Q 2419 3097 1959 3097 
z
M 1959 3584 
Q 2709 3584 3137 3096 
Q 3566 2609 3566 1747 
Q 3566 888 3137 398 
Q 2709 -91 1959 -91 
Q 1206 -91 779 398 
Q 353 888 353 1747 
Q 353 2609 779 3096 
Q 1206 3584 1959 3584 
z
" transform="scale(0.015625)"/>
       <path id="DejaVuSans-72" d="M 2631 2963 
Q 2534 3019 2420 3045 
Q 2306 3072 2169 3072 
Q 1681 3072 1420 2755 
Q 1159 2438 1159 1844 
L 1159 0 
L 581 0 
L 581 3500 
L 1159 3500 
L 1159 2956 
Q 1341 3275 1631 3429 
Q 1922 3584 2338 3584 
Q 2397 3584 2469 3576 
Q 2541 3569 2628 3553 
L 2631 2963 
z
" transform="scale(0.015625)"/>
       <path id="DejaVuSans-74" d="M 1172 4494 
L 1172 3500 
L 2356 3500 
L 2356 3053 
L 1172 3053 
L 1172 1153 
Q 1172 725 1289 603 
Q 1406 481 1766 481 
L 2356 481 
L 2356 0 
L 1766 0 
Q 1100 0 847 248 
Q 594 497 594 1153 
L 594 3053 
L 172 3053 
L 172 3500 
L 594 3500 
L 594 4494 
L 1172 4494 
z
" transform="scale(0.015625)"/>
       <path id="DejaVuSans-68" d="M 3513 2113 
L 3513 0 
L 2938 0 
L 2938 2094 
Q 2938 2591 2744 2837 
Q 2550 3084 2163 3084 
Q 1697 3084 1428 2787 
Q 1159 2491 1159 1978 
L 1159 0 
L 581 0 
L 581 4863 
L 1159 4863 
L 1159 2956 
Q 1366 3272 1645 3428 
Q 1925 3584 2291 3584 
Q 2894 3584 3203 3211 
Q 3513 2838 3513 2113 
z
" transform="scale(0.015625)"/>
       <path id="DejaVuSans-28" d="M 1984 4856 
Q 1566 4138 1362 3434 
Q 1159 2731 1159 2009 
Q 1159 1288 1364 580 
Q 1569 -128 1984 -844 
L 1484 -844 
Q 1016 -109 783 600 
Q 550 1309 550 2009 
Q 550 2706 781 3412 
Q 1013 4119 1484 4856 
L 1984 4856 
z
" transform="scale(0.015625)"/>
       <path id="DejaVuSans-29" d="M 513 4856 
L 1013 4856 
Q 1481 4119 1714 3412 
Q 1947 2706 1947 2009 
Q 1947 1309 1714 600 
Q 1481 -109 1013 -844 
L 513 -844 
Q 928 -128 1133 580 
Q 1338 1288 1338 2009 
Q 1338 2731 1133 3434 
Q 928 4138 513 4856 
z
" transform="scale(0.015625)"/>
      </defs>
      <use xlink:href="#DejaVuSans-4e"/>
      <use xlink:href="#DejaVuSans-6f" x="74.804688"/>
      <use xlink:href="#DejaVuSans-72" x="135.986328"/>
      <use xlink:href="#DejaVuSans-74" x="177.099609"/>
      <use xlink:href="#DejaVuSans-68" x="216.308594"/>
      <use xlink:href="#DejaVuSans-28" x="279.6875"/>
      <use xlink:href="#DejaVuSans-6d" x="318.701172"/>
      <use xlink:href="#DejaVuSans-29" x="416.113281"/>
     </g>
    </g>
   </g>
   <g id="line2d_16">
    <path d="M 288.409091 122.308332 
L 288.903124 114.13999 
L 289.397156 112.567333 
L 290.879254 95.773758 
L 291.373287 93.888051 
L 291.867319 88.635721 
L 292.361352 89.63026 
L 292.855385 91.334792 
L 293.349417 94.671246 
L 293.84345 100.760244 
L 294.337483 101.622322 
L 294.831515 103.92028 
L 295.325548 110.13909 
L 295.819581 110.664717 
L 296.313613 107.404603 
L 296.807646 107.601727 
L 297.301679 104.381351 
L 297.795711 104.334746 
L 298.289744 105.408763 
L 298.783777 105.770138 
L 299.277809 105.148651 
L 299.771842 105.221261 
L 300.265875 107.548361 
L 300.759907 108.458126 
L 301.25394 111.813124 
L 301.747973 112.044687 
L 302.242005 110.57015 
L 302.736038 106.568254 
L 303.23007 108.741698 
L 303.724103 107.052574 
L 304.218136 106.163516 
L 304.712168 106.275864 
L 305.700234 103.700331 
L 306.194266 106.91757 
L 306.688299 105.689411 
L 307.182332 103.012126 
L 307.676364 97.314727 
L 309.158462 85.558064 
L 310.146528 83.633159 
L 310.64056 81.377101 
L 311.134593 81.415271 
L 311.628626 88.497728 
L 312.122658 92.014329 
L 313.110724 103.434646 
L 313.604756 107.76191 
L 314.098789 113.887996 
L 314.592821 114.999102 
L 315.086854 118.921034 
L 315.580887 121.009704 
L 316.074919 123.58583 
L 317.062985 132.50263 
L 317.557017 131.070481 
L 318.05105 134.475815 
L 319.039115 130.777011 
L 319.533148 130.997977 
L 320.521213 119.860152 
L 321.509279 117.28197 
L 322.003311 120.66611 
L 322.497344 129.028141 
L 322.991377 133.392494 
L 323.485409 136.124925 
L 324.473475 147.834007 
L 325.46154 150.490691 
L 325.955572 154.886835 
L 326.449605 156.117156 
L 326.943638 162.418091 
L 327.43767 166.125436 
L 327.931703 166.306664 
L 328.425736 171.449889 
L 328.919768 177.827652 
L 329.413801 174.829811 
L 329.907834 173.291693 
L 330.401866 170.214376 
L 330.895899 169.367705 
L 331.389932 174.081755 
L 331.883964 175.584946 
L 332.377997 170.96843 
L 332.87203 168.201071 
L 333.366062 169.169119 
L 333.860095 167.933012 
L 334.354128 164.87424 
L 334.84816 159.979555 
L 335.342193 157.074437 
L 335.836226 155.727063 
L 336.330258 159.254261 
L 336.824291 158.471171 
L 337.318323 161.251288 
L 337.812356 160.409916 
L 338.306389 159.947382 
L 338.800421 158.366877 
L 339.294454 155.591571 
L 339.788487 146.741595 
L 340.776552 140.038571 
L 341.270585 141.676872 
L 341.764617 140.835499 
L 342.25865 140.857774 
L 343.246715 151.297878 
L 344.234781 159.443754 
L 344.728813 160.051508 
L 345.222846 161.75339 
L 345.716879 166.827735 
L 346.210911 165.591628 
L 346.704944 172.165434 
L 347.198977 175.878077 
L 347.693009 176.25005 
L 348.681074 185.996057 
L 349.175107 181.543792 
L 349.66914 182.734375 
L 350.163172 185.204533 
L 350.657205 187.09451 
L 351.151238 192.142363 
L 351.64527 194.660206 
L 352.139303 195.445457 
L 352.633336 206.915029 
L 353.127368 209.332202 
L 353.621401 210.273757 
L 354.115434 210.362262 
L 354.609466 208.911569 
L 355.103499 206.239583 
L 355.597532 205.890966 
L 356.091564 200.034613 
L 356.585597 197.873927 
L 357.07963 193.988596 
L 357.573662 191.298065 
L 358.067695 189.566554 
L 358.561728 186.539572 
L 359.05576 180.153374 
L 359.549793 177.862876 
L 360.043825 172.271445 
L 360.537858 168.012574 
L 361.031891 165.671741 
L 361.525923 154.138101 
L 363.008021 162.123455 
L 363.502054 170.798095 
L 363.996087 172.547664 
L 364.490119 180.806376 
L 364.984152 192.612399 
L 365.478185 195.657438 
L 365.972217 201.5239 
L 366.46625 202.086617 
L 366.960283 209.905557 
L 367.454315 212.892314 
L 367.948348 204.993409 
L 368.442381 202.284334 
L 368.936413 200.605807 
L 369.430446 203.348834 
L 369.924479 210.346516 
L 370.418511 207.311586 
L 371.406576 214.744821 
L 371.900609 219.49596 
L 372.394642 220.069273 
L 372.888674 217.818514 
L 373.382707 213.803371 
L 373.87674 205.37992 
L 374.864805 214.12717 
L 375.358838 217.757688 
L 376.346903 232.698823 
L 376.840936 238.665956 
L 377.334968 252.787401 
L 378.323034 250.850331 
L 378.817066 248.665802 
L 379.311099 238.112375 
L 380.299164 231.551328 
L 381.781262 208.734155 
L 382.275295 203.579847 
L 382.769327 199.755448 
L 383.26336 193.705702 
L 383.757393 193.656447 
L 384.251425 193.848272 
L 384.745458 193.457268 
L 385.733523 203.873529 
L 386.721589 221.943398 
L 387.215621 221.525902 
L 387.709654 222.689992 
L 388.203687 220.757139 
L 388.697719 215.708799 
L 389.191752 217.566986 
L 389.685785 213.064386 
L 390.179817 217.672468 
L 390.67385 214.727611 
L 391.167883 215.960581 
L 392.155948 214.708579 
L 392.649981 209.813894 
L 393.144013 206.439864 
L 393.638046 209.42927 
L 394.132078 203.745116 
L 395.120144 208.113199 
L 396.108209 227.401711 
L 396.602242 232.812507 
L 397.096274 235.849598 
L 397.590307 237.86144 
L 398.08434 243.290781 
L 398.578372 245.101282 
L 399.072405 245.891831 
L 399.566438 247.259912 
L 400.06047 244.897885 
L 400.554503 239.359439 
L 401.048536 238.957837 
L 401.542568 230.913225 
L 402.530634 226.695173 
L 403.518699 218.948355 
L 404.012732 214.882877 
L 404.506764 212.833459 
L 405.000797 220.880233 
L 405.988862 218.413318 
L 406.482895 215.759876 
L 406.976927 217.141203 
L 407.47096 218.019177 
L 407.964993 222.719981 
L 408.459025 221.775289 
L 408.953058 227.114556 
L 409.447091 231.052384 
L 409.941123 237.059255 
L 410.435156 245.884901 
L 410.929189 246.91653 
L 411.423221 244.811478 
L 411.917254 239.948584 
L 412.411287 236.680522 
L 412.905319 229.862501 
L 413.399352 219.168665 
L 413.893385 213.235484 
L 414.88145 212.024301 
L 415.375483 210.56301 
L 415.869515 201.962061 
L 416.363548 202.691679 
L 416.85758 209.098583 
L 417.351613 208.551274 
L 417.845646 205.095118 
L 418.339678 205.390263 
L 418.833711 211.055384 
L 419.327744 215.173359 
L 419.821776 212.776893 
L 420.315809 207.871611 
L 420.809842 199.784611 
L 421.303874 198.866411 
L 421.797907 196.581212 
L 422.29194 189.893002 
L 422.785972 186.174573 
L 423.280005 181.414998 
L 423.774038 180.52594 
L 424.26807 180.606497 
L 425.256136 174.316752 
L 425.750168 168.569017 
L 426.244201 161.419843 
L 426.738234 159.524079 
L 427.232266 158.176705 
L 427.726299 154.399993 
L 428.220331 151.939945 
L 428.714364 147.002872 
L 429.208397 143.390411 
L 429.702429 145.905606 
L 430.196462 145.869598 
L 430.690495 144.681177 
L 431.184527 146.560558 
L 431.67856 147.589537 
L 432.172593 149.450373 
L 432.666625 156.146043 
L 433.654691 157.984117 
L 434.148723 160.226442 
L 434.642756 159.631447 
L 435.136789 155.852085 
L 436.124854 150.169013 
L 436.618887 149.478646 
L 437.112919 144.04087 
L 437.606952 135.140559 
L 438.100985 129.74782 
L 438.595017 129.47868 
L 439.583082 121.957045 
L 440.077115 116.373562 
L 441.06518 114.873614 
L 441.559213 115.526404 
L 442.053246 117.988614 
L 442.547278 118.421518 
L 443.041311 120.16049 
L 443.535344 119.271432 
L 444.523409 125.080692 
L 445.017442 127.224995 
L 445.511474 124.918602 
L 446.005507 124.924982 
L 446.49954 120.096527 
L 446.993572 125.115238 
L 447.487605 126.705853 
L 447.981638 131.287443 
L 448.47567 132.73235 
L 448.969703 138.720677 
L 449.463736 142.393583 
L 449.957768 145.216087 
L 450.451801 141.722842 
L 450.945833 140.473489 
L 451.933899 135.089778 
L 452.427931 129.895731 
L 452.921964 130.617401 
L 453.415997 133.347182 
L 453.910029 138.75268 
L 454.404062 135.844913 
L 454.898095 131.654922 
L 455.392127 129.724718 
L 455.88616 124.676378 
L 456.380193 117.272878 
L 456.874225 111.752977 
L 457.368258 102.90565 
L 457.862291 101.857638 
L 458.356323 101.633535 
L 458.850356 102.556545 
L 459.344389 103.906081 
L 459.838421 107.512756 
L 460.332454 109.222586 
L 460.826487 115.947397 
L 461.320519 113.919173 
L 461.814552 114.696476 
L 462.308584 115.910902 
L 462.802617 119.533472 
L 463.29665 119.995518 
L 463.790682 123.138578 
L 464.284715 120.487786 
L 464.778748 123.625548 
L 465.27278 122.842458 
L 465.766813 120.106891 
L 466.260846 115.625485 
L 466.754878 113.991995 
L 467.248911 109.168839 
L 467.742944 107.310164 
L 468.236976 106.034319 
L 468.731009 103.351736 
L 469.225042 97.927207 
L 469.719074 96.346701 
L 470.213107 91.330152 
L 470.70714 88.056792 
L 471.201172 86.35972 
L 472.189238 79.696434 
L 472.68327 79.437891 
L 473.177303 78.281261 
L 473.671335 77.67567 
L 474.165368 81.006825 
L 474.659401 77.593057 
L 475.153433 73.193777 
L 475.647466 71.894088 
L 476.141499 71.283199 
L 476.635531 68.468154 
L 477.129564 67.708908 
L 477.623597 62.255237 
L 478.117629 60.807192 
L 478.611662 62.485232 
L 479.105695 66.362127 
L 479.599727 66.956634 
L 480.09376 68.772434 
L 480.587793 69.181495 
L 481.575858 80.57532 
L 482.069891 82.481193 
L 482.563923 81.944481 
L 483.551989 96.588904 
L 484.046021 105.915253 
L 484.540054 110.555125 
L 485.034086 110.921799 
L 485.528119 113.537663 
L 486.022152 119.727332 
L 486.516184 116.896392 
L 487.010217 116.049721 
L 487.50425 116.138226 
L 487.998282 119.321025 
L 489.48038 135.646137 
L 489.974413 142.948479 
L 490.468446 148.465244 
L 490.962478 148.900797 
L 491.456511 146.361273 
L 491.950544 153.978872 
L 492.444576 159.834738 
L 492.938609 160.826629 
L 493.432642 161.505911 
L 493.926674 161.067221 
L 494.420707 162.591605 
L 494.91474 163.05895 
L 495.408772 159.933946 
L 496.396837 151.01882 
L 496.89087 149.483351 
L 497.878935 144.857319 
L 498.867001 149.813529 
L 499.361033 154.673287 
L 499.855066 161.792833 
L 500.349099 165.812786 
L 500.843131 167.824628 
L 501.337164 168.313166 
L 501.831197 165.598792 
L 502.819262 156.7393 
L 503.313295 150.517354 
L 503.807327 151.093316 
L 504.30136 152.064013 
L 504.795393 155.895872 
L 505.289425 161.343757 
L 505.783458 164.762337 
L 506.277491 172.862096 
L 506.771523 174.953414 
L 507.265556 173.764993 
L 507.759588 177.922707 
L 508.253621 178.517214 
L 508.747654 178.335498 
L 509.241686 178.866424 
L 509.735719 172.946489 
L 510.229752 173.260179 
L 510.723784 170.797481 
L 511.217817 162.925069 
L 511.71185 160.231889 
L 512.205882 153.186034 
L 512.699915 148.346983 
L 513.193948 144.890826 
L 513.68798 139.439804 
L 514.182013 136.041931 
L 514.676046 137.614002 
L 515.170078 138.330373 
L 515.664111 142.660286 
L 516.158144 143.101138 
L 516.652176 145.195106 
L 517.146209 146.512851 
L 517.640242 150.440081 
L 518.134274 151.273019 
L 518.628307 152.439758 
L 519.122339 149.743929 
L 519.616372 148.666776 
L 520.110405 150.323622 
L 521.09847 158.83774 
L 521.592503 161.726475 
L 522.580568 166.234967 
L 523.568633 174.881546 
L 524.062666 177.518605 
L 524.556699 172.430526 
L 525.050731 171.525573 
L 525.544764 172.257839 
L 526.038797 179.925774 
L 526.532829 183.996063 
L 527.026862 186.752337 
L 528.014927 189.443461 
L 528.50896 189.79159 
L 529.002993 184.936644 
L 529.991058 171.856938 
L 530.48509 165.717117 
L 530.979123 165.620177 
L 531.473156 168.283728 
L 531.967188 169.479609 
L 532.461221 176.347478 
L 532.955254 181.26022 
L 533.449286 179.801579 
L 533.943319 181.574991 
L 534.437352 184.167012 
L 534.931384 185.105919 
L 535.425417 187.864842 
L 535.91945 191.908638 
L 536.413482 187.737191 
L 536.907515 195.566729 
L 537.401548 195.888366 
L 537.89558 197.85782 
L 538.389613 201.387667 
L 538.883646 203.383614 
L 539.377678 203.858906 
L 539.871711 211.518893 
L 540.365744 216.103132 
L 540.859776 222.616005 
L 541.353809 219.109513 
L 541.847841 222.149254 
L 542.341874 221.538364 
L 542.835907 214.005052 
L 543.329939 211.83112 
L 543.823972 207.672919 
L 544.318005 205.173133 
L 544.812037 209.301705 
L 545.30607 211.390374 
L 545.800103 215.325553 
L 546.294135 223.751166 
L 546.788168 228.388388 
L 547.282201 231.157908 
L 547.776233 231.593462 
L 548.270266 232.246252 
L 548.764299 235.77345 
L 549.258331 236.349412 
L 549.752364 235.460354 
L 550.246397 238.07092 
L 550.740429 238.408453 
L 551.234462 243.162241 
L 551.728495 245.01248 
L 552.222527 243.169702 
L 552.71656 248.373858 
L 553.210592 248.960418 
L 553.704625 247.480582 
L 554.198658 246.753127 
L 554.69269 242.504852 
L 555.680756 250.976583 
L 556.174788 244.818218 
L 556.668821 251.797355 
L 557.162854 247.262964 
L 557.656886 247.242852 
L 558.150919 248.107579 
L 558.644952 232.070259 
L 559.138984 221.914215 
L 559.633017 225.364585 
L 560.12705 218.485632 
L 561.115115 225.012832 
L 562.10318 233.497809 
L 562.597213 235.628866 
L 564.079311 222.219088 
L 565.067376 219.680644 
L 565.561409 229.489152 
L 566.055441 232.923627 
L 566.549474 238.970237 
L 567.043507 246.741491 
L 567.537539 252.72452 
L 568.031572 255.109902 
L 568.525605 256.549512 
L 569.51367 265.77892 
L 570.007703 258.833736 
L 570.501735 261.118448 
L 570.995768 266.672302 
L 571.489801 260.980201 
L 571.983833 263.37618 
L 572.477866 254.820268 
L 572.971899 249.085779 
L 573.465931 255.423803 
L 573.959964 255.069888 
L 574.453997 253.616545 
L 574.948029 259.125363 
L 575.442062 255.330106 
L 575.936094 259.768637 
L 576.430127 267.118665 
L 576.92416 269.76632 
L 577.912225 276.094829 
L 578.406258 278.469614 
L 578.90029 288.540396 
L 579.394323 289.942916 
L 579.888356 284.754167 
L 580.382388 283.605485 
L 580.876421 277.142459 
L 581.370454 272.589524 
L 582.852552 252.47456 
L 583.346584 248.737586 
L 583.840617 239.074298 
L 584.828682 242.49131 
L 585.816748 255.389893 
L 586.31078 260.25495 
L 586.804813 263.615246 
L 587.298845 273.704572 
L 587.792878 278.431868 
L 588.286911 272.199325 
L 588.780943 268.263659 
L 589.274976 261.747649 
L 589.769009 261.873244 
L 590.263041 260.123188 
L 590.757074 255.451038 
L 591.251107 247.52829 
L 591.745139 251.246232 
L 592.239172 250.857877 
L 592.733205 251.579547 
L 593.227237 245.611926 
L 593.72127 250.397505 
L 594.215303 253.707467 
L 594.709335 252.678 
L 595.203368 250.94119 
L 596.191433 237.880028 
L 596.685466 238.11689 
L 597.673531 220.970625 
L 598.167564 219.162286 
L 598.661596 214.460994 
L 599.155629 217.887522 
L 599.649662 215.660605 
L 600.143694 217.033984 
L 600.637727 219.186235 
L 601.13176 218.222998 
L 602.119825 208.473367 
L 602.613858 202.847496 
L 603.10789 200.424537 
L 603.601923 193.145551 
L 604.095956 188.95291 
L 604.589988 188.908954 
L 605.578054 197.923776 
L 606.072086 197.718217 
L 607.060152 195.630141 
L 607.554184 193.575424 
L 608.048217 190.982915 
L 608.54225 186.864453 
L 609.036282 184.629588 
L 609.530315 183.904782 
L 610.024347 184.380074 
L 610.51838 182.5214 
L 611.012413 179.910346 
L 611.506445 178.472898 
L 612.000478 176.11352 
L 612.494511 176.559671 
L 612.988543 178.399313 
L 613.482576 178.246739 
L 613.976609 181.281181 
L 614.470641 188.668299 
L 614.964674 189.850933 
L 615.458707 189.571196 
L 617.434837 164.603935 
L 617.92887 154.516771 
L 618.916935 148.025685 
L 619.410968 144.074124 
L 619.905001 144.477887 
L 620.399033 142.582123 
L 620.893066 141.324823 
L 621.387098 142.928684 
L 621.881131 141.20512 
L 622.375164 138.578171 
L 622.869196 141.278811 
L 623.363229 142.262754 
L 623.857262 142.814874 
L 624.351294 142.410623 
L 625.33936 137.654779 
L 625.833392 136.945868 
L 626.327425 137.484741 
L 626.821458 132.870874 
L 627.31549 130.781717 
L 627.809523 130.586755 
L 628.303556 129.056585 
L 629.291621 138.564162 
L 629.785654 136.808807 
L 630.279686 140.007502 
L 630.773719 133.356381 
L 631.267752 130.244624 
L 631.761784 129.30523 
L 632.255817 124.381404 
L 632.749849 121.982288 
L 633.243882 118.202926 
L 633.737915 124.993968 
L 634.231947 137.970948 
L 635.220013 144.405425 
L 635.714045 145.858281 
L 636.208078 145.970629 
L 636.702111 151.736421 
L 637.196143 143.077189 
L 637.690176 142.12455 
L 638.184209 142.938942 
L 638.678241 142.346597 
L 639.172274 149.458195 
L 639.666307 150.64083 
L 640.654372 163.987132 
L 641.148405 162.380134 
L 641.642437 164.018436 
L 642.13647 167.52444 
L 642.630503 160.611046 
L 643.124535 159.094122 
L 644.1126 147.119142 
L 644.606633 144.486894 
L 645.100666 140.371081 
L 645.594698 132.964932 
L 646.088731 137.278949 
L 646.582764 137.817823 
L 647.076796 129.720226 
L 647.570829 129.578249 
L 649.052927 150.486518 
L 649.54696 150.270362 
L 650.040992 154.809564 
L 650.535025 165.571792 
L 651.029058 163.360771 
L 651.52309 155.673804 
L 652.511156 148.859513 
L 653.499221 139.091337 
L 653.993254 135.447085 
L 654.487286 140.402215 
L 654.981319 142.610099 
L 655.475351 142.37275 
L 655.969384 136.097819 
L 656.463417 139.03689 
L 656.957449 140.85004 
L 657.451482 141.629992 
L 657.945515 146.465907 
L 658.439547 147.134592 
L 658.93358 148.338421 
L 659.427613 158.226406 
L 659.921645 164.797562 
L 660.415678 160.477758 
L 660.909711 158.372706 
L 661.403743 151.787816 
L 661.897776 152.212773 
L 662.391809 156.192988 
L 663.379874 161.015811 
L 663.873907 157.135934 
L 664.367939 163.193295 
L 664.861972 171.362087 
L 665.850037 183.029091 
L 666.34407 183.22372 
L 666.838102 174.312811 
L 667.332135 168.596867 
L 667.826168 182.056005 
L 668.3202 189.543793 
L 668.814233 185.817416 
L 669.308266 185.426412 
L 669.802298 187.070011 
L 670.790364 202.00055 
L 671.284396 187.732911 
L 671.778429 178.784913 
L 672.272462 184.67257 
L 672.766494 186.959931 
L 673.260527 185.551625 
L 674.248592 186.767131 
L 674.742625 191.319579 
L 675.73069 195.523409 
L 676.224723 193.20377 
L 676.718756 194.582448 
L 677.212788 198.668632 
L 677.706821 198.939933 
L 678.200853 198.893328 
L 678.694886 198.989781 
L 679.188919 195.308441 
L 679.682951 194.090879 
L 680.176984 195.3212 
L 680.671017 190.752369 
L 681.165049 190.885911 
L 681.659082 186.563459 
L 682.153115 184.235872 
L 682.647147 180.875087 
L 683.14118 175.122054 
L 683.635213 164.1474 
L 684.129245 160.323001 
L 684.623278 154.49579 
L 685.117311 151.996003 
L 685.611343 148.444475 
L 686.105376 148.148843 
L 686.599409 149.863971 
L 687.093441 153.428258 
L 687.587474 150.909927 
L 688.081507 147.448473 
L 688.575539 146.925007 
L 689.069572 146.647919 
L 690.057637 148.515135 
L 690.55167 149.811686 
L 691.045702 153.052768 
L 692.5278 164.609276 
L 693.021833 164.541477 
L 694.009898 169.426159 
L 694.997964 179.484775 
L 695.491996 183.131188 
L 695.986029 185.227805 
L 696.480062 186.285926 
L 696.974094 187.685797 
L 697.468127 186.102642 
L 697.96216 180.884752 
L 698.456192 172.983198 
L 698.950225 167.042069 
L 699.444258 164.147548 
L 699.93829 165.393765 
L 700.926355 163.02752 
L 701.420388 160.970154 
L 702.902486 176.381283 
L 703.396519 178.144098 
L 703.890551 182.537592 
L 704.384584 188.464987 
L 704.878617 187.032838 
L 705.372649 187.852529 
L 705.866682 185.691843 
L 706.360715 184.294134 
L 706.854747 181.362523 
L 707.34878 181.795428 
L 707.842813 180.294399 
L 708.336845 190.712228 
L 708.830878 192.978396 
L 709.324911 200.037009 
L 709.818943 201.91374 
L 710.312976 205.279336 
L 710.807009 207.309722 
L 711.301041 209.854058 
L 711.795074 209.667044 
L 712.289106 208.669367 
L 712.783139 200.407519 
L 713.277172 198.25743 
L 714.265237 187.379229 
L 714.75927 186.980277 
L 715.253302 184.663287 
L 715.747335 185.188914 
L 716.241368 190.324191 
L 717.229433 190.861496 
L 717.723466 189.548562 
L 718.217498 187.218326 
L 718.711531 188.456594 
L 719.205564 192.765313 
L 719.699596 194.684432 
L 720.193629 197.064516 
L 720.687662 205.678224 
L 721.181694 208.781546 
L 722.16976 217.557938 
L 722.663792 219.80821 
L 723.157825 223.520853 
L 723.651857 228.597847 
L 724.14589 236.771784 
L 724.639923 249.645444 
L 725.133955 259.491041 
L 725.627988 265.686008 
L 726.122021 270.063606 
L 726.616053 276.089022 
L 727.110086 277.377626 
L 727.604119 274.861944 
L 728.098151 266.96039 
L 728.592184 261.710709 
L 729.086217 254.810562 
L 730.074282 232.919537 
L 730.568315 227.812914 
L 731.062347 219.460992 
L 731.55638 222.370921 
L 732.050413 222.811773 
L 733.038478 233.41083 
L 733.532511 234.755068 
L 734.026543 236.769559 
L 734.520576 244.924951 
L 735.014608 240.425 
L 735.508641 240.46582 
L 736.002674 235.793669 
L 736.496706 236.149746 
L 736.990739 246.914624 
L 737.484772 246.571306 
L 737.978804 248.024161 
L 738.472837 253.252161 
L 738.96687 253.523463 
L 739.460902 259.350187 
L 739.954935 258.914146 
L 740.448968 255.418251 
L 740.943 255.673658 
L 741.437033 250.956471 
L 741.931066 247.921541 
L 742.425098 247.69214 
L 742.919131 251.675004 
L 743.413164 264.082401 
L 743.907196 269.188536 
L 744.401229 277.738663 
L 744.895262 291.23489 
L 745.389294 298.267011 
L 745.883327 307.8 
L 746.377359 307.636829 
L 746.871392 297.29269 
L 747.365425 292.527817 
L 748.35349 285.517483 
L 748.847523 284.254884 
L 749.341555 280.017207 
L 749.835588 277.38231 
L 750.823653 289.239749 
L 751.317686 291.969531 
L 751.811719 288.815386 
L 752.305751 286.58582 
L 752.799784 289.487801 
L 753.787849 290.050672 
L 754.281882 286.496649 
L 755.269947 276.498299 
L 755.76398 274.356312 
L 756.752045 272.610295 
L 757.74011 274.215237 
L 758.234143 276.15555 
L 758.728176 279.64036 
L 759.222208 278.102242 
L 759.716241 279.525956 
L 760.210274 272.294656 
L 760.704306 272.234804 
L 761.198339 271.939172 
L 761.692372 267.82071 
L 762.186404 266.271995 
L 762.680437 266.784376 
L 763.17447 266.011883 
L 763.668502 265.551999 
L 764.162535 262.760798 
L 764.656568 261.956515 
L 765.1506 264.871742 
L 765.644633 261.937483 
L 766.138666 267.186677 
L 766.632698 265.791616 
L 767.126731 268.460466 
L 767.620764 267.354171 
L 768.114796 264.006633 
L 769.102861 263.673912 
L 769.596894 264.281665 
L 770.090927 256.14168 
L 770.584959 254.569122 
L 771.078992 254.154275 
L 771.573025 251.606802 
L 772.067057 252.611939 
L 772.56109 249.386265 
L 773.055123 250.036406 
L 773.549155 252.31317 
L 774.043188 257.347777 
L 774.537221 252.413353 
L 775.031253 254.54441 
L 775.525286 253.42487 
L 776.019319 256.586475 
L 776.513351 256.70942 
L 777.007384 253.857286 
L 777.501417 243.285315 
L 777.995449 241.206755 
L 778.489482 234.22978 
L 778.983515 230.861048 
L 779.97158 215.455323 
L 780.959645 206.134866 
L 781.453678 204.051007 
L 781.94771 203.429521 
L 782.441743 198.96401 
L 782.935776 196.20195 
L 783.429808 192.594788 
L 783.923841 191.557373 
L 784.417874 197.630476 
L 784.911906 201.695466 
L 785.405939 201.068681 
L 785.899972 204.407784 
L 786.394004 206.011645 
L 786.888037 209.236832 
L 787.38207 216.986892 
L 787.876102 216.330966 
L 788.370135 214.411359 
L 788.864168 217.175581 
L 789.3582 214.712883 
L 790.346266 216.799984 
L 790.840298 211.211203 
L 791.334331 214.666872 
L 791.828363 212.55917 
L 792.322396 209.203685 
L 792.816429 213.819713 
L 793.804494 204.742985 
L 794.298527 204.304295 
L 794.792559 196.887548 
L 795.286592 195.532227 
L 795.780625 196.039309 
L 796.274657 190.691607 
L 796.76869 193.439933 
L 797.262723 192.12435 
L 797.756755 185.891807 
L 798.250788 185.188194 
L 800.226919 168.467967 
L 800.720951 169.428067 
L 801.214984 172.250571 
L 801.709017 176.297017 
L 802.203049 177.670396 
L 803.191114 182.316647 
L 803.685147 182.317728 
L 804.17918 181.314753 
L 804.673212 178.526201 
L 805.167245 174.598483 
L 805.661278 173.436555 
L 806.15531 174.444341 
L 806.649343 181.741384 
L 809.119506 178.020305 
L 809.613539 178.188287 
L 810.107572 176.684609 
L 810.601604 176.084316 
L 811.095637 173.838855 
L 811.58967 165.847227 
L 812.083702 151.74384 
L 812.577735 151.090563 
L 813.071768 151.473132 
L 813.5658 154.443993 
L 814.059833 154.929881 
L 814.553865 156.642361 
L 815.047898 159.851652 
L 815.541931 166.14464 
L 816.035963 169.886425 
L 816.529996 168.146966 
L 817.518061 160.121979 
L 818.012094 162.692807 
L 819.000159 166.323325 
L 819.494192 165.293858 
L 819.988225 163.469623 
L 820.97629 166.264067 
L 821.470323 172.861715 
L 821.964355 166.817267 
L 822.458388 162.698805 
L 822.952421 159.836075 
L 823.446453 160.208047 
L 823.940486 161.970862 
L 824.434519 165.384143 
L 824.928551 157.54617 
L 825.422584 162.350294 
L 825.916616 158.759027 
L 826.410649 159.695284 
L 826.904682 160.030167 
L 827.892747 152.150888 
L 828.38678 153.373261 
L 828.880812 147.726197 
L 829.374845 149.854604 
L 829.868878 153.397698 
L 830.36291 153.59747 
L 830.856943 155.659647 
L 831.350976 162.04006 
L 831.845008 161.08742 
L 832.339041 168.005624 
L 832.833074 170.714212 
L 833.327106 167.655439 
L 833.821139 170.872678 
L 834.315172 169.003407 
L 834.809204 161.1098 
L 835.303237 166.23448 
L 835.79727 169.271572 
L 836.291302 168.650085 
L 836.785335 169.175712 
L 837.279367 167.224315 
L 837.7734 169.185822 
L 838.267433 181.129604 
L 838.761465 179.737193 
L 839.255498 173.282116 
L 839.749531 178.306125 
L 840.243563 180.876953 
L 840.737596 185.445296 
L 841.231629 188.628095 
L 841.725661 184.247359 
L 842.713727 190.734821 
L 843.207759 189.819271 
L 843.701792 190.079976 
L 844.689857 179.62565 
L 845.18389 179.094237 
L 845.677923 177.569365 
L 846.171955 176.775679 
L 846.665988 175.51308 
L 847.654053 177.168358 
L 848.148086 178.178793 
L 849.136151 181.182525 
L 849.630184 178.126402 
L 850.124216 179.67198 
L 850.618249 178.812063 
L 851.112282 180.580176 
L 851.606314 185.498217 
L 852.59438 179.309142 
L 853.088412 185.053741 
L 853.582445 182.331419 
L 854.076478 181.468853 
L 854.57051 179.543948 
L 855.064543 176.816329 
L 855.558576 175.969658 
L 856.052608 178.755073 
L 856.546641 176.030103 
L 857.040674 175.133097 
L 857.534706 173.14461 
L 858.028739 173.095356 
L 858.522772 175.040967 
L 859.016804 181.834658 
L 859.510837 179.941544 
L 860.004869 178.774317 
L 860.498902 180.963657 
L 861.486967 186.380832 
L 861.981 186.532919 
L 862.475033 185.121964 
L 862.969065 187.843798 
L 863.463098 193.601642 
L 863.957131 191.97345 
L 864.945196 184.528643 
L 865.439229 180.99566 
L 865.933261 183.248581 
L 866.427294 184.751772 
L 866.921327 182.286425 
L 867.415359 188.666837 
L 868.897457 202.295039 
L 869.39149 200.327746 
L 869.885523 195.26616 
L 870.379555 196.303088 
L 870.873588 191.130234 
L 871.36762 195.168732 
L 872.355686 192.791891 
L 872.849718 195.852825 
L 873.343751 195.257831 
L 873.837784 197.828659 
L 874.331816 199.551735 
L 874.825849 193.409266 
L 875.319882 189.364982 
L 875.813914 191.39007 
L 876.307947 188.222679 
L 876.80198 192.904939 
L 877.296012 186.672396 
L 877.790045 183.716943 
L 878.284078 184.867787 
L 878.77811 190.196457 
L 879.272143 189.159042 
L 879.766176 187.575887 
L 880.260208 189.487058 
L 880.754241 194.839571 
L 881.742306 199.446084 
L 882.236339 203.889914 
L 882.730371 201.260315 
L 883.718437 191.576914 
L 884.212469 191.787284 
L 884.706502 195.976788 
L 885.200535 197.085244 
L 885.694567 192.148172 
L 886.1886 194.061992 
L 886.682633 203.059838 
L 887.176665 205.545891 
L 887.670698 205.578762 
L 888.164731 204.922836 
L 888.658763 205.408725 
L 889.152796 205.272046 
L 889.646829 205.283724 
L 890.140861 204.712572 
L 890.634894 208.472902 
L 891.128927 208.17462 
L 891.622959 208.705546 
L 892.116992 211.467118 
L 892.611025 216.875265 
L 893.105057 225.777739 
L 893.59909 229.379115 
L 894.093122 228.304611 
L 894.587155 228.885872 
L 895.081188 231.019578 
L 895.57522 227.12365 
L 896.563286 228.576506 
L 897.057318 222.097585 
L 897.551351 219.772647 
L 898.045384 222.417654 
L 899.033449 218.175759 
L 899.527482 222.640782 
L 900.021514 221.529189 
L 900.515547 226.399543 
L 901.00958 228.493511 
L 901.503612 230.07088 
L 901.997645 236.366517 
L 903.479743 248.495258 
L 903.973776 245.092086 
L 904.467808 244.012283 
L 904.961841 238.624843 
L 905.455873 236.294607 
L 905.949906 237.85608 
L 906.443939 233.893922 
L 906.937971 233.42874 
L 907.432004 233.360941 
L 907.926037 235.282709 
L 908.420069 237.81115 
L 908.914102 241.417824 
L 909.408135 241.969944 
L 909.902167 237.260704 
L 910.3962 233.76481 
L 910.890233 237.586071 
L 911.384265 237.075852 
L 911.878298 238.496917 
L 912.372331 238.007892 
L 912.866363 234.416625 
L 913.360396 241.008975 
L 913.854429 237.24021 
L 914.348461 236.316712 
L 914.842494 237.435765 
L 915.336527 242.486267 
L 915.830559 238.14262 
L 916.324592 245.074071 
L 916.818624 244.487024 
L 917.312657 249.858082 
L 917.80669 251.053963 
L 918.300722 247.589859 
L 918.794755 243.18793 
L 919.288788 249.910092 
L 919.78282 251.611974 
L 920.276853 259.664047 
L 921.264918 264.06392 
L 921.758951 274.444661 
L 922.252984 275.089503 
L 922.747016 274.457419 
L 923.241049 274.953905 
L 924.229114 265.760611 
L 924.723147 264.770882 
L 925.21718 256.238812 
L 926.205245 260.516821 
L 926.699278 253.640517 
L 927.19331 250.335366 
L 928.181376 263.096191 
L 929.169441 264.046775 
L 929.663473 259.154739 
L 930.157506 263.42372 
L 930.651539 264.836837 
L 931.145571 262.109217 
L 931.639604 254.101694 
L 932.133637 260.254273 
L 932.627669 261.111053 
L 933.121702 269.417451 
L 933.615735 266.655391 
L 934.109767 269.647446 
L 934.6038 273.799861 
L 935.097833 272.529314 
L 935.591865 267.261089 
L 936.085898 263.900304 
L 936.579931 259.405652 
L 937.073963 259.149758 
L 938.062029 243.709594 
L 939.050094 236.116431 
L 939.544127 234.596857 
L 940.038159 233.715746 
L 940.532192 233.086312 
L 941.026224 231.121668 
L 941.520257 230.667083 
L 942.01429 231.43114 
L 942.508322 233.24429 
L 943.002355 232.73672 
L 943.99042 218.95497 
L 944.484453 219.618357 
L 944.978486 215.375381 
L 945.472518 215.508923 
L 945.966551 217.518116 
L 946.460584 217.953669 
L 946.954616 225.221571 
L 947.448649 226.033315 
L 947.942682 224.876685 
L 948.436714 228.920481 
L 948.930747 225.164963 
L 949.42478 220.05834 
L 949.918812 217.622135 
L 950.412845 209.34704 
L 950.906878 208.556003 
L 951.40091 209.563789 
L 952.388975 208.44003 
L 952.883008 206.631691 
L 953.377041 209.162781 
L 954.365106 217.952419 
L 954.859139 216.194415 
L 955.353171 213.935708 
L 955.847204 215.465391 
L 956.341237 218.152785 
L 956.835269 214.762859 
L 957.329302 213.473768 
L 957.823335 209.609631 
L 958.317367 210.114065 
L 958.8114 209.956192 
L 959.305433 208.637959 
L 959.799465 205.589783 
L 960.787531 197.21245 
L 961.281563 194.662328 
L 961.775596 197.879567 
L 962.269629 198.190607 
L 962.763661 201.01841 
L 963.257694 206.129844 
L 963.751726 206.332266 
L 964.245759 206.190288 
L 964.739792 209.447265 
L 965.233824 209.731813 
L 965.727857 208.805666 
L 966.22189 207.471538 
L 966.715922 202.605994 
L 967.703988 214.534962 
L 968.19802 209.746246 
L 968.692053 199.505427 
L 969.186086 198.979313 
L 969.680118 194.193246 
L 970.174151 192.832626 
L 971.162216 171.397267 
L 971.656249 167.766262 
L 972.150282 169.751612 
L 972.644314 161.004955 
L 973.138347 156.817613 
L 973.63238 151.038087 
L 974.126412 155.442179 
L 974.620445 156.87384 
L 975.114477 157.93726 
L 975.60851 160.044474 
L 976.596575 168.842059 
L 977.090608 176.459659 
L 977.584641 176.238205 
L 978.078673 178.236801 
L 978.572706 182.484588 
L 979.066739 183.344017 
L 979.560771 183.64446 
L 980.054804 182.943497 
L 980.548837 177.415647 
L 981.042869 176.266965 
L 981.536902 179.900132 
L 982.524967 172.683158 
L 983.019 173.142555 
L 983.513033 169.085025 
L 984.007065 168.368166 
L 984.501098 166.159794 
L 985.489163 150.886531 
L 985.983196 156.352961 
L 986.477228 155.996396 
L 986.971261 156.140535 
L 987.465294 154.628909 
L 987.959326 155.027374 
L 988.453359 155.237743 
L 988.947392 161.811549 
L 989.441424 158.811059 
L 989.935457 160.870587 
L 990.923522 168.921091 
L 991.911588 165.071281 
L 992.40562 167.554685 
L 992.899653 163.319657 
L 993.887718 158.871122 
L 994.381751 159.526561 
L 994.875784 158.936865 
L 995.369816 162.06668 
L 995.863849 161.185569 
L 996.357882 161.380043 
L 996.851914 162.165294 
L 997.345947 161.742499 
L 997.839979 159.091707 
L 998.334012 159.230548 
L 998.828045 157.559968 
L 999.322077 155.009846 
L 999.81611 155.13809 
L 1000.310143 150.29374 
L 1000.804175 161.403017 
L 1001.298208 153.074938 
L 1001.792241 148.882297 
L 1002.780306 136.79605 
L 1003.274339 132.290801 
L 1003.768371 136.186241 
L 1004.262404 125.569233 
L 1004.756437 135.963219 
L 1005.250469 138.049239 
L 1006.238535 147.652189 
L 1006.732567 150.596557 
L 1007.2266 150.851964 
L 1007.720633 152.948581 
L 1008.214665 150.946848 
L 1009.696763 165.645336 
L 1010.190796 176.238014 
L 1010.684828 172.172536 
L 1011.178861 173.569758 
L 1011.672894 175.859769 
L 1012.166926 167.213783 
L 1012.660959 161.932311 
L 1013.649024 154.749778 
L 1014.143057 159.066444 
L 1014.63709 151.122502 
L 1015.131122 149.642667 
L 1015.625155 154.256047 
L 1016.119188 155.690358 
L 1016.61322 156.623966 
L 1017.107253 155.949494 
L 1017.601286 159.38132 
L 1018.095318 166.932689 
L 1018.589351 169.124679 
L 1019.083384 174.270552 
L 1019.577416 182.221954 
L 1020.565481 184.287861 
L 1021.059514 179.740225 
L 1021.553547 177.693456 
L 1022.047579 173.964429 
L 1022.541612 175.131169 
L 1023.529677 175.036877 
L 1024.02371 173.684205 
L 1024.517743 170.183012 
L 1025.999841 167.328229 
L 1027.481939 153.767445 
L 1027.975971 149.603946 
L 1028.470004 152.08735 
L 1028.964037 148.111946 
L 1029.458069 153.345244 
L 1029.952102 154.313291 
L 1030.446135 161.21825 
L 1030.940167 161.078922 
L 1031.4342 160.727656 
L 1031.928232 158.05567 
L 1032.916298 161.605143 
L 1033.41033 161.407532 
L 1033.904363 156.716837 
L 1034.398396 153.721646 
L 1034.892428 151.847076 
L 1035.386461 145.278081 
L 1035.880494 145.138753 
L 1036.868559 140.418917 
L 1037.362592 144.136859 
L 1037.856624 145.963256 
L 1038.350657 148.303601 
L 1038.84469 143.027428 
L 1039.338722 148.832958 
L 1039.832755 148.190278 
L 1040.82082 139.208921 
L 1041.314853 138.216543 
L 1041.808886 136.808237 
L 1042.302918 142.714438 
L 1042.796951 143.947408 
L 1043.290983 145.900967 
L 1043.785016 150.154052 
L 1044.773081 154.532732 
L 1045.267114 159.344804 
L 1045.761147 160.320799 
L 1046.255179 162.306148 
L 1046.749212 165.851891 
L 1047.243245 178.155968 
L 1047.737277 180.090982 
L 1048.23131 177.707762 
L 1048.725343 180.127584 
L 1049.219375 172.331999 
L 1049.713408 167.479701 
L 1050.207441 157.649512 
L 1050.701473 143.299747 
L 1051.195506 139.650197 
L 1051.689539 138.233943 
L 1052.183571 132.075579 
L 1052.677604 140.646899 
L 1053.171637 144.677449 
L 1053.665669 153.320299 
L 1054.653734 163.725963 
L 1055.6418 175.156877 
L 1056.135832 178.011172 
L 1056.629865 176.806856 
L 1057.123898 170.007379 
L 1057.61793 164.778892 
L 1058.111963 165.148215 
L 1058.605996 163.819385 
L 1059.100028 160.254611 
L 1059.594061 157.749526 
L 1060.088094 160.603821 
L 1060.582126 167.079605 
L 1061.076159 166.513752 
L 1061.570192 164.469632 
L 1062.558257 170.702768 
L 1063.05229 168.388428 
L 1063.546322 168.182869 
L 1064.040355 167.815708 
L 1064.534388 176.262515 
L 1065.02842 182.113082 
L 1065.522453 184.686559 
L 1066.016485 190.786154 
L 1066.510518 199.119044 
L 1067.004551 200.556004 
L 1067.992616 212.657172 
L 1068.980681 215.125761 
L 1069.474714 214.983784 
L 1069.968747 215.23919 
L 1070.956812 223.98271 
L 1071.450845 225.462058 
L 1071.944877 222.135713 
L 1072.43891 222.841488 
L 1072.932943 218.198479 
L 1073.921008 212.080934 
L 1074.415041 203.419052 
L 1074.909073 190.825723 
L 1075.403106 187.565609 
L 1075.897139 188.07799 
L 1076.391171 191.464779 
L 1076.885204 198.32735 
L 1077.379236 203.187107 
L 1077.873269 209.896023 
L 1078.367302 224.594999 
L 1078.861334 231.571486 
L 1079.355367 235.856362 
L 1080.837465 255.768523 
L 1081.331498 258.686399 
L 1081.82553 255.826318 
L 1082.319563 256.71224 
L 1082.813596 255.865569 
L 1083.307628 253.924769 
L 1083.801661 244.568791 
L 1084.295694 237.814351 
L 1084.789726 237.802185 
L 1085.283759 240.41805 
L 1085.777792 240.792672 
L 1086.765857 247.298678 
L 1087.25989 244.205466 
L 1087.753922 247.870423 
L 1088.247955 247.437031 
L 1088.741987 249.764131 
L 1089.23602 245.963575 
L 1089.730053 235.937344 
L 1090.224085 228.790818 
L 1090.718118 233.277035 
L 1091.212151 227.579636 
L 1091.706183 226.619048 
L 1092.200216 224.180194 
L 1092.694249 225.113801 
L 1093.188281 232.498269 
L 1094.176347 241.820401 
L 1095.658445 249.489417 
L 1096.64651 249.784716 
L 1097.634575 258.534924 
L 1098.128608 264.597584 
L 1098.622641 264.35509 
L 1099.116673 268.229491 
L 1099.610706 266.336531 
L 1100.104738 267.275438 
L 1100.598771 267.395733 
L 1101.092804 265.160869 
L 1101.586836 268.076097 
L 1102.080869 266.127349 
L 1102.574902 263.696442 
L 1103.068934 260.076034 
L 1104.057 266.136044 
L 1104.551032 261.803149 
L 1105.045065 266.935931 
L 1105.539098 266.293405 
L 1106.03313 264.517011 
L 1106.527163 265.715696 
L 1107.021196 269.658976 
L 1107.515228 257.12128 
L 1108.009261 257.6734 
L 1108.503294 249.62084 
L 1108.997326 238.15343 
L 1109.491359 245.638569 
L 1110.479424 247.463396 
L 1110.973457 252.762925 
L 1111.467489 256.353705 
L 1112.455555 266.014937 
L 1112.949587 260.725517 
L 1113.44362 253.72205 
L 1113.937653 253.267465 
L 1114.431685 263.942269 
L 1114.925718 270.49753 
L 1115.419751 267.746067 
L 1115.913783 271.858743 
L 1116.407816 270.710061 
L 1116.901849 275.352582 
L 1117.395881 269.827382 
L 1117.889914 258.635492 
L 1118.383947 251.287625 
L 1118.877979 252.091421 
L 1119.372012 248.569034 
L 1119.866045 247.001775 
L 1120.360077 248.791082 
L 1120.85411 252.580553 
L 1121.348143 257.901275 
L 1121.842175 259.454801 
L 1122.336208 265.167609 
L 1122.83024 263.817586 
L 1123.324273 269.85095 
L 1123.818306 269.979193 
L 1124.312338 267.585376 
L 1124.806371 269.750872 
L 1125.300404 263.422957 
L 1125.794436 254.78227 
L 1126.288469 255.178085 
L 1126.782502 247.001012 
L 1127.770567 237.609025 
L 1128.2646 229.270349 
L 1128.758632 233.796305 
L 1130.24073 238.120431 
L 1131.228796 248.621468 
L 1131.722828 249.703432 
L 1132.216861 247.354651 
L 1132.710894 244.330318 
L 1133.204926 245.295717 
L 1133.698959 249.445482 
L 1134.192991 244.81572 
L 1134.687024 242.162278 
L 1135.675089 233.416703 
L 1136.169122 234.480122 
L 1136.663155 224.724111 
L 1137.157187 218.112729 
L 1137.65122 213.429982 
L 1138.145253 213.333042 
L 1139.133318 221.282875 
L 1139.627351 217.906196 
L 1140.121383 217.679443 
L 1140.615416 214.766378 
L 1141.109449 221.324288 
L 1141.603481 220.906792 
L 1142.097514 217.440038 
L 1142.591547 213.022214 
L 1143.085579 209.637586 
L 1144.073645 207.591898 
L 1145.06171 189.012403 
L 1145.555742 184.58928 
L 1146.049775 186.614368 
L 1146.543808 186.493585 
L 1147.03784 179.678212 
L 1147.531873 180.527045 
L 1148.025906 183.222387 
L 1148.519938 187.931138 
L 1149.013971 185.953249 
L 1149.508004 184.770127 
L 1150.002036 186.260071 
L 1150.496069 192.735856 
L 1150.990102 188.005423 
L 1151.484134 185.126797 
L 1151.978167 181.368629 
L 1152.4722 179.345703 
L 1152.966232 176.565099 
L 1153.460265 172.817528 
L 1153.954298 170.569418 
L 1154.44833 170.403597 
L 1154.942363 170.070876 
L 1155.436396 174.043144 
L 1155.930428 180.757358 
L 1156.424461 179.044391 
L 1156.918493 181.535742 
L 1157.412526 178.673012 
L 1157.906559 177.463398 
L 1158.400591 175.633865 
L 1158.894624 174.919655 
L 1159.388657 170.02497 
L 1159.882689 170.497613 
L 1160.376722 167.232201 
L 1160.870755 166.52064 
L 1161.364787 169.698141 
L 1161.85882 171.415919 
L 1162.352853 170.081791 
L 1162.846885 171.93203 
L 1163.340918 170.420404 
L 1163.834951 171.033456 
L 1164.328983 172.703548 
L 1164.823016 175.359151 
L 1165.811081 174.084387 
L 1166.305114 175.380938 
L 1166.799147 182.026273 
L 1167.293179 185.577314 
L 1167.787212 186.701665 
L 1168.281244 181.873211 
L 1168.775277 178.615746 
L 1169.26931 178.468471 
L 1169.763342 178.501342 
L 1170.257375 177.834819 
L 1170.751408 172.733494 
L 1171.24544 173.669751 
L 1172.233506 180.710901 
L 1172.727538 181.178245 
L 1173.221571 178.636071 
L 1173.715604 170.774256 
L 1174.209636 172.563563 
L 1175.197702 163.870971 
L 1175.691734 161.895731 
L 1176.6798 159.473853 
L 1177.173832 162.224828 
L 1177.667865 161.568902 
L 1178.161898 165.808741 
L 1178.65593 168.051065 
L 1179.149963 166.997755 
L 1179.643995 167.329989 
L 1180.632061 161.570089 
L 1181.126093 156.296565 
L 1181.620126 147.449238 
L 1183.102224 141.428145 
L 1183.596257 138.332283 
L 1184.090289 137.954525 
L 1184.584322 133.830764 
L 1185.078355 136.539352 
L 1185.572387 138.580335 
L 1186.06642 141.816119 
L 1186.560453 142.752376 
L 1187.054485 151.188585 
L 1187.548518 153.467999 
L 1188.536583 171.967042 
L 1189.524649 183.631088 
L 1190.018681 188.09876 
L 1190.512714 186.364599 
L 1191.006746 189.520906 
L 1191.500779 184.615624 
L 1191.994812 181.63103 
L 1192.488844 177.070147 
L 1192.982877 170.538242 
L 1193.47691 165.550834 
L 1193.970942 164.733305 
L 1194.959008 160.358948 
L 1195.45304 159.472539 
L 1195.947073 160.26044 
L 1196.935138 166.835326 
L 1197.429171 167.019203 
L 1197.923204 169.465518 
L 1198.417236 171.048185 
L 1198.911269 174.482661 
L 1199.405302 172.965736 
L 1199.899334 169.191673 
L 1200.393367 164.368517 
L 1200.8874 162.777414 
L 1201.381432 159.607374 
L 1201.875465 163.902847 
L 1202.86353 158.227722 
L 1203.357563 156.959825 
L 1203.851595 157.546384 
L 1204.345628 157.677277 
L 1204.839661 154.093958 
L 1205.333693 153.162512 
L 1205.827726 147.12866 
L 1207.309824 140.074371 
L 1207.803857 136.642057 
L 1208.297889 137.824692 
L 1208.791922 131.949794 
L 1209.779987 140.169849 
L 1210.27402 141.628003 
L 1211.262085 149.238736 
L 1212.250151 158.531726 
L 1212.744183 157.239985 
L 1213.732248 148.822913 
L 1214.226281 147.631843 
L 1215.214346 148.06318 
L 1215.708379 145.354104 
L 1216.202412 139.847449 
L 1216.696444 140.457851 
L 1217.190477 142.920061 
L 1217.68451 144.613996 
L 1218.178542 147.37027 
L 1218.672575 144.422764 
L 1219.166608 146.453151 
L 1219.66064 156.717325 
L 1220.154673 160.975709 
L 1220.648706 162.465654 
L 1221.142738 165.28286 
L 1221.636771 163.771234 
L 1222.130804 168.734311 
L 1222.624836 171.668083 
L 1223.118869 171.534053 
L 1223.612902 175.461284 
L 1224.106934 174.450361 
L 1224.600967 177.12186 
L 1225.094999 178.776057 
L 1225.589032 176.082877 
L 1226.083065 175.864072 
L 1226.577097 175.888996 
L 1227.07113 176.544435 
L 1227.565163 180.511404 
L 1228.059195 180.615805 
L 1228.553228 178.444522 
L 1229.047261 180.525244 
L 1229.541293 179.318279 
L 1230.529359 171.409858 
L 1231.023391 173.01107 
L 1231.517424 175.388505 
L 1232.011457 178.335522 
L 1232.505489 176.794755 
L 1232.999522 177.783996 
L 1233.493555 180.187923 
L 1233.987587 178.498799 
L 1234.48162 183.366505 
L 1235.469685 173.608925 
L 1236.45775 181.423649 
L 1237.445816 188.496589 
L 1237.939848 182.791242 
L 1238.433881 182.379044 
L 1238.927914 182.73777 
L 1239.421946 179.427321 
L 1240.410012 167.468236 
L 1240.904044 164.261107 
L 1241.398077 155.805865 
L 1241.89211 153.419995 
L 1242.386142 156.475631 
L 1242.880175 151.474977 
L 1243.374208 151.529043 
L 1244.362273 156.766071 
L 1244.856306 167.737588 
L 1245.350338 172.827828 
L 1245.844371 176.294094 
L 1246.338404 177.871463 
L 1246.832436 185.77253 
L 1247.326469 185.921967 
L 1247.820501 185.133579 
L 1248.314534 185.606222 
L 1248.808567 186.796805 
L 1249.302599 187.126389 
L 1249.796632 191.252312 
L 1250.290665 190.249337 
L 1250.784697 186.382551 
L 1251.27873 187.631416 
L 1251.772763 185.314426 
L 1252.266795 184.666447 
L 1252.760828 181.228835 
L 1253.254861 180.628542 
L 1253.748893 180.348806 
L 1254.242926 185.523821 
L 1254.736959 184.528793 
L 1255.230991 189.038854 
L 1256.219057 190.535178 
L 1256.713089 192.215866 
L 1257.207122 192.095083 
L 1257.701155 192.41672 
L 1258.195187 195.965112 
L 1258.68922 189.703427 
L 1259.183252 179.987155 
L 1259.677285 178.902054 
L 1260.171318 164.549639 
L 1260.66535 161.705454 
L 1261.159383 160.487892 
L 1261.653416 161.2493 
L 1262.147448 165.854732 
L 1262.641481 172.423239 
L 1263.135514 170.548669 
L 1263.629546 184.071389 
L 1264.123579 184.989101 
L 1264.617612 182.044245 
L 1265.111644 184.275973 
L 1265.605677 180.742989 
L 1266.09971 181.949467 
L 1266.593742 188.827933 
L 1267.087775 191.700773 
L 1267.581808 188.626104 
L 1268.07584 192.937473 
L 1268.569873 194.014139 
L 1269.063906 193.260191 
L 1269.557938 195.473373 
L 1270.546003 190.309549 
L 1271.040036 201.94867 
L 1271.534069 201.973594 
L 1272.028101 199.683096 
L 1272.522134 201.631357 
L 1273.016167 200.310475 
L 1273.510199 201.392439 
L 1274.004232 209.17694 
L 1274.498265 205.082321 
L 1274.992297 208.524743 
L 1275.48633 215.456194 
L 1275.980363 220.326549 
L 1276.968428 232.221077 
L 1277.462461 228.134405 
L 1277.956493 231.237727 
L 1278.450526 237.7506 
L 1278.944559 232.114133 
L 1279.438591 229.958745 
L 1279.932624 230.479074 
L 1280.426657 229.788708 
L 1280.920689 230.110345 
L 1281.414722 226.508481 
L 1281.908754 226.387698 
L 1282.402787 228.595582 
L 1282.89682 230.093474 
L 1283.390852 226.099526 
L 1283.884885 228.993559 
L 1284.87295 233.40138 
L 1285.366983 231.235396 
L 1285.861016 233.554548 
L 1286.355048 234.665653 
L 1286.849081 240.730808 
L 1287.343114 235.934144 
L 1287.837146 235.739183 
L 1288.331179 242.098401 
L 1289.319244 236.404731 
L 1289.813277 240.06704 
L 1290.30731 238.351423 
L 1292.777473 229.39126 
L 1293.765538 220.689641 
L 1294.259571 214.6187 
L 1295.741669 219.989758 
L 1296.729734 226.502786 
L 1297.717799 224.318411 
L 1299.199897 236.259699 
L 1300.187963 231.195618 
L 1300.681995 233.342725 
L 1301.176028 238.221181 
L 1301.670061 230.942349 
L 1302.164093 228.678344 
L 1302.658126 236.523777 
L 1303.152159 232.066214 
L 1303.646191 235.646396 
L 1304.140224 244.262753 
L 1305.128289 250.170035 
L 1306.116354 233.617197 
L 1307.10442 229.036201 
L 1307.598452 218.697361 
L 1308.092485 219.699848 
L 1308.586518 219.08366 
L 1309.08055 222.12605 
L 1309.574583 222.860966 
L 1310.068616 228.843994 
L 1310.562648 229.109998 
L 1311.550714 237.934075 
L 1312.044746 236.729759 
L 1312.538779 227.153896 
L 1313.032812 224.338851 
L 1313.526844 218.604362 
L 1314.020877 218.478281 
L 1314.51491 210.799261 
L 1315.008942 197.509186 
L 1315.502975 194.066275 
L 1315.997007 197.649107 
L 1316.49104 198.569469 
L 1316.985073 201.646299 
L 1317.479105 200.034002 
L 1318.467171 209.387924 
L 1318.961203 209.661875 
L 1319.455236 209.048336 
L 1319.949269 204.400029 
L 1320.443301 201.081632 
L 1320.937334 198.862664 
L 1321.925399 182.119081 
L 1322.913465 174.125885 
L 1323.407497 173.660702 
L 1323.90153 167.181781 
L 1324.395563 167.405397 
L 1324.889595 169.043698 
L 1325.383628 169.619661 
L 1325.877661 171.252664 
L 1326.865726 164.24233 
L 1327.359758 167.199944 
L 1327.853791 166.504279 
L 1328.347824 169.207569 
L 1328.841856 169.815322 
L 1329.335889 163.54569 
L 1329.829922 165.581375 
L 1330.323954 159.417711 
L 1330.817987 158.923387 
L 1331.31202 160.784224 
L 1331.806052 157.161166 
L 1332.300085 158.65376 
L 1333.28815 157.229558 
L 1333.782183 157.927385 
L 1334.276216 168.573048 
L 1334.770248 169.302665 
L 1335.264281 166.164416 
L 1335.758314 165.259462 
L 1336.252346 167.051418 
L 1336.746379 174.404096 
L 1337.240412 175.345651 
L 1337.734444 170.056232 
L 1338.228477 166.41463 
L 1339.216542 165.327961 
L 1340.204607 152.6059 
L 1341.192673 145.88963 
L 1341.686705 141.644004 
L 1342.180738 138.744185 
L 1342.674771 133.844202 
L 1343.168803 134.033378 
L 1343.662836 133.327116 
L 1344.156869 126.411073 
L 1344.650901 126.743307 
L 1345.144934 130.485092 
L 1345.638967 130.714006 
L 1346.132999 130.489903 
L 1347.121065 136.545541 
L 1347.615097 143.786951 
L 1348.10913 145.353723 
L 1348.603163 145.648868 
L 1349.097195 146.381135 
L 1349.591228 146.045764 
L 1350.08526 143.956607 
L 1350.579293 140.964065 
L 1351.073326 141.693683 
L 1351.567358 140.698655 
L 1352.061391 135.517854 
L 1352.555424 132.382254 
L 1353.049456 131.27331 
L 1354.037522 124.623271 
L 1354.531554 117.140294 
L 1355.025587 118.463337 
L 1356.013652 124.272598 
L 1356.507685 125.057849 
L 1357.001718 128.407549 
L 1357.49575 126.302497 
L 1357.989783 126.700962 
L 1358.483816 126.527194 
L 1358.977848 125.473883 
L 1359.471881 121.042813 
L 1360.459946 118.747016 
L 1360.953979 117.073788 
L 1361.448011 120.691059 
L 1361.942044 123.283081 
L 1362.436077 122.854988 
L 1362.930109 123.820386 
L 1363.918175 129.298494 
L 1364.412207 132.717074 
L 1365.400273 137.845484 
L 1365.894305 141.725028 
L 1366.882371 141.65831 
L 1367.376403 141.69913 
L 1367.870436 135.585802 
L 1368.364469 134.890137 
L 1369.352534 131.964906 
L 1369.846567 133.261457 
L 1370.340599 131.355097 
L 1370.834632 136.644029 
L 1371.328665 137.696852 
L 1371.822697 137.729723 
L 1372.31673 135.571687 
L 1372.810762 134.478638 
L 1373.304795 130.897968 
L 1373.798828 135.307358 
L 1374.29286 132.383695 
L 1374.786893 136.814279 
L 1375.280926 136.645809 
L 1375.774958 137.420463 
L 1376.268991 135.617423 
L 1376.763024 138.336607 
L 1377.751089 135.578278 
L 1378.245122 130.975008 
L 1378.739154 131.307241 
L 1379.233187 133.141585 
L 1379.72722 136.64494 
L 1380.221252 136.987771 
L 1380.715285 138.05384 
L 1381.209318 140.41273 
L 1381.70335 141.656297 
L 1382.197383 141.389806 
L 1382.691416 140.651754 
L 1383.185448 135.200732 
L 1383.679481 128.207861 
L 1384.667546 121.706178 
L 1385.161579 126.173851 
L 1385.655611 127.041228 
L 1386.643677 133.42537 
L 1387.137709 138.777883 
L 1388.125775 144.799082 
L 1388.619807 140.227602 
L 1389.11384 139.561079 
L 1389.607873 143.204843 
L 1390.101905 148.096391 
L 1390.595938 156.810769 
L 1391.089971 160.269087 
L 1391.584003 155.363806 
L 1392.078036 154.713177 
L 1393.066101 157.557956 
L 1393.560134 157.948473 
L 1394.054167 150.780754 
L 1394.548199 149.865204 
L 1395.536264 163.118783 
L 1396.030297 163.342399 
L 1397.018362 149.006961 
L 1397.512395 150.443921 
L 1398.006428 150.407913 
L 1398.994493 142.552477 
L 1399.488526 140.526901 
L 1399.982558 141.187639 
L 1400.476591 142.317289 
L 1400.970624 142.482622 
L 1401.958689 152.09087 
L 1402.452722 151.291885 
L 1402.946754 157.90278 
L 1403.440787 162.696306 
L 1403.93482 164.212743 
L 1404.428852 162.364666 
L 1404.922885 156.423538 
L 1405.416918 154.570162 
L 1406.404983 158.572652 
L 1406.899015 156.401369 
L 1407.393048 161.685002 
L 1407.887081 163.349796 
L 1408.381113 167.446577 
L 1408.875146 169.121967 
L 1409.369179 170.103261 
L 1409.863211 166.130506 
L 1410.357244 166.330279 
L 1410.851277 161.544212 
L 1411.345309 163.209006 
L 1412.333375 154.352162 
L 1412.827407 149.330315 
L 1413.32144 146.947094 
L 1413.815473 146.876646 
L 1414.803538 147.215259 
L 1415.297571 149.099938 
L 1415.791603 157.146712 
L 1416.285636 157.868382 
L 1416.779669 160.659096 
L 1417.767734 151.343937 
L 1418.261766 144.706063 
L 1418.755799 144.44487 
L 1419.249832 137.168533 
L 1419.743864 135.384037 
L 1420.237897 132.582239 
L 1420.73193 135.431236 
L 1421.225962 136.64831 
L 1421.719995 140.959678 
L 1422.70806 135.56802 
L 1423.202093 138.361383 
L 1423.696126 137.019308 
L 1424.190158 136.000437 
L 1424.684191 139.771364 
L 1425.178224 134.285902 
L 1426.166289 138.730812 
L 1426.660322 138.549097 
L 1427.154354 137.527577 
L 1427.648387 131.051305 
L 1428.14242 128.432304 
L 1428.636452 135.739944 
L 1429.130485 138.141222 
L 1430.11855 149.752283 
L 1430.612583 151.019693 
L 1431.106615 158.589607 
L 1431.600648 161.751212 
L 1432.094681 161.35226 
L 1432.588713 162.190496 
L 1433.082746 157.428272 
L 1433.576779 153.805214 
L 1434.564844 160.631777 
L 1435.058877 162.720446 
L 1435.552909 166.615886 
L 1436.046942 169.186715 
L 1437.035007 184.779559 
L 1438.517105 200.283411 
L 1439.011138 201.468695 
L 1439.505171 196.47069 
L 1439.999203 194.916677 
L 1440.493236 192.276481 
L 1440.987268 190.542321 
L 1441.481301 189.3539 
L 1441.975334 188.772152 
L 1442.469366 183.617843 
L 1442.963399 187.910666 
L 1443.457432 184.955213 
L 1443.951464 190.747498 
L 1444.445497 188.923263 
L 1444.93953 186.558587 
L 1445.927595 189.25501 
L 1446.421628 185.295501 
L 1446.91566 183.328208 
L 1447.409693 176.520784 
L 1447.903726 180.845398 
L 1449.385824 198.789185 
L 1450.373889 218.567804 
L 1450.867922 225.011797 
L 1451.361954 224.634039 
L 1451.855987 223.599273 
L 1452.844052 212.384621 
L 1453.338085 207.95355 
L 1454.32615 194.487058 
L 1454.820183 199.646177 
L 1455.314215 195.019064 
L 1455.808248 204.125528 
L 1457.290346 221.218914 
L 1457.784379 230.550562 
L 1458.278411 235.481848 
L 1458.772444 237.981147 
L 1459.760509 223.150304 
L 1460.254542 226.905335 
L 1460.748575 226.281199 
L 1461.242607 223.802607 
L 1461.73664 210.128394 
L 1462.230673 209.896343 
L 1462.724705 214.642184 
L 1463.218738 224.01357 
L 1463.71277 216.088173 
L 1464.206803 218.15035 
L 1464.700836 217.632183 
L 1465.688901 228.604781 
L 1466.182934 226.383163 
L 1467.170999 234.658851 
L 1468.159064 231.382842 
L 1468.653097 231.317692 
L 1469.14713 230.274979 
L 1469.641162 231.563582 
L 1470.135195 238.873872 
L 1470.629228 237.947725 
L 1471.12326 239.26547 
L 1471.617293 243.441728 
L 1472.111326 242.785801 
L 1472.605358 243.038558 
L 1473.099391 242.470056 
L 1474.087456 228.426032 
L 1474.581489 222.063677 
L 1475.075521 218.528044 
L 1475.569554 217.853573 
L 1476.063587 220.63369 
L 1476.557619 219.792318 
L 1477.051652 219.700676 
L 1477.545685 223.357686 
L 1478.039717 229.051949 
L 1478.53375 228.205278 
L 1479.027783 231.160243 
L 1479.521815 225.425755 
L 1480.509881 226.760476 
L 1481.003913 221.161097 
L 1481.497946 220.02831 
L 1481.991979 221.232139 
L 1482.486011 217.407741 
L 1482.980044 216.052419 
L 1483.968109 201.989851 
L 1484.462142 207.466877 
L 1484.956175 204.612095 
L 1485.450207 203.421025 
L 1485.94424 201.459031 
L 1486.438272 206.281699 
L 1486.932305 212.892594 
L 1487.426338 221.463914 
L 1487.92037 215.292303 
L 1488.414403 214.344962 
L 1489.402468 210.553435 
L 1489.896501 211.145293 
L 1490.390534 207.281156 
L 1490.884566 206.789481 
L 1491.378599 207.280669 
L 1491.872632 206.328029 
L 1492.366664 205.820459 
L 1492.860697 206.732873 
L 1493.35473 196.046984 
L 1493.848762 188.950794 
L 1494.342795 179.82265 
L 1494.836828 176.427425 
L 1495.33086 174.791286 
L 1496.318926 166.196716 
L 1496.812958 166.576636 
L 1497.306991 167.38573 
L 1497.801023 167.01592 
L 1498.295056 165.130753 
L 1498.789089 160.718227 
L 1499.283121 158.554892 
L 1499.777154 161.205197 
L 1500.271187 162.11761 
L 1500.765219 164.624857 
L 1501.259252 168.173249 
L 1501.753285 165.016455 
L 1502.74135 169.429574 
L 1503.235383 169.952552 
L 1503.729415 171.922007 
L 1504.223448 168.322792 
L 1504.717481 162.347224 
L 1505.211513 167.893131 
L 1505.705546 165.054243 
L 1506.199579 169.018563 
L 1506.693611 169.337551 
L 1507.187644 167.892156 
L 1507.681677 171.570359 
L 1508.175709 169.950115 
L 1508.669742 174.452228 
L 1509.163774 182.63941 
L 1510.15184 173.877939 
L 1510.645872 172.750451 
L 1511.139905 167.182863 
L 1511.633938 172.477093 
L 1512.12797 162.760821 
L 1512.622003 149.21642 
L 1513.610068 140.158236 
L 1514.104101 137.459757 
L 1514.598134 133.616814 
L 1515.092166 126.287493 
L 1515.586199 127.078042 
L 1516.080232 131.625191 
L 1516.574264 130.19834 
L 1517.068297 131.871082 
L 1517.56233 129.771328 
L 1518.056362 128.410708 
L 1518.550395 130.411953 
L 1519.044428 131.674064 
L 1519.53846 131.444663 
L 1520.032493 134.349293 
L 1520.526525 133.568853 
L 1521.020558 130.947202 
L 1521.514591 131.533761 
L 1522.008623 130.459257 
L 1522.502656 130.561009 
L 1522.996689 127.650592 
L 1523.490721 126.936383 
L 1523.984754 124.317381 
L 1524.478787 129.267212 
L 1524.972819 121.929943 
L 1525.960885 110.940475 
L 1527.442983 103.1078 
L 1527.937015 96.197056 
L 1528.431048 95.400721 
L 1528.925081 89.356272 
L 1529.419113 89.447427 
L 1529.913146 88.470944 
L 1530.407179 84.511435 
L 1530.901211 83.121674 
L 1531.395244 82.486941 
L 1531.889276 79.377833 
L 1553.132681 72.726712 
L 1553.626713 68.889068 
L 1556.096876 61.732563 
L 1556.590909 55.8 
L 1556.590909 55.8 
" clip-path="url(#p4b90b3411e)" style="fill: none; stroke: #39a7d4; stroke-width: 2.5; stroke-linecap: square"/>
   </g>
   <g id="patch_3">
    <path d="M 225 320.4 
L 225 43.2 
" style="fill: none; stroke: #000000; stroke-width: 0.8; stroke-linejoin: miter; stroke-linecap: square"/>
   </g>
   <g id="patch_4">
    <path d="M 1620 320.4 
L 1620 43.2 
" style="fill: none; stroke: #000000; stroke-width: 0.8; stroke-linejoin: miter; stroke-linecap: square"/>
   </g>
   <g id="patch_5">
    <path d="M 225 320.4 
L 1620 320.4 
" style="fill: none; stroke: #000000; stroke-width: 0.8; stroke-linejoin: miter; stroke-linecap: square"/>
   </g>
   <g id="patch_6">
    <path d="M 225 43.2 
L 1620 43.2 
" style="fill: none; stroke: #000000; stroke-width: 0.8; stroke-linejoin: miter; stroke-linecap: square"/>
   </g>
   <g id="text_18">
    <!-- PADO -->
    <g transform="translate(894.695312 37.2) scale(0.2 -0.2)">
     <defs>
      <path id="DejaVuSans-50" d="M 1259 4147 
L 1259 2394 
L 2053 2394 
Q 2494 2394 2734 2622 
Q 2975 2850 2975 3272 
Q 2975 3691 2734 3919 
Q 2494 4147 2053 4147 
L 1259 4147 
z
M 628 4666 
L 2053 4666 
Q 2838 4666 3239 4311 
Q 3641 3956 3641 3272 
Q 3641 2581 3239 2228 
Q 2838 1875 2053 1875 
L 1259 1875 
L 1259 0 
L 628 0 
L 628 4666 
z
" transform="scale(0.015625)"/>
      <path id="DejaVuSans-41" d="M 2188 4044 
L 1331 1722 
L 3047 1722 
L 2188 4044 
z
M 1831 4666 
L 2547 4666 
L 4325 0 
L 3669 0 
L 3244 1197 
L 1141 1197 
L 716 0 
L 50 0 
L 1831 4666 
z
" transform="scale(0.015625)"/>
      <path id="DejaVuSans-44" d="M 1259 4147 
L 1259 519 
L 2022 519 
Q 2988 519 3436 956 
Q 3884 1394 3884 2338 
Q 3884 3275 3436 3711 
Q 2988 4147 2022 4147 
L 1259 4147 
z
M 628 4666 
L 1925 4666 
Q 3281 4666 3915 4102 
Q 4550 3538 4550 2338 
Q 4550 1131 3912 565 
Q 3275 0 1925 0 
L 628 0 
L 628 4666 
z
" transform="scale(0.015625)"/>
      <path id="DejaVuSans-4f" d="M 2522 4238 
Q 1834 4238 1429 3725 
Q 1025 3213 1025 2328 
Q 1025 1447 1429 934 
Q 1834 422 2522 422 
Q 3209 422 3611 934 
Q 4013 1447 4013 2328 
Q 4013 3213 3611 3725 
Q 3209 4238 2522 4238 
z
M 2522 4750 
Q 3503 4750 4090 4092 
Q 4678 3434 4678 2328 
Q 4678 1225 4090 567 
Q 3503 -91 2522 -91 
Q 1538 -91 948 565 
Q 359 1222 359 2328 
Q 359 3434 948 4092 
Q 1538 4750 2522 4750 
z
" transform="scale(0.015625)"/>
     </defs>
     <use xlink:href="#DejaVuSans-50"/>
     <use xlink:href="#DejaVuSans-41" x="53.927734"/>
     <use xlink:href="#DejaVuSans-44" x="122.335938"/>
     <use xlink:href="#DejaVuSans-4f" x="199.337891"/>
    </g>
   </g>
   <g id="legend_1">
    <g id="patch_7">
     <path d="M 232 65.878125 
L 288.94375 65.878125 
Q 290.94375 65.878125 290.94375 63.878125 
L 290.94375 50.2 
Q 290.94375 48.2 288.94375 48.2 
L 232 48.2 
Q 230 48.2 230 50.2 
L 230 63.878125 
Q 230 65.878125 232 65.878125 
z
" style="fill: #ffffff; opacity: 0.8; stroke: #cccccc; stroke-linejoin: miter"/>
    </g>
    <g id="line2d_17">
     <path d="M 234 56.298437 
L 244 56.298437 
L 254 56.298437 
" style="fill: none; stroke: #39a7d4; stroke-width: 2.5; stroke-linecap: square"/>
    </g>
    <g id="text_19">
     <!-- pado -->
     <g transform="translate(262 59.798437) scale(0.1 -0.1)">
      <defs>
       <path id="DejaVuSans-70" d="M 1159 525 
L 1159 -1331 
L 581 -1331 
L 581 3500 
L 1159 3500 
L 1159 2969 
Q 1341 3281 1617 3432 
Q 1894 3584 2278 3584 
Q 2916 3584 3314 3078 
Q 3713 2572 3713 1747 
Q 3713 922 3314 415 
Q 2916 -91 2278 -91 
Q 1894 -91 1617 61 
Q 1341 213 1159 525 
z
M 3116 1747 
Q 3116 2381 2855 2742 
Q 2594 3103 2138 3103 
Q 1681 3103 1420 2742 
Q 1159 2381 1159 1747 
Q 1159 1113 1420 752 
Q 1681 391 2138 391 
Q 2594 391 2855 752 
Q 3116 1113 3116 1747 
z
" transform="scale(0.015625)"/>
       <path id="DejaVuSans-61" d="M 2194 1759 
Q 1497 1759 1228 1600 
Q 959 1441 959 1056 
Q 959 750 1161 570 
Q 1363 391 1709 391 
Q 2188 391 2477 730 
Q 2766 1069 2766 1631 
L 2766 1759 
L 2194 1759 
z
M 3341 1997 
L 3341 0 
L 2766 0 
L 2766 531 
Q 2569 213 2275 61 
Q 1981 -91 1556 -91 
Q 1019 -91 701 211 
Q 384 513 384 1019 
Q 384 1609 779 1909 
Q 1175 2209 1959 2209 
L 2766 2209 
L 2766 2266 
Q 2766 2663 2505 2880 
Q 2244 3097 1772 3097 
Q 1472 3097 1187 3025 
Q 903 2953 641 2809 
L 641 3341 
Q 956 3463 1253 3523 
Q 1550 3584 1831 3584 
Q 2591 3584 2966 3190 
Q 3341 2797 3341 1997 
z
" transform="scale(0.015625)"/>
       <path id="DejaVuSans-64" d="M 2906 2969 
L 2906 4863 
L 3481 4863 
L 3481 0 
L 2906 0 
L 2906 525 
Q 2725 213 2448 61 
Q 2172 -91 1784 -91 
Q 1150 -91 751 415 
Q 353 922 353 1747 
Q 353 2572 751 3078 
Q 1150 3584 1784 3584 
Q 2172 3584 2448 3432 
Q 2725 3281 2906 2969 
z
M 947 1747 
Q 947 1113 1208 752 
Q 1469 391 1925 391 
Q 2381 391 2643 752 
Q 2906 1113 2906 1747 
Q 2906 2381 2643 2742 
Q 2381 3103 1925 3103 
Q 1469 3103 1208 2742 
Q 947 2381 947 1747 
z
" transform="scale(0.015625)"/>
      </defs>
      <use xlink:href="#DejaVuSans-70"/>
      <use xlink:href="#DejaVuSans-61" x="63.476562"/>
      <use xlink:href="#DejaVuSans-64" x="124.755859"/>
      <use xlink:href="#DejaVuSans-6f" x="188.232422"/>
     </g>
    </g>
   </g>
  </g>
 </g>
 <defs>
  <clipPath id="p4b90b3411e">
   <rect x="225" y="43.2" width="1395" height="277.2"/>
  </clipPath>
 </defs>
</svg>
