<?xml version="1.0" encoding="utf-8" standalone="no"?>
<!DOCTYPE svg PUBLIC "-//W3C//DTD SVG 1.1//EN"
  "http://www.w3.org/Graphics/SVG/1.1/DTD/svg11.dtd">
<svg xmlns:xlink="http://www.w3.org/1999/xlink" width="1800pt" height="360pt" viewBox="0 0 1800 360" xmlns="http://www.w3.org/2000/svg" version="1.1">
 <metadata>
  <rdf:RDF xmlns:dc="http://purl.org/dc/elements/1.1/" xmlns:cc="http://creativecommons.org/ns#" xmlns:rdf="http://www.w3.org/1999/02/22-rdf-syntax-ns#">
   <cc:Work>
    <dc:type rdf:resource="http://purl.org/dc/dcmitype/StillImage"/>
    <dc:date>2024-03-25T15:23:16.410139</dc:date>
    <dc:format>image/svg+xml</dc:format>
    <dc:creator>
     <cc:Agent>
      <dc:title>Matplotlib v3.7.2, https://matplotlib.org/</dc:title>
     </cc:Agent>
    </dc:creator>
   </cc:Work>
  </rdf:RDF>
 </metadata>
 <defs>
  <style type="text/css">*{stroke-linejoin: round; stroke-linecap: butt}</style>
 </defs>
 <g id="figure_1">
  <g id="patch_1">
   <path d="M 0 360 
L 1800 360 
L 1800 0 
L 0 0 
z
" style="fill: #ffffff"/>
  </g>
  <g id="axes_1">
   <g id="patch_2">
    <path d="M 225 320.4 
L 1620 320.4 
L 1620 43.2 
L 225 43.2 
z
" style="fill: #ffffff"/>
   </g>
   <g id="matplotlib.axis_1">
    <g id="xtick_1">
     <g id="line2d_1">
      <defs>
       <path id="m60ceed759b" d="M 0 0 
L 0 3.5 
" style="stroke: #000000; stroke-width: 0.8"/>
      </defs>
      <g>
       <use xlink:href="#m60ceed759b" x="281.924597" y="320.4" style="stroke: #000000; stroke-width: 0.8"/>
      </g>
     </g>
     <g id="text_1">
      <!-- 2011 -->
      <g transform="translate(262.837097 338.797656) scale(0.15 -0.15)">
       <defs>
        <path id="DejaVuSans-32" d="M 1228 531 
L 3431 531 
L 3431 0 
L 469 0 
L 469 531 
Q 828 903 1448 1529 
Q 2069 2156 2228 2338 
Q 2531 2678 2651 2914 
Q 2772 3150 2772 3378 
Q 2772 3750 2511 3984 
Q 2250 4219 1831 4219 
Q 1534 4219 1204 4116 
Q 875 4013 500 3803 
L 500 4441 
Q 881 4594 1212 4672 
Q 1544 4750 1819 4750 
Q 2544 4750 2975 4387 
Q 3406 4025 3406 3419 
Q 3406 3131 3298 2873 
Q 3191 2616 2906 2266 
Q 2828 2175 2409 1742 
Q 1991 1309 1228 531 
z
" transform="scale(0.015625)"/>
        <path id="DejaVuSans-30" d="M 2034 4250 
Q 1547 4250 1301 3770 
Q 1056 3291 1056 2328 
Q 1056 1369 1301 889 
Q 1547 409 2034 409 
Q 2525 409 2770 889 
Q 3016 1369 3016 2328 
Q 3016 3291 2770 3770 
Q 2525 4250 2034 4250 
z
M 2034 4750 
Q 2819 4750 3233 4129 
Q 3647 3509 3647 2328 
Q 3647 1150 3233 529 
Q 2819 -91 2034 -91 
Q 1250 -91 836 529 
Q 422 1150 422 2328 
Q 422 3509 836 4129 
Q 1250 4750 2034 4750 
z
" transform="scale(0.015625)"/>
        <path id="DejaVuSans-31" d="M 794 531 
L 1825 531 
L 1825 4091 
L 703 3866 
L 703 4441 
L 1819 4666 
L 2450 4666 
L 2450 531 
L 3481 531 
L 3481 0 
L 794 0 
L 794 531 
z
" transform="scale(0.015625)"/>
       </defs>
       <use xlink:href="#DejaVuSans-32"/>
       <use xlink:href="#DejaVuSans-30" x="63.623047"/>
       <use xlink:href="#DejaVuSans-31" x="127.246094"/>
       <use xlink:href="#DejaVuSans-31" x="190.869141"/>
      </g>
     </g>
    </g>
    <g id="xtick_2">
     <g id="line2d_2">
      <g>
       <use xlink:href="#m60ceed759b" x="450.984627" y="320.4" style="stroke: #000000; stroke-width: 0.8"/>
      </g>
     </g>
     <g id="text_2">
      <!-- 2012 -->
      <g transform="translate(431.897127 338.797656) scale(0.15 -0.15)">
       <use xlink:href="#DejaVuSans-32"/>
       <use xlink:href="#DejaVuSans-30" x="63.623047"/>
       <use xlink:href="#DejaVuSans-31" x="127.246094"/>
       <use xlink:href="#DejaVuSans-32" x="190.869141"/>
      </g>
     </g>
    </g>
    <g id="xtick_3">
     <g id="line2d_3">
      <g>
       <use xlink:href="#m60ceed759b" x="620.507836" y="320.4" style="stroke: #000000; stroke-width: 0.8"/>
      </g>
     </g>
     <g id="text_3">
      <!-- 2013 -->
      <g transform="translate(601.420336 338.797656) scale(0.15 -0.15)">
       <defs>
        <path id="DejaVuSans-33" d="M 2597 2516 
Q 3050 2419 3304 2112 
Q 3559 1806 3559 1356 
Q 3559 666 3084 287 
Q 2609 -91 1734 -91 
Q 1441 -91 1130 -33 
Q 819 25 488 141 
L 488 750 
Q 750 597 1062 519 
Q 1375 441 1716 441 
Q 2309 441 2620 675 
Q 2931 909 2931 1356 
Q 2931 1769 2642 2001 
Q 2353 2234 1838 2234 
L 1294 2234 
L 1294 2753 
L 1863 2753 
Q 2328 2753 2575 2939 
Q 2822 3125 2822 3475 
Q 2822 3834 2567 4026 
Q 2313 4219 1838 4219 
Q 1578 4219 1281 4162 
Q 984 4106 628 3988 
L 628 4550 
Q 988 4650 1302 4700 
Q 1616 4750 1894 4750 
Q 2613 4750 3031 4423 
Q 3450 4097 3450 3541 
Q 3450 3153 3228 2886 
Q 3006 2619 2597 2516 
z
" transform="scale(0.015625)"/>
       </defs>
       <use xlink:href="#DejaVuSans-32"/>
       <use xlink:href="#DejaVuSans-30" x="63.623047"/>
       <use xlink:href="#DejaVuSans-31" x="127.246094"/>
       <use xlink:href="#DejaVuSans-33" x="190.869141"/>
      </g>
     </g>
    </g>
    <g id="xtick_4">
     <g id="line2d_4">
      <g>
       <use xlink:href="#m60ceed759b" x="789.567866" y="320.4" style="stroke: #000000; stroke-width: 0.8"/>
      </g>
     </g>
     <g id="text_4">
      <!-- 2014 -->
      <g transform="translate(770.480366 338.797656) scale(0.15 -0.15)">
       <defs>
        <path id="DejaVuSans-34" d="M 2419 4116 
L 825 1625 
L 2419 1625 
L 2419 4116 
z
M 2253 4666 
L 3047 4666 
L 3047 1625 
L 3713 1625 
L 3713 1100 
L 3047 1100 
L 3047 0 
L 2419 0 
L 2419 1100 
L 313 1100 
L 313 1709 
L 2253 4666 
z
" transform="scale(0.015625)"/>
       </defs>
       <use xlink:href="#DejaVuSans-32"/>
       <use xlink:href="#DejaVuSans-30" x="63.623047"/>
       <use xlink:href="#DejaVuSans-31" x="127.246094"/>
       <use xlink:href="#DejaVuSans-34" x="190.869141"/>
      </g>
     </g>
    </g>
    <g id="xtick_5">
     <g id="line2d_5">
      <g>
       <use xlink:href="#m60ceed759b" x="958.627897" y="320.4" style="stroke: #000000; stroke-width: 0.8"/>
      </g>
     </g>
     <g id="text_5">
      <!-- 2015 -->
      <g transform="translate(939.540397 338.797656) scale(0.15 -0.15)">
       <defs>
        <path id="DejaVuSans-35" d="M 691 4666 
L 3169 4666 
L 3169 4134 
L 1269 4134 
L 1269 2991 
Q 1406 3038 1543 3061 
Q 1681 3084 1819 3084 
Q 2600 3084 3056 2656 
Q 3513 2228 3513 1497 
Q 3513 744 3044 326 
Q 2575 -91 1722 -91 
Q 1428 -91 1123 -41 
Q 819 9 494 109 
L 494 744 
Q 775 591 1075 516 
Q 1375 441 1709 441 
Q 2250 441 2565 725 
Q 2881 1009 2881 1497 
Q 2881 1984 2565 2268 
Q 2250 2553 1709 2553 
Q 1456 2553 1204 2497 
Q 953 2441 691 2322 
L 691 4666 
z
" transform="scale(0.015625)"/>
       </defs>
       <use xlink:href="#DejaVuSans-32"/>
       <use xlink:href="#DejaVuSans-30" x="63.623047"/>
       <use xlink:href="#DejaVuSans-31" x="127.246094"/>
       <use xlink:href="#DejaVuSans-35" x="190.869141"/>
      </g>
     </g>
    </g>
    <g id="xtick_6">
     <g id="line2d_6">
      <g>
       <use xlink:href="#m60ceed759b" x="1127.687927" y="320.4" style="stroke: #000000; stroke-width: 0.8"/>
      </g>
     </g>
     <g id="text_6">
      <!-- 2016 -->
      <g transform="translate(1108.600427 338.797656) scale(0.15 -0.15)">
       <defs>
        <path id="DejaVuSans-36" d="M 2113 2584 
Q 1688 2584 1439 2293 
Q 1191 2003 1191 1497 
Q 1191 994 1439 701 
Q 1688 409 2113 409 
Q 2538 409 2786 701 
Q 3034 994 3034 1497 
Q 3034 2003 2786 2293 
Q 2538 2584 2113 2584 
z
M 3366 4563 
L 3366 3988 
Q 3128 4100 2886 4159 
Q 2644 4219 2406 4219 
Q 1781 4219 1451 3797 
Q 1122 3375 1075 2522 
Q 1259 2794 1537 2939 
Q 1816 3084 2150 3084 
Q 2853 3084 3261 2657 
Q 3669 2231 3669 1497 
Q 3669 778 3244 343 
Q 2819 -91 2113 -91 
Q 1303 -91 875 529 
Q 447 1150 447 2328 
Q 447 3434 972 4092 
Q 1497 4750 2381 4750 
Q 2619 4750 2861 4703 
Q 3103 4656 3366 4563 
z
" transform="scale(0.015625)"/>
       </defs>
       <use xlink:href="#DejaVuSans-32"/>
       <use xlink:href="#DejaVuSans-30" x="63.623047"/>
       <use xlink:href="#DejaVuSans-31" x="127.246094"/>
       <use xlink:href="#DejaVuSans-36" x="190.869141"/>
      </g>
     </g>
    </g>
    <g id="xtick_7">
     <g id="line2d_7">
      <g>
       <use xlink:href="#m60ceed759b" x="1297.211136" y="320.4" style="stroke: #000000; stroke-width: 0.8"/>
      </g>
     </g>
     <g id="text_7">
      <!-- 2017 -->
      <g transform="translate(1278.123636 338.797656) scale(0.15 -0.15)">
       <defs>
        <path id="DejaVuSans-37" d="M 525 4666 
L 3525 4666 
L 3525 4397 
L 1831 0 
L 1172 0 
L 2766 4134 
L 525 4134 
L 525 4666 
z
" transform="scale(0.015625)"/>
       </defs>
       <use xlink:href="#DejaVuSans-32"/>
       <use xlink:href="#DejaVuSans-30" x="63.623047"/>
       <use xlink:href="#DejaVuSans-31" x="127.246094"/>
       <use xlink:href="#DejaVuSans-37" x="190.869141"/>
      </g>
     </g>
    </g>
    <g id="xtick_8">
     <g id="line2d_8">
      <g>
       <use xlink:href="#m60ceed759b" x="1466.271167" y="320.4" style="stroke: #000000; stroke-width: 0.8"/>
      </g>
     </g>
     <g id="text_8">
      <!-- 2018 -->
      <g transform="translate(1447.183667 338.797656) scale(0.15 -0.15)">
       <defs>
        <path id="DejaVuSans-38" d="M 2034 2216 
Q 1584 2216 1326 1975 
Q 1069 1734 1069 1313 
Q 1069 891 1326 650 
Q 1584 409 2034 409 
Q 2484 409 2743 651 
Q 3003 894 3003 1313 
Q 3003 1734 2745 1975 
Q 2488 2216 2034 2216 
z
M 1403 2484 
Q 997 2584 770 2862 
Q 544 3141 544 3541 
Q 544 4100 942 4425 
Q 1341 4750 2034 4750 
Q 2731 4750 3128 4425 
Q 3525 4100 3525 3541 
Q 3525 3141 3298 2862 
Q 3072 2584 2669 2484 
Q 3125 2378 3379 2068 
Q 3634 1759 3634 1313 
Q 3634 634 3220 271 
Q 2806 -91 2034 -91 
Q 1263 -91 848 271 
Q 434 634 434 1313 
Q 434 1759 690 2068 
Q 947 2378 1403 2484 
z
M 1172 3481 
Q 1172 3119 1398 2916 
Q 1625 2713 2034 2713 
Q 2441 2713 2670 2916 
Q 2900 3119 2900 3481 
Q 2900 3844 2670 4047 
Q 2441 4250 2034 4250 
Q 1625 4250 1398 4047 
Q 1172 3844 1172 3481 
z
" transform="scale(0.015625)"/>
       </defs>
       <use xlink:href="#DejaVuSans-32"/>
       <use xlink:href="#DejaVuSans-30" x="63.623047"/>
       <use xlink:href="#DejaVuSans-31" x="127.246094"/>
       <use xlink:href="#DejaVuSans-38" x="190.869141"/>
      </g>
     </g>
    </g>
    <g id="text_9">
     <!-- Time -->
     <g transform="translate(904.149609 357.314844) scale(0.15 -0.15)">
      <defs>
       <path id="DejaVuSans-54" d="M -19 4666 
L 3928 4666 
L 3928 4134 
L 2272 4134 
L 2272 0 
L 1638 0 
L 1638 4134 
L -19 4134 
L -19 4666 
z
" transform="scale(0.015625)"/>
       <path id="DejaVuSans-69" d="M 603 3500 
L 1178 3500 
L 1178 0 
L 603 0 
L 603 3500 
z
M 603 4863 
L 1178 4863 
L 1178 4134 
L 603 4134 
L 603 4863 
z
" transform="scale(0.015625)"/>
       <path id="DejaVuSans-6d" d="M 3328 2828 
Q 3544 3216 3844 3400 
Q 4144 3584 4550 3584 
Q 5097 3584 5394 3201 
Q 5691 2819 5691 2113 
L 5691 0 
L 5113 0 
L 5113 2094 
Q 5113 2597 4934 2840 
Q 4756 3084 4391 3084 
Q 3944 3084 3684 2787 
Q 3425 2491 3425 1978 
L 3425 0 
L 2847 0 
L 2847 2094 
Q 2847 2600 2669 2842 
Q 2491 3084 2119 3084 
Q 1678 3084 1418 2786 
Q 1159 2488 1159 1978 
L 1159 0 
L 581 0 
L 581 3500 
L 1159 3500 
L 1159 2956 
Q 1356 3278 1631 3431 
Q 1906 3584 2284 3584 
Q 2666 3584 2933 3390 
Q 3200 3197 3328 2828 
z
" transform="scale(0.015625)"/>
       <path id="DejaVuSans-65" d="M 3597 1894 
L 3597 1613 
L 953 1613 
Q 991 1019 1311 708 
Q 1631 397 2203 397 
Q 2534 397 2845 478 
Q 3156 559 3463 722 
L 3463 178 
Q 3153 47 2828 -22 
Q 2503 -91 2169 -91 
Q 1331 -91 842 396 
Q 353 884 353 1716 
Q 353 2575 817 3079 
Q 1281 3584 2069 3584 
Q 2775 3584 3186 3129 
Q 3597 2675 3597 1894 
z
M 3022 2063 
Q 3016 2534 2758 2815 
Q 2500 3097 2075 3097 
Q 1594 3097 1305 2825 
Q 1016 2553 972 2059 
L 3022 2063 
z
" transform="scale(0.015625)"/>
      </defs>
      <use xlink:href="#DejaVuSans-54"/>
      <use xlink:href="#DejaVuSans-69" x="57.958984"/>
      <use xlink:href="#DejaVuSans-6d" x="85.742188"/>
      <use xlink:href="#DejaVuSans-65" x="183.154297"/>
     </g>
    </g>
   </g>
   <g id="matplotlib.axis_2">
    <g id="ytick_1">
     <g id="line2d_9">
      <defs>
       <path id="mfbd5efa6cd" d="M 0 0 
L -3.5 0 
" style="stroke: #000000; stroke-width: 0.8"/>
      </defs>
      <g>
       <use xlink:href="#mfbd5efa6cd" x="225" y="311.947565" style="stroke: #000000; stroke-width: 0.8"/>
      </g>
     </g>
     <g id="text_10">
      <!-- −0.015 -->
      <g transform="translate(162.488281 317.646393) scale(0.15 -0.15)">
       <defs>
        <path id="DejaVuSans-2212" d="M 678 2272 
L 4684 2272 
L 4684 1741 
L 678 1741 
L 678 2272 
z
" transform="scale(0.015625)"/>
        <path id="DejaVuSans-2e" d="M 684 794 
L 1344 794 
L 1344 0 
L 684 0 
L 684 794 
z
" transform="scale(0.015625)"/>
       </defs>
       <use xlink:href="#DejaVuSans-2212"/>
       <use xlink:href="#DejaVuSans-30" x="83.789062"/>
       <use xlink:href="#DejaVuSans-2e" x="147.412109"/>
       <use xlink:href="#DejaVuSans-30" x="179.199219"/>
       <use xlink:href="#DejaVuSans-31" x="242.822266"/>
       <use xlink:href="#DejaVuSans-35" x="306.445312"/>
      </g>
     </g>
    </g>
    <g id="ytick_2">
     <g id="line2d_10">
      <g>
       <use xlink:href="#mfbd5efa6cd" x="225" y="262.057149" style="stroke: #000000; stroke-width: 0.8"/>
      </g>
     </g>
     <g id="text_11">
      <!-- −0.010 -->
      <g transform="translate(162.488281 267.755977) scale(0.15 -0.15)">
       <use xlink:href="#DejaVuSans-2212"/>
       <use xlink:href="#DejaVuSans-30" x="83.789062"/>
       <use xlink:href="#DejaVuSans-2e" x="147.412109"/>
       <use xlink:href="#DejaVuSans-30" x="179.199219"/>
       <use xlink:href="#DejaVuSans-31" x="242.822266"/>
       <use xlink:href="#DejaVuSans-30" x="306.445312"/>
      </g>
     </g>
    </g>
    <g id="ytick_3">
     <g id="line2d_11">
      <g>
       <use xlink:href="#mfbd5efa6cd" x="225" y="212.166733" style="stroke: #000000; stroke-width: 0.8"/>
      </g>
     </g>
     <g id="text_12">
      <!-- −0.005 -->
      <g transform="translate(162.488281 217.865561) scale(0.15 -0.15)">
       <use xlink:href="#DejaVuSans-2212"/>
       <use xlink:href="#DejaVuSans-30" x="83.789062"/>
       <use xlink:href="#DejaVuSans-2e" x="147.412109"/>
       <use xlink:href="#DejaVuSans-30" x="179.199219"/>
       <use xlink:href="#DejaVuSans-30" x="242.822266"/>
       <use xlink:href="#DejaVuSans-35" x="306.445312"/>
      </g>
     </g>
    </g>
    <g id="ytick_4">
     <g id="line2d_12">
      <g>
       <use xlink:href="#mfbd5efa6cd" x="225" y="162.276317" style="stroke: #000000; stroke-width: 0.8"/>
      </g>
     </g>
     <g id="text_13">
      <!-- 0.000 -->
      <g transform="translate(175.057813 167.975146) scale(0.15 -0.15)">
       <use xlink:href="#DejaVuSans-30"/>
       <use xlink:href="#DejaVuSans-2e" x="63.623047"/>
       <use xlink:href="#DejaVuSans-30" x="95.410156"/>
       <use xlink:href="#DejaVuSans-30" x="159.033203"/>
       <use xlink:href="#DejaVuSans-30" x="222.65625"/>
      </g>
     </g>
    </g>
    <g id="ytick_5">
     <g id="line2d_13">
      <g>
       <use xlink:href="#mfbd5efa6cd" x="225" y="112.385902" style="stroke: #000000; stroke-width: 0.8"/>
      </g>
     </g>
     <g id="text_14">
      <!-- 0.005 -->
      <g transform="translate(175.057813 118.08473) scale(0.15 -0.15)">
       <use xlink:href="#DejaVuSans-30"/>
       <use xlink:href="#DejaVuSans-2e" x="63.623047"/>
       <use xlink:href="#DejaVuSans-30" x="95.410156"/>
       <use xlink:href="#DejaVuSans-30" x="159.033203"/>
       <use xlink:href="#DejaVuSans-35" x="222.65625"/>
      </g>
     </g>
    </g>
    <g id="ytick_6">
     <g id="line2d_14">
      <g>
       <use xlink:href="#mfbd5efa6cd" x="225" y="62.495486" style="stroke: #000000; stroke-width: 0.8"/>
      </g>
     </g>
     <g id="text_15">
      <!-- 0.010 -->
      <g transform="translate(175.057813 68.194314) scale(0.15 -0.15)">
       <use xlink:href="#DejaVuSans-30"/>
       <use xlink:href="#DejaVuSans-2e" x="63.623047"/>
       <use xlink:href="#DejaVuSans-30" x="95.410156"/>
       <use xlink:href="#DejaVuSans-31" x="159.033203"/>
       <use xlink:href="#DejaVuSans-30" x="222.65625"/>
      </g>
     </g>
    </g>
    <g id="text_16">
     <!-- North(m) -->
     <g transform="translate(155.36875 215.934375) rotate(-90) scale(0.15 -0.15)">
      <defs>
       <path id="DejaVuSans-4e" d="M 628 4666 
L 1478 4666 
L 3547 763 
L 3547 4666 
L 4159 4666 
L 4159 0 
L 3309 0 
L 1241 3903 
L 1241 0 
L 628 0 
L 628 4666 
z
" transform="scale(0.015625)"/>
       <path id="DejaVuSans-6f" d="M 1959 3097 
Q 1497 3097 1228 2736 
Q 959 2375 959 1747 
Q 959 1119 1226 758 
Q 1494 397 1959 397 
Q 2419 397 2687 759 
Q 2956 1122 2956 1747 
Q 2956 2369 2687 2733 
Q 2419 3097 1959 3097 
z
M 1959 3584 
Q 2709 3584 3137 3096 
Q 3566 2609 3566 1747 
Q 3566 888 3137 398 
Q 2709 -91 1959 -91 
Q 1206 -91 779 398 
Q 353 888 353 1747 
Q 353 2609 779 3096 
Q 1206 3584 1959 3584 
z
" transform="scale(0.015625)"/>
       <path id="DejaVuSans-72" d="M 2631 2963 
Q 2534 3019 2420 3045 
Q 2306 3072 2169 3072 
Q 1681 3072 1420 2755 
Q 1159 2438 1159 1844 
L 1159 0 
L 581 0 
L 581 3500 
L 1159 3500 
L 1159 2956 
Q 1341 3275 1631 3429 
Q 1922 3584 2338 3584 
Q 2397 3584 2469 3576 
Q 2541 3569 2628 3553 
L 2631 2963 
z
" transform="scale(0.015625)"/>
       <path id="DejaVuSans-74" d="M 1172 4494 
L 1172 3500 
L 2356 3500 
L 2356 3053 
L 1172 3053 
L 1172 1153 
Q 1172 725 1289 603 
Q 1406 481 1766 481 
L 2356 481 
L 2356 0 
L 1766 0 
Q 1100 0 847 248 
Q 594 497 594 1153 
L 594 3053 
L 172 3053 
L 172 3500 
L 594 3500 
L 594 4494 
L 1172 4494 
z
" transform="scale(0.015625)"/>
       <path id="DejaVuSans-68" d="M 3513 2113 
L 3513 0 
L 2938 0 
L 2938 2094 
Q 2938 2591 2744 2837 
Q 2550 3084 2163 3084 
Q 1697 3084 1428 2787 
Q 1159 2491 1159 1978 
L 1159 0 
L 581 0 
L 581 4863 
L 1159 4863 
L 1159 2956 
Q 1366 3272 1645 3428 
Q 1925 3584 2291 3584 
Q 2894 3584 3203 3211 
Q 3513 2838 3513 2113 
z
" transform="scale(0.015625)"/>
       <path id="DejaVuSans-28" d="M 1984 4856 
Q 1566 4138 1362 3434 
Q 1159 2731 1159 2009 
Q 1159 1288 1364 580 
Q 1569 -128 1984 -844 
L 1484 -844 
Q 1016 -109 783 600 
Q 550 1309 550 2009 
Q 550 2706 781 3412 
Q 1013 4119 1484 4856 
L 1984 4856 
z
" transform="scale(0.015625)"/>
       <path id="DejaVuSans-29" d="M 513 4856 
L 1013 4856 
Q 1481 4119 1714 3412 
Q 1947 2706 1947 2009 
Q 1947 1309 1714 600 
Q 1481 -109 1013 -844 
L 513 -844 
Q 928 -128 1133 580 
Q 1338 1288 1338 2009 
Q 1338 2731 1133 3434 
Q 928 4138 513 4856 
z
" transform="scale(0.015625)"/>
      </defs>
      <use xlink:href="#DejaVuSans-4e"/>
      <use xlink:href="#DejaVuSans-6f" x="74.804688"/>
      <use xlink:href="#DejaVuSans-72" x="135.986328"/>
      <use xlink:href="#DejaVuSans-74" x="177.099609"/>
      <use xlink:href="#DejaVuSans-68" x="216.308594"/>
      <use xlink:href="#DejaVuSans-28" x="279.6875"/>
      <use xlink:href="#DejaVuSans-6d" x="318.701172"/>
      <use xlink:href="#DejaVuSans-29" x="416.113281"/>
     </g>
    </g>
   </g>
   <g id="line2d_15">
    <path d="M 288.409091 108.380772 
L 288.872269 106.196082 
L 289.335447 106.988187 
L 289.798625 107.25478 
L 290.261804 105.998052 
L 290.724982 106.417641 
L 291.18816 104.322754 
L 292.114516 102.370517 
L 292.577694 102.690837 
L 293.040873 101.638457 
L 293.504051 102.03575 
L 293.967229 101.411003 
L 294.430407 102.64503 
L 294.893585 105.385747 
L 295.356763 107.311113 
L 295.819942 106.791848 
L 296.28312 109.083551 
L 296.746298 110.220648 
L 297.209476 109.98077 
L 297.672654 112.534754 
L 298.135832 107.888839 
L 298.599011 105.697533 
L 299.062189 106.094826 
L 299.525367 108.149906 
L 299.988545 103.97011 
L 300.451723 103.305451 
L 300.914901 97.821377 
L 301.37808 101.233476 
L 338.895511 100.366404 
L 339.358689 99.680363 
L 339.821867 97.68149 
L 340.285045 102.59743 
L 340.748224 104.622576 
L 341.211402 110.363846 
L 341.67458 110.173858 
L 342.137758 112.981571 
L 342.600936 114.552001 
L 343.064114 111.590957 
L 343.527293 111.038907 
L 343.990471 108.817666 
L 344.453649 110.492154 
L 344.916827 109.934402 
L 345.843183 110.358374 
L 346.306362 109.536916 
L 346.76954 111.707457 
L 347.232718 113.242252 
L 347.695896 113.883296 
L 348.159074 116.699561 
L 348.622252 115.57591 
L 349.085431 117.187678 
L 349.548609 120.33037 
L 350.011787 117.015816 
L 350.474965 118.989647 
L 350.938143 117.434086 
L 351.401321 116.686751 
L 351.8645 117.557291 
L 352.327678 110.957097 
L 352.790856 108.581908 
L 353.254034 110.280629 
L 353.717212 108.937459 
L 354.18039 103.732772 
L 354.643569 100.740367 
L 355.106747 99.944567 
L 355.569925 103.218399 
L 356.033103 103.587184 
L 356.496281 99.274822 
L 356.959459 97.468384 
L 357.422638 103.303733 
L 357.885816 104.32822 
L 358.348994 104.079789 
L 358.812172 105.205482 
L 359.27535 109.14642 
L 359.738528 117.771356 
L 360.201707 122.178413 
L 360.664885 119.82033 
L 361.128063 123.212474 
L 361.591241 124.5249 
L 362.054419 123.321423 
L 362.517597 119.674742 
L 362.980776 112.193626 
L 363.443954 106.812184 
L 363.907132 105.19818 
L 364.37031 107.194818 
L 364.833488 113.986637 
L 365.759845 120.678271 
L 366.223023 124.644867 
L 366.686201 130.756751 
L 367.149379 134.111833 
L 367.612557 132.425133 
L 368.075735 125.980312 
L 368.538914 126.913571 
L 369.002092 129.370625 
L 369.46527 121.909465 
L 369.928448 118.820131 
L 370.391626 118.691437 
L 370.854804 119.101559 
L 371.317983 121.488767 
L 371.781161 121.293078 
L 372.244339 117.138939 
L 372.707517 124.910036 
L 373.170695 127.479701 
L 373.633873 127.899801 
L 374.56023 124.983966 
L 375.023408 122.906695 
L 375.486586 121.630521 
L 375.949764 121.487572 
L 376.412942 118.192975 
L 376.876121 116.559016 
L 377.339299 113.425493 
L 377.802477 112.089451 
L 378.265655 112.63784 
L 379.192011 115.633307 
L 380.118368 122.129656 
L 380.581546 127.658534 
L 381.044724 131.740591 
L 381.507902 133.848413 
L 381.97108 133.748228 
L 382.434259 133.857582 
L 382.897437 132.548623 
L 383.823793 121.864138 
L 384.286971 119.346405 
L 384.750149 115.949176 
L 385.213328 116.615878 
L 385.676506 114.463058 
L 386.139684 116.734805 
L 386.602862 121.653596 
L 387.06604 124.622384 
L 387.529218 124.954107 
L 387.992397 129.767414 
L 388.918753 124.049164 
L 389.381931 119.635595 
L 389.845109 121.248789 
L 390.308287 119.804414 
L 390.771466 119.335039 
L 391.234644 114.797458 
L 391.697822 115.911747 
L 392.624178 124.827068 
L 393.087356 123.666355 
L 393.550535 124.997312 
L 394.013713 127.229147 
L 394.940069 129.46913 
L 395.403247 128.931335 
L 395.866425 126.941015 
L 396.329604 125.904315 
L 396.792782 127.278035 
L 397.25596 128.118641 
L 397.719138 129.73326 
L 398.182316 130.201825 
L 398.645494 134.848357 
L 399.108673 138.261882 
L 399.571851 138.090424 
L 400.035029 139.760636 
L 400.498207 140.348938 
L 400.961385 139.565967 
L 401.424563 145.469737 
L 401.887742 146.375912 
L 402.814098 149.274449 
L 403.277276 143.96998 
L 403.740454 141.547752 
L 404.203632 141.976405 
L 404.666811 139.283344 
L 405.129989 134.842692 
L 406.056345 129.969727 
L 406.519523 134.238517 
L 406.982701 135.215965 
L 407.44588 135.031678 
L 407.909058 134.673488 
L 408.835414 131.623662 
L 409.298592 134.512625 
L 409.76177 132.234366 
L 410.224949 134.396355 
L 410.688127 137.125669 
L 411.151305 128.166371 
L 411.614483 127.822435 
L 412.077661 125.81216 
L 412.540839 111.812504 
L 413.004018 111.174928 
L 413.467196 115.728806 
L 413.930374 111.506246 
L 414.393552 119.479756 
L 414.85673 119.577706 
L 415.319908 121.822371 
L 415.783087 133.415073 
L 416.246265 135.073881 
L 416.709443 125.416118 
L 417.172621 125.903214 
L 417.635799 122.473199 
L 418.562156 120.885875 
L 419.025334 119.659591 
L 419.488512 116.848218 
L 419.95169 115.448031 
L 420.414868 114.819007 
L 420.878046 116.504899 
L 421.341225 115.984208 
L 421.804403 115.214066 
L 422.267581 115.011249 
L 422.730759 115.238915 
L 423.193937 118.246189 
L 423.657115 119.575721 
L 424.120294 119.459856 
L 424.583472 123.705838 
L 425.04665 122.972757 
L 425.509828 123.592419 
L 425.973006 124.532805 
L 426.899363 120.375412 
L 427.362541 121.023582 
L 427.825719 117.372625 
L 428.288897 117.792725 
L 428.752075 116.912824 
L 429.215253 113.678095 
L 429.678432 111.837447 
L 430.14161 113.087153 
L 430.604788 111.225123 
L 431.067966 110.96814 
L 431.531144 109.3185 
L 431.994322 108.374454 
L 432.920679 111.140425 
L 433.383857 110.140786 
L 433.847035 108.130511 
L 434.310213 106.733175 
L 434.773391 108.538803 
L 435.236569 112.466912 
L 435.699748 112.398087 
L 436.162926 114.684088 
L 436.626104 114.233245 
L 437.089282 118.206968 
L 437.55246 119.173012 
L 438.015638 119.761314 
L 438.478817 113.275156 
L 438.941995 118.307981 
L 439.405173 121.678743 
L 439.868351 120.24292 
L 440.331529 116.067401 
L 440.794707 114.175437 
L 441.257886 112.907815 
L 441.721064 116.583622 
L 442.184242 112.103058 
L 442.64742 113.458247 
L 443.110598 118.670678 
L 443.573776 120.326635 
L 444.036955 117.609341 
L 449.131914 116.772203 
L 450.058271 117.323444 
L 450.521449 114.398036 
L 451.910983 95.626622 
L 452.374162 94.72819 
L 452.83734 93.48195 
L 453.300518 86.887458 
L 453.763696 87.824993 
L 454.226874 87.510992 
L 454.690052 73.132169 
L 455.153231 74.454574 
L 455.616409 74.308774 
L 456.079587 70.971413 
L 456.542765 87.637259 
L 457.005943 88.084442 
L 457.469121 82.16846 
L 457.9323 93.047017 
L 458.395478 89.973362 
L 458.858656 88.595982 
L 459.321834 89.114438 
L 459.785012 79.068955 
L 460.24819 80.732039 
L 460.711369 90.654125 
L 461.174547 83.957002 
L 461.637725 88.177326 
L 462.100903 85.830647 
L 462.564081 86.53441 
L 463.953616 62.317813 
L 464.416794 70.090336 
L 464.879972 71.006489 
L 465.34315 76.726377 
L 465.806328 75.528603 
L 466.269507 77.163178 
L 466.732685 76.750821 
L 467.659041 74.895514 
L 468.122219 74.617149 
L 468.585397 72.956106 
L 469.048576 73.913597 
L 469.511754 74.146965 
L 469.974932 74.970465 
L 470.43811 74.942977 
L 470.901288 75.87481 
L 471.364466 78.041075 
L 472.290823 71.927977 
L 472.754001 72.683056 
L 473.680357 82.983905 
L 474.143535 85.249951 
L 474.606714 86.850316 
L 475.53307 99.514545 
L 475.996248 103.558115 
L 476.459426 94.824037 
L 476.922604 91.646325 
L 477.385783 89.675962 
L 477.848961 90.891458 
L 478.312139 95.214415 
L 478.775317 96.079252 
L 479.238495 100.98949 
L 479.701673 113.190856 
L 480.164852 121.966888 
L 480.62803 128.403772 
L 481.091208 129.519488 
L 481.554386 128.993096 
L 482.017564 128.158808 
L 482.480742 126.097217 
L 483.870277 116.890509 
L 484.333455 112.940209 
L 484.796633 111.870724 
L 485.259811 115.188744 
L 485.72299 117.701391 
L 486.186168 125.158891 
L 487.112524 132.109955 
L 487.575702 133.51646 
L 488.03888 131.634474 
L 488.502059 129.056873 
L 488.965237 125.403065 
L 489.428415 118.96252 
L 489.891593 114.099938 
L 490.354771 111.823105 
L 491.281128 115.857718 
L 491.744306 120.57267 
L 492.207484 111.944075 
L 492.670662 109.265267 
L 494.060197 120.517906 
L 494.523375 121.43406 
L 494.986553 120.403062 
L 495.449731 130.584578 
L 495.912909 135.008741 
L 496.376087 131.387717 
L 496.839266 126.709017 
L 497.302444 124.332403 
L 497.765622 124.025529 
L 498.2288 120.260536 
L 498.691978 120.562325 
L 499.155156 118.898431 
L 499.618335 117.686402 
L 500.081513 117.542028 
L 500.544691 117.614321 
L 501.471047 122.350251 
L 501.934225 120.92298 
L 502.397404 121.110734 
L 502.860582 126.179195 
L 503.786938 123.738032 
L 504.250116 121.777647 
L 504.713294 118.859366 
L 505.176473 117.573214 
L 505.639651 119.065245 
L 506.102829 114.192685 
L 506.566007 118.296124 
L 507.029185 118.70197 
L 507.492363 120.564616 
L 507.955542 124.526936 
L 508.41872 126.23991 
L 508.881898 127.097621 
L 509.345076 131.630117 
L 509.808254 129.742429 
L 510.271432 132.456063 
L 510.734611 132.479891 
L 511.197789 132.352622 
L 511.660967 135.141805 
L 512.124145 134.221991 
L 512.587323 134.044832 
L 513.050501 135.216139 
L 513.51368 135.115954 
L 513.976858 125.465317 
L 514.440036 125.668751 
L 514.903214 121.520314 
L 515.366392 120.911247 
L 515.82957 121.679155 
L 516.292749 120.536972 
L 516.755927 118.776149 
L 517.219105 126.293517 
L 517.682283 125.859778 
L 518.145461 130.891179 
L 518.608639 132.976193 
L 519.534996 130.00049 
L 520.461352 137.709888 
L 520.92453 136.436565 
L 521.387708 123.168161 
L 521.850887 125.197584 
L 522.314065 128.612534 
L 522.777243 135.0708 
L 523.240421 134.354825 
L 523.703599 135.554641 
L 524.166777 141.496898 
L 524.629956 159.12349 
L 525.093134 160.357516 
L 525.556312 157.557547 
L 526.01949 156.57929 
L 526.482668 153.542697 
L 527.409025 140.883977 
L 527.872203 132.372267 
L 528.335381 129.057714 
L 528.798559 130.065095 
L 529.724915 133.446856 
L 530.188093 137.806874 
L 531.11445 145.062982 
L 532.040806 147.599457 
L 532.503984 139.615161 
L 532.967162 139.041729 
L 533.430341 139.73979 
L 533.893519 141.337304 
L 534.356697 139.689091 
L 534.819875 140.360068 
L 535.283053 143.280391 
L 535.746231 151.878243 
L 536.20941 155.789247 
L 536.672588 156.867901 
L 537.135766 155.667276 
L 537.598944 156.915557 
L 538.062122 152.560432 
L 538.5253 151.173074 
L 538.988479 148.254793 
L 539.914835 137.866799 
L 540.841191 131.323218 
L 541.304369 140.380062 
L 541.767548 137.012767 
L 542.230726 132.13308 
L 542.693904 130.406467 
L 543.157082 129.766039 
L 543.62026 132.915858 
L 544.083438 138.739803 
L 544.546617 133.091804 
L 545.009795 133.263877 
L 546.399329 147.270467 
L 546.862507 148.096818 
L 547.325686 144.819325 
L 547.788864 144.44403 
L 548.252042 149.419838 
L 549.178398 152.227147 
L 549.641576 156.08826 
L 550.104755 163.341922 
L 550.567933 162.529016 
L 551.031111 160.932118 
L 551.494289 156.445853 
L 551.957467 160.9812 
L 552.420645 164.219396 
L 552.883824 159.048919 
L 553.347002 150.256397 
L 553.81018 149.443492 
L 554.273358 152.070174 
L 554.736536 151.377005 
L 555.199714 150.050941 
L 555.662893 148.317201 
L 556.589249 152.199291 
L 557.052427 152.552396 
L 557.515605 155.352982 
L 557.978783 158.917604 
L 558.90514 157.033788 
L 559.368318 157.051914 
L 559.831496 159.473333 
L 560.294674 165.783353 
L 560.757852 168.210473 
L 561.684209 156.843202 
L 562.147387 158.005957 
L 562.610565 158.446013 
L 563.073743 156.120715 
L 563.536921 151.09991 
L 564.0001 138.595541 
L 564.463278 140.012024 
L 564.926456 140.362278 
L 565.389634 138.551564 
L 565.852812 139.42638 
L 566.31599 140.805802 
L 566.779169 140.041361 
L 567.242347 147.993489 
L 568.168703 156.062098 
L 568.631881 157.646783 
L 569.095059 157.546598 
L 569.558238 151.689058 
L 570.021416 150.626701 
L 570.484594 152.182877 
L 570.947772 154.460326 
L 571.41095 155.342269 
L 571.874128 156.664673 
L 572.337307 153.893213 
L 572.800485 155.674609 
L 573.263663 160.349649 
L 573.726841 159.580932 
L 574.190019 157.16298 
L 574.653197 156.250294 
L 575.116376 154.823023 
L 576.042732 171.619604 
L 576.50591 167.294413 
L 576.969088 169.055853 
L 577.432266 166.471125 
L 577.895445 164.550652 
L 578.358623 160.25397 
L 578.821801 152.996648 
L 579.284979 143.0652 
L 579.748157 142.592974 
L 580.211335 137.968441 
L 580.674514 145.286248 
L 581.137692 141.60393 
L 582.064048 128.980846 
L 582.527226 131.125729 
L 582.990404 131.625654 
L 583.453583 130.854086 
L 583.916761 124.500494 
L 584.379939 127.862703 
L 584.843117 137.777662 
L 585.306295 139.194145 
L 585.769473 138.714793 
L 586.232652 138.765704 
L 586.69583 137.801702 
L 587.159008 135.362369 
L 587.622186 134.78181 
L 588.085364 131.839296 
L 588.548542 135.401067 
L 589.011721 133.54759 
L 589.474899 133.752449 
L 589.938077 134.553142 
L 590.864433 131.105617 
L 591.79079 122.787363 
L 592.253968 123.590907 
L 592.717146 121.841487 
L 593.180324 118.149192 
L 593.643502 122.506358 
L 594.10668 121.45683 
L 594.569859 123.851165 
L 595.959393 120.43398 
L 596.422571 122.298051 
L 596.885749 123.346771 
L 597.348928 119.292414 
L 597.812106 113.084216 
L 598.275284 110.924269 
L 598.738462 106.014647 
L 599.20164 108.217974 
L 599.664818 101.945631 
L 600.127997 97.460791 
L 600.591175 101.748111 
L 601.054353 101.884549 
L 601.517531 101.208485 
L 601.980709 103.535825 
L 602.443887 103.894632 
L 603.370244 103.085598 
L 603.833422 101.337603 
L 604.2966 100.367899 
L 604.759778 104.746447 
L 605.222956 107.368853 
L 605.686135 105.187525 
L 606.149313 106.430104 
L 606.612491 105.094062 
L 607.075669 106.93105 
L 607.538847 105.68481 
L 608.002025 100.517184 
L 608.465204 97.722916 
L 608.928382 99.214948 
L 609.39156 96.550395 
L 609.854738 95.034747 
L 610.317916 95.027215 
L 610.781094 94.841504 
L 611.244273 91.747893 
L 611.707451 86.441999 
L 612.170629 84.334794 
L 612.633807 88.118934 
L 613.096985 86.543417 
L 613.560163 82.178314 
L 614.949698 84.160697 
L 615.412876 88.604816 
L 615.876054 95.75442 
L 616.339232 111.905682 
L 616.802411 111.536088 
L 617.265589 124.448748 
L 617.728767 131.050984 
L 618.655123 135.689983 
L 619.118301 134.619073 
L 619.58148 119.451982 
L 620.044658 121.956076 
L 620.507836 114.010267 
L 620.971014 111.794728 
L 621.434192 112.670969 
L 621.89737 93.133477 
L 623.286905 79.464411 
L 623.750083 83.064815 
L 624.213261 84.19208 
L 624.676439 81.502015 
L 625.139618 78.123462 
L 625.602796 94.388905 
L 626.529152 114.491082 
L 626.99233 111.902078 
L 627.918686 112.793594 
L 628.381865 108.662263 
L 628.845043 107.286308 
L 629.308221 106.691495 
L 630.234577 103.296712 
L 630.697755 103.065386 
L 631.160934 103.542504 
L 631.624112 107.081468 
L 632.08729 109.133698 
L 632.550468 105.853355 
L 633.013646 106.299113 
L 633.476824 107.349258 
L 633.940003 111.072104 
L 634.866359 121.080738 
L 635.329537 121.773097 
L 635.792715 124.714802 
L 636.255893 119.763842 
L 636.719072 119.459819 
L 637.18225 111.657979 
L 637.645428 106.296493 
L 638.108606 102.460228 
L 638.571784 100.70083 
L 639.034962 102.693191 
L 639.498141 107.905622 
L 639.961319 107.62298 
L 640.424497 112.692867 
L 640.887675 115.19126 
L 641.350853 119.166409 
L 641.814031 124.531362 
L 642.27721 127.059689 
L 642.740388 127.600951 
L 643.666744 117.798814 
L 644.129922 114.345992 
L 644.5931 114.150302 
L 645.056279 113.615357 
L 645.519457 113.489514 
L 645.982635 113.936698 
L 647.372169 129.237587 
L 647.835348 128.232247 
L 648.298526 128.572523 
L 648.761704 128.051832 
L 649.224882 129.200333 
L 649.68806 131.360896 
L 650.151238 132.793059 
L 650.614417 133.160418 
L 652.003951 140.587174 
L 652.467129 141.128437 
L 652.930307 142.949746 
L 653.393486 142.882345 
L 653.856664 143.132818 
L 655.246198 137.519645 
L 655.709376 130.474714 
L 656.172555 115.756637 
L 656.635733 115.994281 
L 657.098911 112.242117 
L 657.562089 110.410021 
L 658.025267 109.541523 
L 658.488445 106.416553 
L 658.951624 109.812973 
L 659.414802 121.418505 
L 659.87798 121.400995 
L 660.341158 124.317042 
L 660.804336 124.855453 
L 661.267514 123.485201 
L 661.730693 126.654976 
L 662.193871 127.555449 
L 662.657049 127.040461 
L 663.120227 124.951786 
L 663.583405 124.056205 
L 664.509762 126.701013 
L 664.97294 127.49743 
L 665.436118 126.423668 
L 665.899296 129.38818 
L 666.362474 130.241614 
L 666.825652 131.943185 
L 667.288831 135.321075 
L 667.752009 134.854551 
L 668.215187 130.908527 
L 669.604721 138.703047 
L 670.0679 140.21361 
L 670.531078 138.120658 
L 670.994256 137.369047 
L 671.457434 138.878183 
L 671.920612 137.574926 
L 672.38379 133.58899 
L 672.846969 132.384088 
L 673.310147 129.049579 
L 673.773325 130.032728 
L 674.236503 132.293072 
L 674.699681 131.916351 
L 675.162859 134.021322 
L 675.626038 133.184184 
L 676.089216 133.297814 
L 676.552394 135.160461 
L 677.015572 134.719595 
L 677.941928 140.480416 
L 678.405107 139.807203 
L 679.331463 142.687209 
L 679.794641 144.424417 
L 680.257819 143.882345 
L 680.720997 140.4338 
L 681.184176 140.04425 
L 681.647354 140.306126 
L 682.110532 141.852325 
L 682.57371 142.322315 
L 683.036888 143.934084 
L 683.500066 143.541683 
L 683.963245 142.822857 
L 684.426423 145.255679 
L 684.889601 145.332248 
L 685.352779 144.556404 
L 686.279135 141.436731 
L 686.742314 146.897189 
L 687.205492 147.6765 
L 687.66867 140.176853 
L 688.595026 144.020457 
L 689.058204 145.670712 
L 689.521383 148.843338 
L 689.984561 143.209593 
L 690.447739 132.430008 
L 690.910917 136.147152 
L 691.837273 139.06707 
L 692.300452 139.307565 
L 692.76363 141.147404 
L 693.226808 147.554354 
L 693.689986 161.089932 
L 694.153164 163.099398 
L 694.616342 160.839671 
L 695.079521 159.567773 
L 695.542699 161.400485 
L 696.005877 161.15633 
L 696.469055 161.128842 
L 696.932233 163.72559 
L 697.85859 174.747712 
L 698.321768 180.198192 
L 698.784946 179.325417 
L 699.248124 175.273911 
L 699.711302 176.666162 
L 700.17448 175.456984 
L 700.637659 172.838045 
L 701.564015 164.675164 
L 702.027193 164.626294 
L 702.490371 165.9544 
L 702.953549 162.672632 
L 703.416728 163.058521 
L 703.879906 164.416561 
L 704.343084 167.154428 
L 704.806262 167.235273 
L 705.26944 170.235421 
L 705.732618 171.145873 
L 706.658975 177.263054 
L 707.122153 181.236777 
L 708.048509 185.867224 
L 708.511687 185.624495 
L 708.974866 190.663022 
L 709.438044 189.976981 
L 709.901222 190.02219 
L 710.3644 188.881433 
L 710.827578 186.731464 
L 711.753935 191.860815 
L 712.217113 189.159201 
L 712.680291 191.982594 
L 713.143469 193.925065 
L 713.606647 192.442202 
L 714.069825 195.348271 
L 714.533004 195.434818 
L 714.996182 197.353056 
L 715.45936 200.518555 
L 715.922538 200.481089 
L 716.385716 197.291974 
L 717.312073 211.394473 
L 717.775251 211.312818 
L 718.701607 202.853445 
L 719.164785 205.433088 
L 719.627963 210.699686 
L 720.091142 208.896099 
L 720.55432 200.327372 
L 721.017498 199.909313 
L 721.480676 206.196526 
L 721.943854 210.009175 
L 722.407032 206.636178 
L 723.333389 198.135467 
L 724.259745 201.805167 
L 724.722923 200.108489 
L 725.186101 199.653369 
L 725.64928 201.555927 
L 726.112458 204.708597 
L 726.575636 203.612028 
L 727.038814 203.262391 
L 727.501992 202.382489 
L 727.96517 199.103572 
L 728.891527 194.216353 
L 729.354705 190.599606 
L 729.817883 192.177164 
L 730.281061 192.009983 
L 730.744239 190.57701 
L 731.207417 191.976388 
L 731.670596 196.032787 
L 732.133774 197.154204 
L 732.596952 196.867286 
L 733.06013 200.786843 
L 733.523308 198.960449 
L 733.986486 200.751823 
L 734.449665 200.366549 
L 734.912843 201.398164 
L 735.376021 201.327913 
L 735.839199 203.313147 
L 736.302377 203.110329 
L 736.765555 205.179664 
L 737.228734 204.295487 
L 737.691912 205.233022 
L 738.15509 199.686228 
L 738.618268 200.848983 
L 739.081446 199.130923 
L 739.544624 194.514942 
L 740.007803 191.776266 
L 740.470981 186.858092 
L 740.934159 186.361634 
L 741.397337 188.579215 
L 741.860515 183.321786 
L 742.323693 182.638596 
L 742.786872 184.05793 
L 743.25005 183.190857 
L 743.713228 189.460965 
L 744.176406 185.000357 
L 744.639584 174.310575 
L 745.102762 168.098101 
L 745.565941 165.058657 
L 746.029119 163.98347 
L 746.492297 166.704232 
L 746.955475 155.109294 
L 747.418653 151.702087 
L 748.34501 167.288469 
L 748.808188 169.849581 
L 749.734544 162.570473 
L 750.197722 166.227749 
L 750.6609 172.179983 
L 751.124079 171.970039 
L 751.587257 170.893427 
L 752.050435 168.657932 
L 752.513613 165.856537 
L 752.976791 165.582447 
L 753.439969 167.703098 
L 753.903148 164.585255 
L 754.366326 152.532752 
L 754.829504 146.216221 
L 755.292682 146.657702 
L 756.219038 155.246597 
L 756.682217 152.522176 
L 757.145395 154.600064 
L 757.608573 166.225551 
L 758.071751 172.977458 
L 758.534929 173.572888 
L 758.998107 176.182465 
L 759.461286 169.509573 
L 759.924464 174.616522 
L 760.85082 167.360221 
L 761.313998 167.767492 
L 761.777176 164.615439 
L 762.240355 156.998906 
L 762.703533 157.667033 
L 763.166711 151.889318 
L 763.629889 157.892868 
L 764.556245 149.925273 
L 765.019424 154.644501 
L 765.482602 147.625228 
L 765.94578 143.371309 
L 766.408958 142.586912 
L 766.872136 132.41599 
L 767.335314 135.265041 
L 767.798493 141.523745 
L 768.261671 135.603486 
L 768.724849 142.321183 
L 769.188027 145.520892 
L 769.651205 147.92378 
L 770.114383 153.704962 
L 770.577562 153.701706 
L 771.04074 147.936821 
L 771.503918 150.403853 
L 771.967096 150.493252 
L 772.430274 142.203911 
L 772.893452 142.941884 
L 773.356631 138.005179 
L 773.819809 136.036242 
L 774.282987 137.087812 
L 774.746165 137.044644 
L 775.209343 136.375708 
L 775.672521 142.474763 
L 776.1357 141.234225 
L 776.598878 141.278009 
L 777.062056 141.893395 
L 777.525234 151.345086 
L 777.988412 148.218691 
L 778.45159 142.590647 
L 778.914769 145.546606 
L 779.377947 144.307494 
L 780.304303 147.474013 
L 780.767481 137.599582 
L 781.230659 140.310366 
L 781.693838 148.725761 
L 782.157016 148.676892 
L 782.620194 151.591513 
L 783.083372 153.043632 
L 783.54655 152.286319 
L 784.009728 150.110692 
L 784.472907 149.058312 
L 784.936085 149.720738 
L 785.399263 151.54062 
L 785.862441 151.736927 
L 786.325619 153.50977 
L 786.788797 154.105199 
L 787.251976 151.308081 
L 787.715154 149.66842 
L 788.178332 151.324377 
L 789.104688 146.237596 
L 789.567866 145.946402 
L 790.031045 146.63591 
L 790.494223 153.011501 
L 790.957401 155.391582 
L 791.420579 150.781303 
L 791.883757 149.153045 
L 792.346935 150.455493 
L 792.810114 147.818024 
L 793.273292 144.311035 
L 793.73647 144.336289 
L 794.199648 143.339501 
L 794.662826 145.644034 
L 795.126004 143.516872 
L 795.589183 142.259229 
L 796.052361 142.506851 
L 796.515539 145.72224 
L 796.978717 145.994095 
L 797.441895 148.030645 
L 797.905073 147.273331 
L 798.368252 152.229183 
L 798.83143 153.084043 
L 799.757786 157.678853 
L 800.684142 152.594924 
L 801.610499 158.506841 
L 802.073677 160.497777 
L 803.000033 157.788631 
L 803.463211 159.554347 
L 803.92639 169.442223 
L 804.389568 171.571426 
L 804.852746 169.223321 
L 805.315924 173.048799 
L 805.779102 174.808813 
L 806.705459 182.029285 
L 807.631815 173.326162 
L 808.094993 173.67214 
L 808.558171 171.613399 
L 809.021349 172.652141 
L 809.484528 171.555572 
L 809.947706 167.543978 
L 810.410884 167.201468 
L 810.874062 170.329905 
L 811.33724 170.588931 
L 811.800418 169.669117 
L 812.263597 170.754898 
L 812.726775 169.639799 
L 813.189953 170.436216 
L 813.653131 169.249845 
L 814.116309 167.252398 
L 814.579487 167.214932 
L 815.042666 168.039857 
L 815.505844 165.037475 
L 815.969022 165.678519 
L 816.895378 170.638242 
L 817.358556 171.239373 
L 817.821735 173.615178 
L 818.284913 170.095361 
L 818.748091 169.785636 
L 819.211269 166.606499 
L 819.674447 164.660368 
L 821.063982 160.642263 
L 821.52716 162.144273 
L 821.990338 162.555821 
L 822.453516 164.957283 
L 822.916694 166.17563 
L 823.379873 163.8261 
L 823.843051 151.297499 
L 824.306229 149.042048 
L 824.769407 150.477061 
L 825.232585 155.782146 
L 826.62212 166.196626 
L 827.085298 182.999313 
L 827.548476 183.502089 
L 828.011654 183.765391 
L 828.474832 178.038992 
L 828.93801 175.163474 
L 829.401189 170.719972 
L 829.864367 170.850708 
L 830.327545 168.729248 
L 830.790723 173.923148 
L 831.253901 176.022417 
L 831.717079 181.695266 
L 832.643436 188.104662 
L 833.106614 190.868187 
L 833.569792 191.988178 
L 834.03297 191.699835 
L 834.496148 192.300966 
L 834.959327 187.441235 
L 835.422505 175.07656 
L 835.885683 169.276038 
L 836.348861 168.743944 
L 836.812039 167.590358 
L 837.275217 174.012988 
L 837.738396 174.56708 
L 838.201574 176.114704 
L 838.664752 185.289859 
L 839.12793 190.197246 
L 839.591108 187.219096 
L 840.054286 189.101699 
L 840.517465 181.825846 
L 840.980643 181.212502 
L 841.443821 182.376682 
L 841.906999 186.994705 
L 842.370177 189.796716 
L 842.833355 190.725699 
L 843.296534 189.251388 
L 843.759712 189.380699 
L 844.22289 187.725358 
L 844.686068 192.585705 
L 845.612424 187.526008 
L 846.075603 187.74227 
L 846.538781 188.400419 
L 847.001959 191.684229 
L 847.465137 197.57517 
L 847.928315 194.758095 
L 848.391493 195.553086 
L 848.854672 190.17592 
L 849.31785 189.005229 
L 849.781028 190.599893 
L 850.707384 186.540854 
L 851.170562 186.147028 
L 851.633741 186.073926 
L 852.096919 192.918487 
L 853.023275 201.504531 
L 853.949631 207.085746 
L 854.41281 213.053661 
L 855.339166 227.774801 
L 855.802344 228.609704 
L 856.265522 230.565004 
L 856.7287 231.217451 
L 857.191879 230.976147 
L 857.655057 231.027058 
L 858.118235 228.47369 
L 858.581413 228.536005 
L 859.044591 233.905234 
L 859.507769 233.455816 
L 859.970948 235.882936 
L 860.434126 236.580997 
L 860.897304 237.889147 
L 861.360482 240.276355 
L 861.82366 238.968822 
L 862.286838 240.301204 
L 863.213195 253.036705 
L 863.676373 263.235327 
L 864.139551 265.629663 
L 864.602729 266.500202 
L 865.529086 276.785371 
L 865.992264 271.711824 
L 866.455442 270.116351 
L 866.91862 261.845541 
L 867.844976 265.308552 
L 868.308155 267.615936 
L 868.771333 259.903899 
L 869.234511 259.909196 
L 869.697689 262.781054 
L 870.160867 268.860153 
L 870.624045 270.580255 
L 871.087224 270.338951 
L 871.550402 268.305868 
L 872.01358 270.874107 
L 872.476758 278.663734 
L 872.939936 276.463875 
L 873.403114 272.711711 
L 873.866293 270.86251 
L 874.329471 275.223954 
L 874.792649 275.348988 
L 875.255827 277.302862 
L 875.719005 270.725475 
L 876.182183 272.324415 
L 876.645362 275.961734 
L 877.10854 276.175146 
L 877.571718 274.402919 
L 878.034896 274.851528 
L 878.498074 274.534675 
L 878.961252 278.184824 
L 879.424431 278.623455 
L 879.887609 278.682919 
L 880.350787 282.361576 
L 880.813965 283.849331 
L 881.277143 286.922176 
L 881.740321 288.481203 
L 882.2035 294.510412 
L 882.666678 294.068121 
L 883.129856 291.422099 
L 883.593034 285.876731 
L 884.51939 279.840607 
L 884.982569 279.647768 
L 885.445747 273.275644 
L 885.908925 270.730828 
L 886.372103 269.745444 
L 886.835281 270.782761 
L 887.298459 270.542882 
L 887.761638 273.954982 
L 888.224816 274.524753 
L 888.687994 276.609768 
L 889.61435 284.755351 
L 890.540707 286.051693 
L 891.003885 282.710056 
L 891.467063 282.396054 
L 891.930241 281.333696 
L 892.393419 277.956423 
L 892.856597 277.318847 
L 893.319776 280.953316 
L 893.782954 280.754775 
L 894.70931 277.025013 
L 895.172488 277.241276 
L 895.635666 277.93221 
L 896.098845 277.699458 
L 896.562023 273.06067 
L 897.025201 273.43088 
L 897.488379 273.504599 
L 897.951557 272.540596 
L 898.414735 268.769902 
L 898.877914 269.513577 
L 899.341092 264.273253 
L 899.80427 262.493899 
L 900.267448 261.646783 
L 900.730626 262.016993 
L 901.193804 262.787751 
L 901.656983 264.958293 
L 902.120161 262.055691 
L 903.046517 265.505873 
L 903.509695 264.718626 
L 903.972873 263.197276 
L 904.436052 264.310141 
L 904.89923 263.443068 
L 905.825586 268.33152 
L 906.288764 267.790873 
L 906.751942 271.704728 
L 907.215121 276.649176 
L 907.678299 277.586712 
L 908.141477 278.867778 
L 908.604655 280.783165 
L 909.067833 281.409955 
L 909.531011 285.111419 
L 909.99419 281.902348 
L 910.920546 278.250986 
L 911.383724 278.795099 
L 911.846902 268.934923 
L 912.31008 267.802719 
L 913.236437 271.114633 
L 913.699615 265.716085 
L 914.162793 265.855374 
L 914.625971 264.818674 
L 915.089149 275.677275 
L 915.552328 279.099353 
L 916.015506 276.077015 
L 916.478684 276.093715 
L 916.941862 282.097266 
L 917.868218 281.849855 
L 918.331397 275.369399 
L 918.794575 272.117564 
L 919.257753 271.435799 
L 919.720931 269.686379 
L 920.184109 268.452969 
L 920.647287 266.361443 
L 921.110466 269.385823 
L 921.573644 275.094307 
L 922.036822 276.171536 
L 922.5 276.701395 
L 922.963178 276.042437 
L 923.426356 273.253871 
L 923.889534 275.578359 
L 924.352713 271.40284 
L 925.279069 268.737882 
L 926.205425 255.015783 
L 926.668603 255.177879 
L 927.131782 251.325934 
L 927.59496 249.690549 
L 928.058138 243.369742 
L 928.521316 241.154203 
L 929.447672 248.591342 
L 929.910851 246.381505 
L 930.837207 243.745056 
L 931.300385 248.904746 
L 931.763563 248.438222 
L 932.226741 250.688588 
L 932.68992 254.874702 
L 933.153098 255.644035 
L 933.616276 257.499554 
L 934.079454 260.033583 
L 934.542632 259.768046 
L 935.00581 264.478722 
L 935.932167 259.441832 
L 936.395345 260.640223 
L 936.858523 263.953967 
L 937.321701 268.279774 
L 937.784879 264.804146 
L 938.711236 260.485678 
L 939.174414 253.158509 
L 940.10077 242.612292 
L 940.563948 236.111878 
L 941.027127 237.746454 
L 941.490305 234.581572 
L 941.953483 237.148385 
L 942.416661 245.692071 
L 942.879839 250.131913 
L 943.343017 251.913309 
L 944.269374 253.717108 
L 945.19573 256.668386 
L 945.658908 256.140568 
L 946.122086 258.674596 
L 946.585265 259.126057 
L 947.048443 260.144842 
L 947.511621 257.729741 
L 947.974799 254.201371 
L 948.437977 253.237369 
L 948.901155 248.649897 
L 949.364334 247.047297 
L 949.827512 245.967834 
L 950.29069 243.42872 
L 950.753868 242.406275 
L 951.217046 246.843266 
L 952.143403 244.207222 
L 952.606581 245.273047 
L 953.069759 243.25707 
L 953.532937 243.597346 
L 954.459293 234.063191 
L 954.922472 232.402148 
L 955.38565 226.152612 
L 955.848828 225.306922 
L 956.312006 225.923733 
L 956.775184 222.757425 
L 957.238362 221.484102 
L 957.701541 220.92635 
L 958.164719 216.008176 
L 958.627897 221.338919 
L 960.017431 230.520392 
L 960.48061 221.069317 
L 960.943788 228.628024 
L 961.406966 231.723676 
L 961.870144 232.83654 
L 962.333322 235.792499 
L 962.7965 243.335525 
L 963.259679 246.325695 
L 963.722857 268.738916 
L 964.186035 271.190269 
L 965.112391 283.033444 
L 965.575569 284.174817 
L 966.038748 275.778569 
L 966.501926 276.438143 
L 966.965104 268.40253 
L 967.428282 262.807272 
L 967.89146 259.46421 
L 968.354638 258.252181 
L 969.744173 245.182529 
L 970.207351 247.233333 
L 970.670529 242.735664 
L 971.133707 241.000498 
L 971.596886 237.809958 
L 972.060064 236.76328 
L 972.523242 239.653669 
L 972.98642 241.671688 
L 973.449598 241.316348 
L 973.912776 250.137995 
L 974.375955 250.445485 
L 975.302311 255.251261 
L 975.765489 255.684191 
L 976.228667 246.029278 
L 976.691845 247.284686 
L 977.155024 245.864543 
L 977.618202 250.320065 
L 978.08138 251.509903 
L 978.544558 253.71323 
L 979.007736 254.288703 
L 979.470914 265.382502 
L 979.934093 262.944594 
L 980.397271 262.583553 
L 981.323627 257.285807 
L 981.786805 255.972572 
L 982.249983 259.936317 
L 982.713162 260.498961 
L 983.17634 267.011394 
L 983.639518 267.72371 
L 984.102696 271.23559 
L 984.565874 270.198891 
L 985.029052 269.532805 
L 985.955409 259.260272 
L 986.418587 261.053072 
L 986.881765 255.643121 
L 987.808121 243.052821 
L 988.2713 240.775988 
L 988.734478 239.417139 
L 989.197656 239.027589 
L 989.660834 233.527835 
L 990.124012 237.165155 
L 990.58719 238.650059 
L 991.050369 246.265783 
L 991.513547 246.181277 
L 991.976725 248.966183 
L 992.439903 253.186508 
L 992.903081 253.412748 
L 993.366259 254.8891 
L 993.829438 254.295712 
L 994.292616 252.093002 
L 994.755794 253.75181 
L 995.68215 254.805827 
L 996.145328 254.674282 
L 996.608507 255.252606 
L 997.534863 262.802355 
L 997.998041 263.665767 
L 998.461219 260.539372 
L 998.924397 260.268133 
L 999.387576 265.999425 
L 999.850754 279.808687 
L 1000.313932 283.584274 
L 1000.77711 293.657457 
L 1001.240288 288.204743 
L 1001.703466 286.328459 
L 1002.166645 285.702286 
L 1002.629823 276.499238 
L 1003.093001 261.852433 
L 1003.556179 255.621428 
L 1004.019357 242.509822 
L 1004.945714 255.553218 
L 1005.408892 256.268385 
L 1005.87207 263.53345 
L 1007.261604 270.780601 
L 1007.724783 269.14094 
L 1008.187961 267.985929 
L 1008.651139 266.312057 
L 1009.114317 260.310548 
L 1009.577495 256.901915 
L 1010.040673 256.384076 
L 1010.503852 255.085095 
L 1011.430208 255.08286 
L 1011.893386 256.582019 
L 1012.356564 260.812322 
L 1012.819742 258.938888 
L 1013.282921 257.974886 
L 1013.746099 258.461982 
L 1014.209277 257.82298 
L 1014.672455 250.537149 
L 1015.135633 251.279399 
L 1015.598811 250.321099 
L 1016.06199 258.280354 
L 1016.988346 264.494465 
L 1017.451524 267.230906 
L 1017.914702 275.274262 
L 1018.37788 274.710808 
L 1018.841059 276.007554 
L 1019.767415 267.6893 
L 1020.230593 273.188245 
L 1020.693771 271.569965 
L 1021.156949 271.511118 
L 1025.788731 268.917837 
L 1026.251909 268.362936 
L 1026.715087 272.876901 
L 1027.178265 278.975956 
L 1027.641444 268.947578 
L 1028.104622 269.628534 
L 1028.5678 267.400166 
L 1029.030978 270.320489 
L 1029.494156 269.842562 
L 1029.957334 269.12231 
L 1030.420513 268.654361 
L 1030.883691 275.372057 
L 1031.810047 279.23134 
L 1033.199582 278.608018 
L 1033.66276 277.695332 
L 1034.125938 275.194705 
L 1034.589116 274.698247 
L 1035.052294 270.186323 
L 1035.515472 270.827367 
L 1035.978651 272.436284 
L 1036.441829 273.034565 
L 1036.905007 273.930762 
L 1037.368185 266.600743 
L 1037.831363 264.006037 
L 1038.75772 262.795029 
L 1039.220898 262.328505 
L 1039.684076 259.565597 
L 1040.147254 260.762562 
L 1040.610432 257.20996 
L 1041.07361 256.361418 
L 1041.536789 252.067587 
L 1041.999967 250.158518 
L 1042.463145 248.919405 
L 1042.926323 251.761329 
L 1043.389501 245.320784 
L 1043.852679 256.638377 
L 1044.315858 255.615932 
L 1044.779036 258.834171 
L 1045.705392 267.203549 
L 1046.16857 266.966521 
L 1046.631748 273.322155 
L 1047.094927 275.827675 
L 1047.558105 280.98879 
L 1048.021283 281.642663 
L 1048.484461 272.644878 
L 1048.947639 276.535926 
L 1049.410817 284.230049 
L 1049.873996 282.301023 
L 1050.337174 276.406422 
L 1052.189886 268.919605 
L 1052.653065 267.569308 
L 1053.116243 273.731082 
L 1054.042599 260.599116 
L 1054.505777 264.082488 
L 1054.968955 266.391297 
L 1055.432134 270.764143 
L 1055.895312 273.683041 
L 1056.35849 272.036252 
L 1056.821668 269.926196 
L 1057.748024 264.534371 
L 1058.211203 269.480245 
L 1058.674381 269.773481 
L 1059.600737 280.084308 
L 1060.063915 279.555065 
L 1060.527093 283.362012 
L 1060.990272 285.81479 
L 1061.45345 280.456155 
L 1061.916628 283.343693 
L 1062.842984 276.355374 
L 1063.306162 278.838087 
L 1063.769341 276.281868 
L 1064.695697 269.322463 
L 1065.158875 272.383904 
L 1071.180191 266.845664 
L 1071.643369 266.257977 
L 1072.106548 261.901427 
L 1072.569726 260.159134 
L 1073.032904 259.713992 
L 1073.496082 266.038267 
L 1073.95926 261.879852 
L 1074.422438 260.530981 
L 1074.885617 254.73331 
L 1075.811973 255.07033 
L 1076.275151 256.649314 
L 1076.738329 255.461517 
L 1077.201507 260.337544 
L 1078.127864 272.825019 
L 1078.591042 274.934266 
L 1079.05422 274.423554 
L 1079.517398 270.659987 
L 1079.980576 268.926246 
L 1080.906933 263.523018 
L 1082.296467 254.954907 
L 1082.759645 254.132023 
L 1083.222824 253.711114 
L 1084.14918 246.125536 
L 1084.612358 244.424581 
L 1085.075536 245.300822 
L 1085.538714 248.926738 
L 1086.465071 251.778235 
L 1086.928249 248.681774 
L 1087.391427 249.211633 
L 1088.317783 251.354686 
L 1089.24414 245.319988 
L 1089.707318 240.515849 
L 1090.170496 242.44264 
L 1090.633674 241.726664 
L 1091.096852 240.356411 
L 1091.560031 236.511594 
L 1092.023209 236.055048 
L 1092.486387 235.909249 
L 1092.949565 233.555442 
L 1093.412743 226.205466 
L 1093.875921 225.011968 
L 1094.3391 222.809258 
L 1095.265456 219.615462 
L 1095.728634 222.711114 
L 1096.191812 228.201506 
L 1096.65499 236.470082 
L 1097.581347 233.691089 
L 1098.044525 234.969304 
L 1098.970881 230.71213 
L 1099.434059 225.922246 
L 1100.360416 222.764086 
L 1100.823594 225.117083 
L 1101.286772 225.725342 
L 1101.74995 231.227137 
L 1102.213128 228.615326 
L 1102.676307 230.255603 
L 1103.139485 223.760892 
L 1103.602663 225.17595 
L 1104.065841 221.986835 
L 1104.529019 220.263073 
L 1105.918554 203.719622 
L 1106.381732 208.065386 
L 1106.84491 203.366729 
L 1107.308088 196.136491 
L 1107.771266 192.223252 
L 1108.234445 197.565398 
L 1108.697623 205.674325 
L 1109.160801 204.54212 
L 1109.623979 204.352132 
L 1110.087157 208.461272 
L 1110.550335 215.093442 
L 1111.013514 216.467162 
L 1111.476692 212.8832 
L 1111.93987 208.339917 
L 1112.403048 209.025149 
L 1112.866226 226.065885 
L 1113.329404 232.495642 
L 1114.255761 237.059094 
L 1114.718939 238.861871 
L 1115.645295 244.786618 
L 1116.108473 228.798473 
L 1116.571652 223.210342 
L 1117.03483 220.826601 
L 1117.498008 221.101306 
L 1117.961186 215.632912 
L 1118.424364 212.801583 
L 1119.35072 209.452414 
L 1119.813899 206.41012 
L 1120.277077 202.387122 
L 1120.740255 201.810839 
L 1121.203433 201.897387 
L 1122.129789 208.169941 
L 1122.592968 210.393223 
L 1123.519324 220.92927 
L 1123.982502 222.425578 
L 1124.44568 221.052474 
L 1124.908858 220.249547 
L 1125.372037 218.545741 
L 1125.835215 216.159149 
L 1126.298393 212.790428 
L 1126.761571 211.32182 
L 1127.224749 208.517574 
L 1127.687927 209.61761 
L 1128.614284 205.917782 
L 1129.077462 206.203891 
L 1129.54064 204.991862 
L 1130.003818 204.797598 
L 1130.466996 208.958054 
L 1130.930175 208.18221 
L 1131.393353 209.778298 
L 1132.782887 234.043783 
L 1133.246065 233.037017 
L 1133.709244 230.155798 
L 1134.172422 231.402653 
L 1134.6356 228.187881 
L 1135.561956 204.419277 
L 1136.025134 194.519189 
L 1136.488313 187.857701 
L 1136.951491 187.476704 
L 1137.414669 188.073559 
L 1137.877847 189.519976 
L 1138.341025 192.123851 
L 1138.804203 198.550758 
L 1139.267382 206.534245 
L 1139.73056 217.606662 
L 1140.193738 218.232026 
L 1141.120094 228.485835 
L 1141.583272 244.329201 
L 1142.046451 239.951269 
L 1142.972807 233.929399 
L 1143.899163 218.384162 
L 1144.362341 216.570597 
L 1144.82552 205.930705 
L 1145.288698 204.846965 
L 1145.751876 204.441736 
L 1146.215054 200.876305 
L 1146.678232 207.904747 
L 1147.14141 210.934829 
L 1147.604589 206.851963 
L 1148.530945 202.874175 
L 1148.994123 202.055567 
L 1149.457301 205.500452 
L 1149.920479 205.60553 
L 1150.383658 207.089009 
L 1151.310014 226.056536 
L 1152.23637 231.587861 
L 1152.699548 225.466615 
L 1153.162727 225.826847 
L 1153.625905 226.872716 
L 1154.089083 222.052897 
L 1154.552261 210.061687 
L 1155.015439 212.126746 
L 1155.478617 211.132809 
L 1155.941796 213.837891 
L 1156.404974 208.281119 
L 1156.868152 210.091024 
L 1157.33133 205.601907 
L 1157.794508 205.051283 
L 1158.257686 200.562166 
L 1158.720865 201.445535 
L 1159.647221 210.218311 
L 1160.110399 207.759022 
L 1160.573577 210.901714 
L 1161.499934 220.787759 
L 1161.963112 221.35468 
L 1162.42629 224.11963 
L 1162.889468 228.217367 
L 1163.352646 229.365867 
L 1163.815824 233.151432 
L 1164.279003 235.266381 
L 1164.742181 235.968719 
L 1165.205359 235.55066 
L 1165.668537 234.371416 
L 1166.131715 234.815749 
L 1166.594893 233.670716 
L 1167.058072 231.830068 
L 1167.52125 231.216724 
L 1167.984428 231.065222 
L 1169.373962 240.755578 
L 1169.837141 242.993115 
L 1170.300319 240.114746 
L 1170.763497 239.713793 
L 1171.226675 240.678412 
L 1171.689853 243.213866 
L 1172.153031 238.898653 
L 1172.61621 236.824232 
L 1173.079388 237.476679 
L 1173.542566 240.277265 
L 1174.005744 240.302519 
L 1174.468922 237.111978 
L 1174.9321 231.716282 
L 1175.395279 235.919501 
L 1176.321635 224.674817 
L 1177.247991 237.495845 
L 1177.711169 239.93722 
L 1178.174348 238.760827 
L 1178.637526 235.680046 
L 1179.563882 243.631769 
L 1180.02706 237.212606 
L 1180.490238 228.485655 
L 1180.953417 222.710791 
L 1181.416595 223.200738 
L 1181.879773 221.773467 
L 1182.342951 218.451786 
L 1182.806129 218.917501 
L 1183.269307 216.083321 
L 1183.732486 218.152655 
L 1184.195664 220.86914 
L 1184.658842 221.287815 
L 1185.12202 221.502652 
L 1185.585198 225.968152 
L 1186.048376 226.175862 
L 1186.511555 228.380614 
L 1186.974733 228.752249 
L 1187.437911 228.548007 
L 1187.901089 227.86054 
L 1188.364267 229.291277 
L 1188.827445 229.242408 
L 1189.290624 228.76163 
L 1189.753802 228.487541 
L 1190.21698 231.397886 
L 1190.680158 227.963595 
L 1191.143336 230.243895 
L 1191.606514 231.044588 
L 1192.069693 230.866003 
L 1192.532871 228.21713 
L 1192.996049 227.925936 
L 1193.459227 226.433095 
L 1193.922405 237.655183 
L 1194.385583 235.114644 
L 1194.848762 236.23321 
L 1195.31194 234.403965 
L 1195.775118 236.437664 
L 1196.238296 233.365435 
L 1196.701474 235.183893 
L 1197.164652 227.715606 
L 1197.627831 229.609611 
L 1198.091009 227.662055 
L 1198.554187 224.823599 
L 1199.017365 226.134599 
L 1199.480543 229.11194 
L 1199.943721 225.71471 
L 1200.4069 226.32582 
L 1200.870078 227.397346 
L 1201.796434 233.079768 
L 1202.259612 228.700411 
L 1202.72279 229.52106 
L 1203.185969 229.13151 
L 1203.649147 229.078364 
L 1204.112325 228.760086 
L 1204.575503 227.261544 
L 1205.038681 228.55829 
L 1205.501859 235.330153 
L 1206.428216 233.433508 
L 1206.891394 236.097252 
L 1207.354572 237.218669 
L 1207.81775 239.925175 
L 1208.280928 239.159309 
L 1208.744107 240.394762 
L 1209.207285 242.62232 
L 1209.670463 245.521262 
L 1210.133641 246.900683 
L 1210.596819 246.783393 
L 1211.059997 243.68123 
L 1211.523176 245.137625 
L 1211.986354 239.883047 
L 1212.449532 239.978147 
L 1212.91271 247.489814 
L 1213.375888 247.342589 
L 1213.839066 251.846576 
L 1214.765423 256.619567 
L 1215.228601 261.67805 
L 1215.691779 263.623372 
L 1216.154957 257.661775 
L 1216.618135 258.520911 
L 1218.00767 251.948417 
L 1218.470848 247.644608 
L 1218.934026 246.394092 
L 1219.397204 245.622524 
L 1219.860382 246.665542 
L 1220.323561 243.953949 
L 1220.786739 244.537975 
L 1221.249917 246.946565 
L 1221.713095 250.840464 
L 1222.176273 252.118679 
L 1222.639451 255.610604 
L 1223.10263 255.537502 
L 1223.565808 257.039511 
L 1224.028986 259.121675 
L 1224.492164 257.387935 
L 1224.955342 259.364616 
L 1225.41852 260.061252 
L 1225.881699 258.462929 
L 1226.344877 258.667788 
L 1226.808055 256.7801 
L 1227.271233 256.292195 
L 1227.734411 262.837413 
L 1229.123946 253.419739 
L 1229.587124 246.036979 
L 1230.050302 249.414868 
L 1230.51348 250.013148 
L 1230.976658 242.413721 
L 1231.439837 241.432613 
L 1231.903015 239.137249 
L 1232.366193 243.659767 
L 1232.829371 250.926258 
L 1233.292549 249.309404 
L 1233.755727 251.260427 
L 1234.218906 251.748949 
L 1234.682084 254.741969 
L 1235.145262 259.01646 
L 1235.60844 259.145771 
L 1236.071618 261.242189 
L 1236.534796 260.067222 
L 1236.997975 255.22317 
L 1237.461153 258.511257 
L 1237.924331 257.716882 
L 1238.387509 260.463301 
L 1238.850687 266.434067 
L 1239.313865 264.720283 
L 1239.777044 266.260779 
L 1240.7034 270.586182 
L 1241.629756 261.769023 
L 1242.092934 253.962907 
L 1242.556113 256.424238 
L 1243.482469 254.052921 
L 1243.945647 251.071921 
L 1244.408825 259.044004 
L 1245.335182 257.557886 
L 1245.79836 253.038835 
L 1247.187894 283.824285 
L 1247.651072 288.46939 
L 1248.577429 305.911696 
L 1249.040607 307.8 
L 1249.966963 256.005812 
L 1251.819676 146.118415 
L 1252.282854 124.782017 
L 1253.20921 119.056639 
L 1253.672389 120.960623 
L 1254.135567 125.645641 
L 1254.598745 124.755762 
L 1255.061923 124.872243 
L 1255.525101 120.450123 
L 1256.451458 114.134612 
L 1257.840992 97.377346 
L 1258.30417 96.434725 
L 1258.767348 99.801211 
L 1259.230527 97.324816 
L 1259.693705 98.410597 
L 1260.156883 98.016771 
L 1260.620061 99.830952 
L 1261.083239 99.686578 
L 1261.546417 99.917095 
L 1262.009596 99.610221 
L 1262.472774 102.021661 
L 1262.935952 101.686278 
L 1263.39913 105.34783 
L 1263.862308 107.066507 
L 1264.325486 107.503712 
L 1264.788665 105.253963 
L 1265.251843 97.527671 
L 1265.715021 98.574965 
L 1266.178199 100.912283 
L 1266.641377 100.266153 
L 1267.104555 97.309385 
L 1267.567734 99.886177 
L 1268.030912 101.621959 
L 1268.49409 108.449414 
L 1268.957268 105.404269 
L 1269.420446 94.577644 
L 1269.883624 92.134034 
L 1270.346803 92.708082 
L 1270.809981 92.173137 
L 1271.273159 96.648616 
L 1271.736337 98.087906 
L 1272.199515 98.640572 
L 1272.662693 103.870109 
L 1273.125872 101.975294 
L 1273.58905 98.950105 
L 1274.052228 92.754736 
L 1274.515406 84.32 
L 1275.441762 78.536179 
L 1276.368119 81.327808 
L 1276.831297 84.873899 
L 1277.294475 87.543344 
L 1277.757653 87.093926 
L 1278.220831 83.61117 
L 1278.68401 82.762629 
L 1279.147188 85.546109 
L 1279.610366 84.610616 
L 1280.073544 81.535536 
L 1280.536722 83.761669 
L 1280.9999 89.192193 
L 1281.463079 91.945739 
L 1281.926257 92.991608 
L 1282.389435 90.729029 
L 1282.852613 80.177515 
L 1283.315791 80.027439 
L 1283.778969 79.044906 
L 1284.242148 76.279147 
L 1284.705326 75.889597 
L 1285.168504 76.010355 
L 1285.631682 75.575191 
L 1286.09486 85.719646 
L 1286.558038 86.171106 
L 1287.021217 86.002499 
L 1287.484395 81.366562 
L 1287.947573 80.465279 
L 1288.410751 81.935929 
L 1288.873929 79.952737 
L 1289.337107 81.250909 
L 1289.800286 80.715964 
L 1290.263464 79.834637 
L 1290.726642 82.096406 
L 1291.18982 81.731089 
L 1291.652998 80.236823 
L 1292.116176 82.334667 
L 1292.579355 78.157722 
L 1293.042533 77.66554 
L 1293.968889 67.230507 
L 1294.432067 65.338543 
L 1294.895245 62.798003 
L 1295.358424 56.102305 
L 1295.821602 63.450046 
L 1296.28478 63.920036 
L 1296.747958 66.087727 
L 1297.211136 75.247202 
L 1297.674314 75.681557 
L 1298.137493 78.94256 
L 1298.600671 93.188008 
L 1299.063849 88.859966 
L 1299.527027 86.172606 
L 1299.990205 75.63392 
L 1300.453383 60.947203 
L 1300.916562 62.691537 
L 1301.37974 61.064705 
L 1301.842918 56.783703 
L 1302.306096 56.620798 
L 1302.769274 56.894078 
L 1303.695631 79.22992 
L 1304.158809 77.433461 
L 1304.621987 74.114631 
L 1305.085165 67.924964 
L 1305.548343 65.554052 
L 1306.4747 70.644916 
L 1308.79059 84.272954 
L 1309.253769 84.691629 
L 1309.716947 84.15811 
L 1310.180125 83.945315 
L 1311.106481 80.931125 
L 1311.569659 82.837959 
L 1312.032838 81.678672 
L 1312.496016 81.665438 
L 1312.959194 80.392115 
L 1313.422372 74.848173 
L 1313.88555 73.777262 
L 1314.348728 75.357671 
L 1315.738263 70.437262 
L 1316.201441 70.612187 
L 1317.590975 85.302988 
L 1318.054154 85.962562 
L 1318.517332 89.370386 
L 1318.98051 89.265924 
L 1319.443688 92.900392 
L 1319.906866 92.094614 
L 1320.833223 97.278132 
L 1321.296401 97.471587 
L 1321.759579 98.320745 
L 1322.222757 100.524071 
L 1322.685935 96.810394 
L 1323.149113 97.930386 
L 1323.612292 91.941706 
L 1324.07547 89.431101 
L 1324.538648 92.985745 
L 1325.001826 84.073486 
L 1325.465004 86.698743 
L 1325.928182 92.449991 
L 1326.854539 99.399629 
L 1327.317717 89.374102 
L 1327.780895 84.869305 
L 1328.244073 99.743372 
L 1328.707251 90.211047 
L 1329.17043 85.357018 
L 1329.633608 83.12865 
L 1330.096786 79.674403 
L 1330.559964 86.809753 
L 1331.023142 88.844877 
L 1331.48632 83.727142 
L 1331.949499 97.355373 
L 1332.875855 102.972225 
L 1333.339033 109.258013 
L 1333.802211 112.962328 
L 1334.265389 115.138571 
L 1334.728568 115.545842 
L 1335.191746 109.799487 
L 1335.654924 110.071342 
L 1336.118102 108.166548 
L 1336.58128 109.380619 
L 1337.044458 109.964645 
L 1337.507637 111.405361 
L 1337.970815 112.059233 
L 1338.433993 116.992278 
L 1338.897171 117.875647 
L 1339.360349 120.254302 
L 1339.823527 117.86771 
L 1340.286706 116.769717 
L 1340.749884 114.163607 
L 1341.213062 113.648618 
L 1341.67624 105.72419 
L 1342.139418 105.601198 
L 1342.602596 100.581817 
L 1343.528953 100.499758 
L 1343.992131 96.351322 
L 1344.455309 93.785124 
L 1344.918487 99.497885 
L 1345.381665 100.348468 
L 1345.844844 94.579306 
L 1346.308022 95.898859 
L 1346.7712 94.122356 
L 1347.234378 94.888838 
L 1347.697556 93.01683 
L 1348.160734 88.9696 
L 1348.623913 81.105041 
L 1349.087091 82.571414 
L 1349.550269 82.593817 
L 1350.013447 85.88618 
L 1350.476625 90.23907 
L 1351.86616 99.342145 
L 1352.329338 104.590212 
L 1352.792516 99.448243 
L 1353.255694 98.214833 
L 1354.182051 94.065992 
L 1354.645229 93.213174 
L 1355.108407 93.567704 
L 1355.571585 94.321357 
L 1356.034763 96.145517 
L 1356.497941 95.214299 
L 1357.424298 101.858894 
L 1358.350654 107.196359 
L 1359.27701 114.441064 
L 1359.740189 116.000091 
L 1360.203367 113.882907 
L 1360.666545 113.196866 
L 1361.129723 110.026282 
L 1361.592901 107.806466 
L 1362.056079 104.670093 
L 1362.519258 104.254885 
L 1362.982436 101.898227 
L 1363.445614 100.650562 
L 1363.908792 106.284924 
L 1364.37197 109.755467 
L 1364.835148 117.604962 
L 1365.298327 119.563113 
L 1366.224683 125.446522 
L 1366.687861 125.962127 
L 1367.151039 120.986935 
L 1367.614217 119.445629 
L 1368.077396 112.2439 
L 1368.540574 110.032637 
L 1369.003752 103.865777 
L 1369.46693 102.020852 
L 1369.930108 104.278345 
L 1370.393286 104.252283 
L 1370.856465 103.413719 
L 1371.319643 108.493584 
L 1371.782821 112.215005 
L 1372.709177 127.938229 
L 1373.172355 128.847256 
L 1373.635534 130.024265 
L 1374.098712 124.136791 
L 1374.56189 125.074326 
L 1375.025068 122.250124 
L 1375.951424 110.362567 
L 1376.414603 111.523897 
L 1376.877781 116.620867 
L 1377.340959 127.589227 
L 1377.804137 127.875336 
L 1378.267315 127.364623 
L 1378.730493 128.521676 
L 1379.193672 126.103725 
L 1379.65685 127.092576 
L 1381.046384 109.987502 
L 1381.509562 111.864403 
L 1382.435919 119.687836 
L 1382.899097 120.574055 
L 1383.362275 118.817508 
L 1383.825453 126.408999 
L 1384.288631 126.689407 
L 1384.75181 128.227052 
L 1385.214988 124.688704 
L 1385.678166 124.383256 
L 1386.141344 120.10938 
L 1386.604522 122.326961 
L 1387.0677 118.879842 
L 1387.994057 124.901518 
L 1388.457235 123.287515 
L 1388.920413 121.233051 
L 1389.383591 125.623003 
L 1389.846769 128.259663 
L 1390.309948 126.213751 
L 1390.773126 127.755673 
L 1391.236304 121.369296 
L 1391.699482 122.083037 
L 1392.625838 113.275856 
L 1393.089017 110.450229 
L 1393.552195 111.842479 
L 1394.015373 109.336151 
L 1394.478551 112.964917 
L 1394.941729 115.491819 
L 1395.404907 124.883641 
L 1395.868086 129.302102 
L 1396.331264 135.066179 
L 1396.794442 137.193957 
L 1397.25762 143.04356 
L 1398.647155 134.468322 
L 1399.110333 128.456835 
L 1399.573511 124.646228 
L 1400.036689 116.733203 
L 1400.499867 111.629722 
L 1400.963045 110.151135 
L 1401.426224 109.323975 
L 1401.889402 107.900981 
L 1402.35258 110.17843 
L 1402.815758 107.32857 
L 1403.278936 116.301313 
L 1403.742114 117.575252 
L 1404.205293 119.484938 
L 1405.131649 114.60057 
L 1405.594827 113.15762 
L 1406.058005 122.298565 
L 1406.521183 114.331373 
L 1406.984362 112.235571 
L 1407.44754 108.162683 
L 1408.373896 116.524933 
L 1408.837074 119.589226 
L 1409.300252 114.015349 
L 1409.763431 122.117148 
L 1410.226609 122.893608 
L 1410.689787 124.655048 
L 1411.152965 121.818017 
L 1411.616143 121.35862 
L 1412.079321 122.401638 
L 1413.005678 116.088979 
L 1413.468856 114.919713 
L 1413.932034 118.216352 
L 1414.395212 119.344896 
L 1414.85839 118.484951 
L 1415.321568 108.861398 
L 1415.784747 111.737532 
L 1416.247925 108.594032 
L 1416.711103 109.426084 
L 1417.174281 106.574799 
L 1417.637459 102.74281 
L 1418.100637 97.913013 
L 1418.563816 100.44134 
L 1419.026994 93.390707 
L 1419.490172 94.132957 
L 1419.95335 92.319392 
L 1420.416528 94.980285 
L 1420.879706 95.09249 
L 1421.342885 96.802614 
L 1421.806063 98.003856 
L 1422.269241 99.816611 
L 1422.732419 100.072786 
L 1423.195597 98.140909 
L 1423.658775 95.033045 
L 1424.121954 96.888564 
L 1424.585132 95.04649 
L 1425.04831 94.639835 
L 1425.511488 92.106422 
L 1425.974666 81.614776 
L 1426.437844 77.594629 
L 1426.901023 78.172954 
L 1427.364201 77.726386 
L 1427.827379 77.758767 
L 1428.290557 77.65573 
L 1428.753735 78.841292 
L 1429.680092 92.175479 
L 1430.14327 93.681764 
L 1430.606448 96.15735 
L 1431.069626 100.823837 
L 1431.532804 107.329143 
L 1432.459161 116.328565 
L 1432.922339 118.439238 
L 1433.385517 113.789046 
L 1433.848695 95.306381 
L 1434.311873 90.362549 
L 1434.775051 83.743824 
L 1435.23823 79.822033 
L 1435.701408 68.04749 
L 1436.164586 61.10519 
L 1437.090942 80.094099 
L 1437.55412 82.273193 
L 1438.017299 80.339891 
L 1438.480477 79.019528 
L 1438.943655 83.825709 
L 1439.406833 85.178047 
L 1439.870011 76.90011 
L 1440.333189 80.739842 
L 1440.796368 76.976275 
L 1441.722724 78.177112 
L 1442.185902 79.312783 
L 1442.64908 74.089565 
L 1443.112258 71.892556 
L 1443.575437 66.937321 
L 1444.038615 65.326169 
L 1444.501793 63.112055 
L 1444.964971 62.728207 
L 1445.428149 61.336572 
L 1445.891327 66.931022 
L 1446.354506 69.028865 
L 1446.817684 75.96893 
L 1447.280862 69.663803 
L 1447.74404 68.245085 
L 1448.207218 68.74501 
L 1448.670396 69.622676 
L 1449.133575 70.973589 
L 1449.596753 68.551361 
L 1450.059931 63.167068 
L 1450.523109 72.464812 
L 1450.986287 76.444237 
L 1451.449465 74.094706 
L 1451.912644 72.432238 
L 1452.375822 68.617355 
L 1452.839 68.286248 
L 1453.302178 67.680031 
L 1453.765356 62.62644 
L 1454.228534 60.710244 
L 1454.691713 61.50381 
L 1455.154891 61.573252 
L 1455.618069 59.946419 
L 1456.544425 71.376217 
L 1457.007603 87.181096 
L 1457.470782 89.719401 
L 1457.93396 90.969108 
L 1458.397138 95.206538 
L 1458.860316 96.660082 
L 1459.323494 92.376229 
L 1459.786672 90.028124 
L 1460.249851 78.196564 
L 1460.713029 74.053829 
L 1461.176207 72.657918 
L 1461.639385 69.622751 
L 1462.102563 76.837926 
L 1462.565741 78.25726 
L 1463.02892 80.976596 
L 1463.492098 87.047142 
L 1463.955276 91.593893 
L 1464.418454 90.704013 
L 1464.881632 88.162048 
L 1465.34481 96.077115 
L 1465.807989 97.725945 
L 1466.271167 94.878935 
L 1466.734345 89.453304 
L 1467.197523 95.659268 
L 1467.660701 106.677518 
L 1468.123879 112.572735 
L 1468.587058 99.528125 
L 1469.050236 99.412259 
L 1469.513414 101.053962 
L 1469.976592 118.476716 
L 1470.43977 115.220606 
L 1470.902948 107.445849 
L 1471.366127 105.263095 
L 1471.829305 104.220693 
L 1472.292483 101.844079 
L 1472.755661 100.756064 
L 1473.218839 87.513317 
L 1473.682017 83.209508 
L 1474.145196 88.094088 
L 1475.071552 83.966629 
L 1475.53473 81.497361 
L 1475.997908 91.318241 
L 1476.461086 84.981754 
L 1476.924265 83.533102 
L 1477.387443 74.589484 
L 1477.850621 74.834255 
L 1478.313799 76.178041 
L 1478.776977 76.811957 
L 1479.240155 63.902764 
L 1479.703334 64.384158 
L 1480.166512 62.241316 
L 1481.092868 72.793043 
L 1481.556046 80.706684 
L 1482.019224 85.324706 
L 1482.482403 85.320025 
L 1482.945581 84.745168 
L 1483.408759 86.5622 
L 1484.335115 77.183418 
L 1485.261472 63.508359 
L 1485.72465 67.196994 
L 1486.187828 68.297029 
L 1486.651006 67.301667 
L 1487.114184 66.006963 
L 1487.577362 57.66203 
L 1488.040541 55.8 
L 1488.503719 59.102341 
L 1488.966897 56.566078 
L 1489.893253 55.995092 
L 1490.356431 57.306093 
L 1491.282788 67.669661 
L 1491.745966 67.29294 
L 1492.209144 67.482119 
L 1492.672322 74.142798 
L 1493.1355 78.327487 
L 1493.598679 84.054502 
L 1494.061857 91.65312 
L 1494.525035 94.040328 
L 1495.451391 99.744536 
L 1495.914569 107.224843 
L 1496.377748 106.203823 
L 1496.840926 100.173806 
L 1497.304104 98.501359 
L 1497.767282 97.955011 
L 1498.23046 98.650221 
L 1498.693638 98.899269 
L 1499.156817 98.227482 
L 1499.619995 96.328391 
L 1500.083173 103.043236 
L 1500.546351 105.862353 
L 1501.009529 104.91403 
L 1501.472707 103.412637 
L 1502.862242 90.129169 
L 1503.32542 86.817466 
L 1503.788598 81.675498 
L 1504.251776 80.960947 
L 1504.714955 79.643436 
L 1505.178133 81.611565 
L 1505.641311 81.269054 
L 1506.567667 90.071765 
L 1507.494024 97.960769 
L 1507.957202 97.25192 
L 1508.42038 91.881882 
L 1508.883558 97.003085 
L 1509.346736 97.608492 
L 1509.809914 94.254026 
L 1510.273093 92.567326 
L 1510.736271 88.669767 
L 1511.199449 88.763441 
L 1511.662627 94.912387 
L 1512.125805 91.871518 
L 1512.588983 93.362124 
L 1513.052161 99.749118 
L 1513.51534 102.534024 
L 1513.978518 102.620571 
L 1514.441696 103.248786 
L 1514.904874 103.624697 
L 1515.368052 105.139536 
L 1515.83123 100.885617 
L 1516.294409 98.477644 
L 1516.757587 98.06101 
L 1517.220765 101.818067 
L 1517.683943 103.820406 
L 1518.147121 102.884913 
L 1519.073478 108.574462 
L 1519.536656 106.048177 
L 1519.999834 104.809064 
L 1520.463012 101.386177 
L 1520.92619 100.255398 
L 1521.389368 100.602801 
L 1522.778903 83.670206 
L 1523.242081 81.379118 
L 1523.705259 78.070266 
L 1524.631616 75.714629 
L 1525.094794 76.15041 
L 1526.02115 85.50049 
L 1526.484328 88.08726 
L 1526.947506 91.98686 
L 1527.410685 93.454659 
L 1527.873863 91.539888 
L 1528.337041 90.118319 
L 1529.726575 84.328392 
L 1530.189754 82.919652 
L 1530.652932 81.080429 
L 1531.11611 83.419173 
L 1531.579288 83.907694 
L 1532.042466 86.359047 
L 1532.505644 86.864674 
L 1532.968823 86.083128 
L 1533.432001 82.690175 
L 1533.895179 83.944158 
L 1534.821535 89.035022 
L 1535.284713 89.715978 
L 1535.747892 92.35834 
L 1536.21107 93.873178 
L 1536.674248 99.498987 
L 1537.137426 99.933342 
L 1537.600604 98.078439 
L 1538.063782 102.796243 
L 1538.526961 101.461626 
L 1538.990139 99.020867 
L 1539.453317 98.272106 
L 1539.916495 96.782117 
L 1540.379673 97.317678 
L 1540.842851 97.424181 
L 1541.30603 95.500857 
L 1542.232386 98.553341 
L 1542.695564 102.703819 
L 1543.158742 103.364819 
L 1543.62192 104.59457 
L 1544.085099 104.960503 
L 1544.548277 108.938503 
L 1545.011455 114.685474 
L 1545.474633 123.864906 
L 1545.937811 116.222715 
L 1546.400989 123.188438 
L 1546.864168 121.152505 
L 1547.327346 123.130611 
L 1547.790524 119.972856 
L 1548.71688 106.411832 
L 1549.180058 112.958475 
L 1549.643237 112.293816 
L 1550.106415 114.679598 
L 1550.569593 113.507482 
L 1551.032771 114.474951 
L 1551.495949 120.806353 
L 1551.959127 122.255621 
L 1552.422306 121.762014 
L 1552.885484 117.676297 
L 1553.348662 124.77031 
L 1553.81184 128.200941 
L 1554.275018 130.435627 
L 1554.738196 127.437521 
L 1555.201375 128.379332 
L 1555.664553 130.783646 
L 1556.127731 132.456708 
L 1556.590909 124.124604 
L 1556.590909 124.124604 
" clip-path="url(#p0c073dc58e)" style="fill: none; stroke: #f7764a; stroke-width: 2.5; stroke-linecap: square"/>
   </g>
   <g id="patch_3">
    <path d="M 225 320.4 
L 225 43.2 
" style="fill: none; stroke: #000000; stroke-width: 0.8; stroke-linejoin: miter; stroke-linecap: square"/>
   </g>
   <g id="patch_4">
    <path d="M 1620 320.4 
L 1620 43.2 
" style="fill: none; stroke: #000000; stroke-width: 0.8; stroke-linejoin: miter; stroke-linecap: square"/>
   </g>
   <g id="patch_5">
    <path d="M 225 320.4 
L 1620 320.4 
" style="fill: none; stroke: #000000; stroke-width: 0.8; stroke-linejoin: miter; stroke-linecap: square"/>
   </g>
   <g id="patch_6">
    <path d="M 225 43.2 
L 1620 43.2 
" style="fill: none; stroke: #000000; stroke-width: 0.8; stroke-linejoin: miter; stroke-linecap: square"/>
   </g>
   <g id="text_17">
    <!-- PEJO -->
    <g transform="translate(899.329687 37.2) scale(0.2 -0.2)">
     <defs>
      <path id="DejaVuSans-50" d="M 1259 4147 
L 1259 2394 
L 2053 2394 
Q 2494 2394 2734 2622 
Q 2975 2850 2975 3272 
Q 2975 3691 2734 3919 
Q 2494 4147 2053 4147 
L 1259 4147 
z
M 628 4666 
L 2053 4666 
Q 2838 4666 3239 4311 
Q 3641 3956 3641 3272 
Q 3641 2581 3239 2228 
Q 2838 1875 2053 1875 
L 1259 1875 
L 1259 0 
L 628 0 
L 628 4666 
z
" transform="scale(0.015625)"/>
      <path id="DejaVuSans-45" d="M 628 4666 
L 3578 4666 
L 3578 4134 
L 1259 4134 
L 1259 2753 
L 3481 2753 
L 3481 2222 
L 1259 2222 
L 1259 531 
L 3634 531 
L 3634 0 
L 628 0 
L 628 4666 
z
" transform="scale(0.015625)"/>
      <path id="DejaVuSans-4a" d="M 628 4666 
L 1259 4666 
L 1259 325 
Q 1259 -519 939 -900 
Q 619 -1281 -91 -1281 
L -331 -1281 
L -331 -750 
L -134 -750 
Q 284 -750 456 -515 
Q 628 -281 628 325 
L 628 4666 
z
" transform="scale(0.015625)"/>
      <path id="DejaVuSans-4f" d="M 2522 4238 
Q 1834 4238 1429 3725 
Q 1025 3213 1025 2328 
Q 1025 1447 1429 934 
Q 1834 422 2522 422 
Q 3209 422 3611 934 
Q 4013 1447 4013 2328 
Q 4013 3213 3611 3725 
Q 3209 4238 2522 4238 
z
M 2522 4750 
Q 3503 4750 4090 4092 
Q 4678 3434 4678 2328 
Q 4678 1225 4090 567 
Q 3503 -91 2522 -91 
Q 1538 -91 948 565 
Q 359 1222 359 2328 
Q 359 3434 948 4092 
Q 1538 4750 2522 4750 
z
" transform="scale(0.015625)"/>
     </defs>
     <use xlink:href="#DejaVuSans-50"/>
     <use xlink:href="#DejaVuSans-45" x="60.302734"/>
     <use xlink:href="#DejaVuSans-4a" x="123.486328"/>
     <use xlink:href="#DejaVuSans-4f" x="152.978516"/>
    </g>
   </g>
   <g id="legend_1">
    <g id="patch_7">
     <path d="M 1559.601562 65.878125 
L 1613 65.878125 
Q 1615 65.878125 1615 63.878125 
L 1615 50.2 
Q 1615 48.2 1613 48.2 
L 1559.601562 48.2 
Q 1557.601562 48.2 1557.601562 50.2 
L 1557.601562 63.878125 
Q 1557.601562 65.878125 1559.601562 65.878125 
z
" style="fill: #ffffff; opacity: 0.8; stroke: #cccccc; stroke-linejoin: miter"/>
    </g>
    <g id="line2d_16">
     <path d="M 1561.601562 56.298437 
L 1571.601562 56.298437 
L 1581.601562 56.298437 
" style="fill: none; stroke: #f7764a; stroke-width: 2.5; stroke-linecap: square"/>
    </g>
    <g id="text_18">
     <!-- pejo -->
     <g transform="translate(1589.601562 59.798437) scale(0.1 -0.1)">
      <defs>
       <path id="DejaVuSans-70" d="M 1159 525 
L 1159 -1331 
L 581 -1331 
L 581 3500 
L 1159 3500 
L 1159 2969 
Q 1341 3281 1617 3432 
Q 1894 3584 2278 3584 
Q 2916 3584 3314 3078 
Q 3713 2572 3713 1747 
Q 3713 922 3314 415 
Q 2916 -91 2278 -91 
Q 1894 -91 1617 61 
Q 1341 213 1159 525 
z
M 3116 1747 
Q 3116 2381 2855 2742 
Q 2594 3103 2138 3103 
Q 1681 3103 1420 2742 
Q 1159 2381 1159 1747 
Q 1159 1113 1420 752 
Q 1681 391 2138 391 
Q 2594 391 2855 752 
Q 3116 1113 3116 1747 
z
" transform="scale(0.015625)"/>
       <path id="DejaVuSans-6a" d="M 603 3500 
L 1178 3500 
L 1178 -63 
Q 1178 -731 923 -1031 
Q 669 -1331 103 -1331 
L -116 -1331 
L -116 -844 
L 38 -844 
Q 366 -844 484 -692 
Q 603 -541 603 -63 
L 603 3500 
z
M 603 4863 
L 1178 4863 
L 1178 4134 
L 603 4134 
L 603 4863 
z
" transform="scale(0.015625)"/>
      </defs>
      <use xlink:href="#DejaVuSans-70"/>
      <use xlink:href="#DejaVuSans-65" x="63.476562"/>
      <use xlink:href="#DejaVuSans-6a" x="125"/>
      <use xlink:href="#DejaVuSans-6f" x="152.783203"/>
     </g>
    </g>
   </g>
  </g>
 </g>
 <defs>
  <clipPath id="p0c073dc58e">
   <rect x="225" y="43.2" width="1395" height="277.2"/>
  </clipPath>
 </defs>
</svg>
