<?xml version="1.0" encoding="utf-8" standalone="no"?>
<!DOCTYPE svg PUBLIC "-//W3C//DTD SVG 1.1//EN"
  "http://www.w3.org/Graphics/SVG/1.1/DTD/svg11.dtd">
<svg xmlns:xlink="http://www.w3.org/1999/xlink" width="1800pt" height="360pt" viewBox="0 0 1800 360" xmlns="http://www.w3.org/2000/svg" version="1.1">
 <metadata>
  <rdf:RDF xmlns:dc="http://purl.org/dc/elements/1.1/" xmlns:cc="http://creativecommons.org/ns#" xmlns:rdf="http://www.w3.org/1999/02/22-rdf-syntax-ns#">
   <cc:Work>
    <dc:type rdf:resource="http://purl.org/dc/dcmitype/StillImage"/>
    <dc:date>2024-03-25T15:23:17.717435</dc:date>
    <dc:format>image/svg+xml</dc:format>
    <dc:creator>
     <cc:Agent>
      <dc:title>Matplotlib v3.7.2, https://matplotlib.org/</dc:title>
     </cc:Agent>
    </dc:creator>
   </cc:Work>
  </rdf:RDF>
 </metadata>
 <defs>
  <style type="text/css">*{stroke-linejoin: round; stroke-linecap: butt}</style>
 </defs>
 <g id="figure_1">
  <g id="patch_1">
   <path d="M 0 360 
L 1800 360 
L 1800 0 
L 0 0 
z
" style="fill: #ffffff"/>
  </g>
  <g id="axes_1">
   <g id="patch_2">
    <path d="M 225 320.4 
L 1620 320.4 
L 1620 43.2 
L 225 43.2 
z
" style="fill: #ffffff"/>
   </g>
   <g id="matplotlib.axis_1">
    <g id="xtick_1">
     <g id="line2d_1">
      <defs>
       <path id="m9d80c41281" d="M 0 0 
L 0 3.5 
" style="stroke: #000000; stroke-width: 0.8"/>
      </defs>
      <g>
       <use xlink:href="#m9d80c41281" x="281.924597" y="320.4" style="stroke: #000000; stroke-width: 0.8"/>
      </g>
     </g>
     <g id="text_1">
      <!-- 2011 -->
      <g transform="translate(262.837097 338.797656) scale(0.15 -0.15)">
       <defs>
        <path id="DejaVuSans-32" d="M 1228 531 
L 3431 531 
L 3431 0 
L 469 0 
L 469 531 
Q 828 903 1448 1529 
Q 2069 2156 2228 2338 
Q 2531 2678 2651 2914 
Q 2772 3150 2772 3378 
Q 2772 3750 2511 3984 
Q 2250 4219 1831 4219 
Q 1534 4219 1204 4116 
Q 875 4013 500 3803 
L 500 4441 
Q 881 4594 1212 4672 
Q 1544 4750 1819 4750 
Q 2544 4750 2975 4387 
Q 3406 4025 3406 3419 
Q 3406 3131 3298 2873 
Q 3191 2616 2906 2266 
Q 2828 2175 2409 1742 
Q 1991 1309 1228 531 
z
" transform="scale(0.015625)"/>
        <path id="DejaVuSans-30" d="M 2034 4250 
Q 1547 4250 1301 3770 
Q 1056 3291 1056 2328 
Q 1056 1369 1301 889 
Q 1547 409 2034 409 
Q 2525 409 2770 889 
Q 3016 1369 3016 2328 
Q 3016 3291 2770 3770 
Q 2525 4250 2034 4250 
z
M 2034 4750 
Q 2819 4750 3233 4129 
Q 3647 3509 3647 2328 
Q 3647 1150 3233 529 
Q 2819 -91 2034 -91 
Q 1250 -91 836 529 
Q 422 1150 422 2328 
Q 422 3509 836 4129 
Q 1250 4750 2034 4750 
z
" transform="scale(0.015625)"/>
        <path id="DejaVuSans-31" d="M 794 531 
L 1825 531 
L 1825 4091 
L 703 3866 
L 703 4441 
L 1819 4666 
L 2450 4666 
L 2450 531 
L 3481 531 
L 3481 0 
L 794 0 
L 794 531 
z
" transform="scale(0.015625)"/>
       </defs>
       <use xlink:href="#DejaVuSans-32"/>
       <use xlink:href="#DejaVuSans-30" x="63.623047"/>
       <use xlink:href="#DejaVuSans-31" x="127.246094"/>
       <use xlink:href="#DejaVuSans-31" x="190.869141"/>
      </g>
     </g>
    </g>
    <g id="xtick_2">
     <g id="line2d_2">
      <g>
       <use xlink:href="#m9d80c41281" x="450.984627" y="320.4" style="stroke: #000000; stroke-width: 0.8"/>
      </g>
     </g>
     <g id="text_2">
      <!-- 2012 -->
      <g transform="translate(431.897127 338.797656) scale(0.15 -0.15)">
       <use xlink:href="#DejaVuSans-32"/>
       <use xlink:href="#DejaVuSans-30" x="63.623047"/>
       <use xlink:href="#DejaVuSans-31" x="127.246094"/>
       <use xlink:href="#DejaVuSans-32" x="190.869141"/>
      </g>
     </g>
    </g>
    <g id="xtick_3">
     <g id="line2d_3">
      <g>
       <use xlink:href="#m9d80c41281" x="620.507836" y="320.4" style="stroke: #000000; stroke-width: 0.8"/>
      </g>
     </g>
     <g id="text_3">
      <!-- 2013 -->
      <g transform="translate(601.420336 338.797656) scale(0.15 -0.15)">
       <defs>
        <path id="DejaVuSans-33" d="M 2597 2516 
Q 3050 2419 3304 2112 
Q 3559 1806 3559 1356 
Q 3559 666 3084 287 
Q 2609 -91 1734 -91 
Q 1441 -91 1130 -33 
Q 819 25 488 141 
L 488 750 
Q 750 597 1062 519 
Q 1375 441 1716 441 
Q 2309 441 2620 675 
Q 2931 909 2931 1356 
Q 2931 1769 2642 2001 
Q 2353 2234 1838 2234 
L 1294 2234 
L 1294 2753 
L 1863 2753 
Q 2328 2753 2575 2939 
Q 2822 3125 2822 3475 
Q 2822 3834 2567 4026 
Q 2313 4219 1838 4219 
Q 1578 4219 1281 4162 
Q 984 4106 628 3988 
L 628 4550 
Q 988 4650 1302 4700 
Q 1616 4750 1894 4750 
Q 2613 4750 3031 4423 
Q 3450 4097 3450 3541 
Q 3450 3153 3228 2886 
Q 3006 2619 2597 2516 
z
" transform="scale(0.015625)"/>
       </defs>
       <use xlink:href="#DejaVuSans-32"/>
       <use xlink:href="#DejaVuSans-30" x="63.623047"/>
       <use xlink:href="#DejaVuSans-31" x="127.246094"/>
       <use xlink:href="#DejaVuSans-33" x="190.869141"/>
      </g>
     </g>
    </g>
    <g id="xtick_4">
     <g id="line2d_4">
      <g>
       <use xlink:href="#m9d80c41281" x="789.567866" y="320.4" style="stroke: #000000; stroke-width: 0.8"/>
      </g>
     </g>
     <g id="text_4">
      <!-- 2014 -->
      <g transform="translate(770.480366 338.797656) scale(0.15 -0.15)">
       <defs>
        <path id="DejaVuSans-34" d="M 2419 4116 
L 825 1625 
L 2419 1625 
L 2419 4116 
z
M 2253 4666 
L 3047 4666 
L 3047 1625 
L 3713 1625 
L 3713 1100 
L 3047 1100 
L 3047 0 
L 2419 0 
L 2419 1100 
L 313 1100 
L 313 1709 
L 2253 4666 
z
" transform="scale(0.015625)"/>
       </defs>
       <use xlink:href="#DejaVuSans-32"/>
       <use xlink:href="#DejaVuSans-30" x="63.623047"/>
       <use xlink:href="#DejaVuSans-31" x="127.246094"/>
       <use xlink:href="#DejaVuSans-34" x="190.869141"/>
      </g>
     </g>
    </g>
    <g id="xtick_5">
     <g id="line2d_5">
      <g>
       <use xlink:href="#m9d80c41281" x="958.627897" y="320.4" style="stroke: #000000; stroke-width: 0.8"/>
      </g>
     </g>
     <g id="text_5">
      <!-- 2015 -->
      <g transform="translate(939.540397 338.797656) scale(0.15 -0.15)">
       <defs>
        <path id="DejaVuSans-35" d="M 691 4666 
L 3169 4666 
L 3169 4134 
L 1269 4134 
L 1269 2991 
Q 1406 3038 1543 3061 
Q 1681 3084 1819 3084 
Q 2600 3084 3056 2656 
Q 3513 2228 3513 1497 
Q 3513 744 3044 326 
Q 2575 -91 1722 -91 
Q 1428 -91 1123 -41 
Q 819 9 494 109 
L 494 744 
Q 775 591 1075 516 
Q 1375 441 1709 441 
Q 2250 441 2565 725 
Q 2881 1009 2881 1497 
Q 2881 1984 2565 2268 
Q 2250 2553 1709 2553 
Q 1456 2553 1204 2497 
Q 953 2441 691 2322 
L 691 4666 
z
" transform="scale(0.015625)"/>
       </defs>
       <use xlink:href="#DejaVuSans-32"/>
       <use xlink:href="#DejaVuSans-30" x="63.623047"/>
       <use xlink:href="#DejaVuSans-31" x="127.246094"/>
       <use xlink:href="#DejaVuSans-35" x="190.869141"/>
      </g>
     </g>
    </g>
    <g id="xtick_6">
     <g id="line2d_6">
      <g>
       <use xlink:href="#m9d80c41281" x="1127.687927" y="320.4" style="stroke: #000000; stroke-width: 0.8"/>
      </g>
     </g>
     <g id="text_6">
      <!-- 2016 -->
      <g transform="translate(1108.600427 338.797656) scale(0.15 -0.15)">
       <defs>
        <path id="DejaVuSans-36" d="M 2113 2584 
Q 1688 2584 1439 2293 
Q 1191 2003 1191 1497 
Q 1191 994 1439 701 
Q 1688 409 2113 409 
Q 2538 409 2786 701 
Q 3034 994 3034 1497 
Q 3034 2003 2786 2293 
Q 2538 2584 2113 2584 
z
M 3366 4563 
L 3366 3988 
Q 3128 4100 2886 4159 
Q 2644 4219 2406 4219 
Q 1781 4219 1451 3797 
Q 1122 3375 1075 2522 
Q 1259 2794 1537 2939 
Q 1816 3084 2150 3084 
Q 2853 3084 3261 2657 
Q 3669 2231 3669 1497 
Q 3669 778 3244 343 
Q 2819 -91 2113 -91 
Q 1303 -91 875 529 
Q 447 1150 447 2328 
Q 447 3434 972 4092 
Q 1497 4750 2381 4750 
Q 2619 4750 2861 4703 
Q 3103 4656 3366 4563 
z
" transform="scale(0.015625)"/>
       </defs>
       <use xlink:href="#DejaVuSans-32"/>
       <use xlink:href="#DejaVuSans-30" x="63.623047"/>
       <use xlink:href="#DejaVuSans-31" x="127.246094"/>
       <use xlink:href="#DejaVuSans-36" x="190.869141"/>
      </g>
     </g>
    </g>
    <g id="xtick_7">
     <g id="line2d_7">
      <g>
       <use xlink:href="#m9d80c41281" x="1297.211136" y="320.4" style="stroke: #000000; stroke-width: 0.8"/>
      </g>
     </g>
     <g id="text_7">
      <!-- 2017 -->
      <g transform="translate(1278.123636 338.797656) scale(0.15 -0.15)">
       <defs>
        <path id="DejaVuSans-37" d="M 525 4666 
L 3525 4666 
L 3525 4397 
L 1831 0 
L 1172 0 
L 2766 4134 
L 525 4134 
L 525 4666 
z
" transform="scale(0.015625)"/>
       </defs>
       <use xlink:href="#DejaVuSans-32"/>
       <use xlink:href="#DejaVuSans-30" x="63.623047"/>
       <use xlink:href="#DejaVuSans-31" x="127.246094"/>
       <use xlink:href="#DejaVuSans-37" x="190.869141"/>
      </g>
     </g>
    </g>
    <g id="xtick_8">
     <g id="line2d_8">
      <g>
       <use xlink:href="#m9d80c41281" x="1466.271167" y="320.4" style="stroke: #000000; stroke-width: 0.8"/>
      </g>
     </g>
     <g id="text_8">
      <!-- 2018 -->
      <g transform="translate(1447.183667 338.797656) scale(0.15 -0.15)">
       <defs>
        <path id="DejaVuSans-38" d="M 2034 2216 
Q 1584 2216 1326 1975 
Q 1069 1734 1069 1313 
Q 1069 891 1326 650 
Q 1584 409 2034 409 
Q 2484 409 2743 651 
Q 3003 894 3003 1313 
Q 3003 1734 2745 1975 
Q 2488 2216 2034 2216 
z
M 1403 2484 
Q 997 2584 770 2862 
Q 544 3141 544 3541 
Q 544 4100 942 4425 
Q 1341 4750 2034 4750 
Q 2731 4750 3128 4425 
Q 3525 4100 3525 3541 
Q 3525 3141 3298 2862 
Q 3072 2584 2669 2484 
Q 3125 2378 3379 2068 
Q 3634 1759 3634 1313 
Q 3634 634 3220 271 
Q 2806 -91 2034 -91 
Q 1263 -91 848 271 
Q 434 634 434 1313 
Q 434 1759 690 2068 
Q 947 2378 1403 2484 
z
M 1172 3481 
Q 1172 3119 1398 2916 
Q 1625 2713 2034 2713 
Q 2441 2713 2670 2916 
Q 2900 3119 2900 3481 
Q 2900 3844 2670 4047 
Q 2441 4250 2034 4250 
Q 1625 4250 1398 4047 
Q 1172 3844 1172 3481 
z
" transform="scale(0.015625)"/>
       </defs>
       <use xlink:href="#DejaVuSans-32"/>
       <use xlink:href="#DejaVuSans-30" x="63.623047"/>
       <use xlink:href="#DejaVuSans-31" x="127.246094"/>
       <use xlink:href="#DejaVuSans-38" x="190.869141"/>
      </g>
     </g>
    </g>
    <g id="text_9">
     <!-- Time -->
     <g transform="translate(904.149609 357.314844) scale(0.15 -0.15)">
      <defs>
       <path id="DejaVuSans-54" d="M -19 4666 
L 3928 4666 
L 3928 4134 
L 2272 4134 
L 2272 0 
L 1638 0 
L 1638 4134 
L -19 4134 
L -19 4666 
z
" transform="scale(0.015625)"/>
       <path id="DejaVuSans-69" d="M 603 3500 
L 1178 3500 
L 1178 0 
L 603 0 
L 603 3500 
z
M 603 4863 
L 1178 4863 
L 1178 4134 
L 603 4134 
L 603 4863 
z
" transform="scale(0.015625)"/>
       <path id="DejaVuSans-6d" d="M 3328 2828 
Q 3544 3216 3844 3400 
Q 4144 3584 4550 3584 
Q 5097 3584 5394 3201 
Q 5691 2819 5691 2113 
L 5691 0 
L 5113 0 
L 5113 2094 
Q 5113 2597 4934 2840 
Q 4756 3084 4391 3084 
Q 3944 3084 3684 2787 
Q 3425 2491 3425 1978 
L 3425 0 
L 2847 0 
L 2847 2094 
Q 2847 2600 2669 2842 
Q 2491 3084 2119 3084 
Q 1678 3084 1418 2786 
Q 1159 2488 1159 1978 
L 1159 0 
L 581 0 
L 581 3500 
L 1159 3500 
L 1159 2956 
Q 1356 3278 1631 3431 
Q 1906 3584 2284 3584 
Q 2666 3584 2933 3390 
Q 3200 3197 3328 2828 
z
" transform="scale(0.015625)"/>
       <path id="DejaVuSans-65" d="M 3597 1894 
L 3597 1613 
L 953 1613 
Q 991 1019 1311 708 
Q 1631 397 2203 397 
Q 2534 397 2845 478 
Q 3156 559 3463 722 
L 3463 178 
Q 3153 47 2828 -22 
Q 2503 -91 2169 -91 
Q 1331 -91 842 396 
Q 353 884 353 1716 
Q 353 2575 817 3079 
Q 1281 3584 2069 3584 
Q 2775 3584 3186 3129 
Q 3597 2675 3597 1894 
z
M 3022 2063 
Q 3016 2534 2758 2815 
Q 2500 3097 2075 3097 
Q 1594 3097 1305 2825 
Q 1016 2553 972 2059 
L 3022 2063 
z
" transform="scale(0.015625)"/>
      </defs>
      <use xlink:href="#DejaVuSans-54"/>
      <use xlink:href="#DejaVuSans-69" x="57.958984"/>
      <use xlink:href="#DejaVuSans-6d" x="85.742188"/>
      <use xlink:href="#DejaVuSans-65" x="183.154297"/>
     </g>
    </g>
   </g>
   <g id="matplotlib.axis_2">
    <g id="ytick_1">
     <g id="line2d_9">
      <defs>
       <path id="m63287cf336" d="M 0 0 
L -3.5 0 
" style="stroke: #000000; stroke-width: 0.8"/>
      </defs>
      <g>
       <use xlink:href="#m63287cf336" x="225" y="318.853829" style="stroke: #000000; stroke-width: 0.8"/>
      </g>
     </g>
     <g id="text_10">
      <!-- −0.008 -->
      <g transform="translate(162.488281 324.552657) scale(0.15 -0.15)">
       <defs>
        <path id="DejaVuSans-2212" d="M 678 2272 
L 4684 2272 
L 4684 1741 
L 678 1741 
L 678 2272 
z
" transform="scale(0.015625)"/>
        <path id="DejaVuSans-2e" d="M 684 794 
L 1344 794 
L 1344 0 
L 684 0 
L 684 794 
z
" transform="scale(0.015625)"/>
       </defs>
       <use xlink:href="#DejaVuSans-2212"/>
       <use xlink:href="#DejaVuSans-30" x="83.789062"/>
       <use xlink:href="#DejaVuSans-2e" x="147.412109"/>
       <use xlink:href="#DejaVuSans-30" x="179.199219"/>
       <use xlink:href="#DejaVuSans-30" x="242.822266"/>
       <use xlink:href="#DejaVuSans-38" x="306.445312"/>
      </g>
     </g>
    </g>
    <g id="ytick_2">
     <g id="line2d_10">
      <g>
       <use xlink:href="#m63287cf336" x="225" y="285.271199" style="stroke: #000000; stroke-width: 0.8"/>
      </g>
     </g>
     <g id="text_11">
      <!-- −0.006 -->
      <g transform="translate(162.488281 290.970027) scale(0.15 -0.15)">
       <use xlink:href="#DejaVuSans-2212"/>
       <use xlink:href="#DejaVuSans-30" x="83.789062"/>
       <use xlink:href="#DejaVuSans-2e" x="147.412109"/>
       <use xlink:href="#DejaVuSans-30" x="179.199219"/>
       <use xlink:href="#DejaVuSans-30" x="242.822266"/>
       <use xlink:href="#DejaVuSans-36" x="306.445312"/>
      </g>
     </g>
    </g>
    <g id="ytick_3">
     <g id="line2d_11">
      <g>
       <use xlink:href="#m63287cf336" x="225" y="251.688568" style="stroke: #000000; stroke-width: 0.8"/>
      </g>
     </g>
     <g id="text_12">
      <!-- −0.004 -->
      <g transform="translate(162.488281 257.387397) scale(0.15 -0.15)">
       <use xlink:href="#DejaVuSans-2212"/>
       <use xlink:href="#DejaVuSans-30" x="83.789062"/>
       <use xlink:href="#DejaVuSans-2e" x="147.412109"/>
       <use xlink:href="#DejaVuSans-30" x="179.199219"/>
       <use xlink:href="#DejaVuSans-30" x="242.822266"/>
       <use xlink:href="#DejaVuSans-34" x="306.445312"/>
      </g>
     </g>
    </g>
    <g id="ytick_4">
     <g id="line2d_12">
      <g>
       <use xlink:href="#m63287cf336" x="225" y="218.105938" style="stroke: #000000; stroke-width: 0.8"/>
      </g>
     </g>
     <g id="text_13">
      <!-- −0.002 -->
      <g transform="translate(162.488281 223.804766) scale(0.15 -0.15)">
       <use xlink:href="#DejaVuSans-2212"/>
       <use xlink:href="#DejaVuSans-30" x="83.789062"/>
       <use xlink:href="#DejaVuSans-2e" x="147.412109"/>
       <use xlink:href="#DejaVuSans-30" x="179.199219"/>
       <use xlink:href="#DejaVuSans-30" x="242.822266"/>
       <use xlink:href="#DejaVuSans-32" x="306.445312"/>
      </g>
     </g>
    </g>
    <g id="ytick_5">
     <g id="line2d_13">
      <g>
       <use xlink:href="#m63287cf336" x="225" y="184.523308" style="stroke: #000000; stroke-width: 0.8"/>
      </g>
     </g>
     <g id="text_14">
      <!-- 0.000 -->
      <g transform="translate(175.057813 190.222136) scale(0.15 -0.15)">
       <use xlink:href="#DejaVuSans-30"/>
       <use xlink:href="#DejaVuSans-2e" x="63.623047"/>
       <use xlink:href="#DejaVuSans-30" x="95.410156"/>
       <use xlink:href="#DejaVuSans-30" x="159.033203"/>
       <use xlink:href="#DejaVuSans-30" x="222.65625"/>
      </g>
     </g>
    </g>
    <g id="ytick_6">
     <g id="line2d_14">
      <g>
       <use xlink:href="#m63287cf336" x="225" y="150.940677" style="stroke: #000000; stroke-width: 0.8"/>
      </g>
     </g>
     <g id="text_15">
      <!-- 0.002 -->
      <g transform="translate(175.057813 156.639505) scale(0.15 -0.15)">
       <use xlink:href="#DejaVuSans-30"/>
       <use xlink:href="#DejaVuSans-2e" x="63.623047"/>
       <use xlink:href="#DejaVuSans-30" x="95.410156"/>
       <use xlink:href="#DejaVuSans-30" x="159.033203"/>
       <use xlink:href="#DejaVuSans-32" x="222.65625"/>
      </g>
     </g>
    </g>
    <g id="ytick_7">
     <g id="line2d_15">
      <g>
       <use xlink:href="#m63287cf336" x="225" y="117.358047" style="stroke: #000000; stroke-width: 0.8"/>
      </g>
     </g>
     <g id="text_16">
      <!-- 0.004 -->
      <g transform="translate(175.057813 123.056875) scale(0.15 -0.15)">
       <use xlink:href="#DejaVuSans-30"/>
       <use xlink:href="#DejaVuSans-2e" x="63.623047"/>
       <use xlink:href="#DejaVuSans-30" x="95.410156"/>
       <use xlink:href="#DejaVuSans-30" x="159.033203"/>
       <use xlink:href="#DejaVuSans-34" x="222.65625"/>
      </g>
     </g>
    </g>
    <g id="ytick_8">
     <g id="line2d_16">
      <g>
       <use xlink:href="#m63287cf336" x="225" y="83.775416" style="stroke: #000000; stroke-width: 0.8"/>
      </g>
     </g>
     <g id="text_17">
      <!-- 0.006 -->
      <g transform="translate(175.057813 89.474244) scale(0.15 -0.15)">
       <use xlink:href="#DejaVuSans-30"/>
       <use xlink:href="#DejaVuSans-2e" x="63.623047"/>
       <use xlink:href="#DejaVuSans-30" x="95.410156"/>
       <use xlink:href="#DejaVuSans-30" x="159.033203"/>
       <use xlink:href="#DejaVuSans-36" x="222.65625"/>
      </g>
     </g>
    </g>
    <g id="ytick_9">
     <g id="line2d_17">
      <g>
       <use xlink:href="#m63287cf336" x="225" y="50.192786" style="stroke: #000000; stroke-width: 0.8"/>
      </g>
     </g>
     <g id="text_18">
      <!-- 0.008 -->
      <g transform="translate(175.057813 55.891614) scale(0.15 -0.15)">
       <use xlink:href="#DejaVuSans-30"/>
       <use xlink:href="#DejaVuSans-2e" x="63.623047"/>
       <use xlink:href="#DejaVuSans-30" x="95.410156"/>
       <use xlink:href="#DejaVuSans-30" x="159.033203"/>
       <use xlink:href="#DejaVuSans-38" x="222.65625"/>
      </g>
     </g>
    </g>
    <g id="text_19">
     <!-- North(m) -->
     <g transform="translate(155.36875 215.934375) rotate(-90) scale(0.15 -0.15)">
      <defs>
       <path id="DejaVuSans-4e" d="M 628 4666 
L 1478 4666 
L 3547 763 
L 3547 4666 
L 4159 4666 
L 4159 0 
L 3309 0 
L 1241 3903 
L 1241 0 
L 628 0 
L 628 4666 
z
" transform="scale(0.015625)"/>
       <path id="DejaVuSans-6f" d="M 1959 3097 
Q 1497 3097 1228 2736 
Q 959 2375 959 1747 
Q 959 1119 1226 758 
Q 1494 397 1959 397 
Q 2419 397 2687 759 
Q 2956 1122 2956 1747 
Q 2956 2369 2687 2733 
Q 2419 3097 1959 3097 
z
M 1959 3584 
Q 2709 3584 3137 3096 
Q 3566 2609 3566 1747 
Q 3566 888 3137 398 
Q 2709 -91 1959 -91 
Q 1206 -91 779 398 
Q 353 888 353 1747 
Q 353 2609 779 3096 
Q 1206 3584 1959 3584 
z
" transform="scale(0.015625)"/>
       <path id="DejaVuSans-72" d="M 2631 2963 
Q 2534 3019 2420 3045 
Q 2306 3072 2169 3072 
Q 1681 3072 1420 2755 
Q 1159 2438 1159 1844 
L 1159 0 
L 581 0 
L 581 3500 
L 1159 3500 
L 1159 2956 
Q 1341 3275 1631 3429 
Q 1922 3584 2338 3584 
Q 2397 3584 2469 3576 
Q 2541 3569 2628 3553 
L 2631 2963 
z
" transform="scale(0.015625)"/>
       <path id="DejaVuSans-74" d="M 1172 4494 
L 1172 3500 
L 2356 3500 
L 2356 3053 
L 1172 3053 
L 1172 1153 
Q 1172 725 1289 603 
Q 1406 481 1766 481 
L 2356 481 
L 2356 0 
L 1766 0 
Q 1100 0 847 248 
Q 594 497 594 1153 
L 594 3053 
L 172 3053 
L 172 3500 
L 594 3500 
L 594 4494 
L 1172 4494 
z
" transform="scale(0.015625)"/>
       <path id="DejaVuSans-68" d="M 3513 2113 
L 3513 0 
L 2938 0 
L 2938 2094 
Q 2938 2591 2744 2837 
Q 2550 3084 2163 3084 
Q 1697 3084 1428 2787 
Q 1159 2491 1159 1978 
L 1159 0 
L 581 0 
L 581 4863 
L 1159 4863 
L 1159 2956 
Q 1366 3272 1645 3428 
Q 1925 3584 2291 3584 
Q 2894 3584 3203 3211 
Q 3513 2838 3513 2113 
z
" transform="scale(0.015625)"/>
       <path id="DejaVuSans-28" d="M 1984 4856 
Q 1566 4138 1362 3434 
Q 1159 2731 1159 2009 
Q 1159 1288 1364 580 
Q 1569 -128 1984 -844 
L 1484 -844 
Q 1016 -109 783 600 
Q 550 1309 550 2009 
Q 550 2706 781 3412 
Q 1013 4119 1484 4856 
L 1984 4856 
z
" transform="scale(0.015625)"/>
       <path id="DejaVuSans-29" d="M 513 4856 
L 1013 4856 
Q 1481 4119 1714 3412 
Q 1947 2706 1947 2009 
Q 1947 1309 1714 600 
Q 1481 -109 1013 -844 
L 513 -844 
Q 928 -128 1133 580 
Q 1338 1288 1338 2009 
Q 1338 2731 1133 3434 
Q 928 4138 513 4856 
z
" transform="scale(0.015625)"/>
      </defs>
      <use xlink:href="#DejaVuSans-4e"/>
      <use xlink:href="#DejaVuSans-6f" x="74.804688"/>
      <use xlink:href="#DejaVuSans-72" x="135.986328"/>
      <use xlink:href="#DejaVuSans-74" x="177.099609"/>
      <use xlink:href="#DejaVuSans-68" x="216.308594"/>
      <use xlink:href="#DejaVuSans-28" x="279.6875"/>
      <use xlink:href="#DejaVuSans-6d" x="318.701172"/>
      <use xlink:href="#DejaVuSans-29" x="416.113281"/>
     </g>
    </g>
   </g>
   <g id="line2d_18">
    <path d="M 288.409091 179.252908 
L 289.335447 190.238962 
L 289.798625 189.07843 
L 290.261804 180.194453 
L 290.724982 173.490829 
L 291.18816 170.717331 
L 291.651338 171.164836 
L 292.114516 164.905409 
L 292.577694 155.014261 
L 293.040873 154.171233 
L 293.504051 157.770707 
L 293.967229 159.009802 
L 294.430407 161.174819 
L 294.893585 162.53625 
L 295.819942 175.947986 
L 296.28312 173.639316 
L 296.746298 170.404725 
L 297.209476 164.768975 
L 297.672654 161.519992 
L 298.135832 157.311505 
L 298.599011 149.711172 
L 299.062189 149.297522 
L 299.988545 157.825383 
L 300.451723 167.097923 
L 300.914901 167.080068 
L 301.37808 171.329606 
L 301.841258 171.70035 
L 302.304436 174.083654 
L 302.767614 174.339257 
L 303.69397 168.872757 
L 304.157149 170.109453 
L 304.620327 165.354049 
L 305.083505 168.353833 
L 305.546683 165.109647 
L 306.009861 157.684423 
L 306.473039 153.996467 
L 306.936218 152.896772 
L 307.399396 159.398745 
L 307.862574 157.056492 
L 308.325752 151.583859 
L 308.78893 150.29706 
L 309.252108 150.128083 
L 309.715287 156.195881 
L 310.178465 159.010961 
L 310.641643 157.028522 
L 311.104821 161.026191 
L 312.031177 171.763309 
L 312.494356 179.181608 
L 313.420712 186.632427 
L 313.88389 186.022078 
L 314.347068 189.58797 
L 314.810246 194.070188 
L 315.273425 196.97642 
L 315.736603 191.714878 
L 316.662959 175.854553 
L 318.515672 135.721454 
L 318.97885 135.957868 
L 319.442028 138.717777 
L 319.905206 145.41165 
L 320.368384 159.385759 
L 320.831563 166.257141 
L 321.294741 176.155757 
L 321.757919 181.674239 
L 322.221097 185.633527 
L 322.684275 186.767077 
L 323.147453 184.719871 
L 324.07381 170.936872 
L 325.000166 163.069213 
L 325.463344 164.185972 
L 325.926522 164.280859 
L 326.389701 177.95992 
L 326.852879 179.748331 
L 327.316057 202.408346 
L 327.779235 210.740573 
L 328.242413 232.911242 
L 329.16877 258.969236 
L 329.631948 259.536679 
L 330.095126 269.569625 
L 330.558304 263.19266 
L 331.021482 262.495956 
L 332.411017 225.240033 
L 332.874195 215.353683 
L 333.337373 210.466346 
L 333.800551 200.071459 
L 334.263729 195.572722 
L 334.726907 187.463852 
L 335.190086 185.798049 
L 335.653264 178.883761 
L 336.116442 169.647475 
L 336.57962 157.328782 
L 337.042798 153.446526 
L 337.505976 147.352614 
L 337.969155 143.916527 
L 338.432333 134.797779 
L 338.895511 132.683409 
L 339.821867 141.657439 
L 340.285045 139.015342 
L 340.748224 140.978862 
L 341.211402 142.033253 
L 341.67458 141.847485 
L 342.137758 147.836124 
L 342.600936 147.249763 
L 343.064114 144.175889 
L 343.527293 147.564272 
L 343.990471 145.447503 
L 344.453649 146.641022 
L 344.916827 152.430563 
L 345.843183 148.837493 
L 346.306362 154.85012 
L 346.76954 153.102759 
L 347.232718 155.075875 
L 347.695896 158.001298 
L 348.159074 154.332531 
L 348.622252 152.177382 
L 349.085431 158.684152 
L 349.548609 154.113453 
L 350.011787 155.007126 
L 350.474965 160.09623 
L 350.938143 158.34887 
L 351.401321 163.764205 
L 351.8645 165.746915 
L 352.327678 157.719603 
L 352.790856 159.472033 
L 353.254034 158.94804 
L 353.717212 156.975196 
L 354.18039 156.580736 
L 354.643569 153.602812 
L 355.106747 157.173502 
L 355.569925 163.826596 
L 356.033103 164.13977 
L 356.496281 165.160578 
L 356.959459 162.679198 
L 357.422638 167.562008 
L 357.885816 163.459066 
L 358.348994 160.663448 
L 358.812172 156.181502 
L 359.27535 155.679098 
L 359.738528 160.137328 
L 360.201707 167.418898 
L 360.664885 167.357866 
L 361.128063 174.207659 
L 362.054419 176.841768 
L 362.517597 176.461701 
L 362.980776 175.287644 
L 363.907132 161.065672 
L 364.833488 157.49659 
L 365.296666 164.399156 
L 365.759845 168.725454 
L 366.223023 175.716774 
L 366.686201 178.363941 
L 367.149379 185.108189 
L 367.612557 194.032909 
L 368.075735 196.267489 
L 368.538914 194.659257 
L 369.002092 195.277073 
L 369.46527 182.903209 
L 369.928448 177.965499 
L 370.391626 176.568358 
L 370.854804 170.392888 
L 371.317983 173.939589 
L 371.781161 173.2141 
L 372.244339 174.150952 
L 373.170695 190.949735 
L 373.633873 190.831132 
L 374.097052 192.693905 
L 374.56023 186.484852 
L 375.023408 190.007566 
L 375.949764 185.774028 
L 376.412942 183.158317 
L 376.876121 184.973114 
L 377.339299 179.306181 
L 377.802477 185.194072 
L 378.265655 179.536734 
L 378.728833 177.909312 
L 379.192011 177.608403 
L 379.65519 179.883762 
L 380.118368 180.172949 
L 380.581546 187.265017 
L 381.044724 186.107751 
L 381.507902 190.885016 
L 381.97108 190.533734 
L 382.434259 189.028648 
L 382.897437 191.020954 
L 383.360615 190.837585 
L 383.823793 183.179681 
L 384.286971 169.841516 
L 384.750149 164.99256 
L 385.213328 161.585258 
L 385.676506 159.780328 
L 386.139684 158.970883 
L 386.602862 156.367165 
L 387.06604 159.426919 
L 387.529218 175.931718 
L 387.992397 179.622345 
L 388.455575 184.891356 
L 388.918753 184.398547 
L 389.381931 178.115133 
L 389.845109 178.88647 
L 390.308287 182.45476 
L 391.234644 176.278227 
L 391.697822 177.594082 
L 392.161 184.367115 
L 392.624178 188.328802 
L 393.087356 190.117213 
L 393.550535 185.752806 
L 394.013713 183.544884 
L 394.476891 183.217589 
L 394.940069 180.371597 
L 395.403247 176.237472 
L 395.866425 175.811828 
L 396.329604 176.765471 
L 396.792782 180.468091 
L 397.25596 180.332697 
L 397.719138 187.079344 
L 398.182316 184.175782 
L 398.645494 188.646006 
L 399.108673 186.730732 
L 399.571851 185.695803 
L 400.035029 187.165179 
L 400.498207 188.073246 
L 400.961385 184.785882 
L 401.424563 189.721465 
L 401.887742 187.820584 
L 402.35092 199.798925 
L 402.814098 206.444824 
L 403.277276 201.411163 
L 403.740454 202.830165 
L 404.203632 197.108061 
L 404.666811 198.790926 
L 405.129989 197.609673 
L 405.593167 185.540452 
L 406.056345 178.815666 
L 406.519523 180.126724 
L 406.982701 177.213566 
L 407.44588 180.906592 
L 407.909058 178.633904 
L 408.372236 182.183004 
L 409.298592 184.596428 
L 409.76177 184.638542 
L 410.688127 192.842571 
L 411.151305 199.368531 
L 411.614483 199.314695 
L 412.077661 198.318146 
L 412.540839 203.776659 
L 413.004018 194.202147 
L 413.467196 199.017792 
L 413.930374 193.418025 
L 414.393552 184.709465 
L 414.85673 182.676652 
L 415.319908 184.405094 
L 415.783087 177.166974 
L 416.246265 187.408613 
L 416.709443 182.422928 
L 417.172621 180.992203 
L 417.635799 179.014562 
L 418.098977 175.108319 
L 418.562156 175.711743 
L 419.025334 172.49874 
L 419.488512 156.860165 
L 419.95169 155.854021 
L 420.414868 158.637917 
L 420.878046 163.040976 
L 421.341225 161.94368 
L 422.267581 161.466598 
L 422.730759 176.229898 
L 423.657115 176.585187 
L 424.120294 180.470113 
L 424.583472 188.771156 
L 425.04665 188.475045 
L 425.509828 188.38043 
L 425.973006 181.468541 
L 426.436184 179.522083 
L 426.899363 179.993576 
L 427.362541 175.538016 
L 427.825719 168.899586 
L 428.288897 167.034686 
L 428.752075 167.119978 
L 429.215253 172.460952 
L 429.678432 171.150165 
L 430.14161 171.038759 
L 430.604788 170.2557 
L 431.067966 168.551517 
L 431.531144 168.82871 
L 431.994322 169.907088 
L 432.4575 174.142234 
L 432.920679 173.908491 
L 433.383857 173.115837 
L 433.847035 170.068349 
L 434.310213 176.500758 
L 435.236569 182.675436 
L 435.699748 179.627948 
L 436.162926 181.334802 
L 436.626104 178.654324 
L 437.089282 187.300788 
L 437.55246 179.779614 
L 438.015638 181.280174 
L 438.478817 181.20235 
L 438.941995 186.480956 
L 439.405173 189.826161 
L 439.868351 190.112949 
L 440.331529 183.58726 
L 440.794707 185.987355 
L 441.257886 183.43641 
L 441.721064 178.38356 
L 442.184242 175.086601 
L 442.64742 175.133513 
L 443.573776 181.166664 
L 444.036955 178.323071 
L 444.500133 172.963179 
L 444.963311 171.534854 
L 445.426489 167.772536 
L 445.889667 161.136504 
L 446.352845 159.432321 
L 446.816024 154.249938 
L 447.279202 161.879328 
L 448.205558 164.773415 
L 449.131914 171.8929 
L 449.595093 171.368756 
L 450.058271 171.727354 
L 450.521449 177.730233 
L 450.984627 172.288632 
L 451.447805 170.865104 
L 451.910983 169.894942 
L 452.374162 165.823184 
L 452.83734 167.73633 
L 453.300518 163.364727 
L 453.763696 161.427865 
L 454.226874 158.941687 
L 454.690052 158.122646 
L 455.153231 153.218519 
L 455.616409 145.176814 
L 456.079587 139.708978 
L 456.542765 142.0563 
L 457.005943 134.136932 
L 457.9323 114.316256 
L 458.395478 108.488606 
L 458.858656 105.095697 
L 459.321834 105.852641 
L 459.785012 100.660663 
L 460.24819 102.931224 
L 460.711369 106.64344 
L 461.174547 107.875339 
L 461.637725 113.513759 
L 462.100903 117.017283 
L 463.027259 107.388935 
L 463.490438 101.882718 
L 463.953616 100.619908 
L 464.416794 100.95467 
L 464.879972 100.550615 
L 465.34315 98.820046 
L 465.806328 98.339231 
L 466.732685 96.727537 
L 467.195863 95.229647 
L 468.122219 80.698235 
L 468.585397 79.351468 
L 469.048576 79.18489 
L 469.511754 81.249158 
L 469.974932 79.770459 
L 470.901288 91.483873 
L 471.364466 94.529233 
L 471.827645 111.264314 
L 472.290823 111.054558 
L 473.217179 113.723162 
L 473.680357 119.030401 
L 474.143535 116.911081 
L 475.069892 125.903998 
L 475.53307 107.355575 
L 475.996248 111.816052 
L 476.459426 105.77971 
L 476.922604 110.062831 
L 477.385783 110.27046 
L 477.848961 100.170619 
L 478.312139 97.123132 
L 479.701673 125.336547 
L 480.62803 124.007906 
L 481.091208 134.016865 
L 481.554386 140.223791 
L 482.943921 127.567145 
L 483.407099 118.112571 
L 483.870277 118.627241 
L 484.333455 116.121873 
L 484.796633 109.10204 
L 485.259811 117.182396 
L 485.72299 117.138155 
L 486.186168 124.532467 
L 487.112524 150.590461 
L 488.03888 163.368924 
L 488.502059 161.842249 
L 488.965237 159.646321 
L 489.428415 156.080701 
L 489.891593 148.122953 
L 490.354771 142.933373 
L 490.817949 143.169787 
L 491.281128 144.785487 
L 491.744306 147.209569 
L 492.207484 166.835155 
L 492.670662 176.160467 
L 493.597018 189.380302 
L 494.060197 194.277505 
L 494.523375 190.803038 
L 494.986553 193.735657 
L 495.449731 183.196844 
L 495.912909 179.417735 
L 497.302444 173.743877 
L 497.765622 183.237103 
L 498.2288 183.499903 
L 498.691978 179.411354 
L 499.155156 180.062753 
L 499.618335 179.339663 
L 500.081513 176.121863 
L 500.544691 174.875843 
L 501.007869 172.440039 
L 501.471047 165.024411 
L 501.934225 164.550792 
L 502.860582 160.561927 
L 503.32376 159.46463 
L 503.786938 160.555002 
L 504.250116 162.633663 
L 504.713294 161.948953 
L 505.176473 159.503554 
L 505.639651 156.000302 
L 506.566007 174.080023 
L 507.492363 168.311279 
L 507.955542 170.015733 
L 508.41872 172.552557 
L 509.808254 131.422638 
L 510.271432 131.395188 
L 510.734611 130.885588 
L 511.197789 136.502418 
L 511.660967 135.666587 
L 512.124145 153.970456 
L 512.587323 163.965022 
L 513.050501 157.324193 
L 513.51368 157.467055 
L 513.976858 158.799702 
L 514.440036 148.695064 
L 514.903214 146.02658 
L 515.366392 145.034829 
L 515.82957 139.768489 
L 516.292749 149.976545 
L 516.755927 148.030088 
L 517.219105 142.994029 
L 517.682283 149.433634 
L 518.145461 152.303885 
L 518.608639 147.807547 
L 519.071818 150.936864 
L 519.998174 146.926411 
L 520.461352 156.553967 
L 520.92453 155.195206 
L 521.387708 150.470985 
L 522.314065 165.022131 
L 522.777243 166.189263 
L 523.240421 166.173807 
L 523.703599 163.478937 
L 524.166777 167.649316 
L 524.629956 175.640919 
L 525.093134 175.661444 
L 525.556312 172.712305 
L 526.482668 178.277699 
L 526.945846 179.574364 
L 527.409025 178.688159 
L 527.872203 178.44482 
L 528.798559 170.48361 
L 529.261737 171.950587 
L 529.724915 175.540467 
L 530.188093 173.865069 
L 531.11445 168.302618 
L 531.577628 169.728816 
L 532.503984 176.740662 
L 532.967162 176.672433 
L 533.430341 175.320868 
L 533.893519 181.92119 
L 534.819875 184.927107 
L 535.746231 199.519032 
L 536.672588 199.049147 
L 537.135766 196.886801 
L 537.598944 197.252748 
L 538.062122 201.005743 
L 538.5253 198.843397 
L 538.988479 185.131026 
L 539.451657 182.328211 
L 539.914835 183.509736 
L 540.378013 183.875683 
L 540.841191 181.519038 
L 541.304369 185.032157 
L 541.767548 180.475849 
L 542.693904 178.981694 
L 543.157082 180.371911 
L 543.62026 175.8228 
L 544.083438 180.125111 
L 544.546617 175.398491 
L 545.009795 175.704469 
L 545.472973 178.936933 
L 545.936151 184.498593 
L 546.399329 178.09524 
L 546.862507 181.308514 
L 547.325686 178.452927 
L 547.788864 179.447349 
L 548.252042 182.296012 
L 548.71522 187.972811 
L 549.178398 187.482401 
L 549.641576 194.152287 
L 550.104755 192.978231 
L 550.567933 195.56303 
L 551.031111 188.715907 
L 551.494289 193.677877 
L 551.957467 192.218367 
L 552.420645 189.420351 
L 552.883824 191.522999 
L 553.347002 194.321288 
L 553.81018 190.033641 
L 554.273358 190.382797 
L 555.199714 174.939856 
L 555.662893 178.654471 
L 556.126071 181.186497 
L 556.589249 183.063662 
L 557.052427 182.477302 
L 557.515605 186.930734 
L 557.978783 188.829488 
L 558.441962 193.546784 
L 559.368318 197.855228 
L 559.831496 191.811689 
L 560.294674 204.996606 
L 560.757852 212.237397 
L 561.221031 199.295027 
L 561.684209 201.534405 
L 562.147387 198.163084 
L 562.610565 189.867111 
L 563.073743 195.781388 
L 563.536921 181.140697 
L 564.0001 172.470517 
L 564.463278 186.602943 
L 564.926456 184.241501 
L 565.389634 183.633551 
L 565.852812 186.007259 
L 566.31599 190.319165 
L 567.242347 205.402836 
L 567.705525 204.082454 
L 568.168703 207.04146 
L 568.631881 207.843981 
L 569.095059 210.709435 
L 569.558238 191.484714 
L 570.021416 181.02506 
L 570.484594 180.052499 
L 570.947772 186.664815 
L 571.41095 185.039792 
L 571.874128 188.22428 
L 572.337307 185.754894 
L 573.263663 216.667977 
L 573.726841 219.519038 
L 574.190019 216.435569 
L 575.116376 226.493839 
L 576.042732 240.560435 
L 576.969088 230.222054 
L 577.432266 221.314397 
L 577.895445 215.940113 
L 578.358623 207.197971 
L 579.284979 195.888092 
L 579.748157 192.71347 
L 580.211335 191.812872 
L 580.674514 195.748173 
L 581.137692 194.514147 
L 581.60087 187.189671 
L 582.064048 177.514411 
L 582.527226 173.723308 
L 583.453583 172.879217 
L 583.916761 175.454421 
L 584.379939 160.417934 
L 584.843117 162.35027 
L 585.306295 169.185671 
L 585.769473 170.180093 
L 586.69583 168.949801 
L 587.159008 165.336206 
L 587.622186 179.586172 
L 588.085364 182.338884 
L 588.548542 180.538751 
L 589.011721 177.90385 
L 589.474899 178.250606 
L 589.938077 180.821013 
L 590.401255 181.810637 
L 590.864433 168.741133 
L 591.327611 171.150822 
L 591.79079 170.981846 
L 592.253968 177.812449 
L 593.180324 185.510339 
L 593.643502 187.584203 
L 594.10668 202.944794 
L 594.569859 201.326967 
L 595.033037 197.922064 
L 595.959393 187.451751 
L 596.422571 171.626072 
L 596.885749 161.039284 
L 597.348928 156.008022 
L 597.812106 157.786838 
L 598.275284 157.716211 
L 598.738462 152.111645 
L 599.20164 149.970889 
L 599.664818 154.220427 
L 600.127997 159.506229 
L 600.591175 163.088912 
L 601.054353 162.339435 
L 601.980709 168.775578 
L 602.443887 172.516579 
L 603.370244 177.54705 
L 604.2966 155.994469 
L 604.759778 154.002435 
L 605.222956 154.749785 
L 605.686135 151.025847 
L 606.149313 150.132445 
L 606.612491 152.460577 
L 607.538847 186.09865 
L 609.39156 223.680556 
L 612.170629 241.99402 
L 614.023342 289.434827 
L 614.48652 296.308608 
L 614.949698 307.8 
L 615.412876 297.740939 
L 616.802411 295.24726 
L 617.265589 295.999104 
L 617.728767 285.64709 
L 618.191945 289.766791 
L 618.655123 292.466427 
L 619.118301 285.674172 
L 620.044658 281.365968 
L 620.507836 276.939194 
L 620.971014 282.855869 
L 621.434192 265.564549 
L 622.823727 268.468079 
L 623.750083 279.631569 
L 624.213261 274.446483 
L 624.676439 266.97298 
L 625.139618 265.131764 
L 625.602796 281.705824 
L 626.065974 280.709275 
L 627.455508 281.780153 
L 628.381865 281.848198 
L 629.308221 296.537561 
L 629.771399 294.931271 
L 630.234577 288.234815 
L 630.697755 283.865155 
L 631.160934 276.442178 
L 631.624112 271.497272 
L 632.550468 268.206446 
L 633.013646 264.919082 
L 633.476824 265.983068 
L 633.940003 265.677362 
L 634.403181 263.00408 
L 634.866359 271.525809 
L 635.329537 262.147995 
L 635.792715 265.306098 
L 636.255893 270.570311 
L 636.719072 272.469065 
L 637.18225 263.335925 
L 637.645428 250.419941 
L 638.108606 233.346908 
L 638.571784 230.28023 
L 639.034962 223.260396 
L 639.498141 219.905867 
L 639.961319 206.080754 
L 640.424497 202.491147 
L 641.350853 216.812012 
L 641.814031 218.804317 
L 642.27721 216.294151 
L 642.740388 208.665033 
L 643.666744 197.815717 
L 644.129922 189.776411 
L 645.056279 184.804054 
L 645.519457 181.389557 
L 645.982635 185.233704 
L 646.445813 193.894561 
L 646.908991 205.150875 
L 647.372169 213.106496 
L 647.835348 211.567828 
L 648.298526 212.905272 
L 648.761704 216.780603 
L 649.224882 218.15163 
L 649.68806 220.594903 
L 650.151238 217.046074 
L 650.614417 218.023704 
L 651.077595 220.11196 
L 651.540773 224.610969 
L 652.003951 221.438746 
L 652.467129 217.431755 
L 652.930307 211.695258 
L 653.393486 211.286405 
L 653.856664 200.562887 
L 654.319842 185.979766 
L 654.78302 181.975173 
L 655.246198 181.97411 
L 655.709376 179.485533 
L 656.172555 181.26195 
L 656.635733 181.942134 
L 657.098911 187.861209 
L 657.562089 195.425832 
L 658.025267 191.917783 
L 658.488445 183.089285 
L 658.951624 180.243293 
L 659.414802 179.280327 
L 659.87798 175.604364 
L 660.341158 173.403638 
L 660.804336 176.11797 
L 661.267514 173.734939 
L 661.730693 173.877801 
L 662.193871 176.273098 
L 663.583405 166.780416 
L 664.046583 164.488537 
L 664.509762 166.406481 
L 664.97294 172.299169 
L 665.436118 171.098726 
L 665.899296 173.721906 
L 666.825652 185.200241 
L 667.288831 181.531474 
L 667.752009 180.654864 
L 668.215187 176.376812 
L 668.678365 166.677565 
L 670.0679 127.66575 
L 670.531078 129.072759 
L 670.994256 123.149158 
L 671.457434 121.850366 
L 672.38379 134.532879 
L 673.310147 156.325879 
L 673.773325 161.793987 
L 674.236503 174.336036 
L 675.162859 176.862201 
L 676.089216 196.02856 
L 676.552394 206.589233 
L 677.015572 211.09304 
L 677.47875 211.482974 
L 677.941928 221.53751 
L 678.405107 226.758545 
L 678.868285 223.857382 
L 679.794641 203.132373 
L 680.720997 177.75617 
L 681.184176 172.655345 
L 681.647354 160.821201 
L 682.57371 150.777868 
L 683.036888 148.509977 
L 683.500066 152.601197 
L 683.963245 151.566268 
L 684.426423 135.054544 
L 684.889601 141.849166 
L 685.352779 139.132707 
L 685.815957 135.540701 
L 686.279135 133.191252 
L 686.742314 133.837853 
L 687.205492 133.959127 
L 687.66867 142.236182 
L 688.595026 150.704074 
L 689.058204 146.831413 
L 689.521383 144.321247 
L 689.984561 136.735307 
L 690.447739 143.666658 
L 691.374095 128.938547 
L 691.837273 127.109629 
L 693.226808 144.269562 
L 693.689986 144.237314 
L 694.153164 154.378205 
L 694.616342 153.160971 
L 695.079521 158.194903 
L 695.542699 166.229683 
L 696.469055 170.214294 
L 696.932233 167.109236 
L 697.395411 173.64959 
L 697.85859 184.320606 
L 698.321768 185.087146 
L 698.784946 183.263025 
L 699.248124 186.135675 
L 700.17448 189.5134 
L 700.637659 186.566661 
L 701.100837 177.507882 
L 701.564015 175.966815 
L 702.027193 171.92864 
L 702.490371 165.801145 
L 702.953549 169.043204 
L 703.416728 156.561396 
L 703.879906 157.702142 
L 704.343084 166.852345 
L 704.806262 169.070134 
L 705.26944 177.392765 
L 705.732618 181.325667 
L 706.195797 178.211014 
L 706.658975 191.911664 
L 707.122153 191.044648 
L 707.585331 184.969926 
L 708.048509 183.553595 
L 708.511687 178.114544 
L 708.974866 182.472026 
L 709.438044 183.919813 
L 709.901222 183.674076 
L 710.3644 185.201022 
L 710.827578 191.604646 
L 711.290756 193.09801 
L 711.753935 197.318763 
L 712.217113 190.174194 
L 712.680291 194.203046 
L 714.069825 181.958987 
L 714.533004 181.221505 
L 714.996182 184.456367 
L 715.45936 190.28189 
L 715.922538 188.884749 
L 717.312073 214.893705 
L 717.775251 221.237359 
L 718.238429 215.105067 
L 718.701607 212.266271 
L 719.164785 211.305704 
L 719.627963 209.371241 
L 720.55432 193.87073 
L 721.017498 189.578286 
L 721.480676 195.909947 
L 721.943854 199.005682 
L 722.407032 195.300934 
L 722.870211 194.316379 
L 723.796567 204.444213 
L 724.259745 215.033672 
L 724.722923 214.272202 
L 725.186101 213.839362 
L 725.64928 220.108655 
L 726.112458 221.681178 
L 726.575636 220.533507 
L 727.038814 217.138199 
L 727.501992 189.522619 
L 727.96517 190.80729 
L 728.428348 188.184383 
L 728.891527 189.154817 
L 729.354705 188.94746 
L 729.817883 186.900255 
L 730.281061 190.648452 
L 730.744239 210.545097 
L 731.207417 206.139912 
L 731.670596 212.063784 
L 732.596952 210.195422 
L 733.06013 212.358039 
L 733.523308 202.742749 
L 733.986486 199.4266 
L 734.449665 202.004203 
L 734.912843 200.681423 
L 735.376021 196.355396 
L 735.839199 199.115305 
L 736.302377 198.989506 
L 736.765555 205.949642 
L 737.691912 211.284754 
L 738.15509 203.250246 
L 738.618268 203.573015 
L 739.081446 202.276621 
L 739.544624 204.276123 
L 740.007803 209.686661 
L 740.470981 205.722847 
L 740.934159 203.075952 
L 741.397337 207.541378 
L 741.860515 206.2162 
L 742.323693 195.317573 
L 742.786872 190.454224 
L 743.25005 180.970865 
L 743.713228 184.726259 
L 744.176406 180.109982 
L 744.639584 176.709877 
L 745.102762 176.967879 
L 745.565941 187.557338 
L 746.029119 190.931329 
L 746.492297 193.372203 
L 746.955475 180.688899 
L 747.418653 175.866329 
L 747.881831 180.97942 
L 748.34501 183.873659 
L 748.808188 182.534088 
L 749.271366 180.683581 
L 749.734544 180.137999 
L 750.6609 191.448421 
L 751.124079 188.302585 
L 751.587257 178.821624 
L 752.513613 170.128792 
L 752.976791 171.619757 
L 753.439969 176.704063 
L 753.903148 176.947673 
L 754.366326 169.042698 
L 754.829504 173.306629 
L 755.75586 176.485257 
L 756.219038 179.182797 
L 756.682217 187.152811 
L 757.145395 187.269287 
L 757.608573 195.589519 
L 758.071751 200.057344 
L 758.534929 201.857749 
L 758.998107 207.064392 
L 759.461286 207.346382 
L 759.924464 206.181921 
L 760.387642 209.579899 
L 760.85082 206.462847 
L 761.777176 204.505732 
L 762.240355 194.492247 
L 762.703533 189.516156 
L 763.166711 174.957023 
L 763.629889 171.113147 
L 764.093067 172.74324 
L 764.556245 168.206122 
L 765.019424 171.532138 
L 765.482602 179.415796 
L 765.94578 177.522112 
L 766.408958 178.979494 
L 766.872136 174.089759 
L 767.335314 172.344798 
L 767.798493 174.622555 
L 768.261671 169.689643 
L 768.724849 169.515869 
L 769.188027 165.453706 
L 769.651205 163.437684 
L 770.577562 152.643539 
L 771.04074 148.276734 
L 771.503918 153.094778 
L 771.967096 143.892074 
L 772.893452 151.719497 
L 773.819809 172.699318 
L 774.282987 183.435101 
L 774.746165 184.422327 
L 775.209343 192.073305 
L 775.672521 196.07817 
L 776.1357 204.46077 
L 776.598878 205.543946 
L 777.062056 203.623875 
L 777.525234 204.044993 
L 777.988412 198.289306 
L 778.45159 197.683755 
L 779.377947 181.36047 
L 779.841125 178.900678 
L 780.304303 180.55236 
L 780.767481 178.135746 
L 781.230659 183.066531 
L 781.693838 181.074498 
L 782.157016 191.006697 
L 782.620194 197.268794 
L 783.083372 197.310908 
L 783.54655 198.336513 
L 784.009728 192.115467 
L 784.472907 187.415234 
L 784.936085 196.699768 
L 785.399263 196.425246 
L 786.325619 176.031266 
L 787.251976 169.325518 
L 787.715154 170.144679 
L 788.178332 174.396464 
L 788.64151 165.802892 
L 789.104688 161.292009 
L 789.567866 168.902057 
L 790.031045 179.867969 
L 790.957401 189.928638 
L 791.420579 185.264386 
L 791.883757 189.820966 
L 792.346935 188.642111 
L 792.810114 186.856371 
L 793.273292 190.431857 
L 793.73647 192.769584 
L 794.199648 187.827077 
L 794.662826 190.879634 
L 795.589183 180.826705 
L 796.052361 181.960255 
L 796.515539 178.936755 
L 796.978717 177.577994 
L 797.441895 187.778854 
L 797.905073 188.118414 
L 798.368252 185.610647 
L 798.83143 191.294643 
L 799.757786 197.409352 
L 800.220964 189.830608 
L 800.684142 173.851409 
L 801.147321 177.004714 
L 801.610499 187.762086 
L 802.073677 188.492644 
L 802.536855 180.678822 
L 803.000033 177.173171 
L 803.463211 184.502716 
L 803.92639 187.315397 
L 804.852746 149.63116 
L 805.315924 144.49915 
L 806.24228 139.496522 
L 806.705459 139.181069 
L 807.168637 133.717878 
L 807.631815 133.028219 
L 808.558171 154.338765 
L 809.021349 158.470612 
L 809.484528 167.654398 
L 809.947706 168.555268 
L 810.410884 172.286674 
L 810.874062 181.964604 
L 811.33724 186.979346 
L 811.800418 187.93059 
L 812.263597 181.124247 
L 812.726775 179.444052 
L 813.189953 176.936285 
L 813.653131 172.792564 
L 814.116309 169.68031 
L 814.579487 171.204857 
L 815.042666 176.711345 
L 815.505844 187.5023 
L 815.969022 189.799248 
L 817.358556 212.519504 
L 817.821735 217.596614 
L 818.284913 210.449647 
L 818.748091 207.323 
L 819.211269 204.980747 
L 819.674447 197.114152 
L 820.137625 197.269008 
L 820.600804 192.196967 
L 821.063982 184.095294 
L 821.52716 187.450095 
L 821.990338 189.180935 
L 822.453516 190.139376 
L 822.916694 195.446766 
L 823.379873 198.266644 
L 823.843051 207.608748 
L 824.306229 202.970883 
L 824.769407 202.691563 
L 825.232585 202.126791 
L 825.695763 208.57839 
L 826.158941 208.013619 
L 827.085298 182.846108 
L 828.011654 192.141572 
L 828.474832 190.173526 
L 828.93801 182.781885 
L 829.401189 178.033677 
L 829.864367 188.90379 
L 830.327545 194.451057 
L 830.790723 198.503897 
L 831.253901 197.334638 
L 831.717079 201.032461 
L 832.180258 200.750743 
L 832.643436 201.294198 
L 833.106614 197.64702 
L 833.569792 192.783671 
L 834.03297 190.045624 
L 834.959327 179.025995 
L 835.422505 176.194396 
L 835.885683 174.348686 
L 836.348861 169.859544 
L 836.812039 161.074224 
L 837.275217 158.422531 
L 837.738396 159.294616 
L 838.201574 160.51692 
L 838.664752 153.451511 
L 839.12793 157.861765 
L 839.591108 156.874812 
L 840.054286 163.911708 
L 840.517465 154.63944 
L 840.980643 160.241878 
L 841.443821 162.677954 
L 841.906999 168.824911 
L 842.833355 164.128412 
L 843.296534 168.879291 
L 843.759712 179.480744 
L 844.22289 176.28933 
L 844.686068 167.827843 
L 845.149246 173.629378 
L 845.612424 168.960329 
L 846.075603 165.917638 
L 846.538781 159.442324 
L 847.001959 161.672106 
L 847.465137 162.124408 
L 847.928315 169.844951 
L 848.391493 165.710825 
L 849.31785 177.076419 
L 849.781028 186.284192 
L 850.244206 183.181533 
L 850.707384 177.620146 
L 851.170562 178.861639 
L 851.633741 180.470143 
L 852.096919 180.265185 
L 852.560097 183.255375 
L 853.023275 180.385395 
L 853.949631 191.782173 
L 854.41281 192.239272 
L 854.875988 197.625822 
L 855.339166 204.317297 
L 855.802344 206.602251 
L 856.265522 203.708284 
L 856.7287 199.516588 
L 857.191879 199.580291 
L 857.655057 200.790601 
L 858.118235 193.775565 
L 858.581413 188.51882 
L 859.044591 190.777388 
L 859.507769 195.996025 
L 859.970948 198.127458 
L 860.434126 194.569035 
L 860.897304 196.21352 
L 861.360482 201.319415 
L 861.82366 204.494309 
L 862.286838 204.320535 
L 862.750017 202.203766 
L 863.213195 201.478277 
L 863.676373 208.63751 
L 864.139551 207.434668 
L 864.602729 211.022149 
L 865.529086 204.800039 
L 865.992264 204.856546 
L 866.455442 205.649472 
L 866.91862 203.542297 
L 867.381798 209.089564 
L 867.844976 203.00045 
L 868.308155 202.370911 
L 868.771333 205.44026 
L 869.234511 198.602732 
L 869.697689 201.816006 
L 870.160867 203.40532 
L 870.624045 199.403126 
L 871.087224 202.196617 
L 871.550402 208.098901 
L 872.01358 209.995256 
L 872.476758 216.883429 
L 874.329471 221.771037 
L 874.792649 215.437249 
L 875.255827 218.777657 
L 875.719005 218.635067 
L 876.182183 214.594493 
L 876.645362 209.208215 
L 877.10854 208.662633 
L 877.571718 198.862637 
L 878.034896 210.838579 
L 878.498074 210.420132 
L 879.424431 220.57675 
L 879.887609 230.710445 
L 880.350787 234.619359 
L 880.813965 244.043021 
L 881.277143 239.690608 
L 881.740321 241.387866 
L 882.2035 246.661675 
L 883.129856 229.007078 
L 883.593034 232.006862 
L 884.056212 228.944982 
L 884.51939 229.711522 
L 884.982569 227.023848 
L 885.445747 218.744666 
L 885.908925 226.702686 
L 886.372103 229.417018 
L 886.835281 224.04993 
L 887.298459 225.272234 
L 887.761638 225.180017 
L 888.687994 232.889901 
L 889.151172 239.850038 
L 889.61435 242.084618 
L 890.077528 250.54158 
L 890.540707 250.238273 
L 891.003885 251.08637 
L 891.930241 248.958942 
L 892.393419 244.085999 
L 892.856597 252.87159 
L 893.319776 250.442983 
L 893.782954 250.521078 
L 894.246132 251.738584 
L 894.70931 254.390549 
L 895.172488 254.874035 
L 895.635666 260.805103 
L 896.098845 258.05746 
L 896.562023 257.418327 
L 897.488379 252.836968 
L 897.951557 249.244962 
L 898.877914 243.634536 
L 899.341092 236.187723 
L 899.80427 234.190892 
L 900.267448 233.213534 
L 901.193804 226.113478 
L 901.656983 227.31899 
L 902.120161 221.001994 
L 902.583339 223.181402 
L 903.046517 219.090454 
L 903.509695 219.657897 
L 904.89923 228.602079 
L 905.362408 227.878989 
L 905.825586 224.327761 
L 906.288764 223.273642 
L 907.215121 208.31765 
L 907.678299 192.427205 
L 908.141477 185.572886 
L 908.604655 192.118037 
L 909.067833 191.246224 
L 909.531011 196.042679 
L 910.457368 211.109558 
L 910.920546 226.453358 
L 911.383724 226.713759 
L 911.846902 218.991089 
L 912.31008 219.764825 
L 912.773259 219.214446 
L 913.236437 224.274764 
L 913.699615 213.899067 
L 914.162793 211.273761 
L 914.625971 214.088841 
L 915.089149 218.134484 
L 915.552328 216.679773 
L 916.015506 214.771695 
L 916.478684 205.59058 
L 916.941862 212.114142 
L 917.40504 215.248257 
L 918.331397 205.320064 
L 918.794575 205.686011 
L 919.257753 205.778499 
L 919.720931 209.785762 
L 920.184109 212.545671 
L 920.647287 207.972572 
L 921.110466 213.53663 
L 921.573644 215.807192 
L 922.036822 220.531684 
L 922.5 222.87181 
L 922.963178 226.305769 
L 923.426356 226.997947 
L 923.889534 228.637635 
L 924.352713 227.432395 
L 924.815891 230.41059 
L 925.279069 231.059591 
L 926.205425 219.471456 
L 926.668603 216.987677 
L 927.131782 216.610008 
L 927.59496 218.28088 
L 928.521316 202.650836 
L 928.984494 197.329324 
L 929.447672 189.80815 
L 929.910851 186.304898 
L 930.374029 181.004976 
L 930.837207 174.265797 
L 931.300385 182.686778 
L 931.763563 180.085459 
L 932.226741 169.206022 
L 933.153098 177.629249 
L 933.616276 185.17693 
L 934.079454 187.795159 
L 934.542632 189.343543 
L 935.00581 188.270082 
L 935.468989 191.835821 
L 935.932167 212.300821 
L 936.395345 212.059881 
L 937.784879 205.804948 
L 938.248058 207.655423 
L 938.711236 205.204923 
L 939.174414 200.59314 
L 939.637592 202.256512 
L 940.10077 199.983519 
L 940.563948 199.970158 
L 941.027127 202.307885 
L 941.490305 202.491526 
L 941.953483 203.416383 
L 942.879839 195.666264 
L 943.343017 194.058032 
L 943.806196 193.809896 
L 944.269374 184.530432 
L 945.19573 178.250751 
L 945.658908 184.484063 
L 946.122086 192.365323 
L 946.585265 196.466138 
L 947.048443 197.578099 
L 947.511621 204.535836 
L 947.974799 202.416668 
L 948.437977 211.451731 
L 948.901155 215.072794 
L 949.364334 211.833406 
L 949.827512 213.026924 
L 950.29069 216.530448 
L 950.753868 212.005325 
L 951.217046 199.660246 
L 951.680224 182.368925 
L 952.143403 170.342881 
L 952.606581 167.609631 
L 953.069759 166.795388 
L 953.532937 163.292136 
L 953.996115 169.093671 
L 954.922472 187.064113 
L 955.38565 203.355422 
L 955.848828 212.438461 
L 956.312006 214.622667 
L 956.775184 211.464836 
L 957.238362 216.510762 
L 957.701541 224.130557 
L 958.164719 225.072206 
L 958.627897 227.076505 
L 959.091075 235.483093 
L 959.554253 246.638659 
L 960.017431 252.859978 
L 960.943788 238.93785 
L 961.406966 243.24256 
L 961.870144 244.057075 
L 962.333322 243.326788 
L 962.7965 245.002458 
L 963.259679 247.5033 
L 963.722857 253.033776 
L 964.186035 260.514442 
L 964.649213 265.080617 
L 965.112391 268.509779 
L 965.575569 267.263759 
L 966.038748 262.174928 
L 966.501926 264.371128 
L 966.965104 260.097874 
L 967.89146 247.207213 
L 968.354638 245.515024 
L 968.817817 241.563204 
L 969.280995 215.487627 
L 969.744173 201.170768 
L 970.207351 200.066275 
L 970.670529 202.751822 
L 971.133707 202.057517 
L 971.596886 203.709199 
L 972.060064 207.75964 
L 972.523242 229.911119 
L 972.98642 239.756962 
L 973.449598 245.987875 
L 974.375955 249.255257 
L 974.839133 244.279167 
L 975.302311 244.22773 
L 975.765489 244.802369 
L 976.228667 247.132899 
L 976.691845 255.311605 
L 977.155024 257.467026 
L 977.618202 265.213955 
L 978.08138 268.652713 
L 979.007736 266.112698 
L 979.470914 265.854968 
L 979.934093 256.316437 
L 980.397271 250.719068 
L 980.860449 243.301041 
L 981.323627 241.764771 
L 981.786805 241.569408 
L 982.249983 251.084223 
L 982.713162 247.895209 
L 983.17634 256.918278 
L 983.639518 254.304965 
L 984.102696 246.865349 
L 984.565874 244.695807 
L 985.029052 240.9119 
L 985.492231 227.278688 
L 985.955409 224.514253 
L 986.418587 212.682509 
L 986.881765 208.428445 
L 987.808121 203.95743 
L 988.2713 200.672465 
L 989.197656 183.097027 
L 989.660834 178.461561 
L 990.124012 168.2082 
L 990.58719 164.002111 
L 991.050369 162.612166 
L 991.513547 155.635511 
L 991.976725 156.45962 
L 992.439903 159.982334 
L 992.903081 159.120116 
L 993.366259 166.049068 
L 993.829438 169.012871 
L 994.292616 167.63492 
L 994.755794 169.768752 
L 995.218972 172.804518 
L 995.68215 171.930306 
L 996.145328 172.84317 
L 996.608507 172.928462 
L 997.071685 172.57718 
L 997.534863 171.105677 
L 997.998041 169.149625 
L 998.924397 156.899433 
L 999.387576 157.797904 
L 999.850754 160.130833 
L 1000.313932 161.456284 
L 1000.77711 164.609589 
L 1001.240288 160.17082 
L 1001.703466 158.457043 
L 1002.166645 164.959016 
L 1002.629823 154.552134 
L 1003.093001 151.833277 
L 1004.019357 143.389916 
L 1004.945714 162.378766 
L 1005.408892 166.956934 
L 1005.87207 179.395837 
L 1006.335248 178.521625 
L 1007.261604 200.90472 
L 1007.724783 205.28619 
L 1008.187961 205.776872 
L 1008.651139 209.73616 
L 1009.114317 211.169555 
L 1009.577495 223.111914 
L 1010.040673 223.835276 
L 1010.503852 219.732334 
L 1010.96703 218.042544 
L 1011.430208 220.677717 
L 1011.893386 219.482071 
L 1012.356564 220.433315 
L 1012.819742 208.697521 
L 1013.282921 200.439928 
L 1013.746099 201.863728 
L 1014.209277 205.98853 
L 1015.598811 190.683654 
L 1016.06199 192.992596 
L 1016.525168 197.206152 
L 1016.988346 194.525675 
L 1017.451524 187.174813 
L 1017.914702 183.652371 
L 1018.37788 166.732858 
L 1018.841059 165.666745 
L 1019.304237 165.152347 
L 1019.767415 157.295347 
L 1020.230593 153.540225 
L 1021.156949 160.78475 
L 1021.620127 180.11049 
L 1022.083306 182.899184 
L 1022.546484 183.576969 
L 1023.009662 188.315854 
L 1023.47284 185.239581 
L 1023.936018 179.925266 
L 1024.399196 182.701966 
L 1024.862375 179.791207 
L 1025.325553 181.819494 
L 1025.788731 175.089911 
L 1026.251909 157.877749 
L 1026.715087 161.455635 
L 1027.178265 163.58467 
L 1027.641444 155.838012 
L 1028.104622 154.930218 
L 1028.5678 153.122889 
L 1029.030978 161.546268 
L 1029.494156 179.200073 
L 1029.957334 178.09558 
L 1030.420513 179.260314 
L 1031.346869 188.999548 
L 1031.810047 192.89407 
L 1032.273225 190.427082 
L 1032.736403 189.948665 
L 1033.199582 194.404497 
L 1033.66276 193.902093 
L 1034.125938 197.235305 
L 1034.589116 197.382964 
L 1035.052294 199.564772 
L 1035.515472 205.217584 
L 1036.441829 186.864948 
L 1036.905007 185.172759 
L 1037.368185 181.124989 
L 1037.831363 176.060145 
L 1038.294541 176.327742 
L 1038.75772 180.670832 
L 1039.220898 194.501015 
L 1040.147254 202.671461 
L 1041.07361 184.923312 
L 1041.536789 171.059819 
L 1042.463145 166.970206 
L 1042.926323 170.751986 
L 1043.389501 166.898515 
L 1044.315858 186.407896 
L 1044.779036 192.993826 
L 1045.242214 186.875926 
L 1045.705392 186.193615 
L 1046.16857 187.708568 
L 1046.631748 189.660094 
L 1047.094927 193.216391 
L 1047.558105 195.033587 
L 1048.021283 189.680891 
L 1048.484461 193.402702 
L 1048.947639 195.347033 
L 1049.410817 201.29969 
L 1049.873996 205.606798 
L 1050.337174 199.304194 
L 1050.800352 203.474573 
L 1051.26353 212.128233 
L 1051.726708 213.101066 
L 1052.189886 215.611503 
L 1052.653065 211.22071 
L 1053.116243 209.770796 
L 1053.579421 214.953452 
L 1054.042599 213.618678 
L 1054.505777 221.020186 
L 1054.968955 220.975945 
L 1055.432134 224.764921 
L 1056.35849 216.731748 
L 1056.821668 214.159214 
L 1057.284846 210.456865 
L 1057.748024 203.51859 
L 1058.211203 207.305167 
L 1058.674381 198.066482 
L 1059.137559 201.656361 
L 1059.600737 202.151841 
L 1060.063915 201.109716 
L 1060.990272 206.679907 
L 1061.45345 199.940728 
L 1061.916628 201.486864 
L 1062.379806 197.750933 
L 1062.842984 205.272379 
L 1063.306162 209.992073 
L 1063.769341 208.316676 
L 1064.232519 206.101558 
L 1064.695697 207.981121 
L 1065.158875 208.404638 
L 1065.622053 209.262331 
L 1066.085231 206.329983 
L 1066.54841 206.101038 
L 1067.011588 209.554188 
L 1067.474766 211.839142 
L 1068.8643 229.694715 
L 1069.327479 228.367137 
L 1070.253835 220.614619 
L 1070.717013 221.141282 
L 1071.180191 220.245482 
L 1071.643369 218.222264 
L 1072.106548 218.137244 
L 1072.569726 220.297463 
L 1073.032904 221.622913 
L 1073.496082 223.514471 
L 1073.95926 222.258856 
L 1074.422438 216.320864 
L 1074.885617 212.642502 
L 1075.348795 205.265254 
L 1075.811973 202.486427 
L 1076.275151 208.580611 
L 1076.738329 208.761853 
L 1077.201507 215.00476 
L 1077.664686 217.164979 
L 1078.127864 214.25422 
L 1078.591042 225.181904 
L 1079.05422 229.400258 
L 1079.517398 223.84127 
L 1079.980576 230.554333 
L 1080.443755 224.729082 
L 1080.906933 235.304149 
L 1081.370111 241.021728 
L 1082.296467 225.684332 
L 1082.759645 224.98523 
L 1083.222824 217.660754 
L 1084.14918 213.802486 
L 1084.612358 205.249845 
L 1085.075536 210.350943 
L 1085.538714 212.278482 
L 1086.465071 227.551654 
L 1086.928249 227.754485 
L 1087.391427 230.260125 
L 1087.854605 225.619861 
L 1088.317783 217.34068 
L 1088.780962 216.919833 
L 1089.24414 210.830719 
L 1089.707318 198.85265 
L 1090.170496 197.429122 
L 1090.633674 199.2823 
L 1091.096852 216.408378 
L 1091.560031 212.478146 
L 1092.023209 210.718792 
L 1092.486387 215.145839 
L 1092.949565 220.791455 
L 1093.412743 214.666359 
L 1093.875921 212.216162 
L 1094.3391 199.484883 
L 1094.802278 192.443461 
L 1095.265456 181.122652 
L 1095.728634 178.667658 
L 1096.191812 182.454235 
L 1096.65499 189.025772 
L 1097.118169 190.473559 
L 1097.581347 183.101108 
L 1098.507703 201.195222 
L 1098.970881 199.572597 
L 1099.434059 196.515514 
L 1099.897238 196.217005 
L 1100.360416 186.517757 
L 1100.823594 195.953413 
L 1101.286772 199.521703 
L 1101.74995 206.172399 
L 1102.213128 207.802492 
L 1102.676307 207.146567 
L 1103.139485 199.359131 
L 1103.602663 202.46686 
L 1104.065841 196.413727 
L 1104.529019 195.51073 
L 1104.992197 189.107378 
L 1105.455376 186.94983 
L 1105.918554 186.042035 
L 1106.381732 191.073569 
L 1106.84491 190.854218 
L 1107.308088 190.212686 
L 1107.771266 190.720159 
L 1108.234445 191.702587 
L 1108.697623 190.809185 
L 1109.160801 185.480477 
L 1109.623979 189.514127 
L 1110.087157 197.23467 
L 1110.550335 196.065411 
L 1111.013514 195.838864 
L 1111.476692 197.42338 
L 1111.93987 196.594745 
L 1112.403048 206.654078 
L 1112.866226 212.160566 
L 1113.329404 205.86036 
L 1113.792583 211.767441 
L 1114.255761 211.058744 
L 1114.718939 213.199772 
L 1115.182117 220.903524 
L 1115.645295 216.366406 
L 1116.108473 213.069448 
L 1116.571652 217.021539 
L 1117.03483 208.267403 
L 1117.498008 209.391358 
L 1117.961186 210.009174 
L 1118.424364 205.205795 
L 1118.887542 205.871586 
L 1119.35072 201.907772 
L 1119.813899 202.700698 
L 1120.277077 206.88547 
L 1120.740255 205.078141 
L 1121.203433 198.614819 
L 1121.666611 198.762479 
L 1122.129789 199.788085 
L 1122.592968 208.5281 
L 1123.056146 211.350376 
L 1123.519324 219.178863 
L 1123.982502 224.24398 
L 1124.908858 222.723438 
L 1125.372037 221.139193 
L 1125.835215 209.957513 
L 1126.298393 206.123232 
L 1126.761571 198.570874 
L 1127.224749 195.525785 
L 1127.687927 198.933358 
L 1128.151106 198.229459 
L 1128.614284 193.644366 
L 1129.077462 198.767052 
L 1130.003818 204.776216 
L 1130.466996 204.945465 
L 1130.930175 211.181176 
L 1131.393353 209.963941 
L 1131.856531 212.145749 
L 1132.319709 208.613711 
L 1132.782887 202.889208 
L 1133.709244 198.434984 
L 1134.172422 190.453248 
L 1134.6356 196.868866 
L 1135.098778 198.474971 
L 1135.561956 204.125385 
L 1136.025134 207.674485 
L 1136.488313 205.651267 
L 1136.951491 201.541129 
L 1137.414669 200.479814 
L 1137.877847 197.859306 
L 1138.804203 186.638181 
L 1139.267382 188.999896 
L 1140.193738 202.514778 
L 1140.656916 206.653973 
L 1141.120094 208.080171 
L 1141.583272 217.343116 
L 1142.046451 217.601119 
L 1142.509629 213.973131 
L 1142.972807 213.197268 
L 1143.435985 213.445676 
L 1143.899163 214.017916 
L 1144.362341 210.022918 
L 1144.82552 210.43684 
L 1145.288698 208.195335 
L 1146.215054 185.74322 
L 1146.678232 180.069091 
L 1147.14141 177.494158 
L 1147.604589 178.375838 
L 1148.067767 175.558631 
L 1148.530945 171.642793 
L 1149.457301 182.88605 
L 1149.920479 182.918569 
L 1150.383658 177.448334 
L 1150.846836 177.142628 
L 1151.310014 173.356322 
L 1151.773192 172.690803 
L 1152.699548 160.354255 
L 1153.162727 164.992392 
L 1153.625905 167.536412 
L 1154.552261 171.182798 
L 1155.015439 173.834763 
L 1155.478617 163.15922 
L 1155.941796 164.290371 
L 1156.404974 159.45101 
L 1156.868152 157.235892 
L 1157.33133 157.278006 
L 1157.794508 158.025356 
L 1158.257686 154.989862 
L 1158.720865 170.616715 
L 1159.184043 173.388617 
L 1159.647221 168.971438 
L 1160.110399 169.668413 
L 1160.573577 162.077676 
L 1161.036755 158.679969 
L 1161.499934 162.821563 
L 1161.963112 155.996029 
L 1162.42629 152.010626 
L 1162.889468 157.723408 
L 1163.352646 155.278008 
L 1163.815824 160.583 
L 1164.279003 160.96334 
L 1164.742181 158.904141 
L 1165.205359 169.877401 
L 1166.131715 151.870187 
L 1166.594893 156.117326 
L 1167.058072 151.17242 
L 1167.52125 151.826217 
L 1167.984428 149.555928 
L 1168.447606 153.160199 
L 1169.373962 178.923146 
L 1169.837141 178.778157 
L 1170.300319 181.485293 
L 1170.763497 177.295996 
L 1171.226675 177.254154 
L 1171.689853 176.773338 
L 1172.153031 178.583338 
L 1172.61621 181.410412 
L 1173.079388 187.151978 
L 1173.542566 185.203122 
L 1174.005744 191.146184 
L 1174.468922 194.038024 
L 1174.9321 189.129099 
L 1175.395279 182.485871 
L 1175.858457 169.833751 
L 1176.321635 162.039119 
L 1176.784813 162.776873 
L 1177.247991 163.006091 
L 1177.711169 161.8968 
L 1178.174348 152.698894 
L 1178.637526 157.171516 
L 1179.100704 160.279245 
L 1180.02706 153.049656 
L 1180.490238 145.017547 
L 1180.953417 143.59162 
L 1181.416595 154.459335 
L 1181.879773 152.642411 
L 1182.342951 155.07129 
L 1182.806129 163.20442 
L 1183.269307 166.333737 
L 1183.732486 170.955083 
L 1184.195664 178.066341 
L 1184.658842 176.095896 
L 1185.12202 168.577121 
L 1185.585198 171.514538 
L 1186.048376 170.321291 
L 1186.511555 170.202688 
L 1186.974733 175.869893 
L 1187.437911 170.929784 
L 1187.901089 171.350902 
L 1188.364267 179.695122 
L 1188.827445 184.184536 
L 1189.290624 181.612003 
L 1190.21698 174.4088 
L 1190.680158 171.28935 
L 1191.143336 171.792026 
L 1191.606514 175.732124 
L 1192.069693 159.959218 
L 1192.532871 161.251086 
L 1192.996049 164.982492 
L 1193.459227 165.928938 
L 1193.922405 165.301799 
L 1194.385583 159.169506 
L 1194.848762 160.626888 
L 1195.31194 167.582227 
L 1195.775118 166.475336 
L 1196.238296 164.281806 
L 1196.701474 164.064854 
L 1197.164652 169.444208 
L 1197.627831 176.198051 
L 1198.091009 174.167637 
L 1198.554187 174.936575 
L 1199.480543 178.031246 
L 1199.943721 177.440088 
L 1200.4069 176.129302 
L 1200.870078 177.310827 
L 1201.333256 177.288175 
L 1201.796434 177.627735 
L 1202.259612 176.707947 
L 1202.72279 178.760221 
L 1203.185969 179.68268 
L 1203.649147 181.012928 
L 1204.112325 180.527315 
L 1204.575503 182.210181 
L 1205.965038 197.779736 
L 1206.428216 192.096012 
L 1206.891394 195.443616 
L 1207.354572 199.91384 
L 1208.280928 198.031086 
L 1208.744107 190.864928 
L 1209.207285 186.637251 
L 1209.670463 192.76022 
L 1210.133641 192.447318 
L 1210.596819 188.932072 
L 1211.059997 190.209547 
L 1211.523176 190.717021 
L 1211.986354 195.371949 
L 1212.449532 201.907505 
L 1212.91271 201.357125 
L 1213.375888 202.646594 
L 1213.839066 203.11089 
L 1215.228601 196.985794 
L 1215.691779 200.971469 
L 1216.154957 197.245132 
L 1216.618135 188.644516 
L 1217.081314 188.269246 
L 1217.544492 182.712656 
L 1218.00767 172.324965 
L 1218.934026 159.951101 
L 1219.397204 142.098471 
L 1220.323561 149.396832 
L 1221.249917 153.368114 
L 1221.713095 153.107984 
L 1222.176273 161.881582 
L 1222.639451 175.726158 
L 1223.10263 195.713956 
L 1223.565808 210.390901 
L 1224.028986 206.256775 
L 1224.492164 204.01527 
L 1224.955342 204.441186 
L 1225.41852 191.41246 
L 1225.881699 194.65452 
L 1226.344877 193.475665 
L 1226.808055 188.427612 
L 1227.734411 200.548815 
L 1228.197589 201.8071 
L 1228.660768 210.487147 
L 1229.587124 201.612009 
L 1230.050302 210.474361 
L 1230.51348 206.268273 
L 1230.976658 203.419882 
L 1231.439837 199.669557 
L 1231.903015 199.970738 
L 1232.366193 199.847337 
L 1232.829371 207.913302 
L 1233.292549 199.471004 
L 1233.755727 200.770068 
L 1234.218906 203.21334 
L 1234.682084 213.020804 
L 1235.145262 216.924921 
L 1235.60844 210.631911 
L 1236.071618 186.811168 
L 1237.461153 179.30226 
L 1237.924331 173.625732 
L 1239.313865 173.164106 
L 1239.777044 183.187458 
L 1240.240222 202.498806 
L 1240.7034 211.080503 
L 1241.166578 212.005361 
L 1241.629756 212.272958 
L 1242.092934 214.354018 
L 1242.556113 214.125072 
L 1243.019291 194.914744 
L 1243.482469 196.048294 
L 1243.945647 192.823298 
L 1244.408825 192.021049 
L 1244.872003 197.616291 
L 1245.335182 199.205605 
L 1245.79836 197.115222 
L 1246.261538 208.311567 
L 1246.724716 209.749759 
L 1247.187894 211.754059 
L 1247.651072 216.670452 
L 1248.114251 215.551566 
L 1248.577429 208.776407 
L 1249.040607 207.218548 
L 1249.503785 211.444099 
L 1249.966963 212.141074 
L 1250.430141 212.626959 
L 1250.89332 209.032554 
L 1251.356498 206.599149 
L 1251.819676 209.728466 
L 1252.282854 211.190646 
L 1252.746032 213.739463 
L 1253.20921 212.042477 
L 1253.672389 213.132849 
L 1254.135567 215.648084 
L 1254.598745 212.955613 
L 1255.061923 212.496386 
L 1255.525101 202.612434 
L 1255.988279 199.097189 
L 1256.451458 191.422494 
L 1257.377814 182.458602 
L 1258.30417 179.208555 
L 1258.767348 188.874492 
L 1259.230527 187.064764 
L 1259.693705 195.188298 
L 1260.156883 200.76435 
L 1260.620061 209.14695 
L 1261.083239 213.456457 
L 1261.546417 215.184899 
L 1262.009596 214.941561 
L 1262.472774 222.278303 
L 1262.935952 223.085621 
L 1264.325486 214.864281 
L 1264.788665 214.431441 
L 1265.251843 207.087775 
L 1265.715021 206.520605 
L 1266.178199 209.019048 
L 1267.104555 194.324521 
L 1267.567734 175.488399 
L 1268.030912 174.611788 
L 1268.49409 183.742802 
L 1268.957268 179.77419 
L 1269.420446 172.584045 
L 1269.883624 176.272273 
L 1270.346803 182.819823 
L 1270.809981 193.632366 
L 1271.273159 197.133492 
L 1271.736337 196.290464 
L 1272.199515 194.914911 
L 1272.662693 198.617532 
L 1273.125872 204.044861 
L 1273.58905 203.51607 
L 1274.052228 204.618436 
L 1274.515406 203.429987 
L 1274.978584 202.997147 
L 1275.441762 194.600425 
L 1275.904941 195.146279 
L 1276.831297 186.717311 
L 1277.294475 190.19205 
L 1277.757653 186.727178 
L 1278.220831 171.899383 
L 1278.68401 169.890558 
L 1279.147188 166.646372 
L 1280.073544 152.13415 
L 1280.536722 159.372542 
L 1280.9999 160.273412 
L 1281.926257 177.523162 
L 1282.389435 178.241726 
L 1282.852613 191.839229 
L 1283.315791 198.077339 
L 1283.778969 196.601038 
L 1284.242148 202.906313 
L 1284.705326 207.474886 
L 1285.168504 208.994636 
L 1285.631682 209.298215 
L 1286.09486 201.884985 
L 1286.558038 204.992714 
L 1287.021217 202.295445 
L 1287.484395 188.750986 
L 1287.947573 184.667235 
L 1288.410751 185.65446 
L 1288.873929 185.351153 
L 1289.337107 189.511937 
L 1289.800286 186.836257 
L 1290.263464 189.999157 
L 1290.726642 197.048047 
L 1291.18982 202.156341 
L 1291.652998 194.306537 
L 1292.116176 196.43797 
L 1292.579355 194.225251 
L 1293.042533 197.877498 
L 1293.505711 192.589569 
L 1293.968889 205.32112 
L 1294.432067 205.240897 
L 1294.895245 210.238848 
L 1295.358424 220.257402 
L 1295.821602 221.51089 
L 1296.28478 220.020197 
L 1296.747958 222.432285 
L 1297.211136 215.865818 
L 1297.674314 219.39093 
L 1298.137493 213.066737 
L 1298.600671 209.493921 
L 1299.063849 211.255946 
L 1299.527027 207.131415 
L 1299.990205 212.251703 
L 1300.453383 213.747465 
L 1300.916562 206.317444 
L 1301.37974 210.216763 
L 1301.842918 198.020408 
L 1302.306096 194.565131 
L 1302.769274 195.933759 
L 1303.232452 192.440102 
L 1303.695631 178.931625 
L 1304.158809 176.654138 
L 1304.621987 172.536804 
L 1305.085165 173.660759 
L 1305.548343 168.677472 
L 1306.011521 168.009554 
L 1306.4747 159.274607 
L 1306.937878 165.404773 
L 1307.864234 163.610773 
L 1308.79059 157.120002 
L 1309.253769 156.037098 
L 1309.716947 158.51875 
L 1310.180125 152.314495 
L 1310.643303 152.035176 
L 1311.106481 152.746544 
L 1312.032838 148.704906 
L 1312.496016 131.934116 
L 1313.88555 115.422088 
L 1314.348728 113.823147 
L 1314.811907 111.151961 
L 1315.275085 106.8856 
L 1315.738263 104.387124 
L 1316.201441 103.195972 
L 1316.664619 114.01061 
L 1317.127797 127.838394 
L 1317.590975 132.714009 
L 1318.054154 134.874227 
L 1318.517332 141.265857 
L 1318.98051 145.37147 
L 1319.443688 146.951189 
L 1319.906866 147.225983 
L 1320.833223 139.898045 
L 1321.296401 145.145467 
L 1323.149113 159.672897 
L 1323.612292 164.929914 
L 1324.07547 171.559021 
L 1324.538648 174.78189 
L 1325.001826 174.461791 
L 1325.465004 174.623844 
L 1325.928182 181.250552 
L 1326.391361 184.144791 
L 1326.854539 183.517652 
L 1327.317717 178.716671 
L 1327.780895 171.281852 
L 1328.244073 172.962319 
L 1328.707251 170.238664 
L 1329.17043 161.412565 
L 1329.633608 157.278439 
L 1330.096786 150.894277 
L 1330.559964 149.741809 
L 1331.023142 144.636186 
L 1331.48632 142.708918 
L 1331.949499 148.24659 
L 1332.412677 163.779892 
L 1332.875855 169.840493 
L 1333.339033 183.013416 
L 1333.802211 191.033804 
L 1334.265389 194.5901 
L 1334.728568 188.160362 
L 1335.191746 186.727239 
L 1335.654924 184.06835 
L 1336.118102 184.247194 
L 1336.58128 186.671276 
L 1337.044458 182.832198 
L 1337.507637 196.659982 
L 1337.970815 204.754731 
L 1338.433993 209.109814 
L 1338.897171 209.873955 
L 1339.360349 211.005106 
L 1339.823527 213.186914 
L 1340.286706 219.048418 
L 1340.749884 213.686127 
L 1341.213062 199.388458 
L 1341.67624 189.163883 
L 1342.139418 182.70296 
L 1342.602596 178.59762 
L 1343.992131 161.229811 
L 1344.455309 168.698484 
L 1344.918487 174.037058 
L 1345.381665 171.713996 
L 1345.844844 174.54107 
L 1346.308022 175.554681 
L 1346.7712 179.134966 
L 1347.234378 185.037249 
L 1347.697556 185.417588 
L 1348.160734 182.825864 
L 1348.623913 182.88477 
L 1349.087091 177.707184 
L 1349.550269 174.880382 
L 1350.013447 174.246046 
L 1350.476625 161.932151 
L 1350.939803 155.243347 
L 1351.402982 156.722318 
L 1351.86616 158.719421 
L 1352.329338 163.448711 
L 1352.792516 158.467823 
L 1353.255694 157.041896 
L 1353.718872 164.855991 
L 1354.182051 177.362058 
L 1354.645229 181.057483 
L 1355.108407 181.502589 
L 1355.571585 175.578988 
L 1356.034763 179.272014 
L 1356.497941 177.140853 
L 1356.96112 182.529801 
L 1357.424298 180.288297 
L 1357.887476 179.327729 
L 1358.350654 182.64415 
L 1358.813832 187.62531 
L 1359.27701 189.075496 
L 1359.740189 192.612602 
L 1360.203367 185.683922 
L 1360.666545 187.083734 
L 1361.592901 175.874603 
L 1362.056079 176.175783 
L 1362.519258 175.910856 
L 1362.982436 163.299515 
L 1363.445614 173.562743 
L 1363.908792 163.81552 
L 1365.298327 175.539864 
L 1365.761505 178.268589 
L 1366.224683 189.846337 
L 1366.687861 182.317966 
L 1367.151039 192.888235 
L 1367.614217 194.014589 
L 1368.077396 190.64087 
L 1368.540574 191.704855 
L 1369.003752 189.952697 
L 1369.46693 190.213099 
L 1369.930108 197.22121 
L 1370.393286 199.913953 
L 1370.856465 200.234324 
L 1371.319643 201.912392 
L 1371.782821 202.292731 
L 1372.245999 202.138147 
L 1372.709177 203.055808 
L 1373.172355 197.038656 
L 1373.635534 197.016004 
L 1374.098712 190.742185 
L 1374.56189 181.959264 
L 1375.025068 179.27159 
L 1375.488246 182.609599 
L 1376.414603 201.500101 
L 1376.877781 205.792816 
L 1378.267315 231.993673 
L 1378.730493 229.992044 
L 1380.120028 211.451242 
L 1380.583206 207.509017 
L 1381.046384 210.676714 
L 1381.509562 196.556553 
L 1381.972741 202.948183 
L 1382.435919 201.36154 
L 1382.899097 207.59965 
L 1383.362275 207.353913 
L 1383.825453 213.210619 
L 1384.288631 207.330197 
L 1384.75181 219.495641 
L 1385.214988 215.901236 
L 1385.678166 220.074013 
L 1386.141344 212.979819 
L 1386.604522 215.188013 
L 1387.0677 211.605601 
L 1387.530879 195.247398 
L 1387.994057 185.58893 
L 1388.920413 175.607964 
L 1389.383591 178.118402 
L 1389.846769 176.217521 
L 1390.309948 184.283485 
L 1390.773126 203.623618 
L 1391.236304 207.798794 
L 1391.699482 209.371317 
L 1392.16266 206.328627 
L 1392.625838 211.496889 
L 1393.089017 211.879627 
L 1393.552195 210.722362 
L 1394.015373 212.992924 
L 1394.478551 210.849768 
L 1394.941729 210.647209 
L 1395.404907 214.061979 
L 1395.868086 209.791124 
L 1396.331264 211.138163 
L 1396.794442 206.74737 
L 1397.25762 208.953165 
L 1397.720798 216.937571 
L 1398.183976 216.368002 
L 1399.110333 227.347395 
L 1399.573511 227.718139 
L 1400.036689 220.978961 
L 1400.499867 211.65392 
L 1400.963045 208.84151 
L 1401.426224 212.541733 
L 1401.889402 213.262696 
L 1402.35258 208.495298 
L 1402.815758 212.835988 
L 1403.278936 222.609869 
L 1403.742114 235.739614 
L 1404.205293 236.961918 
L 1404.668471 231.82751 
L 1405.131649 222.459291 
L 1405.594827 223.525675 
L 1406.521183 216.44481 
L 1406.984362 210.585976 
L 1407.44754 209.19843 
L 1408.373896 215.958405 
L 1408.837074 213.429049 
L 1409.300252 212.641193 
L 1409.763431 214.626302 
L 1410.226609 215.112187 
L 1410.689787 216.459226 
L 1411.616143 229.674263 
L 1412.079321 232.97869 
L 1412.5425 240.149917 
L 1413.005678 242.1854 
L 1413.468856 242.889572 
L 1414.395212 243.147422 
L 1414.85839 240.138163 
L 1415.321568 243.648731 
L 1415.784747 248.142791 
L 1416.247925 244.28437 
L 1416.711103 252.105509 
L 1417.174281 254.145638 
L 1417.637459 252.753294 
L 1418.563816 235.779945 
L 1419.026994 230.101018 
L 1419.490172 227.24783 
L 1419.95335 214.950726 
L 1420.416528 206.791482 
L 1420.879706 205.934061 
L 1421.342885 211.973074 
L 1421.806063 214.701799 
L 1422.269241 212.397926 
L 1422.732419 210.823277 
L 1423.195597 210.32567 
L 1423.658775 215.323621 
L 1424.121954 218.484122 
L 1424.585132 217.988914 
L 1425.04831 219.49667 
L 1425.974666 228.456308 
L 1426.437844 230.105591 
L 1426.901023 230.658641 
L 1427.364201 231.957705 
L 1427.827379 230.169566 
L 1428.290557 225.056747 
L 1428.753735 216.086722 
L 1429.216913 214.540858 
L 1430.14327 217.717087 
L 1430.606448 215.525956 
L 1431.532804 225.917653 
L 1432.922339 243.948335 
L 1433.385517 242.193779 
L 1433.848695 241.825705 
L 1434.311873 231.52197 
L 1434.775051 226.958467 
L 1435.23823 227.346002 
L 1435.701408 222.026889 
L 1436.164586 211.831099 
L 1436.627764 211.326296 
L 1437.090942 195.99716 
L 1437.55412 204.379761 
L 1438.017299 205.757984 
L 1438.480477 202.772864 
L 1438.943655 202.318435 
L 1439.406833 202.86189 
L 1439.870011 183.550814 
L 1440.796368 164.14992 
L 1441.259546 161.992372 
L 1441.722724 161.547538 
L 1442.185902 155.242535 
L 1442.64908 152.641217 
L 1443.575437 191.827621 
L 1466.271167 194.628308 
L 1513.978518 174.270765 
L 1514.441696 151.185833 
L 1517.220765 137.117078 
L 1518.610299 84.26032 
L 1519.073478 69.918106 
L 1519.536656 72.835573 
L 1519.999834 82.042587 
L 1520.463012 78.229895 
L 1520.92619 83.33579 
L 1521.389368 83.022888 
L 1521.852547 74.750902 
L 1523.705259 71.251992 
L 1524.631616 62.747751 
L 1525.557972 63.01474 
L 1526.02115 55.8 
L 1526.947506 64.959918 
L 1527.410685 65.013874 
L 1527.873863 67.183536 
L 1529.263397 63.051353 
L 1529.726575 60.550479 
L 1530.189754 65.435384 
L 1530.652932 58.607148 
L 1531.11611 57.744626 
L 1531.579288 58.153446 
L 1532.042466 56.612076 
L 1532.505644 60.122796 
L 1532.968823 62.172672 
L 1533.895179 57.649795 
L 1534.358357 60.930082 
L 1534.821535 57.808081 
L 1535.284713 62.84426 
L 1536.674248 71.099542 
L 1537.137426 76.596435 
L 1537.600604 77.869113 
L 1538.063782 81.684476 
L 1538.526961 84.271673 
L 1538.990139 82.310824 
L 1539.453317 79.073834 
L 1539.916495 79.787601 
L 1540.379673 81.511245 
L 1540.842851 84.525422 
L 1541.30603 85.076073 
L 1541.769208 82.67625 
L 1542.232386 81.317489 
L 1542.695564 87.01108 
L 1543.158742 87.427401 
L 1543.62192 87.500699 
L 1544.085099 87.883437 
L 1544.548277 89.429573 
L 1545.474633 103.440998 
L 1545.937811 96.903316 
L 1546.400989 95.364648 
L 1546.864168 93.28386 
L 1548.71688 91.461682 
L 1549.180058 93.743782 
L 1549.643237 91.094032 
L 1550.106415 91.289211 
L 1550.569593 105.452366 
L 1551.495949 121.693725 
L 1551.959127 123.047961 
L 1552.422306 122.869389 
L 1552.885484 125.4326 
L 1553.81184 131.344326 
L 1554.275018 121.486608 
L 1554.738196 117.325944 
L 1555.201375 116.406004 
L 1555.664553 118.206257 
L 1556.127731 121.517728 
L 1556.590909 121.13511 
L 1556.590909 121.13511 
" clip-path="url(#pa2c78c3135)" style="fill: none; stroke: #35ae9c; stroke-width: 2.5; stroke-linecap: square"/>
   </g>
   <g id="patch_3">
    <path d="M 225 320.4 
L 225 43.2 
" style="fill: none; stroke: #000000; stroke-width: 0.8; stroke-linejoin: miter; stroke-linecap: square"/>
   </g>
   <g id="patch_4">
    <path d="M 1620 320.4 
L 1620 43.2 
" style="fill: none; stroke: #000000; stroke-width: 0.8; stroke-linejoin: miter; stroke-linecap: square"/>
   </g>
   <g id="patch_5">
    <path d="M 225 320.4 
L 1620 320.4 
" style="fill: none; stroke: #000000; stroke-width: 0.8; stroke-linejoin: miter; stroke-linecap: square"/>
   </g>
   <g id="patch_6">
    <path d="M 225 43.2 
L 1620 43.2 
" style="fill: none; stroke: #000000; stroke-width: 0.8; stroke-linejoin: miter; stroke-linecap: square"/>
   </g>
   <g id="text_20">
    <!-- STUE -->
    <g transform="translate(896.40625 37.2) scale(0.2 -0.2)">
     <defs>
      <path id="DejaVuSans-53" d="M 3425 4513 
L 3425 3897 
Q 3066 4069 2747 4153 
Q 2428 4238 2131 4238 
Q 1616 4238 1336 4038 
Q 1056 3838 1056 3469 
Q 1056 3159 1242 3001 
Q 1428 2844 1947 2747 
L 2328 2669 
Q 3034 2534 3370 2195 
Q 3706 1856 3706 1288 
Q 3706 609 3251 259 
Q 2797 -91 1919 -91 
Q 1588 -91 1214 -16 
Q 841 59 441 206 
L 441 856 
Q 825 641 1194 531 
Q 1563 422 1919 422 
Q 2459 422 2753 634 
Q 3047 847 3047 1241 
Q 3047 1584 2836 1778 
Q 2625 1972 2144 2069 
L 1759 2144 
Q 1053 2284 737 2584 
Q 422 2884 422 3419 
Q 422 4038 858 4394 
Q 1294 4750 2059 4750 
Q 2388 4750 2728 4690 
Q 3069 4631 3425 4513 
z
" transform="scale(0.015625)"/>
      <path id="DejaVuSans-55" d="M 556 4666 
L 1191 4666 
L 1191 1831 
Q 1191 1081 1462 751 
Q 1734 422 2344 422 
Q 2950 422 3222 751 
Q 3494 1081 3494 1831 
L 3494 4666 
L 4128 4666 
L 4128 1753 
Q 4128 841 3676 375 
Q 3225 -91 2344 -91 
Q 1459 -91 1007 375 
Q 556 841 556 1753 
L 556 4666 
z
" transform="scale(0.015625)"/>
      <path id="DejaVuSans-45" d="M 628 4666 
L 3578 4666 
L 3578 4134 
L 1259 4134 
L 1259 2753 
L 3481 2753 
L 3481 2222 
L 1259 2222 
L 1259 531 
L 3634 531 
L 3634 0 
L 628 0 
L 628 4666 
z
" transform="scale(0.015625)"/>
     </defs>
     <use xlink:href="#DejaVuSans-53"/>
     <use xlink:href="#DejaVuSans-54" x="63.476562"/>
     <use xlink:href="#DejaVuSans-55" x="124.560547"/>
     <use xlink:href="#DejaVuSans-45" x="197.753906"/>
    </g>
   </g>
   <g id="legend_1">
    <g id="patch_7">
     <path d="M 1559.379688 65.878125 
L 1613 65.878125 
Q 1615 65.878125 1615 63.878125 
L 1615 50.2 
Q 1615 48.2 1613 48.2 
L 1559.379688 48.2 
Q 1557.379688 48.2 1557.379688 50.2 
L 1557.379688 63.878125 
Q 1557.379688 65.878125 1559.379688 65.878125 
z
" style="fill: #ffffff; opacity: 0.8; stroke: #cccccc; stroke-linejoin: miter"/>
    </g>
    <g id="line2d_19">
     <path d="M 1561.379688 56.298437 
L 1571.379688 56.298437 
L 1581.379688 56.298437 
" style="fill: none; stroke: #35ae9c; stroke-width: 2.5; stroke-linecap: square"/>
    </g>
    <g id="text_21">
     <!-- stue -->
     <g transform="translate(1589.379688 59.798437) scale(0.1 -0.1)">
      <defs>
       <path id="DejaVuSans-73" d="M 2834 3397 
L 2834 2853 
Q 2591 2978 2328 3040 
Q 2066 3103 1784 3103 
Q 1356 3103 1142 2972 
Q 928 2841 928 2578 
Q 928 2378 1081 2264 
Q 1234 2150 1697 2047 
L 1894 2003 
Q 2506 1872 2764 1633 
Q 3022 1394 3022 966 
Q 3022 478 2636 193 
Q 2250 -91 1575 -91 
Q 1294 -91 989 -36 
Q 684 19 347 128 
L 347 722 
Q 666 556 975 473 
Q 1284 391 1588 391 
Q 1994 391 2212 530 
Q 2431 669 2431 922 
Q 2431 1156 2273 1281 
Q 2116 1406 1581 1522 
L 1381 1569 
Q 847 1681 609 1914 
Q 372 2147 372 2553 
Q 372 3047 722 3315 
Q 1072 3584 1716 3584 
Q 2034 3584 2315 3537 
Q 2597 3491 2834 3397 
z
" transform="scale(0.015625)"/>
       <path id="DejaVuSans-75" d="M 544 1381 
L 544 3500 
L 1119 3500 
L 1119 1403 
Q 1119 906 1312 657 
Q 1506 409 1894 409 
Q 2359 409 2629 706 
Q 2900 1003 2900 1516 
L 2900 3500 
L 3475 3500 
L 3475 0 
L 2900 0 
L 2900 538 
Q 2691 219 2414 64 
Q 2138 -91 1772 -91 
Q 1169 -91 856 284 
Q 544 659 544 1381 
z
M 1991 3584 
L 1991 3584 
z
" transform="scale(0.015625)"/>
      </defs>
      <use xlink:href="#DejaVuSans-73"/>
      <use xlink:href="#DejaVuSans-74" x="52.099609"/>
      <use xlink:href="#DejaVuSans-75" x="91.308594"/>
      <use xlink:href="#DejaVuSans-65" x="154.6875"/>
     </g>
    </g>
   </g>
  </g>
 </g>
 <defs>
  <clipPath id="pa2c78c3135">
   <rect x="225" y="43.2" width="1395" height="277.2"/>
  </clipPath>
 </defs>
</svg>
