<?xml version="1.0" encoding="utf-8" standalone="no"?>
<!DOCTYPE svg PUBLIC "-//W3C//DTD SVG 1.1//EN"
  "http://www.w3.org/Graphics/SVG/1.1/DTD/svg11.dtd">
<svg xmlns:xlink="http://www.w3.org/1999/xlink" width="1800pt" height="360pt" viewBox="0 0 1800 360" xmlns="http://www.w3.org/2000/svg" version="1.1">
 <metadata>
  <rdf:RDF xmlns:dc="http://purl.org/dc/elements/1.1/" xmlns:cc="http://creativecommons.org/ns#" xmlns:rdf="http://www.w3.org/1999/02/22-rdf-syntax-ns#">
   <cc:Work>
    <dc:type rdf:resource="http://purl.org/dc/dcmitype/StillImage"/>
    <dc:date>2024-03-25T15:23:16.549086</dc:date>
    <dc:format>image/svg+xml</dc:format>
    <dc:creator>
     <cc:Agent>
      <dc:title>Matplotlib v3.7.2, https://matplotlib.org/</dc:title>
     </cc:Agent>
    </dc:creator>
   </cc:Work>
  </rdf:RDF>
 </metadata>
 <defs>
  <style type="text/css">*{stroke-linejoin: round; stroke-linecap: butt}</style>
 </defs>
 <g id="figure_1">
  <g id="patch_1">
   <path d="M 0 360 
L 1800 360 
L 1800 0 
L 0 0 
z
" style="fill: #ffffff"/>
  </g>
  <g id="axes_1">
   <g id="patch_2">
    <path d="M 225 320.4 
L 1620 320.4 
L 1620 43.2 
L 225 43.2 
z
" style="fill: #ffffff"/>
   </g>
   <g id="matplotlib.axis_1">
    <g id="xtick_1">
     <g id="line2d_1">
      <defs>
       <path id="mc5b178ee45" d="M 0 0 
L 0 3.5 
" style="stroke: #000000; stroke-width: 0.8"/>
      </defs>
      <g>
       <use xlink:href="#mc5b178ee45" x="281.924597" y="320.4" style="stroke: #000000; stroke-width: 0.8"/>
      </g>
     </g>
     <g id="text_1">
      <!-- 2011 -->
      <g transform="translate(262.837097 338.797656) scale(0.15 -0.15)">
       <defs>
        <path id="DejaVuSans-32" d="M 1228 531 
L 3431 531 
L 3431 0 
L 469 0 
L 469 531 
Q 828 903 1448 1529 
Q 2069 2156 2228 2338 
Q 2531 2678 2651 2914 
Q 2772 3150 2772 3378 
Q 2772 3750 2511 3984 
Q 2250 4219 1831 4219 
Q 1534 4219 1204 4116 
Q 875 4013 500 3803 
L 500 4441 
Q 881 4594 1212 4672 
Q 1544 4750 1819 4750 
Q 2544 4750 2975 4387 
Q 3406 4025 3406 3419 
Q 3406 3131 3298 2873 
Q 3191 2616 2906 2266 
Q 2828 2175 2409 1742 
Q 1991 1309 1228 531 
z
" transform="scale(0.015625)"/>
        <path id="DejaVuSans-30" d="M 2034 4250 
Q 1547 4250 1301 3770 
Q 1056 3291 1056 2328 
Q 1056 1369 1301 889 
Q 1547 409 2034 409 
Q 2525 409 2770 889 
Q 3016 1369 3016 2328 
Q 3016 3291 2770 3770 
Q 2525 4250 2034 4250 
z
M 2034 4750 
Q 2819 4750 3233 4129 
Q 3647 3509 3647 2328 
Q 3647 1150 3233 529 
Q 2819 -91 2034 -91 
Q 1250 -91 836 529 
Q 422 1150 422 2328 
Q 422 3509 836 4129 
Q 1250 4750 2034 4750 
z
" transform="scale(0.015625)"/>
        <path id="DejaVuSans-31" d="M 794 531 
L 1825 531 
L 1825 4091 
L 703 3866 
L 703 4441 
L 1819 4666 
L 2450 4666 
L 2450 531 
L 3481 531 
L 3481 0 
L 794 0 
L 794 531 
z
" transform="scale(0.015625)"/>
       </defs>
       <use xlink:href="#DejaVuSans-32"/>
       <use xlink:href="#DejaVuSans-30" x="63.623047"/>
       <use xlink:href="#DejaVuSans-31" x="127.246094"/>
       <use xlink:href="#DejaVuSans-31" x="190.869141"/>
      </g>
     </g>
    </g>
    <g id="xtick_2">
     <g id="line2d_2">
      <g>
       <use xlink:href="#mc5b178ee45" x="450.984627" y="320.4" style="stroke: #000000; stroke-width: 0.8"/>
      </g>
     </g>
     <g id="text_2">
      <!-- 2012 -->
      <g transform="translate(431.897127 338.797656) scale(0.15 -0.15)">
       <use xlink:href="#DejaVuSans-32"/>
       <use xlink:href="#DejaVuSans-30" x="63.623047"/>
       <use xlink:href="#DejaVuSans-31" x="127.246094"/>
       <use xlink:href="#DejaVuSans-32" x="190.869141"/>
      </g>
     </g>
    </g>
    <g id="xtick_3">
     <g id="line2d_3">
      <g>
       <use xlink:href="#mc5b178ee45" x="620.507836" y="320.4" style="stroke: #000000; stroke-width: 0.8"/>
      </g>
     </g>
     <g id="text_3">
      <!-- 2013 -->
      <g transform="translate(601.420336 338.797656) scale(0.15 -0.15)">
       <defs>
        <path id="DejaVuSans-33" d="M 2597 2516 
Q 3050 2419 3304 2112 
Q 3559 1806 3559 1356 
Q 3559 666 3084 287 
Q 2609 -91 1734 -91 
Q 1441 -91 1130 -33 
Q 819 25 488 141 
L 488 750 
Q 750 597 1062 519 
Q 1375 441 1716 441 
Q 2309 441 2620 675 
Q 2931 909 2931 1356 
Q 2931 1769 2642 2001 
Q 2353 2234 1838 2234 
L 1294 2234 
L 1294 2753 
L 1863 2753 
Q 2328 2753 2575 2939 
Q 2822 3125 2822 3475 
Q 2822 3834 2567 4026 
Q 2313 4219 1838 4219 
Q 1578 4219 1281 4162 
Q 984 4106 628 3988 
L 628 4550 
Q 988 4650 1302 4700 
Q 1616 4750 1894 4750 
Q 2613 4750 3031 4423 
Q 3450 4097 3450 3541 
Q 3450 3153 3228 2886 
Q 3006 2619 2597 2516 
z
" transform="scale(0.015625)"/>
       </defs>
       <use xlink:href="#DejaVuSans-32"/>
       <use xlink:href="#DejaVuSans-30" x="63.623047"/>
       <use xlink:href="#DejaVuSans-31" x="127.246094"/>
       <use xlink:href="#DejaVuSans-33" x="190.869141"/>
      </g>
     </g>
    </g>
    <g id="xtick_4">
     <g id="line2d_4">
      <g>
       <use xlink:href="#mc5b178ee45" x="789.567866" y="320.4" style="stroke: #000000; stroke-width: 0.8"/>
      </g>
     </g>
     <g id="text_4">
      <!-- 2014 -->
      <g transform="translate(770.480366 338.797656) scale(0.15 -0.15)">
       <defs>
        <path id="DejaVuSans-34" d="M 2419 4116 
L 825 1625 
L 2419 1625 
L 2419 4116 
z
M 2253 4666 
L 3047 4666 
L 3047 1625 
L 3713 1625 
L 3713 1100 
L 3047 1100 
L 3047 0 
L 2419 0 
L 2419 1100 
L 313 1100 
L 313 1709 
L 2253 4666 
z
" transform="scale(0.015625)"/>
       </defs>
       <use xlink:href="#DejaVuSans-32"/>
       <use xlink:href="#DejaVuSans-30" x="63.623047"/>
       <use xlink:href="#DejaVuSans-31" x="127.246094"/>
       <use xlink:href="#DejaVuSans-34" x="190.869141"/>
      </g>
     </g>
    </g>
    <g id="xtick_5">
     <g id="line2d_5">
      <g>
       <use xlink:href="#mc5b178ee45" x="958.627897" y="320.4" style="stroke: #000000; stroke-width: 0.8"/>
      </g>
     </g>
     <g id="text_5">
      <!-- 2015 -->
      <g transform="translate(939.540397 338.797656) scale(0.15 -0.15)">
       <defs>
        <path id="DejaVuSans-35" d="M 691 4666 
L 3169 4666 
L 3169 4134 
L 1269 4134 
L 1269 2991 
Q 1406 3038 1543 3061 
Q 1681 3084 1819 3084 
Q 2600 3084 3056 2656 
Q 3513 2228 3513 1497 
Q 3513 744 3044 326 
Q 2575 -91 1722 -91 
Q 1428 -91 1123 -41 
Q 819 9 494 109 
L 494 744 
Q 775 591 1075 516 
Q 1375 441 1709 441 
Q 2250 441 2565 725 
Q 2881 1009 2881 1497 
Q 2881 1984 2565 2268 
Q 2250 2553 1709 2553 
Q 1456 2553 1204 2497 
Q 953 2441 691 2322 
L 691 4666 
z
" transform="scale(0.015625)"/>
       </defs>
       <use xlink:href="#DejaVuSans-32"/>
       <use xlink:href="#DejaVuSans-30" x="63.623047"/>
       <use xlink:href="#DejaVuSans-31" x="127.246094"/>
       <use xlink:href="#DejaVuSans-35" x="190.869141"/>
      </g>
     </g>
    </g>
    <g id="xtick_6">
     <g id="line2d_6">
      <g>
       <use xlink:href="#mc5b178ee45" x="1127.687927" y="320.4" style="stroke: #000000; stroke-width: 0.8"/>
      </g>
     </g>
     <g id="text_6">
      <!-- 2016 -->
      <g transform="translate(1108.600427 338.797656) scale(0.15 -0.15)">
       <defs>
        <path id="DejaVuSans-36" d="M 2113 2584 
Q 1688 2584 1439 2293 
Q 1191 2003 1191 1497 
Q 1191 994 1439 701 
Q 1688 409 2113 409 
Q 2538 409 2786 701 
Q 3034 994 3034 1497 
Q 3034 2003 2786 2293 
Q 2538 2584 2113 2584 
z
M 3366 4563 
L 3366 3988 
Q 3128 4100 2886 4159 
Q 2644 4219 2406 4219 
Q 1781 4219 1451 3797 
Q 1122 3375 1075 2522 
Q 1259 2794 1537 2939 
Q 1816 3084 2150 3084 
Q 2853 3084 3261 2657 
Q 3669 2231 3669 1497 
Q 3669 778 3244 343 
Q 2819 -91 2113 -91 
Q 1303 -91 875 529 
Q 447 1150 447 2328 
Q 447 3434 972 4092 
Q 1497 4750 2381 4750 
Q 2619 4750 2861 4703 
Q 3103 4656 3366 4563 
z
" transform="scale(0.015625)"/>
       </defs>
       <use xlink:href="#DejaVuSans-32"/>
       <use xlink:href="#DejaVuSans-30" x="63.623047"/>
       <use xlink:href="#DejaVuSans-31" x="127.246094"/>
       <use xlink:href="#DejaVuSans-36" x="190.869141"/>
      </g>
     </g>
    </g>
    <g id="xtick_7">
     <g id="line2d_7">
      <g>
       <use xlink:href="#mc5b178ee45" x="1297.211136" y="320.4" style="stroke: #000000; stroke-width: 0.8"/>
      </g>
     </g>
     <g id="text_7">
      <!-- 2017 -->
      <g transform="translate(1278.123636 338.797656) scale(0.15 -0.15)">
       <defs>
        <path id="DejaVuSans-37" d="M 525 4666 
L 3525 4666 
L 3525 4397 
L 1831 0 
L 1172 0 
L 2766 4134 
L 525 4134 
L 525 4666 
z
" transform="scale(0.015625)"/>
       </defs>
       <use xlink:href="#DejaVuSans-32"/>
       <use xlink:href="#DejaVuSans-30" x="63.623047"/>
       <use xlink:href="#DejaVuSans-31" x="127.246094"/>
       <use xlink:href="#DejaVuSans-37" x="190.869141"/>
      </g>
     </g>
    </g>
    <g id="xtick_8">
     <g id="line2d_8">
      <g>
       <use xlink:href="#mc5b178ee45" x="1466.271167" y="320.4" style="stroke: #000000; stroke-width: 0.8"/>
      </g>
     </g>
     <g id="text_8">
      <!-- 2018 -->
      <g transform="translate(1447.183667 338.797656) scale(0.15 -0.15)">
       <defs>
        <path id="DejaVuSans-38" d="M 2034 2216 
Q 1584 2216 1326 1975 
Q 1069 1734 1069 1313 
Q 1069 891 1326 650 
Q 1584 409 2034 409 
Q 2484 409 2743 651 
Q 3003 894 3003 1313 
Q 3003 1734 2745 1975 
Q 2488 2216 2034 2216 
z
M 1403 2484 
Q 997 2584 770 2862 
Q 544 3141 544 3541 
Q 544 4100 942 4425 
Q 1341 4750 2034 4750 
Q 2731 4750 3128 4425 
Q 3525 4100 3525 3541 
Q 3525 3141 3298 2862 
Q 3072 2584 2669 2484 
Q 3125 2378 3379 2068 
Q 3634 1759 3634 1313 
Q 3634 634 3220 271 
Q 2806 -91 2034 -91 
Q 1263 -91 848 271 
Q 434 634 434 1313 
Q 434 1759 690 2068 
Q 947 2378 1403 2484 
z
M 1172 3481 
Q 1172 3119 1398 2916 
Q 1625 2713 2034 2713 
Q 2441 2713 2670 2916 
Q 2900 3119 2900 3481 
Q 2900 3844 2670 4047 
Q 2441 4250 2034 4250 
Q 1625 4250 1398 4047 
Q 1172 3844 1172 3481 
z
" transform="scale(0.015625)"/>
       </defs>
       <use xlink:href="#DejaVuSans-32"/>
       <use xlink:href="#DejaVuSans-30" x="63.623047"/>
       <use xlink:href="#DejaVuSans-31" x="127.246094"/>
       <use xlink:href="#DejaVuSans-38" x="190.869141"/>
      </g>
     </g>
    </g>
    <g id="text_9">
     <!-- Time -->
     <g transform="translate(904.149609 357.314844) scale(0.15 -0.15)">
      <defs>
       <path id="DejaVuSans-54" d="M -19 4666 
L 3928 4666 
L 3928 4134 
L 2272 4134 
L 2272 0 
L 1638 0 
L 1638 4134 
L -19 4134 
L -19 4666 
z
" transform="scale(0.015625)"/>
       <path id="DejaVuSans-69" d="M 603 3500 
L 1178 3500 
L 1178 0 
L 603 0 
L 603 3500 
z
M 603 4863 
L 1178 4863 
L 1178 4134 
L 603 4134 
L 603 4863 
z
" transform="scale(0.015625)"/>
       <path id="DejaVuSans-6d" d="M 3328 2828 
Q 3544 3216 3844 3400 
Q 4144 3584 4550 3584 
Q 5097 3584 5394 3201 
Q 5691 2819 5691 2113 
L 5691 0 
L 5113 0 
L 5113 2094 
Q 5113 2597 4934 2840 
Q 4756 3084 4391 3084 
Q 3944 3084 3684 2787 
Q 3425 2491 3425 1978 
L 3425 0 
L 2847 0 
L 2847 2094 
Q 2847 2600 2669 2842 
Q 2491 3084 2119 3084 
Q 1678 3084 1418 2786 
Q 1159 2488 1159 1978 
L 1159 0 
L 581 0 
L 581 3500 
L 1159 3500 
L 1159 2956 
Q 1356 3278 1631 3431 
Q 1906 3584 2284 3584 
Q 2666 3584 2933 3390 
Q 3200 3197 3328 2828 
z
" transform="scale(0.015625)"/>
       <path id="DejaVuSans-65" d="M 3597 1894 
L 3597 1613 
L 953 1613 
Q 991 1019 1311 708 
Q 1631 397 2203 397 
Q 2534 397 2845 478 
Q 3156 559 3463 722 
L 3463 178 
Q 3153 47 2828 -22 
Q 2503 -91 2169 -91 
Q 1331 -91 842 396 
Q 353 884 353 1716 
Q 353 2575 817 3079 
Q 1281 3584 2069 3584 
Q 2775 3584 3186 3129 
Q 3597 2675 3597 1894 
z
M 3022 2063 
Q 3016 2534 2758 2815 
Q 2500 3097 2075 3097 
Q 1594 3097 1305 2825 
Q 1016 2553 972 2059 
L 3022 2063 
z
" transform="scale(0.015625)"/>
      </defs>
      <use xlink:href="#DejaVuSans-54"/>
      <use xlink:href="#DejaVuSans-69" x="57.958984"/>
      <use xlink:href="#DejaVuSans-6d" x="85.742188"/>
      <use xlink:href="#DejaVuSans-65" x="183.154297"/>
     </g>
    </g>
   </g>
   <g id="matplotlib.axis_2">
    <g id="ytick_1">
     <g id="line2d_9">
      <defs>
       <path id="m233f16db0b" d="M 0 0 
L -3.5 0 
" style="stroke: #000000; stroke-width: 0.8"/>
      </defs>
      <g>
       <use xlink:href="#m233f16db0b" x="225" y="316.067629" style="stroke: #000000; stroke-width: 0.8"/>
      </g>
     </g>
     <g id="text_10">
      <!-- −0.004 -->
      <g transform="translate(162.488281 321.766457) scale(0.15 -0.15)">
       <defs>
        <path id="DejaVuSans-2212" d="M 678 2272 
L 4684 2272 
L 4684 1741 
L 678 1741 
L 678 2272 
z
" transform="scale(0.015625)"/>
        <path id="DejaVuSans-2e" d="M 684 794 
L 1344 794 
L 1344 0 
L 684 0 
L 684 794 
z
" transform="scale(0.015625)"/>
       </defs>
       <use xlink:href="#DejaVuSans-2212"/>
       <use xlink:href="#DejaVuSans-30" x="83.789062"/>
       <use xlink:href="#DejaVuSans-2e" x="147.412109"/>
       <use xlink:href="#DejaVuSans-30" x="179.199219"/>
       <use xlink:href="#DejaVuSans-30" x="242.822266"/>
       <use xlink:href="#DejaVuSans-34" x="306.445312"/>
      </g>
     </g>
    </g>
    <g id="ytick_2">
     <g id="line2d_10">
      <g>
       <use xlink:href="#m233f16db0b" x="225" y="282.624387" style="stroke: #000000; stroke-width: 0.8"/>
      </g>
     </g>
     <g id="text_11">
      <!-- −0.003 -->
      <g transform="translate(162.488281 288.323215) scale(0.15 -0.15)">
       <use xlink:href="#DejaVuSans-2212"/>
       <use xlink:href="#DejaVuSans-30" x="83.789062"/>
       <use xlink:href="#DejaVuSans-2e" x="147.412109"/>
       <use xlink:href="#DejaVuSans-30" x="179.199219"/>
       <use xlink:href="#DejaVuSans-30" x="242.822266"/>
       <use xlink:href="#DejaVuSans-33" x="306.445312"/>
      </g>
     </g>
    </g>
    <g id="ytick_3">
     <g id="line2d_11">
      <g>
       <use xlink:href="#m233f16db0b" x="225" y="249.181145" style="stroke: #000000; stroke-width: 0.8"/>
      </g>
     </g>
     <g id="text_12">
      <!-- −0.002 -->
      <g transform="translate(162.488281 254.879973) scale(0.15 -0.15)">
       <use xlink:href="#DejaVuSans-2212"/>
       <use xlink:href="#DejaVuSans-30" x="83.789062"/>
       <use xlink:href="#DejaVuSans-2e" x="147.412109"/>
       <use xlink:href="#DejaVuSans-30" x="179.199219"/>
       <use xlink:href="#DejaVuSans-30" x="242.822266"/>
       <use xlink:href="#DejaVuSans-32" x="306.445312"/>
      </g>
     </g>
    </g>
    <g id="ytick_4">
     <g id="line2d_12">
      <g>
       <use xlink:href="#m233f16db0b" x="225" y="215.737903" style="stroke: #000000; stroke-width: 0.8"/>
      </g>
     </g>
     <g id="text_13">
      <!-- −0.001 -->
      <g transform="translate(162.488281 221.436731) scale(0.15 -0.15)">
       <use xlink:href="#DejaVuSans-2212"/>
       <use xlink:href="#DejaVuSans-30" x="83.789062"/>
       <use xlink:href="#DejaVuSans-2e" x="147.412109"/>
       <use xlink:href="#DejaVuSans-30" x="179.199219"/>
       <use xlink:href="#DejaVuSans-30" x="242.822266"/>
       <use xlink:href="#DejaVuSans-31" x="306.445312"/>
      </g>
     </g>
    </g>
    <g id="ytick_5">
     <g id="line2d_13">
      <g>
       <use xlink:href="#m233f16db0b" x="225" y="182.294661" style="stroke: #000000; stroke-width: 0.8"/>
      </g>
     </g>
     <g id="text_14">
      <!-- 0.000 -->
      <g transform="translate(175.057813 187.99349) scale(0.15 -0.15)">
       <use xlink:href="#DejaVuSans-30"/>
       <use xlink:href="#DejaVuSans-2e" x="63.623047"/>
       <use xlink:href="#DejaVuSans-30" x="95.410156"/>
       <use xlink:href="#DejaVuSans-30" x="159.033203"/>
       <use xlink:href="#DejaVuSans-30" x="222.65625"/>
      </g>
     </g>
    </g>
    <g id="ytick_6">
     <g id="line2d_14">
      <g>
       <use xlink:href="#m233f16db0b" x="225" y="148.85142" style="stroke: #000000; stroke-width: 0.8"/>
      </g>
     </g>
     <g id="text_15">
      <!-- 0.001 -->
      <g transform="translate(175.057813 154.550248) scale(0.15 -0.15)">
       <use xlink:href="#DejaVuSans-30"/>
       <use xlink:href="#DejaVuSans-2e" x="63.623047"/>
       <use xlink:href="#DejaVuSans-30" x="95.410156"/>
       <use xlink:href="#DejaVuSans-30" x="159.033203"/>
       <use xlink:href="#DejaVuSans-31" x="222.65625"/>
      </g>
     </g>
    </g>
    <g id="ytick_7">
     <g id="line2d_15">
      <g>
       <use xlink:href="#m233f16db0b" x="225" y="115.408178" style="stroke: #000000; stroke-width: 0.8"/>
      </g>
     </g>
     <g id="text_16">
      <!-- 0.002 -->
      <g transform="translate(175.057813 121.107006) scale(0.15 -0.15)">
       <use xlink:href="#DejaVuSans-30"/>
       <use xlink:href="#DejaVuSans-2e" x="63.623047"/>
       <use xlink:href="#DejaVuSans-30" x="95.410156"/>
       <use xlink:href="#DejaVuSans-30" x="159.033203"/>
       <use xlink:href="#DejaVuSans-32" x="222.65625"/>
      </g>
     </g>
    </g>
    <g id="ytick_8">
     <g id="line2d_16">
      <g>
       <use xlink:href="#m233f16db0b" x="225" y="81.964936" style="stroke: #000000; stroke-width: 0.8"/>
      </g>
     </g>
     <g id="text_17">
      <!-- 0.003 -->
      <g transform="translate(175.057813 87.663764) scale(0.15 -0.15)">
       <use xlink:href="#DejaVuSans-30"/>
       <use xlink:href="#DejaVuSans-2e" x="63.623047"/>
       <use xlink:href="#DejaVuSans-30" x="95.410156"/>
       <use xlink:href="#DejaVuSans-30" x="159.033203"/>
       <use xlink:href="#DejaVuSans-33" x="222.65625"/>
      </g>
     </g>
    </g>
    <g id="ytick_9">
     <g id="line2d_17">
      <g>
       <use xlink:href="#m233f16db0b" x="225" y="48.521694" style="stroke: #000000; stroke-width: 0.8"/>
      </g>
     </g>
     <g id="text_18">
      <!-- 0.004 -->
      <g transform="translate(175.057813 54.220522) scale(0.15 -0.15)">
       <use xlink:href="#DejaVuSans-30"/>
       <use xlink:href="#DejaVuSans-2e" x="63.623047"/>
       <use xlink:href="#DejaVuSans-30" x="95.410156"/>
       <use xlink:href="#DejaVuSans-30" x="159.033203"/>
       <use xlink:href="#DejaVuSans-34" x="222.65625"/>
      </g>
     </g>
    </g>
    <g id="text_19">
     <!-- North(m) -->
     <g transform="translate(155.36875 215.934375) rotate(-90) scale(0.15 -0.15)">
      <defs>
       <path id="DejaVuSans-4e" d="M 628 4666 
L 1478 4666 
L 3547 763 
L 3547 4666 
L 4159 4666 
L 4159 0 
L 3309 0 
L 1241 3903 
L 1241 0 
L 628 0 
L 628 4666 
z
" transform="scale(0.015625)"/>
       <path id="DejaVuSans-6f" d="M 1959 3097 
Q 1497 3097 1228 2736 
Q 959 2375 959 1747 
Q 959 1119 1226 758 
Q 1494 397 1959 397 
Q 2419 397 2687 759 
Q 2956 1122 2956 1747 
Q 2956 2369 2687 2733 
Q 2419 3097 1959 3097 
z
M 1959 3584 
Q 2709 3584 3137 3096 
Q 3566 2609 3566 1747 
Q 3566 888 3137 398 
Q 2709 -91 1959 -91 
Q 1206 -91 779 398 
Q 353 888 353 1747 
Q 353 2609 779 3096 
Q 1206 3584 1959 3584 
z
" transform="scale(0.015625)"/>
       <path id="DejaVuSans-72" d="M 2631 2963 
Q 2534 3019 2420 3045 
Q 2306 3072 2169 3072 
Q 1681 3072 1420 2755 
Q 1159 2438 1159 1844 
L 1159 0 
L 581 0 
L 581 3500 
L 1159 3500 
L 1159 2956 
Q 1341 3275 1631 3429 
Q 1922 3584 2338 3584 
Q 2397 3584 2469 3576 
Q 2541 3569 2628 3553 
L 2631 2963 
z
" transform="scale(0.015625)"/>
       <path id="DejaVuSans-74" d="M 1172 4494 
L 1172 3500 
L 2356 3500 
L 2356 3053 
L 1172 3053 
L 1172 1153 
Q 1172 725 1289 603 
Q 1406 481 1766 481 
L 2356 481 
L 2356 0 
L 1766 0 
Q 1100 0 847 248 
Q 594 497 594 1153 
L 594 3053 
L 172 3053 
L 172 3500 
L 594 3500 
L 594 4494 
L 1172 4494 
z
" transform="scale(0.015625)"/>
       <path id="DejaVuSans-68" d="M 3513 2113 
L 3513 0 
L 2938 0 
L 2938 2094 
Q 2938 2591 2744 2837 
Q 2550 3084 2163 3084 
Q 1697 3084 1428 2787 
Q 1159 2491 1159 1978 
L 1159 0 
L 581 0 
L 581 4863 
L 1159 4863 
L 1159 2956 
Q 1366 3272 1645 3428 
Q 1925 3584 2291 3584 
Q 2894 3584 3203 3211 
Q 3513 2838 3513 2113 
z
" transform="scale(0.015625)"/>
       <path id="DejaVuSans-28" d="M 1984 4856 
Q 1566 4138 1362 3434 
Q 1159 2731 1159 2009 
Q 1159 1288 1364 580 
Q 1569 -128 1984 -844 
L 1484 -844 
Q 1016 -109 783 600 
Q 550 1309 550 2009 
Q 550 2706 781 3412 
Q 1013 4119 1484 4856 
L 1984 4856 
z
" transform="scale(0.015625)"/>
       <path id="DejaVuSans-29" d="M 513 4856 
L 1013 4856 
Q 1481 4119 1714 3412 
Q 1947 2706 1947 2009 
Q 1947 1309 1714 600 
Q 1481 -109 1013 -844 
L 513 -844 
Q 928 -128 1133 580 
Q 1338 1288 1338 2009 
Q 1338 2731 1133 3434 
Q 928 4138 513 4856 
z
" transform="scale(0.015625)"/>
      </defs>
      <use xlink:href="#DejaVuSans-4e"/>
      <use xlink:href="#DejaVuSans-6f" x="74.804688"/>
      <use xlink:href="#DejaVuSans-72" x="135.986328"/>
      <use xlink:href="#DejaVuSans-74" x="177.099609"/>
      <use xlink:href="#DejaVuSans-68" x="216.308594"/>
      <use xlink:href="#DejaVuSans-28" x="279.6875"/>
      <use xlink:href="#DejaVuSans-6d" x="318.701172"/>
      <use xlink:href="#DejaVuSans-29" x="416.113281"/>
     </g>
    </g>
   </g>
   <g id="line2d_18">
    <path d="M 288.409091 144.50172 
L 288.872269 120.902384 
L 289.798625 108.292385 
L 290.261804 96.229296 
L 290.724982 87.176655 
L 291.18816 85.997828 
L 291.651338 77.363992 
L 292.114516 74.749939 
L 292.577694 79.378737 
L 293.040873 81.747728 
L 293.504051 92.544415 
L 293.967229 97.851633 
L 294.430407 101.271697 
L 295.356763 117.891584 
L 295.819942 109.988721 
L 296.28312 109.835136 
L 296.746298 108.286489 
L 297.209476 102.232561 
L 297.672654 100.526253 
L 298.599011 86.83223 
L 299.062189 86.000224 
L 299.525367 87.428026 
L 299.988545 80.35169 
L 300.451723 84.789384 
L 301.37808 79.217291 
L 301.841258 73.278024 
L 302.304436 74.208955 
L 302.767614 74.652571 
L 303.230792 70.547905 
L 303.69397 68.726935 
L 304.157149 63.055214 
L 304.620327 59.977734 
L 305.083505 62.61427 
L 305.546683 64.371727 
L 306.009861 55.8 
L 307.862574 57.725055 
L 308.325752 55.85669 
L 308.78893 62.287027 
L 309.252108 63.003348 
L 309.715287 64.980956 
L 310.178465 65.917046 
L 311.104821 76.646527 
L 311.567999 85.599058 
L 312.031177 85.951899 
L 312.494356 92.706731 
L 312.957534 93.18379 
L 313.88389 91.911542 
L 314.347068 94.022542 
L 314.810246 100.132398 
L 315.273425 111.531064 
L 315.736603 111.176819 
L 316.199781 120.315677 
L 317.126137 109.641101 
L 317.589315 109.253413 
L 318.515672 94.68031 
L 318.97885 92.53924 
L 319.442028 83.241317 
L 319.905206 90.168144 
L 320.368384 102.293005 
L 320.831563 109.654594 
L 321.294741 110.71452 
L 321.757919 115.123549 
L 322.221097 118.438505 
L 322.684275 117.209958 
L 323.147453 121.040896 
L 323.610632 127.451741 
L 324.07381 123.175082 
L 324.536988 130.804216 
L 325.000166 136.082769 
L 325.463344 136.89426 
L 325.926522 148.880571 
L 326.389701 151.502774 
L 326.852879 142.529728 
L 327.316057 142.997231 
L 327.779235 137.774606 
L 328.242413 130.120179 
L 328.705591 140.329221 
L 329.16877 138.536917 
L 329.631948 134.580357 
L 330.095126 136.118044 
L 330.558304 135.916682 
L 331.021482 135.385666 
L 331.48466 136.402594 
L 331.947839 125.212738 
L 332.411017 121.743494 
L 332.874195 120.080185 
L 333.800551 131.033831 
L 334.263729 136.665927 
L 334.726907 133.798661 
L 335.190086 137.276056 
L 335.653264 134.193798 
L 336.116442 132.000175 
L 336.57962 118.130082 
L 337.042798 109.950119 
L 337.505976 98.392388 
L 337.969155 103.900265 
L 338.432333 99.083736 
L 338.895511 104.285847 
L 339.358689 107.940013 
L 339.821867 119.023357 
L 340.285045 118.927103 
L 340.748224 126.145363 
L 341.211402 124.983703 
L 341.67458 120.831261 
L 342.137758 115.212094 
L 342.600936 117.280096 
L 343.064114 112.922217 
L 343.527293 115.620862 
L 343.990471 116.881448 
L 344.453649 119.312547 
L 344.916827 127.973645 
L 345.380005 131.030611 
L 345.843183 125.893982 
L 346.306362 127.245342 
L 346.76954 123.627992 
L 347.232718 116.628097 
L 347.695896 118.285225 
L 348.159074 112.847607 
L 348.622252 111.771943 
L 349.548609 117.040238 
L 350.011787 126.666412 
L 350.474965 133.602794 
L 350.938143 134.256624 
L 351.401321 140.743911 
L 351.8645 142.869243 
L 352.327678 140.823726 
L 352.790856 136.575732 
L 353.254034 135.581288 
L 353.717212 138.432816 
L 354.18039 125.943452 
L 354.643569 119.07733 
L 355.106747 126.658689 
L 356.033103 127.579362 
L 356.496281 117.005818 
L 356.959459 114.272326 
L 357.422638 127.921244 
L 357.885816 130.228125 
L 358.348994 122.597586 
L 358.812172 131.650448 
L 359.27535 130.16391 
L 359.738528 143.56917 
L 360.201707 143.515914 
L 360.664885 138.503504 
L 361.128063 150.609255 
L 361.591241 154.220423 
L 362.054419 150.555297 
L 362.517597 151.615223 
L 362.980776 142.852392 
L 363.443954 139.368815 
L 364.37031 124.317952 
L 364.833488 125.267993 
L 365.296666 133.542105 
L 365.759845 136.59907 
L 366.223023 145.331832 
L 366.686201 148.006589 
L 367.149379 156.094374 
L 367.612557 161.807689 
L 368.075735 161.682769 
L 368.538914 157.788318 
L 369.002092 163.243642 
L 369.46527 158.498777 
L 369.928448 155.937278 
L 370.391626 162.080577 
L 370.854804 162.395197 
L 371.317983 168.958925 
L 371.781161 166.402204 
L 372.244339 154.017947 
L 372.707517 158.489084 
L 373.170695 168.09137 
L 373.633873 161.884558 
L 374.097052 163.178587 
L 374.56023 153.957105 
L 375.023408 159.178326 
L 375.486586 167.032008 
L 375.949764 168.335593 
L 376.412942 160.026634 
L 376.876121 160.661353 
L 377.339299 151.420761 
L 377.802477 157.568838 
L 378.265655 149.513092 
L 378.728833 144.171026 
L 379.192011 148.193068 
L 380.118368 161.454298 
L 380.581546 163.216533 
L 381.044724 158.251898 
L 381.507902 162.441156 
L 381.97108 171.298136 
L 382.434259 158.388342 
L 382.897437 161.622079 
L 383.360615 153.709662 
L 383.823793 156.021321 
L 384.286971 155.155872 
L 385.213328 141.117861 
L 385.676506 151.642225 
L 386.139684 145.526187 
L 386.602862 145.592372 
L 387.06604 146.84818 
L 387.529218 149.694931 
L 387.992397 149.359796 
L 388.455575 156.85038 
L 388.918753 157.160223 
L 389.381931 152.955227 
L 389.845109 151.12948 
L 390.308287 157.487771 
L 390.771466 160.344077 
L 391.234644 164.839102 
L 391.697822 160.930318 
L 392.161 150.906199 
L 392.624178 169.829594 
L 393.087356 176.785086 
L 393.550535 171.64368 
L 394.013713 172.05863 
L 394.940069 181.16812 
L 395.403247 189.752776 
L 395.866425 171.195852 
L 396.329604 169.943417 
L 396.792782 169.665614 
L 397.25596 168.346292 
L 397.719138 176.56785 
L 398.182316 177.646887 
L 399.108673 190.282251 
L 399.571851 188.403949 
L 400.035029 184.24673 
L 400.498207 195.932052 
L 400.961385 194.125415 
L 401.887742 202.967359 
L 402.35092 212.416762 
L 402.814098 228.411484 
L 403.277276 235.591524 
L 403.740454 226.828693 
L 404.203632 221.782838 
L 404.666811 223.21064 
L 405.593167 201.313468 
L 406.056345 185.861988 
L 406.519523 186.243494 
L 406.982701 188.813144 
L 407.44588 187.885587 
L 407.909058 181.597555 
L 408.372236 183.722887 
L 409.298592 197.853642 
L 409.76177 191.966929 
L 410.224949 195.124224 
L 411.614483 217.901743 
L 412.077661 219.028556 
L 412.540839 215.640531 
L 413.004018 216.509354 
L 413.467196 215.89234 
L 413.930374 217.114705 
L 414.393552 213.717125 
L 414.85673 206.196471 
L 415.319908 204.299059 
L 415.783087 201.642008 
L 416.246265 205.439503 
L 416.709443 203.389208 
L 417.172621 198.782894 
L 417.635799 189.628298 
L 418.098977 190.664337 
L 418.562156 192.326241 
L 419.488512 197.608869 
L 420.414868 180.861956 
L 420.878046 186.933591 
L 421.341225 180.215575 
L 421.804403 177.396085 
L 422.730759 167.380819 
L 423.657115 184.53102 
L 424.583472 193.243969 
L 425.04665 193.03783 
L 425.509828 200.690853 
L 425.973006 201.860664 
L 426.436184 193.20294 
L 426.899363 187.851319 
L 427.825719 172.790901 
L 429.215253 153.157611 
L 430.14161 145.387819 
L 430.604788 140.074419 
L 431.067966 136.11786 
L 431.994322 131.71628 
L 432.4575 131.037158 
L 432.920679 129.85161 
L 433.383857 135.407263 
L 433.847035 132.267674 
L 434.773391 146.627753 
L 435.236569 152.479618 
L 435.699748 147.553204 
L 436.162926 151.689909 
L 436.626104 143.170735 
L 437.089282 153.408443 
L 437.55246 151.706913 
L 438.478817 160.348198 
L 438.941995 170.332692 
L 439.868351 177.555028 
L 440.331529 170.593354 
L 440.794707 173.678986 
L 442.184242 162.822158 
L 443.110598 169.671841 
L 443.573776 177.869511 
L 444.036955 171.395153 
L 444.500133 166.836614 
L 444.963311 157.944787 
L 445.426489 154.427767 
L 446.352845 137.437196 
L 446.816024 130.872063 
L 447.279202 134.717334 
L 447.74238 134.267537 
L 448.205558 139.679862 
L 448.668736 138.766637 
L 449.595093 147.465254 
L 450.058271 147.927979 
L 450.521449 139.948675 
L 450.984627 142.374997 
L 451.447805 135.733422 
L 451.910983 141.504068 
L 452.374162 140.638619 
L 452.83734 140.43248 
L 453.763696 148.342791 
L 454.226874 147.381791 
L 454.690052 148.976809 
L 455.153231 140.701293 
L 455.616409 135.082126 
L 456.079587 133.977797 
L 456.542765 127.302779 
L 457.005943 125.60125 
L 457.9323 110.999481 
L 458.395478 107.119363 
L 458.858656 102.11173 
L 459.321834 92.670478 
L 459.785012 86.984425 
L 460.24819 79.640543 
L 460.711369 77.332257 
L 461.174547 77.040121 
L 461.637725 75.73991 
L 462.100903 73.81861 
L 462.564081 76.173268 
L 463.490438 66.936751 
L 463.953616 60.596166 
L 464.416794 58.445541 
L 464.879972 57.928857 
L 465.34315 61.635577 
L 465.806328 59.040635 
L 466.269507 67.510628 
L 466.732685 69.798399 
L 467.195863 77.656859 
L 467.659041 77.374278 
L 468.122219 77.502571 
L 468.585397 74.601862 
L 469.048576 81.113037 
L 469.511754 85.302296 
L 470.43811 102.242282 
L 471.364466 129.559229 
L 471.827645 136.849153 
L 472.754001 140.465099 
L 473.217179 137.76505 
L 473.680357 139.837828 
L 474.143535 130.434798 
L 474.606714 126.650232 
L 475.069892 124.298947 
L 475.53307 127.169586 
L 475.996248 124.38354 
L 476.922604 135.886611 
L 477.385783 146.344088 
L 477.848961 152.616383 
L 478.312139 156.437765 
L 478.775317 154.573797 
L 479.238495 175.193242 
L 480.164852 188.664687 
L 480.62803 190.13071 
L 481.091208 187.984862 
L 481.554386 189.689766 
L 482.480742 208.660937 
L 482.943921 191.575516 
L 483.870277 174.341287 
L 484.333455 169.577311 
L 484.796633 168.974631 
L 485.259811 173.397992 
L 485.72299 166.402875 
L 486.186168 181.284415 
L 486.649346 191.913886 
L 487.575702 193.059809 
L 488.03888 194.41117 
L 488.502059 187.310945 
L 488.965237 177.291603 
L 490.354771 139.321862 
L 490.817949 133.67403 
L 491.281128 135.068388 
L 491.744306 143.466718 
L 492.207484 153.924195 
L 492.670662 171.796517 
L 493.13384 177.01296 
L 493.597018 176.520165 
L 494.060197 185.482252 
L 494.986553 205.618457 
L 495.449731 200.735041 
L 495.912909 190.839917 
L 496.376087 192.30594 
L 496.839266 194.33572 
L 497.765622 195.247541 
L 498.691978 181.414967 
L 499.155156 178.074718 
L 499.618335 169.378773 
L 500.081513 164.653019 
L 500.544691 158.780639 
L 501.007869 155.196732 
L 501.471047 154.426836 
L 501.934225 154.93256 
L 502.397404 154.683422 
L 502.860582 155.867566 
L 503.32376 154.615131 
L 503.786938 157.261223 
L 504.250116 157.652284 
L 504.713294 155.038232 
L 505.176473 149.581504 
L 505.639651 148.548839 
L 506.102829 142.399358 
L 506.566007 141.901784 
L 507.955542 120.36223 
L 508.41872 123.404863 
L 508.881898 130.876337 
L 509.345076 144.945684 
L 509.808254 145.699844 
L 510.271432 144.471297 
L 510.734611 147.881805 
L 511.197789 154.741745 
L 512.124145 146.686 
L 513.050501 131.34848 
L 513.51368 126.708723 
L 513.976858 135.699475 
L 514.440036 133.128421 
L 514.903214 124.895903 
L 515.366392 131.387968 
L 515.82957 142.619417 
L 516.292749 147.042778 
L 517.219105 152.827055 
L 517.682283 155.372817 
L 518.145461 160.207052 
L 518.608639 163.59845 
L 519.071818 154.783065 
L 519.534996 150.334412 
L 519.998174 155.469636 
L 520.461352 156.649002 
L 520.92453 162.625085 
L 521.387708 171.166743 
L 521.850887 174.429145 
L 522.777243 183.634188 
L 523.240421 179.562965 
L 523.703599 185.768373 
L 524.166777 185.791559 
L 524.629956 194.524321 
L 525.093134 197.39496 
L 525.556312 195.167893 
L 526.01949 204.072649 
L 526.482668 210.048732 
L 526.945846 206.856589 
L 527.409025 207.400534 
L 527.872203 198.871805 
L 528.335381 195.135015 
L 528.798559 196.505486 
L 529.261737 196.45223 
L 529.724915 197.316274 
L 530.188093 196.479491 
L 530.651272 191.371528 
L 531.11445 197.495717 
L 531.577628 199.076402 
L 532.040806 197.546866 
L 532.503984 201.277475 
L 532.967162 203.512692 
L 533.430341 202.6138 
L 533.893519 214.815104 
L 534.356697 215.277829 
L 535.283053 231.295738 
L 535.746231 233.153524 
L 536.672588 247.193504 
L 537.135766 248.716858 
L 537.598944 251.716493 
L 538.062122 242.662227 
L 538.5253 240.382607 
L 538.988479 227.143159 
L 539.451657 217.171593 
L 539.914835 222.058382 
L 540.378013 205.264394 
L 540.841191 196.401233 
L 541.304369 198.459679 
L 541.767548 186.706066 
L 542.693904 191.706815 
L 543.157082 181.830802 
L 543.62026 194.571975 
L 544.083438 202.167666 
L 544.546617 198.774864 
L 545.009795 207.947165 
L 545.936151 220.926516 
L 546.862507 209.01454 
L 547.325686 197.332591 
L 547.788864 207.981173 
L 548.71522 217.262657 
L 549.178398 210.076436 
L 549.641576 218.26455 
L 550.104755 221.7515 
L 550.567933 231.564001 
L 551.031111 230.970876 
L 551.494289 240.711712 
L 551.957467 240.668012 
L 552.420645 232.989697 
L 553.347002 248.912053 
L 553.81018 251.949908 
L 554.736536 254.189201 
L 555.199714 251.460486 
L 555.662893 269.500024 
L 556.126071 268.997673 
L 557.052427 265.116853 
L 557.515605 265.574801 
L 557.978783 257.86782 
L 558.90514 269.31356 
L 560.294674 286.386617 
L 560.757852 285.353952 
L 561.221031 288.133817 
L 562.147387 275.739303 
L 562.610565 270.373349 
L 563.073743 269.646451 
L 563.536921 270.84015 
L 564.0001 279.238479 
L 565.389634 291.476599 
L 566.31599 293.815459 
L 566.779169 296.254648 
L 567.242347 294.943417 
L 567.705525 292.948987 
L 568.168703 292.989818 
L 568.631881 297.125058 
L 569.095059 295.254846 
L 569.558238 287.97785 
L 570.021416 286.290653 
L 570.484594 295.443844 
L 570.947772 298.209376 
L 571.41095 296.789725 
L 572.337307 299.267898 
L 572.800485 307.8 
L 574.190019 307.576597 
L 575.116376 300.486309 
L 575.579554 298.264402 
L 576.50591 291.823869 
L 576.969088 291.484338 
L 577.432266 281.938361 
L 578.358623 255.926586 
L 578.821801 252.40001 
L 579.284979 237.899274 
L 579.748157 239.795282 
L 580.211335 228.514652 
L 581.137692 244.202905 
L 581.60087 243.896437 
L 582.064048 234.808728 
L 582.527226 238.49156 
L 582.990404 227.402034 
L 583.453583 224.596877 
L 583.916761 217.811975 
L 584.379939 218.704685 
L 584.843117 223.008606 
L 585.306295 230.623408 
L 585.769473 231.387122 
L 586.232652 238.089401 
L 586.69583 240.520501 
L 587.159008 231.021918 
L 587.622186 226.238832 
L 588.085364 228.894479 
L 588.548542 222.60167 
L 589.011721 219.896843 
L 589.474899 219.131723 
L 589.938077 222.303352 
L 590.401255 239.850796 
L 590.864433 241.259488 
L 591.327611 238.186785 
L 591.79079 242.76303 
L 592.253968 245.01258 
L 593.643502 253.530349 
L 594.10668 250.519755 
L 594.569859 241.68526 
L 595.033037 236.094758 
L 596.885749 192.118864 
L 597.348928 191.162641 
L 597.812106 180.923529 
L 598.275284 179.245887 
L 598.738462 175.661981 
L 599.20164 176.363587 
L 600.127997 168.12559 
L 600.591175 168.645647 
L 601.054353 169.504914 
L 601.517531 160.947519 
L 601.980709 168.30433 
L 602.443887 167.644318 
L 602.907066 169.73143 
L 603.370244 172.516072 
L 603.833422 164.479437 
L 604.2966 164.985161 
L 604.759778 176.09717 
L 605.222956 179.450348 
L 605.686135 179.368426 
L 606.149313 176.673154 
L 606.612491 181.182512 
L 607.075669 184.210812 
L 607.538847 191.003866 
L 608.002025 194.371376 
L 608.465204 190.12816 
L 608.928382 196.882992 
L 609.39156 194.125611 
L 612.170629 182.357666 
L 612.633807 188.1522 
L 613.096985 181.907167 
L 613.560163 182.059348 
L 614.023342 183.850248 
L 614.48652 180.395337 
L 615.412876 192.476498 
L 615.876054 192.475796 
L 616.339232 189.923852 
L 616.802411 185.221986 
L 617.265589 194.824271 
L 617.728767 198.225225 
L 618.191945 211.133614 
L 618.655123 217.988776 
L 619.118301 210.539787 
L 620.044658 218.808418 
L 620.507836 210.733562 
L 620.971014 208.487385 
L 621.89737 184.230075 
L 622.360549 182.872533 
L 622.823727 178.20411 
L 623.286905 163.856257 
L 623.750083 170.228881 
L 624.213261 164.499829 
L 624.676439 153.902397 
L 625.139618 158.30187 
L 626.065974 177.711879 
L 626.529152 193.821264 
L 626.99233 194.723529 
L 627.455508 205.0759 
L 627.918686 224.620383 
L 628.845043 203.310856 
L 630.234577 176.377385 
L 630.697755 171.040097 
L 631.160934 164.18353 
L 631.624112 177.09192 
L 632.08729 178.658272 
L 632.550468 178.342248 
L 633.013646 183.104819 
L 633.476824 179.793236 
L 633.940003 179.185778 
L 634.403181 177.016043 
L 634.866359 183.508107 
L 635.329537 185.294229 
L 635.792715 193.878885 
L 636.255893 194.074065 
L 636.719072 210.035344 
L 637.645428 204.888459 
L 638.108606 198.184775 
L 638.571784 195.107295 
L 639.034962 201.241039 
L 639.498141 212.749589 
L 639.961319 206.944096 
L 640.887675 235.765989 
L 641.814031 260.756241 
L 642.27721 257.5211 
L 642.740388 252.718904 
L 643.203566 242.561011 
L 644.5931 199.077913 
L 645.056279 193.033539 
L 645.519457 200.213579 
L 645.982635 204.909263 
L 647.372169 240.758312 
L 648.298526 253.202571 
L 648.761704 248.424263 
L 649.224882 242.356001 
L 649.68806 244.094348 
L 650.151238 248.063836 
L 650.614417 254.331353 
L 651.077595 256.834117 
L 651.540773 257.683828 
L 652.003951 249.63286 
L 652.467129 243.650595 
L 652.930307 250.137882 
L 653.393486 247.399612 
L 653.856664 242.869739 
L 654.319842 246.289803 
L 654.78302 246.465872 
L 655.709376 258.738138 
L 656.172555 249.554877 
L 656.635733 249.195854 
L 657.098911 239.262509 
L 658.025267 225.434713 
L 659.87798 186.083542 
L 660.341158 191.295208 
L 660.804336 194.313953 
L 661.267514 192.110774 
L 661.730693 192.286843 
L 662.193871 195.305588 
L 663.120227 180.168728 
L 663.583405 177.220243 
L 664.046583 161.682766 
L 664.509762 160.845983 
L 664.97294 160.482183 
L 665.436118 161.437002 
L 665.899296 172.286243 
L 666.362474 178.935968 
L 666.825652 179.938563 
L 667.288831 188.766877 
L 667.752009 185.546069 
L 668.215187 189.128571 
L 668.678365 180.389627 
L 669.141543 174.703574 
L 669.604721 175.424291 
L 670.0679 171.171519 
L 670.531078 165.179699 
L 670.994256 161.055923 
L 671.457434 153.129172 
L 671.920612 156.186138 
L 672.38379 155.292024 
L 673.310147 146.572191 
L 674.699681 165.422517 
L 675.162859 166.654438 
L 675.626038 170.1175 
L 676.089216 174.454864 
L 676.552394 182.318101 
L 677.015572 179.398282 
L 677.47875 180.171552 
L 677.941928 192.119642 
L 678.405107 195.382045 
L 678.868285 205.471647 
L 679.331463 198.471752 
L 679.794641 203.874522 
L 680.257819 198.475125 
L 681.647354 175.593766 
L 682.110532 178.636399 
L 682.57371 173.103229 
L 683.036888 192.485274 
L 683.500066 196.416542 
L 683.963245 202.789166 
L 684.426423 218.229686 
L 685.352779 228.911009 
L 685.815957 226.296956 
L 686.279135 210.415492 
L 686.742314 210.023026 
L 687.205492 213.691525 
L 687.66867 204.603817 
L 688.131848 208.759632 
L 688.595026 203.704222 
L 689.058204 202.236795 
L 689.521383 211.041221 
L 689.984561 206.353687 
L 690.447739 197.189537 
L 690.910917 199.228872 
L 691.837273 189.118054 
L 692.300452 188.864139 
L 692.76363 190.397048 
L 693.226808 187.310012 
L 693.689986 194.351501 
L 694.153164 197.757232 
L 694.616342 190.661785 
L 695.079521 192.825339 
L 695.542699 202.508844 
L 696.005877 203.09101 
L 696.469055 204.432815 
L 696.932233 207.098017 
L 697.395411 213.523195 
L 697.85859 227.100449 
L 698.321768 235.570442 
L 698.784946 224.910901 
L 699.248124 216.893376 
L 699.711302 216.290695 
L 700.17448 209.281245 
L 700.637659 189.620695 
L 702.027193 180.856459 
L 702.490371 183.28278 
L 702.953549 188.542223 
L 703.416728 189.783698 
L 703.879906 205.65898 
L 704.343084 206.269812 
L 704.806262 206.097116 
L 705.26944 213.864801 
L 705.732618 208.651731 
L 706.195797 200.557764 
L 706.658975 201.116042 
L 707.122153 194.94745 
L 708.048509 188.056738 
L 708.511687 188.982892 
L 709.438044 192.158595 
L 710.3644 205.614944 
L 710.827578 209.425306 
L 712.217113 230.048506 
L 712.680291 233.161338 
L 713.143469 245.404175 
L 713.606647 237.415315 
L 714.069825 237.4815 
L 714.533004 240.935007 
L 714.996182 240.714535 
L 715.45936 246.136415 
L 715.922538 261.137396 
L 716.385716 258.733558 
L 717.775251 258.290385 
L 718.238429 257.570112 
L 718.701607 251.895461 
L 719.164785 252.694466 
L 719.627963 254.420326 
L 720.091142 241.975807 
L 720.55432 235.21664 
L 721.017498 237.189089 
L 721.943854 259.742762 
L 722.407032 257.964791 
L 722.870211 253.095708 
L 723.796567 269.276055 
L 724.259745 281.678018 
L 724.722923 284.44355 
L 725.186101 283.124229 
L 725.64928 289.429966 
L 726.112458 290.193681 
L 726.575636 278.143857 
L 727.038814 279.734097 
L 727.501992 278.195006 
L 728.428348 257.014474 
L 728.891527 261.256286 
L 729.354705 268.60832 
L 729.817883 285.40568 
L 730.281061 289.594939 
L 731.207417 278.041283 
L 731.670596 275.775996 
L 732.596952 262.363851 
L 733.523308 258.20593 
L 733.986486 262.915947 
L 734.449665 273.531086 
L 734.912843 289.358592 
L 735.376021 283.323774 
L 735.839199 273.103772 
L 736.302377 267.537159 
L 736.765555 263.537601 
L 737.228734 262.801147 
L 737.691912 258.075393 
L 738.15509 250.564294 
L 739.544624 284.062761 
L 740.007803 284.606706 
L 740.470981 280.597592 
L 740.934159 287.82063 
L 741.397337 288.35502 
L 742.323693 283.953441 
L 742.786872 276.628669 
L 743.25005 271.773919 
L 743.713228 282.207508 
L 744.176406 276.521455 
L 744.639584 278.212025 
L 745.102762 274.776224 
L 745.565941 277.909632 
L 746.029119 285.161335 
L 746.492297 288.543178 
L 746.955475 277.214772 
L 747.418653 275.685236 
L 747.881831 270.347948 
L 748.808188 261.464975 
L 749.271366 256.094243 
L 749.734544 260.512827 
L 750.6609 249.795252 
L 751.124079 253.611857 
L 751.587257 248.843104 
L 752.050435 249.458713 
L 752.976791 231.053971 
L 753.439969 233.905499 
L 753.903148 232.934943 
L 754.366326 226.307702 
L 754.829504 227.367628 
L 755.292682 222.627541 
L 755.75586 219.745942 
L 756.219038 228.946909 
L 756.682217 231.349343 
L 757.608573 245.016669 
L 758.071751 247.52421 
L 758.534929 246.696982 
L 758.998107 252.028088 
L 759.461286 250.880761 
L 759.924464 250.082198 
L 760.387642 244.181153 
L 760.85082 234.58224 
L 761.313998 235.608723 
L 761.777176 233.61576 
L 762.240355 219.487677 
L 763.166711 204.207488 
L 763.629889 203.179601 
L 764.093067 203.527664 
L 764.556245 198.615583 
L 765.019424 201.863653 
L 765.482602 201.36608 
L 765.94578 194.805724 
L 766.408958 195.860873 
L 766.872136 189.568064 
L 767.335314 187.140338 
L 767.798493 186.236668 
L 768.261671 183.875829 
L 768.724849 187.123899 
L 769.188027 196.425196 
L 769.651205 202.783487 
L 770.114383 214.784131 
L 770.577562 222.054945 
L 771.04074 222.068576 
L 771.503918 221.919768 
L 771.967096 223.949548 
L 772.430274 216.887545 
L 772.893452 214.087165 
L 773.356631 208.434555 
L 773.819809 206.938462 
L 774.282987 219.483754 
L 774.746165 221.159991 
L 775.209343 225.392248 
L 775.672521 224.24492 
L 776.1357 226.843236 
L 776.598878 225.437918 
L 777.062056 218.189587 
L 777.525234 214.22825 
L 777.988412 218.29329 
L 778.45159 217.279736 
L 778.914769 217.799792 
L 779.377947 208.798081 
L 779.841125 204.913185 
L 780.304303 207.028962 
L 780.767481 203.999258 
L 781.230659 203.549461 
L 781.693838 208.498358 
L 782.157016 209.993047 
L 783.083372 225.208318 
L 783.54655 229.564792 
L 784.009728 225.460127 
L 784.472907 216.553967 
L 784.936085 212.286863 
L 785.399263 214.221091 
L 785.862441 213.164538 
L 786.325619 207.144052 
L 786.788797 204.42967 
L 787.251976 204.992725 
L 787.715154 201.94391 
L 788.178332 203.3956 
L 788.64151 198.392745 
L 789.104688 192.056937 
L 789.567866 192.854095 
L 790.031045 190.201822 
L 790.494223 193.158458 
L 790.957401 198.073912 
L 791.420579 190.395597 
L 791.883757 194.541857 
L 792.346935 197.12584 
L 792.810114 196.422829 
L 793.273292 197.731191 
L 793.73647 195.088473 
L 794.199648 191.485456 
L 794.662826 193.319355 
L 795.126004 182.621593 
L 795.589183 180.232087 
L 796.052361 181.970434 
L 796.515539 178.362639 
L 796.978717 177.736071 
L 797.441895 191.451875 
L 797.905073 192.717239 
L 798.368252 205.510965 
L 798.83143 207.899066 
L 799.294608 203.574631 
L 799.757786 208.728965 
L 800.220964 208.656599 
L 800.684142 193.807098 
L 801.147321 197.356157 
L 801.610499 210.699308 
L 802.073677 207.803377 
L 802.536855 213.349475 
L 803.000033 215.240705 
L 803.463211 221.126013 
L 803.92639 240.670497 
L 804.389568 243.837348 
L 804.852746 233.325913 
L 805.315924 248.269562 
L 805.779102 250.30412 
L 806.24228 259.629305 
L 806.705459 260.550681 
L 807.168637 252.222611 
L 807.631815 250.482861 
L 808.094993 251.146246 
L 808.558171 248.556081 
L 809.021349 244.652075 
L 809.947706 228.927569 
L 810.410884 226.901162 
L 810.874062 230.85154 
L 811.33724 225.786576 
L 811.800418 223.889164 
L 812.263597 227.987648 
L 812.726775 224.451517 
L 813.189953 224.393484 
L 813.653131 225.224085 
L 814.116309 227.210867 
L 814.579487 230.024175 
L 815.042666 229.397606 
L 815.505844 229.640562 
L 816.4322 245.414813 
L 816.895378 249.489408 
L 817.358556 249.617702 
L 817.821735 254.117504 
L 818.748091 238.880315 
L 819.211269 234.565434 
L 820.137625 223.542093 
L 820.600804 219.169881 
L 821.063982 213.717931 
L 821.52716 212.761707 
L 821.990338 210.429534 
L 822.453516 204.432936 
L 822.916694 200.519374 
L 823.379873 204.187874 
L 823.843051 199.290125 
L 824.306229 197.411824 
L 824.769407 197.678668 
L 825.232585 204.347504 
L 825.695763 206.649608 
L 826.158941 211.670169 
L 826.62212 207.398288 
L 827.085298 214.167453 
L 827.548476 208.868386 
L 828.011654 210.998496 
L 828.474832 203.702389 
L 828.93801 205.698727 
L 829.401189 196.568019 
L 829.864367 194.637165 
L 830.327545 188.917668 
L 830.790723 189.284842 
L 831.253901 187.38743 
L 831.717079 191.395139 
L 832.180258 192.216185 
L 832.643436 205.759996 
L 833.106614 210.622897 
L 833.569792 205.276053 
L 834.03297 207.874369 
L 834.496148 206.655377 
L 835.422505 198.374382 
L 835.885683 184.432625 
L 836.348861 184.408035 
L 837.275217 179.471364 
L 837.738396 182.399334 
L 838.201574 184.352673 
L 838.664752 177.653767 
L 839.12793 183.992948 
L 839.591108 181.761104 
L 840.517465 190.091845 
L 840.980643 187.778781 
L 841.443821 198.288812 
L 844.686068 195.841976 
L 845.612424 191.430078 
L 846.075603 186.392314 
L 846.538781 188.372853 
L 847.001959 175.337376 
L 847.465137 170.939811 
L 847.928315 159.418836 
L 848.391493 157.505626 
L 848.854672 158.398336 
L 849.31785 157.623662 
L 849.781028 143.500356 
L 850.244206 139.066036 
L 850.707384 144.196483 
L 851.170562 128.066583 
L 852.096919 136.60276 
L 852.560097 143.553475 
L 853.486453 192.694526 
L 853.949631 197.571759 
L 854.875988 223.928407 
L 855.339166 218.447791 
L 855.802344 206.455298 
L 856.265522 200.10038 
L 856.7287 186.593385 
L 857.191879 180.91211 
L 857.655057 191.054265 
L 858.118235 185.583204 
L 858.581413 196.279562 
L 863.676373 188.07571 
L 864.139551 184.673353 
L 864.602729 189.001161 
L 865.065907 198.660779 
L 865.529086 190.299266 
L 865.992264 191.459522 
L 866.455442 182.180709 
L 866.91862 195.261092 
L 867.381798 199.722674 
L 867.844976 202.583758 
L 868.308155 196.00907 
L 868.771333 205.592245 
L 869.234511 205.992862 
L 869.697689 210.72199 
L 870.160867 218.690334 
L 870.624045 209.444965 
L 871.087224 207.485444 
L 871.550402 209.515225 
L 872.01358 212.290311 
L 872.476758 216.016142 
L 872.939936 212.193355 
L 873.403114 211.729225 
L 873.866293 210.042028 
L 874.329471 214.140512 
L 874.792649 205.535341 
L 875.255827 203.29872 
L 875.719005 203.288462 
L 876.182183 210.349062 
L 877.10854 210.601573 
L 877.571718 218.178154 
L 878.034896 215.884201 
L 878.498074 219.91102 
L 878.961252 219.848209 
L 879.424431 219.274194 
L 879.887609 219.693922 
L 880.350787 218.140498 
L 880.813965 220.528598 
L 881.277143 223.724115 
L 881.740321 232.643203 
L 882.2035 233.645798 
L 882.666678 231.337512 
L 883.129856 228.193145 
L 883.593034 227.275143 
L 884.056212 231.063082 
L 884.51939 231.855463 
L 884.982569 229.628396 
L 885.445747 224.271998 
L 885.908925 223.430437 
L 886.372103 224.987234 
L 886.835281 240.800408 
L 887.298459 234.230498 
L 888.224816 227.984762 
L 888.687994 229.383899 
L 889.151172 241.031 
L 889.61435 240.165551 
L 890.077528 223.137461 
L 890.540707 222.042687 
L 891.003885 218.917431 
L 891.467063 217.215901 
L 891.930241 222.136133 
L 892.393419 219.316643 
L 893.319776 234.402919 
L 893.782954 240.178342 
L 894.246132 250.616709 
L 894.70931 255.957371 
L 895.635666 253.247064 
L 896.098845 256.54291 
L 896.562023 253.355544 
L 897.025201 254.912342 
L 897.951557 239.451307 
L 898.414735 240.27713 
L 898.877914 238.919588 
L 899.341092 239.506531 
L 899.80427 228.50778 
L 900.267448 223.117939 
L 900.730626 216.30437 
L 901.193804 223.885729 
L 901.656983 223.693922 
L 902.120161 214.849872 
L 903.046517 193.473458 
L 903.509695 188.293831 
L 903.972873 179.874987 
L 904.89923 170.657581 
L 905.362408 175.033166 
L 906.288764 192.355361 
L 906.751942 194.54758 
L 907.215121 205.544927 
L 907.678299 204.698588 
L 908.141477 204.401675 
L 908.604655 203.521893 
L 909.067833 193.822651 
L 909.531011 190.554066 
L 909.99419 190.873464 
L 910.457368 188.187747 
L 910.920546 192.677994 
L 911.383724 190.651587 
L 911.846902 195.963583 
L 913.236437 207.566282 
L 913.699615 202.420098 
L 914.162793 201.93208 
L 914.625971 206.09745 
L 915.089149 204.462807 
L 915.552328 205.814167 
L 916.478684 196.525097 
L 916.941862 194.981228 
L 917.40504 200.106897 
L 917.868218 195.395475 
L 918.331397 182.643343 
L 918.794575 173.761071 
L 919.257753 176.999586 
L 919.720931 181.241398 
L 920.184109 187.614022 
L 920.647287 179.763713 
L 921.110466 182.323808 
L 921.573644 190.268264 
L 922.036822 195.986357 
L 922.5 193.348416 
L 922.963178 198.521861 
L 923.426356 193.256237 
L 923.889534 192.868549 
L 924.352713 191.061912 
L 924.815891 196.866001 
L 925.279069 205.937973 
L 925.742247 205.306626 
L 926.205425 187.346903 
L 926.668603 189.486569 
L 927.131782 188.516013 
L 927.59496 191.324543 
L 928.058138 182.031397 
L 928.521316 167.239227 
L 928.984494 160.812644 
L 929.447672 168.346227 
L 930.374029 153.180701 
L 930.837207 140.896774 
L 931.300385 146.232658 
L 932.68992 169.38283 
L 933.153098 174.733047 
L 933.616276 182.505509 
L 934.079454 194.582595 
L 934.542632 201.251431 
L 935.00581 202.908558 
L 935.468989 209.558284 
L 935.932167 209.151485 
L 936.395345 210.923275 
L 936.858523 219.36938 
L 937.321701 214.810842 
L 937.784879 213.630071 
L 938.248058 219.806813 
L 938.711236 208.645623 
L 939.174414 204.082308 
L 939.637592 207.258713 
L 940.10077 197.64069 
L 940.563948 195.523509 
L 941.027127 190.052448 
L 941.490305 179.994885 
L 941.953483 174.289721 
L 942.879839 186.428214 
L 943.806196 193.239676 
L 944.269374 202.020213 
L 944.732552 202.086398 
L 945.19573 211.784236 
L 945.658908 213.823571 
L 946.122086 210.253997 
L 946.585265 215.274559 
L 947.048443 216.707139 
L 947.511621 204.681202 
L 947.974799 198.092182 
L 948.437977 197.933819 
L 948.901155 196.514167 
L 949.364334 194.645421 
L 949.827512 191.300395 
L 950.29069 191.810897 
L 950.753868 189.516944 
L 951.217046 196.529767 
L 952.143403 181.521902 
L 952.606581 179.509828 
L 953.532937 172.342015 
L 953.996115 173.731596 
L 954.459293 172.732374 
L 954.922472 174.556718 
L 955.38565 174.393577 
L 955.848828 169.09451 
L 956.312006 168.052289 
L 956.775184 165.868221 
L 957.238362 165.872297 
L 957.701541 159.440937 
L 958.627897 153.056651 
L 959.091075 164.206881 
L 959.554253 170.765832 
L 960.017431 179.933356 
L 960.48061 177.367079 
L 960.943788 189.840707 
L 961.870144 203.641806 
L 962.333322 203.144233 
L 962.7965 209.707961 
L 963.259679 211.513194 
L 963.722857 219.261769 
L 964.186035 222.041633 
L 965.112391 242.024955 
L 965.575569 242.181914 
L 966.038748 235.32057 
L 966.501926 232.2622 
L 967.428282 202.1571 
L 967.89146 194.789329 
L 968.354638 191.668851 
L 968.817817 189.838325 
L 969.280995 180.731506 
L 969.744173 174.099487 
L 970.670529 181.403042 
L 971.133707 183.174832 
L 971.596886 182.930472 
L 972.060064 181.835698 
L 973.449598 225.405358 
L 973.912776 239.947689 
L 974.375955 238.250936 
L 974.839133 230.500957 
L 975.765489 231.059235 
L 976.228667 226.027714 
L 977.155024 221.511472 
L 978.08138 212.538426 
L 979.007736 208.910818 
L 979.470914 204.615048 
L 979.934093 194.141834 
L 980.397271 178.575691 
L 981.323627 160.949699 
L 981.786805 159.219503 
L 982.249983 167.18307 
L 982.713162 165.371655 
L 983.17634 178.681364 
L 983.639518 176.110309 
L 984.102696 183.462343 
L 984.565874 188.693119 
L 985.029052 189.127179 
L 985.492231 176.446711 
L 985.955409 172.834139 
L 986.418587 162.141154 
L 986.881765 167.090052 
L 987.808121 151.628315 
L 988.2713 145.76549 
L 988.734478 134.58519 
L 989.197656 131.7657 
L 989.660834 131.535673 
L 990.124012 130.694112 
L 990.58719 125.442821 
L 991.050369 132.016105 
L 991.513547 129.74604 
L 992.439903 152.92558 
L 992.903081 151.099832 
L 993.366259 147.735695 
L 993.829438 149.067945 
L 994.292616 145.331155 
L 994.755794 145.034241 
L 995.218972 142.243417 
L 995.68215 137.60366 
L 996.145328 139.279897 
L 997.071685 149.278022 
L 997.534863 157.088706 
L 997.998041 167.044535 
L 998.461219 172.270534 
L 998.924397 173.024693 
L 999.387576 171.762703 
L 999.850754 186.873569 
L 1000.313932 183.127223 
L 1000.77711 175.659123 
L 1001.703466 152.042012 
L 1002.166645 148.840314 
L 1002.629823 144.124115 
L 1003.093001 116.484962 
L 1003.556179 114.721323 
L 1004.019357 110.420776 
L 1004.482535 116.267864 
L 1004.945714 126.701453 
L 1005.408892 120.098099 
L 1005.87207 118.778778 
L 1006.798426 131.600468 
L 1007.261604 138.102088 
L 1007.724783 136.682437 
L 1008.187961 134.101827 
L 1008.651139 136.064721 
L 1009.114317 131.859726 
L 1009.577495 126.383887 
L 1010.040673 126.803614 
L 1010.503852 120.783129 
L 1011.430208 113.815975 
L 1011.893386 123.055163 
L 1012.356564 140.215621 
L 1012.819742 139.579497 
L 1013.282921 124.997542 
L 1013.746099 129.831777 
L 1014.209277 140.800458 
L 1014.672455 143.164671 
L 1015.135633 135.209255 
L 1015.598811 124.850703 
L 1016.06199 131.462207 
L 1016.525168 148.503226 
L 1016.988346 152.630375 
L 1017.451524 146.815327 
L 1017.914702 159.609053 
L 1018.37788 152.145731 
L 1018.841059 157.873378 
L 1019.304237 157.70546 
L 1020.230593 149.070921 
L 1020.693771 153.666276 
L 1021.156949 155.595727 
L 1021.620127 179.349282 
L 1022.083306 182.205588 
L 1022.546484 188.764539 
L 1023.009662 189.948683 
L 1023.47284 195.986875 
L 1024.399196 187.26634 
L 1025.325553 173.481542 
L 1025.788731 161.861702 
L 1026.251909 162.615862 
L 1027.178265 163.680566 
L 1027.641444 169.403436 
L 1028.104622 163.134514 
L 1028.5678 152.474973 
L 1029.494156 166.772944 
L 1029.957334 164.612764 
L 1030.420513 154.201658 
L 1030.883691 150.230765 
L 1031.810047 173.907176 
L 1032.273225 155.488803 
L 1032.736403 155.898975 
L 1033.199582 162.276377 
L 1034.589116 178.695604 
L 1035.052294 168.208057 
L 1035.515472 168.025806 
L 1035.978651 191.516592 
L 1036.905007 216.081638 
L 1037.368185 214.494771 
L 1037.831363 222.31501 
L 1038.75772 245.351221 
L 1039.220898 243.845573 
L 1040.147254 208.155452 
L 1040.610432 200.099707 
L 1041.536789 170.329039 
L 1041.999967 159.416285 
L 1042.463145 145.216538 
L 1042.926323 158.292143 
L 1043.389501 163.465589 
L 1043.852679 179.159322 
L 1044.315858 184.695865 
L 1044.779036 182.946559 
L 1045.242214 183.328066 
L 1045.705392 190.660989 
L 1046.631748 186.384329 
L 1047.094927 197.477228 
L 1047.558105 187.854428 
L 1048.021283 196.214536 
L 1048.484461 202.544162 
L 1048.947639 200.059104 
L 1049.410817 202.251323 
L 1049.873996 205.236625 
L 1050.337174 201.026852 
L 1050.800352 205.574431 
L 1052.653065 234.543025 
L 1053.116243 234.274777 
L 1053.579421 218.235651 
L 1054.042599 220.212878 
L 1054.505777 219.103771 
L 1055.432134 195.782872 
L 1055.895312 192.681504 
L 1056.35849 190.44966 
L 1056.821668 202.61752 
L 1057.748024 181.809642 
L 1058.211203 182.893456 
L 1058.674381 192.634293 
L 1059.600737 207.902117 
L 1060.063915 205.106515 
L 1060.527093 212.907644 
L 1060.990272 198.306578 
L 1061.45345 210.651209 
L 1061.916628 205.83468 
L 1062.379806 194.114511 
L 1062.842984 195.685641 
L 1063.769341 190.103993 
L 1064.232519 213.656888 
L 1064.695697 207.975613 
L 1065.158875 210.206053 
L 1065.622053 211.366309 
L 1066.085231 203.568554 
L 1067.011588 217.761417 
L 1067.474766 223.431733 
L 1067.937944 236.607668 
L 1068.401122 245.412094 
L 1069.790657 257.861131 
L 1070.253835 258.314301 
L 1070.717013 263.401749 
L 1071.180191 258.069239 
L 1071.643369 238.518573 
L 1072.569726 226.8407 
L 1073.032904 225.086616 
L 1073.496082 224.593821 
L 1073.95926 215.41056 
L 1074.422438 201.220368 
L 1074.885617 212.451817 
L 1075.348795 205.064936 
L 1076.738329 208.8051 
L 1077.201507 212.884473 
L 1077.664686 209.644554 
L 1078.127864 214.106136 
L 1078.591042 222.523575 
L 1079.05422 207.320531 
L 1079.517398 212.522642 
L 1079.980576 212.77993 
L 1080.443755 209.58301 
L 1080.906933 216.44295 
L 1081.370111 218.81194 
L 1081.833289 214.769384 
L 1082.296467 224.089791 
L 1082.759645 223.057126 
L 1083.222824 219.73121 
L 1084.14918 209.295514 
L 1084.612358 200.747675 
L 1085.075536 206.031005 
L 1085.538714 221.079761 
L 1086.001893 227.528827 
L 1086.465071 232.038185 
L 1086.928249 229.018036 
L 1087.391427 226.972519 
L 1087.854605 225.98763 
L 1088.780962 197.024378 
L 1089.24414 187.869783 
L 1089.707318 172.833955 
L 1090.170496 180.869186 
L 1090.633674 179.549864 
L 1091.096852 179.176509 
L 1091.560031 184.942377 
L 1092.023209 181.363248 
L 1092.486387 185.04608 
L 1092.949565 193.425299 
L 1093.412743 179.044003 
L 1093.875921 180.060931 
L 1094.3391 182.922015 
L 1094.802278 182.787539 
L 1095.265456 178.076118 
L 1095.728634 179.432256 
L 1096.191812 182.422335 
L 1096.65499 200.409319 
L 1097.581347 186.825181 
L 1098.044525 186.06484 
L 1098.507703 185.729705 
L 1098.970881 182.795553 
L 1099.434059 177.797475 
L 1100.360416 174.160313 
L 1100.823594 178.832109 
L 1101.286772 179.786928 
L 1101.74995 189.522987 
L 1102.213128 186.693942 
L 1102.676307 189.249259 
L 1103.139485 179.067479 
L 1103.602663 181.83301 
L 1104.065841 178.507094 
L 1104.529019 181.282181 
L 1104.992197 176.059556 
L 1105.455376 176.589168 
L 1105.918554 172.274288 
L 1106.381732 174.71972 
L 1106.84491 175.29233 
L 1107.308088 173.170371 
L 1107.771266 171.879715 
L 1108.234445 175.873092 
L 1108.697623 177.754766 
L 1109.160801 174.662953 
L 1109.623979 176.009536 
L 1110.550335 194.421025 
L 1111.013514 196.503359 
L 1111.476692 195.762128 
L 1112.866226 215.888076 
L 1113.329404 213.03992 
L 1114.255761 205.279684 
L 1114.718939 207.414572 
L 1115.182117 203.916662 
L 1115.645295 204.360277 
L 1116.108473 208.090885 
L 1116.571652 208.778158 
L 1117.03483 210.038744 
L 1117.498008 212.092413 
L 1117.961186 211.986603 
L 1118.424364 215.731544 
L 1118.887542 216.715029 
L 1119.35072 209.313815 
L 1119.813899 209.805206 
L 1120.277077 208.739098 
L 1120.740255 213.009576 
L 1121.203433 206.492219 
L 1121.666611 203.037308 
L 1122.129789 203.495256 
L 1122.592968 208.802474 
L 1123.056146 210.416603 
L 1123.519324 215.843261 
L 1123.982502 214.471386 
L 1124.44568 212.210876 
L 1124.908858 205.607522 
L 1125.835215 183.853678 
L 1126.298393 180.909971 
L 1127.224749 164.913141 
L 1127.687927 162.920178 
L 1128.151106 161.443195 
L 1128.614284 163.692745 
L 1129.077462 172.430285 
L 1130.003818 174.258703 
L 1130.466996 183.961319 
L 1130.930175 200.022928 
L 1131.393353 206.247447 
L 1131.856531 217.187462 
L 1132.319709 219.026138 
L 1132.782887 228.150664 
L 1133.246065 241.321821 
L 1133.709244 248.549637 
L 1134.172422 243.331789 
L 1134.6356 245.676892 
L 1135.098778 235.461668 
L 1135.561956 236.115498 
L 1136.025134 230.845096 
L 1136.951491 215.244808 
L 1137.414669 211.273916 
L 1137.877847 214.693979 
L 1138.341025 207.756193 
L 1138.804203 205.457463 
L 1139.267382 205.824636 
L 1139.73056 210.792644 
L 1140.193738 209.970194 
L 1140.656916 211.202114 
L 1141.120094 207.847533 
L 1141.583272 213.828393 
L 1142.046451 210.994571 
L 1142.509629 205.972605 
L 1143.435985 187.376758 
L 1143.899163 186.654637 
L 1144.362341 182.95129 
L 1144.82552 194.192295 
L 1145.288698 194.043487 
L 1146.215054 186.278473 
L 1146.678232 187.414841 
L 1147.14141 184.51891 
L 1147.604589 177.327911 
L 1148.530945 170.862405 
L 1148.994123 166.829404 
L 1149.457301 165.548303 
L 1150.383658 148.008307 
L 1150.846836 147.515512 
L 1151.310014 141.375586 
L 1151.773192 138.780644 
L 1152.23637 146.051458 
L 1152.699548 144.029829 
L 1153.162727 154.243648 
L 1153.625905 158.905889 
L 1154.089083 166.377363 
L 1154.552261 159.172031 
L 1155.015439 163.194073 
L 1155.478617 155.104884 
L 1155.941796 150.106806 
L 1156.404974 148.45783 
L 1156.868152 150.114957 
L 1157.794508 160.686395 
L 1158.257686 152.78831 
L 1158.720865 159.337705 
L 1159.184043 167.779033 
L 1160.110399 172.407129 
L 1160.573577 157.810841 
L 1161.036755 156.634847 
L 1161.499934 165.960032 
L 1161.963112 161.855366 
L 1162.889468 163.077029 
L 1163.352646 158.771704 
L 1163.815824 173.982899 
L 1164.279003 179.113346 
L 1164.742181 178.075903 
L 1165.205359 180.444894 
L 1165.668537 180.792957 
L 1166.131715 182.736741 
L 1166.594893 194.417285 
L 1167.52125 184.808115 
L 1167.984428 180.980551 
L 1168.447606 188.404248 
L 1168.910784 193.658913 
L 1169.373962 195.09627 
L 1170.300319 176.552977 
L 1170.763497 173.599714 
L 1171.226675 173.493905 
L 1172.153031 155.127383 
L 1172.61621 150.774282 
L 1173.079388 147.754133 
L 1173.542566 151.766619 
L 1174.005744 157.164612 
L 1174.468922 153.881695 
L 1174.9321 142.768281 
L 1175.395279 144.191305 
L 1175.858457 149.488968 
L 1176.321635 147.08513 
L 1176.784813 151.69004 
L 1177.247991 150.905811 
L 1178.174348 175.910396 
L 1178.637526 179.798665 
L 1179.100704 166.683435 
L 1179.563882 167.623921 
L 1180.02706 158.770315 
L 1180.490238 154.794645 
L 1180.953417 145.592273 
L 1181.416595 145.734899 
L 1181.879773 137.105841 
L 1182.342951 140.932001 
L 1182.806129 146.645316 
L 1183.269307 149.444291 
L 1183.732486 155.281823 
L 1184.195664 154.669587 
L 1184.658842 152.886838 
L 1185.12202 154.276419 
L 1185.585198 157.887587 
L 1186.048376 157.714891 
L 1186.511555 157.398867 
L 1186.974733 156.877406 
L 1187.437911 158.309986 
L 1187.901089 156.565457 
L 1188.364267 164.385696 
L 1188.827445 160.467357 
L 1189.290624 166.371776 
L 1189.753802 165.477662 
L 1190.21698 167.440555 
L 1190.680158 164.01431 
L 1191.143336 165.981981 
L 1191.606514 165.909615 
L 1192.069693 174.073842 
L 1192.532871 157.432738 
L 1193.459227 148.530654 
L 1193.922405 152.939682 
L 1194.385583 152.671434 
L 1194.848762 154.615217 
L 1195.31194 138.232104 
L 1195.775118 138.293511 
L 1196.238296 139.014227 
L 1196.701474 137.221923 
L 1197.627831 121.741075 
L 1198.091009 114.530966 
L 1199.017365 127.700658 
L 1199.480543 118.004728 
L 1199.943721 124.027121 
L 1200.4069 122.410123 
L 1200.870078 122.61817 
L 1201.333256 127.880925 
L 1201.796434 126.263926 
L 1202.259612 121.117743 
L 1202.72279 136.591706 
L 1203.185969 124.307779 
L 1203.649147 120.250889 
L 1204.112325 132.743627 
L 1204.575503 128.882619 
L 1205.038681 136.444867 
L 1205.501859 123.606738 
L 1205.965038 121.265009 
L 1206.428216 131.760707 
L 1206.891394 136.188846 
L 1207.81775 127.721523 
L 1208.280928 118.437933 
L 1208.744107 123.047621 
L 1209.207285 131.015965 
L 1209.670463 118.603043 
L 1210.133641 123.733489 
L 1210.596819 116.284499 
L 1211.059997 114.554304 
L 1211.523176 108.853918 
L 1211.986354 111.791443 
L 1212.449532 105.895175 
L 1212.91271 120.6095 
L 1213.375888 105.129354 
L 1213.839066 110.479571 
L 1214.765423 143.768525 
L 1215.228601 153.944124 
L 1215.691779 158.964685 
L 1216.154957 150.378625 
L 1216.618135 167.491308 
L 1217.081314 162.598337 
L 1218.00767 158.195995 
L 1218.470848 144.386546 
L 1218.934026 141.336266 
L 1219.397204 141.076107 
L 1219.860382 146.095204 
L 1220.323561 141.606864 
L 1220.786739 143.926613 
L 1221.249917 142.115199 
L 1221.713095 156.805635 
L 1222.176273 161.897861 
L 1222.639451 165.513806 
L 1223.565808 186.337986 
L 1224.492164 181.515978 
L 1224.955342 178.414609 
L 1225.41852 171.218833 
L 1225.881699 167.013837 
L 1226.344877 167.34279 
L 1226.808055 158.55607 
L 1227.271233 170.657044 
L 1227.734411 196.149647 
L 1228.197589 196.641039 
L 1228.660768 206.740196 
L 1229.123946 207.174256 
L 1229.587124 188.373674 
L 1230.050302 187.503448 
L 1230.51348 179.165823 
L 1230.976658 159.180395 
L 1231.439837 161.038182 
L 1231.903015 149.571225 
L 1232.366193 150.440047 
L 1232.829371 176.085534 
L 1233.292549 179.132944 
L 1233.755727 195.027337 
L 1234.218906 201.290077 
L 1234.682084 205.273898 
L 1235.145262 227.522507 
L 1235.60844 222.137443 
L 1236.071618 209.982511 
L 1236.534796 202.480967 
L 1236.997975 181.17692 
L 1237.924331 172.714376 
L 1238.387509 161.252197 
L 1238.850687 171.915111 
L 1239.313865 179.467804 
L 1240.240222 201.629714 
L 1240.7034 209.87516 
L 1241.166578 207.007894 
L 1241.629756 206.854309 
L 1242.092934 202.873861 
L 1242.556113 182.716439 
L 1243.019291 169.586875 
L 1243.482469 172.553067 
L 1243.945647 167.277887 
L 1244.408825 168.691357 
L 1245.335182 173.133126 
L 1246.261538 203.68929 
L 1246.724716 207.41512 
L 1247.187894 212.411794 
L 1247.651072 220.757569 
L 1248.114251 213.638234 
L 1248.577429 216.757309 
L 1249.040607 210.411946 
L 1249.503785 214.811419 
L 1249.966963 221.953238 
L 1250.430141 213.840161 
L 1250.89332 208.087221 
L 1251.356498 211.65539 
L 1251.819676 205.009038 
L 1252.282854 209.757277 
L 1252.746032 202.542389 
L 1253.20921 185.1942 
L 1253.672389 191.738818 
L 1254.135567 191.303354 
L 1254.598745 193.514683 
L 1255.061923 195.042815 
L 1255.525101 186.423311 
L 1256.451458 188.891929 
L 1256.914636 180.506529 
L 1257.377814 175.01158 
L 1257.840992 171.121906 
L 1258.30417 170.108352 
L 1258.767348 176.4332 
L 1259.230527 173.723595 
L 1259.693705 180.707753 
L 1260.156883 190.978904 
L 1260.620061 198.689258 
L 1261.083239 199.968954 
L 1262.009596 192.796363 
L 1262.472774 197.979363 
L 1262.935952 196.617044 
L 1263.39913 188.905285 
L 1263.862308 188.737367 
L 1264.325486 185.129572 
L 1264.788665 192.21406 
L 1265.251843 181.607072 
L 1265.715021 178.128273 
L 1266.178199 181.190016 
L 1266.641377 180.133463 
L 1267.104555 173.520555 
L 1267.567734 179.773739 
L 1268.030912 175.597409 
L 1268.49409 191.95523 
L 1268.957268 192.871828 
L 1269.420446 188.905713 
L 1269.883624 195.665323 
L 1270.346803 200.733661 
L 1270.809981 208.907443 
L 1271.273159 223.650432 
L 1271.736337 223.778726 
L 1272.662693 230.179313 
L 1273.58905 224.736216 
L 1274.515406 190.259607 
L 1274.978584 187.760217 
L 1275.441762 171.228998 
L 1275.904941 161.553644 
L 1276.368119 158.141731 
L 1276.831297 151.724704 
L 1277.294475 152.746409 
L 1277.757653 150.595785 
L 1278.220831 139.243491 
L 1278.68401 142.49156 
L 1279.147188 153.875893 
L 1279.610366 149.6279 
L 1280.073544 147.630158 
L 1280.536722 160.567213 
L 1280.9999 163.423519 
L 1281.463079 174.855628 
L 1281.926257 176.957073 
L 1282.389435 170.167392 
L 1282.852613 174.710194 
L 1283.315791 185.879534 
L 1283.778969 178.401879 
L 1284.242148 176.208255 
L 1284.705326 175.218589 
L 1285.168504 178.156114 
L 1285.631682 172.55128 
L 1286.09486 165.398502 
L 1286.558038 154.557412 
L 1287.021217 155.287684 
L 1287.484395 151.651223 
L 1287.947573 140.294152 
L 1288.873929 144.196051 
L 1289.337107 149.818592 
L 1289.800286 153.869299 
L 1290.263464 156.37684 
L 1290.726642 155.143516 
L 1291.18982 163.441515 
L 1291.652998 161.233559 
L 1292.116176 157.659208 
L 1293.505711 134.471379 
L 1293.968889 143.170698 
L 1294.432067 145.979228 
L 1294.895245 140.374394 
L 1295.358424 144.4681 
L 1295.821602 155.011574 
L 1296.28478 159.40627 
L 1296.747958 160.275092 
L 1297.674314 168.548501 
L 1298.600671 183.424562 
L 1299.063849 182.105241 
L 1299.527027 182.486747 
L 1299.990205 187.440422 
L 1300.453383 186.732634 
L 1300.916562 187.085475 
L 1301.37974 187.763193 
L 1301.842918 189.429875 
L 1302.306096 193.600023 
L 1302.769274 191.16752 
L 1303.232452 195.514439 
L 1303.695631 190.831683 
L 1304.158809 188.09819 
L 1304.621987 184.452175 
L 1305.085165 183.405177 
L 1305.548343 179.037743 
L 1306.011521 187.937721 
L 1306.4747 184.482809 
L 1306.937878 193.038799 
L 1307.401056 189.631664 
L 1307.864234 190.562595 
L 1308.327412 188.325974 
L 1308.79059 191.038952 
L 1309.253769 190.503158 
L 1309.716947 191.39109 
L 1310.180125 182.384601 
L 1310.643303 183.812403 
L 1311.106481 188.780411 
L 1311.569659 184.532417 
L 1312.032838 182.978993 
L 1312.496016 182.605637 
L 1312.959194 180.980549 
L 1313.422372 177.539971 
L 1313.88555 175.150466 
L 1315.275085 149.225069 
L 1315.738263 139.673933 
L 1316.201441 135.034175 
L 1316.664619 143.623609 
L 1317.127797 144.35388 
L 1317.590975 152.685323 
L 1318.054154 154.710326 
L 1318.517332 159.735665 
L 1318.98051 165.988849 
L 1319.443688 174.68339 
L 1319.906866 162.710007 
L 1320.370044 164.324136 
L 1320.833223 170.906975 
L 1321.296401 181.770549 
L 1321.759579 196.155218 
L 1322.222757 205.700173 
L 1322.685935 196.053484 
L 1323.149113 197.739277 
L 1323.612292 196.964602 
L 1324.07547 189.993373 
L 1324.538648 189.801567 
L 1325.001826 184.507277 
L 1325.465004 180.832596 
L 1325.928182 185.991708 
L 1326.391361 197.576701 
L 1326.854539 199.721144 
L 1327.317717 191.450406 
L 1327.780895 180.016892 
L 1328.244073 176.155885 
L 1329.633608 144.105597 
L 1330.096786 140.74146 
L 1330.559964 142.704354 
L 1331.023142 142.288 
L 1331.48632 139.134078 
L 1332.412677 176.574772 
L 1332.875855 182.450525 
L 1333.339033 193.849191 
L 1334.265389 208.892468 
L 1334.728568 210.774143 
L 1335.191746 194.242924 
L 1336.118102 185.904597 
L 1336.58128 187.337177 
L 1337.044458 182.63531 
L 1337.507637 187.135113 
L 1338.433993 185.194001 
L 1338.897171 183.45425 
L 1339.360349 183.271999 
L 1340.749884 161.952214 
L 1341.213062 161.73652 
L 1342.602596 153.856141 
L 1343.065775 145.881615 
L 1343.528953 146.34434 
L 1343.992131 147.184497 
L 1344.455309 151.741631 
L 1344.918487 160.584277 
L 1345.381665 163.798904 
L 1345.844844 158.026854 
L 1346.308022 164.23704 
L 1346.7712 166.443591 
L 1347.234378 164.689508 
L 1347.697556 156.772313 
L 1348.160734 156.776388 
L 1348.623913 153.33581 
L 1349.087091 162.398226 
L 1349.550269 165.670184 
L 1350.013447 176.07033 
L 1350.476625 179.361398 
L 1350.939803 177.492652 
L 1351.402982 171.634605 
L 1352.329338 163.659377 
L 1352.792516 158.345977 
L 1353.255694 157.623856 
L 1353.718872 154.125946 
L 1354.182051 149.533965 
L 1354.645229 148.324528 
L 1355.108407 151.285942 
L 1356.034763 141.863099 
L 1356.497941 129.932714 
L 1356.96112 131.675838 
L 1357.424298 151.258543 
L 1358.350654 172.197386 
L 1359.27701 175.196318 
L 1359.740189 174.999734 
L 1360.203367 161.63129 
L 1360.666545 143.232028 
L 1361.129723 132.797034 
L 1361.592901 117.976198 
L 1362.056079 123.049314 
L 1362.519258 122.695069 
L 1362.982436 128.317609 
L 1363.908792 150.360078 
L 1364.37197 148.300228 
L 1364.835148 158.299055 
L 1365.761505 161.727972 
L 1366.224683 159.902224 
L 1366.687861 161.869896 
L 1367.151039 157.110698 
L 1367.614217 160.516429 
L 1368.077396 151.247171 
L 1368.540574 154.294582 
L 1369.003752 158.412176 
L 1369.46693 157.871604 
L 1369.930108 162.228079 
L 1370.393286 164.15753 
L 1370.856465 158.194375 
L 1371.319643 157.056603 
L 1371.782821 159.301376 
L 1372.245999 154.75717 
L 1372.709177 160.895692 
L 1373.172355 152.161526 
L 1373.635534 153.699213 
L 1374.098712 144.038191 
L 1374.56189 145.618877 
L 1375.025068 133.893929 
L 1375.488246 131.475759 
L 1375.951424 128.039958 
L 1376.414603 135.99397 
L 1376.877781 137.283221 
L 1377.340959 149.938397 
L 1377.804137 154.844296 
L 1378.267315 165.521544 
L 1378.730493 165.482621 
L 1379.193672 174.105497 
L 1379.65685 175.170201 
L 1380.120028 170.922208 
L 1380.583206 163.535327 
L 1381.046384 159.05323 
L 1381.509562 151.886119 
L 1381.972741 160.036012 
L 1382.435919 153.026562 
L 1382.899097 153.56573 
L 1383.362275 151.30522 
L 1383.825453 167.295165 
L 1384.288631 167.308796 
L 1384.75181 178.525912 
L 1385.678166 163.269612 
L 1386.141344 163.531678 
L 1386.604522 175.900198 
L 1387.0677 173.224037 
L 1387.530879 173.500436 
L 1387.994057 168.13926 
L 1388.457235 165.477431 
L 1389.383591 156.178805 
L 1389.846769 148.247277 
L 1390.309948 152.283652 
L 1390.773126 152.435833 
L 1391.236304 150.079772 
L 1391.699482 155.950747 
L 1392.16266 188.576316 
L 1392.625838 198.871355 
L 1393.089017 215.458501 
L 1393.552195 215.285805 
L 1394.015373 223.101266 
L 1394.478551 215.58539 
L 1394.941729 213.597204 
L 1395.404907 186.741578 
L 1395.868086 178.628501 
L 1396.331264 162.756592 
L 1396.794442 159.359012 
L 1397.25762 157.886807 
L 1397.720798 173.838531 
L 1398.183976 170.488727 
L 1399.110333 178.824246 
L 1399.573511 181.432116 
L 1400.036689 171.895313 
L 1400.499867 165.502174 
L 1400.963045 152.511161 
L 1401.426224 144.011098 
L 1401.889402 149.28965 
L 1402.35258 148.070658 
L 1402.815758 145.509159 
L 1403.278936 155.703868 
L 1404.205293 166.251418 
L 1404.668471 178.653381 
L 1405.594827 176.148511 
L 1406.058005 180.409434 
L 1406.521183 179.013671 
L 1406.984362 181.793535 
L 1407.44754 181.678171 
L 1407.910718 187.434484 
L 1408.373896 182.794726 
L 1408.837074 180.94509 
L 1409.300252 166.621125 
L 1409.763431 166.90708 
L 1410.226609 170.159927 
L 1410.689787 171.277185 
L 1411.152965 170.970716 
L 1411.616143 183.167242 
L 1412.5425 217.836924 
L 1413.005678 214.979214 
L 1413.468856 214.744409 
L 1413.932034 217.925592 
L 1414.395212 216.4295 
L 1414.85839 208.937511 
L 1415.321568 199.286045 
L 1415.784747 202.147129 
L 1416.247925 207.827 
L 1416.711103 207.587418 
L 1417.174281 203.630858 
L 1417.637459 203.38172 
L 1418.100637 195.669962 
L 1418.563816 185.067752 
L 1419.95335 163.96296 
L 1420.416528 163.092734 
L 1420.879706 154.344235 
L 1421.342885 156.541232 
L 1421.806063 162.512537 
L 1422.269241 151.724 
L 1422.732419 150.352125 
L 1423.195597 143.657997 
L 1423.658775 138.693362 
L 1424.121954 144.091355 
L 1424.585132 145.036619 
L 1425.04831 151.949113 
L 1425.511488 165.402149 
L 1426.437844 181.004406 
L 1426.901023 190.262704 
L 1427.364201 190.50566 
L 1427.827379 193.562626 
L 1428.290557 182.673759 
L 1428.753735 176.906487 
L 1429.216913 174.297212 
L 1429.680092 175.247253 
L 1430.14327 172.661866 
L 1430.606448 172.665942 
L 1431.069626 176.358329 
L 1431.532804 188.387639 
L 1431.995982 190.259758 
L 1432.459161 198.939966 
L 1432.922339 210.338632 
L 1433.848695 222.348129 
L 1434.311873 219.815296 
L 1434.775051 209.557073 
L 1435.23823 208.58174 
L 1435.701408 197.119561 
L 1436.164586 181.64897 
L 1436.627764 177.21465 
L 1437.55412 162.144676 
L 1438.480477 157.829094 
L 1438.943655 161.296934 
L 1439.406833 162.633961 
L 1439.870011 158.596182 
L 1440.333189 159.780326 
L 1440.796368 165.011103 
L 1441.259546 166.510569 
L 1442.185902 160.733039 
L 1443.112258 157.019435 
L 1443.575437 151.519708 
L 1444.501793 129.417098 
L 1444.964971 125.990853 
L 1445.428149 129.02393 
L 1445.891327 129.715981 
L 1446.354506 131.884312 
L 1446.817684 131.496624 
L 1447.280862 133.89428 
L 1448.207218 147.39439 
L 1448.670396 146.533719 
L 1449.133575 147.980631 
L 1449.596753 145.180252 
L 1450.059931 150.912677 
L 1450.523109 154.265854 
L 1450.986287 160.089054 
L 1451.449465 158.225086 
L 1451.912644 152.921241 
L 1452.375822 156.647071 
L 1452.839 164.309649 
L 1453.302178 160.572859 
L 1453.765356 163.003958 
L 1454.228534 158.512307 
L 1454.691713 160.269764 
L 1455.154891 167.048484 
L 1456.081247 161.887265 
L 1456.544425 160.453282 
L 1457.007603 163.677463 
L 1457.470782 169.104122 
L 1457.93396 170.503258 
L 1458.860316 161.438735 
L 1459.323494 163.396852 
L 1459.786672 172.186944 
L 1460.249851 170.619188 
L 1460.713029 158.813021 
L 1461.176207 153.141301 
L 1461.639385 149.328069 
L 1462.102563 150.087006 
L 1462.565741 148.332923 
L 1463.02892 152.436184 
L 1463.492098 161.684927 
L 1463.955276 183.188229 
L 1464.418454 187.367932 
L 1464.881632 197.510088 
L 1465.34481 210.461476 
L 1465.807989 218.147941 
L 1467.197523 184.215277 
L 1467.660701 189.020847 
L 1468.123879 188.341725 
L 1468.587058 178.231608 
L 1469.050236 178.445898 
L 1469.513414 190.384433 
L 1469.976592 195.510103 
L 1470.43977 192.547285 
L 1470.902948 187.424989 
L 1471.366127 186.053114 
L 1471.829305 180.333617 
L 1472.755661 163.15672 
L 1473.218839 165.707259 
L 1473.682017 161.043613 
L 1474.145196 161.028578 
L 1474.608374 157.578445 
L 1475.071552 156.163571 
L 1475.53473 147.816391 
L 1475.997908 144.729356 
L 1476.461086 124.146727 
L 1476.924265 128.708639 
L 1477.850621 116.490896 
L 1478.313799 114.64126 
L 1478.776977 111.430007 
L 1479.240155 104.759767 
L 1479.703334 118.552013 
L 1480.166512 115.474533 
L 1480.62969 116.309912 
L 1481.092868 117.967039 
L 1481.556046 117.66057 
L 1482.019224 125.547695 
L 1482.482403 131.189346 
L 1482.945581 123.792909 
L 1483.408759 113.735347 
L 1483.871937 109.965113 
L 1484.335115 108.846451 
L 1484.798293 111.59765 
L 1485.261472 111.028413 
L 1485.72465 119.536627 
L 1486.187828 117.094568 
L 1486.651006 132.028663 
L 1487.114184 129.930591 
L 1487.577362 129.562014 
L 1488.040541 131.806786 
L 1488.503719 134.706091 
L 1488.966897 122.551159 
L 1489.430075 123.052106 
L 1489.893253 121.212025 
L 1490.356431 125.167181 
L 1490.81961 118.377501 
L 1491.282788 122.112886 
L 1491.745966 116.856818 
L 1492.209144 119.044259 
L 1492.672322 127.705357 
L 1493.1355 134.216531 
L 1493.598679 151.462987 
L 1494.061857 175.192654 
L 1494.525035 188.339923 
L 1495.914569 239.133324 
L 1496.377748 250.799535 
L 1496.840926 247.382845 
L 1497.304104 250.87935 
L 1497.767282 252.278487 
L 1498.23046 254.838581 
L 1498.693638 259.873476 
L 1499.619995 255.658223 
L 1500.083173 257.965105 
L 1500.546351 248.256307 
L 1501.009529 236.096598 
L 1501.472707 230.568206 
L 1501.935886 204.008792 
L 1502.862242 166.985719 
L 1503.32542 158.882197 
L 1503.788598 155.666166 
L 1504.251776 159.88409 
L 1504.714955 155.870199 
L 1505.178133 169.495229 
L 1506.104489 187.691726 
L 1506.567667 186.1813 
L 1507.030845 204.770263 
L 1507.494024 208.739751 
L 1507.957202 206.976112 
L 1508.42038 202.264691 
L 1508.883558 200.343391 
L 1509.809914 206.648427 
L 1510.273093 191.354608 
L 1510.736271 187.307273 
L 1511.199449 184.506894 
L 1511.662627 188.012955 
L 1512.125805 186.354423 
L 1512.588983 188.31254 
L 1513.052161 190.944298 
L 1513.51534 195.797644 
L 1513.978518 197.722317 
L 1514.441696 201.983239 
L 1514.904874 199.464739 
L 1515.368052 193.812129 
L 1515.83123 181.948631 
L 1516.757587 168.842253 
L 1517.220765 171.354572 
L 1517.683943 168.243648 
L 1518.147121 168.692041 
L 1518.610299 183.17704 
L 1519.073478 192.000577 
L 1519.536656 189.849952 
L 1519.999834 194.507415 
L 1520.463012 178.000085 
L 1521.389368 188.002987 
L 1521.852547 175.074083 
L 1522.315725 166.898897 
L 1522.778903 154.767854 
L 1523.242081 138.996274 
L 1523.705259 147.447157 
L 1524.168437 140.920245 
L 1524.631616 132.276854 
L 1525.094794 132.371704 
L 1526.02115 140.559116 
L 1526.484328 161.546437 
L 1526.947506 157.60421 
L 1527.410685 163.456075 
L 1527.873863 166.551262 
L 1528.337041 164.271641 
L 1528.800219 158.017053 
L 1529.263397 164.126909 
L 1529.726575 150.519585 
L 1530.189754 150.896314 
L 1530.652932 142.974341 
L 1531.11611 140.680388 
L 1531.579288 134.311137 
L 1532.042466 141.228408 
L 1532.505644 154.428231 
L 1532.968823 152.874807 
L 1533.432001 142.482812 
L 1533.895179 145.587554 
L 1534.821535 154.96459 
L 1535.284713 152.928628 
L 1535.747892 137.319487 
L 1536.21107 147.179763 
L 1536.674248 163.179264 
L 1537.137426 165.992572 
L 1537.600604 153.312103 
L 1538.063782 162.427073 
L 1538.526961 164.858173 
L 1538.990139 160.949389 
L 1539.453317 151.331366 
L 1539.916495 144.388802 
L 1540.379673 133.151171 
L 1540.842851 142.065481 
L 1541.30603 139.661643 
L 1541.769208 143.846124 
L 1542.232386 149.927314 
L 1542.695564 150.557256 
L 1543.158742 158.688039 
L 1543.62192 170.239588 
L 1544.085099 174.748946 
L 1544.548277 181.885988 
L 1545.011455 183.428452 
L 1545.474633 190.856927 
L 1545.937811 204.271743 
L 1546.400989 206.258525 
L 1546.864168 200.476919 
L 1547.327346 196.248036 
L 1547.790524 188.244844 
L 1548.253702 188.50691 
L 1548.71688 183.914928 
L 1549.180058 173.097726 
L 1549.643237 177.186655 
L 1550.106415 186.038857 
L 1550.569593 198.431264 
L 1551.032771 204.846887 
L 1551.495949 206.566123 
L 1551.959127 210.592943 
L 1552.422306 216.444808 
L 1552.885484 204.031886 
L 1553.81184 201.999999 
L 1554.275018 213.881203 
L 1554.738196 210.521844 
L 1555.201375 225.178837 
L 1555.664553 235.254105 
L 1556.127731 248.883913 
L 1556.590909 246.551739 
L 1556.590909 246.551739 
" clip-path="url(#pb7808843d3)" style="fill: none; stroke: #d98a32; stroke-width: 2.5; stroke-linecap: square"/>
   </g>
   <g id="patch_3">
    <path d="M 225 320.4 
L 225 43.2 
" style="fill: none; stroke: #000000; stroke-width: 0.8; stroke-linejoin: miter; stroke-linecap: square"/>
   </g>
   <g id="patch_4">
    <path d="M 1620 320.4 
L 1620 43.2 
" style="fill: none; stroke: #000000; stroke-width: 0.8; stroke-linejoin: miter; stroke-linecap: square"/>
   </g>
   <g id="patch_5">
    <path d="M 225 320.4 
L 1620 320.4 
" style="fill: none; stroke: #000000; stroke-width: 0.8; stroke-linejoin: miter; stroke-linecap: square"/>
   </g>
   <g id="patch_6">
    <path d="M 225 43.2 
L 1620 43.2 
" style="fill: none; stroke: #000000; stroke-width: 0.8; stroke-linejoin: miter; stroke-linecap: square"/>
   </g>
   <g id="text_20">
    <!-- TEOL -->
    <g transform="translate(896.629688 37.2) scale(0.2 -0.2)">
     <defs>
      <path id="DejaVuSans-45" d="M 628 4666 
L 3578 4666 
L 3578 4134 
L 1259 4134 
L 1259 2753 
L 3481 2753 
L 3481 2222 
L 1259 2222 
L 1259 531 
L 3634 531 
L 3634 0 
L 628 0 
L 628 4666 
z
" transform="scale(0.015625)"/>
      <path id="DejaVuSans-4f" d="M 2522 4238 
Q 1834 4238 1429 3725 
Q 1025 3213 1025 2328 
Q 1025 1447 1429 934 
Q 1834 422 2522 422 
Q 3209 422 3611 934 
Q 4013 1447 4013 2328 
Q 4013 3213 3611 3725 
Q 3209 4238 2522 4238 
z
M 2522 4750 
Q 3503 4750 4090 4092 
Q 4678 3434 4678 2328 
Q 4678 1225 4090 567 
Q 3503 -91 2522 -91 
Q 1538 -91 948 565 
Q 359 1222 359 2328 
Q 359 3434 948 4092 
Q 1538 4750 2522 4750 
z
" transform="scale(0.015625)"/>
      <path id="DejaVuSans-4c" d="M 628 4666 
L 1259 4666 
L 1259 531 
L 3531 531 
L 3531 0 
L 628 0 
L 628 4666 
z
" transform="scale(0.015625)"/>
     </defs>
     <use xlink:href="#DejaVuSans-54"/>
     <use xlink:href="#DejaVuSans-45" x="61.083984"/>
     <use xlink:href="#DejaVuSans-4f" x="124.267578"/>
     <use xlink:href="#DejaVuSans-4c" x="202.978516"/>
    </g>
   </g>
   <g id="legend_1">
    <g id="patch_7">
     <path d="M 1562.029687 65.878125 
L 1613 65.878125 
Q 1615 65.878125 1615 63.878125 
L 1615 50.2 
Q 1615 48.2 1613 48.2 
L 1562.029687 48.2 
Q 1560.029687 48.2 1560.029687 50.2 
L 1560.029687 63.878125 
Q 1560.029687 65.878125 1562.029687 65.878125 
z
" style="fill: #ffffff; opacity: 0.8; stroke: #cccccc; stroke-linejoin: miter"/>
    </g>
    <g id="line2d_19">
     <path d="M 1564.029687 56.298437 
L 1574.029687 56.298437 
L 1584.029687 56.298437 
" style="fill: none; stroke: #d98a32; stroke-width: 2.5; stroke-linecap: square"/>
    </g>
    <g id="text_21">
     <!-- teol -->
     <g transform="translate(1592.029687 59.798437) scale(0.1 -0.1)">
      <defs>
       <path id="DejaVuSans-6c" d="M 603 4863 
L 1178 4863 
L 1178 0 
L 603 0 
L 603 4863 
z
" transform="scale(0.015625)"/>
      </defs>
      <use xlink:href="#DejaVuSans-74"/>
      <use xlink:href="#DejaVuSans-65" x="39.208984"/>
      <use xlink:href="#DejaVuSans-6f" x="100.732422"/>
      <use xlink:href="#DejaVuSans-6c" x="161.914062"/>
     </g>
    </g>
   </g>
  </g>
 </g>
 <defs>
  <clipPath id="pb7808843d3">
   <rect x="225" y="43.2" width="1395" height="277.2"/>
  </clipPath>
 </defs>
</svg>
