<?xml version="1.0" encoding="utf-8" standalone="no"?>
<!DOCTYPE svg PUBLIC "-//W3C//DTD SVG 1.1//EN"
  "http://www.w3.org/Graphics/SVG/1.1/DTD/svg11.dtd">
<svg xmlns:xlink="http://www.w3.org/1999/xlink" width="1800pt" height="360pt" viewBox="0 0 1800 360" xmlns="http://www.w3.org/2000/svg" version="1.1">
 <metadata>
  <rdf:RDF xmlns:dc="http://purl.org/dc/elements/1.1/" xmlns:cc="http://creativecommons.org/ns#" xmlns:rdf="http://www.w3.org/1999/02/22-rdf-syntax-ns#">
   <cc:Work>
    <dc:type rdf:resource="http://purl.org/dc/dcmitype/StillImage"/>
    <dc:date>2024-03-25T15:23:18.429439</dc:date>
    <dc:format>image/svg+xml</dc:format>
    <dc:creator>
     <cc:Agent>
      <dc:title>Matplotlib v3.7.2, https://matplotlib.org/</dc:title>
     </cc:Agent>
    </dc:creator>
   </cc:Work>
  </rdf:RDF>
 </metadata>
 <defs>
  <style type="text/css">*{stroke-linejoin: round; stroke-linecap: butt}</style>
 </defs>
 <g id="figure_1">
  <g id="patch_1">
   <path d="M 0 360 
L 1800 360 
L 1800 0 
L 0 0 
z
" style="fill: #ffffff"/>
  </g>
  <g id="axes_1">
   <g id="patch_2">
    <path d="M 225 320.4 
L 1620 320.4 
L 1620 43.2 
L 225 43.2 
z
" style="fill: #ffffff"/>
   </g>
   <g id="matplotlib.axis_1">
    <g id="xtick_1">
     <g id="line2d_1">
      <defs>
       <path id="m9d33b0ed67" d="M 0 0 
L 0 3.5 
" style="stroke: #000000; stroke-width: 0.8"/>
      </defs>
      <g>
       <use xlink:href="#m9d33b0ed67" x="281.924597" y="320.4" style="stroke: #000000; stroke-width: 0.8"/>
      </g>
     </g>
     <g id="text_1">
      <!-- 2011 -->
      <g transform="translate(262.837097 338.797656) scale(0.15 -0.15)">
       <defs>
        <path id="DejaVuSans-32" d="M 1228 531 
L 3431 531 
L 3431 0 
L 469 0 
L 469 531 
Q 828 903 1448 1529 
Q 2069 2156 2228 2338 
Q 2531 2678 2651 2914 
Q 2772 3150 2772 3378 
Q 2772 3750 2511 3984 
Q 2250 4219 1831 4219 
Q 1534 4219 1204 4116 
Q 875 4013 500 3803 
L 500 4441 
Q 881 4594 1212 4672 
Q 1544 4750 1819 4750 
Q 2544 4750 2975 4387 
Q 3406 4025 3406 3419 
Q 3406 3131 3298 2873 
Q 3191 2616 2906 2266 
Q 2828 2175 2409 1742 
Q 1991 1309 1228 531 
z
" transform="scale(0.015625)"/>
        <path id="DejaVuSans-30" d="M 2034 4250 
Q 1547 4250 1301 3770 
Q 1056 3291 1056 2328 
Q 1056 1369 1301 889 
Q 1547 409 2034 409 
Q 2525 409 2770 889 
Q 3016 1369 3016 2328 
Q 3016 3291 2770 3770 
Q 2525 4250 2034 4250 
z
M 2034 4750 
Q 2819 4750 3233 4129 
Q 3647 3509 3647 2328 
Q 3647 1150 3233 529 
Q 2819 -91 2034 -91 
Q 1250 -91 836 529 
Q 422 1150 422 2328 
Q 422 3509 836 4129 
Q 1250 4750 2034 4750 
z
" transform="scale(0.015625)"/>
        <path id="DejaVuSans-31" d="M 794 531 
L 1825 531 
L 1825 4091 
L 703 3866 
L 703 4441 
L 1819 4666 
L 2450 4666 
L 2450 531 
L 3481 531 
L 3481 0 
L 794 0 
L 794 531 
z
" transform="scale(0.015625)"/>
       </defs>
       <use xlink:href="#DejaVuSans-32"/>
       <use xlink:href="#DejaVuSans-30" x="63.623047"/>
       <use xlink:href="#DejaVuSans-31" x="127.246094"/>
       <use xlink:href="#DejaVuSans-31" x="190.869141"/>
      </g>
     </g>
    </g>
    <g id="xtick_2">
     <g id="line2d_2">
      <g>
       <use xlink:href="#m9d33b0ed67" x="450.984627" y="320.4" style="stroke: #000000; stroke-width: 0.8"/>
      </g>
     </g>
     <g id="text_2">
      <!-- 2012 -->
      <g transform="translate(431.897127 338.797656) scale(0.15 -0.15)">
       <use xlink:href="#DejaVuSans-32"/>
       <use xlink:href="#DejaVuSans-30" x="63.623047"/>
       <use xlink:href="#DejaVuSans-31" x="127.246094"/>
       <use xlink:href="#DejaVuSans-32" x="190.869141"/>
      </g>
     </g>
    </g>
    <g id="xtick_3">
     <g id="line2d_3">
      <g>
       <use xlink:href="#m9d33b0ed67" x="620.507836" y="320.4" style="stroke: #000000; stroke-width: 0.8"/>
      </g>
     </g>
     <g id="text_3">
      <!-- 2013 -->
      <g transform="translate(601.420336 338.797656) scale(0.15 -0.15)">
       <defs>
        <path id="DejaVuSans-33" d="M 2597 2516 
Q 3050 2419 3304 2112 
Q 3559 1806 3559 1356 
Q 3559 666 3084 287 
Q 2609 -91 1734 -91 
Q 1441 -91 1130 -33 
Q 819 25 488 141 
L 488 750 
Q 750 597 1062 519 
Q 1375 441 1716 441 
Q 2309 441 2620 675 
Q 2931 909 2931 1356 
Q 2931 1769 2642 2001 
Q 2353 2234 1838 2234 
L 1294 2234 
L 1294 2753 
L 1863 2753 
Q 2328 2753 2575 2939 
Q 2822 3125 2822 3475 
Q 2822 3834 2567 4026 
Q 2313 4219 1838 4219 
Q 1578 4219 1281 4162 
Q 984 4106 628 3988 
L 628 4550 
Q 988 4650 1302 4700 
Q 1616 4750 1894 4750 
Q 2613 4750 3031 4423 
Q 3450 4097 3450 3541 
Q 3450 3153 3228 2886 
Q 3006 2619 2597 2516 
z
" transform="scale(0.015625)"/>
       </defs>
       <use xlink:href="#DejaVuSans-32"/>
       <use xlink:href="#DejaVuSans-30" x="63.623047"/>
       <use xlink:href="#DejaVuSans-31" x="127.246094"/>
       <use xlink:href="#DejaVuSans-33" x="190.869141"/>
      </g>
     </g>
    </g>
    <g id="xtick_4">
     <g id="line2d_4">
      <g>
       <use xlink:href="#m9d33b0ed67" x="789.567866" y="320.4" style="stroke: #000000; stroke-width: 0.8"/>
      </g>
     </g>
     <g id="text_4">
      <!-- 2014 -->
      <g transform="translate(770.480366 338.797656) scale(0.15 -0.15)">
       <defs>
        <path id="DejaVuSans-34" d="M 2419 4116 
L 825 1625 
L 2419 1625 
L 2419 4116 
z
M 2253 4666 
L 3047 4666 
L 3047 1625 
L 3713 1625 
L 3713 1100 
L 3047 1100 
L 3047 0 
L 2419 0 
L 2419 1100 
L 313 1100 
L 313 1709 
L 2253 4666 
z
" transform="scale(0.015625)"/>
       </defs>
       <use xlink:href="#DejaVuSans-32"/>
       <use xlink:href="#DejaVuSans-30" x="63.623047"/>
       <use xlink:href="#DejaVuSans-31" x="127.246094"/>
       <use xlink:href="#DejaVuSans-34" x="190.869141"/>
      </g>
     </g>
    </g>
    <g id="xtick_5">
     <g id="line2d_5">
      <g>
       <use xlink:href="#m9d33b0ed67" x="958.627897" y="320.4" style="stroke: #000000; stroke-width: 0.8"/>
      </g>
     </g>
     <g id="text_5">
      <!-- 2015 -->
      <g transform="translate(939.540397 338.797656) scale(0.15 -0.15)">
       <defs>
        <path id="DejaVuSans-35" d="M 691 4666 
L 3169 4666 
L 3169 4134 
L 1269 4134 
L 1269 2991 
Q 1406 3038 1543 3061 
Q 1681 3084 1819 3084 
Q 2600 3084 3056 2656 
Q 3513 2228 3513 1497 
Q 3513 744 3044 326 
Q 2575 -91 1722 -91 
Q 1428 -91 1123 -41 
Q 819 9 494 109 
L 494 744 
Q 775 591 1075 516 
Q 1375 441 1709 441 
Q 2250 441 2565 725 
Q 2881 1009 2881 1497 
Q 2881 1984 2565 2268 
Q 2250 2553 1709 2553 
Q 1456 2553 1204 2497 
Q 953 2441 691 2322 
L 691 4666 
z
" transform="scale(0.015625)"/>
       </defs>
       <use xlink:href="#DejaVuSans-32"/>
       <use xlink:href="#DejaVuSans-30" x="63.623047"/>
       <use xlink:href="#DejaVuSans-31" x="127.246094"/>
       <use xlink:href="#DejaVuSans-35" x="190.869141"/>
      </g>
     </g>
    </g>
    <g id="xtick_6">
     <g id="line2d_6">
      <g>
       <use xlink:href="#m9d33b0ed67" x="1127.687927" y="320.4" style="stroke: #000000; stroke-width: 0.8"/>
      </g>
     </g>
     <g id="text_6">
      <!-- 2016 -->
      <g transform="translate(1108.600427 338.797656) scale(0.15 -0.15)">
       <defs>
        <path id="DejaVuSans-36" d="M 2113 2584 
Q 1688 2584 1439 2293 
Q 1191 2003 1191 1497 
Q 1191 994 1439 701 
Q 1688 409 2113 409 
Q 2538 409 2786 701 
Q 3034 994 3034 1497 
Q 3034 2003 2786 2293 
Q 2538 2584 2113 2584 
z
M 3366 4563 
L 3366 3988 
Q 3128 4100 2886 4159 
Q 2644 4219 2406 4219 
Q 1781 4219 1451 3797 
Q 1122 3375 1075 2522 
Q 1259 2794 1537 2939 
Q 1816 3084 2150 3084 
Q 2853 3084 3261 2657 
Q 3669 2231 3669 1497 
Q 3669 778 3244 343 
Q 2819 -91 2113 -91 
Q 1303 -91 875 529 
Q 447 1150 447 2328 
Q 447 3434 972 4092 
Q 1497 4750 2381 4750 
Q 2619 4750 2861 4703 
Q 3103 4656 3366 4563 
z
" transform="scale(0.015625)"/>
       </defs>
       <use xlink:href="#DejaVuSans-32"/>
       <use xlink:href="#DejaVuSans-30" x="63.623047"/>
       <use xlink:href="#DejaVuSans-31" x="127.246094"/>
       <use xlink:href="#DejaVuSans-36" x="190.869141"/>
      </g>
     </g>
    </g>
    <g id="xtick_7">
     <g id="line2d_7">
      <g>
       <use xlink:href="#m9d33b0ed67" x="1297.211136" y="320.4" style="stroke: #000000; stroke-width: 0.8"/>
      </g>
     </g>
     <g id="text_7">
      <!-- 2017 -->
      <g transform="translate(1278.123636 338.797656) scale(0.15 -0.15)">
       <defs>
        <path id="DejaVuSans-37" d="M 525 4666 
L 3525 4666 
L 3525 4397 
L 1831 0 
L 1172 0 
L 2766 4134 
L 525 4134 
L 525 4666 
z
" transform="scale(0.015625)"/>
       </defs>
       <use xlink:href="#DejaVuSans-32"/>
       <use xlink:href="#DejaVuSans-30" x="63.623047"/>
       <use xlink:href="#DejaVuSans-31" x="127.246094"/>
       <use xlink:href="#DejaVuSans-37" x="190.869141"/>
      </g>
     </g>
    </g>
    <g id="xtick_8">
     <g id="line2d_8">
      <g>
       <use xlink:href="#m9d33b0ed67" x="1466.271167" y="320.4" style="stroke: #000000; stroke-width: 0.8"/>
      </g>
     </g>
     <g id="text_8">
      <!-- 2018 -->
      <g transform="translate(1447.183667 338.797656) scale(0.15 -0.15)">
       <defs>
        <path id="DejaVuSans-38" d="M 2034 2216 
Q 1584 2216 1326 1975 
Q 1069 1734 1069 1313 
Q 1069 891 1326 650 
Q 1584 409 2034 409 
Q 2484 409 2743 651 
Q 3003 894 3003 1313 
Q 3003 1734 2745 1975 
Q 2488 2216 2034 2216 
z
M 1403 2484 
Q 997 2584 770 2862 
Q 544 3141 544 3541 
Q 544 4100 942 4425 
Q 1341 4750 2034 4750 
Q 2731 4750 3128 4425 
Q 3525 4100 3525 3541 
Q 3525 3141 3298 2862 
Q 3072 2584 2669 2484 
Q 3125 2378 3379 2068 
Q 3634 1759 3634 1313 
Q 3634 634 3220 271 
Q 2806 -91 2034 -91 
Q 1263 -91 848 271 
Q 434 634 434 1313 
Q 434 1759 690 2068 
Q 947 2378 1403 2484 
z
M 1172 3481 
Q 1172 3119 1398 2916 
Q 1625 2713 2034 2713 
Q 2441 2713 2670 2916 
Q 2900 3119 2900 3481 
Q 2900 3844 2670 4047 
Q 2441 4250 2034 4250 
Q 1625 4250 1398 4047 
Q 1172 3844 1172 3481 
z
" transform="scale(0.015625)"/>
       </defs>
       <use xlink:href="#DejaVuSans-32"/>
       <use xlink:href="#DejaVuSans-30" x="63.623047"/>
       <use xlink:href="#DejaVuSans-31" x="127.246094"/>
       <use xlink:href="#DejaVuSans-38" x="190.869141"/>
      </g>
     </g>
    </g>
    <g id="text_9">
     <!-- Time -->
     <g transform="translate(904.149609 357.314844) scale(0.15 -0.15)">
      <defs>
       <path id="DejaVuSans-54" d="M -19 4666 
L 3928 4666 
L 3928 4134 
L 2272 4134 
L 2272 0 
L 1638 0 
L 1638 4134 
L -19 4134 
L -19 4666 
z
" transform="scale(0.015625)"/>
       <path id="DejaVuSans-69" d="M 603 3500 
L 1178 3500 
L 1178 0 
L 603 0 
L 603 3500 
z
M 603 4863 
L 1178 4863 
L 1178 4134 
L 603 4134 
L 603 4863 
z
" transform="scale(0.015625)"/>
       <path id="DejaVuSans-6d" d="M 3328 2828 
Q 3544 3216 3844 3400 
Q 4144 3584 4550 3584 
Q 5097 3584 5394 3201 
Q 5691 2819 5691 2113 
L 5691 0 
L 5113 0 
L 5113 2094 
Q 5113 2597 4934 2840 
Q 4756 3084 4391 3084 
Q 3944 3084 3684 2787 
Q 3425 2491 3425 1978 
L 3425 0 
L 2847 0 
L 2847 2094 
Q 2847 2600 2669 2842 
Q 2491 3084 2119 3084 
Q 1678 3084 1418 2786 
Q 1159 2488 1159 1978 
L 1159 0 
L 581 0 
L 581 3500 
L 1159 3500 
L 1159 2956 
Q 1356 3278 1631 3431 
Q 1906 3584 2284 3584 
Q 2666 3584 2933 3390 
Q 3200 3197 3328 2828 
z
" transform="scale(0.015625)"/>
       <path id="DejaVuSans-65" d="M 3597 1894 
L 3597 1613 
L 953 1613 
Q 991 1019 1311 708 
Q 1631 397 2203 397 
Q 2534 397 2845 478 
Q 3156 559 3463 722 
L 3463 178 
Q 3153 47 2828 -22 
Q 2503 -91 2169 -91 
Q 1331 -91 842 396 
Q 353 884 353 1716 
Q 353 2575 817 3079 
Q 1281 3584 2069 3584 
Q 2775 3584 3186 3129 
Q 3597 2675 3597 1894 
z
M 3022 2063 
Q 3016 2534 2758 2815 
Q 2500 3097 2075 3097 
Q 1594 3097 1305 2825 
Q 1016 2553 972 2059 
L 3022 2063 
z
" transform="scale(0.015625)"/>
      </defs>
      <use xlink:href="#DejaVuSans-54"/>
      <use xlink:href="#DejaVuSans-69" x="57.958984"/>
      <use xlink:href="#DejaVuSans-6d" x="85.742188"/>
      <use xlink:href="#DejaVuSans-65" x="183.154297"/>
     </g>
    </g>
   </g>
   <g id="matplotlib.axis_2">
    <g id="ytick_1">
     <g id="line2d_9">
      <defs>
       <path id="m63e7e064a8" d="M 0 0 
L -3.5 0 
" style="stroke: #000000; stroke-width: 0.8"/>
      </defs>
      <g>
       <use xlink:href="#m63e7e064a8" x="225" y="315.124247" style="stroke: #000000; stroke-width: 0.8"/>
      </g>
     </g>
     <g id="text_10">
      <!-- −0.006 -->
      <g transform="translate(162.488281 320.823075) scale(0.15 -0.15)">
       <defs>
        <path id="DejaVuSans-2212" d="M 678 2272 
L 4684 2272 
L 4684 1741 
L 678 1741 
L 678 2272 
z
" transform="scale(0.015625)"/>
        <path id="DejaVuSans-2e" d="M 684 794 
L 1344 794 
L 1344 0 
L 684 0 
L 684 794 
z
" transform="scale(0.015625)"/>
       </defs>
       <use xlink:href="#DejaVuSans-2212"/>
       <use xlink:href="#DejaVuSans-30" x="83.789062"/>
       <use xlink:href="#DejaVuSans-2e" x="147.412109"/>
       <use xlink:href="#DejaVuSans-30" x="179.199219"/>
       <use xlink:href="#DejaVuSans-30" x="242.822266"/>
       <use xlink:href="#DejaVuSans-36" x="306.445312"/>
      </g>
     </g>
    </g>
    <g id="ytick_2">
     <g id="line2d_10">
      <g>
       <use xlink:href="#m63e7e064a8" x="225" y="269.401684" style="stroke: #000000; stroke-width: 0.8"/>
      </g>
     </g>
     <g id="text_11">
      <!-- −0.004 -->
      <g transform="translate(162.488281 275.100512) scale(0.15 -0.15)">
       <use xlink:href="#DejaVuSans-2212"/>
       <use xlink:href="#DejaVuSans-30" x="83.789062"/>
       <use xlink:href="#DejaVuSans-2e" x="147.412109"/>
       <use xlink:href="#DejaVuSans-30" x="179.199219"/>
       <use xlink:href="#DejaVuSans-30" x="242.822266"/>
       <use xlink:href="#DejaVuSans-34" x="306.445312"/>
      </g>
     </g>
    </g>
    <g id="ytick_3">
     <g id="line2d_11">
      <g>
       <use xlink:href="#m63e7e064a8" x="225" y="223.679121" style="stroke: #000000; stroke-width: 0.8"/>
      </g>
     </g>
     <g id="text_12">
      <!-- −0.002 -->
      <g transform="translate(162.488281 229.37795) scale(0.15 -0.15)">
       <use xlink:href="#DejaVuSans-2212"/>
       <use xlink:href="#DejaVuSans-30" x="83.789062"/>
       <use xlink:href="#DejaVuSans-2e" x="147.412109"/>
       <use xlink:href="#DejaVuSans-30" x="179.199219"/>
       <use xlink:href="#DejaVuSans-30" x="242.822266"/>
       <use xlink:href="#DejaVuSans-32" x="306.445312"/>
      </g>
     </g>
    </g>
    <g id="ytick_4">
     <g id="line2d_12">
      <g>
       <use xlink:href="#m63e7e064a8" x="225" y="177.956559" style="stroke: #000000; stroke-width: 0.8"/>
      </g>
     </g>
     <g id="text_13">
      <!-- 0.000 -->
      <g transform="translate(175.057813 183.655387) scale(0.15 -0.15)">
       <use xlink:href="#DejaVuSans-30"/>
       <use xlink:href="#DejaVuSans-2e" x="63.623047"/>
       <use xlink:href="#DejaVuSans-30" x="95.410156"/>
       <use xlink:href="#DejaVuSans-30" x="159.033203"/>
       <use xlink:href="#DejaVuSans-30" x="222.65625"/>
      </g>
     </g>
    </g>
    <g id="ytick_5">
     <g id="line2d_13">
      <g>
       <use xlink:href="#m63e7e064a8" x="225" y="132.233996" style="stroke: #000000; stroke-width: 0.8"/>
      </g>
     </g>
     <g id="text_14">
      <!-- 0.002 -->
      <g transform="translate(175.057813 137.932824) scale(0.15 -0.15)">
       <use xlink:href="#DejaVuSans-30"/>
       <use xlink:href="#DejaVuSans-2e" x="63.623047"/>
       <use xlink:href="#DejaVuSans-30" x="95.410156"/>
       <use xlink:href="#DejaVuSans-30" x="159.033203"/>
       <use xlink:href="#DejaVuSans-32" x="222.65625"/>
      </g>
     </g>
    </g>
    <g id="ytick_6">
     <g id="line2d_14">
      <g>
       <use xlink:href="#m63e7e064a8" x="225" y="86.511433" style="stroke: #000000; stroke-width: 0.8"/>
      </g>
     </g>
     <g id="text_15">
      <!-- 0.004 -->
      <g transform="translate(175.057813 92.210261) scale(0.15 -0.15)">
       <use xlink:href="#DejaVuSans-30"/>
       <use xlink:href="#DejaVuSans-2e" x="63.623047"/>
       <use xlink:href="#DejaVuSans-30" x="95.410156"/>
       <use xlink:href="#DejaVuSans-30" x="159.033203"/>
       <use xlink:href="#DejaVuSans-34" x="222.65625"/>
      </g>
     </g>
    </g>
    <g id="text_16">
     <!-- North(m) -->
     <g transform="translate(155.36875 215.934375) rotate(-90) scale(0.15 -0.15)">
      <defs>
       <path id="DejaVuSans-4e" d="M 628 4666 
L 1478 4666 
L 3547 763 
L 3547 4666 
L 4159 4666 
L 4159 0 
L 3309 0 
L 1241 3903 
L 1241 0 
L 628 0 
L 628 4666 
z
" transform="scale(0.015625)"/>
       <path id="DejaVuSans-6f" d="M 1959 3097 
Q 1497 3097 1228 2736 
Q 959 2375 959 1747 
Q 959 1119 1226 758 
Q 1494 397 1959 397 
Q 2419 397 2687 759 
Q 2956 1122 2956 1747 
Q 2956 2369 2687 2733 
Q 2419 3097 1959 3097 
z
M 1959 3584 
Q 2709 3584 3137 3096 
Q 3566 2609 3566 1747 
Q 3566 888 3137 398 
Q 2709 -91 1959 -91 
Q 1206 -91 779 398 
Q 353 888 353 1747 
Q 353 2609 779 3096 
Q 1206 3584 1959 3584 
z
" transform="scale(0.015625)"/>
       <path id="DejaVuSans-72" d="M 2631 2963 
Q 2534 3019 2420 3045 
Q 2306 3072 2169 3072 
Q 1681 3072 1420 2755 
Q 1159 2438 1159 1844 
L 1159 0 
L 581 0 
L 581 3500 
L 1159 3500 
L 1159 2956 
Q 1341 3275 1631 3429 
Q 1922 3584 2338 3584 
Q 2397 3584 2469 3576 
Q 2541 3569 2628 3553 
L 2631 2963 
z
" transform="scale(0.015625)"/>
       <path id="DejaVuSans-74" d="M 1172 4494 
L 1172 3500 
L 2356 3500 
L 2356 3053 
L 1172 3053 
L 1172 1153 
Q 1172 725 1289 603 
Q 1406 481 1766 481 
L 2356 481 
L 2356 0 
L 1766 0 
Q 1100 0 847 248 
Q 594 497 594 1153 
L 594 3053 
L 172 3053 
L 172 3500 
L 594 3500 
L 594 4494 
L 1172 4494 
z
" transform="scale(0.015625)"/>
       <path id="DejaVuSans-68" d="M 3513 2113 
L 3513 0 
L 2938 0 
L 2938 2094 
Q 2938 2591 2744 2837 
Q 2550 3084 2163 3084 
Q 1697 3084 1428 2787 
Q 1159 2491 1159 1978 
L 1159 0 
L 581 0 
L 581 4863 
L 1159 4863 
L 1159 2956 
Q 1366 3272 1645 3428 
Q 1925 3584 2291 3584 
Q 2894 3584 3203 3211 
Q 3513 2838 3513 2113 
z
" transform="scale(0.015625)"/>
       <path id="DejaVuSans-28" d="M 1984 4856 
Q 1566 4138 1362 3434 
Q 1159 2731 1159 2009 
Q 1159 1288 1364 580 
Q 1569 -128 1984 -844 
L 1484 -844 
Q 1016 -109 783 600 
Q 550 1309 550 2009 
Q 550 2706 781 3412 
Q 1013 4119 1484 4856 
L 1984 4856 
z
" transform="scale(0.015625)"/>
       <path id="DejaVuSans-29" d="M 513 4856 
L 1013 4856 
Q 1481 4119 1714 3412 
Q 1947 2706 1947 2009 
Q 1947 1309 1714 600 
Q 1481 -109 1013 -844 
L 513 -844 
Q 928 -128 1133 580 
Q 1338 1288 1338 2009 
Q 1338 2731 1133 3434 
Q 928 4138 513 4856 
z
" transform="scale(0.015625)"/>
      </defs>
      <use xlink:href="#DejaVuSans-4e"/>
      <use xlink:href="#DejaVuSans-6f" x="74.804688"/>
      <use xlink:href="#DejaVuSans-72" x="135.986328"/>
      <use xlink:href="#DejaVuSans-74" x="177.099609"/>
      <use xlink:href="#DejaVuSans-68" x="216.308594"/>
      <use xlink:href="#DejaVuSans-28" x="279.6875"/>
      <use xlink:href="#DejaVuSans-6d" x="318.701172"/>
      <use xlink:href="#DejaVuSans-29" x="416.113281"/>
     </g>
    </g>
   </g>
   <g id="line2d_15">
    <path d="M 288.409091 165.690957 
L 288.872269 146.979452 
L 289.335447 140.369185 
L 290.261804 124.103528 
L 290.724982 118.351321 
L 291.18816 115.519697 
L 291.651338 107.46037 
L 292.114516 106.791768 
L 292.577694 104.60779 
L 293.040873 105.27494 
L 293.504051 108.868334 
L 293.967229 110.469531 
L 294.430407 111.015843 
L 294.893585 115.477965 
L 295.356763 115.341705 
L 295.819942 114.059114 
L 296.28312 114.03716 
L 296.746298 113.420813 
L 297.209476 110.880851 
L 297.672654 110.111007 
L 298.135832 110.337261 
L 298.599011 109.23756 
L 299.062189 109.826329 
L 299.525367 115.111458 
L 299.988545 112.143664 
L 300.451723 113.241913 
L 300.914901 116.521781 
L 301.37808 115.634364 
L 301.841258 112.960501 
L 302.304436 114.597623 
L 302.767614 112.785957 
L 303.69397 122.477688 
L 304.157149 120.659491 
L 304.620327 115.676638 
L 305.083505 115.266042 
L 305.546683 116.658222 
L 306.009861 111.4043 
L 306.473039 101.271128 
L 307.399396 87.451664 
L 307.862574 85.101125 
L 308.325752 84.612148 
L 308.78893 79.612966 
L 309.252108 78.634104 
L 309.715287 87.727269 
L 310.178465 90.455201 
L 310.641643 99.16299 
L 312.494356 121.81235 
L 312.957534 122.704847 
L 313.420712 130.119342 
L 313.88389 132.412909 
L 314.347068 131.652862 
L 314.810246 136.017007 
L 315.273425 142.719536 
L 315.736603 142.155443 
L 316.199781 150.125139 
L 316.662959 147.627635 
L 317.126137 143.74539 
L 317.589315 144.35702 
L 318.515672 130.740042 
L 318.97885 131.292886 
L 319.442028 122.867778 
L 319.905206 123.368367 
L 320.368384 131.83448 
L 321.294741 138.159072 
L 321.757919 147.712728 
L 322.221097 152.494909 
L 322.684275 152.822406 
L 323.147453 157.065714 
L 323.610632 156.429771 
L 324.07381 155.010013 
L 324.536988 159.171673 
L 325.000166 159.567754 
L 325.463344 156.58363 
L 325.926522 163.400465 
L 326.389701 165.569928 
L 326.852879 161.870574 
L 327.316057 167.439836 
L 327.779235 165.337505 
L 328.242413 161.886358 
L 328.705591 167.334782 
L 329.16877 165.405544 
L 329.631948 164.354832 
L 330.095126 165.66863 
L 330.558304 161.16913 
L 331.021482 161.254951 
L 331.48466 159.763343 
L 331.947839 155.946416 
L 332.411017 154.258854 
L 332.874195 155.216669 
L 333.800551 163.353834 
L 334.263729 164.043845 
L 334.726907 162.849434 
L 335.190086 162.50089 
L 335.653264 159.141188 
L 336.116442 152.322902 
L 336.57962 141.676984 
L 337.042798 137.164421 
L 337.505976 136.332524 
L 337.969155 136.54898 
L 338.432333 136.066534 
L 338.895511 139.558686 
L 339.358689 146.088122 
L 339.821867 154.286431 
L 340.748224 156.29024 
L 341.211402 155.93843 
L 341.67458 153.293961 
L 342.137758 153.500619 
L 343.064114 149.909946 
L 343.527293 152.673803 
L 343.990471 150.702108 
L 344.453649 155.810878 
L 344.916827 158.907856 
L 345.843183 156.43412 
L 346.306362 157.421328 
L 346.76954 156.517581 
L 347.232718 157.037766 
L 347.695896 158.521391 
L 348.159074 159.103628 
L 348.622252 164.597774 
L 349.085431 165.72215 
L 349.548609 168.534994 
L 350.011787 168.117867 
L 350.474965 170.290595 
L 350.938143 165.09546 
L 351.401321 171.497526 
L 351.8645 168.813865 
L 352.327678 165.284337 
L 352.790856 164.406718 
L 353.717212 166.730585 
L 354.18039 164.298399 
L 354.643569 156.706094 
L 355.106747 155.126307 
L 355.569925 154.918197 
L 356.033103 152.472947 
L 356.496281 146.654025 
L 356.959459 142.902416 
L 357.422638 147.328614 
L 357.885816 146.157064 
L 358.348994 146.660919 
L 358.812172 149.558677 
L 359.27535 153.285973 
L 359.738528 166.089198 
L 360.201707 173.137911 
L 360.664885 172.789367 
L 361.128063 178.485999 
L 362.054419 193.501144 
L 362.517597 194.605924 
L 363.443954 174.783741 
L 363.907132 171.695109 
L 364.37031 172.4733 
L 364.833488 170.691027 
L 365.296666 163.503694 
L 365.759845 158.772316 
L 366.223023 168.322707 
L 366.686201 174.73457 
L 367.149379 182.93288 
L 367.612557 182.568006 
L 368.075735 183.404983 
L 368.538914 193.713062 
L 369.002092 197.649376 
L 369.46527 193.894501 
L 369.928448 191.99139 
L 370.391626 193.726488 
L 370.854804 197.499507 
L 371.317983 196.68394 
L 371.781161 193.418949 
L 372.244339 195.163846 
L 372.707517 199.825188 
L 373.170695 201.599478 
L 373.633873 192.106421 
L 374.097052 193.051172 
L 374.56023 196.517197 
L 375.486586 186.430654 
L 375.949764 188.351909 
L 376.412942 189.450157 
L 376.876121 190.953377 
L 377.339299 178.798614 
L 377.802477 176.487266 
L 378.265655 179.198868 
L 378.728833 180.006452 
L 379.192011 177.394641 
L 379.65519 175.524189 
L 380.581546 187.848234 
L 381.044724 184.289313 
L 381.507902 188.003545 
L 381.97108 188.06977 
L 382.434259 187.35218 
L 382.897437 188.976238 
L 385.676506 150.297126 
L 386.139684 149.233351 
L 386.602862 146.974257 
L 387.06604 155.776757 
L 387.529218 160.003735 
L 387.992397 162.222187 
L 388.455575 169.770583 
L 388.918753 173.788543 
L 389.381931 173.266907 
L 389.845109 179.051718 
L 390.308287 178.366787 
L 390.771466 180.634227 
L 391.697822 188.722403 
L 392.161 195.51311 
L 392.624178 198.626418 
L 393.087356 195.123017 
L 393.550535 197.060601 
L 394.013713 200.092261 
L 394.476891 197.914814 
L 394.940069 193.647194 
L 395.403247 190.898215 
L 395.866425 186.255016 
L 396.329604 192.154134 
L 396.792782 191.018509 
L 397.25596 185.441263 
L 397.719138 192.19278 
L 398.645494 194.869364 
L 399.108673 201.633945 
L 399.571851 198.208925 
L 400.035029 199.173272 
L 400.498207 203.152042 
L 400.961385 202.496504 
L 401.424563 212.164467 
L 401.887742 213.184334 
L 402.35092 219.155301 
L 402.814098 231.429451 
L 403.277276 231.665502 
L 403.740454 230.075918 
L 404.203632 218.169363 
L 405.129989 204.585044 
L 406.056345 178.531529 
L 406.519523 175.730296 
L 406.982701 170.097531 
L 407.44588 169.958004 
L 407.909058 165.719776 
L 408.372236 166.070135 
L 408.835414 170.019512 
L 409.298592 172.303281 
L 409.76177 168.463493 
L 410.688127 185.4741 
L 411.151305 194.508479 
L 411.614483 196.410139 
L 412.077661 196.411046 
L 412.540839 194.690825 
L 413.004018 195.756415 
L 413.467196 191.684748 
L 413.930374 184.468022 
L 414.393552 171.340021 
L 414.85673 164.730752 
L 415.319908 162.47819 
L 415.783087 156.851956 
L 416.246265 154.978238 
L 416.709443 151.706716 
L 417.172621 152.984589 
L 417.635799 150.820206 
L 418.098977 149.978512 
L 418.562156 148.369331 
L 419.025334 147.926076 
L 419.488512 150.797707 
L 419.95169 151.993933 
L 420.414868 147.569549 
L 420.878046 152.129649 
L 421.341225 149.713792 
L 421.804403 149.636317 
L 422.267581 148.484363 
L 422.730759 143.609285 
L 423.193937 142.45733 
L 423.657115 145.825378 
L 424.120294 146.985678 
L 424.583472 155.967803 
L 425.04665 157.595127 
L 425.973006 169.481541 
L 426.436184 168.051985 
L 426.899363 171.743357 
L 427.362541 170.865737 
L 427.825719 161.647016 
L 428.288897 157.150783 
L 429.215253 143.99103 
L 430.14161 137.71579 
L 430.604788 133.438372 
L 431.067966 133.948759 
L 431.994322 130.220918 
L 432.920679 133.514757 
L 433.383857 133.404623 
L 433.847035 129.280702 
L 434.310213 131.35872 
L 435.236569 138.062155 
L 435.699748 133.823928 
L 436.162926 132.198418 
L 436.626104 126.719149 
L 437.089282 133.405348 
L 437.55246 133.31481 
L 438.478817 139.064603 
L 438.941995 146.822017 
L 439.405173 152.319429 
L 439.868351 153.538516 
L 440.331529 151.919538 
L 440.794707 153.991024 
L 441.257886 153.136266 
L 442.184242 150.286952 
L 443.110598 159.250388 
L 443.573776 162.830719 
L 444.036955 159.712694 
L 444.963311 155.625604 
L 445.426489 148.421942 
L 445.889667 136.512121 
L 446.816024 122.852687 
L 447.279202 125.100531 
L 447.74238 121.688576 
L 448.205558 122.306738 
L 448.668736 122.010448 
L 450.058271 131.993751 
L 450.521449 124.923991 
L 450.984627 127.197962 
L 451.447805 126.2191 
L 451.910983 132.340299 
L 452.374162 135.486265 
L 452.83734 137.675324 
L 453.300518 133.776749 
L 453.763696 135.368148 
L 454.226874 133.941858 
L 454.690052 131.787273 
L 455.153231 123.535258 
L 455.616409 117.376682 
L 456.079587 113.112327 
L 457.005943 112.193159 
L 457.9323 97.857683 
L 458.395478 96.539168 
L 459.321834 88.683233 
L 459.785012 88.984603 
L 460.24819 83.224467 
L 460.711369 81.020893 
L 461.174547 83.575732 
L 462.100903 81.533094 
L 462.564081 79.071515 
L 463.027259 70.809702 
L 463.490438 67.254047 
L 464.416794 57.902331 
L 464.879972 55.8 
L 465.34315 56.28426 
L 465.806328 55.886727 
L 466.732685 61.100914 
L 467.195863 67.734858 
L 467.659041 67.676979 
L 468.122219 67.893436 
L 468.585397 64.40963 
L 469.511754 72.125494 
L 470.43811 75.216847 
L 471.364466 92.668351 
L 471.827645 106.203136 
L 472.290823 108.2289 
L 472.754001 107.674604 
L 473.217179 108.609558 
L 473.680357 110.514483 
L 474.143535 105.54796 
L 474.606714 102.759791 
L 475.069892 96.401996 
L 475.996248 103.229536 
L 476.922604 116.869737 
L 478.312139 132.264633 
L 478.775317 130.113313 
L 479.238495 139.895583 
L 479.701673 144.256463 
L 480.164852 143.865462 
L 480.62803 147.109405 
L 481.091208 146.476728 
L 481.554386 147.519457 
L 482.017564 149.257821 
L 482.480742 146.564363 
L 482.943921 142.188968 
L 483.870277 140.557833 
L 484.333455 138.72004 
L 484.796633 138.022045 
L 485.72299 144.183342 
L 486.649346 160.504845 
L 487.112524 166.975494 
L 487.575702 171.80993 
L 488.03888 172.503207 
L 488.502059 171.112842 
L 488.965237 164.653804 
L 489.891593 144.900205 
L 490.354771 139.091081 
L 490.817949 137.961987 
L 491.281128 137.864918 
L 491.744306 138.630045 
L 492.207484 142.122196 
L 492.670662 150.575245 
L 493.13384 154.377657 
L 493.597018 155.923333 
L 494.986553 173.646814 
L 495.449731 175.068386 
L 495.912909 174.905998 
L 496.839266 181.573509 
L 497.302444 177.433258 
L 497.765622 175.425638 
L 498.2288 171.223336 
L 498.691978 171.426728 
L 499.155156 167.413848 
L 499.618335 166.271691 
L 500.081513 164.29673 
L 500.544691 163.249284 
L 501.007869 162.858283 
L 501.471047 166.631302 
L 502.860582 163.087258 
L 503.32376 164.182241 
L 504.250116 171.983018 
L 505.176473 160.903643 
L 505.639651 158.464924 
L 506.102829 159.484791 
L 506.566007 160.122548 
L 507.029185 156.501575 
L 507.492363 151.734272 
L 507.955542 152.770469 
L 508.41872 159.891032 
L 508.881898 168.886221 
L 509.345076 173.782708 
L 509.808254 171.138238 
L 510.271432 170.502295 
L 511.197789 174.753042 
L 511.660967 171.90282 
L 512.124145 165.688725 
L 512.587323 156.701882 
L 513.050501 153.587123 
L 513.51368 154.231412 
L 513.976858 149.137519 
L 514.440036 146.091344 
L 514.903214 141.183608 
L 515.366392 137.742259 
L 515.82957 145.003256 
L 516.292749 148.515003 
L 516.755927 149.867991 
L 517.219105 153.327484 
L 518.145461 150.559817 
L 518.608639 149.946735 
L 519.071818 145.532149 
L 519.534996 144.857015 
L 519.998174 147.47064 
L 520.461352 152.674122 
L 520.92453 155.078729 
L 521.387708 160.56961 
L 521.850887 167.647716 
L 522.314065 170.744694 
L 522.777243 170.886035 
L 523.240421 166.69353 
L 523.703599 166.155564 
L 524.629956 173.103942 
L 525.093134 177.615053 
L 525.556312 176.391248 
L 526.01949 179.749498 
L 526.482668 179.998613 
L 526.945846 176.550733 
L 527.409025 176.414472 
L 527.872203 171.957429 
L 528.335381 165.707409 
L 528.798559 167.200831 
L 529.261737 165.999888 
L 529.724915 168.962964 
L 530.188093 170.593554 
L 530.651272 168.713304 
L 531.11445 173.247277 
L 531.577628 174.897462 
L 532.040806 176.116549 
L 532.967162 181.069463 
L 533.430341 179.734618 
L 533.893519 186.309777 
L 534.356697 185.647707 
L 534.819875 184.541474 
L 535.283053 186.671747 
L 535.746231 190.487222 
L 536.20941 188.682088 
L 536.672588 192.566147 
L 537.135766 189.869423 
L 537.598944 188.041427 
L 538.062122 190.606064 
L 538.5253 196.064285 
L 538.988479 190.931202 
L 539.451657 188.316125 
L 539.914835 188.019835 
L 540.378013 185.777071 
L 540.841191 187.773441 
L 541.304369 186.030359 
L 541.767548 175.560799 
L 542.230726 171.685086 
L 542.693904 172.156283 
L 543.157082 169.534674 
L 544.083438 175.212618 
L 544.546617 175.024103 
L 545.009795 172.454749 
L 545.936151 177.143126 
L 546.862507 168.121265 
L 547.325686 162.426448 
L 548.252042 177.30769 
L 548.71522 179.245274 
L 549.178398 181.875229 
L 550.567933 200.980183 
L 551.031111 193.489122 
L 551.494289 199.221679 
L 551.957467 201.489119 
L 552.420645 202.290171 
L 552.883824 205.452466 
L 553.81018 194.66049 
L 554.273358 193.250529 
L 554.736536 188.248082 
L 555.199714 188.938093 
L 555.662893 187.596716 
L 556.126071 185.370281 
L 556.589249 185.090321 
L 557.052427 187.808455 
L 557.515605 195.464625 
L 557.978783 193.995879 
L 558.441962 196.700949 
L 559.368318 196.333717 
L 559.831496 201.292256 
L 560.294674 204.150823 
L 560.757852 202.69514 
L 561.221031 210.276195 
L 561.684209 205.009209 
L 562.147387 206.692054 
L 562.610565 202.52241 
L 563.073743 200.06083 
L 564.0001 188.393593 
L 564.463278 184.53421 
L 564.926456 186.778788 
L 565.852812 201.264857 
L 566.31599 204.502268 
L 566.779169 214.189827 
L 567.242347 219.811343 
L 567.705525 218.724707 
L 568.168703 221.932725 
L 568.631881 219.454816 
L 569.095059 223.407459 
L 569.558238 216.605502 
L 570.021416 211.521407 
L 570.947772 217.947241 
L 571.41095 213.539186 
L 571.874128 212.811798 
L 572.337307 206.51279 
L 573.263663 221.91331 
L 573.726841 221.339419 
L 574.190019 222.970009 
L 574.653197 228.193086 
L 575.116376 228.063357 
L 576.042732 231.60867 
L 576.50591 222.288706 
L 577.895445 210.214139 
L 578.358623 203.418713 
L 578.821801 199.977365 
L 579.284979 192.541823 
L 579.748157 191.533568 
L 580.211335 188.562509 
L 580.674514 187.982086 
L 581.137692 182.878396 
L 581.60087 181.288811 
L 582.064048 175.025727 
L 582.527226 170.327007 
L 582.990404 170.102568 
L 583.453583 163.023009 
L 583.916761 160.130331 
L 584.379939 159.592365 
L 585.306295 172.259329 
L 585.769473 176.143388 
L 586.232652 177.251435 
L 586.69583 183.140755 
L 587.622186 178.83485 
L 588.085364 169.759829 
L 588.548542 167.517064 
L 589.011721 164.186756 
L 589.474899 160.043239 
L 589.938077 162.947529 
L 590.401255 169.643526 
L 590.864433 172.381255 
L 591.79079 174.385064 
L 592.253968 180.548719 
L 592.717146 188.606595 
L 593.180324 190.211058 
L 593.643502 192.494827 
L 594.10668 194.007845 
L 594.569859 196.895805 
L 595.033037 194.332983 
L 595.496215 185.659666 
L 595.959393 172.685163 
L 596.422571 163.159448 
L 596.885749 150.991622 
L 597.812106 143.240195 
L 598.275284 137.176331 
L 598.738462 133.042612 
L 599.20164 130.930484 
L 599.664818 127.368297 
L 600.127997 125.830966 
L 600.591175 123.346525 
L 601.054353 118.794772 
L 601.517531 117.766921 
L 602.907066 131.652972 
L 603.370244 134.547464 
L 603.833422 133.797215 
L 604.2966 132.802023 
L 604.759778 141.183223 
L 605.222956 147.039884 
L 605.686135 147.530675 
L 606.149313 145.1932 
L 607.075669 149.159814 
L 607.538847 160.307228 
L 608.002025 161.415274 
L 608.465204 154.218144 
L 608.928382 152.785322 
L 609.39156 155.735334 
L 609.854738 149.681268 
L 610.317916 146.275844 
L 611.244273 130.63401 
L 611.707451 126.539482 
L 612.170629 132.157732 
L 613.560163 155.256879 
L 614.023342 156.903799 
L 614.48652 157.322741 
L 614.949698 162.059199 
L 615.412876 159.571492 
L 616.802411 147.562243 
L 617.265589 155.626651 
L 617.728767 159.432328 
L 618.191945 169.263586 
L 618.655123 171.606142 
L 619.118301 168.226845 
L 619.58148 170.471424 
L 620.044658 169.149642 
L 620.507836 162.501182 
L 620.971014 160.215961 
L 621.89737 146.167885 
L 622.360549 141.629195 
L 622.823727 139.91224 
L 623.286905 133.642624 
L 623.750083 136.889833 
L 624.213261 135.822792 
L 624.676439 126.088059 
L 625.139618 126.066105 
L 625.602796 134.189298 
L 626.065974 139.059658 
L 626.529152 149.808634 
L 626.99233 152.611681 
L 627.455508 156.107098 
L 627.918686 167.47986 
L 628.381865 164.32591 
L 628.845043 159.392046 
L 629.308221 160.545815 
L 629.771399 156.866056 
L 630.234577 148.388693 
L 630.697755 146.047952 
L 631.160934 145.843107 
L 631.624112 151.575664 
L 632.08729 151.338161 
L 632.550468 145.267765 
L 633.013646 148.185118 
L 633.476824 150.181489 
L 633.940003 151.080517 
L 634.403181 147.113359 
L 634.866359 151.526494 
L 635.329537 153.666563 
L 635.792715 157.779235 
L 636.255893 153.632453 
L 636.719072 156.922118 
L 637.18225 150.655769 
L 637.645428 149.249074 
L 638.108606 140.846827 
L 638.571784 137.61123 
L 639.034962 140.711474 
L 639.498141 152.129958 
L 639.961319 152.594622 
L 640.424497 163.973916 
L 640.887675 170.614392 
L 641.350853 180.873483 
L 641.814031 184.130489 
L 642.27721 183.393304 
L 643.203566 163.215138 
L 643.666744 153.820059 
L 644.129922 138.47778 
L 644.5931 130.369464 
L 645.056279 128.322653 
L 645.519457 130.678272 
L 645.982635 135.313488 
L 646.908991 150.116349 
L 647.372169 166.3455 
L 647.835348 172.10745 
L 648.298526 175.697578 
L 648.761704 175.433947 
L 649.224882 172.240807 
L 649.68806 174.498449 
L 650.151238 180.221208 
L 651.077595 187.352476 
L 652.003951 200.483198 
L 652.467129 205.866304 
L 652.930307 212.555768 
L 653.856664 210.127755 
L 654.319842 210.932073 
L 655.246198 207.490724 
L 655.709376 200.231541 
L 656.172555 197.312736 
L 658.951624 162.555967 
L 659.414802 158.314474 
L 659.87798 148.841013 
L 660.341158 146.885647 
L 661.267514 153.48784 
L 661.730693 154.971464 
L 662.193871 153.091215 
L 662.657049 146.011656 
L 663.120227 143.386782 
L 664.046583 136.259142 
L 664.509762 130.387966 
L 664.97294 126.250981 
L 665.436118 126.062466 
L 666.825652 160.889451 
L 667.288831 161.383508 
L 667.752009 165.617018 
L 668.215187 174.001484 
L 668.678365 175.942334 
L 669.141543 172.047025 
L 670.0679 158.903603 
L 670.531078 158.133758 
L 670.994256 158.781313 
L 671.457434 153.984617 
L 671.920612 158.858243 
L 672.38379 154.750651 
L 672.846969 154.268205 
L 673.310147 150.83992 
L 673.773325 152.317013 
L 674.236503 152.334249 
L 674.699681 155.89825 
L 675.162859 154.184561 
L 675.626038 159.757089 
L 676.089216 163.543171 
L 677.015572 175.948864 
L 677.47875 174.793643 
L 677.941928 178.256401 
L 678.405107 180.458523 
L 678.868285 177.836915 
L 679.331463 174.343312 
L 679.794641 172.322628 
L 680.257819 165.158157 
L 681.184176 159.865951 
L 681.647354 155.421972 
L 682.110532 157.695944 
L 684.426423 191.744193 
L 684.889601 194.609292 
L 685.352779 195.665084 
L 685.815957 195.277349 
L 686.279135 193.171752 
L 686.742314 194.5574 
L 687.205492 193.506688 
L 687.66867 189.86612 
L 688.131848 195.28515 
L 688.595026 196.657734 
L 689.058204 197.589422 
L 689.521383 198.978336 
L 690.447739 194.773674 
L 690.910917 194.95094 
L 691.374095 188.005283 
L 691.837273 189.942867 
L 692.300452 187.990768 
L 692.76363 192.025058 
L 693.226808 192.313364 
L 693.689986 192.91193 
L 694.153164 189.19298 
L 694.616342 189.589061 
L 695.079521 190.873466 
L 695.542699 198.372873 
L 696.005877 194.173836 
L 696.469055 193.805697 
L 696.932233 196.242963 
L 697.395411 203.102255 
L 697.85859 211.989669 
L 698.321768 212.500056 
L 698.784946 210.358534 
L 699.711302 219.472202 
L 700.17448 221.657994 
L 701.564015 208.956375 
L 702.490371 196.975612 
L 702.953549 194.249494 
L 703.416728 187.36589 
L 703.879906 189.639862 
L 704.343084 193.190799 
L 704.806262 198.946217 
L 705.26944 209.280423 
L 705.732618 211.093904 
L 706.195797 211.29403 
L 706.658975 218.538698 
L 707.122153 216.740095 
L 707.585331 212.172012 
L 708.048509 210.069681 
L 708.511687 206.579344 
L 708.974866 213.36352 
L 709.438044 214.517289 
L 709.901222 219.812216 
L 710.827578 235.150684 
L 711.290756 239.407055 
L 712.217113 233.784994 
L 712.680291 234.298647 
L 713.143469 230.331489 
L 713.606647 224.120659 
L 714.069825 222.289398 
L 714.533004 223.413773 
L 714.996182 235.681391 
L 715.45936 243.25918 
L 715.922538 244.56318 
L 716.385716 247.937759 
L 717.312073 263.909811 
L 717.775251 264.857828 
L 718.238429 254.126997 
L 718.701607 247.70715 
L 719.164785 250.373029 
L 719.627963 253.812926 
L 720.55432 246.035373 
L 721.017498 248.390992 
L 721.943854 267.991456 
L 722.407032 270.977393 
L 722.870211 272.150757 
L 723.796567 284.73934 
L 724.722923 289.260378 
L 725.186101 287.429247 
L 725.64928 283.586322 
L 726.112458 285.749383 
L 726.575636 282.226516 
L 727.038814 286.006196 
L 727.501992 284.060758 
L 727.96517 281.42282 
L 728.428348 281.969132 
L 728.891527 285.392699 
L 729.354705 287.885486 
L 729.817883 282.77853 
L 730.281061 275.277671 
L 730.744239 272.64953 
L 731.207417 274.515265 
L 731.670596 279.960423 
L 732.133774 280.412024 
L 732.596952 277.241745 
L 733.06013 284.466817 
L 733.986486 290.902448 
L 734.449665 290.259974 
L 734.912843 291.449667 
L 735.376021 284.899185 
L 735.839199 284.410207 
L 736.302377 285.697878 
L 736.765555 282.906442 
L 737.228734 285.578854 
L 737.691912 286.471351 
L 738.15509 275.805837 
L 738.618268 280.222237 
L 739.081446 278.436699 
L 739.544624 277.901998 
L 740.007803 278.497299 
L 740.470981 278.194477 
L 740.934159 277.712032 
L 741.397337 284.999156 
L 742.323693 277.799666 
L 742.786872 277.993261 
L 743.25005 274.320034 
L 743.713228 273.301981 
L 744.176406 269.16173 
L 744.639584 269.182233 
L 745.102762 266.456116 
L 745.565941 268.501474 
L 746.029119 267.160098 
L 746.492297 268.983375 
L 746.955475 256.662052 
L 747.418653 252.022119 
L 747.881831 245.01441 
L 748.34501 243.610981 
L 748.808188 241.502119 
L 749.271366 238.789065 
L 749.734544 233.159565 
L 750.197722 232.383189 
L 750.6609 226.8484 
L 751.124079 224.987745 
L 751.587257 222.41186 
L 752.050435 217.736002 
L 752.513613 211.414131 
L 752.976791 210.507119 
L 753.903148 223.6705 
L 754.366326 220.947648 
L 754.829504 221.284943 
L 755.292682 219.453681 
L 755.75586 223.376931 
L 756.219038 231.601368 
L 756.682217 225.178255 
L 757.145395 223.314334 
L 757.608573 223.148681 
L 758.071751 225.964791 
L 758.534929 230.959255 
L 758.998107 229.76811 
L 759.461286 224.230055 
L 759.924464 227.620964 
L 760.387642 226.299182 
L 760.85082 224.503846 
L 761.313998 223.3127 
L 761.777176 220.736815 
L 762.240355 216.27324 
L 762.703533 219.024033 
L 763.166711 215.78517 
L 763.629889 213.477087 
L 764.093067 214.928053 
L 764.556245 212.433814 
L 765.019424 214.244028 
L 765.482602 217.109127 
L 765.94578 207.475637 
L 766.408958 205.686833 
L 766.872136 205.811844 
L 767.335314 204.313704 
L 767.798493 206.323138 
L 768.724849 200.413678 
L 769.188027 207.05742 
L 769.651205 210.294832 
L 770.114383 216.510741 
L 770.577562 220.032286 
L 771.04074 220.395707 
L 771.503918 222.173263 
L 771.967096 222.654257 
L 772.430274 217.38074 
L 773.356631 215.958622 
L 773.819809 219.147045 
L 774.282987 226.852204 
L 774.746165 227.839412 
L 775.209343 226.67766 
L 775.672521 221.841773 
L 776.1357 220.921697 
L 776.598878 216.804308 
L 777.062056 209.522264 
L 777.525234 196.276691 
L 778.45159 192.137347 
L 778.914769 193.408689 
L 779.841125 181.320151 
L 780.304303 183.852128 
L 780.767481 189.356072 
L 781.230659 189.383107 
L 782.157016 195.20475 
L 783.083372 204.187782 
L 784.009728 193.657077 
L 784.472907 188.550121 
L 784.936085 189.922705 
L 785.399263 192.13789 
L 785.862441 192.115936 
L 786.325619 192.237681 
L 787.251976 201.62895 
L 787.715154 199.62133 
L 788.178332 200.014145 
L 789.104688 191.808759 
L 789.567866 190.650273 
L 790.031045 188.489156 
L 790.494223 187.578878 
L 790.957401 193.811117 
L 791.420579 190.082369 
L 792.346935 194.160023 
L 792.810114 194.993734 
L 793.73647 191.543495 
L 794.199648 186.381018 
L 794.662826 185.885509 
L 795.126004 181.719131 
L 795.589183 181.416309 
L 796.052361 182.824818 
L 796.515539 184.749339 
L 796.978717 183.486344 
L 797.441895 193.856475 
L 797.905073 197.273511 
L 798.368252 208.029018 
L 798.83143 209.026023 
L 799.294608 209.386179 
L 799.757786 214.508013 
L 800.220964 217.657245 
L 800.684142 208.177252 
L 801.147321 208.932582 
L 802.073677 210.880871 
L 802.536855 209.72565 
L 803.000033 209.729823 
L 803.463211 213.558362 
L 803.92639 229.74179 
L 804.389568 233.034722 
L 804.852746 228.273951 
L 805.315924 236.978474 
L 806.24228 246.010494 
L 806.705459 248.09831 
L 807.168637 244.016845 
L 807.631815 245.526597 
L 808.094993 248.486407 
L 808.558171 249.225407 
L 809.021349 252.61305 
L 809.484528 248.975747 
L 809.947706 241.53694 
L 810.410884 237.187672 
L 810.874062 237.926672 
L 811.33724 236.268503 
L 811.800418 231.478339 
L 812.726775 224.004514 
L 813.189953 228.398053 
L 813.653131 229.711851 
L 814.116309 226.979202 
L 814.579487 223.087159 
L 815.042666 223.698789 
L 815.505844 219.783885 
L 815.969022 223.553638 
L 816.4322 224.84784 
L 816.895378 219.900913 
L 817.358556 223.869885 
L 817.821735 231.405217 
L 818.284913 226.89592 
L 818.748091 228.879227 
L 819.211269 224.48097 
L 819.674447 222.457021 
L 820.137625 223.917784 
L 820.600804 218.634469 
L 821.063982 210.388986 
L 821.52716 210.954893 
L 821.990338 207.07918 
L 822.916694 207.894203 
L 823.379873 211.863175 
L 823.843051 210.969226 
L 824.306229 214.814094 
L 824.769407 216.686361 
L 825.232585 222.689987 
L 825.695763 223.876415 
L 826.158941 224.65134 
L 826.62212 220.171435 
L 827.085298 222.902633 
L 827.548476 224.92513 
L 828.474832 214.766738 
L 828.93801 213.013858 
L 829.401189 208.66459 
L 829.864367 211.712579 
L 830.327545 210.560624 
L 830.790723 211.50211 
L 831.253901 218.322211 
L 831.717079 219.570691 
L 832.180258 221.407032 
L 832.643436 224.246004 
L 833.106614 223.224685 
L 833.569792 218.421457 
L 834.03297 214.872334 
L 834.496148 208.491677 
L 834.959327 208.293365 
L 835.422505 207.301439 
L 835.885683 204.529599 
L 836.348861 205.294726 
L 836.812039 204.273408 
L 837.275217 205.998708 
L 837.738396 206.809558 
L 838.664752 197.183507 
L 839.12793 201.479069 
L 839.591108 198.184686 
L 840.054286 203.283658 
L 840.517465 204.816271 
L 840.980643 208.027556 
L 841.443821 212.391701 
L 841.906999 218.91134 
L 842.370177 216.221147 
L 842.833355 209.611878 
L 843.296534 210.056947 
L 843.759712 212.797942 
L 844.22289 210.280842 
L 844.686068 213.874237 
L 845.612424 214.930936 
L 846.075603 217.557624 
L 847.001959 209.819262 
L 847.465137 214.075633 
L 847.928315 213.403765 
L 848.391493 211.683544 
L 848.854672 212.817718 
L 849.31785 218.651518 
L 849.781028 221.92812 
L 850.244206 223.016571 
L 851.170562 218.710666 
L 851.633741 217.447671 
L 852.096919 217.363665 
L 852.560097 218.697058 
L 853.023275 220.915509 
L 853.949631 218.232756 
L 854.41281 220.630832 
L 855.339166 231.354587 
L 855.802344 226.904076 
L 856.265522 226.036254 
L 856.7287 220.305511 
L 857.191879 226.557346 
L 857.655057 227.85808 
L 858.118235 229.923034 
L 858.581413 229.094403 
L 859.044591 236.090863 
L 859.507769 238.593447 
L 859.970948 242.503633 
L 860.434126 237.233382 
L 860.897304 235.934462 
L 861.360482 233.17242 
L 861.82366 226.984452 
L 862.286838 224.235473 
L 862.750017 220.268315 
L 863.213195 222.643529 
L 863.676373 226.850912 
L 864.139551 232.521417 
L 864.602729 234.040966 
L 865.065907 241.187657 
L 865.529086 238.001048 
L 865.992264 238.282822 
L 866.455442 235.021098 
L 866.91862 230.567321 
L 867.381798 231.708026 
L 867.844976 230.056389 
L 868.308155 229.573944 
L 868.771333 234.983177 
L 869.234511 238.344692 
L 869.697689 243.260775 
L 870.160867 254.372265 
L 870.624045 251.606957 
L 871.087224 250.317834 
L 871.550402 248.689059 
L 872.01358 253.239361 
L 872.476758 256.189373 
L 872.939936 262.731872 
L 873.403114 255.436765 
L 873.866293 253.242989 
L 874.329471 253.776237 
L 874.792649 248.538645 
L 875.255827 248.392587 
L 876.182183 239.65486 
L 877.10854 251.792748 
L 877.571718 254.112442 
L 878.034896 258.473322 
L 878.498074 254.401656 
L 878.961252 251.913949 
L 880.350787 238.294612 
L 880.813965 239.86315 
L 881.277143 238.675271 
L 881.740321 242.523405 
L 882.2035 252.357929 
L 882.666678 255.696583 
L 883.129856 252.4022 
L 884.056212 256.055287 
L 884.51939 256.128044 
L 884.982569 255.113257 
L 885.445747 248.004305 
L 885.908925 248.3416 
L 886.372103 245.765714 
L 886.835281 245.991968 
L 887.298459 242.981718 
L 887.761638 247.672453 
L 888.224816 248.69232 
L 889.151172 255.111623 
L 889.61435 257.029612 
L 890.540707 252.377522 
L 891.003885 247.868225 
L 891.467063 244.55098 
L 891.930241 248.748565 
L 892.393419 249.010744 
L 892.856597 257.738129 
L 893.319776 259.525482 
L 893.782954 263.138472 
L 894.246132 268.11334 
L 894.70931 270.622456 
L 895.172488 266.237263 
L 895.635666 267.159154 
L 896.098845 266.503615 
L 896.562023 270.038223 
L 897.025201 269.686413 
L 897.488379 268.68469 
L 898.414735 260.449911 
L 898.877914 253.360555 
L 899.341092 252.838919 
L 899.80427 252.826762 
L 901.193804 235.069534 
L 902.120161 240.260859 
L 903.046517 216.810264 
L 903.972873 214.065458 
L 904.436052 214.370094 
L 904.89923 213.410827 
L 905.362408 214.074711 
L 905.825586 216.743857 
L 906.288764 217.541643 
L 906.751942 219.557608 
L 907.215121 223.098748 
L 907.678299 221.708383 
L 908.141477 216.905155 
L 909.067833 212.321649 
L 909.531011 214.177586 
L 909.99419 214.168696 
L 910.457368 213.803822 
L 910.920546 212.576752 
L 911.383724 214.315116 
L 911.846902 214.86796 
L 912.31008 219.251701 
L 912.773259 224.785039 
L 913.699615 216.403294 
L 914.162793 220.581284 
L 914.625971 217.946612 
L 915.552328 214.515968 
L 916.015506 209.154272 
L 916.478684 209.873676 
L 916.941862 208.695594 
L 917.40504 206.087049 
L 917.868218 204.693418 
L 918.331397 195.458368 
L 918.794575 194.505633 
L 919.257753 195.123794 
L 919.720931 199.661033 
L 920.184109 199.926478 
L 920.647287 203.866057 
L 921.573644 218.855074 
L 922.036822 223.735232 
L 922.5 225.718538 
L 922.963178 226.751469 
L 923.426356 230.994777 
L 923.889534 227.667735 
L 924.352713 225.647051 
L 924.815891 231.000764 
L 925.279069 233.506614 
L 925.742247 229.176942 
L 926.205425 223.34169 
L 926.668603 220.432683 
L 927.59496 211.9301 
L 928.521316 192.431241 
L 928.984494 189.27076 
L 929.447672 188.33762 
L 929.910851 182.574218 
L 930.374029 183.107467 
L 930.837207 181.63872 
L 931.763563 191.653775 
L 934.079454 233.249513 
L 934.542632 236.222387 
L 935.00581 236.755635 
L 935.932167 244.259216 
L 936.395345 240.612116 
L 936.858523 242.229642 
L 937.321701 238.278813 
L 937.784879 239.252958 
L 938.248058 243.705283 
L 939.174414 227.328622 
L 939.637592 227.091118 
L 940.10077 219.714363 
L 940.563948 217.922293 
L 941.027127 212.1197 
L 941.490305 203.289621 
L 941.953483 199.54781 
L 942.879839 207.717633 
L 943.806196 207.827222 
L 944.269374 211.453275 
L 944.732552 212.907506 
L 945.19573 218.346133 
L 945.658908 218.696491 
L 946.122086 221.16315 
L 946.585265 227.166777 
L 947.048443 230.9202 
L 947.974799 220.320911 
L 948.437977 218.548436 
L 948.901155 214.689052 
L 949.364334 208.837471 
L 949.827512 208.031702 
L 950.29069 208.075066 
L 950.753868 206.609585 
L 951.217046 216.940525 
L 951.680224 217.18964 
L 952.143403 213.692771 
L 952.606581 213.778592 
L 953.532937 206.51705 
L 953.996115 207.190732 
L 954.459293 202.410366 
L 954.922472 200.112081 
L 955.38565 200.31874 
L 955.848828 195.701668 
L 956.312006 203.243532 
L 956.775184 199.923021 
L 957.238362 198.787396 
L 958.164719 189.305044 
L 958.627897 184.998233 
L 959.091075 189.055384 
L 959.554253 182.472243 
L 960.017431 186.744943 
L 960.48061 186.801371 
L 960.943788 188.216411 
L 961.870144 194.394037 
L 962.333322 197.778414 
L 962.7965 202.080508 
L 963.259679 203.364913 
L 963.722857 204.00267 
L 964.186035 208.549706 
L 965.112391 226.814418 
L 965.575569 224.894977 
L 966.038748 220.806981 
L 966.501926 220.28861 
L 966.965104 215.691134 
L 967.428282 206.44302 
L 967.89146 199.85008 
L 968.354638 197.091304 
L 968.817817 196.171228 
L 969.280995 189.96693 
L 969.744173 185.470697 
L 970.207351 188.192096 
L 970.670529 192.827312 
L 971.133707 195.787122 
L 971.596886 195.536555 
L 972.060064 201.922291 
L 972.98642 222.626628 
L 973.449598 231.08621 
L 973.912776 242.416515 
L 974.375955 244.037307 
L 974.839133 241.588791 
L 975.302311 236.289147 
L 976.228667 229.749368 
L 976.691845 228.826026 
L 977.155024 221.632162 
L 977.618202 223.687318 
L 978.544558 220.237079 
L 979.470914 206.607038 
L 979.934093 196.875571 
L 980.397271 190.351215 
L 980.860449 179.568129 
L 981.323627 172.462443 
L 981.786805 169.563233 
L 982.249983 176.683797 
L 982.713162 180.051844 
L 983.17634 189.7492 
L 983.639518 190.955223 
L 984.102696 197.275642 
L 984.565874 201.982707 
L 985.029052 202.689048 
L 985.492231 194.149634 
L 986.418587 186.587629 
L 987.344943 179.505712 
L 987.808121 175.607138 
L 988.2713 174.811166 
L 988.734478 167.408284 
L 989.197656 165.113265 
L 989.660834 162.135674 
L 990.124012 166.039328 
L 990.58719 163.447113 
L 991.050369 167.115623 
L 991.513547 161.554706 
L 991.976725 165.027262 
L 992.439903 166.572939 
L 992.903081 163.549625 
L 993.829438 159.397218 
L 994.292616 155.289626 
L 994.755794 156.685071 
L 995.218972 162.378437 
L 995.68215 164.528305 
L 996.608507 170.421798 
L 997.071685 176.134759 
L 997.998041 192.17213 
L 998.461219 194.093384 
L 998.924397 194.08776 
L 999.387576 197.632165 
L 999.850754 204.922555 
L 1000.313932 201.357102 
L 1000.77711 196.19136 
L 1001.703466 181.379064 
L 1002.166645 178.829305 
L 1002.629823 169.986162 
L 1003.093001 156.423797 
L 1003.556179 153.553981 
L 1004.019357 148.257602 
L 1004.482535 146.191196 
L 1004.945714 154.915315 
L 1005.408892 154.775789 
L 1006.335248 160.639889 
L 1006.798426 164.344323 
L 1007.261604 173.904512 
L 1007.724783 179.000219 
L 1008.651139 177.411541 
L 1009.114317 173.026348 
L 1009.577495 171.322457 
L 1010.040673 171.25478 
L 1010.503852 164.635713 
L 1011.430208 155.421165 
L 1011.893386 155.128141 
L 1012.356564 163.019456 
L 1012.819742 163.650682 
L 1013.282921 161.260952 
L 1014.209277 170.129677 
L 1015.135633 176.97028 
L 1015.598811 175.243528 
L 1016.06199 177.648135 
L 1016.525168 181.336241 
L 1016.988346 179.10654 
L 1017.451524 181.752824 
L 1017.914702 190.695758 
L 1018.37788 188.635883 
L 1019.304237 193.092382 
L 1019.767415 194.491093 
L 1020.230593 201.438563 
L 1020.693771 202.886263 
L 1021.156949 194.836733 
L 1021.620127 201.630707 
L 1022.083306 203.156788 
L 1022.546484 208.92527 
L 1023.009662 206.045655 
L 1023.47284 200.115693 
L 1023.936018 197.95131 
L 1024.399196 203.517306 
L 1024.862375 205.174023 
L 1025.325553 196.961198 
L 1025.788731 184.492909 
L 1026.251909 188.706824 
L 1026.715087 190.28516 
L 1027.178265 191.210316 
L 1028.104622 182.779583 
L 1028.5678 184.544074 
L 1029.030978 194.685593 
L 1029.957334 193.583534 
L 1030.883691 196.445367 
L 1031.810047 207.796174 
L 1032.273225 211.281794 
L 1032.736403 212.167759 
L 1033.199582 214.095546 
L 1033.66276 214.550412 
L 1034.125938 211.438919 
L 1034.589116 211.292861 
L 1035.052294 209.582438 
L 1035.515472 210.742738 
L 1035.978651 214.055265 
L 1036.441829 214.323976 
L 1036.905007 224.583067 
L 1037.368185 226.723137 
L 1037.831363 223.915372 
L 1038.294541 226.17628 
L 1038.75772 234.381121 
L 1039.684076 225.587874 
L 1040.147254 214.785192 
L 1040.610432 211.369971 
L 1041.07361 204.071597 
L 1041.536789 201.103804 
L 1041.999967 195.340402 
L 1042.463145 192.228909 
L 1042.926323 198.28479 
L 1043.389501 200.065611 
L 1043.852679 202.545334 
L 1044.315858 208.281157 
L 1044.779036 200.094459 
L 1045.242214 199.491175 
L 1045.705392 213.212117 
L 1046.16857 209.127387 
L 1046.631748 208.609016 
L 1047.094927 215.84062 
L 1047.558105 215.119764 
L 1048.021283 225.872005 
L 1048.484461 229.076757 
L 1048.947639 218.287139 
L 1049.410817 218.389289 
L 1049.873996 220.506498 
L 1050.337174 213.04483 
L 1050.800352 218.516115 
L 1051.26353 221.012167 
L 1051.726708 216.486541 
L 1052.653065 239.784001 
L 1053.116243 247.91046 
L 1053.579421 250.880068 
L 1054.042599 247.053343 
L 1054.505777 250.032749 
L 1054.968955 254.935768 
L 1055.432134 244.652364 
L 1055.895312 229.185981 
L 1056.35849 217.488444 
L 1056.821668 213.851142 
L 1057.284846 208.940139 
L 1057.748024 197.980695 
L 1058.211203 196.992035 
L 1058.674381 191.849154 
L 1059.137559 202.673245 
L 1059.600737 209.372507 
L 1060.063915 210.304195 
L 1060.527093 217.672966 
L 1060.990272 216.125838 
L 1061.45345 211.116859 
L 1061.916628 217.159676 
L 1063.306162 217.649016 
L 1063.769341 215.416049 
L 1064.232519 225.181989 
L 1064.695697 228.857031 
L 1065.158875 228.60973 
L 1066.085231 216.165209 
L 1067.011588 217.995926 
L 1067.474766 212.376224 
L 1067.937944 219.483723 
L 1068.401122 220.170469 
L 1068.8643 223.950019 
L 1069.327479 225.077661 
L 1070.253835 224.178087 
L 1071.180191 212.020966 
L 1071.643369 208.406524 
L 1072.106548 208.12983 
L 1072.569726 214.776838 
L 1073.032904 217.299018 
L 1073.496082 216.839434 
L 1073.95926 219.391007 
L 1074.422438 216.481999 
L 1074.885617 218.187705 
L 1075.348795 213.766587 
L 1075.811973 203.767316 
L 1076.275151 200.159407 
L 1077.201507 207.656455 
L 1078.127864 207.478645 
L 1078.591042 214.964989 
L 1079.05422 215.403526 
L 1079.517398 215.401167 
L 1079.980576 211.404616 
L 1080.906933 220.100249 
L 1081.370111 222.305637 
L 1081.833289 221.085098 
L 1082.296467 222.193144 
L 1082.759645 218.033298 
L 1083.222824 217.083829 
L 1083.686002 205.797795 
L 1084.612358 194.933969 
L 1085.075536 193.168025 
L 1085.538714 200.935236 
L 1086.001893 205.988487 
L 1086.465071 206.169018 
L 1086.928249 202.642756 
L 1087.391427 202.173374 
L 1087.854605 204.822924 
L 1088.317783 202.828368 
L 1089.24414 190.779021 
L 1089.707318 188.199869 
L 1090.633674 196.931426 
L 1091.096852 199.14008 
L 1091.560031 192.102978 
L 1092.023209 193.106516 
L 1092.949565 196.788997 
L 1093.412743 192.802243 
L 1093.875921 191.261646 
L 1094.3391 185.690933 
L 1094.802278 189.147159 
L 1095.265456 182.541156 
L 1095.728634 184.217468 
L 1096.191812 183.023057 
L 1096.65499 186.005728 
L 1097.118169 181.747905 
L 1097.581347 181.853321 
L 1098.044525 181.181453 
L 1098.507703 182.65528 
L 1098.970881 175.781473 
L 1099.434059 172.474026 
L 1099.897238 172.507592 
L 1100.360416 168.481648 
L 1100.823594 167.202323 
L 1101.286772 169.211757 
L 1101.74995 174.82021 
L 1102.213128 175.957649 
L 1102.676307 175.867111 
L 1103.139485 176.119493 
L 1103.602663 176.773579 
L 1104.065841 176.258474 
L 1104.529019 174.192069 
L 1104.992197 168.644216 
L 1105.455376 168.168302 
L 1105.918554 168.02551 
L 1106.381732 165.18182 
L 1106.84491 166.296398 
L 1107.308088 161.888344 
L 1107.771266 161.863124 
L 1108.234445 164.012991 
L 1108.697623 168.896415 
L 1109.160801 167.414605 
L 1109.623979 168.93742 
L 1110.550335 177.02233 
L 1111.476692 179.845879 
L 1111.93987 179.098896 
L 1112.403048 183.436915 
L 1112.866226 185.100164 
L 1113.329404 180.861936 
L 1113.792583 182.391283 
L 1114.255761 179.995021 
L 1114.718939 179.852229 
L 1115.182117 181.81594 
L 1115.645295 181.565373 
L 1116.108473 180.903303 
L 1116.571652 181.776205 
L 1117.03483 178.416504 
L 1117.498008 176.588508 
L 1117.961186 173.957102 
L 1118.424364 169.317169 
L 1118.887542 168.465677 
L 1119.35072 165.491351 
L 1119.813899 168.568734 
L 1120.277077 167.122848 
L 1120.740255 168.675057 
L 1121.203433 166.954836 
L 1121.666611 166.024962 
L 1122.129789 168.79535 
L 1122.592968 172.303831 
L 1123.056146 172.533351 
L 1123.982502 179.556844 
L 1124.44568 175.945669 
L 1124.908858 174.245044 
L 1125.835215 159.481736 
L 1126.298393 154.68504 
L 1127.224749 141.299941 
L 1128.151106 136.376782 
L 1128.614284 133.291416 
L 1129.077462 139.585707 
L 1129.54064 142.163407 
L 1130.003818 147.017438 
L 1130.466996 153.981238 
L 1130.930175 166.457873 
L 1131.856531 182.72059 
L 1132.319709 186.353175 
L 1132.782887 191.893044 
L 1133.246065 201.443435 
L 1133.709244 204.543678 
L 1134.172422 202.353168 
L 1134.6356 201.847861 
L 1135.098778 198.899663 
L 1135.561956 195.059875 
L 1136.025134 193.107775 
L 1136.488313 182.977869 
L 1136.951491 177.792531 
L 1137.414669 174.455691 
L 1137.877847 176.955009 
L 1138.341025 170.842157 
L 1138.804203 173.387198 
L 1139.267382 171.533075 
L 1139.73056 174.679041 
L 1140.193738 175.956914 
L 1140.656916 176.26155 
L 1141.120094 174.420491 
L 1141.583272 175.508942 
L 1142.046451 169.94476 
L 1142.972807 168.34955 
L 1143.435985 163.618172 
L 1143.899163 160.803876 
L 1144.362341 156.552584 
L 1144.82552 164.136905 
L 1145.288698 169.271803 
L 1145.751876 168.998374 
L 1146.215054 167.39246 
L 1146.678232 166.260101 
L 1147.14141 168.628783 
L 1147.604589 166.497059 
L 1148.067767 165.018515 
L 1148.994123 155.872551 
L 1149.457301 151.768225 
L 1149.920479 152.007542 
L 1150.383658 148.713159 
L 1150.846836 151.428027 
L 1151.310014 145.184538 
L 1151.773192 144.822931 
L 1152.23637 146.571093 
L 1152.699548 145.762057 
L 1153.625905 149.513122 
L 1154.089083 153.906661 
L 1154.552261 161.899219 
L 1155.015439 167.517469 
L 1155.478617 165.679676 
L 1155.941796 162.528992 
L 1156.868152 169.098526 
L 1157.794508 169.146063 
L 1158.257686 160.711157 
L 1158.720865 164.017152 
L 1159.184043 170.15468 
L 1159.647221 165.400441 
L 1160.110399 162.057069 
L 1161.036755 150.556393 
L 1161.499934 156.367331 
L 1161.963112 153.713064 
L 1162.42629 153.540878 
L 1162.889468 158.718233 
L 1163.352646 159.058793 
L 1163.815824 164.716234 
L 1164.279003 168.038559 
L 1164.742181 167.889235 
L 1165.205359 172.351358 
L 1165.668537 170.667062 
L 1166.131715 171.386466 
L 1166.594893 174.196045 
L 1167.058072 171.499321 
L 1167.52125 173.805951 
L 1167.984428 173.437812 
L 1168.910784 181.895034 
L 1169.373962 181.360334 
L 1170.300319 173.510931 
L 1170.763497 166.052529 
L 1171.226675 163.019417 
L 1171.689853 157.412779 
L 1172.153031 154.781372 
L 1172.61621 155.660806 
L 1173.079388 160.211108 
L 1173.542566 159.862564 
L 1174.005744 165.807404 
L 1174.468922 164.152501 
L 1174.9321 158.193146 
L 1175.395279 163.893044 
L 1176.321635 153.764044 
L 1176.784813 161.315706 
L 1177.247991 160.709156 
L 1177.711169 165.092898 
L 1178.174348 171.031206 
L 1178.637526 167.315522 
L 1179.100704 171.04935 
L 1179.563882 170.508118 
L 1180.02706 160.639483 
L 1180.490238 157.678221 
L 1180.953417 156.438087 
L 1181.416595 155.651913 
L 1181.879773 151.038107 
L 1182.342951 148.272799 
L 1182.806129 147.907926 
L 1183.269307 149.616897 
L 1184.195664 158.325594 
L 1184.658842 158.607368 
L 1185.12202 160.900935 
L 1185.585198 160.376033 
L 1186.511555 163.888687 
L 1186.974733 161.031933 
L 1187.437911 154.765584 
L 1187.901089 152.444438 
L 1188.364267 158.630954 
L 1188.827445 161.999001 
L 1189.290624 166.915084 
L 1190.21698 180.127453 
L 1190.680158 180.458216 
L 1191.143336 181.24947 
L 1191.606514 174.548756 
L 1192.069693 172.041454 
L 1192.532871 164.899843 
L 1192.996049 154.730746 
L 1193.459227 150.139801 
L 1193.922405 149.268714 
L 1194.385583 147.189244 
L 1194.848762 149.819199 
L 1195.31194 145.492792 
L 1195.775118 145.820289 
L 1196.238296 147.940763 
L 1196.701474 150.593579 
L 1197.164652 149.487347 
L 1197.627831 147.796519 
L 1198.091009 144.04491 
L 1198.554187 147.827726 
L 1199.480543 158.897666 
L 1199.943721 155.417127 
L 1200.4069 157.648642 
L 1200.870078 159.233509 
L 1201.333256 164.077742 
L 1201.796434 163.582233 
L 1202.259612 152.554204 
L 1202.72279 146.598115 
L 1203.185969 145.593126 
L 1203.649147 145.69201 
L 1204.112325 154.275695 
L 1204.575503 151.543046 
L 1205.038681 149.626871 
L 1205.501859 158.36732 
L 1205.965038 157.110856 
L 1206.428216 151.768755 
L 1206.891394 155.45686 
L 1207.354572 152.420483 
L 1207.81775 157.072028 
L 1208.280928 155.230969 
L 1208.744107 152.357886 
L 1209.207285 160.268797 
L 1209.670463 162.630947 
L 1210.133641 162.716768 
L 1210.596819 157.067673 
L 1211.059997 148.498865 
L 1211.523176 148.405061 
L 1211.986354 145.910823 
L 1212.449532 139.334212 
L 1212.91271 145.083099 
L 1213.375888 138.882067 
L 1213.839066 148.961533 
L 1214.302245 152.58432 
L 1214.765423 154.933408 
L 1215.228601 168.370216 
L 1215.691779 171.1602 
L 1216.154957 167.852753 
L 1216.618135 174.22216 
L 1217.081314 160.747974 
L 1217.544492 162.153217 
L 1218.00767 167.882508 
L 1218.470848 158.807487 
L 1218.934026 157.469376 
L 1219.397204 159.263261 
L 1219.860382 159.398069 
L 1220.323561 165.741349 
L 1220.786739 165.017227 
L 1221.249917 164.734001 
L 1221.713095 166.759764 
L 1222.639451 178.182422 
L 1223.10263 188.683189 
L 1223.565808 186.806205 
L 1224.028986 183.279943 
L 1224.492164 183.59111 
L 1224.955342 184.604445 
L 1225.41852 182.077548 
L 1225.881699 181.875969 
L 1226.344877 169.430542 
L 1226.808055 168.928501 
L 1227.271233 176.894931 
L 1227.734411 177.869076 
L 1228.197589 186.096778 
L 1228.660768 184.445141 
L 1229.587124 170.132527 
L 1230.050302 176.064304 
L 1230.976658 164.824899 
L 1231.439837 154.061409 
L 1231.903015 150.002806 
L 1232.366193 151.257817 
L 1232.829371 161.438526 
L 1233.292549 165.972499 
L 1233.755727 169.271962 
L 1234.218906 175.112294 
L 1234.682084 176.396699 
L 1235.145262 182.730181 
L 1235.60844 181.823168 
L 1236.071618 179.557543 
L 1236.534796 167.197028 
L 1236.997975 162.122731 
L 1237.461153 160.183695 
L 1237.924331 159.681654 
L 1238.387509 158.232502 
L 1238.850687 160.940838 
L 1240.240222 175.826254 
L 1240.7034 181.437973 
L 1241.166578 178.143589 
L 1241.629756 176.554004 
L 1242.092934 177.22442 
L 1242.556113 169.553735 
L 1243.482469 164.646905 
L 1243.945647 156.914167 
L 1244.408825 161.216261 
L 1244.872003 167.873067 
L 1245.335182 166.071199 
L 1245.79836 169.158379 
L 1246.261538 174.071195 
L 1246.724716 176.250456 
L 1247.187894 179.866711 
L 1247.651072 193.189214 
L 1248.114251 189.065293 
L 1248.577429 192.302704 
L 1249.040607 189.459014 
L 1249.503785 188.127435 
L 1249.966963 192.370743 
L 1250.430141 187.224596 
L 1250.89332 169.903183 
L 1251.356498 166.644725 
L 1251.819676 160.731092 
L 1252.282854 161.953445 
L 1252.746032 159.070564 
L 1253.20921 151.125543 
L 1253.672389 152.409948 
L 1254.135567 154.768833 
L 1254.598745 156.334105 
L 1255.061923 156.449318 
L 1255.525101 151.995541 
L 1255.988279 150.337373 
L 1256.451458 149.871256 
L 1256.914636 146.423376 
L 1257.377814 140.966969 
L 1258.30417 133.35271 
L 1258.767348 137.109399 
L 1259.230527 136.61389 
L 1259.693705 139.498584 
L 1260.156883 143.160562 
L 1260.620061 149.18705 
L 1261.083239 152.734722 
L 1261.546417 154.247739 
L 1262.009596 154.549109 
L 1262.472774 158.864266 
L 1262.935952 156.980751 
L 1263.39913 157.370299 
L 1263.862308 153.896292 
L 1264.325486 147.254364 
L 1264.788665 148.852294 
L 1265.251843 140.554556 
L 1265.715021 135.930953 
L 1266.178199 139.341457 
L 1266.641377 137.255455 
L 1267.104555 138.73908 
L 1267.567734 143.152214 
L 1268.030912 140.331386 
L 1268.49409 148.735447 
L 1268.957268 147.883955 
L 1269.420446 143.528155 
L 1270.346803 136.478897 
L 1270.809981 145.751686 
L 1271.273159 159.181963 
L 1271.736337 159.091425 
L 1272.662693 166.301075 
L 1273.58905 179.875958 
L 1274.515406 152.832877 
L 1274.978584 149.865083 
L 1275.441762 140.600639 
L 1276.831297 121.007977 
L 1277.757653 126.783897 
L 1278.220831 122.868993 
L 1278.68401 124.515913 
L 1279.147188 130.728557 
L 1279.610366 129.11611 
L 1280.073544 128.516092 
L 1280.536722 135.084719 
L 1280.9999 135.849846 
L 1281.463079 138.117286 
L 1281.926257 139.427818 
L 1282.389435 136.358781 
L 1282.852613 142.832697 
L 1283.315791 144.538402 
L 1283.778969 136.62604 
L 1284.242148 135.741889 
L 1284.705326 135.879964 
L 1285.168504 135.831882 
L 1285.631682 132.30562 
L 1286.558038 117.333295 
L 1287.021217 117.713046 
L 1287.947573 107.045174 
L 1288.410751 107.421659 
L 1288.873929 108.07248 
L 1289.337107 110.588128 
L 1289.800286 110.987475 
L 1290.263464 111.592573 
L 1290.726642 113.419116 
L 1291.18982 116.003348 
L 1291.652998 114.240671 
L 1292.579355 104.229244 
L 1293.042533 102.032202 
L 1293.505711 95.357615 
L 1293.968889 100.740721 
L 1294.432067 99.13154 
L 1294.895245 98.495597 
L 1295.358424 103.937489 
L 1295.821602 111.528342 
L 1296.28478 114.716765 
L 1296.747958 116.069753 
L 1297.211136 115.851845 
L 1297.674314 124.26897 
L 1298.137493 127.04589 
L 1298.600671 131.178157 
L 1299.063849 129.438341 
L 1299.527027 128.66523 
L 1299.990205 131.174346 
L 1300.916562 125.003615 
L 1301.842918 127.043349 
L 1302.306096 130.528968 
L 1302.769274 142.450401 
L 1303.695631 149.437969 
L 1305.085165 143.829879 
L 1305.548343 139.25853 
L 1306.011521 132.61007 
L 1306.4747 130.651438 
L 1306.937878 131.550467 
L 1307.401056 133.331288 
L 1307.864234 133.502022 
L 1308.327412 132.516628 
L 1308.79059 134.761207 
L 1309.253769 133.707229 
L 1309.716947 132.966777 
L 1310.180125 128.026382 
L 1310.643303 125.4309 
L 1311.106481 125.487328 
L 1312.496016 134.014041 
L 1312.959194 136.039804 
L 1313.88555 144.947721 
L 1314.348728 146.176605 
L 1315.738263 123.788334 
L 1316.201441 119.36395 
L 1316.664619 121.288471 
L 1317.127797 119.209001 
L 1317.590975 120.473811 
L 1318.054154 122.741251 
L 1318.517332 126.75268 
L 1319.443688 136.73181 
L 1319.906866 129.799217 
L 1320.370044 127.948361 
L 1321.296401 136.95752 
L 1321.759579 147.08924 
L 1322.222757 148.030726 
L 1322.685935 143.851284 
L 1323.149113 146.030545 
L 1323.612292 146.71729 
L 1324.07547 145.947446 
L 1324.538648 148.009134 
L 1325.001826 140.972032 
L 1325.465004 142.380541 
L 1326.391361 154.763372 
L 1326.854539 158.657229 
L 1327.780895 145.468084 
L 1328.244073 143.267776 
L 1329.17043 125.228773 
L 1329.633608 119.690718 
L 1330.096786 117.297723 
L 1330.559964 119.434527 
L 1331.023142 119.866532 
L 1331.48632 122.83614 
L 1331.949499 135.776532 
L 1332.412677 145.228946 
L 1332.875855 147.120808 
L 1334.265389 162.861888 
L 1334.728568 162.755021 
L 1335.654924 150.784055 
L 1336.118102 149.690887 
L 1336.58128 150.485407 
L 1337.044458 148.611689 
L 1337.507637 147.975746 
L 1337.970815 145.67093 
L 1338.433993 146.641808 
L 1338.897171 148.494479 
L 1339.360349 151.428162 
L 1339.823527 149.734068 
L 1340.286706 148.533125 
L 1340.749884 145.846199 
L 1341.213062 147.006499 
L 1341.67624 145.269949 
L 1342.139418 143.095768 
L 1343.065775 128.521883 
L 1343.528953 126.164812 
L 1343.992131 126.400864 
L 1344.918487 131.164356 
L 1345.381665 133.722461 
L 1346.308022 145.657864 
L 1346.7712 149.316576 
L 1347.234378 149.003957 
L 1347.697556 146.232117 
L 1348.160734 146.641261 
L 1348.623913 141.158727 
L 1349.087091 137.194835 
L 1349.550269 135.363573 
L 1350.013447 137.216244 
L 1350.476625 137.230215 
L 1350.939803 136.71511 
L 1351.402982 135.945265 
L 1351.86616 133.473888 
L 1352.329338 133.670749 
L 1352.792516 131.202638 
L 1353.255694 126.317762 
L 1353.718872 125.35523 
L 1354.182051 122.798939 
L 1354.645229 122.133603 
L 1355.108407 125.286101 
L 1356.497941 121.386075 
L 1356.96112 124.006232 
L 1357.424298 129.425263 
L 1357.887476 129.840939 
L 1358.350654 135.18812 
L 1358.813832 143.833857 
L 1359.27701 145.719187 
L 1359.740189 149.626107 
L 1360.203367 144.195827 
L 1360.666545 136.472887 
L 1361.592901 130.713658 
L 1362.056079 126.214159 
L 1362.519258 128.445674 
L 1362.982436 127.159817 
L 1363.445614 128.401765 
L 1363.908792 135.633369 
L 1364.37197 138.694422 
L 1364.835148 145.690881 
L 1365.298327 147.697049 
L 1365.761505 147.564055 
L 1366.687861 150.567228 
L 1367.151039 155.989525 
L 1367.614217 153.008668 
L 1368.077396 143.218415 
L 1368.540574 142.824148 
L 1369.003752 140.663031 
L 1369.46693 144.119258 
L 1369.930108 150.158809 
L 1370.393286 141.49529 
L 1370.856465 140.620937 
L 1371.319643 142.437683 
L 1371.782821 141.805006 
L 1372.245999 142.191289 
L 1372.709177 141.029537 
L 1373.172355 132.480324 
L 1373.635534 136.432967 
L 1374.098712 135.810088 
L 1374.56189 136.676458 
L 1375.488246 130.593905 
L 1375.951424 130.03961 
L 1376.414603 137.783959 
L 1376.877781 136.997785 
L 1377.804137 153.123335 
L 1378.267315 160.668465 
L 1378.730493 163.510702 
L 1379.193672 163.844731 
L 1379.65685 162.232285 
L 1380.120028 158.196543 
L 1380.583206 148.948428 
L 1381.046384 144.896357 
L 1381.509562 133.241276 
L 1381.972741 138.026723 
L 1382.435919 133.220229 
L 1382.899097 134.925935 
L 1383.362275 138.196005 
L 1383.825453 143.520325 
L 1384.288631 138.664843 
L 1384.75181 147.454279 
L 1385.678166 155.911502 
L 1386.141344 147.153272 
L 1386.604522 140.926113 
L 1387.0677 142.315026 
L 1387.530879 146.826138 
L 1387.994057 144.162073 
L 1388.457235 129.296615 
L 1388.920413 126.351683 
L 1389.383591 132.962766 
L 1389.846769 136.899079 
L 1390.309948 135.841836 
L 1390.773126 133.883204 
L 1391.236304 135.722812 
L 1391.699482 142.363288 
L 1392.16266 145.375352 
L 1392.625838 146.979815 
L 1393.089017 152.124511 
L 1394.015373 153.458811 
L 1394.478551 149.841104 
L 1394.941729 150.070624 
L 1395.404907 145.384968 
L 1395.868086 142.740498 
L 1396.331264 142.780596 
L 1396.794442 141.863786 
L 1397.25762 142.148826 
L 1397.720798 144.079878 
L 1398.647155 135.59036 
L 1399.110333 135.578203 
L 1399.573511 132.989254 
L 1400.036689 128.104378 
L 1400.499867 127.230025 
L 1400.963045 125.901712 
L 1401.426224 126.242272 
L 1401.889402 133.594714 
L 1402.35258 132.726892 
L 1402.815758 132.270574 
L 1403.278936 135.674546 
L 1403.742114 134.989615 
L 1404.205293 136.078066 
L 1404.668471 138.319378 
L 1405.131649 132.889098 
L 1406.058005 134.54019 
L 1406.521183 130.543639 
L 1406.984362 130.750298 
L 1407.44754 125.522503 
L 1407.910718 123.508352 
L 1408.373896 125.305502 
L 1409.300252 110.551992 
L 1409.763431 114.246629 
L 1410.226609 112.353316 
L 1410.689787 114.80038 
L 1411.152965 115.90516 
L 1411.616143 119.354855 
L 1412.5425 132.319016 
L 1413.005678 131.954142 
L 1413.468856 135.36138 
L 1413.932034 143.135123 
L 1414.395212 146.643604 
L 1414.85839 151.948328 
L 1415.321568 155.897705 
L 1415.784747 162.583904 
L 1416.247925 163.802991 
L 1416.711103 167.282079 
L 1417.637459 162.662648 
L 1419.490172 130.8695 
L 1419.95335 125.344509 
L 1420.416528 122.304865 
L 1420.879706 113.732792 
L 1421.342885 107.577482 
L 1421.806063 103.731162 
L 1422.732419 98.785142 
L 1423.195597 92.930295 
L 1423.658775 84.008771 
L 1424.121954 88.702772 
L 1424.585132 89.386252 
L 1425.511488 101.23021 
L 1426.437844 100.676822 
L 1426.901023 105.628829 
L 1427.827379 108.72998 
L 1428.753735 101.497831 
L 1429.216913 106.410648 
L 1429.680092 108.93936 
L 1430.14327 113.179401 
L 1430.606448 111.197909 
L 1431.532804 123.740769 
L 1431.995982 123.526127 
L 1432.459161 129.601603 
L 1432.922339 137.581097 
L 1433.385517 126.618387 
L 1433.848695 127.38678 
L 1434.311873 122.328812 
L 1434.775051 113.871045 
L 1435.23823 118.032705 
L 1435.701408 108.294706 
L 1436.164586 95.385521 
L 1436.627764 107.65967 
L 1437.090942 101.021008 
L 1438.017299 96.656318 
L 1438.480477 91.310951 
L 1438.943655 93.21261 
L 1439.406833 97.122796 
L 1439.870011 84.961502 
L 1440.333189 86.539837 
L 1440.796368 89.303693 
L 1441.259546 93.331452 
L 1441.722724 93.11681 
L 1442.185902 94.848642 
L 1442.64908 99.415274 
L 1443.112258 106.101473 
L 1443.575437 108.878393 
L 1444.501793 100.669741 
L 1444.964971 99.501457 
L 1445.428149 97.709386 
L 1445.891327 92.615493 
L 1446.817684 87.45719 
L 1447.280862 91.337983 
L 1447.74404 91.998601 
L 1448.207218 93.609596 
L 1448.670396 94.417179 
L 1449.133575 96.880573 
L 1449.596753 101.169603 
L 1450.059931 103.032072 
L 1450.523109 101.546996 
L 1450.986287 105.613945 
L 1451.449465 106.101471 
L 1451.912644 102.594804 
L 1452.375822 101.586549 
L 1453.302178 100.582467 
L 1453.765356 100.433143 
L 1454.228534 96.296158 
L 1454.691713 96.927383 
L 1455.154891 101.928379 
L 1455.618069 103.150732 
L 1456.081247 99.206435 
L 1457.007603 109.054929 
L 1457.470782 115.953412 
L 1457.93396 117.440302 
L 1458.397138 115.942162 
L 1458.860316 115.133127 
L 1459.323494 121.270655 
L 1459.786672 118.596792 
L 1460.249851 111.850355 
L 1460.713029 101.452645 
L 1461.176207 96.603695 
L 1461.639385 88.926477 
L 1462.102563 87.898627 
L 1462.565741 82.654502 
L 1463.02892 84.830497 
L 1463.492098 94.086957 
L 1463.955276 106.475413 
L 1464.418454 112.106727 
L 1464.881632 124.263304 
L 1465.34481 128.522941 
L 1465.807989 138.01128 
L 1466.271167 138.077505 
L 1466.734345 136.61529 
L 1467.197523 134.088393 
L 1467.660701 133.971728 
L 1468.123879 133.175756 
L 1468.587058 131.070159 
L 1469.050236 126.24407 
L 1469.513414 127.868128 
L 1470.43977 120.998494 
L 1470.902948 118.647955 
L 1471.366127 114.122328 
L 1471.829305 111.108812 
L 1472.292483 106.948966 
L 1472.755661 104.092213 
L 1473.218839 109.573296 
L 1473.682017 108.21559 
L 1474.145196 105.460079 
L 1474.608374 106.068443 
L 1475.53473 98.708925 
L 1475.997908 91.717546 
L 1476.461086 77.717551 
L 1476.924265 75.719729 
L 1477.387443 76.008035 
L 1477.850621 68.056482 
L 1478.313799 66.120712 
L 1478.776977 64.932832 
L 1479.240155 65.73715 
L 1479.703334 72.27965 
L 1480.166512 69.226943 
L 1480.62969 69.874497 
L 1481.092868 75.750754 
L 1481.556046 77.998598 
L 1482.019224 81.480952 
L 1482.482403 83.643883 
L 1482.945581 77.887013 
L 1483.408759 80.850089 
L 1483.871937 78.927383 
L 1484.335115 76.077161 
L 1484.798293 74.850091 
L 1485.261472 74.034524 
L 1485.72465 81.942168 
L 1486.187828 84.983626 
L 1486.651006 85.072712 
L 1487.114184 81.761999 
L 1487.577362 80.146287 
L 1488.503719 85.500907 
L 1488.966897 76.256059 
L 1489.430075 75.936908 
L 1489.893253 75.376081 
L 1490.356431 80.223579 
L 1491.282788 84.735598 
L 1491.745966 79.400029 
L 1492.209144 78.463623 
L 1492.672322 83.43196 
L 1493.598679 89.580193 
L 1494.061857 94.558328 
L 1494.988213 123.499258 
L 1495.914569 156.026144 
L 1496.377748 168.434195 
L 1496.840926 197.655086 
L 1499.619995 227.415497 
L 1500.546351 263.666802 
L 1501.472707 289.013275 
L 1501.935886 297.271018 
L 1503.32542 269.44241 
L 1503.788598 263.251176 
L 1504.251776 267.95171 
L 1504.714955 268.707039 
L 1506.104489 284.030085 
L 1506.567667 282.773621 
L 1507.030845 288.45719 
L 1507.494024 286.527951 
L 1507.957202 282.982094 
L 1508.42038 280.585832 
L 1508.883558 279.691884 
L 1509.346736 281.417184 
L 1509.809914 288.85454 
L 1510.273093 287.287816 
L 1510.736271 280.479327 
L 1512.125805 274.415463 
L 1512.588983 274.249809 
L 1513.052161 272.506727 
L 1513.51534 278.320932 
L 1513.978518 274.487675 
L 1514.441696 275.494479 
L 1515.368052 291.048496 
L 1515.83123 290.141484 
L 1516.294409 284.972475 
L 1516.757587 274.646615 
L 1517.220765 280.513074 
L 1517.683943 279.641986 
L 1518.147121 273.790405 
L 1518.610299 271.603161 
L 1519.536656 278.803013 
L 1519.999834 285.175686 
L 1520.463012 279.493931 
L 1520.92619 279.991255 
L 1521.389368 281.987625 
L 1522.315725 273.628742 
L 1522.778903 266.382623 
L 1523.242081 265.113096 
L 1523.705259 265.460188 
L 1524.168437 264.353956 
L 1524.631616 259.736884 
L 1526.02115 275.56941 
L 1526.484328 278.685983 
L 1526.947506 275.087871 
L 1527.410685 274.216784 
L 1527.873863 274.554078 
L 1528.337041 275.129783 
L 1528.800219 268.814445 
L 1529.263397 267.629831 
L 1529.726575 258.786688 
L 1530.189754 261.49829 
L 1530.652932 261.254255 
L 1531.11611 258.038253 
L 1531.579288 250.958695 
L 1532.505644 258.971755 
L 1532.968823 259.446217 
L 1533.432001 252.993711 
L 1533.895179 250.79667 
L 1534.358357 253.841393 
L 1535.284713 262.027546 
L 1535.747892 258.723365 
L 1536.21107 265.497743 
L 1536.674248 276.860707 
L 1537.137426 274.552625 
L 1537.600604 280.432147 
L 1538.063782 288.565138 
L 1538.990139 283.103106 
L 1539.916495 262.862889 
L 1540.379673 265.149924 
L 1540.842851 261.875136 
L 1541.30603 259.887111 
L 1542.232386 269.324103 
L 1542.695564 277.558337 
L 1543.158742 280.260142 
L 1543.62192 282.132408 
L 1544.085099 285.438403 
L 1544.548277 285.700582 
L 1545.011455 287.491201 
L 1545.474633 291.251156 
L 1545.937811 293.884376 
L 1546.400989 298.591441 
L 1546.864168 296.845093 
L 1547.327346 285.640706 
L 1547.790524 280.641525 
L 1548.253702 277.556159 
L 1549.180058 268.736784 
L 1550.569593 286.110813 
L 1551.032771 294.247071 
L 1551.495949 297.412632 
L 1551.959127 307.397388 
L 1552.422306 307.8 
L 1552.885484 292.255236 
L 1553.348662 291.501721 
L 1553.81184 297.217948 
L 1554.738196 285.717272 
L 1555.201375 285.675722 
L 1555.664553 293.367817 
L 1556.590909 303.336373 
L 1556.590909 303.336373 
" clip-path="url(#pb429df1606)" style="fill: none; stroke: #9890f4; stroke-width: 2.5; stroke-linecap: square"/>
   </g>
   <g id="patch_3">
    <path d="M 225 320.4 
L 225 43.2 
" style="fill: none; stroke: #000000; stroke-width: 0.8; stroke-linejoin: miter; stroke-linecap: square"/>
   </g>
   <g id="patch_4">
    <path d="M 1620 320.4 
L 1620 43.2 
" style="fill: none; stroke: #000000; stroke-width: 0.8; stroke-linejoin: miter; stroke-linecap: square"/>
   </g>
   <g id="patch_5">
    <path d="M 225 320.4 
L 1620 320.4 
" style="fill: none; stroke: #000000; stroke-width: 0.8; stroke-linejoin: miter; stroke-linecap: square"/>
   </g>
   <g id="patch_6">
    <path d="M 225 43.2 
L 1620 43.2 
" style="fill: none; stroke: #000000; stroke-width: 0.8; stroke-linejoin: miter; stroke-linecap: square"/>
   </g>
   <g id="text_17">
    <!-- VEN1 -->
    <g transform="translate(895.496875 37.2) scale(0.2 -0.2)">
     <defs>
      <path id="DejaVuSans-56" d="M 1831 0 
L 50 4666 
L 709 4666 
L 2188 738 
L 3669 4666 
L 4325 4666 
L 2547 0 
L 1831 0 
z
" transform="scale(0.015625)"/>
      <path id="DejaVuSans-45" d="M 628 4666 
L 3578 4666 
L 3578 4134 
L 1259 4134 
L 1259 2753 
L 3481 2753 
L 3481 2222 
L 1259 2222 
L 1259 531 
L 3634 531 
L 3634 0 
L 628 0 
L 628 4666 
z
" transform="scale(0.015625)"/>
     </defs>
     <use xlink:href="#DejaVuSans-56"/>
     <use xlink:href="#DejaVuSans-45" x="68.408203"/>
     <use xlink:href="#DejaVuSans-4e" x="131.591797"/>
     <use xlink:href="#DejaVuSans-31" x="206.396484"/>
    </g>
   </g>
   <g id="legend_1">
    <g id="patch_7">
     <path d="M 1556.228125 65.878125 
L 1613 65.878125 
Q 1615 65.878125 1615 63.878125 
L 1615 50.2 
Q 1615 48.2 1613 48.2 
L 1556.228125 48.2 
Q 1554.228125 48.2 1554.228125 50.2 
L 1554.228125 63.878125 
Q 1554.228125 65.878125 1556.228125 65.878125 
z
" style="fill: #ffffff; opacity: 0.8; stroke: #cccccc; stroke-linejoin: miter"/>
    </g>
    <g id="line2d_16">
     <path d="M 1558.228125 56.298437 
L 1568.228125 56.298437 
L 1578.228125 56.298437 
" style="fill: none; stroke: #9890f4; stroke-width: 2.5; stroke-linecap: square"/>
    </g>
    <g id="text_18">
     <!-- ven1 -->
     <g transform="translate(1586.228125 59.798437) scale(0.1 -0.1)">
      <defs>
       <path id="DejaVuSans-76" d="M 191 3500 
L 800 3500 
L 1894 563 
L 2988 3500 
L 3597 3500 
L 2284 0 
L 1503 0 
L 191 3500 
z
" transform="scale(0.015625)"/>
       <path id="DejaVuSans-6e" d="M 3513 2113 
L 3513 0 
L 2938 0 
L 2938 2094 
Q 2938 2591 2744 2837 
Q 2550 3084 2163 3084 
Q 1697 3084 1428 2787 
Q 1159 2491 1159 1978 
L 1159 0 
L 581 0 
L 581 3500 
L 1159 3500 
L 1159 2956 
Q 1366 3272 1645 3428 
Q 1925 3584 2291 3584 
Q 2894 3584 3203 3211 
Q 3513 2838 3513 2113 
z
" transform="scale(0.015625)"/>
      </defs>
      <use xlink:href="#DejaVuSans-76"/>
      <use xlink:href="#DejaVuSans-65" x="59.179688"/>
      <use xlink:href="#DejaVuSans-6e" x="120.703125"/>
      <use xlink:href="#DejaVuSans-31" x="184.082031"/>
     </g>
    </g>
   </g>
  </g>
 </g>
 <defs>
  <clipPath id="pb429df1606">
   <rect x="225" y="43.2" width="1395" height="277.2"/>
  </clipPath>
 </defs>
</svg>
