<?xml version="1.0" encoding="utf-8" standalone="no"?>
<!DOCTYPE svg PUBLIC "-//W3C//DTD SVG 1.1//EN"
  "http://www.w3.org/Graphics/SVG/1.1/DTD/svg11.dtd">
<svg xmlns:xlink="http://www.w3.org/1999/xlink" width="1800pt" height="360pt" viewBox="0 0 1800 360" xmlns="http://www.w3.org/2000/svg" version="1.1">
 <metadata>
  <rdf:RDF xmlns:dc="http://purl.org/dc/elements/1.1/" xmlns:cc="http://creativecommons.org/ns#" xmlns:rdf="http://www.w3.org/1999/02/22-rdf-syntax-ns#">
   <cc:Work>
    <dc:type rdf:resource="http://purl.org/dc/dcmitype/StillImage"/>
    <dc:date>2024-03-25T15:23:17.436762</dc:date>
    <dc:format>image/svg+xml</dc:format>
    <dc:creator>
     <cc:Agent>
      <dc:title>Matplotlib v3.7.2, https://matplotlib.org/</dc:title>
     </cc:Agent>
    </dc:creator>
   </cc:Work>
  </rdf:RDF>
 </metadata>
 <defs>
  <style type="text/css">*{stroke-linejoin: round; stroke-linecap: butt}</style>
 </defs>
 <g id="figure_1">
  <g id="patch_1">
   <path d="M 0 360 
L 1800 360 
L 1800 0 
L 0 0 
z
" style="fill: #ffffff"/>
  </g>
  <g id="axes_1">
   <g id="patch_2">
    <path d="M 225 320.4 
L 1620 320.4 
L 1620 43.2 
L 225 43.2 
z
" style="fill: #ffffff"/>
   </g>
   <g id="matplotlib.axis_1">
    <g id="xtick_1">
     <g id="line2d_1">
      <defs>
       <path id="m6424629dcd" d="M 0 0 
L 0 3.5 
" style="stroke: #000000; stroke-width: 0.8"/>
      </defs>
      <g>
       <use xlink:href="#m6424629dcd" x="281.304431" y="320.4" style="stroke: #000000; stroke-width: 0.8"/>
      </g>
     </g>
     <g id="text_1">
      <!-- 2011 -->
      <g transform="translate(262.216931 338.797656) scale(0.15 -0.15)">
       <defs>
        <path id="DejaVuSans-32" d="M 1228 531 
L 3431 531 
L 3431 0 
L 469 0 
L 469 531 
Q 828 903 1448 1529 
Q 2069 2156 2228 2338 
Q 2531 2678 2651 2914 
Q 2772 3150 2772 3378 
Q 2772 3750 2511 3984 
Q 2250 4219 1831 4219 
Q 1534 4219 1204 4116 
Q 875 4013 500 3803 
L 500 4441 
Q 881 4594 1212 4672 
Q 1544 4750 1819 4750 
Q 2544 4750 2975 4387 
Q 3406 4025 3406 3419 
Q 3406 3131 3298 2873 
Q 3191 2616 2906 2266 
Q 2828 2175 2409 1742 
Q 1991 1309 1228 531 
z
" transform="scale(0.015625)"/>
        <path id="DejaVuSans-30" d="M 2034 4250 
Q 1547 4250 1301 3770 
Q 1056 3291 1056 2328 
Q 1056 1369 1301 889 
Q 1547 409 2034 409 
Q 2525 409 2770 889 
Q 3016 1369 3016 2328 
Q 3016 3291 2770 3770 
Q 2525 4250 2034 4250 
z
M 2034 4750 
Q 2819 4750 3233 4129 
Q 3647 3509 3647 2328 
Q 3647 1150 3233 529 
Q 2819 -91 2034 -91 
Q 1250 -91 836 529 
Q 422 1150 422 2328 
Q 422 3509 836 4129 
Q 1250 4750 2034 4750 
z
" transform="scale(0.015625)"/>
        <path id="DejaVuSans-31" d="M 794 531 
L 1825 531 
L 1825 4091 
L 703 3866 
L 703 4441 
L 1819 4666 
L 2450 4666 
L 2450 531 
L 3481 531 
L 3481 0 
L 794 0 
L 794 531 
z
" transform="scale(0.015625)"/>
       </defs>
       <use xlink:href="#DejaVuSans-32"/>
       <use xlink:href="#DejaVuSans-30" x="63.623047"/>
       <use xlink:href="#DejaVuSans-31" x="127.246094"/>
       <use xlink:href="#DejaVuSans-31" x="190.869141"/>
      </g>
     </g>
    </g>
    <g id="xtick_2">
     <g id="line2d_2">
      <g>
       <use xlink:href="#m6424629dcd" x="466.533068" y="320.4" style="stroke: #000000; stroke-width: 0.8"/>
      </g>
     </g>
     <g id="text_2">
      <!-- 2012 -->
      <g transform="translate(447.445568 338.797656) scale(0.15 -0.15)">
       <use xlink:href="#DejaVuSans-32"/>
       <use xlink:href="#DejaVuSans-30" x="63.623047"/>
       <use xlink:href="#DejaVuSans-31" x="127.246094"/>
       <use xlink:href="#DejaVuSans-32" x="190.869141"/>
      </g>
     </g>
    </g>
    <g id="xtick_3">
     <g id="line2d_3">
      <g>
       <use xlink:href="#m6424629dcd" x="652.26918" y="320.4" style="stroke: #000000; stroke-width: 0.8"/>
      </g>
     </g>
     <g id="text_3">
      <!-- 2013 -->
      <g transform="translate(633.18168 338.797656) scale(0.15 -0.15)">
       <defs>
        <path id="DejaVuSans-33" d="M 2597 2516 
Q 3050 2419 3304 2112 
Q 3559 1806 3559 1356 
Q 3559 666 3084 287 
Q 2609 -91 1734 -91 
Q 1441 -91 1130 -33 
Q 819 25 488 141 
L 488 750 
Q 750 597 1062 519 
Q 1375 441 1716 441 
Q 2309 441 2620 675 
Q 2931 909 2931 1356 
Q 2931 1769 2642 2001 
Q 2353 2234 1838 2234 
L 1294 2234 
L 1294 2753 
L 1863 2753 
Q 2328 2753 2575 2939 
Q 2822 3125 2822 3475 
Q 2822 3834 2567 4026 
Q 2313 4219 1838 4219 
Q 1578 4219 1281 4162 
Q 984 4106 628 3988 
L 628 4550 
Q 988 4650 1302 4700 
Q 1616 4750 1894 4750 
Q 2613 4750 3031 4423 
Q 3450 4097 3450 3541 
Q 3450 3153 3228 2886 
Q 3006 2619 2597 2516 
z
" transform="scale(0.015625)"/>
       </defs>
       <use xlink:href="#DejaVuSans-32"/>
       <use xlink:href="#DejaVuSans-30" x="63.623047"/>
       <use xlink:href="#DejaVuSans-31" x="127.246094"/>
       <use xlink:href="#DejaVuSans-33" x="190.869141"/>
      </g>
     </g>
    </g>
    <g id="xtick_4">
     <g id="line2d_4">
      <g>
       <use xlink:href="#m6424629dcd" x="837.497817" y="320.4" style="stroke: #000000; stroke-width: 0.8"/>
      </g>
     </g>
     <g id="text_4">
      <!-- 2014 -->
      <g transform="translate(818.410317 338.797656) scale(0.15 -0.15)">
       <defs>
        <path id="DejaVuSans-34" d="M 2419 4116 
L 825 1625 
L 2419 1625 
L 2419 4116 
z
M 2253 4666 
L 3047 4666 
L 3047 1625 
L 3713 1625 
L 3713 1100 
L 3047 1100 
L 3047 0 
L 2419 0 
L 2419 1100 
L 313 1100 
L 313 1709 
L 2253 4666 
z
" transform="scale(0.015625)"/>
       </defs>
       <use xlink:href="#DejaVuSans-32"/>
       <use xlink:href="#DejaVuSans-30" x="63.623047"/>
       <use xlink:href="#DejaVuSans-31" x="127.246094"/>
       <use xlink:href="#DejaVuSans-34" x="190.869141"/>
      </g>
     </g>
    </g>
    <g id="xtick_5">
     <g id="line2d_5">
      <g>
       <use xlink:href="#m6424629dcd" x="1022.726454" y="320.4" style="stroke: #000000; stroke-width: 0.8"/>
      </g>
     </g>
     <g id="text_5">
      <!-- 2015 -->
      <g transform="translate(1003.638954 338.797656) scale(0.15 -0.15)">
       <defs>
        <path id="DejaVuSans-35" d="M 691 4666 
L 3169 4666 
L 3169 4134 
L 1269 4134 
L 1269 2991 
Q 1406 3038 1543 3061 
Q 1681 3084 1819 3084 
Q 2600 3084 3056 2656 
Q 3513 2228 3513 1497 
Q 3513 744 3044 326 
Q 2575 -91 1722 -91 
Q 1428 -91 1123 -41 
Q 819 9 494 109 
L 494 744 
Q 775 591 1075 516 
Q 1375 441 1709 441 
Q 2250 441 2565 725 
Q 2881 1009 2881 1497 
Q 2881 1984 2565 2268 
Q 2250 2553 1709 2553 
Q 1456 2553 1204 2497 
Q 953 2441 691 2322 
L 691 4666 
z
" transform="scale(0.015625)"/>
       </defs>
       <use xlink:href="#DejaVuSans-32"/>
       <use xlink:href="#DejaVuSans-30" x="63.623047"/>
       <use xlink:href="#DejaVuSans-31" x="127.246094"/>
       <use xlink:href="#DejaVuSans-35" x="190.869141"/>
      </g>
     </g>
    </g>
    <g id="xtick_6">
     <g id="line2d_6">
      <g>
       <use xlink:href="#m6424629dcd" x="1207.955091" y="320.4" style="stroke: #000000; stroke-width: 0.8"/>
      </g>
     </g>
     <g id="text_6">
      <!-- 2016 -->
      <g transform="translate(1188.867591 338.797656) scale(0.15 -0.15)">
       <defs>
        <path id="DejaVuSans-36" d="M 2113 2584 
Q 1688 2584 1439 2293 
Q 1191 2003 1191 1497 
Q 1191 994 1439 701 
Q 1688 409 2113 409 
Q 2538 409 2786 701 
Q 3034 994 3034 1497 
Q 3034 2003 2786 2293 
Q 2538 2584 2113 2584 
z
M 3366 4563 
L 3366 3988 
Q 3128 4100 2886 4159 
Q 2644 4219 2406 4219 
Q 1781 4219 1451 3797 
Q 1122 3375 1075 2522 
Q 1259 2794 1537 2939 
Q 1816 3084 2150 3084 
Q 2853 3084 3261 2657 
Q 3669 2231 3669 1497 
Q 3669 778 3244 343 
Q 2819 -91 2113 -91 
Q 1303 -91 875 529 
Q 447 1150 447 2328 
Q 447 3434 972 4092 
Q 1497 4750 2381 4750 
Q 2619 4750 2861 4703 
Q 3103 4656 3366 4563 
z
" transform="scale(0.015625)"/>
       </defs>
       <use xlink:href="#DejaVuSans-32"/>
       <use xlink:href="#DejaVuSans-30" x="63.623047"/>
       <use xlink:href="#DejaVuSans-31" x="127.246094"/>
       <use xlink:href="#DejaVuSans-36" x="190.869141"/>
      </g>
     </g>
    </g>
    <g id="xtick_7">
     <g id="line2d_7">
      <g>
       <use xlink:href="#m6424629dcd" x="1393.691204" y="320.4" style="stroke: #000000; stroke-width: 0.8"/>
      </g>
     </g>
     <g id="text_7">
      <!-- 2017 -->
      <g transform="translate(1374.603704 338.797656) scale(0.15 -0.15)">
       <defs>
        <path id="DejaVuSans-37" d="M 525 4666 
L 3525 4666 
L 3525 4397 
L 1831 0 
L 1172 0 
L 2766 4134 
L 525 4134 
L 525 4666 
z
" transform="scale(0.015625)"/>
       </defs>
       <use xlink:href="#DejaVuSans-32"/>
       <use xlink:href="#DejaVuSans-30" x="63.623047"/>
       <use xlink:href="#DejaVuSans-31" x="127.246094"/>
       <use xlink:href="#DejaVuSans-37" x="190.869141"/>
      </g>
     </g>
    </g>
    <g id="xtick_8">
     <g id="line2d_8">
      <g>
       <use xlink:href="#m6424629dcd" x="1578.919841" y="320.4" style="stroke: #000000; stroke-width: 0.8"/>
      </g>
     </g>
     <g id="text_8">
      <!-- 2018 -->
      <g transform="translate(1559.832341 338.797656) scale(0.15 -0.15)">
       <defs>
        <path id="DejaVuSans-38" d="M 2034 2216 
Q 1584 2216 1326 1975 
Q 1069 1734 1069 1313 
Q 1069 891 1326 650 
Q 1584 409 2034 409 
Q 2484 409 2743 651 
Q 3003 894 3003 1313 
Q 3003 1734 2745 1975 
Q 2488 2216 2034 2216 
z
M 1403 2484 
Q 997 2584 770 2862 
Q 544 3141 544 3541 
Q 544 4100 942 4425 
Q 1341 4750 2034 4750 
Q 2731 4750 3128 4425 
Q 3525 4100 3525 3541 
Q 3525 3141 3298 2862 
Q 3072 2584 2669 2484 
Q 3125 2378 3379 2068 
Q 3634 1759 3634 1313 
Q 3634 634 3220 271 
Q 2806 -91 2034 -91 
Q 1263 -91 848 271 
Q 434 634 434 1313 
Q 434 1759 690 2068 
Q 947 2378 1403 2484 
z
M 1172 3481 
Q 1172 3119 1398 2916 
Q 1625 2713 2034 2713 
Q 2441 2713 2670 2916 
Q 2900 3119 2900 3481 
Q 2900 3844 2670 4047 
Q 2441 4250 2034 4250 
Q 1625 4250 1398 4047 
Q 1172 3844 1172 3481 
z
" transform="scale(0.015625)"/>
       </defs>
       <use xlink:href="#DejaVuSans-32"/>
       <use xlink:href="#DejaVuSans-30" x="63.623047"/>
       <use xlink:href="#DejaVuSans-31" x="127.246094"/>
       <use xlink:href="#DejaVuSans-38" x="190.869141"/>
      </g>
     </g>
    </g>
    <g id="text_9">
     <!-- Time -->
     <g transform="translate(904.149609 357.314844) scale(0.15 -0.15)">
      <defs>
       <path id="DejaVuSans-54" d="M -19 4666 
L 3928 4666 
L 3928 4134 
L 2272 4134 
L 2272 0 
L 1638 0 
L 1638 4134 
L -19 4134 
L -19 4666 
z
" transform="scale(0.015625)"/>
       <path id="DejaVuSans-69" d="M 603 3500 
L 1178 3500 
L 1178 0 
L 603 0 
L 603 3500 
z
M 603 4863 
L 1178 4863 
L 1178 4134 
L 603 4134 
L 603 4863 
z
" transform="scale(0.015625)"/>
       <path id="DejaVuSans-6d" d="M 3328 2828 
Q 3544 3216 3844 3400 
Q 4144 3584 4550 3584 
Q 5097 3584 5394 3201 
Q 5691 2819 5691 2113 
L 5691 0 
L 5113 0 
L 5113 2094 
Q 5113 2597 4934 2840 
Q 4756 3084 4391 3084 
Q 3944 3084 3684 2787 
Q 3425 2491 3425 1978 
L 3425 0 
L 2847 0 
L 2847 2094 
Q 2847 2600 2669 2842 
Q 2491 3084 2119 3084 
Q 1678 3084 1418 2786 
Q 1159 2488 1159 1978 
L 1159 0 
L 581 0 
L 581 3500 
L 1159 3500 
L 1159 2956 
Q 1356 3278 1631 3431 
Q 1906 3584 2284 3584 
Q 2666 3584 2933 3390 
Q 3200 3197 3328 2828 
z
" transform="scale(0.015625)"/>
       <path id="DejaVuSans-65" d="M 3597 1894 
L 3597 1613 
L 953 1613 
Q 991 1019 1311 708 
Q 1631 397 2203 397 
Q 2534 397 2845 478 
Q 3156 559 3463 722 
L 3463 178 
Q 3153 47 2828 -22 
Q 2503 -91 2169 -91 
Q 1331 -91 842 396 
Q 353 884 353 1716 
Q 353 2575 817 3079 
Q 1281 3584 2069 3584 
Q 2775 3584 3186 3129 
Q 3597 2675 3597 1894 
z
M 3022 2063 
Q 3016 2534 2758 2815 
Q 2500 3097 2075 3097 
Q 1594 3097 1305 2825 
Q 1016 2553 972 2059 
L 3022 2063 
z
" transform="scale(0.015625)"/>
      </defs>
      <use xlink:href="#DejaVuSans-54"/>
      <use xlink:href="#DejaVuSans-69" x="57.958984"/>
      <use xlink:href="#DejaVuSans-6d" x="85.742188"/>
      <use xlink:href="#DejaVuSans-65" x="183.154297"/>
     </g>
    </g>
   </g>
   <g id="matplotlib.axis_2">
    <g id="ytick_1">
     <g id="line2d_9">
      <defs>
       <path id="mf0a1cc45fe" d="M 0 0 
L -3.5 0 
" style="stroke: #000000; stroke-width: 0.8"/>
      </defs>
      <g>
       <use xlink:href="#mf0a1cc45fe" x="225" y="286.436891" style="stroke: #000000; stroke-width: 0.8"/>
      </g>
     </g>
     <g id="text_10">
      <!-- −0.003 -->
      <g transform="translate(162.488281 292.135719) scale(0.15 -0.15)">
       <defs>
        <path id="DejaVuSans-2212" d="M 678 2272 
L 4684 2272 
L 4684 1741 
L 678 1741 
L 678 2272 
z
" transform="scale(0.015625)"/>
        <path id="DejaVuSans-2e" d="M 684 794 
L 1344 794 
L 1344 0 
L 684 0 
L 684 794 
z
" transform="scale(0.015625)"/>
       </defs>
       <use xlink:href="#DejaVuSans-2212"/>
       <use xlink:href="#DejaVuSans-30" x="83.789062"/>
       <use xlink:href="#DejaVuSans-2e" x="147.412109"/>
       <use xlink:href="#DejaVuSans-30" x="179.199219"/>
       <use xlink:href="#DejaVuSans-30" x="242.822266"/>
       <use xlink:href="#DejaVuSans-33" x="306.445312"/>
      </g>
     </g>
    </g>
    <g id="ytick_2">
     <g id="line2d_10">
      <g>
       <use xlink:href="#mf0a1cc45fe" x="225" y="246.685639" style="stroke: #000000; stroke-width: 0.8"/>
      </g>
     </g>
     <g id="text_11">
      <!-- −0.002 -->
      <g transform="translate(162.488281 252.384467) scale(0.15 -0.15)">
       <use xlink:href="#DejaVuSans-2212"/>
       <use xlink:href="#DejaVuSans-30" x="83.789062"/>
       <use xlink:href="#DejaVuSans-2e" x="147.412109"/>
       <use xlink:href="#DejaVuSans-30" x="179.199219"/>
       <use xlink:href="#DejaVuSans-30" x="242.822266"/>
       <use xlink:href="#DejaVuSans-32" x="306.445312"/>
      </g>
     </g>
    </g>
    <g id="ytick_3">
     <g id="line2d_11">
      <g>
       <use xlink:href="#mf0a1cc45fe" x="225" y="206.934388" style="stroke: #000000; stroke-width: 0.8"/>
      </g>
     </g>
     <g id="text_12">
      <!-- −0.001 -->
      <g transform="translate(162.488281 212.633216) scale(0.15 -0.15)">
       <use xlink:href="#DejaVuSans-2212"/>
       <use xlink:href="#DejaVuSans-30" x="83.789062"/>
       <use xlink:href="#DejaVuSans-2e" x="147.412109"/>
       <use xlink:href="#DejaVuSans-30" x="179.199219"/>
       <use xlink:href="#DejaVuSans-30" x="242.822266"/>
       <use xlink:href="#DejaVuSans-31" x="306.445312"/>
      </g>
     </g>
    </g>
    <g id="ytick_4">
     <g id="line2d_12">
      <g>
       <use xlink:href="#mf0a1cc45fe" x="225" y="167.183136" style="stroke: #000000; stroke-width: 0.8"/>
      </g>
     </g>
     <g id="text_13">
      <!-- 0.000 -->
      <g transform="translate(175.057813 172.881964) scale(0.15 -0.15)">
       <use xlink:href="#DejaVuSans-30"/>
       <use xlink:href="#DejaVuSans-2e" x="63.623047"/>
       <use xlink:href="#DejaVuSans-30" x="95.410156"/>
       <use xlink:href="#DejaVuSans-30" x="159.033203"/>
       <use xlink:href="#DejaVuSans-30" x="222.65625"/>
      </g>
     </g>
    </g>
    <g id="ytick_5">
     <g id="line2d_13">
      <g>
       <use xlink:href="#mf0a1cc45fe" x="225" y="127.431884" style="stroke: #000000; stroke-width: 0.8"/>
      </g>
     </g>
     <g id="text_14">
      <!-- 0.001 -->
      <g transform="translate(175.057813 133.130712) scale(0.15 -0.15)">
       <use xlink:href="#DejaVuSans-30"/>
       <use xlink:href="#DejaVuSans-2e" x="63.623047"/>
       <use xlink:href="#DejaVuSans-30" x="95.410156"/>
       <use xlink:href="#DejaVuSans-30" x="159.033203"/>
       <use xlink:href="#DejaVuSans-31" x="222.65625"/>
      </g>
     </g>
    </g>
    <g id="ytick_6">
     <g id="line2d_14">
      <g>
       <use xlink:href="#mf0a1cc45fe" x="225" y="87.680632" style="stroke: #000000; stroke-width: 0.8"/>
      </g>
     </g>
     <g id="text_15">
      <!-- 0.002 -->
      <g transform="translate(175.057813 93.37946) scale(0.15 -0.15)">
       <use xlink:href="#DejaVuSans-30"/>
       <use xlink:href="#DejaVuSans-2e" x="63.623047"/>
       <use xlink:href="#DejaVuSans-30" x="95.410156"/>
       <use xlink:href="#DejaVuSans-30" x="159.033203"/>
       <use xlink:href="#DejaVuSans-32" x="222.65625"/>
      </g>
     </g>
    </g>
    <g id="ytick_7">
     <g id="line2d_15">
      <g>
       <use xlink:href="#mf0a1cc45fe" x="225" y="47.929381" style="stroke: #000000; stroke-width: 0.8"/>
      </g>
     </g>
     <g id="text_16">
      <!-- 0.003 -->
      <g transform="translate(175.057813 53.628209) scale(0.15 -0.15)">
       <use xlink:href="#DejaVuSans-30"/>
       <use xlink:href="#DejaVuSans-2e" x="63.623047"/>
       <use xlink:href="#DejaVuSans-30" x="95.410156"/>
       <use xlink:href="#DejaVuSans-30" x="159.033203"/>
       <use xlink:href="#DejaVuSans-33" x="222.65625"/>
      </g>
     </g>
    </g>
    <g id="text_17">
     <!-- North(m) -->
     <g transform="translate(155.36875 215.934375) rotate(-90) scale(0.15 -0.15)">
      <defs>
       <path id="DejaVuSans-4e" d="M 628 4666 
L 1478 4666 
L 3547 763 
L 3547 4666 
L 4159 4666 
L 4159 0 
L 3309 0 
L 1241 3903 
L 1241 0 
L 628 0 
L 628 4666 
z
" transform="scale(0.015625)"/>
       <path id="DejaVuSans-6f" d="M 1959 3097 
Q 1497 3097 1228 2736 
Q 959 2375 959 1747 
Q 959 1119 1226 758 
Q 1494 397 1959 397 
Q 2419 397 2687 759 
Q 2956 1122 2956 1747 
Q 2956 2369 2687 2733 
Q 2419 3097 1959 3097 
z
M 1959 3584 
Q 2709 3584 3137 3096 
Q 3566 2609 3566 1747 
Q 3566 888 3137 398 
Q 2709 -91 1959 -91 
Q 1206 -91 779 398 
Q 353 888 353 1747 
Q 353 2609 779 3096 
Q 1206 3584 1959 3584 
z
" transform="scale(0.015625)"/>
       <path id="DejaVuSans-72" d="M 2631 2963 
Q 2534 3019 2420 3045 
Q 2306 3072 2169 3072 
Q 1681 3072 1420 2755 
Q 1159 2438 1159 1844 
L 1159 0 
L 581 0 
L 581 3500 
L 1159 3500 
L 1159 2956 
Q 1341 3275 1631 3429 
Q 1922 3584 2338 3584 
Q 2397 3584 2469 3576 
Q 2541 3569 2628 3553 
L 2631 2963 
z
" transform="scale(0.015625)"/>
       <path id="DejaVuSans-74" d="M 1172 4494 
L 1172 3500 
L 2356 3500 
L 2356 3053 
L 1172 3053 
L 1172 1153 
Q 1172 725 1289 603 
Q 1406 481 1766 481 
L 2356 481 
L 2356 0 
L 1766 0 
Q 1100 0 847 248 
Q 594 497 594 1153 
L 594 3053 
L 172 3053 
L 172 3500 
L 594 3500 
L 594 4494 
L 1172 4494 
z
" transform="scale(0.015625)"/>
       <path id="DejaVuSans-68" d="M 3513 2113 
L 3513 0 
L 2938 0 
L 2938 2094 
Q 2938 2591 2744 2837 
Q 2550 3084 2163 3084 
Q 1697 3084 1428 2787 
Q 1159 2491 1159 1978 
L 1159 0 
L 581 0 
L 581 4863 
L 1159 4863 
L 1159 2956 
Q 1366 3272 1645 3428 
Q 1925 3584 2291 3584 
Q 2894 3584 3203 3211 
Q 3513 2838 3513 2113 
z
" transform="scale(0.015625)"/>
       <path id="DejaVuSans-28" d="M 1984 4856 
Q 1566 4138 1362 3434 
Q 1159 2731 1159 2009 
Q 1159 1288 1364 580 
Q 1569 -128 1984 -844 
L 1484 -844 
Q 1016 -109 783 600 
Q 550 1309 550 2009 
Q 550 2706 781 3412 
Q 1013 4119 1484 4856 
L 1984 4856 
z
" transform="scale(0.015625)"/>
       <path id="DejaVuSans-29" d="M 513 4856 
L 1013 4856 
Q 1481 4119 1714 3412 
Q 1947 2706 1947 2009 
Q 1947 1309 1714 600 
Q 1481 -109 1013 -844 
L 513 -844 
Q 928 -128 1133 580 
Q 1338 1288 1338 2009 
Q 1338 2731 1133 3434 
Q 928 4138 513 4856 
z
" transform="scale(0.015625)"/>
      </defs>
      <use xlink:href="#DejaVuSans-4e"/>
      <use xlink:href="#DejaVuSans-6f" x="74.804688"/>
      <use xlink:href="#DejaVuSans-72" x="135.986328"/>
      <use xlink:href="#DejaVuSans-74" x="177.099609"/>
      <use xlink:href="#DejaVuSans-68" x="216.308594"/>
      <use xlink:href="#DejaVuSans-28" x="279.6875"/>
      <use xlink:href="#DejaVuSans-6d" x="318.701172"/>
      <use xlink:href="#DejaVuSans-29" x="416.113281"/>
     </g>
    </g>
   </g>
   <g id="line2d_16">
    <path d="M 288.409091 165.102689 
L 289.424042 145.260315 
L 290.438994 111.128691 
L 290.946469 107.884389 
L 291.453945 100.254578 
L 291.961421 95.044451 
L 292.468897 97.137196 
L 292.976372 100.950603 
L 293.483848 110.493868 
L 293.991324 129.248067 
L 294.4988 132.925184 
L 295.006275 139.203168 
L 295.513751 149.166661 
L 296.528702 154.459508 
L 297.036178 155.694762 
L 297.543654 151.620385 
L 298.05113 146.614692 
L 298.558605 155.578725 
L 299.066081 159.749893 
L 299.573557 158.83858 
L 300.081032 153.043541 
L 300.588508 153.631417 
L 301.095984 147.433187 
L 301.60346 150.059735 
L 302.110935 144.259018 
L 302.618411 132.842016 
L 303.125887 117.535071 
L 303.633362 114.221646 
L 304.648314 109.764079 
L 305.663265 109.275958 
L 306.170741 105.803528 
L 306.678217 110.304063 
L 307.185692 118.081238 
L 307.693168 110.2816 
L 308.200644 99.85838 
L 308.70812 92.405146 
L 309.215595 78.268023 
L 309.723071 74.699055 
L 310.230547 74.031927 
L 310.738022 67.470257 
L 311.245498 72.737424 
L 312.26045 105.861826 
L 312.767925 130.096018 
L 313.275401 142.052753 
L 313.782877 150.937284 
L 314.290353 155.982979 
L 315.81278 184.771781 
L 316.320255 188.880483 
L 317.335207 202.35073 
L 317.842683 222.575725 
L 318.350158 216.178739 
L 318.857634 217.345848 
L 319.36511 210.994291 
L 319.872585 208.055664 
L 320.380061 194.872571 
L 320.887537 194.262231 
L 321.395013 173.850089 
L 321.902488 173.387397 
L 322.409964 169.90361 
L 322.91744 172.268935 
L 323.424915 175.804083 
L 323.932391 187.261087 
L 324.439867 190.824629 
L 325.454818 207.91224 
L 325.962294 209.925483 
L 326.46977 213.619636 
L 326.977245 213.287555 
L 327.992197 202.447073 
L 328.499673 205.857288 
L 329.007148 206.609848 
L 329.514624 213.591997 
L 330.0221 199.312906 
L 330.529575 189.679032 
L 331.037051 189.000547 
L 331.544527 175.465372 
L 332.052003 165.825819 
L 332.559478 167.504016 
L 333.066954 151.19761 
L 333.57443 160.258182 
L 334.081905 160.596194 
L 334.589381 161.575904 
L 335.604333 182.050764 
L 336.111808 184.915819 
L 336.619284 173.493139 
L 337.12676 178.220824 
L 337.634236 178.320328 
L 338.141711 182.054232 
L 338.649187 179.785698 
L 339.156663 162.133428 
L 339.664138 158.450885 
L 340.171614 156.574184 
L 340.67909 153.539017 
L 341.186566 139.827801 
L 341.694041 132.99923 
L 342.201517 128.692023 
L 342.708993 133.567356 
L 343.216468 122.048137 
L 343.723944 118.212267 
L 344.23142 120.378836 
L 344.738896 129.581377 
L 345.246371 124.575685 
L 345.753847 120.859068 
L 346.261323 118.846077 
L 347.276274 125.303068 
L 347.78375 124.27818 
L 348.291226 110.788434 
L 348.798701 116.92445 
L 349.306177 124.866308 
L 349.813653 137.498814 
L 350.321128 145.798433 
L 350.828604 139.605882 
L 351.843556 134.563403 
L 352.858507 114.898143 
L 353.365983 113.555244 
L 353.873458 110.945984 
L 354.380934 117.167181 
L 354.88841 118.987346 
L 355.395886 131.069013 
L 355.903361 135.365114 
L 356.410837 145.084421 
L 356.918313 134.371584 
L 357.425788 130.416461 
L 357.933264 123.684428 
L 358.44074 120.501614 
L 358.948216 118.329618 
L 359.963167 108.613528 
L 360.470643 106.719791 
L 360.978119 96.262498 
L 361.485594 110.371479 
L 361.99307 111.254651 
L 362.500546 114.625115 
L 363.008021 112.742735 
L 363.515497 108.923901 
L 364.022973 111.652667 
L 364.530449 121.763807 
L 365.037924 112.595591 
L 365.5454 114.858699 
L 366.052876 116.37789 
L 366.560351 137.199154 
L 367.067827 147.83274 
L 367.575303 146.444411 
L 368.590254 171.238086 
L 369.09773 175.562581 
L 369.605206 165.815132 
L 370.112681 142.410288 
L 370.620157 130.902427 
L 371.127633 122.211226 
L 371.635109 118.068703 
L 372.142584 104.970792 
L 372.65006 88.885857 
L 373.157536 92.835554 
L 373.665011 108.227932 
L 374.172487 115.567843 
L 374.679963 137.002412 
L 375.187439 133.291474 
L 375.694914 136.440467 
L 376.20239 152.400721 
L 376.709866 180.042163 
L 377.217341 182.555136 
L 377.724817 178.787411 
L 378.232293 170.221142 
L 378.739769 158.582669 
L 379.247244 157.341988 
L 379.75472 165.414458 
L 380.262196 136.609123 
L 380.769672 129.570438 
L 381.277147 135.433873 
L 381.784623 133.608281 
L 382.292099 143.793246 
L 382.799574 144.295941 
L 383.30705 125.354595 
L 383.814526 118.219371 
L 384.322002 124.968692 
L 384.829477 116.686361 
L 385.336953 111.374016 
L 385.844429 107.413213 
L 386.351904 115.366429 
L 387.366856 144.470275 
L 387.874332 143.240952 
L 388.381807 151.211204 
L 389.396759 158.730121 
L 389.904234 154.53649 
L 390.41171 152.222525 
L 390.919186 139.170043 
L 391.426662 129.695174 
L 391.934137 129.323342 
L 392.441613 132.591589 
L 392.949089 132.327653 
L 393.96404 106.075042 
L 394.471516 102.091525 
L 394.978992 101.662905 
L 395.486467 98.605024 
L 395.993943 94.076346 
L 396.501419 96.169091 
L 397.008894 91.873243 
L 397.51637 91.149328 
L 398.023846 98.358627 
L 398.531322 107.879178 
L 399.038797 99.403769 
L 399.546273 98.679854 
L 400.053749 86.325859 
L 400.561224 86.998917 
L 401.0687 89.460781 
L 402.083652 105.026379 
L 402.591127 100.580062 
L 403.606079 106.787223 
L 404.113555 120.17786 
L 405.128506 135.363126 
L 405.635982 133.548891 
L 406.143457 135.704103 
L 406.650933 144.810105 
L 407.158409 145.380945 
L 407.665885 140.943127 
L 408.17336 151.037232 
L 408.680836 149.966913 
L 409.188312 158.27789 
L 409.695787 151.932013 
L 410.203263 141.758657 
L 410.710739 138.070435 
L 411.218215 158.278394 
L 411.72569 163.761353 
L 412.233166 178.194023 
L 412.740642 171.921969 
L 413.755593 228.147527 
L 414.263069 242.495015 
L 415.27802 221.370316 
L 415.785496 207.051473 
L 416.292972 198.877038 
L 416.800447 170.151206 
L 417.307923 149.449447 
L 417.815399 140.627635 
L 418.83035 116.703312 
L 419.337826 122.322561 
L 419.845302 124.205193 
L 420.352777 134.384478 
L 420.860253 135.875276 
L 421.367729 129.001275 
L 421.875205 138.555898 
L 422.38268 179.10514 
L 423.397632 188.543475 
L 423.905107 193.645957 
L 424.920059 212.096469 
L 425.427535 217.891759 
L 425.93501 187.678094 
L 426.949962 177.223767 
L 427.457438 180.753236 
L 427.964913 176.58232 
L 428.472389 179.748349 
L 428.979865 175.36164 
L 429.48734 192.400856 
L 429.994816 186.418419 
L 430.502292 189.98196 
L 431.517243 186.432993 
L 432.024719 188.008972 
L 432.532195 183.389435 
L 433.03967 168.604934 
L 433.547146 177.733651 
L 434.054622 172.489451 
L 434.562098 164.786353 
L 435.069573 162.620035 
L 435.577049 158.454798 
L 436.084525 165.522128 
L 436.592 170.726829 
L 437.099476 169.134065 
L 437.606952 182.067545 
L 438.114428 176.999386 
L 438.621903 181.250056 
L 439.129379 177.857129 
L 439.636855 167.65538 
L 440.14433 165.858181 
L 440.651806 162.669689 
L 441.159282 148.850576 
L 441.666758 149.353271 
L 442.174233 142.859746 
L 442.681709 139.387317 
L 443.189185 137.039279 
L 443.69666 144.74263 
L 444.204136 143.331586 
L 444.711612 142.607671 
L 445.219088 136.875099 
L 445.726563 136.878064 
L 446.234039 147.222034 
L 446.741515 151.932683 
L 447.756466 142.159805 
L 448.771418 160.826109 
L 449.278893 164.770127 
L 449.786369 155.635983 
L 450.801321 151.814436 
L 451.308796 153.969648 
L 452.323748 174.419079 
L 452.831223 179.958826 
L 453.338699 192.279 
L 453.846175 197.608633 
L 454.353651 208.974778 
L 454.861126 216.763309 
L 455.368602 204.375242 
L 455.876078 199.392264 
L 456.383553 195.641575 
L 456.891029 198.728102 
L 457.398505 226.789772 
L 457.905981 225.321941 
L 458.413456 225.302191 
L 458.920932 213.027699 
L 459.428408 208.135581 
L 459.935883 206.292953 
L 460.443359 195.886769 
L 460.950835 165.167695 
L 461.458311 152.240146 
L 461.965786 144.565441 
L 462.473262 158.873178 
L 462.980738 164.674147 
L 463.488213 174.058408 
L 463.995689 173.113022 
L 464.503165 181.537574 
L 465.010641 183.658713 
L 465.518116 189.084885 
L 466.025592 187.86124 
L 466.533068 195.354477 
L 467.040543 195.436944 
L 467.548019 207.268746 
L 468.055495 207.975877 
L 468.562971 212.607023 
L 469.070446 186.311696 
L 469.577922 185.110766 
L 470.085398 166.85655 
L 470.592874 156.802448 
L 471.100349 139.104749 
L 471.607825 132.389752 
L 472.115301 133.6534 
L 472.622776 160.028482 
L 473.130252 167.601221 
L 473.637728 161.471136 
L 474.145204 152.75722 
L 474.652679 151.499502 
L 475.160155 139.934853 
L 475.667631 133.526509 
L 476.175106 124.517298 
L 476.682582 107.972385 
L 477.190058 115.840419 
L 477.697534 113.600278 
L 478.205009 104.227627 
L 478.712485 91.254648 
L 479.219961 88.077513 
L 479.727436 86.013413 
L 480.742388 60.163994 
L 481.249864 55.8 
L 481.757339 59.715624 
L 482.264815 76.175608 
L 482.772291 75.548232 
L 483.279766 76.874346 
L 483.787242 79.569038 
L 484.802194 88.405426 
L 485.309669 96.017916 
L 485.817145 95.873234 
L 486.324621 95.546832 
L 486.832096 97.560074 
L 487.339572 104.542224 
L 487.847048 120.110643 
L 488.354524 144.021147 
L 489.876951 200.857297 
L 490.891902 213.367835 
L 491.399378 208.969769 
L 491.906854 206.474084 
L 492.921805 183.299356 
L 493.429281 176.005127 
L 493.936757 183.549473 
L 494.444232 189.418587 
L 494.951708 197.638704 
L 495.459184 191.798235 
L 495.966659 190.478052 
L 496.474135 172.320374 
L 496.981611 168.45611 
L 497.489087 178.124308 
L 497.996562 181.182441 
L 498.504038 181.770317 
L 499.011514 181.324661 
L 499.518989 180.691607 
L 500.026465 200.490695 
L 500.533941 202.220001 
L 501.041417 202.450116 
L 501.548892 203.208355 
L 502.056368 193.142896 
L 503.071319 168.190719 
L 503.578795 166.399199 
L 504.086271 173.222343 
L 504.593747 175.343483 
L 505.101222 194.086324 
L 505.608698 226.191264 
L 506.116174 249.403281 
L 506.623649 266.43114 
L 507.131125 266.473856 
L 508.146077 248.103351 
L 509.161028 191.63411 
L 509.668504 180.478331 
L 510.175979 180.168965 
L 510.683455 181.182748 
L 511.190931 188.772524 
L 511.698407 174.964768 
L 512.205882 185.325774 
L 512.713358 181.467189 
L 513.220834 184.411747 
L 513.72831 195.221374 
L 514.235785 197.546948 
L 514.743261 202.38253 
L 515.250737 224.367937 
L 515.758212 228.391458 
L 516.265688 236.827367 
L 516.773164 242.446616 
L 517.28064 235.936055 
L 517.788115 244.292462 
L 518.295591 237.355994 
L 518.803067 227.977664 
L 519.310542 222.370024 
L 519.818018 214.882718 
L 520.325494 212.2621 
L 521.340445 198.854823 
L 521.847921 206.825075 
L 522.355397 205.476497 
L 522.862872 207.705533 
L 523.370348 209.429159 
L 523.877824 210.459978 
L 524.3853 212.285822 
L 524.892775 212.345575 
L 525.907727 184.928821 
L 526.415202 173.971798 
L 526.922678 175.718139 
L 527.430154 172.404715 
L 527.93763 165.916868 
L 528.445105 149.519603 
L 528.952581 141.981188 
L 529.460057 148.446571 
L 529.967532 172.629654 
L 530.475008 174.864369 
L 530.982484 169.194262 
L 531.48996 168.799715 
L 531.997435 168.859468 
L 532.504911 176.233451 
L 533.012387 177.690176 
L 533.519862 146.25558 
L 534.027338 131.862913 
L 534.534814 126.760682 
L 535.04229 126.70686 
L 535.549765 134.04677 
L 536.057241 139.404797 
L 536.564717 136.840967 
L 537.072193 144.243344 
L 537.579668 157.562979 
L 538.087144 174.755521 
L 538.59462 178.205488 
L 539.102095 183.563514 
L 539.609571 175.661659 
L 540.117047 163.591601 
L 540.624523 162.782505 
L 541.131998 162.825222 
L 541.639474 150.834667 
L 542.14695 159.696482 
L 542.654425 161.164565 
L 543.161901 159.815988 
L 543.669377 168.348436 
L 544.176853 168.868167 
L 544.684328 183.652919 
L 545.191804 188.744045 
L 545.69928 177.014712 
L 546.206755 171.64558 
L 546.714231 180.518753 
L 547.221707 210.420338 
L 547.729183 225.93197 
L 548.236658 206.161527 
L 548.744134 205.732907 
L 549.25161 219.779422 
L 549.759085 221.86081 
L 550.266561 214.015742 
L 550.774037 183.01841 
L 551.281513 164.786908 
L 551.788988 167.663321 
L 552.80394 131.717084 
L 553.311415 129.902849 
L 553.818891 126.60646 
L 554.326367 127.909859 
L 554.833843 135.738142 
L 555.341318 129.68756 
L 555.848794 140.29843 
L 556.35627 140.801126 
L 556.863745 134.756222 
L 557.371221 143.845188 
L 558.386173 133.975771 
L 558.893648 141.991453 
L 559.401124 136.105554 
L 559.9086 137.499813 
L 560.416076 116.559548 
L 560.923551 116.562513 
L 561.431027 122.301016 
L 561.938503 123.025183 
L 562.445978 117.922951 
L 562.953454 119.266102 
L 563.46093 110.830444 
L 563.968406 136.433215 
L 564.475881 134.431582 
L 564.983357 137.73958 
L 565.490833 154.341532 
L 565.998308 148.688462 
L 566.505784 150.014576 
L 567.01326 160.676555 
L 567.520736 153.416399 
L 568.535687 161.355436 
L 569.043163 156.818258 
L 569.550638 131.888688 
L 570.058114 135.313119 
L 570.56559 137.056639 
L 571.073066 131.094095 
L 571.580541 132.638859 
L 572.088017 119.671558 
L 572.595493 121.991454 
L 573.102968 126.497668 
L 573.610444 132.781331 
L 574.11792 132.642327 
L 574.625396 136.60906 
L 575.132871 139.059567 
L 575.640347 139.52819 
L 576.147823 127.242339 
L 576.655298 139.159323 
L 577.162774 147.538445 
L 577.67025 154.015185 
L 578.685201 159.109276 
L 579.192677 158.9362 
L 579.700153 177.508678 
L 580.207629 170.362097 
L 580.715104 154.050013 
L 581.22258 148.800134 
L 581.730056 140.625699 
L 582.237531 136.931798 
L 582.745007 145.793613 
L 583.252483 143.769265 
L 583.759959 146.72518 
L 584.267434 147.75032 
L 584.77491 150.138361 
L 585.282386 170.005594 
L 585.789861 176.346045 
L 586.297337 178.450148 
L 586.804813 171.383069 
L 587.312289 172.834115 
L 587.819764 177.243791 
L 588.32724 188.638329 
L 588.834716 172.12181 
L 589.342191 173.87383 
L 589.849667 153.768341 
L 590.357143 162.011173 
L 590.864619 173.621503 
L 591.372094 182.528749 
L 591.87957 173.769403 
L 592.894521 191.447604 
L 593.401997 216.312138 
L 593.909473 227.025226 
L 594.924424 208.524109 
L 595.4319 203.773961 
L 595.939376 208.132527 
L 596.446851 203.302876 
L 597.461803 199.197391 
L 597.969279 208.91102 
L 598.476754 216.38722 
L 598.98423 229.570565 
L 599.999181 242.768232 
L 600.506657 250.761199 
L 601.521609 263.48753 
L 602.029084 264.569458 
L 602.53656 269.041599 
L 603.044036 272.264416 
L 603.551512 279.797404 
L 604.058987 269.783054 
L 604.566463 262.857944 
L 605.073939 237.863051 
L 605.581414 241.534488 
L 606.08889 230.645611 
L 606.596366 216.037152 
L 607.103842 211.088247 
L 607.611317 202.862703 
L 608.118793 196.738296 
L 608.626269 201.312656 
L 609.133744 192.286408 
L 609.64122 188.654973 
L 610.148696 177.28908 
L 610.656172 159.085972 
L 611.163647 160.270118 
L 611.671123 157.439386 
L 612.686074 159.642993 
L 613.701026 194.754958 
L 614.208502 190.152457 
L 614.715977 192.500746 
L 615.223453 189.488294 
L 615.730929 183.903369 
L 616.238404 180.595623 
L 616.74588 163.164825 
L 617.253356 158.278387 
L 617.760832 164.817593 
L 618.268307 164.848952 
L 619.790734 196.352197 
L 620.29821 201.778369 
L 621.313162 194.759685 
L 621.820637 204.921935 
L 622.835589 215.209116 
L 623.343064 213.576602 
L 623.85054 206.492487 
L 624.358016 204.933795 
L 625.372967 203.099811 
L 625.880443 195.073023 
L 626.387919 173.843141 
L 626.895395 161.455074 
L 628.417822 133.456373 
L 628.925297 131.040191 
L 629.432773 117.385762 
L 629.940249 112.118847 
L 630.447725 123.121551 
L 630.9552 122.15345 
L 631.462676 119.265931 
L 631.970152 120.949807 
L 633.492579 143.19101 
L 634.000055 141.138267 
L 634.50753 134.224515 
L 635.522482 157.751829 
L 636.029957 147.720442 
L 636.537433 140.062773 
L 637.044909 143.92161 
L 637.552385 137.235008 
L 638.05986 155.722305 
L 638.567336 160.330737 
L 639.074812 149.106813 
L 640.089763 165.512974 
L 640.597239 188.531914 
L 641.61219 210.508821 
L 642.119666 226.443538 
L 642.627142 231.72492 
L 643.134617 260.209675 
L 643.642093 282.249048 
L 644.149569 284.957956 
L 645.671996 221.25981 
L 646.179472 212.347137 
L 646.686948 189.578314 
L 647.194423 178.144276 
L 647.701899 176.154 
L 648.209375 171.693468 
L 649.224326 189.803146 
L 649.731802 204.153492 
L 650.239278 210.099287 
L 650.746753 212.308465 
L 651.254229 210.235865 
L 651.761705 219.929636 
L 652.26918 216.329452 
L 653.284132 193.432982 
L 653.791608 174.440528 
L 654.299083 170.121964 
L 654.806559 155.871267 
L 655.314035 133.43749 
L 655.82151 148.784438 
L 656.328986 147.793622 
L 656.836462 136.933138 
L 657.343938 146.589979 
L 658.358889 177.380414 
L 659.37384 217.245385 
L 659.881316 222.430228 
L 660.388792 239.279223 
L 660.896268 240.54005 
L 661.403743 235.207847 
L 662.418695 228.768432 
L 662.92617 197.702955 
L 663.433646 182.146144 
L 663.941122 162.943576 
L 664.448598 167.955199 
L 664.956073 174.676126 
L 665.463549 167.330788 
L 665.971025 169.253171 
L 666.4785 176.252357 
L 666.985976 181.428663 
L 667.493452 180.886469 
L 668.000928 194.353751 
L 668.508403 191.483268 
L 669.015879 201.787487 
L 669.523355 202.716088 
L 670.030831 219.868879 
L 670.538306 211.4389 
L 671.045782 212.662797 
L 671.553258 201.274189 
L 672.060733 205.831512 
L 672.568209 206.907761 
L 673.075685 216.672498 
L 673.583161 212.359613 
L 674.598112 256.943733 
L 675.105588 273.017561 
L 675.613063 282.793656 
L 676.120539 282.592186 
L 676.628015 277.19466 
L 677.135491 265.073493 
L 678.150442 218.83736 
L 678.657918 208.692399 
L 679.165393 208.559074 
L 680.180345 214.243647 
L 680.687821 214.215397 
L 681.702772 242.847944 
L 682.210248 261.156378 
L 683.225199 287.579891 
L 683.732675 284.52201 
L 684.240151 288.267271 
L 684.747626 280.399489 
L 685.255102 276.018459 
L 685.762578 273.704494 
L 686.270053 269.772085 
L 686.777529 260.092781 
L 687.285005 259.107644 
L 687.792481 260.070318 
L 688.299956 257.722281 
L 688.807432 256.470242 
L 689.314908 259.221722 
L 689.822383 256.567033 
L 690.329859 255.235492 
L 691.344811 257.859326 
L 691.852286 265.931795 
L 692.359762 256.837403 
L 693.374714 230.516647 
L 694.389665 187.523081 
L 694.897141 169.92192 
L 695.404616 159.441912 
L 696.419568 178.176361 
L 696.927044 181.881871 
L 697.434519 211.857281 
L 697.941995 217.425421 
L 698.449471 212.328869 
L 698.956946 198.276927 
L 699.464422 191.204169 
L 699.971898 178.68549 
L 700.479374 177.564063 
L 700.986849 154.573768 
L 701.494325 155.161645 
L 703.016752 193.734934 
L 703.524228 213.630561 
L 704.031704 207.943418 
L 704.539179 208.610798 
L 705.554131 189.944997 
L 706.569082 157.650196 
L 707.076558 127.027661 
L 707.584034 118.932729 
L 708.091509 107.561157 
L 708.598985 109.387001 
L 709.106461 97.305586 
L 709.613936 95.241486 
L 710.121412 89.872354 
L 710.628888 107.155756 
L 711.136364 118.663869 
L 712.151315 148.437809 
L 712.658791 150.025145 
L 713.166267 149.289873 
L 713.673742 153.529186 
L 714.181218 146.865298 
L 714.688694 136.214928 
L 715.196169 136.609727 
L 715.703645 128.810089 
L 716.211121 131.06184 
L 716.718597 134.863889 
L 717.226072 128.393079 
L 717.733548 118.6002 
L 718.241024 124.724858 
L 718.748499 120.985527 
L 719.255975 112.572584 
L 720.270927 122.77755 
L 721.793354 171.555553 
L 722.300829 177.714283 
L 722.808305 191.397358 
L 723.315781 195.96036 
L 723.823257 196.003076 
L 724.330732 188.089864 
L 724.838208 183.947341 
L 725.345684 173.955706 
L 725.853159 178.672034 
L 726.868111 196.776141 
L 727.375587 192.480293 
L 727.883062 197.418092 
L 728.898014 192.540297 
L 729.405489 173.388838 
L 729.912965 160.671402 
L 730.420441 143.337143 
L 730.927917 150.080785 
L 731.435392 154.041839 
L 731.942868 153.607541 
L 733.465295 131.588564 
L 733.972771 134.612625 
L 734.480247 146.853297 
L 735.495198 133.360838 
L 736.002674 138.520108 
L 736.51015 145.58176 
L 737.017625 142.177475 
L 737.525101 130.942194 
L 738.032577 111.955418 
L 738.540052 109.289371 
L 739.047528 107.9124 
L 739.555004 96.472683 
L 740.06248 88.576507 
L 740.569955 93.81528 
L 741.077431 95.908025 
L 742.092382 79.723839 
L 742.599858 84.661638 
L 743.107334 90.757902 
L 743.61481 107.098632 
L 744.122285 99.094559 
L 744.629761 101.459884 
L 745.137237 116.221922 
L 745.644712 116.548576 
L 746.152188 112.854674 
L 746.659664 110.148876 
L 747.16714 96.70456 
L 747.674615 97.496872 
L 748.182091 100.890051 
L 748.689567 94.2432 
L 749.704518 87.076869 
L 750.211994 91.531974 
L 750.71947 110.973301 
L 751.226945 118.307533 
L 751.734421 131.513593 
L 752.241897 136.104988 
L 752.749372 128.657433 
L 753.256848 131.499774 
L 753.764324 131.63335 
L 754.2718 113.328025 
L 754.779275 114.336129 
L 755.286751 97.870718 
L 755.794227 98.350698 
L 756.301702 122.596248 
L 757.316654 141.59192 
L 758.331605 168.128863 
L 758.839081 171.695262 
L 759.346557 170.173501 
L 759.854033 169.509231 
L 760.361508 162.286005 
L 760.868984 163.296966 
L 761.37646 144.932032 
L 761.883935 120.487977 
L 762.391411 102.847065 
L 762.898887 111.771347 
L 763.406363 103.278902 
L 763.913838 101.600957 
L 764.421314 101.183695 
L 764.92879 117.842435 
L 765.436265 127.896788 
L 765.943741 158.326497 
L 766.958693 187.918716 
L 767.466168 190.993885 
L 767.973644 183.852983 
L 768.48112 180.704242 
L 768.988595 182.393796 
L 769.496071 180.749923 
L 770.003547 175.335361 
L 770.511023 172.515987 
L 771.018498 180.401058 
L 771.525974 193.425397 
L 772.03345 194.598185 
L 772.540925 201.347506 
L 773.048401 183.837205 
L 773.555877 178.468073 
L 774.063353 181.622744 
L 774.570828 179.416676 
L 775.078304 170.458573 
L 775.58578 170.586471 
L 776.093255 159.192184 
L 776.600731 172.261954 
L 777.108207 178.165141 
L 777.615683 181.899045 
L 778.123158 178.954739 
L 778.630634 172.637255 
L 779.13811 177.535303 
L 779.645586 187.794091 
L 780.153061 178.55773 
L 780.660537 178.850311 
L 781.168013 166.138555 
L 782.69044 193.530384 
L 783.197916 195.038218 
L 783.705391 207.05174 
L 784.212867 200.075521 
L 784.720343 213.009001 
L 785.227818 212.728029 
L 785.735294 209.590645 
L 786.24277 203.176622 
L 786.750246 184.803152 
L 787.257721 184.596003 
L 787.765197 190.86263 
L 788.272673 189.97971 
L 788.780148 179.60192 
L 789.287624 180.070543 
L 789.7951 177.88151 
L 790.302576 187.99833 
L 791.317527 175.499652 
L 791.825003 167.103746 
L 792.332478 171.042085 
L 792.839954 172.629422 
L 793.34743 176.556403 
L 793.854906 174.69106 
L 794.362381 162.552857 
L 794.869857 164.480919 
L 795.377333 165.63667 
L 795.884808 155.821076 
L 796.392284 153.995484 
L 796.89976 144.293465 
L 797.407236 151.372153 
L 797.914711 161.960309 
L 798.422187 168.834562 
L 798.929663 167.593881 
L 799.437138 172.378354 
L 799.944614 167.236371 
L 800.45209 185.365907 
L 800.959566 184.585205 
L 801.467041 203.509766 
L 801.974517 215.705008 
L 802.481993 220.49516 
L 802.989469 233.110629 
L 803.496944 234.192557 
L 804.511896 228.559381 
L 805.019371 219.280446 
L 805.526847 195.742171 
L 806.034323 177.842894 
L 806.541799 174.634544 
L 807.049274 152.180909 
L 807.55675 141.385749 
L 808.064226 146.704024 
L 808.571701 150.074488 
L 809.079177 148.510118 
L 809.586653 150.699402 
L 810.094129 149.112318 
L 811.10908 160.208847 
L 811.616556 139.22883 
L 812.124031 135.546287 
L 813.138983 114.370479 
L 813.646459 110.023521 
L 814.153934 118.431037 
L 814.66141 122.551096 
L 816.183837 159.562728 
L 816.691313 164.279056 
L 817.198789 167.570018 
L 817.706264 166.743886 
L 818.21374 172.715217 
L 818.721216 157.198158 
L 819.736167 144.489367 
L 820.243643 151.176221 
L 820.751119 168.084826 
L 821.258594 170.552369 
L 821.76607 165.081019 
L 822.273546 169.967709 
L 822.781021 168.630489 
L 823.288497 174.068019 
L 823.795973 168.659135 
L 824.303449 154.976312 
L 824.810924 156.035525 
L 825.3184 158.610964 
L 825.825876 157.023879 
L 826.333352 150.905152 
L 826.840827 140.595506 
L 827.348303 137.429729 
L 827.855779 140.584401 
L 828.363254 145.056542 
L 828.87073 153.31641 
L 829.885682 177.428636 
L 830.393157 192.97434 
L 830.900633 202.006519 
L 831.408109 192.565722 
L 832.42306 181.038111 
L 832.930536 180.637885 
L 833.438012 194.616254 
L 833.945487 192.625978 
L 834.452963 199.034574 
L 834.960439 209.469403 
L 835.467914 208.05836 
L 835.97539 212.700864 
L 836.482866 199.869854 
L 836.990342 182.490164 
L 837.497817 177.598047 
L 838.005293 178.589115 
L 838.512769 182.459309 
L 839.020244 184.864385 
L 839.52772 174.219694 
L 840.035196 180.713471 
L 840.542672 182.664247 
L 841.050147 186.841094 
L 842.065099 162.337538 
L 842.572574 153.260182 
L 843.08005 157.414314 
L 843.587526 151.074115 
L 844.095002 147.158742 
L 844.602477 144.169006 
L 845.109953 136.460229 
L 845.617429 149.302848 
L 846.124905 171.526763 
L 846.63238 174.391819 
L 847.139856 187.876137 
L 847.647332 183.835832 
L 848.154807 183.0097 
L 848.662283 192.978872 
L 849.169759 208.706296 
L 849.677235 188.884744 
L 850.18471 188.75142 
L 850.692186 192.286568 
L 851.199662 198.456656 
L 851.707137 209.754655 
L 852.214613 224.772236 
L 852.722089 193.74651 
L 853.229565 210.513146 
L 853.73704 210.828442 
L 854.244516 214.374948 
L 854.751992 227.666188 
L 855.259467 227.129672 
L 855.766943 227.462005 
L 856.274419 258.425517 
L 856.781895 256.582888 
L 857.28937 268.613446 
L 857.796846 263.516894 
L 858.811797 263.380748 
L 859.319273 266.322484 
L 859.826749 253.380756 
L 860.8417 231.049233 
L 861.856652 234.933678 
L 862.364127 228.38058 
L 862.871603 236.984066 
L 863.379079 230.802908 
L 863.886555 229.817807 
L 864.39403 238.020924 
L 864.901506 234.097051 
L 865.408982 225.45128 
L 865.916457 220.229795 
L 866.423933 217.245737 
L 866.931409 223.21139 
L 867.438885 216.110239 
L 867.94636 211.956359 
L 868.453836 217.700541 
L 868.961312 209.929297 
L 869.468788 208.887372 
L 869.976263 194.812716 
L 870.483739 188.029574 
L 870.991215 183.177208 
L 871.49869 175.093633 
L 872.006166 171.717742 
L 872.513642 172.521411 
L 873.021118 163.642811 
L 873.528593 162.333985 
L 874.036069 153.290701 
L 874.543545 155.871819 
L 875.05102 167.521901 
L 875.558496 157.110038 
L 876.065972 160.622471 
L 876.573448 167.723874 
L 877.080923 172.911538 
L 877.588399 182.358265 
L 878.095875 187.653825 
L 878.60335 181.648673 
L 879.110826 192.077824 
L 879.618302 186.379324 
L 880.125778 178.079956 
L 880.633253 173.517206 
L 881.140729 163.150773 
L 881.648205 155.192131 
L 882.15568 156.910078 
L 882.663156 158.054472 
L 883.170632 162.021205 
L 883.678108 163.352998 
L 884.185583 161.845416 
L 884.693059 163.165851 
L 885.200535 167.927609 
L 885.70801 156.31753 
L 886.722962 139.633614 
L 887.230438 134.417807 
L 887.737913 139.242032 
L 888.245389 130.925628 
L 888.752865 129.315828 
L 889.26034 119.358265 
L 889.767816 118.356092 
L 890.275292 109.795502 
L 890.782768 114.937736 
L 891.290243 96.263291 
L 891.797719 99.366854 
L 892.305195 96.121574 
L 892.812671 106.863056 
L 893.320146 112.533414 
L 893.827622 125.818976 
L 894.842573 141.117781 
L 895.350049 142.006632 
L 895.857525 134.104776 
L 896.365001 128.644784 
L 896.872476 128.86922 
L 897.379952 124.499548 
L 897.887428 118.954374 
L 898.394903 123.261832 
L 899.409855 107.094682 
L 899.917331 109.431614 
L 900.424806 102.057882 
L 900.932282 112.458639 
L 901.439758 114.653602 
L 901.947233 116.28069 
L 902.454709 120.843692 
L 902.962185 130.273382 
L 903.469661 125.699275 
L 903.977136 125.588665 
L 904.484612 118.782809 
L 904.992088 98.489921 
L 906.007039 84.849814 
L 906.514515 84.972033 
L 907.021991 95.866841 
L 907.529466 98.027732 
L 908.036942 98.507712 
L 908.544418 113.85466 
L 909.051893 121.10939 
L 909.559369 151.141586 
L 910.066845 155.324112 
L 910.574321 141.550429 
L 911.081796 135.868965 
L 912.096748 122.989811 
L 912.604224 125.360815 
L 913.111699 111.9165 
L 913.619175 109.046018 
L 914.126651 119.503562 
L 914.634126 122.459477 
L 915.141602 124.342109 
L 915.649078 124.061137 
L 916.156554 113.291513 
L 916.664029 97.984567 
L 917.171505 93.234419 
L 917.678981 87.013474 
L 918.186456 84.018059 
L 918.693932 77.104306 
L 919.201408 76.74951 
L 919.708884 80.477735 
L 920.216359 94.121059 
L 920.723835 98.155937 
L 921.231311 96.506386 
L 921.738786 96.304916 
L 922.246262 100.141038 
L 922.753738 107.083436 
L 923.261214 110.374397 
L 923.768689 105.61857 
L 924.276165 105.96226 
L 924.783641 112.228887 
L 925.291116 122.067447 
L 925.798592 136.57962 
L 926.306068 140.60314 
L 926.813544 133.604206 
L 927.321019 139.79133 
L 927.828495 134.598239 
L 928.335971 150.092835 
L 928.843446 149.613107 
L 929.350922 139.8543 
L 929.858398 142.594423 
L 930.365874 152.455699 
L 930.873349 144.383481 
L 931.380825 156.612796 
L 931.888301 134.917256 
L 932.395776 123.994306 
L 932.903252 129.613555 
L 933.410728 125.851509 
L 933.918204 124.616507 
L 934.425679 133.915586 
L 934.933155 137.172475 
L 935.948107 155.310655 
L 936.455582 160.600537 
L 936.963058 168.406105 
L 937.470534 173.474515 
L 938.485485 170.493423 
L 938.992961 191.382832 
L 939.500437 199.012359 
L 940.515388 186.780582 
L 941.530339 184.293542 
L 942.037815 179.708077 
L 943.052767 148.458166 
L 943.560242 144.185032 
L 944.067718 148.736676 
L 944.575194 146.263706 
L 945.082669 145.778299 
L 945.590145 143.765308 
L 946.097621 147.760435 
L 946.605097 163.414036 
L 947.620048 152.789346 
L 948.127524 151.985928 
L 948.634999 141.982936 
L 949.142475 149.998617 
L 949.649951 153.090823 
L 950.157427 147.806872 
L 950.664902 162.216826 
L 951.172378 159.596209 
L 951.679854 153.136756 
L 952.187329 167.96126 
L 952.694805 169.781425 
L 953.202281 157.705689 
L 953.709757 168.469885 
L 954.217232 167.740292 
L 954.724708 159.946333 
L 955.232184 170.585598 
L 955.73966 161.184552 
L 956.754611 154.926821 
L 957.262087 141.255356 
L 957.769562 134.409748 
L 958.277038 141.38054 
L 958.784514 132.836986 
L 959.29199 135.531679 
L 959.799465 119.338849 
L 960.306941 122.828567 
L 960.814417 119.623038 
L 961.321892 114.407232 
L 961.829368 110.770118 
L 962.84432 96.193018 
L 963.351795 102.096205 
L 963.859271 105.029405 
L 964.366747 103.66947 
L 964.874222 96.511531 
L 965.381698 87.468247 
L 965.889174 93.428222 
L 966.39665 107.622384 
L 966.904125 102.48608 
L 967.411601 90.69996 
L 968.426552 101.262687 
L 968.934028 112.86166 
L 969.441504 113.790262 
L 969.94898 108.994683 
L 970.456455 116.311879 
L 970.963931 119.426799 
L 971.471407 124.461137 
L 971.978882 132.226954 
L 972.486358 137.761022 
L 972.993834 137.531158 
L 973.50131 136.563057 
L 974.008785 140.217459 
L 974.516261 142.50896 
L 975.023737 129.104396 
L 975.531212 124.859656 
L 976.038688 114.288789 
L 976.546164 108.045129 
L 977.561115 100.106488 
L 978.068591 91.829835 
L 978.576067 90.202999 
L 979.083543 91.847123 
L 979.591018 107.404185 
L 980.60597 126.79169 
L 981.113445 126.113205 
L 981.620921 143.29439 
L 982.128397 147.403092 
L 982.635873 157.258689 
L 983.143348 149.811134 
L 983.650824 152.159423 
L 984.1583 140.055292 
L 984.665775 142.346794 
L 985.173251 141.446838 
L 985.680727 156.969828 
L 986.188203 156.035799 
L 987.203154 128.465718 
L 987.71063 137.679617 
L 988.218105 139.511139 
L 988.725581 136.475973 
L 989.233057 127.199861 
L 989.740533 124.704176 
L 990.755484 159.719601 
L 991.26296 157.269347 
L 991.770435 155.949163 
L 992.277911 148.393712 
L 992.785387 169.924819 
L 993.292863 166.435353 
L 993.800338 164.973201 
L 994.307814 157.133812 
L 994.81529 166.0297 
L 995.322765 170.55295 
L 995.830241 187.234405 
L 996.337717 182.132174 
L 996.845193 185.230058 
L 997.352668 187.362555 
L 997.860144 197.036431 
L 998.36762 191.911485 
L 998.875095 206.463409 
L 999.890047 186.764076 
L 1000.397523 190.668342 
L 1000.904998 183.266217 
L 1001.412474 180.798926 
L 1001.91995 180.875715 
L 1002.427426 161.173417 
L 1002.934901 160.619865 
L 1003.442377 163.081729 
L 1003.949853 160.608759 
L 1004.457328 161.009237 
L 1004.964804 174.533306 
L 1005.47228 176.052498 
L 1005.979756 177.168498 
L 1006.487231 174.525166 
L 1006.994707 177.407257 
L 1007.502183 176.524338 
L 1008.009658 179.366678 
L 1008.517134 183.571918 
L 1009.532086 207.025409 
L 1010.039561 222.502968 
L 1010.547037 215.731185 
L 1011.054513 206.409642 
L 1011.561988 213.635977 
L 1012.069464 202.400696 
L 1012.57694 201.631351 
L 1013.591891 181.914982 
L 1014.099367 176.619673 
L 1014.606843 195.652131 
L 1015.114318 195.666453 
L 1016.12927 183.866262 
L 1016.636746 188.781346 
L 1017.144221 189.28972 
L 1017.651697 195.249695 
L 1018.159173 195.803499 
L 1018.666648 189.537123 
L 1019.174124 187.8535 
L 1019.6816 178.015191 
L 1020.189076 181.289116 
L 1020.696551 193.893228 
L 1021.204027 215.447051 
L 1024.248881 211.193883 
L 1024.756357 218.45722 
L 1025.771309 241.967678 
L 1026.278784 240.008724 
L 1026.78626 226.555981 
L 1027.293736 210.110536 
L 1027.801211 212.731405 
L 1028.308687 218.197328 
L 1028.816163 214.105914 
L 1029.323639 215.329811 
L 1029.831114 223.35685 
L 1030.33859 238.272214 
L 1030.846066 258.042909 
L 1031.353541 267.137553 
L 1031.861017 243.908751 
L 1032.368493 225.938472 
L 1032.875969 215.759438 
L 1033.383444 217.483064 
L 1033.89092 208.865687 
L 1034.398396 178.612271 
L 1034.905871 156.672545 
L 1035.413347 166.357779 
L 1035.920823 173.453504 
L 1036.428299 183.047878 
L 1036.935774 181.063281 
L 1037.44325 190.248785 
L 1037.950726 204.136295 
L 1038.965677 261.764504 
L 1039.473153 285.75451 
L 1039.980629 283.332649 
L 1040.488104 275.090069 
L 1040.99558 264.547595 
L 1041.503056 266.163325 
L 1042.010531 243.116243 
L 1043.025483 213.268984 
L 1043.532959 226.656763 
L 1044.040434 230.822252 
L 1044.54791 233.954209 
L 1045.055386 224.93364 
L 1045.562862 218.309504 
L 1046.070337 207.863569 
L 1046.577813 204.941977 
L 1047.085289 184.319722 
L 1047.592764 180.614463 
L 1048.10024 175.989247 
L 1049.115192 176.290365 
L 1049.622667 197.898153 
L 1050.130143 199.193052 
L 1050.637619 204.502827 
L 1051.145094 207.949973 
L 1051.65257 207.632106 
L 1052.160046 196.848303 
L 1052.667522 200.803679 
L 1053.174997 186.55866 
L 1053.682473 180.564865 
L 1054.189949 170.686805 
L 1054.697424 166.112697 
L 1055.712376 152.455554 
L 1056.219852 139.431467 
L 1056.727327 138.440651 
L 1057.234803 145.911172 
L 1057.742279 141.802722 
L 1058.249754 148.972271 
L 1058.75723 144.568526 
L 1059.264706 146.161541 
L 1059.772182 153.830819 
L 1061.294609 142.402712 
L 1061.802084 127.862398 
L 1062.30956 135.066018 
L 1062.817036 148.561694 
L 1063.324512 152.534106 
L 1063.831987 153.598997 
L 1064.339463 148.996496 
L 1064.846939 161.328028 
L 1065.354414 178.566 
L 1065.86189 180.425917 
L 1066.369366 160.769049 
L 1066.876842 159.01728 
L 1067.384317 161.388284 
L 1067.891793 183.668987 
L 1068.906745 158.523732 
L 1069.41422 155.658929 
L 1069.921696 156.655675 
L 1070.429172 148.168909 
L 1070.936647 134.224863 
L 1071.444123 113.579893 
L 1071.951599 117.302439 
L 1072.459075 114.823791 
L 1072.96655 117.938711 
L 1073.474026 133.297017 
L 1073.981502 134.651525 
L 1074.488977 150.56067 
L 1075.503929 158.908684 
L 1076.011405 173.596898 
L 1076.51888 160.425162 
L 1077.026356 151.688531 
L 1077.533832 146.983812 
L 1078.041307 123.039488 
L 1078.548783 107.959692 
L 1079.056259 101.687638 
L 1079.563735 88.941809 
L 1080.07121 90.222493 
L 1080.578686 88.862559 
L 1081.086162 95.668667 
L 1081.593637 116.813619 
L 1082.101113 115.686513 
L 1082.608589 106.745447 
L 1083.116065 111.143764 
L 1083.62354 122.600769 
L 1084.131016 126.874154 
L 1084.638492 126.797617 
L 1085.145967 120.076942 
L 1085.653443 133.06153 
L 1086.160919 132.155896 
L 1086.668395 129.251341 
L 1087.17587 128.60125 
L 1087.683346 133.754841 
L 1088.190822 130.867323 
L 1088.698298 129.22345 
L 1089.205773 128.527929 
L 1089.713249 135.629332 
L 1090.220725 119.356999 
L 1090.7282 118.11064 
L 1091.235676 122.616854 
L 1091.743152 130.808577 
L 1092.758103 137.288283 
L 1093.265579 138.18849 
L 1093.773055 157.43674 
L 1094.28053 155.503252 
L 1094.788006 160.316118 
L 1095.295482 160.313405 
L 1095.802958 164.757153 
L 1096.310433 152.056754 
L 1097.325385 164.294712 
L 1097.83286 160.691671 
L 1098.340336 152.81821 
L 1099.355288 125.549103 
L 1099.862763 143.62753 
L 1100.370239 134.499065 
L 1100.877715 133.286778 
L 1101.38519 131.137497 
L 1101.892666 125.728613 
L 1102.400142 142.818938 
L 1102.907618 153.503632 
L 1103.415093 134.914369 
L 1103.922569 137.966823 
L 1104.430045 133.472218 
L 1104.93752 141.084709 
L 1105.444996 173.439514 
L 1105.952472 178.66693 
L 1106.459948 181.957891 
L 1106.967423 207.129077 
L 1108.48985 239.404632 
L 1108.997326 212.422176 
L 1109.504802 210.744231 
L 1110.012278 218.793986 
L 1110.519753 213.918904 
L 1111.027229 210.872381 
L 1111.534705 203.243106 
L 1112.042181 179.781475 
L 1112.549656 175.320943 
L 1113.057132 163.824438 
L 1113.564608 148.670819 
L 1114.579559 128.852233 
L 1115.087035 126.146434 
L 1115.594511 128.846806 
L 1116.101986 127.254042 
L 1116.609462 120.306217 
L 1117.116938 122.932765 
L 1117.624413 134.753209 
L 1118.131889 159.055547 
L 1118.639365 162.88599 
L 1119.146841 165.166134 
L 1119.654316 175.407886 
L 1120.161792 195.63856 
L 1120.669268 200.337851 
L 1121.176743 196.649629 
L 1121.684219 170.047649 
L 1122.191695 154.627129 
L 1122.699171 154.198509 
L 1123.714122 159.491356 
L 1124.221598 157.54651 
L 1124.729073 157.850449 
L 1125.236549 164.594091 
L 1125.744025 191.934559 
L 1126.251501 191.965918 
L 1126.758976 181.440481 
L 1127.266452 161.493996 
L 1127.773928 166.113786 
L 1128.281403 160.108633 
L 1128.788879 169.294137 
L 1129.296355 166.599696 
L 1129.803831 174.728953 
L 1130.311306 173.391733 
L 1130.818782 177.267606 
L 1131.326258 168.661586 
L 1131.833733 174.684027 
L 1132.848685 158.153436 
L 1133.356161 151.387331 
L 1133.863636 154.104739 
L 1134.371112 149.246694 
L 1134.878588 150.862425 
L 1135.386064 137.219353 
L 1135.893539 139.119021 
L 1136.401015 134.317763 
L 1136.908491 139.380495 
L 1137.415966 139.372103 
L 1137.923442 141.885076 
L 1138.430918 151.064901 
L 1138.938394 157.848294 
L 1139.445869 162.740663 
L 1139.953345 170.767703 
L 1140.460821 176.137087 
L 1141.475772 199.300961 
L 1141.983248 196.56109 
L 1142.998199 212.916142 
L 1143.505675 228.609495 
L 1144.013151 226.414783 
L 1144.520626 222.033753 
L 1145.028102 212.03644 
L 1145.535578 215.78738 
L 1146.043054 223.899601 
L 1146.550529 209.864695 
L 1147.058005 190.270293 
L 1147.565481 190.506087 
L 1148.072956 186.136415 
L 1148.580432 187.860041 
L 1149.087908 180.321626 
L 1149.595384 167.189642 
L 1150.610335 197.508742 
L 1151.117811 190.515486 
L 1151.625286 196.310777 
L 1152.132762 219.505758 
L 1152.640238 220.973841 
L 1153.147714 215.650139 
L 1154.162665 223.11216 
L 1154.670141 189.335098 
L 1155.177617 195.491007 
L 1155.685092 191.430844 
L 1156.192568 181.640823 
L 1156.700044 178.886773 
L 1157.207519 187.785518 
L 1157.714995 174.704643 
L 1158.222471 195.741699 
L 1158.729947 195.909348 
L 1159.237422 200.239521 
L 1159.744898 186.392014 
L 1160.759849 189.089672 
L 1161.267325 192.391991 
L 1162.282277 224.44311 
L 1162.789752 228.211086 
L 1163.297228 226.885224 
L 1163.804704 223.145893 
L 1164.312179 224.22782 
L 1165.327131 210.69561 
L 1165.834607 193.599859 
L 1166.342082 180.632558 
L 1167.357034 192.984092 
L 1167.864509 188.603062 
L 1168.371985 190.020036 
L 1168.879461 186.343171 
L 1169.386937 193.001632 
L 1169.894412 197.229587 
L 1170.401888 188.668997 
L 1170.909364 192.919667 
L 1171.416839 195.915334 
L 1171.924315 193.022136 
L 1172.431791 186.886373 
L 1172.939267 189.285771 
L 1173.954218 205.811186 
L 1174.461694 199.147298 
L 1174.969169 198.082658 
L 1175.476645 198.403633 
L 1175.984121 204.727048 
L 1176.491597 198.869543 
L 1176.999072 194.81788 
L 1177.506548 200.295161 
L 1178.014024 197.606398 
L 1179.536451 209.574742 
L 1180.551402 201.539562 
L 1181.058878 193.836463 
L 1181.566354 197.473829 
L 1182.07383 192.49653 
L 1182.581305 189.319395 
L 1183.088781 183.405103 
L 1183.596257 189.382113 
L 1184.103732 190.691191 
L 1184.611208 190.620332 
L 1185.118684 189.958884 
L 1185.62616 183.879908 
L 1186.133635 185.399099 
L 1186.641111 196.242799 
L 1187.148587 195.757391 
L 1187.656062 182.085926 
L 1188.163538 188.466128 
L 1188.671014 200.218427 
L 1189.17849 216.366079 
L 1189.685965 221.428811 
L 1190.193441 221.147839 
L 1190.700917 232.451517 
L 1191.208392 258.6392 
L 1191.715868 258.358227 
L 1192.223344 257.134583 
L 1192.73082 258.966105 
L 1193.238295 254.738402 
L 1193.745771 257.416058 
L 1194.253247 258.696742 
L 1194.760722 256.087483 
L 1195.268198 261.093427 
L 1196.28315 252.496051 
L 1196.790625 261.153431 
L 1197.298101 254.875699 
L 1198.820528 227.904852 
L 1199.328004 227.175258 
L 1199.83548 227.888068 
L 1200.342955 227.822888 
L 1200.850431 222.845589 
L 1201.357907 228.41373 
L 1201.865383 240.097884 
L 1202.372858 249.124383 
L 1203.38781 260.635462 
L 1203.895285 259.792293 
L 1204.910237 244.266842 
L 1205.925188 221.449875 
L 1206.432664 217.13699 
L 1206.94014 199.961736 
L 1207.447615 193.672646 
L 1207.955091 194.351382 
L 1208.462567 195.575279 
L 1208.970043 191.199928 
L 1209.477518 208.625299 
L 1209.984994 216.885167 
L 1210.49247 236.939799 
L 1210.999945 250.651268 
L 1211.507421 271.517961 
L 1212.014897 274.82028 
L 1212.522373 300.667238 
L 1213.029848 306.54771 
L 1213.537324 307.8 
L 1214.0448 304.957911 
L 1215.059751 290.874862 
L 1215.567227 291.246946 
L 1216.074703 263.372927 
L 1216.582178 251.427802 
L 1217.089654 249.108158 
L 1217.59713 241.978613 
L 1218.104605 237.688443 
L 1218.612081 235.170043 
L 1219.119557 241.243592 
L 1219.627033 241.246558 
L 1220.641984 244.460874 
L 1221.14946 247.510507 
L 1221.656936 255.529046 
L 1222.164411 258.277705 
L 1222.671887 259.856541 
L 1223.179363 246.863705 
L 1223.686838 259.845471 
L 1224.194314 258.05963 
L 1224.70179 241.202386 
L 1225.209266 219.506847 
L 1225.716741 215.602832 
L 1226.224217 214.311042 
L 1227.746644 214.961421 
L 1228.25412 204.100973 
L 1228.761596 201.287314 
L 1229.269071 207.866308 
L 1229.776547 210.890404 
L 1230.284023 211.767933 
L 1230.791498 196.131656 
L 1231.298974 190.137861 
L 1232.313926 189.632596 
L 1233.328877 168.740761 
L 1234.343828 165.265654 
L 1234.851304 178.43482 
L 1235.35878 172.642638 
L 1235.866256 170.743222 
L 1236.373731 166.140721 
L 1236.881207 174.701563 
L 1237.388683 180.553641 
L 1237.896158 178.046598 
L 1238.403634 163.188274 
L 1238.91111 159.562518 
L 1239.418586 189.123378 
L 1240.433537 206.761828 
L 1240.941013 204.277501 
L 1241.448488 191.934863 
L 1241.955964 198.042485 
L 1242.46344 208.210413 
L 1242.970916 180.200103 
L 1243.478391 181.253637 
L 1243.985867 164.282818 
L 1244.493343 161.525911 
L 1245.000819 176.872859 
L 1245.508294 171.986421 
L 1246.01577 174.913942 
L 1246.523246 185.598637 
L 1247.030721 182.716797 
L 1247.538197 196.297654 
L 1248.045673 204.256548 
L 1248.553149 197.297366 
L 1249.060624 209.310888 
L 1249.5681 208.956092 
L 1250.075576 208.254892 
L 1250.583051 212.346557 
L 1251.090527 203.604247 
L 1251.598003 201.30164 
L 1252.105479 214.371409 
L 1253.12043 249.278939 
L 1254.135381 263.981367 
L 1254.642857 255.735965 
L 1255.150333 252.493543 
L 1255.657809 278.070778 
L 1256.165284 276.338903 
L 1257.180236 230.097127 
L 1257.687711 211.167139 
L 1258.195187 206.615747 
L 1258.702663 206.919686 
L 1259.717614 145.356606 
L 1260.22509 155.166773 
L 1260.732566 158.395268 
L 1261.240041 155.320351 
L 1262.254993 159.596594 
L 1262.762469 160.511016 
L 1263.269944 159.727493 
L 1263.77742 179.092175 
L 1264.284896 162.941953 
L 1264.792371 152.220617 
L 1265.807323 141.07066 
L 1266.314799 138.075245 
L 1266.822274 150.412456 
L 1267.837226 148.652187 
L 1268.344702 154.620698 
L 1268.852177 158.30635 
L 1269.359653 164.615586 
L 1270.374604 188.114542 
L 1270.88208 175.411322 
L 1271.389556 174.028672 
L 1271.897032 169.159269 
L 1272.404507 171.933465 
L 1272.911983 161.907757 
L 1273.926934 136.796575 
L 1274.43441 138.219228 
L 1274.941886 142.498292 
L 1275.449362 155.448808 
L 1275.956837 163.453132 
L 1276.464313 179.027231 
L 1276.971789 185.174604 
L 1277.479264 187.738685 
L 1277.98674 195.277352 
L 1278.494216 198.216231 
L 1279.001692 185.57262 
L 1279.509167 177.023387 
L 1280.016643 178.105315 
L 1281.031594 173.642069 
L 1281.53907 168.454656 
L 1282.046546 156.026837 
L 1284.076449 180.008703 
L 1284.583924 174.264773 
L 1285.0914 176.153083 
L 1285.598876 180.494614 
L 1286.106352 168.208763 
L 1286.613827 173.24878 
L 1287.121303 157.856653 
L 1287.628779 146.218181 
L 1288.136255 150.996975 
L 1288.64373 151.522385 
L 1289.151206 146.738164 
L 1289.658682 146.64459 
L 1290.166157 127.947431 
L 1290.673633 113.674018 
L 1291.181109 115.954162 
L 1291.688585 109.364099 
L 1292.19606 107.260247 
L 1292.703536 100.164775 
L 1293.211012 110.883542 
L 1293.718487 110.69343 
L 1294.225963 113.876495 
L 1294.733439 115.96924 
L 1295.240915 115.432724 
L 1295.74839 104.424593 
L 1296.255866 113.570346 
L 1296.763342 104.799642 
L 1297.270817 98.834241 
L 1297.778293 99.842345 
L 1298.285769 95.614641 
L 1298.793245 95.123555 
L 1299.30072 103.985371 
L 1300.315672 66.886347 
L 1300.823147 79.780075 
L 1301.330623 75.927169 
L 1301.838099 73.136189 
L 1302.345575 84.127536 
L 1302.85305 64.203767 
L 1303.868002 106.033693 
L 1304.375477 105.122379 
L 1304.882953 97.260276 
L 1305.390429 93.895742 
L 1305.897905 73.12016 
L 1306.40538 99.27377 
L 1306.912856 97.811618 
L 1307.420332 95.423829 
L 1307.927807 102.207222 
L 1308.435283 118.423019 
L 1308.942759 127.273478 
L 1309.450235 138.582834 
L 1309.95771 127.160154 
L 1310.465186 120.757489 
L 1310.972662 123.225032 
L 1311.480138 116.742865 
L 1311.987613 112.997855 
L 1312.495089 121.825598 
L 1313.002565 118.909685 
L 1313.51004 118.878578 
L 1314.017516 124.560294 
L 1314.524992 118.3791 
L 1315.032468 103.980754 
L 1315.539943 113.722776 
L 1316.047419 111.346345 
L 1316.554895 116.573761 
L 1317.06237 120.631354 
L 1317.569846 126.665152 
L 1318.077322 138.542384 
L 1318.584798 162.293882 
L 1319.092273 159.190571 
L 1319.599749 151.487472 
L 1320.107225 156.493417 
L 1321.122176 140.002578 
L 1321.629652 136.990126 
L 1322.137128 127.691299 
L 1322.644603 123.298911 
L 1323.152079 135.318112 
L 1323.659555 123.872717 
L 1324.16703 141.246979 
L 1324.674506 151.971425 
L 1325.181982 157.085265 
L 1325.689458 148.944903 
L 1326.196933 146.926233 
L 1326.704409 169.451122 
L 1327.211885 165.405138 
L 1327.71936 149.4281 
L 1328.226836 137.125213 
L 1328.734312 137.673339 
L 1329.241788 146.359113 
L 1329.749263 145.476193 
L 1330.256739 118.43695 
L 1330.764215 133.085412 
L 1331.27169 134.604603 
L 1331.779166 156.300395 
L 1332.286642 143.719249 
L 1332.794118 143.568888 
L 1333.301593 144.22491 
L 1333.809069 135.039657 
L 1334.316545 119.045583 
L 1334.824021 131.21811 
L 1335.331496 119.988507 
L 1335.838972 122.177791 
L 1336.346448 133.839231 
L 1337.868875 151.19103 
L 1338.376351 140.563375 
L 1338.883826 139.351087 
L 1339.391302 153.550928 
L 1339.898778 149.834312 
L 1340.406253 141.830239 
L 1341.928681 164.258841 
L 1342.436156 158.696631 
L 1342.943632 147.82479 
L 1343.451108 132.069223 
L 1343.958583 135.223895 
L 1344.466059 132.966717 
L 1344.973535 139.517281 
L 1345.481011 134.994283 
L 1345.988486 141.056474 
L 1346.495962 145.142461 
L 1347.510913 154.932878 
L 1348.018389 166.032122 
L 1348.525865 168.045364 
L 1349.033341 159.694888 
L 1349.540816 158.834683 
L 1350.048292 151.353056 
L 1350.555768 156.960947 
L 1351.063243 150.728645 
L 1351.570719 137.284329 
L 1352.078195 134.873826 
L 1352.585671 152.702388 
L 1353.093146 151.058516 
L 1353.600622 165.371932 
L 1354.615574 178.92736 
L 1355.123049 178.430595 
L 1355.630525 177.212629 
L 1356.138001 170.537384 
L 1356.645476 175.940841 
L 1357.152952 167.096313 
L 1357.660428 161.602248 
L 1358.167904 158.794232 
L 1358.675379 157.905634 
L 1359.182855 155.932394 
L 1359.690331 165.174686 
L 1360.197806 159.192248 
L 1360.705282 163.942649 
L 1361.720234 166.532411 
L 1362.735185 177.345003 
L 1363.242661 172.185984 
L 1363.750136 174.114046 
L 1364.257612 169.806839 
L 1364.765088 181.502351 
L 1365.272564 197.337672 
L 1365.780039 198.141341 
L 1366.287515 188.183779 
L 1366.794991 187.414434 
L 1367.302466 189.297065 
L 1367.809942 194.126968 
L 1368.824894 156.073915 
L 1369.332369 156.326745 
L 1369.839845 159.044153 
L 1370.347321 154.986812 
L 1370.854796 154.296969 
L 1371.362272 164.084421 
L 1371.869748 165.84212 
L 1372.377224 165.021667 
L 1373.392175 141.409675 
L 1373.899651 143.598959 
L 1374.407126 133.772008 
L 1374.914602 108.748721 
L 1375.422078 112.567806 
L 1375.929554 105.892561 
L 1376.437029 106.247609 
L 1376.944505 111.480703 
L 1377.451981 111.165658 
L 1377.959457 125.422286 
L 1378.466932 133.227855 
L 1378.974408 133.571545 
L 1379.481884 146.067761 
L 1379.989359 150.273001 
L 1380.496835 156.903068 
L 1381.004311 153.231882 
L 1381.511787 141.048249 
L 1382.019262 133.719948 
L 1382.526738 131.587703 
L 1383.541689 110.190423 
L 1384.049165 111.669864 
L 1384.556641 109.236645 
L 1385.064117 111.153349 
L 1385.571592 114.932683 
L 1386.079068 123.533277 
L 1387.094019 145.799908 
L 1387.601495 144.070854 
L 1388.108971 146.430501 
L 1388.616447 145.672514 
L 1389.123922 150.286624 
L 1389.631398 140.601641 
L 1390.138874 146.107316 
L 1390.646349 149.591355 
L 1391.153825 157.237918 
L 1391.661301 174.140844 
L 1392.168777 185.506988 
L 1392.676252 188.542406 
L 1393.183728 190.101349 
L 1393.691204 196.526981 
L 1394.198679 207.478577 
L 1394.706155 207.118102 
L 1395.213631 196.42798 
L 1395.721107 190.95663 
L 1396.228582 190.232715 
L 1396.736058 193.273812 
L 1397.751009 184.034737 
L 1398.258485 183.219962 
L 1398.765961 194.824614 
L 1399.273437 215.055288 
L 1399.780912 229.260808 
L 1400.288388 253.199705 
L 1401.810815 238.364348 
L 1402.318291 237.674505 
L 1402.825767 218.477616 
L 1403.333242 206.640387 
L 1403.840718 183.229865 
L 1404.348194 193.346684 
L 1405.363145 200.882638 
L 1405.870621 191.623561 
L 1406.378097 194.33529 
L 1406.885572 194.502939 
L 1407.393048 194.335542 
L 1407.900524 188.540503 
L 1408.408 188.418536 
L 1408.915475 187.348218 
L 1409.422951 189.719222 
L 1409.930427 202.096184 
L 1410.437902 222.741406 
L 1410.945378 228.644593 
L 1411.452854 230.163784 
L 1411.96033 233.176487 
L 1412.467805 228.267334 
L 1412.975281 220.422266 
L 1413.990232 175.798898 
L 1414.497708 166.931656 
L 1415.005184 169.370805 
L 1415.51266 170.202868 
L 1416.020135 181.296432 
L 1416.527611 186.211516 
L 1417.035087 189.388903 
L 1418.050038 204.142548 
L 1418.557514 197.847779 
L 1419.06499 196.32316 
L 1419.572465 207.592766 
L 1420.587417 238.667139 
L 1421.094893 234.087353 
L 1421.602368 233.834774 
L 1422.109844 240.10708 
L 1422.61732 240.973215 
L 1423.124795 246.535677 
L 1423.632271 245.056488 
L 1424.139747 241.237655 
L 1425.154698 267.468054 
L 1425.662174 285.075145 
L 1426.16965 279.751442 
L 1426.677125 250.974501 
L 1427.184601 237.348466 
L 1427.692077 238.595078 
L 1428.199553 211.521762 
L 1428.707028 194.170466 
L 1429.214504 167.148259 
L 1429.72198 166.89568 
L 1430.229455 178.437866 
L 1430.736931 183.165552 
L 1431.244407 177.041145 
L 1431.751883 202.496269 
L 1432.259358 199.001124 
L 1432.766834 189.560328 
L 1433.27431 199.415925 
L 1433.781785 191.298277 
L 1434.289261 175.412099 
L 1434.796737 172.081638 
L 1435.304213 157.64922 
L 1435.811688 167.164092 
L 1436.319164 186.525917 
L 1436.82664 187.034291 
L 1437.334115 191.864194 
L 1437.841591 207.392862 
L 1438.349067 202.960724 
L 1438.856543 214.622163 
L 1439.364018 210.627288 
L 1439.871494 196.42202 
L 1440.37897 187.549099 
L 1440.886445 175.064492 
L 1441.393921 169.33192 
L 1441.901397 174.797843 
L 1442.408873 151.540647 
L 1442.916348 146.154478 
L 1443.423824 148.741275 
L 1443.9313 141.316435 
L 1444.438776 145.021945 
L 1444.946251 141.600624 
L 1445.453727 135.311534 
L 1445.961203 142.623051 
L 1446.468678 144.693081 
L 1446.976154 144.156565 
L 1447.48363 151.945097 
L 1447.991106 150.397763 
L 1448.498581 142.331225 
L 1449.006057 143.901525 
L 1449.513533 156.539709 
L 1450.021008 153.584046 
L 1450.528484 153.882306 
L 1451.03596 154.640545 
L 1451.543436 181.924226 
L 1452.558387 191.453421 
L 1453.573338 162.753269 
L 1454.080814 161.575054 
L 1454.58829 154.292183 
L 1455.095766 131.443857 
L 1455.603241 131.179921 
L 1456.110717 112.726948 
L 1456.618193 112.644732 
L 1457.125668 127.457878 
L 1457.633144 132.412713 
L 1458.14062 131.563866 
L 1459.155571 123.608189 
L 1459.663047 154.321835 
L 1460.677998 171.403768 
L 1461.185474 161.838039 
L 1461.69295 160.001089 
L 1462.200426 158.947807 
L 1462.707901 157.593551 
L 1463.215377 136.835005 
L 1463.722853 129.915574 
L 1464.230328 106.141612 
L 1464.737804 105.031542 
L 1465.24528 109.696761 
L 1466.260231 113.348449 
L 1466.767707 114.737029 
L 1467.275183 107.891422 
L 1467.782659 115.731063 
L 1468.290134 120.509857 
L 1468.79761 120.013092 
L 1469.305086 115.563917 
L 1470.827513 88.77479 
L 1471.334989 84.796952 
L 1471.842464 89.246378 
L 1472.34994 79.572753 
L 1472.857416 84.414014 
L 1473.364891 94.184429 
L 1473.872367 99.815036 
L 1474.379843 117.217692 
L 1474.887319 125.88643 
L 1475.394794 109.82989 
L 1475.90227 121.690085 
L 1476.409746 114.889908 
L 1476.917221 115.846903 
L 1477.424697 119.370694 
L 1477.932173 101.593492 
L 1478.439649 118.507775 
L 1478.947124 126.478027 
L 1479.962076 126.44692 
L 1480.469551 129.800348 
L 1480.977027 139.695696 
L 1481.991979 166.726799 
L 1482.499454 149.449327 
L 1483.00693 152.706216 
L 1483.514406 154.781925 
L 1484.021881 154.1943 
L 1484.529357 151.198886 
L 1485.544309 126.973481 
L 1486.051784 121.732138 
L 1486.55926 135.679293 
L 1487.066736 131.443089 
L 1487.574212 133.896453 
L 1488.081687 124.935529 
L 1488.589163 126.332645 
L 1489.604114 137.338315 
L 1490.11159 114.717139 
L 1490.619066 115.912642 
L 1491.126542 102.712513 
L 1491.634017 103.198172 
L 1492.648969 81.045619 
L 1494.171396 63.876295 
L 1494.678872 65.054762 
L 1495.693823 59.029859 
L 1496.201299 63.729151 
L 1496.708774 75.049866 
L 1497.21625 74.893826 
L 1497.723726 84.556345 
L 1498.231202 89.715616 
L 1498.738677 106.345962 
L 1499.753629 132.479822 
L 1500.261104 118.399487 
L 1500.76858 127.034152 
L 1501.276056 130.779414 
L 1501.783532 131.901093 
L 1502.291007 134.368636 
L 1502.798483 142.770473 
L 1503.305959 119.876717 
L 1503.813434 128.585206 
L 1504.32091 133.716083 
L 1504.828386 131.004606 
L 1505.335862 131.035965 
L 1505.843337 132.22011 
L 1506.350813 113.738743 
L 1506.858289 129.449131 
L 1507.365764 122.921534 
L 1507.87324 118.040774 
L 1508.380716 126.760621 
L 1509.395667 121.5221 
L 1509.903143 122.149727 
L 1510.410619 122.550205 
L 1510.918095 129.810613 
L 1511.42557 143.788983 
L 1511.933046 140.361983 
L 1512.440522 135.90145 
L 1512.947997 142.400906 
L 1513.455473 131.142909 
L 1513.962949 134.643985 
L 1514.470425 126.429798 
L 1514.9779 115.722641 
L 1515.485376 120.279964 
L 1515.992852 112.491684 
L 1516.500327 128.190714 
L 1517.007803 125.677993 
L 1517.515279 134.732886 
L 1518.022755 137.654729 
L 1518.53023 148.03845 
L 1519.037706 154.941097 
L 1519.545182 171.753163 
L 1520.052657 161.148223 
L 1520.560133 171.628482 
L 1521.067609 158.337493 
L 1521.575085 169.686601 
L 1522.08256 174.692545 
L 1522.590036 183.344247 
L 1523.097512 186.532991 
L 1523.604987 209.455393 
L 1524.112463 206.153325 
L 1524.619939 221.840999 
L 1525.127415 218.6809 
L 1525.63489 209.064062 
L 1526.142366 201.639222 
L 1526.649842 186.281168 
L 1527.157317 157.203253 
L 1527.664793 160.255707 
L 1528.172269 154.994471 
L 1528.679745 146.16698 
L 1529.18722 140.848956 
L 1529.694696 132.86192 
L 1530.709647 124.582554 
L 1531.724599 113.049264 
L 1532.232075 110.121994 
L 1532.73955 120.613611 
L 1533.247026 126.755305 
L 1533.754502 137.462714 
L 1534.261978 145.359142 
L 1534.769453 135.40158 
L 1535.276929 137.800978 
L 1535.784405 143.692807 
L 1536.29188 135.768237 
L 1536.799356 131.841507 
L 1537.306832 119.8112 
L 1537.814308 111.398258 
L 1538.321783 130.470466 
L 1538.829259 130.075919 
L 1539.336735 131.879048 
L 1539.84421 131.342532 
L 1540.351686 131.294388 
L 1540.859162 148.316568 
L 1541.366638 138.790591 
L 1541.874113 144.835746 
L 1542.381589 156.088315 
L 1542.889065 150.582893 
L 1543.39654 142.953618 
L 1543.904016 150.691041 
L 1544.411492 136.542561 
L 1544.918968 154.785672 
L 1545.933919 119.469776 
L 1546.441395 133.118778 
L 1546.94887 130.18015 
L 1547.456346 121.858068 
L 1547.963822 118.641182 
L 1548.471298 110.909689 
L 1548.978773 124.138463 
L 1549.486249 134.277998 
L 1549.993725 123.6617 
L 1551.008676 133.525833 
L 1551.516152 134.445935 
L 1552.531103 150.454619 
L 1553.038579 148.410413 
L 1553.546055 149.449768 
L 1554.053531 149.620275 
L 1554.561006 140.111333 
L 1555.068482 140.449345 
L 1555.575958 141.13376 
L 1556.590909 133.768673 
L 1556.590909 133.768673 
" clip-path="url(#p745ccff336)" style="fill: none; stroke: #32b25e; stroke-width: 2.5; stroke-linecap: square"/>
   </g>
   <g id="patch_3">
    <path d="M 225 320.4 
L 225 43.2 
" style="fill: none; stroke: #000000; stroke-width: 0.8; stroke-linejoin: miter; stroke-linecap: square"/>
   </g>
   <g id="patch_4">
    <path d="M 1620 320.4 
L 1620 43.2 
" style="fill: none; stroke: #000000; stroke-width: 0.8; stroke-linejoin: miter; stroke-linecap: square"/>
   </g>
   <g id="patch_5">
    <path d="M 225 320.4 
L 1620 320.4 
" style="fill: none; stroke: #000000; stroke-width: 0.8; stroke-linejoin: miter; stroke-linecap: square"/>
   </g>
   <g id="patch_6">
    <path d="M 225 43.2 
L 1620 43.2 
" style="fill: none; stroke: #000000; stroke-width: 0.8; stroke-linejoin: miter; stroke-linecap: square"/>
   </g>
   <g id="text_18">
    <!-- VLCH -->
    <g transform="translate(895.584375 37.2) scale(0.2 -0.2)">
     <defs>
      <path id="DejaVuSans-56" d="M 1831 0 
L 50 4666 
L 709 4666 
L 2188 738 
L 3669 4666 
L 4325 4666 
L 2547 0 
L 1831 0 
z
" transform="scale(0.015625)"/>
      <path id="DejaVuSans-4c" d="M 628 4666 
L 1259 4666 
L 1259 531 
L 3531 531 
L 3531 0 
L 628 0 
L 628 4666 
z
" transform="scale(0.015625)"/>
      <path id="DejaVuSans-43" d="M 4122 4306 
L 4122 3641 
Q 3803 3938 3442 4084 
Q 3081 4231 2675 4231 
Q 1875 4231 1450 3742 
Q 1025 3253 1025 2328 
Q 1025 1406 1450 917 
Q 1875 428 2675 428 
Q 3081 428 3442 575 
Q 3803 722 4122 1019 
L 4122 359 
Q 3791 134 3420 21 
Q 3050 -91 2638 -91 
Q 1578 -91 968 557 
Q 359 1206 359 2328 
Q 359 3453 968 4101 
Q 1578 4750 2638 4750 
Q 3056 4750 3426 4639 
Q 3797 4528 4122 4306 
z
" transform="scale(0.015625)"/>
      <path id="DejaVuSans-48" d="M 628 4666 
L 1259 4666 
L 1259 2753 
L 3553 2753 
L 3553 4666 
L 4184 4666 
L 4184 0 
L 3553 0 
L 3553 2222 
L 1259 2222 
L 1259 0 
L 628 0 
L 628 4666 
z
" transform="scale(0.015625)"/>
     </defs>
     <use xlink:href="#DejaVuSans-56"/>
     <use xlink:href="#DejaVuSans-4c" x="68.408203"/>
     <use xlink:href="#DejaVuSans-43" x="124.121094"/>
     <use xlink:href="#DejaVuSans-48" x="193.945312"/>
    </g>
   </g>
   <g id="legend_1">
    <g id="patch_7">
     <path d="M 1560.467187 65.878125 
L 1613 65.878125 
Q 1615 65.878125 1615 63.878125 
L 1615 50.2 
Q 1615 48.2 1613 48.2 
L 1560.467187 48.2 
Q 1558.467187 48.2 1558.467187 50.2 
L 1558.467187 63.878125 
Q 1558.467187 65.878125 1560.467187 65.878125 
z
" style="fill: #ffffff; opacity: 0.8; stroke: #cccccc; stroke-linejoin: miter"/>
    </g>
    <g id="line2d_17">
     <path d="M 1562.467187 56.298437 
L 1572.467187 56.298437 
L 1582.467187 56.298437 
" style="fill: none; stroke: #32b25e; stroke-width: 2.5; stroke-linecap: square"/>
    </g>
    <g id="text_19">
     <!-- vlch -->
     <g transform="translate(1590.467187 59.798437) scale(0.1 -0.1)">
      <defs>
       <path id="DejaVuSans-76" d="M 191 3500 
L 800 3500 
L 1894 563 
L 2988 3500 
L 3597 3500 
L 2284 0 
L 1503 0 
L 191 3500 
z
" transform="scale(0.015625)"/>
       <path id="DejaVuSans-6c" d="M 603 4863 
L 1178 4863 
L 1178 0 
L 603 0 
L 603 4863 
z
" transform="scale(0.015625)"/>
       <path id="DejaVuSans-63" d="M 3122 3366 
L 3122 2828 
Q 2878 2963 2633 3030 
Q 2388 3097 2138 3097 
Q 1578 3097 1268 2742 
Q 959 2388 959 1747 
Q 959 1106 1268 751 
Q 1578 397 2138 397 
Q 2388 397 2633 464 
Q 2878 531 3122 666 
L 3122 134 
Q 2881 22 2623 -34 
Q 2366 -91 2075 -91 
Q 1284 -91 818 406 
Q 353 903 353 1747 
Q 353 2603 823 3093 
Q 1294 3584 2113 3584 
Q 2378 3584 2631 3529 
Q 2884 3475 3122 3366 
z
" transform="scale(0.015625)"/>
      </defs>
      <use xlink:href="#DejaVuSans-76"/>
      <use xlink:href="#DejaVuSans-6c" x="59.179688"/>
      <use xlink:href="#DejaVuSans-63" x="86.962891"/>
      <use xlink:href="#DejaVuSans-68" x="141.943359"/>
     </g>
    </g>
   </g>
  </g>
 </g>
 <defs>
  <clipPath id="p745ccff336">
   <rect x="225" y="43.2" width="1395" height="277.2"/>
  </clipPath>
 </defs>
</svg>
