<?xml version="1.0" encoding="utf-8" standalone="no"?>
<!DOCTYPE svg PUBLIC "-//W3C//DTD SVG 1.1//EN"
  "http://www.w3.org/Graphics/SVG/1.1/DTD/svg11.dtd">
<svg xmlns:xlink="http://www.w3.org/1999/xlink" width="1800pt" height="360pt" viewBox="0 0 1800 360" xmlns="http://www.w3.org/2000/svg" version="1.1">
 <metadata>
  <rdf:RDF xmlns:dc="http://purl.org/dc/elements/1.1/" xmlns:cc="http://creativecommons.org/ns#" xmlns:rdf="http://www.w3.org/1999/02/22-rdf-syntax-ns#">
   <cc:Work>
    <dc:type rdf:resource="http://purl.org/dc/dcmitype/StillImage"/>
    <dc:date>2024-03-25T14:06:00.254930</dc:date>
    <dc:format>image/svg+xml</dc:format>
    <dc:creator>
     <cc:Agent>
      <dc:title>Matplotlib v3.7.2, https://matplotlib.org/</dc:title>
     </cc:Agent>
    </dc:creator>
   </cc:Work>
  </rdf:RDF>
 </metadata>
 <defs>
  <style type="text/css">*{stroke-linejoin: round; stroke-linecap: butt}</style>
 </defs>
 <g id="figure_1">
  <g id="patch_1">
   <path d="M 0 360 
L 1800 360 
L 1800 0 
L 0 0 
z
" style="fill: #ffffff"/>
  </g>
  <g id="axes_1">
   <g id="patch_2">
    <path d="M 225 320.4 
L 1620 320.4 
L 1620 43.2 
L 225 43.2 
z
" style="fill: #ffffff"/>
   </g>
   <g id="matplotlib.axis_1">
    <g id="xtick_1">
     <g id="line2d_1">
      <defs>
       <path id="m0f05137789" d="M 0 0 
L 0 3.5 
" style="stroke: #000000; stroke-width: 0.8"/>
      </defs>
      <g>
       <use xlink:href="#m0f05137789" x="281.45888" y="320.4" style="stroke: #000000; stroke-width: 0.8"/>
      </g>
     </g>
     <g id="text_1">
      <!-- 2011 -->
      <g transform="translate(262.37138 338.797656) scale(0.15 -0.15)">
       <defs>
        <path id="DejaVuSans-32" d="M 1228 531 
L 3431 531 
L 3431 0 
L 469 0 
L 469 531 
Q 828 903 1448 1529 
Q 2069 2156 2228 2338 
Q 2531 2678 2651 2914 
Q 2772 3150 2772 3378 
Q 2772 3750 2511 3984 
Q 2250 4219 1831 4219 
Q 1534 4219 1204 4116 
Q 875 4013 500 3803 
L 500 4441 
Q 881 4594 1212 4672 
Q 1544 4750 1819 4750 
Q 2544 4750 2975 4387 
Q 3406 4025 3406 3419 
Q 3406 3131 3298 2873 
Q 3191 2616 2906 2266 
Q 2828 2175 2409 1742 
Q 1991 1309 1228 531 
z
" transform="scale(0.015625)"/>
        <path id="DejaVuSans-30" d="M 2034 4250 
Q 1547 4250 1301 3770 
Q 1056 3291 1056 2328 
Q 1056 1369 1301 889 
Q 1547 409 2034 409 
Q 2525 409 2770 889 
Q 3016 1369 3016 2328 
Q 3016 3291 2770 3770 
Q 2525 4250 2034 4250 
z
M 2034 4750 
Q 2819 4750 3233 4129 
Q 3647 3509 3647 2328 
Q 3647 1150 3233 529 
Q 2819 -91 2034 -91 
Q 1250 -91 836 529 
Q 422 1150 422 2328 
Q 422 3509 836 4129 
Q 1250 4750 2034 4750 
z
" transform="scale(0.015625)"/>
        <path id="DejaVuSans-31" d="M 794 531 
L 1825 531 
L 1825 4091 
L 703 3866 
L 703 4441 
L 1819 4666 
L 2450 4666 
L 2450 531 
L 3481 531 
L 3481 0 
L 794 0 
L 794 531 
z
" transform="scale(0.015625)"/>
       </defs>
       <use xlink:href="#DejaVuSans-32"/>
       <use xlink:href="#DejaVuSans-30" x="63.623047"/>
       <use xlink:href="#DejaVuSans-31" x="127.246094"/>
       <use xlink:href="#DejaVuSans-31" x="190.869141"/>
      </g>
     </g>
    </g>
    <g id="xtick_2">
     <g id="line2d_2">
      <g>
       <use xlink:href="#m0f05137789" x="450.580679" y="320.4" style="stroke: #000000; stroke-width: 0.8"/>
      </g>
     </g>
     <g id="text_2">
      <!-- 2012 -->
      <g transform="translate(431.493179 338.797656) scale(0.15 -0.15)">
       <use xlink:href="#DejaVuSans-32"/>
       <use xlink:href="#DejaVuSans-30" x="63.623047"/>
       <use xlink:href="#DejaVuSans-31" x="127.246094"/>
       <use xlink:href="#DejaVuSans-32" x="190.869141"/>
      </g>
     </g>
    </g>
    <g id="xtick_3">
     <g id="line2d_3">
      <g>
       <use xlink:href="#m0f05137789" x="620.165825" y="320.4" style="stroke: #000000; stroke-width: 0.8"/>
      </g>
     </g>
     <g id="text_3">
      <!-- 2013 -->
      <g transform="translate(601.078325 338.797656) scale(0.15 -0.15)">
       <defs>
        <path id="DejaVuSans-33" d="M 2597 2516 
Q 3050 2419 3304 2112 
Q 3559 1806 3559 1356 
Q 3559 666 3084 287 
Q 2609 -91 1734 -91 
Q 1441 -91 1130 -33 
Q 819 25 488 141 
L 488 750 
Q 750 597 1062 519 
Q 1375 441 1716 441 
Q 2309 441 2620 675 
Q 2931 909 2931 1356 
Q 2931 1769 2642 2001 
Q 2353 2234 1838 2234 
L 1294 2234 
L 1294 2753 
L 1863 2753 
Q 2328 2753 2575 2939 
Q 2822 3125 2822 3475 
Q 2822 3834 2567 4026 
Q 2313 4219 1838 4219 
Q 1578 4219 1281 4162 
Q 984 4106 628 3988 
L 628 4550 
Q 988 4650 1302 4700 
Q 1616 4750 1894 4750 
Q 2613 4750 3031 4423 
Q 3450 4097 3450 3541 
Q 3450 3153 3228 2886 
Q 3006 2619 2597 2516 
z
" transform="scale(0.015625)"/>
       </defs>
       <use xlink:href="#DejaVuSans-32"/>
       <use xlink:href="#DejaVuSans-30" x="63.623047"/>
       <use xlink:href="#DejaVuSans-31" x="127.246094"/>
       <use xlink:href="#DejaVuSans-33" x="190.869141"/>
      </g>
     </g>
    </g>
    <g id="xtick_4">
     <g id="line2d_4">
      <g>
       <use xlink:href="#m0f05137789" x="789.287624" y="320.4" style="stroke: #000000; stroke-width: 0.8"/>
      </g>
     </g>
     <g id="text_4">
      <!-- 2014 -->
      <g transform="translate(770.200124 338.797656) scale(0.15 -0.15)">
       <defs>
        <path id="DejaVuSans-34" d="M 2419 4116 
L 825 1625 
L 2419 1625 
L 2419 4116 
z
M 2253 4666 
L 3047 4666 
L 3047 1625 
L 3713 1625 
L 3713 1100 
L 3047 1100 
L 3047 0 
L 2419 0 
L 2419 1100 
L 313 1100 
L 313 1709 
L 2253 4666 
z
" transform="scale(0.015625)"/>
       </defs>
       <use xlink:href="#DejaVuSans-32"/>
       <use xlink:href="#DejaVuSans-30" x="63.623047"/>
       <use xlink:href="#DejaVuSans-31" x="127.246094"/>
       <use xlink:href="#DejaVuSans-34" x="190.869141"/>
      </g>
     </g>
    </g>
    <g id="xtick_5">
     <g id="line2d_5">
      <g>
       <use xlink:href="#m0f05137789" x="958.409423" y="320.4" style="stroke: #000000; stroke-width: 0.8"/>
      </g>
     </g>
     <g id="text_5">
      <!-- 2015 -->
      <g transform="translate(939.321923 338.797656) scale(0.15 -0.15)">
       <defs>
        <path id="DejaVuSans-35" d="M 691 4666 
L 3169 4666 
L 3169 4134 
L 1269 4134 
L 1269 2991 
Q 1406 3038 1543 3061 
Q 1681 3084 1819 3084 
Q 2600 3084 3056 2656 
Q 3513 2228 3513 1497 
Q 3513 744 3044 326 
Q 2575 -91 1722 -91 
Q 1428 -91 1123 -41 
Q 819 9 494 109 
L 494 744 
Q 775 591 1075 516 
Q 1375 441 1709 441 
Q 2250 441 2565 725 
Q 2881 1009 2881 1497 
Q 2881 1984 2565 2268 
Q 2250 2553 1709 2553 
Q 1456 2553 1204 2497 
Q 953 2441 691 2322 
L 691 4666 
z
" transform="scale(0.015625)"/>
       </defs>
       <use xlink:href="#DejaVuSans-32"/>
       <use xlink:href="#DejaVuSans-30" x="63.623047"/>
       <use xlink:href="#DejaVuSans-31" x="127.246094"/>
       <use xlink:href="#DejaVuSans-35" x="190.869141"/>
      </g>
     </g>
    </g>
    <g id="xtick_6">
     <g id="line2d_6">
      <g>
       <use xlink:href="#m0f05137789" x="1127.531222" y="320.4" style="stroke: #000000; stroke-width: 0.8"/>
      </g>
     </g>
     <g id="text_6">
      <!-- 2016 -->
      <g transform="translate(1108.443722 338.797656) scale(0.15 -0.15)">
       <defs>
        <path id="DejaVuSans-36" d="M 2113 2584 
Q 1688 2584 1439 2293 
Q 1191 2003 1191 1497 
Q 1191 994 1439 701 
Q 1688 409 2113 409 
Q 2538 409 2786 701 
Q 3034 994 3034 1497 
Q 3034 2003 2786 2293 
Q 2538 2584 2113 2584 
z
M 3366 4563 
L 3366 3988 
Q 3128 4100 2886 4159 
Q 2644 4219 2406 4219 
Q 1781 4219 1451 3797 
Q 1122 3375 1075 2522 
Q 1259 2794 1537 2939 
Q 1816 3084 2150 3084 
Q 2853 3084 3261 2657 
Q 3669 2231 3669 1497 
Q 3669 778 3244 343 
Q 2819 -91 2113 -91 
Q 1303 -91 875 529 
Q 447 1150 447 2328 
Q 447 3434 972 4092 
Q 1497 4750 2381 4750 
Q 2619 4750 2861 4703 
Q 3103 4656 3366 4563 
z
" transform="scale(0.015625)"/>
       </defs>
       <use xlink:href="#DejaVuSans-32"/>
       <use xlink:href="#DejaVuSans-30" x="63.623047"/>
       <use xlink:href="#DejaVuSans-31" x="127.246094"/>
       <use xlink:href="#DejaVuSans-36" x="190.869141"/>
      </g>
     </g>
    </g>
    <g id="xtick_7">
     <g id="line2d_7">
      <g>
       <use xlink:href="#m0f05137789" x="1297.116368" y="320.4" style="stroke: #000000; stroke-width: 0.8"/>
      </g>
     </g>
     <g id="text_7">
      <!-- 2017 -->
      <g transform="translate(1278.028868 338.797656) scale(0.15 -0.15)">
       <defs>
        <path id="DejaVuSans-37" d="M 525 4666 
L 3525 4666 
L 3525 4397 
L 1831 0 
L 1172 0 
L 2766 4134 
L 525 4134 
L 525 4666 
z
" transform="scale(0.015625)"/>
       </defs>
       <use xlink:href="#DejaVuSans-32"/>
       <use xlink:href="#DejaVuSans-30" x="63.623047"/>
       <use xlink:href="#DejaVuSans-31" x="127.246094"/>
       <use xlink:href="#DejaVuSans-37" x="190.869141"/>
      </g>
     </g>
    </g>
    <g id="xtick_8">
     <g id="line2d_8">
      <g>
       <use xlink:href="#m0f05137789" x="1466.238167" y="320.4" style="stroke: #000000; stroke-width: 0.8"/>
      </g>
     </g>
     <g id="text_8">
      <!-- 2018 -->
      <g transform="translate(1447.150667 338.797656) scale(0.15 -0.15)">
       <defs>
        <path id="DejaVuSans-38" d="M 2034 2216 
Q 1584 2216 1326 1975 
Q 1069 1734 1069 1313 
Q 1069 891 1326 650 
Q 1584 409 2034 409 
Q 2484 409 2743 651 
Q 3003 894 3003 1313 
Q 3003 1734 2745 1975 
Q 2488 2216 2034 2216 
z
M 1403 2484 
Q 997 2584 770 2862 
Q 544 3141 544 3541 
Q 544 4100 942 4425 
Q 1341 4750 2034 4750 
Q 2731 4750 3128 4425 
Q 3525 4100 3525 3541 
Q 3525 3141 3298 2862 
Q 3072 2584 2669 2484 
Q 3125 2378 3379 2068 
Q 3634 1759 3634 1313 
Q 3634 634 3220 271 
Q 2806 -91 2034 -91 
Q 1263 -91 848 271 
Q 434 634 434 1313 
Q 434 1759 690 2068 
Q 947 2378 1403 2484 
z
M 1172 3481 
Q 1172 3119 1398 2916 
Q 1625 2713 2034 2713 
Q 2441 2713 2670 2916 
Q 2900 3119 2900 3481 
Q 2900 3844 2670 4047 
Q 2441 4250 2034 4250 
Q 1625 4250 1398 4047 
Q 1172 3844 1172 3481 
z
" transform="scale(0.015625)"/>
       </defs>
       <use xlink:href="#DejaVuSans-32"/>
       <use xlink:href="#DejaVuSans-30" x="63.623047"/>
       <use xlink:href="#DejaVuSans-31" x="127.246094"/>
       <use xlink:href="#DejaVuSans-38" x="190.869141"/>
      </g>
     </g>
    </g>
    <g id="text_9">
     <!-- Time -->
     <g transform="translate(904.149609 357.314844) scale(0.15 -0.15)">
      <defs>
       <path id="DejaVuSans-54" d="M -19 4666 
L 3928 4666 
L 3928 4134 
L 2272 4134 
L 2272 0 
L 1638 0 
L 1638 4134 
L -19 4134 
L -19 4666 
z
" transform="scale(0.015625)"/>
       <path id="DejaVuSans-69" d="M 603 3500 
L 1178 3500 
L 1178 0 
L 603 0 
L 603 3500 
z
M 603 4863 
L 1178 4863 
L 1178 4134 
L 603 4134 
L 603 4863 
z
" transform="scale(0.015625)"/>
       <path id="DejaVuSans-6d" d="M 3328 2828 
Q 3544 3216 3844 3400 
Q 4144 3584 4550 3584 
Q 5097 3584 5394 3201 
Q 5691 2819 5691 2113 
L 5691 0 
L 5113 0 
L 5113 2094 
Q 5113 2597 4934 2840 
Q 4756 3084 4391 3084 
Q 3944 3084 3684 2787 
Q 3425 2491 3425 1978 
L 3425 0 
L 2847 0 
L 2847 2094 
Q 2847 2600 2669 2842 
Q 2491 3084 2119 3084 
Q 1678 3084 1418 2786 
Q 1159 2488 1159 1978 
L 1159 0 
L 581 0 
L 581 3500 
L 1159 3500 
L 1159 2956 
Q 1356 3278 1631 3431 
Q 1906 3584 2284 3584 
Q 2666 3584 2933 3390 
Q 3200 3197 3328 2828 
z
" transform="scale(0.015625)"/>
       <path id="DejaVuSans-65" d="M 3597 1894 
L 3597 1613 
L 953 1613 
Q 991 1019 1311 708 
Q 1631 397 2203 397 
Q 2534 397 2845 478 
Q 3156 559 3463 722 
L 3463 178 
Q 3153 47 2828 -22 
Q 2503 -91 2169 -91 
Q 1331 -91 842 396 
Q 353 884 353 1716 
Q 353 2575 817 3079 
Q 1281 3584 2069 3584 
Q 2775 3584 3186 3129 
Q 3597 2675 3597 1894 
z
M 3022 2063 
Q 3016 2534 2758 2815 
Q 2500 3097 2075 3097 
Q 1594 3097 1305 2825 
Q 1016 2553 972 2059 
L 3022 2063 
z
" transform="scale(0.015625)"/>
      </defs>
      <use xlink:href="#DejaVuSans-54"/>
      <use xlink:href="#DejaVuSans-69" x="57.958984"/>
      <use xlink:href="#DejaVuSans-6d" x="85.742188"/>
      <use xlink:href="#DejaVuSans-65" x="183.154297"/>
     </g>
    </g>
   </g>
   <g id="matplotlib.axis_2">
    <g id="ytick_1">
     <g id="line2d_9">
      <defs>
       <path id="m08f36efc8b" d="M 0 0 
L -3.5 0 
" style="stroke: #000000; stroke-width: 0.8"/>
      </defs>
      <g>
       <use xlink:href="#m08f36efc8b" x="225" y="297.382981" style="stroke: #000000; stroke-width: 0.8"/>
      </g>
     </g>
     <g id="text_10">
      <!-- −0.008 -->
      <g transform="translate(162.488281 303.081809) scale(0.15 -0.15)">
       <defs>
        <path id="DejaVuSans-2212" d="M 678 2272 
L 4684 2272 
L 4684 1741 
L 678 1741 
L 678 2272 
z
" transform="scale(0.015625)"/>
        <path id="DejaVuSans-2e" d="M 684 794 
L 1344 794 
L 1344 0 
L 684 0 
L 684 794 
z
" transform="scale(0.015625)"/>
       </defs>
       <use xlink:href="#DejaVuSans-2212"/>
       <use xlink:href="#DejaVuSans-30" x="83.789062"/>
       <use xlink:href="#DejaVuSans-2e" x="147.412109"/>
       <use xlink:href="#DejaVuSans-30" x="179.199219"/>
       <use xlink:href="#DejaVuSans-30" x="242.822266"/>
       <use xlink:href="#DejaVuSans-38" x="306.445312"/>
      </g>
     </g>
    </g>
    <g id="ytick_2">
     <g id="line2d_10">
      <g>
       <use xlink:href="#m08f36efc8b" x="225" y="264.402737" style="stroke: #000000; stroke-width: 0.8"/>
      </g>
     </g>
     <g id="text_11">
      <!-- −0.006 -->
      <g transform="translate(162.488281 270.101566) scale(0.15 -0.15)">
       <use xlink:href="#DejaVuSans-2212"/>
       <use xlink:href="#DejaVuSans-30" x="83.789062"/>
       <use xlink:href="#DejaVuSans-2e" x="147.412109"/>
       <use xlink:href="#DejaVuSans-30" x="179.199219"/>
       <use xlink:href="#DejaVuSans-30" x="242.822266"/>
       <use xlink:href="#DejaVuSans-36" x="306.445312"/>
      </g>
     </g>
    </g>
    <g id="ytick_3">
     <g id="line2d_11">
      <g>
       <use xlink:href="#m08f36efc8b" x="225" y="231.422494" style="stroke: #000000; stroke-width: 0.8"/>
      </g>
     </g>
     <g id="text_12">
      <!-- −0.004 -->
      <g transform="translate(162.488281 237.121322) scale(0.15 -0.15)">
       <use xlink:href="#DejaVuSans-2212"/>
       <use xlink:href="#DejaVuSans-30" x="83.789062"/>
       <use xlink:href="#DejaVuSans-2e" x="147.412109"/>
       <use xlink:href="#DejaVuSans-30" x="179.199219"/>
       <use xlink:href="#DejaVuSans-30" x="242.822266"/>
       <use xlink:href="#DejaVuSans-34" x="306.445312"/>
      </g>
     </g>
    </g>
    <g id="ytick_4">
     <g id="line2d_12">
      <g>
       <use xlink:href="#m08f36efc8b" x="225" y="198.44225" style="stroke: #000000; stroke-width: 0.8"/>
      </g>
     </g>
     <g id="text_13">
      <!-- −0.002 -->
      <g transform="translate(162.488281 204.141078) scale(0.15 -0.15)">
       <use xlink:href="#DejaVuSans-2212"/>
       <use xlink:href="#DejaVuSans-30" x="83.789062"/>
       <use xlink:href="#DejaVuSans-2e" x="147.412109"/>
       <use xlink:href="#DejaVuSans-30" x="179.199219"/>
       <use xlink:href="#DejaVuSans-30" x="242.822266"/>
       <use xlink:href="#DejaVuSans-32" x="306.445312"/>
      </g>
     </g>
    </g>
    <g id="ytick_5">
     <g id="line2d_13">
      <g>
       <use xlink:href="#m08f36efc8b" x="225" y="165.462007" style="stroke: #000000; stroke-width: 0.8"/>
      </g>
     </g>
     <g id="text_14">
      <!-- 0.000 -->
      <g transform="translate(175.057813 171.160835) scale(0.15 -0.15)">
       <use xlink:href="#DejaVuSans-30"/>
       <use xlink:href="#DejaVuSans-2e" x="63.623047"/>
       <use xlink:href="#DejaVuSans-30" x="95.410156"/>
       <use xlink:href="#DejaVuSans-30" x="159.033203"/>
       <use xlink:href="#DejaVuSans-30" x="222.65625"/>
      </g>
     </g>
    </g>
    <g id="ytick_6">
     <g id="line2d_14">
      <g>
       <use xlink:href="#m08f36efc8b" x="225" y="132.481763" style="stroke: #000000; stroke-width: 0.8"/>
      </g>
     </g>
     <g id="text_15">
      <!-- 0.002 -->
      <g transform="translate(175.057813 138.180591) scale(0.15 -0.15)">
       <use xlink:href="#DejaVuSans-30"/>
       <use xlink:href="#DejaVuSans-2e" x="63.623047"/>
       <use xlink:href="#DejaVuSans-30" x="95.410156"/>
       <use xlink:href="#DejaVuSans-30" x="159.033203"/>
       <use xlink:href="#DejaVuSans-32" x="222.65625"/>
      </g>
     </g>
    </g>
    <g id="ytick_7">
     <g id="line2d_15">
      <g>
       <use xlink:href="#m08f36efc8b" x="225" y="99.501519" style="stroke: #000000; stroke-width: 0.8"/>
      </g>
     </g>
     <g id="text_16">
      <!-- 0.004 -->
      <g transform="translate(175.057813 105.200348) scale(0.15 -0.15)">
       <use xlink:href="#DejaVuSans-30"/>
       <use xlink:href="#DejaVuSans-2e" x="63.623047"/>
       <use xlink:href="#DejaVuSans-30" x="95.410156"/>
       <use xlink:href="#DejaVuSans-30" x="159.033203"/>
       <use xlink:href="#DejaVuSans-34" x="222.65625"/>
      </g>
     </g>
    </g>
    <g id="ytick_8">
     <g id="line2d_16">
      <g>
       <use xlink:href="#m08f36efc8b" x="225" y="66.521276" style="stroke: #000000; stroke-width: 0.8"/>
      </g>
     </g>
     <g id="text_17">
      <!-- 0.006 -->
      <g transform="translate(175.057813 72.220104) scale(0.15 -0.15)">
       <use xlink:href="#DejaVuSans-30"/>
       <use xlink:href="#DejaVuSans-2e" x="63.623047"/>
       <use xlink:href="#DejaVuSans-30" x="95.410156"/>
       <use xlink:href="#DejaVuSans-30" x="159.033203"/>
       <use xlink:href="#DejaVuSans-36" x="222.65625"/>
      </g>
     </g>
    </g>
    <g id="text_18">
     <!-- East(m) -->
     <g transform="translate(155.36875 211.140234) rotate(-90) scale(0.15 -0.15)">
      <defs>
       <path id="DejaVuSans-45" d="M 628 4666 
L 3578 4666 
L 3578 4134 
L 1259 4134 
L 1259 2753 
L 3481 2753 
L 3481 2222 
L 1259 2222 
L 1259 531 
L 3634 531 
L 3634 0 
L 628 0 
L 628 4666 
z
" transform="scale(0.015625)"/>
       <path id="DejaVuSans-61" d="M 2194 1759 
Q 1497 1759 1228 1600 
Q 959 1441 959 1056 
Q 959 750 1161 570 
Q 1363 391 1709 391 
Q 2188 391 2477 730 
Q 2766 1069 2766 1631 
L 2766 1759 
L 2194 1759 
z
M 3341 1997 
L 3341 0 
L 2766 0 
L 2766 531 
Q 2569 213 2275 61 
Q 1981 -91 1556 -91 
Q 1019 -91 701 211 
Q 384 513 384 1019 
Q 384 1609 779 1909 
Q 1175 2209 1959 2209 
L 2766 2209 
L 2766 2266 
Q 2766 2663 2505 2880 
Q 2244 3097 1772 3097 
Q 1472 3097 1187 3025 
Q 903 2953 641 2809 
L 641 3341 
Q 956 3463 1253 3523 
Q 1550 3584 1831 3584 
Q 2591 3584 2966 3190 
Q 3341 2797 3341 1997 
z
" transform="scale(0.015625)"/>
       <path id="DejaVuSans-73" d="M 2834 3397 
L 2834 2853 
Q 2591 2978 2328 3040 
Q 2066 3103 1784 3103 
Q 1356 3103 1142 2972 
Q 928 2841 928 2578 
Q 928 2378 1081 2264 
Q 1234 2150 1697 2047 
L 1894 2003 
Q 2506 1872 2764 1633 
Q 3022 1394 3022 966 
Q 3022 478 2636 193 
Q 2250 -91 1575 -91 
Q 1294 -91 989 -36 
Q 684 19 347 128 
L 347 722 
Q 666 556 975 473 
Q 1284 391 1588 391 
Q 1994 391 2212 530 
Q 2431 669 2431 922 
Q 2431 1156 2273 1281 
Q 2116 1406 1581 1522 
L 1381 1569 
Q 847 1681 609 1914 
Q 372 2147 372 2553 
Q 372 3047 722 3315 
Q 1072 3584 1716 3584 
Q 2034 3584 2315 3537 
Q 2597 3491 2834 3397 
z
" transform="scale(0.015625)"/>
       <path id="DejaVuSans-74" d="M 1172 4494 
L 1172 3500 
L 2356 3500 
L 2356 3053 
L 1172 3053 
L 1172 1153 
Q 1172 725 1289 603 
Q 1406 481 1766 481 
L 2356 481 
L 2356 0 
L 1766 0 
Q 1100 0 847 248 
Q 594 497 594 1153 
L 594 3053 
L 172 3053 
L 172 3500 
L 594 3500 
L 594 4494 
L 1172 4494 
z
" transform="scale(0.015625)"/>
       <path id="DejaVuSans-28" d="M 1984 4856 
Q 1566 4138 1362 3434 
Q 1159 2731 1159 2009 
Q 1159 1288 1364 580 
Q 1569 -128 1984 -844 
L 1484 -844 
Q 1016 -109 783 600 
Q 550 1309 550 2009 
Q 550 2706 781 3412 
Q 1013 4119 1484 4856 
L 1984 4856 
z
" transform="scale(0.015625)"/>
       <path id="DejaVuSans-29" d="M 513 4856 
L 1013 4856 
Q 1481 4119 1714 3412 
Q 1947 2706 1947 2009 
Q 1947 1309 1714 600 
Q 1481 -109 1013 -844 
L 513 -844 
Q 928 -128 1133 580 
Q 1338 1288 1338 2009 
Q 1338 2731 1133 3434 
Q 928 4138 513 4856 
z
" transform="scale(0.015625)"/>
      </defs>
      <use xlink:href="#DejaVuSans-45"/>
      <use xlink:href="#DejaVuSans-61" x="63.183594"/>
      <use xlink:href="#DejaVuSans-73" x="124.462891"/>
      <use xlink:href="#DejaVuSans-74" x="176.5625"/>
      <use xlink:href="#DejaVuSans-28" x="215.771484"/>
      <use xlink:href="#DejaVuSans-6d" x="254.785156"/>
      <use xlink:href="#DejaVuSans-29" x="352.197266"/>
     </g>
    </g>
   </g>
   <g id="line2d_17">
    <path d="M 288.409091 280.074765 
L 288.872438 299.876575 
L 289.335786 307.8 
L 289.799133 306.260844 
L 290.26248 306.899483 
L 291.189175 302.625715 
L 291.652523 303.355051 
L 292.11587 298.68976 
L 292.579217 295.937324 
L 293.042565 296.746754 
L 293.96926 290.554008 
L 294.432607 293.054854 
L 295.359302 301.858696 
L 295.822649 303.042687 
L 296.285997 301.413935 
L 296.749344 301.745151 
L 297.212691 303.414424 
L 297.676039 301.015347 
L 298.139386 300.908398 
L 298.602734 298.181875 
L 299.992776 294.119652 
L 300.456123 295.280086 
L 300.919471 294.393389 
L 301.382818 295.172195 
L 302.309513 298.555632 
L 302.77286 293.953139 
L 303.236208 290.924275 
L 303.699555 290.639838 
L 304.62625 283.347705 
L 305.089597 281.353007 
L 305.552944 277.53578 
L 306.016292 277.219171 
L 306.479639 276.370166 
L 307.406334 273.605951 
L 307.869681 270.274005 
L 308.333029 269.752447 
L 308.796376 268.535947 
L 309.259724 266.433693 
L 310.649766 269.514049 
L 311.113113 273.776981 
L 311.576461 275.764277 
L 312.039808 282.672697 
L 312.966503 292.953583 
L 313.42985 293.739455 
L 313.893198 291.415762 
L 314.356545 285.226314 
L 314.819892 283.008629 
L 315.746587 268.573177 
L 316.209935 264.051587 
L 316.673282 260.809158 
L 317.136629 259.32175 
L 319.453366 260.168872 
L 319.916714 259.36227 
L 320.380061 259.516807 
L 320.843409 263.138981 
L 321.306756 259.477232 
L 322.233451 254.369064 
L 323.623493 224.919593 
L 324.550188 220.803188 
L 325.013535 213.918799 
L 325.94023 211.73645 
L 326.403577 214.981707 
L 326.866925 214.639184 
L 327.330272 222.096489 
L 327.793619 226.799943 
L 328.256967 223.430306 
L 328.720314 227.775689 
L 329.183662 229.706447 
L 329.647009 230.054154 
L 330.110356 232.371252 
L 330.573704 230.210105 
L 331.037051 229.608452 
L 331.500399 231.694688 
L 332.427093 219.761024 
L 350.497642 202.92838 
L 350.960989 194.647041 
L 351.424337 182.000532 
L 352.351031 170.307153 
L 352.814379 159.224849 
L 353.277726 153.007132 
L 353.741074 161.409085 
L 354.204421 162.710863 
L 354.667768 170.733544 
L 355.131116 171.658405 
L 355.594463 170.58325 
L 356.05781 174.488111 
L 356.521158 175.968925 
L 356.984505 174.863145 
L 357.447853 172.228495 
L 358.374547 170.71753 
L 358.837895 169.635307 
L 359.301242 169.63201 
L 360.227937 168.918696 
L 360.691284 162.566702 
L 361.154632 163.738915 
L 361.617979 157.700233 
L 362.081327 154.257567 
L 362.544674 154.242491 
L 363.008021 155.876427 
L 363.471369 154.50445 
L 363.934716 159.490592 
L 364.398064 158.153951 
L 364.861411 164.235509 
L 365.324758 162.818772 
L 365.788106 164.372614 
L 366.251453 164.006534 
L 367.178148 158.466325 
L 367.641495 157.315787 
L 368.104843 146.772946 
L 368.56819 146.74138 
L 369.494885 130.381296 
L 369.958232 124.109396 
L 370.42158 121.043648 
L 371.811622 117.973188 
L 372.274969 119.284389 
L 372.738317 117.071415 
L 373.201664 115.407327 
L 375.518401 121.213264 
L 376.445096 136.00302 
L 378.298485 156.501187 
L 379.22518 152.631192 
L 379.688528 145.261522 
L 380.151875 140.341813 
L 380.615222 140.953361 
L 381.07857 133.425857 
L 381.541917 132.579208 
L 382.005265 131.228432 
L 382.468612 125.920027 
L 390.345518 119.730578 
L 390.808865 113.265509 
L 391.272212 94.213765 
L 391.73556 88.481329 
L 393.588949 82.763026 
L 394.052297 73.939869 
L 394.515644 69.022516 
L 394.978992 67.005068 
L 395.442339 59.180741 
L 395.905686 76.310681 
L 396.369034 81.911669 
L 399.149118 91.630949 
L 400.075813 94.511067 
L 400.53916 101.41242 
L 401.002508 95.738876 
L 401.465855 100.571896 
L 401.929203 104.179935 
L 402.39255 115.891692 
L 402.855897 122.357234 
L 403.782592 123.807423 
L 404.245939 128.449628 
L 404.709287 128.70075 
L 406.562676 101.1255 
L 407.026024 105.508575 
L 407.489371 105.142495 
L 408.416066 112.179538 
L 408.879413 120.649808 
L 409.342761 121.972788 
L 409.806108 124.261617 
L 410.269456 124.197071 
L 411.659498 142.55953 
L 412.122845 144.292407 
L 413.512887 165.858662 
L 413.976235 168.531476 
L 414.439582 163.522249 
L 415.829624 170.346334 
L 416.292972 169.377187 
L 416.756319 171.315013 
L 418.146361 184.271068 
L 432.046783 182.675296 
L 432.510131 185.583683 
L 432.973478 181.582709 
L 433.436825 180.288471 
L 434.826868 179.80696 
L 441.313731 175.075709 
L 441.777078 168.650688 
L 445.02051 168.767533 
L 445.483858 162.688803 
L 445.947205 168.593681 
L 446.8739 167.4667 
L 447.337247 162.730737 
L 447.800595 164.939472 
L 448.263942 166.293076 
L 448.727289 166.511218 
L 449.190637 171.026214 
L 449.653984 170.610663 
L 450.580679 174.751098 
L 451.044026 174.865588 
L 451.507374 177.971856 
L 451.970721 184.409129 
L 452.897416 191.604006 
L 453.360763 191.55595 
L 453.824111 186.808209 
L 454.287458 187.676533 
L 454.750805 186.740366 
L 455.214153 187.406096 
L 455.6775 186.505265 
L 456.140848 184.852956 
L 456.604195 186.903856 
L 457.53089 197.973912 
L 457.994237 199.572512 
L 458.457585 194.341846 
L 458.920932 194.84032 
L 459.384279 197.463663 
L 460.310974 197.544231 
L 460.774322 196.22408 
L 461.237669 196.42102 
L 461.701016 195.616773 
L 462.627711 185.207268 
L 464.017753 172.490559 
L 464.481101 171.045554 
L 464.944448 174.542874 
L 465.407796 179.983673 
L 465.871143 180.950937 
L 467.261185 198.041301 
L 467.724533 201.286558 
L 468.18788 202.030027 
L 468.651227 201.588564 
L 469.114575 202.574674 
L 469.577922 202.990697 
L 470.041269 206.963875 
L 470.504617 208.489447 
L 471.894659 218.986119 
L 472.358006 220.76611 
L 472.821354 216.986575 
L 473.284701 210.373095 
L 474.211396 194.865786 
L 474.674743 186.775262 
L 475.138091 182.531647 
L 475.601438 179.468254 
L 476.064786 179.172846 
L 476.528133 176.434545 
L 476.99148 179.896529 
L 477.454828 179.886164 
L 477.918175 181.004195 
L 479.771565 170.562182 
L 481.624954 164.011837 
L 482.088302 162.220539 
L 482.551649 159.211328 
L 483.014997 164.647416 
L 483.478344 164.856134 
L 483.941691 163.312188 
L 484.405039 159.530297 
L 484.868386 164.238464 
L 485.331733 163.0573 
L 485.795081 159.671172 
L 486.721776 146.159168 
L 487.64847 135.883939 
L 488.111818 128.210379 
L 488.575165 123.959698 
L 489.038513 124.1001 
L 489.50186 122.935427 
L 489.965207 124.060525 
L 490.428555 126.493055 
L 490.891902 129.669995 
L 491.35525 131.101338 
L 491.818597 130.881314 
L 492.281944 128.753146 
L 492.745292 130.052569 
L 493.208639 130.555754 
L 493.671987 126.948187 
L 494.135334 127.248779 
L 494.598681 126.625924 
L 495.062029 125.324619 
L 495.525376 126.197654 
L 495.988724 128.599558 
L 496.452071 129.708167 
L 496.915418 134.746135 
L 497.378766 137.61683 
L 497.842113 141.260206 
L 498.768808 153.385629 
L 499.232155 154.626158 
L 499.695503 152.528616 
L 500.15885 148.289713 
L 500.622197 146.550241 
L 501.085545 139.314848 
L 502.01224 129.951287 
L 502.475587 124.876099 
L 502.938934 124.705545 
L 503.402282 126.692841 
L 503.865629 126.42099 
L 504.328977 127.748681 
L 504.792324 128.018649 
L 506.182366 115.443284 
L 506.645714 109.5271 
L 507.109061 106.042032 
L 507.572408 106.49339 
L 508.035756 102.579579 
L 508.499103 100.84953 
L 508.962451 100.761426 
L 509.425798 101.721623 
L 509.889145 106.498106 
L 510.352493 102.805732 
L 510.81584 97.337138 
L 511.279188 93.734282 
L 511.742535 95.078463 
L 513.132577 100.359545 
L 513.595925 107.02768 
L 514.059272 116.1764 
L 514.522619 120.191981 
L 514.985967 127.727025 
L 515.449314 129.087696 
L 515.912662 133.840621 
L 516.376009 134.786684 
L 516.839356 134.444161 
L 517.302704 134.60341 
L 517.766051 137.547133 
L 518.229398 137.275282 
L 519.156093 129.833998 
L 519.619441 123.507917 
L 520.082788 121.895655 
L 520.546135 114.582522 
L 521.009483 111.964363 
L 521.47283 103.529902 
L 521.936178 101.679711 
L 522.399525 103.29009 
L 522.862872 108.318635 
L 523.32622 107.142184 
L 523.789567 111.280263 
L 524.252915 113.350009 
L 524.716262 120.79318 
L 525.179609 130.047908 
L 525.642957 130.513401 
L 526.106304 129.094309 
L 526.569652 128.657557 
L 527.032999 129.311509 
L 527.496346 128.613271 
L 528.423041 118.072786 
L 529.349736 94.669064 
L 530.276431 78.125233 
L 530.739778 66.399815 
L 531.203126 59.484801 
L 531.666473 59.318958 
L 533.056515 74.633101 
L 533.519862 76.16574 
L 533.98321 78.237843 
L 534.446557 77.904743 
L 534.909905 79.230078 
L 535.373252 74.520029 
L 535.836599 64.723955 
L 536.299947 59.227092 
L 536.763294 59.153122 
L 537.689989 66.17132 
L 538.153336 67.569683 
L 538.616684 65.234211 
L 539.080031 71.409998 
L 539.543379 72.813073 
L 540.006726 73.770914 
L 540.470073 71.140976 
L 540.933421 71.366184 
L 541.396768 70.27925 
L 541.860116 79.592872 
L 542.78681 84.914942 
L 543.250158 85.116594 
L 543.713505 89.949614 
L 544.176853 92.400989 
L 544.6402 97.735779 
L 545.103547 96.241304 
L 545.566895 100.362893 
L 546.030242 102.44913 
L 546.49359 110.179699 
L 546.956937 109.660497 
L 547.420284 106.941041 
L 548.346979 97.061575 
L 548.810327 92.005233 
L 549.273674 89.08554 
L 549.737021 79.27062 
L 550.200369 76.416888 
L 550.663716 71.883518 
L 551.127063 66.221753 
L 551.590411 65.028812 
L 552.053758 63.103237 
L 552.517106 59.083417 
L 552.980453 59.925828 
L 553.4438 55.8 
L 553.907148 57.219565 
L 554.370495 59.915936 
L 554.833843 61.547516 
L 555.29719 61.86931 
L 555.760537 64.252369 
L 556.223885 60.640091 
L 556.687232 63.190407 
L 557.15058 61.771314 
L 557.613927 65.127291 
L 558.077274 67.213527 
L 558.540622 66.053566 
L 559.003969 57.442425 
L 559.467317 58.786606 
L 560.394011 59.237023 
L 560.857359 61.987576 
L 561.320706 59.753401 
L 561.784054 60.805472 
L 562.247401 68.093164 
L 562.710748 72.023939 
L 563.174096 72.715582 
L 564.100791 78.749084 
L 566.417527 105.741061 
L 566.880875 105.733052 
L 567.344222 107.461218 
L 567.80757 105.698189 
L 568.270917 106.133057 
L 568.734264 105.361792 
L 569.197612 107.92153 
L 569.660959 111.364669 
L 570.124307 116.249515 
L 570.587654 113.812746 
L 571.977696 112.118506 
L 572.441044 110.918497 
L 572.904391 108.853935 
L 573.367738 107.470179 
L 573.831086 107.987498 
L 574.294433 109.988929 
L 574.757781 111.481521 
L 575.221128 110.062429 
L 575.684475 105.715162 
L 576.147823 104.781351 
L 576.61117 103.51067 
L 577.074518 98.569759 
L 577.537865 102.733751 
L 578.001212 101.524319 
L 578.927907 110.799307 
L 579.391255 113.154098 
L 579.854602 118.733884 
L 580.317949 122.831916 
L 580.781297 118.772049 
L 581.244644 121.084436 
L 581.707991 121.608822 
L 582.171339 122.484213 
L 582.634686 122.299524 
L 583.098034 121.605998 
L 583.561381 124.832408 
L 584.024728 126.230771 
L 584.488076 126.691553 
L 584.951423 126.063987 
L 585.414771 126.703804 
L 585.878118 124.292949 
L 586.341465 124.138885 
L 586.804813 123.725691 
L 587.26816 126.98037 
L 588.194855 134.917303 
L 588.658202 137.627809 
L 589.12155 141.791801 
L 589.584897 143.616551 
L 590.511592 155.334433 
L 590.974939 156.796401 
L 591.438287 158.913262 
L 591.901634 158.65319 
L 592.828329 163.756177 
L 593.291676 161.361812 
L 593.755024 156.953297 
L 594.218371 156.492988 
L 594.681719 158.713501 
L 595.608413 166.268805 
L 596.535108 165.167737 
L 596.998456 166.987776 
L 597.461803 170.103467 
L 597.92515 169.534795 
L 598.388498 167.863639 
L 598.851845 166.951029 
L 599.315192 164.325803 
L 599.77854 165.952672 
L 600.241887 165.95173 
L 600.705235 163.472559 
L 601.168582 163.982811 
L 601.631929 160.387023 
L 602.095277 162.857244 
L 602.558624 162.856302 
L 603.021972 164.294713 
L 603.485319 163.261961 
L 604.412014 159.151682 
L 604.875361 162.583041 
L 608.118793 164.476108 
L 608.58214 167.252574 
L 609.045488 175.020835 
L 609.508835 179.910393 
L 609.972183 191.424268 
L 610.43553 198.801478 
L 610.898877 203.714593 
L 611.362225 200.761919 
L 611.825572 201.175586 
L 612.28892 193.862454 
L 612.752267 192.22899 
L 613.215614 187.45298 
L 613.678962 186.907865 
L 614.142309 188.339208 
L 615.069004 192.499903 
L 615.532351 196.089096 
L 615.995699 198.033989 
L 616.459046 201.488906 
L 616.922393 200.107506 
L 617.385741 194.542326 
L 617.849088 197.504895 
L 618.312436 199.176523 
L 618.775783 196.412308 
L 619.702478 192.214867 
L 620.629173 197.675925 
L 621.09252 197.665561 
L 621.555867 198.654026 
L 622.94591 212.905734 
L 623.409257 211.276982 
L 623.872604 215.832026 
L 624.335952 217.946531 
L 624.799299 215.182316 
L 625.262647 210.540583 
L 625.725994 207.686851 
L 626.189341 203.523331 
L 626.652689 203.39518 
L 627.579384 196.135288 
L 628.506078 196.980054 
L 628.969426 200.896694 
L 629.432773 203.482346 
L 629.896121 206.8501 
L 630.359468 211.058851 
L 630.822815 212.709278 
L 631.286163 211.462154 
L 632.212857 210.642832 
L 632.676205 211.824468 
L 634.066247 220.099684 
L 634.529594 228.372072 
L 634.992942 232.258088 
L 635.456289 239.041654 
L 635.919637 237.104301 
L 636.382984 233.334188 
L 636.846331 231.2178 
L 637.309679 231.395894 
L 637.773026 226.403157 
L 638.236374 223.382167 
L 638.699721 214.167959 
L 639.163068 210.569815 
L 639.626416 210.130708 
L 640.089763 209.114446 
L 640.553111 207.697709 
L 641.016458 205.651993 
L 641.479805 204.885438 
L 642.4065 212.087383 
L 642.869848 212.769603 
L 643.796542 209.495609 
L 644.723237 217.639846 
L 645.186585 218.04409 
L 645.649932 218.650927 
L 646.113279 220.996294 
L 646.576627 222.005962 
L 647.039974 220.254712 
L 647.503321 217.796742 
L 647.966669 215.953618 
L 648.430016 212.897293 
L 648.893364 210.762058 
L 649.356711 204.68804 
L 649.820058 192.128693 
L 650.283406 190.832099 
L 650.746753 186.963046 
L 651.673448 182.391043 
L 652.136795 176.599713 
L 652.600143 174.586977 
L 653.06349 182.805183 
L 653.526838 184.596953 
L 653.990185 184.023569 
L 654.453532 181.082674 
L 655.380227 184.574341 
L 656.306922 192.132001 
L 656.770269 189.86249 
L 657.233617 186.158338 
L 657.696964 188.338804 
L 658.160312 186.036313 
L 659.087006 197.876693 
L 659.550354 199.067751 
L 660.013701 207.191729 
L 660.477049 218.792765 
L 660.940396 217.338337 
L 661.403743 220.885128 
L 662.330438 209.622847 
L 662.793785 207.932846 
L 663.257133 201.658591 
L 663.72048 191.977948 
L 664.183828 190.709623 
L 664.647175 189.111495 
L 665.110522 188.571091 
L 666.037217 183.513808 
L 666.500565 182.905087 
L 666.963912 183.306976 
L 667.427259 179.148168 
L 668.353954 164.792811 
L 668.817302 160.681118 
L 669.280649 154.687195 
L 669.743996 146.655564 
L 670.207344 145.288298 
L 670.670691 145.822108 
L 671.134039 149.971966 
L 671.597386 155.97814 
L 672.060733 160.144488 
L 672.524081 162.551104 
L 672.987428 166.788123 
L 673.450776 166.76598 
L 673.914123 167.1396 
L 674.37747 162.519069 
L 674.840818 161.703044 
L 675.304165 160.540727 
L 676.23086 163.883983 
L 676.694207 162.695752 
L 677.157555 164.824392 
L 677.620902 163.662075 
L 678.08425 160.459694 
L 678.547597 158.505851 
L 679.010944 157.67098 
L 679.474292 152.713579 
L 679.937639 150.955262 
L 680.400986 144.278176 
L 680.864334 146.416239 
L 681.327681 150.742777 
L 681.791029 148.461487 
L 682.254376 143.739659 
L 682.717723 142.704551 
L 683.644418 143.1267 
L 684.107766 149.672337 
L 684.571113 148.80213 
L 685.03446 150.33477 
L 686.424503 164.489893 
L 686.88785 171.643308 
L 687.351197 171.28194 
L 687.814545 172.357567 
L 688.277892 177.16703 
L 688.74124 179.526532 
L 689.204587 185.718809 
L 689.667934 185.654262 
L 690.131282 183.599123 
L 690.594629 180.799572 
L 691.057977 175.498234 
L 692.448019 152.350345 
L 692.911366 143.070177 
L 693.374714 139.792412 
L 693.838061 135.45928 
L 694.301408 135.776363 
L 694.764756 135.754219 
L 695.228103 131.406953 
L 696.154798 128.644152 
L 696.618145 122.532443 
L 697.081493 121.98026 
L 697.54484 119.588251 
L 698.471535 121.294273 
L 699.39823 115.987282 
L 699.861577 117.418625 
L 700.324924 113.950047 
L 700.788272 113.890212 
L 701.251619 118.720876 
L 701.714967 127.233549 
L 702.178314 133.074822 
L 702.641661 142.548633 
L 703.105009 146.853969 
L 703.568356 155.856634 
L 704.031704 158.364547 
L 704.958398 147.61346 
L 705.421746 151.075444 
L 705.885093 146.499671 
L 706.348441 143.177148 
L 706.811788 137.637881 
L 707.275135 136.214078 
L 707.738483 133.520535 
L 708.20183 129.606723 
L 708.665178 120.840104 
L 709.128525 123.140712 
L 709.591872 123.405968 
L 710.05522 125.433312 
L 710.518567 124.044844 
L 710.981915 125.513879 
L 711.445262 132.985318 
L 711.908609 135.578037 
L 712.371957 134.34976 
L 712.835304 138.381831 
L 714.688694 125.793746 
L 715.152041 119.474732 
L 715.615388 117.009695 
L 716.078736 111.131203 
L 716.542083 107.792189 
L 717.005431 107.065682 
L 717.468778 109.832726 
L 717.932125 108.545555 
L 718.395473 106.758968 
L 718.85882 104.004176 
L 719.322168 104.971441 
L 719.785515 107.027053 
L 720.248862 105.794064 
L 720.71221 94.968535 
L 721.175557 88.948699 
L 721.638905 93.734604 
L 722.102252 96.155355 
L 722.565599 97.664437 
L 723.028947 97.126389 
L 723.492294 95.189036 
L 723.955642 99.739368 
L 724.418989 109.585385 
L 725.345684 110.905067 
L 726.272379 106.68878 
L 726.735726 111.665499 
L 727.199073 120.439658 
L 727.662421 117.013483 
L 728.125768 120.223404 
L 728.589115 126.067032 
L 729.052463 128.040194 
L 729.979158 137.616716 
L 730.442505 133.231758 
L 730.905852 132.578278 
L 731.3692 133.649195 
L 731.832547 131.363193 
L 732.295895 135.33166 
L 732.759242 136.072774 
L 733.222589 130.248463 
L 733.685937 130.405356 
L 734.149284 128.465647 
L 734.612632 119.920467 
L 736.002674 103.07416 
L 736.929369 104.817874 
L 737.392716 108.73687 
L 737.856063 116.168262 
L 738.319411 118.876412 
L 739.709453 132.254143 
L 740.1728 137.009424 
L 740.636148 139.18989 
L 741.099495 140.249028 
L 741.562843 144.608546 
L 742.02619 144.192995 
L 742.489537 144.328686 
L 742.952885 146.240599 
L 743.416232 146.560037 
L 743.879579 143.772264 
L 744.342927 145.486295 
L 745.269622 138.36068 
L 745.732969 136.755485 
L 746.659664 127.391924 
L 747.123011 127.855062 
L 747.586359 126.421835 
L 748.049706 127.172372 
L 748.513053 132.179716 
L 748.976401 134.124609 
L 749.439748 140.156696 
L 750.366443 147.476427 
L 750.82979 149.115075 
L 751.756485 156.488987 
L 752.68318 160.946504 
L 753.146527 167.675888 
L 753.609875 168.351042 
L 754.073222 168.583318 
L 754.53657 168.181902 
L 755.463264 161.162294 
L 755.926612 158.975233 
L 756.389959 150.748077 
L 756.853307 149.903783 
L 757.316654 146.786208 
L 757.780001 145.788792 
L 758.243349 149.234286 
L 758.706696 151.68095 
L 759.170044 149.851961 
L 759.633391 149.255019 
L 760.096738 147.225792 
L 760.560086 146.308471 
L 761.023433 148.201538 
L 761.48678 148.172328 
L 761.950128 151.914644 
L 762.413475 152.488501 
L 762.876823 154.398057 
L 763.34017 156.924816 
L 763.803517 162.207781 
L 764.730212 156.335414 
L 765.19356 154.365081 
L 765.656907 157.673942 
L 766.120254 165.065287 
L 766.583602 168.376504 
L 767.046949 170.368511 
L 768.436991 186.033658 
L 768.900339 186.035072 
L 769.363686 178.818524 
L 769.827034 181.097931 
L 770.290381 178.932072 
L 770.753728 183.564855 
L 771.680423 189.760902 
L 772.607118 210.004177 
L 773.070465 214.304801 
L 773.533813 226.230929 
L 774.460508 239.640227 
L 774.923855 241.323633 
L 775.387202 239.753774 
L 775.85055 242.009624 
L 776.313897 245.443339 
L 776.777244 245.421196 
L 777.703939 241.157794 
L 778.167287 243.043793 
L 778.630634 244.366773 
L 779.093981 247.718038 
L 779.557329 245.841934 
L 780.020676 247.468803 
L 780.484024 249.694028 
L 780.947371 251.052343 
L 781.410718 250.019591 
L 781.874066 253.601718 
L 783.264108 245.631808 
L 783.727455 240.759214 
L 784.190803 241.015047 
L 784.65415 242.180192 
L 785.117498 238.958966 
L 785.580845 232.729469 
L 786.044192 231.684939 
L 786.50754 227.059696 
L 786.970887 226.860873 
L 787.897582 221.568016 
L 788.360929 221.981684 
L 789.287624 220.107935 
L 790.214319 213.858652 
L 790.677666 211.808224 
L 791.141014 211.545796 
L 791.604361 208.557786 
L 792.067709 203.204622 
L 792.531056 206.690164 
L 793.457751 217.060567 
L 793.921098 218.008986 
L 794.384445 218.601688 
L 794.847793 223.126107 
L 795.31114 224.809514 
L 795.774488 222.935766 
L 796.237835 220.074966 
L 796.701182 219.904412 
L 797.16453 221.804546 
L 797.627877 221.122797 
L 798.091225 217.319705 
L 798.554572 216.258684 
L 799.017919 218.85847 
L 799.481267 222.923522 
L 799.944614 225.405521 
L 800.407962 226.905181 
L 801.334656 238.389845 
L 801.798004 241.057948 
L 802.261351 240.413891 
L 803.188046 233.064481 
L 803.651393 227.423918 
L 804.114741 219.340461 
L 804.578088 214.83536 
L 805.041436 218.448111 
L 805.504783 220.915977 
L 805.96813 221.183588 
L 806.431478 221.863453 
L 806.894825 222.013279 
L 807.358173 224.134851 
L 807.82152 223.471949 
L 808.748215 217.950587 
L 809.211562 222.691733 
L 809.674909 225.494112 
L 810.138257 229.669883 
L 810.601604 229.080008 
L 811.528299 225.897887 
L 811.991646 225.479981 
L 812.454994 221.933663 
L 812.918341 214.721827 
L 813.381689 211.309786 
L 813.845036 211.007311 
L 814.308383 210.933342 
L 814.771731 208.882914 
L 815.235078 204.747663 
L 815.698426 205.429883 
L 816.161773 209.181622 
L 817.088468 217.594413 
L 817.551815 218.653551 
L 818.015163 220.117874 
L 818.47851 226.814278 
L 818.941857 227.475297 
L 819.405205 224.164552 
L 820.3319 209.406366 
L 820.795247 209.191053 
L 821.258594 211.887424 
L 822.185289 204.224701 
L 822.648637 207.50765 
L 823.111984 212.828306 
L 823.575331 220.521184 
L 824.038679 224.565034 
L 824.502026 222.917436 
L 824.965374 222.888225 
L 825.428721 223.700011 
L 825.892068 222.485868 
L 826.355416 219.222238 
L 827.28211 214.963548 
L 827.745458 215.005009 
L 828.208805 219.286788 
L 828.672153 220.480202 
L 829.1355 220.94334 
L 829.598847 221.083742 
L 830.062195 215.537408 
L 830.525542 211.36211 
L 830.98889 208.680346 
L 831.452237 202.823055 
L 831.915584 199.436927 
L 832.378932 200.3665 
L 832.842279 199.767202 
L 833.305627 198.145517 
L 833.768974 192.5238 
L 835.159016 181.31476 
L 835.622364 174.823777 
L 836.085711 170.500068 
L 836.549058 171.674637 
L 837.012406 179.348669 
L 837.475753 178.756439 
L 837.939101 183.949886 
L 838.402448 187.588549 
L 838.865795 193.787894 
L 839.79249 202.360874 
L 840.255838 196.484737 
L 840.719185 198.161077 
L 841.182532 195.575898 
L 841.64588 191.845833 
L 843.035922 169.788648 
L 843.499269 170.049193 
L 843.962617 169.518211 
L 844.425964 167.830566 
L 844.889311 170.175933 
L 845.352659 174.617902 
L 845.816006 181.966843 
L 846.279354 185.581949 
L 846.742701 191.651728 
L 847.206048 189.891055 
L 847.669396 196.672265 
L 850.912828 192.157742 
L 851.376175 189.808136 
L 851.839522 189.705898 
L 852.30287 185.664876 
L 852.766217 176.575522 
L 853.229565 176.336651 
L 853.692912 170.681954 
L 854.156259 176.193424 
L 854.619607 177.596499 
L 855.082954 172.608473 
L 855.546302 170.296559 
L 856.009649 175.859856 
L 856.936344 170.969829 
L 857.863038 160.53441 
L 858.326386 155.430954 
L 858.789733 158.278092 
L 859.253081 155.238257 
L 859.716428 156.563592 
L 860.179775 152.098539 
L 860.643123 149.112885 
L 861.10647 148.928197 
L 861.569818 150.708188 
L 862.033165 147.943973 
L 862.95986 138.733535 
L 863.423207 138.548846 
L 863.886555 138.736363 
L 864.349902 134.999231 
L 864.813249 134.520076 
L 865.276597 133.857174 
L 865.739944 138.186067 
L 866.666639 151.974638 
L 868.520029 173.307675 
L 868.983376 176.98403 
L 869.446723 182.102094 
L 869.910071 178.600535 
L 870.373418 169.464066 
L 870.836766 172.304137 
L 871.300113 167.872064 
L 871.76346 166.573114 
L 872.226808 161.26942 
L 873.153503 154.875023 
L 874.080197 158.676232 
L 875.933587 167.337316 
L 876.860282 158.721464 
L 879.640366 161.295337 
L 883.347145 139.021898 
L 883.810493 137.944387 
L 884.27384 130.756108 
L 884.737187 134.597365 
L 885.200535 140.662432 
L 885.663882 142.180937 
L 886.12723 144.599332 
L 886.590577 145.147276 
L 887.053924 147.285339 
L 887.517272 148.441062 
L 887.980619 145.137384 
L 888.443967 140.387288 
L 888.907314 143.217936 
L 889.370661 146.76237 
L 891.224051 140.907435 
L 891.687398 138.703885 
L 892.150746 133.402547 
L 892.614093 131.802063 
L 893.07744 130.887098 
L 894.004135 130.603469 
L 894.93083 138.523911 
L 895.394177 140.84101 
L 896.320872 161.743889 
L 896.78422 164.480308 
L 897.247567 163.480536 
L 897.710914 153.35466 
L 898.174262 155.261861 
L 898.637609 159.515371 
L 899.100957 156.174002 
L 899.564304 149.037549 
L 900.027651 147.243896 
L 901.417694 138.517796 
L 901.881041 133.965581 
L 902.807736 140.253502 
L 903.271083 143.067659 
L 903.734431 147.832363 
L 904.197778 150.154173 
L 904.661125 146.581942 
L 905.124473 146.856621 
L 906.051168 137.043116 
L 906.514515 134.342505 
L 906.977862 136.379272 
L 907.44121 135.850646 
L 907.904557 141.425722 
L 908.367904 138.202139 
L 908.831252 137.763032 
L 909.294599 139.279181 
L 909.757947 137.553844 
L 910.221294 132.198324 
L 910.684641 133.420007 
L 911.147989 133.459113 
L 911.611336 133.335674 
L 912.074684 133.937799 
L 912.538031 131.844968 
L 913.464726 139.211814 
L 913.928073 139.519473 
L 914.391421 137.464333 
L 915.318115 135.747478 
L 915.781463 136.019801 
L 916.24481 139.724425 
L 916.708158 141.242931 
L 917.171505 139.154811 
L 917.634852 138.279893 
L 918.0982 140.726556 
L 918.561547 137.835132 
L 919.024895 140.684626 
L 919.488242 136.426877 
L 919.951589 128.522456 
L 920.414937 127.459079 
L 920.878284 124.299101 
L 921.341632 122.455978 
L 922.731674 112.219855 
L 923.195021 118.640638 
L 923.658368 120.856439 
L 924.121716 124.556352 
L 924.585063 124.21383 
L 925.048411 132.660542 
L 925.511758 139.045989 
L 925.975105 143.601033 
L 926.438453 141.976992 
L 926.9018 144.19515 
L 927.365148 147.909197 
L 927.828495 150.662106 
L 928.291842 151.092263 
L 928.75519 149.581297 
L 929.218537 155.274159 
L 929.681885 155.534704 
L 930.145232 156.801146 
L 930.608579 156.020457 
L 931.071927 160.697999 
L 931.535274 164.061042 
L 931.998622 163.534772 
L 932.461969 162.558558 
L 932.925316 162.281996 
L 933.388664 161.397655 
L 933.852011 162.913804 
L 934.315359 161.23087 
L 935.242053 152.536337 
L 935.705401 149.593087 
L 936.168748 150.108051 
L 936.632096 148.229591 
L 937.095443 151.359417 
L 937.55879 155.304326 
L 938.022138 161.19978 
L 938.485485 171.116469 
L 938.948832 174.050769 
L 939.41218 181.590525 
L 939.875527 183.895845 
L 940.802222 186.515891 
L 941.265569 185.805874 
L 941.728917 186.426846 
L 942.192264 186.767485 
L 942.655612 186.787745 
L 943.118959 187.832749 
L 944.045654 183.409157 
L 944.509001 182.710919 
L 944.972349 183.624001 
L 945.435696 186.666665 
L 945.899043 182.983715 
L 946.362391 188.579992 
L 947.289086 193.968023 
L 947.752433 197.493611 
L 948.21578 196.844844 
L 948.679128 198.476424 
L 950.532517 212.185372 
L 950.995865 211.816936 
L 951.459212 210.525054 
L 951.92256 203.958688 
L 952.385907 205.335849 
L 952.849254 203.294844 
L 953.312602 199.651942 
L 953.775949 201.158668 
L 954.702644 213.413657 
L 955.165991 221.723737 
L 955.629339 222.533167 
L 956.092686 224.357917 
L 956.556033 232.938906 
L 957.019381 236.497475 
L 957.482728 237.080755 
L 957.946076 236.490881 
L 959.336118 251.621276 
L 959.799465 248.899465 
L 960.262813 248.180025 
L 960.72616 246.819826 
L 961.189507 247.568007 
L 961.652855 240.412709 
L 962.116202 243.829934 
L 962.57955 243.998605 
L 963.042897 245.88696 
L 963.506244 245.902509 
L 963.969592 248.03586 
L 964.432939 250.838239 
L 964.896287 256.132982 
L 965.359634 251.444135 
L 965.822981 244.97671 
L 966.286329 241.790819 
L 967.676371 234.395708 
L 968.139718 229.676236 
L 968.603066 228.650551 
L 969.066413 225.262068 
L 969.529761 223.199861 
L 969.993108 220.299013 
L 970.456455 219.202657 
L 971.38315 223.32566 
L 971.846497 223.729904 
L 972.309845 228.652442 
L 972.773192 229.655042 
L 973.23654 235.691841 
L 973.699887 237.443563 
L 974.163234 232.184629 
L 974.626582 229.144793 
L 975.089929 227.553733 
L 975.553277 233.991006 
L 976.016624 242.767521 
L 976.479971 241.287179 
L 976.943319 243.104863 
L 977.870014 256.328057 
L 978.333361 257.415464 
L 978.796708 251.251928 
L 979.260056 241.206147 
L 979.723403 237.24522 
L 980.186751 227.774237 
L 980.650098 222.267951 
L 981.113445 221.941918 
L 981.576793 222.46866 
L 982.04014 224.060193 
L 982.503488 227.585782 
L 982.966835 228.136082 
L 983.430182 236.114004 
L 983.89353 233.585362 
L 984.356877 225.313446 
L 985.283572 214.197221 
L 985.746919 209.421211 
L 986.210267 209.969155 
L 986.673614 208.180213 
L 987.136962 209.076806 
L 987.600309 206.168891 
L 988.063656 208.763966 
L 988.527004 208.376684 
L 988.990351 206.022367 
L 989.453698 201.696302 
L 989.917046 199.297225 
L 990.380393 198.306877 
L 990.843741 203.017398 
L 991.307088 196.740788 
L 992.233783 194.597544 
L 992.69713 193.402247 
L 993.160478 194.301195 
L 993.623825 190.048157 
L 994.087172 187.745666 
L 994.55052 192.114607 
L 995.013867 191.85689 
L 995.477215 194.013799 
L 995.940562 201.186061 
L 996.403909 200.652724 
L 997.793952 211.356699 
L 998.257299 213.381687 
L 998.720646 211.350105 
L 999.183994 205.815549 
L 999.647341 205.734513 
L 1000.110689 203.870188 
L 1001.037383 195.651512 
L 1001.500731 196.298397 
L 1001.964078 199.741535 
L 1003.817468 220.275038 
L 1004.280815 219.555598 
L 1006.134205 214.503026 
L 1007.060899 202.70835 
L 1007.524247 193.838079 
L 1007.987594 191.420157 
L 1008.450942 194.957524 
L 1008.914289 197.192172 
L 1009.377636 206.034647 
L 1010.304331 210.084622 
L 1010.767679 214.985958 
L 1011.231026 217.576322 
L 1012.157721 213.13624 
L 1012.621068 207.182365 
L 1013.084416 203.117786 
L 1013.547763 204.009667 
L 1014.01111 204.585879 
L 1014.474458 201.981854 
L 1024.6681 196.96556 
L 1025.131448 193.12242 
L 1025.594795 188.035454 
L 1026.058143 189.096947 
L 1026.52149 183.647198 
L 1026.984837 176.656801 
L 1027.911532 170.406103 
L 1028.37488 165.703121 
L 1029.301574 153.995607 
L 1030.691617 122.970152 
L 1031.618311 118.097557 
L 1032.081659 113.234385 
L 1032.545006 106.545521 
L 1033.008354 102.935599 
L 1033.471701 105.40582 
L 1033.935048 103.058569 
L 1034.398396 103.922181 
L 1034.861743 110.644498 
L 1035.325091 111.583493 
L 1035.788438 113.424734 
L 1036.251785 117.178829 
L 1036.715133 113.674914 
L 1037.17848 119.007349 
L 1037.641827 125.894567 
L 1038.105175 120.237514 
L 1038.568522 123.511039 
L 1039.03187 129.013087 
L 1039.495217 126.590453 
L 1039.958564 129.948785 
L 1040.421912 130.80533 
L 1040.885259 126.646522 
L 1041.811954 122.901381 
L 1042.275301 119.183095 
L 1042.738649 118.183323 
L 1043.665344 106.996426 
L 1044.128691 97.033095 
L 1045.055386 84.168917 
L 1045.518733 79.831073 
L 1045.982081 80.996219 
L 1046.445428 83.586582 
L 1047.372123 91.794424 
L 1047.83547 95.630969 
L 1048.298818 97.493411 
L 1048.762165 95.862303 
L 1049.68886 97.328983 
L 1050.152207 93.570649 
L 1050.615555 86.9289 
L 1051.078902 87.019832 
L 1051.542249 87.261531 
L 1052.005597 84.240541 
L 1052.468944 87.403347 
L 1052.932291 77.882894 
L 1053.395639 75.02445 
L 1053.858986 84.455858 
L 1054.785681 96.616617 
L 1055.249028 102.848942 
L 1055.712376 100.471067 
L 1056.175723 112.661037 
L 1056.639071 119.187828 
L 1057.102418 118.741653 
L 1057.565765 120.728949 
L 1058.029113 116.883453 
L 1058.49246 108.142747 
L 1058.955808 112.436305 
L 1059.882502 104.264744 
L 1060.34585 104.577115 
L 1060.809197 98.166227 
L 1061.272545 97.222993 
L 1061.735892 101.231507 
L 1062.199239 99.164588 
L 1063.125934 86.354592 
L 1063.589282 79.877744 
L 1064.052629 79.363253 
L 1064.515976 80.740415 
L 1064.979324 83.561639 
L 1065.442671 89.650264 
L 1066.369366 110.336417 
L 1067.296061 123.580813 
L 1067.759408 123.195887 
L 1068.222756 125.696733 
L 1068.686103 122.590937 
L 1069.14945 118.439196 
L 1069.612798 116.65261 
L 1070.539492 105.114709 
L 1071.466187 108.337822 
L 1071.929535 106.346287 
L 1072.392882 109.542074 
L 1072.856229 109.98401 
L 1073.782924 114.962143 
L 1074.246272 114.18381 
L 1074.709619 110.479658 
L 1075.172966 111.013468 
L 1075.636314 108.574344 
L 1076.099661 109.068106 
L 1076.563009 107.272097 
L 1077.026356 106.095645 
L 1077.489703 105.519905 
L 1077.953051 105.778094 
L 1078.416398 101.343666 
L 1078.879746 102.051799 
L 1079.80644 106.26432 
L 1080.269788 106.630873 
L 1080.733135 105.944413 
L 1081.196483 106.426397 
L 1081.65983 115.207623 
L 1082.123177 114.916926 
L 1082.586525 117.205756 
L 1083.049872 115.433304 
L 1083.51322 116.869359 
L 1084.439914 118.485863 
L 1084.903262 118.317665 
L 1085.366609 120.283759 
L 1085.829956 119.298122 
L 1086.756651 122.643733 
L 1087.219999 124.793575 
L 1087.683346 128.891606 
L 1088.610041 131.857945 
L 1089.073388 131.162063 
L 1089.536736 134.574576 
L 1090.000083 132.305065 
L 1091.390125 136.601451 
L 1091.853473 144.890329 
L 1092.31682 148.340534 
L 1092.780167 153.585807 
L 1093.243515 162.760441 
L 1093.706862 167.836101 
L 1094.17021 171.050733 
L 1094.633557 175.047468 
L 1095.096904 172.808581 
L 1095.560252 175.985522 
L 1096.023599 175.961023 
L 1096.486947 181.423023 
L 1096.950294 183.031046 
L 1097.413641 183.998311 
L 1097.876989 186.44733 
L 1098.340336 184.191953 
L 1098.803684 185.94132 
L 1099.267031 189.45513 
L 1099.730378 187.171485 
L 1100.193726 191.889074 
L 1100.657073 192.512401 
L 1101.120421 191.272345 
L 1101.583768 195.987578 
L 1102.047115 196.80172 
L 1102.510463 195.834928 
L 1102.97381 193.810413 
L 1103.437157 192.829487 
L 1103.900505 189.839122 
L 1104.363852 192.271651 
L 1105.290547 193.968251 
L 1105.753894 198.853096 
L 1106.217242 206.85222 
L 1106.680589 207.466124 
L 1107.143937 210.280282 
L 1107.607284 202.653837 
L 1108.070631 201.366666 
L 1108.533979 201.669614 
L 1108.997326 197.941904 
L 1109.460674 195.271919 
L 1109.924021 194.203831 
L 1110.850716 202.973278 
L 1111.314063 214.480086 
L 1111.777411 214.563951 
L 1112.704105 227.353691 
L 1113.167453 229.621319 
L 1113.6308 236.411952 
L 1114.094148 235.282615 
L 1114.557495 231.962447 
L 1115.020842 240.444495 
L 1115.48419 237.590763 
L 1116.410885 234.809116 
L 1116.874232 232.400617 
L 1117.337579 234.208877 
L 1117.800927 242.98068 
L 1118.264274 245.290712 
L 1118.727621 248.705581 
L 1119.190969 249.456118 
L 1120.581011 257.043461 
L 1121.044358 255.186203 
L 1121.507706 254.271237 
L 1121.971053 251.007607 
L 1122.434401 256.740516 
L 1122.897748 259.627702 
L 1123.361095 259.070808 
L 1123.824443 253.73649 
L 1124.28779 253.551801 
L 1124.751138 252.347081 
L 1125.214485 253.592321 
L 1125.677832 253.944739 
L 1126.14118 255.859007 
L 1126.604527 257.137228 
L 1127.994569 266.539426 
L 1128.921264 266.444255 
L 1129.384612 269.800231 
L 1129.847959 268.338736 
L 1130.311306 270.914965 
L 1130.774654 270.021201 
L 1131.238001 265.30644 
L 1132.628043 259.826067 
L 1133.091391 262.025379 
L 1133.554738 256.483756 
L 1134.018085 254.506356 
L 1134.481433 247.073081 
L 1134.94478 246.509119 
L 1135.408128 257.28565 
L 1135.871475 258.236424 
L 1136.334822 247.342579 
L 1136.79817 247.46178 
L 1137.261517 243.814166 
L 1137.724865 247.565905 
L 1138.651559 249.357675 
L 1139.114907 238.876083 
L 1139.578254 237.513529 
L 1140.504949 249.006202 
L 1140.968296 251.775601 
L 1141.431644 248.933647 
L 1141.894991 244.836088 
L 1142.358339 236.380425 
L 1144.211728 236.80116 
L 1145.138423 232.225387 
L 1148.845202 222.372776 
L 1149.771897 216.972497 
L 1153.478676 215.923255 
L 1159.038845 210.709079 
L 1165.062361 201.996642 
L 1165.525708 195.376094 
L 1165.989056 190.534124 
L 1166.452403 187.23987 
L 1166.91575 179.351938 
L 1167.842445 174.860972 
L 1168.305793 166.789294 
L 1168.76914 169.292495 
L 1169.232487 161.868643 
L 1169.695835 160.246958 
L 1170.159182 157.362601 
L 1171.085877 153.96705 
L 1171.549224 154.072116 
L 1172.012572 155.675428 
L 1172.475919 153.158565 
L 1172.939267 153.562809 
L 1173.402614 158.869331 
L 1173.865961 160.65639 
L 1174.329309 164.891054 
L 1174.792656 161.759345 
L 1175.256004 157.555778 
L 1175.719351 160.127296 
L 1176.182698 163.598703 
L 1176.646046 155.571783 
L 1177.572741 147.522721 
L 1178.499435 146.597391 
L 1179.42613 139.577783 
L 1179.889478 145.115166 
L 1180.352825 147.658415 
L 1180.816172 153.231135 
L 1181.27952 154.620075 
L 1182.206215 163.110604 
L 1182.669562 161.920018 
L 1183.132909 156.861321 
L 1183.596257 155.793233 
L 1184.059604 155.599121 
L 1184.522951 153.485088 
L 1184.986299 152.572479 
L 1185.449646 151.249971 
L 1185.912994 150.450437 
L 1186.376341 144.013636 
L 1187.303036 123.759528 
L 1187.766383 123.588974 
L 1188.229731 120.744664 
L 1188.693078 120.128876 
L 1189.156425 128.285834 
L 1189.619773 134.129462 
L 1190.546468 152.601227 
L 1191.009815 149.785186 
L 1191.473162 148.483881 
L 1191.93651 144.956409 
L 1192.399857 135.221584 
L 1192.863205 132.18646 
L 1193.789899 123.270488 
L 1194.253247 129.083492 
L 1194.716594 129.902345 
L 1196.106636 124.351773 
L 1196.569984 128.880903 
L 1197.033331 129.252167 
L 1197.496679 126.113391 
L 1197.960026 125.653082 
L 1198.423373 126.368283 
L 1198.886721 128.546393 
L 1199.350068 131.633815 
L 1199.813415 131.957965 
L 1200.276763 133.182004 
L 1200.74011 128.594453 
L 1201.203458 128.299045 
L 1201.666805 132.983653 
L 1202.130152 134.417352 
L 1202.5935 132.668458 
L 1203.056847 130.337698 
L 1203.520195 125.80904 
L 1203.983542 130.107309 
L 1204.446889 131.599901 
L 1204.910237 129.655481 
L 1205.373584 126.705163 
L 1205.836932 121.841991 
L 1206.300279 120.069539 
L 1206.763626 120.257056 
L 1207.690321 108.853432 
L 1208.153669 104.892505 
L 1208.617016 103.223706 
L 1209.080363 103.759871 
L 1209.543711 99.424383 
L 1210.007058 98.25971 
L 1210.470406 99.662785 
L 1210.933753 100.121211 
L 1211.3971 102.614989 
L 1211.860448 100.326632 
L 1212.323795 104.540094 
L 1212.787143 106.223501 
L 1213.25049 105.883334 
L 1213.713837 103.78108 
L 1214.640532 96.926373 
L 1215.103879 100.515567 
L 1215.567227 98.479273 
L 1216.030574 95.180307 
L 1216.957269 81.859117 
L 1217.420616 85.318745 
L 1217.883964 85.38612 
L 1218.347311 81.411059 
L 1218.810659 81.395983 
L 1219.737353 95.076189 
L 1220.200701 104.872736 
L 1220.664048 103.877676 
L 1221.127396 108.665937 
L 1221.590743 107.326939 
L 1222.05409 112.41909 
L 1222.517438 113.171982 
L 1222.980785 110.322961 
L 1223.444133 108.939205 
L 1224.370827 104.05389 
L 1224.834175 104.827984 
L 1225.297522 97.255721 
L 1226.224217 96.957957 
L 1226.687564 99.166692 
L 1227.150912 95.321196 
L 1227.614259 96.691291 
L 1228.077607 94.252167 
L 1228.540954 99.711811 
L 1229.004301 101.569542 
L 1229.467649 98.675762 
L 1229.930996 102.161303 
L 1230.394344 109.31943 
L 1231.321038 114.377659 
L 1232.247733 110.388464 
L 1232.71108 107.59598 
L 1233.174428 103.022563 
L 1233.637775 101.094633 
L 1234.101123 96.862797 
L 1234.56447 99.269414 
L 1235.027817 93.850289 
L 1235.491165 95.771625 
L 1236.41786 100.843988 
L 1236.881207 95.589764 
L 1237.344554 99.301456 
L 1237.807902 94.728039 
L 1238.271249 96.604616 
L 1238.734597 95.213792 
L 1239.197944 97.304741 
L 1239.661291 96.952795 
L 1240.124639 95.75043 
L 1240.587986 90.884903 
L 1241.051334 91.418712 
L 1241.514681 90.508458 
L 1241.978028 90.889145 
L 1242.441376 86.398179 
L 1242.904723 88.074518 
L 1243.368071 94.243238 
L 1243.831418 95.370692 
L 1244.294765 96.943379 
L 1244.758113 100.322913 
L 1245.22146 98.790746 
L 1245.684808 99.072492 
L 1246.611502 84.952709 
L 1247.07485 85.418202 
L 1247.538197 85.702304 
L 1248.464892 89.952516 
L 1248.928239 94.10473 
L 1249.391587 101.28877 
L 1249.854934 110.720178 
L 1250.318281 114.146826 
L 1252.171671 111.105107 
L 1252.635018 109.127707 
L 1253.098366 111.244568 
L 1253.561713 109.37082 
L 1254.488408 108.330059 
L 1254.951755 104.915662 
L 1255.87845 114.244832 
L 1256.341798 113.977693 
L 1257.268492 120.126626 
L 1258.195187 137.102501 
L 1259.121882 147.482327 
L 1259.585229 156.18817 
L 1260.048577 157.645426 
L 1260.511924 162.523205 
L 1260.975272 165.155971 
L 1261.438619 164.665038 
L 1261.901966 165.083416 
L 1262.365314 161.664308 
L 1262.828661 159.163935 
L 1263.292009 161.930978 
L 1263.755356 160.707412 
L 1264.218703 159.952636 
L 1264.682051 162.159015 
L 1265.145398 159.675133 
L 1265.608745 162.85914 
L 1266.072093 161.809898 
L 1266.53544 162.020972 
L 1266.998788 161.923446 
L 1267.462135 163.456085 
L 1267.925482 165.966354 
L 1268.38883 173.821777 
L 1268.852177 173.710117 
L 1269.315525 174.375847 
L 1269.778872 171.093371 
L 1270.705567 166.700404 
L 1272.095609 157.752866 
L 1272.558956 158.04168 
L 1273.022304 164.217467 
L 1273.485651 167.523972 
L 1273.948999 167.431157 
L 1274.412346 166.900176 
L 1274.875693 165.898049 
L 1275.802388 175.766681 
L 1277.655778 185.821889 
L 1278.119125 187.229675 
L 1278.582473 182.413618 
L 1279.04582 175.37375 
L 1279.509167 171.869836 
L 1279.972515 170.144498 
L 1280.435862 169.568758 
L 1280.899209 167.150836 
L 1281.362557 168.315982 
L 1281.825904 171.749697 
L 1282.289252 183.400204 
L 1283.215946 195.261786 
L 1283.679294 198.280892 
L 1284.142641 202.83358 
L 1285.069336 216.690466 
L 1285.532683 215.99694 
L 1285.996031 216.672093 
L 1286.459378 221.564006 
L 1287.386073 239.013384 
L 1287.84942 242.553107 
L 1288.312768 244.735928 
L 1288.776115 244.77739 
L 1289.239463 248.328892 
L 1289.70281 246.285531 
L 1290.166157 245.377633 
L 1290.629505 244.179979 
L 1291.092852 241.717298 
L 1291.5562 241.450159 
L 1292.019547 243.703653 
L 1292.946242 240.176181 
L 1293.409589 243.273026 
L 1294.336284 241.746985 
L 1294.799631 243.939229 
L 1295.262979 242.239805 
L 1295.726326 243.525093 
L 1297.116368 243.422855 
L 1298.043063 232.907341 
L 1298.50641 233.862827 
L 1298.969758 233.642802 
L 1299.433105 235.090636 
L 1299.896453 231.991907 
L 1300.3598 235.166492 
L 1301.286495 242.764199 
L 1301.749842 241.616016 
L 1302.21319 238.585604 
L 1302.676537 237.456267 
L 1303.139884 238.934725 
L 1303.603232 237.190541 
L 1304.066579 232.873899 
L 1304.993274 231.838792 
L 1305.456621 226.579857 
L 1305.919969 225.007642 
L 1306.383316 225.018479 
L 1306.846664 223.356747 
L 1307.310011 216.488848 
L 1307.773358 213.757613 
L 1308.700053 211.558774 
L 1309.626748 217.304876 
L 1310.090095 213.468803 
L 1310.553443 212.363024 
L 1311.01679 218.576502 
L 1311.480138 218.033742 
L 1311.943485 221.389718 
L 1312.406832 218.882278 
L 1312.87018 217.015597 
L 1313.796874 220.615628 
L 1314.260222 219.460378 
L 1314.723569 219.739768 
L 1315.186917 213.906035 
L 1315.650264 211.278453 
L 1316.113611 207.366996 
L 1316.576959 201.377785 
L 1317.040306 193.164763 
L 1317.503654 190.275694 
L 1317.967001 190.206436 
L 1318.430348 189.084166 
L 1318.893696 191.120933 
L 1319.357043 193.798458 
L 1319.820391 200.454814 
L 1320.283738 203.961557 
L 1320.747085 203.355193 
L 1321.210433 203.088053 
L 1321.67378 202.554716 
L 1322.137128 202.648004 
L 1322.600475 200.863774 
L 1323.063822 193.746167 
L 1323.52717 191.928956 
L 1323.990517 192.050512 
L 1324.453865 193.837571 
L 1324.917212 194.098116 
L 1325.380559 191.58832 
L 1325.843907 186.583804 
L 1326.307254 182.88672 
L 1326.770602 183.135486 
L 1327.697296 178.254882 
L 1328.160644 171.474145 
L 1328.623991 167.739369 
L 1329.087338 168.18366 
L 1329.550686 169.084964 
L 1330.014033 166.96622 
L 1330.477381 165.653136 
L 1330.940728 164.851245 
L 1331.404075 170.1507 
L 1331.867423 173.292304 
L 1332.794118 174.41175 
L 1333.257465 173.998555 
L 1333.720812 174.367463 
L 1334.18416 168.154457 
L 1334.647507 165.628171 
L 1335.110855 163.780336 
L 1335.574202 163.762904 
L 1336.037549 166.29673 
L 1336.500897 168.170951 
L 1336.964244 166.32076 
L 1337.427592 171.535408 
L 1337.890939 169.737044 
L 1338.354286 167.307343 
L 1338.817634 169.574971 
L 1339.280981 171.065207 
L 1339.744329 168.788629 
L 1340.207676 168.276494 
L 1340.671023 161.630033 
L 1341.134371 164.095542 
L 1341.597718 170.75661 
L 1342.061066 169.436459 
L 1342.524413 160.8795 
L 1342.98776 159.215412 
L 1343.451108 159.353458 
L 1343.914455 162.457371 
L 1344.377803 161.591876 
L 1345.304497 151.495682 
L 1345.767845 157.43354 
L 1346.231192 158.14403 
L 1346.694539 159.116005 
L 1347.621234 167.63716 
L 1348.084582 169.499602 
L 1348.547929 175.965144 
L 1349.011276 173.547221 
L 1349.474624 173.152873 
L 1350.401319 164.156806 
L 1350.864666 157.218235 
L 1351.328013 158.623665 
L 1351.791361 153.164493 
L 1352.254708 155.502793 
L 1352.718056 156.481836 
L 1353.181403 159.543345 
L 1353.64475 159.83687 
L 1354.108098 165.897226 
L 1354.571445 162.284948 
L 1355.034793 166.781098 
L 1355.49814 168.883825 
L 1355.961487 172.204465 
L 1356.424835 171.939682 
L 1356.888182 174.318029 
L 1357.35153 172.847111 
L 1357.814877 169.741315 
L 1359.204919 140.400208 
L 1359.668267 134.128309 
L 1360.594961 111.167464 
L 1361.058309 109.741305 
L 1361.985003 123.032816 
L 1362.448351 134.256936 
L 1362.911698 130.354903 
L 1363.375046 134.057171 
L 1363.838393 136.739408 
L 1364.30174 136.354482 
L 1365.691783 109.117044 
L 1366.15513 110.178537 
L 1366.618477 104.474369 
L 1367.081825 106.207246 
L 1367.545172 100.484232 
L 1368.00852 102.061631 
L 1368.471867 102.871061 
L 1368.935214 97.039683 
L 1369.398562 98.218963 
L 1369.861909 97.516014 
L 1370.325257 99.091057 
L 1371.251951 104.371666 
L 1371.715299 104.464953 
L 1372.178646 102.10828 
L 1372.641994 107.297015 
L 1373.105341 102.914413 
L 1373.568688 101.2197 
L 1374.032036 96.928971 
L 1374.958731 91.537174 
L 1375.422078 92.000312 
L 1375.885425 88.446927 
L 1376.348773 91.166855 
L 1376.81212 89.52868 
L 1377.275467 91.226221 
L 1377.738815 90.883698 
L 1378.202162 101.523597 
L 1379.128857 104.532339 
L 1379.592204 107.532599 
L 1380.055552 111.347943 
L 1380.518899 116.847635 
L 1380.982247 119.927991 
L 1381.445594 112.687885 
L 1381.908941 112.046185 
L 1382.372289 108.481021 
L 1382.835636 110.265724 
L 1383.298984 109.878443 
L 1384.225678 100.726898 
L 1384.689026 100.153513 
L 1385.152373 102.103118 
L 1385.615721 104.75473 
L 1386.542415 97.645604 
L 1387.005763 95.451477 
L 1387.46911 100.105461 
L 1387.932458 99.923128 
L 1388.395805 97.16598 
L 1388.859152 92.576073 
L 1389.3225 95.698832 
L 1389.785847 97.905211 
L 1390.249195 97.60038 
L 1390.712542 93.90094 
L 1391.175889 91.735081 
L 1391.639237 92.030961 
L 1392.102584 99.339855 
L 1392.565932 99.671072 
L 1393.029279 104.614811 
L 1393.492626 108.067372 
L 1393.955974 109.20896 
L 1394.419321 109.636762 
L 1394.882668 111.784248 
L 1398.1261 69.716068 
L 1398.589448 70.584391 
L 1399.052795 68.444445 
L 1400.442837 78.378097 
L 1400.906185 87.270042 
L 1401.369532 87.318571 
L 1402.296227 93.86091 
L 1402.759574 90.286324 
L 1403.222922 93.051011 
L 1403.686269 89.881611 
L 1404.149616 84.396526 
L 1404.612964 85.109371 
L 1405.076311 81.087195 
L 1405.539659 83.321843 
L 1406.003006 87.679005 
L 1406.466353 87.046727 
L 1406.929701 90.131794 
L 1407.393048 90.934157 
L 1408.78309 94.927595 
L 1409.246438 92.589768 
L 1409.709785 88.748983 
L 1410.173132 88.387615 
L 1410.63648 91.394943 
L 1411.099827 90.143108 
L 1411.563175 89.348285 
L 1412.026522 92.381525 
L 1415.733301 105.080333 
L 1416.659996 124.78179 
L 1417.123343 128.104786 
L 1417.586691 136.878945 
L 1418.050038 148.753247 
L 1418.513386 154.669903 
L 1419.44008 148.67975 
L 1419.903428 147.041575 
L 1420.366775 146.190214 
L 1420.830123 153.840689 
L 1421.29347 154.273202 
L 1421.756817 151.235722 
L 1422.220165 145.439681 
L 1422.683512 144.89221 
L 1423.14686 139.946587 
L 1423.610207 141.081108 
L 1424.073554 138.045984 
L 1424.536902 137.291209 
L 1425.000249 139.217256 
L 1425.463597 143.35769 
L 1425.926944 149.787896 
L 1426.390291 158.731668 
L 1426.853639 162.86268 
L 1427.316986 163.382355 
L 1428.243681 158.541799 
L 1428.707028 161.615087 
L 1429.170376 159.920374 
L 1430.560418 145.210717 
L 1431.023765 144.371135 
L 1431.487113 152.909721 
L 1431.95046 146.352778 
L 1432.413807 146.118619 
L 1433.340502 152.89182 
L 1433.80385 155.303148 
L 1434.267197 158.444752 
L 1434.730544 154.825407 
L 1435.193892 161.257968 
L 1435.657239 162.752916 
L 1436.120587 160.907437 
L 1436.583934 160.138527 
L 1437.047281 158.846644 
L 1437.510629 159.839821 
L 1438.437324 160.564445 
L 1438.900671 162.655393 
L 1439.827366 155.656987 
L 1440.754061 161.417224 
L 1441.217408 158.3821 
L 1441.680755 158.063134 
L 1442.144103 156.323663 
L 1442.60745 160.939955 
L 1443.070797 167.539774 
L 1443.534145 168.450501 
L 1443.997492 174.71345 
L 1444.46084 175.416872 
L 1445.387534 185.226611 
L 1445.850882 184.674428 
L 1446.314229 183.582783 
L 1446.777577 184.618363 
L 1447.240924 183.799983 
L 1447.704271 192.373905 
L 1448.167619 192.695698 
L 1448.630966 195.952734 
L 1449.557661 197.696448 
L 1450.021008 199.726147 
L 1450.484356 198.102106 
L 1450.947703 196.916232 
L 1451.411051 198.305172 
L 1451.874398 198.162886 
L 1452.801093 204.931376 
L 1453.26444 206.096522 
L 1453.727788 206.955422 
L 1454.191135 211.244268 
L 1454.654482 211.836971 
L 1455.11783 212.123428 
L 1455.581177 215.036527 
L 1456.044525 214.269973 
L 1456.507872 211.814359 
L 1456.971219 211.674429 
L 1457.434567 207.62634 
L 1457.897914 208.767929 
L 1458.824609 215.630648 
L 1459.287956 222.020806 
L 1459.751304 226.425083 
L 1460.214651 233.618546 
L 1460.677998 238.354981 
L 1461.141346 240.851115 
L 1461.604693 241.717082 
L 1462.068041 240.858654 
L 1462.531388 239.602108 
L 1462.994735 242.157135 
L 1463.92143 233.71231 
L 1464.384778 231.965771 
L 1464.848125 225.818725 
L 1465.311472 227.542179 
L 1466.238167 229.260922 
L 1466.701515 225.695758 
L 1467.164862 226.820856 
L 1467.628209 229.870587 
L 1468.091557 231.325488 
L 1468.554904 234.636705 
L 1469.018252 227.481407 
L 1469.944946 221.383831 
L 1470.408294 220.857562 
L 1470.871641 221.014454 
L 1471.334989 223.689624 
L 1471.798336 224.859481 
L 1472.261683 223.440389 
L 1472.725031 224.080206 
L 1473.651726 226.233818 
L 1474.115073 228.141019 
L 1474.57842 228.538196 
L 1475.041768 226.756321 
L 1475.505115 225.952075 
L 1476.43181 236.303633 
L 1476.895157 236.335671 
L 1477.358505 233.121512 
L 1477.821852 231.309012 
L 1478.285199 228.869889 
L 1478.748547 229.328315 
L 1479.211894 229.325017 
L 1479.675242 228.223949 
L 1480.138589 228.18296 
L 1480.601936 229.527141 
L 1481.065284 226.29178 
L 1481.528631 231.07533 
L 1481.991979 234.101503 
L 1482.455326 232.847312 
L 1482.918673 234.672063 
L 1483.382021 235.780671 
L 1484.308716 243.286505 
L 1484.772063 243.478733 
L 1486.162105 245.336464 
L 1486.625453 246.942131 
L 1487.0888 246.062502 
L 1487.552147 246.01209 
L 1488.015495 244.562373 
L 1488.478842 246.42246 
L 1488.94219 249.361471 
L 1489.405537 253.101432 
L 1489.868884 254.480949 
L 1490.332232 256.256229 
L 1490.795579 262.161107 
L 1491.258926 263.269715 
L 1491.722274 264.736394 
L 1492.185621 268.031121 
L 1492.648969 266.119681 
L 1494.502358 277.871016 
L 1494.965706 276.725189 
L 1495.429053 268.740673 
L 1495.8924 264.464078 
L 1496.355748 262.675136 
L 1496.819095 259.180644 
L 1497.282443 253.276239 
L 1497.74579 245.819407 
L 1498.672485 227.982279 
L 1499.135832 226.796405 
L 1499.59918 220.307778 
L 1500.525874 205.698003 
L 1500.989222 205.273029 
L 1501.915917 216.500919 
L 1502.379264 218.1325 
L 1502.842611 220.484934 
L 1503.769306 231.046152 
L 1504.232654 232.496341 
L 1504.696001 231.25864 
L 1505.159348 232.972671 
L 1505.622696 229.954037 
L 1506.086043 230.292321 
L 1506.549391 225.975679 
L 1507.012738 217.138388 
L 1507.476085 210.673319 
L 1507.939433 208.674717 
L 1508.866127 196.858839 
L 1509.329475 192.254798 
L 1509.792822 192.767406 
L 1510.25617 196.363667 
L 1511.182864 199.528828 
L 1511.646212 194.392392 
L 1512.109559 195.19711 
L 1512.572907 197.356375 
L 1513.036254 197.049188 
L 1513.962949 194.448933 
L 1514.426296 193.548102 
L 1514.889644 192.16199 
L 1515.352991 185.456636 
L 1515.816338 176.051614 
L 1516.743033 164.925966 
L 1517.669728 160.437355 
L 1518.133075 153.251432 
L 1518.596423 152.126806 
L 1519.05977 148.323714 
L 1519.523118 150.961192 
L 1519.986465 148.48202 
L 1520.449812 144.895655 
L 1521.376507 139.947677 
L 1522.303202 142.263834 
L 1522.766549 153.79891 
L 1523.229897 158.137227 
L 1523.693244 159.172807 
L 1524.619939 165.576158 
L 1525.546634 153.602447 
L 1526.473328 138.161098 
L 1527.400023 128.536051 
L 1527.863371 128.84371 
L 1528.790065 133.742691 
L 1529.71676 147.119008 
L 1530.180108 150.093355 
L 1530.643455 155.364541 
L 1531.106802 154.810003 
L 1531.57015 156.747828 
L 1532.033497 156.626744 
L 1532.960192 149.227864 
L 1533.423539 147.726321 
L 1533.886887 144.7336 
L 1534.350234 142.485291 
L 1534.813582 130.726892 
L 1536.203624 120.870042 
L 1536.666971 119.490997 
L 1537.130319 120.922341 
L 1537.593666 126.791882 
L 1538.057013 137.36582 
L 1538.520361 144.333133 
L 1538.983708 144.009456 
L 1539.910403 150.224349 
L 1540.37375 150.640372 
L 1540.837098 153.833803 
L 1541.300445 151.486552 
L 1541.763792 146.663428 
L 1542.22714 150.03825 
L 1543.153835 150.542849 
L 1543.617182 152.629086 
L 1545.007224 135.869942 
L 1545.470572 130.853647 
L 1545.933919 131.79971 
L 1546.397266 133.586769 
L 1546.860614 134.485717 
L 1547.323961 136.859353 
L 1547.787309 144.184737 
L 1548.250656 147.80691 
L 1548.714003 149.551566 
L 1549.177351 150.071241 
L 1550.104046 143.200044 
L 1550.567393 140.706739 
L 1551.03074 135.513764 
L 1551.494088 134.52106 
L 1551.957435 135.961826 
L 1552.420783 129.901943 
L 1552.88413 129.022313 
L 1553.810825 136.15123 
L 1554.274172 137.653245 
L 1554.73752 142.043387 
L 1555.200867 140.475884 
L 1555.664214 142.519718 
L 1556.127562 142.318539 
L 1556.590909 134.840505 
L 1556.590909 134.840505 
" clip-path="url(#p3732484e44)" style="fill: none; stroke: #539ff4; stroke-width: 2.5; stroke-linecap: square"/>
   </g>
   <g id="patch_3">
    <path d="M 225 320.4 
L 225 43.2 
" style="fill: none; stroke: #000000; stroke-width: 0.8; stroke-linejoin: miter; stroke-linecap: square"/>
   </g>
   <g id="patch_4">
    <path d="M 1620 320.4 
L 1620 43.2 
" style="fill: none; stroke: #000000; stroke-width: 0.8; stroke-linejoin: miter; stroke-linecap: square"/>
   </g>
   <g id="patch_5">
    <path d="M 225 320.4 
L 1620 320.4 
" style="fill: none; stroke: #000000; stroke-width: 0.8; stroke-linejoin: miter; stroke-linecap: square"/>
   </g>
   <g id="patch_6">
    <path d="M 225 43.2 
L 1620 43.2 
" style="fill: none; stroke: #000000; stroke-width: 0.8; stroke-linejoin: miter; stroke-linecap: square"/>
   </g>
   <g id="text_19">
    <!-- CGIA -->
    <g transform="translate(897.978125 37.2) scale(0.2 -0.2)">
     <defs>
      <path id="DejaVuSans-43" d="M 4122 4306 
L 4122 3641 
Q 3803 3938 3442 4084 
Q 3081 4231 2675 4231 
Q 1875 4231 1450 3742 
Q 1025 3253 1025 2328 
Q 1025 1406 1450 917 
Q 1875 428 2675 428 
Q 3081 428 3442 575 
Q 3803 722 4122 1019 
L 4122 359 
Q 3791 134 3420 21 
Q 3050 -91 2638 -91 
Q 1578 -91 968 557 
Q 359 1206 359 2328 
Q 359 3453 968 4101 
Q 1578 4750 2638 4750 
Q 3056 4750 3426 4639 
Q 3797 4528 4122 4306 
z
" transform="scale(0.015625)"/>
      <path id="DejaVuSans-47" d="M 3809 666 
L 3809 1919 
L 2778 1919 
L 2778 2438 
L 4434 2438 
L 4434 434 
Q 4069 175 3628 42 
Q 3188 -91 2688 -91 
Q 1594 -91 976 548 
Q 359 1188 359 2328 
Q 359 3472 976 4111 
Q 1594 4750 2688 4750 
Q 3144 4750 3555 4637 
Q 3966 4525 4313 4306 
L 4313 3634 
Q 3963 3931 3569 4081 
Q 3175 4231 2741 4231 
Q 1884 4231 1454 3753 
Q 1025 3275 1025 2328 
Q 1025 1384 1454 906 
Q 1884 428 2741 428 
Q 3075 428 3337 486 
Q 3600 544 3809 666 
z
" transform="scale(0.015625)"/>
      <path id="DejaVuSans-49" d="M 628 4666 
L 1259 4666 
L 1259 0 
L 628 0 
L 628 4666 
z
" transform="scale(0.015625)"/>
      <path id="DejaVuSans-41" d="M 2188 4044 
L 1331 1722 
L 3047 1722 
L 2188 4044 
z
M 1831 4666 
L 2547 4666 
L 4325 0 
L 3669 0 
L 3244 1197 
L 1141 1197 
L 716 0 
L 50 0 
L 1831 4666 
z
" transform="scale(0.015625)"/>
     </defs>
     <use xlink:href="#DejaVuSans-43"/>
     <use xlink:href="#DejaVuSans-47" x="69.824219"/>
     <use xlink:href="#DejaVuSans-49" x="147.314453"/>
     <use xlink:href="#DejaVuSans-41" x="176.806641"/>
    </g>
   </g>
   <g id="legend_1">
    <g id="patch_7">
     <path d="M 1560.246875 65.878125 
L 1613 65.878125 
Q 1615 65.878125 1615 63.878125 
L 1615 50.2 
Q 1615 48.2 1613 48.2 
L 1560.246875 48.2 
Q 1558.246875 48.2 1558.246875 50.2 
L 1558.246875 63.878125 
Q 1558.246875 65.878125 1560.246875 65.878125 
z
" style="fill: #ffffff; opacity: 0.8; stroke: #cccccc; stroke-linejoin: miter"/>
    </g>
    <g id="line2d_18">
     <path d="M 1562.246875 56.298437 
L 1572.246875 56.298437 
L 1582.246875 56.298437 
" style="fill: none; stroke: #539ff4; stroke-width: 2.5; stroke-linecap: square"/>
    </g>
    <g id="text_20">
     <!-- cgia -->
     <g transform="translate(1590.246875 59.798437) scale(0.1 -0.1)">
      <defs>
       <path id="DejaVuSans-63" d="M 3122 3366 
L 3122 2828 
Q 2878 2963 2633 3030 
Q 2388 3097 2138 3097 
Q 1578 3097 1268 2742 
Q 959 2388 959 1747 
Q 959 1106 1268 751 
Q 1578 397 2138 397 
Q 2388 397 2633 464 
Q 2878 531 3122 666 
L 3122 134 
Q 2881 22 2623 -34 
Q 2366 -91 2075 -91 
Q 1284 -91 818 406 
Q 353 903 353 1747 
Q 353 2603 823 3093 
Q 1294 3584 2113 3584 
Q 2378 3584 2631 3529 
Q 2884 3475 3122 3366 
z
" transform="scale(0.015625)"/>
       <path id="DejaVuSans-67" d="M 2906 1791 
Q 2906 2416 2648 2759 
Q 2391 3103 1925 3103 
Q 1463 3103 1205 2759 
Q 947 2416 947 1791 
Q 947 1169 1205 825 
Q 1463 481 1925 481 
Q 2391 481 2648 825 
Q 2906 1169 2906 1791 
z
M 3481 434 
Q 3481 -459 3084 -895 
Q 2688 -1331 1869 -1331 
Q 1566 -1331 1297 -1286 
Q 1028 -1241 775 -1147 
L 775 -588 
Q 1028 -725 1275 -790 
Q 1522 -856 1778 -856 
Q 2344 -856 2625 -561 
Q 2906 -266 2906 331 
L 2906 616 
Q 2728 306 2450 153 
Q 2172 0 1784 0 
Q 1141 0 747 490 
Q 353 981 353 1791 
Q 353 2603 747 3093 
Q 1141 3584 1784 3584 
Q 2172 3584 2450 3431 
Q 2728 3278 2906 2969 
L 2906 3500 
L 3481 3500 
L 3481 434 
z
" transform="scale(0.015625)"/>
      </defs>
      <use xlink:href="#DejaVuSans-63"/>
      <use xlink:href="#DejaVuSans-67" x="54.980469"/>
      <use xlink:href="#DejaVuSans-69" x="118.457031"/>
      <use xlink:href="#DejaVuSans-61" x="146.240234"/>
     </g>
    </g>
   </g>
  </g>
 </g>
 <defs>
  <clipPath id="p3732484e44">
   <rect x="225" y="43.2" width="1395" height="277.2"/>
  </clipPath>
 </defs>
</svg>
