<?xml version="1.0" encoding="utf-8" standalone="no"?>
<!DOCTYPE svg PUBLIC "-//W3C//DTD SVG 1.1//EN"
  "http://www.w3.org/Graphics/SVG/1.1/DTD/svg11.dtd">
<svg xmlns:xlink="http://www.w3.org/1999/xlink" width="1800pt" height="360pt" viewBox="0 0 1800 360" xmlns="http://www.w3.org/2000/svg" version="1.1">
 <metadata>
  <rdf:RDF xmlns:dc="http://purl.org/dc/elements/1.1/" xmlns:cc="http://creativecommons.org/ns#" xmlns:rdf="http://www.w3.org/1999/02/22-rdf-syntax-ns#">
   <cc:Work>
    <dc:type rdf:resource="http://purl.org/dc/dcmitype/StillImage"/>
    <dc:date>2024-03-25T14:05:59.554652</dc:date>
    <dc:format>image/svg+xml</dc:format>
    <dc:creator>
     <cc:Agent>
      <dc:title>Matplotlib v3.7.2, https://matplotlib.org/</dc:title>
     </cc:Agent>
    </dc:creator>
   </cc:Work>
  </rdf:RDF>
 </metadata>
 <defs>
  <style type="text/css">*{stroke-linejoin: round; stroke-linecap: butt}</style>
 </defs>
 <g id="figure_1">
  <g id="patch_1">
   <path d="M 0 360 
L 1800 360 
L 1800 0 
L 0 0 
z
" style="fill: #ffffff"/>
  </g>
  <g id="axes_1">
   <g id="patch_2">
    <path d="M 225 320.4 
L 1620 320.4 
L 1620 43.2 
L 225 43.2 
z
" style="fill: #ffffff"/>
   </g>
   <g id="matplotlib.axis_1">
    <g id="xtick_1">
     <g id="line2d_1">
      <defs>
       <path id="me43de4844f" d="M 0 0 
L 0 3.5 
" style="stroke: #000000; stroke-width: 0.8"/>
      </defs>
      <g>
       <use xlink:href="#me43de4844f" x="281.806434" y="320.4" style="stroke: #000000; stroke-width: 0.8"/>
      </g>
     </g>
     <g id="text_1">
      <!-- 2011 -->
      <g transform="translate(262.718934 338.797656) scale(0.15 -0.15)">
       <defs>
        <path id="DejaVuSans-32" d="M 1228 531 
L 3431 531 
L 3431 0 
L 469 0 
L 469 531 
Q 828 903 1448 1529 
Q 2069 2156 2228 2338 
Q 2531 2678 2651 2914 
Q 2772 3150 2772 3378 
Q 2772 3750 2511 3984 
Q 2250 4219 1831 4219 
Q 1534 4219 1204 4116 
Q 875 4013 500 3803 
L 500 4441 
Q 881 4594 1212 4672 
Q 1544 4750 1819 4750 
Q 2544 4750 2975 4387 
Q 3406 4025 3406 3419 
Q 3406 3131 3298 2873 
Q 3191 2616 2906 2266 
Q 2828 2175 2409 1742 
Q 1991 1309 1228 531 
z
" transform="scale(0.015625)"/>
        <path id="DejaVuSans-30" d="M 2034 4250 
Q 1547 4250 1301 3770 
Q 1056 3291 1056 2328 
Q 1056 1369 1301 889 
Q 1547 409 2034 409 
Q 2525 409 2770 889 
Q 3016 1369 3016 2328 
Q 3016 3291 2770 3770 
Q 2525 4250 2034 4250 
z
M 2034 4750 
Q 2819 4750 3233 4129 
Q 3647 3509 3647 2328 
Q 3647 1150 3233 529 
Q 2819 -91 2034 -91 
Q 1250 -91 836 529 
Q 422 1150 422 2328 
Q 422 3509 836 4129 
Q 1250 4750 2034 4750 
z
" transform="scale(0.015625)"/>
        <path id="DejaVuSans-31" d="M 794 531 
L 1825 531 
L 1825 4091 
L 703 3866 
L 703 4441 
L 1819 4666 
L 2450 4666 
L 2450 531 
L 3481 531 
L 3481 0 
L 794 0 
L 794 531 
z
" transform="scale(0.015625)"/>
       </defs>
       <use xlink:href="#DejaVuSans-32"/>
       <use xlink:href="#DejaVuSans-30" x="63.623047"/>
       <use xlink:href="#DejaVuSans-31" x="127.246094"/>
       <use xlink:href="#DejaVuSans-31" x="190.869141"/>
      </g>
     </g>
    </g>
    <g id="xtick_2">
     <g id="line2d_2">
      <g>
       <use xlink:href="#me43de4844f" x="453.947142" y="320.4" style="stroke: #000000; stroke-width: 0.8"/>
      </g>
     </g>
     <g id="text_2">
      <!-- 2012 -->
      <g transform="translate(434.859642 338.797656) scale(0.15 -0.15)">
       <use xlink:href="#DejaVuSans-32"/>
       <use xlink:href="#DejaVuSans-30" x="63.623047"/>
       <use xlink:href="#DejaVuSans-31" x="127.246094"/>
       <use xlink:href="#DejaVuSans-32" x="190.869141"/>
      </g>
     </g>
    </g>
    <g id="xtick_3">
     <g id="line2d_3">
      <g>
       <use xlink:href="#me43de4844f" x="626.559468" y="320.4" style="stroke: #000000; stroke-width: 0.8"/>
      </g>
     </g>
     <g id="text_3">
      <!-- 2013 -->
      <g transform="translate(607.471968 338.797656) scale(0.15 -0.15)">
       <defs>
        <path id="DejaVuSans-33" d="M 2597 2516 
Q 3050 2419 3304 2112 
Q 3559 1806 3559 1356 
Q 3559 666 3084 287 
Q 2609 -91 1734 -91 
Q 1441 -91 1130 -33 
Q 819 25 488 141 
L 488 750 
Q 750 597 1062 519 
Q 1375 441 1716 441 
Q 2309 441 2620 675 
Q 2931 909 2931 1356 
Q 2931 1769 2642 2001 
Q 2353 2234 1838 2234 
L 1294 2234 
L 1294 2753 
L 1863 2753 
Q 2328 2753 2575 2939 
Q 2822 3125 2822 3475 
Q 2822 3834 2567 4026 
Q 2313 4219 1838 4219 
Q 1578 4219 1281 4162 
Q 984 4106 628 3988 
L 628 4550 
Q 988 4650 1302 4700 
Q 1616 4750 1894 4750 
Q 2613 4750 3031 4423 
Q 3450 4097 3450 3541 
Q 3450 3153 3228 2886 
Q 3006 2619 2597 2516 
z
" transform="scale(0.015625)"/>
       </defs>
       <use xlink:href="#DejaVuSans-32"/>
       <use xlink:href="#DejaVuSans-30" x="63.623047"/>
       <use xlink:href="#DejaVuSans-31" x="127.246094"/>
       <use xlink:href="#DejaVuSans-33" x="190.869141"/>
      </g>
     </g>
    </g>
    <g id="xtick_4">
     <g id="line2d_4">
      <g>
       <use xlink:href="#me43de4844f" x="798.700176" y="320.4" style="stroke: #000000; stroke-width: 0.8"/>
      </g>
     </g>
     <g id="text_4">
      <!-- 2014 -->
      <g transform="translate(779.612676 338.797656) scale(0.15 -0.15)">
       <defs>
        <path id="DejaVuSans-34" d="M 2419 4116 
L 825 1625 
L 2419 1625 
L 2419 4116 
z
M 2253 4666 
L 3047 4666 
L 3047 1625 
L 3713 1625 
L 3713 1100 
L 3047 1100 
L 3047 0 
L 2419 0 
L 2419 1100 
L 313 1100 
L 313 1709 
L 2253 4666 
z
" transform="scale(0.015625)"/>
       </defs>
       <use xlink:href="#DejaVuSans-32"/>
       <use xlink:href="#DejaVuSans-30" x="63.623047"/>
       <use xlink:href="#DejaVuSans-31" x="127.246094"/>
       <use xlink:href="#DejaVuSans-34" x="190.869141"/>
      </g>
     </g>
    </g>
    <g id="xtick_5">
     <g id="line2d_5">
      <g>
       <use xlink:href="#me43de4844f" x="970.840884" y="320.4" style="stroke: #000000; stroke-width: 0.8"/>
      </g>
     </g>
     <g id="text_5">
      <!-- 2015 -->
      <g transform="translate(951.753384 338.797656) scale(0.15 -0.15)">
       <defs>
        <path id="DejaVuSans-35" d="M 691 4666 
L 3169 4666 
L 3169 4134 
L 1269 4134 
L 1269 2991 
Q 1406 3038 1543 3061 
Q 1681 3084 1819 3084 
Q 2600 3084 3056 2656 
Q 3513 2228 3513 1497 
Q 3513 744 3044 326 
Q 2575 -91 1722 -91 
Q 1428 -91 1123 -41 
Q 819 9 494 109 
L 494 744 
Q 775 591 1075 516 
Q 1375 441 1709 441 
Q 2250 441 2565 725 
Q 2881 1009 2881 1497 
Q 2881 1984 2565 2268 
Q 2250 2553 1709 2553 
Q 1456 2553 1204 2497 
Q 953 2441 691 2322 
L 691 4666 
z
" transform="scale(0.015625)"/>
       </defs>
       <use xlink:href="#DejaVuSans-32"/>
       <use xlink:href="#DejaVuSans-30" x="63.623047"/>
       <use xlink:href="#DejaVuSans-31" x="127.246094"/>
       <use xlink:href="#DejaVuSans-35" x="190.869141"/>
      </g>
     </g>
    </g>
    <g id="xtick_6">
     <g id="line2d_6">
      <g>
       <use xlink:href="#me43de4844f" x="1142.981592" y="320.4" style="stroke: #000000; stroke-width: 0.8"/>
      </g>
     </g>
     <g id="text_6">
      <!-- 2016 -->
      <g transform="translate(1123.894092 338.797656) scale(0.15 -0.15)">
       <defs>
        <path id="DejaVuSans-36" d="M 2113 2584 
Q 1688 2584 1439 2293 
Q 1191 2003 1191 1497 
Q 1191 994 1439 701 
Q 1688 409 2113 409 
Q 2538 409 2786 701 
Q 3034 994 3034 1497 
Q 3034 2003 2786 2293 
Q 2538 2584 2113 2584 
z
M 3366 4563 
L 3366 3988 
Q 3128 4100 2886 4159 
Q 2644 4219 2406 4219 
Q 1781 4219 1451 3797 
Q 1122 3375 1075 2522 
Q 1259 2794 1537 2939 
Q 1816 3084 2150 3084 
Q 2853 3084 3261 2657 
Q 3669 2231 3669 1497 
Q 3669 778 3244 343 
Q 2819 -91 2113 -91 
Q 1303 -91 875 529 
Q 447 1150 447 2328 
Q 447 3434 972 4092 
Q 1497 4750 2381 4750 
Q 2619 4750 2861 4703 
Q 3103 4656 3366 4563 
z
" transform="scale(0.015625)"/>
       </defs>
       <use xlink:href="#DejaVuSans-32"/>
       <use xlink:href="#DejaVuSans-30" x="63.623047"/>
       <use xlink:href="#DejaVuSans-31" x="127.246094"/>
       <use xlink:href="#DejaVuSans-36" x="190.869141"/>
      </g>
     </g>
    </g>
    <g id="xtick_7">
     <g id="line2d_7">
      <g>
       <use xlink:href="#me43de4844f" x="1315.593918" y="320.4" style="stroke: #000000; stroke-width: 0.8"/>
      </g>
     </g>
     <g id="text_7">
      <!-- 2017 -->
      <g transform="translate(1296.506418 338.797656) scale(0.15 -0.15)">
       <defs>
        <path id="DejaVuSans-37" d="M 525 4666 
L 3525 4666 
L 3525 4397 
L 1831 0 
L 1172 0 
L 2766 4134 
L 525 4134 
L 525 4666 
z
" transform="scale(0.015625)"/>
       </defs>
       <use xlink:href="#DejaVuSans-32"/>
       <use xlink:href="#DejaVuSans-30" x="63.623047"/>
       <use xlink:href="#DejaVuSans-31" x="127.246094"/>
       <use xlink:href="#DejaVuSans-37" x="190.869141"/>
      </g>
     </g>
    </g>
    <g id="xtick_8">
     <g id="line2d_8">
      <g>
       <use xlink:href="#me43de4844f" x="1487.734626" y="320.4" style="stroke: #000000; stroke-width: 0.8"/>
      </g>
     </g>
     <g id="text_8">
      <!-- 2018 -->
      <g transform="translate(1468.647126 338.797656) scale(0.15 -0.15)">
       <defs>
        <path id="DejaVuSans-38" d="M 2034 2216 
Q 1584 2216 1326 1975 
Q 1069 1734 1069 1313 
Q 1069 891 1326 650 
Q 1584 409 2034 409 
Q 2484 409 2743 651 
Q 3003 894 3003 1313 
Q 3003 1734 2745 1975 
Q 2488 2216 2034 2216 
z
M 1403 2484 
Q 997 2584 770 2862 
Q 544 3141 544 3541 
Q 544 4100 942 4425 
Q 1341 4750 2034 4750 
Q 2731 4750 3128 4425 
Q 3525 4100 3525 3541 
Q 3525 3141 3298 2862 
Q 3072 2584 2669 2484 
Q 3125 2378 3379 2068 
Q 3634 1759 3634 1313 
Q 3634 634 3220 271 
Q 2806 -91 2034 -91 
Q 1263 -91 848 271 
Q 434 634 434 1313 
Q 434 1759 690 2068 
Q 947 2378 1403 2484 
z
M 1172 3481 
Q 1172 3119 1398 2916 
Q 1625 2713 2034 2713 
Q 2441 2713 2670 2916 
Q 2900 3119 2900 3481 
Q 2900 3844 2670 4047 
Q 2441 4250 2034 4250 
Q 1625 4250 1398 4047 
Q 1172 3844 1172 3481 
z
" transform="scale(0.015625)"/>
       </defs>
       <use xlink:href="#DejaVuSans-32"/>
       <use xlink:href="#DejaVuSans-30" x="63.623047"/>
       <use xlink:href="#DejaVuSans-31" x="127.246094"/>
       <use xlink:href="#DejaVuSans-38" x="190.869141"/>
      </g>
     </g>
    </g>
    <g id="text_9">
     <!-- Time -->
     <g transform="translate(904.149609 357.314844) scale(0.15 -0.15)">
      <defs>
       <path id="DejaVuSans-54" d="M -19 4666 
L 3928 4666 
L 3928 4134 
L 2272 4134 
L 2272 0 
L 1638 0 
L 1638 4134 
L -19 4134 
L -19 4666 
z
" transform="scale(0.015625)"/>
       <path id="DejaVuSans-69" d="M 603 3500 
L 1178 3500 
L 1178 0 
L 603 0 
L 603 3500 
z
M 603 4863 
L 1178 4863 
L 1178 4134 
L 603 4134 
L 603 4863 
z
" transform="scale(0.015625)"/>
       <path id="DejaVuSans-6d" d="M 3328 2828 
Q 3544 3216 3844 3400 
Q 4144 3584 4550 3584 
Q 5097 3584 5394 3201 
Q 5691 2819 5691 2113 
L 5691 0 
L 5113 0 
L 5113 2094 
Q 5113 2597 4934 2840 
Q 4756 3084 4391 3084 
Q 3944 3084 3684 2787 
Q 3425 2491 3425 1978 
L 3425 0 
L 2847 0 
L 2847 2094 
Q 2847 2600 2669 2842 
Q 2491 3084 2119 3084 
Q 1678 3084 1418 2786 
Q 1159 2488 1159 1978 
L 1159 0 
L 581 0 
L 581 3500 
L 1159 3500 
L 1159 2956 
Q 1356 3278 1631 3431 
Q 1906 3584 2284 3584 
Q 2666 3584 2933 3390 
Q 3200 3197 3328 2828 
z
" transform="scale(0.015625)"/>
       <path id="DejaVuSans-65" d="M 3597 1894 
L 3597 1613 
L 953 1613 
Q 991 1019 1311 708 
Q 1631 397 2203 397 
Q 2534 397 2845 478 
Q 3156 559 3463 722 
L 3463 178 
Q 3153 47 2828 -22 
Q 2503 -91 2169 -91 
Q 1331 -91 842 396 
Q 353 884 353 1716 
Q 353 2575 817 3079 
Q 1281 3584 2069 3584 
Q 2775 3584 3186 3129 
Q 3597 2675 3597 1894 
z
M 3022 2063 
Q 3016 2534 2758 2815 
Q 2500 3097 2075 3097 
Q 1594 3097 1305 2825 
Q 1016 2553 972 2059 
L 3022 2063 
z
" transform="scale(0.015625)"/>
      </defs>
      <use xlink:href="#DejaVuSans-54"/>
      <use xlink:href="#DejaVuSans-69" x="57.958984"/>
      <use xlink:href="#DejaVuSans-6d" x="85.742188"/>
      <use xlink:href="#DejaVuSans-65" x="183.154297"/>
     </g>
    </g>
   </g>
   <g id="matplotlib.axis_2">
    <g id="ytick_1">
     <g id="line2d_9">
      <defs>
       <path id="m49975cdde8" d="M 0 0 
L -3.5 0 
" style="stroke: #000000; stroke-width: 0.8"/>
      </defs>
      <g>
       <use xlink:href="#m49975cdde8" x="225" y="294.313664" style="stroke: #000000; stroke-width: 0.8"/>
      </g>
     </g>
     <g id="text_10">
      <!-- −0.004 -->
      <g transform="translate(162.488281 300.012492) scale(0.15 -0.15)">
       <defs>
        <path id="DejaVuSans-2212" d="M 678 2272 
L 4684 2272 
L 4684 1741 
L 678 1741 
L 678 2272 
z
" transform="scale(0.015625)"/>
        <path id="DejaVuSans-2e" d="M 684 794 
L 1344 794 
L 1344 0 
L 684 0 
L 684 794 
z
" transform="scale(0.015625)"/>
       </defs>
       <use xlink:href="#DejaVuSans-2212"/>
       <use xlink:href="#DejaVuSans-30" x="83.789062"/>
       <use xlink:href="#DejaVuSans-2e" x="147.412109"/>
       <use xlink:href="#DejaVuSans-30" x="179.199219"/>
       <use xlink:href="#DejaVuSans-30" x="242.822266"/>
       <use xlink:href="#DejaVuSans-34" x="306.445312"/>
      </g>
     </g>
    </g>
    <g id="ytick_2">
     <g id="line2d_10">
      <g>
       <use xlink:href="#m49975cdde8" x="225" y="236.183935" style="stroke: #000000; stroke-width: 0.8"/>
      </g>
     </g>
     <g id="text_11">
      <!-- −0.002 -->
      <g transform="translate(162.488281 241.882763) scale(0.15 -0.15)">
       <use xlink:href="#DejaVuSans-2212"/>
       <use xlink:href="#DejaVuSans-30" x="83.789062"/>
       <use xlink:href="#DejaVuSans-2e" x="147.412109"/>
       <use xlink:href="#DejaVuSans-30" x="179.199219"/>
       <use xlink:href="#DejaVuSans-30" x="242.822266"/>
       <use xlink:href="#DejaVuSans-32" x="306.445312"/>
      </g>
     </g>
    </g>
    <g id="ytick_3">
     <g id="line2d_11">
      <g>
       <use xlink:href="#m49975cdde8" x="225" y="178.054206" style="stroke: #000000; stroke-width: 0.8"/>
      </g>
     </g>
     <g id="text_12">
      <!-- 0.000 -->
      <g transform="translate(175.057813 183.753034) scale(0.15 -0.15)">
       <use xlink:href="#DejaVuSans-30"/>
       <use xlink:href="#DejaVuSans-2e" x="63.623047"/>
       <use xlink:href="#DejaVuSans-30" x="95.410156"/>
       <use xlink:href="#DejaVuSans-30" x="159.033203"/>
       <use xlink:href="#DejaVuSans-30" x="222.65625"/>
      </g>
     </g>
    </g>
    <g id="ytick_4">
     <g id="line2d_12">
      <g>
       <use xlink:href="#m49975cdde8" x="225" y="119.924476" style="stroke: #000000; stroke-width: 0.8"/>
      </g>
     </g>
     <g id="text_13">
      <!-- 0.002 -->
      <g transform="translate(175.057813 125.623305) scale(0.15 -0.15)">
       <use xlink:href="#DejaVuSans-30"/>
       <use xlink:href="#DejaVuSans-2e" x="63.623047"/>
       <use xlink:href="#DejaVuSans-30" x="95.410156"/>
       <use xlink:href="#DejaVuSans-30" x="159.033203"/>
       <use xlink:href="#DejaVuSans-32" x="222.65625"/>
      </g>
     </g>
    </g>
    <g id="ytick_5">
     <g id="line2d_13">
      <g>
       <use xlink:href="#m49975cdde8" x="225" y="61.794747" style="stroke: #000000; stroke-width: 0.8"/>
      </g>
     </g>
     <g id="text_14">
      <!-- 0.004 -->
      <g transform="translate(175.057813 67.493575) scale(0.15 -0.15)">
       <use xlink:href="#DejaVuSans-30"/>
       <use xlink:href="#DejaVuSans-2e" x="63.623047"/>
       <use xlink:href="#DejaVuSans-30" x="95.410156"/>
       <use xlink:href="#DejaVuSans-30" x="159.033203"/>
       <use xlink:href="#DejaVuSans-34" x="222.65625"/>
      </g>
     </g>
    </g>
    <g id="text_15">
     <!-- East(m) -->
     <g transform="translate(155.36875 211.140234) rotate(-90) scale(0.15 -0.15)">
      <defs>
       <path id="DejaVuSans-45" d="M 628 4666 
L 3578 4666 
L 3578 4134 
L 1259 4134 
L 1259 2753 
L 3481 2753 
L 3481 2222 
L 1259 2222 
L 1259 531 
L 3634 531 
L 3634 0 
L 628 0 
L 628 4666 
z
" transform="scale(0.015625)"/>
       <path id="DejaVuSans-61" d="M 2194 1759 
Q 1497 1759 1228 1600 
Q 959 1441 959 1056 
Q 959 750 1161 570 
Q 1363 391 1709 391 
Q 2188 391 2477 730 
Q 2766 1069 2766 1631 
L 2766 1759 
L 2194 1759 
z
M 3341 1997 
L 3341 0 
L 2766 0 
L 2766 531 
Q 2569 213 2275 61 
Q 1981 -91 1556 -91 
Q 1019 -91 701 211 
Q 384 513 384 1019 
Q 384 1609 779 1909 
Q 1175 2209 1959 2209 
L 2766 2209 
L 2766 2266 
Q 2766 2663 2505 2880 
Q 2244 3097 1772 3097 
Q 1472 3097 1187 3025 
Q 903 2953 641 2809 
L 641 3341 
Q 956 3463 1253 3523 
Q 1550 3584 1831 3584 
Q 2591 3584 2966 3190 
Q 3341 2797 3341 1997 
z
" transform="scale(0.015625)"/>
       <path id="DejaVuSans-73" d="M 2834 3397 
L 2834 2853 
Q 2591 2978 2328 3040 
Q 2066 3103 1784 3103 
Q 1356 3103 1142 2972 
Q 928 2841 928 2578 
Q 928 2378 1081 2264 
Q 1234 2150 1697 2047 
L 1894 2003 
Q 2506 1872 2764 1633 
Q 3022 1394 3022 966 
Q 3022 478 2636 193 
Q 2250 -91 1575 -91 
Q 1294 -91 989 -36 
Q 684 19 347 128 
L 347 722 
Q 666 556 975 473 
Q 1284 391 1588 391 
Q 1994 391 2212 530 
Q 2431 669 2431 922 
Q 2431 1156 2273 1281 
Q 2116 1406 1581 1522 
L 1381 1569 
Q 847 1681 609 1914 
Q 372 2147 372 2553 
Q 372 3047 722 3315 
Q 1072 3584 1716 3584 
Q 2034 3584 2315 3537 
Q 2597 3491 2834 3397 
z
" transform="scale(0.015625)"/>
       <path id="DejaVuSans-74" d="M 1172 4494 
L 1172 3500 
L 2356 3500 
L 2356 3053 
L 1172 3053 
L 1172 1153 
Q 1172 725 1289 603 
Q 1406 481 1766 481 
L 2356 481 
L 2356 0 
L 1766 0 
Q 1100 0 847 248 
Q 594 497 594 1153 
L 594 3053 
L 172 3053 
L 172 3500 
L 594 3500 
L 594 4494 
L 1172 4494 
z
" transform="scale(0.015625)"/>
       <path id="DejaVuSans-28" d="M 1984 4856 
Q 1566 4138 1362 3434 
Q 1159 2731 1159 2009 
Q 1159 1288 1364 580 
Q 1569 -128 1984 -844 
L 1484 -844 
Q 1016 -109 783 600 
Q 550 1309 550 2009 
Q 550 2706 781 3412 
Q 1013 4119 1484 4856 
L 1984 4856 
z
" transform="scale(0.015625)"/>
       <path id="DejaVuSans-29" d="M 513 4856 
L 1013 4856 
Q 1481 4119 1714 3412 
Q 1947 2706 1947 2009 
Q 1947 1309 1714 600 
Q 1481 -109 1013 -844 
L 513 -844 
Q 928 -128 1133 580 
Q 1338 1288 1338 2009 
Q 1338 2731 1133 3434 
Q 928 4138 513 4856 
z
" transform="scale(0.015625)"/>
      </defs>
      <use xlink:href="#DejaVuSans-45"/>
      <use xlink:href="#DejaVuSans-61" x="63.183594"/>
      <use xlink:href="#DejaVuSans-73" x="124.462891"/>
      <use xlink:href="#DejaVuSans-74" x="176.5625"/>
      <use xlink:href="#DejaVuSans-28" x="215.771484"/>
      <use xlink:href="#DejaVuSans-6d" x="254.785156"/>
      <use xlink:href="#DejaVuSans-29" x="352.197266"/>
     </g>
    </g>
   </g>
   <g id="line2d_14">
    <path d="M 288.409091 193.027863 
L 288.880709 183.372658 
L 289.352328 205.553168 
L 289.823946 214.569717 
L 290.295564 213.867944 
L 290.767183 215.825122 
L 291.238801 219.081637 
L 291.71042 220.89308 
L 292.182038 226.175699 
L 292.653656 215.829724 
L 293.125275 214.672399 
L 293.596893 215.512245 
L 294.068511 211.884406 
L 294.54013 205.138323 
L 296.426603 214.494174 
L 296.898222 213.606737 
L 297.36984 220.861614 
L 297.841458 222.311823 
L 298.313077 215.063332 
L 299.256314 217.792394 
L 299.727932 226.255539 
L 300.19955 216.632034 
L 300.671169 214.515569 
L 301.142787 213.416373 
L 301.614405 205.640563 
L 303.029261 224.967898 
L 303.500879 240.859192 
L 303.972497 247.599205 
L 304.444116 245.910408 
L 304.915734 249.067139 
L 305.858971 232.232513 
L 306.802208 205.852155 
L 307.273826 194.800319 
L 307.745444 192.762744 
L 308.217063 187.64014 
L 308.688681 189.065436 
L 309.631918 175.170513 
L 310.103536 165.08197 
L 311.046773 171.142153 
L 311.518391 177.2635 
L 311.99001 187.665687 
L 312.461628 191.287456 
L 313.876483 211.798146 
L 314.348102 209.602789 
L 314.81972 206.875962 
L 315.291338 204.82593 
L 315.762957 201.15657 
L 316.234575 187.401702 
L 316.706194 191.330728 
L 317.177812 191.228042 
L 317.64943 181.438452 
L 318.121049 176.834864 
L 318.592667 170.051412 
L 319.064285 171.028278 
L 319.535904 183.90513 
L 320.007522 168.65965 
L 320.479141 166.090603 
L 320.950759 175.305282 
L 321.422377 173.230338 
L 321.893996 189.619886 
L 322.365614 191.883911 
L 322.837232 179.221051 
L 323.308851 183.789505 
L 323.780469 178.118821 
L 324.252088 162.445672 
L 324.723706 155.375723 
L 325.195324 132.660572 
L 325.666943 124.145684 
L 326.138561 129.237305 
L 326.61018 128.358172 
L 327.081798 130.306635 
L 328.025035 152.871509 
L 328.968271 171.500169 
L 329.43989 170.753904 
L 329.911508 176.20676 
L 330.383127 174.837676 
L 330.854745 176.022149 
L 331.326363 172.477353 
L 332.2696 162.647359 
L 333.212837 157.97015 
L 334.156074 135.887239 
L 334.627692 128.518337 
L 335.09931 131.625243 
L 336.042547 142.273522 
L 336.514165 134.763448 
L 336.985784 139.95472 
L 337.457402 138.128902 
L 337.929021 140.235146 
L 338.872257 121.826865 
L 339.343876 118.643304 
L 340.287112 106.708183 
L 340.758731 106.979188 
L 341.230349 108.296529 
L 341.701968 106.346148 
L 342.173586 108.747192 
L 342.645204 104.93666 
L 343.116823 109.214465 
L 343.588441 117.195963 
L 344.06006 121.012882 
L 344.531678 119.187065 
L 345.474915 90.572864 
L 346.418151 95.541038 
L 346.88977 94.001718 
L 347.361388 97.486467 
L 347.833007 99.16089 
L 348.304625 111.763702 
L 348.776243 120.492583 
L 349.247862 119.870881 
L 350.191098 104.19885 
L 350.662717 99.225723 
L 351.134335 97.512013 
L 351.605954 99.630713 
L 352.077572 114.865972 
L 352.54919 118.965235 
L 353.020809 121.287389 
L 353.492427 137.548222 
L 353.964045 138.309178 
L 354.435664 137.230743 
L 354.907282 139.681613 
L 355.378901 139.965075 
L 355.850519 139.10255 
L 356.322137 143.803871 
L 356.793756 136.086191 
L 357.265374 137.764766 
L 357.736992 143.367098 
L 358.208611 142.857504 
L 358.680229 139.607509 
L 359.151848 138.765745 
L 359.623466 147.220586 
L 360.095084 142.139504 
L 360.566703 142.456182 
L 361.038321 136.490698 
L 361.509939 147.270728 
L 362.453176 157.267124 
L 362.924795 154.768663 
L 363.396413 157.219533 
L 363.868031 160.442698 
L 364.33965 168.727301 
L 364.811268 155.686599 
L 365.282887 149.418009 
L 365.754505 155.518596 
L 366.226123 155.320411 
L 366.697742 164.539243 
L 367.16936 158.490716 
L 368.112597 171.252426 
L 368.584215 169.729714 
L 369.055834 153.765916 
L 369.527452 144.927163 
L 369.99907 122.137274 
L 370.942307 120.812244 
L 371.413925 107.578924 
L 371.885544 98.65966 
L 372.828781 106.967054 
L 373.772017 132.522369 
L 374.715254 150.652774 
L 375.186872 165.937858 
L 375.658491 168.679377 
L 376.130109 182.752041 
L 376.601728 190.829038 
L 377.073346 206.039384 
L 377.544964 202.847518 
L 378.016583 206.124661 
L 378.488201 201.454639 
L 378.959819 188.750258 
L 379.431438 186.201972 
L 379.903056 179.725776 
L 380.374675 175.661965 
L 380.846293 180.085093 
L 381.317911 179.342981 
L 381.78953 170.632943 
L 382.261148 179.685689 
L 382.732766 171.797772 
L 383.204385 159.496147 
L 383.676003 165.322694 
L 384.147622 164.323149 
L 384.61924 155.301702 
L 385.090858 155.037083 
L 385.562477 148.9761 
L 386.034095 174.529385 
L 386.505714 183.362069 
L 386.977332 178.197945 
L 387.44895 175.699484 
L 387.920569 187.48848 
L 388.392187 191.820262 
L 388.863805 191.534883 
L 389.335424 165.406687 
L 389.807042 166.528877 
L 390.278661 161.580663 
L 390.750279 161.606693 
L 391.221897 155.948466 
L 391.693516 157.610433 
L 392.165134 182.378967 
L 392.636752 188.683007 
L 393.108371 192.765662 
L 393.579989 185.554541 
L 394.051608 174.207904 
L 394.523226 168.624416 
L 394.994844 169.485022 
L 395.466463 146.653612 
L 395.938081 136.2329 
L 396.409699 116.253998 
L 397.352936 121.180651 
L 397.824555 118.026155 
L 398.296173 128.980574 
L 398.767791 129.450881 
L 399.23941 131.19589 
L 399.711028 136.98922 
L 400.182646 131.472165 
L 400.654265 131.199242 
L 401.125883 129.34436 
L 401.597502 108.642989 
L 402.06912 102.939089 
L 402.540738 111.946162 
L 403.012357 116.190749 
L 403.483975 122.988893 
L 403.955593 134.56613 
L 404.427212 135.214979 
L 404.89883 149.769289 
L 405.370449 155.267818 
L 405.842067 142.584198 
L 406.313685 139.442158 
L 406.785304 137.32154 
L 407.256922 140.411837 
L 408.200159 141.878654 
L 408.671777 127.999222 
L 409.143396 128.934567 
L 409.615014 138.157551 
L 410.086632 138.150364 
L 410.558251 147.302761 
L 411.501488 144.202242 
L 411.973106 146.565918 
L 412.444724 151.956491 
L 413.387961 148.54568 
L 413.859579 156.938239 
L 414.331198 151.591421 
L 414.802816 141.21223 
L 416.217671 158.968944 
L 416.68929 161.714615 
L 417.160908 155.819717 
L 417.632526 147.827996 
L 418.104145 152.184691 
L 418.575763 158.306038 
L 419.047382 151.385566 
L 419.990618 148.057797 
L 420.462237 154.739681 
L 420.933855 155.803742 
L 421.405473 148.949703 
L 421.877092 156.416339 
L 422.34871 158.780014 
L 422.820329 142.836977 
L 423.291947 140.969639 
L 423.763565 136.486463 
L 424.235184 138.671597 
L 424.706802 143.476721 
L 425.178421 130.444323 
L 425.650039 126.293316 
L 426.121657 140.129309 
L 426.593276 135.380397 
L 427.064894 155.47364 
L 427.536512 164.31878 
L 428.479749 191.413621 
L 428.951368 193.308106 
L 429.422986 187.766139 
L 429.894604 195.614769 
L 431.309459 146.319958 
L 431.781078 138.498475 
L 432.252696 142.71815 
L 433.667551 164.121546 
L 434.610788 184.639423 
L 435.554025 188.901736 
L 436.025643 183.534158 
L 436.497262 173.217248 
L 436.96888 169.929883 
L 437.440498 168.058393 
L 437.912117 161.067334 
L 438.383735 160.918975 
L 438.855353 152.246306 
L 440.270209 173.217882 
L 440.741827 173.86673 
L 441.213445 181.686296 
L 441.685064 186.221532 
L 442.156682 200.169632 
L 442.6283 208.620321 
L 443.099919 208.550852 
L 443.571537 196.303205 
L 444.043156 189.229103 
L 444.514774 187.324396 
L 445.458011 173.05163 
L 445.929629 171.151075 
L 446.401248 172.073963 
L 446.872866 174.292314 
L 447.344484 181.318825 
L 447.816103 182.013346 
L 448.287721 190.380993 
L 448.759339 188.214701 
L 450.174195 154.403159 
L 450.645813 153.769001 
L 451.117431 156.639236 
L 451.58905 157.852773 
L 452.060668 164.389333 
L 452.532286 176.19909 
L 453.003905 191.928451 
L 453.475523 214.297057 
L 453.947142 217.910522 
L 454.41876 213.830102 
L 454.890378 220.350053 
L 455.361997 224.158667 
L 455.833615 225.430334 
L 456.305233 238.975679 
L 456.776852 231.764557 
L 457.24847 236.19599 
L 457.720089 221.996845 
L 458.191707 213.415523 
L 458.663325 213.811092 
L 459.134944 215.855054 
L 459.606562 209.69442 
L 460.07818 214.308546 
L 460.549799 212.736009 
L 461.021417 233.97939 
L 462.436272 206.375273 
L 462.907891 208.585319 
L 464.794364 203.721265 
L 465.265983 199.204872 
L 465.737601 208.112294 
L 466.209219 213.349239 
L 466.680838 209.816899 
L 467.152456 199.749117 
L 468.567311 203.143636 
L 469.03893 205.432574 
L 469.510548 208.352634 
L 469.982166 213.772272 
L 470.453785 221.039606 
L 470.925403 222.988069 
L 471.397022 224.417517 
L 471.86864 224.692674 
L 472.340258 225.104851 
L 472.811877 228.776446 
L 473.283495 230.737365 
L 473.755113 240.99838 
L 475.169969 259.304292 
L 475.641587 267.701003 
L 476.113205 273.731004 
L 476.584824 270.925285 
L 477.056442 266.213742 
L 477.52806 251.474821 
L 478.942916 223.501165 
L 479.414534 221.492654 
L 479.886152 220.812823 
L 480.357771 231.422616 
L 480.829389 226.860549 
L 482.715863 220.01178 
L 483.187481 219.240602 
L 483.659099 201.923212 
L 484.130718 200.886299 
L 484.602336 179.77802 
L 485.073954 187.394132 
L 485.545573 185.036843 
L 486.017191 185.361826 
L 486.48881 179.238561 
L 486.960428 179.862497 
L 487.432046 174.183509 
L 487.903665 178.739506 
L 488.375283 177.748265 
L 488.846902 187.340788 
L 489.31852 187.499686 
L 489.790138 185.320938 
L 490.261757 199.887705 
L 490.733375 202.587702 
L 491.204993 190.539357 
L 491.676612 185.773836 
L 492.14823 177.719834 
L 492.619849 172.082368 
L 493.091467 170.156899 
L 493.563085 158.938979 
L 494.034704 155.062013 
L 494.506322 164.268388 
L 495.449559 174.742278 
L 495.921177 170.657706 
L 496.392796 175.961085 
L 496.864414 175.061191 
L 497.336032 174.601423 
L 497.807651 168.083706 
L 498.279269 156.869938 
L 498.750887 159.831519 
L 499.222506 159.263795 
L 499.694124 157.85319 
L 500.165743 158.597538 
L 500.637361 159.728033 
L 501.108979 167.651401 
L 501.580598 187.022175 
L 502.052216 179.316951 
L 502.523834 192.30591 
L 502.995453 194.300047 
L 503.467071 203.261447 
L 503.93869 199.83291 
L 504.410308 193.618298 
L 504.881926 183.463321 
L 505.353545 184.585512 
L 506.296782 173.613684 
L 506.7684 159.497581 
L 507.240018 152.489914 
L 507.711637 152.133949 
L 508.183255 150.984928 
L 508.654873 147.311416 
L 509.126492 140.062925 
L 509.59811 136.152742 
L 510.069729 126.263501 
L 510.541347 126.090229 
L 511.012965 127.208268 
L 511.484584 132.55732 
L 511.956202 130.586179 
L 512.42782 136.881915 
L 513.842676 140.125841 
L 514.314294 150.893414 
L 514.785912 151.052312 
L 515.257531 141.885541 
L 515.729149 136.086141 
L 517.144004 128.281267 
L 518.087241 125.230573 
L 518.558859 124.592263 
L 519.030478 119.822591 
L 519.502096 122.879671 
L 519.973714 126.887587 
L 520.445333 129.22635 
L 520.916951 137.344869 
L 521.38857 134.81319 
L 521.860188 130.915464 
L 522.331806 140.503834 
L 522.803425 140.7956 
L 523.275043 135.893059 
L 523.746661 126.477161 
L 524.21828 124.60567 
L 524.689898 112.146265 
L 525.161517 113.152196 
L 526.104753 98.551412 
L 526.576372 96.746355 
L 527.04799 106.442681 
L 527.519609 105.110967 
L 527.991227 119.283281 
L 528.462845 126.118794 
L 528.934464 117.242671 
L 529.406082 120.72742 
L 529.8777 135.875484 
L 530.349319 138.380331 
L 530.820937 145.718251 
L 531.292556 141.679352 
L 531.764174 144.234025 
L 532.235792 164.862892 
L 532.707411 165.914497 
L 533.179029 161.767642 
L 533.650647 151.874249 
L 534.122266 158.963041 
L 535.065503 168.84733 
L 535.537121 164.970364 
L 536.008739 151.701294 
L 536.480358 143.842442 
L 536.951976 141.892061 
L 537.895213 123.749516 
L 538.366831 108.811292 
L 538.83845 103.858926 
L 539.310068 119.47618 
L 539.781686 120.241288 
L 540.253305 115.135293 
L 540.724923 113.014675 
L 541.196541 127.672789 
L 541.66816 133.457814 
L 542.139778 135.788273 
L 543.083015 151.439861 
L 543.554633 163.095988 
L 544.026252 158.658486 
L 544.49787 140.303065 
L 544.969488 140.789981 
L 545.441107 128.459291 
L 545.912725 125.221752 
L 546.384344 118.043848 
L 546.855962 123.417813 
L 547.32758 125.702598 
L 547.799199 142.0008 
L 548.270817 138.501677 
L 548.742436 153.21792 
L 549.214054 146.492597 
L 549.685672 153.627062 
L 550.157291 145.556452 
L 550.628909 145.536808 
L 551.100527 143.216888 
L 551.572146 155.865374 
L 552.043764 159.221407 
L 552.515383 160.571964 
L 552.987001 160.323954 
L 553.458619 167.171923 
L 553.930238 167.924575 
L 554.401856 168.888985 
L 554.873474 159.635018 
L 555.345093 164.149494 
L 555.816711 165.612159 
L 556.28833 155.926372 
L 556.759948 135.162719 
L 557.231566 128.927347 
L 557.703185 120.952235 
L 558.174803 122.165772 
L 559.11804 93.190337 
L 560.061277 97.240892 
L 561.004513 107.610979 
L 561.476132 97.111375 
L 561.94775 99.408617 
L 562.419368 111.492414 
L 562.890987 110.634041 
L 563.362605 119.122099 
L 563.834224 116.166904 
L 564.305842 100.680601 
L 564.77746 99.622927 
L 565.249079 108.812693 
L 566.192315 101.01724 
L 566.663934 100.968531 
L 567.135552 102.451957 
L 567.607171 111.546225 
L 568.078789 118.477236 
L 568.550407 106.648953 
L 569.022026 100.413581 
L 569.493644 109.399894 
L 569.965263 107.362318 
L 570.436881 110.112141 
L 570.908499 115.506867 
L 571.380118 111.289427 
L 571.851736 108.653945 
L 572.323354 118.645072 
L 572.794973 120.468971 
L 573.266591 128.981942 
L 573.73821 140.060924 
L 574.209828 145.928992 
L 574.681446 141.267275 
L 575.153065 153.870087 
L 575.624683 158.280759 
L 576.096301 155.724168 
L 577.039538 133.662019 
L 577.511157 127.239801 
L 577.982775 135.520252 
L 578.454393 127.370751 
L 578.926012 123.688935 
L 579.39763 124.171698 
L 579.869248 122.653138 
L 580.340867 111.223459 
L 580.812485 117.477675 
L 581.284104 118.641387 
L 581.755722 120.220311 
L 582.22734 119.200006 
L 582.698959 126.64588 
L 583.170577 146.091392 
L 583.642195 156.829901 
L 584.113814 153.521775 
L 584.585432 148.494671 
L 585.057051 142.059997 
L 585.528669 139.299952 
L 586.471906 114.41851 
L 586.943524 111.151906 
L 587.415142 104.019675 
L 587.886761 105.453275 
L 588.358379 111.516493 
L 588.829998 97.404542 
L 589.301616 97.89561 
L 589.773234 102.327043 
L 590.244853 101.717798 
L 590.716471 99.335596 
L 591.18809 101.296516 
L 591.659708 89.904206 
L 592.131326 103.777568 
L 592.602945 98.95807 
L 593.074563 95.969658 
L 593.546181 99.516689 
L 594.0178 105.953598 
L 594.489418 114.520546 
L 594.961037 135.527256 
L 595.432655 148.399956 
L 596.375892 165.043901 
L 597.319128 169.526277 
L 597.790747 170.623555 
L 598.262365 161.016659 
L 598.733984 148.92264 
L 599.205602 154.20941 
L 599.67722 152.574591 
L 600.148839 152.239386 
L 600.620457 149.994205 
L 601.092075 142.621151 
L 601.563694 141.966232 
L 602.035312 149.968492 
L 602.506931 141.611384 
L 602.978549 135.845202 
L 603.450167 127.272184 
L 603.921786 131.284253 
L 604.393404 132.859025 
L 604.865022 136.887702 
L 605.336641 125.43311 
L 606.279878 125.533878 
L 606.751496 122.715704 
L 607.223114 125.017097 
L 607.694733 116.539578 
L 608.166351 116.947604 
L 608.63797 111.928804 
L 609.109588 121.151787 
L 609.581206 120.575759 
L 610.052825 129.159316 
L 610.524443 141.890844 
L 610.996061 157.92331 
L 611.46768 158.526485 
L 611.939298 165.515626 
L 612.410917 164.756905 
L 613.354153 175.777758 
L 613.825772 178.386409 
L 614.29739 172.591161 
L 614.769008 164.312944 
L 615.240627 167.83091 
L 616.183864 171.514961 
L 616.655482 171.320928 
L 617.1271 167.987891 
L 617.598719 161.250111 
L 618.070337 167.500174 
L 618.541955 187.506223 
L 619.013574 185.684558 
L 619.485192 177.950269 
L 619.956811 184.063312 
L 620.428429 188.594396 
L 620.900047 191.1117 
L 621.371666 191.258142 
L 621.843284 177.000867 
L 622.314902 171.076904 
L 622.786521 180.208541 
L 623.258139 186.259302 
L 623.729758 185.056303 
L 624.201376 188.416488 
L 624.672994 187.238402 
L 625.144613 184.399467 
L 625.616231 191.911776 
L 626.087849 186.847302 
L 626.559468 179.856244 
L 627.031086 176.519054 
L 627.974323 162.149671 
L 629.389178 186.924387 
L 629.860797 183.930203 
L 630.332415 184.274327 
L 630.804033 193.773883 
L 631.275652 193.150562 
L 631.74727 202.500641 
L 632.218888 185.565247 
L 632.690507 179.965149 
L 633.162125 184.649862 
L 634.105362 167.441544 
L 634.57698 174.086059 
L 635.048599 183.450215 
L 635.520217 168.947965 
L 635.991835 167.686837 
L 636.463454 176.955494 
L 636.935072 196.239072 
L 637.406691 198.569531 
L 637.878309 198.956796 
L 638.349927 200.635371 
L 639.293164 221.21026 
L 639.764782 228.074837 
L 640.236401 228.466254 
L 641.651256 244.027613 
L 642.594493 246.918608 
L 643.537729 243.860727 
L 644.480966 211.567745 
L 644.952585 201.985761 
L 645.895821 176.190852 
L 646.36744 176.40788 
L 646.839058 173.75579 
L 647.310676 182.708886 
L 647.782295 178.906658 
L 648.253913 177.184644 
L 649.19715 192.176044 
L 649.668768 193.887837 
L 650.140387 189.595658 
L 650.612005 186.794092 
L 651.083624 199.538076 
L 651.555242 207.341034 
L 652.02686 201.840587 
L 652.498479 200.031379 
L 652.970097 196.407692 
L 653.441715 200.540172 
L 653.913334 197.697085 
L 654.384952 189.119915 
L 654.856571 186.525955 
L 655.328189 180.880184 
L 655.799807 180.964344 
L 656.271426 173.674332 
L 656.743044 150.315603 
L 658.157899 170.074758 
L 658.629518 170.814953 
L 659.101136 166.128323 
L 659.572754 163.368278 
L 660.044373 184.32101 
L 660.515991 175.050436 
L 660.987609 163.056068 
L 661.459228 147.175313 
L 661.930846 149.044886 
L 662.402465 156.071396 
L 662.874083 165.771874 
L 663.345701 165.702405 
L 663.81732 165.375505 
L 664.288938 163.458341 
L 665.232175 175.676123 
L 665.703793 176.603163 
L 666.175412 173.801597 
L 666.64703 175.210284 
L 667.590267 204.671835 
L 668.061885 206.524799 
L 668.533503 203.652647 
L 669.005122 195.357822 
L 669.47674 193.332703 
L 669.948359 187.450261 
L 670.419977 177.930559 
L 670.891595 164.32932 
L 671.363214 157.072525 
L 671.834832 151.883488 
L 672.306451 151.44448 
L 672.778069 144.15862 
L 673.249687 142.760472 
L 673.721306 144.194072 
L 674.192924 144.274079 
L 674.664542 146.974077 
L 675.607779 136.579394 
L 676.079398 141.745753 
L 676.551016 142.95929 
L 677.022634 130.86112 
L 677.494253 139.066833 
L 677.965871 138.096353 
L 678.437489 148.286782 
L 678.909108 152.531369 
L 679.380726 149.106984 
L 680.323963 160.56908 
L 680.795581 153.793931 
L 681.2672 156.921598 
L 681.738818 152.392748 
L 682.210436 154.407645 
L 682.682055 169.119736 
L 683.153673 173.600995 
L 683.625292 180.20814 
L 684.09691 181.351092 
L 685.040147 178.749945 
L 685.511765 177.090213 
L 686.455002 152.18801 
L 686.92662 145.578947 
L 687.398239 143.387743 
L 687.869857 129.205206 
L 688.341475 128.774503 
L 688.813094 135.780252 
L 689.284712 132.314346 
L 689.756331 143.783629 
L 690.227949 147.2144 
L 691.642804 171.121527 
L 692.114422 167.061867 
L 692.586041 174.437156 
L 693.057659 167.9402 
L 693.529278 173.671247 
L 694.000896 168.453145 
L 694.472514 169.816159 
L 694.944133 167.051962 
L 695.415751 168.527083 
L 695.887369 174.125263 
L 696.358988 176.015596 
L 696.830606 177.345393 
L 697.302225 178.26413 
L 697.773843 166.535498 
L 698.245461 166.731765 
L 699.188698 145.632908 
L 699.660316 142.557301 
L 700.131935 135.175943 
L 700.603553 133.55358 
L 701.075172 147.842154 
L 702.018408 158.216393 
L 702.490027 156.544205 
L 702.961645 149.623732 
L 703.433263 146.664385 
L 703.904882 140.532816 
L 704.3765 141.601029 
L 704.848119 140.746809 
L 705.319737 148.902697 
L 705.791355 159.657814 
L 706.262974 167.730659 
L 706.734592 170.700545 
L 707.20621 189.610432 
L 707.677829 187.082906 
L 708.149447 188.321357 
L 708.621066 173.827411 
L 709.092684 170.158051 
L 710.035921 184.763303 
L 710.507539 169.771103 
L 710.979158 165.13845 
L 711.450776 165.467585 
L 712.394013 177.855604 
L 712.865631 175.6644 
L 713.808868 185.914075 
L 714.280486 196.694105 
L 714.752105 200.83489 
L 715.223723 212.976816 
L 715.695341 207.077766 
L 716.16696 226.116369 
L 716.638578 212.452848 
L 717.110196 212.117643 
L 717.581815 198.786292 
L 718.053433 180.775497 
L 718.525052 172.675822 
L 718.99667 175.1433 
L 719.939907 160.884405 
L 720.411525 172.617804 
L 722.297999 206.912334 
L 722.769617 195.750923 
L 723.241235 177.403806 
L 723.712854 168.2661 
L 724.184472 166.49426 
L 724.65609 161.857455 
L 725.127709 168.634838 
L 725.599327 160.202993 
L 726.542564 175.352174 
L 727.014182 177.109639 
L 727.485801 173.058284 
L 727.957419 181.060543 
L 728.429037 176.93445 
L 728.900656 168.743427 
L 729.372274 169.417188 
L 729.843893 172.391226 
L 730.315511 172.429712 
L 730.787129 170.255117 
L 731.258748 160.270377 
L 731.730366 160.649338 
L 732.201985 164.607429 
L 733.145221 156.620977 
L 733.61684 147.865266 
L 734.088458 145.620085 
L 734.560076 140.401983 
L 735.031695 155.334136 
L 735.503313 159.350357 
L 735.974932 157.541148 
L 736.44655 155.084208 
L 736.918168 163.725894 
L 737.389787 167.094384 
L 737.861405 175.341618 
L 738.333023 167.291768 
L 738.804642 173.36329 
L 739.27626 175.253623 
L 739.747879 174.274839 
L 740.219497 176.617754 
L 740.691115 171.789952 
L 741.162734 175.515524 
L 741.634352 172.219855 
L 742.10597 157.49339 
L 742.577589 160.994748 
L 743.049207 159.351624 
L 743.520826 153.377835 
L 743.992444 156.023855 
L 744.464062 163.324406 
L 744.935681 157.093186 
L 745.407299 161.213209 
L 745.878917 156.613774 
L 746.350536 157.902049 
L 746.822154 156.512205 
L 747.293773 153.656661 
L 747.765391 146.644842 
L 748.237009 150.515738 
L 749.180246 174.50479 
L 749.651864 180.941699 
L 750.123483 181.490897 
L 750.595101 186.761059 
L 751.06672 181.214939 
L 751.538338 187.157745 
L 752.009956 186.116679 
L 752.481575 171.141087 
L 752.953193 171.063314 
L 753.424812 172.368198 
L 753.89643 165.701005 
L 754.368048 165.656448 
L 754.839667 160.36776 
L 755.311285 144.030272 
L 755.782903 149.113588 
L 756.254522 148.956925 
L 756.72614 142.837812 
L 757.197759 146.991052 
L 757.669377 149.591399 
L 758.140995 147.790495 
L 758.612614 156.930436 
L 759.084232 153.207098 
L 762.385561 162.268149 
L 762.857179 173.803865 
L 763.328797 171.504706 
L 763.800416 166.157888 
L 764.272034 164.286398 
L 764.743653 158.947884 
L 765.215271 165.397249 
L 766.158508 138.211379 
L 766.630126 138.980639 
L 767.101744 141.705549 
L 767.573363 139.697039 
L 768.044981 149.11102 
L 768.988218 160.938502 
L 769.459836 167.82384 
L 769.931455 167.845718 
L 770.874692 185.639802 
L 771.34631 170.082912 
L 771.817928 165.051656 
L 772.289547 170.844985 
L 773.232783 163.277899 
L 773.704402 151.889741 
L 774.17602 147.306914 
L 774.647639 160.09242 
L 775.119257 169.705703 
L 775.590875 165.596218 
L 776.062494 175.678691 
L 776.534112 179.350285 
L 777.477349 195.089068 
L 777.948967 200.22221 
L 778.420586 194.659482 
L 778.892204 205.252666 
L 779.363822 202.916138 
L 779.835441 215.166019 
L 780.307059 222.524699 
L 780.778677 214.935735 
L 781.250296 213.898821 
L 781.721914 202.614467 
L 782.193533 199.742314 
L 782.665151 210.804689 
L 783.608388 216.574223 
L 784.080006 231.643396 
L 784.551624 236.872037 
L 785.023243 258.489109 
L 785.494861 267.612442 
L 785.96648 273.007167 
L 787.381335 273.018619 
L 787.852953 271.369723 
L 788.324571 271.435654 
L 789.267808 254.286379 
L 790.211045 241.8846 
L 790.682663 234.611197 
L 791.154282 237.767928 
L 792.097519 230.66588 
L 792.569137 230.098156 
L 793.040755 232.931021 
L 793.512374 237.283564 
L 793.983992 252.946491 
L 794.45561 259.669896 
L 794.927229 262.98856 
L 795.398847 262.562009 
L 795.870466 260.308523 
L 796.813702 247.866843 
L 797.285321 237.716019 
L 798.228557 224.115896 
L 798.700176 218.233455 
L 799.643413 201.921996 
L 800.115031 205.622655 
L 800.586649 200.433618 
L 801.529886 178.579074 
L 802.001504 176.375414 
L 802.473123 177.771645 
L 802.944741 183.407193 
L 803.41636 179.638183 
L 803.887978 178.983264 
L 804.359596 185.092155 
L 805.774451 211.951237 
L 806.24607 204.82569 
L 806.717688 191.716934 
L 807.189307 200.282262 
L 807.660925 204.965355 
L 808.132543 205.550301 
L 808.604162 198.571699 
L 809.07578 205.909619 
L 809.547398 216.191394 
L 810.019017 230.475816 
L 810.490635 232.457496 
L 810.962254 235.302818 
L 811.433872 234.382164 
L 811.90549 228.296268 
L 812.848727 181.466701 
L 813.320346 180.558503 
L 814.263582 168.747946 
L 814.735201 177.9128 
L 815.206819 189.967532 
L 815.678437 210.550725 
L 816.150056 226.201196 
L 816.621674 222.494467 
L 817.093293 221.82294 
L 817.564911 224.593524 
L 818.036529 223.307483 
L 818.508148 205.616402 
L 818.979766 206.942047 
L 819.451384 218.984322 
L 819.923003 221.76321 
L 820.394621 229.520494 
L 820.86624 224.04496 
L 821.337858 214.085133 
L 821.809476 227.821475 
L 822.281095 226.568651 
L 822.752713 213.370167 
L 823.224331 207.097426 
L 823.69595 191.233279 
L 824.639187 177.749417 
L 825.110805 168.545276 
L 825.582423 170.356719 
L 826.054042 181.120141 
L 826.52566 196.675112 
L 826.997278 203.298867 
L 827.468897 205.396806 
L 827.940515 222.50052 
L 828.412134 232.682644 
L 828.883752 239.156922 
L 829.35537 233.689693 
L 830.298607 210.257342 
L 830.770225 215.307442 
L 831.241844 212.078207 
L 831.713462 204.862933 
L 832.185081 195.43873 
L 832.656699 202.722672 
L 833.128317 206.373506 
L 834.071554 223.936486 
L 834.543173 230.193233 
L 835.014791 227.80526 
L 835.486409 231.99425 
L 835.958028 244.147012 
L 836.429646 242.0746 
L 836.901264 243.801381 
L 837.372883 235.311406 
L 837.844501 231.970063 
L 838.31612 231.589185 
L 838.787738 231.062983 
L 839.259356 223.328694 
L 839.730975 221.224685 
L 840.202593 218.46464 
L 840.674211 221.239375 
L 841.14583 224.940035 
L 841.617448 219.954452 
L 842.089067 219.075319 
L 842.560685 220.62933 
L 843.032303 220.568165 
L 843.503922 215.379128 
L 843.97554 203.63804 
L 844.447158 196.580547 
L 844.918777 197.723499 
L 845.862014 177.762323 
L 846.333632 173.823075 
L 846.80525 173.217983 
L 847.276869 193.805328 
L 847.748487 195.7704 
L 848.220105 195.21098 
L 849.163342 216.480392 
L 850.106579 225.773961 
L 850.578197 232.260695 
L 851.049816 218.854606 
L 851.993053 206.271754 
L 852.464671 203.657033 
L 852.936289 199.680416 
L 853.407908 198.913391 
L 853.879526 197.477873 
L 854.351144 198.624976 
L 854.822763 200.531918 
L 855.766 222.058761 
L 856.237618 219.377607 
L 856.709236 213.050888 
L 857.180855 211.320569 
L 857.652473 205.338477 
L 858.124091 211.738016 
L 859.067328 189.455804 
L 859.538947 186.73728 
L 860.010565 180.937881 
L 860.482183 183.102254 
L 860.953802 181.230764 
L 861.42542 176.436178 
L 861.897038 185.090321 
L 862.368657 184.66377 
L 862.840275 183.734811 
L 863.311894 192.060936 
L 863.783512 188.943809 
L 864.726749 215.154247 
L 865.198367 215.300688 
L 865.669985 228.15678 
L 866.141604 236.852444 
L 866.613222 236.102027 
L 867.084841 239.26291 
L 867.556459 233.152101 
L 868.028077 217.275498 
L 868.499696 215.034469 
L 868.971314 195.466628 
L 869.442932 183.99958 
L 869.914551 184.411757 
L 870.386169 184.296615 
L 870.857788 177.484098 
L 871.329406 183.601293 
L 871.801024 186.973934 
L 872.744261 199.548799 
L 873.21588 205.719972 
L 874.630735 236.204062 
L 875.102353 234.178943 
L 875.573971 238.224229 
L 876.517208 226.438584 
L 876.988827 224.342879 
L 877.460445 228.22208 
L 877.932063 226.649542 
L 878.403682 227.352368 
L 878.8753 226.278086 
L 879.346918 230.975255 
L 879.818537 230.901634 
L 880.290155 222.797806 
L 881.233392 214.898549 
L 881.70501 222.527117 
L 882.176629 221.083296 
L 882.648247 228.66619 
L 883.119865 225.553215 
L 883.591484 235.183107 
L 884.063102 235.736456 
L 884.534721 237.469009 
L 885.006339 235.020373 
L 885.949576 227.353636 
L 886.421194 228.953321 
L 886.892812 225.034833 
L 887.364431 222.507307 
L 887.836049 216.354977 
L 888.307668 213.15896 
L 888.779286 223.789513 
L 889.250904 221.606613 
L 889.722523 233.175547 
L 890.194141 218.60271 
L 890.665759 207.829067 
L 891.137378 217.135093 
L 892.080615 177.252029 
L 892.552233 167.915021 
L 893.023851 152.229415 
L 893.967088 180.341526 
L 894.438707 169.115301 
L 894.910325 187.028679 
L 895.381943 193.386698 
L 896.32518 218.716885 
L 896.796798 210.268431 
L 897.268417 204.614356 
L 897.740035 205.346247 
L 898.211654 204.558461 
L 898.683272 205.659891 
L 899.15489 203.734423 
L 899.626509 197.544724 
L 900.098127 201.527728 
L 900.569745 200.744094 
L 901.041364 202.559689 
L 901.984601 218.971115 
L 902.456219 220.363194 
L 902.927837 222.598154 
L 904.342692 241.871511 
L 904.814311 230.682655 
L 905.285929 230.376515 
L 905.757548 225.154261 
L 906.229166 225.649481 
L 906.700784 223.445821 
L 907.644021 242.327761 
L 908.115639 258.443269 
L 908.587258 260.263017 
L 909.058876 265.367094 
L 909.530495 263.881751 
L 910.002113 258.410369 
L 910.94535 234.807781 
L 911.416968 233.941105 
L 911.888586 232.439153 
L 912.360205 224.526323 
L 913.303442 216.195246 
L 913.77506 223.238365 
L 914.246678 218.842383 
L 914.718297 206.947666 
L 915.189915 209.689185 
L 915.661534 204.483539 
L 916.133152 195.055184 
L 916.60477 206.624118 
L 917.076389 198.503681 
L 917.548007 194.223959 
L 918.019625 182.138245 
L 918.491244 175.678658 
L 918.962862 183.12038 
L 919.434481 200.149356 
L 919.906099 192.38185 
L 920.849336 206.816866 
L 921.320954 223.343435 
L 921.792572 223.846959 
L 922.264191 231.36342 
L 922.735809 225.19033 
L 923.207428 216.845679 
L 923.679046 212.898126 
L 924.150664 207.048902 
L 924.622283 207.747575 
L 925.093901 207.93969 
L 925.565519 198.307881 
L 926.037138 195.06619 
L 926.508756 196.906698 
L 926.980375 190.031899 
L 927.451993 191.095959 
L 928.39523 183.483199 
L 928.866848 184.418544 
L 929.810085 201.722678 
L 930.281703 198.086535 
L 930.753322 199.175508 
L 931.22494 193.002418 
L 932.168177 199.984372 
L 932.639795 183.032369 
L 933.111414 176.585238 
L 933.583032 181.643642 
L 934.05465 182.699399 
L 934.526269 187.035333 
L 934.997887 187.352011 
L 935.469505 183.524871 
L 935.941124 190.538925 
L 936.412742 187.77888 
L 936.884361 191.712058 
L 937.827597 218.217297 
L 938.299216 212.828958 
L 938.770834 214.445251 
L 939.242452 215.102404 
L 939.714071 212.006037 
L 940.185689 214.764164 
L 941.128926 187.150625 
L 941.600544 187.566955 
L 942.072163 184.420762 
L 942.543781 182.312601 
L 943.015399 185.481788 
L 943.487018 178.881029 
L 943.958636 175.946595 
L 944.430255 182.33783 
L 944.901873 194.550343 
L 945.373491 193.118977 
L 945.84511 206.423498 
L 946.316728 210.331764 
L 946.788346 209.784801 
L 947.259965 215.544913 
L 948.203202 192.228822 
L 948.67482 193.209841 
L 949.146438 186.8416 
L 949.618057 196.164235 
L 950.089675 200.450344 
L 950.561293 197.81071 
L 951.032912 201.889213 
L 951.50453 207.624413 
L 952.919385 193.830258 
L 953.391004 192.847322 
L 953.862622 204.212801 
L 954.334241 206.775779 
L 955.277477 224.299974 
L 955.749096 229.736221 
L 956.220714 230.85426 
L 956.692332 240.50076 
L 957.163951 239.110916 
L 957.635569 236.608302 
L 958.107188 221.383583 
L 958.578806 224.930613 
L 959.050424 220.567849 
L 959.522043 218.148278 
L 959.993661 213.627733 
L 960.936898 213.608089 
L 961.408516 218.375845 
L 962.351753 239.45841 
L 962.823371 249.354038 
L 963.29499 255.898902 
L 963.766608 256.074408 
L 964.238226 245.695216 
L 964.709845 244.566956 
L 965.181463 242.031126 
L 965.653082 244.577495 
L 966.1247 245.143301 
L 967.067937 255.384672 
L 967.539555 261.082503 
L 968.011173 265.401828 
L 968.482792 270.838075 
L 968.95441 262.186167 
L 969.426029 274.228442 
L 970.369265 275.51925 
L 970.840884 279.172616 
L 971.312502 286.762195 
L 972.255739 307.8 
L 972.727357 302.625951 
L 973.198976 288.649401 
L 973.670594 282.052794 
L 974.142212 277.283121 
L 975.085449 277.614789 
L 975.557068 268.566809 
L 976.028686 263.654344 
L 976.500304 273.091618 
L 976.971923 275.760931 
L 977.443541 270.943965 
L 977.915159 272.429923 
L 978.386778 268.233243 
L 978.858396 270.03223 
L 979.330015 262.185834 
L 979.801633 258.595364 
L 980.273251 258.318289 
L 980.74487 253.324402 
L 981.216488 256.904649 
L 981.688106 258.882177 
L 982.159725 247.772212 
L 982.631343 247.561571 
L 983.102962 246.844371 
L 983.57458 246.82888 
L 984.046198 254.818682 
L 984.517817 239.515072 
L 984.989435 237.274043 
L 985.461053 247.256865 
L 985.932672 252.693112 
L 997.251513 240.212946 
L 997.723131 229.252457 
L 998.19475 225.985853 
L 998.666368 230.87402 
L 999.137986 233.769167 
L 999.609605 231.341292 
L 1000.081223 218.915104 
L 1000.552842 220.091272 
L 1001.496078 232.487595 
L 1001.967697 226.040464 
L 1002.439315 211.837167 
L 1002.910933 207.931136 
L 1003.382552 197.140884 
L 1003.85417 200.438788 
L 1004.797407 176.661811 
L 1005.269025 174.271305 
L 1006.212262 160.276731 
L 1006.68388 163.01825 
L 1007.155499 161.242258 
L 1007.627117 166.10136 
L 1008.098736 168.984051 
L 1008.570354 175.740673 
L 1009.041972 194.517693 
L 1009.513591 203.9815 
L 1009.985209 216.409923 
L 1010.456827 221.078027 
L 1011.400064 217.535763 
L 1011.871683 209.347272 
L 1012.343301 211.77161 
L 1013.758156 213.225263 
L 1014.229775 205.75185 
L 1015.173011 199.827589 
L 1015.64463 202.345806 
L 1016.116248 216.672662 
L 1016.587866 213.365449 
L 1017.059485 204.539151 
L 1017.531103 208.547068 
L 1018.002722 203.345574 
L 1018.47434 203.678862 
L 1018.945958 205.477848 
L 1019.889195 198.943523 
L 1020.360813 197.188292 
L 1020.832432 194.86422 
L 1021.30405 185.506451 
L 1021.775669 187.081223 
L 1022.247287 191.060075 
L 1022.718905 198.734316 
L 1023.190524 199.557554 
L 1023.662142 198.711638 
L 1024.13376 198.579887 
L 1024.605379 203.9497 
L 1025.076997 212.047458 
L 1025.548616 215.299688 
L 1026.020234 210.48019 
L 1026.491852 200.777795 
L 1026.963471 207.771088 
L 1027.435089 218.110993 
L 1027.906707 220.864968 
L 1028.378326 213.848996 
L 1028.849944 214.05772 
L 1029.321563 210.243035 
L 1029.793181 220.786394 
L 1030.264799 210.689547 
L 1030.736418 193.164551 
L 1031.208036 193.099234 
L 1031.679654 184.754583 
L 1032.151273 181.197331 
L 1032.622891 175.597233 
L 1033.09451 160.995332 
L 1033.566128 153.84234 
L 1034.037746 152.294716 
L 1034.509365 141.475399 
L 1034.980983 138.686289 
L 1035.452602 130.952 
L 1035.92422 134.905939 
L 1036.395838 144.037576 
L 1036.867457 147.460043 
L 1037.810693 183.942835 
L 1038.282312 182.224973 
L 1038.75393 182.632998 
L 1039.225549 182.683941 
L 1039.697167 189.785189 
L 1040.168785 192.796596 
L 1040.640404 184.48101 
L 1041.112022 172.067278 
L 1041.58364 177.66961 
L 1042.055259 177.052061 
L 1042.526877 177.93758 
L 1042.998496 179.088836 
L 1043.470114 190.392033 
L 1044.413351 183.078226 
L 1044.884969 184.271003 
L 1045.356587 193.539659 
L 1045.828206 195.803684 
L 1046.299824 184.901325 
L 1046.771443 177.715116 
L 1047.243061 174.884485 
L 1047.714679 174.927124 
L 1048.186298 183.381965 
L 1048.657916 180.655137 
L 1049.129534 176.188569 
L 1049.601153 184.070417 
L 1050.072771 183.45702 
L 1050.54439 176.578068 
L 1051.016008 186.573347 
L 1051.487626 179.125554 
L 1051.959245 180.986823 
L 1052.430863 183.707581 
L 1052.902481 170.492489 
L 1053.3741 161.495955 
L 1053.845718 169.880209 
L 1054.317337 166.082134 
L 1054.788955 161.104855 
L 1055.260573 145.377728 
L 1055.732192 149.431318 
L 1056.20381 158.753952 
L 1056.675429 163.040061 
L 1057.147047 163.078547 
L 1057.618665 157.619622 
L 1058.090284 160.597812 
L 1058.561902 154.943737 
L 1059.03352 138.793094 
L 1059.505139 141.418353 
L 1059.976757 141.94679 
L 1060.448376 141.416436 
L 1060.919994 141.591942 
L 1061.863231 154.229088 
L 1062.334849 156.841891 
L 1062.806467 146.616328 
L 1063.278086 140.675757 
L 1063.749704 142.736327 
L 1064.221323 142.886921 
L 1064.692941 133.288329 
L 1065.636178 160.40393 
L 1066.107796 190.404139 
L 1066.579414 206.1335 
L 1067.051033 199.445547 
L 1067.99427 209.296618 
L 1068.465888 211.170343 
L 1068.937506 209.004052 
L 1069.409125 190.843781 
L 1069.880743 185.372399 
L 1070.352361 193.951804 
L 1070.82398 195.663596 
L 1071.295598 201.004344 
L 1071.767217 194.914296 
L 1072.238835 185.639569 
L 1073.182072 160.264025 
L 1073.65369 162.21664 
L 1074.125308 161.080075 
L 1074.596927 168.135651 
L 1075.068545 160.094105 
L 1075.540164 158.953388 
L 1076.011782 160.287337 
L 1076.4834 177.814567 
L 1076.955019 169.528046 
L 1077.426637 169.130559 
L 1077.898256 153.552909 
L 1078.369874 160.919894 
L 1078.841492 173.651421 
L 1079.313111 182.600365 
L 1079.784729 167.383949 
L 1080.256347 167.443196 
L 1080.727966 163.632664 
L 1081.199584 175.982197 
L 1081.671203 171.582063 
L 1082.142821 170.325087 
L 1082.614439 178.742559 
L 1083.086058 180.666109 
L 1083.557676 182.041579 
L 1084.029294 176.26294 
L 1084.500913 173.565177 
L 1084.972531 169.833536 
L 1085.44415 163.249385 
L 1085.915768 150.549156 
L 1086.387386 151.044376 
L 1086.859005 147.437298 
L 1087.330623 154.011227 
L 1087.802241 145.679032 
L 1088.27386 156.363563 
L 1088.745478 157.402711 
L 1089.217097 152.861406 
L 1089.688715 147.190722 
L 1090.160333 151.804849 
L 1090.631952 145.934863 
L 1091.10357 151.827844 
L 1092.046807 150.145731 
L 1092.518425 150.435877 
L 1092.990044 156.995729 
L 1093.93328 179.403735 
L 1094.404899 194.815915 
L 1094.876517 186.656489 
L 1095.348136 175.866238 
L 1095.819754 172.126292 
L 1096.291372 169.847893 
L 1096.762991 162.744727 
L 1097.234609 158.012423 
L 1097.706227 140.628599 
L 1098.177846 143.677375 
L 1098.649464 147.909506 
L 1099.121083 156.015569 
L 1099.592701 160.355655 
L 1100.064319 156.225409 
L 1100.535938 150.143666 
L 1101.007556 155.455349 
L 1101.479174 156.166479 
L 1101.950793 165.825436 
L 1102.422411 164.543547 
L 1102.89403 166.230426 
L 1103.365648 172.621662 
L 1103.837266 173.411682 
L 1104.308885 170.805266 
L 1104.780503 163.436364 
L 1105.252121 162.345473 
L 1105.72374 159.527298 
L 1106.195358 162.252208 
L 1106.666977 169.000526 
L 1108.081832 200.99599 
L 1109.025068 195.015014 
L 1109.496687 184.27874 
L 1109.968305 184.98987 
L 1110.439924 173.767798 
L 1110.911542 170.812603 
L 1111.38316 173.554122 
L 1111.854779 171.063965 
L 1112.798015 195.414252 
L 1113.269634 182.950694 
L 1113.741252 181.751848 
L 1114.212871 177.326801 
L 1114.684489 174.579213 
L 1115.156107 177.964311 
L 1115.627726 171.728938 
L 1116.099344 161.466006 
L 1116.570963 164.303024 
L 1117.514199 178.721431 
L 1117.985818 176.056885 
L 1118.457436 183.656388 
L 1118.929054 180.078375 
L 1119.400673 186.751955 
L 1119.872291 196.900862 
L 1120.34391 201.784876 
L 1120.815528 201.611605 
L 1121.287146 213.483643 
L 1121.758765 209.967912 
L 1122.230383 211.02782 
L 1122.702001 195.321454 
L 1123.17362 189.430708 
L 1123.645238 189.041526 
L 1124.116857 186.817105 
L 1124.588475 179.269662 
L 1125.060093 173.922844 
L 1125.531712 180.68777 
L 1126.00333 195.030322 
L 1126.474948 205.988893 
L 1126.946567 204.665483 
L 1127.418185 214.565263 
L 1127.889804 221.483818 
L 1128.361422 234.559972 
L 1128.83304 236.965169 
L 1129.304659 244.36537 
L 1129.776277 241.156896 
L 1130.247895 243.645135 
L 1130.719514 239.049852 
L 1131.191132 237.813636 
L 1131.662751 229.954783 
L 1132.134369 231.961376 
L 1132.605987 232.419227 
L 1133.077606 246.512652 
L 1133.549224 247.144892 
L 1134.020842 248.117606 
L 1134.492461 245.731252 
L 1134.964079 249.033307 
L 1135.435698 247.917503 
L 1135.907316 246.378183 
L 1136.378934 236.588593 
L 1136.850553 234.521953 
L 1137.322171 234.817871 
L 1137.79379 238.763505 
L 1138.265408 240.778402 
L 1138.737026 245.151706 
L 1139.208645 248.154808 
L 1139.680263 246.466011 
L 1140.151881 250.851771 
L 1141.095118 255.990182 
L 1141.566737 264.170983 
L 1142.038355 264.549943 
L 1142.509973 266.274192 
L 1142.981592 270.9506 
L 1143.45321 269.527539 
L 1143.924828 265.650573 
L 1144.396447 271.938005 
L 1144.868065 266.371124 
L 1145.339684 262.984109 
L 1145.811302 266.078558 
L 1146.28292 261.084671 
L 1146.754539 258.988966 
L 1147.226157 264.176085 
L 1148.169394 261.529265 
L 1148.641012 259.387886 
L 1149.112631 254.140719 
L 1149.584249 257.579795 
L 1150.055867 252.814274 
L 1150.527486 251.324779 
L 1151.470722 244.118927 
L 1151.942341 242.724931 
L 1152.413959 239.499848 
L 1152.885578 232.363465 
L 1153.357196 239.128392 
L 1153.828814 231.406559 
L 1154.300433 232.58688 
L 1154.772051 236.412103 
L 1155.715288 238.220511 
L 1156.186906 249.606751 
L 1156.658525 251.052807 
L 1157.130143 262.800282 
L 1157.601761 254.463935 
L 1158.07338 248.36143 
L 1158.544998 252.626779 
L 1159.016617 260.936295 
L 1159.488235 246.766215 
L 1159.959853 237.545466 
L 1160.431472 224.625174 
L 1160.90309 224.70103 
L 1161.374708 226.113869 
L 1161.846327 223.548974 
L 1162.317945 212.073622 
L 1162.789564 213.013119 
L 1163.261182 221.712935 
L 1163.7328 233.065958 
L 1164.204419 233.76048 
L 1164.676037 229.688364 
L 1165.147655 230.926814 
L 1165.619274 234.789406 
L 1166.090892 240.292087 
L 1166.562511 233.309332 
L 1167.034129 218.304675 
L 1167.505747 216.906527 
L 1168.448984 224.717788 
L 1169.392221 218.197037 
L 1169.863839 206.053193 
L 1170.335458 200.199816 
L 1170.807076 202.368342 
L 1171.278694 181.895338 
L 1172.221931 171.748665 
L 1172.693549 163.416471 
L 1173.165168 158.293867 
L 1173.636786 145.913352 
L 1174.108405 154.800014 
L 1174.580023 152.309857 
L 1175.051641 170.202474 
L 1175.52326 175.190292 
L 1175.994878 181.373921 
L 1176.466497 185.477336 
L 1176.938115 207.866704 
L 1177.409733 202.129586 
L 1177.881352 202.890542 
L 1178.35297 203.227981 
L 1178.824588 211.197024 
L 1179.296207 210.08122 
L 1179.767825 219.989304 
L 1180.239444 219.803575 
L 1180.711062 224.276529 
L 1181.654299 203.580428 
L 1182.125917 187.807628 
L 1182.597535 183.610949 
L 1183.069154 164.167671 
L 1183.540772 154.365625 
L 1184.012391 156.164612 
L 1184.955627 180.477529 
L 1185.898864 183.863745 
L 1186.370482 191.317924 
L 1186.842101 196.546564 
L 1187.313719 189.77972 
L 1187.785338 198.234561 
L 1188.256956 191.874625 
L 1188.728574 195.62511 
L 1189.200193 192.184117 
L 1189.671811 198.753893 
L 1190.143429 208.68689 
L 1190.615048 211.52806 
L 1191.086666 208.058002 
L 1191.558285 205.841885 
L 1192.029903 208.334276 
L 1192.501521 208.36861 
L 1192.97314 193.833143 
L 1193.444758 186.630326 
L 1193.916376 186.635596 
L 1194.387995 182.928866 
L 1194.859613 183.864212 
L 1195.331232 175.972142 
L 1195.80285 175.87776 
L 1196.274468 195.946091 
L 1196.746087 188.959184 
L 1197.689324 181.732571 
L 1198.63256 189.208628 
L 1199.104179 189.865781 
L 1199.575797 178.722599 
L 1200.047415 180.330588 
L 1200.519034 177.865344 
L 1200.990652 168.648747 
L 1201.462271 164.08668 
L 1201.933889 162.385427 
L 1202.405507 161.551967 
L 1202.877126 157.077095 
L 1203.348744 150.169079 
L 1203.820362 148.916255 
L 1204.291981 162.009018 
L 1204.763599 165.975413 
L 1205.706836 179.098357 
L 1206.178454 179.493926 
L 1207.121691 186.59214 
L 1207.593309 175.448958 
L 1209.008165 157.253552 
L 1209.479783 154.227771 
L 1209.951401 154.68147 
L 1210.42302 151.01211 
L 1210.894638 164.378913 
L 1211.366256 168.997191 
L 1212.309493 175.198546 
L 1212.781112 184.384161 
L 1213.724348 205.720006 
L 1214.195967 196.059132 
L 1214.667585 206.062715 
L 1215.139203 208.077612 
L 1215.610822 208.095337 
L 1216.08244 208.378799 
L 1216.554059 206.07964 
L 1217.025677 198.785476 
L 1217.497295 201.821796 
L 1217.968914 194.079202 
L 1218.440532 193.316329 
L 1218.912151 188.604786 
L 1219.383769 192.297141 
L 1219.855387 190.853319 
L 1220.327006 200.229931 
L 1220.798624 212.72894 
L 1221.741861 226.703071 
L 1222.213479 234.057599 
L 1222.685098 230.342565 
L 1223.156716 228.902896 
L 1223.628334 218.747919 
L 1224.099953 205.341829 
L 1224.571571 196.577814 
L 1225.043189 190.745197 
L 1225.514808 186.926361 
L 1225.986426 186.258986 
L 1226.458045 179.010496 
L 1226.929663 191.692198 
L 1227.401281 197.298682 
L 1227.8729 209.361718 
L 1228.344518 201.756145 
L 1228.816136 209.741796 
L 1229.759373 231.272791 
L 1230.230992 230.945891 
L 1230.70261 225.420531 
L 1231.174228 215.614333 
L 1231.645847 219.111538 
L 1232.589083 202.185565 
L 1233.060702 198.458075 
L 1233.53232 198.106262 
L 1234.475557 189.932965 
L 1234.947175 194.102815 
L 1235.890412 181.175336 
L 1236.36203 181.209671 
L 1236.833649 162.696469 
L 1237.305267 167.696743 
L 1237.776886 178.23595 
L 1239.191741 195.300377 
L 1240.134978 220.061724 
L 1240.606596 226.714543 
L 1241.078214 217.651575 
L 1241.549833 217.839538 
L 1242.021451 222.345709 
L 1242.493069 231.859341 
L 1242.964688 219.574325 
L 1243.907925 213.96704 
L 1244.379543 210.33505 
L 1245.32278 204.590745 
L 1246.266016 187.511143 
L 1246.737635 188.616726 
L 1247.680872 204.156206 
L 1248.15249 192.531378 
L 1248.624108 194.442472 
L 1249.567345 175.772607 
L 1250.038963 169.960751 
L 1250.510582 153.963736 
L 1250.9822 155.571725 
L 1251.453819 164.794709 
L 1251.925437 168.532737 
L 1252.397055 177.278227 
L 1253.81191 183.381346 
L 1254.755147 193.665653 
L 1255.226766 203.06971 
L 1255.698384 197.849988 
L 1256.170002 188.731422 
L 1256.641621 175.896706 
L 1257.113239 173.209779 
L 1257.584858 182.989147 
L 1258.056476 174.88532 
L 1258.528094 174.122446 
L 1258.999713 171.590768 
L 1259.471331 175.881029 
L 1259.942949 182.637651 
L 1260.414568 171.440491 
L 1260.886186 163.614856 
L 1261.357805 170.010243 
L 1261.829423 170.065338 
L 1262.301041 171.154311 
L 1262.77266 169.403233 
L 1263.244278 171.098416 
L 1263.715896 171.531354 
L 1264.187515 184.379142 
L 1264.659133 185.389225 
L 1265.130752 186.116964 
L 1265.60237 189.120066 
L 1266.073988 193.397871 
L 1266.545607 187.28291 
L 1267.017225 193.877599 
L 1267.488843 191.603353 
L 1268.43208 175.644825 
L 1268.903699 171.336038 
L 1269.375317 158.415747 
L 1269.846935 160.750357 
L 1270.318554 160.647671 
L 1270.790172 154.428908 
L 1271.733409 170.790509 
L 1272.205027 172.311303 
L 1272.676646 180.334323 
L 1273.148264 176.262207 
L 1273.619882 182.097058 
L 1274.091501 179.7024 
L 1275.034737 179.101459 
L 1275.506356 174.937997 
L 1276.449593 187.201452 
L 1276.921211 199.031969 
L 1277.392829 196.882286 
L 1278.336066 184.079372 
L 1278.807685 193.443528 
L 1279.279303 184.268452 
L 1279.750921 182.828782 
L 1280.22254 173.944355 
L 1280.694158 176.204228 
L 1281.637395 182.991032 
L 1282.109013 177.631758 
L 1282.580632 179.55946 
L 1283.05225 165.713245 
L 1283.523868 169.438818 
L 1283.995487 165.619981 
L 1284.467105 170.973186 
L 1284.938723 167.204175 
L 1285.410342 165.411575 
L 1285.88196 169.465164 
L 1286.353579 187.17924 
L 1286.825197 192.125537 
L 1287.296815 194.260846 
L 1287.768434 188.137581 
L 1288.71167 192.707151 
L 1289.183289 198.255505 
L 1289.654907 198.622009 
L 1290.126526 192.789393 
L 1290.598144 188.54704 
L 1291.069762 197.417093 
L 1291.541381 198.252787 
L 1292.484617 174.301421 
L 1292.956236 164.756806 
L 1293.427854 168.399336 
L 1293.899473 173.586455 
L 1294.371091 177.19992 
L 1294.842709 178.513108 
L 1295.314328 186.07109 
L 1296.257564 198.222438 
L 1296.729183 194.029911 
L 1297.200801 185.593913 
L 1297.67242 185.599182 
L 1298.615656 205.643717 
L 1299.087275 202.177811 
L 1300.030512 199.774849 
L 1301.445367 225.785985 
L 1301.916985 224.603747 
L 1302.388603 219.74688 
L 1302.860222 222.932676 
L 1303.33184 236.814342 
L 1303.803459 245.858784 
L 1304.275077 248.538021 
L 1304.746695 248.427031 
L 1305.689932 274.857532 
L 1306.16155 280.223192 
L 1306.633169 281.702466 
L 1307.104787 286.557415 
L 1310.406116 286.28034 
L 1311.349353 279.464788 
L 1311.820971 279.108823 
L 1312.292589 282.767961 
L 1312.764208 290.928001 
L 1314.650681 286.379917 
L 1315.1223 285.810574 
L 1316.065536 262.034509 
L 1316.537155 246.783257 
L 1317.008773 253.261687 
L 1317.480391 263.082576 
L 1317.95201 262.381985 
L 1318.423628 256.154917 
L 1318.895247 257.800275 
L 1319.366865 262.597095 
L 1319.838483 265.728913 
L 1320.310102 261.70247 
L 1320.78172 251.48106 
L 1321.253339 262.638933 
L 1321.724957 266.621936 
L 1322.668194 267.154526 
L 1323.139812 260.703243 
L 1323.61143 260.484297 
L 1324.083049 248.419344 
L 1324.554667 246.859263 
L 1325.026286 243.30201 
L 1325.497904 241.895557 
L 1325.969522 237.574314 
L 1326.441141 236.454358 
L 1326.912759 234.142742 
L 1327.855996 242.154423 
L 1328.799233 238.428051 
L 1329.270851 241.530804 
L 1329.742469 248.304035 
L 1330.214088 249.438682 
L 1330.685706 259.43396 
L 1331.157324 262.648821 
L 1331.628943 264.186224 
L 1332.100561 268.762981 
L 1332.57218 276.345876 
L 1333.043798 275.898564 
L 1333.515416 270.360749 
L 1335.40189 224.84964 
L 1335.873508 206.049942 
L 1336.345127 199.395205 
L 1336.816745 201.34782 
L 1337.288363 200.476991 
L 1338.2316 210.494148 
L 1338.703218 226.555679 
L 1339.174837 230.04458 
L 1339.646455 230.257455 
L 1340.118074 223.511372 
L 1340.589692 224.347066 
L 1341.532929 212.270773 
L 1342.004547 197.178921 
L 1342.476166 197.516361 
L 1342.947784 202.325637 
L 1343.419402 213.695268 
L 1343.891021 211.508216 
L 1344.834257 214.549805 
L 1345.305876 208.850057 
L 1345.777494 210.229679 
L 1346.249113 199.140475 
L 1347.192349 196.705413 
L 1347.663968 195.842888 
L 1348.135586 188.141816 
L 1348.607204 194.317141 
L 1349.550441 191.939092 
L 1350.02206 200.020241 
L 1350.493678 192.402212 
L 1350.965296 189.949424 
L 1351.436915 195.630646 
L 1351.908533 198.990831 
L 1352.380151 199.63968 
L 1352.85177 204.527847 
L 1353.323388 194.136199 
L 1353.795007 195.349736 
L 1354.266625 197.854584 
L 1354.738243 183.987608 
L 1355.209862 184.196332 
L 1355.68148 187.809796 
L 1356.153098 184.194414 
L 1356.624717 194.800055 
L 1357.096335 198.417672 
L 1357.567954 194.602987 
L 1358.039572 207.899204 
L 1358.51119 213.551361 
L 1358.982809 206.784517 
L 1359.454427 207.184238 
L 1360.869282 174.099318 
L 1361.340901 168.233485 
L 1361.812519 152.859288 
L 1362.284137 148.035638 
L 1362.755756 139.504142 
L 1363.227374 138.093537 
L 1363.698993 140.722948 
L 1364.170611 151.09607 
L 1364.642229 143.017155 
L 1365.113848 160.992815 
L 1366.057084 183.894011 
L 1366.528703 186.826527 
L 1367.000321 191.050354 
L 1367.47194 193.476311 
L 1367.943558 204.434882 
L 1368.415176 190.389366 
L 1368.886795 185.059156 
L 1377.375925 178.159444 
L 1378.319162 170.982657 
L 1378.790781 155.733025 
L 1379.262399 134.956916 
L 1380.205636 129.884138 
L 1380.677254 132.401442 
L 1381.148873 135.554021 
L 1381.620491 145.254499 
L 1382.563728 122.415902 
L 1383.035346 140.765253 
L 1384.450201 101.788469 
L 1384.92182 80.987448 
L 1385.865056 105.292061 
L 1386.336675 106.468229 
L 1386.808293 131.120504 
L 1387.279911 131.109165 
L 1387.75153 148.208727 
L 1388.223148 153.113502 
L 1388.694767 145.62834 
L 1389.166385 151.575299 
L 1389.638003 132.16939 
L 1390.109622 126.374143 
L 1390.58124 130.905227 
L 1391.052858 117.814699 
L 1391.996095 125.065424 
L 1392.467714 129.912069 
L 1392.939332 127.828821 
L 1393.41095 126.310261 
L 1393.882569 127.378474 
L 1394.354187 124.44404 
L 1394.825805 120.5214 
L 1395.769042 119.506364 
L 1396.240661 115.180969 
L 1399.541989 124.486995 
L 1401.900081 111.300968 
L 1402.3717 111.165065 
L 1402.843318 112.781358 
L 1403.314936 104.498989 
L 1403.786555 104.520867 
L 1404.258173 101.960124 
L 1404.729791 101.504508 
L 1405.20141 118.76185 
L 1405.673028 120.755987 
L 1406.144647 120.16335 
L 1406.616265 121.576189 
L 1407.087883 113.061301 
L 1407.559502 126.104239 
L 1408.03112 124.37392 
L 1408.502738 114.850066 
L 1408.974357 112.775122 
L 1409.445975 112.48559 
L 1409.917594 113.915038 
L 1410.389212 122.834917 
L 1411.332449 122.333627 
L 1411.804067 138.158487 
L 1412.275685 145.07289 
L 1413.218922 154.125636 
L 1413.690541 160.022769 
L 1414.162159 167.912921 
L 1414.633777 164.895444 
L 1415.105396 163.331211 
L 1416.048632 128.318588 
L 1416.520251 115.672337 
L 1417.935106 99.525846 
L 1418.406724 87.560543 
L 1418.878343 84.173527 
L 1419.821579 83.041115 
L 1420.293198 84.059502 
L 1420.764816 93.710155 
L 1422.179671 94.533392 
L 1422.65129 101.655401 
L 1423.122908 104.766459 
L 1425.009382 98.215526 
L 1425.481 91.917871 
L 1425.952618 93.135561 
L 1426.424237 94.693724 
L 1427.839092 98.506491 
L 1428.31071 97.066821 
L 1428.782329 97.420869 
L 1429.725565 100.9679 
L 1432.083657 93.848125 
L 1432.555276 88.845934 
L 1433.026894 73.61291 
L 1434.441749 75.723306 
L 1434.913368 76.629586 
L 1435.384986 79.599471 
L 1436.799841 82.486315 
L 1437.271459 96.783193 
L 1437.743078 98.179424 
L 1438.214696 112.825081 
L 1438.686315 108.445708 
L 1439.629551 105.636954 
L 1440.10117 102.943344 
L 1440.572788 93.323991 
L 1441.044407 96.850261 
L 1441.516025 92.923469 
L 1441.987643 95.955636 
L 1442.459262 95.508324 
L 1442.93088 83.306351 
L 1443.402498 79.416928 
L 1443.874117 77.894216 
L 1444.345735 74.162574 
L 1444.817354 74.624577 
L 1446.232209 65.62916 
L 1446.703827 90.215001 
L 1447.175445 93.475535 
L 1447.647064 95.187327 
L 1448.118682 103.787492 
L 1449.061919 105.948831 
L 1450.005156 106.535397 
L 1450.476774 90.148083 
L 1450.948392 90.319437 
L 1451.420011 88.917137 
L 1451.891629 82.009121 
L 1452.363248 90.335245 
L 1452.834866 80.49583 
L 1453.778103 86.002663 
L 1454.249721 78.272526 
L 1454.721339 85.132951 
L 1455.192958 81.492656 
L 1455.664576 85.405074 
L 1456.136195 76.973228 
L 1457.079431 86.904605 
L 1457.55105 76.050452 
L 1458.022668 82.788846 
L 1458.494286 81.156558 
L 1458.965905 91.656776 
L 1459.437523 90.211334 
L 1459.909142 85.896775 
L 1460.38076 84.07511 
L 1461.323997 101.686501 
L 1461.795615 98.922304 
L 1462.267234 102.539921 
L 1462.738852 104.293234 
L 1463.21047 101.873663 
L 1463.682089 102.103147 
L 1464.153707 104.940165 
L 1464.625325 103.658276 
L 1465.096944 108.098013 
L 1465.568562 97.527824 
L 1466.040181 101.265852 
L 1466.511799 107.258484 
L 1466.983417 110.552235 
L 1467.455036 115.544205 
L 1467.926654 116.259487 
L 1468.398272 118.955333 
L 1468.869891 132.039791 
L 1469.341509 130.579361 
L 1470.284746 142.506494 
L 1470.756364 141.13741 
L 1471.227983 135.441814 
L 1471.699601 131.452741 
L 1472.171219 126.255399 
L 1472.642838 123.063534 
L 1473.114456 124.775326 
L 1474.057693 118.607505 
L 1475.00093 113.817071 
L 1475.472548 120.984754 
L 1475.944166 121.019088 
L 1476.415785 124.366817 
L 1476.887403 123.176275 
L 1477.359022 123.949687 
L 1478.302258 143.529184 
L 1478.773877 130.928606 
L 1479.245495 128.056454 
L 1479.717113 135.527241 
L 1480.188732 144.920462 
L 1480.66035 157.20356 
L 1481.131969 153.110684 
L 1481.603587 151.650254 
L 1482.075205 161.413013 
L 1482.546824 164.777351 
L 1483.018442 148.610099 
L 1483.490061 138.405297 
L 1483.961679 133.037718 
L 1484.433297 130.377324 
L 1485.376534 129.979838 
L 1485.848152 122.403329 
L 1486.319771 121.615543 
L 1486.791389 139.62442 
L 1487.263008 135.639499 
L 1487.734626 133.90918 
L 1488.206244 135.035523 
L 1488.677863 144.8315 
L 1489.621099 150.471201 
L 1490.092718 157.94614 
L 1490.564336 155.754936 
L 1491.035955 152.276574 
L 1491.979191 159.518995 
L 1492.45081 168.343374 
L 1492.922428 174.091031 
L 1493.394046 183.85379 
L 1493.865665 181.488197 
L 1494.337283 172.225927 
L 1494.808902 183.666144 
L 1495.28052 183.804282 
L 1495.752138 186.666212 
L 1496.223757 185.077066 
L 1496.695375 181.731572 
L 1497.166993 175.907259 
L 1497.638612 186.741267 
L 1498.11023 187.186661 
L 1498.581849 178.015738 
L 1499.053467 166.577755 
L 1499.525085 163.2115 
L 1499.996704 165.645761 
L 1500.468322 171.625937 
L 1500.93994 163.850126 
L 1501.411559 163.627029 
L 1501.883177 168.033549 
L 1502.354796 169.546039 
L 1502.826414 172.358144 
L 1503.769651 173.842687 
L 1504.241269 176.148233 
L 1504.712888 183.768497 
L 1505.184506 184.745363 
L 1505.656124 191.186424 
L 1506.127743 191.681644 
L 1506.599361 193.592738 
L 1507.070979 197.343222 
L 1507.542598 199.258469 
L 1508.485835 189.640233 
L 1508.957453 189.628894 
L 1509.429071 184.174121 
L 1509.90069 184.935077 
L 1510.372308 186.646869 
L 1510.843926 193.220797 
L 1511.787163 191.602587 
L 1512.258782 200.725919 
L 1512.7304 201.121488 
L 1513.202018 203.402121 
L 1514.145255 196.026032 
L 1514.616873 186.074509 
L 1515.088492 182.019002 
L 1516.503347 195.468847 
L 1516.974965 188.818263 
L 1517.918202 178.361298 
L 1518.861439 176.245949 
L 1519.333057 181.989453 
L 1519.804676 160.806437 
L 1520.276294 155.820853 
L 1520.747912 145.657572 
L 1521.219531 144.33001 
L 1521.691149 139.576946 
L 1522.162768 136.866726 
L 1522.634386 128.895767 
L 1523.106004 131.99852 
L 1524.049241 143.456463 
L 1524.520859 142.527505 
L 1524.992478 142.130018 
L 1525.464096 142.064701 
L 1525.935715 141.629846 
L 1526.878951 134.602535 
L 1527.35057 142.235255 
L 1527.822188 141.297993 
L 1528.293806 137.894369 
L 1528.765425 135.952292 
L 1529.708662 116.58487 
L 1530.18028 118.197012 
L 1531.123517 103.549437 
L 1532.066753 99.680775 
L 1532.538372 101.413328 
L 1533.00999 102.618561 
L 1533.481609 110.753688 
L 1533.953227 115.870222 
L 1534.424845 115.148869 
L 1534.896464 117.350612 
L 1535.368082 114.727587 
L 1535.8397 107.557987 
L 1536.311319 102.813227 
L 1536.782937 99.563232 
L 1537.254556 101.088178 
L 1538.197792 84.19127 
L 1538.669411 80.160675 
L 1539.141029 80.597766 
L 1539.612647 83.492913 
L 1540.084266 83.971524 
L 1540.555884 83.021805 
L 1541.027503 79.04934 
L 1541.499121 81.9694 
L 1541.970739 82.975332 
L 1542.442358 78.093552 
L 1542.913976 83.579624 
L 1543.857213 55.8 
L 1544.328831 56.332589 
L 1544.80045 66.290498 
L 1545.272068 72.569626 
L 1546.215305 78.325587 
L 1546.686923 75.175242 
L 1547.158542 90.099092 
L 1547.63016 98.582997 
L 1548.101778 96.047167 
L 1548.573397 86.344771 
L 1549.045015 79.490733 
L 1549.516633 83.976143 
L 1550.45987 64.841241 
L 1550.931489 60.29163 
L 1551.403107 62.25255 
L 1551.874725 61.796934 
L 1552.346344 67.752196 
L 1552.817962 56.530123 
L 1554.232817 75.076859 
L 1555.176054 103.276164 
L 1555.647672 94.470627 
L 1556.119291 101.272923 
L 1556.590909 102.727283 
L 1556.590909 102.727283 
" clip-path="url(#pa4f91a6d0b)" style="fill: none; stroke: #34af86; stroke-width: 2.5; stroke-linecap: square"/>
   </g>
   <g id="patch_3">
    <path d="M 225 320.4 
L 225 43.2 
" style="fill: none; stroke: #000000; stroke-width: 0.8; stroke-linejoin: miter; stroke-linecap: square"/>
   </g>
   <g id="patch_4">
    <path d="M 1620 320.4 
L 1620 43.2 
" style="fill: none; stroke: #000000; stroke-width: 0.8; stroke-linejoin: miter; stroke-linecap: square"/>
   </g>
   <g id="patch_5">
    <path d="M 225 320.4 
L 1620 320.4 
" style="fill: none; stroke: #000000; stroke-width: 0.8; stroke-linejoin: miter; stroke-linecap: square"/>
   </g>
   <g id="patch_6">
    <path d="M 225 43.2 
L 1620 43.2 
" style="fill: none; stroke: #000000; stroke-width: 0.8; stroke-linejoin: miter; stroke-linecap: square"/>
   </g>
   <g id="text_16">
    <!-- COLI -->
    <g transform="translate(899.123438 37.2) scale(0.2 -0.2)">
     <defs>
      <path id="DejaVuSans-43" d="M 4122 4306 
L 4122 3641 
Q 3803 3938 3442 4084 
Q 3081 4231 2675 4231 
Q 1875 4231 1450 3742 
Q 1025 3253 1025 2328 
Q 1025 1406 1450 917 
Q 1875 428 2675 428 
Q 3081 428 3442 575 
Q 3803 722 4122 1019 
L 4122 359 
Q 3791 134 3420 21 
Q 3050 -91 2638 -91 
Q 1578 -91 968 557 
Q 359 1206 359 2328 
Q 359 3453 968 4101 
Q 1578 4750 2638 4750 
Q 3056 4750 3426 4639 
Q 3797 4528 4122 4306 
z
" transform="scale(0.015625)"/>
      <path id="DejaVuSans-4f" d="M 2522 4238 
Q 1834 4238 1429 3725 
Q 1025 3213 1025 2328 
Q 1025 1447 1429 934 
Q 1834 422 2522 422 
Q 3209 422 3611 934 
Q 4013 1447 4013 2328 
Q 4013 3213 3611 3725 
Q 3209 4238 2522 4238 
z
M 2522 4750 
Q 3503 4750 4090 4092 
Q 4678 3434 4678 2328 
Q 4678 1225 4090 567 
Q 3503 -91 2522 -91 
Q 1538 -91 948 565 
Q 359 1222 359 2328 
Q 359 3434 948 4092 
Q 1538 4750 2522 4750 
z
" transform="scale(0.015625)"/>
      <path id="DejaVuSans-4c" d="M 628 4666 
L 1259 4666 
L 1259 531 
L 3531 531 
L 3531 0 
L 628 0 
L 628 4666 
z
" transform="scale(0.015625)"/>
      <path id="DejaVuSans-49" d="M 628 4666 
L 1259 4666 
L 1259 0 
L 628 0 
L 628 4666 
z
" transform="scale(0.015625)"/>
     </defs>
     <use xlink:href="#DejaVuSans-43"/>
     <use xlink:href="#DejaVuSans-4f" x="69.824219"/>
     <use xlink:href="#DejaVuSans-4c" x="148.535156"/>
     <use xlink:href="#DejaVuSans-49" x="204.248047"/>
    </g>
   </g>
   <g id="legend_1">
    <g id="patch_7">
     <path d="M 1563.826562 65.878125 
L 1613 65.878125 
Q 1615 65.878125 1615 63.878125 
L 1615 50.2 
Q 1615 48.2 1613 48.2 
L 1563.826562 48.2 
Q 1561.826562 48.2 1561.826562 50.2 
L 1561.826562 63.878125 
Q 1561.826562 65.878125 1563.826562 65.878125 
z
" style="fill: #ffffff; opacity: 0.8; stroke: #cccccc; stroke-linejoin: miter"/>
    </g>
    <g id="line2d_15">
     <path d="M 1565.826562 56.298437 
L 1575.826562 56.298437 
L 1585.826562 56.298437 
" style="fill: none; stroke: #34af86; stroke-width: 2.5; stroke-linecap: square"/>
    </g>
    <g id="text_17">
     <!-- coli -->
     <g transform="translate(1593.826562 59.798437) scale(0.1 -0.1)">
      <defs>
       <path id="DejaVuSans-63" d="M 3122 3366 
L 3122 2828 
Q 2878 2963 2633 3030 
Q 2388 3097 2138 3097 
Q 1578 3097 1268 2742 
Q 959 2388 959 1747 
Q 959 1106 1268 751 
Q 1578 397 2138 397 
Q 2388 397 2633 464 
Q 2878 531 3122 666 
L 3122 134 
Q 2881 22 2623 -34 
Q 2366 -91 2075 -91 
Q 1284 -91 818 406 
Q 353 903 353 1747 
Q 353 2603 823 3093 
Q 1294 3584 2113 3584 
Q 2378 3584 2631 3529 
Q 2884 3475 3122 3366 
z
" transform="scale(0.015625)"/>
       <path id="DejaVuSans-6f" d="M 1959 3097 
Q 1497 3097 1228 2736 
Q 959 2375 959 1747 
Q 959 1119 1226 758 
Q 1494 397 1959 397 
Q 2419 397 2687 759 
Q 2956 1122 2956 1747 
Q 2956 2369 2687 2733 
Q 2419 3097 1959 3097 
z
M 1959 3584 
Q 2709 3584 3137 3096 
Q 3566 2609 3566 1747 
Q 3566 888 3137 398 
Q 2709 -91 1959 -91 
Q 1206 -91 779 398 
Q 353 888 353 1747 
Q 353 2609 779 3096 
Q 1206 3584 1959 3584 
z
" transform="scale(0.015625)"/>
       <path id="DejaVuSans-6c" d="M 603 4863 
L 1178 4863 
L 1178 0 
L 603 0 
L 603 4863 
z
" transform="scale(0.015625)"/>
      </defs>
      <use xlink:href="#DejaVuSans-63"/>
      <use xlink:href="#DejaVuSans-6f" x="54.980469"/>
      <use xlink:href="#DejaVuSans-6c" x="116.162109"/>
      <use xlink:href="#DejaVuSans-69" x="143.945312"/>
     </g>
    </g>
   </g>
  </g>
 </g>
 <defs>
  <clipPath id="pa4f91a6d0b">
   <rect x="225" y="43.2" width="1395" height="277.2"/>
  </clipPath>
 </defs>
</svg>
