<?xml version="1.0" encoding="utf-8" standalone="no"?>
<!DOCTYPE svg PUBLIC "-//W3C//DTD SVG 1.1//EN"
  "http://www.w3.org/Graphics/SVG/1.1/DTD/svg11.dtd">
<svg xmlns:xlink="http://www.w3.org/1999/xlink" width="1800pt" height="360pt" viewBox="0 0 1800 360" xmlns="http://www.w3.org/2000/svg" version="1.1">
 <metadata>
  <rdf:RDF xmlns:dc="http://purl.org/dc/elements/1.1/" xmlns:cc="http://creativecommons.org/ns#" xmlns:rdf="http://www.w3.org/1999/02/22-rdf-syntax-ns#">
   <cc:Work>
    <dc:type rdf:resource="http://purl.org/dc/dcmitype/StillImage"/>
    <dc:date>2024-03-25T14:05:58.834647</dc:date>
    <dc:format>image/svg+xml</dc:format>
    <dc:creator>
     <cc:Agent>
      <dc:title>Matplotlib v3.7.2, https://matplotlib.org/</dc:title>
     </cc:Agent>
    </dc:creator>
   </cc:Work>
  </rdf:RDF>
 </metadata>
 <defs>
  <style type="text/css">*{stroke-linejoin: round; stroke-linecap: butt}</style>
 </defs>
 <g id="figure_1">
  <g id="patch_1">
   <path d="M 0 360 
L 1800 360 
L 1800 0 
L 0 0 
z
" style="fill: #ffffff"/>
  </g>
  <g id="axes_1">
   <g id="patch_2">
    <path d="M 225 320.4 
L 1620 320.4 
L 1620 43.2 
L 225 43.2 
z
" style="fill: #ffffff"/>
   </g>
   <g id="matplotlib.axis_1">
    <g id="xtick_1">
     <g id="line2d_1">
      <defs>
       <path id="me352def50c" d="M 0 0 
L 0 3.5 
" style="stroke: #000000; stroke-width: 0.8"/>
      </defs>
      <g>
       <use xlink:href="#me352def50c" x="281.924597" y="320.4" style="stroke: #000000; stroke-width: 0.8"/>
      </g>
     </g>
     <g id="text_1">
      <!-- 2011 -->
      <g transform="translate(262.837097 338.797656) scale(0.15 -0.15)">
       <defs>
        <path id="DejaVuSans-32" d="M 1228 531 
L 3431 531 
L 3431 0 
L 469 0 
L 469 531 
Q 828 903 1448 1529 
Q 2069 2156 2228 2338 
Q 2531 2678 2651 2914 
Q 2772 3150 2772 3378 
Q 2772 3750 2511 3984 
Q 2250 4219 1831 4219 
Q 1534 4219 1204 4116 
Q 875 4013 500 3803 
L 500 4441 
Q 881 4594 1212 4672 
Q 1544 4750 1819 4750 
Q 2544 4750 2975 4387 
Q 3406 4025 3406 3419 
Q 3406 3131 3298 2873 
Q 3191 2616 2906 2266 
Q 2828 2175 2409 1742 
Q 1991 1309 1228 531 
z
" transform="scale(0.015625)"/>
        <path id="DejaVuSans-30" d="M 2034 4250 
Q 1547 4250 1301 3770 
Q 1056 3291 1056 2328 
Q 1056 1369 1301 889 
Q 1547 409 2034 409 
Q 2525 409 2770 889 
Q 3016 1369 3016 2328 
Q 3016 3291 2770 3770 
Q 2525 4250 2034 4250 
z
M 2034 4750 
Q 2819 4750 3233 4129 
Q 3647 3509 3647 2328 
Q 3647 1150 3233 529 
Q 2819 -91 2034 -91 
Q 1250 -91 836 529 
Q 422 1150 422 2328 
Q 422 3509 836 4129 
Q 1250 4750 2034 4750 
z
" transform="scale(0.015625)"/>
        <path id="DejaVuSans-31" d="M 794 531 
L 1825 531 
L 1825 4091 
L 703 3866 
L 703 4441 
L 1819 4666 
L 2450 4666 
L 2450 531 
L 3481 531 
L 3481 0 
L 794 0 
L 794 531 
z
" transform="scale(0.015625)"/>
       </defs>
       <use xlink:href="#DejaVuSans-32"/>
       <use xlink:href="#DejaVuSans-30" x="63.623047"/>
       <use xlink:href="#DejaVuSans-31" x="127.246094"/>
       <use xlink:href="#DejaVuSans-31" x="190.869141"/>
      </g>
     </g>
    </g>
    <g id="xtick_2">
     <g id="line2d_2">
      <g>
       <use xlink:href="#me352def50c" x="450.984627" y="320.4" style="stroke: #000000; stroke-width: 0.8"/>
      </g>
     </g>
     <g id="text_2">
      <!-- 2012 -->
      <g transform="translate(431.897127 338.797656) scale(0.15 -0.15)">
       <use xlink:href="#DejaVuSans-32"/>
       <use xlink:href="#DejaVuSans-30" x="63.623047"/>
       <use xlink:href="#DejaVuSans-31" x="127.246094"/>
       <use xlink:href="#DejaVuSans-32" x="190.869141"/>
      </g>
     </g>
    </g>
    <g id="xtick_3">
     <g id="line2d_3">
      <g>
       <use xlink:href="#me352def50c" x="620.507836" y="320.4" style="stroke: #000000; stroke-width: 0.8"/>
      </g>
     </g>
     <g id="text_3">
      <!-- 2013 -->
      <g transform="translate(601.420336 338.797656) scale(0.15 -0.15)">
       <defs>
        <path id="DejaVuSans-33" d="M 2597 2516 
Q 3050 2419 3304 2112 
Q 3559 1806 3559 1356 
Q 3559 666 3084 287 
Q 2609 -91 1734 -91 
Q 1441 -91 1130 -33 
Q 819 25 488 141 
L 488 750 
Q 750 597 1062 519 
Q 1375 441 1716 441 
Q 2309 441 2620 675 
Q 2931 909 2931 1356 
Q 2931 1769 2642 2001 
Q 2353 2234 1838 2234 
L 1294 2234 
L 1294 2753 
L 1863 2753 
Q 2328 2753 2575 2939 
Q 2822 3125 2822 3475 
Q 2822 3834 2567 4026 
Q 2313 4219 1838 4219 
Q 1578 4219 1281 4162 
Q 984 4106 628 3988 
L 628 4550 
Q 988 4650 1302 4700 
Q 1616 4750 1894 4750 
Q 2613 4750 3031 4423 
Q 3450 4097 3450 3541 
Q 3450 3153 3228 2886 
Q 3006 2619 2597 2516 
z
" transform="scale(0.015625)"/>
       </defs>
       <use xlink:href="#DejaVuSans-32"/>
       <use xlink:href="#DejaVuSans-30" x="63.623047"/>
       <use xlink:href="#DejaVuSans-31" x="127.246094"/>
       <use xlink:href="#DejaVuSans-33" x="190.869141"/>
      </g>
     </g>
    </g>
    <g id="xtick_4">
     <g id="line2d_4">
      <g>
       <use xlink:href="#me352def50c" x="789.567866" y="320.4" style="stroke: #000000; stroke-width: 0.8"/>
      </g>
     </g>
     <g id="text_4">
      <!-- 2014 -->
      <g transform="translate(770.480366 338.797656) scale(0.15 -0.15)">
       <defs>
        <path id="DejaVuSans-34" d="M 2419 4116 
L 825 1625 
L 2419 1625 
L 2419 4116 
z
M 2253 4666 
L 3047 4666 
L 3047 1625 
L 3713 1625 
L 3713 1100 
L 3047 1100 
L 3047 0 
L 2419 0 
L 2419 1100 
L 313 1100 
L 313 1709 
L 2253 4666 
z
" transform="scale(0.015625)"/>
       </defs>
       <use xlink:href="#DejaVuSans-32"/>
       <use xlink:href="#DejaVuSans-30" x="63.623047"/>
       <use xlink:href="#DejaVuSans-31" x="127.246094"/>
       <use xlink:href="#DejaVuSans-34" x="190.869141"/>
      </g>
     </g>
    </g>
    <g id="xtick_5">
     <g id="line2d_5">
      <g>
       <use xlink:href="#me352def50c" x="958.627897" y="320.4" style="stroke: #000000; stroke-width: 0.8"/>
      </g>
     </g>
     <g id="text_5">
      <!-- 2015 -->
      <g transform="translate(939.540397 338.797656) scale(0.15 -0.15)">
       <defs>
        <path id="DejaVuSans-35" d="M 691 4666 
L 3169 4666 
L 3169 4134 
L 1269 4134 
L 1269 2991 
Q 1406 3038 1543 3061 
Q 1681 3084 1819 3084 
Q 2600 3084 3056 2656 
Q 3513 2228 3513 1497 
Q 3513 744 3044 326 
Q 2575 -91 1722 -91 
Q 1428 -91 1123 -41 
Q 819 9 494 109 
L 494 744 
Q 775 591 1075 516 
Q 1375 441 1709 441 
Q 2250 441 2565 725 
Q 2881 1009 2881 1497 
Q 2881 1984 2565 2268 
Q 2250 2553 1709 2553 
Q 1456 2553 1204 2497 
Q 953 2441 691 2322 
L 691 4666 
z
" transform="scale(0.015625)"/>
       </defs>
       <use xlink:href="#DejaVuSans-32"/>
       <use xlink:href="#DejaVuSans-30" x="63.623047"/>
       <use xlink:href="#DejaVuSans-31" x="127.246094"/>
       <use xlink:href="#DejaVuSans-35" x="190.869141"/>
      </g>
     </g>
    </g>
    <g id="xtick_6">
     <g id="line2d_6">
      <g>
       <use xlink:href="#me352def50c" x="1127.687927" y="320.4" style="stroke: #000000; stroke-width: 0.8"/>
      </g>
     </g>
     <g id="text_6">
      <!-- 2016 -->
      <g transform="translate(1108.600427 338.797656) scale(0.15 -0.15)">
       <defs>
        <path id="DejaVuSans-36" d="M 2113 2584 
Q 1688 2584 1439 2293 
Q 1191 2003 1191 1497 
Q 1191 994 1439 701 
Q 1688 409 2113 409 
Q 2538 409 2786 701 
Q 3034 994 3034 1497 
Q 3034 2003 2786 2293 
Q 2538 2584 2113 2584 
z
M 3366 4563 
L 3366 3988 
Q 3128 4100 2886 4159 
Q 2644 4219 2406 4219 
Q 1781 4219 1451 3797 
Q 1122 3375 1075 2522 
Q 1259 2794 1537 2939 
Q 1816 3084 2150 3084 
Q 2853 3084 3261 2657 
Q 3669 2231 3669 1497 
Q 3669 778 3244 343 
Q 2819 -91 2113 -91 
Q 1303 -91 875 529 
Q 447 1150 447 2328 
Q 447 3434 972 4092 
Q 1497 4750 2381 4750 
Q 2619 4750 2861 4703 
Q 3103 4656 3366 4563 
z
" transform="scale(0.015625)"/>
       </defs>
       <use xlink:href="#DejaVuSans-32"/>
       <use xlink:href="#DejaVuSans-30" x="63.623047"/>
       <use xlink:href="#DejaVuSans-31" x="127.246094"/>
       <use xlink:href="#DejaVuSans-36" x="190.869141"/>
      </g>
     </g>
    </g>
    <g id="xtick_7">
     <g id="line2d_7">
      <g>
       <use xlink:href="#me352def50c" x="1297.211136" y="320.4" style="stroke: #000000; stroke-width: 0.8"/>
      </g>
     </g>
     <g id="text_7">
      <!-- 2017 -->
      <g transform="translate(1278.123636 338.797656) scale(0.15 -0.15)">
       <defs>
        <path id="DejaVuSans-37" d="M 525 4666 
L 3525 4666 
L 3525 4397 
L 1831 0 
L 1172 0 
L 2766 4134 
L 525 4134 
L 525 4666 
z
" transform="scale(0.015625)"/>
       </defs>
       <use xlink:href="#DejaVuSans-32"/>
       <use xlink:href="#DejaVuSans-30" x="63.623047"/>
       <use xlink:href="#DejaVuSans-31" x="127.246094"/>
       <use xlink:href="#DejaVuSans-37" x="190.869141"/>
      </g>
     </g>
    </g>
    <g id="xtick_8">
     <g id="line2d_8">
      <g>
       <use xlink:href="#me352def50c" x="1466.271167" y="320.4" style="stroke: #000000; stroke-width: 0.8"/>
      </g>
     </g>
     <g id="text_8">
      <!-- 2018 -->
      <g transform="translate(1447.183667 338.797656) scale(0.15 -0.15)">
       <defs>
        <path id="DejaVuSans-38" d="M 2034 2216 
Q 1584 2216 1326 1975 
Q 1069 1734 1069 1313 
Q 1069 891 1326 650 
Q 1584 409 2034 409 
Q 2484 409 2743 651 
Q 3003 894 3003 1313 
Q 3003 1734 2745 1975 
Q 2488 2216 2034 2216 
z
M 1403 2484 
Q 997 2584 770 2862 
Q 544 3141 544 3541 
Q 544 4100 942 4425 
Q 1341 4750 2034 4750 
Q 2731 4750 3128 4425 
Q 3525 4100 3525 3541 
Q 3525 3141 3298 2862 
Q 3072 2584 2669 2484 
Q 3125 2378 3379 2068 
Q 3634 1759 3634 1313 
Q 3634 634 3220 271 
Q 2806 -91 2034 -91 
Q 1263 -91 848 271 
Q 434 634 434 1313 
Q 434 1759 690 2068 
Q 947 2378 1403 2484 
z
M 1172 3481 
Q 1172 3119 1398 2916 
Q 1625 2713 2034 2713 
Q 2441 2713 2670 2916 
Q 2900 3119 2900 3481 
Q 2900 3844 2670 4047 
Q 2441 4250 2034 4250 
Q 1625 4250 1398 4047 
Q 1172 3844 1172 3481 
z
" transform="scale(0.015625)"/>
       </defs>
       <use xlink:href="#DejaVuSans-32"/>
       <use xlink:href="#DejaVuSans-30" x="63.623047"/>
       <use xlink:href="#DejaVuSans-31" x="127.246094"/>
       <use xlink:href="#DejaVuSans-38" x="190.869141"/>
      </g>
     </g>
    </g>
    <g id="text_9">
     <!-- Time -->
     <g transform="translate(904.149609 357.314844) scale(0.15 -0.15)">
      <defs>
       <path id="DejaVuSans-54" d="M -19 4666 
L 3928 4666 
L 3928 4134 
L 2272 4134 
L 2272 0 
L 1638 0 
L 1638 4134 
L -19 4134 
L -19 4666 
z
" transform="scale(0.015625)"/>
       <path id="DejaVuSans-69" d="M 603 3500 
L 1178 3500 
L 1178 0 
L 603 0 
L 603 3500 
z
M 603 4863 
L 1178 4863 
L 1178 4134 
L 603 4134 
L 603 4863 
z
" transform="scale(0.015625)"/>
       <path id="DejaVuSans-6d" d="M 3328 2828 
Q 3544 3216 3844 3400 
Q 4144 3584 4550 3584 
Q 5097 3584 5394 3201 
Q 5691 2819 5691 2113 
L 5691 0 
L 5113 0 
L 5113 2094 
Q 5113 2597 4934 2840 
Q 4756 3084 4391 3084 
Q 3944 3084 3684 2787 
Q 3425 2491 3425 1978 
L 3425 0 
L 2847 0 
L 2847 2094 
Q 2847 2600 2669 2842 
Q 2491 3084 2119 3084 
Q 1678 3084 1418 2786 
Q 1159 2488 1159 1978 
L 1159 0 
L 581 0 
L 581 3500 
L 1159 3500 
L 1159 2956 
Q 1356 3278 1631 3431 
Q 1906 3584 2284 3584 
Q 2666 3584 2933 3390 
Q 3200 3197 3328 2828 
z
" transform="scale(0.015625)"/>
       <path id="DejaVuSans-65" d="M 3597 1894 
L 3597 1613 
L 953 1613 
Q 991 1019 1311 708 
Q 1631 397 2203 397 
Q 2534 397 2845 478 
Q 3156 559 3463 722 
L 3463 178 
Q 3153 47 2828 -22 
Q 2503 -91 2169 -91 
Q 1331 -91 842 396 
Q 353 884 353 1716 
Q 353 2575 817 3079 
Q 1281 3584 2069 3584 
Q 2775 3584 3186 3129 
Q 3597 2675 3597 1894 
z
M 3022 2063 
Q 3016 2534 2758 2815 
Q 2500 3097 2075 3097 
Q 1594 3097 1305 2825 
Q 1016 2553 972 2059 
L 3022 2063 
z
" transform="scale(0.015625)"/>
      </defs>
      <use xlink:href="#DejaVuSans-54"/>
      <use xlink:href="#DejaVuSans-69" x="57.958984"/>
      <use xlink:href="#DejaVuSans-6d" x="85.742188"/>
      <use xlink:href="#DejaVuSans-65" x="183.154297"/>
     </g>
    </g>
   </g>
   <g id="matplotlib.axis_2">
    <g id="ytick_1">
     <g id="line2d_9">
      <defs>
       <path id="mac5cea1270" d="M 0 0 
L -3.5 0 
" style="stroke: #000000; stroke-width: 0.8"/>
      </defs>
      <g>
       <use xlink:href="#mac5cea1270" x="225" y="314.231927" style="stroke: #000000; stroke-width: 0.8"/>
      </g>
     </g>
     <g id="text_10">
      <!-- −0.006 -->
      <g transform="translate(162.488281 319.930755) scale(0.15 -0.15)">
       <defs>
        <path id="DejaVuSans-2212" d="M 678 2272 
L 4684 2272 
L 4684 1741 
L 678 1741 
L 678 2272 
z
" transform="scale(0.015625)"/>
        <path id="DejaVuSans-2e" d="M 684 794 
L 1344 794 
L 1344 0 
L 684 0 
L 684 794 
z
" transform="scale(0.015625)"/>
       </defs>
       <use xlink:href="#DejaVuSans-2212"/>
       <use xlink:href="#DejaVuSans-30" x="83.789062"/>
       <use xlink:href="#DejaVuSans-2e" x="147.412109"/>
       <use xlink:href="#DejaVuSans-30" x="179.199219"/>
       <use xlink:href="#DejaVuSans-30" x="242.822266"/>
       <use xlink:href="#DejaVuSans-36" x="306.445312"/>
      </g>
     </g>
    </g>
    <g id="ytick_2">
     <g id="line2d_10">
      <g>
       <use xlink:href="#mac5cea1270" x="225" y="269.824544" style="stroke: #000000; stroke-width: 0.8"/>
      </g>
     </g>
     <g id="text_11">
      <!-- −0.004 -->
      <g transform="translate(162.488281 275.523372) scale(0.15 -0.15)">
       <use xlink:href="#DejaVuSans-2212"/>
       <use xlink:href="#DejaVuSans-30" x="83.789062"/>
       <use xlink:href="#DejaVuSans-2e" x="147.412109"/>
       <use xlink:href="#DejaVuSans-30" x="179.199219"/>
       <use xlink:href="#DejaVuSans-30" x="242.822266"/>
       <use xlink:href="#DejaVuSans-34" x="306.445312"/>
      </g>
     </g>
    </g>
    <g id="ytick_3">
     <g id="line2d_11">
      <g>
       <use xlink:href="#mac5cea1270" x="225" y="225.41716" style="stroke: #000000; stroke-width: 0.8"/>
      </g>
     </g>
     <g id="text_12">
      <!-- −0.002 -->
      <g transform="translate(162.488281 231.115988) scale(0.15 -0.15)">
       <use xlink:href="#DejaVuSans-2212"/>
       <use xlink:href="#DejaVuSans-30" x="83.789062"/>
       <use xlink:href="#DejaVuSans-2e" x="147.412109"/>
       <use xlink:href="#DejaVuSans-30" x="179.199219"/>
       <use xlink:href="#DejaVuSans-30" x="242.822266"/>
       <use xlink:href="#DejaVuSans-32" x="306.445312"/>
      </g>
     </g>
    </g>
    <g id="ytick_4">
     <g id="line2d_12">
      <g>
       <use xlink:href="#mac5cea1270" x="225" y="181.009777" style="stroke: #000000; stroke-width: 0.8"/>
      </g>
     </g>
     <g id="text_13">
      <!-- 0.000 -->
      <g transform="translate(175.057813 186.708605) scale(0.15 -0.15)">
       <use xlink:href="#DejaVuSans-30"/>
       <use xlink:href="#DejaVuSans-2e" x="63.623047"/>
       <use xlink:href="#DejaVuSans-30" x="95.410156"/>
       <use xlink:href="#DejaVuSans-30" x="159.033203"/>
       <use xlink:href="#DejaVuSans-30" x="222.65625"/>
      </g>
     </g>
    </g>
    <g id="ytick_5">
     <g id="line2d_13">
      <g>
       <use xlink:href="#mac5cea1270" x="225" y="136.602394" style="stroke: #000000; stroke-width: 0.8"/>
      </g>
     </g>
     <g id="text_14">
      <!-- 0.002 -->
      <g transform="translate(175.057813 142.301222) scale(0.15 -0.15)">
       <use xlink:href="#DejaVuSans-30"/>
       <use xlink:href="#DejaVuSans-2e" x="63.623047"/>
       <use xlink:href="#DejaVuSans-30" x="95.410156"/>
       <use xlink:href="#DejaVuSans-30" x="159.033203"/>
       <use xlink:href="#DejaVuSans-32" x="222.65625"/>
      </g>
     </g>
    </g>
    <g id="ytick_6">
     <g id="line2d_14">
      <g>
       <use xlink:href="#mac5cea1270" x="225" y="92.195011" style="stroke: #000000; stroke-width: 0.8"/>
      </g>
     </g>
     <g id="text_15">
      <!-- 0.004 -->
      <g transform="translate(175.057813 97.893839) scale(0.15 -0.15)">
       <use xlink:href="#DejaVuSans-30"/>
       <use xlink:href="#DejaVuSans-2e" x="63.623047"/>
       <use xlink:href="#DejaVuSans-30" x="95.410156"/>
       <use xlink:href="#DejaVuSans-30" x="159.033203"/>
       <use xlink:href="#DejaVuSans-34" x="222.65625"/>
      </g>
     </g>
    </g>
    <g id="ytick_7">
     <g id="line2d_15">
      <g>
       <use xlink:href="#mac5cea1270" x="225" y="47.787628" style="stroke: #000000; stroke-width: 0.8"/>
      </g>
     </g>
     <g id="text_16">
      <!-- 0.006 -->
      <g transform="translate(175.057813 53.486456) scale(0.15 -0.15)">
       <use xlink:href="#DejaVuSans-30"/>
       <use xlink:href="#DejaVuSans-2e" x="63.623047"/>
       <use xlink:href="#DejaVuSans-30" x="95.410156"/>
       <use xlink:href="#DejaVuSans-30" x="159.033203"/>
       <use xlink:href="#DejaVuSans-36" x="222.65625"/>
      </g>
     </g>
    </g>
    <g id="text_17">
     <!-- East(m) -->
     <g transform="translate(155.36875 211.140234) rotate(-90) scale(0.15 -0.15)">
      <defs>
       <path id="DejaVuSans-45" d="M 628 4666 
L 3578 4666 
L 3578 4134 
L 1259 4134 
L 1259 2753 
L 3481 2753 
L 3481 2222 
L 1259 2222 
L 1259 531 
L 3634 531 
L 3634 0 
L 628 0 
L 628 4666 
z
" transform="scale(0.015625)"/>
       <path id="DejaVuSans-61" d="M 2194 1759 
Q 1497 1759 1228 1600 
Q 959 1441 959 1056 
Q 959 750 1161 570 
Q 1363 391 1709 391 
Q 2188 391 2477 730 
Q 2766 1069 2766 1631 
L 2766 1759 
L 2194 1759 
z
M 3341 1997 
L 3341 0 
L 2766 0 
L 2766 531 
Q 2569 213 2275 61 
Q 1981 -91 1556 -91 
Q 1019 -91 701 211 
Q 384 513 384 1019 
Q 384 1609 779 1909 
Q 1175 2209 1959 2209 
L 2766 2209 
L 2766 2266 
Q 2766 2663 2505 2880 
Q 2244 3097 1772 3097 
Q 1472 3097 1187 3025 
Q 903 2953 641 2809 
L 641 3341 
Q 956 3463 1253 3523 
Q 1550 3584 1831 3584 
Q 2591 3584 2966 3190 
Q 3341 2797 3341 1997 
z
" transform="scale(0.015625)"/>
       <path id="DejaVuSans-73" d="M 2834 3397 
L 2834 2853 
Q 2591 2978 2328 3040 
Q 2066 3103 1784 3103 
Q 1356 3103 1142 2972 
Q 928 2841 928 2578 
Q 928 2378 1081 2264 
Q 1234 2150 1697 2047 
L 1894 2003 
Q 2506 1872 2764 1633 
Q 3022 1394 3022 966 
Q 3022 478 2636 193 
Q 2250 -91 1575 -91 
Q 1294 -91 989 -36 
Q 684 19 347 128 
L 347 722 
Q 666 556 975 473 
Q 1284 391 1588 391 
Q 1994 391 2212 530 
Q 2431 669 2431 922 
Q 2431 1156 2273 1281 
Q 2116 1406 1581 1522 
L 1381 1569 
Q 847 1681 609 1914 
Q 372 2147 372 2553 
Q 372 3047 722 3315 
Q 1072 3584 1716 3584 
Q 2034 3584 2315 3537 
Q 2597 3491 2834 3397 
z
" transform="scale(0.015625)"/>
       <path id="DejaVuSans-74" d="M 1172 4494 
L 1172 3500 
L 2356 3500 
L 2356 3053 
L 1172 3053 
L 1172 1153 
Q 1172 725 1289 603 
Q 1406 481 1766 481 
L 2356 481 
L 2356 0 
L 1766 0 
Q 1100 0 847 248 
Q 594 497 594 1153 
L 594 3053 
L 172 3053 
L 172 3500 
L 594 3500 
L 594 4494 
L 1172 4494 
z
" transform="scale(0.015625)"/>
       <path id="DejaVuSans-28" d="M 1984 4856 
Q 1566 4138 1362 3434 
Q 1159 2731 1159 2009 
Q 1159 1288 1364 580 
Q 1569 -128 1984 -844 
L 1484 -844 
Q 1016 -109 783 600 
Q 550 1309 550 2009 
Q 550 2706 781 3412 
Q 1013 4119 1484 4856 
L 1984 4856 
z
" transform="scale(0.015625)"/>
       <path id="DejaVuSans-29" d="M 513 4856 
L 1013 4856 
Q 1481 4119 1714 3412 
Q 1947 2706 1947 2009 
Q 1947 1309 1714 600 
Q 1481 -109 1013 -844 
L 513 -844 
Q 928 -128 1133 580 
Q 1338 1288 1338 2009 
Q 1338 2731 1133 3434 
Q 928 4138 513 4856 
z
" transform="scale(0.015625)"/>
      </defs>
      <use xlink:href="#DejaVuSans-45"/>
      <use xlink:href="#DejaVuSans-61" x="63.183594"/>
      <use xlink:href="#DejaVuSans-73" x="124.462891"/>
      <use xlink:href="#DejaVuSans-74" x="176.5625"/>
      <use xlink:href="#DejaVuSans-28" x="215.771484"/>
      <use xlink:href="#DejaVuSans-6d" x="254.785156"/>
      <use xlink:href="#DejaVuSans-29" x="352.197266"/>
     </g>
    </g>
   </g>
   <g id="line2d_16">
    <path d="M 288.409091 193.796276 
L 288.872269 195.490028 
L 289.335447 205.576777 
L 289.798625 209.202251 
L 290.261804 203.644278 
L 290.724982 205.706612 
L 291.18816 205.281498 
L 292.114516 207.184384 
L 292.577694 200.694419 
L 293.040873 197.030666 
L 293.504051 200.097804 
L 293.967229 196.627541 
L 294.430407 196.14526 
L 294.893585 197.115735 
L 295.356763 201.064677 
L 296.28312 212.569074 
L 296.746298 212.959081 
L 297.672654 221.129753 
L 298.135832 220.79021 
L 298.599011 218.997912 
L 299.062189 216.187415 
L 299.525367 216.900962 
L 299.988545 219.733375 
L 300.451723 218.251928 
L 300.914901 214.496189 
L 301.37808 213.918749 
L 301.841258 213.582378 
L 302.304436 221.09977 
L 302.767614 221.280429 
L 303.230792 218.914006 
L 303.69397 218.847251 
L 304.157149 219.373653 
L 304.620327 221.340122 
L 305.083505 218.922948 
L 305.546683 214.593085 
L 306.009861 211.563723 
L 306.473039 209.793628 
L 306.936218 204.613681 
L 307.399396 201.961782 
L 307.862574 198.393188 
L 308.325752 196.13144 
L 308.78893 189.111758 
L 309.252108 183.938154 
L 309.715287 183.357543 
L 310.641643 198.750758 
L 311.567999 212.627779 
L 312.031177 216.935151 
L 312.957534 226.647393 
L 313.420712 228.670958 
L 314.810246 222.196565 
L 315.736603 213.708124 
L 316.199781 213.175092 
L 316.662959 210.152075 
L 317.126137 208.724551 
L 317.589315 208.162971 
L 318.052494 210.059657 
L 318.515672 213.26319 
L 318.97885 218.772734 
L 319.442028 217.402305 
L 319.905206 218.052413 
L 320.368384 222.56279 
L 320.831563 222.182012 
L 321.294741 225.870854 
L 321.757919 228.655687 
L 322.221097 222.286256 
L 322.684275 218.48611 
L 323.147453 213.4489 
L 323.610632 202.822704 
L 324.536988 189.328917 
L 325.000166 185.845966 
L 325.926522 195.694602 
L 326.389701 203.015333 
L 326.852879 217.62839 
L 327.316057 226.240107 
L 328.242413 238.359864 
L 328.705591 237.66189 
L 329.16877 244.560751 
L 329.631948 241.826381 
L 330.095126 235.983495 
L 330.558304 232.858975 
L 331.48466 223.120783 
L 331.947839 219.856697 
L 332.411017 211.967899 
L 333.337373 192.81217 
L 333.800551 187.143741 
L 334.263729 185.903363 
L 334.726907 186.312402 
L 335.190086 189.173363 
L 335.653264 189.173219 
L 336.57962 199.656247 
L 337.042798 202.171464 
L 337.505976 200.166645 
L 337.969155 196.395046 
L 338.432333 197.844486 
L 338.895511 192.074555 
L 339.358689 189.308466 
L 339.821867 183.300638 
L 340.285045 184.134718 
L 340.748224 181.793672 
L 341.211402 180.340772 
L 341.67458 168.046128 
L 342.137758 171.287723 
L 342.600936 181.209458 
L 343.064114 185.875261 
L 343.527293 185.957589 
L 343.990471 188.415711 
L 344.453649 186.686852 
L 344.916827 195.013093 
L 345.380005 194.343666 
L 345.843183 186.724485 
L 346.306362 182.220164 
L 346.76954 180.408834 
L 347.232718 182.010528 
L 347.695896 185.578835 
L 348.159074 184.382864 
L 348.622252 185.578548 
L 349.085431 183.805281 
L 349.548609 187.563905 
L 350.011787 189.213179 
L 350.474965 187.830063 
L 350.938143 190.285013 
L 351.401321 195.648647 
L 351.8645 192.670037 
L 352.327678 198.046359 
L 352.790856 198.391958 
L 353.254034 197.364101 
L 353.717212 201.268636 
L 354.18039 207.44429 
L 354.643569 203.542641 
L 355.106747 209.261534 
L 355.569925 208.224161 
L 356.033103 210.913836 
L 356.496281 208.633056 
L 357.422638 205.235605 
L 357.885816 209.615932 
L 358.348994 210.170881 
L 359.27535 217.456577 
L 359.738528 219.41353 
L 360.201707 219.016892 
L 360.664885 220.64079 
L 361.591241 219.647681 
L 362.054419 222.47375 
L 362.517597 217.328694 
L 363.443954 226.36531 
L 363.907132 226.913915 
L 364.37031 227.976377 
L 364.833488 226.954863 
L 367.149379 218.977251 
L 367.612557 218.101647 
L 368.075735 216.734391 
L 368.538914 207.611702 
L 369.46527 199.925766 
L 369.928448 197.381714 
L 370.391626 197.892255 
L 370.854804 198.935685 
L 371.317983 198.834039 
L 371.781161 204.131062 
L 372.244339 203.474324 
L 372.707517 208.470011 
L 373.170695 214.886734 
L 373.633873 216.24736 
L 374.097052 217.068753 
L 374.56023 228.547918 
L 375.486586 244.375691 
L 375.949764 246.906769 
L 376.412942 245.688594 
L 376.876121 246.218167 
L 377.339299 244.419525 
L 377.802477 239.578976 
L 378.265655 236.311718 
L 378.728833 240.339959 
L 379.192011 239.007594 
L 379.65519 240.15887 
L 380.581546 254.641734 
L 381.507902 251.361645 
L 381.97108 243.650476 
L 382.434259 242.793905 
L 382.897437 238.75269 
L 383.823793 236.417843 
L 385.213328 225.673998 
L 385.676506 220.782698 
L 386.139684 220.80793 
L 386.602862 215.713626 
L 387.529218 228.531213 
L 388.455575 243.048968 
L 388.918753 247.026457 
L 389.381931 252.50111 
L 389.845109 254.001302 
L 390.308287 247.64773 
L 390.771466 245.347919 
L 391.234644 240.602529 
L 391.697822 232.412395 
L 392.161 231.133954 
L 392.624178 221.985889 
L 393.087356 222.54401 
L 393.550535 222.064901 
L 394.013713 218.505823 
L 394.476891 212.688313 
L 394.940069 214.876819 
L 395.403247 210.391529 
L 395.866425 209.011585 
L 396.329604 210.584732 
L 396.792782 208.307124 
L 397.25596 210.045212 
L 397.719138 212.763435 
L 398.182316 210.406528 
L 399.108673 215.243474 
L 399.571851 211.151508 
L 400.035029 211.503451 
L 400.498207 212.286781 
L 400.961385 213.812348 
L 401.424563 220.796852 
L 401.887742 223.952804 
L 402.35092 232.770698 
L 402.814098 232.71346 
L 403.277276 233.224001 
L 403.740454 227.701482 
L 404.203632 225.090819 
L 404.666811 217.500185 
L 405.129989 212.621573 
L 405.593167 202.442623 
L 406.519523 193.192913 
L 406.982701 196.022154 
L 407.44588 198.06475 
L 407.909058 198.908347 
L 408.372236 201.163464 
L 409.76177 222.865556 
L 410.224949 224.419671 
L 410.688127 223.724869 
L 411.151305 225.643759 
L 411.614483 226.369994 
L 412.540839 215.188562 
L 413.004018 212.822139 
L 413.467196 213.634017 
L 414.393552 217.211696 
L 414.85673 212.015889 
L 415.783087 218.1914 
L 416.246265 217.06204 
L 416.709443 214.816152 
L 417.172621 214.622519 
L 417.635799 214.060939 
L 418.098977 219.250116 
L 419.025334 215.757649 
L 419.488512 213.461009 
L 419.95169 213.324472 
L 420.878046 191.922998 
L 421.341225 186.730363 
L 421.804403 179.514019 
L 422.267581 177.372806 
L 423.193937 167.926434 
L 424.120294 178.412633 
L 424.583472 176.607647 
L 425.04665 176.969106 
L 425.509828 179.075142 
L 425.973006 177.603211 
L 426.436184 174.913249 
L 426.899363 173.86636 
L 427.825719 169.355551 
L 428.288897 168.752736 
L 428.752075 163.353924 
L 429.215253 165.285501 
L 429.678432 169.301054 
L 430.14161 164.993394 
L 430.604788 167.248512 
L 431.531144 176.275611 
L 431.994322 180.773301 
L 432.4575 179.704209 
L 432.920679 180.335284 
L 433.383857 176.389228 
L 433.847035 170.847677 
L 434.310213 169.734177 
L 435.236569 163.821364 
L 435.699748 163.925896 
L 436.162926 158.926749 
L 436.626104 167.833458 
L 437.089282 172.797426 
L 437.55246 175.115982 
L 438.015638 179.160083 
L 439.405173 182.674323 
L 439.868351 179.337282 
L 440.331529 177.411761 
L 440.794707 171.62597 
L 441.257886 162.278072 
L 441.721064 155.832514 
L 442.184242 152.048227 
L 442.64742 152.59366 
L 443.110598 157.094522 
L 443.573776 153.113574 
L 444.036955 160.412101 
L 444.500133 164.30712 
L 444.963311 164.360899 
L 445.426489 164.868269 
L 445.889667 162.045085 
L 446.352845 166.16214 
L 446.816024 171.322769 
L 447.279202 165.061184 
L 447.74238 164.220472 
L 448.205558 164.734186 
L 448.668736 168.273945 
L 449.131914 174.132404 
L 449.595093 177.269325 
L 450.058271 181.573526 
L 450.984627 193.693283 
L 451.447805 194.670102 
L 451.910983 197.654769 
L 452.374162 202.843945 
L 452.83734 202.323601 
L 453.300518 201.114942 
L 453.763696 201.796769 
L 454.226874 197.324168 
L 454.690052 200.162925 
L 455.616409 195.214387 
L 456.079587 195.445796 
L 456.542765 196.987223 
L 457.005943 199.930655 
L 457.469121 206.172921 
L 457.9323 209.509675 
L 458.395478 207.692001 
L 458.858656 199.232251 
L 459.321834 194.30606 
L 459.785012 193.4368 
L 460.24819 190.02046 
L 460.711369 188.133003 
L 461.174547 187.19396 
L 462.100903 194.89201 
L 462.564081 192.67467 
L 463.027259 192.198733 
L 463.953616 187.576906 
L 464.416794 185.394457 
L 464.879972 180.741054 
L 465.34315 182.022381 
L 465.806328 182.380668 
L 466.269507 177.54012 
L 466.732685 182.006091 
L 467.195863 184.908287 
L 467.659041 185.942201 
L 468.122219 189.504164 
L 468.585397 188.492167 
L 469.511754 196.196561 
L 469.974932 198.280392 
L 471.364466 209.055096 
L 471.827645 218.301204 
L 472.290823 224.362669 
L 472.754001 228.146669 
L 473.680357 220.860399 
L 474.143535 213.742386 
L 474.606714 210.002507 
L 475.069892 200.803691 
L 475.53307 198.066149 
L 475.996248 200.7812 
L 476.459426 205.634149 
L 477.385783 205.450032 
L 478.775317 218.939931 
L 479.238495 221.32827 
L 479.701673 218.9333 
L 480.164852 214.984071 
L 480.62803 218.273246 
L 481.091208 220.249231 
L 482.017564 213.622728 
L 482.480742 211.262649 
L 482.943921 206.555323 
L 483.407099 211.792079 
L 483.870277 215.300119 
L 484.333455 217.678942 
L 484.796633 221.342408 
L 485.259811 230.655127 
L 485.72299 230.153815 
L 486.186168 232.554842 
L 486.649346 232.659373 
L 487.112524 226.765735 
L 487.575702 223.108327 
L 488.502059 204.853433 
L 488.965237 203.844608 
L 489.428415 197.459317 
L 489.891593 193.636967 
L 490.354771 197.259197 
L 490.817949 199.082928 
L 492.670662 222.611923 
L 493.13384 225.295254 
L 493.597018 222.269065 
L 494.060197 216.191454 
L 494.986553 207.880642 
L 495.449731 201.764968 
L 495.912909 200.397711 
L 496.376087 198.567349 
L 496.839266 199.57906 
L 497.302444 206.858555 
L 497.765622 209.643389 
L 498.2288 209.912862 
L 498.691978 214.775327 
L 499.618335 219.650336 
L 500.081513 220.769893 
L 500.544691 214.892115 
L 501.007869 214.336879 
L 501.471047 210.527217 
L 501.934225 204.068971 
L 502.860582 193.931113 
L 503.32376 190.765357 
L 503.786938 194.34318 
L 504.250116 195.465909 
L 504.713294 197.943063 
L 505.176473 198.707361 
L 505.639651 198.66281 
L 506.102829 194.320259 
L 507.029185 188.921303 
L 507.492363 189.289107 
L 507.955542 190.437211 
L 508.41872 190.874798 
L 508.881898 188.559126 
L 509.345076 193.082192 
L 509.808254 192.58088 
L 510.271432 193.335662 
L 511.197789 183.651393 
L 511.660967 184.929548 
L 512.124145 192.564302 
L 512.587323 189.071835 
L 513.050501 190.197736 
L 513.51368 195.409116 
L 513.976858 196.779258 
L 514.440036 200.766263 
L 514.903214 199.234065 
L 515.366392 198.402869 
L 516.755927 211.515591 
L 517.219105 212.965032 
L 517.682283 213.250364 
L 518.608639 226.607184 
L 519.071818 226.05512 
L 519.534996 226.118416 
L 519.998174 214.537461 
L 520.461352 215.054346 
L 520.92453 209.224148 
L 521.387708 201.665233 
L 521.850887 190.696466 
L 522.314065 190.28714 
L 522.777243 190.052272 
L 523.240421 196.018578 
L 523.703599 195.209586 
L 524.166777 196.008775 
L 524.629956 197.185427 
L 525.093134 201.140713 
L 525.556312 209.730226 
L 526.01949 208.029914 
L 526.482668 206.887866 
L 526.945846 206.335803 
L 527.409025 203.947176 
L 527.872203 203.077917 
L 528.335381 200.635367 
L 528.798559 191.344565 
L 529.261737 189.815539 
L 529.724915 186.43409 
L 530.651272 183.769504 
L 531.11445 178.529289 
L 531.577628 182.173723 
L 532.040806 184.577922 
L 532.967162 203.504696 
L 533.893519 212.316103 
L 534.356697 221.533663 
L 534.819875 222.488279 
L 535.283053 224.03605 
L 535.746231 219.293832 
L 536.20941 204.785162 
L 536.672588 202.720075 
L 537.135766 204.432788 
L 537.598944 204.023462 
L 538.062122 207.084256 
L 538.5253 201.228682 
L 538.988479 189.146558 
L 539.451657 194.83056 
L 539.914835 194.814557 
L 540.841191 191.309258 
L 541.304369 186.084903 
L 541.767548 191.775249 
L 542.230726 209.664937 
L 542.693904 211.2476 
L 543.62026 206.457659 
L 544.083438 210.035482 
L 544.546617 210.117809 
L 545.009795 209.676764 
L 545.472973 200.531871 
L 545.936151 206.038244 
L 546.399329 209.689021 
L 546.862507 217.491889 
L 547.325686 221.704103 
L 547.788864 224.279588 
L 548.252042 229.605159 
L 548.71522 232.050593 
L 549.178398 228.808711 
L 549.641576 230.911574 
L 550.104755 222.76902 
L 550.567933 210.15718 
L 551.031111 208.114296 
L 551.494289 200.97408 
L 551.957467 198.591798 
L 552.420645 195.565608 
L 552.883824 191.020052 
L 553.347002 196.618411 
L 553.81018 197.82361 
L 554.273358 193.259022 
L 555.199714 188.047212 
L 555.662893 184.050404 
L 556.126071 186.127892 
L 556.589249 180.351616 
L 557.052427 183.57418 
L 557.978783 192.826489 
L 558.441962 194.853225 
L 558.90514 200.099497 
L 560.294674 201.875505 
L 560.757852 202.985546 
L 561.221031 207.936826 
L 561.684209 204.844025 
L 562.147387 202.937536 
L 563.073743 188.301845 
L 563.536921 175.566298 
L 564.0001 176.75881 
L 564.463278 169.780363 
L 564.926456 170.852341 
L 565.389634 172.390596 
L 566.31599 184.840236 
L 566.779169 201.483346 
L 567.242347 197.131279 
L 567.705525 202.659854 
L 568.168703 205.619146 
L 568.631881 209.457069 
L 569.558238 204.524391 
L 570.021416 206.478172 
L 570.484594 211.68638 
L 571.41095 200.606451 
L 571.874128 196.793616 
L 572.337307 198.496813 
L 572.800485 199.073966 
L 573.263663 194.890012 
L 573.726841 194.169835 
L 574.190019 196.415436 
L 574.653197 197.899768 
L 575.116376 196.694282 
L 576.042732 192.075627 
L 576.50591 192.05328 
L 576.969088 191.241115 
L 577.432266 188.586045 
L 577.895445 191.538992 
L 578.821801 195.443383 
L 579.284979 198.003008 
L 579.748157 197.431912 
L 580.211335 198.76399 
L 580.674514 199.150826 
L 581.137692 198.110281 
L 582.064048 204.530032 
L 582.527226 202.312692 
L 583.453583 200.996043 
L 583.916761 201.189389 
L 584.843117 193.297276 
L 585.306295 188.70414 
L 585.769473 188.161592 
L 586.232652 187.0132 
L 586.69583 187.647448 
L 587.159008 186.194549 
L 587.622186 189.464692 
L 588.548542 202.694633 
L 589.011721 207.125712 
L 589.474899 209.862967 
L 590.401255 208.816078 
L 590.864433 213.370863 
L 591.327611 213.900436 
L 592.253968 207.575269 
L 592.717146 200.888642 
L 593.180324 197.196342 
L 593.643502 192.146445 
L 594.10668 189.06316 
L 594.569859 189.167691 
L 595.033037 188.504609 
L 595.496215 188.168238 
L 595.959393 194.876782 
L 596.422571 193.195501 
L 596.885749 195.95496 
L 597.348928 195.260158 
L 597.812106 195.535975 
L 598.275284 193.784911 
L 598.738462 193.296287 
L 599.20164 190.279613 
L 599.664818 194.02555 
L 600.127997 190.133416 
L 600.591175 188.195208 
L 601.517531 183.782873 
L 601.980709 178.469704 
L 602.443887 181.029329 
L 602.907066 180.109318 
L 603.370244 179.830042 
L 603.833422 181.371469 
L 604.2966 175.963141 
L 604.759778 175.715585 
L 605.222956 174.747995 
L 605.686135 169.2794 
L 606.149313 169.697954 
L 606.612491 172.584291 
L 607.075669 178.823385 
L 607.538847 192.852802 
L 608.002025 196.151493 
L 608.465204 196.719129 
L 608.928382 197.889438 
L 609.39156 202.789966 
L 610.317916 192.411039 
L 610.781094 182.292356 
L 611.244273 177.654813 
L 612.170629 173.442169 
L 612.633807 159.685253 
L 613.096985 153.391948 
L 613.560163 149.601318 
L 614.023342 151.203012 
L 614.48652 151.704037 
L 614.949698 153.042459 
L 615.412876 149.98455 
L 616.339232 158.678595 
L 616.802411 161.79014 
L 617.265589 160.048593 
L 617.728767 157.580667 
L 618.191945 162.953817 
L 618.655123 170.074715 
L 619.118301 169.738344 
L 619.58148 168.469418 
L 620.044658 166.318689 
L 620.507836 167.159114 
L 620.971014 166.470656 
L 621.434192 167.872517 
L 621.89737 167.910437 
L 622.360549 171.713468 
L 623.286905 185.77129 
L 623.750083 187.217559 
L 624.213261 195.48036 
L 624.676439 196.52379 
L 625.602796 191.070911 
L 626.065974 190.528363 
L 626.529152 186.487148 
L 626.99233 185.862129 
L 627.455508 182.211064 
L 627.918686 181.896897 
L 628.381865 182.832481 
L 628.845043 184.618148 
L 629.308221 185.623515 
L 630.234577 193.730747 
L 630.697755 200.410743 
L 631.160934 198.735807 
L 631.624112 198.872058 
L 632.08729 201.986775 
L 632.550468 202.180121 
L 633.013646 203.905521 
L 633.476824 203.369317 
L 633.940003 203.115417 
L 634.403181 207.09925 
L 634.866359 216.697446 
L 635.792715 225.328051 
L 636.255893 223.688006 
L 636.719072 225.790869 
L 637.18225 227.005585 
L 637.645428 227.763539 
L 638.108606 222.209301 
L 639.034962 208.620354 
L 639.498141 212.648595 
L 639.961319 222.516406 
L 640.424497 217.425274 
L 640.887675 213.831304 
L 641.350853 208.00745 
L 641.814031 209.098459 
L 642.27721 211.217182 
L 642.740388 208.054598 
L 643.203566 197.14927 
L 643.666744 197.957976 
L 644.129922 195.686712 
L 644.5931 203.096257 
L 645.056279 206.877085 
L 645.519457 206.461416 
L 645.982635 203.876128 
L 646.908991 209.762991 
L 647.372169 209.645486 
L 647.835348 206.704939 
L 648.298526 208.217818 
L 648.761704 207.332699 
L 649.224882 211.700339 
L 649.68806 206.881995 
L 650.151238 191.240936 
L 650.614417 190.355817 
L 651.077595 185.347155 
L 651.540773 183.424806 
L 652.003951 178.615978 
L 652.467129 166.714656 
L 652.930307 160.265926 
L 653.393486 171.542086 
L 653.856664 172.595031 
L 654.319842 171.037458 
L 654.78302 163.951165 
L 655.246198 163.424476 
L 655.709376 164.544033 
L 656.172555 168.140888 
L 656.635733 169.380979 
L 657.098911 166.199364 
L 657.562089 163.956648 
L 658.025267 170.351167 
L 658.488445 172.222478 
L 658.951624 179.241873 
L 659.414802 184.316859 
L 659.87798 183.844094 
L 660.341158 190.50823 
L 660.804336 199.843153 
L 661.267514 195.113623 
L 661.730693 195.516318 
L 662.193871 193.49881 
L 662.657049 189.251418 
L 663.120227 186.834244 
L 663.583405 182.063479 
L 664.046583 176.030275 
L 664.509762 174.894571 
L 665.436118 172.204466 
L 665.899296 167.379777 
L 666.362474 166.012521 
L 666.825652 167.940927 
L 667.288831 162.954468 
L 667.752009 162.218431 
L 668.215187 159.290572 
L 668.678365 153.894932 
L 669.604721 163.933885 
L 670.0679 164.009869 
L 670.531078 175.263825 
L 670.994256 177.864685 
L 671.920612 194.282442 
L 672.38379 194.517024 
L 672.846969 193.968132 
L 673.310147 194.453298 
L 673.773325 193.558663 
L 674.236503 195.169873 
L 674.699681 189.288923 
L 675.162859 187.560063 
L 675.626038 191.277452 
L 676.089216 196.092338 
L 676.552394 199.384685 
L 677.015572 198.791386 
L 677.47875 204.7228 
L 677.941928 208.992109 
L 678.405107 209.004653 
L 679.794641 193.201538 
L 680.257819 187.155647 
L 680.720997 178.039302 
L 681.184176 177.924968 
L 681.647354 180.83668 
L 682.110532 180.677939 
L 682.57371 178.466942 
L 683.036888 178.352608 
L 683.500066 176.750627 
L 683.963245 178.127112 
L 684.426423 176.258687 
L 684.889601 170.257203 
L 685.352779 168.705973 
L 685.815957 170.329871 
L 686.279135 175.220883 
L 687.66867 193.29743 
L 688.595026 204.90333 
L 689.058204 205.248929 
L 689.521383 208.741109 
L 689.984561 207.681533 
L 690.447739 201.832302 
L 690.910917 199.90361 
L 691.374095 196.315984 
L 692.300452 184.795153 
L 692.76363 183.17414 
L 693.226808 182.993195 
L 693.689986 185.092886 
L 694.153164 184.724796 
L 695.079521 195.44572 
L 695.542699 199.721373 
L 696.005877 201.392851 
L 696.469055 198.601386 
L 696.932233 202.708925 
L 697.395411 208.735498 
L 697.85859 208.947876 
L 698.321768 209.715346 
L 698.784946 211.710362 
L 699.248124 205.550281 
L 699.711302 213.54981 
L 700.17448 211.583054 
L 700.637659 205.448348 
L 701.100837 203.399121 
L 701.564015 199.57677 
L 702.490371 211.208046 
L 702.953549 204.464324 
L 703.416728 203.899572 
L 703.879906 208.568548 
L 704.343084 207.975249 
L 704.806262 210.794974 
L 705.26944 206.436563 
L 705.732618 211.099195 
L 706.195797 214.531108 
L 706.658975 214.274036 
L 707.122153 210.708614 
L 707.585331 211.679089 
L 708.048509 210.575105 
L 708.511687 211.735897 
L 708.974866 206.555949 
L 709.438044 207.155306 
L 709.901222 206.222607 
L 710.3644 199.237817 
L 710.827578 198.61597 
L 711.290756 203.126348 
L 711.753935 201.809843 
L 712.217113 197.82255 
L 712.680291 198.320404 
L 713.606647 208.962029 
L 714.533004 200.276927 
L 714.996182 193.196978 
L 715.45936 194.614699 
L 715.922538 186.62757 
L 717.312073 176.273875 
L 717.775251 170.944846 
L 718.238429 175.566242 
L 718.701607 167.338045 
L 719.164785 167.598002 
L 719.627963 165.234751 
L 720.091142 164.435275 
L 720.55432 165.494565 
L 721.480676 152.235502 
L 721.943854 150.459063 
L 722.407032 147.57244 
L 723.796567 122.608716 
L 724.259745 118.932276 
L 724.722923 116.239142 
L 725.186101 111.791916 
L 726.112458 105.888619 
L 726.575636 106.744904 
L 727.038814 109.831073 
L 727.501992 116.019416 
L 727.96517 111.622941 
L 728.428348 115.930314 
L 728.891527 117.303628 
L 729.354705 121.005157 
L 729.817883 119.675964 
L 730.281061 120.37365 
L 730.744239 119.590034 
L 731.207417 120.379707 
L 731.670596 120.347844 
L 732.133774 122.469739 
L 732.596952 119.560912 
L 733.06013 124.083978 
L 733.986486 118.466157 
L 734.449665 120.962343 
L 734.912843 115.033814 
L 735.376021 114.132835 
L 735.839199 115.63937 
L 736.302377 111.918523 
L 736.765555 109.383986 
L 737.228734 103.890015 
L 738.15509 114.560188 
L 738.618268 111.625985 
L 739.081446 111.63853 
L 739.544624 114.198155 
L 740.470981 131.199551 
L 740.934159 134.809094 
L 742.323693 142.535548 
L 743.713228 154.398233 
L 744.176406 145.281888 
L 744.639584 143.784581 
L 745.102762 140.504635 
L 745.565941 135.613336 
L 746.029119 127.61352 
L 746.955475 101.508035 
L 747.418653 100.277173 
L 747.881831 98.208914 
L 748.34501 95.376214 
L 748.808188 88.36922 
L 749.271366 90.192951 
L 749.734544 85.771101 
L 750.197722 96.752269 
L 750.6609 94.893359 
L 751.124079 91.385032 
L 751.587257 95.521119 
L 752.050435 102.540515 
L 752.513613 98.153556 
L 752.976791 104.332383 
L 753.439969 104.611371 
L 753.903148 106.796705 
L 754.366326 110.152491 
L 754.829504 106.24767 
L 755.292682 100.947188 
L 755.75586 100.11282 
L 756.219038 97.235713 
L 756.682217 85.990986 
L 757.145395 82.85695 
L 757.608573 74.676332 
L 758.071751 74.374852 
L 758.534929 77.089903 
L 758.998107 77.438675 
L 759.461286 78.110986 
L 759.924464 82.884636 
L 760.387642 83.25244 
L 760.85082 88.02609 
L 761.777176 94.639331 
L 762.240355 96.916652 
L 762.703533 96.881617 
L 763.166711 94.255094 
L 763.629889 94.775151 
L 764.093067 97.66466 
L 764.556245 94.08655 
L 765.482602 89.201594 
L 765.94578 90.184757 
L 766.408958 103.278448 
L 767.335314 119.344118 
L 767.798493 116.333788 
L 768.261671 119.302595 
L 768.724849 123.809801 
L 769.188027 123.892129 
L 769.651205 111.064595 
L 770.114383 107.324716 
L 770.577562 96.416216 
L 771.04074 98.959981 
L 771.503918 100.285715 
L 771.967096 98.667874 
L 772.430274 107.574583 
L 772.893452 112.592474 
L 773.356631 114.860279 
L 773.819809 127.344954 
L 775.209343 146.839365 
L 775.672521 146.807502 
L 776.598878 157.401548 
L 777.062056 158.25466 
L 777.525234 160.040328 
L 777.988412 157.724657 
L 778.45159 157.645214 
L 778.914769 153.172613 
L 779.377947 152.693504 
L 779.841125 145.876827 
L 780.304303 145.502393 
L 781.693838 135.07603 
L 782.620194 131.751533 
L 783.54655 117.721685 
L 784.009728 117.705682 
L 784.472907 113.255284 
L 784.936085 119.538786 
L 785.399263 120.959678 
L 785.862441 116.125474 
L 786.325619 119.78894 
L 786.788797 125.736214 
L 787.251976 128.229228 
L 787.715154 129.894361 
L 788.178332 129.637289 
L 788.64151 132.133475 
L 789.104688 131.892263 
L 789.567866 127.413318 
L 790.494223 108.647739 
L 791.420579 103.737264 
L 791.883757 95.344126 
L 792.346935 94.731795 
L 792.810114 99.121638 
L 793.73647 115.133385 
L 794.199648 113.52506 
L 794.662826 114.727087 
L 795.589183 127.652521 
L 796.052361 127.642862 
L 796.515539 120.683447 
L 796.978717 122.20267 
L 797.441895 125.650443 
L 797.905073 124.784355 
L 798.368252 119.049316 
L 798.83143 116.882726 
L 799.294608 120.723821 
L 799.757786 128.08896 
L 800.220964 126.255426 
L 800.684142 128.326569 
L 801.147321 131.549133 
L 801.610499 135.583718 
L 802.073677 136.125979 
L 802.536855 130.175246 
L 803.000033 127.342546 
L 803.463211 127.240899 
L 803.92639 121.442421 
L 804.852746 117.521596 
L 805.315924 120.312774 
L 805.779102 123.827158 
L 806.705459 117.470271 
L 807.168637 114.796168 
L 807.631815 114.46297 
L 808.094993 114.672175 
L 808.558171 110.044148 
L 809.021349 108.489746 
L 809.947706 116.730201 
L 810.410884 123.127892 
L 810.874062 123.540103 
L 811.33724 119.448137 
L 812.263597 130.917642 
L 812.726775 136.839541 
L 813.653131 129.60085 
L 814.116309 127.900538 
L 814.579487 129.901899 
L 815.042666 126.897913 
L 815.969022 118.510975 
L 816.4322 122.507496 
L 817.358556 136.175167 
L 817.821735 137.884708 
L 818.284913 140.336486 
L 818.748091 144.345695 
L 819.211269 146.394635 
L 819.674447 144.551585 
L 820.137625 140.856113 
L 820.600804 132.757966 
L 821.52716 143.018957 
L 821.990338 143.621485 
L 822.453516 144.953563 
L 823.379873 157.013052 
L 823.843051 166.976022 
L 824.306229 173.294415 
L 824.769407 174.534506 
L 825.232585 176.868923 
L 825.695763 176.427877 
L 826.158941 172.516712 
L 826.62212 170.714898 
L 827.085298 170.315088 
L 828.011654 163.396765 
L 828.474832 164.329176 
L 828.93801 164.141887 
L 829.401189 168.290662 
L 829.864367 168.509384 
L 830.790723 159.849657 
L 831.253901 162.472721 
L 831.717079 158.815313 
L 832.643436 162.478778 
L 833.106614 162.161439 
L 833.569792 158.056785 
L 834.03297 158.161316 
L 834.496148 155.924943 
L 834.959327 147.579384 
L 835.422505 144.308954 
L 835.885683 139.214649 
L 836.348861 135.747558 
L 836.812039 139.344412 
L 837.275217 139.347441 
L 837.738396 137.586862 
L 839.12793 155.168583 
L 839.591108 157.414184 
L 840.054286 159.031738 
L 840.517465 155.469488 
L 840.980643 158.853822 
L 841.443821 157.496081 
L 841.906999 153.442178 
L 842.833355 139.279108 
L 843.296534 134.87629 
L 843.759712 135.161622 
L 844.22289 137.829094 
L 844.686068 138.082707 
L 845.149246 143.744504 
L 845.612424 144.622993 
L 846.075603 153.079284 
L 846.538781 157.60235 
L 847.001959 166.620077 
L 847.465137 162.743803 
L 847.928315 164.954513 
L 848.391493 161.677739 
L 849.31785 168.370279 
L 849.781028 166.482822 
L 850.244206 161.724744 
L 850.707384 164.243134 
L 851.170562 161.22646 
L 852.096919 166.618499 
L 853.023275 152.63623 
L 853.486453 154.444101 
L 853.949631 159.287534 
L 854.41281 166.487731 
L 855.339166 164.130824 
L 855.802344 161.041196 
L 856.265522 168.438053 
L 857.655057 168.085823 
L 858.118235 166.620236 
L 859.044591 158.376035 
L 859.507769 157.233988 
L 859.970948 157.750873 
L 860.434126 152.653396 
L 861.360482 159.831246 
L 861.82366 159.203055 
L 862.286838 153.721772 
L 862.750017 156.826973 
L 863.213195 161.787769 
L 863.676373 169.130703 
L 864.139551 179.144424 
L 864.602729 176.892192 
L 865.065907 179.807076 
L 865.529086 186.756688 
L 865.992264 187.498783 
L 866.455442 189.636537 
L 866.91862 189.182804 
L 867.381798 192.433916 
L 867.844976 198.692041 
L 868.308155 202.720282 
L 868.771333 203.56705 
L 869.234511 205.669914 
L 869.697689 202.776946 
L 870.160867 204.407188 
L 870.624045 199.845772 
L 871.550402 197.707587 
L 872.01358 198.896927 
L 872.476758 200.907804 
L 872.939936 201.275607 
L 873.403114 196.06394 
L 873.866293 192.111539 
L 874.329471 195.765489 
L 874.792649 201.157671 
L 875.255827 203.257362 
L 876.182183 195.377937 
L 876.645362 201.150753 
L 877.10854 201.41071 
L 877.571718 195.069826 
L 878.034896 192.922269 
L 878.498074 182.016941 
L 878.961252 180.906613 
L 879.424431 179.488605 
L 879.887609 172.833698 
L 880.350787 172.640065 
L 880.813965 173.366299 
L 881.277143 170.876171 
L 881.740321 178.152494 
L 882.2035 177.556023 
L 882.666678 187.636355 
L 883.129856 191.78513 
L 883.593034 199.118549 
L 884.056212 201.839944 
L 884.51939 200.973856 
L 884.982569 205.538157 
L 885.445747 212.560724 
L 885.908925 209.544051 
L 886.372103 199.923365 
L 886.835281 199.244423 
L 887.298459 197.356965 
L 887.761638 204.474691 
L 888.687994 204.065365 
L 889.151172 205.609964 
L 889.61435 210.868924 
L 890.077528 224.346421 
L 890.540707 223.378831 
L 891.003885 226.388874 
L 891.467063 222.328627 
L 891.930241 220.123974 
L 892.393419 219.210307 
L 892.856597 217.034202 
L 893.319776 216.767614 
L 893.782954 211.854111 
L 894.246132 213.792032 
L 894.70931 217.506249 
L 895.172488 218.962034 
L 895.635666 225.537355 
L 896.562023 229.971462 
L 897.025201 229.63192 
L 897.488379 225.457482 
L 897.951557 222.336134 
L 898.414735 221.828478 
L 898.877914 215.471734 
L 899.80427 205.651072 
L 900.267448 212.978147 
L 900.730626 212.375331 
L 901.193804 207.439624 
L 902.120161 203.474393 
L 902.583339 203.065067 
L 903.046517 203.312336 
L 903.509695 199.72471 
L 903.972873 207.70838 
L 904.436052 208.32994 
L 904.89923 202.921611 
L 905.362408 205.50344 
L 905.825586 202.781758 
L 906.288764 203.688794 
L 906.751942 198.121868 
L 907.215121 187.777976 
L 907.678299 183.168981 
L 908.141477 196.979534 
L 909.067833 192.237316 
L 909.531011 184.386582 
L 910.920546 183.411268 
L 911.846902 186.765674 
L 912.31008 192.40706 
L 912.773259 196.513219 
L 914.625971 192.312026 
L 915.089149 192.821188 
L 915.552328 201.149221 
L 919.720931 189.368433 
L 920.184109 187.255767 
L 922.963178 175.67164 
L 923.426356 167.34194 
L 923.889534 154.590534 
L 924.815891 145.467702 
L 928.521316 147.909964 
L 928.984494 143.64354 
L 929.447672 146.333215 
L 929.910851 143.065957 
L 930.374029 134.006708 
L 930.837207 117.58852 
L 931.300385 105.795045 
L 932.226741 89.611438 
L 932.68992 77.142336 
L 933.153098 68.625491 
L 934.079454 63.996084 
L 934.542632 67.169688 
L 935.00581 64.35464 
L 935.468989 62.849609 
L 935.932167 55.8 
L 937.321701 56.57919 
L 937.784879 59.861053 
L 938.248058 64.409907 
L 938.711236 63.496652 
L 939.637592 56.753611 
L 941.027127 65.012273 
L 941.490305 64.985374 
L 941.953483 64.200377 
L 942.416661 64.309872 
L 942.879839 68.431892 
L 943.343017 68.868098 
L 943.806196 74.668082 
L 944.269374 68.81568 
L 944.732552 70.537909 
L 945.19573 75.53994 
L 945.658908 76.358161 
L 946.122086 70.984724 
L 946.585265 74.204116 
L 947.048443 71.460231 
L 947.511621 76.972947 
L 947.974799 76.719047 
L 948.437977 71.469316 
L 948.901155 72.014749 
L 950.29069 75.564293 
L 950.753868 77.151919 
L 951.217046 72.043547 
L 951.680224 69.783591 
L 952.143403 69.667877 
L 952.606581 69.374534 
L 953.069759 74.766715 
L 953.532937 70.747704 
L 953.996115 72.155909 
L 954.459293 78.090495 
L 954.922472 85.709389 
L 955.38565 89.230117 
L 955.848828 87.206266 
L 956.312006 87.272733 
L 956.775184 96.528357 
L 957.238362 95.069114 
L 958.164719 85.654462 
L 958.627897 86.206239 
L 959.091075 89.552509 
L 959.554253 87.979075 
L 960.017431 82.90063 
L 960.48061 87.004998 
L 960.943788 87.141248 
L 961.406966 86.459134 
L 961.870144 85.282195 
L 962.333322 88.13364 
L 963.259679 99.178104 
L 963.722857 100.78297 
L 964.649213 117.210243 
L 965.112391 119.357514 
L 965.575569 120.607121 
L 966.038748 116.768911 
L 966.501926 115.601487 
L 966.965104 111.417534 
L 967.428282 104.730907 
L 967.89146 100.41056 
L 968.354638 99.484205 
L 968.817817 99.138319 
L 969.744173 89.216153 
L 970.207351 90.744893 
L 970.670529 90.966786 
L 971.133707 90.513053 
L 971.596886 90.224261 
L 972.060064 85.948321 
L 972.523242 85.618294 
L 972.98642 89.012144 
L 973.449598 89.456074 
L 973.912776 90.122041 
L 974.375955 86.813548 
L 974.839133 91.879018 
L 975.302311 90.587889 
L 976.228667 107.941373 
L 977.155024 105.476476 
L 977.618202 110.421412 
L 978.08138 109.745642 
L 978.544558 115.426471 
L 979.007736 112.317811 
L 979.470914 101.117491 
L 979.934093 100.990469 
L 980.860449 95.061797 
L 981.323627 96.831605 
L 981.786805 96.714099 
L 982.249983 96.409447 
L 982.713162 103.384435 
L 983.17634 106.955914 
L 983.639518 117.727733 
L 984.102696 118.634769 
L 984.565874 109.198056 
L 985.029052 105.470865 
L 985.492231 105.71179 
L 985.955409 104.065401 
L 986.418587 107.357748 
L 986.881765 104.588487 
L 987.344943 105.97766 
L 987.808121 105.197216 
L 988.2713 109.193737 
L 988.734478 110.142008 
L 989.197656 105.165066 
L 989.660834 95.281107 
L 990.124012 97.99933 
L 990.58719 103.201194 
L 991.050369 115.359158 
L 991.513547 110.807258 
L 991.976725 114.093261 
L 992.439903 118.613154 
L 992.903081 125.071113 
L 993.366259 123.583322 
L 993.829438 119.621406 
L 994.292616 119.821096 
L 994.755794 130.79592 
L 995.68215 129.745859 
L 996.145328 139.378946 
L 997.071685 151.901541 
L 997.534863 157.607746 
L 997.998041 159.624967 
L 998.461219 155.92315 
L 998.924397 157.705646 
L 999.387576 156.35425 
L 999.850754 161.546598 
L 1000.313932 162.276004 
L 1000.77711 161.467012 
L 1001.240288 160.029973 
L 1001.703466 165.399951 
L 1002.166645 169.244218 
L 1002.629823 163.753418 
L 1003.093001 163.661288 
L 1003.556179 167.02659 
L 1004.019357 168.571189 
L 1004.482535 170.677224 
L 1004.945714 170.347197 
L 1005.408892 168.957737 
L 1005.87207 177.651925 
L 1006.798426 168.456138 
L 1007.261604 171.735797 
L 1008.187961 165.413802 
L 1008.651139 168.179604 
L 1009.114317 165.346904 
L 1009.577495 172.480489 
L 1010.040673 173.270163 
L 1010.503852 175.810756 
L 1010.96703 180.251351 
L 1011.430208 183.194782 
L 1011.893386 183.42302 
L 1012.356564 184.409354 
L 1012.819742 174.956782 
L 1013.282921 167.845114 
L 1013.746099 163.131444 
L 1014.209277 163.898913 
L 1014.672455 160.679235 
L 1015.135633 160.958223 
L 1015.598811 159.686125 
L 1016.06199 162.965784 
L 1016.525168 173.7154 
L 1016.988346 170.594051 
L 1017.451524 165.347493 
L 1017.914702 170.692095 
L 1018.37788 167.386774 
L 1018.841059 165.721353 
L 1019.304237 159.742073 
L 1019.767415 149.163456 
L 1020.230593 150.026085 
L 1020.693771 147.554988 
L 1021.156949 142.755675 
L 1021.620127 141.651691 
L 1022.083306 135.789773 
L 1022.546484 134.108492 
L 1023.009662 135.532557 
L 1023.47284 140.502869 
L 1023.936018 149.263668 
L 1024.862375 146.24065 
L 1025.325553 147.991426 
L 1025.788731 156.647551 
L 1026.251909 169.96645 
L 1026.715087 179.139603 
L 1027.178265 177.379024 
L 1027.641444 177.550166 
L 1028.104622 182.542681 
L 1028.5678 181.353055 
L 1029.494156 174.977136 
L 1029.957334 170.888341 
L 1030.420513 173.349636 
L 1031.346869 161.962027 
L 1031.810047 167.963224 
L 1032.273225 170.221513 
L 1032.736403 166.231049 
L 1033.199582 155.788827 
L 1034.125938 153.904541 
L 1035.052294 167.102763 
L 1035.515472 160.064049 
L 1035.978651 159.134523 
L 1036.441829 165.053249 
L 1036.905007 178.689344 
L 1037.368185 182.035614 
L 1037.831363 180.662014 
L 1038.75772 179.716628 
L 1039.220898 180.791777 
L 1040.147254 179.906515 
L 1040.610432 177.654282 
L 1041.07361 177.892036 
L 1041.536789 171.28788 
L 1041.999967 172.229807 
L 1042.463145 171.934672 
L 1042.926323 175.658405 
L 1043.389501 168.508672 
L 1044.315858 160.182001 
L 1044.779036 159.718752 
L 1045.242214 158.497406 
L 1046.16857 165.789589 
L 1046.631748 161.570744 
L 1047.094927 164.774276 
L 1047.558105 166.236404 
L 1048.021283 163.67332 
L 1048.484461 170.870345 
L 1049.410817 155.327474 
L 1049.873996 153.63985 
L 1050.337174 153.347886 
L 1051.26353 157.623396 
L 1051.726708 154.613066 
L 1052.189886 156.871355 
L 1052.653065 158.273217 
L 1053.116243 160.138183 
L 1053.579421 163.408326 
L 1054.042599 169.098672 
L 1054.968955 173.586702 
L 1055.432134 182.299922 
L 1055.895312 183.476574 
L 1056.35849 187.235198 
L 1056.821668 183.346237 
L 1057.284846 176.862615 
L 1058.211203 178.698891 
L 1058.674381 171.320778 
L 1059.600737 176.766739 
L 1060.063915 175.269433 
L 1060.527093 178.571295 
L 1060.990272 171.120227 
L 1061.45345 169.521418 
L 1061.916628 170.380875 
L 1062.379806 166.974051 
L 1062.842984 160.15103 
L 1063.306162 159.497463 
L 1063.769341 157.058086 
L 1064.232519 161.761953 
L 1064.695697 158.136264 
L 1065.158875 160.578527 
L 1066.085231 159.347664 
L 1066.54841 157.244514 
L 1067.011588 162.890452 
L 1067.474766 160.895148 
L 1067.937944 160.273301 
L 1068.401122 166.724916 
L 1068.8643 164.33629 
L 1069.327479 170.778389 
L 1069.790657 173.195276 
L 1070.253835 171.688453 
L 1070.717013 173.083971 
L 1071.180191 175.465966 
L 1071.643369 176.366658 
L 1072.106548 175.754327 
L 1072.569726 173.73682 
L 1073.032904 179.699953 
L 1073.496082 178.189959 
L 1073.95926 178.434056 
L 1074.422438 175.112874 
L 1074.885617 168.949621 
L 1075.348795 169.729778 
L 1075.811973 164.683053 
L 1076.275151 156.756192 
L 1076.738329 158.554547 
L 1077.201507 156.210328 
L 1077.664686 156.305343 
L 1078.127864 157.678657 
L 1078.591042 155.251967 
L 1079.05422 158.779039 
L 1079.517398 165.420971 
L 1079.980576 166.480261 
L 1080.443755 166.879784 
L 1080.906933 163.764779 
L 1081.370111 163.123901 
L 1081.833289 166.333777 
L 1082.296467 163.907087 
L 1083.222824 150.302281 
L 1083.686002 147.161901 
L 1084.14918 147.050739 
L 1084.612358 142.416368 
L 1085.075536 141.988011 
L 1085.538714 137.128431 
L 1086.465071 142.320635 
L 1087.391427 153.526869 
L 1087.854605 163.981492 
L 1088.317783 169.224592 
L 1088.780962 178.733972 
L 1089.24414 177.055864 
L 1089.707318 178.917659 
L 1090.170496 171.83771 
L 1091.096852 160.377146 
L 1091.560031 159.615733 
L 1092.023209 158.150146 
L 1092.486387 159.935814 
L 1092.949565 162.910965 
L 1093.412743 174.726357 
L 1093.875921 176.572292 
L 1094.3391 175.871146 
L 1094.802278 172.353304 
L 1095.265456 171.737801 
L 1095.728634 171.601263 
L 1096.191812 170.608297 
L 1096.65499 166.532191 
L 1097.118169 168.809511 
L 1097.581347 168.685662 
L 1098.044525 172.637775 
L 1098.507703 169.437128 
L 1098.970881 168.900924 
L 1099.434059 165.154701 
L 1099.897238 163.711317 
L 1100.360416 163.184629 
L 1100.823594 169.80753 
L 1101.286772 167.371324 
L 1102.213128 173.061526 
L 1102.676307 174.22549 
L 1103.139485 176.594798 
L 1103.602663 181.003673 
L 1104.065841 173.54309 
L 1104.529019 174.611895 
L 1104.992197 178.659167 
L 1105.455376 179.718457 
L 1106.381732 190.702654 
L 1107.308088 190.721399 
L 1107.771266 180.802549 
L 1108.234445 175.60357 
L 1108.697623 175.409937 
L 1109.623979 157.938516 
L 1110.087157 148.286111 
L 1110.550335 151.407172 
L 1111.013514 160.938756 
L 1111.476692 161.788697 
L 1111.93987 156.282038 
L 1112.403048 162.720965 
L 1112.866226 167.234515 
L 1113.792583 181.238414 
L 1114.255761 185.666321 
L 1114.718939 186.364007 
L 1115.182117 188.895085 
L 1115.645295 187.765725 
L 1116.108473 187.790957 
L 1116.571652 186.468108 
L 1117.498008 177.763974 
L 1118.424364 192.925636 
L 1119.35072 185.115994 
L 1119.813899 185.458422 
L 1120.277077 186.073638 
L 1120.740255 186.149621 
L 1121.203433 179.443963 
L 1121.666611 174.641478 
L 1122.129789 175.83399 
L 1122.592968 180.052548 
L 1123.519324 181.251404 
L 1123.982502 180.252094 
L 1124.44568 162.384323 
L 1124.908858 158.75229 
L 1125.835215 164.880222 
L 1126.298393 166.459712 
L 1126.761571 166.488116 
L 1127.224749 167.591814 
L 1127.687927 187.099199 
L 1128.151106 187.08954 
L 1128.614284 179.578205 
L 1129.077462 180.212452 
L 1129.54064 177.928501 
L 1130.003818 179.409661 
L 1130.466996 184.92872 
L 1130.930175 182.606705 
L 1131.393353 184.392373 
L 1131.856531 188.23664 
L 1132.319709 185.635493 
L 1132.782887 186.574248 
L 1133.246065 186.088795 
L 1133.709244 178.656759 
L 1134.172422 182.402696 
L 1134.6356 183.12893 
L 1135.098778 183.62044 
L 1135.561956 186.230816 
L 1136.025134 182.655878 
L 1136.488313 180.724014 
L 1136.951491 176.613015 
L 1137.414669 170.329227 
L 1137.877847 170.684343 
L 1138.341025 166.484529 
L 1138.804203 163.972197 
L 1139.267382 167.191589 
L 1139.73056 165.700626 
L 1140.193738 169.243557 
L 1140.656916 177.99484 
L 1141.120094 178.283345 
L 1141.583272 182.394056 
L 1142.046451 184.059189 
L 1142.509629 184.040014 
L 1142.972807 194.094971 
L 1143.435985 196.055096 
L 1143.899163 189.49852 
L 1144.362341 186.132931 
L 1144.82552 183.78554 
L 1145.288698 180.013941 
L 1145.751876 178.513463 
L 1146.215054 166.973743 
L 1146.678232 159.081774 
L 1147.14141 154.238053 
L 1147.604589 157.711202 
L 1148.067767 164.277007 
L 1148.530945 163.988216 
L 1148.994123 161.793079 
L 1149.457301 164.143354 
L 1150.383658 177.554097 
L 1150.846836 171.961795 
L 1151.310014 160.85029 
L 1151.773192 161.376691 
L 1152.23637 161.39558 
L 1152.699548 159.910961 
L 1153.162727 159.7205 
L 1153.625905 153.588966 
L 1154.089083 152.62772 
L 1154.552261 153.782168 
L 1155.015439 156.9857 
L 1155.478617 157.819781 
L 1156.868152 167.503332 
L 1157.33133 171.693342 
L 1157.794508 172.917574 
L 1158.257686 166.646474 
L 1158.720865 164.825627 
L 1159.184043 160.61947 
L 1159.647221 159.493282 
L 1160.110399 153.49497 
L 1160.573577 163.92739 
L 1161.036755 160.9012 
L 1161.499934 167.961831 
L 1161.963112 167.844325 
L 1162.42629 172.659211 
L 1162.889468 175.739036 
L 1163.352646 181.346911 
L 1163.815824 178.082825 
L 1164.279003 187.554142 
L 1165.205359 181.818959 
L 1165.668537 180.293104 
L 1166.131715 174.440702 
L 1166.594893 172.879956 
L 1167.058072 162.355263 
L 1167.52125 154.469637 
L 1167.984428 156.258477 
L 1168.447606 159.344646 
L 1168.910784 157.764869 
L 1169.373962 155.25888 
L 1169.837141 157.872428 
L 1170.300319 159.610517 
L 1170.763497 166.87098 
L 1171.226675 159.235939 
L 1171.689853 164.799406 
L 1172.153031 164.478895 
L 1172.61621 168.973413 
L 1173.079388 166.191464 
L 1173.542566 173.448756 
L 1174.005744 171.187008 
L 1174.468922 171.485028 
L 1174.9321 169.226452 
L 1175.395279 168.236659 
L 1175.858457 168.483928 
L 1176.321635 168.91517 
L 1176.784813 162.485472 
L 1177.247991 162.913543 
L 1177.711169 170.405559 
L 1178.174348 173.393398 
L 1178.637526 171.635991 
L 1179.100704 168.406796 
L 1179.563882 169.875269 
L 1180.02706 176.618703 
L 1180.490238 179.717561 
L 1180.953417 175.92693 
L 1181.416595 170.677199 
L 1182.342951 173.614144 
L 1182.806129 169.547553 
L 1183.732486 154.058605 
L 1184.195664 153.081499 
L 1184.658842 151.006896 
L 1185.12202 153.125619 
L 1185.585198 152.640167 
L 1186.048376 154.831845 
L 1186.974733 148.554257 
L 1187.437911 142.349768 
L 1187.901089 145.933934 
L 1188.364267 145.54364 
L 1188.827445 143.90994 
L 1189.290624 149.321153 
L 1190.680158 175.451296 
L 1191.143336 172.241133 
L 1191.606514 167.920785 
L 1192.069693 167.092761 
L 1192.532871 159.787603 
L 1192.996049 156.460078 
L 1193.459227 153.982637 
L 1193.922405 155.130741 
L 1194.385583 163.241289 
L 1194.848762 166.149829 
L 1195.31194 163.256862 
L 1195.775118 164.44303 
L 1196.238296 166.748899 
L 1196.701474 169.654267 
L 1197.164652 167.969815 
L 1197.627831 160.081017 
L 1198.091009 163.991895 
L 1198.554187 172.546517 
L 1199.017365 171.283935 
L 1199.480543 170.861921 
L 1199.943721 171.483481 
L 1200.4069 175.889184 
L 1201.333256 187.35869 
L 1201.796434 189.299784 
L 1202.72279 202.060275 
L 1203.185969 204.924408 
L 1203.649147 202.602393 
L 1204.112325 204.959013 
L 1204.575503 198.900433 
L 1205.501859 206.947399 
L 1205.965038 199.299669 
L 1206.428216 195.030073 
L 1206.891394 193.710396 
L 1207.354572 190.13863 
L 1207.81775 188.581056 
L 1208.280928 183.616802 
L 1208.744107 187.556228 
L 1209.207285 190.537723 
L 1209.670463 189.855609 
L 1210.133641 194.724418 
L 1210.596819 195.269851 
L 1211.059997 203.481901 
L 1211.523176 208.728173 
L 1211.986354 202.415837 
L 1212.449532 206.875463 
L 1212.91271 213.260467 
L 1213.375888 214.671844 
L 1213.839066 215.620116 
L 1214.302245 217.240842 
L 1214.765423 210.633514 
L 1215.228601 214.785461 
L 1215.691779 214.848756 
L 1216.618135 205.377009 
L 1217.081314 203.394393 
L 1217.544492 198.909104 
L 1218.00767 204.206127 
L 1218.470848 196.64404 
L 1218.934026 192.450571 
L 1219.397204 194.477307 
L 1219.860382 194.860971 
L 1220.323561 202.73045 
L 1220.786739 204.642996 
L 1221.249917 205.096442 
L 1221.713095 207.573596 
L 1222.176273 214.897499 
L 1222.639451 220.105707 
L 1223.10263 223.020591 
L 1223.565808 222.855506 
L 1224.028986 220.355861 
L 1224.492164 220.974249 
L 1224.955342 219.955908 
L 1225.881699 209.789502 
L 1226.344877 207.534098 
L 1226.808055 203.128108 
L 1227.271233 200.65701 
L 1227.734411 197.513459 
L 1228.197589 200.142867 
L 1228.660768 204.475615 
L 1229.123946 199.94909 
L 1229.587124 203.041604 
L 1230.050302 209.404404 
L 1230.51348 211.516783 
L 1230.976658 211.513468 
L 1231.439837 212.353893 
L 1231.903015 203.665762 
L 1232.366193 208.287158 
L 1233.292549 206.104566 
L 1233.755727 207.848998 
L 1234.218906 205.298602 
L 1234.682084 206.196122 
L 1235.145262 206.110336 
L 1235.60844 210.798343 
L 1236.071618 209.377163 
L 1236.534796 198.747795 
L 1236.997975 199.987887 
L 1237.461153 205.132656 
L 1237.924331 205.522663 
L 1238.387509 208.967263 
L 1238.850687 204.351924 
L 1239.313865 207.25412 
L 1239.777044 215.393216 
L 1240.240222 212.084722 
L 1240.7034 210.669886 
L 1241.166578 212.969411 
L 1241.629756 216.617017 
L 1242.092934 222.849767 
L 1242.556113 225.447455 
L 1243.019291 220.575187 
L 1243.482469 223.007934 
L 1243.945647 222.072064 
L 1244.408825 219.626342 
L 1245.335182 214.011693 
L 1245.79836 212.317725 
L 1246.261538 208.349465 
L 1246.724716 206.671357 
L 1247.187894 207.495922 
L 1247.651072 201.126491 
L 1248.114251 198.411153 
L 1248.577429 189.757914 
L 1249.040607 183.528049 
L 1249.503785 182.687337 
L 1249.966963 182.179681 
L 1250.430141 178.462005 
L 1250.89332 177.272378 
L 1251.356498 179.406961 
L 1251.819676 176.853393 
L 1252.282854 175.923866 
L 1252.746032 178.857782 
L 1253.20921 180.430928 
L 1253.672389 182.508416 
L 1254.135567 189.673721 
L 1254.598745 183.041018 
L 1255.061923 187.392798 
L 1255.525101 193.105347 
L 1255.988279 203.093693 
L 1256.451458 203.490044 
L 1256.914636 203.09975 
L 1257.377814 204.035333 
L 1258.30417 211.492315 
L 1258.767348 210.867296 
L 1259.230527 206.328084 
L 1259.693705 208.580029 
L 1260.620061 201.921806 
L 1261.083239 208.087945 
L 1262.009596 200.814363 
L 1262.472774 198.07365 
L 1262.935952 197.746795 
L 1263.39913 201.759176 
L 1263.862308 201.118297 
L 1264.325486 196.861389 
L 1264.788665 203.366927 
L 1265.251843 207.690159 
L 1265.715021 208.644775 
L 1266.178199 204.089702 
L 1266.641377 200.736801 
L 1267.104555 199.509111 
L 1267.567734 202.462059 
L 1268.030912 200.726855 
L 1268.49409 202.223875 
L 1268.957268 199.981159 
L 1269.420446 195.600544 
L 1270.346803 189.027964 
L 1271.273159 172.428832 
L 1271.736337 166.103808 
L 1272.199515 163.283796 
L 1272.662693 164.149596 
L 1273.125872 168.94545 
L 1273.58905 170.861168 
L 1274.052228 168.685063 
L 1274.978584 161.23068 
L 1275.441762 162.486631 
L 1275.904941 166.210363 
L 1276.368119 164.770152 
L 1276.831297 166.917423 
L 1277.294475 168.493741 
L 1277.757653 173.790764 
L 1278.220831 176.575598 
L 1279.147188 164.486987 
L 1279.610366 164.696193 
L 1280.073544 167.017921 
L 1280.536722 172.343491 
L 1280.9999 168.368887 
L 1281.463079 165.900962 
L 1281.926257 166.757247 
L 1282.389435 175.324556 
L 1282.852613 176.748621 
L 1283.315791 176.973686 
L 1283.778969 175.378049 
L 1284.705326 183.637535 
L 1285.168504 191.608517 
L 1285.631682 186.479321 
L 1286.09486 184.544284 
L 1286.558038 183.589382 
L 1287.021217 190.640497 
L 1287.947573 200.701654 
L 1288.410751 200.622211 
L 1288.873929 202.404707 
L 1289.337107 203.337119 
L 1289.800286 202.984888 
L 1290.263464 199.489249 
L 1290.726642 197.804797 
L 1291.18982 192.225183 
L 1292.116176 194.362795 
L 1292.579355 188.167821 
L 1293.042533 187.260498 
L 1293.505711 188.465698 
L 1293.968889 190.298945 
L 1294.432067 193.086951 
L 1294.895245 192.49048 
L 1295.358424 193.001021 
L 1295.821602 202.643624 
L 1296.28478 198.719771 
L 1296.747958 196.445335 
L 1297.211136 188.645352 
L 1298.137493 181.222831 
L 1301.842918 175.671765 
L 1302.306096 173.584474 
L 1303.232452 163.932069 
L 1303.695631 161.844779 
L 1304.158809 151.802223 
L 1304.621987 147.548486 
L 1305.085165 148.702935 
L 1305.548343 145.03601 
L 1306.011521 138.612656 
L 1306.4747 141.261096 
L 1306.937878 145.374979 
L 1307.401056 144.851463 
L 1307.864234 148.124778 
L 1308.327412 148.844668 
L 1308.79059 152.254377 
L 1309.253769 158.633037 
L 1309.716947 159.720875 
L 1310.180125 157.677992 
L 1310.643303 165.198556 
L 1311.106481 170.362357 
L 1311.569659 165.715298 
L 1312.032838 171.082104 
L 1312.496016 168.972609 
L 1312.959194 172.670967 
L 1313.88555 176.090048 
L 1314.348728 175.905931 
L 1314.811907 178.262551 
L 1315.275085 166.982932 
L 1315.738263 163.452402 
L 1317.127797 139.297527 
L 1317.590975 136.740787 
L 1318.517332 146.513296 
L 1318.98051 148.441702 
L 1319.443688 152.945736 
L 1319.906866 163.673147 
L 1320.370044 171.177852 
L 1320.833223 171.653501 
L 1321.296401 167.34267 
L 1321.759579 167.926166 
L 1322.222757 169.927527 
L 1322.685935 167.392991 
L 1323.149113 159.453442 
L 1323.612292 154.755631 
L 1324.07547 157.413587 
L 1324.538648 162.942163 
L 1325.001826 163.525659 
L 1325.928182 172.076965 
L 1326.391361 166.227735 
L 1326.854539 168.552635 
L 1327.317717 167.677032 
L 1327.780895 168.828309 
L 1328.244073 165.056709 
L 1328.707251 159.997296 
L 1329.17043 156.330372 
L 1329.633608 162.762955 
L 1330.096786 163.080007 
L 1330.559964 162.06801 
L 1331.023142 164.078886 
L 1331.48632 169.090433 
L 1331.949499 171.339206 
L 1332.412677 175.576796 
L 1333.339033 177.035609 
L 1333.802211 181.412764 
L 1334.265389 171.969708 
L 1334.728568 173.190768 
L 1335.191746 168.914828 
L 1335.654924 168.553081 
L 1336.118102 175.093511 
L 1336.58128 179.667328 
L 1337.044458 175.220102 
L 1337.507637 184.494758 
L 1337.970815 180.843693 
L 1338.897171 192.08799 
L 1339.360349 191.025241 
L 1339.823527 186.593875 
L 1340.286706 193.134305 
L 1340.749884 187.63399 
L 1341.213062 194.704136 
L 1341.67624 194.913342 
L 1342.602596 181.911207 
L 1343.065775 182.60255 
L 1343.528953 178.209248 
L 1343.992131 179.646 
L 1344.455309 177.837842 
L 1344.918487 183.981777 
L 1345.381665 182.275121 
L 1345.844844 187.270809 
L 1346.308022 183.239109 
L 1346.7712 183.042304 
L 1347.234378 190.819797 
L 1348.160734 174.626675 
L 1348.623913 177.757252 
L 1349.087091 174.842081 
L 1349.550269 177.166981 
L 1350.013447 171.441457 
L 1350.939803 156.266676 
L 1351.402982 162.581897 
L 1351.86616 162.296278 
L 1352.329338 163.796469 
L 1352.792516 163.897829 
L 1353.255694 162.368802 
L 1353.718872 167.605558 
L 1354.182051 174.215771 
L 1354.645229 175.214793 
L 1355.108407 181.257226 
L 1355.571585 180.000988 
L 1356.034763 180.790662 
L 1356.497941 188.339773 
L 1356.96112 190.709081 
L 1357.424298 186.582223 
L 1357.887476 178.563375 
L 1358.350654 172.964729 
L 1358.813832 171.603816 
L 1359.27701 174.157097 
L 1360.203367 158.493692 
L 1360.666545 160.495053 
L 1361.592901 181.071244 
L 1362.056079 189.625866 
L 1362.519258 191.871467 
L 1362.982436 195.246285 
L 1363.445614 203.635964 
L 1363.908792 208.20661 
L 1364.37197 208.637852 
L 1364.835148 205.081946 
L 1365.298327 192.974447 
L 1366.224683 201.963483 
L 1366.687861 201.373356 
L 1367.151039 203.406436 
L 1367.614217 205.994608 
L 1368.077396 214.847394 
L 1368.540574 225.866625 
L 1369.003752 225.124244 
L 1369.46693 231.588547 
L 1370.393286 240.206464 
L 1370.856465 242.943719 
L 1371.319643 242.778634 
L 1372.245999 254.279859 
L 1372.709177 264.182562 
L 1373.635534 278.306995 
L 1374.098712 279.56929 
L 1380.583206 285.838024 
L 1381.509562 295.917227 
L 1381.972741 296.289295 
L 1382.435919 298.980064 
L 1382.899097 304.484357 
L 1383.362275 307.8 
L 1383.825453 301.068966 
L 1384.288631 298.442443 
L 1384.75181 298.867342 
L 1385.214988 292.995908 
L 1385.678166 289.925311 
L 1386.141344 276.241349 
L 1387.0677 259.109328 
L 1387.530879 248.730545 
L 1388.920413 209.902202 
L 1389.383591 201.375841 
L 1389.846769 197.635961 
L 1390.309948 200.452515 
L 1390.773126 198.799782 
L 1391.236304 194.638033 
L 1391.699482 200.73756 
L 1392.16266 215.873991 
L 1392.625838 225.871852 
L 1393.089017 231.479727 
L 1393.552195 233.154376 
L 1394.015373 233.553899 
L 1394.478551 243.507353 
L 1394.941729 245.359632 
L 1395.404907 230.057973 
L 1395.868086 221.433282 
L 1397.25762 204.789598 
L 1398.183976 185.567258 
L 1398.647155 183.714693 
L 1399.110333 179.59735 
L 1399.573511 182.372668 
L 1400.036689 183.168686 
L 1400.499867 184.307274 
L 1400.963045 183.993107 
L 1401.426224 184.2943 
L 1401.889402 192.268453 
L 1402.35258 205.50171 
L 1402.815758 204.064671 
L 1403.278936 205.571206 
L 1403.742114 206.262549 
L 1404.205293 204.324341 
L 1404.668471 205.022027 
L 1405.594827 181.669801 
L 1406.058005 183.217572 
L 1406.521183 182.728947 
L 1407.44754 191.013809 
L 1407.910718 196.951567 
L 1408.373896 204.560946 
L 1408.837074 209.236266 
L 1409.763431 205.017277 
L 1410.226609 201.004609 
L 1410.689787 199.456551 
L 1411.152965 191.894465 
L 1411.616143 188.192649 
L 1412.079321 188.430402 
L 1412.5425 187.672161 
L 1413.468856 190.107936 
L 1413.932034 194.830835 
L 1414.85839 215.594172 
L 1415.321568 219.425751 
L 1415.784747 230.768522 
L 1416.711103 241.68928 
L 1417.174281 240.157081 
L 1417.637459 237.076969 
L 1418.100637 235.735088 
L 1418.563816 229.321249 
L 1419.026994 219.392884 
L 1419.490172 216.855176 
L 1419.95335 212.785413 
L 1420.879706 219.411342 
L 1421.342885 218.799011 
L 1421.806063 219.855129 
L 1422.269241 217.21909 
L 1422.732419 211.366688 
L 1423.195597 203.611112 
L 1424.121954 193.133854 
L 1424.585132 194.126533 
L 1425.04831 198.633739 
L 1425.511488 206.024253 
L 1426.437844 237.584928 
L 1426.901023 242.399813 
L 1427.364201 251.338242 
L 1427.827379 252.077164 
L 1428.290557 252.032613 
L 1428.753735 259.454846 
L 1429.216913 255.277237 
L 1430.14327 254.179453 
L 1430.606448 249.294498 
L 1431.069626 247.445104 
L 1431.532804 257.715754 
L 1431.995982 245.969857 
L 1432.459161 242.004769 
L 1432.922339 243.105294 
L 1433.385517 243.473098 
L 1433.848695 246.499 
L 1434.311873 252.068811 
L 1434.775051 251.234443 
L 1435.23823 261.314776 
L 1435.701408 265.270061 
L 1436.164586 267.017666 
L 1437.090942 272.685807 
L 1438.017299 279.362631 
L 1438.480477 285.002225 
L 1438.943655 287.082885 
L 1440.796368 280.028312 
L 1443.112258 280.082091 
L 1443.575437 279.491964 
L 1444.038615 280.481471 
L 1444.501793 272.592673 
L 1444.964971 269.233428 
L 1445.428149 262.267669 
L 1445.891327 265.084223 
L 1446.817684 252.431004 
L 1450.059931 246.837322 
L 1452.375822 246.150656 
L 1452.839 238.764819 
L 1453.302178 236.431908 
L 1453.765356 233.252085 
L 1455.618069 236.178277 
L 1456.081247 240.366907 
L 1456.544425 246.631377 
L 1457.007603 248.128396 
L 1457.470782 252.302547 
L 1458.860316 263.672486 
L 1459.786672 269.751602 
L 1460.249851 270.09265 
L 1460.713029 274.122682 
L 1461.176207 270.137182 
L 1461.639385 269.875558 
L 1462.102563 278.501755 
L 1462.565741 269.477397 
L 1463.492098 262.717816 
L 1464.418454 266.582906 
L 1464.881632 261.74415 
L 1465.807989 261.599889 
L 1467.660701 263.42224 
L 1469.976592 250.866115 
L 1472.292483 251.340385 
L 1472.755661 255.011987 
L 1473.218839 252.112675 
L 1473.682017 253.048259 
L 1474.145196 255.081339 
L 1475.071552 261.247335 
L 1475.53473 259.239343 
L 1475.997908 266.981944 
L 1476.461086 270.509016 
L 1476.924265 270.642094 
L 1477.387443 265.373332 
L 1477.850621 263.308245 
L 1478.776977 262.670395 
L 1479.703334 257.106497 
L 1480.166512 255.574299 
L 1480.62969 254.752619 
L 1481.092868 253.68987 
L 1481.556046 257.886225 
L 1482.019224 260.642511 
L 1482.482403 257.720996 
L 1482.945581 259.61451 
L 1483.408759 259.366954 
L 1483.871937 265.536265 
L 1484.335115 267.930948 
L 1484.798293 264.698582 
L 1485.261472 263.109288 
L 1485.72465 262.515989 
L 1486.187828 257.742052 
L 1486.651006 255.737232 
L 1487.114184 248.463794 
L 1487.577362 245.031594 
L 1488.040541 243.670681 
L 1488.503719 246.496751 
L 1490.81961 273.023101 
L 1491.282788 273.819118 
L 1491.745966 270.596268 
L 1492.209144 264.775585 
L 1492.672322 254.812328 
L 1493.598679 247.494338 
L 1494.061857 244.103374 
L 1494.525035 247.160996 
L 1494.988213 245.095909 
L 1495.451391 241.612958 
L 1495.914569 242.450211 
L 1496.840926 253.088664 
L 1498.23046 225.987042 
L 1498.693638 209.118437 
L 1500.083173 199.792743 
L 1501.009529 182.546675 
L 1501.472707 162.851857 
L 1501.935886 167.673087 
L 1503.788598 151.036035 
L 1504.251776 148.174787 
L 1504.714955 157.259125 
L 1505.178133 161.591874 
L 1505.641311 163.885054 
L 1506.104489 169.638839 
L 1506.567667 156.465562 
L 1507.494024 157.508992 
L 1507.957202 161.353259 
L 1508.42038 162.704369 
L 1508.883558 156.097041 
L 1509.809914 162.076035 
L 1510.273093 157.955521 
L 1510.736271 157.942689 
L 1511.199449 171.857917 
L 1511.662627 163.29032 
L 1512.125805 159.556785 
L 1512.588983 175.654317 
L 1513.978518 168.412599 
L 1514.904874 187.028521 
L 1516.294409 171.882288 
L 1518.147121 172.265951 
L 1518.610299 176.316395 
L 1519.073478 156.17116 
L 1519.999834 153.988711 
L 1520.463012 143.12779 
L 1520.92619 127.121957 
L 1521.389368 135.72733 
L 1521.852547 136.837371 
L 1522.315725 131.743066 
L 1522.778903 139.482495 
L 1523.242081 138.632267 
L 1523.705259 139.161841 
L 1524.168437 145.18207 
L 1524.631616 142.825163 
L 1525.094794 144.369762 
L 1525.557972 136.959929 
L 1526.02115 131.548429 
L 1526.484328 128.763308 
L 1527.410685 132.001588 
L 1527.873863 135.167057 
L 1528.337041 132.705475 
L 1528.800219 138.833551 
L 1529.263397 139.569301 
L 1529.726575 145.012234 
L 1530.652932 136.190738 
L 1531.11611 138.325321 
L 1531.579288 138.077765 
L 1532.505644 144.541924 
L 1535.747892 140.110558 
L 1536.21107 142.184874 
L 1536.674248 143.33615 
L 1537.137426 138.111795 
L 1537.600604 141.800636 
L 1538.063782 139.551576 
L 1538.526961 142.691669 
L 1539.453317 152.784546 
L 1539.916495 155.892919 
L 1540.379673 160.831511 
L 1540.842851 168.745398 
L 1541.769208 163.822235 
L 1542.232386 165.471509 
L 1542.695564 166.134304 
L 1543.158742 168.979405 
L 1543.62192 165.06824 
L 1544.085099 160.107157 
L 1544.548277 164.693662 
L 1545.474633 160.737946 
L 1545.937811 160.290557 
L 1546.400989 158.767875 
L 1546.864168 162.209303 
L 1547.327346 162.186956 
L 1547.790524 161.025877 
L 1548.253702 160.895683 
L 1548.71688 156.870328 
L 1549.180058 157.266679 
L 1549.643237 159.026971 
L 1550.106415 159.010967 
L 1550.569593 155.721506 
L 1551.495949 157.627564 
L 1551.959127 162.423418 
L 1552.422306 161.370185 
L 1553.348662 144.320635 
L 1553.81184 143.416484 
L 1554.275018 140.295136 
L 1554.738196 138.956427 
L 1555.201375 136.07932 
L 1555.664553 135.489192 
L 1556.590909 144.93499 
L 1556.590909 144.93499 
" clip-path="url(#p188f4e655b)" style="fill: none; stroke: #bf9632; stroke-width: 2.5; stroke-linecap: square"/>
   </g>
   <g id="patch_3">
    <path d="M 225 320.4 
L 225 43.2 
" style="fill: none; stroke: #000000; stroke-width: 0.8; stroke-linejoin: miter; stroke-linecap: square"/>
   </g>
   <g id="patch_4">
    <path d="M 1620 320.4 
L 1620 43.2 
" style="fill: none; stroke: #000000; stroke-width: 0.8; stroke-linejoin: miter; stroke-linecap: square"/>
   </g>
   <g id="patch_5">
    <path d="M 225 320.4 
L 1620 320.4 
" style="fill: none; stroke: #000000; stroke-width: 0.8; stroke-linejoin: miter; stroke-linecap: square"/>
   </g>
   <g id="patch_6">
    <path d="M 225 43.2 
L 1620 43.2 
" style="fill: none; stroke: #000000; stroke-width: 0.8; stroke-linejoin: miter; stroke-linecap: square"/>
   </g>
   <g id="text_18">
    <!-- NOVE -->
    <g transform="translate(894.1625 37.2) scale(0.2 -0.2)">
     <defs>
      <path id="DejaVuSans-4e" d="M 628 4666 
L 1478 4666 
L 3547 763 
L 3547 4666 
L 4159 4666 
L 4159 0 
L 3309 0 
L 1241 3903 
L 1241 0 
L 628 0 
L 628 4666 
z
" transform="scale(0.015625)"/>
      <path id="DejaVuSans-4f" d="M 2522 4238 
Q 1834 4238 1429 3725 
Q 1025 3213 1025 2328 
Q 1025 1447 1429 934 
Q 1834 422 2522 422 
Q 3209 422 3611 934 
Q 4013 1447 4013 2328 
Q 4013 3213 3611 3725 
Q 3209 4238 2522 4238 
z
M 2522 4750 
Q 3503 4750 4090 4092 
Q 4678 3434 4678 2328 
Q 4678 1225 4090 567 
Q 3503 -91 2522 -91 
Q 1538 -91 948 565 
Q 359 1222 359 2328 
Q 359 3434 948 4092 
Q 1538 4750 2522 4750 
z
" transform="scale(0.015625)"/>
      <path id="DejaVuSans-56" d="M 1831 0 
L 50 4666 
L 709 4666 
L 2188 738 
L 3669 4666 
L 4325 4666 
L 2547 0 
L 1831 0 
z
" transform="scale(0.015625)"/>
     </defs>
     <use xlink:href="#DejaVuSans-4e"/>
     <use xlink:href="#DejaVuSans-4f" x="74.804688"/>
     <use xlink:href="#DejaVuSans-56" x="151.765625"/>
     <use xlink:href="#DejaVuSans-45" x="220.173828"/>
    </g>
   </g>
   <g id="legend_1">
    <g id="patch_7">
     <path d="M 1556.471875 65.878125 
L 1613 65.878125 
Q 1615 65.878125 1615 63.878125 
L 1615 50.2 
Q 1615 48.2 1613 48.2 
L 1556.471875 48.2 
Q 1554.471875 48.2 1554.471875 50.2 
L 1554.471875 63.878125 
Q 1554.471875 65.878125 1556.471875 65.878125 
z
" style="fill: #ffffff; opacity: 0.8; stroke: #cccccc; stroke-linejoin: miter"/>
    </g>
    <g id="line2d_17">
     <path d="M 1558.471875 56.298437 
L 1568.471875 56.298437 
L 1578.471875 56.298437 
" style="fill: none; stroke: #bf9632; stroke-width: 2.5; stroke-linecap: square"/>
    </g>
    <g id="text_19">
     <!-- nove -->
     <g transform="translate(1586.471875 59.798437) scale(0.1 -0.1)">
      <defs>
       <path id="DejaVuSans-6e" d="M 3513 2113 
L 3513 0 
L 2938 0 
L 2938 2094 
Q 2938 2591 2744 2837 
Q 2550 3084 2163 3084 
Q 1697 3084 1428 2787 
Q 1159 2491 1159 1978 
L 1159 0 
L 581 0 
L 581 3500 
L 1159 3500 
L 1159 2956 
Q 1366 3272 1645 3428 
Q 1925 3584 2291 3584 
Q 2894 3584 3203 3211 
Q 3513 2838 3513 2113 
z
" transform="scale(0.015625)"/>
       <path id="DejaVuSans-6f" d="M 1959 3097 
Q 1497 3097 1228 2736 
Q 959 2375 959 1747 
Q 959 1119 1226 758 
Q 1494 397 1959 397 
Q 2419 397 2687 759 
Q 2956 1122 2956 1747 
Q 2956 2369 2687 2733 
Q 2419 3097 1959 3097 
z
M 1959 3584 
Q 2709 3584 3137 3096 
Q 3566 2609 3566 1747 
Q 3566 888 3137 398 
Q 2709 -91 1959 -91 
Q 1206 -91 779 398 
Q 353 888 353 1747 
Q 353 2609 779 3096 
Q 1206 3584 1959 3584 
z
" transform="scale(0.015625)"/>
       <path id="DejaVuSans-76" d="M 191 3500 
L 800 3500 
L 1894 563 
L 2988 3500 
L 3597 3500 
L 2284 0 
L 1503 0 
L 191 3500 
z
" transform="scale(0.015625)"/>
      </defs>
      <use xlink:href="#DejaVuSans-6e"/>
      <use xlink:href="#DejaVuSans-6f" x="63.378906"/>
      <use xlink:href="#DejaVuSans-76" x="124.560547"/>
      <use xlink:href="#DejaVuSans-65" x="183.740234"/>
     </g>
    </g>
   </g>
  </g>
 </g>
 <defs>
  <clipPath id="p188f4e655b">
   <rect x="225" y="43.2" width="1395" height="277.2"/>
  </clipPath>
 </defs>
</svg>
