<?xml version="1.0" encoding="utf-8" standalone="no"?>
<!DOCTYPE svg PUBLIC "-//W3C//DTD SVG 1.1//EN"
  "http://www.w3.org/Graphics/SVG/1.1/DTD/svg11.dtd">
<svg xmlns:xlink="http://www.w3.org/1999/xlink" width="1800pt" height="360pt" viewBox="0 0 1800 360" xmlns="http://www.w3.org/2000/svg" version="1.1">
 <metadata>
  <rdf:RDF xmlns:dc="http://purl.org/dc/elements/1.1/" xmlns:cc="http://creativecommons.org/ns#" xmlns:rdf="http://www.w3.org/1999/02/22-rdf-syntax-ns#">
   <cc:Work>
    <dc:type rdf:resource="http://purl.org/dc/dcmitype/StillImage"/>
    <dc:date>2024-03-25T14:06:00.547013</dc:date>
    <dc:format>image/svg+xml</dc:format>
    <dc:creator>
     <cc:Agent>
      <dc:title>Matplotlib v3.7.2, https://matplotlib.org/</dc:title>
     </cc:Agent>
    </dc:creator>
   </cc:Work>
  </rdf:RDF>
 </metadata>
 <defs>
  <style type="text/css">*{stroke-linejoin: round; stroke-linecap: butt}</style>
 </defs>
 <g id="figure_1">
  <g id="patch_1">
   <path d="M 0 360 
L 1800 360 
L 1800 0 
L 0 0 
z
" style="fill: #ffffff"/>
  </g>
  <g id="axes_1">
   <g id="patch_2">
    <path d="M 225 320.4 
L 1620 320.4 
L 1620 43.2 
L 225 43.2 
z
" style="fill: #ffffff"/>
   </g>
   <g id="matplotlib.axis_1">
    <g id="xtick_1">
     <g id="line2d_1">
      <defs>
       <path id="m529f639dd6" d="M 0 0 
L 0 3.5 
" style="stroke: #000000; stroke-width: 0.8"/>
      </defs>
      <g>
       <use xlink:href="#m529f639dd6" x="281.924597" y="320.4" style="stroke: #000000; stroke-width: 0.8"/>
      </g>
     </g>
     <g id="text_1">
      <!-- 2011 -->
      <g transform="translate(262.837097 338.797656) scale(0.15 -0.15)">
       <defs>
        <path id="DejaVuSans-32" d="M 1228 531 
L 3431 531 
L 3431 0 
L 469 0 
L 469 531 
Q 828 903 1448 1529 
Q 2069 2156 2228 2338 
Q 2531 2678 2651 2914 
Q 2772 3150 2772 3378 
Q 2772 3750 2511 3984 
Q 2250 4219 1831 4219 
Q 1534 4219 1204 4116 
Q 875 4013 500 3803 
L 500 4441 
Q 881 4594 1212 4672 
Q 1544 4750 1819 4750 
Q 2544 4750 2975 4387 
Q 3406 4025 3406 3419 
Q 3406 3131 3298 2873 
Q 3191 2616 2906 2266 
Q 2828 2175 2409 1742 
Q 1991 1309 1228 531 
z
" transform="scale(0.015625)"/>
        <path id="DejaVuSans-30" d="M 2034 4250 
Q 1547 4250 1301 3770 
Q 1056 3291 1056 2328 
Q 1056 1369 1301 889 
Q 1547 409 2034 409 
Q 2525 409 2770 889 
Q 3016 1369 3016 2328 
Q 3016 3291 2770 3770 
Q 2525 4250 2034 4250 
z
M 2034 4750 
Q 2819 4750 3233 4129 
Q 3647 3509 3647 2328 
Q 3647 1150 3233 529 
Q 2819 -91 2034 -91 
Q 1250 -91 836 529 
Q 422 1150 422 2328 
Q 422 3509 836 4129 
Q 1250 4750 2034 4750 
z
" transform="scale(0.015625)"/>
        <path id="DejaVuSans-31" d="M 794 531 
L 1825 531 
L 1825 4091 
L 703 3866 
L 703 4441 
L 1819 4666 
L 2450 4666 
L 2450 531 
L 3481 531 
L 3481 0 
L 794 0 
L 794 531 
z
" transform="scale(0.015625)"/>
       </defs>
       <use xlink:href="#DejaVuSans-32"/>
       <use xlink:href="#DejaVuSans-30" x="63.623047"/>
       <use xlink:href="#DejaVuSans-31" x="127.246094"/>
       <use xlink:href="#DejaVuSans-31" x="190.869141"/>
      </g>
     </g>
    </g>
    <g id="xtick_2">
     <g id="line2d_2">
      <g>
       <use xlink:href="#m529f639dd6" x="450.984627" y="320.4" style="stroke: #000000; stroke-width: 0.8"/>
      </g>
     </g>
     <g id="text_2">
      <!-- 2012 -->
      <g transform="translate(431.897127 338.797656) scale(0.15 -0.15)">
       <use xlink:href="#DejaVuSans-32"/>
       <use xlink:href="#DejaVuSans-30" x="63.623047"/>
       <use xlink:href="#DejaVuSans-31" x="127.246094"/>
       <use xlink:href="#DejaVuSans-32" x="190.869141"/>
      </g>
     </g>
    </g>
    <g id="xtick_3">
     <g id="line2d_3">
      <g>
       <use xlink:href="#m529f639dd6" x="620.507836" y="320.4" style="stroke: #000000; stroke-width: 0.8"/>
      </g>
     </g>
     <g id="text_3">
      <!-- 2013 -->
      <g transform="translate(601.420336 338.797656) scale(0.15 -0.15)">
       <defs>
        <path id="DejaVuSans-33" d="M 2597 2516 
Q 3050 2419 3304 2112 
Q 3559 1806 3559 1356 
Q 3559 666 3084 287 
Q 2609 -91 1734 -91 
Q 1441 -91 1130 -33 
Q 819 25 488 141 
L 488 750 
Q 750 597 1062 519 
Q 1375 441 1716 441 
Q 2309 441 2620 675 
Q 2931 909 2931 1356 
Q 2931 1769 2642 2001 
Q 2353 2234 1838 2234 
L 1294 2234 
L 1294 2753 
L 1863 2753 
Q 2328 2753 2575 2939 
Q 2822 3125 2822 3475 
Q 2822 3834 2567 4026 
Q 2313 4219 1838 4219 
Q 1578 4219 1281 4162 
Q 984 4106 628 3988 
L 628 4550 
Q 988 4650 1302 4700 
Q 1616 4750 1894 4750 
Q 2613 4750 3031 4423 
Q 3450 4097 3450 3541 
Q 3450 3153 3228 2886 
Q 3006 2619 2597 2516 
z
" transform="scale(0.015625)"/>
       </defs>
       <use xlink:href="#DejaVuSans-32"/>
       <use xlink:href="#DejaVuSans-30" x="63.623047"/>
       <use xlink:href="#DejaVuSans-31" x="127.246094"/>
       <use xlink:href="#DejaVuSans-33" x="190.869141"/>
      </g>
     </g>
    </g>
    <g id="xtick_4">
     <g id="line2d_4">
      <g>
       <use xlink:href="#m529f639dd6" x="789.567866" y="320.4" style="stroke: #000000; stroke-width: 0.8"/>
      </g>
     </g>
     <g id="text_4">
      <!-- 2014 -->
      <g transform="translate(770.480366 338.797656) scale(0.15 -0.15)">
       <defs>
        <path id="DejaVuSans-34" d="M 2419 4116 
L 825 1625 
L 2419 1625 
L 2419 4116 
z
M 2253 4666 
L 3047 4666 
L 3047 1625 
L 3713 1625 
L 3713 1100 
L 3047 1100 
L 3047 0 
L 2419 0 
L 2419 1100 
L 313 1100 
L 313 1709 
L 2253 4666 
z
" transform="scale(0.015625)"/>
       </defs>
       <use xlink:href="#DejaVuSans-32"/>
       <use xlink:href="#DejaVuSans-30" x="63.623047"/>
       <use xlink:href="#DejaVuSans-31" x="127.246094"/>
       <use xlink:href="#DejaVuSans-34" x="190.869141"/>
      </g>
     </g>
    </g>
    <g id="xtick_5">
     <g id="line2d_5">
      <g>
       <use xlink:href="#m529f639dd6" x="958.627897" y="320.4" style="stroke: #000000; stroke-width: 0.8"/>
      </g>
     </g>
     <g id="text_5">
      <!-- 2015 -->
      <g transform="translate(939.540397 338.797656) scale(0.15 -0.15)">
       <defs>
        <path id="DejaVuSans-35" d="M 691 4666 
L 3169 4666 
L 3169 4134 
L 1269 4134 
L 1269 2991 
Q 1406 3038 1543 3061 
Q 1681 3084 1819 3084 
Q 2600 3084 3056 2656 
Q 3513 2228 3513 1497 
Q 3513 744 3044 326 
Q 2575 -91 1722 -91 
Q 1428 -91 1123 -41 
Q 819 9 494 109 
L 494 744 
Q 775 591 1075 516 
Q 1375 441 1709 441 
Q 2250 441 2565 725 
Q 2881 1009 2881 1497 
Q 2881 1984 2565 2268 
Q 2250 2553 1709 2553 
Q 1456 2553 1204 2497 
Q 953 2441 691 2322 
L 691 4666 
z
" transform="scale(0.015625)"/>
       </defs>
       <use xlink:href="#DejaVuSans-32"/>
       <use xlink:href="#DejaVuSans-30" x="63.623047"/>
       <use xlink:href="#DejaVuSans-31" x="127.246094"/>
       <use xlink:href="#DejaVuSans-35" x="190.869141"/>
      </g>
     </g>
    </g>
    <g id="xtick_6">
     <g id="line2d_6">
      <g>
       <use xlink:href="#m529f639dd6" x="1127.687927" y="320.4" style="stroke: #000000; stroke-width: 0.8"/>
      </g>
     </g>
     <g id="text_6">
      <!-- 2016 -->
      <g transform="translate(1108.600427 338.797656) scale(0.15 -0.15)">
       <defs>
        <path id="DejaVuSans-36" d="M 2113 2584 
Q 1688 2584 1439 2293 
Q 1191 2003 1191 1497 
Q 1191 994 1439 701 
Q 1688 409 2113 409 
Q 2538 409 2786 701 
Q 3034 994 3034 1497 
Q 3034 2003 2786 2293 
Q 2538 2584 2113 2584 
z
M 3366 4563 
L 3366 3988 
Q 3128 4100 2886 4159 
Q 2644 4219 2406 4219 
Q 1781 4219 1451 3797 
Q 1122 3375 1075 2522 
Q 1259 2794 1537 2939 
Q 1816 3084 2150 3084 
Q 2853 3084 3261 2657 
Q 3669 2231 3669 1497 
Q 3669 778 3244 343 
Q 2819 -91 2113 -91 
Q 1303 -91 875 529 
Q 447 1150 447 2328 
Q 447 3434 972 4092 
Q 1497 4750 2381 4750 
Q 2619 4750 2861 4703 
Q 3103 4656 3366 4563 
z
" transform="scale(0.015625)"/>
       </defs>
       <use xlink:href="#DejaVuSans-32"/>
       <use xlink:href="#DejaVuSans-30" x="63.623047"/>
       <use xlink:href="#DejaVuSans-31" x="127.246094"/>
       <use xlink:href="#DejaVuSans-36" x="190.869141"/>
      </g>
     </g>
    </g>
    <g id="xtick_7">
     <g id="line2d_7">
      <g>
       <use xlink:href="#m529f639dd6" x="1297.211136" y="320.4" style="stroke: #000000; stroke-width: 0.8"/>
      </g>
     </g>
     <g id="text_7">
      <!-- 2017 -->
      <g transform="translate(1278.123636 338.797656) scale(0.15 -0.15)">
       <defs>
        <path id="DejaVuSans-37" d="M 525 4666 
L 3525 4666 
L 3525 4397 
L 1831 0 
L 1172 0 
L 2766 4134 
L 525 4134 
L 525 4666 
z
" transform="scale(0.015625)"/>
       </defs>
       <use xlink:href="#DejaVuSans-32"/>
       <use xlink:href="#DejaVuSans-30" x="63.623047"/>
       <use xlink:href="#DejaVuSans-31" x="127.246094"/>
       <use xlink:href="#DejaVuSans-37" x="190.869141"/>
      </g>
     </g>
    </g>
    <g id="xtick_8">
     <g id="line2d_8">
      <g>
       <use xlink:href="#m529f639dd6" x="1466.271167" y="320.4" style="stroke: #000000; stroke-width: 0.8"/>
      </g>
     </g>
     <g id="text_8">
      <!-- 2018 -->
      <g transform="translate(1447.183667 338.797656) scale(0.15 -0.15)">
       <defs>
        <path id="DejaVuSans-38" d="M 2034 2216 
Q 1584 2216 1326 1975 
Q 1069 1734 1069 1313 
Q 1069 891 1326 650 
Q 1584 409 2034 409 
Q 2484 409 2743 651 
Q 3003 894 3003 1313 
Q 3003 1734 2745 1975 
Q 2488 2216 2034 2216 
z
M 1403 2484 
Q 997 2584 770 2862 
Q 544 3141 544 3541 
Q 544 4100 942 4425 
Q 1341 4750 2034 4750 
Q 2731 4750 3128 4425 
Q 3525 4100 3525 3541 
Q 3525 3141 3298 2862 
Q 3072 2584 2669 2484 
Q 3125 2378 3379 2068 
Q 3634 1759 3634 1313 
Q 3634 634 3220 271 
Q 2806 -91 2034 -91 
Q 1263 -91 848 271 
Q 434 634 434 1313 
Q 434 1759 690 2068 
Q 947 2378 1403 2484 
z
M 1172 3481 
Q 1172 3119 1398 2916 
Q 1625 2713 2034 2713 
Q 2441 2713 2670 2916 
Q 2900 3119 2900 3481 
Q 2900 3844 2670 4047 
Q 2441 4250 2034 4250 
Q 1625 4250 1398 4047 
Q 1172 3844 1172 3481 
z
" transform="scale(0.015625)"/>
       </defs>
       <use xlink:href="#DejaVuSans-32"/>
       <use xlink:href="#DejaVuSans-30" x="63.623047"/>
       <use xlink:href="#DejaVuSans-31" x="127.246094"/>
       <use xlink:href="#DejaVuSans-38" x="190.869141"/>
      </g>
     </g>
    </g>
    <g id="text_9">
     <!-- Time -->
     <g transform="translate(904.149609 357.314844) scale(0.15 -0.15)">
      <defs>
       <path id="DejaVuSans-54" d="M -19 4666 
L 3928 4666 
L 3928 4134 
L 2272 4134 
L 2272 0 
L 1638 0 
L 1638 4134 
L -19 4134 
L -19 4666 
z
" transform="scale(0.015625)"/>
       <path id="DejaVuSans-69" d="M 603 3500 
L 1178 3500 
L 1178 0 
L 603 0 
L 603 3500 
z
M 603 4863 
L 1178 4863 
L 1178 4134 
L 603 4134 
L 603 4863 
z
" transform="scale(0.015625)"/>
       <path id="DejaVuSans-6d" d="M 3328 2828 
Q 3544 3216 3844 3400 
Q 4144 3584 4550 3584 
Q 5097 3584 5394 3201 
Q 5691 2819 5691 2113 
L 5691 0 
L 5113 0 
L 5113 2094 
Q 5113 2597 4934 2840 
Q 4756 3084 4391 3084 
Q 3944 3084 3684 2787 
Q 3425 2491 3425 1978 
L 3425 0 
L 2847 0 
L 2847 2094 
Q 2847 2600 2669 2842 
Q 2491 3084 2119 3084 
Q 1678 3084 1418 2786 
Q 1159 2488 1159 1978 
L 1159 0 
L 581 0 
L 581 3500 
L 1159 3500 
L 1159 2956 
Q 1356 3278 1631 3431 
Q 1906 3584 2284 3584 
Q 2666 3584 2933 3390 
Q 3200 3197 3328 2828 
z
" transform="scale(0.015625)"/>
       <path id="DejaVuSans-65" d="M 3597 1894 
L 3597 1613 
L 953 1613 
Q 991 1019 1311 708 
Q 1631 397 2203 397 
Q 2534 397 2845 478 
Q 3156 559 3463 722 
L 3463 178 
Q 3153 47 2828 -22 
Q 2503 -91 2169 -91 
Q 1331 -91 842 396 
Q 353 884 353 1716 
Q 353 2575 817 3079 
Q 1281 3584 2069 3584 
Q 2775 3584 3186 3129 
Q 3597 2675 3597 1894 
z
M 3022 2063 
Q 3016 2534 2758 2815 
Q 2500 3097 2075 3097 
Q 1594 3097 1305 2825 
Q 1016 2553 972 2059 
L 3022 2063 
z
" transform="scale(0.015625)"/>
      </defs>
      <use xlink:href="#DejaVuSans-54"/>
      <use xlink:href="#DejaVuSans-69" x="57.958984"/>
      <use xlink:href="#DejaVuSans-6d" x="85.742188"/>
      <use xlink:href="#DejaVuSans-65" x="183.154297"/>
     </g>
    </g>
   </g>
   <g id="matplotlib.axis_2">
    <g id="ytick_1">
     <g id="line2d_9">
      <defs>
       <path id="m75b1ca11fa" d="M 0 0 
L -3.5 0 
" style="stroke: #000000; stroke-width: 0.8"/>
      </defs>
      <g>
       <use xlink:href="#m75b1ca11fa" x="225" y="316.348878" style="stroke: #000000; stroke-width: 0.8"/>
      </g>
     </g>
     <g id="text_10">
      <!-- −0.004 -->
      <g transform="translate(162.488281 322.047707) scale(0.15 -0.15)">
       <defs>
        <path id="DejaVuSans-2212" d="M 678 2272 
L 4684 2272 
L 4684 1741 
L 678 1741 
L 678 2272 
z
" transform="scale(0.015625)"/>
        <path id="DejaVuSans-2e" d="M 684 794 
L 1344 794 
L 1344 0 
L 684 0 
L 684 794 
z
" transform="scale(0.015625)"/>
       </defs>
       <use xlink:href="#DejaVuSans-2212"/>
       <use xlink:href="#DejaVuSans-30" x="83.789062"/>
       <use xlink:href="#DejaVuSans-2e" x="147.412109"/>
       <use xlink:href="#DejaVuSans-30" x="179.199219"/>
       <use xlink:href="#DejaVuSans-30" x="242.822266"/>
       <use xlink:href="#DejaVuSans-34" x="306.445312"/>
      </g>
     </g>
    </g>
    <g id="ytick_2">
     <g id="line2d_10">
      <g>
       <use xlink:href="#m75b1ca11fa" x="225" y="267.199699" style="stroke: #000000; stroke-width: 0.8"/>
      </g>
     </g>
     <g id="text_11">
      <!-- −0.002 -->
      <g transform="translate(162.488281 272.898528) scale(0.15 -0.15)">
       <use xlink:href="#DejaVuSans-2212"/>
       <use xlink:href="#DejaVuSans-30" x="83.789062"/>
       <use xlink:href="#DejaVuSans-2e" x="147.412109"/>
       <use xlink:href="#DejaVuSans-30" x="179.199219"/>
       <use xlink:href="#DejaVuSans-30" x="242.822266"/>
       <use xlink:href="#DejaVuSans-32" x="306.445312"/>
      </g>
     </g>
    </g>
    <g id="ytick_3">
     <g id="line2d_11">
      <g>
       <use xlink:href="#m75b1ca11fa" x="225" y="218.05052" style="stroke: #000000; stroke-width: 0.8"/>
      </g>
     </g>
     <g id="text_12">
      <!-- 0.000 -->
      <g transform="translate(175.057813 223.749349) scale(0.15 -0.15)">
       <use xlink:href="#DejaVuSans-30"/>
       <use xlink:href="#DejaVuSans-2e" x="63.623047"/>
       <use xlink:href="#DejaVuSans-30" x="95.410156"/>
       <use xlink:href="#DejaVuSans-30" x="159.033203"/>
       <use xlink:href="#DejaVuSans-30" x="222.65625"/>
      </g>
     </g>
    </g>
    <g id="ytick_4">
     <g id="line2d_12">
      <g>
       <use xlink:href="#m75b1ca11fa" x="225" y="168.901341" style="stroke: #000000; stroke-width: 0.8"/>
      </g>
     </g>
     <g id="text_13">
      <!-- 0.002 -->
      <g transform="translate(175.057813 174.60017) scale(0.15 -0.15)">
       <use xlink:href="#DejaVuSans-30"/>
       <use xlink:href="#DejaVuSans-2e" x="63.623047"/>
       <use xlink:href="#DejaVuSans-30" x="95.410156"/>
       <use xlink:href="#DejaVuSans-30" x="159.033203"/>
       <use xlink:href="#DejaVuSans-32" x="222.65625"/>
      </g>
     </g>
    </g>
    <g id="ytick_5">
     <g id="line2d_13">
      <g>
       <use xlink:href="#m75b1ca11fa" x="225" y="119.752162" style="stroke: #000000; stroke-width: 0.8"/>
      </g>
     </g>
     <g id="text_14">
      <!-- 0.004 -->
      <g transform="translate(175.057813 125.450991) scale(0.15 -0.15)">
       <use xlink:href="#DejaVuSans-30"/>
       <use xlink:href="#DejaVuSans-2e" x="63.623047"/>
       <use xlink:href="#DejaVuSans-30" x="95.410156"/>
       <use xlink:href="#DejaVuSans-30" x="159.033203"/>
       <use xlink:href="#DejaVuSans-34" x="222.65625"/>
      </g>
     </g>
    </g>
    <g id="ytick_6">
     <g id="line2d_14">
      <g>
       <use xlink:href="#m75b1ca11fa" x="225" y="70.602983" style="stroke: #000000; stroke-width: 0.8"/>
      </g>
     </g>
     <g id="text_15">
      <!-- 0.006 -->
      <g transform="translate(175.057813 76.301812) scale(0.15 -0.15)">
       <use xlink:href="#DejaVuSans-30"/>
       <use xlink:href="#DejaVuSans-2e" x="63.623047"/>
       <use xlink:href="#DejaVuSans-30" x="95.410156"/>
       <use xlink:href="#DejaVuSans-30" x="159.033203"/>
       <use xlink:href="#DejaVuSans-36" x="222.65625"/>
      </g>
     </g>
    </g>
    <g id="text_16">
     <!-- East(m) -->
     <g transform="translate(155.36875 211.140234) rotate(-90) scale(0.15 -0.15)">
      <defs>
       <path id="DejaVuSans-45" d="M 628 4666 
L 3578 4666 
L 3578 4134 
L 1259 4134 
L 1259 2753 
L 3481 2753 
L 3481 2222 
L 1259 2222 
L 1259 531 
L 3634 531 
L 3634 0 
L 628 0 
L 628 4666 
z
" transform="scale(0.015625)"/>
       <path id="DejaVuSans-61" d="M 2194 1759 
Q 1497 1759 1228 1600 
Q 959 1441 959 1056 
Q 959 750 1161 570 
Q 1363 391 1709 391 
Q 2188 391 2477 730 
Q 2766 1069 2766 1631 
L 2766 1759 
L 2194 1759 
z
M 3341 1997 
L 3341 0 
L 2766 0 
L 2766 531 
Q 2569 213 2275 61 
Q 1981 -91 1556 -91 
Q 1019 -91 701 211 
Q 384 513 384 1019 
Q 384 1609 779 1909 
Q 1175 2209 1959 2209 
L 2766 2209 
L 2766 2266 
Q 2766 2663 2505 2880 
Q 2244 3097 1772 3097 
Q 1472 3097 1187 3025 
Q 903 2953 641 2809 
L 641 3341 
Q 956 3463 1253 3523 
Q 1550 3584 1831 3584 
Q 2591 3584 2966 3190 
Q 3341 2797 3341 1997 
z
" transform="scale(0.015625)"/>
       <path id="DejaVuSans-73" d="M 2834 3397 
L 2834 2853 
Q 2591 2978 2328 3040 
Q 2066 3103 1784 3103 
Q 1356 3103 1142 2972 
Q 928 2841 928 2578 
Q 928 2378 1081 2264 
Q 1234 2150 1697 2047 
L 1894 2003 
Q 2506 1872 2764 1633 
Q 3022 1394 3022 966 
Q 3022 478 2636 193 
Q 2250 -91 1575 -91 
Q 1294 -91 989 -36 
Q 684 19 347 128 
L 347 722 
Q 666 556 975 473 
Q 1284 391 1588 391 
Q 1994 391 2212 530 
Q 2431 669 2431 922 
Q 2431 1156 2273 1281 
Q 2116 1406 1581 1522 
L 1381 1569 
Q 847 1681 609 1914 
Q 372 2147 372 2553 
Q 372 3047 722 3315 
Q 1072 3584 1716 3584 
Q 2034 3584 2315 3537 
Q 2597 3491 2834 3397 
z
" transform="scale(0.015625)"/>
       <path id="DejaVuSans-74" d="M 1172 4494 
L 1172 3500 
L 2356 3500 
L 2356 3053 
L 1172 3053 
L 1172 1153 
Q 1172 725 1289 603 
Q 1406 481 1766 481 
L 2356 481 
L 2356 0 
L 1766 0 
Q 1100 0 847 248 
Q 594 497 594 1153 
L 594 3053 
L 172 3053 
L 172 3500 
L 594 3500 
L 594 4494 
L 1172 4494 
z
" transform="scale(0.015625)"/>
       <path id="DejaVuSans-28" d="M 1984 4856 
Q 1566 4138 1362 3434 
Q 1159 2731 1159 2009 
Q 1159 1288 1364 580 
Q 1569 -128 1984 -844 
L 1484 -844 
Q 1016 -109 783 600 
Q 550 1309 550 2009 
Q 550 2706 781 3412 
Q 1013 4119 1484 4856 
L 1984 4856 
z
" transform="scale(0.015625)"/>
       <path id="DejaVuSans-29" d="M 513 4856 
L 1013 4856 
Q 1481 4119 1714 3412 
Q 1947 2706 1947 2009 
Q 1947 1309 1714 600 
Q 1481 -109 1013 -844 
L 513 -844 
Q 928 -128 1133 580 
Q 1338 1288 1338 2009 
Q 1338 2731 1133 3434 
Q 928 4138 513 4856 
z
" transform="scale(0.015625)"/>
      </defs>
      <use xlink:href="#DejaVuSans-45"/>
      <use xlink:href="#DejaVuSans-61" x="63.183594"/>
      <use xlink:href="#DejaVuSans-73" x="124.462891"/>
      <use xlink:href="#DejaVuSans-74" x="176.5625"/>
      <use xlink:href="#DejaVuSans-28" x="215.771484"/>
      <use xlink:href="#DejaVuSans-6d" x="254.785156"/>
      <use xlink:href="#DejaVuSans-29" x="352.197266"/>
     </g>
    </g>
   </g>
   <g id="line2d_15">
    <path d="M 288.409091 222.624765 
L 288.872269 222.474387 
L 289.335447 245.121037 
L 289.798625 252.781283 
L 290.261804 248.755493 
L 290.724982 248.351997 
L 291.18816 247.069433 
L 291.651338 246.737082 
L 292.114516 245.00749 
L 292.577694 233.577957 
L 293.040873 226.870255 
L 293.504051 223.181718 
L 293.967229 220.641164 
L 294.430407 218.872955 
L 294.893585 220.899765 
L 295.356763 227.156915 
L 295.819942 229.278512 
L 296.28312 230.143294 
L 296.746298 231.724251 
L 297.209476 237.008949 
L 297.672654 239.277994 
L 298.135832 237.257017 
L 298.599011 233.480713 
L 299.062189 234.770285 
L 299.525367 240.19892 
L 299.988545 242.611902 
L 300.451723 233.685466 
L 300.914901 231.34502 
L 301.841258 237.571735 
L 302.304436 244.783783 
L 302.767614 243.622917 
L 303.69397 244.192805 
L 304.157149 248.403242 
L 304.620327 247.410888 
L 305.083505 240.246801 
L 305.546683 235.764855 
L 307.862574 200.42187 
L 308.325752 200.538883 
L 308.78893 197.341837 
L 309.252108 192.765104 
L 309.715287 194.676062 
L 310.178465 205.054721 
L 310.641643 212.115811 
L 311.104821 221.20606 
L 311.567999 226.487247 
L 312.031177 226.937772 
L 312.494356 231.980235 
L 313.420712 235.535341 
L 313.88389 233.335322 
L 314.347068 231.851476 
L 314.810246 230.74327 
L 315.273425 230.31262 
L 315.736603 226.817169 
L 316.199781 228.04706 
L 316.662959 225.738209 
L 317.589315 231.490986 
L 318.052494 232.373322 
L 318.515672 231.377457 
L 318.97885 233.390224 
L 319.442028 228.020082 
L 319.905206 228.182734 
L 320.831563 228.675387 
L 321.294741 231.89933 
L 321.757919 234.077098 
L 322.221097 235.303478 
L 322.684275 231.369194 
L 323.147453 232.269084 
L 324.07381 207.317666 
L 324.536988 200.490602 
L 325.000166 196.721319 
L 326.389701 213.533822 
L 327.316057 246.1712 
L 327.779235 254.689212 
L 328.242413 260.08274 
L 328.705591 261.351248 
L 329.16877 267.225736 
L 329.631948 268.072966 
L 330.095126 263.766553 
L 331.021482 250.800513 
L 331.947839 242.20524 
L 332.411017 233.73519 
L 332.874195 222.182783 
L 333.337373 214.049755 
L 333.800551 209.581852 
L 334.263729 210.506316 
L 334.726907 214.681647 
L 335.190086 216.322284 
L 335.653264 214.645352 
L 336.116442 222.046976 
L 336.57962 223.680592 
L 337.042798 221.445465 
L 337.505976 218.41342 
L 337.969155 209.402729 
L 338.895511 204.165992 
L 339.358689 202.475017 
L 339.821867 198.126476 
L 340.285045 196.221351 
L 340.748224 197.100177 
L 341.211402 196.100801 
L 341.67458 193.591844 
L 342.137758 198.901116 
L 342.600936 207.004871 
L 343.527293 217.212669 
L 343.990471 228.767398 
L 344.453649 225.802056 
L 344.916827 231.634416 
L 345.380005 227.707154 
L 346.306362 224.538193 
L 346.76954 230.377575 
L 347.232718 233.001196 
L 347.695896 223.730716 
L 349.548609 245.968343 
L 350.011787 237.05595 
L 350.474965 234.543482 
L 351.401321 247.64055 
L 351.8645 242.028173 
L 352.327678 245.933183 
L 352.790856 242.627307 
L 353.717212 255.147466 
L 354.18039 267.42539 
L 354.643569 268.707941 
L 355.106747 263.738014 
L 355.569925 273.270605 
L 356.496281 257.215189 
L 357.422638 256.152622 
L 357.885816 248.665555 
L 358.348994 248.52629 
L 358.812172 251.378103 
L 360.201707 273.498718 
L 361.128063 269.803159 
L 361.591241 270.657409 
L 362.054419 275.211891 
L 362.517597 270.206858 
L 362.980776 263.727349 
L 363.443954 271.666102 
L 363.907132 275.497389 
L 364.833488 279.381335 
L 365.296666 280.20399 
L 365.759845 271.481172 
L 366.223023 275.273842 
L 366.686201 274.060316 
L 367.612557 261.989494 
L 368.538914 248.09548 
L 369.002092 247.907066 
L 369.46527 252.447505 
L 369.928448 250.784616 
L 370.391626 246.35884 
L 370.854804 244.804781 
L 371.317983 249.334688 
L 372.244339 262.862406 
L 372.707517 265.23677 
L 373.170695 270.198488 
L 373.633873 271.983063 
L 374.097052 277.183505 
L 375.023408 299.973493 
L 375.949764 299.767526 
L 376.412942 302.714127 
L 376.876121 299.116867 
L 377.339299 296.390249 
L 377.802477 297.89046 
L 378.265655 287.479017 
L 378.728833 280.771315 
L 379.65519 277.605865 
L 380.118368 277.203301 
L 380.581546 278.015424 
L 381.044724 283.640655 
L 381.507902 281.942659 
L 381.97108 281.929778 
L 382.897437 274.882704 
L 383.360615 275.845785 
L 383.823793 274.628749 
L 384.750149 270.311804 
L 385.676506 260.765143 
L 386.139684 259.24268 
L 387.06604 266.398557 
L 387.529218 260.631711 
L 388.455575 265.263428 
L 389.381931 267.821507 
L 390.308287 274.51514 
L 390.771466 275.372901 
L 391.234644 278.063225 
L 391.697822 265.457622 
L 392.624178 260.004385 
L 393.087356 260.999062 
L 393.550535 257.721271 
L 394.940069 236.898385 
L 395.403247 239.507963 
L 395.866425 236.584748 
L 396.329604 247.026599 
L 396.792782 243.446892 
L 397.25596 246.021364 
L 397.719138 258.671417 
L 398.182316 259.687158 
L 398.645494 260.155237 
L 399.108673 255.789143 
L 399.571851 247.582391 
L 400.035029 255.12093 
L 400.498207 258.253596 
L 400.961385 255.491871 
L 401.887742 262.001788 
L 402.814098 292.364261 
L 403.277276 296.736189 
L 403.740454 290.390085 
L 404.203632 282.053439 
L 406.056345 266.621758 
L 406.519523 258.544901 
L 406.982701 245.728658 
L 407.909058 231.927083 
L 408.372236 231.64037 
L 409.298592 230.619931 
L 409.76177 245.092015 
L 410.688127 246.516153 
L 411.151305 244.937519 
L 411.614483 248.677529 
L 412.077661 246.691659 
L 413.930374 248.311233 
L 414.393552 245.373975 
L 414.85673 239.252553 
L 415.319908 235.058481 
L 415.783087 233.346442 
L 416.709443 231.146422 
L 417.172621 235.03388 
L 417.635799 233.992376 
L 418.098977 228.446702 
L 418.562156 229.508081 
L 419.025334 226.946464 
L 419.488512 226.982732 
L 419.95169 224.319305 
L 420.414868 213.623499 
L 420.878046 207.270373 
L 421.341225 209.12165 
L 421.804403 206.507373 
L 422.267581 207.975989 
L 422.730759 204.161067 
L 423.657115 204.646699 
L 424.120294 210.443953 
L 424.583472 214.566624 
L 425.04665 215.529705 
L 425.509828 219.698014 
L 425.973006 212.344352 
L 426.436184 209.340392 
L 426.899363 207.723141 
L 427.362541 207.01515 
L 427.825719 199.749254 
L 428.752075 191.340046 
L 429.215253 194.384946 
L 429.678432 199.192195 
L 430.14161 194.829611 
L 430.604788 194.683325 
L 431.067966 203.763042 
L 431.994322 212.517429 
L 432.4575 212.616889 
L 432.920679 214.397952 
L 433.383857 206.092902 
L 434.310213 194.622402 
L 435.236569 187.122454 
L 435.699748 185.459564 
L 436.162926 180.212296 
L 436.626104 191.15266 
L 437.55246 197.607568 
L 438.015638 200.954384 
L 438.478817 205.793229 
L 439.405173 211.430154 
L 439.868351 205.164795 
L 440.331529 204.060099 
L 440.794707 197.517399 
L 441.257886 189.06139 
L 441.721064 186.166261 
L 442.184242 179.718348 
L 442.64742 180.354938 
L 443.110598 183.901861 
L 443.573776 185.17388 
L 444.036955 190.377833 
L 444.500133 192.559111 
L 444.963311 189.520045 
L 445.426489 193.298672 
L 445.889667 188.848322 
L 446.352845 192.293436 
L 446.816024 192.378853 
L 447.279202 187.900418 
L 447.74238 187.838388 
L 448.205558 186.417733 
L 448.668736 188.665714 
L 449.131914 194.480521 
L 449.595093 196.387969 
L 450.984627 209.145665 
L 451.447805 210.421194 
L 451.910983 208.516069 
L 452.374162 210.883413 
L 452.83734 209.908612 
L 453.300518 204.145276 
L 453.763696 201.941746 
L 454.226874 193.534887 
L 454.690052 189.986775 
L 455.153231 187.43569 
L 455.616409 183.269703 
L 456.079587 181.771815 
L 456.542765 185.855868 
L 457.005943 187.324484 
L 457.9323 195.085355 
L 458.395478 193.752468 
L 458.858656 186.879765 
L 459.321834 183.612506 
L 459.785012 182.883451 
L 460.24819 178.875444 
L 461.174547 180.544166 
L 461.637725 175.992007 
L 462.100903 175.350719 
L 463.027259 171.807279 
L 463.490438 161.978605 
L 463.953616 159.599541 
L 464.416794 152.825137 
L 465.34315 158.288879 
L 465.806328 159.167704 
L 466.269507 158.730034 
L 466.732685 157.281294 
L 467.195863 158.016182 
L 467.659041 156.742976 
L 468.122219 160.816498 
L 468.585397 155.927316 
L 469.048576 157.399442 
L 469.511754 160.405724 
L 470.43811 168.77745 
L 470.901288 175.41024 
L 471.364466 178.518331 
L 471.827645 185.175696 
L 472.290823 188.417192 
L 472.754001 193.86338 
L 473.217179 192.397088 
L 473.680357 195.719329 
L 474.606714 185.667134 
L 475.069892 177.042615 
L 475.53307 176.524199 
L 475.996248 178.779201 
L 476.459426 182.929957 
L 476.922604 177.068324 
L 477.385783 172.954997 
L 478.775317 178.15895 
L 479.238495 186.750685 
L 479.701673 185.961949 
L 480.164852 179.710633 
L 480.62803 177.257846 
L 481.091208 180.37998 
L 481.554386 186.616066 
L 482.017564 179.694214 
L 482.943921 168.595844 
L 483.407099 172.644791 
L 483.870277 173.179572 
L 484.333455 174.416484 
L 484.796633 174.210517 
L 485.259811 185.372052 
L 485.72299 186.942477 
L 486.186168 187.610663 
L 486.649346 186.972885 
L 488.03888 174.541626 
L 488.502059 162.143152 
L 488.965237 161.954738 
L 489.428415 161.527599 
L 489.891593 155.922243 
L 490.354771 157.18022 
L 490.817949 160.9764 
L 492.207484 184.013295 
L 492.670662 184.720098 
L 493.13384 190.268096 
L 493.597018 192.772354 
L 494.060197 191.987129 
L 494.523375 186.515178 
L 494.986553 184.030795 
L 495.449731 179.134592 
L 495.912909 185.191634 
L 496.376087 185.975672 
L 496.839266 182.915541 
L 497.302444 184.306922 
L 497.765622 189.59162 
L 498.2288 188.816927 
L 498.691978 192.25502 
L 499.618335 195.887361 
L 500.081513 194.361387 
L 500.544691 190.265613 
L 501.007869 187.451228 
L 501.471047 187.326006 
L 502.397404 167.89685 
L 502.860582 162.512665 
L 503.786938 167.07884 
L 504.250116 166.90798 
L 504.713294 165.18892 
L 505.176473 167.278921 
L 505.639651 171.454252 
L 506.102829 170.756793 
L 507.029185 164.752384 
L 507.492363 172.185603 
L 508.41872 179.949985 
L 509.808254 176.752939 
L 510.271432 176.596121 
L 510.734611 178.163035 
L 511.197789 181.50634 
L 511.660967 174.373849 
L 513.050501 171.850849 
L 513.976858 174.288406 
L 514.440036 178.488311 
L 514.903214 173.328809 
L 515.366392 177.911376 
L 515.82957 178.119666 
L 516.292749 180.887224 
L 516.755927 186.154368 
L 517.219105 183.870093 
L 517.682283 191.580654 
L 518.145461 202.334954 
L 518.608639 206.341773 
L 519.071818 208.329965 
L 519.534996 206.52665 
L 519.998174 205.860786 
L 520.461352 208.379088 
L 520.92453 201.945217 
L 521.387708 201.893719 
L 521.850887 190.214929 
L 522.314065 189.650875 
L 522.777243 199.559106 
L 523.240421 204.190822 
L 523.703599 205.50848 
L 524.166777 207.977632 
L 524.629956 205.373887 
L 525.093134 210.556776 
L 525.556312 222.097462 
L 526.01949 216.186679 
L 526.482668 215.053899 
L 526.945846 215.960809 
L 527.409025 213.518554 
L 527.872203 217.834311 
L 528.335381 219.366119 
L 528.798559 204.80157 
L 529.261737 204.04794 
L 529.724915 211.877863 
L 530.651272 216.816168 
L 531.11445 211.151131 
L 531.577628 213.437729 
L 532.503984 227.331716 
L 532.967162 221.719339 
L 533.430341 226.382651 
L 533.893519 228.097013 
L 534.356697 233.641499 
L 534.819875 229.450938 
L 535.746231 230.965192 
L 536.20941 223.639615 
L 536.672588 223.293221 
L 537.135766 220.01543 
L 537.598944 219.932335 
L 538.062122 223.91107 
L 538.5253 235.521969 
L 538.988479 234.82451 
L 539.451657 236.493233 
L 539.914835 235.785242 
L 540.841191 231.735106 
L 541.304369 236.693313 
L 541.767548 237.480862 
L 542.230726 236.558721 
L 542.693904 236.854777 
L 543.157082 234.163265 
L 543.62026 235.175496 
L 544.083438 242.935206 
L 544.546617 247.089473 
L 545.009795 247.044996 
L 545.936151 244.381569 
L 546.399329 247.106999 
L 546.862507 259.388434 
L 547.325686 267.952085 
L 548.252042 266.665997 
L 548.71522 264.869702 
L 549.178398 265.523846 
L 549.641576 265.609263 
L 550.104755 256.321229 
L 550.567933 239.264115 
L 551.031111 238.956338 
L 551.494289 234.734181 
L 551.957467 233.369697 
L 552.420645 225.384117 
L 552.883824 222.253773 
L 553.347002 226.011336 
L 553.81018 232.465083 
L 554.273358 225.072803 
L 554.736536 219.90979 
L 555.199714 220.068931 
L 555.662893 225.616928 
L 556.126071 225.467131 
L 556.589249 218.348683 
L 557.052427 217.605585 
L 557.978783 228.729665 
L 558.441962 227.442416 
L 558.90514 223.406323 
L 559.368318 224.783661 
L 560.294674 239.16914 
L 560.757852 237.994232 
L 561.221031 239.85253 
L 561.684209 242.297108 
L 562.147387 250.899375 
L 562.610565 250.672344 
L 563.073743 245.600608 
L 563.536921 227.198912 
L 564.0001 220.69834 
L 564.463278 222.188019 
L 565.389634 219.77736 
L 565.852812 216.324036 
L 566.31599 216.202324 
L 566.779169 220.005526 
L 567.705525 243.430943 
L 568.168703 239.106976 
L 569.558238 249.528925 
L 570.021416 250.818497 
L 570.947772 248.953151 
L 571.41095 241.550339 
L 572.337307 231.066334 
L 572.800485 227.763968 
L 573.263663 222.6817 
L 573.726841 219.460079 
L 574.190019 222.178488 
L 574.653197 220.283895 
L 575.116376 222.689856 
L 576.042732 211.419463 
L 576.50591 213.614784 
L 576.969088 213.517647 
L 577.432266 210.113473 
L 577.895445 213.161883 
L 578.358623 211.460376 
L 578.821801 215.038896 
L 579.284979 216.956875 
L 579.748157 215.023665 
L 580.211335 219.128783 
L 580.674514 219.681117 
L 581.137692 217.856738 
L 581.60087 221.12983 
L 582.064048 221.088864 
L 582.527226 222.589075 
L 582.990404 221.024484 
L 583.453583 218.954358 
L 583.916761 218.794029 
L 584.843117 214.13304 
L 585.306295 205.529584 
L 586.232652 192.665354 
L 586.69583 195.36621 
L 587.159008 190.887774 
L 587.622186 187.841687 
L 588.548542 200.650881 
L 589.011721 205.293129 
L 589.474899 213.649651 
L 590.864433 226.354687 
L 591.327611 221.163589 
L 591.79079 220.757514 
L 592.253968 217.36036 
L 592.717146 209.441483 
L 593.180324 199.030039 
L 593.643502 194.892138 
L 594.10668 187.092622 
L 595.033037 186.138885 
L 595.496215 181.274278 
L 595.959393 180.408307 
L 596.422571 180.851811 
L 596.885749 182.941813 
L 597.348928 182.030203 
L 597.812106 186.795324 
L 598.275284 185.616905 
L 598.738462 186.316687 
L 599.20164 184.509861 
L 599.664818 186.304967 
L 600.591175 182.406952 
L 601.054353 175.021693 
L 601.517531 173.025292 
L 601.980709 166.728337 
L 602.443887 168.730572 
L 602.907066 167.622366 
L 603.370244 168.490659 
L 603.833422 168.526927 
L 604.2966 168.872133 
L 604.759778 171.9065 
L 605.222956 176.963006 
L 605.686135 175.58448 
L 606.149313 176.126282 
L 606.612491 181.319703 
L 607.538847 188.401857 
L 608.002025 193.195063 
L 608.465204 190.721212 
L 608.928382 193.692388 
L 609.39156 212.938964 
L 610.317916 213.070019 
L 610.781094 205.175716 
L 611.244273 191.790747 
L 611.707451 182.232393 
L 612.170629 184.311863 
L 612.633807 176.533411 
L 613.096985 151.457959 
L 613.560163 145.684092 
L 614.023342 146.780578 
L 614.48652 152.226766 
L 614.949698 155.524433 
L 615.412876 153.061114 
L 615.876054 156.24293 
L 616.339232 157.300798 
L 616.802411 162.494219 
L 617.265589 161.396545 
L 617.728767 159.375569 
L 618.655123 173.480195 
L 619.118301 172.389543 
L 620.971014 165.873739 
L 621.89737 174.2759 
L 622.360549 174.442062 
L 622.823727 170.950121 
L 623.286905 174.813003 
L 623.750083 181.754731 
L 624.213261 184.789099 
L 624.676439 192.727852 
L 625.139618 186.98207 
L 625.602796 178.434785 
L 626.065974 177.642538 
L 626.529152 177.998276 
L 626.99233 177.690499 
L 627.455508 176.77889 
L 627.918686 194.291202 
L 628.381865 195.500029 
L 628.845043 201.669412 
L 629.308221 205.304102 
L 630.697755 218.960526 
L 631.160934 199.898827 
L 631.624112 197.625084 
L 632.08729 198.110715 
L 632.550468 192.340359 
L 633.013646 193.966954 
L 633.476824 194.793119 
L 633.940003 197.581741 
L 634.403181 199.218868 
L 635.329537 219.681292 
L 635.792715 226.917914 
L 636.255893 222.425436 
L 637.645428 214.108666 
L 638.108606 205.894894 
L 638.571784 194.935788 
L 639.034962 190.148415 
L 639.498141 204.51869 
L 639.961319 203.912508 
L 640.424497 201.526423 
L 640.887675 198.315335 
L 641.350853 192.980299 
L 641.814031 189.674423 
L 642.27721 188.334514 
L 642.740388 169.809945 
L 643.203566 167.15003 
L 643.666744 167.151191 
L 644.129922 166.759159 
L 645.056279 179.161117 
L 645.519457 180.376966 
L 645.982635 180.174509 
L 647.372169 173.147338 
L 647.835348 172.874668 
L 648.298526 175.512332 
L 648.761704 170.236977 
L 649.68806 167.307903 
L 650.151238 157.307206 
L 650.614417 164.157656 
L 651.077595 162.087531 
L 651.540773 167.768933 
L 652.003951 167.935095 
L 652.467129 161.445054 
L 652.930307 157.444068 
L 653.393486 168.387943 
L 653.856664 168.466339 
L 654.319842 162.818855 
L 654.78302 152.625073 
L 655.246198 152.850916 
L 656.635733 163.40392 
L 657.098911 157.99165 
L 657.562089 157.037913 
L 659.87798 158.815467 
L 660.804336 173.355414 
L 661.267514 175.564778 
L 661.730693 171.563792 
L 662.193871 176.651893 
L 662.657049 185.566609 
L 663.120227 188.253422 
L 663.583405 184.308606 
L 664.509762 168.976385 
L 664.97294 165.168485 
L 665.436118 165.798054 
L 665.899296 161.719833 
L 666.362474 161.53493 
L 666.825652 163.477484 
L 667.288831 159.016602 
L 667.752009 157.367755 
L 668.215187 156.213911 
L 668.678365 152.051434 
L 669.141543 155.370165 
L 669.604721 155.06941 
L 670.0679 152.59907 
L 670.531078 164.016883 
L 670.994256 171.664253 
L 671.457434 177.184165 
L 671.920612 187.141545 
L 672.38379 182.887792 
L 673.310147 189.82717 
L 673.773325 191.243126 
L 674.236503 197.156231 
L 674.699681 194.001313 
L 675.626038 191.327355 
L 676.089216 201.853462 
L 676.552394 208.696891 
L 677.015572 210.358593 
L 677.47875 210.71433 
L 677.941928 208.45814 
L 678.405107 215.582421 
L 679.331463 201.148928 
L 679.794641 190.144184 
L 680.257819 187.572035 
L 680.720997 180.832737 
L 681.184176 180.268683 
L 682.57371 196.912675 
L 683.036888 198.893846 
L 683.500066 196.946593 
L 683.963245 198.948828 
L 684.426423 196.987533 
L 684.889601 189.960362 
L 685.352779 188.146514 
L 685.815957 185.356704 
L 686.279135 192.835562 
L 686.742314 197.85345 
L 687.205492 200.185687 
L 687.66867 207.973483 
L 689.058204 219.730642 
L 689.521383 218.443392 
L 689.984561 215.523688 
L 690.447739 216.142725 
L 690.910917 212.994828 
L 691.374095 206.701384 
L 691.837273 206.635843 
L 692.300452 205.668063 
L 692.76363 205.125073 
L 693.689986 207.02666 
L 694.153164 207.621122 
L 694.616342 218.059463 
L 695.079521 223.828631 
L 695.542699 223.952666 
L 696.005877 227.471504 
L 696.469055 226.275532 
L 696.932233 227.161378 
L 697.85859 236.301938 
L 698.321768 235.414903 
L 698.784946 238.214057 
L 699.248124 238.348623 
L 699.711302 250.724846 
L 700.17448 253.190487 
L 700.637659 253.988567 
L 701.100837 247.491505 
L 701.564015 247.110005 
L 702.027193 247.634254 
L 702.490371 246.575197 
L 702.953549 235.637156 
L 703.416728 238.411735 
L 703.879906 242.87494 
L 704.343084 244.455896 
L 704.806262 244.239397 
L 705.26944 247.438765 
L 706.195797 258.348695 
L 706.658975 256.426017 
L 707.122153 251.930028 
L 707.585331 254.455351 
L 708.048509 259.132706 
L 708.511687 259.123335 
L 708.974866 260.279502 
L 709.438044 265.493987 
L 709.901222 265.280999 
L 710.3644 264.334283 
L 710.827578 264.279274 
L 711.290756 266.537787 
L 711.753935 267.055014 
L 712.217113 258.665709 
L 712.680291 260.524007 
L 713.143469 271.306392 
L 713.606647 273.140115 
L 714.069825 272.828828 
L 714.533004 271.713601 
L 714.996182 268.495491 
L 715.45936 272.168798 
L 715.922538 268.255578 
L 716.385716 261.007236 
L 716.848894 260.643289 
L 717.312073 260.567216 
L 717.775251 251.008862 
L 718.238429 254.513658 
L 718.701607 249.929903 
L 719.164785 248.495206 
L 719.627963 255.63353 
L 720.091142 259.647371 
L 720.55432 259.293956 
L 721.017498 264.571633 
L 721.480676 262.46289 
L 721.943854 264.830233 
L 722.407032 258.814131 
L 723.796567 227.586822 
L 724.259745 227.595005 
L 724.722923 229.878092 
L 725.186101 220.642719 
L 725.64928 220.942286 
L 726.112458 214.15735 
L 726.575636 214.221703 
L 727.038814 221.542581 
L 727.501992 222.926941 
L 727.96517 212.69103 
L 728.428348 216.248486 
L 728.891527 222.642551 
L 729.354705 230.602369 
L 729.817883 231.396938 
L 730.281061 230.358945 
L 730.744239 231.104366 
L 731.207417 236.062573 
L 731.670596 237.569805 
L 732.596952 233.843812 
L 733.06013 237.590843 
L 733.523308 231.999529 
L 733.986486 223.494372 
L 734.912843 215.271229 
L 735.376021 211.140348 
L 735.839199 211.134488 
L 736.302377 209.942027 
L 736.765555 210.136274 
L 737.228734 210.979993 
L 737.691912 220.579287 
L 738.15509 223.150248 
L 739.544624 211.863463 
L 740.007803 214.437935 
L 740.470981 213.550901 
L 740.934159 214.633344 
L 741.397337 216.15813 
L 741.860515 220.684526 
L 742.323693 223.564425 
L 742.786872 220.953659 
L 743.713228 232.025079 
L 744.176406 220.135649 
L 744.639584 225.020133 
L 745.102762 227.159283 
L 745.565941 221.230947 
L 746.029119 224.363613 
L 746.492297 218.421235 
L 746.955475 208.32575 
L 747.418653 204.633702 
L 747.881831 198.635153 
L 748.34501 190.63553 
L 748.808188 185.584858 
L 749.271366 187.3589 
L 749.734544 182.876954 
L 750.197722 190.380387 
L 750.6609 195.226253 
L 751.124079 191.225267 
L 751.587257 193.417077 
L 752.050435 201.215405 
L 752.513613 196.972183 
L 752.976791 200.53666 
L 753.439969 201.847296 
L 753.903148 203.860063 
L 754.366326 208.502311 
L 754.829504 208.405174 
L 755.75586 203.411834 
L 756.219038 205.340345 
L 756.682217 196.880826 
L 757.145395 193.904952 
L 757.608573 183.763829 
L 758.071751 185.650212 
L 758.534929 189.527137 
L 758.998107 192.354376 
L 759.461286 189.740099 
L 759.924464 189.990517 
L 760.387642 191.848815 
L 760.85082 196.227764 
L 761.313998 196.330735 
L 761.777176 195.426147 
L 762.240355 199.82616 
L 762.703533 193.44846 
L 763.629889 196.251124 
L 764.093067 195.493984 
L 764.556245 195.298549 
L 765.482602 190.403507 
L 765.94578 184.552405 
L 766.408958 197.665865 
L 766.872136 198.109369 
L 767.335314 207.375151 
L 767.798493 211.266118 
L 768.261671 212.531116 
L 768.724849 212.381319 
L 769.651205 200.099857 
L 770.114383 201.02081 
L 770.577562 191.943416 
L 771.04074 193.812246 
L 771.503918 196.50257 
L 771.967096 195.127554 
L 772.430274 209.554 
L 772.893452 213.929438 
L 773.356631 211.606545 
L 773.819809 214.440806 
L 774.282987 214.631542 
L 774.746165 218.462829 
L 775.209343 223.508803 
L 775.672521 219.335794 
L 776.1357 217.830884 
L 776.598878 221.802597 
L 777.062056 223.671427 
L 777.525234 227.741439 
L 777.988412 227.303768 
L 778.45159 228.245785 
L 778.914769 230.721958 
L 779.377947 232.148446 
L 779.841125 229.053209 
L 780.304303 230.023311 
L 780.767481 228.090101 
L 781.230659 223.73805 
L 781.693838 216.430026 
L 782.157016 213.675323 
L 783.083372 205.996331 
L 783.54655 199.457141 
L 784.009728 198.064572 
L 784.472907 200.758406 
L 784.936085 209.5011 
L 785.399263 211.633229 
L 785.862441 210.876089 
L 786.325619 212.155129 
L 786.788797 218.4193 
L 787.251976 217.795564 
L 787.715154 214.977669 
L 788.178332 215.259683 
L 788.64151 214.737757 
L 789.104688 211.519647 
L 789.567866 205.780886 
L 790.494223 187.018754 
L 790.957401 187.269172 
L 791.420579 182.997866 
L 791.883757 175.387925 
L 792.346935 173.42312 
L 792.810114 180.182293 
L 793.73647 199.830245 
L 794.662826 197.090745 
L 795.589183 215.351988 
L 796.052361 218.948061 
L 796.515539 212.015677 
L 796.978717 213.101631 
L 797.441895 218.565373 
L 797.905073 221.613783 
L 798.368252 219.329507 
L 798.83143 218.653112 
L 799.294608 216.969159 
L 799.757786 221.049702 
L 800.220964 221.268524 
L 800.684142 220.262127 
L 801.147321 224.844694 
L 801.610499 226.710014 
L 802.073677 223.242647 
L 802.536855 215.278131 
L 803.000033 214.050563 
L 803.463211 213.693637 
L 803.92639 212.652134 
L 804.389568 208.682744 
L 806.24228 202.887812 
L 806.705459 203.412061 
L 807.168637 205.786426 
L 807.631815 206.816209 
L 808.094993 206.346943 
L 808.558171 207.204704 
L 809.021349 205.148621 
L 809.947706 208.549259 
L 810.410884 212.56661 
L 810.874062 212.037662 
L 811.33724 205.322939 
L 811.800418 202.736747 
L 812.726775 205.353347 
L 813.189953 200.516825 
L 813.653131 199.527982 
L 814.116309 195.474336 
L 814.579487 186.463644 
L 815.042666 187.321405 
L 815.969022 178.540067 
L 816.4322 182.919016 
L 816.895378 189.699254 
L 817.358556 199.919934 
L 818.748091 215.507218 
L 819.674447 209.708776 
L 820.137625 204.74587 
L 820.600804 190.241003 
L 821.063982 181.591908 
L 821.52716 187.368098 
L 821.990338 185.111908 
L 822.453516 183.761467 
L 822.916694 190.878727 
L 824.306229 217.517556 
L 824.769407 218.329678 
L 825.232585 218.832863 
L 825.695763 221.821593 
L 826.62212 222.318918 
L 827.085298 227.701914 
L 827.548476 228.092758 
L 828.011654 227.132 
L 828.474832 229.064022 
L 828.93801 227.274749 
L 829.401189 227.072292 
L 829.864367 224.008651 
L 830.327545 216.858607 
L 830.790723 211.428784 
L 831.253901 214.280598 
L 837.275217 209.061414 
L 837.738396 202.322117 
L 838.201574 203.485305 
L 838.664752 198.771656 
L 839.12793 205.386892 
L 840.054286 207.287318 
L 840.517465 198.448649 
L 840.980643 196.820866 
L 841.443821 201.55088 
L 841.906999 194.281474 
L 842.370177 193.23646 
L 842.833355 182.028098 
L 843.296534 176.043591 
L 843.759712 173.924316 
L 844.22289 181.515515 
L 844.686068 180.828588 
L 845.149246 187.426271 
L 845.612424 192.331819 
L 846.075603 200.642702 
L 846.538781 204.330052 
L 847.001959 210.172944 
L 847.465137 203.777691 
L 847.928315 205.067263 
L 848.391493 201.589364 
L 848.854672 199.463068 
L 849.31785 203.083715 
L 849.781028 201.613912 
L 850.244206 201.888905 
L 850.707384 205.839553 
L 851.170562 207.750511 
L 851.633741 215.187241 
L 852.096919 220.629919 
L 852.560097 208.533361 
L 853.023275 203.135134 
L 853.486453 202.644803 
L 853.949631 206.90439 
L 854.41281 213.726755 
L 854.875988 211.147585 
L 855.339166 207.360749 
L 855.802344 211.385121 
L 856.265522 227.208808 
L 856.7287 227.768163 
L 857.191879 227.667516 
L 857.655057 219.583637 
L 858.118235 219.676075 
L 859.044591 222.406177 
L 859.507769 210.878346 
L 859.970948 215.513572 
L 860.434126 212.941423 
L 860.897304 211.598003 
L 861.82366 203.53635 
L 862.286838 207.518595 
L 862.750017 208.941572 
L 863.213195 208.033473 
L 863.676373 206.34952 
L 864.139551 213.284226 
L 865.065907 219.660738 
L 865.529086 233.950268 
L 865.992264 233.923344 
L 866.455442 245.727329 
L 866.91862 250.120321 
L 867.381798 260.435789 
L 867.844976 266.373469 
L 868.308155 268.923366 
L 868.771333 264.525676 
L 869.234511 266.327803 
L 869.697689 264.296295 
L 870.160867 266.544276 
L 870.624045 262.746908 
L 871.087224 257.422405 
L 871.550402 255.039831 
L 872.01358 254.746097 
L 872.476758 259.767496 
L 872.939936 256.124597 
L 873.866293 238.987899 
L 874.329471 240.877793 
L 874.792649 247.896755 
L 875.255827 246.577909 
L 875.719005 234.541033 
L 876.182183 233.538146 
L 876.645362 249.410982 
L 877.10854 251.827474 
L 877.571718 243.996363 
L 878.034896 240.184952 
L 878.498074 235.390558 
L 878.961252 239.513229 
L 879.424431 238.268107 
L 879.887609 222.516957 
L 880.813965 222.079286 
L 881.277143 223.927052 
L 881.740321 216.499666 
L 882.2035 216.795723 
L 882.666678 219.254343 
L 883.129856 222.860948 
L 883.593034 229.788633 
L 884.056212 232.191082 
L 884.51939 233.922997 
L 884.982569 242.086433 
L 885.445747 247.065704 
L 885.908925 248.260488 
L 886.372103 233.896046 
L 886.835281 230.526978 
L 887.298459 235.165716 
L 887.761638 237.866571 
L 888.224816 238.102947 
L 888.687994 249.369802 
L 889.151172 252.797363 
L 889.61435 274.638313 
L 890.540707 283.490999 
L 891.003885 279.855121 
L 891.467063 279.284045 
L 891.930241 264.944178 
L 892.393419 261.926176 
L 892.856597 251.855266 
L 893.319776 247.081936 
L 893.782954 248.799808 
L 895.635666 271.076052 
L 896.562023 288.29463 
L 897.025201 277.521589 
L 897.488379 275.570826 
L 898.414735 264.781393 
L 899.80427 244.763608 
L 900.267448 249.570857 
L 900.730626 246.658174 
L 901.193804 233.659378 
L 901.656983 237.933007 
L 902.120161 236.677354 
L 902.583339 236.376599 
L 903.046517 236.3251 
L 903.509695 230.05623 
L 903.972873 230.661224 
L 904.436052 232.810907 
L 904.89923 228.128854 
L 905.362408 231.226413 
L 905.825586 229.823312 
L 906.288764 226.935204 
L 907.215121 219.24217 
L 907.678299 222.999733 
L 908.141477 227.761343 
L 908.604655 220.649916 
L 909.531011 212.697093 
L 909.99419 216.588061 
L 910.457368 214.833894 
L 910.920546 216.706235 
L 911.383724 212.259396 
L 911.846902 209.711821 
L 912.31008 212.191505 
L 912.773259 212.666605 
L 913.236437 212.330743 
L 913.699615 216.776395 
L 914.162793 212.150512 
L 914.625971 205.741216 
L 915.089149 207.115044 
L 915.552328 205.546942 
L 916.015506 209.135993 
L 916.478684 211.706955 
L 916.941862 210.430237 
L 917.40504 208.24426 
L 917.868218 210.534369 
L 919.257753 200.223547 
L 919.720931 192.055412 
L 920.184109 191.582635 
L 920.647287 196.063393 
L 921.573644 198.319557 
L 922.036822 198.527847 
L 922.5 202.362644 
L 922.963178 211.779384 
L 923.426356 212.071929 
L 923.889534 211.125214 
L 924.352713 213.180109 
L 925.279069 224.757063 
L 925.742247 224.09471 
L 926.668603 213.923153 
L 927.131782 210.227594 
L 927.59496 205.612243 
L 928.058138 191.848124 
L 928.521316 184.926272 
L 928.984494 175.992815 
L 929.447672 176.33451 
L 930.374029 172.741921 
L 930.837207 168.926999 
L 931.300385 175.795003 
L 931.763563 174.321689 
L 932.226741 180.519158 
L 932.68992 182.510861 
L 933.153098 185.934911 
L 933.616276 190.865033 
L 934.542632 197.579729 
L 935.00581 197.436954 
L 935.468989 199.82185 
L 935.932167 197.590235 
L 936.395345 194.073719 
L 936.858523 188.742195 
L 938.248058 199.89201 
L 938.711236 196.24209 
L 939.174414 194.242177 
L 939.637592 198.554424 
L 940.10077 195.445144 
L 940.563948 195.263751 
L 941.027127 194.236291 
L 941.953483 188.870821 
L 942.416661 186.849844 
L 942.879839 187.683031 
L 943.343017 189.22537 
L 943.806196 189.212489 
L 944.269374 185.952251 
L 944.732552 187.70874 
L 945.658908 194.107478 
L 946.122086 188.294993 
L 946.585265 194.738208 
L 947.048443 193.475533 
L 948.901155 191.449858 
L 949.364334 184.377048 
L 949.827512 187.569395 
L 950.29069 185.888953 
L 950.753868 185.70756 
L 951.217046 186.660109 
L 951.680224 182.918911 
L 952.143403 177.597919 
L 952.606581 182.1524 
L 953.069759 182.831118 
L 953.532937 182.393448 
L 953.996115 185.350581 
L 954.459293 191.024962 
L 954.922472 199.743081 
L 955.38565 203.553304 
L 955.848828 204.126702 
L 956.312006 215.274195 
L 956.775184 223.739547 
L 957.238362 224.920289 
L 958.164719 214.022026 
L 958.627897 215.999686 
L 959.091075 219.353524 
L 959.554253 212.877525 
L 960.017431 202.890871 
L 960.943788 200.221585 
L 961.406966 200.875728 
L 961.870144 198.931986 
L 962.7965 203.248905 
L 963.259679 208.716157 
L 963.722857 205.761346 
L 964.186035 210.37902 
L 965.112391 213.407528 
L 965.575569 212.330918 
L 966.038748 207.129287 
L 966.501926 205.301397 
L 966.965104 204.926918 
L 967.89146 199.382405 
L 968.354638 198.75867 
L 968.817817 196.081201 
L 969.744173 182.339306 
L 970.207351 180.725566 
L 970.670529 178.090225 
L 971.133707 177.547235 
L 971.596886 176.17924 
L 972.060064 176.405084 
L 972.523242 177.308483 
L 972.98642 180.957216 
L 973.912776 183.655722 
L 974.375955 179.521331 
L 974.839133 181.260267 
L 975.302311 178.884715 
L 975.765489 186.226657 
L 976.228667 191.736037 
L 976.691845 185.895467 
L 977.155024 187.413232 
L 977.618202 194.811344 
L 978.08138 195.858681 
L 978.544558 196.217929 
L 979.007736 195.450257 
L 979.470914 187.103079 
L 979.934093 191.464475 
L 980.860449 176.732576 
L 981.323627 177.277889 
L 981.786805 180.038426 
L 982.249983 180.007991 
L 982.713162 189.947818 
L 983.17634 188.769399 
L 983.639518 200.236362 
L 984.102696 199.644223 
L 984.565874 190.598424 
L 985.029052 184.901792 
L 985.492231 181.009636 
L 985.955409 175.843112 
L 986.418587 181.510472 
L 986.881765 178.436299 
L 987.344943 181.909498 
L 988.2713 176.617752 
L 988.734478 179.939994 
L 989.660834 165.144903 
L 990.124012 163.4118 
L 990.58719 166.435636 
L 991.050369 174.061942 
L 991.513547 173.097673 
L 991.976725 170.483395 
L 992.439903 170.646047 
L 992.903081 173.455733 
L 993.366259 172.849551 
L 993.829438 165.004397 
L 994.292616 164.879174 
L 994.755794 174.86113 
L 995.218972 175.71187 
L 996.145328 186.154882 
L 996.608507 189.480634 
L 997.071685 197.759922 
L 997.534863 201.015461 
L 997.998041 202.066308 
L 998.924397 203.423744 
L 999.387576 204.600975 
L 999.850754 211.560256 
L 1000.313932 211.168224 
L 1000.77711 209.659803 
L 1001.240288 209.130855 
L 1001.703466 213.65023 
L 1002.166645 216.284384 
L 1002.629823 210.131366 
L 1003.093001 208.022623 
L 1003.556179 210.758585 
L 1004.019357 212.392201 
L 1004.482535 213.218366 
L 1004.945714 212.485801 
L 1005.408892 213.199625 
L 1005.87207 221.285826 
L 1006.335248 215.926217 
L 1006.798426 214.716202 
L 1007.261604 219.89207 
L 1007.724783 218.411734 
L 1008.187961 217.759914 
L 1008.651139 220.03598 
L 1009.114317 219.345542 
L 1009.577495 232.659109 
L 1010.040673 234.159321 
L 1010.96703 241.976363 
L 1011.430208 246.113076 
L 1011.893386 247.792331 
L 1012.356564 254.140758 
L 1012.819742 245.695282 
L 1013.282921 239.465029 
L 1013.746099 235.923939 
L 1014.209277 238.842455 
L 1014.672455 236.516052 
L 1015.598811 230.573673 
L 1016.06199 224.410123 
L 1016.988346 232.125356 
L 1017.451524 222.882961 
L 1017.914702 221.364009 
L 1018.37788 223.608479 
L 1018.841059 230.230737 
L 1019.304237 228.908381 
L 1019.767415 215.014367 
L 1020.230593 214.734676 
L 1020.693771 216.080419 
L 1021.156949 210.134529 
L 1021.620127 208.41898 
L 1022.083306 200.833615 
L 1022.546484 199.19881 
L 1023.009662 205.88426 
L 1023.47284 204.990204 
L 1024.399196 226.217951 
L 1024.862375 222.652286 
L 1025.788731 236.247867 
L 1026.251909 247.616532 
L 1026.715087 253.455913 
L 1027.178265 246.453317 
L 1027.641444 244.769363 
L 1028.104622 246.873407 
L 1028.5678 244.42062 
L 1029.030978 240.18091 
L 1029.494156 240.908777 
L 1029.957334 238.775459 
L 1030.420513 246.900278 
L 1030.883691 237.538521 
L 1031.346869 241.647149 
L 1031.810047 249.578881 
L 1032.273225 250.52792 
L 1033.199582 238.488694 
L 1033.66276 233.862811 
L 1034.125938 234.099186 
L 1034.589116 242.055493 
L 1035.052294 243.250277 
L 1035.515472 240.513127 
L 1035.978651 243.322813 
L 1036.441829 254.435199 
L 1036.905007 256.577861 
L 1037.368185 263.52661 
L 1038.294541 251.129297 
L 1038.75772 254.816646 
L 1039.684076 243.932426 
L 1040.147254 242.079961 
L 1040.610432 243.099212 
L 1041.07361 239.27727 
L 1041.536789 238.190128 
L 1042.463145 246.653131 
L 1042.926323 254.556778 
L 1043.389501 252.63761 
L 1043.852679 251.676852 
L 1044.315858 254.669092 
L 1045.242214 240.067087 
L 1045.705392 246.085512 
L 1046.16857 243.204425 
L 1046.631748 242.798351 
L 1047.094927 245.615058 
L 1047.558105 245.626751 
L 1048.021283 253.867421 
L 1048.484461 258.885309 
L 1048.947639 249.179508 
L 1049.873996 238.590182 
L 1050.337174 238.068256 
L 1050.800352 246.284352 
L 1051.26353 248.525311 
L 1052.189886 257.620232 
L 1052.653065 263.487699 
L 1053.116243 267.764839 
L 1053.579421 263.581299 
L 1054.042599 263.343735 
L 1054.505777 261.308716 
L 1054.968955 257.195389 
L 1055.432134 261.233805 
L 1055.895312 256.000578 
L 1056.35849 260.895594 
L 1056.821668 260.886223 
L 1057.284846 254.006499 
L 1057.748024 256.447566 
L 1058.211203 255.869469 
L 1058.674381 245.191216 
L 1059.137559 245.466209 
L 1059.600737 246.854079 
L 1060.527093 260.558491 
L 1060.990272 260.06816 
L 1061.45345 255.624832 
L 1061.916628 255.706738 
L 1062.379806 257.463227 
L 1062.842984 255.586188 
L 1063.306162 250.363493 
L 1063.769341 243.43462 
L 1064.232519 240.918642 
L 1064.695697 242.095873 
L 1065.158875 250.568246 
L 1065.622053 251.468135 
L 1066.085231 248.22194 
L 1066.54841 247.640333 
L 1067.011588 247.35011 
L 1067.474766 247.403931 
L 1067.937944 249.195526 
L 1068.401122 245.900182 
L 1068.8643 241.779834 
L 1069.327479 242.391849 
L 1069.790657 243.390037 
L 1070.253835 242.316937 
L 1070.717013 234.794764 
L 1071.180191 241.617129 
L 1071.643369 246.455974 
L 1072.106548 245.604046 
L 1072.569726 251.197681 
L 1073.032904 260.993572 
L 1073.496082 259.379832 
L 1073.95926 265.580811 
L 1074.422438 259.041621 
L 1074.885617 247.380384 
L 1075.348795 247.055054 
L 1075.811973 237.552871 
L 1076.275151 225.751208 
L 1076.738329 225.931413 
L 1077.201507 225.37438 
L 1077.664686 225.410648 
L 1078.127864 230.045874 
L 1078.591042 231.005445 
L 1079.05422 233.899386 
L 1079.517398 243.073891 
L 1079.980576 247.136881 
L 1080.443755 248.264963 
L 1080.906933 246.591541 
L 1081.833289 251.143673 
L 1082.296467 251.748668 
L 1082.759645 245.609692 
L 1083.222824 236.026764 
L 1083.686002 231.579924 
L 1084.612358 217.104303 
L 1085.075536 214.363642 
L 1085.538714 207.304875 
L 1086.001893 207.948486 
L 1086.465071 206.977196 
L 1086.928249 208.81092 
L 1087.854605 227.216099 
L 1088.317783 232.483244 
L 1088.780962 241.938601 
L 1089.24414 235.364304 
L 1089.707318 237.180475 
L 1090.170496 224.181678 
L 1090.633674 225.179866 
L 1091.096852 219.118125 
L 1091.560031 216.479273 
L 1092.023209 214.588191 
L 1092.486387 216.737873 
L 1092.949565 226.052804 
L 1093.412743 244.793845 
L 1094.3391 240.460508 
L 1095.265456 232.813112 
L 1095.728634 233.709491 
L 1096.191812 231.821919 
L 1096.65499 229.186578 
L 1097.118169 231.402963 
L 1097.581347 234.461906 
L 1098.044525 244.875672 
L 1098.507703 244.680236 
L 1098.970881 240.451058 
L 1099.434059 237.411991 
L 1100.360416 235.111324 
L 1100.823594 239.441123 
L 1101.286772 231.49416 
L 1101.74995 231.123192 
L 1102.213128 234.217241 
L 1102.676307 232.101477 
L 1103.139485 232.892536 
L 1103.602663 235.488072 
L 1104.065841 227.611322 
L 1104.529019 229.655685 
L 1104.992197 237.043266 
L 1105.455376 240.632317 
L 1105.918554 250.473846 
L 1106.381732 256.120142 
L 1106.84491 253.502354 
L 1107.308088 253.148939 
L 1107.771266 241.466638 
L 1108.234445 236.307136 
L 1108.697623 237.087663 
L 1109.623979 211.325284 
L 1110.087157 203.329171 
L 1110.550335 206.058112 
L 1111.013514 218.185078 
L 1111.476692 218.958584 
L 1111.93987 211.671624 
L 1113.792583 236.735329 
L 1114.255761 240.847468 
L 1114.718939 241.905337 
L 1115.182117 244.156828 
L 1116.108473 245.408945 
L 1116.571652 246.491388 
L 1117.03483 244.716157 
L 1117.498008 236.58664 
L 1117.961186 245.185397 
L 1118.424364 250.434989 
L 1118.887542 248.13316 
L 1119.35072 241.657162 
L 1119.813899 239.007778 
L 1120.277077 238.570107 
L 1120.740255 241.306069 
L 1121.203433 233.675065 
L 1121.666611 230.565786 
L 1122.129789 229.661198 
L 1123.056146 243.014544 
L 1123.519324 243.647623 
L 1124.44568 238.942157 
L 1124.908858 240.821519 
L 1125.372037 244.245569 
L 1125.835215 245.935356 
L 1126.298393 245.936517 
L 1126.761571 242.704365 
L 1127.224749 244.239683 
L 1127.687927 241.96945 
L 1128.151106 237.691122 
L 1128.614284 227.507871 
L 1129.077462 225.03051 
L 1129.54064 220.42218 
L 1130.003818 220.188128 
L 1130.466996 224.500374 
L 1131.393353 222.670135 
L 1131.856531 226.733124 
L 1132.319709 224.410232 
L 1132.782887 223.417877 
L 1133.246065 224.06851 
L 1133.709244 219.203903 
L 1134.172422 223.730299 
L 1134.6356 224.401996 
L 1135.098778 223.557089 
L 1135.561956 225.37677 
L 1136.025134 221.467061 
L 1136.488313 219.846299 
L 1136.951491 213.177215 
L 1137.414669 202.614813 
L 1137.877847 202.693209 
L 1138.804203 197.015291 
L 1139.267382 196.433684 
L 1139.73056 192.099185 
L 1140.193738 194.441954 
L 1140.656916 207.235944 
L 1141.120094 207.963811 
L 1141.583272 210.527751 
L 1142.046451 211.525939 
L 1142.509629 211.169013 
L 1142.972807 225.075882 
L 1143.435985 224.880446 
L 1143.899163 214.254853 
L 1144.362341 210.085355 
L 1144.82552 207.021714 
L 1145.288698 207.061493 
L 1145.751876 211.314058 
L 1146.215054 202.987944 
L 1146.678232 199.439833 
L 1147.14141 200.70483 
L 1147.604589 203.626857 
L 1148.067767 216.75787 
L 1148.994123 210.061862 
L 1149.457301 208.929082 
L 1150.383658 222.054235 
L 1150.846836 216.45239 
L 1151.310014 203.407955 
L 1152.23637 206.390824 
L 1152.699548 205.314214 
L 1153.162727 208.078262 
L 1153.625905 201.096729 
L 1154.089083 206.728982 
L 1154.552261 206.954825 
L 1155.015439 213.819318 
L 1155.478617 215.154529 
L 1156.868152 221.189319 
L 1157.794508 226.949117 
L 1158.257686 223.144727 
L 1158.720865 221.54854 
L 1159.184043 219.155435 
L 1159.647221 212.212519 
L 1160.110399 215.675187 
L 1160.573577 214.022829 
L 1161.036755 220.866259 
L 1161.499934 216.113992 
L 1161.963112 216.080047 
L 1162.42629 219.697184 
L 1162.889468 229.194668 
L 1163.352646 228.381358 
L 1163.815824 235.34766 
L 1164.279003 234.099028 
L 1164.742181 235.286791 
L 1165.205359 231.036548 
L 1165.668537 232.979102 
L 1166.131715 224.656499 
L 1166.594893 224.099466 
L 1167.058072 209.840344 
L 1167.52125 203.22743 
L 1167.984428 211.25395 
L 1168.447606 211.097132 
L 1168.910784 205.295179 
L 1169.373962 202.972287 
L 1169.837141 204.100369 
L 1170.300319 209.191981 
L 1170.763497 216.277645 
L 1171.226675 206.038224 
L 1171.689853 217.003163 
L 1172.153031 217.404539 
L 1172.61621 220.263374 
L 1173.079388 219.414956 
L 1173.542566 229.105527 
L 1174.005744 225.757523 
L 1174.468922 229.515086 
L 1174.9321 225.647505 
L 1175.395279 222.973547 
L 1175.858457 225.621742 
L 1176.321635 225.096305 
L 1176.784813 215.320291 
L 1177.247991 214.591236 
L 1177.711169 215.926446 
L 1178.174348 217.900596 
L 1178.637526 219.295487 
L 1179.100704 217.80462 
L 1180.490238 243.930893 
L 1180.953417 244.255034 
L 1181.416595 242.35342 
L 1181.879773 246.62705 
L 1182.342951 244.146177 
L 1182.806129 230.55408 
L 1183.269307 223.095098 
L 1183.732486 213.592915 
L 1184.195664 210.262464 
L 1184.658842 207.749996 
L 1185.12202 204.514332 
L 1185.585198 206.281354 
L 1186.048376 209.178806 
L 1187.437911 193.577425 
L 1187.901089 198.511058 
L 1188.364267 205.568637 
L 1188.827445 208.160662 
L 1190.680158 249.159234 
L 1191.143336 242.598979 
L 1191.606514 232.117323 
L 1192.069693 228.362083 
L 1192.532871 214.875305 
L 1192.996049 212.275071 
L 1193.459227 208.263553 
L 1193.922405 208.636843 
L 1194.385583 216.575597 
L 1194.848762 218.862195 
L 1195.31194 217.013241 
L 1195.775118 223.863692 
L 1196.238296 222.278037 
L 1196.701474 225.624853 
L 1197.164652 220.205562 
L 1197.627831 217.384156 
L 1198.091009 225.466847 
L 1198.554187 231.597613 
L 1199.017365 231.784839 
L 1199.480543 233.120049 
L 1199.943721 232.296206 
L 1200.4069 234.867168 
L 1200.870078 239.284734 
L 1201.333256 241.971547 
L 1201.796434 248.481464 
L 1202.259612 248.946031 
L 1202.72279 255.403289 
L 1203.185969 258.195421 
L 1203.649147 262.440965 
L 1204.112325 268.708647 
L 1204.575503 263.026057 
L 1205.038681 262.45147 
L 1205.501859 261.325711 
L 1205.965038 257.338768 
L 1206.428216 257.747165 
L 1206.891394 254.406182 
L 1207.354572 243.3558 
L 1207.81775 239.084493 
L 1208.280928 233.022752 
L 1209.207285 248.640471 
L 1209.670463 247.118008 
L 1210.133641 250.099716 
L 1210.596819 256.458674 
L 1211.523176 281.249737 
L 1211.986354 278.779396 
L 1212.449532 280.272586 
L 1212.91271 287.442507 
L 1213.375888 286.885474 
L 1214.302245 280.477339 
L 1214.765423 270.813665 
L 1215.228601 276.270386 
L 1215.691779 274.783029 
L 1216.154957 268.226285 
L 1216.618135 266.742439 
L 1217.081314 263.569968 
L 1218.00767 267.711354 
L 1218.470848 258.542683 
L 1218.934026 257.069368 
L 1219.397204 257.39351 
L 1219.860382 256.130835 
L 1220.323561 259.337225 
L 1220.786739 259.854453 
L 1221.249917 263.41893 
L 1221.713095 265.185951 
L 1222.176273 269.800114 
L 1222.639451 281.063458 
L 1223.565808 290.137315 
L 1224.028986 282.98376 
L 1224.492164 279.807778 
L 1224.955342 285.513755 
L 1225.41852 281.551386 
L 1225.881699 272.259842 
L 1226.344877 273.240476 
L 1226.808055 271.254607 
L 1227.271233 271.873643 
L 1227.734411 274.160241 
L 1228.197589 267.336688 
L 1228.660768 265.463159 
L 1229.123946 261.806218 
L 1229.587124 261.372058 
L 1230.050302 267.780165 
L 1230.51348 272.145072 
L 1230.976658 266.420354 
L 1231.439837 271.097708 
L 1231.903015 267.633853 
L 1232.366193 271.588012 
L 1232.829371 269.16331 
L 1233.292549 262.99625 
L 1233.755727 259.146222 
L 1234.218906 259.333448 
L 1234.682084 259.099395 
L 1235.145262 262.379509 
L 1235.60844 266.698777 
L 1236.071618 273.794973 
L 1236.534796 270.685694 
L 1237.461153 284.116274 
L 1238.387509 277.760799 
L 1239.313865 273.715336 
L 1239.777044 280.109401 
L 1240.240222 272.678505 
L 1240.7034 273.350201 
L 1241.166578 277.448298 
L 1241.629756 278.755423 
L 1242.092934 277.292641 
L 1242.556113 277.28327 
L 1243.019291 275.490486 
L 1243.482469 282.779769 
L 1243.945647 281.022092 
L 1244.408825 281.472617 
L 1244.872003 279.781642 
L 1245.335182 282.187603 
L 1245.79836 282.813661 
L 1246.261538 277.39788 
L 1246.724716 273.309128 
L 1247.187894 279.604895 
L 1247.651072 278.208815 
L 1248.114251 277.862422 
L 1248.577429 276.02751 
L 1249.040607 269.210978 
L 1249.503785 272.203218 
L 1249.966963 273.59811 
L 1250.430141 262.410811 
L 1250.89332 258.592379 
L 1251.356498 258.516306 
L 1251.819676 248.199651 
L 1252.282854 247.003679 
L 1252.746032 242.995671 
L 1253.20921 244.555564 
L 1253.672389 247.059822 
L 1254.135567 251.389622 
L 1254.598745 247.669488 
L 1255.061923 258.343043 
L 1255.525101 263.188909 
L 1255.988279 271.032875 
L 1256.914636 262.904519 
L 1257.377814 262.442274 
L 1257.840992 267.07399 
L 1258.30417 265.470782 
L 1258.767348 265.605348 
L 1259.230527 259.936801 
L 1259.693705 263.304681 
L 1260.156883 262.856478 
L 1260.620061 261.814975 
L 1261.083239 263.708379 
L 1261.546417 259.763564 
L 1262.009596 256.90003 
L 1262.472774 256.392146 
L 1262.935952 256.421393 
L 1263.39913 260.688001 
L 1263.862308 257.831488 
L 1264.325486 254.013056 
L 1264.788665 257.897003 
L 1265.251843 259.758812 
L 1265.715021 263.11967 
L 1266.178199 261.02497 
L 1266.641377 259.899211 
L 1267.104555 260.226864 
L 1268.030912 267.696351 
L 1268.49409 279.791721 
L 1268.957268 277.661914 
L 1269.420446 276.539666 
L 1269.883624 272.665063 
L 1270.346803 270.201744 
L 1270.809981 269.922053 
L 1271.273159 266.321282 
L 1271.736337 254.95494 
L 1272.199515 253.60801 
L 1272.662693 251.457139 
L 1273.58905 258.543965 
L 1274.515406 246.40293 
L 1274.978584 242.984712 
L 1275.441762 243.603749 
L 1275.904941 248.059932 
L 1276.368119 247.313324 
L 1277.294475 247.456073 
L 1277.757653 252.484493 
L 1278.220831 253.064913 
L 1279.147188 241.029197 
L 1279.610366 244.551546 
L 1280.073544 249.818691 
L 1280.536722 258.010212 
L 1280.9999 254.851783 
L 1281.926257 252.929105 
L 1282.852613 272.43663 
L 1283.315791 270.903635 
L 1283.778969 266.628818 
L 1284.242148 263.968902 
L 1285.168504 279.895559 
L 1286.09486 280.53331 
L 1286.558038 285.407262 
L 1287.021217 295.361132 
L 1287.484395 302.541584 
L 1287.947573 306.752021 
L 1288.410751 305.043493 
L 1288.873929 305.539657 
L 1289.337107 307.057422 
L 1289.800286 301.603024 
L 1290.263464 297.556399 
L 1290.726642 296.648301 
L 1291.18982 289.593044 
L 1291.652998 292.490497 
L 1292.116176 289.781432 
L 1292.579355 281.89415 
L 1293.042533 281.582863 
L 1293.505711 279.860292 
L 1293.968889 275.968137 
L 1294.432067 275.270677 
L 1294.895245 273.035551 
L 1295.358424 269.097757 
L 1295.821602 275.347885 
L 1296.28478 274.120317 
L 1296.747958 271.965936 
L 1297.211136 266.188558 
L 1297.674314 264.444923 
L 1298.137493 255.514977 
L 1298.600671 260.192331 
L 1299.063849 261.952331 
L 1299.527027 261.170616 
L 1299.990205 253.139398 
L 1300.453383 255.268016 
L 1300.916562 253.14172 
L 1301.37974 253.859055 
L 1301.842918 251.504567 
L 1302.306096 247.145494 
L 1302.769274 256.123402 
L 1303.232452 261.941719 
L 1304.158809 262.911822 
L 1304.621987 260.125522 
L 1305.085165 261.580095 
L 1306.011521 246.918409 
L 1306.4747 237.367076 
L 1306.937878 234.640458 
L 1307.401056 230.074257 
L 1307.864234 229.018711 
L 1308.327412 228.977744 
L 1308.79059 228.536563 
L 1309.253769 232.381892 
L 1309.716947 234.61232 
L 1310.180125 233.637519 
L 1310.643303 235.516881 
L 1311.106481 244.898514 
L 1311.569659 246.876174 
L 1312.032838 257.735794 
L 1312.496016 259.092068 
L 1312.959194 262.786439 
L 1313.422372 267.734114 
L 1313.88555 275.458718 
L 1314.348728 273.80285 
L 1314.811907 270.012503 
L 1315.275085 258.740949 
L 1315.738263 252.545803 
L 1316.664619 235.201976 
L 1317.127797 224.088402 
L 1317.590975 218.935921 
L 1318.517332 225.864767 
L 1318.98051 226.104653 
L 1319.443688 230.862753 
L 1319.906866 245.563029 
L 1320.833223 251.698467 
L 1321.296401 250.319941 
L 1321.759579 253.119095 
L 1322.222757 258.716241 
L 1322.685935 255.557812 
L 1323.149113 243.057529 
L 1323.612292 238.29122 
L 1324.07547 241.529206 
L 1324.538648 247.354545 
L 1325.001826 247.064322 
L 1325.465004 248.926131 
L 1325.928182 253.375293 
L 1326.391361 244.340026 
L 1326.854539 251.966332 
L 1327.317717 248.084708 
L 1327.780895 246.951927 
L 1328.707251 233.838441 
L 1329.17043 227.93819 
L 1329.633608 234.978216 
L 1330.096786 228.965624 
L 1330.559964 229.177425 
L 1331.023142 231.39381 
L 1331.48632 237.524576 
L 1333.802211 239.319682 
L 1334.265389 236.46317 
L 1334.728568 240.550734 
L 1335.191746 242.138712 
L 1335.654924 240.531993 
L 1336.118102 240.048684 
L 1336.58128 242.233473 
L 1337.044458 243.705599 
L 1337.507637 258.553323 
L 1337.970815 257.413521 
L 1338.433993 259.5948 
L 1338.897171 267.737171 
L 1339.360349 268.135037 
L 1339.823527 269.7511 
L 1340.286706 275.495694 
L 1340.749884 266.105851 
L 1341.213062 270.463736 
L 1341.67624 268.639357 
L 1342.139418 265.91976 
L 1342.602596 256.730025 
L 1343.065775 249.811684 
L 1343.528953 245.424525 
L 1344.455309 248.196755 
L 1344.918487 258.803607 
L 1345.381665 257.20742 
L 1345.844844 264.092977 
L 1346.308022 265.077122 
L 1346.7712 264.579771 
L 1347.234378 269.450211 
L 1347.697556 266.892105 
L 1348.160734 256.986196 
L 1348.623913 258.458322 
L 1349.087091 253.291798 
L 1349.550269 255.553822 
L 1350.013447 252.370818 
L 1350.476625 245.487584 
L 1350.939803 243.473629 
L 1351.402982 244.945755 
L 1351.86616 235.33123 
L 1352.329338 235.6975 
L 1352.792516 237.601437 
L 1353.255694 235.492694 
L 1354.182051 242.358348 
L 1354.645229 241.643336 
L 1355.571585 265.528649 
L 1356.034763 263.928951 
L 1356.497941 275.85932 
L 1356.96112 274.649306 
L 1357.887476 265.583605 
L 1358.813832 244.697526 
L 1359.27701 247.194764 
L 1359.740189 236.200552 
L 1360.203367 232.32946 
L 1360.666545 233.418924 
L 1361.129723 240.788952 
L 1361.592901 255.404973 
L 1362.056079 265.541397 
L 1362.519258 263.555527 
L 1362.982436 263.704136 
L 1363.908792 271.809052 
L 1364.37197 270.107545 
L 1364.835148 262.799521 
L 1365.298327 252.66542 
L 1365.761505 259.256082 
L 1366.224683 261.609382 
L 1366.687861 257.632971 
L 1367.151039 258.954139 
L 1367.614217 265.021713 
L 1368.077396 265.451174 
L 1368.540574 265.624358 
L 1369.003752 262.213162 
L 1369.930108 271.332657 
L 1370.393286 268.441038 
L 1370.856465 269.03199 
L 1371.319643 274.249985 
L 1372.245999 276.73318 
L 1372.709177 281.550961 
L 1373.172355 278.947216 
L 1373.635534 281.823604 
L 1374.098712 270.639817 
L 1374.56189 274.042803 
L 1375.025068 268.946493 
L 1375.488246 272.521501 
L 1375.951424 271.739787 
L 1376.414603 269.539767 
L 1376.877781 269.804227 
L 1377.340959 291.013259 
L 1377.804137 292.032511 
L 1378.267315 306.788958 
L 1378.730493 301.489029 
L 1379.65685 300.868804 
L 1381.972741 307.8 
L 1382.435919 296.314296 
L 1382.899097 297.23876 
L 1383.362275 289.986907 
L 1383.825453 279.564931 
L 1384.288631 287.078896 
L 1384.75181 291.394653 
L 1385.214988 289.022611 
L 1385.678166 300.303509 
L 1386.141344 293.12889 
L 1386.604522 291.51866 
L 1387.0677 285.776389 
L 1387.530879 286.462128 
L 1387.994057 279.873789 
L 1388.457235 277.814195 
L 1388.920413 270.074361 
L 1389.383591 268.088491 
L 1389.846769 272.277865 
L 1390.309948 274.462654 
L 1390.773126 264.953449 
L 1391.236304 264.656205 
L 1391.699482 271.970062 
L 1392.16266 292.817496 
L 1393.089017 294.001749 
L 1393.552195 291.826303 
L 1394.015373 286.378927 
L 1394.478551 298.467276 
L 1394.941729 304.668255 
L 1395.404907 301.657274 
L 1395.868086 288.044113 
L 1396.331264 292.107103 
L 1396.794442 295.018597 
L 1397.25762 299.383504 
L 1397.720798 301.308504 
L 1398.647155 282.767544 
L 1399.573511 283.944775 
L 1400.499867 271.979272 
L 1401.426224 270.456809 
L 1401.889402 264.718048 
L 1402.815758 284.90313 
L 1405.131649 272.951671 
L 1405.594827 272.640384 
L 1406.058005 276.176775 
L 1407.44754 271.119082 
L 1408.373896 254.477386 
L 1408.837074 259.4707 
L 1409.300252 262.139959 
L 1409.763431 266.108161 
L 1410.226609 262.546007 
L 1411.152965 258.615234 
L 1411.616143 254.084139 
L 1412.079321 255.675627 
L 1412.5425 253.429969 
L 1413.005678 250.492712 
L 1413.468856 249.212484 
L 1414.395212 252.503129 
L 1415.321568 257.914211 
L 1415.784747 267.352015 
L 1416.247925 269.371803 
L 1416.711103 274.480968 
L 1417.174281 275.774051 
L 1417.637459 272.208386 
L 1418.100637 273.915726 
L 1418.563816 268.436754 
L 1419.026994 260.781175 
L 1419.95335 258.830412 
L 1420.416528 258.49104 
L 1420.879706 261.279662 
L 1421.342885 266.195741 
L 1421.806063 256.191534 
L 1422.732419 248.919778 
L 1423.658775 238.513007 
L 1425.04831 238.14906 
L 1425.511488 231.546678 
L 1426.437844 254.097942 
L 1426.901023 261.889248 
L 1427.364201 273.363232 
L 1427.827379 275.800788 
L 1428.290557 268.275104 
L 1429.216913 270.754788 
L 1429.680092 261.733564 
L 1430.606448 251.716476 
L 1431.069626 240.420347 
L 1431.532804 249.278893 
L 1431.995982 251.786662 
L 1432.922339 255.614438 
L 1433.385517 256.289645 
L 1433.848695 253.717496 
L 1434.311873 254.564725 
L 1434.775051 260.361979 
L 1435.23823 252.018312 
L 1435.701408 252.907669 
L 1436.164586 245.929647 
L 1493.598679 219.502593 
L 1494.061857 200.662065 
L 1514.441696 174.779487 
L 1517.220765 145.483876 
L 1517.683943 115.917945 
L 1522.778903 91.391965 
L 1537.600604 65.606794 
L 1539.916495 65.102017 
L 1540.379673 59.089021 
L 1540.842851 62.565003 
L 1543.62192 63.10073 
L 1544.085099 62.930815 
L 1545.011455 61.806514 
L 1545.474633 63.015665 
L 1545.937811 61.661876 
L 1546.400989 62.712885 
L 1546.864168 58.504932 
L 1551.032771 57.101967 
L 1551.495949 55.8 
L 1551.959127 56.30251 
L 1552.422306 58.746413 
L 1553.81184 62.20322 
L 1556.590909 64.018041 
L 1556.590909 64.018041 
" clip-path="url(#p83278e778e)" style="fill: none; stroke: #c47ef4; stroke-width: 2.5; stroke-linecap: square"/>
   </g>
   <g id="patch_3">
    <path d="M 225 320.4 
L 225 43.2 
" style="fill: none; stroke: #000000; stroke-width: 0.8; stroke-linejoin: miter; stroke-linecap: square"/>
   </g>
   <g id="patch_4">
    <path d="M 1620 320.4 
L 1620 43.2 
" style="fill: none; stroke: #000000; stroke-width: 0.8; stroke-linejoin: miter; stroke-linecap: square"/>
   </g>
   <g id="patch_5">
    <path d="M 225 320.4 
L 1620 320.4 
" style="fill: none; stroke: #000000; stroke-width: 0.8; stroke-linejoin: miter; stroke-linecap: square"/>
   </g>
   <g id="patch_6">
    <path d="M 225 43.2 
L 1620 43.2 
" style="fill: none; stroke: #000000; stroke-width: 0.8; stroke-linejoin: miter; stroke-linecap: square"/>
   </g>
   <g id="text_17">
    <!-- SDNA -->
    <g transform="translate(894.129688 37.2) scale(0.2 -0.2)">
     <defs>
      <path id="DejaVuSans-53" d="M 3425 4513 
L 3425 3897 
Q 3066 4069 2747 4153 
Q 2428 4238 2131 4238 
Q 1616 4238 1336 4038 
Q 1056 3838 1056 3469 
Q 1056 3159 1242 3001 
Q 1428 2844 1947 2747 
L 2328 2669 
Q 3034 2534 3370 2195 
Q 3706 1856 3706 1288 
Q 3706 609 3251 259 
Q 2797 -91 1919 -91 
Q 1588 -91 1214 -16 
Q 841 59 441 206 
L 441 856 
Q 825 641 1194 531 
Q 1563 422 1919 422 
Q 2459 422 2753 634 
Q 3047 847 3047 1241 
Q 3047 1584 2836 1778 
Q 2625 1972 2144 2069 
L 1759 2144 
Q 1053 2284 737 2584 
Q 422 2884 422 3419 
Q 422 4038 858 4394 
Q 1294 4750 2059 4750 
Q 2388 4750 2728 4690 
Q 3069 4631 3425 4513 
z
" transform="scale(0.015625)"/>
      <path id="DejaVuSans-44" d="M 1259 4147 
L 1259 519 
L 2022 519 
Q 2988 519 3436 956 
Q 3884 1394 3884 2338 
Q 3884 3275 3436 3711 
Q 2988 4147 2022 4147 
L 1259 4147 
z
M 628 4666 
L 1925 4666 
Q 3281 4666 3915 4102 
Q 4550 3538 4550 2338 
Q 4550 1131 3912 565 
Q 3275 0 1925 0 
L 628 0 
L 628 4666 
z
" transform="scale(0.015625)"/>
      <path id="DejaVuSans-4e" d="M 628 4666 
L 1478 4666 
L 3547 763 
L 3547 4666 
L 4159 4666 
L 4159 0 
L 3309 0 
L 1241 3903 
L 1241 0 
L 628 0 
L 628 4666 
z
" transform="scale(0.015625)"/>
      <path id="DejaVuSans-41" d="M 2188 4044 
L 1331 1722 
L 3047 1722 
L 2188 4044 
z
M 1831 4666 
L 2547 4666 
L 4325 0 
L 3669 0 
L 3244 1197 
L 1141 1197 
L 716 0 
L 50 0 
L 1831 4666 
z
" transform="scale(0.015625)"/>
     </defs>
     <use xlink:href="#DejaVuSans-53"/>
     <use xlink:href="#DejaVuSans-44" x="63.476562"/>
     <use xlink:href="#DejaVuSans-4e" x="140.478516"/>
     <use xlink:href="#DejaVuSans-41" x="215.283203"/>
    </g>
   </g>
   <g id="legend_1">
    <g id="patch_7">
     <path d="M 232 65.878125 
L 288.023438 65.878125 
Q 290.023438 65.878125 290.023438 63.878125 
L 290.023438 50.2 
Q 290.023438 48.2 288.023438 48.2 
L 232 48.2 
Q 230 48.2 230 50.2 
L 230 63.878125 
Q 230 65.878125 232 65.878125 
z
" style="fill: #ffffff; opacity: 0.8; stroke: #cccccc; stroke-linejoin: miter"/>
    </g>
    <g id="line2d_16">
     <path d="M 234 56.298437 
L 244 56.298437 
L 254 56.298437 
" style="fill: none; stroke: #c47ef4; stroke-width: 2.5; stroke-linecap: square"/>
    </g>
    <g id="text_18">
     <!-- sdna -->
     <g transform="translate(262 59.798437) scale(0.1 -0.1)">
      <defs>
       <path id="DejaVuSans-64" d="M 2906 2969 
L 2906 4863 
L 3481 4863 
L 3481 0 
L 2906 0 
L 2906 525 
Q 2725 213 2448 61 
Q 2172 -91 1784 -91 
Q 1150 -91 751 415 
Q 353 922 353 1747 
Q 353 2572 751 3078 
Q 1150 3584 1784 3584 
Q 2172 3584 2448 3432 
Q 2725 3281 2906 2969 
z
M 947 1747 
Q 947 1113 1208 752 
Q 1469 391 1925 391 
Q 2381 391 2643 752 
Q 2906 1113 2906 1747 
Q 2906 2381 2643 2742 
Q 2381 3103 1925 3103 
Q 1469 3103 1208 2742 
Q 947 2381 947 1747 
z
" transform="scale(0.015625)"/>
       <path id="DejaVuSans-6e" d="M 3513 2113 
L 3513 0 
L 2938 0 
L 2938 2094 
Q 2938 2591 2744 2837 
Q 2550 3084 2163 3084 
Q 1697 3084 1428 2787 
Q 1159 2491 1159 1978 
L 1159 0 
L 581 0 
L 581 3500 
L 1159 3500 
L 1159 2956 
Q 1366 3272 1645 3428 
Q 1925 3584 2291 3584 
Q 2894 3584 3203 3211 
Q 3513 2838 3513 2113 
z
" transform="scale(0.015625)"/>
      </defs>
      <use xlink:href="#DejaVuSans-73"/>
      <use xlink:href="#DejaVuSans-64" x="52.099609"/>
      <use xlink:href="#DejaVuSans-6e" x="115.576172"/>
      <use xlink:href="#DejaVuSans-61" x="178.955078"/>
     </g>
    </g>
   </g>
  </g>
 </g>
 <defs>
  <clipPath id="p83278e778e">
   <rect x="225" y="43.2" width="1395" height="277.2"/>
  </clipPath>
 </defs>
</svg>
