<?xml version="1.0" encoding="utf-8" standalone="no"?>
<!DOCTYPE svg PUBLIC "-//W3C//DTD SVG 1.1//EN"
  "http://www.w3.org/Graphics/SVG/1.1/DTD/svg11.dtd">
<svg xmlns:xlink="http://www.w3.org/1999/xlink" width="1800pt" height="360pt" viewBox="0 0 1800 360" xmlns="http://www.w3.org/2000/svg" version="1.1">
 <metadata>
  <rdf:RDF xmlns:dc="http://purl.org/dc/elements/1.1/" xmlns:cc="http://creativecommons.org/ns#" xmlns:rdf="http://www.w3.org/1999/02/22-rdf-syntax-ns#">
   <cc:Work>
    <dc:type rdf:resource="http://purl.org/dc/dcmitype/StillImage"/>
    <dc:date>2024-03-25T14:05:59.691610</dc:date>
    <dc:format>image/svg+xml</dc:format>
    <dc:creator>
     <cc:Agent>
      <dc:title>Matplotlib v3.7.2, https://matplotlib.org/</dc:title>
     </cc:Agent>
    </dc:creator>
   </cc:Work>
  </rdf:RDF>
 </metadata>
 <defs>
  <style type="text/css">*{stroke-linejoin: round; stroke-linecap: butt}</style>
 </defs>
 <g id="figure_1">
  <g id="patch_1">
   <path d="M 0 360 
L 1800 360 
L 1800 0 
L 0 0 
z
" style="fill: #ffffff"/>
  </g>
  <g id="axes_1">
   <g id="patch_2">
    <path d="M 225 320.4 
L 1620 320.4 
L 1620 43.2 
L 225 43.2 
z
" style="fill: #ffffff"/>
   </g>
   <g id="matplotlib.axis_1">
    <g id="xtick_1">
     <g id="line2d_1">
      <defs>
       <path id="m866ec95a92" d="M 0 0 
L 0 3.5 
" style="stroke: #000000; stroke-width: 0.8"/>
      </defs>
      <g>
       <use xlink:href="#m866ec95a92" x="281.924597" y="320.4" style="stroke: #000000; stroke-width: 0.8"/>
      </g>
     </g>
     <g id="text_1">
      <!-- 2011 -->
      <g transform="translate(262.837097 338.797656) scale(0.15 -0.15)">
       <defs>
        <path id="DejaVuSans-32" d="M 1228 531 
L 3431 531 
L 3431 0 
L 469 0 
L 469 531 
Q 828 903 1448 1529 
Q 2069 2156 2228 2338 
Q 2531 2678 2651 2914 
Q 2772 3150 2772 3378 
Q 2772 3750 2511 3984 
Q 2250 4219 1831 4219 
Q 1534 4219 1204 4116 
Q 875 4013 500 3803 
L 500 4441 
Q 881 4594 1212 4672 
Q 1544 4750 1819 4750 
Q 2544 4750 2975 4387 
Q 3406 4025 3406 3419 
Q 3406 3131 3298 2873 
Q 3191 2616 2906 2266 
Q 2828 2175 2409 1742 
Q 1991 1309 1228 531 
z
" transform="scale(0.015625)"/>
        <path id="DejaVuSans-30" d="M 2034 4250 
Q 1547 4250 1301 3770 
Q 1056 3291 1056 2328 
Q 1056 1369 1301 889 
Q 1547 409 2034 409 
Q 2525 409 2770 889 
Q 3016 1369 3016 2328 
Q 3016 3291 2770 3770 
Q 2525 4250 2034 4250 
z
M 2034 4750 
Q 2819 4750 3233 4129 
Q 3647 3509 3647 2328 
Q 3647 1150 3233 529 
Q 2819 -91 2034 -91 
Q 1250 -91 836 529 
Q 422 1150 422 2328 
Q 422 3509 836 4129 
Q 1250 4750 2034 4750 
z
" transform="scale(0.015625)"/>
        <path id="DejaVuSans-31" d="M 794 531 
L 1825 531 
L 1825 4091 
L 703 3866 
L 703 4441 
L 1819 4666 
L 2450 4666 
L 2450 531 
L 3481 531 
L 3481 0 
L 794 0 
L 794 531 
z
" transform="scale(0.015625)"/>
       </defs>
       <use xlink:href="#DejaVuSans-32"/>
       <use xlink:href="#DejaVuSans-30" x="63.623047"/>
       <use xlink:href="#DejaVuSans-31" x="127.246094"/>
       <use xlink:href="#DejaVuSans-31" x="190.869141"/>
      </g>
     </g>
    </g>
    <g id="xtick_2">
     <g id="line2d_2">
      <g>
       <use xlink:href="#m866ec95a92" x="450.984627" y="320.4" style="stroke: #000000; stroke-width: 0.8"/>
      </g>
     </g>
     <g id="text_2">
      <!-- 2012 -->
      <g transform="translate(431.897127 338.797656) scale(0.15 -0.15)">
       <use xlink:href="#DejaVuSans-32"/>
       <use xlink:href="#DejaVuSans-30" x="63.623047"/>
       <use xlink:href="#DejaVuSans-31" x="127.246094"/>
       <use xlink:href="#DejaVuSans-32" x="190.869141"/>
      </g>
     </g>
    </g>
    <g id="xtick_3">
     <g id="line2d_3">
      <g>
       <use xlink:href="#m866ec95a92" x="620.507836" y="320.4" style="stroke: #000000; stroke-width: 0.8"/>
      </g>
     </g>
     <g id="text_3">
      <!-- 2013 -->
      <g transform="translate(601.420336 338.797656) scale(0.15 -0.15)">
       <defs>
        <path id="DejaVuSans-33" d="M 2597 2516 
Q 3050 2419 3304 2112 
Q 3559 1806 3559 1356 
Q 3559 666 3084 287 
Q 2609 -91 1734 -91 
Q 1441 -91 1130 -33 
Q 819 25 488 141 
L 488 750 
Q 750 597 1062 519 
Q 1375 441 1716 441 
Q 2309 441 2620 675 
Q 2931 909 2931 1356 
Q 2931 1769 2642 2001 
Q 2353 2234 1838 2234 
L 1294 2234 
L 1294 2753 
L 1863 2753 
Q 2328 2753 2575 2939 
Q 2822 3125 2822 3475 
Q 2822 3834 2567 4026 
Q 2313 4219 1838 4219 
Q 1578 4219 1281 4162 
Q 984 4106 628 3988 
L 628 4550 
Q 988 4650 1302 4700 
Q 1616 4750 1894 4750 
Q 2613 4750 3031 4423 
Q 3450 4097 3450 3541 
Q 3450 3153 3228 2886 
Q 3006 2619 2597 2516 
z
" transform="scale(0.015625)"/>
       </defs>
       <use xlink:href="#DejaVuSans-32"/>
       <use xlink:href="#DejaVuSans-30" x="63.623047"/>
       <use xlink:href="#DejaVuSans-31" x="127.246094"/>
       <use xlink:href="#DejaVuSans-33" x="190.869141"/>
      </g>
     </g>
    </g>
    <g id="xtick_4">
     <g id="line2d_4">
      <g>
       <use xlink:href="#m866ec95a92" x="789.567866" y="320.4" style="stroke: #000000; stroke-width: 0.8"/>
      </g>
     </g>
     <g id="text_4">
      <!-- 2014 -->
      <g transform="translate(770.480366 338.797656) scale(0.15 -0.15)">
       <defs>
        <path id="DejaVuSans-34" d="M 2419 4116 
L 825 1625 
L 2419 1625 
L 2419 4116 
z
M 2253 4666 
L 3047 4666 
L 3047 1625 
L 3713 1625 
L 3713 1100 
L 3047 1100 
L 3047 0 
L 2419 0 
L 2419 1100 
L 313 1100 
L 313 1709 
L 2253 4666 
z
" transform="scale(0.015625)"/>
       </defs>
       <use xlink:href="#DejaVuSans-32"/>
       <use xlink:href="#DejaVuSans-30" x="63.623047"/>
       <use xlink:href="#DejaVuSans-31" x="127.246094"/>
       <use xlink:href="#DejaVuSans-34" x="190.869141"/>
      </g>
     </g>
    </g>
    <g id="xtick_5">
     <g id="line2d_5">
      <g>
       <use xlink:href="#m866ec95a92" x="958.627897" y="320.4" style="stroke: #000000; stroke-width: 0.8"/>
      </g>
     </g>
     <g id="text_5">
      <!-- 2015 -->
      <g transform="translate(939.540397 338.797656) scale(0.15 -0.15)">
       <defs>
        <path id="DejaVuSans-35" d="M 691 4666 
L 3169 4666 
L 3169 4134 
L 1269 4134 
L 1269 2991 
Q 1406 3038 1543 3061 
Q 1681 3084 1819 3084 
Q 2600 3084 3056 2656 
Q 3513 2228 3513 1497 
Q 3513 744 3044 326 
Q 2575 -91 1722 -91 
Q 1428 -91 1123 -41 
Q 819 9 494 109 
L 494 744 
Q 775 591 1075 516 
Q 1375 441 1709 441 
Q 2250 441 2565 725 
Q 2881 1009 2881 1497 
Q 2881 1984 2565 2268 
Q 2250 2553 1709 2553 
Q 1456 2553 1204 2497 
Q 953 2441 691 2322 
L 691 4666 
z
" transform="scale(0.015625)"/>
       </defs>
       <use xlink:href="#DejaVuSans-32"/>
       <use xlink:href="#DejaVuSans-30" x="63.623047"/>
       <use xlink:href="#DejaVuSans-31" x="127.246094"/>
       <use xlink:href="#DejaVuSans-35" x="190.869141"/>
      </g>
     </g>
    </g>
    <g id="xtick_6">
     <g id="line2d_6">
      <g>
       <use xlink:href="#m866ec95a92" x="1127.687927" y="320.4" style="stroke: #000000; stroke-width: 0.8"/>
      </g>
     </g>
     <g id="text_6">
      <!-- 2016 -->
      <g transform="translate(1108.600427 338.797656) scale(0.15 -0.15)">
       <defs>
        <path id="DejaVuSans-36" d="M 2113 2584 
Q 1688 2584 1439 2293 
Q 1191 2003 1191 1497 
Q 1191 994 1439 701 
Q 1688 409 2113 409 
Q 2538 409 2786 701 
Q 3034 994 3034 1497 
Q 3034 2003 2786 2293 
Q 2538 2584 2113 2584 
z
M 3366 4563 
L 3366 3988 
Q 3128 4100 2886 4159 
Q 2644 4219 2406 4219 
Q 1781 4219 1451 3797 
Q 1122 3375 1075 2522 
Q 1259 2794 1537 2939 
Q 1816 3084 2150 3084 
Q 2853 3084 3261 2657 
Q 3669 2231 3669 1497 
Q 3669 778 3244 343 
Q 2819 -91 2113 -91 
Q 1303 -91 875 529 
Q 447 1150 447 2328 
Q 447 3434 972 4092 
Q 1497 4750 2381 4750 
Q 2619 4750 2861 4703 
Q 3103 4656 3366 4563 
z
" transform="scale(0.015625)"/>
       </defs>
       <use xlink:href="#DejaVuSans-32"/>
       <use xlink:href="#DejaVuSans-30" x="63.623047"/>
       <use xlink:href="#DejaVuSans-31" x="127.246094"/>
       <use xlink:href="#DejaVuSans-36" x="190.869141"/>
      </g>
     </g>
    </g>
    <g id="xtick_7">
     <g id="line2d_7">
      <g>
       <use xlink:href="#m866ec95a92" x="1297.211136" y="320.4" style="stroke: #000000; stroke-width: 0.8"/>
      </g>
     </g>
     <g id="text_7">
      <!-- 2017 -->
      <g transform="translate(1278.123636 338.797656) scale(0.15 -0.15)">
       <defs>
        <path id="DejaVuSans-37" d="M 525 4666 
L 3525 4666 
L 3525 4397 
L 1831 0 
L 1172 0 
L 2766 4134 
L 525 4134 
L 525 4666 
z
" transform="scale(0.015625)"/>
       </defs>
       <use xlink:href="#DejaVuSans-32"/>
       <use xlink:href="#DejaVuSans-30" x="63.623047"/>
       <use xlink:href="#DejaVuSans-31" x="127.246094"/>
       <use xlink:href="#DejaVuSans-37" x="190.869141"/>
      </g>
     </g>
    </g>
    <g id="xtick_8">
     <g id="line2d_8">
      <g>
       <use xlink:href="#m866ec95a92" x="1466.271167" y="320.4" style="stroke: #000000; stroke-width: 0.8"/>
      </g>
     </g>
     <g id="text_8">
      <!-- 2018 -->
      <g transform="translate(1447.183667 338.797656) scale(0.15 -0.15)">
       <defs>
        <path id="DejaVuSans-38" d="M 2034 2216 
Q 1584 2216 1326 1975 
Q 1069 1734 1069 1313 
Q 1069 891 1326 650 
Q 1584 409 2034 409 
Q 2484 409 2743 651 
Q 3003 894 3003 1313 
Q 3003 1734 2745 1975 
Q 2488 2216 2034 2216 
z
M 1403 2484 
Q 997 2584 770 2862 
Q 544 3141 544 3541 
Q 544 4100 942 4425 
Q 1341 4750 2034 4750 
Q 2731 4750 3128 4425 
Q 3525 4100 3525 3541 
Q 3525 3141 3298 2862 
Q 3072 2584 2669 2484 
Q 3125 2378 3379 2068 
Q 3634 1759 3634 1313 
Q 3634 634 3220 271 
Q 2806 -91 2034 -91 
Q 1263 -91 848 271 
Q 434 634 434 1313 
Q 434 1759 690 2068 
Q 947 2378 1403 2484 
z
M 1172 3481 
Q 1172 3119 1398 2916 
Q 1625 2713 2034 2713 
Q 2441 2713 2670 2916 
Q 2900 3119 2900 3481 
Q 2900 3844 2670 4047 
Q 2441 4250 2034 4250 
Q 1625 4250 1398 4047 
Q 1172 3844 1172 3481 
z
" transform="scale(0.015625)"/>
       </defs>
       <use xlink:href="#DejaVuSans-32"/>
       <use xlink:href="#DejaVuSans-30" x="63.623047"/>
       <use xlink:href="#DejaVuSans-31" x="127.246094"/>
       <use xlink:href="#DejaVuSans-38" x="190.869141"/>
      </g>
     </g>
    </g>
    <g id="text_9">
     <!-- Time -->
     <g transform="translate(904.149609 357.314844) scale(0.15 -0.15)">
      <defs>
       <path id="DejaVuSans-54" d="M -19 4666 
L 3928 4666 
L 3928 4134 
L 2272 4134 
L 2272 0 
L 1638 0 
L 1638 4134 
L -19 4134 
L -19 4666 
z
" transform="scale(0.015625)"/>
       <path id="DejaVuSans-69" d="M 603 3500 
L 1178 3500 
L 1178 0 
L 603 0 
L 603 3500 
z
M 603 4863 
L 1178 4863 
L 1178 4134 
L 603 4134 
L 603 4863 
z
" transform="scale(0.015625)"/>
       <path id="DejaVuSans-6d" d="M 3328 2828 
Q 3544 3216 3844 3400 
Q 4144 3584 4550 3584 
Q 5097 3584 5394 3201 
Q 5691 2819 5691 2113 
L 5691 0 
L 5113 0 
L 5113 2094 
Q 5113 2597 4934 2840 
Q 4756 3084 4391 3084 
Q 3944 3084 3684 2787 
Q 3425 2491 3425 1978 
L 3425 0 
L 2847 0 
L 2847 2094 
Q 2847 2600 2669 2842 
Q 2491 3084 2119 3084 
Q 1678 3084 1418 2786 
Q 1159 2488 1159 1978 
L 1159 0 
L 581 0 
L 581 3500 
L 1159 3500 
L 1159 2956 
Q 1356 3278 1631 3431 
Q 1906 3584 2284 3584 
Q 2666 3584 2933 3390 
Q 3200 3197 3328 2828 
z
" transform="scale(0.015625)"/>
       <path id="DejaVuSans-65" d="M 3597 1894 
L 3597 1613 
L 953 1613 
Q 991 1019 1311 708 
Q 1631 397 2203 397 
Q 2534 397 2845 478 
Q 3156 559 3463 722 
L 3463 178 
Q 3153 47 2828 -22 
Q 2503 -91 2169 -91 
Q 1331 -91 842 396 
Q 353 884 353 1716 
Q 353 2575 817 3079 
Q 1281 3584 2069 3584 
Q 2775 3584 3186 3129 
Q 3597 2675 3597 1894 
z
M 3022 2063 
Q 3016 2534 2758 2815 
Q 2500 3097 2075 3097 
Q 1594 3097 1305 2825 
Q 1016 2553 972 2059 
L 3022 2063 
z
" transform="scale(0.015625)"/>
      </defs>
      <use xlink:href="#DejaVuSans-54"/>
      <use xlink:href="#DejaVuSans-69" x="57.958984"/>
      <use xlink:href="#DejaVuSans-6d" x="85.742188"/>
      <use xlink:href="#DejaVuSans-65" x="183.154297"/>
     </g>
    </g>
   </g>
   <g id="matplotlib.axis_2">
    <g id="ytick_1">
     <g id="line2d_9">
      <defs>
       <path id="m347984424c" d="M 0 0 
L -3.5 0 
" style="stroke: #000000; stroke-width: 0.8"/>
      </defs>
      <g>
       <use xlink:href="#m347984424c" x="225" y="301.739863" style="stroke: #000000; stroke-width: 0.8"/>
      </g>
     </g>
     <g id="text_10">
      <!-- −0.010 -->
      <g transform="translate(162.488281 307.438691) scale(0.15 -0.15)">
       <defs>
        <path id="DejaVuSans-2212" d="M 678 2272 
L 4684 2272 
L 4684 1741 
L 678 1741 
L 678 2272 
z
" transform="scale(0.015625)"/>
        <path id="DejaVuSans-2e" d="M 684 794 
L 1344 794 
L 1344 0 
L 684 0 
L 684 794 
z
" transform="scale(0.015625)"/>
       </defs>
       <use xlink:href="#DejaVuSans-2212"/>
       <use xlink:href="#DejaVuSans-30" x="83.789062"/>
       <use xlink:href="#DejaVuSans-2e" x="147.412109"/>
       <use xlink:href="#DejaVuSans-30" x="179.199219"/>
       <use xlink:href="#DejaVuSans-31" x="242.822266"/>
       <use xlink:href="#DejaVuSans-30" x="306.445312"/>
      </g>
     </g>
    </g>
    <g id="ytick_2">
     <g id="line2d_10">
      <g>
       <use xlink:href="#m347984424c" x="225" y="252.750063" style="stroke: #000000; stroke-width: 0.8"/>
      </g>
     </g>
     <g id="text_11">
      <!-- −0.005 -->
      <g transform="translate(162.488281 258.448891) scale(0.15 -0.15)">
       <use xlink:href="#DejaVuSans-2212"/>
       <use xlink:href="#DejaVuSans-30" x="83.789062"/>
       <use xlink:href="#DejaVuSans-2e" x="147.412109"/>
       <use xlink:href="#DejaVuSans-30" x="179.199219"/>
       <use xlink:href="#DejaVuSans-30" x="242.822266"/>
       <use xlink:href="#DejaVuSans-35" x="306.445312"/>
      </g>
     </g>
    </g>
    <g id="ytick_3">
     <g id="line2d_11">
      <g>
       <use xlink:href="#m347984424c" x="225" y="203.760263" style="stroke: #000000; stroke-width: 0.8"/>
      </g>
     </g>
     <g id="text_12">
      <!-- 0.000 -->
      <g transform="translate(175.057813 209.459091) scale(0.15 -0.15)">
       <use xlink:href="#DejaVuSans-30"/>
       <use xlink:href="#DejaVuSans-2e" x="63.623047"/>
       <use xlink:href="#DejaVuSans-30" x="95.410156"/>
       <use xlink:href="#DejaVuSans-30" x="159.033203"/>
       <use xlink:href="#DejaVuSans-30" x="222.65625"/>
      </g>
     </g>
    </g>
    <g id="ytick_4">
     <g id="line2d_12">
      <g>
       <use xlink:href="#m347984424c" x="225" y="154.770463" style="stroke: #000000; stroke-width: 0.8"/>
      </g>
     </g>
     <g id="text_13">
      <!-- 0.005 -->
      <g transform="translate(175.057813 160.469292) scale(0.15 -0.15)">
       <use xlink:href="#DejaVuSans-30"/>
       <use xlink:href="#DejaVuSans-2e" x="63.623047"/>
       <use xlink:href="#DejaVuSans-30" x="95.410156"/>
       <use xlink:href="#DejaVuSans-30" x="159.033203"/>
       <use xlink:href="#DejaVuSans-35" x="222.65625"/>
      </g>
     </g>
    </g>
    <g id="ytick_5">
     <g id="line2d_13">
      <g>
       <use xlink:href="#m347984424c" x="225" y="105.780664" style="stroke: #000000; stroke-width: 0.8"/>
      </g>
     </g>
     <g id="text_14">
      <!-- 0.010 -->
      <g transform="translate(175.057813 111.479492) scale(0.15 -0.15)">
       <use xlink:href="#DejaVuSans-30"/>
       <use xlink:href="#DejaVuSans-2e" x="63.623047"/>
       <use xlink:href="#DejaVuSans-30" x="95.410156"/>
       <use xlink:href="#DejaVuSans-31" x="159.033203"/>
       <use xlink:href="#DejaVuSans-30" x="222.65625"/>
      </g>
     </g>
    </g>
    <g id="ytick_6">
     <g id="line2d_14">
      <g>
       <use xlink:href="#m347984424c" x="225" y="56.790864" style="stroke: #000000; stroke-width: 0.8"/>
      </g>
     </g>
     <g id="text_15">
      <!-- 0.015 -->
      <g transform="translate(175.057813 62.489692) scale(0.15 -0.15)">
       <use xlink:href="#DejaVuSans-30"/>
       <use xlink:href="#DejaVuSans-2e" x="63.623047"/>
       <use xlink:href="#DejaVuSans-30" x="95.410156"/>
       <use xlink:href="#DejaVuSans-31" x="159.033203"/>
       <use xlink:href="#DejaVuSans-35" x="222.65625"/>
      </g>
     </g>
    </g>
    <g id="text_16">
     <!-- East(m) -->
     <g transform="translate(155.36875 211.140234) rotate(-90) scale(0.15 -0.15)">
      <defs>
       <path id="DejaVuSans-45" d="M 628 4666 
L 3578 4666 
L 3578 4134 
L 1259 4134 
L 1259 2753 
L 3481 2753 
L 3481 2222 
L 1259 2222 
L 1259 531 
L 3634 531 
L 3634 0 
L 628 0 
L 628 4666 
z
" transform="scale(0.015625)"/>
       <path id="DejaVuSans-61" d="M 2194 1759 
Q 1497 1759 1228 1600 
Q 959 1441 959 1056 
Q 959 750 1161 570 
Q 1363 391 1709 391 
Q 2188 391 2477 730 
Q 2766 1069 2766 1631 
L 2766 1759 
L 2194 1759 
z
M 3341 1997 
L 3341 0 
L 2766 0 
L 2766 531 
Q 2569 213 2275 61 
Q 1981 -91 1556 -91 
Q 1019 -91 701 211 
Q 384 513 384 1019 
Q 384 1609 779 1909 
Q 1175 2209 1959 2209 
L 2766 2209 
L 2766 2266 
Q 2766 2663 2505 2880 
Q 2244 3097 1772 3097 
Q 1472 3097 1187 3025 
Q 903 2953 641 2809 
L 641 3341 
Q 956 3463 1253 3523 
Q 1550 3584 1831 3584 
Q 2591 3584 2966 3190 
Q 3341 2797 3341 1997 
z
" transform="scale(0.015625)"/>
       <path id="DejaVuSans-73" d="M 2834 3397 
L 2834 2853 
Q 2591 2978 2328 3040 
Q 2066 3103 1784 3103 
Q 1356 3103 1142 2972 
Q 928 2841 928 2578 
Q 928 2378 1081 2264 
Q 1234 2150 1697 2047 
L 1894 2003 
Q 2506 1872 2764 1633 
Q 3022 1394 3022 966 
Q 3022 478 2636 193 
Q 2250 -91 1575 -91 
Q 1294 -91 989 -36 
Q 684 19 347 128 
L 347 722 
Q 666 556 975 473 
Q 1284 391 1588 391 
Q 1994 391 2212 530 
Q 2431 669 2431 922 
Q 2431 1156 2273 1281 
Q 2116 1406 1581 1522 
L 1381 1569 
Q 847 1681 609 1914 
Q 372 2147 372 2553 
Q 372 3047 722 3315 
Q 1072 3584 1716 3584 
Q 2034 3584 2315 3537 
Q 2597 3491 2834 3397 
z
" transform="scale(0.015625)"/>
       <path id="DejaVuSans-74" d="M 1172 4494 
L 1172 3500 
L 2356 3500 
L 2356 3053 
L 1172 3053 
L 1172 1153 
Q 1172 725 1289 603 
Q 1406 481 1766 481 
L 2356 481 
L 2356 0 
L 1766 0 
Q 1100 0 847 248 
Q 594 497 594 1153 
L 594 3053 
L 172 3053 
L 172 3500 
L 594 3500 
L 594 4494 
L 1172 4494 
z
" transform="scale(0.015625)"/>
       <path id="DejaVuSans-28" d="M 1984 4856 
Q 1566 4138 1362 3434 
Q 1159 2731 1159 2009 
Q 1159 1288 1364 580 
Q 1569 -128 1984 -844 
L 1484 -844 
Q 1016 -109 783 600 
Q 550 1309 550 2009 
Q 550 2706 781 3412 
Q 1013 4119 1484 4856 
L 1984 4856 
z
" transform="scale(0.015625)"/>
       <path id="DejaVuSans-29" d="M 513 4856 
L 1013 4856 
Q 1481 4119 1714 3412 
Q 1947 2706 1947 2009 
Q 1947 1309 1714 600 
Q 1481 -109 1013 -844 
L 513 -844 
Q 928 -128 1133 580 
Q 1338 1288 1338 2009 
Q 1338 2731 1133 3434 
Q 928 4138 513 4856 
z
" transform="scale(0.015625)"/>
      </defs>
      <use xlink:href="#DejaVuSans-45"/>
      <use xlink:href="#DejaVuSans-61" x="63.183594"/>
      <use xlink:href="#DejaVuSans-73" x="124.462891"/>
      <use xlink:href="#DejaVuSans-74" x="176.5625"/>
      <use xlink:href="#DejaVuSans-28" x="215.771484"/>
      <use xlink:href="#DejaVuSans-6d" x="254.785156"/>
      <use xlink:href="#DejaVuSans-29" x="352.197266"/>
     </g>
    </g>
   </g>
   <g id="line2d_15">
    <path d="M 288.409091 224.446661 
L 288.872269 218.181232 
L 289.335447 222.337566 
L 289.798625 224.63637 
L 290.261804 221.126618 
L 290.724982 221.724659 
L 291.18816 219.461697 
L 291.651338 218.092115 
L 292.114516 213.473809 
L 292.577694 206.964497 
L 293.040873 202.894878 
L 293.504051 202.820026 
L 293.967229 199.726003 
L 294.430407 198.349422 
L 294.893585 195.063639 
L 295.356763 199.364277 
L 295.819942 201.702523 
L 296.28312 200.829837 
L 296.746298 195.779021 
L 297.209476 193.579412 
L 297.672654 193.262411 
L 298.599011 186.879806 
L 299.062189 183.104124 
L 299.525367 182.546373 
L 299.988545 183.24836 
L 300.451723 180.912979 
L 301.37808 178.58393 
L 301.841258 174.94682 
L 302.304436 175.924549 
L 303.230792 169.438365 
L 303.69397 170.115157 
L 304.157149 167.572619 
L 304.620327 167.67833 
L 305.083505 166.763653 
L 305.546683 164.193121 
L 306.009861 164.484993 
L 306.473039 161.67791 
L 306.936218 156.179188 
L 307.399396 148.414337 
L 308.325752 143.157098 
L 308.78893 139.12667 
L 309.252108 132.775525 
L 309.715287 135.943798 
L 310.178465 138.228855 
L 310.641643 145.120353 
L 311.104821 146.229655 
L 311.567999 149.990005 
L 312.031177 152.308655 
L 312.494356 156.340548 
L 312.957534 156.626821 
L 313.420712 157.088058 
L 314.347068 151.38851 
L 315.736603 134.552214 
L 316.199781 125.211292 
L 316.662959 123.377006 
L 317.126137 117.724316 
L 318.515672 111.040106 
L 318.97885 112.76248 
L 319.442028 116.872757 
L 319.905206 117.044254 
L 320.368384 122.974153 
L 320.831563 124.307408 
L 321.294741 129.771203 
L 321.757919 132.322205 
L 322.221097 131.546099 
L 322.684275 130.261899 
L 323.147453 127.885927 
L 323.610632 123.333407 
L 324.536988 119.145545 
L 325.000166 120.222653 
L 325.463344 122.248764 
L 325.926522 121.678416 
L 326.389701 122.989276 
L 326.852879 123.551291 
L 327.316057 125.945526 
L 327.779235 123.863492 
L 328.705591 130.925087 
L 330.558304 157.704443 
L 331.021482 167.510134 
L 332.411017 178.274691 
L 332.874195 178.747125 
L 333.337373 179.562488 
L 333.800551 179.721388 
L 334.263729 181.460559 
L 334.726907 182.316513 
L 335.190086 182.774951 
L 336.116442 188.806361 
L 336.57962 186.923085 
L 337.042798 187.58868 
L 337.505976 184.95936 
L 337.969155 184.580771 
L 338.432333 186.028803 
L 338.895511 182.373497 
L 339.358689 179.903744 
L 339.821867 182.591917 
L 340.285045 181.05297 
L 340.748224 178.958339 
L 341.211402 178.568553 
L 341.67458 173.747289 
L 342.137758 173.836204 
L 342.600936 176.8953 
L 343.064114 177.125584 
L 343.527293 182.044893 
L 343.990471 184.798852 
L 344.453649 182.291307 
L 344.916827 186.465971 
L 345.380005 187.543079 
L 345.843183 188.22547 
L 346.306362 190.349561 
L 346.76954 189.121349 
L 347.232718 189.613379 
L 347.695896 195.105169 
L 348.159074 196.494412 
L 348.622252 200.096595 
L 349.085431 196.301318 
L 349.548609 197.973303 
L 350.011787 196.434356 
L 350.474965 198.681621 
L 350.938143 199.358413 
L 351.401321 200.589489 
L 351.8645 198.781798 
L 352.327678 203.379174 
L 352.790856 203.549271 
L 353.254034 209.371392 
L 354.18039 215.761127 
L 354.643569 216.702464 
L 355.106747 221.943705 
L 355.569925 224.787246 
L 356.033103 225.157502 
L 356.496281 223.771123 
L 357.422638 225.657996 
L 357.885816 227.425161 
L 358.348994 227.130555 
L 359.27535 229.023027 
L 359.738528 230.657219 
L 360.201707 230.243638 
L 360.664885 234.344117 
L 361.128063 241.662526 
L 361.591241 244.917581 
L 362.517597 253.707816 
L 362.980776 255.841705 
L 363.443954 259.071565 
L 363.907132 257.181292 
L 364.37031 252.215858 
L 364.833488 253.155795 
L 365.296666 249.059581 
L 365.759845 246.978947 
L 366.223023 249.574739 
L 367.149379 255.940679 
L 367.612557 257.82402 
L 368.075735 257.761766 
L 368.538914 256.084248 
L 369.002092 257.658253 
L 369.46527 256.848554 
L 369.928448 253.063075 
L 370.854804 248.665257 
L 371.317983 249.948122 
L 371.781161 255.598079 
L 372.244339 259.25345 
L 372.707517 260.968826 
L 373.170695 265.569001 
L 373.633873 268.37475 
L 375.023408 278.901356 
L 375.486586 279.513762 
L 375.949764 281.068171 
L 376.412942 279.800767 
L 376.876121 280.148628 
L 377.339299 280.975188 
L 377.802477 277.970747 
L 378.265655 273.978111 
L 378.728833 274.318973 
L 379.192011 274.847395 
L 379.65519 278.883488 
L 380.118368 281.28752 
L 380.581546 282.675364 
L 381.044724 281.199404 
L 381.507902 284.273897 
L 381.97108 282.435412 
L 382.897437 277.129183 
L 383.360615 276.806583 
L 383.823793 277.3616 
L 384.750149 277.297279 
L 385.213328 277.667535 
L 385.676506 279.345118 
L 386.139684 279.219877 
L 386.602862 276.447787 
L 387.06604 276.417726 
L 387.529218 278.014126 
L 387.992397 277.522162 
L 388.455575 281.062757 
L 389.381931 284.329743 
L 389.845109 283.771991 
L 390.308287 282.156061 
L 390.771466 281.965033 
L 391.234644 277.706453 
L 391.697822 270.841615 
L 392.624178 265.757939 
L 393.087356 268.314539 
L 393.550535 267.816976 
L 394.013713 264.476604 
L 394.940069 271.301649 
L 395.403247 270.942656 
L 395.866425 268.39172 
L 396.329604 271.467612 
L 396.792782 272.334765 
L 397.25596 277.897939 
L 397.719138 280.754077 
L 398.182316 280.332098 
L 398.645494 278.280858 
L 399.108673 279.093421 
L 399.571851 274.259561 
L 400.035029 273.396673 
L 400.498207 270.872332 
L 400.961385 267.331801 
L 401.424563 271.512064 
L 401.887742 277.392972 
L 402.35092 285.377643 
L 402.814098 285.850077 
L 403.277276 284.630264 
L 403.740454 284.654791 
L 404.203632 285.579332 
L 405.129989 281.496447 
L 405.593167 275.726182 
L 406.056345 275.705919 
L 406.519523 277.575262 
L 406.982701 278.27305 
L 407.44588 279.399148 
L 407.909058 276.218343 
L 408.372236 275.901342 
L 408.835414 277.89526 
L 409.298592 282.457642 
L 409.76177 281.320412 
L 410.224949 279.532317 
L 410.688127 279.05295 
L 411.614483 275.919068 
L 412.077661 269.370564 
L 412.540839 253.395023 
L 413.004018 252.830273 
L 413.467196 252.927586 
L 413.930374 245.858391 
L 414.393552 246.248242 
L 414.85673 240.897889 
L 415.319908 242.470494 
L 415.783087 250.179422 
L 416.246265 246.577305 
L 416.709443 244.267119 
L 418.098977 240.60348 
L 418.562156 237.807595 
L 419.025334 234.296459 
L 419.488512 234.708706 
L 420.414868 228.146937 
L 420.878046 225.723375 
L 421.341225 224.609939 
L 421.804403 222.911426 
L 422.267581 223.026935 
L 422.730759 220.809129 
L 423.193937 220.520122 
L 423.657115 221.924762 
L 424.120294 222.406995 
L 424.583472 222.425924 
L 425.04665 219.649635 
L 425.509828 214.521835 
L 425.973006 207.21329 
L 426.436184 205.786319 
L 426.899363 208.109169 
L 427.362541 207.316266 
L 427.825719 205.707334 
L 428.288897 209.838607 
L 428.752075 212.645755 
L 429.215253 218.561656 
L 429.678432 220.258836 
L 430.14161 217.741493 
L 430.604788 218.320305 
L 431.067966 221.442388 
L 431.531144 221.354939 
L 431.994322 222.376059 
L 432.4575 221.809909 
L 432.920679 222.643469 
L 433.383857 219.444468 
L 433.847035 218.476602 
L 434.310213 216.888665 
L 434.773391 214.147369 
L 435.699748 212.19904 
L 436.162926 208.300185 
L 436.626104 211.486654 
L 437.089282 212.267024 
L 437.55246 207.277796 
L 438.015638 207.505281 
L 438.478817 206.769767 
L 438.941995 209.36276 
L 439.405173 210.367084 
L 439.868351 208.213665 
L 440.331529 204.988069 
L 440.794707 206.738438 
L 441.721064 203.769721 
L 442.184242 197.792299 
L 442.64742 196.947607 
L 443.110598 198.801554 
L 444.036955 200.600245 
L 444.500133 200.841728 
L 444.963311 200.859257 
L 445.426489 203.138715 
L 446.352845 198.304187 
L 446.816024 194.633484 
L 447.279202 192.912575 
L 447.74238 188.500027 
L 448.205558 181.884337 
L 448.668736 182.828473 
L 449.595093 186.213034 
L 450.058271 189.295925 
L 450.984627 201.717005 
L 451.447805 208.504924 
L 451.910983 207.066756 
L 452.374162 209.36861 
L 453.300518 211.906347 
L 453.763696 207.418214 
L 454.226874 206.448949 
L 454.690052 200.586302 
L 455.153231 196.590867 
L 455.616409 195.782568 
L 456.079587 196.719706 
L 456.542765 193.508107 
L 457.005943 193.401062 
L 457.469121 191.151064 
L 457.9323 195.201153 
L 458.395478 192.548038 
L 458.858656 185.957543 
L 459.321834 181.388228 
L 459.785012 182.100012 
L 460.24819 181.434483 
L 460.711369 181.958707 
L 461.174547 183.524314 
L 461.637725 187.759165 
L 462.100903 188.717298 
L 464.416794 177.906813 
L 464.879972 176.068329 
L 465.34315 176.917285 
L 465.806328 175.928423 
L 466.269507 173.886981 
L 466.732685 176.409989 
L 467.195863 174.39934 
L 467.659041 168.951007 
L 468.585397 167.584957 
L 469.048576 166.862041 
L 469.511754 166.766193 
L 469.974932 163.379631 
L 470.43811 165.782264 
L 471.364466 172.754278 
L 471.827645 172.866987 
L 472.290823 171.412023 
L 472.754001 173.802058 
L 473.217179 174.539037 
L 473.680357 174.230434 
L 474.143535 175.069592 
L 474.606714 171.68723 
L 475.069892 171.45981 
L 475.53307 174.247362 
L 476.459426 177.109832 
L 477.385783 171.463473 
L 477.848961 172.409009 
L 478.775317 175.221089 
L 479.238495 174.589153 
L 479.701673 173.388936 
L 480.62803 176.989052 
L 481.091208 177.815613 
L 481.554386 175.687388 
L 482.017564 170.833932 
L 482.480742 168.101034 
L 482.943921 163.171993 
L 483.407099 160.854808 
L 483.870277 164.045476 
L 484.333455 162.116011 
L 484.796633 161.297914 
L 485.259811 168.44136 
L 485.72299 167.950794 
L 486.186168 169.443616 
L 486.649346 172.744862 
L 487.112524 168.943986 
L 487.575702 168.401632 
L 488.03888 167.628326 
L 488.502059 161.652303 
L 488.965237 160.415693 
L 489.428415 159.813151 
L 489.891593 156.541365 
L 490.354771 159.904198 
L 490.817949 159.902131 
L 491.281128 163.47492 
L 491.744306 168.468413 
L 492.207484 161.369824 
L 493.13384 172.157443 
L 493.597018 173.91341 
L 494.060197 176.296447 
L 494.523375 172.219829 
L 494.986553 172.94701 
L 495.449731 185.045424 
L 495.912909 184.957975 
L 496.376087 181.805164 
L 496.839266 181.756907 
L 497.302444 184.751616 
L 497.765622 189.915874 
L 498.2288 190.162955 
L 499.155156 191.7027 
L 499.618335 194.953556 
L 500.081513 189.822957 
L 500.544691 188.293808 
L 501.007869 185.852049 
L 501.471047 181.113369 
L 501.934225 177.959158 
L 502.860582 173.758698 
L 503.32376 174.530671 
L 503.786938 173.949124 
L 504.250116 173.931661 
L 504.713294 177.155922 
L 505.176473 177.124462 
L 505.639651 173.173817 
L 506.102829 170.207167 
L 506.566007 171.818965 
L 507.029185 169.896498 
L 507.955542 174.697564 
L 508.41872 178.704262 
L 508.881898 173.92779 
L 509.345076 178.652539 
L 509.808254 179.215954 
L 510.271432 183.278641 
L 510.734611 184.512517 
L 511.197789 182.892387 
L 511.660967 182.231057 
L 512.124145 195.617203 
L 512.587323 194.076857 
L 513.050501 193.815844 
L 513.51368 195.444437 
L 513.976858 193.666141 
L 514.440036 195.017592 
L 514.903214 193.677404 
L 515.366392 191.661156 
L 516.292749 198.516994 
L 516.755927 199.055215 
L 517.219105 198.204925 
L 517.682283 193.168107 
L 518.608639 198.169331 
L 519.071818 196.652779 
L 519.534996 195.535145 
L 519.998174 191.326954 
L 520.461352 195.733969 
L 520.92453 201.703059 
L 521.387708 205.663567 
L 521.850887 204.105024 
L 522.314065 204.168744 
L 522.777243 208.390998 
L 523.240421 215.639421 
L 523.703599 215.641554 
L 524.166777 216.326744 
L 524.629956 212.100357 
L 525.093134 212.973108 
L 525.556312 220.112354 
L 526.01949 222.414207 
L 526.945846 228.497406 
L 528.335381 242.59467 
L 528.798559 241.731782 
L 529.261737 241.725516 
L 529.724915 238.499921 
L 530.188093 241.677992 
L 530.651272 241.174829 
L 531.11445 238.273966 
L 531.577628 241.013928 
L 532.040806 242.922464 
L 532.503984 242.221942 
L 532.967162 250.325588 
L 533.430341 252.92278 
L 533.893519 256.191832 
L 534.356697 261.395281 
L 534.819875 259.842338 
L 535.283053 258.989248 
L 535.746231 261.649427 
L 536.20941 259.228664 
L 536.672588 257.749904 
L 537.135766 254.923226 
L 537.598944 256.542021 
L 538.062122 257.645724 
L 538.5253 262.499247 
L 538.988479 266.065037 
L 539.451657 265.140562 
L 539.914835 269.315226 
L 540.378013 274.643249 
L 540.841191 276.175263 
L 542.230726 286.340745 
L 542.693904 288.079916 
L 543.157082 286.442989 
L 543.62026 280.825292 
L 544.083438 282.918589 
L 544.546617 283.078888 
L 545.009795 276.530384 
L 545.472973 271.90788 
L 545.936151 274.047367 
L 546.399329 269.587228 
L 546.862507 278.589487 
L 547.325686 277.572631 
L 547.788864 279.052856 
L 548.252042 282.813206 
L 548.71522 281.904128 
L 549.178398 281.804081 
L 549.641576 286.029135 
L 550.104755 278.108916 
L 550.567933 275.791732 
L 551.031111 272.311389 
L 551.494289 267.091209 
L 551.957467 267.72461 
L 552.420645 263.89294 
L 552.883824 261.346203 
L 553.347002 263.63406 
L 553.81018 264.561399 
L 554.273358 266.454538 
L 554.736536 270.25408 
L 555.199714 268.043273 
L 555.662893 269.611679 
L 556.126071 271.630791 
L 556.589249 270.783301 
L 557.052427 268.211369 
L 557.978783 270.621733 
L 558.441962 273.468073 
L 558.90514 270.681986 
L 559.831496 262.57354 
L 560.294674 261.940204 
L 560.757852 255.337112 
L 561.221031 254.358049 
L 562.147387 251.250761 
L 562.610565 251.36627 
L 563.073743 254.397372 
L 563.536921 249.167393 
L 564.0001 248.301706 
L 564.463278 246.969916 
L 564.926456 243.135448 
L 565.389634 244.205558 
L 565.852812 243.132714 
L 566.31599 241.553175 
L 566.779169 247.338904 
L 567.242347 249.891305 
L 567.705525 250.475716 
L 568.168703 253.606197 
L 568.631881 254.795282 
L 569.095059 257.252503 
L 570.021416 248.631764 
L 570.484594 248.202786 
L 571.41095 241.397469 
L 572.337307 233.410797 
L 573.263663 238.353234 
L 573.726841 240.001423 
L 574.190019 239.139935 
L 575.116376 242.769445 
L 575.579554 246.966504 
L 576.042732 247.681088 
L 577.432266 241.148047 
L 577.895445 241.285951 
L 579.284979 236.610323 
L 579.748157 238.839391 
L 580.211335 239.419603 
L 580.674514 238.68269 
L 581.137692 239.310492 
L 581.60087 245.947243 
L 582.064048 247.598232 
L 582.527226 248.741126 
L 582.990404 248.64388 
L 583.453583 247.247703 
L 583.916761 250.038055 
L 584.843117 231.59556 
L 585.306295 227.307586 
L 585.769473 224.884023 
L 586.232652 220.716424 
L 586.69583 220.93831 
L 587.159008 218.276797 
L 587.622186 226.639389 
L 588.085364 230.473923 
L 588.548542 232.649803 
L 589.011721 236.936443 
L 589.474899 240.08652 
L 589.938077 240.864091 
L 590.401255 244.87079 
L 591.327611 243.829472 
L 591.79079 241.543081 
L 592.253968 238.600227 
L 593.180324 226.002915 
L 593.643502 224.739711 
L 594.10668 226.684639 
L 594.569859 224.876948 
L 595.033037 226.250795 
L 595.496215 226.691036 
L 595.959393 231.606145 
L 596.422571 228.296567 
L 596.885749 226.715629 
L 597.348928 221.463255 
L 597.812106 220.708145 
L 598.275284 218.911652 
L 598.738462 218.40569 
L 599.20164 218.22726 
L 599.664818 223.504894 
L 600.127997 220.861577 
L 600.591175 221.422193 
L 601.054353 219.331761 
L 601.517531 218.139942 
L 601.980709 215.355255 
L 602.443887 213.833105 
L 602.907066 214.522494 
L 603.370244 216.254666 
L 603.833422 213.591753 
L 604.2966 202.04629 
L 604.759778 202.87845 
L 605.222956 206.455438 
L 605.686135 206.801898 
L 606.149313 206.224551 
L 606.612491 206.205688 
L 607.075669 208.661509 
L 607.538847 222.11764 
L 608.002025 222.90361 
L 608.465204 217.182334 
L 608.928382 214.082712 
L 609.39156 208.157078 
L 612.170629 201.226454 
L 613.096985 184.406222 
L 613.560163 179.19164 
L 614.023342 178.527512 
L 614.48652 175.657442 
L 614.949698 174.52581 
L 615.412876 174.497149 
L 616.339232 180.71612 
L 616.802411 180.841426 
L 617.728767 178.01828 
L 618.655123 183.359633 
L 619.118301 183.983236 
L 619.58148 184.147735 
L 620.044658 181.708775 
L 620.507836 183.138611 
L 620.971014 182.898593 
L 621.434192 180.991523 
L 622.360549 157.106962 
L 622.823727 152.366881 
L 623.286905 151.303836 
L 623.750083 149.073433 
L 624.676439 156.542343 
L 625.602796 179.1589 
L 626.065974 183.630302 
L 626.529152 185.095129 
L 626.99233 186.180636 
L 627.455508 182.206197 
L 627.918686 170.116247 
L 628.381865 169.165177 
L 629.308221 166.147471 
L 629.771399 167.426138 
L 630.234577 167.225312 
L 630.697755 170.045058 
L 631.160934 177.017739 
L 631.624112 175.415805 
L 632.08729 177.387328 
L 632.550468 177.921349 
L 633.013646 175.881307 
L 633.476824 176.146584 
L 633.940003 172.293919 
L 634.403181 172.359039 
L 634.866359 171.910465 
L 635.329537 171.782424 
L 635.792715 169.70459 
L 636.255893 169.384789 
L 636.719072 167.390937 
L 637.18225 169.26448 
L 638.108606 162.019654 
L 638.571784 155.177211 
L 639.034962 151.327346 
L 639.498141 143.657675 
L 639.961319 138.767826 
L 640.424497 129.520684 
L 640.887675 127.183904 
L 641.350853 122.394834 
L 642.27721 117.691878 
L 642.740388 117.192915 
L 643.203566 117.028482 
L 643.666744 120.590073 
L 644.129922 117.118129 
L 644.5931 117.70254 
L 645.056279 115.945239 
L 645.519457 112.87921 
L 645.982635 110.590019 
L 646.445813 107.67236 
L 646.908991 102.273017 
L 647.835348 95.142967 
L 648.298526 93.74959 
L 648.761704 90.984498 
L 649.224882 89.763285 
L 649.68806 84.491316 
L 651.077595 74.688032 
L 651.540773 74.914222 
L 652.003951 69.934896 
L 652.467129 67.848768 
L 652.930307 64.553292 
L 653.393486 64.027839 
L 653.856664 65.271513 
L 654.78302 66.056187 
L 655.246198 61.334407 
L 655.709376 60.103501 
L 656.172555 58.526867 
L 656.635733 58.21137 
L 657.562089 56.217727 
L 658.025267 55.934528 
L 659.87798 56.283749 
L 660.341158 57.148416 
L 660.804336 57.345422 
L 662.193871 55.8 
L 670.531078 59.243414 
L 674.236503 61.570594 
L 674.699681 62.444666 
L 675.626038 74.823598 
L 676.089216 85.012731 
L 676.552394 98.367796 
L 677.47875 120.434999 
L 677.941928 134.080091 
L 679.331463 163.504163 
L 679.794641 167.988162 
L 680.257819 170.75052 
L 680.720997 171.064787 
L 681.184176 174.220463 
L 681.647354 180.969191 
L 682.110532 184.736539 
L 682.57371 183.991227 
L 683.500066 178.490438 
L 683.963245 177.666742 
L 684.426423 175.717681 
L 685.352779 162.365926 
L 685.815957 163.367451 
L 687.205492 182.614242 
L 688.131848 190.448476 
L 688.595026 195.125635 
L 689.058204 195.169759 
L 689.521383 191.601234 
L 689.984561 192.02188 
L 690.447739 186.012264 
L 690.910917 182.657895 
L 691.374095 182.620835 
L 691.837273 182.764338 
L 692.76363 189.289845 
L 693.226808 188.51094 
L 693.689986 193.920147 
L 694.153164 197.259184 
L 694.616342 198.509857 
L 695.079521 200.47578 
L 695.542699 200.01181 
L 696.005877 201.412251 
L 696.469055 201.340199 
L 696.932233 203.821215 
L 697.395411 209.259815 
L 697.85859 212.99497 
L 698.321768 218.188622 
L 698.784946 218.131966 
L 699.248124 219.752162 
L 700.17448 229.022497 
L 700.637659 231.012216 
L 701.100837 229.933773 
L 701.564015 227.925924 
L 702.490371 237.119275 
L 702.953549 239.145386 
L 703.416728 240.453447 
L 703.879906 240.328205 
L 704.343084 246.910368 
L 704.806262 246.412804 
L 705.26944 248.920415 
L 705.732618 250.585401 
L 706.195797 254.202981 
L 706.658975 255.312282 
L 707.122153 259.454753 
L 707.585331 259.395298 
L 708.048509 266.032049 
L 708.511687 267.282721 
L 708.974866 266.524812 
L 709.438044 268.836463 
L 710.3644 263.74159 
L 710.827578 264.489767 
L 711.290756 266.420697 
L 712.217113 273.64046 
L 712.680291 274.927525 
L 713.143469 283.418889 
L 713.606647 286.139256 
L 714.069825 287.461313 
L 717.312073 258.166342 
L 717.775251 258.715761 
L 718.238429 258.723492 
L 718.701607 260.125333 
L 719.164785 257.775955 
L 719.627963 256.761899 
L 720.091142 258.901386 
L 720.55432 259.284239 
L 721.480676 245.011476 
L 721.943854 240.001252 
L 722.407032 238.788438 
L 723.333389 228.037342 
L 723.796567 225.228859 
L 724.722923 233.351434 
L 725.186101 234.189192 
L 725.64928 231.9084 
L 726.112458 231.286262 
L 726.575636 228.969077 
L 727.038814 228.187373 
L 727.501992 218.55951 
L 727.96517 214.909803 
L 728.428348 214.879742 
L 728.891527 216.462145 
L 729.354705 218.625428 
L 729.817883 218.948093 
L 730.281061 217.897645 
L 730.744239 226.05308 
L 731.207417 222.129029 
L 731.670596 222.208146 
L 732.133774 222.866741 
L 732.596952 222.440563 
L 733.06013 221.332726 
L 733.523308 220.593013 
L 733.986486 214.822747 
L 734.449665 218.13659 
L 735.839199 205.194283 
L 736.302377 204.380386 
L 736.765555 204.155765 
L 737.228734 206.972711 
L 737.691912 208.221984 
L 738.15509 211.498035 
L 739.081446 214.731427 
L 739.544624 214.725161 
L 740.007803 214.833671 
L 740.934159 217.053675 
L 741.397337 216.299965 
L 741.860515 216.461664 
L 742.323693 216.789928 
L 742.786872 214.099021 
L 743.25005 214.273318 
L 743.713228 215.799733 
L 744.176406 212.806489 
L 744.639584 216.398873 
L 745.102762 217.029475 
L 745.565941 214.575119 
L 746.029119 214.3407 
L 746.955475 207.459799 
L 747.418653 205.081027 
L 748.34501 194.712051 
L 748.808188 193.29068 
L 749.271366 197.521332 
L 749.734544 197.871992 
L 750.197722 197.694961 
L 750.6609 197.001439 
L 751.124079 196.941984 
L 751.587257 196.995905 
L 752.050435 196.789481 
L 752.513613 188.282785 
L 752.976791 189.515261 
L 753.903148 195.545271 
L 754.366326 197.588179 
L 754.829504 198.101205 
L 755.292682 198.304895 
L 755.75586 204.591719 
L 756.219038 203.842208 
L 756.682217 201.439641 
L 757.145395 201.865885 
L 757.608573 196.770279 
L 758.071751 197.542251 
L 758.534929 199.902892 
L 758.998107 200.005803 
L 759.461286 199.539033 
L 760.387642 197.877645 
L 761.313998 199.883493 
L 761.777176 199.752653 
L 762.240355 202.848141 
L 762.703533 203.01124 
L 763.166711 202.981179 
L 763.629889 202.12389 
L 764.093067 205.096204 
L 764.556245 204.893979 
L 765.019424 204.974495 
L 765.482602 200.918872 
L 765.94578 200.789432 
L 766.872136 206.645878 
L 767.335314 206.537433 
L 767.798493 204.605169 
L 768.261671 203.322368 
L 768.724849 203.369292 
L 769.188027 202.14108 
L 769.651205 193.45942 
L 770.114383 191.322798 
L 770.577562 187.348358 
L 771.04074 186.012369 
L 771.503918 185.731761 
L 771.967096 191.726045 
L 772.430274 190.150706 
L 772.893452 195.18619 
L 773.356631 192.698241 
L 773.819809 195.432605 
L 774.746165 202.382223 
L 775.209343 195.996086 
L 775.672521 198.542888 
L 776.1357 199.587804 
L 776.598878 202.082817 
L 777.525234 205.549961 
L 777.988412 200.835075 
L 778.45159 202.309701 
L 778.914769 203.123664 
L 779.377947 203.5905 
L 780.304303 200.126287 
L 780.767481 197.004269 
L 781.230659 196.313546 
L 781.693838 193.507863 
L 782.157016 193.284642 
L 782.620194 189.522958 
L 783.54655 180.024601 
L 784.009728 178.291095 
L 784.472907 178.732736 
L 784.936085 179.78185 
L 785.399263 179.965945 
L 785.862441 174.423832 
L 786.325619 174.365776 
L 786.788797 173.526684 
L 787.251976 175.320443 
L 787.715154 178.557302 
L 788.178332 180.650599 
L 788.64151 181.734706 
L 789.104688 186.073136 
L 789.567866 187.368599 
L 790.031045 188.244149 
L 790.494223 182.093163 
L 790.957401 178.099127 
L 791.420579 175.451611 
L 791.883757 170.777317 
L 792.346935 169.194979 
L 792.810114 171.274279 
L 793.273292 173.896666 
L 793.73647 179.441644 
L 794.199648 181.199011 
L 794.662826 181.642052 
L 795.589183 189.855607 
L 796.052361 189.177481 
L 796.515539 187.235418 
L 796.978717 187.086382 
L 797.441895 185.410264 
L 797.905073 184.298228 
L 798.368252 178.567154 
L 798.83143 177.870832 
L 799.294608 180.034114 
L 799.757786 184.194781 
L 800.220964 182.140741 
L 800.684142 182.73635 
L 801.147321 186.849427 
L 801.610499 192.538575 
L 802.073677 190.98983 
L 802.536855 188.798619 
L 803.000033 185.245492 
L 803.463211 186.189628 
L 803.92639 184.17758 
L 804.389568 180.907193 
L 804.852746 174.175328 
L 805.315924 174.027691 
L 806.24228 177.917547 
L 806.705459 176.66554 
L 807.168637 178.091176 
L 807.631815 175.305089 
L 808.094993 179.552538 
L 808.558171 181.973366 
L 809.021349 180.158677 
L 809.484528 181.517127 
L 810.410884 189.11761 
L 810.874062 193.174698 
L 811.800418 191.756859 
L 812.263597 192.713593 
L 812.726775 190.341819 
L 813.653131 182.875839 
L 814.116309 181.114339 
L 815.042666 178.669113 
L 815.505844 178.151954 
L 815.969022 178.881935 
L 816.4322 179.130416 
L 816.895378 182.335081 
L 817.358556 184.138639 
L 817.821735 184.499096 
L 818.748091 176.991125 
L 819.674447 177.881405 
L 820.600804 171.094284 
L 821.063982 171.51213 
L 821.52716 179.510797 
L 821.990338 184.192155 
L 822.453516 183.393654 
L 823.379873 187.946972 
L 823.843051 182.318077 
L 824.306229 188.046417 
L 824.769407 189.320884 
L 825.232585 188.164058 
L 825.695763 188.272568 
L 826.158941 186.700028 
L 826.62212 182.437249 
L 827.085298 188.270567 
L 828.011654 179.369886 
L 828.474832 179.639362 
L 828.93801 179.248177 
L 829.401189 179.786397 
L 829.864367 183.601336 
L 830.327545 183.718244 
L 830.790723 184.642785 
L 831.253901 187.08181 
L 831.717079 188.787387 
L 832.180258 189.847699 
L 832.643436 190.100379 
L 833.106614 186.009764 
L 833.569792 185.939111 
L 834.03297 185.693495 
L 834.496148 182.329329 
L 835.422505 171.92536 
L 835.885683 170.177857 
L 836.348861 175.368709 
L 836.812039 178.760936 
L 837.275217 180.392329 
L 837.738396 177.348695 
L 838.201574 179.469986 
L 838.664752 183.041375 
L 839.12793 189.317002 
L 839.591108 188.381329 
L 840.054286 187.127923 
L 840.517465 178.983751 
L 841.443821 185.650629 
L 841.906999 185.015894 
L 842.370177 179.62215 
L 842.833355 179.991006 
L 843.296534 182.046511 
L 843.759712 187.049802 
L 844.22289 190.167685 
L 844.686068 186.737732 
L 845.149246 193.009159 
L 845.612424 194.31582 
L 846.075603 190.121626 
L 846.538781 183.497538 
L 847.001959 188.668794 
L 847.465137 187.765315 
L 847.928315 194.175313 
L 848.391493 193.057679 
L 848.854672 194.836041 
L 849.31785 201.453196 
L 849.781028 209.903969 
L 850.244206 210.8747 
L 850.707384 211.519299 
L 851.170562 209.734003 
L 851.633741 203.955339 
L 853.486453 193.160918 
L 853.949631 194.015473 
L 854.41281 195.81763 
L 854.875988 199.967099 
L 855.339166 200.092406 
L 855.802344 202.00654 
L 856.265522 205.155217 
L 856.7287 207.184128 
L 857.191879 207.884715 
L 857.655057 205.301585 
L 858.118235 203.885813 
L 858.581413 202.941742 
L 859.044591 203.3008 
L 859.507769 205.084761 
L 859.970948 207.714147 
L 860.434126 206.445344 
L 860.897304 208.509247 
L 861.360482 215.829056 
L 861.82366 220.216475 
L 862.286838 222.885052 
L 862.750017 223.496058 
L 863.213195 225.296815 
L 864.139551 239.550113 
L 865.065907 245.74249 
L 865.992264 249.302014 
L 866.455442 251.655657 
L 866.91862 252.156085 
L 867.381798 255.705079 
L 867.844976 257.437251 
L 868.308155 264.187379 
L 870.160867 282.53489 
L 870.624045 281.372465 
L 871.087224 282.427178 
L 871.550402 280.254163 
L 872.01358 281.177304 
L 872.476758 281.089855 
L 874.329471 280.323547 
L 874.792649 278.133736 
L 875.255827 279.110065 
L 875.719005 273.580549 
L 876.182183 274.990788 
L 876.645362 274.746572 
L 877.10854 274.034853 
L 877.571718 272.341938 
L 878.034896 269.448074 
L 878.498074 269.005099 
L 878.961252 273.266544 
L 879.424431 272.603815 
L 879.887609 273.294604 
L 880.350787 275.982777 
L 880.813965 274.657986 
L 881.277143 279.906226 
L 881.740321 279.80478 
L 882.2035 278.334419 
L 882.666678 277.468732 
L 883.129856 277.025757 
L 883.593034 272.621606 
L 884.056212 274.273995 
L 884.51939 272.67766 
L 884.982569 272.632203 
L 885.445747 272.959067 
L 885.908925 275.645841 
L 886.372103 275.249056 
L 886.835281 276.34996 
L 887.298459 278.632217 
L 887.761638 279.233425 
L 888.224816 280.786434 
L 888.687994 285.294228 
L 889.61435 290.515207 
L 890.077528 293.136194 
L 890.540707 293.478456 
L 891.003885 292.052885 
L 891.467063 293.552706 
L 892.856597 287.308004 
L 893.319776 290.285917 
L 893.782954 290.019305 
L 894.246132 295.093982 
L 894.70931 296.840151 
L 895.172488 301.493515 
L 896.098845 307.225387 
L 896.562023 307.8 
L 897.025201 306.584386 
L 897.488379 301.407597 
L 897.951557 301.495111 
L 898.414735 300.705008 
L 898.877914 299.355022 
L 899.80427 295.129368 
L 900.730626 301.584889 
L 901.193804 299.266305 
L 901.656983 297.977906 
L 902.120161 293.948877 
L 902.583339 291.243973 
L 903.046517 289.3509 
L 903.509695 286.115507 
L 903.972873 284.405796 
L 904.89923 278.798629 
L 905.362408 281.034696 
L 905.825586 282.594704 
L 906.288764 282.96216 
L 906.751942 281.260847 
L 907.678299 271.857671 
L 908.141477 271.530871 
L 908.604655 268.250687 
L 909.067833 267.412994 
L 909.531011 261.463566 
L 909.99419 257.575908 
L 910.457368 257.53045 
L 910.920546 258.387805 
L 911.383724 256.197993 
L 911.846902 249.536113 
L 912.31008 244.527289 
L 912.773259 244.425843 
L 913.236437 245.354582 
L 913.699615 242.187774 
L 914.162793 241.985549 
L 914.625971 237.0985 
L 915.089149 240.553713 
L 915.552328 240.320694 
L 916.478684 237.221805 
L 916.941862 238.658639 
L 917.40504 237.60819 
L 917.868218 237.519342 
L 918.331397 234.793442 
L 918.794575 237.427026 
L 919.257753 238.249388 
L 919.720931 231.744275 
L 920.184109 227.054584 
L 921.110466 226.661332 
L 921.573644 227.633462 
L 922.036822 222.431478 
L 922.5 221.984304 
L 923.426356 235.017056 
L 924.352713 239.466795 
L 925.742247 251.303529 
L 926.205425 243.159357 
L 926.668603 238.342293 
L 927.131782 235.792757 
L 927.59496 236.65711 
L 928.058138 231.396338 
L 928.521316 230.442469 
L 928.984494 228.084693 
L 929.447672 233.87462 
L 929.910851 234.636794 
L 930.374029 235.158219 
L 930.837207 232.628278 
L 931.300385 236.353635 
L 931.763563 230.132663 
L 932.226741 227.314383 
L 932.68992 236.109484 
L 933.153098 237.943835 
L 934.079454 234.940126 
L 934.542632 227.449619 
L 935.00581 230.024415 
L 935.468989 231.822374 
L 935.932167 223.476644 
L 936.395345 222.055273 
L 936.858523 220.183196 
L 937.321701 222.713202 
L 937.784879 228.489132 
L 938.248058 228.436675 
L 938.711236 229.19605 
L 939.174414 230.886231 
L 939.637592 233.568805 
L 941.027127 235.263251 
L 941.490305 236.921238 
L 941.953483 236.991957 
L 942.416661 229.87937 
L 942.879839 226.664972 
L 943.343017 225.879069 
L 943.806196 224.701247 
L 944.269374 220.37548 
L 944.732552 221.161449 
L 945.19573 220.999816 
L 945.658908 224.487222 
L 946.122086 223.321998 
L 946.585265 228.269301 
L 947.048443 227.015894 
L 947.511621 230.720256 
L 947.974799 228.281296 
L 948.437977 227.118871 
L 949.364334 229.301082 
L 949.827512 226.132875 
L 950.29069 224.271995 
L 950.753868 221.148578 
L 951.217046 223.709378 
L 951.680224 220.140854 
L 952.143403 217.815271 
L 952.606581 219.89737 
L 953.069759 219.634957 
L 953.996115 226.545384 
L 954.922472 227.001022 
L 955.38565 228.32028 
L 955.848828 227.51758 
L 956.312006 226.360754 
L 956.775184 227.230705 
L 957.238362 225.021298 
L 957.701541 219.698939 
L 958.164719 221.671861 
L 958.627897 220.29808 
L 959.091075 224.594518 
L 959.554253 223.427894 
L 960.017431 222.622394 
L 960.48061 219.277824 
L 960.943788 220.255553 
L 961.406966 215.52667 
L 961.870144 214.932527 
L 962.333322 212.409585 
L 962.7965 211.938616 
L 963.259679 211.921152 
L 963.722857 217.159594 
L 964.186035 218.086934 
L 964.649213 217.712545 
L 965.575569 217.926766 
L 966.038748 214.98951 
L 966.501926 213.12863 
L 966.965104 208.6279 
L 968.354638 202.866098 
L 968.817817 193.901697 
L 969.744173 181.591326 
L 970.207351 179.465902 
L 970.670529 174.518664 
L 971.596886 175.618901 
L 972.060064 180.384241 
L 972.523242 183.647695 
L 972.98642 187.941334 
L 973.449598 187.085445 
L 973.912776 187.727244 
L 975.302311 166.694621 
L 975.765489 163.130296 
L 976.228667 157.166871 
L 976.691845 149.059092 
L 977.155024 143.532375 
L 977.618202 142.536515 
L 978.08138 142.730408 
L 978.544558 142.181055 
L 979.007736 138.787494 
L 979.470914 133.180994 
L 979.934093 133.377686 
L 980.860449 124.316038 
L 981.323627 123.635113 
L 981.786805 121.429905 
L 982.249983 120.091117 
L 982.713162 123.35597 
L 983.17634 123.933382 
L 983.639518 127.520168 
L 984.565874 114.717099 
L 985.029052 112.32713 
L 985.492231 111.802972 
L 985.955409 109.530578 
L 986.418587 109.061008 
L 986.881765 106.213334 
L 987.344943 111.464373 
L 988.2713 114.714562 
L 988.734478 113.666913 
L 989.660834 100.512518 
L 990.124012 98.903585 
L 990.58719 94.148108 
L 991.050369 92.269032 
L 991.513547 87.415576 
L 991.976725 85.20057 
L 992.439903 86.41345 
L 992.903081 84.857707 
L 993.366259 83.719077 
L 994.292616 83.437801 
L 994.755794 85.780246 
L 995.218972 85.442249 
L 995.68215 87.464161 
L 996.145328 94.128906 
L 996.608507 96.818479 
L 997.071685 98.234317 
L 997.534863 100.039274 
L 997.998041 96.257994 
L 998.461219 95.206146 
L 998.924397 96.266458 
L 999.387576 94.230614 
L 1000.313932 97.815333 
L 1000.77711 95.433762 
L 1001.240288 99.304689 
L 1001.703466 102.162227 
L 1002.166645 98.358552 
L 1002.629823 92.390927 
L 1003.093001 93.160099 
L 1003.556179 88.330438 
L 1004.019357 88.056828 
L 1004.482535 84.232157 
L 1004.945714 79.448685 
L 1005.408892 79.222665 
L 1005.87207 82.406335 
L 1006.335248 73.127 
L 1007.724783 83.439451 
L 1008.651139 96.683559 
L 1009.114317 100.354328 
L 1009.577495 113.652292 
L 1010.040673 121.228247 
L 1010.503852 126.524077 
L 1010.96703 133.591939 
L 1011.430208 137.781999 
L 1011.893386 143.569127 
L 1012.356564 151.58739 
L 1012.819742 153.348956 
L 1013.282921 154.553438 
L 1013.746099 159.940249 
L 1014.209277 162.722203 
L 1014.672455 167.878062 
L 1016.06199 178.15972 
L 1016.525168 184.762878 
L 1016.988346 186.187114 
L 1017.451524 186.372608 
L 1017.914702 185.012824 
L 1018.37788 185.000959 
L 1018.841059 186.73873 
L 1019.304237 189.169357 
L 1019.767415 187.875359 
L 1020.230593 187.055863 
L 1021.156949 192.050088 
L 1021.620127 193.131396 
L 1022.546484 193.194449 
L 1023.009662 193.68228 
L 1023.47284 187.331135 
L 1023.936018 183.017966 
L 1024.399196 182.220864 
L 1024.862375 183.083818 
L 1025.325553 184.421272 
L 1025.788731 184.032886 
L 1026.251909 184.690082 
L 1026.715087 195.751311 
L 1027.641444 204.479959 
L 1028.104622 204.96919 
L 1028.5678 204.531814 
L 1029.030978 205.841274 
L 1029.494156 210.686398 
L 1029.957334 210.039066 
L 1030.420513 214.341103 
L 1030.883691 214.932513 
L 1031.346869 218.394725 
L 1031.810047 223.342027 
L 1032.273225 225.733462 
L 1032.736403 223.699019 
L 1033.199582 225.065867 
L 1033.66276 225.041405 
L 1034.125938 225.263291 
L 1034.589116 226.555955 
L 1035.052294 227.228548 
L 1035.515472 226.131909 
L 1035.978651 225.445384 
L 1036.441829 231.011358 
L 1036.905007 233.759719 
L 1037.831363 240.951487 
L 1038.294541 237.270986 
L 1039.220898 246.457339 
L 1039.684076 241.311343 
L 1040.147254 241.890156 
L 1040.610432 243.99605 
L 1041.07361 241.687263 
L 1041.536789 246.125072 
L 1041.999967 248.103593 
L 1042.463145 249.127513 
L 1042.926323 255.603297 
L 1043.852679 248.112122 
L 1044.315858 249.548956 
L 1044.779036 247.448726 
L 1045.242214 243.761227 
L 1045.705392 243.598193 
L 1046.16857 240.448182 
L 1046.631748 244.954577 
L 1047.094927 245.744745 
L 1047.558105 241.532355 
L 1048.021283 245.246514 
L 1048.484461 247.622552 
L 1048.947639 245.064618 
L 1049.410817 235.256193 
L 1049.873996 231.032605 
L 1050.337174 229.96396 
L 1050.800352 231.676536 
L 1051.26353 227.955444 
L 1051.726708 228.383088 
L 1052.189886 222.706602 
L 1052.653065 227.998233 
L 1053.116243 224.962998 
L 1053.579421 225.674783 
L 1054.042599 225.746901 
L 1054.505777 225.61746 
L 1054.968955 219.15014 
L 1055.432134 224.569144 
L 1055.895312 226.551864 
L 1056.35849 230.47458 
L 1057.284846 227.568851 
L 1057.748024 227.883118 
L 1058.211203 229.861639 
L 1058.674381 228.38148 
L 1059.137559 228.603367 
L 1059.600737 227.512326 
L 1060.063915 229.475451 
L 1060.527093 232.993651 
L 1060.990272 232.132163 
L 1061.45345 229.123522 
L 1061.916628 229.898294 
L 1062.379806 227.984225 
L 1063.769341 214.864155 
L 1064.232519 213.188037 
L 1064.695697 214.644466 
L 1065.158875 212.219504 
L 1065.622053 213.279816 
L 1066.085231 216.750426 
L 1066.54841 216.390034 
L 1067.011588 219.695479 
L 1067.474766 225.003906 
L 1067.937944 224.506343 
L 1068.401122 227.296694 
L 1068.8643 226.493994 
L 1069.327479 226.086012 
L 1069.790657 228.544633 
L 1070.253835 228.584557 
L 1070.717013 222.738707 
L 1071.643369 223.782956 
L 1072.106548 223.695507 
L 1072.569726 221.959201 
L 1073.032904 221.486832 
L 1073.496082 218.833717 
L 1073.95926 221.143969 
L 1074.422438 222.184685 
L 1075.348795 220.324538 
L 1075.811973 220.99853 
L 1076.275151 217.712747 
L 1076.738329 218.500116 
L 1077.201507 217.707214 
L 1077.664686 219.436587 
L 1078.127864 218.155186 
L 1078.591042 219.326075 
L 1079.05422 219.643142 
L 1079.517398 226.334482 
L 1079.980576 227.456381 
L 1080.443755 227.941413 
L 1080.906933 225.383478 
L 1081.370111 228.102445 
L 1081.833289 227.520899 
L 1082.296467 229.796158 
L 1082.759645 229.873874 
L 1083.222824 230.717232 
L 1084.14918 230.251861 
L 1084.612358 231.08542 
L 1085.075536 233.517447 
L 1085.538714 231.621574 
L 1086.465071 224.625897 
L 1086.928249 225.736598 
L 1087.391427 227.586346 
L 1087.854605 229.897997 
L 1088.317783 227.731981 
L 1088.780962 231.846457 
L 1089.707318 233.387602 
L 1090.170496 229.347376 
L 1090.633674 228.453695 
L 1091.096852 230.325838 
L 1091.560031 226.832898 
L 1092.023209 226.667065 
L 1092.486387 227.062516 
L 1092.949565 227.606335 
L 1093.412743 232.413667 
L 1093.875921 232.070071 
L 1094.3391 227.895473 
L 1094.802278 228.834011 
L 1095.265456 225.038734 
L 1095.728634 224.965282 
L 1096.191812 224.574096 
L 1096.65499 221.187534 
L 1097.118169 220.244863 
L 1097.581347 218.15723 
L 1098.044525 219.253935 
L 1098.507703 219.785157 
L 1098.970881 219.769093 
L 1099.434059 217.744448 
L 1099.897238 217.820764 
L 1100.360416 218.889475 
L 1100.823594 222.365684 
L 1101.286772 221.035293 
L 1101.74995 222.242575 
L 1102.213128 222.192918 
L 1102.676307 224.346402 
L 1103.139485 223.349143 
L 1103.602663 224.806972 
L 1104.065841 222.597565 
L 1104.529019 224.805638 
L 1104.992197 226.172486 
L 1105.455376 225.345991 
L 1105.918554 223.657275 
L 1106.381732 225.106706 
L 1107.308088 223.376732 
L 1108.234445 215.027536 
L 1108.697623 214.584561 
L 1109.623979 209.085172 
L 1110.087157 203.704025 
L 1110.550335 203.11688 
L 1111.013514 205.977217 
L 1111.476692 207.961337 
L 1111.93987 207.147439 
L 1112.403048 211.782607 
L 1112.866226 209.13929 
L 1113.792583 213.257298 
L 1114.255761 213.158652 
L 1114.718939 211.195593 
L 1115.182117 211.722616 
L 1115.645295 208.268868 
L 1116.108473 212.146793 
L 1116.571652 211.60164 
L 1117.03483 207.274474 
L 1117.498008 205.163046 
L 1117.961186 209.914389 
L 1118.424364 211.226649 
L 1118.887542 211.980425 
L 1119.35072 210.371493 
L 1119.813899 210.260249 
L 1120.277077 214.089184 
L 1120.740255 214.845759 
L 1121.203433 214.653332 
L 1121.666611 213.175973 
L 1122.129789 212.870169 
L 1122.592968 214.259413 
L 1123.056146 214.42811 
L 1123.519324 212.767389 
L 1123.982502 213.290213 
L 1124.44568 209.480939 
L 1124.908858 209.10655 
L 1125.372037 207.938526 
L 1125.835215 206.284803 
L 1126.298393 207.206544 
L 1126.761571 207.604793 
L 1127.224749 205.788704 
L 1127.687927 205.933607 
L 1128.151106 205.340863 
L 1128.614284 202.267836 
L 1129.077462 203.136388 
L 1130.003818 202.652154 
L 1130.466996 203.573895 
L 1130.930175 201.956565 
L 1131.393353 203.030874 
L 1131.856531 208.915981 
L 1132.319709 208.59898 
L 1133.246065 202.464123 
L 1133.709244 197.225746 
L 1134.172422 197.566608 
L 1135.098778 188.546952 
L 1135.561956 189.008188 
L 1136.025134 189.770363 
L 1136.951491 195.486838 
L 1137.414669 194.580559 
L 1137.877847 196.094377 
L 1138.341025 195.192298 
L 1138.804203 191.355029 
L 1139.267382 190.511738 
L 1139.73056 187.279144 
L 1140.193738 187.21549 
L 1140.656916 189.991844 
L 1141.120094 189.771423 
L 1141.583272 190.508402 
L 1142.046451 194.978404 
L 1142.509629 193.027943 
L 1142.972807 196.94646 
L 1143.435985 196.483889 
L 1143.899163 192.831383 
L 1144.362341 194.031666 
L 1144.82552 193.023208 
L 1145.288698 192.893768 
L 1145.751876 197.472947 
L 1146.215054 194.901016 
L 1146.678232 195.616999 
L 1147.14141 197.49894 
L 1147.604589 198.650233 
L 1148.067767 202.263614 
L 1148.994123 195.764833 
L 1149.920479 195.142028 
L 1150.383658 195.200149 
L 1150.846836 192.85497 
L 1151.310014 189.367628 
L 1151.773192 192.086595 
L 1152.23637 192.381267 
L 1153.162727 197.14454 
L 1153.625905 196.337641 
L 1154.089083 193.755912 
L 1155.015439 183.578696 
L 1155.941796 180.817137 
L 1156.404974 177.245813 
L 1156.868152 176.012003 
L 1157.33133 178.886337 
L 1157.794508 184.569887 
L 1158.257686 186.664583 
L 1158.720865 182.047677 
L 1159.184043 178.87667 
L 1159.647221 178.21954 
L 1160.110399 179.016707 
L 1160.573577 178.081034 
L 1161.036755 176.728249 
L 1161.499934 173.767198 
L 1161.963112 173.905102 
L 1162.42629 172.455737 
L 1162.889468 172.120539 
L 1163.352646 168.630399 
L 1163.815824 167.465174 
L 1164.279003 165.476921 
L 1165.205359 162.736357 
L 1165.668537 162.11002 
L 1166.131715 155.681892 
L 1166.594893 152.653655 
L 1167.058072 144.547275 
L 1167.984428 134.025732 
L 1168.447606 131.485993 
L 1168.910784 128.127425 
L 1169.373962 128.854607 
L 1169.837141 131.415406 
L 1171.226675 153.208267 
L 1171.689853 166.233288 
L 1172.153031 173.646877 
L 1173.542566 188.481787 
L 1174.005744 192.383507 
L 1174.468922 193.366835 
L 1174.9321 191.743906 
L 1175.395279 187.888442 
L 1176.321635 191.638326 
L 1176.784813 188.859238 
L 1177.247991 189.648006 
L 1177.711169 191.828085 
L 1178.174348 188.36034 
L 1178.637526 192.486014 
L 1179.100704 194.530321 
L 1179.563882 193.528862 
L 1180.02706 198.802297 
L 1180.490238 198.776435 
L 1180.953417 199.331453 
L 1181.879773 203.30669 
L 1182.342951 202.954697 
L 1182.806129 201.41575 
L 1183.732486 193.991761 
L 1184.195664 192.350636 
L 1184.658842 189.813697 
L 1185.12202 185.436141 
L 1185.585198 186.132529 
L 1186.048376 185.790333 
L 1186.511555 183.061634 
L 1186.974733 181.356122 
L 1187.437911 179.187306 
L 1188.827445 186.455391 
L 1190.680158 203.792312 
L 1191.143336 203.171574 
L 1191.606514 202.746796 
L 1192.069693 193.319091 
L 1192.532871 188.493629 
L 1192.996049 188.029658 
L 1193.459227 186.662876 
L 1193.922405 182.423891 
L 1194.385583 184.909106 
L 1194.848762 186.644078 
L 1195.31194 190.520604 
L 1195.775118 192.23038 
L 1196.238296 191.71742 
L 1197.164652 198.885393 
L 1197.627831 197.410833 
L 1198.091009 198.958244 
L 1198.554187 202.342072 
L 1199.017365 202.951678 
L 1199.480543 206.233327 
L 1199.943721 207.082283 
L 1200.4069 207.211789 
L 1200.870078 211.919742 
L 1201.333256 212.520949 
L 1201.796434 211.979995 
L 1202.259612 215.42681 
L 1202.72279 214.834066 
L 1203.185969 216.073541 
L 1204.112325 217.637081 
L 1205.501859 228.752965 
L 1205.965038 228.658517 
L 1206.428216 226.713655 
L 1206.891394 227.42404 
L 1207.354572 225.551962 
L 1207.81775 224.798252 
L 1208.280928 227.094507 
L 1208.744107 229.978639 
L 1209.670463 243.585272 
L 1210.133641 247.06428 
L 1211.059997 255.729941 
L 1211.523176 254.346362 
L 1211.986354 252.559667 
L 1212.449532 258.171831 
L 1212.91271 261.545861 
L 1213.375888 260.918125 
L 1213.839066 264.478317 
L 1215.228601 266.894946 
L 1215.691779 272.582695 
L 1216.154957 273.980336 
L 1216.618135 268.488613 
L 1217.081314 267.590732 
L 1217.544492 273.629808 
L 1218.00767 269.038097 
L 1219.397204 251.364042 
L 1221.249917 259.350845 
L 1221.713095 256.760717 
L 1222.176273 255.182578 
L 1222.639451 259.304053 
L 1223.10263 267.939588 
L 1223.565808 273.51396 
L 1224.028986 267.533738 
L 1224.492164 266.630259 
L 1225.41852 270.744068 
L 1226.344877 266.545008 
L 1226.808055 262.535575 
L 1227.271233 262.872238 
L 1228.197589 256.716385 
L 1229.123946 238.392866 
L 1229.587124 236.674756 
L 1230.050302 238.286554 
L 1230.51348 236.399079 
L 1230.976658 233.993713 
L 1231.439837 234.16801 
L 1232.366193 239.664731 
L 1232.829371 240.54448 
L 1233.292549 239.821564 
L 1233.755727 242.007241 
L 1234.218906 241.235335 
L 1235.145262 237.642348 
L 1235.60844 240.379511 
L 1236.071618 236.98735 
L 1236.534796 226.43568 
L 1236.997975 224.646186 
L 1237.461153 225.929051 
L 1237.924331 224.709238 
L 1239.313865 225.414024 
L 1239.777044 225.202001 
L 1240.240222 227.088141 
L 1240.7034 235.505321 
L 1241.166578 236.588029 
L 1241.629756 233.85653 
L 1242.092934 237.059796 
L 1242.556113 234.528456 
L 1243.019291 230.934737 
L 1243.482469 231.068442 
L 1243.945647 227.512515 
L 1244.408825 224.995172 
L 1244.872003 227.443995 
L 1245.335182 223.710305 
L 1245.79836 226.128334 
L 1246.261538 226.928301 
L 1246.724716 226.563709 
L 1247.187894 225.700822 
L 1247.651072 225.921309 
L 1248.114251 221.790102 
L 1248.577429 221.226752 
L 1249.040607 216.093353 
L 1249.503785 215.872932 
L 1249.966963 215.352973 
L 1250.430141 216.815001 
L 1250.89332 214.317254 
L 1251.356498 214.795288 
L 1251.819676 211.215566 
L 1252.282854 214.066105 
L 1252.746032 214.805884 
L 1253.20921 214.641451 
L 1253.672389 215.999901 
L 1254.135567 218.154785 
L 1254.598745 214.945986 
L 1255.525101 218.128989 
L 1255.988279 215.87899 
L 1256.451458 216.436807 
L 1256.914636 212.983058 
L 1257.377814 213.648653 
L 1257.840992 216.497792 
L 1258.30417 218.651277 
L 1258.767348 216.787597 
L 1259.230527 218.75772 
L 1260.156883 215.941572 
L 1260.620061 210.2021 
L 1261.083239 211.673926 
L 1261.546417 209.79485 
L 1262.009596 208.763998 
L 1262.472774 209.044672 
L 1262.935952 209.009012 
L 1263.39913 212.129695 
L 1263.862308 216.197981 
L 1264.325486 214.618443 
L 1264.788665 212.34045 
L 1265.251843 216.697075 
L 1265.715021 216.11273 
L 1266.178199 214.433812 
L 1266.641377 209.843501 
L 1267.104555 209.015606 
L 1267.567734 206.918175 
L 1268.030912 210.114443 
L 1268.49409 209.639274 
L 1268.957268 207.872175 
L 1269.883624 214.306701 
L 1270.809981 211.749499 
L 1271.273159 211.655051 
L 1271.736337 207.917162 
L 1272.199515 208.732526 
L 1272.662693 206.096207 
L 1273.125872 206.280302 
L 1274.052228 203.651715 
L 1274.515406 199.251763 
L 1274.978584 198.03335 
L 1275.441762 195.342443 
L 1276.368119 193.399713 
L 1276.831297 196.464408 
L 1277.294475 191.979074 
L 1278.220831 186.367708 
L 1278.68401 180.671627 
L 1279.147188 176.891747 
L 1279.610366 176.307401 
L 1280.073544 174.240765 
L 1280.536722 183.202431 
L 1280.9999 189.415071 
L 1281.463079 193.645723 
L 1282.389435 204.543919 
L 1282.852613 203.658636 
L 1283.315791 205.269034 
L 1283.778969 204.870849 
L 1284.242148 204.97516 
L 1284.705326 206.518372 
L 1285.168504 209.055376 
L 1285.631682 208.158896 
L 1286.09486 210.960445 
L 1286.558038 212.101941 
L 1287.484395 219.127143 
L 1287.947573 219.92431 
L 1288.410751 221.947622 
L 1288.873929 221.900764 
L 1289.337107 223.532157 
L 1290.263464 221.420063 
L 1290.726642 219.378621 
L 1291.18982 215.737311 
L 1291.652998 214.552491 
L 1292.116176 215.212486 
L 1292.579355 212.625158 
L 1293.042533 212.163987 
L 1293.505711 212.236104 
L 1293.968889 207.335058 
L 1294.432067 209.782481 
L 1294.895245 209.473878 
L 1295.358424 199.225944 
L 1295.821602 200.872734 
L 1296.28478 200.064435 
L 1296.747958 197.328738 
L 1297.211136 198.860752 
L 1297.674314 197.880289 
L 1298.137493 195.204778 
L 1298.600671 206.292603 
L 1299.063849 205.354131 
L 1299.527027 200.048568 
L 1300.453383 186.143929 
L 1300.916562 184.108086 
L 1301.37974 182.909268 
L 1301.842918 180.947609 
L 1302.306096 176.066158 
L 1303.695631 182.29286 
L 1304.621987 169.901306 
L 1305.085165 163.98967 
L 1306.011521 155.842032 
L 1306.4747 154.266692 
L 1306.937878 153.364613 
L 1307.401056 151.929245 
L 1307.864234 152.512256 
L 1308.327412 149.327252 
L 1308.79059 147.76731 
L 1309.253769 146.653874 
L 1309.716947 144.823788 
L 1310.180125 144.018289 
L 1311.106481 148.444233 
L 1311.569659 147.855688 
L 1312.032838 145.798849 
L 1313.88555 115.899805 
L 1314.348728 115.346254 
L 1314.811907 114.41758 
L 1315.275085 115.864211 
L 1315.738263 120.10886 
L 1316.201441 123.104969 
L 1316.664619 124.434025 
L 1317.127797 129.045398 
L 1317.590975 124.618852 
L 1318.054154 126.293636 
L 1318.517332 125.824067 
L 1318.98051 128.072732 
L 1319.443688 131.541942 
L 1319.906866 139.978718 
L 1320.370044 143.467525 
L 1320.833223 149.45901 
L 1321.296401 149.237189 
L 1321.759579 152.140917 
L 1322.222757 152.215834 
L 1322.685935 150.756671 
L 1323.149113 146.279736 
L 1323.612292 143.369075 
L 1324.07547 139.215472 
L 1324.538648 140.774081 
L 1325.001826 138.29313 
L 1325.465004 139.60119 
L 1325.928182 136.106851 
L 1326.391361 128.444179 
L 1327.317717 127.125719 
L 1327.780895 127.431588 
L 1328.244073 128.616474 
L 1328.707251 121.842617 
L 1329.17043 126.185246 
L 1329.633608 133.082343 
L 1330.096786 133.455398 
L 1331.48632 126.055937 
L 1331.949499 131.271984 
L 1332.412677 132.480665 
L 1332.875855 132.828525 
L 1333.339033 137.808021 
L 1333.802211 144.320198 
L 1334.265389 138.421159 
L 1334.728568 136.070381 
L 1335.191746 138.365236 
L 1335.654924 142.178775 
L 1336.118102 144.690585 
L 1336.58128 149.325753 
L 1337.044458 152.628398 
L 1337.507637 169.757364 
L 1337.970815 181.018752 
L 1338.433993 187.090021 
L 1338.897171 190.272291 
L 1339.360349 197.187584 
L 1339.823527 196.757206 
L 1340.286706 199.707125 
L 1341.213062 188.002828 
L 1341.67624 181.13519 
L 1342.139418 180.47526 
L 1342.602596 176.989319 
L 1343.065775 179.056022 
L 1343.528953 179.486465 
L 1343.992131 182.829701 
L 1344.455309 190.146711 
L 1344.918487 201.217738 
L 1345.381665 202.780546 
L 1345.844844 205.661879 
L 1346.308022 205.080333 
L 1346.7712 203.180261 
L 1347.234378 205.458319 
L 1347.697556 204.197915 
L 1348.160734 199.949132 
L 1349.087091 201.910189 
L 1349.550269 201.808743 
L 1350.013447 195.923701 
L 1350.476625 186.574381 
L 1350.939803 187.367349 
L 1351.402982 187.684415 
L 1351.86616 184.868934 
L 1352.329338 185.976836 
L 1352.792516 184.989375 
L 1353.255694 188.970879 
L 1353.718872 194.312899 
L 1354.182051 193.289045 
L 1354.645229 194.427741 
L 1355.108407 198.552015 
L 1355.571585 196.517571 
L 1356.034763 196.348939 
L 1357.424298 204.967743 
L 1358.350654 199.891066 
L 1358.813832 200.803009 
L 1359.27701 199.665778 
L 1359.740189 197.638333 
L 1360.203367 196.56269 
L 1360.666545 195.894362 
L 1361.129723 199.292187 
L 1361.592901 200.380493 
L 1362.056079 203.113457 
L 1362.519258 208.795607 
L 1362.982436 208.972703 
L 1363.445614 206.605128 
L 1363.908792 202.62509 
L 1364.37197 201.783198 
L 1364.835148 202.945689 
L 1365.298327 200.1666 
L 1366.687861 204.171965 
L 1367.151039 213.881076 
L 1367.614217 218.694006 
L 1368.077396 221.072844 
L 1368.540574 222.323516 
L 1369.003752 222.65458 
L 1369.46693 230.024778 
L 1369.930108 231.477009 
L 1370.393286 230.90946 
L 1370.856465 230.756225 
L 1371.319643 234.183444 
L 1372.245999 244.7961 
L 1372.709177 248.972163 
L 1373.172355 258.115792 
L 1373.635534 262.913326 
L 1374.098712 264.73228 
L 1374.56189 258.187975 
L 1375.488246 256.51119 
L 1375.951424 257.105399 
L 1376.414603 254.76162 
L 1376.877781 255.670763 
L 1377.340959 259.305139 
L 1377.804137 271.714288 
L 1378.267315 279.365828 
L 1378.730493 283.445312 
L 1379.193672 278.030572 
L 1380.120028 274.385796 
L 1380.583206 275.588879 
L 1381.972741 261.526805 
L 1382.435919 264.220577 
L 1382.899097 270.65437 
L 1383.825453 274.640805 
L 1384.288631 276.328187 
L 1384.75181 280.532244 
L 1385.214988 282.575152 
L 1385.678166 287.409078 
L 1386.141344 286.297042 
L 1387.0677 281.134983 
L 1387.530879 280.144722 
L 1388.457235 275.143629 
L 1388.920413 268.838674 
L 1389.383591 266.394116 
L 1389.846769 266.282872 
L 1390.309948 260.420225 
L 1391.236304 254.815858 
L 1392.16266 262.767668 
L 1392.625838 260.521868 
L 1393.089017 263.285626 
L 1393.552195 268.161543 
L 1394.015373 266.959926 
L 1394.478551 269.363958 
L 1395.404907 259.290321 
L 1395.868086 261.116274 
L 1396.331264 257.693319 
L 1396.794442 257.31753 
L 1397.25762 258.825749 
L 1397.720798 257.405778 
L 1398.183976 255.58269 
L 1398.647155 251.883993 
L 1399.110333 245.783396 
L 1399.573511 243.012706 
L 1400.036689 237.262036 
L 1400.499867 233.441564 
L 1400.963045 231.365129 
L 1401.426224 229.845778 
L 1402.35258 237.552639 
L 1402.815758 238.32881 
L 1403.278936 239.475904 
L 1403.742114 239.098716 
L 1404.205293 235.653366 
L 1404.668471 238.571091 
L 1405.131649 236.854381 
L 1405.594827 237.671144 
L 1406.058005 237.025211 
L 1406.521183 236.773996 
L 1406.984362 237.884698 
L 1407.44754 243.84259 
L 1408.373896 244.536911 
L 1408.837074 242.172136 
L 1409.300252 242.769145 
L 1409.763431 242.268782 
L 1410.226609 241.009777 
L 1410.689787 233.029371 
L 1411.616143 225.515801 
L 1412.5425 223.224544 
L 1413.005678 221.898353 
L 1413.468856 223.105634 
L 1413.932034 234.028293 
L 1414.395212 236.337145 
L 1414.85839 242.058486 
L 1415.321568 244.960815 
L 1415.784747 248.877932 
L 1416.247925 254.705652 
L 1416.711103 262.492963 
L 1417.174281 258.29457 
L 1417.637459 258.878981 
L 1418.100637 257.302242 
L 1418.563816 254.073847 
L 1419.026994 254.031189 
L 1419.490172 252.035937 
L 1419.95335 245.844359 
L 1420.416528 245.201226 
L 1420.879706 245.278942 
L 1421.806063 249.514526 
L 1422.269241 245.76264 
L 1423.195597 242.246638 
L 1423.658775 241.19199 
L 1424.121954 240.873589 
L 1424.585132 243.602354 
L 1425.04831 245.060183 
L 1425.511488 247.531401 
L 1425.974666 247.031038 
L 1426.437844 246.764426 
L 1426.901023 249.78573 
L 1427.364201 251.109187 
L 1427.827379 247.494473 
L 1428.290557 244.776971 
L 1428.753735 245.722507 
L 1429.216913 247.097754 
L 1429.680092 247.682165 
L 1430.14327 242.957481 
L 1431.069626 237.782824 
L 1431.532804 241.189048 
L 1431.995982 236.289401 
L 1432.459161 234.749054 
L 1432.922339 235.164101 
L 1433.385517 234.70153 
L 1433.848695 228.820687 
L 1434.311873 219.775103 
L 1434.775051 218.311741 
L 1435.23823 221.822943 
L 1435.701408 215.086878 
L 1436.164586 212.451959 
L 1436.627764 213.008376 
L 1437.090942 218.109647 
L 1437.55412 228.525611 
L 1438.017299 228.989647 
L 1438.480477 228.564868 
L 1438.943655 235.114837 
L 1439.406833 233.762052 
L 1440.333189 225.205699 
L 1440.796368 218.96933 
L 1441.259546 215.014486 
L 1441.722724 214.274773 
L 1442.185902 213.250919 
L 1442.64908 217.210028 
L 1443.112258 219.703641 
L 1443.575437 224.28562 
L 1466.271167 225.131777 
L 1512.125805 203.22987 
L 1513.978518 116.121938 
L 1514.904874 82.431018 
L 1515.368052 87.14037 
L 1515.83123 87.281074 
L 1516.294409 87.717116 
L 1519.073478 118.452113 
L 1519.536656 126.445182 
L 1519.999834 130.446281 
L 1520.463012 129.449022 
L 1520.92619 123.411412 
L 1521.389368 121.315381 
L 1521.852547 119.976592 
L 1522.315725 124.03508 
L 1523.242081 119.463698 
L 1523.705259 123.64536 
L 1524.168437 131.277303 
L 1524.631616 135.281203 
L 1525.094794 132.010816 
L 1525.557972 130.505463 
L 1526.02115 130.451607 
L 1526.484328 132.063404 
L 1526.947506 131.985753 
L 1527.410685 130.351626 
L 1527.873863 128.208005 
L 1528.337041 134.788767 
L 1528.800219 135.518748 
L 1529.263397 135.117765 
L 1529.726575 139.856511 
L 1530.189754 139.5843 
L 1530.652932 139.927961 
L 1531.11611 141.314405 
L 1531.579288 141.984199 
L 1532.505644 149.684061 
L 1532.968823 148.104523 
L 1533.432001 149.973866 
L 1533.895179 154.842785 
L 1534.358357 156.95008 
L 1534.821535 155.577698 
L 1535.747892 155.573565 
L 1536.21107 158.583671 
L 1536.674248 165.459772 
L 1537.137426 167.578263 
L 1538.063782 181.343063 
L 1538.526961 185.468737 
L 1538.990139 192.503005 
L 1540.379673 198.66532 
L 1540.842851 198.367915 
L 1541.30603 199.529006 
L 1541.769208 198.279799 
L 1542.232386 195.903826 
L 1542.695564 202.070275 
L 1543.158742 202.177386 
L 1543.62192 203.51484 
L 1544.085099 202.787724 
L 1544.548277 197.798496 
L 1545.474633 207.733693 
L 1545.937811 202.064206 
L 1546.400989 205.337457 
L 1546.864168 207.639311 
L 1547.327346 207.389496 
L 1547.790524 208.990095 
L 1548.71688 193.995083 
L 1549.180058 199.590451 
L 1549.643237 200.043289 
L 1550.106415 199.1902 
L 1550.569593 201.298893 
L 1551.959127 226.221503 
L 1552.422306 223.947709 
L 1552.885484 218.677139 
L 1553.81184 221.683779 
L 1554.275018 222.02604 
L 1554.738196 222.627248 
L 1555.201375 221.289859 
L 1555.664553 221.374574 
L 1556.127731 225.48905 
L 1556.590909 224.189454 
L 1556.590909 224.189454 
" clip-path="url(#p02cfc3ab8d)" style="fill: none; stroke: #35ae9c; stroke-width: 2.5; stroke-linecap: square"/>
   </g>
   <g id="patch_3">
    <path d="M 225 320.4 
L 225 43.2 
" style="fill: none; stroke: #000000; stroke-width: 0.8; stroke-linejoin: miter; stroke-linecap: square"/>
   </g>
   <g id="patch_4">
    <path d="M 1620 320.4 
L 1620 43.2 
" style="fill: none; stroke: #000000; stroke-width: 0.8; stroke-linejoin: miter; stroke-linecap: square"/>
   </g>
   <g id="patch_5">
    <path d="M 225 320.4 
L 1620 320.4 
" style="fill: none; stroke: #000000; stroke-width: 0.8; stroke-linejoin: miter; stroke-linecap: square"/>
   </g>
   <g id="patch_6">
    <path d="M 225 43.2 
L 1620 43.2 
" style="fill: none; stroke: #000000; stroke-width: 0.8; stroke-linejoin: miter; stroke-linecap: square"/>
   </g>
   <g id="text_17">
    <!-- STUE -->
    <g transform="translate(896.40625 37.2) scale(0.2 -0.2)">
     <defs>
      <path id="DejaVuSans-53" d="M 3425 4513 
L 3425 3897 
Q 3066 4069 2747 4153 
Q 2428 4238 2131 4238 
Q 1616 4238 1336 4038 
Q 1056 3838 1056 3469 
Q 1056 3159 1242 3001 
Q 1428 2844 1947 2747 
L 2328 2669 
Q 3034 2534 3370 2195 
Q 3706 1856 3706 1288 
Q 3706 609 3251 259 
Q 2797 -91 1919 -91 
Q 1588 -91 1214 -16 
Q 841 59 441 206 
L 441 856 
Q 825 641 1194 531 
Q 1563 422 1919 422 
Q 2459 422 2753 634 
Q 3047 847 3047 1241 
Q 3047 1584 2836 1778 
Q 2625 1972 2144 2069 
L 1759 2144 
Q 1053 2284 737 2584 
Q 422 2884 422 3419 
Q 422 4038 858 4394 
Q 1294 4750 2059 4750 
Q 2388 4750 2728 4690 
Q 3069 4631 3425 4513 
z
" transform="scale(0.015625)"/>
      <path id="DejaVuSans-55" d="M 556 4666 
L 1191 4666 
L 1191 1831 
Q 1191 1081 1462 751 
Q 1734 422 2344 422 
Q 2950 422 3222 751 
Q 3494 1081 3494 1831 
L 3494 4666 
L 4128 4666 
L 4128 1753 
Q 4128 841 3676 375 
Q 3225 -91 2344 -91 
Q 1459 -91 1007 375 
Q 556 841 556 1753 
L 556 4666 
z
" transform="scale(0.015625)"/>
     </defs>
     <use xlink:href="#DejaVuSans-53"/>
     <use xlink:href="#DejaVuSans-54" x="63.476562"/>
     <use xlink:href="#DejaVuSans-55" x="124.560547"/>
     <use xlink:href="#DejaVuSans-45" x="197.753906"/>
    </g>
   </g>
   <g id="legend_1">
    <g id="patch_7">
     <path d="M 1559.379688 65.878125 
L 1613 65.878125 
Q 1615 65.878125 1615 63.878125 
L 1615 50.2 
Q 1615 48.2 1613 48.2 
L 1559.379688 48.2 
Q 1557.379688 48.2 1557.379688 50.2 
L 1557.379688 63.878125 
Q 1557.379688 65.878125 1559.379688 65.878125 
z
" style="fill: #ffffff; opacity: 0.8; stroke: #cccccc; stroke-linejoin: miter"/>
    </g>
    <g id="line2d_16">
     <path d="M 1561.379688 56.298437 
L 1571.379688 56.298437 
L 1581.379688 56.298437 
" style="fill: none; stroke: #35ae9c; stroke-width: 2.5; stroke-linecap: square"/>
    </g>
    <g id="text_18">
     <!-- stue -->
     <g transform="translate(1589.379688 59.798437) scale(0.1 -0.1)">
      <defs>
       <path id="DejaVuSans-75" d="M 544 1381 
L 544 3500 
L 1119 3500 
L 1119 1403 
Q 1119 906 1312 657 
Q 1506 409 1894 409 
Q 2359 409 2629 706 
Q 2900 1003 2900 1516 
L 2900 3500 
L 3475 3500 
L 3475 0 
L 2900 0 
L 2900 538 
Q 2691 219 2414 64 
Q 2138 -91 1772 -91 
Q 1169 -91 856 284 
Q 544 659 544 1381 
z
M 1991 3584 
L 1991 3584 
z
" transform="scale(0.015625)"/>
      </defs>
      <use xlink:href="#DejaVuSans-73"/>
      <use xlink:href="#DejaVuSans-74" x="52.099609"/>
      <use xlink:href="#DejaVuSans-75" x="91.308594"/>
      <use xlink:href="#DejaVuSans-65" x="154.6875"/>
     </g>
    </g>
   </g>
  </g>
 </g>
 <defs>
  <clipPath id="p02cfc3ab8d">
   <rect x="225" y="43.2" width="1395" height="277.2"/>
  </clipPath>
 </defs>
</svg>
