<?xml version="1.0" encoding="utf-8" standalone="no"?>
<!DOCTYPE svg PUBLIC "-//W3C//DTD SVG 1.1//EN"
  "http://www.w3.org/Graphics/SVG/1.1/DTD/svg11.dtd">
<svg xmlns:xlink="http://www.w3.org/1999/xlink" width="1800pt" height="360pt" viewBox="0 0 1800 360" xmlns="http://www.w3.org/2000/svg" version="1.1">
 <metadata>
  <rdf:RDF xmlns:dc="http://purl.org/dc/elements/1.1/" xmlns:cc="http://creativecommons.org/ns#" xmlns:rdf="http://www.w3.org/1999/02/22-rdf-syntax-ns#">
   <cc:Work>
    <dc:type rdf:resource="http://purl.org/dc/dcmitype/StillImage"/>
    <dc:date>2024-03-25T15:23:12.259924</dc:date>
    <dc:format>image/svg+xml</dc:format>
    <dc:creator>
     <cc:Agent>
      <dc:title>Matplotlib v3.7.2, https://matplotlib.org/</dc:title>
     </cc:Agent>
    </dc:creator>
   </cc:Work>
  </rdf:RDF>
 </metadata>
 <defs>
  <style type="text/css">*{stroke-linejoin: round; stroke-linecap: butt}</style>
 </defs>
 <g id="figure_1">
  <g id="patch_1">
   <path d="M 0 360 
L 1800 360 
L 1800 0 
L 0 0 
z
" style="fill: #ffffff"/>
  </g>
  <g id="axes_1">
   <g id="patch_2">
    <path d="M 225 320.4 
L 1620 320.4 
L 1620 43.2 
L 225 43.2 
z
" style="fill: #ffffff"/>
   </g>
   <g id="matplotlib.axis_1">
    <g id="xtick_1">
     <g id="line2d_1">
      <defs>
       <path id="mcfc06031ec" d="M 0 0 
L 0 3.5 
" style="stroke: #000000; stroke-width: 0.8"/>
      </defs>
      <g>
       <use xlink:href="#mcfc06031ec" x="281.89844" y="320.4" style="stroke: #000000; stroke-width: 0.8"/>
      </g>
     </g>
     <g id="text_1">
      <!-- 2011 -->
      <g transform="translate(262.81094 338.797656) scale(0.15 -0.15)">
       <defs>
        <path id="DejaVuSans-32" d="M 1228 531 
L 3431 531 
L 3431 0 
L 469 0 
L 469 531 
Q 828 903 1448 1529 
Q 2069 2156 2228 2338 
Q 2531 2678 2651 2914 
Q 2772 3150 2772 3378 
Q 2772 3750 2511 3984 
Q 2250 4219 1831 4219 
Q 1534 4219 1204 4116 
Q 875 4013 500 3803 
L 500 4441 
Q 881 4594 1212 4672 
Q 1544 4750 1819 4750 
Q 2544 4750 2975 4387 
Q 3406 4025 3406 3419 
Q 3406 3131 3298 2873 
Q 3191 2616 2906 2266 
Q 2828 2175 2409 1742 
Q 1991 1309 1228 531 
z
" transform="scale(0.015625)"/>
        <path id="DejaVuSans-30" d="M 2034 4250 
Q 1547 4250 1301 3770 
Q 1056 3291 1056 2328 
Q 1056 1369 1301 889 
Q 1547 409 2034 409 
Q 2525 409 2770 889 
Q 3016 1369 3016 2328 
Q 3016 3291 2770 3770 
Q 2525 4250 2034 4250 
z
M 2034 4750 
Q 2819 4750 3233 4129 
Q 3647 3509 3647 2328 
Q 3647 1150 3233 529 
Q 2819 -91 2034 -91 
Q 1250 -91 836 529 
Q 422 1150 422 2328 
Q 422 3509 836 4129 
Q 1250 4750 2034 4750 
z
" transform="scale(0.015625)"/>
        <path id="DejaVuSans-31" d="M 794 531 
L 1825 531 
L 1825 4091 
L 703 3866 
L 703 4441 
L 1819 4666 
L 2450 4666 
L 2450 531 
L 3481 531 
L 3481 0 
L 794 0 
L 794 531 
z
" transform="scale(0.015625)"/>
       </defs>
       <use xlink:href="#DejaVuSans-32"/>
       <use xlink:href="#DejaVuSans-30" x="63.623047"/>
       <use xlink:href="#DejaVuSans-31" x="127.246094"/>
       <use xlink:href="#DejaVuSans-31" x="190.869141"/>
      </g>
     </g>
    </g>
    <g id="xtick_2">
     <g id="line2d_2">
      <g>
       <use xlink:href="#mcfc06031ec" x="451.640414" y="320.4" style="stroke: #000000; stroke-width: 0.8"/>
      </g>
     </g>
     <g id="text_2">
      <!-- 2012 -->
      <g transform="translate(432.552914 338.797656) scale(0.15 -0.15)">
       <use xlink:href="#DejaVuSans-32"/>
       <use xlink:href="#DejaVuSans-30" x="63.623047"/>
       <use xlink:href="#DejaVuSans-31" x="127.246094"/>
       <use xlink:href="#DejaVuSans-32" x="190.869141"/>
      </g>
     </g>
    </g>
    <g id="xtick_3">
     <g id="line2d_3">
      <g>
       <use xlink:href="#mcfc06031ec" x="621.847435" y="320.4" style="stroke: #000000; stroke-width: 0.8"/>
      </g>
     </g>
     <g id="text_3">
      <!-- 2013 -->
      <g transform="translate(602.759935 338.797656) scale(0.15 -0.15)">
       <defs>
        <path id="DejaVuSans-33" d="M 2597 2516 
Q 3050 2419 3304 2112 
Q 3559 1806 3559 1356 
Q 3559 666 3084 287 
Q 2609 -91 1734 -91 
Q 1441 -91 1130 -33 
Q 819 25 488 141 
L 488 750 
Q 750 597 1062 519 
Q 1375 441 1716 441 
Q 2309 441 2620 675 
Q 2931 909 2931 1356 
Q 2931 1769 2642 2001 
Q 2353 2234 1838 2234 
L 1294 2234 
L 1294 2753 
L 1863 2753 
Q 2328 2753 2575 2939 
Q 2822 3125 2822 3475 
Q 2822 3834 2567 4026 
Q 2313 4219 1838 4219 
Q 1578 4219 1281 4162 
Q 984 4106 628 3988 
L 628 4550 
Q 988 4650 1302 4700 
Q 1616 4750 1894 4750 
Q 2613 4750 3031 4423 
Q 3450 4097 3450 3541 
Q 3450 3153 3228 2886 
Q 3006 2619 2597 2516 
z
" transform="scale(0.015625)"/>
       </defs>
       <use xlink:href="#DejaVuSans-32"/>
       <use xlink:href="#DejaVuSans-30" x="63.623047"/>
       <use xlink:href="#DejaVuSans-31" x="127.246094"/>
       <use xlink:href="#DejaVuSans-33" x="190.869141"/>
      </g>
     </g>
    </g>
    <g id="xtick_4">
     <g id="line2d_4">
      <g>
       <use xlink:href="#mcfc06031ec" x="791.589409" y="320.4" style="stroke: #000000; stroke-width: 0.8"/>
      </g>
     </g>
     <g id="text_4">
      <!-- 2014 -->
      <g transform="translate(772.501909 338.797656) scale(0.15 -0.15)">
       <defs>
        <path id="DejaVuSans-34" d="M 2419 4116 
L 825 1625 
L 2419 1625 
L 2419 4116 
z
M 2253 4666 
L 3047 4666 
L 3047 1625 
L 3713 1625 
L 3713 1100 
L 3047 1100 
L 3047 0 
L 2419 0 
L 2419 1100 
L 313 1100 
L 313 1709 
L 2253 4666 
z
" transform="scale(0.015625)"/>
       </defs>
       <use xlink:href="#DejaVuSans-32"/>
       <use xlink:href="#DejaVuSans-30" x="63.623047"/>
       <use xlink:href="#DejaVuSans-31" x="127.246094"/>
       <use xlink:href="#DejaVuSans-34" x="190.869141"/>
      </g>
     </g>
    </g>
    <g id="xtick_5">
     <g id="line2d_5">
      <g>
       <use xlink:href="#mcfc06031ec" x="961.331383" y="320.4" style="stroke: #000000; stroke-width: 0.8"/>
      </g>
     </g>
     <g id="text_5">
      <!-- 2015 -->
      <g transform="translate(942.243883 338.797656) scale(0.15 -0.15)">
       <defs>
        <path id="DejaVuSans-35" d="M 691 4666 
L 3169 4666 
L 3169 4134 
L 1269 4134 
L 1269 2991 
Q 1406 3038 1543 3061 
Q 1681 3084 1819 3084 
Q 2600 3084 3056 2656 
Q 3513 2228 3513 1497 
Q 3513 744 3044 326 
Q 2575 -91 1722 -91 
Q 1428 -91 1123 -41 
Q 819 9 494 109 
L 494 744 
Q 775 591 1075 516 
Q 1375 441 1709 441 
Q 2250 441 2565 725 
Q 2881 1009 2881 1497 
Q 2881 1984 2565 2268 
Q 2250 2553 1709 2553 
Q 1456 2553 1204 2497 
Q 953 2441 691 2322 
L 691 4666 
z
" transform="scale(0.015625)"/>
       </defs>
       <use xlink:href="#DejaVuSans-32"/>
       <use xlink:href="#DejaVuSans-30" x="63.623047"/>
       <use xlink:href="#DejaVuSans-31" x="127.246094"/>
       <use xlink:href="#DejaVuSans-35" x="190.869141"/>
      </g>
     </g>
    </g>
    <g id="xtick_6">
     <g id="line2d_6">
      <g>
       <use xlink:href="#mcfc06031ec" x="1131.073357" y="320.4" style="stroke: #000000; stroke-width: 0.8"/>
      </g>
     </g>
     <g id="text_6">
      <!-- 2016 -->
      <g transform="translate(1111.985857 338.797656) scale(0.15 -0.15)">
       <defs>
        <path id="DejaVuSans-36" d="M 2113 2584 
Q 1688 2584 1439 2293 
Q 1191 2003 1191 1497 
Q 1191 994 1439 701 
Q 1688 409 2113 409 
Q 2538 409 2786 701 
Q 3034 994 3034 1497 
Q 3034 2003 2786 2293 
Q 2538 2584 2113 2584 
z
M 3366 4563 
L 3366 3988 
Q 3128 4100 2886 4159 
Q 2644 4219 2406 4219 
Q 1781 4219 1451 3797 
Q 1122 3375 1075 2522 
Q 1259 2794 1537 2939 
Q 1816 3084 2150 3084 
Q 2853 3084 3261 2657 
Q 3669 2231 3669 1497 
Q 3669 778 3244 343 
Q 2819 -91 2113 -91 
Q 1303 -91 875 529 
Q 447 1150 447 2328 
Q 447 3434 972 4092 
Q 1497 4750 2381 4750 
Q 2619 4750 2861 4703 
Q 3103 4656 3366 4563 
z
" transform="scale(0.015625)"/>
       </defs>
       <use xlink:href="#DejaVuSans-32"/>
       <use xlink:href="#DejaVuSans-30" x="63.623047"/>
       <use xlink:href="#DejaVuSans-31" x="127.246094"/>
       <use xlink:href="#DejaVuSans-36" x="190.869141"/>
      </g>
     </g>
    </g>
    <g id="xtick_7">
     <g id="line2d_7">
      <g>
       <use xlink:href="#mcfc06031ec" x="1301.280378" y="320.4" style="stroke: #000000; stroke-width: 0.8"/>
      </g>
     </g>
     <g id="text_7">
      <!-- 2017 -->
      <g transform="translate(1282.192878 338.797656) scale(0.15 -0.15)">
       <defs>
        <path id="DejaVuSans-37" d="M 525 4666 
L 3525 4666 
L 3525 4397 
L 1831 0 
L 1172 0 
L 2766 4134 
L 525 4134 
L 525 4666 
z
" transform="scale(0.015625)"/>
       </defs>
       <use xlink:href="#DejaVuSans-32"/>
       <use xlink:href="#DejaVuSans-30" x="63.623047"/>
       <use xlink:href="#DejaVuSans-31" x="127.246094"/>
       <use xlink:href="#DejaVuSans-37" x="190.869141"/>
      </g>
     </g>
    </g>
    <g id="xtick_8">
     <g id="line2d_8">
      <g>
       <use xlink:href="#mcfc06031ec" x="1471.022352" y="320.4" style="stroke: #000000; stroke-width: 0.8"/>
      </g>
     </g>
     <g id="text_8">
      <!-- 2018 -->
      <g transform="translate(1451.934852 338.797656) scale(0.15 -0.15)">
       <defs>
        <path id="DejaVuSans-38" d="M 2034 2216 
Q 1584 2216 1326 1975 
Q 1069 1734 1069 1313 
Q 1069 891 1326 650 
Q 1584 409 2034 409 
Q 2484 409 2743 651 
Q 3003 894 3003 1313 
Q 3003 1734 2745 1975 
Q 2488 2216 2034 2216 
z
M 1403 2484 
Q 997 2584 770 2862 
Q 544 3141 544 3541 
Q 544 4100 942 4425 
Q 1341 4750 2034 4750 
Q 2731 4750 3128 4425 
Q 3525 4100 3525 3541 
Q 3525 3141 3298 2862 
Q 3072 2584 2669 2484 
Q 3125 2378 3379 2068 
Q 3634 1759 3634 1313 
Q 3634 634 3220 271 
Q 2806 -91 2034 -91 
Q 1263 -91 848 271 
Q 434 634 434 1313 
Q 434 1759 690 2068 
Q 947 2378 1403 2484 
z
M 1172 3481 
Q 1172 3119 1398 2916 
Q 1625 2713 2034 2713 
Q 2441 2713 2670 2916 
Q 2900 3119 2900 3481 
Q 2900 3844 2670 4047 
Q 2441 4250 2034 4250 
Q 1625 4250 1398 4047 
Q 1172 3844 1172 3481 
z
" transform="scale(0.015625)"/>
       </defs>
       <use xlink:href="#DejaVuSans-32"/>
       <use xlink:href="#DejaVuSans-30" x="63.623047"/>
       <use xlink:href="#DejaVuSans-31" x="127.246094"/>
       <use xlink:href="#DejaVuSans-38" x="190.869141"/>
      </g>
     </g>
    </g>
    <g id="text_9">
     <!-- Time -->
     <g transform="translate(904.149609 357.314844) scale(0.15 -0.15)">
      <defs>
       <path id="DejaVuSans-54" d="M -19 4666 
L 3928 4666 
L 3928 4134 
L 2272 4134 
L 2272 0 
L 1638 0 
L 1638 4134 
L -19 4134 
L -19 4666 
z
" transform="scale(0.015625)"/>
       <path id="DejaVuSans-69" d="M 603 3500 
L 1178 3500 
L 1178 0 
L 603 0 
L 603 3500 
z
M 603 4863 
L 1178 4863 
L 1178 4134 
L 603 4134 
L 603 4863 
z
" transform="scale(0.015625)"/>
       <path id="DejaVuSans-6d" d="M 3328 2828 
Q 3544 3216 3844 3400 
Q 4144 3584 4550 3584 
Q 5097 3584 5394 3201 
Q 5691 2819 5691 2113 
L 5691 0 
L 5113 0 
L 5113 2094 
Q 5113 2597 4934 2840 
Q 4756 3084 4391 3084 
Q 3944 3084 3684 2787 
Q 3425 2491 3425 1978 
L 3425 0 
L 2847 0 
L 2847 2094 
Q 2847 2600 2669 2842 
Q 2491 3084 2119 3084 
Q 1678 3084 1418 2786 
Q 1159 2488 1159 1978 
L 1159 0 
L 581 0 
L 581 3500 
L 1159 3500 
L 1159 2956 
Q 1356 3278 1631 3431 
Q 1906 3584 2284 3584 
Q 2666 3584 2933 3390 
Q 3200 3197 3328 2828 
z
" transform="scale(0.015625)"/>
       <path id="DejaVuSans-65" d="M 3597 1894 
L 3597 1613 
L 953 1613 
Q 991 1019 1311 708 
Q 1631 397 2203 397 
Q 2534 397 2845 478 
Q 3156 559 3463 722 
L 3463 178 
Q 3153 47 2828 -22 
Q 2503 -91 2169 -91 
Q 1331 -91 842 396 
Q 353 884 353 1716 
Q 353 2575 817 3079 
Q 1281 3584 2069 3584 
Q 2775 3584 3186 3129 
Q 3597 2675 3597 1894 
z
M 3022 2063 
Q 3016 2534 2758 2815 
Q 2500 3097 2075 3097 
Q 1594 3097 1305 2825 
Q 1016 2553 972 2059 
L 3022 2063 
z
" transform="scale(0.015625)"/>
      </defs>
      <use xlink:href="#DejaVuSans-54"/>
      <use xlink:href="#DejaVuSans-69" x="57.958984"/>
      <use xlink:href="#DejaVuSans-6d" x="85.742188"/>
      <use xlink:href="#DejaVuSans-65" x="183.154297"/>
     </g>
    </g>
   </g>
   <g id="matplotlib.axis_2">
    <g id="ytick_1">
     <g id="line2d_9">
      <defs>
       <path id="m8564cf0afb" d="M 0 0 
L -3.5 0 
" style="stroke: #000000; stroke-width: 0.8"/>
      </defs>
      <g>
       <use xlink:href="#m8564cf0afb" x="225" y="284.771882" style="stroke: #000000; stroke-width: 0.8"/>
      </g>
     </g>
     <g id="text_10">
      <!-- −0.004 -->
      <g transform="translate(162.488281 290.470711) scale(0.15 -0.15)">
       <defs>
        <path id="DejaVuSans-2212" d="M 678 2272 
L 4684 2272 
L 4684 1741 
L 678 1741 
L 678 2272 
z
" transform="scale(0.015625)"/>
        <path id="DejaVuSans-2e" d="M 684 794 
L 1344 794 
L 1344 0 
L 684 0 
L 684 794 
z
" transform="scale(0.015625)"/>
       </defs>
       <use xlink:href="#DejaVuSans-2212"/>
       <use xlink:href="#DejaVuSans-30" x="83.789062"/>
       <use xlink:href="#DejaVuSans-2e" x="147.412109"/>
       <use xlink:href="#DejaVuSans-30" x="179.199219"/>
       <use xlink:href="#DejaVuSans-30" x="242.822266"/>
       <use xlink:href="#DejaVuSans-34" x="306.445312"/>
      </g>
     </g>
    </g>
    <g id="ytick_2">
     <g id="line2d_10">
      <g>
       <use xlink:href="#m8564cf0afb" x="225" y="233.903611" style="stroke: #000000; stroke-width: 0.8"/>
      </g>
     </g>
     <g id="text_11">
      <!-- −0.002 -->
      <g transform="translate(162.488281 239.602439) scale(0.15 -0.15)">
       <use xlink:href="#DejaVuSans-2212"/>
       <use xlink:href="#DejaVuSans-30" x="83.789062"/>
       <use xlink:href="#DejaVuSans-2e" x="147.412109"/>
       <use xlink:href="#DejaVuSans-30" x="179.199219"/>
       <use xlink:href="#DejaVuSans-30" x="242.822266"/>
       <use xlink:href="#DejaVuSans-32" x="306.445312"/>
      </g>
     </g>
    </g>
    <g id="ytick_3">
     <g id="line2d_11">
      <g>
       <use xlink:href="#m8564cf0afb" x="225" y="183.035339" style="stroke: #000000; stroke-width: 0.8"/>
      </g>
     </g>
     <g id="text_12">
      <!-- 0.000 -->
      <g transform="translate(175.057813 188.734167) scale(0.15 -0.15)">
       <use xlink:href="#DejaVuSans-30"/>
       <use xlink:href="#DejaVuSans-2e" x="63.623047"/>
       <use xlink:href="#DejaVuSans-30" x="95.410156"/>
       <use xlink:href="#DejaVuSans-30" x="159.033203"/>
       <use xlink:href="#DejaVuSans-30" x="222.65625"/>
      </g>
     </g>
    </g>
    <g id="ytick_4">
     <g id="line2d_12">
      <g>
       <use xlink:href="#m8564cf0afb" x="225" y="132.167068" style="stroke: #000000; stroke-width: 0.8"/>
      </g>
     </g>
     <g id="text_13">
      <!-- 0.002 -->
      <g transform="translate(175.057813 137.865896) scale(0.15 -0.15)">
       <use xlink:href="#DejaVuSans-30"/>
       <use xlink:href="#DejaVuSans-2e" x="63.623047"/>
       <use xlink:href="#DejaVuSans-30" x="95.410156"/>
       <use xlink:href="#DejaVuSans-30" x="159.033203"/>
       <use xlink:href="#DejaVuSans-32" x="222.65625"/>
      </g>
     </g>
    </g>
    <g id="ytick_5">
     <g id="line2d_13">
      <g>
       <use xlink:href="#m8564cf0afb" x="225" y="81.298796" style="stroke: #000000; stroke-width: 0.8"/>
      </g>
     </g>
     <g id="text_14">
      <!-- 0.004 -->
      <g transform="translate(175.057813 86.997624) scale(0.15 -0.15)">
       <use xlink:href="#DejaVuSans-30"/>
       <use xlink:href="#DejaVuSans-2e" x="63.623047"/>
       <use xlink:href="#DejaVuSans-30" x="95.410156"/>
       <use xlink:href="#DejaVuSans-30" x="159.033203"/>
       <use xlink:href="#DejaVuSans-34" x="222.65625"/>
      </g>
     </g>
    </g>
    <g id="text_15">
     <!-- North(m) -->
     <g transform="translate(155.36875 215.934375) rotate(-90) scale(0.15 -0.15)">
      <defs>
       <path id="DejaVuSans-4e" d="M 628 4666 
L 1478 4666 
L 3547 763 
L 3547 4666 
L 4159 4666 
L 4159 0 
L 3309 0 
L 1241 3903 
L 1241 0 
L 628 0 
L 628 4666 
z
" transform="scale(0.015625)"/>
       <path id="DejaVuSans-6f" d="M 1959 3097 
Q 1497 3097 1228 2736 
Q 959 2375 959 1747 
Q 959 1119 1226 758 
Q 1494 397 1959 397 
Q 2419 397 2687 759 
Q 2956 1122 2956 1747 
Q 2956 2369 2687 2733 
Q 2419 3097 1959 3097 
z
M 1959 3584 
Q 2709 3584 3137 3096 
Q 3566 2609 3566 1747 
Q 3566 888 3137 398 
Q 2709 -91 1959 -91 
Q 1206 -91 779 398 
Q 353 888 353 1747 
Q 353 2609 779 3096 
Q 1206 3584 1959 3584 
z
" transform="scale(0.015625)"/>
       <path id="DejaVuSans-72" d="M 2631 2963 
Q 2534 3019 2420 3045 
Q 2306 3072 2169 3072 
Q 1681 3072 1420 2755 
Q 1159 2438 1159 1844 
L 1159 0 
L 581 0 
L 581 3500 
L 1159 3500 
L 1159 2956 
Q 1341 3275 1631 3429 
Q 1922 3584 2338 3584 
Q 2397 3584 2469 3576 
Q 2541 3569 2628 3553 
L 2631 2963 
z
" transform="scale(0.015625)"/>
       <path id="DejaVuSans-74" d="M 1172 4494 
L 1172 3500 
L 2356 3500 
L 2356 3053 
L 1172 3053 
L 1172 1153 
Q 1172 725 1289 603 
Q 1406 481 1766 481 
L 2356 481 
L 2356 0 
L 1766 0 
Q 1100 0 847 248 
Q 594 497 594 1153 
L 594 3053 
L 172 3053 
L 172 3500 
L 594 3500 
L 594 4494 
L 1172 4494 
z
" transform="scale(0.015625)"/>
       <path id="DejaVuSans-68" d="M 3513 2113 
L 3513 0 
L 2938 0 
L 2938 2094 
Q 2938 2591 2744 2837 
Q 2550 3084 2163 3084 
Q 1697 3084 1428 2787 
Q 1159 2491 1159 1978 
L 1159 0 
L 581 0 
L 581 4863 
L 1159 4863 
L 1159 2956 
Q 1366 3272 1645 3428 
Q 1925 3584 2291 3584 
Q 2894 3584 3203 3211 
Q 3513 2838 3513 2113 
z
" transform="scale(0.015625)"/>
       <path id="DejaVuSans-28" d="M 1984 4856 
Q 1566 4138 1362 3434 
Q 1159 2731 1159 2009 
Q 1159 1288 1364 580 
Q 1569 -128 1984 -844 
L 1484 -844 
Q 1016 -109 783 600 
Q 550 1309 550 2009 
Q 550 2706 781 3412 
Q 1013 4119 1484 4856 
L 1984 4856 
z
" transform="scale(0.015625)"/>
       <path id="DejaVuSans-29" d="M 513 4856 
L 1013 4856 
Q 1481 4119 1714 3412 
Q 1947 2706 1947 2009 
Q 1947 1309 1714 600 
Q 1481 -109 1013 -844 
L 513 -844 
Q 928 -128 1133 580 
Q 1338 1288 1338 2009 
Q 1338 2731 1133 3434 
Q 928 4138 513 4856 
z
" transform="scale(0.015625)"/>
      </defs>
      <use xlink:href="#DejaVuSans-4e"/>
      <use xlink:href="#DejaVuSans-6f" x="74.804688"/>
      <use xlink:href="#DejaVuSans-72" x="135.986328"/>
      <use xlink:href="#DejaVuSans-74" x="177.099609"/>
      <use xlink:href="#DejaVuSans-68" x="216.308594"/>
      <use xlink:href="#DejaVuSans-28" x="279.6875"/>
      <use xlink:href="#DejaVuSans-6d" x="318.701172"/>
      <use xlink:href="#DejaVuSans-29" x="416.113281"/>
     </g>
    </g>
   </g>
   <g id="line2d_14">
    <path d="M 288.409091 157.832142 
L 288.874137 141.947712 
L 289.80423 133.470163 
L 290.269277 122.734874 
L 290.734323 119.481883 
L 291.19937 117.234389 
L 296.314881 112.309443 
L 296.779928 115.527054 
L 297.244974 113.973948 
L 297.710021 114.455572 
L 298.175068 121.560973 
L 298.640114 122.115266 
L 299.105161 123.567021 
L 299.570207 125.767267 
L 300.035254 120.72605 
L 300.5003 116.931106 
L 300.965347 116.755077 
L 301.430393 118.929888 
L 301.89544 117.394949 
L 302.360486 116.673902 
L 302.825533 115.604045 
L 303.290579 108.902343 
L 303.755626 112.599569 
L 304.220672 114.189395 
L 304.685719 117.13813 
L 305.150765 119.185771 
L 305.615812 124.336376 
L 306.080858 122.57253 
L 307.010951 110.400864 
L 307.475998 103.252248 
L 307.941044 94.076168 
L 308.406091 92.730168 
L 309.336184 78.839882 
L 309.80123 90.904939 
L 310.266277 95.648598 
L 310.731323 101.96554 
L 311.19637 104.667201 
L 311.661416 108.215456 
L 312.126463 114.681369 
L 312.591509 126.960799 
L 313.056556 129.455354 
L 313.521602 137.025835 
L 313.986649 137.489292 
L 314.451695 138.145322 
L 315.381788 142.284205 
L 315.846835 133.391534 
L 316.311881 133.894959 
L 316.776928 129.525931 
L 317.241974 114.645337 
L 317.707021 117.4124 
L 318.172067 121.127794 
L 318.637114 122.706719 
L 319.10216 134.252193 
L 319.567207 136.924787 
L 320.032253 141.92642 
L 320.4973 161.120302 
L 320.962346 166.071067 
L 321.427393 160.139656 
L 321.892439 156.03587 
L 322.357486 153.610736 
L 322.822532 150.451645 
L 323.287579 149.944972 
L 323.752625 165.272865 
L 324.217672 158.89454 
L 325.147765 173.268845 
L 325.612811 171.588568 
L 326.077858 186.360544 
L 326.542904 193.538613 
L 327.938044 156.650225 
L 328.40309 156.495996 
L 328.868137 147.516122 
L 331.658416 144.847547 
L 332.123462 145.307371 
L 332.588509 131.102599 
L 333.053555 125.44733 
L 333.518602 149.662636 
L 333.983648 151.357833 
L 334.448695 159.5242 
L 334.913741 160.082127 
L 335.378788 156.523357 
L 335.843834 150.591946 
L 336.308881 143.003682 
L 336.773927 130.205055 
L 337.238974 127.253071 
L 337.70402 120.300661 
L 338.169067 111.636897 
L 338.634113 106.177834 
L 339.564206 120.77378 
L 340.029253 132.064912 
L 340.494299 132.97165 
L 340.959346 133.042695 
L 341.889439 143.59098 
L 342.354485 142.484787 
L 342.819532 138.936918 
L 343.284578 125.982052 
L 343.749625 122.9901 
L 344.214671 125.782598 
L 344.679718 122.158426 
L 345.144764 126.694979 
L 345.609811 128.255737 
L 346.074857 132.18187 
L 346.539904 142.833516 
L 347.00495 150.076987 
L 347.469997 151.223532 
L 347.935044 160.796044 
L 348.40009 157.153705 
L 348.865137 160.193277 
L 349.330183 154.200097 
L 349.79523 142.615041 
L 350.260276 141.218173 
L 350.725323 140.348155 
L 351.190369 142.381261 
L 351.655416 150.852838 
L 352.120462 146.879855 
L 352.585509 141.013846 
L 353.980648 150.931535 
L 354.910741 134.01822 
L 355.840834 122.729483 
L 356.305881 128.119895 
L 356.770927 131.46831 
L 357.235974 131.25958 
L 357.70102 142.016595 
L 358.166067 149.935888 
L 358.631113 142.918076 
L 359.09616 140.968924 
L 359.561206 129.369334 
L 360.026253 133.368136 
L 360.491299 135.86269 
L 360.956346 132.325721 
L 361.421392 133.152524 
L 361.886439 130.858194 
L 362.351485 127.880776 
L 362.816532 134.59013 
L 363.281578 130.286504 
L 364.211671 115.157212 
L 364.676718 114.07282 
L 365.606811 125.573068 
L 366.071857 125.171765 
L 367.00195 144.422158 
L 367.466997 147.498064 
L 367.932043 145.192834 
L 368.39709 141.833904 
L 368.862136 131.949302 
L 369.327183 134.24765 
L 369.792229 116.020651 
L 370.257276 102.880479 
L 370.722322 107.860312 
L 371.187369 111.28503 
L 371.652415 112.780386 
L 372.117462 121.956852 
L 372.582508 117.47882 
L 373.047555 135.448229 
L 373.512601 143.00781 
L 373.977648 144.485 
L 374.442694 149.116022 
L 374.907741 160.388987 
L 375.837834 163.376066 
L 376.30288 161.921063 
L 376.767927 165.832663 
L 377.69802 160.688086 
L 378.163066 155.5633 
L 378.628113 156.706212 
L 379.093159 165.108753 
L 379.558206 170.306593 
L 380.023252 170.526609 
L 380.488299 178.078924 
L 380.953345 177.325176 
L 381.418392 180.775327 
L 381.883438 182.732132 
L 382.348485 175.241971 
L 382.813531 165.422771 
L 383.278578 163.876932 
L 383.743624 155.202267 
L 384.208671 158.757789 
L 384.673717 149.578075 
L 385.138764 145.394352 
L 385.60381 144.05562 
L 386.068857 150.576035 
L 386.99895 158.729877 
L 387.463996 154.09924 
L 388.394089 159.658801 
L 388.859136 170.503019 
L 389.324182 167.779943 
L 389.789229 157.45206 
L 390.719322 150.32362 
L 391.184368 144.929959 
L 391.649415 134.663845 
L 392.114461 118.689583 
L 392.579508 121.47118 
L 393.509601 139.4535 
L 393.974647 141.014258 
L 394.439694 147.63641 
L 394.90474 150.675982 
L 395.369787 163.144351 
L 395.834833 165.820578 
L 396.29988 161.426116 
L 396.764926 159.142686 
L 397.69502 167.111223 
L 398.160066 174.32926 
L 398.625113 173.829854 
L 399.090159 171.61546 
L 400.020252 175.579937 
L 400.485299 179.066423 
L 400.950345 185.292529 
L 402.345485 193.061226 
L 402.810531 196.921957 
L 403.740624 218.225248 
L 404.205671 217.834845 
L 404.670717 207.060047 
L 405.135764 207.443569 
L 405.60081 208.281271 
L 406.065857 200.794744 
L 406.530903 195.288447 
L 406.99595 184.364678 
L 407.460996 180.791375 
L 407.926043 182.566507 
L 408.856136 172.138896 
L 409.321182 173.205506 
L 409.786229 173.400088 
L 410.251275 170.695179 
L 410.716322 178.073087 
L 411.181368 179.277768 
L 411.646415 185.59471 
L 412.111461 181.545425 
L 412.576508 180.76261 
L 413.041554 170.420193 
L 413.506601 171.766578 
L 413.971647 165.064876 
L 414.436694 174.804526 
L 414.90174 176.837632 
L 415.831833 188.52682 
L 416.29688 197.641517 
L 416.761926 199.383948 
L 417.226973 195.174791 
L 417.692019 185.093982 
L 418.157066 178.148839 
L 418.622112 175.909011 
L 420.017252 166.019151 
L 420.482298 156.181783 
L 420.947345 158.189456 
L 421.412391 156.338407 
L 421.877438 157.019871 
L 422.342484 155.216057 
L 422.807531 160.199524 
L 423.272577 163.973052 
L 423.737624 170.257293 
L 424.20267 171.120429 
L 424.667717 170.62829 
L 425.132763 170.728402 
L 425.59781 170.356167 
L 426.527903 149.547795 
L 426.992949 148.950286 
L 427.457996 154.678609 
L 427.923042 158.117861 
L 428.388089 159.093634 
L 428.853135 158.685064 
L 429.318182 167.425515 
L 429.783228 172.87043 
L 430.248275 173.065012 
L 430.713321 170.668946 
L 431.178368 165.96564 
L 431.643414 164.975718 
L 432.573507 160.448827 
L 433.038554 170.144876 
L 436.758926 168.827944 
L 437.223972 165.221939 
L 437.689019 163.970409 
L 438.154065 162.202929 
L 438.619112 167.705979 
L 439.549205 175.846912 
L 440.014251 170.09354 
L 440.479298 166.858147 
L 440.944344 168.473407 
L 441.409391 177.039453 
L 441.874437 179.225165 
L 442.80453 167.300574 
L 443.269577 169.50082 
L 443.734623 174.516987 
L 444.19967 173.697837 
L 444.664716 162.715934 
L 445.129763 163.324729 
L 445.594809 170.14672 
L 446.059856 167.423643 
L 446.524902 155.696883 
L 446.989949 155.248345 
L 448.385089 150.712178 
L 448.850135 163.532991 
L 449.315182 161.972618 
L 449.780228 161.763888 
L 450.245275 164.487349 
L 450.710321 168.533386 
L 451.175368 163.05979 
L 451.640414 162.694821 
L 452.105461 149.478347 
L 452.570507 151.769428 
L 453.035554 151.001147 
L 453.5006 150.000324 
L 453.965647 144.90824 
L 454.430693 150.963573 
L 454.89574 151.775842 
L 455.360786 157.191689 
L 455.825833 146.078981 
L 456.290879 144.344202 
L 456.755926 139.797134 
L 457.220972 139.617471 
L 457.686019 133.68606 
L 458.151065 131.776876 
L 458.616112 125.427618 
L 459.081158 128.321852 
L 459.546205 118.891431 
L 460.476298 117.652811 
L 460.941344 114.995136 
L 461.406391 100.634126 
L 461.871437 97.064456 
L 462.336484 89.581562 
L 462.80153 86.934788 
L 463.266577 87.598085 
L 463.731623 87.385721 
L 464.19667 82.268202 
L 464.661716 89.627944 
L 465.126763 89.797092 
L 465.591809 97.709117 
L 466.056856 102.36194 
L 466.521902 99.689732 
L 466.986949 102.296923 
L 467.451995 109.7039 
L 467.917042 121.0241 
L 468.847135 133.120233 
L 469.312181 133.129509 
L 470.707321 151.764225 
L 471.172367 155.072672 
L 471.637414 162.076336 
L 472.567507 158.148964 
L 473.962646 127.913805 
L 474.427693 123.017926 
L 474.892739 110.048527 
L 475.357786 107.33635 
L 475.822832 115.346479 
L 476.752925 135.724865 
L 477.217972 143.266279 
L 478.148065 147.177878 
L 478.613111 136.864529 
L 479.543204 149.531114 
L 480.008251 166.036244 
L 480.473297 160.442743 
L 480.938344 165.146434 
L 481.40339 171.252636 
L 481.868437 183.542967 
L 482.333483 191.269686 
L 482.79853 194.934211 
L 483.263576 189.21354 
L 483.728623 190.236548 
L 484.193669 183.062498 
L 484.658716 183.075408 
L 485.123762 180.406833 
L 486.053855 185.859014 
L 486.518902 187.245367 
L 486.983948 177.357131 
L 487.448995 179.931622 
L 487.914041 186.597375 
L 488.379088 190.022092 
L 488.844134 196.022924 
L 489.309181 191.108879 
L 489.774227 191.005518 
L 490.239274 192.337369 
L 490.70432 186.783837 
L 491.169367 186.513338 
L 491.634413 185.926728 
L 492.09946 190.248908 
L 492.564506 191.064809 
L 493.029553 176.718333 
L 493.494599 184.688493 
L 493.959646 184.5924 
L 494.424692 186.872581 
L 494.889739 185.595617 
L 495.819832 178.281871 
L 496.284878 194.249251 
L 496.749925 189.825721 
L 497.214971 190.423616 
L 497.680018 195.152741 
L 498.145065 195.616198 
L 498.610111 199.062716 
L 499.075158 201.321097 
L 500.005251 199.472057 
L 500.470297 197.577407 
L 501.40039 196.662163 
L 501.865437 197.005717 
L 502.330483 194.616917 
L 502.79553 193.372654 
L 503.260576 187.259571 
L 503.725623 191.636251 
L 504.190669 183.186861 
L 504.655716 186.081095 
L 505.120762 185.828763 
L 505.585809 180.958318 
L 506.050855 172.930408 
L 506.515902 179.149247 
L 506.980948 176.945753 
L 507.445995 179.102397 
L 507.911041 173.207321 
L 508.376088 170.749486 
L 508.841134 171.64169 
L 509.306181 184.422536 
L 509.771227 182.051904 
L 510.236274 181.952176 
L 511.166367 189.680906 
L 511.631413 194.69344 
L 512.09646 208.266377 
L 512.561506 204.605871 
L 513.491599 212.421803 
L 513.956646 211.835194 
L 514.421692 210.6854 
L 514.886739 197.992142 
L 515.351785 196.053891 
L 515.816832 191.575859 
L 516.281878 193.165685 
L 517.211971 182.171257 
L 517.677018 190.039681 
L 518.142064 211.344596 
L 518.607111 217.850477 
L 519.072157 214.582383 
L 519.537204 210.173387 
L 520.467297 220.042217 
L 521.39739 203.357809 
L 521.862436 190.911626 
L 522.327483 194.779624 
L 522.792529 190.846609 
L 523.257576 180.773067 
L 523.722622 178.042724 
L 524.187669 181.336637 
L 524.652715 182.414147 
L 525.117762 180.977311 
L 525.582808 180.74678 
L 526.047855 195.337083 
L 526.512901 203.096503 
L 526.977948 203.719832 
L 527.442994 205.440463 
L 527.908041 205.656846 
L 528.373087 208.543813 
L 528.838134 212.945928 
L 529.30318 207.868377 
L 529.768227 213.487697 
L 530.233273 217.722673 
L 530.69832 216.322171 
L 531.163366 202.633349 
L 531.628413 201.403619 
L 532.093459 201.144021 
L 532.558506 195.779427 
L 533.023552 192.874678 
L 533.488599 194.050291 
L 533.953645 199.451604 
L 534.418692 214.216313 
L 535.348785 217.492059 
L 535.813831 214.529175 
L 536.278878 213.735459 
L 536.743924 214.689432 
L 537.208971 210.716449 
L 537.674017 216.186798 
L 538.139064 213.013174 
L 538.60411 195.948878 
L 539.069157 198.588771 
L 539.534203 198.725218 
L 539.99925 208.966283 
L 540.464296 190.902789 
L 540.929343 180.934618 
L 541.394389 174.897837 
L 541.859436 186.156268 
L 542.324482 180.33386 
L 542.789529 181.62211 
L 543.254575 166.316403 
L 543.719622 186.582152 
L 544.184668 183.851808 
L 544.649715 176.655957 
L 545.114761 183.645087 
L 546.509901 187.694758 
L 547.439994 197.163908 
L 547.905041 199.763833 
L 548.370087 204.358521 
L 548.835134 214.225341 
L 549.30018 216.636327 
L 549.765227 215.835344 
L 550.230273 208.977404 
L 550.69532 208.441663 
L 551.160366 206.536112 
L 551.625413 202.345122 
L 552.090459 191.010774 
L 552.555506 182.928362 
L 553.485599 195.355139 
L 553.950645 204.597007 
L 554.415692 206.143232 
L 554.880738 206.286945 
L 555.345785 219.925285 
L 555.810831 223.026626 
L 556.275878 223.639054 
L 556.740924 220.436363 
L 557.205971 212.154111 
L 557.671017 219.197742 
L 559.531203 232.269264 
L 559.99625 228.238146 
L 560.461296 233.454153 
L 560.926343 211.739044 
L 561.856436 210.004265 
L 562.321482 205.704272 
L 562.786529 197.8435 
L 563.251575 194.757079 
L 563.716622 203.48663 
L 564.181668 196.348915 
L 564.646715 206.36834 
L 565.111761 207.296879 
L 565.576808 212.785394 
L 566.041854 209.964215 
L 566.506901 201.780066 
L 566.971947 208.729228 
L 567.436994 217.589583 
L 568.832133 251.190471 
L 569.762226 261.13197 
L 570.227273 259.135583 
L 570.692319 256.60508 
L 571.157366 252.130681 
L 572.087459 246.957037 
L 573.017552 251.099553 
L 573.482598 247.097502 
L 573.947645 253.141936 
L 574.412691 264.767345 
L 574.877738 267.15653 
L 575.342784 264.665994 
L 575.807831 260.64941 
L 576.272877 258.34418 
L 576.737924 252.67801 
L 578.59811 218.440801 
L 579.063156 216.618819 
L 579.528203 211.875546 
L 579.993249 214.177528 
L 580.458296 214.746355 
L 580.923342 213.643796 
L 581.388389 216.719703 
L 581.853435 218.273194 
L 582.318482 219.067295 
L 582.783528 218.317181 
L 583.248575 212.294934 
L 583.713621 207.875037 
L 584.178668 204.661445 
L 584.643714 197.131317 
L 585.108761 187.424753 
L 585.573807 181.791285 
L 586.038854 184.369409 
L 586.968947 190.975402 
L 587.433993 188.114255 
L 588.364086 198.517202 
L 588.829133 196.004865 
L 589.294179 194.727901 
L 589.759226 195.885347 
L 590.224272 194.328607 
L 591.154365 185.619617 
L 591.619412 184.902204 
L 592.084458 194.954331 
L 592.549505 194.175149 
L 593.014551 189.933291 
L 593.479598 188.34385 
L 593.944644 195.634556 
L 594.409691 199.46622 
L 594.874737 207.469081 
L 595.339784 208.521157 
L 596.269877 219.596292 
L 596.734923 220.361325 
L 597.665017 207.521106 
L 598.130063 183.135412 
L 598.59511 170.918136 
L 599.990249 153.120269 
L 600.455296 154.561124 
L 600.920342 158.374621 
L 601.385389 173.884186 
L 601.850435 184.521297 
L 602.780528 179.981497 
L 603.245575 176.135685 
L 603.710621 181.598767 
L 604.175668 184.958082 
L 604.640714 184.934657 
L 605.105761 176.412598 
L 606.035854 148.275562 
L 606.5009 154.083821 
L 606.965947 149.783828 
L 607.430993 147.711139 
L 607.89604 146.572245 
L 608.361086 153.521407 
L 608.826133 165.252187 
L 609.291179 188.017748 
L 609.756226 187.318502 
L 610.221272 193.94792 
L 610.686319 196.823987 
L 611.151365 193.330619 
L 611.616412 195.883309 
L 613.011551 188.06289 
L 613.476598 183.374119 
L 613.941644 186.933274 
L 615.336784 209.630184 
L 615.80183 214.268473 
L 616.266877 220.400109 
L 616.731923 228.755416 
L 617.19697 230.715853 
L 618.127063 221.519982 
L 618.592109 219.410958 
L 619.057156 212.61842 
L 619.522202 221.892988 
L 619.987249 217.607529 
L 620.452295 215.654744 
L 620.917342 223.966449 
L 621.382388 229.422263 
L 621.847435 226.0597 
L 622.312481 230.062136 
L 622.777528 212.307485 
L 623.242574 211.292129 
L 623.707621 207.032104 
L 624.172667 204.973948 
L 624.637714 199.903664 
L 625.10276 202.129344 
L 625.567807 197.39697 
L 626.032853 199.164835 
L 626.4979 197.982341 
L 626.962946 206.977134 
L 627.427993 209.671528 
L 627.893039 218.884328 
L 628.358086 222.857696 
L 628.823132 230.82059 
L 629.288179 247.082279 
L 629.753225 246.873549 
L 630.683318 234.465709 
L 631.613411 221.305746 
L 632.078458 216.987586 
L 632.543504 214.39168 
L 633.008551 222.249204 
L 633.938644 229.051404 
L 634.40369 233.700593 
L 634.868737 232.78334 
L 635.333783 237.75954 
L 635.79883 229.495455 
L 636.263876 225.257231 
L 636.728923 219.529293 
L 637.193969 218.790079 
L 637.659016 213.421852 
L 638.124062 222.540182 
L 638.589109 215.180826 
L 639.054155 216.327372 
L 639.519202 219.875626 
L 639.984248 224.742822 
L 640.914341 244.730805 
L 641.379388 244.91812 
L 642.309481 267.075271 
L 643.239574 283.262667 
L 643.70462 284.238441 
L 644.169667 282.460061 
L 644.634713 274.584755 
L 645.564806 244.761799 
L 646.029853 238.721385 
L 646.494899 231.10042 
L 646.959946 225.724927 
L 647.424992 225.527096 
L 647.890039 238.496882 
L 648.355086 254.602332 
L 648.820132 266.572919 
L 650.215272 286.443008 
L 650.680318 291.215734 
L 651.610411 284.701347 
L 652.075458 286.683586 
L 652.540504 282.888642 
L 653.005551 284.678308 
L 653.470597 278.151011 
L 653.935644 273.582143 
L 654.40069 274.794091 
L 654.865737 273.477159 
L 655.330783 270.227232 
L 655.79583 275.842918 
L 656.260876 274.55142 
L 656.725923 276.98784 
L 657.190969 276.524768 
L 657.656016 274.804523 
L 658.121062 279.59905 
L 658.586109 273.791176 
L 659.981248 248.297667 
L 660.446295 244.037642 
L 660.911341 241.201928 
L 661.376388 233.570063 
L 661.841434 239.91244 
L 662.306481 240.103388 
L 662.771527 244.051322 
L 663.236574 250.815178 
L 663.70162 249.861591 
L 664.166667 243.330661 
L 664.631713 235.073843 
L 665.09676 230.613978 
L 665.561806 229.9547 
L 666.491899 225.231603 
L 666.956946 225.898533 
L 667.421992 232.484351 
L 667.887039 241.947858 
L 668.352085 246.197369 
L 668.817132 243.652331 
L 669.282178 243.875981 
L 669.747225 245.02616 
L 670.212271 241.558226 
L 671.142364 236.068472 
L 672.072457 229.259776 
L 672.537504 213.608891 
L 673.00255 208.705746 
L 673.467597 209.223705 
L 673.932643 206.689567 
L 674.39769 209.027884 
L 674.862736 203.528853 
L 675.327783 207.429552 
L 675.792829 215.937463 
L 676.257876 209.857081 
L 676.722922 212.090027 
L 677.187969 205.315656 
L 677.653015 201.873157 
L 678.118062 206.667684 
L 678.583108 203.792003 
L 679.048155 203.848514 
L 679.513201 218.558721 
L 679.978248 222.310448 
L 680.443294 231.181704 
L 680.908341 230.093679 
L 681.838434 221.599063 
L 682.30348 224.500564 
L 682.768527 224.037492 
L 683.233573 219.025343 
L 683.69862 216.847284 
L 684.163666 209.088248 
L 684.628713 206.674015 
L 685.093759 214.477037 
L 685.558806 210.449553 
L 686.023852 200.030833 
L 686.488899 200.661429 
L 686.953945 203.330389 
L 687.884038 220.978432 
L 688.349085 226.786691 
L 688.814131 234.331738 
L 689.744224 252.677402 
L 690.209271 253.496937 
L 690.674317 250.159808 
L 691.139364 253.21028 
L 691.60441 246.076198 
L 693.464596 241.107651 
L 694.394689 231.39583 
L 694.859736 233.904918 
L 695.324782 240.752343 
L 695.789829 228.967448 
L 696.254875 234.655803 
L 696.719922 246.858931 
L 697.184968 254.658319 
L 697.650015 256.50612 
L 698.115062 252.471369 
L 698.580108 253.679683 
L 699.045155 263.21586 
L 699.510201 267.883217 
L 699.975248 261.915471 
L 700.440294 254.036532 
L 700.905341 248.911746 
L 701.370387 247.594814 
L 701.835434 247.829364 
L 702.30048 246.265357 
L 702.765527 234.734803 
L 703.230573 234.940285 
L 703.69562 229.423087 
L 704.160666 225.813449 
L 704.625713 225.030634 
L 705.090759 212.402778 
L 705.555806 215.976467 
L 706.485899 216.656307 
L 706.950945 228.299884 
L 707.415992 233.646695 
L 707.881038 233.107321 
L 708.346085 242.479993 
L 708.811131 237.34794 
L 709.276178 238.567154 
L 710.206271 223.644969 
L 710.671317 220.082566 
L 711.136364 220.168145 
L 711.60141 216.231496 
L 712.066457 223.732942 
L 712.99655 243.975266 
L 713.461596 256.440002 
L 713.926643 259.603111 
L 714.391689 269.168356 
L 714.856736 274.896679 
L 715.786829 256.431882 
L 716.251875 259.395152 
L 716.716922 259.498897 
L 717.181968 269.085943 
L 717.647015 260.287741 
L 718.112061 262.153709 
L 718.577108 270.981364 
L 719.042154 286.331057 
L 719.507201 289.715807 
L 720.437294 270.048338 
L 720.90234 272.731832 
L 721.367387 280.233278 
L 721.832433 281.757702 
L 722.29748 273.668023 
L 722.762526 258.358683 
L 723.227573 262.284816 
L 723.692619 262.668337 
L 724.157666 265.711543 
L 724.622712 264.46728 
L 725.087759 262.685266 
L 725.552805 257.604082 
L 726.017852 269.167723 
L 726.482898 272.043789 
L 726.947945 279.926747 
L 727.412991 284.361563 
L 727.878038 285.609845 
L 728.343084 291.763282 
L 728.808131 295.62038 
L 729.273177 298.351109 
L 729.738224 299.439519 
L 730.20327 301.389056 
L 731.133363 301.531146 
L 731.59841 297.921508 
L 732.063456 302.756004 
L 732.528503 301.039392 
L 732.993549 303.159702 
L 733.458596 306.965931 
L 733.923642 307.8 
L 734.388689 307.038985 
L 734.853735 303.665522 
L 735.318782 293.599247 
L 735.783828 300.701013 
L 736.248875 304.169332 
L 736.713921 299.57503 
L 737.178968 291.743325 
L 738.109061 281.882533 
L 738.574107 288.261244 
L 739.039154 278.362107 
L 739.5042 274.99591 
L 739.969247 272.99589 
L 740.434293 285.467893 
L 740.89934 292.933004 
L 741.364386 302.828892 
L 741.829433 298.467131 
L 742.294479 297.767885 
L 742.759526 293.758568 
L 769.267177 269.165768 
L 769.732223 244.525733 
L 770.662316 210.546113 
L 771.127363 202.285662 
L 772.057456 174.606441 
L 772.987549 191.120847 
L 773.452595 192.532634 
L 773.917642 198.253691 
L 774.382688 194.509615 
L 774.847735 200.048999 
L 775.777828 217.435433 
L 776.242874 222.822212 
L 776.707921 226.174261 
L 777.172967 227.473411 
L 777.638014 226.585226 
L 778.10306 227.604601 
L 778.568107 224.071265 
L 779.033153 219.037316 
L 779.4982 197.042431 
L 780.428293 181.477125 
L 780.893339 182.547368 
L 781.358386 176.154509 
L 781.823432 167.167369 
L 782.288479 167.45642 
L 783.683618 189.66243 
L 784.613711 200.359686 
L 785.078758 203.362924 
L 785.543804 204.302363 
L 786.008851 203.715754 
L 786.473897 202.729465 
L 786.938944 193.524317 
L 787.40399 194.154913 
L 787.869037 184.709958 
L 788.334083 186.401521 
L 788.79913 194.157308 
L 793.914641 196.47019 
L 794.379688 197.64217 
L 794.844734 197.858553 
L 795.309781 189.071252 
L 795.774827 194.508899 
L 796.239874 191.684086 
L 797.635014 171.658916 
L 798.10006 175.388843 
L 798.565107 176.106641 
L 799.030153 178.419523 
L 799.4952 175.064227 
L 799.960246 160.012861 
L 800.425293 166.471508 
L 800.890339 167.316477 
L 801.820432 169.778331 
L 802.285479 178.813092 
L 802.750525 182.557553 
L 803.680618 195.367466 
L 804.145665 213.903694 
L 804.610711 217.164906 
L 805.075758 224.877092 
L 814.841734 244.08141 
L 815.306781 258.762085 
L 819.492199 258.152515 
L 825.537804 273.269589 
L 826.467897 269.701771 
L 826.932943 262.120696 
L 827.39799 230.530261 
L 827.863036 209.360554 
L 828.328083 206.464154 
L 828.793129 175.538254 
L 829.258176 173.890678 
L 829.723222 179.448229 
L 830.653315 174.042044 
L 831.118362 169.538578 
L 831.583408 168.185311 
L 832.048455 177.688787 
L 832.513501 174.784038 
L 832.978548 169.681053 
L 833.443594 175.136868 
L 833.908641 183.786483 
L 834.838734 189.158729 
L 835.30378 193.212033 
L 835.768827 186.350459 
L 836.233873 186.443305 
L 836.69892 187.233772 
L 837.629013 169.085085 
L 838.094059 157.151218 
L 838.559106 152.607784 
L 839.489199 149.149127 
L 839.954245 143.613761 
L 840.419292 145.239922 
L 840.884338 150.666669 
L 841.349385 159.566993 
L 841.814431 154.060695 
L 842.279478 153.016271 
L 842.744524 149.711843 
L 843.209571 150.353339 
L 843.674617 152.361012 
L 844.139664 152.090513 
L 845.534803 140.226067 
L 845.99985 133.825941 
L 846.464896 129.671286 
L 846.929943 130.072974 
L 847.394989 133.366887 
L 847.860036 133.474267 
L 848.325083 139.242558 
L 848.790129 146.49693 
L 849.255176 157.900699 
L 849.720222 163.269311 
L 850.185269 160.560768 
L 850.650315 157.194571 
L 851.115362 155.452526 
L 851.580408 150.382242 
L 852.045455 151.158175 
L 852.510501 153.358421 
L 852.975548 147.390675 
L 853.440594 132.313876 
L 853.905641 124.456737 
L 854.370687 121.697326 
L 854.835734 125.503555 
L 855.765827 119.192642 
L 856.230873 120.687998 
L 856.69592 138.424867 
L 857.626013 138.194336 
L 858.091059 143.283172 
L 858.556106 142.896403 
L 861.811431 145.576263 
L 862.276478 139.633952 
L 862.741524 145.235105 
L 863.206571 147.220977 
L 863.671617 161.080956 
L 864.60171 171.066057 
L 865.066757 169.672822 
L 865.99685 186.779481 
L 866.461896 185.909462 
L 866.926943 180.272361 
L 867.391989 182.745115 
L 867.857036 182.08947 
L 868.322082 185.357949 
L 868.787129 185.101984 
L 869.252175 179.374046 
L 869.717222 181.705095 
L 870.182268 188.817762 
L 870.647315 190.690997 
L 871.577408 186.938031 
L 872.042454 186.489493 
L 872.507501 190.938842 
L 872.972547 192.470533 
L 873.90264 181.912119 
L 875.29778 191.328777 
L 875.762826 188.347726 
L 876.227873 183.164805 
L 876.692919 186.574989 
L 877.157966 180.589076 
L 877.623012 184.093729 
L 879.948245 185.850694 
L 880.878338 188.73967 
L 881.343384 198.650092 
L 881.808431 197.642003 
L 882.273477 213.562148 
L 882.738524 210.46846 
L 883.20357 211.4406 
L 883.668617 201.098183 
L 884.59871 202.927817 
L 885.063756 199.092905 
L 885.528803 205.431648 
L 885.993849 200.688374 
L 886.458896 204.487337 
L 886.923942 202.163939 
L 887.388989 211.649248 
L 887.854035 211.891065 
L 888.319082 207.765477 
L 888.784128 201.914002 
L 889.249175 204.274119 
L 889.714221 195.523152 
L 890.179268 209.539371 
L 891.109361 200.101682 
L 891.574407 201.902248 
L 903.665617 201.275671 
L 904.130663 200.100443 
L 904.59571 189.638123 
L 905.990849 177.508049 
L 906.455896 153.794544 
L 906.920942 154.595912 
L 907.385989 143.999154 
L 907.851035 140.734693 
L 908.316082 132.252602 
L 908.781128 129.46049 
L 909.246175 142.571979 
L 909.711221 151.475936 
L 910.176268 156.510271 
L 910.641314 157.006429 
L 911.106361 158.930533 
L 912.036454 173.1595 
L 912.5015 169.302788 
L 913.431593 154.075393 
L 913.89664 157.859821 
L 914.361686 162.974092 
L 914.826733 158.866672 
L 915.291779 156.652278 
L 915.756826 161.777449 
L 916.221872 151.333296 
L 916.686919 152.149197 
L 917.617012 142.749853 
L 918.082058 143.336847 
L 919.012151 136.35537 
L 919.477198 127.20109 
L 919.942244 141.911297 
L 920.872337 134.472005 
L 921.337384 127.6831 
L 921.80243 115.941806 
L 922.267477 108.862225 
L 922.732523 115.244569 
L 924.592709 119.926459 
L 925.057756 117.85377 
L 925.522802 129.809823 
L 926.452895 146.327863 
L 926.917942 154.327091 
L 927.382988 157.88988 
L 934.358686 154.084036 
L 934.823732 153.134082 
L 935.288779 150.698048 
L 935.753825 142.415796 
L 936.218872 131.873539 
L 936.683918 130.520272 
L 937.148965 119.948948 
L 937.614011 115.983232 
L 938.079058 116.820935 
L 938.544104 118.181854 
L 939.009151 121.788243 
L 939.474197 123.741414 
L 939.939244 119.063543 
L 940.40429 120.002982 
L 940.869337 132.166142 
L 941.334383 137.044238 
L 941.79943 128.602114 
L 942.264476 130.199207 
L 944.124662 144.575522 
L 944.589709 135.010663 
L 945.054755 131.956943 
L 945.519802 132.431301 
L 945.984848 127.444586 
L 946.449895 127.519264 
L 946.914941 106.828787 
L 947.379988 106.961601 
L 947.845035 112.639056 
L 948.310081 109.865111 
L 948.775128 121.944702 
L 949.240174 129.279009 
L 949.705221 140.918952 
L 950.170267 159.912994 
L 950.635314 156.797505 
L 951.10036 160.498365 
L 951.565407 163.043788 
L 952.030453 156.342086 
L 952.4955 155.621039 
L 952.960546 148.330718 
L 953.425593 144.132462 
L 953.890639 148.872487 
L 954.355686 143.275353 
L 954.820732 136.152171 
L 955.285779 138.283381 
L 955.750825 131.276469 
L 956.215872 128.989407 
L 956.680918 127.418133 
L 957.611011 131.913094 
L 958.076058 137.568748 
L 958.541104 126.605011 
L 959.006151 129.055965 
L 959.471197 127.65183 
L 959.936244 130.676868 
L 960.40129 123.295711 
L 960.866337 109.792194 
L 961.331383 107.803074 
L 961.79643 116.027576 
L 962.726523 117.413697 
L 963.191569 115.951195 
L 963.656616 112.203254 
L 964.121662 116.725041 
L 964.586709 132.463282 
L 965.051755 136.211144 
L 965.516802 136.100284 
L 965.981848 140.044585 
L 966.446895 145.104354 
L 966.911941 154.368022 
L 967.842034 162.202121 
L 968.307081 166.353528 
L 968.772127 167.223932 
L 969.237174 165.874298 
L 969.70222 160.629609 
L 970.167267 147.133359 
L 970.632313 137.79014 
L 971.09736 131.586221 
L 971.562406 132.482058 
L 972.027453 130.314899 
L 972.492499 131.159868 
L 972.957546 132.847798 
L 973.422592 135.760199 
L 973.887639 145.027501 
L 974.352685 150.283476 
L 974.817732 149.482493 
L 975.282778 154.182551 
L 975.747825 160.891905 
L 976.212871 169.948467 
L 976.677918 185.625171 
L 977.608011 183.343751 
L 978.538104 194.037373 
L 979.00315 189.119694 
L 979.468197 179.460366 
L 979.933243 180.737715 
L 980.39829 187.508838 
L 980.863336 185.043736 
L 981.793429 166.375466 
L 982.258476 163.834062 
L 982.723522 163.410958 
L 983.188569 155.16504 
L 983.653615 142.722491 
L 984.118662 139.908578 
L 984.583708 142.323197 
L 985.048755 143.760418 
L 985.513801 141.633227 
L 985.978848 152.00873 
L 986.443894 145.80481 
L 986.908941 150.04342 
L 987.373987 150.786653 
L 987.839034 145.156818 
L 988.30408 142.597247 
L 988.769127 144.975531 
L 989.69922 140.441373 
L 990.164266 135.857971 
L 990.629313 134.882583 
L 991.094359 140.3929 
L 991.559406 127.703275 
L 992.024452 124.090004 
L 992.489499 123.87764 
L 992.954545 132.843366 
L 993.419592 131.595469 
L 993.884638 137.665336 
L 994.349685 129.800931 
L 994.814731 135.231312 
L 995.279778 135.131584 
L 995.744824 126.8893 
L 996.209871 115.874696 
L 996.674917 112.744673 
L 997.139964 106.591621 
L 997.605011 105.521764 
L 999.00015 120.174221 
L 999.465197 127.835538 
L 999.930243 131.416494 
L 1000.39529 128.326439 
L 1000.860336 136.990588 
L 1001.325383 129.780204 
L 1001.790429 126.73375 
L 1002.255476 124.701029 
L 1002.720522 129.873435 
L 1003.185569 129.697405 
L 1003.650615 128.431341 
L 1004.115662 116.715481 
L 1004.580708 121.433706 
L 1005.045755 123.633951 
L 1005.510801 121.030778 
L 1008.766127 107.741635 
L 1009.231173 95.488024 
L 1009.69622 96.031417 
L 1010.161266 100.713308 
L 1010.626313 100.729851 
L 1011.556406 101.889306 
L 1012.021452 103.257492 
L 1012.486499 115.006439 
L 1012.951545 120.113443 
L 1013.416592 116.431136 
L 1013.881638 118.253503 
L 1014.346685 111.006783 
L 1015.276778 121.805776 
L 1015.741824 115.892532 
L 1016.206871 107.853721 
L 1016.671917 113.422173 
L 1017.136964 115.905827 
L 1017.60201 117.364849 
L 1018.067057 108.955427 
L 1018.532103 108.848433 
L 1018.99715 114.791129 
L 1019.462196 122.56145 
L 1019.927243 118.795574 
L 1020.392289 122.045886 
L 1020.857336 131.749202 
L 1021.322382 130.882817 
L 1022.717522 129.775001 
L 1023.647615 133.572339 
L 1024.577708 125.869815 
L 1025.042754 136.430624 
L 1025.972847 125.868576 
L 1026.437894 121.041733 
L 1026.90294 133.753544 
L 1027.833033 141.400327 
L 1028.29808 139.120532 
L 1028.763126 130.067989 
L 1029.693219 160.022519 
L 1030.158266 161.383438 
L 1030.623312 153.053951 
L 1031.088359 140.985646 
L 1031.553405 141.132994 
L 1032.018452 148.31833 
L 1032.483498 140.926273 
L 1032.948545 141.233492 
L 1033.413591 142.550809 
L 1033.878638 141.233877 
L 1034.808731 153.987665 
L 1035.273777 149.062719 
L 1035.738824 148.374373 
L 1036.20387 140.669839 
L 1037.133963 134.240646 
L 1037.59901 135.990343 
L 1038.064056 136.362965 
L 1038.529103 132.880497 
L 1038.994149 141.686351 
L 1039.459196 152.766743 
L 1039.924242 170.852423 
L 1040.389289 181.620339 
L 1040.854335 186.810912 
L 1041.784428 190.802447 
L 1042.714521 178.085765 
L 1043.179568 164.727586 
L 1043.644614 147.499785 
L 1044.574707 134.405224 
L 1045.039754 131.427806 
L 1045.5048 135.146833 
L 1045.969847 135.766528 
L 1046.434893 134.039017 
L 1047.364986 131.43422 
L 1047.830033 129.488701 
L 1048.29508 128.989295 
L 1048.760126 132.323176 
L 1049.225173 139.33774 
L 1049.690219 141.338146 
L 1050.155266 145.282446 
L 1050.620312 152.28611 
L 1051.085359 157.000701 
L 1051.550405 157.816603 
L 1052.015452 162.298653 
L 1052.480498 164.611536 
L 1052.945545 175.590191 
L 1053.410591 177.750469 
L 1053.875638 164.152483 
L 1054.340684 161.469374 
L 1054.805731 161.355113 
L 1055.270777 163.497223 
L 1055.735824 164.233189 
L 1056.20087 162.879922 
L 1056.665917 159.052278 
L 1057.130963 170.848459 
L 1057.59601 178.375339 
L 1058.526103 164.067207 
L 1058.991149 160.904483 
L 1059.456196 153.585095 
L 1059.921242 152.090123 
L 1060.851335 139.936625 
L 1061.316382 146.097329 
L 1061.781428 141.041579 
L 1062.246475 139.455771 
L 1062.711521 143.621712 
L 1063.176568 144.869994 
L 1063.641614 142.673768 
L 1064.106661 134.071772 
L 1064.571707 133.278057 
L 1065.5018 142.979748 
L 1065.966847 141.114165 
L 1066.431893 149.491272 
L 1066.89694 152.022161 
L 1067.361986 166.637898 
L 1067.827033 170.916476 
L 1068.292079 176.528529 
L 1069.222172 162.712536 
L 1070.152265 169.670974 
L 1070.617312 169.102532 
L 1071.082358 160.086324 
L 1071.547405 163.667279 
L 1072.012451 161.950668 
L 1072.477498 171.512279 
L 1072.942544 175.950728 
L 1073.407591 172.322923 
L 1073.872637 181.034307 
L 1074.337684 186.461054 
L 1074.80273 172.913936 
L 1075.267777 166.735451 
L 1075.732823 155.459238 
L 1076.19787 156.195204 
L 1076.662916 154.496759 
L 1077.127963 158.473761 
L 1077.593009 156.401071 
L 1078.058056 164.385766 
L 1078.523102 164.089833 
L 1078.988149 171.242468 
L 1079.453195 165.176619 
L 1079.918242 164.546408 
L 1080.383288 161.950502 
L 1080.848335 154.754651 
L 1081.313381 158.459144 
L 1081.778428 185.701113 
L 1082.708521 199.821077 
L 1083.173567 202.871549 
L 1083.638614 204.770219 
L 1084.10366 218.397658 
L 1084.568707 210.86753 
L 1085.033753 190.18432 
L 1085.4988 186.938027 
L 1085.963846 178.979152 
L 1086.428893 178.065532 
L 1086.893939 176.388889 
L 1087.358986 173.604043 
L 1087.824032 180.742145 
L 1088.289079 180.435311 
L 1088.754125 181.643625 
L 1089.219172 185.911302 
L 1089.684218 188.224185 
L 1090.149265 183.793388 
L 1090.614311 186.135337 
L 1091.079358 183.430428 
L 1091.544404 183.62501 
L 1092.009451 184.90236 
L 1092.474497 182.153849 
L 1092.939544 176.335075 
L 1093.40459 180.693588 
L 1093.869637 175.110988 
L 1094.334683 173.70322 
L 1095.264776 159.020842 
L 1095.729823 159.291727 
L 1096.194869 163.483101 
L 1096.659916 160.040602 
L 1097.124962 167.011565 
L 1097.590009 168.910234 
L 1098.055056 174.500486 
L 1098.520102 178.546523 
L 1098.985149 183.613559 
L 1099.450195 184.698336 
L 1099.915242 187.214692 
L 1100.380288 179.310318 
L 1100.845335 177.077757 
L 1101.310381 176.480248 
L 1101.775428 172.398261 
L 1102.240474 165.020738 
L 1102.705521 160.295632 
L 1103.170567 162.085297 
L 1103.635614 161.531389 
L 1105.030753 179.025202 
L 1105.4958 179.779336 
L 1105.960846 180.842312 
L 1106.425893 172.719932 
L 1106.890939 176.620631 
L 1107.821032 167.886207 
L 1108.286079 160.570452 
L 1109.216172 155.785587 
L 1109.681218 161.364939 
L 1110.146265 160.175177 
L 1110.611311 158.578469 
L 1111.076358 156.429478 
L 1111.541404 155.461356 
L 1112.006451 157.160186 
L 1112.471497 157.699946 
L 1112.936544 157.131504 
L 1113.40159 161.373747 
L 1113.866637 167.127504 
L 1114.331683 175.453743 
L 1114.79673 180.557113 
L 1115.726823 197.671039 
L 1116.191869 192.684324 
L 1116.656916 179.366113 
L 1117.121962 180.915971 
L 1117.587009 175.06813 
L 1118.052055 178.48558 
L 1118.517102 177.710032 
L 1118.982148 171.684151 
L 1119.447195 178.200932 
L 1119.912241 190.698369 
L 1120.377288 187.822688 
L 1120.842334 189.467016 
L 1121.307381 186.540466 
L 1121.772427 180.12944 
L 1122.237474 178.169387 
L 1122.70252 174.127369 
L 1123.167567 173.217383 
L 1123.632613 172.619874 
L 1124.09766 175.423271 
L 1124.562706 173.034472 
L 1125.027753 172.989247 
L 1126.422892 192.412421 
L 1127.352985 197.223491 
L 1127.818032 196.208135 
L 1128.283078 195.686928 
L 1130.608311 162.403691 
L 1131.073357 160.389137 
L 1132.00345 159.172317 
L 1132.468497 165.427491 
L 1132.933543 167.991081 
L 1133.39859 172.146121 
L 1133.863636 174.041157 
L 1134.328683 184.863575 
L 1134.793729 185.047256 
L 1135.258776 187.007694 
L 1136.188869 202.137757 
L 1136.653915 206.129292 
L 1137.118962 213.361863 
L 1138.514101 205.944757 
L 1138.979148 199.471962 
L 1139.444194 200.978219 
L 1140.374287 185.863461 
L 1140.839334 187.442387 
L 1141.30438 192.313216 
L 1141.769427 188.997888 
L 1142.234473 186.765327 
L 1142.69952 182.149224 
L 1143.164566 190.544498 
L 1143.629613 192.919149 
L 1144.094659 191.347875 
L 1144.559706 195.372112 
L 1145.024752 194.789136 
L 1145.489799 185.064405 
L 1145.954845 179.060325 
L 1146.419892 169.604469 
L 1146.884938 163.142575 
L 1147.815032 147.918813 
L 1148.745125 165.853898 
L 1149.210171 164.344393 
L 1150.140264 164.655245 
L 1150.605311 168.62498 
L 1151.070357 167.297147 
L 1151.535404 167.578932 
L 1152.00045 165.259168 
L 1152.465497 159.567565 
L 1152.930543 160.706843 
L 1153.39559 158.597819 
L 1153.860636 159.842468 
L 1154.325683 164.855002 
L 1154.790729 152.877534 
L 1155.255776 150.97925 
L 1155.720822 153.815348 
L 1156.185869 150.754361 
L 1156.650915 157.318378 
L 1157.115962 154.271924 
L 1157.581008 155.672811 
L 1158.046055 163.748342 
L 1158.511101 165.429004 
L 1158.976148 162.753162 
L 1159.441194 157.72648 
L 1159.906241 158.386143 
L 1160.371287 165.219035 
L 1160.836334 161.151583 
L 1161.30138 164.180254 
L 1161.766427 159.956564 
L 1162.231473 173.049886 
L 1162.69652 180.39146 
L 1163.161566 180.698679 
L 1163.626613 179.178274 
L 1164.556706 189.294178 
L 1165.021752 204.236926 
L 1165.486799 196.732232 
L 1165.951845 198.445595 
L 1166.416892 203.221955 
L 1166.881938 203.216698 
L 1167.346985 210.147692 
L 1167.812031 210.614783 
L 1168.277078 202.677709 
L 1168.742124 204.881588 
L 1169.207171 204.385815 
L 1169.672217 196.485075 
L 1170.137264 200.988926 
L 1170.60231 198.178647 
L 1171.067357 196.985252 
L 1171.532403 198.466074 
L 1171.99745 200.98243 
L 1172.462496 200.010675 
L 1172.927543 205.833468 
L 1173.857636 191.263727 
L 1174.322682 184.347652 
L 1174.787729 169.096447 
L 1175.252775 164.251436 
L 1175.717822 156.946582 
L 1176.182868 152.039803 
L 1177.112961 159.325252 
L 1177.578008 164.817401 
L 1178.043054 171.962769 
L 1178.508101 165.671646 
L 1178.973147 167.726554 
L 1179.438194 166.696664 
L 1179.90324 153.501991 
L 1180.368287 146.349741 
L 1180.833333 152.172534 
L 1182.228473 178.248551 
L 1182.693519 174.889621 
L 1183.158566 180.025693 
L 1183.623612 181.731789 
L 1184.088659 170.866156 
L 1184.553705 166.958575 
L 1185.018752 157.84063 
L 1185.483798 153.391666 
L 1185.948845 150.087237 
L 1186.878938 159.865231 
L 1187.809031 177.883885 
L 1188.274077 183.22343 
L 1188.739124 184.369975 
L 1189.20417 193.372035 
L 1189.669217 194.871025 
L 1190.59931 184.363479 
L 1191.064356 172.673053 
L 1191.529403 168.558366 
L 1191.994449 172.477232 
L 1192.459496 166.989101 
L 1192.924542 172.713791 
L 1193.389589 183.452639 
L 1193.854635 190.234663 
L 1194.319682 195.290798 
L 1194.784728 203.428098 
L 1195.249775 202.350973 
L 1195.714821 210.93882 
L 1196.179868 205.737732 
L 1196.644914 198.447411 
L 1197.109961 187.083995 
L 1197.575008 185.737996 
L 1198.040054 180.395203 
L 1198.505101 187.060956 
L 1198.970147 183.665691 
L 1199.435194 177.09116 
L 1199.90024 175.450851 
L 1200.365287 181.949465 
L 1200.830333 183.368519 
L 1201.29538 182.956316 
L 1201.760426 172.105216 
L 1202.225473 170.403138 
L 1203.155566 183.567506 
L 1204.085659 183.280849 
L 1205.015752 196.452483 
L 1205.480798 200.004371 
L 1205.945845 190.159736 
L 1206.410891 184.126589 
L 1206.875938 183.888791 
L 1207.340984 180.326387 
L 1207.806031 179.082124 
L 1208.271077 171.126883 
L 1208.736124 167.400974 
L 1209.20117 168.870897 
L 1209.666217 174.617387 
L 1210.131263 171.5455 
L 1210.59631 182.625892 
L 1211.061356 181.31986 
L 1211.526403 184.450268 
L 1211.991449 184.717519 
L 1212.456496 194.675176 
L 1212.921542 194.778922 
L 1213.386589 194.264982 
L 1213.851635 183.911665 
L 1214.316682 176.388803 
L 1214.781728 181.226932 
L 1215.246775 178.64556 
L 1215.711821 167.445649 
L 1216.176868 162.829546 
L 1216.641914 161.138369 
L 1217.106961 163.658358 
L 1217.572007 171.624885 
L 1218.037054 160.497643 
L 1218.5021 160.408816 
L 1219.89724 165.635724 
L 1220.362286 166.716867 
L 1220.827333 165.516206 
L 1221.292379 155.573468 
L 1221.757426 153.308206 
L 1222.222472 165.017184 
L 1222.687519 171.951813 
L 1223.152565 171.823018 
L 1223.617612 177.533174 
L 1224.547705 192.394362 
L 1225.012751 196.890946 
L 1225.477798 195.192502 
L 1225.942844 196.161008 
L 1226.407891 202.452516 
L 1226.872937 202.17475 
L 1227.337984 203.244993 
L 1227.80303 205.685046 
L 1228.268077 197.529965 
L 1228.733123 197.066893 
L 1229.19817 191.146382 
L 1229.663216 192.765276 
L 1230.128263 189.399079 
L 1230.593309 181.138628 
L 1231.058356 183.266204 
L 1231.523402 190.96749 
L 1231.988449 193.145935 
L 1232.453495 200.607413 
L 1232.918542 191.162457 
L 1233.383588 189.627518 
L 1233.848635 201.772511 
L 1234.313681 200.161269 
L 1234.778728 199.749066 
L 1235.243774 201.302557 
L 1235.708821 192.871334 
L 1236.638914 215.275559 
L 1237.10396 209.754728 
L 1238.964146 212.307803 
L 1239.429193 221.451568 
L 1239.894239 214.746232 
L 1240.359286 201.420754 
L 1240.824332 199.068289 
L 1241.289379 202.2641 
L 1241.754425 200.300414 
L 1242.219472 195.542606 
L 1242.684518 206.953642 
L 1243.149565 209.299226 
L 1244.079658 218.187025 
L 1245.009751 226.486205 
L 1245.474797 227.098634 
L 1245.939844 214.964927 
L 1246.40489 206.094056 
L 1246.869937 192.953885 
L 1247.334983 194.343871 
L 1247.80003 191.166613 
L 1248.265077 187.051926 
L 1248.730123 193.067292 
L 1249.19517 193.250974 
L 1249.660216 206.024553 
L 1250.125263 206.738718 
L 1250.590309 210.18887 
L 1251.055356 208.363255 
L 1251.520402 217.743193 
L 1251.985449 219.140447 
L 1252.450495 217.656376 
L 1252.915542 220.507008 
L 1253.380588 232.728303 
L 1253.845635 233.039156 
L 1254.310681 236.140496 
L 1254.775728 228.919211 
L 1255.240774 225.040698 
L 1255.705821 219.508966 
L 1256.170867 221.400369 
L 1256.635914 227.793613 
L 1257.10096 222.868667 
L 1257.566007 224.269554 
L 1258.031053 227.559834 
L 1258.4961 226.617147 
L 1258.961146 225.216645 
L 1259.426193 223.078554 
L 1259.891239 227.389832 
L 1260.356286 219.703466 
L 1260.821332 215.661448 
L 1261.286379 206.507168 
L 1261.751425 203.747757 
L 1262.216472 206.652891 
L 1263.146565 192.152186 
L 1263.611611 205.154672 
L 1264.076658 206.199481 
L 1264.541704 204.849848 
L 1265.006751 207.351669 
L 1265.471797 207.164739 
L 1265.936844 207.991542 
L 1266.40189 209.323393 
L 1266.866937 201.041141 
L 1267.331983 200.381863 
L 1267.79703 209.064179 
L 1268.262076 205.356438 
L 1268.727123 207.0044 
L 1269.192169 181.466903 
L 1269.657216 175.23755 
L 1270.122262 186.096301 
L 1270.587309 190.462082 
L 1271.052355 189.192384 
L 1271.517402 202.747155 
L 1271.982448 211.810983 
L 1272.447495 241.025914 
L 1272.912541 246.6198 
L 1273.377588 241.436879 
L 1273.842634 238.601166 
L 1274.307681 237.029892 
L 1274.772727 233.947104 
L 1275.237774 233.476766 
L 1275.70282 231.160635 
L 1276.167867 230.828367 
L 1276.632913 233.831605 
L 1277.09796 240.490091 
L 1277.563006 244.993942 
L 1278.028053 239.553047 
L 1278.493099 227.590112 
L 1278.958146 226.894499 
L 1279.423192 223.099556 
L 1279.888239 216.495957 
L 1280.353285 204.271414 
L 1280.818332 198.794183 
L 1281.748425 184.518752 
L 1282.213471 171.61112 
L 1282.678518 165.781446 
L 1283.143564 167.978058 
L 1283.608611 164.669996 
L 1284.073657 162.673609 
L 1284.538704 177.394716 
L 1285.933843 203.427132 
L 1286.39889 204.515543 
L 1286.863936 203.867165 
L 1287.328983 202.681037 
L 1287.794029 197.040301 
L 1288.259076 199.313216 
L 1288.724122 204.194946 
L 1289.189169 206.373391 
L 1289.654215 203.664848 
L 1290.119262 211.449703 
L 1290.584308 216.077091 
L 1291.049355 215.813859 
L 1291.514401 211.295859 
L 1291.979448 198.846042 
L 1292.444494 198.709981 
L 1292.909541 200.60865 
L 1293.374587 200.483489 
L 1293.839634 197.506071 
L 1294.30468 197.569849 
L 1294.769727 199.726493 
L 1295.234773 208.179902 
L 1295.69982 201.129389 
L 1296.164866 198.842326 
L 1296.629913 194.684038 
L 1297.094959 193.82492 
L 1297.560006 186.44013 
L 1298.025053 186.863619 
L 1298.490099 186.556785 
L 1298.955146 182.205924 
L 1299.420192 187.817977 
L 1299.885239 197.346887 
L 1300.350285 199.427229 
L 1300.815332 206.627099 
L 1301.745425 226.625981 
L 1302.210471 238.840009 
L 1302.675518 234.314743 
L 1303.605611 219.130949 
L 1304.070657 214.522113 
L 1304.535704 205.131659 
L 1305.00075 201.881733 
L 1305.465797 195.932154 
L 1306.39589 201.684288 
L 1306.860936 207.423512 
L 1307.325983 217.261265 
L 1307.791029 222.313767 
L 1308.256076 221.817994 
L 1308.721122 227.931463 
L 1309.186169 230.949234 
L 1309.651215 231.972242 
L 1310.116262 239.789798 
L 1310.581308 234.225365 
L 1311.046355 236.832557 
L 1311.511401 234.868871 
L 1311.976448 228.218037 
L 1312.441494 224.350424 
L 1312.906541 226.209126 
L 1313.371587 223.031868 
L 1313.836634 224.498157 
L 1314.30168 221.615209 
L 1314.766727 220.156572 
L 1315.231773 217.302691 
L 1315.69682 209.067674 
L 1316.161866 206.468135 
L 1317.557006 194.116806 
L 1318.022052 196.389721 
L 1318.487099 201.972706 
L 1318.952145 202.374395 
L 1319.417192 195.941568 
L 1319.882238 193.992416 
L 1320.347285 193.08243 
L 1320.812331 200.921787 
L 1321.277378 201.868492 
L 1322.672517 228.936441 
L 1323.137564 237.309915 
L 1323.60261 240.545693 
L 1324.067657 237.550107 
L 1324.532703 241.785084 
L 1324.99775 237.757599 
L 1325.927843 246.38379 
L 1326.392889 248.496833 
L 1326.857936 248.240867 
L 1327.322982 247.730561 
L 1327.788029 242.373234 
L 1328.253075 246.49194 
L 1329.183168 234.265773 
L 1329.648215 236.142642 
L 1330.113261 236.591565 
L 1330.578308 240.757506 
L 1331.043354 241.424436 
L 1331.508401 226.947156 
L 1331.973447 226.36418 
L 1332.438494 226.929374 
L 1332.90354 215.722196 
L 1333.368587 208.922391 
L 1333.833633 206.860602 
L 1334.29868 207.985347 
L 1334.763726 214.353157 
L 1335.228773 210.107666 
L 1335.693819 215.556214 
L 1336.158866 226.629339 
L 1336.623912 232.506634 
L 1337.088959 227.374581 
L 1337.554005 233.942231 
L 1338.019052 235.045175 
L 1338.484098 238.240985 
L 1339.414191 230.542094 
L 1339.879238 233.81784 
L 1340.344284 239.666068 
L 1340.809331 241.891747 
L 1341.274377 246.675374 
L 1341.739424 256.142515 
L 1342.20447 255.214362 
L 1342.669517 256.055698 
L 1343.134563 251.784773 
L 1343.59961 252.865916 
L 1344.064656 250.05927 
L 1344.994749 235.994578 
L 1345.459796 238.561802 
L 1345.924842 232.528654 
L 1346.389889 239.179873 
L 1346.854935 230.973924 
L 1347.319982 220.235461 
L 1347.785029 217.610488 
L 1348.250075 212.612873 
L 1348.715122 205.969306 
L 1349.180168 212.242646 
L 1349.645215 209.312463 
L 1350.575308 212.666521 
L 1351.040354 213.420654 
L 1351.505401 211.93295 
L 1351.970447 215.840916 
L 1352.435494 220.708112 
L 1352.90054 211.190488 
L 1353.365587 210.483975 
L 1353.830633 211.056436 
L 1354.29568 211.181982 
L 1354.760726 212.746374 
L 1355.225773 208.112104 
L 1355.690819 199.637279 
L 1356.155866 201.314308 
L 1356.620912 205.31311 
L 1357.085959 198.346167 
L 1357.551005 206.359929 
L 1358.016052 207.306635 
L 1358.481098 207.93723 
L 1360.341284 224.306684 
L 1360.806331 217.997395 
L 1361.271377 220.459248 
L 1361.736424 227.797189 
L 1362.20147 225.633663 
L 1362.666517 232.764498 
L 1363.131563 231.80001 
L 1363.59661 232.862986 
L 1364.061656 234.289307 
L 1364.526703 230.879509 
L 1365.456796 225.98564 
L 1365.921842 218.103067 
L 1366.386889 217.770799 
L 1366.851935 223.368319 
L 1367.316982 218.374337 
L 1367.782028 215.022674 
L 1374.292679 218.054979 
L 1374.757726 220.891078 
L 1375.222772 222.197495 
L 1375.687819 213.751738 
L 1376.152865 213.077926 
L 1376.617912 217.102162 
L 1377.082958 235.972667 
L 1377.548005 235.88384 
L 1380.80333 232.168832 
L 1381.268377 237.893522 
L 1381.733423 248.61057 
L 1382.19847 235.553967 
L 1382.663516 239.35293 
L 1383.593609 214.776673 
L 1384.058656 216.878815 
L 1384.523702 208.327688 
L 1384.988749 191.688506 
L 1385.453795 198.001814 
L 1385.918842 194.355842 
L 1386.848935 206.292104 
L 1387.313981 207.547653 
L 1387.779028 206.245254 
L 1388.244074 222.445175 
L 1389.174167 228.02816 
L 1389.639214 220.098353 
L 1390.10426 214.661091 
L 1390.569307 212.312259 
L 1391.034353 212.2634 
L 1391.4994 219.495971 
L 1402.19547 207.823712 
L 1402.660516 197.586665 
L 1403.590609 182.181231 
L 1404.055656 180.395584 
L 1404.520702 163.756402 
L 1404.985749 159.445509 
L 1405.915842 165.412016 
L 1406.380888 173.378543 
L 1406.845935 183.434303 
L 1407.310981 185.031396 
L 1407.776028 191.613579 
L 1408.706121 195.069374 
L 1409.171167 201.222811 
L 1409.636214 205.741196 
L 1410.10126 202.135191 
L 1410.566307 202.994695 
L 1411.4964 197.857384 
L 1411.961446 192.667197 
L 1412.891539 177.261763 
L 1413.356586 173.746594 
L 1413.821632 163.68032 
L 1414.286679 166.120373 
L 1414.751725 164.505498 
L 1415.216772 168.467965 
L 1415.681818 167.089264 
L 1416.611911 186.085316 
L 1417.076958 203.88032 
L 1417.542004 209.706746 
L 1418.007051 200.512499 
L 1418.472097 198.792254 
L 1418.937144 202.525814 
L 1419.40219 207.57105 
L 1420.332283 202.004993 
L 1420.79733 195.979112 
L 1421.262376 206.554455 
L 1421.727423 209.158013 
L 1422.192469 214.668329 
L 1422.657516 211.556474 
L 1423.122562 212.866525 
L 1423.587609 214.983201 
L 1424.052655 221.401879 
L 1424.517702 221.145914 
L 1424.982748 219.14226 
L 1425.912841 197.592665 
L 1426.842934 183.527974 
L 1427.307981 180.06004 
L 1427.773027 173.92879 
L 1428.238074 173.945333 
L 1428.70312 183.150866 
L 1435.213771 189.558644 
L 1435.678818 189.277244 
L 1436.143864 193.428651 
L 1436.608911 194.026546 
L 1437.073957 208.983827 
L 1437.539004 214.621315 
L 1438.00405 200.874357 
L 1438.469097 179.853236 
L 1438.934143 170.339246 
L 1439.39919 167.725172 
L 1439.864236 173.032016 
L 1440.794329 137.646252 
L 1441.259376 135.926007 
L 1442.189469 154.093632 
L 1442.654515 151.254285 
L 1443.119562 144.225572 
L 1443.584608 150.934927 
L 1444.979748 160.601908 
L 1445.909841 172.014953 
L 1446.374887 165.538525 
L 1446.839934 168.232919 
L 1447.30498 169.953549 
L 1447.770027 164.912333 
L 1448.70012 164.963587 
L 1449.165167 167.465408 
L 1449.630213 172.2018 
L 1450.09526 170.903035 
L 1450.560306 172.550997 
L 1451.025353 178.232085 
L 1451.490399 172.533215 
L 1451.955446 177.963595 
L 1452.420492 178.586924 
L 1452.885539 180.122249 
L 1453.350585 180.334998 
L 1453.815632 173.63693 
L 1454.280678 176.116951 
L 1454.745725 186.68866 
L 1455.210771 185.288159 
L 1455.675818 189.501334 
L 1456.140864 190.644246 
L 1456.605911 186.366054 
L 1457.070957 195.397181 
L 1457.536004 198.374985 
L 1458.00105 187.280444 
L 1458.466097 190.022073 
L 1458.931143 189.657104 
L 1459.39619 191.483105 
L 1459.861236 194.388239 
L 1460.326283 188.769304 
L 1460.791329 187.499607 
L 1461.256376 195.506102 
L 1461.721422 196.946957 
L 1462.186469 200.378941 
L 1462.651515 192.202059 
L 1463.116562 195.041792 
L 1463.581608 202.29253 
L 1464.511701 197.147953 
L 1464.976748 196.12533 
L 1465.441794 190.103082 
L 1465.906841 192.085321 
L 1466.836934 165.983016 
L 1467.30198 167.434771 
L 1468.69712 194.430051 
L 1513.341584 183.782424 
L 1513.806631 180.656035 
L 1514.271677 178.823153 
L 1514.736724 163.768154 
L 1516.131863 89.491972 
L 1516.59691 85.279182 
L 1517.061956 73.628724 
L 1517.527003 70.080855 
L 1517.992049 71.55441 
L 1518.457096 74.641217 
L 1518.922142 82.218965 
L 1519.387189 80.109942 
L 1520.317282 96.813287 
L 1520.782328 93.701432 
L 1521.712421 85.577427 
L 1522.177468 82.105861 
L 1522.642514 87.201964 
L 1523.107561 82.02631 
L 1523.572607 82.206358 
L 1524.037654 84.232198 
L 1524.5027 82.849864 
L 1524.967747 80.079553 
L 1525.432793 69.34109 
L 1525.89784 68.056859 
L 1526.362886 66.118607 
L 1526.827933 62.091122 
L 1527.292979 55.8 
L 1528.223072 58.882941 
L 1528.688119 62.903312 
L 1529.153165 68.213557 
L 1529.618212 63.084906 
L 1530.083258 63.864241 
L 1530.548305 67.695673 
L 1531.478398 83.316019 
L 1531.943444 88.571994 
L 1532.873537 96.21352 
L 1533.338584 95.16183 
L 1534.268677 88.796414 
L 1534.733723 80.6377 
L 1535.19877 75.661885 
L 1535.663816 74.003409 
L 1536.128863 77.173785 
L 1536.593909 75.635212 
L 1537.058956 80.876654 
L 1537.524002 79.378049 
L 1537.989049 79.801539 
L 1538.454095 73.346911 
L 1538.919142 73.919372 
L 1539.384188 78.437757 
L 1544.034653 76.532206 
L 1544.4997 74.928231 
L 1544.964746 76.837801 
L 1545.429793 70.622981 
L 1545.894839 74.360175 
L 1546.824932 80.760454 
L 1547.289979 69.418607 
L 1547.755026 76.650946 
L 1548.220072 78.138803 
L 1548.685119 80.455087 
L 1549.150165 91.742354 
L 1549.615212 94.796228 
L 1550.545305 94.295197 
L 1551.010351 91.87733 
L 1551.475398 93.325452 
L 1551.940444 88.480442 
L 1553.335584 57.089846 
L 1553.80063 67.992199 
L 1554.730723 76.807329 
L 1555.19577 74.142388 
L 1555.660816 77.781479 
L 1556.125863 84.796043 
L 1556.590909 98.761393 
L 1556.590909 98.761393 
" clip-path="url(#pe83e70bfea)" style="fill: none; stroke: #f77189; stroke-width: 2.5; stroke-linecap: square"/>
   </g>
   <g id="patch_3">
    <path d="M 225 320.4 
L 225 43.2 
" style="fill: none; stroke: #000000; stroke-width: 0.8; stroke-linejoin: miter; stroke-linecap: square"/>
   </g>
   <g id="patch_4">
    <path d="M 1620 320.4 
L 1620 43.2 
" style="fill: none; stroke: #000000; stroke-width: 0.8; stroke-linejoin: miter; stroke-linecap: square"/>
   </g>
   <g id="patch_5">
    <path d="M 225 320.4 
L 1620 320.4 
" style="fill: none; stroke: #000000; stroke-width: 0.8; stroke-linejoin: miter; stroke-linecap: square"/>
   </g>
   <g id="patch_6">
    <path d="M 225 43.2 
L 1620 43.2 
" style="fill: none; stroke: #000000; stroke-width: 0.8; stroke-linejoin: miter; stroke-linecap: square"/>
   </g>
   <g id="text_16">
    <!-- AFAL -->
    <g transform="translate(898.407812 37.2) scale(0.2 -0.2)">
     <defs>
      <path id="DejaVuSans-41" d="M 2188 4044 
L 1331 1722 
L 3047 1722 
L 2188 4044 
z
M 1831 4666 
L 2547 4666 
L 4325 0 
L 3669 0 
L 3244 1197 
L 1141 1197 
L 716 0 
L 50 0 
L 1831 4666 
z
" transform="scale(0.015625)"/>
      <path id="DejaVuSans-46" d="M 628 4666 
L 3309 4666 
L 3309 4134 
L 1259 4134 
L 1259 2759 
L 3109 2759 
L 3109 2228 
L 1259 2228 
L 1259 0 
L 628 0 
L 628 4666 
z
" transform="scale(0.015625)"/>
      <path id="DejaVuSans-4c" d="M 628 4666 
L 1259 4666 
L 1259 531 
L 3531 531 
L 3531 0 
L 628 0 
L 628 4666 
z
" transform="scale(0.015625)"/>
     </defs>
     <use xlink:href="#DejaVuSans-41"/>
     <use xlink:href="#DejaVuSans-46" x="68.408203"/>
     <use xlink:href="#DejaVuSans-41" x="116.802734"/>
     <use xlink:href="#DejaVuSans-4c" x="185.210938"/>
    </g>
   </g>
   <g id="legend_1">
    <g id="patch_7">
     <path d="M 1562.445312 65.878125 
L 1613 65.878125 
Q 1615 65.878125 1615 63.878125 
L 1615 50.2 
Q 1615 48.2 1613 48.2 
L 1562.445312 48.2 
Q 1560.445312 48.2 1560.445312 50.2 
L 1560.445312 63.878125 
Q 1560.445312 65.878125 1562.445312 65.878125 
z
" style="fill: #ffffff; opacity: 0.8; stroke: #cccccc; stroke-linejoin: miter"/>
    </g>
    <g id="line2d_15">
     <path d="M 1564.445312 56.298437 
L 1574.445312 56.298437 
L 1584.445312 56.298437 
" style="fill: none; stroke: #f77189; stroke-width: 2.5; stroke-linecap: square"/>
    </g>
    <g id="text_17">
     <!-- afal -->
     <g transform="translate(1592.445312 59.798437) scale(0.1 -0.1)">
      <defs>
       <path id="DejaVuSans-61" d="M 2194 1759 
Q 1497 1759 1228 1600 
Q 959 1441 959 1056 
Q 959 750 1161 570 
Q 1363 391 1709 391 
Q 2188 391 2477 730 
Q 2766 1069 2766 1631 
L 2766 1759 
L 2194 1759 
z
M 3341 1997 
L 3341 0 
L 2766 0 
L 2766 531 
Q 2569 213 2275 61 
Q 1981 -91 1556 -91 
Q 1019 -91 701 211 
Q 384 513 384 1019 
Q 384 1609 779 1909 
Q 1175 2209 1959 2209 
L 2766 2209 
L 2766 2266 
Q 2766 2663 2505 2880 
Q 2244 3097 1772 3097 
Q 1472 3097 1187 3025 
Q 903 2953 641 2809 
L 641 3341 
Q 956 3463 1253 3523 
Q 1550 3584 1831 3584 
Q 2591 3584 2966 3190 
Q 3341 2797 3341 1997 
z
" transform="scale(0.015625)"/>
       <path id="DejaVuSans-66" d="M 2375 4863 
L 2375 4384 
L 1825 4384 
Q 1516 4384 1395 4259 
Q 1275 4134 1275 3809 
L 1275 3500 
L 2222 3500 
L 2222 3053 
L 1275 3053 
L 1275 0 
L 697 0 
L 697 3053 
L 147 3053 
L 147 3500 
L 697 3500 
L 697 3744 
Q 697 4328 969 4595 
Q 1241 4863 1831 4863 
L 2375 4863 
z
" transform="scale(0.015625)"/>
       <path id="DejaVuSans-6c" d="M 603 4863 
L 1178 4863 
L 1178 0 
L 603 0 
L 603 4863 
z
" transform="scale(0.015625)"/>
      </defs>
      <use xlink:href="#DejaVuSans-61"/>
      <use xlink:href="#DejaVuSans-66" x="61.279297"/>
      <use xlink:href="#DejaVuSans-61" x="96.484375"/>
      <use xlink:href="#DejaVuSans-6c" x="157.763672"/>
     </g>
    </g>
   </g>
  </g>
 </g>
 <defs>
  <clipPath id="pe83e70bfea">
   <rect x="225" y="43.2" width="1395" height="277.2"/>
  </clipPath>
 </defs>
</svg>
