<?xml version="1.0" encoding="utf-8" standalone="no"?>
<!DOCTYPE svg PUBLIC "-//W3C//DTD SVG 1.1//EN"
  "http://www.w3.org/Graphics/SVG/1.1/DTD/svg11.dtd">
<svg xmlns:xlink="http://www.w3.org/1999/xlink" width="1800pt" height="360pt" viewBox="0 0 1800 360" xmlns="http://www.w3.org/2000/svg" version="1.1">
 <metadata>
  <rdf:RDF xmlns:dc="http://purl.org/dc/elements/1.1/" xmlns:cc="http://creativecommons.org/ns#" xmlns:rdf="http://www.w3.org/1999/02/22-rdf-syntax-ns#">
   <cc:Work>
    <dc:type rdf:resource="http://purl.org/dc/dcmitype/StillImage"/>
    <dc:date>2024-03-25T15:23:15.172484</dc:date>
    <dc:format>image/svg+xml</dc:format>
    <dc:creator>
     <cc:Agent>
      <dc:title>Matplotlib v3.7.2, https://matplotlib.org/</dc:title>
     </cc:Agent>
    </dc:creator>
   </cc:Work>
  </rdf:RDF>
 </metadata>
 <defs>
  <style type="text/css">*{stroke-linejoin: round; stroke-linecap: butt}</style>
 </defs>
 <g id="figure_1">
  <g id="patch_1">
   <path d="M 0 360 
L 1800 360 
L 1800 0 
L 0 0 
z
" style="fill: #ffffff"/>
  </g>
  <g id="axes_1">
   <g id="patch_2">
    <path d="M 225 320.4 
L 1620 320.4 
L 1620 43.2 
L 225 43.2 
z
" style="fill: #ffffff"/>
   </g>
   <g id="matplotlib.axis_1">
    <g id="xtick_1">
     <g id="line2d_1">
      <defs>
       <path id="ma6f2407370" d="M 0 0 
L 0 3.5 
" style="stroke: #000000; stroke-width: 0.8"/>
      </defs>
      <g>
       <use xlink:href="#ma6f2407370" x="280.717313" y="320.4" style="stroke: #000000; stroke-width: 0.8"/>
      </g>
     </g>
     <g id="text_1">
      <!-- 2011 -->
      <g transform="translate(261.629813 338.797656) scale(0.15 -0.15)">
       <defs>
        <path id="DejaVuSans-32" d="M 1228 531 
L 3431 531 
L 3431 0 
L 469 0 
L 469 531 
Q 828 903 1448 1529 
Q 2069 2156 2228 2338 
Q 2531 2678 2651 2914 
Q 2772 3150 2772 3378 
Q 2772 3750 2511 3984 
Q 2250 4219 1831 4219 
Q 1534 4219 1204 4116 
Q 875 4013 500 3803 
L 500 4441 
Q 881 4594 1212 4672 
Q 1544 4750 1819 4750 
Q 2544 4750 2975 4387 
Q 3406 4025 3406 3419 
Q 3406 3131 3298 2873 
Q 3191 2616 2906 2266 
Q 2828 2175 2409 1742 
Q 1991 1309 1228 531 
z
" transform="scale(0.015625)"/>
        <path id="DejaVuSans-30" d="M 2034 4250 
Q 1547 4250 1301 3770 
Q 1056 3291 1056 2328 
Q 1056 1369 1301 889 
Q 1547 409 2034 409 
Q 2525 409 2770 889 
Q 3016 1369 3016 2328 
Q 3016 3291 2770 3770 
Q 2525 4250 2034 4250 
z
M 2034 4750 
Q 2819 4750 3233 4129 
Q 3647 3509 3647 2328 
Q 3647 1150 3233 529 
Q 2819 -91 2034 -91 
Q 1250 -91 836 529 
Q 422 1150 422 2328 
Q 422 3509 836 4129 
Q 1250 4750 2034 4750 
z
" transform="scale(0.015625)"/>
        <path id="DejaVuSans-31" d="M 794 531 
L 1825 531 
L 1825 4091 
L 703 3866 
L 703 4441 
L 1819 4666 
L 2450 4666 
L 2450 531 
L 3481 531 
L 3481 0 
L 794 0 
L 794 531 
z
" transform="scale(0.015625)"/>
       </defs>
       <use xlink:href="#DejaVuSans-32"/>
       <use xlink:href="#DejaVuSans-30" x="63.623047"/>
       <use xlink:href="#DejaVuSans-31" x="127.246094"/>
       <use xlink:href="#DejaVuSans-31" x="190.869141"/>
      </g>
     </g>
    </g>
    <g id="xtick_2">
     <g id="line2d_2">
      <g>
       <use xlink:href="#ma6f2407370" x="456.185988" y="320.4" style="stroke: #000000; stroke-width: 0.8"/>
      </g>
     </g>
     <g id="text_2">
      <!-- 2012 -->
      <g transform="translate(437.098488 338.797656) scale(0.15 -0.15)">
       <use xlink:href="#DejaVuSans-32"/>
       <use xlink:href="#DejaVuSans-30" x="63.623047"/>
       <use xlink:href="#DejaVuSans-31" x="127.246094"/>
       <use xlink:href="#DejaVuSans-32" x="190.869141"/>
      </g>
     </g>
    </g>
    <g id="xtick_3">
     <g id="line2d_3">
      <g>
       <use xlink:href="#ma6f2407370" x="632.135399" y="320.4" style="stroke: #000000; stroke-width: 0.8"/>
      </g>
     </g>
     <g id="text_3">
      <!-- 2013 -->
      <g transform="translate(613.047899 338.797656) scale(0.15 -0.15)">
       <defs>
        <path id="DejaVuSans-33" d="M 2597 2516 
Q 3050 2419 3304 2112 
Q 3559 1806 3559 1356 
Q 3559 666 3084 287 
Q 2609 -91 1734 -91 
Q 1441 -91 1130 -33 
Q 819 25 488 141 
L 488 750 
Q 750 597 1062 519 
Q 1375 441 1716 441 
Q 2309 441 2620 675 
Q 2931 909 2931 1356 
Q 2931 1769 2642 2001 
Q 2353 2234 1838 2234 
L 1294 2234 
L 1294 2753 
L 1863 2753 
Q 2328 2753 2575 2939 
Q 2822 3125 2822 3475 
Q 2822 3834 2567 4026 
Q 2313 4219 1838 4219 
Q 1578 4219 1281 4162 
Q 984 4106 628 3988 
L 628 4550 
Q 988 4650 1302 4700 
Q 1616 4750 1894 4750 
Q 2613 4750 3031 4423 
Q 3450 4097 3450 3541 
Q 3450 3153 3228 2886 
Q 3006 2619 2597 2516 
z
" transform="scale(0.015625)"/>
       </defs>
       <use xlink:href="#DejaVuSans-32"/>
       <use xlink:href="#DejaVuSans-30" x="63.623047"/>
       <use xlink:href="#DejaVuSans-31" x="127.246094"/>
       <use xlink:href="#DejaVuSans-33" x="190.869141"/>
      </g>
     </g>
    </g>
    <g id="xtick_4">
     <g id="line2d_4">
      <g>
       <use xlink:href="#ma6f2407370" x="807.604073" y="320.4" style="stroke: #000000; stroke-width: 0.8"/>
      </g>
     </g>
     <g id="text_4">
      <!-- 2014 -->
      <g transform="translate(788.516573 338.797656) scale(0.15 -0.15)">
       <defs>
        <path id="DejaVuSans-34" d="M 2419 4116 
L 825 1625 
L 2419 1625 
L 2419 4116 
z
M 2253 4666 
L 3047 4666 
L 3047 1625 
L 3713 1625 
L 3713 1100 
L 3047 1100 
L 3047 0 
L 2419 0 
L 2419 1100 
L 313 1100 
L 313 1709 
L 2253 4666 
z
" transform="scale(0.015625)"/>
       </defs>
       <use xlink:href="#DejaVuSans-32"/>
       <use xlink:href="#DejaVuSans-30" x="63.623047"/>
       <use xlink:href="#DejaVuSans-31" x="127.246094"/>
       <use xlink:href="#DejaVuSans-34" x="190.869141"/>
      </g>
     </g>
    </g>
    <g id="xtick_5">
     <g id="line2d_5">
      <g>
       <use xlink:href="#ma6f2407370" x="983.072748" y="320.4" style="stroke: #000000; stroke-width: 0.8"/>
      </g>
     </g>
     <g id="text_5">
      <!-- 2015 -->
      <g transform="translate(963.985248 338.797656) scale(0.15 -0.15)">
       <defs>
        <path id="DejaVuSans-35" d="M 691 4666 
L 3169 4666 
L 3169 4134 
L 1269 4134 
L 1269 2991 
Q 1406 3038 1543 3061 
Q 1681 3084 1819 3084 
Q 2600 3084 3056 2656 
Q 3513 2228 3513 1497 
Q 3513 744 3044 326 
Q 2575 -91 1722 -91 
Q 1428 -91 1123 -41 
Q 819 9 494 109 
L 494 744 
Q 775 591 1075 516 
Q 1375 441 1709 441 
Q 2250 441 2565 725 
Q 2881 1009 2881 1497 
Q 2881 1984 2565 2268 
Q 2250 2553 1709 2553 
Q 1456 2553 1204 2497 
Q 953 2441 691 2322 
L 691 4666 
z
" transform="scale(0.015625)"/>
       </defs>
       <use xlink:href="#DejaVuSans-32"/>
       <use xlink:href="#DejaVuSans-30" x="63.623047"/>
       <use xlink:href="#DejaVuSans-31" x="127.246094"/>
       <use xlink:href="#DejaVuSans-35" x="190.869141"/>
      </g>
     </g>
    </g>
    <g id="xtick_6">
     <g id="line2d_6">
      <g>
       <use xlink:href="#ma6f2407370" x="1158.541423" y="320.4" style="stroke: #000000; stroke-width: 0.8"/>
      </g>
     </g>
     <g id="text_6">
      <!-- 2016 -->
      <g transform="translate(1139.453923 338.797656) scale(0.15 -0.15)">
       <defs>
        <path id="DejaVuSans-36" d="M 2113 2584 
Q 1688 2584 1439 2293 
Q 1191 2003 1191 1497 
Q 1191 994 1439 701 
Q 1688 409 2113 409 
Q 2538 409 2786 701 
Q 3034 994 3034 1497 
Q 3034 2003 2786 2293 
Q 2538 2584 2113 2584 
z
M 3366 4563 
L 3366 3988 
Q 3128 4100 2886 4159 
Q 2644 4219 2406 4219 
Q 1781 4219 1451 3797 
Q 1122 3375 1075 2522 
Q 1259 2794 1537 2939 
Q 1816 3084 2150 3084 
Q 2853 3084 3261 2657 
Q 3669 2231 3669 1497 
Q 3669 778 3244 343 
Q 2819 -91 2113 -91 
Q 1303 -91 875 529 
Q 447 1150 447 2328 
Q 447 3434 972 4092 
Q 1497 4750 2381 4750 
Q 2619 4750 2861 4703 
Q 3103 4656 3366 4563 
z
" transform="scale(0.015625)"/>
       </defs>
       <use xlink:href="#DejaVuSans-32"/>
       <use xlink:href="#DejaVuSans-30" x="63.623047"/>
       <use xlink:href="#DejaVuSans-31" x="127.246094"/>
       <use xlink:href="#DejaVuSans-36" x="190.869141"/>
      </g>
     </g>
    </g>
    <g id="xtick_7">
     <g id="line2d_7">
      <g>
       <use xlink:href="#ma6f2407370" x="1334.490833" y="320.4" style="stroke: #000000; stroke-width: 0.8"/>
      </g>
     </g>
     <g id="text_7">
      <!-- 2017 -->
      <g transform="translate(1315.403333 338.797656) scale(0.15 -0.15)">
       <defs>
        <path id="DejaVuSans-37" d="M 525 4666 
L 3525 4666 
L 3525 4397 
L 1831 0 
L 1172 0 
L 2766 4134 
L 525 4134 
L 525 4666 
z
" transform="scale(0.015625)"/>
       </defs>
       <use xlink:href="#DejaVuSans-32"/>
       <use xlink:href="#DejaVuSans-30" x="63.623047"/>
       <use xlink:href="#DejaVuSans-31" x="127.246094"/>
       <use xlink:href="#DejaVuSans-37" x="190.869141"/>
      </g>
     </g>
    </g>
    <g id="xtick_8">
     <g id="line2d_8">
      <g>
       <use xlink:href="#ma6f2407370" x="1509.959508" y="320.4" style="stroke: #000000; stroke-width: 0.8"/>
      </g>
     </g>
     <g id="text_8">
      <!-- 2018 -->
      <g transform="translate(1490.872008 338.797656) scale(0.15 -0.15)">
       <defs>
        <path id="DejaVuSans-38" d="M 2034 2216 
Q 1584 2216 1326 1975 
Q 1069 1734 1069 1313 
Q 1069 891 1326 650 
Q 1584 409 2034 409 
Q 2484 409 2743 651 
Q 3003 894 3003 1313 
Q 3003 1734 2745 1975 
Q 2488 2216 2034 2216 
z
M 1403 2484 
Q 997 2584 770 2862 
Q 544 3141 544 3541 
Q 544 4100 942 4425 
Q 1341 4750 2034 4750 
Q 2731 4750 3128 4425 
Q 3525 4100 3525 3541 
Q 3525 3141 3298 2862 
Q 3072 2584 2669 2484 
Q 3125 2378 3379 2068 
Q 3634 1759 3634 1313 
Q 3634 634 3220 271 
Q 2806 -91 2034 -91 
Q 1263 -91 848 271 
Q 434 634 434 1313 
Q 434 1759 690 2068 
Q 947 2378 1403 2484 
z
M 1172 3481 
Q 1172 3119 1398 2916 
Q 1625 2713 2034 2713 
Q 2441 2713 2670 2916 
Q 2900 3119 2900 3481 
Q 2900 3844 2670 4047 
Q 2441 4250 2034 4250 
Q 1625 4250 1398 4047 
Q 1172 3844 1172 3481 
z
" transform="scale(0.015625)"/>
       </defs>
       <use xlink:href="#DejaVuSans-32"/>
       <use xlink:href="#DejaVuSans-30" x="63.623047"/>
       <use xlink:href="#DejaVuSans-31" x="127.246094"/>
       <use xlink:href="#DejaVuSans-38" x="190.869141"/>
      </g>
     </g>
    </g>
    <g id="text_9">
     <!-- Time -->
     <g transform="translate(904.149609 357.314844) scale(0.15 -0.15)">
      <defs>
       <path id="DejaVuSans-54" d="M -19 4666 
L 3928 4666 
L 3928 4134 
L 2272 4134 
L 2272 0 
L 1638 0 
L 1638 4134 
L -19 4134 
L -19 4666 
z
" transform="scale(0.015625)"/>
       <path id="DejaVuSans-69" d="M 603 3500 
L 1178 3500 
L 1178 0 
L 603 0 
L 603 3500 
z
M 603 4863 
L 1178 4863 
L 1178 4134 
L 603 4134 
L 603 4863 
z
" transform="scale(0.015625)"/>
       <path id="DejaVuSans-6d" d="M 3328 2828 
Q 3544 3216 3844 3400 
Q 4144 3584 4550 3584 
Q 5097 3584 5394 3201 
Q 5691 2819 5691 2113 
L 5691 0 
L 5113 0 
L 5113 2094 
Q 5113 2597 4934 2840 
Q 4756 3084 4391 3084 
Q 3944 3084 3684 2787 
Q 3425 2491 3425 1978 
L 3425 0 
L 2847 0 
L 2847 2094 
Q 2847 2600 2669 2842 
Q 2491 3084 2119 3084 
Q 1678 3084 1418 2786 
Q 1159 2488 1159 1978 
L 1159 0 
L 581 0 
L 581 3500 
L 1159 3500 
L 1159 2956 
Q 1356 3278 1631 3431 
Q 1906 3584 2284 3584 
Q 2666 3584 2933 3390 
Q 3200 3197 3328 2828 
z
" transform="scale(0.015625)"/>
       <path id="DejaVuSans-65" d="M 3597 1894 
L 3597 1613 
L 953 1613 
Q 991 1019 1311 708 
Q 1631 397 2203 397 
Q 2534 397 2845 478 
Q 3156 559 3463 722 
L 3463 178 
Q 3153 47 2828 -22 
Q 2503 -91 2169 -91 
Q 1331 -91 842 396 
Q 353 884 353 1716 
Q 353 2575 817 3079 
Q 1281 3584 2069 3584 
Q 2775 3584 3186 3129 
Q 3597 2675 3597 1894 
z
M 3022 2063 
Q 3016 2534 2758 2815 
Q 2500 3097 2075 3097 
Q 1594 3097 1305 2825 
Q 1016 2553 972 2059 
L 3022 2063 
z
" transform="scale(0.015625)"/>
      </defs>
      <use xlink:href="#DejaVuSans-54"/>
      <use xlink:href="#DejaVuSans-69" x="57.958984"/>
      <use xlink:href="#DejaVuSans-6d" x="85.742188"/>
      <use xlink:href="#DejaVuSans-65" x="183.154297"/>
     </g>
    </g>
   </g>
   <g id="matplotlib.axis_2">
    <g id="ytick_1">
     <g id="line2d_9">
      <defs>
       <path id="m34da718cb0" d="M 0 0 
L -3.5 0 
" style="stroke: #000000; stroke-width: 0.8"/>
      </defs>
      <g>
       <use xlink:href="#m34da718cb0" x="225" y="292.739423" style="stroke: #000000; stroke-width: 0.8"/>
      </g>
     </g>
     <g id="text_10">
      <!-- −0.006 -->
      <g transform="translate(162.488281 298.438252) scale(0.15 -0.15)">
       <defs>
        <path id="DejaVuSans-2212" d="M 678 2272 
L 4684 2272 
L 4684 1741 
L 678 1741 
L 678 2272 
z
" transform="scale(0.015625)"/>
        <path id="DejaVuSans-2e" d="M 684 794 
L 1344 794 
L 1344 0 
L 684 0 
L 684 794 
z
" transform="scale(0.015625)"/>
       </defs>
       <use xlink:href="#DejaVuSans-2212"/>
       <use xlink:href="#DejaVuSans-30" x="83.789062"/>
       <use xlink:href="#DejaVuSans-2e" x="147.412109"/>
       <use xlink:href="#DejaVuSans-30" x="179.199219"/>
       <use xlink:href="#DejaVuSans-30" x="242.822266"/>
       <use xlink:href="#DejaVuSans-36" x="306.445312"/>
      </g>
     </g>
    </g>
    <g id="ytick_2">
     <g id="line2d_10">
      <g>
       <use xlink:href="#m34da718cb0" x="225" y="246.571815" style="stroke: #000000; stroke-width: 0.8"/>
      </g>
     </g>
     <g id="text_11">
      <!-- −0.004 -->
      <g transform="translate(162.488281 252.270643) scale(0.15 -0.15)">
       <use xlink:href="#DejaVuSans-2212"/>
       <use xlink:href="#DejaVuSans-30" x="83.789062"/>
       <use xlink:href="#DejaVuSans-2e" x="147.412109"/>
       <use xlink:href="#DejaVuSans-30" x="179.199219"/>
       <use xlink:href="#DejaVuSans-30" x="242.822266"/>
       <use xlink:href="#DejaVuSans-34" x="306.445312"/>
      </g>
     </g>
    </g>
    <g id="ytick_3">
     <g id="line2d_11">
      <g>
       <use xlink:href="#m34da718cb0" x="225" y="200.404207" style="stroke: #000000; stroke-width: 0.8"/>
      </g>
     </g>
     <g id="text_12">
      <!-- −0.002 -->
      <g transform="translate(162.488281 206.103035) scale(0.15 -0.15)">
       <use xlink:href="#DejaVuSans-2212"/>
       <use xlink:href="#DejaVuSans-30" x="83.789062"/>
       <use xlink:href="#DejaVuSans-2e" x="147.412109"/>
       <use xlink:href="#DejaVuSans-30" x="179.199219"/>
       <use xlink:href="#DejaVuSans-30" x="242.822266"/>
       <use xlink:href="#DejaVuSans-32" x="306.445312"/>
      </g>
     </g>
    </g>
    <g id="ytick_4">
     <g id="line2d_12">
      <g>
       <use xlink:href="#m34da718cb0" x="225" y="154.236598" style="stroke: #000000; stroke-width: 0.8"/>
      </g>
     </g>
     <g id="text_13">
      <!-- 0.000 -->
      <g transform="translate(175.057813 159.935426) scale(0.15 -0.15)">
       <use xlink:href="#DejaVuSans-30"/>
       <use xlink:href="#DejaVuSans-2e" x="63.623047"/>
       <use xlink:href="#DejaVuSans-30" x="95.410156"/>
       <use xlink:href="#DejaVuSans-30" x="159.033203"/>
       <use xlink:href="#DejaVuSans-30" x="222.65625"/>
      </g>
     </g>
    </g>
    <g id="ytick_5">
     <g id="line2d_13">
      <g>
       <use xlink:href="#m34da718cb0" x="225" y="108.06899" style="stroke: #000000; stroke-width: 0.8"/>
      </g>
     </g>
     <g id="text_14">
      <!-- 0.002 -->
      <g transform="translate(175.057813 113.767818) scale(0.15 -0.15)">
       <use xlink:href="#DejaVuSans-30"/>
       <use xlink:href="#DejaVuSans-2e" x="63.623047"/>
       <use xlink:href="#DejaVuSans-30" x="95.410156"/>
       <use xlink:href="#DejaVuSans-30" x="159.033203"/>
       <use xlink:href="#DejaVuSans-32" x="222.65625"/>
      </g>
     </g>
    </g>
    <g id="ytick_6">
     <g id="line2d_14">
      <g>
       <use xlink:href="#m34da718cb0" x="225" y="61.901381" style="stroke: #000000; stroke-width: 0.8"/>
      </g>
     </g>
     <g id="text_15">
      <!-- 0.004 -->
      <g transform="translate(175.057813 67.600209) scale(0.15 -0.15)">
       <use xlink:href="#DejaVuSans-30"/>
       <use xlink:href="#DejaVuSans-2e" x="63.623047"/>
       <use xlink:href="#DejaVuSans-30" x="95.410156"/>
       <use xlink:href="#DejaVuSans-30" x="159.033203"/>
       <use xlink:href="#DejaVuSans-34" x="222.65625"/>
      </g>
     </g>
    </g>
    <g id="text_16">
     <!-- North(m) -->
     <g transform="translate(155.36875 215.934375) rotate(-90) scale(0.15 -0.15)">
      <defs>
       <path id="DejaVuSans-4e" d="M 628 4666 
L 1478 4666 
L 3547 763 
L 3547 4666 
L 4159 4666 
L 4159 0 
L 3309 0 
L 1241 3903 
L 1241 0 
L 628 0 
L 628 4666 
z
" transform="scale(0.015625)"/>
       <path id="DejaVuSans-6f" d="M 1959 3097 
Q 1497 3097 1228 2736 
Q 959 2375 959 1747 
Q 959 1119 1226 758 
Q 1494 397 1959 397 
Q 2419 397 2687 759 
Q 2956 1122 2956 1747 
Q 2956 2369 2687 2733 
Q 2419 3097 1959 3097 
z
M 1959 3584 
Q 2709 3584 3137 3096 
Q 3566 2609 3566 1747 
Q 3566 888 3137 398 
Q 2709 -91 1959 -91 
Q 1206 -91 779 398 
Q 353 888 353 1747 
Q 353 2609 779 3096 
Q 1206 3584 1959 3584 
z
" transform="scale(0.015625)"/>
       <path id="DejaVuSans-72" d="M 2631 2963 
Q 2534 3019 2420 3045 
Q 2306 3072 2169 3072 
Q 1681 3072 1420 2755 
Q 1159 2438 1159 1844 
L 1159 0 
L 581 0 
L 581 3500 
L 1159 3500 
L 1159 2956 
Q 1341 3275 1631 3429 
Q 1922 3584 2338 3584 
Q 2397 3584 2469 3576 
Q 2541 3569 2628 3553 
L 2631 2963 
z
" transform="scale(0.015625)"/>
       <path id="DejaVuSans-74" d="M 1172 4494 
L 1172 3500 
L 2356 3500 
L 2356 3053 
L 1172 3053 
L 1172 1153 
Q 1172 725 1289 603 
Q 1406 481 1766 481 
L 2356 481 
L 2356 0 
L 1766 0 
Q 1100 0 847 248 
Q 594 497 594 1153 
L 594 3053 
L 172 3053 
L 172 3500 
L 594 3500 
L 594 4494 
L 1172 4494 
z
" transform="scale(0.015625)"/>
       <path id="DejaVuSans-68" d="M 3513 2113 
L 3513 0 
L 2938 0 
L 2938 2094 
Q 2938 2591 2744 2837 
Q 2550 3084 2163 3084 
Q 1697 3084 1428 2787 
Q 1159 2491 1159 1978 
L 1159 0 
L 581 0 
L 581 4863 
L 1159 4863 
L 1159 2956 
Q 1366 3272 1645 3428 
Q 1925 3584 2291 3584 
Q 2894 3584 3203 3211 
Q 3513 2838 3513 2113 
z
" transform="scale(0.015625)"/>
       <path id="DejaVuSans-28" d="M 1984 4856 
Q 1566 4138 1362 3434 
Q 1159 2731 1159 2009 
Q 1159 1288 1364 580 
Q 1569 -128 1984 -844 
L 1484 -844 
Q 1016 -109 783 600 
Q 550 1309 550 2009 
Q 550 2706 781 3412 
Q 1013 4119 1484 4856 
L 1984 4856 
z
" transform="scale(0.015625)"/>
       <path id="DejaVuSans-29" d="M 513 4856 
L 1013 4856 
Q 1481 4119 1714 3412 
Q 1947 2706 1947 2009 
Q 1947 1309 1714 600 
Q 1481 -109 1013 -844 
L 513 -844 
Q 928 -128 1133 580 
Q 1338 1288 1338 2009 
Q 1338 2731 1133 3434 
Q 928 4138 513 4856 
z
" transform="scale(0.015625)"/>
      </defs>
      <use xlink:href="#DejaVuSans-4e"/>
      <use xlink:href="#DejaVuSans-6f" x="74.804688"/>
      <use xlink:href="#DejaVuSans-72" x="135.986328"/>
      <use xlink:href="#DejaVuSans-74" x="177.099609"/>
      <use xlink:href="#DejaVuSans-68" x="216.308594"/>
      <use xlink:href="#DejaVuSans-28" x="279.6875"/>
      <use xlink:href="#DejaVuSans-6d" x="318.701172"/>
      <use xlink:href="#DejaVuSans-29" x="416.113281"/>
     </g>
    </g>
   </g>
   <g id="line2d_15">
    <path d="M 288.409091 305.889919 
L 288.889827 297.392876 
L 289.370563 283.378804 
L 290.332035 284.859736 
L 290.812771 284.736343 
L 291.293507 287.815828 
L 291.774244 285.022134 
L 292.25498 285.136445 
L 292.735716 287.895501 
L 293.697188 292.550726 
L 294.65866 295.365213 
L 295.139396 298.987633 
L 295.620132 300.321459 
L 296.100868 304.108763 
L 297.062341 301.574403 
L 298.504549 296.995779 
L 298.985285 296.12675 
L 299.466021 290.789356 
L 300.427493 288.001074 
L 300.908229 289.153527 
L 301.388965 285.507847 
L 301.869702 284.253618 
L 302.350438 287.74476 
L 302.831174 287.545791 
L 303.792646 287.887643 
L 304.273382 284.407476 
L 304.754118 278.348518 
L 305.234854 282.565151 
L 305.71559 282.728928 
L 306.196326 273.857044 
L 307.157799 265.057709 
L 307.638535 266.817565 
L 308.600007 267.485888 
L 309.080743 270.142715 
L 309.561479 267.773869 
L 310.522951 270.302086 
L 311.003687 280.649118 
L 312.445896 294.439866 
L 312.926632 298.777884 
L 313.888104 301.087825 
L 314.36884 304.621207 
L 314.849576 307.218047 
L 315.330312 307.8 
L 315.811048 305.599335 
L 317.733993 295.066349 
L 318.214729 295.823079 
L 318.695465 297.199775 
L 319.176201 294.589568 
L 319.656937 293.117063 
L 323.02209 294.830273 
L 330.713867 301.390755 
L 331.675339 304.619945 
L 332.636812 306.44369 
L 333.117548 303.627591 
L 335.040492 305.971113 
L 336.001964 303.812663 
L 336.4827 301.057181 
L 337.444173 298.658806 
L 338.405645 288.343617 
L 338.886381 289.524491 
L 339.367117 281.98754 
L 339.847853 283.453903 
L 341.290061 283.577478 
L 342.251534 286.07146 
L 342.73227 286.85724 
L 343.213006 291.702473 
L 345.13595 291.705443 
L 346.097422 297.567772 
L 346.578158 298.958439 
L 347.539631 302.52291 
L 348.020367 296.218036 
L 348.501103 299.766648 
L 354.750672 293.646746 
L 358.115825 292.616583 
L 489.837515 262.949942 
L 490.798987 191.190977 
L 491.760459 140.738364 
L 492.721931 100.35613 
L 493.202667 105.881945 
L 493.683403 114.266853 
L 494.164139 112.649879 
L 494.644876 111.814457 
L 495.125612 102.128044 
L 495.606348 96.712135 
L 497.048556 66.109581 
L 498.010028 68.416853 
L 498.9715 69.912895 
L 499.452237 74.29771 
L 499.932973 71.612285 
L 500.413709 73.358951 
L 501.375181 91.863351 
L 501.855917 96.39986 
L 502.336653 104.009812 
L 502.817389 109.585092 
L 503.298125 105.854301 
L 503.778861 112.765143 
L 504.259597 106.195044 
L 504.740334 103.690993 
L 506.182542 86.22642 
L 506.663278 88.408381 
L 507.144014 83.816894 
L 507.62475 81.98557 
L 508.105486 84.494001 
L 508.586222 89.907694 
L 509.066958 89.411934 
L 509.547695 91.165195 
L 510.028431 99.800728 
L 510.509167 100.86807 
L 510.989903 108.16804 
L 511.470639 107.124863 
L 511.951375 109.979552 
L 512.912847 101.367077 
L 513.393583 95.420241 
L 513.874319 94.024212 
L 514.355055 90.919981 
L 514.835792 96.010501 
L 515.316528 89.015 
L 516.278 104.673497 
L 516.758736 103.834777 
L 517.239472 103.968874 
L 518.200944 93.140354 
L 518.68168 99.154226 
L 519.162416 90.99794 
L 519.643153 87.623299 
L 520.123889 87.968448 
L 520.604625 87.865112 
L 521.085361 89.868998 
L 521.566097 79.625276 
L 522.046833 77.846716 
L 522.527569 78.191865 
L 523.008305 83.552795 
L 523.489041 85.58636 
L 523.969777 86.930708 
L 524.450513 86.995554 
L 524.93125 92.066287 
L 525.411986 91.214377 
L 525.892722 88.644371 
L 526.373458 81.015715 
L 526.854194 82.795358 
L 527.815666 79.26132 
L 528.777138 89.287368 
L 529.257874 98.420852 
L 529.738611 98.944076 
L 530.219347 95.144033 
L 531.661555 108.19625 
L 532.142291 107.48614 
L 532.623027 108.520505 
L 533.584499 120.571333 
L 534.065235 120.913185 
L 534.545971 124.806644 
L 535.507444 115.330176 
L 535.98818 105.788862 
L 536.468916 103.588197 
L 536.949652 99.992611 
L 537.430388 93.135613 
L 537.911124 83.74929 
L 538.39186 82.204865 
L 538.872596 85.006791 
L 539.353332 91.469148 
L 539.834069 92.022052 
L 540.314805 94.448041 
L 541.276277 110.558321 
L 541.757013 111.87299 
L 542.237749 108.748973 
L 542.718485 109.008382 
L 543.679957 104.613649 
L 544.160693 117.193214 
L 544.641429 116.394066 
L 545.122166 119.195992 
L 545.602902 130.578497 
L 546.083638 131.814022 
L 546.564374 146.734944 
L 547.04511 152.745519 
L 547.525846 134.554373 
L 548.006582 132.317434 
L 548.487318 127.867747 
L 549.44879 105.464349 
L 549.929527 95.896653 
L 550.410263 93.409089 
L 550.890999 96.072512 
L 551.371735 97.749927 
L 552.333207 103.047093 
L 552.813943 110.864799 
L 553.294679 112.987401 
L 554.256151 104.42769 
L 554.736887 97.511334 
L 555.217624 96.741865 
L 555.69836 99.695484 
L 556.179096 99.658102 
L 556.659832 95.07321 
L 557.140568 97.139751 
L 558.10204 121.138097 
L 558.582776 125.179952 
L 559.063512 126.943107 
L 559.544248 140.561443 
L 560.024984 140.009622 
L 560.505721 152.988208 
L 560.986457 150.560003 
L 561.467193 153.21683 
L 561.947929 163.026339 
L 562.428665 167.236377 
L 562.909401 152.689174 
L 563.390137 156.440834 
L 563.870873 144.825275 
L 564.351609 143.656786 
L 564.832345 140.54596 
L 565.313082 133.850549 
L 565.793818 132.418245 
L 568.197498 144.348166 
L 568.678234 143.463278 
L 569.15897 143.168677 
L 570.120442 167.045008 
L 572.043387 161.183885 
L 572.524123 163.309785 
L 573.004859 148.060176 
L 573.485595 136.820553 
L 573.966331 141.465885 
L 574.447067 140.679928 
L 574.927803 138.637552 
L 575.889276 147.130177 
L 576.850748 166.409533 
L 577.331484 165.013504 
L 577.81222 169.744576 
L 578.292956 171.270297 
L 578.773692 171.048244 
L 579.254428 168.293568 
L 579.735164 163.131581 
L 580.2159 164.874949 
L 580.696637 167.083291 
L 581.177373 165.093679 
L 581.658109 163.948274 
L 582.138845 159.340298 
L 582.619581 166.330285 
L 583.100317 168.693619 
L 583.581053 170.024776 
L 584.061789 167.675716 
L 585.023261 174.908624 
L 585.503998 187.926781 
L 585.984734 183.460606 
L 586.46547 176.326603 
L 586.946206 167.190904 
L 587.426942 162.925888 
L 588.388414 147.853246 
L 589.349886 125.809295 
L 589.830622 127.354802 
L 590.311358 123.132656 
L 590.792095 128.127542 
L 591.272831 129.066275 
L 592.234303 123.4481 
L 592.715039 124.650647 
L 593.195775 118.647751 
L 593.676511 118.089334 
L 594.157247 111.370839 
L 594.637983 113.796828 
L 595.118719 120.107492 
L 596.080192 126.182912 
L 596.560928 125.182605 
L 597.041664 127.496473 
L 597.5224 125.315595 
L 598.003136 118.079363 
L 598.483872 114.196879 
L 598.964608 114.143008 
L 599.445344 115.520333 
L 599.92608 118.180458 
L 600.406816 119.33354 
L 600.887553 121.848567 
L 601.368289 123.278655 
L 601.849025 124.237174 
L 602.329761 122.798275 
L 602.810497 125.260539 
L 603.291233 129.863001 
L 603.771969 132.757262 
L 604.252705 147.206616 
L 604.733441 157.903202 
L 605.214177 164.431513 
L 605.694914 164.73709 
L 606.17565 157.411821 
L 606.656386 152.718106 
L 607.137122 153.148995 
L 608.57933 121.593409 
L 609.060066 117.852724 
L 609.540802 115.35197 
L 610.021538 116.524839 
L 610.502274 110.614277 
L 610.983011 103.173589 
L 611.463747 109.899761 
L 611.944483 113.249103 
L 612.425219 114.158156 
L 612.905955 117.84716 
L 613.386691 116.883127 
L 613.867427 117.215086 
L 614.348163 122.918975 
L 614.828899 115.540943 
L 615.309635 112.522452 
L 615.790371 113.916266 
L 616.271108 118.709994 
L 616.751844 115.945425 
L 617.713316 105.769847 
L 618.194052 108.057334 
L 618.674788 111.317638 
L 619.155524 117.628301 
L 619.63626 112.21569 
L 620.116996 113.866723 
L 621.078469 119.47717 
L 621.559205 116.95663 
L 622.520677 103.232741 
L 623.001413 99.007297 
L 623.482149 102.000488 
L 623.962885 107.549387 
L 624.443621 104.870558 
L 624.924357 106.33692 
L 625.405093 105.824671 
L 625.885829 102.868836 
L 626.366566 110.066578 
L 626.847302 107.826341 
L 627.328038 106.34787 
L 627.808774 102.554422 
L 628.28951 104.396721 
L 628.770246 111.973697 
L 629.250982 115.880347 
L 629.731718 124.255362 
L 630.212454 111.261371 
L 630.69319 111.111867 
L 631.173927 117.1818 
L 631.654663 119.881497 
L 632.135399 120.572903 
L 632.616135 117.089439 
L 633.096871 110.080747 
L 633.577607 124.902739 
L 634.058343 115.684598 
L 635.019815 104.918735 
L 635.500551 108.07681 
L 636.94276 109.520089 
L 637.423496 113.730127 
L 637.904232 116.825546 
L 638.384968 132.996292 
L 638.865704 145.025144 
L 639.34644 144.905319 
L 639.827176 139.12007 
L 640.307912 136.810582 
L 640.788648 147.919379 
L 641.269385 162.893065 
L 641.750121 153.196759 
L 642.230857 148.62176 
L 642.711593 149.438479 
L 643.192329 144.523818 
L 643.673065 147.213623 
L 644.153801 127.297787 
L 644.634537 101.742908 
L 645.115273 102.41123 
L 645.596009 94.423126 
L 646.076745 92.380751 
L 646.557482 87.759584 
L 647.038218 90.419709 
L 647.518954 92.100422 
L 647.99969 99.469643 
L 648.480426 99.257483 
L 648.961162 107.61601 
L 649.441898 103.364184 
L 649.922634 104.088568 
L 650.40337 101.060184 
L 650.884106 99.693834 
L 651.364843 102.69362 
L 652.326315 114.559778 
L 653.287787 168.972684 
L 654.249259 178.025915 
L 654.729995 177.747802 
L 655.210731 176.285819 
L 655.691467 165.432025 
L 656.65294 116.409703 
L 657.133676 123.218317 
L 657.614412 135.656082 
L 658.095148 137.874317 
L 658.575884 133.728017 
L 659.05662 140.576204 
L 659.537356 149.17876 
L 660.018092 154.76723 
L 660.979564 135.252605 
L 661.460301 135.403191 
L 661.941037 140.18043 
L 662.421773 138.484312 
L 662.902509 143.746311 
L 663.383245 143.491281 
L 664.344717 153.622856 
L 664.825453 154.007577 
L 665.306189 152.911638 
L 665.786925 157.421765 
L 666.267661 151.41557 
L 666.748398 154.913307 
L 667.229134 155.868529 
L 667.70987 153.529361 
L 668.190606 154.016311 
L 668.671342 160.993107 
L 669.152078 157.935044 
L 669.632814 157.099622 
L 670.11355 152.752164 
L 671.075022 134.127913 
L 671.555758 121.186684 
L 672.036495 113.366762 
L 672.517231 109.329286 
L 672.997967 110.050372 
L 673.478703 109.139103 
L 673.959439 111.607962 
L 674.440175 111.372718 
L 674.920911 115.417872 
L 675.401647 106.578964 
L 675.882383 103.022951 
L 676.363119 93.257394 
L 676.843856 89.434267 
L 677.324592 88.849469 
L 677.805328 86.88294 
L 678.286064 85.727642 
L 678.7668 88.724131 
L 679.247536 95.120535 
L 679.728272 99.910965 
L 680.209008 107.250507 
L 680.689744 107.285674 
L 681.17048 111.32753 
L 681.651216 112.134355 
L 682.131953 113.544657 
L 682.612689 108.679462 
L 683.093425 110.769087 
L 683.574161 108.660758 
L 685.016369 98.148816 
L 685.497105 102.081848 
L 686.458577 98.715992 
L 686.939314 94.790637 
L 687.42005 95.923934 
L 687.900786 107.71865 
L 688.381522 112.542057 
L 688.862258 109.141035 
L 689.342994 114.416225 
L 689.82373 125.126002 
L 690.785202 134.670588 
L 691.265938 129.023842 
L 691.746674 132.782096 
L 692.227411 139.920479 
L 692.708147 139.830334 
L 693.188883 135.235549 
L 693.669619 128.8798 
L 694.150355 124.984124 
L 695.111827 130.864981 
L 695.592563 125.264402 
L 696.073299 127.403492 
L 696.554035 124.942311 
L 697.034772 133.505294 
L 697.515508 145.626481 
L 698.47698 148.651542 
L 698.957716 154.540102 
L 699.438452 153.922326 
L 699.919188 153.832181 
L 700.399924 154.629113 
L 700.88066 150.33112 
L 701.842132 148.195302 
L 702.322869 150.855427 
L 702.803605 152.269026 
L 703.284341 158.460973 
L 703.765077 158.552201 
L 704.245813 148.427196 
L 704.726549 141.507542 
L 705.207285 136.21035 
L 705.688021 128.87189 
L 706.168757 123.271311 
L 706.649493 123.850596 
L 707.13023 119.549305 
L 708.091702 138.399962 
L 708.572438 139.935576 
L 709.053174 135.700239 
L 709.53391 138.28122 
L 710.014646 139.496958 
L 710.495382 141.484355 
L 710.976118 135.890371 
L 711.456854 136.746662 
L 711.93759 137.187444 
L 712.418327 146.024136 
L 712.899063 142.834165 
L 713.379799 142.424144 
L 713.860535 154.387042 
L 714.341271 160.199755 
L 714.822007 154.882777 
L 715.302743 155.795129 
L 715.783479 157.571474 
L 716.264215 164.792299 
L 717.225688 143.361718 
L 717.706424 142.071214 
L 718.18716 144.606027 
L 718.667896 141.749123 
L 719.148632 137.348902 
L 719.629368 130.521583 
L 720.110104 134.830551 
L 720.59084 134.018213 
L 721.071576 127.890004 
L 722.033048 124.167998 
L 722.513785 126.343363 
L 722.994521 135.27239 
L 723.475257 135.957201 
L 723.955993 128.117493 
L 724.436729 131.664695 
L 724.917465 140.181511 
L 725.398201 144.741104 
L 725.878937 143.295609 
L 726.359673 144.37944 
L 726.840409 143.425301 
L 727.321145 150.009673 
L 727.801882 152.030047 
L 728.282618 144.055133 
L 728.763354 144.103491 
L 729.24409 146.077697 
L 729.724826 142.660186 
L 730.205562 149.201688 
L 730.686298 161.395424 
L 731.167034 163.508133 
L 732.128506 173.969476 
L 732.609243 183.297523 
L 733.570715 195.536319 
L 734.051451 189.10802 
L 734.532187 190.142386 
L 735.012923 192.093509 
L 736.455131 170.328753 
L 736.935867 171.175151 
L 737.416603 179.813981 
L 737.89734 178.394868 
L 739.339548 180.586722 
L 739.820284 193.080547 
L 740.30102 195.470262 
L 740.781756 194.199545 
L 741.743228 178.586082 
L 742.223964 179.445671 
L 742.704701 176.789925 
L 743.185437 166.104314 
L 743.666173 164.13119 
L 744.146909 168.219213 
L 744.627645 165.899831 
L 745.108381 166.785801 
L 745.589117 167.978456 
L 746.069853 164.894011 
L 746.550589 157.997441 
L 747.031325 154.83715 
L 748.95427 154.964652 
L 749.435006 155.151512 
L 750.396478 148.339574 
L 750.877214 150.195064 
L 751.35795 157.175158 
L 751.838686 156.089112 
L 752.319422 154.25449 
L 752.800159 163.839756 
L 753.280895 162.931785 
L 753.761631 164.780679 
L 754.242367 159.84953 
L 754.723103 166.166789 
L 755.203839 169.384223 
L 755.684575 169.003882 
L 756.165311 153.652044 
L 756.646047 154.74247 
L 757.126783 154.494036 
L 757.607519 153.783926 
L 758.088256 146.798318 
L 758.568992 142.958704 
L 759.049728 144.240396 
L 759.530464 146.085992 
L 760.0112 156.522062 
L 760.491936 160.4452 
L 760.972672 160.289101 
L 761.453408 162.378727 
L 761.934144 169.807306 
L 762.41488 167.022951 
L 762.895617 168.179331 
L 763.857089 140.974501 
L 764.337825 140.584266 
L 764.818561 135.719071 
L 765.299297 128.769738 
L 765.780033 125.616042 
L 766.260769 121.384003 
L 766.741505 122.8009 
L 767.222241 122.354605 
L 767.702977 132.045397 
L 768.183714 135.658553 
L 769.145186 132.702719 
L 769.625922 132.906067 
L 770.106658 140.067534 
L 770.587394 136.778633 
L 771.06813 139.188134 
L 771.548866 128.852077 
L 772.029602 123.238307 
L 772.510338 127.177935 
L 772.991075 134.009633 
L 773.471811 130.813067 
L 773.952547 138.39334 
L 774.433283 139.206761 
L 774.914019 140.745672 
L 775.394755 145.410791 
L 775.875491 141.287575 
L 776.356227 135.865071 
L 776.836963 138.650508 
L 777.317699 137.577652 
L 777.798435 137.523781 
L 778.279172 138.089875 
L 779.240644 126.875526 
L 779.72138 126.320407 
L 780.202116 119.354586 
L 780.682852 110.00124 
L 781.163588 105.574637 
L 781.644324 97.837157 
L 782.12506 110.558523 
L 782.605796 113.119717 
L 783.086532 106.773861 
L 783.567269 103.728989 
L 784.048005 114.620139 
L 784.528741 115.407178 
L 785.009477 122.78959 
L 785.490213 112.674478 
L 786.451685 124.052578 
L 786.932421 138.020469 
L 787.413157 134.724973 
L 787.893893 141.958989 
L 788.37463 137.994062 
L 788.855366 138.903116 
L 789.336102 138.740421 
L 789.816838 126.755521 
L 790.297574 121.154942 
L 790.77831 121.012034 
L 791.259046 114.765108 
L 792.220518 128.609877 
L 792.701254 128.516434 
L 793.18199 140.746445 
L 793.662727 138.898633 
L 794.143463 135.768021 
L 794.624199 136.360496 
L 795.104935 123.877646 
L 795.585671 120.90862 
L 796.066407 124.198603 
L 796.547143 124.474501 
L 797.027879 124.971344 
L 797.508615 126.160701 
L 797.989351 128.735086 
L 798.470088 139.843884 
L 798.950824 138.01256 
L 799.912296 131.309446 
L 800.393032 130.622419 
L 800.873768 133.688159 
L 801.354504 132.391061 
L 801.83524 125.580231 
L 802.315976 120.767799 
L 802.796712 123.269635 
L 803.277448 130.493758 
L 803.758185 129.717694 
L 804.238921 133.436376 
L 804.719657 135.987677 
L 805.200393 136.055821 
L 805.681129 136.852753 
L 806.161865 141.97625 
L 806.642601 131.600621 
L 807.123337 132.028212 
L 807.604073 123.242068 
L 808.084809 124.968948 
L 809.046282 143.756949 
L 809.527018 133.971606 
L 810.007754 131.266395 
L 810.48849 130.150669 
L 810.969226 130.495819 
L 811.449962 124.258786 
L 811.930698 121.111685 
L 812.411434 111.003169 
L 812.89217 113.798499 
L 813.372906 118.783493 
L 813.853643 132.810743 
L 814.334379 132.720597 
L 814.815115 128.673228 
L 815.295851 127.616861 
L 815.776587 140.770224 
L 816.257323 145.484808 
L 816.738059 153.747702 
L 817.218795 140.107363 
L 817.699531 139.265345 
L 818.180267 148.092144 
L 818.661004 146.781855 
L 819.14174 134.061571 
L 820.103212 141.818811 
L 820.583948 133.154681 
L 821.064684 130.92104 
L 821.54542 127.698092 
L 822.026156 130.242798 
L 822.506892 150.106953 
L 822.987628 153.77617 
L 823.468364 151.836022 
L 823.949101 168.910334 
L 824.910573 189.874808 
L 825.391309 194.246433 
L 826.352781 172.344282 
L 826.833517 169.84023 
L 827.314253 174.469074 
L 827.794989 170.758069 
L 828.275725 162.384136 
L 828.756462 158.679726 
L 829.237198 151.647951 
L 829.717934 160.072432 
L 830.19867 161.469543 
L 830.679406 151.585269 
L 831.160142 159.152352 
L 831.640878 160.259266 
L 832.121614 160.304326 
L 832.60235 159.940473 
L 833.563822 145.949472 
L 834.044559 151.923772 
L 834.525295 141.09636 
L 835.006031 137.494178 
L 835.486767 139.270523 
L 836.448239 171.70435 
L 836.928975 184.227855 
L 837.409711 179.702322 
L 837.890447 188.690707 
L 838.371183 193.751548 
L 838.851919 194.624327 
L 839.332656 185.511711 
L 839.813392 170.997486 
L 840.294128 167.840493 
L 841.2556 152.820613 
L 841.736336 149.099715 
L 842.217072 149.161264 
L 842.697808 152.121478 
L 843.178544 151.80709 
L 843.65928 143.621125 
L 844.140017 150.617707 
L 844.620753 149.617401 
L 845.101489 151.924673 
L 845.582225 151.343173 
L 846.062961 143.856317 
L 846.543697 155.898359 
L 847.024433 163.023552 
L 847.505169 165.950789 
L 847.985905 164.518486 
L 848.466641 167.729324 
L 851.831794 165.624293 
L 852.31253 166.276127 
L 853.274002 144.004635 
L 853.754738 136.956372 
L 854.235475 139.873716 
L 854.716211 135.641677 
L 855.196947 140.118827 
L 855.677683 137.271816 
L 856.158419 142.141391 
L 856.639155 143.894652 
L 857.119891 143.069123 
L 857.600627 141.725857 
L 858.081363 134.384099 
L 858.562099 122.907043 
L 859.042835 124.188735 
L 859.523572 121.150458 
L 860.96578 135.030394 
L 861.446516 140.698009 
L 861.927252 144.924535 
L 862.407988 147.690186 
L 862.888724 137.944415 
L 863.36946 137.808102 
L 863.850196 139.792202 
L 864.330933 138.805086 
L 864.811669 145.890706 
L 865.292405 139.788878 
L 865.773141 140.879304 
L 866.253877 145.501553 
L 866.734613 147.676918 
L 868.176821 135.247912 
L 868.657557 142.036741 
L 869.138293 138.292759 
L 870.099766 127.012456 
L 870.580502 122.787012 
L 871.061238 123.887331 
L 871.541974 113.72935 
L 872.02271 109.602836 
L 872.503446 111.926597 
L 872.984182 119.305712 
L 873.464918 120.570915 
L 873.945654 128.949228 
L 874.426391 131.042151 
L 874.907127 134.150762 
L 875.868599 142.946773 
L 876.349335 140.9011 
L 876.830071 132.942675 
L 877.310807 120.268559 
L 877.791543 116.626805 
L 878.272279 118.571332 
L 878.753015 122.95285 
L 879.714488 113.86221 
L 880.195224 125.920741 
L 880.67596 130.404487 
L 881.156696 128.480828 
L 881.637432 130.91671 
L 882.598904 120.902719 
L 883.07964 129.201888 
L 883.560376 122.054694 
L 884.521849 129.317281 
L 885.002585 113.859917 
L 885.483321 111.721909 
L 885.964057 114.88658 
L 886.444793 106.281808 
L 886.925529 106.969917 
L 887.406265 101.118714 
L 887.887001 103.145683 
L 888.367737 125.13025 
L 888.848473 125.280836 
L 889.329209 127.931068 
L 889.809946 135.531127 
L 890.290682 128.647747 
L 890.771418 136.785329 
L 891.252154 134.343934 
L 891.73289 129.013765 
L 892.213626 127.010961 
L 892.694362 132.404868 
L 893.175098 132.403761 
L 893.655834 151.81943 
L 894.13657 152.164579 
L 894.617306 151.421492 
L 895.098043 152.976892 
L 895.578779 155.416072 
L 896.059515 143.767536 
L 896.540251 145.764826 
L 897.020987 134.469143 
L 897.501723 136.700569 
L 897.982459 148.534857 
L 898.463195 151.096051 
L 899.424667 170.883251 
L 899.905404 169.882944 
L 900.38614 175.461522 
L 900.866876 173.6269 
L 901.347612 172.461709 
L 901.828348 167.237066 
L 902.309084 156.577836 
L 903.270556 146.296733 
L 903.751292 153.494474 
L 904.232028 155.828128 
L 904.712764 150.24074 
L 905.193501 154.193558 
L 905.674237 162.400391 
L 906.154973 164.229499 
L 906.635709 176.677157 
L 907.116445 168.547253 
L 907.597181 179.121825 
L 908.077917 175.443797 
L 908.558653 177.751069 
L 909.039389 177.32456 
L 909.520125 189.079704 
L 910.000862 188.17503 
L 910.481598 183.428552 
L 910.962334 175.918612 
L 911.44307 175.172227 
L 911.923806 172.70445 
L 912.404542 172.74951 
L 912.885278 159.16853 
L 913.366014 160.437031 
L 913.84675 171.278716 
L 914.327486 173.958627 
L 915.288959 190.959282 
L 916.250431 201.918576 
L 916.731167 202.454991 
L 917.211903 199.571705 
L 917.692639 200.177371 
L 918.173375 207.266289 
L 918.654111 195.518823 
L 919.134847 187.012982 
L 919.615583 181.959819 
L 920.09632 178.337851 
L 921.538528 148.180484 
L 922.019264 150.570199 
L 922.5 149.53032 
L 923.461472 140.007684 
L 923.942208 150.700973 
L 924.422944 147.177936 
L 924.90368 142.596342 
L 925.384417 140.751827 
L 925.865153 140.378081 
L 926.345889 148.004521 
L 926.826625 147.729706 
L 927.307361 149.898475 
L 927.788097 160.410392 
L 928.268833 157.94921 
L 928.749569 164.543475 
L 929.230305 164.014737 
L 929.711041 162.03172 
L 930.191778 161.351288 
L 930.672514 152.317818 
L 931.15325 146.766704 
L 931.633986 153.380755 
L 932.114722 144.779281 
L 932.595458 144.408832 
L 933.076194 144.391236 
L 933.55693 139.81294 
L 934.037666 147.657028 
L 934.518402 139.823915 
L 934.999138 138.714784 
L 935.479875 158.374482 
L 935.960611 154.44583 
L 936.441347 157.781981 
L 936.922083 164.115728 
L 937.402819 152.450704 
L 937.883555 155.875892 
L 938.364291 156.033074 
L 938.845027 141.149507 
L 939.325763 142.586191 
L 939.806499 135.316982 
L 940.287236 125.541532 
L 940.767972 127.202458 
L 941.248708 125.090831 
L 942.21018 111.986908 
L 942.690916 114.930634 
L 943.171652 111.925334 
L 943.652388 116.475033 
L 944.133124 123.184717 
L 944.61386 146.973118 
L 966.727721 157.053037 
L 967.208457 152.853975 
L 967.689193 145.419882 
L 968.169929 147.433661 
L 968.650665 144.761427 
L 969.131401 135.431165 
L 969.612137 113.173972 
L 970.092873 113.49274 
L 970.573609 118.520603 
L 971.054346 126.832963 
L 971.535082 125.779893 
L 972.015818 118.675569 
L 972.496554 125.906287 
L 972.97729 120.30241 
L 973.458026 116.423223 
L 973.938762 113.49377 
L 974.419498 114.294 
L 974.900234 111.061159 
L 975.38097 123.2483 
L 975.861707 116.203335 
L 976.342443 115.968091 
L 976.823179 111.534893 
L 977.303915 109.492517 
L 977.784651 103.314843 
L 978.265387 101.371398 
L 978.746123 96.964581 
L 979.226859 94.124165 
L 979.707595 95.537765 
L 980.188331 88.031123 
L 980.669067 91.789378 
L 981.149804 93.572318 
L 981.63054 97.680127 
L 982.111276 94.008695 
L 982.592012 93.493148 
L 983.072748 94.33295 
L 983.553484 98.41108 
L 984.03422 98.205516 
L 984.514956 89.511707 
L 984.995692 75.703186 
L 985.476428 78.851369 
L 985.957165 84.040819 
L 986.437901 86.127147 
L 986.918637 86.858125 
L 987.399373 86.14142 
L 987.880109 88.000207 
L 988.360845 99.287079 
L 988.841581 103.46414 
L 989.322317 106.374889 
L 989.803053 111.808369 
L 990.283789 119.349069 
L 991.245262 136.966392 
L 991.725998 132.872855 
L 992.206734 123.855873 
L 992.68747 118.482834 
L 993.648942 104.485238 
L 994.129678 89.285094 
L 994.610414 86.019276 
L 995.09115 91.363718 
L 995.571886 93.638014 
L 996.052623 95.219795 
L 996.533359 97.203895 
L 997.014095 102.136126 
L 997.494831 115.378526 
L 998.456303 121.213215 
L 998.937039 130.323615 
L 999.417775 130.223576 
L 999.898511 125.599112 
L 1000.379247 132.724305 
L 1000.859983 126.365258 
L 1001.34072 116.820645 
L 1001.821456 115.197076 
L 1002.302192 108.663252 
L 1002.782928 115.142097 
L 1003.263664 115.444377 
L 1003.7444 100.240935 
L 1004.225136 98.960325 
L 1004.705872 102.659221 
L 1005.186608 99.442869 
L 1005.667344 97.090511 
L 1006.148081 87.694295 
L 1006.628817 87.782224 
L 1007.590289 101.729222 
L 1008.071025 98.82615 
L 1008.551761 106.066761 
L 1009.032497 99.951743 
L 1009.513233 107.258308 
L 1009.993969 108.177255 
L 1010.474705 105.26429 
L 1010.955441 99.775832 
L 1011.436178 103.68578 
L 1011.916914 102.161141 
L 1012.39765 106.331607 
L 1012.878386 98.478708 
L 1013.839858 87.522686 
L 1014.320594 75.455344 
L 1014.80133 69.343623 
L 1015.282066 67.466132 
L 1016.243538 55.8 
L 1016.724275 58.05451 
L 1017.205011 62.762498 
L 1017.685747 61.600604 
L 1018.647219 69.127007 
L 1019.127955 67.925541 
L 1019.608691 70.674704 
L 1020.089427 68.899441 
L 1020.570163 71.839869 
L 1021.050899 82.463906 
L 1022.012372 84.473279 
L 1022.973844 90.512425 
L 1023.45458 98.313643 
L 1023.935316 104.172524 
L 1024.416052 108.14183 
L 1024.896788 113.895185 
L 1025.377524 112.383737 
L 1025.85826 116.992795 
L 1026.338996 122.835187 
L 1026.819733 115.760542 
L 1027.300469 111.640624 
L 1028.261941 97.032956 
L 1028.742677 92.919633 
L 1029.223413 81.261204 
L 1030.184885 71.583577 
L 1031.146357 75.558371 
L 1031.627094 78.920903 
L 1032.588566 93.65275 
L 1033.069302 94.222142 
L 1033.550038 106.94021 
L 1034.030774 105.560669 
L 1034.51151 108.003147 
L 1034.992246 106.287242 
L 1035.953718 93.008542 
L 1036.434454 87.018835 
L 1036.915191 78.582246 
L 1037.395927 84.022321 
L 1038.838135 81.115951 
L 1039.318871 75.274641 
L 1039.799607 74.841536 
L 1040.761079 93.098609 
L 1041.241815 93.763634 
L 1041.722552 89.841577 
L 1042.203288 96.109371 
L 1042.684024 104.510768 
L 1043.16476 115.154592 
L 1043.645496 117.372827 
L 1044.126232 122.305058 
L 1044.606968 128.866346 
L 1045.087704 127.895718 
L 1045.56844 132.165114 
L 1046.529912 126.942661 
L 1047.010649 126.232551 
L 1047.491385 130.093033 
L 1047.972121 132.99389 
L 1048.452857 145.606432 
L 1048.933593 141.598635 
L 1049.414329 146.830956 
L 1049.895065 153.834134 
L 1050.375801 154.799248 
L 1050.856537 151.981916 
L 1051.337273 152.910756 
L 1051.81801 148.266505 
L 1052.298746 148.723776 
L 1052.779482 143.024266 
L 1053.260218 140.111301 
L 1053.740954 145.073211 
L 1054.22169 143.050622 
L 1054.702426 140.441044 
L 1056.62537 128.87495 
L 1057.106107 129.051918 
L 1057.586843 135.850639 
L 1058.067579 130.226976 
L 1058.548315 126.179607 
L 1059.029051 129.753191 
L 1059.509787 123.77008 
L 1059.990523 133.803832 
L 1060.471259 132.038462 
L 1061.432731 138.318339 
L 1061.913468 141.423652 
L 1062.87494 156.218154 
L 1063.355676 162.261706 
L 1063.836412 171.724958 
L 1064.317148 175.404068 
L 1064.797884 178.083979 
L 1065.27862 178.956758 
L 1065.759356 175.94816 
L 1066.240092 182.374243 
L 1066.720828 177.030883 
L 1067.201565 170.25303 
L 1067.682301 158.690234 
L 1068.163037 159.061765 
L 1069.605245 143.76488 
L 1070.085981 131.028108 
L 1070.566717 129.1737 
L 1071.047453 128.097546 
L 1072.489662 141.271777 
L 1072.970398 141.577354 
L 1073.451134 148.986148 
L 1073.93187 152.183796 
L 1074.412606 156.291605 
L 1074.893342 162.701199 
L 1075.374078 158.86818 
L 1075.854814 168.021449 
L 1076.33555 168.26437 
L 1076.816286 167.989555 
L 1077.297023 166.029621 
L 1077.777759 168.122544 
L 1078.258495 167.534448 
L 1078.739231 171.048674 
L 1079.219967 172.712898 
L 1079.700703 162.624167 
L 1080.662175 157.395119 
L 1081.142911 167.540992 
L 1081.623647 168.862256 
L 1082.104383 171.143147 
L 1082.58512 172.302825 
L 1083.065856 179.602795 
L 1083.546592 189.488151 
L 1084.027328 196.455054 
L 1084.508064 183.876571 
L 1085.950272 160.212348 
L 1086.431008 160.785037 
L 1086.911744 152.885971 
L 1087.392481 155.951711 
L 1087.873217 158.00836 
L 1088.353953 163.092284 
L 1093.64205 164.275046 
L 1094.122786 168.194887 
L 1094.603522 165.347876 
L 1095.084258 170.979216 
L 1095.564994 166.875787 
L 1096.526466 163.306582 
L 1097.007202 164.77954 
L 1097.487939 168.37291 
L 1097.968675 168.553175 
L 1098.449411 169.416061 
L 1098.930147 166.694362 
L 1099.410883 170.769195 
L 1099.891619 178.029592 
L 1100.372355 177.761372 
L 1100.853091 180.523725 
L 1101.333827 168.462978 
L 1101.814563 173.586475 
L 1102.776036 164.152877 
L 1103.256772 156.003186 
L 1103.737508 151.134693 
L 1104.218244 143.5588 
L 1104.69898 151.881052 
L 1105.179716 153.017646 
L 1106.141188 161.685048 
L 1106.621924 150.419044 
L 1108.064133 178.017355 
L 1108.544869 171.793513 
L 1109.025605 172.712459 
L 1109.506341 172.249675 
L 1109.987077 191.028891 
L 1110.948549 184.200465 
L 1111.429285 177.340169 
L 1111.910021 178.292093 
L 1112.871494 171.358141 
L 1113.35223 171.881365 
L 1113.832966 168.038453 
L 1114.313702 168.584761 
L 1114.794438 177.243377 
L 1115.275174 183.201189 
L 1115.75591 184.209173 
L 1116.236646 181.283017 
L 1116.717382 175.903383 
L 1117.198118 179.585791 
L 1117.678855 171.70651 
L 1118.159591 161.594696 
L 1118.640327 155.024597 
L 1119.121063 152.141312 
L 1120.082535 160.825202 
L 1120.563271 155.890755 
L 1122.486215 176.585901 
L 1122.966952 170.454394 
L 1123.447688 168.679131 
L 1123.928424 172.015282 
L 1124.40916 170.625848 
L 1124.889896 164.128298 
L 1125.370632 161.528614 
L 1126.332104 154.500136 
L 1126.81284 158.070423 
L 1127.293576 155.078313 
L 1127.774312 149.204026 
L 1128.255049 147.178139 
L 1128.735785 143.664995 
L 1129.216521 142.799894 
L 1129.697257 146.208593 
L 1130.177993 145.449018 
L 1130.658729 144.979638 
L 1131.620201 153.772352 
L 1132.100937 154.206539 
L 1132.581673 154.815503 
L 1133.06241 153.858066 
L 1133.543146 154.094392 
L 1134.023882 152.358701 
L 1134.504618 149.821672 
L 1134.985354 144.280452 
L 1135.46609 146.25136 
L 1135.946826 140.044007 
L 1136.427562 142.196288 
L 1136.908298 139.764785 
L 1137.389034 138.451198 
L 1138.350507 137.538821 
L 1138.831243 138.827109 
L 1139.311979 143.765935 
L 1139.792715 141.888444 
L 1140.273451 143.971474 
L 1140.754187 146.720636 
L 1141.234923 145.130044 
L 1141.715659 151.75069 
L 1142.677131 158.643936 
L 1143.157868 159.86627 
L 1143.638604 157.774429 
L 1144.600076 165.083184 
L 1145.080812 166.272541 
L 1145.561548 166.099954 
L 1146.042284 167.025496 
L 1146.52302 168.808436 
L 1147.003756 171.709292 
L 1147.484492 170.253905 
L 1147.965228 169.425078 
L 1148.445965 164.015764 
L 1148.926701 160.57517 
L 1149.407437 159.076912 
L 1149.888173 156.708066 
L 1150.368909 158.273359 
L 1150.849645 154.832764 
L 1151.330381 155.461514 
L 1151.811117 155.354881 
L 1152.291853 156.880602 
L 1152.772589 157.713808 
L 1153.253326 160.235431 
L 1153.734062 160.732273 
L 1154.214798 166.73955 
L 1154.695534 170.224097 
L 1155.657006 159.603331 
L 1156.618478 149.391479 
L 1157.099214 148.361493 
L 1157.57995 140.930697 
L 1158.060686 136.906412 
L 1158.541423 138.784986 
L 1159.022159 140.211776 
L 1159.502895 142.354164 
L 1159.983631 145.604575 
L 1160.464367 144.178867 
L 1160.945103 148.909939 
L 1161.425839 148.621932 
L 1161.906575 156.149442 
L 1162.868047 163.250443 
L 1163.82952 169.287399 
L 1164.310256 176.844588 
L 1164.790992 178.198829 
L 1165.271728 178.448346 
L 1165.752464 172.221206 
L 1166.2332 163.313048 
L 1167.194672 159.739438 
L 1167.675408 153.654099 
L 1168.156144 150.830171 
L 1168.636881 152.510883 
L 1169.117617 158.821547 
L 1169.598353 160.591297 
L 1170.079089 163.25472 
L 1170.559825 160.259313 
L 1171.040561 163.305267 
L 1171.521297 163.960399 
L 1172.002033 161.492622 
L 1172.482769 162.672085 
L 1172.963505 160.939692 
L 1173.444242 150.135364 
L 1173.924978 145.121773 
L 1174.405714 136.70497 
L 1174.88645 130.781217 
L 1175.367186 127.660498 
L 1175.847922 120.021949 
L 1176.809394 141.299703 
L 1177.29013 146.518833 
L 1177.770866 147.404803 
L 1178.251602 149.698884 
L 1179.213075 157.650688 
L 1179.693811 157.141737 
L 1180.655283 148.593026 
L 1181.136019 141.67667 
L 1181.616755 139.462814 
L 1182.578227 132.515671 
L 1183.058963 124.441827 
L 1183.539699 114.455325 
L 1184.020436 119.888805 
L 1184.501172 122.097147 
L 1185.462644 132.723374 
L 1185.94338 136.118883 
L 1186.424116 147.461816 
L 1186.904852 151.767487 
L 1187.385588 146.902292 
L 1187.866324 139.797967 
L 1188.34706 139.806753 
L 1188.827797 145.022585 
L 1189.308533 151.976297 
L 1190.270005 138.345852 
L 1190.750741 133.985203 
L 1191.231477 134.023667 
L 1191.712213 139.114187 
L 1192.192949 136.349618 
L 1193.154421 118.144174 
L 1193.635157 126.674181 
L 1194.115894 129.997141 
L 1194.59663 129.992735 
L 1195.077366 133.846623 
L 1195.558102 132.305495 
L 1196.038838 140.888265 
L 1196.519574 138.671112 
L 1197.00031 140.084711 
L 1197.481046 144.004553 
L 1197.961782 142.473318 
L 1198.923255 152.215766 
L 1199.403991 149.385243 
L 1200.846199 156.563198 
L 1201.326935 154.830805 
L 1201.807671 154.701088 
L 1202.769143 158.109788 
L 1203.249879 152.26518 
L 1203.730615 143.380105 
L 1204.211352 140.813397 
L 1204.692088 135.770127 
L 1205.172824 139.126064 
L 1205.65356 139.827363 
L 1206.134296 139.268946 
L 1206.615032 138.417035 
L 1207.095768 144.490266 
L 1207.576504 142.015893 
L 1208.05724 137.734388 
L 1208.537976 132.321777 
L 1209.018713 122.526541 
L 1209.499449 127.653336 
L 1209.980185 136.397692 
L 1211.422393 147.451511 
L 1211.903129 146.266533 
L 1212.383865 146.720506 
L 1212.864601 140.760479 
L 1213.345337 128.112744 
L 1213.826073 122.24835 
L 1214.30681 121.769078 
L 1214.787546 123.27831 
L 1215.268282 121.789946 
L 1216.229754 128.135777 
L 1216.71049 133.899025 
L 1217.191226 141.601312 
L 1217.671962 141.629883 
L 1218.152698 139.950253 
L 1218.633434 145.047368 
L 1219.114171 146.141092 
L 1219.594907 142.585079 
L 1220.075643 143.629337 
L 1220.556379 135.58847 
L 1221.037115 135.425776 
L 1221.517851 140.443747 
L 1221.998587 142.276152 
L 1222.479323 148.009721 
L 1222.960059 156.66504 
L 1223.440795 154.124714 
L 1223.921531 157.371827 
L 1224.402268 158.007172 
L 1224.883004 153.923529 
L 1225.36374 152.286769 
L 1225.844476 149.083607 
L 1226.325212 143.55228 
L 1226.805948 142.786109 
L 1227.286684 146.029924 
L 1227.76742 146.206891 
L 1228.248156 149.559531 
L 1228.728892 142.788273 
L 1229.209629 132.716031 
L 1229.690365 127.095666 
L 1231.132573 119.603296 
L 1231.613309 115.938459 
L 1232.094045 118.301792 
L 1232.574781 123.728676 
L 1233.055517 125.561082 
L 1233.536253 122.565675 
L 1234.016989 116.510015 
L 1234.497726 116.479228 
L 1234.978462 117.658692 
L 1235.459198 121.92479 
L 1235.939934 119.522967 
L 1236.42067 119.884604 
L 1236.901406 128.114522 
L 1237.382142 130.08543 
L 1237.862878 127.287884 
L 1238.343614 126.218326 
L 1238.82435 128.779521 
L 1239.305086 139.251865 
L 1239.785823 140.803967 
L 1240.266559 134.669163 
L 1240.747295 139.182587 
L 1241.228031 147.072843 
L 1242.189503 130.648149 
L 1242.670239 128.691514 
L 1243.150975 131.615454 
L 1243.631711 143.11008 
L 1244.112447 135.243991 
L 1244.593184 136.037625 
L 1245.07392 141.438128 
L 1245.554656 143.379357 
L 1246.035392 146.418716 
L 1246.516128 142.668139 
L 1246.996864 140.817029 
L 1247.4776 149.980191 
L 1247.958336 146.295568 
L 1248.439072 144.803906 
L 1248.919808 151.849954 
L 1249.400544 148.504992 
L 1249.881281 151.178308 
L 1250.362017 151.114544 
L 1250.842753 146.407638 
L 1251.323489 146.446102 
L 1251.804225 156.331458 
L 1252.765697 149.977898 
L 1253.246433 155.005762 
L 1253.727169 153.939502 
L 1254.207905 157.776901 
L 1254.688642 158.290232 
L 1255.169378 150.622003 
L 1256.13085 145.066484 
L 1256.611586 146.275627 
L 1257.092322 148.421313 
L 1257.573058 154.906754 
L 1258.053794 159.723566 
L 1259.015266 164.001747 
L 1259.496002 170.734515 
L 1259.976739 170.61469 
L 1260.457475 173.35396 
L 1260.938211 167.268621 
L 1261.418947 158.927664 
L 1261.899683 161.34376 
L 1262.380419 175.291866 
L 1262.861155 171.04004 
L 1263.341891 168.539286 
L 1264.303363 147.672609 
L 1264.7841 164.318222 
L 1265.264836 162.249465 
L 1265.745572 155.072592 
L 1266.226308 158.563734 
L 1266.707044 153.800767 
L 1267.18778 154.340479 
L 1267.668516 171.718178 
L 1268.149252 160.867683 
L 1268.629988 173.905627 
L 1269.110724 171.210309 
L 1269.59146 172.238079 
L 1270.072197 176.922984 
L 1270.552933 183.879994 
L 1271.033669 173.689035 
L 1271.514405 167.48498 
L 1271.995141 150.494192 
L 1272.475877 148.052796 
L 1272.956613 146.43912 
L 1273.437349 147.32509 
L 1273.918085 141.599198 
L 1274.879558 155.88256 
L 1275.84103 166.571443 
L 1276.321766 160.222289 
L 1276.802502 160.264051 
L 1277.283238 161.92168 
L 1277.763974 161.478682 
L 1278.24471 157.197177 
L 1278.725446 158.772364 
L 1279.206182 154.207258 
L 1279.686918 158.506333 
L 1280.167655 159.148274 
L 1280.648391 156.189142 
L 1281.129127 152.052735 
L 1281.609863 153.43006 
L 1282.090599 152.769415 
L 1282.571335 153.17722 
L 1283.052071 161.288421 
L 1283.532807 163.622075 
L 1284.494279 171.01657 
L 1285.455752 174.107584 
L 1285.936488 171.0792 
L 1286.417224 162.118278 
L 1287.378696 150.152057 
L 1287.859432 148.630716 
L 1288.340168 151.472213 
L 1288.820904 146.366287 
L 1289.782376 160.197866 
L 1290.263113 161.182766 
L 1290.743849 165.936922 
L 1291.224585 167.334033 
L 1291.705321 166.683281 
L 1292.186057 167.86934 
L 1293.628265 155.499693 
L 1294.589737 151.4743 
L 1295.070473 151.060981 
L 1295.55121 157.130914 
L 1296.031946 156.885777 
L 1296.512682 159.173264 
L 1296.993418 164.478133 
L 1297.474154 164.173638 
L 1297.95489 166.342408 
L 1298.435626 169.955565 
L 1298.916362 166.620496 
L 1299.397098 167.826341 
L 1299.877834 174.176577 
L 1300.358571 171.639549 
L 1300.839307 177.082921 
L 1301.320043 163.874579 
L 1301.800779 159.81402 
L 1302.281515 164.927623 
L 1302.762251 168.732046 
L 1303.242987 164.770417 
L 1303.723723 166.273054 
L 1304.204459 163.412852 
L 1304.685195 175.949547 
L 1305.165931 179.737481 
L 1305.646668 175.838508 
L 1306.127404 174.646935 
L 1306.60814 172.888161 
L 1307.088876 181.968881 
L 1307.569612 198.011017 
L 1308.050348 198.659554 
L 1308.531084 193.972434 
L 1309.01182 197.658139 
L 1309.492556 198.643039 
L 1309.973292 203.515912 
L 1310.454029 195.349733 
L 1310.934765 178.131405 
L 1311.415501 176.804627 
L 1311.896237 176.397904 
L 1312.376973 169.488143 
L 1313.338445 160.249108 
L 1313.819181 155.123396 
L 1314.299917 154.568277 
L 1314.780653 151.005668 
L 1315.261389 150.559372 
L 1315.742126 154.212101 
L 1316.222862 149.778902 
L 1316.703598 144.006844 
L 1317.184334 149.588719 
L 1318.145806 156.145601 
L 1318.626542 156.569895 
L 1319.107278 160.456759 
L 1319.588014 161.847275 
L 1320.06875 167.313731 
L 1320.549487 165.798985 
L 1321.030223 165.616505 
L 1321.510959 167.109249 
L 1321.991695 167.160904 
L 1322.472431 160.778773 
L 1322.953167 160.573209 
L 1323.433903 157.40962 
L 1323.914639 158.021881 
L 1324.395375 155.026474 
L 1324.876111 150.563597 
L 1325.356847 152.396003 
L 1325.837584 152.477337 
L 1326.31832 156.242187 
L 1326.799056 156.56755 
L 1327.279792 157.869029 
L 1327.760528 157.201788 
L 1328.241264 156.010215 
L 1328.722 156.896185 
L 1329.202736 155.272616 
L 1329.683472 151.479169 
L 1330.644945 152.981806 
L 1331.125681 152.739967 
L 1331.606417 155.152765 
L 1332.087153 145.904945 
L 1332.567889 120.257731 
L 1333.048625 124.879979 
L 1333.529361 125.601065 
L 1334.010097 125.639529 
L 1334.490833 126.106693 
L 1334.971569 130.979565 
L 1335.933042 144.047188 
L 1336.413778 167.947711 
L 1336.894514 169.094198 
L 1337.37525 174.58044 
L 1337.855986 176.063291 
L 1338.336722 175.874215 
L 1338.817458 170.656168 
L 1339.77893 179.016885 
L 1340.259666 176.008287 
L 1341.221139 182.301354 
L 1341.701875 181.723151 
L 1342.182611 181.563755 
L 1342.663347 178.865139 
L 1343.144083 172.641298 
L 1343.624819 172.406054 
L 1344.105555 167.342998 
L 1345.067027 165.508376 
L 1345.547763 161.094964 
L 1346.0285 163.583609 
L 1346.509236 164.88179 
L 1346.989972 167.94753 
L 1347.470708 166.749363 
L 1347.951444 163.101014 
L 1349.393652 156.225312 
L 1350.355124 153.486017 
L 1350.835861 153.039721 
L 1351.316597 154.905104 
L 1351.797333 153.413442 
L 1352.278069 151.552439 
L 1352.758805 146.235461 
L 1353.239541 138.646377 
L 1353.720277 135.871915 
L 1354.201013 136.055477 
L 1355.162485 143.02457 
L 1355.643221 153.938804 
L 1356.123958 161.377277 
L 1356.604694 164.400147 
L 1357.566166 176.408105 
L 1358.527638 170.642642 
L 1359.008374 175.159364 
L 1359.48911 174.056829 
L 1359.969846 177.637009 
L 1360.450582 178.846152 
L 1360.931318 173.400564 
L 1361.412055 163.226094 
L 1361.892791 166.100568 
L 1362.373527 167.830746 
L 1362.854263 164.967246 
L 1363.334999 157.539749 
L 1363.815735 159.883296 
L 1364.296471 162.91606 
L 1364.777207 176.178246 
L 1365.257943 172.361715 
L 1365.738679 157.600163 
L 1366.219416 154.997181 
L 1366.700152 153.057034 
L 1367.180888 129.10483 
L 1368.14236 115.816236 
L 1368.623096 115.854701 
L 1369.103832 119.385415 
L 1369.584568 116.963805 
L 1370.065304 125.042029 
L 1370.54604 153.196567 
L 1371.026776 158.537711 
L 1371.507513 160.261293 
L 1372.468985 177.974248 
L 1372.949721 183.664947 
L 1373.911193 173.713612 
L 1374.391929 172.337369 
L 1374.872665 171.670128 
L 1375.353401 169.898163 
L 1375.834137 166.230028 
L 1376.314874 168.388905 
L 1376.79561 165.436368 
L 1377.276346 166.734548 
L 1377.757082 168.94289 
L 1378.718554 163.94468 
L 1379.19929 155.67957 
L 1379.680026 152.01803 
L 1380.160762 153.487691 
L 1380.641498 145.38087 
L 1381.122234 142.979046 
L 1381.602971 137.995135 
L 1382.083707 138.980035 
L 1382.564443 143.183477 
L 1383.045179 142.460176 
L 1383.525915 142.996591 
L 1384.006651 153.211715 
L 1384.487387 152.742336 
L 1384.968123 160.461112 
L 1385.448859 162.544142 
L 1385.929595 157.711924 
L 1386.410332 147.003228 
L 1386.891068 148.436614 
L 1387.371804 145.332383 
L 1387.85254 145.271917 
L 1388.814012 133.55632 
L 1389.294748 141.980801 
L 1389.775484 156.591741 
L 1390.25622 155.202307 
L 1390.736956 157.397458 
L 1391.217692 151.430836 
L 1391.698429 152.478392 
L 1392.179165 151.191187 
L 1392.659901 153.834823 
L 1393.140637 146.624973 
L 1393.621373 144.315485 
L 1394.102109 141.029882 
L 1394.582845 146.928335 
L 1395.063581 147.036051 
L 1395.544317 143.869164 
L 1396.025053 134.479543 
L 1396.50579 136.753839 
L 1396.986526 142.411561 
L 1397.467262 142.156531 
L 1397.947998 144.52646 
L 1398.428734 147.80655 
L 1398.90947 158.674616 
L 1399.390206 163.662908 
L 1399.870942 161.422671 
L 1400.351678 153.945708 
L 1400.832414 155.332926 
L 1401.31315 142.421376 
L 1401.793887 140.13827 
L 1402.274623 133.581361 
L 1402.755359 129.817594 
L 1403.236095 137.341806 
L 1403.716831 146.805058 
L 1404.197567 142.216868 
L 1404.678303 156.712389 
L 1405.159039 158.435972 
L 1405.639775 162.039235 
L 1406.120511 167.017633 
L 1407.081984 160.258459 
L 1407.56272 166.084362 
L 1408.043456 160.622286 
L 1408.524192 158.672246 
L 1409.004928 155.742792 
L 1409.485664 158.501848 
L 1409.9664 165.158769 
L 1410.447136 164.366216 
L 1410.927872 158.515013 
L 1411.889345 169.177515 
L 1412.370081 171.603504 
L 1412.850817 171.691434 
L 1413.331553 157.64548 
L 1413.812289 163.174592 
L 1414.293025 165.148798 
L 1414.773761 173.494135 
L 1415.254497 164.051751 
L 1416.215969 158.578674 
L 1416.696705 162.71946 
L 1417.177442 158.850166 
L 1417.658178 161.05521 
L 1418.138914 153.927802 
L 1418.61965 165.913784 
L 1419.100386 166.773373 
L 1419.581122 168.322177 
L 1420.061858 179.645324 
L 1420.542594 182.015253 
L 1421.02333 180.398279 
L 1421.504066 181.785497 
L 1421.984803 177.503992 
L 1422.465539 177.892011 
L 1422.946275 177.900797 
L 1423.427011 178.057978 
L 1423.907747 169.472992 
L 1424.388483 175.467078 
L 1424.869219 175.024081 
L 1425.349955 175.593472 
L 1425.830691 179.437467 
L 1426.311427 187.875138 
L 1426.792163 181.476519 
L 1427.2729 188.977648 
L 1427.753636 185.260047 
L 1428.234372 187.135323 
L 1428.715108 191.652045 
L 1429.195844 184.330074 
L 1429.67658 173.555425 
L 1430.157316 173.346563 
L 1430.638052 174.034672 
L 1432.080261 191.525574 
L 1433.522469 220.466043 
L 1434.003205 225.728043 
L 1434.483941 224.648592 
L 1434.964677 207.10709 
L 1435.445413 194.927627 
L 1435.926149 193.145768 
L 1436.406885 184.201335 
L 1436.887621 178.610649 
L 1437.849094 170.786322 
L 1438.32983 178.241283 
L 1438.810566 181.547754 
L 1439.291302 174.080684 
L 1439.772038 174.448917 
L 1440.252774 177.023303 
L 1440.73351 177.104637 
L 1441.214246 180.942036 
L 1442.175719 175.548103 
L 1442.656455 173.947618 
L 1443.137191 175.54259 
L 1443.617927 164.866871 
L 1444.098663 162.425476 
L 1444.579399 162.727755 
L 1445.060135 168.148044 
L 1445.540871 168.008433 
L 1446.021607 176.310899 
L 1446.502343 178.077351 
L 1446.983079 187.464756 
L 1447.463816 188.185842 
L 1448.425288 178.043241 
L 1448.906024 180.050424 
L 1449.867496 170.554169 
L 1450.348232 163.608134 
L 1450.828968 154.333932 
L 1451.79044 157.672273 
L 1452.271177 158.795676 
L 1452.751913 162.514359 
L 1453.713385 172.263401 
L 1454.194121 190.534773 
L 1454.674857 194.833849 
L 1455.155593 194.779978 
L 1455.636329 200.464081 
L 1456.117065 201.752369 
L 1456.597801 200.649834 
L 1457.078537 203.600155 
L 1457.559274 201.692985 
L 1458.04001 198.288664 
L 1458.520746 207.511185 
L 1459.001482 203.783692 
L 1459.482218 203.212084 
L 1459.962954 202.25135 
L 1460.44369 199.384553 
L 1460.924426 193.721317 
L 1461.405162 191.51076 
L 1461.885898 182.279428 
L 1462.847371 169.465701 
L 1463.808843 172.396236 
L 1464.289579 167.372752 
L 1465.731787 158.304089 
L 1466.212523 164.166267 
L 1466.693259 166.466945 
L 1467.173995 169.315038 
L 1467.654732 168.351005 
L 1468.135468 163.957379 
L 1468.616204 171.623392 
L 1469.09694 174.204373 
L 1469.577676 171.670642 
L 1470.058412 172.823724 
L 1470.539148 166.438296 
L 1471.50062 176.08511 
L 1471.981356 171.322144 
L 1472.462092 175.894927 
L 1472.942829 177.186512 
L 1473.423565 179.975247 
L 1473.904301 189.577001 
L 1474.865773 196.873673 
L 1475.346509 203.573464 
L 1475.827245 206.372092 
L 1476.307981 199.96358 
L 1476.788717 200.668177 
L 1477.269453 200.63739 
L 1477.75019 197.85963 
L 1478.230926 184.00824 
L 1479.192398 167.840766 
L 1479.673134 168.84875 
L 1480.634606 161.947774 
L 1481.115342 154.61591 
L 1481.596078 156.728619 
L 1482.076814 160.500064 
L 1482.55755 165.326769 
L 1483.038287 163.858191 
L 1483.519023 164.143982 
L 1483.999759 161.366222 
L 1484.480495 164.768327 
L 1484.961231 170.172127 
L 1485.441967 174.30302 
L 1485.922703 174.625085 
L 1486.403439 164.958459 
L 1486.884175 159.54255 
L 1487.364911 159.653564 
L 1487.845648 157.980529 
L 1488.326384 155.179685 
L 1489.287856 147.035482 
L 1489.768592 158.576276 
L 1490.249328 165.760827 
L 1490.730064 167.988955 
L 1491.2108 171.420739 
L 1491.691536 172.50457 
L 1493.133745 170.590804 
L 1493.614481 175.117419 
L 1494.095217 184.270689 
L 1494.575953 191.056219 
L 1495.056689 200.697546 
L 1495.537425 204.38655 
L 1496.498897 216.256005 
L 1496.979633 218.639124 
L 1497.460369 208.751553 
L 1497.941106 202.580474 
L 1498.902578 183.962819 
L 1499.383314 179.918748 
L 1499.86405 189.573265 
L 1500.344786 193.905317 
L 1500.825522 200.868923 
L 1501.786994 204.550223 
L 1502.26773 205.663733 
L 1502.748466 205.220735 
L 1503.229203 194.205355 
L 1504.190675 178.502855 
L 1504.671411 176.025185 
L 1505.152147 169.22095 
L 1505.632883 171.307278 
L 1506.113619 170.755456 
L 1506.594355 172.535099 
L 1507.075091 179.502002 
L 1507.555827 194.690038 
L 1508.036564 198.576902 
L 1508.5173 205.85049 
L 1508.998036 206.538599 
L 1509.478772 208.400684 
L 1509.959508 204.0895 
L 1510.440244 197.713964 
L 1510.92098 183.862574 
L 1511.401716 178.895151 
L 1511.882452 178.148766 
L 1512.843924 171.686383 
L 1513.324661 174.402568 
L 1513.805397 176.172318 
L 1514.286133 177.470499 
L 1514.766869 177.621084 
L 1515.247605 177.45839 
L 1515.728341 178.693914 
L 1516.689813 175.446775 
L 1517.170549 179.036848 
L 1517.651285 170.504626 
L 1518.132022 170.582662 
L 1518.612758 168.579859 
L 1519.093494 164.885342 
L 1519.57423 153.533598 
L 1520.054966 149.776426 
L 1520.535702 150.494214 
L 1521.016438 160.66317 
L 1521.497174 159.765092 
L 1521.97791 153.953461 
L 1522.458646 154.588806 
L 1522.939382 160.563106 
L 1523.420119 155.025183 
L 1523.900855 146.486365 
L 1524.381591 141.525537 
L 1524.862327 145.517928 
L 1525.343063 150.450158 
L 1525.823799 151.378998 
L 1526.304535 159.354994 
L 1526.785271 162.325101 
L 1527.746743 158.685537 
L 1528.227479 150.85902 
L 1528.708216 147.926269 
L 1529.188952 146.523644 
L 1529.669688 141.381444 
L 1530.150424 149.528919 
L 1530.63116 150.761146 
L 1531.111896 150.647916 
L 1531.592632 149.403581 
L 1532.073368 146.916018 
L 1532.554104 149.342007 
L 1533.03484 148.615408 
L 1533.515577 138.886126 
L 1533.996313 137.51318 
L 1534.477049 137.251555 
L 1535.438521 142.519042 
L 1536.880729 139.408216 
L 1537.361465 145.026366 
L 1537.842201 152.827584 
L 1539.765146 200.448338 
L 1541.207354 232.831592 
L 1542.168826 234.042925 
L 1542.649562 236.043513 
L 1543.130298 240.174406 
L 1543.611035 246.590596 
L 1544.091771 248.749473 
L 1544.572507 243.313778 
L 1545.053243 240.209547 
L 1545.533979 241.286783 
L 1546.014715 232.217037 
L 1546.495451 228.304874 
L 1546.976187 218.394218 
L 1547.456923 204.52634 
L 1547.937659 194.315595 
L 1548.418395 191.204769 
L 1548.899132 180.486181 
L 1549.379868 184.039979 
L 1549.860604 180.892878 
L 1550.34134 183.635445 
L 1550.822076 187.617943 
L 1551.302812 190.367105 
L 1551.783548 185.363407 
L 1552.264284 201.619893 
L 1552.74502 205.95854 
L 1553.225756 204.757075 
L 1554.187229 197.160287 
L 1554.667965 201.716582 
L 1555.148701 210.061918 
L 1555.629437 198.535397 
L 1556.110173 192.720468 
L 1556.590909 189.751442 
L 1556.590909 189.751442 
" clip-path="url(#p0131f2e1cb)" style="fill: none; stroke: #f66caa; stroke-width: 2.5; stroke-linecap: square"/>
   </g>
   <g id="patch_3">
    <path d="M 225 320.4 
L 225 43.2 
" style="fill: none; stroke: #000000; stroke-width: 0.8; stroke-linejoin: miter; stroke-linecap: square"/>
   </g>
   <g id="patch_4">
    <path d="M 1620 320.4 
L 1620 43.2 
" style="fill: none; stroke: #000000; stroke-width: 0.8; stroke-linejoin: miter; stroke-linecap: square"/>
   </g>
   <g id="patch_5">
    <path d="M 225 320.4 
L 1620 320.4 
" style="fill: none; stroke: #000000; stroke-width: 0.8; stroke-linejoin: miter; stroke-linecap: square"/>
   </g>
   <g id="patch_6">
    <path d="M 225 43.2 
L 1620 43.2 
" style="fill: none; stroke: #000000; stroke-width: 0.8; stroke-linejoin: miter; stroke-linecap: square"/>
   </g>
   <g id="text_17">
    <!-- ASIA -->
    <g transform="translate(899.520313 37.2) scale(0.2 -0.2)">
     <defs>
      <path id="DejaVuSans-41" d="M 2188 4044 
L 1331 1722 
L 3047 1722 
L 2188 4044 
z
M 1831 4666 
L 2547 4666 
L 4325 0 
L 3669 0 
L 3244 1197 
L 1141 1197 
L 716 0 
L 50 0 
L 1831 4666 
z
" transform="scale(0.015625)"/>
      <path id="DejaVuSans-53" d="M 3425 4513 
L 3425 3897 
Q 3066 4069 2747 4153 
Q 2428 4238 2131 4238 
Q 1616 4238 1336 4038 
Q 1056 3838 1056 3469 
Q 1056 3159 1242 3001 
Q 1428 2844 1947 2747 
L 2328 2669 
Q 3034 2534 3370 2195 
Q 3706 1856 3706 1288 
Q 3706 609 3251 259 
Q 2797 -91 1919 -91 
Q 1588 -91 1214 -16 
Q 841 59 441 206 
L 441 856 
Q 825 641 1194 531 
Q 1563 422 1919 422 
Q 2459 422 2753 634 
Q 3047 847 3047 1241 
Q 3047 1584 2836 1778 
Q 2625 1972 2144 2069 
L 1759 2144 
Q 1053 2284 737 2584 
Q 422 2884 422 3419 
Q 422 4038 858 4394 
Q 1294 4750 2059 4750 
Q 2388 4750 2728 4690 
Q 3069 4631 3425 4513 
z
" transform="scale(0.015625)"/>
      <path id="DejaVuSans-49" d="M 628 4666 
L 1259 4666 
L 1259 0 
L 628 0 
L 628 4666 
z
" transform="scale(0.015625)"/>
     </defs>
     <use xlink:href="#DejaVuSans-41"/>
     <use xlink:href="#DejaVuSans-53" x="68.408203"/>
     <use xlink:href="#DejaVuSans-49" x="131.884766"/>
     <use xlink:href="#DejaVuSans-41" x="161.376953"/>
    </g>
   </g>
   <g id="legend_1">
    <g id="patch_7">
     <path d="M 1560.75625 65.878125 
L 1613 65.878125 
Q 1615 65.878125 1615 63.878125 
L 1615 50.2 
Q 1615 48.2 1613 48.2 
L 1560.75625 48.2 
Q 1558.75625 48.2 1558.75625 50.2 
L 1558.75625 63.878125 
Q 1558.75625 65.878125 1560.75625 65.878125 
z
" style="fill: #ffffff; opacity: 0.8; stroke: #cccccc; stroke-linejoin: miter"/>
    </g>
    <g id="line2d_16">
     <path d="M 1562.75625 56.298437 
L 1572.75625 56.298437 
L 1582.75625 56.298437 
" style="fill: none; stroke: #f66caa; stroke-width: 2.5; stroke-linecap: square"/>
    </g>
    <g id="text_18">
     <!-- asia -->
     <g transform="translate(1590.75625 59.798437) scale(0.1 -0.1)">
      <defs>
       <path id="DejaVuSans-61" d="M 2194 1759 
Q 1497 1759 1228 1600 
Q 959 1441 959 1056 
Q 959 750 1161 570 
Q 1363 391 1709 391 
Q 2188 391 2477 730 
Q 2766 1069 2766 1631 
L 2766 1759 
L 2194 1759 
z
M 3341 1997 
L 3341 0 
L 2766 0 
L 2766 531 
Q 2569 213 2275 61 
Q 1981 -91 1556 -91 
Q 1019 -91 701 211 
Q 384 513 384 1019 
Q 384 1609 779 1909 
Q 1175 2209 1959 2209 
L 2766 2209 
L 2766 2266 
Q 2766 2663 2505 2880 
Q 2244 3097 1772 3097 
Q 1472 3097 1187 3025 
Q 903 2953 641 2809 
L 641 3341 
Q 956 3463 1253 3523 
Q 1550 3584 1831 3584 
Q 2591 3584 2966 3190 
Q 3341 2797 3341 1997 
z
" transform="scale(0.015625)"/>
       <path id="DejaVuSans-73" d="M 2834 3397 
L 2834 2853 
Q 2591 2978 2328 3040 
Q 2066 3103 1784 3103 
Q 1356 3103 1142 2972 
Q 928 2841 928 2578 
Q 928 2378 1081 2264 
Q 1234 2150 1697 2047 
L 1894 2003 
Q 2506 1872 2764 1633 
Q 3022 1394 3022 966 
Q 3022 478 2636 193 
Q 2250 -91 1575 -91 
Q 1294 -91 989 -36 
Q 684 19 347 128 
L 347 722 
Q 666 556 975 473 
Q 1284 391 1588 391 
Q 1994 391 2212 530 
Q 2431 669 2431 922 
Q 2431 1156 2273 1281 
Q 2116 1406 1581 1522 
L 1381 1569 
Q 847 1681 609 1914 
Q 372 2147 372 2553 
Q 372 3047 722 3315 
Q 1072 3584 1716 3584 
Q 2034 3584 2315 3537 
Q 2597 3491 2834 3397 
z
" transform="scale(0.015625)"/>
      </defs>
      <use xlink:href="#DejaVuSans-61"/>
      <use xlink:href="#DejaVuSans-73" x="61.279297"/>
      <use xlink:href="#DejaVuSans-69" x="113.378906"/>
      <use xlink:href="#DejaVuSans-61" x="141.162109"/>
     </g>
    </g>
   </g>
  </g>
 </g>
 <defs>
  <clipPath id="p0131f2e1cb">
   <rect x="225" y="43.2" width="1395" height="277.2"/>
  </clipPath>
 </defs>
</svg>
