<?xml version="1.0" encoding="utf-8" standalone="no"?>
<!DOCTYPE svg PUBLIC "-//W3C//DTD SVG 1.1//EN"
  "http://www.w3.org/Graphics/SVG/1.1/DTD/svg11.dtd">
<svg xmlns:xlink="http://www.w3.org/1999/xlink" width="1800pt" height="360pt" viewBox="0 0 1800 360" xmlns="http://www.w3.org/2000/svg" version="1.1">
 <metadata>
  <rdf:RDF xmlns:dc="http://purl.org/dc/elements/1.1/" xmlns:cc="http://creativecommons.org/ns#" xmlns:rdf="http://www.w3.org/1999/02/22-rdf-syntax-ns#">
   <cc:Work>
    <dc:type rdf:resource="http://purl.org/dc/dcmitype/StillImage"/>
    <dc:date>2024-03-25T15:23:12.537163</dc:date>
    <dc:format>image/svg+xml</dc:format>
    <dc:creator>
     <cc:Agent>
      <dc:title>Matplotlib v3.7.2, https://matplotlib.org/</dc:title>
     </cc:Agent>
    </dc:creator>
   </cc:Work>
  </rdf:RDF>
 </metadata>
 <defs>
  <style type="text/css">*{stroke-linejoin: round; stroke-linecap: butt}</style>
 </defs>
 <g id="figure_1">
  <g id="patch_1">
   <path d="M 0 360 
L 1800 360 
L 1800 0 
L 0 0 
z
" style="fill: #ffffff"/>
  </g>
  <g id="axes_1">
   <g id="patch_2">
    <path d="M 225 320.4 
L 1620 320.4 
L 1620 43.2 
L 225 43.2 
z
" style="fill: #ffffff"/>
   </g>
   <g id="matplotlib.axis_1">
    <g id="xtick_1">
     <g id="line2d_1">
      <defs>
       <path id="m3161244854" d="M 0 0 
L 0 3.5 
" style="stroke: #000000; stroke-width: 0.8"/>
      </defs>
      <g>
       <use xlink:href="#m3161244854" x="281.924597" y="320.4" style="stroke: #000000; stroke-width: 0.8"/>
      </g>
     </g>
     <g id="text_1">
      <!-- 2011 -->
      <g transform="translate(262.837097 338.797656) scale(0.15 -0.15)">
       <defs>
        <path id="DejaVuSans-32" d="M 1228 531 
L 3431 531 
L 3431 0 
L 469 0 
L 469 531 
Q 828 903 1448 1529 
Q 2069 2156 2228 2338 
Q 2531 2678 2651 2914 
Q 2772 3150 2772 3378 
Q 2772 3750 2511 3984 
Q 2250 4219 1831 4219 
Q 1534 4219 1204 4116 
Q 875 4013 500 3803 
L 500 4441 
Q 881 4594 1212 4672 
Q 1544 4750 1819 4750 
Q 2544 4750 2975 4387 
Q 3406 4025 3406 3419 
Q 3406 3131 3298 2873 
Q 3191 2616 2906 2266 
Q 2828 2175 2409 1742 
Q 1991 1309 1228 531 
z
" transform="scale(0.015625)"/>
        <path id="DejaVuSans-30" d="M 2034 4250 
Q 1547 4250 1301 3770 
Q 1056 3291 1056 2328 
Q 1056 1369 1301 889 
Q 1547 409 2034 409 
Q 2525 409 2770 889 
Q 3016 1369 3016 2328 
Q 3016 3291 2770 3770 
Q 2525 4250 2034 4250 
z
M 2034 4750 
Q 2819 4750 3233 4129 
Q 3647 3509 3647 2328 
Q 3647 1150 3233 529 
Q 2819 -91 2034 -91 
Q 1250 -91 836 529 
Q 422 1150 422 2328 
Q 422 3509 836 4129 
Q 1250 4750 2034 4750 
z
" transform="scale(0.015625)"/>
        <path id="DejaVuSans-31" d="M 794 531 
L 1825 531 
L 1825 4091 
L 703 3866 
L 703 4441 
L 1819 4666 
L 2450 4666 
L 2450 531 
L 3481 531 
L 3481 0 
L 794 0 
L 794 531 
z
" transform="scale(0.015625)"/>
       </defs>
       <use xlink:href="#DejaVuSans-32"/>
       <use xlink:href="#DejaVuSans-30" x="63.623047"/>
       <use xlink:href="#DejaVuSans-31" x="127.246094"/>
       <use xlink:href="#DejaVuSans-31" x="190.869141"/>
      </g>
     </g>
    </g>
    <g id="xtick_2">
     <g id="line2d_2">
      <g>
       <use xlink:href="#m3161244854" x="450.984627" y="320.4" style="stroke: #000000; stroke-width: 0.8"/>
      </g>
     </g>
     <g id="text_2">
      <!-- 2012 -->
      <g transform="translate(431.897127 338.797656) scale(0.15 -0.15)">
       <use xlink:href="#DejaVuSans-32"/>
       <use xlink:href="#DejaVuSans-30" x="63.623047"/>
       <use xlink:href="#DejaVuSans-31" x="127.246094"/>
       <use xlink:href="#DejaVuSans-32" x="190.869141"/>
      </g>
     </g>
    </g>
    <g id="xtick_3">
     <g id="line2d_3">
      <g>
       <use xlink:href="#m3161244854" x="620.507836" y="320.4" style="stroke: #000000; stroke-width: 0.8"/>
      </g>
     </g>
     <g id="text_3">
      <!-- 2013 -->
      <g transform="translate(601.420336 338.797656) scale(0.15 -0.15)">
       <defs>
        <path id="DejaVuSans-33" d="M 2597 2516 
Q 3050 2419 3304 2112 
Q 3559 1806 3559 1356 
Q 3559 666 3084 287 
Q 2609 -91 1734 -91 
Q 1441 -91 1130 -33 
Q 819 25 488 141 
L 488 750 
Q 750 597 1062 519 
Q 1375 441 1716 441 
Q 2309 441 2620 675 
Q 2931 909 2931 1356 
Q 2931 1769 2642 2001 
Q 2353 2234 1838 2234 
L 1294 2234 
L 1294 2753 
L 1863 2753 
Q 2328 2753 2575 2939 
Q 2822 3125 2822 3475 
Q 2822 3834 2567 4026 
Q 2313 4219 1838 4219 
Q 1578 4219 1281 4162 
Q 984 4106 628 3988 
L 628 4550 
Q 988 4650 1302 4700 
Q 1616 4750 1894 4750 
Q 2613 4750 3031 4423 
Q 3450 4097 3450 3541 
Q 3450 3153 3228 2886 
Q 3006 2619 2597 2516 
z
" transform="scale(0.015625)"/>
       </defs>
       <use xlink:href="#DejaVuSans-32"/>
       <use xlink:href="#DejaVuSans-30" x="63.623047"/>
       <use xlink:href="#DejaVuSans-31" x="127.246094"/>
       <use xlink:href="#DejaVuSans-33" x="190.869141"/>
      </g>
     </g>
    </g>
    <g id="xtick_4">
     <g id="line2d_4">
      <g>
       <use xlink:href="#m3161244854" x="789.567866" y="320.4" style="stroke: #000000; stroke-width: 0.8"/>
      </g>
     </g>
     <g id="text_4">
      <!-- 2014 -->
      <g transform="translate(770.480366 338.797656) scale(0.15 -0.15)">
       <defs>
        <path id="DejaVuSans-34" d="M 2419 4116 
L 825 1625 
L 2419 1625 
L 2419 4116 
z
M 2253 4666 
L 3047 4666 
L 3047 1625 
L 3713 1625 
L 3713 1100 
L 3047 1100 
L 3047 0 
L 2419 0 
L 2419 1100 
L 313 1100 
L 313 1709 
L 2253 4666 
z
" transform="scale(0.015625)"/>
       </defs>
       <use xlink:href="#DejaVuSans-32"/>
       <use xlink:href="#DejaVuSans-30" x="63.623047"/>
       <use xlink:href="#DejaVuSans-31" x="127.246094"/>
       <use xlink:href="#DejaVuSans-34" x="190.869141"/>
      </g>
     </g>
    </g>
    <g id="xtick_5">
     <g id="line2d_5">
      <g>
       <use xlink:href="#m3161244854" x="958.627897" y="320.4" style="stroke: #000000; stroke-width: 0.8"/>
      </g>
     </g>
     <g id="text_5">
      <!-- 2015 -->
      <g transform="translate(939.540397 338.797656) scale(0.15 -0.15)">
       <defs>
        <path id="DejaVuSans-35" d="M 691 4666 
L 3169 4666 
L 3169 4134 
L 1269 4134 
L 1269 2991 
Q 1406 3038 1543 3061 
Q 1681 3084 1819 3084 
Q 2600 3084 3056 2656 
Q 3513 2228 3513 1497 
Q 3513 744 3044 326 
Q 2575 -91 1722 -91 
Q 1428 -91 1123 -41 
Q 819 9 494 109 
L 494 744 
Q 775 591 1075 516 
Q 1375 441 1709 441 
Q 2250 441 2565 725 
Q 2881 1009 2881 1497 
Q 2881 1984 2565 2268 
Q 2250 2553 1709 2553 
Q 1456 2553 1204 2497 
Q 953 2441 691 2322 
L 691 4666 
z
" transform="scale(0.015625)"/>
       </defs>
       <use xlink:href="#DejaVuSans-32"/>
       <use xlink:href="#DejaVuSans-30" x="63.623047"/>
       <use xlink:href="#DejaVuSans-31" x="127.246094"/>
       <use xlink:href="#DejaVuSans-35" x="190.869141"/>
      </g>
     </g>
    </g>
    <g id="xtick_6">
     <g id="line2d_6">
      <g>
       <use xlink:href="#m3161244854" x="1127.687927" y="320.4" style="stroke: #000000; stroke-width: 0.8"/>
      </g>
     </g>
     <g id="text_6">
      <!-- 2016 -->
      <g transform="translate(1108.600427 338.797656) scale(0.15 -0.15)">
       <defs>
        <path id="DejaVuSans-36" d="M 2113 2584 
Q 1688 2584 1439 2293 
Q 1191 2003 1191 1497 
Q 1191 994 1439 701 
Q 1688 409 2113 409 
Q 2538 409 2786 701 
Q 3034 994 3034 1497 
Q 3034 2003 2786 2293 
Q 2538 2584 2113 2584 
z
M 3366 4563 
L 3366 3988 
Q 3128 4100 2886 4159 
Q 2644 4219 2406 4219 
Q 1781 4219 1451 3797 
Q 1122 3375 1075 2522 
Q 1259 2794 1537 2939 
Q 1816 3084 2150 3084 
Q 2853 3084 3261 2657 
Q 3669 2231 3669 1497 
Q 3669 778 3244 343 
Q 2819 -91 2113 -91 
Q 1303 -91 875 529 
Q 447 1150 447 2328 
Q 447 3434 972 4092 
Q 1497 4750 2381 4750 
Q 2619 4750 2861 4703 
Q 3103 4656 3366 4563 
z
" transform="scale(0.015625)"/>
       </defs>
       <use xlink:href="#DejaVuSans-32"/>
       <use xlink:href="#DejaVuSans-30" x="63.623047"/>
       <use xlink:href="#DejaVuSans-31" x="127.246094"/>
       <use xlink:href="#DejaVuSans-36" x="190.869141"/>
      </g>
     </g>
    </g>
    <g id="xtick_7">
     <g id="line2d_7">
      <g>
       <use xlink:href="#m3161244854" x="1297.211136" y="320.4" style="stroke: #000000; stroke-width: 0.8"/>
      </g>
     </g>
     <g id="text_7">
      <!-- 2017 -->
      <g transform="translate(1278.123636 338.797656) scale(0.15 -0.15)">
       <defs>
        <path id="DejaVuSans-37" d="M 525 4666 
L 3525 4666 
L 3525 4397 
L 1831 0 
L 1172 0 
L 2766 4134 
L 525 4134 
L 525 4666 
z
" transform="scale(0.015625)"/>
       </defs>
       <use xlink:href="#DejaVuSans-32"/>
       <use xlink:href="#DejaVuSans-30" x="63.623047"/>
       <use xlink:href="#DejaVuSans-31" x="127.246094"/>
       <use xlink:href="#DejaVuSans-37" x="190.869141"/>
      </g>
     </g>
    </g>
    <g id="xtick_8">
     <g id="line2d_8">
      <g>
       <use xlink:href="#m3161244854" x="1466.271167" y="320.4" style="stroke: #000000; stroke-width: 0.8"/>
      </g>
     </g>
     <g id="text_8">
      <!-- 2018 -->
      <g transform="translate(1447.183667 338.797656) scale(0.15 -0.15)">
       <defs>
        <path id="DejaVuSans-38" d="M 2034 2216 
Q 1584 2216 1326 1975 
Q 1069 1734 1069 1313 
Q 1069 891 1326 650 
Q 1584 409 2034 409 
Q 2484 409 2743 651 
Q 3003 894 3003 1313 
Q 3003 1734 2745 1975 
Q 2488 2216 2034 2216 
z
M 1403 2484 
Q 997 2584 770 2862 
Q 544 3141 544 3541 
Q 544 4100 942 4425 
Q 1341 4750 2034 4750 
Q 2731 4750 3128 4425 
Q 3525 4100 3525 3541 
Q 3525 3141 3298 2862 
Q 3072 2584 2669 2484 
Q 3125 2378 3379 2068 
Q 3634 1759 3634 1313 
Q 3634 634 3220 271 
Q 2806 -91 2034 -91 
Q 1263 -91 848 271 
Q 434 634 434 1313 
Q 434 1759 690 2068 
Q 947 2378 1403 2484 
z
M 1172 3481 
Q 1172 3119 1398 2916 
Q 1625 2713 2034 2713 
Q 2441 2713 2670 2916 
Q 2900 3119 2900 3481 
Q 2900 3844 2670 4047 
Q 2441 4250 2034 4250 
Q 1625 4250 1398 4047 
Q 1172 3844 1172 3481 
z
" transform="scale(0.015625)"/>
       </defs>
       <use xlink:href="#DejaVuSans-32"/>
       <use xlink:href="#DejaVuSans-30" x="63.623047"/>
       <use xlink:href="#DejaVuSans-31" x="127.246094"/>
       <use xlink:href="#DejaVuSans-38" x="190.869141"/>
      </g>
     </g>
    </g>
    <g id="text_9">
     <!-- Time -->
     <g transform="translate(904.149609 357.314844) scale(0.15 -0.15)">
      <defs>
       <path id="DejaVuSans-54" d="M -19 4666 
L 3928 4666 
L 3928 4134 
L 2272 4134 
L 2272 0 
L 1638 0 
L 1638 4134 
L -19 4134 
L -19 4666 
z
" transform="scale(0.015625)"/>
       <path id="DejaVuSans-69" d="M 603 3500 
L 1178 3500 
L 1178 0 
L 603 0 
L 603 3500 
z
M 603 4863 
L 1178 4863 
L 1178 4134 
L 603 4134 
L 603 4863 
z
" transform="scale(0.015625)"/>
       <path id="DejaVuSans-6d" d="M 3328 2828 
Q 3544 3216 3844 3400 
Q 4144 3584 4550 3584 
Q 5097 3584 5394 3201 
Q 5691 2819 5691 2113 
L 5691 0 
L 5113 0 
L 5113 2094 
Q 5113 2597 4934 2840 
Q 4756 3084 4391 3084 
Q 3944 3084 3684 2787 
Q 3425 2491 3425 1978 
L 3425 0 
L 2847 0 
L 2847 2094 
Q 2847 2600 2669 2842 
Q 2491 3084 2119 3084 
Q 1678 3084 1418 2786 
Q 1159 2488 1159 1978 
L 1159 0 
L 581 0 
L 581 3500 
L 1159 3500 
L 1159 2956 
Q 1356 3278 1631 3431 
Q 1906 3584 2284 3584 
Q 2666 3584 2933 3390 
Q 3200 3197 3328 2828 
z
" transform="scale(0.015625)"/>
       <path id="DejaVuSans-65" d="M 3597 1894 
L 3597 1613 
L 953 1613 
Q 991 1019 1311 708 
Q 1631 397 2203 397 
Q 2534 397 2845 478 
Q 3156 559 3463 722 
L 3463 178 
Q 3153 47 2828 -22 
Q 2503 -91 2169 -91 
Q 1331 -91 842 396 
Q 353 884 353 1716 
Q 353 2575 817 3079 
Q 1281 3584 2069 3584 
Q 2775 3584 3186 3129 
Q 3597 2675 3597 1894 
z
M 3022 2063 
Q 3016 2534 2758 2815 
Q 2500 3097 2075 3097 
Q 1594 3097 1305 2825 
Q 1016 2553 972 2059 
L 3022 2063 
z
" transform="scale(0.015625)"/>
      </defs>
      <use xlink:href="#DejaVuSans-54"/>
      <use xlink:href="#DejaVuSans-69" x="57.958984"/>
      <use xlink:href="#DejaVuSans-6d" x="85.742188"/>
      <use xlink:href="#DejaVuSans-65" x="183.154297"/>
     </g>
    </g>
   </g>
   <g id="matplotlib.axis_2">
    <g id="ytick_1">
     <g id="line2d_9">
      <defs>
       <path id="m2c38cf9998" d="M 0 0 
L -3.5 0 
" style="stroke: #000000; stroke-width: 0.8"/>
      </defs>
      <g>
       <use xlink:href="#m2c38cf9998" x="225" y="312.776478" style="stroke: #000000; stroke-width: 0.8"/>
      </g>
     </g>
     <g id="text_10">
      <!-- −0.006 -->
      <g transform="translate(162.488281 318.475306) scale(0.15 -0.15)">
       <defs>
        <path id="DejaVuSans-2212" d="M 678 2272 
L 4684 2272 
L 4684 1741 
L 678 1741 
L 678 2272 
z
" transform="scale(0.015625)"/>
        <path id="DejaVuSans-2e" d="M 684 794 
L 1344 794 
L 1344 0 
L 684 0 
L 684 794 
z
" transform="scale(0.015625)"/>
       </defs>
       <use xlink:href="#DejaVuSans-2212"/>
       <use xlink:href="#DejaVuSans-30" x="83.789062"/>
       <use xlink:href="#DejaVuSans-2e" x="147.412109"/>
       <use xlink:href="#DejaVuSans-30" x="179.199219"/>
       <use xlink:href="#DejaVuSans-30" x="242.822266"/>
       <use xlink:href="#DejaVuSans-36" x="306.445312"/>
      </g>
     </g>
    </g>
    <g id="ytick_2">
     <g id="line2d_10">
      <g>
       <use xlink:href="#m2c38cf9998" x="225" y="270.828226" style="stroke: #000000; stroke-width: 0.8"/>
      </g>
     </g>
     <g id="text_11">
      <!-- −0.004 -->
      <g transform="translate(162.488281 276.527055) scale(0.15 -0.15)">
       <use xlink:href="#DejaVuSans-2212"/>
       <use xlink:href="#DejaVuSans-30" x="83.789062"/>
       <use xlink:href="#DejaVuSans-2e" x="147.412109"/>
       <use xlink:href="#DejaVuSans-30" x="179.199219"/>
       <use xlink:href="#DejaVuSans-30" x="242.822266"/>
       <use xlink:href="#DejaVuSans-34" x="306.445312"/>
      </g>
     </g>
    </g>
    <g id="ytick_3">
     <g id="line2d_11">
      <g>
       <use xlink:href="#m2c38cf9998" x="225" y="228.879975" style="stroke: #000000; stroke-width: 0.8"/>
      </g>
     </g>
     <g id="text_12">
      <!-- −0.002 -->
      <g transform="translate(162.488281 234.578803) scale(0.15 -0.15)">
       <use xlink:href="#DejaVuSans-2212"/>
       <use xlink:href="#DejaVuSans-30" x="83.789062"/>
       <use xlink:href="#DejaVuSans-2e" x="147.412109"/>
       <use xlink:href="#DejaVuSans-30" x="179.199219"/>
       <use xlink:href="#DejaVuSans-30" x="242.822266"/>
       <use xlink:href="#DejaVuSans-32" x="306.445312"/>
      </g>
     </g>
    </g>
    <g id="ytick_4">
     <g id="line2d_12">
      <g>
       <use xlink:href="#m2c38cf9998" x="225" y="186.931724" style="stroke: #000000; stroke-width: 0.8"/>
      </g>
     </g>
     <g id="text_13">
      <!-- 0.000 -->
      <g transform="translate(175.057813 192.630552) scale(0.15 -0.15)">
       <use xlink:href="#DejaVuSans-30"/>
       <use xlink:href="#DejaVuSans-2e" x="63.623047"/>
       <use xlink:href="#DejaVuSans-30" x="95.410156"/>
       <use xlink:href="#DejaVuSans-30" x="159.033203"/>
       <use xlink:href="#DejaVuSans-30" x="222.65625"/>
      </g>
     </g>
    </g>
    <g id="ytick_5">
     <g id="line2d_13">
      <g>
       <use xlink:href="#m2c38cf9998" x="225" y="144.983473" style="stroke: #000000; stroke-width: 0.8"/>
      </g>
     </g>
     <g id="text_14">
      <!-- 0.002 -->
      <g transform="translate(175.057813 150.682301) scale(0.15 -0.15)">
       <use xlink:href="#DejaVuSans-30"/>
       <use xlink:href="#DejaVuSans-2e" x="63.623047"/>
       <use xlink:href="#DejaVuSans-30" x="95.410156"/>
       <use xlink:href="#DejaVuSans-30" x="159.033203"/>
       <use xlink:href="#DejaVuSans-32" x="222.65625"/>
      </g>
     </g>
    </g>
    <g id="ytick_6">
     <g id="line2d_14">
      <g>
       <use xlink:href="#m2c38cf9998" x="225" y="103.035222" style="stroke: #000000; stroke-width: 0.8"/>
      </g>
     </g>
     <g id="text_15">
      <!-- 0.004 -->
      <g transform="translate(175.057813 108.73405) scale(0.15 -0.15)">
       <use xlink:href="#DejaVuSans-30"/>
       <use xlink:href="#DejaVuSans-2e" x="63.623047"/>
       <use xlink:href="#DejaVuSans-30" x="95.410156"/>
       <use xlink:href="#DejaVuSans-30" x="159.033203"/>
       <use xlink:href="#DejaVuSans-34" x="222.65625"/>
      </g>
     </g>
    </g>
    <g id="ytick_7">
     <g id="line2d_15">
      <g>
       <use xlink:href="#m2c38cf9998" x="225" y="61.08697" style="stroke: #000000; stroke-width: 0.8"/>
      </g>
     </g>
     <g id="text_16">
      <!-- 0.006 -->
      <g transform="translate(175.057813 66.785799) scale(0.15 -0.15)">
       <use xlink:href="#DejaVuSans-30"/>
       <use xlink:href="#DejaVuSans-2e" x="63.623047"/>
       <use xlink:href="#DejaVuSans-30" x="95.410156"/>
       <use xlink:href="#DejaVuSans-30" x="159.033203"/>
       <use xlink:href="#DejaVuSans-36" x="222.65625"/>
      </g>
     </g>
    </g>
    <g id="text_17">
     <!-- North(m) -->
     <g transform="translate(155.36875 215.934375) rotate(-90) scale(0.15 -0.15)">
      <defs>
       <path id="DejaVuSans-4e" d="M 628 4666 
L 1478 4666 
L 3547 763 
L 3547 4666 
L 4159 4666 
L 4159 0 
L 3309 0 
L 1241 3903 
L 1241 0 
L 628 0 
L 628 4666 
z
" transform="scale(0.015625)"/>
       <path id="DejaVuSans-6f" d="M 1959 3097 
Q 1497 3097 1228 2736 
Q 959 2375 959 1747 
Q 959 1119 1226 758 
Q 1494 397 1959 397 
Q 2419 397 2687 759 
Q 2956 1122 2956 1747 
Q 2956 2369 2687 2733 
Q 2419 3097 1959 3097 
z
M 1959 3584 
Q 2709 3584 3137 3096 
Q 3566 2609 3566 1747 
Q 3566 888 3137 398 
Q 2709 -91 1959 -91 
Q 1206 -91 779 398 
Q 353 888 353 1747 
Q 353 2609 779 3096 
Q 1206 3584 1959 3584 
z
" transform="scale(0.015625)"/>
       <path id="DejaVuSans-72" d="M 2631 2963 
Q 2534 3019 2420 3045 
Q 2306 3072 2169 3072 
Q 1681 3072 1420 2755 
Q 1159 2438 1159 1844 
L 1159 0 
L 581 0 
L 581 3500 
L 1159 3500 
L 1159 2956 
Q 1341 3275 1631 3429 
Q 1922 3584 2338 3584 
Q 2397 3584 2469 3576 
Q 2541 3569 2628 3553 
L 2631 2963 
z
" transform="scale(0.015625)"/>
       <path id="DejaVuSans-74" d="M 1172 4494 
L 1172 3500 
L 2356 3500 
L 2356 3053 
L 1172 3053 
L 1172 1153 
Q 1172 725 1289 603 
Q 1406 481 1766 481 
L 2356 481 
L 2356 0 
L 1766 0 
Q 1100 0 847 248 
Q 594 497 594 1153 
L 594 3053 
L 172 3053 
L 172 3500 
L 594 3500 
L 594 4494 
L 1172 4494 
z
" transform="scale(0.015625)"/>
       <path id="DejaVuSans-68" d="M 3513 2113 
L 3513 0 
L 2938 0 
L 2938 2094 
Q 2938 2591 2744 2837 
Q 2550 3084 2163 3084 
Q 1697 3084 1428 2787 
Q 1159 2491 1159 1978 
L 1159 0 
L 581 0 
L 581 4863 
L 1159 4863 
L 1159 2956 
Q 1366 3272 1645 3428 
Q 1925 3584 2291 3584 
Q 2894 3584 3203 3211 
Q 3513 2838 3513 2113 
z
" transform="scale(0.015625)"/>
       <path id="DejaVuSans-28" d="M 1984 4856 
Q 1566 4138 1362 3434 
Q 1159 2731 1159 2009 
Q 1159 1288 1364 580 
Q 1569 -128 1984 -844 
L 1484 -844 
Q 1016 -109 783 600 
Q 550 1309 550 2009 
Q 550 2706 781 3412 
Q 1013 4119 1484 4856 
L 1984 4856 
z
" transform="scale(0.015625)"/>
       <path id="DejaVuSans-29" d="M 513 4856 
L 1013 4856 
Q 1481 4119 1714 3412 
Q 1947 2706 1947 2009 
Q 1947 1309 1714 600 
Q 1481 -109 1013 -844 
L 513 -844 
Q 928 -128 1133 580 
Q 1338 1288 1338 2009 
Q 1338 2731 1133 3434 
Q 928 4138 513 4856 
z
" transform="scale(0.015625)"/>
      </defs>
      <use xlink:href="#DejaVuSans-4e"/>
      <use xlink:href="#DejaVuSans-6f" x="74.804688"/>
      <use xlink:href="#DejaVuSans-72" x="135.986328"/>
      <use xlink:href="#DejaVuSans-74" x="177.099609"/>
      <use xlink:href="#DejaVuSans-68" x="216.308594"/>
      <use xlink:href="#DejaVuSans-28" x="279.6875"/>
      <use xlink:href="#DejaVuSans-6d" x="318.701172"/>
      <use xlink:href="#DejaVuSans-29" x="416.113281"/>
     </g>
    </g>
   </g>
   <g id="line2d_16">
    <path d="M 288.409091 83.361405 
L 288.872269 79.464162 
L 290.261804 64.391404 
L 290.724982 58.296073 
L 291.18816 57.91649 
L 291.651338 55.8 
L 292.114516 57.159222 
L 293.040873 68.677809 
L 293.967229 79.782907 
L 294.430407 81.621537 
L 294.893585 87.136632 
L 295.356763 90.185769 
L 295.819942 85.075971 
L 296.28312 83.804438 
L 296.746298 85.034819 
L 297.209476 87.328888 
L 297.672654 91.465683 
L 298.135832 92.438382 
L 298.599011 90.693433 
L 299.062189 91.600213 
L 299.525367 95.356477 
L 299.988545 95.87973 
L 300.451723 93.337765 
L 300.914901 91.772594 
L 301.37808 89.272577 
L 301.841258 84.513347 
L 302.304436 84.988659 
L 302.767614 89.682767 
L 303.230792 86.496596 
L 303.69397 86.519466 
L 304.157149 85.182015 
L 304.620327 80.704437 
L 305.083505 84.64048 
L 305.546683 90.640976 
L 306.009861 83.011287 
L 306.473039 79.141959 
L 306.936218 85.738719 
L 307.399396 83.247691 
L 307.862574 82.952953 
L 308.325752 79.284377 
L 308.78893 71.699632 
L 309.252108 73.780963 
L 309.715287 77.450335 
L 310.178465 75.849209 
L 310.641643 82.365069 
L 311.104821 87.235959 
L 311.567999 97.104683 
L 312.494356 109.591077 
L 312.957534 114.156343 
L 313.420712 120.34261 
L 313.88389 122.253152 
L 314.347068 126.776471 
L 315.273425 139.053123 
L 315.736603 135.222747 
L 316.199781 134.490548 
L 317.126137 120.995993 
L 317.589315 116.785086 
L 318.052494 102.419706 
L 318.515672 92.881372 
L 318.97885 91.750665 
L 319.442028 88.168982 
L 319.905206 90.08252 
L 320.831563 106.221408 
L 321.757919 116.646344 
L 322.221097 117.792829 
L 322.684275 119.62247 
L 323.147453 122.554751 
L 323.610632 120.648002 
L 324.07381 114.579387 
L 324.536988 117.215034 
L 325.000166 117.591468 
L 325.463344 119.936474 
L 325.926522 125.151939 
L 326.389701 131.868551 
L 330.095126 128.523576 
L 330.558304 132.735279 
L 331.947839 133.308369 
L 332.411017 128.728917 
L 333.337373 130.318854 
L 333.800551 125.553632 
L 334.263729 129.699416 
L 335.190086 117.825861 
L 335.653264 116.050949 
L 336.116442 115.711266 
L 336.57962 107.81191 
L 337.042798 102.902864 
L 337.505976 103.123491 
L 337.969155 105.459507 
L 338.432333 102.420155 
L 338.895511 103.368884 
L 339.358689 110.451045 
L 339.821867 121.647132 
L 340.748224 122.244193 
L 341.211402 125.314304 
L 341.67458 133.577009 
L 342.137758 134.576675 
L 342.600936 132.765807 
L 343.064114 130.304742 
L 343.527293 129.746329 
L 343.990471 132.570743 
L 344.453649 133.058041 
L 344.916827 138.45628 
L 345.843183 141.576228 
L 346.306362 141.242538 
L 346.76954 145.133637 
L 347.232718 145.596964 
L 347.695896 149.503044 
L 348.622252 139.708923 
L 349.085431 143.369306 
L 349.548609 143.362213 
L 350.011787 148.565693 
L 350.474965 147.390042 
L 350.938143 142.747667 
L 351.401321 142.61473 
L 351.8645 148.177766 
L 352.327678 143.65824 
L 352.790856 145.733578 
L 353.254034 137.735343 
L 353.717212 136.5537 
L 354.18039 130.871608 
L 354.643569 133.393395 
L 355.106747 134.716662 
L 355.569925 137.804751 
L 356.033103 137.054575 
L 356.496281 137.128382 
L 356.959459 139.425447 
L 357.422638 148.500151 
L 357.885816 149.080333 
L 358.348994 143.008722 
L 358.812172 143.708757 
L 359.27535 142.11662 
L 359.738528 148.98904 
L 360.201707 151.372998 
L 360.664885 154.359213 
L 361.128063 162.22341 
L 361.591241 155.378752 
L 362.517597 165.941519 
L 362.980776 165.496966 
L 363.443954 159.964689 
L 363.907132 157.084141 
L 364.37031 160.924302 
L 364.833488 168.072383 
L 365.759845 147.033134 
L 366.223023 149.294244 
L 366.686201 155.087995 
L 367.149379 152.776745 
L 367.612557 138.165668 
L 368.075735 146.680063 
L 368.538914 151.652827 
L 369.002092 150.63598 
L 369.46527 149.019872 
L 369.928448 144.922825 
L 370.391626 150.123308 
L 370.854804 152.078794 
L 371.317983 149.482895 
L 371.781161 143.03375 
L 372.244339 156.596916 
L 372.707517 166.273877 
L 373.170695 168.894543 
L 373.633873 163.4971 
L 374.097052 170.318583 
L 374.56023 167.045519 
L 375.023408 174.29847 
L 375.486586 170.33326 
L 377.339299 148.179387 
L 377.802477 155.081771 
L 378.265655 152.207216 
L 378.728833 159.091621 
L 379.192011 155.76762 
L 379.65519 154.541032 
L 380.118368 158.534005 
L 380.581546 168.510596 
L 381.507902 164.463386 
L 381.97108 159.308644 
L 382.434259 164.146574 
L 382.897437 167.809953 
L 383.360615 173.828427 
L 383.823793 173.761408 
L 384.286971 168.795433 
L 384.750149 161.402452 
L 385.213328 160.517442 
L 385.676506 160.468401 
L 386.139684 162.64861 
L 387.06604 151.661961 
L 387.529218 156.338091 
L 387.992397 166.290712 
L 388.455575 166.846924 
L 388.918753 162.489198 
L 389.381931 154.386093 
L 389.845109 153.758766 
L 390.308287 153.586876 
L 390.771466 148.234378 
L 391.234644 148.916435 
L 391.697822 148.834435 
L 392.161 156.713613 
L 392.624178 162.138819 
L 393.550535 177.384808 
L 394.013713 189.962191 
L 394.476891 187.725848 
L 394.940069 194.649206 
L 395.403247 195.172459 
L 395.866425 192.786301 
L 396.329604 196.956056 
L 397.25596 192.147785 
L 397.719138 203.379827 
L 398.645494 208.054857 
L 399.108673 218.489882 
L 399.571851 216.846808 
L 400.035029 217.564821 
L 400.498207 211.870744 
L 400.961385 211.363268 
L 401.424563 212.866313 
L 401.887742 209.011966 
L 402.35092 211.395924 
L 402.814098 209.453219 
L 403.277276 217.551127 
L 403.740454 228.983922 
L 404.203632 222.94527 
L 404.666811 221.056499 
L 405.129989 224.06968 
L 405.593167 215.256451 
L 406.056345 216.474847 
L 406.519523 209.105836 
L 406.982701 205.095681 
L 407.44588 203.003161 
L 407.909058 202.918165 
L 408.372236 203.863897 
L 408.835414 205.175178 
L 409.298592 204.119379 
L 409.76177 203.63887 
L 410.224949 206.613099 
L 410.688127 215.636866 
L 411.151305 216.795335 
L 411.614483 217.048921 
L 412.540839 233.04099 
L 413.004018 241.938912 
L 413.467196 237.356463 
L 413.930374 230.955259 
L 414.393552 232.733963 
L 414.85673 235.279721 
L 416.246265 229.256847 
L 417.172621 238.336443 
L 417.635799 237.04094 
L 418.098977 237.375426 
L 418.562156 239.103193 
L 419.025334 240.174769 
L 419.488512 240.329477 
L 419.95169 236.565019 
L 420.878046 235.891647 
L 421.804403 228.602437 
L 422.267581 225.685933 
L 422.730759 223.623376 
L 423.193937 223.020019 
L 423.657115 223.429413 
L 424.120294 224.857549 
L 424.583472 227.610052 
L 425.04665 215.665686 
L 425.973006 199.114901 
L 426.436184 195.176657 
L 427.362541 179.806416 
L 427.825719 171.110043 
L 428.288897 174.836344 
L 428.752075 174.922137 
L 429.215253 174.702307 
L 429.678432 170.086899 
L 430.14161 172.869365 
L 430.604788 170.830778 
L 431.067966 169.71805 
L 431.531144 169.483238 
L 431.994322 164.792923 
L 432.4575 162.742351 
L 433.383857 169.833501 
L 433.847035 163.258511 
L 434.310213 166.358585 
L 434.773391 166.009914 
L 435.236569 168.76841 
L 435.699748 170.382317 
L 436.162926 173.326584 
L 436.626104 166.634738 
L 437.089282 171.532594 
L 437.55246 173.616921 
L 438.015638 181.660896 
L 438.478817 180.802854 
L 438.941995 195.720349 
L 439.405173 203.572561 
L 439.868351 207.766286 
L 440.331529 208.990674 
L 441.721064 207.528174 
L 442.184242 199.661777 
L 442.64742 199.891392 
L 443.110598 198.802634 
L 443.573776 198.046465 
L 444.036955 192.154632 
L 444.500133 184.767644 
L 444.963311 184.350057 
L 445.426489 179.692701 
L 445.889667 167.373797 
L 446.352845 163.399598 
L 446.816024 157.885299 
L 447.279202 161.770405 
L 448.205558 162.8259 
L 448.668736 159.05545 
L 449.131914 164.648449 
L 449.595093 164.99492 
L 450.058271 169.61412 
L 450.521449 168.021983 
L 450.984627 170.483845 
L 451.447805 168.568106 
L 451.910983 174.925163 
L 452.374162 173.659622 
L 452.83734 180.618936 
L 453.300518 178.987847 
L 454.226874 178.194622 
L 454.690052 170.016609 
L 455.153231 163.918031 
L 455.616409 166.370904 
L 456.079587 165.563798 
L 456.542765 160.615801 
L 457.005943 163.125603 
L 457.469121 158.836793 
L 457.9323 163.279211 
L 458.395478 166.568052 
L 459.321834 154.778393 
L 459.785012 152.814714 
L 460.24819 144.334075 
L 460.711369 142.604108 
L 461.174547 143.426991 
L 461.637725 138.317193 
L 462.100903 138.570779 
L 463.027259 141.232293 
L 463.490438 141.566779 
L 463.953616 138.104948 
L 464.416794 136.479851 
L 464.879972 138.546201 
L 465.34315 139.611785 
L 465.806328 139.997208 
L 466.269507 143.39092 
L 466.732685 144.98685 
L 467.195863 152.806102 
L 467.659041 154.668703 
L 468.122219 157.331317 
L 468.585397 157.32722 
L 469.048576 158.584568 
L 469.511754 161.816479 
L 469.974932 169.602772 
L 470.43811 171.971749 
L 470.901288 184.654002 
L 471.827645 200.328462 
L 472.290823 208.300526 
L 472.754001 210.897222 
L 473.217179 210.665406 
L 473.680357 212.587933 
L 474.143535 203.439118 
L 474.606714 200.025228 
L 475.069892 199.544719 
L 475.53307 196.232704 
L 475.996248 198.760484 
L 476.459426 206.894348 
L 476.922604 201.628743 
L 478.312139 224.622073 
L 478.775317 226.823256 
L 479.238495 235.07098 
L 479.701673 235.714085 
L 480.164852 251.893025 
L 480.62803 256.398365 
L 481.091208 250.758222 
L 481.554386 248.021497 
L 482.017564 250.10882 
L 482.480742 248.15413 
L 482.943921 249.714104 
L 483.407099 249.194644 
L 483.870277 250.751621 
L 484.333455 251.733309 
L 485.259811 255.162976 
L 485.72299 261.325273 
L 486.186168 263.784138 
L 486.649346 265.194297 
L 487.112524 262.667313 
L 487.575702 261.263943 
L 488.03888 265.080134 
L 488.502059 260.569597 
L 489.428415 245.546926 
L 489.891593 236.122451 
L 490.354771 230.248596 
L 490.817949 226.987517 
L 491.281128 224.993875 
L 491.744306 232.201882 
L 492.207484 235.038281 
L 492.670662 242.402096 
L 493.13384 244.303648 
L 493.597018 251.146106 
L 494.060197 255.324849 
L 494.986553 259.589386 
L 495.449731 267.013126 
L 495.912909 264.899632 
L 496.376087 266.474588 
L 496.839266 272.019646 
L 497.302444 269.69641 
L 497.765622 277.093184 
L 498.691978 269.258646 
L 499.155156 270.030592 
L 499.618335 274.44904 
L 500.544691 262.885204 
L 501.007869 265.155302 
L 501.471047 258.286674 
L 501.934225 255.256311 
L 502.397404 255.40203 
L 502.860582 253.588166 
L 503.32376 249.434189 
L 503.786938 251.440612 
L 504.250116 245.288101 
L 504.713294 236.504835 
L 506.102829 218.101234 
L 508.41872 221.569853 
L 510.271432 203.727661 
L 510.734611 206.174541 
L 511.197789 212.711376 
L 513.050501 207.922182 
L 513.976858 210.03048 
L 514.440036 193.226109 
L 514.903214 205.045427 
L 515.82957 209.618582 
L 516.292749 201.548437 
L 516.755927 207.429081 
L 517.219105 200.91102 
L 517.682283 208.898066 
L 518.145461 197.064562 
L 518.608639 190.965984 
L 519.534996 184.795495 
L 519.998174 188.674608 
L 520.461352 187.516935 
L 520.92453 185.154748 
L 521.387708 186.364154 
L 521.850887 194.354196 
L 522.314065 197.690978 
L 523.240421 191.123877 
L 523.703599 190.646364 
L 524.166777 195.667069 
L 524.629956 198.872014 
L 525.093134 208.057581 
L 525.556312 207.92764 
L 526.01949 214.99482 
L 526.482668 216.935325 
L 526.945846 211.151359 
L 527.409025 209.831885 
L 527.872203 209.725914 
L 528.335381 204.697016 
L 528.798559 208.648041 
L 529.261737 206.103079 
L 529.724915 202.068954 
L 530.188093 202.795956 
L 530.651272 199.918404 
L 531.11445 199.97723 
L 531.577628 200.719214 
L 532.040806 193.625863 
L 532.967162 199.712152 
L 533.430341 198.878079 
L 533.893519 206.790217 
L 534.356697 202.768077 
L 534.819875 203.04863 
L 535.283053 208.425895 
L 535.746231 206.444238 
L 536.20941 213.574341 
L 537.135766 206.129322 
L 537.598944 200.168574 
L 538.062122 199.502295 
L 538.5253 199.639025 
L 538.988479 202.463439 
L 539.451657 195.924404 
L 539.914835 206.674042 
L 540.378013 205.099882 
L 540.841191 212.421748 
L 541.304369 214.002696 
L 541.767548 207.412725 
L 542.230726 205.892499 
L 542.693904 210.224054 
L 543.157082 208.586972 
L 544.083438 224.83073 
L 544.546617 221.929208 
L 545.009795 227.228569 
L 545.472973 231.029778 
L 545.936151 233.392762 
L 546.399329 230.958663 
L 547.325686 224.73314 
L 547.788864 227.37478 
L 548.252042 233.102613 
L 549.178398 230.493628 
L 550.104755 247.64227 
L 551.031111 245.41082 
L 551.494289 245.020201 
L 551.957467 241.453499 
L 552.883824 248.118075 
L 553.347002 237.327285 
L 553.81018 236.613065 
L 554.273358 234.247881 
L 554.736536 236.062541 
L 555.199714 243.995653 
L 555.662893 243.676945 
L 556.126071 245.38973 
L 557.052427 255.521029 
L 557.515605 263.915572 
L 557.978783 265.523487 
L 558.441962 271.167423 
L 558.90514 266.725801 
L 559.368318 266.002591 
L 559.831496 270.142383 
L 560.294674 267.079061 
L 560.757852 268.315434 
L 561.221031 260.218321 
L 561.684209 255.282309 
L 562.147387 266.151799 
L 562.610565 262.776861 
L 563.073743 262.413208 
L 563.536921 264.326746 
L 564.0001 259.180992 
L 564.463278 268.821998 
L 564.926456 271.107077 
L 565.389634 265.931361 
L 565.852812 271.92886 
L 566.31599 274.082103 
L 566.779169 283.150814 
L 567.242347 295.194854 
L 567.705525 298.783326 
L 568.631881 307.8 
L 569.095059 307.169676 
L 569.558238 303.977513 
L 570.021416 298.601044 
L 570.484594 296.26882 
L 570.947772 300.525467 
L 571.41095 298.298113 
L 571.874128 298.707507 
L 572.337307 297.319118 
L 572.800485 304.446224 
L 573.263663 307.744055 
L 573.726841 305.855283 
L 574.190019 301.955992 
L 574.653197 299.49193 
L 575.116376 294.939445 
L 575.579554 295.852218 
L 576.042732 291.776145 
L 576.50591 286.079071 
L 576.969088 285.343877 
L 577.432266 274.571065 
L 577.895445 267.393818 
L 578.358623 266.140263 
L 578.821801 267.658289 
L 579.284979 262.991944 
L 580.211335 260.491926 
L 580.674514 265.989043 
L 581.137692 270.038946 
L 581.60087 270.930744 
L 582.064048 269.521382 
L 582.527226 262.601816 
L 582.990404 257.833597 
L 583.453583 259.558368 
L 584.379939 241.43752 
L 584.843117 242.131562 
L 585.306295 244.773202 
L 585.769473 243.588562 
L 586.232652 245.843678 
L 586.69583 239.709145 
L 587.159008 235.324452 
L 587.622186 242.259795 
L 588.085364 239.6609 
L 588.548542 239.21335 
L 589.011721 236.135046 
L 589.474899 238.375182 
L 589.938077 241.99062 
L 590.401255 239.721318 
L 590.864433 241.520996 
L 591.327611 242.484706 
L 591.79079 237.38989 
L 592.253968 235.495126 
L 592.717146 230.40031 
L 593.180324 231.268138 
L 593.643502 237.058892 
L 594.10668 237.279519 
L 595.033037 233.633813 
L 595.496215 231.772009 
L 595.959393 226.488425 
L 596.422571 217.20178 
L 597.348928 188.911477 
L 599.664818 153.453712 
L 600.127997 153.578457 
L 600.591175 160.004428 
L 601.054353 157.863967 
L 601.517531 153.500249 
L 601.980709 155.80031 
L 602.443887 157.060654 
L 602.907066 161.646894 
L 603.370244 160.447273 
L 603.833422 152.724698 
L 604.2966 146.871817 
L 604.759778 137.702028 
L 605.222956 135.51063 
L 605.686135 131.605346 
L 606.149313 124.604881 
L 606.612491 123.20151 
L 607.538847 130.703155 
L 608.465204 148.678777 
L 608.928382 151.709936 
L 609.39156 147.163443 
L 610.317916 147.234254 
L 610.781094 145.159712 
L 611.244273 139.504587 
L 611.707451 135.224765 
L 612.170629 143.115929 
L 612.633807 139.270571 
L 613.560163 149.461796 
L 614.023342 152.091451 
L 614.48652 149.789189 
L 614.949698 149.865993 
L 615.412876 142.541927 
L 615.876054 150.187394 
L 616.339232 144.154735 
L 616.802411 149.534996 
L 617.265589 153.426094 
L 617.728767 158.395862 
L 618.655123 174.510779 
L 619.118301 171.25869 
L 619.58148 181.618808 
L 620.044658 180.380234 
L 620.507836 180.678764 
L 620.971014 176.740521 
L 621.89737 172.002265 
L 622.360549 164.261713 
L 622.823727 153.318112 
L 623.286905 151.090758 
L 623.750083 153.010288 
L 624.213261 148.01435 
L 624.676439 144.330793 
L 625.139618 142.448014 
L 625.602796 148.454503 
L 626.065974 161.849876 
L 626.529152 163.7754 
L 626.99233 160.001953 
L 627.455508 158.274982 
L 627.918686 159.106855 
L 628.845043 149.1779 
L 629.308221 137.51219 
L 630.234577 125.333012 
L 630.697755 127.336439 
L 631.160934 130.829029 
L 631.624112 136.140375 
L 633.013646 136.84041 
L 633.476824 143.2514 
L 633.940003 152.850457 
L 634.403181 154.176719 
L 634.866359 158.169692 
L 635.329537 156.622499 
L 635.792715 157.82891 
L 636.255893 156.635281 
L 636.719072 166.273289 
L 637.18225 160.018904 
L 637.645428 159.601317 
L 638.108606 153.625588 
L 638.571784 153.837225 
L 639.034962 158.315599 
L 639.498141 169.397826 
L 639.961319 163.101492 
L 640.424497 165.200801 
L 640.887675 173.769129 
L 641.350853 191.922633 
L 641.814031 197.147087 
L 642.27721 190.482207 
L 642.740388 186.984421 
L 643.203566 182.150283 
L 643.666744 179.287713 
L 644.5931 155.75554 
L 645.056279 159.841398 
L 645.519457 166.710822 
L 645.982635 168.76219 
L 646.445813 176.233871 
L 647.372169 199.006575 
L 647.835348 202.81977 
L 648.298526 201.5782 
L 648.761704 205.777918 
L 649.224882 204.032969 
L 650.151238 207.839071 
L 650.614417 209.102411 
L 651.077595 210.749278 
L 651.540773 213.837367 
L 652.467129 210.653092 
L 652.930307 209.774075 
L 653.393486 204.085991 
L 653.856664 200.195688 
L 654.319842 199.963873 
L 654.78302 197.682586 
L 655.246198 196.042508 
L 655.709376 180.955019 
L 656.172555 180.204843 
L 656.635733 182.154336 
L 657.562089 167.140655 
L 658.488445 155.264103 
L 658.951624 164.377759 
L 659.87798 150.52065 
L 660.341158 155.61027 
L 660.804336 142.997728 
L 661.267514 144.10526 
L 661.730693 142.423234 
L 662.193871 143.761482 
L 663.583405 141.047627 
L 664.046583 140.8248 
L 664.509762 153.67185 
L 664.97294 152.867741 
L 665.436118 150.706306 
L 665.899296 152.826588 
L 666.362474 158.539439 
L 666.825652 168.43513 
L 667.288831 172.64983 
L 667.752009 166.521288 
L 668.215187 164.977092 
L 668.678365 161.832869 
L 669.141543 154.55974 
L 669.604721 149.378031 
L 670.531078 125.420383 
L 670.994256 125.877718 
L 671.457434 123.365715 
L 671.920612 122.82528 
L 672.38379 121.469851 
L 672.846969 118.241732 
L 673.310147 118.863863 
L 673.773325 121.103998 
L 674.236503 121.123872 
L 674.699681 120.619393 
L 675.162859 121.738911 
L 675.626038 119.637402 
L 676.089216 123.336737 
L 676.552394 123.877967 
L 677.015572 115.867748 
L 677.47875 115.534058 
L 678.405107 128.242178 
L 678.868285 129.987923 
L 680.720997 117.186613 
L 681.184176 121.976603 
L 681.647354 130.440061 
L 682.110532 136.254786 
L 682.57371 125.775612 
L 683.036888 126.739322 
L 683.500066 131.337548 
L 683.963245 145.886498 
L 684.426423 146.194017 
L 684.889601 149.914326 
L 685.352779 152.409147 
L 685.815957 159.470335 
L 686.279135 155.621981 
L 686.742314 153.415601 
L 687.205492 146.675814 
L 687.66867 146.665725 
L 688.131848 152.795063 
L 688.595026 150.483812 
L 689.058204 146.446691 
L 689.521383 148.279329 
L 689.984561 148.823556 
L 690.447739 153.487701 
L 691.837273 138.424979 
L 692.300452 140.96774 
L 692.76363 133.988249 
L 693.226808 136.408162 
L 693.689986 133.623496 
L 694.153164 132.360952 
L 694.616342 129.117852 
L 695.542699 133.646062 
L 696.005877 140.815117 
L 696.469055 141.386311 
L 696.932233 151.539684 
L 697.395411 157.405346 
L 697.85859 166.264316 
L 698.784946 157.120394 
L 699.248124 162.806278 
L 699.711302 163.617176 
L 700.17448 155.526056 
L 700.637659 152.196063 
L 701.100837 152.503582 
L 702.027193 159.294002 
L 702.490371 151.340712 
L 702.953549 153.994337 
L 703.416728 159.644266 
L 703.879906 161.174277 
L 704.343084 158.069006 
L 704.806262 168.363205 
L 705.26944 170.959901 
L 705.732618 177.068264 
L 706.658975 167.90936 
L 707.122153 169.148729 
L 708.048509 147.758914 
L 708.511687 147.880662 
L 708.974866 144.206094 
L 709.438044 145.364563 
L 709.901222 145.309529 
L 710.3644 150.77968 
L 710.827578 159.410931 
L 711.290756 170.966574 
L 711.753935 173.985748 
L 712.217113 173.840825 
L 712.680291 184.52754 
L 713.143469 187.981178 
L 713.606647 178.616629 
L 714.069825 179.049993 
L 714.533004 176.127497 
L 714.996182 176.441009 
L 715.45936 174.084814 
L 715.922538 167.632672 
L 716.385716 173.744032 
L 716.848894 193.776218 
L 717.312073 202.994744 
L 717.775251 207.203451 
L 718.238429 205.467491 
L 719.164785 225.480599 
L 719.627963 226.486257 
L 720.091142 219.249083 
L 720.55432 214.705587 
L 721.017498 206.980016 
L 721.943854 219.873907 
L 722.407032 213.655477 
L 722.870211 216.360039 
L 723.333389 217.97095 
L 723.796567 227.887615 
L 724.259745 251.764059 
L 724.722923 245.213039 
L 727.501992 236.53764 
L 727.96517 242.154609 
L 728.428348 243.651661 
L 728.891527 248.648395 
L 729.354705 247.850278 
L 729.817883 235.696171 
L 730.281061 246.712479 
L 730.744239 249.959372 
L 731.207417 250.830197 
L 731.670596 252.767705 
L 732.133774 250.863952 
L 732.596952 247.635833 
L 733.06013 247.718629 
L 733.523308 245.742965 
L 733.986486 253.151724 
L 734.449665 257.321479 
L 734.912843 258.93239 
L 735.376021 257.555986 
L 735.839199 256.907685 
L 736.302377 258.030199 
L 736.765555 262.005193 
L 737.228734 255.148551 
L 737.691912 254.431334 
L 738.15509 250.930551 
L 738.618268 255.399936 
L 739.544624 262.133427 
L 740.007803 259.540524 
L 740.470981 267.389739 
L 740.934159 262.618524 
L 741.397337 266.620486 
L 741.860515 265.921247 
L 742.786872 262.470301 
L 743.25005 264.935159 
L 743.713228 270.330402 
L 744.176406 272.270906 
L 744.639584 275.610685 
L 745.102762 272.745118 
L 745.565941 277.918635 
L 746.029119 280.662149 
L 746.492297 276.76885 
L 746.955475 274.664345 
L 747.418653 277.063284 
L 747.881831 272.621662 
L 748.34501 271.853508 
L 748.808188 267.106263 
L 749.271366 266.404028 
L 749.734544 267.610438 
L 750.197722 258.593461 
L 750.6609 255.239497 
L 751.587257 252.261967 
L 752.050435 251.718536 
L 752.513613 245.284372 
L 752.976791 246.58966 
L 753.439969 253.204399 
L 754.366326 259.299676 
L 754.829504 256.787674 
L 755.292682 256.322147 
L 755.75586 263.518168 
L 756.219038 267.532115 
L 756.682217 264.768423 
L 757.145395 268.17412 
L 757.608573 265.755003 
L 758.071751 272.336782 
L 758.534929 273.699 
L 759.461286 266.197052 
L 759.924464 267.193721 
L 760.387642 257.943031 
L 760.85082 257.273756 
L 761.313998 257.515356 
L 761.777176 253.448272 
L 762.240355 244.194586 
L 762.703533 244.78975 
L 763.166711 238.103897 
L 763.629889 235.68478 
L 764.093067 234.599018 
L 764.556245 233.228607 
L 765.019424 235.169112 
L 765.482602 240.315661 
L 765.94578 233.156392 
L 766.408958 233.451926 
L 766.872136 235.78195 
L 767.335314 233.953105 
L 767.798493 227.429051 
L 768.261671 227.287125 
L 768.724849 226.974409 
L 769.188027 229.852757 
L 769.651205 230.921337 
L 770.114383 233.865604 
L 771.04074 243.532476 
L 771.503918 246.150145 
L 771.967096 244.102569 
L 772.893452 244.260273 
L 773.356631 245.487658 
L 773.819809 243.994399 
L 774.282987 241.704122 
L 774.746165 243.686575 
L 775.209343 240.23673 
L 775.672521 239.947985 
L 776.1357 236.60301 
L 776.598878 232.02955 
L 777.062056 228.984206 
L 777.988412 220.493477 
L 778.45159 216.675086 
L 778.914769 216.712938 
L 779.377947 214.824167 
L 779.841125 215.416335 
L 780.304303 214.168772 
L 780.767481 216.16321 
L 782.157016 220.617614 
L 782.620194 227.1934 
L 783.54655 233.87895 
L 784.009728 231.885308 
L 784.472907 232.492458 
L 784.936085 231.847152 
L 785.399263 229.880477 
L 785.862441 229.585739 
L 786.325619 228.455032 
L 787.251976 233.318829 
L 787.715154 230.657012 
L 788.178332 229.097834 
L 789.104688 206.323726 
L 789.567866 202.942795 
L 790.031045 197.629249 
L 790.494223 198.919556 
L 790.957401 198.406088 
L 791.420579 186.225013 
L 791.883757 191.557333 
L 792.346935 191.433385 
L 793.73647 181.491345 
L 794.199648 184.402653 
L 794.662826 189.651076 
L 795.126004 186.039431 
L 795.589183 180.830755 
L 796.052361 181.53079 
L 796.515539 183.941714 
L 796.978717 173.882023 
L 797.441895 173.206754 
L 797.905073 166.985328 
L 798.368252 170.957326 
L 798.83143 176.532347 
L 799.757786 171.96378 
L 800.220964 180.199519 
L 800.684142 172.557845 
L 801.610499 182.068909 
L 802.073677 165.672035 
L 802.536855 162.02743 
L 803.463211 158.413914 
L 803.92639 159.639429 
L 804.389568 166.294247 
L 805.315924 144.595069 
L 805.779102 159.5886 
L 806.24228 165.976746 
L 806.705459 166.440073 
L 807.168637 164.143804 
L 807.631815 158.186053 
L 808.558171 167.040926 
L 809.021349 163.396321 
L 809.947706 148.190876 
L 810.410884 145.202461 
L 810.874062 144.859782 
L 811.33724 142.392724 
L 811.800418 136.644714 
L 812.263597 134.378408 
L 812.726775 124.579395 
L 813.189953 128.290715 
L 813.653131 126.953264 
L 814.116309 123.392555 
L 814.579487 125.587745 
L 815.042666 129.394947 
L 815.505844 130.466524 
L 815.969022 136.38612 
L 816.4322 140.217292 
L 816.895378 137.04011 
L 817.358556 139.789617 
L 817.821735 140.561563 
L 818.284913 131.376792 
L 818.748091 129.14045 
L 819.674447 131.00305 
L 820.137625 126.255805 
L 820.600804 126.015001 
L 821.52716 115.354949 
L 821.990338 116.675219 
L 822.453516 117.072627 
L 822.916694 116.223573 
L 823.379873 125.714763 
L 823.843051 120.967518 
L 824.306229 128.361295 
L 824.769407 129.861343 
L 825.232585 126.183778 
L 825.695763 132.187271 
L 826.158941 133.801178 
L 826.62212 126.860639 
L 827.085298 131.042379 
L 827.548476 127.379796 
L 828.011654 130.171251 
L 828.474832 134.101301 
L 828.93801 132.784824 
L 829.864367 126.772038 
L 830.327545 130.779993 
L 830.790723 128.924181 
L 831.253901 132.560593 
L 836.812039 128.847073 
L 837.275217 122.658606 
L 837.738396 124.341428 
L 838.201574 120.355244 
L 838.664752 112.35701 
L 839.12793 113.299745 
L 839.591108 106.452091 
L 840.980643 118.965452 
L 841.443821 113.328304 
L 841.906999 117.369218 
L 842.370177 119.435567 
L 842.833355 115.596202 
L 843.296534 108.257154 
L 843.759712 106.36239 
L 844.22289 106.193497 
L 844.686068 114.039717 
L 845.149246 116.252885 
L 845.612424 119.850346 
L 846.075603 121.98561 
L 846.538781 134.925545 
L 847.001959 139.655609 
L 847.465137 140.637296 
L 847.928315 131.836052 
L 848.391493 134.921145 
L 849.31785 138.685299 
L 850.244206 126.964555 
L 850.707384 125.369421 
L 851.170562 133.916775 
L 851.633741 131.39878 
L 852.096919 132.0299 
L 852.560097 134.719481 
L 853.486453 147.583409 
L 853.949631 149.11342 
L 854.41281 151.026958 
L 855.802344 149.792177 
L 856.265522 148.964097 
L 856.7287 141.595086 
L 857.191879 138.813416 
L 858.118235 145.205328 
L 858.581413 152.215578 
L 859.044591 155.087934 
L 859.507769 156.459141 
L 859.970948 154.444524 
L 860.434126 154.04192 
L 860.897304 153.171891 
L 861.360482 149.131774 
L 861.82366 143.473653 
L 862.286838 143.664316 
L 862.750017 142.944103 
L 863.676373 157.402064 
L 864.139551 149.188096 
L 864.602729 153.022265 
L 865.065907 150.408388 
L 865.529086 141.807896 
L 865.992264 144.164887 
L 866.455442 151.981143 
L 866.91862 149.583 
L 867.381798 159.140109 
L 867.844976 158.887319 
L 868.771333 176.314617 
L 869.697689 180.429338 
L 870.160867 185.405099 
L 871.087224 176.67277 
L 871.550402 173.381728 
L 872.01358 174.249556 
L 872.476758 169.391448 
L 872.939936 176.042142 
L 873.403114 171.903147 
L 873.866293 170.161194 
L 874.329471 185.701921 
L 874.792649 189.440208 
L 875.255827 187.221843 
L 875.719005 195.1999 
L 876.182183 188.31629 
L 876.645362 190.46354 
L 877.10854 195.049781 
L 877.571718 191.869602 
L 878.961252 207.009621 
L 879.887609 211.528843 
L 880.350787 211.255079 
L 881.277143 205.985377 
L 881.740321 201.564729 
L 882.2035 201.299954 
L 883.129856 192.485625 
L 883.593034 191.915227 
L 884.056212 196.750161 
L 884.51939 200.218781 
L 884.982569 205.014763 
L 885.445747 202.334967 
L 885.908925 209.393159 
L 886.835281 211.512342 
L 887.298459 207.259487 
L 887.761638 208.594738 
L 888.224816 193.962687 
L 888.687994 191.663422 
L 889.151172 189.94544 
L 889.61435 187.49636 
L 890.540707 177.75018 
L 891.003885 173.722048 
L 891.467063 183.947332 
L 891.930241 187.625693 
L 892.393419 188.796148 
L 892.856597 191.470747 
L 893.319776 193.126603 
L 893.782954 201.799802 
L 894.246132 201.756753 
L 894.70931 203.083016 
L 895.172488 195.060811 
L 895.635666 195.01177 
L 896.098845 201.266952 
L 897.025201 193.43541 
L 897.488379 197.278568 
L 897.951557 196.057972 
L 898.414735 206.016585 
L 898.877914 203.309823 
L 899.341092 198.90116 
L 899.80427 210.393881 
L 900.267448 208.304357 
L 900.730626 204.201318 
L 901.193804 205.55155 
L 901.656983 196.022205 
L 902.120161 192.416551 
L 902.583339 189.949493 
L 903.046517 180.560974 
L 903.509695 181.189098 
L 903.972873 174.173651 
L 904.436052 175.326127 
L 905.362408 179.37493 
L 905.825586 178.924384 
L 906.288764 173.272255 
L 906.751942 173.447937 
L 907.215121 180.961567 
L 907.678299 181.092304 
L 908.141477 178.736109 
L 908.604655 178.099793 
L 915.089149 185.829156 
L 915.552328 197.429744 
L 916.015506 199.678868 
L 916.478684 197.870997 
L 916.941862 189.438298 
L 917.868218 195.368779 
L 918.331397 184.886609 
L 918.794575 179.665948 
L 919.257753 177.276794 
L 919.720931 177.443487 
L 920.647287 187.727597 
L 921.110466 189.746006 
L 921.573644 195.030385 
L 922.036822 193.465215 
L 922.5 195.735313 
L 922.963178 201.672886 
L 923.426356 205.93253 
L 924.352713 205.019454 
L 924.815891 205.452818 
L 925.279069 212.205386 
L 925.742247 201.873031 
L 926.205425 187.903163 
L 926.668603 185.412135 
L 927.131782 181.312091 
L 928.058138 175.625903 
L 928.521316 169.704107 
L 928.984494 177.963816 
L 929.447672 189.339681 
L 929.910851 185.203682 
L 930.374029 183.926156 
L 930.837207 183.8082 
L 931.763563 195.212928 
L 932.226741 194.477734 
L 932.68992 195.22571 
L 933.153098 197.918287 
L 933.616276 197.5816 
L 934.079454 202.548372 
L 934.542632 192.290924 
L 935.00581 184.757117 
L 935.468989 186.661666 
L 935.932167 188.053847 
L 936.395345 187.420527 
L 936.858523 189.660662 
L 937.321701 186.327672 
L 938.248058 196.977332 
L 938.711236 195.16946 
L 939.174414 187.045381 
L 939.637592 184.542367 
L 940.10077 180.762928 
L 940.563948 178.02021 
L 941.027127 179.843859 
L 941.490305 175.659919 
L 941.953483 173.058028 
L 942.879839 182.670966 
L 943.343017 184.56353 
L 943.806196 182.069505 
L 944.269374 168.983547 
L 944.732552 165.34793 
L 945.19573 166.113884 
L 945.658908 163.284273 
L 946.122086 162.755824 
L 946.585265 163.689571 
L 947.048443 166.004613 
L 947.511621 176.928036 
L 947.974799 174.113407 
L 948.901155 179.092164 
L 949.364334 183.136073 
L 949.827512 181.624836 
L 950.29069 184.706933 
L 950.753868 183.04588 
L 951.217046 179.134604 
L 951.680224 183.57103 
L 952.606581 173.264541 
L 953.069759 169.628925 
L 953.532937 162.086128 
L 953.996115 163.622132 
L 954.922472 169.220024 
L 955.38565 168.664607 
L 955.848828 166.146612 
L 956.312006 166.034649 
L 956.775184 162.494914 
L 957.238362 163.596454 
L 958.164719 147.480133 
L 958.627897 148.662572 
L 959.091075 156.053353 
L 959.554253 165.511584 
L 960.017431 169.150993 
L 960.48061 161.946779 
L 960.943788 171.288154 
L 961.406966 177.594273 
L 961.870144 179.741522 
L 962.333322 186.143523 
L 962.7965 182.355095 
L 963.722857 195.123141 
L 964.186035 200.473439 
L 965.112391 219.800394 
L 965.575569 213.563986 
L 966.038748 205.544778 
L 966.501926 209.45685 
L 966.965104 205.911123 
L 967.428282 196.148065 
L 967.89146 183.187952 
L 968.354638 174.674353 
L 968.817817 175.895745 
L 969.280995 178.441503 
L 969.744173 171.369126 
L 970.670529 175.9273 
L 972.060064 199.549854 
L 972.523242 200.897091 
L 973.449598 215.531834 
L 973.912776 226.470239 
L 974.375955 224.602441 
L 975.302311 209.148303 
L 975.765489 215.625212 
L 976.228667 218.146999 
L 976.691845 226.053145 
L 977.155024 222.848996 
L 977.618202 229.535646 
L 978.08138 231.170527 
L 978.544558 235.603957 
L 979.007736 233.793089 
L 979.934093 211.288649 
L 980.397271 206.445522 
L 980.860449 197.13191 
L 981.323627 195.599699 
L 981.786805 192.506413 
L 982.249983 201.224557 
L 982.713162 206.359121 
L 983.17634 213.378361 
L 983.639518 211.600452 
L 984.102696 217.69683 
L 984.565874 221.024624 
L 985.029052 221.266224 
L 985.492231 212.923415 
L 985.955409 215.082649 
L 986.418587 210.251508 
L 986.881765 211.125328 
L 987.344943 207.708442 
L 987.808121 207.185985 
L 988.2713 204.101689 
L 988.734478 197.077253 
L 989.197656 192.662598 
L 989.660834 192.988095 
L 990.124012 197.948873 
L 990.58719 196.138006 
L 991.050369 197.838806 
L 991.513547 191.58442 
L 991.976725 194.190105 
L 996.608507 192.250396 
L 997.071685 188.905421 
L 997.534863 180.832279 
L 997.998041 182.302364 
L 998.461219 176.919902 
L 998.924397 182.713654 
L 999.387576 190.541895 
L 999.850754 190.160264 
L 1000.313932 180.100573 
L 1000.77711 179.083726 
L 1001.240288 167.909409 
L 1001.703466 160.546391 
L 1002.166645 155.16393 
L 1002.629823 143.180611 
L 1003.093001 138.628126 
L 1003.556179 146.006922 
L 1004.019357 148.354924 
L 1004.945714 163.109519 
L 1005.87207 167.646719 
L 1006.798426 173.782049 
L 1007.261604 181.74812 
L 1007.724783 180.689325 
L 1008.187961 178.890443 
L 1008.651139 174.793396 
L 1009.114317 167.283558 
L 1009.577495 167.330399 
L 1010.040673 162.298505 
L 1010.503852 149.739897 
L 1010.96703 149.010695 
L 1011.430208 146.6545 
L 1011.893386 148.1935 
L 1012.356564 148.791661 
L 1012.819742 139.627864 
L 1013.282921 137.643211 
L 1014.209277 149.080898 
L 1014.672455 153.751035 
L 1015.135633 156.126004 
L 1015.598811 164.571484 
L 1016.06199 176.528632 
L 1016.525168 177.486349 
L 1016.988346 177.766901 
L 1017.451524 174.631668 
L 1017.914702 184.841971 
L 1018.37788 179.582358 
L 1018.841059 179.06889 
L 1019.304237 174.561349 
L 1019.767415 179.084667 
L 1020.230593 178.289547 
L 1020.693771 183.136466 
L 1021.156949 178.838666 
L 1021.620127 190.565099 
L 1022.546484 200.603512 
L 1023.009662 200.173941 
L 1023.47284 199.975085 
L 1023.936018 200.381482 
L 1024.399196 198.570614 
L 1024.862375 197.412941 
L 1025.325553 195.242517 
L 1025.788731 184.961099 
L 1026.251909 187.980273 
L 1026.715087 194.250437 
L 1027.178265 197.476356 
L 1027.641444 197.643048 
L 1028.104622 190.262052 
L 1028.5678 185.445892 
L 1029.030978 197.741623 
L 1029.494156 194.210877 
L 1030.420513 183.404006 
L 1030.883691 180.493495 
L 1031.346869 178.556782 
L 1031.810047 183.700336 
L 1032.273225 178.809268 
L 1032.736403 182.718344 
L 1033.66276 193.862394 
L 1034.125938 194.121972 
L 1034.589116 195.831761 
L 1035.052294 195.225408 
L 1035.515472 204.557794 
L 1036.441829 213.400682 
L 1036.905007 218.121756 
L 1037.368185 220.035294 
L 1037.831363 231.039618 
L 1038.294541 238.265602 
L 1039.220898 234.796679 
L 1039.684076 231.253948 
L 1040.147254 220.331321 
L 1040.610432 219.89276 
L 1041.07361 213.833134 
L 1041.536789 209.244693 
L 1041.999967 210.876579 
L 1042.463145 202.000427 
L 1042.926323 201.609807 
L 1043.389501 202.85517 
L 1044.315858 211.119771 
L 1044.779036 206.827964 
L 1045.242214 208.696558 
L 1045.705392 222.6852 
L 1046.16857 222.390462 
L 1046.631748 224.426848 
L 1047.094927 232.875324 
L 1047.558105 229.69215 
L 1048.021283 237.532376 
L 1048.484461 237.03389 
L 1048.947639 243.142253 
L 1049.410817 236.474377 
L 1049.873996 239.062083 
L 1050.337174 228.981418 
L 1050.800352 236.522014 
L 1051.26353 228.928281 
L 1051.726708 228.130164 
L 1052.189886 207.74521 
L 1052.653065 221.805763 
L 1053.116243 220.300518 
L 1053.579421 233.129591 
L 1054.042599 228.487216 
L 1054.505777 236.195605 
L 1054.968955 241.426051 
L 1055.432134 257.494128 
L 1055.895312 247.029935 
L 1056.35849 246.312719 
L 1056.821668 238.611118 
L 1057.748024 231.756372 
L 1058.211203 234.802512 
L 1058.674381 225.713623 
L 1059.137559 234.281952 
L 1059.600737 236.351297 
L 1060.063915 231.885705 
L 1060.527093 233.628454 
L 1060.990272 230.292467 
L 1061.45345 218.560839 
L 1061.916628 220.363513 
L 1062.379806 215.852976 
L 1062.842984 220.430228 
L 1063.306162 221.825406 
L 1063.769341 220.625784 
L 1064.232519 230.191881 
L 1064.695697 232.758614 
L 1065.158875 236.050451 
L 1065.622053 235.519005 
L 1066.085231 234.364328 
L 1067.011588 247.090426 
L 1067.474766 245.111766 
L 1067.937944 246.905452 
L 1068.401122 252.102938 
L 1068.8643 259.059255 
L 1069.327479 257.077599 
L 1069.790657 253.310145 
L 1070.253835 255.415446 
L 1070.717013 253.086218 
L 1072.569726 253.942061 
L 1073.032904 256.152233 
L 1073.496082 249.637169 
L 1073.95926 250.726723 
L 1074.422438 248.664166 
L 1074.885617 242.451729 
L 1075.348795 240.410146 
L 1075.811973 240.307171 
L 1076.275151 233.849037 
L 1076.738329 242.24358 
L 1077.201507 236.064101 
L 1077.664686 239.218109 
L 1078.127864 246.635857 
L 1078.591042 248.61831 
L 1079.05422 235.466433 
L 1079.517398 232.651804 
L 1079.980576 226.124754 
L 1080.443755 234.21667 
L 1080.906933 235.704733 
L 1081.370111 229.327499 
L 1081.833289 232.136932 
L 1082.296467 247.983282 
L 1082.759645 250.487091 
L 1083.222824 251.546683 
L 1083.686002 247.242891 
L 1084.14918 245.396068 
L 1085.075536 251.521308 
L 1086.001893 268.214512 
L 1086.465071 270.421688 
L 1086.928249 270.147924 
L 1087.391427 270.704137 
L 1087.854605 267.380136 
L 1088.317783 265.581253 
L 1089.24414 245.638652 
L 1089.707318 240.519866 
L 1090.633674 240.931155 
L 1091.096852 235.539705 
L 1091.560031 221.671712 
L 1092.023209 219.723014 
L 1092.486387 220.417057 
L 1092.949565 222.567303 
L 1093.412743 219.006594 
L 1093.875921 219.056431 
L 1094.802278 233.712148 
L 1095.265456 228.680254 
L 1095.728634 229.772805 
L 1096.65499 238.516815 
L 1097.118169 228.373227 
L 1097.581347 222.24169 
L 1098.044525 221.212858 
L 1098.507703 222.059711 
L 1098.970881 221.003913 
L 1099.434059 214.153262 
L 1099.897238 212.914689 
L 1100.360416 215.424491 
L 1100.823594 221.257194 
L 1101.286772 225.325075 
L 1101.74995 232.443192 
L 1102.213128 225.727375 
L 1102.676307 229.8402 
L 1103.139485 223.690685 
L 1103.602663 226.239439 
L 1104.065841 223.652529 
L 1104.529019 222.938309 
L 1104.992197 217.690681 
L 1105.455376 226.711451 
L 1105.918554 228.726864 
L 1106.381732 234.787286 
L 1107.308088 235.516184 
L 1107.771266 237.222977 
L 1108.234445 241.869144 
L 1109.160801 229.576106 
L 1109.623979 228.577237 
L 1110.550335 234.792367 
L 1111.013514 233.655667 
L 1111.476692 233.729475 
L 1111.93987 239.433337 
L 1112.403048 248.262344 
L 1113.329404 240.598595 
L 1113.792583 239.42594 
L 1114.255761 239.161166 
L 1115.182117 246.769577 
L 1115.645295 243.93697 
L 1116.108473 256.700123 
L 1116.571652 265.798797 
L 1117.03483 266.687599 
L 1117.498008 271.576467 
L 1117.961186 271.344651 
L 1118.424364 269.452884 
L 1118.887542 270.725213 
L 1119.35072 263.988422 
L 1120.277077 259.380903 
L 1121.203433 260.416524 
L 1121.666611 256.81986 
L 1122.129789 257.915407 
L 1122.592968 259.595233 
L 1123.056146 264.454137 
L 1123.519324 261.570593 
L 1123.982502 271.906741 
L 1124.44568 264.843353 
L 1124.908858 266.247519 
L 1125.372037 266.995495 
L 1125.835215 261.783823 
L 1126.298393 261.117544 
L 1126.761571 257.544849 
L 1127.224749 248.366071 
L 1128.151106 251.484123 
L 1128.614284 247.411047 
L 1129.077462 246.720797 
L 1129.54064 253.053883 
L 1130.003818 253.924707 
L 1130.466996 258.43604 
L 1130.930175 265.107708 
L 1131.393353 267.761333 
L 1131.856531 272.401507 
L 1132.319709 271.903021 
L 1132.782887 275.593367 
L 1133.246065 282.094246 
L 1133.709244 286.237034 
L 1134.172422 281.984179 
L 1134.6356 286.597386 
L 1135.098778 281.166984 
L 1135.561956 280.73142 
L 1136.025134 277.407419 
L 1136.488313 272.180765 
L 1137.414669 275.342662 
L 1137.877847 279.119901 
L 1138.341025 281.252169 
L 1140.656916 273.559557 
L 1141.120094 275.715796 
L 1141.583272 271.900401 
L 1142.046451 274.377244 
L 1142.509629 272.37761 
L 1142.972807 261.754613 
L 1143.435985 265.223233 
L 1143.899163 267.771987 
L 1144.362341 261.496627 
L 1144.82552 263.844629 
L 1145.288698 257.991748 
L 1145.751876 256.240806 
L 1146.215054 255.649435 
L 1146.678232 252.76589 
L 1147.14141 252.507108 
L 1147.604589 249.177115 
L 1148.067767 250.20075 
L 1148.994123 241.298759 
L 1149.457301 234.775833 
L 1149.920479 229.996756 
L 1150.846836 222.946507 
L 1151.773192 201.582916 
L 1152.23637 203.184838 
L 1152.699548 199.504277 
L 1153.162727 204.471048 
L 1153.625905 205.455732 
L 1154.552261 219.754889 
L 1155.015439 221.2849 
L 1155.478617 219.414107 
L 1155.941796 219.967323 
L 1156.404974 209.386275 
L 1156.868152 208.357442 
L 1157.33133 203.199704 
L 1157.794508 207.549237 
L 1158.257686 196.641591 
L 1158.720865 199.085475 
L 1159.184043 198.709837 
L 1159.647221 203.586719 
L 1160.110399 202.656765 
L 1160.573577 200.929794 
L 1161.036755 200.24254 
L 1161.499934 212.301562 
L 1161.963112 209.441989 
L 1162.42629 217.090452 
L 1162.889468 221.937371 
L 1163.352646 221.8314 
L 1163.815824 223.247552 
L 1164.742181 218.184595 
L 1165.205359 220.991031 
L 1165.668537 210.814484 
L 1166.131715 206.480729 
L 1166.594893 206.536559 
L 1167.984428 203.486017 
L 1168.447606 203.841478 
L 1169.373962 211.362996 
L 1169.837141 208.437503 
L 1171.689853 185.963822 
L 1172.153031 184.419625 
L 1172.61621 183.816268 
L 1173.079388 183.590446 
L 1173.542566 184.62307 
L 1174.005744 187.219765 
L 1174.468922 187.656126 
L 1174.9321 180.469889 
L 1175.395279 181.184906 
L 1175.858457 171.301996 
L 1176.321635 168.316578 
L 1176.784813 171.482571 
L 1177.247991 172.26051 
L 1178.174348 176.758757 
L 1178.637526 177.446807 
L 1179.100704 178.587299 
L 1179.563882 176.710513 
L 1180.02706 169.698062 
L 1180.490238 160.444376 
L 1180.953417 160.473239 
L 1181.416595 164.067704 
L 1181.879773 158.493479 
L 1182.342951 158.186756 
L 1182.806129 158.074792 
L 1183.269307 157.348587 
L 1183.732486 167.286226 
L 1184.195664 166.925569 
L 1184.658842 166.220338 
L 1185.12202 163.992984 
L 1186.048376 172.038856 
L 1186.511555 172.193563 
L 1186.974733 171.122783 
L 1187.437911 168.829511 
L 1187.901089 168.130272 
L 1188.364267 177.309846 
L 1188.827445 176.269029 
L 1189.290624 177.616265 
L 1190.21698 193.560393 
L 1192.069693 191.857392 
L 1192.532871 188.371591 
L 1192.996049 183.843076 
L 1193.459227 184.3903 
L 1193.922405 174.465442 
L 1194.848762 160.569382 
L 1195.31194 160.739071 
L 1195.775118 157.157388 
L 1196.238296 154.795201 
L 1196.701474 150.713135 
L 1197.164652 154.82596 
L 1197.627831 157.152988 
L 1198.554187 151.65257 
L 1199.017365 156.346678 
L 1199.943721 160.206713 
L 1200.4069 155.039986 
L 1200.870078 155.608183 
L 1201.333256 153.395811 
L 1201.796434 159.372337 
L 1202.259612 149.804039 
L 1202.72279 149.737021 
L 1203.185969 141.076603 
L 1203.649147 144.554211 
L 1204.112325 146.842287 
L 1204.575503 147.08988 
L 1205.038681 143.804831 
L 1205.501859 150.644293 
L 1205.965038 150.205732 
L 1206.428216 157.878166 
L 1206.891394 162.611226 
L 1207.354572 157.795065 
L 1207.81775 158.806716 
L 1208.280928 149.526063 
L 1208.744107 148.434309 
L 1209.207285 143.285559 
L 1209.670463 136.572739 
L 1210.133641 127.046389 
L 1210.596819 126.074487 
L 1211.059997 123.634396 
L 1211.523176 147.292109 
L 1211.986354 143.383829 
L 1213.839066 173.456325 
L 1214.302245 177.257534 
L 1214.765423 165.130393 
L 1215.228601 178.83139 
L 1215.691779 178.35987 
L 1216.154957 174.439605 
L 1216.618135 173.932129 
L 1217.081314 154.104488 
L 1217.544492 144.790876 
L 1218.470848 147.991725 
L 1218.934026 148.547937 
L 1219.860382 154.100884 
L 1220.323561 169.482807 
L 1220.786739 172.816593 
L 1221.249917 169.92406 
L 1221.713095 166.147617 
L 1222.176273 170.365312 
L 1222.639451 171.778468 
L 1223.10263 174.099503 
L 1224.028986 184.176868 
L 1224.492164 184.670158 
L 1224.955342 186.496803 
L 1225.41852 175.595151 
L 1225.881699 179.360404 
L 1226.344877 177.672385 
L 1226.808055 174.986597 
L 1227.271233 177.799026 
L 1227.734411 188.767394 
L 1228.197589 186.668881 
L 1228.660768 192.585481 
L 1229.123946 189.048742 
L 1229.587124 180.858744 
L 1230.050302 180.234413 
L 1230.51348 179.95166 
L 1230.976658 171.417088 
L 1231.439837 172.482672 
L 1231.903015 172.041115 
L 1232.366193 175.467786 
L 1232.829371 197.663304 
L 1233.292549 202.027818 
L 1233.755727 205.127892 
L 1234.218906 212.01829 
L 1234.682084 212.745292 
L 1235.60844 229.066954 
L 1236.071618 219.687424 
L 1236.534796 216.579157 
L 1236.997975 215.945837 
L 1237.461153 207.11463 
L 1238.387509 201.281623 
L 1238.850687 197.019779 
L 1239.313865 195.685323 
L 1240.240222 191.736991 
L 1240.7034 196.017609 
L 1241.166578 197.077201 
L 1241.629756 193.426603 
L 1242.092934 184.20288 
L 1242.556113 181.705859 
L 1243.019291 177.90245 
L 1243.482469 183.741145 
L 1243.945647 185.753561 
L 1244.408825 184.628847 
L 1244.872003 194.470605 
L 1245.335182 200.99845 
L 1245.79836 202.621347 
L 1246.261538 208.561917 
L 1246.724716 209.666453 
L 1247.187894 215.490167 
L 1247.651072 232.142523 
L 1248.114251 228.812529 
L 1248.577429 229.794217 
L 1249.040607 234.116783 
L 1249.503785 234.858766 
L 1249.966963 232.999958 
L 1250.430141 227.320862 
L 1253.20921 217.908372 
L 1253.672389 222.494613 
L 1254.135567 222.355683 
L 1255.061923 226.485386 
L 1255.525101 223.694727 
L 1255.988279 227.477958 
L 1256.451458 225.577202 
L 1256.914636 221.348317 
L 1257.377814 218.43481 
L 1257.840992 216.905595 
L 1258.30417 217.737467 
L 1258.767348 221.39785 
L 1259.230527 217.234885 
L 1259.693705 217.961886 
L 1260.620061 225.824983 
L 1262.009596 221.929485 
L 1262.472774 227.156934 
L 1263.39913 230.772373 
L 1263.862308 226.246854 
L 1264.325486 226.701192 
L 1264.788665 226.613199 
L 1265.251843 220.826237 
L 1265.715021 222.955509 
L 1266.178199 221.86675 
L 1266.641377 218.23413 
L 1267.104555 223.078053 
L 1267.567734 225.363133 
L 1268.030912 222.569478 
L 1268.49409 233.681668 
L 1269.883624 233.683564 
L 1270.346803 235.231553 
L 1270.809981 240.593837 
L 1271.273159 239.621934 
L 1271.736337 236.30093 
L 1272.199515 237.573258 
L 1272.662693 237.841826 
L 1273.125872 237.954585 
L 1273.58905 236.28754 
L 1274.515406 224.021469 
L 1274.978584 224.122243 
L 1275.441762 222.545088 
L 1276.368119 207.204809 
L 1278.220831 184.838995 
L 1278.68401 183.660347 
L 1279.147188 186.553676 
L 1279.610366 185.126336 
L 1280.073544 182.14691 
L 1280.536722 193.274082 
L 1280.9999 195.777891 
L 1281.926257 197.433747 
L 1282.389435 199.08361 
L 1283.315791 204.250034 
L 1283.778969 209.288717 
L 1284.242148 202.429078 
L 1284.705326 203.198028 
L 1285.168504 202.972205 
L 1285.631682 202.377836 
L 1286.09486 192.1923 
L 1286.558038 189.782172 
L 1287.021217 190.116658 
L 1287.484395 186.118489 
L 1287.947573 179.42065 
L 1288.410751 182.017345 
L 1288.873929 182.366813 
L 1289.337107 188.568061 
L 1289.800286 188.51902 
L 1290.263464 188.835528 
L 1290.726642 190.752063 
L 1291.18982 196.066405 
L 1291.652998 195.981409 
L 1292.116176 195.725623 
L 1292.579355 190.439043 
L 1293.505711 189.232329 
L 1293.968889 201.602966 
L 1294.432067 208.442428 
L 1294.895245 201.8165 
L 1295.358424 202.22889 
L 1296.28478 214.544494 
L 1296.747958 214.001063 
L 1297.211136 208.74145 
L 1297.674314 210.049735 
L 1298.137493 218.677989 
L 1298.600671 221.912897 
L 1299.063849 221.102795 
L 1299.527027 230.222443 
L 1299.990205 233.673085 
L 1300.453383 234.118434 
L 1300.916562 232.933794 
L 1301.37974 236.333499 
L 1303.695631 244.565141 
L 1304.158809 236.70174 
L 1304.621987 232.781475 
L 1305.085165 232.774382 
L 1305.548343 225.995643 
L 1306.011521 225.560079 
L 1310.643303 217.660723 
L 1311.106481 215.394417 
L 1312.032838 222.796083 
L 1312.496016 218.543228 
L 1312.959194 220.211069 
L 1313.422372 214.795648 
L 1314.348728 209.699732 
L 1315.275085 193.124976 
L 1315.738263 193.675196 
L 1316.201441 195.489856 
L 1316.664619 200.537528 
L 1317.127797 203.409883 
L 1317.590975 208.265791 
L 1318.054154 209.67595 
L 1318.98051 220.148827 
L 1319.443688 219.042091 
L 1323.612292 200.684535 
L 1324.538648 206.974572 
L 1325.001826 207.725544 
L 1325.465004 206.504949 
L 1325.928182 209.014751 
L 1326.391361 223.344971 
L 1326.854539 224.209803 
L 1327.317717 214.908176 
L 1327.780895 211.395409 
L 1328.244073 210.85797 
L 1328.707251 194.658852 
L 1329.633608 185.440022 
L 1330.096786 186.361784 
L 1330.559964 188.482067 
L 1331.023142 185.104132 
L 1331.48632 185.546485 
L 1331.949499 203.523207 
L 1332.412677 210.009104 
L 1333.339033 216.886417 
L 1334.265389 228.857447 
L 1334.728568 227.600895 
L 1335.654924 215.745318 
L 1336.118102 216.529249 
L 1336.58128 216.93265 
L 1337.044458 215.849885 
L 1337.507637 220.81366 
L 1337.970815 219.590068 
L 1338.433993 218.875847 
L 1338.897171 225.877109 
L 1339.360349 226.06178 
L 1339.823527 221.218653 
L 1340.286706 220.6932 
L 1340.749884 212.26949 
L 1341.213062 211.96876 
L 1341.67624 211.356413 
L 1342.602596 199.201206 
L 1343.065775 191.226942 
L 1343.528953 192.06181 
L 1343.992131 195.03604 
L 1344.918487 207.642285 
L 1345.381665 204.249369 
L 1345.844844 207.954697 
L 1346.308022 214.707265 
L 1347.234378 210.34844 
L 1347.697556 202.63785 
L 1348.160734 199.39475 
L 1348.623913 202.509805 
L 1349.087091 204.636081 
L 1349.550269 207.358621 
L 1350.013447 208.472146 
L 1351.402982 201.707288 
L 1351.86616 195.737551 
L 1352.329338 193.890728 
L 1352.792516 187.399634 
L 1353.255694 188.252481 
L 1353.718872 184.0206 
L 1354.182051 185.541622 
L 1354.645229 185.118043 
L 1355.108407 189.015134 
L 1355.571585 186.191516 
L 1356.034763 185.552203 
L 1356.497941 175.162918 
L 1356.96112 180.549172 
L 1357.887476 196.346481 
L 1358.350654 195.539376 
L 1358.813832 198.474653 
L 1359.27701 205.988283 
L 1359.740189 210.571527 
L 1360.203367 202.875919 
L 1361.129723 180.99471 
L 1361.592901 174.650435 
L 1362.056079 172.477015 
L 1362.519258 172.445951 
L 1362.982436 168.528683 
L 1363.445614 159.52369 
L 1363.908792 165.284482 
L 1364.37197 169.544126 
L 1364.835148 175.649492 
L 1365.298327 175.258873 
L 1366.224683 182.711476 
L 1366.687861 193.053616 
L 1367.151039 194.790372 
L 1367.614217 192.709837 
L 1368.077396 184.732577 
L 1368.540574 184.905263 
L 1369.003752 177.533255 
L 1369.46693 175.62351 
L 1369.930108 188.317748 
L 1370.856465 190.520828 
L 1371.319643 193.785699 
L 1372.709177 185.763494 
L 1373.172355 177.989982 
L 1373.635534 181.105038 
L 1374.56189 141.422788 
L 1375.025068 139.252364 
L 1375.488246 147.92856 
L 1376.414603 175.150774 
L 1376.877781 179.760986 
L 1378.267315 213.736869 
L 1379.65685 223.905224 
L 1380.120028 218.223132 
L 1380.583206 205.574634 
L 1381.046384 196.371885 
L 1381.509562 183.17806 
L 1381.972741 175.590319 
L 1382.435919 164.050454 
L 1382.899097 164.912289 
L 1383.362275 165.324679 
L 1383.825453 175.732738 
L 1384.288631 182.680066 
L 1385.678166 197.537636 
L 1386.141344 197.359754 
L 1386.604522 203.453135 
L 1387.0677 189.794883 
L 1387.530879 186.210204 
L 1388.457235 172.748608 
L 1388.920413 162.233478 
L 1389.846769 164.117053 
L 1390.309948 163.09721 
L 1390.773126 174.464086 
L 1391.236304 171.092144 
L 1391.699482 172.765978 
L 1392.16266 177.514019 
L 1392.625838 184.880829 
L 1393.089017 198.243244 
L 1393.552195 207.668515 
L 1394.015373 200.251563 
L 1394.478551 207.249828 
L 1394.941729 203.928824 
L 1395.404907 198.42651 
L 1395.868086 203.818757 
L 1396.331264 187.406902 
L 1396.794442 177.515003 
L 1397.25762 174.664418 
L 1397.720798 177.297069 
L 1398.183976 181.092286 
L 1398.647155 175.485102 
L 1399.110333 160.841066 
L 1399.573511 165.939674 
L 1400.036689 153.794555 
L 1400.499867 161.233277 
L 1401.426224 153.039183 
L 1401.889402 167.684015 
L 1402.35258 178.50856 
L 1402.815758 175.052722 
L 1403.278936 192.954536 
L 1403.742114 188.11141 
L 1404.205293 185.362699 
L 1404.668471 193.370719 
L 1405.594827 186.599868 
L 1406.058005 192.046048 
L 1406.521183 188.272602 
L 1406.984362 195.537538 
L 1407.44754 199.770215 
L 1407.910718 192.185471 
L 1408.373896 188.17232 
L 1408.837074 186.993673 
L 1409.300252 178.830641 
L 1409.763431 173.900622 
L 1410.226609 170.453772 
L 1410.689787 175.597326 
L 1411.152965 183.866024 
L 1411.616143 189.632808 
L 1412.079321 199.450595 
L 1412.5425 224.603464 
L 1413.005678 231.035428 
L 1413.468856 230.518964 
L 1413.932034 232.603291 
L 1414.395212 229.378168 
L 1414.85839 229.544861 
L 1415.321568 224.390119 
L 1416.247925 208.958055 
L 1416.711103 210.871593 
L 1417.174281 216.967971 
L 1417.637459 210.80647 
L 1418.100637 210.373903 
L 1418.563816 201.177147 
L 1419.490172 190.304357 
L 1419.95335 188.424574 
L 1420.416528 180.971667 
L 1420.879706 177.479873 
L 1421.342885 179.135729 
L 1421.806063 181.801339 
L 1422.269241 183.283409 
L 1422.732419 181.817117 
L 1423.195597 181.333612 
L 1423.658775 180.66134 
L 1424.121954 188.14201 
L 1424.585132 190.600875 
L 1425.04831 198.842606 
L 1425.511488 210.353305 
L 1425.974666 204.278697 
L 1426.437844 207.103112 
L 1426.901023 211.308822 
L 1427.364201 211.87702 
L 1427.827379 209.047409 
L 1428.290557 204.689683 
L 1428.753735 194.609018 
L 1429.680092 210.602186 
L 1430.14327 211.42507 
L 1430.606448 214.348362 
L 1431.069626 212.918025 
L 1431.532804 223.778526 
L 1431.995982 226.758748 
L 1432.922339 237.235722 
L 1433.385517 231.805319 
L 1433.848695 232.586255 
L 1434.311873 234.158214 
L 1436.164586 210.997583 
L 1436.627764 206.166441 
L 1437.090942 195.456552 
L 1437.55412 192.872638 
L 1438.480477 184.238087 
L 1438.943655 189.825093 
L 1440.333189 192.982097 
L 1440.796368 189.409403 
L 1441.722724 187.109038 
L 1442.185902 190.403872 
L 1442.64908 189.240206 
L 1443.112258 186.422581 
L 1443.575437 182.112796 
L 1444.038615 178.896662 
L 1444.501793 178.164464 
L 1444.964971 179.589604 
L 1445.428149 172.175649 
L 1445.891327 170.502611 
L 1446.354506 167.987613 
L 1446.817684 170.533371 
L 1447.280862 167.988409 
L 1447.74404 164.778267 
L 1448.670396 172.875076 
L 1449.133575 173.491215 
L 1449.596753 172.453393 
L 1450.059931 176.695059 
L 1450.523109 183.939022 
L 1450.986287 180.237486 
L 1451.449465 168.92534 
L 1451.912644 165.936925 
L 1452.375822 166.388267 
L 1452.839 174.45022 
L 1453.302178 172.777182 
L 1454.691713 191.842359 
L 1455.154891 194.187364 
L 1455.618069 194.473909 
L 1456.081247 192.255545 
L 1457.007603 201.490179 
L 1457.93396 197.370316 
L 1458.397138 197.657988 
L 1458.860316 191.266899 
L 1459.323494 190.314101 
L 1459.786672 186.958268 
L 1460.249851 175.391436 
L 1461.176207 168.103325 
L 1461.639385 165.923912 
L 1462.102563 163.073328 
L 1462.565741 163.875237 
L 1463.02892 162.38797 
L 1464.418454 159.165844 
L 1464.881632 159.494337 
L 1465.807989 171.54327 
L 1466.271167 164.929328 
L 1466.734345 163.912481 
L 1468.123879 157.409402 
L 1468.587058 154.58878 
L 1469.050236 150.644544 
L 1469.513414 142.145927 
L 1470.43977 134.809876 
L 1470.902948 135.081439 
L 1471.829305 126.8424 
L 1472.292483 127.371646 
L 1472.755661 126.45967 
L 1473.218839 131.860905 
L 1474.608374 128.162366 
L 1475.071552 125.164962 
L 1475.53473 117.349502 
L 1475.997908 113.49216 
L 1477.387443 97.902445 
L 1477.850621 87.466347 
L 1478.313799 83.753953 
L 1478.776977 82.058072 
L 1479.703334 86.169028 
L 1480.166512 87.172816 
L 1480.62969 90.623458 
L 1481.092868 88.647794 
L 1481.556046 85.779231 
L 1482.019224 89.951982 
L 1482.482403 92.536692 
L 1482.945581 90.971522 
L 1483.408759 92.091039 
L 1483.871937 95.991126 
L 1484.335115 89.799663 
L 1484.798293 92.456284 
L 1485.261472 91.313592 
L 1485.72465 91.27354 
L 1486.187828 96.318216 
L 1486.651006 96.976302 
L 1487.114184 89.48744 
L 1487.577362 96.983091 
L 1488.040541 97.230684 
L 1488.503719 97.846823 
L 1488.966897 95.523587 
L 1489.430075 86.045179 
L 1489.893253 86.053068 
L 1490.81961 91.453203 
L 1491.282788 103.874778 
L 1492.672322 101.674391 
L 1493.1355 108.91236 
L 1493.598679 127.053879 
L 1494.061857 131.355471 
L 1494.525035 138.952997 
L 1495.451391 148.842695 
L 1495.914569 149.701534 
L 1496.377748 162.926119 
L 1496.840926 164.959509 
L 1497.304104 174.540588 
L 1497.767282 177.9343 
L 1498.23046 183.775992 
L 1498.693638 185.836349 
L 1499.156817 191.29751 
L 1499.619995 189.510613 
L 1500.083173 191.373214 
L 1500.546351 175.980102 
L 1501.009529 172.641119 
L 1501.472707 167.914849 
L 1501.935886 157.468634 
L 1502.862242 130.529664 
L 1503.32542 125.180162 
L 1503.788598 121.469638 
L 1504.251776 124.614656 
L 1504.714955 124.86225 
L 1505.178133 125.858919 
L 1505.641311 134.001772 
L 1506.567667 134.429143 
L 1507.030845 140.168961 
L 1507.494024 148.212936 
L 1507.957202 140.837933 
L 1508.42038 135.865965 
L 1508.883558 136.473115 
L 1509.346736 131.45021 
L 1509.809914 139.641004 
L 1510.273093 135.87355 
L 1510.736271 129.789953 
L 1511.199449 129.009814 
L 1511.662627 129.940565 
L 1512.125805 119.764017 
L 1512.588983 120.95245 
L 1513.052161 123.61806 
L 1513.978518 116.890258 
L 1515.368052 112.044135 
L 1516.294409 98.693402 
L 1516.757587 102.389741 
L 1517.220765 98.682213 
L 1517.683943 91.627814 
L 1518.147121 88.810189 
L 1519.073478 107.64575 
L 1519.536656 107.908324 
L 1519.999834 113.063863 
L 1520.463012 110.111404 
L 1520.92619 112.225694 
L 1521.389368 112.844829 
L 1521.852547 108.460136 
L 1522.778903 104.838401 
L 1523.242081 100.106138 
L 1523.705259 98.394148 
L 1524.168437 84.142628 
L 1524.631616 81.486803 
L 1525.094794 75.639914 
L 1525.557972 72.348873 
L 1526.02115 77.720145 
L 1526.484328 81.635214 
L 1526.947506 82.200415 
L 1527.873863 94.015637 
L 1528.337041 95.443774 
L 1529.263397 94.902239 
L 1529.726575 92.372258 
L 1530.189754 96.53602 
L 1530.652932 94.155855 
L 1531.11611 89.318721 
L 1531.579288 91.714664 
L 1532.042466 97.1968 
L 1532.505644 99.757539 
L 1532.968823 95.528655 
L 1533.432001 84.528124 
L 1533.895179 93.144393 
L 1534.358357 97.601793 
L 1534.821535 93.918235 
L 1535.284713 85.18291 
L 1536.21107 90.341445 
L 1536.674248 93.869991 
L 1537.137426 102.95668 
L 1537.600604 99.974257 
L 1538.063782 99.964168 
L 1538.526961 104.903973 
L 1538.990139 102.514819 
L 1539.453317 92.772736 
L 1539.916495 92.079489 
L 1540.379673 99.398359 
L 1540.842851 103.355376 
L 1541.30603 103.087605 
L 1542.232386 109.925966 
L 1544.085099 116.744453 
L 1544.548277 120.584614 
L 1545.011455 114.354199 
L 1548.71688 108.759 
L 1549.180058 112.500283 
L 1549.643237 110.611512 
L 1550.106415 112.486098 
L 1550.569593 113.515726 
L 1551.032771 110.847916 
L 1551.495949 114.259606 
L 1551.959127 122.072866 
L 1552.422306 124.097267 
L 1552.885484 119.490848 
L 1553.348662 125.961764 
L 1553.81184 121.487182 
L 1554.275018 127.313893 
L 1554.738196 118.434745 
L 1555.201375 118.805187 
L 1555.664553 122.315754 
L 1556.590909 147.155908 
L 1556.590909 147.155908 
" clip-path="url(#pe14065e5ea)" style="fill: none; stroke: #e18632; stroke-width: 2.5; stroke-linecap: square"/>
   </g>
   <g id="patch_3">
    <path d="M 225 320.4 
L 225 43.2 
" style="fill: none; stroke: #000000; stroke-width: 0.8; stroke-linejoin: miter; stroke-linecap: square"/>
   </g>
   <g id="patch_4">
    <path d="M 1620 320.4 
L 1620 43.2 
" style="fill: none; stroke: #000000; stroke-width: 0.8; stroke-linejoin: miter; stroke-linecap: square"/>
   </g>
   <g id="patch_5">
    <path d="M 225 320.4 
L 1620 320.4 
" style="fill: none; stroke: #000000; stroke-width: 0.8; stroke-linejoin: miter; stroke-linecap: square"/>
   </g>
   <g id="patch_6">
    <path d="M 225 43.2 
L 1620 43.2 
" style="fill: none; stroke: #000000; stroke-width: 0.8; stroke-linejoin: miter; stroke-linecap: square"/>
   </g>
   <g id="text_18">
    <!-- BRSE -->
    <g transform="translate(896.023438 37.2) scale(0.2 -0.2)">
     <defs>
      <path id="DejaVuSans-42" d="M 1259 2228 
L 1259 519 
L 2272 519 
Q 2781 519 3026 730 
Q 3272 941 3272 1375 
Q 3272 1813 3026 2020 
Q 2781 2228 2272 2228 
L 1259 2228 
z
M 1259 4147 
L 1259 2741 
L 2194 2741 
Q 2656 2741 2882 2914 
Q 3109 3088 3109 3444 
Q 3109 3797 2882 3972 
Q 2656 4147 2194 4147 
L 1259 4147 
z
M 628 4666 
L 2241 4666 
Q 2963 4666 3353 4366 
Q 3744 4066 3744 3513 
Q 3744 3084 3544 2831 
Q 3344 2578 2956 2516 
Q 3422 2416 3680 2098 
Q 3938 1781 3938 1306 
Q 3938 681 3513 340 
Q 3088 0 2303 0 
L 628 0 
L 628 4666 
z
" transform="scale(0.015625)"/>
      <path id="DejaVuSans-52" d="M 2841 2188 
Q 3044 2119 3236 1894 
Q 3428 1669 3622 1275 
L 4263 0 
L 3584 0 
L 2988 1197 
Q 2756 1666 2539 1819 
Q 2322 1972 1947 1972 
L 1259 1972 
L 1259 0 
L 628 0 
L 628 4666 
L 2053 4666 
Q 2853 4666 3247 4331 
Q 3641 3997 3641 3322 
Q 3641 2881 3436 2590 
Q 3231 2300 2841 2188 
z
M 1259 4147 
L 1259 2491 
L 2053 2491 
Q 2509 2491 2742 2702 
Q 2975 2913 2975 3322 
Q 2975 3731 2742 3939 
Q 2509 4147 2053 4147 
L 1259 4147 
z
" transform="scale(0.015625)"/>
      <path id="DejaVuSans-53" d="M 3425 4513 
L 3425 3897 
Q 3066 4069 2747 4153 
Q 2428 4238 2131 4238 
Q 1616 4238 1336 4038 
Q 1056 3838 1056 3469 
Q 1056 3159 1242 3001 
Q 1428 2844 1947 2747 
L 2328 2669 
Q 3034 2534 3370 2195 
Q 3706 1856 3706 1288 
Q 3706 609 3251 259 
Q 2797 -91 1919 -91 
Q 1588 -91 1214 -16 
Q 841 59 441 206 
L 441 856 
Q 825 641 1194 531 
Q 1563 422 1919 422 
Q 2459 422 2753 634 
Q 3047 847 3047 1241 
Q 3047 1584 2836 1778 
Q 2625 1972 2144 2069 
L 1759 2144 
Q 1053 2284 737 2584 
Q 422 2884 422 3419 
Q 422 4038 858 4394 
Q 1294 4750 2059 4750 
Q 2388 4750 2728 4690 
Q 3069 4631 3425 4513 
z
" transform="scale(0.015625)"/>
      <path id="DejaVuSans-45" d="M 628 4666 
L 3578 4666 
L 3578 4134 
L 1259 4134 
L 1259 2753 
L 3481 2753 
L 3481 2222 
L 1259 2222 
L 1259 531 
L 3634 531 
L 3634 0 
L 628 0 
L 628 4666 
z
" transform="scale(0.015625)"/>
     </defs>
     <use xlink:href="#DejaVuSans-42"/>
     <use xlink:href="#DejaVuSans-52" x="68.603516"/>
     <use xlink:href="#DejaVuSans-53" x="138.085938"/>
     <use xlink:href="#DejaVuSans-45" x="201.5625"/>
    </g>
   </g>
   <g id="legend_1">
    <g id="patch_7">
     <path d="M 1559.178125 65.878125 
L 1613 65.878125 
Q 1615 65.878125 1615 63.878125 
L 1615 50.2 
Q 1615 48.2 1613 48.2 
L 1559.178125 48.2 
Q 1557.178125 48.2 1557.178125 50.2 
L 1557.178125 63.878125 
Q 1557.178125 65.878125 1559.178125 65.878125 
z
" style="fill: #ffffff; opacity: 0.8; stroke: #cccccc; stroke-linejoin: miter"/>
    </g>
    <g id="line2d_17">
     <path d="M 1561.178125 56.298437 
L 1571.178125 56.298437 
L 1581.178125 56.298437 
" style="fill: none; stroke: #e18632; stroke-width: 2.5; stroke-linecap: square"/>
    </g>
    <g id="text_19">
     <!-- brse -->
     <g transform="translate(1589.178125 59.798437) scale(0.1 -0.1)">
      <defs>
       <path id="DejaVuSans-62" d="M 3116 1747 
Q 3116 2381 2855 2742 
Q 2594 3103 2138 3103 
Q 1681 3103 1420 2742 
Q 1159 2381 1159 1747 
Q 1159 1113 1420 752 
Q 1681 391 2138 391 
Q 2594 391 2855 752 
Q 3116 1113 3116 1747 
z
M 1159 2969 
Q 1341 3281 1617 3432 
Q 1894 3584 2278 3584 
Q 2916 3584 3314 3078 
Q 3713 2572 3713 1747 
Q 3713 922 3314 415 
Q 2916 -91 2278 -91 
Q 1894 -91 1617 61 
Q 1341 213 1159 525 
L 1159 0 
L 581 0 
L 581 4863 
L 1159 4863 
L 1159 2969 
z
" transform="scale(0.015625)"/>
       <path id="DejaVuSans-73" d="M 2834 3397 
L 2834 2853 
Q 2591 2978 2328 3040 
Q 2066 3103 1784 3103 
Q 1356 3103 1142 2972 
Q 928 2841 928 2578 
Q 928 2378 1081 2264 
Q 1234 2150 1697 2047 
L 1894 2003 
Q 2506 1872 2764 1633 
Q 3022 1394 3022 966 
Q 3022 478 2636 193 
Q 2250 -91 1575 -91 
Q 1294 -91 989 -36 
Q 684 19 347 128 
L 347 722 
Q 666 556 975 473 
Q 1284 391 1588 391 
Q 1994 391 2212 530 
Q 2431 669 2431 922 
Q 2431 1156 2273 1281 
Q 2116 1406 1581 1522 
L 1381 1569 
Q 847 1681 609 1914 
Q 372 2147 372 2553 
Q 372 3047 722 3315 
Q 1072 3584 1716 3584 
Q 2034 3584 2315 3537 
Q 2597 3491 2834 3397 
z
" transform="scale(0.015625)"/>
      </defs>
      <use xlink:href="#DejaVuSans-62"/>
      <use xlink:href="#DejaVuSans-72" x="63.476562"/>
      <use xlink:href="#DejaVuSans-73" x="104.589844"/>
      <use xlink:href="#DejaVuSans-65" x="156.689453"/>
     </g>
    </g>
   </g>
  </g>
 </g>
 <defs>
  <clipPath id="pe14065e5ea">
   <rect x="225" y="43.2" width="1395" height="277.2"/>
  </clipPath>
 </defs>
</svg>
