<?xml version="1.0" encoding="utf-8" standalone="no"?>
<!DOCTYPE svg PUBLIC "-//W3C//DTD SVG 1.1//EN"
  "http://www.w3.org/Graphics/SVG/1.1/DTD/svg11.dtd">
<svg xmlns:xlink="http://www.w3.org/1999/xlink" width="1800pt" height="360pt" viewBox="0 0 1800 360" xmlns="http://www.w3.org/2000/svg" version="1.1">
 <metadata>
  <rdf:RDF xmlns:dc="http://purl.org/dc/elements/1.1/" xmlns:cc="http://creativecommons.org/ns#" xmlns:rdf="http://www.w3.org/1999/02/22-rdf-syntax-ns#">
   <cc:Work>
    <dc:type rdf:resource="http://purl.org/dc/dcmitype/StillImage"/>
    <dc:date>2024-03-25T15:23:14.071347</dc:date>
    <dc:format>image/svg+xml</dc:format>
    <dc:creator>
     <cc:Agent>
      <dc:title>Matplotlib v3.7.2, https://matplotlib.org/</dc:title>
     </cc:Agent>
    </dc:creator>
   </cc:Work>
  </rdf:RDF>
 </metadata>
 <defs>
  <style type="text/css">*{stroke-linejoin: round; stroke-linecap: butt}</style>
 </defs>
 <g id="figure_1">
  <g id="patch_1">
   <path d="M 0 360 
L 1800 360 
L 1800 0 
L 0 0 
z
" style="fill: #ffffff"/>
  </g>
  <g id="axes_1">
   <g id="patch_2">
    <path d="M 225 320.4 
L 1620 320.4 
L 1620 43.2 
L 225 43.2 
z
" style="fill: #ffffff"/>
   </g>
   <g id="matplotlib.axis_1">
    <g id="xtick_1">
     <g id="line2d_1">
      <defs>
       <path id="m44f2074650" d="M 0 0 
L 0 3.5 
" style="stroke: #000000; stroke-width: 0.8"/>
      </defs>
      <g>
       <use xlink:href="#m44f2074650" x="281.924597" y="320.4" style="stroke: #000000; stroke-width: 0.8"/>
      </g>
     </g>
     <g id="text_1">
      <!-- 2011 -->
      <g transform="translate(262.837097 338.797656) scale(0.15 -0.15)">
       <defs>
        <path id="DejaVuSans-32" d="M 1228 531 
L 3431 531 
L 3431 0 
L 469 0 
L 469 531 
Q 828 903 1448 1529 
Q 2069 2156 2228 2338 
Q 2531 2678 2651 2914 
Q 2772 3150 2772 3378 
Q 2772 3750 2511 3984 
Q 2250 4219 1831 4219 
Q 1534 4219 1204 4116 
Q 875 4013 500 3803 
L 500 4441 
Q 881 4594 1212 4672 
Q 1544 4750 1819 4750 
Q 2544 4750 2975 4387 
Q 3406 4025 3406 3419 
Q 3406 3131 3298 2873 
Q 3191 2616 2906 2266 
Q 2828 2175 2409 1742 
Q 1991 1309 1228 531 
z
" transform="scale(0.015625)"/>
        <path id="DejaVuSans-30" d="M 2034 4250 
Q 1547 4250 1301 3770 
Q 1056 3291 1056 2328 
Q 1056 1369 1301 889 
Q 1547 409 2034 409 
Q 2525 409 2770 889 
Q 3016 1369 3016 2328 
Q 3016 3291 2770 3770 
Q 2525 4250 2034 4250 
z
M 2034 4750 
Q 2819 4750 3233 4129 
Q 3647 3509 3647 2328 
Q 3647 1150 3233 529 
Q 2819 -91 2034 -91 
Q 1250 -91 836 529 
Q 422 1150 422 2328 
Q 422 3509 836 4129 
Q 1250 4750 2034 4750 
z
" transform="scale(0.015625)"/>
        <path id="DejaVuSans-31" d="M 794 531 
L 1825 531 
L 1825 4091 
L 703 3866 
L 703 4441 
L 1819 4666 
L 2450 4666 
L 2450 531 
L 3481 531 
L 3481 0 
L 794 0 
L 794 531 
z
" transform="scale(0.015625)"/>
       </defs>
       <use xlink:href="#DejaVuSans-32"/>
       <use xlink:href="#DejaVuSans-30" x="63.623047"/>
       <use xlink:href="#DejaVuSans-31" x="127.246094"/>
       <use xlink:href="#DejaVuSans-31" x="190.869141"/>
      </g>
     </g>
    </g>
    <g id="xtick_2">
     <g id="line2d_2">
      <g>
       <use xlink:href="#m44f2074650" x="450.984627" y="320.4" style="stroke: #000000; stroke-width: 0.8"/>
      </g>
     </g>
     <g id="text_2">
      <!-- 2012 -->
      <g transform="translate(431.897127 338.797656) scale(0.15 -0.15)">
       <use xlink:href="#DejaVuSans-32"/>
       <use xlink:href="#DejaVuSans-30" x="63.623047"/>
       <use xlink:href="#DejaVuSans-31" x="127.246094"/>
       <use xlink:href="#DejaVuSans-32" x="190.869141"/>
      </g>
     </g>
    </g>
    <g id="xtick_3">
     <g id="line2d_3">
      <g>
       <use xlink:href="#m44f2074650" x="620.507836" y="320.4" style="stroke: #000000; stroke-width: 0.8"/>
      </g>
     </g>
     <g id="text_3">
      <!-- 2013 -->
      <g transform="translate(601.420336 338.797656) scale(0.15 -0.15)">
       <defs>
        <path id="DejaVuSans-33" d="M 2597 2516 
Q 3050 2419 3304 2112 
Q 3559 1806 3559 1356 
Q 3559 666 3084 287 
Q 2609 -91 1734 -91 
Q 1441 -91 1130 -33 
Q 819 25 488 141 
L 488 750 
Q 750 597 1062 519 
Q 1375 441 1716 441 
Q 2309 441 2620 675 
Q 2931 909 2931 1356 
Q 2931 1769 2642 2001 
Q 2353 2234 1838 2234 
L 1294 2234 
L 1294 2753 
L 1863 2753 
Q 2328 2753 2575 2939 
Q 2822 3125 2822 3475 
Q 2822 3834 2567 4026 
Q 2313 4219 1838 4219 
Q 1578 4219 1281 4162 
Q 984 4106 628 3988 
L 628 4550 
Q 988 4650 1302 4700 
Q 1616 4750 1894 4750 
Q 2613 4750 3031 4423 
Q 3450 4097 3450 3541 
Q 3450 3153 3228 2886 
Q 3006 2619 2597 2516 
z
" transform="scale(0.015625)"/>
       </defs>
       <use xlink:href="#DejaVuSans-32"/>
       <use xlink:href="#DejaVuSans-30" x="63.623047"/>
       <use xlink:href="#DejaVuSans-31" x="127.246094"/>
       <use xlink:href="#DejaVuSans-33" x="190.869141"/>
      </g>
     </g>
    </g>
    <g id="xtick_4">
     <g id="line2d_4">
      <g>
       <use xlink:href="#m44f2074650" x="789.567866" y="320.4" style="stroke: #000000; stroke-width: 0.8"/>
      </g>
     </g>
     <g id="text_4">
      <!-- 2014 -->
      <g transform="translate(770.480366 338.797656) scale(0.15 -0.15)">
       <defs>
        <path id="DejaVuSans-34" d="M 2419 4116 
L 825 1625 
L 2419 1625 
L 2419 4116 
z
M 2253 4666 
L 3047 4666 
L 3047 1625 
L 3713 1625 
L 3713 1100 
L 3047 1100 
L 3047 0 
L 2419 0 
L 2419 1100 
L 313 1100 
L 313 1709 
L 2253 4666 
z
" transform="scale(0.015625)"/>
       </defs>
       <use xlink:href="#DejaVuSans-32"/>
       <use xlink:href="#DejaVuSans-30" x="63.623047"/>
       <use xlink:href="#DejaVuSans-31" x="127.246094"/>
       <use xlink:href="#DejaVuSans-34" x="190.869141"/>
      </g>
     </g>
    </g>
    <g id="xtick_5">
     <g id="line2d_5">
      <g>
       <use xlink:href="#m44f2074650" x="958.627897" y="320.4" style="stroke: #000000; stroke-width: 0.8"/>
      </g>
     </g>
     <g id="text_5">
      <!-- 2015 -->
      <g transform="translate(939.540397 338.797656) scale(0.15 -0.15)">
       <defs>
        <path id="DejaVuSans-35" d="M 691 4666 
L 3169 4666 
L 3169 4134 
L 1269 4134 
L 1269 2991 
Q 1406 3038 1543 3061 
Q 1681 3084 1819 3084 
Q 2600 3084 3056 2656 
Q 3513 2228 3513 1497 
Q 3513 744 3044 326 
Q 2575 -91 1722 -91 
Q 1428 -91 1123 -41 
Q 819 9 494 109 
L 494 744 
Q 775 591 1075 516 
Q 1375 441 1709 441 
Q 2250 441 2565 725 
Q 2881 1009 2881 1497 
Q 2881 1984 2565 2268 
Q 2250 2553 1709 2553 
Q 1456 2553 1204 2497 
Q 953 2441 691 2322 
L 691 4666 
z
" transform="scale(0.015625)"/>
       </defs>
       <use xlink:href="#DejaVuSans-32"/>
       <use xlink:href="#DejaVuSans-30" x="63.623047"/>
       <use xlink:href="#DejaVuSans-31" x="127.246094"/>
       <use xlink:href="#DejaVuSans-35" x="190.869141"/>
      </g>
     </g>
    </g>
    <g id="xtick_6">
     <g id="line2d_6">
      <g>
       <use xlink:href="#m44f2074650" x="1127.687927" y="320.4" style="stroke: #000000; stroke-width: 0.8"/>
      </g>
     </g>
     <g id="text_6">
      <!-- 2016 -->
      <g transform="translate(1108.600427 338.797656) scale(0.15 -0.15)">
       <defs>
        <path id="DejaVuSans-36" d="M 2113 2584 
Q 1688 2584 1439 2293 
Q 1191 2003 1191 1497 
Q 1191 994 1439 701 
Q 1688 409 2113 409 
Q 2538 409 2786 701 
Q 3034 994 3034 1497 
Q 3034 2003 2786 2293 
Q 2538 2584 2113 2584 
z
M 3366 4563 
L 3366 3988 
Q 3128 4100 2886 4159 
Q 2644 4219 2406 4219 
Q 1781 4219 1451 3797 
Q 1122 3375 1075 2522 
Q 1259 2794 1537 2939 
Q 1816 3084 2150 3084 
Q 2853 3084 3261 2657 
Q 3669 2231 3669 1497 
Q 3669 778 3244 343 
Q 2819 -91 2113 -91 
Q 1303 -91 875 529 
Q 447 1150 447 2328 
Q 447 3434 972 4092 
Q 1497 4750 2381 4750 
Q 2619 4750 2861 4703 
Q 3103 4656 3366 4563 
z
" transform="scale(0.015625)"/>
       </defs>
       <use xlink:href="#DejaVuSans-32"/>
       <use xlink:href="#DejaVuSans-30" x="63.623047"/>
       <use xlink:href="#DejaVuSans-31" x="127.246094"/>
       <use xlink:href="#DejaVuSans-36" x="190.869141"/>
      </g>
     </g>
    </g>
    <g id="xtick_7">
     <g id="line2d_7">
      <g>
       <use xlink:href="#m44f2074650" x="1297.211136" y="320.4" style="stroke: #000000; stroke-width: 0.8"/>
      </g>
     </g>
     <g id="text_7">
      <!-- 2017 -->
      <g transform="translate(1278.123636 338.797656) scale(0.15 -0.15)">
       <defs>
        <path id="DejaVuSans-37" d="M 525 4666 
L 3525 4666 
L 3525 4397 
L 1831 0 
L 1172 0 
L 2766 4134 
L 525 4134 
L 525 4666 
z
" transform="scale(0.015625)"/>
       </defs>
       <use xlink:href="#DejaVuSans-32"/>
       <use xlink:href="#DejaVuSans-30" x="63.623047"/>
       <use xlink:href="#DejaVuSans-31" x="127.246094"/>
       <use xlink:href="#DejaVuSans-37" x="190.869141"/>
      </g>
     </g>
    </g>
    <g id="xtick_8">
     <g id="line2d_8">
      <g>
       <use xlink:href="#m44f2074650" x="1466.271167" y="320.4" style="stroke: #000000; stroke-width: 0.8"/>
      </g>
     </g>
     <g id="text_8">
      <!-- 2018 -->
      <g transform="translate(1447.183667 338.797656) scale(0.15 -0.15)">
       <defs>
        <path id="DejaVuSans-38" d="M 2034 2216 
Q 1584 2216 1326 1975 
Q 1069 1734 1069 1313 
Q 1069 891 1326 650 
Q 1584 409 2034 409 
Q 2484 409 2743 651 
Q 3003 894 3003 1313 
Q 3003 1734 2745 1975 
Q 2488 2216 2034 2216 
z
M 1403 2484 
Q 997 2584 770 2862 
Q 544 3141 544 3541 
Q 544 4100 942 4425 
Q 1341 4750 2034 4750 
Q 2731 4750 3128 4425 
Q 3525 4100 3525 3541 
Q 3525 3141 3298 2862 
Q 3072 2584 2669 2484 
Q 3125 2378 3379 2068 
Q 3634 1759 3634 1313 
Q 3634 634 3220 271 
Q 2806 -91 2034 -91 
Q 1263 -91 848 271 
Q 434 634 434 1313 
Q 434 1759 690 2068 
Q 947 2378 1403 2484 
z
M 1172 3481 
Q 1172 3119 1398 2916 
Q 1625 2713 2034 2713 
Q 2441 2713 2670 2916 
Q 2900 3119 2900 3481 
Q 2900 3844 2670 4047 
Q 2441 4250 2034 4250 
Q 1625 4250 1398 4047 
Q 1172 3844 1172 3481 
z
" transform="scale(0.015625)"/>
       </defs>
       <use xlink:href="#DejaVuSans-32"/>
       <use xlink:href="#DejaVuSans-30" x="63.623047"/>
       <use xlink:href="#DejaVuSans-31" x="127.246094"/>
       <use xlink:href="#DejaVuSans-38" x="190.869141"/>
      </g>
     </g>
    </g>
    <g id="text_9">
     <!-- Time -->
     <g transform="translate(904.149609 357.314844) scale(0.15 -0.15)">
      <defs>
       <path id="DejaVuSans-54" d="M -19 4666 
L 3928 4666 
L 3928 4134 
L 2272 4134 
L 2272 0 
L 1638 0 
L 1638 4134 
L -19 4134 
L -19 4666 
z
" transform="scale(0.015625)"/>
       <path id="DejaVuSans-69" d="M 603 3500 
L 1178 3500 
L 1178 0 
L 603 0 
L 603 3500 
z
M 603 4863 
L 1178 4863 
L 1178 4134 
L 603 4134 
L 603 4863 
z
" transform="scale(0.015625)"/>
       <path id="DejaVuSans-6d" d="M 3328 2828 
Q 3544 3216 3844 3400 
Q 4144 3584 4550 3584 
Q 5097 3584 5394 3201 
Q 5691 2819 5691 2113 
L 5691 0 
L 5113 0 
L 5113 2094 
Q 5113 2597 4934 2840 
Q 4756 3084 4391 3084 
Q 3944 3084 3684 2787 
Q 3425 2491 3425 1978 
L 3425 0 
L 2847 0 
L 2847 2094 
Q 2847 2600 2669 2842 
Q 2491 3084 2119 3084 
Q 1678 3084 1418 2786 
Q 1159 2488 1159 1978 
L 1159 0 
L 581 0 
L 581 3500 
L 1159 3500 
L 1159 2956 
Q 1356 3278 1631 3431 
Q 1906 3584 2284 3584 
Q 2666 3584 2933 3390 
Q 3200 3197 3328 2828 
z
" transform="scale(0.015625)"/>
       <path id="DejaVuSans-65" d="M 3597 1894 
L 3597 1613 
L 953 1613 
Q 991 1019 1311 708 
Q 1631 397 2203 397 
Q 2534 397 2845 478 
Q 3156 559 3463 722 
L 3463 178 
Q 3153 47 2828 -22 
Q 2503 -91 2169 -91 
Q 1331 -91 842 396 
Q 353 884 353 1716 
Q 353 2575 817 3079 
Q 1281 3584 2069 3584 
Q 2775 3584 3186 3129 
Q 3597 2675 3597 1894 
z
M 3022 2063 
Q 3016 2534 2758 2815 
Q 2500 3097 2075 3097 
Q 1594 3097 1305 2825 
Q 1016 2553 972 2059 
L 3022 2063 
z
" transform="scale(0.015625)"/>
      </defs>
      <use xlink:href="#DejaVuSans-54"/>
      <use xlink:href="#DejaVuSans-69" x="57.958984"/>
      <use xlink:href="#DejaVuSans-6d" x="85.742188"/>
      <use xlink:href="#DejaVuSans-65" x="183.154297"/>
     </g>
    </g>
   </g>
   <g id="matplotlib.axis_2">
    <g id="ytick_1">
     <g id="line2d_9">
      <defs>
       <path id="m66d0d8dce3" d="M 0 0 
L -3.5 0 
" style="stroke: #000000; stroke-width: 0.8"/>
      </defs>
      <g>
       <use xlink:href="#m66d0d8dce3" x="225" y="300.881433" style="stroke: #000000; stroke-width: 0.8"/>
      </g>
     </g>
     <g id="text_10">
      <!-- −0.003 -->
      <g transform="translate(162.488281 306.580261) scale(0.15 -0.15)">
       <defs>
        <path id="DejaVuSans-2212" d="M 678 2272 
L 4684 2272 
L 4684 1741 
L 678 1741 
L 678 2272 
z
" transform="scale(0.015625)"/>
        <path id="DejaVuSans-2e" d="M 684 794 
L 1344 794 
L 1344 0 
L 684 0 
L 684 794 
z
" transform="scale(0.015625)"/>
       </defs>
       <use xlink:href="#DejaVuSans-2212"/>
       <use xlink:href="#DejaVuSans-30" x="83.789062"/>
       <use xlink:href="#DejaVuSans-2e" x="147.412109"/>
       <use xlink:href="#DejaVuSans-30" x="179.199219"/>
       <use xlink:href="#DejaVuSans-30" x="242.822266"/>
       <use xlink:href="#DejaVuSans-33" x="306.445312"/>
      </g>
     </g>
    </g>
    <g id="ytick_2">
     <g id="line2d_10">
      <g>
       <use xlink:href="#m66d0d8dce3" x="225" y="263.878922" style="stroke: #000000; stroke-width: 0.8"/>
      </g>
     </g>
     <g id="text_11">
      <!-- −0.002 -->
      <g transform="translate(162.488281 269.57775) scale(0.15 -0.15)">
       <use xlink:href="#DejaVuSans-2212"/>
       <use xlink:href="#DejaVuSans-30" x="83.789062"/>
       <use xlink:href="#DejaVuSans-2e" x="147.412109"/>
       <use xlink:href="#DejaVuSans-30" x="179.199219"/>
       <use xlink:href="#DejaVuSans-30" x="242.822266"/>
       <use xlink:href="#DejaVuSans-32" x="306.445312"/>
      </g>
     </g>
    </g>
    <g id="ytick_3">
     <g id="line2d_11">
      <g>
       <use xlink:href="#m66d0d8dce3" x="225" y="226.876411" style="stroke: #000000; stroke-width: 0.8"/>
      </g>
     </g>
     <g id="text_12">
      <!-- −0.001 -->
      <g transform="translate(162.488281 232.575239) scale(0.15 -0.15)">
       <use xlink:href="#DejaVuSans-2212"/>
       <use xlink:href="#DejaVuSans-30" x="83.789062"/>
       <use xlink:href="#DejaVuSans-2e" x="147.412109"/>
       <use xlink:href="#DejaVuSans-30" x="179.199219"/>
       <use xlink:href="#DejaVuSans-30" x="242.822266"/>
       <use xlink:href="#DejaVuSans-31" x="306.445312"/>
      </g>
     </g>
    </g>
    <g id="ytick_4">
     <g id="line2d_12">
      <g>
       <use xlink:href="#m66d0d8dce3" x="225" y="189.873901" style="stroke: #000000; stroke-width: 0.8"/>
      </g>
     </g>
     <g id="text_13">
      <!-- 0.000 -->
      <g transform="translate(175.057813 195.572729) scale(0.15 -0.15)">
       <use xlink:href="#DejaVuSans-30"/>
       <use xlink:href="#DejaVuSans-2e" x="63.623047"/>
       <use xlink:href="#DejaVuSans-30" x="95.410156"/>
       <use xlink:href="#DejaVuSans-30" x="159.033203"/>
       <use xlink:href="#DejaVuSans-30" x="222.65625"/>
      </g>
     </g>
    </g>
    <g id="ytick_5">
     <g id="line2d_13">
      <g>
       <use xlink:href="#m66d0d8dce3" x="225" y="152.87139" style="stroke: #000000; stroke-width: 0.8"/>
      </g>
     </g>
     <g id="text_14">
      <!-- 0.001 -->
      <g transform="translate(175.057813 158.570218) scale(0.15 -0.15)">
       <use xlink:href="#DejaVuSans-30"/>
       <use xlink:href="#DejaVuSans-2e" x="63.623047"/>
       <use xlink:href="#DejaVuSans-30" x="95.410156"/>
       <use xlink:href="#DejaVuSans-30" x="159.033203"/>
       <use xlink:href="#DejaVuSans-31" x="222.65625"/>
      </g>
     </g>
    </g>
    <g id="ytick_6">
     <g id="line2d_14">
      <g>
       <use xlink:href="#m66d0d8dce3" x="225" y="115.868879" style="stroke: #000000; stroke-width: 0.8"/>
      </g>
     </g>
     <g id="text_15">
      <!-- 0.002 -->
      <g transform="translate(175.057813 121.567707) scale(0.15 -0.15)">
       <use xlink:href="#DejaVuSans-30"/>
       <use xlink:href="#DejaVuSans-2e" x="63.623047"/>
       <use xlink:href="#DejaVuSans-30" x="95.410156"/>
       <use xlink:href="#DejaVuSans-30" x="159.033203"/>
       <use xlink:href="#DejaVuSans-32" x="222.65625"/>
      </g>
     </g>
    </g>
    <g id="ytick_7">
     <g id="line2d_15">
      <g>
       <use xlink:href="#m66d0d8dce3" x="225" y="78.866369" style="stroke: #000000; stroke-width: 0.8"/>
      </g>
     </g>
     <g id="text_16">
      <!-- 0.003 -->
      <g transform="translate(175.057813 84.565197) scale(0.15 -0.15)">
       <use xlink:href="#DejaVuSans-30"/>
       <use xlink:href="#DejaVuSans-2e" x="63.623047"/>
       <use xlink:href="#DejaVuSans-30" x="95.410156"/>
       <use xlink:href="#DejaVuSans-30" x="159.033203"/>
       <use xlink:href="#DejaVuSans-33" x="222.65625"/>
      </g>
     </g>
    </g>
    <g id="text_17">
     <!-- North(m) -->
     <g transform="translate(155.36875 215.934375) rotate(-90) scale(0.15 -0.15)">
      <defs>
       <path id="DejaVuSans-4e" d="M 628 4666 
L 1478 4666 
L 3547 763 
L 3547 4666 
L 4159 4666 
L 4159 0 
L 3309 0 
L 1241 3903 
L 1241 0 
L 628 0 
L 628 4666 
z
" transform="scale(0.015625)"/>
       <path id="DejaVuSans-6f" d="M 1959 3097 
Q 1497 3097 1228 2736 
Q 959 2375 959 1747 
Q 959 1119 1226 758 
Q 1494 397 1959 397 
Q 2419 397 2687 759 
Q 2956 1122 2956 1747 
Q 2956 2369 2687 2733 
Q 2419 3097 1959 3097 
z
M 1959 3584 
Q 2709 3584 3137 3096 
Q 3566 2609 3566 1747 
Q 3566 888 3137 398 
Q 2709 -91 1959 -91 
Q 1206 -91 779 398 
Q 353 888 353 1747 
Q 353 2609 779 3096 
Q 1206 3584 1959 3584 
z
" transform="scale(0.015625)"/>
       <path id="DejaVuSans-72" d="M 2631 2963 
Q 2534 3019 2420 3045 
Q 2306 3072 2169 3072 
Q 1681 3072 1420 2755 
Q 1159 2438 1159 1844 
L 1159 0 
L 581 0 
L 581 3500 
L 1159 3500 
L 1159 2956 
Q 1341 3275 1631 3429 
Q 1922 3584 2338 3584 
Q 2397 3584 2469 3576 
Q 2541 3569 2628 3553 
L 2631 2963 
z
" transform="scale(0.015625)"/>
       <path id="DejaVuSans-74" d="M 1172 4494 
L 1172 3500 
L 2356 3500 
L 2356 3053 
L 1172 3053 
L 1172 1153 
Q 1172 725 1289 603 
Q 1406 481 1766 481 
L 2356 481 
L 2356 0 
L 1766 0 
Q 1100 0 847 248 
Q 594 497 594 1153 
L 594 3053 
L 172 3053 
L 172 3500 
L 594 3500 
L 594 4494 
L 1172 4494 
z
" transform="scale(0.015625)"/>
       <path id="DejaVuSans-68" d="M 3513 2113 
L 3513 0 
L 2938 0 
L 2938 2094 
Q 2938 2591 2744 2837 
Q 2550 3084 2163 3084 
Q 1697 3084 1428 2787 
Q 1159 2491 1159 1978 
L 1159 0 
L 581 0 
L 581 4863 
L 1159 4863 
L 1159 2956 
Q 1366 3272 1645 3428 
Q 1925 3584 2291 3584 
Q 2894 3584 3203 3211 
Q 3513 2838 3513 2113 
z
" transform="scale(0.015625)"/>
       <path id="DejaVuSans-28" d="M 1984 4856 
Q 1566 4138 1362 3434 
Q 1159 2731 1159 2009 
Q 1159 1288 1364 580 
Q 1569 -128 1984 -844 
L 1484 -844 
Q 1016 -109 783 600 
Q 550 1309 550 2009 
Q 550 2706 781 3412 
Q 1013 4119 1484 4856 
L 1984 4856 
z
" transform="scale(0.015625)"/>
       <path id="DejaVuSans-29" d="M 513 4856 
L 1013 4856 
Q 1481 4119 1714 3412 
Q 1947 2706 1947 2009 
Q 1947 1309 1714 600 
Q 1481 -109 1013 -844 
L 513 -844 
Q 928 -128 1133 580 
Q 1338 1288 1338 2009 
Q 1338 2731 1133 3434 
Q 928 4138 513 4856 
z
" transform="scale(0.015625)"/>
      </defs>
      <use xlink:href="#DejaVuSans-4e"/>
      <use xlink:href="#DejaVuSans-6f" x="74.804688"/>
      <use xlink:href="#DejaVuSans-72" x="135.986328"/>
      <use xlink:href="#DejaVuSans-74" x="177.099609"/>
      <use xlink:href="#DejaVuSans-68" x="216.308594"/>
      <use xlink:href="#DejaVuSans-28" x="279.6875"/>
      <use xlink:href="#DejaVuSans-6d" x="318.701172"/>
      <use xlink:href="#DejaVuSans-29" x="416.113281"/>
     </g>
    </g>
   </g>
   <g id="line2d_16">
    <path d="M 288.409091 169.598753 
L 288.872269 120.623459 
L 289.335447 104.753078 
L 289.798625 100.479901 
L 290.724982 90.705929 
L 291.18816 90.16503 
L 291.651338 88.599173 
L 292.114516 79.538482 
L 293.504051 95.665207 
L 293.967229 98.73676 
L 294.430407 96.675536 
L 294.893585 106.174953 
L 295.356763 110.176855 
L 295.819942 117.588274 
L 296.28312 115.611627 
L 296.746298 117.530816 
L 297.209476 114.549816 
L 297.672654 121.733933 
L 298.135832 123.124515 
L 298.599011 121.554896 
L 299.062189 112.135459 
L 299.525367 119.911616 
L 299.988545 113.256795 
L 300.451723 118.395203 
L 300.914901 117.00531 
L 301.37808 110.778661 
L 301.841258 101.850828 
L 302.304436 98.557949 
L 303.230792 87.563606 
L 303.69397 87.304933 
L 304.157149 82.41566 
L 304.620327 81.438081 
L 305.083505 84.958951 
L 305.546683 91.884051 
L 306.009861 84.013433 
L 306.936218 83.209588 
L 307.862574 78.609637 
L 308.325752 77.609502 
L 308.78893 71.814899 
L 309.252108 70.476455 
L 309.715287 66.061517 
L 310.178465 71.536821 
L 310.641643 86.46433 
L 311.104821 92.279355 
L 312.031177 113.582918 
L 312.494356 124.144836 
L 312.957534 127.205817 
L 313.420712 132.809399 
L 313.88389 129.51652 
L 314.347068 140.765628 
L 314.810246 144.587803 
L 315.273425 152.718128 
L 315.736603 146.412187 
L 316.199781 144.900715 
L 317.126137 138.542258 
L 317.589315 123.87375 
L 318.052494 117.541379 
L 318.515672 106.440971 
L 318.97885 112.932613 
L 319.442028 121.290239 
L 319.905206 127.306134 
L 320.368384 144.745234 
L 320.831563 166.846649 
L 321.294741 171.208004 
L 321.757919 181.542621 
L 322.221097 184.037992 
L 322.684275 182.426084 
L 323.147453 187.448198 
L 323.610632 186.269748 
L 324.07381 177.141045 
L 324.536988 184.187725 
L 325.000166 185.202995 
L 325.463344 191.678779 
L 325.926522 202.140262 
L 326.389701 203.959016 
L 326.852879 203.700343 
L 327.316057 209.605231 
L 327.779235 204.266642 
L 328.242413 203.511078 
L 328.705591 202.396061 
L 329.16877 198.685582 
L 329.631948 196.16447 
L 330.095126 183.1135 
L 330.558304 177.737909 
L 331.021482 184.721156 
L 331.48466 187.792709 
L 331.947839 182.06295 
L 332.411017 181.513543 
L 332.874195 179.97564 
L 333.337373 196.70112 
L 333.800551 199.296926 
L 334.263729 197.764309 
L 334.726907 190.369438 
L 335.190086 190.951251 
L 336.116442 178.577243 
L 336.57962 164.976522 
L 337.042798 163.264179 
L 337.505976 158.7185 
L 337.969155 157.022015 
L 338.895511 148.522699 
L 339.821867 168.488886 
L 340.285045 168.145636 
L 340.748224 170.519427 
L 341.211402 168.653788 
L 341.67458 166.063957 
L 342.137758 173.480662 
L 343.064114 165.108211 
L 343.527293 166.144626 
L 343.990471 159.357653 
L 344.453649 173.307944 
L 344.916827 180.920233 
L 345.380005 180.524123 
L 345.843183 178.531618 
L 346.306362 167.135189 
L 346.76954 163.340133 
L 347.232718 172.316229 
L 347.695896 170.783613 
L 348.159074 171.153982 
L 348.622252 176.937291 
L 349.085431 180.622028 
L 349.548609 200.402858 
L 350.011787 203.754573 
L 350.474965 203.083586 
L 350.938143 194.176897 
L 351.401321 191.180039 
L 351.8645 191.259674 
L 352.327678 188.749134 
L 352.790856 182.77093 
L 353.254034 182.99329 
L 353.717212 184.531882 
L 354.18039 182.851255 
L 354.643569 180.44115 
L 355.106747 175.335148 
L 355.569925 175.636799 
L 356.033103 166.280794 
L 356.496281 163.564097 
L 356.959459 157.770906 
L 357.422638 162.898741 
L 357.885816 165.372968 
L 358.348994 167.011995 
L 358.812172 168.111843 
L 359.27535 179.678115 
L 359.738528 202.165414 
L 360.201707 202.519925 
L 360.664885 202.562559 
L 361.128063 214.361418 
L 361.591241 214.784648 
L 362.054419 212.564842 
L 362.517597 200.713811 
L 362.980776 172.386091 
L 363.443954 174.236561 
L 363.907132 172.365636 
L 364.37031 172.820582 
L 364.833488 179.417946 
L 366.223023 212.858677 
L 366.686201 215.544347 
L 367.149379 223.109062 
L 367.612557 219.076133 
L 368.075735 208.911359 
L 368.538914 212.289504 
L 369.002092 217.528347 
L 369.46527 209.557293 
L 369.928448 205.857387 
L 370.391626 212.285596 
L 370.854804 213.285008 
L 371.317983 221.716639 
L 371.781161 220.527617 
L 372.244339 221.860052 
L 372.707517 233.579621 
L 373.170695 237.6661 
L 373.633873 233.009414 
L 374.097052 230.92176 
L 374.56023 239.141948 
L 375.486586 222.264206 
L 375.949764 232.894843 
L 376.412942 228.137722 
L 376.876121 214.706155 
L 377.339299 211.000962 
L 377.802477 194.989792 
L 378.265655 195.518744 
L 378.728833 198.172697 
L 379.192011 194.631373 
L 379.65519 196.006096 
L 380.118368 208.661299 
L 380.581546 212.319606 
L 381.044724 220.143339 
L 381.507902 224.758425 
L 381.97108 220.1546 
L 382.434259 211.570362 
L 382.897437 228.549573 
L 383.360615 226.128896 
L 383.823793 221.133902 
L 384.750149 204.065861 
L 385.213328 202.33766 
L 385.676506 201.915119 
L 386.139684 190.624411 
L 386.602862 185.259392 
L 387.06604 192.411793 
L 387.529218 191.925819 
L 388.455575 213.34039 
L 388.918753 216.803112 
L 389.845109 206.321518 
L 390.308287 211.232625 
L 390.771466 219.95499 
L 391.234644 215.715904 
L 392.161 213.692027 
L 392.624178 221.727202 
L 393.087356 232.220402 
L 393.550535 230.983805 
L 394.013713 242.766806 
L 394.476891 241.931951 
L 394.940069 244.649337 
L 395.403247 248.519087 
L 395.866425 241.959415 
L 396.329604 246.542785 
L 396.792782 247.018876 
L 397.25596 238.022325 
L 397.719138 242.970433 
L 398.182316 237.050376 
L 398.645494 236.1098 
L 399.108673 247.448771 
L 399.571851 243.923305 
L 400.035029 243.611771 
L 400.961385 234.573275 
L 401.424563 246.906028 
L 401.887742 254.000283 
L 402.35092 248.175375 
L 402.814098 248.910483 
L 403.740454 257.939785 
L 404.203632 252.558907 
L 404.666811 245.549919 
L 405.129989 232.10778 
L 405.593167 226.726902 
L 406.056345 233.842301 
L 406.519523 226.183126 
L 406.982701 223.640869 
L 407.909058 211.642173 
L 408.372236 212.456573 
L 408.835414 215.432976 
L 409.76177 192.233091 
L 410.224949 192.603461 
L 410.688127 201.891436 
L 411.151305 207.833326 
L 412.077661 205.825308 
L 412.540839 210.709983 
L 413.004018 220.071963 
L 413.467196 218.016025 
L 413.930374 213.724079 
L 414.393552 214.506762 
L 414.85673 214.522965 
L 415.319908 217.60509 
L 415.783087 209.026138 
L 416.246265 203.88842 
L 416.709443 200.553252 
L 417.172621 203.439793 
L 417.635799 190.256671 
L 418.098977 187.629837 
L 418.562156 184.136088 
L 419.025334 185.050923 
L 419.488512 183.80904 
L 419.95169 179.802542 
L 420.414868 171.646476 
L 420.878046 171.424805 
L 421.341225 178.920801 
L 421.804403 170.156837 
L 422.730759 163.613367 
L 423.193937 163.555565 
L 424.120294 175.619073 
L 424.583472 169.069973 
L 425.509828 179.907111 
L 425.973006 184.279038 
L 426.436184 183.111161 
L 426.899363 185.067352 
L 427.362541 181.182433 
L 429.215253 148.854189 
L 429.678432 147.01498 
L 430.14161 147.031183 
L 430.604788 143.347135 
L 431.067966 144.441696 
L 431.994322 150.442078 
L 432.4575 158.572403 
L 432.920679 161.702103 
L 433.383857 156.596101 
L 433.847035 155.084629 
L 434.310213 161.444119 
L 434.773391 165.250436 
L 435.236569 170.061107 
L 435.699748 167.851873 
L 436.162926 162.761729 
L 436.626104 153.50616 
L 437.089282 161.668201 
L 437.55246 164.348585 
L 438.015638 175.391536 
L 438.941995 180.599007 
L 439.868351 206.427448 
L 440.794707 200.687462 
L 441.257886 183.80409 
L 441.721064 177.688448 
L 442.184242 175.769948 
L 442.64742 170.114194 
L 443.110598 170.204402 
L 443.573776 171.320108 
L 444.036955 163.972811 
L 444.500133 166.721914 
L 444.963311 167.340729 
L 445.426489 162.372165 
L 445.889667 154.993151 
L 446.352845 144.44778 
L 446.816024 137.359501 
L 447.279202 142.149028 
L 447.74238 142.947569 
L 448.205558 145.020054 
L 448.668736 144.465361 
L 449.131914 147.373046 
L 449.595093 144.88365 
L 450.058271 152.416649 
L 450.521449 144.07557 
L 450.984627 143.647743 
L 451.447805 135.940993 
L 451.910983 137.55359 
L 452.374162 134.281855 
L 452.83734 142.126732 
L 453.300518 135.625207 
L 453.763696 148.983458 
L 454.226874 156.030137 
L 454.690052 157.256851 
L 455.153231 153.56223 
L 455.616409 156.232042 
L 456.079587 157.807636 
L 456.542765 157.263515 
L 457.005943 150.032512 
L 457.469121 132.541241 
L 457.9323 121.155384 
L 458.395478 117.191174 
L 459.321834 113.707997 
L 460.24819 100.155195 
L 460.711369 94.261568 
L 461.174547 92.961538 
L 461.637725 95.160889 
L 462.100903 88.738655 
L 462.564081 88.194534 
L 463.490438 75.444165 
L 464.416794 70.712062 
L 464.879972 66.059251 
L 465.34315 64.482934 
L 465.806328 59.22751 
L 466.269507 62.297651 
L 466.732685 55.8 
L 467.195863 65.145416 
L 467.659041 66.361557 
L 468.122219 61.604436 
L 468.585397 61.599494 
L 469.048576 70.036411 
L 469.511754 74.83651 
L 469.974932 76.200661 
L 470.43811 77.05735 
L 471.364466 105.142945 
L 471.827645 128.312147 
L 472.290823 136.342036 
L 472.754001 136.950279 
L 473.217179 139.694096 
L 473.680357 139.710298 
L 474.143535 123.022511 
L 474.606714 122.494248 
L 475.069892 111.938305 
L 475.53307 114.486536 
L 475.996248 119.957966 
L 476.459426 127.68655 
L 477.385783 162.987634 
L 477.848961 171.598991 
L 478.312139 172.973715 
L 478.775317 170.812056 
L 479.238495 187.484674 
L 479.701673 195.773581 
L 480.164852 195.171313 
L 480.62803 195.525825 
L 481.091208 193.882201 
L 481.554386 201.462774 
L 482.017564 204.788058 
L 483.407099 188.703572 
L 483.870277 189.597263 
L 484.333455 184.575838 
L 484.796633 181.060944 
L 485.259811 187.230136 
L 485.72299 188.700009 
L 486.186168 199.838109 
L 487.112524 215.987751 
L 487.575702 220.201095 
L 488.03888 220.37588 
L 489.891593 181.524622 
L 490.354771 175.393122 
L 491.281128 175.277173 
L 491.744306 178.005131 
L 492.670662 203.072378 
L 493.13384 202.840136 
L 493.597018 206.805035 
L 494.523375 221.12041 
L 495.449731 228.495171 
L 495.912909 219.868644 
L 496.376087 223.42123 
L 496.839266 225.229411 
L 497.302444 215.809974 
L 497.765622 209.747193 
L 498.691978 186.372867 
L 499.155156 185.458721 
L 499.618335 167.370124 
L 500.081513 166.334398 
L 500.544691 160.816082 
L 501.007869 161.20231 
L 501.471047 169.882387 
L 501.934225 168.920666 
L 502.397404 167.070885 
L 502.860582 183.743504 
L 503.32376 176.776804 
L 503.786938 183.495747 
L 504.250116 185.901255 
L 504.713294 181.265714 
L 505.176473 174.499885 
L 505.639651 171.836048 
L 506.102829 171.519229 
L 506.566007 177.022375 
L 507.029185 175.278316 
L 507.492363 174.66019 
L 507.955542 176.764391 
L 508.881898 196.71472 
L 509.345076 198.274456 
L 509.808254 200.304652 
L 510.271432 197.677819 
L 510.734611 203.059385 
L 511.197789 210.972981 
L 511.660967 214.668291 
L 512.587323 197.663683 
L 513.050501 193.805194 
L 513.51368 197.08819 
L 514.440036 178.222885 
L 514.903214 172.038524 
L 515.366392 174.909206 
L 515.82957 187.871002 
L 516.755927 191.46517 
L 517.219105 195.704239 
L 517.682283 190.39666 
L 518.145461 188.075713 
L 518.608639 180.082809 
L 519.071818 184.01 
L 519.534996 183.570895 
L 519.998174 183.941264 
L 520.461352 190.052309 
L 521.850887 215.622078 
L 522.314065 211.800591 
L 522.777243 213.598201 
L 523.240421 207.41384 
L 523.703599 208.434397 
L 524.166777 217.082757 
L 524.629956 218.600204 
L 525.093134 223.770328 
L 525.556312 225.530935 
L 526.01949 226.112747 
L 526.482668 232.260795 
L 527.409025 196.733787 
L 527.872203 175.457688 
L 529.261737 141.923875 
L 529.724915 129.771538 
L 530.188093 139.921143 
L 530.651272 139.181437 
L 531.11445 145.107469 
L 531.577628 145.229393 
L 532.040806 141.830793 
L 532.503984 141.873426 
L 532.967162 149.602009 
L 533.430341 136.233875 
L 533.893519 142.76252 
L 534.356697 144.454408 
L 534.819875 143.667128 
L 535.283053 152.542789 
L 535.746231 165.314286 
L 536.20941 167.127753 
L 536.672588 170.564045 
L 537.135766 177.108548 
L 537.598944 180.12724 
L 538.062122 184.303582 
L 538.5253 191.381979 
L 539.451657 169.873637 
L 539.914835 177.808377 
L 540.378013 167.337011 
L 540.841191 170.302842 
L 541.304369 172.285464 
L 541.767548 172.386244 
L 542.230726 164.489196 
L 542.693904 172.080341 
L 543.157082 166.181428 
L 543.62026 171.399127 
L 544.083438 170.046237 
L 544.546617 172.361881 
L 545.009795 156.107551 
L 545.472973 158.391479 
L 545.936151 155.500342 
L 546.862507 144.389706 
L 547.325686 143.470274 
L 547.788864 139.210043 
L 548.252042 153.7048 
L 549.641576 174.92413 
L 550.104755 182.383124 
L 550.567933 180.88751 
L 551.031111 178.821 
L 551.494289 183.203499 
L 551.957467 184.213483 
L 552.420645 187.639203 
L 552.883824 198.634579 
L 553.347002 194.273914 
L 553.81018 192.746583 
L 554.273358 195.770562 
L 554.736536 189.966798 
L 555.199714 193.307941 
L 556.126071 180.516333 
L 556.589249 189.339133 
L 557.052427 188.90602 
L 557.515605 192.89735 
L 557.978783 188.161373 
L 558.441962 188.426021 
L 559.368318 205.167703 
L 559.831496 203.931107 
L 560.294674 215.137926 
L 560.757852 221.312404 
L 562.147387 204.40329 
L 562.610565 201.342998 
L 563.073743 199.070331 
L 563.536921 185.263453 
L 564.0001 181.859567 
L 564.463278 196.914647 
L 565.389634 203.544072 
L 565.852812 202.497774 
L 566.31599 207.361306 
L 566.779169 222.252518 
L 567.242347 227.052616 
L 567.705525 222.358928 
L 568.168703 229.944787 
L 568.631881 229.120505 
L 569.095059 234.940815 
L 569.558238 222.30216 
L 570.021416 220.616247 
L 570.484594 222.302849 
L 570.947772 229.132799 
L 571.41095 224.904286 
L 571.874128 227.034918 
L 572.337307 216.415542 
L 572.800485 231.158744 
L 573.263663 236.598457 
L 573.726841 235.943329 
L 574.190019 231.894541 
L 574.653197 235.748433 
L 575.116376 230.140254 
L 575.579554 238.94191 
L 576.042732 239.576584 
L 576.50591 229.787121 
L 576.969088 214.949459 
L 577.432266 207.982759 
L 578.358623 186.136109 
L 578.821801 177.921896 
L 579.284979 166.784485 
L 579.748157 166.95927 
L 580.211335 173.477342 
L 581.60087 198.729946 
L 582.064048 193.201058 
L 582.527226 197.74214 
L 582.990404 192.678426 
L 583.453583 193.318386 
L 583.916761 185.891798 
L 584.379939 183.745997 
L 585.306295 199.763487 
L 585.769473 199.055498 
L 586.232652 199.843467 
L 586.69583 189.61526 
L 587.159008 186.116225 
L 587.622186 178.626204 
L 588.085364 167.314352 
L 588.548542 165.205554 
L 589.011721 157.11292 
L 589.474899 162.309475 
L 589.938077 173.569155 
L 590.401255 170.847172 
L 591.327611 179.902904 
L 591.79079 172.254301 
L 592.253968 181.404838 
L 592.717146 179.782358 
L 593.180324 175.146816 
L 593.643502 195.440395 
L 594.10668 205.991741 
L 594.569859 212.12393 
L 595.033037 216.770733 
L 595.496215 203.2123 
L 595.959393 194.723212 
L 596.422571 191.477907 
L 597.348928 168.959581 
L 598.275284 138.348622 
L 598.738462 126.344295 
L 599.20164 123.125421 
L 599.664818 114.65219 
L 600.127997 109.334745 
L 600.591175 109.567677 
L 601.054353 107.717896 
L 601.517531 107.570231 
L 601.980709 109.013673 
L 602.443887 115.669184 
L 602.907066 120.717728 
L 603.370244 121.881008 
L 603.833422 123.895347 
L 604.2966 118.334743 
L 605.222956 121.295288 
L 605.686135 125.133321 
L 606.149313 124.784785 
L 606.612491 129.542595 
L 607.075669 131.303202 
L 608.002025 163.041473 
L 608.465204 163.681433 
L 608.928382 167.646332 
L 609.39156 162.572047 
L 609.854738 161.959207 
L 610.317916 160.72261 
L 610.781094 144.404847 
L 611.707451 126.570326 
L 612.170629 136.947232 
L 612.633807 156.247029 
L 613.560163 167.66035 
L 614.023342 168.35317 
L 614.48652 168.670679 
L 614.949698 179.14802 
L 615.412876 162.343938 
L 615.876054 153.431964 
L 616.802411 146.042723 
L 617.265589 164.248303 
L 617.728767 173.219113 
L 618.655123 199.771747 
L 619.118301 195.606666 
L 619.58148 199.486988 
L 620.044658 205.307299 
L 620.971014 179.390372 
L 621.434192 171.382316 
L 621.89737 155.323571 
L 622.360549 154.367136 
L 623.286905 125.289138 
L 623.750083 127.937805 
L 624.213261 127.837714 
L 624.676439 110.991344 
L 625.602796 127.981472 
L 626.529152 165.819871 
L 627.455508 186.864417 
L 627.918686 203.235729 
L 628.381865 197.384391 
L 628.845043 184.402141 
L 629.771399 170.410594 
L 630.234577 149.863973 
L 630.697755 138.324821 
L 631.160934 136.966645 
L 631.624112 151.218242 
L 632.08729 161.663866 
L 632.550468 162.89058 
L 633.013646 162.880352 
L 633.476824 166.274356 
L 633.940003 176.672406 
L 634.403181 173.310808 
L 634.866359 181.208545 
L 635.329537 180.801862 
L 635.792715 184.824908 
L 636.255893 182.472951 
L 636.719072 199.256577 
L 637.18225 188.420472 
L 637.645428 181.977093 
L 638.108606 168.984271 
L 638.571784 165.527523 
L 639.498141 169.540342 
L 639.961319 161.84945 
L 640.887675 196.828084 
L 641.814031 220.304223 
L 642.27721 224.189831 
L 642.740388 230.396026 
L 643.203566 222.171241 
L 643.666744 206.894834 
L 644.129922 187.595726 
L 645.056279 169.200882 
L 645.519457 169.275231 
L 645.982635 175.000393 
L 646.445813 189.347139 
L 646.908991 198.138223 
L 647.372169 214.694548 
L 647.835348 216.941474 
L 648.298526 221.006808 
L 648.761704 215.86909 
L 649.224882 213.834297 
L 649.68806 215.557901 
L 650.614417 227.827565 
L 651.077595 231.760748 
L 651.540773 241.852206 
L 652.003951 245.082341 
L 652.467129 241.329574 
L 652.930307 244.549137 
L 653.393486 244.179456 
L 653.856664 236.055107 
L 654.319842 235.643137 
L 654.78302 234.316678 
L 655.246198 240.284999 
L 655.709376 248.854067 
L 656.172555 248.13022 
L 656.635733 240.328321 
L 657.098911 235.370329 
L 657.562089 233.166381 
L 658.025267 222.49943 
L 658.951624 190.117637 
L 659.414802 178.821643 
L 659.87798 178.494251 
L 660.341158 181.021339 
L 660.804336 179.605016 
L 661.267514 180.44056 
L 661.730693 188.798186 
L 662.193871 193.587712 
L 662.657049 189.655218 
L 663.120227 169.822217 
L 663.583405 165.609562 
L 664.046583 169.812334 
L 664.509762 172.963178 
L 664.97294 169.60158 
L 665.436118 168.941166 
L 665.899296 173.069933 
L 666.362474 189.774268 
L 666.825652 194.500362 
L 667.752009 176.46497 
L 668.215187 176.36488 
L 668.678365 170.772559 
L 669.141543 167.294667 
L 669.604721 167.046567 
L 670.0679 163.848837 
L 670.531078 162.379653 
L 670.994256 157.680679 
L 671.457434 144.132818 
L 671.920612 141.130674 
L 672.38379 131.219631 
L 672.846969 129.295845 
L 673.310147 120.188286 
L 673.773325 121.251131 
L 674.236503 126.252101 
L 674.699681 135.968248 
L 675.162859 140.218595 
L 676.089216 154.000076 
L 676.552394 155.327225 
L 677.47875 167.3273 
L 677.941928 175.225037 
L 678.405107 177.783841 
L 678.868285 182.779524 
L 679.331463 177.21892 
L 679.794641 184.048871 
L 680.257819 177.56849 
L 680.720997 179.297381 
L 681.184176 182.633237 
L 681.647354 180.069836 
L 682.110532 181.730008 
L 682.57371 183.88707 
L 683.036888 187.228213 
L 683.500066 194.909221 
L 683.963245 192.631268 
L 684.426423 187.715565 
L 685.352779 197.775651 
L 685.815957 197.37954 
L 686.279135 211.631137 
L 687.66867 225.270239 
L 688.131848 232.137193 
L 688.595026 227.697236 
L 689.058204 226.249196 
L 689.521383 209.98958 
L 689.984561 200.53314 
L 690.447739 195.057113 
L 690.910917 190.934321 
L 691.374095 183.137708 
L 691.837273 183.402356 
L 692.300452 188.176025 
L 693.226808 200.440403 
L 693.689986 213.724649 
L 694.153164 211.991161 
L 694.616342 197.296223 
L 695.079521 191.508318 
L 695.542699 198.946167 
L 696.005877 209.497513 
L 696.469055 203.704322 
L 696.932233 195.727982 
L 697.395411 199.211849 
L 697.85859 226.969363 
L 698.321768 228.671823 
L 698.784946 226.335723 
L 699.248124 225.696453 
L 699.711302 235.349166 
L 700.17448 240.365994 
L 700.637659 242.242895 
L 701.100837 242.354247 
L 701.564015 242.338733 
L 702.027193 232.290253 
L 702.490371 211.040584 
L 702.953549 210.707906 
L 703.416728 199.512348 
L 703.879906 199.311822 
L 704.343084 188.761165 
L 704.806262 189.559706 
L 705.26944 202.706514 
L 706.195797 205.001015 
L 706.658975 185.257877 
L 707.122153 191.273772 
L 707.585331 191.612425 
L 708.048509 190.116811 
L 708.511687 196.434013 
L 708.974866 189.097288 
L 709.438044 187.178788 
L 710.3644 206.94939 
L 710.827578 203.57722 
L 711.290756 217.453506 
L 711.753935 218.421202 
L 712.217113 211.554938 
L 712.680291 229.194908 
L 713.143469 236.363167 
L 713.606647 228.978868 
L 714.069825 226.436612 
L 714.533004 214.506289 
L 714.996182 218.925791 
L 715.45936 240.382306 
L 715.922538 242.930537 
L 716.848894 263.858789 
L 717.775251 271.597239 
L 718.238429 271.36429 
L 719.164785 263.180726 
L 719.627963 267.139634 
L 720.091142 251.318056 
L 720.55432 239.339453 
L 721.480676 252.317451 
L 721.943854 254.136205 
L 722.407032 250.779893 
L 722.870211 249.585585 
L 723.796567 281.503583 
L 724.722923 279.4998 
L 725.64928 294.469236 
L 726.112458 306.632128 
L 726.575636 302.614351 
L 727.038814 300.108391 
L 727.501992 294.002616 
L 727.96517 294.954453 
L 728.428348 293.442981 
L 729.354705 288.749637 
L 729.817883 294.300359 
L 730.281061 297.424772 
L 730.744239 298.831212 
L 731.207417 294.285534 
L 731.670596 296.606465 
L 732.133774 297.590019 
L 732.596952 292.214427 
L 733.523308 290.248352 
L 734.449665 277.969494 
L 734.912843 276.611318 
L 735.376021 265.162028 
L 735.839199 261.969585 
L 736.302377 259.866072 
L 737.228734 252.259758 
L 737.691912 247.359913 
L 738.15509 246.271326 
L 738.618268 252.419374 
L 739.081446 256.537569 
L 739.544624 252.515212 
L 740.007803 243.397081 
L 740.934159 265.504127 
L 741.397337 270.906838 
L 742.323693 264.749252 
L 742.786872 267.62522 
L 743.25005 275.068356 
L 743.713228 270.987852 
L 745.102762 250.288624 
L 745.565941 257.224296 
L 746.029119 257.996407 
L 746.492297 253.350294 
L 746.955475 241.277248 
L 747.418653 235.188036 
L 747.881831 237.323954 
L 748.34501 238.207073 
L 748.808188 222.417918 
L 749.734544 206.787689 
L 750.197722 201.91956 
L 750.6609 208.051749 
L 751.587257 184.814862 
L 752.050435 185.465393 
L 752.513613 181.670337 
L 753.439969 196.953063 
L 753.903148 188.210243 
L 754.366326 186.624766 
L 754.829504 189.299863 
L 755.292682 184.80176 
L 755.75586 187.804594 
L 756.219038 188.703571 
L 756.682217 190.643904 
L 757.145395 191.151712 
L 758.071751 199.070938 
L 758.534929 208.32191 
L 758.998107 208.253536 
L 759.461286 210.24673 
L 759.924464 210.685819 
L 760.387642 210.564583 
L 760.85082 208.603795 
L 761.313998 205.728516 
L 761.777176 199.375001 
L 762.240355 189.543249 
L 762.703533 182.465542 
L 763.166711 167.617308 
L 763.629889 147.710302 
L 764.093067 143.502932 
L 764.556245 142.070751 
L 765.019424 141.658782 
L 765.482602 142.859065 
L 765.94578 136.056234 
L 766.408958 137.46796 
L 766.872136 150.746919 
L 767.335314 152.142787 
L 767.798493 154.17827 
L 768.261671 154.89752 
L 768.724849 153.750787 
L 769.651205 170.429036 
L 770.114383 181.408554 
L 770.577562 182.725131 
L 771.04074 179.828708 
L 771.503918 175.838067 
L 771.967096 183.075046 
L 772.430274 186.173029 
L 772.893452 180.607139 
L 773.356631 171.002689 
L 773.819809 177.203597 
L 774.282987 191.169746 
L 774.746165 198.930046 
L 775.209343 203.169821 
L 775.672521 190.124137 
L 776.1357 194.897806 
L 776.598878 195.860215 
L 777.062056 197.409379 
L 777.525234 178.702312 
L 778.45159 165.572396 
L 778.914769 164.917267 
L 779.377947 150.972951 
L 779.841125 140.829322 
L 780.304303 136.04577 
L 780.767481 141.607063 
L 781.230659 152.174268 
L 781.693838 157.169951 
L 782.157016 164.126768 
L 783.083372 196.50994 
L 783.54655 201.384044 
L 784.009728 199.729847 
L 784.472907 192.535847 
L 784.936085 191.426116 
L 785.399263 193.810479 
L 785.862441 188.064863 
L 786.325619 192.595372 
L 786.788797 190.951748 
L 787.251976 192.067453 
L 787.715154 187.553492 
L 788.178332 193.727969 
L 788.64151 190.08621 
L 789.104688 189.505086 
L 789.567866 177.305174 
L 790.031045 170.269756 
L 790.494223 175.186148 
L 790.957401 176.883322 
L 791.420579 169.382729 
L 791.883757 167.273931 
L 792.346935 161.301013 
L 792.810114 166.68258 
L 793.273292 169.59555 
L 793.73647 164.17767 
L 794.199648 161.413398 
L 794.662826 149.060191 
L 795.126004 143.557733 
L 795.589183 139.767963 
L 796.052361 141.634292 
L 796.515539 137.432208 
L 796.978717 139.525838 
L 797.441895 158.984217 
L 798.368252 186.64164 
L 798.83143 194.8724 
L 799.294608 189.343512 
L 799.757786 198.932793 
L 800.220964 197.981644 
L 800.684142 178.94684 
L 801.147321 181.421067 
L 802.073677 198.95566 
L 803.000033 208.280982 
L 803.463211 222.257703 
L 803.92639 250.987854 
L 804.389568 259.752508 
L 804.852746 248.541091 
L 805.315924 261.286158 
L 805.779102 268.089678 
L 806.24228 278.974047 
L 806.705459 279.180549 
L 807.168637 262.360609 
L 807.631815 263.603181 
L 808.094993 269.603218 
L 808.558171 269.286398 
L 809.021349 277.485442 
L 809.484528 258.868237 
L 809.947706 250.405579 
L 810.410884 253.73615 
L 810.874062 255.280027 
L 811.33724 254.968494 
L 812.263597 225.087012 
L 812.726775 233.756517 
L 813.189953 237.879998 
L 813.653131 237.161437 
L 814.116309 239.656808 
L 814.579487 235.43358 
L 815.042666 246.376095 
L 815.505844 252.418421 
L 815.969022 254.078593 
L 816.4322 257.282298 
L 816.895378 255.776111 
L 817.358556 246.679124 
L 817.821735 259.070024 
L 818.284913 247.752886 
L 818.748091 244.576301 
L 819.211269 242.176768 
L 819.674447 240.39042 
L 820.137625 245.142944 
L 820.600804 247.199571 
L 821.063982 236.807496 
L 821.990338 231.966143 
L 822.453516 230.433526 
L 822.916694 232.886608 
L 823.379873 231.81388 
L 824.306229 219.640743 
L 825.232585 227.242805 
L 825.695763 227.840476 
L 826.158941 224.864762 
L 826.62212 213.669204 
L 827.085298 215.688828 
L 827.548476 224.247325 
L 828.011654 226.029076 
L 828.93801 211.535353 
L 829.401189 203.188988 
L 829.864367 210.050655 
L 830.790723 206.742263 
L 832.180258 214.677692 
L 832.643436 215.079778 
L 833.106614 218.917812 
L 833.569792 210.650738 
L 834.03297 205.238144 
L 834.496148 194.312176 
L 834.959327 192.673837 
L 835.422505 190.05229 
L 835.885683 192.848967 
L 836.348861 191.009758 
L 836.812039 189.630438 
L 837.275217 191.702923 
L 837.738396 190.519187 
L 838.664752 182.648913 
L 839.12793 183.584893 
L 839.591108 181.312226 
L 840.054286 184.827809 
L 840.517465 181.392206 
L 840.980643 182.740499 
L 841.906999 195.18989 
L 842.370177 197.130224 
L 843.296534 175.754034 
L 844.22289 186.173573 
L 844.686068 181.231439 
L 845.149246 182.12513 
L 845.612424 173.403454 
L 846.075603 172.986199 
L 846.538781 187.026353 
L 847.001959 183.580178 
L 847.928315 194.612901 
L 848.854672 202.553272 
L 849.31785 209.409653 
L 849.781028 213.474988 
L 850.244206 222.514517 
L 850.707384 213.560254 
L 851.633741 205.441535 
L 852.096919 206.578385 
L 852.560097 206.01312 
L 853.486453 199.527798 
L 853.949631 199.390704 
L 854.875988 205.021061 
L 855.339166 201.532598 
L 855.802344 201.178775 
L 856.265522 198.641805 
L 856.7287 187.853274 
L 857.191879 180.157097 
L 857.655057 181.891273 
L 858.118235 183.139131 
L 858.581413 202.359637 
L 859.044591 207.418753 
L 859.507769 220.36469 
L 859.970948 230.107267 
L 860.434126 234.695923 
L 861.360482 249.138164 
L 861.82366 232.904978 
L 862.286838 236.07168 
L 862.750017 229.1737 
L 863.213195 236.992146 
L 863.676373 259.606311 
L 864.139551 271.759337 
L 864.602729 272.124421 
L 865.065907 278.230179 
L 865.529086 272.220259 
L 865.992264 272.749211 
L 866.455442 269.05459 
L 866.91862 247.725631 
L 867.844976 238.406973 
L 868.308155 239.406385 
L 868.771333 249.82558 
L 869.234511 252.73855 
L 869.697689 254.261284 
L 870.624045 273.825385 
L 871.087224 259.648481 
L 871.550402 257.978427 
L 872.476758 253.216364 
L 872.939936 244.288532 
L 873.403114 244.690618 
L 873.866293 240.784554 
L 874.329471 253.926076 
L 874.792649 241.932321 
L 875.255827 243.270042 
L 875.719005 245.622689 
L 876.645362 259.023573 
L 877.10854 250.819933 
L 877.571718 245.51306 
L 878.034896 262.175106 
L 878.498074 259.278683 
L 879.424431 268.169496 
L 879.887609 276.885869 
L 880.350787 269.65416 
L 881.277143 276.514415 
L 881.740321 286.091712 
L 882.2035 292.026905 
L 882.666678 307.366021 
L 883.129856 295.04911 
L 883.593034 290.708883 
L 884.056212 293.68458 
L 884.982569 269.015167 
L 885.908925 253.078002 
L 886.372103 242.633066 
L 886.835281 248.500951 
L 887.298459 247.126917 
L 887.761638 255.521545 
L 888.224816 274.271591 
L 888.687994 283.152538 
L 889.151172 294.385787 
L 889.61435 296.511133 
L 890.077528 286.864395 
L 890.540707 288.746581 
L 891.003885 279.205564 
L 891.467063 274.564737 
L 891.930241 279.97802 
L 892.393419 282.156226 
L 892.856597 286.385429 
L 893.319776 303.322352 
L 893.782954 307.8 
L 894.246132 301.689644 
L 894.70931 297.736006 
L 895.172488 288.575586 
L 895.635666 294.057588 
L 896.562023 291.362036 
L 897.025201 282.78837 
L 897.488379 278.168687 
L 897.951557 280.679916 
L 898.414735 277.281316 
L 898.877914 277.339807 
L 899.341092 271.56776 
L 899.80427 272.487881 
L 900.267448 261.244748 
L 900.730626 262.529609 
L 901.193804 256.387537 
L 901.656983 261.214066 
L 902.120161 257.98462 
L 902.583339 243.606846 
L 903.046517 236.254263 
L 903.509695 239.653552 
L 903.972873 237.893634 
L 904.436052 250.073091 
L 904.89923 253.245079 
L 905.362408 245.908355 
L 905.825586 251.665233 
L 906.288764 251.628575 
L 907.215121 251.993658 
L 907.678299 245.989024 
L 908.141477 232.361872 
L 908.604655 226.36781 
L 909.067833 231.363494 
L 909.531011 231.649286 
L 909.99419 224.312562 
L 910.457368 225.248541 
L 910.920546 234.14006 
L 911.846902 241.725919 
L 912.31008 240.595044 
L 912.773259 245.87089 
L 913.236437 247.324904 
L 913.699615 250.866918 
L 914.162793 251.665459 
L 914.625971 240.443471 
L 915.089149 238.466824 
L 915.552328 241.506661 
L 916.015506 235.539029 
L 916.478684 232.457593 
L 916.941862 236.956386 
L 917.40504 236.623708 
L 917.868218 239.002785 
L 918.794575 215.744753 
L 919.257753 219.117612 
L 919.720931 219.561987 
L 920.647287 218.912144 
L 921.110466 224.827605 
L 921.573644 225.05525 
L 922.5 240.638938 
L 922.963178 255.524864 
L 923.426356 256.180681 
L 923.889534 257.032084 
L 924.352713 260.16707 
L 924.815891 260.511009 
L 925.279069 269.423672 
L 925.742247 271.364006 
L 926.205425 257.784429 
L 926.668603 252.038812 
L 927.131782 248.148607 
L 927.59496 246.166674 
L 928.521316 223.453108 
L 928.984494 207.859537 
L 929.447672 207.130403 
L 929.910851 200.359289 
L 930.374029 199.133264 
L 930.837207 190.919051 
L 931.300385 194.809946 
L 931.763563 189.534789 
L 932.226741 190.539488 
L 932.68992 195.741328 
L 933.153098 207.13316 
L 933.616276 206.874487 
L 934.079454 216.791504 
L 934.542632 212.029097 
L 935.00581 223.901961 
L 935.468989 226.148887 
L 935.932167 232.614099 
L 936.395345 226.429738 
L 936.858523 231.05011 
L 937.321701 220.26158 
L 938.248058 234.185441 
L 938.711236 225.934225 
L 939.174414 226.843774 
L 939.637592 218.10624 
L 940.10077 215.764855 
L 940.563948 216.219801 
L 941.027127 222.32556 
L 941.490305 213.091135 
L 941.953483 210.929476 
L 942.879839 227.137265 
L 943.343017 229.722499 
L 943.806196 224.352193 
L 944.269374 224.574553 
L 944.732552 219.410404 
L 945.19573 230.236626 
L 945.658908 226.510289 
L 946.122086 227.435697 
L 946.585265 230.480819 
L 947.048443 237.199762 
L 947.511621 235.344695 
L 948.437977 222.494941 
L 948.901155 226.829866 
L 949.364334 225.154525 
L 949.827512 228.273653 
L 950.29069 233.549498 
L 950.753868 231.546421 
L 951.217046 242.399073 
L 951.680224 242.642577 
L 952.143403 233.201995 
L 952.606581 232.557439 
L 953.069759 227.953614 
L 953.532937 214.765206 
L 953.996115 213.808772 
L 954.459293 209.278952 
L 954.922472 208.607965 
L 955.38565 209.163347 
L 956.312006 196.065148 
L 956.775184 194.241797 
L 957.238362 191.895125 
L 957.701541 188.924697 
L 958.164719 179.473543 
L 958.627897 173.125314 
L 959.554253 199.165198 
L 960.017431 195.682021 
L 960.48061 197.558921 
L 960.943788 202.692042 
L 961.406966 219.544388 
L 961.870144 228.235036 
L 962.333322 229.408889 
L 963.259679 248.656169 
L 965.112391 302.892656 
L 965.575569 296.169116 
L 966.038748 286.347937 
L 966.501926 292.221109 
L 967.89146 238.801089 
L 968.354638 229.688244 
L 968.817817 231.24798 
L 969.280995 218.471886 
L 969.744173 209.607486 
L 970.207351 216.284141 
L 971.596886 228.607011 
L 972.060064 230.827506 
L 972.523242 251.269094 
L 973.449598 265.790281 
L 973.912776 286.030999 
L 974.375955 292.638935 
L 974.839133 287.189338 
L 975.302311 279.059703 
L 975.765489 279.171055 
L 976.228667 271.755039 
L 976.691845 269.302646 
L 977.155024 257.298318 
L 977.618202 263.715956 
L 978.08138 266.137322 
L 978.544558 263.351906 
L 979.470914 246.109425 
L 979.934093 230.299125 
L 980.397271 220.980123 
L 980.860449 201.125977 
L 981.323627 192.54174 
L 981.786805 191.273427 
L 982.249983 203.283729 
L 982.713162 198.452603 
L 983.17634 213.41782 
L 983.639518 211.076434 
L 984.102696 226.501539 
L 984.565874 235.091753 
L 985.029052 237.692845 
L 985.492231 226.137834 
L 985.955409 224.631648 
L 986.881765 214.541224 
L 987.344943 205.597533 
L 987.808121 199.296878 
L 988.734478 178.285427 
L 989.197656 181.224829 
L 989.660834 174.622868 
L 990.124012 183.99542 
L 990.58719 184.101486 
L 991.050369 186.126396 
L 991.976725 190.826404 
L 992.439903 192.846029 
L 992.903081 186.999977 
L 993.366259 177.998139 
L 993.829438 171.464897 
L 994.755794 167.495746 
L 995.218972 171.465931 
L 995.68215 170.92181 
L 996.608507 188.98501 
L 997.071685 190.98349 
L 997.534863 190.677243 
L 997.998041 195.392764 
L 998.924397 206.721163 
L 999.387576 209.671136 
L 999.850754 219.561724 
L 1000.313932 202.694209 
L 1000.77711 209.49773 
L 1001.240288 209.038186 
L 1001.703466 190.73286 
L 1002.166645 182.745948 
L 1002.629823 169.541682 
L 1003.093001 148.44531 
L 1003.556179 156.82408 
L 1004.019357 143.318508 
L 1004.482535 142.182347 
L 1004.945714 159.88575 
L 1005.408892 154.652882 
L 1006.335248 174.492203 
L 1006.798426 179.28173 
L 1007.261604 194.897134 
L 1007.724783 190.298595 
L 1008.187961 183.279034 
L 1008.651139 185.67397 
L 1009.114317 173.796509 
L 1009.577495 168.204188 
L 1010.040673 171.561189 
L 1010.503852 162.649214 
L 1010.96703 162.675989 
L 1011.430208 159.145237 
L 1011.893386 157.575618 
L 1012.356564 163.882248 
L 1013.282921 137.986465 
L 1013.746099 138.277544 
L 1014.209277 141.861846 
L 1014.672455 155.267671 
L 1015.135633 161.976043 
L 1015.598811 162.51028 
L 1016.06199 176.386567 
L 1016.525168 184.791767 
L 1016.988346 184.041489 
L 1017.451524 191.326042 
L 1017.914702 196.580743 
L 1018.37788 187.494329 
L 1018.841059 190.33858 
L 1019.304237 192.294772 
L 1019.767415 196.872856 
L 1020.230593 198.42202 
L 1020.693771 197.412724 
L 1021.156949 193.141922 
L 1021.620127 213.308635 
L 1022.083306 221.396671 
L 1022.546484 220.841978 
L 1023.009662 210.825214 
L 1023.47284 209.609762 
L 1023.936018 202.907366 
L 1024.399196 198.943156 
L 1024.862375 190.459353 
L 1025.325553 173.956578 
L 1025.788731 166.323833 
L 1027.178265 204.918485 
L 1027.641444 197.534186 
L 1028.104622 199.627815 
L 1028.5678 203.909879 
L 1029.030978 216.469933 
L 1029.494156 209.423942 
L 1029.957334 205.512593 
L 1030.420513 197.435818 
L 1030.883691 206.063033 
L 1031.346869 201.300626 
L 1031.810047 214.405146 
L 1032.273225 207.628745 
L 1032.736403 207.792957 
L 1033.199582 206.556361 
L 1033.66276 207.719642 
L 1035.515472 225.619663 
L 1035.978651 229.018952 
L 1036.441829 240.823098 
L 1037.368185 252.431658 
L 1037.831363 253.94382 
L 1038.294541 260.710338 
L 1039.220898 266.959165 
L 1039.684076 266.12431 
L 1040.610432 235.175042 
L 1041.07361 226.252495 
L 1041.999967 199.172633 
L 1047.558105 208.777772 
L 1048.484461 227.887615 
L 1048.947639 230.219117 
L 1049.410817 233.866852 
L 1049.873996 236.54195 
L 1050.337174 234.237566 
L 1050.800352 230.601093 
L 1051.26353 210.028041 
L 1051.726708 197.458104 
L 1052.189886 192.716842 
L 1052.653065 191.755121 
L 1053.116243 195.794025 
L 1053.579421 208.665957 
L 1054.968955 202.348739 
L 1055.432134 212.048321 
L 1055.895312 219.226447 
L 1056.35849 219.754693 
L 1056.821668 211.81465 
L 1057.284846 200.893262 
L 1057.748024 186.451349 
L 1058.211203 179.400072 
L 1058.674381 174.288784 
L 1059.137559 177.603497 
L 1059.600737 161.31745 
L 1060.527093 175.775549 
L 1063.769341 175.643742 
L 1064.232519 186.612688 
L 1064.695697 190.503582 
L 1065.158875 173.361192 
L 1065.622053 196.593827 
L 1066.085231 195.15636 
L 1066.54841 196.642091 
L 1067.011588 210.143066 
L 1067.474766 206.760323 
L 1067.937944 216.386607 
L 1068.401122 236.807051 
L 1068.8643 241.437996 
L 1069.790657 248.363096 
L 1070.253835 248.960767 
L 1070.717013 239.906068 
L 1071.180191 242.15828 
L 1071.643369 239.52616 
L 1072.106548 238.162698 
L 1073.032904 220.180167 
L 1073.496082 221.121432 
L 1073.95926 225.244914 
L 1074.885617 222.15325 
L 1075.348795 211.327717 
L 1075.811973 209.023334 
L 1076.275151 215.129093 
L 1076.738329 209.431051 
L 1077.201507 199.937608 
L 1077.664686 196.026259 
L 1078.127864 193.457572 
L 1078.591042 195.64635 
L 1079.05422 199.579533 
L 1079.517398 197.824902 
L 1079.980576 194.600742 
L 1080.443755 210.92448 
L 1080.906933 220.714631 
L 1081.370111 227.105838 
L 1081.833289 227.021605 
L 1082.296467 233.233086 
L 1082.759645 225.457617 
L 1083.222824 231.43651 
L 1083.686002 212.792875 
L 1084.14918 208.363491 
L 1084.612358 201.756244 
L 1085.538714 212.979266 
L 1086.001893 222.68484 
L 1086.465071 224.889477 
L 1086.928249 229.018245 
L 1087.391427 227.041598 
L 1087.854605 227.713274 
L 1088.317783 219.943091 
L 1089.707318 185.732661 
L 1090.170496 193.958135 
L 1090.633674 192.14007 
L 1091.096852 188.033136 
L 1091.560031 189.191131 
L 1092.023209 192.246825 
L 1092.486387 196.87777 
L 1092.949565 208.037014 
L 1093.412743 200.018386 
L 1093.875921 197.782722 
L 1094.3391 197.328464 
L 1094.802278 191.651566 
L 1095.265456 181.809243 
L 1095.728634 185.604988 
L 1096.191812 180.409123 
L 1096.65499 168.838254 
L 1097.118169 162.040708 
L 1097.581347 162.432222 
L 1098.044525 160.074978 
L 1098.507703 155.201564 
L 1098.970881 148.821618 
L 1099.434059 140.41182 
L 1099.897238 151.803652 
L 1100.360416 150.202317 
L 1100.823594 150.747127 
L 1101.286772 155.1772 
L 1101.74995 166.38402 
L 1102.213128 156.975154 
L 1102.676307 163.207779 
L 1103.139485 156.077211 
L 1103.602663 158.139124 
L 1104.065841 149.956628 
L 1104.529019 147.03906 
L 1104.992197 142.392946 
L 1105.455376 151.221033 
L 1105.918554 146.395193 
L 1106.381732 146.601694 
L 1106.84491 144.640905 
L 1107.308088 146.433229 
L 1107.771266 146.967467 
L 1108.234445 150.620488 
L 1108.697623 151.123009 
L 1109.160801 149.965704 
L 1109.623979 155.553427 
L 1110.087157 163.858192 
L 1111.013514 174.848627 
L 1111.476692 177.217132 
L 1112.403048 199.67306 
L 1112.866226 202.432734 
L 1113.329404 193.81678 
L 1113.792583 192.289449 
L 1114.255761 185.217028 
L 1114.718939 189.414515 
L 1116.108473 175.270017 
L 1116.571652 181.481497 
L 1117.03483 181.106531 
L 1117.498008 183.004575 
L 1117.961186 175.229107 
L 1118.424364 172.633989 
L 1118.887542 163.785448 
L 1119.813899 162.998512 
L 1120.277077 158.5797 
L 1120.740255 162.021278 
L 1121.203433 154.340958 
L 1121.666611 151.703552 
L 1122.129789 157.550293 
L 1122.592968 165.807484 
L 1123.056146 167.060628 
L 1123.519324 181.21179 
L 1123.982502 181.973329 
L 1125.372037 157.658427 
L 1125.835215 143.814546 
L 1126.298393 143.7356 
L 1126.761571 127.560561 
L 1127.224749 122.354124 
L 1127.687927 123.216098 
L 1128.151106 120.39368 
L 1128.614284 123.502235 
L 1129.077462 130.390333 
L 1129.54064 129.719346 
L 1130.003818 135.254209 
L 1130.466996 135.365561 
L 1131.393353 168.684368 
L 1131.856531 181.979186 
L 1132.319709 188.803851 
L 1133.709244 223.317655 
L 1134.172422 216.197659 
L 1134.6356 218.587309 
L 1135.098778 213.042563 
L 1135.561956 210.484448 
L 1136.025134 209.157988 
L 1136.488313 200.8962 
L 1136.951491 196.990137 
L 1137.414669 200.933892 
L 1137.877847 200.564212 
L 1138.341025 189.268218 
L 1138.804203 192.67808 
L 1139.267382 185.706094 
L 1140.193738 193.202435 
L 1140.656916 191.294507 
L 1141.120094 194.212764 
L 1141.583272 200.677975 
L 1142.046451 185.808597 
L 1142.509629 178.397867 
L 1142.972807 166.282532 
L 1143.435985 159.273544 
L 1143.899163 156.868725 
L 1144.362341 143.923477 
L 1144.82552 145.049755 
L 1145.288698 155.934124 
L 1146.215054 163.182019 
L 1146.678232 158.335035 
L 1147.14141 158.414671 
L 1147.604589 159.879257 
L 1148.067767 159.86903 
L 1148.530945 151.559668 
L 1148.994123 146.696825 
L 1149.457301 137.911716 
L 1149.920479 136.981712 
L 1150.383658 131.246667 
L 1150.846836 132.927983 
L 1151.310014 130.094993 
L 1151.773192 132.780662 
L 1152.23637 138.976284 
L 1152.699548 138.305298 
L 1153.162727 145.457699 
L 1153.625905 146.631552 
L 1154.089083 149.058204 
L 1155.015439 141.980841 
L 1155.478617 132.17552 
L 1156.404974 125.959787 
L 1156.868152 135.786942 
L 1157.33133 139.96857 
L 1157.794508 152.169171 
L 1158.257686 146.249114 
L 1159.184043 163.154664 
L 1159.647221 166.321366 
L 1160.110399 162.64789 
L 1160.573577 154.428391 
L 1161.036755 149.560263 
L 1161.499934 165.138664 
L 1161.963112 161.486332 
L 1162.42629 168.855463 
L 1162.889468 174.432614 
L 1163.352646 174.316665 
L 1163.815824 184.011667 
L 1164.279003 185.227809 
L 1164.742181 187.913478 
L 1165.205359 196.741565 
L 1165.668537 189.954592 
L 1166.131715 189.008729 
L 1166.594893 197.556654 
L 1167.058072 197.028391 
L 1167.52125 200.744845 
L 1167.984428 199.49239 
L 1168.910784 216.524806 
L 1169.373962 222.271112 
L 1170.763497 189.40863 
L 1171.689853 159.870743 
L 1172.153031 155.980538 
L 1172.61621 145.741759 
L 1173.079388 145.646955 
L 1173.542566 145.277274 
L 1174.005744 157.87433 
L 1174.468922 158.889601 
L 1174.9321 154.116622 
L 1175.395279 156.670139 
L 1175.858457 156.067872 
L 1176.321635 151.892219 
L 1176.784813 165.863654 
L 1177.247991 164.024445 
L 1178.174348 183.462024 
L 1178.637526 180.274867 
L 1179.100704 179.878756 
L 1179.563882 189.362316 
L 1180.490238 160.654342 
L 1180.953417 155.421475 
L 1181.416595 151.774429 
L 1181.879773 152.165943 
L 1182.342951 157.510507 
L 1182.806129 156.437779 
L 1183.269307 162.353239 
L 1184.195664 184.23827 
L 1184.658842 190.111442 
L 1185.12202 189.836911 
L 1185.585198 189.012628 
L 1186.048376 182.220369 
L 1186.511555 180.000562 
L 1186.974733 183.436854 
L 1187.901089 175.830885 
L 1188.364267 177.099887 
L 1188.827445 182.418021 
L 1189.290624 192.451332 
L 1189.753802 196.36337 
L 1190.21698 204.128956 
L 1190.680158 198.716362 
L 1191.143336 191.14705 
L 1191.606514 194.171028 
L 1192.069693 193.050725 
L 1192.532871 185.259398 
L 1192.996049 180.729578 
L 1193.459227 170.348075 
L 1193.922405 178.59998 
L 1194.385583 178.822339 
L 1194.848762 178.553094 
L 1195.31194 164.407907 
L 1195.775118 162.610987 
L 1196.238296 165.899269 
L 1196.701474 162.669823 
L 1197.164652 156.231731 
L 1197.627831 155.211863 
L 1198.091009 144.735211 
L 1198.554187 143.170878 
L 1199.017365 152.242124 
L 1199.480543 153.130529 
L 1199.943721 149.922227 
L 1200.4069 151.555968 
L 1200.870078 154.738529 
L 1201.333256 172.114195 
L 1201.796434 177.548622 
L 1202.259612 163.7206 
L 1202.72279 158.059561 
L 1203.185969 156.590377 
L 1203.649147 143.634557 
L 1204.112325 146.256793 
L 1204.575503 134.807504 
L 1205.038681 134.781418 
L 1205.965038 157.078763 
L 1206.428216 170.214999 
L 1206.891394 191.830095 
L 1207.354572 195.208241 
L 1207.81775 195.224443 
L 1208.280928 199.263348 
L 1208.744107 197.128119 
L 1209.207285 187.624104 
L 1209.670463 185.462445 
L 1210.133641 175.963716 
L 1210.596819 172.88228 
L 1211.059997 176.117701 
L 1211.523176 167.681474 
L 1211.986354 168.532876 
L 1212.449532 182.488453 
L 1212.91271 178.370947 
L 1213.375888 183.926954 
L 1213.839066 187.474253 
L 1214.302245 189.768754 
L 1214.765423 203.978062 
L 1215.228601 213.969085 
L 1215.691779 208.292187 
L 1216.154957 206.981585 
L 1216.618135 206.411034 
L 1217.081314 191.938111 
L 1217.544492 187.471724 
L 1218.00767 195.55976 
L 1218.934026 174.6276 
L 1219.397204 177.656864 
L 1219.860382 171.742093 
L 1220.323561 195.149169 
L 1220.786739 195.133655 
L 1221.249917 178.609736 
L 1221.713095 181.131537 
L 1222.176273 200.700924 
L 1222.639451 210.337779 
L 1223.10263 215.053301 
L 1223.565808 207.198541 
L 1224.028986 203.794655 
L 1224.492164 207.717265 
L 1224.955342 208.547523 
L 1225.41852 197.394254 
L 1225.881699 208.949954 
L 1226.344877 214.997566 
L 1226.808055 204.84865 
L 1227.271233 215.130407 
L 1227.734411 230.259492 
L 1228.660768 248.82487 
L 1229.123946 222.024824 
L 1229.587124 207.7422 
L 1230.050302 227.211151 
L 1230.51348 235.706215 
L 1231.903015 199.233345 
L 1232.366193 205.968146 
L 1232.829371 224.744622 
L 1233.292549 224.517665 
L 1233.755727 206.476643 
L 1234.218906 213.005288 
L 1235.60844 250.188558 
L 1236.071618 241.984918 
L 1236.534796 230.821076 
L 1236.997975 234.135789 
L 1238.387509 213.774869 
L 1238.850687 204.344859 
L 1239.313865 219.00877 
L 1239.777044 223.301406 
L 1240.240222 223.777497 
L 1240.7034 231.865533 
L 1241.166578 228.112766 
L 1241.629756 229.302477 
L 1242.092934 227.917871 
L 1242.556113 216.479153 
L 1243.019291 199.638069 
L 1243.482469 209.311927 
L 1243.945647 208.355493 
L 1244.408825 215.06915 
L 1244.872003 226.963159 
L 1245.335182 228.026004 
L 1245.79836 234.459499 
L 1246.261538 255.683427 
L 1246.724716 253.072451 
L 1247.187894 253.982 
L 1247.651072 260.637511 
L 1248.114251 252.391581 
L 1248.577429 246.651251 
L 1249.040607 237.358679 
L 1249.503785 237.855914 
L 1249.966963 236.767328 
L 1250.430141 226.348823 
L 1250.89332 209.88305 
L 1251.356498 208.392722 
L 1251.819676 203.915763 
L 1252.282854 202.800746 
L 1253.20921 194.925186 
L 1253.672389 196.849661 
L 1254.135567 203.917485 
L 1254.598745 200.582318 
L 1255.061923 210.272034 
L 1255.525101 210.578971 
L 1256.451458 198.368832 
L 1256.914636 199.764699 
L 1257.377814 189.710933 
L 1258.30417 179.398494 
L 1258.767348 179.620853 
L 1259.230527 178.072379 
L 1259.693705 186.08641 
L 1260.156883 185.574005 
L 1260.620061 189.34332 
L 1261.083239 199.366059 
L 1261.546417 191.812605 
L 1262.009596 190.544292 
L 1262.472774 198.547751 
L 1262.935952 196.238082 
L 1263.862308 194.473222 
L 1264.325486 188.225429 
L 1264.788665 201.953705 
L 1265.251843 185.583081 
L 1265.715021 178.0402 
L 1266.178199 188.485824 
L 1266.641377 192.794318 
L 1267.104555 199.597839 
L 1267.567734 196.019512 
L 1268.030912 181.80032 
L 1268.49409 194.941842 
L 1268.957268 196.977325 
L 1269.883624 172.191618 
L 1270.346803 164.580017 
L 1270.809981 172.335031 
L 1271.273159 185.650993 
L 1271.736337 189.610606 
L 1272.199515 189.542232 
L 1272.662693 193.750291 
L 1273.58905 197.413884 
L 1274.052228 194.977349 
L 1274.515406 175.107345 
L 1274.978584 168.463096 
L 1276.368119 131.213173 
L 1277.294475 116.582012 
L 1277.757653 126.721045 
L 1278.220831 113.294764 
L 1278.68401 112.777074 
L 1279.147188 125.294839 
L 1279.610366 124.306688 
L 1280.073544 125.956287 
L 1280.536722 138.114599 
L 1280.9999 137.877071 
L 1281.926257 147.297542 
L 1282.389435 145.326181 
L 1282.852613 153.979827 
L 1283.315791 156.670783 
L 1283.778969 152.542704 
L 1284.242148 153.150947 
L 1284.705326 160.646943 
L 1285.168504 165.912217 
L 1285.631682 157.861872 
L 1286.558038 139.911057 
L 1287.021217 138.611028 
L 1287.484395 135.445015 
L 1287.947573 127.320665 
L 1288.410751 122.182947 
L 1288.873929 122.25201 
L 1289.337107 129.161252 
L 1290.263464 138.063688 
L 1290.726642 134.929391 
L 1291.18982 135.215184 
L 1291.652998 136.679771 
L 1292.116176 131.711207 
L 1292.579355 123.777156 
L 1293.042533 120.627001 
L 1293.505711 109.621741 
L 1293.968889 121.404743 
L 1294.432067 123.138919 
L 1294.895245 118.355367 
L 1295.358424 125.333328 
L 1295.821602 134.431004 
L 1296.28478 136.709646 
L 1296.747958 141.324733 
L 1297.211136 142.900327 
L 1297.674314 152.294023 
L 1298.137493 158.130192 
L 1298.600671 165.578614 
L 1299.063849 164.442452 
L 1299.527027 164.664812 
L 1299.990205 167.577783 
L 1300.453383 162.921097 
L 1300.916562 162.19725 
L 1301.37974 167.044923 
L 1301.842918 170.38078 
L 1302.306096 176.946427 
L 1302.769274 186.905733 
L 1303.232452 193.286367 
L 1303.695631 193.514013 
L 1305.548343 172.064507 
L 1306.011521 171.48867 
L 1306.4747 167.931487 
L 1306.937878 177.166601 
L 1307.401056 181.110356 
L 1307.864234 180.428797 
L 1308.327412 180.947177 
L 1308.79059 183.172958 
L 1309.253769 183.072867 
L 1309.716947 183.855551 
L 1310.180125 171.645067 
L 1310.643303 167.739003 
L 1311.106481 165.788787 
L 1311.569659 164.494044 
L 1312.032838 169.812178 
L 1312.496016 168.734163 
L 1312.959194 164.780525 
L 1313.422372 165.172039 
L 1313.88555 158.966534 
L 1314.348728 162.529692 
L 1314.811907 155.874871 
L 1315.275085 136.66034 
L 1315.738263 127.64793 
L 1316.201441 125.713572 
L 1316.664619 129.366593 
L 1317.127797 139.680066 
L 1317.590975 145.056346 
L 1318.054154 145.886604 
L 1318.98051 169.288739 
L 1319.443688 175.8491 
L 1319.906866 171.858459 
L 1320.370044 171.515209 
L 1320.833223 175.04665 
L 1321.759579 202.741076 
L 1322.222757 202.757278 
L 1322.685935 192.296484 
L 1323.149113 189.569215 
L 1323.612292 185.536286 
L 1324.07547 182.608146 
L 1324.538648 183.300966 
L 1325.001826 170.614736 
L 1325.465004 172.327768 
L 1325.928182 179.432595 
L 1326.391361 195.312302 
L 1327.780895 197.971542 
L 1328.244073 194.868961 
L 1328.707251 190.032549 
L 1329.17043 181.506458 
L 1329.633608 176.96078 
L 1330.096786 176.902978 
L 1331.023142 158.703717 
L 1331.48632 159.734846 
L 1331.949499 165.555157 
L 1332.412677 179.875473 
L 1332.875855 181.392921 
L 1333.339033 194.063982 
L 1333.802211 196.353196 
L 1334.265389 204.705536 
L 1334.728568 200.181002 
L 1335.191746 188.84272 
L 1335.654924 184.032738 
L 1336.118102 180.983019 
L 1336.58128 181.004508 
L 1337.044458 182.00392 
L 1337.507637 193.390466 
L 1337.970815 197.704246 
L 1338.433993 204.592343 
L 1338.897171 208.93784 
L 1339.360349 211.322203 
L 1339.823527 204.017195 
L 1340.286706 199.328793 
L 1340.749884 185.733358 
L 1341.213062 187.335383 
L 1342.139418 169.400426 
L 1342.602596 163.23721 
L 1343.528953 144.9428 
L 1343.992131 148.96056 
L 1344.455309 142.622903 
L 1344.918487 151.366412 
L 1345.381665 152.212529 
L 1345.844844 150.812064 
L 1346.7712 160.232535 
L 1347.234378 157.35197 
L 1347.697556 156.210522 
L 1348.623913 143.651502 
L 1349.087091 149.730831 
L 1349.550269 148.599956 
L 1350.013447 158.74956 
L 1350.476625 154.251457 
L 1350.939803 155.092287 
L 1351.402982 150.668188 
L 1351.86616 150.055348 
L 1352.329338 144.161722 
L 1352.792516 141.973632 
L 1353.255694 133.214954 
L 1353.718872 133.416169 
L 1354.182051 132.702894 
L 1355.108407 138.861858 
L 1355.571585 140.194293 
L 1356.034763 138.328653 
L 1356.497941 135.966123 
L 1356.96112 143.588985 
L 1357.424298 149.277144 
L 1357.887476 163.830048 
L 1358.350654 159.173362 
L 1358.813832 163.841309 
L 1359.27701 175.243713 
L 1359.740189 173.166631 
L 1360.203367 164.281086 
L 1360.666545 160.401453 
L 1361.129723 140.547308 
L 1361.592901 141.784594 
L 1362.056079 136.070693 
L 1362.519258 139.438266 
L 1362.982436 139.068586 
L 1363.445614 140.586033 
L 1364.37197 155.001843 
L 1364.835148 167.075578 
L 1365.298327 173.413924 
L 1365.761505 165.860471 
L 1366.687861 188.443264 
L 1367.151039 186.08602 
L 1367.614217 188.058069 
L 1368.077396 178.649204 
L 1368.540574 178.089225 
L 1369.003752 177.222653 
L 1369.46693 179.480151 
L 1369.930108 189.962778 
L 1370.393286 184.074438 
L 1370.856465 181.754196 
L 1371.782821 188.484056 
L 1372.245999 182.754297 
L 1372.709177 181.253397 
L 1373.172355 152.952107 
L 1373.635534 162.4991 
L 1374.098712 155.659266 
L 1374.56189 153.127581 
L 1375.025068 141.974312 
L 1375.488246 148.761974 
L 1375.951424 147.139494 
L 1376.414603 163.637672 
L 1376.877781 162.51737 
L 1377.340959 179.211133 
L 1377.804137 189.202155 
L 1378.267315 205.800769 
L 1378.730493 198.458758 
L 1379.193672 198.659973 
L 1379.65685 208.862438 
L 1380.120028 207.02323 
L 1380.583206 201.568347 
L 1381.046384 200.474474 
L 1381.509562 192.217973 
L 1381.972741 215.04358 
L 1382.435919 215.762831 
L 1382.899097 220.821947 
L 1383.362275 227.308303 
L 1383.825453 242.437389 
L 1384.75181 256.176581 
L 1385.214988 245.176608 
L 1385.678166 244.008731 
L 1386.141344 227.949985 
L 1386.604522 221.284592 
L 1387.0677 202.403084 
L 1387.530879 198.00013 
L 1387.994057 192.180508 
L 1388.457235 181.339117 
L 1388.920413 177.9088 
L 1389.383591 186.477869 
L 1390.309948 197.515878 
L 1390.773126 184.295754 
L 1391.699482 197.548628 
L 1392.16266 206.419003 
L 1392.625838 206.979672 
L 1393.089017 208.893575 
L 1393.552195 212.403872 
L 1394.015373 218.546633 
L 1394.478551 206.172281 
L 1394.941729 208.900239 
L 1395.868086 194.633817 
L 1396.331264 191.198214 
L 1396.794442 192.31392 
L 1397.25762 181.250514 
L 1397.720798 180.975983 
L 1398.183976 171.530115 
L 1398.647155 168.755271 
L 1399.110333 167.005925 
L 1399.573511 171.525862 
L 1400.036689 155.424829 
L 1400.499867 171.695706 
L 1400.963045 175.026276 
L 1401.426224 181.708217 
L 1401.889402 192.053406 
L 1402.35258 198.397038 
L 1402.815758 193.682206 
L 1403.278936 209.757498 
L 1403.742114 200.168907 
L 1404.205293 203.8325 
L 1404.668471 210.482724 
L 1405.131649 206.476225 
L 1405.594827 206.656296 
L 1406.058005 207.132387 
L 1406.521183 201.265191 
L 1406.984362 215.537932 
L 1407.44754 213.883736 
L 1408.373896 205.780875 
L 1409.763431 172.844388 
L 1410.226609 154.750505 
L 1410.689787 156.088226 
L 1411.152965 153.508967 
L 1411.616143 156.104774 
L 1412.079321 165.625336 
L 1412.5425 183.883776 
L 1413.005678 191.385058 
L 1413.468856 200.768182 
L 1413.932034 197.919333 
L 1414.395212 203.781933 
L 1414.85839 206.166296 
L 1415.321568 207.498731 
L 1415.784747 207.784524 
L 1416.247925 207.700291 
L 1416.711103 212.035215 
L 1417.174281 214.884753 
L 1417.637459 202.505115 
L 1418.100637 184.908123 
L 1418.563816 172.375188 
L 1419.026994 163.611224 
L 1419.490172 163.415984 
L 1420.416528 156.819654 
L 1420.879706 151.084609 
L 1421.342885 154.505043 
L 1421.806063 154.452527 
L 1422.269241 155.858967 
L 1422.732419 149.849046 
L 1423.195597 145.546527 
L 1423.658775 139.282875 
L 1424.121954 150.019234 
L 1424.585132 155.32151 
L 1425.04831 165.381251 
L 1425.511488 170.620094 
L 1425.974666 170.636297 
L 1426.437844 170.060459 
L 1426.901023 178.381083 
L 1427.364201 179.776951 
L 1427.827379 182.224747 
L 1428.753735 159.442462 
L 1429.216913 155.827132 
L 1429.680092 159.353287 
L 1430.606448 148.70254 
L 1431.069626 150.077263 
L 1431.532804 164.090987 
L 1431.995982 168.753648 
L 1432.459161 185.537274 
L 1433.385517 201.649914 
L 1433.848695 205.694104 
L 1434.311873 208.163045 
L 1434.775051 199.309217 
L 1435.23823 201.043393 
L 1435.701408 185.248952 
L 1436.164586 164.242443 
L 1436.627764 163.14857 
L 1437.55412 150.066228 
L 1438.017299 141.555996 
L 1438.480477 130.656458 
L 1438.943655 130.096478 
L 1439.406833 134.63756 
L 1439.870011 126.983671 
L 1440.333189 121.306773 
L 1440.796368 120.107179 
L 1441.259546 124.933708 
L 1441.722724 123.755258 
L 1442.185902 127.387135 
L 1443.112258 137.938826 
L 1443.575437 135.237987 
L 1444.038615 128.868613 
L 1444.501793 125.078844 
L 1444.964971 128.234974 
L 1445.428149 125.222257 
L 1445.891327 120.147971 
L 1446.354506 116.812804 
L 1446.817684 124.805691 
L 1447.280862 128.374134 
L 1447.74404 123.400284 
L 1448.207218 125.546775 
L 1448.670396 126.673053 
L 1449.133575 132.10748 
L 1449.596753 126.018269 
L 1450.059931 121.699892 
L 1450.523109 123.497501 
L 1450.986287 137.31564 
L 1451.449465 141.89901 
L 1451.912644 139.018445 
L 1452.375822 132.797081 
L 1452.839 143.295567 
L 1453.302178 146.240254 
L 1453.765356 150.506459 
L 1454.691713 142.75248 
L 1455.154891 145.22142 
L 1455.618069 150.185387 
L 1456.081247 156.618883 
L 1456.544425 151.5816 
L 1457.007603 154.071684 
L 1457.93396 166.737804 
L 1458.397138 165.178757 
L 1459.323494 161.262466 
L 1459.786672 172.501002 
L 1460.249851 170.661793 
L 1460.713029 157.906844 
L 1461.176207 151.21502 
L 1461.639385 147.69484 
L 1462.102563 149.074849 
L 1462.565741 146.17314 
L 1463.02892 147.532005 
L 1464.881632 204.311093 
L 1465.807989 227.147617 
L 1466.271167 225.14454 
L 1467.197523 212.278928 
L 1468.123879 204.847398 
L 1468.587058 197.003211 
L 1469.050236 185.939804 
L 1469.513414 193.398798 
L 1470.43977 190.465716 
L 1471.366127 185.666651 
L 1471.829305 183.378126 
L 1472.292483 179.694078 
L 1472.755661 171.252564 
L 1473.218839 175.518769 
L 1473.682017 166.638511 
L 1474.145196 169.155027 
L 1474.608374 165.42869 
L 1475.071552 159.360623 
L 1475.997908 143.201787 
L 1476.461086 116.56561 
L 1476.924265 119.224849 
L 1477.850621 96.680437 
L 1478.313799 89.993899 
L 1478.776977 89.370487 
L 1479.240155 85.025679 
L 1479.703334 100.947676 
L 1480.166512 96.195841 
L 1480.62969 99.240963 
L 1481.092868 105.024272 
L 1481.556046 106.229841 
L 1482.019224 118.372295 
L 1482.482403 124.567917 
L 1482.945581 112.457868 
L 1483.408759 111.95075 
L 1483.871937 111.892948 
L 1484.798293 121.583008 
L 1485.261472 118.247841 
L 1485.72465 122.815353 
L 1486.187828 128.69381 
L 1486.651006 133.018162 
L 1487.577362 122.182402 
L 1488.040541 123.84786 
L 1488.503719 121.628053 
L 1488.966897 115.565272 
L 1489.430075 111.981659 
L 1489.893253 110.713346 
L 1490.356431 112.06164 
L 1490.81961 111.522805 
L 1491.282788 121.180804 
L 1491.745966 119.843773 
L 1492.209144 121.461655 
L 1492.672322 132.198014 
L 1493.1355 138.36192 
L 1494.061857 179.377249 
L 1494.525035 192.714356 
L 1495.451391 229.595976 
L 1496.377748 266.482882 
L 1496.840926 264.918549 
L 1497.304104 267.308198 
L 1497.767282 264.401203 
L 1498.693638 278.314836 
L 1499.156817 276.95666 
L 1499.619995 262.240577 
L 1500.083173 262.330785 
L 1500.546351 256.764895 
L 1501.472707 235.568431 
L 1502.399064 196.288312 
L 1502.862242 192.667697 
L 1503.32542 186.499194 
L 1503.788598 177.782804 
L 1504.251776 178.930227 
L 1504.714955 174.706999 
L 1505.178133 181.53695 
L 1505.641311 190.137735 
L 1506.104489 192.77583 
L 1506.567667 189.953412 
L 1507.030845 210.580013 
L 1507.494024 216.944789 
L 1507.957202 210.353401 
L 1508.42038 199.728739 
L 1509.346736 206.495601 
L 1509.809914 216.148315 
L 1510.273093 202.526449 
L 1510.736271 196.373805 
L 1511.199449 192.266871 
L 1511.662627 202.818217 
L 1512.125805 193.034041 
L 1512.588983 196.190171 
L 1513.052161 190.57142 
L 1513.51534 198.717603 
L 1513.978518 195.435296 
L 1514.904874 208.413294 
L 1515.368052 217.732985 
L 1515.83123 207.319766 
L 1516.294409 203.857733 
L 1516.757587 190.246439 
L 1517.683943 210.038186 
L 1518.147121 202.812469 
L 1518.610299 203.336134 
L 1519.073478 211.498175 
L 1519.536656 215.383784 
L 1519.999834 223.1758 
L 1520.463012 216.298963 
L 1520.92619 216.574184 
L 1521.389368 215.411592 
L 1521.852547 204.416905 
L 1522.315725 197.006175 
L 1522.778903 185.990344 
L 1523.705259 177.052283 
L 1524.168437 178.442865 
L 1524.631616 172.543952 
L 1525.094794 188.751397 
L 1525.557972 196.696709 
L 1526.947506 226.083022 
L 1527.410685 228.329948 
L 1527.873863 235.329053 
L 1528.800219 202.682955 
L 1529.263397 185.313264 
L 1529.726575 174.345007 
L 1530.652932 141.223163 
L 1531.11611 139.870273 
L 1531.579288 141.001837 
L 1532.042466 147.916365 
L 1532.505644 162.997876 
L 1532.968823 158.621352 
L 1533.432001 147.869824 
L 1533.895179 149.25512 
L 1534.358357 151.924931 
L 1534.821535 161.868379 
L 1535.284713 158.956097 
L 1535.747892 159.157313 
L 1536.674248 203.851748 
L 1537.137426 203.619506 
L 1537.600604 200.744227 
L 1538.063782 182.470617 
L 1538.526961 189.480294 
L 1538.990139 179.548108 
L 1539.453317 161.565232 
L 1539.916495 157.897042 
L 1540.379673 161.153607 
L 1540.842851 158.85451 
L 1541.30603 162.570964 
L 1542.695564 183.113677 
L 1543.158742 176.765448 
L 1544.085099 183.838903 
L 1544.548277 208.186899 
L 1545.011455 204.814729 
L 1545.474633 215.889397 
L 1545.937811 210.58781 
L 1546.400989 226.018202 
L 1546.864168 223.512948 
L 1547.327346 227.107822 
L 1547.790524 217.143919 
L 1548.253702 210.325229 
L 1548.71688 206.672897 
L 1549.180058 205.542022 
L 1550.106415 206.212992 
L 1550.569593 214.871218 
L 1551.032771 215.188021 
L 1551.495949 219.892265 
L 1551.959127 233.392534 
L 1552.422306 240.184776 
L 1552.885484 232.038576 
L 1553.348662 226.218955 
L 1553.81184 236.331557 
L 1554.275018 234.835943 
L 1554.738196 230.385414 
L 1555.201375 235.655973 
L 1555.664553 236.211355 
L 1556.590909 248.347817 
L 1556.590909 248.347817 
" clip-path="url(#p399da164d5)" style="fill: none; stroke: #38a9c2; stroke-width: 2.5; stroke-linecap: square"/>
   </g>
   <g id="patch_3">
    <path d="M 225 320.4 
L 225 43.2 
" style="fill: none; stroke: #000000; stroke-width: 0.8; stroke-linejoin: miter; stroke-linecap: square"/>
   </g>
   <g id="patch_4">
    <path d="M 1620 320.4 
L 1620 43.2 
" style="fill: none; stroke: #000000; stroke-width: 0.8; stroke-linejoin: miter; stroke-linecap: square"/>
   </g>
   <g id="patch_5">
    <path d="M 225 320.4 
L 1620 320.4 
" style="fill: none; stroke: #000000; stroke-width: 0.8; stroke-linejoin: miter; stroke-linecap: square"/>
   </g>
   <g id="patch_6">
    <path d="M 225 43.2 
L 1620 43.2 
" style="fill: none; stroke: #000000; stroke-width: 0.8; stroke-linejoin: miter; stroke-linecap: square"/>
   </g>
   <g id="text_18">
    <!-- MT01 -->
    <g transform="translate(895.039062 37.2) scale(0.2 -0.2)">
     <defs>
      <path id="DejaVuSans-4d" d="M 628 4666 
L 1569 4666 
L 2759 1491 
L 3956 4666 
L 4897 4666 
L 4897 0 
L 4281 0 
L 4281 4097 
L 3078 897 
L 2444 897 
L 1241 4097 
L 1241 0 
L 628 0 
L 628 4666 
z
" transform="scale(0.015625)"/>
     </defs>
     <use xlink:href="#DejaVuSans-4d"/>
     <use xlink:href="#DejaVuSans-54" x="86.279297"/>
     <use xlink:href="#DejaVuSans-30" x="147.363281"/>
     <use xlink:href="#DejaVuSans-31" x="210.986328"/>
    </g>
   </g>
   <g id="legend_1">
    <g id="patch_7">
     <path d="M 1554.614063 65.878125 
L 1613 65.878125 
Q 1615 65.878125 1615 63.878125 
L 1615 50.2 
Q 1615 48.2 1613 48.2 
L 1554.614063 48.2 
Q 1552.614063 48.2 1552.614063 50.2 
L 1552.614063 63.878125 
Q 1552.614063 65.878125 1554.614063 65.878125 
z
" style="fill: #ffffff; opacity: 0.8; stroke: #cccccc; stroke-linejoin: miter"/>
    </g>
    <g id="line2d_17">
     <path d="M 1556.614063 56.298437 
L 1566.614063 56.298437 
L 1576.614063 56.298437 
" style="fill: none; stroke: #38a9c2; stroke-width: 2.5; stroke-linecap: square"/>
    </g>
    <g id="text_19">
     <!-- mt01 -->
     <g transform="translate(1584.614063 59.798437) scale(0.1 -0.1)">
      <use xlink:href="#DejaVuSans-6d"/>
      <use xlink:href="#DejaVuSans-74" x="97.412109"/>
      <use xlink:href="#DejaVuSans-30" x="136.621094"/>
      <use xlink:href="#DejaVuSans-31" x="200.244141"/>
     </g>
    </g>
   </g>
  </g>
 </g>
 <defs>
  <clipPath id="p399da164d5">
   <rect x="225" y="43.2" width="1395" height="277.2"/>
  </clipPath>
 </defs>
</svg>
