<?xml version="1.0" encoding="utf-8" standalone="no"?>
<!DOCTYPE svg PUBLIC "-//W3C//DTD SVG 1.1//EN"
  "http://www.w3.org/Graphics/SVG/1.1/DTD/svg11.dtd">
<svg xmlns:xlink="http://www.w3.org/1999/xlink" width="1800pt" height="360pt" viewBox="0 0 1800 360" xmlns="http://www.w3.org/2000/svg" version="1.1">
 <metadata>
  <rdf:RDF xmlns:dc="http://purl.org/dc/elements/1.1/" xmlns:cc="http://creativecommons.org/ns#" xmlns:rdf="http://www.w3.org/1999/02/22-rdf-syntax-ns#">
   <cc:Work>
    <dc:type rdf:resource="http://purl.org/dc/dcmitype/StillImage"/>
    <dc:date>2024-03-25T15:23:14.211928</dc:date>
    <dc:format>image/svg+xml</dc:format>
    <dc:creator>
     <cc:Agent>
      <dc:title>Matplotlib v3.7.2, https://matplotlib.org/</dc:title>
     </cc:Agent>
    </dc:creator>
   </cc:Work>
  </rdf:RDF>
 </metadata>
 <defs>
  <style type="text/css">*{stroke-linejoin: round; stroke-linecap: butt}</style>
 </defs>
 <g id="figure_1">
  <g id="patch_1">
   <path d="M 0 360 
L 1800 360 
L 1800 0 
L 0 0 
z
" style="fill: #ffffff"/>
  </g>
  <g id="axes_1">
   <g id="patch_2">
    <path d="M 225 320.4 
L 1620 320.4 
L 1620 43.2 
L 225 43.2 
z
" style="fill: #ffffff"/>
   </g>
   <g id="matplotlib.axis_1">
    <g id="xtick_1">
     <g id="line2d_1">
      <defs>
       <path id="m75852bee10" d="M 0 0 
L 0 3.5 
" style="stroke: #000000; stroke-width: 0.8"/>
      </defs>
      <g>
       <use xlink:href="#m75852bee10" x="277.693571" y="320.4" style="stroke: #000000; stroke-width: 0.8"/>
      </g>
     </g>
     <g id="text_1">
      <!-- 2012 -->
      <g transform="translate(258.606071 338.797656) scale(0.15 -0.15)">
       <defs>
        <path id="DejaVuSans-32" d="M 1228 531 
L 3431 531 
L 3431 0 
L 469 0 
L 469 531 
Q 828 903 1448 1529 
Q 2069 2156 2228 2338 
Q 2531 2678 2651 2914 
Q 2772 3150 2772 3378 
Q 2772 3750 2511 3984 
Q 2250 4219 1831 4219 
Q 1534 4219 1204 4116 
Q 875 4013 500 3803 
L 500 4441 
Q 881 4594 1212 4672 
Q 1544 4750 1819 4750 
Q 2544 4750 2975 4387 
Q 3406 4025 3406 3419 
Q 3406 3131 3298 2873 
Q 3191 2616 2906 2266 
Q 2828 2175 2409 1742 
Q 1991 1309 1228 531 
z
" transform="scale(0.015625)"/>
        <path id="DejaVuSans-30" d="M 2034 4250 
Q 1547 4250 1301 3770 
Q 1056 3291 1056 2328 
Q 1056 1369 1301 889 
Q 1547 409 2034 409 
Q 2525 409 2770 889 
Q 3016 1369 3016 2328 
Q 3016 3291 2770 3770 
Q 2525 4250 2034 4250 
z
M 2034 4750 
Q 2819 4750 3233 4129 
Q 3647 3509 3647 2328 
Q 3647 1150 3233 529 
Q 2819 -91 2034 -91 
Q 1250 -91 836 529 
Q 422 1150 422 2328 
Q 422 3509 836 4129 
Q 1250 4750 2034 4750 
z
" transform="scale(0.015625)"/>
        <path id="DejaVuSans-31" d="M 794 531 
L 1825 531 
L 1825 4091 
L 703 3866 
L 703 4441 
L 1819 4666 
L 2450 4666 
L 2450 531 
L 3481 531 
L 3481 0 
L 794 0 
L 794 531 
z
" transform="scale(0.015625)"/>
       </defs>
       <use xlink:href="#DejaVuSans-32"/>
       <use xlink:href="#DejaVuSans-30" x="63.623047"/>
       <use xlink:href="#DejaVuSans-31" x="127.246094"/>
       <use xlink:href="#DejaVuSans-32" x="190.869141"/>
      </g>
     </g>
    </g>
    <g id="xtick_2">
     <g id="line2d_2">
      <g>
       <use xlink:href="#m75852bee10" x="473.787591" y="320.4" style="stroke: #000000; stroke-width: 0.8"/>
      </g>
     </g>
     <g id="text_2">
      <!-- 2013 -->
      <g transform="translate(454.700091 338.797656) scale(0.15 -0.15)">
       <defs>
        <path id="DejaVuSans-33" d="M 2597 2516 
Q 3050 2419 3304 2112 
Q 3559 1806 3559 1356 
Q 3559 666 3084 287 
Q 2609 -91 1734 -91 
Q 1441 -91 1130 -33 
Q 819 25 488 141 
L 488 750 
Q 750 597 1062 519 
Q 1375 441 1716 441 
Q 2309 441 2620 675 
Q 2931 909 2931 1356 
Q 2931 1769 2642 2001 
Q 2353 2234 1838 2234 
L 1294 2234 
L 1294 2753 
L 1863 2753 
Q 2328 2753 2575 2939 
Q 2822 3125 2822 3475 
Q 2822 3834 2567 4026 
Q 2313 4219 1838 4219 
Q 1578 4219 1281 4162 
Q 984 4106 628 3988 
L 628 4550 
Q 988 4650 1302 4700 
Q 1616 4750 1894 4750 
Q 2613 4750 3031 4423 
Q 3450 4097 3450 3541 
Q 3450 3153 3228 2886 
Q 3006 2619 2597 2516 
z
" transform="scale(0.015625)"/>
       </defs>
       <use xlink:href="#DejaVuSans-32"/>
       <use xlink:href="#DejaVuSans-30" x="63.623047"/>
       <use xlink:href="#DejaVuSans-31" x="127.246094"/>
       <use xlink:href="#DejaVuSans-33" x="190.869141"/>
      </g>
     </g>
    </g>
    <g id="xtick_3">
     <g id="line2d_3">
      <g>
       <use xlink:href="#m75852bee10" x="669.345835" y="320.4" style="stroke: #000000; stroke-width: 0.8"/>
      </g>
     </g>
     <g id="text_3">
      <!-- 2014 -->
      <g transform="translate(650.258335 338.797656) scale(0.15 -0.15)">
       <defs>
        <path id="DejaVuSans-34" d="M 2419 4116 
L 825 1625 
L 2419 1625 
L 2419 4116 
z
M 2253 4666 
L 3047 4666 
L 3047 1625 
L 3713 1625 
L 3713 1100 
L 3047 1100 
L 3047 0 
L 2419 0 
L 2419 1100 
L 313 1100 
L 313 1709 
L 2253 4666 
z
" transform="scale(0.015625)"/>
       </defs>
       <use xlink:href="#DejaVuSans-32"/>
       <use xlink:href="#DejaVuSans-30" x="63.623047"/>
       <use xlink:href="#DejaVuSans-31" x="127.246094"/>
       <use xlink:href="#DejaVuSans-34" x="190.869141"/>
      </g>
     </g>
    </g>
    <g id="xtick_4">
     <g id="line2d_4">
      <g>
       <use xlink:href="#m75852bee10" x="864.904079" y="320.4" style="stroke: #000000; stroke-width: 0.8"/>
      </g>
     </g>
     <g id="text_4">
      <!-- 2015 -->
      <g transform="translate(845.816579 338.797656) scale(0.15 -0.15)">
       <defs>
        <path id="DejaVuSans-35" d="M 691 4666 
L 3169 4666 
L 3169 4134 
L 1269 4134 
L 1269 2991 
Q 1406 3038 1543 3061 
Q 1681 3084 1819 3084 
Q 2600 3084 3056 2656 
Q 3513 2228 3513 1497 
Q 3513 744 3044 326 
Q 2575 -91 1722 -91 
Q 1428 -91 1123 -41 
Q 819 9 494 109 
L 494 744 
Q 775 591 1075 516 
Q 1375 441 1709 441 
Q 2250 441 2565 725 
Q 2881 1009 2881 1497 
Q 2881 1984 2565 2268 
Q 2250 2553 1709 2553 
Q 1456 2553 1204 2497 
Q 953 2441 691 2322 
L 691 4666 
z
" transform="scale(0.015625)"/>
       </defs>
       <use xlink:href="#DejaVuSans-32"/>
       <use xlink:href="#DejaVuSans-30" x="63.623047"/>
       <use xlink:href="#DejaVuSans-31" x="127.246094"/>
       <use xlink:href="#DejaVuSans-35" x="190.869141"/>
      </g>
     </g>
    </g>
    <g id="xtick_5">
     <g id="line2d_5">
      <g>
       <use xlink:href="#m75852bee10" x="1060.462323" y="320.4" style="stroke: #000000; stroke-width: 0.8"/>
      </g>
     </g>
     <g id="text_5">
      <!-- 2016 -->
      <g transform="translate(1041.374823 338.797656) scale(0.15 -0.15)">
       <defs>
        <path id="DejaVuSans-36" d="M 2113 2584 
Q 1688 2584 1439 2293 
Q 1191 2003 1191 1497 
Q 1191 994 1439 701 
Q 1688 409 2113 409 
Q 2538 409 2786 701 
Q 3034 994 3034 1497 
Q 3034 2003 2786 2293 
Q 2538 2584 2113 2584 
z
M 3366 4563 
L 3366 3988 
Q 3128 4100 2886 4159 
Q 2644 4219 2406 4219 
Q 1781 4219 1451 3797 
Q 1122 3375 1075 2522 
Q 1259 2794 1537 2939 
Q 1816 3084 2150 3084 
Q 2853 3084 3261 2657 
Q 3669 2231 3669 1497 
Q 3669 778 3244 343 
Q 2819 -91 2113 -91 
Q 1303 -91 875 529 
Q 447 1150 447 2328 
Q 447 3434 972 4092 
Q 1497 4750 2381 4750 
Q 2619 4750 2861 4703 
Q 3103 4656 3366 4563 
z
" transform="scale(0.015625)"/>
       </defs>
       <use xlink:href="#DejaVuSans-32"/>
       <use xlink:href="#DejaVuSans-30" x="63.623047"/>
       <use xlink:href="#DejaVuSans-31" x="127.246094"/>
       <use xlink:href="#DejaVuSans-36" x="190.869141"/>
      </g>
     </g>
    </g>
    <g id="xtick_6">
     <g id="line2d_6">
      <g>
       <use xlink:href="#m75852bee10" x="1256.556343" y="320.4" style="stroke: #000000; stroke-width: 0.8"/>
      </g>
     </g>
     <g id="text_6">
      <!-- 2017 -->
      <g transform="translate(1237.468843 338.797656) scale(0.15 -0.15)">
       <defs>
        <path id="DejaVuSans-37" d="M 525 4666 
L 3525 4666 
L 3525 4397 
L 1831 0 
L 1172 0 
L 2766 4134 
L 525 4134 
L 525 4666 
z
" transform="scale(0.015625)"/>
       </defs>
       <use xlink:href="#DejaVuSans-32"/>
       <use xlink:href="#DejaVuSans-30" x="63.623047"/>
       <use xlink:href="#DejaVuSans-31" x="127.246094"/>
       <use xlink:href="#DejaVuSans-37" x="190.869141"/>
      </g>
     </g>
    </g>
    <g id="xtick_7">
     <g id="line2d_7">
      <g>
       <use xlink:href="#m75852bee10" x="1452.114587" y="320.4" style="stroke: #000000; stroke-width: 0.8"/>
      </g>
     </g>
     <g id="text_7">
      <!-- 2018 -->
      <g transform="translate(1433.027087 338.797656) scale(0.15 -0.15)">
       <defs>
        <path id="DejaVuSans-38" d="M 2034 2216 
Q 1584 2216 1326 1975 
Q 1069 1734 1069 1313 
Q 1069 891 1326 650 
Q 1584 409 2034 409 
Q 2484 409 2743 651 
Q 3003 894 3003 1313 
Q 3003 1734 2745 1975 
Q 2488 2216 2034 2216 
z
M 1403 2484 
Q 997 2584 770 2862 
Q 544 3141 544 3541 
Q 544 4100 942 4425 
Q 1341 4750 2034 4750 
Q 2731 4750 3128 4425 
Q 3525 4100 3525 3541 
Q 3525 3141 3298 2862 
Q 3072 2584 2669 2484 
Q 3125 2378 3379 2068 
Q 3634 1759 3634 1313 
Q 3634 634 3220 271 
Q 2806 -91 2034 -91 
Q 1263 -91 848 271 
Q 434 634 434 1313 
Q 434 1759 690 2068 
Q 947 2378 1403 2484 
z
M 1172 3481 
Q 1172 3119 1398 2916 
Q 1625 2713 2034 2713 
Q 2441 2713 2670 2916 
Q 2900 3119 2900 3481 
Q 2900 3844 2670 4047 
Q 2441 4250 2034 4250 
Q 1625 4250 1398 4047 
Q 1172 3844 1172 3481 
z
" transform="scale(0.015625)"/>
       </defs>
       <use xlink:href="#DejaVuSans-32"/>
       <use xlink:href="#DejaVuSans-30" x="63.623047"/>
       <use xlink:href="#DejaVuSans-31" x="127.246094"/>
       <use xlink:href="#DejaVuSans-38" x="190.869141"/>
      </g>
     </g>
    </g>
    <g id="text_8">
     <!-- Time -->
     <g transform="translate(904.149609 357.314844) scale(0.15 -0.15)">
      <defs>
       <path id="DejaVuSans-54" d="M -19 4666 
L 3928 4666 
L 3928 4134 
L 2272 4134 
L 2272 0 
L 1638 0 
L 1638 4134 
L -19 4134 
L -19 4666 
z
" transform="scale(0.015625)"/>
       <path id="DejaVuSans-69" d="M 603 3500 
L 1178 3500 
L 1178 0 
L 603 0 
L 603 3500 
z
M 603 4863 
L 1178 4863 
L 1178 4134 
L 603 4134 
L 603 4863 
z
" transform="scale(0.015625)"/>
       <path id="DejaVuSans-6d" d="M 3328 2828 
Q 3544 3216 3844 3400 
Q 4144 3584 4550 3584 
Q 5097 3584 5394 3201 
Q 5691 2819 5691 2113 
L 5691 0 
L 5113 0 
L 5113 2094 
Q 5113 2597 4934 2840 
Q 4756 3084 4391 3084 
Q 3944 3084 3684 2787 
Q 3425 2491 3425 1978 
L 3425 0 
L 2847 0 
L 2847 2094 
Q 2847 2600 2669 2842 
Q 2491 3084 2119 3084 
Q 1678 3084 1418 2786 
Q 1159 2488 1159 1978 
L 1159 0 
L 581 0 
L 581 3500 
L 1159 3500 
L 1159 2956 
Q 1356 3278 1631 3431 
Q 1906 3584 2284 3584 
Q 2666 3584 2933 3390 
Q 3200 3197 3328 2828 
z
" transform="scale(0.015625)"/>
       <path id="DejaVuSans-65" d="M 3597 1894 
L 3597 1613 
L 953 1613 
Q 991 1019 1311 708 
Q 1631 397 2203 397 
Q 2534 397 2845 478 
Q 3156 559 3463 722 
L 3463 178 
Q 3153 47 2828 -22 
Q 2503 -91 2169 -91 
Q 1331 -91 842 396 
Q 353 884 353 1716 
Q 353 2575 817 3079 
Q 1281 3584 2069 3584 
Q 2775 3584 3186 3129 
Q 3597 2675 3597 1894 
z
M 3022 2063 
Q 3016 2534 2758 2815 
Q 2500 3097 2075 3097 
Q 1594 3097 1305 2825 
Q 1016 2553 972 2059 
L 3022 2063 
z
" transform="scale(0.015625)"/>
      </defs>
      <use xlink:href="#DejaVuSans-54"/>
      <use xlink:href="#DejaVuSans-69" x="57.958984"/>
      <use xlink:href="#DejaVuSans-6d" x="85.742188"/>
      <use xlink:href="#DejaVuSans-65" x="183.154297"/>
     </g>
    </g>
   </g>
   <g id="matplotlib.axis_2">
    <g id="ytick_1">
     <g id="line2d_8">
      <defs>
       <path id="mf01f213333" d="M 0 0 
L -3.5 0 
" style="stroke: #000000; stroke-width: 0.8"/>
      </defs>
      <g>
       <use xlink:href="#mf01f213333" x="225" y="271.764866" style="stroke: #000000; stroke-width: 0.8"/>
      </g>
     </g>
     <g id="text_9">
      <!-- −0.004 -->
      <g transform="translate(162.488281 277.463694) scale(0.15 -0.15)">
       <defs>
        <path id="DejaVuSans-2212" d="M 678 2272 
L 4684 2272 
L 4684 1741 
L 678 1741 
L 678 2272 
z
" transform="scale(0.015625)"/>
        <path id="DejaVuSans-2e" d="M 684 794 
L 1344 794 
L 1344 0 
L 684 0 
L 684 794 
z
" transform="scale(0.015625)"/>
       </defs>
       <use xlink:href="#DejaVuSans-2212"/>
       <use xlink:href="#DejaVuSans-30" x="83.789062"/>
       <use xlink:href="#DejaVuSans-2e" x="147.412109"/>
       <use xlink:href="#DejaVuSans-30" x="179.199219"/>
       <use xlink:href="#DejaVuSans-30" x="242.822266"/>
       <use xlink:href="#DejaVuSans-34" x="306.445312"/>
      </g>
     </g>
    </g>
    <g id="ytick_2">
     <g id="line2d_9">
      <g>
       <use xlink:href="#mf01f213333" x="225" y="222.054374" style="stroke: #000000; stroke-width: 0.8"/>
      </g>
     </g>
     <g id="text_10">
      <!-- −0.002 -->
      <g transform="translate(162.488281 227.753202) scale(0.15 -0.15)">
       <use xlink:href="#DejaVuSans-2212"/>
       <use xlink:href="#DejaVuSans-30" x="83.789062"/>
       <use xlink:href="#DejaVuSans-2e" x="147.412109"/>
       <use xlink:href="#DejaVuSans-30" x="179.199219"/>
       <use xlink:href="#DejaVuSans-30" x="242.822266"/>
       <use xlink:href="#DejaVuSans-32" x="306.445312"/>
      </g>
     </g>
    </g>
    <g id="ytick_3">
     <g id="line2d_10">
      <g>
       <use xlink:href="#mf01f213333" x="225" y="172.343883" style="stroke: #000000; stroke-width: 0.8"/>
      </g>
     </g>
     <g id="text_11">
      <!-- 0.000 -->
      <g transform="translate(175.057813 178.042711) scale(0.15 -0.15)">
       <use xlink:href="#DejaVuSans-30"/>
       <use xlink:href="#DejaVuSans-2e" x="63.623047"/>
       <use xlink:href="#DejaVuSans-30" x="95.410156"/>
       <use xlink:href="#DejaVuSans-30" x="159.033203"/>
       <use xlink:href="#DejaVuSans-30" x="222.65625"/>
      </g>
     </g>
    </g>
    <g id="ytick_4">
     <g id="line2d_11">
      <g>
       <use xlink:href="#mf01f213333" x="225" y="122.633392" style="stroke: #000000; stroke-width: 0.8"/>
      </g>
     </g>
     <g id="text_12">
      <!-- 0.002 -->
      <g transform="translate(175.057813 128.33222) scale(0.15 -0.15)">
       <use xlink:href="#DejaVuSans-30"/>
       <use xlink:href="#DejaVuSans-2e" x="63.623047"/>
       <use xlink:href="#DejaVuSans-30" x="95.410156"/>
       <use xlink:href="#DejaVuSans-30" x="159.033203"/>
       <use xlink:href="#DejaVuSans-32" x="222.65625"/>
      </g>
     </g>
    </g>
    <g id="ytick_5">
     <g id="line2d_12">
      <g>
       <use xlink:href="#mf01f213333" x="225" y="72.9229" style="stroke: #000000; stroke-width: 0.8"/>
      </g>
     </g>
     <g id="text_13">
      <!-- 0.004 -->
      <g transform="translate(175.057813 78.621728) scale(0.15 -0.15)">
       <use xlink:href="#DejaVuSans-30"/>
       <use xlink:href="#DejaVuSans-2e" x="63.623047"/>
       <use xlink:href="#DejaVuSans-30" x="95.410156"/>
       <use xlink:href="#DejaVuSans-30" x="159.033203"/>
       <use xlink:href="#DejaVuSans-34" x="222.65625"/>
      </g>
     </g>
    </g>
    <g id="text_14">
     <!-- North(m) -->
     <g transform="translate(155.36875 215.934375) rotate(-90) scale(0.15 -0.15)">
      <defs>
       <path id="DejaVuSans-4e" d="M 628 4666 
L 1478 4666 
L 3547 763 
L 3547 4666 
L 4159 4666 
L 4159 0 
L 3309 0 
L 1241 3903 
L 1241 0 
L 628 0 
L 628 4666 
z
" transform="scale(0.015625)"/>
       <path id="DejaVuSans-6f" d="M 1959 3097 
Q 1497 3097 1228 2736 
Q 959 2375 959 1747 
Q 959 1119 1226 758 
Q 1494 397 1959 397 
Q 2419 397 2687 759 
Q 2956 1122 2956 1747 
Q 2956 2369 2687 2733 
Q 2419 3097 1959 3097 
z
M 1959 3584 
Q 2709 3584 3137 3096 
Q 3566 2609 3566 1747 
Q 3566 888 3137 398 
Q 2709 -91 1959 -91 
Q 1206 -91 779 398 
Q 353 888 353 1747 
Q 353 2609 779 3096 
Q 1206 3584 1959 3584 
z
" transform="scale(0.015625)"/>
       <path id="DejaVuSans-72" d="M 2631 2963 
Q 2534 3019 2420 3045 
Q 2306 3072 2169 3072 
Q 1681 3072 1420 2755 
Q 1159 2438 1159 1844 
L 1159 0 
L 581 0 
L 581 3500 
L 1159 3500 
L 1159 2956 
Q 1341 3275 1631 3429 
Q 1922 3584 2338 3584 
Q 2397 3584 2469 3576 
Q 2541 3569 2628 3553 
L 2631 2963 
z
" transform="scale(0.015625)"/>
       <path id="DejaVuSans-74" d="M 1172 4494 
L 1172 3500 
L 2356 3500 
L 2356 3053 
L 1172 3053 
L 1172 1153 
Q 1172 725 1289 603 
Q 1406 481 1766 481 
L 2356 481 
L 2356 0 
L 1766 0 
Q 1100 0 847 248 
Q 594 497 594 1153 
L 594 3053 
L 172 3053 
L 172 3500 
L 594 3500 
L 594 4494 
L 1172 4494 
z
" transform="scale(0.015625)"/>
       <path id="DejaVuSans-68" d="M 3513 2113 
L 3513 0 
L 2938 0 
L 2938 2094 
Q 2938 2591 2744 2837 
Q 2550 3084 2163 3084 
Q 1697 3084 1428 2787 
Q 1159 2491 1159 1978 
L 1159 0 
L 581 0 
L 581 4863 
L 1159 4863 
L 1159 2956 
Q 1366 3272 1645 3428 
Q 1925 3584 2291 3584 
Q 2894 3584 3203 3211 
Q 3513 2838 3513 2113 
z
" transform="scale(0.015625)"/>
       <path id="DejaVuSans-28" d="M 1984 4856 
Q 1566 4138 1362 3434 
Q 1159 2731 1159 2009 
Q 1159 1288 1364 580 
Q 1569 -128 1984 -844 
L 1484 -844 
Q 1016 -109 783 600 
Q 550 1309 550 2009 
Q 550 2706 781 3412 
Q 1013 4119 1484 4856 
L 1984 4856 
z
" transform="scale(0.015625)"/>
       <path id="DejaVuSans-29" d="M 513 4856 
L 1013 4856 
Q 1481 4119 1714 3412 
Q 1947 2706 1947 2009 
Q 1947 1309 1714 600 
Q 1481 -109 1013 -844 
L 513 -844 
Q 928 -128 1133 580 
Q 1338 1288 1338 2009 
Q 1338 2731 1133 3434 
Q 928 4138 513 4856 
z
" transform="scale(0.015625)"/>
      </defs>
      <use xlink:href="#DejaVuSans-4e"/>
      <use xlink:href="#DejaVuSans-6f" x="74.804688"/>
      <use xlink:href="#DejaVuSans-72" x="135.986328"/>
      <use xlink:href="#DejaVuSans-74" x="177.099609"/>
      <use xlink:href="#DejaVuSans-68" x="216.308594"/>
      <use xlink:href="#DejaVuSans-28" x="279.6875"/>
      <use xlink:href="#DejaVuSans-6d" x="318.701172"/>
      <use xlink:href="#DejaVuSans-29" x="416.113281"/>
     </g>
    </g>
   </g>
   <g id="line2d_13">
    <path d="M 288.409091 78.796585 
L 288.944867 68.857876 
L 290.016419 56.971421 
L 290.552195 60.978991 
L 291.087971 68.382615 
L 291.623747 64.826971 
L 292.159523 58.875593 
L 292.695299 58.843314 
L 293.231075 55.8 
L 293.766851 63.671689 
L 294.302627 62.922159 
L 294.838403 57.492742 
L 296.981507 80.138133 
L 297.517283 76.324306 
L 298.053059 74.932091 
L 298.588835 81.37993 
L 299.124611 85.470071 
L 300.196163 88.860393 
L 300.731939 98.741806 
L 301.803491 121.022115 
L 303.410819 140.536067 
L 303.946595 139.243273 
L 304.482371 125.142925 
L 305.018147 117.579507 
L 305.553923 114.94808 
L 307.161251 103.020147 
L 307.697027 97.17174 
L 308.232803 106.840109 
L 308.768579 110.667495 
L 309.304355 105.174164 
L 310.375907 112.828935 
L 310.911683 119.386847 
L 311.447459 131.352551 
L 311.983235 134.214133 
L 312.519011 139.365948 
L 313.054787 150.007222 
L 313.590563 143.959974 
L 314.126339 142.138118 
L 314.662115 138.029579 
L 315.197891 139.861443 
L 315.733667 144.40253 
L 316.805219 130.9623 
L 317.340996 130.993934 
L 317.876772 129.626574 
L 318.412548 139.078347 
L 318.948324 140.459266 
L 319.4841 136.095073 
L 320.019876 128.595569 
L 320.555652 128.23307 
L 321.091428 129.351235 
L 321.627204 129.130766 
L 322.16298 123.388882 
L 322.698756 112.48776 
L 323.234532 112.196276 
L 323.770308 119.727094 
L 324.306084 121.697438 
L 324.84186 131.532692 
L 325.377636 133.858111 
L 325.913412 133.101479 
L 326.449188 128.637865 
L 326.984964 127.62558 
L 327.52074 133.377472 
L 328.056516 133.355845 
L 328.592292 116.94751 
L 329.128068 118.381691 
L 329.663844 120.455007 
L 330.735396 129.601093 
L 331.271172 128.21953 
L 331.806948 118.316168 
L 332.342724 123.159068 
L 332.8785 110.550035 
L 333.414276 105.685186 
L 334.485828 112.723418 
L 335.021604 110.707239 
L 335.55738 112.699856 
L 336.093156 113.083983 
L 336.628932 111.124616 
L 337.164708 115.815803 
L 337.700484 110.1317 
L 338.23626 108.856659 
L 338.772036 100.19961 
L 339.307812 94.791496 
L 339.843588 99.286423 
L 340.379364 100.024657 
L 340.91514 97.695044 
L 341.450916 102.988889 
L 341.986692 100.641522 
L 343.058244 115.514967 
L 343.59402 120.652579 
L 344.129796 122.392124 
L 344.665572 127.245677 
L 345.201348 130.178274 
L 345.737124 121.908257 
L 346.2729 120.626114 
L 346.808676 118.38882 
L 347.344452 121.747507 
L 347.880228 124.317928 
L 348.416004 121.899545 
L 348.95178 110.071677 
L 350.023332 120.417917 
L 350.559108 108.526135 
L 351.63066 95.657576 
L 352.166436 93.643979 
L 352.702212 101.331029 
L 353.237988 96.139512 
L 353.773764 89.733638 
L 354.30954 88.050261 
L 354.845316 86.814278 
L 355.381092 81.157612 
L 355.916868 77.872847 
L 356.452644 83.81648 
L 356.98842 84.739353 
L 357.524196 83.180252 
L 358.059972 90.600996 
L 358.595748 91.566478 
L 359.131524 111.304772 
L 359.6673 121.11517 
L 360.203076 119.992811 
L 360.738852 121.103874 
L 361.274628 114.921697 
L 361.810404 122.988678 
L 362.34618 128.452959 
L 362.881956 114.924282 
L 363.417732 108.063912 
L 363.953508 104.985091 
L 364.489284 113.261566 
L 365.02506 118.289105 
L 365.560837 104.966371 
L 366.096613 98.315496 
L 366.632389 102.334622 
L 367.168165 101.084436 
L 367.703941 101.368174 
L 368.239717 101.225822 
L 368.775493 110.979409 
L 369.311269 123.069388 
L 369.847045 129.052079 
L 370.382821 131.469818 
L 370.918597 138.464472 
L 371.454373 139.898653 
L 371.990149 142.192115 
L 372.525925 139.19141 
L 373.061701 134.525403 
L 373.597477 137.738509 
L 374.133253 140.113639 
L 374.669029 138.874105 
L 375.204805 138.263054 
L 375.740581 140.329268 
L 376.276357 140.602354 
L 377.347909 126.995239 
L 377.883685 126.700205 
L 378.955237 128.340007 
L 379.491013 121.131664 
L 380.026789 122.182363 
L 380.562565 125.328005 
L 381.098341 130.795838 
L 381.634117 122.330529 
L 382.169893 117.969887 
L 382.705669 109.149503 
L 383.241445 109.656939 
L 383.777221 105.761445 
L 384.312997 112.085007 
L 384.848773 112.187657 
L 385.920325 130.931419 
L 386.456101 135.660695 
L 386.991877 136.636829 
L 387.527653 135.713313 
L 388.599205 108.762481 
L 389.134981 105.374744 
L 389.670757 95.276091 
L 391.278085 113.373295 
L 391.813861 131.65223 
L 392.885413 142.201185 
L 393.421189 137.797934 
L 393.956965 148.836892 
L 394.492741 150.860497 
L 395.028517 147.724863 
L 395.564293 151.939281 
L 396.100069 148.366905 
L 396.635845 149.169052 
L 397.171621 153.188179 
L 397.707397 154.338299 
L 398.243173 150.520922 
L 398.778949 154.983892 
L 399.850501 159.226393 
L 400.386277 163.29168 
L 400.922053 170.225971 
L 401.457829 168.343752 
L 401.993605 174.308689 
L 402.529381 176.03048 
L 403.065157 172.795426 
L 403.600933 172.930032 
L 404.136709 175.10987 
L 404.672485 171.338653 
L 405.744037 154.642385 
L 406.279813 151.709144 
L 406.815589 149.578373 
L 407.351365 146.091215 
L 407.887141 138.293447 
L 408.422917 138.839941 
L 408.958693 149.591288 
L 409.494469 156.848698 
L 410.030245 161.020506 
L 410.566021 171.938739 
L 411.637573 181.432798 
L 412.173349 183.506114 
L 412.709125 179.358517 
L 413.244901 182.536116 
L 413.780677 182.574852 
L 414.316454 178.729068 
L 414.85223 176.502427 
L 415.388006 180.503799 
L 416.459558 193.051504 
L 416.995334 193.367198 
L 417.53111 187.905824 
L 418.066886 178.883048 
L 418.602662 182.36246 
L 419.138438 187.492971 
L 419.674214 185.351547 
L 420.745766 177.454037 
L 421.281542 180.113226 
L 421.817318 175.92302 
L 422.353094 179.739753 
L 423.424646 157.475911 
L 424.496198 146.620626 
L 425.031974 145.214207 
L 425.56775 149.950585 
L 426.103526 133.094856 
L 426.639302 130.676473 
L 427.175078 137.830911 
L 428.24663 146.401777 
L 428.782406 145.872393 
L 429.318182 141.845521 
L 429.853958 148.634232 
L 430.389734 152.024876 
L 430.92551 151.39252 
L 431.461286 143.747435 
L 431.997062 140.590497 
L 432.532838 138.999439 
L 433.068614 144.037631 
L 433.60439 141.775481 
L 434.140166 137.805422 
L 434.675942 128.988589 
L 435.211718 127.496952 
L 435.747494 121.222456 
L 436.28327 109.479806 
L 436.819046 106.411636 
L 437.354822 100.577433 
L 437.890598 100.601967 
L 438.426374 113.906303 
L 438.96215 118.479346 
L 440.033702 145.943748 
L 440.569478 146.500894 
L 441.105254 166.509045 
L 441.64103 169.189539 
L 442.176806 162.819172 
L 442.712582 165.368288 
L 443.248358 166.671091 
L 444.31991 153.688908 
L 444.855686 138.033332 
L 445.391462 131.744633 
L 445.927238 128.012473 
L 446.463014 123.381974 
L 446.99879 111.333959 
L 447.534566 114.618081 
L 448.070342 122.415204 
L 448.606118 117.777604 
L 449.141894 118.000979 
L 449.67767 114.98252 
L 450.213446 117.872508 
L 450.749222 126.422391 
L 451.284998 122.807406 
L 451.820774 114.587099 
L 452.892326 126.932411 
L 453.428102 125.881067 
L 453.963878 122.443619 
L 455.03543 108.29679 
L 455.571206 112.738456 
L 456.106982 119.058467 
L 456.642758 116.508707 
L 457.178534 119.984569 
L 457.71431 124.223842 
L 458.250086 136.083023 
L 458.785862 154.170218 
L 459.321638 168.195356 
L 459.857414 166.288282 
L 460.39319 175.676141 
L 460.928966 172.2671 
L 461.464742 172.881058 
L 462.000518 169.216362 
L 462.536295 163.563247 
L 463.072071 161.151967 
L 463.607847 164.571016 
L 464.143623 158.214853 
L 464.679399 165.110086 
L 465.215175 165.631725 
L 465.750951 169.050774 
L 466.286727 163.628458 
L 466.822503 162.708492 
L 467.358279 160.158732 
L 467.894055 158.97601 
L 468.429831 163.598764 
L 469.501383 167.191479 
L 470.037159 183.88678 
L 470.572935 180.740494 
L 471.108711 185.104043 
L 471.644487 184.5285 
L 472.180263 183.640491 
L 472.716039 186.068881 
L 473.251815 184.051734 
L 473.787591 167.597239 
L 474.323367 160.12614 
L 474.859143 157.583482 
L 475.394919 158.392731 
L 475.930695 147.285665 
L 477.002247 121.392956 
L 477.538023 132.083941 
L 478.073799 135.616614 
L 478.609575 131.500974 
L 479.145351 132.853488 
L 479.681127 151.373874 
L 480.216903 161.905075 
L 480.752679 160.246553 
L 481.288455 157.497951 
L 481.824231 152.821292 
L 482.895783 152.289326 
L 483.431559 152.456858 
L 483.967335 137.427183 
L 484.503111 136.636012 
L 485.038887 141.479881 
L 485.574663 136.89651 
L 486.110439 148.170786 
L 486.646215 150.123376 
L 487.181991 150.314794 
L 487.717767 152.601155 
L 488.253543 150.626616 
L 488.789319 156.676771 
L 489.325095 161.072277 
L 489.860871 161.51935 
L 490.396647 168.073711 
L 490.932423 169.724487 
L 491.468199 181.196637 
L 492.539751 194.585869 
L 493.075527 183.595977 
L 493.611303 177.758224 
L 494.147079 174.938607 
L 494.682855 177.498375 
L 495.218631 181.066556 
L 495.754407 193.117478 
L 496.290183 185.394276 
L 496.825959 206.730407 
L 497.361735 221.526057 
L 498.433287 239.403437 
L 498.969063 235.152868 
L 499.504839 221.730713 
L 500.040615 221.595463 
L 501.112167 187.639002 
L 501.647943 180.238919 
L 502.183719 169.458522 
L 502.719495 164.046858 
L 503.255271 165.882273 
L 504.326823 178.074903 
L 504.862599 190.39213 
L 505.398375 183.336469 
L 505.934151 184.213182 
L 506.469927 190.082249 
L 507.541479 193.142351 
L 508.613031 183.792584 
L 509.148807 186.505035 
L 509.684583 191.777576 
L 510.220359 192.295663 
L 510.756135 190.676199 
L 511.291912 189.880509 
L 511.827688 191.687519 
L 512.363464 191.499007 
L 512.89924 198.340979 
L 513.435016 202.402715 
L 513.970792 198.858745 
L 514.506568 193.713387 
L 515.042344 190.60971 
L 515.57812 191.415408 
L 516.113896 194.316049 
L 516.649672 195.246023 
L 517.721224 166.697354 
L 518.257 161.505836 
L 518.792776 160.948047 
L 519.328552 165.137609 
L 519.864328 163.369014 
L 520.400104 158.326628 
L 520.93588 163.88678 
L 522.007432 172.635182 
L 522.543208 173.799506 
L 523.078984 160.270829 
L 523.61476 159.918983 
L 534.33028 143.695287 
L 534.866056 134.33874 
L 535.401832 135.194149 
L 536.473384 121.057972 
L 537.00916 122.751357 
L 537.544936 115.180838 
L 538.080712 129.490036 
L 539.68804 144.682726 
L 540.223816 146.720534 
L 540.759592 147.93812 
L 541.295368 159.658821 
L 541.831144 160.091691 
L 542.36692 159.288899 
L 542.902696 155.851452 
L 543.438472 150.748703 
L 543.974248 153.294269 
L 544.510024 159.117176 
L 545.581576 150.055019 
L 546.653128 160.031981 
L 547.72468 172.167799 
L 548.260456 171.748488 
L 549.332008 167.739048 
L 549.867784 171.935712 
L 550.939336 166.218362 
L 551.475112 162.155982 
L 552.010888 170.325935 
L 552.546664 171.252358 
L 553.08244 171.248486 
L 553.618216 167.665458 
L 554.153992 170.850158 
L 554.689768 175.934509 
L 555.225544 174.542293 
L 555.76132 166.275827 
L 556.297096 165.146366 
L 556.832872 164.979159 
L 557.368648 164.446225 
L 557.904424 159.868987 
L 558.4402 164.619568 
L 558.975976 162.605971 
L 560.047529 156.345356 
L 560.583305 158.248235 
L 561.119081 155.53159 
L 561.654857 159.80282 
L 562.190633 160.839317 
L 562.726409 165.213518 
L 563.797961 182.409153 
L 564.333737 186.559657 
L 565.405289 188.242391 
L 565.941065 184.002474 
L 566.476841 176.570433 
L 567.012617 180.3055 
L 567.548393 173.015489 
L 568.084169 159.167245 
L 568.619945 157.941914 
L 569.155721 161.016541 
L 569.691497 157.877357 
L 570.227273 163.121492 
L 570.763049 156.207861 
L 571.298825 152.699398 
L 571.834601 160.144998 
L 572.370377 161.398091 
L 572.906153 158.638836 
L 573.441929 161.997523 
L 573.977705 159.682113 
L 574.513481 166.403359 
L 575.585033 172.44254 
L 576.120809 182.824609 
L 576.656585 184.660025 
L 577.192361 190.543295 
L 577.728137 193.067555 
L 578.263913 188.671406 
L 578.799689 197.381072 
L 579.335465 196.489512 
L 579.871241 182.815254 
L 580.407017 185.350167 
L 580.942793 185.101293 
L 581.478569 178.897812 
L 582.014345 180.594748 
L 582.550121 185.576127 
L 583.621673 211.05211 
L 584.157449 209.979462 
L 584.693225 217.421511 
L 585.229001 230.530555 
L 585.764777 233.40634 
L 586.300553 233.871167 
L 586.836329 219.11393 
L 587.372105 208.511071 
L 587.907881 208.020745 
L 588.443657 209.479781 
L 588.979433 200.47831 
L 589.515209 195.712882 
L 590.050985 184.904079 
L 590.586761 195.012741 
L 591.658313 204.996804 
L 592.194089 202.471899 
L 592.729865 205.159494 
L 593.265641 209.693479 
L 593.801417 225.082105 
L 594.872969 226.959808 
L 595.408745 231.653576 
L 595.944521 233.091308 
L 596.480297 246.104483 
L 597.016073 248.866644 
L 597.551849 243.011136 
L 598.087625 242.673493 
L 598.623401 245.641597 
L 599.159177 240.893923 
L 599.694953 238.649528 
L 600.230729 224.158598 
L 600.766505 225.873288 
L 601.302281 218.718206 
L 601.838057 217.79824 
L 602.373833 212.21969 
L 602.909609 210.035658 
L 603.445385 206.708283 
L 603.981161 199.624216 
L 604.516937 197.443734 
L 605.052713 198.529942 
L 605.588489 198.526069 
L 606.124265 201.607798 
L 607.195817 188.082349 
L 607.731594 194.487579 
L 608.26737 198.517358 
L 608.803146 201.57068 
L 609.338922 208.263521 
L 609.874698 206.143402 
L 610.94625 227.536023 
L 611.482026 226.182865 
L 612.017802 226.036962 
L 612.553578 229.35304 
L 613.089354 222.094987 
L 613.62513 228.670653 
L 614.160906 230.889549 
L 614.696682 225.612814 
L 615.232458 232.38022 
L 615.768234 218.588787 
L 616.30401 212.953426 
L 616.839786 213.201657 
L 617.911338 204.508778 
L 618.447114 209.557622 
L 618.98289 205.360314 
L 619.518666 216.143618 
L 620.054442 212.720374 
L 620.590218 217.975161 
L 621.125994 220.456813 
L 621.66177 220.058807 
L 622.197546 219.032318 
L 622.733322 211.397885 
L 623.269098 205.528174 
L 623.804874 201.34507 
L 624.34065 195.986667 
L 624.876426 177.67158 
L 625.947978 158.152466 
L 626.483754 159.671865 
L 627.01953 162.046995 
L 628.091082 177.119282 
L 628.626858 186.443228 
L 629.69841 188.878398 
L 630.234186 187.745387 
L 630.769962 191.260307 
L 631.305738 184.683997 
L 631.841514 171.620468 
L 632.37729 179.999915 
L 632.913066 186.231158 
L 633.448842 190.442025 
L 633.984618 196.694572 
L 634.520394 183.460607 
L 635.05617 193.597675 
L 635.591946 197.872455 
L 636.127722 190.980129 
L 637.199274 183.125227 
L 637.73505 172.039466 
L 638.270826 175.653807 
L 639.342378 156.919409 
L 639.878154 149.863748 
L 640.41393 148.276241 
L 640.949706 152.256309 
L 641.485482 157.337109 
L 642.021258 157.809037 
L 642.557034 160.027934 
L 643.09281 160.212251 
L 643.628586 166.202043 
L 644.164362 164.124532 
L 645.235914 154.952303 
L 645.77169 157.994973 
L 646.307466 160.004375 
L 646.843242 171.735729 
L 647.379018 176.01406 
L 648.45057 180.703956 
L 648.986346 191.139287 
L 649.522122 185.045879 
L 650.057898 189.253195 
L 650.593674 187.374527 
L 651.12945 192.093151 
L 651.665226 206.391696 
L 652.201002 214.18882 
L 652.736778 217.714392 
L 653.272554 224.15513 
L 653.80833 219.229918 
L 654.344106 216.413852 
L 654.879882 214.655909 
L 655.415658 211.033823 
L 655.951434 209.772985 
L 656.487211 205.231254 
L 657.022987 198.786322 
L 657.558763 195.725254 
L 658.094539 189.22351 
L 658.630315 187.085637 
L 659.166091 178.268805 
L 659.701867 177.334636 
L 660.237643 177.827868 
L 661.309195 196.80953 
L 661.844971 212.865697 
L 662.380747 214.555532 
L 662.916523 217.122401 
L 663.988075 208.866265 
L 664.523851 210.676825 
L 665.059627 208.276197 
L 665.595403 194.75107 
L 666.131179 187.993672 
L 666.666955 189.811334 
L 667.202731 187.936217 
L 667.738507 201.428742 
L 668.274283 193.577713 
L 668.810059 188.137643 
L 669.345835 192.863369 
L 669.881611 196.314375 
L 670.417387 201.260247 
L 670.953163 201.980727 
L 671.488939 185.632755 
L 672.024715 179.944133 
L 672.560491 177.124516 
L 673.096267 170.846469 
L 673.632043 169.713458 
L 674.167819 165.168177 
L 674.703595 167.365769 
L 675.239371 167.777334 
L 676.310923 172.669622 
L 676.846699 180.367325 
L 677.382475 176.212626 
L 677.918251 165.81571 
L 678.454027 169.703459 
L 678.989803 177.805947 
L 679.525579 188.060189 
L 680.061355 184.260565 
L 680.597131 176.278159 
L 681.132907 184.799635 
L 681.668683 198.178537 
L 682.204459 194.141013 
L 683.276011 201.778031 
L 684.347563 221.895933 
L 684.883339 217.776742 
L 685.419115 216.189235 
L 685.954891 223.443094 
L 686.490667 221.195148 
L 687.026443 210.727217 
L 688.097995 217.945246 
L 688.633771 231.771542 
L 689.169547 230.514255 
L 689.705323 228.671094 
L 690.241099 229.306356 
L 690.776875 230.389013 
L 691.312651 237.458233 
L 691.848427 241.491562 
L 692.384203 235.891709 
L 692.919979 234.48529 
L 693.455755 233.817427 
L 693.991531 238.109961 
L 694.527307 239.615157 
L 695.063083 226.611991 
L 695.598859 221.317501 
L 696.134635 221.079279 
L 696.670411 224.970579 
L 697.206187 230.370946 
L 697.741963 225.573562 
L 698.277739 224.486711 
L 698.813515 223.92182 
L 699.349291 220.321038 
L 699.885067 220.679342 
L 700.420843 222.663888 
L 700.956619 216.879396 
L 701.492395 217.628282 
L 702.028171 226.416065 
L 702.563947 229.274096 
L 703.099723 227.459341 
L 703.635499 220.417883 
L 704.707052 213.017477 
L 705.242828 212.793458 
L 705.778604 208.578397 
L 706.31438 206.37661 
L 706.850156 206.486362 
L 707.921708 209.741755 
L 708.457484 212.013912 
L 708.99326 208.288854 
L 709.529036 206.079966 
L 710.600588 198.370645 
L 711.136364 195.554579 
L 711.67214 195.412227 
L 712.207916 191.54869 
L 713.279468 197.271854 
L 713.815244 198.482338 
L 714.35102 198.73767 
L 714.886796 204.347532 
L 715.422572 200.65088 
L 715.958348 207.858579 
L 717.0299 208.489968 
L 717.565676 210.63785 
L 718.101452 217.106993 
L 718.637228 216.826162 
L 719.173004 211.162395 
L 719.70878 214.41811 
L 720.780332 207.536114 
L 721.316108 204.705845 
L 721.851884 193.293414 
L 722.38766 190.367275 
L 722.923436 197.173739 
L 723.459212 195.461956 
L 724.530764 182.351946 
L 725.06654 183.51982 
L 725.602316 191.934774 
L 726.673868 186.735833 
L 727.209644 179.065893 
L 727.74542 182.840017 
L 728.816972 186.652878 
L 729.352748 180.918096 
L 729.888524 181.414879 
L 730.960076 170.321694 
L 731.495852 158.03933 
L 732.031628 160.723374 
L 732.567404 154.210978 
L 733.10318 158.748514 
L 733.638956 160.005157 
L 734.174732 168.136051 
L 734.710508 173.63584 
L 735.246284 189.070626 
L 735.78206 191.019665 
L 736.317836 199.150559 
L 736.853612 200.350391 
L 737.389388 202.697114 
L 737.925164 197.249943 
L 738.46094 196.589181 
L 738.996716 201.61317 
L 739.532492 195.139831 
L 740.068268 185.644806 
L 740.604044 184.359112 
L 741.13982 179.281219 
L 741.675596 184.607021 
L 742.211372 184.638656 
L 742.747148 182.955279 
L 743.8187 190.531934 
L 744.354476 188.788194 
L 744.890252 190.893466 
L 745.426028 191.944166 
L 745.961804 186.180978 
L 746.49758 183.396869 
L 747.569132 186.599001 
L 748.104908 186.754912 
L 748.640684 188.402137 
L 749.17646 188.937979 
L 749.712236 200.577013 
L 750.248012 201.276189 
L 750.783788 202.504426 
L 751.319564 201.683881 
L 751.85534 207.432222 
L 752.391116 206.906389 
L 752.926892 205.78048 
L 753.462669 206.266611 
L 753.998445 200.44661 
L 754.534221 196.742857 
L 755.069997 208.854141 
L 755.605773 212.560801 
L 756.141549 213.74998 
L 756.677325 212.851319 
L 757.213101 203.10419 
L 758.284653 222.103606 
L 758.820429 220.544505 
L 759.356205 222.305355 
L 759.891981 223.586853 
L 760.427757 229.381354 
L 760.963533 241.986193 
L 761.499309 243.360011 
L 762.035085 249.974735 
L 762.570861 248.341068 
L 763.106637 249.562204 
L 764.178189 244.01884 
L 764.713965 242.878728 
L 765.249741 249.003449 
L 765.785517 237.562612 
L 766.321293 237.164606 
L 767.392845 240.872235 
L 767.928621 251.375998 
L 768.464397 264.972464 
L 769.000173 274.592091 
L 769.535949 268.169432 
L 770.071725 277.579564 
L 771.679053 299.81791 
L 772.214829 297.427934 
L 773.286381 295.798786 
L 774.357933 306.715405 
L 775.429485 305.911969 
L 775.965261 307.8 
L 777.036813 299.388276 
L 778.108365 287.482616 
L 778.644141 291.433633 
L 779.179917 293.089897 
L 779.715693 296.112231 
L 819.363118 288.819639 
L 820.970446 258.651506 
L 821.506222 243.89782 
L 822.041998 217.455068 
L 822.577774 206.791846 
L 823.11355 200.932787 
L 823.649326 204.259517 
L 824.185102 206.613342 
L 824.720878 208.374192 
L 825.256654 204.464495 
L 826.328206 221.987121 
L 826.863982 217.200389 
L 827.399758 216.493468 
L 827.935534 211.092456 
L 828.47131 204.303101 
L 829.007086 201.735588 
L 829.542862 197.044726 
L 830.078638 185.099683 
L 830.614414 179.279683 
L 831.15019 177.042389 
L 831.685966 167.58287 
L 832.221742 163.488534 
L 832.757518 156.177219 
L 833.293294 162.376506 
L 833.82907 151.3156 
L 834.364846 135.802054 
L 834.900622 126.562682 
L 835.436398 136.89149 
L 835.972174 134.441151 
L 836.50795 145.966561 
L 837.043726 135.732979 
L 837.579502 146.537588 
L 838.115278 165.469862 
L 838.651054 179.466594 
L 839.18683 182.516365 
L 839.722606 189.93711 
L 840.258382 180.385272 
L 840.794158 188.494862 
L 841.329934 193.501096 
L 841.86571 193.52563 
L 842.401486 192.389068 
L 843.473038 184.772066 
L 844.008814 191.070774 
L 844.54459 199.467974 
L 845.080366 203.306012 
L 845.616142 205.855128 
L 847.22347 229.573168 
L 847.759246 230.187126 
L 848.295022 218.004183 
L 848.830798 217.709149 
L 849.366574 223.212488 
L 849.902351 217.289516 
L 850.438127 223.776414 
L 850.973903 228.253587 
L 851.509679 236.210494 
L 852.045455 247.451845 
L 852.581231 243.048593 
L 853.117007 247.891494 
L 853.652783 255.688617 
L 854.188559 256.011414 
L 854.724335 258.741618 
L 855.260111 263.893433 
L 855.795887 263.55579 
L 856.331663 263.058363 
L 856.867439 254.962333 
L 857.938991 244.103497 
L 859.010543 228.816877 
L 859.546319 226.455307 
L 860.082095 237.082378 
L 860.617871 242.699341 
L 861.153647 242.709672 
L 861.689423 238.633089 
L 862.225199 224.220276 
L 862.760975 213.006687 
L 863.296751 221.055914 
L 863.832527 212.622562 
L 864.368303 207.576625 
L 864.904079 207.075648 
L 865.439855 220.024909 
L 865.975631 248.270798 
L 867.047183 263.614233 
L 867.582959 263.330819 
L 868.118735 268.636286 
L 869.190287 282.109122 
L 869.726063 281.886071 
L 870.261839 280.217866 
L 871.333391 282.411585 
L 871.869167 292.807857 
L 872.404943 300.416791 
L 874.012271 276.853052 
L 874.548047 265.824103 
L 875.083823 258.892718 
L 875.619599 243.854972 
L 876.155375 235.432273 
L 876.691151 237.409718 
L 877.226927 232.257259 
L 877.762703 229.487352 
L 878.298479 236.162439 
L 878.834255 233.680144 
L 879.370031 240.848785 
L 880.441583 229.632614 
L 880.977359 237.100486 
L 882.048911 262.83406 
L 883.120463 282.133676 
L 883.656239 274.748764 
L 884.192015 287.005629 
L 884.727791 288.716768 
L 885.263567 287.54825 
L 885.799343 284.316746 
L 886.335119 278.56421 
L 886.870895 281.028108 
L 887.406671 289.329438 
L 887.942447 291.71877 
L 889.013999 272.387847 
L 898.657968 260.432152 
L 899.193744 250.961981 
L 899.72952 233.978425 
L 900.265296 222.558893 
L 900.801072 214.679458 
L 901.336848 211.90245 
L 901.872624 207.08021 
L 902.4084 206.600537 
L 902.944176 205.858109 
L 903.479952 203.830309 
L 904.015728 206.290656 
L 904.551504 196.848892 
L 905.08728 198.432204 
L 906.158832 196.020601 
L 906.694608 195.398898 
L 907.230384 199.86897 
L 907.76616 197.152324 
L 908.301936 204.189588 
L 908.837712 203.319332 
L 909.373488 201.547186 
L 909.909264 186.136612 
L 910.44504 186.200204 
L 910.980816 188.937509 
L 911.516592 194.426646 
L 912.052368 196.542571 
L 912.588144 203.586935 
L 913.659696 231.434819 
L 914.195472 225.497644 
L 915.267024 209.760079 
L 915.8028 201.642744 
L 916.874352 171.201525 
L 917.410128 162.313678 
L 917.945904 164.969316 
L 918.48168 170.273814 
L 919.017456 167.429342 
L 919.553232 167.982937 
L 920.089008 167.307972 
L 920.624784 165.521623 
L 921.16056 176.684857 
L 921.696336 174.902059 
L 922.232112 172.231574 
L 922.767888 172.476254 
L 923.303664 165.658493 
L 923.83944 167.749562 
L 924.375216 174.904 
L 924.910992 171.175391 
L 925.446768 172.240294 
L 930.804528 166.214351 
L 931.340304 162.219436 
L 931.87608 162.659407 
L 932.411856 161.476685 
L 932.947632 158.188369 
L 933.483408 165.239836 
L 934.019184 163.5174 
L 934.55496 164.365707 
L 935.090736 166.485183 
L 935.626512 175.926303 
L 936.162288 179.746588 
L 936.698064 185.952976 
L 937.23384 176.276862 
L 938.305392 173.922393 
L 938.841168 176.801729 
L 939.376944 178.207503 
L 939.91272 172.050182 
L 940.448496 173.480812 
L 940.984272 171.10859 
L 941.520048 178.383753 
L 942.055824 179.423801 
L 942.5916 170.18798 
L 943.127376 173.603479 
L 943.663152 179.309211 
L 944.198928 182.607535 
L 945.27048 159.470208 
L 945.806256 161.966063 
L 946.342032 174.602858 
L 946.877809 174.087677 
L 947.413585 176.718461 
L 947.949361 174.807836 
L 948.485137 193.917647 
L 949.020913 200.461356 
L 949.556689 210.846976 
L 950.092465 210.243027 
L 950.628241 214.745055 
L 951.164017 208.640995 
L 951.699793 208.938936 
L 952.235569 197.26375 
L 952.771345 193.169414 
L 953.307121 189.994722 
L 953.842897 192.856304 
L 954.378673 192.738807 
L 954.914449 207.566415 
L 955.450225 212.483881 
L 955.986001 219.180272 
L 956.521777 227.691096 
L 957.057553 228.031646 
L 957.593329 232.931359 
L 958.129105 233.32517 
L 958.664881 221.404982 
L 959.200657 213.291198 
L 959.736433 200.962674 
L 960.272209 197.386747 
L 960.807985 190.139346 
L 961.343761 180.363811 
L 967.773073 175.932154 
L 968.844625 186.395568 
L 969.380401 195.449657 
L 969.916177 192.992217 
L 970.987729 204.957598 
L 971.523505 215.815468 
L 972.059281 211.206273 
L 973.130833 185.90654 
L 973.666609 184.546281 
L 974.202385 185.156688 
L 974.738161 184.936219 
L 975.273937 172.288128 
L 976.345489 164.945825 
L 976.881265 168.376496 
L 977.417041 183.187318 
L 977.952817 190.168738 
L 979.560145 170.6167 
L 980.095921 174.873727 
L 980.631697 180.39482 
L 982.239025 165.761216 
L 982.774801 167.081773 
L 983.310577 175.894411 
L 983.846353 181.429707 
L 984.382129 181.823519 
L 984.917905 185.927863 
L 985.453681 199.66539 
L 985.989457 203.574443 
L 986.525233 211.169174 
L 987.061009 223.443793 
L 987.596785 224.377318 
L 988.132561 224.032573 
L 988.668337 216.046616 
L 989.204113 200.099879 
L 989.739889 206.554819 
L 990.275665 209.206907 
L 990.811441 202.591539 
L 991.347217 201.486934 
L 992.418769 206.563862 
L 992.954545 213.079165 
L 993.490321 205.984445 
L 994.026097 203.811065 
L 994.561873 197.160189 
L 995.097649 192.171065 
L 995.633426 180.382255 
L 996.169202 197.169876 
L 996.704978 199.126017 
L 997.240754 193.348625 
L 997.77653 189.286246 
L 998.312306 193.475809 
L 998.848082 191.192355 
L 999.383858 203.289436 
L 999.919634 191.362147 
L 1000.45541 192.796328 
L 1000.991186 203.277818 
L 1001.526962 200.55052 
L 1002.062738 200.397516 
L 1002.598514 208.326018 
L 1003.13429 212.132099 
L 1003.670066 206.436375 
L 1004.205842 203.86531 
L 1004.741618 198.691547 
L 1005.277394 197.67216 
L 1006.348946 205.873747 
L 1006.884722 197.859383 
L 1007.420498 205.47897 
L 1007.956274 208.486132 
L 1009.027826 221.232679 
L 1010.099378 211.414213 
L 1011.17093 220.954432 
L 1011.706706 222.267888 
L 1012.242482 223.055832 
L 1012.778258 222.657826 
L 1013.314034 221.524815 
L 1013.84981 226.974894 
L 1014.385586 233.937591 
L 1014.921362 221.360515 
L 1015.457138 215.735806 
L 1015.992914 217.148682 
L 1016.52869 211.914556 
L 1017.064466 215.926581 
L 1017.600242 201.485361 
L 1018.136018 182.310992 
L 1018.671794 183.613795 
L 1019.20757 190.175258 
L 1019.743346 186.017009 
L 1020.279122 197.208649 
L 1020.814898 190.39799 
L 1021.88645 210.192773 
L 1022.422226 207.870261 
L 1022.958002 199.507925 
L 1023.493778 201.694864 
L 1024.029554 195.260584 
L 1024.56533 199.918846 
L 1025.101106 190.668822 
L 1025.636882 189.777261 
L 1026.172658 185.881767 
L 1026.708434 180.164739 
L 1027.24421 177.558167 
L 1027.779986 173.002234 
L 1028.315762 170.601605 
L 1028.851538 172.962531 
L 1029.387314 172.926702 
L 1029.92309 179.058524 
L 1030.458866 190.633645 
L 1030.994642 191.318618 
L 1031.530418 192.482942 
L 1032.066194 188.1223 
L 1032.60197 180.800332 
L 1033.137746 178.33224 
L 1033.673522 182.724195 
L 1034.209298 179.673779 
L 1034.745074 183.945008 
L 1035.28085 180.947854 
L 1035.816626 180.958184 
L 1036.352402 191.681125 
L 1036.888178 194.585316 
L 1037.423954 196.275151 
L 1037.95973 198.749702 
L 1038.495506 191.253748 
L 1039.031282 193.703443 
L 1039.567058 204.802763 
L 1040.102834 210.33806 
L 1040.63861 219.086784 
L 1041.174386 218.983491 
L 1041.710162 222.143336 
L 1042.781714 249.025415 
L 1043.31749 249.884375 
L 1043.853267 248.421144 
L 1044.924819 231.937921 
L 1045.460595 231.369479 
L 1045.996371 229.725161 
L 1046.532147 215.543146 
L 1047.603699 202.202336 
L 1048.139475 201.591285 
L 1048.675251 214.853012 
L 1049.211027 218.012857 
L 1049.746803 215.278458 
L 1050.282579 220.210127 
L 1050.818355 223.16758 
L 1051.889907 234.170708 
L 1052.425683 232.096748 
L 1052.961459 218.457998 
L 1053.497235 214.793303 
L 1054.033011 214.753923 
L 1054.568787 223.651779 
L 1055.104563 222.710508 
L 1055.640339 221.130103 
L 1056.176115 220.270499 
L 1056.711891 220.433512 
L 1057.247667 223.912924 
L 1057.783443 219.349889 
L 1058.319219 207.436803 
L 1058.854995 208.175037 
L 1059.390771 204.229833 
L 1059.926547 201.57355 
L 1060.462323 207.073339 
L 1060.998099 200.035432 
L 1061.533875 197.045379 
L 1062.069651 205.076852 
L 1062.605427 208.67699 
L 1063.141203 216.452809 
L 1063.676979 220.191426 
L 1064.212755 231.294297 
L 1064.748531 240.074979 
L 1065.284307 251.060675 
L 1065.820083 257.721559 
L 1066.355859 261.584453 
L 1066.891635 261.793625 
L 1067.427411 262.691642 
L 1067.963187 258.998541 
L 1068.498963 261.572512 
L 1069.034739 256.714765 
L 1069.570515 258.54663 
L 1070.106291 259.210298 
L 1070.642067 263.058989 
L 1071.177843 265.810497 
L 1071.713619 265.387636 
L 1072.249395 267.127181 
L 1072.785171 267.226281 
L 1073.320947 263.323685 
L 1073.856723 262.531546 
L 1074.392499 259.399463 
L 1075.464051 249.527736 
L 1075.999827 247.166166 
L 1076.535603 246.814319 
L 1077.071379 241.736426 
L 1077.607155 233.842788 
L 1078.142931 230.586429 
L 1079.214483 226.928513 
L 1080.286035 218.803755 
L 1080.821811 219.225972 
L 1081.357587 213.913729 
L 1081.893363 211.214837 
L 1092.073108 209.581171 
L 1092.608884 204.247623 
L 1093.14466 191.560474 
L 1093.680436 191.901024 
L 1094.216212 191.662801 
L 1094.751988 194.552789 
L 1095.287764 198.234595 
L 1095.82354 195.723893 
L 1096.359316 201.766946 
L 1096.895092 209.876536 
L 1097.430868 212.951163 
L 1097.966644 214.907304 
L 1098.50242 215.947351 
L 1099.038196 213.990567 
L 1099.573972 222.110808 
L 1100.109748 218.76213 
L 1101.1813 233.774054 
L 1101.717076 225.773894 
L 1102.252852 228.223589 
L 1102.788628 220.670823 
L 1103.324404 207.813238 
L 1103.86018 211.193229 
L 1104.395956 202.873501 
L 1104.931732 199.894101 
L 1105.467508 208.269997 
L 1106.003284 205.649222 
L 1106.53906 213.155184 
L 1107.074836 226.171909 
L 1107.610612 231.320174 
L 1108.146388 237.547866 
L 1108.682164 236.042026 
L 1109.753716 217.968068 
L 1110.289492 211.565745 
L 1111.361044 189.848718 
L 1111.89682 182.501896 
L 1112.432596 183.605857 
L 1112.968372 181.794652 
L 1113.504148 181.006064 
L 1114.039924 183.942212 
L 1114.5757 185.64625 
L 1115.111476 177.03536 
L 1115.647252 177.106054 
L 1116.183028 168.267916 
L 1116.718804 163.584156 
L 1117.25458 180.503155 
L 1117.790356 177.672886 
L 1118.326132 172.417455 
L 1118.861908 180.750741 
L 1119.397684 179.990559 
L 1119.93346 175.708033 
L 1120.469236 174.695748 
L 1121.005012 165.030286 
L 1121.540788 164.500902 
L 1122.076564 160.452726 
L 1122.61234 159.632181 
L 1123.148116 158.339386 
L 1123.683892 161.453072 
L 1124.219668 173.986895 
L 1124.755444 171.994603 
L 1125.29122 170.57043 
L 1125.826996 182.901861 
L 1126.898548 187.08755 
L 1127.434324 194.160321 
L 1127.9701 179.715551 
L 1128.505876 174.1299 
L 1129.041652 179.356281 
L 1129.577428 178.049283 
L 1130.113204 179.895351 
L 1130.64898 178.545744 
L 1131.184756 171.394213 
L 1131.720532 179.9654 
L 1132.256308 183.970324 
L 1132.792084 179.559971 
L 1133.32786 171.669884 
L 1133.863636 162.025727 
L 1134.399412 162.440842 
L 1134.935188 161.535079 
L 1136.00674 143.482425 
L 1136.542516 143.396885 
L 1137.078292 146.230062 
L 1137.614068 151.314413 
L 1138.149844 145.270715 
L 1138.68562 141.055654 
L 1139.221396 143.942091 
L 1139.757172 149.282096 
L 1140.828725 138.458768 
L 1141.364501 122.767685 
L 1141.900277 120.62271 
L 1143.507605 104.554603 
L 1144.043381 105.25733 
L 1144.579157 105.40969 
L 1145.114933 122.300283 
L 1145.650709 129.870159 
L 1149.401141 135.277628 
L 1150.472693 151.759563 
L 1151.008469 145.009266 
L 1151.544245 148.836652 
L 1152.080021 146.997042 
L 1152.615797 147.444114 
L 1153.151573 156.281607 
L 1153.687349 152.481984 
L 1154.223125 145.767195 
L 1154.758901 156.88782 
L 1155.294677 156.56793 
L 1159.580885 144.509263 
L 1160.116661 147.562586 
L 1160.652437 141.586353 
L 1161.723989 166.366389 
L 1162.259765 167.221797 
L 1162.795541 162.094193 
L 1163.331317 175.416283 
L 1163.867093 162.054491 
L 1164.402869 160.584159 
L 1164.938645 146.402144 
L 1165.474421 138.299012 
L 1166.010197 136.100776 
L 1166.545973 146.568063 
L 1167.081749 146.27658 
L 1167.617525 158.128659 
L 1168.153301 161.426984 
L 1168.689077 162.431524 
L 1169.224853 168.268634 
L 1169.760629 178.675558 
L 1170.296405 182.648525 
L 1170.832181 192.664867 
L 1171.367957 192.139034 
L 1171.903733 178.1026 
L 1172.439509 169.165042 
L 1172.975285 164.374759 
L 1173.511061 155.820682 
L 1174.046837 156.878483 
L 1174.582613 154.190244 
L 1175.118389 147.83408 
L 1176.189941 183.72086 
L 1178.333045 172.255169 
L 1178.868821 174.573486 
L 1180.476149 163.849901 
L 1181.011925 146.93736 
L 1181.547701 145.410216 
L 1182.083477 155.238368 
L 1182.619253 156.097327 
L 1183.155029 165.588158 
L 1183.690805 168.971701 
L 1184.226581 166.056213 
L 1184.762357 171.669626 
L 1185.298133 171.186402 
L 1187.441237 143.305274 
L 1187.977013 143.684882 
L 1188.512789 136.373568 
L 1189.048566 142.484085 
L 1189.584342 146.641691 
L 1190.120118 160.43603 
L 1190.655894 170.523387 
L 1191.19167 171.659305 
L 1191.727446 171.992754 
L 1193.87055 164.617525 
L 1194.406326 163.697559 
L 1194.942102 164.276009 
L 1195.477878 158.008615 
L 1196.013654 160.848892 
L 1196.54943 162.233363 
L 1197.085206 164.100735 
L 1197.620982 175.058025 
L 1198.156758 174.031537 
L 1198.692534 172.20968 
L 1199.22831 164.571697 
L 1199.764086 160.590985 
L 1200.299862 143.280759 
L 1200.835638 134.985887 
L 1201.371414 132.997145 
L 1201.90719 127.844686 
L 1202.442966 126.960227 
L 1202.978742 131.930955 
L 1203.514518 120.937513 
L 1205.121846 151.956215 
L 1205.657622 150.429071 
L 1206.193398 158.116121 
L 1206.729174 161.378938 
L 1207.26495 161.595212 
L 1212.086934 174.647445 
L 1212.62271 171.632536 
L 1213.158486 167.697984 
L 1213.694262 171.117034 
L 1214.230038 160.297579 
L 1215.837366 160.790811 
L 1216.373142 164.082034 
L 1217.444694 142.918923 
L 1218.516246 113.077782 
L 1219.052022 121.233531 
L 1219.587798 108.436308 
L 1220.123574 98.508091 
L 1220.65935 98.909004 
L 1221.195126 103.084363 
L 1221.730902 114.11977 
L 1222.266678 128.666868 
L 1222.802454 125.339494 
L 1223.33823 128.829559 
L 1223.874006 136.388782 
L 1224.945558 145.73016 
L 1225.481334 153.679966 
L 1226.01711 147.671776 
L 1230.839094 157.560291 
L 1231.37487 154.566687 
L 1232.446422 149.793836 
L 1232.982198 137.59669 
L 1234.05375 119.637646 
L 1234.589526 105.861385 
L 1235.125302 80.612653 
L 1235.661078 85.122751 
L 1236.196854 68.353209 
L 1237.268406 58.90983 
L 1238.339959 61.734938 
L 1238.875735 79.180416 
L 1239.411511 103.71319 
L 1239.947287 107.779445 
L 1240.483063 124.212959 
L 1241.018839 133.710892 
L 1242.090391 158.814046 
L 1242.626167 157.336612 
L 1243.697719 145.053926 
L 1244.233495 142.937358 
L 1244.769271 149.005266 
L 1245.305047 143.185266 
L 1245.840823 132.571754 
L 1246.376599 132.060125 
L 1246.912375 126.446068 
L 1247.448151 131.690203 
L 1247.983927 131.785751 
L 1248.519703 134.423636 
L 1249.055479 132.058515 
L 1249.591255 140.058031 
L 1250.127031 137.213559 
L 1250.662807 139.972169 
L 1251.198583 135.064712 
L 1251.734359 138.774923 
L 1252.270135 126.606183 
L 1252.805911 130.465525 
L 1253.341687 132.233477 
L 1253.877463 138.212617 
L 1254.413239 140.917966 
L 1254.949015 151.719023 
L 1255.484791 149.147959 
L 1256.020567 151.327797 
L 1256.556343 157.402807 
L 1257.092119 165.910081 
L 1257.627895 170.074788 
L 1258.163671 182.608611 
L 1258.699447 176.980351 
L 1259.235223 179.011058 
L 1259.770999 188.242684 
L 1260.306775 189.385704 
L 1260.842551 195.148248 
L 1261.378327 197.672509 
L 1261.914103 192.598166 
L 1263.521431 207.050041 
L 1264.057207 206.230464 
L 1264.592983 201.096727 
L 1265.128759 184.753274 
L 1265.664535 180.798386 
L 1266.200311 173.764998 
L 1266.736087 173.183322 
L 1267.271863 170.278487 
L 1267.807639 173.24304 
L 1268.879191 174.027112 
L 1269.414967 173.185263 
L 1269.950743 181.564709 
L 1270.486519 183.002441 
L 1271.022295 181.010148 
L 1271.558071 170.606131 
L 1273.165399 170.889869 
L 1273.701175 171.809191 
L 1274.236951 165.058894 
L 1274.772727 147.08823 
L 1275.844279 99.837764 
L 1276.380055 97.540107 
L 1276.915831 88.18001 
L 1277.451607 81.3658 
L 1277.987383 80.506196 
L 1278.523159 77.945784 
L 1279.594711 104.95214 
L 1280.130487 113.711517 
L 1280.666263 117.975645 
L 1281.202039 120.052511 
L 1281.737815 124.043232 
L 1282.273591 138.792722 
L 1282.809367 135.557668 
L 1283.345143 146.859381 
L 1283.880919 147.704138 
L 1284.416695 159.328969 
L 1284.952471 175.54847 
L 1285.488247 171.816311 
L 1286.5598 165.453046 
L 1287.095576 173.431258 
L 1287.631352 162.256728 
L 1288.167128 160.370958 
L 1289.23868 135.52217 
L 1289.774456 135.394021 
L 1290.310232 135.926311 
L 1290.846008 125.160117 
L 1291.381784 128.632428 
L 1291.91756 121.388577 
L 1292.453336 128.695697 
L 1292.989112 129.891978 
L 1293.524888 135.02604 
L 1294.060664 138.345668 
L 1294.59644 142.900958 
L 1295.132216 138.948652 
L 1295.667992 139.353115 
L 1296.203768 138.820181 
L 1296.739544 147.373614 
L 1297.27532 148.154457 
L 1297.811096 142.636271 
L 1299.418424 169.00317 
L 1299.9542 167.138704 
L 1300.489976 148.557311 
L 1301.025752 143.720868 
L 1301.561528 149.082178 
L 1302.097304 156.747924 
L 1302.63308 158.100437 
L 1303.168856 159.009107 
L 1303.704632 156.317317 
L 1304.240408 167.011852 
L 1304.776184 173.033601 
L 1305.31196 173.075888 
L 1306.383512 159.21667 
L 1306.919288 143.625007 
L 1307.455064 144.917158 
L 1307.99084 137.868599 
L 1308.526616 134.04412 
L 1309.062392 124.655616 
L 1309.598168 112.000423 
L 1310.133944 102.874676 
L 1310.66972 113.384572 
L 1311.205496 115.915934 
L 1311.741272 126.180829 
L 1312.277048 128.818713 
L 1312.812824 135.692642 
L 1313.3486 145.080502 
L 1313.884376 148.986004 
L 1314.420152 148.918218 
L 1314.955928 141.727628 
L 1316.02748 133.276201 
L 1316.563256 136.663294 
L 1317.099032 139.283425 
L 1317.634808 147.084099 
L 1318.170584 129.866194 
L 1318.70636 117.040565 
L 1320.313688 106.384122 
L 1321.38524 89.393142 
L 1321.921016 85.518953 
L 1322.992568 109.645651 
L 1323.528344 111.335486 
L 1324.06412 106.641073 
L 1324.599896 105.550671 
L 1325.135672 105.624915 
L 1325.671448 105.376041 
L 1327.278776 119.372129 
L 1327.814552 129.615719 
L 1328.350328 132.136429 
L 1328.886104 124.33511 
L 1329.42188 119.576784 
L 1329.957656 111.750611 
L 1330.493432 105.937712 
L 1331.029208 89.49387 
L 1331.564984 82.697413 
L 1332.636536 109.298984 
L 1333.708088 119.961562 
L 1334.243865 128.905578 
L 1334.779641 143.211225 
L 1335.315417 160.836823 
L 1335.851193 172.475858 
L 1336.922745 157.991707 
L 1337.458521 155.342526 
L 1337.994297 157.298667 
L 1338.530073 143.890715 
L 1339.601625 128.195759 
L 1340.137401 134.51222 
L 1340.673177 137.224671 
L 1341.208953 132.178734 
L 1341.744729 128.968535 
L 1342.280505 135.096806 
L 1342.816281 147.513455 
L 1343.352057 147.491828 
L 1343.887833 140.113049 
L 1344.423609 137.705319 
L 1344.959385 130.145452 
L 1345.495161 126.445249 
L 1346.030937 121.196919 
L 1346.566713 111.503052 
L 1347.102489 119.310828 
L 1347.638265 122.470673 
L 1348.174041 128.321986 
L 1349.245593 164.130649 
L 1349.781369 172.520748 
L 1350.317145 172.037524 
L 1350.852921 161.725826 
L 1351.388697 156.058508 
L 1351.924473 166.408621 
L 1352.460249 160.656085 
L 1352.996025 141.368092 
L 1354.067577 117.385687 
L 1354.603353 131.453434 
L 1355.139129 142.478189 
L 1355.674905 138.383853 
L 1356.746457 142.725775 
L 1357.282233 152.149142 
L 1357.818009 165.993192 
L 1358.353785 163.248141 
L 1359.425337 141.51336 
L 1359.961113 143.661241 
L 1360.496889 149.015449 
L 1361.032665 146.810112 
L 1361.568441 150.055175 
L 1362.104217 135.404461 
L 1362.639993 136.511973 
L 1363.175769 142.959812 
L 1363.711545 145.686466 
L 1364.247321 147.291082 
L 1364.783097 151.871227 
L 1365.318873 142.65671 
L 1365.854649 153.37255 
L 1366.390425 155.445866 
L 1366.926201 156.109534 
L 1367.461977 150.158156 
L 1367.997753 155.789323 
L 1368.533529 150.750487 
L 1369.069305 153.906782 
L 1370.140857 143.537949 
L 1370.676633 141.527903 
L 1371.212409 141.357145 
L 1371.748185 140.742544 
L 1372.283961 143.589923 
L 1372.819737 141.650892 
L 1373.355513 139.037218 
L 1373.891289 141.369739 
L 1374.427065 140.00948 
L 1374.962841 137.843201 
L 1375.498617 122.311901 
L 1376.034393 119.861562 
L 1376.570169 122.190531 
L 1377.105945 128.230034 
L 1377.641721 136.765714 
L 1378.177497 134.883495 
L 1378.713273 138.799649 
L 1379.249049 148.041928 
L 1379.784825 151.844458 
L 1380.320601 153.172117 
L 1380.856377 159.218721 
L 1381.392153 155.532721 
L 1381.927929 162.893103 
L 1382.463705 167.139477 
L 1382.999482 162.725574 
L 1383.535258 166.51035 
L 1384.071034 166.865103 
L 1384.60681 155.118902 
L 1385.142586 152.711172 
L 1386.214138 131.338568 
L 1386.749914 124.034355 
L 1387.821466 130.780134 
L 1388.357242 138.215082 
L 1388.893018 141.836524 
L 1389.428794 158.748421 
L 1389.96457 163.381827 
L 1390.500346 174.530859 
L 1391.571898 150.161422 
L 1392.107674 141.760027 
L 1392.64345 144.973133 
L 1393.179226 136.518477 
L 1393.715002 139.408465 
L 1394.250778 136.780588 
L 1394.786554 140.789062 
L 1395.32233 150.258589 
L 1395.858106 149.331521 
L 1396.929658 141.651897 
L 1397.465434 135.545255 
L 1398.00121 121.886168 
L 1398.536986 124.652849 
L 1399.072762 112.659064 
L 1400.144314 98.950913 
L 1400.68009 103.697943 
L 1401.215866 104.414873 
L 1401.751642 111.228439 
L 1402.287418 107.808745 
L 1402.823194 115.822465 
L 1403.35897 130.45123 
L 1403.894746 141.003735 
L 1404.430522 142.640309 
L 1404.966298 151.634035 
L 1405.502074 153.554669 
L 1406.03785 153.19217 
L 1406.573626 154.292581 
L 1407.109402 148.273738 
L 1407.645178 145.993835 
L 1408.180954 140.855579 
L 1408.71673 133.121725 
L 1409.252506 130.305659 
L 1409.788282 125.888204 
L 1410.324058 124.243886 
L 1411.39561 131.824092 
L 1411.931386 140.075711 
L 1412.467162 139.194803 
L 1413.002938 151.462321 
L 1413.538714 172.187723 
L 1414.07449 177.648453 
L 1414.610266 171.19997 
L 1415.146042 168.121149 
L 1415.681818 156.300382 
L 1416.217594 157.503764 
L 1416.75337 148.608815 
L 1417.289146 125.809131 
L 1417.824922 124.068942 
L 1418.360698 117.979085 
L 1418.896474 113.952213 
L 1419.43225 115.933209 
L 1420.503802 109.892741 
L 1421.039578 116.443551 
L 1421.575354 102.044941 
L 1422.11113 100.290549 
L 1422.646906 101.11045 
L 1423.182682 104.731892 
L 1423.718458 101.532345 
L 1424.254234 104.36197 
L 1424.79001 102.742507 
L 1425.325786 108.394978 
L 1426.397338 122.199647 
L 1426.933114 118.893578 
L 1427.46889 126.736861 
L 1428.004666 117.781549 
L 1428.540442 118.359999 
L 1429.076218 132.225354 
L 1429.611994 137.252893 
L 1430.14777 139.940488 
L 1430.683546 133.623383 
L 1431.219323 131.474858 
L 1431.755099 144.012232 
L 1432.290875 146.785045 
L 1432.826651 135.074352 
L 1433.362427 136.16411 
L 1433.898203 130.088456 
L 1434.433979 136.305496 
L 1434.969755 133.81965 
L 1435.505531 127.66943 
L 1436.041307 135.100826 
L 1436.577083 145.081661 
L 1437.112859 145.961925 
L 1438.184411 160.245945 
L 1438.720187 169.857502 
L 1439.255963 175.133594 
L 1439.791739 175.140373 
L 1440.327515 182.47945 
L 1441.399067 177.327959 
L 1441.934843 175.904755 
L 1442.470619 181.146308 
L 1443.006395 174.702344 
L 1443.542171 170.047959 
L 1444.077947 174.359215 
L 1444.613723 175.01675 
L 1445.149499 185.121861 
L 1445.685275 186.893363 
L 1446.221051 181.769309 
L 1446.756827 181.339347 
L 1447.292603 190.876338 
L 1447.828379 184.001765 
L 1448.364155 185.087972 
L 1448.899931 186.88788 
L 1449.435707 180.141135 
L 1449.971483 177.516809 
L 1450.507259 189.89795 
L 1451.043035 195.035562 
L 1451.578811 202.367538 
L 1452.114587 186.864644 
L 1452.650363 186.38142 
L 1453.186139 203.129983 
L 1453.721915 206.850846 
L 1454.793467 192.270826 
L 1455.329243 186.266186 
L 1455.865019 189.355016 
L 1456.400795 181.738337 
L 1456.936571 165.535946 
L 1457.472347 160.316022 
L 1458.008123 160.226931 
L 1458.543899 158.923484 
L 1459.079675 158.550334 
L 1459.615451 161.877064 
L 1460.687003 178.682117 
L 1461.222779 193.101388 
L 1461.758555 198.37748 
L 1462.294331 195.263151 
L 1462.830107 187.937633 
L 1463.365883 190.536459 
L 1463.901659 183.761307 
L 1464.437435 184.240337 
L 1465.508987 160.247279 
L 1466.044763 151.924001 
L 1466.580539 149.949462 
L 1467.116315 141.665242 
L 1467.652091 143.887689 
L 1468.723643 131.413262 
L 1469.259419 130.170178 
L 1469.795195 127.908029 
L 1470.330971 133.329701 
L 1470.866747 135.470481 
L 1471.402523 126.433502 
L 1471.938299 111.658512 
L 1472.474075 116.313222 
L 1473.009851 119.334588 
L 1473.545627 129.095276 
L 1474.081403 126.506458 
L 1474.617179 127.961943 
L 1475.152955 130.408088 
L 1475.688731 150.380731 
L 1477.296059 154.498634 
L 1478.367611 151.873987 
L 1478.903387 152.463089 
L 1479.439163 149.039845 
L 1479.97494 144.43065 
L 1480.510716 134.992436 
L 1481.046492 140.304035 
L 1481.582268 148.090507 
L 1482.118044 151.410135 
L 1483.189596 165.38169 
L 1483.725372 179.438785 
L 1484.261148 199.706141 
L 1485.3327 204.925098 
L 1485.868476 206.774717 
L 1486.404252 203.465096 
L 1486.940028 210.679897 
L 1487.475804 202.747201 
L 1488.01158 200.023454 
L 1488.547356 204.848601 
L 1489.083132 203.76175 
L 1489.618908 215.120275 
L 1490.154684 229.077949 
L 1490.69046 219.124876 
L 1491.226236 215.747792 
L 1491.762012 202.371797 
L 1492.297788 195.962372 
L 1492.833564 197.723222 
L 1493.36934 165.105716 
L 1493.905116 144.557208 
L 1494.440892 136.993789 
L 1494.976668 142.578796 
L 1495.512444 153.891162 
L 1496.04822 156.994195 
L 1496.583996 158.630768 
L 1497.119772 177.271881 
L 1498.191324 198.011164 
L 1498.7271 194.456542 
L 1499.262876 197.541821 
L 1499.798652 187.070339 
L 1500.334428 179.428804 
L 1501.40598 185.712987 
L 1501.941756 173.121708 
L 1502.477532 177.936202 
L 1503.013308 172.009679 
L 1503.549084 173.880602 
L 1504.08486 169.66199 
L 1504.620636 168.933764 
L 1505.156412 154.918635 
L 1505.692188 157.989711 
L 1506.227964 145.2493 
L 1506.76374 145.1176 
L 1507.299516 147.240627 
L 1507.835292 151.597074 
L 1508.371068 149.338476 
L 1508.906844 149.075398 
L 1509.44262 147.722241 
L 1509.978396 158.58011 
L 1510.514172 149.635451 
L 1511.049948 158.089463 
L 1511.585724 158.256026 
L 1512.1215 160.819345 
L 1512.657276 177.614068 
L 1513.193052 178.561796 
L 1513.728828 167.813356 
L 1514.264604 179.264201 
L 1514.80038 167.70974 
L 1515.336156 169.491894 
L 1515.871932 178.031125 
L 1516.407708 165.294265 
L 1516.943484 160.415213 
L 1517.47926 158.51524 
L 1518.015036 146.776141 
L 1518.550812 145.5011 
L 1519.086588 140.664657 
L 1519.622364 128.932659 
L 1520.15814 138.182039 
L 1520.693916 138.959332 
L 1521.229692 148.322336 
L 1521.765468 166.931491 
L 1522.301244 174.835137 
L 1522.83702 175.040759 
L 1523.372796 184.229776 
L 1523.908572 169.770803 
L 1524.444348 171.204984 
L 1524.980124 173.832216 
L 1525.5159 162.984355 
L 1526.051676 156.170145 
L 1526.587452 152.636827 
L 1527.123228 139.275036 
L 1527.659004 142.722491 
L 1528.194781 144.458486 
L 1528.730557 137.907031 
L 1529.266333 132.811384 
L 1529.802109 123.777955 
L 1530.337885 129.25644 
L 1530.873661 142.48621 
L 1531.409437 145.450764 
L 1531.945213 146.34168 
L 1532.480989 154.511632 
L 1533.016765 154.294715 
L 1533.552541 177.352959 
L 1534.624093 170.826038 
L 1535.159869 172.750222 
L 1535.695645 176.087604 
L 1536.231421 163.134149 
L 1536.767197 166.546097 
L 1537.302973 156.983607 
L 1537.838749 157.508796 
L 1538.374525 154.64657 
L 1538.910301 158.086924 
L 1540.517629 178.641246 
L 1541.053405 173.559802 
L 1542.124957 190.027534 
L 1542.660733 196.191313 
L 1543.196509 194.62156 
L 1543.732285 205.237978 
L 1544.268061 198.274637 
L 1544.803837 209.455625 
L 1545.339613 202.684024 
L 1545.875389 193.444652 
L 1546.411165 186.19725 
L 1546.946941 183.544519 
L 1547.482717 177.607344 
L 1548.018493 179.673558 
L 1548.554269 183.635872 
L 1549.625821 194.915959 
L 1550.161597 194.482446 
L 1550.697373 200.38702 
L 1551.233149 202.218885 
L 1551.768925 208.673825 
L 1552.304701 190.401347 
L 1553.912029 196.671004 
L 1554.447805 187.37482 
L 1554.983581 184.224984 
L 1555.519357 188.19795 
L 1556.055133 198.271104 
L 1556.590909 196.339175 
L 1556.590909 196.339175 
" clip-path="url(#pf4b720cc9a)" style="fill: none; stroke: #39a7d6; stroke-width: 2.5; stroke-linecap: square"/>
   </g>
   <g id="patch_3">
    <path d="M 225 320.4 
L 225 43.2 
" style="fill: none; stroke: #000000; stroke-width: 0.8; stroke-linejoin: miter; stroke-linecap: square"/>
   </g>
   <g id="patch_4">
    <path d="M 1620 320.4 
L 1620 43.2 
" style="fill: none; stroke: #000000; stroke-width: 0.8; stroke-linejoin: miter; stroke-linecap: square"/>
   </g>
   <g id="patch_5">
    <path d="M 225 320.4 
L 1620 320.4 
" style="fill: none; stroke: #000000; stroke-width: 0.8; stroke-linejoin: miter; stroke-linecap: square"/>
   </g>
   <g id="patch_6">
    <path d="M 225 43.2 
L 1620 43.2 
" style="fill: none; stroke: #000000; stroke-width: 0.8; stroke-linejoin: miter; stroke-linecap: square"/>
   </g>
   <g id="text_15">
    <!-- MT06 -->
    <g transform="translate(895.039062 37.2) scale(0.2 -0.2)">
     <defs>
      <path id="DejaVuSans-4d" d="M 628 4666 
L 1569 4666 
L 2759 1491 
L 3956 4666 
L 4897 4666 
L 4897 0 
L 4281 0 
L 4281 4097 
L 3078 897 
L 2444 897 
L 1241 4097 
L 1241 0 
L 628 0 
L 628 4666 
z
" transform="scale(0.015625)"/>
     </defs>
     <use xlink:href="#DejaVuSans-4d"/>
     <use xlink:href="#DejaVuSans-54" x="86.279297"/>
     <use xlink:href="#DejaVuSans-30" x="147.363281"/>
     <use xlink:href="#DejaVuSans-36" x="210.986328"/>
    </g>
   </g>
   <g id="legend_1">
    <g id="patch_7">
     <path d="M 1554.614063 65.878125 
L 1613 65.878125 
Q 1615 65.878125 1615 63.878125 
L 1615 50.2 
Q 1615 48.2 1613 48.2 
L 1554.614063 48.2 
Q 1552.614063 48.2 1552.614063 50.2 
L 1552.614063 63.878125 
Q 1552.614063 65.878125 1554.614063 65.878125 
z
" style="fill: #ffffff; opacity: 0.8; stroke: #cccccc; stroke-linejoin: miter"/>
    </g>
    <g id="line2d_14">
     <path d="M 1556.614063 56.298437 
L 1566.614063 56.298437 
L 1576.614063 56.298437 
" style="fill: none; stroke: #39a7d6; stroke-width: 2.5; stroke-linecap: square"/>
    </g>
    <g id="text_16">
     <!-- mt06 -->
     <g transform="translate(1584.614063 59.798437) scale(0.1 -0.1)">
      <use xlink:href="#DejaVuSans-6d"/>
      <use xlink:href="#DejaVuSans-74" x="97.412109"/>
      <use xlink:href="#DejaVuSans-30" x="136.621094"/>
      <use xlink:href="#DejaVuSans-36" x="200.244141"/>
     </g>
    </g>
   </g>
  </g>
 </g>
 <defs>
  <clipPath id="pf4b720cc9a">
   <rect x="225" y="43.2" width="1395" height="277.2"/>
  </clipPath>
 </defs>
</svg>
