<?xml version="1.0" encoding="utf-8" standalone="no"?>
<!DOCTYPE svg PUBLIC "-//W3C//DTD SVG 1.1//EN"
  "http://www.w3.org/Graphics/SVG/1.1/DTD/svg11.dtd">
<svg xmlns:xlink="http://www.w3.org/1999/xlink" width="1800pt" height="360pt" viewBox="0 0 1800 360" xmlns="http://www.w3.org/2000/svg" version="1.1">
 <metadata>
  <rdf:RDF xmlns:dc="http://purl.org/dc/elements/1.1/" xmlns:cc="http://creativecommons.org/ns#" xmlns:rdf="http://www.w3.org/1999/02/22-rdf-syntax-ns#">
   <cc:Work>
    <dc:type rdf:resource="http://purl.org/dc/dcmitype/StillImage"/>
    <dc:date>2024-03-25T15:23:14.484402</dc:date>
    <dc:format>image/svg+xml</dc:format>
    <dc:creator>
     <cc:Agent>
      <dc:title>Matplotlib v3.7.2, https://matplotlib.org/</dc:title>
     </cc:Agent>
    </dc:creator>
   </cc:Work>
  </rdf:RDF>
 </metadata>
 <defs>
  <style type="text/css">*{stroke-linejoin: round; stroke-linecap: butt}</style>
 </defs>
 <g id="figure_1">
  <g id="patch_1">
   <path d="M 0 360 
L 1800 360 
L 1800 0 
L 0 0 
z
" style="fill: #ffffff"/>
  </g>
  <g id="axes_1">
   <g id="patch_2">
    <path d="M 225 320.4 
L 1620 320.4 
L 1620 43.2 
L 225 43.2 
z
" style="fill: #ffffff"/>
   </g>
   <g id="matplotlib.axis_1">
    <g id="xtick_1">
     <g id="line2d_1">
      <defs>
       <path id="m63d9a4cb47" d="M 0 0 
L 0 3.5 
" style="stroke: #000000; stroke-width: 0.8"/>
      </defs>
      <g>
       <use xlink:href="#m63d9a4cb47" x="281.924597" y="320.4" style="stroke: #000000; stroke-width: 0.8"/>
      </g>
     </g>
     <g id="text_1">
      <!-- 2011 -->
      <g transform="translate(262.837097 338.797656) scale(0.15 -0.15)">
       <defs>
        <path id="DejaVuSans-32" d="M 1228 531 
L 3431 531 
L 3431 0 
L 469 0 
L 469 531 
Q 828 903 1448 1529 
Q 2069 2156 2228 2338 
Q 2531 2678 2651 2914 
Q 2772 3150 2772 3378 
Q 2772 3750 2511 3984 
Q 2250 4219 1831 4219 
Q 1534 4219 1204 4116 
Q 875 4013 500 3803 
L 500 4441 
Q 881 4594 1212 4672 
Q 1544 4750 1819 4750 
Q 2544 4750 2975 4387 
Q 3406 4025 3406 3419 
Q 3406 3131 3298 2873 
Q 3191 2616 2906 2266 
Q 2828 2175 2409 1742 
Q 1991 1309 1228 531 
z
" transform="scale(0.015625)"/>
        <path id="DejaVuSans-30" d="M 2034 4250 
Q 1547 4250 1301 3770 
Q 1056 3291 1056 2328 
Q 1056 1369 1301 889 
Q 1547 409 2034 409 
Q 2525 409 2770 889 
Q 3016 1369 3016 2328 
Q 3016 3291 2770 3770 
Q 2525 4250 2034 4250 
z
M 2034 4750 
Q 2819 4750 3233 4129 
Q 3647 3509 3647 2328 
Q 3647 1150 3233 529 
Q 2819 -91 2034 -91 
Q 1250 -91 836 529 
Q 422 1150 422 2328 
Q 422 3509 836 4129 
Q 1250 4750 2034 4750 
z
" transform="scale(0.015625)"/>
        <path id="DejaVuSans-31" d="M 794 531 
L 1825 531 
L 1825 4091 
L 703 3866 
L 703 4441 
L 1819 4666 
L 2450 4666 
L 2450 531 
L 3481 531 
L 3481 0 
L 794 0 
L 794 531 
z
" transform="scale(0.015625)"/>
       </defs>
       <use xlink:href="#DejaVuSans-32"/>
       <use xlink:href="#DejaVuSans-30" x="63.623047"/>
       <use xlink:href="#DejaVuSans-31" x="127.246094"/>
       <use xlink:href="#DejaVuSans-31" x="190.869141"/>
      </g>
     </g>
    </g>
    <g id="xtick_2">
     <g id="line2d_2">
      <g>
       <use xlink:href="#m63d9a4cb47" x="450.984627" y="320.4" style="stroke: #000000; stroke-width: 0.8"/>
      </g>
     </g>
     <g id="text_2">
      <!-- 2012 -->
      <g transform="translate(431.897127 338.797656) scale(0.15 -0.15)">
       <use xlink:href="#DejaVuSans-32"/>
       <use xlink:href="#DejaVuSans-30" x="63.623047"/>
       <use xlink:href="#DejaVuSans-31" x="127.246094"/>
       <use xlink:href="#DejaVuSans-32" x="190.869141"/>
      </g>
     </g>
    </g>
    <g id="xtick_3">
     <g id="line2d_3">
      <g>
       <use xlink:href="#m63d9a4cb47" x="620.507836" y="320.4" style="stroke: #000000; stroke-width: 0.8"/>
      </g>
     </g>
     <g id="text_3">
      <!-- 2013 -->
      <g transform="translate(601.420336 338.797656) scale(0.15 -0.15)">
       <defs>
        <path id="DejaVuSans-33" d="M 2597 2516 
Q 3050 2419 3304 2112 
Q 3559 1806 3559 1356 
Q 3559 666 3084 287 
Q 2609 -91 1734 -91 
Q 1441 -91 1130 -33 
Q 819 25 488 141 
L 488 750 
Q 750 597 1062 519 
Q 1375 441 1716 441 
Q 2309 441 2620 675 
Q 2931 909 2931 1356 
Q 2931 1769 2642 2001 
Q 2353 2234 1838 2234 
L 1294 2234 
L 1294 2753 
L 1863 2753 
Q 2328 2753 2575 2939 
Q 2822 3125 2822 3475 
Q 2822 3834 2567 4026 
Q 2313 4219 1838 4219 
Q 1578 4219 1281 4162 
Q 984 4106 628 3988 
L 628 4550 
Q 988 4650 1302 4700 
Q 1616 4750 1894 4750 
Q 2613 4750 3031 4423 
Q 3450 4097 3450 3541 
Q 3450 3153 3228 2886 
Q 3006 2619 2597 2516 
z
" transform="scale(0.015625)"/>
       </defs>
       <use xlink:href="#DejaVuSans-32"/>
       <use xlink:href="#DejaVuSans-30" x="63.623047"/>
       <use xlink:href="#DejaVuSans-31" x="127.246094"/>
       <use xlink:href="#DejaVuSans-33" x="190.869141"/>
      </g>
     </g>
    </g>
    <g id="xtick_4">
     <g id="line2d_4">
      <g>
       <use xlink:href="#m63d9a4cb47" x="789.567866" y="320.4" style="stroke: #000000; stroke-width: 0.8"/>
      </g>
     </g>
     <g id="text_4">
      <!-- 2014 -->
      <g transform="translate(770.480366 338.797656) scale(0.15 -0.15)">
       <defs>
        <path id="DejaVuSans-34" d="M 2419 4116 
L 825 1625 
L 2419 1625 
L 2419 4116 
z
M 2253 4666 
L 3047 4666 
L 3047 1625 
L 3713 1625 
L 3713 1100 
L 3047 1100 
L 3047 0 
L 2419 0 
L 2419 1100 
L 313 1100 
L 313 1709 
L 2253 4666 
z
" transform="scale(0.015625)"/>
       </defs>
       <use xlink:href="#DejaVuSans-32"/>
       <use xlink:href="#DejaVuSans-30" x="63.623047"/>
       <use xlink:href="#DejaVuSans-31" x="127.246094"/>
       <use xlink:href="#DejaVuSans-34" x="190.869141"/>
      </g>
     </g>
    </g>
    <g id="xtick_5">
     <g id="line2d_5">
      <g>
       <use xlink:href="#m63d9a4cb47" x="958.627897" y="320.4" style="stroke: #000000; stroke-width: 0.8"/>
      </g>
     </g>
     <g id="text_5">
      <!-- 2015 -->
      <g transform="translate(939.540397 338.797656) scale(0.15 -0.15)">
       <defs>
        <path id="DejaVuSans-35" d="M 691 4666 
L 3169 4666 
L 3169 4134 
L 1269 4134 
L 1269 2991 
Q 1406 3038 1543 3061 
Q 1681 3084 1819 3084 
Q 2600 3084 3056 2656 
Q 3513 2228 3513 1497 
Q 3513 744 3044 326 
Q 2575 -91 1722 -91 
Q 1428 -91 1123 -41 
Q 819 9 494 109 
L 494 744 
Q 775 591 1075 516 
Q 1375 441 1709 441 
Q 2250 441 2565 725 
Q 2881 1009 2881 1497 
Q 2881 1984 2565 2268 
Q 2250 2553 1709 2553 
Q 1456 2553 1204 2497 
Q 953 2441 691 2322 
L 691 4666 
z
" transform="scale(0.015625)"/>
       </defs>
       <use xlink:href="#DejaVuSans-32"/>
       <use xlink:href="#DejaVuSans-30" x="63.623047"/>
       <use xlink:href="#DejaVuSans-31" x="127.246094"/>
       <use xlink:href="#DejaVuSans-35" x="190.869141"/>
      </g>
     </g>
    </g>
    <g id="xtick_6">
     <g id="line2d_6">
      <g>
       <use xlink:href="#m63d9a4cb47" x="1127.687927" y="320.4" style="stroke: #000000; stroke-width: 0.8"/>
      </g>
     </g>
     <g id="text_6">
      <!-- 2016 -->
      <g transform="translate(1108.600427 338.797656) scale(0.15 -0.15)">
       <defs>
        <path id="DejaVuSans-36" d="M 2113 2584 
Q 1688 2584 1439 2293 
Q 1191 2003 1191 1497 
Q 1191 994 1439 701 
Q 1688 409 2113 409 
Q 2538 409 2786 701 
Q 3034 994 3034 1497 
Q 3034 2003 2786 2293 
Q 2538 2584 2113 2584 
z
M 3366 4563 
L 3366 3988 
Q 3128 4100 2886 4159 
Q 2644 4219 2406 4219 
Q 1781 4219 1451 3797 
Q 1122 3375 1075 2522 
Q 1259 2794 1537 2939 
Q 1816 3084 2150 3084 
Q 2853 3084 3261 2657 
Q 3669 2231 3669 1497 
Q 3669 778 3244 343 
Q 2819 -91 2113 -91 
Q 1303 -91 875 529 
Q 447 1150 447 2328 
Q 447 3434 972 4092 
Q 1497 4750 2381 4750 
Q 2619 4750 2861 4703 
Q 3103 4656 3366 4563 
z
" transform="scale(0.015625)"/>
       </defs>
       <use xlink:href="#DejaVuSans-32"/>
       <use xlink:href="#DejaVuSans-30" x="63.623047"/>
       <use xlink:href="#DejaVuSans-31" x="127.246094"/>
       <use xlink:href="#DejaVuSans-36" x="190.869141"/>
      </g>
     </g>
    </g>
    <g id="xtick_7">
     <g id="line2d_7">
      <g>
       <use xlink:href="#m63d9a4cb47" x="1297.211136" y="320.4" style="stroke: #000000; stroke-width: 0.8"/>
      </g>
     </g>
     <g id="text_7">
      <!-- 2017 -->
      <g transform="translate(1278.123636 338.797656) scale(0.15 -0.15)">
       <defs>
        <path id="DejaVuSans-37" d="M 525 4666 
L 3525 4666 
L 3525 4397 
L 1831 0 
L 1172 0 
L 2766 4134 
L 525 4134 
L 525 4666 
z
" transform="scale(0.015625)"/>
       </defs>
       <use xlink:href="#DejaVuSans-32"/>
       <use xlink:href="#DejaVuSans-30" x="63.623047"/>
       <use xlink:href="#DejaVuSans-31" x="127.246094"/>
       <use xlink:href="#DejaVuSans-37" x="190.869141"/>
      </g>
     </g>
    </g>
    <g id="xtick_8">
     <g id="line2d_8">
      <g>
       <use xlink:href="#m63d9a4cb47" x="1466.271167" y="320.4" style="stroke: #000000; stroke-width: 0.8"/>
      </g>
     </g>
     <g id="text_8">
      <!-- 2018 -->
      <g transform="translate(1447.183667 338.797656) scale(0.15 -0.15)">
       <defs>
        <path id="DejaVuSans-38" d="M 2034 2216 
Q 1584 2216 1326 1975 
Q 1069 1734 1069 1313 
Q 1069 891 1326 650 
Q 1584 409 2034 409 
Q 2484 409 2743 651 
Q 3003 894 3003 1313 
Q 3003 1734 2745 1975 
Q 2488 2216 2034 2216 
z
M 1403 2484 
Q 997 2584 770 2862 
Q 544 3141 544 3541 
Q 544 4100 942 4425 
Q 1341 4750 2034 4750 
Q 2731 4750 3128 4425 
Q 3525 4100 3525 3541 
Q 3525 3141 3298 2862 
Q 3072 2584 2669 2484 
Q 3125 2378 3379 2068 
Q 3634 1759 3634 1313 
Q 3634 634 3220 271 
Q 2806 -91 2034 -91 
Q 1263 -91 848 271 
Q 434 634 434 1313 
Q 434 1759 690 2068 
Q 947 2378 1403 2484 
z
M 1172 3481 
Q 1172 3119 1398 2916 
Q 1625 2713 2034 2713 
Q 2441 2713 2670 2916 
Q 2900 3119 2900 3481 
Q 2900 3844 2670 4047 
Q 2441 4250 2034 4250 
Q 1625 4250 1398 4047 
Q 1172 3844 1172 3481 
z
" transform="scale(0.015625)"/>
       </defs>
       <use xlink:href="#DejaVuSans-32"/>
       <use xlink:href="#DejaVuSans-30" x="63.623047"/>
       <use xlink:href="#DejaVuSans-31" x="127.246094"/>
       <use xlink:href="#DejaVuSans-38" x="190.869141"/>
      </g>
     </g>
    </g>
    <g id="text_9">
     <!-- Time -->
     <g transform="translate(904.149609 357.314844) scale(0.15 -0.15)">
      <defs>
       <path id="DejaVuSans-54" d="M -19 4666 
L 3928 4666 
L 3928 4134 
L 2272 4134 
L 2272 0 
L 1638 0 
L 1638 4134 
L -19 4134 
L -19 4666 
z
" transform="scale(0.015625)"/>
       <path id="DejaVuSans-69" d="M 603 3500 
L 1178 3500 
L 1178 0 
L 603 0 
L 603 3500 
z
M 603 4863 
L 1178 4863 
L 1178 4134 
L 603 4134 
L 603 4863 
z
" transform="scale(0.015625)"/>
       <path id="DejaVuSans-6d" d="M 3328 2828 
Q 3544 3216 3844 3400 
Q 4144 3584 4550 3584 
Q 5097 3584 5394 3201 
Q 5691 2819 5691 2113 
L 5691 0 
L 5113 0 
L 5113 2094 
Q 5113 2597 4934 2840 
Q 4756 3084 4391 3084 
Q 3944 3084 3684 2787 
Q 3425 2491 3425 1978 
L 3425 0 
L 2847 0 
L 2847 2094 
Q 2847 2600 2669 2842 
Q 2491 3084 2119 3084 
Q 1678 3084 1418 2786 
Q 1159 2488 1159 1978 
L 1159 0 
L 581 0 
L 581 3500 
L 1159 3500 
L 1159 2956 
Q 1356 3278 1631 3431 
Q 1906 3584 2284 3584 
Q 2666 3584 2933 3390 
Q 3200 3197 3328 2828 
z
" transform="scale(0.015625)"/>
       <path id="DejaVuSans-65" d="M 3597 1894 
L 3597 1613 
L 953 1613 
Q 991 1019 1311 708 
Q 1631 397 2203 397 
Q 2534 397 2845 478 
Q 3156 559 3463 722 
L 3463 178 
Q 3153 47 2828 -22 
Q 2503 -91 2169 -91 
Q 1331 -91 842 396 
Q 353 884 353 1716 
Q 353 2575 817 3079 
Q 1281 3584 2069 3584 
Q 2775 3584 3186 3129 
Q 3597 2675 3597 1894 
z
M 3022 2063 
Q 3016 2534 2758 2815 
Q 2500 3097 2075 3097 
Q 1594 3097 1305 2825 
Q 1016 2553 972 2059 
L 3022 2063 
z
" transform="scale(0.015625)"/>
      </defs>
      <use xlink:href="#DejaVuSans-54"/>
      <use xlink:href="#DejaVuSans-69" x="57.958984"/>
      <use xlink:href="#DejaVuSans-6d" x="85.742188"/>
      <use xlink:href="#DejaVuSans-65" x="183.154297"/>
     </g>
    </g>
   </g>
   <g id="matplotlib.axis_2">
    <g id="ytick_1">
     <g id="line2d_9">
      <defs>
       <path id="m499d5f5a46" d="M 0 0 
L -3.5 0 
" style="stroke: #000000; stroke-width: 0.8"/>
      </defs>
      <g>
       <use xlink:href="#m499d5f5a46" x="225" y="288.606716" style="stroke: #000000; stroke-width: 0.8"/>
      </g>
     </g>
     <g id="text_10">
      <!-- −0.003 -->
      <g transform="translate(162.488281 294.305544) scale(0.15 -0.15)">
       <defs>
        <path id="DejaVuSans-2212" d="M 678 2272 
L 4684 2272 
L 4684 1741 
L 678 1741 
L 678 2272 
z
" transform="scale(0.015625)"/>
        <path id="DejaVuSans-2e" d="M 684 794 
L 1344 794 
L 1344 0 
L 684 0 
L 684 794 
z
" transform="scale(0.015625)"/>
       </defs>
       <use xlink:href="#DejaVuSans-2212"/>
       <use xlink:href="#DejaVuSans-30" x="83.789062"/>
       <use xlink:href="#DejaVuSans-2e" x="147.412109"/>
       <use xlink:href="#DejaVuSans-30" x="179.199219"/>
       <use xlink:href="#DejaVuSans-30" x="242.822266"/>
       <use xlink:href="#DejaVuSans-33" x="306.445312"/>
      </g>
     </g>
    </g>
    <g id="ytick_2">
     <g id="line2d_10">
      <g>
       <use xlink:href="#m499d5f5a46" x="225" y="251.78466" style="stroke: #000000; stroke-width: 0.8"/>
      </g>
     </g>
     <g id="text_11">
      <!-- −0.002 -->
      <g transform="translate(162.488281 257.483488) scale(0.15 -0.15)">
       <use xlink:href="#DejaVuSans-2212"/>
       <use xlink:href="#DejaVuSans-30" x="83.789062"/>
       <use xlink:href="#DejaVuSans-2e" x="147.412109"/>
       <use xlink:href="#DejaVuSans-30" x="179.199219"/>
       <use xlink:href="#DejaVuSans-30" x="242.822266"/>
       <use xlink:href="#DejaVuSans-32" x="306.445312"/>
      </g>
     </g>
    </g>
    <g id="ytick_3">
     <g id="line2d_11">
      <g>
       <use xlink:href="#m499d5f5a46" x="225" y="214.962603" style="stroke: #000000; stroke-width: 0.8"/>
      </g>
     </g>
     <g id="text_12">
      <!-- −0.001 -->
      <g transform="translate(162.488281 220.661431) scale(0.15 -0.15)">
       <use xlink:href="#DejaVuSans-2212"/>
       <use xlink:href="#DejaVuSans-30" x="83.789062"/>
       <use xlink:href="#DejaVuSans-2e" x="147.412109"/>
       <use xlink:href="#DejaVuSans-30" x="179.199219"/>
       <use xlink:href="#DejaVuSans-30" x="242.822266"/>
       <use xlink:href="#DejaVuSans-31" x="306.445312"/>
      </g>
     </g>
    </g>
    <g id="ytick_4">
     <g id="line2d_12">
      <g>
       <use xlink:href="#m499d5f5a46" x="225" y="178.140547" style="stroke: #000000; stroke-width: 0.8"/>
      </g>
     </g>
     <g id="text_13">
      <!-- 0.000 -->
      <g transform="translate(175.057813 183.839375) scale(0.15 -0.15)">
       <use xlink:href="#DejaVuSans-30"/>
       <use xlink:href="#DejaVuSans-2e" x="63.623047"/>
       <use xlink:href="#DejaVuSans-30" x="95.410156"/>
       <use xlink:href="#DejaVuSans-30" x="159.033203"/>
       <use xlink:href="#DejaVuSans-30" x="222.65625"/>
      </g>
     </g>
    </g>
    <g id="ytick_5">
     <g id="line2d_13">
      <g>
       <use xlink:href="#m499d5f5a46" x="225" y="141.318491" style="stroke: #000000; stroke-width: 0.8"/>
      </g>
     </g>
     <g id="text_14">
      <!-- 0.001 -->
      <g transform="translate(175.057813 147.017319) scale(0.15 -0.15)">
       <use xlink:href="#DejaVuSans-30"/>
       <use xlink:href="#DejaVuSans-2e" x="63.623047"/>
       <use xlink:href="#DejaVuSans-30" x="95.410156"/>
       <use xlink:href="#DejaVuSans-30" x="159.033203"/>
       <use xlink:href="#DejaVuSans-31" x="222.65625"/>
      </g>
     </g>
    </g>
    <g id="ytick_6">
     <g id="line2d_14">
      <g>
       <use xlink:href="#m499d5f5a46" x="225" y="104.496434" style="stroke: #000000; stroke-width: 0.8"/>
      </g>
     </g>
     <g id="text_15">
      <!-- 0.002 -->
      <g transform="translate(175.057813 110.195262) scale(0.15 -0.15)">
       <use xlink:href="#DejaVuSans-30"/>
       <use xlink:href="#DejaVuSans-2e" x="63.623047"/>
       <use xlink:href="#DejaVuSans-30" x="95.410156"/>
       <use xlink:href="#DejaVuSans-30" x="159.033203"/>
       <use xlink:href="#DejaVuSans-32" x="222.65625"/>
      </g>
     </g>
    </g>
    <g id="ytick_7">
     <g id="line2d_15">
      <g>
       <use xlink:href="#m499d5f5a46" x="225" y="67.674378" style="stroke: #000000; stroke-width: 0.8"/>
      </g>
     </g>
     <g id="text_16">
      <!-- 0.003 -->
      <g transform="translate(175.057813 73.373206) scale(0.15 -0.15)">
       <use xlink:href="#DejaVuSans-30"/>
       <use xlink:href="#DejaVuSans-2e" x="63.623047"/>
       <use xlink:href="#DejaVuSans-30" x="95.410156"/>
       <use xlink:href="#DejaVuSans-30" x="159.033203"/>
       <use xlink:href="#DejaVuSans-33" x="222.65625"/>
      </g>
     </g>
    </g>
    <g id="text_17">
     <!-- North(m) -->
     <g transform="translate(155.36875 215.934375) rotate(-90) scale(0.15 -0.15)">
      <defs>
       <path id="DejaVuSans-4e" d="M 628 4666 
L 1478 4666 
L 3547 763 
L 3547 4666 
L 4159 4666 
L 4159 0 
L 3309 0 
L 1241 3903 
L 1241 0 
L 628 0 
L 628 4666 
z
" transform="scale(0.015625)"/>
       <path id="DejaVuSans-6f" d="M 1959 3097 
Q 1497 3097 1228 2736 
Q 959 2375 959 1747 
Q 959 1119 1226 758 
Q 1494 397 1959 397 
Q 2419 397 2687 759 
Q 2956 1122 2956 1747 
Q 2956 2369 2687 2733 
Q 2419 3097 1959 3097 
z
M 1959 3584 
Q 2709 3584 3137 3096 
Q 3566 2609 3566 1747 
Q 3566 888 3137 398 
Q 2709 -91 1959 -91 
Q 1206 -91 779 398 
Q 353 888 353 1747 
Q 353 2609 779 3096 
Q 1206 3584 1959 3584 
z
" transform="scale(0.015625)"/>
       <path id="DejaVuSans-72" d="M 2631 2963 
Q 2534 3019 2420 3045 
Q 2306 3072 2169 3072 
Q 1681 3072 1420 2755 
Q 1159 2438 1159 1844 
L 1159 0 
L 581 0 
L 581 3500 
L 1159 3500 
L 1159 2956 
Q 1341 3275 1631 3429 
Q 1922 3584 2338 3584 
Q 2397 3584 2469 3576 
Q 2541 3569 2628 3553 
L 2631 2963 
z
" transform="scale(0.015625)"/>
       <path id="DejaVuSans-74" d="M 1172 4494 
L 1172 3500 
L 2356 3500 
L 2356 3053 
L 1172 3053 
L 1172 1153 
Q 1172 725 1289 603 
Q 1406 481 1766 481 
L 2356 481 
L 2356 0 
L 1766 0 
Q 1100 0 847 248 
Q 594 497 594 1153 
L 594 3053 
L 172 3053 
L 172 3500 
L 594 3500 
L 594 4494 
L 1172 4494 
z
" transform="scale(0.015625)"/>
       <path id="DejaVuSans-68" d="M 3513 2113 
L 3513 0 
L 2938 0 
L 2938 2094 
Q 2938 2591 2744 2837 
Q 2550 3084 2163 3084 
Q 1697 3084 1428 2787 
Q 1159 2491 1159 1978 
L 1159 0 
L 581 0 
L 581 4863 
L 1159 4863 
L 1159 2956 
Q 1366 3272 1645 3428 
Q 1925 3584 2291 3584 
Q 2894 3584 3203 3211 
Q 3513 2838 3513 2113 
z
" transform="scale(0.015625)"/>
       <path id="DejaVuSans-28" d="M 1984 4856 
Q 1566 4138 1362 3434 
Q 1159 2731 1159 2009 
Q 1159 1288 1364 580 
Q 1569 -128 1984 -844 
L 1484 -844 
Q 1016 -109 783 600 
Q 550 1309 550 2009 
Q 550 2706 781 3412 
Q 1013 4119 1484 4856 
L 1984 4856 
z
" transform="scale(0.015625)"/>
       <path id="DejaVuSans-29" d="M 513 4856 
L 1013 4856 
Q 1481 4119 1714 3412 
Q 1947 2706 1947 2009 
Q 1947 1309 1714 600 
Q 1481 -109 1013 -844 
L 513 -844 
Q 928 -128 1133 580 
Q 1338 1288 1338 2009 
Q 1338 2731 1133 3434 
Q 928 4138 513 4856 
z
" transform="scale(0.015625)"/>
      </defs>
      <use xlink:href="#DejaVuSans-4e"/>
      <use xlink:href="#DejaVuSans-6f" x="74.804688"/>
      <use xlink:href="#DejaVuSans-72" x="135.986328"/>
      <use xlink:href="#DejaVuSans-74" x="177.099609"/>
      <use xlink:href="#DejaVuSans-68" x="216.308594"/>
      <use xlink:href="#DejaVuSans-28" x="279.6875"/>
      <use xlink:href="#DejaVuSans-6d" x="318.701172"/>
      <use xlink:href="#DejaVuSans-29" x="416.113281"/>
     </g>
    </g>
   </g>
   <g id="line2d_16">
    <path d="M 288.409091 145.299871 
L 288.872269 134.437035 
L 289.335447 114.344138 
L 289.798625 118.142617 
L 290.261804 105.243522 
L 290.724982 104.462566 
L 291.18816 96.976839 
L 291.651338 92.541753 
L 292.114516 93.824607 
L 292.577694 104.965252 
L 293.040873 108.599457 
L 293.504051 123.532773 
L 293.967229 121.580546 
L 294.893585 133.351768 
L 295.356763 139.574038 
L 295.819942 134.139496 
L 296.28312 134.501799 
L 296.746298 128.057281 
L 297.209476 130.281728 
L 297.672654 134.794402 
L 298.135832 131.116799 
L 298.599011 122.694411 
L 299.062189 121.126185 
L 299.988545 111.924616 
L 300.914901 109.735018 
L 301.37808 111.080995 
L 301.841258 103.479213 
L 302.304436 104.63582 
L 302.767614 103.52524 
L 303.230792 99.063853 
L 303.69397 96.774968 
L 304.620327 82.912778 
L 305.083505 82.359789 
L 305.546683 83.895137 
L 306.009861 76.235492 
L 306.936218 74.483062 
L 307.399396 63.493557 
L 307.862574 66.759447 
L 308.325752 60.598891 
L 308.78893 61.471348 
L 309.252108 55.8 
L 309.715287 62.158943 
L 310.178465 71.800404 
L 310.641643 87.065119 
L 311.104821 87.469504 
L 311.567999 101.119308 
L 312.031177 107.667716 
L 312.494356 122.56947 
L 312.957534 124.536162 
L 313.420712 133.872526 
L 313.88389 139.226847 
L 314.347068 142.419188 
L 315.273425 156.426035 
L 315.736603 144.389825 
L 316.199781 155.456825 
L 316.662959 145.266978 
L 317.126137 144.90336 
L 317.589315 138.884926 
L 318.052494 124.560488 
L 318.515672 116.574705 
L 318.97885 117.005391 
L 319.442028 105.069127 
L 319.905206 107.546067 
L 320.368384 105.909458 
L 321.294741 116.218318 
L 321.757919 119.820961 
L 322.221097 136.290283 
L 322.684275 144.758699 
L 323.610632 152.468974 
L 324.07381 151.679272 
L 324.536988 154.066787 
L 325.000166 153.282346 
L 325.463344 138.479221 
L 326.389701 126.442354 
L 326.852879 115.300394 
L 327.316057 110.765362 
L 327.779235 104.841614 
L 328.242413 101.384943 
L 328.705591 108.785519 
L 329.16877 104.960627 
L 329.631948 106.76425 
L 330.095126 114.78554 
L 330.558304 126.131336 
L 331.021482 129.3868 
L 331.48466 131.269328 
L 331.947839 118.533499 
L 332.411017 115.2925 
L 332.874195 114.381811 
L 333.337373 116.495791 
L 333.800551 108.441624 
L 334.263729 106.615644 
L 334.726907 98.503613 
L 335.190086 104.252457 
L 335.653264 101.332336 
L 336.116442 97.402238 
L 336.57962 82.909471 
L 337.042798 86.370087 
L 337.505976 77.063969 
L 337.969155 79.90387 
L 338.432333 68.414731 
L 339.358689 82.048097 
L 339.821867 99.348545 
L 340.285045 91.846708 
L 340.748224 101.361922 
L 341.67458 112.796485 
L 342.137758 115.736331 
L 342.600936 105.367634 
L 343.064114 91.958488 
L 343.527293 99.348543 
L 343.990471 95.518391 
L 344.453649 96.790724 
L 344.916827 104.612123 
L 345.380005 97.005081 
L 345.843183 94.148084 
L 346.306362 98.944814 
L 346.76954 92.789612 
L 347.232718 100.705696 
L 347.695896 88.159238 
L 348.159074 70.494514 
L 348.622252 63.05054 
L 349.085431 65.169781 
L 349.548609 61.581603 
L 350.011787 63.527253 
L 350.474965 59.423567 
L 351.401321 76.896947 
L 351.8645 82.561625 
L 352.327678 74.944062 
L 352.790856 80.855975 
L 353.254034 83.385518 
L 353.717212 88.503126 
L 354.18039 84.483604 
L 354.643569 88.780606 
L 355.106747 107.354046 
L 355.569925 118.205374 
L 356.033103 112.876038 
L 356.959459 98.419435 
L 357.422638 107.824183 
L 357.885816 110.23274 
L 358.348994 94.898326 
L 358.812172 103.624495 
L 359.27535 110.167643 
L 359.738528 125.211425 
L 360.664885 113.011488 
L 361.128063 116.835064 
L 361.591241 127.10776 
L 362.517597 106.691244 
L 362.980776 88.942355 
L 363.443954 89.588713 
L 363.907132 85.563931 
L 364.37031 75.47403 
L 364.833488 75.194576 
L 365.296666 86.966456 
L 365.759845 86.339823 
L 366.223023 94.513662 
L 367.149379 123.175687 
L 367.612557 136.325764 
L 368.075735 130.386234 
L 368.538914 134.888388 
L 369.002092 144.324697 
L 369.46527 143.408748 
L 369.928448 132.056376 
L 370.391626 123.891743 
L 370.854804 107.599955 
L 371.317983 122.380723 
L 371.781161 116.599002 
L 372.244339 130.511821 
L 372.707517 136.297487 
L 373.633873 156.14852 
L 374.097052 175.474181 
L 374.56023 169.650378 
L 375.023408 166.041159 
L 375.486586 148.087118 
L 375.949764 154.398813 
L 376.412942 146.318344 
L 376.876121 141.404572 
L 377.802477 123.712888 
L 378.728833 136.946472 
L 379.192011 126.425226 
L 379.65519 141.442707 
L 380.118368 148.42772 
L 380.581546 150.326028 
L 381.044724 153.276395 
L 381.507902 146.931823 
L 381.97108 143.164795 
L 382.434259 141.128403 
L 382.897437 127.529886 
L 383.360615 102.811108 
L 383.823793 98.902052 
L 384.286971 85.150986 
L 384.750149 77.580765 
L 385.213328 73.68749 
L 386.139684 85.690165 
L 386.602862 88.261791 
L 387.06604 86.141234 
L 387.992397 109.306253 
L 388.455575 117.022446 
L 388.918753 108.889374 
L 389.381931 88.215761 
L 389.845109 103.775053 
L 390.308287 111.749 
L 390.771466 93.07956 
L 391.234644 82.931795 
L 391.697822 89.77478 
L 392.161 99.852845 
L 392.624178 125.974806 
L 393.087356 130.066657 
L 393.550535 136.562461 
L 394.013713 162.600258 
L 394.476891 168.591075 
L 394.940069 165.350076 
L 395.403247 168.100552 
L 395.866425 165.022622 
L 396.329604 174.027587 
L 396.792782 172.843363 
L 397.25596 173.952627 
L 397.719138 183.436279 
L 398.645494 174.029558 
L 399.108673 175.007315 
L 399.571851 166.064158 
L 400.035029 172.728292 
L 400.961385 180.001963 
L 401.424563 185.766587 
L 401.887742 193.530123 
L 402.35092 193.524205 
L 402.814098 202.213552 
L 403.277276 194.759058 
L 403.740454 190.302932 
L 404.203632 177.351431 
L 404.666811 186.814041 
L 405.129989 188.707089 
L 405.593167 178.1122 
L 406.056345 170.936501 
L 406.519523 173.73958 
L 406.982701 165.10152 
L 407.44588 169.756222 
L 407.909058 165.363219 
L 408.372236 152.900925 
L 408.835414 157.07168 
L 409.298592 157.491846 
L 409.76177 143.798644 
L 410.688127 171.061431 
L 411.151305 172.433709 
L 411.614483 193.558391 
L 412.077661 192.700306 
L 412.540839 195.624371 
L 413.004018 205.402599 
L 413.467196 211.204046 
L 413.930374 194.975382 
L 414.393552 192.602331 
L 414.85673 183.159446 
L 415.319908 196.946018 
L 415.783087 199.586028 
L 416.246265 208.233293 
L 416.709443 195.797301 
L 417.172621 207.91636 
L 417.635799 205.106705 
L 418.562156 214.06893 
L 419.025334 212.511225 
L 419.488512 213.27331 
L 419.95169 217.033762 
L 420.414868 207.969618 
L 420.878046 207.043149 
L 421.804403 186.947511 
L 422.267581 189.082533 
L 422.730759 187.219731 
L 423.193937 186.135452 
L 423.657115 197.807387 
L 424.120294 204.897605 
L 424.583472 203.555572 
L 425.973006 187.572826 
L 426.436184 184.957802 
L 427.362541 172.079287 
L 427.825719 166.770993 
L 428.288897 173.524553 
L 428.752075 169.662839 
L 429.215253 166.76902 
L 429.678432 168.840918 
L 430.14161 167.604091 
L 430.604788 168.492423 
L 431.067966 176.881934 
L 431.531144 177.67032 
L 431.994322 180.873181 
L 432.4575 187.027067 
L 432.920679 185.269471 
L 433.383857 188.156714 
L 433.847035 187.877261 
L 434.310213 190.769765 
L 434.773391 195.524412 
L 435.236569 207.533005 
L 435.699748 205.701765 
L 436.162926 210.2197 
L 436.626104 206.010807 
L 437.089282 221.538536 
L 437.55246 227.213736 
L 438.015638 234.708996 
L 438.478817 221.725934 
L 438.941995 234.039623 
L 439.868351 244.337963 
L 440.331529 227.662174 
L 440.794707 227.256473 
L 441.257886 222.968676 
L 441.721064 226.687046 
L 442.184242 219.442964 
L 442.64742 218.479672 
L 443.110598 223.40791 
L 443.573776 231.060979 
L 444.500133 211.728084 
L 444.963311 216.614239 
L 445.426489 211.100794 
L 445.889667 203.409586 
L 446.352845 188.269803 
L 446.816024 185.965136 
L 447.279202 185.338504 
L 447.74238 192.986313 
L 448.205558 181.828572 
L 448.668736 180.954706 
L 449.595093 193.325601 
L 450.058271 192.877818 
L 450.521449 191.172825 
L 450.984627 187.416318 
L 451.447805 196.074103 
L 451.910983 200.229078 
L 452.374162 195.04177 
L 452.83734 197.276737 
L 453.300518 183.788686 
L 453.763696 188.985199 
L 454.226874 191.930305 
L 454.690052 186.527326 
L 455.153231 174.038731 
L 455.616409 173.422618 
L 456.079587 171.375706 
L 456.542765 191.064328 
L 457.005943 190.295667 
L 457.9323 170.310496 
L 458.395478 178.121374 
L 458.858656 170.819429 
L 459.321834 168.698872 
L 459.785012 155.200301 
L 460.711369 141.474879 
L 461.174547 140.911369 
L 461.637725 127.333893 
L 462.564081 117.637856 
L 463.490438 99.493788 
L 463.953616 96.252789 
L 464.416794 97.651369 
L 464.879972 106.445922 
L 465.34315 111.531969 
L 465.806328 114.182499 
L 466.269507 120.168055 
L 467.195863 137.925492 
L 467.659041 139.318812 
L 468.122219 136.698528 
L 468.585397 138.412725 
L 469.048576 144.556091 
L 469.511754 153.902975 
L 469.974932 159.751764 
L 470.43811 168.725167 
L 471.827645 220.610732 
L 472.290823 217.453897 
L 472.754001 221.645694 
L 473.217179 223.638687 
L 473.680357 220.713306 
L 474.143535 203.569351 
L 474.606714 198.518811 
L 475.069892 183.631522 
L 475.53307 191.000536 
L 476.922604 186.101229 
L 477.385783 192.775884 
L 477.848961 193.990354 
L 478.312139 195.699291 
L 478.775317 191.627166 
L 479.701673 213.987359 
L 480.164852 221.245907 
L 480.62803 225.995295 
L 481.091208 227.4833 
L 481.554386 236.020099 
L 482.017564 231.737562 
L 482.480742 223.851724 
L 482.943921 213.630315 
L 483.870277 178.453415 
L 484.333455 168.579186 
L 484.796633 162.88689 
L 485.259811 171.376347 
L 485.72299 173.158928 
L 486.186168 187.155912 
L 487.112524 226.9645 
L 487.575702 234.165184 
L 488.03888 229.56703 
L 488.965237 207.582946 
L 489.891593 169.865324 
L 490.354771 159.675478 
L 490.817949 155.803244 
L 491.281128 155.124008 
L 491.744306 158.126978 
L 492.207484 163.591765 
L 492.670662 174.900739 
L 493.13384 180.507554 
L 493.597018 178.0556 
L 494.523375 189.716355 
L 495.449731 205.11192 
L 495.912909 200.171846 
L 496.376087 208.08267 
L 496.839266 219.254876 
L 497.302444 215.061764 
L 497.765622 219.148355 
L 498.2288 217.816842 
L 498.691978 211.587997 
L 499.155156 208.673136 
L 500.081513 193.117132 
L 500.544691 193.368968 
L 501.007869 188.849718 
L 501.934225 192.430662 
L 502.397404 193.476803 
L 502.860582 192.48195 
L 503.32376 191.00841 
L 503.786938 193.527433 
L 504.250116 205.851643 
L 504.713294 197.050514 
L 505.176473 181.00596 
L 505.639651 178.243648 
L 506.102829 174.260948 
L 506.566007 173.72374 
L 507.029185 167.179277 
L 507.492363 145.821826 
L 507.955542 145.758045 
L 508.881898 163.910003 
L 509.345076 179.248362 
L 509.808254 175.791691 
L 510.271432 178.258111 
L 510.734611 189.041055 
L 511.197789 195.999766 
L 511.660967 194.005457 
L 512.124145 179.833568 
L 512.587323 155.051666 
L 513.050501 156.224054 
L 513.51368 152.89363 
L 514.440036 118.284842 
L 514.903214 115.443625 
L 515.366392 120.624357 
L 516.292749 153.947002 
L 517.219105 167.164805 
L 517.682283 166.601296 
L 518.608639 161.639523 
L 519.071818 164.184847 
L 519.998174 142.421697 
L 520.461352 153.672807 
L 520.92453 153.887821 
L 521.850887 185.137911 
L 522.314065 181.749624 
L 522.777243 192.348458 
L 523.240421 193.899587 
L 524.166777 205.886481 
L 524.629956 189.468446 
L 525.093134 182.992367 
L 525.556312 180.640358 
L 526.01949 172.875506 
L 526.482668 176.109929 
L 526.945846 163.232072 
L 527.872203 170.879224 
L 528.798559 163.118975 
L 529.261737 164.291362 
L 529.724915 172.97545 
L 530.188093 160.355347 
L 530.651272 155.915001 
L 531.11445 140.412258 
L 531.577628 136.566325 
L 532.040806 144.798027 
L 532.503984 143.266624 
L 532.967162 134.965222 
L 533.430341 149.55662 
L 533.893519 156.50481 
L 534.356697 170.943658 
L 534.819875 179.443635 
L 535.283053 177.407244 
L 536.20941 187.821874 
L 536.672588 187.484463 
L 537.135766 186.694667 
L 537.598944 178.503638 
L 538.062122 185.751571 
L 538.988479 192.251791 
L 539.451657 178.648013 
L 539.914835 171.446013 
L 540.378013 168.362823 
L 541.304369 158.261744 
L 541.767548 160.449368 
L 542.230726 153.115861 
L 542.693904 150.148397 
L 543.157082 167.496188 
L 543.62026 174.29183 
L 544.083438 191.550196 
L 544.546617 199.413677 
L 545.009795 194.41048 
L 545.472973 197.281943 
L 545.936151 201.584205 
L 546.399329 194.098149 
L 547.325686 202.934127 
L 547.788864 192.19721 
L 548.252042 194.526862 
L 548.71522 198.766001 
L 549.178398 199.659593 
L 549.641576 202.010287 
L 550.104755 201.157461 
L 550.567933 181.309715 
L 551.031111 174.938842 
L 551.494289 172.334338 
L 551.957467 173.438342 
L 552.420645 164.574089 
L 552.883824 174.631113 
L 553.347002 157.950064 
L 553.81018 165.913491 
L 554.273358 178.800553 
L 554.736536 178.089755 
L 555.199714 173.517902 
L 555.662893 185.589619 
L 556.126071 177.803726 
L 556.589249 182.795087 
L 557.052427 182.357825 
L 557.515605 188.285518 
L 557.978783 187.174938 
L 558.441962 189.946455 
L 558.90514 191.539667 
L 559.831496 188.345916 
L 560.294674 194.399763 
L 560.757852 203.420415 
L 561.221031 202.888373 
L 561.684209 201.540986 
L 562.610565 213.511911 
L 563.073743 214.084626 
L 563.536921 205.094126 
L 564.0001 193.031614 
L 564.463278 193.041477 
L 564.926456 197.654097 
L 565.389634 194.586688 
L 565.852812 198.494428 
L 566.31599 206.336869 
L 567.242347 245.740414 
L 567.705525 256.328727 
L 568.168703 256.422755 
L 568.631881 257.290045 
L 569.095059 262.681189 
L 569.558238 242.139084 
L 570.021416 245.163095 
L 570.947772 254.577705 
L 571.41095 262.030883 
L 571.874128 261.446333 
L 572.337307 258.463089 
L 572.800485 288.756463 
L 573.263663 299.94445 
L 573.726841 299.575571 
L 574.190019 287.108017 
L 574.653197 285.481929 
L 575.116376 289.847315 
L 576.50591 270.872025 
L 576.969088 249.546043 
L 577.432266 234.074767 
L 577.895445 227.54073 
L 578.358623 225.272792 
L 578.821801 224.267324 
L 579.284979 219.448143 
L 579.748157 216.627968 
L 580.211335 222.971224 
L 580.674514 231.781559 
L 581.137692 227.456939 
L 581.60087 220.659982 
L 582.064048 210.727889 
L 582.527226 203.368081 
L 582.990404 201.231744 
L 583.916761 193.760811 
L 586.232652 235.545295 
L 586.69583 239.216323 
L 587.159008 236.538175 
L 588.085364 220.450881 
L 588.548542 220.550169 
L 589.011721 221.075541 
L 589.938077 210.195938 
L 590.401255 210.19002 
L 592.253968 253.01144 
L 593.180324 260.953168 
L 593.643502 270.489423 
L 594.569859 267.274067 
L 595.033037 258.572884 
L 595.496215 245.521437 
L 595.959393 235.994387 
L 596.885749 222.048033 
L 597.348928 219.475091 
L 597.812106 212.657093 
L 598.275284 187.506971 
L 598.738462 183.592654 
L 599.20164 191.798055 
L 599.664818 195.137683 
L 600.127997 189.550594 
L 600.591175 190.328459 
L 601.054353 192.694934 
L 601.517531 217.943686 
L 601.980709 223.734612 
L 602.443887 219.278485 
L 602.907066 218.946429 
L 603.370244 223.132965 
L 603.833422 219.344895 
L 604.2966 209.197131 
L 604.759778 208.149675 
L 605.686135 201.699239 
L 607.075669 191.439693 
L 607.538847 211.664864 
L 608.002025 220.874981 
L 608.465204 222.594439 
L 608.928382 233.382644 
L 609.39156 221.45164 
L 609.854738 222.176902 
L 610.317916 227.28925 
L 611.244273 211.27034 
L 611.707451 209.854663 
L 612.170629 216.339948 
L 612.633807 253.266552 
L 613.096985 254.097021 
L 613.560163 257.725966 
L 614.023342 254.837406 
L 614.949698 258.08761 
L 615.412876 260.969593 
L 615.876054 258.270405 
L 616.339232 226.944698 
L 616.802411 232.372663 
L 617.265589 243.450184 
L 618.191945 257.162454 
L 618.655123 255.588968 
L 619.118301 252.390052 
L 619.58148 264.67744 
L 620.044658 268.295865 
L 620.507836 251.083526 
L 620.971014 239.920525 
L 621.89737 230.392817 
L 622.360549 230.008158 
L 623.286905 211.090826 
L 623.750083 215.78235 
L 624.213261 215.092594 
L 624.676439 198.769244 
L 625.139618 199.147328 
L 625.602796 205.027678 
L 626.065974 218.672222 
L 626.529152 226.693513 
L 626.99233 232.042574 
L 627.455508 242.946505 
L 627.918686 257.33275 
L 628.381865 253.960244 
L 628.845043 243.949247 
L 629.308221 241.6288 
L 629.771399 234.679294 
L 630.234577 225.725616 
L 631.160934 215.966456 
L 632.08729 228.032254 
L 632.550468 227.116305 
L 633.013646 232.702079 
L 633.476824 235.731351 
L 633.940003 237.371905 
L 634.403181 238.260236 
L 634.866359 254.156186 
L 635.329537 244.665959 
L 635.792715 246.727336 
L 636.255893 241.119205 
L 636.719072 241.202712 
L 637.18225 229.576805 
L 637.645428 220.959786 
L 638.108606 206.577485 
L 638.571784 213.630881 
L 639.498141 233.94482 
L 639.961319 239.982979 
L 640.887675 282.695249 
L 641.350853 299.248736 
L 641.814031 306.396817 
L 642.27721 306.501365 
L 642.740388 307.8 
L 643.666744 282.328342 
L 644.129922 262.56476 
L 644.5931 249.181915 
L 645.056279 244.078773 
L 645.519457 241.30068 
L 645.982635 239.448398 
L 646.445813 254.66051 
L 646.908991 263.323556 
L 647.372169 277.594075 
L 647.835348 287.104029 
L 648.298526 293.147448 
L 648.761704 288.633459 
L 649.224882 286.681232 
L 649.68806 281.993652 
L 650.151238 280.84625 
L 650.614417 277.899828 
L 651.077595 277.036482 
L 651.540773 276.578179 
L 652.003951 277.045687 
L 652.467129 273.973018 
L 652.930307 277.133796 
L 653.393486 276.43878 
L 653.856664 276.122504 
L 654.319842 269.288725 
L 654.78302 273.317452 
L 655.246198 275.668146 
L 655.709376 273.158328 
L 656.172555 262.310944 
L 656.635733 264.603774 
L 657.098911 254.576997 
L 657.562089 252.209207 
L 658.488445 213.055525 
L 658.951624 204.901411 
L 659.414802 205.295276 
L 659.87798 195.010744 
L 660.341158 199.449774 
L 660.804336 194.567563 
L 661.730693 206.659663 
L 662.193871 210.904062 
L 664.046583 171.465009 
L 664.509762 166.877375 
L 664.97294 167.576336 
L 665.436118 163.383224 
L 665.899296 174.828965 
L 666.362474 177.547879 
L 666.825652 186.132021 
L 667.288831 187.456957 
L 667.752009 178.887281 
L 668.215187 178.28695 
L 668.678365 171.037607 
L 669.141543 159.127644 
L 669.604721 153.209156 
L 670.0679 144.697343 
L 670.531078 146.211649 
L 670.994256 145.969018 
L 671.457434 126.715685 
L 671.920612 125.994367 
L 672.38379 119.860207 
L 672.846969 117.72387 
L 673.310147 114.903694 
L 673.773325 114.676844 
L 674.236503 111.967135 
L 674.699681 116.279918 
L 675.162859 113.570209 
L 675.626038 114.753117 
L 676.089216 128.981554 
L 676.552394 129.41224 
L 677.015572 121.605306 
L 677.47875 117.043974 
L 677.941928 133.166117 
L 678.405107 138.720329 
L 678.868285 133.301569 
L 679.331463 119.981847 
L 679.794641 116.272682 
L 680.257819 114.678155 
L 680.720997 124.072382 
L 681.184176 130.042158 
L 681.647354 129.604896 
L 682.110532 140.766581 
L 682.57371 145.594873 
L 683.036888 157.193163 
L 683.500066 180.080043 
L 683.963245 175.13997 
L 684.426423 167.122624 
L 684.889601 168.715835 
L 685.352779 164.554285 
L 685.815957 169.519345 
L 686.279135 167.866955 
L 686.742314 163.489732 
L 688.595026 189.567638 
L 689.058204 180.698124 
L 689.521383 181.318181 
L 690.447739 168.255556 
L 690.910917 158.854754 
L 691.374095 153.172978 
L 691.837273 145.055687 
L 692.300452 146.370103 
L 692.76363 141.62466 
L 693.226808 143.002199 
L 693.689986 137.96218 
L 694.153164 136.173022 
L 694.616342 129.039406 
L 695.079521 131.674156 
L 695.542699 136.223652 
L 696.005877 138.30081 
L 696.469055 131.309222 
L 696.932233 143.112663 
L 697.395411 149.361235 
L 697.85859 147.608899 
L 698.321768 150.748636 
L 698.784946 148.843752 
L 699.248124 137.812258 
L 699.711302 135.360304 
L 700.17448 128.842142 
L 700.637659 117.047906 
L 701.100837 126.173857 
L 701.564015 131.275685 
L 702.027193 132.569059 
L 702.490371 141.779176 
L 702.953549 147.449114 
L 703.416728 148.305885 
L 703.879906 148.468296 
L 704.343084 147.394538 
L 704.806262 145.026748 
L 705.26944 136.530716 
L 705.732618 122.369347 
L 706.195797 117.744891 
L 706.658975 115.924172 
L 707.122153 112.151883 
L 707.585331 110.720426 
L 708.048509 87.569215 
L 708.511687 75.874924 
L 708.974866 94.401021 
L 709.438044 101.743733 
L 709.901222 114.157369 
L 710.3644 135.697614 
L 710.827578 141.130839 
L 711.753935 181.186661 
L 712.217113 161.580888 
L 712.680291 173.38959 
L 713.606647 137.055425 
L 714.069825 124.824584 
L 714.533004 129.947453 
L 714.996182 138.710444 
L 715.45936 169.624533 
L 715.922538 149.461169 
L 716.385716 168.95516 
L 716.848894 177.113218 
L 717.312073 200.736539 
L 717.775251 208.352787 
L 718.238429 207.436838 
L 718.701607 187.799504 
L 719.164785 201.333582 
L 719.627963 200.01785 
L 720.091142 194.677994 
L 720.55432 185.229849 
L 721.017498 193.456291 
L 721.480676 194.860131 
L 722.407032 218.188218 
L 722.870211 225.178491 
L 723.333389 246.345255 
L 723.796567 247.575506 
L 724.259745 243.361353 
L 724.722923 258.852261 
L 725.186101 265.732067 
L 725.64928 260.676267 
L 726.575636 242.837295 
L 727.038814 254.030542 
L 727.501992 246.228869 
L 727.96517 234.723949 
L 728.891527 227.605456 
L 729.354705 235.958144 
L 730.281061 228.623979 
L 730.744239 237.870918 
L 731.207417 237.396833 
L 731.670596 244.439709 
L 732.133774 253.55514 
L 732.596952 252.423519 
L 733.06013 254.00095 
L 733.523308 253.021877 
L 733.986486 254.736075 
L 734.449665 250.690251 
L 734.912843 247.712267 
L 735.376021 229.221677 
L 735.839199 231.088423 
L 736.302377 223.192065 
L 736.765555 223.091461 
L 737.228734 216.562779 
L 737.691912 228.17685 
L 738.15509 223.320941 
L 738.618268 233.846131 
L 739.081446 237.19102 
L 739.544624 248.010786 
L 740.007803 242.197504 
L 740.470981 257.725233 
L 740.934159 254.76303 
L 741.397337 253.952287 
L 741.860515 252.320938 
L 742.323693 242.409887 
L 742.786872 255.302209 
L 743.25005 248.284319 
L 743.713228 230.409183 
L 744.176406 224.448613 
L 744.639584 222.175508 
L 745.102762 224.131679 
L 745.565941 235.435393 
L 746.029119 227.870433 
L 746.492297 239.011077 
L 746.955475 231.703871 
L 747.418653 228.23142 
L 747.881831 233.464754 
L 748.34501 234.663443 
L 748.808188 237.177206 
L 749.734544 221.326625 
L 750.197722 218.480148 
L 750.6609 220.08914 
L 751.587257 208.694029 
L 752.050435 193.186025 
L 752.513613 188.882447 
L 752.976791 187.666661 
L 753.439969 198.802045 
L 753.903148 198.375303 
L 754.366326 190.983933 
L 754.829504 192.314129 
L 755.292682 192.855282 
L 756.219038 213.221824 
L 756.682217 208.392216 
L 757.145395 209.938085 
L 757.608573 225.770911 
L 758.071751 223.645095 
L 758.534929 228.163029 
L 758.998107 203.901897 
L 760.387642 187.745561 
L 760.85082 173.857728 
L 761.313998 175.072198 
L 761.777176 150.36394 
L 762.240355 151.425862 
L 762.703533 147.479983 
L 763.166711 148.720755 
L 763.629889 143.628133 
L 764.093067 148.298616 
L 764.556245 145.515263 
L 765.019424 159.059861 
L 765.482602 165.681913 
L 765.94578 140.089926 
L 766.408958 144.444792 
L 766.872136 145.317343 
L 767.335314 145.248301 
L 767.798493 141.623301 
L 768.724849 163.226012 
L 769.188027 197.464606 
L 769.651205 209.783556 
L 770.114383 227.983515 
L 770.577562 230.89706 
L 771.04074 238.245032 
L 771.503918 237.79725 
L 771.967096 252.641141 
L 772.430274 229.710862 
L 773.356631 226.091029 
L 773.819809 227.436912 
L 774.282987 243.643125 
L 774.746165 251.317142 
L 775.209343 254.982815 
L 775.672521 243.772377 
L 776.1357 267.069467 
L 776.598878 265.748475 
L 777.062056 259.709 
L 777.525234 246.410319 
L 778.45159 242.321756 
L 778.914769 247.397281 
L 779.377947 239.09062 
L 779.841125 234.697617 
L 780.304303 235.78584 
L 780.767481 241.703012 
L 781.230659 244.832229 
L 781.693838 246.993552 
L 782.157016 251.900748 
L 783.083372 268.14848 
L 783.54655 265.722827 
L 784.472907 254.522346 
L 784.936085 243.832771 
L 785.399263 244.85261 
L 785.862441 240.417525 
L 786.325619 240.716704 
L 786.788797 242.620272 
L 787.251976 246.549054 
L 787.715154 239.299711 
L 788.178332 245.427296 
L 788.64151 229.987676 
L 789.567866 226.635553 
L 790.031045 231.90571 
L 790.494223 233.688291 
L 790.957401 246.359681 
L 791.420579 243.486903 
L 791.883757 250.724409 
L 792.346935 255.984045 
L 792.810114 253.253295 
L 793.273292 243.868273 
L 793.73647 243.42049 
L 794.199648 236.92863 
L 794.662826 238.158881 
L 795.126004 226.364645 
L 795.589183 218.18423 
L 796.052361 220.598047 
L 796.515539 219.818866 
L 796.978717 211.812041 
L 797.441895 222.210984 
L 797.905073 228.112376 
L 798.368252 241.967332 
L 799.294608 245.579838 
L 799.757786 253.911485 
L 800.220964 258.592489 
L 800.684142 248.960233 
L 801.147321 250.869062 
L 801.610499 258.059226 
L 802.073677 257.695608 
L 802.536855 258.852215 
L 803.463211 279.081989 
L 804.389568 283.305253 
L 804.852746 279.327719 
L 806.24228 294.227876 
L 806.705459 285.773832 
L 807.168637 285.41538 
L 807.631815 284.888693 
L 808.094993 285.677079 
L 808.558171 277.475624 
L 809.021349 280.157716 
L 809.484528 272.824208 
L 809.947706 261.114136 
L 810.410884 241.308473 
L 810.874062 244.290401 
L 811.33724 240.518113 
L 812.726775 222.173495 
L 813.189953 227.180637 
L 813.653131 241.598444 
L 814.116309 240.698276 
L 814.579487 238.93542 
L 815.042666 246.730518 
L 815.505844 244.494235 
L 816.4322 263.287949 
L 816.895378 258.25845 
L 817.358556 255.464577 
L 817.821735 261.003008 
L 818.284913 253.343363 
L 818.748091 251.790918 
L 819.211269 241.732579 
L 819.674447 226.045725 
L 820.137625 221.08461 
L 820.600804 219.758358 
L 821.063982 209.705279 
L 822.453516 202.286291 
L 822.916694 204.831616 
L 823.379873 212.710878 
L 823.843051 215.477135 
L 824.306229 219.321752 
L 824.769407 222.11957 
L 825.232585 220.593427 
L 826.158941 216.478562 
L 826.62212 212.459039 
L 827.085298 211.911311 
L 827.548476 213.320412 
L 828.011654 206.323563 
L 828.474832 209.237108 
L 828.93801 211.330048 
L 829.401189 207.762911 
L 829.864367 208.824832 
L 830.327545 202.248807 
L 830.790723 200.47543 
L 831.253901 199.811975 
L 831.717079 205.439832 
L 832.180258 207.464387 
L 833.106614 200.040797 
L 833.569792 182.376073 
L 834.03297 178.219783 
L 834.496148 172.343377 
L 834.959327 159.381355 
L 835.885683 152.378589 
L 836.348861 151.399516 
L 836.812039 149.684003 
L 837.275217 144.917519 
L 837.738396 147.694296 
L 838.201574 148.030297 
L 838.664752 137.098749 
L 839.12793 142.353124 
L 839.591108 131.800317 
L 840.054286 137.454475 
L 840.517465 139.426428 
L 840.980643 146.732318 
L 841.443821 147.289251 
L 841.906999 147.551608 
L 842.833355 130.67527 
L 843.296534 124.90407 
L 843.759712 127.691368 
L 844.22289 115.765624 
L 845.149246 130.277459 
L 845.612424 125.931799 
L 846.075603 119.555665 
L 847.001959 140.653387 
L 853.949631 152.509432 
L 854.875988 136.353754 
L 855.339166 141.881665 
L 855.802344 153.890258 
L 856.265522 153.794915 
L 856.7287 130.527977 
L 857.191879 116.019429 
L 857.655057 115.934607 
L 858.118235 114.408464 
L 858.581413 121.009475 
L 859.044591 137.17896 
L 859.507769 136.362957 
L 859.970948 133.137739 
L 860.434126 122.91107 
L 860.897304 135.477254 
L 861.360482 135.608103 
L 861.82366 128.285117 
L 862.286838 113.692404 
L 862.750017 111.903246 
L 863.213195 125.326858 
L 863.676373 148.981741 
L 864.139551 128.392294 
L 864.602729 122.705258 
L 865.529086 116.118055 
L 865.992264 121.056813 
L 866.455442 124.480606 
L 866.91862 100.855969 
L 867.381798 102.180906 
L 867.844976 112.369437 
L 868.771333 121.557854 
L 869.234511 113.724619 
L 869.697689 102.861455 
L 870.160867 115.532845 
L 870.624045 133.564474 
L 871.087224 134.53171 
L 871.550402 141.564065 
L 872.01358 150.847826 
L 872.476758 147.922445 
L 872.939936 165.070344 
L 873.403114 163.549462 
L 873.866293 158.130701 
L 874.329471 164.116258 
L 874.792649 149.018557 
L 875.255827 143.178973 
L 875.719005 151.610566 
L 876.182183 130.389883 
L 876.645362 151.288373 
L 877.10854 154.312384 
L 877.571718 159.861336 
L 878.034896 180.475769 
L 878.498074 186.129927 
L 878.961252 194.756151 
L 879.424431 196.433527 
L 879.887609 180.362672 
L 880.350787 176.337889 
L 880.813965 177.142056 
L 881.277143 177.004631 
L 881.740321 174.768348 
L 882.2035 169.628383 
L 882.666678 169.832877 
L 883.129856 173.640672 
L 883.593034 176.270161 
L 884.056212 173.513109 
L 884.51939 169.735561 
L 884.982569 169.14049 
L 885.445747 165.589134 
L 885.908925 178.407812 
L 886.372103 177.218327 
L 886.835281 177.033559 
L 887.298459 180.146995 
L 888.224816 175.290429 
L 888.687994 188.245874 
L 889.151172 192.579699 
L 889.61435 203.467849 
L 890.540707 194.797569 
L 891.003885 191.225172 
L 891.467063 197.726237 
L 891.930241 198.509363 
L 892.393419 198.471883 
L 892.856597 207.671479 
L 893.319776 211.363548 
L 893.782954 223.387921 
L 894.246132 229.689096 
L 894.70931 230.035617 
L 895.172488 219.630098 
L 895.635666 225.026502 
L 896.098845 212.59051 
L 896.562023 203.61053 
L 897.488379 182.510176 
L 897.951557 175.692178 
L 898.414735 172.509042 
L 898.877914 154.839058 
L 899.341092 158.483783 
L 899.80427 164.674491 
L 900.267448 159.650253 
L 900.730626 157.913698 
L 901.193804 155.324976 
L 901.656983 153.972423 
L 902.120161 150.941836 
L 902.583339 135.628463 
L 903.046517 127.369144 
L 903.509695 124.349077 
L 903.972873 126.547222 
L 904.436052 123.758609 
L 904.89923 130.654196 
L 905.362408 142.804817 
L 905.825586 143.577422 
L 906.288764 153.687049 
L 906.751942 151.114108 
L 907.215121 166.531371 
L 907.678299 172.758901 
L 908.141477 170.701468 
L 908.604655 163.815086 
L 909.067833 164.882268 
L 909.531011 163.408728 
L 909.99419 168.289622 
L 910.457368 154.028308 
L 910.920546 154.885078 
L 911.383724 170.82311 
L 911.846902 164.741553 
L 912.31008 163.652014 
L 912.773259 172.946296 
L 913.236437 169.447543 
L 913.699615 174.096984 
L 914.162793 175.737538 
L 914.625971 161.470964 
L 915.089149 176.335896 
L 915.552328 182.337234 
L 916.015506 173.46772 
L 916.478684 172.451826 
L 916.941862 168.337618 
L 917.40504 159.573311 
L 917.868218 153.554877 
L 918.331397 141.902669 
L 919.257753 135.520617 
L 919.720931 131.043449 
L 920.184109 127.707765 
L 920.647287 134.74538 
L 921.110466 150.946427 
L 921.573644 160.235448 
L 922.036822 165.284672 
L 922.5 162.843238 
L 922.963178 179.365163 
L 923.426356 190.390081 
L 923.889534 193.824395 
L 924.352713 188.900102 
L 924.815891 188.667992 
L 925.279069 188.60421 
L 925.742247 173.790565 
L 926.205425 147.777755 
L 926.668603 148.445154 
L 927.131782 143.257847 
L 927.59496 140.711207 
L 928.058138 137.412345 
L 928.521316 137.059247 
L 928.984494 160.8772 
L 929.910851 172.780587 
L 930.374029 160.034237 
L 930.837207 153.652843 
L 931.300385 151.174587 
L 932.226741 174.686784 
L 932.68992 179.709707 
L 933.153098 193.727732 
L 934.079454 229.96984 
L 934.542632 233.383113 
L 935.00581 229.289947 
L 935.468989 208.637376 
L 935.932167 211.198481 
L 936.395345 208.215237 
L 936.858523 206.689094 
L 937.784879 192.57441 
L 938.711236 208.895786 
L 939.174414 200.15778 
L 939.637592 204.844044 
L 940.10077 200.861344 
L 940.563948 203.864314 
L 941.027127 217.051212 
L 941.490305 210.974915 
L 941.953483 208.643947 
L 942.416661 220.363224 
L 942.879839 216.285839 
L 943.343017 217.747542 
L 943.806196 209.540826 
L 944.269374 206.252485 
L 944.732552 198.193057 
L 945.19573 200.691039 
L 945.658908 195.519512 
L 946.122086 205.408207 
L 946.585265 209.158138 
L 947.048443 219.120477 
L 947.511621 212.170971 
L 947.974799 211.191899 
L 948.437977 219.013298 
L 948.901155 221.658568 
L 949.364334 214.751144 
L 949.827512 215.692079 
L 950.29069 214.613061 
L 950.753868 216.090546 
L 951.217046 226.778805 
L 951.680224 218.019758 
L 952.143403 206.677907 
L 952.606581 201.900902 
L 953.069759 189.049346 
L 953.996115 193.535061 
L 954.459293 194.565421 
L 955.848828 205.310228 
L 956.312006 217.313561 
L 956.775184 219.606391 
L 957.238362 208.81687 
L 958.164719 182.598251 
L 958.627897 186.979418 
L 959.091075 198.61979 
L 959.554253 202.211913 
L 960.017431 218.23411 
L 960.48061 225.697809 
L 961.406966 252.666019 
L 961.870144 254.690575 
L 962.333322 250.197626 
L 962.7965 248.98184 
L 963.259679 235.109788 
L 963.722857 244.135794 
L 964.649213 257.495625 
L 965.575569 258.352301 
L 966.038748 262.30729 
L 966.501926 268.934508 
L 967.428282 240.764132 
L 967.89146 234.619357 
L 968.354638 234.5397 
L 968.817817 233.176627 
L 969.280995 222.45023 
L 969.744173 193.291764 
L 970.207351 196.399939 
L 970.670529 202.45388 
L 972.060064 215.502695 
L 972.523242 229.541761 
L 972.98642 259.772012 
L 973.912776 288.85486 
L 974.375955 286.934195 
L 974.839133 276.486594 
L 975.765489 264.591754 
L 976.228667 251.913789 
L 976.691845 243.323071 
L 977.155024 229.47732 
L 977.618202 235.662768 
L 978.08138 234.373338 
L 978.544558 237.41313 
L 979.007736 232.825496 
L 980.397271 211.708703 
L 980.860449 199.79874 
L 981.323627 198.346241 
L 981.786805 198.861092 
L 982.249983 207.003369 
L 982.713162 212.17358 
L 983.17634 228.763889 
L 983.639518 228.358189 
L 984.102696 227.27391 
L 984.565874 228.104379 
L 985.029052 223.122223 
L 985.492231 208.487428 
L 985.955409 205.225388 
L 986.418587 191.279691 
L 986.881765 188.596284 
L 987.344943 182.94081 
L 987.808121 153.082725 
L 988.2713 149.436683 
L 988.734478 135.569891 
L 989.197656 130.582475 
L 990.124012 136.577894 
L 990.58719 124.525903 
L 991.050369 143.062521 
L 991.513547 132.420289 
L 991.976725 136.254385 
L 992.439903 141.419336 
L 992.903081 136.374056 
L 993.366259 130.040005 
L 993.829438 139.749849 
L 994.292616 140.454071 
L 994.755794 138.996312 
L 995.218972 146.828231 
L 995.68215 145.344171 
L 996.145328 145.843241 
L 996.608507 149.119746 
L 997.071685 148.003906 
L 997.534863 147.603466 
L 997.998041 152.28973 
L 998.461219 153.51998 
L 998.924397 155.655002 
L 999.387576 162.008779 
L 999.850754 172.718079 
L 1000.313932 175.410692 
L 1000.77711 176.309544 
L 1001.240288 168.681461 
L 1002.629823 119.921824 
L 1003.093001 111.283764 
L 1003.556179 110.415158 
L 1004.019357 105.275193 
L 1004.482535 110.050882 
L 1004.945714 122.15942 
L 1005.408892 128.55528 
L 1005.87207 141.889467 
L 1006.335248 135.965718 
L 1006.798426 125.281404 
L 1007.261604 131.077589 
L 1007.724783 132.986418 
L 1008.187961 133.306638 
L 1008.651139 133.206035 
L 1009.114317 127.52952 
L 1009.577495 124.98288 
L 1010.040673 128.080535 
L 1010.503852 120.320944 
L 1010.96703 118.752719 
L 1011.430208 111.671706 
L 1011.893386 112.228639 
L 1012.356564 117.377809 
L 1012.819742 112.826997 
L 1013.282921 111.132525 
L 1013.746099 119.42209 
L 1014.209277 122.819582 
L 1014.672455 132.687235 
L 1015.135633 127.499928 
L 1015.598811 118.409482 
L 1016.06199 123.253555 
L 1016.525168 112.842776 
L 1017.914702 122.041056 
L 1018.37788 124.144516 
L 1018.841059 121.839849 
L 1019.304237 120.955462 
L 1019.767415 136.972399 
L 1020.693771 110.296133 
L 1021.156949 104.851072 
L 1021.620127 106.633653 
L 1022.083306 130.283276 
L 1022.546484 132.244708 
L 1023.009662 127.020579 
L 1023.47284 123.490264 
L 1024.399196 132.47879 
L 1024.862375 139.395419 
L 1025.325553 124.360841 
L 1025.788731 116.511825 
L 1026.251909 121.513707 
L 1027.178265 164.504772 
L 1027.641444 154.662105 
L 1028.104622 133.357257 
L 1028.5678 133.267174 
L 1029.030978 146.04377 
L 1029.957334 115.774724 
L 1030.420513 91.282138 
L 1030.883691 92.217813 
L 1031.346869 101.564697 
L 1031.810047 92.384827 
L 1032.736403 78.922983 
L 1033.199582 94.319111 
L 1034.589116 107.935756 
L 1036.441829 163.765695 
L 1036.905007 167.915409 
L 1037.368185 174.69001 
L 1037.831363 183.42144 
L 1038.294541 181.448172 
L 1038.75772 187.2917 
L 1039.220898 182.398969 
L 1039.684076 165.954633 
L 1040.147254 164.554737 
L 1040.610432 157.173887 
L 1041.07361 144.395976 
L 1041.536789 136.536439 
L 1041.999967 124.000501 
L 1042.926323 119.207058 
L 1043.389501 99.843259 
L 1043.852679 110.252722 
L 1044.315858 108.531948 
L 1044.779036 98.794487 
L 1045.242214 101.013673 
L 1045.705392 118.398286 
L 1046.16857 120.470184 
L 1046.631748 131.98957 
L 1047.094927 146.554665 
L 1047.558105 146.05954 
L 1048.021283 163.170618 
L 1048.484461 161.681297 
L 1048.947639 149.460976 
L 1049.410817 151.138352 
L 1049.873996 156.745168 
L 1050.800352 153.077991 
L 1051.26353 155.533797 
L 1051.726708 155.559346 
L 1052.189886 165.479509 
L 1052.653065 150.613167 
L 1053.116243 141.406901 
L 1053.579421 158.07076 
L 1054.042599 155.603024 
L 1054.505777 179.147441 
L 1054.968955 176.869076 
L 1055.432134 163.928096 
L 1055.895312 169.024662 
L 1056.35849 178.308423 
L 1056.821668 162.137622 
L 1057.284846 156.219134 
L 1057.748024 127.670862 
L 1058.211203 121.710291 
L 1058.674381 120.57341 
L 1059.137559 127.33749 
L 1059.600737 130.88753 
L 1060.063915 124.069532 
L 1060.527093 115.410431 
L 1060.990272 115.767473 
L 1061.45345 110.090958 
L 1063.306162 132.923262 
L 1063.769341 134.600638 
L 1064.695697 177.518059 
L 1065.158875 187.538261 
L 1065.622053 179.752368 
L 1066.085231 175.459311 
L 1066.54841 181.576375 
L 1067.011588 190.007968 
L 1067.474766 195.38333 
L 1068.401122 189.017059 
L 1068.8643 202.403849 
L 1069.327479 201.451078 
L 1069.790657 198.541478 
L 1071.643369 164.010278 
L 1072.106548 158.623079 
L 1072.569726 163.845893 
L 1073.032904 174.534152 
L 1073.496082 188.757329 
L 1073.95926 190.692459 
L 1074.422438 195.662779 
L 1074.885617 197.734677 
L 1075.348795 192.599973 
L 1075.811973 192.388903 
L 1076.275151 189.379357 
L 1076.738329 188.011023 
L 1077.664686 208.346003 
L 1078.127864 202.921982 
L 1078.591042 206.934929 
L 1079.05422 208.149399 
L 1079.980576 186.512495 
L 1080.443755 169.647335 
L 1080.906933 169.799226 
L 1081.370111 194.637675 
L 1081.833289 193.979481 
L 1082.296467 202.069155 
L 1082.759645 205.87695 
L 1083.222824 219.931797 
L 1083.686002 220.904293 
L 1084.14918 209.246824 
L 1084.612358 201.24 
L 1085.075536 206.999363 
L 1085.538714 216.888058 
L 1086.001893 229.275392 
L 1086.465071 226.265846 
L 1086.928249 217.543621 
L 1087.391427 222.819038 
L 1087.854605 209.993784 
L 1088.317783 213.559605 
L 1088.780962 200.281966 
L 1089.24414 181.85976 
L 1089.707318 174.384224 
L 1090.170496 179.154653 
L 1090.633674 178.075635 
L 1091.096852 194.355586 
L 1091.560031 183.971109 
L 1092.023209 189.299128 
L 1092.486387 202.023121 
L 1092.949565 209.686711 
L 1093.412743 205.078036 
L 1093.875921 212.915216 
L 1094.3391 212.556858 
L 1094.802278 215.028539 
L 1095.265456 202.676711 
L 1095.728634 203.822797 
L 1096.191812 200.871115 
L 1096.65499 212.56935 
L 1097.581347 194.057061 
L 1098.044525 190.05858 
L 1098.507703 195.21301 
L 1098.970881 188.416052 
L 1099.434059 185.585357 
L 1099.897238 187.783502 
L 1100.360416 189.097917 
L 1100.823594 199.696751 
L 1101.286772 213.262391 
L 1101.74995 223.529827 
L 1102.213128 219.43666 
L 1102.676307 222.145054 
L 1103.139485 207.042093 
L 1104.992197 167.839752 
L 1105.455376 173.84635 
L 1105.918554 174.287557 
L 1106.381732 182.498218 
L 1106.84491 193.922918 
L 1107.308088 193.017489 
L 1107.771266 199.655322 
L 1108.234445 212.963208 
L 1108.697623 209.569661 
L 1109.160801 204.797916 
L 1109.623979 210.90446 
L 1110.550335 231.986401 
L 1111.476692 224.668017 
L 1112.403048 261.483498 
L 1112.866226 265.117703 
L 1113.329404 248.168378 
L 1113.792583 243.849019 
L 1114.718939 249.039614 
L 1115.645295 235.1143 
L 1116.108473 235.24515 
L 1116.571652 251.893322 
L 1117.03483 259.51483 
L 1117.498008 263.348926 
L 1117.961186 257.519863 
L 1118.424364 258.192523 
L 1118.887542 265.151234 
L 1119.35072 270.2478 
L 1119.813899 272.656357 
L 1121.203433 251.397537 
L 1121.666611 248.02503 
L 1122.129789 242.916627 
L 1122.592968 239.833437 
L 1123.056146 234.130621 
L 1123.519324 242.956736 
L 1123.982502 257.043145 
L 1124.44568 259.641073 
L 1124.908858 255.07448 
L 1125.372037 244.711043 
L 1125.835215 229.886878 
L 1126.298393 224.268226 
L 1127.224749 195.419459 
L 1127.687927 194.66658 
L 1128.151106 192.540763 
L 1128.614284 191.661636 
L 1129.077462 206.384541 
L 1129.54064 211.281216 
L 1130.003818 220.112592 
L 1130.466996 224.904062 
L 1131.393353 246.138552 
L 1131.856531 253.644333 
L 1132.319709 253.254414 
L 1132.782887 256.215301 
L 1133.246065 266.687888 
L 1133.709244 267.155397 
L 1134.172422 261.815541 
L 1134.6356 254.25058 
L 1135.098778 249.589302 
L 1135.561956 249.746453 
L 1136.025134 252.118188 
L 1136.488313 245.47904 
L 1136.951491 243.637279 
L 1137.414669 250.664374 
L 1137.877847 254.214414 
L 1138.341025 245.076626 
L 1138.804203 244.802433 
L 1139.267382 241.251077 
L 1139.73056 243.743798 
L 1140.193738 250.276425 
L 1140.656916 242.111791 
L 1141.120094 238.949697 
L 1141.583272 249.769464 
L 1142.046451 245.518488 
L 1142.509629 242.845601 
L 1143.435985 211.961101 
L 1144.362341 201.460239 
L 1144.82552 208.539937 
L 1145.288698 210.290957 
L 1145.751876 199.964342 
L 1146.215054 195.418791 
L 1146.678232 196.822631 
L 1147.14141 195.391173 
L 1147.604589 196.805535 
L 1148.067767 190.450442 
L 1148.530945 172.143962 
L 1148.994123 172.327414 
L 1149.457301 177.813243 
L 1149.920479 171.379246 
L 1150.383658 167.538574 
L 1150.846836 167.958739 
L 1151.310014 161.445838 
L 1151.773192 163.302064 
L 1152.23637 159.356186 
L 1153.162727 160.354326 
L 1153.625905 160.790272 
L 1154.089083 169.248167 
L 1154.552261 170.147019 
L 1155.015439 183.928331 
L 1155.478617 183.754084 
L 1155.941796 179.087545 
L 1156.404974 172.811357 
L 1156.868152 179.838452 
L 1157.33133 183.840877 
L 1157.794508 190.12101 
L 1158.257686 181.240977 
L 1158.720865 197.000159 
L 1159.184043 200.713269 
L 1159.647221 213.837044 
L 1160.573577 196.119059 
L 1161.036755 191.100081 
L 1161.499934 202.188122 
L 1161.963112 195.869851 
L 1162.42629 199.435673 
L 1163.352646 221.832688 
L 1164.279003 236.186714 
L 1164.742181 234.544845 
L 1165.205359 237.027046 
L 1165.668537 233.212675 
L 1166.131715 228.135833 
L 1166.594893 230.081484 
L 1167.058072 221.154108 
L 1167.52125 223.857241 
L 1167.984428 224.51938 
L 1168.447606 223.319376 
L 1168.910784 226.622182 
L 1169.373962 228.304818 
L 1169.837141 215.658414 
L 1170.300319 215.473646 
L 1170.763497 196.030943 
L 1171.226675 187.129868 
L 1171.689853 187.534253 
L 1172.153031 179.853566 
L 1172.61621 176.012894 
L 1173.079388 178.168956 
L 1173.542566 166.595652 
L 1174.005744 174.296065 
L 1174.468922 173.716774 
L 1174.9321 166.167595 
L 1175.395279 176.05629 
L 1175.858457 177.28128 
L 1176.321635 167.57538 
L 1176.784813 184.565471 
L 1177.247991 179.599096 
L 1177.711169 186.883945 
L 1178.174348 185.652379 
L 1179.100704 160.559462 
L 1179.563882 157.939178 
L 1180.02706 141.126621 
L 1180.490238 140.336919 
L 1180.953417 128.895122 
L 1181.416595 129.278466 
L 1182.342951 141.417908 
L 1182.806129 161.537874 
L 1183.269307 167.381403 
L 1184.195664 186.517036 
L 1184.658842 192.665662 
L 1185.12202 188.730304 
L 1185.585198 188.934798 
L 1186.048376 181.764359 
L 1186.511555 169.217901 
L 1186.974733 161.358364 
L 1187.437911 157.533473 
L 1187.901089 145.144823 
L 1188.364267 151.619587 
L 1188.827445 146.027237 
L 1189.290624 153.638224 
L 1189.753802 167.66151 
L 1190.21698 177.134641 
L 1191.143336 185.576097 
L 1191.606514 176.943297 
L 1192.069693 186.237578 
L 1192.532871 166.400353 
L 1192.996049 157.041632 
L 1193.459227 133.338091 
L 1193.922405 127.324917 
L 1194.385583 123.621012 
L 1194.848762 136.097771 
L 1195.31194 124.21411 
L 1195.775118 121.977827 
L 1196.701474 134.538093 
L 1197.164652 127.246668 
L 1197.627831 128.824099 
L 1198.091009 117.824167 
L 1198.554187 109.812081 
L 1199.017365 124.577068 
L 1199.480543 116.14942 
L 1199.943721 130.141143 
L 1200.870078 125.87899 
L 1201.796434 141.100964 
L 1202.259612 123.751858 
L 1202.72279 118.796003 
L 1203.185969 99.453245 
L 1204.112325 113.665243 
L 1204.575503 111.986552 
L 1205.038681 110.83389 
L 1205.501859 134.909596 
L 1205.965038 145.997638 
L 1206.428216 152.298812 
L 1206.891394 155.154494 
L 1207.354572 155.785071 
L 1208.280928 136.936687 
L 1208.744107 141.480829 
L 1209.207285 122.716609 
L 1209.670463 122.310815 
L 1210.133641 124.687716 
L 1210.596819 116.507207 
L 1211.059997 113.323978 
L 1211.523176 123.186371 
L 1211.986354 122.638642 
L 1212.449532 127.288084 
L 1212.91271 123.663084 
L 1213.375888 123.252123 
L 1213.839066 133.077694 
L 1215.228601 149.035452 
L 1215.691779 148.740218 
L 1216.154957 148.082023 
L 1216.618135 161.984322 
L 1217.081314 149.606193 
L 1217.544492 147.985364 
L 1218.00767 137.590366 
L 1218.470848 124.617824 
L 1218.934026 117.242234 
L 1219.397204 128.76162 
L 1219.860382 124.689495 
L 1220.323561 130.106939 
L 1220.786739 120.895507 
L 1221.249917 116.981191 
L 1221.713095 132.345851 
L 1222.176273 141.829503 
L 1222.639451 140.361223 
L 1223.10263 138.424777 
L 1223.565808 138.571408 
L 1224.028986 145.651105 
L 1224.492164 158.848525 
L 1224.955342 158.611153 
L 1225.41852 159.820363 
L 1226.344877 161.628589 
L 1226.808055 159.844691 
L 1227.271233 156.977173 
L 1227.734411 166.502908 
L 1228.197589 156.702322 
L 1228.660768 153.014199 
L 1229.123946 145.749075 
L 1229.587124 131.877023 
L 1230.050302 144.774605 
L 1230.51348 144.195315 
L 1230.976658 139.528777 
L 1231.439837 150.506352 
L 1231.903015 149.222183 
L 1232.366193 152.330358 
L 1232.829371 178.115661 
L 1233.292549 177.53637 
L 1234.218906 166.1623 
L 1234.682084 171.816458 
L 1235.145262 174.49855 
L 1235.60844 176.091761 
L 1236.534796 144.965287 
L 1236.997975 153.165427 
L 1237.461153 150.150621 
L 1237.924331 140.891846 
L 1238.387509 139.655019 
L 1238.850687 134.746508 
L 1239.313865 138.575344 
L 1239.777044 156.496507 
L 1240.240222 152.661095 
L 1240.7034 167.452383 
L 1241.166578 169.876721 
L 1241.629756 169.797158 
L 1242.556113 165.308812 
L 1243.019291 137.581146 
L 1243.482469 154.944718 
L 1243.945647 153.571123 
L 1244.408825 150.451111 
L 1245.335182 173.863363 
L 1245.79836 173.841664 
L 1246.261538 197.638575 
L 1246.724716 181.551939 
L 1247.187894 171.446257 
L 1247.651072 182.081913 
L 1248.114251 187.751852 
L 1248.577429 187.393494 
L 1249.040607 185.083568 
L 1249.503785 188.875582 
L 1249.966963 201.489108 
L 1250.430141 205.086491 
L 1250.89332 199.767677 
L 1251.356498 206.22666 
L 1251.819676 208.051324 
L 1252.282854 212.711286 
L 1252.746032 215.43546 
L 1253.20921 213.877756 
L 1253.672389 227.638026 
L 1254.135567 237.574064 
L 1254.598745 220.082929 
L 1255.061923 214.921923 
L 1255.525101 220.276244 
L 1255.988279 215.767515 
L 1257.377814 174.74051 
L 1257.840992 182.982733 
L 1258.30417 180.983163 
L 1258.767348 181.750508 
L 1259.230527 183.906571 
L 1259.693705 201.664665 
L 1260.620061 222.688743 
L 1261.083239 223.47713 
L 1261.546417 223.918337 
L 1262.009596 215.054084 
L 1262.472774 222.444139 
L 1263.39913 212.742841 
L 1263.862308 211.658563 
L 1264.325486 206.055692 
L 1264.788665 210.142283 
L 1266.641377 189.241162 
L 1267.104555 195.189897 
L 1267.567734 199.292268 
L 1268.030912 197.971276 
L 1268.49409 199.801201 
L 1268.957268 214.418899 
L 1269.883624 224.143867 
L 1270.346803 217.915021 
L 1271.736337 247.954586 
L 1272.199515 246.544169 
L 1272.662693 247.295733 
L 1273.125872 250.072511 
L 1273.58905 248.015078 
L 1274.052228 225.44776 
L 1274.978584 210.002222 
L 1275.441762 199.801854 
L 1276.368119 190.579244 
L 1276.831297 195.954606 
L 1277.294475 196.548361 
L 1277.757653 191.250588 
L 1278.220831 179.203857 
L 1278.68401 172.848765 
L 1279.147188 172.395722 
L 1279.610366 161.337926 
L 1280.073544 145.651072 
L 1280.536722 154.172091 
L 1280.9999 158.316544 
L 1281.463079 166.158984 
L 1281.926257 176.684174 
L 1282.852613 192.784618 
L 1283.315791 207.64955 
L 1283.778969 205.439569 
L 1284.242148 211.656579 
L 1284.705326 215.790512 
L 1285.168504 224.926984 
L 1285.631682 219.734416 
L 1286.09486 216.740651 
L 1286.558038 205.603952 
L 1287.021217 209.985119 
L 1287.484395 202.846242 
L 1287.947573 198.195485 
L 1288.410751 191.745707 
L 1288.873929 189.998631 
L 1289.800286 206.940722 
L 1290.263464 211.916302 
L 1290.726642 207.460175 
L 1291.18982 214.218995 
L 1291.652998 223.171357 
L 1292.116176 222.802479 
L 1293.042533 202.622676 
L 1293.505711 188.214074 
L 1293.968889 200.022776 
L 1294.432067 192.100115 
L 1294.895245 168.159861 
L 1295.358424 167.0335 
L 1296.28478 189.704051 
L 1296.747958 192.138909 
L 1297.211136 195.178701 
L 1298.137493 228.517127 
L 1298.600671 232.751006 
L 1299.527027 203.118455 
L 1299.990205 207.667952 
L 1300.453383 204.158678 
L 1300.916562 197.53531 
L 1301.37974 200.71713 
L 1301.842918 207.233976 
L 1305.085165 222.977378 
L 1305.548343 236.41677 
L 1306.011521 239.183027 
L 1306.937878 246.083217 
L 1307.401056 243.804852 
L 1308.327412 231.704861 
L 1309.253769 237.942253 
L 1309.716947 233.401962 
L 1310.180125 230.450279 
L 1310.643303 230.044579 
L 1311.106481 229.996579 
L 1311.569659 230.137949 
L 1312.032838 227.349335 
L 1312.496016 215.313125 
L 1312.959194 211.719687 
L 1313.422372 196.69037 
L 1313.88555 186.747757 
L 1314.348728 180.392664 
L 1314.811907 172.017619 
L 1315.275085 157.956195 
L 1315.738263 156.91926 
L 1316.201441 152.342146 
L 1316.664619 162.246622 
L 1317.127797 165.260112 
L 1318.517332 183.71651 
L 1318.98051 193.757753 
L 1319.443688 198.265167 
L 1319.906866 193.509203 
L 1320.370044 200.094433 
L 1320.833223 210.267184 
L 1321.296401 216.236959 
L 1321.759579 241.443629 
L 1322.222757 235.772375 
L 1322.685935 233.15209 
L 1323.149113 232.378169 
L 1323.612292 229.468569 
L 1324.07547 220.66744 
L 1324.538648 223.365313 
L 1325.001826 201.339805 
L 1325.465004 204.405898 
L 1326.391361 219.459544 
L 1326.854539 221.910183 
L 1327.780895 193.377034 
L 1328.244073 192.766182 
L 1328.707251 186.06917 
L 1329.17043 173.933015 
L 1329.633608 171.423197 
L 1330.096786 168.234801 
L 1330.559964 171.853225 
L 1331.023142 173.383313 
L 1331.48632 176.817627 
L 1331.949499 198.189542 
L 1332.412677 209.135556 
L 1332.875855 203.832522 
L 1333.339033 209.260487 
L 1334.265389 226.665484 
L 1334.728568 221.872698 
L 1335.191746 199.215955 
L 1335.654924 189.452192 
L 1336.118102 193.649249 
L 1336.58128 199.89256 
L 1337.044458 199.165982 
L 1337.970815 196.460875 
L 1338.433993 199.684777 
L 1339.360349 204.13367 
L 1340.286706 175.663645 
L 1340.749884 163.890449 
L 1341.213062 164.94185 
L 1341.67624 161.185343 
L 1342.139418 159.527692 
L 1343.065775 139.837097 
L 1343.528953 149.357571 
L 1343.992131 153.575669 
L 1344.918487 167.698242 
L 1345.381665 161.558821 
L 1345.844844 164.493407 
L 1346.308022 181.083716 
L 1346.7712 178.726447 
L 1347.697556 152.20273 
L 1348.160734 151.113191 
L 1348.623913 153.274514 
L 1349.087091 143.973657 
L 1349.550269 139.701641 
L 1350.013447 131.032019 
L 1350.476625 140.662959 
L 1350.939803 136.943273 
L 1351.402982 129.68867 
L 1351.86616 126.147835 
L 1352.329338 136.809793 
L 1352.792516 134.778661 
L 1353.255694 139.485967 
L 1353.718872 131.44232 
L 1354.182051 136.701956 
L 1354.645229 134.94436 
L 1355.108407 134.454494 
L 1356.034763 112.912276 
L 1356.497941 110.018456 
L 1357.424298 134.051423 
L 1357.887476 138.995441 
L 1358.350654 151.082939 
L 1359.27701 166.057679 
L 1359.740189 169.234239 
L 1360.203367 154.17862 
L 1360.666545 126.877038 
L 1361.129723 116.881822 
L 1361.592901 99.985101 
L 1362.056079 96.223333 
L 1362.519258 104.428733 
L 1362.982436 98.147285 
L 1363.445614 105.500518 
L 1363.908792 124.079217 
L 1364.37197 131.290422 
L 1364.835148 147.917553 
L 1365.298327 146.375629 
L 1365.761505 129.373702 
L 1366.224683 118.768292 
L 1367.151039 128.198683 
L 1368.077396 101.869597 
L 1368.540574 107.855154 
L 1369.003752 112.246841 
L 1369.46693 126.259606 
L 1369.930108 134.780624 
L 1370.393286 131.892065 
L 1370.856465 139.545134 
L 1371.319643 139.23938 
L 1371.782821 143.241805 
L 1372.245999 143.877643 
L 1372.709177 143.855944 
L 1373.172355 128.905531 
L 1373.635534 129.930631 
L 1374.098712 127.804814 
L 1374.56189 131.133923 
L 1375.025068 126.157027 
L 1375.488246 139.002006 
L 1375.951424 145.508332 
L 1376.414603 147.706477 
L 1376.877781 148.494863 
L 1377.340959 157.573472 
L 1377.804137 147.941217 
L 1378.267315 141.796536 
L 1378.730493 132.632446 
L 1379.193672 132.547624 
L 1380.120028 107.570433 
L 1380.583206 91.778374 
L 1381.046384 102.124714 
L 1381.509562 102.318687 
L 1381.972741 113.275221 
L 1382.435919 108.287805 
L 1382.899097 136.245608 
L 1383.362275 134.956178 
L 1383.825453 150.931033 
L 1384.288631 153.239644 
L 1384.75181 163.249325 
L 1385.214988 152.401941 
L 1385.678166 158.818842 
L 1386.141344 145.414956 
L 1386.604522 152.24742 
L 1387.0677 141.699873 
L 1387.530879 135.018642 
L 1387.994057 138.973725 
L 1388.457235 131.471888 
L 1388.920413 120.508778 
L 1389.383591 126.878336 
L 1389.846769 128.482068 
L 1390.773126 133.583237 
L 1391.236304 122.551743 
L 1391.699482 127.721954 
L 1392.16266 141.38754 
L 1392.625838 142.880805 
L 1393.089017 162.480002 
L 1393.552195 170.880033 
L 1394.015373 171.347542 
L 1394.478551 173.209028 
L 1394.941729 176.822192 
L 1395.404907 164.817544 
L 1395.868086 167.773171 
L 1396.331264 146.626132 
L 1396.794442 138.682431 
L 1397.25762 136.209435 
L 1397.720798 143.162886 
L 1398.183976 134.945649 
L 1398.647155 146.501857 
L 1399.110333 145.44388 
L 1399.573511 160.577087 
L 1400.036689 145.000699 
L 1400.499867 154.721064 
L 1400.963045 145.451769 
L 1401.426224 154.551419 
L 1401.889402 157.638554 
L 1402.35258 143.666556 
L 1402.815758 135.680772 
L 1403.278936 141.803096 
L 1403.742114 135.316496 
L 1404.205293 154.894652 
L 1404.668471 154.441609 
L 1405.131649 144.062391 
L 1405.594827 154.834815 
L 1406.058005 155.944079 
L 1406.984362 179.603565 
L 1407.910718 131.959769 
L 1408.373896 129.539376 
L 1408.837074 124.420452 
L 1409.300252 104.961968 
L 1409.763431 93.940995 
L 1410.226609 77.70181 
L 1410.689787 86.848803 
L 1411.152965 117.505137 
L 1411.616143 131.83352 
L 1412.079321 137.056334 
L 1412.5425 160.22201 
L 1413.005678 170.152786 
L 1413.468856 184.702101 
L 1414.85839 192.175005 
L 1415.321568 195.661922 
L 1415.784747 200.60068 
L 1416.711103 235.327824 
L 1417.174281 250.781909 
L 1417.637459 237.351721 
L 1418.100637 218.582335 
L 1418.563816 206.304152 
L 1419.026994 200.959036 
L 1419.490172 182.273814 
L 1419.95335 157.939038 
L 1420.416528 142.025991 
L 1420.879706 139.232117 
L 1421.342885 145.14929 
L 1421.806063 147.862944 
L 1422.269241 143.732955 
L 1422.732419 144.384574 
L 1423.195597 147.12979 
L 1423.658775 146.650445 
L 1424.121954 159.374438 
L 1424.585132 160.494223 
L 1425.04831 169.120447 
L 1425.511488 174.574713 
L 1425.974666 161.602171 
L 1426.437844 162.117022 
L 1426.901023 164.741251 
L 1427.364201 154.383075 
L 1428.290557 153.177152 
L 1428.753735 150.59369 
L 1429.216913 168.972498 
L 1429.680092 180.034238 
L 1430.14327 182.090355 
L 1430.606448 186.466262 
L 1431.069626 188.290926 
L 1431.532804 201.39892 
L 1431.995982 195.548816 
L 1432.459161 214.527298 
L 1432.922339 221.50179 
L 1433.385517 219.107698 
L 1433.848695 211.679506 
L 1434.311873 207.223379 
L 1434.775051 187.012673 
L 1435.23823 193.666286 
L 1436.164586 148.578993 
L 1436.627764 144.790924 
L 1437.090942 147.536139 
L 1437.55412 153.379668 
L 1438.017299 156.908667 
L 1438.480477 156.408281 
L 1439.406833 172.919028 
L 1439.870011 171.413926 
L 1440.333189 169.193424 
L 1440.796368 161.754711 
L 1441.259546 162.627262 
L 1442.185902 151.816043 
L 1442.64908 157.244008 
L 1443.112258 159.736729 
L 1443.575437 147.295477 
L 1444.038615 151.555657 
L 1444.501793 149.024798 
L 1444.964971 148.403425 
L 1445.428149 151.048695 
L 1445.891327 149.796088 
L 1446.354506 151.373518 
L 1446.817684 170.956934 
L 1447.280862 173.123517 
L 1447.74404 166.810507 
L 1448.207218 177.272573 
L 1448.670396 178.055699 
L 1449.133575 175.819416 
L 1449.596753 175.13492 
L 1450.059931 178.805948 
L 1450.523109 180.530666 
L 1450.986287 193.764908 
L 1451.449465 188.535518 
L 1451.912644 186.262413 
L 1452.375822 189.417931 
L 1452.839 202.389158 
L 1453.765356 208.563427 
L 1454.228534 204.422918 
L 1454.691713 216.752389 
L 1455.154891 221.012569 
L 1456.081247 215.319616 
L 1456.544425 229.237695 
L 1457.007603 225.570613 
L 1457.470782 237.374054 
L 1457.93396 226.963275 
L 1458.397138 220.161057 
L 1459.323494 217.650582 
L 1459.786672 201.606028 
L 1460.249851 205.566371 
L 1460.713029 195.823649 
L 1461.639385 189.804558 
L 1462.102563 194.28567 
L 1462.565741 190.865821 
L 1463.02892 197.088091 
L 1463.492098 213.836209 
L 1463.955276 221.299908 
L 1464.418454 223.256079 
L 1464.881632 237.032131 
L 1465.34481 240.114005 
L 1465.807989 250.518208 
L 1466.271167 243.584483 
L 1466.734345 225.072852 
L 1467.197523 214.07292 
L 1467.660701 216.418353 
L 1468.123879 212.120035 
L 1469.050236 193.008072 
L 1469.513414 193.812239 
L 1469.976592 201.933475 
L 1470.43977 199.933906 
L 1470.902948 196.556139 
L 1471.829305 192.341328 
L 1472.292483 194.681501 
L 1472.755661 199.351984 
L 1473.218839 196.800084 
L 1474.145196 207.019519 
L 1474.608374 206.797929 
L 1475.071552 199.238229 
L 1475.53473 188.233037 
L 1475.997908 173.04065 
L 1476.461086 161.788224 
L 1476.924265 159.956984 
L 1477.850621 141.160639 
L 1478.313799 138.303642 
L 1479.240155 134.599079 
L 1479.703334 138.701451 
L 1480.62969 123.56627 
L 1481.092868 125.343591 
L 1481.556046 128.341301 
L 1482.019224 142.995821 
L 1482.482403 152.516295 
L 1482.945581 146.65567 
L 1483.408759 142.373133 
L 1483.871937 147.722194 
L 1484.335115 148.031894 
L 1484.798293 149.872339 
L 1485.261472 142.202173 
L 1485.72465 142.853791 
L 1486.187828 145.414897 
L 1486.651006 154.619753 
L 1487.114184 150.158366 
L 1487.577362 149.437048 
L 1488.040541 155.17011 
L 1488.503719 159.098892 
L 1489.893253 144.420699 
L 1490.356431 145.498401 
L 1490.81961 143.582997 
L 1491.282788 151.935685 
L 1491.745966 151.051298 
L 1492.209144 152.728674 
L 1493.1355 183.068733 
L 1494.061857 233.545196 
L 1495.451391 280.075781 
L 1496.377748 303.24606 
L 1496.840926 287.790659 
L 1497.304104 286.038323 
L 1497.767282 278.762679 
L 1498.23046 278.783063 
L 1498.693638 276.273245 
L 1499.156817 280.102081 
L 1499.619995 267.902802 
L 1500.083173 275.571652 
L 1501.009529 249.226785 
L 1501.472707 248.137247 
L 1501.935886 233.228916 
L 1502.399064 205.916813 
L 1502.862242 192.975833 
L 1503.32542 185.931642 
L 1503.788598 177.104211 
L 1504.251776 181.085596 
L 1504.714955 174.157131 
L 1505.641311 190.930892 
L 1506.104489 192.1138 
L 1506.567667 187.031699 
L 1507.030845 198.871962 
L 1507.494024 199.949665 
L 1507.957202 199.438758 
L 1508.42038 184.819744 
L 1508.883558 181.599786 
L 1509.346736 183.603301 
L 1509.809914 191.07752 
L 1510.273093 191.287274 
L 1510.736271 183.890643 
L 1511.199449 170.660347 
L 1511.662627 173.54233 
L 1512.125805 154.288997 
L 1512.588983 153.23102 
L 1513.052161 156.854705 
L 1513.51534 152.388057 
L 1513.978518 157.852845 
L 1514.441696 160.897897 
L 1515.368052 187.045502 
L 1516.294409 156.376673 
L 1516.757587 148.012149 
L 1517.220765 142.745937 
L 1517.683943 147.78464 
L 1518.147121 135.522238 
L 1518.610299 137.257477 
L 1519.073478 154.010855 
L 1519.536656 147.634721 
L 1519.999834 149.817085 
L 1520.463012 128.464895 
L 1520.92619 121.652157 
L 1521.389368 125.691404 
L 1521.852547 119.904423 
L 1522.315725 119.756477 
L 1523.705259 102.259237 
L 1524.168437 112.584442 
L 1524.631616 109.35913 
L 1525.094794 101.436376 
L 1525.557972 96.012261 
L 1526.02115 88.215754 
L 1526.484328 123.311776 
L 1526.947506 118.87669 
L 1527.410685 137.360705 
L 1527.873863 139.469425 
L 1528.337041 135.802342 
L 1528.800219 135.643876 
L 1529.263397 131.02994 
L 1529.726575 121.544973 
L 1530.189754 115.18988 
L 1530.652932 94.642515 
L 1531.11611 90.559869 
L 1531.579288 95.051502 
L 1532.042466 94.772049 
L 1532.505644 95.786628 
L 1532.968823 80.247062 
L 1533.432001 87.184732 
L 1533.895179 91.376528 
L 1534.358357 100.513001 
L 1534.821535 99.081543 
L 1535.284713 101.064016 
L 1535.747892 105.071702 
L 1536.21107 111.572767 
L 1537.137426 107.00082 
L 1537.600604 98.157514 
L 1538.063782 76.97356 
L 1538.526961 79.129528 
L 1538.990139 73.736975 
L 1539.453317 72.095012 
L 1539.916495 62.872965 
L 1540.379673 71.904232 
L 1540.842851 68.500164 
L 1541.30603 67.379064 
L 1542.232386 82.81145 
L 1542.695564 81.969145 
L 1543.158742 78.659762 
L 1543.62192 82.009912 
L 1544.548277 117.278866 
L 1545.011455 112.4703 
L 1545.474633 114.142415 
L 1546.400989 167.443656 
L 1546.864168 167.001134 
L 1547.327346 158.783897 
L 1547.790524 166.726283 
L 1548.253702 158.40384 
L 1548.71688 161.385769 
L 1549.180058 142.963562 
L 1549.643237 137.665789 
L 1550.106415 135.776686 
L 1550.569593 141.01002 
L 1551.032771 133.63443 
L 1551.495949 157.794302 
L 1551.959127 156.457529 
L 1552.422306 161.727686 
L 1552.885484 161.22204 
L 1554.275018 179.673177 
L 1554.738196 171.014076 
L 1555.201375 168.1939 
L 1556.127731 190.143791 
L 1556.590909 184.293686 
L 1556.590909 184.293686 
" clip-path="url(#pf4f0908415)" style="fill: none; stroke: #8f93f4; stroke-width: 2.5; stroke-linecap: square"/>
   </g>
   <g id="patch_3">
    <path d="M 225 320.4 
L 225 43.2 
" style="fill: none; stroke: #000000; stroke-width: 0.8; stroke-linejoin: miter; stroke-linecap: square"/>
   </g>
   <g id="patch_4">
    <path d="M 1620 320.4 
L 1620 43.2 
" style="fill: none; stroke: #000000; stroke-width: 0.8; stroke-linejoin: miter; stroke-linecap: square"/>
   </g>
   <g id="patch_5">
    <path d="M 225 320.4 
L 1620 320.4 
" style="fill: none; stroke: #000000; stroke-width: 0.8; stroke-linejoin: miter; stroke-linecap: square"/>
   </g>
   <g id="patch_6">
    <path d="M 225 43.2 
L 1620 43.2 
" style="fill: none; stroke: #000000; stroke-width: 0.8; stroke-linejoin: miter; stroke-linecap: square"/>
   </g>
   <g id="text_18">
    <!-- ROVE -->
    <g transform="translate(894.695312 37.2) scale(0.2 -0.2)">
     <defs>
      <path id="DejaVuSans-52" d="M 2841 2188 
Q 3044 2119 3236 1894 
Q 3428 1669 3622 1275 
L 4263 0 
L 3584 0 
L 2988 1197 
Q 2756 1666 2539 1819 
Q 2322 1972 1947 1972 
L 1259 1972 
L 1259 0 
L 628 0 
L 628 4666 
L 2053 4666 
Q 2853 4666 3247 4331 
Q 3641 3997 3641 3322 
Q 3641 2881 3436 2590 
Q 3231 2300 2841 2188 
z
M 1259 4147 
L 1259 2491 
L 2053 2491 
Q 2509 2491 2742 2702 
Q 2975 2913 2975 3322 
Q 2975 3731 2742 3939 
Q 2509 4147 2053 4147 
L 1259 4147 
z
" transform="scale(0.015625)"/>
      <path id="DejaVuSans-4f" d="M 2522 4238 
Q 1834 4238 1429 3725 
Q 1025 3213 1025 2328 
Q 1025 1447 1429 934 
Q 1834 422 2522 422 
Q 3209 422 3611 934 
Q 4013 1447 4013 2328 
Q 4013 3213 3611 3725 
Q 3209 4238 2522 4238 
z
M 2522 4750 
Q 3503 4750 4090 4092 
Q 4678 3434 4678 2328 
Q 4678 1225 4090 567 
Q 3503 -91 2522 -91 
Q 1538 -91 948 565 
Q 359 1222 359 2328 
Q 359 3434 948 4092 
Q 1538 4750 2522 4750 
z
" transform="scale(0.015625)"/>
      <path id="DejaVuSans-56" d="M 1831 0 
L 50 4666 
L 709 4666 
L 2188 738 
L 3669 4666 
L 4325 4666 
L 2547 0 
L 1831 0 
z
" transform="scale(0.015625)"/>
      <path id="DejaVuSans-45" d="M 628 4666 
L 3578 4666 
L 3578 4134 
L 1259 4134 
L 1259 2753 
L 3481 2753 
L 3481 2222 
L 1259 2222 
L 1259 531 
L 3634 531 
L 3634 0 
L 628 0 
L 628 4666 
z
" transform="scale(0.015625)"/>
     </defs>
     <use xlink:href="#DejaVuSans-52"/>
     <use xlink:href="#DejaVuSans-4f" x="69.482422"/>
     <use xlink:href="#DejaVuSans-56" x="146.443359"/>
     <use xlink:href="#DejaVuSans-45" x="214.851562"/>
    </g>
   </g>
   <g id="legend_1">
    <g id="patch_7">
     <path d="M 1558.923438 65.878125 
L 1613 65.878125 
Q 1615 65.878125 1615 63.878125 
L 1615 50.2 
Q 1615 48.2 1613 48.2 
L 1558.923438 48.2 
Q 1556.923438 48.2 1556.923438 50.2 
L 1556.923438 63.878125 
Q 1556.923438 65.878125 1558.923438 65.878125 
z
" style="fill: #ffffff; opacity: 0.8; stroke: #cccccc; stroke-linejoin: miter"/>
    </g>
    <g id="line2d_17">
     <path d="M 1560.923438 56.298437 
L 1570.923438 56.298437 
L 1580.923438 56.298437 
" style="fill: none; stroke: #8f93f4; stroke-width: 2.5; stroke-linecap: square"/>
    </g>
    <g id="text_19">
     <!-- rove -->
     <g transform="translate(1588.923438 59.798437) scale(0.1 -0.1)">
      <defs>
       <path id="DejaVuSans-76" d="M 191 3500 
L 800 3500 
L 1894 563 
L 2988 3500 
L 3597 3500 
L 2284 0 
L 1503 0 
L 191 3500 
z
" transform="scale(0.015625)"/>
      </defs>
      <use xlink:href="#DejaVuSans-72"/>
      <use xlink:href="#DejaVuSans-6f" x="38.863281"/>
      <use xlink:href="#DejaVuSans-76" x="100.044922"/>
      <use xlink:href="#DejaVuSans-65" x="159.224609"/>
     </g>
    </g>
   </g>
  </g>
 </g>
 <defs>
  <clipPath id="pf4f0908415">
   <rect x="225" y="43.2" width="1395" height="277.2"/>
  </clipPath>
 </defs>
</svg>
