<?xml version="1.0" encoding="utf-8" standalone="no"?>
<!DOCTYPE svg PUBLIC "-//W3C//DTD SVG 1.1//EN"
  "http://www.w3.org/Graphics/SVG/1.1/DTD/svg11.dtd">
<svg xmlns:xlink="http://www.w3.org/1999/xlink" width="1800pt" height="360pt" viewBox="0 0 1800 360" xmlns="http://www.w3.org/2000/svg" version="1.1">
 <metadata>
  <rdf:RDF xmlns:dc="http://purl.org/dc/elements/1.1/" xmlns:cc="http://creativecommons.org/ns#" xmlns:rdf="http://www.w3.org/1999/02/22-rdf-syntax-ns#">
   <cc:Work>
    <dc:type rdf:resource="http://purl.org/dc/dcmitype/StillImage"/>
    <dc:date>2024-03-25T15:23:13.929260</dc:date>
    <dc:format>image/svg+xml</dc:format>
    <dc:creator>
     <cc:Agent>
      <dc:title>Matplotlib v3.7.2, https://matplotlib.org/</dc:title>
     </cc:Agent>
    </dc:creator>
   </cc:Work>
  </rdf:RDF>
 </metadata>
 <defs>
  <style type="text/css">*{stroke-linejoin: round; stroke-linecap: butt}</style>
 </defs>
 <g id="figure_1">
  <g id="patch_1">
   <path d="M 0 360 
L 1800 360 
L 1800 0 
L 0 0 
z
" style="fill: #ffffff"/>
  </g>
  <g id="axes_1">
   <g id="patch_2">
    <path d="M 225 320.4 
L 1620 320.4 
L 1620 43.2 
L 225 43.2 
z
" style="fill: #ffffff"/>
   </g>
   <g id="matplotlib.axis_1">
    <g id="xtick_1">
     <g id="line2d_1">
      <defs>
       <path id="mb39035f3ac" d="M 0 0 
L 0 3.5 
" style="stroke: #000000; stroke-width: 0.8"/>
      </defs>
      <g>
       <use xlink:href="#mb39035f3ac" x="281.924597" y="320.4" style="stroke: #000000; stroke-width: 0.8"/>
      </g>
     </g>
     <g id="text_1">
      <!-- 2011 -->
      <g transform="translate(262.837097 338.797656) scale(0.15 -0.15)">
       <defs>
        <path id="DejaVuSans-32" d="M 1228 531 
L 3431 531 
L 3431 0 
L 469 0 
L 469 531 
Q 828 903 1448 1529 
Q 2069 2156 2228 2338 
Q 2531 2678 2651 2914 
Q 2772 3150 2772 3378 
Q 2772 3750 2511 3984 
Q 2250 4219 1831 4219 
Q 1534 4219 1204 4116 
Q 875 4013 500 3803 
L 500 4441 
Q 881 4594 1212 4672 
Q 1544 4750 1819 4750 
Q 2544 4750 2975 4387 
Q 3406 4025 3406 3419 
Q 3406 3131 3298 2873 
Q 3191 2616 2906 2266 
Q 2828 2175 2409 1742 
Q 1991 1309 1228 531 
z
" transform="scale(0.015625)"/>
        <path id="DejaVuSans-30" d="M 2034 4250 
Q 1547 4250 1301 3770 
Q 1056 3291 1056 2328 
Q 1056 1369 1301 889 
Q 1547 409 2034 409 
Q 2525 409 2770 889 
Q 3016 1369 3016 2328 
Q 3016 3291 2770 3770 
Q 2525 4250 2034 4250 
z
M 2034 4750 
Q 2819 4750 3233 4129 
Q 3647 3509 3647 2328 
Q 3647 1150 3233 529 
Q 2819 -91 2034 -91 
Q 1250 -91 836 529 
Q 422 1150 422 2328 
Q 422 3509 836 4129 
Q 1250 4750 2034 4750 
z
" transform="scale(0.015625)"/>
        <path id="DejaVuSans-31" d="M 794 531 
L 1825 531 
L 1825 4091 
L 703 3866 
L 703 4441 
L 1819 4666 
L 2450 4666 
L 2450 531 
L 3481 531 
L 3481 0 
L 794 0 
L 794 531 
z
" transform="scale(0.015625)"/>
       </defs>
       <use xlink:href="#DejaVuSans-32"/>
       <use xlink:href="#DejaVuSans-30" x="63.623047"/>
       <use xlink:href="#DejaVuSans-31" x="127.246094"/>
       <use xlink:href="#DejaVuSans-31" x="190.869141"/>
      </g>
     </g>
    </g>
    <g id="xtick_2">
     <g id="line2d_2">
      <g>
       <use xlink:href="#mb39035f3ac" x="450.984627" y="320.4" style="stroke: #000000; stroke-width: 0.8"/>
      </g>
     </g>
     <g id="text_2">
      <!-- 2012 -->
      <g transform="translate(431.897127 338.797656) scale(0.15 -0.15)">
       <use xlink:href="#DejaVuSans-32"/>
       <use xlink:href="#DejaVuSans-30" x="63.623047"/>
       <use xlink:href="#DejaVuSans-31" x="127.246094"/>
       <use xlink:href="#DejaVuSans-32" x="190.869141"/>
      </g>
     </g>
    </g>
    <g id="xtick_3">
     <g id="line2d_3">
      <g>
       <use xlink:href="#mb39035f3ac" x="620.507836" y="320.4" style="stroke: #000000; stroke-width: 0.8"/>
      </g>
     </g>
     <g id="text_3">
      <!-- 2013 -->
      <g transform="translate(601.420336 338.797656) scale(0.15 -0.15)">
       <defs>
        <path id="DejaVuSans-33" d="M 2597 2516 
Q 3050 2419 3304 2112 
Q 3559 1806 3559 1356 
Q 3559 666 3084 287 
Q 2609 -91 1734 -91 
Q 1441 -91 1130 -33 
Q 819 25 488 141 
L 488 750 
Q 750 597 1062 519 
Q 1375 441 1716 441 
Q 2309 441 2620 675 
Q 2931 909 2931 1356 
Q 2931 1769 2642 2001 
Q 2353 2234 1838 2234 
L 1294 2234 
L 1294 2753 
L 1863 2753 
Q 2328 2753 2575 2939 
Q 2822 3125 2822 3475 
Q 2822 3834 2567 4026 
Q 2313 4219 1838 4219 
Q 1578 4219 1281 4162 
Q 984 4106 628 3988 
L 628 4550 
Q 988 4650 1302 4700 
Q 1616 4750 1894 4750 
Q 2613 4750 3031 4423 
Q 3450 4097 3450 3541 
Q 3450 3153 3228 2886 
Q 3006 2619 2597 2516 
z
" transform="scale(0.015625)"/>
       </defs>
       <use xlink:href="#DejaVuSans-32"/>
       <use xlink:href="#DejaVuSans-30" x="63.623047"/>
       <use xlink:href="#DejaVuSans-31" x="127.246094"/>
       <use xlink:href="#DejaVuSans-33" x="190.869141"/>
      </g>
     </g>
    </g>
    <g id="xtick_4">
     <g id="line2d_4">
      <g>
       <use xlink:href="#mb39035f3ac" x="789.567866" y="320.4" style="stroke: #000000; stroke-width: 0.8"/>
      </g>
     </g>
     <g id="text_4">
      <!-- 2014 -->
      <g transform="translate(770.480366 338.797656) scale(0.15 -0.15)">
       <defs>
        <path id="DejaVuSans-34" d="M 2419 4116 
L 825 1625 
L 2419 1625 
L 2419 4116 
z
M 2253 4666 
L 3047 4666 
L 3047 1625 
L 3713 1625 
L 3713 1100 
L 3047 1100 
L 3047 0 
L 2419 0 
L 2419 1100 
L 313 1100 
L 313 1709 
L 2253 4666 
z
" transform="scale(0.015625)"/>
       </defs>
       <use xlink:href="#DejaVuSans-32"/>
       <use xlink:href="#DejaVuSans-30" x="63.623047"/>
       <use xlink:href="#DejaVuSans-31" x="127.246094"/>
       <use xlink:href="#DejaVuSans-34" x="190.869141"/>
      </g>
     </g>
    </g>
    <g id="xtick_5">
     <g id="line2d_5">
      <g>
       <use xlink:href="#mb39035f3ac" x="958.627897" y="320.4" style="stroke: #000000; stroke-width: 0.8"/>
      </g>
     </g>
     <g id="text_5">
      <!-- 2015 -->
      <g transform="translate(939.540397 338.797656) scale(0.15 -0.15)">
       <defs>
        <path id="DejaVuSans-35" d="M 691 4666 
L 3169 4666 
L 3169 4134 
L 1269 4134 
L 1269 2991 
Q 1406 3038 1543 3061 
Q 1681 3084 1819 3084 
Q 2600 3084 3056 2656 
Q 3513 2228 3513 1497 
Q 3513 744 3044 326 
Q 2575 -91 1722 -91 
Q 1428 -91 1123 -41 
Q 819 9 494 109 
L 494 744 
Q 775 591 1075 516 
Q 1375 441 1709 441 
Q 2250 441 2565 725 
Q 2881 1009 2881 1497 
Q 2881 1984 2565 2268 
Q 2250 2553 1709 2553 
Q 1456 2553 1204 2497 
Q 953 2441 691 2322 
L 691 4666 
z
" transform="scale(0.015625)"/>
       </defs>
       <use xlink:href="#DejaVuSans-32"/>
       <use xlink:href="#DejaVuSans-30" x="63.623047"/>
       <use xlink:href="#DejaVuSans-31" x="127.246094"/>
       <use xlink:href="#DejaVuSans-35" x="190.869141"/>
      </g>
     </g>
    </g>
    <g id="xtick_6">
     <g id="line2d_6">
      <g>
       <use xlink:href="#mb39035f3ac" x="1127.687927" y="320.4" style="stroke: #000000; stroke-width: 0.8"/>
      </g>
     </g>
     <g id="text_6">
      <!-- 2016 -->
      <g transform="translate(1108.600427 338.797656) scale(0.15 -0.15)">
       <defs>
        <path id="DejaVuSans-36" d="M 2113 2584 
Q 1688 2584 1439 2293 
Q 1191 2003 1191 1497 
Q 1191 994 1439 701 
Q 1688 409 2113 409 
Q 2538 409 2786 701 
Q 3034 994 3034 1497 
Q 3034 2003 2786 2293 
Q 2538 2584 2113 2584 
z
M 3366 4563 
L 3366 3988 
Q 3128 4100 2886 4159 
Q 2644 4219 2406 4219 
Q 1781 4219 1451 3797 
Q 1122 3375 1075 2522 
Q 1259 2794 1537 2939 
Q 1816 3084 2150 3084 
Q 2853 3084 3261 2657 
Q 3669 2231 3669 1497 
Q 3669 778 3244 343 
Q 2819 -91 2113 -91 
Q 1303 -91 875 529 
Q 447 1150 447 2328 
Q 447 3434 972 4092 
Q 1497 4750 2381 4750 
Q 2619 4750 2861 4703 
Q 3103 4656 3366 4563 
z
" transform="scale(0.015625)"/>
       </defs>
       <use xlink:href="#DejaVuSans-32"/>
       <use xlink:href="#DejaVuSans-30" x="63.623047"/>
       <use xlink:href="#DejaVuSans-31" x="127.246094"/>
       <use xlink:href="#DejaVuSans-36" x="190.869141"/>
      </g>
     </g>
    </g>
    <g id="xtick_7">
     <g id="line2d_7">
      <g>
       <use xlink:href="#mb39035f3ac" x="1297.211136" y="320.4" style="stroke: #000000; stroke-width: 0.8"/>
      </g>
     </g>
     <g id="text_7">
      <!-- 2017 -->
      <g transform="translate(1278.123636 338.797656) scale(0.15 -0.15)">
       <defs>
        <path id="DejaVuSans-37" d="M 525 4666 
L 3525 4666 
L 3525 4397 
L 1831 0 
L 1172 0 
L 2766 4134 
L 525 4134 
L 525 4666 
z
" transform="scale(0.015625)"/>
       </defs>
       <use xlink:href="#DejaVuSans-32"/>
       <use xlink:href="#DejaVuSans-30" x="63.623047"/>
       <use xlink:href="#DejaVuSans-31" x="127.246094"/>
       <use xlink:href="#DejaVuSans-37" x="190.869141"/>
      </g>
     </g>
    </g>
    <g id="xtick_8">
     <g id="line2d_8">
      <g>
       <use xlink:href="#mb39035f3ac" x="1466.271167" y="320.4" style="stroke: #000000; stroke-width: 0.8"/>
      </g>
     </g>
     <g id="text_8">
      <!-- 2018 -->
      <g transform="translate(1447.183667 338.797656) scale(0.15 -0.15)">
       <defs>
        <path id="DejaVuSans-38" d="M 2034 2216 
Q 1584 2216 1326 1975 
Q 1069 1734 1069 1313 
Q 1069 891 1326 650 
Q 1584 409 2034 409 
Q 2484 409 2743 651 
Q 3003 894 3003 1313 
Q 3003 1734 2745 1975 
Q 2488 2216 2034 2216 
z
M 1403 2484 
Q 997 2584 770 2862 
Q 544 3141 544 3541 
Q 544 4100 942 4425 
Q 1341 4750 2034 4750 
Q 2731 4750 3128 4425 
Q 3525 4100 3525 3541 
Q 3525 3141 3298 2862 
Q 3072 2584 2669 2484 
Q 3125 2378 3379 2068 
Q 3634 1759 3634 1313 
Q 3634 634 3220 271 
Q 2806 -91 2034 -91 
Q 1263 -91 848 271 
Q 434 634 434 1313 
Q 434 1759 690 2068 
Q 947 2378 1403 2484 
z
M 1172 3481 
Q 1172 3119 1398 2916 
Q 1625 2713 2034 2713 
Q 2441 2713 2670 2916 
Q 2900 3119 2900 3481 
Q 2900 3844 2670 4047 
Q 2441 4250 2034 4250 
Q 1625 4250 1398 4047 
Q 1172 3844 1172 3481 
z
" transform="scale(0.015625)"/>
       </defs>
       <use xlink:href="#DejaVuSans-32"/>
       <use xlink:href="#DejaVuSans-30" x="63.623047"/>
       <use xlink:href="#DejaVuSans-31" x="127.246094"/>
       <use xlink:href="#DejaVuSans-38" x="190.869141"/>
      </g>
     </g>
    </g>
    <g id="text_9">
     <!-- Time -->
     <g transform="translate(904.149609 357.314844) scale(0.15 -0.15)">
      <defs>
       <path id="DejaVuSans-54" d="M -19 4666 
L 3928 4666 
L 3928 4134 
L 2272 4134 
L 2272 0 
L 1638 0 
L 1638 4134 
L -19 4134 
L -19 4666 
z
" transform="scale(0.015625)"/>
       <path id="DejaVuSans-69" d="M 603 3500 
L 1178 3500 
L 1178 0 
L 603 0 
L 603 3500 
z
M 603 4863 
L 1178 4863 
L 1178 4134 
L 603 4134 
L 603 4863 
z
" transform="scale(0.015625)"/>
       <path id="DejaVuSans-6d" d="M 3328 2828 
Q 3544 3216 3844 3400 
Q 4144 3584 4550 3584 
Q 5097 3584 5394 3201 
Q 5691 2819 5691 2113 
L 5691 0 
L 5113 0 
L 5113 2094 
Q 5113 2597 4934 2840 
Q 4756 3084 4391 3084 
Q 3944 3084 3684 2787 
Q 3425 2491 3425 1978 
L 3425 0 
L 2847 0 
L 2847 2094 
Q 2847 2600 2669 2842 
Q 2491 3084 2119 3084 
Q 1678 3084 1418 2786 
Q 1159 2488 1159 1978 
L 1159 0 
L 581 0 
L 581 3500 
L 1159 3500 
L 1159 2956 
Q 1356 3278 1631 3431 
Q 1906 3584 2284 3584 
Q 2666 3584 2933 3390 
Q 3200 3197 3328 2828 
z
" transform="scale(0.015625)"/>
       <path id="DejaVuSans-65" d="M 3597 1894 
L 3597 1613 
L 953 1613 
Q 991 1019 1311 708 
Q 1631 397 2203 397 
Q 2534 397 2845 478 
Q 3156 559 3463 722 
L 3463 178 
Q 3153 47 2828 -22 
Q 2503 -91 2169 -91 
Q 1331 -91 842 396 
Q 353 884 353 1716 
Q 353 2575 817 3079 
Q 1281 3584 2069 3584 
Q 2775 3584 3186 3129 
Q 3597 2675 3597 1894 
z
M 3022 2063 
Q 3016 2534 2758 2815 
Q 2500 3097 2075 3097 
Q 1594 3097 1305 2825 
Q 1016 2553 972 2059 
L 3022 2063 
z
" transform="scale(0.015625)"/>
      </defs>
      <use xlink:href="#DejaVuSans-54"/>
      <use xlink:href="#DejaVuSans-69" x="57.958984"/>
      <use xlink:href="#DejaVuSans-6d" x="85.742188"/>
      <use xlink:href="#DejaVuSans-65" x="183.154297"/>
     </g>
    </g>
   </g>
   <g id="matplotlib.axis_2">
    <g id="ytick_1">
     <g id="line2d_9">
      <defs>
       <path id="mf2f83f1290" d="M 0 0 
L -3.5 0 
" style="stroke: #000000; stroke-width: 0.8"/>
      </defs>
      <g>
       <use xlink:href="#mf2f83f1290" x="225" y="303.341217" style="stroke: #000000; stroke-width: 0.8"/>
      </g>
     </g>
     <g id="text_10">
      <!-- −0.003 -->
      <g transform="translate(162.488281 309.040045) scale(0.15 -0.15)">
       <defs>
        <path id="DejaVuSans-2212" d="M 678 2272 
L 4684 2272 
L 4684 1741 
L 678 1741 
L 678 2272 
z
" transform="scale(0.015625)"/>
        <path id="DejaVuSans-2e" d="M 684 794 
L 1344 794 
L 1344 0 
L 684 0 
L 684 794 
z
" transform="scale(0.015625)"/>
       </defs>
       <use xlink:href="#DejaVuSans-2212"/>
       <use xlink:href="#DejaVuSans-30" x="83.789062"/>
       <use xlink:href="#DejaVuSans-2e" x="147.412109"/>
       <use xlink:href="#DejaVuSans-30" x="179.199219"/>
       <use xlink:href="#DejaVuSans-30" x="242.822266"/>
       <use xlink:href="#DejaVuSans-33" x="306.445312"/>
      </g>
     </g>
    </g>
    <g id="ytick_2">
     <g id="line2d_10">
      <g>
       <use xlink:href="#mf2f83f1290" x="225" y="264.137527" style="stroke: #000000; stroke-width: 0.8"/>
      </g>
     </g>
     <g id="text_11">
      <!-- −0.002 -->
      <g transform="translate(162.488281 269.836355) scale(0.15 -0.15)">
       <use xlink:href="#DejaVuSans-2212"/>
       <use xlink:href="#DejaVuSans-30" x="83.789062"/>
       <use xlink:href="#DejaVuSans-2e" x="147.412109"/>
       <use xlink:href="#DejaVuSans-30" x="179.199219"/>
       <use xlink:href="#DejaVuSans-30" x="242.822266"/>
       <use xlink:href="#DejaVuSans-32" x="306.445312"/>
      </g>
     </g>
    </g>
    <g id="ytick_3">
     <g id="line2d_11">
      <g>
       <use xlink:href="#mf2f83f1290" x="225" y="224.933837" style="stroke: #000000; stroke-width: 0.8"/>
      </g>
     </g>
     <g id="text_12">
      <!-- −0.001 -->
      <g transform="translate(162.488281 230.632665) scale(0.15 -0.15)">
       <use xlink:href="#DejaVuSans-2212"/>
       <use xlink:href="#DejaVuSans-30" x="83.789062"/>
       <use xlink:href="#DejaVuSans-2e" x="147.412109"/>
       <use xlink:href="#DejaVuSans-30" x="179.199219"/>
       <use xlink:href="#DejaVuSans-30" x="242.822266"/>
       <use xlink:href="#DejaVuSans-31" x="306.445312"/>
      </g>
     </g>
    </g>
    <g id="ytick_4">
     <g id="line2d_12">
      <g>
       <use xlink:href="#mf2f83f1290" x="225" y="185.730148" style="stroke: #000000; stroke-width: 0.8"/>
      </g>
     </g>
     <g id="text_13">
      <!-- 0.000 -->
      <g transform="translate(175.057813 191.428976) scale(0.15 -0.15)">
       <use xlink:href="#DejaVuSans-30"/>
       <use xlink:href="#DejaVuSans-2e" x="63.623047"/>
       <use xlink:href="#DejaVuSans-30" x="95.410156"/>
       <use xlink:href="#DejaVuSans-30" x="159.033203"/>
       <use xlink:href="#DejaVuSans-30" x="222.65625"/>
      </g>
     </g>
    </g>
    <g id="ytick_5">
     <g id="line2d_13">
      <g>
       <use xlink:href="#mf2f83f1290" x="225" y="146.526458" style="stroke: #000000; stroke-width: 0.8"/>
      </g>
     </g>
     <g id="text_14">
      <!-- 0.001 -->
      <g transform="translate(175.057813 152.225286) scale(0.15 -0.15)">
       <use xlink:href="#DejaVuSans-30"/>
       <use xlink:href="#DejaVuSans-2e" x="63.623047"/>
       <use xlink:href="#DejaVuSans-30" x="95.410156"/>
       <use xlink:href="#DejaVuSans-30" x="159.033203"/>
       <use xlink:href="#DejaVuSans-31" x="222.65625"/>
      </g>
     </g>
    </g>
    <g id="ytick_6">
     <g id="line2d_14">
      <g>
       <use xlink:href="#mf2f83f1290" x="225" y="107.322768" style="stroke: #000000; stroke-width: 0.8"/>
      </g>
     </g>
     <g id="text_15">
      <!-- 0.002 -->
      <g transform="translate(175.057813 113.021596) scale(0.15 -0.15)">
       <use xlink:href="#DejaVuSans-30"/>
       <use xlink:href="#DejaVuSans-2e" x="63.623047"/>
       <use xlink:href="#DejaVuSans-30" x="95.410156"/>
       <use xlink:href="#DejaVuSans-30" x="159.033203"/>
       <use xlink:href="#DejaVuSans-32" x="222.65625"/>
      </g>
     </g>
    </g>
    <g id="ytick_7">
     <g id="line2d_15">
      <g>
       <use xlink:href="#mf2f83f1290" x="225" y="68.119079" style="stroke: #000000; stroke-width: 0.8"/>
      </g>
     </g>
     <g id="text_16">
      <!-- 0.003 -->
      <g transform="translate(175.057813 73.817907) scale(0.15 -0.15)">
       <use xlink:href="#DejaVuSans-30"/>
       <use xlink:href="#DejaVuSans-2e" x="63.623047"/>
       <use xlink:href="#DejaVuSans-30" x="95.410156"/>
       <use xlink:href="#DejaVuSans-30" x="159.033203"/>
       <use xlink:href="#DejaVuSans-33" x="222.65625"/>
      </g>
     </g>
    </g>
    <g id="text_17">
     <!-- North(m) -->
     <g transform="translate(155.36875 215.934375) rotate(-90) scale(0.15 -0.15)">
      <defs>
       <path id="DejaVuSans-4e" d="M 628 4666 
L 1478 4666 
L 3547 763 
L 3547 4666 
L 4159 4666 
L 4159 0 
L 3309 0 
L 1241 3903 
L 1241 0 
L 628 0 
L 628 4666 
z
" transform="scale(0.015625)"/>
       <path id="DejaVuSans-6f" d="M 1959 3097 
Q 1497 3097 1228 2736 
Q 959 2375 959 1747 
Q 959 1119 1226 758 
Q 1494 397 1959 397 
Q 2419 397 2687 759 
Q 2956 1122 2956 1747 
Q 2956 2369 2687 2733 
Q 2419 3097 1959 3097 
z
M 1959 3584 
Q 2709 3584 3137 3096 
Q 3566 2609 3566 1747 
Q 3566 888 3137 398 
Q 2709 -91 1959 -91 
Q 1206 -91 779 398 
Q 353 888 353 1747 
Q 353 2609 779 3096 
Q 1206 3584 1959 3584 
z
" transform="scale(0.015625)"/>
       <path id="DejaVuSans-72" d="M 2631 2963 
Q 2534 3019 2420 3045 
Q 2306 3072 2169 3072 
Q 1681 3072 1420 2755 
Q 1159 2438 1159 1844 
L 1159 0 
L 581 0 
L 581 3500 
L 1159 3500 
L 1159 2956 
Q 1341 3275 1631 3429 
Q 1922 3584 2338 3584 
Q 2397 3584 2469 3576 
Q 2541 3569 2628 3553 
L 2631 2963 
z
" transform="scale(0.015625)"/>
       <path id="DejaVuSans-74" d="M 1172 4494 
L 1172 3500 
L 2356 3500 
L 2356 3053 
L 1172 3053 
L 1172 1153 
Q 1172 725 1289 603 
Q 1406 481 1766 481 
L 2356 481 
L 2356 0 
L 1766 0 
Q 1100 0 847 248 
Q 594 497 594 1153 
L 594 3053 
L 172 3053 
L 172 3500 
L 594 3500 
L 594 4494 
L 1172 4494 
z
" transform="scale(0.015625)"/>
       <path id="DejaVuSans-68" d="M 3513 2113 
L 3513 0 
L 2938 0 
L 2938 2094 
Q 2938 2591 2744 2837 
Q 2550 3084 2163 3084 
Q 1697 3084 1428 2787 
Q 1159 2491 1159 1978 
L 1159 0 
L 581 0 
L 581 4863 
L 1159 4863 
L 1159 2956 
Q 1366 3272 1645 3428 
Q 1925 3584 2291 3584 
Q 2894 3584 3203 3211 
Q 3513 2838 3513 2113 
z
" transform="scale(0.015625)"/>
       <path id="DejaVuSans-28" d="M 1984 4856 
Q 1566 4138 1362 3434 
Q 1159 2731 1159 2009 
Q 1159 1288 1364 580 
Q 1569 -128 1984 -844 
L 1484 -844 
Q 1016 -109 783 600 
Q 550 1309 550 2009 
Q 550 2706 781 3412 
Q 1013 4119 1484 4856 
L 1984 4856 
z
" transform="scale(0.015625)"/>
       <path id="DejaVuSans-29" d="M 513 4856 
L 1013 4856 
Q 1481 4119 1714 3412 
Q 1947 2706 1947 2009 
Q 1947 1309 1714 600 
Q 1481 -109 1013 -844 
L 513 -844 
Q 928 -128 1133 580 
Q 1338 1288 1338 2009 
Q 1338 2731 1133 3434 
Q 928 4138 513 4856 
z
" transform="scale(0.015625)"/>
      </defs>
      <use xlink:href="#DejaVuSans-4e"/>
      <use xlink:href="#DejaVuSans-6f" x="74.804688"/>
      <use xlink:href="#DejaVuSans-72" x="135.986328"/>
      <use xlink:href="#DejaVuSans-74" x="177.099609"/>
      <use xlink:href="#DejaVuSans-68" x="216.308594"/>
      <use xlink:href="#DejaVuSans-28" x="279.6875"/>
      <use xlink:href="#DejaVuSans-6d" x="318.701172"/>
      <use xlink:href="#DejaVuSans-29" x="416.113281"/>
     </g>
    </g>
   </g>
   <g id="line2d_16">
    <path d="M 288.409091 242.492782 
L 288.872269 200.13642 
L 289.335447 174.441627 
L 290.261804 143.626137 
L 290.724982 137.050983 
L 291.18816 128.815833 
L 291.651338 114.468132 
L 292.114516 113.556096 
L 293.040873 131.059443 
L 293.504051 139.276267 
L 293.967229 139.585146 
L 294.893585 154.775475 
L 295.356763 158.791903 
L 295.819942 152.985006 
L 296.28312 152.521012 
L 297.672654 164.279069 
L 298.135832 170.67572 
L 298.599011 165.552088 
L 299.062189 162.153418 
L 299.525367 162.042257 
L 299.988545 151.267693 
L 300.451723 151.8678 
L 300.914901 147.147405 
L 301.841258 128.616961 
L 302.304436 129.474692 
L 302.767614 128.669066 
L 303.230792 139.988581 
L 303.69397 141.607983 
L 304.157149 141.978468 
L 304.620327 139.543089 
L 305.083505 145.631711 
L 305.546683 154.083757 
L 306.009861 154.739868 
L 306.936218 138.399302 
L 307.399396 121.773108 
L 307.862574 116.807212 
L 308.325752 106.638426 
L 308.78893 107.995525 
L 309.252108 95.944963 
L 309.715287 90.503022 
L 310.641643 129.708411 
L 311.104821 138.586097 
L 311.567999 155.578946 
L 312.031177 159.231339 
L 312.494356 174.095988 
L 312.957534 180.683058 
L 314.347068 195.549407 
L 314.810246 202.270889 
L 315.273425 215.472182 
L 315.736603 210.309346 
L 316.199781 223.353823 
L 317.126137 210.983959 
L 317.589315 203.054462 
L 318.515672 171.469189 
L 318.97885 169.845886 
L 319.442028 154.803721 
L 319.905206 154.334126 
L 320.831563 173.512031 
L 321.294741 185.582017 
L 321.757919 194.627718 
L 322.221097 199.254603 
L 322.684275 196.920033 
L 323.610632 204.044754 
L 324.536988 204.196818 
L 325.463344 204.169665 
L 325.926522 204.708166 
L 326.389701 207.061237 
L 326.852879 204.032202 
L 327.316057 209.241542 
L 327.779235 205.098002 
L 328.242413 203.58671 
L 328.705591 209.316899 
L 329.16877 196.78937 
L 329.631948 188.680656 
L 330.095126 186.738124 
L 330.558304 191.297803 
L 331.021482 188.700008 
L 331.48466 184.36605 
L 331.947839 171.804918 
L 332.874195 176.348645 
L 333.337373 185.691174 
L 333.800551 184.818342 
L 334.263729 181.106042 
L 334.726907 183.811947 
L 335.190086 175.423207 
L 335.653264 172.786209 
L 336.116442 162.638904 
L 336.57962 148.380812 
L 337.505976 131.726544 
L 337.969155 128.686308 
L 338.432333 130.003282 
L 338.895511 135.660664 
L 339.821867 157.773245 
L 340.285045 160.708771 
L 340.748224 167.491859 
L 341.211402 162.889076 
L 341.67458 166.541469 
L 342.137758 165.780648 
L 342.600936 162.040346 
L 343.064114 151.226578 
L 343.990471 155.585488 
L 344.453649 166.77059 
L 344.916827 173.480872 
L 345.380005 169.253324 
L 345.843183 166.857148 
L 346.306362 159.829336 
L 346.76954 150.858142 
L 347.232718 153.082401 
L 347.695896 149.431707 
L 348.159074 139.14999 
L 348.622252 140.203739 
L 349.085431 136.569847 
L 349.548609 158.06552 
L 350.474965 172.30936 
L 350.938143 172.859061 
L 351.401321 189.017432 
L 351.8645 189.729549 
L 352.790856 195.218915 
L 353.254034 187.306221 
L 354.18039 183.229887 
L 354.643569 172.376915 
L 355.106747 175.502859 
L 355.569925 164.487472 
L 356.033103 161.424834 
L 356.496281 154.593041 
L 356.959459 153.003341 
L 357.422638 169.576151 
L 357.885816 169.319377 
L 358.812172 157.318297 
L 359.27535 162.152402 
L 359.738528 168.985895 
L 360.201707 167.805034 
L 360.664885 177.96524 
L 361.128063 181.483221 
L 361.591241 190.372107 
L 362.054419 208.720284 
L 362.517597 201.916493 
L 362.980776 189.405766 
L 365.759845 202.41664 
L 368.538914 196.492132 
L 369.002092 187.918575 
L 369.46527 173.710888 
L 369.928448 150.447148 
L 370.391626 151.327281 
L 370.854804 162.193154 
L 371.317983 157.971206 
L 371.781161 162.922922 
L 372.244339 151.795525 
L 372.707517 164.559976 
L 373.170695 183.076168 
L 373.633873 184.533155 
L 374.097052 194.211716 
L 374.56023 200.115522 
L 375.023408 188.51768 
L 375.486586 195.244763 
L 375.949764 198.107482 
L 376.412942 183.177327 
L 376.876121 181.212392 
L 377.339299 175.058263 
L 377.802477 172.141238 
L 378.265655 174.707129 
L 378.728833 174.601569 
L 379.192011 171.835759 
L 379.65519 184.729022 
L 380.118368 192.441798 
L 380.581546 192.700272 
L 381.044724 192.219477 
L 381.507902 198.162486 
L 382.434259 204.952025 
L 382.897437 211.729512 
L 383.360615 215.583525 
L 383.823793 214.105836 
L 384.286971 198.940458 
L 385.213328 184.319182 
L 385.676506 171.931666 
L 386.139684 163.419715 
L 386.602862 147.33025 
L 387.06604 147.375905 
L 387.529218 164.766391 
L 387.992397 164.347202 
L 388.455575 165.574567 
L 388.918753 168.381281 
L 389.381931 164.724987 
L 389.845109 170.555985 
L 390.308287 182.61477 
L 390.771466 165.349195 
L 391.234644 170.132895 
L 391.697822 170.536983 
L 392.161 185.16641 
L 392.624178 190.028517 
L 393.087356 196.184346 
L 393.550535 188.663689 
L 394.013713 204.570035 
L 394.476891 202.733913 
L 394.940069 207.943253 
L 395.403247 202.584398 
L 395.866425 207.883347 
L 396.329604 217.533905 
L 396.792782 219.942981 
L 397.25596 223.516968 
L 397.719138 232.428256 
L 398.182316 238.556083 
L 398.645494 240.007469 
L 399.108673 231.260296 
L 399.571851 218.939986 
L 400.035029 219.764114 
L 400.498207 216.63987 
L 400.961385 215.173381 
L 401.424563 215.991908 
L 402.35092 247.972618 
L 403.740454 259.271431 
L 404.203632 255.900764 
L 404.666811 253.851821 
L 405.129989 233.808384 
L 405.593167 206.708283 
L 406.056345 214.953109 
L 406.519523 214.186687 
L 407.44588 201.36318 
L 407.909058 192.44239 
L 408.372236 191.043108 
L 408.835414 203.768356 
L 409.298592 201.086553 
L 409.76177 189.505513 
L 410.224949 195.935768 
L 411.151305 224.001709 
L 411.614483 225.100263 
L 412.077661 213.031977 
L 412.540839 207.622718 
L 413.004018 221.720094 
L 413.467196 208.890137 
L 413.930374 210.985584 
L 414.393552 194.666498 
L 414.85673 195.849059 
L 415.319908 211.212155 
L 415.783087 211.761856 
L 416.246265 204.784449 
L 416.709443 212.889262 
L 417.172621 206.488709 
L 418.098977 200.245822 
L 418.562156 199.653016 
L 419.025334 194.646994 
L 419.488512 195.599934 
L 419.95169 197.902601 
L 420.414868 191.793276 
L 420.878046 197.445057 
L 421.341225 193.995983 
L 421.804403 186.665743 
L 422.267581 185.15445 
L 422.730759 180.120426 
L 423.193937 179.152385 
L 424.583472 211.279558 
L 425.04665 211.745252 
L 425.509828 220.774152 
L 425.973006 221.088631 
L 426.436184 217.89158 
L 427.362541 201.842169 
L 427.825719 189.499458 
L 428.288897 185.859965 
L 428.752075 176.379122 
L 429.215253 172.274786 
L 429.678432 167.151154 
L 430.14161 166.065501 
L 430.604788 162.571622 
L 431.067966 162.813295 
L 431.531144 162.674132 
L 431.994322 160.076337 
L 432.4575 167.688303 
L 432.920679 167.190707 
L 433.383857 164.637716 
L 433.847035 160.404568 
L 434.310213 164.437797 
L 434.773391 169.803952 
L 435.236569 179.325698 
L 435.699748 172.605915 
L 436.162926 174.443738 
L 436.626104 169.174492 
L 437.089282 185.248855 
L 437.55246 195.336254 
L 438.015638 201.060843 
L 438.478817 196.36285 
L 438.941995 204.053224 
L 439.868351 210.629943 
L 440.331529 205.915149 
L 440.794707 197.655221 
L 441.257886 194.015729 
L 441.721064 195.142285 
L 442.184242 188.758534 
L 442.64742 207.050705 
L 443.110598 215.49715 
L 443.573776 221.8714 
L 444.500133 220.998568 
L 444.963311 212.626629 
L 445.426489 210.068039 
L 445.889667 202.496976 
L 446.352845 178.841199 
L 447.279202 160.193144 
L 447.74238 165.156061 
L 448.668736 166.960281 
L 449.131914 168.893312 
L 450.058271 178.555922 
L 450.521449 166.370025 
L 450.984627 163.895442 
L 451.447805 157.097252 
L 451.910983 166.260564 
L 452.374162 161.523368 
L 452.83734 169.700987 
L 453.300518 158.142349 
L 453.763696 165.457488 
L 454.226874 162.456455 
L 454.690052 150.483378 
L 455.153231 132.909774 
L 455.616409 129.438297 
L 456.079587 118.994164 
L 457.005943 122.737088 
L 457.469121 119.160122 
L 457.9323 106.235877 
L 458.395478 106.752897 
L 458.858656 98.975537 
L 459.321834 99.873392 
L 460.24819 76.180184 
L 460.711369 88.177363 
L 461.174547 87.562155 
L 461.637725 79.464642 
L 462.564081 82.513101 
L 463.027259 69.10721 
L 464.416794 63.678313 
L 464.879972 68.632794 
L 465.34315 55.8 
L 465.806328 62.485043 
L 466.269507 72.020755 
L 466.732685 65.465231 
L 467.195863 74.277553 
L 467.659041 78.669216 
L 468.122219 74.704893 
L 468.585397 65.11204 
L 469.048576 67.017069 
L 469.511754 66.340255 
L 469.974932 76.836493 
L 470.43811 75.078777 
L 472.290823 136.827988 
L 472.754001 142.339757 
L 473.217179 141.892564 
L 473.680357 148.479634 
L 474.143535 138.041102 
L 474.606714 130.48124 
L 475.069892 130.470889 
L 475.53307 127.968303 
L 475.996248 127.93555 
L 476.459426 154.802129 
L 476.922604 142.151388 
L 477.385783 145.803781 
L 477.848961 160.108378 
L 478.312139 166.908267 
L 478.775317 165.290565 
L 479.238495 181.986586 
L 479.701673 168.52937 
L 480.164852 188.440093 
L 480.62803 199.098746 
L 481.091208 188.100161 
L 481.554386 184.987118 
L 482.480742 182.653398 
L 482.943921 178.655472 
L 484.333455 156.94485 
L 485.259811 164.122668 
L 485.72299 177.974543 
L 486.186168 179.31484 
L 486.649346 191.727379 
L 487.575702 223.221765 
L 488.03888 225.910868 
L 488.502059 213.898587 
L 488.965237 195.608115 
L 489.428415 183.046983 
L 490.354771 147.0989 
L 490.817949 139.404625 
L 491.281128 135.686725 
L 492.207484 185.762738 
L 492.670662 183.377763 
L 493.13384 179.30703 
L 493.597018 181.00484 
L 494.060197 190.77861 
L 494.523375 197.729714 
L 495.449731 176.97586 
L 495.912909 188.177764 
L 496.376087 203.053614 
L 496.839266 209.343856 
L 497.302444 201.145534 
L 497.765622 207.144549 
L 498.2288 194.034565 
L 498.691978 195.222726 
L 499.155156 192.07048 
L 499.618335 185.423504 
L 500.081513 176.541918 
L 500.544691 174.179345 
L 501.007869 167.593976 
L 501.471047 178.644665 
L 501.934225 178.046259 
L 502.397404 172.463383 
L 502.860582 171.780969 
L 503.32376 176.335048 
L 503.786938 192.734241 
L 504.250116 197.456335 
L 504.713294 197.731611 
L 505.176473 184.565622 
L 505.639651 187.176317 
L 506.102829 201.413707 
L 506.566007 202.551464 
L 507.029185 193.882698 
L 507.955542 170.294978 
L 508.41872 172.967279 
L 509.345076 180.675304 
L 509.808254 177.203827 
L 510.271432 168.439853 
L 510.734611 174.662888 
L 511.197789 186.240028 
L 511.660967 186.638515 
L 512.124145 179.851526 
L 513.050501 156.812657 
L 513.51368 161.445143 
L 514.440036 146.840669 
L 514.903214 143.806033 
L 515.366392 144.758972 
L 515.82957 144.703817 
L 516.292749 162.766367 
L 516.755927 165.332258 
L 517.219105 162.006395 
L 517.682283 160.847936 
L 518.145461 158.429358 
L 518.608639 164.898817 
L 519.071818 169.206472 
L 519.534996 162.234666 
L 519.998174 164.40852 
L 520.461352 173.874261 
L 520.92453 174.082331 
L 521.387708 197.734206 
L 522.314065 188.730259 
L 522.777243 190.545679 
L 523.240421 186.704568 
L 523.703599 190.373763 
L 524.166777 196.882425 
L 524.629956 191.103531 
L 525.093134 207.541928 
L 525.556312 216.313204 
L 526.01949 212.746518 
L 526.482668 217.821446 
L 526.945846 216.730193 
L 527.409025 216.635834 
L 527.872203 208.510319 
L 528.335381 187.5876 
L 528.798559 181.95992 
L 529.261737 191.257645 
L 529.724915 192.770637 
L 530.188093 195.420536 
L 530.651272 190.660938 
L 531.11445 184.462005 
L 531.577628 190.444217 
L 532.040806 187.885627 
L 532.503984 179.620098 
L 532.967162 183.440508 
L 533.430341 161.929733 
L 533.893519 162.927477 
L 534.356697 171.424327 
L 534.819875 165.141385 
L 535.283053 166.592772 
L 535.746231 176.618565 
L 536.20941 174.132781 
L 536.672588 188.560589 
L 537.135766 193.646717 
L 537.598944 201.079467 
L 538.062122 204.754262 
L 538.5253 214.668045 
L 538.988479 210.815733 
L 539.451657 194.698266 
L 539.914835 202.584658 
L 540.378013 195.668857 
L 540.841191 175.104571 
L 541.304369 185.5056 
L 541.767548 192.697527 
L 542.230726 184.095967 
L 542.693904 200.769586 
L 543.62026 201.639368 
L 544.083438 220.004346 
L 544.546617 214.225452 
L 545.009795 185.596407 
L 545.472973 191.735435 
L 546.399329 175.456403 
L 546.862507 173.491468 
L 547.325686 161.624801 
L 547.788864 158.091718 
L 548.252042 185.176717 
L 548.71522 183.704628 
L 549.178398 185.279226 
L 549.641576 193.770475 
L 550.104755 208.836743 
L 550.567933 218.246479 
L 551.031111 223.545427 
L 551.494289 226.66017 
L 551.957467 241.799245 
L 552.420645 246.196509 
L 552.883824 242.389 
L 553.347002 230.48313 
L 553.81018 225.824341 
L 554.273358 218.331686 
L 554.736536 203.675956 
L 555.199714 184.086162 
L 555.662893 189.508323 
L 556.589249 207.314098 
L 557.052427 212.372224 
L 557.515605 227.158466 
L 557.978783 232.804647 
L 558.441962 231.67419 
L 558.90514 231.507024 
L 559.368318 237.063597 
L 559.831496 248.775149 
L 560.294674 245.785318 
L 560.757852 244.985292 
L 561.221031 242.342694 
L 561.684209 252.105262 
L 562.147387 252.666165 
L 562.610565 237.142354 
L 564.0001 223.440414 
L 564.463278 234.020659 
L 564.926456 239.885261 
L 565.389634 236.273771 
L 565.852812 253.36743 
L 566.31599 259.254434 
L 566.779169 277.557806 
L 567.242347 284.598519 
L 568.168703 288.050143 
L 568.631881 294.822031 
L 569.095059 290.129639 
L 569.558238 270.70226 
L 570.021416 266.401905 
L 570.484594 269.606257 
L 570.947772 268.655017 
L 571.41095 271.164903 
L 572.337307 264.518778 
L 572.800485 281.853259 
L 573.263663 290.775748 
L 573.726841 289.421271 
L 574.190019 293.012059 
L 574.653197 294.51945 
L 575.116376 303.727567 
L 575.579554 307.8 
L 576.042732 304.026095 
L 576.50591 291.722587 
L 576.969088 285.792478 
L 578.821801 247.180244 
L 579.748157 232.923002 
L 580.211335 227.625753 
L 580.674514 226.5345 
L 581.137692 224.9392 
L 581.60087 221.053284 
L 582.527226 209.075457 
L 582.990404 205.531173 
L 583.453583 205.688838 
L 583.916761 200.021954 
L 584.379939 203.1703 
L 584.843117 205.478567 
L 585.769473 219.464783 
L 586.232652 224.646121 
L 586.69583 220.894618 
L 587.622186 206.833394 
L 588.548542 197.134981 
L 589.011721 190.913645 
L 589.474899 189.228737 
L 590.401255 205.751992 
L 591.327611 216.181873 
L 591.79079 216.333937 
L 592.253968 222.495367 
L 592.717146 233.025208 
L 593.180324 237.663294 
L 593.643502 244.177557 
L 594.10668 245.432925 
L 594.569859 245.949024 
L 595.033037 244.21371 
L 595.496215 237.2027 
L 595.959393 225.151216 
L 596.885749 209.750616 
L 597.348928 196.803048 
L 598.275284 177.869365 
L 598.738462 160.788608 
L 599.20164 155.692978 
L 599.664818 147.287437 
L 600.127997 145.143285 
L 601.054353 148.555706 
L 601.517531 147.531659 
L 601.980709 158.565547 
L 602.443887 163.343647 
L 602.907066 166.004747 
L 603.370244 164.700675 
L 603.833422 169.103539 
L 604.2966 167.065797 
L 604.759778 166.484192 
L 605.222956 170.971064 
L 605.686135 159.843667 
L 606.149313 156.652216 
L 606.612491 161.329506 
L 607.075669 157.22517 
L 607.538847 169.989621 
L 608.002025 178.654486 
L 608.465204 172.774783 
L 608.928382 183.803071 
L 609.39156 170.469066 
L 610.317916 149.989638 
L 610.781094 131.290328 
L 611.244273 124.50894 
L 611.707451 120.382201 
L 612.170629 132.866626 
L 612.633807 159.946024 
L 613.096985 171.304743 
L 613.560163 186.399014 
L 614.023342 196.923254 
L 614.949698 199.270725 
L 615.412876 202.396669 
L 615.876054 194.265554 
L 616.339232 166.655805 
L 616.802411 164.763677 
L 617.265589 168.30966 
L 617.728767 165.431839 
L 618.191945 175.043194 
L 618.655123 179.160431 
L 619.118301 173.555154 
L 619.58148 190.83363 
L 620.044658 192.229011 
L 620.507836 181.734473 
L 620.971014 184.36197 
L 621.434192 179.120727 
L 621.89737 184.033239 
L 623.286905 167.02238 
L 623.750083 170.003632 
L 624.213261 165.429773 
L 625.139618 144.352932 
L 625.602796 147.210972 
L 626.529152 178.732439 
L 626.99233 179.517362 
L 627.918686 189.05676 
L 628.381865 181.754523 
L 628.845043 165.928283 
L 629.308221 163.291285 
L 629.771399 168.467022 
L 630.234577 154.606567 
L 630.697755 149.914175 
L 631.160934 150.234255 
L 631.624112 162.158627 
L 632.08729 163.940445 
L 632.550468 163.728475 
L 633.013646 155.306132 
L 633.476824 156.051852 
L 633.940003 158.47213 
L 634.403181 145.031715 
L 634.866359 152.453263 
L 635.792715 159.730048 
L 636.255893 151.425316 
L 636.719072 165.976335 
L 637.18225 158.595691 
L 637.645428 167.09254 
L 638.108606 155.382688 
L 638.571784 150.785505 
L 639.034962 156.123657 
L 639.498141 174.158205 
L 639.961319 171.196376 
L 640.424497 199.782316 
L 640.887675 213.414849 
L 641.814031 248.033407 
L 642.27721 246.992559 
L 642.740388 240.037554 
L 643.203566 230.231881 
L 643.666744 203.994261 
L 644.129922 190.027397 
L 644.5931 183.68285 
L 645.056279 173.177111 
L 645.982635 188.860286 
L 646.445813 201.361513 
L 647.372169 231.247625 
L 647.835348 233.158255 
L 648.298526 241.727911 
L 649.224882 228.758791 
L 649.68806 230.193375 
L 650.151238 232.210415 
L 650.614417 239.783178 
L 651.077595 240.629707 
L 651.540773 248.387287 
L 652.003951 247.508854 
L 652.467129 243.572534 
L 652.930307 248.580255 
L 653.393486 240.969989 
L 653.856664 229.551364 
L 654.78302 217.159097 
L 655.246198 218.448068 
L 655.709376 234.71845 
L 656.172555 229.914047 
L 656.635733 234.210502 
L 657.098911 236.479565 
L 657.562089 240.507194 
L 658.488445 215.463337 
L 658.951624 193.515721 
L 659.414802 199.811563 
L 660.341158 190.208359 
L 660.804336 192.707044 
L 661.267514 198.028395 
L 661.730693 195.509008 
L 662.193871 196.243527 
L 662.657049 172.862176 
L 663.120227 163.157313 
L 663.583405 157.07039 
L 664.046583 143.176332 
L 664.509762 137.806276 
L 664.97294 138.927232 
L 665.436118 135.226133 
L 665.899296 143.661377 
L 666.362474 147.252165 
L 666.825652 160.671878 
L 667.752009 175.195744 
L 668.215187 173.298015 
L 668.678365 168.163182 
L 669.141543 167.895207 
L 669.604721 164.608547 
L 670.0679 159.188087 
L 670.531078 151.751437 
L 670.994256 139.733556 
L 671.457434 137.707015 
L 671.920612 142.384305 
L 672.38379 132.13619 
L 672.846969 129.784819 
L 673.310147 116.764443 
L 673.773325 116.328452 
L 674.236503 124.539675 
L 674.699681 128.757722 
L 675.162859 124.440565 
L 675.626038 124.587029 
L 676.089216 124.235046 
L 676.552394 137.184314 
L 677.015572 144.241828 
L 677.47875 144.690721 
L 677.941928 151.882647 
L 678.405107 152.673172 
L 678.868285 160.604368 
L 679.331463 162.094958 
L 679.794641 155.946429 
L 680.720997 138.939328 
L 681.184176 135.406246 
L 681.647354 138.263364 
L 682.110532 136.444043 
L 683.036888 160.696025 
L 683.500066 178.405742 
L 683.963245 190.100492 
L 684.426423 195.197822 
L 684.889601 206.601345 
L 685.352779 212.001103 
L 685.815957 205.421334 
L 686.279135 194.355542 
L 686.742314 191.449719 
L 687.205492 185.766034 
L 687.66867 182.137742 
L 688.131848 184.502014 
L 688.595026 181.108945 
L 689.058204 183.568426 
L 689.521383 191.085184 
L 690.447739 176.419103 
L 690.910917 172.998031 
L 691.374095 159.28879 
L 692.300452 154.810069 
L 692.76363 155.740606 
L 693.226808 156.979173 
L 693.689986 162.451738 
L 694.153164 161.545302 
L 694.616342 159.938801 
L 695.542699 168.369294 
L 696.469055 161.717568 
L 696.932233 159.758233 
L 697.395411 161.792074 
L 697.85859 170.524146 
L 698.321768 163.793162 
L 698.784946 159.739231 
L 699.248124 169.776225 
L 699.711302 173.44542 
L 700.17448 173.255853 
L 700.637659 171.576544 
L 701.100837 170.462889 
L 701.564015 170.553348 
L 702.027193 160.954894 
L 702.490371 142.938849 
L 702.953549 147.638541 
L 703.416728 148.47947 
L 703.879906 146.872968 
L 704.343084 150.346145 
L 704.806262 157.347654 
L 705.26944 167.18863 
L 705.732618 167.329493 
L 706.195797 156.605334 
L 706.658975 155.435674 
L 707.122153 164.307758 
L 707.585331 147.299808 
L 708.048509 141.218485 
L 708.511687 139.942415 
L 708.974866 143.241975 
L 709.438044 141.781088 
L 709.901222 153.901478 
L 710.3644 157.161835 
L 710.827578 179.189558 
L 711.290756 190.04983 
L 711.753935 194.491898 
L 712.217113 204.674506 
L 712.680291 220.776871 
L 713.143469 209.571067 
L 713.606647 193.335989 
L 714.069825 188.990829 
L 714.533004 189.081288 
L 714.996182 204.393979 
L 715.45936 209.340094 
L 715.922538 203.286774 
L 716.385716 212.674108 
L 717.775251 245.110303 
L 718.238429 237.187329 
L 718.701607 221.619635 
L 719.164785 210.974804 
L 720.091142 227.679119 
L 720.55432 220.376882 
L 721.017498 211.198468 
L 721.480676 233.024572 
L 721.943854 243.156775 
L 722.407032 249.58703 
L 722.870211 250.399957 
L 723.333389 242.800891 
L 723.796567 244.543505 
L 724.722923 255.959151 
L 725.186101 249.374702 
L 725.64928 252.73119 
L 726.112458 253.242609 
L 726.575636 250.763347 
L 727.038814 263.808746 
L 727.501992 273.241805 
L 728.428348 256.027485 
L 728.891527 256.627591 
L 729.354705 267.8799 
L 729.817883 266.766245 
L 730.281061 264.946924 
L 730.744239 253.780322 
L 731.670596 268.388197 
L 732.133774 267.78419 
L 732.596952 261.865283 
L 733.06013 267.455459 
L 733.523308 248.2409 
L 733.986486 254.839171 
L 734.449665 249.065878 
L 734.912843 245.073552 
L 735.376021 242.111723 
L 735.839199 237.441733 
L 736.302377 234.944748 
L 736.765555 236.463341 
L 737.228734 236.794622 
L 738.15509 245.297922 
L 738.618268 246.099647 
L 739.081446 247.433423 
L 739.544624 242.925848 
L 740.007803 251.960349 
L 740.470981 251.910794 
L 740.934159 254.717508 
L 741.397337 259.237983 
L 741.860515 256.718596 
L 742.323693 248.649086 
L 742.786872 254.575294 
L 743.25005 248.942014 
L 743.713228 251.608714 
L 744.176406 244.480093 
L 744.639584 253.783419 
L 745.102762 247.898115 
L 745.565941 260.959394 
L 746.029119 253.981987 
L 746.492297 257.471965 
L 746.955475 254.476533 
L 747.418653 246.25581 
L 747.881831 226.335585 
L 748.34501 226.347636 
L 748.808188 219.000594 
L 749.271366 218.11096 
L 749.734544 215.121129 
L 750.197722 198.309196 
L 750.6609 199.850191 
L 751.124079 200.595911 
L 751.587257 196.211548 
L 752.050435 187.873214 
L 752.513613 182.491957 
L 752.976791 180.151787 
L 753.439969 193.285873 
L 753.903148 197.498319 
L 754.366326 193.79162 
L 754.829504 198.625725 
L 755.292682 199.270635 
L 756.219038 222.671337 
L 756.682217 225.130819 
L 757.145395 221.205699 
L 757.608573 223.116329 
L 758.071751 224.29329 
L 758.534929 229.435423 
L 758.998107 227.576898 
L 759.924464 210.939432 
L 760.387642 207.08712 
L 760.85082 201.99149 
L 761.313998 203.045239 
L 762.240355 178.449424 
L 762.703533 179.917612 
L 763.166711 173.449853 
L 763.629889 177.432678 
L 764.093067 180.121781 
L 764.556245 170.635338 
L 765.019424 177.211206 
L 765.482602 168.212009 
L 765.94578 152.122545 
L 766.408958 149.317531 
L 766.872136 134.85782 
L 767.335314 130.39505 
L 767.798493 131.443198 
L 768.261671 129.954308 
L 768.724849 138.624774 
L 769.651205 161.583034 
L 770.577562 187.35836 
L 771.04074 189.347397 
L 771.503918 187.970517 
L 771.967096 191.61171 
L 772.430274 176.244713 
L 772.893452 165.610162 
L 773.356631 160.004885 
L 773.819809 150.003193 
L 774.282987 159.138503 
L 774.746165 163.552568 
L 775.209343 164.52791 
L 775.672521 171.719837 
L 776.1357 180.642326 
L 776.598878 182.950593 
L 777.062056 182.710621 
L 777.988412 177.492629 
L 778.45159 171.215288 
L 778.914769 170.947313 
L 779.377947 157.786924 
L 779.841125 149.975039 
L 780.767481 140.483845 
L 781.230659 148.807079 
L 781.693838 155.024514 
L 782.157016 163.818191 
L 782.620194 177.445124 
L 783.083372 195.826903 
L 783.54655 202.884417 
L 784.009728 201.949979 
L 784.472907 193.891671 
L 785.399263 199.880334 
L 785.862441 200.116406 
L 786.325619 195.003975 
L 787.251976 193.717625 
L 787.715154 189.373388 
L 788.178332 198.935259 
L 789.104688 178.793706 
L 789.567866 173.760603 
L 790.031045 173.49915 
L 790.494223 176.619494 
L 791.420579 163.101593 
L 791.883757 153.442455 
L 792.346935 160.097652 
L 792.810114 162.955693 
L 793.273292 163.987961 
L 793.73647 164.224955 
L 794.199648 156.094761 
L 794.662826 169.760897 
L 795.126004 164.609262 
L 795.589183 162.246689 
L 796.052361 151.808157 
L 796.978717 158.138452 
L 797.441895 160.222698 
L 798.368252 189.218327 
L 798.83143 189.538407 
L 799.294608 202.330861 
L 799.757786 206.347289 
L 800.220964 202.32136 
L 800.684142 205.038465 
L 801.147321 199.494794 
L 801.610499 203.488819 
L 802.073677 204.357751 
L 802.536855 202.342411 
L 803.000033 206.543656 
L 803.463211 218.888068 
L 803.92639 241.43664 
L 804.389568 248.852588 
L 804.852746 244.429021 
L 805.779102 254.522943 
L 806.24228 273.756924 
L 806.705459 285.222975 
L 807.168637 283.314966 
L 807.631815 274.210281 
L 808.094993 274.464076 
L 808.558171 273.513758 
L 809.021349 272.293693 
L 809.484528 262.258398 
L 809.947706 243.732704 
L 810.410884 233.859825 
L 810.874062 232.163715 
L 811.33724 225.583946 
L 811.800418 222.823736 
L 812.263597 218.495379 
L 812.726775 217.863369 
L 813.189953 222.456651 
L 813.653131 229.088525 
L 814.116309 225.538641 
L 814.579487 224.929033 
L 815.042666 231.790529 
L 815.505844 232.900283 
L 815.969022 233.421982 
L 816.4322 235.276607 
L 816.895378 229.609723 
L 817.358556 229.778589 
L 817.821735 236.208844 
L 818.284913 218.002381 
L 818.748091 212.111476 
L 819.674447 196.090068 
L 820.137625 192.366567 
L 820.600804 184.840309 
L 821.063982 170.537413 
L 821.52716 176.043581 
L 821.990338 170.163877 
L 822.453516 170.069518 
L 822.916694 171.823333 
L 823.379873 178.107974 
L 823.843051 181.049101 
L 824.306229 193.835954 
L 824.769407 197.729171 
L 825.232585 193.871257 
L 825.695763 192.914417 
L 826.158941 193.800151 
L 826.62212 192.143244 
L 827.085298 191.606444 
L 827.548476 180.703067 
L 828.011654 176.397112 
L 828.474832 180.928788 
L 828.93801 180.963242 
L 829.401189 174.512284 
L 830.327545 166.886066 
L 831.717079 180.296278 
L 832.180258 182.352521 
L 833.106614 191.466279 
L 833.569792 186.997908 
L 834.03297 183.884865 
L 834.496148 175.580133 
L 834.959327 176.269848 
L 835.422505 167.561878 
L 836.348861 157.191402 
L 836.812039 146.204018 
L 837.275217 131.88432 
L 837.738396 132.159596 
L 838.201574 113.129855 
L 838.664752 107.888611 
L 839.12793 111.70342 
L 839.591108 110.735379 
L 840.054286 122.805365 
L 840.517465 138.140458 
L 840.980643 144.374695 
L 841.443821 162.840482 
L 841.906999 175.862558 
L 842.370177 168.02827 
L 842.833355 166.494576 
L 843.296534 169.93415 
L 843.759712 171.172716 
L 844.22289 175.737996 
L 845.149246 193.342152 
L 845.612424 195.006359 
L 846.075603 181.761962 
L 846.538781 176.201488 
L 847.001959 177.848893 
L 847.465137 178.370592 
L 847.928315 171.163564 
L 848.391493 166.118339 
L 848.854672 167.541723 
L 849.31785 167.413761 
L 849.781028 176.733888 
L 850.244206 171.795073 
L 850.707384 158.337856 
L 851.170562 156.888169 
L 851.633741 143.414151 
L 852.096919 150.247644 
L 852.560097 162.720868 
L 853.023275 159.479013 
L 853.949631 176.047072 
L 854.41281 171.091455 
L 854.875988 180.579598 
L 855.339166 173.26616 
L 855.802344 168.48416 
L 856.265522 173.301463 
L 856.7287 160.275487 
L 857.191879 158.204142 
L 857.655057 159.190684 
L 858.118235 157.718596 
L 858.581413 171.138309 
L 859.044591 179.478343 
L 859.507769 177.95585 
L 860.434126 169.14232 
L 860.897304 177.375945 
L 861.360482 179.628207 
L 861.82366 170.007351 
L 862.286838 174.174993 
L 862.750017 166.340706 
L 863.213195 176.108875 
L 863.676373 189.562191 
L 864.139551 175.662533 
L 864.602729 171.524593 
L 865.065907 169.654867 
L 865.529086 159.961205 
L 865.992264 162.627906 
L 866.455442 159.750085 
L 866.91862 152.291032 
L 867.381798 168.875043 
L 867.844976 170.068805 
L 868.771333 183.209342 
L 869.234511 175.044623 
L 870.160867 182.853458 
L 870.624045 172.045291 
L 871.087224 172.096545 
L 871.550402 173.251104 
L 872.476758 192.608225 
L 873.403114 188.991985 
L 873.866293 192.627577 
L 874.329471 197.584893 
L 874.792649 182.598733 
L 875.255827 177.799931 
L 875.719005 180.864269 
L 876.182183 178.350482 
L 876.645362 182.954966 
L 877.571718 195.557851 
L 878.034896 209.291194 
L 878.498074 211.974696 
L 878.961252 215.890315 
L 879.887609 240.103093 
L 880.350787 241.224049 
L 880.813965 240.222404 
L 881.277143 239.595995 
L 881.740321 243.746836 
L 882.2035 244.01091 
L 883.129856 220.871232 
L 884.056212 214.415524 
L 884.51939 221.870676 
L 884.982569 225.058226 
L 885.445747 225.921557 
L 885.908925 234.508015 
L 886.372103 233.668786 
L 886.835281 239.398975 
L 887.298459 249.419168 
L 887.761638 247.123802 
L 888.224816 238.303821 
L 889.151172 255.207912 
L 889.61435 254.02145 
L 890.077528 250.449164 
L 890.540707 237.97204 
L 891.003885 231.991527 
L 891.467063 233.246895 
L 892.393419 220.434589 
L 892.856597 233.792696 
L 893.319776 237.036251 
L 894.246132 261.181823 
L 894.70931 260.521811 
L 895.172488 259.363352 
L 895.635666 261.862037 
L 896.098845 262.238122 
L 896.562023 262.339781 
L 897.025201 254.35988 
L 897.488379 238.023993 
L 897.951557 239.419374 
L 898.877914 231.725949 
L 899.341092 218.77278 
L 899.80427 213.290714 
L 900.267448 210.519303 
L 900.730626 209.192828 
L 901.193804 207.463115 
L 901.656983 202.188269 
L 902.583339 177.883681 
L 903.046517 171.701549 
L 903.509695 169.787019 
L 903.972873 167.284433 
L 904.436052 165.834746 
L 904.89923 165.919604 
L 905.362408 175.038112 
L 905.825586 180.622688 
L 906.288764 182.673331 
L 906.751942 185.284026 
L 907.215121 194.856177 
L 907.678299 188.455625 
L 908.141477 189.772598 
L 908.604655 189.073382 
L 909.067833 190.278346 
L 909.531011 193.583507 
L 909.99419 188.661493 
L 910.920546 197.55123 
L 911.383724 208.310692 
L 911.846902 192.383643 
L 912.31008 192.199676 
L 912.773259 196.893767 
L 913.236437 193.086259 
L 913.699615 183.454202 
L 914.162793 183.040613 
L 914.625971 171.375565 
L 915.089149 191.163077 
L 915.552328 192.933694 
L 916.015506 191.915248 
L 916.478684 196.973374 
L 917.40504 188.423069 
L 917.868218 187.37662 
L 918.331397 171.774402 
L 918.794575 168.101306 
L 919.257753 166.98205 
L 919.720931 168.461439 
L 920.184109 170.80891 
L 921.573644 194.669705 
L 922.036822 198.719736 
L 922.5 195.164252 
L 923.426356 212.454779 
L 923.889534 209.319334 
L 924.352713 204.302111 
L 924.815891 210.301126 
L 925.279069 210.643608 
L 925.742247 201.610808 
L 926.205425 175.698019 
L 927.131782 167.097309 
L 927.59496 165.94445 
L 928.521316 151.687208 
L 928.984494 154.768348 
L 929.447672 170.904317 
L 929.910851 159.457689 
L 930.837207 151.148207 
L 931.300385 159.0514 
L 933.616276 219.160507 
L 934.079454 228.463832 
L 934.542632 231.393758 
L 935.00581 230.291304 
L 935.468989 218.13341 
L 935.932167 209.167816 
L 936.395345 205.057879 
L 936.858523 210.356828 
L 937.321701 209.383186 
L 937.784879 205.564476 
L 938.248058 192.140863 
L 938.711236 188.439764 
L 939.174414 186.155599 
L 939.637592 190.900096 
L 940.10077 176.866025 
L 940.563948 169.776607 
L 941.027127 166.786776 
L 941.490305 172.119328 
L 941.953483 169.767956 
L 942.416661 178.942469 
L 942.879839 177.767209 
L 943.343017 178.972172 
L 943.806196 176.217563 
L 944.269374 178.733049 
L 944.732552 173.676623 
L 945.19573 181.221383 
L 945.658908 174.333585 
L 946.122086 180.198187 
L 947.048443 197.040671 
L 947.511621 191.765825 
L 947.974799 184.200363 
L 948.437977 184.167609 
L 948.901155 183.810026 
L 949.364334 179.453666 
L 949.827512 181.112272 
L 950.29069 182.216425 
L 950.753868 180.581921 
L 951.217046 196.146636 
L 951.680224 192.299924 
L 952.606581 181.408599 
L 953.532937 158.543346 
L 953.996115 162.666184 
L 954.459293 159.715556 
L 954.922472 161.441369 
L 955.38565 167.434783 
L 955.848828 156.716224 
L 956.312006 161.578331 
L 956.775184 156.583511 
L 957.238362 142.33102 
L 958.164719 100.26156 
L 958.627897 90.136657 
L 959.091075 101.103339 
L 959.554253 105.523005 
L 960.017431 121.266936 
L 960.48061 123.687214 
L 960.943788 137.470961 
L 961.406966 159.005838 
L 962.333322 182.109712 
L 962.7965 158.845972 
L 963.259679 158.404381 
L 964.649213 203.328758 
L 965.112391 213.399356 
L 965.575569 198.446799 
L 966.038748 224.002854 
L 966.501926 232.068463 
L 967.89146 188.633324 
L 968.354638 183.128856 
L 968.817817 184.120999 
L 969.744173 155.23518 
L 970.207351 157.229818 
L 970.670529 158.658802 
L 971.596886 164.79868 
L 972.98642 202.212751 
L 973.449598 212.585777 
L 973.912776 229.377007 
L 974.375955 228.750598 
L 974.839133 216.945537 
L 975.302311 211.956317 
L 975.765489 209.257713 
L 976.228667 198.001504 
L 977.155024 182.545749 
L 977.618202 187.895102 
L 978.08138 185.879762 
L 978.544558 187.504765 
L 979.007736 187.303996 
L 979.470914 192.709355 
L 979.934093 188.588217 
L 980.397271 177.662438 
L 980.860449 163.717976 
L 981.323627 163.309987 
L 981.786805 158.578392 
L 982.249983 172.322935 
L 982.713162 168.929866 
L 983.17634 184.802609 
L 983.639518 177.657187 
L 984.102696 186.792496 
L 984.565874 187.46541 
L 985.029052 188.474354 
L 985.492231 163.709674 
L 985.955409 168.515776 
L 986.418587 159.029333 
L 986.881765 171.558562 
L 987.808121 157.049296 
L 988.2713 137.879542 
L 989.197656 134.901833 
L 989.660834 128.429395 
L 990.124012 129.047224 
L 990.58719 126.22633 
L 991.513547 115.163232 
L 991.976725 114.896178 
L 992.439903 123.919477 
L 992.903081 124.726803 
L 993.366259 120.504855 
L 993.829438 115.050792 
L 994.292616 115.807713 
L 994.755794 122.081153 
L 995.218972 132.325367 
L 995.68215 133.978373 
L 996.608507 140.21906 
L 997.534863 161.855596 
L 997.998041 175.50493 
L 998.461219 182.926479 
L 998.924397 183.548987 
L 999.387576 180.615161 
L 999.850754 191.97948 
L 1000.313932 171.824033 
L 1000.77711 167.01403 
L 1001.703466 127.548816 
L 1002.166645 118.196785 
L 1002.629823 104.179516 
L 1003.093001 86.757126 
L 1003.556179 95.685216 
L 1004.019357 83.678536 
L 1004.482535 91.290503 
L 1004.945714 105.191861 
L 1005.408892 108.861056 
L 1005.87207 123.664099 
L 1006.335248 129.248674 
L 1006.798426 137.846333 
L 1007.261604 152.15093 
L 1007.724783 155.624106 
L 1008.187961 154.426444 
L 1008.651139 149.795658 
L 1009.114317 138.13621 
L 1009.577495 133.600633 
L 1010.040673 133.321457 
L 1010.503852 136.917845 
L 1010.96703 132.690297 
L 1011.430208 125.673687 
L 1011.893386 129.796524 
L 1012.356564 144.700377 
L 1012.819742 135.107524 
L 1013.282921 128.807781 
L 1013.746099 131.065643 
L 1014.209277 144.782184 
L 1014.672455 147.700909 
L 1015.135633 154.416791 
L 1015.598811 148.262661 
L 1016.06199 164.549844 
L 1016.525168 168.168635 
L 1017.451524 151.687983 
L 1017.914702 167.616732 
L 1018.37788 165.024538 
L 1018.841059 165.501433 
L 1019.304237 158.300005 
L 1019.767415 167.754545 
L 1020.230593 181.319871 
L 1020.693771 185.946757 
L 1021.156949 171.912686 
L 1021.620127 176.987613 
L 1022.083306 192.462719 
L 1022.546484 192.765998 
L 1023.009662 190.621846 
L 1023.47284 170.948044 
L 1023.936018 168.971908 
L 1024.399196 179.624961 
L 1024.862375 178.696123 
L 1025.325553 164.034793 
L 1025.788731 162.243474 
L 1026.251909 167.010373 
L 1026.715087 183.7736 
L 1027.178265 187.70602 
L 1028.104622 171.421387 
L 1028.5678 168.425955 
L 1029.030978 175.981916 
L 1029.494156 171.743167 
L 1029.957334 165.045787 
L 1030.420513 153.901588 
L 1030.883691 156.652297 
L 1031.346869 165.93882 
L 1031.810047 178.249629 
L 1032.273225 171.798672 
L 1032.736403 169.111269 
L 1033.199582 164.374073 
L 1033.66276 181.02529 
L 1034.125938 179.088357 
L 1034.589116 189.814217 
L 1035.052294 189.781463 
L 1035.515472 203.738827 
L 1035.978651 208.12489 
L 1036.441829 221.214171 
L 1036.905007 227.762037 
L 1037.368185 231.996886 
L 1037.831363 230.362382 
L 1038.75772 236.524662 
L 1039.220898 233.966071 
L 1040.147254 202.117573 
L 1040.610432 205.652356 
L 1041.536789 183.571177 
L 1041.999967 175.272046 
L 1042.463145 171.666156 
L 1042.926323 177.575562 
L 1043.389501 180.09665 
L 1043.852679 180.349523 
L 1044.315858 173.120093 
L 1045.242214 168.910196 
L 1045.705392 184.984559 
L 1046.16857 185.579065 
L 1046.631748 181.138697 
L 1048.021283 175.748932 
L 1048.484461 168.878857 
L 1048.947639 176.23412 
L 1049.410817 172.741163 
L 1049.873996 184.240816 
L 1050.337174 191.523273 
L 1051.726708 243.784341 
L 1052.189886 247.660756 
L 1052.653065 257.602541 
L 1053.116243 259.065129 
L 1053.579421 266.587487 
L 1054.042599 250.632435 
L 1054.505777 246.724117 
L 1054.968955 249.575635 
L 1055.432134 251.385456 
L 1055.895312 232.316511 
L 1056.821668 220.949141 
L 1057.284846 215.875913 
L 1057.748024 199.545626 
L 1058.211203 193.262685 
L 1058.674381 174.759393 
L 1059.137559 176.423599 
L 1059.600737 176.491656 
L 1060.527093 172.337765 
L 1060.990272 180.028138 
L 1061.45345 177.17832 
L 1061.916628 186.145614 
L 1062.379806 186.409688 
L 1063.306162 185.4705 
L 1063.769341 193.989751 
L 1064.695697 200.896901 
L 1065.158875 212.709263 
L 1065.622053 212.402084 
L 1066.085231 210.543559 
L 1066.54841 215.674491 
L 1067.011588 218.509208 
L 1067.937944 238.437583 
L 1068.401122 233.733991 
L 1068.8643 247.43373 
L 1069.327479 244.701523 
L 1069.790657 232.431618 
L 1070.253835 230.746709 
L 1071.180191 222.818062 
L 1071.643369 215.683841 
L 1072.106548 215.25345 
L 1072.569726 216.648831 
L 1073.032904 227.90114 
L 1073.496082 225.98661 
L 1073.95926 221.540641 
L 1074.422438 212.026196 
L 1074.885617 210.862136 
L 1075.348795 197.460925 
L 1075.811973 190.164288 
L 1076.275151 185.94234 
L 1077.664686 236.663264 
L 1078.127864 233.684633 
L 1078.591042 223.996571 
L 1079.05422 231.188498 
L 1079.517398 232.858305 
L 1079.980576 216.696034 
L 1080.443755 209.808235 
L 1080.906933 207.070428 
L 1081.370111 218.087514 
L 1081.833289 241.09533 
L 1082.296467 247.839214 
L 1082.759645 241.561873 
L 1083.222824 243.646119 
L 1083.686002 228.491943 
L 1084.14918 217.190929 
L 1084.612358 220.266469 
L 1085.075536 217.635071 
L 1085.538714 231.037982 
L 1086.001893 249.251746 
L 1086.465071 257.625384 
L 1087.391427 268.699326 
L 1087.854605 267.927303 
L 1088.317783 258.233641 
L 1088.780962 241.981761 
L 1089.24414 220.924629 
L 1089.707318 211.102155 
L 1090.170496 205.989723 
L 1090.633674 204.512034 
L 1091.096852 198.044275 
L 1092.023209 206.765996 
L 1092.486387 218.936791 
L 1092.949565 224.891001 
L 1093.412743 223.228495 
L 1093.875921 219.269772 
L 1094.3391 219.321027 
L 1094.802278 218.123364 
L 1095.265456 212.792512 
L 1095.728634 213.594237 
L 1096.191812 210.990842 
L 1096.65499 215.315299 
L 1097.118169 220.709457 
L 1097.581347 221.057539 
L 1098.044525 217.916494 
L 1098.507703 212.88807 
L 1099.434059 196.160996 
L 1099.897238 196.122642 
L 1100.360416 189.391658 
L 1100.823594 185.808171 
L 1101.286772 186.839518 
L 1101.74995 196.406068 
L 1102.213128 194.065898 
L 1103.139485 197.864755 
L 1103.602663 194.247664 
L 1104.065841 185.584499 
L 1104.529019 186.005388 
L 1104.992197 176.054102 
L 1105.455376 191.97725 
L 1106.381732 188.417086 
L 1106.84491 185.741806 
L 1107.308088 188.370225 
L 1107.771266 196.565567 
L 1108.234445 197.015381 
L 1108.697623 200.976725 
L 1109.160801 184.837777 
L 1109.623979 188.512573 
L 1110.087157 193.934733 
L 1110.550335 197.447114 
L 1111.013514 197.638381 
L 1111.476692 200.17627 
L 1112.403048 217.259578 
L 1112.866226 231.564174 
L 1113.329404 209.913386 
L 1113.792583 208.066062 
L 1114.255761 207.977304 
L 1114.718939 212.335364 
L 1115.182117 210.611251 
L 1115.645295 205.224394 
L 1116.108473 196.348409 
L 1116.571652 216.44955 
L 1117.03483 223.837495 
L 1117.498008 224.213581 
L 1118.424364 209.200267 
L 1118.887542 207.772983 
L 1119.35072 201.182013 
L 1119.813899 204.856808 
L 1120.277077 196.899309 
L 1120.740255 196.816151 
L 1121.203433 185.705556 
L 1121.666611 186.07044 
L 1122.592968 204.509075 
L 1123.056146 201.614452 
L 1123.519324 208.895987 
L 1123.982502 211.450678 
L 1124.44568 218.530594 
L 1124.908858 214.101427 
L 1125.835215 180.533567 
L 1126.298393 175.001097 
L 1126.761571 161.493475 
L 1127.224749 158.895681 
L 1127.687927 155.541815 
L 1128.151106 153.173642 
L 1128.614284 149.534149 
L 1129.077462 167.227064 
L 1129.54064 172.979655 
L 1130.003818 183.520697 
L 1130.466996 189.659725 
L 1130.930175 206.730982 
L 1131.393353 214.242138 
L 1131.856531 233.318384 
L 1132.319709 237.31801 
L 1132.782887 249.701625 
L 1133.246065 268.637857 
L 1133.709244 273.242341 
L 1134.172422 268.202716 
L 1134.6356 273.725686 
L 1135.561956 261.97748 
L 1136.025134 256.624226 
L 1136.951491 231.9164 
L 1137.414669 231.990057 
L 1137.877847 224.564608 
L 1138.341025 207.943094 
L 1138.804203 207.69192 
L 1139.267382 205.67658 
L 1139.73056 204.61893 
L 1140.656916 208.529798 
L 1141.120094 217.631505 
L 1141.583272 230.793593 
L 1142.046451 226.146006 
L 1142.509629 220.361511 
L 1142.972807 209.043696 
L 1143.435985 210.091844 
L 1143.899163 197.491508 
L 1144.362341 190.07726 
L 1144.82552 207.781377 
L 1145.288698 220.14259 
L 1145.751876 212.801149 
L 1146.215054 213.66448 
L 1146.678232 204.441262 
L 1147.14141 210.90512 
L 1147.604589 208.626555 
L 1148.530945 175.52354 
L 1148.994123 172.640118 
L 1149.457301 172.965799 
L 1149.920479 179.799292 
L 1150.383658 173.958792 
L 1151.310014 157.914982 
L 1151.773192 165.218919 
L 1152.23637 175.32872 
L 1152.699548 165.45024 
L 1153.162727 163.591715 
L 1153.625905 160.691492 
L 1154.089083 172.828684 
L 1154.552261 178.329252 
L 1155.015439 172.275932 
L 1155.478617 162.828693 
L 1155.941796 159.844462 
L 1156.404974 159.307661 
L 1156.868152 165.922734 
L 1158.257686 150.613585 
L 1158.720865 150.873903 
L 1159.184043 149.890903 
L 1159.647221 148.392655 
L 1160.110399 166.182621 
L 1160.573577 164.325939 
L 1161.036755 160.598681 
L 1161.499934 175.418526 
L 1161.963112 173.565601 
L 1162.42629 164.420791 
L 1162.889468 176.429171 
L 1163.352646 170.616674 
L 1163.815824 180.911292 
L 1164.279003 184.261257 
L 1164.742181 186.496718 
L 1165.205359 190.597153 
L 1165.668537 196.181729 
L 1166.131715 187.79859 
L 1166.594893 194.07203 
L 1167.058072 190.958987 
L 1167.52125 196.30274 
L 1167.984428 197.950145 
L 1168.447606 206.194971 
L 1169.373962 225.014441 
L 1169.837141 223.570355 
L 1170.300319 223.055957 
L 1170.763497 211.284499 
L 1171.689853 184.252455 
L 1172.153031 182.225914 
L 1172.61621 179.264085 
L 1173.079388 178.58167 
L 1173.542566 170.327343 
L 1174.005744 174.578993 
L 1174.468922 173.168511 
L 1174.9321 166.846365 
L 1175.395279 166.494382 
L 1175.858457 165.755963 
L 1176.321635 156.202313 
L 1176.784813 164.211917 
L 1177.247991 168.805199 
L 1177.711169 182.784965 
L 1178.174348 190.408132 
L 1178.637526 186.085375 
L 1179.563882 174.505185 
L 1180.02706 165.197959 
L 1180.490238 158.371766 
L 1180.953417 154.659467 
L 1181.416595 153.383397 
L 1181.879773 151.048827 
L 1182.342951 147.666958 
L 1182.806129 158.168797 
L 1183.269307 162.745277 
L 1183.732486 165.383975 
L 1184.658842 152.482061 
L 1185.12202 150.981969 
L 1185.585198 163.757622 
L 1186.048376 161.641472 
L 1186.511555 153.683973 
L 1186.974733 154.580908 
L 1187.437911 152.750385 
L 1188.364267 171.547454 
L 1188.827445 173.693306 
L 1190.21698 198.478188 
L 1190.680158 199.55994 
L 1191.143336 199.829615 
L 1192.996049 170.111018 
L 1193.459227 157.393071 
L 1193.922405 158.816454 
L 1194.385583 152.544714 
L 1194.848762 160.218286 
L 1195.31194 144.940898 
L 1195.775118 142.488717 
L 1196.238296 140.674996 
L 1196.701474 151.714485 
L 1197.164652 152.773835 
L 1197.627831 149.840008 
L 1198.091009 134.181785 
L 1198.554187 147.427881 
L 1199.017365 164.319921 
L 1199.480543 174.592138 
L 1199.943721 175.696291 
L 1200.4069 170.186223 
L 1200.870078 175.664388 
L 1201.333256 189.683357 
L 1201.796434 186.715928 
L 1202.259612 167.344555 
L 1202.72279 155.085851 
L 1203.185969 151.860797 
L 1203.649147 154.516297 
L 1204.112325 151.918502 
L 1204.575503 142.275245 
L 1205.038681 154.468442 
L 1205.501859 156.491082 
L 1205.965038 161.325187 
L 1206.428216 147.268714 
L 1207.354572 168.882848 
L 1207.81775 174.080987 
L 1208.744107 154.77207 
L 1209.207285 159.124529 
L 1209.670463 162.211269 
L 1210.133641 149.68374 
L 1210.596819 142.275093 
L 1211.059997 144.622564 
L 1211.523176 133.125531 
L 1211.986354 135.859439 
L 1212.449532 127.078662 
L 1212.91271 136.135564 
L 1213.375888 139.69835 
L 1213.839066 150.810645 
L 1214.302245 138.798365 
L 1214.765423 146.970384 
L 1215.228601 164.99933 
L 1215.691779 175.377957 
L 1216.154957 160.016561 
L 1216.618135 155.699405 
L 1217.081314 128.207267 
L 1217.544492 134.564715 
L 1218.00767 144.612911 
L 1218.470848 134.689627 
L 1218.934026 147.034038 
L 1219.397204 165.707046 
L 1219.860382 174.545527 
L 1220.323561 195.307531 
L 1220.786739 195.207572 
L 1221.249917 199.274404 
L 1221.713095 209.389806 
L 1222.176273 209.127431 
L 1222.639451 220.071711 
L 1223.10263 237.871036 
L 1223.565808 235.777289 
L 1224.028986 242.69479 
L 1224.492164 237.335936 
L 1224.955342 236.244683 
L 1225.41852 230.930632 
L 1225.881699 232.522032 
L 1226.344877 223.702052 
L 1226.808055 222.83482 
L 1227.271233 224.650241 
L 1228.197589 231.680602 
L 1228.660768 233.199195 
L 1229.587124 187.735816 
L 1230.050302 194.888539 
L 1230.51348 196.619952 
L 1230.976658 194.408594 
L 1231.439837 191.351556 
L 1231.903015 184.693379 
L 1232.366193 197.625846 
L 1232.829371 216.976517 
L 1233.292549 200.517418 
L 1233.755727 196.312272 
L 1234.218906 200.636729 
L 1234.682084 208.338304 
L 1235.145262 218.347295 
L 1235.60844 234.091227 
L 1236.071618 235.368997 
L 1236.534796 239.33502 
L 1237.924331 220.480595 
L 1238.387509 211.296581 
L 1238.850687 199.435515 
L 1239.313865 191.153185 
L 1239.777044 197.152199 
L 1240.7034 222.210657 
L 1241.166578 220.53695 
L 1241.629756 216.270198 
L 1242.092934 209.690429 
L 1242.556113 205.972529 
L 1243.019291 208.247193 
L 1243.482469 208.472064 
L 1243.945647 200.273742 
L 1244.408825 202.391591 
L 1245.79836 224.084982 
L 1246.261538 228.706267 
L 1246.724716 218.043714 
L 1247.187894 226.08692 
L 1247.651072 238.817769 
L 1248.114251 236.60641 
L 1248.577429 232.961317 
L 1249.040607 237.436988 
L 1249.503785 228.521799 
L 1249.966963 242.288745 
L 1250.430141 232.107836 
L 1250.89332 213.397325 
L 1251.356498 213.179755 
L 1251.819676 204.763012 
L 1252.282854 205.811161 
L 1252.746032 217.875546 
L 1253.20921 208.865148 
L 1254.135567 221.921677 
L 1254.598745 225.294044 
L 1255.061923 229.495289 
L 1255.988279 209.491906 
L 1256.451458 207.134934 
L 1256.914636 193.498501 
L 1257.377814 183.491209 
L 1257.840992 178.490788 
L 1258.30417 175.825787 
L 1258.767348 176.224274 
L 1259.230527 175.726677 
L 1259.693705 182.856998 
L 1260.620061 206.655338 
L 1261.083239 209.327639 
L 1261.546417 207.127482 
L 1262.009596 211.99519 
L 1262.472774 215.574777 
L 1262.935952 216.051672 
L 1264.325486 193.864933 
L 1264.788665 196.257208 
L 1265.251843 184.205724 
L 1265.715021 197.087786 
L 1266.178199 202.700364 
L 1266.641377 204.868618 
L 1267.104555 208.795437 
L 1267.567734 211.770167 
L 1268.030912 207.312998 
L 1268.49409 219.623806 
L 1268.957268 205.152894 
L 1269.420446 196.864964 
L 1269.883624 193.10226 
L 1270.346803 198.334002 
L 1271.273159 231.009177 
L 1271.736337 232.10773 
L 1272.199515 231.173292 
L 1272.662693 235.710569 
L 1273.125872 242.31444 
L 1273.58905 242.180878 
L 1274.052228 221.27496 
L 1274.515406 206.221593 
L 1275.441762 200.174724 
L 1275.904941 197.683339 
L 1276.368119 185.704662 
L 1276.831297 177.853573 
L 1277.294475 180.48667 
L 1277.757653 190.344448 
L 1278.220831 185.243218 
L 1278.68401 175.079111 
L 1279.147188 172.906956 
L 1279.610366 169.340271 
L 1280.073544 161.214756 
L 1280.536722 173.68798 
L 1280.9999 164.587973 
L 1281.926257 174.917045 
L 1282.389435 176.385233 
L 1282.852613 180.636883 
L 1283.315791 179.091987 
L 1283.778969 171.15689 
L 1284.242148 172.00342 
L 1284.705326 167.955089 
L 1285.168504 165.642921 
L 1285.631682 155.870851 
L 1286.09486 152.791411 
L 1286.558038 155.788543 
L 1287.021217 155.313348 
L 1287.484395 153.085189 
L 1287.947573 142.971487 
L 1288.410751 151.065098 
L 1289.337107 159.383581 
L 1289.800286 158.94759 
L 1290.263464 158.337982 
L 1290.726642 150.570901 
L 1291.18982 158.227672 
L 1291.652998 157.528456 
L 1292.116176 155.753938 
L 1292.579355 147.751635 
L 1293.042533 145.232248 
L 1293.505711 146.622029 
L 1294.432067 157.975997 
L 1295.358424 139.535161 
L 1295.821602 151.459533 
L 1296.28478 159.155507 
L 1296.747958 151.035593 
L 1297.211136 160.411725 
L 1298.600671 180.704985 
L 1299.063849 175.290125 
L 1299.527027 160.976028 
L 1299.990205 170.144941 
L 1300.453383 165.78298 
L 1300.916562 163.173984 
L 1301.37974 164.546963 
L 1301.842918 179.764445 
L 1302.769274 196.2821 
L 1303.232452 199.116816 
L 1303.695631 198.445603 
L 1304.158809 191.837831 
L 1304.621987 188.103129 
L 1305.085165 181.321741 
L 1305.548343 170.46877 
L 1306.011521 179.660084 
L 1306.4747 173.982 
L 1306.937878 179.880205 
L 1307.401056 183.997442 
L 1307.864234 185.129599 
L 1308.327412 182.212574 
L 1308.79059 189.253287 
L 1309.253769 191.382337 
L 1309.716947 192.26807 
L 1310.180125 184.741812 
L 1310.643303 180.223036 
L 1311.106481 181.573613 
L 1312.032838 190.457749 
L 1312.496016 191.00185 
L 1312.959194 188.532868 
L 1313.422372 188.914553 
L 1313.88555 190.522755 
L 1314.348728 185.987178 
L 1314.811907 172.815588 
L 1315.275085 153.724241 
L 1315.738263 143.41452 
L 1316.201441 145.089928 
L 1316.664619 154.740486 
L 1317.127797 159.372972 
L 1317.590975 171.554968 
L 1318.517332 189.220731 
L 1318.98051 198.944096 
L 1319.443688 201.616397 
L 1319.906866 193.770909 
L 1320.370044 193.1501 
L 1320.833223 185.915069 
L 1321.759579 222.062571 
L 1322.222757 224.516452 
L 1322.685935 214.688376 
L 1323.149113 210.735254 
L 1324.07547 215.430196 
L 1324.538648 197.139724 
L 1325.001826 189.65267 
L 1325.465004 189.412697 
L 1325.928182 198.407993 
L 1326.391361 217.372228 
L 1326.854539 215.452097 
L 1327.317717 211.157343 
L 1327.780895 211.735047 
L 1328.244073 204.634429 
L 1328.707251 183.056448 
L 1329.17043 171.833841 
L 1329.633608 157.334927 
L 1330.096786 150.105496 
L 1330.559964 152.828202 
L 1331.023142 154.626821 
L 1331.48632 158.576043 
L 1331.949499 183.661654 
L 1332.412677 199.764019 
L 1332.875855 192.265763 
L 1333.339033 210.378718 
L 1333.802211 216.758568 
L 1334.265389 220.035726 
L 1334.728568 219.325309 
L 1335.191746 210.292509 
L 1335.654924 211.340658 
L 1336.118102 221.652078 
L 1337.044458 218.27666 
L 1337.507637 223.614812 
L 1337.970815 217.740709 
L 1338.433993 217.95998 
L 1338.897171 218.722502 
L 1339.360349 218.667346 
L 1340.286706 205.575014 
L 1340.749884 192.593842 
L 1341.213062 202.804453 
L 1342.139418 186.990264 
L 1343.065775 161.184735 
L 1343.528953 153.428855 
L 1343.992131 153.401702 
L 1344.455309 150.994326 
L 1344.918487 160.264048 
L 1345.381665 163.429196 
L 1346.308022 187.630773 
L 1346.7712 189.233374 
L 1347.234378 180.637415 
L 1347.697556 167.241804 
L 1348.160734 165.702509 
L 1348.623913 142.085936 
L 1349.087091 127.010167 
L 1349.550269 132.169103 
L 1350.013447 146.109664 
L 1350.939803 152.44556 
L 1351.402982 149.164502 
L 1351.86616 157.790163 
L 1352.329338 170.61622 
L 1353.255694 144.47466 
L 1353.718872 145.141972 
L 1354.182051 147.159012 
L 1354.645229 155.056605 
L 1355.108407 165.015192 
L 1355.571585 156.800069 
L 1356.034763 151.082781 
L 1356.497941 149.649896 
L 1357.424298 164.072953 
L 1357.887476 160.724688 
L 1358.350654 161.935252 
L 1358.813832 164.624354 
L 1359.27701 170.376946 
L 1359.740189 183.427024 
L 1361.129723 153.830788 
L 1361.592901 135.204285 
L 1362.056079 136.711677 
L 1362.519258 146.748671 
L 1362.982436 137.799879 
L 1363.445614 135.454108 
L 1363.908792 135.124527 
L 1364.37197 133.428417 
L 1364.835148 153.798384 
L 1365.298327 155.893831 
L 1365.761505 140.627644 
L 1366.224683 140.174851 
L 1366.687861 144.924948 
L 1367.151039 139.437282 
L 1367.614217 148.494184 
L 1368.077396 136.537908 
L 1368.540574 131.873519 
L 1369.003752 135.688328 
L 1369.46693 142.82425 
L 1369.930108 154.322982 
L 1370.393286 168.705985 
L 1370.856465 165.833765 
L 1371.319643 166.114641 
L 1371.782821 179.763976 
L 1372.245999 175.02678 
L 1372.709177 183.53483 
L 1373.172355 171.802576 
L 1373.635534 179.257728 
L 1374.098712 193.024673 
L 1374.56189 190.902923 
L 1375.025068 182.362969 
L 1375.488246 193.626479 
L 1375.951424 194.103374 
L 1376.414603 189.735813 
L 1377.340959 175.164941 
L 1377.804137 193.888353 
L 1378.267315 190.24326 
L 1378.730493 195.727026 
L 1379.193672 180.628855 
L 1379.65685 199.285061 
L 1380.120028 192.072432 
L 1380.583206 188.33773 
L 1381.046384 174.477275 
L 1381.509562 170.440145 
L 1381.972741 175.520673 
L 1382.435919 173.78536 
L 1382.899097 174.811106 
L 1383.362275 185.16173 
L 1383.825453 179.976492 
L 1384.288631 184.256145 
L 1384.75181 201.114581 
L 1385.214988 186.901294 
L 1385.678166 203.507706 
L 1386.141344 186.796583 
L 1386.604522 187.340685 
L 1387.0677 203.202227 
L 1387.530879 204.575206 
L 1387.994057 188.670559 
L 1388.457235 186.476003 
L 1388.920413 170.380938 
L 1389.383591 180.485139 
L 1389.846769 174.34221 
L 1390.309948 163.438834 
L 1390.773126 165.797506 
L 1391.236304 166.823252 
L 1391.699482 175.969763 
L 1392.625838 210.173882 
L 1393.089017 220.468501 
L 1393.552195 225.392214 
L 1394.015373 225.35386 
L 1394.478551 231.19606 
L 1394.941729 233.235502 
L 1395.404907 207.406721 
L 1395.868086 201.459811 
L 1396.331264 205.750664 
L 1396.794442 200.212593 
L 1397.25762 201.8824 
L 1397.720798 191.628685 
L 1398.183976 185.31214 
L 1398.647155 194.929095 
L 1399.573511 162.884579 
L 1400.036689 161.177268 
L 1400.499867 151.914847 
L 1400.963045 160.019659 
L 1401.426224 159.734882 
L 1401.889402 171.916879 
L 1402.815758 180.773012 
L 1403.742114 201.031818 
L 1404.205293 203.295281 
L 1404.668471 201.761587 
L 1405.131649 190.018131 
L 1405.594827 197.691703 
L 1406.058005 207.476674 
L 1406.521183 185.165024 
L 1406.984362 187.008448 
L 1407.44754 177.522005 
L 1407.910718 173.776102 
L 1408.373896 174.684237 
L 1408.837074 163.192806 
L 1409.300252 142.701327 
L 1409.763431 164.891465 
L 1410.226609 161.96884 
L 1410.689787 165.100385 
L 1411.152965 173.395615 
L 1411.616143 176.723178 
L 1412.5425 206.514082 
L 1413.005678 201.28964 
L 1413.468856 199.862355 
L 1414.85839 213.047696 
L 1415.321568 223.588738 
L 1415.784747 231.04949 
L 1416.247925 227.040363 
L 1416.711103 234.618726 
L 1417.174281 235.750882 
L 1417.637459 232.789053 
L 1418.100637 219.460649 
L 1418.563816 213.916977 
L 1419.026994 196.830619 
L 1419.95335 178.031349 
L 1420.879706 166.983209 
L 1421.342885 164.727047 
L 1422.269241 147.361512 
L 1422.732419 150.655472 
L 1423.658775 143.505299 
L 1424.121954 152.02455 
L 1424.585132 153.946381 
L 1425.04831 159.010108 
L 1425.511488 173.135487 
L 1425.974666 165.570025 
L 1426.437844 168.309532 
L 1426.901023 173.759695 
L 1427.364201 169.739367 
L 1427.827379 174.427858 
L 1428.753735 157.807193 
L 1429.216913 164.99912 
L 1430.14327 159.999549 
L 1430.606448 161.422933 
L 1431.069626 164.610483 
L 1431.532804 181.995369 
L 1431.995982 181.391362 
L 1432.459161 200.753234 
L 1432.922339 212.29117 
L 1433.848695 201.825485 
L 1434.311873 200.756634 
L 1434.775051 188.441925 
L 1435.23823 190.794996 
L 1435.701408 160.87783 
L 1436.164586 140.929603 
L 1437.090942 143.815646 
L 1437.55412 144.416673 
L 1438.017299 137.737016 
L 1438.480477 137.391555 
L 1438.943655 133.024915 
L 1439.870011 155.374561 
L 1440.333189 151.578254 
L 1440.796368 150.464599 
L 1441.259546 154.845061 
L 1441.722724 150.735124 
L 1442.185902 157.647024 
L 1442.64908 156.796594 
L 1443.112258 152.546644 
L 1443.575437 152.334674 
L 1444.501793 132.706526 
L 1444.964971 129.274253 
L 1445.428149 123.909798 
L 1446.354506 131.175382 
L 1446.817684 128.952823 
L 1447.280862 152.19586 
L 1447.74404 152.840771 
L 1448.207218 160.38553 
L 1448.670396 164.990014 
L 1449.133575 157.766184 
L 1449.596753 153.437826 
L 1450.059931 163.474821 
L 1450.523109 154.811655 
L 1450.986287 170.930822 
L 1451.449465 171.390915 
L 1451.912644 162.755752 
L 1452.375822 166.318538 
L 1452.839 176.529149 
L 1453.302178 173.768939 
L 1453.765356 176.116409 
L 1454.228534 169.995883 
L 1454.691713 169.554292 
L 1455.618069 184.464595 
L 1456.081247 182.902897 
L 1456.544425 187.961023 
L 1457.470782 202.994538 
L 1457.93396 200.799981 
L 1458.397138 203.881121 
L 1458.860316 197.306952 
L 1459.323494 200.192074 
L 1459.786672 198.66398 
L 1460.713029 177.557293 
L 1461.176207 182.492207 
L 1461.639385 176.332478 
L 1462.102563 184.028452 
L 1462.565741 179.268854 
L 1463.02892 186.494384 
L 1463.492098 204.601738 
L 1464.418454 196.622758 
L 1464.881632 183.704113 
L 1465.34481 197.752007 
L 1465.807989 200.195608 
L 1466.271167 204.078545 
L 1467.197523 203.331617 
L 1467.660701 220.184453 
L 1468.123879 242.206575 
L 1468.587058 232.563318 
L 1469.050236 229.147846 
L 1469.513414 235.191665 
L 1469.976592 230.051231 
L 1470.43977 217.277279 
L 1470.902948 212.601688 
L 1471.366127 200.387789 
L 1471.829305 193.102353 
L 1472.292483 189.541268 
L 1472.755661 184.300024 
L 1473.218839 196.078783 
L 1473.682017 189.975058 
L 1474.145196 190.345543 
L 1474.608374 190.95125 
L 1475.071552 187.154942 
L 1475.53473 177.259661 
L 1475.997908 160.862167 
L 1476.461086 128.788799 
L 1476.924265 129.3329 
L 1477.387443 125.581397 
L 1477.850621 118.07194 
L 1478.313799 115.048505 
L 1478.776977 110.339312 
L 1479.240155 111.59468 
L 1479.703334 127.557032 
L 1480.62969 118.424272 
L 1481.092868 120.21169 
L 1481.556046 118.773205 
L 1482.019224 130.19913 
L 1482.482403 134.994031 
L 1482.945581 128.067029 
L 1483.408759 124.953986 
L 1483.871937 123.929939 
L 1484.335115 123.701168 
L 1484.798293 126.435075 
L 1485.261472 122.521156 
L 1485.72465 130.625969 
L 1486.651006 137.045873 
L 1487.114184 131.149368 
L 1487.577362 122.026959 
L 1488.040541 124.447237 
L 1488.503719 124.582499 
L 1488.966897 113.410298 
L 1489.430075 107.967435 
L 1489.893253 106.456143 
L 1490.356431 114.056908 
L 1490.81961 116.180358 
L 1491.282788 121.910547 
L 1491.745966 129.16968 
L 1492.209144 133.449333 
L 1492.672322 150.134153 
L 1493.1355 160.658393 
L 1493.598679 178.978568 
L 1494.061857 204.93226 
L 1494.525035 219.113645 
L 1494.988213 225.359082 
L 1496.377748 275.883987 
L 1496.840926 271.477222 
L 1497.304104 269.187457 
L 1497.767282 274.340791 
L 1498.23046 283.907342 
L 1498.693638 289.73834 
L 1499.156817 291.301737 
L 1499.619995 278.326166 
L 1500.083173 279.133492 
L 1500.546351 282.309841 
L 1501.009529 266.707622 
L 1501.472707 257.960449 
L 1501.935886 236.673695 
L 1502.399064 206.23568 
L 1502.862242 185.62099 
L 1503.32542 176.016936 
L 1503.788598 153.733289 
L 1504.251776 154.966255 
L 1504.714955 147.955245 
L 1505.178133 154.984756 
L 1505.641311 165.43619 
L 1506.104489 184.540437 
L 1506.567667 187.139932 
L 1507.030845 212.264746 
L 1507.494024 220.246348 
L 1507.957202 219.84396 
L 1508.42038 211.656839 
L 1508.883558 214.821987 
L 1509.346736 216.693413 
L 1509.809914 220.295401 
L 1510.273093 206.770979 
L 1510.736271 199.24472 
L 1511.199449 198.763925 
L 1511.662627 209.108948 
L 1512.125805 202.809205 
L 1512.588983 202.793254 
L 1513.052161 205.039915 
L 1513.51534 211.811802 
L 1513.978518 211.846255 
L 1514.441696 213.359247 
L 1514.904874 218.562987 
L 1515.368052 209.552589 
L 1515.83123 193.575135 
L 1516.294409 182.671759 
L 1516.757587 176.030384 
L 1517.220765 178.159434 
L 1517.683943 178.613926 
L 1518.147121 162.782086 
L 1518.610299 174.280818 
L 1519.073478 189.957544 
L 1519.536656 182.134457 
L 1519.999834 181.356834 
L 1520.463012 173.253721 
L 1521.389368 179.488808 
L 1522.315725 159.838258 
L 1522.778903 155.319483 
L 1523.242081 147.882833 
L 1523.705259 150.011883 
L 1524.168437 148.231765 
L 1524.631616 142.54248 
L 1525.094794 152.058625 
L 1525.557972 151.432216 
L 1526.484328 179.940599 
L 1526.947506 176.575532 
L 1527.410685 170.729432 
L 1527.873863 178.632625 
L 1528.337041 166.586741 
L 1528.800219 165.428282 
L 1529.263397 159.722195 
L 1529.726575 145.620918 
L 1530.189754 145.00571 
L 1530.652932 136.650573 
L 1531.11611 124.403071 
L 1531.579288 128.251483 
L 1532.042466 129.630062 
L 1532.505644 125.816953 
L 1532.968823 125.212946 
L 1533.432001 110.260389 
L 1533.895179 107.813809 
L 1534.358357 119.374146 
L 1534.821535 121.772022 
L 1535.284713 120.439946 
L 1535.747892 127.547865 
L 1536.21107 129.380088 
L 1536.674248 148.069896 
L 1537.137426 154.197723 
L 1537.600604 144.644074 
L 1538.063782 149.651795 
L 1538.526961 159.078332 
L 1538.990139 151.949711 
L 1539.453317 152.336997 
L 1539.916495 148.389476 
L 1540.379673 146.329332 
L 1540.842851 162.381292 
L 1541.30603 162.611764 
L 1541.769208 160.069974 
L 1542.232386 166.315412 
L 1542.695564 162.36789 
L 1543.158742 162.917592 
L 1543.62192 169.207834 
L 1544.085099 155.448189 
L 1544.548277 152.413553 
L 1545.011455 147.928381 
L 1545.474633 165.419677 
L 1545.937811 173.541291 
L 1546.400989 184.435166 
L 1546.864168 186.519412 
L 1547.327346 177.593022 
L 1547.790524 180.181315 
L 1548.253702 184.26495 
L 1548.71688 165.627245 
L 1549.180058 163.858329 
L 1549.643237 170.154171 
L 1551.032771 212.474304 
L 1551.495949 215.717859 
L 1551.959127 235.561376 
L 1552.422306 246.65127 
L 1552.885484 237.433652 
L 1553.348662 234.483024 
L 1553.81184 246.267383 
L 1554.275018 235.761645 
L 1554.738196 238.142719 
L 1555.201375 232.991084 
L 1555.664553 224.904772 
L 1556.127731 240.055048 
L 1556.590909 225.52253 
L 1556.590909 225.52253 
" clip-path="url(#p39e46254ac)" style="fill: none; stroke: #37abb2; stroke-width: 2.5; stroke-linecap: square"/>
   </g>
   <g id="patch_3">
    <path d="M 225 320.4 
L 225 43.2 
" style="fill: none; stroke: #000000; stroke-width: 0.8; stroke-linejoin: miter; stroke-linecap: square"/>
   </g>
   <g id="patch_4">
    <path d="M 1620 320.4 
L 1620 43.2 
" style="fill: none; stroke: #000000; stroke-width: 0.8; stroke-linejoin: miter; stroke-linecap: square"/>
   </g>
   <g id="patch_5">
    <path d="M 225 320.4 
L 1620 320.4 
" style="fill: none; stroke: #000000; stroke-width: 0.8; stroke-linejoin: miter; stroke-linecap: square"/>
   </g>
   <g id="patch_6">
    <path d="M 225 43.2 
L 1620 43.2 
" style="fill: none; stroke: #000000; stroke-width: 0.8; stroke-linejoin: miter; stroke-linecap: square"/>
   </g>
   <g id="text_18">
    <!-- SARN -->
    <g transform="translate(894.69375 37.2) scale(0.2 -0.2)">
     <defs>
      <path id="DejaVuSans-53" d="M 3425 4513 
L 3425 3897 
Q 3066 4069 2747 4153 
Q 2428 4238 2131 4238 
Q 1616 4238 1336 4038 
Q 1056 3838 1056 3469 
Q 1056 3159 1242 3001 
Q 1428 2844 1947 2747 
L 2328 2669 
Q 3034 2534 3370 2195 
Q 3706 1856 3706 1288 
Q 3706 609 3251 259 
Q 2797 -91 1919 -91 
Q 1588 -91 1214 -16 
Q 841 59 441 206 
L 441 856 
Q 825 641 1194 531 
Q 1563 422 1919 422 
Q 2459 422 2753 634 
Q 3047 847 3047 1241 
Q 3047 1584 2836 1778 
Q 2625 1972 2144 2069 
L 1759 2144 
Q 1053 2284 737 2584 
Q 422 2884 422 3419 
Q 422 4038 858 4394 
Q 1294 4750 2059 4750 
Q 2388 4750 2728 4690 
Q 3069 4631 3425 4513 
z
" transform="scale(0.015625)"/>
      <path id="DejaVuSans-41" d="M 2188 4044 
L 1331 1722 
L 3047 1722 
L 2188 4044 
z
M 1831 4666 
L 2547 4666 
L 4325 0 
L 3669 0 
L 3244 1197 
L 1141 1197 
L 716 0 
L 50 0 
L 1831 4666 
z
" transform="scale(0.015625)"/>
      <path id="DejaVuSans-52" d="M 2841 2188 
Q 3044 2119 3236 1894 
Q 3428 1669 3622 1275 
L 4263 0 
L 3584 0 
L 2988 1197 
Q 2756 1666 2539 1819 
Q 2322 1972 1947 1972 
L 1259 1972 
L 1259 0 
L 628 0 
L 628 4666 
L 2053 4666 
Q 2853 4666 3247 4331 
Q 3641 3997 3641 3322 
Q 3641 2881 3436 2590 
Q 3231 2300 2841 2188 
z
M 1259 4147 
L 1259 2491 
L 2053 2491 
Q 2509 2491 2742 2702 
Q 2975 2913 2975 3322 
Q 2975 3731 2742 3939 
Q 2509 4147 2053 4147 
L 1259 4147 
z
" transform="scale(0.015625)"/>
     </defs>
     <use xlink:href="#DejaVuSans-53"/>
     <use xlink:href="#DejaVuSans-41" x="65.351562"/>
     <use xlink:href="#DejaVuSans-52" x="133.759766"/>
     <use xlink:href="#DejaVuSans-4e" x="203.242188"/>
    </g>
   </g>
   <g id="legend_1">
    <g id="patch_7">
     <path d="M 1559.389062 65.878125 
L 1613 65.878125 
Q 1615 65.878125 1615 63.878125 
L 1615 50.2 
Q 1615 48.2 1613 48.2 
L 1559.389062 48.2 
Q 1557.389062 48.2 1557.389062 50.2 
L 1557.389062 63.878125 
Q 1557.389062 65.878125 1559.389062 65.878125 
z
" style="fill: #ffffff; opacity: 0.8; stroke: #cccccc; stroke-linejoin: miter"/>
    </g>
    <g id="line2d_17">
     <path d="M 1561.389062 56.298437 
L 1571.389062 56.298437 
L 1581.389062 56.298437 
" style="fill: none; stroke: #37abb2; stroke-width: 2.5; stroke-linecap: square"/>
    </g>
    <g id="text_19">
     <!-- sarn -->
     <g transform="translate(1589.389062 59.798437) scale(0.1 -0.1)">
      <defs>
       <path id="DejaVuSans-73" d="M 2834 3397 
L 2834 2853 
Q 2591 2978 2328 3040 
Q 2066 3103 1784 3103 
Q 1356 3103 1142 2972 
Q 928 2841 928 2578 
Q 928 2378 1081 2264 
Q 1234 2150 1697 2047 
L 1894 2003 
Q 2506 1872 2764 1633 
Q 3022 1394 3022 966 
Q 3022 478 2636 193 
Q 2250 -91 1575 -91 
Q 1294 -91 989 -36 
Q 684 19 347 128 
L 347 722 
Q 666 556 975 473 
Q 1284 391 1588 391 
Q 1994 391 2212 530 
Q 2431 669 2431 922 
Q 2431 1156 2273 1281 
Q 2116 1406 1581 1522 
L 1381 1569 
Q 847 1681 609 1914 
Q 372 2147 372 2553 
Q 372 3047 722 3315 
Q 1072 3584 1716 3584 
Q 2034 3584 2315 3537 
Q 2597 3491 2834 3397 
z
" transform="scale(0.015625)"/>
       <path id="DejaVuSans-61" d="M 2194 1759 
Q 1497 1759 1228 1600 
Q 959 1441 959 1056 
Q 959 750 1161 570 
Q 1363 391 1709 391 
Q 2188 391 2477 730 
Q 2766 1069 2766 1631 
L 2766 1759 
L 2194 1759 
z
M 3341 1997 
L 3341 0 
L 2766 0 
L 2766 531 
Q 2569 213 2275 61 
Q 1981 -91 1556 -91 
Q 1019 -91 701 211 
Q 384 513 384 1019 
Q 384 1609 779 1909 
Q 1175 2209 1959 2209 
L 2766 2209 
L 2766 2266 
Q 2766 2663 2505 2880 
Q 2244 3097 1772 3097 
Q 1472 3097 1187 3025 
Q 903 2953 641 2809 
L 641 3341 
Q 956 3463 1253 3523 
Q 1550 3584 1831 3584 
Q 2591 3584 2966 3190 
Q 3341 2797 3341 1997 
z
" transform="scale(0.015625)"/>
       <path id="DejaVuSans-6e" d="M 3513 2113 
L 3513 0 
L 2938 0 
L 2938 2094 
Q 2938 2591 2744 2837 
Q 2550 3084 2163 3084 
Q 1697 3084 1428 2787 
Q 1159 2491 1159 1978 
L 1159 0 
L 581 0 
L 581 3500 
L 1159 3500 
L 1159 2956 
Q 1366 3272 1645 3428 
Q 1925 3584 2291 3584 
Q 2894 3584 3203 3211 
Q 3513 2838 3513 2113 
z
" transform="scale(0.015625)"/>
      </defs>
      <use xlink:href="#DejaVuSans-73"/>
      <use xlink:href="#DejaVuSans-61" x="52.099609"/>
      <use xlink:href="#DejaVuSans-72" x="113.378906"/>
      <use xlink:href="#DejaVuSans-6e" x="152.742188"/>
     </g>
    </g>
   </g>
  </g>
 </g>
 <defs>
  <clipPath id="p39e46254ac">
   <rect x="225" y="43.2" width="1395" height="277.2"/>
  </clipPath>
 </defs>
</svg>
