<?xml version="1.0" encoding="utf-8" standalone="no"?>
<!DOCTYPE svg PUBLIC "-//W3C//DTD SVG 1.1//EN"
  "http://www.w3.org/Graphics/SVG/1.1/DTD/svg11.dtd">
<svg xmlns:xlink="http://www.w3.org/1999/xlink" width="1800pt" height="360pt" viewBox="0 0 1800 360" xmlns="http://www.w3.org/2000/svg" version="1.1">
 <metadata>
  <rdf:RDF xmlns:dc="http://purl.org/dc/elements/1.1/" xmlns:cc="http://creativecommons.org/ns#" xmlns:rdf="http://www.w3.org/1999/02/22-rdf-syntax-ns#">
   <cc:Work>
    <dc:type rdf:resource="http://purl.org/dc/dcmitype/StillImage"/>
    <dc:date>2024-03-25T15:23:13.657660</dc:date>
    <dc:format>image/svg+xml</dc:format>
    <dc:creator>
     <cc:Agent>
      <dc:title>Matplotlib v3.7.2, https://matplotlib.org/</dc:title>
     </cc:Agent>
    </dc:creator>
   </cc:Work>
  </rdf:RDF>
 </metadata>
 <defs>
  <style type="text/css">*{stroke-linejoin: round; stroke-linecap: butt}</style>
 </defs>
 <g id="figure_1">
  <g id="patch_1">
   <path d="M 0 360 
L 1800 360 
L 1800 0 
L 0 0 
z
" style="fill: #ffffff"/>
  </g>
  <g id="axes_1">
   <g id="patch_2">
    <path d="M 225 320.4 
L 1620 320.4 
L 1620 43.2 
L 225 43.2 
z
" style="fill: #ffffff"/>
   </g>
   <g id="matplotlib.axis_1">
    <g id="xtick_1">
     <g id="line2d_1">
      <defs>
       <path id="mf1608a208b" d="M 0 0 
L 0 3.5 
" style="stroke: #000000; stroke-width: 0.8"/>
      </defs>
      <g>
       <use xlink:href="#mf1608a208b" x="264.941626" y="320.4" style="stroke: #000000; stroke-width: 0.8"/>
      </g>
     </g>
     <g id="text_1">
      <!-- 2011 -->
      <g transform="translate(245.854126 338.797656) scale(0.15 -0.15)">
       <defs>
        <path id="DejaVuSans-32" d="M 1228 531 
L 3431 531 
L 3431 0 
L 469 0 
L 469 531 
Q 828 903 1448 1529 
Q 2069 2156 2228 2338 
Q 2531 2678 2651 2914 
Q 2772 3150 2772 3378 
Q 2772 3750 2511 3984 
Q 2250 4219 1831 4219 
Q 1534 4219 1204 4116 
Q 875 4013 500 3803 
L 500 4441 
Q 881 4594 1212 4672 
Q 1544 4750 1819 4750 
Q 2544 4750 2975 4387 
Q 3406 4025 3406 3419 
Q 3406 3131 3298 2873 
Q 3191 2616 2906 2266 
Q 2828 2175 2409 1742 
Q 1991 1309 1228 531 
z
" transform="scale(0.015625)"/>
        <path id="DejaVuSans-30" d="M 2034 4250 
Q 1547 4250 1301 3770 
Q 1056 3291 1056 2328 
Q 1056 1369 1301 889 
Q 1547 409 2034 409 
Q 2525 409 2770 889 
Q 3016 1369 3016 2328 
Q 3016 3291 2770 3770 
Q 2525 4250 2034 4250 
z
M 2034 4750 
Q 2819 4750 3233 4129 
Q 3647 3509 3647 2328 
Q 3647 1150 3233 529 
Q 2819 -91 2034 -91 
Q 1250 -91 836 529 
Q 422 1150 422 2328 
Q 422 3509 836 4129 
Q 1250 4750 2034 4750 
z
" transform="scale(0.015625)"/>
        <path id="DejaVuSans-31" d="M 794 531 
L 1825 531 
L 1825 4091 
L 703 3866 
L 703 4441 
L 1819 4666 
L 2450 4666 
L 2450 531 
L 3481 531 
L 3481 0 
L 794 0 
L 794 531 
z
" transform="scale(0.015625)"/>
       </defs>
       <use xlink:href="#DejaVuSans-32"/>
       <use xlink:href="#DejaVuSans-30" x="63.623047"/>
       <use xlink:href="#DejaVuSans-31" x="127.246094"/>
       <use xlink:href="#DejaVuSans-31" x="190.869141"/>
      </g>
     </g>
    </g>
    <g id="xtick_2">
     <g id="line2d_2">
      <g>
       <use xlink:href="#mf1608a208b" x="436.254122" y="320.4" style="stroke: #000000; stroke-width: 0.8"/>
      </g>
     </g>
     <g id="text_2">
      <!-- 2012 -->
      <g transform="translate(417.166622 338.797656) scale(0.15 -0.15)">
       <use xlink:href="#DejaVuSans-32"/>
       <use xlink:href="#DejaVuSans-30" x="63.623047"/>
       <use xlink:href="#DejaVuSans-31" x="127.246094"/>
       <use xlink:href="#DejaVuSans-32" x="190.869141"/>
      </g>
     </g>
    </g>
    <g id="xtick_3">
     <g id="line2d_3">
      <g>
       <use xlink:href="#mf1608a208b" x="608.035967" y="320.4" style="stroke: #000000; stroke-width: 0.8"/>
      </g>
     </g>
     <g id="text_3">
      <!-- 2013 -->
      <g transform="translate(588.948467 338.797656) scale(0.15 -0.15)">
       <defs>
        <path id="DejaVuSans-33" d="M 2597 2516 
Q 3050 2419 3304 2112 
Q 3559 1806 3559 1356 
Q 3559 666 3084 287 
Q 2609 -91 1734 -91 
Q 1441 -91 1130 -33 
Q 819 25 488 141 
L 488 750 
Q 750 597 1062 519 
Q 1375 441 1716 441 
Q 2309 441 2620 675 
Q 2931 909 2931 1356 
Q 2931 1769 2642 2001 
Q 2353 2234 1838 2234 
L 1294 2234 
L 1294 2753 
L 1863 2753 
Q 2328 2753 2575 2939 
Q 2822 3125 2822 3475 
Q 2822 3834 2567 4026 
Q 2313 4219 1838 4219 
Q 1578 4219 1281 4162 
Q 984 4106 628 3988 
L 628 4550 
Q 988 4650 1302 4700 
Q 1616 4750 1894 4750 
Q 2613 4750 3031 4423 
Q 3450 4097 3450 3541 
Q 3450 3153 3228 2886 
Q 3006 2619 2597 2516 
z
" transform="scale(0.015625)"/>
       </defs>
       <use xlink:href="#DejaVuSans-32"/>
       <use xlink:href="#DejaVuSans-30" x="63.623047"/>
       <use xlink:href="#DejaVuSans-31" x="127.246094"/>
       <use xlink:href="#DejaVuSans-33" x="190.869141"/>
      </g>
     </g>
    </g>
    <g id="xtick_4">
     <g id="line2d_4">
      <g>
       <use xlink:href="#mf1608a208b" x="779.348462" y="320.4" style="stroke: #000000; stroke-width: 0.8"/>
      </g>
     </g>
     <g id="text_4">
      <!-- 2014 -->
      <g transform="translate(760.260962 338.797656) scale(0.15 -0.15)">
       <defs>
        <path id="DejaVuSans-34" d="M 2419 4116 
L 825 1625 
L 2419 1625 
L 2419 4116 
z
M 2253 4666 
L 3047 4666 
L 3047 1625 
L 3713 1625 
L 3713 1100 
L 3047 1100 
L 3047 0 
L 2419 0 
L 2419 1100 
L 313 1100 
L 313 1709 
L 2253 4666 
z
" transform="scale(0.015625)"/>
       </defs>
       <use xlink:href="#DejaVuSans-32"/>
       <use xlink:href="#DejaVuSans-30" x="63.623047"/>
       <use xlink:href="#DejaVuSans-31" x="127.246094"/>
       <use xlink:href="#DejaVuSans-34" x="190.869141"/>
      </g>
     </g>
    </g>
    <g id="xtick_5">
     <g id="line2d_5">
      <g>
       <use xlink:href="#mf1608a208b" x="950.660958" y="320.4" style="stroke: #000000; stroke-width: 0.8"/>
      </g>
     </g>
     <g id="text_5">
      <!-- 2015 -->
      <g transform="translate(931.573458 338.797656) scale(0.15 -0.15)">
       <defs>
        <path id="DejaVuSans-35" d="M 691 4666 
L 3169 4666 
L 3169 4134 
L 1269 4134 
L 1269 2991 
Q 1406 3038 1543 3061 
Q 1681 3084 1819 3084 
Q 2600 3084 3056 2656 
Q 3513 2228 3513 1497 
Q 3513 744 3044 326 
Q 2575 -91 1722 -91 
Q 1428 -91 1123 -41 
Q 819 9 494 109 
L 494 744 
Q 775 591 1075 516 
Q 1375 441 1709 441 
Q 2250 441 2565 725 
Q 2881 1009 2881 1497 
Q 2881 1984 2565 2268 
Q 2250 2553 1709 2553 
Q 1456 2553 1204 2497 
Q 953 2441 691 2322 
L 691 4666 
z
" transform="scale(0.015625)"/>
       </defs>
       <use xlink:href="#DejaVuSans-32"/>
       <use xlink:href="#DejaVuSans-30" x="63.623047"/>
       <use xlink:href="#DejaVuSans-31" x="127.246094"/>
       <use xlink:href="#DejaVuSans-35" x="190.869141"/>
      </g>
     </g>
    </g>
    <g id="xtick_6">
     <g id="line2d_6">
      <g>
       <use xlink:href="#mf1608a208b" x="1121.973454" y="320.4" style="stroke: #000000; stroke-width: 0.8"/>
      </g>
     </g>
     <g id="text_6">
      <!-- 2016 -->
      <g transform="translate(1102.885954 338.797656) scale(0.15 -0.15)">
       <defs>
        <path id="DejaVuSans-36" d="M 2113 2584 
Q 1688 2584 1439 2293 
Q 1191 2003 1191 1497 
Q 1191 994 1439 701 
Q 1688 409 2113 409 
Q 2538 409 2786 701 
Q 3034 994 3034 1497 
Q 3034 2003 2786 2293 
Q 2538 2584 2113 2584 
z
M 3366 4563 
L 3366 3988 
Q 3128 4100 2886 4159 
Q 2644 4219 2406 4219 
Q 1781 4219 1451 3797 
Q 1122 3375 1075 2522 
Q 1259 2794 1537 2939 
Q 1816 3084 2150 3084 
Q 2853 3084 3261 2657 
Q 3669 2231 3669 1497 
Q 3669 778 3244 343 
Q 2819 -91 2113 -91 
Q 1303 -91 875 529 
Q 447 1150 447 2328 
Q 447 3434 972 4092 
Q 1497 4750 2381 4750 
Q 2619 4750 2861 4703 
Q 3103 4656 3366 4563 
z
" transform="scale(0.015625)"/>
       </defs>
       <use xlink:href="#DejaVuSans-32"/>
       <use xlink:href="#DejaVuSans-30" x="63.623047"/>
       <use xlink:href="#DejaVuSans-31" x="127.246094"/>
       <use xlink:href="#DejaVuSans-36" x="190.869141"/>
      </g>
     </g>
    </g>
    <g id="xtick_7">
     <g id="line2d_7">
      <g>
       <use xlink:href="#mf1608a208b" x="1293.755299" y="320.4" style="stroke: #000000; stroke-width: 0.8"/>
      </g>
     </g>
     <g id="text_7">
      <!-- 2017 -->
      <g transform="translate(1274.667799 338.797656) scale(0.15 -0.15)">
       <defs>
        <path id="DejaVuSans-37" d="M 525 4666 
L 3525 4666 
L 3525 4397 
L 1831 0 
L 1172 0 
L 2766 4134 
L 525 4134 
L 525 4666 
z
" transform="scale(0.015625)"/>
       </defs>
       <use xlink:href="#DejaVuSans-32"/>
       <use xlink:href="#DejaVuSans-30" x="63.623047"/>
       <use xlink:href="#DejaVuSans-31" x="127.246094"/>
       <use xlink:href="#DejaVuSans-37" x="190.869141"/>
      </g>
     </g>
    </g>
    <g id="xtick_8">
     <g id="line2d_8">
      <g>
       <use xlink:href="#mf1608a208b" x="1465.067795" y="320.4" style="stroke: #000000; stroke-width: 0.8"/>
      </g>
     </g>
     <g id="text_8">
      <!-- 2018 -->
      <g transform="translate(1445.980295 338.797656) scale(0.15 -0.15)">
       <defs>
        <path id="DejaVuSans-38" d="M 2034 2216 
Q 1584 2216 1326 1975 
Q 1069 1734 1069 1313 
Q 1069 891 1326 650 
Q 1584 409 2034 409 
Q 2484 409 2743 651 
Q 3003 894 3003 1313 
Q 3003 1734 2745 1975 
Q 2488 2216 2034 2216 
z
M 1403 2484 
Q 997 2584 770 2862 
Q 544 3141 544 3541 
Q 544 4100 942 4425 
Q 1341 4750 2034 4750 
Q 2731 4750 3128 4425 
Q 3525 4100 3525 3541 
Q 3525 3141 3298 2862 
Q 3072 2584 2669 2484 
Q 3125 2378 3379 2068 
Q 3634 1759 3634 1313 
Q 3634 634 3220 271 
Q 2806 -91 2034 -91 
Q 1263 -91 848 271 
Q 434 634 434 1313 
Q 434 1759 690 2068 
Q 947 2378 1403 2484 
z
M 1172 3481 
Q 1172 3119 1398 2916 
Q 1625 2713 2034 2713 
Q 2441 2713 2670 2916 
Q 2900 3119 2900 3481 
Q 2900 3844 2670 4047 
Q 2441 4250 2034 4250 
Q 1625 4250 1398 4047 
Q 1172 3844 1172 3481 
z
" transform="scale(0.015625)"/>
       </defs>
       <use xlink:href="#DejaVuSans-32"/>
       <use xlink:href="#DejaVuSans-30" x="63.623047"/>
       <use xlink:href="#DejaVuSans-31" x="127.246094"/>
       <use xlink:href="#DejaVuSans-38" x="190.869141"/>
      </g>
     </g>
    </g>
    <g id="text_9">
     <!-- Time -->
     <g transform="translate(904.149609 357.314844) scale(0.15 -0.15)">
      <defs>
       <path id="DejaVuSans-54" d="M -19 4666 
L 3928 4666 
L 3928 4134 
L 2272 4134 
L 2272 0 
L 1638 0 
L 1638 4134 
L -19 4134 
L -19 4666 
z
" transform="scale(0.015625)"/>
       <path id="DejaVuSans-69" d="M 603 3500 
L 1178 3500 
L 1178 0 
L 603 0 
L 603 3500 
z
M 603 4863 
L 1178 4863 
L 1178 4134 
L 603 4134 
L 603 4863 
z
" transform="scale(0.015625)"/>
       <path id="DejaVuSans-6d" d="M 3328 2828 
Q 3544 3216 3844 3400 
Q 4144 3584 4550 3584 
Q 5097 3584 5394 3201 
Q 5691 2819 5691 2113 
L 5691 0 
L 5113 0 
L 5113 2094 
Q 5113 2597 4934 2840 
Q 4756 3084 4391 3084 
Q 3944 3084 3684 2787 
Q 3425 2491 3425 1978 
L 3425 0 
L 2847 0 
L 2847 2094 
Q 2847 2600 2669 2842 
Q 2491 3084 2119 3084 
Q 1678 3084 1418 2786 
Q 1159 2488 1159 1978 
L 1159 0 
L 581 0 
L 581 3500 
L 1159 3500 
L 1159 2956 
Q 1356 3278 1631 3431 
Q 1906 3584 2284 3584 
Q 2666 3584 2933 3390 
Q 3200 3197 3328 2828 
z
" transform="scale(0.015625)"/>
       <path id="DejaVuSans-65" d="M 3597 1894 
L 3597 1613 
L 953 1613 
Q 991 1019 1311 708 
Q 1631 397 2203 397 
Q 2534 397 2845 478 
Q 3156 559 3463 722 
L 3463 178 
Q 3153 47 2828 -22 
Q 2503 -91 2169 -91 
Q 1331 -91 842 396 
Q 353 884 353 1716 
Q 353 2575 817 3079 
Q 1281 3584 2069 3584 
Q 2775 3584 3186 3129 
Q 3597 2675 3597 1894 
z
M 3022 2063 
Q 3016 2534 2758 2815 
Q 2500 3097 2075 3097 
Q 1594 3097 1305 2825 
Q 1016 2553 972 2059 
L 3022 2063 
z
" transform="scale(0.015625)"/>
      </defs>
      <use xlink:href="#DejaVuSans-54"/>
      <use xlink:href="#DejaVuSans-69" x="57.958984"/>
      <use xlink:href="#DejaVuSans-6d" x="85.742188"/>
      <use xlink:href="#DejaVuSans-65" x="183.154297"/>
     </g>
    </g>
   </g>
   <g id="matplotlib.axis_2">
    <g id="ytick_1">
     <g id="line2d_9">
      <defs>
       <path id="mcb9927e603" d="M 0 0 
L -3.5 0 
" style="stroke: #000000; stroke-width: 0.8"/>
      </defs>
      <g>
       <use xlink:href="#mcb9927e603" x="225" y="287.228994" style="stroke: #000000; stroke-width: 0.8"/>
      </g>
     </g>
     <g id="text_10">
      <!-- −0.004 -->
      <g transform="translate(162.488281 292.927822) scale(0.15 -0.15)">
       <defs>
        <path id="DejaVuSans-2212" d="M 678 2272 
L 4684 2272 
L 4684 1741 
L 678 1741 
L 678 2272 
z
" transform="scale(0.015625)"/>
        <path id="DejaVuSans-2e" d="M 684 794 
L 1344 794 
L 1344 0 
L 684 0 
L 684 794 
z
" transform="scale(0.015625)"/>
       </defs>
       <use xlink:href="#DejaVuSans-2212"/>
       <use xlink:href="#DejaVuSans-30" x="83.789062"/>
       <use xlink:href="#DejaVuSans-2e" x="147.412109"/>
       <use xlink:href="#DejaVuSans-30" x="179.199219"/>
       <use xlink:href="#DejaVuSans-30" x="242.822266"/>
       <use xlink:href="#DejaVuSans-34" x="306.445312"/>
      </g>
     </g>
    </g>
    <g id="ytick_2">
     <g id="line2d_10">
      <g>
       <use xlink:href="#mcb9927e603" x="225" y="241.053117" style="stroke: #000000; stroke-width: 0.8"/>
      </g>
     </g>
     <g id="text_11">
      <!-- −0.002 -->
      <g transform="translate(162.488281 246.751945) scale(0.15 -0.15)">
       <use xlink:href="#DejaVuSans-2212"/>
       <use xlink:href="#DejaVuSans-30" x="83.789062"/>
       <use xlink:href="#DejaVuSans-2e" x="147.412109"/>
       <use xlink:href="#DejaVuSans-30" x="179.199219"/>
       <use xlink:href="#DejaVuSans-30" x="242.822266"/>
       <use xlink:href="#DejaVuSans-32" x="306.445312"/>
      </g>
     </g>
    </g>
    <g id="ytick_3">
     <g id="line2d_11">
      <g>
       <use xlink:href="#mcb9927e603" x="225" y="194.87724" style="stroke: #000000; stroke-width: 0.8"/>
      </g>
     </g>
     <g id="text_12">
      <!-- 0.000 -->
      <g transform="translate(175.057813 200.576068) scale(0.15 -0.15)">
       <use xlink:href="#DejaVuSans-30"/>
       <use xlink:href="#DejaVuSans-2e" x="63.623047"/>
       <use xlink:href="#DejaVuSans-30" x="95.410156"/>
       <use xlink:href="#DejaVuSans-30" x="159.033203"/>
       <use xlink:href="#DejaVuSans-30" x="222.65625"/>
      </g>
     </g>
    </g>
    <g id="ytick_4">
     <g id="line2d_12">
      <g>
       <use xlink:href="#mcb9927e603" x="225" y="148.701363" style="stroke: #000000; stroke-width: 0.8"/>
      </g>
     </g>
     <g id="text_13">
      <!-- 0.002 -->
      <g transform="translate(175.057813 154.400191) scale(0.15 -0.15)">
       <use xlink:href="#DejaVuSans-30"/>
       <use xlink:href="#DejaVuSans-2e" x="63.623047"/>
       <use xlink:href="#DejaVuSans-30" x="95.410156"/>
       <use xlink:href="#DejaVuSans-30" x="159.033203"/>
       <use xlink:href="#DejaVuSans-32" x="222.65625"/>
      </g>
     </g>
    </g>
    <g id="ytick_5">
     <g id="line2d_13">
      <g>
       <use xlink:href="#mcb9927e603" x="225" y="102.525486" style="stroke: #000000; stroke-width: 0.8"/>
      </g>
     </g>
     <g id="text_14">
      <!-- 0.004 -->
      <g transform="translate(175.057813 108.224314) scale(0.15 -0.15)">
       <use xlink:href="#DejaVuSans-30"/>
       <use xlink:href="#DejaVuSans-2e" x="63.623047"/>
       <use xlink:href="#DejaVuSans-30" x="95.410156"/>
       <use xlink:href="#DejaVuSans-30" x="159.033203"/>
       <use xlink:href="#DejaVuSans-34" x="222.65625"/>
      </g>
     </g>
    </g>
    <g id="ytick_6">
     <g id="line2d_14">
      <g>
       <use xlink:href="#mcb9927e603" x="225" y="56.349609" style="stroke: #000000; stroke-width: 0.8"/>
      </g>
     </g>
     <g id="text_15">
      <!-- 0.006 -->
      <g transform="translate(175.057813 62.048437) scale(0.15 -0.15)">
       <use xlink:href="#DejaVuSans-30"/>
       <use xlink:href="#DejaVuSans-2e" x="63.623047"/>
       <use xlink:href="#DejaVuSans-30" x="95.410156"/>
       <use xlink:href="#DejaVuSans-30" x="159.033203"/>
       <use xlink:href="#DejaVuSans-36" x="222.65625"/>
      </g>
     </g>
    </g>
    <g id="text_16">
     <!-- North(m) -->
     <g transform="translate(155.36875 215.934375) rotate(-90) scale(0.15 -0.15)">
      <defs>
       <path id="DejaVuSans-4e" d="M 628 4666 
L 1478 4666 
L 3547 763 
L 3547 4666 
L 4159 4666 
L 4159 0 
L 3309 0 
L 1241 3903 
L 1241 0 
L 628 0 
L 628 4666 
z
" transform="scale(0.015625)"/>
       <path id="DejaVuSans-6f" d="M 1959 3097 
Q 1497 3097 1228 2736 
Q 959 2375 959 1747 
Q 959 1119 1226 758 
Q 1494 397 1959 397 
Q 2419 397 2687 759 
Q 2956 1122 2956 1747 
Q 2956 2369 2687 2733 
Q 2419 3097 1959 3097 
z
M 1959 3584 
Q 2709 3584 3137 3096 
Q 3566 2609 3566 1747 
Q 3566 888 3137 398 
Q 2709 -91 1959 -91 
Q 1206 -91 779 398 
Q 353 888 353 1747 
Q 353 2609 779 3096 
Q 1206 3584 1959 3584 
z
" transform="scale(0.015625)"/>
       <path id="DejaVuSans-72" d="M 2631 2963 
Q 2534 3019 2420 3045 
Q 2306 3072 2169 3072 
Q 1681 3072 1420 2755 
Q 1159 2438 1159 1844 
L 1159 0 
L 581 0 
L 581 3500 
L 1159 3500 
L 1159 2956 
Q 1341 3275 1631 3429 
Q 1922 3584 2338 3584 
Q 2397 3584 2469 3576 
Q 2541 3569 2628 3553 
L 2631 2963 
z
" transform="scale(0.015625)"/>
       <path id="DejaVuSans-74" d="M 1172 4494 
L 1172 3500 
L 2356 3500 
L 2356 3053 
L 1172 3053 
L 1172 1153 
Q 1172 725 1289 603 
Q 1406 481 1766 481 
L 2356 481 
L 2356 0 
L 1766 0 
Q 1100 0 847 248 
Q 594 497 594 1153 
L 594 3053 
L 172 3053 
L 172 3500 
L 594 3500 
L 594 4494 
L 1172 4494 
z
" transform="scale(0.015625)"/>
       <path id="DejaVuSans-68" d="M 3513 2113 
L 3513 0 
L 2938 0 
L 2938 2094 
Q 2938 2591 2744 2837 
Q 2550 3084 2163 3084 
Q 1697 3084 1428 2787 
Q 1159 2491 1159 1978 
L 1159 0 
L 581 0 
L 581 4863 
L 1159 4863 
L 1159 2956 
Q 1366 3272 1645 3428 
Q 1925 3584 2291 3584 
Q 2894 3584 3203 3211 
Q 3513 2838 3513 2113 
z
" transform="scale(0.015625)"/>
       <path id="DejaVuSans-28" d="M 1984 4856 
Q 1566 4138 1362 3434 
Q 1159 2731 1159 2009 
Q 1159 1288 1364 580 
Q 1569 -128 1984 -844 
L 1484 -844 
Q 1016 -109 783 600 
Q 550 1309 550 2009 
Q 550 2706 781 3412 
Q 1013 4119 1484 4856 
L 1984 4856 
z
" transform="scale(0.015625)"/>
       <path id="DejaVuSans-29" d="M 513 4856 
L 1013 4856 
Q 1481 4119 1714 3412 
Q 1947 2706 1947 2009 
Q 1947 1309 1714 600 
Q 1481 -109 1013 -844 
L 513 -844 
Q 928 -128 1133 580 
Q 1338 1288 1338 2009 
Q 1338 2731 1133 3434 
Q 928 4138 513 4856 
z
" transform="scale(0.015625)"/>
      </defs>
      <use xlink:href="#DejaVuSans-4e"/>
      <use xlink:href="#DejaVuSans-6f" x="74.804688"/>
      <use xlink:href="#DejaVuSans-72" x="135.986328"/>
      <use xlink:href="#DejaVuSans-74" x="177.099609"/>
      <use xlink:href="#DejaVuSans-68" x="216.308594"/>
      <use xlink:href="#DejaVuSans-28" x="279.6875"/>
      <use xlink:href="#DejaVuSans-6d" x="318.701172"/>
      <use xlink:href="#DejaVuSans-29" x="416.113281"/>
     </g>
    </g>
   </g>
   <g id="line2d_15">
    <path d="M 288.409091 141.10555 
L 288.87844 166.845591 
L 289.34779 168.481823 
L 289.817139 161.916065 
L 290.286488 157.772232 
L 290.755837 151.306907 
L 291.225187 153.291108 
L 291.694536 153.796318 
L 292.163885 150.745987 
L 292.633235 150.535471 
L 293.571933 162.743542 
L 294.041283 170.218012 
L 294.510632 174.216098 
L 294.979981 184.543577 
L 295.44933 184.923453 
L 295.91868 191.741566 
L 296.388029 193.028468 
L 296.857378 191.449168 
L 297.326728 195.292234 
L 297.796077 192.70696 
L 298.265426 192.898834 
L 298.734776 201.781668 
L 299.204125 195.700219 
L 299.673474 193.514036 
L 300.142823 193.221063 
L 300.612173 190.507156 
L 301.081522 192.120587 
L 302.020221 172.562953 
L 302.48957 173.704732 
L 302.958919 175.344549 
L 303.428269 180.906018 
L 303.897618 189.482113 
L 304.366967 191.346213 
L 304.836317 194.912225 
L 305.775015 208.710066 
L 306.713714 218.546676 
L 307.652412 221.598731 
L 308.121762 232.031755 
L 308.591111 229.789501 
L 309.06046 222.243617 
L 309.52981 218.649069 
L 310.468508 201.274895 
L 310.937857 189.230162 
L 312.345905 174.645755 
L 312.815255 168.257567 
L 313.284604 167.28515 
L 313.753953 164.102887 
L 314.223303 162.896291 
L 314.692652 160.165892 
L 315.162001 170.147053 
L 315.631351 176.166982 
L 316.1007 176.507279 
L 316.570049 180.000728 
L 317.039398 185.242265 
L 317.508748 184.329216 
L 317.978097 187.684138 
L 318.447446 184.426014 
L 318.916796 178.87229 
L 319.386145 177.095093 
L 320.794193 161.132581 
L 321.732891 155.437605 
L 322.202241 150.019111 
L 322.67159 152.160267 
L 323.140939 157.44468 
L 323.610289 167.442332 
L 324.079638 168.148737 
L 324.548987 170.078804 
L 325.018337 170.669769 
L 325.487686 171.95997 
L 325.957035 170.215756 
L 326.426384 171.885258 
L 326.895734 164.161268 
L 329.24248 170.976082 
L 329.71183 182.45466 
L 330.181179 188.494379 
L 330.650528 203.389972 
L 332.058576 234.63957 
L 332.527925 233.146025 
L 332.997275 228.865436 
L 333.466624 235.132736 
L 333.935973 234.506638 
L 334.405323 236.736847 
L 334.874672 232.792682 
L 335.344021 236.774276 
L 335.813371 241.913566 
L 336.28272 240.133071 
L 336.752069 238.893493 
L 337.221418 233.940055 
L 337.690768 232.054015 
L 338.160117 227.991112 
L 339.098816 229.737049 
L 339.568165 236.84541 
L 340.037514 235.99173 
L 340.506864 235.636091 
L 340.976213 230.098858 
L 341.445562 235.86482 
L 341.914912 232.158131 
L 342.384261 227.320133 
L 342.85361 219.444422 
L 343.322959 219.174537 
L 343.792309 224.419372 
L 344.261658 237.022662 
L 344.731007 231.129216 
L 345.200357 237.360235 
L 345.669706 238.188677 
L 346.608405 243.374142 
L 347.547103 231.732373 
L 348.016452 222.715458 
L 348.485802 226.297961 
L 348.955151 223.043136 
L 349.4245 224.270669 
L 349.89385 222.058099 
L 350.363199 226.484961 
L 350.832548 234.523436 
L 351.301898 236.987823 
L 351.771247 232.862253 
L 352.240596 233.558764 
L 353.179295 235.759289 
L 353.648644 238.405081 
L 354.117993 238.392462 
L 354.587343 241.523101 
L 355.056692 248.126826 
L 355.995391 267.581211 
L 356.46474 271.790387 
L 356.934089 278.925134 
L 357.403439 279.97456 
L 357.872788 279.572745 
L 358.342137 279.477669 
L 358.811486 278.87136 
L 359.750185 268.750097 
L 360.219534 268.519792 
L 360.688884 268.47419 
L 361.627582 261.499483 
L 362.096932 261.002017 
L 362.566281 265.092455 
L 363.03563 262.365354 
L 363.504979 262.412104 
L 363.974329 266.954405 
L 364.443678 269.969605 
L 364.913027 266.882992 
L 365.382377 267.807083 
L 366.321075 274.328925 
L 366.790425 265.575873 
L 367.259774 269.240832 
L 367.729123 262.971382 
L 368.198473 264.825588 
L 368.667822 256.098921 
L 369.137171 244.865564 
L 369.60652 243.061981 
L 370.07587 252.244958 
L 370.545219 247.387171 
L 371.953267 264.391511 
L 372.422616 262.71656 
L 372.891966 269.686394 
L 373.361315 267.473824 
L 373.830664 259.667377 
L 374.300013 260.317711 
L 374.769363 257.069483 
L 375.238712 251.505864 
L 375.708061 257.571969 
L 384.625698 260.108918 
L 385.095047 257.93263 
L 385.564397 275.348106 
L 386.033746 278.970189 
L 386.503095 281.69514 
L 386.972445 298.549909 
L 387.911143 302.822326 
L 388.380493 307.8 
L 388.849842 296.256605 
L 389.319191 291.359238 
L 389.78854 288.592558 
L 390.25789 272.586594 
L 390.727239 271.825266 
L 391.196588 264.140855 
L 391.665938 259.45128 
L 392.135287 253.383024 
L 392.604636 250.072128 
L 393.073986 249.228344 
L 393.543335 249.073899 
L 394.482034 233.823815 
L 394.951383 234.619274 
L 395.890081 253.07758 
L 396.359431 262.563998 
L 396.82878 267.347074 
L 397.298129 268.373412 
L 397.767479 276.085358 
L 398.236828 274.75013 
L 398.706177 269.816482 
L 399.644876 252.488483 
L 400.114225 251.265397 
L 400.583574 251.849766 
L 401.052924 249.927445 
L 401.522273 249.387102 
L 401.991622 249.1502 
L 402.930321 249.830219 
L 403.39967 253.066403 
L 403.86902 252.394129 
L 404.338369 253.641452 
L 404.807718 258.896181 
L 405.277067 255.034473 
L 405.746417 254.790975 
L 406.215766 254.930076 
L 406.685115 252.262345 
L 408.093163 250.630272 
L 411.378608 239.29137 
L 411.847958 235.696822 
L 412.317307 238.90662 
L 413.256006 237.651125 
L 413.725355 237.565944 
L 414.194704 234.779474 
L 414.664054 242.534297 
L 415.133403 239.747827 
L 415.602752 240.718095 
L 416.072101 243.238553 
L 417.480149 245.376985 
L 417.949499 246.495675 
L 418.418848 257.769759 
L 418.888197 255.976071 
L 419.357547 257.322342 
L 419.826896 260.43649 
L 420.296245 264.563208 
L 423.58169 262.515553 
L 424.05104 270.352833 
L 424.520389 265.501642 
L 424.989738 268.272768 
L 425.459088 264.368183 
L 426.867135 258.633053 
L 427.336485 255.487071 
L 427.805834 258.574833 
L 428.275183 251.167477 
L 429.683231 245.209213 
L 430.152581 246.532396 
L 430.62193 242.133069 
L 431.091279 235.781162 
L 431.560628 233.205782 
L 432.029978 229.057124 
L 432.499327 234.37452 
L 432.968676 234.988574 
L 433.438026 236.753726 
L 433.907375 241.434556 
L 434.376724 243.354727 
L 435.315423 253.102284 
L 436.254122 245.572892 
L 436.723471 244.620264 
L 437.19282 243.037665 
L 437.662169 244.252005 
L 438.131519 249.01859 
L 438.600868 239.276054 
L 439.070217 234.955885 
L 439.539567 239.455309 
L 440.008916 241.979065 
L 440.947615 232.418509 
L 441.416964 220.723393 
L 441.886313 232.874819 
L 442.355662 231.463731 
L 443.294361 213.119863 
L 443.76371 206.477707 
L 444.23306 201.649604 
L 444.702409 205.152949 
L 445.171758 195.565432 
L 445.641108 189.77753 
L 446.110457 187.964052 
L 446.579806 188.386805 
L 447.049156 188.466538 
L 447.518505 187.365488 
L 447.987854 187.131884 
L 448.457203 181.815636 
L 449.865251 171.701543 
L 450.334601 172.589354 
L 450.80395 174.084048 
L 451.273299 170.971049 
L 451.742649 175.279172 
L 452.211998 177.62812 
L 452.681347 185.983229 
L 453.150696 188.787339 
L 453.620046 189.935714 
L 454.089395 190.747664 
L 454.558744 195.501055 
L 455.028094 202.533556 
L 455.497443 205.067207 
L 455.966792 206.512426 
L 457.37484 230.073741 
L 457.844189 231.683874 
L 458.313539 231.958206 
L 458.782888 231.840042 
L 459.252237 234.515519 
L 460.190936 223.991865 
L 460.660285 224.055107 
L 461.129635 226.25893 
L 461.598984 225.408549 
L 462.068333 233.321689 
L 462.537683 234.166622 
L 463.007032 237.801898 
L 463.476381 244.013127 
L 463.94573 239.158638 
L 464.41508 237.681584 
L 464.884429 248.401558 
L 465.353778 247.963462 
L 465.823128 250.579569 
L 466.292477 254.049931 
L 466.761826 251.55371 
L 467.231176 260.354087 
L 467.700525 260.301888 
L 468.169874 253.270536 
L 468.639223 250.09487 
L 469.577922 242.160364 
L 470.047271 244.235554 
L 470.516621 237.563714 
L 471.455319 245.817151 
L 472.394018 263.068288 
L 472.863367 267.043286 
L 473.332717 268.871106 
L 473.802066 269.663266 
L 474.271415 263.713749 
L 475.679463 235.027059 
L 476.148812 234.856123 
L 476.618162 232.15211 
L 477.087511 231.532608 
L 477.55686 237.687767 
L 478.02621 239.904783 
L 478.495559 243.418022 
L 478.964908 245.948375 
L 479.903607 247.809177 
L 480.372956 249.686471 
L 480.842305 252.813812 
L 481.311655 254.948371 
L 481.781004 260.846264 
L 482.250353 255.658649 
L 482.719703 259.594068 
L 483.189052 257.371603 
L 483.658401 259.140054 
L 484.12775 262.560941 
L 484.5971 258.465055 
L 485.066449 252.116446 
L 485.535798 252.420462 
L 486.005148 253.410519 
L 486.474497 249.522425 
L 486.943846 247.939826 
L 487.413196 243.728501 
L 487.882545 243.887392 
L 488.351894 249.518125 
L 488.821244 252.774099 
L 489.290593 250.897954 
L 490.229291 258.14814 
L 490.698641 258.953494 
L 491.16799 257.28514 
L 491.637339 254.8252 
L 492.106689 245.762109 
L 492.576038 246.867606 
L 493.045387 246.060102 
L 493.984086 244.830993 
L 494.453435 248.766412 
L 494.922784 250.046718 
L 495.392134 257.897191 
L 495.861483 253.092176 
L 496.330832 253.633667 
L 496.800182 249.851118 
L 497.269531 249.373442 
L 497.73888 244.716849 
L 498.20823 242.913266 
L 498.677579 223.00544 
L 499.146928 224.371501 
L 499.616278 221.436609 
L 500.085627 220.526859 
L 500.554976 217.598563 
L 501.493675 215.881309 
L 501.963024 233.283592 
L 502.432373 232.476089 
L 502.901723 235.39234 
L 503.371072 234.48259 
L 503.840421 232.827429 
L 504.309771 225.235369 
L 504.77912 227.811898 
L 505.248469 226.780111 
L 505.717818 222.69412 
L 506.187168 222.721081 
L 506.656517 227.715246 
L 507.125866 228.048947 
L 507.595216 243.482159 
L 508.064565 246.441287 
L 508.533914 253.602421 
L 509.003264 256.620918 
L 509.472613 258.033155 
L 510.411311 267.836782 
L 510.880661 265.868285 
L 511.35001 265.463171 
L 511.819359 255.493054 
L 512.758058 264.491902 
L 513.696757 253.137083 
L 514.166106 251.198271 
L 514.635455 244.008601 
L 515.104805 252.673749 
L 515.574154 254.399322 
L 516.043503 245.224089 
L 516.982202 243.605784 
L 519.798298 242.072659 
L 520.267647 245.9652 
L 520.736996 240.530214 
L 521.206345 231.734284 
L 544.673811 233.76 
L 545.14316 229.650921 
L 545.612509 229.549249 
L 546.081859 232.307182 
L 546.551208 225.10432 
L 547.020557 221.077698 
L 548.897954 224.907572 
L 549.367304 219.568235 
L 549.836653 216.956574 
L 550.306002 211.63373 
L 581.752406 188.797034 
L 582.221755 183.609419 
L 583.160454 153.74467 
L 583.629803 146.327419 
L 584.099152 133.649417 
L 584.568501 126.040866 
L 585.037851 127.815913 
L 585.5072 122.311663 
L 585.976549 119.765967 
L 586.445899 121.732315 
L 586.915248 117.814536 
L 587.384597 122.643788 
L 587.853947 125.111473 
L 588.792645 123.07701 
L 589.261994 123.107269 
L 589.731344 126.61721 
L 590.200693 126.518836 
L 590.670042 127.700193 
L 591.608741 117.776826 
L 592.54744 127.725578 
L 593.016789 124.121135 
L 593.486138 119.375489 
L 593.955488 122.034474 
L 594.424837 126.873621 
L 594.894186 136.745938 
L 595.832885 135.780117 
L 596.771583 131.470417 
L 597.710282 142.972657 
L 598.648981 141.175671 
L 599.11833 128.698863 
L 599.587679 131.463394 
L 600.057028 137.628447 
L 600.526378 145.445938 
L 600.995727 148.240153 
L 601.465076 141.179116 
L 601.934426 139.167741 
L 602.403775 145.326198 
L 602.873124 140.389252 
L 603.342474 137.355411 
L 603.811823 130.178935 
L 604.281172 131.089834 
L 604.750521 130.618754 
L 605.68922 142.225965 
L 606.158569 139.650585 
L 608.035967 140.241551 
L 608.505316 136.056611 
L 608.974665 142.650441 
L 609.444015 137.353983 
L 609.913364 133.48238 
L 610.382713 121.454138 
L 610.852062 120.762074 
L 611.321412 129.25901 
L 611.790761 126.297731 
L 612.26011 121.489418 
L 612.72946 119.873836 
L 613.198809 127.988171 
L 613.668158 132.777844 
L 614.137508 140.750353 
L 614.606857 138.649925 
L 615.076206 143.373632 
L 615.545555 149.941075 
L 616.953603 137.960158 
L 617.892302 127.182537 
L 618.361651 123.442865 
L 618.831001 120.989522 
L 619.30035 125.620877 
L 619.769699 121.798748 
L 620.239049 122.87456 
L 620.708398 123.594159 
L 621.177747 126.160793 
L 621.647096 127.972121 
L 622.116446 126.706157 
L 622.585795 133.79143 
L 624.463192 154.147393 
L 624.932542 149.503994 
L 625.401891 146.671348 
L 625.87124 139.59382 
L 626.340589 136.955773 
L 627.279288 143.576563 
L 627.748637 140.456967 
L 628.687336 164.350834 
L 629.156685 174.381468 
L 629.626035 180.602592 
L 630.095384 177.862298 
L 631.034082 168.024687 
L 632.91148 128.793979 
L 633.850178 135.154206 
L 634.319528 142.378006 
L 634.788877 151.973268 
L 635.727576 162.199075 
L 636.196925 172.071392 
L 636.666274 170.755954 
L 637.135623 168.480717 
L 637.604973 168.240517 
L 638.074322 167.000939 
L 639.013021 171.240373 
L 639.48237 170.789084 
L 639.951719 173.497543 
L 640.421069 178.14539 
L 640.890418 175.939416 
L 642.298466 172.698933 
L 642.767815 174.140854 
L 643.237164 171.78316 
L 643.706514 163.191723 
L 644.175863 165.184456 
L 644.645212 165.419208 
L 645.114562 163.259411 
L 645.583911 157.332982 
L 646.52261 136.320808 
L 646.991959 132.511872 
L 647.930657 123.597778 
L 648.400007 124.333868 
L 648.869356 129.45007 
L 649.338705 130.974448 
L 649.808055 133.455326 
L 651.216103 125.788555 
L 651.685452 122.279762 
L 652.154801 114.341384 
L 652.62415 114.859788 
L 653.0935 114.860362 
L 653.562849 121.856582 
L 654.032198 126.880431 
L 654.501548 130.090229 
L 655.440246 141.011972 
L 655.909596 143.941417 
L 656.378945 144.628032 
L 656.848294 141.495243 
L 657.317643 135.677657 
L 657.786993 133.006627 
L 658.256342 128.406105 
L 658.725691 122.384025 
L 659.195041 114.28733 
L 659.66439 110.50478 
L 660.133739 115.007503 
L 660.603089 112.610229 
L 661.072438 108.880452 
L 661.541787 102.314157 
L 662.011137 103.808851 
L 662.480486 109.400004 
L 662.949835 106.432129 
L 663.419184 100.555174 
L 663.888534 102.02678 
L 664.357883 107.258421 
L 665.296582 122.998947 
L 665.765931 119.348329 
L 666.23528 128.425761 
L 666.70463 129.580732 
L 667.173979 135.472029 
L 668.112677 132.184795 
L 668.582027 123.425146 
L 669.051376 120.853064 
L 669.520725 121.374766 
L 669.990075 122.918934 
L 670.459424 122.517118 
L 670.928773 125.034278 
L 671.398123 133.046367 
L 672.336821 155.228428 
L 672.806171 156.967194 
L 673.27552 162.066904 
L 673.744869 159.837843 
L 674.214218 156.658878 
L 674.683568 147.559506 
L 675.152917 146.593685 
L 675.622266 141.765582 
L 676.091616 142.455496 
L 676.560965 144.972656 
L 677.030314 143.505497 
L 677.499664 150.577577 
L 677.969013 161.152427 
L 678.438362 155.740528 
L 678.907711 157.248415 
L 679.377061 151.44732 
L 679.84641 143.640873 
L 680.785109 137.513823 
L 681.254458 129.304986 
L 681.723807 125.684052 
L 682.193157 128.039596 
L 682.662506 127.126547 
L 683.131855 125.13826 
L 683.601204 132.820522 
L 684.539903 141.311435 
L 685.009252 145.088536 
L 685.478602 145.897188 
L 685.947951 154.354544 
L 686.4173 166.878676 
L 686.88665 169.42552 
L 687.355999 163.034034 
L 687.825348 152.430648 
L 688.294698 154.446469 
L 689.702745 153.522665 
L 690.172095 147.664639 
L 690.641444 130.694718 
L 691.110793 127.910686 
L 691.580143 136.439744 
L 692.049492 142.567657 
L 692.518841 145.532522 
L 692.988191 146.265313 
L 693.45754 148.221766 
L 693.926889 157.919274 
L 694.396238 149.852263 
L 694.865588 137.372157 
L 695.334937 136.841709 
L 695.804286 129.332107 
L 696.742985 140.913505 
L 697.212334 138.545917 
L 698.151033 159.157998 
L 699.089732 178.595892 
L 699.559081 167.405412 
L 700.02843 161.518562 
L 700.497779 160.391126 
L 700.967129 149.962548 
L 701.436478 148.650408 
L 701.905827 149.21169 
L 702.375177 135.712416 
L 702.844526 138.252664 
L 703.313875 139.97164 
L 703.783225 150.836739 
L 704.252574 167.008765 
L 705.191272 171.014021 
L 705.660622 188.317356 
L 706.59932 211.485602 
L 707.06867 205.024852 
L 707.538019 196.416923 
L 708.007368 199.108891 
L 708.476718 197.338291 
L 709.415416 175.818182 
L 709.884765 161.540515 
L 710.354115 168.652175 
L 710.823464 169.032051 
L 711.762163 165.711834 
L 712.700861 179.694379 
L 713.170211 198.633659 
L 713.63956 196.394703 
L 714.108909 198.66779 
L 714.578259 204.588771 
L 715.047608 207.871131 
L 715.516957 206.674431 
L 715.986306 211.731263 
L 716.455656 200.771663 
L 716.925005 200.82501 
L 717.394354 203.210238 
L 717.863704 198.474487 
L 718.333053 195.24275 
L 718.802402 201.731035 
L 719.271752 201.520519 
L 719.741101 204.159715 
L 720.21045 201.155559 
L 720.679799 201.499154 
L 721.149149 199.672483 
L 721.618498 198.673679 
L 722.087847 185.972589 
L 722.557197 186.154568 
L 723.026546 187.540419 
L 723.495895 190.62818 
L 723.965245 191.36427 
L 724.434594 190.866804 
L 724.903943 190.992713 
L 725.373293 189.664082 
L 725.842642 187.883586 
L 726.311991 180.914901 
L 726.78134 184.164278 
L 727.25069 182.096833 
L 728.189388 194.532485 
L 728.658738 199.454089 
L 729.128087 197.736261 
L 729.597436 205.398732 
L 730.066786 204.614316 
L 730.536135 204.736927 
L 731.005484 203.715035 
L 731.474833 202.33693 
L 731.944183 202.067045 
L 732.413532 198.808922 
L 732.882881 197.899171 
L 733.352231 196.652997 
L 733.82158 196.340235 
L 734.290929 188.467822 
L 734.760279 186.726906 
L 735.698977 190.533692 
L 736.168326 186.22012 
L 736.637676 180.541061 
L 737.107025 181.227677 
L 737.576374 178.507173 
L 738.045724 183.867447 
L 738.515073 184.089006 
L 738.984422 172.070659 
L 739.453772 172.945276 
L 739.923121 170.142315 
L 740.39247 165.70011 
L 740.86182 165.156469 
L 741.800518 155.200119 
L 742.269867 161.853318 
L 742.739217 166.629797 
L 743.208566 179.34193 
L 744.147265 184.168458 
L 744.616614 184.789108 
L 745.085963 186.184854 
L 745.555313 193.062335 
L 746.024662 189.11817 
L 746.494011 179.507565 
L 746.96336 179.781897 
L 749.310107 181.533856 
L 749.779456 178.077836 
L 750.248806 172.966081 
L 750.718155 165.149739 
L 751.187504 159.589418 
L 752.126203 134.771032 
L 755.411648 117.716217 
L 755.880997 112.838639 
L 756.350347 106.391082 
L 756.819696 102.166563 
L 757.289045 102.31556 
L 757.758394 107.616465 
L 758.227744 107.02335 
L 758.697093 120.757949 
L 759.635792 138.451055 
L 760.57449 143.666779 
L 761.513189 154.80291 
L 761.982538 150.453057 
L 762.451887 148.923231 
L 762.921237 149.992447 
L 763.390586 155.161421 
L 763.859935 165.729675 
L 764.329285 167.580582 
L 764.798634 167.907686 
L 765.267983 165.243252 
L 765.737333 167.278863 
L 766.206682 168.559169 
L 766.676031 166.171791 
L 767.145381 157.821128 
L 767.61473 156.795938 
L 768.084079 157.304447 
L 768.553428 161.615869 
L 769.022778 156.688817 
L 769.492127 146.939685 
L 769.961476 139.924824 
L 771.369524 140.063926 
L 771.838874 141.050685 
L 772.308223 139.11517 
L 772.777572 139.79519 
L 773.716271 151.419466 
L 774.18562 155.42085 
L 774.654969 157.05737 
L 775.124319 153.746474 
L 775.593668 154.456178 
L 776.063017 158.233279 
L 776.532367 158.665927 
L 777.001716 163.089491 
L 777.471065 157.581943 
L 777.940415 158.327927 
L 778.409764 156.154937 
L 778.879113 155.990597 
L 779.348462 153.471288 
L 779.817812 149.758002 
L 780.287161 147.997297 
L 780.75651 151.830469 
L 781.22586 151.676024 
L 781.695209 154.747294 
L 782.164558 155.044713 
L 782.633908 149.359058 
L 783.103257 149.221104 
L 783.572606 153.901934 
L 784.041955 156.125546 
L 785.450003 142.251418 
L 785.919353 148.175698 
L 786.388702 146.431483 
L 786.858051 141.471449 
L 787.327401 150.905095 
L 787.79675 154.316088 
L 788.266099 161.031954 
L 789.204798 168.582858 
L 789.674147 178.115453 
L 790.143496 180.38854 
L 790.612846 167.311446 
L 791.082195 167.358196 
L 791.551544 173.846481 
L 792.020894 176.611011 
L 792.490243 174.484197 
L 792.959592 173.485393 
L 793.428942 175.923394 
L 793.898291 191.069656 
L 794.36764 199.388484 
L 794.836989 197.518935 
L 795.306339 206.513911 
L 796.245037 212.290342 
L 796.714387 217.393351 
L 797.183736 212.535563 
L 797.653085 215.260514 
L 798.122435 214.169358 
L 798.591784 210.244983 
L 799.061133 210.275242 
L 799.530482 206.806029 
L 799.999832 200.196856 
L 800.469181 200.029218 
L 800.93853 197.589067 
L 801.40788 196.547386 
L 801.877229 192.474588 
L 802.346578 190.044332 
L 802.815928 185.278896 
L 803.754626 185.734633 
L 804.223976 193.209102 
L 804.693325 196.831185 
L 805.162674 193.081618 
L 805.632023 191.894812 
L 806.101373 188.27058 
L 806.570722 193.822155 
L 807.040071 198.014839 
L 807.97877 178.776564 
L 808.448119 165.600521 
L 808.917469 165.512042 
L 809.856167 178.72279 
L 810.325516 173.291102 
L 810.794866 169.561325 
L 811.264215 173.041581 
L 811.733564 172.418781 
L 812.202914 174.444497 
L 812.672263 170.038573 
L 813.141612 163.386523 
L 814.080311 172.665724 
L 815.019009 189.253908 
L 815.488359 186.411367 
L 816.427057 194.173361 
L 816.896407 192.152092 
L 817.365756 193.48517 
L 817.835105 193.993678 
L 818.304455 188.225566 
L 818.773804 189.766436 
L 819.243153 181.132121 
L 819.712503 178.945938 
L 820.181852 182.221701 
L 821.12055 171.65517 
L 821.5899 175.029881 
L 822.059249 179.44355 
L 822.997948 180.35115 
L 823.467297 187.574951 
L 823.936646 185.491014 
L 824.405996 181.665587 
L 824.875345 179.749863 
L 825.814043 169.727547 
L 826.283393 177.551634 
L 826.752742 176.150441 
L 827.222091 169.65341 
L 827.691441 170.884241 
L 828.16079 167.955945 
L 828.630139 168.985582 
L 829.099489 162.686447 
L 829.568838 162.159297 
L 830.038187 159.663076 
L 830.507537 165.053034 
L 830.976886 167.705423 
L 831.446235 169.11766 
L 832.384934 178.172579 
L 832.854283 174.281186 
L 833.323632 166.656144 
L 833.792982 163.213317 
L 834.262331 160.967765 
L 835.20103 165.444675 
L 835.670379 175.946963 
L 836.139728 180.231999 
L 836.609077 186.040839 
L 837.078427 189.01316 
L 837.547776 190.326449 
L 838.017125 187.457522 
L 838.486475 189.235867 
L 839.425173 176.406719 
L 839.894523 178.745771 
L 840.833221 184.970768 
L 841.30257 185.858579 
L 841.77192 175.637793 
L 842.241269 170.252281 
L 843.179968 164.497936 
L 843.649317 163.987277 
L 844.118666 158.585274 
L 844.588016 159.80621 
L 845.057365 160.598371 
L 845.996064 166.875566 
L 846.465413 172.595353 
L 846.934762 171.969254 
L 848.812159 176.313659 
L 849.281509 180.087462 
L 849.750858 192.934825 
L 850.220207 199.475882 
L 850.689557 202.708768 
L 851.158906 200.85571 
L 851.628255 204.237019 
L 852.097604 196.480045 
L 853.036303 186.47752 
L 853.505652 185.561173 
L 853.975002 184.222647 
L 854.444351 192.271017 
L 855.38305 192.809784 
L 855.852399 195.547928 
L 856.321748 188.882685 
L 856.791098 190.120113 
L 857.260447 186.647601 
L 857.729796 180.981736 
L 858.199145 184.537853 
L 858.668495 186.359076 
L 859.137844 190.515479 
L 859.607193 196.350705 
L 860.076543 194.880248 
L 860.545892 203.832345 
L 861.015241 207.408252 
L 861.484591 205.594774 
L 861.95394 199.684836 
L 862.423289 197.99999 
L 862.892638 194.322986 
L 863.361988 192.664527 
L 864.300686 171.962391 
L 864.770036 169.462871 
L 865.239385 172.913443 
L 865.708734 166.251498 
L 866.178084 164.639214 
L 866.647433 169.956611 
L 867.116782 165.336299 
L 867.586131 175.089878 
L 868.055481 173.20054 
L 868.994179 185.398716 
L 869.463529 184.027207 
L 869.932878 184.835859 
L 870.402227 197.696415 
L 870.871577 194.794506 
L 871.340926 187.304693 
L 871.810275 186.731367 
L 872.279625 180.544374 
L 872.748974 183.750873 
L 873.218323 180.162922 
L 873.687672 164.654998 
L 874.157022 158.616427 
L 874.626371 154.662367 
L 875.09572 148.346741 
L 875.56507 147.377622 
L 876.034419 146.96921 
L 876.503768 137.63566 
L 876.973118 140.756405 
L 877.442467 142.914052 
L 877.911816 157.997646 
L 878.381165 161.25362 
L 878.850515 172.40237 
L 879.319864 171.433251 
L 880.258563 187.859819 
L 880.727912 186.778558 
L 881.197261 178.183822 
L 882.13596 173.349123 
L 882.605309 165.902188 
L 883.074659 174.359544 
L 883.544008 177.790326 
L 884.013357 179.43674 
L 884.482706 180.634589 
L 884.952056 189.741706 
L 885.421405 194.60394 
L 885.890754 204.62468 
L 886.829453 199.879034 
L 887.298802 192.65968 
L 887.768152 198.537783 
L 888.237501 198.139266 
L 888.70685 192.931861 
L 889.176199 193.450265 
L 889.645549 190.934253 
L 890.114898 190.572017 
L 890.584247 192.96714 
L 891.053597 189.412172 
L 891.522946 190.352755 
L 891.992295 190.089467 
L 892.930994 183.6128 
L 893.400343 176.030635 
L 894.339042 167.403491 
L 894.808391 164.778637 
L 895.27774 165.273953 
L 895.74709 168.88614 
L 896.216439 169.157173 
L 896.685788 168.184756 
L 897.155138 169.504641 
L 897.624487 163.44628 
L 898.093836 168.005073 
L 899.032535 157.052644 
L 899.501884 155.00169 
L 899.971233 164.339686 
L 900.440583 167.569273 
L 900.909932 169.034282 
L 901.379281 165.446331 
L 901.848631 173.808037 
L 902.31798 176.60555 
L 902.787329 172.724053 
L 903.256679 178.137099 
L 903.726028 178.490589 
L 904.195377 187.93413 
L 904.664726 191.513335 
L 905.134076 185.550624 
L 905.603425 189.878538 
L 906.072774 192.590296 
L 906.542124 187.574191 
L 907.011473 185.05818 
L 907.950172 181.318508 
L 908.419521 172.176258 
L 908.88887 178.199486 
L 909.827569 167.793997 
L 910.296918 164.370959 
L 910.766267 159.549453 
L 911.235617 159.002513 
L 911.704966 157.746444 
L 912.174315 170.475068 
L 912.643665 170.376694 
L 913.113014 177.91713 
L 913.582363 179.065504 
L 914.051713 179.75212 
L 914.990411 192.164685 
L 915.45976 184.783715 
L 915.92911 182.257809 
L 916.398459 186.803409 
L 920.153253 184.204941 
L 920.622603 181.520718 
L 921.091952 173.084299 
L 921.561301 158.374558 
L 922.030651 157.745162 
L 922.969349 143.481262 
L 923.438699 144.35588 
L 923.908048 143.106407 
L 924.377397 148.37433 
L 924.846747 156.495262 
L 925.316096 161.347601 
L 925.785445 173.413272 
L 926.254794 176.16461 
L 926.724144 186.501984 
L 927.193493 186.238696 
L 927.662842 189.47488 
L 928.132192 187.206239 
L 928.601541 189.152797 
L 929.07089 178.196495 
L 929.54024 180.733444 
L 930.009589 180.344822 
L 930.478938 187.215707 
L 930.948287 186.427993 
L 931.417637 185.900843 
L 931.886986 182.184259 
L 932.825685 188.378997 
L 933.295034 187.050366 
L 933.764383 176.222697 
L 934.233733 180.636365 
L 934.703082 182.787416 
L 935.172431 182.144826 
L 935.64178 181.004197 
L 936.11113 178.705872 
L 936.580479 173.409413 
L 937.049828 179.49201 
L 937.519178 176.646172 
L 937.988527 176.77208 
L 938.927226 190.870064 
L 939.396575 192.671498 
L 939.865924 193.028286 
L 940.335274 194.582348 
L 940.804623 196.542099 
L 941.273972 193.349941 
L 941.743321 193.060267 
L 942.212671 192.998174 
L 942.68202 191.039572 
L 943.151369 195.575277 
L 943.620719 195.434025 
L 944.090068 187.080064 
L 944.559417 186.358315 
L 945.028767 179.831599 
L 945.498116 166.365309 
L 945.967465 171.629933 
L 946.436814 164.852548 
L 946.906164 162.079271 
L 947.375513 165.414404 
L 947.844862 156.374401 
L 948.314212 158.98721 
L 948.783561 163.625162 
L 949.25291 156.257385 
L 949.72226 159.915749 
L 950.660958 152.238508 
L 951.130308 165.953318 
L 951.599657 168.740936 
L 952.069006 191.107126 
L 952.538355 193.55832 
L 953.007705 199.297896 
L 953.477054 206.930683 
L 953.946403 209.075138 
L 954.415753 206.921937 
L 954.885102 213.271694 
L 955.354451 206.049042 
L 955.823801 211.359842 
L 956.29315 212.97987 
L 956.762499 217.607927 
L 957.231848 226.589709 
L 957.701198 226.408878 
L 958.639896 214.997988 
L 959.578595 199.160811 
L 960.517294 190.025732 
L 960.986643 190.016412 
L 961.925341 174.591519 
L 962.394691 177.738649 
L 962.86404 178.748496 
L 963.333389 178.890896 
L 963.802739 183.532146 
L 964.272088 183.578896 
L 964.741437 196.1558 
L 965.210787 205.216741 
L 966.149485 225.274712 
L 966.618835 224.160468 
L 967.088184 220.351533 
L 968.026882 215.830743 
L 968.496232 214.7165 
L 968.965581 204.188974 
L 969.43493 201.484961 
L 969.90428 208.148055 
L 970.373629 206.80623 
L 970.842978 208.742893 
L 972.720375 182.718487 
L 973.189725 172.197557 
L 973.659074 167.854301 
L 974.128423 165.651626 
L 974.597773 173.17557 
L 975.067122 172.127292 
L 975.536471 182.016101 
L 976.005821 180.611609 
L 976.47517 188.105868 
L 976.944519 189.706107 
L 977.413869 192.619059 
L 977.883218 186.155011 
L 978.352567 192.240906 
L 978.821916 193.587177 
L 979.291266 195.42819 
L 979.760615 192.06782 
L 980.229964 183.667683 
L 980.699314 181.197847 
L 981.168663 170.248142 
L 982.107362 161.132853 
L 982.576711 170.137723 
L 983.04606 169.71282 
L 983.515409 184.051004 
L 984.454108 185.23566 
L 984.923457 176.050532 
L 985.392807 173.511433 
L 987.739553 139.921354 
L 988.208902 156.18903 
L 988.678252 153.544386 
L 989.147601 162.79003 
L 989.61695 161.97593 
L 990.0863 164.859198 
L 990.555649 165.156618 
L 991.024998 174.300015 
L 991.494348 188.994413 
L 991.963697 193.609277 
L 992.433046 189.797043 
L 992.902396 209.504822 
L 993.371745 205.511183 
L 993.841094 207.774375 
L 994.310443 200.13614 
L 994.779793 182.682232 
L 995.249142 172.115127 
L 995.718491 167.540991 
L 996.187841 133.777105 
L 996.65719 125.123 
L 997.126539 123.233662 
L 997.595889 127.307608 
L 998.065238 133.802489 
L 998.534587 149.835988 
L 999.003936 156.822313 
L 999.942635 201.066548 
L 1000.411984 206.54556 
L 1000.881334 200.229934 
L 1001.350683 199.772047 
L 1001.820032 188.48262 
L 1002.289382 180.171536 
L 1002.758731 165.000036 
L 1003.22808 142.410712 
L 1003.69743 133.080461 
L 1004.166779 131.761724 
L 1004.636128 127.385485 
L 1005.105477 133.590118 
L 1005.574827 141.998 
L 1006.044176 144.119366 
L 1006.513525 159.272225 
L 1006.982875 160.371125 
L 1007.452224 173.604386 
L 1007.921573 169.56787 
L 1008.390923 160.036423 
L 1008.860272 145.950057 
L 1009.329621 149.997617 
L 1009.79897 135.215314 
L 1010.26832 141.967461 
L 1010.737669 132.495384 
L 1011.207018 137.331232 
L 1011.676368 150.327017 
L 1012.615066 170.955015 
L 1013.553765 205.228559 
L 1014.023114 215.450494 
L 1014.961813 228.849243 
L 1015.900511 230.657273 
L 1016.83921 195.297594 
L 1017.777909 187.062371 
L 1018.716607 158.602688 
L 1019.185957 153.66904 
L 1019.655306 144.523492 
L 1020.124655 162.249006 
L 1020.594004 164.967361 
L 1021.063354 162.767984 
L 1021.532703 167.656605 
L 1022.002052 181.767208 
L 1022.471402 180.333032 
L 1022.940751 186.372751 
L 1023.4101 162.266219 
L 1024.348799 160.221861 
L 1024.818148 152.956332 
L 1025.287497 137.250511 
L 1026.226196 150.335924 
L 1027.164895 145.798069 
L 1027.634244 149.76647 
L 1028.103593 142.593292 
L 1028.572943 154.830474 
L 1029.511641 143.040282 
L 1029.980991 130.794354 
L 1030.45034 132.302241 
L 1030.919689 139.766816 
L 1031.858388 162.683818 
L 1032.797086 167.28133 
L 1033.266436 190.167788 
L 1034.205134 201.615535 
L 1034.674484 213.337325 
L 1035.143833 228.687219 
L 1035.613182 221.829816 
L 1036.082531 228.684209 
L 1036.551881 214.653913 
L 1037.02123 196.995513 
L 1037.490579 194.070515 
L 1037.959929 190.086771 
L 1038.429278 174.176457 
L 1039.367977 169.01193 
L 1039.837326 169.104856 
L 1040.306675 171.829807 
L 1040.776024 161.704671 
L 1041.245374 166.896733 
L 1041.714723 180.024449 
L 1042.184072 180.562643 
L 1042.653422 193.165933 
L 1043.122771 179.155427 
L 1043.59212 183.595482 
L 1044.06147 194.698056 
L 1044.530819 177.277131 
L 1045.000168 152.039291 
L 1045.469518 156.832261 
L 1045.938867 145.724239 
L 1046.408216 156.539863 
L 1046.877565 161.293254 
L 1047.346915 170.644443 
L 1047.816264 201.51689 
L 1049.224312 240.913232 
L 1049.693661 233.080399 
L 1050.163011 219.027015 
L 1050.63236 219.941212 
L 1051.101709 208.770522 
L 1051.571058 208.74471 
L 1052.040408 200.403942 
L 1052.509757 180.324606 
L 1052.979106 186.954717 
L 1053.448456 211.583525 
L 1053.917805 199.862023 
L 1054.387154 182.573029 
L 1054.856504 187.616669 
L 1055.325853 168.170602 
L 1055.795202 176.403676 
L 1056.264552 167.686904 
L 1056.733901 167.997516 
L 1057.20325 174.907981 
L 1057.672599 185.832448 
L 1058.141949 167.356075 
L 1058.611298 190.319253 
L 1059.549997 190.33302 
L 1060.019346 195.102903 
L 1060.488695 182.398514 
L 1061.427394 196.935169 
L 1061.896743 202.964994 
L 1062.366092 191.345738 
L 1063.304791 177.352298 
L 1063.77414 187.307072 
L 1064.24349 183.366205 
L 1064.712839 184.329876 
L 1065.182188 185.903728 
L 1066.120887 197.349898 
L 1066.590236 207.42341 
L 1067.059585 191.252532 
L 1067.528935 191.949043 
L 1067.998284 185.165061 
L 1068.467633 183.153686 
L 1068.936983 171.630081 
L 1069.406332 167.685916 
L 1069.875681 166.175879 
L 1070.345031 174.45183 
L 1071.283729 186.079405 
L 1072.222428 193.861189 
L 1072.691777 205.118782 
L 1073.161126 204.156259 
L 1073.630476 204.809892 
L 1074.099825 199.981789 
L 1074.569174 206.041298 
L 1075.038524 214.983501 
L 1075.507873 218.107543 
L 1075.977222 212.293255 
L 1076.446572 210.189529 
L 1077.38527 198.722568 
L 1077.854619 189.50116 
L 1078.323969 184.775304 
L 1078.793318 187.137444 
L 1079.732017 207.927632 
L 1080.201366 215.530735 
L 1080.670715 214.845267 
L 1081.140065 220.960847 
L 1081.609414 219.892779 
L 1082.078763 217.089818 
L 1083.017462 192.904702 
L 1083.486811 186.034965 
L 1083.95616 184.597491 
L 1084.42551 182.800504 
L 1085.364208 163.810174 
L 1085.833558 172.129002 
L 1086.302907 176.02814 
L 1086.772256 181.517047 
L 1087.241606 180.877755 
L 1087.710955 177.632825 
L 1088.649653 190.734729 
L 1089.119003 180.860262 
L 1089.588352 183.987603 
L 1090.057701 184.433445 
L 1090.527051 190.189512 
L 1090.9964 192.04042 
L 1091.465749 187.631198 
L 1091.935099 188.080337 
L 1093.343146 179.23938 
L 1093.812496 181.245306 
L 1094.281845 177.192298 
L 1094.751194 184.755821 
L 1095.220544 187.342245 
L 1095.689893 199.490373 
L 1096.159242 199.451368 
L 1096.628592 201.562839 
L 1097.097941 195.910167 
L 1097.56729 195.066382 
L 1098.03664 190.192103 
L 1098.505989 187.273702 
L 1098.975338 179.061566 
L 1099.444687 179.246844 
L 1099.914037 176.671464 
L 1100.383386 179.498662 
L 1100.852735 185.106307 
L 1101.322085 182.441873 
L 1101.791434 183.953058 
L 1102.260783 186.302005 
L 1102.730133 187.104061 
L 1103.199482 184.024045 
L 1103.668831 188.114482 
L 1104.13818 190.611852 
L 1104.60753 199.540862 
L 1105.076879 200.817869 
L 1105.546228 203.991386 
L 1106.954276 232.298921 
L 1107.423626 235.617562 
L 1107.892975 234.180087 
L 1108.362324 233.834342 
L 1108.831674 241.569376 
L 1109.770372 233.150023 
L 1110.709071 220.799125 
L 1111.17842 219.176947 
L 1111.647769 221.736984 
L 1112.117119 215.642342 
L 1112.586468 214.119112 
L 1113.055817 215.884265 
L 1113.525167 210.973705 
L 1113.994516 215.123511 
L 1114.463865 215.120787 
L 1114.933214 212.987376 
L 1115.402564 208.950859 
L 1115.871913 205.936808 
L 1116.341262 207.415011 
L 1116.810612 213.401958 
L 1117.279961 210.602295 
L 1118.21866 220.297079 
L 1118.688009 215.775715 
L 1119.157358 216.083029 
L 1119.626707 209.068169 
L 1120.096057 197.907374 
L 1120.565406 197.037203 
L 1121.504105 183.221869 
L 1121.973454 183.199355 
L 1122.442803 180.643765 
L 1122.912153 182.761833 
L 1123.381502 194.814311 
L 1123.850851 196.912589 
L 1124.320201 204.650921 
L 1124.78955 208.352162 
L 1125.258899 222.060375 
L 1125.728248 229.373229 
L 1126.197598 230.610657 
L 1126.666947 229.526099 
L 1128.074995 250.026612 
L 1128.544344 247.955869 
L 1129.013694 249.757302 
L 1129.952392 249.412131 
L 1130.421741 244.755538 
L 1130.891091 228.017357 
L 1131.36044 223.98084 
L 1132.299139 217.636104 
L 1132.768488 210.324398 
L 1133.237837 216.944614 
L 1133.707187 220.38859 
L 1134.176536 236.290157 
L 1134.645885 236.122519 
L 1135.115235 235.103926 
L 1135.584584 239.022853 
L 1136.053933 246.935993 
L 1136.992632 234.786289 
L 1137.461981 223.707951 
L 1137.93133 220.430038 
L 1138.40068 218.507717 
L 1138.870029 211.941422 
L 1139.339378 214.488266 
L 1139.808728 215.336497 
L 1140.278077 213.074454 
L 1140.747426 209.588749 
L 1141.216775 207.359688 
L 1141.686125 208.16834 
L 1142.155474 206.259212 
L 1142.624823 209.343675 
L 1143.094173 200.264093 
L 1144.502221 194.596077 
L 1144.97157 187.798903 
L 1145.440919 187.169506 
L 1145.910268 179.211338 
L 1146.379618 179.046998 
L 1147.787666 187.578065 
L 1149.195714 196.326818 
L 1149.665063 203.065772 
L 1150.603762 197.130022 
L 1151.073111 192.473429 
L 1151.54246 198.559324 
L 1152.011809 202.752009 
L 1152.481159 205.622084 
L 1152.950508 196.994365 
L 1154.358556 211.21496 
L 1154.827905 208.35263 
L 1155.297255 206.717259 
L 1155.766604 201.358133 
L 1156.235953 209.746225 
L 1156.705302 208.592402 
L 1157.174652 209.094315 
L 1157.644001 214.065392 
L 1158.11335 212.961044 
L 1158.5827 216.639197 
L 1159.052049 217.467638 
L 1159.521398 216.139007 
L 1160.460097 217.380307 
L 1160.929446 216.67505 
L 1161.398796 219.28786 
L 1161.868145 218.101054 
L 1162.337494 222.814866 
L 1162.806843 223.036425 
L 1163.276193 230.124996 
L 1163.745542 232.236468 
L 1164.214891 232.141392 
L 1164.684241 229.041586 
L 1165.15359 224.701628 
L 1165.622939 217.149148 
L 1166.092289 213.353405 
L 1166.561638 206.147244 
L 1167.030987 203.308002 
L 1167.500336 203.292085 
L 1167.969686 205.044044 
L 1168.439035 205.031425 
L 1168.908384 208.343469 
L 1169.377734 209.495142 
L 1169.847083 200.636545 
L 1170.316432 197.309157 
L 1170.785782 195.139465 
L 1171.255131 190.693962 
L 1171.72448 198.264082 
L 1172.193829 201.757531 
L 1173.601877 216.64108 
L 1174.071227 215.259676 
L 1174.540576 219.531519 
L 1175.479275 199.429669 
L 1175.948624 197.190713 
L 1176.417973 204.351847 
L 1177.826021 194.844637 
L 1178.29537 196.966003 
L 1178.76472 205.561887 
L 1179.234069 208.807966 
L 1179.703418 202.241671 
L 1180.172768 201.737608 
L 1180.642117 213.598786 
L 1181.111466 216.755812 
L 1181.580816 218.04931 
L 1182.050165 218.049885 
L 1182.519514 209.524413 
L 1182.988863 211.411602 
L 1183.458213 214.383923 
L 1183.927562 214.523025 
L 1184.866261 218.99004 
L 1185.804959 221.38244 
L 1186.274309 223.197066 
L 1186.743658 223.966139 
L 1187.213007 215.93211 
L 1188.621055 198.713529 
L 1189.090404 202.104732 
L 1189.559754 197.091925 
L 1190.029103 198.721848 
L 1190.498452 194.619366 
L 1190.967802 196.311956 
L 1191.9065 201.06922 
L 1192.37585 195.307704 
L 1192.845199 194.404551 
L 1193.314548 192.884619 
L 1193.783897 193.788921 
L 1194.722596 186.296385 
L 1195.191945 178.018284 
L 1195.661295 180.423302 
L 1196.599993 176.928277 
L 1197.069343 172.347544 
L 1197.538692 170.497785 
L 1198.008041 169.584736 
L 1198.47739 171.824841 
L 1198.94674 168.134643 
L 1199.416089 173.521303 
L 1200.354788 173.472403 
L 1200.824137 184.047253 
L 1201.293486 183.98516 
L 1202.232185 190.787356 
L 1202.701534 197.529608 
L 1203.170884 198.813212 
L 1203.640233 193.242996 
L 1204.109582 190.252033 
L 1205.048281 221.880359 
L 1205.986979 213.846331 
L 1206.456329 215.453166 
L 1206.925678 204.325354 
L 1207.395027 205.143901 
L 1207.864377 202.030902 
L 1208.803075 169.309844 
L 1209.272424 180.649895 
L 1209.741774 174.627815 
L 1210.211123 186.099797 
L 1210.680472 190.048408 
L 1211.149822 190.738322 
L 1211.619171 195.112412 
L 1212.08852 196.946828 
L 1212.55787 184.822936 
L 1213.027219 183.96266 
L 1213.965918 176.489913 
L 1215.843315 178.100046 
L 1216.312664 172.879448 
L 1216.782013 169.542166 
L 1217.251363 181.400046 
L 1218.659411 205.505576 
L 1219.12876 206.050366 
L 1219.598109 213.28736 
L 1220.067458 213.499024 
L 1221.006157 200.765525 
L 1221.475506 203.774128 
L 1221.944856 205.219347 
L 1222.414205 204.890094 
L 1223.352904 220.640515 
L 1223.822253 224.688075 
L 1224.291602 234.464742 
L 1225.230301 222.136931 
L 1225.69965 231.712403 
L 1226.168999 219.037699 
L 1226.638349 217.949842 
L 1227.107698 223.362888 
L 1227.577047 224.122066 
L 1228.046397 225.21437 
L 1228.515746 232.250169 
L 1228.985095 217.075371 
L 1229.454445 232.673497 
L 1229.923794 228.900842 
L 1230.393143 229.082822 
L 1230.862492 223.634642 
L 1231.331842 227.302901 
L 1231.801191 219.667964 
L 1232.27054 224.084931 
L 1232.73989 212.656975 
L 1233.209239 211.170027 
L 1233.678588 208.106501 
L 1234.147938 210.633556 
L 1234.617287 207.500767 
L 1235.086636 211.897944 
L 1235.555985 210.909035 
L 1236.025335 211.417544 
L 1236.494684 215.191347 
L 1236.964033 211.471465 
L 1237.433383 204.872187 
L 1237.902732 196.317031 
L 1238.372081 197.874392 
L 1238.841431 194.817463 
L 1239.31078 199.745663 
L 1239.780129 196.095045 
L 1240.249479 200.84184 
L 1241.188177 222.199331 
L 1241.657526 221.774428 
L 1242.126876 236.891005 
L 1242.596225 243.277043 
L 1243.065574 261.127892 
L 1243.534924 267.500738 
L 1244.004273 271.607667 
L 1244.473622 265.671342 
L 1244.942972 274.445333 
L 1245.88167 267.625645 
L 1246.351019 256.098741 
L 1246.820369 249.496165 
L 1247.289718 247.079102 
L 1247.759067 252.43278 
L 1248.228417 245.935748 
L 1248.697766 251.009073 
L 1249.167115 248.479868 
L 1249.636465 253.853336 
L 1250.105814 255.90214 
L 1250.575163 251.054247 
L 1251.044512 250.147795 
L 1251.513862 244.798564 
L 1251.983211 238.034372 
L 1252.45256 234.571756 
L 1252.92191 226.834572 
L 1253.391259 223.490693 
L 1254.329958 221.192943 
L 1254.799307 228.238637 
L 1255.268656 227.6851 
L 1255.738006 231.23462 
L 1256.207355 238.273718 
L 1256.676704 241.902396 
L 1257.146053 240.758469 
L 1257.615403 235.831417 
L 1258.084752 229.535581 
L 1258.554101 232.507902 
L 1259.023451 231.535485 
L 1259.4928 220.091038 
L 1259.962149 215.460831 
L 1260.431499 212.624887 
L 1260.900848 218.565658 
L 1261.839546 215.120107 
L 1262.308896 221.341232 
L 1262.778245 231.328989 
L 1263.716944 241.416268 
L 1264.186293 238.332953 
L 1264.655642 246.100969 
L 1265.124992 247.526399 
L 1266.06369 239.10045 
L 1266.533039 238.408386 
L 1267.002389 244.121576 
L 1267.471738 261.203926 
L 1267.941087 260.15235 
L 1268.410437 259.496567 
L 1268.879786 263.211001 
L 1269.349135 264.761766 
L 1269.818485 272.599046 
L 1270.287834 262.510191 
L 1270.757183 248.235823 
L 1271.226533 249.136826 
L 1272.165231 243.784871 
L 1272.63458 243.007052 
L 1273.10393 233.25792 
L 1274.042628 228.849272 
L 1274.511978 221.379249 
L 1274.981327 218.662043 
L 1275.450676 220.308457 
L 1275.920026 215.971797 
L 1276.389375 214.376005 
L 1276.858724 222.200093 
L 1277.797423 228.626284 
L 1278.266772 234.032735 
L 1278.736121 232.651331 
L 1279.205471 241.458304 
L 1279.67482 243.444441 
L 1280.144169 242.171881 
L 1280.613519 248.399602 
L 1281.082868 251.929332 
L 1282.021567 246.560886 
L 1282.490916 237.322986 
L 1282.960265 238.540625 
L 1283.429614 239.326189 
L 1284.368313 220.566738 
L 1284.837662 230.148807 
L 1285.307012 231.28069 
L 1285.776361 235.285372 
L 1286.24571 236.23585 
L 1287.184409 242.784078 
L 1287.653758 249.074466 
L 1288.123107 240.789769 
L 1288.592457 241.86888 
L 1289.061806 234.811141 
L 1289.531155 236.978683 
L 1290.000505 230.234281 
L 1290.469854 234.905216 
L 1290.939203 233.345705 
L 1291.877902 238.132653 
L 1292.347251 250.745838 
L 1292.8166 247.748279 
L 1293.28595 246.709896 
L 1293.755299 244.022374 
L 1294.224648 254.960035 
L 1294.693998 258.28857 
L 1295.163347 266.290764 
L 1295.632696 263.177765 
L 1296.102046 263.099181 
L 1296.571395 268.703527 
L 1297.040744 268.855822 
L 1297.510094 267.484313 
L 1298.448792 262.808505 
L 1298.918141 266.902241 
L 1299.387491 265.817682 
L 1299.85684 266.223944 
L 1300.326189 266.270694 
L 1300.795539 265.608315 
L 1301.734237 260.33222 
L 1302.203587 254.052875 
L 1302.672936 262.431073 
L 1303.142285 263.905977 
L 1303.611634 267.376338 
L 1304.080984 267.238385 
L 1304.550333 265.807507 
L 1305.019682 264.838388 
L 1305.489032 268.03829 
L 1305.958381 266.017021 
L 1306.42773 264.985234 
L 1306.89708 264.797807 
L 1307.366429 257.786244 
L 1307.835778 261.939349 
L 1308.305128 262.71172 
L 1308.774477 262.389063 
L 1309.243826 263.517648 
L 1309.713175 262.901444 
L 1310.182525 256.595713 
L 1310.651874 259.053504 
L 1311.590573 244.205809 
L 1312.059922 238.39482 
L 1312.529271 230.832445 
L 1312.998621 229.190477 
L 1313.46797 234.05601 
L 1313.937319 236.302711 
L 1314.406668 247.550409 
L 1314.876018 255.869238 
L 1315.345367 261.094283 
L 1315.814716 268.957949 
L 1316.284066 270.920998 
L 1316.753415 268.286249 
L 1317.222764 270.8199 
L 1317.692114 275.339113 
L 1318.630812 293.114676 
L 1319.100161 289.793885 
L 1319.569511 287.340542 
L 1320.03886 286.635285 
L 1320.508209 287.153688 
L 1321.916257 266.508197 
L 1322.385607 270.437019 
L 1322.854956 272.192277 
L 1323.324305 277.090792 
L 1323.793655 272.955327 
L 1324.732353 256.923551 
L 1325.671052 247.834649 
L 1326.140401 246.670931 
L 1326.60975 240.793976 
L 1327.548449 242.734511 
L 1328.017798 245.113143 
L 1328.487148 246.743066 
L 1328.956497 255.154246 
L 1329.425846 255.774896 
L 1329.895195 255.244448 
L 1330.364545 257.283357 
L 1330.833894 264.305963 
L 1331.303243 262.515573 
L 1331.772593 261.239714 
L 1332.241942 250.336185 
L 1332.711291 248.070843 
L 1333.64999 256.129682 
L 1334.119339 253.811567 
L 1334.588689 260.415292 
L 1335.058038 258.58862 
L 1335.527387 260.756163 
L 1335.996736 265.545835 
L 1336.466086 263.666391 
L 1336.935435 256.941779 
L 1337.404784 252.766734 
L 1337.874134 246.385143 
L 1338.343483 244.878404 
L 1338.812832 237.474347 
L 1339.282182 233.728078 
L 1339.751531 228.078704 
L 1340.22088 227.277797 
L 1340.690229 227.707147 
L 1341.159579 225.35605 
L 1341.628928 227.586259 
L 1342.098277 235.031045 
L 1342.567627 230.080905 
L 1343.506325 233.894862 
L 1343.975675 230.854425 
L 1344.445024 231.395916 
L 1344.914373 223.582872 
L 1345.383722 230.635163 
L 1353.83201 223.811602 
L 1354.301359 225.395349 
L 1354.770709 222.381298 
L 1355.240058 222.863421 
L 1355.709407 227.498074 
L 1356.178756 237.739798 
L 1356.648106 217.620883 
L 1357.117455 220.012708 
L 1357.586804 206.701436 
L 1358.525503 191.936199 
L 1358.994852 177.615655 
L 1359.464202 167.012269 
L 1359.933551 173.50715 
L 1360.4029 175.018335 
L 1360.87225 174.50108 
L 1361.341599 175.632963 
L 1362.280297 185.964315 
L 1363.218996 191.123968 
L 1363.688345 192.282238 
L 1364.157695 197.368755 
L 1364.627044 207.260862 
L 1365.096393 209.246999 
L 1365.565743 206.035051 
L 1366.035092 205.326496 
L 1366.504441 200.854606 
L 1366.97379 199.334675 
L 1367.44314 204.708142 
L 1367.912489 193.626506 
L 1368.381838 192.799213 
L 1368.851188 191.493669 
L 1369.320537 197.117806 
L 1369.789886 194.024596 
L 1370.259236 197.847873 
L 1370.728585 199.16446 
L 1371.197934 197.941373 
L 1371.667283 189.584114 
L 1372.136633 187.595827 
L 1372.605982 178.067679 
L 1373.075331 182.296644 
L 1373.544681 180.598606 
L 1374.01403 183.188327 
L 1374.483379 190.111985 
L 1374.952729 198.843098 
L 1376.830126 200.882008 
L 1377.299475 209.171152 
L 1377.768824 194.101899 
L 1378.707523 205.346299 
L 1379.176872 188.476187 
L 1379.646222 187.427909 
L 1380.115571 179.746796 
L 1380.58492 181.96711 
L 1381.05427 174.121084 
L 1381.523619 185.177482 
L 1381.992968 166.862725 
L 1382.462317 168.199101 
L 1383.401016 156.003221 
L 1384.339715 130.85171 
L 1384.809064 121.788619 
L 1385.747763 106.894749 
L 1386.217112 90.163164 
L 1386.686461 80.72407 
L 1387.155811 76.229092 
L 1387.62516 70.045397 
L 1390.441256 61.456255 
L 1390.910605 59.447175 
L 1391.379954 56.613526 
L 1392.788002 55.8 
L 1396.073447 62.640916 
L 1396.542797 64.550764 
L 1397.012146 65.76238 
L 1397.950844 83.301615 
L 1398.420194 98.14673 
L 1398.889543 99.433632 
L 1399.358892 113.049494 
L 1400.297591 148.916106 
L 1400.76694 152.379871 
L 1401.23629 159.41567 
L 1401.705639 155.850806 
L 1402.644338 165.113516 
L 1403.113687 159.665337 
L 1403.583036 166.938612 
L 1404.052385 167.724176 
L 1404.521735 167.107972 
L 1404.991084 172.567195 
L 1405.460433 174.404909 
L 1405.929783 169.233785 
L 1406.399132 175.692386 
L 1406.868481 163.337615 
L 1407.337831 155.336569 
L 1407.80718 153.038244 
L 1408.276529 156.360183 
L 1408.745878 163.976479 
L 1409.215228 181.349078 
L 1410.623276 214.683187 
L 1411.092625 217.371857 
L 1411.561974 218.800585 
L 1412.031324 216.093274 
L 1412.500673 205.595433 
L 1412.970022 190.529478 
L 1413.439372 189.055722 
L 1413.908721 200.359491 
L 1414.37807 204.172874 
L 1414.847419 209.371532 
L 1415.316769 208.366132 
L 1415.786118 208.963694 
L 1416.255467 208.413456 
L 1416.724817 206.814366 
L 1417.194166 190.39282 
L 1417.663515 189.65458 
L 1418.132865 186.221648 
L 1418.602214 185.760463 
L 1419.071563 175.988243 
L 1419.540912 171.173333 
L 1420.010262 168.080123 
L 1421.887659 162.694611 
L 1422.357008 162.965644 
L 1422.826358 161.320378 
L 1423.295707 172.383373 
L 1423.765056 189.040246 
L 1424.234405 190.795503 
L 1424.703755 183.493692 
L 1425.173104 189.091442 
L 1425.642453 188.059656 
L 1426.111803 185.250098 
L 1427.050501 159.673109 
L 1427.519851 167.582951 
L 1427.9892 178.33261 
L 1428.458549 177.003979 
L 1429.397248 187.130837 
L 1429.866597 199.351527 
L 1430.335946 200.839624 
L 1431.274645 212.849799 
L 1431.743994 213.23957 
L 1432.213344 216.812178 
L 1432.682693 214.127955 
L 1433.152042 201.334513 
L 1433.621392 205.67562 
L 1434.56009 183.462873 
L 1435.029439 180.412541 
L 1435.498789 165.359779 
L 1435.968138 159.588369 
L 1436.437487 162.187985 
L 1436.906837 156.647454 
L 1437.376186 161.925271 
L 1437.845535 172.031766 
L 1438.314885 172.589749 
L 1438.784234 179.688215 
L 1439.253583 178.639937 
L 1439.722933 179.573924 
L 1440.192282 181.12139 
L 1440.661631 177.533439 
L 1441.13098 173.035163 
L 1441.60033 173.45132 
L 1442.069679 171.594965 
L 1442.539028 177.476367 
L 1443.008378 173.294726 
L 1443.477727 170.897453 
L 1443.947076 172.599938 
L 1444.416426 177.412698 
L 1444.885775 186.965082 
L 1445.355124 189.544909 
L 1445.824473 188.298734 
L 1446.293823 190.080378 
L 1446.763172 198.465172 
L 1447.232521 201.229703 
L 1447.701871 199.445909 
L 1448.17122 196.438455 
L 1448.640569 198.549926 
L 1449.109919 201.327649 
L 1449.579268 209.257281 
L 1450.048617 208.631183 
L 1450.517966 210.063209 
L 1450.987316 208.5004 
L 1451.456665 211.146193 
L 1451.926014 208.475162 
L 1452.864713 212.816843 
L 1453.334062 217.322864 
L 1453.803412 211.716367 
L 1454.272761 211.205708 
L 1454.74211 212.558576 
L 1455.21146 222.091171 
L 1455.680809 226.148626 
L 1456.150158 226.960576 
L 1456.619507 217.90738 
L 1457.088857 223.666746 
L 1457.558206 225.052596 
L 1458.027555 226.992557 
L 1458.496905 225.053745 
L 1458.966254 220.872104 
L 1459.435603 210.888794 
L 1459.904953 216.476649 
L 1460.374302 212.661117 
L 1460.843651 218.285253 
L 1461.313 215.993525 
L 1461.78235 214.318574 
L 1462.251699 221.143283 
L 1462.721048 239.845088 
L 1463.190398 240.805461 
L 1463.659747 247.570801 
L 1464.129096 247.201968 
L 1464.598446 250.774576 
L 1465.537144 247.556606 
L 1466.006494 240.112969 
L 1466.475843 245.644754 
L 1466.945192 245.668416 
L 1467.414541 239.346193 
L 1467.883891 235.82091 
L 1468.35324 235.201408 
L 1468.822589 235.43616 
L 1469.761288 224.609065 
L 1470.230637 222.492145 
L 1470.699987 224.257298 
L 1471.169336 222.00185 
L 1471.638685 225.501896 
L 1472.108034 227.488033 
L 1472.577384 231.502611 
L 1473.046733 230.365279 
L 1473.516082 226.744345 
L 1473.985432 222.005296 
L 1474.454781 218.552574 
L 1474.92413 213.275905 
L 1475.39348 200.139442 
L 1475.862829 192.791455 
L 1476.332178 191.370472 
L 1476.801527 187.277885 
L 1477.270877 186.744138 
L 1477.740226 190.537731 
L 1478.209575 188.895763 
L 1478.678925 194.483618 
L 1479.617623 195.33902 
L 1480.086973 198.964401 
L 1480.556322 198.760482 
L 1481.025671 196.613878 
L 1481.495021 199.203599 
L 1481.96437 193.461873 
L 1482.433719 189.405567 
L 1482.903068 189.75246 
L 1483.372418 186.187597 
L 1485.249815 203.479462 
L 1485.719164 210.924247 
L 1486.188514 205.921335 
L 1487.127212 208.752405 
L 1487.596561 209.679795 
L 1488.065911 205.145238 
L 1488.53526 204.393805 
L 1489.004609 202.131762 
L 1489.943308 207.865315 
L 1490.412657 212.216317 
L 1490.882007 209.911395 
L 1491.351356 209.041225 
L 1492.290055 220.675396 
L 1492.759404 236.646227 
L 1493.228753 247.267253 
L 1494.636801 270.508635 
L 1495.10615 280.024738 
L 1495.5755 287.037449 
L 1496.514198 279.455858 
L 1496.983548 283.763982 
L 1497.452897 286.455951 
L 1497.922246 291.624925 
L 1498.391595 292.872248 
L 1498.860945 281.411309 
L 1499.330294 278.248836 
L 1499.799643 277.596351 
L 1500.268993 265.518635 
L 1500.738342 265.601667 
L 1501.207691 256.785947 
L 1501.677041 239.932326 
L 1502.14639 239.622862 
L 1503.085088 230.946244 
L 1503.554438 237.33558 
L 1504.023787 232.128175 
L 1504.493136 233.814169 
L 1504.962486 241.232568 
L 1505.431835 246.084907 
L 1505.901184 246.072288 
L 1506.370534 255.865447 
L 1506.839883 252.966836 
L 1507.309232 253.699627 
L 1507.778582 253.690307 
L 1508.247931 255.488442 
L 1508.71728 259.209472 
L 1509.655979 248.623152 
L 1510.125328 245.473872 
L 1510.594677 243.218424 
L 1511.064027 242.331762 
L 1511.533376 235.405955 
L 1512.002725 230.393148 
L 1513.410773 251.952409 
L 1513.880122 249.419906 
L 1514.349472 245.24816 
L 1514.818821 242.778325 
L 1515.28817 245.41752 
L 1515.75752 244.075696 
L 1516.226869 232.037559 
L 1516.696218 229.745831 
L 1517.165568 234.347502 
L 1517.634917 229.351186 
L 1518.104266 233.4878 
L 1518.573616 230.450661 
L 1519.042965 222.802531 
L 1519.512314 226.02882 
L 1519.981663 215.963053 
L 1520.451013 209.644128 
L 1520.920362 211.686336 
L 1521.389711 205.789591 
L 1522.32841 187.043333 
L 1522.797759 172.228048 
L 1523.267109 168.036512 
L 1524.205807 162.328343 
L 1524.675156 164.492587 
L 1525.144506 167.712279 
L 1525.613855 175.114187 
L 1526.083204 179.359643 
L 1526.552554 176.048748 
L 1527.021903 185.426323 
L 1527.491252 180.054004 
L 1528.8993 167.58824 
L 1529.368649 165.039246 
L 1529.837999 171.418688 
L 1530.307348 158.252541 
L 1530.776697 167.435518 
L 1531.246047 171.080688 
L 1532.184745 164.020225 
L 1532.654095 166.138293 
L 1533.123444 159.294943 
L 1533.592793 156.317173 
L 1535.000841 150.931661 
L 1535.47019 144.566561 
L 1535.93954 156.213351 
L 1536.408889 164.166071 
L 1536.878238 163.00895 
L 1537.816937 167.182418 
L 1538.286286 166.242984 
L 1538.755636 164.996809 
L 1539.224985 153.542468 
L 1540.163683 143.549837 
L 1540.633033 140.205958 
L 1541.102382 135.938562 
L 1541.571731 141.589085 
L 1542.041081 130.764714 
L 1542.51043 131.857018 
L 1542.979779 129.288234 
L 1543.449129 123.73451 
L 1543.918478 123.827436 
L 1544.387827 116.911524 
L 1544.857177 105.071284 
L 1545.326526 111.612341 
L 1545.795875 101.526784 
L 1546.265224 99.360391 
L 1546.734574 103.058333 
L 1547.203923 95.01441 
L 1547.673272 100.744091 
L 1548.611971 98.119811 
L 1549.08132 102.263021 
L 1549.55067 109.559384 
L 1550.020019 107.834959 
L 1550.489368 115.180796 
L 1550.958717 112.773628 
L 1551.428067 112.81708 
L 1551.897416 120.10025 
L 1552.366765 119.038779 
L 1553.305464 115.334528 
L 1553.774813 120.153024 
L 1554.244163 122.243846 
L 1554.713512 132.893696 
L 1555.182861 133.747663 
L 1555.65221 131.672761 
L 1556.12156 133.565686 
L 1556.590909 131.072763 
L 1556.590909 131.072763 
" clip-path="url(#p6b7b45cbb6)" style="fill: none; stroke: #35ae95; stroke-width: 2.5; stroke-linecap: square"/>
   </g>
   <g id="patch_3">
    <path d="M 225 320.4 
L 225 43.2 
" style="fill: none; stroke: #000000; stroke-width: 0.8; stroke-linejoin: miter; stroke-linecap: square"/>
   </g>
   <g id="patch_4">
    <path d="M 1620 320.4 
L 1620 43.2 
" style="fill: none; stroke: #000000; stroke-width: 0.8; stroke-linejoin: miter; stroke-linecap: square"/>
   </g>
   <g id="patch_5">
    <path d="M 225 320.4 
L 1620 320.4 
" style="fill: none; stroke: #000000; stroke-width: 0.8; stroke-linejoin: miter; stroke-linecap: square"/>
   </g>
   <g id="patch_6">
    <path d="M 225 43.2 
L 1620 43.2 
" style="fill: none; stroke: #000000; stroke-width: 0.8; stroke-linejoin: miter; stroke-linecap: square"/>
   </g>
   <g id="text_17">
    <!-- SUSE -->
    <g transform="translate(896.165625 37.2) scale(0.2 -0.2)">
     <defs>
      <path id="DejaVuSans-53" d="M 3425 4513 
L 3425 3897 
Q 3066 4069 2747 4153 
Q 2428 4238 2131 4238 
Q 1616 4238 1336 4038 
Q 1056 3838 1056 3469 
Q 1056 3159 1242 3001 
Q 1428 2844 1947 2747 
L 2328 2669 
Q 3034 2534 3370 2195 
Q 3706 1856 3706 1288 
Q 3706 609 3251 259 
Q 2797 -91 1919 -91 
Q 1588 -91 1214 -16 
Q 841 59 441 206 
L 441 856 
Q 825 641 1194 531 
Q 1563 422 1919 422 
Q 2459 422 2753 634 
Q 3047 847 3047 1241 
Q 3047 1584 2836 1778 
Q 2625 1972 2144 2069 
L 1759 2144 
Q 1053 2284 737 2584 
Q 422 2884 422 3419 
Q 422 4038 858 4394 
Q 1294 4750 2059 4750 
Q 2388 4750 2728 4690 
Q 3069 4631 3425 4513 
z
" transform="scale(0.015625)"/>
      <path id="DejaVuSans-55" d="M 556 4666 
L 1191 4666 
L 1191 1831 
Q 1191 1081 1462 751 
Q 1734 422 2344 422 
Q 2950 422 3222 751 
Q 3494 1081 3494 1831 
L 3494 4666 
L 4128 4666 
L 4128 1753 
Q 4128 841 3676 375 
Q 3225 -91 2344 -91 
Q 1459 -91 1007 375 
Q 556 841 556 1753 
L 556 4666 
z
" transform="scale(0.015625)"/>
      <path id="DejaVuSans-45" d="M 628 4666 
L 3578 4666 
L 3578 4134 
L 1259 4134 
L 1259 2753 
L 3481 2753 
L 3481 2222 
L 1259 2222 
L 1259 531 
L 3634 531 
L 3634 0 
L 628 0 
L 628 4666 
z
" transform="scale(0.015625)"/>
     </defs>
     <use xlink:href="#DejaVuSans-53"/>
     <use xlink:href="#DejaVuSans-55" x="63.476562"/>
     <use xlink:href="#DejaVuSans-53" x="136.669922"/>
     <use xlink:href="#DejaVuSans-45" x="200.146484"/>
    </g>
   </g>
   <g id="legend_1">
    <g id="patch_7">
     <path d="M 1558.090625 65.878125 
L 1613 65.878125 
Q 1615 65.878125 1615 63.878125 
L 1615 50.2 
Q 1615 48.2 1613 48.2 
L 1558.090625 48.2 
Q 1556.090625 48.2 1556.090625 50.2 
L 1556.090625 63.878125 
Q 1556.090625 65.878125 1558.090625 65.878125 
z
" style="fill: #ffffff; opacity: 0.8; stroke: #cccccc; stroke-linejoin: miter"/>
    </g>
    <g id="line2d_16">
     <path d="M 1560.090625 56.298437 
L 1570.090625 56.298437 
L 1580.090625 56.298437 
" style="fill: none; stroke: #35ae95; stroke-width: 2.5; stroke-linecap: square"/>
    </g>
    <g id="text_18">
     <!-- suse -->
     <g transform="translate(1588.090625 59.798437) scale(0.1 -0.1)">
      <defs>
       <path id="DejaVuSans-73" d="M 2834 3397 
L 2834 2853 
Q 2591 2978 2328 3040 
Q 2066 3103 1784 3103 
Q 1356 3103 1142 2972 
Q 928 2841 928 2578 
Q 928 2378 1081 2264 
Q 1234 2150 1697 2047 
L 1894 2003 
Q 2506 1872 2764 1633 
Q 3022 1394 3022 966 
Q 3022 478 2636 193 
Q 2250 -91 1575 -91 
Q 1294 -91 989 -36 
Q 684 19 347 128 
L 347 722 
Q 666 556 975 473 
Q 1284 391 1588 391 
Q 1994 391 2212 530 
Q 2431 669 2431 922 
Q 2431 1156 2273 1281 
Q 2116 1406 1581 1522 
L 1381 1569 
Q 847 1681 609 1914 
Q 372 2147 372 2553 
Q 372 3047 722 3315 
Q 1072 3584 1716 3584 
Q 2034 3584 2315 3537 
Q 2597 3491 2834 3397 
z
" transform="scale(0.015625)"/>
       <path id="DejaVuSans-75" d="M 544 1381 
L 544 3500 
L 1119 3500 
L 1119 1403 
Q 1119 906 1312 657 
Q 1506 409 1894 409 
Q 2359 409 2629 706 
Q 2900 1003 2900 1516 
L 2900 3500 
L 3475 3500 
L 3475 0 
L 2900 0 
L 2900 538 
Q 2691 219 2414 64 
Q 2138 -91 1772 -91 
Q 1169 -91 856 284 
Q 544 659 544 1381 
z
M 1991 3584 
L 1991 3584 
z
" transform="scale(0.015625)"/>
      </defs>
      <use xlink:href="#DejaVuSans-73"/>
      <use xlink:href="#DejaVuSans-75" x="52.099609"/>
      <use xlink:href="#DejaVuSans-73" x="115.478516"/>
      <use xlink:href="#DejaVuSans-65" x="167.578125"/>
     </g>
    </g>
   </g>
  </g>
 </g>
 <defs>
  <clipPath id="p6b7b45cbb6">
   <rect x="225" y="43.2" width="1395" height="277.2"/>
  </clipPath>
 </defs>
</svg>
