<?xml version="1.0" encoding="utf-8" standalone="no"?>
<!DOCTYPE svg PUBLIC "-//W3C//DTD SVG 1.1//EN"
  "http://www.w3.org/Graphics/SVG/1.1/DTD/svg11.dtd">
<svg xmlns:xlink="http://www.w3.org/1999/xlink" width="1800pt" height="360pt" viewBox="0 0 1800 360" xmlns="http://www.w3.org/2000/svg" version="1.1">
 <metadata>
  <rdf:RDF xmlns:dc="http://purl.org/dc/elements/1.1/" xmlns:cc="http://creativecommons.org/ns#" xmlns:rdf="http://www.w3.org/1999/02/22-rdf-syntax-ns#">
   <cc:Work>
    <dc:type rdf:resource="http://purl.org/dc/dcmitype/StillImage"/>
    <dc:date>2024-03-25T15:23:14.340312</dc:date>
    <dc:format>image/svg+xml</dc:format>
    <dc:creator>
     <cc:Agent>
      <dc:title>Matplotlib v3.7.2, https://matplotlib.org/</dc:title>
     </cc:Agent>
    </dc:creator>
   </cc:Work>
  </rdf:RDF>
 </metadata>
 <defs>
  <style type="text/css">*{stroke-linejoin: round; stroke-linecap: butt}</style>
 </defs>
 <g id="figure_1">
  <g id="patch_1">
   <path d="M 0 360 
L 1800 360 
L 1800 0 
L 0 0 
z
" style="fill: #ffffff"/>
  </g>
  <g id="axes_1">
   <g id="patch_2">
    <path d="M 225 320.4 
L 1620 320.4 
L 1620 43.2 
L 225 43.2 
z
" style="fill: #ffffff"/>
   </g>
   <g id="matplotlib.axis_1">
    <g id="xtick_1">
     <g id="line2d_1">
      <defs>
       <path id="mc0e2c19768" d="M 0 0 
L 0 3.5 
" style="stroke: #000000; stroke-width: 0.8"/>
      </defs>
      <g>
       <use xlink:href="#mc0e2c19768" x="281.924597" y="320.4" style="stroke: #000000; stroke-width: 0.8"/>
      </g>
     </g>
     <g id="text_1">
      <!-- 2011 -->
      <g transform="translate(262.837097 338.797656) scale(0.15 -0.15)">
       <defs>
        <path id="DejaVuSans-32" d="M 1228 531 
L 3431 531 
L 3431 0 
L 469 0 
L 469 531 
Q 828 903 1448 1529 
Q 2069 2156 2228 2338 
Q 2531 2678 2651 2914 
Q 2772 3150 2772 3378 
Q 2772 3750 2511 3984 
Q 2250 4219 1831 4219 
Q 1534 4219 1204 4116 
Q 875 4013 500 3803 
L 500 4441 
Q 881 4594 1212 4672 
Q 1544 4750 1819 4750 
Q 2544 4750 2975 4387 
Q 3406 4025 3406 3419 
Q 3406 3131 3298 2873 
Q 3191 2616 2906 2266 
Q 2828 2175 2409 1742 
Q 1991 1309 1228 531 
z
" transform="scale(0.015625)"/>
        <path id="DejaVuSans-30" d="M 2034 4250 
Q 1547 4250 1301 3770 
Q 1056 3291 1056 2328 
Q 1056 1369 1301 889 
Q 1547 409 2034 409 
Q 2525 409 2770 889 
Q 3016 1369 3016 2328 
Q 3016 3291 2770 3770 
Q 2525 4250 2034 4250 
z
M 2034 4750 
Q 2819 4750 3233 4129 
Q 3647 3509 3647 2328 
Q 3647 1150 3233 529 
Q 2819 -91 2034 -91 
Q 1250 -91 836 529 
Q 422 1150 422 2328 
Q 422 3509 836 4129 
Q 1250 4750 2034 4750 
z
" transform="scale(0.015625)"/>
        <path id="DejaVuSans-31" d="M 794 531 
L 1825 531 
L 1825 4091 
L 703 3866 
L 703 4441 
L 1819 4666 
L 2450 4666 
L 2450 531 
L 3481 531 
L 3481 0 
L 794 0 
L 794 531 
z
" transform="scale(0.015625)"/>
       </defs>
       <use xlink:href="#DejaVuSans-32"/>
       <use xlink:href="#DejaVuSans-30" x="63.623047"/>
       <use xlink:href="#DejaVuSans-31" x="127.246094"/>
       <use xlink:href="#DejaVuSans-31" x="190.869141"/>
      </g>
     </g>
    </g>
    <g id="xtick_2">
     <g id="line2d_2">
      <g>
       <use xlink:href="#mc0e2c19768" x="450.984627" y="320.4" style="stroke: #000000; stroke-width: 0.8"/>
      </g>
     </g>
     <g id="text_2">
      <!-- 2012 -->
      <g transform="translate(431.897127 338.797656) scale(0.15 -0.15)">
       <use xlink:href="#DejaVuSans-32"/>
       <use xlink:href="#DejaVuSans-30" x="63.623047"/>
       <use xlink:href="#DejaVuSans-31" x="127.246094"/>
       <use xlink:href="#DejaVuSans-32" x="190.869141"/>
      </g>
     </g>
    </g>
    <g id="xtick_3">
     <g id="line2d_3">
      <g>
       <use xlink:href="#mc0e2c19768" x="620.507836" y="320.4" style="stroke: #000000; stroke-width: 0.8"/>
      </g>
     </g>
     <g id="text_3">
      <!-- 2013 -->
      <g transform="translate(601.420336 338.797656) scale(0.15 -0.15)">
       <defs>
        <path id="DejaVuSans-33" d="M 2597 2516 
Q 3050 2419 3304 2112 
Q 3559 1806 3559 1356 
Q 3559 666 3084 287 
Q 2609 -91 1734 -91 
Q 1441 -91 1130 -33 
Q 819 25 488 141 
L 488 750 
Q 750 597 1062 519 
Q 1375 441 1716 441 
Q 2309 441 2620 675 
Q 2931 909 2931 1356 
Q 2931 1769 2642 2001 
Q 2353 2234 1838 2234 
L 1294 2234 
L 1294 2753 
L 1863 2753 
Q 2328 2753 2575 2939 
Q 2822 3125 2822 3475 
Q 2822 3834 2567 4026 
Q 2313 4219 1838 4219 
Q 1578 4219 1281 4162 
Q 984 4106 628 3988 
L 628 4550 
Q 988 4650 1302 4700 
Q 1616 4750 1894 4750 
Q 2613 4750 3031 4423 
Q 3450 4097 3450 3541 
Q 3450 3153 3228 2886 
Q 3006 2619 2597 2516 
z
" transform="scale(0.015625)"/>
       </defs>
       <use xlink:href="#DejaVuSans-32"/>
       <use xlink:href="#DejaVuSans-30" x="63.623047"/>
       <use xlink:href="#DejaVuSans-31" x="127.246094"/>
       <use xlink:href="#DejaVuSans-33" x="190.869141"/>
      </g>
     </g>
    </g>
    <g id="xtick_4">
     <g id="line2d_4">
      <g>
       <use xlink:href="#mc0e2c19768" x="789.567866" y="320.4" style="stroke: #000000; stroke-width: 0.8"/>
      </g>
     </g>
     <g id="text_4">
      <!-- 2014 -->
      <g transform="translate(770.480366 338.797656) scale(0.15 -0.15)">
       <defs>
        <path id="DejaVuSans-34" d="M 2419 4116 
L 825 1625 
L 2419 1625 
L 2419 4116 
z
M 2253 4666 
L 3047 4666 
L 3047 1625 
L 3713 1625 
L 3713 1100 
L 3047 1100 
L 3047 0 
L 2419 0 
L 2419 1100 
L 313 1100 
L 313 1709 
L 2253 4666 
z
" transform="scale(0.015625)"/>
       </defs>
       <use xlink:href="#DejaVuSans-32"/>
       <use xlink:href="#DejaVuSans-30" x="63.623047"/>
       <use xlink:href="#DejaVuSans-31" x="127.246094"/>
       <use xlink:href="#DejaVuSans-34" x="190.869141"/>
      </g>
     </g>
    </g>
    <g id="xtick_5">
     <g id="line2d_5">
      <g>
       <use xlink:href="#mc0e2c19768" x="958.627897" y="320.4" style="stroke: #000000; stroke-width: 0.8"/>
      </g>
     </g>
     <g id="text_5">
      <!-- 2015 -->
      <g transform="translate(939.540397 338.797656) scale(0.15 -0.15)">
       <defs>
        <path id="DejaVuSans-35" d="M 691 4666 
L 3169 4666 
L 3169 4134 
L 1269 4134 
L 1269 2991 
Q 1406 3038 1543 3061 
Q 1681 3084 1819 3084 
Q 2600 3084 3056 2656 
Q 3513 2228 3513 1497 
Q 3513 744 3044 326 
Q 2575 -91 1722 -91 
Q 1428 -91 1123 -41 
Q 819 9 494 109 
L 494 744 
Q 775 591 1075 516 
Q 1375 441 1709 441 
Q 2250 441 2565 725 
Q 2881 1009 2881 1497 
Q 2881 1984 2565 2268 
Q 2250 2553 1709 2553 
Q 1456 2553 1204 2497 
Q 953 2441 691 2322 
L 691 4666 
z
" transform="scale(0.015625)"/>
       </defs>
       <use xlink:href="#DejaVuSans-32"/>
       <use xlink:href="#DejaVuSans-30" x="63.623047"/>
       <use xlink:href="#DejaVuSans-31" x="127.246094"/>
       <use xlink:href="#DejaVuSans-35" x="190.869141"/>
      </g>
     </g>
    </g>
    <g id="xtick_6">
     <g id="line2d_6">
      <g>
       <use xlink:href="#mc0e2c19768" x="1127.687927" y="320.4" style="stroke: #000000; stroke-width: 0.8"/>
      </g>
     </g>
     <g id="text_6">
      <!-- 2016 -->
      <g transform="translate(1108.600427 338.797656) scale(0.15 -0.15)">
       <defs>
        <path id="DejaVuSans-36" d="M 2113 2584 
Q 1688 2584 1439 2293 
Q 1191 2003 1191 1497 
Q 1191 994 1439 701 
Q 1688 409 2113 409 
Q 2538 409 2786 701 
Q 3034 994 3034 1497 
Q 3034 2003 2786 2293 
Q 2538 2584 2113 2584 
z
M 3366 4563 
L 3366 3988 
Q 3128 4100 2886 4159 
Q 2644 4219 2406 4219 
Q 1781 4219 1451 3797 
Q 1122 3375 1075 2522 
Q 1259 2794 1537 2939 
Q 1816 3084 2150 3084 
Q 2853 3084 3261 2657 
Q 3669 2231 3669 1497 
Q 3669 778 3244 343 
Q 2819 -91 2113 -91 
Q 1303 -91 875 529 
Q 447 1150 447 2328 
Q 447 3434 972 4092 
Q 1497 4750 2381 4750 
Q 2619 4750 2861 4703 
Q 3103 4656 3366 4563 
z
" transform="scale(0.015625)"/>
       </defs>
       <use xlink:href="#DejaVuSans-32"/>
       <use xlink:href="#DejaVuSans-30" x="63.623047"/>
       <use xlink:href="#DejaVuSans-31" x="127.246094"/>
       <use xlink:href="#DejaVuSans-36" x="190.869141"/>
      </g>
     </g>
    </g>
    <g id="xtick_7">
     <g id="line2d_7">
      <g>
       <use xlink:href="#mc0e2c19768" x="1297.211136" y="320.4" style="stroke: #000000; stroke-width: 0.8"/>
      </g>
     </g>
     <g id="text_7">
      <!-- 2017 -->
      <g transform="translate(1278.123636 338.797656) scale(0.15 -0.15)">
       <defs>
        <path id="DejaVuSans-37" d="M 525 4666 
L 3525 4666 
L 3525 4397 
L 1831 0 
L 1172 0 
L 2766 4134 
L 525 4134 
L 525 4666 
z
" transform="scale(0.015625)"/>
       </defs>
       <use xlink:href="#DejaVuSans-32"/>
       <use xlink:href="#DejaVuSans-30" x="63.623047"/>
       <use xlink:href="#DejaVuSans-31" x="127.246094"/>
       <use xlink:href="#DejaVuSans-37" x="190.869141"/>
      </g>
     </g>
    </g>
    <g id="xtick_8">
     <g id="line2d_8">
      <g>
       <use xlink:href="#mc0e2c19768" x="1466.271167" y="320.4" style="stroke: #000000; stroke-width: 0.8"/>
      </g>
     </g>
     <g id="text_8">
      <!-- 2018 -->
      <g transform="translate(1447.183667 338.797656) scale(0.15 -0.15)">
       <defs>
        <path id="DejaVuSans-38" d="M 2034 2216 
Q 1584 2216 1326 1975 
Q 1069 1734 1069 1313 
Q 1069 891 1326 650 
Q 1584 409 2034 409 
Q 2484 409 2743 651 
Q 3003 894 3003 1313 
Q 3003 1734 2745 1975 
Q 2488 2216 2034 2216 
z
M 1403 2484 
Q 997 2584 770 2862 
Q 544 3141 544 3541 
Q 544 4100 942 4425 
Q 1341 4750 2034 4750 
Q 2731 4750 3128 4425 
Q 3525 4100 3525 3541 
Q 3525 3141 3298 2862 
Q 3072 2584 2669 2484 
Q 3125 2378 3379 2068 
Q 3634 1759 3634 1313 
Q 3634 634 3220 271 
Q 2806 -91 2034 -91 
Q 1263 -91 848 271 
Q 434 634 434 1313 
Q 434 1759 690 2068 
Q 947 2378 1403 2484 
z
M 1172 3481 
Q 1172 3119 1398 2916 
Q 1625 2713 2034 2713 
Q 2441 2713 2670 2916 
Q 2900 3119 2900 3481 
Q 2900 3844 2670 4047 
Q 2441 4250 2034 4250 
Q 1625 4250 1398 4047 
Q 1172 3844 1172 3481 
z
" transform="scale(0.015625)"/>
       </defs>
       <use xlink:href="#DejaVuSans-32"/>
       <use xlink:href="#DejaVuSans-30" x="63.623047"/>
       <use xlink:href="#DejaVuSans-31" x="127.246094"/>
       <use xlink:href="#DejaVuSans-38" x="190.869141"/>
      </g>
     </g>
    </g>
    <g id="text_9">
     <!-- Time -->
     <g transform="translate(904.149609 357.314844) scale(0.15 -0.15)">
      <defs>
       <path id="DejaVuSans-54" d="M -19 4666 
L 3928 4666 
L 3928 4134 
L 2272 4134 
L 2272 0 
L 1638 0 
L 1638 4134 
L -19 4134 
L -19 4666 
z
" transform="scale(0.015625)"/>
       <path id="DejaVuSans-69" d="M 603 3500 
L 1178 3500 
L 1178 0 
L 603 0 
L 603 3500 
z
M 603 4863 
L 1178 4863 
L 1178 4134 
L 603 4134 
L 603 4863 
z
" transform="scale(0.015625)"/>
       <path id="DejaVuSans-6d" d="M 3328 2828 
Q 3544 3216 3844 3400 
Q 4144 3584 4550 3584 
Q 5097 3584 5394 3201 
Q 5691 2819 5691 2113 
L 5691 0 
L 5113 0 
L 5113 2094 
Q 5113 2597 4934 2840 
Q 4756 3084 4391 3084 
Q 3944 3084 3684 2787 
Q 3425 2491 3425 1978 
L 3425 0 
L 2847 0 
L 2847 2094 
Q 2847 2600 2669 2842 
Q 2491 3084 2119 3084 
Q 1678 3084 1418 2786 
Q 1159 2488 1159 1978 
L 1159 0 
L 581 0 
L 581 3500 
L 1159 3500 
L 1159 2956 
Q 1356 3278 1631 3431 
Q 1906 3584 2284 3584 
Q 2666 3584 2933 3390 
Q 3200 3197 3328 2828 
z
" transform="scale(0.015625)"/>
       <path id="DejaVuSans-65" d="M 3597 1894 
L 3597 1613 
L 953 1613 
Q 991 1019 1311 708 
Q 1631 397 2203 397 
Q 2534 397 2845 478 
Q 3156 559 3463 722 
L 3463 178 
Q 3153 47 2828 -22 
Q 2503 -91 2169 -91 
Q 1331 -91 842 396 
Q 353 884 353 1716 
Q 353 2575 817 3079 
Q 1281 3584 2069 3584 
Q 2775 3584 3186 3129 
Q 3597 2675 3597 1894 
z
M 3022 2063 
Q 3016 2534 2758 2815 
Q 2500 3097 2075 3097 
Q 1594 3097 1305 2825 
Q 1016 2553 972 2059 
L 3022 2063 
z
" transform="scale(0.015625)"/>
      </defs>
      <use xlink:href="#DejaVuSans-54"/>
      <use xlink:href="#DejaVuSans-69" x="57.958984"/>
      <use xlink:href="#DejaVuSans-6d" x="85.742188"/>
      <use xlink:href="#DejaVuSans-65" x="183.154297"/>
     </g>
    </g>
   </g>
   <g id="matplotlib.axis_2">
    <g id="ytick_1">
     <g id="line2d_9">
      <defs>
       <path id="m09e989bc14" d="M 0 0 
L -3.5 0 
" style="stroke: #000000; stroke-width: 0.8"/>
      </defs>
      <g>
       <use xlink:href="#m09e989bc14" x="225" y="307.057474" style="stroke: #000000; stroke-width: 0.8"/>
      </g>
     </g>
     <g id="text_10">
      <!-- −0.004 -->
      <g transform="translate(162.488281 312.756302) scale(0.15 -0.15)">
       <defs>
        <path id="DejaVuSans-2212" d="M 678 2272 
L 4684 2272 
L 4684 1741 
L 678 1741 
L 678 2272 
z
" transform="scale(0.015625)"/>
        <path id="DejaVuSans-2e" d="M 684 794 
L 1344 794 
L 1344 0 
L 684 0 
L 684 794 
z
" transform="scale(0.015625)"/>
       </defs>
       <use xlink:href="#DejaVuSans-2212"/>
       <use xlink:href="#DejaVuSans-30" x="83.789062"/>
       <use xlink:href="#DejaVuSans-2e" x="147.412109"/>
       <use xlink:href="#DejaVuSans-30" x="179.199219"/>
       <use xlink:href="#DejaVuSans-30" x="242.822266"/>
       <use xlink:href="#DejaVuSans-34" x="306.445312"/>
      </g>
     </g>
    </g>
    <g id="ytick_2">
     <g id="line2d_10">
      <g>
       <use xlink:href="#m09e989bc14" x="225" y="254.660431" style="stroke: #000000; stroke-width: 0.8"/>
      </g>
     </g>
     <g id="text_11">
      <!-- −0.002 -->
      <g transform="translate(162.488281 260.359259) scale(0.15 -0.15)">
       <use xlink:href="#DejaVuSans-2212"/>
       <use xlink:href="#DejaVuSans-30" x="83.789062"/>
       <use xlink:href="#DejaVuSans-2e" x="147.412109"/>
       <use xlink:href="#DejaVuSans-30" x="179.199219"/>
       <use xlink:href="#DejaVuSans-30" x="242.822266"/>
       <use xlink:href="#DejaVuSans-32" x="306.445312"/>
      </g>
     </g>
    </g>
    <g id="ytick_3">
     <g id="line2d_11">
      <g>
       <use xlink:href="#m09e989bc14" x="225" y="202.263387" style="stroke: #000000; stroke-width: 0.8"/>
      </g>
     </g>
     <g id="text_12">
      <!-- 0.000 -->
      <g transform="translate(175.057813 207.962215) scale(0.15 -0.15)">
       <use xlink:href="#DejaVuSans-30"/>
       <use xlink:href="#DejaVuSans-2e" x="63.623047"/>
       <use xlink:href="#DejaVuSans-30" x="95.410156"/>
       <use xlink:href="#DejaVuSans-30" x="159.033203"/>
       <use xlink:href="#DejaVuSans-30" x="222.65625"/>
      </g>
     </g>
    </g>
    <g id="ytick_4">
     <g id="line2d_12">
      <g>
       <use xlink:href="#m09e989bc14" x="225" y="149.866344" style="stroke: #000000; stroke-width: 0.8"/>
      </g>
     </g>
     <g id="text_13">
      <!-- 0.002 -->
      <g transform="translate(175.057813 155.565172) scale(0.15 -0.15)">
       <use xlink:href="#DejaVuSans-30"/>
       <use xlink:href="#DejaVuSans-2e" x="63.623047"/>
       <use xlink:href="#DejaVuSans-30" x="95.410156"/>
       <use xlink:href="#DejaVuSans-30" x="159.033203"/>
       <use xlink:href="#DejaVuSans-32" x="222.65625"/>
      </g>
     </g>
    </g>
    <g id="ytick_5">
     <g id="line2d_13">
      <g>
       <use xlink:href="#m09e989bc14" x="225" y="97.4693" style="stroke: #000000; stroke-width: 0.8"/>
      </g>
     </g>
     <g id="text_14">
      <!-- 0.004 -->
      <g transform="translate(175.057813 103.168128) scale(0.15 -0.15)">
       <use xlink:href="#DejaVuSans-30"/>
       <use xlink:href="#DejaVuSans-2e" x="63.623047"/>
       <use xlink:href="#DejaVuSans-30" x="95.410156"/>
       <use xlink:href="#DejaVuSans-30" x="159.033203"/>
       <use xlink:href="#DejaVuSans-34" x="222.65625"/>
      </g>
     </g>
    </g>
    <g id="ytick_6">
     <g id="line2d_14">
      <g>
       <use xlink:href="#m09e989bc14" x="225" y="45.072257" style="stroke: #000000; stroke-width: 0.8"/>
      </g>
     </g>
     <g id="text_15">
      <!-- 0.006 -->
      <g transform="translate(175.057813 50.771085) scale(0.15 -0.15)">
       <use xlink:href="#DejaVuSans-30"/>
       <use xlink:href="#DejaVuSans-2e" x="63.623047"/>
       <use xlink:href="#DejaVuSans-30" x="95.410156"/>
       <use xlink:href="#DejaVuSans-30" x="159.033203"/>
       <use xlink:href="#DejaVuSans-36" x="222.65625"/>
      </g>
     </g>
    </g>
    <g id="text_16">
     <!-- North(m) -->
     <g transform="translate(155.36875 215.934375) rotate(-90) scale(0.15 -0.15)">
      <defs>
       <path id="DejaVuSans-4e" d="M 628 4666 
L 1478 4666 
L 3547 763 
L 3547 4666 
L 4159 4666 
L 4159 0 
L 3309 0 
L 1241 3903 
L 1241 0 
L 628 0 
L 628 4666 
z
" transform="scale(0.015625)"/>
       <path id="DejaVuSans-6f" d="M 1959 3097 
Q 1497 3097 1228 2736 
Q 959 2375 959 1747 
Q 959 1119 1226 758 
Q 1494 397 1959 397 
Q 2419 397 2687 759 
Q 2956 1122 2956 1747 
Q 2956 2369 2687 2733 
Q 2419 3097 1959 3097 
z
M 1959 3584 
Q 2709 3584 3137 3096 
Q 3566 2609 3566 1747 
Q 3566 888 3137 398 
Q 2709 -91 1959 -91 
Q 1206 -91 779 398 
Q 353 888 353 1747 
Q 353 2609 779 3096 
Q 1206 3584 1959 3584 
z
" transform="scale(0.015625)"/>
       <path id="DejaVuSans-72" d="M 2631 2963 
Q 2534 3019 2420 3045 
Q 2306 3072 2169 3072 
Q 1681 3072 1420 2755 
Q 1159 2438 1159 1844 
L 1159 0 
L 581 0 
L 581 3500 
L 1159 3500 
L 1159 2956 
Q 1341 3275 1631 3429 
Q 1922 3584 2338 3584 
Q 2397 3584 2469 3576 
Q 2541 3569 2628 3553 
L 2631 2963 
z
" transform="scale(0.015625)"/>
       <path id="DejaVuSans-74" d="M 1172 4494 
L 1172 3500 
L 2356 3500 
L 2356 3053 
L 1172 3053 
L 1172 1153 
Q 1172 725 1289 603 
Q 1406 481 1766 481 
L 2356 481 
L 2356 0 
L 1766 0 
Q 1100 0 847 248 
Q 594 497 594 1153 
L 594 3053 
L 172 3053 
L 172 3500 
L 594 3500 
L 594 4494 
L 1172 4494 
z
" transform="scale(0.015625)"/>
       <path id="DejaVuSans-68" d="M 3513 2113 
L 3513 0 
L 2938 0 
L 2938 2094 
Q 2938 2591 2744 2837 
Q 2550 3084 2163 3084 
Q 1697 3084 1428 2787 
Q 1159 2491 1159 1978 
L 1159 0 
L 581 0 
L 581 4863 
L 1159 4863 
L 1159 2956 
Q 1366 3272 1645 3428 
Q 1925 3584 2291 3584 
Q 2894 3584 3203 3211 
Q 3513 2838 3513 2113 
z
" transform="scale(0.015625)"/>
       <path id="DejaVuSans-28" d="M 1984 4856 
Q 1566 4138 1362 3434 
Q 1159 2731 1159 2009 
Q 1159 1288 1364 580 
Q 1569 -128 1984 -844 
L 1484 -844 
Q 1016 -109 783 600 
Q 550 1309 550 2009 
Q 550 2706 781 3412 
Q 1013 4119 1484 4856 
L 1984 4856 
z
" transform="scale(0.015625)"/>
       <path id="DejaVuSans-29" d="M 513 4856 
L 1013 4856 
Q 1481 4119 1714 3412 
Q 1947 2706 1947 2009 
Q 1947 1309 1714 600 
Q 1481 -109 1013 -844 
L 513 -844 
Q 928 -128 1133 580 
Q 1338 1288 1338 2009 
Q 1338 2731 1133 3434 
Q 928 4138 513 4856 
z
" transform="scale(0.015625)"/>
      </defs>
      <use xlink:href="#DejaVuSans-4e"/>
      <use xlink:href="#DejaVuSans-6f" x="74.804688"/>
      <use xlink:href="#DejaVuSans-72" x="135.986328"/>
      <use xlink:href="#DejaVuSans-74" x="177.099609"/>
      <use xlink:href="#DejaVuSans-68" x="216.308594"/>
      <use xlink:href="#DejaVuSans-28" x="279.6875"/>
      <use xlink:href="#DejaVuSans-6d" x="318.701172"/>
      <use xlink:href="#DejaVuSans-29" x="416.113281"/>
     </g>
    </g>
   </g>
   <g id="line2d_15">
    <path d="M 288.409091 231.759745 
L 290.261804 193.732771 
L 290.724982 190.935033 
L 291.18816 190.435029 
L 291.651338 184.875232 
L 292.114516 182.601478 
L 292.577694 182.2739 
L 293.040873 187.200997 
L 293.504051 194.646894 
L 293.967229 196.224323 
L 294.430407 198.497884 
L 294.893585 202.848613 
L 295.356763 205.694799 
L 295.819942 209.502844 
L 296.28312 205.825598 
L 296.746298 204.236748 
L 297.672654 200.606188 
L 298.135832 200.286095 
L 298.599011 198.330466 
L 299.062189 195.749815 
L 299.525367 201.545206 
L 299.988545 199.234025 
L 300.451723 201.23063 
L 300.914901 202.51239 
L 301.37808 201.919084 
L 338.895511 192.358398 
L 339.358689 190.964166 
L 339.821867 181.706635 
L 340.285045 182.206181 
L 340.748224 174.737635 
L 341.211402 172.295461 
L 341.67458 165.010304 
L 342.137758 172.381349 
L 342.600936 167.876978 
L 343.064114 167.261216 
L 343.527293 167.603572 
L 343.990471 173.174403 
L 344.453649 175.137325 
L 344.916827 181.385575 
L 345.380005 171.675184 
L 345.843183 173.028054 
L 346.306362 166.453999 
L 346.76954 165.216958 
L 347.232718 164.69102 
L 347.695896 164.782618 
L 348.159074 156.12391 
L 349.085431 169.799345 
L 349.548609 194.989127 
L 350.011787 206.641759 
L 350.474965 214.110112 
L 350.938143 201.379405 
L 351.401321 209.659913 
L 351.8645 215.653664 
L 352.327678 216.377769 
L 353.254034 190.912613 
L 353.717212 188.272079 
L 354.18039 203.839518 
L 354.643569 196.734008 
L 355.106747 198.917746 
L 355.569925 188.481281 
L 356.033103 190.219643 
L 356.496281 191.493918 
L 356.959459 188.741105 
L 357.422638 191.089519 
L 357.885816 202.139584 
L 358.348994 194.012332 
L 358.812172 195.406371 
L 359.27535 188.66764 
L 359.738528 197.887552 
L 360.201707 198.989664 
L 360.664885 193.044375 
L 361.128063 191.713767 
L 361.591241 200.361054 
L 362.054419 213.230046 
L 362.517597 216.817275 
L 362.980776 205.314156 
L 363.443954 205.312188 
L 363.907132 207.540837 
L 364.37031 205.652576 
L 364.833488 208.914195 
L 365.296666 211.000624 
L 365.759845 222.630799 
L 366.223023 227.258484 
L 366.686201 230.340457 
L 367.612557 232.159189 
L 368.075735 221.180041 
L 368.538914 220.818779 
L 369.002092 220.225473 
L 369.46527 225.639114 
L 369.928448 236.112812 
L 370.391626 236.092131 
L 370.854804 242.718389 
L 371.317983 268.986053 
L 372.244339 279.899415 
L 372.707517 279.029153 
L 373.170695 276.51587 
L 373.633873 284.47451 
L 374.097052 284.921659 
L 375.023408 260.220003 
L 375.486586 244.880672 
L 375.949764 249.770342 
L 376.412942 242.42156 
L 376.876121 233.227653 
L 377.802477 210.266327 
L 378.265655 211.791359 
L 378.728833 221.43419 
L 379.192011 213.973128 
L 379.65519 212.956903 
L 380.581546 223.02817 
L 381.507902 236.340569 
L 381.97108 229.631779 
L 382.434259 243.399006 
L 382.897437 247.674882 
L 383.360615 260.72352 
L 383.823793 259.789634 
L 384.286971 252.384712 
L 384.750149 240.166748 
L 385.213328 235.60998 
L 385.676506 224.211655 
L 386.139684 224.179746 
L 386.602862 203.084225 
L 387.06604 203.145882 
L 387.529218 202.608716 
L 387.992397 206.544011 
L 388.455575 219.667503 
L 388.918753 220.062255 
L 389.381931 220.629169 
L 389.845109 231.821455 
L 390.308287 239.839978 
L 390.771466 245.096427 
L 391.234644 248.601319 
L 391.697822 257.263576 
L 392.161 270.858641 
L 392.624178 272.473496 
L 393.087356 260.618568 
L 393.550535 258.801417 
L 394.013713 258.634773 
L 394.476891 260.028812 
L 394.940069 245.535319 
L 395.403247 234.799442 
L 395.866425 232.686622 
L 396.329604 239.166917 
L 396.792782 240.729375 
L 397.25596 243.044105 
L 397.719138 238.992594 
L 398.182316 239.611905 
L 398.645494 243.322642 
L 399.108673 240.753219 
L 399.571851 241.013236 
L 400.035029 235.910042 
L 400.498207 233.984354 
L 401.887742 252.843353 
L 402.814098 252.846451 
L 403.277276 257.43429 
L 403.740454 259.050468 
L 404.203632 253.054104 
L 404.666811 256.249678 
L 405.129989 246.551837 
L 405.593167 233.994615 
L 406.056345 225.313451 
L 406.982701 216.057695 
L 407.44588 215.11258 
L 407.909058 211.970532 
L 408.372236 210.355483 
L 408.835414 210.155155 
L 409.298592 212.084393 
L 409.76177 204.937714 
L 410.224949 207.866237 
L 411.151305 220.826827 
L 411.614483 220.91094 
L 412.540839 216.471969 
L 413.004018 218.854066 
L 413.467196 227.576206 
L 414.393552 207.010173 
L 414.85673 203.871868 
L 415.319908 208.630546 
L 415.783087 202.322219 
L 416.246265 204.165376 
L 416.709443 193.650315 
L 417.172621 205.752064 
L 417.635799 199.058245 
L 418.098977 197.484366 
L 418.562156 200.940603 
L 419.025334 202.128796 
L 419.488512 203.912071 
L 419.95169 195.709965 
L 420.414868 184.371523 
L 420.878046 185.200422 
L 421.341225 179.225191 
L 421.804403 168.047682 
L 422.267581 171.818302 
L 422.730759 168.010063 
L 424.120294 196.596199 
L 424.583472 197.178084 
L 425.04665 202.060269 
L 425.509828 209.884174 
L 425.973006 206.424001 
L 426.436184 205.400291 
L 426.899363 191.243636 
L 427.362541 184.119413 
L 427.825719 180.704152 
L 428.288897 175.642126 
L 428.752075 167.99019 
L 429.215253 163.272488 
L 429.678432 157.263573 
L 430.14161 155.195665 
L 430.604788 151.368713 
L 431.994322 146.119362 
L 432.4575 149.242503 
L 433.383857 145.630657 
L 433.847035 137.679309 
L 434.773391 143.929334 
L 435.236569 150.795122 
L 435.699748 145.269008 
L 436.162926 145.401775 
L 436.626104 139.883147 
L 437.089282 151.034264 
L 437.55246 154.374479 
L 438.015638 164.739641 
L 438.478817 160.916431 
L 438.941995 175.282481 
L 439.405173 177.750659 
L 439.868351 181.364087 
L 440.331529 179.666701 
L 440.794707 178.590593 
L 441.257886 170.137731 
L 441.721064 166.546565 
L 442.184242 157.917799 
L 442.64742 167.351041 
L 443.110598 168.329646 
L 443.573776 178.414109 
L 444.036955 174.66201 
L 449.131914 171.018448 
L 450.058271 165.758062 
L 450.521449 156.294685 
L 450.984627 143.590177 
L 451.447805 144.520128 
L 451.910983 137.803853 
L 452.374162 139.02573 
L 452.83734 145.083106 
L 453.300518 145.732358 
L 453.763696 148.245449 
L 454.226874 147.146885 
L 454.690052 140.119971 
L 455.616409 122.55554 
L 456.079587 114.828751 
L 456.542765 113.98843 
L 457.469121 102.835152 
L 458.395478 84.694354 
L 458.858656 78.33363 
L 459.321834 80.689529 
L 459.785012 74.935115 
L 460.24819 73.649419 
L 461.174547 72.574635 
L 461.637725 78.539767 
L 462.100903 78.307078 
L 462.564081 81.225697 
L 463.027259 67.998541 
L 463.490438 67.080947 
L 464.416794 62.309752 
L 465.34315 55.8 
L 465.806328 59.493346 
L 466.269507 56.981386 
L 466.732685 57.849035 
L 467.195863 59.566264 
L 467.659041 60.267914 
L 468.122219 61.254004 
L 469.048576 61.051256 
L 469.511754 62.761 
L 469.974932 65.155649 
L 470.43811 70.012958 
L 471.364466 87.953912 
L 471.827645 97.77397 
L 472.290823 101.058046 
L 473.217179 106.37241 
L 473.680357 106.871956 
L 474.606714 97.024861 
L 475.069892 96.502666 
L 475.996248 110.866748 
L 476.459426 111.111794 
L 476.922604 116.637714 
L 477.848961 130.889517 
L 478.312139 129.790954 
L 478.775317 129.452148 
L 479.701673 153.835293 
L 480.62803 166.4815 
L 481.091208 164.402364 
L 481.554386 171.305578 
L 482.017564 171.674132 
L 482.480742 166.061937 
L 483.407099 149.631528 
L 483.870277 152.197015 
L 484.333455 146.674645 
L 484.796633 148.847154 
L 485.259811 155.402302 
L 485.72299 157.174348 
L 486.649346 186.370536 
L 487.112524 195.837462 
L 487.575702 200.843155 
L 488.03888 198.213849 
L 488.965237 181.760984 
L 489.428415 170.190498 
L 490.354771 142.636945 
L 490.817949 149.809629 
L 491.281128 148.946853 
L 491.744306 156.048427 
L 492.207484 157.116855 
L 492.670662 165.539584 
L 493.13384 165.84077 
L 493.597018 165.385942 
L 494.060197 166.720098 
L 494.523375 173.256533 
L 494.986553 174.250109 
L 495.449731 187.324946 
L 495.912909 184.287692 
L 496.839266 192.360386 
L 497.302444 188.503493 
L 497.765622 190.717171 
L 498.2288 185.827308 
L 498.691978 178.055607 
L 499.155156 177.125463 
L 499.618335 174.956503 
L 500.081513 171.021014 
L 500.544691 169.862568 
L 501.007869 169.520019 
L 501.471047 171.662588 
L 501.934225 175.073913 
L 502.397404 176.082459 
L 502.860582 182.690004 
L 503.32376 183.182065 
L 504.250116 195.098457 
L 504.713294 196.90793 
L 505.176473 191.291993 
L 505.639651 189.800452 
L 506.102829 197.631842 
L 506.566007 201.398718 
L 507.029185 202.21639 
L 507.492363 192.767983 
L 507.955542 187.571223 
L 508.881898 196.56835 
L 509.808254 183.62983 
L 510.271432 175.566203 
L 510.734611 177.349477 
L 511.197789 187.50505 
L 511.660967 189.419317 
L 512.124145 183.855777 
L 512.587323 182.802125 
L 513.51368 192.603922 
L 513.976858 190.472388 
L 514.440036 178.452784 
L 514.903214 170.737223 
L 515.366392 168.848962 
L 515.82957 170.265456 
L 516.292749 172.112356 
L 516.755927 174.516909 
L 517.682283 193.345967 
L 518.145461 188.49353 
L 518.608639 190.976679 
L 519.071818 189.687241 
L 519.534996 191.339523 
L 519.998174 190.267158 
L 520.461352 183.797898 
L 520.92453 178.885578 
L 521.387708 188.947585 
L 521.850887 191.460676 
L 522.314065 197.136301 
L 522.777243 205.996919 
L 523.240421 205.246422 
L 523.703599 217.666296 
L 524.629956 230.462209 
L 525.556312 241.319432 
L 526.01949 235.411569 
L 526.482668 242.625422 
L 526.945846 228.917885 
L 527.409025 224.469653 
L 527.872203 217.985423 
L 528.335381 207.975619 
L 528.798559 204.186094 
L 529.261737 198.581385 
L 529.724915 194.342741 
L 530.188093 205.003572 
L 530.651272 204.908038 
L 531.11445 212.623406 
L 532.040806 223.050224 
L 532.967162 240.808886 
L 533.430341 235.806743 
L 533.893519 238.982281 
L 534.356697 238.190615 
L 534.819875 235.523883 
L 535.283053 241.203252 
L 536.20941 239.286372 
L 536.672588 236.299096 
L 537.135766 241.328567 
L 537.598944 245.010685 
L 538.062122 245.481613 
L 538.5253 260.402898 
L 538.988479 258.815371 
L 539.451657 251.028699 
L 539.914835 249.739261 
L 540.378013 244.624839 
L 540.841191 248.021193 
L 541.304369 263.843132 
L 542.230726 233.34786 
L 542.693904 239.248045 
L 543.157082 239.912268 
L 543.62026 237.09583 
L 544.083438 246.057499 
L 544.546617 228.285448 
L 545.009795 228.657745 
L 545.472973 237.196495 
L 545.936151 236.468454 
L 546.399329 228.288804 
L 546.862507 233.339408 
L 547.325686 226.114134 
L 547.788864 235.562347 
L 548.252042 250.515992 
L 548.71522 252.291781 
L 549.178398 256.915723 
L 549.641576 270.877567 
L 550.104755 272.776864 
L 550.567933 267.965596 
L 551.031111 273.873266 
L 551.494289 284.504155 
L 551.957467 286.949877 
L 552.420645 279.821911 
L 552.883824 281.923311 
L 553.347002 283.002967 
L 553.81018 277.925971 
L 554.273358 262.762545 
L 554.736536 242.591458 
L 555.199714 237.480778 
L 555.662893 247.340682 
L 556.126071 243.65595 
L 556.589249 242.935394 
L 557.052427 250.007027 
L 557.515605 248.829869 
L 557.978783 253.371473 
L 558.441962 247.564661 
L 558.90514 255.938735 
L 559.368318 259.574619 
L 560.294674 283.074499 
L 560.757852 296.849211 
L 561.221031 298.179625 
L 561.684209 307.8 
L 562.147387 300.335196 
L 562.610565 298.660265 
L 563.073743 289.346594 
L 564.0001 255.247154 
L 564.463278 258.621052 
L 564.926456 253.884637 
L 565.389634 256.423926 
L 565.852812 261.384706 
L 566.31599 264.485392 
L 566.779169 273.855009 
L 567.242347 285.552553 
L 567.705525 286.856768 
L 568.168703 292.622218 
L 568.631881 291.576052 
L 569.095059 289.63165 
L 569.558238 280.505112 
L 570.021416 273.755153 
L 570.484594 275.897721 
L 570.947772 274.47729 
L 571.41095 269.894324 
L 571.874128 267.553202 
L 572.337307 261.903581 
L 572.800485 269.270883 
L 573.263663 278.861317 
L 573.726841 278.006026 
L 574.190019 272.528567 
L 575.116376 284.800058 
L 576.042732 286.125632 
L 576.50591 292.54869 
L 576.969088 289.394318 
L 577.895445 270.761039 
L 578.358623 268.54607 
L 578.821801 255.019503 
L 579.284979 250.967992 
L 579.748157 241.920048 
L 580.211335 241.113412 
L 580.674514 245.872089 
L 581.137692 249.096282 
L 581.60087 247.084513 
L 582.064048 242.969377 
L 582.990404 227.381064 
L 583.453583 222.072024 
L 583.916761 212.155787 
L 584.379939 210.91126 
L 584.843117 207.866521 
L 585.306295 209.851898 
L 585.769473 213.195856 
L 586.232652 213.006755 
L 586.69583 208.622149 
L 587.159008 201.842249 
L 587.622186 193.045063 
L 588.085364 186.377443 
L 589.011721 177.102973 
L 589.474899 176.999954 
L 589.938077 175.594493 
L 590.401255 179.877855 
L 590.864433 181.219497 
L 591.327611 183.889778 
L 591.79079 181.398951 
L 592.253968 181.026461 
L 592.717146 192.753945 
L 593.643502 207.346329 
L 594.10668 211.307823 
L 594.569859 213.776001 
L 595.033037 215.637871 
L 595.496215 211.047419 
L 596.422571 194.87722 
L 596.885749 191.750143 
L 597.348928 177.017121 
L 598.738462 150.614335 
L 599.20164 147.408662 
L 599.664818 141.949916 
L 600.127997 132.224554 
L 600.591175 134.872379 
L 601.054353 134.440007 
L 601.517531 132.6004 
L 603.370244 149.359582 
L 603.833422 140.161933 
L 604.2966 139.91295 
L 605.222956 148.455443 
L 605.686135 151.219291 
L 606.149313 146.767317 
L 606.612491 149.437598 
L 607.075669 149.083821 
L 607.538847 167.888649 
L 608.002025 172.583702 
L 608.465204 161.795428 
L 608.928382 162.964908 
L 609.854738 152.279461 
L 610.317916 143.422393 
L 610.781094 122.368041 
L 611.244273 115.618083 
L 611.707451 113.224564 
L 612.170629 116.706999 
L 613.096985 149.211686 
L 614.023342 160.982114 
L 614.949698 161.825985 
L 615.412876 166.558464 
L 615.876054 163.491269 
L 616.339232 147.841298 
L 616.802411 135.990113 
L 617.265589 148.814193 
L 617.728767 156.263833 
L 618.191945 169.544515 
L 618.655123 172.690113 
L 619.118301 169.566778 
L 619.58148 174.576213 
L 620.044658 176.890943 
L 620.507836 162.861538 
L 620.971014 158.095182 
L 621.434192 144.28285 
L 621.89737 141.167001 
L 622.360549 144.260201 
L 622.823727 144.048645 
L 623.286905 141.187295 
L 623.750083 151.320413 
L 624.213261 147.49346 
L 624.676439 134.624276 
L 625.139618 141.022232 
L 625.602796 143.501639 
L 626.065974 148.076927 
L 626.529152 156.488427 
L 626.99233 155.142849 
L 627.455508 160.668769 
L 627.918686 175.566275 
L 628.381865 163.101296 
L 628.845043 154.334051 
L 629.308221 157.584442 
L 629.771399 149.842683 
L 630.234577 139.234056 
L 630.697755 137.574096 
L 631.160934 138.406738 
L 631.624112 145.437202 
L 632.08729 144.802727 
L 632.550468 132.461255 
L 633.013646 130.501883 
L 633.476824 130.593481 
L 633.940003 134.921755 
L 634.403181 130.754222 
L 634.866359 146.710896 
L 635.329537 148.853464 
L 635.792715 156.632457 
L 636.255893 159.257827 
L 636.719072 171.46437 
L 637.18225 163.943426 
L 637.645428 160.659158 
L 638.108606 139.9641 
L 638.571784 138.038412 
L 639.034962 140.121098 
L 639.961319 155.877444 
L 640.424497 171.73681 
L 640.887675 181.076486 
L 641.350853 195.367683 
L 641.814031 204.793441 
L 642.27721 205.409009 
L 642.740388 201.776675 
L 643.203566 180.078588 
L 644.5931 135.194617 
L 645.056279 130.450716 
L 645.519457 133.375497 
L 645.982635 138.295109 
L 646.908991 160.376527 
L 647.372169 174.64901 
L 647.835348 193.221794 
L 648.298526 201.210376 
L 648.761704 206.448112 
L 649.224882 207.258298 
L 649.68806 211.788675 
L 650.151238 213.774052 
L 650.614417 220.901824 
L 651.077595 225.080392 
L 651.540773 230.939407 
L 652.003951 228.725536 
L 652.467129 227.327561 
L 652.930307 229.608607 
L 653.393486 229.086411 
L 653.856664 223.088724 
L 654.319842 219.156978 
L 654.78302 213.410049 
L 655.246198 213.602698 
L 655.709376 222.497 
L 656.172555 220.765929 
L 656.635733 222.717623 
L 657.098911 216.360642 
L 658.025267 207.651311 
L 658.488445 197.192391 
L 658.951624 180.007935 
L 659.87798 167.462392 
L 660.341158 172.954629 
L 660.804336 179.8541 
L 661.730693 183.053869 
L 662.193871 187.049047 
L 662.657049 182.39497 
L 663.120227 173.354512 
L 663.583405 168.397281 
L 664.046583 161.853168 
L 664.509762 159.541987 
L 664.97294 161.164328 
L 665.436118 163.838352 
L 665.899296 167.53786 
L 667.288831 192.974464 
L 667.752009 193.556349 
L 668.215187 193.943616 
L 668.678365 187.406988 
L 669.141543 189.852711 
L 669.604721 190.853772 
L 670.0679 187.520849 
L 670.994256 173.717777 
L 671.457434 174.950882 
L 671.920612 179.028399 
L 672.38379 176.305527 
L 672.846969 174.387324 
L 673.310147 168.344726 
L 673.773325 165.595656 
L 674.236503 175.234744 
L 674.699681 179.132613 
L 675.162859 181.469799 
L 675.626038 180.210302 
L 676.089216 191.90036 
L 676.552394 196.415765 
L 677.015572 205.044339 
L 677.47875 196.557793 
L 677.941928 194.295267 
L 678.405107 193.365122 
L 678.868285 191.169964 
L 679.331463 180.958058 
L 679.794641 181.060884 
L 680.257819 167.304692 
L 680.720997 170.319297 
L 681.184176 174.389328 
L 681.647354 175.300565 
L 682.110532 180.665552 
L 682.57371 182.729524 
L 683.036888 187.185048 
L 683.500066 201.079524 
L 683.963245 205.654812 
L 684.426423 206.146873 
L 684.889601 211.122625 
L 685.352779 213.216538 
L 685.815957 211.055064 
L 686.279135 205.921928 
L 686.742314 204.733541 
L 687.66867 188.205824 
L 688.131848 185.520379 
L 689.058204 182.166774 
L 689.521383 184.668637 
L 689.984561 179.221119 
L 690.447739 186.77181 
L 690.910917 190.534944 
L 691.837273 181.818129 
L 692.300452 185.319277 
L 693.226808 189.38734 
L 693.689986 187.484108 
L 694.153164 182.990965 
L 694.616342 182.146902 
L 695.079521 194.390871 
L 695.542699 199.984159 
L 696.005877 202.066845 
L 696.469055 202.397972 
L 696.932233 200.9476 
L 697.395411 205.361955 
L 697.85859 217.044527 
L 698.321768 214.295457 
L 698.784946 212.362284 
L 699.711302 210.497801 
L 700.17448 216.578956 
L 700.637659 226.406499 
L 701.100837 230.335632 
L 702.027193 207.807356 
L 702.490371 207.716887 
L 702.953549 210.41711 
L 703.416728 203.734519 
L 703.879906 202.912911 
L 704.343084 207.278611 
L 704.806262 204.709188 
L 705.26944 222.028186 
L 705.732618 224.833202 
L 706.195797 212.027642 
L 706.658975 211.838542 
L 707.122153 209.823031 
L 707.585331 211.898231 
L 708.048509 218.801445 
L 708.511687 217.096573 
L 708.974866 206.656366 
L 709.901222 221.712837 
L 710.3644 225.386148 
L 710.827578 220.200615 
L 711.290756 227.545461 
L 711.753935 215.862695 
L 712.217113 222.406615 
L 712.680291 233.628842 
L 713.606647 215.274713 
L 714.069825 214.43065 
L 714.533004 212.291631 
L 714.996182 226.066343 
L 715.45936 235.88882 
L 715.922538 236.78883 
L 716.385716 249.530572 
L 716.848894 268.125812 
L 717.775251 272.395525 
L 718.238429 270.512329 
L 718.701607 265.612561 
L 719.164785 256.753073 
L 719.627963 259.492044 
L 720.091142 249.049417 
L 720.55432 244.740986 
L 721.017498 239.199902 
L 721.480676 252.166203 
L 721.943854 261.805291 
L 722.407032 266.859638 
L 722.870211 276.139432 
L 723.796567 289.433117 
L 724.259745 307.055269 
L 724.722923 301.985758 
L 725.186101 301.583327 
L 725.64928 300.862771 
L 726.112458 288.768314 
L 726.575636 287.138295 
L 727.038814 289.19104 
L 727.501992 276.464075 
L 727.96517 273.999446 
L 728.428348 264.689518 
L 728.891527 265.061815 
L 729.354705 277.182277 
L 729.817883 282.008322 
L 730.281061 272.994063 
L 730.744239 277.453329 
L 731.207417 275.812082 
L 731.670596 284.889773 
L 732.133774 288.40215 
L 732.596952 278.684273 
L 733.06013 274.157446 
L 733.523308 272.80064 
L 733.986486 273.659481 
L 734.449665 272.137999 
L 734.912843 265.631312 
L 735.376021 261.089514 
L 735.839199 260.915385 
L 736.302377 273.821803 
L 736.765555 274.957599 
L 737.228734 281.905725 
L 737.691912 285.219741 
L 738.15509 282.89359 
L 738.618268 289.935282 
L 739.081446 284.865771 
L 739.544624 277.644239 
L 740.007803 280.381888 
L 740.470981 272.344459 
L 740.934159 271.829749 
L 741.397337 276.16925 
L 741.860515 269.965718 
L 742.323693 262.253899 
L 742.786872 257.442631 
L 743.25005 246.512137 
L 743.713228 247.842551 
L 744.176406 242.454915 
L 744.639584 248.923982 
L 745.102762 247.436184 
L 745.565941 259.369514 
L 746.029119 262.447744 
L 746.492297 269.28359 
L 746.955475 260.935521 
L 747.418653 257.015003 
L 747.881831 244.957972 
L 748.34501 241.359322 
L 748.808188 235.077194 
L 749.271366 227.193214 
L 749.734544 223.287666 
L 750.197722 216.178413 
L 751.124079 224.782563 
L 752.050435 218.154144 
L 752.513613 212.178913 
L 752.976791 210.066093 
L 753.439969 213.960219 
L 753.903148 210.619811 
L 754.366326 204.397565 
L 754.829504 206.13967 
L 755.292682 201.373314 
L 755.75586 206.408948 
L 756.219038 208.34567 
L 756.682217 212.299679 
L 757.145395 224.678384 
L 757.608573 229.631679 
L 758.071751 227.773359 
L 758.998107 239.5625 
L 759.461286 236.427938 
L 759.924464 235.969367 
L 760.387642 220.379279 
L 760.85082 216.163091 
L 761.313998 221.363401 
L 761.777176 216.817861 
L 762.240355 215.442342 
L 762.703533 218.40455 
L 763.166711 211.658334 
L 763.629889 208.969146 
L 764.556245 206.326645 
L 765.019424 212.455131 
L 765.94578 190.545488 
L 767.335314 174.816729 
L 767.798493 168.456005 
L 768.261671 158.58468 
L 768.724849 158.388094 
L 769.188027 161.125743 
L 770.114383 181.39572 
L 770.577562 181.39001 
L 771.04074 182.353644 
L 771.503918 184.215514 
L 771.967096 182.630407 
L 772.430274 175.846765 
L 772.893452 163.958153 
L 773.356631 157.560003 
L 773.819809 160.421159 
L 774.282987 164.457506 
L 774.746165 162.509362 
L 775.209343 165.774724 
L 775.672521 167.943491 
L 776.1357 170.789677 
L 776.598878 169.264452 
L 777.525234 154.862557 
L 777.988412 153.16517 
L 778.45159 150.4161 
L 778.914769 145.773251 
L 779.377947 137.8743 
L 779.841125 133.96501 
L 780.304303 137.739372 
L 780.767481 138.815286 
L 781.230659 142.114332 
L 781.693838 142.651305 
L 782.157016 146.653968 
L 782.620194 154.870851 
L 783.083372 165.400688 
L 783.54655 170.267903 
L 784.009728 169.453781 
L 784.472907 165.057946 
L 784.936085 167.634662 
L 785.399263 172.808773 
L 785.862441 175.441628 
L 786.325619 182.150224 
L 786.788797 179.105485 
L 787.251976 182.266053 
L 787.715154 183.611437 
L 788.178332 182.086212 
L 789.104688 166.314509 
L 789.567866 151.862185 
L 790.031045 154.798194 
L 790.494223 153.920447 
L 790.957401 160.438168 
L 791.420579 159.358318 
L 791.883757 161.306269 
L 792.346935 162.135168 
L 792.810114 162.649686 
L 793.273292 155.226051 
L 793.73647 158.23317 
L 794.199648 150.805793 
L 794.662826 151.155633 
L 795.126004 145.509755 
L 795.589183 152.805947 
L 796.052361 157.864036 
L 796.515539 157.536458 
L 796.978717 153.930322 
L 797.441895 164.422733 
L 797.905073 167.688095 
L 798.368252 177.67525 
L 798.83143 170.356409 
L 799.294608 170.77736 
L 799.757786 177.807824 
L 800.220964 178.232517 
L 800.684142 157.732077 
L 801.147321 158.441212 
L 801.610499 164.236603 
L 802.073677 168.504994 
L 802.536855 164.57699 
L 803.000033 169.361867 
L 803.463211 166.818642 
L 803.92639 195.238327 
L 804.389568 195.303727 
L 804.852746 190.589768 
L 805.315924 200.303709 
L 805.779102 212.933171 
L 806.24228 211.490284 
L 806.705459 224.842077 
L 807.168637 213.533576 
L 807.631815 219.590952 
L 808.094993 227.706783 
L 808.558171 239.445495 
L 809.021349 232.545831 
L 809.484528 230.126114 
L 809.947706 220.176193 
L 810.410884 219.919725 
L 810.874062 224.558638 
L 811.33724 218.632061 
L 811.800418 198.835239 
L 812.263597 205.513894 
L 812.726775 205.983499 
L 813.189953 209.065472 
L 813.653131 213.517252 
L 814.116309 206.655014 
L 814.579487 206.252583 
L 815.042666 210.805415 
L 815.505844 202.54717 
L 815.969022 202.474092 
L 816.4322 208.819652 
L 816.895378 204.629663 
L 817.358556 206.259489 
L 817.821735 210.756181 
L 818.284913 206.607362 
L 818.748091 206.889835 
L 819.211269 207.86844 
L 820.137625 198.257132 
L 820.600804 196.252848 
L 821.063982 190.648139 
L 821.52716 190.047348 
L 822.453516 184.021495 
L 822.916694 185.164777 
L 823.379873 194.931115 
L 823.843051 191.860177 
L 824.306229 194.152451 
L 824.769407 198.840018 
L 825.232585 201.210888 
L 825.695763 206.976337 
L 826.158941 205.327605 
L 826.62212 203.203557 
L 827.085298 215.731968 
L 827.548476 218.929962 
L 828.011654 213.081981 
L 828.474832 211.829969 
L 828.93801 204.039555 
L 829.401189 199.202089 
L 829.864367 195.693261 
L 830.327545 183.98804 
L 830.790723 179.128117 
L 831.253901 180.466016 
L 831.717079 180.037387 
L 832.180258 184.429285 
L 832.643436 187.402721 
L 833.106614 193.740795 
L 833.569792 193.978356 
L 834.03297 192.164948 
L 834.496148 195.490192 
L 834.959327 195.551849 
L 835.885683 194.630965 
L 836.812039 190.536317 
L 837.275217 193.086834 
L 837.738396 181.415296 
L 838.201574 182.057063 
L 838.664752 169.693135 
L 839.12793 170.574432 
L 839.591108 161.208364 
L 840.054286 160.031205 
L 840.517465 157.278392 
L 840.980643 163.739974 
L 841.443821 165.055417 
L 841.906999 175.435549 
L 842.370177 166.990172 
L 842.833355 162.354808 
L 843.296534 160.926892 
L 844.22289 171.058041 
L 844.686068 170.794088 
L 845.149246 174.145531 
L 846.538781 193.956938 
L 847.001959 193.494624 
L 847.465137 192.212671 
L 847.928315 195.466805 
L 848.391493 186.329039 
L 848.854672 184.728961 
L 849.31785 190.475697 
L 849.781028 200.328116 
L 850.244206 204.607735 
L 850.707384 201.076452 
L 851.170562 191.403487 
L 852.096919 185.725699 
L 852.560097 187.520202 
L 853.023275 177.304553 
L 853.486453 176.449262 
L 853.949631 178.344815 
L 854.41281 184.944875 
L 855.339166 225.904199 
L 855.802344 213.626352 
L 856.265522 212.411767 
L 856.7287 205.250117 
L 857.191879 206.307318 
L 857.655057 211.530084 
L 858.118235 203.814522 
L 858.581413 193.935712 
L 859.044591 205.221564 
L 859.507769 207.154544 
L 859.970948 205.745341 
L 860.434126 203.916962 
L 860.897304 204.667266 
L 861.360482 206.996966 
L 861.82366 196.98342 
L 862.286838 193.609329 
L 862.750017 192.200126 
L 863.213195 199.919236 
L 863.676373 210.830824 
L 864.139551 225.904234 
L 864.602729 227.623883 
L 865.529086 236.856797 
L 865.992264 240.70227 
L 866.455442 240.883691 
L 866.91862 242.704392 
L 867.381798 235.35561 
L 867.844976 231.929121 
L 868.308155 240.793481 
L 868.771333 245.608299 
L 869.234511 238.776002 
L 869.697689 240.997166 
L 870.160867 250.748533 
L 870.624045 256.577607 
L 871.087224 254.558353 
L 871.550402 250.914791 
L 872.01358 253.420396 
L 872.476758 269.620342 
L 872.939936 269.229139 
L 873.403114 260.177453 
L 873.866293 255.950038 
L 874.329471 258.496812 
L 874.792649 256.511241 
L 875.255827 250.202915 
L 875.719005 251.686777 
L 876.645362 242.198977 
L 877.10854 240.984391 
L 878.034896 249.603512 
L 878.498074 250.106801 
L 878.961252 243.514034 
L 879.424431 249.773512 
L 879.887609 253.600271 
L 880.350787 241.996101 
L 880.813965 242.836228 
L 881.277143 241.217437 
L 882.2035 262.419333 
L 882.666678 268.622672 
L 883.129856 267.078734 
L 883.593034 282.586291 
L 884.056212 280.200258 
L 884.51939 281.957333 
L 884.982569 277.894594 
L 885.908925 254.536548 
L 886.372103 252.711911 
L 886.835281 248.495724 
L 887.298459 252.794056 
L 887.761638 261.007196 
L 888.224816 259.081508 
L 888.687994 262.915752 
L 889.151172 279.295346 
L 889.61435 279.768694 
L 890.077528 286.136709 
L 890.540707 278.66442 
L 891.003885 268.639646 
L 891.467063 271.860096 
L 891.930241 282.816596 
L 892.393419 281.635694 
L 892.856597 282.659211 
L 893.319776 278.626414 
L 893.782954 285.364951 
L 894.246132 293.810135 
L 894.70931 296.383108 
L 895.172488 282.308791 
L 895.635666 279.439956 
L 896.098845 288.457765 
L 896.562023 279.129123 
L 897.025201 281.769463 
L 897.488379 279.061562 
L 898.414735 268.705468 
L 898.877914 271.27844 
L 899.341092 271.21659 
L 899.80427 285.533985 
L 900.267448 277.361821 
L 900.730626 279.051529 
L 901.193804 271.118894 
L 901.656983 274.79969 
L 902.583339 249.147401 
L 903.046517 234.096254 
L 903.509695 233.49172 
L 903.972873 223.410807 
L 904.436052 232.016924 
L 905.362408 236.874685 
L 905.825586 239.616077 
L 906.751942 230.618563 
L 907.215121 238.835445 
L 908.141477 224.096712 
L 908.604655 227.758795 
L 909.067833 225.791938 
L 909.531011 232.972107 
L 909.99419 242.678563 
L 910.457368 237.455604 
L 910.920546 238.943209 
L 911.383724 246.426533 
L 911.846902 249.033189 
L 912.31008 247.6427 
L 912.773259 249.818952 
L 913.236437 243.566765 
L 913.699615 242.165047 
L 914.162793 239.052941 
L 914.625971 232.688475 
L 915.089149 223.35609 
L 915.552328 226.935835 
L 916.015506 219.59828 
L 916.478684 218.881467 
L 916.941862 213.621082 
L 917.40504 214.861672 
L 917.868218 209.444095 
L 918.331397 202.121512 
L 918.794575 192.673106 
L 919.257753 191.518403 
L 919.720931 188.215421 
L 920.184109 193.468128 
L 920.647287 190.89122 
L 921.110466 200.287036 
L 921.573644 203.941633 
L 922.036822 214.617434 
L 922.5 219.664295 
L 922.963178 232.402294 
L 923.426356 232.269334 
L 923.889534 234.187343 
L 924.352713 231.015354 
L 924.815891 241.077361 
L 925.279069 240.068621 
L 925.742247 228.131355 
L 926.205425 207.477467 
L 926.668603 200.918383 
L 927.131782 197.847446 
L 927.59496 186.842098 
L 928.521316 162.263949 
L 928.984494 165.095164 
L 929.447672 173.439297 
L 929.910851 166.146654 
L 930.374029 162.851158 
L 930.837207 165.723542 
L 931.300385 172.701609 
L 931.763563 188.336416 
L 932.226741 200.172437 
L 932.68992 201.225895 
L 933.153098 208.200219 
L 933.616276 210.514949 
L 934.079454 220.333684 
L 934.542632 224.560906 
L 935.468989 213.572304 
L 935.932167 214.535939 
L 936.395345 218.583514 
L 936.858523 225.696316 
L 937.784879 215.385133 
L 938.248058 213.036526 
L 938.711236 206.41756 
L 939.174414 202.672946 
L 939.637592 197.098179 
L 940.10077 187.253052 
L 940.563948 184.283166 
L 941.027127 179.9285 
L 941.490305 172.68077 
L 941.953483 170.998354 
L 942.416661 177.115612 
L 942.879839 186.223244 
L 943.343017 187.085828 
L 944.269374 181.258335 
L 944.732552 182.334249 
L 945.19573 187.983676 
L 945.658908 185.144782 
L 946.122086 184.091131 
L 946.585265 188.250985 
L 947.048443 194.181111 
L 947.511621 196.653032 
L 947.974799 190.419559 
L 948.437977 188.314224 
L 948.901155 185.494043 
L 949.364334 180.15132 
L 949.827512 177.413478 
L 950.29069 179.657097 
L 950.753868 175.235064 
L 951.217046 180.742271 
L 951.680224 179.692362 
L 952.143403 177.46352 
L 952.606581 176.499692 
L 953.069759 176.183342 
L 953.532937 165.458693 
L 953.996115 162.975351 
L 954.459293 158.197767 
L 954.922472 158.150887 
L 955.38565 151.378473 
L 955.848828 142.951809 
L 956.312006 140.004378 
L 956.775184 142.131976 
L 957.238362 139.012384 
L 957.701541 139.365967 
L 958.164719 128.532782 
L 958.627897 128.302513 
L 959.091075 137.92663 
L 960.017431 141.006634 
L 960.48061 148.370194 
L 960.943788 145.666035 
L 961.870144 157.515059 
L 962.333322 150.884865 
L 962.7965 149.505604 
L 963.259679 154.728369 
L 963.722857 153.71963 
L 964.186035 163.448541 
L 965.575569 202.68428 
L 966.038748 225.995254 
L 966.501926 224.193073 
L 966.965104 217.697615 
L 967.428282 206.396598 
L 968.354638 194.397482 
L 968.817817 184.653407 
L 969.280995 154.002911 
L 969.744173 148.746268 
L 970.670529 152.567316 
L 971.596886 156.186262 
L 972.060064 162.217439 
L 972.523242 174.004806 
L 972.98642 180.245571 
L 973.449598 188.114388 
L 973.912776 200.646541 
L 974.375955 196.920641 
L 975.302311 178.079968 
L 975.765489 175.562942 
L 976.228667 171.900666 
L 976.691845 169.308787 
L 977.155024 164.321615 
L 977.618202 173.238372 
L 978.544558 181.692816 
L 979.007736 181.80687 
L 979.470914 178.429035 
L 980.397271 169.315499 
L 980.860449 160.611879 
L 981.323627 155.815582 
L 981.786805 156.150452 
L 982.249983 161.238483 
L 982.713162 164.477646 
L 983.17634 175.531454 
L 983.639518 173.418634 
L 984.565874 186.719804 
L 985.029052 185.13844 
L 985.492231 179.739576 
L 986.418587 182.737243 
L 986.881765 187.469722 
L 987.344943 179.552058 
L 987.808121 166.443344 
L 988.2713 165.719045 
L 988.734478 154.12236 
L 989.197656 147.529592 
L 989.660834 138.298259 
L 990.124012 137.600159 
L 990.58719 135.951427 
L 991.050369 149.520293 
L 991.513547 143.006121 
L 992.903081 157.562853 
L 993.366259 154.503143 
L 993.829438 155.833557 
L 994.292616 151.94298 
L 994.755794 155.739798 
L 995.218972 163.395284 
L 995.68215 166.466028 
L 997.071685 180.491304 
L 997.534863 185.541908 
L 997.998041 192.048401 
L 998.461219 193.992609 
L 998.924397 200.379338 
L 999.387576 199.48662 
L 999.850754 200.072248 
L 1000.313932 192.532591 
L 1000.77711 192.953542 
L 1001.703466 171.755002 
L 1002.166645 156.254737 
L 1003.093001 137.129623 
L 1003.556179 138.995235 
L 1004.019357 129.056542 
L 1004.482535 129.731993 
L 1004.945714 141.347198 
L 1005.408892 144.084847 
L 1005.87207 153.993406 
L 1006.335248 167.524846 
L 1006.798426 169.746009 
L 1007.261604 174.867724 
L 1007.724783 181.651173 
L 1008.651139 184.693751 
L 1009.577495 164.168887 
L 1010.040673 163.661662 
L 1010.503852 168.375428 
L 1011.430208 156.623326 
L 1011.893386 161.718842 
L 1012.356564 174.804907 
L 1013.282921 167.641289 
L 1013.746099 168.470189 
L 1014.209277 183.472488 
L 1014.672455 184.335072 
L 1015.135633 190.063095 
L 1015.598811 186.243628 
L 1016.06199 192.222408 
L 1016.525168 210.005494 
L 1017.451524 201.210083 
L 1017.914702 211.133612 
L 1018.37788 202.912793 
L 1018.841059 207.978368 
L 1019.304237 209.492172 
L 1019.767415 204.542426 
L 1020.230593 219.046953 
L 1020.693771 223.274175 
L 1021.156949 218.979393 
L 1021.620127 229.475547 
L 1022.083306 232.108401 
L 1023.009662 256.098569 
L 1023.47284 241.34309 
L 1023.936018 242.740872 
L 1024.399196 247.26002 
L 1024.862375 247.553721 
L 1025.325553 243.666887 
L 1026.251909 210.937255 
L 1026.715087 213.162161 
L 1027.178265 210.297069 
L 1027.641444 212.986063 
L 1028.104622 211.090317 
L 1028.5678 207.027578 
L 1029.030978 217.347827 
L 1029.494156 219.108646 
L 1029.957334 229.934153 
L 1030.420513 226.608715 
L 1030.883691 235.113781 
L 1031.346869 234.876027 
L 1031.810047 247.333327 
L 1032.273225 243.109654 
L 1032.736403 248.848905 
L 1033.199582 242.286079 
L 1033.66276 238.983097 
L 1034.125938 238.644291 
L 1034.589116 248.04385 
L 1035.052294 244.220641 
L 1035.515472 256.472095 
L 1035.978651 259.774884 
L 1036.441829 268.35106 
L 1036.905007 285.423043 
L 1037.368185 277.157313 
L 1037.831363 274.789993 
L 1038.294541 282.591442 
L 1038.75772 280.583416 
L 1039.220898 274.03556 
L 1039.684076 262.038412 
L 1040.147254 245.288103 
L 1040.610432 240.701394 
L 1041.536789 219.615133 
L 1041.999967 220.548827 
L 1042.463145 220.722763 
L 1042.926323 231.256343 
L 1043.389501 237.055477 
L 1043.852679 236.245097 
L 1044.315858 239.476775 
L 1044.779036 238.82733 
L 1045.242214 240.928729 
L 1045.705392 255.747639 
L 1046.16857 257.268928 
L 1046.631748 259.321672 
L 1048.021283 282.467777 
L 1048.484461 276.361553 
L 1048.947639 276.194909 
L 1049.410817 276.174227 
L 1049.873996 292.1571 
L 1050.337174 284.737208 
L 1050.800352 280.996337 
L 1051.26353 276.061562 
L 1051.726708 267.526361 
L 1052.189886 254.870507 
L 1052.653065 259.131413 
L 1053.116243 235.086687 
L 1054.505777 248.792934 
L 1054.968955 259.209396 
L 1055.432134 260.853095 
L 1055.895312 271.610137 
L 1056.35849 275.054049 
L 1056.821668 268.695972 
L 1057.284846 276.60486 
L 1057.748024 263.338955 
L 1058.211203 246.064676 
L 1059.137559 248.609482 
L 1059.600737 243.89178 
L 1060.063915 241.404695 
L 1060.527093 240.347301 
L 1061.45345 254.973368 
L 1061.916628 251.966056 
L 1062.379806 257.41338 
L 1062.842984 268.601924 
L 1063.306162 272.866572 
L 1063.769341 275.832522 
L 1064.232519 277.357554 
L 1064.695697 277.602601 
L 1065.158875 281.874734 
L 1065.622053 269.563204 
L 1066.085231 263.988436 
L 1066.54841 267.979871 
L 1067.011588 269.497418 
L 1067.474766 267.384597 
L 1067.937944 268.097475 
L 1068.401122 267.870948 
L 1068.8643 274.923868 
L 1069.327479 277.826193 
L 1069.790657 274.575608 
L 1070.253835 276.433735 
L 1070.717013 272.966077 
L 1071.180191 280.614078 
L 1071.643369 282.827756 
L 1072.106548 282.971751 
L 1072.569726 284.552923 
L 1073.032904 281.171345 
L 1073.496082 275.873533 
L 1073.95926 279.820057 
L 1074.422438 264.989726 
L 1074.885617 256.394643 
L 1075.348795 256.549866 
L 1075.811973 246.558776 
L 1076.275151 251.107865 
L 1076.738329 257.176469 
L 1077.201507 267.107484 
L 1077.664686 268.183398 
L 1078.127864 278.687037 
L 1079.517398 273.403098 
L 1079.980576 276.150878 
L 1080.443755 274.467365 
L 1080.906933 276.051182 
L 1081.370111 262.484769 
L 1081.833289 268.350173 
L 1082.296467 256.595199 
L 1082.759645 252.023461 
L 1083.222824 251.531206 
L 1083.686002 240.66808 
L 1084.14918 226.990483 
L 1085.075536 223.749159 
L 1085.538714 231.475755 
L 1086.001893 242.076703 
L 1086.465071 246.876549 
L 1086.928249 249.105198 
L 1087.391427 253.912531 
L 1087.854605 255.770658 
L 1088.317783 249.140464 
L 1088.780962 247.877224 
L 1089.707318 227.584404 
L 1090.170496 227.896819 
L 1090.633674 230.645695 
L 1091.096852 229.266434 
L 1091.560031 231.34912 
L 1092.023209 225.931543 
L 1092.949565 240.598779 
L 1093.412743 231.741711 
L 1093.875921 226.664715 
L 1094.3391 224.705343 
L 1094.802278 218.127546 
L 1095.265456 209.173169 
L 1095.728634 206.031121 
L 1096.191812 204.771624 
L 1096.65499 214.006507 
L 1097.118169 212.788179 
L 1097.581347 208.583219 
L 1098.044525 214.842698 
L 1098.507703 214.822017 
L 1099.434059 202.695651 
L 1099.897238 201.559661 
L 1100.360416 201.194656 
L 1100.823594 206.686893 
L 1101.286772 204.11747 
L 1101.74995 209.875434 
L 1102.213128 208.260385 
L 1102.676307 210.526461 
L 1103.602663 198.658337 
L 1104.065841 191.822298 
L 1104.529019 191.865242 
L 1104.992197 189.688796 
L 1105.455376 190.338049 
L 1105.918554 190.347309 
L 1106.381732 191.464392 
L 1106.84491 195.845062 
L 1107.308088 192.205243 
L 1107.771266 190.537797 
L 1108.234445 195.715651 
L 1108.697623 198.427102 
L 1109.160801 190.168857 
L 1109.623979 190.084551 
L 1110.087157 189.502472 
L 1110.550335 194.418341 
L 1111.013514 196.242785 
L 1111.476692 192.322266 
L 1111.93987 196.766562 
L 1112.403048 205.050812 
L 1112.866226 201.699176 
L 1113.329404 196.322768 
L 1113.792583 195.624668 
L 1114.255761 193.657811 
L 1114.718939 193.816777 
L 1115.645295 183.325947 
L 1116.108473 187.968603 
L 1116.571652 195.047721 
L 1117.03483 190.809078 
L 1117.961186 185.69643 
L 1118.424364 185.915278 
L 1119.35072 183.325174 
L 1119.813899 182.32392 
L 1120.277077 182.744871 
L 1120.740255 184.472005 
L 1121.203433 179.904009 
L 1121.666611 178.775505 
L 1122.592968 187.196265 
L 1123.056146 186.494422 
L 1123.519324 193.435062 
L 1123.982502 195.989322 
L 1124.44568 192.592774 
L 1124.908858 186.101058 
L 1125.372037 175.941549 
L 1125.835215 163.079849 
L 1126.298393 158.504368 
L 1126.761571 147.326859 
L 1127.224749 142.440738 
L 1127.687927 139.291205 
L 1128.151106 139.420229 
L 1128.614284 142.985003 
L 1129.077462 153.889105 
L 1129.54064 154.444792 
L 1130.466996 163.022743 
L 1131.393353 190.658248 
L 1131.856531 199.713483 
L 1132.319709 219.341693 
L 1133.246065 236.374281 
L 1133.709244 241.99751 
L 1134.172422 239.038852 
L 1134.6356 237.019598 
L 1135.098778 222.941539 
L 1135.561956 200.154342 
L 1136.488313 187.264476 
L 1136.951491 177.700048 
L 1137.414669 174.558 
L 1137.877847 173.283532 
L 1138.341025 173.023322 
L 1139.73056 184.279039 
L 1140.193738 189.397011 
L 1140.656916 191.460984 
L 1141.120094 194.932191 
L 1141.583272 207.09008 
L 1142.046451 208.285759 
L 1142.509629 205.229792 
L 1142.972807 203.116971 
L 1144.362341 181.007001 
L 1144.82552 186.84356 
L 1145.751876 193.497792 
L 1146.215054 193.922485 
L 1146.678232 195.657105 
L 1147.14141 204.536436 
L 1147.604589 203.452843 
L 1148.067767 196.096576 
L 1148.530945 181.891267 
L 1148.994123 174.22436 
L 1150.383658 161.392408 
L 1150.846836 164.40327 
L 1151.310014 162.354075 
L 1152.23637 172.664871 
L 1152.699548 168.793007 
L 1153.162727 177.309302 
L 1153.625905 177.374701 
L 1154.089083 180.954445 
L 1154.552261 182.659124 
L 1155.015439 185.684957 
L 1155.478617 181.143159 
L 1155.941796 184.25133 
L 1156.404974 180.405665 
L 1156.868152 184.078975 
L 1157.794508 203.04606 
L 1158.257686 195.567608 
L 1158.720865 191.479993 
L 1159.184043 192.332672 
L 1159.647221 196.448937 
L 1160.110399 203.836275 
L 1160.573577 201.485248 
L 1161.036755 174.772016 
L 1161.499934 185.687346 
L 1162.889468 199.896012 
L 1163.352646 196.701567 
L 1163.815824 203.964075 
L 1164.279003 204.370055 
L 1164.742181 201.789404 
L 1165.205359 203.946943 
L 1165.668537 191.609214 
L 1166.131715 192.22104 
L 1166.594893 198.214791 
L 1167.058072 197.340786 
L 1167.984428 208.478707 
L 1168.447606 211.818922 
L 1168.910784 229.587037 
L 1169.837141 233.224696 
L 1170.300319 232.863434 
L 1170.763497 228.853092 
L 1171.226675 220.98034 
L 1171.689853 221.562225 
L 1172.153031 224.969807 
L 1172.61621 231.944131 
L 1173.542566 221.576809 
L 1174.005744 221.604782 
L 1174.468922 221.905968 
L 1174.9321 215.638811 
L 1175.395279 211.942852 
L 1175.858457 201.158321 
L 1176.321635 198.97439 
L 1176.784813 208.040853 
L 1178.174348 241.790744 
L 1178.637526 243.2909 
L 1179.100704 234.079603 
L 1179.563882 230.246489 
L 1180.02706 227.951602 
L 1180.490238 215.401865 
L 1180.953417 191.263573 
L 1181.416595 184.655835 
L 1181.879773 183.718205 
L 1182.342951 181.186209 
L 1183.269307 189.277616 
L 1184.195664 200.542787 
L 1184.658842 192.471675 
L 1185.12202 187.31234 
L 1185.585198 196.914002 
L 1186.511555 189.44723 
L 1186.974733 193.771761 
L 1187.437911 192.141742 
L 1187.901089 196.821824 
L 1188.364267 203.882229 
L 1188.827445 201.922857 
L 1189.290624 211.68171 
L 1189.753802 218.521299 
L 1190.21698 216.895022 
L 1190.680158 217.005334 
L 1191.143336 217.444998 
L 1191.606514 218.101736 
L 1192.069693 223.46298 
L 1192.532871 212.431434 
L 1192.996049 207.848467 
L 1193.459227 207.812816 
L 1193.922405 215.999757 
L 1194.385583 215.44762 
L 1194.848762 214.289175 
L 1195.31194 204.140893 
L 1195.775118 207.166726 
L 1196.238296 207.771067 
L 1196.701474 211.638995 
L 1197.627831 200.50443 
L 1198.091009 199.091484 
L 1198.554187 204.112147 
L 1199.017365 212.65464 
L 1199.480543 211.327775 
L 1199.943721 204.274662 
L 1200.4069 201.679041 
L 1200.870078 206.08591 
L 1201.333256 206.607912 
L 1201.796434 208.728024 
L 1202.259612 198.403839 
L 1202.72279 199.618231 
L 1203.185969 197.887161 
L 1203.649147 197.080524 
L 1204.112325 206.120788 
L 1204.575503 207.365122 
L 1205.038681 222.169061 
L 1205.501859 232.957141 
L 1205.965038 229.332292 
L 1206.428216 228.810096 
L 1206.891394 236.196112 
L 1207.354572 232.387873 
L 1207.81775 231.450243 
L 1208.280928 208.539539 
L 1208.744107 199.113589 
L 1209.207285 213.520808 
L 1209.670463 216.632721 
L 1210.133641 216.660694 
L 1211.059997 217.173244 
L 1211.523176 218.256643 
L 1211.986354 217.659594 
L 1212.449532 209.648364 
L 1212.91271 223.606466 
L 1213.375888 221.953991 
L 1213.839066 217.887509 
L 1214.302245 216.736549 
L 1214.765423 227.805328 
L 1215.228601 234.570064 
L 1215.691779 238.363139 
L 1216.154957 237.481649 
L 1216.618135 237.243894 
L 1217.081314 244.914351 
L 1217.544492 246.600316 
L 1218.00767 241.807761 
L 1218.470848 235.488207 
L 1219.397204 205.808831 
L 1219.860382 207.809179 
L 1220.323561 204.408888 
L 1221.249917 212.575149 
L 1221.713095 225.971853 
L 1222.176273 248.025298 
L 1222.639451 262.207958 
L 1223.10263 270.993723 
L 1223.565808 272.762026 
L 1224.028986 273.845426 
L 1224.492164 272.091899 
L 1224.955342 269.616043 
L 1225.41852 263.79426 
L 1225.881699 264.787836 
L 1227.271233 269.508894 
L 1227.734411 280.24832 
L 1228.197589 279.516536 
L 1228.660768 275.816834 
L 1229.123946 265.619898 
L 1229.587124 248.660001 
L 1230.050302 254.691179 
L 1230.51348 253.843373 
L 1230.976658 239.600637 
L 1231.903015 241.752465 
L 1232.366193 239.897887 
L 1232.829371 257.542495 
L 1233.292549 251.66083 
L 1233.755727 250.472444 
L 1234.218906 261.402745 
L 1234.682084 264.342496 
L 1235.145262 275.635834 
L 1235.60844 275.420535 
L 1236.071618 258.56169 
L 1236.534796 254.805848 
L 1236.997975 253.669858 
L 1237.461153 249.483612 
L 1237.924331 243.238911 
L 1238.387509 234.625114 
L 1238.850687 244.687121 
L 1239.313865 259.247789 
L 1239.777044 266.551466 
L 1240.240222 263.278425 
L 1240.7034 269.519191 
L 1241.166578 269.393716 
L 1242.092934 264.692759 
L 1242.556113 251.920883 
L 1243.019291 234.017839 
L 1243.482469 242.89717 
L 1243.945647 238.228123 
L 1244.408825 246.175535 
L 1244.872003 259.168034 
L 1245.335182 264.15127 
L 1246.261538 286.236431 
L 1246.724716 279.179575 
L 1247.187894 281.760033 
L 1247.651072 286.327836 
L 1248.114251 280.083134 
L 1248.577429 276.656645 
L 1249.040607 266.646842 
L 1249.503785 266.787095 
L 1249.966963 272.380382 
L 1250.430141 269.148511 
L 1250.89332 252.087563 
L 1251.356498 247.178986 
L 1251.819676 235.840543 
L 1252.282854 240.337236 
L 1252.746032 243.183421 
L 1253.20921 235.84961 
L 1253.672389 237.490664 
L 1254.135567 249.296744 
L 1254.598745 249.298518 
L 1255.061923 249.700756 
L 1255.525101 243.411143 
L 1256.451458 239.720701 
L 1256.914636 232.349463 
L 1257.377814 216.860426 
L 1257.840992 210.799114 
L 1258.30417 209.318801 
L 1258.767348 209.676127 
L 1259.230527 207.342491 
L 1259.693705 210.944691 
L 1260.156883 211.717451 
L 1260.620061 218.418562 
L 1261.083239 219.123954 
L 1261.546417 211.370966 
L 1262.472774 215.85072 
L 1262.935952 215.485715 
L 1263.39913 219.057974 
L 1263.862308 215.144941 
L 1264.325486 214.514209 
L 1264.788665 223.517047 
L 1265.251843 210.584237 
L 1265.715021 210.065784 
L 1266.178199 209.824287 
L 1266.641377 203.710578 
L 1267.104555 204.947426 
L 1267.567734 204.058451 
L 1268.030912 199.149874 
L 1268.49409 210.057719 
L 1269.420446 206.95113 
L 1269.883624 205.957361 
L 1270.346803 208.792318 
L 1270.809981 219.557943 
L 1271.273159 236.891911 
L 1272.199515 234.500167 
L 1272.662693 233.899375 
L 1273.125872 237.134796 
L 1273.58905 233.76819 
L 1274.052228 219.693873 
L 1274.515406 199.777286 
L 1274.978584 194.434562 
L 1275.441762 184.892589 
L 1275.904941 180.455586 
L 1276.368119 171.815591 
L 1276.831297 172.251513 
L 1277.294475 183.829291 
L 1277.757653 188.677793 
L 1278.220831 188.668339 
L 1278.68401 190.938158 
L 1279.147188 192.133836 
L 1279.610366 190.552472 
L 1280.073544 181.826396 
L 1280.536722 178.407392 
L 1280.9999 174.019043 
L 1281.463079 172.90551 
L 1281.926257 175.530879 
L 1282.389435 175.113477 
L 1282.852613 177.274759 
L 1283.315791 177.684482 
L 1283.778969 169.362612 
L 1284.242148 170.442269 
L 1284.705326 168.4305 
L 1285.168504 165.011496 
L 1285.631682 158.283993 
L 1286.09486 149.142484 
L 1287.021217 143.951241 
L 1287.484395 132.324614 
L 1287.947573 127.086685 
L 1288.410751 125.602629 
L 1288.873929 127.195028 
L 1289.337107 133.042816 
L 1289.800286 130.450937 
L 1290.263464 132.503682 
L 1290.726642 133.860294 
L 1291.18982 133.289444 
L 1291.652998 134.440211 
L 1292.116176 131.227053 
L 1292.579355 125.880586 
L 1293.042533 127.113692 
L 1293.505711 120.341277 
L 1293.968889 134.314349 
L 1294.432067 141.240019 
L 1294.895245 134.770759 
L 1295.821602 152.551876 
L 1296.747958 156.488947 
L 1297.211136 151.520488 
L 1298.137493 165.188437 
L 1298.600671 160.407111 
L 1299.063849 159.675327 
L 1299.527027 152.835544 
L 1299.990205 159.008942 
L 1300.453383 155.997887 
L 1300.916562 144.648217 
L 1301.37974 144.361807 
L 1301.842918 146.399582 
L 1302.306096 150.15523 
L 1302.769274 158.338429 
L 1303.232452 156.218123 
L 1303.695631 156.212413 
L 1304.158809 155.214901 
L 1304.621987 153.435176 
L 1305.085165 152.400238 
L 1305.548343 144.931691 
L 1306.011521 147.268877 
L 1306.4747 147.772166 
L 1306.937878 151.748631 
L 1307.401056 154.216809 
L 1307.864234 155.637047 
L 1308.327412 154.437432 
L 1308.79059 157.575544 
L 1309.253769 157.670885 
L 1309.716947 155.427072 
L 1310.180125 152.041752 
L 1310.643303 153.566784 
L 1311.106481 157.539506 
L 1311.569659 158.641619 
L 1312.032838 166.031376 
L 1312.496016 167.159687 
L 1312.959194 170.675807 
L 1313.88555 175.91906 
L 1314.348728 176.426092 
L 1314.811907 173.684508 
L 1315.275085 157.252324 
L 1315.738263 153.945599 
L 1316.201441 153.120249 
L 1316.664619 158.889442 
L 1317.590975 165.59607 
L 1318.054154 167.9108 
L 1318.517332 179.20788 
L 1318.98051 184.737543 
L 1319.443688 188.145125 
L 1319.906866 182.420652 
L 1320.370044 181.468052 
L 1321.296401 194.293906 
L 1321.759579 205.80806 
L 1322.222757 210.69773 
L 1322.685935 206.575109 
L 1323.149113 204.447318 
L 1323.612292 206.526261 
L 1324.07547 216.270143 
L 1324.538648 220.553505 
L 1325.001826 214.537105 
L 1325.465004 214.359233 
L 1326.391361 242.982796 
L 1326.854539 244.043739 
L 1327.317717 220.126263 
L 1327.780895 209.53635 
L 1328.244073 202.74148 
L 1328.707251 205.681231 
L 1329.633608 182.45792 
L 1330.559964 178.896696 
L 1331.48632 185.607067 
L 1331.949499 199.243301 
L 1332.412677 202.624685 
L 1332.875855 208.266627 
L 1333.339033 222.116192 
L 1334.728568 245.591648 
L 1335.191746 236.925455 
L 1335.654924 232.312547 
L 1336.118102 232.407888 
L 1336.58128 233.468832 
L 1337.044458 232.340327 
L 1337.507637 233.056947 
L 1337.970815 224.622798 
L 1338.433993 225.769822 
L 1339.360349 220.22677 
L 1339.823527 208.517806 
L 1340.749884 196.769447 
L 1341.213062 195.936612 
L 1341.67624 192.76088 
L 1342.139418 190.771567 
L 1342.602596 180.106801 
L 1343.065775 185.726287 
L 1343.528953 185.593326 
L 1343.992131 186.721637 
L 1344.918487 198.144 
L 1345.381665 196.476554 
L 1345.844844 203.705378 
L 1346.308022 202.165183 
L 1346.7712 202.062163 
L 1347.234378 196.756866 
L 1347.697556 186.937938 
L 1348.623913 179.755607 
L 1349.087091 169.367796 
L 1349.550269 168.145726 
L 1350.013447 174.614793 
L 1350.476625 187.629747 
L 1350.939803 205.614936 
L 1351.402982 204.778358 
L 1351.86616 199.405693 
L 1352.329338 204.325305 
L 1352.792516 200.094147 
L 1353.255694 197.285194 
L 1354.182051 171.400862 
L 1354.645229 168.760328 
L 1355.108407 180.704886 
L 1355.571585 185.414909 
L 1356.034763 183.665126 
L 1356.497941 172.764573 
L 1356.96112 179.143816 
L 1357.424298 189.067345 
L 1358.350654 198.217921 
L 1358.813832 196.475623 
L 1359.27701 200.433375 
L 1359.740189 211.880161 
L 1360.666545 194.64134 
L 1361.129723 193.190968 
L 1361.592901 181.369724 
L 1362.056079 184.908299 
L 1362.519258 186.755198 
L 1362.982436 183.384849 
L 1363.445614 192.503709 
L 1363.908792 198.568571 
L 1364.37197 197.574801 
L 1364.835148 206.46536 
L 1365.298327 205.318143 
L 1365.761505 194.211744 
L 1366.224683 186.017124 
L 1366.687861 183.230628 
L 1367.151039 182.86188 
L 1367.614217 185.169125 
L 1368.077396 184.078047 
L 1369.930108 228.521581 
L 1370.393286 230.323569 
L 1370.856465 230.044645 
L 1371.319643 230.675184 
L 1371.782821 222.622785 
L 1372.709177 228.741818 
L 1373.172355 228.597629 
L 1373.635534 221.982406 
L 1374.098712 217.743763 
L 1374.56189 209.085054 
L 1375.025068 204.786529 
L 1375.951424 199.292131 
L 1376.414603 200.016237 
L 1378.267315 269.101352 
L 1378.730493 272.426596 
L 1379.193672 274.864834 
L 1379.65685 283.17154 
L 1380.120028 275.156567 
L 1381.046384 265.257075 
L 1381.509562 252.672331 
L 1381.972741 258.905611 
L 1382.435919 255.718652 
L 1382.899097 248.280046 
L 1383.362275 246.036233 
L 1383.825453 246.599405 
L 1384.288631 241.788137 
L 1384.75181 258.332407 
L 1385.678166 282.202809 
L 1386.141344 280.340746 
L 1386.604522 274.530192 
L 1387.0677 284.008346 
L 1387.994057 289.324678 
L 1388.920413 246.239145 
L 1389.383591 234.758481 
L 1389.846769 231.193515 
L 1390.309948 249.781269 
L 1391.699482 233.281718 
L 1392.16266 233.844889 
L 1393.089017 263.093474 
L 1394.015373 267.99989 
L 1394.478551 253.962999 
L 1394.941729 265.323705 
L 1395.404907 267.668376 
L 1396.331264 270.697951 
L 1398.183976 254.407988 
L 1398.647155 256.393365 
L 1399.110333 269.771356 
L 1399.573511 278.265195 
L 1400.036689 268.345215 
L 1400.963045 253.88718 
L 1402.815758 267.319343 
L 1403.278936 256.153062 
L 1403.742114 260.990336 
L 1404.205293 263.514654 
L 1404.668471 268.748648 
L 1405.131649 269.472753 
L 1405.594827 268.4453 
L 1406.058005 254.232505 
L 1406.521183 253.586802 
L 1406.984362 244.711021 
L 1407.44754 244.128943 
L 1407.910718 245.242283 
L 1408.373896 237.80742 
L 1409.300252 235.746997 
L 1409.763431 241.460049 
L 1411.152965 237.70795 
L 1411.616143 237.563762 
L 1412.079321 243.669792 
L 1412.5425 244.869213 
L 1414.395212 248.999127 
L 1414.85839 248.087696 
L 1415.321568 247.887367 
L 1415.784747 260.741388 
L 1416.711103 247.095508 
L 1417.637459 240.848839 
L 1418.100637 230.756697 
L 1418.563816 216.517704 
L 1419.026994 198.038293 
L 1419.490172 192.122944 
L 1419.95335 183.87967 
L 1420.416528 182.21971 
L 1420.879706 176.192082 
L 1421.342885 174.43107 
L 1421.806063 175.604293 
L 1422.269241 173.16212 
L 1422.732419 179.335518 
L 1423.195597 179.528168 
L 1423.658775 173.717613 
L 1424.121954 181.593915 
L 1424.585132 185.308394 
L 1425.04831 195.535078 
L 1425.511488 212.367531 
L 1426.437844 206.543781 
L 1426.901023 206.46696 
L 1427.364201 205.042787 
L 1427.827379 201.642496 
L 1428.290557 196.599184 
L 1428.753735 181.158802 
L 1429.216913 182.597752 
L 1429.680092 188.161099 
L 1430.14327 188.776668 
L 1430.606448 183.224356 
L 1431.069626 188.813901 
L 1431.532804 197.401305 
L 1431.995982 197.081212 
L 1432.459161 200.125758 
L 1432.922339 200.295952 
L 1433.385517 198.868036 
L 1433.848695 198.469347 
L 1434.311873 195.308586 
L 1434.775051 185.47843 
L 1435.23823 188.549174 
L 1435.701408 186.421384 
L 1436.164586 174.540257 
L 1437.55412 149.136758 
L 1438.017299 144.883144 
L 1438.480477 135.674267 
L 1438.943655 129.889911 
L 1439.870011 137.595826 
L 1440.333189 139.697225 
L 1440.796368 142.535925 
L 1441.259546 140.980759 
L 1441.722724 140.522189 
L 1442.185902 142.092132 
L 1442.64908 141.019767 
L 1443.112258 141.051483 
L 1443.575437 139.013516 
L 1444.038615 139.490606 
L 1444.501793 136.05289 
L 1444.964971 137.637803 
L 1445.428149 132.456014 
L 1445.891327 130.751142 
L 1446.354506 126.523726 
L 1446.817684 128.026302 
L 1447.280862 125.449394 
L 1447.74404 123.856801 
L 1448.207218 125.082421 
L 1449.133575 134.068321 
L 1449.596753 134.541669 
L 1450.059931 136.991134 
L 1450.523109 135.301233 
L 1450.986287 143.098939 
L 1451.449465 140.076656 
L 1451.912644 131.870808 
L 1452.375822 125.775812 
L 1452.839 128.225277 
L 1453.765356 121.827128 
L 1454.228534 121.828902 
L 1454.691713 119.813391 
L 1455.154891 121.708944 
L 1456.081247 129.040594 
L 1456.544425 145.22557 
L 1457.007603 166.687677 
L 1457.470782 172.093832 
L 1457.93396 173.648805 
L 1458.397138 178.886542 
L 1458.860316 178.585162 
L 1459.323494 179.795811 
L 1460.249851 145.831106 
L 1460.713029 137.984552 
L 1461.176207 132.888843 
L 1461.639385 118.859438 
L 1462.102563 116.959948 
L 1462.565741 112.762474 
L 1463.02892 115.709711 
L 1463.492098 127.062931 
L 1464.418454 163.677043 
L 1464.881632 178.372446 
L 1465.807989 196.209704 
L 1466.271167 201.720653 
L 1467.197523 184.826156 
L 1467.660701 173.730985 
L 1468.123879 172.2619 
L 1468.587058 168.064426 
L 1469.050236 159.570394 
L 1469.513414 154.935031 
L 1469.976592 169.252426 
L 1470.43977 166.241371 
L 1470.902948 161.613493 
L 1471.829305 156.047985 
L 1472.292483 156.745892 
L 1472.755661 155.643586 
L 1473.218839 146.883826 
L 1473.682017 150.927659 
L 1474.608374 154.090001 
L 1475.071552 146.860984 
L 1475.997908 141.695487 
L 1476.924265 122.835004 
L 1477.850621 108.30102 
L 1478.313799 96.357591 
L 1478.776977 98.37049 
L 1479.240155 96.523397 
L 1479.703334 103.419126 
L 1480.166512 99.326446 
L 1481.092868 115.67413 
L 1481.556046 117.431206 
L 1482.482403 127.412649 
L 1482.945581 123.873881 
L 1483.408759 123.86817 
L 1483.871937 114.356139 
L 1484.335115 112.973135 
L 1484.798293 117.267724 
L 1485.261472 116.607051 
L 1485.72465 122.192853 
L 1486.651006 129.835143 
L 1487.577362 116.7806 
L 1488.040541 117.837801 
L 1488.503719 116.574562 
L 1488.966897 109.057361 
L 1489.430075 104.758835 
L 1489.893253 107.814609 
L 1490.356431 111.993176 
L 1491.282788 118.38168 
L 1491.745966 118.619241 
L 1492.209144 116.199524 
L 1492.672322 121.077966 
L 1493.1355 122.887439 
L 1494.061857 152.558943 
L 1494.988213 176.590279 
L 1496.377748 226.166949 
L 1496.840926 225.996562 
L 1497.304104 228.932571 
L 1498.23046 241.241941 
L 1498.693638 243.406965 
L 1499.156817 248.461311 
L 1499.619995 243.137301 
L 1500.083173 249.378066 
L 1500.546351 243.724703 
L 1501.009529 229.03285 
L 1501.472707 223.881001 
L 1501.935886 214.436337 
L 1502.399064 191.012891 
L 1502.862242 177.383949 
L 1503.32542 158.212148 
L 1503.788598 152.543814 
L 1504.251776 155.958882 
L 1504.714955 153.640216 
L 1505.178133 155.59191 
L 1506.104489 167.500816 
L 1506.567667 176.320264 
L 1507.030845 198.111724 
L 1507.494024 204.116703 
L 1507.957202 200.686471 
L 1508.42038 200.34018 
L 1508.883558 207.164798 
L 1509.346736 215.718519 
L 1509.809914 221.637417 
L 1510.273093 208.266717 
L 1510.736271 202.504817 
L 1511.199449 203.543305 
L 1511.662627 208.665019 
L 1512.125805 203.494457 
L 1512.588983 203.260445 
L 1513.052161 199.347412 
L 1513.978518 207.05707 
L 1514.441696 205.075242 
L 1514.904874 206.259693 
L 1515.368052 199.408683 
L 1515.83123 187.879365 
L 1516.294409 181.249171 
L 1516.757587 177.257543 
L 1517.220765 175.878281 
L 1517.683943 179.263408 
L 1518.147121 176.158786 
L 1518.610299 184.008889 
L 1519.073478 194.310426 
L 1519.999834 207.357096 
L 1520.463012 205.322872 
L 1520.92619 219.527988 
L 1521.389368 225.607819 
L 1521.852547 220.856434 
L 1522.315725 218.971915 
L 1523.242081 189.172774 
L 1523.705259 186.696918 
L 1524.168437 170.624028 
L 1524.631616 148.779978 
L 1525.094794 152.11645 
L 1525.557972 148.828439 
L 1526.484328 168.484622 
L 1526.947506 165.74678 
L 1527.410685 171.070598 
L 1527.873863 182.367678 
L 1529.726575 156.906071 
L 1530.189754 160.272484 
L 1530.652932 152.163945 
L 1531.11611 149.459787 
L 1531.579288 152.818715 
L 1532.042466 163.865038 
L 1532.505644 165.700709 
L 1532.968823 161.188853 
L 1533.432001 154.51749 
L 1533.895179 156.244624 
L 1534.358357 163.563272 
L 1534.821535 164.463281 
L 1535.284713 160.752351 
L 1535.747892 169.545601 
L 1536.674248 201.410296 
L 1537.137426 201.26985 
L 1537.600604 200.631632 
L 1538.063782 205.809486 
L 1538.526961 214.265898 
L 1538.990139 206.018881 
L 1539.453317 203.557995 
L 1539.916495 190.692553 
L 1540.379673 195.548539 
L 1540.842851 207.309707 
L 1541.30603 213.318429 
L 1541.769208 210.198837 
L 1542.232386 215.515169 
L 1542.695564 212.769841 
L 1543.158742 214.34727 
L 1543.62192 212.507663 
L 1544.548277 201.283274 
L 1545.011455 211.042127 
L 1545.474633 217.331547 
L 1545.937811 211.943911 
L 1546.400989 220.374125 
L 1546.864168 222.400671 
L 1547.327346 215.931411 
L 1547.790524 211.685282 
L 1548.253702 193.969371 
L 1548.71688 190.179845 
L 1549.180058 201.039036 
L 1549.643237 200.359649 
L 1550.106415 198.344138 
L 1551.032771 238.393999 
L 1551.495949 253.328931 
L 1551.959127 262.934335 
L 1552.422306 261.439051 
L 1552.885484 252.454733 
L 1553.348662 253.440824 
L 1553.81184 238.258684 
L 1554.738196 234.994903 
L 1555.201375 231.01076 
L 1555.664553 238.232099 
L 1556.127731 256.486758 
L 1556.590909 259.587443 
L 1556.590909 259.587443 
" clip-path="url(#p523b1616ef)" style="fill: none; stroke: #4ea0f4; stroke-width: 2.5; stroke-linecap: square"/>
   </g>
   <g id="patch_3">
    <path d="M 225 320.4 
L 225 43.2 
" style="fill: none; stroke: #000000; stroke-width: 0.8; stroke-linejoin: miter; stroke-linecap: square"/>
   </g>
   <g id="patch_4">
    <path d="M 1620 320.4 
L 1620 43.2 
" style="fill: none; stroke: #000000; stroke-width: 0.8; stroke-linejoin: miter; stroke-linecap: square"/>
   </g>
   <g id="patch_5">
    <path d="M 225 320.4 
L 1620 320.4 
" style="fill: none; stroke: #000000; stroke-width: 0.8; stroke-linejoin: miter; stroke-linecap: square"/>
   </g>
   <g id="patch_6">
    <path d="M 225 43.2 
L 1620 43.2 
" style="fill: none; stroke: #000000; stroke-width: 0.8; stroke-linejoin: miter; stroke-linecap: square"/>
   </g>
   <g id="text_17">
    <!-- TREN -->
    <g transform="translate(895.64375 37.2) scale(0.2 -0.2)">
     <defs>
      <path id="DejaVuSans-52" d="M 2841 2188 
Q 3044 2119 3236 1894 
Q 3428 1669 3622 1275 
L 4263 0 
L 3584 0 
L 2988 1197 
Q 2756 1666 2539 1819 
Q 2322 1972 1947 1972 
L 1259 1972 
L 1259 0 
L 628 0 
L 628 4666 
L 2053 4666 
Q 2853 4666 3247 4331 
Q 3641 3997 3641 3322 
Q 3641 2881 3436 2590 
Q 3231 2300 2841 2188 
z
M 1259 4147 
L 1259 2491 
L 2053 2491 
Q 2509 2491 2742 2702 
Q 2975 2913 2975 3322 
Q 2975 3731 2742 3939 
Q 2509 4147 2053 4147 
L 1259 4147 
z
" transform="scale(0.015625)"/>
      <path id="DejaVuSans-45" d="M 628 4666 
L 3578 4666 
L 3578 4134 
L 1259 4134 
L 1259 2753 
L 3481 2753 
L 3481 2222 
L 1259 2222 
L 1259 531 
L 3634 531 
L 3634 0 
L 628 0 
L 628 4666 
z
" transform="scale(0.015625)"/>
     </defs>
     <use xlink:href="#DejaVuSans-54"/>
     <use xlink:href="#DejaVuSans-52" x="61.083984"/>
     <use xlink:href="#DejaVuSans-45" x="130.566406"/>
     <use xlink:href="#DejaVuSans-4e" x="193.75"/>
    </g>
   </g>
   <g id="legend_1">
    <g id="patch_7">
     <path d="M 1560.703125 65.878125 
L 1613 65.878125 
Q 1615 65.878125 1615 63.878125 
L 1615 50.2 
Q 1615 48.2 1613 48.2 
L 1560.703125 48.2 
Q 1558.703125 48.2 1558.703125 50.2 
L 1558.703125 63.878125 
Q 1558.703125 65.878125 1560.703125 65.878125 
z
" style="fill: #ffffff; opacity: 0.8; stroke: #cccccc; stroke-linejoin: miter"/>
    </g>
    <g id="line2d_16">
     <path d="M 1562.703125 56.298437 
L 1572.703125 56.298437 
L 1582.703125 56.298437 
" style="fill: none; stroke: #4ea0f4; stroke-width: 2.5; stroke-linecap: square"/>
    </g>
    <g id="text_18">
     <!-- tren -->
     <g transform="translate(1590.703125 59.798437) scale(0.1 -0.1)">
      <defs>
       <path id="DejaVuSans-6e" d="M 3513 2113 
L 3513 0 
L 2938 0 
L 2938 2094 
Q 2938 2591 2744 2837 
Q 2550 3084 2163 3084 
Q 1697 3084 1428 2787 
Q 1159 2491 1159 1978 
L 1159 0 
L 581 0 
L 581 3500 
L 1159 3500 
L 1159 2956 
Q 1366 3272 1645 3428 
Q 1925 3584 2291 3584 
Q 2894 3584 3203 3211 
Q 3513 2838 3513 2113 
z
" transform="scale(0.015625)"/>
      </defs>
      <use xlink:href="#DejaVuSans-74"/>
      <use xlink:href="#DejaVuSans-72" x="39.208984"/>
      <use xlink:href="#DejaVuSans-65" x="78.072266"/>
      <use xlink:href="#DejaVuSans-6e" x="139.595703"/>
     </g>
    </g>
   </g>
  </g>
 </g>
 <defs>
  <clipPath id="p523b1616ef">
   <rect x="225" y="43.2" width="1395" height="277.2"/>
  </clipPath>
 </defs>
</svg>
