<?xml version="1.0" encoding="utf-8" standalone="no"?>
<!DOCTYPE svg PUBLIC "-//W3C//DTD SVG 1.1//EN"
  "http://www.w3.org/Graphics/SVG/1.1/DTD/svg11.dtd">
<svg xmlns:xlink="http://www.w3.org/1999/xlink" width="1800pt" height="360pt" viewBox="0 0 1800 360" xmlns="http://www.w3.org/2000/svg" version="1.1">
 <metadata>
  <rdf:RDF xmlns:dc="http://purl.org/dc/elements/1.1/" xmlns:cc="http://creativecommons.org/ns#" xmlns:rdf="http://www.w3.org/1999/02/22-rdf-syntax-ns#">
   <cc:Work>
    <dc:type rdf:resource="http://purl.org/dc/dcmitype/StillImage"/>
    <dc:date>2024-03-25T14:05:54.540641</dc:date>
    <dc:format>image/svg+xml</dc:format>
    <dc:creator>
     <cc:Agent>
      <dc:title>Matplotlib v3.7.2, https://matplotlib.org/</dc:title>
     </cc:Agent>
    </dc:creator>
   </cc:Work>
  </rdf:RDF>
 </metadata>
 <defs>
  <style type="text/css">*{stroke-linejoin: round; stroke-linecap: butt}</style>
 </defs>
 <g id="figure_1">
  <g id="patch_1">
   <path d="M 0 360 
L 1800 360 
L 1800 0 
L 0 0 
z
" style="fill: #ffffff"/>
  </g>
  <g id="axes_1">
   <g id="patch_2">
    <path d="M 225 320.4 
L 1620 320.4 
L 1620 43.2 
L 225 43.2 
z
" style="fill: #ffffff"/>
   </g>
   <g id="matplotlib.axis_1">
    <g id="xtick_1">
     <g id="line2d_1">
      <defs>
       <path id="m16307773f7" d="M 0 0 
L 0 3.5 
" style="stroke: #000000; stroke-width: 0.8"/>
      </defs>
      <g>
       <use xlink:href="#m16307773f7" x="281.89844" y="320.4" style="stroke: #000000; stroke-width: 0.8"/>
      </g>
     </g>
     <g id="text_1">
      <!-- 2011 -->
      <g transform="translate(262.81094 338.797656) scale(0.15 -0.15)">
       <defs>
        <path id="DejaVuSans-32" d="M 1228 531 
L 3431 531 
L 3431 0 
L 469 0 
L 469 531 
Q 828 903 1448 1529 
Q 2069 2156 2228 2338 
Q 2531 2678 2651 2914 
Q 2772 3150 2772 3378 
Q 2772 3750 2511 3984 
Q 2250 4219 1831 4219 
Q 1534 4219 1204 4116 
Q 875 4013 500 3803 
L 500 4441 
Q 881 4594 1212 4672 
Q 1544 4750 1819 4750 
Q 2544 4750 2975 4387 
Q 3406 4025 3406 3419 
Q 3406 3131 3298 2873 
Q 3191 2616 2906 2266 
Q 2828 2175 2409 1742 
Q 1991 1309 1228 531 
z
" transform="scale(0.015625)"/>
        <path id="DejaVuSans-30" d="M 2034 4250 
Q 1547 4250 1301 3770 
Q 1056 3291 1056 2328 
Q 1056 1369 1301 889 
Q 1547 409 2034 409 
Q 2525 409 2770 889 
Q 3016 1369 3016 2328 
Q 3016 3291 2770 3770 
Q 2525 4250 2034 4250 
z
M 2034 4750 
Q 2819 4750 3233 4129 
Q 3647 3509 3647 2328 
Q 3647 1150 3233 529 
Q 2819 -91 2034 -91 
Q 1250 -91 836 529 
Q 422 1150 422 2328 
Q 422 3509 836 4129 
Q 1250 4750 2034 4750 
z
" transform="scale(0.015625)"/>
        <path id="DejaVuSans-31" d="M 794 531 
L 1825 531 
L 1825 4091 
L 703 3866 
L 703 4441 
L 1819 4666 
L 2450 4666 
L 2450 531 
L 3481 531 
L 3481 0 
L 794 0 
L 794 531 
z
" transform="scale(0.015625)"/>
       </defs>
       <use xlink:href="#DejaVuSans-32"/>
       <use xlink:href="#DejaVuSans-30" x="63.623047"/>
       <use xlink:href="#DejaVuSans-31" x="127.246094"/>
       <use xlink:href="#DejaVuSans-31" x="190.869141"/>
      </g>
     </g>
    </g>
    <g id="xtick_2">
     <g id="line2d_2">
      <g>
       <use xlink:href="#m16307773f7" x="451.640414" y="320.4" style="stroke: #000000; stroke-width: 0.8"/>
      </g>
     </g>
     <g id="text_2">
      <!-- 2012 -->
      <g transform="translate(432.552914 338.797656) scale(0.15 -0.15)">
       <use xlink:href="#DejaVuSans-32"/>
       <use xlink:href="#DejaVuSans-30" x="63.623047"/>
       <use xlink:href="#DejaVuSans-31" x="127.246094"/>
       <use xlink:href="#DejaVuSans-32" x="190.869141"/>
      </g>
     </g>
    </g>
    <g id="xtick_3">
     <g id="line2d_3">
      <g>
       <use xlink:href="#m16307773f7" x="621.847435" y="320.4" style="stroke: #000000; stroke-width: 0.8"/>
      </g>
     </g>
     <g id="text_3">
      <!-- 2013 -->
      <g transform="translate(602.759935 338.797656) scale(0.15 -0.15)">
       <defs>
        <path id="DejaVuSans-33" d="M 2597 2516 
Q 3050 2419 3304 2112 
Q 3559 1806 3559 1356 
Q 3559 666 3084 287 
Q 2609 -91 1734 -91 
Q 1441 -91 1130 -33 
Q 819 25 488 141 
L 488 750 
Q 750 597 1062 519 
Q 1375 441 1716 441 
Q 2309 441 2620 675 
Q 2931 909 2931 1356 
Q 2931 1769 2642 2001 
Q 2353 2234 1838 2234 
L 1294 2234 
L 1294 2753 
L 1863 2753 
Q 2328 2753 2575 2939 
Q 2822 3125 2822 3475 
Q 2822 3834 2567 4026 
Q 2313 4219 1838 4219 
Q 1578 4219 1281 4162 
Q 984 4106 628 3988 
L 628 4550 
Q 988 4650 1302 4700 
Q 1616 4750 1894 4750 
Q 2613 4750 3031 4423 
Q 3450 4097 3450 3541 
Q 3450 3153 3228 2886 
Q 3006 2619 2597 2516 
z
" transform="scale(0.015625)"/>
       </defs>
       <use xlink:href="#DejaVuSans-32"/>
       <use xlink:href="#DejaVuSans-30" x="63.623047"/>
       <use xlink:href="#DejaVuSans-31" x="127.246094"/>
       <use xlink:href="#DejaVuSans-33" x="190.869141"/>
      </g>
     </g>
    </g>
    <g id="xtick_4">
     <g id="line2d_4">
      <g>
       <use xlink:href="#m16307773f7" x="791.589409" y="320.4" style="stroke: #000000; stroke-width: 0.8"/>
      </g>
     </g>
     <g id="text_4">
      <!-- 2014 -->
      <g transform="translate(772.501909 338.797656) scale(0.15 -0.15)">
       <defs>
        <path id="DejaVuSans-34" d="M 2419 4116 
L 825 1625 
L 2419 1625 
L 2419 4116 
z
M 2253 4666 
L 3047 4666 
L 3047 1625 
L 3713 1625 
L 3713 1100 
L 3047 1100 
L 3047 0 
L 2419 0 
L 2419 1100 
L 313 1100 
L 313 1709 
L 2253 4666 
z
" transform="scale(0.015625)"/>
       </defs>
       <use xlink:href="#DejaVuSans-32"/>
       <use xlink:href="#DejaVuSans-30" x="63.623047"/>
       <use xlink:href="#DejaVuSans-31" x="127.246094"/>
       <use xlink:href="#DejaVuSans-34" x="190.869141"/>
      </g>
     </g>
    </g>
    <g id="xtick_5">
     <g id="line2d_5">
      <g>
       <use xlink:href="#m16307773f7" x="961.331383" y="320.4" style="stroke: #000000; stroke-width: 0.8"/>
      </g>
     </g>
     <g id="text_5">
      <!-- 2015 -->
      <g transform="translate(942.243883 338.797656) scale(0.15 -0.15)">
       <defs>
        <path id="DejaVuSans-35" d="M 691 4666 
L 3169 4666 
L 3169 4134 
L 1269 4134 
L 1269 2991 
Q 1406 3038 1543 3061 
Q 1681 3084 1819 3084 
Q 2600 3084 3056 2656 
Q 3513 2228 3513 1497 
Q 3513 744 3044 326 
Q 2575 -91 1722 -91 
Q 1428 -91 1123 -41 
Q 819 9 494 109 
L 494 744 
Q 775 591 1075 516 
Q 1375 441 1709 441 
Q 2250 441 2565 725 
Q 2881 1009 2881 1497 
Q 2881 1984 2565 2268 
Q 2250 2553 1709 2553 
Q 1456 2553 1204 2497 
Q 953 2441 691 2322 
L 691 4666 
z
" transform="scale(0.015625)"/>
       </defs>
       <use xlink:href="#DejaVuSans-32"/>
       <use xlink:href="#DejaVuSans-30" x="63.623047"/>
       <use xlink:href="#DejaVuSans-31" x="127.246094"/>
       <use xlink:href="#DejaVuSans-35" x="190.869141"/>
      </g>
     </g>
    </g>
    <g id="xtick_6">
     <g id="line2d_6">
      <g>
       <use xlink:href="#m16307773f7" x="1131.073357" y="320.4" style="stroke: #000000; stroke-width: 0.8"/>
      </g>
     </g>
     <g id="text_6">
      <!-- 2016 -->
      <g transform="translate(1111.985857 338.797656) scale(0.15 -0.15)">
       <defs>
        <path id="DejaVuSans-36" d="M 2113 2584 
Q 1688 2584 1439 2293 
Q 1191 2003 1191 1497 
Q 1191 994 1439 701 
Q 1688 409 2113 409 
Q 2538 409 2786 701 
Q 3034 994 3034 1497 
Q 3034 2003 2786 2293 
Q 2538 2584 2113 2584 
z
M 3366 4563 
L 3366 3988 
Q 3128 4100 2886 4159 
Q 2644 4219 2406 4219 
Q 1781 4219 1451 3797 
Q 1122 3375 1075 2522 
Q 1259 2794 1537 2939 
Q 1816 3084 2150 3084 
Q 2853 3084 3261 2657 
Q 3669 2231 3669 1497 
Q 3669 778 3244 343 
Q 2819 -91 2113 -91 
Q 1303 -91 875 529 
Q 447 1150 447 2328 
Q 447 3434 972 4092 
Q 1497 4750 2381 4750 
Q 2619 4750 2861 4703 
Q 3103 4656 3366 4563 
z
" transform="scale(0.015625)"/>
       </defs>
       <use xlink:href="#DejaVuSans-32"/>
       <use xlink:href="#DejaVuSans-30" x="63.623047"/>
       <use xlink:href="#DejaVuSans-31" x="127.246094"/>
       <use xlink:href="#DejaVuSans-36" x="190.869141"/>
      </g>
     </g>
    </g>
    <g id="xtick_7">
     <g id="line2d_7">
      <g>
       <use xlink:href="#m16307773f7" x="1301.280378" y="320.4" style="stroke: #000000; stroke-width: 0.8"/>
      </g>
     </g>
     <g id="text_7">
      <!-- 2017 -->
      <g transform="translate(1282.192878 338.797656) scale(0.15 -0.15)">
       <defs>
        <path id="DejaVuSans-37" d="M 525 4666 
L 3525 4666 
L 3525 4397 
L 1831 0 
L 1172 0 
L 2766 4134 
L 525 4134 
L 525 4666 
z
" transform="scale(0.015625)"/>
       </defs>
       <use xlink:href="#DejaVuSans-32"/>
       <use xlink:href="#DejaVuSans-30" x="63.623047"/>
       <use xlink:href="#DejaVuSans-31" x="127.246094"/>
       <use xlink:href="#DejaVuSans-37" x="190.869141"/>
      </g>
     </g>
    </g>
    <g id="xtick_8">
     <g id="line2d_8">
      <g>
       <use xlink:href="#m16307773f7" x="1471.022352" y="320.4" style="stroke: #000000; stroke-width: 0.8"/>
      </g>
     </g>
     <g id="text_8">
      <!-- 2018 -->
      <g transform="translate(1451.934852 338.797656) scale(0.15 -0.15)">
       <defs>
        <path id="DejaVuSans-38" d="M 2034 2216 
Q 1584 2216 1326 1975 
Q 1069 1734 1069 1313 
Q 1069 891 1326 650 
Q 1584 409 2034 409 
Q 2484 409 2743 651 
Q 3003 894 3003 1313 
Q 3003 1734 2745 1975 
Q 2488 2216 2034 2216 
z
M 1403 2484 
Q 997 2584 770 2862 
Q 544 3141 544 3541 
Q 544 4100 942 4425 
Q 1341 4750 2034 4750 
Q 2731 4750 3128 4425 
Q 3525 4100 3525 3541 
Q 3525 3141 3298 2862 
Q 3072 2584 2669 2484 
Q 3125 2378 3379 2068 
Q 3634 1759 3634 1313 
Q 3634 634 3220 271 
Q 2806 -91 2034 -91 
Q 1263 -91 848 271 
Q 434 634 434 1313 
Q 434 1759 690 2068 
Q 947 2378 1403 2484 
z
M 1172 3481 
Q 1172 3119 1398 2916 
Q 1625 2713 2034 2713 
Q 2441 2713 2670 2916 
Q 2900 3119 2900 3481 
Q 2900 3844 2670 4047 
Q 2441 4250 2034 4250 
Q 1625 4250 1398 4047 
Q 1172 3844 1172 3481 
z
" transform="scale(0.015625)"/>
       </defs>
       <use xlink:href="#DejaVuSans-32"/>
       <use xlink:href="#DejaVuSans-30" x="63.623047"/>
       <use xlink:href="#DejaVuSans-31" x="127.246094"/>
       <use xlink:href="#DejaVuSans-38" x="190.869141"/>
      </g>
     </g>
    </g>
    <g id="text_9">
     <!-- Time -->
     <g transform="translate(904.149609 357.314844) scale(0.15 -0.15)">
      <defs>
       <path id="DejaVuSans-54" d="M -19 4666 
L 3928 4666 
L 3928 4134 
L 2272 4134 
L 2272 0 
L 1638 0 
L 1638 4134 
L -19 4134 
L -19 4666 
z
" transform="scale(0.015625)"/>
       <path id="DejaVuSans-69" d="M 603 3500 
L 1178 3500 
L 1178 0 
L 603 0 
L 603 3500 
z
M 603 4863 
L 1178 4863 
L 1178 4134 
L 603 4134 
L 603 4863 
z
" transform="scale(0.015625)"/>
       <path id="DejaVuSans-6d" d="M 3328 2828 
Q 3544 3216 3844 3400 
Q 4144 3584 4550 3584 
Q 5097 3584 5394 3201 
Q 5691 2819 5691 2113 
L 5691 0 
L 5113 0 
L 5113 2094 
Q 5113 2597 4934 2840 
Q 4756 3084 4391 3084 
Q 3944 3084 3684 2787 
Q 3425 2491 3425 1978 
L 3425 0 
L 2847 0 
L 2847 2094 
Q 2847 2600 2669 2842 
Q 2491 3084 2119 3084 
Q 1678 3084 1418 2786 
Q 1159 2488 1159 1978 
L 1159 0 
L 581 0 
L 581 3500 
L 1159 3500 
L 1159 2956 
Q 1356 3278 1631 3431 
Q 1906 3584 2284 3584 
Q 2666 3584 2933 3390 
Q 3200 3197 3328 2828 
z
" transform="scale(0.015625)"/>
       <path id="DejaVuSans-65" d="M 3597 1894 
L 3597 1613 
L 953 1613 
Q 991 1019 1311 708 
Q 1631 397 2203 397 
Q 2534 397 2845 478 
Q 3156 559 3463 722 
L 3463 178 
Q 3153 47 2828 -22 
Q 2503 -91 2169 -91 
Q 1331 -91 842 396 
Q 353 884 353 1716 
Q 353 2575 817 3079 
Q 1281 3584 2069 3584 
Q 2775 3584 3186 3129 
Q 3597 2675 3597 1894 
z
M 3022 2063 
Q 3016 2534 2758 2815 
Q 2500 3097 2075 3097 
Q 1594 3097 1305 2825 
Q 1016 2553 972 2059 
L 3022 2063 
z
" transform="scale(0.015625)"/>
      </defs>
      <use xlink:href="#DejaVuSans-54"/>
      <use xlink:href="#DejaVuSans-69" x="57.958984"/>
      <use xlink:href="#DejaVuSans-6d" x="85.742188"/>
      <use xlink:href="#DejaVuSans-65" x="183.154297"/>
     </g>
    </g>
   </g>
   <g id="matplotlib.axis_2">
    <g id="ytick_1">
     <g id="line2d_9">
      <defs>
       <path id="mc7c7e673cc" d="M 0 0 
L -3.5 0 
" style="stroke: #000000; stroke-width: 0.8"/>
      </defs>
      <g>
       <use xlink:href="#mc7c7e673cc" x="225" y="315.657028" style="stroke: #000000; stroke-width: 0.8"/>
      </g>
     </g>
     <g id="text_10">
      <!-- −0.015 -->
      <g transform="translate(162.488281 321.355857) scale(0.15 -0.15)">
       <defs>
        <path id="DejaVuSans-2212" d="M 678 2272 
L 4684 2272 
L 4684 1741 
L 678 1741 
L 678 2272 
z
" transform="scale(0.015625)"/>
        <path id="DejaVuSans-2e" d="M 684 794 
L 1344 794 
L 1344 0 
L 684 0 
L 684 794 
z
" transform="scale(0.015625)"/>
       </defs>
       <use xlink:href="#DejaVuSans-2212"/>
       <use xlink:href="#DejaVuSans-30" x="83.789062"/>
       <use xlink:href="#DejaVuSans-2e" x="147.412109"/>
       <use xlink:href="#DejaVuSans-30" x="179.199219"/>
       <use xlink:href="#DejaVuSans-31" x="242.822266"/>
       <use xlink:href="#DejaVuSans-35" x="306.445312"/>
      </g>
     </g>
    </g>
    <g id="ytick_2">
     <g id="line2d_10">
      <g>
       <use xlink:href="#mc7c7e673cc" x="225" y="270.492564" style="stroke: #000000; stroke-width: 0.8"/>
      </g>
     </g>
     <g id="text_11">
      <!-- −0.010 -->
      <g transform="translate(162.488281 276.191393) scale(0.15 -0.15)">
       <use xlink:href="#DejaVuSans-2212"/>
       <use xlink:href="#DejaVuSans-30" x="83.789062"/>
       <use xlink:href="#DejaVuSans-2e" x="147.412109"/>
       <use xlink:href="#DejaVuSans-30" x="179.199219"/>
       <use xlink:href="#DejaVuSans-31" x="242.822266"/>
       <use xlink:href="#DejaVuSans-30" x="306.445312"/>
      </g>
     </g>
    </g>
    <g id="ytick_3">
     <g id="line2d_11">
      <g>
       <use xlink:href="#mc7c7e673cc" x="225" y="225.328101" style="stroke: #000000; stroke-width: 0.8"/>
      </g>
     </g>
     <g id="text_12">
      <!-- −0.005 -->
      <g transform="translate(162.488281 231.026929) scale(0.15 -0.15)">
       <use xlink:href="#DejaVuSans-2212"/>
       <use xlink:href="#DejaVuSans-30" x="83.789062"/>
       <use xlink:href="#DejaVuSans-2e" x="147.412109"/>
       <use xlink:href="#DejaVuSans-30" x="179.199219"/>
       <use xlink:href="#DejaVuSans-30" x="242.822266"/>
       <use xlink:href="#DejaVuSans-35" x="306.445312"/>
      </g>
     </g>
    </g>
    <g id="ytick_4">
     <g id="line2d_12">
      <g>
       <use xlink:href="#mc7c7e673cc" x="225" y="180.163637" style="stroke: #000000; stroke-width: 0.8"/>
      </g>
     </g>
     <g id="text_13">
      <!-- 0.000 -->
      <g transform="translate(175.057813 185.862465) scale(0.15 -0.15)">
       <use xlink:href="#DejaVuSans-30"/>
       <use xlink:href="#DejaVuSans-2e" x="63.623047"/>
       <use xlink:href="#DejaVuSans-30" x="95.410156"/>
       <use xlink:href="#DejaVuSans-30" x="159.033203"/>
       <use xlink:href="#DejaVuSans-30" x="222.65625"/>
      </g>
     </g>
    </g>
    <g id="ytick_5">
     <g id="line2d_13">
      <g>
       <use xlink:href="#mc7c7e673cc" x="225" y="134.999173" style="stroke: #000000; stroke-width: 0.8"/>
      </g>
     </g>
     <g id="text_14">
      <!-- 0.005 -->
      <g transform="translate(175.057813 140.698001) scale(0.15 -0.15)">
       <use xlink:href="#DejaVuSans-30"/>
       <use xlink:href="#DejaVuSans-2e" x="63.623047"/>
       <use xlink:href="#DejaVuSans-30" x="95.410156"/>
       <use xlink:href="#DejaVuSans-30" x="159.033203"/>
       <use xlink:href="#DejaVuSans-35" x="222.65625"/>
      </g>
     </g>
    </g>
    <g id="ytick_6">
     <g id="line2d_14">
      <g>
       <use xlink:href="#mc7c7e673cc" x="225" y="89.834709" style="stroke: #000000; stroke-width: 0.8"/>
      </g>
     </g>
     <g id="text_15">
      <!-- 0.010 -->
      <g transform="translate(175.057813 95.533537) scale(0.15 -0.15)">
       <use xlink:href="#DejaVuSans-30"/>
       <use xlink:href="#DejaVuSans-2e" x="63.623047"/>
       <use xlink:href="#DejaVuSans-30" x="95.410156"/>
       <use xlink:href="#DejaVuSans-31" x="159.033203"/>
       <use xlink:href="#DejaVuSans-30" x="222.65625"/>
      </g>
     </g>
    </g>
    <g id="ytick_7">
     <g id="line2d_15">
      <g>
       <use xlink:href="#mc7c7e673cc" x="225" y="44.670245" style="stroke: #000000; stroke-width: 0.8"/>
      </g>
     </g>
     <g id="text_16">
      <!-- 0.015 -->
      <g transform="translate(175.057813 50.369073) scale(0.15 -0.15)">
       <use xlink:href="#DejaVuSans-30"/>
       <use xlink:href="#DejaVuSans-2e" x="63.623047"/>
       <use xlink:href="#DejaVuSans-30" x="95.410156"/>
       <use xlink:href="#DejaVuSans-31" x="159.033203"/>
       <use xlink:href="#DejaVuSans-35" x="222.65625"/>
      </g>
     </g>
    </g>
    <g id="text_17">
     <!-- East(m) -->
     <g transform="translate(155.36875 211.140234) rotate(-90) scale(0.15 -0.15)">
      <defs>
       <path id="DejaVuSans-45" d="M 628 4666 
L 3578 4666 
L 3578 4134 
L 1259 4134 
L 1259 2753 
L 3481 2753 
L 3481 2222 
L 1259 2222 
L 1259 531 
L 3634 531 
L 3634 0 
L 628 0 
L 628 4666 
z
" transform="scale(0.015625)"/>
       <path id="DejaVuSans-61" d="M 2194 1759 
Q 1497 1759 1228 1600 
Q 959 1441 959 1056 
Q 959 750 1161 570 
Q 1363 391 1709 391 
Q 2188 391 2477 730 
Q 2766 1069 2766 1631 
L 2766 1759 
L 2194 1759 
z
M 3341 1997 
L 3341 0 
L 2766 0 
L 2766 531 
Q 2569 213 2275 61 
Q 1981 -91 1556 -91 
Q 1019 -91 701 211 
Q 384 513 384 1019 
Q 384 1609 779 1909 
Q 1175 2209 1959 2209 
L 2766 2209 
L 2766 2266 
Q 2766 2663 2505 2880 
Q 2244 3097 1772 3097 
Q 1472 3097 1187 3025 
Q 903 2953 641 2809 
L 641 3341 
Q 956 3463 1253 3523 
Q 1550 3584 1831 3584 
Q 2591 3584 2966 3190 
Q 3341 2797 3341 1997 
z
" transform="scale(0.015625)"/>
       <path id="DejaVuSans-73" d="M 2834 3397 
L 2834 2853 
Q 2591 2978 2328 3040 
Q 2066 3103 1784 3103 
Q 1356 3103 1142 2972 
Q 928 2841 928 2578 
Q 928 2378 1081 2264 
Q 1234 2150 1697 2047 
L 1894 2003 
Q 2506 1872 2764 1633 
Q 3022 1394 3022 966 
Q 3022 478 2636 193 
Q 2250 -91 1575 -91 
Q 1294 -91 989 -36 
Q 684 19 347 128 
L 347 722 
Q 666 556 975 473 
Q 1284 391 1588 391 
Q 1994 391 2212 530 
Q 2431 669 2431 922 
Q 2431 1156 2273 1281 
Q 2116 1406 1581 1522 
L 1381 1569 
Q 847 1681 609 1914 
Q 372 2147 372 2553 
Q 372 3047 722 3315 
Q 1072 3584 1716 3584 
Q 2034 3584 2315 3537 
Q 2597 3491 2834 3397 
z
" transform="scale(0.015625)"/>
       <path id="DejaVuSans-74" d="M 1172 4494 
L 1172 3500 
L 2356 3500 
L 2356 3053 
L 1172 3053 
L 1172 1153 
Q 1172 725 1289 603 
Q 1406 481 1766 481 
L 2356 481 
L 2356 0 
L 1766 0 
Q 1100 0 847 248 
Q 594 497 594 1153 
L 594 3053 
L 172 3053 
L 172 3500 
L 594 3500 
L 594 4494 
L 1172 4494 
z
" transform="scale(0.015625)"/>
       <path id="DejaVuSans-28" d="M 1984 4856 
Q 1566 4138 1362 3434 
Q 1159 2731 1159 2009 
Q 1159 1288 1364 580 
Q 1569 -128 1984 -844 
L 1484 -844 
Q 1016 -109 783 600 
Q 550 1309 550 2009 
Q 550 2706 781 3412 
Q 1013 4119 1484 4856 
L 1984 4856 
z
" transform="scale(0.015625)"/>
       <path id="DejaVuSans-29" d="M 513 4856 
L 1013 4856 
Q 1481 4119 1714 3412 
Q 1947 2706 1947 2009 
Q 1947 1309 1714 600 
Q 1481 -109 1013 -844 
L 513 -844 
Q 928 -128 1133 580 
Q 1338 1288 1338 2009 
Q 1338 2731 1133 3434 
Q 928 4138 513 4856 
z
" transform="scale(0.015625)"/>
      </defs>
      <use xlink:href="#DejaVuSans-45"/>
      <use xlink:href="#DejaVuSans-61" x="63.183594"/>
      <use xlink:href="#DejaVuSans-73" x="124.462891"/>
      <use xlink:href="#DejaVuSans-74" x="176.5625"/>
      <use xlink:href="#DejaVuSans-28" x="215.771484"/>
      <use xlink:href="#DejaVuSans-6d" x="254.785156"/>
      <use xlink:href="#DejaVuSans-29" x="352.197266"/>
     </g>
    </g>
   </g>
   <g id="line2d_16">
    <path d="M 288.409091 149.923255 
L 288.874137 145.997271 
L 289.339184 150.607372 
L 289.80423 151.057825 
L 290.269277 148.615946 
L 290.734323 149.135953 
L 291.19937 148.384386 
L 296.314881 148.382003 
L 296.779928 148.036371 
L 297.244974 144.553743 
L 297.710021 142.329269 
L 298.175068 140.980985 
L 298.640114 138.408099 
L 299.105161 136.768182 
L 300.035254 135.227825 
L 300.965347 131.596998 
L 301.430393 131.48235 
L 301.89544 131.909675 
L 302.360486 133.340941 
L 302.825533 132.822393 
L 303.290579 129.841737 
L 303.755626 129.900003 
L 304.220672 132.186814 
L 304.685719 133.341932 
L 305.615812 128.202612 
L 306.080858 126.401393 
L 306.545905 128.315274 
L 307.010951 126.512765 
L 307.941044 117.707381 
L 308.406091 116.089401 
L 309.336184 110.333264 
L 309.80123 107.355188 
L 310.266277 107.730897 
L 310.731323 109.695104 
L 311.19637 112.24903 
L 311.661416 116.881811 
L 313.521602 123.706309 
L 314.451695 121.417512 
L 314.916742 114.801762 
L 315.846835 107.164202 
L 316.311881 101.651754 
L 316.776928 98.667227 
L 317.241974 97.511215 
L 317.707021 97.822402 
L 318.172067 101.813849 
L 318.637114 102.794761 
L 319.567207 108.758157 
L 320.032253 111.204978 
L 320.4973 112.890456 
L 320.962346 113.743618 
L 321.427393 114.001898 
L 321.892439 115.051202 
L 322.357486 113.033194 
L 322.822532 112.264306 
L 323.287579 110.141774 
L 323.752625 106.206212 
L 324.217672 101.118311 
L 324.682718 98.517036 
L 325.147765 99.984434 
L 326.077858 106.075581 
L 326.542904 108.228188 
L 327.938044 112.219634 
L 328.40309 117.577628 
L 328.868137 119.501833 
L 331.658416 118.566481 
L 332.123462 114.747056 
L 332.588509 113.313605 
L 333.053555 110.312302 
L 333.518602 108.975632 
L 333.983648 105.743345 
L 334.448695 104.51636 
L 335.378788 111.162384 
L 335.843834 110.224452 
L 336.308881 109.916241 
L 337.238974 106.902232 
L 337.70402 107.15148 
L 338.169067 101.690649 
L 338.634113 99.808135 
L 339.09916 101.631687 
L 339.564206 103.937853 
L 340.029253 105.600104 
L 340.494299 105.419644 
L 340.959346 105.453393 
L 341.424392 106.991764 
L 341.889439 106.473216 
L 342.354485 107.455418 
L 342.819532 107.520137 
L 343.284578 108.045533 
L 344.214671 110.977748 
L 344.679718 111.450238 
L 345.144764 112.915055 
L 345.609811 111.320302 
L 346.074857 112.804476 
L 346.539904 113.577631 
L 347.00495 115.384408 
L 347.469997 116.129175 
L 347.935044 117.988858 
L 348.865137 128.174486 
L 349.330183 127.320431 
L 349.79523 126.847047 
L 350.260276 129.237091 
L 350.725323 130.579319 
L 351.190369 135.08693 
L 351.655416 137.606015 
L 352.120462 136.78293 
L 352.585509 139.423313 
L 353.980648 143.074091 
L 354.445695 146.291289 
L 354.910741 146.872173 
L 355.375788 147.109807 
L 355.840834 146.453185 
L 356.305881 149.470369 
L 356.770927 151.122296 
L 357.70102 158.963244 
L 358.166067 164.913537 
L 358.631113 168.288166 
L 359.09616 170.487228 
L 359.561206 171.664283 
L 360.026253 175.96801 
L 360.491299 178.919383 
L 360.956346 183.295372 
L 361.421392 183.104589 
L 363.746625 201.986907 
L 364.211671 202.979433 
L 364.676718 211.338928 
L 365.141764 214.285139 
L 365.606811 215.751247 
L 366.071857 221.349258 
L 366.536904 224.966484 
L 367.00195 224.903452 
L 367.466997 223.429998 
L 367.932043 221.308757 
L 368.39709 220.79279 
L 368.862136 217.061113 
L 369.327183 218.781432 
L 370.257276 210.438016 
L 370.722322 209.70655 
L 371.187369 207.436911 
L 371.652415 205.769895 
L 372.117462 207.941859 
L 372.582508 201.653873 
L 373.047555 203.708409 
L 373.512601 207.688242 
L 374.442694 213.698093 
L 375.372787 225.765143 
L 376.30288 231.820158 
L 376.767927 235.281245 
L 377.232973 235.152402 
L 377.69802 235.228734 
L 378.628113 228.971917 
L 379.093159 231.977487 
L 380.023252 231.202345 
L 380.953345 234.082944 
L 381.418392 235.182574 
L 381.883438 235.267939 
L 382.348485 231.817572 
L 382.813531 229.313078 
L 383.278578 227.784137 
L 383.743624 229.20508 
L 385.138764 224.107252 
L 385.60381 222.681543 
L 386.068857 224.235399 
L 386.533903 220.681799 
L 386.99895 216.000378 
L 387.929043 214.660035 
L 388.394089 216.02678 
L 388.859136 219.043965 
L 389.324182 216.558827 
L 389.789229 221.369686 
L 390.254275 221.133738 
L 390.719322 218.24212 
L 391.184368 218.349422 
L 391.649415 218.799975 
L 392.114461 211.497724 
L 392.579508 210.838521 
L 393.044554 205.520926 
L 393.509601 207.645145 
L 393.974647 208.502177 
L 394.439694 206.099626 
L 394.90474 202.662163 
L 395.369787 204.987686 
L 395.834833 204.848519 
L 396.29988 202.882128 
L 396.764926 201.608688 
L 397.229973 201.256603 
L 398.160066 203.179715 
L 398.625113 204.938747 
L 399.090159 203.403353 
L 399.555206 205.384336 
L 400.020252 203.136634 
L 400.485299 203.887852 
L 400.950345 202.988632 
L 401.415392 202.501054 
L 402.345485 202.045737 
L 403.740624 208.765513 
L 404.670717 207.847135 
L 405.135764 209.810052 
L 405.60081 211.045175 
L 406.065857 210.600181 
L 406.99595 205.135677 
L 407.460996 205.010705 
L 407.926043 207.2188 
L 408.391089 204.762051 
L 408.856136 203.829281 
L 409.321182 205.589603 
L 409.786229 211.668937 
L 410.251275 214.177699 
L 410.716322 214.433399 
L 411.181368 212.838646 
L 411.646415 213.04273 
L 412.111461 213.850727 
L 412.576508 213.612198 
L 413.041554 207.140974 
L 413.506601 205.144903 
L 413.971647 205.946447 
L 414.436694 207.246092 
L 414.90174 207.232095 
L 415.366787 203.453963 
L 415.831833 201.699199 
L 416.29688 204.180862 
L 416.761926 203.090661 
L 417.226973 202.538562 
L 417.692019 198.199101 
L 418.157066 196.619833 
L 418.622112 196.747782 
L 419.552205 194.536212 
L 420.017252 189.35411 
L 420.482298 186.528304 
L 420.947345 180.769387 
L 421.412391 180.448273 
L 422.342484 177.533625 
L 422.807531 177.560922 
L 423.272577 180.409062 
L 423.737624 181.388684 
L 424.20267 182.968348 
L 424.667717 182.769822 
L 425.59781 177.15305 
L 426.527903 168.693497 
L 426.992949 168.159464 
L 427.923042 170.171614 
L 428.388089 171.609333 
L 429.318182 178.195998 
L 429.783228 180.876385 
L 430.248275 181.535984 
L 430.713321 180.657411 
L 431.178368 180.449852 
L 431.643414 182.713435 
L 432.108461 182.989782 
L 432.573507 183.430011 
L 433.038554 182.813392 
L 436.758926 181.112825 
L 437.689019 178.374964 
L 438.154065 177.964811 
L 438.619112 176.060359 
L 439.549205 175.10049 
L 440.014251 175.921391 
L 440.479298 174.664726 
L 440.944344 174.673957 
L 441.874437 165.57694 
L 442.339484 162.877594 
L 442.80453 159.46852 
L 443.269577 157.564068 
L 443.734623 158.427553 
L 444.19967 157.777383 
L 444.664716 162.193375 
L 445.594809 164.684269 
L 446.059856 166.128439 
L 446.524902 165.276965 
L 446.989949 163.501554 
L 448.385089 161.829377 
L 448.850135 160.225591 
L 449.315182 160.354831 
L 449.780228 160.786027 
L 451.640414 167.458256 
L 452.570507 165.2985 
L 453.035554 167.155603 
L 453.5006 168.437182 
L 453.965647 168.408991 
L 454.430693 168.050454 
L 454.89574 166.367953 
L 455.825833 165.181169 
L 456.290879 165.444612 
L 456.755926 164.234402 
L 457.686019 169.524202 
L 458.616112 172.798377 
L 459.081158 169.56609 
L 459.546205 165.342766 
L 460.011251 163.892539 
L 460.476298 163.201076 
L 460.941344 159.029368 
L 461.406391 161.335534 
L 461.871437 162.206762 
L 462.336484 166.208531 
L 462.80153 166.677149 
L 463.266577 164.013934 
L 463.731623 159.046042 
L 464.19667 157.524842 
L 464.661716 151.937551 
L 465.126763 148.227811 
L 465.591809 145.714284 
L 466.056856 145.009917 
L 466.521902 144.031982 
L 466.986949 141.693951 
L 467.451995 142.701962 
L 467.917042 142.851848 
L 468.382088 141.481627 
L 468.847135 142.110257 
L 469.312181 141.164582 
L 470.242274 143.907106 
L 470.707321 144.222165 
L 472.567507 154.683048 
L 473.032553 154.60453 
L 473.4976 156.007408 
L 473.962646 154.548148 
L 474.427693 150.429348 
L 474.892739 147.522245 
L 475.822832 140.076956 
L 476.752925 140.292653 
L 477.217972 139.700552 
L 478.148065 138.10709 
L 478.613111 138.887988 
L 479.078158 140.080528 
L 479.543204 139.848452 
L 480.008251 141.19326 
L 480.473297 141.188297 
L 480.938344 137.928911 
L 481.40339 138.425918 
L 481.868437 136.855683 
L 482.333483 136.346168 
L 483.263576 134.734838 
L 483.728623 130.212138 
L 484.658716 140.59778 
L 485.123762 142.844588 
L 486.053855 145.60498 
L 486.518902 145.469685 
L 486.983948 142.936802 
L 487.448995 148.088329 
L 487.914041 145.026377 
L 488.379088 137.894461 
L 489.309181 130.027208 
L 489.774227 128.669891 
L 490.239274 129.089473 
L 490.70432 124.694524 
L 491.169367 124.397927 
L 491.634413 126.220189 
L 492.564506 130.965434 
L 493.029553 132.283144 
L 493.494599 134.994501 
L 493.959646 135.944443 
L 494.424692 134.638743 
L 494.889739 132.640091 
L 495.354785 129.565234 
L 495.819832 125.238677 
L 496.284878 123.738124 
L 496.749925 120.495514 
L 497.214971 121.42481 
L 497.680018 120.982396 
L 498.145065 120.936139 
L 498.610111 119.78787 
L 499.075158 120.410047 
L 500.005251 120.708529 
L 500.470297 120.076424 
L 500.935344 119.832734 
L 501.40039 118.963194 
L 501.865437 120.908045 
L 502.330483 119.717191 
L 502.79553 117.670794 
L 503.260576 117.334194 
L 503.725623 116.615632 
L 504.190669 114.751183 
L 504.655716 113.380963 
L 505.120762 112.547554 
L 506.050855 114.505507 
L 506.515902 114.319886 
L 506.980948 111.65538 
L 507.445995 111.610414 
L 507.911041 109.875006 
L 508.841134 110.377373 
L 509.306181 111.004712 
L 509.771227 109.831925 
L 510.236274 110.175373 
L 510.70132 111.010468 
L 511.166367 113.155333 
L 511.631413 113.520718 
L 512.09646 115.651389 
L 512.561506 116.077423 
L 513.491599 121.143982 
L 513.956646 122.083601 
L 514.421692 126.384746 
L 514.886739 127.124351 
L 515.351785 126.747749 
L 515.816832 126.16339 
L 516.281878 126.553293 
L 516.746925 124.561093 
L 517.211971 123.361206 
L 518.142064 122.045381 
L 518.607111 122.249465 
L 519.072157 123.367161 
L 519.537204 125.341691 
L 520.467297 135.067932 
L 520.932343 135.051355 
L 521.39739 137.771744 
L 521.862436 137.970666 
L 522.327483 139.33225 
L 522.792529 138.529811 
L 523.257576 136.671814 
L 523.722622 136.704272 
L 524.187669 139.850498 
L 524.652715 140.526873 
L 525.117762 143.007245 
L 525.582808 143.58942 
L 526.047855 143.68898 
L 526.512901 144.562788 
L 526.977948 146.506348 
L 527.442994 143.295998 
L 527.908041 143.751712 
L 528.373087 143.573833 
L 529.768227 150.165858 
L 530.233273 151.888758 
L 530.69832 154.778192 
L 531.628413 155.570902 
L 532.093459 152.51153 
L 532.558506 151.902653 
L 533.023552 152.506764 
L 533.488599 151.277199 
L 534.418692 157.201882 
L 535.348785 158.296351 
L 535.813831 163.082692 
L 536.743924 169.589352 
L 537.208971 169.619229 
L 537.674017 169.791052 
L 538.139064 167.713685 
L 538.60411 168.591364 
L 539.069157 168.341222 
L 539.534203 169.178899 
L 539.99925 161.635341 
L 540.464296 160.900003 
L 540.929343 159.953038 
L 541.394389 161.55851 
L 542.324482 167.794183 
L 542.789529 167.13498 
L 543.254575 177.915291 
L 543.719622 176.074069 
L 544.184668 180.602328 
L 544.649715 181.206439 
L 545.114761 181.342131 
L 546.509901 176.143254 
L 546.974947 176.693168 
L 547.439994 174.814524 
L 547.905041 182.412676 
L 548.370087 181.633464 
L 548.835134 182.331776 
L 549.30018 183.510121 
L 549.765227 187.802234 
L 550.230273 188.589584 
L 550.69532 188.877544 
L 551.160366 185.365238 
L 551.625413 180.530257 
L 552.090459 180.006548 
L 552.555506 173.327567 
L 553.020552 171.318591 
L 553.485599 168.397294 
L 553.950645 166.412837 
L 554.415692 167.401491 
L 554.880738 169.711529 
L 555.345785 170.975042 
L 555.810831 175.47104 
L 556.275878 175.960304 
L 556.740924 178.861352 
L 557.671017 176.460289 
L 559.531203 173.550605 
L 559.99625 174.838636 
L 560.461296 171.45537 
L 560.926343 174.788706 
L 562.786529 177.447551 
L 563.251575 179.904696 
L 563.716622 176.699508 
L 564.181668 176.631314 
L 564.646715 171.041442 
L 565.111761 167.627207 
L 565.576808 166.507326 
L 566.041854 164.337049 
L 566.506901 163.683008 
L 566.971947 163.25737 
L 567.90204 171.679003 
L 568.367087 174.106468 
L 568.832133 178.261797 
L 569.29718 181.007994 
L 569.762226 181.732114 
L 570.227273 184.506701 
L 570.692319 184.074611 
L 571.157366 184.033516 
L 571.622412 184.342123 
L 572.087459 182.255722 
L 572.552505 181.084225 
L 573.017552 180.689557 
L 573.947645 179.058871 
L 574.412691 177.287332 
L 574.877738 176.919762 
L 575.342784 176.074739 
L 575.807831 176.374313 
L 576.737924 174.819762 
L 577.20297 175.022555 
L 577.668017 176.781586 
L 578.133063 177.014059 
L 578.59811 176.156132 
L 579.063156 175.995028 
L 579.528203 177.525657 
L 579.993249 178.303974 
L 580.458296 178.146742 
L 580.923342 177.090091 
L 581.388389 176.43605 
L 581.853435 178.823513 
L 582.318482 179.578602 
L 582.783528 180.7634 
L 583.248575 181.517199 
L 583.713621 180.817994 
L 584.178668 181.357584 
L 584.643714 181.046793 
L 585.108761 179.583662 
L 585.573807 173.543436 
L 586.038854 170.855703 
L 586.5039 169.055775 
L 586.968947 169.347607 
L 587.433993 166.252103 
L 587.89904 166.794275 
L 588.364086 166.446062 
L 588.829133 172.406679 
L 589.759226 177.127406 
L 590.224272 179.086452 
L 590.689319 183.581159 
L 591.154365 183.762015 
L 591.619412 186.066892 
L 592.084458 187.281369 
L 592.549505 185.850498 
L 593.014551 183.730548 
L 593.479598 179.993709 
L 593.944644 179.570651 
L 594.409691 179.863773 
L 594.874737 176.658585 
L 595.339784 177.643368 
L 596.734923 185.850991 
L 597.19997 186.160888 
L 597.665017 183.616392 
L 598.130063 187.081349 
L 598.59511 185.431109 
L 599.525203 184.57209 
L 599.990249 185.057483 
L 600.455296 184.880895 
L 600.920342 187.753553 
L 601.385389 185.476172 
L 601.850435 184.464686 
L 602.780528 181.184653 
L 603.245575 177.486527 
L 603.710621 177.15896 
L 604.175668 177.2882 
L 604.640714 176.830301 
L 605.105761 177.944126 
L 605.570807 175.544155 
L 606.035854 177.757412 
L 606.5009 181.712727 
L 606.965947 181.66389 
L 607.430993 182.51576 
L 607.89604 183.912186 
L 608.361086 186.699676 
L 608.826133 193.875863 
L 609.291179 194.477393 
L 609.756226 193.871097 
L 610.221272 194.347458 
L 610.686319 194.263779 
L 611.151365 192.963241 
L 611.616412 192.163383 
L 612.081458 189.185307 
L 612.546505 188.185435 
L 613.011551 186.194525 
L 613.476598 185.549517 
L 613.941644 181.884941 
L 614.406691 180.402455 
L 614.871737 176.892729 
L 615.336784 176.05932 
L 615.80183 175.469799 
L 616.266877 176.066168 
L 616.731923 176.127016 
L 617.19697 176.825327 
L 617.662016 176.513245 
L 618.127063 178.84393 
L 618.592109 177.192399 
L 619.057156 176.746114 
L 619.522202 179.223906 
L 619.987249 180.425479 
L 620.917342 180.960106 
L 621.382388 178.996295 
L 621.847435 179.831391 
L 622.312481 178.028881 
L 622.777528 177.025138 
L 623.707621 171.45353 
L 624.172667 173.213852 
L 624.637714 171.773949 
L 625.10276 168.8191 
L 625.567807 171.964036 
L 626.032853 173.321749 
L 626.4979 175.062714 
L 626.962946 176.319775 
L 627.427993 174.328865 
L 627.893039 175.083955 
L 628.358086 176.995255 
L 629.753225 171.098661 
L 630.218272 172.775106 
L 630.683318 173.549552 
L 631.148365 175.887979 
L 631.613411 176.951478 
L 632.078458 178.667925 
L 632.543504 178.029369 
L 633.008551 178.78833 
L 633.473597 178.884019 
L 633.938644 178.4558 
L 634.40369 179.391547 
L 634.868737 179.242058 
L 635.333783 181.651457 
L 635.79883 185.213196 
L 636.263876 190.656357 
L 636.728923 191.57662 
L 637.193969 194.507347 
L 637.659016 192.373201 
L 638.124062 192.711488 
L 638.589109 190.434106 
L 639.054155 187.492162 
L 639.519202 181.939712 
L 639.984248 178.375789 
L 640.914341 170.456919 
L 642.309481 160.425841 
L 642.774527 157.398729 
L 643.239574 158.629982 
L 643.70462 158.788901 
L 644.169667 160.842146 
L 645.09976 162.993662 
L 645.564806 161.586019 
L 646.029853 164.714179 
L 646.494899 164.293702 
L 646.959946 163.055103 
L 647.424992 162.379125 
L 647.890039 163.803939 
L 648.355086 165.675237 
L 648.820132 165.609624 
L 649.285179 163.896153 
L 649.750225 164.164757 
L 650.215272 163.801059 
L 650.680318 164.714869 
L 651.145365 161.63098 
L 651.610411 152.536345 
L 652.075458 151.899079 
L 652.540504 148.980363 
L 653.005551 147.612723 
L 653.470597 146.846415 
L 653.935644 143.523799 
L 654.40069 142.642645 
L 654.865737 148.754241 
L 655.79583 151.402565 
L 656.260876 149.122603 
L 656.725923 148.709869 
L 657.190969 147.818391 
L 657.656016 148.459925 
L 658.121062 150.008619 
L 658.586109 148.736469 
L 659.051155 146.397148 
L 659.516202 148.178117 
L 659.981248 146.136881 
L 660.911341 148.76843 
L 661.376388 146.380073 
L 662.306481 151.880211 
L 662.771527 149.881559 
L 663.236574 152.142561 
L 663.70162 151.285925 
L 664.166667 149.476963 
L 664.631713 148.50419 
L 665.09676 146.127447 
L 665.561806 142.015098 
L 666.026853 141.461709 
L 666.491899 140.47216 
L 667.421992 139.195047 
L 667.887039 139.281703 
L 668.352085 140.021308 
L 668.817132 141.398377 
L 669.282178 141.365024 
L 669.747225 138.878596 
L 670.212271 137.356106 
L 670.677318 136.340749 
L 671.142364 136.655808 
L 671.607411 134.73071 
L 672.072457 134.632837 
L 672.537504 132.145118 
L 673.467597 139.727982 
L 674.39769 141.244614 
L 674.862736 142.426831 
L 675.792829 145.672617 
L 676.257876 141.955134 
L 677.653015 147.778073 
L 678.583108 152.608486 
L 679.513201 162.28053 
L 679.978248 162.118136 
L 680.443294 163.599728 
L 680.908341 163.587022 
L 681.373387 162.14841 
L 681.838434 161.201444 
L 682.30348 162.313979 
L 683.233573 170.987243 
L 683.69862 171.315206 
L 684.163666 171.249593 
L 684.628713 168.31281 
L 685.093759 169.199522 
L 685.558806 169.465546 
L 686.023852 167.473346 
L 686.488899 164.406231 
L 686.953945 166.464639 
L 687.418992 171.874249 
L 687.884038 180.867337 
L 688.814131 186.992035 
L 690.209271 198.20503 
L 690.674317 197.922628 
L 691.139364 200.050717 
L 691.60441 205.440972 
L 693.464596 206.750939 
L 693.929643 208.254469 
L 694.394689 210.281906 
L 694.859736 209.562054 
L 695.324782 211.95984 
L 695.789829 211.503231 
L 696.254875 211.383421 
L 697.184968 214.842125 
L 697.650015 217.095384 
L 698.115062 218.077587 
L 698.580108 217.597751 
L 699.045155 221.922124 
L 699.510201 223.509531 
L 699.975248 227.07127 
L 700.440294 228.438015 
L 700.905341 227.880755 
L 701.370387 232.208999 
L 701.835434 238.130904 
L 702.765527 243.442641 
L 703.230573 246.63145 
L 703.69562 251.253909 
L 704.160666 258.116524 
L 705.090759 262.594655 
L 705.555806 267.661015 
L 706.950945 274.300786 
L 707.415992 275.895935 
L 707.881038 279.613813 
L 708.346085 281.754807 
L 708.811131 280.762677 
L 709.276178 282.578487 
L 709.741224 282.556748 
L 710.671317 288.784679 
L 711.136364 290.665009 
L 711.60141 293.651223 
L 712.066457 299.334402 
L 712.531503 301.216022 
L 712.99655 304.384185 
L 713.926643 304.221451 
L 714.391689 303.987743 
L 714.856736 305.907736 
L 715.321782 303.587431 
L 716.251875 301.727463 
L 716.716922 302.112814 
L 717.181968 303.081431 
L 717.647015 301.669577 
L 718.112061 302.900489 
L 718.577108 301.840917 
L 719.507201 305.285086 
L 719.972247 306.642799 
L 720.437294 304.931909 
L 720.90234 304.099791 
L 721.367387 305.648485 
L 721.832433 306.248725 
L 722.29748 307.8 
L 722.762526 302.148188 
L 723.227573 299.019134 
L 723.692619 298.910937 
L 724.157666 299.689255 
L 724.622712 297.408002 
L 725.087759 296.306187 
L 725.552805 291.765421 
L 726.017852 293.177332 
L 726.482898 295.767389 
L 726.947945 296.170196 
L 727.412991 295.947153 
L 727.878038 293.551054 
L 728.343084 293.262199 
L 728.808131 294.054711 
L 729.273177 293.039354 
L 729.738224 287.076552 
L 730.20327 286.462514 
L 730.668317 289.425501 
L 731.133363 289.019219 
L 732.063456 286.259421 
L 732.528503 286.940957 
L 732.993549 289.541338 
L 733.458596 287.604626 
L 733.923642 287.471911 
L 734.388689 290.792343 
L 734.853735 290.364124 
L 735.318782 289.689436 
L 735.783828 288.684402 
L 736.248875 288.100043 
L 736.713921 285.896215 
L 737.178968 280.998005 
L 737.644014 274.272569 
L 738.109061 269.465978 
L 738.574107 269.504888 
L 739.039154 267.26751 
L 739.5042 269.489799 
L 739.969247 269.772598 
L 740.434293 268.957255 
L 740.89934 272.124127 
L 741.364386 276.620125 
L 741.829433 275.384107 
L 742.294479 277.283794 
L 742.759526 276.354894 
L 769.267177 266.563437 
L 770.662316 233.575907 
L 771.127363 223.936718 
L 772.057456 200.185768 
L 772.522502 199.197509 
L 772.987549 203.487041 
L 773.452595 209.491532 
L 773.917642 209.907243 
L 774.382688 215.167166 
L 774.847735 218.886335 
L 775.312781 220.935709 
L 775.777828 225.265244 
L 776.242874 224.545391 
L 776.707921 221.165997 
L 777.172967 220.189353 
L 777.638014 216.780279 
L 778.10306 218.366395 
L 778.568107 218.505958 
L 779.033153 218.244202 
L 779.4982 223.680911 
L 780.428293 223.892935 
L 780.893339 223.125337 
L 781.358386 222.677762 
L 781.823432 219.682911 
L 782.288479 218.272687 
L 783.683618 211.825981 
L 784.613711 209.112638 
L 785.543804 202.085444 
L 786.008851 201.926921 
L 786.473897 200.796717 
L 787.40399 199.200872 
L 787.869037 197.722257 
L 788.334083 199.023191 
L 788.79913 197.223263 
L 793.914641 194.75232 
L 794.379688 187.811385 
L 795.309781 180.397067 
L 795.774827 181.157318 
L 796.239874 178.403774 
L 796.70492 178.970464 
L 797.169967 176.925357 
L 797.635014 180.160621 
L 798.10006 180.698922 
L 798.565107 178.665429 
L 799.030153 178.438514 
L 799.4952 175.834658 
L 799.960246 168.47563 
L 800.890339 163.014997 
L 801.820432 163.99978 
L 802.285479 165.460726 
L 802.750525 165.606741 
L 803.680618 169.711744 
L 804.145665 174.520022 
L 804.610711 175.035095 
L 805.075758 173.737137 
L 805.540804 180.989458 
L 814.376688 187.143637 
L 815.306781 205.098843 
L 818.562106 226.824098 
L 819.492199 225.467391 
L 825.072757 246.741129 
L 825.537804 245.373276 
L 826.00285 239.12637 
L 826.932943 211.067593 
L 827.39799 186.728144 
L 827.863036 185.23322 
L 828.328083 163.141543 
L 828.793129 152.355177 
L 829.258176 148.900939 
L 829.723222 147.166822 
L 830.653315 142.849495 
L 831.118362 141.419915 
L 831.583408 142.017575 
L 832.048455 142.003579 
L 832.513501 138.913237 
L 832.978548 137.270739 
L 833.443594 139.486577 
L 833.908641 139.941 
L 834.838734 142.316849 
L 835.30378 141.096316 
L 835.768827 138.196956 
L 836.233873 137.908101 
L 836.69892 138.890304 
L 837.163966 135.068298 
L 837.629013 132.403793 
L 838.559106 130.624709 
L 839.024152 132.597949 
L 839.489199 137.708184 
L 839.954245 135.722436 
L 840.884338 141.319355 
L 841.349385 143.034512 
L 841.814431 141.164901 
L 842.279478 141.336724 
L 842.744524 135.851376 
L 843.209571 136.322575 
L 844.139664 131.223258 
L 844.60471 127.935483 
L 845.069757 129.435141 
L 845.534803 126.573203 
L 845.99985 127.728321 
L 846.464896 128.453731 
L 846.929943 128.846215 
L 847.394989 131.316264 
L 847.860036 132.046836 
L 848.325083 134.507852 
L 849.255176 141.411959 
L 849.720222 141.810895 
L 850.185269 146.513359 
L 850.650315 147.420718 
L 851.115362 149.684301 
L 851.580408 149.964519 
L 852.045455 152.985574 
L 852.510501 152.297982 
L 852.975548 155.152574 
L 853.440594 155.092123 
L 853.905641 158.353195 
L 854.370687 159.214099 
L 854.835734 158.447792 
L 855.30078 154.410287 
L 856.230873 155.092021 
L 856.69592 157.128492 
L 857.626013 157.780348 
L 858.091059 159.504539 
L 858.556106 162.306224 
L 861.811431 168.370074 
L 862.276478 171.158855 
L 862.741524 167.449115 
L 863.206571 167.364146 
L 863.671617 168.591527 
L 864.136664 168.493654 
L 864.60171 170.572708 
L 865.066757 173.352456 
L 865.531803 178.77368 
L 865.99685 186.570555 
L 866.461896 190.498771 
L 866.926943 195.407701 
L 867.857036 211.605365 
L 868.322082 212.121728 
L 868.787129 213.685907 
L 869.252175 219.314888 
L 870.182268 227.497795 
L 870.647315 232.858369 
L 871.112361 234.023811 
L 872.042454 242.639006 
L 872.507501 246.007183 
L 872.972547 250.971601 
L 873.437594 253.746187 
L 873.90264 253.237963 
L 874.367687 254.314365 
L 874.832733 259.192326 
L 875.29778 261.652051 
L 875.762826 262.924597 
L 876.227873 260.959496 
L 876.692919 260.397074 
L 877.157966 264.849197 
L 877.623012 266.906314 
L 879.948245 269.093763 
L 880.413291 272.876162 
L 880.878338 274.388725 
L 881.343384 280.391925 
L 881.808431 281.180566 
L 882.273477 279.881318 
L 882.738524 285.32835 
L 883.20357 282.845793 
L 883.668617 284.554499 
L 884.59871 287.334247 
L 885.063756 285.333014 
L 885.528803 290.092256 
L 885.993849 291.418999 
L 886.458896 288.557061 
L 886.923942 291.966531 
L 887.388989 288.547134 
L 887.854035 288.802834 
L 888.319082 290.698649 
L 888.784128 289.916857 
L 889.249175 290.688722 
L 889.714221 288.130031 
L 891.109361 287.691148 
L 903.665617 286.695756 
L 904.130663 284.15445 
L 904.59571 283.454564 
L 905.990849 279.377665 
L 906.455896 275.832418 
L 906.920942 275.040912 
L 907.385989 270.101067 
L 907.851035 270.9581 
L 908.316082 268.49877 
L 908.781128 267.737625 
L 909.246175 268.303024 
L 909.711221 268.338063 
L 910.176268 268.081469 
L 910.641314 269.254653 
L 911.106361 265.061008 
L 911.571407 265.818678 
L 912.036454 263.929712 
L 912.966547 259.043313 
L 913.431593 258.535088 
L 913.89664 257.64232 
L 914.361686 258.815504 
L 914.826733 258.957648 
L 915.291779 256.436378 
L 915.756826 257.797962 
L 916.221872 258.35949 
L 916.686919 258.650031 
L 917.151965 257.167545 
L 917.617012 255.288901 
L 918.082058 251.38947 
L 919.012151 251.686464 
L 919.477198 250.548517 
L 919.942244 250.597751 
L 920.872337 246.085374 
L 921.80243 243.689473 
L 922.267477 244.371009 
L 922.732523 241.892323 
L 924.592709 237.899983 
L 925.057756 235.365809 
L 925.987849 237.771536 
L 926.452895 235.870955 
L 926.917942 234.48654 
L 934.358686 224.672053 
L 934.823732 217.866612 
L 935.288779 214.347853 
L 936.683918 197.007874 
L 937.148965 191.303155 
L 937.614011 195.031357 
L 938.079058 197.332362 
L 938.544104 198.070677 
L 939.009151 199.050298 
L 939.474197 197.610395 
L 940.869337 209.698291 
L 941.334383 212.259959 
L 941.79943 211.178791 
L 942.264476 211.660313 
L 942.729523 214.058099 
L 943.659616 214.155078 
L 944.124662 213.734602 
L 944.589709 213.727057 
L 945.054755 211.423868 
L 945.519802 210.516905 
L 945.984848 209.355732 
L 946.449895 212.265812 
L 946.914941 203.470553 
L 947.379988 204.968921 
L 947.845035 204.314879 
L 948.310081 203.44921 
L 948.775128 203.388759 
L 949.240174 204.386447 
L 949.705221 204.456327 
L 950.170267 211.242808 
L 950.635314 209.453203 
L 951.10036 209.188867 
L 951.565407 211.249855 
L 952.030453 210.247402 
L 952.4955 211.323805 
L 953.425593 211.897144 
L 953.890639 212.061225 
L 954.355686 211.383956 
L 954.820732 208.951725 
L 955.285779 211.628241 
L 955.750825 212.681416 
L 956.215872 211.175702 
L 956.680918 212.010797 
L 957.145965 213.083329 
L 957.611011 214.821714 
L 958.076058 216.104583 
L 958.541104 215.422152 
L 959.006151 211.318836 
L 959.471197 212.808171 
L 959.936244 211.43795 
L 960.40129 210.490985 
L 960.866337 210.015021 
L 961.331383 211.432093 
L 961.79643 210.127683 
L 962.261476 209.757532 
L 962.726523 211.498498 
L 964.121662 204.231485 
L 964.586709 201.107593 
L 965.051755 204.971288 
L 965.516802 212.214576 
L 965.981848 211.246964 
L 966.446895 213.278273 
L 966.911941 215.83607 
L 967.376988 216.704716 
L 967.842034 216.289401 
L 968.307081 215.32308 
L 968.772127 209.504804 
L 970.167267 200.924151 
L 970.632313 196.955038 
L 971.09736 194.810569 
L 972.492499 184.99499 
L 972.957546 184.140934 
L 973.422592 183.634 
L 974.352685 186.354587 
L 974.817732 184.77661 
L 975.282778 182.749569 
L 975.747825 181.712275 
L 976.212871 181.666018 
L 976.677918 181.812033 
L 977.142964 179.494649 
L 977.608011 175.990084 
L 978.538104 181.98316 
L 979.00315 186.089453 
L 979.468197 188.156893 
L 979.933243 188.21516 
L 980.863336 193.613355 
L 981.328383 189.579721 
L 981.793429 188.649531 
L 982.258476 181.84409 
L 983.653615 171.250391 
L 984.118662 171.246718 
L 984.583708 169.811977 
L 985.048755 169.471506 
L 985.513801 171.498943 
L 985.978848 170.661663 
L 986.443894 172.942022 
L 986.908941 171.326622 
L 987.373987 165.949668 
L 988.30408 160.521296 
L 988.769127 158.623296 
L 989.234173 160.862361 
L 989.69922 161.743912 
L 990.164266 161.687332 
L 990.629313 163.419264 
L 991.094359 167.050685 
L 991.559406 168.63293 
L 992.024452 166.510399 
L 992.489499 159.271378 
L 992.954545 158.281829 
L 993.419592 159.248547 
L 993.884638 159.261649 
L 994.349685 154.83702 
L 994.814731 151.980244 
L 995.279778 151.789461 
L 995.744824 150.940567 
L 996.674917 141.821613 
L 997.139964 142.139252 
L 997.605011 144.367994 
L 998.070057 143.586202 
L 998.535104 143.732217 
L 999.00015 149.343132 
L 999.930243 155.934959 
L 1000.39529 154.373757 
L 1000.860336 153.773913 
L 1001.325383 154.064454 
L 1001.790429 154.583398 
L 1002.255476 153.787411 
L 1002.720522 159.074433 
L 1003.185569 162.854251 
L 1003.650615 163.085433 
L 1004.115662 160.849345 
L 1004.580708 161.274089 
L 1005.045755 161.169764 
L 1005.510801 159.878258 
L 1008.766127 152.943776 
L 1009.231173 147.346161 
L 1009.69622 147.333455 
L 1010.161266 148.820209 
L 1010.626313 146.136348 
L 1011.556406 144.776649 
L 1012.021452 144.618126 
L 1012.486499 148.001788 
L 1012.951545 148.685905 
L 1013.416592 148.573837 
L 1013.881638 150.629663 
L 1014.346685 151.201514 
L 1014.811731 151.279137 
L 1015.276778 150.139901 
L 1015.741824 147.559272 
L 1016.206871 143.325624 
L 1016.671917 142.718038 
L 1017.136964 144.309316 
L 1017.60201 143.573978 
L 1018.067057 144.221964 
L 1018.532103 145.734526 
L 1018.99715 146.40703 
L 1019.462196 150.721079 
L 1019.927243 148.630808 
L 1020.392289 144.442325 
L 1020.857336 144.49543 
L 1021.322382 145.324073 
L 1021.787429 146.840507 
L 1022.717522 144.427632 
L 1023.182568 144.67559 
L 1023.647615 144.070584 
L 1024.112661 148.427217 
L 1024.577708 148.666142 
L 1025.507801 143.86491 
L 1025.972847 146.082038 
L 1026.437894 146.367418 
L 1026.90294 152.476432 
L 1027.833033 151.534629 
L 1028.763126 161.846717 
L 1029.228173 167.884759 
L 1029.693219 171.749745 
L 1030.158266 173.778473 
L 1031.088359 176.909412 
L 1031.553405 175.572742 
L 1032.018452 175.394863 
L 1032.483498 176.943557 
L 1032.948545 176.535984 
L 1033.413591 178.954417 
L 1033.878638 179.22044 
L 1034.343684 179.016753 
L 1034.808731 185.805815 
L 1035.273777 189.183025 
L 1035.738824 189.732939 
L 1036.20387 189.747332 
L 1037.133963 188.617128 
L 1037.59901 189.427705 
L 1038.064056 194.894094 
L 1038.529103 191.268231 
L 1038.994149 191.472314 
L 1039.459196 191.467351 
L 1039.924242 193.661251 
L 1040.389289 195.026707 
L 1040.854335 198.623287 
L 1041.784428 198.068607 
L 1042.249475 200.147661 
L 1042.714521 204.89658 
L 1043.179568 205.174217 
L 1043.644614 210.472852 
L 1044.109661 212.803536 
L 1044.574707 212.190788 
L 1045.039754 215.440247 
L 1045.5048 217.746413 
L 1045.969847 215.754214 
L 1046.434893 216.726093 
L 1046.89994 211.235583 
L 1047.364986 212.269402 
L 1047.830033 211.259206 
L 1048.29508 209.970282 
L 1048.760126 211.148627 
L 1049.225173 210.113914 
L 1049.690219 210.579951 
L 1050.155266 215.854068 
L 1050.620312 214.530302 
L 1051.085359 215.851883 
L 1051.550405 214.44037 
L 1052.015452 209.560225 
L 1052.480498 207.49189 
L 1052.945545 208.169555 
L 1053.410591 208.109104 
L 1053.875638 210.576572 
L 1054.340684 212.349798 
L 1054.805731 214.843075 
L 1055.270777 220.197198 
L 1055.735824 222.943395 
L 1056.20087 222.094501 
L 1056.665917 219.604202 
L 1057.130963 218.952741 
L 1057.59601 220.056243 
L 1058.061056 219.212511 
L 1058.526103 217.259023 
L 1058.991149 216.980492 
L 1059.456196 218.900825 
L 1059.921242 219.138459 
L 1060.386289 217.830178 
L 1060.851335 218.022648 
L 1061.316382 220.047505 
L 1061.781428 216.932645 
L 1062.246475 219.752396 
L 1062.711521 220.195206 
L 1063.176568 219.462449 
L 1063.641614 220.977593 
L 1064.106661 217.716917 
L 1064.571707 212.696117 
L 1065.036754 212.020138 
L 1065.5018 212.584247 
L 1065.966847 204.546461 
L 1066.431893 203.918228 
L 1066.89694 200.342691 
L 1067.361986 200.079645 
L 1067.827033 203.361364 
L 1068.292079 202.847977 
L 1069.222172 199.232437 
L 1069.687219 203.781342 
L 1070.152265 204.27835 
L 1071.547405 200.33286 
L 1072.012451 202.037694 
L 1072.477498 200.09453 
L 1072.942544 201.012212 
L 1073.872637 200.838402 
L 1074.337684 204.570476 
L 1075.267777 202.135862 
L 1075.732823 201.907657 
L 1076.19787 204.541589 
L 1076.662916 204.635987 
L 1077.127963 207.289275 
L 1077.593009 205.370628 
L 1078.058056 205.640523 
L 1078.523102 206.390451 
L 1078.988149 204.656334 
L 1079.918242 197.44461 
L 1080.383288 198.828132 
L 1080.848335 195.940385 
L 1081.778428 198.126741 
L 1082.243474 202.373689 
L 1082.708521 204.721149 
L 1083.173567 209.28941 
L 1083.638614 206.666198 
L 1084.10366 207.512907 
L 1084.568707 207.110497 
L 1085.033753 207.955915 
L 1086.428893 196.838309 
L 1086.893939 195.671974 
L 1087.358986 194.149484 
L 1087.824032 189.300309 
L 1088.289079 186.664193 
L 1088.754125 181.737593 
L 1089.219172 180.243493 
L 1090.149265 183.495731 
L 1091.079358 189.088778 
L 1091.544404 190.237444 
L 1092.009451 195.739964 
L 1092.474497 194.163277 
L 1092.939544 193.580209 
L 1093.40459 191.111846 
L 1093.869637 185.595528 
L 1094.79973 179.040624 
L 1095.264776 178.892425 
L 1095.729823 181.526357 
L 1096.194869 183.437657 
L 1096.659916 186.57614 
L 1097.124962 192.212863 
L 1097.590009 193.272491 
L 1098.055056 195.476715 
L 1098.520102 195.189151 
L 1098.985149 194.146695 
L 1099.915242 190.70943 
L 1100.380288 190.072164 
L 1100.845335 191.238896 
L 1101.310381 189.734472 
L 1101.775428 187.231268 
L 1102.705521 186.029 
L 1103.635614 186.91591 
L 1104.10066 187.153544 
L 1104.565707 188.691915 
L 1105.4958 192.804858 
L 1105.960846 194.895526 
L 1106.425893 194.247936 
L 1106.890939 194.897212 
L 1107.355986 193.1489 
L 1107.821032 193.297496 
L 1108.286079 194.591979 
L 1108.751125 197.090417 
L 1109.216172 198.82493 
L 1109.681218 201.42144 
L 1110.146265 200.908054 
L 1110.611311 200.731465 
L 1111.076358 197.944371 
L 1111.541404 199.07239 
L 1112.006451 196.373044 
L 1112.936544 187.073431 
L 1113.40159 183.146902 
L 1113.866637 183.820696 
L 1114.331683 185.722963 
L 1114.79673 181.759012 
L 1115.261776 179.205482 
L 1115.726823 180.35931 
L 1116.191869 185.23727 
L 1116.656916 186.402711 
L 1117.587009 191.600892 
L 1118.052055 192.25533 
L 1118.517102 193.680144 
L 1118.982148 193.626145 
L 1119.447195 189.4325 
L 1119.912241 189.040412 
L 1120.377288 187.366944 
L 1120.842334 184.634047 
L 1121.307381 187.469283 
L 1121.772427 187.423027 
L 1122.237474 187.987135 
L 1122.70252 185.881379 
L 1123.167567 186.590014 
L 1123.632613 186.048239 
L 1124.09766 186.892367 
L 1124.562706 185.102762 
L 1125.027753 184.585504 
L 1125.492799 183.866942 
L 1125.957846 186.535715 
L 1126.887939 188.194292 
L 1127.352985 185.603341 
L 1127.818032 183.645982 
L 1128.283078 184.482368 
L 1129.213171 183.380751 
L 1129.678218 183.827432 
L 1130.143264 181.037757 
L 1130.608311 180.862459 
L 1131.073357 181.159452 
L 1132.00345 176.026584 
L 1132.933543 171.400849 
L 1133.39859 172.246268 
L 1133.863636 174.551144 
L 1134.328683 174.41972 
L 1134.793729 176.36328 
L 1135.258776 175.673107 
L 1135.723822 177.214059 
L 1136.188869 183.414693 
L 1136.653915 183.325852 
L 1137.118962 180.394232 
L 1137.584008 179.790516 
L 1138.049055 177.225373 
L 1138.514101 179.183128 
L 1138.979148 178.899435 
L 1139.444194 171.579119 
L 1139.909241 170.80765 
L 1140.374287 168.69157 
L 1140.839334 165.976739 
L 1141.30438 167.133147 
L 1141.769427 163.207908 
L 1142.234473 161.606704 
L 1143.164566 156.931933 
L 1143.629613 157.440554 
L 1144.094659 160.958418 
L 1144.559706 159.928867 
L 1145.024752 164.029998 
L 1145.489799 163.755338 
L 1145.954845 165.305323 
L 1146.419892 167.992161 
L 1146.884938 166.90196 
L 1147.349985 162.710896 
L 1147.815032 159.869604 
L 1148.280078 154.536524 
L 1148.745125 152.46948 
L 1149.210171 151.647685 
L 1150.140264 146.539137 
L 1150.605311 146.494171 
L 1151.070357 146.992469 
L 1152.00045 151.979022 
L 1152.465497 149.710673 
L 1152.930543 148.234639 
L 1153.39559 149.179419 
L 1153.860636 149.802887 
L 1154.325683 146.57189 
L 1154.790729 144.657115 
L 1155.255776 142.230046 
L 1155.720822 144.798166 
L 1156.185869 145.043543 
L 1156.650915 146.478681 
L 1157.115962 144.481319 
L 1157.581008 144.130525 
L 1158.046055 139.369098 
L 1158.511101 140.057087 
L 1158.976148 139.350138 
L 1159.441194 139.86263 
L 1159.906241 138.77372 
L 1160.371287 137.980314 
L 1160.836334 140.187118 
L 1161.30138 144.486974 
L 1161.766427 142.325729 
L 1162.231473 143.260187 
L 1162.69652 140.160812 
L 1163.161566 139.788081 
L 1163.626613 140.410258 
L 1164.091659 139.492973 
L 1164.556706 136.873632 
L 1165.021752 136.272497 
L 1165.486799 133.784779 
L 1165.951845 135.989003 
L 1166.416892 139.299111 
L 1166.881938 140.503265 
L 1167.812031 147.52738 
L 1168.277078 151.157511 
L 1168.742124 149.555016 
L 1169.207171 150.321719 
L 1169.672217 147.227506 
L 1170.137264 146.161823 
L 1170.60231 140.734543 
L 1171.067357 137.299661 
L 1171.532403 136.470124 
L 1171.99745 137.266507 
L 1172.927543 134.831893 
L 1173.392589 135.51472 
L 1173.857636 134.130305 
L 1174.322682 134.877652 
L 1174.787729 129.862014 
L 1175.252775 132.032687 
L 1176.182868 128.738658 
L 1176.647915 125.56573 
L 1177.112961 128.711956 
L 1177.578008 130.0116 
L 1178.043054 134.3592 
L 1178.508101 135.531094 
L 1178.973147 135.950676 
L 1179.438194 138.369109 
L 1179.90324 142.711547 
L 1180.368287 142.442049 
L 1180.833333 140.409846 
L 1181.29838 140.73781 
L 1181.763426 138.606245 
L 1182.228473 139.114866 
L 1182.693519 138.805365 
L 1183.158566 137.779684 
L 1183.623612 140.274251 
L 1184.088659 143.691464 
L 1185.018752 144.720319 
L 1185.483798 145.116674 
L 1185.948845 144.927182 
L 1187.343984 135.341296 
L 1187.809031 134.884688 
L 1188.274077 134.05386 
L 1188.739124 134.925087 
L 1189.20417 134.116196 
L 1189.669217 135.270024 
L 1190.134263 132.386148 
L 1190.59931 131.449506 
L 1191.064356 129.129541 
L 1191.529403 128.760681 
L 1191.994449 126.697509 
L 1192.459496 125.622792 
L 1192.924542 126.834689 
L 1193.389589 132.12171 
L 1194.319682 138.357383 
L 1194.784728 138.028526 
L 1195.249775 137.160276 
L 1195.714821 136.903682 
L 1196.179868 134.495969 
L 1196.644914 134.093558 
L 1197.109961 132.854959 
L 1197.575008 130.941474 
L 1198.040054 133.497981 
L 1198.505101 134.214359 
L 1198.970147 135.788861 
L 1199.435194 140.026776 
L 1199.90024 138.379117 
L 1200.830333 142.941124 
L 1201.29538 141.90383 
L 1202.225473 151.56555 
L 1202.690519 151.319279 
L 1203.155566 157.411518 
L 1203.620612 160.54613 
L 1204.085659 161.421229 
L 1204.550705 167.163766 
L 1205.015752 168.672457 
L 1205.480798 168.532 
L 1205.945845 172.018895 
L 1206.410891 170.808685 
L 1207.340984 175.751364 
L 1207.806031 176.676789 
L 1208.271077 179.047476 
L 1208.736124 183.158931 
L 1209.20117 185.679306 
L 1209.666217 185.467876 
L 1210.131263 184.106688 
L 1210.59631 185.683771 
L 1211.061356 184.236126 
L 1211.526403 186.56552 
L 1211.991449 186.707664 
L 1212.456496 189.189326 
L 1212.921542 195.157686 
L 1213.386589 195.490811 
L 1214.316682 203.517577 
L 1214.781728 203.65843 
L 1215.246775 205.59941 
L 1215.711821 205.420241 
L 1216.176868 207.064425 
L 1216.641914 212.191435 
L 1217.106961 211.938713 
L 1217.572007 211.90665 
L 1218.037054 214.90835 
L 1218.5021 215.031137 
L 1219.89724 214.979719 
L 1220.362286 212.462321 
L 1220.827333 212.853514 
L 1221.292379 214.149287 
L 1221.757426 219.440179 
L 1222.222472 218.165449 
L 1223.152565 222.231938 
L 1223.617612 225.606566 
L 1224.082658 231.585249 
L 1224.547705 235.785742 
L 1225.012751 233.500619 
L 1225.477798 232.412998 
L 1225.942844 232.851937 
L 1226.407891 233.08441 
L 1226.872937 231.81226 
L 1227.337984 227.199231 
L 1227.80303 224.541178 
L 1228.268077 225.356917 
L 1228.733123 225.664234 
L 1229.19817 226.550946 
L 1229.663216 225.312347 
L 1230.128263 225.177052 
L 1230.593309 224.041686 
L 1231.523402 218.884301 
L 1231.988449 219.400664 
L 1232.453495 218.776302 
L 1232.918542 215.258834 
L 1233.383588 219.286412 
L 1233.848635 218.636242 
L 1234.313681 220.32301 
L 1234.778728 223.070498 
L 1235.243774 224.51854 
L 1235.708821 222.974113 
L 1236.173867 226.162922 
L 1236.638914 219.143272 
L 1237.10396 219.478978 
L 1237.569007 219.276581 
L 1238.034053 216.920485 
L 1238.964146 216.923264 
L 1240.359286 219.992461 
L 1240.824332 220.001692 
L 1241.289379 221.638134 
L 1241.754425 221.208624 
L 1242.219472 222.916039 
L 1243.149565 228.369722 
L 1243.614611 231.789515 
L 1244.079658 233.055609 
L 1244.544704 231.407949 
L 1245.009751 233.03923 
L 1245.474797 231.355438 
L 1245.939844 229.130964 
L 1246.40489 226.112886 
L 1246.869937 225.817579 
L 1247.334983 222.710462 
L 1247.80003 223.408774 
L 1248.265077 223.596082 
L 1249.19517 221.035008 
L 1249.660216 221.520401 
L 1250.125263 219.52433 
L 1250.590309 222.283432 
L 1251.520402 219.674612 
L 1251.985449 220.490352 
L 1252.915542 218.485446 
L 1253.380588 218.639203 
L 1253.845635 219.989173 
L 1254.310681 220.758458 
L 1254.775728 219.979246 
L 1255.240774 220.167845 
L 1255.705821 219.147326 
L 1256.170867 219.845638 
L 1256.635914 219.867773 
L 1257.10096 219.417617 
L 1257.566007 219.394588 
L 1258.031053 221.18975 
L 1258.4961 218.582023 
L 1258.961146 218.668679 
L 1259.426193 220.594174 
L 1259.891239 223.795887 
L 1260.356286 222.021767 
L 1260.821332 222.00648 
L 1261.286379 220.063316 
L 1261.751425 220.728077 
L 1262.216472 221.89997 
L 1263.146565 215.547662 
L 1263.611611 216.565996 
L 1264.076658 212.573656 
L 1264.541704 209.56461 
L 1265.006751 210.008711 
L 1265.471797 208.531386 
L 1265.936844 207.794758 
L 1266.40189 206.769077 
L 1266.866937 204.828494 
L 1267.79703 210.991904 
L 1268.262076 210.731439 
L 1268.727123 212.588541 
L 1269.192169 213.643007 
L 1269.657216 214.061299 
L 1270.122262 213.635661 
L 1270.587309 213.448749 
L 1271.052355 212.986979 
L 1271.517402 213.967891 
L 1271.982448 214.628781 
L 1272.447495 217.656289 
L 1273.377588 215.491372 
L 1273.842634 214.011466 
L 1274.307681 211.195982 
L 1275.237774 203.846185 
L 1275.70282 200.088699 
L 1276.167867 198.864295 
L 1276.632913 199.714876 
L 1277.09796 203.010789 
L 1277.563006 205.114361 
L 1278.028053 206.295287 
L 1278.958146 202.905768 
L 1279.423192 204.375747 
L 1279.888239 204.252065 
L 1280.353285 200.534583 
L 1280.818332 201.342579 
L 1281.283378 199.707824 
L 1281.748425 200.127406 
L 1282.213471 198.091332 
L 1283.143564 190.937678 
L 1283.608611 190.992073 
L 1284.073657 190.26964 
L 1284.538704 191.202807 
L 1285.00375 192.879252 
L 1285.468797 195.659 
L 1285.933843 196.149555 
L 1286.863936 202.905265 
L 1287.328983 204.015218 
L 1287.794029 204.291565 
L 1288.259076 203.40912 
L 1288.724122 204.97459 
L 1289.189169 207.944029 
L 1289.654215 207.971326 
L 1290.119262 205.740399 
L 1290.584308 205.504452 
L 1291.049355 208.781009 
L 1291.514401 212.926015 
L 1291.979448 213.217846 
L 1292.444494 213.651623 
L 1292.909541 213.633755 
L 1293.374587 214.276579 
L 1293.839634 212.579884 
L 1294.30468 211.641952 
L 1294.769727 209.235529 
L 1295.234773 205.74645 
L 1295.69982 203.448422 
L 1296.164866 203.507979 
L 1296.629913 201.89258 
L 1297.094959 201.725024 
L 1297.560006 201.963949 
L 1298.025053 200.682766 
L 1298.490099 205.902686 
L 1298.955146 209.10569 
L 1299.420192 205.663066 
L 1299.885239 207.383385 
L 1300.815332 203.770624 
L 1301.280378 202.479118 
L 1302.210471 193.615666 
L 1302.675518 199.581444 
L 1303.140564 198.187996 
L 1303.605611 200.29673 
L 1304.070657 196.002432 
L 1304.535704 197.804047 
L 1305.00075 197.561648 
L 1305.465797 197.60572 
L 1305.930843 191.955199 
L 1306.39589 189.424896 
L 1306.860936 187.666261 
L 1307.325983 189.102689 
L 1307.791029 185.536185 
L 1308.721122 179.878119 
L 1310.116262 169.53218 
L 1310.581308 169.372367 
L 1311.046355 169.910667 
L 1311.511401 168.843694 
L 1311.976448 169.802669 
L 1312.906541 174.142725 
L 1313.371587 174.910719 
L 1314.30168 175.735689 
L 1314.766727 176.822415 
L 1315.231773 179.042124 
L 1315.69682 179.297824 
L 1316.161866 182.313718 
L 1316.626913 182.925572 
L 1317.091959 182.577359 
L 1317.557006 180.634195 
L 1318.487099 179.652586 
L 1318.952145 177.948149 
L 1319.882238 169.495048 
L 1320.812331 164.133777 
L 1321.277378 161.573795 
L 1321.742424 160.71974 
L 1322.207471 161.331594 
L 1322.672517 161.353729 
L 1323.60261 164.359497 
L 1324.067657 168.71484 
L 1324.532703 170.578395 
L 1324.99775 170.668922 
L 1325.462796 170.502657 
L 1325.927843 170.101537 
L 1326.392889 171.17923 
L 1326.857936 170.736816 
L 1327.322982 168.085215 
L 1327.788029 167.26213 
L 1328.253075 166.778423 
L 1328.718122 168.497451 
L 1329.183168 170.968791 
L 1329.648215 171.695492 
L 1330.113261 170.362693 
L 1330.578308 167.0504 
L 1331.508401 167.234035 
L 1331.973447 166.178675 
L 1332.438494 163.124465 
L 1332.90354 163.085951 
L 1333.368587 162.113177 
L 1333.833633 162.687609 
L 1334.29868 162.323911 
L 1334.763726 161.486631 
L 1335.693819 162.549037 
L 1336.158866 159.414822 
L 1337.088959 165.569199 
L 1337.554005 164.782245 
L 1338.019052 163.241689 
L 1338.484098 157.977001 
L 1338.949145 155.380888 
L 1339.414191 154.137128 
L 1339.879238 151.411973 
L 1340.344284 149.885612 
L 1340.809331 150.555535 
L 1341.274377 150.13893 
L 1341.739424 155.649192 
L 1342.20447 157.534684 
L 1342.669517 158.143957 
L 1343.134563 160.234625 
L 1343.59961 161.117466 
L 1344.064656 160.098237 
L 1344.529703 160.273932 
L 1344.994749 155.946084 
L 1345.459796 157.323153 
L 1345.924842 157.576272 
L 1346.389889 156.162177 
L 1346.854935 155.742991 
L 1347.319982 156.192253 
L 1347.785029 157.392535 
L 1348.250075 157.72566 
L 1348.715122 156.958062 
L 1349.180168 157.320867 
L 1349.645215 156.079687 
L 1350.110261 157.203835 
L 1350.575308 156.884011 
L 1351.040354 156.164159 
L 1351.505401 158.493553 
L 1352.435494 155.153069 
L 1352.90054 158.119927 
L 1353.365587 156.050302 
L 1353.830633 155.01817 
L 1354.29568 152.622071 
L 1355.225773 141.981719 
L 1355.690819 142.670998 
L 1356.155866 139.019327 
L 1356.620912 139.678926 
L 1357.085959 138.040299 
L 1357.551005 139.190256 
L 1358.016052 142.603597 
L 1358.481098 149.750103 
L 1359.876238 154.233593 
L 1360.341284 156.453302 
L 1360.806331 157.587774 
L 1361.271377 159.348096 
L 1361.736424 157.376542 
L 1362.20147 154.029408 
L 1363.131563 152.014179 
L 1363.59661 155.102336 
L 1364.526703 150.249488 
L 1364.991749 150.661328 
L 1365.456796 151.900323 
L 1366.386889 155.755184 
L 1366.851935 154.84306 
L 1367.782028 159.470878 
L 1374.292679 162.308695 
L 1374.757726 163.054752 
L 1375.222772 162.205858 
L 1375.687819 163.680998 
L 1376.152865 165.798765 
L 1376.617912 166.925493 
L 1377.082958 167.422501 
L 1377.548005 166.55296 
L 1380.80333 169.696605 
L 1381.268377 167.581816 
L 1381.733423 166.840026 
L 1382.19847 164.034866 
L 1382.663516 168.714103 
L 1383.128563 169.189173 
L 1383.593609 169.473262 
L 1384.058656 167.206204 
L 1384.523702 170.499537 
L 1384.988749 170.01712 
L 1385.453795 171.874223 
L 1385.918842 168.12319 
L 1386.383888 170.616466 
L 1386.848935 171.41414 
L 1387.313981 175.151375 
L 1387.779028 176.885888 
L 1388.244074 179.119792 
L 1389.174167 179.27613 
L 1389.639214 182.479134 
L 1390.10426 183.225191 
L 1390.569307 184.468057 
L 1391.034353 180.5183 
L 1391.4994 179.847483 
L 1402.19547 179.414103 
L 1402.660516 176.345698 
L 1403.125563 172.152053 
L 1403.590609 162.933539 
L 1404.055656 160.577442 
L 1404.520702 163.860452 
L 1404.985749 163.785806 
L 1405.450795 162.827227 
L 1405.915842 164.160422 
L 1406.380888 164.823893 
L 1406.845935 170.479972 
L 1407.310981 171.624767 
L 1407.776028 169.788707 
L 1408.706121 165.508802 
L 1409.171167 166.489714 
L 1409.636214 167.188026 
L 1410.10126 166.946917 
L 1410.566307 168.494321 
L 1411.031353 169.264895 
L 1411.4964 172.412412 
L 1412.891539 176.211983 
L 1413.356586 176.226375 
L 1413.821632 175.985266 
L 1414.286679 175.37897 
L 1414.751725 173.375156 
L 1415.216772 172.610139 
L 1416.146865 167.269515 
L 1416.611911 167.07099 
L 1417.076958 163.668368 
L 1417.542004 163.018198 
L 1418.007051 161.180848 
L 1418.472097 158.204062 
L 1418.937144 158.688165 
L 1419.40219 160.466553 
L 1419.867237 163.159844 
L 1420.332283 168.067483 
L 1420.79733 170.202025 
L 1421.262376 176.536862 
L 1421.727423 179.190149 
L 1422.657516 182.806284 
L 1423.122562 181.265728 
L 1423.587609 179.043835 
L 1424.052655 178.987255 
L 1424.517702 176.899564 
L 1424.982748 175.724196 
L 1425.447795 176.432831 
L 1425.912841 174.323203 
L 1426.377888 174.409859 
L 1427.307981 170.171248 
L 1427.773027 166.740237 
L 1428.238074 167.639853 
L 1428.70312 167.419391 
L 1435.213771 161.814034 
L 1435.678818 160.863197 
L 1436.143864 165.334677 
L 1436.608911 164.765803 
L 1437.073957 166.287399 
L 1437.539004 166.355989 
L 1438.00405 163.079828 
L 1438.469097 166.52801 
L 1438.934143 167.601832 
L 1439.39919 165.638021 
L 1439.864236 165.968565 
L 1440.329283 167.104327 
L 1440.794329 165.74572 
L 1441.259376 170.492058 
L 1441.724422 170.687108 
L 1442.654515 170.717184 
L 1443.119562 171.550989 
L 1443.584608 171.116318 
L 1444.979748 162.856581 
L 1445.444794 149.99523 
L 1446.374887 145.79275 
L 1446.839934 142.379805 
L 1447.30498 142.43162 
L 1447.770027 140.565881 
L 1448.70012 156.518366 
L 1449.165167 151.69887 
L 1450.09526 154.605277 
L 1450.560306 152.922776 
L 1451.025353 154.957956 
L 1451.490399 154.365855 
L 1451.955446 155.815187 
L 1452.420492 163.000406 
L 1452.885539 161.4263 
L 1453.350585 163.217592 
L 1453.815632 164.164953 
L 1454.745725 160.91867 
L 1455.210771 159.072286 
L 1455.675818 158.349853 
L 1456.140864 157.413211 
L 1456.605911 155.13712 
L 1457.536004 149.054508 
L 1458.00105 151.580045 
L 1458.466097 151.056336 
L 1458.931143 151.810135 
L 1459.39619 151.061894 
L 1459.861236 149.979435 
L 1460.326283 152.489487 
L 1460.791329 153.362004 
L 1461.256376 149.643231 
L 1461.721422 150.182822 
L 1462.186469 146.322104 
L 1462.651515 147.512063 
L 1463.581608 152.014711 
L 1464.511701 158.260708 
L 1464.976748 158.971923 
L 1465.441794 161.772318 
L 1465.906841 161.297644 
L 1466.371887 159.535138 
L 1466.836934 156.122193 
L 1467.30198 154.637126 
L 1468.232073 153.526476 
L 1468.69712 152.127866 
L 1513.341584 140.869209 
L 1515.20177 93.483446 
L 1516.131863 72.02556 
L 1516.59691 69.016514 
L 1517.061956 67.832113 
L 1518.457096 57.772646 
L 1518.922142 56.101759 
L 1519.387189 55.8 
L 1519.852235 59.013327 
L 1520.782328 57.445871 
L 1521.247375 58.089986 
L 1522.177468 63.525603 
L 1522.642514 64.502643 
L 1523.107561 64.571233 
L 1524.5027 75.866815 
L 1524.967747 77.48003 
L 1525.432793 75.874954 
L 1526.362886 75.182398 
L 1526.827933 75.641983 
L 1527.292979 75.602179 
L 1528.223072 81.248133 
L 1528.688119 82.764567 
L 1529.153165 85.754652 
L 1529.618212 87.693051 
L 1530.548305 92.038269 
L 1531.013351 90.158335 
L 1531.478398 91.066984 
L 1531.943444 95.257154 
L 1532.408491 95.578665 
L 1532.873537 96.449892 
L 1533.338584 96.228139 
L 1534.733723 103.138896 
L 1535.19877 102.108054 
L 1535.663816 104.682627 
L 1536.128863 109.754149 
L 1536.593909 112.191938 
L 1537.058956 116.112411 
L 1537.524002 116.938474 
L 1537.989049 119.187862 
L 1538.454095 125.051698 
L 1538.919142 128.035332 
L 1539.384188 127.747768 
L 1544.034653 132.740575 
L 1544.4997 135.475159 
L 1544.964746 142.176473 
L 1545.894839 150.48455 
L 1546.359886 153.39592 
L 1546.824932 160.004325 
L 1547.289979 162.405982 
L 1548.685119 173.437029 
L 1549.150165 175.303164 
L 1550.080258 177.42371 
L 1550.545305 178.74142 
L 1551.010351 182.610277 
L 1551.475398 182.6879 
L 1551.940444 183.588806 
L 1552.405491 183.554163 
L 1552.870537 185.696447 
L 1553.335584 186.188293 
L 1553.80063 186.175587 
L 1554.265677 184.44147 
L 1554.730723 187.419942 
L 1555.19577 187.23432 
L 1555.660816 185.474395 
L 1556.125863 186.946954 
L 1556.590909 187.382022 
L 1556.590909 187.382022 
" clip-path="url(#pd069226d01)" style="fill: none; stroke: #f77189; stroke-width: 2.5; stroke-linecap: square"/>
   </g>
   <g id="patch_3">
    <path d="M 225 320.4 
L 225 43.2 
" style="fill: none; stroke: #000000; stroke-width: 0.8; stroke-linejoin: miter; stroke-linecap: square"/>
   </g>
   <g id="patch_4">
    <path d="M 1620 320.4 
L 1620 43.2 
" style="fill: none; stroke: #000000; stroke-width: 0.8; stroke-linejoin: miter; stroke-linecap: square"/>
   </g>
   <g id="patch_5">
    <path d="M 225 320.4 
L 1620 320.4 
" style="fill: none; stroke: #000000; stroke-width: 0.8; stroke-linejoin: miter; stroke-linecap: square"/>
   </g>
   <g id="patch_6">
    <path d="M 225 43.2 
L 1620 43.2 
" style="fill: none; stroke: #000000; stroke-width: 0.8; stroke-linejoin: miter; stroke-linecap: square"/>
   </g>
   <g id="text_18">
    <!-- AFAL -->
    <g transform="translate(898.407812 37.2) scale(0.2 -0.2)">
     <defs>
      <path id="DejaVuSans-41" d="M 2188 4044 
L 1331 1722 
L 3047 1722 
L 2188 4044 
z
M 1831 4666 
L 2547 4666 
L 4325 0 
L 3669 0 
L 3244 1197 
L 1141 1197 
L 716 0 
L 50 0 
L 1831 4666 
z
" transform="scale(0.015625)"/>
      <path id="DejaVuSans-46" d="M 628 4666 
L 3309 4666 
L 3309 4134 
L 1259 4134 
L 1259 2759 
L 3109 2759 
L 3109 2228 
L 1259 2228 
L 1259 0 
L 628 0 
L 628 4666 
z
" transform="scale(0.015625)"/>
      <path id="DejaVuSans-4c" d="M 628 4666 
L 1259 4666 
L 1259 531 
L 3531 531 
L 3531 0 
L 628 0 
L 628 4666 
z
" transform="scale(0.015625)"/>
     </defs>
     <use xlink:href="#DejaVuSans-41"/>
     <use xlink:href="#DejaVuSans-46" x="68.408203"/>
     <use xlink:href="#DejaVuSans-41" x="116.802734"/>
     <use xlink:href="#DejaVuSans-4c" x="185.210938"/>
    </g>
   </g>
   <g id="legend_1">
    <g id="patch_7">
     <path d="M 1562.445312 65.878125 
L 1613 65.878125 
Q 1615 65.878125 1615 63.878125 
L 1615 50.2 
Q 1615 48.2 1613 48.2 
L 1562.445312 48.2 
Q 1560.445312 48.2 1560.445312 50.2 
L 1560.445312 63.878125 
Q 1560.445312 65.878125 1562.445312 65.878125 
z
" style="fill: #ffffff; opacity: 0.8; stroke: #cccccc; stroke-linejoin: miter"/>
    </g>
    <g id="line2d_17">
     <path d="M 1564.445312 56.298437 
L 1574.445312 56.298437 
L 1584.445312 56.298437 
" style="fill: none; stroke: #f77189; stroke-width: 2.5; stroke-linecap: square"/>
    </g>
    <g id="text_19">
     <!-- afal -->
     <g transform="translate(1592.445312 59.798437) scale(0.1 -0.1)">
      <defs>
       <path id="DejaVuSans-66" d="M 2375 4863 
L 2375 4384 
L 1825 4384 
Q 1516 4384 1395 4259 
Q 1275 4134 1275 3809 
L 1275 3500 
L 2222 3500 
L 2222 3053 
L 1275 3053 
L 1275 0 
L 697 0 
L 697 3053 
L 147 3053 
L 147 3500 
L 697 3500 
L 697 3744 
Q 697 4328 969 4595 
Q 1241 4863 1831 4863 
L 2375 4863 
z
" transform="scale(0.015625)"/>
       <path id="DejaVuSans-6c" d="M 603 4863 
L 1178 4863 
L 1178 0 
L 603 0 
L 603 4863 
z
" transform="scale(0.015625)"/>
      </defs>
      <use xlink:href="#DejaVuSans-61"/>
      <use xlink:href="#DejaVuSans-66" x="61.279297"/>
      <use xlink:href="#DejaVuSans-61" x="96.484375"/>
      <use xlink:href="#DejaVuSans-6c" x="157.763672"/>
     </g>
    </g>
   </g>
  </g>
 </g>
 <defs>
  <clipPath id="pd069226d01">
   <rect x="225" y="43.2" width="1395" height="277.2"/>
  </clipPath>
 </defs>
</svg>
