<?xml version="1.0" encoding="utf-8" standalone="no"?>
<!DOCTYPE svg PUBLIC "-//W3C//DTD SVG 1.1//EN"
  "http://www.w3.org/Graphics/SVG/1.1/DTD/svg11.dtd">
<svg xmlns:xlink="http://www.w3.org/1999/xlink" width="1800pt" height="360pt" viewBox="0 0 1800 360" xmlns="http://www.w3.org/2000/svg" version="1.1">
 <metadata>
  <rdf:RDF xmlns:dc="http://purl.org/dc/elements/1.1/" xmlns:cc="http://creativecommons.org/ns#" xmlns:rdf="http://www.w3.org/1999/02/22-rdf-syntax-ns#">
   <cc:Work>
    <dc:type rdf:resource="http://purl.org/dc/dcmitype/StillImage"/>
    <dc:date>2024-03-25T14:05:57.998257</dc:date>
    <dc:format>image/svg+xml</dc:format>
    <dc:creator>
     <cc:Agent>
      <dc:title>Matplotlib v3.7.2, https://matplotlib.org/</dc:title>
     </cc:Agent>
    </dc:creator>
   </cc:Work>
  </rdf:RDF>
 </metadata>
 <defs>
  <style type="text/css">*{stroke-linejoin: round; stroke-linecap: butt}</style>
 </defs>
 <g id="figure_1">
  <g id="patch_1">
   <path d="M 0 360 
L 1800 360 
L 1800 0 
L 0 0 
z
" style="fill: #ffffff"/>
  </g>
  <g id="axes_1">
   <g id="patch_2">
    <path d="M 225 320.4 
L 1620 320.4 
L 1620 43.2 
L 225 43.2 
z
" style="fill: #ffffff"/>
   </g>
   <g id="matplotlib.axis_1">
    <g id="xtick_1">
     <g id="line2d_1">
      <defs>
       <path id="mcaea2fe1df" d="M 0 0 
L 0 3.5 
" style="stroke: #000000; stroke-width: 0.8"/>
      </defs>
      <g>
       <use xlink:href="#mcaea2fe1df" x="279.918156" y="320.4" style="stroke: #000000; stroke-width: 0.8"/>
      </g>
     </g>
     <g id="text_1">
      <!-- 2011 -->
      <g transform="translate(260.830656 338.797656) scale(0.15 -0.15)">
       <defs>
        <path id="DejaVuSans-32" d="M 1228 531 
L 3431 531 
L 3431 0 
L 469 0 
L 469 531 
Q 828 903 1448 1529 
Q 2069 2156 2228 2338 
Q 2531 2678 2651 2914 
Q 2772 3150 2772 3378 
Q 2772 3750 2511 3984 
Q 2250 4219 1831 4219 
Q 1534 4219 1204 4116 
Q 875 4013 500 3803 
L 500 4441 
Q 881 4594 1212 4672 
Q 1544 4750 1819 4750 
Q 2544 4750 2975 4387 
Q 3406 4025 3406 3419 
Q 3406 3131 3298 2873 
Q 3191 2616 2906 2266 
Q 2828 2175 2409 1742 
Q 1991 1309 1228 531 
z
" transform="scale(0.015625)"/>
        <path id="DejaVuSans-30" d="M 2034 4250 
Q 1547 4250 1301 3770 
Q 1056 3291 1056 2328 
Q 1056 1369 1301 889 
Q 1547 409 2034 409 
Q 2525 409 2770 889 
Q 3016 1369 3016 2328 
Q 3016 3291 2770 3770 
Q 2525 4250 2034 4250 
z
M 2034 4750 
Q 2819 4750 3233 4129 
Q 3647 3509 3647 2328 
Q 3647 1150 3233 529 
Q 2819 -91 2034 -91 
Q 1250 -91 836 529 
Q 422 1150 422 2328 
Q 422 3509 836 4129 
Q 1250 4750 2034 4750 
z
" transform="scale(0.015625)"/>
        <path id="DejaVuSans-31" d="M 794 531 
L 1825 531 
L 1825 4091 
L 703 3866 
L 703 4441 
L 1819 4666 
L 2450 4666 
L 2450 531 
L 3481 531 
L 3481 0 
L 794 0 
L 794 531 
z
" transform="scale(0.015625)"/>
       </defs>
       <use xlink:href="#DejaVuSans-32"/>
       <use xlink:href="#DejaVuSans-30" x="63.623047"/>
       <use xlink:href="#DejaVuSans-31" x="127.246094"/>
       <use xlink:href="#DejaVuSans-31" x="190.869141"/>
      </g>
     </g>
    </g>
    <g id="xtick_2">
     <g id="line2d_2">
      <g>
       <use xlink:href="#mcaea2fe1df" x="501.288966" y="320.4" style="stroke: #000000; stroke-width: 0.8"/>
      </g>
     </g>
     <g id="text_2">
      <!-- 2012 -->
      <g transform="translate(482.201466 338.797656) scale(0.15 -0.15)">
       <use xlink:href="#DejaVuSans-32"/>
       <use xlink:href="#DejaVuSans-30" x="63.623047"/>
       <use xlink:href="#DejaVuSans-31" x="127.246094"/>
       <use xlink:href="#DejaVuSans-32" x="190.869141"/>
      </g>
     </g>
    </g>
    <g id="xtick_3">
     <g id="line2d_3">
      <g>
       <use xlink:href="#mcaea2fe1df" x="723.266271" y="320.4" style="stroke: #000000; stroke-width: 0.8"/>
      </g>
     </g>
     <g id="text_3">
      <!-- 2013 -->
      <g transform="translate(704.178771 338.797656) scale(0.15 -0.15)">
       <defs>
        <path id="DejaVuSans-33" d="M 2597 2516 
Q 3050 2419 3304 2112 
Q 3559 1806 3559 1356 
Q 3559 666 3084 287 
Q 2609 -91 1734 -91 
Q 1441 -91 1130 -33 
Q 819 25 488 141 
L 488 750 
Q 750 597 1062 519 
Q 1375 441 1716 441 
Q 2309 441 2620 675 
Q 2931 909 2931 1356 
Q 2931 1769 2642 2001 
Q 2353 2234 1838 2234 
L 1294 2234 
L 1294 2753 
L 1863 2753 
Q 2328 2753 2575 2939 
Q 2822 3125 2822 3475 
Q 2822 3834 2567 4026 
Q 2313 4219 1838 4219 
Q 1578 4219 1281 4162 
Q 984 4106 628 3988 
L 628 4550 
Q 988 4650 1302 4700 
Q 1616 4750 1894 4750 
Q 2613 4750 3031 4423 
Q 3450 4097 3450 3541 
Q 3450 3153 3228 2886 
Q 3006 2619 2597 2516 
z
" transform="scale(0.015625)"/>
       </defs>
       <use xlink:href="#DejaVuSans-32"/>
       <use xlink:href="#DejaVuSans-30" x="63.623047"/>
       <use xlink:href="#DejaVuSans-31" x="127.246094"/>
       <use xlink:href="#DejaVuSans-33" x="190.869141"/>
      </g>
     </g>
    </g>
    <g id="xtick_4">
     <g id="line2d_4">
      <g>
       <use xlink:href="#mcaea2fe1df" x="944.637081" y="320.4" style="stroke: #000000; stroke-width: 0.8"/>
      </g>
     </g>
     <g id="text_4">
      <!-- 2014 -->
      <g transform="translate(925.549581 338.797656) scale(0.15 -0.15)">
       <defs>
        <path id="DejaVuSans-34" d="M 2419 4116 
L 825 1625 
L 2419 1625 
L 2419 4116 
z
M 2253 4666 
L 3047 4666 
L 3047 1625 
L 3713 1625 
L 3713 1100 
L 3047 1100 
L 3047 0 
L 2419 0 
L 2419 1100 
L 313 1100 
L 313 1709 
L 2253 4666 
z
" transform="scale(0.015625)"/>
       </defs>
       <use xlink:href="#DejaVuSans-32"/>
       <use xlink:href="#DejaVuSans-30" x="63.623047"/>
       <use xlink:href="#DejaVuSans-31" x="127.246094"/>
       <use xlink:href="#DejaVuSans-34" x="190.869141"/>
      </g>
     </g>
    </g>
    <g id="xtick_5">
     <g id="line2d_5">
      <g>
       <use xlink:href="#mcaea2fe1df" x="1166.007891" y="320.4" style="stroke: #000000; stroke-width: 0.8"/>
      </g>
     </g>
     <g id="text_5">
      <!-- 2015 -->
      <g transform="translate(1146.920391 338.797656) scale(0.15 -0.15)">
       <defs>
        <path id="DejaVuSans-35" d="M 691 4666 
L 3169 4666 
L 3169 4134 
L 1269 4134 
L 1269 2991 
Q 1406 3038 1543 3061 
Q 1681 3084 1819 3084 
Q 2600 3084 3056 2656 
Q 3513 2228 3513 1497 
Q 3513 744 3044 326 
Q 2575 -91 1722 -91 
Q 1428 -91 1123 -41 
Q 819 9 494 109 
L 494 744 
Q 775 591 1075 516 
Q 1375 441 1709 441 
Q 2250 441 2565 725 
Q 2881 1009 2881 1497 
Q 2881 1984 2565 2268 
Q 2250 2553 1709 2553 
Q 1456 2553 1204 2497 
Q 953 2441 691 2322 
L 691 4666 
z
" transform="scale(0.015625)"/>
       </defs>
       <use xlink:href="#DejaVuSans-32"/>
       <use xlink:href="#DejaVuSans-30" x="63.623047"/>
       <use xlink:href="#DejaVuSans-31" x="127.246094"/>
       <use xlink:href="#DejaVuSans-35" x="190.869141"/>
      </g>
     </g>
    </g>
    <g id="xtick_6">
     <g id="line2d_6">
      <g>
       <use xlink:href="#mcaea2fe1df" x="1387.378701" y="320.4" style="stroke: #000000; stroke-width: 0.8"/>
      </g>
     </g>
     <g id="text_6">
      <!-- 2016 -->
      <g transform="translate(1368.291201 338.797656) scale(0.15 -0.15)">
       <defs>
        <path id="DejaVuSans-36" d="M 2113 2584 
Q 1688 2584 1439 2293 
Q 1191 2003 1191 1497 
Q 1191 994 1439 701 
Q 1688 409 2113 409 
Q 2538 409 2786 701 
Q 3034 994 3034 1497 
Q 3034 2003 2786 2293 
Q 2538 2584 2113 2584 
z
M 3366 4563 
L 3366 3988 
Q 3128 4100 2886 4159 
Q 2644 4219 2406 4219 
Q 1781 4219 1451 3797 
Q 1122 3375 1075 2522 
Q 1259 2794 1537 2939 
Q 1816 3084 2150 3084 
Q 2853 3084 3261 2657 
Q 3669 2231 3669 1497 
Q 3669 778 3244 343 
Q 2819 -91 2113 -91 
Q 1303 -91 875 529 
Q 447 1150 447 2328 
Q 447 3434 972 4092 
Q 1497 4750 2381 4750 
Q 2619 4750 2861 4703 
Q 3103 4656 3366 4563 
z
" transform="scale(0.015625)"/>
       </defs>
       <use xlink:href="#DejaVuSans-32"/>
       <use xlink:href="#DejaVuSans-30" x="63.623047"/>
       <use xlink:href="#DejaVuSans-31" x="127.246094"/>
       <use xlink:href="#DejaVuSans-36" x="190.869141"/>
      </g>
     </g>
    </g>
    <g id="xtick_7">
     <g id="line2d_7">
      <g>
       <use xlink:href="#mcaea2fe1df" x="1609.356006" y="320.4" style="stroke: #000000; stroke-width: 0.8"/>
      </g>
     </g>
     <g id="text_7">
      <!-- 2017 -->
      <g transform="translate(1590.268506 338.797656) scale(0.15 -0.15)">
       <defs>
        <path id="DejaVuSans-37" d="M 525 4666 
L 3525 4666 
L 3525 4397 
L 1831 0 
L 1172 0 
L 2766 4134 
L 525 4134 
L 525 4666 
z
" transform="scale(0.015625)"/>
       </defs>
       <use xlink:href="#DejaVuSans-32"/>
       <use xlink:href="#DejaVuSans-30" x="63.623047"/>
       <use xlink:href="#DejaVuSans-31" x="127.246094"/>
       <use xlink:href="#DejaVuSans-37" x="190.869141"/>
      </g>
     </g>
    </g>
    <g id="text_8">
     <!-- Time -->
     <g transform="translate(904.149609 357.314844) scale(0.15 -0.15)">
      <defs>
       <path id="DejaVuSans-54" d="M -19 4666 
L 3928 4666 
L 3928 4134 
L 2272 4134 
L 2272 0 
L 1638 0 
L 1638 4134 
L -19 4134 
L -19 4666 
z
" transform="scale(0.015625)"/>
       <path id="DejaVuSans-69" d="M 603 3500 
L 1178 3500 
L 1178 0 
L 603 0 
L 603 3500 
z
M 603 4863 
L 1178 4863 
L 1178 4134 
L 603 4134 
L 603 4863 
z
" transform="scale(0.015625)"/>
       <path id="DejaVuSans-6d" d="M 3328 2828 
Q 3544 3216 3844 3400 
Q 4144 3584 4550 3584 
Q 5097 3584 5394 3201 
Q 5691 2819 5691 2113 
L 5691 0 
L 5113 0 
L 5113 2094 
Q 5113 2597 4934 2840 
Q 4756 3084 4391 3084 
Q 3944 3084 3684 2787 
Q 3425 2491 3425 1978 
L 3425 0 
L 2847 0 
L 2847 2094 
Q 2847 2600 2669 2842 
Q 2491 3084 2119 3084 
Q 1678 3084 1418 2786 
Q 1159 2488 1159 1978 
L 1159 0 
L 581 0 
L 581 3500 
L 1159 3500 
L 1159 2956 
Q 1356 3278 1631 3431 
Q 1906 3584 2284 3584 
Q 2666 3584 2933 3390 
Q 3200 3197 3328 2828 
z
" transform="scale(0.015625)"/>
       <path id="DejaVuSans-65" d="M 3597 1894 
L 3597 1613 
L 953 1613 
Q 991 1019 1311 708 
Q 1631 397 2203 397 
Q 2534 397 2845 478 
Q 3156 559 3463 722 
L 3463 178 
Q 3153 47 2828 -22 
Q 2503 -91 2169 -91 
Q 1331 -91 842 396 
Q 353 884 353 1716 
Q 353 2575 817 3079 
Q 1281 3584 2069 3584 
Q 2775 3584 3186 3129 
Q 3597 2675 3597 1894 
z
M 3022 2063 
Q 3016 2534 2758 2815 
Q 2500 3097 2075 3097 
Q 1594 3097 1305 2825 
Q 1016 2553 972 2059 
L 3022 2063 
z
" transform="scale(0.015625)"/>
      </defs>
      <use xlink:href="#DejaVuSans-54"/>
      <use xlink:href="#DejaVuSans-69" x="57.958984"/>
      <use xlink:href="#DejaVuSans-6d" x="85.742188"/>
      <use xlink:href="#DejaVuSans-65" x="183.154297"/>
     </g>
    </g>
   </g>
   <g id="matplotlib.axis_2">
    <g id="ytick_1">
     <g id="line2d_8">
      <defs>
       <path id="m5ab0cd09b9" d="M 0 0 
L -3.5 0 
" style="stroke: #000000; stroke-width: 0.8"/>
      </defs>
      <g>
       <use xlink:href="#m5ab0cd09b9" x="225" y="317.464775" style="stroke: #000000; stroke-width: 0.8"/>
      </g>
     </g>
     <g id="text_9">
      <!-- −0.008 -->
      <g transform="translate(162.488281 323.163603) scale(0.15 -0.15)">
       <defs>
        <path id="DejaVuSans-2212" d="M 678 2272 
L 4684 2272 
L 4684 1741 
L 678 1741 
L 678 2272 
z
" transform="scale(0.015625)"/>
        <path id="DejaVuSans-2e" d="M 684 794 
L 1344 794 
L 1344 0 
L 684 0 
L 684 794 
z
" transform="scale(0.015625)"/>
        <path id="DejaVuSans-38" d="M 2034 2216 
Q 1584 2216 1326 1975 
Q 1069 1734 1069 1313 
Q 1069 891 1326 650 
Q 1584 409 2034 409 
Q 2484 409 2743 651 
Q 3003 894 3003 1313 
Q 3003 1734 2745 1975 
Q 2488 2216 2034 2216 
z
M 1403 2484 
Q 997 2584 770 2862 
Q 544 3141 544 3541 
Q 544 4100 942 4425 
Q 1341 4750 2034 4750 
Q 2731 4750 3128 4425 
Q 3525 4100 3525 3541 
Q 3525 3141 3298 2862 
Q 3072 2584 2669 2484 
Q 3125 2378 3379 2068 
Q 3634 1759 3634 1313 
Q 3634 634 3220 271 
Q 2806 -91 2034 -91 
Q 1263 -91 848 271 
Q 434 634 434 1313 
Q 434 1759 690 2068 
Q 947 2378 1403 2484 
z
M 1172 3481 
Q 1172 3119 1398 2916 
Q 1625 2713 2034 2713 
Q 2441 2713 2670 2916 
Q 2900 3119 2900 3481 
Q 2900 3844 2670 4047 
Q 2441 4250 2034 4250 
Q 1625 4250 1398 4047 
Q 1172 3844 1172 3481 
z
" transform="scale(0.015625)"/>
       </defs>
       <use xlink:href="#DejaVuSans-2212"/>
       <use xlink:href="#DejaVuSans-30" x="83.789062"/>
       <use xlink:href="#DejaVuSans-2e" x="147.412109"/>
       <use xlink:href="#DejaVuSans-30" x="179.199219"/>
       <use xlink:href="#DejaVuSans-30" x="242.822266"/>
       <use xlink:href="#DejaVuSans-38" x="306.445312"/>
      </g>
     </g>
    </g>
    <g id="ytick_2">
     <g id="line2d_9">
      <g>
       <use xlink:href="#m5ab0cd09b9" x="225" y="278.797555" style="stroke: #000000; stroke-width: 0.8"/>
      </g>
     </g>
     <g id="text_10">
      <!-- −0.006 -->
      <g transform="translate(162.488281 284.496383) scale(0.15 -0.15)">
       <use xlink:href="#DejaVuSans-2212"/>
       <use xlink:href="#DejaVuSans-30" x="83.789062"/>
       <use xlink:href="#DejaVuSans-2e" x="147.412109"/>
       <use xlink:href="#DejaVuSans-30" x="179.199219"/>
       <use xlink:href="#DejaVuSans-30" x="242.822266"/>
       <use xlink:href="#DejaVuSans-36" x="306.445312"/>
      </g>
     </g>
    </g>
    <g id="ytick_3">
     <g id="line2d_10">
      <g>
       <use xlink:href="#m5ab0cd09b9" x="225" y="240.130335" style="stroke: #000000; stroke-width: 0.8"/>
      </g>
     </g>
     <g id="text_11">
      <!-- −0.004 -->
      <g transform="translate(162.488281 245.829163) scale(0.15 -0.15)">
       <use xlink:href="#DejaVuSans-2212"/>
       <use xlink:href="#DejaVuSans-30" x="83.789062"/>
       <use xlink:href="#DejaVuSans-2e" x="147.412109"/>
       <use xlink:href="#DejaVuSans-30" x="179.199219"/>
       <use xlink:href="#DejaVuSans-30" x="242.822266"/>
       <use xlink:href="#DejaVuSans-34" x="306.445312"/>
      </g>
     </g>
    </g>
    <g id="ytick_4">
     <g id="line2d_11">
      <g>
       <use xlink:href="#m5ab0cd09b9" x="225" y="201.463115" style="stroke: #000000; stroke-width: 0.8"/>
      </g>
     </g>
     <g id="text_12">
      <!-- −0.002 -->
      <g transform="translate(162.488281 207.161943) scale(0.15 -0.15)">
       <use xlink:href="#DejaVuSans-2212"/>
       <use xlink:href="#DejaVuSans-30" x="83.789062"/>
       <use xlink:href="#DejaVuSans-2e" x="147.412109"/>
       <use xlink:href="#DejaVuSans-30" x="179.199219"/>
       <use xlink:href="#DejaVuSans-30" x="242.822266"/>
       <use xlink:href="#DejaVuSans-32" x="306.445312"/>
      </g>
     </g>
    </g>
    <g id="ytick_5">
     <g id="line2d_12">
      <g>
       <use xlink:href="#m5ab0cd09b9" x="225" y="162.795895" style="stroke: #000000; stroke-width: 0.8"/>
      </g>
     </g>
     <g id="text_13">
      <!-- 0.000 -->
      <g transform="translate(175.057813 168.494723) scale(0.15 -0.15)">
       <use xlink:href="#DejaVuSans-30"/>
       <use xlink:href="#DejaVuSans-2e" x="63.623047"/>
       <use xlink:href="#DejaVuSans-30" x="95.410156"/>
       <use xlink:href="#DejaVuSans-30" x="159.033203"/>
       <use xlink:href="#DejaVuSans-30" x="222.65625"/>
      </g>
     </g>
    </g>
    <g id="ytick_6">
     <g id="line2d_13">
      <g>
       <use xlink:href="#m5ab0cd09b9" x="225" y="124.128675" style="stroke: #000000; stroke-width: 0.8"/>
      </g>
     </g>
     <g id="text_14">
      <!-- 0.002 -->
      <g transform="translate(175.057813 129.827503) scale(0.15 -0.15)">
       <use xlink:href="#DejaVuSans-30"/>
       <use xlink:href="#DejaVuSans-2e" x="63.623047"/>
       <use xlink:href="#DejaVuSans-30" x="95.410156"/>
       <use xlink:href="#DejaVuSans-30" x="159.033203"/>
       <use xlink:href="#DejaVuSans-32" x="222.65625"/>
      </g>
     </g>
    </g>
    <g id="ytick_7">
     <g id="line2d_14">
      <g>
       <use xlink:href="#m5ab0cd09b9" x="225" y="85.461455" style="stroke: #000000; stroke-width: 0.8"/>
      </g>
     </g>
     <g id="text_15">
      <!-- 0.004 -->
      <g transform="translate(175.057813 91.160283) scale(0.15 -0.15)">
       <use xlink:href="#DejaVuSans-30"/>
       <use xlink:href="#DejaVuSans-2e" x="63.623047"/>
       <use xlink:href="#DejaVuSans-30" x="95.410156"/>
       <use xlink:href="#DejaVuSans-30" x="159.033203"/>
       <use xlink:href="#DejaVuSans-34" x="222.65625"/>
      </g>
     </g>
    </g>
    <g id="ytick_8">
     <g id="line2d_15">
      <g>
       <use xlink:href="#m5ab0cd09b9" x="225" y="46.794235" style="stroke: #000000; stroke-width: 0.8"/>
      </g>
     </g>
     <g id="text_16">
      <!-- 0.006 -->
      <g transform="translate(175.057813 52.493064) scale(0.15 -0.15)">
       <use xlink:href="#DejaVuSans-30"/>
       <use xlink:href="#DejaVuSans-2e" x="63.623047"/>
       <use xlink:href="#DejaVuSans-30" x="95.410156"/>
       <use xlink:href="#DejaVuSans-30" x="159.033203"/>
       <use xlink:href="#DejaVuSans-36" x="222.65625"/>
      </g>
     </g>
    </g>
    <g id="text_17">
     <!-- East(m) -->
     <g transform="translate(155.36875 211.140234) rotate(-90) scale(0.15 -0.15)">
      <defs>
       <path id="DejaVuSans-45" d="M 628 4666 
L 3578 4666 
L 3578 4134 
L 1259 4134 
L 1259 2753 
L 3481 2753 
L 3481 2222 
L 1259 2222 
L 1259 531 
L 3634 531 
L 3634 0 
L 628 0 
L 628 4666 
z
" transform="scale(0.015625)"/>
       <path id="DejaVuSans-61" d="M 2194 1759 
Q 1497 1759 1228 1600 
Q 959 1441 959 1056 
Q 959 750 1161 570 
Q 1363 391 1709 391 
Q 2188 391 2477 730 
Q 2766 1069 2766 1631 
L 2766 1759 
L 2194 1759 
z
M 3341 1997 
L 3341 0 
L 2766 0 
L 2766 531 
Q 2569 213 2275 61 
Q 1981 -91 1556 -91 
Q 1019 -91 701 211 
Q 384 513 384 1019 
Q 384 1609 779 1909 
Q 1175 2209 1959 2209 
L 2766 2209 
L 2766 2266 
Q 2766 2663 2505 2880 
Q 2244 3097 1772 3097 
Q 1472 3097 1187 3025 
Q 903 2953 641 2809 
L 641 3341 
Q 956 3463 1253 3523 
Q 1550 3584 1831 3584 
Q 2591 3584 2966 3190 
Q 3341 2797 3341 1997 
z
" transform="scale(0.015625)"/>
       <path id="DejaVuSans-73" d="M 2834 3397 
L 2834 2853 
Q 2591 2978 2328 3040 
Q 2066 3103 1784 3103 
Q 1356 3103 1142 2972 
Q 928 2841 928 2578 
Q 928 2378 1081 2264 
Q 1234 2150 1697 2047 
L 1894 2003 
Q 2506 1872 2764 1633 
Q 3022 1394 3022 966 
Q 3022 478 2636 193 
Q 2250 -91 1575 -91 
Q 1294 -91 989 -36 
Q 684 19 347 128 
L 347 722 
Q 666 556 975 473 
Q 1284 391 1588 391 
Q 1994 391 2212 530 
Q 2431 669 2431 922 
Q 2431 1156 2273 1281 
Q 2116 1406 1581 1522 
L 1381 1569 
Q 847 1681 609 1914 
Q 372 2147 372 2553 
Q 372 3047 722 3315 
Q 1072 3584 1716 3584 
Q 2034 3584 2315 3537 
Q 2597 3491 2834 3397 
z
" transform="scale(0.015625)"/>
       <path id="DejaVuSans-74" d="M 1172 4494 
L 1172 3500 
L 2356 3500 
L 2356 3053 
L 1172 3053 
L 1172 1153 
Q 1172 725 1289 603 
Q 1406 481 1766 481 
L 2356 481 
L 2356 0 
L 1766 0 
Q 1100 0 847 248 
Q 594 497 594 1153 
L 594 3053 
L 172 3053 
L 172 3500 
L 594 3500 
L 594 4494 
L 1172 4494 
z
" transform="scale(0.015625)"/>
       <path id="DejaVuSans-28" d="M 1984 4856 
Q 1566 4138 1362 3434 
Q 1159 2731 1159 2009 
Q 1159 1288 1364 580 
Q 1569 -128 1984 -844 
L 1484 -844 
Q 1016 -109 783 600 
Q 550 1309 550 2009 
Q 550 2706 781 3412 
Q 1013 4119 1484 4856 
L 1984 4856 
z
" transform="scale(0.015625)"/>
       <path id="DejaVuSans-29" d="M 513 4856 
L 1013 4856 
Q 1481 4119 1714 3412 
Q 1947 2706 1947 2009 
Q 1947 1309 1714 600 
Q 1481 -109 1013 -844 
L 513 -844 
Q 928 -128 1133 580 
Q 1338 1288 1338 2009 
Q 1338 2731 1133 3434 
Q 928 4138 513 4856 
z
" transform="scale(0.015625)"/>
      </defs>
      <use xlink:href="#DejaVuSans-45"/>
      <use xlink:href="#DejaVuSans-61" x="63.183594"/>
      <use xlink:href="#DejaVuSans-73" x="124.462891"/>
      <use xlink:href="#DejaVuSans-74" x="176.5625"/>
      <use xlink:href="#DejaVuSans-28" x="215.771484"/>
      <use xlink:href="#DejaVuSans-6d" x="254.785156"/>
      <use xlink:href="#DejaVuSans-29" x="352.197266"/>
     </g>
    </g>
   </g>
   <g id="line2d_16">
    <path d="M 288.409091 77.48788 
L 289.015586 89.123544 
L 289.622082 105.135047 
L 290.228577 109.373993 
L 290.835072 105.102929 
L 291.441568 105.605655 
L 292.048063 107.623768 
L 292.654558 112.86236 
L 293.261054 112.038485 
L 293.867549 104.342892 
L 294.474045 103.408539 
L 295.08054 104.733456 
L 295.687035 104.409492 
L 296.293531 101.152344 
L 296.900026 99.977701 
L 298.113017 111.51271 
L 298.719512 111.691421 
L 299.326008 113.251103 
L 299.932503 117.020341 
L 301.145494 121.584203 
L 301.751989 115.045864 
L 302.358484 113.404453 
L 302.96498 115.720908 
L 303.571475 117.159065 
L 304.177971 114.269255 
L 304.784466 112.779751 
L 305.997457 120.754614 
L 306.603952 125.8993 
L 307.816943 127.565882 
L 309.029933 129.657804 
L 309.636429 121.876591 
L 311.455915 104.551228 
L 312.06241 101.08141 
L 312.668906 98.423603 
L 313.275401 97.591442 
L 313.881896 94.259721 
L 314.488392 98.393536 
L 315.094887 96.122401 
L 316.307878 98.148036 
L 316.914373 100.859449 
L 317.520869 104.172966 
L 318.127364 113.018658 
L 318.733859 116.812753 
L 319.340355 122.957263 
L 319.94685 127.900327 
L 320.553346 134.751895 
L 321.159841 137.988077 
L 321.766336 139.83224 
L 322.372832 139.859043 
L 322.979327 142.056735 
L 323.585822 137.001561 
L 324.192318 129.863881 
L 325.405308 110.766166 
L 326.011804 107.76864 
L 326.618299 106.947527 
L 327.224795 102.994368 
L 327.83129 108.677633 
L 328.437785 115.548535 
L 329.044281 120.234738 
L 329.650776 134.225932 
L 330.257271 141.047118 
L 330.863767 150.108241 
L 331.470262 161.497683 
L 332.076758 163.173367 
L 332.683253 162.995787 
L 333.289748 168.322761 
L 333.896244 171.257892 
L 335.109234 158.725318 
L 335.71573 153.018325 
L 336.322225 156.898041 
L 336.92872 161.871486 
L 337.535216 160.580842 
L 338.141711 154.094981 
L 338.748207 159.228619 
L 340.567693 192.656745 
L 341.174188 198.395249 
L 341.780683 205.473296 
L 342.993674 225.829955 
L 344.206665 219.649853 
L 344.81316 213.55895 
L 345.419656 208.90702 
L 346.026151 206.588932 
L 346.632646 203.406356 
L 347.239142 199.392435 
L 348.452133 199.713951 
L 350.271619 216.990226 
L 350.878114 219.74583 
L 351.484609 217.013451 
L 352.091105 205.815713 
L 352.6976 204.889645 
L 353.304095 192.727989 
L 355.123582 173.994034 
L 355.730077 173.844073 
L 356.336572 180.80888 
L 356.943068 179.043182 
L 357.549563 182.533463 
L 358.156058 180.861671 
L 358.762554 183.86585 
L 359.369049 191.645431 
L 359.975545 197.789941 
L 361.188535 204.759456 
L 361.795031 204.203489 
L 362.401526 210.709814 
L 363.008021 207.289711 
L 363.614517 211.362762 
L 364.221012 211.08299 
L 364.827507 211.526847 
L 365.434003 209.324761 
L 366.040498 214.486019 
L 366.646994 216.368849 
L 367.253489 225.109586 
L 367.859984 216.342359 
L 368.46648 210.049834 
L 369.072975 208.13499 
L 369.67947 208.217033 
L 370.285966 206.652956 
L 370.892461 205.483838 
L 371.498957 204.013667 
L 372.105452 213.226697 
L 372.711947 219.23311 
L 373.318443 219.52506 
L 373.924938 215.756952 
L 374.531433 220.932019 
L 375.137929 219.0807 
L 375.744424 210.100803 
L 376.35092 196.265408 
L 377.56391 186.279348 
L 378.170406 185.974718 
L 378.776901 175.688421 
L 379.383396 171.367924 
L 380.596387 178.052959 
L 381.202882 179.872264 
L 381.809378 184.268463 
L 382.415873 181.67142 
L 383.022369 181.789367 
L 383.628864 185.633177 
L 384.235359 190.620433 
L 384.841855 196.568845 
L 386.054845 199.688209 
L 386.661341 209.895539 
L 388.480827 230.102237 
L 389.087322 229.383316 
L 389.693818 239.408357 
L 390.300313 247.392322 
L 390.906808 249.813731 
L 392.119799 260.804637 
L 392.726295 255.180503 
L 393.33279 256.869996 
L 393.939285 252.654453 
L 394.545781 252.733733 
L 395.758771 242.477002 
L 396.365267 233.444628 
L 396.971762 229.764902 
L 397.578257 230.987628 
L 398.184753 229.768794 
L 398.791248 229.218351 
L 399.397744 235.661151 
L 400.004239 239.485628 
L 400.610734 241.978847 
L 401.21723 246.20933 
L 401.823725 251.423064 
L 402.43022 251.179197 
L 403.036716 250.556944 
L 403.643211 246.009967 
L 404.249707 244.829801 
L 404.856202 244.641173 
L 405.462697 245.004933 
L 406.069193 241.590354 
L 406.675688 242.227547 
L 407.282183 238.409724 
L 407.888679 238.190714 
L 408.495174 238.957719 
L 409.101669 238.421085 
L 409.708165 234.760693 
L 410.31466 233.196616 
L 410.921156 235.330783 
L 411.527651 230.758949 
L 412.134146 232.752257 
L 412.740642 235.819961 
L 413.347137 236.059434 
L 413.953632 237.030822 
L 414.560128 232.644039 
L 415.166623 222.073262 
L 415.773119 225.243158 
L 416.986109 211.081037 
L 417.592605 213.339491 
L 418.1991 212.996194 
L 418.805595 214.914929 
L 419.412091 225.2935 
L 420.018586 222.312546 
L 420.625082 227.620187 
L 421.231577 229.500255 
L 421.838072 229.623726 
L 422.444568 234.696602 
L 423.051063 237.109725 
L 423.657558 226.92562 
L 424.264054 230.802574 
L 424.870549 228.561821 
L 425.477044 228.616244 
L 426.08354 223.928408 
L 426.690035 216.094718 
L 427.296531 213.563961 
L 427.903026 213.049423 
L 429.116017 207.902289 
L 429.722512 212.693446 
L 430.329007 208.845241 
L 430.935503 211.523511 
L 431.541998 209.210948 
L 432.148494 209.911666 
L 432.754989 205.060875 
L 433.361484 207.145327 
L 433.96798 198.438863 
L 434.574475 197.797275 
L 435.18097 199.06143 
L 435.787466 198.55794 
L 436.393961 199.637044 
L 437.000457 212.233456 
L 437.606952 207.16171 
L 438.213447 206.65822 
L 438.819943 204.895283 
L 440.639429 189.831953 
L 441.245924 179.16727 
L 441.852419 177.904245 
L 442.458915 174.392998 
L 443.06541 175.869822 
L 443.671906 174.341651 
L 445.491392 187.422532 
L 446.097887 197.422717 
L 447.310878 208.811343 
L 448.523869 216.670204 
L 449.736859 211.205446 
L 450.343355 200.822481 
L 450.94985 200.241657 
L 451.556345 191.535192 
L 452.162841 188.184138 
L 452.769336 177.461454 
L 453.375831 178.606845 
L 453.982327 175.487793 
L 454.588822 178.685309 
L 455.195318 175.859024 
L 455.801813 177.80814 
L 456.408308 177.290841 
L 457.014804 180.888838 
L 457.621299 176.816916 
L 458.227794 171.551834 
L 458.83429 167.637343 
L 460.047281 149.208018 
L 460.653776 142.749776 
L 461.260271 130.452784 
L 461.866767 125.093796 
L 462.473262 122.786757 
L 463.079757 115.522027 
L 463.686253 114.303194 
L 464.292748 115.647444 
L 464.899244 114.00051 
L 465.505739 125.773862 
L 466.112234 127.049064 
L 466.71873 127.827116 
L 467.325225 125.96475 
L 468.538216 119.638265 
L 469.751206 108.762858 
L 470.357702 105.828857 
L 470.964197 101.928176 
L 471.570693 105.501316 
L 472.177188 108.174062 
L 472.783683 107.093325 
L 473.390179 112.624684 
L 473.996674 107.917514 
L 474.603169 109.692628 
L 475.209665 114.37607 
L 475.81616 116.112517 
L 476.422656 115.849316 
L 477.029151 112.77998 
L 477.635646 112.306871 
L 478.848637 99.691439 
L 479.455132 94.409786 
L 480.061628 86.357902 
L 480.668123 79.993566 
L 481.274618 80.224754 
L 481.881114 74.537094 
L 482.487609 78.314618 
L 483.094105 79.443437 
L 483.7006 84.538408 
L 484.307095 84.802739 
L 484.913591 89.370178 
L 485.520086 91.357962 
L 486.126581 92.279635 
L 486.733077 90.096883 
L 487.339572 86.679542 
L 487.946068 78.282415 
L 488.552563 76.660338 
L 489.159058 68.779695 
L 489.765554 62.451264 
L 490.372049 58.288198 
L 490.978544 57.420132 
L 491.58504 58.220279 
L 492.191535 55.8 
L 492.798031 57.594448 
L 493.404526 63.52905 
L 494.011021 66.867424 
L 494.617517 66.388792 
L 495.224012 71.878721 
L 495.830507 70.850462 
L 496.437003 71.664419 
L 497.649993 65.426317 
L 498.256489 68.391829 
L 498.862984 73.37356 
L 499.46948 72.198918 
L 500.075975 72.872016 
L 500.68247 74.801799 
L 501.288966 75.784235 
L 501.895461 74.877501 
L 502.501956 71.67283 
L 503.108452 74.016904 
L 503.714947 70.392417 
L 504.321443 68.093663 
L 504.927938 70.782981 
L 505.534433 71.873133 
L 506.140929 71.317166 
L 506.747424 70.504338 
L 507.353919 72.704792 
L 507.960415 79.564645 
L 508.56691 98.695817 
L 509.173406 108.585524 
L 509.779901 115.243755 
L 510.386396 125.343369 
L 510.992892 128.355834 
L 512.205882 119.090641 
L 512.812378 112.497064 
L 513.418873 101.594854 
L 514.025368 102.519289 
L 514.631864 95.550087 
L 515.238359 93.030378 
L 515.844855 94.73092 
L 516.45135 96.787752 
L 517.057845 92.514208 
L 517.664341 95.584674 
L 518.270836 91.32494 
L 519.483827 96.140139 
L 520.090322 95.040069 
L 520.696818 94.420577 
L 521.303313 88.859967 
L 521.909808 90.670986 
L 522.516304 92.031809 
L 523.122799 90.133537 
L 523.729294 86.672005 
L 524.33579 84.61354 
L 524.942285 87.747531 
L 525.54878 94.226236 
L 526.155276 91.65405 
L 526.761771 93.716406 
L 527.368267 96.781348 
L 527.974762 105.129889 
L 528.581257 118.030115 
L 529.187753 118.733595 
L 530.400743 121.974485 
L 531.007239 124.047889 
L 531.613734 120.475879 
L 532.22023 115.453848 
L 532.826725 105.416127 
L 533.43322 106.765901 
L 534.039716 105.290207 
L 534.646211 106.598552 
L 535.252706 102.882921 
L 535.859202 107.326074 
L 536.465697 115.307276 
L 537.072193 113.892345 
L 537.678688 113.725812 
L 538.285183 119.839941 
L 538.891679 120.916283 
L 539.498174 122.890257 
L 540.104669 129.183912 
L 540.711165 128.514705 
L 541.31766 131.184689 
L 541.924155 131.60645 
L 542.530651 128.390731 
L 543.137146 128.46725 
L 544.350137 141.681521 
L 544.956632 147.080306 
L 546.169623 166.981244 
L 546.776118 172.526412 
L 547.382614 181.419056 
L 547.989109 186.395264 
L 548.595605 182.983447 
L 549.808595 166.628342 
L 550.415091 160.236387 
L 551.021586 157.802298 
L 551.628081 152.747124 
L 552.234577 146.131451 
L 552.841072 146.768644 
L 554.054063 171.522319 
L 554.660558 177.572923 
L 555.267054 174.556063 
L 555.873549 180.614953 
L 556.480044 183.469987 
L 557.08654 189.766404 
L 557.693035 184.042839 
L 558.906026 177.672164 
L 559.512521 179.936142 
L 560.119017 175.35326 
L 560.725512 178.108864 
L 561.332007 172.520635 
L 561.938503 175.428146 
L 562.544998 174.317029 
L 563.151493 174.642122 
L 563.757989 179.516137 
L 564.364484 180.443335 
L 564.97098 179.517267 
L 565.577475 176.936795 
L 566.18397 176.621117 
L 566.790466 177.139547 
L 567.396961 176.213479 
L 568.003456 173.710342 
L 568.609952 170.317858 
L 569.216447 168.314632 
L 569.822942 166.985321 
L 570.429438 161.689858 
L 571.035933 159.89654 
L 571.642429 155.490422 
L 572.248924 154.702452 
L 572.855419 157.085194 
L 573.461915 152.132212 
L 574.06841 152.1093 
L 574.674905 157.044079 
L 575.281401 159.697491 
L 575.887896 170.181015 
L 576.494392 175.333987 
L 577.100887 177.893493 
L 578.313878 190.682425 
L 578.920373 190.720276 
L 579.526868 193.158257 
L 580.133364 191.997424 
L 580.739859 190.513444 
L 581.95285 204.252485 
L 582.559345 207.665432 
L 583.165841 216.36474 
L 584.378831 221.759947 
L 584.985327 222.745145 
L 585.591822 222.570326 
L 586.198317 222.936849 
L 586.804813 222.634981 
L 587.411308 219.074019 
L 588.624299 198.197611 
L 589.83729 211.456074 
L 590.443785 208.765124 
L 591.05028 206.654182 
L 591.656776 203.537893 
L 592.869767 219.13296 
L 593.476262 209.840964 
L 594.082757 198.311792 
L 594.689253 193.715101 
L 595.295748 196.871187 
L 595.902243 198.580014 
L 596.508739 198.181478 
L 597.115234 194.534896 
L 597.721729 194.268933 
L 598.328225 203.183673 
L 598.93472 206.950149 
L 600.147711 201.775395 
L 600.754206 195.504965 
L 601.360702 194.520897 
L 601.967197 192.995488 
L 602.573692 180.891832 
L 603.180188 174.524734 
L 603.786683 174.42725 
L 604.393179 178.588684 
L 605.606169 201.453188 
L 606.81916 207.768123 
L 607.425655 216.293428 
L 608.032151 215.510982 
L 608.638646 217.556767 
L 609.245142 218.956256 
L 609.851637 207.74747 
L 610.458132 213.041301 
L 611.064628 213.413348 
L 611.671123 220.066056 
L 612.277618 224.49816 
L 612.884114 222.876083 
L 613.490609 214.407145 
L 614.097104 216.342452 
L 614.7036 216.004679 
L 615.310095 223.165584 
L 615.916591 216.939346 
L 616.523086 214.861547 
L 617.129581 219.920613 
L 617.736077 234.052666 
L 618.342572 236.777889 
L 618.949067 236.357257 
L 620.162058 227.928933 
L 621.375049 233.755003 
L 621.981544 222.899746 
L 622.58804 237.0898 
L 623.194535 243.184595 
L 623.80103 247.033929 
L 624.407526 251.954898 
L 625.014021 250.078721 
L 625.620516 243.206188 
L 626.227012 245.337593 
L 626.833507 230.952571 
L 627.440003 229.374684 
L 628.046498 232.514199 
L 628.652993 234.590365 
L 629.259489 234.843648 
L 629.865984 234.685401 
L 630.472479 232.472267 
L 631.078975 233.813756 
L 631.68547 228.708867 
L 632.291966 225.147905 
L 632.898461 219.363577 
L 633.504956 220.260393 
L 634.111452 214.749498 
L 634.717947 210.567098 
L 635.324442 210.86181 
L 635.930938 212.578924 
L 637.143929 205.028898 
L 637.750424 196.477102 
L 638.356919 201.235116 
L 638.963415 209.567086 
L 639.56991 205.752024 
L 640.176405 200.415132 
L 640.782901 200.726416 
L 641.389396 205.014899 
L 642.602387 219.784145 
L 643.208882 221.625546 
L 643.815378 230.41876 
L 644.421873 246.188646 
L 645.028368 257.583612 
L 645.634864 264.089936 
L 646.241359 265.46733 
L 646.847854 261.246263 
L 647.45435 256.210423 
L 648.060845 252.447839 
L 649.273836 229.508259 
L 649.880331 221.127704 
L 651.093322 194.835124 
L 651.699817 193.809627 
L 652.306313 184.277341 
L 652.912808 180.398755 
L 653.519304 178.359624 
L 654.125799 184.752709 
L 654.732294 194.741845 
L 655.33879 209.503622 
L 655.945285 214.800215 
L 656.55178 222.610177 
L 657.158276 228.500588 
L 657.764771 232.764214 
L 658.371266 228.764102 
L 658.977762 225.926769 
L 659.584257 216.913729 
L 660.190753 213.59858 
L 660.797248 205.925083 
L 661.403743 199.676749 
L 662.010239 194.919864 
L 662.616734 188.378764 
L 663.223229 187.960894 
L 663.829725 183.148771 
L 664.43622 174.892504 
L 665.042716 174.361394 
L 665.649211 171.087674 
L 667.468697 158.77524 
L 668.075192 156.448867 
L 668.681688 156.776722 
L 669.288183 154.632638 
L 669.894678 151.077199 
L 670.501174 152.93241 
L 671.107669 153.909322 
L 671.714165 155.643007 
L 672.32066 158.111369 
L 672.927155 159.767719 
L 674.140146 155.76403 
L 675.353137 143.190027 
L 675.959632 130.528458 
L 676.566128 125.826813 
L 677.172623 117.299875 
L 677.779118 115.622559 
L 678.385614 112.868084 
L 678.992109 113.546706 
L 679.598604 119.362545 
L 680.2051 130.790654 
L 680.811595 136.054104 
L 681.418091 144.040831 
L 682.024586 147.398539 
L 682.631081 154.095438 
L 683.237577 152.882128 
L 683.844072 144.404905 
L 684.450567 142.490061 
L 685.057063 135.866103 
L 685.663558 131.719608 
L 686.270053 126.139665 
L 687.483044 120.503666 
L 688.08954 125.916261 
L 688.696035 119.51602 
L 689.30253 124.249176 
L 689.909026 122.08852 
L 690.515521 124.045922 
L 691.122016 122.423845 
L 691.728512 119.00098 
L 692.335007 119.770746 
L 692.941503 119.441259 
L 694.154493 107.864318 
L 695.367484 101.261639 
L 695.973979 105.174498 
L 696.580475 101.638393 
L 697.793466 101.316375 
L 698.399961 99.633535 
L 699.006456 98.997472 
L 699.612952 99.167896 
L 700.219447 97.946301 
L 700.825942 97.752148 
L 701.432438 95.039103 
L 702.038933 86.545308 
L 702.645428 93.413448 
L 703.251924 94.17769 
L 703.858419 92.376086 
L 704.464915 91.66545 
L 705.677905 96.187883 
L 706.284401 109.883549 
L 706.890896 105.902771 
L 707.497391 107.042638 
L 708.103887 109.378426 
L 708.710382 109.471516 
L 709.316878 105.990651 
L 709.923373 104.363049 
L 710.529868 97.0707 
L 711.136364 95.929201 
L 711.742859 91.434702 
L 712.349354 92.77619 
L 712.95585 88.974939 
L 713.562345 84.425201 
L 714.16884 82.723027 
L 714.775336 83.636414 
L 715.988327 86.181295 
L 716.594822 79.811435 
L 717.201317 81.103209 
L 717.807813 78.428831 
L 718.414308 82.037876 
L 719.020803 82.962311 
L 719.627299 78.227522 
L 720.233794 81.958093 
L 720.84029 86.589058 
L 721.446785 87.927784 
L 722.05328 94.431347 
L 722.659776 92.538599 
L 723.266271 93.703323 
L 723.872766 94.37366 
L 724.479262 92.701867 
L 725.085757 102.547383 
L 725.692253 120.278249 
L 726.298748 127.74573 
L 726.905243 128.330446 
L 727.511739 131.892538 
L 728.118234 140.685753 
L 728.724729 145.068142 
L 729.331225 138.358563 
L 729.93772 123.004099 
L 730.544215 119.434851 
L 731.150711 122.740082 
L 731.757206 121.468772 
L 732.363702 119.904695 
L 732.970197 120.823606 
L 733.576692 116.856638 
L 734.183188 117.84736 
L 734.789683 123.141191 
L 735.396178 131.804594 
L 736.002674 136.888518 
L 736.609169 137.710761 
L 737.215665 138.04414 
L 738.428655 145.916811 
L 739.641646 138.833554 
L 740.248141 130.977768 
L 740.854637 133.719563 
L 742.067627 140.545457 
L 742.674123 138.655471 
L 743.280618 144.079113 
L 743.887114 138.927271 
L 744.493609 144.624346 
L 745.100104 144.123618 
L 745.7066 140.747706 
L 746.313095 140.401647 
L 746.91959 138.55309 
L 747.526086 133.779634 
L 748.132581 135.679036 
L 749.345572 132.445929 
L 749.952067 128.937443 
L 750.558563 123.832554 
L 751.165058 124.088599 
L 751.771553 123.651395 
L 752.378049 125.556321 
L 752.984544 125.431217 
L 753.59104 126.093268 
L 754.197535 125.211391 
L 754.80403 130.767607 
L 755.410526 135.224569 
L 756.017021 137.502357 
L 756.623516 135.717325 
L 757.230012 138.180163 
L 757.836507 135.975316 
L 758.443002 135.93307 
L 759.655993 128.985148 
L 760.262489 123.965879 
L 760.868984 126.329288 
L 761.475479 125.461221 
L 762.081975 114.213768 
L 762.68847 114.522289 
L 763.294965 107.807187 
L 763.901461 109.455251 
L 764.507956 108.987667 
L 765.720947 99.421421 
L 766.327442 110.136949 
L 766.933938 110.426137 
L 767.540433 115.703397 
L 768.146928 116.357161 
L 768.753424 118.529995 
L 769.359919 124.387263 
L 769.966415 126.289426 
L 770.57291 127.487294 
L 771.179405 116.278508 
L 771.785901 114.849767 
L 772.392396 118.367668 
L 772.998891 117.858654 
L 773.605387 117.512595 
L 774.211882 123.187574 
L 774.818377 124.230773 
L 775.424873 141.961639 
L 776.031368 146.628509 
L 776.637864 136.842124 
L 777.244359 136.264062 
L 778.45735 121.129737 
L 779.063845 117.856017 
L 779.67034 106.246749 
L 780.276836 99.72222 
L 780.883331 95.818777 
L 781.489827 93.293544 
L 782.096322 92.842531 
L 782.702817 91.529791 
L 783.309313 93.003853 
L 783.915808 100.758577 
L 785.128799 104.609857 
L 785.735294 100.7727 
L 786.341789 99.167194 
L 786.948285 105.629328 
L 787.55478 104.954597 
L 788.161276 103.909766 
L 789.374266 119.620835 
L 789.980762 130.518651 
L 790.587257 136.820592 
L 791.193752 131.677035 
L 791.800248 136.567623 
L 792.406743 138.052733 
L 793.013239 137.571338 
L 793.619734 141.95649 
L 794.226229 139.077727 
L 794.832725 139.35863 
L 795.43922 146.268198 
L 796.045715 149.043136 
L 796.652211 152.983614 
L 797.258706 151.284203 
L 797.865202 153.763612 
L 799.078192 162.1141 
L 800.291183 159.074329 
L 800.897678 156.333664 
L 801.504174 157.832584 
L 802.110669 151.551106 
L 802.717164 156.916748 
L 803.32366 164.82614 
L 803.930155 169.147767 
L 804.536651 177.722788 
L 805.749641 189.765995 
L 806.356137 192.377978 
L 806.962632 186.80632 
L 807.569127 178.469956 
L 808.175623 177.58808 
L 808.782118 175.178848 
L 809.388614 177.023011 
L 810.601604 184.221767 
L 811.2081 189.808365 
L 811.814595 196.972032 
L 812.42109 197.824657 
L 813.027586 199.152336 
L 813.634081 198.04398 
L 814.240576 188.558647 
L 814.847072 187.560769 
L 816.060063 183.957562 
L 816.666558 188.204616 
L 817.273053 186.328439 
L 817.879549 191.136168 
L 818.486044 198.506982 
L 819.092539 202.955658 
L 819.699035 208.473206 
L 820.30553 216.777557 
L 820.912026 214.550613 
L 821.518521 218.626427 
L 822.125016 225.306754 
L 822.731512 227.642543 
L 823.338007 228.644313 
L 823.944502 230.524381 
L 824.550998 228.94097 
L 825.157493 242.084247 
L 825.763989 243.456117 
L 826.370484 249.283004 
L 826.976979 252.817476 
L 827.583475 261.613453 
L 828.18997 267.622627 
L 828.796465 269.544124 
L 829.402961 262.511398 
L 830.009456 274.588564 
L 830.615951 268.536328 
L 831.828942 263.690246 
L 832.435438 261.684258 
L 833.041933 260.995718 
L 833.648428 264.764956 
L 834.254924 259.129773 
L 834.861419 258.783714 
L 835.467914 261.870752 
L 836.680905 258.524405 
L 837.287401 266.439321 
L 837.893896 269.330261 
L 838.500391 277.894234 
L 839.106887 283.627214 
L 839.713382 286.670061 
L 840.319877 285.61142 
L 840.926373 292.53756 
L 841.532868 292.340646 
L 842.139364 300.993001 
L 842.745859 296.360405 
L 843.352354 298.944768 
L 843.95885 303.443159 
L 845.17184 307.092728 
L 845.778336 306.999862 
L 846.384831 305.617168 
L 846.991326 298.312865 
L 847.597822 296.717502 
L 848.204317 290.979222 
L 848.810813 294.023924 
L 849.417308 299.328803 
L 850.023803 303.63662 
L 850.630299 305.290209 
L 851.236794 307.8 
L 851.843289 304.54009 
L 852.449785 305.608146 
L 853.05628 303.323202 
L 853.662776 302.794854 
L 854.269271 302.943183 
L 854.875766 302.000544 
L 855.482262 300.646375 
L 856.088757 302.545777 
L 856.695252 303.210589 
L 857.301748 299.613722 
L 857.908243 293.428913 
L 858.514738 282.824992 
L 859.121234 282.285597 
L 859.727729 276.285838 
L 860.94072 255.13876 
L 861.547215 247.271927 
L 862.153711 241.432361 
L 862.760206 246.474855 
L 863.366701 242.842082 
L 863.973197 235.47516 
L 864.579692 242.975785 
L 865.186188 246.548925 
L 865.792683 244.80256 
L 866.399178 251.446982 
L 867.005674 240.735346 
L 867.612169 233.210993 
L 868.218664 229.133547 
L 869.431655 223.54174 
L 870.038151 225.148375 
L 870.644646 217.530117 
L 871.251141 218.509791 
L 871.857637 216.150275 
L 872.464132 220.806097 
L 874.283618 194.891087 
L 874.890113 195.600091 
L 875.496609 191.555788 
L 876.7096 197.840341 
L 877.316095 197.135229 
L 877.92259 193.444455 
L 878.529086 197.680462 
L 879.135581 191.470795 
L 879.742076 190.961781 
L 880.955067 181.055817 
L 881.561563 183.618085 
L 882.168058 190.138219 
L 882.774553 187.502508 
L 883.381049 190.528783 
L 884.594039 205.532794 
L 885.200535 199.394938 
L 885.80703 201.592629 
L 886.413525 198.307861 
L 887.020021 191.940764 
L 887.626516 183.217728 
L 888.839507 153.936724 
L 889.446002 148.088872 
L 890.052498 140.884905 
L 890.658993 136.777078 
L 891.265488 133.550311 
L 891.871984 131.585752 
L 892.478479 126.878583 
L 893.084975 129.355231 
L 893.69147 130.124997 
L 894.904461 125.024816 
L 895.510956 128.929389 
L 896.117451 127.296264 
L 896.723947 129.864056 
L 897.330442 133.658151 
L 897.936938 141.981835 
L 898.543433 142.607981 
L 899.149928 143.41089 
L 899.756424 143.691793 
L 900.362919 143.539069 
L 900.969414 144.209406 
L 901.57591 139.957957 
L 902.182405 133.784196 
L 902.7889 126.323368 
L 903.395396 126.584937 
L 904.001891 124.603807 
L 904.608387 126.577781 
L 905.214882 121.881659 
L 905.821377 122.5299 
L 906.427873 122.228032 
L 907.034368 122.912178 
L 907.640863 117.995101 
L 908.247359 116.052638 
L 908.853854 112.11329 
L 909.46035 109.356053 
L 910.67334 94.312872 
L 911.279836 95.99408 
L 911.886331 94.432766 
L 912.492826 96.268643 
L 913.099322 95.997156 
L 913.705817 98.85219 
L 914.312313 106.049001 
L 914.918808 111.605217 
L 915.525303 112.548985 
L 916.131799 112.766363 
L 916.738294 108.183481 
L 917.344789 108.152284 
L 917.951285 104.406271 
L 918.55778 93.034531 
L 919.164275 93.478387 
L 919.770771 88.851315 
L 920.377266 87.892104 
L 920.983762 87.653761 
L 921.590257 81.546286 
L 922.803248 96.925921 
L 923.409743 97.687402 
L 924.622734 120.306093 
L 925.229229 124.594576 
L 925.835725 135.591822 
L 926.44222 135.491576 
L 927.048715 140.285496 
L 927.655211 142.579855 
L 928.868201 131.812164 
L 929.474697 138.058866 
L 930.081192 137.563662 
L 930.687687 135.969204 
L 931.900678 124.806555 
L 932.507174 125.181363 
L 933.113669 127.41496 
L 933.720164 117.888198 
L 934.32666 112.253016 
L 934.933155 111.304853 
L 935.53965 108.329422 
L 936.752641 99.716048 
L 937.359137 95.381741 
L 937.965632 94.544056 
L 938.572127 94.720004 
L 939.178623 95.290911 
L 939.785118 92.785011 
L 940.391613 93.717732 
L 940.998109 83.254671 
L 941.604604 83.474811 
L 942.2111 82.255977 
L 942.817595 86.248932 
L 943.42409 86.377928 
L 944.030586 86.854928 
L 944.637081 82.39081 
L 945.243576 86.571577 
L 945.850072 81.933457 
L 946.456567 80.504715 
L 947.063062 80.313325 
L 947.669558 77.382086 
L 948.276053 73.158257 
L 948.882549 77.825127 
L 950.702035 88.514165 
L 951.30853 82.754695 
L 951.915025 87.382898 
L 952.521521 103.031258 
L 953.128016 103.574545 
L 954.341007 99.739334 
L 954.947502 97.901825 
L 955.553998 103.452517 
L 956.160493 96.091119 
L 956.766988 86.279877 
L 957.373484 86.958499 
L 957.979979 92.465 
L 958.586475 92.45866 
L 959.19297 90.897345 
L 959.799465 87.032569 
L 960.405961 92.644024 
L 961.012456 91.008137 
L 962.225447 79.259955 
L 962.831942 78.248268 
L 963.438437 81.528641 
L 964.044933 79.666275 
L 964.651428 74.473003 
L 965.257924 77.946713 
L 965.864419 80.218977 
L 966.470914 79.226623 
L 967.07741 76.30367 
L 967.683905 65.622415 
L 968.2904 66.707043 
L 968.896896 69.708461 
L 969.503391 67.500851 
L 970.109887 67.491749 
L 971.322877 75.425183 
L 971.929373 85.610417 
L 972.535868 90.188905 
L 973.142363 81.80835 
L 973.748859 79.758171 
L 974.355354 80.188218 
L 974.961849 77.914322 
L 976.781336 59.263226 
L 977.387831 61.770255 
L 977.994326 59.954842 
L 978.600822 61.02566 
L 979.813812 73.706876 
L 980.420308 81.649411 
L 981.026803 87.194579 
L 982.846289 98.121145 
L 983.452785 93.485786 
L 984.05928 92.786198 
L 985.272271 85.932182 
L 985.878766 88.751311 
L 986.485262 93.003889 
L 987.091757 95.295487 
L 987.698252 96.808216 
L 988.304748 102.251192 
L 988.911243 104.410216 
L 989.517738 117.390538 
L 990.124234 124.117819 
L 990.730729 127.82077 
L 991.337224 128.532535 
L 991.94372 136.748503 
L 992.550215 138.844003 
L 993.156711 148.424372 
L 993.763206 137.047107 
L 994.369701 134.925118 
L 994.976197 133.836096 
L 995.582692 136.323791 
L 996.189187 131.069757 
L 996.795683 127.26022 
L 997.402178 118.208512 
L 998.008674 119.342855 
L 998.615169 117.834018 
L 999.221664 121.18344 
L 999.82816 117.72467 
L 1001.04115 128.961389 
L 1001.647646 129.120765 
L 1002.254141 133.829064 
L 1002.860636 131.776124 
L 1003.467132 132.010073 
L 1004.073627 133.851473 
L 1004.680123 138.849776 
L 1005.286618 137.512179 
L 1005.893113 141.071509 
L 1006.499609 141.667273 
L 1007.106104 150.327914 
L 1007.712599 147.537535 
L 1008.319095 154.814442 
L 1008.92559 153.904946 
L 1009.532086 168.271764 
L 1010.138581 173.098826 
L 1010.745076 179.47534 
L 1011.351572 177.709641 
L 1011.958067 179.965334 
L 1012.564562 178.975741 
L 1013.171058 173.804566 
L 1013.777553 166.213927 
L 1014.384049 168.292854 
L 1014.990544 166.358677 
L 1015.597039 166.089953 
L 1016.203535 169.710046 
L 1016.81003 169.640181 
L 1017.416525 178.811782 
L 1018.023021 178.487818 
L 1018.629516 179.638733 
L 1019.236011 186.60354 
L 1019.842507 199.437479 
L 1020.449002 200.411629 
L 1021.055498 205.1365 
L 1021.661993 200.194565 
L 1022.268488 198.967446 
L 1022.874984 205.164433 
L 1023.481479 206.157917 
L 1024.087974 204.762319 
L 1024.69447 205.703326 
L 1025.300965 207.0531 
L 1025.907461 216.796424 
L 1026.513956 215.486446 
L 1027.120451 213.811892 
L 1027.726947 208.795385 
L 1028.333442 202.527717 
L 1028.939937 208.81861 
L 1029.546433 211.79517 
L 1030.152928 208.433067 
L 1030.759424 219.584982 
L 1031.365919 221.589338 
L 1031.972414 234.039367 
L 1032.57891 240.338545 
L 1033.185405 238.661229 
L 1033.7919 233.64196 
L 1034.398396 236.516328 
L 1035.004891 232.599075 
L 1035.611386 237.931573 
L 1036.217882 233.533742 
L 1036.824377 237.927179 
L 1037.430873 235.545567 
L 1038.037368 243.816774 
L 1038.643863 238.181592 
L 1039.250359 235.634263 
L 1039.856854 228.91916 
L 1040.463349 230.547891 
L 1041.069845 236.142774 
L 1041.67634 247.656504 
L 1042.282836 253.988826 
L 1044.102322 301.859158 
L 1044.708817 303.675701 
L 1045.315312 299.095581 
L 1045.921808 298.346278 
L 1046.528303 295.99781 
L 1047.134798 292.342941 
L 1047.741294 285.440026 
L 1048.347789 281.028385 
L 1048.954285 280.395084 
L 1049.56078 288.939723 
L 1050.167275 289.480248 
L 1050.773771 289.272286 
L 1051.380266 287.738591 
L 1051.986761 280.352336 
L 1052.593257 277.45424 
L 1053.199752 278.450486 
L 1053.806248 266.241876 
L 1054.412743 262.10643 
L 1055.019238 252.264806 
L 1055.625734 250.079292 
L 1056.232229 254.199297 
L 1056.838724 254.83649 
L 1057.44522 251.676009 
L 1058.051715 253.116928 
L 1058.658211 256.273014 
L 1059.264706 260.362638 
L 1059.871201 254.860029 
L 1060.477697 253.356715 
L 1061.084192 245.001017 
L 1061.690687 243.050269 
L 1062.297183 236.500883 
L 1062.903678 225.123618 
L 1063.510173 229.260194 
L 1064.116669 237.263493 
L 1064.723164 237.599634 
L 1065.32966 238.587594 
L 1065.936155 241.633202 
L 1067.149146 258.164569 
L 1067.755641 250.63193 
L 1068.362136 244.585218 
L 1068.968632 245.070504 
L 1069.575127 247.618963 
L 1070.181623 242.663219 
L 1070.788118 231.261097 
L 1071.394613 225.501627 
L 1072.001109 223.945836 
L 1073.820595 211.785309 
L 1074.42709 217.67572 
L 1075.033585 224.806244 
L 1075.640081 229.774166 
L 1076.246576 233.176065 
L 1076.853072 238.715709 
L 1078.066062 246.472378 
L 1078.672558 239.185553 
L 1079.279053 242.764217 
L 1079.885548 243.716271 
L 1080.492044 246.085203 
L 1081.098539 247.120116 
L 1081.705035 244.293831 
L 1082.31153 245.270744 
L 1082.918025 245.957652 
L 1084.131016 236.308548 
L 1084.737511 234.819044 
L 1085.344007 230.214067 
L 1085.950502 229.810007 
L 1086.556998 222.114414 
L 1087.163493 222.751607 
L 1088.376484 208.630915 
L 1088.982979 201.183898 
L 1089.589474 198.274754 
L 1090.19597 192.263947 
L 1090.802465 190.815872 
L 1092.015456 186.881231 
L 1092.621951 188.987779 
L 1093.228447 185.435102 
L 1093.834942 178.695142 
L 1095.047933 168.899656 
L 1095.654428 165.396694 
L 1096.260923 168.688116 
L 1096.867419 166.67108 
L 1097.473914 175.17429 
L 1098.08041 177.750368 
L 1098.686905 183.411538 
L 1099.2934 178.008359 
L 1099.899896 176.36971 
L 1100.506391 169.853467 
L 1101.112886 167.402806 
L 1102.325877 151.028369 
L 1102.932373 145.481568 
L 1103.538868 154.255449 
L 1104.751859 156.482706 
L 1105.358354 157.854576 
L 1105.964849 158.3371 
L 1106.571345 164.912474 
L 1107.17784 170.192495 
L 1107.784335 165.082082 
L 1108.390831 158.560315 
L 1108.997326 160.90439 
L 1109.603822 158.699542 
L 1110.210317 158.030336 
L 1110.816812 159.485064 
L 1111.423308 157.042689 
L 1112.636298 158.524221 
L 1113.242794 155.117928 
L 1115.06228 139.214966 
L 1115.668775 136.466016 
L 1116.275271 139.130476 
L 1116.881766 136.864865 
L 1117.488261 136.654141 
L 1118.094757 135.971125 
L 1118.701252 138.425677 
L 1119.914243 144.707468 
L 1120.520738 139.268384 
L 1121.127234 138.168314 
L 1121.733729 136.676048 
L 1122.94672 140.786951 
L 1123.553215 136.955318 
L 1124.15971 122.106289 
L 1124.766206 120.876408 
L 1125.372701 123.021623 
L 1125.979197 116.414236 
L 1126.585692 115.474359 
L 1127.192187 109.449742 
L 1127.798683 112.136298 
L 1128.405178 117.203649 
L 1129.011673 117.106165 
L 1129.618169 111.923942 
L 1130.224664 111.141495 
L 1130.83116 104.37944 
L 1131.437655 106.723514 
L 1132.04415 106.974035 
L 1132.650646 106.213684 
L 1133.257141 100.305069 
L 1133.863636 99.669006 
L 1134.470132 96.845483 
L 1135.076627 98.244973 
L 1136.289618 81.776629 
L 1136.896113 79.81207 
L 1138.109104 92.106614 
L 1138.715599 99.9221 
L 1139.322095 100.175383 
L 1141.141581 106.224354 
L 1142.354572 91.070696 
L 1142.961067 88.040027 
L 1143.567562 86.382044 
L 1144.174058 86.345323 
L 1144.780553 79.215928 
L 1145.387048 78.922346 
L 1145.993544 79.747351 
L 1146.600039 79.779679 
L 1147.206534 76.627484 
L 1147.81303 78.239643 
L 1148.419525 79.47894 
L 1149.026021 82.673694 
L 1149.632516 80.47437 
L 1150.239011 86.71831 
L 1150.845507 85.725956 
L 1151.452002 87.702692 
L 1152.058497 87.989118 
L 1152.664993 88.89422 
L 1153.271488 89.418173 
L 1153.877984 86.981322 
L 1154.484479 85.356483 
L 1155.090974 87.197883 
L 1155.69747 85.15599 
L 1156.303965 84.191256 
L 1157.516956 79.461175 
L 1158.123451 80.819235 
L 1158.729947 79.357351 
L 1159.336442 76.401254 
L 1159.942937 83.117487 
L 1160.549433 87.082822 
L 1161.155928 92.685991 
L 1161.762423 95.761981 
L 1162.368919 90.615663 
L 1162.975414 94.644523 
L 1163.581909 99.424633 
L 1164.188405 102.124998 
L 1164.7949 99.431286 
L 1165.401396 93.02276 
L 1166.007891 96.490946 
L 1166.614386 107.565526 
L 1167.220882 107.708331 
L 1167.827377 100.540269 
L 1168.433872 108.104419 
L 1169.040368 106.449198 
L 1169.646863 110.157673 
L 1170.253359 108.469309 
L 1170.859854 110.90729 
L 1172.072845 127.736946 
L 1172.67934 116.340348 
L 1173.285835 123.457062 
L 1173.892331 127.427922 
L 1174.498826 127.51825 
L 1175.105322 124.832824 
L 1175.711817 118.962876 
L 1176.318312 120.135886 
L 1176.924808 118.093993 
L 1177.531303 110.785073 
L 1178.137798 107.842786 
L 1179.350789 103.134801 
L 1179.957284 91.644296 
L 1180.56378 85.622442 
L 1181.170275 86.486114 
L 1181.776771 86.836065 
L 1182.989761 94.297206 
L 1183.596257 97.09424 
L 1184.202752 106.0946 
L 1185.415743 116.411592 
L 1186.022238 123.467543 
L 1186.628734 119.511623 
L 1187.841724 105.134071 
L 1188.44822 109.383887 
L 1189.054715 108.391533 
L 1189.66121 97.638467 
L 1190.267706 93.652166 
L 1190.874201 99.346479 
L 1191.480696 107.186822 
L 1192.087192 113.532954 
L 1192.693687 110.527143 
L 1193.300183 108.612299 
L 1193.906678 113.193549 
L 1195.119669 96.901969 
L 1196.332659 104.871308 
L 1196.939155 104.028099 
L 1197.54565 109.266691 
L 1198.152146 109.716072 
L 1198.758641 122.337341 
L 1199.365136 123.560067 
L 1199.971632 111.86794 
L 1200.578127 106.243806 
L 1201.184622 104.262675 
L 1201.791118 101.262388 
L 1202.397613 102.592829 
L 1203.004109 103.365357 
L 1203.610604 109.946254 
L 1204.217099 112.895195 
L 1204.823595 122.163464 
L 1205.43009 123.405522 
L 1206.036585 122.824698 
L 1206.643081 119.791267 
L 1207.249576 119.470065 
L 1207.856071 115.097091 
L 1208.462567 122.523144 
L 1209.069062 116.92939 
L 1209.675558 123.076662 
L 1210.282053 124.059098 
L 1210.888548 126.557842 
L 1211.495044 124.278422 
L 1212.101539 121.253276 
L 1212.708034 120.020633 
L 1213.31453 121.395265 
L 1213.921025 121.886075 
L 1214.527521 126.099986 
L 1215.740511 140.510179 
L 1216.347007 144.044652 
L 1216.953502 146.173295 
L 1217.559997 141.333552 
L 1218.166493 137.860972 
L 1218.772988 136.77195 
L 1219.379484 139.557936 
L 1220.592474 150.059978 
L 1221.19897 153.989408 
L 1221.805465 163.746541 
L 1222.41196 170.603633 
L 1223.018456 170.459196 
L 1223.624951 164.263338 
L 1224.231446 162.558403 
L 1224.837942 167.352322 
L 1225.444437 169.052863 
L 1226.050933 173.752876 
L 1226.657428 176.607911 
L 1227.870419 191.69478 
L 1228.476914 191.713298 
L 1229.083409 192.074296 
L 1229.689905 197.276983 
L 1230.2964 192.892961 
L 1230.902896 193.643394 
L 1231.509391 198.923416 
L 1232.115886 201.745307 
L 1232.722382 201.830111 
L 1233.328877 206.02745 
L 1233.935372 212.93978 
L 1234.541868 217.134358 
L 1235.148363 222.707145 
L 1235.754858 226.51505 
L 1236.361354 228.315022 
L 1236.967849 232.995701 
L 1237.574345 228.283008 
L 1238.18084 217.308987 
L 1238.787335 216.449207 
L 1239.393831 211.363651 
L 1240.000326 204.220447 
L 1240.606821 200.615294 
L 1241.213317 198.882738 
L 1241.819812 211.80506 
L 1242.426308 210.368032 
L 1243.032803 211.875238 
L 1243.639298 214.810369 
L 1244.245794 210.801971 
L 1244.852289 221.633501 
L 1245.458784 223.781477 
L 1246.06528 208.38006 
L 1246.671775 206.434835 
L 1247.278271 200.680889 
L 1247.884766 196.316201 
L 1248.491261 198.828754 
L 1249.097757 184.092965 
L 1249.704252 185.224546 
L 1250.310747 195.418066 
L 1250.917243 202.84688 
L 1251.523738 208.759387 
L 1252.130233 208.167515 
L 1252.736729 204.407693 
L 1253.343224 211.48574 
L 1253.94972 207.493914 
L 1254.556215 198.096963 
L 1255.16271 198.040908 
L 1255.769206 201.382045 
L 1256.982196 212.406094 
L 1257.588692 206.063854 
L 1258.195187 206.405519 
L 1258.801683 215.933411 
L 1259.408178 217.921195 
L 1260.014673 220.914326 
L 1260.621169 218.587953 
L 1261.227664 219.070477 
L 1261.834159 228.82761 
L 1262.440655 234.624115 
L 1263.04715 232.855655 
L 1263.653645 235.321255 
L 1265.473132 253.069822 
L 1266.079627 250.823545 
L 1266.686122 242.871092 
L 1267.292618 243.933624 
L 1267.899113 239.712557 
L 1268.505608 228.423675 
L 1269.112104 222.559251 
L 1269.718599 218.012275 
L 1270.325095 218.2407 
L 1270.93159 223.3771 
L 1271.538085 216.634378 
L 1272.144581 219.729701 
L 1272.751076 225.236202 
L 1273.357571 227.074841 
L 1273.964067 228.068325 
L 1274.570562 226.153481 
L 1275.177058 231.599219 
L 1275.783553 239.793092 
L 1276.390048 242.678508 
L 1276.996544 248.124246 
L 1277.603039 252.48454 
L 1278.209534 258.974292 
L 1278.81603 255.045992 
L 1279.422525 247.756405 
L 1280.02902 253.008806 
L 1280.635516 254.317152 
L 1281.242011 249.295121 
L 1281.848507 247.521137 
L 1282.455002 243.355309 
L 1283.061497 252.800342 
L 1283.667993 255.439945 
L 1284.274488 243.604197 
L 1284.880983 235.171165 
L 1285.487479 231.143434 
L 1286.70047 242.319391 
L 1287.306965 242.445624 
L 1287.91346 247.010302 
L 1288.519956 260.322057 
L 1289.126451 269.278226 
L 1289.732946 276.02484 
L 1290.339442 274.764577 
L 1290.945937 278.243811 
L 1291.552433 277.221076 
L 1292.158928 274.872607 
L 1292.765423 273.374817 
L 1293.978414 252.081356 
L 1294.584909 243.474322 
L 1295.191405 228.843487 
L 1295.7979 224.070031 
L 1296.404395 221.232698 
L 1297.010891 207.159776 
L 1297.617386 205.587413 
L 1298.223882 210.679623 
L 1298.830377 220.392565 
L 1299.436872 226.316119 
L 1300.043368 224.912235 
L 1300.649863 220.130493 
L 1301.256358 226.026428 
L 1301.862854 229.837095 
L 1302.469349 223.428569 
L 1303.075845 211.493391 
L 1303.68234 212.682973 
L 1304.288835 210.922798 
L 1304.895331 210.794933 
L 1305.501826 207.184256 
L 1306.108321 208.473267 
L 1306.714817 210.336764 
L 1307.321312 206.828278 
L 1307.927807 199.044303 
L 1308.534303 200.79456 
L 1309.140798 203.133111 
L 1309.747294 197.622216 
L 1310.353789 189.515093 
L 1310.960284 186.517567 
L 1311.56678 189.665368 
L 1312.173275 194.069853 
L 1312.77977 193.10788 
L 1313.386266 197.537223 
L 1313.992761 211.672037 
L 1315.812247 227.100572 
L 1316.418743 222.647501 
L 1317.025238 225.742825 
L 1317.631733 218.138376 
L 1318.238229 205.297281 
L 1318.844724 198.325318 
L 1319.45122 188.544457 
L 1320.057715 180.937246 
L 1320.66421 182.933316 
L 1322.483696 175.316187 
L 1323.090192 191.478269 
L 1323.696687 197.390775 
L 1324.303182 201.92231 
L 1324.909678 204.548103 
L 1325.516173 199.349307 
L 1326.122669 198.688387 
L 1326.729164 204.658894 
L 1327.335659 190.279396 
L 1328.54865 177.437485 
L 1329.155145 164.676486 
L 1329.761641 166.330075 
L 1330.368136 161.197566 
L 1330.974632 149.632489 
L 1331.581127 147.554691 
L 1332.187622 141.952652 
L 1332.794118 137.48301 
L 1333.400613 135.557119 
L 1334.007108 132.926932 
L 1334.613604 138.110285 
L 1335.220099 142.3021 
L 1335.826594 140.622022 
L 1336.43309 141.032736 
L 1337.039585 136.982909 
L 1337.646081 135.186829 
L 1338.252576 125.074535 
L 1338.859071 119.549831 
L 1339.465567 116.057917 
L 1340.072062 114.803178 
L 1340.678557 118.928707 
L 1341.285053 126.550857 
L 1341.891548 129.541226 
L 1342.498044 136.061361 
L 1343.104539 135.397678 
L 1343.711034 132.604536 
L 1344.31753 132.41867 
L 1344.924025 128.993043 
L 1345.53052 122.407751 
L 1346.137016 126.099655 
L 1347.350007 130.38456 
L 1347.956502 132.225961 
L 1348.562997 131.888188 
L 1349.169493 126.335863 
L 1349.775988 123.835488 
L 1350.382483 119.998331 
L 1350.988979 119.920181 
L 1351.595474 123.150839 
L 1352.201969 123.710698 
L 1352.808465 123.472355 
L 1354.627951 137.655252 
L 1355.234446 135.168686 
L 1355.840942 130.254371 
L 1356.447437 128.461053 
L 1357.053932 130.031783 
L 1357.660428 136.615442 
L 1358.266923 136.194811 
L 1358.873419 137.42306 
L 1359.479914 141.733639 
L 1360.086409 144.447814 
L 1360.692905 139.337401 
L 1361.2994 130.484553 
L 1361.905895 124.689178 
L 1362.512391 122.012038 
L 1364.331877 96.124648 
L 1364.938372 100.250176 
L 1365.544868 102.757206 
L 1366.757858 96.027477 
L 1367.364354 97.733543 
L 1367.970849 100.193619 
L 1369.18384 103.793562 
L 1369.790335 108.477003 
L 1370.396831 110.972985 
L 1371.003326 114.427361 
L 1371.609821 114.697216 
L 1372.216317 111.677594 
L 1372.822812 107.790723 
L 1374.035803 96.912554 
L 1374.642298 101.554566 
L 1375.248794 100.28878 
L 1376.461784 99.513803 
L 1377.06828 102.026356 
L 1377.674775 106.961134 
L 1378.28127 108.968252 
L 1378.887766 102.247625 
L 1379.494261 98.794379 
L 1380.100756 98.219078 
L 1380.707252 98.417122 
L 1381.313747 101.946071 
L 1381.920243 101.738109 
L 1382.526738 100.008316 
L 1383.133233 95.229336 
L 1383.739729 99.349341 
L 1384.346224 95.655805 
L 1384.952719 97.867306 
L 1385.559215 97.104194 
L 1386.772206 94.779766 
L 1387.378701 100.197885 
L 1387.985196 97.888083 
L 1388.591692 94.799414 
L 1389.198187 91.078258 
L 1389.804682 88.613788 
L 1390.411178 88.615734 
L 1391.017673 92.953932 
L 1391.624169 89.125061 
L 1392.230664 88.342615 
L 1392.837159 90.454686 
L 1393.443655 93.806871 
L 1394.05015 93.140426 
L 1394.656645 85.986174 
L 1395.263141 81.975015 
L 1395.869636 85.045481 
L 1396.476131 86.312397 
L 1397.082627 85.996719 
L 1397.689122 92.072181 
L 1398.295618 93.960534 
L 1398.902113 101.276109 
L 1399.508608 101.471391 
L 1400.115104 97.559661 
L 1400.721599 97.873707 
L 1401.328094 100.038255 
L 1401.93459 92.828764 
L 1402.541085 91.237068 
L 1403.754076 86.97928 
L 1404.360571 96.101166 
L 1404.967067 97.044935 
L 1406.180057 101.086789 
L 1406.786553 100.185579 
L 1407.393048 104.59835 
L 1407.999543 107.67434 
L 1408.606039 99.824078 
L 1409.212534 98.842772 
L 1409.81903 89.266295 
L 1410.425525 87.379071 
L 1411.03202 87.571591 
L 1411.638516 78.271308 
L 1412.245011 75.083208 
L 1412.851506 75.656877 
L 1413.458002 75.27215 
L 1414.064497 85.89101 
L 1415.277488 80.122438 
L 1415.883983 87.294391 
L 1416.490479 91.011152 
L 1417.096974 91.858253 
L 1418.309965 79.670923 
L 1418.91646 81.642135 
L 1419.522956 84.118783 
L 1420.129451 80.140767 
L 1420.735946 79.25889 
L 1421.342442 77.186616 
L 1421.948937 80.679659 
L 1422.555432 79.839212 
L 1423.161928 81.854615 
L 1423.768423 83.187818 
L 1424.374918 86.738863 
L 1424.981414 81.388161 
L 1425.587909 84.044335 
L 1426.194405 89.274641 
L 1426.8009 92.262249 
L 1427.407395 90.250737 
L 1428.013891 85.082323 
L 1428.620386 82.007463 
L 1429.226881 86.771001 
L 1429.833377 86.759137 
L 1430.439872 84.579147 
L 1431.046368 87.923045 
L 1431.652863 81.216229 
L 1432.259358 83.941451 
L 1432.865854 84.929411 
L 1433.472349 87.502727 
L 1434.078844 87.631723 
L 1434.68534 92.580311 
L 1435.291835 94.684096 
L 1435.898331 101.864335 
L 1436.504826 101.512752 
L 1437.111321 106.68782 
L 1437.717817 105.75899 
L 1438.324312 107.782679 
L 1438.930807 99.60927 
L 1439.537303 98.053479 
L 1440.750293 110.30107 
L 1441.963284 106.827674 
L 1442.56978 111.29016 
L 1443.78277 115.92307 
L 1444.389266 106.832695 
L 1444.995761 110.723459 
L 1445.602256 118.193702 
L 1446.208752 128.88161 
L 1446.815247 125.87856 
L 1447.421743 137.060857 
L 1448.028238 139.490552 
L 1448.634733 145.60468 
L 1449.241229 147.959803 
L 1449.847724 142.678149 
L 1450.454219 139.230426 
L 1451.060715 147.755732 
L 1451.66721 149.483893 
L 1452.880201 166.915653 
L 1453.486696 169.212775 
L 1454.093192 176.354347 
L 1454.699687 178.643182 
L 1455.306182 179.702953 
L 1456.519173 182.715418 
L 1457.125668 177.248714 
L 1457.732164 178.736586 
L 1458.945155 171.341229 
L 1460.158145 159.918957 
L 1460.764641 149.381324 
L 1461.977631 136.078168 
L 1462.584127 139.833596 
L 1463.190622 142.009192 
L 1463.797118 150.366019 
L 1464.403613 149.738242 
L 1465.010108 149.370087 
L 1465.616604 156.285179 
L 1466.223099 161.217196 
L 1466.829594 160.744087 
L 1467.43609 156.760547 
L 1468.042585 158.51909 
L 1468.64908 167.060967 
L 1469.255576 183.363908 
L 1469.862071 187.771155 
L 1470.468567 186.262318 
L 1471.075062 188.368865 
L 1471.681557 191.798384 
L 1472.288053 188.961051 
L 1472.894548 187.783646 
L 1473.501043 174.089111 
L 1474.107539 174.033056 
L 1474.714034 182.102641 
L 1475.32053 179.047114 
L 1475.927025 177.560372 
L 1476.53352 179.387963 
L 1477.140016 178.776757 
L 1477.746511 190.859447 
L 1478.353006 189.693091 
L 1478.959502 187.595959 
L 1480.172493 196.211593 
L 1480.778988 195.122571 
L 1481.991979 198.261269 
L 1482.598474 194.283253 
L 1483.204969 204.065244 
L 1483.811465 207.33457 
L 1484.41796 211.233619 
L 1485.024455 211.688524 
L 1486.237446 202.160946 
L 1486.843942 205.662275 
L 1487.450437 199.303463 
L 1488.663428 196.318931 
L 1489.269923 208.042568 
L 1489.876418 205.180378 
L 1490.482914 199.49548 
L 1491.089409 195.177745 
L 1491.695905 180.226525 
L 1492.3024 172.075211 
L 1492.908895 173.50232 
L 1493.515391 168.991249 
L 1494.121886 176.806735 
L 1494.728381 181.258174 
L 1495.334877 188.275458 
L 1495.941372 203.968009 
L 1496.547867 211.062628 
L 1497.154363 220.388898 
L 1497.760858 223.266027 
L 1498.367354 234.72728 
L 1498.973849 239.662058 
L 1500.18684 236.172091 
L 1500.793335 239.590562 
L 1501.39983 231.820396 
L 1502.006326 233.968373 
L 1502.612821 232.52306 
L 1503.219317 229.246578 
L 1503.825812 231.31722 
L 1504.432307 232.00689 
L 1505.038803 243.639383 
L 1505.645298 241.058911 
L 1506.858289 225.74506 
L 1507.464784 229.312675 
L 1508.07128 232.026851 
L 1508.677775 237.174299 
L 1509.28427 238.129115 
L 1509.890766 245.858981 
L 1510.497261 250.274514 
L 1511.103756 257.029414 
L 1511.710252 260.398169 
L 1512.316747 261.004981 
L 1512.923242 267.138443 
L 1513.529738 256.946053 
L 1514.136233 255.608456 
L 1514.742729 250.72176 
L 1515.349224 248.892537 
L 1516.562215 238.105512 
L 1517.16871 221.113215 
L 1517.775205 212.876281 
L 1518.381701 206.951094 
L 1519.594692 209.145208 
L 1520.201187 206.103491 
L 1520.807682 210.052255 
L 1521.414178 224.482598 
L 1522.020673 230.138244 
L 1522.627168 233.573286 
L 1523.233664 235.456116 
L 1523.840159 226.893273 
L 1524.446654 226.5555 
L 1525.05315 223.55245 
L 1525.659645 211.023455 
L 1526.266141 212.75714 
L 1526.872636 210.157334 
L 1527.479131 212.625696 
L 1528.085627 207.335757 
L 1528.692122 211.560715 
L 1529.298617 217.674844 
L 1529.905113 213.741019 
L 1530.511608 212.196276 
L 1531.118104 214.175774 
L 1531.724599 206.676279 
L 1532.331094 210.713426 
L 1532.93759 208.144001 
L 1533.544085 207.096408 
L 1534.15058 213.865118 
L 1534.757076 209.168996 
L 1535.363571 214.529114 
L 1535.970067 221.615447 
L 1536.576562 217.173424 
L 1537.183057 220.401321 
L 1538.396048 210.191543 
L 1539.002543 210.455873 
L 1539.609039 200.006622 
L 1540.215534 196.658329 
L 1540.822029 199.455363 
L 1541.428525 194.563143 
L 1542.03502 194.697663 
L 1542.641516 192.222144 
L 1543.248011 192.400855 
L 1543.854506 199.025943 
L 1544.461002 199.268178 
L 1545.067497 200.689763 
L 1545.673992 199.266546 
L 1546.280488 196.050826 
L 1546.886983 195.895341 
L 1547.493479 194.737271 
L 1548.706469 179.161035 
L 1549.312965 176.749041 
L 1549.91946 171.74082 
L 1550.525955 173.051927 
L 1551.132451 174.948567 
L 1551.738946 176.157483 
L 1552.345442 180.321678 
L 1552.951937 185.582366 
L 1553.558432 185.316403 
L 1554.164928 189.204405 
L 1554.771423 187.527089 
L 1555.377918 189.31325 
L 1556.590909 186.171288 
L 1556.590909 186.171288 
" clip-path="url(#pdbc4720635)" style="fill: none; stroke: #f55fe6; stroke-width: 2.5; stroke-linecap: square"/>
   </g>
   <g id="patch_3">
    <path d="M 225 320.4 
L 225 43.2 
" style="fill: none; stroke: #000000; stroke-width: 0.8; stroke-linejoin: miter; stroke-linecap: square"/>
   </g>
   <g id="patch_4">
    <path d="M 1620 320.4 
L 1620 43.2 
" style="fill: none; stroke: #000000; stroke-width: 0.8; stroke-linejoin: miter; stroke-linecap: square"/>
   </g>
   <g id="patch_5">
    <path d="M 225 320.4 
L 1620 320.4 
" style="fill: none; stroke: #000000; stroke-width: 0.8; stroke-linejoin: miter; stroke-linecap: square"/>
   </g>
   <g id="patch_6">
    <path d="M 225 43.2 
L 1620 43.2 
" style="fill: none; stroke: #000000; stroke-width: 0.8; stroke-linejoin: miter; stroke-linecap: square"/>
   </g>
   <g id="text_18">
    <!-- KOE2 -->
    <g transform="translate(895.939062 37.2) scale(0.2 -0.2)">
     <defs>
      <path id="DejaVuSans-4b" d="M 628 4666 
L 1259 4666 
L 1259 2694 
L 3353 4666 
L 4166 4666 
L 1850 2491 
L 4331 0 
L 3500 0 
L 1259 2247 
L 1259 0 
L 628 0 
L 628 4666 
z
" transform="scale(0.015625)"/>
      <path id="DejaVuSans-4f" d="M 2522 4238 
Q 1834 4238 1429 3725 
Q 1025 3213 1025 2328 
Q 1025 1447 1429 934 
Q 1834 422 2522 422 
Q 3209 422 3611 934 
Q 4013 1447 4013 2328 
Q 4013 3213 3611 3725 
Q 3209 4238 2522 4238 
z
M 2522 4750 
Q 3503 4750 4090 4092 
Q 4678 3434 4678 2328 
Q 4678 1225 4090 567 
Q 3503 -91 2522 -91 
Q 1538 -91 948 565 
Q 359 1222 359 2328 
Q 359 3434 948 4092 
Q 1538 4750 2522 4750 
z
" transform="scale(0.015625)"/>
     </defs>
     <use xlink:href="#DejaVuSans-4b"/>
     <use xlink:href="#DejaVuSans-4f" x="60.076172"/>
     <use xlink:href="#DejaVuSans-45" x="138.787109"/>
     <use xlink:href="#DejaVuSans-32" x="201.970703"/>
    </g>
   </g>
   <g id="legend_1">
    <g id="patch_7">
     <path d="M 1556.9375 65.878125 
L 1613 65.878125 
Q 1615 65.878125 1615 63.878125 
L 1615 50.2 
Q 1615 48.2 1613 48.2 
L 1556.9375 48.2 
Q 1554.9375 48.2 1554.9375 50.2 
L 1554.9375 63.878125 
Q 1554.9375 65.878125 1556.9375 65.878125 
z
" style="fill: #ffffff; opacity: 0.8; stroke: #cccccc; stroke-linejoin: miter"/>
    </g>
    <g id="line2d_17">
     <path d="M 1558.9375 56.298437 
L 1568.9375 56.298437 
L 1578.9375 56.298437 
" style="fill: none; stroke: #f55fe6; stroke-width: 2.5; stroke-linecap: square"/>
    </g>
    <g id="text_19">
     <!-- koe2 -->
     <g transform="translate(1586.9375 59.798437) scale(0.1 -0.1)">
      <defs>
       <path id="DejaVuSans-6b" d="M 581 4863 
L 1159 4863 
L 1159 1991 
L 2875 3500 
L 3609 3500 
L 1753 1863 
L 3688 0 
L 2938 0 
L 1159 1709 
L 1159 0 
L 581 0 
L 581 4863 
z
" transform="scale(0.015625)"/>
       <path id="DejaVuSans-6f" d="M 1959 3097 
Q 1497 3097 1228 2736 
Q 959 2375 959 1747 
Q 959 1119 1226 758 
Q 1494 397 1959 397 
Q 2419 397 2687 759 
Q 2956 1122 2956 1747 
Q 2956 2369 2687 2733 
Q 2419 3097 1959 3097 
z
M 1959 3584 
Q 2709 3584 3137 3096 
Q 3566 2609 3566 1747 
Q 3566 888 3137 398 
Q 2709 -91 1959 -91 
Q 1206 -91 779 398 
Q 353 888 353 1747 
Q 353 2609 779 3096 
Q 1206 3584 1959 3584 
z
" transform="scale(0.015625)"/>
      </defs>
      <use xlink:href="#DejaVuSans-6b"/>
      <use xlink:href="#DejaVuSans-6f" x="54.285156"/>
      <use xlink:href="#DejaVuSans-65" x="115.466797"/>
      <use xlink:href="#DejaVuSans-32" x="176.990234"/>
     </g>
    </g>
   </g>
  </g>
 </g>
 <defs>
  <clipPath id="pdbc4720635">
   <rect x="225" y="43.2" width="1395" height="277.2"/>
  </clipPath>
 </defs>
</svg>
