<?xml version="1.0" encoding="utf-8" standalone="no"?>
<!DOCTYPE svg PUBLIC "-//W3C//DTD SVG 1.1//EN"
  "http://www.w3.org/Graphics/SVG/1.1/DTD/svg11.dtd">
<svg xmlns:xlink="http://www.w3.org/1999/xlink" width="1800pt" height="360pt" viewBox="0 0 1800 360" xmlns="http://www.w3.org/2000/svg" version="1.1">
 <metadata>
  <rdf:RDF xmlns:dc="http://purl.org/dc/elements/1.1/" xmlns:cc="http://creativecommons.org/ns#" xmlns:rdf="http://www.w3.org/1999/02/22-rdf-syntax-ns#">
   <cc:Work>
    <dc:type rdf:resource="http://purl.org/dc/dcmitype/StillImage"/>
    <dc:date>2024-03-25T14:05:55.687804</dc:date>
    <dc:format>image/svg+xml</dc:format>
    <dc:creator>
     <cc:Agent>
      <dc:title>Matplotlib v3.7.2, https://matplotlib.org/</dc:title>
     </cc:Agent>
    </dc:creator>
   </cc:Work>
  </rdf:RDF>
 </metadata>
 <defs>
  <style type="text/css">*{stroke-linejoin: round; stroke-linecap: butt}</style>
 </defs>
 <g id="figure_1">
  <g id="patch_1">
   <path d="M 0 360 
L 1800 360 
L 1800 0 
L 0 0 
z
" style="fill: #ffffff"/>
  </g>
  <g id="axes_1">
   <g id="patch_2">
    <path d="M 225 320.4 
L 1620 320.4 
L 1620 43.2 
L 225 43.2 
z
" style="fill: #ffffff"/>
   </g>
   <g id="matplotlib.axis_1">
    <g id="xtick_1">
     <g id="line2d_1">
      <defs>
       <path id="mde7c6d8a9b" d="M 0 0 
L 0 3.5 
" style="stroke: #000000; stroke-width: 0.8"/>
      </defs>
      <g>
       <use xlink:href="#mde7c6d8a9b" x="281.508762" y="320.4" style="stroke: #000000; stroke-width: 0.8"/>
      </g>
     </g>
     <g id="text_1">
      <!-- 2011 -->
      <g transform="translate(262.421262 338.797656) scale(0.15 -0.15)">
       <defs>
        <path id="DejaVuSans-32" d="M 1228 531 
L 3431 531 
L 3431 0 
L 469 0 
L 469 531 
Q 828 903 1448 1529 
Q 2069 2156 2228 2338 
Q 2531 2678 2651 2914 
Q 2772 3150 2772 3378 
Q 2772 3750 2511 3984 
Q 2250 4219 1831 4219 
Q 1534 4219 1204 4116 
Q 875 4013 500 3803 
L 500 4441 
Q 881 4594 1212 4672 
Q 1544 4750 1819 4750 
Q 2544 4750 2975 4387 
Q 3406 4025 3406 3419 
Q 3406 3131 3298 2873 
Q 3191 2616 2906 2266 
Q 2828 2175 2409 1742 
Q 1991 1309 1228 531 
z
" transform="scale(0.015625)"/>
        <path id="DejaVuSans-30" d="M 2034 4250 
Q 1547 4250 1301 3770 
Q 1056 3291 1056 2328 
Q 1056 1369 1301 889 
Q 1547 409 2034 409 
Q 2525 409 2770 889 
Q 3016 1369 3016 2328 
Q 3016 3291 2770 3770 
Q 2525 4250 2034 4250 
z
M 2034 4750 
Q 2819 4750 3233 4129 
Q 3647 3509 3647 2328 
Q 3647 1150 3233 529 
Q 2819 -91 2034 -91 
Q 1250 -91 836 529 
Q 422 1150 422 2328 
Q 422 3509 836 4129 
Q 1250 4750 2034 4750 
z
" transform="scale(0.015625)"/>
        <path id="DejaVuSans-31" d="M 794 531 
L 1825 531 
L 1825 4091 
L 703 3866 
L 703 4441 
L 1819 4666 
L 2450 4666 
L 2450 531 
L 3481 531 
L 3481 0 
L 794 0 
L 794 531 
z
" transform="scale(0.015625)"/>
       </defs>
       <use xlink:href="#DejaVuSans-32"/>
       <use xlink:href="#DejaVuSans-30" x="63.623047"/>
       <use xlink:href="#DejaVuSans-31" x="127.246094"/>
       <use xlink:href="#DejaVuSans-31" x="190.869141"/>
      </g>
     </g>
    </g>
    <g id="xtick_2">
     <g id="line2d_2">
      <g>
       <use xlink:href="#mde7c6d8a9b" x="461.410186" y="320.4" style="stroke: #000000; stroke-width: 0.8"/>
      </g>
     </g>
     <g id="text_2">
      <!-- 2012 -->
      <g transform="translate(442.322686 338.797656) scale(0.15 -0.15)">
       <use xlink:href="#DejaVuSans-32"/>
       <use xlink:href="#DejaVuSans-30" x="63.623047"/>
       <use xlink:href="#DejaVuSans-31" x="127.246094"/>
       <use xlink:href="#DejaVuSans-32" x="190.869141"/>
      </g>
     </g>
    </g>
    <g id="xtick_3">
     <g id="line2d_3">
      <g>
       <use xlink:href="#mde7c6d8a9b" x="641.804491" y="320.4" style="stroke: #000000; stroke-width: 0.8"/>
      </g>
     </g>
     <g id="text_3">
      <!-- 2013 -->
      <g transform="translate(622.716991 338.797656) scale(0.15 -0.15)">
       <defs>
        <path id="DejaVuSans-33" d="M 2597 2516 
Q 3050 2419 3304 2112 
Q 3559 1806 3559 1356 
Q 3559 666 3084 287 
Q 2609 -91 1734 -91 
Q 1441 -91 1130 -33 
Q 819 25 488 141 
L 488 750 
Q 750 597 1062 519 
Q 1375 441 1716 441 
Q 2309 441 2620 675 
Q 2931 909 2931 1356 
Q 2931 1769 2642 2001 
Q 2353 2234 1838 2234 
L 1294 2234 
L 1294 2753 
L 1863 2753 
Q 2328 2753 2575 2939 
Q 2822 3125 2822 3475 
Q 2822 3834 2567 4026 
Q 2313 4219 1838 4219 
Q 1578 4219 1281 4162 
Q 984 4106 628 3988 
L 628 4550 
Q 988 4650 1302 4700 
Q 1616 4750 1894 4750 
Q 2613 4750 3031 4423 
Q 3450 4097 3450 3541 
Q 3450 3153 3228 2886 
Q 3006 2619 2597 2516 
z
" transform="scale(0.015625)"/>
       </defs>
       <use xlink:href="#DejaVuSans-32"/>
       <use xlink:href="#DejaVuSans-30" x="63.623047"/>
       <use xlink:href="#DejaVuSans-31" x="127.246094"/>
       <use xlink:href="#DejaVuSans-33" x="190.869141"/>
      </g>
     </g>
    </g>
    <g id="xtick_4">
     <g id="line2d_4">
      <g>
       <use xlink:href="#mde7c6d8a9b" x="821.705915" y="320.4" style="stroke: #000000; stroke-width: 0.8"/>
      </g>
     </g>
     <g id="text_4">
      <!-- 2014 -->
      <g transform="translate(802.618415 338.797656) scale(0.15 -0.15)">
       <defs>
        <path id="DejaVuSans-34" d="M 2419 4116 
L 825 1625 
L 2419 1625 
L 2419 4116 
z
M 2253 4666 
L 3047 4666 
L 3047 1625 
L 3713 1625 
L 3713 1100 
L 3047 1100 
L 3047 0 
L 2419 0 
L 2419 1100 
L 313 1100 
L 313 1709 
L 2253 4666 
z
" transform="scale(0.015625)"/>
       </defs>
       <use xlink:href="#DejaVuSans-32"/>
       <use xlink:href="#DejaVuSans-30" x="63.623047"/>
       <use xlink:href="#DejaVuSans-31" x="127.246094"/>
       <use xlink:href="#DejaVuSans-34" x="190.869141"/>
      </g>
     </g>
    </g>
    <g id="xtick_5">
     <g id="line2d_5">
      <g>
       <use xlink:href="#mde7c6d8a9b" x="1001.607338" y="320.4" style="stroke: #000000; stroke-width: 0.8"/>
      </g>
     </g>
     <g id="text_5">
      <!-- 2015 -->
      <g transform="translate(982.519838 338.797656) scale(0.15 -0.15)">
       <defs>
        <path id="DejaVuSans-35" d="M 691 4666 
L 3169 4666 
L 3169 4134 
L 1269 4134 
L 1269 2991 
Q 1406 3038 1543 3061 
Q 1681 3084 1819 3084 
Q 2600 3084 3056 2656 
Q 3513 2228 3513 1497 
Q 3513 744 3044 326 
Q 2575 -91 1722 -91 
Q 1428 -91 1123 -41 
Q 819 9 494 109 
L 494 744 
Q 775 591 1075 516 
Q 1375 441 1709 441 
Q 2250 441 2565 725 
Q 2881 1009 2881 1497 
Q 2881 1984 2565 2268 
Q 2250 2553 1709 2553 
Q 1456 2553 1204 2497 
Q 953 2441 691 2322 
L 691 4666 
z
" transform="scale(0.015625)"/>
       </defs>
       <use xlink:href="#DejaVuSans-32"/>
       <use xlink:href="#DejaVuSans-30" x="63.623047"/>
       <use xlink:href="#DejaVuSans-31" x="127.246094"/>
       <use xlink:href="#DejaVuSans-35" x="190.869141"/>
      </g>
     </g>
    </g>
    <g id="xtick_6">
     <g id="line2d_6">
      <g>
       <use xlink:href="#mde7c6d8a9b" x="1181.508762" y="320.4" style="stroke: #000000; stroke-width: 0.8"/>
      </g>
     </g>
     <g id="text_6">
      <!-- 2016 -->
      <g transform="translate(1162.421262 338.797656) scale(0.15 -0.15)">
       <defs>
        <path id="DejaVuSans-36" d="M 2113 2584 
Q 1688 2584 1439 2293 
Q 1191 2003 1191 1497 
Q 1191 994 1439 701 
Q 1688 409 2113 409 
Q 2538 409 2786 701 
Q 3034 994 3034 1497 
Q 3034 2003 2786 2293 
Q 2538 2584 2113 2584 
z
M 3366 4563 
L 3366 3988 
Q 3128 4100 2886 4159 
Q 2644 4219 2406 4219 
Q 1781 4219 1451 3797 
Q 1122 3375 1075 2522 
Q 1259 2794 1537 2939 
Q 1816 3084 2150 3084 
Q 2853 3084 3261 2657 
Q 3669 2231 3669 1497 
Q 3669 778 3244 343 
Q 2819 -91 2113 -91 
Q 1303 -91 875 529 
Q 447 1150 447 2328 
Q 447 3434 972 4092 
Q 1497 4750 2381 4750 
Q 2619 4750 2861 4703 
Q 3103 4656 3366 4563 
z
" transform="scale(0.015625)"/>
       </defs>
       <use xlink:href="#DejaVuSans-32"/>
       <use xlink:href="#DejaVuSans-30" x="63.623047"/>
       <use xlink:href="#DejaVuSans-31" x="127.246094"/>
       <use xlink:href="#DejaVuSans-36" x="190.869141"/>
      </g>
     </g>
    </g>
    <g id="xtick_7">
     <g id="line2d_7">
      <g>
       <use xlink:href="#mde7c6d8a9b" x="1361.903067" y="320.4" style="stroke: #000000; stroke-width: 0.8"/>
      </g>
     </g>
     <g id="text_7">
      <!-- 2017 -->
      <g transform="translate(1342.815567 338.797656) scale(0.15 -0.15)">
       <defs>
        <path id="DejaVuSans-37" d="M 525 4666 
L 3525 4666 
L 3525 4397 
L 1831 0 
L 1172 0 
L 2766 4134 
L 525 4134 
L 525 4666 
z
" transform="scale(0.015625)"/>
       </defs>
       <use xlink:href="#DejaVuSans-32"/>
       <use xlink:href="#DejaVuSans-30" x="63.623047"/>
       <use xlink:href="#DejaVuSans-31" x="127.246094"/>
       <use xlink:href="#DejaVuSans-37" x="190.869141"/>
      </g>
     </g>
    </g>
    <g id="xtick_8">
     <g id="line2d_8">
      <g>
       <use xlink:href="#mde7c6d8a9b" x="1541.804491" y="320.4" style="stroke: #000000; stroke-width: 0.8"/>
      </g>
     </g>
     <g id="text_8">
      <!-- 2018 -->
      <g transform="translate(1522.716991 338.797656) scale(0.15 -0.15)">
       <defs>
        <path id="DejaVuSans-38" d="M 2034 2216 
Q 1584 2216 1326 1975 
Q 1069 1734 1069 1313 
Q 1069 891 1326 650 
Q 1584 409 2034 409 
Q 2484 409 2743 651 
Q 3003 894 3003 1313 
Q 3003 1734 2745 1975 
Q 2488 2216 2034 2216 
z
M 1403 2484 
Q 997 2584 770 2862 
Q 544 3141 544 3541 
Q 544 4100 942 4425 
Q 1341 4750 2034 4750 
Q 2731 4750 3128 4425 
Q 3525 4100 3525 3541 
Q 3525 3141 3298 2862 
Q 3072 2584 2669 2484 
Q 3125 2378 3379 2068 
Q 3634 1759 3634 1313 
Q 3634 634 3220 271 
Q 2806 -91 2034 -91 
Q 1263 -91 848 271 
Q 434 634 434 1313 
Q 434 1759 690 2068 
Q 947 2378 1403 2484 
z
M 1172 3481 
Q 1172 3119 1398 2916 
Q 1625 2713 2034 2713 
Q 2441 2713 2670 2916 
Q 2900 3119 2900 3481 
Q 2900 3844 2670 4047 
Q 2441 4250 2034 4250 
Q 1625 4250 1398 4047 
Q 1172 3844 1172 3481 
z
" transform="scale(0.015625)"/>
       </defs>
       <use xlink:href="#DejaVuSans-32"/>
       <use xlink:href="#DejaVuSans-30" x="63.623047"/>
       <use xlink:href="#DejaVuSans-31" x="127.246094"/>
       <use xlink:href="#DejaVuSans-38" x="190.869141"/>
      </g>
     </g>
    </g>
    <g id="text_9">
     <!-- Time -->
     <g transform="translate(904.149609 357.314844) scale(0.15 -0.15)">
      <defs>
       <path id="DejaVuSans-54" d="M -19 4666 
L 3928 4666 
L 3928 4134 
L 2272 4134 
L 2272 0 
L 1638 0 
L 1638 4134 
L -19 4134 
L -19 4666 
z
" transform="scale(0.015625)"/>
       <path id="DejaVuSans-69" d="M 603 3500 
L 1178 3500 
L 1178 0 
L 603 0 
L 603 3500 
z
M 603 4863 
L 1178 4863 
L 1178 4134 
L 603 4134 
L 603 4863 
z
" transform="scale(0.015625)"/>
       <path id="DejaVuSans-6d" d="M 3328 2828 
Q 3544 3216 3844 3400 
Q 4144 3584 4550 3584 
Q 5097 3584 5394 3201 
Q 5691 2819 5691 2113 
L 5691 0 
L 5113 0 
L 5113 2094 
Q 5113 2597 4934 2840 
Q 4756 3084 4391 3084 
Q 3944 3084 3684 2787 
Q 3425 2491 3425 1978 
L 3425 0 
L 2847 0 
L 2847 2094 
Q 2847 2600 2669 2842 
Q 2491 3084 2119 3084 
Q 1678 3084 1418 2786 
Q 1159 2488 1159 1978 
L 1159 0 
L 581 0 
L 581 3500 
L 1159 3500 
L 1159 2956 
Q 1356 3278 1631 3431 
Q 1906 3584 2284 3584 
Q 2666 3584 2933 3390 
Q 3200 3197 3328 2828 
z
" transform="scale(0.015625)"/>
       <path id="DejaVuSans-65" d="M 3597 1894 
L 3597 1613 
L 953 1613 
Q 991 1019 1311 708 
Q 1631 397 2203 397 
Q 2534 397 2845 478 
Q 3156 559 3463 722 
L 3463 178 
Q 3153 47 2828 -22 
Q 2503 -91 2169 -91 
Q 1331 -91 842 396 
Q 353 884 353 1716 
Q 353 2575 817 3079 
Q 1281 3584 2069 3584 
Q 2775 3584 3186 3129 
Q 3597 2675 3597 1894 
z
M 3022 2063 
Q 3016 2534 2758 2815 
Q 2500 3097 2075 3097 
Q 1594 3097 1305 2825 
Q 1016 2553 972 2059 
L 3022 2063 
z
" transform="scale(0.015625)"/>
      </defs>
      <use xlink:href="#DejaVuSans-54"/>
      <use xlink:href="#DejaVuSans-69" x="57.958984"/>
      <use xlink:href="#DejaVuSans-6d" x="85.742188"/>
      <use xlink:href="#DejaVuSans-65" x="183.154297"/>
     </g>
    </g>
   </g>
   <g id="matplotlib.axis_2">
    <g id="ytick_1">
     <g id="line2d_9">
      <defs>
       <path id="m34a6813760" d="M 0 0 
L -3.5 0 
" style="stroke: #000000; stroke-width: 0.8"/>
      </defs>
      <g>
       <use xlink:href="#m34a6813760" x="225" y="314.623872" style="stroke: #000000; stroke-width: 0.8"/>
      </g>
     </g>
     <g id="text_10">
      <!-- −0.008 -->
      <g transform="translate(162.488281 320.3227) scale(0.15 -0.15)">
       <defs>
        <path id="DejaVuSans-2212" d="M 678 2272 
L 4684 2272 
L 4684 1741 
L 678 1741 
L 678 2272 
z
" transform="scale(0.015625)"/>
        <path id="DejaVuSans-2e" d="M 684 794 
L 1344 794 
L 1344 0 
L 684 0 
L 684 794 
z
" transform="scale(0.015625)"/>
       </defs>
       <use xlink:href="#DejaVuSans-2212"/>
       <use xlink:href="#DejaVuSans-30" x="83.789062"/>
       <use xlink:href="#DejaVuSans-2e" x="147.412109"/>
       <use xlink:href="#DejaVuSans-30" x="179.199219"/>
       <use xlink:href="#DejaVuSans-30" x="242.822266"/>
       <use xlink:href="#DejaVuSans-38" x="306.445312"/>
      </g>
     </g>
    </g>
    <g id="ytick_2">
     <g id="line2d_10">
      <g>
       <use xlink:href="#m34a6813760" x="225" y="278.594152" style="stroke: #000000; stroke-width: 0.8"/>
      </g>
     </g>
     <g id="text_11">
      <!-- −0.006 -->
      <g transform="translate(162.488281 284.29298) scale(0.15 -0.15)">
       <use xlink:href="#DejaVuSans-2212"/>
       <use xlink:href="#DejaVuSans-30" x="83.789062"/>
       <use xlink:href="#DejaVuSans-2e" x="147.412109"/>
       <use xlink:href="#DejaVuSans-30" x="179.199219"/>
       <use xlink:href="#DejaVuSans-30" x="242.822266"/>
       <use xlink:href="#DejaVuSans-36" x="306.445312"/>
      </g>
     </g>
    </g>
    <g id="ytick_3">
     <g id="line2d_11">
      <g>
       <use xlink:href="#m34a6813760" x="225" y="242.564432" style="stroke: #000000; stroke-width: 0.8"/>
      </g>
     </g>
     <g id="text_12">
      <!-- −0.004 -->
      <g transform="translate(162.488281 248.26326) scale(0.15 -0.15)">
       <use xlink:href="#DejaVuSans-2212"/>
       <use xlink:href="#DejaVuSans-30" x="83.789062"/>
       <use xlink:href="#DejaVuSans-2e" x="147.412109"/>
       <use xlink:href="#DejaVuSans-30" x="179.199219"/>
       <use xlink:href="#DejaVuSans-30" x="242.822266"/>
       <use xlink:href="#DejaVuSans-34" x="306.445312"/>
      </g>
     </g>
    </g>
    <g id="ytick_4">
     <g id="line2d_12">
      <g>
       <use xlink:href="#m34a6813760" x="225" y="206.534712" style="stroke: #000000; stroke-width: 0.8"/>
      </g>
     </g>
     <g id="text_13">
      <!-- −0.002 -->
      <g transform="translate(162.488281 212.23354) scale(0.15 -0.15)">
       <use xlink:href="#DejaVuSans-2212"/>
       <use xlink:href="#DejaVuSans-30" x="83.789062"/>
       <use xlink:href="#DejaVuSans-2e" x="147.412109"/>
       <use xlink:href="#DejaVuSans-30" x="179.199219"/>
       <use xlink:href="#DejaVuSans-30" x="242.822266"/>
       <use xlink:href="#DejaVuSans-32" x="306.445312"/>
      </g>
     </g>
    </g>
    <g id="ytick_5">
     <g id="line2d_13">
      <g>
       <use xlink:href="#m34a6813760" x="225" y="170.504992" style="stroke: #000000; stroke-width: 0.8"/>
      </g>
     </g>
     <g id="text_14">
      <!-- 0.000 -->
      <g transform="translate(175.057813 176.20382) scale(0.15 -0.15)">
       <use xlink:href="#DejaVuSans-30"/>
       <use xlink:href="#DejaVuSans-2e" x="63.623047"/>
       <use xlink:href="#DejaVuSans-30" x="95.410156"/>
       <use xlink:href="#DejaVuSans-30" x="159.033203"/>
       <use xlink:href="#DejaVuSans-30" x="222.65625"/>
      </g>
     </g>
    </g>
    <g id="ytick_6">
     <g id="line2d_14">
      <g>
       <use xlink:href="#m34a6813760" x="225" y="134.475272" style="stroke: #000000; stroke-width: 0.8"/>
      </g>
     </g>
     <g id="text_15">
      <!-- 0.002 -->
      <g transform="translate(175.057813 140.1741) scale(0.15 -0.15)">
       <use xlink:href="#DejaVuSans-30"/>
       <use xlink:href="#DejaVuSans-2e" x="63.623047"/>
       <use xlink:href="#DejaVuSans-30" x="95.410156"/>
       <use xlink:href="#DejaVuSans-30" x="159.033203"/>
       <use xlink:href="#DejaVuSans-32" x="222.65625"/>
      </g>
     </g>
    </g>
    <g id="ytick_7">
     <g id="line2d_15">
      <g>
       <use xlink:href="#m34a6813760" x="225" y="98.445552" style="stroke: #000000; stroke-width: 0.8"/>
      </g>
     </g>
     <g id="text_16">
      <!-- 0.004 -->
      <g transform="translate(175.057813 104.14438) scale(0.15 -0.15)">
       <use xlink:href="#DejaVuSans-30"/>
       <use xlink:href="#DejaVuSans-2e" x="63.623047"/>
       <use xlink:href="#DejaVuSans-30" x="95.410156"/>
       <use xlink:href="#DejaVuSans-30" x="159.033203"/>
       <use xlink:href="#DejaVuSans-34" x="222.65625"/>
      </g>
     </g>
    </g>
    <g id="ytick_8">
     <g id="line2d_16">
      <g>
       <use xlink:href="#m34a6813760" x="225" y="62.415832" style="stroke: #000000; stroke-width: 0.8"/>
      </g>
     </g>
     <g id="text_17">
      <!-- 0.006 -->
      <g transform="translate(175.057813 68.11466) scale(0.15 -0.15)">
       <use xlink:href="#DejaVuSans-30"/>
       <use xlink:href="#DejaVuSans-2e" x="63.623047"/>
       <use xlink:href="#DejaVuSans-30" x="95.410156"/>
       <use xlink:href="#DejaVuSans-30" x="159.033203"/>
       <use xlink:href="#DejaVuSans-36" x="222.65625"/>
      </g>
     </g>
    </g>
    <g id="text_18">
     <!-- East(m) -->
     <g transform="translate(155.36875 211.140234) rotate(-90) scale(0.15 -0.15)">
      <defs>
       <path id="DejaVuSans-45" d="M 628 4666 
L 3578 4666 
L 3578 4134 
L 1259 4134 
L 1259 2753 
L 3481 2753 
L 3481 2222 
L 1259 2222 
L 1259 531 
L 3634 531 
L 3634 0 
L 628 0 
L 628 4666 
z
" transform="scale(0.015625)"/>
       <path id="DejaVuSans-61" d="M 2194 1759 
Q 1497 1759 1228 1600 
Q 959 1441 959 1056 
Q 959 750 1161 570 
Q 1363 391 1709 391 
Q 2188 391 2477 730 
Q 2766 1069 2766 1631 
L 2766 1759 
L 2194 1759 
z
M 3341 1997 
L 3341 0 
L 2766 0 
L 2766 531 
Q 2569 213 2275 61 
Q 1981 -91 1556 -91 
Q 1019 -91 701 211 
Q 384 513 384 1019 
Q 384 1609 779 1909 
Q 1175 2209 1959 2209 
L 2766 2209 
L 2766 2266 
Q 2766 2663 2505 2880 
Q 2244 3097 1772 3097 
Q 1472 3097 1187 3025 
Q 903 2953 641 2809 
L 641 3341 
Q 956 3463 1253 3523 
Q 1550 3584 1831 3584 
Q 2591 3584 2966 3190 
Q 3341 2797 3341 1997 
z
" transform="scale(0.015625)"/>
       <path id="DejaVuSans-73" d="M 2834 3397 
L 2834 2853 
Q 2591 2978 2328 3040 
Q 2066 3103 1784 3103 
Q 1356 3103 1142 2972 
Q 928 2841 928 2578 
Q 928 2378 1081 2264 
Q 1234 2150 1697 2047 
L 1894 2003 
Q 2506 1872 2764 1633 
Q 3022 1394 3022 966 
Q 3022 478 2636 193 
Q 2250 -91 1575 -91 
Q 1294 -91 989 -36 
Q 684 19 347 128 
L 347 722 
Q 666 556 975 473 
Q 1284 391 1588 391 
Q 1994 391 2212 530 
Q 2431 669 2431 922 
Q 2431 1156 2273 1281 
Q 2116 1406 1581 1522 
L 1381 1569 
Q 847 1681 609 1914 
Q 372 2147 372 2553 
Q 372 3047 722 3315 
Q 1072 3584 1716 3584 
Q 2034 3584 2315 3537 
Q 2597 3491 2834 3397 
z
" transform="scale(0.015625)"/>
       <path id="DejaVuSans-74" d="M 1172 4494 
L 1172 3500 
L 2356 3500 
L 2356 3053 
L 1172 3053 
L 1172 1153 
Q 1172 725 1289 603 
Q 1406 481 1766 481 
L 2356 481 
L 2356 0 
L 1766 0 
Q 1100 0 847 248 
Q 594 497 594 1153 
L 594 3053 
L 172 3053 
L 172 3500 
L 594 3500 
L 594 4494 
L 1172 4494 
z
" transform="scale(0.015625)"/>
       <path id="DejaVuSans-28" d="M 1984 4856 
Q 1566 4138 1362 3434 
Q 1159 2731 1159 2009 
Q 1159 1288 1364 580 
Q 1569 -128 1984 -844 
L 1484 -844 
Q 1016 -109 783 600 
Q 550 1309 550 2009 
Q 550 2706 781 3412 
Q 1013 4119 1484 4856 
L 1984 4856 
z
" transform="scale(0.015625)"/>
       <path id="DejaVuSans-29" d="M 513 4856 
L 1013 4856 
Q 1481 4119 1714 3412 
Q 1947 2706 1947 2009 
Q 1947 1309 1714 600 
Q 1481 -109 1013 -844 
L 513 -844 
Q 928 -128 1133 580 
Q 1338 1288 1338 2009 
Q 1338 2731 1133 3434 
Q 928 4138 513 4856 
z
" transform="scale(0.015625)"/>
      </defs>
      <use xlink:href="#DejaVuSans-45"/>
      <use xlink:href="#DejaVuSans-61" x="63.183594"/>
      <use xlink:href="#DejaVuSans-73" x="124.462891"/>
      <use xlink:href="#DejaVuSans-74" x="176.5625"/>
      <use xlink:href="#DejaVuSans-28" x="215.771484"/>
      <use xlink:href="#DejaVuSans-6d" x="254.785156"/>
      <use xlink:href="#DejaVuSans-29" x="352.197266"/>
     </g>
    </g>
   </g>
   <g id="line2d_17">
    <path d="M 288.409091 62.716027 
L 288.901972 55.8 
L 289.394852 67.012927 
L 289.887733 68.40025 
L 290.380613 64.059448 
L 290.873494 66.651664 
L 291.366375 68.084238 
L 291.859255 67.325826 
L 292.352136 67.493893 
L 292.845016 61.868895 
L 293.337897 61.077027 
L 293.830778 64.593284 
L 294.323658 65.636358 
L 294.816539 65.351479 
L 295.309419 68.82656 
L 295.8023 74.828867 
L 296.788061 83.253672 
L 297.280942 85.866613 
L 297.773823 86.515933 
L 298.266703 90.745064 
L 298.759584 89.510545 
L 299.252464 90.311705 
L 300.238226 96.428035 
L 300.731106 97.342431 
L 301.223987 96.86711 
L 301.716867 95.810166 
L 302.209748 98.605829 
L 302.702629 100.580528 
L 303.68839 110.29983 
L 304.674151 115.788213 
L 305.167032 118.684244 
L 305.659912 120.875122 
L 307.138554 103.135415 
L 307.631435 101.283244 
L 308.124315 96.198692 
L 308.617196 88.260071 
L 309.110077 84.313029 
L 309.602957 85.603164 
L 310.095838 82.4951 
L 310.588719 78.617543 
L 311.081599 77.156552 
L 311.57448 82.466574 
L 312.560241 96.931505 
L 313.053122 105.769866 
L 313.546002 111.321802 
L 314.531763 123.926055 
L 315.024644 128.726514 
L 315.517525 129.697528 
L 316.010405 129.556769 
L 316.503286 132.741037 
L 316.996166 130.037021 
L 317.489047 125.59843 
L 317.981928 119.932256 
L 318.474808 115.931169 
L 318.967689 115.193345 
L 319.46057 112.865067 
L 319.95345 107.139701 
L 320.446331 104.209211 
L 320.939211 105.288315 
L 321.432092 104.457843 
L 321.924973 103.972228 
L 322.417853 107.31863 
L 322.910734 105.456165 
L 323.403614 106.102912 
L 323.896495 109.930569 
L 324.389376 107.041256 
L 324.882256 106.738363 
L 325.375137 102.840218 
L 325.868018 93.058935 
L 326.853779 78.875091 
L 327.346659 75.424744 
L 328.332421 83.056895 
L 328.825301 88.845598 
L 329.811062 105.541797 
L 330.303943 115.8162 
L 330.796824 121.664095 
L 331.289704 121.65716 
L 331.782585 123.43627 
L 332.275465 122.914624 
L 332.768346 123.566519 
L 333.261227 122.290823 
L 333.754107 116.161409 
L 334.739869 115.357459 
L 335.232749 113.02146 
L 335.72563 107.972938 
L 336.21851 105.402745 
L 336.711391 104.507935 
L 337.204272 106.001381 
L 337.697152 105.958416 
L 338.190033 106.618031 
L 338.682913 109.812594 
L 339.175794 114.58217 
L 339.668675 116.562017 
L 340.161555 116.076401 
L 340.654436 119.188611 
L 341.147317 116.963275 
L 341.640197 116.711852 
L 342.625958 110.850873 
L 343.118839 108.599802 
L 343.61172 107.836242 
L 344.1046 102.790294 
L 344.597481 104.790729 
L 345.090361 105.645934 
L 345.583242 108.032402 
L 346.076123 113.26007 
L 346.569003 115.798378 
L 348.047645 129.553793 
L 348.540526 131.652024 
L 349.033406 131.351704 
L 349.526287 130.078581 
L 350.019168 133.718369 
L 350.512048 131.065823 
L 351.004929 131.571025 
L 351.497809 129.461498 
L 352.483571 140.462428 
L 352.976451 140.190418 
L 353.469332 135.260279 
L 353.962212 143.239074 
L 354.455093 141.55161 
L 354.947974 142.355344 
L 355.440854 137.098364 
L 355.933735 135.850977 
L 357.412377 146.19129 
L 357.905257 147.831428 
L 358.398138 151.303935 
L 358.891019 150.805451 
L 359.87678 146.25441 
L 360.36966 145.145995 
L 360.862541 133.76911 
L 361.848302 126.765474 
L 362.341183 129.749006 
L 362.834064 128.663753 
L 363.326944 124.5134 
L 363.819825 124.954263 
L 364.312705 124.334823 
L 364.805586 124.796275 
L 365.298467 122.112846 
L 365.791347 117.759183 
L 366.284228 116.547826 
L 366.777108 123.358228 
L 367.269989 123.091365 
L 367.76287 127.80175 
L 368.25575 133.850381 
L 368.748631 138.370323 
L 369.734392 153.488936 
L 370.720153 154.756694 
L 371.213034 157.933242 
L 371.705915 156.425927 
L 372.198795 154.522285 
L 372.691676 154.927118 
L 373.184556 147.647327 
L 373.677437 138.694727 
L 374.170318 144.877183 
L 375.156079 141.782772 
L 375.648959 143.523278 
L 376.14184 136.415915 
L 376.634721 141.767114 
L 377.127601 150.767609 
L 377.620482 151.259943 
L 378.606243 153.387268 
L 379.099124 154.100927 
L 380.084885 173.025822 
L 380.577766 177.852017 
L 381.070646 179.013474 
L 381.563527 187.283081 
L 382.056407 190.050434 
L 382.549288 194.243535 
L 383.042169 189.313396 
L 383.535049 183.204571 
L 384.02793 182.654617 
L 384.520811 186.374184 
L 385.013691 182.017947 
L 385.506572 182.273515 
L 385.999452 184.315127 
L 386.492333 187.687265 
L 386.985214 189.17299 
L 387.478094 191.659826 
L 387.970975 185.03629 
L 388.463855 184.96759 
L 389.449617 182.148549 
L 389.942497 181.253739 
L 390.435378 178.662958 
L 390.928258 174.883197 
L 391.421139 174.86082 
L 392.4069 172.91164 
L 392.899781 166.411635 
L 393.392662 166.631172 
L 393.885542 167.581598 
L 394.378423 165.170966 
L 394.871303 173.188365 
L 395.857065 180.756177 
L 396.349945 182.736024 
L 396.842826 179.692298 
L 397.335706 180.192353 
L 397.828587 176.662226 
L 398.321468 165.223576 
L 399.307229 151.750032 
L 399.80011 153.971792 
L 400.29299 152.768156 
L 400.785871 149.40531 
L 401.771632 154.682662 
L 402.264513 154.11984 
L 402.757393 153.989374 
L 403.743154 161.63954 
L 404.236035 164.782632 
L 404.728916 170.205891 
L 405.221796 172.705595 
L 405.714677 168.874363 
L 406.207558 169.72442 
L 406.700438 168.35865 
L 407.193319 167.973403 
L 407.686199 173.427544 
L 408.17908 171.593388 
L 408.671961 172.312194 
L 409.164841 181.340998 
L 409.657722 185.531526 
L 410.150602 183.962445 
L 410.643483 186.297442 
L 411.136364 178.852943 
L 411.629244 175.263625 
L 412.122125 172.644535 
L 413.107886 172.126249 
L 413.600767 170.474815 
L 414.093647 165.588426 
L 414.586528 168.342912 
L 415.079409 169.815769 
L 415.572289 168.673898 
L 416.06517 169.366969 
L 417.050931 174.945426 
L 417.543812 179.352132 
L 418.036692 180.32572 
L 418.529573 182.570643 
L 419.022453 183.876219 
L 419.515334 184.358259 
L 420.501095 179.117506 
L 420.993976 178.997335 
L 421.486857 177.716492 
L 421.979737 176.880873 
L 422.472618 179.231311 
L 422.965498 171.979829 
L 423.458379 172.837607 
L 423.95126 174.120022 
L 424.44414 173.791393 
L 425.429901 168.66645 
L 425.922782 168.865399 
L 426.415663 171.169513 
L 426.908543 169.639036 
L 427.401424 166.137218 
L 428.387185 157.121065 
L 428.880066 154.975509 
L 429.372946 148.467783 
L 430.358708 141.729223 
L 430.851588 139.467857 
L 431.344469 138.789225 
L 431.837349 142.313203 
L 432.33023 141.534202 
L 432.823111 141.462929 
L 433.315991 141.193491 
L 433.808872 134.482455 
L 434.301752 132.249398 
L 435.287514 131.524442 
L 435.780394 126.565994 
L 436.766156 121.973776 
L 437.259036 120.435578 
L 437.751917 124.376471 
L 438.737678 123.79642 
L 439.230559 123.421467 
L 440.21632 129.54037 
L 440.7092 130.315795 
L 441.202081 133.934994 
L 441.694962 133.444231 
L 442.187842 136.021142 
L 443.173604 126.052775 
L 443.666484 124.743623 
L 444.159365 125.529342 
L 444.652245 122.660618 
L 445.145126 123.199276 
L 445.638007 118.143033 
L 446.130887 125.537632 
L 446.623768 127.486596 
L 447.609529 135.520221 
L 448.59529 137.54203 
L 449.088171 139.691731 
L 449.581051 135.778145 
L 450.073932 134.963115 
L 450.566813 129.996947 
L 451.059693 123.025982 
L 451.552574 122.725662 
L 452.045455 121.697027 
L 452.538335 122.348921 
L 453.031216 126.735038 
L 454.509858 131.659814 
L 455.495619 135.122812 
L 455.988499 135.005214 
L 456.48138 137.522933 
L 456.974261 138.244313 
L 457.960022 134.828208 
L 458.452903 135.680839 
L 458.945783 137.238624 
L 459.438664 142.05195 
L 460.424425 146.757974 
L 460.917306 151.216151 
L 461.410186 157.347136 
L 461.903067 160.124783 
L 462.395947 164.984434 
L 462.888828 171.995574 
L 463.381709 172.557394 
L 463.874589 174.135767 
L 464.36747 176.869664 
L 464.86035 173.455347 
L 465.353231 172.452447 
L 465.846112 169.022689 
L 466.338992 167.360961 
L 466.831873 170.305889 
L 467.324754 171.974336 
L 467.817634 174.659336 
L 468.803395 182.847374 
L 469.296276 182.312861 
L 469.789157 175.174615 
L 470.282037 170.869849 
L 470.774918 172.311824 
L 471.267798 164.980562 
L 471.760679 163.295671 
L 472.25356 164.091684 
L 472.74644 167.857576 
L 473.239321 169.577494 
L 473.732202 168.160253 
L 474.225082 165.875725 
L 474.717963 166.597105 
L 475.210843 165.900458 
L 475.703724 165.008221 
L 476.196605 160.698308 
L 476.689485 162.572639 
L 477.182366 163.363505 
L 477.675246 160.445884 
L 478.168127 165.277225 
L 478.661008 167.964799 
L 479.153888 167.057121 
L 480.13965 162.23843 
L 480.63253 165.996601 
L 481.125411 168.331598 
L 481.618291 168.36584 
L 482.604053 172.36671 
L 483.589814 192.308158 
L 484.082694 193.930281 
L 484.575575 198.622651 
L 485.561336 198.063188 
L 486.547097 190.611755 
L 487.039978 184.160647 
L 488.025739 182.628381 
L 488.51862 184.857863 
L 489.011501 183.89614 
L 489.504381 185.495101 
L 489.997262 185.642579 
L 490.490142 193.039752 
L 490.983023 193.828044 
L 491.475904 193.568901 
L 492.461665 192.355756 
L 492.954545 196.932316 
L 493.447426 199.529816 
L 493.940307 192.612895 
L 494.433187 189.515125 
L 494.926068 187.46479 
L 495.418949 183.800838 
L 495.911829 187.947615 
L 496.40471 186.113459 
L 496.89759 185.491445 
L 497.390471 186.760992 
L 497.883352 193.496761 
L 498.376232 195.103443 
L 498.869113 195.608645 
L 499.361993 194.124492 
L 499.854874 195.839262 
L 500.347755 192.566491 
L 500.840635 190.776085 
L 501.333516 183.208056 
L 501.826396 180.377935 
L 502.319277 181.451891 
L 502.812158 178.436475 
L 503.305038 179.368886 
L 503.797919 183.757577 
L 504.2908 186.236693 
L 505.276561 201.643543 
L 506.262322 211.694832 
L 506.755203 211.777972 
L 507.248083 210.108523 
L 507.740964 209.864821 
L 508.726725 200.418885 
L 509.219606 197.611926 
L 509.712486 195.852403 
L 510.205367 193.588463 
L 510.698248 192.086295 
L 511.191128 197.779776 
L 511.684009 197.296734 
L 512.176889 198.687238 
L 512.66977 198.425521 
L 513.162651 200.003894 
L 513.655531 197.739954 
L 514.148412 196.953233 
L 514.641292 186.58518 
L 515.134173 172.385109 
L 516.612815 155.44063 
L 517.105696 154.056845 
L 517.598576 150.858706 
L 518.091457 153.667236 
L 518.584337 161.51478 
L 519.077218 160.462983 
L 519.570099 162.491728 
L 520.55586 156.234422 
L 521.04874 155.697335 
L 521.541621 152.311327 
L 522.034502 156.748916 
L 522.527382 155.293071 
L 523.020263 150.684626 
L 523.513143 151.756009 
L 524.006024 150.660462 
L 524.498905 151.623756 
L 524.991785 149.666069 
L 525.484666 148.421256 
L 525.977547 147.549608 
L 526.470427 153.127279 
L 526.963308 155.673307 
L 527.456188 157.475579 
L 527.949069 160.613524 
L 528.44195 165.550381 
L 528.93483 166.789045 
L 529.427711 166.89792 
L 529.920591 169.142843 
L 530.413472 165.532936 
L 530.906353 168.006904 
L 531.399233 166.018335 
L 531.892114 163.538217 
L 532.384995 163.217309 
L 532.877875 170.040579 
L 533.370756 168.090613 
L 533.863636 167.249847 
L 534.356517 167.484826 
L 534.849398 163.257267 
L 535.342278 164.061 
L 535.835159 164.097816 
L 536.328039 162.142702 
L 536.82092 155.892332 
L 537.806681 163.563086 
L 538.299562 171.364306 
L 538.792442 173.133122 
L 539.285323 175.44753 
L 539.778204 176.192072 
L 540.271084 178.467877 
L 540.763965 183.968343 
L 541.749726 184.90926 
L 542.242607 190.147223 
L 542.735487 188.686231 
L 543.228368 189.70357 
L 543.721249 193.037105 
L 544.214129 188.086377 
L 544.70701 186.849285 
L 545.19989 186.170653 
L 545.692771 180.823599 
L 546.185652 184.481401 
L 546.678532 179.937295 
L 547.171413 187.499175 
L 547.664294 192.647063 
L 548.157174 194.15595 
L 548.650055 199.584356 
L 549.142935 207.588886 
L 549.635816 202.789999 
L 550.128697 211.332402 
L 550.621577 213.155262 
L 551.114458 212.667073 
L 552.100219 208.993612 
L 552.5931 201.7061 
L 553.08598 199.98518 
L 553.578861 201.24958 
L 554.071742 199.073141 
L 554.564622 200.988649 
L 555.057503 203.599016 
L 555.550383 203.890613 
L 556.536145 216.754794 
L 557.521906 215.438707 
L 558.014786 212.626601 
L 558.507667 219.382959 
L 559.493428 218.236727 
L 559.986309 220.746725 
L 560.479189 220.402655 
L 560.97207 225.043554 
L 561.464951 235.171264 
L 561.957831 228.969791 
L 562.943593 237.518127 
L 563.436473 244.84324 
L 563.929354 250.197012 
L 564.422234 250.233828 
L 564.915115 246.358845 
L 565.407996 244.666234 
L 565.900876 247.10932 
L 566.393757 244.871116 
L 566.886637 234.665196 
L 567.379518 227.992763 
L 567.872399 224.622197 
L 568.365279 219.007493 
L 568.85816 220.367114 
L 569.351041 217.948761 
L 569.843921 212.431853 
L 570.336802 218.94115 
L 570.829682 220.565847 
L 571.322563 217.416605 
L 571.815444 218.650122 
L 572.308324 220.655704 
L 572.801205 218.167866 
L 573.294085 219.774548 
L 573.786966 216.370525 
L 574.279847 217.382716 
L 574.772727 220.713677 
L 575.265608 222.68323 
L 575.758488 223.965644 
L 576.251369 227.636314 
L 576.74425 222.489997 
L 577.23713 223.738955 
L 577.730011 220.10846 
L 578.222892 222.839783 
L 578.715772 224.256022 
L 579.208653 224.668576 
L 579.701533 219.702408 
L 580.194414 224.387057 
L 580.687295 223.363569 
L 581.180175 224.018037 
L 581.673056 222.801533 
L 582.165936 223.685047 
L 582.658817 217.007466 
L 583.151698 221.584027 
L 583.644578 225.113151 
L 584.137459 225.50769 
L 584.63034 229.29417 
L 585.12322 227.171776 
L 585.616101 230.17847 
L 586.108981 236.914239 
L 586.601862 239.637842 
L 587.094743 243.488661 
L 587.587623 245.617774 
L 588.080504 247.203867 
L 588.573384 250.35468 
L 590.052026 230.720839 
L 590.544907 228.348811 
L 591.530668 219.91428 
L 592.023549 218.239684 
L 593.00931 220.899734 
L 593.502191 222.794654 
L 593.995071 214.922946 
L 594.487952 216.071535 
L 594.980832 215.86901 
L 595.473713 213.404334 
L 595.966594 210.049208 
L 596.459474 212.862886 
L 596.952355 210.591226 
L 597.445235 213.479536 
L 597.938116 212.963038 
L 598.430997 211.70021 
L 598.923877 212.076734 
L 599.416758 210.31721 
L 599.909639 212.595589 
L 600.402519 217.066634 
L 600.8954 219.501999 
L 601.38828 218.478511 
L 602.374042 215.250275 
L 602.866922 215.971656 
L 603.359803 208.60179 
L 603.852683 202.974219 
L 604.345564 195.874576 
L 604.838445 193.520562 
L 605.331325 189.944111 
L 606.317087 186.88573 
L 606.809967 189.084329 
L 607.302848 194.584794 
L 607.795728 201.47755 
L 608.288609 204.965498 
L 608.78149 210.671847 
L 609.27437 213.132948 
L 609.767251 221.235274 
L 610.260131 219.8309 
L 611.245893 209.759591 
L 611.738773 206.425054 
L 612.231654 204.333543 
L 612.724535 198.268468 
L 613.217415 187.509235 
L 613.710296 183.286823 
L 614.203176 181.740904 
L 614.696057 178.481 
L 615.188938 176.348311 
L 616.174699 167.221496 
L 616.667579 165.425943 
L 617.16046 161.877801 
L 617.653341 154.356096 
L 618.146221 148.857202 
L 618.639102 144.802071 
L 619.131982 142.852104 
L 619.624863 143.835987 
L 620.117744 139.63931 
L 621.103505 136.51659 
L 621.596386 137.430986 
L 622.089266 134.608586 
L 622.582147 135.484379 
L 623.075027 137.464226 
L 623.567908 144.64522 
L 624.060789 145.479836 
L 624.553669 145.055986 
L 625.04655 147.774442 
L 625.53943 147.790669 
L 627.018072 142.905066 
L 627.510953 142.75916 
L 628.496714 153.749796 
L 628.989595 150.317464 
L 629.482475 150.923034 
L 629.975356 150.504331 
L 630.468237 148.34076 
L 630.961117 144.684529 
L 631.453998 139.226812 
L 631.946878 137.364346 
L 632.439759 135.036068 
L 632.93264 134.318833 
L 633.918401 131.522954 
L 634.411281 128.335109 
L 634.904162 128.791413 
L 635.397043 128.36499 
L 635.889923 130.280498 
L 636.382804 129.697087 
L 636.875685 131.409284 
L 637.368565 134.632156 
L 637.861446 139.929311 
L 638.354326 138.550673 
L 638.847207 137.836012 
L 639.340088 141.75889 
L 639.832968 150.342469 
L 640.325849 150.873407 
L 640.818729 150.642573 
L 641.31161 146.705825 
L 641.804491 149.77171 
L 642.297371 149.777643 
L 642.790252 151.363736 
L 643.283133 152.067101 
L 643.776013 157.593302 
L 644.268894 161.567651 
L 644.761774 167.652312 
L 645.254655 169.181788 
L 645.747536 176.285575 
L 646.240416 181.526112 
L 646.733297 179.226142 
L 647.226177 175.832414 
L 647.719058 176.350483 
L 648.211939 176.36671 
L 648.704819 178.161261 
L 651.662103 182.933411 
L 652.647864 182.180146 
L 653.140745 184.003006 
L 653.633625 187.866693 
L 654.126506 190.459045 
L 654.619387 191.455795 
L 655.112267 196.045223 
L 655.605148 193.135322 
L 656.098028 194.322515 
L 656.590909 197.856786 
L 657.57667 208.471684 
L 658.069551 213.382806 
L 658.562432 212.632114 
L 659.055312 215.188437 
L 659.548193 215.961288 
L 660.041073 216.193693 
L 660.533954 213.592618 
L 661.026835 207.486366 
L 663.491238 185.139001 
L 663.984118 181.413284 
L 664.476999 181.758925 
L 664.96988 182.248686 
L 665.46276 187.406869 
L 665.955641 190.112457 
L 666.448521 193.482021 
L 666.941402 192.89089 
L 667.434283 197.701644 
L 668.420044 202.986716 
L 668.912924 202.49338 
L 669.405805 204.913304 
L 669.898686 203.990185 
L 670.391566 203.94722 
L 670.884447 204.326318 
L 671.377327 206.198075 
L 671.870208 203.120893 
L 672.363089 203.834553 
L 672.855969 199.601846 
L 673.34885 192.911398 
L 673.841731 192.165854 
L 674.334611 186.983507 
L 675.320372 185.283961 
L 675.813253 179.62036 
L 676.306134 177.407891 
L 676.799014 180.931869 
L 677.291895 179.854337 
L 677.784775 177.170908 
L 678.277656 170.066118 
L 678.770537 167.02754 
L 679.263417 167.58936 
L 679.756298 166.118074 
L 680.249179 167.89461 
L 680.742059 166.109351 
L 681.23494 165.716383 
L 681.72782 169.121978 
L 682.220701 176.393046 
L 682.713582 180.748281 
L 683.206462 182.424449 
L 683.699343 180.345805 
L 684.192223 187.34665 
L 684.685104 192.414759 
L 685.177985 190.796781 
L 685.670865 186.023628 
L 686.163746 182.653062 
L 686.656627 181.686192 
L 687.149507 181.298371 
L 687.642388 177.500595 
L 688.135268 176.734462 
L 689.61391 167.230121 
L 690.599671 163.538646 
L 691.092552 162.564055 
L 691.585433 156.380597 
L 692.078313 154.098642 
L 692.571194 148.97034 
L 693.064074 145.296094 
L 694.049836 145.577397 
L 694.542716 145.905024 
L 695.035597 146.767949 
L 696.021358 152.801925 
L 696.514239 153.724042 
L 697.007119 158.364941 
L 697.5 157.421234 
L 697.992881 157.694816 
L 698.485761 154.746311 
L 698.978642 153.694515 
L 699.471522 150.727995 
L 699.964403 152.875123 
L 700.457284 152.556788 
L 701.443045 157.63855 
L 701.935926 155.464685 
L 702.428806 163.464068 
L 702.921687 166.83878 
L 703.414567 165.593967 
L 703.907448 163.399513 
L 704.400329 164.815752 
L 704.893209 161.869821 
L 705.38609 162.964366 
L 705.87897 152.539695 
L 706.371851 153.3949 
L 706.864732 161.414872 
L 707.357612 162.578903 
L 707.850493 160.304669 
L 708.343373 156.699909 
L 708.836254 159.23307 
L 709.329135 159.596726 
L 709.822015 159.443099 
L 710.314896 153.22361 
L 710.807777 152.187255 
L 711.300657 154.378133 
L 711.793538 159.453962 
L 712.286418 162.584186 
L 712.779299 167.080966 
L 713.27218 168.587279 
L 713.76506 171.035513 
L 714.257941 174.71905 
L 714.750821 174.344098 
L 715.243702 176.902993 
L 715.736583 172.919921 
L 716.229463 170.903043 
L 716.722344 170.304191 
L 717.708105 170.900253 
L 718.200986 173.271279 
L 718.693866 176.756654 
L 719.186747 175.084631 
L 719.679628 177.818528 
L 720.172508 176.161947 
L 720.665389 177.959071 
L 721.158269 178.381919 
L 721.65115 177.041885 
L 722.144031 174.494855 
L 722.636911 174.858511 
L 723.129792 177.49204 
L 723.622673 184.588107 
L 724.115553 182.046224 
L 724.608434 187.603307 
L 725.101314 186.67504 
L 725.594195 182.293068 
L 726.087076 191.193195 
L 726.579956 192.115312 
L 727.072837 195.258404 
L 727.565717 202.660723 
L 728.058598 202.949747 
L 729.044359 216.277167 
L 729.53724 211.998137 
L 730.03012 211.520242 
L 730.523001 209.559982 
L 731.508762 207.585065 
L 732.001643 209.184027 
L 732.494524 216.39333 
L 732.987404 227.154134 
L 733.973165 243.263564 
L 734.466046 246.638275 
L 734.958927 250.900862 
L 735.451807 251.902759 
L 735.944688 247.760127 
L 736.437568 246.698036 
L 736.930449 243.741811 
L 737.42333 239.658371 
L 737.91621 246.690099 
L 738.409091 249.241274 
L 738.901972 255.099463 
L 739.394852 262.288178 
L 740.380613 267.073981 
L 740.873494 267.049031 
L 741.366375 261.588741 
L 741.859255 261.996148 
L 742.352136 257.138068 
L 742.845016 253.782943 
L 743.337897 249.537369 
L 743.830778 248.97712 
L 744.323658 251.795945 
L 744.816539 255.260731 
L 745.309419 257.340946 
L 745.8023 258.38402 
L 746.295181 257.095456 
L 746.788061 254.249894 
L 747.280942 258.296303 
L 747.773823 260.623579 
L 748.266703 263.617405 
L 748.759584 257.884318 
L 749.252464 259.601662 
L 749.745345 261.782246 
L 750.238226 267.401095 
L 750.731106 266.09709 
L 751.223987 260.984229 
L 751.716867 254.466209 
L 752.209748 258.131732 
L 752.702629 260.263418 
L 754.181271 249.369358 
L 754.674151 248.829698 
L 755.167032 250.562484 
L 755.659912 253.481677 
L 756.152793 244.652608 
L 756.645674 246.413702 
L 757.138554 251.036586 
L 758.124315 256.607323 
L 758.617196 254.307354 
L 759.110077 253.276145 
L 759.602957 255.994601 
L 760.095838 257.094294 
L 760.588719 253.53071 
L 761.081599 256.949172 
L 761.57448 256.76981 
L 762.06736 255.702571 
L 762.560241 251.364349 
L 763.053122 250.073212 
L 763.546002 246.254848 
L 764.038883 246.191294 
L 764.531763 238.335028 
L 765.024644 234.985049 
L 765.517525 234.723333 
L 766.010405 233.769331 
L 766.503286 237.074557 
L 766.996166 238.781607 
L 767.489047 240.056301 
L 767.981928 242.921449 
L 768.474808 244.75203 
L 768.967689 250.08264 
L 769.46057 252.242636 
L 769.95345 258.816272 
L 770.446331 260.772957 
L 770.939211 260.058295 
L 771.432092 260.828572 
L 771.924973 259.915747 
L 772.417853 262.227582 
L 772.910734 268.814086 
L 773.403614 260.087959 
L 773.896495 262.839871 
L 774.389376 263.548383 
L 774.882256 259.372295 
L 775.375137 257.20615 
L 775.868018 250.302098 
L 776.360898 240.335519 
L 776.853779 238.632613 
L 777.83954 230.63816 
L 778.332421 229.897763 
L 778.825301 234.528368 
L 779.318182 232.444577 
L 779.811062 236.982534 
L 780.303943 237.003908 
L 780.796824 235.295855 
L 781.782585 244.189047 
L 782.275465 239.578028 
L 782.768346 242.927005 
L 783.261227 248.249895 
L 783.754107 248.333034 
L 784.246988 248.681249 
L 785.72563 241.305234 
L 786.21851 241.329182 
L 786.711391 231.514442 
L 787.204272 232.060821 
L 787.697152 229.773719 
L 788.190033 229.738475 
L 788.682913 231.172729 
L 789.175794 231.47462 
L 789.668675 231.60151 
L 790.161555 233.812976 
L 790.654436 233.489495 
L 791.147317 233.534031 
L 791.640197 233.920849 
L 792.133078 233.265379 
L 792.625958 234.769119 
L 794.1046 230.653008 
L 795.090361 228.940594 
L 795.583242 226.725552 
L 796.076123 222.927776 
L 796.569003 221.852817 
L 797.061884 224.470904 
L 797.554765 223.097414 
L 798.047645 224.240856 
L 798.540526 223.564798 
L 799.033406 220.855634 
L 799.526287 221.710839 
L 800.019168 217.346881 
L 800.512048 210.5818 
L 801.004929 212.83959 
L 801.497809 211.527865 
L 801.99069 218.456651 
L 802.483571 230.473348 
L 802.976451 229.856481 
L 803.962212 247.01592 
L 804.455093 244.741686 
L 804.947974 245.401301 
L 805.440854 243.003537 
L 805.933735 237.206111 
L 806.426616 240.323468 
L 806.919496 235.645537 
L 807.412377 235.808456 
L 808.398138 243.834361 
L 808.891019 243.317863 
L 809.383899 242.469377 
L 810.36966 247.970627 
L 810.862541 247.554498 
L 811.355422 244.569964 
L 811.848302 245.67995 
L 812.341183 248.063844 
L 812.834064 247.650288 
L 813.326944 244.737814 
L 813.819825 245.96361 
L 814.312705 244.296734 
L 814.805586 240.12322 
L 815.298467 237.833545 
L 815.791347 238.714485 
L 816.284228 240.233666 
L 817.269989 246.712866 
L 817.76287 244.186424 
L 818.25575 250.031745 
L 818.748631 250.665625 
L 819.241512 246.589905 
L 819.734392 244.084051 
L 820.227273 242.823797 
L 820.720153 237.049533 
L 821.213034 235.112435 
L 821.705915 227.896982 
L 822.198795 215.887003 
L 822.691676 207.968971 
L 823.184556 203.466042 
L 823.677437 201.428575 
L 824.170318 195.458721 
L 824.663198 191.102484 
L 825.156079 191.726069 
L 826.14184 205.442096 
L 826.634721 206.745099 
L 827.127601 204.005053 
L 827.620482 210.486041 
L 828.113363 220.580295 
L 828.606243 222.104623 
L 829.099124 216.284036 
L 829.592004 204.618913 
L 830.084885 204.848744 
L 830.577766 203.98739 
L 831.563527 191.301353 
L 832.056407 191.461699 
L 832.549288 195.788625 
L 833.042169 203.574403 
L 833.535049 203.204598 
L 834.02793 206.200997 
L 834.520811 210.136743 
L 835.013691 207.576845 
L 835.506572 204.057012 
L 835.999452 204.55192 
L 836.492333 207.607511 
L 837.478094 199.939899 
L 838.956736 195.542486 
L 839.942497 189.750993 
L 840.435378 177.514541 
L 840.928258 174.79251 
L 841.421139 174.945135 
L 842.4069 171.886753 
L 842.899781 168.982 
L 843.392662 166.748943 
L 843.885542 173.605669 
L 844.378423 173.096892 
L 844.871303 170.279639 
L 845.364184 170.123438 
L 845.857065 172.625715 
L 846.349945 181.330252 
L 846.842826 182.962669 
L 847.335706 179.805707 
L 847.828587 177.917506 
L 848.814348 175.600308 
L 849.307229 173.166514 
L 849.80011 169.106235 
L 850.29299 175.929506 
L 850.785871 188.49437 
L 851.278751 191.238561 
L 851.771632 195.16916 
L 852.264513 197.550481 
L 853.250274 209.812451 
L 853.743154 206.750711 
L 854.236035 198.320542 
L 854.728916 192.788192 
L 855.221796 192.621697 
L 855.714677 195.0339 
L 856.700438 187.613349 
L 857.193319 193.541024 
L 857.686199 202.024235 
L 858.17908 214.226228 
L 858.671961 222.243626 
L 859.164841 225.255467 
L 859.657722 227.425757 
L 860.150602 227.014774 
L 860.643483 224.982454 
L 861.136364 221.856375 
L 861.629244 220.300162 
L 862.615005 211.901661 
L 863.107886 212.813484 
L 863.600767 216.172755 
L 864.093647 214.897059 
L 864.586528 213.219889 
L 865.079409 207.561435 
L 865.572289 206.103017 
L 866.06517 209.33361 
L 867.050931 204.296167 
L 867.543812 206.785577 
L 868.036692 210.098524 
L 868.529573 211.396379 
L 869.022453 207.71956 
L 870.008215 196.950819 
L 870.501095 194.172169 
L 871.486857 183.70968 
L 871.979737 184.38731 
L 872.472618 191.071608 
L 872.965498 191.316882 
L 873.458379 200.530981 
L 873.95126 205.050923 
L 874.44414 213.832667 
L 874.937021 217.508484 
L 875.429901 219.184651 
L 875.922782 216.382839 
L 876.415663 219.803875 
L 876.908543 220.653933 
L 877.401424 218.423449 
L 877.894304 213.246249 
L 878.387185 210.552527 
L 878.880066 209.675731 
L 879.372946 205.530526 
L 879.865827 206.429481 
L 880.358708 201.63574 
L 880.851588 204.40052 
L 881.344469 205.528521 
L 881.837349 207.359102 
L 882.33023 206.932678 
L 882.823111 215.312947 
L 883.315991 212.511136 
L 883.808872 216.148349 
L 884.301752 213.439185 
L 884.794633 213.084821 
L 885.780394 217.4254 
L 886.273275 214.587559 
L 886.766156 218.12183 
L 887.259036 217.37886 
L 888.244797 226.830512 
L 888.737678 226.275411 
L 889.230559 221.950056 
L 889.723439 228.97149 
L 890.21632 231.216413 
L 890.7092 236.81982 
L 891.202081 237.198918 
L 891.694962 237.184262 
L 892.187842 236.371805 
L 892.680723 242.649483 
L 893.173604 240.648046 
L 893.666484 240.453241 
L 894.159365 237.257676 
L 894.652245 240.084221 
L 895.145126 237.153732 
L 895.638007 244.527743 
L 896.130887 248.471209 
L 896.623768 249.846271 
L 897.609529 248.254814 
L 898.10241 243.759606 
L 898.59529 242.393835 
L 899.088171 243.107495 
L 899.581051 243.49946 
L 900.566813 247.438565 
L 901.059693 259.244232 
L 901.552574 264.340649 
L 902.045455 277.173162 
L 902.538335 278.105573 
L 903.031216 277.537604 
L 903.524096 282.976304 
L 904.016977 290.463551 
L 904.509858 291.552949 
L 905.988499 298.485268 
L 906.48138 299.529302 
L 907.467141 302.184859 
L 907.960022 307.8 
L 908.452903 305.632721 
L 908.945783 304.224641 
L 909.931544 292.750092 
L 910.424425 285.190264 
L 910.917306 282.419334 
L 911.410186 276.827793 
L 911.903067 277.127111 
L 912.395947 273.993311 
L 912.888828 272.421656 
L 913.381709 273.220243 
L 914.36747 276.729565 
L 914.86035 276.488437 
L 915.353231 274.170453 
L 915.846112 276.850305 
L 916.338992 276.884547 
L 916.831873 276.620257 
L 917.324754 272.513655 
L 917.817634 262.763254 
L 918.310515 266.194584 
L 919.296276 264.031798 
L 919.789157 259.62409 
L 920.282037 261.385185 
L 921.267798 277.296452 
L 921.760679 276.213772 
L 922.25356 273.254974 
L 922.74644 274.403563 
L 923.239321 281.471321 
L 923.732202 282.769177 
L 924.225082 270.437504 
L 925.210843 263.778724 
L 925.703724 263.007445 
L 926.196605 256.736485 
L 926.689485 252.802311 
L 927.182366 250.939845 
L 927.675246 261.728959 
L 928.168127 265.520586 
L 928.661008 266.043802 
L 929.153888 271.750151 
L 929.646769 272.880726 
L 930.13965 272.739967 
L 930.63253 268.780057 
L 931.125411 266.480087 
L 931.618291 260.162804 
L 932.111172 261.128672 
L 957.248083 249.026045 
L 958.233844 230.006498 
L 958.726725 224.088115 
L 959.219606 210.335842 
L 959.712486 204.880699 
L 960.205367 193.07403 
L 961.191128 194.479975 
L 961.684009 197.435198 
L 962.176889 197.163187 
L 962.66977 193.200703 
L 963.162651 196.794167 
L 963.655531 199.075119 
L 964.148412 204.117492 
L 964.641292 202.587015 
L 965.134173 200.060573 
L 966.119934 204.082032 
L 966.612815 208.347192 
L 967.105696 207.07407 
L 967.598576 201.155687 
L 968.091457 200.819338 
L 968.584337 203.638162 
L 969.077218 195.84366 
L 969.570099 198.168363 
L 970.062979 191.984905 
L 971.04874 197.442405 
L 971.541621 197.7829 
L 972.034502 193.887328 
L 972.527382 202.681939 
L 973.020263 199.234166 
L 973.513143 203.082411 
L 974.006024 202.931357 
L 974.498905 202.000517 
L 974.991785 195.044993 
L 976.470427 183.089845 
L 976.963308 180.656051 
L 977.949069 160.349728 
L 978.93483 160.767429 
L 979.920591 164.499864 
L 980.413472 167.84884 
L 981.399233 170.086828 
L 981.892114 166.590157 
L 982.384995 170.399799 
L 982.877875 167.366368 
L 983.370756 166.173025 
L 1047.445235 151.851997 
L 1047.938116 137.636485 
L 1048.430997 118.423136 
L 1048.923877 112.8213 
L 1050.402519 67.137972 
L 1050.8954 65.128814 
L 1051.38828 66.174461 
L 1051.881161 70.874552 
L 1052.374042 68.641495 
L 1052.866922 69.965086 
L 1053.359803 73.061854 
L 1053.852683 74.907876 
L 1054.345564 75.82742 
L 1054.838445 81.065383 
L 1055.331325 84.254799 
L 1055.824206 91.101231 
L 1056.317087 94.6844 
L 1056.809967 97.307635 
L 1057.302848 103.152956 
L 1057.795728 107.510764 
L 1058.288609 105.977713 
L 1058.78149 106.724829 
L 1059.27437 103.699118 
L 1059.767251 97.726691 
L 1060.260131 97.588505 
L 1060.753012 94.493308 
L 1061.245893 93.680851 
L 1061.738773 94.340466 
L 1062.231654 94.297502 
L 1062.724535 93.196807 
L 1063.217415 100.388096 
L 1064.203176 94.738148 
L 1064.696057 93.740396 
L 1065.188938 90.431594 
L 1065.681818 88.394127 
L 1066.174699 85.458491 
L 1066.667579 81.49086 
L 1067.16046 83.164454 
L 1067.653341 81.15787 
L 1068.146221 79.750923 
L 1069.131982 74.746937 
L 1069.624863 78.301797 
L 1070.117744 80.330541 
L 1070.610624 81.648985 
L 1071.596386 95.815384 
L 1072.089266 98.876122 
L 1072.582147 104.8424 
L 1073.075027 108.12189 
L 1073.567908 114.878248 
L 1074.060789 114.966535 
L 1074.553669 113.150393 
L 1075.04655 109.697473 
L 1075.53943 108.676558 
L 1076.032311 109.789118 
L 1076.525192 106.240977 
L 1077.018072 104.079979 
L 1077.510953 106.201371 
L 1078.003834 107.470918 
L 1078.496714 105.086021 
L 1078.989595 107.403003 
L 1079.482475 110.417418 
L 1079.975356 111.388432 
L 1080.468237 103.946507 
L 1080.961117 107.995489 
L 1081.453998 108.611354 
L 1081.946878 114.479837 
L 1082.439759 118.840218 
L 1082.93264 119.582187 
L 1083.42552 120.548054 
L 1083.918401 131.591949 
L 1084.411281 126.620634 
L 1084.904162 128.183565 
L 1085.397043 126.583602 
L 1085.889923 128.241754 
L 1086.382804 123.761987 
L 1086.875685 125.046975 
L 1087.368565 117.275635 
L 1087.861446 113.966834 
L 1088.354326 113.77975 
L 1088.847207 114.894884 
L 1089.340088 114.257429 
L 1089.832968 112.042387 
L 1090.818729 119.653949 
L 1091.31161 128.80371 
L 1092.297371 124.73135 
L 1092.790252 123.411904 
L 1093.283133 123.284012 
L 1093.776013 114.750901 
L 1094.268894 115.868608 
L 1094.761774 112.443997 
L 1095.254655 116.788937 
L 1095.747536 118.797093 
L 1096.240416 120.223626 
L 1096.733297 122.772228 
L 1097.226177 127.775997 
L 1097.719058 124.462049 
L 1098.211939 114.639589 
L 1098.704819 112.077117 
L 1099.1977 115.124988 
L 1099.690581 115.47835 
L 1100.183461 115.443106 
L 1100.676342 119.337675 
L 1101.169222 122.298045 
L 1101.662103 134.536068 
L 1102.154984 129.46181 
L 1102.647864 133.106744 
L 1103.140745 135.15093 
L 1103.633625 142.210967 
L 1104.126506 140.973875 
L 1104.619387 145.208152 
L 1105.112267 138.998958 
L 1105.605148 147.322609 
L 1106.098028 141.388785 
L 1106.590909 140.373018 
L 1107.08379 135.617881 
L 1107.57667 133.691077 
L 1108.069551 125.839957 
L 1108.562432 126.877884 
L 1109.055312 124.379751 
L 1109.548193 127.242326 
L 1110.041073 127.209655 
L 1110.533954 130.733633 
L 1111.026835 131.10501 
L 1111.519715 134.008762 
L 1112.012596 142.975801 
L 1112.505476 140.902304 
L 1112.998357 137.374751 
L 1113.491238 135.73361 
L 1113.984118 132.139145 
L 1114.476999 136.03114 
L 1115.46276 129.521626 
L 1115.955641 132.968398 
L 1116.448521 132.421017 
L 1116.941402 133.039455 
L 1117.434283 133.917822 
L 1117.927163 127.320021 
L 1118.420044 132.725265 
L 1118.912924 128.314984 
L 1119.405805 129.751811 
L 1119.898686 129.724288 
L 1120.391566 133.726946 
L 1120.884447 131.061532 
L 1121.377327 134.909777 
L 1121.870208 134.931151 
L 1122.363089 135.310249 
L 1122.855969 136.641561 
L 1123.34885 141.959304 
L 1123.841731 135.533931 
L 1124.334611 136.373695 
L 1124.827492 132.897613 
L 1125.320372 127.481073 
L 1125.813253 126.32376 
L 1126.799014 116.8315 
L 1127.291895 115.746247 
L 1127.784775 111.827514 
L 1128.277656 112.499997 
L 1128.770537 112.222839 
L 1129.263417 111.021776 
L 1129.756298 108.503055 
L 1130.249179 110.282164 
L 1130.742059 116.917566 
L 1131.23494 118.292628 
L 1131.72782 115.861407 
L 1132.220701 118.327655 
L 1132.713582 123.267086 
L 1133.206462 125.553186 
L 1133.699343 122.138869 
L 1134.192223 116.583357 
L 1134.685104 118.725337 
L 1135.177985 120.324298 
L 1135.670865 116.794171 
L 1137.149507 111.366335 
L 1137.642388 114.164571 
L 1138.135268 114.734112 
L 1138.628149 116.544104 
L 1139.12103 121.869568 
L 1139.61391 122.258959 
L 1140.106791 127.911264 
L 1140.599671 128.709851 
L 1141.092552 125.745905 
L 1141.585433 120.663927 
L 1142.078313 118.412855 
L 1142.571194 114.265076 
L 1143.064074 112.48239 
L 1143.556955 107.734974 
L 1144.049836 109.547539 
L 1144.542716 112.780706 
L 1145.035597 119.501034 
L 1145.528478 121.084554 
L 1146.021358 119.968418 
L 1146.514239 120.411855 
L 1147.007119 123.055678 
L 1148.485761 119.125648 
L 1148.978642 119.175332 
L 1149.964403 126.231007 
L 1150.457284 121.779549 
L 1150.950164 123.903515 
L 1151.443045 123.085911 
L 1151.935926 121.98779 
L 1152.428806 123.378294 
L 1152.921687 123.361065 
L 1153.414567 117.828715 
L 1153.907448 120.253786 
L 1154.400329 119.582875 
L 1154.893209 121.848385 
L 1155.38609 122.047335 
L 1155.87897 123.244822 
L 1156.371851 118.978659 
L 1156.864732 123.624705 
L 1157.357612 126.685443 
L 1157.850493 128.634408 
L 1158.343373 131.805809 
L 1158.836254 137.671718 
L 1159.329135 140.114804 
L 1159.822015 141.886193 
L 1160.807777 125.020708 
L 1161.300657 125.798707 
L 1162.286418 111.120741 
L 1162.779299 103.478078 
L 1163.27218 105.9469 
L 1164.257941 123.718844 
L 1164.750821 119.192753 
L 1165.243702 123.653503 
L 1165.736583 126.711668 
L 1166.229463 131.880145 
L 1167.215225 138.346477 
L 1167.708105 136.844309 
L 1168.200986 138.571948 
L 1168.693866 138.608763 
L 1169.186747 137.36395 
L 1169.679628 134.5853 
L 1170.172508 133.577253 
L 1170.665389 130.286467 
L 1171.158269 138.218938 
L 1171.65115 143.583005 
L 1172.144031 144.139678 
L 1172.636911 144.938264 
L 1173.129792 146.434283 
L 1173.622673 147.088751 
L 1174.115553 146.312324 
L 1174.608434 142.128515 
L 1175.101314 139.210894 
L 1175.594195 138.143656 
L 1176.087076 143.633826 
L 1176.579956 147.072877 
L 1177.072837 149.194269 
L 1177.565717 149.84359 
L 1178.058598 148.452084 
L 1178.551479 149.51832 
L 1179.044359 150.028669 
L 1179.53724 148.006643 
L 1180.03012 147.075803 
L 1180.523001 145.347162 
L 1181.508762 147.266029 
L 1182.001643 146.649163 
L 1182.494524 144.225663 
L 1182.987404 144.056594 
L 1183.480285 142.891561 
L 1183.973165 141.196376 
L 1184.466046 144.604544 
L 1184.958927 140.672943 
L 1185.944688 138.203905 
L 1187.42333 136.52316 
L 1187.91621 130.741175 
L 1188.409091 134.62545 
L 1188.901972 135.691686 
L 1189.394852 136.431081 
L 1189.887733 137.435552 
L 1190.380613 135.040361 
L 1190.873494 134.498127 
L 1191.366375 131.366901 
L 1191.859255 127.250004 
L 1192.352136 126.880199 
L 1192.845016 122.583153 
L 1193.337897 121.106721 
L 1193.830778 122.999067 
L 1194.323658 121.710503 
L 1194.816539 126.940745 
L 1195.309419 133.650779 
L 1195.8023 134.125099 
L 1196.295181 135.438395 
L 1196.788061 135.853523 
L 1197.280942 137.390719 
L 1197.773823 143.521704 
L 1198.266703 141.314383 
L 1198.759584 137.637563 
L 1199.252464 135.998997 
L 1199.745345 141.134017 
L 1200.238226 139.199492 
L 1200.731106 131.670067 
L 1201.716867 124.782241 
L 1202.209748 118.863858 
L 1202.702629 117.534118 
L 1206.152793 108.970124 
L 1206.645674 100.851355 
L 1207.138554 102.597009 
L 1207.631435 97.754371 
L 1208.124315 96.321688 
L 1208.617196 99.323235 
L 1209.110077 96.364436 
L 1209.602957 100.6682 
L 1210.095838 106.5058 
L 1211.081599 108.557707 
L 1212.06736 112.115926 
L 1212.560241 108.446827 
L 1213.053122 110.666014 
L 1214.038883 99.135502 
L 1215.024644 89.692139 
L 1215.517525 87.474524 
L 1216.010405 87.856195 
L 1216.503286 86.166157 
L 1216.996166 90.387567 
L 1217.489047 92.774035 
L 1217.981928 92.931808 
L 1218.474808 96.391446 
L 1218.967689 102.162134 
L 1219.95345 106.469257 
L 1220.446331 110.165663 
L 1220.939211 108.998056 
L 1221.432092 108.327145 
L 1221.924973 108.469476 
L 1222.417853 104.329417 
L 1222.910734 103.774316 
L 1223.403614 99.551904 
L 1223.896495 94.2486 
L 1224.389376 100.155686 
L 1224.882256 102.714582 
L 1225.868018 99.198109 
L 1226.853779 101.394919 
L 1227.346659 105.325518 
L 1227.83954 95.567397 
L 1228.332421 100.998376 
L 1229.318182 100.227882 
L 1229.811062 101.283824 
L 1230.303943 105.399718 
L 1230.796824 106.646103 
L 1231.289704 113.157973 
L 1232.275465 108.367592 
L 1232.768346 111.798922 
L 1233.261227 108.83755 
L 1233.754107 104.463298 
L 1234.246988 103.640547 
L 1234.739869 106.163413 
L 1235.232749 109.939599 
L 1235.72563 112.171654 
L 1236.21851 109.866537 
L 1236.711391 114.955234 
L 1237.204272 122.128508 
L 1237.697152 124.615344 
L 1238.190033 122.472361 
L 1238.682913 117.042953 
L 1239.175794 117.535288 
L 1239.668675 119.214029 
L 1240.161555 112.593067 
L 1240.654436 108.257418 
L 1241.147317 105.208545 
L 1241.640197 99.748255 
L 1242.133078 99.368155 
L 1242.625958 102.946177 
L 1243.118839 104.395872 
L 1243.61172 102.716129 
L 1244.1046 98.352171 
L 1244.597481 91.087821 
L 1245.090361 95.944899 
L 1245.583242 102.006398 
L 1246.076123 98.406785 
L 1246.569003 99.511624 
L 1248.047645 124.840301 
L 1248.540526 129.32936 
L 1249.033406 125.114669 
L 1249.526287 123.851841 
L 1250.019168 121.37687 
L 1251.004929 110.00077 
L 1251.497809 108.254115 
L 1251.99069 104.482074 
L 1252.483571 106.935454 
L 1252.976451 107.79838 
L 1253.469332 107.405412 
L 1253.962212 110.265413 
L 1254.455093 115.97691 
L 1254.947974 114.806729 
L 1255.440854 117.97041 
L 1255.933735 113.727409 
L 1256.426616 118.345146 
L 1256.919496 121.465076 
L 1257.412377 120.235704 
L 1257.905257 121.873269 
L 1258.398138 124.746138 
L 1258.891019 120.948361 
L 1259.383899 125.295875 
L 1259.87678 124.460257 
L 1260.36966 121.362487 
L 1260.862541 122.379825 
L 1261.355422 117.905205 
L 1261.848302 118.901955 
L 1262.341183 121.615264 
L 1262.834064 122.532234 
L 1263.326944 121.035213 
L 1263.819825 123.444842 
L 1264.312705 124.57027 
L 1264.805586 126.424013 
L 1265.791347 122.673346 
L 1266.284228 119.832931 
L 1266.777108 118.984445 
L 1267.269989 118.913171 
L 1268.25575 124.326921 
L 1268.748631 123.794982 
L 1269.241512 126.431084 
L 1269.734392 128.336298 
L 1270.720153 141.424378 
L 1271.213034 143.103119 
L 1271.705915 142.867138 
L 1272.198795 146.136334 
L 1272.691676 150.741203 
L 1273.184556 153.053038 
L 1273.677437 154.662294 
L 1274.170318 152.833284 
L 1275.156079 159.49778 
L 1275.648959 157.470607 
L 1276.14184 156.351898 
L 1276.634721 157.376957 
L 1277.127601 157.768923 
L 1277.620482 161.503932 
L 1278.113363 152.811261 
L 1278.606243 151.062031 
L 1279.099124 156.740071 
L 1279.592004 155.222462 
L 1280.577766 165.857948 
L 1281.070646 163.956879 
L 1285.506572 172.123543 
L 1285.999452 169.754088 
L 1286.492333 165.2666 
L 1286.985214 166.314821 
L 1287.970975 153.103779 
L 1289.942497 150.17329 
L 1290.435378 152.050195 
L 1290.928258 157.83375 
L 1291.421139 158.23601 
L 1291.91402 157.642305 
L 1292.899781 149.277261 
L 1293.392662 146.081696 
L 1293.885542 136.894903 
L 1294.378423 131.51954 
L 1294.871303 132.022168 
L 1295.364184 134.151281 
L 1296.349945 140.802909 
L 1296.842826 143.8585 
L 1297.335706 142.904498 
L 1297.828587 141.672553 
L 1298.321468 148.740311 
L 1298.814348 144.64915 
L 1299.307229 144.750304 
L 1300.29299 142.924654 
L 1300.785871 149.341303 
L 1301.278751 148.822231 
L 1301.771632 146.511968 
L 1302.264513 150.192932 
L 1302.757393 150.896297 
L 1303.743154 156.644609 
L 1304.236035 147.982821 
L 1304.728916 153.822994 
L 1305.221796 151.247655 
L 1305.714677 154.702147 
L 1306.207558 156.880157 
L 1307.193319 158.099018 
L 1307.686199 162.492856 
L 1308.17908 152.276643 
L 1308.671961 153.121553 
L 1309.657722 142.620461 
L 1310.150602 142.654703 
L 1310.643483 141.167976 
L 1311.136364 145.023942 
L 1311.629244 152.681043 
L 1312.122125 150.321882 
L 1312.615005 150.242888 
L 1313.107886 152.963917 
L 1313.600767 146.510236 
L 1314.093647 145.327188 
L 1314.586528 142.641186 
L 1315.079409 143.565876 
L 1316.06517 150.824863 
L 1316.55805 147.10172 
L 1317.050931 150.630844 
L 1317.543812 158.179856 
L 1318.036692 162.40384 
L 1318.529573 161.470426 
L 1319.022453 159.219355 
L 1319.515334 158.005424 
L 1320.501095 163.830942 
L 1320.993976 159.961107 
L 1321.486857 159.089458 
L 1321.979737 159.962678 
L 1322.472618 157.667856 
L 1322.965498 157.691803 
L 1323.458379 161.097398 
L 1324.44414 151.666903 
L 1324.937021 148.041555 
L 1325.429901 146.112177 
L 1325.922782 149.018502 
L 1326.415663 148.226634 
L 1326.908543 142.707152 
L 1327.401424 143.935522 
L 1327.894304 141.596949 
L 1328.387185 141.373836 
L 1328.880066 141.616535 
L 1329.372946 140.168411 
L 1329.865827 137.667705 
L 1330.358708 140.617781 
L 1330.851588 141.684017 
L 1331.344469 150.082301 
L 1331.837349 153.063259 
L 1332.33023 148.750772 
L 1332.823111 146.401906 
L 1333.315991 144.732456 
L 1333.808872 142.481385 
L 1334.301752 139.285819 
L 1335.287514 129.471866 
L 1335.780394 129.560152 
L 1336.766156 130.063566 
L 1337.751917 121.621315 
L 1338.244797 118.088615 
L 1338.737678 117.976164 
L 1339.230559 121.276243 
L 1339.723439 123.271531 
L 1340.21632 124.674902 
L 1340.7092 128.144835 
L 1341.202081 134.409645 
L 1341.694962 135.34463 
L 1342.187842 133.237677 
L 1343.173604 131.35977 
L 1344.159365 133.357631 
L 1344.652245 130.782292 
L 1345.145126 130.698151 
L 1345.638007 127.080523 
L 1346.130887 131.58245 
L 1346.623768 138.009394 
L 1347.116648 142.673455 
L 1347.609529 139.243696 
L 1348.10241 142.101124 
L 1349.088171 154.455742 
L 1349.581051 153.836302 
L 1350.073932 153.551423 
L 1350.566813 156.071716 
L 1351.059693 162.635058 
L 1351.552574 167.66971 
L 1352.538335 172.216173 
L 1353.031216 173.05851 
L 1353.524096 176.399766 
L 1354.016977 175.373704 
L 1354.509858 176.012731 
L 1355.002738 177.202497 
L 1355.495619 175.3529 
L 1355.988499 178.127974 
L 1356.48138 179.937966 
L 1356.974261 176.724386 
L 1357.467141 177.095763 
L 1357.960022 178.537737 
L 1358.452903 178.674921 
L 1358.945783 180.150352 
L 1359.438664 180.64526 
L 1359.931544 178.61294 
L 1360.424425 182.793173 
L 1360.917306 180.328496 
L 1361.410186 176.986239 
L 1362.395947 166.621545 
L 1362.888828 158.15792 
L 1363.381709 162.97382 
L 1363.874589 156.726023 
L 1364.36747 155.697388 
L 1364.86035 150.26798 
L 1365.353231 154.587185 
L 1365.846112 156.260779 
L 1366.338992 157.355324 
L 1366.831873 153.513798 
L 1367.324754 153.761645 
L 1367.817634 152.612053 
L 1368.310515 155.690806 
L 1368.803395 151.368025 
L 1369.296276 149.840121 
L 1369.789157 149.140901 
L 1370.774918 144.196107 
L 1371.267798 143.561225 
L 1371.760679 144.282605 
L 1372.25356 145.639652 
L 1372.74644 143.177549 
L 1373.239321 142.527226 
L 1373.732202 142.417349 
L 1374.225082 144.404917 
L 1374.717963 149.506481 
L 1375.210843 149.674548 
L 1375.703724 151.011007 
L 1376.196605 154.583882 
L 1376.689485 161.68767 
L 1377.182366 165.144735 
L 1377.675246 172.179037 
L 1378.168127 169.796714 
L 1378.661008 170.27618 
L 1379.646769 176.602755 
L 1380.13965 179.022679 
L 1381.125411 163.531471 
L 1381.618291 154.445046 
L 1382.111172 153.022658 
L 1382.604053 146.015663 
L 1383.096933 133.87186 
L 1383.589814 129.464152 
L 1384.575575 134.962829 
L 1385.068456 139.837921 
L 1385.561336 143.14572 
L 1386.054217 153.041811 
L 1386.547097 158.647792 
L 1387.039978 161.520661 
L 1387.532859 160.100846 
L 1388.025739 163.96968 
L 1388.51862 160.704629 
L 1389.011501 158.363483 
L 1389.504381 151.732226 
L 1389.997262 149.383359 
L 1390.490142 147.770528 
L 1390.983023 150.342292 
L 1391.475904 148.245633 
L 1391.968784 152.248291 
L 1392.461665 152.480697 
L 1392.954545 145.741351 
L 1393.447426 146.359789 
L 1393.940307 146.221603 
L 1394.433187 144.261343 
L 1394.926068 139.521647 
L 1395.911829 136.411794 
L 1396.40471 141.726964 
L 1396.89759 141.223333 
L 1397.390471 141.255002 
L 1397.883352 143.577131 
L 1398.376232 148.771343 
L 1398.869113 150.761484 
L 1399.361993 155.940255 
L 1399.854874 159.291805 
L 1400.347755 159.802154 
L 1400.840635 163.318411 
L 1401.333516 156.360313 
L 1401.826396 154.675423 
L 1402.319277 151.762948 
L 1402.812158 151.341671 
L 1403.305038 153.697257 
L 1403.797919 159.004705 
L 1404.2908 156.35988 
L 1404.78368 166.281707 
L 1405.276561 168.850897 
L 1406.262322 171.119767 
L 1406.755203 175.508458 
L 1407.248083 172.534218 
L 1407.740964 174.444579 
L 1408.233844 170.062606 
L 1408.726725 176.716023 
L 1409.219606 177.463138 
L 1409.712486 176.637814 
L 1410.205367 167.103591 
L 1410.698248 166.841875 
L 1411.684009 169.692368 
L 1412.176889 167.515929 
L 1412.66977 172.151681 
L 1413.162651 170.603188 
L 1413.655531 177.364694 
L 1414.148412 177.259964 
L 1414.641292 175.446396 
L 1415.134173 179.369274 
L 1415.627054 178.386963 
L 1416.119934 175.57743 
L 1416.612815 181.283779 
L 1417.105696 178.749617 
L 1417.598576 182.319919 
L 1418.091457 180.210392 
L 1419.077218 171.647184 
L 1419.570099 171.519292 
L 1420.062979 162.682502 
L 1420.55586 163.367853 
L 1421.04874 158.798011 
L 1421.541621 159.066446 
L 1422.034502 160.722025 
L 1422.527382 161.448553 
L 1423.020263 155.123549 
L 1423.513143 161.64314 
L 1424.006024 164.325567 
L 1424.498905 166.148427 
L 1424.991785 169.157694 
L 1425.484666 169.794147 
L 1425.977547 170.247878 
L 1426.470427 175.671136 
L 1426.963308 169.307529 
L 1427.456188 164.997616 
L 1427.949069 162.435145 
L 1428.44195 154.977778 
L 1428.93483 150.552055 
L 1429.427711 148.082232 
L 1429.920591 147.578601 
L 1430.906353 161.886545 
L 1431.399233 163.361976 
L 1432.877875 175.578408 
L 1433.370756 175.756769 
L 1433.863636 172.715617 
L 1434.356517 165.68546 
L 1434.849398 170.22599 
L 1435.342278 172.367971 
L 1435.835159 168.742622 
L 1436.328039 169.072823 
L 1436.82092 174.565567 
L 1437.313801 177.525937 
L 1437.806681 177.645106 
L 1438.299562 174.923074 
L 1438.792442 175.572395 
L 1439.285323 177.173929 
L 1439.778204 176.441253 
L 1440.271084 177.340208 
L 1440.763965 178.939169 
L 1441.256846 184.033013 
L 1441.749726 186.211023 
L 1442.242607 191.29972 
L 1442.735487 194.059353 
L 1443.228368 198.296204 
L 1443.721249 194.320853 
L 1444.214129 195.757681 
L 1444.70701 195.977218 
L 1445.19989 198.358539 
L 1445.692771 197.314463 
L 1446.185652 198.771878 
L 1446.678532 195.674108 
L 1447.171413 202.368701 
L 1447.664294 203.27795 
L 1448.157174 209.509304 
L 1448.650055 206.607124 
L 1449.142935 208.409396 
L 1449.635816 203.257931 
L 1450.621577 205.00437 
L 1451.114458 201.97866 
L 1451.607338 200.134209 
L 1452.100219 201.321402 
L 1452.5931 197.837599 
L 1453.08598 206.802064 
L 1453.578861 209.844788 
L 1454.071742 208.718358 
L 1454.564622 211.990127 
L 1455.057503 211.507085 
L 1455.550383 214.060834 
L 1456.043264 218.07636 
L 1456.536145 215.36977 
L 1457.029025 216.840053 
L 1457.521906 215.623549 
L 1458.014786 220.449744 
L 1458.507667 221.786203 
L 1459.493428 214.967863 
L 1459.986309 215.473064 
L 1460.479189 217.097761 
L 1460.97207 214.998529 
L 1461.464951 204.097751 
L 1461.957831 196.153983 
L 1462.943593 210.443912 
L 1463.436473 212.089197 
L 1463.929354 210.146951 
L 1464.422234 210.886346 
L 1464.915115 211.924273 
L 1465.407996 215.427662 
L 1465.900876 215.325506 
L 1466.393757 207.003426 
L 1466.886637 206.672224 
L 1467.379518 207.589194 
L 1467.872399 209.949926 
L 1468.365279 210.815425 
L 1468.85816 211.408128 
L 1469.351041 204.063997 
L 1469.843921 207.111868 
L 1470.336802 200.035387 
L 1470.829682 198.018509 
L 1471.322563 191.917404 
L 1471.815444 198.748395 
L 1472.308324 198.584473 
L 1472.801205 199.902918 
L 1473.294085 200.325766 
L 1473.786966 205.877702 
L 1474.279847 208.434024 
L 1474.772727 215.517223 
L 1475.265608 206.191459 
L 1475.758488 202.627875 
L 1476.251369 201.480857 
L 1476.74425 198.908091 
L 1477.23713 199.351528 
L 1477.730011 200.319969 
L 1478.222892 197.754924 
L 1478.715772 201.839936 
L 1479.208653 203.642207 
L 1479.701533 207.61913 
L 1480.194414 207.679107 
L 1480.687295 207.28614 
L 1481.180175 203.411157 
L 1481.673056 200.740596 
L 1482.165936 199.611593 
L 1482.658817 200.134809 
L 1483.151698 194.846947 
L 1483.644578 192.14293 
L 1484.137459 191.402533 
L 1484.63034 189.220947 
L 1485.12322 188.225768 
L 1485.616101 187.650078 
L 1486.601862 193.300595 
L 1487.094743 199.292609 
L 1488.080504 214.195043 
L 1489.066265 220.962481 
L 1489.559146 217.077204 
L 1490.052026 217.137181 
L 1490.544907 213.522127 
L 1491.530668 200.20557 
L 1492.516429 193.948264 
L 1493.00931 193.882138 
L 1493.502191 193.069681 
L 1493.995071 195.162764 
L 1495.966594 180.452913 
L 1496.459474 180.554067 
L 1496.952355 180.498235 
L 1497.445235 181.783223 
L 1497.938116 184.622636 
L 1498.923877 194.007375 
L 1499.416758 202.310438 
L 1499.909639 204.629994 
L 1500.402519 210.8562 
L 1500.8954 208.476451 
L 1501.38828 207.712892 
L 1501.881161 210.22289 
L 1502.374042 209.662642 
L 1502.866922 203.973305 
L 1503.359803 200.38656 
L 1503.852683 194.802739 
L 1504.345564 193.153878 
L 1504.838445 202.229006 
L 1505.331325 195.708413 
L 1505.824206 198.257014 
L 1506.317087 202.941664 
L 1506.809967 206.398729 
L 1507.302848 204.109054 
L 1507.795728 205.96537 
L 1508.288609 199.388158 
L 1508.78149 206.345253 
L 1509.27437 208.754883 
L 1509.767251 205.615936 
L 1510.260131 205.603854 
L 1510.753012 206.335528 
L 1511.245893 206.277122 
L 1511.738773 208.854033 
L 1512.231654 212.596762 
L 1512.724535 208.328026 
L 1513.217415 205.688348 
L 1513.710296 200.60637 
L 1514.203176 209.573409 
L 1514.696057 203.714218 
L 1515.188938 199.239598 
L 1516.174699 187.961293 
L 1516.667579 188.852527 
L 1517.16046 193.652987 
L 1522.582147 189.026527 
L 1523.075027 194.27221 
L 1523.567908 192.973352 
L 1524.060789 193.784807 
L 1524.553669 194.019786 
L 1525.04655 193.45439 
L 1526.032311 191.939354 
L 1526.525192 189.253352 
L 1527.018072 185.380943 
L 1527.510953 184.864445 
L 1528.003834 182.932493 
L 1528.496714 182.660482 
L 1528.989595 184.341797 
L 1529.482475 183.531914 
L 1529.975356 181.147018 
L 1530.468237 186.235714 
L 1530.961117 181.99014 
L 1531.946878 178.423984 
L 1532.439759 178.622933 
L 1532.93264 171.096081 
L 1533.918401 172.797984 
L 1534.411281 177.076012 
L 1534.904162 172.974557 
L 1535.397043 176.344121 
L 1535.889923 178.810369 
L 1536.382804 178.134311 
L 1536.875685 184.764565 
L 1537.861446 179.214986 
L 1538.354326 177.756568 
L 1538.847207 172.149585 
L 1542.297371 179.732053 
L 1542.790252 178.633932 
L 1543.283133 172.610034 
L 1543.776013 171.751254 
L 1544.268894 171.983659 
L 1544.761774 175.584843 
L 1545.254655 181.154794 
L 1545.747536 174.768025 
L 1546.240416 181.534678 
L 1546.733297 191.48996 
L 1547.226177 196.524612 
L 1547.719058 197.289743 
L 1548.704819 193.750107 
L 1549.690581 192.893901 
L 1550.676342 187.699472 
L 1551.169222 184.174492 
L 1551.662103 183.77123 
L 1552.154984 189.732361 
L 1552.647864 193.987227 
L 1553.140745 194.31228 
L 1554.126506 198.70433 
L 1554.619387 198.95475 
L 1555.112267 197.807732 
L 1555.605148 193.775763 
L 1556.590909 199.004217 
L 1556.590909 199.004217 
" clip-path="url(#peb4e2c4680)" style="fill: none; stroke: #32b258; stroke-width: 2.5; stroke-linecap: square"/>
   </g>
   <g id="patch_3">
    <path d="M 225 320.4 
L 225 43.2 
" style="fill: none; stroke: #000000; stroke-width: 0.8; stroke-linejoin: miter; stroke-linecap: square"/>
   </g>
   <g id="patch_4">
    <path d="M 1620 320.4 
L 1620 43.2 
" style="fill: none; stroke: #000000; stroke-width: 0.8; stroke-linejoin: miter; stroke-linecap: square"/>
   </g>
   <g id="patch_5">
    <path d="M 225 320.4 
L 1620 320.4 
" style="fill: none; stroke: #000000; stroke-width: 0.8; stroke-linejoin: miter; stroke-linecap: square"/>
   </g>
   <g id="patch_6">
    <path d="M 225 43.2 
L 1620 43.2 
" style="fill: none; stroke: #000000; stroke-width: 0.8; stroke-linejoin: miter; stroke-linecap: square"/>
   </g>
   <g id="text_19">
    <!-- ROVR -->
    <g transform="translate(894.065625 37.2) scale(0.2 -0.2)">
     <defs>
      <path id="DejaVuSans-52" d="M 2841 2188 
Q 3044 2119 3236 1894 
Q 3428 1669 3622 1275 
L 4263 0 
L 3584 0 
L 2988 1197 
Q 2756 1666 2539 1819 
Q 2322 1972 1947 1972 
L 1259 1972 
L 1259 0 
L 628 0 
L 628 4666 
L 2053 4666 
Q 2853 4666 3247 4331 
Q 3641 3997 3641 3322 
Q 3641 2881 3436 2590 
Q 3231 2300 2841 2188 
z
M 1259 4147 
L 1259 2491 
L 2053 2491 
Q 2509 2491 2742 2702 
Q 2975 2913 2975 3322 
Q 2975 3731 2742 3939 
Q 2509 4147 2053 4147 
L 1259 4147 
z
" transform="scale(0.015625)"/>
      <path id="DejaVuSans-4f" d="M 2522 4238 
Q 1834 4238 1429 3725 
Q 1025 3213 1025 2328 
Q 1025 1447 1429 934 
Q 1834 422 2522 422 
Q 3209 422 3611 934 
Q 4013 1447 4013 2328 
Q 4013 3213 3611 3725 
Q 3209 4238 2522 4238 
z
M 2522 4750 
Q 3503 4750 4090 4092 
Q 4678 3434 4678 2328 
Q 4678 1225 4090 567 
Q 3503 -91 2522 -91 
Q 1538 -91 948 565 
Q 359 1222 359 2328 
Q 359 3434 948 4092 
Q 1538 4750 2522 4750 
z
" transform="scale(0.015625)"/>
      <path id="DejaVuSans-56" d="M 1831 0 
L 50 4666 
L 709 4666 
L 2188 738 
L 3669 4666 
L 4325 4666 
L 2547 0 
L 1831 0 
z
" transform="scale(0.015625)"/>
     </defs>
     <use xlink:href="#DejaVuSans-52"/>
     <use xlink:href="#DejaVuSans-4f" x="69.482422"/>
     <use xlink:href="#DejaVuSans-56" x="146.443359"/>
     <use xlink:href="#DejaVuSans-52" x="214.851562"/>
    </g>
   </g>
   <g id="legend_1">
    <g id="patch_7">
     <path d="M 1560.965625 65.878125 
L 1613 65.878125 
Q 1615 65.878125 1615 63.878125 
L 1615 50.2 
Q 1615 48.2 1613 48.2 
L 1560.965625 48.2 
Q 1558.965625 48.2 1558.965625 50.2 
L 1558.965625 63.878125 
Q 1558.965625 65.878125 1560.965625 65.878125 
z
" style="fill: #ffffff; opacity: 0.8; stroke: #cccccc; stroke-linejoin: miter"/>
    </g>
    <g id="line2d_18">
     <path d="M 1562.965625 56.298437 
L 1572.965625 56.298437 
L 1582.965625 56.298437 
" style="fill: none; stroke: #32b258; stroke-width: 2.5; stroke-linecap: square"/>
    </g>
    <g id="text_20">
     <!-- rovr -->
     <g transform="translate(1590.965625 59.798437) scale(0.1 -0.1)">
      <defs>
       <path id="DejaVuSans-72" d="M 2631 2963 
Q 2534 3019 2420 3045 
Q 2306 3072 2169 3072 
Q 1681 3072 1420 2755 
Q 1159 2438 1159 1844 
L 1159 0 
L 581 0 
L 581 3500 
L 1159 3500 
L 1159 2956 
Q 1341 3275 1631 3429 
Q 1922 3584 2338 3584 
Q 2397 3584 2469 3576 
Q 2541 3569 2628 3553 
L 2631 2963 
z
" transform="scale(0.015625)"/>
       <path id="DejaVuSans-6f" d="M 1959 3097 
Q 1497 3097 1228 2736 
Q 959 2375 959 1747 
Q 959 1119 1226 758 
Q 1494 397 1959 397 
Q 2419 397 2687 759 
Q 2956 1122 2956 1747 
Q 2956 2369 2687 2733 
Q 2419 3097 1959 3097 
z
M 1959 3584 
Q 2709 3584 3137 3096 
Q 3566 2609 3566 1747 
Q 3566 888 3137 398 
Q 2709 -91 1959 -91 
Q 1206 -91 779 398 
Q 353 888 353 1747 
Q 353 2609 779 3096 
Q 1206 3584 1959 3584 
z
" transform="scale(0.015625)"/>
       <path id="DejaVuSans-76" d="M 191 3500 
L 800 3500 
L 1894 563 
L 2988 3500 
L 3597 3500 
L 2284 0 
L 1503 0 
L 191 3500 
z
" transform="scale(0.015625)"/>
      </defs>
      <use xlink:href="#DejaVuSans-72"/>
      <use xlink:href="#DejaVuSans-6f" x="38.863281"/>
      <use xlink:href="#DejaVuSans-76" x="100.044922"/>
      <use xlink:href="#DejaVuSans-72" x="159.224609"/>
     </g>
    </g>
   </g>
  </g>
 </g>
 <defs>
  <clipPath id="peb4e2c4680">
   <rect x="225" y="43.2" width="1395" height="277.2"/>
  </clipPath>
 </defs>
</svg>
