<?xml version="1.0" encoding="utf-8" standalone="no"?>
<!DOCTYPE svg PUBLIC "-//W3C//DTD SVG 1.1//EN"
  "http://www.w3.org/Graphics/SVG/1.1/DTD/svg11.dtd">
<svg xmlns:xlink="http://www.w3.org/1999/xlink" width="1800pt" height="360pt" viewBox="0 0 1800 360" xmlns="http://www.w3.org/2000/svg" version="1.1">
 <metadata>
  <rdf:RDF xmlns:dc="http://purl.org/dc/elements/1.1/" xmlns:cc="http://creativecommons.org/ns#" xmlns:rdf="http://www.w3.org/1999/02/22-rdf-syntax-ns#">
   <cc:Work>
    <dc:type rdf:resource="http://purl.org/dc/dcmitype/StillImage"/>
    <dc:date>2024-03-19T10:36:35.307769</dc:date>
    <dc:format>image/svg+xml</dc:format>
    <dc:creator>
     <cc:Agent>
      <dc:title>Matplotlib v3.7.2, https://matplotlib.org/</dc:title>
     </cc:Agent>
    </dc:creator>
   </cc:Work>
  </rdf:RDF>
 </metadata>
 <defs>
  <style type="text/css">*{stroke-linejoin: round; stroke-linecap: butt}</style>
 </defs>
 <g id="figure_1">
  <g id="patch_1">
   <path d="M 0 360 
L 1800 360 
L 1800 0 
L 0 0 
z
" style="fill: #ffffff"/>
  </g>
  <g id="axes_1">
   <g id="patch_2">
    <path d="M 225 320.4 
L 1620 320.4 
L 1620 43.2 
L 225 43.2 
z
" style="fill: #ffffff"/>
   </g>
   <g id="matplotlib.axis_1">
    <g id="xtick_1">
     <g id="line2d_1">
      <defs>
       <path id="m5203b6e812" d="M 0 0 
L 0 3.5 
" style="stroke: #000000; stroke-width: 0.8"/>
      </defs>
      <g>
       <use xlink:href="#m5203b6e812" x="281.304431" y="320.4" style="stroke: #000000; stroke-width: 0.8"/>
      </g>
     </g>
     <g id="text_1">
      <!-- 2011 -->
      <g transform="translate(262.216931 338.797656) scale(0.15 -0.15)">
       <defs>
        <path id="DejaVuSans-32" d="M 1228 531 
L 3431 531 
L 3431 0 
L 469 0 
L 469 531 
Q 828 903 1448 1529 
Q 2069 2156 2228 2338 
Q 2531 2678 2651 2914 
Q 2772 3150 2772 3378 
Q 2772 3750 2511 3984 
Q 2250 4219 1831 4219 
Q 1534 4219 1204 4116 
Q 875 4013 500 3803 
L 500 4441 
Q 881 4594 1212 4672 
Q 1544 4750 1819 4750 
Q 2544 4750 2975 4387 
Q 3406 4025 3406 3419 
Q 3406 3131 3298 2873 
Q 3191 2616 2906 2266 
Q 2828 2175 2409 1742 
Q 1991 1309 1228 531 
z
" transform="scale(0.015625)"/>
        <path id="DejaVuSans-30" d="M 2034 4250 
Q 1547 4250 1301 3770 
Q 1056 3291 1056 2328 
Q 1056 1369 1301 889 
Q 1547 409 2034 409 
Q 2525 409 2770 889 
Q 3016 1369 3016 2328 
Q 3016 3291 2770 3770 
Q 2525 4250 2034 4250 
z
M 2034 4750 
Q 2819 4750 3233 4129 
Q 3647 3509 3647 2328 
Q 3647 1150 3233 529 
Q 2819 -91 2034 -91 
Q 1250 -91 836 529 
Q 422 1150 422 2328 
Q 422 3509 836 4129 
Q 1250 4750 2034 4750 
z
" transform="scale(0.015625)"/>
        <path id="DejaVuSans-31" d="M 794 531 
L 1825 531 
L 1825 4091 
L 703 3866 
L 703 4441 
L 1819 4666 
L 2450 4666 
L 2450 531 
L 3481 531 
L 3481 0 
L 794 0 
L 794 531 
z
" transform="scale(0.015625)"/>
       </defs>
       <use xlink:href="#DejaVuSans-32"/>
       <use xlink:href="#DejaVuSans-30" x="63.623047"/>
       <use xlink:href="#DejaVuSans-31" x="127.246094"/>
       <use xlink:href="#DejaVuSans-31" x="190.869141"/>
      </g>
     </g>
    </g>
    <g id="xtick_2">
     <g id="line2d_2">
      <g>
       <use xlink:href="#m5203b6e812" x="466.533068" y="320.4" style="stroke: #000000; stroke-width: 0.8"/>
      </g>
     </g>
     <g id="text_2">
      <!-- 2012 -->
      <g transform="translate(447.445568 338.797656) scale(0.15 -0.15)">
       <use xlink:href="#DejaVuSans-32"/>
       <use xlink:href="#DejaVuSans-30" x="63.623047"/>
       <use xlink:href="#DejaVuSans-31" x="127.246094"/>
       <use xlink:href="#DejaVuSans-32" x="190.869141"/>
      </g>
     </g>
    </g>
    <g id="xtick_3">
     <g id="line2d_3">
      <g>
       <use xlink:href="#m5203b6e812" x="652.26918" y="320.4" style="stroke: #000000; stroke-width: 0.8"/>
      </g>
     </g>
     <g id="text_3">
      <!-- 2013 -->
      <g transform="translate(633.18168 338.797656) scale(0.15 -0.15)">
       <defs>
        <path id="DejaVuSans-33" d="M 2597 2516 
Q 3050 2419 3304 2112 
Q 3559 1806 3559 1356 
Q 3559 666 3084 287 
Q 2609 -91 1734 -91 
Q 1441 -91 1130 -33 
Q 819 25 488 141 
L 488 750 
Q 750 597 1062 519 
Q 1375 441 1716 441 
Q 2309 441 2620 675 
Q 2931 909 2931 1356 
Q 2931 1769 2642 2001 
Q 2353 2234 1838 2234 
L 1294 2234 
L 1294 2753 
L 1863 2753 
Q 2328 2753 2575 2939 
Q 2822 3125 2822 3475 
Q 2822 3834 2567 4026 
Q 2313 4219 1838 4219 
Q 1578 4219 1281 4162 
Q 984 4106 628 3988 
L 628 4550 
Q 988 4650 1302 4700 
Q 1616 4750 1894 4750 
Q 2613 4750 3031 4423 
Q 3450 4097 3450 3541 
Q 3450 3153 3228 2886 
Q 3006 2619 2597 2516 
z
" transform="scale(0.015625)"/>
       </defs>
       <use xlink:href="#DejaVuSans-32"/>
       <use xlink:href="#DejaVuSans-30" x="63.623047"/>
       <use xlink:href="#DejaVuSans-31" x="127.246094"/>
       <use xlink:href="#DejaVuSans-33" x="190.869141"/>
      </g>
     </g>
    </g>
    <g id="xtick_4">
     <g id="line2d_4">
      <g>
       <use xlink:href="#m5203b6e812" x="837.497817" y="320.4" style="stroke: #000000; stroke-width: 0.8"/>
      </g>
     </g>
     <g id="text_4">
      <!-- 2014 -->
      <g transform="translate(818.410317 338.797656) scale(0.15 -0.15)">
       <defs>
        <path id="DejaVuSans-34" d="M 2419 4116 
L 825 1625 
L 2419 1625 
L 2419 4116 
z
M 2253 4666 
L 3047 4666 
L 3047 1625 
L 3713 1625 
L 3713 1100 
L 3047 1100 
L 3047 0 
L 2419 0 
L 2419 1100 
L 313 1100 
L 313 1709 
L 2253 4666 
z
" transform="scale(0.015625)"/>
       </defs>
       <use xlink:href="#DejaVuSans-32"/>
       <use xlink:href="#DejaVuSans-30" x="63.623047"/>
       <use xlink:href="#DejaVuSans-31" x="127.246094"/>
       <use xlink:href="#DejaVuSans-34" x="190.869141"/>
      </g>
     </g>
    </g>
    <g id="xtick_5">
     <g id="line2d_5">
      <g>
       <use xlink:href="#m5203b6e812" x="1022.726454" y="320.4" style="stroke: #000000; stroke-width: 0.8"/>
      </g>
     </g>
     <g id="text_5">
      <!-- 2015 -->
      <g transform="translate(1003.638954 338.797656) scale(0.15 -0.15)">
       <defs>
        <path id="DejaVuSans-35" d="M 691 4666 
L 3169 4666 
L 3169 4134 
L 1269 4134 
L 1269 2991 
Q 1406 3038 1543 3061 
Q 1681 3084 1819 3084 
Q 2600 3084 3056 2656 
Q 3513 2228 3513 1497 
Q 3513 744 3044 326 
Q 2575 -91 1722 -91 
Q 1428 -91 1123 -41 
Q 819 9 494 109 
L 494 744 
Q 775 591 1075 516 
Q 1375 441 1709 441 
Q 2250 441 2565 725 
Q 2881 1009 2881 1497 
Q 2881 1984 2565 2268 
Q 2250 2553 1709 2553 
Q 1456 2553 1204 2497 
Q 953 2441 691 2322 
L 691 4666 
z
" transform="scale(0.015625)"/>
       </defs>
       <use xlink:href="#DejaVuSans-32"/>
       <use xlink:href="#DejaVuSans-30" x="63.623047"/>
       <use xlink:href="#DejaVuSans-31" x="127.246094"/>
       <use xlink:href="#DejaVuSans-35" x="190.869141"/>
      </g>
     </g>
    </g>
    <g id="xtick_6">
     <g id="line2d_6">
      <g>
       <use xlink:href="#m5203b6e812" x="1207.955091" y="320.4" style="stroke: #000000; stroke-width: 0.8"/>
      </g>
     </g>
     <g id="text_6">
      <!-- 2016 -->
      <g transform="translate(1188.867591 338.797656) scale(0.15 -0.15)">
       <defs>
        <path id="DejaVuSans-36" d="M 2113 2584 
Q 1688 2584 1439 2293 
Q 1191 2003 1191 1497 
Q 1191 994 1439 701 
Q 1688 409 2113 409 
Q 2538 409 2786 701 
Q 3034 994 3034 1497 
Q 3034 2003 2786 2293 
Q 2538 2584 2113 2584 
z
M 3366 4563 
L 3366 3988 
Q 3128 4100 2886 4159 
Q 2644 4219 2406 4219 
Q 1781 4219 1451 3797 
Q 1122 3375 1075 2522 
Q 1259 2794 1537 2939 
Q 1816 3084 2150 3084 
Q 2853 3084 3261 2657 
Q 3669 2231 3669 1497 
Q 3669 778 3244 343 
Q 2819 -91 2113 -91 
Q 1303 -91 875 529 
Q 447 1150 447 2328 
Q 447 3434 972 4092 
Q 1497 4750 2381 4750 
Q 2619 4750 2861 4703 
Q 3103 4656 3366 4563 
z
" transform="scale(0.015625)"/>
       </defs>
       <use xlink:href="#DejaVuSans-32"/>
       <use xlink:href="#DejaVuSans-30" x="63.623047"/>
       <use xlink:href="#DejaVuSans-31" x="127.246094"/>
       <use xlink:href="#DejaVuSans-36" x="190.869141"/>
      </g>
     </g>
    </g>
    <g id="xtick_7">
     <g id="line2d_7">
      <g>
       <use xlink:href="#m5203b6e812" x="1393.691204" y="320.4" style="stroke: #000000; stroke-width: 0.8"/>
      </g>
     </g>
     <g id="text_7">
      <!-- 2017 -->
      <g transform="translate(1374.603704 338.797656) scale(0.15 -0.15)">
       <defs>
        <path id="DejaVuSans-37" d="M 525 4666 
L 3525 4666 
L 3525 4397 
L 1831 0 
L 1172 0 
L 2766 4134 
L 525 4134 
L 525 4666 
z
" transform="scale(0.015625)"/>
       </defs>
       <use xlink:href="#DejaVuSans-32"/>
       <use xlink:href="#DejaVuSans-30" x="63.623047"/>
       <use xlink:href="#DejaVuSans-31" x="127.246094"/>
       <use xlink:href="#DejaVuSans-37" x="190.869141"/>
      </g>
     </g>
    </g>
    <g id="xtick_8">
     <g id="line2d_8">
      <g>
       <use xlink:href="#m5203b6e812" x="1578.919841" y="320.4" style="stroke: #000000; stroke-width: 0.8"/>
      </g>
     </g>
     <g id="text_8">
      <!-- 2018 -->
      <g transform="translate(1559.832341 338.797656) scale(0.15 -0.15)">
       <defs>
        <path id="DejaVuSans-38" d="M 2034 2216 
Q 1584 2216 1326 1975 
Q 1069 1734 1069 1313 
Q 1069 891 1326 650 
Q 1584 409 2034 409 
Q 2484 409 2743 651 
Q 3003 894 3003 1313 
Q 3003 1734 2745 1975 
Q 2488 2216 2034 2216 
z
M 1403 2484 
Q 997 2584 770 2862 
Q 544 3141 544 3541 
Q 544 4100 942 4425 
Q 1341 4750 2034 4750 
Q 2731 4750 3128 4425 
Q 3525 4100 3525 3541 
Q 3525 3141 3298 2862 
Q 3072 2584 2669 2484 
Q 3125 2378 3379 2068 
Q 3634 1759 3634 1313 
Q 3634 634 3220 271 
Q 2806 -91 2034 -91 
Q 1263 -91 848 271 
Q 434 634 434 1313 
Q 434 1759 690 2068 
Q 947 2378 1403 2484 
z
M 1172 3481 
Q 1172 3119 1398 2916 
Q 1625 2713 2034 2713 
Q 2441 2713 2670 2916 
Q 2900 3119 2900 3481 
Q 2900 3844 2670 4047 
Q 2441 4250 2034 4250 
Q 1625 4250 1398 4047 
Q 1172 3844 1172 3481 
z
" transform="scale(0.015625)"/>
       </defs>
       <use xlink:href="#DejaVuSans-32"/>
       <use xlink:href="#DejaVuSans-30" x="63.623047"/>
       <use xlink:href="#DejaVuSans-31" x="127.246094"/>
       <use xlink:href="#DejaVuSans-38" x="190.869141"/>
      </g>
     </g>
    </g>
    <g id="text_9">
     <!-- Time -->
     <g transform="translate(904.149609 357.314844) scale(0.15 -0.15)">
      <defs>
       <path id="DejaVuSans-54" d="M -19 4666 
L 3928 4666 
L 3928 4134 
L 2272 4134 
L 2272 0 
L 1638 0 
L 1638 4134 
L -19 4134 
L -19 4666 
z
" transform="scale(0.015625)"/>
       <path id="DejaVuSans-69" d="M 603 3500 
L 1178 3500 
L 1178 0 
L 603 0 
L 603 3500 
z
M 603 4863 
L 1178 4863 
L 1178 4134 
L 603 4134 
L 603 4863 
z
" transform="scale(0.015625)"/>
       <path id="DejaVuSans-6d" d="M 3328 2828 
Q 3544 3216 3844 3400 
Q 4144 3584 4550 3584 
Q 5097 3584 5394 3201 
Q 5691 2819 5691 2113 
L 5691 0 
L 5113 0 
L 5113 2094 
Q 5113 2597 4934 2840 
Q 4756 3084 4391 3084 
Q 3944 3084 3684 2787 
Q 3425 2491 3425 1978 
L 3425 0 
L 2847 0 
L 2847 2094 
Q 2847 2600 2669 2842 
Q 2491 3084 2119 3084 
Q 1678 3084 1418 2786 
Q 1159 2488 1159 1978 
L 1159 0 
L 581 0 
L 581 3500 
L 1159 3500 
L 1159 2956 
Q 1356 3278 1631 3431 
Q 1906 3584 2284 3584 
Q 2666 3584 2933 3390 
Q 3200 3197 3328 2828 
z
" transform="scale(0.015625)"/>
       <path id="DejaVuSans-65" d="M 3597 1894 
L 3597 1613 
L 953 1613 
Q 991 1019 1311 708 
Q 1631 397 2203 397 
Q 2534 397 2845 478 
Q 3156 559 3463 722 
L 3463 178 
Q 3153 47 2828 -22 
Q 2503 -91 2169 -91 
Q 1331 -91 842 396 
Q 353 884 353 1716 
Q 353 2575 817 3079 
Q 1281 3584 2069 3584 
Q 2775 3584 3186 3129 
Q 3597 2675 3597 1894 
z
M 3022 2063 
Q 3016 2534 2758 2815 
Q 2500 3097 2075 3097 
Q 1594 3097 1305 2825 
Q 1016 2553 972 2059 
L 3022 2063 
z
" transform="scale(0.015625)"/>
      </defs>
      <use xlink:href="#DejaVuSans-54"/>
      <use xlink:href="#DejaVuSans-69" x="57.958984"/>
      <use xlink:href="#DejaVuSans-6d" x="85.742188"/>
      <use xlink:href="#DejaVuSans-65" x="183.154297"/>
     </g>
    </g>
   </g>
   <g id="matplotlib.axis_2">
    <g id="ytick_1">
     <g id="line2d_9">
      <defs>
       <path id="m4ae7132c6e" d="M 0 0 
L -3.5 0 
" style="stroke: #000000; stroke-width: 0.8"/>
      </defs>
      <g>
       <use xlink:href="#m4ae7132c6e" x="225" y="301.205377" style="stroke: #000000; stroke-width: 0.8"/>
      </g>
     </g>
     <g id="text_10">
      <!-- −0.003 -->
      <g transform="translate(162.488281 306.904205) scale(0.15 -0.15)">
       <defs>
        <path id="DejaVuSans-2212" d="M 678 2272 
L 4684 2272 
L 4684 1741 
L 678 1741 
L 678 2272 
z
" transform="scale(0.015625)"/>
        <path id="DejaVuSans-2e" d="M 684 794 
L 1344 794 
L 1344 0 
L 684 0 
L 684 794 
z
" transform="scale(0.015625)"/>
       </defs>
       <use xlink:href="#DejaVuSans-2212"/>
       <use xlink:href="#DejaVuSans-30" x="83.789062"/>
       <use xlink:href="#DejaVuSans-2e" x="147.412109"/>
       <use xlink:href="#DejaVuSans-30" x="179.199219"/>
       <use xlink:href="#DejaVuSans-30" x="242.822266"/>
       <use xlink:href="#DejaVuSans-33" x="306.445312"/>
      </g>
     </g>
    </g>
    <g id="ytick_2">
     <g id="line2d_10">
      <g>
       <use xlink:href="#m4ae7132c6e" x="225" y="256.622304" style="stroke: #000000; stroke-width: 0.8"/>
      </g>
     </g>
     <g id="text_11">
      <!-- −0.002 -->
      <g transform="translate(162.488281 262.321132) scale(0.15 -0.15)">
       <use xlink:href="#DejaVuSans-2212"/>
       <use xlink:href="#DejaVuSans-30" x="83.789062"/>
       <use xlink:href="#DejaVuSans-2e" x="147.412109"/>
       <use xlink:href="#DejaVuSans-30" x="179.199219"/>
       <use xlink:href="#DejaVuSans-30" x="242.822266"/>
       <use xlink:href="#DejaVuSans-32" x="306.445312"/>
      </g>
     </g>
    </g>
    <g id="ytick_3">
     <g id="line2d_11">
      <g>
       <use xlink:href="#m4ae7132c6e" x="225" y="212.039231" style="stroke: #000000; stroke-width: 0.8"/>
      </g>
     </g>
     <g id="text_12">
      <!-- −0.001 -->
      <g transform="translate(162.488281 217.738059) scale(0.15 -0.15)">
       <use xlink:href="#DejaVuSans-2212"/>
       <use xlink:href="#DejaVuSans-30" x="83.789062"/>
       <use xlink:href="#DejaVuSans-2e" x="147.412109"/>
       <use xlink:href="#DejaVuSans-30" x="179.199219"/>
       <use xlink:href="#DejaVuSans-30" x="242.822266"/>
       <use xlink:href="#DejaVuSans-31" x="306.445312"/>
      </g>
     </g>
    </g>
    <g id="ytick_4">
     <g id="line2d_12">
      <g>
       <use xlink:href="#m4ae7132c6e" x="225" y="167.456157" style="stroke: #000000; stroke-width: 0.8"/>
      </g>
     </g>
     <g id="text_13">
      <!-- 0.000 -->
      <g transform="translate(175.057813 173.154985) scale(0.15 -0.15)">
       <use xlink:href="#DejaVuSans-30"/>
       <use xlink:href="#DejaVuSans-2e" x="63.623047"/>
       <use xlink:href="#DejaVuSans-30" x="95.410156"/>
       <use xlink:href="#DejaVuSans-30" x="159.033203"/>
       <use xlink:href="#DejaVuSans-30" x="222.65625"/>
      </g>
     </g>
    </g>
    <g id="ytick_5">
     <g id="line2d_13">
      <g>
       <use xlink:href="#m4ae7132c6e" x="225" y="122.873084" style="stroke: #000000; stroke-width: 0.8"/>
      </g>
     </g>
     <g id="text_14">
      <!-- 0.001 -->
      <g transform="translate(175.057813 128.571912) scale(0.15 -0.15)">
       <use xlink:href="#DejaVuSans-30"/>
       <use xlink:href="#DejaVuSans-2e" x="63.623047"/>
       <use xlink:href="#DejaVuSans-30" x="95.410156"/>
       <use xlink:href="#DejaVuSans-30" x="159.033203"/>
       <use xlink:href="#DejaVuSans-31" x="222.65625"/>
      </g>
     </g>
    </g>
    <g id="ytick_6">
     <g id="line2d_14">
      <g>
       <use xlink:href="#m4ae7132c6e" x="225" y="78.29001" style="stroke: #000000; stroke-width: 0.8"/>
      </g>
     </g>
     <g id="text_15">
      <!-- 0.002 -->
      <g transform="translate(175.057813 83.988838) scale(0.15 -0.15)">
       <use xlink:href="#DejaVuSans-30"/>
       <use xlink:href="#DejaVuSans-2e" x="63.623047"/>
       <use xlink:href="#DejaVuSans-30" x="95.410156"/>
       <use xlink:href="#DejaVuSans-30" x="159.033203"/>
       <use xlink:href="#DejaVuSans-32" x="222.65625"/>
      </g>
     </g>
    </g>
    <g id="text_16">
     <!-- East(m) -->
     <g transform="translate(155.36875 211.140234) rotate(-90) scale(0.15 -0.15)">
      <defs>
       <path id="DejaVuSans-45" d="M 628 4666 
L 3578 4666 
L 3578 4134 
L 1259 4134 
L 1259 2753 
L 3481 2753 
L 3481 2222 
L 1259 2222 
L 1259 531 
L 3634 531 
L 3634 0 
L 628 0 
L 628 4666 
z
" transform="scale(0.015625)"/>
       <path id="DejaVuSans-61" d="M 2194 1759 
Q 1497 1759 1228 1600 
Q 959 1441 959 1056 
Q 959 750 1161 570 
Q 1363 391 1709 391 
Q 2188 391 2477 730 
Q 2766 1069 2766 1631 
L 2766 1759 
L 2194 1759 
z
M 3341 1997 
L 3341 0 
L 2766 0 
L 2766 531 
Q 2569 213 2275 61 
Q 1981 -91 1556 -91 
Q 1019 -91 701 211 
Q 384 513 384 1019 
Q 384 1609 779 1909 
Q 1175 2209 1959 2209 
L 2766 2209 
L 2766 2266 
Q 2766 2663 2505 2880 
Q 2244 3097 1772 3097 
Q 1472 3097 1187 3025 
Q 903 2953 641 2809 
L 641 3341 
Q 956 3463 1253 3523 
Q 1550 3584 1831 3584 
Q 2591 3584 2966 3190 
Q 3341 2797 3341 1997 
z
" transform="scale(0.015625)"/>
       <path id="DejaVuSans-73" d="M 2834 3397 
L 2834 2853 
Q 2591 2978 2328 3040 
Q 2066 3103 1784 3103 
Q 1356 3103 1142 2972 
Q 928 2841 928 2578 
Q 928 2378 1081 2264 
Q 1234 2150 1697 2047 
L 1894 2003 
Q 2506 1872 2764 1633 
Q 3022 1394 3022 966 
Q 3022 478 2636 193 
Q 2250 -91 1575 -91 
Q 1294 -91 989 -36 
Q 684 19 347 128 
L 347 722 
Q 666 556 975 473 
Q 1284 391 1588 391 
Q 1994 391 2212 530 
Q 2431 669 2431 922 
Q 2431 1156 2273 1281 
Q 2116 1406 1581 1522 
L 1381 1569 
Q 847 1681 609 1914 
Q 372 2147 372 2553 
Q 372 3047 722 3315 
Q 1072 3584 1716 3584 
Q 2034 3584 2315 3537 
Q 2597 3491 2834 3397 
z
" transform="scale(0.015625)"/>
       <path id="DejaVuSans-74" d="M 1172 4494 
L 1172 3500 
L 2356 3500 
L 2356 3053 
L 1172 3053 
L 1172 1153 
Q 1172 725 1289 603 
Q 1406 481 1766 481 
L 2356 481 
L 2356 0 
L 1766 0 
Q 1100 0 847 248 
Q 594 497 594 1153 
L 594 3053 
L 172 3053 
L 172 3500 
L 594 3500 
L 594 4494 
L 1172 4494 
z
" transform="scale(0.015625)"/>
       <path id="DejaVuSans-28" d="M 1984 4856 
Q 1566 4138 1362 3434 
Q 1159 2731 1159 2009 
Q 1159 1288 1364 580 
Q 1569 -128 1984 -844 
L 1484 -844 
Q 1016 -109 783 600 
Q 550 1309 550 2009 
Q 550 2706 781 3412 
Q 1013 4119 1484 4856 
L 1984 4856 
z
" transform="scale(0.015625)"/>
       <path id="DejaVuSans-29" d="M 513 4856 
L 1013 4856 
Q 1481 4119 1714 3412 
Q 1947 2706 1947 2009 
Q 1947 1309 1714 600 
Q 1481 -109 1013 -844 
L 513 -844 
Q 928 -128 1133 580 
Q 1338 1288 1338 2009 
Q 1338 2731 1133 3434 
Q 928 4138 513 4856 
z
" transform="scale(0.015625)"/>
      </defs>
      <use xlink:href="#DejaVuSans-45"/>
      <use xlink:href="#DejaVuSans-61" x="63.183594"/>
      <use xlink:href="#DejaVuSans-73" x="124.462891"/>
      <use xlink:href="#DejaVuSans-74" x="176.5625"/>
      <use xlink:href="#DejaVuSans-28" x="215.771484"/>
      <use xlink:href="#DejaVuSans-6d" x="254.785156"/>
      <use xlink:href="#DejaVuSans-29" x="352.197266"/>
     </g>
    </g>
   </g>
   <g id="line2d_15">
    <path d="M 288.409091 134.423949 
L 288.916567 113.633318 
L 289.424042 139.833246 
L 289.931518 150.284204 
L 290.438994 140.27599 
L 290.946469 143.466594 
L 291.961421 145.730605 
L 292.468897 151.630316 
L 292.976372 139.766857 
L 293.483848 131.985935 
L 293.991324 138.165883 
L 294.4988 133.346549 
L 295.006275 134.310278 
L 295.513751 132.000335 
L 296.528702 152.09221 
L 297.036178 164.844977 
L 297.543654 166.203584 
L 298.05113 172.956743 
L 298.558605 175.684687 
L 299.066081 182.571595 
L 299.573557 181.974916 
L 300.588508 171.552862 
L 301.095984 171.217312 
L 301.60346 164.066921 
L 302.110935 153.693811 
L 302.618411 148.98912 
L 303.125887 140.526713 
L 303.633362 148.636471 
L 304.140838 152.065006 
L 304.648314 150.519345 
L 305.15579 153.482943 
L 305.663265 159.497296 
L 306.170741 162.817559 
L 306.678217 156.654364 
L 307.185692 140.969499 
L 307.693168 129.150624 
L 308.200644 122.770883 
L 308.70812 108.194226 
L 309.215595 103.215668 
L 309.723071 91.333102 
L 310.230547 89.583632 
L 310.738022 86.050839 
L 311.245498 81.199661 
L 311.752974 80.953277 
L 312.767925 98.745939 
L 313.782877 134.187129 
L 314.290353 140.303387 
L 314.797828 149.266593 
L 315.81278 171.549407 
L 316.320255 168.863693 
L 316.827731 159.993669 
L 317.335207 146.84367 
L 317.842683 139.744231 
L 319.36511 106.491282 
L 319.872585 97.169059 
L 320.380061 96.18387 
L 320.887537 100.752458 
L 321.395013 102.951775 
L 321.902488 115.857398 
L 322.409964 111.331039 
L 323.424915 138.135851 
L 323.932391 139.876599 
L 324.439867 151.253659 
L 324.947343 159.834724 
L 325.454818 162.282432 
L 325.962294 171.226531 
L 326.46977 166.980409 
L 327.484721 142.094331 
L 327.992197 131.351818 
L 329.007148 120.751432 
L 329.514624 119.0147 
L 330.0221 126.283749 
L 332.052003 186.045836 
L 332.559478 186.315343 
L 333.066954 198.201924 
L 333.57443 191.00695 
L 334.081905 191.588538 
L 334.589381 193.81333 
L 335.096857 191.274103 
L 335.604333 191.549978 
L 336.111808 189.704973 
L 336.619284 174.752544 
L 337.634236 159.05058 
L 338.141711 143.779701 
L 338.649187 135.202652 
L 339.156663 128.982136 
L 339.664138 139.410214 
L 340.171614 152.207564 
L 340.67909 161.081604 
L 341.186566 162.523008 
L 341.694041 161.767104 
L 342.201517 163.13208 
L 342.708993 158.707625 
L 343.216468 152.213242 
L 343.723944 139.005922 
L 344.23142 134.485933 
L 344.738896 139.990766 
L 345.246371 149.979382 
L 345.753847 142.415005 
L 346.261323 141.289698 
L 346.768798 134.916327 
L 347.78375 158.848715 
L 348.291226 160.334702 
L 348.798701 159.11386 
L 349.306177 167.21088 
L 349.813653 162.302381 
L 350.321128 167.940963 
L 351.33608 149.653181 
L 351.843556 149.769831 
L 352.351031 147.052271 
L 352.858507 151.346992 
L 353.365983 153.004943 
L 353.873458 152.535644 
L 354.380934 172.587297 
L 354.88841 177.327848 
L 355.395886 167.311403 
L 355.903361 165.823062 
L 356.410837 165.360132 
L 356.918313 174.297862 
L 357.425788 178.618059 
L 357.933264 163.506405 
L 358.44074 167.024106 
L 358.948216 177.305697 
L 359.455691 180.269295 
L 359.963167 184.914311 
L 360.470643 191.425448 
L 360.978119 189.66324 
L 361.485594 193.96433 
L 361.99307 193.450448 
L 362.500546 192.261451 
L 363.008021 191.938639 
L 364.022973 188.789995 
L 364.530449 191.288655 
L 365.037924 203.557377 
L 365.5454 203.724979 
L 366.052876 207.05161 
L 366.560351 215.932018 
L 367.067827 208.826211 
L 368.082779 232.599373 
L 368.590254 222.627511 
L 369.09773 224.74403 
L 369.605206 214.784906 
L 370.112681 223.085734 
L 370.620157 238.201404 
L 371.127633 231.044644 
L 371.635109 240.663858 
L 372.142584 243.805788 
L 372.65006 245.32362 
L 373.157536 245.968898 
L 374.172487 231.184071 
L 374.679963 235.682601 
L 375.187439 213.284799 
L 375.694914 206.293633 
L 376.20239 188.494257 
L 376.709866 193.145642 
L 377.217341 187.122566 
L 377.724817 173.577689 
L 378.232293 168.414429 
L 378.739769 175.116636 
L 379.247244 177.449701 
L 379.75472 186.858738 
L 380.262196 192.446368 
L 380.769672 193.703071 
L 381.277147 209.003442 
L 381.784623 201.521862 
L 382.292099 206.001285 
L 382.799574 225.880974 
L 383.30705 250.671171 
L 383.814526 252.042516 
L 384.322002 262.763568 
L 384.829477 266.236687 
L 385.336953 272.429373 
L 385.844429 273.463161 
L 386.351904 263.440346 
L 386.85938 250.755285 
L 387.366856 256.387498 
L 387.874332 248.874074 
L 388.381807 245.404971 
L 388.889283 254.043357 
L 389.396759 258.134269 
L 389.904234 254.945403 
L 390.41171 247.48293 
L 390.919186 236.383753 
L 391.426662 238.105394 
L 391.934137 234.585339 
L 392.441613 245.554783 
L 392.949089 220.838661 
L 393.456564 214.732788 
L 393.96404 223.434864 
L 394.471516 230.213499 
L 394.978992 228.183792 
L 395.486467 232.43393 
L 395.993943 211.813082 
L 396.501419 234.157579 
L 397.008894 244.139826 
L 397.51637 242.88077 
L 398.023846 252.84391 
L 398.531322 268.883086 
L 399.038797 266.534929 
L 400.561224 228.07213 
L 402.083652 157.019103 
L 402.591127 148.970682 
L 403.098603 165.220035 
L 403.606079 171.578316 
L 404.113555 171.962464 
L 404.62103 183.454167 
L 405.128506 187.678829 
L 406.143457 175.976603 
L 406.650933 177.284258 
L 407.158409 177.910429 
L 407.665885 182.59366 
L 408.17336 206.237434 
L 408.680836 199.876801 
L 409.188312 204.661936 
L 409.695787 203.542998 
L 410.710739 190.840837 
L 411.218215 188.919404 
L 411.72569 171.056337 
L 412.233166 185.96183 
L 413.248117 200.659153 
L 413.755593 197.947962 
L 414.263069 194.440645 
L 414.770545 188.525842 
L 415.785496 186.186062 
L 416.292972 170.520304 
L 416.800447 168.465122 
L 417.307923 165.588337 
L 417.815399 161.297632 
L 418.322875 161.911065 
L 418.83035 160.441831 
L 419.337826 150.476337 
L 419.845302 169.483473 
L 420.352777 178.924354 
L 420.860253 196.746853 
L 421.367729 207.843677 
L 421.875205 216.220934 
L 422.38268 214.847235 
L 422.890156 220.676888 
L 423.397632 224.455719 
L 423.905107 213.713206 
L 424.412583 222.765578 
L 424.920059 225.347035 
L 425.93501 220.166775 
L 426.442486 219.967081 
L 427.457438 202.320413 
L 427.964913 214.234577 
L 428.472389 190.584186 
L 429.48734 185.635218 
L 429.994816 188.210306 
L 430.502292 192.505027 
L 431.009768 185.838681 
L 431.517243 169.427749 
L 433.03967 134.837308 
L 433.547146 130.782256 
L 434.054622 131.096345 
L 434.562098 129.289554 
L 435.069573 132.45696 
L 435.577049 138.579587 
L 436.084525 140.033729 
L 436.592 143.424051 
L 437.099476 135.343784 
L 437.606952 124.773235 
L 438.114428 119.64182 
L 438.621903 121.981255 
L 439.129379 111.334277 
L 439.636855 108.877847 
L 440.14433 110.013539 
L 440.651806 115.441944 
L 441.666758 130.769798 
L 442.174233 127.160577 
L 442.681709 136.773422 
L 443.189185 141.227368 
L 444.204136 145.868024 
L 444.711612 150.111792 
L 445.219088 149.999158 
L 445.726563 154.733341 
L 446.234039 153.174941 
L 446.741515 158.558763 
L 447.248991 142.835684 
L 447.756466 134.634406 
L 448.263942 124.29951 
L 448.771418 124.116816 
L 449.278893 114.992032 
L 449.786369 111.943284 
L 450.293845 97.9271 
L 450.801321 103.775859 
L 451.308796 108.13427 
L 451.816272 122.638515 
L 452.323748 115.526338 
L 452.831223 113.490263 
L 453.338699 122.740074 
L 454.353651 135.641336 
L 454.861126 129.051418 
L 455.368602 107.551646 
L 455.876078 101.98077 
L 456.383553 102.581465 
L 456.891029 87.138622 
L 457.398505 84.886 
L 457.905981 89.531017 
L 458.413456 92.857648 
L 458.920932 109.278965 
L 459.428408 111.968695 
L 459.935883 112.410165 
L 460.443359 120.691886 
L 460.950835 121.381747 
L 461.458311 134.128145 
L 461.965786 128.525424 
L 462.473262 113.362818 
L 462.980738 109.86187 
L 463.488213 110.800122 
L 463.995689 113.470745 
L 464.503165 110.66402 
L 465.010641 93.928268 
L 465.518116 105.967706 
L 466.533068 137.861357 
L 467.040543 133.080238 
L 467.548019 134.012121 
L 468.055495 143.204611 
L 469.070446 168.079613 
L 469.577922 165.107293 
L 470.085398 160.033199 
L 470.592874 168.556943 
L 471.100349 171.208459 
L 472.115301 169.416414 
L 473.130252 187.705859 
L 473.637728 191.217192 
L 474.145204 198.951178 
L 474.652679 184.807614 
L 475.160155 167.447699 
L 475.667631 168.430535 
L 476.175106 155.821902 
L 476.682582 161.785303 
L 477.190058 177.658885 
L 477.697534 177.431609 
L 478.205009 193.751022 
L 478.712485 197.625388 
L 479.219961 175.718 
L 479.727436 160.007659 
L 480.742388 111.084936 
L 481.249864 97.928568 
L 481.757339 89.771873 
L 483.279766 135.360905 
L 483.787242 161.138298 
L 484.802194 190.299644 
L 485.309669 203.332647 
L 486.324621 193.241781 
L 486.832096 183.77944 
L 487.339572 169.190044 
L 487.847048 161.058826 
L 488.354524 162.207256 
L 488.861999 159.292257 
L 489.369475 188.107668 
L 489.876951 196.274747 
L 490.384426 199.410308 
L 490.891902 196.820129 
L 491.399378 195.414585 
L 491.906854 176.749024 
L 492.414329 168.878934 
L 492.921805 131.749611 
L 493.429281 122.975123 
L 493.936757 127.059666 
L 494.444232 134.55163 
L 495.459184 154.337793 
L 495.966659 157.148534 
L 496.474135 167.614826 
L 496.981611 165.827142 
L 497.996562 153.042185 
L 498.504038 135.478462 
L 499.011514 139.620326 
L 499.518989 135.425156 
L 500.026465 128.529526 
L 500.533941 119.755037 
L 501.041417 115.215941 
L 501.548892 107.766206 
L 502.056368 114.372878 
L 502.563844 118.08165 
L 503.071319 124.096004 
L 503.578795 125.983239 
L 504.086271 153.518479 
L 504.593747 155.806961 
L 505.101222 155.439567 
L 505.608698 160.982614 
L 506.116174 152.418302 
L 506.623649 140.637641 
L 507.131125 131.500119 
L 507.638601 107.771193 
L 508.146077 109.117062 
L 508.653552 114.169696 
L 509.161028 99.357385 
L 510.175979 122.117875 
L 510.683455 136.30367 
L 511.190931 154.138907 
L 511.698407 156.720364 
L 512.713358 190.875014 
L 513.220834 190.303811 
L 513.72831 187.242324 
L 514.235785 178.767179 
L 514.743261 164.46439 
L 515.758212 123.082575 
L 516.773164 108.514295 
L 517.28064 108.681897 
L 517.788115 115.823566 
L 518.295591 132.321311 
L 518.803067 159.448934 
L 519.310542 170.940637 
L 519.818018 175.923211 
L 520.325494 182.22417 
L 521.340445 179.871652 
L 521.847921 166.517845 
L 522.355397 162.074284 
L 522.862872 161.210106 
L 523.370348 156.543629 
L 523.877824 153.966188 
L 524.3853 157.114487 
L 524.892775 158.524046 
L 525.400251 156.277793 
L 525.907727 151.91066 
L 526.415202 136.200319 
L 526.922678 128.680525 
L 527.430154 126.790937 
L 527.93763 121.907914 
L 528.445105 122.623251 
L 528.952581 130.66295 
L 529.460057 140.849006 
L 530.475008 146.445012 
L 530.982484 145.848333 
L 531.48996 148.353362 
L 531.997435 140.922735 
L 532.504911 139.249693 
L 533.012387 136.997071 
L 533.519862 158.150563 
L 534.534814 166.64447 
L 535.04229 181.919365 
L 535.549765 187.876397 
L 536.057241 190.457854 
L 536.564717 183.887043 
L 537.579668 175.846999 
L 538.087144 185.498058 
L 538.59462 172.59645 
L 539.609571 179.166916 
L 540.117047 195.206092 
L 540.624523 200.74277 
L 541.131998 207.8717 
L 541.639474 210.300301 
L 542.14695 201.392064 
L 542.654425 200.406875 
L 543.161901 189.989181 
L 543.669377 184.915088 
L 544.176853 163.447161 
L 544.684328 160.130915 
L 545.191804 137.459245 
L 545.69928 147.078459 
L 546.206755 149.398787 
L 547.729183 182.459975 
L 548.236658 187.62725 
L 548.744134 211.742332 
L 549.25161 219.501794 
L 549.759085 215.109185 
L 550.266561 228.237723 
L 550.774037 222.240123 
L 551.281513 229.916789 
L 551.788988 239.313087 
L 552.296464 241.748057 
L 552.80394 236.597535 
L 553.311415 237.503943 
L 553.818891 234.03484 
L 554.326367 217.235398 
L 555.341318 199.183269 
L 555.848794 186.727492 
L 556.35627 196.302123 
L 556.863745 202.284632 
L 557.371221 186.274947 
L 557.878697 201.696329 
L 558.386173 212.94601 
L 558.893648 211.699692 
L 559.401124 211.918246 
L 560.416076 190.808992 
L 560.923551 193.371342 
L 561.431027 182.469604 
L 561.938503 182.732741 
L 562.445978 195.052415 
L 562.953454 201.410696 
L 563.46093 210.806994 
L 563.968406 225.795283 
L 564.475881 231.956124 
L 564.983357 233.155506 
L 565.998308 223.84166 
L 566.505784 232.422725 
L 567.01326 237.946664 
L 567.520736 230.121158 
L 568.028211 238.835973 
L 568.535687 256.792221 
L 569.043163 257.889699 
L 569.550638 253.382447 
L 570.058114 240.652803 
L 570.56559 239.928744 
L 571.073066 243.669361 
L 572.088017 258.099185 
L 572.595493 262.967117 
L 573.102968 271.293422 
L 573.610444 273.308037 
L 574.11792 278.851084 
L 574.625396 277.776729 
L 575.132871 266.81767 
L 575.640347 243.993144 
L 576.147823 239.49863 
L 576.655298 227.928146 
L 577.162774 226.146831 
L 577.67025 210.684881 
L 578.177726 217.075007 
L 578.685201 213.835188 
L 579.192677 206.238967 
L 579.700153 195.171634 
L 580.207629 193.19288 
L 580.715104 189.0614 
L 581.22258 201.85875 
L 581.730056 202.542242 
L 582.237531 190.035513 
L 582.745007 199.259848 
L 583.759959 221.886589 
L 584.267434 229.423136 
L 584.77491 226.565459 
L 585.282386 210.441132 
L 585.789861 224.251154 
L 586.297337 227.233859 
L 586.804813 221.217152 
L 587.312289 211.289873 
L 588.32724 196.727961 
L 588.834716 199.914475 
L 589.342191 186.987391 
L 589.849667 164.06733 
L 590.357143 154.936177 
L 590.864619 163.421707 
L 591.372094 154.602635 
L 591.87957 155.031367 
L 592.387046 155.00153 
L 592.894521 156.608528 
L 593.401997 179.488022 
L 594.416949 189.19204 
L 594.924424 202.237782 
L 595.4319 199.14445 
L 595.939376 208.629915 
L 596.446851 209.695547 
L 596.954327 215.544307 
L 597.461803 226.220776 
L 598.476754 206.805679 
L 598.98423 209.705587 
L 599.491706 205.344822 
L 599.999181 204.818202 
L 600.506657 196.45133 
L 601.014133 190.797657 
L 601.521609 195.984039 
L 602.029084 199.69918 
L 602.53656 196.771443 
L 603.044036 193.053949 
L 604.058987 189.510426 
L 604.566463 181.379207 
L 605.073939 171.018835 
L 605.581414 166.98289 
L 606.08889 168.245962 
L 606.596366 169.821116 
L 607.103842 165.683267 
L 607.611317 164.347783 
L 608.626269 175.02626 
L 609.133744 182.276202 
L 609.64122 187.685499 
L 610.148696 186.209897 
L 610.656172 188.956948 
L 611.163647 180.37353 
L 611.671123 184.260634 
L 612.178599 181.230993 
L 613.19355 147.721276 
L 613.701026 133.042714 
L 614.715977 128.448304 
L 615.223453 120.597322 
L 615.730929 117.777858 
L 616.238404 134.320187 
L 616.74588 140.219898 
L 617.253356 157.437341 
L 617.760832 163.687348 
L 618.268307 164.205246 
L 618.775783 165.111654 
L 619.283259 168.546558 
L 619.790734 164.281329 
L 620.29821 161.168891 
L 620.805686 155.903727 
L 621.313162 144.54342 
L 621.820637 148.997366 
L 622.835589 168.06383 
L 623.343064 162.282777 
L 623.85054 159.151231 
L 624.358016 155.185346 
L 624.865492 156.416572 
L 625.372967 152.157712 
L 625.880443 132.243824 
L 626.387919 105.387715 
L 627.40287 91.379908 
L 627.910346 89.713235 
L 628.417822 93.714981 
L 628.925297 92.105629 
L 629.432773 95.667914 
L 629.940249 98.243002 
L 630.447725 96.296093 
L 630.9552 93.47026 
L 631.462676 85.377256 
L 631.970152 68.717932 
L 632.477627 71.643316 
L 632.985103 71.944667 
L 633.492579 77.615094 
L 634.50753 94.783593 
L 635.015006 100.702412 
L 635.522482 110.920312 
L 636.029957 107.279246 
L 636.537433 109.841596 
L 637.044909 116.448268 
L 638.05986 151.061487 
L 638.567336 162.604142 
L 639.074812 168.446532 
L 640.089763 184.895333 
L 640.597239 187.164708 
L 642.119666 148.05227 
L 642.627142 139.698136 
L 643.134617 125.936712 
L 644.657045 72.608642 
L 645.16452 66.630149 
L 645.671996 65.498473 
L 646.179472 62.500677 
L 646.686948 64.897432 
L 647.194423 66.173242 
L 647.701899 93.937767 
L 648.209375 111.728421 
L 648.71685 119.710799 
L 649.224326 113.401118 
L 650.239278 135.626611 
L 650.746753 135.125467 
L 651.254229 106.110263 
L 651.761705 93.469785 
L 652.26918 88.593131 
L 653.284132 75.005678 
L 653.791608 68.345701 
L 654.806559 74.737834 
L 655.314035 68.377201 
L 656.328986 87.157059 
L 656.836462 101.400175 
L 657.343938 99.434158 
L 657.851413 87.596176 
L 658.358889 90.814534 
L 658.866365 99.096255 
L 659.37384 89.627544 
L 659.881316 90.73776 
L 660.388792 80.339174 
L 660.896268 86.436325 
L 661.403743 98.380227 
L 661.911219 105.012375 
L 663.941122 149.285029 
L 664.448598 154.515995 
L 664.956073 157.600604 
L 665.463549 158.538856 
L 665.971025 158.521757 
L 666.4785 169.68864 
L 667.493452 179.125259 
L 668.000928 185.562074 
L 668.508403 188.597838 
L 669.015879 204.569061 
L 669.523355 227.743636 
L 670.030831 226.983469 
L 670.538306 221.968803 
L 671.045782 209.806001 
L 672.060733 197.549671 
L 672.568209 184.399673 
L 673.075685 156.72833 
L 673.583161 149.431452 
L 674.090636 138.892747 
L 674.598112 130.997182 
L 675.105588 116.809035 
L 675.613063 110.314652 
L 676.120539 111.807008 
L 676.628015 120.158789 
L 677.135491 123.42173 
L 677.642966 122.729516 
L 678.150442 112.885033 
L 678.657918 120.759138 
L 679.165393 122.837443 
L 680.180345 114.058594 
L 681.195296 128.22092 
L 682.210248 131.60688 
L 682.717723 134.997201 
L 683.225199 135.515099 
L 683.732675 138.886313 
L 684.240151 124.768225 
L 685.255102 113.238061 
L 685.762578 115.331211 
L 686.270053 115.965858 
L 686.777529 104.219148 
L 687.285005 95.80343 
L 687.792481 81.018702 
L 688.299956 84.914282 
L 688.807432 85.992653 
L 689.314908 94.076935 
L 689.822383 88.11118 
L 690.329859 87.699202 
L 690.837335 84.93706 
L 691.344811 97.275841 
L 691.852286 103.232873 
L 692.359762 89.91728 
L 692.867238 79.588753 
L 693.374714 83.545917 
L 693.882189 82.337812 
L 694.389665 96.95033 
L 694.897141 99.168754 
L 695.404616 95.336617 
L 695.912092 117.916767 
L 696.419568 131.892384 
L 696.927044 120.3219 
L 697.434519 129.57808 
L 697.941995 127.803134 
L 698.956946 118.234527 
L 699.464422 109.956821 
L 699.971898 95.220939 
L 700.479374 103.324328 
L 700.986849 95.05936 
L 702.509276 84.410029 
L 703.524228 99.585028 
L 704.031704 99.485132 
L 705.046655 90.063012 
L 705.554131 93.841843 
L 706.061606 101.709579 
L 706.569082 94.591033 
L 707.076558 101.22955 
L 707.584034 100.645609 
L 708.091509 115.481042 
L 708.598985 124.87734 
L 709.106461 128.560636 
L 709.613936 127.307949 
L 710.121412 133.328672 
L 710.628888 124.089245 
L 711.136364 128.046409 
L 711.643839 110.686494 
L 712.151315 114.127767 
L 712.658791 114.900426 
L 713.166267 118.169736 
L 715.196169 164.88809 
L 715.703645 160.272565 
L 716.211121 162.1598 
L 716.718597 169.123137 
L 717.226072 150.674121 
L 717.733548 143.682955 
L 718.241024 134.386208 
L 718.748499 146.164516 
L 719.255975 163.114461 
L 719.763451 169.905834 
L 720.270927 160.666408 
L 720.778402 155.687849 
L 721.285878 159.715072 
L 721.793354 166.493707 
L 722.300829 156.082383 
L 722.808305 136.372303 
L 723.315781 128.642332 
L 723.823257 133.669489 
L 724.330732 160.262116 
L 724.838208 168.040686 
L 725.345684 171.15077 
L 726.360635 194.242449 
L 726.868111 207.861401 
L 727.375587 213.480877 
L 727.883062 207.381372 
L 728.390538 203.07156 
L 728.898014 201.181972 
L 729.405489 203.075576 
L 729.912965 200.924858 
L 730.420441 191.258708 
L 730.927917 190.891313 
L 731.435392 184.135801 
L 731.942868 181.367289 
L 732.450344 186.146055 
L 732.957819 179.982861 
L 733.465295 180.086773 
L 733.972771 180.318065 
L 734.480247 183.963147 
L 734.987722 194.620509 
L 735.495198 196.08739 
L 736.002674 193.032272 
L 736.51015 220.166265 
L 737.525101 254.696686 
L 738.032577 247.393439 
L 738.540052 236.332476 
L 739.047528 249.894107 
L 739.555004 244.794538 
L 740.569955 213.685937 
L 741.077431 205.815848 
L 741.584907 212.320616 
L 742.092382 225.213501 
L 742.599858 213.853194 
L 743.107334 212.619614 
L 744.122285 220.387453 
L 744.629761 231.446063 
L 745.137237 234.422399 
L 746.152188 251.979408 
L 747.16714 257.760116 
L 747.674615 266.557727 
L 748.182091 260.006023 
L 748.689567 260.988859 
L 749.197042 247.463088 
L 749.704518 255.814869 
L 750.211994 274.503553 
L 750.71947 266.302276 
L 751.226945 269.214921 
L 751.734421 277.350156 
L 752.749372 283.15007 
L 753.256848 303.426744 
L 753.764324 307.8 
L 754.2718 301.842721 
L 754.779275 291.401658 
L 755.286751 287.323236 
L 755.794227 281.334112 
L 757.316654 257.023254 
L 757.82413 257.324605 
L 758.331605 269.453209 
L 758.839081 265.614703 
L 759.346557 268.794847 
L 759.854033 266.663237 
L 760.361508 250.271412 
L 760.868984 247.88504 
L 761.37646 238.104248 
L 761.883935 243.265155 
L 762.391411 238.58594 
L 762.898887 222.620838 
L 763.406363 226.737227 
L 763.913838 229.719932 
L 764.421314 227.301716 
L 764.92879 236.685276 
L 765.436265 227.18472 
L 765.943741 230.103735 
L 766.451217 235.022619 
L 766.958693 220.726198 
L 767.466168 221.92558 
L 767.973644 218.150764 
L 768.48112 201.529655 
L 768.988595 196.200801 
L 769.496071 185.241742 
L 770.003547 167.111177 
L 770.511023 175.902419 
L 771.018498 180.611126 
L 771.525974 176.409587 
L 772.03345 178.850926 
L 772.540925 176.29896 
L 773.048401 184.625265 
L 773.555877 188.25124 
L 774.063353 193.303873 
L 774.570828 192.274101 
L 775.078304 189.970527 
L 775.58578 192.208058 
L 776.600731 175.850085 
L 777.108207 188.978624 
L 777.615683 170.599667 
L 778.123158 166.793007 
L 780.660537 123.035206 
L 781.168013 125.616663 
L 781.675488 109.562396 
L 782.182964 111.742605 
L 782.69044 114.489657 
L 783.197916 121.0199 
L 783.705391 131.142266 
L 784.212867 155.56306 
L 784.720343 165.328761 
L 785.227818 171.464126 
L 785.735294 173.313146 
L 786.24277 176.066567 
L 786.750246 197.907912 
L 787.257721 214.908809 
L 787.765197 191.600238 
L 788.272673 190.946238 
L 788.780148 201.457113 
L 789.287624 192.561613 
L 789.7951 178.265192 
L 790.302576 151.23712 
L 791.317527 130.739389 
L 791.825003 129.60982 
L 792.332478 114.589439 
L 792.839954 93.18094 
L 793.34743 103.840409 
L 794.362381 115.573986 
L 794.869857 110.270608 
L 795.377333 107.234598 
L 795.884808 109.701413 
L 796.392284 118.180574 
L 796.89976 111.858154 
L 797.407236 112.981108 
L 797.914711 130.032957 
L 798.422187 132.601676 
L 798.929663 129.584773 
L 799.437138 127.758875 
L 799.944614 122.850375 
L 800.45209 124.686658 
L 800.959566 124.816046 
L 801.467041 98.431244 
L 801.974517 98.777178 
L 802.481993 90.378461 
L 802.989469 96.182637 
L 803.496944 105.629888 
L 804.00442 110.192107 
L 805.019371 132.022722 
L 805.526847 125.490125 
L 806.034323 133.669942 
L 806.541799 132.137019 
L 807.049274 128.489584 
L 807.55675 127.708203 
L 808.571701 116.916746 
L 809.079177 138.732615 
L 809.586653 149.224383 
L 810.094129 154.869334 
L 811.10908 138.313923 
L 811.616556 142.029063 
L 812.124031 164.984985 
L 812.631507 152.745755 
L 813.138983 157.741067 
L 813.646459 145.985881 
L 814.66141 165.4727 
L 815.168886 155.233339 
L 815.676361 122.689703 
L 816.183837 120.812853 
L 816.691313 102.816037 
L 817.198789 114.587977 
L 817.706264 111.176195 
L 818.21374 104.255088 
L 818.721216 119.797482 
L 819.228691 145.842374 
L 819.736167 155.257779 
L 820.243643 179.05441 
L 820.751119 182.419255 
L 821.76607 209.103056 
L 822.273546 201.15017 
L 823.288497 204.816366 
L 823.795973 204.340699 
L 824.303449 217.921437 
L 824.810924 217.254698 
L 825.3184 213.428931 
L 825.825876 212.755824 
L 826.333352 212.987116 
L 826.840827 208.600876 
L 827.348303 202.95994 
L 827.855779 189.058398 
L 828.87073 169.77705 
L 829.378206 177.03973 
L 829.885682 163.552174 
L 830.900633 118.215204 
L 831.408109 110.63172 
L 831.915584 111.423485 
L 832.42306 117.163971 
L 832.930536 111.803273 
L 833.438012 104.582822 
L 833.945487 113.78805 
L 834.452963 128.177653 
L 834.960439 123.944269 
L 835.467914 136.378585 
L 836.482866 130.72692 
L 836.990342 132.996295 
L 837.497817 129.571775 
L 838.005293 118.090457 
L 838.512769 109.787276 
L 839.020244 88.720597 
L 839.52772 86.614462 
L 840.035196 80.986265 
L 840.542672 77.555376 
L 841.050147 81.143137 
L 842.065099 112.310721 
L 842.572574 116.573597 
L 843.08005 119.441659 
L 843.587526 132.143474 
L 844.095002 136.743907 
L 844.602477 132.071061 
L 845.109953 113.481928 
L 845.617429 112.643226 
L 846.124905 122.230595 
L 846.63238 117.780664 
L 847.139856 104.063824 
L 847.647332 105.868261 
L 848.154807 114.640397 
L 848.662283 131.755936 
L 849.169759 132.280203 
L 849.677235 134.008212 
L 850.18471 151.51863 
L 850.692186 162.437122 
L 851.199662 158.878853 
L 851.707137 148.607647 
L 852.214613 135.304792 
L 852.722089 125.511261 
L 854.244516 58.120416 
L 854.751992 57.065168 
L 855.259467 70.378408 
L 855.766943 73.877002 
L 856.781895 84.03959 
L 857.28937 93.098331 
L 857.796846 108.557927 
L 858.304322 112.285806 
L 858.811797 109.676519 
L 859.319273 114.729153 
L 859.826749 123.635037 
L 860.334225 138.464101 
L 860.8417 139.389616 
L 861.349176 131.685121 
L 861.856652 133.164739 
L 862.871603 121.456145 
L 863.886555 82.806636 
L 864.39403 69.153485 
L 864.901506 68.754245 
L 865.408982 62.221648 
L 865.916457 63.077104 
L 866.423933 64.435711 
L 866.931409 77.30312 
L 867.438885 98.564885 
L 867.94636 111.616995 
L 868.453836 106.835876 
L 869.468788 118.100302 
L 869.976263 124.522273 
L 870.483739 121.492632 
L 870.991215 103.948016 
L 871.49869 94.154485 
L 872.006166 106.181185 
L 872.513642 113.367437 
L 873.021118 107.802929 
L 873.528593 103.938948 
L 874.036069 112.201562 
L 874.543545 123.27291 
L 875.05102 155.795086 
L 875.558496 169.834393 
L 876.573448 184.990284 
L 877.080923 186.928471 
L 877.588399 189.904807 
L 878.095875 184.98357 
L 878.60335 166.929433 
L 879.110826 159.161248 
L 879.618302 148.030226 
L 880.125778 148.18509 
L 880.633253 147.518351 
L 881.140729 141.692715 
L 881.648205 147.12112 
L 882.15568 142.218989 
L 882.663156 140.418567 
L 883.170632 149.630164 
L 883.678108 149.320091 
L 884.185583 152.869637 
L 884.693059 160.278804 
L 885.70801 149.538299 
L 886.215486 146.024613 
L 886.722962 136.683283 
L 887.230438 124.297565 
L 887.737913 120.936736 
L 888.245389 110.168747 
L 889.26034 102.408939 
L 889.767816 113.352907 
L 890.275292 106.584656 
L 890.782768 118.146418 
L 891.290243 120.931684 
L 891.797719 132.563505 
L 892.305195 137.329532 
L 892.812671 152.731807 
L 893.320146 135.32731 
L 893.827622 147.513235 
L 894.335098 143.388124 
L 895.350049 129.278412 
L 895.857525 126.758292 
L 896.365001 118.404158 
L 896.872476 120.227703 
L 897.379952 119.057813 
L 897.887428 116.709656 
L 898.394903 124.621975 
L 898.902379 120.229365 
L 899.409855 126.059018 
L 899.917331 130.583023 
L 900.424806 147.246362 
L 900.932282 146.547779 
L 901.439758 154.536526 
L 901.947233 152.366701 
L 902.454709 147.566475 
L 902.962185 156.032898 
L 903.977136 144.60454 
L 904.484612 142.326442 
L 904.992088 141.404943 
L 905.499563 147.158168 
L 906.007039 162.210147 
L 906.514515 151.289302 
L 907.021991 155.883367 
L 907.529466 157.433044 
L 908.036942 166.052323 
L 908.544418 185.282374 
L 909.051893 194.952539 
L 909.559369 189.534519 
L 910.066845 195.147625 
L 910.574321 205.072552 
L 911.081796 202.571538 
L 911.589272 195.293767 
L 912.096748 179.188547 
L 912.604224 168.981031 
L 913.111699 167.027753 
L 913.619175 173.72996 
L 914.126651 170.738533 
L 914.634126 176.332532 
L 915.141602 171.404926 
L 915.649078 171.273184 
L 916.156554 178.542233 
L 916.664029 182.970703 
L 917.171505 194.857285 
L 917.678981 203.56573 
L 919.201408 246.689955 
L 919.708884 251.328602 
L 920.216359 275.762134 
L 920.723835 271.828093 
L 921.231311 270.690048 
L 921.738786 272.309785 
L 922.246262 286.279033 
L 922.753738 296.019258 
L 923.261214 300.861714 
L 923.768689 296.201606 
L 924.276165 295.318321 
L 925.291116 298.182023 
L 925.798592 298.171292 
L 926.306068 289.352221 
L 926.813544 289.800059 
L 927.321019 284.337456 
L 927.828495 286.562249 
L 928.335971 289.513108 
L 929.350922 283.568567 
L 929.858398 268.720149 
L 930.873349 267.548103 
L 931.380825 260.930553 
L 931.888301 250.21136 
L 932.395776 251.020077 
L 932.903252 246.020255 
L 933.410728 233.764025 
L 933.918204 236.092828 
L 934.425679 236.9037 
L 934.933155 227.11017 
L 935.440631 237.767532 
L 936.455582 222.154734 
L 937.470534 227.419651 
L 937.978009 235.028364 
L 938.485485 224.179685 
L 939.500437 213.175894 
L 940.007912 213.81691 
L 940.515388 226.559045 
L 941.022864 219.141156 
L 941.530339 226.977047 
L 942.037815 229.762312 
L 942.545291 248.724864 
L 943.052767 250.784062 
L 943.560242 248.970902 
L 944.067718 243.056099 
L 944.575194 244.459289 
L 945.082669 232.519403 
L 945.590145 235.183657 
L 946.097621 232.816393 
L 946.605097 241.588528 
L 947.112572 254.710698 
L 947.620048 256.311327 
L 948.127524 272.401455 
L 948.634999 280.186394 
L 949.142475 277.742702 
L 949.649951 272.21004 
L 950.157427 255.130361 
L 950.664902 246.381349 
L 951.172378 243.27528 
L 951.679854 234.035853 
L 952.187329 231.592161 
L 952.694805 239.721026 
L 953.202281 251.486597 
L 953.709757 270.277185 
L 954.724708 280.293384 
L 955.232184 287.8193 
L 955.73966 287.218358 
L 956.247135 276.885569 
L 956.754611 272.316734 
L 957.262087 270.63306 
L 957.769562 263.484776 
L 958.277038 250.5768 
L 958.784514 247.27966 
L 959.29199 244.734064 
L 959.799465 246.41749 
L 960.306941 239.305313 
L 960.814417 221.442247 
L 961.321892 210.476819 
L 961.829368 204.441005 
L 962.336844 194.54557 
L 962.84432 197.101551 
L 963.351795 190.301456 
L 963.859271 191.214232 
L 964.366747 199.858987 
L 964.874222 201.204856 
L 965.381698 204.263989 
L 965.889174 205.15129 
L 966.39665 197.172927 
L 966.904125 196.82464 
L 967.411601 203.756131 
L 967.919077 204.617955 
L 968.426552 214.141634 
L 968.934028 212.946268 
L 969.441504 206.044268 
L 969.94898 195.989608 
L 970.456455 196.106258 
L 970.963931 181.121985 
L 971.471407 172.755113 
L 971.978882 162.190932 
L 972.486358 159.893727 
L 972.993834 167.856998 
L 973.50131 177.61633 
L 974.516261 183.893821 
L 975.023737 177.494973 
L 975.531212 168.42751 
L 976.038688 165.818224 
L 977.05364 169.261505 
L 977.561115 159.977496 
L 978.068591 155.686791 
L 978.576067 160.178951 
L 979.083543 173.358441 
L 979.591018 180.016065 
L 980.098494 172.24788 
L 980.60597 169.676808 
L 981.113445 175.37908 
L 981.620921 175.998882 
L 982.128397 168.249804 
L 982.635873 149.125673 
L 983.143348 145.943176 
L 983.650824 148.308087 
L 984.1583 151.590135 
L 984.665775 149.057277 
L 985.173251 148.842738 
L 985.680727 160.506404 
L 986.188203 167.176766 
L 986.695678 187.132884 
L 987.203154 188.854525 
L 987.71063 176.443331 
L 988.218105 173.496487 
L 988.725581 167.269603 
L 989.233057 149.712249 
L 989.740533 153.885958 
L 990.248008 123.603321 
L 990.755484 114.172825 
L 991.770435 111.113346 
L 992.277911 110.491191 
L 992.785387 127.880598 
L 993.292863 115.736902 
L 993.800338 106.28093 
L 994.307814 114.868364 
L 994.81529 116.309768 
L 995.322765 110.9427 
L 995.830241 110.314176 
L 996.337717 100.947369 
L 996.845193 103.12121 
L 997.352668 111.466621 
L 997.860144 101.074404 
L 998.36762 97.618039 
L 998.875095 88.703432 
L 1000.397523 105.504536 
L 1000.904998 103.850602 
L 1001.91995 115.573597 
L 1002.427426 123.492284 
L 1002.934901 126.385823 
L 1003.442377 122.814816 
L 1003.949853 123.224441 
L 1004.457328 128.964927 
L 1005.47228 115.141821 
L 1005.979756 113.685325 
L 1006.994707 111.804114 
L 1007.502183 113.481172 
L 1008.009658 118.508329 
L 1009.02461 126.193371 
L 1009.532086 140.786782 
L 1010.039561 139.706058 
L 1010.547037 143.382985 
L 1011.054513 144.085584 
L 1011.561988 139.005121 
L 1012.069464 143.178831 
L 1012.57694 143.161732 
L 1013.084416 145.876938 
L 1013.591891 152.859382 
L 1014.099367 153.8868 
L 1015.114318 139.694291 
L 1015.621794 123.257883 
L 1016.12927 124.922203 
L 1016.636746 132.465119 
L 1017.144221 126.919719 
L 1018.159173 148.960511 
L 1019.174124 181.822252 
L 1019.6816 186.995896 
L 1020.189076 169.51497 
L 1020.696551 169.969178 
L 1021.204027 157.978339 
L 1021.711503 148.82171 
L 1022.218979 133.926602 
L 1022.726454 133.642004 
L 1023.23393 140.853732 
L 1023.741406 153.899473 
L 1024.248881 160.550728 
L 1024.756357 162.208679 
L 1025.263833 160.682124 
L 1025.771309 169.791817 
L 1026.278784 162.259285 
L 1026.78626 167.967927 
L 1027.293736 180.306708 
L 1027.801211 184.614167 
L 1028.816163 213.877417 
L 1029.831114 224.180122 
L 1030.33859 223.417849 
L 1030.846066 202.421229 
L 1031.353541 194.703996 
L 1031.861017 172.045065 
L 1032.368493 158.270903 
L 1032.875969 149.216178 
L 1033.383444 146.498618 
L 1034.905871 110.462412 
L 1035.413347 108.738418 
L 1035.920823 114.969318 
L 1036.935774 122.023828 
L 1037.44325 120.312572 
L 1037.950726 126.696328 
L 1038.965677 149.70521 
L 1039.473153 149.82186 
L 1039.980629 147.81763 
L 1040.488104 142.316812 
L 1040.99558 140.115143 
L 1041.503056 155.75944 
L 1042.010531 165.760795 
L 1042.518007 151.368839 
L 1043.025483 153.86113 
L 1043.532959 162.47404 
L 1044.040434 173.91479 
L 1044.54791 177.521658 
L 1045.055386 168.282232 
L 1045.562862 149.183577 
L 1046.070337 156.771077 
L 1046.577813 142.646619 
L 1047.085289 133.859393 
L 1047.592764 137.931198 
L 1048.10024 136.079824 
L 1048.607716 138.514794 
L 1049.115192 154.541232 
L 1049.622667 158.536609 
L 1050.130143 176.41643 
L 1050.637619 170.023951 
L 1051.145094 148.861737 
L 1051.65257 147.838334 
L 1052.160046 142.171923 
L 1052.667522 133.028032 
L 1053.174997 138.131617 
L 1053.682473 137.280177 
L 1054.189949 145.249817 
L 1054.697424 145.353729 
L 1055.2049 144.922644 
L 1055.712376 147.969039 
L 1056.219852 140.729482 
L 1056.727327 121.121307 
L 1057.234803 117.715894 
L 1057.742279 116.437731 
L 1058.249754 124.923261 
L 1058.75723 115.932226 
L 1059.264706 114.176387 
L 1059.772182 114.598749 
L 1060.279657 111.671012 
L 1061.294609 97.624991 
L 1061.802084 100.805135 
L 1062.30956 111.080357 
L 1062.817036 103.630622 
L 1063.324512 103.326918 
L 1063.831987 123.212976 
L 1064.846939 134.916864 
L 1065.354414 132.008234 
L 1065.86189 128.156991 
L 1066.369366 132.133261 
L 1066.876842 137.689046 
L 1067.384317 140.850083 
L 1067.891793 169.525376 
L 1068.399269 183.26534 
L 1068.906745 189.776476 
L 1069.921696 209.479841 
L 1070.429172 214.557951 
L 1070.936647 201.981163 
L 1071.444123 181.920788 
L 1071.951599 175.64932 
L 1072.459075 174.982582 
L 1072.96655 171.50711 
L 1073.981502 168.829772 
L 1074.488977 187.766848 
L 1074.996453 175.311072 
L 1075.503929 175.077426 
L 1076.011405 177.792633 
L 1076.51888 168.158328 
L 1077.026356 156.142013 
L 1077.533832 160.506793 
L 1078.041307 152.222718 
L 1078.548783 173.388948 
L 1079.056259 177.155041 
L 1080.07121 214.748956 
L 1080.578686 230.425099 
L 1081.086162 234.337679 
L 1081.593637 232.817493 
L 1082.101113 220.864869 
L 1082.608589 211.797406 
L 1083.116065 194.163623 
L 1083.62354 186.268058 
L 1084.131016 187.875057 
L 1085.145967 193.693979 
L 1086.160919 224.645017 
L 1086.668395 221.672697 
L 1087.17587 221.273457 
L 1087.683346 214.664432 
L 1088.190822 215.462566 
L 1088.698298 217.923012 
L 1089.713249 189.795108 
L 1090.220725 211.20336 
L 1090.7282 205.511473 
L 1091.235676 213.200876 
L 1091.743152 217.393693 
L 1092.250628 217.128203 
L 1092.758103 224.059694 
L 1093.265579 221.450407 
L 1093.773055 194.269478 
L 1094.28053 210.665319 
L 1094.788006 222.736602 
L 1095.295482 207.854232 
L 1095.802958 214.601022 
L 1096.310433 216.239866 
L 1096.817909 233.317191 
L 1097.325385 255.126691 
L 1097.83286 256.861069 
L 1098.340336 249.908118 
L 1098.847812 255.967055 
L 1099.355288 249.377137 
L 1099.862763 248.812303 
L 1100.877715 258.490944 
L 1101.38519 251.858549 
L 1101.892666 253.346643 
L 1102.400142 237.409124 
L 1102.907618 245.552834 
L 1103.415093 241.385247 
L 1104.430045 213.004689 
L 1104.93752 210.86671 
L 1105.444996 195.207321 
L 1105.952472 208.584251 
L 1106.967423 199.703497 
L 1107.474899 217.366771 
L 1107.982375 210.426557 
L 1108.48985 198.454825 
L 1108.997326 200.775153 
L 1109.504802 192.631196 
L 1110.012278 200.549884 
L 1110.519753 210.341061 
L 1111.027229 196.598744 
L 1111.534705 201.326558 
L 1112.549656 224.46282 
L 1113.057132 225.611249 
L 1113.564608 204.799331 
L 1114.072083 210.966541 
L 1115.087035 230.32598 
L 1116.101986 208.99381 
L 1116.609462 222.650977 
L 1117.116938 221.411027 
L 1117.624413 210.018875 
L 1118.131889 207.702564 
L 1118.639365 190.240745 
L 1119.146841 206.515574 
L 1119.654316 209.823099 
L 1120.161792 208.876124 
L 1120.669268 221.208536 
L 1121.176743 224.032016 
L 1121.684219 224.397057 
L 1122.191695 243.302288 
L 1122.699171 244.087684 
L 1123.206646 250.21668 
L 1123.714122 237.537988 
L 1124.729073 259.222115 
L 1125.236549 244.129568 
L 1125.744025 237.558757 
L 1126.251501 227.841655 
L 1126.758976 228.238542 
L 1127.266452 241.972136 
L 1127.773928 223.91163 
L 1128.281403 223.996435 
L 1128.788879 254.07928 
L 1129.296355 244.005513 
L 1129.803831 247.758868 
L 1130.311306 241.958707 
L 1130.818782 233.445348 
L 1131.326258 248.236198 
L 1131.833733 241.945624 
L 1132.341209 210.567517 
L 1133.356161 219.303446 
L 1133.863636 232.189962 
L 1134.371112 231.03281 
L 1135.386064 204.089543 
L 1135.893539 209.103962 
L 1136.401015 206.596579 
L 1137.415966 166.947136 
L 1138.430918 157.798883 
L 1138.938394 155.49531 
L 1139.445869 155.401782 
L 1139.953345 160.48626 
L 1140.968296 180.399803 
L 1141.475772 182.344359 
L 1141.983248 183.199814 
L 1142.998199 193.617162 
L 1143.505675 184.893626 
L 1144.013151 184.997538 
L 1144.520626 176.783522 
L 1145.028102 177.467014 
L 1145.535578 177.895745 
L 1146.550529 185.459777 
L 1147.058005 181.041691 
L 1147.565481 181.967206 
L 1148.072956 187.663109 
L 1148.580432 178.996893 
L 1149.087908 183.871194 
L 1149.595384 183.542014 
L 1150.102859 175.073238 
L 1150.610335 177.845765 
L 1151.117811 164.632076 
L 1151.625286 154.927712 
L 1152.132762 152.713304 
L 1153.147714 165.219687 
L 1153.655189 188.506798 
L 1155.177617 225.497665 
L 1155.685092 237.766387 
L 1156.192568 232.380212 
L 1156.700044 216.618919 
L 1157.207519 191.335955 
L 1157.714995 183.605984 
L 1158.222471 182.155858 
L 1159.237422 158.104121 
L 1159.744898 151.189383 
L 1160.252374 148.701108 
L 1160.759849 148.429249 
L 1161.267325 146.896325 
L 1161.774801 129.873968 
L 1162.282277 118.074199 
L 1162.789752 118.451979 
L 1163.804704 134.537746 
L 1164.312179 143.95952 
L 1164.819655 141.764219 
L 1165.327131 152.75277 
L 1165.834607 158.620637 
L 1166.342082 160.087517 
L 1166.849558 148.198582 
L 1167.357034 141.882532 
L 1167.864509 129.050984 
L 1168.371985 124.23165 
L 1169.386937 135.578874 
L 1169.894412 160.509189 
L 1170.401888 170.612447 
L 1170.909364 178.18084 
L 1171.416839 182.997819 
L 1171.924315 192.820841 
L 1172.431791 188.823111 
L 1172.939267 188.188217 
L 1173.446742 169.739202 
L 1173.954218 167.206344 
L 1174.461694 166.838949 
L 1174.969169 163.560916 
L 1175.476645 168.072184 
L 1175.984121 160.596973 
L 1176.491597 159.44619 
L 1176.999072 159.56284 
L 1177.506548 160.055262 
L 1178.014024 157.61157 
L 1178.5215 167.491913 
L 1179.028975 160.424319 
L 1179.536451 166.699802 
L 1180.043927 165.60634 
L 1180.551402 159.303028 
L 1181.058878 160.082055 
L 1181.566354 161.211378 
L 1182.07383 145.131634 
L 1182.581305 148.668443 
L 1183.088781 158.71438 
L 1183.596257 180.428345 
L 1185.118684 203.900008 
L 1185.62616 203.413709 
L 1186.133635 207.723274 
L 1186.641111 207.326141 
L 1187.148587 207.744241 
L 1187.656062 192.596479 
L 1188.671014 171.761093 
L 1189.17849 166.585095 
L 1189.685965 178.758282 
L 1190.193441 179.314394 
L 1190.700917 170.438001 
L 1191.208392 190.279477 
L 1191.715868 203.465336 
L 1192.223344 223.300443 
L 1192.73082 235.811187 
L 1193.238295 245.156533 
L 1193.745771 244.725448 
L 1194.253247 248.536125 
L 1194.760722 227.743313 
L 1195.775674 195.023353 
L 1196.28315 190.165806 
L 1196.790625 177.054021 
L 1197.298101 192.354392 
L 1197.805577 200.540579 
L 1198.313052 204.427683 
L 1198.820528 197.774075 
L 1199.328004 197.381204 
L 1199.83548 193.383473 
L 1200.342955 190.678652 
L 1200.850431 176.605146 
L 1201.357907 169.238209 
L 1201.865383 166.100295 
L 1202.372858 170.681621 
L 1202.880334 173.333137 
L 1203.38781 179.392074 
L 1203.895285 183.024418 
L 1204.402761 181.338638 
L 1204.910237 180.964874 
L 1205.417713 177.623152 
L 1205.925188 179.35753 
L 1206.432664 189.409837 
L 1206.94014 185.176453 
L 1207.447615 182.694546 
L 1207.955091 175.461358 
L 1208.970043 152.63884 
L 1209.477518 154.373219 
L 1209.984994 140.2615 
L 1210.49247 133.391345 
L 1210.999945 147.214106 
L 1211.507421 143.324648 
L 1212.522373 156.601682 
L 1213.029848 159.527066 
L 1213.537324 167.2101 
L 1214.0448 170.574946 
L 1214.552275 153.47616 
L 1215.059751 160.656043 
L 1215.567227 160.842752 
L 1216.074703 167.646863 
L 1216.582178 167.094767 
L 1217.089654 153.511676 
L 1218.612081 128.067133 
L 1219.119557 130.71228 
L 1219.627033 121.88684 
L 1220.134508 115.37335 
L 1220.641984 119.483369 
L 1221.14946 121.434295 
L 1221.656936 125.595266 
L 1222.164411 142.61527 
L 1222.671887 137.802306 
L 1223.179363 152.268337 
L 1223.686838 162.08499 
L 1224.194314 160.513852 
L 1224.70179 175.011728 
L 1225.209266 181.535602 
L 1225.716741 173.054088 
L 1226.224217 177.679998 
L 1227.239168 139.915781 
L 1227.746644 147.732565 
L 1228.761596 132.412741 
L 1229.269071 125.950204 
L 1229.776547 124.149782 
L 1230.284023 141.195261 
L 1230.791498 144.642904 
L 1231.298974 129.174585 
L 1231.80645 125.762804 
L 1232.313926 130.547938 
L 1232.821401 138.243711 
L 1233.328877 128.208158 
L 1233.836353 143.272876 
L 1235.35878 160.093087 
L 1235.866256 164.757211 
L 1236.373731 156.989026 
L 1236.881207 158.080134 
L 1237.388683 122.466636 
L 1237.896158 130.620977 
L 1238.403634 134.871115 
L 1238.91111 136.191508 
L 1239.418586 134.448407 
L 1239.926061 143.787384 
L 1240.433537 160.590841 
L 1240.941013 167.286679 
L 1241.955964 141.610845 
L 1242.46344 135.938064 
L 1242.970916 136.608818 
L 1243.478391 132.190733 
L 1243.985867 120.365488 
L 1244.493343 128.889232 
L 1245.000819 129.088679 
L 1245.508294 131.300734 
L 1246.01577 136.149559 
L 1246.523246 143.189323 
L 1247.030721 145.605186 
L 1247.538197 164.459465 
L 1248.045673 166.824375 
L 1248.553149 174.711218 
L 1249.060624 173.878886 
L 1249.5681 171.938345 
L 1250.075576 159.27876 
L 1250.583051 152.160215 
L 1251.090527 123.756436 
L 1251.598003 112.810114 
L 1252.105479 112.990455 
L 1252.612954 118.48255 
L 1253.12043 115.370111 
L 1254.135381 141.518915 
L 1254.642857 146.323157 
L 1255.150333 148.624377 
L 1255.657809 139.053763 
L 1256.165284 167.805484 
L 1256.67276 169.851944 
L 1257.687711 146.10592 
L 1258.195187 159.61023 
L 1258.702663 165.758333 
L 1259.210139 176.670455 
L 1259.717614 164.520391 
L 1260.22509 156.459232 
L 1260.732566 163.511734 
L 1261.240041 175.88873 
L 1262.254993 194.40109 
L 1262.762469 199.931399 
L 1263.269944 192.838329 
L 1263.77742 206.680196 
L 1264.284896 207.854102 
L 1264.792371 214.93845 
L 1265.807323 209.571382 
L 1266.314799 203.548306 
L 1266.822274 195.264231 
L 1267.32975 197.794736 
L 1267.837226 203.834566 
L 1268.344702 202.6392 
L 1269.359653 177.135328 
L 1269.867129 170.589993 
L 1270.374604 167.585828 
L 1270.88208 169.084554 
L 1271.389556 160.959704 
L 1271.897032 155.592636 
L 1272.404507 143.563583 
L 1273.419459 131.0716 
L 1273.926934 138.894753 
L 1274.941886 119.810844 
L 1275.449362 129.735771 
L 1275.956837 150.691823 
L 1276.971789 178.725854 
L 1277.479264 167.951496 
L 1277.98674 175.322449 
L 1278.494216 179.088542 
L 1279.001692 163.995995 
L 1279.509167 159.463267 
L 1280.524119 141.181854 
L 1281.031594 157.48216 
L 1281.53907 156.802683 
L 1282.554022 185.104213 
L 1283.061497 188.32894 
L 1283.568973 195.305014 
L 1284.076449 206.790348 
L 1284.583924 199.098591 
L 1285.0914 200.355294 
L 1285.598876 199.038917 
L 1286.106352 199.384851 
L 1286.613827 211.698156 
L 1287.121303 219.916188 
L 1287.628779 220.828964 
L 1288.136255 230.314428 
L 1288.64373 236.825565 
L 1289.151206 231.681412 
L 1289.658682 244.504238 
L 1290.166157 232.774529 
L 1290.673633 232.260647 
L 1291.181109 228.957138 
L 1291.688585 238.684625 
L 1292.19606 234.438503 
L 1292.703536 254.85319 
L 1293.718487 231.59121 
L 1294.225963 228.701687 
L 1294.733439 224.74217 
L 1295.240915 206.936425 
L 1295.74839 213.103635 
L 1296.255866 201.947136 
L 1296.763342 214.496095 
L 1297.270817 232.637045 
L 1297.778293 234.632553 
L 1298.285769 246.41723 
L 1298.793245 265.870196 
L 1299.808196 287.369622 
L 1300.315672 287.04681 
L 1300.823147 290.150526 
L 1301.330623 300.495807 
L 1301.838099 304.765052 
L 1302.345575 280.456547 
L 1302.85305 244.524598 
L 1303.360526 233.348992 
L 1303.868002 231.994401 
L 1304.375477 222.742236 
L 1304.882953 221.266634 
L 1305.390429 213.702257 
L 1305.897905 222.882009 
L 1306.40538 235.265373 
L 1306.912856 226.580051 
L 1307.420332 201.290718 
L 1307.927807 198.248339 
L 1308.435283 186.206548 
L 1308.942759 183.839284 
L 1309.450235 199.088703 
L 1309.95771 225.127226 
L 1311.987613 271.310583 
L 1312.495089 267.153627 
L 1313.002565 259.971391 
L 1313.51004 242.063741 
L 1314.524992 260.448721 
L 1315.032468 266.17647 
L 1315.539943 250.179523 
L 1316.047419 253.308715 
L 1316.554895 238.279858 
L 1317.06237 236.078189 
L 1317.569846 209.967253 
L 1318.584798 187.660625 
L 1319.092273 187.592574 
L 1319.599749 189.639034 
L 1320.107225 203.55733 
L 1320.6147 204.693022 
L 1321.629652 218.753444 
L 1322.137128 215.016842 
L 1322.644603 219.247873 
L 1323.659555 205.099948 
L 1324.16703 201.204121 
L 1324.674506 198.397395 
L 1325.181982 203.704789 
L 1325.689458 194.535422 
L 1326.704409 199.67286 
L 1327.211885 185.30638 
L 1327.71936 184.282977 
L 1328.226836 197.946513 
L 1328.734312 181.229868 
L 1329.241788 185.327149 
L 1329.749263 184.743208 
L 1330.256739 191.445415 
L 1330.764215 204.631275 
L 1331.27169 197.531836 
L 1331.779166 180.063648 
L 1332.286642 201.675708 
L 1332.794118 199.123743 
L 1333.301593 202.272042 
L 1333.809069 189.344959 
L 1334.316545 171.520106 
L 1334.824021 173.572935 
L 1335.331496 179.00134 
L 1335.838972 174.564148 
L 1336.346448 177.43221 
L 1336.853923 176.357855 
L 1337.361399 176.015937 
L 1337.868875 184.692537 
L 1338.376351 186.624355 
L 1338.883826 177.24481 
L 1339.391302 159.585552 
L 1339.898778 147.836736 
L 1340.406253 141.960147 
L 1340.913729 137.529323 
L 1341.421205 138.276505 
L 1341.928681 136.221323 
L 1342.436156 149.349861 
L 1342.943632 145.29481 
L 1343.451108 148.646917 
L 1343.958583 134.089367 
L 1344.466059 135.779162 
L 1344.973535 128.31669 
L 1345.481011 132.076414 
L 1345.988486 125.753995 
L 1346.495962 139.723242 
L 1347.003438 133.859392 
L 1347.510913 143.96265 
L 1348.018389 146.372144 
L 1348.525865 160.5452 
L 1349.033341 152.566838 
L 1350.048292 141.635262 
L 1350.555768 148.955263 
L 1351.570719 157.315421 
L 1352.078195 155.495892 
L 1352.585671 165.853911 
L 1353.600622 147.29863 
L 1354.108098 150.809962 
L 1355.123049 142.457836 
L 1356.138001 121.011025 
L 1356.645476 138.394062 
L 1357.152952 147.287209 
L 1357.660428 145.830713 
L 1358.167904 148.252945 
L 1359.690331 160.086221 
L 1360.197806 160.686916 
L 1361.212758 156.19441 
L 1361.720234 159.189853 
L 1362.227709 166.66271 
L 1362.735185 170.530707 
L 1364.257612 134.640988 
L 1364.765088 141.941882 
L 1365.780039 127.876753 
L 1366.287515 118.790183 
L 1366.794991 125.358641 
L 1367.302466 135.461899 
L 1367.809942 142.65452 
L 1369.332369 101.274713 
L 1369.839845 104.480334 
L 1370.347321 109.469277 
L 1370.854796 100.147053 
L 1371.362272 118.409014 
L 1371.869748 115.888894 
L 1372.377224 120.960634 
L 1373.392175 103.755583 
L 1373.899651 89.682078 
L 1374.407126 94.588224 
L 1374.914602 79.266393 
L 1375.422078 87.140497 
L 1375.929554 89.639157 
L 1376.437029 104.009653 
L 1376.944505 105.202666 
L 1377.451981 130.470538 
L 1377.959457 149.445828 
L 1378.466932 158.326237 
L 1378.974408 158.321876 
L 1379.481884 166.297885 
L 1379.989359 177.509351 
L 1380.496835 194.529355 
L 1381.004311 186.512778 
L 1381.511787 171.745051 
L 1382.019262 170.122961 
L 1382.526738 180.691157 
L 1383.034214 185.03683 
L 1383.541689 194.070095 
L 1384.049165 191.715569 
L 1384.556641 187.214686 
L 1385.064117 189.617811 
L 1385.571592 184.664729 
L 1386.079068 186.488274 
L 1386.586544 187.840512 
L 1387.094019 169.334175 
L 1387.601495 169.813859 
L 1388.108971 174.917444 
L 1388.616447 166.939082 
L 1389.123922 165.711871 
L 1389.631398 169.528916 
L 1390.138874 178.326527 
L 1390.646349 191.856313 
L 1391.153825 202.201594 
L 1391.661301 195.497034 
L 1392.168777 204.785059 
L 1392.676252 197.88306 
L 1393.183728 185.860376 
L 1394.198679 147.631222 
L 1394.706155 124.354496 
L 1395.213631 143.17693 
L 1395.721107 144.96863 
L 1396.228582 147.925858 
L 1396.736058 137.106917 
L 1397.751009 148.549676 
L 1398.258485 150.494232 
L 1398.765961 132.446464 
L 1399.273437 122.066985 
L 1399.780912 122.183635 
L 1400.288388 131.579933 
L 1401.30334 108.292478 
L 1401.810815 107.740382 
L 1402.318291 105.315797 
L 1402.825767 98.71314 
L 1403.333242 90.231626 
L 1403.840718 86.437704 
L 1404.348194 94.541093 
L 1404.85567 96.530232 
L 1405.363145 93.57065 
L 1405.870621 91.712907 
L 1406.378097 93.249846 
L 1406.885572 101.397819 
L 1407.393048 105.909086 
L 1407.900524 104.414376 
L 1408.408 109.460641 
L 1408.915475 121.799422 
L 1409.422951 125.909441 
L 1409.930427 142.980397 
L 1410.437902 144.581027 
L 1410.945378 142.576796 
L 1411.452854 147.412883 
L 1411.96033 157.388761 
L 1412.467805 155.677505 
L 1412.975281 149.985618 
L 1413.482757 125.046581 
L 1415.51266 60.995105 
L 1416.020135 55.8 
L 1416.527611 57.426106 
L 1417.542562 63.385146 
L 1418.050038 76.246186 
L 1418.557514 96.138614 
L 1419.06499 98.318823 
L 1419.572465 109.797788 
L 1420.079941 113.723106 
L 1421.094893 129.535006 
L 1421.602368 126.932088 
L 1422.109844 113.756614 
L 1422.61732 115.452778 
L 1423.124795 114.639553 
L 1423.632271 118.227314 
L 1424.139747 117.388612 
L 1424.647223 122.288389 
L 1425.154698 113.83872 
L 1425.662174 100.981696 
L 1426.16965 105.594867 
L 1427.184601 99.089754 
L 1427.692077 103.078762 
L 1428.199553 110.749059 
L 1428.707028 115.967286 
L 1429.214504 125.261681 
L 1429.72198 119.97741 
L 1430.229455 104.961291 
L 1430.736931 106.160673 
L 1431.244407 101.997348 
L 1431.751883 102.470662 
L 1432.766834 126.173766 
L 1433.27431 128.379451 
L 1433.781785 138.839375 
L 1434.796737 121.704383 
L 1435.304213 106.032256 
L 1435.811688 95.24516 
L 1436.319164 92.119984 
L 1436.82664 103.426985 
L 1437.334115 105.925645 
L 1437.841591 125.601527 
L 1438.349067 136.857576 
L 1438.856543 144.559717 
L 1439.364018 161.401389 
L 1439.871494 174.217846 
L 1440.37897 163.672773 
L 1440.886445 161.636697 
L 1441.393921 146.340342 
L 1441.901397 149.730663 
L 1442.916348 134.684707 
L 1443.423824 122.623809 
L 1443.9313 129.205005 
L 1444.438776 129.442666 
L 1444.946251 130.387287 
L 1445.453727 130.790543 
L 1445.961203 151.956773 
L 1446.468678 148.271123 
L 1446.976154 151.82067 
L 1447.48363 143.759511 
L 1447.991106 141.143855 
L 1448.498581 148.814152 
L 1449.006057 150.523054 
L 1449.513533 141.653031 
L 1450.021008 151.546112 
L 1450.528484 150.267948 
L 1451.03596 165.43457 
L 1451.543436 175.728899 
L 1452.050911 175.380611 
L 1452.558387 169.90527 
L 1453.065863 166.372477 
L 1453.573338 148.783278 
L 1454.080814 154.390015 
L 1454.58829 140.558532 
L 1455.095766 130.395599 
L 1455.603241 130.989925 
L 1456.110717 132.743411 
L 1456.618193 135.834389 
L 1457.125668 151.886303 
L 1458.14062 159.54587 
L 1458.648096 166.203493 
L 1459.155571 170.046015 
L 1459.663047 163.749071 
L 1460.170523 159.923304 
L 1461.185474 143.030334 
L 1461.69295 139.733195 
L 1462.200426 130.774005 
L 1462.707901 117.700434 
L 1463.215377 108.359104 
L 1463.722853 106.552313 
L 1464.230328 112.337382 
L 1465.24528 137.193277 
L 1465.752756 125.157855 
L 1466.260231 146.088431 
L 1466.767707 156.077047 
L 1467.275183 157.371964 
L 1467.782659 164.965833 
L 1468.290134 156.191344 
L 1468.79761 166.810492 
L 1469.305086 190.785456 
L 1469.812561 170.247405 
L 1470.320037 188.254605 
L 1470.827513 199.657142 
L 1471.334989 197.589221 
L 1471.842464 191.878227 
L 1472.34994 176.696514 
L 1472.857416 171.138375 
L 1473.364891 175.726071 
L 1473.872367 162.442323 
L 1474.379843 154.037237 
L 1474.887319 152.345088 
L 1475.394794 164.887677 
L 1475.90227 167.055149 
L 1476.409746 183.476466 
L 1476.917221 190.681824 
L 1477.424697 192.390727 
L 1477.932173 188.055439 
L 1478.439649 190.15922 
L 1478.947124 187.709159 
L 1479.4546 200.837697 
L 1479.962076 194.031233 
L 1480.469551 180.964031 
L 1480.977027 182.583768 
L 1481.991979 210.280241 
L 1482.499454 217.275423 
L 1483.00693 213.4815 
L 1483.514406 201.025723 
L 1484.021881 208.976256 
L 1484.529357 206.774587 
L 1485.036833 203.630303 
L 1485.544309 184.46159 
L 1486.051784 174.228598 
L 1486.55926 160.989433 
L 1488.081687 211.667304 
L 1488.589163 213.41442 
L 1489.096639 208.51229 
L 1489.604114 213.367484 
L 1490.11159 225.910074 
L 1490.619066 221.912343 
L 1491.126542 211.641137 
L 1491.634017 189.421667 
L 1492.141493 184.659655 
L 1492.648969 189.266457 
L 1493.156444 190.33209 
L 1493.66392 182.028908 
L 1494.171396 177.515288 
L 1494.678872 169.352224 
L 1495.186347 178.188049 
L 1495.693823 175.489597 
L 1496.201299 181.179131 
L 1496.708774 178.321453 
L 1497.21625 177.336264 
L 1497.723726 184.700848 
L 1498.231202 201.440616 
L 1498.738677 200.640128 
L 1499.246153 210.46315 
L 1499.753629 202.892405 
L 1500.261104 203.282922 
L 1500.76858 206.940742 
L 1501.276056 195.867041 
L 1501.783532 194.423283 
L 1502.291007 192.030543 
L 1502.798483 193.420995 
L 1503.813434 192.951696 
L 1504.32091 180.126517 
L 1505.335862 165.360798 
L 1505.843337 161.433126 
L 1506.350813 160.282343 
L 1506.858289 144.782179 
L 1507.87324 166.453569 
L 1508.888192 206.773421 
L 1509.395667 206.737215 
L 1509.903143 204.248939 
L 1510.410619 195.952126 
L 1510.918095 172.248677 
L 1511.42557 164.0474 
L 1511.933046 138.796281 
L 1512.440522 125.200451 
L 1513.962949 161.92382 
L 1514.470425 179.54888 
L 1514.9779 188.824167 
L 1515.485376 192.036157 
L 1515.992852 192.070009 
L 1517.515279 143.098342 
L 1518.022755 129.598048 
L 1518.53023 119.740828 
L 1519.037706 112.11913 
L 1519.545182 112.178459 
L 1520.052657 106.486571 
L 1520.560133 107.291075 
L 1521.067609 115.146072 
L 1521.575085 119.147819 
L 1522.08256 130.633153 
L 1522.590036 145.927155 
L 1523.097512 146.432314 
L 1523.604987 170.222576 
L 1524.112463 183.994385 
L 1525.127415 203.863344 
L 1525.63489 202.425956 
L 1526.142366 203.275042 
L 1526.649842 199.850522 
L 1527.664793 173.760702 
L 1528.172269 176.036447 
L 1528.679745 174.363405 
L 1529.18722 170.161866 
L 1529.694696 174.195457 
L 1530.202172 175.32478 
L 1530.709647 153.965126 
L 1531.217123 144.095168 
L 1532.232075 120.979676 
L 1532.73955 118.510507 
L 1533.247026 107.79984 
L 1533.754502 114.151751 
L 1535.276929 170.523517 
L 1536.29188 186.613646 
L 1536.799356 186.016967 
L 1537.306832 182.18483 
L 1537.814308 182.702728 
L 1538.321783 181.615635 
L 1538.829259 173.662749 
L 1539.84421 147.814951 
L 1540.351686 144.479597 
L 1540.859162 158.684498 
L 1541.366638 148.222222 
L 1542.381589 147.449218 
L 1542.889065 137.45188 
L 1543.39654 142.122372 
L 1543.904016 140.302843 
L 1544.411492 125.108392 
L 1545.426443 143.168553 
L 1545.933919 146.552505 
L 1546.441395 165.43226 
L 1546.94887 157.103602 
L 1547.456346 162.149866 
L 1547.963822 176.106376 
L 1548.471298 179.108188 
L 1549.486249 155.616924 
L 1549.993725 136.792137 
L 1550.5012 139.991388 
L 1551.008676 135.758004 
L 1551.516152 117.933151 
L 1552.023628 111.305019 
L 1552.531103 109.154301 
L 1553.038579 123.945152 
L 1553.546055 157.467262 
L 1554.561006 201.60852 
L 1555.068482 194.623723 
L 1555.575958 199.115884 
L 1556.083433 197.309093 
L 1556.590909 177.599013 
L 1556.590909 177.599013 
" clip-path="url(#pcabaae087b)" style="fill: none; stroke: #36acac; stroke-width: 2.5; stroke-linecap: square"/>
   </g>
   <g id="patch_3">
    <path d="M 225 320.4 
L 225 43.2 
" style="fill: none; stroke: #000000; stroke-width: 0.8; stroke-linejoin: miter; stroke-linecap: square"/>
   </g>
   <g id="patch_4">
    <path d="M 1620 320.4 
L 1620 43.2 
" style="fill: none; stroke: #000000; stroke-width: 0.8; stroke-linejoin: miter; stroke-linecap: square"/>
   </g>
   <g id="patch_5">
    <path d="M 225 320.4 
L 1620 320.4 
" style="fill: none; stroke: #000000; stroke-width: 0.8; stroke-linejoin: miter; stroke-linecap: square"/>
   </g>
   <g id="patch_6">
    <path d="M 225 43.2 
L 1620 43.2 
" style="fill: none; stroke: #000000; stroke-width: 0.8; stroke-linejoin: miter; stroke-linecap: square"/>
   </g>
   <g id="text_17">
    <!-- KRBG -->
    <g transform="translate(894.559375 37.2) scale(0.2 -0.2)">
     <defs>
      <path id="DejaVuSans-4b" d="M 628 4666 
L 1259 4666 
L 1259 2694 
L 3353 4666 
L 4166 4666 
L 1850 2491 
L 4331 0 
L 3500 0 
L 1259 2247 
L 1259 0 
L 628 0 
L 628 4666 
z
" transform="scale(0.015625)"/>
      <path id="DejaVuSans-52" d="M 2841 2188 
Q 3044 2119 3236 1894 
Q 3428 1669 3622 1275 
L 4263 0 
L 3584 0 
L 2988 1197 
Q 2756 1666 2539 1819 
Q 2322 1972 1947 1972 
L 1259 1972 
L 1259 0 
L 628 0 
L 628 4666 
L 2053 4666 
Q 2853 4666 3247 4331 
Q 3641 3997 3641 3322 
Q 3641 2881 3436 2590 
Q 3231 2300 2841 2188 
z
M 1259 4147 
L 1259 2491 
L 2053 2491 
Q 2509 2491 2742 2702 
Q 2975 2913 2975 3322 
Q 2975 3731 2742 3939 
Q 2509 4147 2053 4147 
L 1259 4147 
z
" transform="scale(0.015625)"/>
      <path id="DejaVuSans-42" d="M 1259 2228 
L 1259 519 
L 2272 519 
Q 2781 519 3026 730 
Q 3272 941 3272 1375 
Q 3272 1813 3026 2020 
Q 2781 2228 2272 2228 
L 1259 2228 
z
M 1259 4147 
L 1259 2741 
L 2194 2741 
Q 2656 2741 2882 2914 
Q 3109 3088 3109 3444 
Q 3109 3797 2882 3972 
Q 2656 4147 2194 4147 
L 1259 4147 
z
M 628 4666 
L 2241 4666 
Q 2963 4666 3353 4366 
Q 3744 4066 3744 3513 
Q 3744 3084 3544 2831 
Q 3344 2578 2956 2516 
Q 3422 2416 3680 2098 
Q 3938 1781 3938 1306 
Q 3938 681 3513 340 
Q 3088 0 2303 0 
L 628 0 
L 628 4666 
z
" transform="scale(0.015625)"/>
      <path id="DejaVuSans-47" d="M 3809 666 
L 3809 1919 
L 2778 1919 
L 2778 2438 
L 4434 2438 
L 4434 434 
Q 4069 175 3628 42 
Q 3188 -91 2688 -91 
Q 1594 -91 976 548 
Q 359 1188 359 2328 
Q 359 3472 976 4111 
Q 1594 4750 2688 4750 
Q 3144 4750 3555 4637 
Q 3966 4525 4313 4306 
L 4313 3634 
Q 3963 3931 3569 4081 
Q 3175 4231 2741 4231 
Q 1884 4231 1454 3753 
Q 1025 3275 1025 2328 
Q 1025 1384 1454 906 
Q 1884 428 2741 428 
Q 3075 428 3337 486 
Q 3600 544 3809 666 
z
" transform="scale(0.015625)"/>
     </defs>
     <use xlink:href="#DejaVuSans-4b"/>
     <use xlink:href="#DejaVuSans-52" x="65.576172"/>
     <use xlink:href="#DejaVuSans-42" x="135.058594"/>
     <use xlink:href="#DejaVuSans-47" x="201.912109"/>
    </g>
   </g>
   <g id="legend_1">
    <g id="patch_7">
     <path d="M 1558.401562 65.878125 
L 1613 65.878125 
Q 1615 65.878125 1615 63.878125 
L 1615 50.2 
Q 1615 48.2 1613 48.2 
L 1558.401562 48.2 
Q 1556.401562 48.2 1556.401562 50.2 
L 1556.401562 63.878125 
Q 1556.401562 65.878125 1558.401562 65.878125 
z
" style="fill: #ffffff; opacity: 0.8; stroke: #cccccc; stroke-linejoin: miter"/>
    </g>
    <g id="line2d_16">
     <path d="M 1560.401562 56.298437 
L 1570.401562 56.298437 
L 1580.401562 56.298437 
" style="fill: none; stroke: #36acac; stroke-width: 2.5; stroke-linecap: square"/>
    </g>
    <g id="text_18">
     <!-- krbg -->
     <g transform="translate(1588.401562 59.798437) scale(0.1 -0.1)">
      <defs>
       <path id="DejaVuSans-6b" d="M 581 4863 
L 1159 4863 
L 1159 1991 
L 2875 3500 
L 3609 3500 
L 1753 1863 
L 3688 0 
L 2938 0 
L 1159 1709 
L 1159 0 
L 581 0 
L 581 4863 
z
" transform="scale(0.015625)"/>
       <path id="DejaVuSans-72" d="M 2631 2963 
Q 2534 3019 2420 3045 
Q 2306 3072 2169 3072 
Q 1681 3072 1420 2755 
Q 1159 2438 1159 1844 
L 1159 0 
L 581 0 
L 581 3500 
L 1159 3500 
L 1159 2956 
Q 1341 3275 1631 3429 
Q 1922 3584 2338 3584 
Q 2397 3584 2469 3576 
Q 2541 3569 2628 3553 
L 2631 2963 
z
" transform="scale(0.015625)"/>
       <path id="DejaVuSans-62" d="M 3116 1747 
Q 3116 2381 2855 2742 
Q 2594 3103 2138 3103 
Q 1681 3103 1420 2742 
Q 1159 2381 1159 1747 
Q 1159 1113 1420 752 
Q 1681 391 2138 391 
Q 2594 391 2855 752 
Q 3116 1113 3116 1747 
z
M 1159 2969 
Q 1341 3281 1617 3432 
Q 1894 3584 2278 3584 
Q 2916 3584 3314 3078 
Q 3713 2572 3713 1747 
Q 3713 922 3314 415 
Q 2916 -91 2278 -91 
Q 1894 -91 1617 61 
Q 1341 213 1159 525 
L 1159 0 
L 581 0 
L 581 4863 
L 1159 4863 
L 1159 2969 
z
" transform="scale(0.015625)"/>
       <path id="DejaVuSans-67" d="M 2906 1791 
Q 2906 2416 2648 2759 
Q 2391 3103 1925 3103 
Q 1463 3103 1205 2759 
Q 947 2416 947 1791 
Q 947 1169 1205 825 
Q 1463 481 1925 481 
Q 2391 481 2648 825 
Q 2906 1169 2906 1791 
z
M 3481 434 
Q 3481 -459 3084 -895 
Q 2688 -1331 1869 -1331 
Q 1566 -1331 1297 -1286 
Q 1028 -1241 775 -1147 
L 775 -588 
Q 1028 -725 1275 -790 
Q 1522 -856 1778 -856 
Q 2344 -856 2625 -561 
Q 2906 -266 2906 331 
L 2906 616 
Q 2728 306 2450 153 
Q 2172 0 1784 0 
Q 1141 0 747 490 
Q 353 981 353 1791 
Q 353 2603 747 3093 
Q 1141 3584 1784 3584 
Q 2172 3584 2450 3431 
Q 2728 3278 2906 2969 
L 2906 3500 
L 3481 3500 
L 3481 434 
z
" transform="scale(0.015625)"/>
      </defs>
      <use xlink:href="#DejaVuSans-6b"/>
      <use xlink:href="#DejaVuSans-72" x="57.910156"/>
      <use xlink:href="#DejaVuSans-62" x="99.023438"/>
      <use xlink:href="#DejaVuSans-67" x="162.5"/>
     </g>
    </g>
   </g>
  </g>
 </g>
 <defs>
  <clipPath id="pcabaae087b">
   <rect x="225" y="43.2" width="1395" height="277.2"/>
  </clipPath>
 </defs>
</svg>
