<?xml version="1.0" encoding="utf-8" standalone="no"?>
<!DOCTYPE svg PUBLIC "-//W3C//DTD SVG 1.1//EN"
  "http://www.w3.org/Graphics/SVG/1.1/DTD/svg11.dtd">
<svg xmlns:xlink="http://www.w3.org/1999/xlink" width="1800pt" height="360pt" viewBox="0 0 1800 360" xmlns="http://www.w3.org/2000/svg" version="1.1">
 <metadata>
  <rdf:RDF xmlns:dc="http://purl.org/dc/elements/1.1/" xmlns:cc="http://creativecommons.org/ns#" xmlns:rdf="http://www.w3.org/1999/02/22-rdf-syntax-ns#">
   <cc:Work>
    <dc:type rdf:resource="http://purl.org/dc/dcmitype/StillImage"/>
    <dc:date>2024-03-18T15:43:40.310590</dc:date>
    <dc:format>image/svg+xml</dc:format>
    <dc:creator>
     <cc:Agent>
      <dc:title>Matplotlib v3.7.2, https://matplotlib.org/</dc:title>
     </cc:Agent>
    </dc:creator>
   </cc:Work>
  </rdf:RDF>
 </metadata>
 <defs>
  <style type="text/css">*{stroke-linejoin: round; stroke-linecap: butt}</style>
 </defs>
 <g id="figure_1">
  <g id="patch_1">
   <path d="M 0 360 
L 1800 360 
L 1800 0 
L 0 0 
z
" style="fill: #ffffff"/>
  </g>
  <g id="axes_1">
   <g id="patch_2">
    <path d="M 225 320.4 
L 1620 320.4 
L 1620 43.2 
L 225 43.2 
z
" style="fill: #ffffff"/>
   </g>
   <g id="matplotlib.axis_1">
    <g id="xtick_1">
     <g id="line2d_1">
      <defs>
       <path id="mca09f1426f" d="M 0 0 
L 0 3.5 
" style="stroke: #000000; stroke-width: 0.8"/>
      </defs>
      <g>
       <use xlink:href="#mca09f1426f" x="259.661751" y="320.4" style="stroke: #000000; stroke-width: 0.8"/>
      </g>
     </g>
     <g id="text_1">
      <!-- 2011 -->
      <g transform="translate(240.574251 338.797656) scale(0.15 -0.15)">
       <defs>
        <path id="DejaVuSans-32" d="M 1228 531 
L 3431 531 
L 3431 0 
L 469 0 
L 469 531 
Q 828 903 1448 1529 
Q 2069 2156 2228 2338 
Q 2531 2678 2651 2914 
Q 2772 3150 2772 3378 
Q 2772 3750 2511 3984 
Q 2250 4219 1831 4219 
Q 1534 4219 1204 4116 
Q 875 4013 500 3803 
L 500 4441 
Q 881 4594 1212 4672 
Q 1544 4750 1819 4750 
Q 2544 4750 2975 4387 
Q 3406 4025 3406 3419 
Q 3406 3131 3298 2873 
Q 3191 2616 2906 2266 
Q 2828 2175 2409 1742 
Q 1991 1309 1228 531 
z
" transform="scale(0.015625)"/>
        <path id="DejaVuSans-30" d="M 2034 4250 
Q 1547 4250 1301 3770 
Q 1056 3291 1056 2328 
Q 1056 1369 1301 889 
Q 1547 409 2034 409 
Q 2525 409 2770 889 
Q 3016 1369 3016 2328 
Q 3016 3291 2770 3770 
Q 2525 4250 2034 4250 
z
M 2034 4750 
Q 2819 4750 3233 4129 
Q 3647 3509 3647 2328 
Q 3647 1150 3233 529 
Q 2819 -91 2034 -91 
Q 1250 -91 836 529 
Q 422 1150 422 2328 
Q 422 3509 836 4129 
Q 1250 4750 2034 4750 
z
" transform="scale(0.015625)"/>
        <path id="DejaVuSans-31" d="M 794 531 
L 1825 531 
L 1825 4091 
L 703 3866 
L 703 4441 
L 1819 4666 
L 2450 4666 
L 2450 531 
L 3481 531 
L 3481 0 
L 794 0 
L 794 531 
z
" transform="scale(0.015625)"/>
       </defs>
       <use xlink:href="#DejaVuSans-32"/>
       <use xlink:href="#DejaVuSans-30" x="63.623047"/>
       <use xlink:href="#DejaVuSans-31" x="127.246094"/>
       <use xlink:href="#DejaVuSans-31" x="190.869141"/>
      </g>
     </g>
    </g>
    <g id="xtick_2">
     <g id="line2d_2">
      <g>
       <use xlink:href="#mca09f1426f" x="431.674521" y="320.4" style="stroke: #000000; stroke-width: 0.8"/>
      </g>
     </g>
     <g id="text_2">
      <!-- 2012 -->
      <g transform="translate(412.587021 338.797656) scale(0.15 -0.15)">
       <use xlink:href="#DejaVuSans-32"/>
       <use xlink:href="#DejaVuSans-30" x="63.623047"/>
       <use xlink:href="#DejaVuSans-31" x="127.246094"/>
       <use xlink:href="#DejaVuSans-32" x="190.869141"/>
      </g>
     </g>
    </g>
    <g id="xtick_3">
     <g id="line2d_3">
      <g>
       <use xlink:href="#mca09f1426f" x="604.158559" y="320.4" style="stroke: #000000; stroke-width: 0.8"/>
      </g>
     </g>
     <g id="text_3">
      <!-- 2013 -->
      <g transform="translate(585.071059 338.797656) scale(0.15 -0.15)">
       <defs>
        <path id="DejaVuSans-33" d="M 2597 2516 
Q 3050 2419 3304 2112 
Q 3559 1806 3559 1356 
Q 3559 666 3084 287 
Q 2609 -91 1734 -91 
Q 1441 -91 1130 -33 
Q 819 25 488 141 
L 488 750 
Q 750 597 1062 519 
Q 1375 441 1716 441 
Q 2309 441 2620 675 
Q 2931 909 2931 1356 
Q 2931 1769 2642 2001 
Q 2353 2234 1838 2234 
L 1294 2234 
L 1294 2753 
L 1863 2753 
Q 2328 2753 2575 2939 
Q 2822 3125 2822 3475 
Q 2822 3834 2567 4026 
Q 2313 4219 1838 4219 
Q 1578 4219 1281 4162 
Q 984 4106 628 3988 
L 628 4550 
Q 988 4650 1302 4700 
Q 1616 4750 1894 4750 
Q 2613 4750 3031 4423 
Q 3450 4097 3450 3541 
Q 3450 3153 3228 2886 
Q 3006 2619 2597 2516 
z
" transform="scale(0.015625)"/>
       </defs>
       <use xlink:href="#DejaVuSans-32"/>
       <use xlink:href="#DejaVuSans-30" x="63.623047"/>
       <use xlink:href="#DejaVuSans-31" x="127.246094"/>
       <use xlink:href="#DejaVuSans-33" x="190.869141"/>
      </g>
     </g>
    </g>
    <g id="xtick_4">
     <g id="line2d_4">
      <g>
       <use xlink:href="#mca09f1426f" x="776.171329" y="320.4" style="stroke: #000000; stroke-width: 0.8"/>
      </g>
     </g>
     <g id="text_4">
      <!-- 2014 -->
      <g transform="translate(757.083829 338.797656) scale(0.15 -0.15)">
       <defs>
        <path id="DejaVuSans-34" d="M 2419 4116 
L 825 1625 
L 2419 1625 
L 2419 4116 
z
M 2253 4666 
L 3047 4666 
L 3047 1625 
L 3713 1625 
L 3713 1100 
L 3047 1100 
L 3047 0 
L 2419 0 
L 2419 1100 
L 313 1100 
L 313 1709 
L 2253 4666 
z
" transform="scale(0.015625)"/>
       </defs>
       <use xlink:href="#DejaVuSans-32"/>
       <use xlink:href="#DejaVuSans-30" x="63.623047"/>
       <use xlink:href="#DejaVuSans-31" x="127.246094"/>
       <use xlink:href="#DejaVuSans-34" x="190.869141"/>
      </g>
     </g>
    </g>
    <g id="xtick_5">
     <g id="line2d_5">
      <g>
       <use xlink:href="#mca09f1426f" x="948.184099" y="320.4" style="stroke: #000000; stroke-width: 0.8"/>
      </g>
     </g>
     <g id="text_5">
      <!-- 2015 -->
      <g transform="translate(929.096599 338.797656) scale(0.15 -0.15)">
       <defs>
        <path id="DejaVuSans-35" d="M 691 4666 
L 3169 4666 
L 3169 4134 
L 1269 4134 
L 1269 2991 
Q 1406 3038 1543 3061 
Q 1681 3084 1819 3084 
Q 2600 3084 3056 2656 
Q 3513 2228 3513 1497 
Q 3513 744 3044 326 
Q 2575 -91 1722 -91 
Q 1428 -91 1123 -41 
Q 819 9 494 109 
L 494 744 
Q 775 591 1075 516 
Q 1375 441 1709 441 
Q 2250 441 2565 725 
Q 2881 1009 2881 1497 
Q 2881 1984 2565 2268 
Q 2250 2553 1709 2553 
Q 1456 2553 1204 2497 
Q 953 2441 691 2322 
L 691 4666 
z
" transform="scale(0.015625)"/>
       </defs>
       <use xlink:href="#DejaVuSans-32"/>
       <use xlink:href="#DejaVuSans-30" x="63.623047"/>
       <use xlink:href="#DejaVuSans-31" x="127.246094"/>
       <use xlink:href="#DejaVuSans-35" x="190.869141"/>
      </g>
     </g>
    </g>
    <g id="xtick_6">
     <g id="line2d_6">
      <g>
       <use xlink:href="#mca09f1426f" x="1120.196868" y="320.4" style="stroke: #000000; stroke-width: 0.8"/>
      </g>
     </g>
     <g id="text_6">
      <!-- 2016 -->
      <g transform="translate(1101.109368 338.797656) scale(0.15 -0.15)">
       <defs>
        <path id="DejaVuSans-36" d="M 2113 2584 
Q 1688 2584 1439 2293 
Q 1191 2003 1191 1497 
Q 1191 994 1439 701 
Q 1688 409 2113 409 
Q 2538 409 2786 701 
Q 3034 994 3034 1497 
Q 3034 2003 2786 2293 
Q 2538 2584 2113 2584 
z
M 3366 4563 
L 3366 3988 
Q 3128 4100 2886 4159 
Q 2644 4219 2406 4219 
Q 1781 4219 1451 3797 
Q 1122 3375 1075 2522 
Q 1259 2794 1537 2939 
Q 1816 3084 2150 3084 
Q 2853 3084 3261 2657 
Q 3669 2231 3669 1497 
Q 3669 778 3244 343 
Q 2819 -91 2113 -91 
Q 1303 -91 875 529 
Q 447 1150 447 2328 
Q 447 3434 972 4092 
Q 1497 4750 2381 4750 
Q 2619 4750 2861 4703 
Q 3103 4656 3366 4563 
z
" transform="scale(0.015625)"/>
       </defs>
       <use xlink:href="#DejaVuSans-32"/>
       <use xlink:href="#DejaVuSans-30" x="63.623047"/>
       <use xlink:href="#DejaVuSans-31" x="127.246094"/>
       <use xlink:href="#DejaVuSans-36" x="190.869141"/>
      </g>
     </g>
    </g>
    <g id="xtick_7">
     <g id="line2d_7">
      <g>
       <use xlink:href="#mca09f1426f" x="1292.680906" y="320.4" style="stroke: #000000; stroke-width: 0.8"/>
      </g>
     </g>
     <g id="text_7">
      <!-- 2017 -->
      <g transform="translate(1273.593406 338.797656) scale(0.15 -0.15)">
       <defs>
        <path id="DejaVuSans-37" d="M 525 4666 
L 3525 4666 
L 3525 4397 
L 1831 0 
L 1172 0 
L 2766 4134 
L 525 4134 
L 525 4666 
z
" transform="scale(0.015625)"/>
       </defs>
       <use xlink:href="#DejaVuSans-32"/>
       <use xlink:href="#DejaVuSans-30" x="63.623047"/>
       <use xlink:href="#DejaVuSans-31" x="127.246094"/>
       <use xlink:href="#DejaVuSans-37" x="190.869141"/>
      </g>
     </g>
    </g>
    <g id="xtick_8">
     <g id="line2d_8">
      <g>
       <use xlink:href="#mca09f1426f" x="1464.693676" y="320.4" style="stroke: #000000; stroke-width: 0.8"/>
      </g>
     </g>
     <g id="text_8">
      <!-- 2018 -->
      <g transform="translate(1445.606176 338.797656) scale(0.15 -0.15)">
       <defs>
        <path id="DejaVuSans-38" d="M 2034 2216 
Q 1584 2216 1326 1975 
Q 1069 1734 1069 1313 
Q 1069 891 1326 650 
Q 1584 409 2034 409 
Q 2484 409 2743 651 
Q 3003 894 3003 1313 
Q 3003 1734 2745 1975 
Q 2488 2216 2034 2216 
z
M 1403 2484 
Q 997 2584 770 2862 
Q 544 3141 544 3541 
Q 544 4100 942 4425 
Q 1341 4750 2034 4750 
Q 2731 4750 3128 4425 
Q 3525 4100 3525 3541 
Q 3525 3141 3298 2862 
Q 3072 2584 2669 2484 
Q 3125 2378 3379 2068 
Q 3634 1759 3634 1313 
Q 3634 634 3220 271 
Q 2806 -91 2034 -91 
Q 1263 -91 848 271 
Q 434 634 434 1313 
Q 434 1759 690 2068 
Q 947 2378 1403 2484 
z
M 1172 3481 
Q 1172 3119 1398 2916 
Q 1625 2713 2034 2713 
Q 2441 2713 2670 2916 
Q 2900 3119 2900 3481 
Q 2900 3844 2670 4047 
Q 2441 4250 2034 4250 
Q 1625 4250 1398 4047 
Q 1172 3844 1172 3481 
z
" transform="scale(0.015625)"/>
       </defs>
       <use xlink:href="#DejaVuSans-32"/>
       <use xlink:href="#DejaVuSans-30" x="63.623047"/>
       <use xlink:href="#DejaVuSans-31" x="127.246094"/>
       <use xlink:href="#DejaVuSans-38" x="190.869141"/>
      </g>
     </g>
    </g>
    <g id="text_9">
     <!-- Time -->
     <g transform="translate(904.149609 357.314844) scale(0.15 -0.15)">
      <defs>
       <path id="DejaVuSans-54" d="M -19 4666 
L 3928 4666 
L 3928 4134 
L 2272 4134 
L 2272 0 
L 1638 0 
L 1638 4134 
L -19 4134 
L -19 4666 
z
" transform="scale(0.015625)"/>
       <path id="DejaVuSans-69" d="M 603 3500 
L 1178 3500 
L 1178 0 
L 603 0 
L 603 3500 
z
M 603 4863 
L 1178 4863 
L 1178 4134 
L 603 4134 
L 603 4863 
z
" transform="scale(0.015625)"/>
       <path id="DejaVuSans-6d" d="M 3328 2828 
Q 3544 3216 3844 3400 
Q 4144 3584 4550 3584 
Q 5097 3584 5394 3201 
Q 5691 2819 5691 2113 
L 5691 0 
L 5113 0 
L 5113 2094 
Q 5113 2597 4934 2840 
Q 4756 3084 4391 3084 
Q 3944 3084 3684 2787 
Q 3425 2491 3425 1978 
L 3425 0 
L 2847 0 
L 2847 2094 
Q 2847 2600 2669 2842 
Q 2491 3084 2119 3084 
Q 1678 3084 1418 2786 
Q 1159 2488 1159 1978 
L 1159 0 
L 581 0 
L 581 3500 
L 1159 3500 
L 1159 2956 
Q 1356 3278 1631 3431 
Q 1906 3584 2284 3584 
Q 2666 3584 2933 3390 
Q 3200 3197 3328 2828 
z
" transform="scale(0.015625)"/>
       <path id="DejaVuSans-65" d="M 3597 1894 
L 3597 1613 
L 953 1613 
Q 991 1019 1311 708 
Q 1631 397 2203 397 
Q 2534 397 2845 478 
Q 3156 559 3463 722 
L 3463 178 
Q 3153 47 2828 -22 
Q 2503 -91 2169 -91 
Q 1331 -91 842 396 
Q 353 884 353 1716 
Q 353 2575 817 3079 
Q 1281 3584 2069 3584 
Q 2775 3584 3186 3129 
Q 3597 2675 3597 1894 
z
M 3022 2063 
Q 3016 2534 2758 2815 
Q 2500 3097 2075 3097 
Q 1594 3097 1305 2825 
Q 1016 2553 972 2059 
L 3022 2063 
z
" transform="scale(0.015625)"/>
      </defs>
      <use xlink:href="#DejaVuSans-54"/>
      <use xlink:href="#DejaVuSans-69" x="57.958984"/>
      <use xlink:href="#DejaVuSans-6d" x="85.742188"/>
      <use xlink:href="#DejaVuSans-65" x="183.154297"/>
     </g>
    </g>
   </g>
   <g id="matplotlib.axis_2">
    <g id="ytick_1">
     <g id="line2d_9">
      <defs>
       <path id="maa2626e298" d="M 0 0 
L -3.5 0 
" style="stroke: #000000; stroke-width: 0.8"/>
      </defs>
      <g>
       <use xlink:href="#maa2626e298" x="225" y="315.837979" style="stroke: #000000; stroke-width: 0.8"/>
      </g>
     </g>
     <g id="text_10">
      <!-- −0.004 -->
      <g transform="translate(162.488281 321.536807) scale(0.15 -0.15)">
       <defs>
        <path id="DejaVuSans-2212" d="M 678 2272 
L 4684 2272 
L 4684 1741 
L 678 1741 
L 678 2272 
z
" transform="scale(0.015625)"/>
        <path id="DejaVuSans-2e" d="M 684 794 
L 1344 794 
L 1344 0 
L 684 0 
L 684 794 
z
" transform="scale(0.015625)"/>
       </defs>
       <use xlink:href="#DejaVuSans-2212"/>
       <use xlink:href="#DejaVuSans-30" x="83.789062"/>
       <use xlink:href="#DejaVuSans-2e" x="147.412109"/>
       <use xlink:href="#DejaVuSans-30" x="179.199219"/>
       <use xlink:href="#DejaVuSans-30" x="242.822266"/>
       <use xlink:href="#DejaVuSans-34" x="306.445312"/>
      </g>
     </g>
    </g>
    <g id="ytick_2">
     <g id="line2d_10">
      <g>
       <use xlink:href="#maa2626e298" x="225" y="284.687494" style="stroke: #000000; stroke-width: 0.8"/>
      </g>
     </g>
     <g id="text_11">
      <!-- −0.003 -->
      <g transform="translate(162.488281 290.386322) scale(0.15 -0.15)">
       <use xlink:href="#DejaVuSans-2212"/>
       <use xlink:href="#DejaVuSans-30" x="83.789062"/>
       <use xlink:href="#DejaVuSans-2e" x="147.412109"/>
       <use xlink:href="#DejaVuSans-30" x="179.199219"/>
       <use xlink:href="#DejaVuSans-30" x="242.822266"/>
       <use xlink:href="#DejaVuSans-33" x="306.445312"/>
      </g>
     </g>
    </g>
    <g id="ytick_3">
     <g id="line2d_11">
      <g>
       <use xlink:href="#maa2626e298" x="225" y="253.537009" style="stroke: #000000; stroke-width: 0.8"/>
      </g>
     </g>
     <g id="text_12">
      <!-- −0.002 -->
      <g transform="translate(162.488281 259.235837) scale(0.15 -0.15)">
       <use xlink:href="#DejaVuSans-2212"/>
       <use xlink:href="#DejaVuSans-30" x="83.789062"/>
       <use xlink:href="#DejaVuSans-2e" x="147.412109"/>
       <use xlink:href="#DejaVuSans-30" x="179.199219"/>
       <use xlink:href="#DejaVuSans-30" x="242.822266"/>
       <use xlink:href="#DejaVuSans-32" x="306.445312"/>
      </g>
     </g>
    </g>
    <g id="ytick_4">
     <g id="line2d_12">
      <g>
       <use xlink:href="#maa2626e298" x="225" y="222.386523" style="stroke: #000000; stroke-width: 0.8"/>
      </g>
     </g>
     <g id="text_13">
      <!-- −0.001 -->
      <g transform="translate(162.488281 228.085351) scale(0.15 -0.15)">
       <use xlink:href="#DejaVuSans-2212"/>
       <use xlink:href="#DejaVuSans-30" x="83.789062"/>
       <use xlink:href="#DejaVuSans-2e" x="147.412109"/>
       <use xlink:href="#DejaVuSans-30" x="179.199219"/>
       <use xlink:href="#DejaVuSans-30" x="242.822266"/>
       <use xlink:href="#DejaVuSans-31" x="306.445312"/>
      </g>
     </g>
    </g>
    <g id="ytick_5">
     <g id="line2d_13">
      <g>
       <use xlink:href="#maa2626e298" x="225" y="191.236038" style="stroke: #000000; stroke-width: 0.8"/>
      </g>
     </g>
     <g id="text_14">
      <!-- 0.000 -->
      <g transform="translate(175.057813 196.934866) scale(0.15 -0.15)">
       <use xlink:href="#DejaVuSans-30"/>
       <use xlink:href="#DejaVuSans-2e" x="63.623047"/>
       <use xlink:href="#DejaVuSans-30" x="95.410156"/>
       <use xlink:href="#DejaVuSans-30" x="159.033203"/>
       <use xlink:href="#DejaVuSans-30" x="222.65625"/>
      </g>
     </g>
    </g>
    <g id="ytick_6">
     <g id="line2d_14">
      <g>
       <use xlink:href="#maa2626e298" x="225" y="160.085553" style="stroke: #000000; stroke-width: 0.8"/>
      </g>
     </g>
     <g id="text_15">
      <!-- 0.001 -->
      <g transform="translate(175.057813 165.784381) scale(0.15 -0.15)">
       <use xlink:href="#DejaVuSans-30"/>
       <use xlink:href="#DejaVuSans-2e" x="63.623047"/>
       <use xlink:href="#DejaVuSans-30" x="95.410156"/>
       <use xlink:href="#DejaVuSans-30" x="159.033203"/>
       <use xlink:href="#DejaVuSans-31" x="222.65625"/>
      </g>
     </g>
    </g>
    <g id="ytick_7">
     <g id="line2d_15">
      <g>
       <use xlink:href="#maa2626e298" x="225" y="128.935067" style="stroke: #000000; stroke-width: 0.8"/>
      </g>
     </g>
     <g id="text_16">
      <!-- 0.002 -->
      <g transform="translate(175.057813 134.633895) scale(0.15 -0.15)">
       <use xlink:href="#DejaVuSans-30"/>
       <use xlink:href="#DejaVuSans-2e" x="63.623047"/>
       <use xlink:href="#DejaVuSans-30" x="95.410156"/>
       <use xlink:href="#DejaVuSans-30" x="159.033203"/>
       <use xlink:href="#DejaVuSans-32" x="222.65625"/>
      </g>
     </g>
    </g>
    <g id="ytick_8">
     <g id="line2d_16">
      <g>
       <use xlink:href="#maa2626e298" x="225" y="97.784582" style="stroke: #000000; stroke-width: 0.8"/>
      </g>
     </g>
     <g id="text_17">
      <!-- 0.003 -->
      <g transform="translate(175.057813 103.48341) scale(0.15 -0.15)">
       <use xlink:href="#DejaVuSans-30"/>
       <use xlink:href="#DejaVuSans-2e" x="63.623047"/>
       <use xlink:href="#DejaVuSans-30" x="95.410156"/>
       <use xlink:href="#DejaVuSans-30" x="159.033203"/>
       <use xlink:href="#DejaVuSans-33" x="222.65625"/>
      </g>
     </g>
    </g>
    <g id="ytick_9">
     <g id="line2d_17">
      <g>
       <use xlink:href="#maa2626e298" x="225" y="66.634097" style="stroke: #000000; stroke-width: 0.8"/>
      </g>
     </g>
     <g id="text_18">
      <!-- 0.004 -->
      <g transform="translate(175.057813 72.332925) scale(0.15 -0.15)">
       <use xlink:href="#DejaVuSans-30"/>
       <use xlink:href="#DejaVuSans-2e" x="63.623047"/>
       <use xlink:href="#DejaVuSans-30" x="95.410156"/>
       <use xlink:href="#DejaVuSans-30" x="159.033203"/>
       <use xlink:href="#DejaVuSans-34" x="222.65625"/>
      </g>
     </g>
    </g>
    <g id="text_19">
     <!-- East(m) -->
     <g transform="translate(155.36875 211.140234) rotate(-90) scale(0.15 -0.15)">
      <defs>
       <path id="DejaVuSans-45" d="M 628 4666 
L 3578 4666 
L 3578 4134 
L 1259 4134 
L 1259 2753 
L 3481 2753 
L 3481 2222 
L 1259 2222 
L 1259 531 
L 3634 531 
L 3634 0 
L 628 0 
L 628 4666 
z
" transform="scale(0.015625)"/>
       <path id="DejaVuSans-61" d="M 2194 1759 
Q 1497 1759 1228 1600 
Q 959 1441 959 1056 
Q 959 750 1161 570 
Q 1363 391 1709 391 
Q 2188 391 2477 730 
Q 2766 1069 2766 1631 
L 2766 1759 
L 2194 1759 
z
M 3341 1997 
L 3341 0 
L 2766 0 
L 2766 531 
Q 2569 213 2275 61 
Q 1981 -91 1556 -91 
Q 1019 -91 701 211 
Q 384 513 384 1019 
Q 384 1609 779 1909 
Q 1175 2209 1959 2209 
L 2766 2209 
L 2766 2266 
Q 2766 2663 2505 2880 
Q 2244 3097 1772 3097 
Q 1472 3097 1187 3025 
Q 903 2953 641 2809 
L 641 3341 
Q 956 3463 1253 3523 
Q 1550 3584 1831 3584 
Q 2591 3584 2966 3190 
Q 3341 2797 3341 1997 
z
" transform="scale(0.015625)"/>
       <path id="DejaVuSans-73" d="M 2834 3397 
L 2834 2853 
Q 2591 2978 2328 3040 
Q 2066 3103 1784 3103 
Q 1356 3103 1142 2972 
Q 928 2841 928 2578 
Q 928 2378 1081 2264 
Q 1234 2150 1697 2047 
L 1894 2003 
Q 2506 1872 2764 1633 
Q 3022 1394 3022 966 
Q 3022 478 2636 193 
Q 2250 -91 1575 -91 
Q 1294 -91 989 -36 
Q 684 19 347 128 
L 347 722 
Q 666 556 975 473 
Q 1284 391 1588 391 
Q 1994 391 2212 530 
Q 2431 669 2431 922 
Q 2431 1156 2273 1281 
Q 2116 1406 1581 1522 
L 1381 1569 
Q 847 1681 609 1914 
Q 372 2147 372 2553 
Q 372 3047 722 3315 
Q 1072 3584 1716 3584 
Q 2034 3584 2315 3537 
Q 2597 3491 2834 3397 
z
" transform="scale(0.015625)"/>
       <path id="DejaVuSans-74" d="M 1172 4494 
L 1172 3500 
L 2356 3500 
L 2356 3053 
L 1172 3053 
L 1172 1153 
Q 1172 725 1289 603 
Q 1406 481 1766 481 
L 2356 481 
L 2356 0 
L 1766 0 
Q 1100 0 847 248 
Q 594 497 594 1153 
L 594 3053 
L 172 3053 
L 172 3500 
L 594 3500 
L 594 4494 
L 1172 4494 
z
" transform="scale(0.015625)"/>
       <path id="DejaVuSans-28" d="M 1984 4856 
Q 1566 4138 1362 3434 
Q 1159 2731 1159 2009 
Q 1159 1288 1364 580 
Q 1569 -128 1984 -844 
L 1484 -844 
Q 1016 -109 783 600 
Q 550 1309 550 2009 
Q 550 2706 781 3412 
Q 1013 4119 1484 4856 
L 1984 4856 
z
" transform="scale(0.015625)"/>
       <path id="DejaVuSans-29" d="M 513 4856 
L 1013 4856 
Q 1481 4119 1714 3412 
Q 1947 2706 1947 2009 
Q 1947 1309 1714 600 
Q 1481 -109 1013 -844 
L 513 -844 
Q 928 -128 1133 580 
Q 1338 1288 1338 2009 
Q 1338 2731 1133 3434 
Q 928 4138 513 4856 
z
" transform="scale(0.015625)"/>
      </defs>
      <use xlink:href="#DejaVuSans-45"/>
      <use xlink:href="#DejaVuSans-61" x="63.183594"/>
      <use xlink:href="#DejaVuSans-73" x="124.462891"/>
      <use xlink:href="#DejaVuSans-74" x="176.5625"/>
      <use xlink:href="#DejaVuSans-28" x="215.771484"/>
      <use xlink:href="#DejaVuSans-6d" x="254.785156"/>
      <use xlink:href="#DejaVuSans-29" x="352.197266"/>
     </g>
    </g>
   </g>
   <g id="line2d_18">
    <path d="M 288.409091 187.774767 
L 288.880359 207.214893 
L 289.351627 214.464796 
L 289.822894 215.302891 
L 290.294162 204.006833 
L 290.76543 203.978944 
L 291.236698 205.94439 
L 291.707966 211.97868 
L 292.179234 204.333458 
L 292.650502 202.041669 
L 293.12177 197.542645 
L 294.064305 183.702922 
L 294.535573 173.276406 
L 295.006841 167.277709 
L 295.478109 167.357807 
L 296.420645 169.102227 
L 296.891912 175.964231 
L 297.36318 185.598627 
L 297.834448 189.701588 
L 298.776984 204.747265 
L 299.248252 206.019982 
L 300.190787 207.43955 
L 300.662055 209.731333 
L 301.133323 205.174458 
L 301.604591 204.627096 
L 302.547127 173.672407 
L 303.018395 167.184202 
L 303.489663 170.713104 
L 304.432198 175.732775 
L 304.903466 187.116049 
L 305.846002 223.393007 
L 306.31727 235.510542 
L 306.788538 235.083332 
L 307.259805 235.252431 
L 308.202341 240.414508 
L 308.673609 239.288637 
L 309.616145 224.100544 
L 310.087413 214.319288 
L 310.55868 210.082818 
L 311.029948 214.532884 
L 311.972484 188.686875 
L 312.443752 183.627142 
L 313.386288 189.372175 
L 313.857555 196.189678 
L 314.328823 191.988809 
L 314.800091 197.738295 
L 315.742627 192.011048 
L 316.213895 186.417308 
L 316.685163 178.656383 
L 317.156431 165.039168 
L 317.627698 156.41493 
L 318.098966 153.331028 
L 318.570234 159.801426 
L 319.041502 161.016291 
L 319.51277 157.629785 
L 319.984038 159.583362 
L 320.455306 158.942548 
L 320.926573 167.090622 
L 321.397841 179.684315 
L 321.869109 178.229138 
L 322.811645 182.812703 
L 323.282913 183.061903 
L 323.754181 191.009724 
L 324.225448 192.002086 
L 324.696716 183.079693 
L 325.167984 187.57871 
L 325.639252 177.788554 
L 326.11052 181.820313 
L 326.581788 180.609891 
L 327.053056 184.970955 
L 327.524324 191.468053 
L 327.995591 193.225827 
L 328.466859 191.178791 
L 328.938127 210.621141 
L 329.409395 210.100479 
L 329.880663 214.474894 
L 330.351931 212.387808 
L 330.823199 206.749567 
L 331.765734 214.372528 
L 332.237002 207.964425 
L 332.70827 212.481242 
L 333.179538 224.959233 
L 333.650806 223.561908 
L 334.122074 232.043736 
L 334.593341 236.796407 
L 335.064609 232.769091 
L 335.535877 230.552953 
L 336.478413 219.240869 
L 336.949681 222.925523 
L 337.420949 219.498966 
L 337.892216 211.217384 
L 338.834752 224.540885 
L 339.30602 228.34569 
L 339.777288 227.482373 
L 340.248556 225.844744 
L 341.662359 219.725896 
L 342.133627 228.928636 
L 342.604895 229.889847 
L 343.547431 235.568129 
L 348.260109 229.47153 
L 348.731377 219.329819 
L 349.202645 217.309484 
L 350.145181 201.783185 
L 350.616449 191.579172 
L 351.087717 175.679071 
L 351.558984 177.801751 
L 352.030252 198.120764 
L 352.50152 202.481828 
L 352.972788 205.39662 
L 353.444056 210.861302 
L 353.915324 221.590415 
L 354.386592 245.812139 
L 354.85786 250.845164 
L 355.329127 243.827401 
L 355.800395 244.081052 
L 356.271663 243.992047 
L 357.685467 228.763899 
L 358.156735 232.070297 
L 358.628002 229.422503 
L 359.09927 225.675541 
L 359.570538 225.809039 
L 360.513074 234.197413 
L 360.984342 234.455514 
L 361.45561 226.147231 
L 361.926877 227.299795 
L 362.398145 230.534992 
L 362.869413 231.838859 
L 363.340681 232.012408 
L 363.811949 223.499422 
L 364.283217 219.405355 
L 364.754485 219.716856 
L 365.225753 215.658389 
L 365.69702 210.233751 
L 366.168288 207.448005 
L 366.639556 209.339281 
L 367.110824 210.300492 
L 367.582092 211.608809 
L 368.05336 210.901244 
L 368.524628 215.943169 
L 368.995895 225.751119 
L 369.467163 224.473945 
L 369.938431 220.099524 
L 370.409699 225.613156 
L 370.880967 217.789931 
L 371.352235 203.2115 
L 371.823503 198.062767 
L 372.29477 181.250401 
L 372.766038 174.530793 
L 373.237306 169.978368 
L 373.708574 163.739368 
L 374.179842 169.310851 
L 374.65111 178.914097 
L 375.122378 169.288594 
L 375.593645 166.338194 
L 376.064913 175.451933 
L 376.536181 181.610825 
L 377.007449 183.573302 
L 377.478717 183.826953 
L 377.949985 181.477313 
L 378.421253 183.964898 
L 378.892521 192.388876 
L 379.363788 182.950275 
L 379.835056 175.905812 
L 380.306324 172.416954 
L 380.777592 170.975128 
L 381.24886 176.960468 
L 381.720128 188.419393 
L 382.191396 191.489937 
L 382.662663 188.762041 
L 383.133931 196.901215 
L 384.076467 188.592928 
L 384.547735 188.392672 
L 385.490271 177.908301 
L 385.961538 182.887926 
L 386.432806 174.446141 
L 386.904074 177.84599 
L 387.375342 180.360276 
L 387.84661 179.100903 
L 388.317878 181.10343 
L 388.789146 186.376759 
L 389.731681 199.606808 
L 390.202949 201.551485 
L 390.674217 200.278762 
L 391.145485 195.121128 
L 391.616753 199.237438 
L 392.088021 196.869998 
L 392.559289 190.639898 
L 393.030556 189.291523 
L 394.44436 205.374063 
L 394.915628 194.204386 
L 395.386896 196.714221 
L 395.858164 196.451664 
L 396.329431 193.416713 
L 396.800699 188.032126 
L 397.271967 181.361468 
L 397.743235 181.935524 
L 398.214503 181.570614 
L 399.157039 173.685085 
L 399.628306 167.82434 
L 400.570842 148.769136 
L 401.04211 137.247903 
L 402.455914 128.272103 
L 402.927182 129.224414 
L 404.340985 150.371133 
L 404.812253 154.184839 
L 405.754789 149.512263 
L 406.226057 143.402314 
L 406.697324 142.574598 
L 407.168592 140.35846 
L 407.63986 137.141056 
L 408.111128 135.294274 
L 408.582396 134.782512 
L 409.053664 138.231313 
L 409.524932 145.956629 
L 409.996199 148.315163 
L 410.467467 144.234446 
L 410.938735 147.429592 
L 411.410003 148.889211 
L 411.881271 149.641269 
L 412.352539 154.789996 
L 412.823807 152.658409 
L 413.295074 156.10276 
L 414.23761 141.82693 
L 420.83536 137.910866 
L 421.777896 114.120788 
L 422.249164 105.812505 
L 422.720432 92.996302 
L 423.1917 95.332585 
L 423.662967 95.630736 
L 424.134235 90.210548 
L 424.605503 98.607826 
L 425.548039 105.385274 
L 426.019307 106.63574 
L 426.490575 106.159579 
L 426.961843 106.555632 
L 427.43311 112.794626 
L 427.904378 107.712643 
L 428.375646 106.310868 
L 429.318182 115.593705 
L 429.78945 123.479225 
L 430.260718 126.474118 
L 431.203253 141.906951 
L 431.674521 147.763239 
L 432.145789 143.873875 
L 432.617057 143.651368 
L 433.088325 147.358272 
L 433.559593 147.932328 
L 434.03086 147.901174 
L 434.502128 153.348055 
L 434.973396 153.610606 
L 435.444664 159.805099 
L 435.915932 159.382339 
L 436.3872 161.126762 
L 436.858468 165.826032 
L 437.329735 164.370856 
L 437.801003 165.843826 
L 438.272271 169.479529 
L 438.743539 170.489691 
L 439.214807 172.265265 
L 439.686075 161.313641 
L 440.157343 154.242477 
L 440.628611 154.233574 
L 441.099878 147.843271 
L 441.571146 139.530538 
L 442.042414 142.641133 
L 442.513682 143.758097 
L 442.98495 146.499336 
L 443.456218 141.039097 
L 443.927486 140.598537 
L 444.398753 138.840756 
L 444.870021 144.563542 
L 445.341289 136.513363 
L 445.812557 131.44918 
L 446.283825 132.775298 
L 446.755093 137.341065 
L 447.226361 132.205682 
L 447.697628 140.122352 
L 448.168896 140.491704 
L 448.640164 141.314963 
L 449.5827 147.723056 
L 450.053968 152.809482 
L 450.525236 155.621922 
L 450.996503 153.023078 
L 451.467771 156.703282 
L 452.881575 180.680245 
L 453.352843 184.142396 
L 453.824111 194.132798 
L 454.766646 191.391548 
L 456.18045 170.903418 
L 456.651718 168.175523 
L 457.122986 169.167884 
L 457.594254 177.347108 
L 458.065521 187.693516 
L 459.008057 200.892415 
L 459.479325 213.419357 
L 459.950593 217.74482 
L 460.421861 216.213993 
L 460.893129 213.419346 
L 461.364396 202.463272 
L 461.835664 204.456899 
L 462.306932 203.45118 
L 462.7782 194.00813 
L 463.249468 187.662327 
L 463.720736 183.341307 
L 464.192004 176.149991 
L 464.663272 182.816191 
L 465.134539 184.191259 
L 466.077075 190.786255 
L 466.548343 206.214642 
L 467.019611 210.424404 
L 467.490879 212.680586 
L 467.962147 209.245129 
L 468.433414 204.256598 
L 468.904682 197.274435 
L 469.37595 193.665426 
L 469.847218 180.195062 
L 470.789754 171.935727 
L 471.261022 169.060978 
L 471.732289 175.117519 
L 472.203557 185.263674 
L 472.674825 189.918443 
L 473.146093 201.132614 
L 474.088629 218.398876 
L 474.559897 226.778353 
L 475.031164 228.72303 
L 475.502432 220.739602 
L 476.444968 208.105848 
L 476.916236 194.791237 
L 477.387504 191.827488 
L 477.858772 190.105307 
L 478.33004 184.200062 
L 478.801307 185.535079 
L 479.272575 187.568757 
L 479.743843 186.229283 
L 480.215111 193.692046 
L 480.686379 195.116065 
L 481.157647 194.648804 
L 481.628915 192.655169 
L 482.100182 187.955893 
L 482.57145 186.482916 
L 483.042718 180.012512 
L 483.985254 171.188017 
L 484.456522 172.83899 
L 484.92779 167.681356 
L 485.399057 166.003676 
L 485.870325 167.151791 
L 486.341593 172.607572 
L 486.812861 174.770302 
L 487.284129 173.488679 
L 487.755397 157.868932 
L 489.640468 168.193089 
L 490.111736 183.390073 
L 491.52554 176.683815 
L 491.996808 172.896802 
L 492.468075 170.778566 
L 492.939343 169.950849 
L 494.824415 179.313792 
L 495.76695 173.804602 
L 496.238218 164.526204 
L 496.709486 167.592299 
L 498.12329 186.869989 
L 498.594558 185.997771 
L 499.065825 188.400805 
L 499.537093 195.058106 
L 500.008361 207.344744 
L 500.479629 214.736305 
L 500.950897 209.867926 
L 501.422165 209.623169 
L 501.893433 201.181384 
L 502.364701 207.282425 
L 503.307236 184.636015 
L 503.778504 168.224156 
L 504.249772 166.528676 
L 504.72104 160.943836 
L 505.192308 173.288325 
L 505.663576 166.559816 
L 506.134843 172.656408 
L 506.606111 171.74414 
L 507.077379 181.031431 
L 507.548647 196.904825 
L 508.019915 202.040202 
L 508.491183 205.146347 
L 509.433718 196.473155 
L 509.904986 205.560193 
L 510.376254 198.733783 
L 510.847522 182.10832 
L 511.31879 181.534258 
L 511.790058 177.854047 
L 512.732593 184.9163 
L 513.203861 170.142066 
L 513.675129 173.14141 
L 514.146397 178.49929 
L 515.560201 186.166752 
L 516.031469 184.95633 
L 516.502736 184.871775 
L 516.974004 188.676581 
L 517.445272 194.733122 
L 518.387808 183.309787 
L 518.859076 181.285002 
L 519.330344 184.204244 
L 519.801611 186.082169 
L 520.272879 197.594495 
L 520.744147 194.127888 
L 521.215415 192.810664 
L 521.686683 195.547453 
L 522.157951 191.653639 
L 522.629219 195.520746 
L 523.100486 196.931414 
L 523.571754 186.433697 
L 524.043022 189.077035 
L 524.51429 203.473006 
L 524.985558 192.637083 
L 525.456826 191.613564 
L 525.928094 193.51819 
L 526.399362 194.759756 
L 526.870629 202.151318 
L 527.341897 199.97968 
L 527.813165 195.894513 
L 528.755701 223.814241 
L 529.698237 235.913973 
L 530.169504 237.124388 
L 530.640772 245.744169 
L 531.11204 250.225385 
L 531.583308 245.179003 
L 532.054576 242.727011 
L 532.525844 228.869492 
L 532.997112 219.421991 
L 533.468379 219.337437 
L 533.939647 205.399816 
L 534.410915 194.790847 
L 534.882183 194.639541 
L 535.353451 186.705064 
L 535.824719 196.877919 
L 536.295987 192.601399 
L 536.767254 180.604009 
L 537.238522 177.110701 
L 538.181058 166.857734 
L 538.652326 173.181279 
L 539.123594 158.638449 
L 539.594862 154.891487 
L 540.06613 164.27223 
L 541.008665 175.375146 
L 541.479933 172.384696 
L 541.951201 163.578005 
L 542.422469 165.500432 
L 542.893737 169.901547 
L 543.365005 171.908524 
L 543.836272 178.721577 
L 544.30754 180.4126 
L 544.778808 182.900185 
L 545.250076 180.408143 
L 546.192612 178.823911 
L 546.66388 167.231477 
L 547.606415 154.482022 
L 548.077683 152.150182 
L 548.548951 158.958784 
L 549.020219 159.497239 
L 549.962755 180.795264 
L 550.90529 193.669308 
L 551.376558 196.018941 
L 551.847826 204.251566 
L 552.319094 207.135207 
L 553.26163 199.156226 
L 553.732898 195.257962 
L 554.204165 193.095224 
L 554.675433 194.496993 
L 555.146701 183.727822 
L 555.617969 183.251661 
L 556.089237 177.02156 
L 556.560505 177.377562 
L 557.031773 172.35343 
L 557.50304 172.865185 
L 558.445576 170.244087 
L 558.916844 169.834677 
L 559.388112 171.401098 
L 559.85938 168.192595 
L 560.330648 167.854386 
L 561.273183 164.289873 
L 561.744451 167.387118 
L 562.215719 165.406834 
L 562.686987 164.672569 
L 563.158255 169.024733 
L 563.629523 169.585438 
L 564.100791 173.514846 
L 564.572058 173.189988 
L 565.043326 173.261185 
L 565.514594 173.510386 
L 566.45713 167.716388 
L 566.928398 163.355317 
L 567.399666 153.267006 
L 567.870933 151.082019 
L 568.342201 141.78582 
L 568.813469 141.460962 
L 569.284737 135.604667 
L 570.227273 129.490265 
L 570.698541 134.772494 
L 571.169808 138.693001 
L 571.641076 148.251747 
L 572.112344 154.268237 
L 572.583612 163.907084 
L 573.05488 164.369888 
L 573.526148 171.765899 
L 573.997416 174.756342 
L 574.468683 172.375552 
L 574.939951 166.652759 
L 575.882487 148.469769 
L 576.353755 145.114413 
L 577.296291 136.120816 
L 577.767559 136.298815 
L 578.238826 134.87924 
L 578.710094 134.630032 
L 579.181362 140.882376 
L 579.65263 137.900826 
L 580.123898 140.610915 
L 581.066434 129.441234 
L 581.537701 128.564567 
L 582.008969 127.389745 
L 582.480237 122.76612 
L 582.951505 123.362425 
L 583.422773 117.617382 
L 584.836576 105.96264 
L 585.307844 100.475701 
L 585.779112 101.984271 
L 586.25038 102.224572 
L 586.721648 104.057997 
L 587.192916 109.553829 
L 587.664184 107.595795 
L 588.135452 113.020426 
L 588.606719 116.233373 
L 589.077987 110.243576 
L 589.549255 111.930149 
L 590.020523 117.38148 
L 590.963059 125.556254 
L 591.434327 134.50089 
L 591.905594 126.459611 
L 592.376862 127.460873 
L 592.84813 135.057138 
L 593.790666 134.238322 
L 594.733202 112.237172 
L 595.204469 103.97339 
L 595.675737 108.556958 
L 596.147005 99.532214 
L 596.618273 85.514492 
L 597.089541 81.331423 
L 597.560809 84.437568 
L 598.032077 85.545632 
L 598.503344 84.36191 
L 598.974612 79.782785 
L 599.44588 86.12413 
L 599.917148 94.143152 
L 600.388416 97.160295 
L 600.859684 94.512501 
L 601.330952 88.92321 
L 602.273487 106.879233 
L 602.744755 106.750177 
L 603.216023 104.823294 
L 603.687291 100.199668 
L 604.158559 105.842353 
L 605.572362 110.853124 
L 606.04363 106.32295 
L 606.514898 112.428441 
L 607.457434 134.927985 
L 607.928702 135.555441 
L 608.39997 148.634191 
L 608.871237 144.193019 
L 609.342505 141.26487 
L 609.813773 139.111033 
L 610.285041 133.005534 
L 610.756309 123.33998 
L 611.227577 118.898807 
L 611.698845 111.400437 
L 612.170112 114.573333 
L 613.112648 123.16641 
L 614.055184 137.11292 
L 614.526452 147.325826 
L 614.99772 150.841377 
L 615.468988 150.574369 
L 616.882791 161.99324 
L 617.354059 159.234194 
L 617.825327 164.98813 
L 618.296595 162.140082 
L 619.710398 186.659954 
L 620.181666 181.849425 
L 620.652934 185.436178 
L 621.124202 181.991821 
L 621.59547 184.314753 
L 622.066738 180.848146 
L 622.538005 173.527778 
L 623.009273 160.675975 
L 623.480541 155.602892 
L 623.951809 147.552713 
L 624.423077 149.662043 
L 624.894345 144.655711 
L 625.365613 135.82232 
L 625.836881 134.500646 
L 626.308148 137.691342 
L 626.779416 143.992637 
L 627.250684 154.339044 
L 627.721952 154.864149 
L 628.19322 151.789148 
L 628.664488 160.026223 
L 629.135756 163.30592 
L 629.607023 161.258885 
L 630.078291 159.977261 
L 630.549559 161.792886 
L 631.020827 164.85453 
L 631.492095 169.046492 
L 631.963363 168.530281 
L 632.434631 175.75719 
L 632.905898 179.953602 
L 633.377166 186.272697 
L 633.848434 177.670709 
L 634.319702 156.256972 
L 634.79097 153.600277 
L 635.262238 149.52401 
L 635.733506 148.411489 
L 636.204773 143.044702 
L 636.676041 130.25075 
L 637.147309 126.459287 
L 637.618577 138.45222 
L 638.089845 139.675986 
L 638.561113 137.962706 
L 639.032381 129.916977 
L 639.503649 127.095629 
L 639.974916 126.09881 
L 640.917452 136.236061 
L 641.859988 130.620067 
L 642.331256 133.815213 
L 642.802524 134.309167 
L 643.273791 140.574862 
L 643.745059 143.436253 
L 644.216327 140.708357 
L 645.158863 164.004463 
L 645.630131 161.236516 
L 646.101399 161.628119 
L 646.572666 161.356661 
L 647.043934 156.074425 
L 647.515202 156.003221 
L 647.98647 150.743235 
L 648.457738 140.841827 
L 648.929006 137.010314 
L 649.400274 138.278581 
L 649.871542 136.988057 
L 650.342809 137.223907 
L 650.814077 137.210553 
L 651.285345 139.275382 
L 651.756613 138.256313 
L 652.227881 138.185108 
L 652.699149 136.062422 
L 653.170417 136.667628 
L 653.641684 140.91744 
L 654.112952 143.947934 
L 654.58422 141.535993 
L 655.055488 154.129686 
L 655.526756 161.570198 
L 656.469292 183.411131 
L 656.940559 187.082435 
L 657.411827 188.858009 
L 657.883095 191.737201 
L 658.354363 193.895481 
L 658.825631 201.358244 
L 659.296899 193.414866 
L 659.768167 190.086211 
L 660.710702 197.491119 
L 661.18197 204.842631 
L 661.653238 199.992051 
L 662.595774 216.461751 
L 663.067042 215.33143 
L 663.53831 209.613087 
L 664.009577 205.332117 
L 664.480845 193.348077 
L 664.952113 195.368405 
L 665.423381 181.608787 
L 665.894649 183.197458 
L 666.365917 190.771473 
L 666.837185 193.39256 
L 667.308452 199.98311 
L 667.77972 196.641104 
L 669.193524 182.347471 
L 670.13606 166.140311 
L 670.607327 161.071679 
L 671.078595 174.243881 
L 671.549863 177.750532 
L 672.021131 182.805807 
L 672.492399 191.367737 
L 672.963667 191.260932 
L 673.434935 200.695075 
L 673.906202 205.603498 
L 674.37747 205.670246 
L 674.848738 204.290721 
L 675.320006 200.59716 
L 675.791274 192.871836 
L 676.73381 186.899836 
L 677.676345 175.521002 
L 678.147613 177.754933 
L 678.618881 179.267953 
L 679.090149 184.496781 
L 679.561417 192.707156 
L 680.032685 198.576794 
L 680.503953 201.006528 
L 680.97522 206.462309 
L 681.446488 204.562126 
L 681.917756 208.656187 
L 682.389024 216.937762 
L 682.860292 220.515614 
L 683.33156 229.175446 
L 684.745363 235.908397 
L 685.216631 244.835233 
L 685.687899 260.824329 
L 686.159167 263.71242 
L 686.630435 253.592959 
L 687.101703 252.59614 
L 687.572971 246.183586 
L 688.515506 225.869013 
L 688.986774 223.537173 
L 689.458042 221.975195 
L 689.92931 232.361654 
L 690.400578 232.428401 
L 690.871846 240.509724 
L 691.343113 242.111745 
L 691.814381 242.596799 
L 692.285649 245.952148 
L 692.756917 254.781082 
L 693.228185 254.184769 
L 693.699453 260.672967 
L 694.170721 253.156796 
L 694.641988 263.88591 
L 695.113256 268.202474 
L 696.055792 257.286447 
L 696.52706 256.921538 
L 696.998328 253.824286 
L 697.469596 259.738425 
L 697.940863 262.662117 
L 698.412131 267.668441 
L 698.883399 268.558451 
L 699.354667 266.947523 
L 699.825935 267.423677 
L 700.297203 269.1414 
L 701.239739 255.48413 
L 701.711006 256.805797 
L 702.182274 250.326493 
L 702.653542 246.463829 
L 703.12481 245.057604 
L 704.067346 235.783653 
L 704.538614 235.111689 
L 705.009881 236.820512 
L 705.481149 246.761963 
L 705.952417 253.339162 
L 706.423685 251.928487 
L 706.894953 249.449795 
L 707.366221 250.455507 
L 707.837489 248.98253 
L 709.251292 229.12186 
L 709.72256 216.172155 
L 710.193828 219.612055 
L 711.136364 208.691578 
L 711.607631 198.714519 
L 712.078899 191.968211 
L 712.550167 197.784448 
L 713.021435 199.911577 
L 713.492703 185.804854 
L 713.963971 187.998735 
L 714.435239 193.227563 
L 714.906507 196.333708 
L 715.377774 202.4926 
L 715.849042 192.012683 
L 716.32031 203.102253 
L 717.262846 220.150461 
L 717.734114 224.351323 
L 718.205382 227.172664 
L 718.676649 225.784239 
L 719.147917 228.01817 
L 719.619185 222.055074 
L 720.090453 218.971172 
L 721.032989 184.202773 
L 721.504257 182.979001 
L 721.975524 173.006392 
L 722.446792 175.164672 
L 722.91806 169.717784 
L 723.389328 173.451389 
L 723.860596 179.806084 
L 724.331864 184.100397 
L 724.803132 184.211646 
L 725.2744 193.841592 
L 725.745667 190.597488 
L 726.216935 190.686486 
L 726.688203 193.490026 
L 727.159471 202.545914 
L 727.630739 206.942579 
L 728.102007 205.140297 
L 728.573275 197.16577 
L 729.044542 205.09134 
L 729.51581 210.560471 
L 729.987078 203.809713 
L 730.458346 201.495673 
L 730.929614 193.14289 
L 731.400882 187.954105 
L 731.87215 185.217309 
L 732.814685 165.748249 
L 733.285953 160.710767 
L 733.757221 153.519451 
L 734.699757 148.406315 
L 735.171025 156.954894 
L 735.642292 152.727325 
L 736.11356 155.446314 
L 736.584828 156.096021 
L 737.056096 162.553068 
L 737.527364 163.158274 
L 737.998632 170.572086 
L 738.4699 164.488837 
L 738.941168 169.739916 
L 739.412435 181.034188 
L 739.883703 183.766527 
L 740.354971 179.721411 
L 740.826239 184.843437 
L 741.768775 178.626683 
L 742.240043 179.062787 
L 742.71131 169.196979 
L 743.182578 171.684565 
L 743.653846 163.354031 
L 744.125114 166.010719 
L 744.596382 167.381337 
L 745.06765 169.148011 
L 745.538918 167.336829 
L 746.010185 170.362873 
L 746.481453 167.385773 
L 746.952721 171.524334 
L 747.423989 168.845389 
L 747.895257 170.43406 
L 748.366525 169.9846 
L 748.837793 171.786874 
L 749.309061 161.743064 
L 749.780328 160.617193 
L 750.251596 164.208396 
L 750.722864 159.308866 
L 751.194132 151.129635 
L 751.6654 148.811146 
L 752.136668 155.940153 
L 752.607936 169.690864 
L 753.550471 178.800149 
L 754.021739 179.75691 
L 754.493007 181.91074 
L 754.964275 185.831248 
L 755.435543 177.536315 
L 755.906811 164.697862 
L 756.378078 163.304987 
L 756.849346 155.308208 
L 757.791882 167.839597 
L 758.26315 172.289663 
L 759.205686 185.310558 
L 759.676953 184.758746 
L 760.148221 198.531708 
L 761.090757 206.20807 
L 761.562025 205.941063 
L 762.033293 204.877492 
L 762.504561 211.040835 
L 762.975829 222.094804 
L 763.447096 220.399324 
L 763.918364 221.965745 
L 764.389632 221.961291 
L 764.8609 226.006401 
L 765.803436 230.202809 
L 766.274704 221.347168 
L 766.745971 222.953639 
L 767.217239 220.425996 
L 768.631043 220.715247 
L 769.102311 213.42603 
L 770.044846 189.4802 
L 770.516114 190.009755 
L 770.987382 186.173792 
L 771.45865 188.496725 
L 772.401186 187.054895 
L 772.872454 192.937883 
L 773.343721 202.701332 
L 773.814989 207.106897 
L 774.286257 203.137432 
L 774.757525 195.243005 
L 775.228793 201.152694 
L 775.700061 201.668898 
L 776.171329 197.917486 
L 776.642597 185.50624 
L 777.113864 168.582622 
L 777.585132 168.943075 
L 778.0564 168.489164 
L 778.527668 155.227954 
L 778.998936 149.571912 
L 779.470204 151.988296 
L 779.941472 158.142739 
L 780.412739 170.545079 
L 780.884007 170.638527 
L 781.355275 175.061892 
L 782.297811 196.070662 
L 782.769079 197.076375 
L 783.240347 192.928906 
L 784.182882 196.368803 
L 784.65415 192.657442 
L 785.125418 180.820254 
L 785.596686 180.846951 
L 786.067954 186.534136 
L 786.539222 196.524538 
L 787.01049 194.170448 
L 787.481757 190.370085 
L 788.424293 200.307087 
L 788.895561 202.772422 
L 789.838097 181.821488 
L 790.780632 170.625107 
L 791.2519 170.540552 
L 791.723168 158.796815 
L 792.194436 163.18458 
L 792.665704 172.640974 
L 793.136972 174.331997 
L 793.60824 169.285615 
L 794.079507 168.773853 
L 794.550775 169.014154 
L 795.022043 170.558324 
L 795.493311 168.965196 
L 795.964579 168.644788 
L 796.435847 173.766814 
L 797.378382 187.544222 
L 797.84965 190.619216 
L 798.320918 185.127827 
L 798.792186 184.455863 
L 799.263454 179.636434 
L 799.734722 179.129123 
L 801.148525 157.047869 
L 801.619793 156.469356 
L 802.091061 149.674097 
L 802.562329 148.16107 
L 803.033597 143.608645 
L 803.504865 149.558384 
L 803.976133 167.532211 
L 804.4474 172.916791 
L 804.918668 176.494644 
L 805.861204 190.966262 
L 806.80374 193.302545 
L 807.275008 186.418284 
L 807.746275 172.155809 
L 808.217543 174.972699 
L 808.688811 183.859484 
L 809.160079 184.366788 
L 809.631347 183.984079 
L 810.102615 191.589244 
L 811.045151 222.962226 
L 811.516418 232.027014 
L 811.987686 234.372197 
L 812.458954 235.239957 
L 812.930222 239.026962 
L 813.40149 239.058109 
L 813.872758 240.62898 
L 814.344026 236.806367 
L 814.815293 228.24888 
L 815.286561 226.277496 
L 815.757829 232.231685 
L 816.229097 230.963412 
L 816.700365 235.190975 
L 817.171633 229.939889 
L 817.642901 222.944377 
L 818.114168 223.340429 
L 818.585436 232.262815 
L 824.240651 226.41542 
L 824.711919 220.403373 
L 825.183186 200.173355 
L 825.654454 198.072918 
L 826.125722 198.833877 
L 826.59699 203.964803 
L 828.010794 187.472839 
L 828.482061 192.21661 
L 828.953329 205.96287 
L 829.424597 203.702232 
L 829.895865 199.474662 
L 830.838401 172.427134 
L 831.309669 171.692869 
L 832.252204 164.732954 
L 832.723472 166.828933 
L 833.19474 168.106099 
L 834.608544 200.324591 
L 835.079811 201.908812 
L 835.551079 208.842016 
L 836.022347 208.183403 
L 836.493615 213.875038 
L 836.964883 212.92717 
L 837.436151 213.065118 
L 837.907419 203.341713 
L 838.849954 207.578172 
L 839.321222 210.630916 
L 839.79249 210.684314 
L 840.263758 203.448498 
L 840.735026 199.505733 
L 841.206294 202.669728 
L 841.677562 209.865487 
L 842.148829 214.364504 
L 842.620097 212.126115 
L 843.091365 208.526006 
L 843.562633 216.215722 
L 844.033901 230.113285 
L 844.505169 236.370079 
L 844.976437 228.524603 
L 845.447704 211.787889 
L 845.918972 220.790376 
L 846.39024 217.43502 
L 846.861508 218.471883 
L 847.332776 214.248764 
L 847.804044 215.281176 
L 848.275312 219.780193 
L 848.74658 225.409527 
L 849.217847 217.038943 
L 849.689115 217.381595 
L 850.160383 220.857096 
L 850.631651 212.775766 
L 851.102919 210.394976 
L 851.574187 212.468705 
L 852.045455 220.11837 
L 852.98799 226.290613 
L 853.459258 243.699281 
L 853.930526 242.261905 
L 854.401794 257.699192 
L 854.873062 268.619658 
L 856.286865 273.750585 
L 856.758133 274.778547 
L 857.229401 272.557959 
L 857.700669 267.088821 
L 858.643205 273.403462 
L 859.114472 266.216597 
L 859.58574 255.12702 
L 860.057008 253.142286 
L 860.528276 254.330451 
L 860.999544 252.083163 
L 861.470812 247.526288 
L 861.94208 232.369348 
L 862.413348 239.921113 
L 862.884615 251.210935 
L 863.355883 253.004309 
L 863.827151 253.622866 
L 864.298419 257.570074 
L 864.769687 260.075459 
L 865.240955 261.063371 
L 865.712223 251.58027 
L 866.18349 246.071081 
L 866.654758 238.844164 
L 867.126026 239.191266 
L 867.597294 231.999951 
L 868.068562 228.920499 
L 868.53983 241.064735 
L 869.011098 237.589227 
L 869.482365 238.105432 
L 869.953633 236.200799 
L 870.424901 230.971964 
L 870.896169 234.15376 
L 871.367437 236.102887 
L 871.838705 233.188088 
L 872.309973 231.777413 
L 872.78124 224.034288 
L 873.252508 231.826356 
L 873.723776 232.538364 
L 874.195044 228.942704 
L 874.666312 228.533295 
L 875.13758 222.094041 
L 875.608848 223.687162 
L 876.080116 229.992907 
L 876.551383 230.317758 
L 877.022651 240.24141 
L 877.493919 246.778558 
L 877.965187 249.826852 
L 878.436455 251.21082 
L 878.907723 258.962837 
L 879.378991 256.80455 
L 879.850258 248.950174 
L 880.321526 238.723912 
L 880.792794 236.961681 
L 881.264062 225.493848 
L 881.73533 232.151149 
L 882.206598 227.723326 
L 882.677866 232.217893 
L 883.149133 246.257858 
L 884.091669 253.311211 
L 884.562937 269.985617 
L 885.505473 281.640342 
L 885.976741 277.88448 
L 887.861812 278.948043 
L 888.33308 284.822131 
L 888.804348 284.648575 
L 889.746884 265.183965 
L 890.218151 258.70911 
L 890.689419 256.826727 
L 891.160687 244.477781 
L 891.631955 236.098297 
L 892.103223 225.680682 
L 892.574491 224.661612 
L 893.045759 214.889257 
L 893.517026 208.650256 
L 893.988294 215.854915 
L 894.459562 213.20712 
L 894.93083 216.860623 
L 895.402098 218.725199 
L 895.873366 215.423244 
L 896.344634 219.606306 
L 896.815901 230.322069 
L 897.287169 222.182889 
L 897.758437 225.952094 
L 898.229705 221.724525 
L 898.700973 223.789353 
L 899.643509 230.962858 
L 900.114777 221.786812 
L 900.586044 219.397121 
L 901.057312 219.130113 
L 901.52858 216.402217 
L 901.999848 214.537635 
L 902.471116 208.992845 
L 902.942384 201.712528 
L 903.413652 199.861296 
L 903.884919 201.783722 
L 904.356187 199.224929 
L 904.827455 201.997319 
L 905.769991 205.699769 
L 906.241259 208.703563 
L 906.712527 209.691475 
L 907.183794 202.495709 
L 907.655062 198.014486 
L 908.12633 195.166438 
L 908.597598 187.223061 
L 909.068866 188.344475 
L 909.540134 190.387053 
L 910.011402 187.285351 
L 911.425205 199.167026 
L 911.896473 207.626604 
L 912.367741 206.037926 
L 912.839009 202.03286 
L 913.310277 206.910132 
L 913.781545 210.069678 
L 914.252812 210.786136 
L 914.72408 212.686312 
L 915.195348 205.690799 
L 915.666616 203.274408 
L 916.137884 202.544593 
L 916.609152 200.199403 
L 917.08042 188.833923 
L 917.551687 185.229363 
L 918.022955 175.238954 
L 918.494223 175.910911 
L 919.436759 171.732289 
L 919.908027 167.727223 
L 920.379295 172.159489 
L 920.850562 166.846102 
L 921.32183 171.189367 
L 922.264366 176.444892 
L 922.735634 173.948399 
L 923.206902 174.371152 
L 923.67817 174.286597 
L 924.149438 179.208371 
L 924.620705 175.51926 
L 925.563241 158.978345 
L 926.034509 155.792092 
L 926.505777 156.294946 
L 926.977045 162.449389 
L 927.91958 156.197034 
L 928.390848 156.045728 
L 928.862116 158.435412 
L 929.333384 154.359145 
L 929.804652 155.177954 
L 930.27592 153.513625 
L 930.747188 150.069268 
L 931.218455 149.913512 
L 931.689723 148.382685 
L 932.160991 153.366759 
L 932.632259 155.970046 
L 933.103527 154.163314 
L 933.574795 148.600724 
L 934.988598 165.644479 
L 935.459866 156.28598 
L 935.931134 162.217919 
L 936.402402 160.873994 
L 936.87367 163.900038 
L 937.344938 162.565014 
L 938.287473 157.158176 
L 938.758741 151.404233 
L 939.230009 161.510337 
L 940.172545 168.55034 
L 940.643813 168.065279 
L 941.115081 169.529348 
L 941.586348 165.048125 
L 942.057616 173.231799 
L 942.528884 174.17076 
L 943.000152 171.878971 
L 943.47142 176.400238 
L 944.885223 200.270399 
L 945.356491 193.061283 
L 945.827759 192.006613 
L 946.299027 199.318074 
L 946.770295 200.114633 
L 947.241563 198.388002 
L 947.712831 190.920782 
L 948.184099 191.570489 
L 948.655366 202.032599 
L 949.126634 207.982338 
L 949.597902 203.465514 
L 950.06917 205.490292 
L 950.540438 200.791015 
L 951.011706 203.487754 
L 951.482974 201.925776 
L 952.425509 220.171053 
L 952.896777 224.229513 
L 953.368045 219.881792 
L 954.310581 238.580976 
L 954.781849 242.505934 
L 955.724384 224.692299 
L 956.195652 220.745084 
L 956.66692 219.254308 
L 957.609456 205.031879 
L 958.080724 201.409519 
L 958.551991 201.68097 
L 959.023259 191.975365 
L 959.494527 189.817078 
L 959.965795 190.066279 
L 960.437063 189.883822 
L 960.908331 193.14572 
L 961.379599 191.370138 
L 961.850867 188.704543 
L 962.322134 191.014126 
L 962.793402 189.599 
L 963.26467 192.731846 
L 963.735938 193.061147 
L 964.207206 182.185174 
L 964.678474 176.004025 
L 965.149742 172.039009 
L 965.621009 180.222683 
L 966.092277 195.223864 
L 966.563545 190.658089 
L 967.034813 192.647267 
L 967.506081 203.532133 
L 967.977349 218.453212 
L 968.448617 222.43602 
L 968.919884 218.546656 
L 969.391152 203.176113 
L 969.86242 205.436745 
L 970.333688 195.820142 
L 970.804956 189.932696 
L 971.276224 189.291883 
L 971.747492 188.375165 
L 972.21876 191.788365 
L 972.690027 206.313388 
L 973.161295 206.469137 
L 973.632563 221.65277 
L 974.103831 225.470926 
L 974.575099 215.978924 
L 975.046367 214.083191 
L 975.517635 214.21669 
L 975.988902 203.834675 
L 976.46017 210.095919 
L 976.931438 210.349569 
L 977.402706 209.143597 
L 977.873974 206.785057 
L 978.345242 214.225569 
L 978.81651 210.763412 
L 979.287777 206.028534 
L 979.759045 198.503464 
L 980.230313 195.828969 
L 981.172849 208.262455 
L 981.644117 197.573385 
L 982.115385 198.374394 
L 986.828063 202.348303 
L 987.299331 204.849238 
L 987.770599 203.002456 
L 988.713135 188.655429 
L 991.069474 195.045725 
L 991.540742 201.062215 
L 992.01201 201.947776 
L 992.483278 209.815495 
L 992.954545 203.9414 
L 993.425813 208.262413 
L 993.897081 218.915876 
L 994.368349 213.976296 
L 994.839617 216.882187 
L 995.310885 213.927338 
L 995.782153 207.612686 
L 996.25342 217.545237 
L 997.195956 213.802725 
L 997.667224 216.846569 
L 998.138492 216.980068 
L 998.60976 214.812881 
L 1000.494831 234.482173 
L 1000.966099 236.618203 
L 1001.908635 243.29775 
L 1002.379903 243.609251 
L 1002.851171 253.096796 
L 1003.322438 248.001463 
L 1003.793706 237.236742 
L 1004.264974 232.897921 
L 1004.736242 235.972915 
L 1005.20751 236.004062 
L 1005.678778 241.646747 
L 1006.150046 234.103876 
L 1006.621313 232.599749 
L 1007.092581 248.33519 
L 1007.563849 248.651142 
L 1009.920189 221.247597 
L 1010.391456 207.999737 
L 1010.862724 201.667285 
L 1011.333992 193.639357 
L 1011.80526 193.381249 
L 1012.276528 187.90321 
L 1012.747796 184.587905 
L 1013.219064 186.830737 
L 1013.690331 185.802767 
L 1014.161599 184.449943 
L 1015.104135 206.967287 
L 1015.575403 207.688194 
L 1016.517939 217.629642 
L 1016.989206 230.392438 
L 1017.460474 239.154621 
L 1017.931742 235.291957 
L 1018.40301 228.421046 
L 1018.874278 232.176901 
L 1019.345546 232.804358 
L 1019.816814 232.105693 
L 1020.288081 234.69563 
L 1020.759349 228.625732 
L 1021.230617 234.090414 
L 1021.701885 232.337083 
L 1022.173153 236.969602 
L 1022.644421 253.243502 
L 1023.115689 254.253664 
L 1023.586957 240.09799 
L 1024.058224 236.511231 
L 1024.529492 233.792235 
L 1025.472028 234.530939 
L 1025.943296 221.189628 
L 1026.414564 213.1706 
L 1026.885832 222.342189 
L 1027.357099 236.969563 
L 1027.828367 238.389132 
L 1028.299635 244.855079 
L 1028.770903 242.848095 
L 1029.242171 236.840497 
L 1029.713439 250.840412 
L 1030.655974 233.560786 
L 1031.127242 228.768058 
L 1031.59851 219.445159 
L 1032.069778 215.324391 
L 1032.541046 217.099965 
L 1033.012314 209.637196 
L 1033.954849 225.430485 
L 1034.426117 222.569087 
L 1034.897385 222.37773 
L 1035.368653 226.587492 
L 1036.782457 203.869878 
L 1037.253725 199.157251 
L 1037.724992 204.942338 
L 1038.19626 214.741387 
L 1038.667528 212.996956 
L 1039.610064 220.308413 
L 1040.081332 220.31731 
L 1040.5526 217.215608 
L 1041.023867 210.691803 
L 1041.495135 208.675918 
L 1041.966403 208.707065 
L 1042.437671 203.344728 
L 1042.908939 211.995659 
L 1043.851475 193.759268 
L 1044.322742 193.728114 
L 1044.79401 197.697573 
L 1045.265278 205.907947 
L 1045.736546 219.13355 
L 1046.207814 213.406307 
L 1046.679082 230.632522 
L 1047.15035 236.021552 
L 1047.621618 245.780551 
L 1048.092885 240.17791 
L 1048.564153 229.973898 
L 1049.035421 226.102334 
L 1049.977957 206.108165 
L 1050.449225 205.3205 
L 1050.920493 200.834826 
L 1051.39176 201.146328 
L 1051.863028 205.894548 
L 1052.334296 205.235934 
L 1052.805564 211.167873 
L 1053.276832 215.626839 
L 1053.7481 222.675746 
L 1054.219368 214.336312 
L 1055.161903 204.568403 
L 1055.633171 206.468579 
L 1056.104439 210.304535 
L 1057.046975 204.844293 
L 1057.518243 213.330572 
L 1058.932046 230.320926 
L 1059.403314 228.736698 
L 1059.874582 231.589189 
L 1060.34585 228.496387 
L 1060.817118 234.134622 
L 1061.288386 231.962985 
L 1062.230921 216.592438 
L 1062.702189 229.911492 
L 1063.173457 232.479179 
L 1063.644725 230.107288 
L 1064.115993 225.465862 
L 1064.587261 229.337419 
L 1065.058528 226.987779 
L 1065.529796 231.282093 
L 1066.001064 217.976382 
L 1066.472332 210.420161 
L 1066.9436 207.678914 
L 1067.886136 190.773094 
L 1068.357403 194.008291 
L 1068.828671 184.115783 
L 1069.299939 186.576668 
L 1069.771207 183.995624 
L 1070.713743 202.1252 
L 1071.185011 216.663573 
L 1071.656279 223.583427 
L 1072.127546 224.308785 
L 1072.598814 214.54978 
L 1073.070082 227.454977 
L 1073.54135 227.775379 
L 1074.012618 225.714993 
L 1074.955154 202.930631 
L 1075.426421 203.046329 
L 1075.897689 201.862608 
L 1076.368957 188.036239 
L 1076.840225 184.965687 
L 1077.311493 172.398688 
L 1077.782761 171.762325 
L 1078.254029 173.711452 
L 1078.725296 180.555655 
L 1079.667832 196.963053 
L 1080.1391 198.382622 
L 1080.610368 211.096467 
L 1081.081636 208.653375 
L 1081.552904 207.229349 
L 1082.024171 194.755802 
L 1082.966707 183.670672 
L 1084.380511 189.028552 
L 1084.851779 194.137228 
L 1085.323047 196.491311 
L 1085.794314 195.38324 
L 1087.208118 219.449205 
L 1087.679386 208.671133 
L 1088.150654 201.123812 
L 1088.621922 199.174679 
L 1089.093189 207.616457 
L 1089.564457 212.747383 
L 1090.035725 211.51026 
L 1090.506993 204.599299 
L 1090.978261 205.51601 
L 1091.449529 204.817346 
L 1091.920797 209.138359 
L 1092.392064 209.231807 
L 1093.3346 197.421316 
L 1093.805868 198.831985 
L 1094.748404 209.24959 
L 1095.219672 210.807111 
L 1095.690939 209.391985 
L 1096.162207 207.180298 
L 1096.633475 211.123055 
L 1097.104743 219.564834 
L 1097.576011 220.374743 
L 1098.047279 220.890947 
L 1098.518547 225.082909 
L 1098.989815 224.433195 
L 1099.461082 220.263477 
L 1099.93235 206.619561 
L 1100.403618 199.223542 
L 1100.874886 194.297312 
L 1101.346154 182.451224 
L 1101.817422 166.235168 
L 1102.28869 156.534013 
L 1102.759957 163.209114 
L 1103.231225 176.01196 
L 1103.702493 178.544046 
L 1104.173761 172.576499 
L 1104.645029 183.723919 
L 1105.116297 190.332269 
L 1106.5301 214.82989 
L 1107.001368 212.346748 
L 1107.472636 218.398839 
L 1107.943904 214.727528 
L 1108.415172 214.44272 
L 1108.88644 213.285699 
L 1109.828975 200.554043 
L 1110.300243 217.121648 
L 1110.771511 221.901019 
L 1111.242779 223.369538 
L 1111.714047 222.670874 
L 1112.185315 220.588238 
L 1112.656583 225.576762 
L 1113.12785 225.919414 
L 1113.599118 213.574918 
L 1114.070386 211.866088 
L 1114.541654 211.309826 
L 1115.012922 213.570458 
L 1115.48419 217.79802 
L 1116.426725 216.084736 
L 1116.897993 217.976012 
L 1117.369261 221.286861 
L 1117.840529 222.581827 
L 1118.311797 222.906679 
L 1118.783065 228.157757 
L 1119.7256 234.801704 
L 1120.196868 230.222579 
L 1121.139404 207.202363 
L 1121.610672 208.862236 
L 1122.08194 204.745918 
L 1122.553208 201.639766 
L 1123.024476 202.360674 
L 1123.495743 197.349892 
L 1123.967011 201.470653 
L 1124.438279 215.065611 
L 1124.909547 216.222626 
L 1125.380815 215.488361 
L 1125.852083 211.394294 
L 1126.323351 206.196609 
L 1126.794618 217.695585 
L 1127.265886 225.238449 
L 1127.737154 221.878643 
L 1128.208422 223.85447 
L 1128.67969 215.73754 
L 1129.150958 214.691771 
L 1129.622226 209.645389 
L 1130.093493 201.457258 
L 1130.564761 201.568506 
L 1131.036029 189.317461 
L 1131.507297 184.96974 
L 1131.978565 189.259604 
L 1132.449833 191.17758 
L 1132.921101 196.290706 
L 1133.392369 206.605963 
L 1133.863636 204.02047 
L 1134.334904 215.710798 
L 1134.806172 216.093501 
L 1135.27744 222.301344 
L 1135.748708 239.692211 
L 1136.219976 242.856207 
L 1136.691244 231.250423 
L 1137.162511 229.430341 
L 1137.633779 222.50158 
L 1138.105047 224.281604 
L 1138.576315 220.38334 
L 1139.047583 202.988015 
L 1139.518851 194.706433 
L 1139.990119 193.318008 
L 1140.461386 195.774442 
L 1140.932654 207.883078 
L 1141.403922 206.832858 
L 1141.87519 199.51249 
L 1142.346458 202.071277 
L 1142.817726 206.37449 
L 1143.288994 214.678316 
L 1144.231529 196.214971 
L 1144.702797 193.78968 
L 1145.174065 203.695531 
L 1145.645333 203.593176 
L 1146.116601 211.180541 
L 1146.587869 206.156409 
L 1147.059137 207.535927 
L 1147.530404 207.433572 
L 1148.47294 210.250459 
L 1148.944208 214.633773 
L 1149.415476 211.42972 
L 1150.358012 220.485604 
L 1150.829279 222.612734 
L 1151.300547 218.029159 
L 1152.243083 198.457747 
L 1152.714351 198.831549 
L 1153.185619 196.432959 
L 1153.656887 202.262546 
L 1154.599422 218.202687 
L 1157.427029 257.861684 
L 1157.898297 260.255818 
L 1158.369565 254.403973 
L 1158.840833 258.453533 
L 1159.312101 252.628389 
L 1159.783369 250.519052 
L 1160.254637 239.215873 
L 1160.725905 225.207051 
L 1161.197172 221.108534 
L 1161.66844 223.791922 
L 1162.139708 220.236313 
L 1162.610976 218.002375 
L 1163.082244 218.638731 
L 1163.553512 213.409896 
L 1164.02478 219.697841 
L 1164.496047 214.215352 
L 1164.967315 227.084949 
L 1165.438583 226.75564 
L 1165.909851 229.229875 
L 1166.381119 223.280129 
L 1166.852387 237.02639 
L 1167.323655 240.840096 
L 1167.794922 246.647433 
L 1168.26619 240.991391 
L 1168.737458 237.867439 
L 1169.208726 238.632848 
L 1169.679994 246.197962 
L 1170.151262 238.423687 
L 1170.62253 238.058778 
L 1171.093798 241.378526 
L 1171.565065 241.253921 
L 1172.036333 242.108331 
L 1172.507601 240.951309 
L 1172.978869 240.341646 
L 1173.450137 247.479554 
L 1173.921405 249.321879 
L 1174.392673 249.232874 
L 1174.86394 242.166161 
L 1175.806476 245.401354 
L 1176.277744 239.749763 
L 1177.22028 218.84778 
L 1177.691548 211.736566 
L 1178.634083 224.419256 
L 1179.105351 226.80004 
L 1179.576619 222.042912 
L 1180.519155 209.008652 
L 1180.990423 210.001014 
L 1181.46169 215.550247 
L 1181.932958 205.01248 
L 1182.404226 200.971813 
L 1183.346762 228.357533 
L 1183.81803 246.36251 
L 1184.289298 254.25693 
L 1184.760566 243.113952 
L 1185.231833 242.766844 
L 1185.703101 240.506205 
L 1186.174369 234.463007 
L 1186.645637 231.68616 
L 1187.588173 219.363911 
L 1188.059441 235.56661 
L 1188.530708 242.246161 
L 1189.001976 247.296986 
L 1189.473244 248.364999 
L 1189.944512 252.365608 
L 1190.41578 259.921822 
L 1190.887048 271.718953 
L 1191.358316 264.03813 
L 1191.829583 263.66877 
L 1192.300851 263.828969 
L 1192.772119 265.235188 
L 1193.714655 278.914694 
L 1194.185923 266.498997 
L 1195.128458 275.332378 
L 1195.599726 278.758928 
L 1196.070994 280.258598 
L 1196.542262 268.221157 
L 1197.01353 260.068626 
L 1197.484798 261.332442 
L 1198.427334 264.554285 
L 1198.898601 269.725263 
L 1199.369869 271.144831 
L 1199.841137 269.760856 
L 1200.312405 272.381943 
L 1200.783673 272.528792 
L 1201.254941 266.151839 
L 1201.726209 268.661675 
L 1202.197476 268.310116 
L 1202.668744 272.978235 
L 1203.140012 287.997216 
L 1203.61128 297.324558 
L 1204.082548 302.299732 
L 1204.553816 302.976139 
L 1205.025084 303.327691 
L 1205.496351 306.71864 
L 1205.967619 304.99201 
L 1206.438887 307.8 
L 1206.910155 303.341027 
L 1207.381423 301.81465 
L 1208.323959 304.756142 
L 1208.795227 298.116635 
L 1209.266494 295.344239 
L 1209.737762 296.207548 
L 1210.20903 278.638671 
L 1210.680298 268.416859 
L 1211.151566 275.043008 
L 1211.622834 279.804579 
L 1212.094102 289.527977 
L 1212.565369 270.69528 
L 1213.036637 264.291627 
L 1213.507905 268.617091 
L 1213.979173 269.524901 
L 1214.450441 264.901276 
L 1214.921709 266.752501 
L 1215.392977 266.28079 
L 1215.864244 271.941275 
L 1216.335512 282.447885 
L 1216.80678 286.946902 
L 1217.278048 287.147152 
L 1217.749316 289.625837 
L 1218.691852 278.251453 
L 1219.163119 285.945619 
L 1220.105655 280.534328 
L 1220.576923 279.986966 
L 1221.519459 270.374809 
L 1221.990727 271.251469 
L 1222.461995 277.063256 
L 1222.933262 275.256525 
L 1223.40453 266.258481 
L 1223.875798 269.818533 
L 1224.347066 280.000288 
L 1224.818334 285.189065 
L 1225.289602 280.520939 
L 1225.76087 273.952633 
L 1226.232137 261.318883 
L 1226.703405 264.233675 
L 1227.174673 263.183455 
L 1227.645941 252.320832 
L 1228.117209 253.01059 
L 1228.588477 250.758851 
L 1229.059745 251.693362 
L 1229.531012 259.307427 
L 1230.00228 263.753043 
L 1230.473548 264.985709 
L 1231.416084 253.357671 
L 1231.887352 264.109035 
L 1232.35862 256.214608 
L 1232.829888 250.358313 
L 1233.301155 240.790661 
L 1233.772423 240.243299 
L 1234.243691 253.188547 
L 1235.186227 243.118033 
L 1235.657495 249.886585 
L 1236.128763 255.017512 
L 1236.60003 267.032695 
L 1237.071298 269.142025 
L 1237.542566 257.224736 
L 1238.013834 257.954543 
L 1238.485102 250.198069 
L 1239.427638 253.513364 
L 1240.370173 239.184134 
L 1240.841441 234.65841 
L 1241.312709 239.829387 
L 1241.783977 239.709231 
L 1242.726513 226.848524 
L 1243.19778 224.27638 
L 1243.669048 224.894937 
L 1244.140316 227.182269 
L 1244.611584 222.705495 
L 1245.082852 222.042432 
L 1245.55412 217.65466 
L 1246.025388 219.537036 
L 1246.496656 216.488735 
L 1246.967923 217.476647 
L 1247.439191 214.441696 
L 1247.910459 214.357141 
L 1248.852995 225.348805 
L 1249.324263 224.979446 
L 1249.795531 229.847818 
L 1250.266798 229.496259 
L 1250.738066 243.945631 
L 1251.209334 247.020626 
L 1251.680602 245.000291 
L 1252.15187 245.236141 
L 1252.623138 243.789865 
L 1253.094406 249.018693 
L 1253.565673 248.591483 
L 1254.036941 249.134388 
L 1254.508209 254.314265 
L 1254.979477 247.510105 
L 1255.450745 247.968459 
L 1255.922013 254.590159 
L 1256.393281 248.146455 
L 1256.864548 247.478941 
L 1257.335816 241.555895 
L 1257.807084 237.395077 
L 1258.278352 241.836243 
L 1258.74962 242.503749 
L 1259.220888 238.471983 
L 1259.692156 243.585109 
L 1260.163424 241.822878 
L 1260.634691 239.531089 
L 1261.105959 235.392521 
L 1261.577227 239.059375 
L 1262.048495 235.534916 
L 1262.991031 245.089208 
L 1263.462299 256.392381 
L 1263.933566 256.921936 
L 1264.876102 252.654312 
L 1265.34737 247.336476 
L 1265.818638 238.280581 
L 1266.761174 225.78478 
L 1267.703709 228.410314 
L 1268.174977 227.978653 
L 1268.646245 228.210054 
L 1269.117513 226.594675 
L 1270.060049 215.83885 
L 1270.531317 212.492395 
L 1271.002584 214.143367 
L 1271.473852 213.698357 
L 1271.94512 218.384276 
L 1272.416388 221.485971 
L 1272.887656 227.693814 
L 1273.358924 228.227819 
L 1274.301459 218.037153 
L 1274.772727 224.49865 
L 1275.243995 236.981091 
L 1275.715263 245.240417 
L 1276.186531 237.737596 
L 1277.129067 237.243635 
L 1277.600334 253.508635 
L 1278.071602 260.762245 
L 1278.54287 254.140538 
L 1279.014138 241.146332 
L 1279.485406 238.146982 
L 1279.956674 252.213647 
L 1280.427942 260.597575 
L 1280.899209 256.65036 
L 1281.370477 256.859509 
L 1281.841745 265.141085 
L 1282.784281 285.985203 
L 1283.255549 290.693373 
L 1284.198085 289.701 
L 1284.669352 297.381816 
L 1285.14062 294.431417 
L 1285.611888 296.024538 
L 1286.083156 290.377397 
L 1286.554424 276.137171 
L 1287.025692 280.934343 
L 1287.49696 280.747436 
L 1298.33612 262.239594 
L 1298.807388 255.230732 
L 1299.749924 238.925674 
L 1300.221192 222.936572 
L 1300.69246 224.209288 
L 1301.163728 204.918234 
L 1301.634995 195.101377 
L 1302.106263 201.478323 
L 1302.577531 199.827344 
L 1303.048799 193.922099 
L 1303.520067 195.555271 
L 1303.991335 191.447853 
L 1304.462603 191.45675 
L 1305.405138 195.399504 
L 1305.876406 196.151562 
L 1306.347674 203.405172 
L 1306.818942 213.77383 
L 1307.29021 211.241737 
L 1307.761478 223.879931 
L 1308.232746 225.072546 
L 1308.704013 221.904093 
L 1309.175281 227.649129 
L 1309.646549 230.822025 
L 1310.117817 228.944092 
L 1310.589085 228.583633 
L 1311.060353 211.637765 
L 1312.002888 196.894679 
L 1312.945424 169.112889 
L 1313.416692 164.026456 
L 1314.830496 178.40907 
L 1315.301763 186.089886 
L 1315.773031 202.871094 
L 1316.244299 211.940332 
L 1316.715567 211.664424 
L 1317.186835 205.452124 
L 1317.658103 208.940975 
L 1318.129371 211.259457 
L 1318.600638 210.026785 
L 1319.071906 196.992528 
L 1319.543174 190.91373 
L 1320.014442 195.243644 
L 1320.48571 208.148841 
L 1320.956978 208.616095 
L 1321.428246 211.379585 
L 1321.899514 209.203497 
L 1322.370781 199.404441 
L 1322.842049 203.988009 
L 1323.313317 204.232759 
L 1323.784585 198.06496 
L 1324.255853 190.072632 
L 1324.727121 191.46105 
L 1325.198389 191.461047 
L 1325.669656 201.945406 
L 1326.140924 201.251192 
L 1326.612192 194.851989 
L 1327.554728 204.949189 
L 1328.025996 203.716517 
L 1328.497264 205.523241 
L 1328.968531 204.272768 
L 1329.439799 208.251127 
L 1329.911067 211.188169 
L 1330.382335 195.488321 
L 1330.853603 198.638967 
L 1331.324871 197.473045 
L 1331.796139 199.555674 
L 1332.267407 205.732367 
L 1332.738674 206.270822 
L 1333.209942 207.926244 
L 1333.68121 225.499564 
L 1334.152478 224.689648 
L 1334.623746 225.842213 
L 1335.566282 236.793826 
L 1336.037549 238.404748 
L 1336.508817 241.395191 
L 1336.980085 230.238864 
L 1337.451353 231.115524 
L 1337.922621 228.636832 
L 1338.393889 222.99414 
L 1338.865157 210.489442 
L 1339.336424 205.278407 
L 1339.807692 204.37949 
L 1340.27896 206.110563 
L 1340.750228 210.800933 
L 1341.221496 219.024658 
L 1341.692764 219.687714 
L 1342.164032 223.096464 
L 1342.635299 225.299245 
L 1343.106567 220.003659 
L 1343.577835 227.435271 
L 1344.049103 228.534435 
L 1344.520371 222.313234 
L 1345.462907 227.484208 
L 1345.934175 228.681273 
L 1346.87671 230.425697 
L 1347.347978 222.273166 
L 1347.819246 221.645703 
L 1348.290514 217.511585 
L 1348.761782 216.670519 
L 1349.23305 220.088168 
L 1349.704317 218.668593 
L 1350.175585 222.335446 
L 1350.646853 228.610041 
L 1351.118121 225.944446 
L 1351.589389 235.013683 
L 1352.060657 239.704053 
L 1352.531925 240.616314 
L 1353.003192 245.284433 
L 1353.47446 244.915074 
L 1353.945728 239.73519 
L 1354.416996 242.52983 
L 1354.888264 238.493613 
L 1355.359532 229.419918 
L 1356.302067 218.526142 
L 1356.773335 216.488007 
L 1357.244603 213.591008 
L 1357.715871 213.324 
L 1358.187139 215.718134 
L 1358.658407 230.234257 
L 1359.129675 239.824153 
L 1359.600943 245.088581 
L 1360.07221 247.723019 
L 1360.543478 246.681699 
L 1361.014746 245.177572 
L 1361.486014 246.508139 
L 1361.957282 232.334665 
L 1362.42855 232.690667 
L 1362.899818 227.043526 
L 1363.371085 218.597291 
L 1363.842353 227.955783 
L 1364.313621 231.902991 
L 1364.784889 239.276752 
L 1365.256157 240.580619 
L 1365.727425 234.208116 
L 1366.198693 239.16994 
L 1366.66996 247.162261 
L 1367.141228 239.512589 
L 1367.612496 236.508788 
L 1368.083764 234.399452 
L 1369.0263 244.950559 
L 1369.497568 246.045273 
L 1369.968836 243.326277 
L 1370.440103 253.432381 
L 1370.911371 247.411434 
L 1371.382639 249.262659 
L 1371.853907 247.015371 
L 1372.325175 240.638418 
L 1372.796443 245.012832 
L 1373.267711 243.700059 
L 1373.738978 239.169884 
L 1374.210246 249.008984 
L 1374.681514 245.008368 
L 1375.152782 254.794067 
L 1375.62405 253.984151 
L 1376.566586 251.790264 
L 1377.037853 256.502884 
L 1378.922925 264.735508 
L 1379.394193 255.724115 
L 1379.865461 257.090282 
L 1380.336728 244.269629 
L 1380.807996 257.179277 
L 1381.279264 248.866544 
L 1381.750532 262.127747 
L 1382.2218 256.004448 
L 1410.497872 233.820849 
L 1410.96914 205.438303 
L 1411.440407 186.396453 
L 1411.911675 158.903921 
L 1412.854211 143.155122 
L 1413.325479 117.57612 
L 1413.796747 102.227828 
L 1414.268015 111.150213 
L 1415.21055 105.623224 
L 1416.624354 102.641674 
L 1417.095622 96.082268 
L 1417.56689 91.191638 
L 1418.509425 68.994686 
L 1418.980693 67.219104 
L 1419.451961 68.42062 
L 1420.394497 65.822411 
L 1420.865765 63.691459 
L 1421.337033 68.471466 
L 1421.8083 68.503248 
L 1422.279568 73.385606 
L 1422.750836 69.590328 
L 1423.222104 73.208866 
L 1423.693372 85.24185 
L 1424.16464 93.349873 
L 1424.635908 95.30345 
L 1425.107175 107.73249 
L 1425.578443 105.053545 
L 1426.049711 103.820872 
L 1426.992247 106.419709 
L 1427.463515 96.949958 
L 1427.934783 92.713489 
L 1428.40605 90.052344 
L 1428.877318 80.680494 
L 1429.348586 88.254509 
L 1430.291122 91.316788 
L 1430.76239 91.98048 
L 1431.233658 92.074564 
L 1431.704926 92.613654 
L 1432.647461 91.364448 
L 1433.118729 82.665194 
L 1433.589997 86.194095 
L 1434.061265 88.735082 
L 1434.532533 90.394954 
L 1435.475068 92.562769 
L 1435.946336 98.651096 
L 1436.417604 100.667609 
L 1436.888872 103.921242 
L 1437.36014 97.705127 
L 1437.831408 84.493502 
L 1438.302676 85.263996 
L 1438.773943 77.431871 
L 1439.245211 71.548876 
L 1439.716479 62.595333 
L 1440.187747 56.712337 
L 1440.659015 60.623945 
L 1441.130283 66.738337 
L 1441.601551 63.200528 
L 1442.072818 68.941114 
L 1443.015354 71.642938 
L 1443.486622 81.95438 
L 1443.95789 83.009678 
L 1444.429158 82.605354 
L 1444.900426 83.50935 
L 1445.371694 86.282375 
L 1445.842961 91.071281 
L 1446.785497 102.289899 
L 1447.256765 105.080089 
L 1448.199301 93.354149 
L 1449.141836 86.336383 
L 1450.55564 69.653069 
L 1451.026908 55.8 
L 1451.498176 59.426803 
L 1452.440711 68.385424 
L 1452.911979 69.90798 
L 1453.383247 74.30083 
L 1453.854515 74.501715 
L 1454.325783 87.5633 
L 1454.797051 104.710049 
L 1455.739587 85.134822 
L 1456.210854 89.117631 
L 1456.682122 91.787669 
L 1457.15339 97.354702 
L 1457.624658 97.154446 
L 1458.095926 81.912955 
L 1458.567194 86.30517 
L 1459.509729 97.675093 
L 1459.980997 100.28728 
L 1460.452265 100.434129 
L 1461.394801 87.190716 
L 1461.866069 92.214841 
L 1462.337337 94.239619 
L 1463.279872 80.01274 
L 1463.75114 82.602677 
L 1464.222408 85.949126 
L 1464.693676 91.360406 
L 1465.164944 92.090214 
L 1465.636212 91.574003 
L 1466.578747 90.764087 
L 1467.050015 103.335529 
L 1467.521283 94.101632 
L 1468.463819 84.658578 
L 1469.406355 95.96175 
L 1470.34889 123.071566 
L 1470.820158 119.035349 
L 1471.291426 117.540123 
L 1471.762694 119.560451 
L 1472.233962 120.512762 
L 1472.70523 113.615151 
L 1473.176497 109.044926 
L 1474.119033 95.694711 
L 1474.590301 112.306817 
L 1475.532837 129.306075 
L 1476.004105 127.379191 
L 1476.475372 124.157337 
L 1476.94664 124.477739 
L 1477.417908 130.316226 
L 1477.889176 127.690682 
L 1478.360444 128.282538 
L 1479.774247 118.790529 
L 1480.716783 124.050504 
L 1481.188051 120.396994 
L 1481.659319 121.255854 
L 1482.130587 116.035919 
L 1482.601855 125.211958 
L 1483.073123 130.445237 
L 1483.54439 131.001492 
L 1484.015658 133.506877 
L 1484.486926 135.086648 
L 1484.958194 128.638494 
L 1485.429462 135.322495 
L 1486.371998 133.057403 
L 1486.843265 135.740791 
L 1487.314533 135.197879 
L 1487.785801 139.567844 
L 1488.728337 142.527136 
L 1489.199605 140.613603 
L 1489.670873 141.726117 
L 1490.14214 139.643481 
L 1490.613408 136.804333 
L 1491.084676 135.883166 
L 1491.555944 123.778973 
L 1492.027212 118.67474 
L 1492.49848 118.23418 
L 1492.969748 117.063808 
L 1493.441016 121.651826 
L 1493.912283 116.449692 
L 1494.383551 109.943687 
L 1494.854819 111.252004 
L 1495.326087 113.085429 
L 1495.797355 119.675978 
L 1496.268623 120.62829 
L 1496.739891 115.034549 
L 1497.682426 107.776479 
L 1498.624962 114.068873 
L 1499.09623 111.50563 
L 1500.038766 93.073436 
L 1500.510033 96.273032 
L 1500.981301 95.796871 
L 1501.452569 103.513288 
L 1501.923837 98.836262 
L 1502.395105 97.305434 
L 1502.866373 103.531078 
L 1503.337641 107.642938 
L 1503.808908 104.340984 
L 1504.280176 117.731239 
L 1504.751444 121.295741 
L 1505.69398 132.523259 
L 1506.636516 122.439395 
L 1507.107784 122.822097 
L 1508.050319 114.976621 
L 1508.992855 122.390433 
L 1509.935391 122.977839 
L 1510.406659 126.008333 
L 1511.349194 133.871598 
L 1511.820462 134.681507 
L 1512.29173 136.617284 
L 1512.762998 123.912333 
L 1513.234266 121.651694 
L 1514.648069 120.868478 
L 1515.119337 107.162261 
L 1515.590605 106.298944 
L 1516.061873 107.033202 
L 1516.533141 110.277299 
L 1517.004409 120.014048 
L 1517.475676 123.084592 
L 1517.946944 125.340774 
L 1518.418212 132.269528 
L 1518.88948 132.269525 
L 1519.360748 126.457731 
L 1519.832016 122.76862 
L 1520.303284 107.954335 
L 1521.245819 100.099956 
L 1522.188355 113.828413 
L 1523.130891 114.380218 
L 1523.602159 112.052828 
L 1524.073427 120.601408 
L 1525.48723 100.638386 
L 1525.958498 83.447765 
L 1526.429766 91.462337 
L 1526.901034 95.160341 
L 1527.372302 92.819601 
L 1527.843569 95.956896 
L 1528.314837 95.930192 
L 1528.786105 96.459747 
L 1529.257373 112.190739 
L 1529.728641 105.884987 
L 1530.199909 102.841136 
L 1531.142445 110.655451 
L 1531.613712 117.797809 
L 1532.08498 116.444984 
L 1532.556248 107.967598 
L 1533.027516 109.841074 
L 1533.498784 112.528912 
L 1533.970052 109.769866 
L 1534.44132 102.498449 
L 1534.912587 104.598878 
L 1535.383855 111.305129 
L 1535.855123 130.707428 
L 1537.268927 141.957193 
L 1537.740195 152.583955 
L 1538.211462 148.903744 
L 1538.68273 140.920317 
L 1539.153998 128.655922 
L 1540.096534 133.435289 
L 1541.03907 153.295942 
L 1541.981605 167.665209 
L 1542.452873 173.401345 
L 1542.924141 173.819648 
L 1543.395409 170.428691 
L 1543.866677 163.913786 
L 1544.337945 148.31629 
L 1544.809213 144.217773 
L 1545.28048 149.001594 
L 1545.751748 143.590306 
L 1546.223016 143.621453 
L 1546.694284 145.833134 
L 1547.165552 140.488597 
L 1547.63682 153.215792 
L 1548.108088 155.080367 
L 1548.579355 147.875702 
L 1549.050623 150.349937 
L 1549.521891 151.093095 
L 1549.993159 154.501845 
L 1550.464427 153.242471 
L 1551.406963 139.638602 
L 1552.349498 144.609323 
L 1552.820766 134.36971 
L 1553.292034 134.868114 
L 1553.763302 137.493652 
L 1554.23457 137.466948 
L 1555.177106 151.978617 
L 1555.648373 148.289506 
L 1556.119641 155.391813 
L 1556.590909 154.684249 
L 1556.590909 154.684249 
" clip-path="url(#p5525273595)" style="fill: none; stroke: #50b131; stroke-width: 2.5; stroke-linecap: square"/>
   </g>
   <g id="patch_3">
    <path d="M 225 320.4 
L 225 43.2 
" style="fill: none; stroke: #000000; stroke-width: 0.8; stroke-linejoin: miter; stroke-linecap: square"/>
   </g>
   <g id="patch_4">
    <path d="M 1620 320.4 
L 1620 43.2 
" style="fill: none; stroke: #000000; stroke-width: 0.8; stroke-linejoin: miter; stroke-linecap: square"/>
   </g>
   <g id="patch_5">
    <path d="M 225 320.4 
L 1620 320.4 
" style="fill: none; stroke: #000000; stroke-width: 0.8; stroke-linejoin: miter; stroke-linecap: square"/>
   </g>
   <g id="patch_6">
    <path d="M 225 43.2 
L 1620 43.2 
" style="fill: none; stroke: #000000; stroke-width: 0.8; stroke-linejoin: miter; stroke-linecap: square"/>
   </g>
   <g id="text_20">
    <!-- ODEZ -->
    <g transform="translate(893.759375 37.2) scale(0.2 -0.2)">
     <defs>
      <path id="DejaVuSans-4f" d="M 2522 4238 
Q 1834 4238 1429 3725 
Q 1025 3213 1025 2328 
Q 1025 1447 1429 934 
Q 1834 422 2522 422 
Q 3209 422 3611 934 
Q 4013 1447 4013 2328 
Q 4013 3213 3611 3725 
Q 3209 4238 2522 4238 
z
M 2522 4750 
Q 3503 4750 4090 4092 
Q 4678 3434 4678 2328 
Q 4678 1225 4090 567 
Q 3503 -91 2522 -91 
Q 1538 -91 948 565 
Q 359 1222 359 2328 
Q 359 3434 948 4092 
Q 1538 4750 2522 4750 
z
" transform="scale(0.015625)"/>
      <path id="DejaVuSans-44" d="M 1259 4147 
L 1259 519 
L 2022 519 
Q 2988 519 3436 956 
Q 3884 1394 3884 2338 
Q 3884 3275 3436 3711 
Q 2988 4147 2022 4147 
L 1259 4147 
z
M 628 4666 
L 1925 4666 
Q 3281 4666 3915 4102 
Q 4550 3538 4550 2338 
Q 4550 1131 3912 565 
Q 3275 0 1925 0 
L 628 0 
L 628 4666 
z
" transform="scale(0.015625)"/>
      <path id="DejaVuSans-5a" d="M 359 4666 
L 4025 4666 
L 4025 4184 
L 1075 531 
L 4097 531 
L 4097 0 
L 288 0 
L 288 481 
L 3238 4134 
L 359 4134 
L 359 4666 
z
" transform="scale(0.015625)"/>
     </defs>
     <use xlink:href="#DejaVuSans-4f"/>
     <use xlink:href="#DejaVuSans-44" x="78.710938"/>
     <use xlink:href="#DejaVuSans-45" x="155.712891"/>
     <use xlink:href="#DejaVuSans-5a" x="218.896484"/>
    </g>
   </g>
   <g id="legend_1">
    <g id="patch_7">
     <path d="M 1557.13125 65.878125 
L 1613 65.878125 
Q 1615 65.878125 1615 63.878125 
L 1615 50.2 
Q 1615 48.2 1613 48.2 
L 1557.13125 48.2 
Q 1555.13125 48.2 1555.13125 50.2 
L 1555.13125 63.878125 
Q 1555.13125 65.878125 1557.13125 65.878125 
z
" style="fill: #ffffff; opacity: 0.8; stroke: #cccccc; stroke-linejoin: miter"/>
    </g>
    <g id="line2d_19">
     <path d="M 1559.13125 56.298437 
L 1569.13125 56.298437 
L 1579.13125 56.298437 
" style="fill: none; stroke: #50b131; stroke-width: 2.5; stroke-linecap: square"/>
    </g>
    <g id="text_21">
     <!-- odez -->
     <g transform="translate(1587.13125 59.798437) scale(0.1 -0.1)">
      <defs>
       <path id="DejaVuSans-6f" d="M 1959 3097 
Q 1497 3097 1228 2736 
Q 959 2375 959 1747 
Q 959 1119 1226 758 
Q 1494 397 1959 397 
Q 2419 397 2687 759 
Q 2956 1122 2956 1747 
Q 2956 2369 2687 2733 
Q 2419 3097 1959 3097 
z
M 1959 3584 
Q 2709 3584 3137 3096 
Q 3566 2609 3566 1747 
Q 3566 888 3137 398 
Q 2709 -91 1959 -91 
Q 1206 -91 779 398 
Q 353 888 353 1747 
Q 353 2609 779 3096 
Q 1206 3584 1959 3584 
z
" transform="scale(0.015625)"/>
       <path id="DejaVuSans-64" d="M 2906 2969 
L 2906 4863 
L 3481 4863 
L 3481 0 
L 2906 0 
L 2906 525 
Q 2725 213 2448 61 
Q 2172 -91 1784 -91 
Q 1150 -91 751 415 
Q 353 922 353 1747 
Q 353 2572 751 3078 
Q 1150 3584 1784 3584 
Q 2172 3584 2448 3432 
Q 2725 3281 2906 2969 
z
M 947 1747 
Q 947 1113 1208 752 
Q 1469 391 1925 391 
Q 2381 391 2643 752 
Q 2906 1113 2906 1747 
Q 2906 2381 2643 2742 
Q 2381 3103 1925 3103 
Q 1469 3103 1208 2742 
Q 947 2381 947 1747 
z
" transform="scale(0.015625)"/>
       <path id="DejaVuSans-7a" d="M 353 3500 
L 3084 3500 
L 3084 2975 
L 922 459 
L 3084 459 
L 3084 0 
L 275 0 
L 275 525 
L 2438 3041 
L 353 3041 
L 353 3500 
z
" transform="scale(0.015625)"/>
      </defs>
      <use xlink:href="#DejaVuSans-6f"/>
      <use xlink:href="#DejaVuSans-64" x="61.181641"/>
      <use xlink:href="#DejaVuSans-65" x="124.658203"/>
      <use xlink:href="#DejaVuSans-7a" x="186.181641"/>
     </g>
    </g>
   </g>
  </g>
 </g>
 <defs>
  <clipPath id="p5525273595">
   <rect x="225" y="43.2" width="1395" height="277.2"/>
  </clipPath>
 </defs>
</svg>
