<?xml version="1.0" encoding="utf-8" standalone="no"?>
<!DOCTYPE svg PUBLIC "-//W3C//DTD SVG 1.1//EN"
  "http://www.w3.org/Graphics/SVG/1.1/DTD/svg11.dtd">
<svg xmlns:xlink="http://www.w3.org/1999/xlink" width="1800pt" height="360pt" viewBox="0 0 1800 360" xmlns="http://www.w3.org/2000/svg" version="1.1">
 <metadata>
  <rdf:RDF xmlns:dc="http://purl.org/dc/elements/1.1/" xmlns:cc="http://creativecommons.org/ns#" xmlns:rdf="http://www.w3.org/1999/02/22-rdf-syntax-ns#">
   <cc:Work>
    <dc:type rdf:resource="http://purl.org/dc/dcmitype/StillImage"/>
    <dc:date>2024-03-19T10:36:35.588694</dc:date>
    <dc:format>image/svg+xml</dc:format>
    <dc:creator>
     <cc:Agent>
      <dc:title>Matplotlib v3.7.2, https://matplotlib.org/</dc:title>
     </cc:Agent>
    </dc:creator>
   </cc:Work>
  </rdf:RDF>
 </metadata>
 <defs>
  <style type="text/css">*{stroke-linejoin: round; stroke-linecap: butt}</style>
 </defs>
 <g id="figure_1">
  <g id="patch_1">
   <path d="M 0 360 
L 1800 360 
L 1800 0 
L 0 0 
z
" style="fill: #ffffff"/>
  </g>
  <g id="axes_1">
   <g id="patch_2">
    <path d="M 225 320.4 
L 1620 320.4 
L 1620 43.2 
L 225 43.2 
z
" style="fill: #ffffff"/>
   </g>
   <g id="matplotlib.axis_1">
    <g id="xtick_1">
     <g id="line2d_1">
      <defs>
       <path id="m9300081074" d="M 0 0 
L 0 3.5 
" style="stroke: #000000; stroke-width: 0.8"/>
      </defs>
      <g>
       <use xlink:href="#m9300081074" x="281.484541" y="320.4" style="stroke: #000000; stroke-width: 0.8"/>
      </g>
     </g>
     <g id="text_1">
      <!-- 2011 -->
      <g transform="translate(262.397041 338.797656) scale(0.15 -0.15)">
       <defs>
        <path id="DejaVuSans-32" d="M 1228 531 
L 3431 531 
L 3431 0 
L 469 0 
L 469 531 
Q 828 903 1448 1529 
Q 2069 2156 2228 2338 
Q 2531 2678 2651 2914 
Q 2772 3150 2772 3378 
Q 2772 3750 2511 3984 
Q 2250 4219 1831 4219 
Q 1534 4219 1204 4116 
Q 875 4013 500 3803 
L 500 4441 
Q 881 4594 1212 4672 
Q 1544 4750 1819 4750 
Q 2544 4750 2975 4387 
Q 3406 4025 3406 3419 
Q 3406 3131 3298 2873 
Q 3191 2616 2906 2266 
Q 2828 2175 2409 1742 
Q 1991 1309 1228 531 
z
" transform="scale(0.015625)"/>
        <path id="DejaVuSans-30" d="M 2034 4250 
Q 1547 4250 1301 3770 
Q 1056 3291 1056 2328 
Q 1056 1369 1301 889 
Q 1547 409 2034 409 
Q 2525 409 2770 889 
Q 3016 1369 3016 2328 
Q 3016 3291 2770 3770 
Q 2525 4250 2034 4250 
z
M 2034 4750 
Q 2819 4750 3233 4129 
Q 3647 3509 3647 2328 
Q 3647 1150 3233 529 
Q 2819 -91 2034 -91 
Q 1250 -91 836 529 
Q 422 1150 422 2328 
Q 422 3509 836 4129 
Q 1250 4750 2034 4750 
z
" transform="scale(0.015625)"/>
        <path id="DejaVuSans-31" d="M 794 531 
L 1825 531 
L 1825 4091 
L 703 3866 
L 703 4441 
L 1819 4666 
L 2450 4666 
L 2450 531 
L 3481 531 
L 3481 0 
L 794 0 
L 794 531 
z
" transform="scale(0.015625)"/>
       </defs>
       <use xlink:href="#DejaVuSans-32"/>
       <use xlink:href="#DejaVuSans-30" x="63.623047"/>
       <use xlink:href="#DejaVuSans-31" x="127.246094"/>
       <use xlink:href="#DejaVuSans-31" x="190.869141"/>
      </g>
     </g>
    </g>
    <g id="xtick_2">
     <g id="line2d_2">
      <g>
       <use xlink:href="#m9300081074" x="462.017444" y="320.4" style="stroke: #000000; stroke-width: 0.8"/>
      </g>
     </g>
     <g id="text_2">
      <!-- 2012 -->
      <g transform="translate(442.929944 338.797656) scale(0.15 -0.15)">
       <use xlink:href="#DejaVuSans-32"/>
       <use xlink:href="#DejaVuSans-30" x="63.623047"/>
       <use xlink:href="#DejaVuSans-31" x="127.246094"/>
       <use xlink:href="#DejaVuSans-32" x="190.869141"/>
      </g>
     </g>
    </g>
    <g id="xtick_3">
     <g id="line2d_3">
      <g>
       <use xlink:href="#m9300081074" x="643.044958" y="320.4" style="stroke: #000000; stroke-width: 0.8"/>
      </g>
     </g>
     <g id="text_3">
      <!-- 2013 -->
      <g transform="translate(623.957458 338.797656) scale(0.15 -0.15)">
       <defs>
        <path id="DejaVuSans-33" d="M 2597 2516 
Q 3050 2419 3304 2112 
Q 3559 1806 3559 1356 
Q 3559 666 3084 287 
Q 2609 -91 1734 -91 
Q 1441 -91 1130 -33 
Q 819 25 488 141 
L 488 750 
Q 750 597 1062 519 
Q 1375 441 1716 441 
Q 2309 441 2620 675 
Q 2931 909 2931 1356 
Q 2931 1769 2642 2001 
Q 2353 2234 1838 2234 
L 1294 2234 
L 1294 2753 
L 1863 2753 
Q 2328 2753 2575 2939 
Q 2822 3125 2822 3475 
Q 2822 3834 2567 4026 
Q 2313 4219 1838 4219 
Q 1578 4219 1281 4162 
Q 984 4106 628 3988 
L 628 4550 
Q 988 4650 1302 4700 
Q 1616 4750 1894 4750 
Q 2613 4750 3031 4423 
Q 3450 4097 3450 3541 
Q 3450 3153 3228 2886 
Q 3006 2619 2597 2516 
z
" transform="scale(0.015625)"/>
       </defs>
       <use xlink:href="#DejaVuSans-32"/>
       <use xlink:href="#DejaVuSans-30" x="63.623047"/>
       <use xlink:href="#DejaVuSans-31" x="127.246094"/>
       <use xlink:href="#DejaVuSans-33" x="190.869141"/>
      </g>
     </g>
    </g>
    <g id="xtick_4">
     <g id="line2d_4">
      <g>
       <use xlink:href="#m9300081074" x="823.577861" y="320.4" style="stroke: #000000; stroke-width: 0.8"/>
      </g>
     </g>
     <g id="text_4">
      <!-- 2014 -->
      <g transform="translate(804.490361 338.797656) scale(0.15 -0.15)">
       <defs>
        <path id="DejaVuSans-34" d="M 2419 4116 
L 825 1625 
L 2419 1625 
L 2419 4116 
z
M 2253 4666 
L 3047 4666 
L 3047 1625 
L 3713 1625 
L 3713 1100 
L 3047 1100 
L 3047 0 
L 2419 0 
L 2419 1100 
L 313 1100 
L 313 1709 
L 2253 4666 
z
" transform="scale(0.015625)"/>
       </defs>
       <use xlink:href="#DejaVuSans-32"/>
       <use xlink:href="#DejaVuSans-30" x="63.623047"/>
       <use xlink:href="#DejaVuSans-31" x="127.246094"/>
       <use xlink:href="#DejaVuSans-34" x="190.869141"/>
      </g>
     </g>
    </g>
    <g id="xtick_5">
     <g id="line2d_5">
      <g>
       <use xlink:href="#m9300081074" x="1004.110764" y="320.4" style="stroke: #000000; stroke-width: 0.8"/>
      </g>
     </g>
     <g id="text_5">
      <!-- 2015 -->
      <g transform="translate(985.023264 338.797656) scale(0.15 -0.15)">
       <defs>
        <path id="DejaVuSans-35" d="M 691 4666 
L 3169 4666 
L 3169 4134 
L 1269 4134 
L 1269 2991 
Q 1406 3038 1543 3061 
Q 1681 3084 1819 3084 
Q 2600 3084 3056 2656 
Q 3513 2228 3513 1497 
Q 3513 744 3044 326 
Q 2575 -91 1722 -91 
Q 1428 -91 1123 -41 
Q 819 9 494 109 
L 494 744 
Q 775 591 1075 516 
Q 1375 441 1709 441 
Q 2250 441 2565 725 
Q 2881 1009 2881 1497 
Q 2881 1984 2565 2268 
Q 2250 2553 1709 2553 
Q 1456 2553 1204 2497 
Q 953 2441 691 2322 
L 691 4666 
z
" transform="scale(0.015625)"/>
       </defs>
       <use xlink:href="#DejaVuSans-32"/>
       <use xlink:href="#DejaVuSans-30" x="63.623047"/>
       <use xlink:href="#DejaVuSans-31" x="127.246094"/>
       <use xlink:href="#DejaVuSans-35" x="190.869141"/>
      </g>
     </g>
    </g>
    <g id="xtick_6">
     <g id="line2d_6">
      <g>
       <use xlink:href="#m9300081074" x="1184.643668" y="320.4" style="stroke: #000000; stroke-width: 0.8"/>
      </g>
     </g>
     <g id="text_6">
      <!-- 2016 -->
      <g transform="translate(1165.556168 338.797656) scale(0.15 -0.15)">
       <defs>
        <path id="DejaVuSans-36" d="M 2113 2584 
Q 1688 2584 1439 2293 
Q 1191 2003 1191 1497 
Q 1191 994 1439 701 
Q 1688 409 2113 409 
Q 2538 409 2786 701 
Q 3034 994 3034 1497 
Q 3034 2003 2786 2293 
Q 2538 2584 2113 2584 
z
M 3366 4563 
L 3366 3988 
Q 3128 4100 2886 4159 
Q 2644 4219 2406 4219 
Q 1781 4219 1451 3797 
Q 1122 3375 1075 2522 
Q 1259 2794 1537 2939 
Q 1816 3084 2150 3084 
Q 2853 3084 3261 2657 
Q 3669 2231 3669 1497 
Q 3669 778 3244 343 
Q 2819 -91 2113 -91 
Q 1303 -91 875 529 
Q 447 1150 447 2328 
Q 447 3434 972 4092 
Q 1497 4750 2381 4750 
Q 2619 4750 2861 4703 
Q 3103 4656 3366 4563 
z
" transform="scale(0.015625)"/>
       </defs>
       <use xlink:href="#DejaVuSans-32"/>
       <use xlink:href="#DejaVuSans-30" x="63.623047"/>
       <use xlink:href="#DejaVuSans-31" x="127.246094"/>
       <use xlink:href="#DejaVuSans-36" x="190.869141"/>
      </g>
     </g>
    </g>
    <g id="xtick_7">
     <g id="line2d_7">
      <g>
       <use xlink:href="#m9300081074" x="1365.671181" y="320.4" style="stroke: #000000; stroke-width: 0.8"/>
      </g>
     </g>
     <g id="text_7">
      <!-- 2017 -->
      <g transform="translate(1346.583681 338.797656) scale(0.15 -0.15)">
       <defs>
        <path id="DejaVuSans-37" d="M 525 4666 
L 3525 4666 
L 3525 4397 
L 1831 0 
L 1172 0 
L 2766 4134 
L 525 4134 
L 525 4666 
z
" transform="scale(0.015625)"/>
       </defs>
       <use xlink:href="#DejaVuSans-32"/>
       <use xlink:href="#DejaVuSans-30" x="63.623047"/>
       <use xlink:href="#DejaVuSans-31" x="127.246094"/>
       <use xlink:href="#DejaVuSans-37" x="190.869141"/>
      </g>
     </g>
    </g>
    <g id="xtick_8">
     <g id="line2d_8">
      <g>
       <use xlink:href="#m9300081074" x="1546.204085" y="320.4" style="stroke: #000000; stroke-width: 0.8"/>
      </g>
     </g>
     <g id="text_8">
      <!-- 2018 -->
      <g transform="translate(1527.116585 338.797656) scale(0.15 -0.15)">
       <defs>
        <path id="DejaVuSans-38" d="M 2034 2216 
Q 1584 2216 1326 1975 
Q 1069 1734 1069 1313 
Q 1069 891 1326 650 
Q 1584 409 2034 409 
Q 2484 409 2743 651 
Q 3003 894 3003 1313 
Q 3003 1734 2745 1975 
Q 2488 2216 2034 2216 
z
M 1403 2484 
Q 997 2584 770 2862 
Q 544 3141 544 3541 
Q 544 4100 942 4425 
Q 1341 4750 2034 4750 
Q 2731 4750 3128 4425 
Q 3525 4100 3525 3541 
Q 3525 3141 3298 2862 
Q 3072 2584 2669 2484 
Q 3125 2378 3379 2068 
Q 3634 1759 3634 1313 
Q 3634 634 3220 271 
Q 2806 -91 2034 -91 
Q 1263 -91 848 271 
Q 434 634 434 1313 
Q 434 1759 690 2068 
Q 947 2378 1403 2484 
z
M 1172 3481 
Q 1172 3119 1398 2916 
Q 1625 2713 2034 2713 
Q 2441 2713 2670 2916 
Q 2900 3119 2900 3481 
Q 2900 3844 2670 4047 
Q 2441 4250 2034 4250 
Q 1625 4250 1398 4047 
Q 1172 3844 1172 3481 
z
" transform="scale(0.015625)"/>
       </defs>
       <use xlink:href="#DejaVuSans-32"/>
       <use xlink:href="#DejaVuSans-30" x="63.623047"/>
       <use xlink:href="#DejaVuSans-31" x="127.246094"/>
       <use xlink:href="#DejaVuSans-38" x="190.869141"/>
      </g>
     </g>
    </g>
    <g id="text_9">
     <!-- Time -->
     <g transform="translate(904.149609 357.314844) scale(0.15 -0.15)">
      <defs>
       <path id="DejaVuSans-54" d="M -19 4666 
L 3928 4666 
L 3928 4134 
L 2272 4134 
L 2272 0 
L 1638 0 
L 1638 4134 
L -19 4134 
L -19 4666 
z
" transform="scale(0.015625)"/>
       <path id="DejaVuSans-69" d="M 603 3500 
L 1178 3500 
L 1178 0 
L 603 0 
L 603 3500 
z
M 603 4863 
L 1178 4863 
L 1178 4134 
L 603 4134 
L 603 4863 
z
" transform="scale(0.015625)"/>
       <path id="DejaVuSans-6d" d="M 3328 2828 
Q 3544 3216 3844 3400 
Q 4144 3584 4550 3584 
Q 5097 3584 5394 3201 
Q 5691 2819 5691 2113 
L 5691 0 
L 5113 0 
L 5113 2094 
Q 5113 2597 4934 2840 
Q 4756 3084 4391 3084 
Q 3944 3084 3684 2787 
Q 3425 2491 3425 1978 
L 3425 0 
L 2847 0 
L 2847 2094 
Q 2847 2600 2669 2842 
Q 2491 3084 2119 3084 
Q 1678 3084 1418 2786 
Q 1159 2488 1159 1978 
L 1159 0 
L 581 0 
L 581 3500 
L 1159 3500 
L 1159 2956 
Q 1356 3278 1631 3431 
Q 1906 3584 2284 3584 
Q 2666 3584 2933 3390 
Q 3200 3197 3328 2828 
z
" transform="scale(0.015625)"/>
       <path id="DejaVuSans-65" d="M 3597 1894 
L 3597 1613 
L 953 1613 
Q 991 1019 1311 708 
Q 1631 397 2203 397 
Q 2534 397 2845 478 
Q 3156 559 3463 722 
L 3463 178 
Q 3153 47 2828 -22 
Q 2503 -91 2169 -91 
Q 1331 -91 842 396 
Q 353 884 353 1716 
Q 353 2575 817 3079 
Q 1281 3584 2069 3584 
Q 2775 3584 3186 3129 
Q 3597 2675 3597 1894 
z
M 3022 2063 
Q 3016 2534 2758 2815 
Q 2500 3097 2075 3097 
Q 1594 3097 1305 2825 
Q 1016 2553 972 2059 
L 3022 2063 
z
" transform="scale(0.015625)"/>
      </defs>
      <use xlink:href="#DejaVuSans-54"/>
      <use xlink:href="#DejaVuSans-69" x="57.958984"/>
      <use xlink:href="#DejaVuSans-6d" x="85.742188"/>
      <use xlink:href="#DejaVuSans-65" x="183.154297"/>
     </g>
    </g>
   </g>
   <g id="matplotlib.axis_2">
    <g id="ytick_1">
     <g id="line2d_9">
      <defs>
       <path id="m3a2f4b4604" d="M 0 0 
L -3.5 0 
" style="stroke: #000000; stroke-width: 0.8"/>
      </defs>
      <g>
       <use xlink:href="#m3a2f4b4604" x="225" y="282.945373" style="stroke: #000000; stroke-width: 0.8"/>
      </g>
     </g>
     <g id="text_10">
      <!-- −0.002 -->
      <g transform="translate(162.488281 288.644201) scale(0.15 -0.15)">
       <defs>
        <path id="DejaVuSans-2212" d="M 678 2272 
L 4684 2272 
L 4684 1741 
L 678 1741 
L 678 2272 
z
" transform="scale(0.015625)"/>
        <path id="DejaVuSans-2e" d="M 684 794 
L 1344 794 
L 1344 0 
L 684 0 
L 684 794 
z
" transform="scale(0.015625)"/>
       </defs>
       <use xlink:href="#DejaVuSans-2212"/>
       <use xlink:href="#DejaVuSans-30" x="83.789062"/>
       <use xlink:href="#DejaVuSans-2e" x="147.412109"/>
       <use xlink:href="#DejaVuSans-30" x="179.199219"/>
       <use xlink:href="#DejaVuSans-30" x="242.822266"/>
       <use xlink:href="#DejaVuSans-32" x="306.445312"/>
      </g>
     </g>
    </g>
    <g id="ytick_2">
     <g id="line2d_10">
      <g>
       <use xlink:href="#m3a2f4b4604" x="225" y="241.714023" style="stroke: #000000; stroke-width: 0.8"/>
      </g>
     </g>
     <g id="text_11">
      <!-- −0.001 -->
      <g transform="translate(162.488281 247.412851) scale(0.15 -0.15)">
       <use xlink:href="#DejaVuSans-2212"/>
       <use xlink:href="#DejaVuSans-30" x="83.789062"/>
       <use xlink:href="#DejaVuSans-2e" x="147.412109"/>
       <use xlink:href="#DejaVuSans-30" x="179.199219"/>
       <use xlink:href="#DejaVuSans-30" x="242.822266"/>
       <use xlink:href="#DejaVuSans-31" x="306.445312"/>
      </g>
     </g>
    </g>
    <g id="ytick_3">
     <g id="line2d_11">
      <g>
       <use xlink:href="#m3a2f4b4604" x="225" y="200.482673" style="stroke: #000000; stroke-width: 0.8"/>
      </g>
     </g>
     <g id="text_12">
      <!-- 0.000 -->
      <g transform="translate(175.057813 206.181501) scale(0.15 -0.15)">
       <use xlink:href="#DejaVuSans-30"/>
       <use xlink:href="#DejaVuSans-2e" x="63.623047"/>
       <use xlink:href="#DejaVuSans-30" x="95.410156"/>
       <use xlink:href="#DejaVuSans-30" x="159.033203"/>
       <use xlink:href="#DejaVuSans-30" x="222.65625"/>
      </g>
     </g>
    </g>
    <g id="ytick_4">
     <g id="line2d_12">
      <g>
       <use xlink:href="#m3a2f4b4604" x="225" y="159.251323" style="stroke: #000000; stroke-width: 0.8"/>
      </g>
     </g>
     <g id="text_13">
      <!-- 0.001 -->
      <g transform="translate(175.057813 164.950152) scale(0.15 -0.15)">
       <use xlink:href="#DejaVuSans-30"/>
       <use xlink:href="#DejaVuSans-2e" x="63.623047"/>
       <use xlink:href="#DejaVuSans-30" x="95.410156"/>
       <use xlink:href="#DejaVuSans-30" x="159.033203"/>
       <use xlink:href="#DejaVuSans-31" x="222.65625"/>
      </g>
     </g>
    </g>
    <g id="ytick_5">
     <g id="line2d_13">
      <g>
       <use xlink:href="#m3a2f4b4604" x="225" y="118.019974" style="stroke: #000000; stroke-width: 0.8"/>
      </g>
     </g>
     <g id="text_14">
      <!-- 0.002 -->
      <g transform="translate(175.057813 123.718802) scale(0.15 -0.15)">
       <use xlink:href="#DejaVuSans-30"/>
       <use xlink:href="#DejaVuSans-2e" x="63.623047"/>
       <use xlink:href="#DejaVuSans-30" x="95.410156"/>
       <use xlink:href="#DejaVuSans-30" x="159.033203"/>
       <use xlink:href="#DejaVuSans-32" x="222.65625"/>
      </g>
     </g>
    </g>
    <g id="ytick_6">
     <g id="line2d_14">
      <g>
       <use xlink:href="#m3a2f4b4604" x="225" y="76.788624" style="stroke: #000000; stroke-width: 0.8"/>
      </g>
     </g>
     <g id="text_15">
      <!-- 0.003 -->
      <g transform="translate(175.057813 82.487452) scale(0.15 -0.15)">
       <use xlink:href="#DejaVuSans-30"/>
       <use xlink:href="#DejaVuSans-2e" x="63.623047"/>
       <use xlink:href="#DejaVuSans-30" x="95.410156"/>
       <use xlink:href="#DejaVuSans-30" x="159.033203"/>
       <use xlink:href="#DejaVuSans-33" x="222.65625"/>
      </g>
     </g>
    </g>
    <g id="text_16">
     <!-- East(m) -->
     <g transform="translate(155.36875 211.140234) rotate(-90) scale(0.15 -0.15)">
      <defs>
       <path id="DejaVuSans-45" d="M 628 4666 
L 3578 4666 
L 3578 4134 
L 1259 4134 
L 1259 2753 
L 3481 2753 
L 3481 2222 
L 1259 2222 
L 1259 531 
L 3634 531 
L 3634 0 
L 628 0 
L 628 4666 
z
" transform="scale(0.015625)"/>
       <path id="DejaVuSans-61" d="M 2194 1759 
Q 1497 1759 1228 1600 
Q 959 1441 959 1056 
Q 959 750 1161 570 
Q 1363 391 1709 391 
Q 2188 391 2477 730 
Q 2766 1069 2766 1631 
L 2766 1759 
L 2194 1759 
z
M 3341 1997 
L 3341 0 
L 2766 0 
L 2766 531 
Q 2569 213 2275 61 
Q 1981 -91 1556 -91 
Q 1019 -91 701 211 
Q 384 513 384 1019 
Q 384 1609 779 1909 
Q 1175 2209 1959 2209 
L 2766 2209 
L 2766 2266 
Q 2766 2663 2505 2880 
Q 2244 3097 1772 3097 
Q 1472 3097 1187 3025 
Q 903 2953 641 2809 
L 641 3341 
Q 956 3463 1253 3523 
Q 1550 3584 1831 3584 
Q 2591 3584 2966 3190 
Q 3341 2797 3341 1997 
z
" transform="scale(0.015625)"/>
       <path id="DejaVuSans-73" d="M 2834 3397 
L 2834 2853 
Q 2591 2978 2328 3040 
Q 2066 3103 1784 3103 
Q 1356 3103 1142 2972 
Q 928 2841 928 2578 
Q 928 2378 1081 2264 
Q 1234 2150 1697 2047 
L 1894 2003 
Q 2506 1872 2764 1633 
Q 3022 1394 3022 966 
Q 3022 478 2636 193 
Q 2250 -91 1575 -91 
Q 1294 -91 989 -36 
Q 684 19 347 128 
L 347 722 
Q 666 556 975 473 
Q 1284 391 1588 391 
Q 1994 391 2212 530 
Q 2431 669 2431 922 
Q 2431 1156 2273 1281 
Q 2116 1406 1581 1522 
L 1381 1569 
Q 847 1681 609 1914 
Q 372 2147 372 2553 
Q 372 3047 722 3315 
Q 1072 3584 1716 3584 
Q 2034 3584 2315 3537 
Q 2597 3491 2834 3397 
z
" transform="scale(0.015625)"/>
       <path id="DejaVuSans-74" d="M 1172 4494 
L 1172 3500 
L 2356 3500 
L 2356 3053 
L 1172 3053 
L 1172 1153 
Q 1172 725 1289 603 
Q 1406 481 1766 481 
L 2356 481 
L 2356 0 
L 1766 0 
Q 1100 0 847 248 
Q 594 497 594 1153 
L 594 3053 
L 172 3053 
L 172 3500 
L 594 3500 
L 594 4494 
L 1172 4494 
z
" transform="scale(0.015625)"/>
       <path id="DejaVuSans-28" d="M 1984 4856 
Q 1566 4138 1362 3434 
Q 1159 2731 1159 2009 
Q 1159 1288 1364 580 
Q 1569 -128 1984 -844 
L 1484 -844 
Q 1016 -109 783 600 
Q 550 1309 550 2009 
Q 550 2706 781 3412 
Q 1013 4119 1484 4856 
L 1984 4856 
z
" transform="scale(0.015625)"/>
       <path id="DejaVuSans-29" d="M 513 4856 
L 1013 4856 
Q 1481 4119 1714 3412 
Q 1947 2706 1947 2009 
Q 1947 1309 1714 600 
Q 1481 -109 1013 -844 
L 513 -844 
Q 928 -128 1133 580 
Q 1338 1288 1338 2009 
Q 1338 2731 1133 3434 
Q 928 4138 513 4856 
z
" transform="scale(0.015625)"/>
      </defs>
      <use xlink:href="#DejaVuSans-45"/>
      <use xlink:href="#DejaVuSans-61" x="63.183594"/>
      <use xlink:href="#DejaVuSans-73" x="124.462891"/>
      <use xlink:href="#DejaVuSans-74" x="176.5625"/>
      <use xlink:href="#DejaVuSans-28" x="215.771484"/>
      <use xlink:href="#DejaVuSans-6d" x="254.785156"/>
      <use xlink:href="#DejaVuSans-29" x="352.197266"/>
     </g>
    </g>
   </g>
   <g id="line2d_15">
    <path d="M 288.409091 247.179323 
L 288.903702 225.082659 
L 289.398312 244.670889 
L 289.892923 240.716019 
L 290.387534 233.314207 
L 290.882144 237.57537 
L 291.376755 238.564335 
L 291.871366 235.360858 
L 292.365976 238.495228 
L 292.860587 226.197293 
L 293.355198 226.233422 
L 293.849809 232.866567 
L 294.344419 230.322792 
L 294.83903 229.481282 
L 295.333641 233.593425 
L 296.817473 261.091208 
L 297.312083 259.289597 
L 298.301305 267.672917 
L 299.290526 257.625824 
L 299.785137 259.423121 
L 300.774358 264.43725 
L 301.268969 255.01962 
L 301.76358 247.940396 
L 302.25819 247.864611 
L 302.752801 255.575662 
L 303.247412 261.307607 
L 303.742022 256.87308 
L 304.236633 251.278184 
L 304.731244 256.750961 
L 305.225854 259.649724 
L 305.720465 270.370663 
L 306.709687 239.772687 
L 307.204297 231.462413 
L 307.698908 228.765492 
L 308.193519 223.618251 
L 308.688129 216.109043 
L 309.18274 201.820223 
L 310.171961 198.504833 
L 310.666572 201.974944 
L 311.161183 196.980848 
L 311.655794 206.199788 
L 313.634236 252.164114 
L 314.128847 258.384946 
L 314.623458 273.340933 
L 315.118068 281.328822 
L 315.612679 272.812391 
L 317.096511 256.145509 
L 318.580343 220.441524 
L 319.074954 222.285942 
L 319.569565 220.301735 
L 320.064175 220.979895 
L 320.558786 223.707842 
L 321.053397 234.676169 
L 321.548007 229.151956 
L 322.042618 237.169296 
L 322.537229 240.963368 
L 323.031839 240.17487 
L 323.52645 250.501166 
L 324.021061 250.254566 
L 324.515672 246.197011 
L 325.010282 248.636338 
L 325.504893 239.477876 
L 325.999504 217.985351 
L 326.494114 207.089282 
L 326.988725 189.166213 
L 327.483336 186.592986 
L 327.977946 186.411178 
L 328.472557 192.266818 
L 328.967168 201.079334 
L 329.461778 227.550648 
L 329.956389 240.244802 
L 330.451 248.662675 
L 330.945611 254.465303 
L 331.440221 251.780163 
L 331.934832 258.136469 
L 332.429443 255.828301 
L 332.924053 249.927116 
L 333.418664 247.289097 
L 333.913275 243.331675 
L 334.407885 242.796456 
L 334.902496 238.232344 
L 335.397107 225.598668 
L 336.386328 194.01703 
L 336.880939 184.829117 
L 337.37555 184.299788 
L 337.87016 184.076748 
L 338.364771 192.15299 
L 338.859382 195.658443 
L 339.353992 201.902835 
L 339.848603 206.232915 
L 340.343214 203.064779 
L 340.837824 202.570791 
L 342.321657 172.762888 
L 342.816267 168.29302 
L 343.310878 168.452843 
L 343.805489 167.905843 
L 344.300099 153.770168 
L 344.79471 148.940997 
L 345.289321 140.465798 
L 345.783931 140.437135 
L 346.278542 143.188643 
L 346.773153 141.269228 
L 347.267763 142.471615 
L 347.762374 150.129653 
L 348.256985 150.972739 
L 348.751596 154.43696 
L 349.246206 153.324501 
L 349.740817 146.64581 
L 350.235428 130.21296 
L 350.730038 118.221316 
L 351.224649 112.903259 
L 351.71926 112.038189 
L 352.21387 111.8446 
L 352.708481 113.524093 
L 353.203092 110.485541 
L 354.192313 129.51244 
L 354.686924 132.458324 
L 355.181535 137.518788 
L 355.676145 145.365312 
L 356.170756 144.270524 
L 356.665367 159.267743 
L 357.654588 176.957568 
L 358.149199 178.542818 
L 358.643809 192.397339 
L 359.13842 194.477365 
L 359.633031 197.299555 
L 360.622252 186.363043 
L 361.611474 189.333276 
L 362.106084 177.712713 
L 362.600695 171.623041 
L 363.095306 170.704959 
L 363.589916 167.089169 
L 364.084527 166.430255 
L 364.579138 154.73901 
L 365.073748 149.980522 
L 365.568359 159.558763 
L 366.06297 161.04388 
L 366.55758 160.013884 
L 367.052191 171.694924 
L 367.546802 167.230946 
L 368.041413 176.385093 
L 368.536023 190.769732 
L 369.030634 184.880327 
L 370.019855 203.547924 
L 370.514466 200.509372 
L 371.009077 210.405684 
L 371.503687 217.321558 
L 371.998298 212.85169 
L 372.492909 213.789018 
L 372.98752 216.139993 
L 373.48213 199.088673 
L 373.976741 191.944657 
L 374.471352 179.499467 
L 374.965962 173.074054 
L 375.460573 148.612871 
L 375.955184 140.732581 
L 376.449794 119.617028 
L 376.944405 123.917656 
L 377.439016 112.886113 
L 377.933626 140.093702 
L 378.428237 149.654272 
L 378.922848 165.370095 
L 379.417459 171.213954 
L 380.40668 194.104031 
L 381.395901 239.359958 
L 381.890512 233.564796 
L 382.385123 229.842982 
L 382.879733 239.503686 
L 383.374344 242.632167 
L 384.363565 213.84248 
L 384.858176 210.774477 
L 385.352787 209.479423 
L 385.847398 201.428317 
L 386.342008 195.450559 
L 386.836619 192.853772 
L 387.33123 193.808771 
L 388.815062 172.91862 
L 389.309672 173.844169 
L 389.804283 192.393174 
L 390.298894 195.250705 
L 390.793504 192.71282 
L 391.288115 198.874749 
L 392.277337 199.458666 
L 392.771947 189.923232 
L 393.266558 189.859228 
L 393.761169 169.132427 
L 394.255779 162.506748 
L 394.75039 167.302153 
L 395.245001 158.815173 
L 395.739611 158.656925 
L 396.234222 157.385431 
L 396.728833 155.318762 
L 397.223443 157.858222 
L 397.718054 156.504266 
L 398.212665 138.298468 
L 398.707276 135.819484 
L 399.201886 139.324937 
L 399.696497 139.384627 
L 400.191108 141.005218 
L 400.685718 138.761842 
L 401.180329 135.634938 
L 401.67494 135.641616 
L 402.16955 134.546828 
L 402.664161 122.343136 
L 403.653382 136.098478 
L 404.147993 134.162346 
L 404.642604 133.29823 
L 405.137215 140.085474 
L 405.631825 149.817814 
L 406.126436 148.476592 
L 406.621047 145.90432 
L 407.115657 130.731971 
L 407.610268 132.558718 
L 408.104879 132.111852 
L 408.599489 129.774233 
L 409.0941 131.930831 
L 410.577932 167.615983 
L 411.072543 171.657443 
L 411.567154 171.811376 
L 412.061764 164.431752 
L 412.556375 165.899198 
L 413.050986 163.420215 
L 413.545596 157.059594 
L 414.534818 139.054851 
L 415.029428 143.290687 
L 415.524039 153.21056 
L 416.01865 150.060094 
L 416.513261 151.268372 
L 417.007871 161.694801 
L 417.997093 188.37306 
L 418.491703 189.710921 
L 418.986314 184.687375 
L 419.480925 193.894534 
L 419.975535 200.409875 
L 420.470146 199.262075 
L 420.964757 199.498471 
L 421.459367 200.530043 
L 421.953978 202.981151 
L 422.448589 214.909579 
L 422.9432 212.907701 
L 423.43781 202.795028 
L 423.932421 207.678786 
L 424.427032 206.507425 
L 424.921642 202.856293 
L 425.416253 201.814517 
L 425.910864 193.298086 
L 426.405474 192.26809 
L 426.900085 196.468586 
L 427.394696 193.047171 
L 429.867749 129.978926 
L 430.36236 127.293786 
L 430.856971 118.070532 
L 431.351581 121.634886 
L 431.846192 128.639113 
L 432.340803 139.654562 
L 432.835413 153.750581 
L 433.330024 158.516535 
L 433.824635 154.046666 
L 434.319245 157.039672 
L 434.813856 154.478226 
L 435.803078 135.224761 
L 436.297688 133.658758 
L 436.792299 134.289796 
L 437.28691 134.437839 
L 437.78152 136.712241 
L 438.276131 138.114895 
L 438.770742 148.017097 
L 439.265352 150.851068 
L 439.759963 152.365635 
L 440.749185 177.412311 
L 441.738406 191.485557 
L 442.233017 184.830427 
L 442.727627 193.177618 
L 444.211459 153.621447 
L 444.70607 148.650912 
L 445.200681 140.340637 
L 445.695291 144.841533 
L 446.189902 132.201967 
L 446.684513 145.773759 
L 447.179124 151.647069 
L 447.673734 167.221527 
L 448.168345 169.024713 
L 449.157566 174.127196 
L 449.652177 172.896934 
L 450.146788 160.263258 
L 450.641398 151.010553 
L 451.136009 132.598598 
L 451.63062 122.320999 
L 452.12523 120.342682 
L 452.619841 113.887819 
L 453.114452 115.903053 
L 453.609063 121.523084 
L 454.103673 120.074885 
L 454.598284 133.163681 
L 455.092895 135.461644 
L 455.587505 135.951318 
L 456.082116 134.179158 
L 456.576727 134.338981 
L 457.071337 146.049472 
L 457.565948 162.807858 
L 458.060559 156.023144 
L 458.555169 155.411352 
L 459.04978 157.114405 
L 459.544391 172.635851 
L 460.039002 182.237654 
L 460.533612 183.381139 
L 461.028223 183.022625 
L 461.522834 189.072641 
L 462.017444 196.813142 
L 462.512055 193.721579 
L 463.006666 187.296166 
L 463.501276 191.620355 
L 463.995887 192.781511 
L 464.490498 197.217614 
L 464.985108 204.569363 
L 465.479719 200.635502 
L 465.97433 210.796872 
L 466.468941 214.202192 
L 466.963551 215.363347 
L 467.458162 219.734658 
L 467.952773 220.047626 
L 468.447383 224.089087 
L 468.941994 234.916049 
L 469.436605 238.798474 
L 469.931215 233.686574 
L 470.425826 220.546342 
L 470.920437 213.690945 
L 471.415048 214.911003 
L 471.909658 206.553607 
L 472.404269 202.219213 
L 472.89888 200.67088 
L 473.39349 204.276466 
L 473.888101 205.596657 
L 474.382712 198.72359 
L 475.371933 187.427776 
L 475.866544 186.580376 
L 476.361154 181.315331 
L 476.855765 181.02161 
L 477.350376 187.142308 
L 477.844987 189.605196 
L 478.339597 183.350599 
L 478.834208 191.267806 
L 480.812651 204.853742 
L 481.307261 213.524894 
L 481.801872 211.858757 
L 482.296483 212.93745 
L 483.285704 222.598942 
L 484.274926 241.437355 
L 484.769536 246.55083 
L 485.264147 260.97081 
L 486.253368 256.283792 
L 487.7372 209.724181 
L 488.231811 206.556045 
L 488.726422 210.273545 
L 489.221032 217.666525 
L 489.715643 220.559397 
L 490.210254 230.47338 
L 490.704865 237.053513 
L 491.199475 248.911259 
L 491.694086 246.208448 
L 492.188697 244.707237 
L 493.177918 231.567792 
L 493.672529 234.9201 
L 494.167139 239.438666 
L 494.66175 231.069489 
L 495.650971 210.013626 
L 496.145582 206.757137 
L 497.134804 224.865165 
L 497.629414 228.017206 
L 498.124025 229.201923 
L 498.618636 251.226142 
L 499.113246 252.15169 
L 499.607857 249.525452 
L 500.102468 241.050252 
L 501.5863 205.175451 
L 502.080911 184.071678 
L 502.575521 179.713723 
L 503.564743 173.719083 
L 504.059353 174.373682 
L 504.553964 181.913917 
L 506.037796 217.05128 
L 506.532407 224.461931 
L 507.027017 229.646088 
L 507.521628 239.642533 
L 508.016239 233.835591 
L 508.51085 231.857274 
L 509.00546 227.905743 
L 509.994682 207.904223 
L 510.489292 214.613941 
L 510.983903 205.79711 
L 511.478514 211.923699 
L 511.973124 211.341357 
L 512.467735 212.908936 
L 512.962346 217.845706 
L 513.456956 227.82448 
L 514.446178 216.275388 
L 514.940789 205.868205 
L 515.435399 198.211742 
L 515.93001 185.424921 
L 516.919231 169.051761 
L 517.413842 161.401188 
L 517.908453 161.325404 
L 518.403063 158.917103 
L 518.897674 162.734735 
L 519.392285 163.966574 
L 519.886895 164.685965 
L 521.370728 147.33582 
L 521.865338 142.583223 
L 522.359949 143.47343 
L 522.85456 146.625471 
L 523.34917 148.711387 
L 523.843781 148.046583 
L 524.338392 142.681405 
L 524.833002 140.273104 
L 525.327613 148.278664 
L 526.811445 125.609675 
L 527.306056 128.143246 
L 527.800667 123.802962 
L 528.295277 127.455669 
L 528.789888 137.434444 
L 529.284499 140.026916 
L 529.779109 148.857103 
L 530.27372 151.178627 
L 530.768331 164.1614 
L 531.757552 210.283185 
L 532.252163 209.612491 
L 532.746774 221.570371 
L 533.241384 223.691628 
L 533.735995 229.140844 
L 534.230606 229.165193 
L 534.725216 214.069416 
L 535.219827 195.345281 
L 535.714438 185.727384 
L 536.209048 166.41423 
L 536.703659 157.391242 
L 537.19827 158.517057 
L 537.69288 143.391829 
L 538.187491 139.675906 
L 538.682102 144.276934 
L 539.176713 150.533107 
L 539.671323 162.720703 
L 540.165934 170.950091 
L 540.660545 166.474332 
L 541.649766 192.993556 
L 542.144377 192.652712 
L 542.638987 188.447903 
L 543.133598 196.936458 
L 543.628209 191.677304 
L 544.122819 194.040059 
L 544.61743 185.676773 
L 545.606652 163.360408 
L 546.101262 171.636917 
L 546.595873 155.863768 
L 547.090484 154.804322 
L 548.079705 147.413871 
L 548.574316 146.732351 
L 549.563537 179.237919 
L 550.058148 177.719991 
L 550.552758 185.155156 
L 551.047369 189.82193 
L 551.54198 188.285378 
L 552.036591 188.186033 
L 553.025812 154.077502 
L 554.015033 133.345599 
L 554.509644 130.324717 
L 555.004255 148.231691 
L 555.498865 158.658121 
L 555.993476 164.21925 
L 556.488087 172.024544 
L 557.971919 184.355081 
L 558.46653 167.480466 
L 558.96114 173.15351 
L 559.455751 194.788976 
L 559.950362 192.946133 
L 560.444972 188.234767 
L 560.939583 192.37047 
L 561.434194 195.251562 
L 561.928804 202.438385 
L 562.423415 196.778698 
L 562.918026 178.973433 
L 563.907247 196.209713 
L 564.401858 209.221937 
L 564.896469 212.574244 
L 565.391079 214.483455 
L 565.88569 221.193172 
L 566.380301 215.509924 
L 566.874911 212.742321 
L 567.369522 212.872693 
L 568.358743 188.494761 
L 568.853354 188.047894 
L 569.347965 172.757741 
L 570.337186 161.697535 
L 570.831797 151.496509 
L 571.326408 152.21001 
L 571.821018 145.613782 
L 572.315629 144.972538 
L 572.81024 145.485773 
L 573.30485 151.005672 
L 573.799461 154.022238 
L 574.294072 162.593257 
L 574.788682 150.366004 
L 575.283293 161.399123 
L 575.777904 155.662863 
L 576.272515 152.111865 
L 576.767125 155.3876 
L 577.261736 155.853713 
L 577.756347 157.527315 
L 578.250957 169.968191 
L 578.745568 163.065672 
L 579.240179 160.144925 
L 579.734789 178.894196 
L 580.2294 177.481338 
L 580.724011 173.565147 
L 581.713232 159.601076 
L 582.207843 156.597865 
L 582.702454 158.106543 
L 583.197064 150.514872 
L 583.691675 149.072562 
L 584.186286 153.591128 
L 584.680896 155.629923 
L 585.175507 161.173382 
L 585.670118 179.50445 
L 586.164728 187.409877 
L 586.659339 185.290195 
L 587.15395 192.329763 
L 587.64856 195.075381 
L 588.143171 201.078275 
L 588.637782 203.847454 
L 589.132393 203.153199 
L 589.627003 201.43405 
L 590.121614 201.346485 
L 590.616225 193.236478 
L 591.110835 181.268394 
L 591.605446 173.794527 
L 592.100057 172.222633 
L 592.594667 160.425365 
L 593.089278 165.067625 
L 593.583889 165.486616 
L 594.0785 171.854702 
L 594.57311 179.930945 
L 595.562332 175.367621 
L 596.056942 181.352845 
L 596.551553 176.017118 
L 597.046164 160.785867 
L 597.540774 159.072609 
L 598.035385 147.463827 
L 598.529996 153.790681 
L 599.024606 154.038857 
L 599.519217 150.558541 
L 600.013828 149.446083 
L 600.508439 158.91241 
L 601.003049 161.004217 
L 601.49766 173.586456 
L 601.992271 174.541456 
L 602.486881 171.002237 
L 602.981492 169.206517 
L 603.476103 175.839661 
L 603.970713 180.623286 
L 604.465324 170.192542 
L 605.454545 157.924846 
L 605.949156 155.416412 
L 606.938378 143.684724 
L 607.432988 134.973916 
L 607.927599 142.419908 
L 608.42221 153.299882 
L 609.411431 168.674861 
L 609.906042 184.60862 
L 610.400652 188.249547 
L 610.895263 195.713209 
L 611.389874 198.170208 
L 613.368317 169.058136 
L 613.862927 156.306656 
L 614.357538 153.179752 
L 614.852149 144.663321 
L 615.346759 150.242121 
L 615.84137 150.702344 
L 616.335981 157.129332 
L 616.830591 161.270926 
L 617.325202 168.970196 
L 617.819813 169.100568 
L 618.314423 171.881526 
L 618.809034 165.226396 
L 619.303645 164.579263 
L 619.798256 162.365338 
L 620.292866 161.152747 
L 620.787477 162.720326 
L 621.282088 158.114983 
L 621.776698 159.240797 
L 622.76592 147.479658 
L 623.26053 136.948781 
L 623.755141 134.994025 
L 624.249752 135.407126 
L 624.744363 143.54227 
L 625.238973 145.469151 
L 625.733584 137.476947 
L 626.228195 137.277469 
L 626.722805 146.036973 
L 627.217416 147.82838 
L 627.712027 148.064775 
L 628.206637 150.651358 
L 628.701248 164.700256 
L 629.195859 186.765706 
L 629.690469 200.738031 
L 630.679691 191.556796 
L 631.174302 195.203613 
L 631.668912 191.21085 
L 632.658134 174.949604 
L 633.152744 166.545086 
L 633.647355 164.195687 
L 634.636576 160.5514 
L 635.131187 149.243971 
L 635.625798 144.015222 
L 636.120408 140.264911 
L 637.10963 137.659039 
L 637.604241 143.857264 
L 638.593462 152.11689 
L 639.088073 161.094332 
L 639.582683 159.769826 
L 640.077294 156.766616 
L 640.571905 163.364419 
L 641.066515 174.945326 
L 641.561126 180.506456 
L 642.055737 183.42878 
L 642.550347 181.238416 
L 643.044958 189.296988 
L 643.539569 191.801107 
L 644.03418 201.526604 
L 644.52879 207.081843 
L 645.023401 210.334017 
L 645.518012 221.390697 
L 646.012622 229.773229 
L 646.507233 227.40027 
L 647.001844 237.502738 
L 647.496454 238.628553 
L 648.485676 216.253286 
L 648.980286 208.596823 
L 649.969508 198.638083 
L 650.464119 200.635646 
L 650.958729 197.055197 
L 651.45334 200.707904 
L 651.947951 209.703016 
L 652.937172 236.23402 
L 653.431783 246.630999 
L 654.421004 244.883187 
L 654.915615 243.022674 
L 655.410225 249.67938 
L 655.904836 240.880219 
L 656.399447 239.938576 
L 656.894058 236.623186 
L 657.388668 243.309342 
L 657.883279 246.808905 
L 658.37789 261.199434 
L 658.8725 266.495505 
L 659.367111 275.072414 
L 659.861722 265.890391 
L 660.356332 271.940407 
L 660.850943 272.241594 
L 661.345554 267.801177 
L 661.840165 258.566142 
L 662.829386 231.678988 
L 663.323997 245.610082 
L 663.818607 231.197568 
L 664.313218 221.202698 
L 664.807829 220.691039 
L 665.302439 210.866985 
L 665.79705 209.189068 
L 666.291661 218.519922 
L 666.786271 206.545947 
L 667.280882 217.349349 
L 667.775493 218.916928 
L 668.270104 199.374056 
L 668.764714 186.710929 
L 669.259325 190.192821 
L 669.753936 188.927218 
L 670.248546 191.301753 
L 670.743157 197.628608 
L 671.237768 202.488805 
L 671.732378 217.715741 
L 672.226989 240.723622 
L 672.7216 249.188617 
L 673.21621 249.796095 
L 673.710821 250.857118 
L 674.205432 239.407371 
L 674.700043 208.166576 
L 675.194653 206.388525 
L 675.689264 197.412659 
L 676.183875 193.21963 
L 676.678485 186.152186 
L 677.173096 171.015179 
L 677.667707 172.34126 
L 678.162317 199.625421 
L 678.656928 200.492067 
L 679.151539 200.928729 
L 679.646149 194.980422 
L 680.14076 194.168363 
L 680.635371 196.101134 
L 681.129982 196.372871 
L 681.624592 197.964011 
L 682.119203 197.417011 
L 682.613814 195.485816 
L 683.108424 202.790443 
L 683.603035 203.957489 
L 684.097646 220.368354 
L 684.592256 227.802565 
L 685.086867 230.489281 
L 686.076088 257.014395 
L 686.570699 245.063981 
L 687.06531 249.305708 
L 688.054531 231.083027 
L 688.549142 228.056256 
L 689.043753 217.984814 
L 689.538363 204.80335 
L 690.032974 209.551633 
L 691.022195 202.502648 
L 691.516806 199.646693 
L 692.011417 193.886872 
L 692.506028 198.923775 
L 693.000638 200.308758 
L 693.495249 194.183745 
L 693.98986 185.508279 
L 694.48447 173.805254 
L 694.979081 175.143115 
L 695.473692 171.185693 
L 695.968302 158.652151 
L 696.462913 165.750621 
L 696.957524 169.250183 
L 697.452134 177.126159 
L 697.946745 188.495019 
L 698.935967 202.550595 
L 699.430577 211.61639 
L 699.925188 209.184528 
L 700.419799 217.107625 
L 700.914409 211.135757 
L 701.40902 211.101204 
L 701.903631 212.038532 
L 702.398241 216.562988 
L 702.892852 223.343388 
L 703.387463 222.819949 
L 703.882073 223.551121 
L 704.376684 225.218833 
L 704.871295 225.19606 
L 705.365906 209.045939 
L 705.860516 208.710986 
L 706.355127 189.203455 
L 707.344348 179.933867 
L 707.838959 189.476768 
L 708.33357 202.406529 
L 708.82818 209.811289 
L 709.322791 196.936115 
L 709.817402 204.547032 
L 710.312012 198.958027 
L 710.806623 198.045835 
L 711.301234 196.020397 
L 711.795845 183.905058 
L 712.290455 187.687349 
L 712.785066 200.399173 
L 713.279677 201.230478 
L 713.774287 218.654457 
L 714.268898 226.194691 
L 714.763509 238.629676 
L 715.258119 247.330279 
L 715.75273 252.655801 
L 716.247341 261.379964 
L 716.741951 275.146133 
L 717.236562 274.004223 
L 717.731173 272.396989 
L 718.720394 257.431584 
L 719.215005 247.271789 
L 720.204226 208.180155 
L 720.698837 197.796533 
L 721.193448 200.306543 
L 721.688058 193.138966 
L 722.182669 197.928481 
L 722.67728 200.520954 
L 723.171891 203.867371 
L 723.666501 218.699664 
L 724.161112 212.763138 
L 724.655723 198.974984 
L 725.150333 211.180252 
L 725.644944 215.17459 
L 726.139555 213.013677 
L 726.634165 211.400552 
L 727.128776 199.956696 
L 727.623387 217.003702 
L 728.117997 218.482928 
L 729.107219 204.406943 
L 730.09644 218.980855 
L 730.591051 229.690014 
L 731.085662 225.467533 
L 731.580272 233.402411 
L 732.569494 240.690155 
L 733.064104 245.267623 
L 733.558715 251.647489 
L 734.053326 260.689723 
L 734.547936 266.027026 
L 735.042547 260.909236 
L 735.537158 262.535717 
L 736.031769 265.876244 
L 736.526379 264.227778 
L 737.02099 268.711003 
L 737.515601 276.02152 
L 738.010211 276.552425 
L 738.504822 285.541647 
L 738.999433 277.413969 
L 739.494043 276.224938 
L 739.988654 282.298515 
L 740.483265 280.508684 
L 740.977875 272.917013 
L 741.472486 277.830222 
L 741.967097 288.939913 
L 742.461708 291.302668 
L 744.44015 245.391767 
L 744.934761 240.079601 
L 745.429372 227.716874 
L 745.923982 228.701324 
L 746.418593 234.869143 
L 746.913204 249.571853 
L 747.407814 250.026185 
L 747.902425 258.768019 
L 748.891647 248.014103 
L 749.386257 253.828511 
L 749.880868 251.455551 
L 750.375479 237.455351 
L 750.870089 232.961921 
L 751.3647 230.035283 
L 751.859311 230.177436 
L 752.353921 238.489286 
L 753.343143 218.976653 
L 753.837754 217.145591 
L 754.332364 228.131588 
L 754.826975 220.186506 
L 755.321586 216.994809 
L 756.310807 197.558748 
L 756.805418 211.148211 
L 757.300028 209.164004 
L 757.794639 192.053782 
L 758.28925 192.98522 
L 758.78386 195.041685 
L 759.278471 197.857985 
L 759.773082 211.017464 
L 760.267693 207.649061 
L 760.762303 221.910006 
L 761.256914 227.429905 
L 761.751525 229.168299 
L 762.246135 231.902137 
L 762.740746 236.114412 
L 763.235357 233.093531 
L 763.729967 224.365053 
L 764.224578 203.090465 
L 764.719189 196.989013 
L 765.213799 183.907682 
L 766.203021 147.955521 
L 766.697632 134.361744 
L 767.192242 126.186944 
L 767.686853 125.410226 
L 768.181464 135.907338 
L 768.676074 142.976357 
L 770.159906 167.787425 
L 770.654517 174.049488 
L 771.149128 196.156169 
L 771.643738 209.315648 
L 772.63296 217.816772 
L 773.127571 217.157858 
L 773.622181 220.716322 
L 774.116792 231.602187 
L 774.611403 235.313796 
L 775.106013 227.680894 
L 776.095235 220.608348 
L 776.589845 214.477445 
L 777.084456 201.219409 
L 777.579067 196.343117 
L 778.073677 171.652217 
L 778.568288 163.966303 
L 779.062899 159.036999 
L 779.55751 158.20727 
L 780.05212 161.771624 
L 780.546731 178.347415 
L 781.041342 164.559261 
L 781.535952 180.76986 
L 782.030563 183.079603 
L 782.525174 178.804111 
L 783.019784 177.821237 
L 783.514395 179.960165 
L 784.009006 170.807593 
L 784.503617 184.491298 
L 784.998227 189.109998 
L 785.492838 192.585999 
L 785.987449 197.346063 
L 786.482059 196.852074 
L 787.471281 184.348771 
L 787.965891 180.644627 
L 788.460502 166.791682 
L 788.955113 168.158994 
L 789.449723 158.087552 
L 789.944334 158.123681 
L 790.438945 158.642806 
L 790.933556 156.511344 
L 791.428166 149.956347 
L 791.922777 152.201299 
L 792.417388 144.804004 
L 792.911998 146.065293 
L 793.406609 144.593533 
L 793.90122 144.028862 
L 794.39583 154.025308 
L 794.890441 156.776815 
L 795.385052 154.945753 
L 795.879662 158.551339 
L 796.374273 163.311403 
L 796.868884 154.683058 
L 797.363495 155.526144 
L 797.858105 154.961473 
L 798.352716 157.406691 
L 798.847327 175.343116 
L 799.341937 181.846676 
L 799.836548 182.648531 
L 800.331159 191.961713 
L 800.825769 191.567858 
L 801.32038 195.703561 
L 801.814991 193.754695 
L 802.309601 168.351082 
L 802.804212 167.250403 
L 803.298823 162.93957 
L 803.793434 172.564933 
L 804.288044 176.783099 
L 804.782655 172.91992 
L 805.277266 182.509942 
L 805.771876 201.913025 
L 806.266487 207.374022 
L 806.761098 226.694642 
L 807.255708 220.663872 
L 809.728762 240.426257 
L 810.223373 256.124409 
L 810.717983 267.304783 
L 811.212594 274.30312 
L 811.707205 287.173979 
L 812.201815 286.844916 
L 812.696426 307.19043 
L 813.191037 298.143881 
L 813.685647 298.350826 
L 814.180258 298.286822 
L 814.674869 295.430866 
L 815.16948 282.314194 
L 815.66409 280.353548 
L 816.653312 244.896163 
L 817.642533 223.215939 
L 818.137144 218.545804 
L 818.631754 218.393447 
L 819.620976 207.833119 
L 820.115586 207.227217 
L 820.610197 214.013507 
L 821.104808 214.108538 
L 821.599419 211.741468 
L 822.094029 212.325385 
L 822.58864 215.059222 
L 823.083251 214.600575 
L 824.072472 197.950576 
L 824.567083 184.127081 
L 825.061693 181.330027 
L 825.556304 174.262583 
L 826.050915 163.278162 
L 826.545525 155.551017 
L 827.040136 161.065025 
L 828.029358 180.627931 
L 828.523968 176.352439 
L 829.018579 181.742753 
L 830.0078 208.509365 
L 830.502411 203.709646 
L 830.997022 191.924158 
L 831.491632 198.604424 
L 831.986243 210.267794 
L 832.480854 214.586093 
L 832.975464 201.351618 
L 833.470075 198.006776 
L 833.964686 210.376969 
L 834.459297 228.678586 
L 834.953907 228.814848 
L 835.448518 229.510679 
L 835.943129 233.923221 
L 836.437739 246.80586 
L 836.93235 244.927677 
L 837.426961 232.830008 
L 838.416182 219.696454 
L 838.910793 214.625786 
L 839.405403 197.827744 
L 839.900014 186.701957 
L 840.889236 207.908227 
L 841.383846 205.935801 
L 841.878457 204.517052 
L 842.373068 196.807577 
L 842.867678 206.091309 
L 843.362289 206.539752 
L 843.8569 206.222469 
L 844.35151 202.418192 
L 844.846121 206.824844 
L 845.340732 220.755938 
L 845.835343 229.668588 
L 846.329953 227.012899 
L 847.319175 219.469137 
L 847.813785 218.09751 
L 848.308396 220.742995 
L 848.803007 205.282026 
L 849.297617 196.335611 
L 849.792228 192.855295 
L 850.286839 193.233055 
L 850.781449 188.015132 
L 851.27606 191.149503 
L 851.770671 186.449917 
L 852.265282 194.320002 
L 852.759892 214.47703 
L 853.254503 226.169851 
L 853.749114 228.909578 
L 854.243724 233.899359 
L 854.738335 242.181758 
L 855.232946 255.800672 
L 855.727556 250.541518 
L 856.716778 220.862412 
L 857.211388 225.227832 
L 857.705999 231.737283 
L 858.695221 221.572386 
L 859.189831 231.992925 
L 859.684442 245.865117 
L 860.179053 267.429901 
L 860.673663 283.328319 
L 861.168274 288.265088 
L 861.662885 292.006149 
L 862.157495 293.803445 
L 862.652106 294.352021 
L 863.146717 289.475729 
L 863.641327 288.404502 
L 864.135938 281.943748 
L 864.630549 277.232382 
L 865.12516 278.387648 
L 865.61977 275.814421 
L 866.608992 278.802325 
L 867.103602 264.837465 
L 867.598213 261.934388 
L 868.092824 268.7678 
L 868.587434 262.42485 
L 869.082045 258.926863 
L 869.576656 262.449986 
L 870.071266 258.751733 
L 870.565877 258.198843 
L 871.555099 230.121869 
L 872.54432 218.219365 
L 873.038931 202.505119 
L 873.533541 196.969125 
L 874.028152 198.342328 
L 874.522763 208.126726 
L 875.017373 198.679645 
L 875.511984 202.679873 
L 876.006595 212.923707 
L 876.501206 234.258773 
L 877.490427 244.226555 
L 877.985038 240.004074 
L 878.479648 253.116431 
L 878.974259 259.614102 
L 879.46887 250.909185 
L 879.96348 233.881425 
L 880.952702 229.229749 
L 881.447312 222.00327 
L 881.941923 222.286787 
L 882.436534 213.428725 
L 882.931145 219.620105 
L 883.425755 228.69179 
L 884.414977 232.928414 
L 884.909587 253.085442 
L 885.404198 249.72293 
L 885.898809 258.877077 
L 886.393419 256.109475 
L 886.88803 251.168391 
L 887.382641 252.871444 
L 887.877251 255.469807 
L 888.371862 244.991942 
L 888.866473 250.759229 
L 889.361084 255.095198 
L 889.855694 257.946839 
L 890.350305 257.865165 
L 890.844916 252.853398 
L 891.339526 244.166152 
L 891.834137 246.976562 
L 892.328748 248.21429 
L 892.823358 250.311986 
L 893.317969 256.562269 
L 893.81258 255.12585 
L 895.296412 267.886371 
L 895.791023 260.023751 
L 896.285633 242.300949 
L 897.274855 225.231958 
L 897.769465 225.774644 
L 898.264076 220.209199 
L 898.758687 225.917584 
L 899.253297 204.701897 
L 899.747908 204.761587 
L 900.242519 204.697583 
L 900.737129 206.954314 
L 901.23174 201.465442 
L 902.220962 170.68487 
L 902.715572 174.319907 
L 903.704794 178.957065 
L 904.199404 187.351377 
L 904.694015 182.01565 
L 905.188626 200.764922 
L 905.683236 212.304598 
L 906.177847 235.777804 
L 906.672458 243.094211 
L 907.167069 256.359713 
L 908.15629 255.695863 
L 908.650901 264.049899 
L 909.145511 264.546417 
L 909.640122 273.619056 
L 910.134733 260.968663 
L 910.629343 256.900282 
L 911.123954 254.133633 
L 911.618565 256.631863 
L 912.113175 262.163542 
L 912.607786 263.577976 
L 913.102397 261.163784 
L 913.597008 257.359508 
L 914.586229 271.986432 
L 915.08084 273.936874 
L 915.57545 257.757302 
L 916.070061 250.607396 
L 916.564672 246.708876 
L 917.059282 253.294899 
L 917.553893 242.310478 
L 918.543114 210.858424 
L 919.532336 219.12983 
L 920.026947 201.907694 
L 920.521557 192.825805 
L 921.510779 205.721012 
L 922.005389 211.611993 
L 922.5 207.772375 
L 922.994611 210.411969 
L 923.489221 222.475872 
L 923.983832 230.858404 
L 924.478443 221.352421 
L 924.973053 224.44556 
L 925.467664 220.446907 
L 925.962275 229.46558 
L 926.456886 229.325003 
L 926.951496 224.796233 
L 927.446107 227.683215 
L 927.940718 242.957273 
L 928.435328 243.982954 
L 928.929939 258.750456 
L 929.42455 259.198898 
L 929.91916 268.900834 
L 930.413771 287.597093 
L 930.908382 279.740364 
L 931.402992 282.874734 
L 931.897603 281.450096 
L 932.392214 285.01445 
L 932.886825 285.262626 
L 933.876046 258.346021 
L 934.370657 272.624636 
L 934.865267 258.583204 
L 935.359878 264.297479 
L 935.854489 260.41663 
L 936.349099 266.183916 
L 937.338321 289.563667 
L 938.327542 283.616314 
L 938.822153 287.052039 
L 939.316764 284.680033 
L 939.811374 277.725457 
L 940.305985 285.985249 
L 940.800596 282.876969 
L 941.295206 275.52775 
L 941.789817 275.59922 
L 942.284428 265.286281 
L 942.779038 245.095488 
L 943.273649 249.384336 
L 943.76826 224.004283 
L 944.262871 216.306589 
L 944.757481 212.879284 
L 945.252092 202.065678 
L 946.241313 213.86531 
L 946.735924 197.514922 
L 947.230535 213.230745 
L 947.725145 209.096617 
L 948.219756 208.773444 
L 948.714367 211.884254 
L 949.208977 203.974513 
L 949.703588 212.993186 
L 950.198199 231.895603 
L 950.69281 223.155344 
L 951.18742 229.329054 
L 951.682031 223.033226 
L 952.176642 221.066689 
L 952.671252 223.317531 
L 953.165863 227.447344 
L 953.660474 218.153408 
L 954.155084 213.353688 
L 954.649695 206.298025 
L 955.144306 209.385274 
L 955.638916 211.624335 
L 956.133527 219.141009 
L 956.628138 211.131135 
L 957.122749 205.377204 
L 957.617359 208.635268 
L 958.11197 209.307538 
L 958.606581 205.950916 
L 959.101191 210.192643 
L 959.595802 204.862806 
L 960.090413 195.451066 
L 960.585023 192.100334 
L 961.079634 192.301388 
L 961.574245 189.080241 
L 962.068855 188.52146 
L 962.563466 175.475471 
L 963.058077 172.425139 
L 963.552688 182.056392 
L 964.047298 186.34524 
L 964.541909 179.99051 
L 965.03652 180.639219 
L 965.53113 177.624228 
L 966.025741 183.155907 
L 967.014962 177.037573 
L 967.509573 176.472902 
L 968.004184 181.556926 
L 968.498794 185.215524 
L 968.993405 202.951682 
L 969.488016 204.318995 
L 969.982627 208.984815 
L 970.477237 202.082297 
L 970.971848 203.938496 
L 971.466459 191.711243 
L 971.961069 192.171466 
L 972.45568 174.466334 
L 972.950291 179.862539 
L 973.444901 173.86122 
L 973.939512 179.186742 
L 974.434123 176.260104 
L 974.928734 189.301779 
L 975.423344 189.720771 
L 975.917955 188.319693 
L 976.412566 186.500411 
L 976.907176 191.266365 
L 977.401787 186.755265 
L 977.896398 183.475215 
L 978.391008 182.674937 
L 978.885619 172.839103 
L 979.38023 174.489145 
L 979.87484 170.066398 
L 980.369451 167.13976 
L 980.864062 171.163549 
L 981.358673 181.902159 
L 981.853283 185.908278 
L 982.347894 193.08921 
L 982.842505 194.739252 
L 983.337115 197.225702 
L 983.831726 202.256714 
L 984.326337 191.319414 
L 984.820947 188.875772 
L 985.315558 188.199187 
L 985.810169 190.720978 
L 986.304779 197.477817 
L 986.79939 192.884254 
L 987.294001 193.415159 
L 987.788612 196.113655 
L 988.283222 194.48286 
L 988.777833 190.925971 
L 989.272444 190.190485 
L 989.767054 192.140927 
L 990.261665 193.620153 
L 990.756276 184.43224 
L 991.250886 194.334442 
L 991.745497 194.494265 
L 992.240108 198.830235 
L 992.734718 198.854583 
L 993.229329 191.209901 
L 993.72394 193.943738 
L 994.218551 194.297938 
L 994.713161 197.738598 
L 995.207772 203.558897 
L 995.702383 205.102915 
L 996.196993 206.25229 
L 996.691604 205.446122 
L 997.186215 198.808662 
L 997.680825 209.647405 
L 998.175436 208.128523 
L 998.670047 202.150765 
L 999.164657 203.235348 
L 999.659268 209.202902 
L 1000.64849 227.882279 
L 1001.1431 224.731813 
L 1002.132322 256.057435 
L 1002.626932 258.826613 
L 1003.121543 258.856852 
L 1003.616154 253.038129 
L 1004.110764 258.387212 
L 1004.605375 268.960896 
L 1005.594597 255.232432 
L 1006.089207 259.79812 
L 1006.583818 253.673107 
L 1007.078429 259.493405 
L 1007.573039 258.227802 
L 1008.06765 263.188132 
L 1008.562261 265.103232 
L 1009.056871 268.909085 
L 1009.551482 267.466775 
L 1010.046093 279.501227 
L 1010.540703 284.502789 
L 1011.035314 287.908108 
L 1011.529925 288.810095 
L 1012.024536 282.372902 
L 1012.519146 277.967826 
L 1013.013757 270.358485 
L 1013.508368 258.502314 
L 1014.002978 252.477435 
L 1014.9922 230.808991 
L 1015.48681 221.485604 
L 1015.981421 215.00718 
L 1016.476032 216.504076 
L 1016.970642 217.064433 
L 1017.465253 222.348723 
L 1017.959864 223.904522 
L 1018.454475 217.149259 
L 1018.949085 216.172275 
L 1019.443696 216.40867 
L 1019.938307 220.167401 
L 1020.432917 220.939804 
L 1020.927528 207.929156 
L 1021.422139 204.955397 
L 1021.916749 198.276706 
L 1022.41136 211.583439 
L 1022.905971 230.368052 
L 1023.400581 229.650236 
L 1024.389803 238.339059 
L 1025.379024 253.920194 
L 1026.862856 261.637135 
L 1027.852078 223.105069 
L 1028.346688 230.768998 
L 1028.841299 224.325915 
L 1029.33591 222.71868 
L 1029.83052 228.385833 
L 1030.325131 231.826494 
L 1030.819742 256.012413 
L 1031.314353 252.084442 
L 1031.808963 231.534347 
L 1032.303574 227.506243 
L 1032.798185 230.675955 
L 1033.292795 221.823783 
L 1033.787406 226.601517 
L 1034.282017 224.634981 
L 1034.776627 228.417272 
L 1035.271238 229.696232 
L 1035.765849 235.080656 
L 1036.26046 235.134456 
L 1036.75507 233.18559 
L 1037.744292 230.164709 
L 1038.238902 221.512803 
L 1038.733513 224.959354 
L 1039.228124 227.062941 
L 1039.722734 223.14086 
L 1040.217345 211.490846 
L 1041.206566 198.698923 
L 1041.701177 200.643475 
L 1042.195788 200.455776 
L 1042.690399 211.718613 
L 1043.185009 208.697732 
L 1043.67962 212.798094 
L 1044.174231 230.622605 
L 1044.668841 241.143277 
L 1045.163452 243.099609 
L 1045.658063 242.635072 
L 1046.152673 240.750998 
L 1046.647284 245.946936 
L 1047.141895 245.747457 
L 1047.636505 242.756027 
L 1048.131116 250.343383 
L 1049.614948 239.14849 
L 1050.109559 245.245628 
L 1050.60417 254.393885 
L 1051.09878 247.514928 
L 1051.593391 244.977042 
L 1052.582612 261.158978 
L 1053.077223 268.599079 
L 1053.571834 260.960287 
L 1054.066444 258.281037 
L 1054.561055 266.645899 
L 1055.055666 252.940208 
L 1055.550277 249.942888 
L 1056.044887 250.538585 
L 1056.539498 238.870901 
L 1057.034109 240.797782 
L 1057.528719 245.964269 
L 1058.02333 243.703222 
L 1058.517941 265.06774 
L 1059.012551 266.040409 
L 1059.507162 267.719902 
L 1060.001773 277.256912 
L 1060.496383 280.261698 
L 1060.990994 275.338285 
L 1061.485605 274.149254 
L 1062.474826 250.254317 
L 1062.969437 250.561395 
L 1063.464048 248.606639 
L 1063.958658 244.413609 
L 1064.453269 251.464958 
L 1064.94788 254.581658 
L 1065.44249 256.431966 
L 1065.937101 270.416072 
L 1066.431712 259.520003 
L 1066.926323 243.846988 
L 1067.420933 248.200628 
L 1067.915544 234.017832 
L 1068.410155 229.324136 
L 1069.399376 186.268402 
L 1069.893987 183.624493 
L 1070.388597 187.913341 
L 1070.883208 180.969592 
L 1072.36704 170.569087 
L 1072.861651 195.850583 
L 1073.356262 205.629091 
L 1074.345483 240.671423 
L 1074.840094 246.915816 
L 1075.334704 276.697418 
L 1075.829315 292.09517 
L 1076.323926 294.946811 
L 1076.818536 307.8 
L 1077.313147 306.151534 
L 1077.807758 302.777241 
L 1078.302368 300.787144 
L 1079.29159 270.654493 
L 1079.786201 268.440568 
L 1080.280811 250.694205 
L 1080.775422 238.790913 
L 1081.270033 219.919523 
L 1081.764643 213.847522 
L 1082.259254 224.8453 
L 1082.753865 216.370101 
L 1083.248475 194.700869 
L 1083.743086 195.832574 
L 1084.732307 208.445053 
L 1085.226918 223.901706 
L 1085.721529 213.924508 
L 1086.21614 221.606107 
L 1086.71075 237.893278 
L 1087.205361 248.066429 
L 1087.699972 245.675798 
L 1088.194582 251.979092 
L 1088.689193 241.996003 
L 1089.678414 233.821991 
L 1090.173025 228.621739 
L 1091.162246 209.073765 
L 1091.656857 205.811386 
L 1092.151468 209.399301 
L 1092.646079 198.462001 
L 1093.140689 199.852874 
L 1093.6353 198.375224 
L 1094.129911 202.022041 
L 1094.624521 201.645856 
L 1095.119132 196.687102 
L 1095.613743 184.825041 
L 1096.602964 177.038994 
L 1097.097575 167.774509 
L 1097.592186 166.438223 
L 1098.086796 164.206628 
L 1098.581407 177.501581 
L 1099.570628 157.14665 
L 1100.065239 174.765005 
L 1100.55985 181.580745 
L 1101.05446 175.838595 
L 1101.549071 174.449298 
L 1102.043682 165.178922 
L 1102.538292 173.296396 
L 1103.032903 186.214376 
L 1103.527514 185.337525 
L 1104.022125 170.059153 
L 1104.516735 169.023267 
L 1105.011346 159.481942 
L 1105.505957 163.918045 
L 1106.989789 202.666097 
L 1107.484399 228.813451 
L 1107.97901 232.100967 
L 1108.473621 246.520946 
L 1108.968231 249.290125 
L 1109.462842 246.711008 
L 1110.946674 203.797427 
L 1111.441285 199.98726 
L 1111.935896 200.753773 
L 1112.925117 206.392263 
L 1113.419728 208.295583 
L 1113.914338 201.522649 
L 1114.90356 221.633343 
L 1115.39817 212.015446 
L 1115.892781 193.55637 
L 1116.387392 183.673414 
L 1116.882003 182.678759 
L 1117.376613 195.196207 
L 1117.871224 188.01096 
L 1118.365835 188.895276 
L 1119.355056 208.528865 
L 1119.849667 210.226028 
L 1120.344277 206.451202 
L 1120.838888 208.389864 
L 1121.333499 215.617918 
L 1121.828109 207.066146 
L 1122.32272 201.265094 
L 1122.817331 199.964149 
L 1123.311942 200.159313 
L 1123.806552 209.331131 
L 1124.301163 207.564861 
L 1124.795774 208.832041 
L 1125.290384 212.007642 
L 1125.784995 217.333165 
L 1126.279606 229.196801 
L 1127.268827 208.953784 
L 1127.763438 198.552491 
L 1128.258049 190.595628 
L 1128.752659 186.202332 
L 1129.24727 175.553652 
L 1129.741881 161.070455 
L 1130.236491 172.021112 
L 1130.731102 174.160039 
L 1131.225713 181.659043 
L 1131.720323 179.215401 
L 1132.214934 179.451796 
L 1132.709545 186.503145 
L 1133.204155 197.359558 
L 1133.698766 199.875458 
L 1134.193377 195.682429 
L 1134.687988 182.118103 
L 1135.182598 197.939948 
L 1135.677209 198.612218 
L 1136.17182 198.459861 
L 1136.66643 187.587353 
L 1137.161041 180.378545 
L 1137.655652 181.810649 
L 1138.150262 182.371006 
L 1138.644873 163.470165 
L 1139.139484 168.359813 
L 1139.634094 159.230801 
L 1140.128705 156.533881 
L 1141.117927 166.354408 
L 1141.612537 175.856077 
L 1142.107148 190.393861 
L 1142.601759 190.624366 
L 1143.096369 196.220837 
L 1143.59098 195.738629 
L 1144.085591 186.992481 
L 1144.580201 175.342467 
L 1145.074812 175.019294 
L 1145.569423 166.249585 
L 1146.064033 161.820948 
L 1147.053255 171.559012 
L 1148.042476 199.668588 
L 1148.537087 198.856529 
L 1149.031698 196.872322 
L 1149.526308 197.921564 
L 1150.020919 196.114063 
L 1150.51553 196.792223 
L 1151.01014 196.928485 
L 1151.504751 197.765681 
L 1151.999362 201.642215 
L 1152.493972 201.53109 
L 1152.988583 202.868951 
L 1153.483194 197.162142 
L 1153.977805 194.824523 
L 1154.472415 189.524138 
L 1154.967026 187.345554 
L 1155.956247 201.860565 
L 1156.450858 201.101518 
L 1156.945469 206.951267 
L 1157.440079 210.321245 
L 1157.93469 211.517742 
L 1158.429301 213.909949 
L 1158.923912 212.449969 
L 1159.418522 203.214934 
L 1159.913133 205.648372 
L 1160.407744 211.256623 
L 1160.902354 212.376547 
L 1161.891576 231.185509 
L 1162.386186 224.606951 
L 1162.880797 224.578288 
L 1163.375408 208.746238 
L 1163.870018 197.108005 
L 1164.364629 199.299944 
L 1165.353851 158.718091 
L 1165.848461 146.343584 
L 1166.343072 154.714336 
L 1166.837683 171.360809 
L 1167.332293 176.120872 
L 1167.826904 170.396393 
L 1170.299957 231.010416 
L 1171.289179 238.386513 
L 1171.78379 236.767498 
L 1172.2784 237.039235 
L 1172.773011 236.545246 
L 1173.267622 229.978469 
L 1173.762232 226.327337 
L 1174.256843 243.87501 
L 1174.751454 249.430249 
L 1175.246064 250.585515 
L 1175.740675 247.658877 
L 1176.235286 237.764141 
L 1176.729896 238.183133 
L 1177.224507 234.985546 
L 1177.719118 220.808639 
L 1178.213729 220.432455 
L 1178.708339 227.218745 
L 1179.20295 232.379342 
L 1179.697561 247.541486 
L 1180.192171 249.197418 
L 1180.686782 243.178429 
L 1181.181393 242.902377 
L 1181.676003 247.650661 
L 1182.170614 244.682791 
L 1182.665225 245.732033 
L 1183.159835 247.747267 
L 1183.654446 243.92532 
L 1184.149057 250.028348 
L 1184.643668 253.021353 
L 1185.632889 229.020393 
L 1186.1275 228.013958 
L 1186.62211 223.26136 
L 1187.116721 221.713028 
L 1187.611332 226.361178 
L 1188.105942 218.751836 
L 1189.095164 223.654052 
L 1189.589775 228.820539 
L 1190.084385 228.838998 
L 1190.578996 230.524381 
L 1191.073607 220.376366 
L 1191.568217 228.546852 
L 1192.062828 226.586205 
L 1192.557439 232.830597 
L 1193.052049 234.48653 
L 1193.54666 225.799283 
L 1194.041271 221.217501 
L 1194.535881 215.428229 
L 1195.030492 201.333785 
L 1195.525103 205.917143 
L 1196.514324 184.684574 
L 1197.008935 183.913746 
L 1197.503546 181.152034 
L 1197.998156 185.352529 
L 1198.492767 205.28573 
L 1198.987378 205.404321 
L 1199.481988 211.430776 
L 1199.976599 212.103046 
L 1200.47121 208.63451 
L 1200.96582 223.372561 
L 1201.460431 230.1294 
L 1201.955042 215.127866 
L 1202.449653 208.985183 
L 1202.944263 200.044658 
L 1203.438874 197.188703 
L 1203.933485 204.057455 
L 1205.417317 170.420928 
L 1205.911927 174.756897 
L 1206.406538 188.240337 
L 1206.901149 189.165885 
L 1207.395759 183.912621 
L 1207.89037 181.910743 
L 1208.384981 189.22126 
L 1208.879592 199.335509 
L 1209.374202 190.412655 
L 1209.868813 174.003365 
L 1210.363424 171.318225 
L 1210.858034 177.751104 
L 1211.352645 180.325906 
L 1211.847256 183.625202 
L 1212.341866 179.67367 
L 1212.836477 182.006974 
L 1213.331088 186.431297 
L 1213.825698 200.698132 
L 1214.81492 211.425749 
L 1215.309531 210.136584 
L 1215.804141 215.662373 
L 1216.298752 224.415987 
L 1216.793363 226.955448 
L 1217.782584 196.716774 
L 1218.277195 186.598211 
L 1218.771805 188.154009 
L 1219.266416 187.807276 
L 1219.761027 189.763608 
L 1220.255637 196.797286 
L 1221.244859 206.52946 
L 1222.23408 228.165714 
L 1222.728691 232.09526 
L 1223.717912 246.863549 
L 1224.212523 250.162845 
L 1224.707134 246.270216 
L 1225.201744 246.812901 
L 1225.696355 231.770137 
L 1226.190966 224.496536 
L 1226.685577 205.984448 
L 1227.180187 198.45757 
L 1228.169409 206.475698 
L 1228.664019 192.387144 
L 1229.15863 187.14566 
L 1229.653241 196.629659 
L 1230.147851 197.466854 
L 1230.642462 197.856395 
L 1231.137073 176.304967 
L 1231.631683 186.466337 
L 1232.126294 191.19695 
L 1232.620905 199.991796 
L 1233.115516 191.104283 
L 1233.610126 206.284097 
L 1234.104737 206.826783 
L 1234.599348 217.388687 
L 1235.093958 212.748002 
L 1235.588569 211.146658 
L 1236.08318 212.790809 
L 1236.57779 221.261695 
L 1237.072401 209.111015 
L 1237.567012 212.045119 
L 1238.556233 222.336861 
L 1239.050844 221.660277 
L 1239.545455 214.657625 
L 1240.040065 214.358013 
L 1240.534676 225.208536 
L 1241.029287 224.420038 
L 1241.523897 227.053742 
L 1242.018508 220.863938 
L 1242.513119 232.215127 
L 1243.007729 236.492195 
L 1244.986172 206.331669 
L 1245.480783 207.263107 
L 1245.975394 208.736443 
L 1246.470004 207.264683 
L 1246.964615 206.735353 
L 1247.459226 194.042776 
L 1247.953836 185.432101 
L 1248.448447 174.630276 
L 1248.943058 179.667178 
L 1249.437668 172.14619 
L 1249.932279 168.312462 
L 1250.42689 180.611973 
L 1250.9215 196.46916 
L 1251.416111 218.711316 
L 1251.910722 232.029829 
L 1252.405333 230.446155 
L 1253.394554 223.915507 
L 1253.889165 210.533777 
L 1254.383775 206.41732 
L 1254.878386 184.253312 
L 1255.372997 178.75266 
L 1255.867607 185.727436 
L 1256.362218 182.476838 
L 1256.856829 176.722907 
L 1257.35144 177.5012 
L 1257.84605 176.076562 
L 1258.835272 201.182139 
L 1259.329882 186.00979 
L 1259.824493 186.358099 
L 1260.319104 201.361208 
L 1260.813714 204.890222 
L 1261.802936 224.83599 
L 1262.297546 219.936138 
L 1262.792157 225.726985 
L 1263.286768 223.937154 
L 1263.781379 226.435384 
L 1264.275989 226.424391 
L 1265.265211 209.373859 
L 1265.759821 211.347861 
L 1266.254432 208.462455 
L 1266.749043 226.010127 
L 1267.243653 229.439007 
L 1268.232875 218.4791 
L 1269.222096 224.331545 
L 1269.716707 208.129367 
L 1270.211318 217.090092 
L 1270.705928 209.322669 
L 1271.200539 204.883206 
L 1271.69515 218.661155 
L 1272.18976 215.763968 
L 1272.684371 209.868672 
L 1273.178982 219.382122 
L 1273.673592 218.010495 
L 1274.168203 225.915921 
L 1274.662814 217.216894 
L 1275.157424 228.179331 
L 1275.652035 228.474628 
L 1276.146646 236.350604 
L 1276.641257 227.474871 
L 1277.135867 232.158362 
L 1277.630478 219.241957 
L 1278.125089 230.039469 
L 1278.619699 214.778767 
L 1279.11431 203.005059 
L 1279.608921 183.815599 
L 1280.103531 200.750691 
L 1280.598142 188.906301 
L 1281.092753 193.666365 
L 1281.587363 174.276638 
L 1282.081974 178.206184 
L 1282.576585 194.192956 
L 1283.071196 200.301873 
L 1283.565806 201.056606 
L 1284.060417 213.102838 
L 1285.544249 232.548728 
L 1286.03886 229.840027 
L 1286.53347 240.36659 
L 1287.522692 223.787273 
L 1288.017303 223.15192 
L 1288.511913 225.797404 
L 1289.006524 230.463225 
L 1289.501135 223.643169 
L 1289.995745 211.869462 
L 1290.490356 209.095969 
L 1290.984967 198.788919 
L 1291.479577 194.519317 
L 1293.45802 185.137028 
L 1293.952631 176.066919 
L 1294.941852 196.288738 
L 1295.436463 213.471219 
L 1296.920295 217.25351 
L 1297.414906 238.918427 
L 1297.909516 233.959673 
L 1298.898738 247.831865 
L 1300.38257 242.54915 
L 1301.371791 219.548735 
L 1301.866402 217.882598 
L 1302.361013 208.300042 
L 1302.855623 191.107357 
L 1303.350234 183.92211 
L 1303.844845 183.251415 
L 1304.339455 183.046047 
L 1304.834066 178.122633 
L 1305.328677 165.094314 
L 1305.823287 170.926393 
L 1306.317898 168.588774 
L 1306.812509 176.323386 
L 1307.30712 186.861728 
L 1307.80173 178.999109 
L 1308.296341 189.18404 
L 1308.790952 196.052793 
L 1309.780173 204.377211 
L 1310.274784 197.910567 
L 1310.769394 178.167428 
L 1311.264005 173.491403 
L 1311.758616 163.938298 
L 1312.253226 163.956757 
L 1312.747837 158.968551 
L 1313.242448 147.336208 
L 1313.737059 146.023483 
L 1314.231669 141.877575 
L 1314.72628 151.155417 
L 1315.220891 153.088188 
L 1315.715501 141.974182 
L 1316.210112 134.329499 
L 1316.704723 140.426637 
L 1317.199333 132.269508 
L 1317.693944 138.007343 
L 1318.188555 126.98758 
L 1318.683166 128.384344 
L 1319.177776 139.146514 
L 1319.672387 145.320224 
L 1320.166998 146.116188 
L 1320.661608 154.763779 
L 1321.156219 159.989168 
L 1321.65083 177.342463 
L 1322.14544 177.767345 
L 1322.640051 166.99497 
L 1323.134662 167.802715 
L 1323.629272 169.170027 
L 1324.123883 177.352293 
L 1324.618494 179.891754 
L 1325.113105 176.48212 
L 1325.607715 182.084481 
L 1326.102326 181.725967 
L 1326.596937 184.406793 
L 1327.091547 190.250652 
L 1327.586158 176.067856 
L 1328.080769 167.645668 
L 1328.575379 156.920414 
L 1329.06999 154.671149 
L 1329.564601 163.901869 
L 1330.059211 161.57603 
L 1330.553822 150.791875 
L 1331.048433 159.716305 
L 1331.543044 156.960483 
L 1332.037654 161.803009 
L 1332.532265 156.496733 
L 1333.026876 156.792031 
L 1333.521486 151.138233 
L 1334.510708 159.903628 
L 1335.005318 173.528432 
L 1335.499929 177.840841 
L 1335.99454 179.355408 
L 1336.48915 175.103477 
L 1336.983761 164.837659 
L 1337.478372 167.194524 
L 1337.972983 165.121964 
L 1338.467593 148.88349 
L 1338.962204 142.140007 
L 1339.456815 137.004547 
L 1339.951425 145.239824 
L 1340.446036 140.063132 
L 1340.940647 133.148834 
L 1341.435257 118.960147 
L 1341.929868 113.848248 
L 1342.424479 119.756899 
L 1342.919089 122.249238 
L 1343.4137 122.226465 
L 1343.908311 139.397165 
L 1344.402922 137.212692 
L 1344.897532 148.387175 
L 1345.392143 151.138683 
L 1345.886754 144.130141 
L 1346.381364 138.912218 
L 1346.875975 136.433235 
L 1347.370586 136.610729 
L 1347.865196 155.466024 
L 1348.359807 154.471369 
L 1348.854418 157.287669 
L 1349.349029 162.619081 
L 1349.843639 176.214434 
L 1350.33825 183.401257 
L 1350.832861 184.185441 
L 1351.327471 178.826153 
L 1351.822082 185.553541 
L 1352.811303 210.564876 
L 1353.305914 211.908628 
L 1353.800525 212.298168 
L 1354.295135 219.302395 
L 1354.789746 232.721042 
L 1355.284357 242.446539 
L 1356.273578 255.75406 
L 1356.768189 257.604368 
L 1357.2628 263.047694 
L 1357.75741 257.081717 
L 1358.252021 259.144072 
L 1358.746632 262.119407 
L 1359.241242 251.423605 
L 1359.735853 252.219569 
L 1360.230464 254.782591 
L 1360.725074 250.295052 
L 1361.714296 263.590005 
L 1362.208907 264.297616 
L 1362.703517 265.971218 
L 1363.198128 275.372754 
L 1363.692739 265.501578 
L 1364.187349 266.162068 
L 1364.68196 264.719758 
L 1365.176571 254.772011 
L 1366.660403 206.480683 
L 1367.155013 215.799756 
L 1367.649624 218.262645 
L 1368.144235 218.516711 
L 1368.638846 205.246894 
L 1369.628067 221.558414 
L 1370.122678 225.723568 
L 1371.60651 199.443891 
L 1372.10112 202.042254 
L 1373.090342 182.081966 
L 1374.079563 174.013978 
L 1374.574174 162.705595 
L 1375.068785 166.540899 
L 1376.058006 181.862866 
L 1376.552617 176.833429 
L 1377.047227 175.532484 
L 1377.541838 170.756326 
L 1378.036449 174.026171 
L 1378.531059 183.84591 
L 1379.02567 186.874257 
L 1379.520281 185.555641 
L 1380.014892 191.405391 
L 1380.509502 201.448957 
L 1381.004113 203.782262 
L 1381.498724 217.218579 
L 1381.993334 214.380294 
L 1382.487945 218.415864 
L 1382.982556 218.905538 
L 1383.477166 225.420879 
L 1383.971777 223.095041 
L 1384.466388 222.241751 
L 1384.960998 204.012392 
L 1385.455609 191.337485 
L 1386.444831 156.734177 
L 1386.939441 141.037601 
L 1387.434052 140.737989 
L 1387.928663 145.963378 
L 1388.423273 147.966832 
L 1388.917884 155.642541 
L 1389.412495 168.5134 
L 1389.907105 192.475492 
L 1390.401716 203.649976 
L 1390.896327 201.341808 
L 1391.390937 193.944514 
L 1391.885548 198.021315 
L 1392.380159 194.452646 
L 1392.87477 188.115586 
L 1393.36938 173.9269 
L 1393.863991 172.313775 
L 1394.358602 178.9587 
L 1394.853212 189.991819 
L 1395.347823 192.778668 
L 1395.842434 202.091851 
L 1396.337044 202.057297 
L 1396.831655 188.16312 
L 1397.326266 189.889735 
L 1397.820876 187.652249 
L 1398.315487 181.073692 
L 1398.810098 171.91523 
L 1399.304709 167.786993 
L 1399.799319 165.573068 
L 1400.29393 179.309785 
L 1401.283151 172.107655 
L 1401.777762 179.376941 
L 1402.272373 189.644335 
L 1402.766983 192.283929 
L 1403.261594 196.03088 
L 1403.756205 192.638916 
L 1404.250815 193.505563 
L 1404.745426 194.925887 
L 1405.240037 180.966918 
L 1405.734648 182.546277 
L 1406.229258 176.380033 
L 1406.723869 179.40838 
L 1407.21848 188.692112 
L 1407.71309 193.045752 
L 1408.207701 195.862052 
L 1408.702312 216.348931 
L 1409.196922 210.836498 
L 1409.691533 213.982649 
L 1410.186144 219.832398 
L 1410.680755 219.503335 
L 1411.175365 219.492343 
L 1411.669976 222.785748 
L 1412.164587 207.31889 
L 1412.659197 217.421358 
L 1413.153808 216.568068 
L 1413.648419 212.899266 
L 1414.143029 203.734914 
L 1414.63764 204.177466 
L 1415.132251 189.888646 
L 1415.626861 189.895324 
L 1416.121472 184.424123 
L 1416.616083 195.527924 
L 1417.110694 188.495822 
L 1417.605304 193.061509 
L 1418.099915 186.700889 
L 1418.594526 192.962952 
L 1419.089136 201.327813 
L 1419.583747 204.933399 
L 1420.078358 195.751376 
L 1420.572968 204.717038 
L 1421.067579 207.338961 
L 1421.56219 213.512671 
L 1422.0568 216.346642 
L 1423.046022 206.705972 
L 1423.540633 215.294661 
L 1424.035243 204.510506 
L 1425.024465 214.943613 
L 1425.519075 208.730247 
L 1426.013686 207.494095 
L 1426.508297 217.313834 
L 1427.002907 211.989887 
L 1427.497518 230.497661 
L 1427.992129 231.222943 
L 1428.486739 224.131938 
L 1428.98135 232.443788 
L 1429.475961 234.824214 
L 1429.970572 222.090405 
L 1430.465182 219.87648 
L 1430.959793 196.010207 
L 1431.454404 182.180822 
L 1431.949014 181.781077 
L 1432.443625 165.330556 
L 1432.938236 154.393256 
L 1433.432846 148.138659 
L 1433.927457 139.893177 
L 1434.422068 148.405293 
L 1434.916678 164.751366 
L 1435.411289 163.562335 
L 1435.9059 167.915975 
L 1436.400511 170.850079 
L 1436.895121 171.634263 
L 1437.389732 172.159278 
L 1437.884343 174.374778 
L 1438.378953 148.24078 
L 1438.873564 152.470727 
L 1439.368175 144.820154 
L 1439.862785 135.314171 
L 1440.357396 135.638919 
L 1440.852007 143.67982 
L 1441.346618 140.452782 
L 1441.841228 152.716952 
L 1442.335839 142.180184 
L 1443.32506 162.290878 
L 1443.819671 164.653634 
L 1444.314282 156.720332 
L 1444.808892 159.000624 
L 1445.303503 165.828146 
L 1445.798114 170.340821 
L 1446.292724 182.310481 
L 1446.787335 191.164228 
L 1447.281946 188.83839 
L 1447.776557 191.136353 
L 1448.271167 189.711714 
L 1448.765778 184.641046 
L 1449.260389 185.260304 
L 1449.754999 178.510931 
L 1450.24961 169.617528 
L 1451.238831 189.416042 
L 1451.733442 193.380929 
L 1452.228053 205.056079 
L 1452.722663 202.647778 
L 1453.217274 205.729137 
L 1454.206496 205.748383 
L 1454.701106 212.693708 
L 1455.195717 209.519682 
L 1455.690328 203.541924 
L 1456.184938 207.165181 
L 1456.679549 204.309225 
L 1457.17416 219.618624 
L 1457.66877 221.374689 
L 1458.163381 224.656315 
L 1458.657992 223.113872 
L 1459.152602 222.325374 
L 1460.141824 211.542007 
L 1460.636435 208.97467 
L 1461.131045 200.128389 
L 1461.625656 206.378671 
L 1462.120267 227.79031 
L 1463.109488 247.859772 
L 1463.604099 245.934467 
L 1464.098709 239.202765 
L 1464.59332 246.955046 
L 1465.582541 202.980442 
L 1466.077152 194.776192 
L 1466.571763 192.214746 
L 1467.066374 198.865561 
L 1467.560984 202.689084 
L 1468.055595 204.727879 
L 1468.550206 218.040502 
L 1469.539427 227.088626 
L 1470.034038 228.420598 
L 1470.528648 225.105207 
L 1471.51787 213.862405 
L 1472.01248 213.604024 
L 1472.507091 186.751423 
L 1473.001702 183.176863 
L 1473.496313 165.766241 
L 1473.990923 174.107542 
L 1474.485534 171.999641 
L 1474.980145 175.033878 
L 1475.474755 173.090902 
L 1475.969366 187.463761 
L 1476.463977 190.680594 
L 1476.958587 201.360301 
L 1477.453198 202.30352 
L 1477.947809 213.654709 
L 1478.44242 212.288973 
L 1478.93703 216.683844 
L 1479.431641 210.876902 
L 1479.926252 188.783576 
L 1481.410084 165.460776 
L 1481.904694 168.288857 
L 1482.399305 161.268535 
L 1482.893916 168.850001 
L 1483.388526 181.968248 
L 1483.883137 184.101286 
L 1484.377748 178.388587 
L 1484.872359 179.219892 
L 1485.366969 180.587204 
L 1485.86158 180.5232 
L 1486.356191 168.331289 
L 1486.850801 164.674267 
L 1487.345412 166.559916 
L 1487.840023 164.988023 
L 1488.334633 161.961251 
L 1488.829244 145.746338 
L 1489.323855 139.591875 
L 1489.818465 141.365611 
L 1490.313076 148.12834 
L 1490.807687 156.475531 
L 1491.302298 173.345831 
L 1491.796908 185.716024 
L 1492.291519 207.693121 
L 1492.78613 222.596097 
L 1493.28074 243.100646 
L 1493.775351 245.810922 
L 1494.269962 244.121225 
L 1494.764572 246.955195 
L 1496.248404 228.880557 
L 1496.743015 216.182089 
L 1497.237626 208.290019 
L 1497.732237 204.862714 
L 1498.721458 192.901308 
L 1499.216069 174.177173 
L 1499.710679 165.254319 
L 1500.20529 160.413368 
L 1500.699901 160.331693 
L 1501.194511 166.263905 
L 1501.689122 167.09521 
L 1502.183733 169.540428 
L 1502.678343 181.951852 
L 1503.667565 216.905832 
L 1504.656786 234.866606 
L 1505.151397 232.523097 
L 1505.646008 225.520446 
L 1506.140618 233.685041 
L 1506.635229 222.518023 
L 1507.62445 205.520502 
L 1508.119061 190.507189 
L 1508.613672 184.606003 
L 1509.108283 208.956848 
L 1509.602893 200.970535 
L 1510.097504 198.562234 
L 1510.592115 198.327414 
L 1511.581336 196.82699 
L 1512.075947 203.542598 
L 1512.570557 188.741331 
L 1513.065168 195.162429 
L 1513.559779 194.562417 
L 1514.054389 192.972853 
L 1514.549 194.357836 
L 1515.043611 190.141246 
L 1515.538222 191.791288 
L 1516.032832 197.935547 
L 1516.527443 195.120823 
L 1517.022054 200.122384 
L 1517.516664 194.645293 
L 1518.011275 184.367694 
L 1518.505886 195.200546 
L 1519.000496 191.973509 
L 1519.495107 180.358836 
L 1519.989718 177.326175 
L 1520.484328 167.419658 
L 1520.978939 172.521353 
L 1521.47355 184.449781 
L 1521.968161 184.427008 
L 1522.462771 181.541602 
L 1522.957382 171.099078 
L 1523.451993 172.625426 
L 1523.946603 180.189221 
L 1524.441214 176.284811 
L 1524.935825 166.166248 
L 1525.430435 160.217941 
L 1525.925046 168.129257 
L 1526.419657 167.66472 
L 1527.408878 131.44161 
L 1530.376542 112.743898 
L 1530.871153 101.744667 
L 1532.354985 84.315254 
L 1533.344206 61.014273 
L 1556.590909 55.8 
L 1556.590909 55.8 
" clip-path="url(#p56d2ee9071)" style="fill: none; stroke: #39a7d4; stroke-width: 2.5; stroke-linecap: square"/>
   </g>
   <g id="patch_3">
    <path d="M 225 320.4 
L 225 43.2 
" style="fill: none; stroke: #000000; stroke-width: 0.8; stroke-linejoin: miter; stroke-linecap: square"/>
   </g>
   <g id="patch_4">
    <path d="M 1620 320.4 
L 1620 43.2 
" style="fill: none; stroke: #000000; stroke-width: 0.8; stroke-linejoin: miter; stroke-linecap: square"/>
   </g>
   <g id="patch_5">
    <path d="M 225 320.4 
L 1620 320.4 
" style="fill: none; stroke: #000000; stroke-width: 0.8; stroke-linejoin: miter; stroke-linecap: square"/>
   </g>
   <g id="patch_6">
    <path d="M 225 43.2 
L 1620 43.2 
" style="fill: none; stroke: #000000; stroke-width: 0.8; stroke-linejoin: miter; stroke-linecap: square"/>
   </g>
   <g id="text_17">
    <!-- PADO -->
    <g transform="translate(894.695312 37.2) scale(0.2 -0.2)">
     <defs>
      <path id="DejaVuSans-50" d="M 1259 4147 
L 1259 2394 
L 2053 2394 
Q 2494 2394 2734 2622 
Q 2975 2850 2975 3272 
Q 2975 3691 2734 3919 
Q 2494 4147 2053 4147 
L 1259 4147 
z
M 628 4666 
L 2053 4666 
Q 2838 4666 3239 4311 
Q 3641 3956 3641 3272 
Q 3641 2581 3239 2228 
Q 2838 1875 2053 1875 
L 1259 1875 
L 1259 0 
L 628 0 
L 628 4666 
z
" transform="scale(0.015625)"/>
      <path id="DejaVuSans-41" d="M 2188 4044 
L 1331 1722 
L 3047 1722 
L 2188 4044 
z
M 1831 4666 
L 2547 4666 
L 4325 0 
L 3669 0 
L 3244 1197 
L 1141 1197 
L 716 0 
L 50 0 
L 1831 4666 
z
" transform="scale(0.015625)"/>
      <path id="DejaVuSans-44" d="M 1259 4147 
L 1259 519 
L 2022 519 
Q 2988 519 3436 956 
Q 3884 1394 3884 2338 
Q 3884 3275 3436 3711 
Q 2988 4147 2022 4147 
L 1259 4147 
z
M 628 4666 
L 1925 4666 
Q 3281 4666 3915 4102 
Q 4550 3538 4550 2338 
Q 4550 1131 3912 565 
Q 3275 0 1925 0 
L 628 0 
L 628 4666 
z
" transform="scale(0.015625)"/>
      <path id="DejaVuSans-4f" d="M 2522 4238 
Q 1834 4238 1429 3725 
Q 1025 3213 1025 2328 
Q 1025 1447 1429 934 
Q 1834 422 2522 422 
Q 3209 422 3611 934 
Q 4013 1447 4013 2328 
Q 4013 3213 3611 3725 
Q 3209 4238 2522 4238 
z
M 2522 4750 
Q 3503 4750 4090 4092 
Q 4678 3434 4678 2328 
Q 4678 1225 4090 567 
Q 3503 -91 2522 -91 
Q 1538 -91 948 565 
Q 359 1222 359 2328 
Q 359 3434 948 4092 
Q 1538 4750 2522 4750 
z
" transform="scale(0.015625)"/>
     </defs>
     <use xlink:href="#DejaVuSans-50"/>
     <use xlink:href="#DejaVuSans-41" x="53.927734"/>
     <use xlink:href="#DejaVuSans-44" x="122.335938"/>
     <use xlink:href="#DejaVuSans-4f" x="199.337891"/>
    </g>
   </g>
   <g id="legend_1">
    <g id="patch_7">
     <path d="M 232 65.878125 
L 288.94375 65.878125 
Q 290.94375 65.878125 290.94375 63.878125 
L 290.94375 50.2 
Q 290.94375 48.2 288.94375 48.2 
L 232 48.2 
Q 230 48.2 230 50.2 
L 230 63.878125 
Q 230 65.878125 232 65.878125 
z
" style="fill: #ffffff; opacity: 0.8; stroke: #cccccc; stroke-linejoin: miter"/>
    </g>
    <g id="line2d_16">
     <path d="M 234 56.298437 
L 244 56.298437 
L 254 56.298437 
" style="fill: none; stroke: #39a7d4; stroke-width: 2.5; stroke-linecap: square"/>
    </g>
    <g id="text_18">
     <!-- pado -->
     <g transform="translate(262 59.798437) scale(0.1 -0.1)">
      <defs>
       <path id="DejaVuSans-70" d="M 1159 525 
L 1159 -1331 
L 581 -1331 
L 581 3500 
L 1159 3500 
L 1159 2969 
Q 1341 3281 1617 3432 
Q 1894 3584 2278 3584 
Q 2916 3584 3314 3078 
Q 3713 2572 3713 1747 
Q 3713 922 3314 415 
Q 2916 -91 2278 -91 
Q 1894 -91 1617 61 
Q 1341 213 1159 525 
z
M 3116 1747 
Q 3116 2381 2855 2742 
Q 2594 3103 2138 3103 
Q 1681 3103 1420 2742 
Q 1159 2381 1159 1747 
Q 1159 1113 1420 752 
Q 1681 391 2138 391 
Q 2594 391 2855 752 
Q 3116 1113 3116 1747 
z
" transform="scale(0.015625)"/>
       <path id="DejaVuSans-64" d="M 2906 2969 
L 2906 4863 
L 3481 4863 
L 3481 0 
L 2906 0 
L 2906 525 
Q 2725 213 2448 61 
Q 2172 -91 1784 -91 
Q 1150 -91 751 415 
Q 353 922 353 1747 
Q 353 2572 751 3078 
Q 1150 3584 1784 3584 
Q 2172 3584 2448 3432 
Q 2725 3281 2906 2969 
z
M 947 1747 
Q 947 1113 1208 752 
Q 1469 391 1925 391 
Q 2381 391 2643 752 
Q 2906 1113 2906 1747 
Q 2906 2381 2643 2742 
Q 2381 3103 1925 3103 
Q 1469 3103 1208 2742 
Q 947 2381 947 1747 
z
" transform="scale(0.015625)"/>
       <path id="DejaVuSans-6f" d="M 1959 3097 
Q 1497 3097 1228 2736 
Q 959 2375 959 1747 
Q 959 1119 1226 758 
Q 1494 397 1959 397 
Q 2419 397 2687 759 
Q 2956 1122 2956 1747 
Q 2956 2369 2687 2733 
Q 2419 3097 1959 3097 
z
M 1959 3584 
Q 2709 3584 3137 3096 
Q 3566 2609 3566 1747 
Q 3566 888 3137 398 
Q 2709 -91 1959 -91 
Q 1206 -91 779 398 
Q 353 888 353 1747 
Q 353 2609 779 3096 
Q 1206 3584 1959 3584 
z
" transform="scale(0.015625)"/>
      </defs>
      <use xlink:href="#DejaVuSans-70"/>
      <use xlink:href="#DejaVuSans-61" x="63.476562"/>
      <use xlink:href="#DejaVuSans-64" x="124.755859"/>
      <use xlink:href="#DejaVuSans-6f" x="188.232422"/>
     </g>
    </g>
   </g>
  </g>
 </g>
 <defs>
  <clipPath id="p56d2ee9071">
   <rect x="225" y="43.2" width="1395" height="277.2"/>
  </clipPath>
 </defs>
</svg>
