<?xml version="1.0" encoding="utf-8" standalone="no"?>
<!DOCTYPE svg PUBLIC "-//W3C//DTD SVG 1.1//EN"
  "http://www.w3.org/Graphics/SVG/1.1/DTD/svg11.dtd">
<svg xmlns:xlink="http://www.w3.org/1999/xlink" width="1800pt" height="360pt" viewBox="0 0 1800 360" xmlns="http://www.w3.org/2000/svg" version="1.1">
 <metadata>
  <rdf:RDF xmlns:dc="http://purl.org/dc/elements/1.1/" xmlns:cc="http://creativecommons.org/ns#" xmlns:rdf="http://www.w3.org/1999/02/22-rdf-syntax-ns#">
   <cc:Work>
    <dc:type rdf:resource="http://purl.org/dc/dcmitype/StillImage"/>
    <dc:date>2024-03-18T16:04:05.931198</dc:date>
    <dc:format>image/svg+xml</dc:format>
    <dc:creator>
     <cc:Agent>
      <dc:title>Matplotlib v3.7.2, https://matplotlib.org/</dc:title>
     </cc:Agent>
    </dc:creator>
   </cc:Work>
  </rdf:RDF>
 </metadata>
 <defs>
  <style type="text/css">*{stroke-linejoin: round; stroke-linecap: butt}</style>
 </defs>
 <g id="figure_1">
  <g id="patch_1">
   <path d="M 0 360 
L 1800 360 
L 1800 0 
L 0 0 
z
" style="fill: #ffffff"/>
  </g>
  <g id="axes_1">
   <g id="patch_2">
    <path d="M 225 320.4 
L 1620 320.4 
L 1620 43.2 
L 225 43.2 
z
" style="fill: #ffffff"/>
   </g>
   <g id="matplotlib.axis_1">
    <g id="xtick_1">
     <g id="line2d_1">
      <defs>
       <path id="mbaf5c5c68d" d="M 0 0 
L 0 3.5 
" style="stroke: #000000; stroke-width: 0.8"/>
      </defs>
      <g>
       <use xlink:href="#mbaf5c5c68d" x="281.924597" y="320.4" style="stroke: #000000; stroke-width: 0.8"/>
      </g>
     </g>
     <g id="text_1">
      <!-- 2011 -->
      <g transform="translate(262.837097 338.797656) scale(0.15 -0.15)">
       <defs>
        <path id="DejaVuSans-32" d="M 1228 531 
L 3431 531 
L 3431 0 
L 469 0 
L 469 531 
Q 828 903 1448 1529 
Q 2069 2156 2228 2338 
Q 2531 2678 2651 2914 
Q 2772 3150 2772 3378 
Q 2772 3750 2511 3984 
Q 2250 4219 1831 4219 
Q 1534 4219 1204 4116 
Q 875 4013 500 3803 
L 500 4441 
Q 881 4594 1212 4672 
Q 1544 4750 1819 4750 
Q 2544 4750 2975 4387 
Q 3406 4025 3406 3419 
Q 3406 3131 3298 2873 
Q 3191 2616 2906 2266 
Q 2828 2175 2409 1742 
Q 1991 1309 1228 531 
z
" transform="scale(0.015625)"/>
        <path id="DejaVuSans-30" d="M 2034 4250 
Q 1547 4250 1301 3770 
Q 1056 3291 1056 2328 
Q 1056 1369 1301 889 
Q 1547 409 2034 409 
Q 2525 409 2770 889 
Q 3016 1369 3016 2328 
Q 3016 3291 2770 3770 
Q 2525 4250 2034 4250 
z
M 2034 4750 
Q 2819 4750 3233 4129 
Q 3647 3509 3647 2328 
Q 3647 1150 3233 529 
Q 2819 -91 2034 -91 
Q 1250 -91 836 529 
Q 422 1150 422 2328 
Q 422 3509 836 4129 
Q 1250 4750 2034 4750 
z
" transform="scale(0.015625)"/>
        <path id="DejaVuSans-31" d="M 794 531 
L 1825 531 
L 1825 4091 
L 703 3866 
L 703 4441 
L 1819 4666 
L 2450 4666 
L 2450 531 
L 3481 531 
L 3481 0 
L 794 0 
L 794 531 
z
" transform="scale(0.015625)"/>
       </defs>
       <use xlink:href="#DejaVuSans-32"/>
       <use xlink:href="#DejaVuSans-30" x="63.623047"/>
       <use xlink:href="#DejaVuSans-31" x="127.246094"/>
       <use xlink:href="#DejaVuSans-31" x="190.869141"/>
      </g>
     </g>
    </g>
    <g id="xtick_2">
     <g id="line2d_2">
      <g>
       <use xlink:href="#mbaf5c5c68d" x="450.984627" y="320.4" style="stroke: #000000; stroke-width: 0.8"/>
      </g>
     </g>
     <g id="text_2">
      <!-- 2012 -->
      <g transform="translate(431.897127 338.797656) scale(0.15 -0.15)">
       <use xlink:href="#DejaVuSans-32"/>
       <use xlink:href="#DejaVuSans-30" x="63.623047"/>
       <use xlink:href="#DejaVuSans-31" x="127.246094"/>
       <use xlink:href="#DejaVuSans-32" x="190.869141"/>
      </g>
     </g>
    </g>
    <g id="xtick_3">
     <g id="line2d_3">
      <g>
       <use xlink:href="#mbaf5c5c68d" x="620.507836" y="320.4" style="stroke: #000000; stroke-width: 0.8"/>
      </g>
     </g>
     <g id="text_3">
      <!-- 2013 -->
      <g transform="translate(601.420336 338.797656) scale(0.15 -0.15)">
       <defs>
        <path id="DejaVuSans-33" d="M 2597 2516 
Q 3050 2419 3304 2112 
Q 3559 1806 3559 1356 
Q 3559 666 3084 287 
Q 2609 -91 1734 -91 
Q 1441 -91 1130 -33 
Q 819 25 488 141 
L 488 750 
Q 750 597 1062 519 
Q 1375 441 1716 441 
Q 2309 441 2620 675 
Q 2931 909 2931 1356 
Q 2931 1769 2642 2001 
Q 2353 2234 1838 2234 
L 1294 2234 
L 1294 2753 
L 1863 2753 
Q 2328 2753 2575 2939 
Q 2822 3125 2822 3475 
Q 2822 3834 2567 4026 
Q 2313 4219 1838 4219 
Q 1578 4219 1281 4162 
Q 984 4106 628 3988 
L 628 4550 
Q 988 4650 1302 4700 
Q 1616 4750 1894 4750 
Q 2613 4750 3031 4423 
Q 3450 4097 3450 3541 
Q 3450 3153 3228 2886 
Q 3006 2619 2597 2516 
z
" transform="scale(0.015625)"/>
       </defs>
       <use xlink:href="#DejaVuSans-32"/>
       <use xlink:href="#DejaVuSans-30" x="63.623047"/>
       <use xlink:href="#DejaVuSans-31" x="127.246094"/>
       <use xlink:href="#DejaVuSans-33" x="190.869141"/>
      </g>
     </g>
    </g>
    <g id="xtick_4">
     <g id="line2d_4">
      <g>
       <use xlink:href="#mbaf5c5c68d" x="789.567866" y="320.4" style="stroke: #000000; stroke-width: 0.8"/>
      </g>
     </g>
     <g id="text_4">
      <!-- 2014 -->
      <g transform="translate(770.480366 338.797656) scale(0.15 -0.15)">
       <defs>
        <path id="DejaVuSans-34" d="M 2419 4116 
L 825 1625 
L 2419 1625 
L 2419 4116 
z
M 2253 4666 
L 3047 4666 
L 3047 1625 
L 3713 1625 
L 3713 1100 
L 3047 1100 
L 3047 0 
L 2419 0 
L 2419 1100 
L 313 1100 
L 313 1709 
L 2253 4666 
z
" transform="scale(0.015625)"/>
       </defs>
       <use xlink:href="#DejaVuSans-32"/>
       <use xlink:href="#DejaVuSans-30" x="63.623047"/>
       <use xlink:href="#DejaVuSans-31" x="127.246094"/>
       <use xlink:href="#DejaVuSans-34" x="190.869141"/>
      </g>
     </g>
    </g>
    <g id="xtick_5">
     <g id="line2d_5">
      <g>
       <use xlink:href="#mbaf5c5c68d" x="958.627897" y="320.4" style="stroke: #000000; stroke-width: 0.8"/>
      </g>
     </g>
     <g id="text_5">
      <!-- 2015 -->
      <g transform="translate(939.540397 338.797656) scale(0.15 -0.15)">
       <defs>
        <path id="DejaVuSans-35" d="M 691 4666 
L 3169 4666 
L 3169 4134 
L 1269 4134 
L 1269 2991 
Q 1406 3038 1543 3061 
Q 1681 3084 1819 3084 
Q 2600 3084 3056 2656 
Q 3513 2228 3513 1497 
Q 3513 744 3044 326 
Q 2575 -91 1722 -91 
Q 1428 -91 1123 -41 
Q 819 9 494 109 
L 494 744 
Q 775 591 1075 516 
Q 1375 441 1709 441 
Q 2250 441 2565 725 
Q 2881 1009 2881 1497 
Q 2881 1984 2565 2268 
Q 2250 2553 1709 2553 
Q 1456 2553 1204 2497 
Q 953 2441 691 2322 
L 691 4666 
z
" transform="scale(0.015625)"/>
       </defs>
       <use xlink:href="#DejaVuSans-32"/>
       <use xlink:href="#DejaVuSans-30" x="63.623047"/>
       <use xlink:href="#DejaVuSans-31" x="127.246094"/>
       <use xlink:href="#DejaVuSans-35" x="190.869141"/>
      </g>
     </g>
    </g>
    <g id="xtick_6">
     <g id="line2d_6">
      <g>
       <use xlink:href="#mbaf5c5c68d" x="1127.687927" y="320.4" style="stroke: #000000; stroke-width: 0.8"/>
      </g>
     </g>
     <g id="text_6">
      <!-- 2016 -->
      <g transform="translate(1108.600427 338.797656) scale(0.15 -0.15)">
       <defs>
        <path id="DejaVuSans-36" d="M 2113 2584 
Q 1688 2584 1439 2293 
Q 1191 2003 1191 1497 
Q 1191 994 1439 701 
Q 1688 409 2113 409 
Q 2538 409 2786 701 
Q 3034 994 3034 1497 
Q 3034 2003 2786 2293 
Q 2538 2584 2113 2584 
z
M 3366 4563 
L 3366 3988 
Q 3128 4100 2886 4159 
Q 2644 4219 2406 4219 
Q 1781 4219 1451 3797 
Q 1122 3375 1075 2522 
Q 1259 2794 1537 2939 
Q 1816 3084 2150 3084 
Q 2853 3084 3261 2657 
Q 3669 2231 3669 1497 
Q 3669 778 3244 343 
Q 2819 -91 2113 -91 
Q 1303 -91 875 529 
Q 447 1150 447 2328 
Q 447 3434 972 4092 
Q 1497 4750 2381 4750 
Q 2619 4750 2861 4703 
Q 3103 4656 3366 4563 
z
" transform="scale(0.015625)"/>
       </defs>
       <use xlink:href="#DejaVuSans-32"/>
       <use xlink:href="#DejaVuSans-30" x="63.623047"/>
       <use xlink:href="#DejaVuSans-31" x="127.246094"/>
       <use xlink:href="#DejaVuSans-36" x="190.869141"/>
      </g>
     </g>
    </g>
    <g id="xtick_7">
     <g id="line2d_7">
      <g>
       <use xlink:href="#mbaf5c5c68d" x="1297.211136" y="320.4" style="stroke: #000000; stroke-width: 0.8"/>
      </g>
     </g>
     <g id="text_7">
      <!-- 2017 -->
      <g transform="translate(1278.123636 338.797656) scale(0.15 -0.15)">
       <defs>
        <path id="DejaVuSans-37" d="M 525 4666 
L 3525 4666 
L 3525 4397 
L 1831 0 
L 1172 0 
L 2766 4134 
L 525 4134 
L 525 4666 
z
" transform="scale(0.015625)"/>
       </defs>
       <use xlink:href="#DejaVuSans-32"/>
       <use xlink:href="#DejaVuSans-30" x="63.623047"/>
       <use xlink:href="#DejaVuSans-31" x="127.246094"/>
       <use xlink:href="#DejaVuSans-37" x="190.869141"/>
      </g>
     </g>
    </g>
    <g id="xtick_8">
     <g id="line2d_8">
      <g>
       <use xlink:href="#mbaf5c5c68d" x="1466.271167" y="320.4" style="stroke: #000000; stroke-width: 0.8"/>
      </g>
     </g>
     <g id="text_8">
      <!-- 2018 -->
      <g transform="translate(1447.183667 338.797656) scale(0.15 -0.15)">
       <defs>
        <path id="DejaVuSans-38" d="M 2034 2216 
Q 1584 2216 1326 1975 
Q 1069 1734 1069 1313 
Q 1069 891 1326 650 
Q 1584 409 2034 409 
Q 2484 409 2743 651 
Q 3003 894 3003 1313 
Q 3003 1734 2745 1975 
Q 2488 2216 2034 2216 
z
M 1403 2484 
Q 997 2584 770 2862 
Q 544 3141 544 3541 
Q 544 4100 942 4425 
Q 1341 4750 2034 4750 
Q 2731 4750 3128 4425 
Q 3525 4100 3525 3541 
Q 3525 3141 3298 2862 
Q 3072 2584 2669 2484 
Q 3125 2378 3379 2068 
Q 3634 1759 3634 1313 
Q 3634 634 3220 271 
Q 2806 -91 2034 -91 
Q 1263 -91 848 271 
Q 434 634 434 1313 
Q 434 1759 690 2068 
Q 947 2378 1403 2484 
z
M 1172 3481 
Q 1172 3119 1398 2916 
Q 1625 2713 2034 2713 
Q 2441 2713 2670 2916 
Q 2900 3119 2900 3481 
Q 2900 3844 2670 4047 
Q 2441 4250 2034 4250 
Q 1625 4250 1398 4047 
Q 1172 3844 1172 3481 
z
" transform="scale(0.015625)"/>
       </defs>
       <use xlink:href="#DejaVuSans-32"/>
       <use xlink:href="#DejaVuSans-30" x="63.623047"/>
       <use xlink:href="#DejaVuSans-31" x="127.246094"/>
       <use xlink:href="#DejaVuSans-38" x="190.869141"/>
      </g>
     </g>
    </g>
    <g id="text_9">
     <!-- Time -->
     <g transform="translate(904.149609 357.314844) scale(0.15 -0.15)">
      <defs>
       <path id="DejaVuSans-54" d="M -19 4666 
L 3928 4666 
L 3928 4134 
L 2272 4134 
L 2272 0 
L 1638 0 
L 1638 4134 
L -19 4134 
L -19 4666 
z
" transform="scale(0.015625)"/>
       <path id="DejaVuSans-69" d="M 603 3500 
L 1178 3500 
L 1178 0 
L 603 0 
L 603 3500 
z
M 603 4863 
L 1178 4863 
L 1178 4134 
L 603 4134 
L 603 4863 
z
" transform="scale(0.015625)"/>
       <path id="DejaVuSans-6d" d="M 3328 2828 
Q 3544 3216 3844 3400 
Q 4144 3584 4550 3584 
Q 5097 3584 5394 3201 
Q 5691 2819 5691 2113 
L 5691 0 
L 5113 0 
L 5113 2094 
Q 5113 2597 4934 2840 
Q 4756 3084 4391 3084 
Q 3944 3084 3684 2787 
Q 3425 2491 3425 1978 
L 3425 0 
L 2847 0 
L 2847 2094 
Q 2847 2600 2669 2842 
Q 2491 3084 2119 3084 
Q 1678 3084 1418 2786 
Q 1159 2488 1159 1978 
L 1159 0 
L 581 0 
L 581 3500 
L 1159 3500 
L 1159 2956 
Q 1356 3278 1631 3431 
Q 1906 3584 2284 3584 
Q 2666 3584 2933 3390 
Q 3200 3197 3328 2828 
z
" transform="scale(0.015625)"/>
       <path id="DejaVuSans-65" d="M 3597 1894 
L 3597 1613 
L 953 1613 
Q 991 1019 1311 708 
Q 1631 397 2203 397 
Q 2534 397 2845 478 
Q 3156 559 3463 722 
L 3463 178 
Q 3153 47 2828 -22 
Q 2503 -91 2169 -91 
Q 1331 -91 842 396 
Q 353 884 353 1716 
Q 353 2575 817 3079 
Q 1281 3584 2069 3584 
Q 2775 3584 3186 3129 
Q 3597 2675 3597 1894 
z
M 3022 2063 
Q 3016 2534 2758 2815 
Q 2500 3097 2075 3097 
Q 1594 3097 1305 2825 
Q 1016 2553 972 2059 
L 3022 2063 
z
" transform="scale(0.015625)"/>
      </defs>
      <use xlink:href="#DejaVuSans-54"/>
      <use xlink:href="#DejaVuSans-69" x="57.958984"/>
      <use xlink:href="#DejaVuSans-6d" x="85.742188"/>
      <use xlink:href="#DejaVuSans-65" x="183.154297"/>
     </g>
    </g>
   </g>
   <g id="matplotlib.axis_2">
    <g id="ytick_1">
     <g id="line2d_9">
      <defs>
       <path id="mb46ac83136" d="M 0 0 
L -3.5 0 
" style="stroke: #000000; stroke-width: 0.8"/>
      </defs>
      <g>
       <use xlink:href="#mb46ac83136" x="225" y="319.342444" style="stroke: #000000; stroke-width: 0.8"/>
      </g>
     </g>
     <g id="text_10">
      <!-- −0.006 -->
      <g transform="translate(162.488281 325.041272) scale(0.15 -0.15)">
       <defs>
        <path id="DejaVuSans-2212" d="M 678 2272 
L 4684 2272 
L 4684 1741 
L 678 1741 
L 678 2272 
z
" transform="scale(0.015625)"/>
        <path id="DejaVuSans-2e" d="M 684 794 
L 1344 794 
L 1344 0 
L 684 0 
L 684 794 
z
" transform="scale(0.015625)"/>
       </defs>
       <use xlink:href="#DejaVuSans-2212"/>
       <use xlink:href="#DejaVuSans-30" x="83.789062"/>
       <use xlink:href="#DejaVuSans-2e" x="147.412109"/>
       <use xlink:href="#DejaVuSans-30" x="179.199219"/>
       <use xlink:href="#DejaVuSans-30" x="242.822266"/>
       <use xlink:href="#DejaVuSans-36" x="306.445312"/>
      </g>
     </g>
    </g>
    <g id="ytick_2">
     <g id="line2d_10">
      <g>
       <use xlink:href="#mb46ac83136" x="225" y="274.629439" style="stroke: #000000; stroke-width: 0.8"/>
      </g>
     </g>
     <g id="text_11">
      <!-- −0.004 -->
      <g transform="translate(162.488281 280.328267) scale(0.15 -0.15)">
       <use xlink:href="#DejaVuSans-2212"/>
       <use xlink:href="#DejaVuSans-30" x="83.789062"/>
       <use xlink:href="#DejaVuSans-2e" x="147.412109"/>
       <use xlink:href="#DejaVuSans-30" x="179.199219"/>
       <use xlink:href="#DejaVuSans-30" x="242.822266"/>
       <use xlink:href="#DejaVuSans-34" x="306.445312"/>
      </g>
     </g>
    </g>
    <g id="ytick_3">
     <g id="line2d_11">
      <g>
       <use xlink:href="#mb46ac83136" x="225" y="229.916434" style="stroke: #000000; stroke-width: 0.8"/>
      </g>
     </g>
     <g id="text_12">
      <!-- −0.002 -->
      <g transform="translate(162.488281 235.615262) scale(0.15 -0.15)">
       <use xlink:href="#DejaVuSans-2212"/>
       <use xlink:href="#DejaVuSans-30" x="83.789062"/>
       <use xlink:href="#DejaVuSans-2e" x="147.412109"/>
       <use xlink:href="#DejaVuSans-30" x="179.199219"/>
       <use xlink:href="#DejaVuSans-30" x="242.822266"/>
       <use xlink:href="#DejaVuSans-32" x="306.445312"/>
      </g>
     </g>
    </g>
    <g id="ytick_4">
     <g id="line2d_12">
      <g>
       <use xlink:href="#mb46ac83136" x="225" y="185.203429" style="stroke: #000000; stroke-width: 0.8"/>
      </g>
     </g>
     <g id="text_13">
      <!-- 0.000 -->
      <g transform="translate(175.057813 190.902257) scale(0.15 -0.15)">
       <use xlink:href="#DejaVuSans-30"/>
       <use xlink:href="#DejaVuSans-2e" x="63.623047"/>
       <use xlink:href="#DejaVuSans-30" x="95.410156"/>
       <use xlink:href="#DejaVuSans-30" x="159.033203"/>
       <use xlink:href="#DejaVuSans-30" x="222.65625"/>
      </g>
     </g>
    </g>
    <g id="ytick_5">
     <g id="line2d_13">
      <g>
       <use xlink:href="#mb46ac83136" x="225" y="140.490424" style="stroke: #000000; stroke-width: 0.8"/>
      </g>
     </g>
     <g id="text_14">
      <!-- 0.002 -->
      <g transform="translate(175.057813 146.189252) scale(0.15 -0.15)">
       <use xlink:href="#DejaVuSans-30"/>
       <use xlink:href="#DejaVuSans-2e" x="63.623047"/>
       <use xlink:href="#DejaVuSans-30" x="95.410156"/>
       <use xlink:href="#DejaVuSans-30" x="159.033203"/>
       <use xlink:href="#DejaVuSans-32" x="222.65625"/>
      </g>
     </g>
    </g>
    <g id="ytick_6">
     <g id="line2d_14">
      <g>
       <use xlink:href="#mb46ac83136" x="225" y="95.777419" style="stroke: #000000; stroke-width: 0.8"/>
      </g>
     </g>
     <g id="text_15">
      <!-- 0.004 -->
      <g transform="translate(175.057813 101.476247) scale(0.15 -0.15)">
       <use xlink:href="#DejaVuSans-30"/>
       <use xlink:href="#DejaVuSans-2e" x="63.623047"/>
       <use xlink:href="#DejaVuSans-30" x="95.410156"/>
       <use xlink:href="#DejaVuSans-30" x="159.033203"/>
       <use xlink:href="#DejaVuSans-34" x="222.65625"/>
      </g>
     </g>
    </g>
    <g id="ytick_7">
     <g id="line2d_15">
      <g>
       <use xlink:href="#mb46ac83136" x="225" y="51.064414" style="stroke: #000000; stroke-width: 0.8"/>
      </g>
     </g>
     <g id="text_16">
      <!-- 0.006 -->
      <g transform="translate(175.057813 56.763242) scale(0.15 -0.15)">
       <use xlink:href="#DejaVuSans-30"/>
       <use xlink:href="#DejaVuSans-2e" x="63.623047"/>
       <use xlink:href="#DejaVuSans-30" x="95.410156"/>
       <use xlink:href="#DejaVuSans-30" x="159.033203"/>
       <use xlink:href="#DejaVuSans-36" x="222.65625"/>
      </g>
     </g>
    </g>
    <g id="text_17">
     <!-- East(m) -->
     <g transform="translate(155.36875 211.140234) rotate(-90) scale(0.15 -0.15)">
      <defs>
       <path id="DejaVuSans-45" d="M 628 4666 
L 3578 4666 
L 3578 4134 
L 1259 4134 
L 1259 2753 
L 3481 2753 
L 3481 2222 
L 1259 2222 
L 1259 531 
L 3634 531 
L 3634 0 
L 628 0 
L 628 4666 
z
" transform="scale(0.015625)"/>
       <path id="DejaVuSans-61" d="M 2194 1759 
Q 1497 1759 1228 1600 
Q 959 1441 959 1056 
Q 959 750 1161 570 
Q 1363 391 1709 391 
Q 2188 391 2477 730 
Q 2766 1069 2766 1631 
L 2766 1759 
L 2194 1759 
z
M 3341 1997 
L 3341 0 
L 2766 0 
L 2766 531 
Q 2569 213 2275 61 
Q 1981 -91 1556 -91 
Q 1019 -91 701 211 
Q 384 513 384 1019 
Q 384 1609 779 1909 
Q 1175 2209 1959 2209 
L 2766 2209 
L 2766 2266 
Q 2766 2663 2505 2880 
Q 2244 3097 1772 3097 
Q 1472 3097 1187 3025 
Q 903 2953 641 2809 
L 641 3341 
Q 956 3463 1253 3523 
Q 1550 3584 1831 3584 
Q 2591 3584 2966 3190 
Q 3341 2797 3341 1997 
z
" transform="scale(0.015625)"/>
       <path id="DejaVuSans-73" d="M 2834 3397 
L 2834 2853 
Q 2591 2978 2328 3040 
Q 2066 3103 1784 3103 
Q 1356 3103 1142 2972 
Q 928 2841 928 2578 
Q 928 2378 1081 2264 
Q 1234 2150 1697 2047 
L 1894 2003 
Q 2506 1872 2764 1633 
Q 3022 1394 3022 966 
Q 3022 478 2636 193 
Q 2250 -91 1575 -91 
Q 1294 -91 989 -36 
Q 684 19 347 128 
L 347 722 
Q 666 556 975 473 
Q 1284 391 1588 391 
Q 1994 391 2212 530 
Q 2431 669 2431 922 
Q 2431 1156 2273 1281 
Q 2116 1406 1581 1522 
L 1381 1569 
Q 847 1681 609 1914 
Q 372 2147 372 2553 
Q 372 3047 722 3315 
Q 1072 3584 1716 3584 
Q 2034 3584 2315 3537 
Q 2597 3491 2834 3397 
z
" transform="scale(0.015625)"/>
       <path id="DejaVuSans-74" d="M 1172 4494 
L 1172 3500 
L 2356 3500 
L 2356 3053 
L 1172 3053 
L 1172 1153 
Q 1172 725 1289 603 
Q 1406 481 1766 481 
L 2356 481 
L 2356 0 
L 1766 0 
Q 1100 0 847 248 
Q 594 497 594 1153 
L 594 3053 
L 172 3053 
L 172 3500 
L 594 3500 
L 594 4494 
L 1172 4494 
z
" transform="scale(0.015625)"/>
       <path id="DejaVuSans-28" d="M 1984 4856 
Q 1566 4138 1362 3434 
Q 1159 2731 1159 2009 
Q 1159 1288 1364 580 
Q 1569 -128 1984 -844 
L 1484 -844 
Q 1016 -109 783 600 
Q 550 1309 550 2009 
Q 550 2706 781 3412 
Q 1013 4119 1484 4856 
L 1984 4856 
z
" transform="scale(0.015625)"/>
       <path id="DejaVuSans-29" d="M 513 4856 
L 1013 4856 
Q 1481 4119 1714 3412 
Q 1947 2706 1947 2009 
Q 1947 1309 1714 600 
Q 1481 -109 1013 -844 
L 513 -844 
Q 928 -128 1133 580 
Q 1338 1288 1338 2009 
Q 1338 2731 1133 3434 
Q 928 4138 513 4856 
z
" transform="scale(0.015625)"/>
      </defs>
      <use xlink:href="#DejaVuSans-45"/>
      <use xlink:href="#DejaVuSans-61" x="63.183594"/>
      <use xlink:href="#DejaVuSans-73" x="124.462891"/>
      <use xlink:href="#DejaVuSans-74" x="176.5625"/>
      <use xlink:href="#DejaVuSans-28" x="215.771484"/>
      <use xlink:href="#DejaVuSans-6d" x="254.785156"/>
      <use xlink:href="#DejaVuSans-29" x="352.197266"/>
     </g>
    </g>
   </g>
   <g id="line2d_16">
    <path d="M 288.409091 158.415235 
L 288.872269 164.848127 
L 289.335447 181.80348 
L 289.798625 184.37615 
L 290.261804 181.222574 
L 290.724982 182.494096 
L 291.18816 184.387554 
L 291.651338 187.489935 
L 292.114516 186.031589 
L 292.577694 177.499008 
L 293.040873 174.951581 
L 293.504051 175.821506 
L 293.967229 172.753492 
L 294.430407 168.609173 
L 294.893585 168.217552 
L 295.819942 178.571042 
L 296.28312 182.874287 
L 296.746298 184.002908 
L 297.209476 188.54888 
L 297.672654 191.769432 
L 298.135832 189.541384 
L 298.599011 188.469486 
L 299.062189 188.949769 
L 299.525367 190.024096 
L 299.988545 189.939078 
L 300.451723 185.484962 
L 300.914901 190.161879 
L 302.767614 202.604106 
L 303.230792 201.101047 
L 303.69397 198.841061 
L 304.157149 200.097434 
L 304.620327 204.068525 
L 305.546683 188.625805 
L 306.009861 186.228487 
L 306.473039 185.715502 
L 306.936218 179.319563 
L 307.862574 169.520263 
L 308.325752 169.709912 
L 308.78893 168.270729 
L 309.252108 163.286444 
L 309.715287 161.147822 
L 310.641643 173.213181 
L 311.104821 178.758809 
L 311.567999 186.830721 
L 312.031177 188.262752 
L 312.957534 203.834889 
L 313.420712 209.690313 
L 313.88389 209.024027 
L 314.347068 210.385794 
L 314.810246 206.950495 
L 315.273425 207.606436 
L 316.199781 193.683959 
L 316.662959 188.607054 
L 317.126137 189.895364 
L 317.589315 190.283027 
L 318.052494 190.849542 
L 318.515672 190.112992 
L 318.97885 199.200528 
L 319.442028 202.306103 
L 319.905206 204.309822 
L 320.368384 208.031797 
L 320.831563 208.192702 
L 321.294741 211.793313 
L 321.757919 216.671439 
L 322.221097 210.88232 
L 322.684275 208.881031 
L 323.147453 204.602572 
L 323.610632 194.802058 
L 324.536988 181.253253 
L 325.000166 177.230297 
L 325.463344 180.581794 
L 326.389701 192.254318 
L 326.852879 206.209184 
L 328.242413 227.576063 
L 328.705591 228.410856 
L 329.16877 231.091657 
L 329.631948 229.010524 
L 330.095126 224.789553 
L 330.558304 222.002593 
L 331.021482 217.570833 
L 332.411017 200.829457 
L 333.337373 185.354799 
L 333.800551 183.663307 
L 334.263729 183.127966 
L 334.726907 183.748775 
L 335.653264 192.415946 
L 336.116442 196.987469 
L 336.57962 199.415961 
L 337.042798 198.478203 
L 337.969155 189.247397 
L 338.432333 187.386635 
L 338.895511 180.629798 
L 339.821867 178.952296 
L 341.67458 178.129514 
L 342.137758 181.33729 
L 342.600936 189.275063 
L 343.064114 186.194275 
L 343.527293 189.389275 
L 343.990471 189.630024 
L 344.453649 188.899862 
L 344.916827 190.753473 
L 345.380005 186.685804 
L 345.843183 187.028754 
L 346.306362 187.627207 
L 346.76954 180.084699 
L 347.232718 175.863728 
L 347.695896 176.133221 
L 348.159074 177.616353 
L 348.622252 181.37346 
L 349.085431 174.118393 
L 349.548609 176.44149 
L 350.938143 188.971163 
L 351.401321 192.188521 
L 351.8645 192.818911 
L 353.717212 199.258799 
L 355.106747 213.375784 
L 355.569925 214.258484 
L 356.033103 211.778127 
L 356.496281 212.414905 
L 356.959459 216.71815 
L 357.422638 215.975212 
L 358.812172 211.03807 
L 359.27535 212.623402 
L 359.738528 215.230747 
L 360.201707 209.358589 
L 360.664885 210.969472 
L 367.612557 205.100508 
L 368.075735 201.808929 
L 368.538914 193.190115 
L 369.002092 190.795991 
L 369.46527 186.095952 
L 369.928448 182.673428 
L 370.391626 173.50209 
L 370.854804 179.456522 
L 371.317983 179.262915 
L 371.781161 185.319549 
L 372.244339 183.216058 
L 372.707517 185.162289 
L 373.170695 192.285647 
L 373.633873 192.235761 
L 374.097052 196.181301 
L 375.023408 213.727198 
L 375.486586 218.522286 
L 375.949764 226.41854 
L 376.412942 226.732745 
L 376.876121 230.419589 
L 377.802477 215.893486 
L 378.265655 215.757368 
L 378.728833 221.858714 
L 379.192011 214.958157 
L 379.65519 213.812803 
L 380.118368 219.09654 
L 381.044724 224.041736 
L 381.507902 231.136349 
L 382.434259 217.338429 
L 382.897437 211.434334 
L 383.360615 215.280867 
L 383.823793 214.841339 
L 384.286971 211.703062 
L 384.750149 206.127927 
L 385.213328 209.230308 
L 385.676506 205.360654 
L 386.139684 210.695491 
L 386.602862 206.375513 
L 387.06604 205.709227 
L 387.529218 210.248812 
L 387.992397 212.367507 
L 388.455575 212.640193 
L 388.918753 221.762861 
L 389.381931 222.064292 
L 391.234644 218.405878 
L 391.697822 212.853099 
L 392.161 211.74607 
L 392.624178 207.154621 
L 393.087356 208.426962 
L 393.550535 208.504828 
L 394.013713 200.403408 
L 394.476891 199.737121 
L 394.940069 200.958362 
L 395.403247 194.789182 
L 395.866425 194.879823 
L 396.329604 196.081901 
L 396.792782 194.128519 
L 397.25596 203.235218 
L 397.719138 205.130348 
L 398.182316 207.53329 
L 398.645494 204.765492 
L 399.108673 205.194674 
L 399.571851 196.285226 
L 400.035029 200.348937 
L 400.961385 205.716927 
L 401.424563 210.266093 
L 401.887742 219.043832 
L 402.814098 231.839354 
L 403.277276 241.418733 
L 405.129989 224.329234 
L 405.593167 218.227124 
L 406.056345 210.269424 
L 406.519523 199.121131 
L 406.982701 194.727697 
L 407.909058 193.353604 
L 408.372236 193.3644 
L 408.835414 196.329449 
L 409.298592 205.129544 
L 409.76177 209.381688 
L 410.224949 211.973063 
L 411.614483 223.70429 
L 412.077661 223.194499 
L 412.540839 215.172924 
L 413.004018 215.222045 
L 413.467196 218.349976 
L 413.930374 216.348687 
L 414.393552 216.286026 
L 414.85673 207.389353 
L 415.319908 207.406537 
L 415.783087 210.59515 
L 416.246265 208.475691 
L 416.709443 207.228136 
L 417.172621 203.757705 
L 417.635799 204.068717 
L 418.098977 206.941145 
L 419.025334 199.144349 
L 419.488512 195.923034 
L 420.414868 185.67341 
L 423.193937 166.336251 
L 423.657115 154.983556 
L 424.583472 123.891284 
L 425.973006 71.852185 
L 426.436184 70.678086 
L 426.899363 67.016029 
L 427.362541 67.199289 
L 427.825719 66.44677 
L 428.288897 71.388772 
L 428.752075 72.542944 
L 429.215253 78.203548 
L 429.678432 80.076321 
L 430.14161 78.538131 
L 431.067966 88.054849 
L 431.531144 88.589426 
L 431.994322 92.544548 
L 432.4575 89.019823 
L 432.920679 92.815256 
L 433.383857 87.441329 
L 433.847035 80.719624 
L 434.310213 76.326189 
L 434.773391 74.388776 
L 435.236569 67.657489 
L 435.699748 69.025645 
L 436.162926 62.89479 
L 436.626104 70.302395 
L 437.089282 73.021522 
L 437.55246 78.730032 
L 438.015638 78.91968 
L 438.478817 81.357754 
L 438.941995 85.807913 
L 439.405173 87.719012 
L 439.868351 80.348968 
L 440.331529 77.715309 
L 441.257886 59.912382 
L 441.721064 55.8 
L 446.816024 56.46035 
L 447.279202 59.189058 
L 447.74238 59.576721 
L 448.205558 59.322432 
L 448.668736 66.806688 
L 449.131914 71.771046 
L 449.595093 69.961384 
L 450.058271 72.856169 
L 450.521449 74.102961 
L 451.447805 72.858599 
L 451.910983 77.059642 
L 452.374162 83.608119 
L 453.300518 88.366096 
L 453.763696 88.610038 
L 454.226874 88.055534 
L 454.690052 93.205132 
L 455.153231 92.072553 
L 455.616409 91.259352 
L 456.079587 94.007223 
L 456.542765 93.657121 
L 457.005943 97.257733 
L 457.469121 103.83176 
L 457.9323 105.008288 
L 458.395478 107.008813 
L 458.858656 99.073469 
L 459.321834 93.814518 
L 459.785012 94.068042 
L 460.24819 87.400632 
L 460.711369 83.428776 
L 461.174547 84.467972 
L 461.637725 84.763015 
L 462.100903 87.772776 
L 462.564081 85.190218 
L 463.027259 81.432347 
L 463.490438 79.961226 
L 463.953616 80.907802 
L 464.879972 74.736643 
L 465.34315 76.868113 
L 465.806328 77.587929 
L 466.269507 75.430145 
L 466.732685 79.889885 
L 467.195863 80.184928 
L 467.659041 78.039919 
L 468.122219 83.16716 
L 468.585397 82.488098 
L 469.048576 87.117109 
L 469.511754 90.558032 
L 469.974932 91.204391 
L 470.43811 95.047731 
L 470.901288 102.484079 
L 471.364466 105.171268 
L 471.827645 111.889015 
L 472.290823 113.024024 
L 472.754001 117.64026 
L 473.217179 117.641474 
L 473.680357 116.355593 
L 474.143535 107.874112 
L 474.606714 102.263845 
L 475.069892 94.446672 
L 475.53307 95.53058 
L 475.996248 97.703569 
L 476.459426 102.025977 
L 477.385783 100.082176 
L 478.312139 115.631956 
L 478.775317 121.31811 
L 479.238495 123.77854 
L 479.701673 121.314152 
L 480.164852 117.540312 
L 480.62803 122.772948 
L 481.091208 121.250727 
L 481.554386 117.141539 
L 482.017564 111.94327 
L 482.480742 109.648153 
L 482.943921 105.385663 
L 483.407099 109.229002 
L 483.870277 107.821758 
L 484.333455 111.728973 
L 484.796633 113.863637 
L 485.259811 123.209869 
L 485.72299 124.31294 
L 486.186168 122.845014 
L 486.649346 120.134704 
L 487.112524 119.602557 
L 488.965237 96.347072 
L 489.428415 97.894079 
L 489.891593 96.090805 
L 490.354771 96.778684 
L 490.817949 101.899537 
L 491.281128 110.667695 
L 492.207484 124.345916 
L 492.670662 125.912086 
L 493.13384 128.091463 
L 493.597018 127.920214 
L 494.523375 122.288805 
L 494.986553 120.99973 
L 495.449731 113.7255 
L 495.912909 114.094 
L 496.376087 115.874154 
L 496.839266 115.444208 
L 497.302444 117.000796 
L 497.765622 117.139344 
L 498.2288 114.432228 
L 498.691978 119.51795 
L 499.155156 121.237422 
L 499.618335 121.296125 
L 500.081513 118.911581 
L 500.544691 115.821211 
L 501.007869 115.598861 
L 501.471047 114.507801 
L 501.934225 111.992312 
L 502.397404 110.770307 
L 502.860582 110.266904 
L 503.32376 110.785512 
L 503.786938 110.694107 
L 504.250116 109.746767 
L 504.713294 109.617037 
L 505.176473 109.637414 
L 506.102829 103.938936 
L 506.566007 102.870232 
L 507.029185 100.999888 
L 507.492363 104.424842 
L 507.955542 104.560196 
L 508.41872 104.938277 
L 508.881898 104.332673 
L 509.345076 103.513084 
L 509.808254 103.635663 
L 510.271432 106.85302 
L 510.734611 102.903522 
L 511.197789 103.150658 
L 511.660967 104.652952 
L 512.124145 111.536776 
L 512.587323 111.649774 
L 513.51368 124.232526 
L 513.976858 127.670255 
L 514.440036 129.504703 
L 514.903214 123.757103 
L 515.366392 124.735616 
L 515.82957 129.137868 
L 516.292749 126.417977 
L 516.755927 122.356696 
L 517.219105 121.121916 
L 517.682283 122.847775 
L 518.145461 133.586499 
L 518.608639 133.530225 
L 519.071818 134.66204 
L 519.534996 140.935851 
L 519.998174 139.630807 
L 520.92453 141.194998 
L 521.387708 135.750808 
L 521.850887 128.802344 
L 522.314065 125.363851 
L 522.777243 123.531833 
L 523.240421 128.576036 
L 523.703599 130.848033 
L 524.166777 129.549376 
L 524.629956 130.879206 
L 525.093134 141.38159 
L 525.556312 143.254363 
L 526.945846 140.167187 
L 527.409025 139.571164 
L 527.872203 140.543289 
L 528.335381 135.830476 
L 528.798559 135.649645 
L 529.261737 130.550383 
L 529.724915 137.341587 
L 530.188093 137.227826 
L 530.651272 137.982774 
L 531.11445 133.461588 
L 531.577628 142.347915 
L 532.040806 144.936097 
L 532.503984 149.670503 
L 532.967162 149.655749 
L 533.430341 149.305647 
L 533.893519 149.29728 
L 534.356697 154.66725 
L 534.819875 151.110587 
L 535.283053 149.728892 
L 535.746231 143.32976 
L 536.20941 141.702143 
L 536.672588 142.731757 
L 537.135766 141.972851 
L 537.598944 140.565606 
L 538.062122 147.379167 
L 538.5253 144.327122 
L 538.988479 145.363124 
L 539.451657 147.079401 
L 539.914835 151.628568 
L 540.378013 153.239451 
L 540.841191 157.472432 
L 541.304369 153.379213 
L 543.157082 154.562129 
L 543.62026 159.577588 
L 544.083438 158.508884 
L 544.546617 154.364564 
L 545.009795 158.064184 
L 545.472973 156.45573 
L 545.936151 165.348445 
L 546.399329 170.833391 
L 547.325686 187.08261 
L 547.788864 189.606916 
L 548.252042 185.928889 
L 548.71522 186.955309 
L 549.178398 179.61401 
L 549.641576 178.676252 
L 550.567933 154.645441 
L 551.031111 156.22758 
L 551.494289 154.753266 
L 551.957467 149.526253 
L 552.420645 148.195659 
L 552.883824 148.905894 
L 553.347002 155.205255 
L 553.81018 155.873971 
L 554.273358 154.744585 
L 554.736536 149.351496 
L 555.199714 149.007781 
L 555.662893 150.241798 
L 556.126071 150.153586 
L 556.589249 142.684536 
L 557.052427 142.944447 
L 557.515605 143.670651 
L 557.978783 149.235441 
L 558.441962 150.868681 
L 559.368318 144.671972 
L 559.831496 150.223987 
L 560.294674 149.391623 
L 560.757852 142.896677 
L 561.221031 148.046275 
L 562.610565 159.876509 
L 563.073743 155.28506 
L 563.536921 153.65425 
L 564.0001 159.78434 
L 564.463278 159.073341 
L 564.926456 153.878266 
L 565.389634 150.870934 
L 565.852812 145.669471 
L 566.31599 149.627787 
L 566.779169 156.141132 
L 567.242347 150.492539 
L 567.705525 150.506529 
L 568.168703 154.35945 
L 569.095059 163.326837 
L 569.558238 163.011867 
L 570.021416 161.582265 
L 570.484594 165.901479 
L 570.947772 163.079387 
L 571.874128 152.360277 
L 572.337307 154.367189 
L 572.800485 150.756232 
L 573.263663 143.373413 
L 573.726841 141.598883 
L 574.190019 143.324742 
L 574.653197 147.541755 
L 575.116376 144.467353 
L 575.579554 135.950741 
L 576.042732 134.390194 
L 576.50591 136.438626 
L 576.969088 135.353953 
L 577.432266 129.72133 
L 577.895445 126.193411 
L 578.358623 125.223715 
L 578.821801 126.914442 
L 579.284979 130.751394 
L 579.748157 130.675958 
L 580.211335 133.126807 
L 580.674514 132.64576 
L 581.137692 135.43515 
L 581.60087 140.227044 
L 582.064048 142.812031 
L 582.527226 141.248291 
L 582.990404 138.569919 
L 583.453583 133.480239 
L 583.916761 138.454179 
L 584.379939 127.989357 
L 584.843117 123.046591 
L 585.306295 115.044178 
L 585.769473 114.36831 
L 586.232652 112.478803 
L 586.69583 116.306174 
L 587.159008 108.169622 
L 587.622186 116.675889 
L 588.085364 122.151253 
L 588.548542 131.187688 
L 589.011721 135.430251 
L 589.474899 143.52452 
L 590.401255 141.238984 
L 590.864433 147.161478 
L 591.327611 147.450133 
L 591.79079 143.545348 
L 592.717146 130.82054 
L 593.180324 125.168753 
L 593.643502 121.085116 
L 594.10668 119.141315 
L 594.569859 121.381374 
L 595.033037 122.315174 
L 595.496215 123.683329 
L 595.959393 124.438278 
L 596.422571 121.941952 
L 596.885749 122.639412 
L 597.348928 120.622154 
L 598.275284 114.834249 
L 598.738462 113.928429 
L 599.20164 114.124465 
L 599.664818 116.527407 
L 600.127997 111.801818 
L 600.591175 109.819692 
L 601.517531 100.815645 
L 601.980709 98.060622 
L 602.443887 98.582424 
L 602.907066 100.142206 
L 603.370244 106.294653 
L 604.2966 105.667907 
L 605.222956 117.164772 
L 606.149313 113.682781 
L 606.612491 115.207432 
L 607.075669 124.160829 
L 607.538847 137.377931 
L 608.002025 139.381649 
L 608.928382 135.781488 
L 609.39156 137.152837 
L 609.854738 134.88327 
L 610.317916 131.211631 
L 610.781094 120.449787 
L 611.244273 115.740167 
L 611.707451 109.714708 
L 612.170629 110.955111 
L 612.633807 104.051361 
L 613.096985 100.312652 
L 613.560163 95.245328 
L 614.023342 96.025827 
L 614.48652 97.441889 
L 614.949698 100.483588 
L 615.412876 100.165424 
L 615.876054 104.497413 
L 616.339232 105.811274 
L 616.802411 111.65073 
L 617.265589 111.198427 
L 617.728767 109.264207 
L 618.655123 114.720409 
L 619.118301 114.022184 
L 619.58148 113.620982 
L 620.044658 118.195699 
L 620.507836 116.488238 
L 620.971014 113.995106 
L 621.434192 120.428606 
L 621.89737 123.578893 
L 622.360549 131.753007 
L 623.286905 139.513143 
L 623.750083 142.51971 
L 624.213261 151.699866 
L 624.676439 154.07087 
L 625.139618 151.884342 
L 625.602796 143.693495 
L 626.065974 141.1301 
L 626.529152 132.977579 
L 626.99233 130.784662 
L 627.918686 118.130118 
L 628.381865 117.636296 
L 629.308221 127.066782 
L 629.771399 138.089752 
L 630.234577 141.553031 
L 630.697755 147.916268 
L 631.160934 150.849378 
L 631.624112 152.559269 
L 632.08729 156.127942 
L 632.550468 155.30516 
L 633.013646 156.270899 
L 633.476824 155.863309 
L 633.940003 156.075314 
L 634.403181 161.327113 
L 634.866359 167.923496 
L 635.329537 170.495708 
L 635.792715 176.868526 
L 636.255893 175.828567 
L 636.719072 177.273373 
L 637.18225 178.159266 
L 637.645428 176.538038 
L 638.108606 171.528202 
L 639.034962 156.63162 
L 639.498141 143.282809 
L 641.350853 123.118909 
L 642.27721 128.432605 
L 642.740388 139.257561 
L 643.203566 141.979881 
L 643.666744 145.845577 
L 644.129922 143.310926 
L 644.5931 147.361861 
L 645.056279 147.593029 
L 645.519457 147.603825 
L 645.982635 149.543668 
L 646.445813 153.22093 
L 646.908991 155.291719 
L 647.372169 156.2351 
L 647.835348 154.795918 
L 648.298526 157.796097 
L 648.761704 157.870769 
L 649.224882 159.044104 
L 649.68806 152.788691 
L 650.151238 136.530341 
L 650.614417 137.301259 
L 651.077595 134.31309 
L 651.540773 134.464412 
L 652.003951 131.792428 
L 652.467129 123.799597 
L 652.930307 125.269953 
L 653.393486 141.706391 
L 653.856664 142.978733 
L 654.319842 143.047017 
L 654.78302 136.181592 
L 655.246198 134.854191 
L 655.709376 134.628647 
L 656.172555 137.536207 
L 657.098911 134.322494 
L 657.562089 133.29531 
L 658.025267 140.26856 
L 658.488445 140.362395 
L 658.951624 145.125544 
L 659.414802 147.142038 
L 659.87798 147.670228 
L 660.341158 154.515726 
L 660.804336 163.370116 
L 661.267514 157.826918 
L 661.730693 159.884931 
L 662.193871 162.584895 
L 662.657049 160.28339 
L 663.120227 161.418399 
L 663.583405 158.736833 
L 664.046583 153.305418 
L 664.509762 155.896793 
L 664.97294 157.191492 
L 665.436118 155.5511 
L 665.899296 153.463579 
L 666.362474 150.484991 
L 666.825652 152.459966 
L 667.752009 150.440729 
L 668.678365 140.772374 
L 669.141543 143.782136 
L 669.604721 145.399406 
L 670.0679 141.203986 
L 670.531078 148.177236 
L 670.994256 153.074525 
L 671.457434 162.823175 
L 671.920612 169.148086 
L 672.38379 171.343432 
L 672.846969 172.989446 
L 673.310147 177.976161 
L 673.773325 176.102623 
L 674.236503 177.850839 
L 674.699681 172.202246 
L 675.626038 174.315769 
L 676.089216 179.500498 
L 677.47875 186.766812 
L 677.941928 191.727977 
L 678.405107 191.908044 
L 679.331463 186.877066 
L 679.794641 179.922215 
L 680.257819 179.610439 
L 681.184176 181.864488 
L 681.647354 188.489615 
L 682.110532 188.666488 
L 682.57371 187.741504 
L 683.036888 189.077722 
L 683.500066 185.26875 
L 683.963245 177.31105 
L 684.426423 175.054258 
L 684.889601 165.914857 
L 685.352779 168.148528 
L 686.279135 179.083287 
L 686.742314 189.882693 
L 687.205492 196.316193 
L 687.66867 196.857158 
L 688.131848 201.767222 
L 688.595026 208.021869 
L 689.058204 216.167239 
L 689.521383 218.688351 
L 689.984561 211.33747 
L 690.447739 208.499409 
L 691.374095 214.317723 
L 691.837273 212.163132 
L 692.300452 200.538966 
L 692.76363 201.204488 
L 693.226808 200.653178 
L 693.689986 202.784648 
L 694.153164 208.023672 
L 694.616342 208.746682 
L 695.079521 204.867447 
L 695.542699 209.454939 
L 696.005877 205.789687 
L 696.469055 207.036478 
L 696.932233 205.124615 
L 697.395411 204.25712 
L 697.85859 205.868003 
L 698.321768 214.46689 
L 698.784946 213.957099 
L 699.248124 221.03255 
L 699.711302 225.735018 
L 700.17448 227.668473 
L 700.637659 222.083756 
L 701.100837 223.164471 
L 701.564015 218.672029 
L 702.027193 223.617224 
L 702.953549 215.085857 
L 703.416728 213.691388 
L 703.879906 216.445646 
L 704.343084 213.498996 
L 704.806262 215.208887 
L 705.26944 209.282435 
L 705.732618 222.451629 
L 707.122153 230.953938 
L 707.585331 229.5435 
L 708.511687 237.824223 
L 708.974866 225.369672 
L 709.438044 232.857121 
L 709.901222 235.560279 
L 710.827578 245.830731 
L 711.290756 246.550548 
L 711.753935 245.510588 
L 712.217113 254.364978 
L 712.680291 254.58337 
L 713.143469 256.088858 
L 713.606647 250.184763 
L 714.069825 246.085156 
L 714.533004 244.895089 
L 714.996182 244.481111 
L 715.45936 236.331784 
L 715.922538 230.271193 
L 716.385716 233.296923 
L 716.848894 233.323688 
L 717.312073 240.092536 
L 717.775251 239.684946 
L 718.238429 242.688319 
L 718.701607 242.596914 
L 719.164785 239.292561 
L 719.627963 240.820405 
L 720.091142 246.81955 
L 720.55432 242.566642 
L 721.480676 229.822671 
L 721.943854 227.898033 
L 722.407032 228.688113 
L 723.333389 220.584714 
L 723.796567 217.232453 
L 724.259745 217.559434 
L 724.722923 223.775757 
L 725.186101 223.543825 
L 725.64928 226.314052 
L 726.575636 216.026103 
L 727.038814 215.781397 
L 727.501992 218.471779 
L 727.96517 208.399793 
L 728.428348 210.435449 
L 728.891527 213.410079 
L 729.354705 213.417681 
L 729.817883 220.349412 
L 730.281061 223.269747 
L 730.744239 227.113086 
L 731.207417 231.9465 
L 732.133774 226.915522 
L 732.596952 229.411084 
L 733.06013 226.365427 
L 733.523308 226.484812 
L 733.986486 219.724782 
L 734.449665 218.672047 
L 734.912843 214.559665 
L 735.376021 206.02389 
L 736.302377 201.917896 
L 736.765555 194.9343 
L 737.228734 190.789981 
L 737.691912 192.298663 
L 738.15509 190.182397 
L 738.618268 191.633591 
L 739.081446 198.590872 
L 739.544624 200.256049 
L 740.007803 207.242074 
L 740.470981 210.689384 
L 740.934159 213.210496 
L 741.397337 214.099583 
L 741.860515 217.895016 
L 742.323693 217.554496 
L 742.786872 219.143022 
L 743.25005 224.73975 
L 743.713228 228.286068 
L 744.176406 222.787583 
L 744.639584 228.403473 
L 745.565941 221.82351 
L 746.029119 215.331758 
L 746.492297 206.981222 
L 746.955475 200.799267 
L 747.418653 198.797978 
L 747.881831 191.734538 
L 748.34501 191.26946 
L 748.808188 187.275248 
L 749.271366 190.055057 
L 749.734544 182.020706 
L 750.197722 182.20716 
L 750.6609 182.706606 
L 751.124079 179.827026 
L 751.587257 182.175673 
L 752.050435 183.943052 
L 752.513613 181.743748 
L 753.439969 194.345664 
L 753.903148 194.778039 
L 754.366326 199.649778 
L 754.829504 195.888713 
L 755.75586 196.740689 
L 756.219038 196.879237 
L 756.682217 186.807251 
L 757.145395 183.569966 
L 757.608573 174.005792 
L 758.071751 176.07658 
L 758.534929 178.904296 
L 758.998107 177.89308 
L 759.461286 176.019543 
L 760.387642 185.705531 
L 760.85082 191.905885 
L 761.313998 191.677147 
L 761.777176 192.495971 
L 762.240355 196.863092 
L 762.703533 194.900128 
L 763.166711 191.544674 
L 763.629889 190.702729 
L 764.093067 194.0159 
L 764.556245 187.738131 
L 765.482602 185.791136 
L 765.94578 186.715355 
L 766.408958 197.904403 
L 767.335314 204.498807 
L 767.798493 202.312278 
L 768.261671 211.383845 
L 768.724849 214.150879 
L 769.188027 209.751057 
L 769.651205 195.974278 
L 770.114383 199.121372 
L 770.577562 195.61581 
L 771.04074 199.411243 
L 771.967096 195.874957 
L 772.893452 214.532291 
L 773.356631 212.716242 
L 773.819809 220.829673 
L 774.282987 223.044182 
L 774.746165 228.717561 
L 775.209343 232.20639 
L 775.672521 227.036865 
L 776.598878 234.145469 
L 777.062056 231.307408 
L 777.525234 230.976469 
L 777.988412 228.323647 
L 778.45159 226.852527 
L 778.914769 222.912609 
L 779.377947 220.770794 
L 779.841125 214.023539 
L 780.304303 213.922552 
L 781.693838 208.06317 
L 782.157016 208.042028 
L 782.620194 207.886747 
L 783.083372 208.098752 
L 783.54655 205.152102 
L 784.009728 205.721811 
L 784.472907 202.867781 
L 785.399263 209.197101 
L 785.862441 207.224556 
L 786.325619 207.525986 
L 786.788797 206.728755 
L 787.251976 206.797039 
L 787.715154 204.786168 
L 788.178332 205.525148 
L 788.64151 205.583851 
L 789.104688 207.038238 
L 789.567866 202.855593 
L 790.494223 189.01296 
L 790.957401 186.899889 
L 791.420579 185.642752 
L 791.883757 179.476766 
L 792.346935 175.750832 
L 792.810114 178.90112 
L 793.73647 201.323928 
L 794.199648 205.310988 
L 794.662826 206.228819 
L 795.589183 217.275361 
L 796.052361 219.713434 
L 796.515539 215.454139 
L 796.978717 212.922681 
L 797.441895 215.073314 
L 797.905073 215.112854 
L 798.368252 212.565428 
L 798.83143 213.885676 
L 799.757786 222.760443 
L 800.220964 223.090618 
L 800.684142 226.38782 
L 801.147321 231.262752 
L 801.610499 233.975492 
L 802.073677 231.089524 
L 803.000033 217.808997 
L 803.92639 209.603397 
L 804.852746 196.243025 
L 805.315924 200.00652 
L 805.779102 207.647271 
L 806.24228 212.68828 
L 806.705459 213.03123 
L 807.168637 207.226142 
L 807.631815 210.392399 
L 808.094993 211.233579 
L 808.558171 210.592843 
L 809.021349 211.587325 
L 809.484528 213.795446 
L 810.410884 225.337025 
L 810.874062 226.187787 
L 811.33724 225.58857 
L 811.800418 225.401351 
L 812.263597 220.458585 
L 812.726775 221.152852 
L 813.189953 215.274306 
L 813.653131 211.71445 
L 814.116309 207.218814 
L 814.579487 206.300218 
L 815.042666 203.679334 
L 815.505844 202.319996 
L 815.969022 202.873736 
L 816.4322 202.964377 
L 816.895378 212.323385 
L 817.358556 218.319336 
L 817.821735 217.04623 
L 818.284913 218.158883 
L 818.748091 224.764847 
L 819.211269 225.251517 
L 819.674447 226.827269 
L 820.137625 217.997665 
L 820.600804 211.387743 
L 821.063982 216.754518 
L 821.52716 220.505238 
L 821.990338 215.217543 
L 822.453516 212.363513 
L 822.916694 216.012031 
L 823.843051 236.15767 
L 824.306229 243.862296 
L 824.769407 244.131789 
L 825.232585 247.716432 
L 825.695763 249.378415 
L 826.158941 250.053519 
L 826.62212 249.074242 
L 827.085298 253.284866 
L 827.548476 251.261221 
L 828.474832 257.02524 
L 828.93801 258.814975 
L 829.401189 259.953178 
L 829.864367 257.798587 
L 830.327545 248.148181 
L 830.790723 245.779606 
L 831.253901 245.806371 
L 831.717079 243.961578 
L 832.643436 246.489077 
L 833.106614 243.318863 
L 833.569792 238.599661 
L 834.03297 238.46035 
L 834.496148 235.561607 
L 835.422505 226.171112 
L 835.885683 218.436976 
L 836.348861 217.515187 
L 836.812039 220.687831 
L 837.275217 227.038293 
L 837.738396 227.368468 
L 838.201574 224.980731 
L 838.664752 224.308056 
L 839.12793 235.094687 
L 839.591108 235.833666 
L 840.054286 236.11274 
L 840.517465 226.443171 
L 840.980643 226.418835 
L 841.443821 229.422209 
L 841.906999 230.732876 
L 842.370177 224.688254 
L 842.833355 224.255114 
L 843.296534 224.540576 
L 843.759712 226.678433 
L 844.22289 231.703474 
L 844.686068 231.196876 
L 845.149246 237.617601 
L 845.612424 235.942078 
L 846.075603 237.623225 
L 846.538781 237.081496 
L 847.001959 243.304206 
L 847.465137 235.576458 
L 847.928315 238.241291 
L 848.391493 236.217645 
L 848.854672 239.275313 
L 849.31785 240.640275 
L 849.781028 244.260049 
L 850.244206 241.064284 
L 850.707384 245.508055 
L 851.170562 242.366585 
L 851.633741 244.648163 
L 852.096919 247.635567 
L 852.560097 246.276229 
L 853.023275 235.728369 
L 853.486453 236.866571 
L 853.949631 240.556609 
L 854.41281 248.676428 
L 855.339166 247.662019 
L 855.802344 242.779935 
L 856.265522 244.809204 
L 857.655057 253.184526 
L 859.044591 239.301588 
L 859.507769 238.782216 
L 859.970948 236.084681 
L 860.434126 229.608898 
L 860.897304 227.68426 
L 861.360482 230.390611 
L 862.286838 233.104565 
L 862.750017 237.548337 
L 864.139551 260.499334 
L 864.602729 271.752257 
L 865.065907 279.223737 
L 865.529086 280.173507 
L 865.992264 277.268376 
L 866.455442 279.655349 
L 866.91862 284.610126 
L 867.381798 277.259245 
L 867.844976 275.133399 
L 868.308155 276.888002 
L 868.771333 279.658229 
L 869.234511 279.154826 
L 869.697689 280.293028 
L 870.160867 280.677498 
L 870.624045 285.427872 
L 871.087224 283.621404 
L 871.550402 278.694607 
L 872.01358 276.546404 
L 872.476758 275.126384 
L 872.939936 271.435582 
L 873.403114 264.004857 
L 873.866293 264.670379 
L 874.329471 267.252173 
L 874.792649 268.936513 
L 875.255827 271.837685 
L 875.719005 269.619219 
L 876.182183 271.843309 
L 876.645362 277.60292 
L 877.10854 279.475693 
L 877.571718 276.564175 
L 878.034896 275.620029 
L 878.498074 270.0417 
L 878.961252 277.730358 
L 879.887609 266.624799 
L 880.350787 268.618937 
L 880.813965 268.112339 
L 881.277143 269.209023 
L 882.2035 269.409467 
L 882.666678 279.305031 
L 883.129856 281.101154 
L 883.593034 284.446263 
L 884.056212 280.72991 
L 884.51939 279.910322 
L 884.982569 284.114559 
L 885.445747 284.435153 
L 885.908925 276.304988 
L 886.372103 283.489028 
L 886.835281 277.613676 
L 887.298459 278.780623 
L 887.761638 278.449684 
L 888.687994 275.787281 
L 889.151172 278.80343 
L 889.61435 292.45808 
L 890.077528 288.147684 
L 891.003885 294.639887 
L 891.467063 292.957977 
L 891.930241 294.635929 
L 892.393419 289.55583 
L 892.856597 281.339433 
L 893.319776 289.724337 
L 893.782954 282.696028 
L 894.246132 285.571651 
L 894.70931 293.046325 
L 895.172488 295.158632 
L 895.635666 294.904344 
L 896.098845 295.719974 
L 896.562023 294.731115 
L 897.025201 301.209328 
L 897.951557 290.85431 
L 898.414735 287.831009 
L 898.877914 288.902142 
L 899.341092 288.293344 
L 900.267448 282.326587 
L 901.193804 277.41378 
L 901.656983 276.258844 
L 902.120161 273.858332 
L 902.583339 269.474479 
L 903.046517 268.048071 
L 903.509695 264.708586 
L 903.972873 259.676394 
L 904.436052 258.984557 
L 904.89923 254.421851 
L 905.362408 259.593806 
L 905.825586 257.410471 
L 906.288764 249.698692 
L 906.751942 253.225847 
L 907.215121 261.387185 
L 907.678299 260.484558 
L 908.141477 266.579517 
L 908.604655 260.499763 
L 909.067833 265.917639 
L 909.531011 269.732235 
L 909.99419 267.657488 
L 910.457368 267.847137 
L 910.920546 264.78551 
L 911.383724 267.373692 
L 911.846902 264.979567 
L 912.773259 254.362658 
L 913.236437 255.635 
L 913.699615 249.922531 
L 914.162793 251.948607 
L 914.625971 245.255646 
L 915.089149 245.23131 
L 915.552328 242.642365 
L 916.478684 249.826404 
L 916.941862 246.79991 
L 917.40504 247.385587 
L 918.331397 247.11533 
L 918.794575 242.993367 
L 919.257753 244.738389 
L 919.720931 245.569989 
L 920.184109 238.877028 
L 921.573644 231.771304 
L 922.036822 236.710112 
L 922.5 236.890179 
L 922.963178 237.245904 
L 923.426356 237.234344 
L 923.889534 237.047125 
L 924.352713 240.529567 
L 924.815891 242.715331 
L 928.058138 234.645849 
L 928.984494 228.564116 
L 929.447672 229.188119 
L 929.910851 226.193563 
L 930.374029 221.777771 
L 930.837207 215.857707 
L 931.300385 219.921417 
L 931.763563 218.274638 
L 932.68992 223.278537 
L 933.153098 227.945873 
L 935.00581 215.711694 
L 935.468989 219.385762 
L 935.932167 218.735445 
L 936.858523 210.494713 
L 937.321701 207.519319 
L 937.784879 205.776726 
L 938.248058 221.104921 
L 939.174414 222.455128 
L 939.637592 226.349568 
L 940.10077 224.472836 
L 941.027127 220.041076 
L 941.490305 215.679579 
L 941.953483 212.914975 
L 942.416661 209.205011 
L 942.879839 208.24809 
L 943.343017 200.414947 
L 943.806196 203.740893 
L 944.269374 205.029204 
L 945.19573 213.878421 
L 945.658908 212.68516 
L 946.122086 207.458147 
L 946.585265 214.904077 
L 947.048443 217.077066 
L 947.511621 216.321354 
L 948.437977 207.614329 
L 949.364334 215.064667 
L 949.827512 217.42609 
L 950.29069 218.350309 
L 950.753868 220.095331 
L 951.217046 220.607552 
L 951.680224 220.442689 
L 952.143403 215.388141 
L 952.606581 217.027768 
L 953.069759 212.736534 
L 953.532937 206.299076 
L 954.922472 219.620809 
L 955.38565 226.517408 
L 955.848828 228.917156 
L 956.312006 229.237749 
L 956.775184 238.484975 
L 957.238362 235.206171 
L 957.701541 234.111917 
L 958.164719 234.164233 
L 958.627897 236.864197 
L 959.091075 238.628381 
L 959.554253 243.774786 
L 960.017431 237.663094 
L 960.48061 240.554685 
L 960.943788 239.866042 
L 961.406966 237.864753 
L 961.870144 234.049393 
L 962.7965 241.53167 
L 963.259679 250.616012 
L 963.722857 250.530995 
L 964.186035 254.489311 
L 964.649213 260.833385 
L 965.112391 262.43788 
L 965.575569 262.161235 
L 967.428282 246.727333 
L 967.89146 241.688753 
L 971.133707 242.271237 
L 971.596886 234.898 
L 972.060064 235.416608 
L 972.523242 228.659771 
L 972.98642 226.792621 
L 973.449598 230.300613 
L 973.912776 231.876364 
L 974.375955 225.831742 
L 974.839133 216.80093 
L 975.302311 211.816645 
L 976.228667 231.936733 
L 976.691845 228.935789 
L 977.155024 225.168336 
L 977.618202 233.69696 
L 978.08138 248.415141 
L 978.544558 254.190721 
L 979.007736 250.915111 
L 979.470914 236.081189 
L 979.934093 235.054005 
L 980.397271 228.977445 
L 980.860449 224.932133 
L 981.323627 226.728255 
L 982.249983 223.057831 
L 982.713162 232.554172 
L 983.17634 234.644123 
L 983.639518 247.126653 
L 984.102696 244.052252 
L 984.565874 233.175432 
L 985.029052 229.302584 
L 985.492231 227.358783 
L 985.955409 221.556889 
L 986.418587 225.189438 
L 986.881765 220.904592 
L 987.344943 220.92497 
L 987.808121 216.445302 
L 988.2713 223.025717 
L 988.734478 222.170997 
L 989.197656 219.527757 
L 989.660834 208.242131 
L 990.124012 213.608907 
L 991.513547 211.096612 
L 992.439903 220.391744 
L 992.903081 216.509315 
L 993.366259 216.558437 
L 993.829438 218.05115 
L 994.292616 221.121593 
L 994.755794 216.852716 
L 995.68215 221.251774 
L 996.145328 227.056098 
L 996.608507 229.085367 
L 997.071685 232.379375 
L 997.998041 243.480211 
L 998.461219 243.960494 
L 998.924397 244.967751 
L 999.387576 242.538495 
L 999.850754 247.240963 
L 1000.313932 250.566909 
L 1003.556179 251.606104 
L 1004.482535 255.246256 
L 1004.945714 255.52533 
L 1005.408892 256.331379 
L 1005.87207 254.432291 
L 1006.335248 254.053446 
L 1006.798426 254.45069 
L 1007.261604 254.46468 
L 1007.724783 251.779921 
L 1008.651139 253.328143 
L 1009.114317 252.562849 
L 1009.577495 257.648571 
L 1010.040673 258.825099 
L 1010.503852 260.602059 
L 1010.96703 265.173581 
L 1011.430208 267.908677 
L 1011.893386 267.747009 
L 1012.356564 270.807871 
L 1012.819742 265.791648 
L 1013.282921 257.217547 
L 1014.209277 256.485406 
L 1014.672455 256.924169 
L 1015.135633 259.774241 
L 1015.598811 261.081714 
L 1016.06199 261.354401 
L 1016.525168 274.271287 
L 1016.988346 271.430032 
L 1017.451524 265.71437 
L 1017.914702 262.898665 
L 1018.37788 262.9925 
L 1018.841059 258.557546 
L 1019.767415 255.055177 
L 1020.230593 251.364375 
L 1020.693771 252.962483 
L 1021.156949 259.242681 
L 1021.620127 261.894738 
L 1022.083306 255.658489 
L 1022.546484 255.097598 
L 1023.009662 259.883104 
L 1023.47284 260.692346 
L 1023.936018 263.590325 
L 1024.862375 259.104271 
L 1025.325553 264.186799 
L 1026.251909 279.452332 
L 1026.715087 282.909224 
L 1027.178265 283.140391 
L 1027.641444 282.343159 
L 1028.104622 285.701043 
L 1028.5678 278.861168 
L 1029.030978 274.247362 
L 1029.494156 274.286902 
L 1029.957334 269.906243 
L 1030.420513 272.360285 
L 1030.883691 267.650666 
L 1031.346869 271.826159 
L 1031.810047 282.347705 
L 1032.273225 284.977406 
L 1032.736403 278.798644 
L 1033.199582 279.46736 
L 1034.125938 273.001158 
L 1034.589116 280.322531 
L 1035.515472 265.777265 
L 1035.978651 268.662469 
L 1036.441829 270.257383 
L 1036.905007 272.334558 
L 1037.368185 274.938709 
L 1037.831363 274.796203 
L 1038.75772 282.050506 
L 1039.220898 279.918272 
L 1039.684076 274.269679 
L 1040.147254 275.257774 
L 1040.610432 274.134776 
L 1041.07361 277.534179 
L 1041.536789 275.245449 
L 1041.999967 278.069971 
L 1042.926323 291.815262 
L 1043.389501 287.667749 
L 1043.852679 285.45567 
L 1044.315858 288.091758 
L 1044.779036 285.62737 
L 1045.242214 276.082358 
L 1046.16857 279.753233 
L 1046.631748 277.745557 
L 1047.094927 285.204262 
L 1047.558105 285.595119 
L 1048.021283 278.573198 
L 1048.484461 282.675234 
L 1048.947639 281.386159 
L 1049.410817 272.808865 
L 1049.873996 275.314008 
L 1050.337174 273.08596 
L 1050.800352 279.778156 
L 1051.26353 278.565732 
L 1051.726708 281.013387 
L 1052.653065 296.553586 
L 1053.116243 287.573874 
L 1054.042599 285.762234 
L 1054.505777 293.974672 
L 1054.968955 291.97019 
L 1055.432134 294.849006 
L 1055.895312 286.080084 
L 1056.35849 291.146643 
L 1056.821668 293.195075 
L 1057.284846 291.906 
L 1057.748024 290.284772 
L 1058.211203 292.017019 
L 1058.674381 288.661564 
L 1059.137559 289.141847 
L 1059.600737 296.32908 
L 1060.527093 304.114767 
L 1060.990272 304.170276 
L 1061.45345 299.300967 
L 1061.916628 299.679048 
L 1062.379806 302.158641 
L 1062.842984 289.790322 
L 1063.306162 281.203447 
L 1064.232519 272.371864 
L 1064.695697 269.300656 
L 1065.158875 267.222717 
L 1065.622053 270.487981 
L 1066.085231 277.0141 
L 1066.54841 274.246303 
L 1067.011588 273.503365 
L 1067.937944 285.000231 
L 1068.401122 286.096914 
L 1068.8643 281.007234 
L 1069.327479 278.632272 
L 1069.790657 283.00578 
L 1070.253835 286.219944 
L 1070.717013 281.925516 
L 1071.180191 288.777402 
L 1071.643369 293.390444 
L 1072.106548 296.866498 
L 1072.569726 303.894042 
L 1073.032904 305.987187 
L 1073.496082 303.213002 
L 1073.95926 303.156728 
L 1074.422438 295.94318 
L 1075.348795 285.061187 
L 1075.811973 275.64712 
L 1076.275151 274.051442 
L 1076.738329 269.811309 
L 1077.664686 273.809165 
L 1078.127864 270.939166 
L 1078.591042 276.069601 
L 1079.517398 291.72797 
L 1079.980576 297.867642 
L 1080.906933 288.742231 
L 1081.370111 292.237448 
L 1081.833289 289.338705 
L 1082.759645 273.586188 
L 1083.686002 265.578602 
L 1084.612358 256.434028 
L 1085.075536 257.144263 
L 1086.001893 253.805993 
L 1086.465071 254.937808 
L 1087.391427 269.577359 
L 1087.854605 277.770635 
L 1088.317783 277.880439 
L 1088.780962 280.877425 
L 1089.707318 276.628925 
L 1090.170496 268.086762 
L 1090.633674 266.478309 
L 1091.096852 261.973091 
L 1091.560031 262.750396 
L 1092.023209 262.492914 
L 1092.486387 267.569055 
L 1092.949565 274.443298 
L 1093.412743 288.736705 
L 1093.875921 289.261701 
L 1094.3391 287.08156 
L 1094.802278 286.418467 
L 1095.265456 288.486061 
L 1096.191812 284.50584 
L 1096.65499 279.068037 
L 1097.118169 278.759454 
L 1097.581347 280.197873 
L 1098.044525 285.612555 
L 1098.507703 282.282651 
L 1098.970881 284.551454 
L 1099.434059 283.086721 
L 1099.897238 282.535411 
L 1100.823594 288.896668 
L 1101.286772 284.12956 
L 1101.74995 285.85542 
L 1102.213128 282.151843 
L 1102.676307 282.405367 
L 1103.139485 283.428593 
L 1103.602663 283.509652 
L 1104.065841 278.046299 
L 1104.529019 279.127014 
L 1104.992197 281.58425 
L 1105.455376 284.843127 
L 1106.381732 298.122125 
L 1106.84491 298.979274 
L 1107.308088 297.287782 
L 1107.771266 285.99577 
L 1108.234445 283.844373 
L 1108.697623 282.782057 
L 1110.087157 250.32406 
L 1110.550335 253.755401 
L 1111.013514 265.988816 
L 1111.476692 265.935737 
L 1111.93987 264.643468 
L 1112.403048 269.352323 
L 1112.866226 272.46748 
L 1113.329404 278.524113 
L 1113.792583 286.749327 
L 1114.255761 290.995083 
L 1114.718939 291.334839 
L 1115.182117 291.409511 
L 1115.645295 290.430234 
L 1116.108473 293.015221 
L 1116.571652 294.939095 
L 1117.498008 279.509151 
L 1117.961186 289.775194 
L 1118.424364 295.506061 
L 1118.887542 297.643919 
L 1119.35072 293.292003 
L 1119.813899 292.242462 
L 1120.277077 296.140096 
L 1120.740255 298.316279 
L 1121.203433 294.277354 
L 1121.666611 291.998206 
L 1122.129789 292.04094 
L 1122.592968 295.590451 
L 1123.056146 300.34402 
L 1123.519324 302.108204 
L 1123.982502 302.524611 
L 1124.44568 296.671616 
L 1124.908858 297.062473 
L 1125.372037 296.721953 
L 1125.835215 298.811904 
L 1126.298393 299.324124 
L 1126.761571 296.776698 
L 1127.224749 295.379034 
L 1127.687927 297.523279 
L 1128.151106 294.765063 
L 1128.614284 286.724324 
L 1129.077462 276.348928 
L 1129.54064 270.502321 
L 1130.003818 268.817217 
L 1130.466996 274.870656 
L 1130.930175 271.732379 
L 1131.393353 271.739981 
L 1131.856531 274.130148 
L 1132.319709 282.249967 
L 1132.782887 285.537588 
L 1133.246065 290.05801 
L 1133.709244 282.885981 
L 1134.172422 288.939421 
L 1135.098778 294.202016 
L 1135.561956 298.754376 
L 1136.025134 294.840009 
L 1136.488313 289.654515 
L 1136.951491 287.506312 
L 1137.414669 279.063156 
L 1137.877847 279.591346 
L 1138.804203 271.954239 
L 1139.267382 275.89978 
L 1139.73056 276.782479 
L 1140.193738 280.485292 
L 1140.656916 291.224016 
L 1141.120094 291.142192 
L 1141.583272 292.373015 
L 1142.046451 293.089638 
L 1142.509629 287.913725 
L 1142.972807 293.976746 
L 1143.435985 295.562079 
L 1143.899163 284.749134 
L 1144.362341 281.981336 
L 1144.82552 277.112027 
L 1145.288698 274.341036 
L 1145.751876 281.541044 
L 1146.215054 275.263276 
L 1146.678232 272.789306 
L 1147.14141 273.049218 
L 1147.604589 274.63455 
L 1148.067767 286.848803 
L 1148.530945 288.0413 
L 1148.994123 283.766035 
L 1149.457301 285.785723 
L 1149.920479 290.248657 
L 1150.383658 296.372359 
L 1150.846836 292.208877 
L 1151.310014 286.592222 
L 1151.773192 285.839704 
L 1152.23637 286.083646 
L 1152.699548 287.470964 
L 1153.162727 286.003037 
L 1153.625905 282.334592 
L 1154.089083 282.556178 
L 1154.552261 281.634389 
L 1155.015439 286.349632 
L 1155.478617 289.052789 
L 1155.941796 289.849257 
L 1156.404974 291.81465 
L 1156.868152 295.003263 
L 1157.794508 307.8 
L 1158.257686 278.450321 
L 1160.110399 273.398966 
L 1222.176273 258.491588 
L 1222.639451 241.888309 
L 1223.10263 218.405614 
L 1224.028986 181.890294 
L 1224.492164 195.22876 
L 1224.955342 180.806837 
L 1225.41852 179.661482 
L 1225.881699 169.908874 
L 1226.344877 174.215313 
L 1227.271233 159.488001 
L 1227.734411 152.242515 
L 1228.197589 148.011963 
L 1228.660768 146.633463 
L 1229.123946 146.909343 
L 1229.587124 146.284576 
L 1230.050302 154.647122 
L 1230.51348 156.484764 
L 1230.976658 152.206306 
L 1231.439837 155.746235 
L 1231.903015 149.254483 
L 1232.366193 152.142881 
L 1232.829371 151.284967 
L 1233.292549 141.63456 
L 1233.755727 140.230509 
L 1234.218906 144.230344 
L 1234.682084 144.678689 
L 1235.145262 145.717884 
L 1235.60844 144.087074 
L 1236.071618 142.973658 
L 1236.997975 145.617348 
L 1237.461153 150.853179 
L 1238.387509 148.105758 
L 1238.850687 146.114051 
L 1239.777044 152.619029 
L 1240.240222 151.259691 
L 1240.7034 146.665047 
L 1241.166578 148.892331 
L 1241.629756 148.836058 
L 1242.092934 153.021132 
L 1242.556113 153.929382 
L 1243.019291 148.376603 
L 1243.482469 147.202505 
L 1243.945647 147.826508 
L 1244.408825 147.613739 
L 1244.872003 151.546504 
L 1245.335182 151.458293 
L 1246.261538 145.766202 
L 1246.724716 148.565173 
L 1247.651072 143.403251 
L 1248.114251 140.53964 
L 1248.577429 135.159325 
L 1249.040607 131.695282 
L 1249.503785 137.85731 
L 1250.430141 133.570485 
L 1251.356498 128.002952 
L 1251.819676 126.036794 
L 1252.282854 125.654755 
L 1253.20921 131.511394 
L 1253.672389 133.211703 
L 1254.135567 136.215077 
L 1254.598745 136.363206 
L 1255.061923 138.469126 
L 1255.525101 139.307112 
L 1255.988279 141.828224 
L 1256.451458 140.698839 
L 1256.914636 142.30014 
L 1257.377814 141.426258 
L 1257.840992 141.258202 
L 1258.30417 145.082379 
L 1258.767348 147.878156 
L 1259.230527 146.665732 
L 1259.693705 149.784082 
L 1260.156883 141.986072 
L 1260.620061 141.875504 
L 1261.083239 143.943098 
L 1262.009596 137.449367 
L 1262.472774 134.119463 
L 1262.935952 134.906349 
L 1263.39913 140.787324 
L 1263.862308 141.420908 
L 1264.325486 143.526828 
L 1264.788665 144.189157 
L 1265.251843 143.902931 
L 1265.715021 146.002463 
L 1266.178199 142.228623 
L 1266.641377 144.296217 
L 1267.104555 140.995057 
L 1267.567734 142.899768 
L 1268.49409 155.996721 
L 1269.420446 149.557284 
L 1269.883624 144.119481 
L 1270.346803 142.875119 
L 1271.273159 130.44414 
L 1271.736337 126.849151 
L 1272.199515 124.969226 
L 1272.662693 126.059522 
L 1273.125872 128.513565 
L 1273.58905 127.85686 
L 1274.052228 125.069899 
L 1274.515406 120.424155 
L 1274.978584 114.481734 
L 1275.441762 117.280705 
L 1275.904941 118.109111 
L 1276.368119 118.180589 
L 1276.831297 123.326993 
L 1277.294475 125.519145 
L 1277.757653 129.458298 
L 1278.220831 132.196588 
L 1278.68401 127.541262 
L 1279.147188 124.479636 
L 1279.610366 126.6143 
L 1280.073544 130.250043 
L 1280.536722 135.795671 
L 1280.9999 135.400856 
L 1281.926257 139.108078 
L 1282.389435 147.448268 
L 1282.852613 150.525099 
L 1283.315791 150.941506 
L 1283.778969 151.888081 
L 1284.705326 160.060215 
L 1285.168504 166.056167 
L 1285.631682 163.891995 
L 1286.09486 163.577024 
L 1286.558038 163.843324 
L 1287.021217 167.111781 
L 1287.484395 172.088915 
L 1287.947573 174.558926 
L 1288.410751 179.698943 
L 1288.873929 180.763689 
L 1289.337107 183.878845 
L 1289.800286 183.554293 
L 1290.263464 184.730821 
L 1290.726642 181.809722 
L 1291.18982 175.372264 
L 1292.116176 175.16071 
L 1292.579355 171.610435 
L 1293.505711 168.313683 
L 1293.968889 170.544161 
L 1294.432067 175.856642 
L 1295.358424 174.351604 
L 1295.821602 176.869523 
L 1297.211136 167.454692 
L 1297.674314 169.512705 
L 1298.137493 160.258328 
L 1298.600671 161.735072 
L 1299.063849 157.881387 
L 1299.527027 160.654808 
L 1299.990205 156.488132 
L 1300.453383 157.345281 
L 1300.916562 150.348911 
L 1301.37974 153.754701 
L 1301.842918 150.380084 
L 1302.306096 151.364985 
L 1302.769274 148.424723 
L 1303.232452 135.839227 
L 1304.158809 129.431728 
L 1304.621987 128.254436 
L 1305.085165 130.928849 
L 1305.548343 124.1273 
L 1306.011521 121.947159 
L 1306.4747 136.246954 
L 1307.401056 136.379114 
L 1307.864234 135.246535 
L 1308.327412 134.698418 
L 1308.79059 129.375592 
L 1309.716947 136.9441 
L 1310.180125 167.934621 
L 1310.643303 170.420602 
L 1311.106481 176.058849 
L 1311.569659 176.420962 
L 1312.032838 184.266115 
L 1312.496016 198.058098 
L 1315.738263 192.176359 
L 1316.201441 156.566859 
L 1316.664619 149.321373 
L 1317.127797 140.041446 
L 1317.590975 139.736057 
L 1318.98051 113.153411 
L 1319.443688 118.370079 
L 1319.906866 121.654506 
L 1320.370044 127.059607 
L 1323.149113 128.673683 
L 1323.612292 124.519782 
L 1324.538648 132.97297 
L 1325.001826 131.562531 
L 1325.465004 134.888477 
L 1325.928182 132.951064 
L 1326.391361 129.285812 
L 1326.854539 130.615642 
L 1327.317717 131.498342 
L 1327.780895 130.055965 
L 1328.244073 124.139095 
L 1328.707251 115.261584 
L 1329.17043 114.164137 
L 1329.633608 118.393924 
L 1330.096786 119.350081 
L 1330.559964 117.425443 
L 1332.412677 139.413131 
L 1333.802211 146.446299 
L 1334.265389 137.616695 
L 1334.728568 135.043719 
L 1335.654924 134.943947 
L 1336.58128 140.23848 
L 1337.044458 139.316691 
L 1337.507637 148.487265 
L 1337.970815 150.48779 
L 1338.433993 150.281409 
L 1339.360349 160.472016 
L 1339.823527 160.134689 
L 1340.286706 160.669267 
L 1340.749884 154.704489 
L 1341.213062 165.746622 
L 1341.67624 163.831565 
L 1342.139418 160.600669 
L 1342.602596 154.303737 
L 1343.528953 154.884242 
L 1343.992131 154.15408 
L 1344.455309 146.560472 
L 1344.918487 153.725348 
L 1345.381665 154.304639 
L 1345.844844 154.625232 
L 1346.308022 153.004003 
L 1346.7712 153.107419 
L 1347.234378 158.151622 
L 1347.697556 156.600657 
L 1348.160734 154.624918 
L 1349.087091 157.185571 
L 1349.550269 157.732923 
L 1350.013447 156.025462 
L 1350.476625 151.101859 
L 1350.939803 149.672257 
L 1351.402982 149.414775 
L 1351.86616 143.635238 
L 1352.329338 146.977153 
L 1352.792516 147.786395 
L 1353.255694 147.656665 
L 1353.718872 150.541868 
L 1354.182051 156.857198 
L 1354.645229 158.346717 
L 1355.108407 165.81181 
L 1356.034763 164.418555 
L 1356.497941 165.084078 
L 1356.96112 167.911793 
L 1357.424298 163.103166 
L 1357.887476 160.862343 
L 1358.350654 149.551168 
L 1358.813832 144.972493 
L 1359.27701 142.948848 
L 1359.740189 141.857787 
L 1360.203367 135.819553 
L 1360.666545 131.962674 
L 1361.129723 129.709076 
L 1361.592901 137.017673 
L 1362.056079 148.350441 
L 1362.519258 153.902456 
L 1362.982436 152.926372 
L 1363.445614 157.414856 
L 1363.908792 163.324575 
L 1364.37197 163.750564 
L 1364.835148 166.11518 
L 1365.298327 153.612723 
L 1366.224683 160.51373 
L 1366.687861 155.232423 
L 1367.151039 154.962166 
L 1367.614217 160.913404 
L 1368.077396 159.972452 
L 1368.540574 160.835989 
L 1369.003752 155.442899 
L 1369.46693 159.65033 
L 1369.930108 162.32155 
L 1370.856465 159.519835 
L 1371.319643 160.884797 
L 1371.782821 167.637675 
L 1372.245999 169.970354 
L 1373.172355 176.76916 
L 1373.635534 176.438221 
L 1374.098712 181.038488 
L 1374.56189 180.113505 
L 1375.488246 181.783091 
L 1375.951424 178.280722 
L 1376.414603 179.514739 
L 1376.877781 181.09049 
L 1377.340959 179.351091 
L 1378.267315 196.79798 
L 1378.730493 194.250554 
L 1379.193672 193.328765 
L 1379.65685 193.825016 
L 1380.120028 201.047381 
L 1380.583206 205.369789 
L 1381.509562 188.326982 
L 1381.972741 188.181283 
L 1382.435919 189.210897 
L 1382.899097 194.785268 
L 1383.362275 190.851738 
L 1383.825453 189.37423 
L 1384.288631 195.929094 
L 1384.75181 200.277052 
L 1385.214988 201.338603 
L 1385.678166 205.086129 
L 1386.141344 206.1892 
L 1386.604522 203.363914 
L 1387.0677 203.67812 
L 1387.530879 206.221589 
L 1387.994057 201.639721 
L 1388.457235 203.333642 
L 1388.920413 200.530713 
L 1389.383591 195.817899 
L 1389.846769 199.022481 
L 1390.309948 198.822488 
L 1390.773126 189.683087 
L 1391.236304 191.945502 
L 1391.699482 197.174945 
L 1392.625838 201.185576 
L 1393.089017 201.084589 
L 1406.984362 194.695038 
L 1407.44754 191.6909 
L 1408.373896 169.42306 
L 1409.300252 155.966875 
L 1409.763431 152.908443 
L 1410.226609 145.841809 
L 1410.689787 143.945915 
L 1411.152965 140.168881 
L 1414.395212 142.856069 
L 1414.85839 145.760436 
L 1415.321568 144.033812 
L 1416.247925 149.309183 
L 1416.711103 151.568404 
L 1417.174281 158.768413 
L 1417.637459 154.215289 
L 1418.100637 151.923365 
L 1418.563816 148.334764 
L 1419.026994 140.699637 
L 1419.490172 139.902405 
L 1419.95335 137.29749 
L 1420.416528 132.338755 
L 1420.879706 133.920894 
L 1421.342885 133.117275 
L 1421.806063 132.559577 
L 1422.269241 125.007488 
L 1422.732419 123.696057 
L 1423.195597 117.191529 
L 1423.658775 118.984458 
L 1424.121954 117.27061 
L 1424.585132 117.150461 
L 1425.04831 114.076059 
L 1426.437844 127.184572 
L 1426.901023 129.945218 
L 1427.364201 142.101983 
L 1427.827379 148.889993 
L 1428.753735 144.416713 
L 1429.216913 143.756815 
L 1436.164586 146.7027 
L 1437.090942 133.348716 
L 1438.017299 119.985151 
L 1438.480477 122.85758 
L 1439.406833 112.534499 
L 1439.870011 104.516117 
L 1440.333189 111.182763 
L 1440.796368 109.072886 
L 1441.259546 102.03819 
L 1441.722724 99.561026 
L 1442.185902 95.879806 
L 1442.64908 101.256163 
L 1443.112258 109.005502 
L 1443.575437 104.187294 
L 1444.038615 105.335078 
L 1444.501793 105.313936 
L 1445.428149 111.260002 
L 1445.891327 107.157202 
L 1446.354506 106.085304 
L 1454.228534 103.509134 
L 1457.007603 92.36525 
L 1457.470782 85.691452 
L 1457.93396 81.218172 
L 1458.860316 90.661433 
L 1459.786672 101.599387 
L 1460.713029 107.101516 
L 1461.176207 108.456896 
L 1474.145196 104.334933 
L 1474.608374 98.140203 
L 1475.071552 88.889019 
L 1475.53473 86.785529 
L 1475.997908 86.470559 
L 1476.461086 85.12719 
L 1476.924265 82.343423 
L 1477.387443 75.548261 
L 1477.850621 73.019997 
L 1478.313799 74.749051 
L 1478.776977 73.565371 
L 1479.240155 72.014405 
L 1479.703334 72.823648 
L 1480.166512 74.169447 
L 1480.62969 78.734582 
L 1481.092868 75.915684 
L 1481.556046 76.411935 
L 1482.019224 77.262697 
L 1482.482403 75.759639 
L 1482.945581 77.421622 
L 1483.408759 75.694999 
L 1483.871937 76.702256 
L 1484.335115 82.449092 
L 1484.798293 83.833216 
L 1485.261472 84.406119 
L 1485.72465 84.528697 
L 1486.187828 81.080623 
L 1486.651006 80.800785 
L 1487.577362 76.32872 
L 1488.040541 74.915088 
L 1488.503719 80.32977 
L 1489.430075 87.511831 
L 1489.893253 89.678432 
L 1490.356431 88.130661 
L 1490.81961 87.719877 
L 1491.282788 88.08199 
L 1491.745966 83.065767 
L 1492.209144 81.412601 
L 1492.672322 75.728876 
L 1493.1355 74.427026 
L 1493.598679 77.551764 
L 1494.061857 81.506886 
L 1494.525035 87.062094 
L 1494.988213 86.555497 
L 1495.451391 82.628355 
L 1495.914569 83.274715 
L 1496.377748 87.395914 
L 1496.840926 88.872658 
L 1497.304104 88.145689 
L 1497.767282 84.624158 
L 1498.23046 82.689938 
L 1498.693638 78.20069 
L 1499.619995 85.053791 
L 1500.546351 72.632392 
L 1501.009529 70.458639 
L 1501.472707 73.222479 
L 1502.399064 82.314751 
L 1502.862242 80.132958 
L 1503.32542 74.03239 
L 1503.788598 79.835063 
L 1504.251776 83.204071 
L 1504.714955 83.280285 
L 1505.178133 87.779893 
L 1505.641311 87.129575 
L 1506.567667 88.783192 
L 1507.494024 77.332705 
L 1507.957202 76.720713 
L 1508.42038 69.539103 
L 1508.883558 65.193575 
L 1509.346736 66.152925 
L 1509.809914 68.319527 
L 1510.273093 71.623116 
L 1510.736271 78.462227 
L 1511.662627 82.201387 
L 1512.125805 87.251977 
L 1512.588983 86.841193 
L 1513.052161 84.070202 
L 1513.51534 78.012805 
L 1513.978518 78.665552 
L 1514.441696 81.263315 
L 1514.904874 87.581838 
L 1515.368052 84.082664 
L 1515.83123 74.534458 
L 1516.294409 72.472487 
L 1516.757587 80.643407 
L 1517.220765 84.004484 
L 1517.683943 85.206563 
L 1518.147121 82.013991 
L 1518.610299 86.435406 
L 1519.073478 92.958332 
L 1519.536656 96.772927 
L 1519.999834 92.791491 
L 1520.92619 74.749029 
L 1521.389368 70.291719 
L 1521.852547 68.488444 
L 1522.315725 74.650473 
L 1523.705259 85.58964 
L 1524.168437 92.914207 
L 1524.631616 96.824616 
L 1525.094794 89.984741 
L 1525.557972 80.56748 
L 1526.484328 68.401585 
L 1526.947506 70.935472 
L 1527.410685 70.515107 
L 1527.873863 67.68024 
L 1528.337041 75.697858 
L 1528.800219 81.546895 
L 1529.263397 79.328428 
L 1529.726575 85.873711 
L 1530.189754 77.810616 
L 1530.652932 74.094264 
L 1531.11611 74.861987 
L 1532.505644 88.911903 
L 1532.968823 84.591925 
L 1533.432001 86.017568 
L 1533.895179 90.106829 
L 1534.358357 90.385903 
L 1534.821535 83.536447 
L 1535.284713 74.515216 
L 1535.747892 70.865933 
L 1536.21107 75.958043 
L 1536.674248 79.466035 
L 1537.137426 81.782745 
L 1537.600604 85.351419 
L 1538.526961 107.464429 
L 1538.990139 110.202719 
L 1539.453317 110.76604 
L 1539.916495 115.989095 
L 1540.379673 115.706063 
L 1540.842851 119.079916 
L 1541.30603 109.419927 
L 1541.769208 108.252217 
L 1542.232386 112.30954 
L 1543.158742 115.103338 
L 1543.62192 117.975767 
L 1544.085099 123.706634 
L 1544.548277 120.533225 
L 1545.011455 126.018171 
L 1545.474633 128.628709 
L 1545.937811 135.403944 
L 1546.400989 136.928594 
L 1546.864168 134.186347 
L 1547.327346 127.531712 
L 1547.790524 134.14087 
L 1548.253702 129.699528 
L 1548.71688 122.81494 
L 1549.180058 118.64507 
L 1549.643237 116.027381 
L 1550.106415 115.683667 
L 1551.032771 108.867363 
L 1551.495949 108.210658 
L 1551.959127 111.376915 
L 1552.422306 109.867469 
L 1552.885484 112.838904 
L 1553.348662 114.079308 
L 1553.81184 113.499254 
L 1554.275018 110.127831 
L 1554.738196 111.336297 
L 1555.201375 109.881145 
L 1555.664553 111.309982 
L 1556.127731 105.578351 
L 1556.590909 103.647325 
L 1556.590909 103.647325 
" clip-path="url(#p38122d8419)" style="fill: none; stroke: #3ba3ec; stroke-width: 2.5; stroke-linecap: square"/>
   </g>
   <g id="patch_3">
    <path d="M 225 320.4 
L 225 43.2 
" style="fill: none; stroke: #000000; stroke-width: 0.8; stroke-linejoin: miter; stroke-linecap: square"/>
   </g>
   <g id="patch_4">
    <path d="M 1620 320.4 
L 1620 43.2 
" style="fill: none; stroke: #000000; stroke-width: 0.8; stroke-linejoin: miter; stroke-linecap: square"/>
   </g>
   <g id="patch_5">
    <path d="M 225 320.4 
L 1620 320.4 
" style="fill: none; stroke: #000000; stroke-width: 0.8; stroke-linejoin: miter; stroke-linecap: square"/>
   </g>
   <g id="patch_6">
    <path d="M 225 43.2 
L 1620 43.2 
" style="fill: none; stroke: #000000; stroke-width: 0.8; stroke-linejoin: miter; stroke-linecap: square"/>
   </g>
   <g id="text_18">
    <!-- PAZO -->
    <g transform="translate(895.545313 37.2) scale(0.2 -0.2)">
     <defs>
      <path id="DejaVuSans-50" d="M 1259 4147 
L 1259 2394 
L 2053 2394 
Q 2494 2394 2734 2622 
Q 2975 2850 2975 3272 
Q 2975 3691 2734 3919 
Q 2494 4147 2053 4147 
L 1259 4147 
z
M 628 4666 
L 2053 4666 
Q 2838 4666 3239 4311 
Q 3641 3956 3641 3272 
Q 3641 2581 3239 2228 
Q 2838 1875 2053 1875 
L 1259 1875 
L 1259 0 
L 628 0 
L 628 4666 
z
" transform="scale(0.015625)"/>
      <path id="DejaVuSans-41" d="M 2188 4044 
L 1331 1722 
L 3047 1722 
L 2188 4044 
z
M 1831 4666 
L 2547 4666 
L 4325 0 
L 3669 0 
L 3244 1197 
L 1141 1197 
L 716 0 
L 50 0 
L 1831 4666 
z
" transform="scale(0.015625)"/>
      <path id="DejaVuSans-5a" d="M 359 4666 
L 4025 4666 
L 4025 4184 
L 1075 531 
L 4097 531 
L 4097 0 
L 288 0 
L 288 481 
L 3238 4134 
L 359 4134 
L 359 4666 
z
" transform="scale(0.015625)"/>
      <path id="DejaVuSans-4f" d="M 2522 4238 
Q 1834 4238 1429 3725 
Q 1025 3213 1025 2328 
Q 1025 1447 1429 934 
Q 1834 422 2522 422 
Q 3209 422 3611 934 
Q 4013 1447 4013 2328 
Q 4013 3213 3611 3725 
Q 3209 4238 2522 4238 
z
M 2522 4750 
Q 3503 4750 4090 4092 
Q 4678 3434 4678 2328 
Q 4678 1225 4090 567 
Q 3503 -91 2522 -91 
Q 1538 -91 948 565 
Q 359 1222 359 2328 
Q 359 3434 948 4092 
Q 1538 4750 2522 4750 
z
" transform="scale(0.015625)"/>
     </defs>
     <use xlink:href="#DejaVuSans-50"/>
     <use xlink:href="#DejaVuSans-41" x="53.927734"/>
     <use xlink:href="#DejaVuSans-5a" x="122.335938"/>
     <use xlink:href="#DejaVuSans-4f" x="190.841797"/>
    </g>
   </g>
   <g id="legend_1">
    <g id="patch_7">
     <path d="M 1557.15625 65.878125 
L 1613 65.878125 
Q 1615 65.878125 1615 63.878125 
L 1615 50.2 
Q 1615 48.2 1613 48.2 
L 1557.15625 48.2 
Q 1555.15625 48.2 1555.15625 50.2 
L 1555.15625 63.878125 
Q 1555.15625 65.878125 1557.15625 65.878125 
z
" style="fill: #ffffff; opacity: 0.8; stroke: #cccccc; stroke-linejoin: miter"/>
    </g>
    <g id="line2d_17">
     <path d="M 1559.15625 56.298437 
L 1569.15625 56.298437 
L 1579.15625 56.298437 
" style="fill: none; stroke: #3ba3ec; stroke-width: 2.5; stroke-linecap: square"/>
    </g>
    <g id="text_19">
     <!-- pazo -->
     <g transform="translate(1587.15625 59.798437) scale(0.1 -0.1)">
      <defs>
       <path id="DejaVuSans-70" d="M 1159 525 
L 1159 -1331 
L 581 -1331 
L 581 3500 
L 1159 3500 
L 1159 2969 
Q 1341 3281 1617 3432 
Q 1894 3584 2278 3584 
Q 2916 3584 3314 3078 
Q 3713 2572 3713 1747 
Q 3713 922 3314 415 
Q 2916 -91 2278 -91 
Q 1894 -91 1617 61 
Q 1341 213 1159 525 
z
M 3116 1747 
Q 3116 2381 2855 2742 
Q 2594 3103 2138 3103 
Q 1681 3103 1420 2742 
Q 1159 2381 1159 1747 
Q 1159 1113 1420 752 
Q 1681 391 2138 391 
Q 2594 391 2855 752 
Q 3116 1113 3116 1747 
z
" transform="scale(0.015625)"/>
       <path id="DejaVuSans-7a" d="M 353 3500 
L 3084 3500 
L 3084 2975 
L 922 459 
L 3084 459 
L 3084 0 
L 275 0 
L 275 525 
L 2438 3041 
L 353 3041 
L 353 3500 
z
" transform="scale(0.015625)"/>
       <path id="DejaVuSans-6f" d="M 1959 3097 
Q 1497 3097 1228 2736 
Q 959 2375 959 1747 
Q 959 1119 1226 758 
Q 1494 397 1959 397 
Q 2419 397 2687 759 
Q 2956 1122 2956 1747 
Q 2956 2369 2687 2733 
Q 2419 3097 1959 3097 
z
M 1959 3584 
Q 2709 3584 3137 3096 
Q 3566 2609 3566 1747 
Q 3566 888 3137 398 
Q 2709 -91 1959 -91 
Q 1206 -91 779 398 
Q 353 888 353 1747 
Q 353 2609 779 3096 
Q 1206 3584 1959 3584 
z
" transform="scale(0.015625)"/>
      </defs>
      <use xlink:href="#DejaVuSans-70"/>
      <use xlink:href="#DejaVuSans-61" x="63.476562"/>
      <use xlink:href="#DejaVuSans-7a" x="124.755859"/>
      <use xlink:href="#DejaVuSans-6f" x="177.246094"/>
     </g>
    </g>
   </g>
  </g>
 </g>
 <defs>
  <clipPath id="p38122d8419">
   <rect x="225" y="43.2" width="1395" height="277.2"/>
  </clipPath>
 </defs>
</svg>
