<?xml version="1.0" encoding="utf-8" standalone="no"?>
<!DOCTYPE svg PUBLIC "-//W3C//DTD SVG 1.1//EN"
  "http://www.w3.org/Graphics/SVG/1.1/DTD/svg11.dtd">
<svg xmlns:xlink="http://www.w3.org/1999/xlink" width="1800pt" height="360pt" viewBox="0 0 1800 360" xmlns="http://www.w3.org/2000/svg" version="1.1">
 <metadata>
  <rdf:RDF xmlns:dc="http://purl.org/dc/elements/1.1/" xmlns:cc="http://creativecommons.org/ns#" xmlns:rdf="http://www.w3.org/1999/02/22-rdf-syntax-ns#">
   <cc:Work>
    <dc:type rdf:resource="http://purl.org/dc/dcmitype/StillImage"/>
    <dc:date>2024-03-19T10:36:36.440382</dc:date>
    <dc:format>image/svg+xml</dc:format>
    <dc:creator>
     <cc:Agent>
      <dc:title>Matplotlib v3.7.2, https://matplotlib.org/</dc:title>
     </cc:Agent>
    </dc:creator>
   </cc:Work>
  </rdf:RDF>
 </metadata>
 <defs>
  <style type="text/css">*{stroke-linejoin: round; stroke-linecap: butt}</style>
 </defs>
 <g id="figure_1">
  <g id="patch_1">
   <path d="M 0 360 
L 1800 360 
L 1800 0 
L 0 0 
z
" style="fill: #ffffff"/>
  </g>
  <g id="axes_1">
   <g id="patch_2">
    <path d="M 225 320.4 
L 1620 320.4 
L 1620 43.2 
L 225 43.2 
z
" style="fill: #ffffff"/>
   </g>
   <g id="matplotlib.axis_1">
    <g id="xtick_1">
     <g id="line2d_1">
      <defs>
       <path id="m098faed8d4" d="M 0 0 
L 0 3.5 
" style="stroke: #000000; stroke-width: 0.8"/>
      </defs>
      <g>
       <use xlink:href="#m098faed8d4" x="281.451254" y="320.4" style="stroke: #000000; stroke-width: 0.8"/>
      </g>
     </g>
     <g id="text_1">
      <!-- 2011 -->
      <g transform="translate(262.363754 338.797656) scale(0.15 -0.15)">
       <defs>
        <path id="DejaVuSans-32" d="M 1228 531 
L 3431 531 
L 3431 0 
L 469 0 
L 469 531 
Q 828 903 1448 1529 
Q 2069 2156 2228 2338 
Q 2531 2678 2651 2914 
Q 2772 3150 2772 3378 
Q 2772 3750 2511 3984 
Q 2250 4219 1831 4219 
Q 1534 4219 1204 4116 
Q 875 4013 500 3803 
L 500 4441 
Q 881 4594 1212 4672 
Q 1544 4750 1819 4750 
Q 2544 4750 2975 4387 
Q 3406 4025 3406 3419 
Q 3406 3131 3298 2873 
Q 3191 2616 2906 2266 
Q 2828 2175 2409 1742 
Q 1991 1309 1228 531 
z
" transform="scale(0.015625)"/>
        <path id="DejaVuSans-30" d="M 2034 4250 
Q 1547 4250 1301 3770 
Q 1056 3291 1056 2328 
Q 1056 1369 1301 889 
Q 1547 409 2034 409 
Q 2525 409 2770 889 
Q 3016 1369 3016 2328 
Q 3016 3291 2770 3770 
Q 2525 4250 2034 4250 
z
M 2034 4750 
Q 2819 4750 3233 4129 
Q 3647 3509 3647 2328 
Q 3647 1150 3233 529 
Q 2819 -91 2034 -91 
Q 1250 -91 836 529 
Q 422 1150 422 2328 
Q 422 3509 836 4129 
Q 1250 4750 2034 4750 
z
" transform="scale(0.015625)"/>
        <path id="DejaVuSans-31" d="M 794 531 
L 1825 531 
L 1825 4091 
L 703 3866 
L 703 4441 
L 1819 4666 
L 2450 4666 
L 2450 531 
L 3481 531 
L 3481 0 
L 794 0 
L 794 531 
z
" transform="scale(0.015625)"/>
       </defs>
       <use xlink:href="#DejaVuSans-32"/>
       <use xlink:href="#DejaVuSans-30" x="63.623047"/>
       <use xlink:href="#DejaVuSans-31" x="127.246094"/>
       <use xlink:href="#DejaVuSans-31" x="190.869141"/>
      </g>
     </g>
    </g>
    <g id="xtick_2">
     <g id="line2d_2">
      <g>
       <use xlink:href="#m098faed8d4" x="450.758629" y="320.4" style="stroke: #000000; stroke-width: 0.8"/>
      </g>
     </g>
     <g id="text_2">
      <!-- 2012 -->
      <g transform="translate(431.671129 338.797656) scale(0.15 -0.15)">
       <use xlink:href="#DejaVuSans-32"/>
       <use xlink:href="#DejaVuSans-30" x="63.623047"/>
       <use xlink:href="#DejaVuSans-31" x="127.246094"/>
       <use xlink:href="#DejaVuSans-32" x="190.869141"/>
      </g>
     </g>
    </g>
    <g id="xtick_3">
     <g id="line2d_3">
      <g>
       <use xlink:href="#m098faed8d4" x="620.52986" y="320.4" style="stroke: #000000; stroke-width: 0.8"/>
      </g>
     </g>
     <g id="text_3">
      <!-- 2013 -->
      <g transform="translate(601.44236 338.797656) scale(0.15 -0.15)">
       <defs>
        <path id="DejaVuSans-33" d="M 2597 2516 
Q 3050 2419 3304 2112 
Q 3559 1806 3559 1356 
Q 3559 666 3084 287 
Q 2609 -91 1734 -91 
Q 1441 -91 1130 -33 
Q 819 25 488 141 
L 488 750 
Q 750 597 1062 519 
Q 1375 441 1716 441 
Q 2309 441 2620 675 
Q 2931 909 2931 1356 
Q 2931 1769 2642 2001 
Q 2353 2234 1838 2234 
L 1294 2234 
L 1294 2753 
L 1863 2753 
Q 2328 2753 2575 2939 
Q 2822 3125 2822 3475 
Q 2822 3834 2567 4026 
Q 2313 4219 1838 4219 
Q 1578 4219 1281 4162 
Q 984 4106 628 3988 
L 628 4550 
Q 988 4650 1302 4700 
Q 1616 4750 1894 4750 
Q 2613 4750 3031 4423 
Q 3450 4097 3450 3541 
Q 3450 3153 3228 2886 
Q 3006 2619 2597 2516 
z
" transform="scale(0.015625)"/>
       </defs>
       <use xlink:href="#DejaVuSans-32"/>
       <use xlink:href="#DejaVuSans-30" x="63.623047"/>
       <use xlink:href="#DejaVuSans-31" x="127.246094"/>
       <use xlink:href="#DejaVuSans-33" x="190.869141"/>
      </g>
     </g>
    </g>
    <g id="xtick_4">
     <g id="line2d_4">
      <g>
       <use xlink:href="#m098faed8d4" x="789.837235" y="320.4" style="stroke: #000000; stroke-width: 0.8"/>
      </g>
     </g>
     <g id="text_4">
      <!-- 2014 -->
      <g transform="translate(770.749735 338.797656) scale(0.15 -0.15)">
       <defs>
        <path id="DejaVuSans-34" d="M 2419 4116 
L 825 1625 
L 2419 1625 
L 2419 4116 
z
M 2253 4666 
L 3047 4666 
L 3047 1625 
L 3713 1625 
L 3713 1100 
L 3047 1100 
L 3047 0 
L 2419 0 
L 2419 1100 
L 313 1100 
L 313 1709 
L 2253 4666 
z
" transform="scale(0.015625)"/>
       </defs>
       <use xlink:href="#DejaVuSans-32"/>
       <use xlink:href="#DejaVuSans-30" x="63.623047"/>
       <use xlink:href="#DejaVuSans-31" x="127.246094"/>
       <use xlink:href="#DejaVuSans-34" x="190.869141"/>
      </g>
     </g>
    </g>
    <g id="xtick_5">
     <g id="line2d_5">
      <g>
       <use xlink:href="#m098faed8d4" x="959.14461" y="320.4" style="stroke: #000000; stroke-width: 0.8"/>
      </g>
     </g>
     <g id="text_5">
      <!-- 2015 -->
      <g transform="translate(940.05711 338.797656) scale(0.15 -0.15)">
       <defs>
        <path id="DejaVuSans-35" d="M 691 4666 
L 3169 4666 
L 3169 4134 
L 1269 4134 
L 1269 2991 
Q 1406 3038 1543 3061 
Q 1681 3084 1819 3084 
Q 2600 3084 3056 2656 
Q 3513 2228 3513 1497 
Q 3513 744 3044 326 
Q 2575 -91 1722 -91 
Q 1428 -91 1123 -41 
Q 819 9 494 109 
L 494 744 
Q 775 591 1075 516 
Q 1375 441 1709 441 
Q 2250 441 2565 725 
Q 2881 1009 2881 1497 
Q 2881 1984 2565 2268 
Q 2250 2553 1709 2553 
Q 1456 2553 1204 2497 
Q 953 2441 691 2322 
L 691 4666 
z
" transform="scale(0.015625)"/>
       </defs>
       <use xlink:href="#DejaVuSans-32"/>
       <use xlink:href="#DejaVuSans-30" x="63.623047"/>
       <use xlink:href="#DejaVuSans-31" x="127.246094"/>
       <use xlink:href="#DejaVuSans-35" x="190.869141"/>
      </g>
     </g>
    </g>
    <g id="xtick_6">
     <g id="line2d_6">
      <g>
       <use xlink:href="#m098faed8d4" x="1128.451985" y="320.4" style="stroke: #000000; stroke-width: 0.8"/>
      </g>
     </g>
     <g id="text_6">
      <!-- 2016 -->
      <g transform="translate(1109.364485 338.797656) scale(0.15 -0.15)">
       <defs>
        <path id="DejaVuSans-36" d="M 2113 2584 
Q 1688 2584 1439 2293 
Q 1191 2003 1191 1497 
Q 1191 994 1439 701 
Q 1688 409 2113 409 
Q 2538 409 2786 701 
Q 3034 994 3034 1497 
Q 3034 2003 2786 2293 
Q 2538 2584 2113 2584 
z
M 3366 4563 
L 3366 3988 
Q 3128 4100 2886 4159 
Q 2644 4219 2406 4219 
Q 1781 4219 1451 3797 
Q 1122 3375 1075 2522 
Q 1259 2794 1537 2939 
Q 1816 3084 2150 3084 
Q 2853 3084 3261 2657 
Q 3669 2231 3669 1497 
Q 3669 778 3244 343 
Q 2819 -91 2113 -91 
Q 1303 -91 875 529 
Q 447 1150 447 2328 
Q 447 3434 972 4092 
Q 1497 4750 2381 4750 
Q 2619 4750 2861 4703 
Q 3103 4656 3366 4563 
z
" transform="scale(0.015625)"/>
       </defs>
       <use xlink:href="#DejaVuSans-32"/>
       <use xlink:href="#DejaVuSans-30" x="63.623047"/>
       <use xlink:href="#DejaVuSans-31" x="127.246094"/>
       <use xlink:href="#DejaVuSans-36" x="190.869141"/>
      </g>
     </g>
    </g>
    <g id="xtick_7">
     <g id="line2d_7">
      <g>
       <use xlink:href="#m098faed8d4" x="1298.223216" y="320.4" style="stroke: #000000; stroke-width: 0.8"/>
      </g>
     </g>
     <g id="text_7">
      <!-- 2017 -->
      <g transform="translate(1279.135716 338.797656) scale(0.15 -0.15)">
       <defs>
        <path id="DejaVuSans-37" d="M 525 4666 
L 3525 4666 
L 3525 4397 
L 1831 0 
L 1172 0 
L 2766 4134 
L 525 4134 
L 525 4666 
z
" transform="scale(0.015625)"/>
       </defs>
       <use xlink:href="#DejaVuSans-32"/>
       <use xlink:href="#DejaVuSans-30" x="63.623047"/>
       <use xlink:href="#DejaVuSans-31" x="127.246094"/>
       <use xlink:href="#DejaVuSans-37" x="190.869141"/>
      </g>
     </g>
    </g>
    <g id="xtick_8">
     <g id="line2d_8">
      <g>
       <use xlink:href="#m098faed8d4" x="1467.530591" y="320.4" style="stroke: #000000; stroke-width: 0.8"/>
      </g>
     </g>
     <g id="text_8">
      <!-- 2018 -->
      <g transform="translate(1448.443091 338.797656) scale(0.15 -0.15)">
       <defs>
        <path id="DejaVuSans-38" d="M 2034 2216 
Q 1584 2216 1326 1975 
Q 1069 1734 1069 1313 
Q 1069 891 1326 650 
Q 1584 409 2034 409 
Q 2484 409 2743 651 
Q 3003 894 3003 1313 
Q 3003 1734 2745 1975 
Q 2488 2216 2034 2216 
z
M 1403 2484 
Q 997 2584 770 2862 
Q 544 3141 544 3541 
Q 544 4100 942 4425 
Q 1341 4750 2034 4750 
Q 2731 4750 3128 4425 
Q 3525 4100 3525 3541 
Q 3525 3141 3298 2862 
Q 3072 2584 2669 2484 
Q 3125 2378 3379 2068 
Q 3634 1759 3634 1313 
Q 3634 634 3220 271 
Q 2806 -91 2034 -91 
Q 1263 -91 848 271 
Q 434 634 434 1313 
Q 434 1759 690 2068 
Q 947 2378 1403 2484 
z
M 1172 3481 
Q 1172 3119 1398 2916 
Q 1625 2713 2034 2713 
Q 2441 2713 2670 2916 
Q 2900 3119 2900 3481 
Q 2900 3844 2670 4047 
Q 2441 4250 2034 4250 
Q 1625 4250 1398 4047 
Q 1172 3844 1172 3481 
z
" transform="scale(0.015625)"/>
       </defs>
       <use xlink:href="#DejaVuSans-32"/>
       <use xlink:href="#DejaVuSans-30" x="63.623047"/>
       <use xlink:href="#DejaVuSans-31" x="127.246094"/>
       <use xlink:href="#DejaVuSans-38" x="190.869141"/>
      </g>
     </g>
    </g>
    <g id="text_9">
     <!-- Time -->
     <g transform="translate(904.149609 357.314844) scale(0.15 -0.15)">
      <defs>
       <path id="DejaVuSans-54" d="M -19 4666 
L 3928 4666 
L 3928 4134 
L 2272 4134 
L 2272 0 
L 1638 0 
L 1638 4134 
L -19 4134 
L -19 4666 
z
" transform="scale(0.015625)"/>
       <path id="DejaVuSans-69" d="M 603 3500 
L 1178 3500 
L 1178 0 
L 603 0 
L 603 3500 
z
M 603 4863 
L 1178 4863 
L 1178 4134 
L 603 4134 
L 603 4863 
z
" transform="scale(0.015625)"/>
       <path id="DejaVuSans-6d" d="M 3328 2828 
Q 3544 3216 3844 3400 
Q 4144 3584 4550 3584 
Q 5097 3584 5394 3201 
Q 5691 2819 5691 2113 
L 5691 0 
L 5113 0 
L 5113 2094 
Q 5113 2597 4934 2840 
Q 4756 3084 4391 3084 
Q 3944 3084 3684 2787 
Q 3425 2491 3425 1978 
L 3425 0 
L 2847 0 
L 2847 2094 
Q 2847 2600 2669 2842 
Q 2491 3084 2119 3084 
Q 1678 3084 1418 2786 
Q 1159 2488 1159 1978 
L 1159 0 
L 581 0 
L 581 3500 
L 1159 3500 
L 1159 2956 
Q 1356 3278 1631 3431 
Q 1906 3584 2284 3584 
Q 2666 3584 2933 3390 
Q 3200 3197 3328 2828 
z
" transform="scale(0.015625)"/>
       <path id="DejaVuSans-65" d="M 3597 1894 
L 3597 1613 
L 953 1613 
Q 991 1019 1311 708 
Q 1631 397 2203 397 
Q 2534 397 2845 478 
Q 3156 559 3463 722 
L 3463 178 
Q 3153 47 2828 -22 
Q 2503 -91 2169 -91 
Q 1331 -91 842 396 
Q 353 884 353 1716 
Q 353 2575 817 3079 
Q 1281 3584 2069 3584 
Q 2775 3584 3186 3129 
Q 3597 2675 3597 1894 
z
M 3022 2063 
Q 3016 2534 2758 2815 
Q 2500 3097 2075 3097 
Q 1594 3097 1305 2825 
Q 1016 2553 972 2059 
L 3022 2063 
z
" transform="scale(0.015625)"/>
      </defs>
      <use xlink:href="#DejaVuSans-54"/>
      <use xlink:href="#DejaVuSans-69" x="57.958984"/>
      <use xlink:href="#DejaVuSans-6d" x="85.742188"/>
      <use xlink:href="#DejaVuSans-65" x="183.154297"/>
     </g>
    </g>
   </g>
   <g id="matplotlib.axis_2">
    <g id="ytick_1">
     <g id="line2d_9">
      <defs>
       <path id="mcc9ddbdf98" d="M 0 0 
L -3.5 0 
" style="stroke: #000000; stroke-width: 0.8"/>
      </defs>
      <g>
       <use xlink:href="#mcc9ddbdf98" x="225" y="318.524147" style="stroke: #000000; stroke-width: 0.8"/>
      </g>
     </g>
     <g id="text_10">
      <!-- −0.003 -->
      <g transform="translate(162.488281 324.222975) scale(0.15 -0.15)">
       <defs>
        <path id="DejaVuSans-2212" d="M 678 2272 
L 4684 2272 
L 4684 1741 
L 678 1741 
L 678 2272 
z
" transform="scale(0.015625)"/>
        <path id="DejaVuSans-2e" d="M 684 794 
L 1344 794 
L 1344 0 
L 684 0 
L 684 794 
z
" transform="scale(0.015625)"/>
       </defs>
       <use xlink:href="#DejaVuSans-2212"/>
       <use xlink:href="#DejaVuSans-30" x="83.789062"/>
       <use xlink:href="#DejaVuSans-2e" x="147.412109"/>
       <use xlink:href="#DejaVuSans-30" x="179.199219"/>
       <use xlink:href="#DejaVuSans-30" x="242.822266"/>
       <use xlink:href="#DejaVuSans-33" x="306.445312"/>
      </g>
     </g>
    </g>
    <g id="ytick_2">
     <g id="line2d_10">
      <g>
       <use xlink:href="#mcc9ddbdf98" x="225" y="269.477819" style="stroke: #000000; stroke-width: 0.8"/>
      </g>
     </g>
     <g id="text_11">
      <!-- −0.002 -->
      <g transform="translate(162.488281 275.176647) scale(0.15 -0.15)">
       <use xlink:href="#DejaVuSans-2212"/>
       <use xlink:href="#DejaVuSans-30" x="83.789062"/>
       <use xlink:href="#DejaVuSans-2e" x="147.412109"/>
       <use xlink:href="#DejaVuSans-30" x="179.199219"/>
       <use xlink:href="#DejaVuSans-30" x="242.822266"/>
       <use xlink:href="#DejaVuSans-32" x="306.445312"/>
      </g>
     </g>
    </g>
    <g id="ytick_3">
     <g id="line2d_11">
      <g>
       <use xlink:href="#mcc9ddbdf98" x="225" y="220.431492" style="stroke: #000000; stroke-width: 0.8"/>
      </g>
     </g>
     <g id="text_12">
      <!-- −0.001 -->
      <g transform="translate(162.488281 226.13032) scale(0.15 -0.15)">
       <use xlink:href="#DejaVuSans-2212"/>
       <use xlink:href="#DejaVuSans-30" x="83.789062"/>
       <use xlink:href="#DejaVuSans-2e" x="147.412109"/>
       <use xlink:href="#DejaVuSans-30" x="179.199219"/>
       <use xlink:href="#DejaVuSans-30" x="242.822266"/>
       <use xlink:href="#DejaVuSans-31" x="306.445312"/>
      </g>
     </g>
    </g>
    <g id="ytick_4">
     <g id="line2d_12">
      <g>
       <use xlink:href="#mcc9ddbdf98" x="225" y="171.385164" style="stroke: #000000; stroke-width: 0.8"/>
      </g>
     </g>
     <g id="text_13">
      <!-- 0.000 -->
      <g transform="translate(175.057813 177.083992) scale(0.15 -0.15)">
       <use xlink:href="#DejaVuSans-30"/>
       <use xlink:href="#DejaVuSans-2e" x="63.623047"/>
       <use xlink:href="#DejaVuSans-30" x="95.410156"/>
       <use xlink:href="#DejaVuSans-30" x="159.033203"/>
       <use xlink:href="#DejaVuSans-30" x="222.65625"/>
      </g>
     </g>
    </g>
    <g id="ytick_5">
     <g id="line2d_13">
      <g>
       <use xlink:href="#mcc9ddbdf98" x="225" y="122.338837" style="stroke: #000000; stroke-width: 0.8"/>
      </g>
     </g>
     <g id="text_14">
      <!-- 0.001 -->
      <g transform="translate(175.057813 128.037665) scale(0.15 -0.15)">
       <use xlink:href="#DejaVuSans-30"/>
       <use xlink:href="#DejaVuSans-2e" x="63.623047"/>
       <use xlink:href="#DejaVuSans-30" x="95.410156"/>
       <use xlink:href="#DejaVuSans-30" x="159.033203"/>
       <use xlink:href="#DejaVuSans-31" x="222.65625"/>
      </g>
     </g>
    </g>
    <g id="ytick_6">
     <g id="line2d_14">
      <g>
       <use xlink:href="#mcc9ddbdf98" x="225" y="73.292509" style="stroke: #000000; stroke-width: 0.8"/>
      </g>
     </g>
     <g id="text_15">
      <!-- 0.002 -->
      <g transform="translate(175.057813 78.991337) scale(0.15 -0.15)">
       <use xlink:href="#DejaVuSans-30"/>
       <use xlink:href="#DejaVuSans-2e" x="63.623047"/>
       <use xlink:href="#DejaVuSans-30" x="95.410156"/>
       <use xlink:href="#DejaVuSans-30" x="159.033203"/>
       <use xlink:href="#DejaVuSans-32" x="222.65625"/>
      </g>
     </g>
    </g>
    <g id="text_16">
     <!-- East(m) -->
     <g transform="translate(155.36875 211.140234) rotate(-90) scale(0.15 -0.15)">
      <defs>
       <path id="DejaVuSans-45" d="M 628 4666 
L 3578 4666 
L 3578 4134 
L 1259 4134 
L 1259 2753 
L 3481 2753 
L 3481 2222 
L 1259 2222 
L 1259 531 
L 3634 531 
L 3634 0 
L 628 0 
L 628 4666 
z
" transform="scale(0.015625)"/>
       <path id="DejaVuSans-61" d="M 2194 1759 
Q 1497 1759 1228 1600 
Q 959 1441 959 1056 
Q 959 750 1161 570 
Q 1363 391 1709 391 
Q 2188 391 2477 730 
Q 2766 1069 2766 1631 
L 2766 1759 
L 2194 1759 
z
M 3341 1997 
L 3341 0 
L 2766 0 
L 2766 531 
Q 2569 213 2275 61 
Q 1981 -91 1556 -91 
Q 1019 -91 701 211 
Q 384 513 384 1019 
Q 384 1609 779 1909 
Q 1175 2209 1959 2209 
L 2766 2209 
L 2766 2266 
Q 2766 2663 2505 2880 
Q 2244 3097 1772 3097 
Q 1472 3097 1187 3025 
Q 903 2953 641 2809 
L 641 3341 
Q 956 3463 1253 3523 
Q 1550 3584 1831 3584 
Q 2591 3584 2966 3190 
Q 3341 2797 3341 1997 
z
" transform="scale(0.015625)"/>
       <path id="DejaVuSans-73" d="M 2834 3397 
L 2834 2853 
Q 2591 2978 2328 3040 
Q 2066 3103 1784 3103 
Q 1356 3103 1142 2972 
Q 928 2841 928 2578 
Q 928 2378 1081 2264 
Q 1234 2150 1697 2047 
L 1894 2003 
Q 2506 1872 2764 1633 
Q 3022 1394 3022 966 
Q 3022 478 2636 193 
Q 2250 -91 1575 -91 
Q 1294 -91 989 -36 
Q 684 19 347 128 
L 347 722 
Q 666 556 975 473 
Q 1284 391 1588 391 
Q 1994 391 2212 530 
Q 2431 669 2431 922 
Q 2431 1156 2273 1281 
Q 2116 1406 1581 1522 
L 1381 1569 
Q 847 1681 609 1914 
Q 372 2147 372 2553 
Q 372 3047 722 3315 
Q 1072 3584 1716 3584 
Q 2034 3584 2315 3537 
Q 2597 3491 2834 3397 
z
" transform="scale(0.015625)"/>
       <path id="DejaVuSans-74" d="M 1172 4494 
L 1172 3500 
L 2356 3500 
L 2356 3053 
L 1172 3053 
L 1172 1153 
Q 1172 725 1289 603 
Q 1406 481 1766 481 
L 2356 481 
L 2356 0 
L 1766 0 
Q 1100 0 847 248 
Q 594 497 594 1153 
L 594 3053 
L 172 3053 
L 172 3500 
L 594 3500 
L 594 4494 
L 1172 4494 
z
" transform="scale(0.015625)"/>
       <path id="DejaVuSans-28" d="M 1984 4856 
Q 1566 4138 1362 3434 
Q 1159 2731 1159 2009 
Q 1159 1288 1364 580 
Q 1569 -128 1984 -844 
L 1484 -844 
Q 1016 -109 783 600 
Q 550 1309 550 2009 
Q 550 2706 781 3412 
Q 1013 4119 1484 4856 
L 1984 4856 
z
" transform="scale(0.015625)"/>
       <path id="DejaVuSans-29" d="M 513 4856 
L 1013 4856 
Q 1481 4119 1714 3412 
Q 1947 2706 1947 2009 
Q 1947 1309 1714 600 
Q 1481 -109 1013 -844 
L 513 -844 
Q 928 -128 1133 580 
Q 1338 1288 1338 2009 
Q 1338 2731 1133 3434 
Q 928 4138 513 4856 
z
" transform="scale(0.015625)"/>
      </defs>
      <use xlink:href="#DejaVuSans-45"/>
      <use xlink:href="#DejaVuSans-61" x="63.183594"/>
      <use xlink:href="#DejaVuSans-73" x="124.462891"/>
      <use xlink:href="#DejaVuSans-74" x="176.5625"/>
      <use xlink:href="#DejaVuSans-28" x="215.771484"/>
      <use xlink:href="#DejaVuSans-6d" x="254.785156"/>
      <use xlink:href="#DejaVuSans-29" x="352.197266"/>
     </g>
    </g>
   </g>
   <g id="line2d_15">
    <path d="M 288.409091 164.574162 
L 288.872947 200.970517 
L 289.336803 201.530355 
L 289.800658 189.060219 
L 290.72837 190.849484 
L 291.192226 186.264363 
L 292.119937 174.541384 
L 292.583793 160.676239 
L 293.511505 161.770224 
L 293.975361 170.221158 
L 294.439217 172.632387 
L 295.366928 200.87797 
L 295.830784 220.098076 
L 296.29464 229.992374 
L 297.222352 243.559092 
L 297.686207 239.699398 
L 298.150063 238.467185 
L 298.613919 235.938749 
L 299.077775 237.873528 
L 299.541631 242.74408 
L 300.005486 233.517316 
L 300.469342 228.858868 
L 300.933198 229.882786 
L 301.397054 228.559488 
L 301.86091 240.695903 
L 302.324766 244.991913 
L 302.788621 236.430778 
L 303.252477 237.931147 
L 303.716333 239.823886 
L 304.644045 228.586223 
L 305.107901 219.478572 
L 305.571756 206.720473 
L 306.035612 186.269107 
L 306.499468 180.265387 
L 307.42718 154.230699 
L 308.354891 159.928032 
L 308.818747 158.380522 
L 309.282603 146.533283 
L 310.210315 160.177258 
L 310.67417 175.916212 
L 311.138026 195.985257 
L 313.457305 248.963648 
L 314.385017 237.635852 
L 314.848873 222.971952 
L 315.312729 212.806302 
L 316.24044 173.480059 
L 317.168152 158.838132 
L 317.632008 160.520673 
L 318.095864 157.417693 
L 318.559719 165.868627 
L 319.023575 168.777326 
L 320.415143 185.525049 
L 320.878998 201.052668 
L 321.342854 195.945795 
L 321.80671 193.340286 
L 322.270566 182.747232 
L 323.198278 173.26823 
L 323.662133 153.265287 
L 324.125989 144.101583 
L 324.589845 121.443132 
L 325.053701 122.144747 
L 325.517557 133.391321 
L 325.981413 147.601696 
L 326.909124 191.976514 
L 327.37298 209.073615 
L 327.836836 220.446309 
L 328.300692 219.333209 
L 329.692259 222.522173 
L 330.619971 206.878299 
L 331.083827 197.02094 
L 331.547682 178.265176 
L 332.011538 174.125217 
L 333.403106 137.336322 
L 333.866961 138.164055 
L 334.330817 138.28412 
L 334.794673 143.547043 
L 335.258529 141.705255 
L 336.186241 158.887388 
L 336.650096 160.83618 
L 337.113952 150.957801 
L 338.969376 122.087338 
L 339.433231 110.618456 
L 339.897087 107.389358 
L 340.360943 99.879215 
L 340.824799 100.987214 
L 341.288655 96.272712 
L 341.75251 103.20321 
L 342.216366 117.672829 
L 342.680222 121.457356 
L 343.144078 130.356713 
L 343.607934 145.456928 
L 344.07179 147.861151 
L 344.535645 157.019753 
L 344.999501 152.879794 
L 345.463357 150.120139 
L 346.391069 142.792169 
L 346.854925 138.091681 
L 347.31878 119.574141 
L 347.782636 105.877155 
L 348.246492 115.435135 
L 348.710348 106.684821 
L 349.174204 93.856656 
L 349.638059 98.369871 
L 350.101915 91.434271 
L 350.565771 102.239429 
L 351.029627 123.890832 
L 351.493483 109.717395 
L 351.957339 122.288221 
L 352.421194 129.814282 
L 352.88505 132.645908 
L 353.348906 141.215954 
L 354.740473 152.89694 
L 356.132041 139.312059 
L 356.595897 148.715894 
L 357.059753 162.085474 
L 357.523608 169.499428 
L 357.987464 188.201045 
L 358.915176 195.320721 
L 359.379032 188.777493 
L 359.842888 196.443685 
L 360.306743 199.758768 
L 360.770599 188.752324 
L 361.234455 190.525951 
L 361.698311 186.407012 
L 362.162167 175.729878 
L 362.626022 174.147335 
L 363.089878 183.207845 
L 363.553734 179.074892 
L 364.01759 191.106208 
L 364.945302 183.597019 
L 365.409157 182.448886 
L 365.873013 187.915001 
L 366.336869 184.643862 
L 366.800725 185.849953 
L 367.264581 168.208241 
L 367.728437 164.810984 
L 368.656148 163.298507 
L 369.120004 164.854928 
L 369.58386 148.908818 
L 370.511571 134.883473 
L 371.903139 145.058988 
L 372.366995 145.466324 
L 372.830851 153.370742 
L 373.294706 164.547251 
L 373.758562 179.402234 
L 374.222418 198.881585 
L 374.686274 209.784836 
L 377.933265 203.697037 
L 378.39712 206.850968 
L 378.860976 200.749156 
L 379.324832 205.514609 
L 380.252544 187.824803 
L 380.7164 168.669661 
L 382.107967 172.699419 
L 382.571823 167.158136 
L 383.035679 172.154808 
L 383.499534 162.759885 
L 383.96339 161.88501 
L 384.427246 158.803051 
L 387.674237 154.706084 
L 388.138093 146.957717 
L 388.601949 148.500125 
L 389.065804 144.142961 
L 389.52966 132.982371 
L 389.993516 125.577328 
L 390.457372 139.62655 
L 391.385083 127.135655 
L 391.848939 120.00387 
L 392.312795 121.308054 
L 392.776651 118.177048 
L 393.240507 121.155813 
L 393.704363 95.232278 
L 394.168218 83.910536 
L 394.632074 83.645237 
L 395.09593 76.78671 
L 396.023642 89.814103 
L 396.487498 94.46158 
L 396.951353 93.244518 
L 397.879065 116.279451 
L 398.342921 109.793412 
L 398.806777 117.243537 
L 399.270632 102.789836 
L 399.734488 113.314729 
L 400.198344 113.378741 
L 401.126056 130.813113 
L 401.589912 153.438435 
L 402.053767 158.084776 
L 402.517623 149.775879 
L 402.981479 144.101471 
L 403.445335 142.546954 
L 404.373046 132.494362 
L 404.836902 122.805161 
L 405.300758 107.868004 
L 405.764614 115.162846 
L 406.22847 109.208173 
L 406.692326 110.91874 
L 407.156181 114.78034 
L 407.620037 111.929598 
L 408.083893 118.797037 
L 408.547749 131.795266 
L 409.011605 148.387891 
L 409.939316 159.277128 
L 410.403172 160.945656 
L 410.867028 157.73057 
L 411.330884 164.254684 
L 411.79474 152.66669 
L 412.258595 144.743158 
L 412.722451 138.830524 
L 413.186307 138.922563 
L 414.114019 146.785894 
L 414.577875 132.990815 
L 415.505586 150.915649 
L 415.969442 149.634391 
L 416.433298 147.337172 
L 416.897154 134.733219 
L 417.36101 133.613112 
L 417.824865 142.204179 
L 419.216433 120.89991 
L 419.680289 108.975599 
L 420.608 104.542499 
L 421.071856 100.655915 
L 421.535712 95.536167 
L 421.999568 96.806454 
L 422.463424 96.36012 
L 422.927279 96.614448 
L 423.391135 102.670256 
L 423.854991 104.359803 
L 424.318847 97.760521 
L 424.782703 96.759528 
L 426.17427 73.500413 
L 426.638126 72.989882 
L 427.101982 76.95658 
L 427.565838 77.784314 
L 428.957405 91.856461 
L 429.421261 103.124055 
L 429.885117 99.530613 
L 430.348973 106.496144 
L 430.812828 118.022983 
L 431.276684 123.489098 
L 431.74054 125.150619 
L 432.204396 123.89038 
L 432.668252 132.642599 
L 434.059819 96.52634 
L 434.523675 87.285563 
L 434.987531 85.422755 
L 435.451387 86.705918 
L 435.915242 73.492389 
L 436.379098 87.247333 
L 436.842954 91.606402 
L 437.30681 102.972089 
L 437.770666 108.802548 
L 438.234522 111.164731 
L 438.698377 117.660819 
L 439.162233 120.464419 
L 439.626089 112.029403 
L 440.089945 106.768385 
L 440.553801 87.297945 
L 441.017656 74.792084 
L 441.481512 66.756446 
L 441.945368 56.163392 
L 442.409224 55.8 
L 442.87308 63.361094 
L 443.336936 63.957609 
L 444.264647 80.011676 
L 444.728503 86.851088 
L 445.192359 88.512609 
L 445.656215 82.698068 
L 446.583926 101.989193 
L 447.047782 99.51681 
L 447.511638 98.683975 
L 447.975494 101.032144 
L 448.43935 107.093822 
L 448.903205 117.919999 
L 449.830917 125.3279 
L 450.294773 141.177823 
L 450.758629 151.338372 
L 451.222485 150.554583 
L 452.150196 173.40507 
L 452.614052 174.898432 
L 453.077908 179.313554 
L 453.541764 177.801077 
L 454.005619 169.450141 
L 454.469475 173.914309 
L 454.933331 169.192801 
L 455.397187 168.240853 
L 455.861043 172.249591 
L 456.324899 172.131431 
L 456.788754 178.151069 
L 457.25261 191.499629 
L 457.716466 199.48112 
L 458.180322 194.633493 
L 458.644178 177.657409 
L 459.108034 169.649797 
L 459.571889 171.598589 
L 460.035745 161.082608 
L 460.499601 156.368107 
L 461.427313 152.453312 
L 461.891168 154.49319 
L 462.355024 142.709011 
L 462.81888 134.168896 
L 463.746592 127.983957 
L 464.210448 121.826092 
L 464.674303 122.268462 
L 465.138159 128.925701 
L 465.602015 131.869434 
L 466.065871 124.429358 
L 466.529727 130.596134 
L 467.457438 138.550551 
L 467.921294 146.840333 
L 468.38515 145.643154 
L 468.849006 156.308179 
L 469.312862 163.308743 
L 469.776717 165.292569 
L 471.168285 189.566352 
L 471.632141 204.547454 
L 472.095997 212.2697 
L 472.559852 225.520167 
L 473.023708 226.621159 
L 473.487564 221.177969 
L 473.95142 204.313992 
L 474.415276 191.632965 
L 474.879131 170.487944 
L 475.342987 163.979748 
L 475.806843 160.547458 
L 476.270699 161.991773 
L 476.734555 161.137919 
L 477.198411 171.088269 
L 477.662266 175.286186 
L 478.126122 185.180483 
L 478.589978 184.396695 
L 479.053834 181.216642 
L 479.981546 168.487522 
L 480.909257 166.422475 
L 481.373113 160.685007 
L 481.836969 148.06704 
L 482.300825 140.78111 
L 482.76468 131.596386 
L 483.228536 144.33537 
L 483.692392 149.261975 
L 484.156248 152.170674 
L 484.620104 155.983227 
L 485.08396 178.251212 
L 486.011671 186.983364 
L 486.939383 172.915979 
L 487.403239 158.861656 
L 487.867095 149.438707 
L 488.33095 127.340785 
L 488.794806 117.952869 
L 489.722518 106.246715 
L 490.186374 106.829217 
L 490.650229 120.107711 
L 491.114085 128.684764 
L 491.577941 144.555707 
L 492.505653 165.535427 
L 492.969509 172.353819 
L 493.433364 175.479724 
L 493.89722 168.789356 
L 494.824932 162.555371 
L 495.288788 148.718252 
L 495.752643 141.397289 
L 496.216499 141.075937 
L 496.680355 135.569687 
L 497.144211 141.119881 
L 497.608067 142.487124 
L 498.071923 137.69555 
L 498.535778 149.824959 
L 498.999634 158.254873 
L 499.46349 157.387005 
L 499.927346 155.194886 
L 500.391202 145.863023 
L 500.855058 142.963235 
L 501.782769 124.439642 
L 502.246625 126.444487 
L 502.710481 120.223563 
L 503.174337 117.344795 
L 503.638192 122.894989 
L 504.102048 119.31556 
L 504.565904 123.380351 
L 505.02976 117.923148 
L 505.957472 87.957747 
L 506.421327 86.634449 
L 506.885183 82.263271 
L 507.349039 87.70136 
L 507.812895 89.257781 
L 508.276751 88.83133 
L 508.740607 90.191567 
L 509.204462 96.050052 
L 509.668318 89.170505 
L 511.059886 62.190876 
L 511.523741 75.819701 
L 512.451453 85.070342 
L 512.915309 93.395157 
L 513.379165 111.031768 
L 513.843021 118.711974 
L 514.306876 130.26684 
L 514.770732 117.690913 
L 515.234588 124.859636 
L 516.1623 146.715183 
L 516.626155 147.500877 
L 517.090011 167.134373 
L 518.017723 192.198952 
L 518.481579 198.435795 
L 518.945435 195.935384 
L 519.40929 203.405392 
L 519.873146 197.562825 
L 520.337002 185.60348 
L 520.800858 167.891702 
L 521.264714 166.785608 
L 521.72857 157.874143 
L 522.192425 159.9981 
L 522.656281 159.907967 
L 523.120137 173.459719 
L 523.583993 176.739769 
L 524.047849 192.281401 
L 524.511704 194.832762 
L 525.439416 218.09664 
L 525.903272 212.849635 
L 526.367128 201.955296 
L 526.830984 195.846478 
L 527.294839 193.794491 
L 527.758695 201.362591 
L 529.150263 177.255676 
L 529.614119 177.207582 
L 530.077974 185.259139 
L 530.54183 189.492089 
L 531.005686 173.265713 
L 531.933398 180.526475 
L 532.397253 189.474879 
L 532.861109 207.055437 
L 533.324965 208.632878 
L 533.788821 194.508488 
L 534.252677 208.908041 
L 534.716533 209.441497 
L 535.180388 202.765142 
L 535.644244 205.316504 
L 536.1081 197.210799 
L 536.571956 185.447639 
L 537.035812 198.515935 
L 537.499667 199.988277 
L 537.963523 207.164007 
L 538.427379 217.695907 
L 538.891235 213.843219 
L 539.355091 220.675624 
L 539.818947 236.308342 
L 540.282802 219.738643 
L 540.746658 220.461277 
L 541.210514 218.570442 
L 541.67437 224.842318 
L 542.602082 224.388978 
L 543.065937 211.982346 
L 543.529793 205.03387 
L 543.993649 222.867803 
L 544.457505 230.451054 
L 544.921361 232.590162 
L 545.385216 224.941024 
L 545.849072 245.513408 
L 546.312928 260.998987 
L 546.776784 281.61341 
L 547.24064 294.772792 
L 547.704496 297.184021 
L 548.168351 307.8 
L 548.632207 304.949259 
L 549.559919 284.393746 
L 550.487631 237.395256 
L 550.951486 237.452261 
L 551.415342 215.3123 
L 552.343054 180.694505 
L 552.80691 181.354079 
L 553.270765 204.434832 
L 553.734621 199.993589 
L 554.198477 186.906179 
L 554.662333 188.50464 
L 555.126189 197.782355 
L 555.590045 213.85649 
L 556.0539 222.041172 
L 556.517756 203.698798 
L 556.981612 211.407031 
L 558.837035 211.274858 
L 559.300891 210.105705 
L 559.764747 218.052163 
L 560.228603 212.693052 
L 560.692459 200.999959 
L 561.156314 202.72454 
L 561.62017 202.683452 
L 562.084026 196.819865 
L 562.547882 200.35916 
L 563.011738 186.858359 
L 563.475594 191.511706 
L 563.939449 198.084867 
L 564.403305 207.958144 
L 564.867161 204.448781 
L 565.331017 227.130157 
L 565.794873 231.061822 
L 566.258728 244.501468 
L 566.722584 251.256801 
L 567.18644 246.318088 
L 567.650296 244.111955 
L 568.114152 253.256545 
L 568.578008 246.909501 
L 569.041863 248.171645 
L 569.505719 248.957339 
L 569.969575 246.029525 
L 570.433431 255.776683 
L 570.897287 251.615705 
L 571.824998 230.240417 
L 572.288854 235.867684 
L 572.75271 229.814919 
L 573.680422 208.768943 
L 574.144277 213.597455 
L 574.608133 212.28817 
L 575.071989 216.423027 
L 575.535845 208.835812 
L 575.999701 206.958991 
L 576.463557 209.447293 
L 576.927412 205.069109 
L 577.391268 193.936545 
L 577.855124 197.468833 
L 578.31898 188.592401 
L 578.782836 190.604253 
L 579.246691 190.458066 
L 579.710547 187.873577 
L 580.174403 196.534709 
L 580.638259 192.093466 
L 581.102115 198.624586 
L 581.565971 208.497864 
L 582.029826 209.8581 
L 582.493682 212.094164 
L 583.421394 200.205838 
L 583.88525 199.394023 
L 584.812961 169.470662 
L 585.276817 156.117 
L 585.740673 153.308298 
L 586.204529 153.946853 
L 586.668385 155.643407 
L 587.13224 154.453235 
L 588.059952 184.82883 
L 588.523808 203.02597 
L 589.45152 220.243136 
L 589.915375 222.409133 
L 590.379231 232.513629 
L 590.843087 232.647708 
L 592.234655 208.393653 
L 594.090078 158.727546 
L 594.553934 158.336128 
L 595.481645 152.745799 
L 595.945501 149.173377 
L 596.409357 142.994492 
L 596.873213 142.063564 
L 597.337069 147.221388 
L 597.800924 148.988008 
L 598.26478 141.737111 
L 598.728636 143.335572 
L 599.192492 140.968288 
L 599.656348 146.861806 
L 600.584059 133.593176 
L 601.047915 124.695724 
L 601.511771 121.964095 
L 601.975627 114.804284 
L 602.903338 124.629467 
L 603.367194 134.523765 
L 603.83105 137.663682 
L 604.294906 135.296398 
L 604.758762 135.661695 
L 605.222618 134.506555 
L 605.686473 121.447171 
L 606.150329 120.943647 
L 606.614185 126.199563 
L 607.078041 142.673075 
L 607.541897 166.622649 
L 608.005752 177.883237 
L 608.469608 180.24542 
L 608.933464 189.747347 
L 609.39732 186.251997 
L 609.861176 180.360383 
L 610.325032 176.136345 
L 611.252743 150.59212 
L 611.716599 146.073804 
L 612.180455 162.666428 
L 612.644311 156.375438 
L 613.108167 144.177868 
L 613.572022 126.914513 
L 614.035878 125.661281 
L 614.499734 128.170603 
L 614.96359 128.010403 
L 615.427446 109.0024 
L 615.891301 109.297631 
L 616.355157 115.436381 
L 616.819013 127.839048 
L 617.282869 125.787061 
L 617.746725 119.874428 
L 618.674436 143.537683 
L 619.602148 153.573065 
L 620.066004 150.988575 
L 620.52986 163.139004 
L 620.993716 164.793518 
L 621.457571 171.576877 
L 621.921427 175.32637 
L 622.849139 200.825359 
L 623.312995 219.653095 
L 623.77685 221.26557 
L 624.240706 233.542117 
L 624.704562 238.181451 
L 625.168418 230.313971 
L 625.632274 214.47296 
L 626.09613 204.055071 
L 626.559985 186.504445 
L 627.023841 178.37772 
L 627.951553 150.801576 
L 628.415409 147.747643 
L 628.879264 155.469889 
L 629.34312 157.460721 
L 629.806976 164.391219 
L 630.270832 173.753013 
L 630.734688 191.803015 
L 631.198544 196.007938 
L 631.662399 194.215196 
L 632.126255 198.160875 
L 632.590111 200.845362 
L 633.053967 207.054178 
L 633.517823 205.170351 
L 633.981679 203.945145 
L 634.445534 210.083895 
L 634.90939 228.372121 
L 635.837102 247.936504 
L 636.300958 242.444268 
L 636.764813 243.370094 
L 637.228669 245.550105 
L 637.692525 243.231867 
L 638.156381 233.437567 
L 639.084093 201.124949 
L 639.547948 196.060116 
L 640.011804 188.059511 
L 640.47566 178.069026 
L 640.939516 171.750009 
L 641.403372 158.648585 
L 642.794939 175.495353 
L 643.258795 182.937334 
L 643.722651 186.82696 
L 644.186507 182.651968 
L 644.650362 199.489824 
L 645.114218 200.282524 
L 645.578074 200.017225 
L 646.04193 194.33581 
L 646.505786 199.213369 
L 646.969642 206.101827 
L 647.433497 208.078646 
L 647.897353 205.970607 
L 648.361209 211.464748 
L 648.825065 207.619067 
L 649.288921 214.696704 
L 649.752776 203.599173 
L 650.680488 187.507061 
L 651.6082 179.831986 
L 652.072056 163.943065 
L 652.535911 160.252667 
L 652.999767 145.050395 
L 653.463623 142.116712 
L 653.927479 142.383916 
L 654.391335 145.01235 
L 654.855191 134.7416 
L 655.319046 137.902538 
L 655.782902 132.669546 
L 656.710614 142.01828 
L 657.17447 134.515144 
L 657.638325 129.2261 
L 658.102181 140.794979 
L 658.566037 140.200369 
L 659.029893 161.578514 
L 659.493749 170.1906 
L 659.957605 168.544998 
L 660.42146 188.514812 
L 660.885316 203.530947 
L 661.349172 184.845249 
L 661.813028 185.55387 
L 662.276884 170.861944 
L 662.74074 161.495048 
L 663.204595 162.434888 
L 663.668451 152.437396 
L 664.132307 134.977856 
L 664.596163 139.01462 
L 665.060019 139.078632 
L 665.523874 139.408896 
L 665.98773 133.692448 
L 666.451586 126.322438 
L 666.915442 129.861733 
L 667.379298 124.719828 
L 667.843154 123.200344 
L 668.307009 119.466769 
L 668.770865 108.425291 
L 669.698577 117.97021 
L 670.162433 109.920558 
L 670.626288 136.217349 
L 671.090144 138.117095 
L 671.554 145.285818 
L 672.017856 155.257188 
L 672.481712 159.364019 
L 672.945568 158.033714 
L 673.409423 168.642687 
L 673.873279 164.047298 
L 674.337135 176.001541 
L 674.800991 171.476218 
L 675.264847 177.439803 
L 676.192558 203.814619 
L 676.656414 198.826859 
L 677.12027 199.752685 
L 677.584126 208.000427 
L 678.047982 209.374677 
L 678.511837 213.70572 
L 679.439549 187.600965 
L 680.367261 169.939186 
L 680.831117 150.132429 
L 681.294972 155.745682 
L 681.758828 164.231649 
L 682.68654 157.570261 
L 683.150396 159.659185 
L 683.614252 155.834524 
L 684.078107 162.968214 
L 684.541963 161.168466 
L 685.005819 147.646645 
L 685.469675 152.65733 
L 685.933531 163.420448 
L 686.397386 178.107272 
L 687.325098 194.658809 
L 687.788954 199.375216 
L 688.25281 202.311942 
L 688.716666 210.860968 
L 689.180521 222.198629 
L 689.644377 222.697051 
L 690.108233 217.562153 
L 690.572089 210.885798 
L 691.035945 211.951757 
L 691.4998 209.836711 
L 691.963656 205.178262 
L 692.427512 188.496456 
L 692.891368 188.098032 
L 693.355224 202.595677 
L 694.282935 186.328215 
L 694.746791 186.777591 
L 695.210647 184.059976 
L 695.674503 187.038741 
L 696.138359 187.123773 
L 696.602215 166.959678 
L 697.06607 176.945062 
L 697.993782 201.855494 
L 698.457638 209.689846 
L 698.921494 213.257167 
L 699.385349 208.164308 
L 699.849205 216.783401 
L 700.313061 220.098484 
L 700.776917 216.30185 
L 701.240773 207.509496 
L 702.168484 218.175474 
L 702.63234 228.048752 
L 703.096196 230.389915 
L 703.560052 227.483121 
L 704.023908 232.486799 
L 704.487764 239.003906 
L 704.951619 240.812566 
L 705.415475 246.4048 
L 705.879331 248.886095 
L 706.343187 263.635979 
L 706.807043 265.87905 
L 707.734754 275.557094 
L 708.19861 272.510168 
L 708.662466 278.985236 
L 709.126322 270.739399 
L 709.590178 278.188386 
L 710.054033 282.638541 
L 710.517889 277.594729 
L 711.445601 280.735783 
L 711.909457 288.732424 
L 712.373312 285.686635 
L 712.837168 296.331778 
L 713.301024 296.235774 
L 713.76488 293.596369 
L 714.228736 283.011458 
L 715.156447 268.404564 
L 715.620303 246.131478 
L 717.011871 235.940075 
L 717.475727 222.840925 
L 717.939582 220.903318 
L 718.403438 236.811568 
L 718.867294 227.594085 
L 719.33115 215.847213 
L 720.258861 239.715934 
L 720.722717 244.285201 
L 721.186573 252.077513 
L 721.650429 243.067955 
L 722.114285 250.362797 
L 722.578141 254.007191 
L 723.041996 258.611492 
L 723.969708 234.629742 
L 724.433564 232.136339 
L 724.89742 237.406268 
L 725.361276 225.425904 
L 725.825131 222.610196 
L 726.752843 198.607427 
L 727.216699 211.304371 
L 727.680555 201.790336 
L 728.14441 184.919352 
L 728.608266 186.06939 
L 729.072122 193.798643 
L 729.535978 192.440311 
L 729.999834 206.181242 
L 730.46369 202.559773 
L 730.927545 211.58525 
L 731.855257 223.673571 
L 732.319113 223.674524 
L 732.782969 232.006345 
L 733.246824 236.890911 
L 733.71068 227.194704 
L 734.174536 223.874519 
L 734.638392 225.718212 
L 735.102248 216.372336 
L 736.493815 171.448757 
L 736.957671 166.299846 
L 737.421527 156.512552 
L 737.885383 157.060021 
L 738.349239 163.254824 
L 738.813094 164.818253 
L 739.27695 172.813756 
L 739.740806 184.095364 
L 740.204662 191.719517 
L 740.668518 206.910818 
L 741.132373 217.099394 
L 741.596229 223.658541 
L 742.060085 235.325513 
L 742.523941 239.579483 
L 742.987797 236.091139 
L 743.451653 248.598905 
L 743.915508 256.9027 
L 744.379364 245.959315 
L 744.84322 248.720875 
L 745.307076 232.886871 
L 745.770932 222.013552 
L 746.234788 219.337976 
L 747.162499 167.764164 
L 747.626355 165.424906 
L 748.090211 154.733759 
L 748.554067 156.556433 
L 749.481778 155.668497 
L 749.945634 161.975406 
L 750.40949 166.320462 
L 750.873346 161.241616 
L 751.337202 152.904693 
L 751.801057 160.626939 
L 752.728769 166.297198 
L 753.192625 178.104302 
L 753.656481 195.460648 
L 754.120337 198.166155 
L 754.584192 203.723356 
L 755.048048 200.557317 
L 755.511904 195.996961 
L 755.97576 192.599704 
L 756.439616 184.935416 
L 756.903471 165.640142 
L 757.367327 163.279864 
L 757.831183 153.856915 
L 758.295039 152.876941 
L 758.758895 157.011798 
L 759.222751 153.26421 
L 759.686606 153.916778 
L 760.150462 158.472033 
L 760.614318 152.881704 
L 761.078174 160.58293 
L 762.005885 162.27343 
L 762.469741 167.984776 
L 762.933597 164.342287 
L 763.397453 153.63012 
L 763.861309 162.452405 
L 764.325165 164.842615 
L 765.252876 148.315907 
L 765.716732 147.637218 
L 766.180588 148.65413 
L 766.644444 175.385331 
L 767.1083 180.970558 
L 768.499867 202.413668 
L 768.963723 204.83891 
L 769.427579 199.809111 
L 769.891434 173.871562 
L 770.35529 173.858502 
L 770.819146 160.021383 
L 771.283002 165.837829 
L 771.746858 168.178992 
L 772.210714 166.512369 
L 773.138425 195.780919 
L 773.602281 197.526519 
L 774.066137 217.839658 
L 774.529993 225.302659 
L 775.457704 248.174166 
L 775.92156 248.553476 
L 776.849272 264.880801 
L 777.313128 266.976732 
L 777.776983 270.466981 
L 778.240839 267.209856 
L 778.704695 270.679084 
L 779.632407 279.845646 
L 780.096263 272.671822 
L 780.560118 273.366429 
L 781.48783 266.775107 
L 781.951686 256.511363 
L 782.415542 258.810487 
L 783.343253 240.181794 
L 783.807109 235.166008 
L 784.270965 232.84777 
L 784.734821 236.443117 
L 785.198677 244.859018 
L 785.662532 245.87593 
L 786.126388 237.496968 
L 786.590244 242.010182 
L 787.0541 235.256755 
L 787.981812 228.665432 
L 788.445667 229.87853 
L 788.909523 236.844061 
L 789.373379 238.7368 
L 789.837235 231.198631 
L 790.301091 225.580276 
L 790.764946 209.122682 
L 791.228802 207.855437 
L 791.692658 200.95487 
L 792.156514 176.832036 
L 792.62037 162.973898 
L 793.084226 165.868584 
L 793.548081 173.00928 
L 794.011937 191.837016 
L 794.475793 187.500872 
L 794.939649 187.992288 
L 795.867361 218.017552 
L 796.331216 215.944545 
L 796.795072 203.459704 
L 797.258928 199.347772 
L 797.722784 202.866047 
L 798.18664 202.859993 
L 798.650495 186.808783 
L 799.114351 182.836983 
L 799.578207 189.101852 
L 800.042063 200.77583 
L 800.505919 197.497686 
L 800.969775 200.420398 
L 801.43363 204.716407 
L 801.897486 223.109733 
L 802.361342 218.528357 
L 803.289054 201.055756 
L 803.752909 194.456474 
L 804.680621 164.287881 
L 805.144477 145.518104 
L 805.608333 150.935172 
L 806.072189 158.594358 
L 806.536044 154.993909 
L 806.9999 157.272012 
L 807.463756 151.618624 
L 807.927612 153.679522 
L 808.391468 153.386197 
L 809.319179 147.579615 
L 809.783035 155.750285 
L 810.246891 159.815076 
L 810.710747 173.50696 
L 811.174603 175.161475 
L 811.638458 171.792244 
L 812.102314 169.845357 
L 812.56617 177.273324 
L 813.030026 182.67638 
L 813.493882 167.865341 
L 813.957738 158.69463 
L 814.421593 156.068101 
L 814.885449 156.629583 
L 815.349305 154.07312 
L 816.277017 138.576386 
L 816.740873 153.038998 
L 817.204728 172.034893 
L 817.668584 182.987189 
L 818.13244 185.272299 
L 819.060152 201.31936 
L 819.524007 211.921326 
L 819.987863 204.551316 
L 820.915575 173.773147 
L 821.843287 188.1176 
L 822.307142 183.052768 
L 822.770998 174.785911 
L 823.234854 184.38593 
L 823.69871 198.981668 
L 824.162566 218.222794 
L 824.626421 230.940759 
L 825.090277 231.207963 
L 825.554133 235.910356 
L 826.017989 238.784022 
L 826.481845 236.479798 
L 826.945701 233.215666 
L 827.409556 233.952313 
L 827.873412 229.020607 
L 828.337268 226.218912 
L 828.801124 233.331582 
L 829.26498 233.46566 
L 829.728836 238.966808 
L 830.192691 239.605363 
L 830.656547 223.582179 
L 831.120403 219.456234 
L 831.584259 224.312773 
L 832.048115 214.910844 
L 832.51197 214.84173 
L 832.975826 215.823609 
L 833.439682 210.632657 
L 833.903538 212.875728 
L 834.367394 202.121521 
L 834.83125 188.200323 
L 836.222817 156.105863 
L 836.686673 156.162868 
L 837.150529 158.721237 
L 837.614385 166.828846 
L 838.07824 163.683827 
L 838.542096 180.577736 
L 839.005952 189.477094 
L 839.469808 207.393969 
L 839.933664 209.286709 
L 840.397519 219.117947 
L 840.861375 215.811775 
L 841.325231 226.189529 
L 841.789087 225.53186 
L 842.252943 220.04663 
L 842.716799 209.257391 
L 843.180654 201.263792 
L 843.64451 187.349601 
L 844.108366 187.897069 
L 844.572222 181.465946 
L 845.036078 169.247357 
L 845.499933 177.053682 
L 845.963789 174.343073 
L 847.355357 202.106152 
L 847.819213 198.043266 
L 848.283068 212.351733 
L 848.746924 206.992623 
L 849.21078 214.98112 
L 849.674636 220.797566 
L 850.138492 222.984583 
L 850.602348 212.608734 
L 851.066203 225.627983 
L 851.530059 220.500091 
L 851.993915 228.572668 
L 852.457771 232.497326 
L 853.385482 200.037569 
L 854.77705 221.053275 
L 855.240906 219.905142 
L 855.704762 220.438597 
L 856.168617 225.211057 
L 856.632473 239.897881 
L 857.560185 218.985031 
L 858.024041 205.50525 
L 858.487897 201.456377 
L 858.951752 190.562038 
L 859.415608 191.564937 
L 859.879464 186.71731 
L 860.34332 189.597983 
L 860.807176 173.820031 
L 861.271031 172.573805 
L 861.734887 166.535053 
L 862.198743 165.548072 
L 863.590311 192.890754 
L 864.054166 208.684624 
L 864.518022 212.223919 
L 865.445734 237.835014 
L 865.90959 244.429194 
L 868.692725 248.23474 
L 869.15658 252.369597 
L 869.620436 257.989858 
L 870.548148 271.374403 
L 871.012004 271.277263 
L 871.47586 269.428469 
L 872.867427 262.150497 
L 873.331283 261.864179 
L 873.795139 266.832823 
L 874.258994 260.065383 
L 875.650562 274.740099 
L 876.114418 258.331551 
L 877.042129 263.13299 
L 877.505985 261.487387 
L 877.969841 248.666228 
L 878.433697 247.083685 
L 878.897553 225.98771 
L 879.361409 242.979712 
L 879.825264 227.573111 
L 880.28912 207.661254 
L 880.752976 214.024216 
L 881.216832 210.43778 
L 881.680688 193.980187 
L 882.144543 204.084683 
L 882.608399 197.65356 
L 883.072255 223.761172 
L 883.536111 242.953251 
L 883.999967 224.148441 
L 884.463823 218.502059 
L 884.927678 218.958442 
L 885.391534 212.870643 
L 885.85539 214.279926 
L 886.319246 187.319411 
L 886.783102 171.149089 
L 887.246958 174.506212 
L 887.710813 180.077426 
L 888.174669 178.459849 
L 888.638525 172.967613 
L 889.566237 196.848073 
L 890.030092 207.358953 
L 890.493948 208.65613 
L 890.957804 216.217223 
L 891.42166 212.721873 
L 891.885516 212.561674 
L 892.349372 187.934363 
L 892.813227 182.407094 
L 893.277083 172.837006 
L 893.740939 177.88973 
L 894.204795 176.937783 
L 894.668651 182.354851 
L 895.132506 199.003528 
L 896.524074 231.67124 
L 896.98793 237.018242 
L 897.451786 233.522892 
L 898.843353 205.646416 
L 899.307209 203.53137 
L 899.771065 197.310445 
L 900.234921 188.994542 
L 900.698776 196.548629 
L 901.162632 196.675701 
L 901.626488 183.819509 
L 902.090344 185.950473 
L 902.5542 170.655978 
L 903.018055 171.504731 
L 903.481911 166.236707 
L 903.945767 147.004493 
L 904.409623 155.791744 
L 904.873479 146.438861 
L 905.337335 147.448767 
L 905.80119 152.746723 
L 906.265046 149.286406 
L 906.728902 144.719043 
L 907.656614 141.785175 
L 908.12047 154.762385 
L 908.584325 160.782023 
L 909.048181 152.066742 
L 909.512037 151.80845 
L 909.975893 153.11964 
L 910.439749 156.133438 
L 910.903604 143.060041 
L 911.36746 146.003773 
L 911.831316 134.037422 
L 912.295172 130.233781 
L 913.222884 120.594579 
L 913.686739 120.020989 
L 914.150595 130.973286 
L 914.614451 135.122156 
L 915.078307 135.557519 
L 915.542163 139.026747 
L 916.006018 136.827622 
L 916.469874 143.344729 
L 916.93373 154.423145 
L 917.397586 158.9784 
L 917.861442 153.030733 
L 918.325298 155.070612 
L 918.789153 155.281763 
L 919.253009 140.260526 
L 919.716865 134.151707 
L 920.180721 124.4555 
L 920.644577 120.00725 
L 921.108433 116.694072 
L 921.572288 114.803238 
L 922.036144 107.867638 
L 922.5 105.563413 
L 922.963856 106.215981 
L 923.427712 107.092761 
L 923.891567 107.66125 
L 924.355423 110.121525 
L 924.819279 109.554942 
L 925.283135 120.395133 
L 925.746991 136.308115 
L 926.210847 147.659789 
L 926.674702 145.243458 
L 927.602414 128.828857 
L 928.06627 127.876909 
L 928.530126 110.879806 
L 928.993982 112.709486 
L 929.457837 104.421609 
L 929.921693 111.611352 
L 930.385549 108.599459 
L 930.849405 115.165612 
L 931.313261 114.991399 
L 931.777116 127.120808 
L 932.240972 121.796731 
L 932.704828 120.501459 
L 933.168684 120.159087 
L 933.63254 126.206751 
L 934.560251 119.958753 
L 935.487963 107.58697 
L 935.951819 111.231364 
L 936.415675 99.545277 
L 936.87953 91.355493 
L 937.343386 88.483732 
L 938.271098 111.551424 
L 938.734954 116.37293 
L 939.19881 114.215844 
L 939.662665 120.102356 
L 940.126521 134.249671 
L 940.590377 130.677248 
L 941.054233 125.731528 
L 941.518089 126.236957 
L 941.981945 132.529853 
L 942.4458 131.276621 
L 942.909656 126.183762 
L 943.373512 117.713713 
L 943.837368 117.08407 
L 944.301224 113.056217 
L 944.765079 107.024471 
L 945.228935 105.280776 
L 945.692791 111.938015 
L 946.156647 112.968941 
L 946.620503 100.96055 
L 947.084359 109.866914 
L 947.548214 108.851907 
L 948.01207 108.460489 
L 948.475926 107.893905 
L 948.939782 97.8824 
L 949.403638 103.103283 
L 949.867494 109.697464 
L 950.331349 109.123874 
L 950.795205 116.537828 
L 951.259061 121.807758 
L 951.722917 118.151255 
L 952.186773 117.77385 
L 952.650628 104.847592 
L 953.114484 108.358861 
L 953.57834 113.236419 
L 954.042196 106.412926 
L 954.969908 115.487449 
L 955.433763 131.925928 
L 955.897619 142.247629 
L 956.361475 155.400004 
L 957.289187 204.840607 
L 957.753042 213.845064 
L 958.216898 210.812151 
L 958.680754 200.520381 
L 959.14461 203.660299 
L 959.608466 212.734822 
L 960.072322 199.85761 
L 960.536177 182.475143 
L 961.000033 191.052196 
L 961.463889 188.201455 
L 961.927745 194.123 
L 962.391601 191.384365 
L 963.319312 209.813676 
L 963.783168 220.177416 
L 964.247024 215.736173 
L 964.71088 225.71455 
L 965.174736 228.153806 
L 965.638591 232.204583 
L 966.102447 221.065013 
L 966.566303 205.91065 
L 967.030159 196.838032 
L 967.494015 190.084605 
L 967.957871 179.169246 
L 968.421726 175.001261 
L 968.885582 164.499292 
L 969.349438 158.817878 
L 970.27715 138.318418 
L 971.204861 130.353798 
L 971.668717 133.451676 
L 972.132573 133.067264 
L 972.596429 133.642759 
L 973.060285 133.447527 
L 973.52414 138.079854 
L 974.451852 149.649685 
L 974.915708 138.082711 
L 975.379564 133.816633 
L 975.84342 123.973287 
L 976.307275 138.316787 
L 976.771131 148.90474 
L 977.234987 141.744929 
L 977.698843 140.596796 
L 979.09041 179.115034 
L 979.554266 177.441404 
L 980.018122 158.286263 
L 980.481978 160.704498 
L 980.945834 145.248851 
L 981.409689 137.766735 
L 981.873545 139.911713 
L 982.337401 141.391062 
L 982.801257 138.056864 
L 983.265113 154.145012 
L 983.728969 161.236662 
L 984.192824 180.596901 
L 984.65668 170.361184 
L 985.120536 147.408456 
L 985.584392 136.675269 
L 986.048248 135.295918 
L 986.512103 129.327232 
L 986.975959 129.110979 
L 987.439815 127.983866 
L 987.903671 136.462826 
L 988.367527 130.522167 
L 988.831383 135.911209 
L 989.295238 133.375765 
L 989.759094 121.241255 
L 990.22295 99.696857 
L 990.686806 100.755808 
L 991.150662 100.896893 
L 991.614518 122.247012 
L 992.078373 114.596737 
L 992.542229 114.380484 
L 993.006085 115.593582 
L 993.469941 121.164796 
L 993.933797 108.084392 
L 994.397652 100.539217 
L 994.861508 96.413271 
L 995.325364 104.941278 
L 995.78922 103.807158 
L 996.253076 109.966928 
L 996.716932 131.800503 
L 997.180787 143.950932 
L 997.644643 152.408873 
L 998.108499 153.1245 
L 998.572355 154.582829 
L 999.036211 151.774128 
L 999.500067 145.9736 
L 999.963922 132.739051 
L 1000.427778 135.977061 
L 1001.35549 119.156076 
L 1001.819346 113.390582 
L 1002.747057 133.697666 
L 1003.210913 125.395776 
L 1003.674769 129.866951 
L 1004.602481 159.324679 
L 1005.066336 163.690755 
L 1005.994048 161.653734 
L 1006.457904 177.461617 
L 1006.92176 165.151942 
L 1007.385615 161.712645 
L 1007.849471 164.621344 
L 1008.313327 163.136893 
L 1008.777183 162.493237 
L 1009.241039 167.209643 
L 1009.704895 168.478794 
L 1010.16875 185.015365 
L 1010.632606 193.711531 
L 1011.096462 196.711316 
L 1011.560318 206.283309 
L 1012.48803 219.359564 
L 1012.951885 216.172505 
L 1013.415741 207.61137 
L 1013.879597 185.401343 
L 1014.343453 180.862007 
L 1014.807309 177.499782 
L 1015.271164 168.118873 
L 1015.73502 166.024847 
L 1016.198876 168.590222 
L 1016.662732 168.100711 
L 1017.126588 188.091545 
L 1017.590444 176.17424 
L 1018.054299 160.66254 
L 1018.518155 158.043017 
L 1018.982011 151.653934 
L 1019.445867 148.943325 
L 1019.909723 132.808036 
L 1020.373579 111.40377 
L 1020.837434 110.094485 
L 1021.30129 106.459002 
L 1021.765146 107.202656 
L 1022.229002 100.295083 
L 1022.692858 87.943368 
L 1023.156713 99.764485 
L 1023.620569 104.368786 
L 1024.084425 107.852028 
L 1025.012137 143.503606 
L 1025.475993 144.135155 
L 1025.939848 161.911898 
L 1026.403704 160.798798 
L 1026.86756 168.303838 
L 1027.331416 180.293115 
L 1027.795272 179.726531 
L 1030.578407 192.018045 
L 1031.506118 166.116482 
L 1031.969974 156.693533 
L 1032.43383 166.160427 
L 1032.897686 158.895516 
L 1033.361542 122.826398 
L 1033.825397 128.222447 
L 1034.289253 140.379882 
L 1034.753109 148.774763 
L 1035.216965 143.787003 
L 1036.144676 129.656559 
L 1036.608532 143.866934 
L 1037.072388 143.706734 
L 1038.0001 152.046515 
L 1038.463956 165.303989 
L 1038.927811 153.730008 
L 1039.391667 171.843069 
L 1039.855523 162.076795 
L 1040.319379 157.565486 
L 1040.783235 141.850594 
L 1041.247091 144.268829 
L 1041.710946 143.856391 
L 1042.174802 141.832431 
L 1042.638658 136.017891 
L 1043.102514 138.4081 
L 1043.56637 142.325752 
L 1044.030225 137.989608 
L 1044.494081 129.799824 
L 1044.957937 132.09194 
L 1045.885649 105.083332 
L 1046.349505 109.708653 
L 1046.81336 110.613459 
L 1047.741072 137.100381 
L 1048.204928 127.754505 
L 1049.132639 147.991523 
L 1049.596495 144.173869 
L 1050.060351 124.114873 
L 1050.524207 122.125946 
L 1050.988063 115.74387 
L 1051.451919 135.034042 
L 1051.915774 133.773803 
L 1052.37963 130.355526 
L 1052.843486 121.395014 
L 1053.307342 119.434113 
L 1053.771198 111.209296 
L 1054.235054 113.907797 
L 1054.698909 114.525332 
L 1055.626621 141.642849 
L 1056.090477 160.512624 
L 1057.018188 189.627028 
L 1057.482044 189.389756 
L 1057.9459 181.326091 
L 1058.409756 178.482356 
L 1059.337468 159.832644 
L 1059.801323 164.226746 
L 1060.265179 160.07978 
L 1060.729035 152.597664 
L 1061.192891 166.212476 
L 1061.656747 158.660294 
L 1062.120603 144.122514 
L 1062.584458 140.325879 
L 1063.048314 143.942247 
L 1063.51217 131.359313 
L 1063.976026 135.928581 
L 1064.439882 115.69442 
L 1064.903737 110.328303 
L 1065.367593 131.84658 
L 1065.831449 126.578555 
L 1066.295305 126.075031 
L 1066.759161 134.532972 
L 1067.223017 135.451792 
L 1067.686872 146.481161 
L 1068.150728 160.887721 
L 1068.614584 160.314131 
L 1069.07844 176.990835 
L 1069.542296 175.16306 
L 1070.006151 174.414304 
L 1070.470007 180.139664 
L 1070.933863 175.6774 
L 1071.397719 158.729343 
L 1071.861575 162.093473 
L 1072.325431 170.320195 
L 1072.789286 168.996897 
L 1073.253142 177.679049 
L 1073.716998 174.148666 
L 1074.64471 174.128599 
L 1075.108566 190.314839 
L 1075.572421 181.263241 
L 1076.036277 169.738307 
L 1076.500133 168.337936 
L 1076.963989 157.527676 
L 1077.427845 156.463623 
L 1077.8917 154.117358 
L 1078.355556 159.723605 
L 1078.819412 160.733511 
L 1079.283268 154.946997 
L 1079.747124 164.182672 
L 1080.21098 182.442872 
L 1080.674835 191.482362 
L 1081.138691 196.163735 
L 1081.602547 187.322335 
L 1082.066403 190.483273 
L 1082.530259 197.820155 
L 1082.994115 193.827335 
L 1083.921826 168.640447 
L 1084.385682 160.058292 
L 1084.849538 158.80506 
L 1085.313394 145.773703 
L 1085.777249 151.323897 
L 1086.241105 138.909122 
L 1086.704961 132.365893 
L 1087.168817 136.781015 
L 1087.632673 149.02253 
L 1088.096529 155.63773 
L 1088.560384 177.576404 
L 1089.02424 174.221186 
L 1089.488096 187.100303 
L 1089.951952 187.024183 
L 1090.415808 174.455262 
L 1090.879663 151.236282 
L 1091.343519 139.816447 
L 1091.807375 120.114789 
L 1092.271231 110.21539 
L 1092.735087 109.887031 
L 1093.198943 114.659491 
L 1093.662798 132.261068 
L 1094.126654 156.126563 
L 1094.59051 162.447485 
L 1095.054366 166.722474 
L 1095.518222 176.39256 
L 1095.982078 175.433606 
L 1096.445933 172.835103 
L 1097.373645 164.176828 
L 1097.837501 170.322585 
L 1098.301357 173.462502 
L 1098.765212 179.615265 
L 1099.229068 173.940857 
L 1099.692924 174.467306 
L 1100.15678 173.122988 
L 1100.620636 169.361386 
L 1101.084492 174.133846 
L 1101.548347 184.161269 
L 1102.012203 177.688106 
L 1102.476059 180.043283 
L 1103.403771 190.155738 
L 1103.867627 193.134503 
L 1104.331482 187.291936 
L 1104.795338 173.020407 
L 1105.259194 178.724747 
L 1105.72305 191.2185 
L 1106.186906 193.664762 
L 1107.114617 221.517975 
L 1107.578473 227.572645 
L 1108.042329 226.298393 
L 1108.506185 203.289611 
L 1108.970041 192.3182 
L 1109.433896 187.554652 
L 1110.361608 142.055578 
L 1110.825464 121.709311 
L 1111.28932 126.579864 
L 1111.753176 148.665677 
L 1112.217031 153.192905 
L 1112.680887 146.705729 
L 1113.608599 173.073538 
L 1115.000166 221.933545 
L 1115.464022 224.842244 
L 1115.927878 232.52245 
L 1116.391734 229.04812 
L 1116.85559 220.935408 
L 1117.783301 222.022387 
L 1118.247157 213.180987 
L 1118.711013 215.115766 
L 1119.638724 230.027755 
L 1120.10258 227.737543 
L 1120.566436 228.57929 
L 1121.030292 226.702469 
L 1121.494148 227.82448 
L 1121.958004 215.346645 
L 1122.421859 205.986756 
L 1122.885715 207.690317 
L 1123.349571 213.065345 
L 1123.813427 224.101722 
L 1124.277283 231.88002 
L 1124.741139 231.677781 
L 1125.204994 227.194498 
L 1125.66885 232.513474 
L 1126.132706 229.900958 
L 1126.596562 233.573378 
L 1127.060418 238.184685 
L 1127.524273 232.58735 
L 1128.451985 238.222576 
L 1128.915841 237.01839 
L 1129.379697 223.762821 
L 1129.843553 222.257351 
L 1130.307408 211.664296 
L 1130.771264 210.495144 
L 1131.23512 217.586794 
L 1132.162832 208.557168 
L 1133.554399 215.200395 
L 1134.018255 207.09469 
L 1134.482111 201.245116 
L 1134.945967 205.646225 
L 1135.409822 194.688826 
L 1135.873678 191.200483 
L 1136.337534 196.645578 
L 1136.80139 190.641859 
L 1137.265246 189.269514 
L 1137.729102 182.460034 
L 1138.192957 167.081459 
L 1138.656813 163.635155 
L 1139.584525 169.57772 
L 1140.048381 160.925499 
L 1140.512236 162.979391 
L 1140.976092 162.763138 
L 1141.439948 184.449574 
L 1141.903804 191.064774 
L 1142.36766 188.164987 
L 1143.295371 173.340888 
L 1143.759227 188.609261 
L 1144.223083 187.377049 
L 1144.686939 169.427046 
L 1145.150795 168.405032 
L 1145.614651 159.570639 
L 1146.078506 159.130174 
L 1146.542362 162.263085 
L 1147.006218 149.610085 
L 1147.93393 135.045231 
L 1148.397785 133.217456 
L 1149.789353 131.613893 
L 1150.253209 131.48172 
L 1150.717065 132.008169 
L 1151.18092 129.283547 
L 1151.644776 122.404 
L 1152.572488 113.640626 
L 1153.036344 121.362872 
L 1153.5002 122.44985 
L 1153.964055 127.488561 
L 1154.427911 122.914192 
L 1154.891767 131.659404 
L 1155.355623 131.583284 
L 1155.819479 141.926005 
L 1156.283334 144.274174 
L 1156.74719 144.3522 
L 1157.211046 143.729563 
L 1157.674902 142.287152 
L 1158.138758 144.341044 
L 1158.602614 147.438922 
L 1159.530325 123.31704 
L 1159.994181 114.980117 
L 1160.458037 113.817971 
L 1160.921893 117.574471 
L 1161.385748 122.718281 
L 1161.849604 131.96797 
L 1162.777316 136.482137 
L 1163.705028 159.584862 
L 1164.168883 165.310222 
L 1164.632739 177.48167 
L 1165.096595 180.586555 
L 1165.560451 192.512771 
L 1166.488163 185.550098 
L 1166.952018 171.705973 
L 1167.415874 162.87158 
L 1167.87973 138.041077 
L 1168.343586 129.29777 
L 1168.807442 128.170657 
L 1169.271297 133.769898 
L 1170.199009 121.229956 
L 1171.126721 136.968726 
L 1172.054432 131.028066 
L 1172.518288 131.379349 
L 1172.982144 135.829504 
L 1173.446 134.681372 
L 1173.909856 143.279445 
L 1174.373712 146.972885 
L 1174.837567 147.415254 
L 1175.301423 155.459805 
L 1175.765279 147.900616 
L 1176.229135 142.443413 
L 1176.692991 156.562701 
L 1177.156846 155.232396 
L 1177.620702 141.738602 
L 1178.084558 141.172019 
L 1178.548414 137.46647 
L 1179.01227 139.25411 
L 1179.476126 142.176823 
L 1179.939981 130.434683 
L 1180.403837 128.35467 
L 1180.867693 140.855429 
L 1181.331549 148.33945 
L 1181.795405 152.299142 
L 1182.25926 146.022164 
L 1182.723116 153.653324 
L 1183.186972 157.178606 
L 1183.650828 151.805482 
L 1184.57854 133.281888 
L 1185.042395 135.258707 
L 1185.506251 132.758297 
L 1185.970107 135.940254 
L 1186.433963 135.815088 
L 1186.897819 134.512809 
L 1188.289386 96.897134 
L 1188.753242 106.188862 
L 1189.217098 92.533915 
L 1189.680954 84.918674 
L 1190.144809 97.83983 
L 1190.608665 121.509139 
L 1191.536377 142.488859 
L 1192.000233 126.752947 
L 1192.464089 122.746114 
L 1192.927944 115.03278 
L 1193.855656 93.797625 
L 1194.319512 90.253229 
L 1194.783368 90.835731 
L 1195.247224 114.792311 
L 1195.711079 116.860216 
L 1196.174935 123.692621 
L 1196.638791 126.033784 
L 1197.102647 131.240654 
L 1197.566503 145.289876 
L 1198.030358 147.715119 
L 1198.494214 132.700888 
L 1198.95807 149.587791 
L 1199.421926 156.525295 
L 1199.885782 155.230023 
L 1200.349638 164.248494 
L 1200.813493 164.887048 
L 1201.277349 158.308786 
L 1201.741205 164.244344 
L 1202.205061 153.518164 
L 1202.668917 157.071472 
L 1203.132772 161.745839 
L 1203.596628 151.559169 
L 1204.060484 146.550389 
L 1204.52434 147.25901 
L 1205.915907 165.535128 
L 1206.379763 176.858776 
L 1206.843619 167.625006 
L 1207.307475 176.678509 
L 1207.771331 179.194837 
L 1208.235187 160.733351 
L 1209.162898 160.616328 
L 1209.626754 155.916976 
L 1210.09061 142.389286 
L 1210.554466 142.209204 
L 1211.018321 127.147064 
L 1211.482177 135.851373 
L 1212.409889 161.232387 
L 1212.873745 160.266426 
L 1213.801456 195.932018 
L 1214.265312 205.777269 
L 1214.729168 200.859575 
L 1215.193024 201.070726 
L 1215.65688 192.523605 
L 1216.120736 201.093651 
L 1217.512303 171.668712 
L 1217.976159 185.150398 
L 1218.440015 182.79012 
L 1218.90387 187.387415 
L 1219.367726 163.642938 
L 1219.831582 159.629098 
L 1220.295438 163.11234 
L 1220.759294 171.304029 
L 1221.22315 162.693848 
L 1221.687005 167.122983 
L 1222.150861 169.078782 
L 1222.614717 179.540616 
L 1223.078573 183.983764 
L 1223.542429 201.83758 
L 1224.006284 193.843981 
L 1224.47014 199.989738 
L 1224.933996 201.055696 
L 1225.397852 210.634696 
L 1226.325564 211.561474 
L 1226.789419 199.672196 
L 1227.253275 207.345395 
L 1228.180987 183.307593 
L 1228.644843 168.867906 
L 1229.108699 177.29782 
L 1229.572554 178.195619 
L 1230.03641 168.373293 
L 1230.500266 165.781797 
L 1230.964122 171.121793 
L 1231.427978 181.786818 
L 1231.891833 179.265388 
L 1232.355689 178.040182 
L 1232.819545 174.096409 
L 1233.283401 176.907015 
L 1233.747257 170.686091 
L 1234.211113 168.003508 
L 1235.138824 150.166564 
L 1235.60268 152.290521 
L 1236.066536 144.472088 
L 1236.530392 149.125435 
L 1236.994248 159.391083 
L 1237.458103 146.773116 
L 1237.921959 157.396102 
L 1238.385815 173.126912 
L 1238.849671 164.061301 
L 1239.313527 164.209392 
L 1239.777382 163.824981 
L 1240.241238 166.306276 
L 1240.705094 181.700769 
L 1241.16895 167.772565 
L 1241.632806 165.524393 
L 1242.096662 173.386771 
L 1242.560517 170.935407 
L 1243.024373 167.706309 
L 1243.488229 166.390017 
L 1243.952085 149.498013 
L 1244.415941 155.349492 
L 1245.343652 147.272766 
L 1245.807508 159.10089 
L 1246.271364 158.870624 
L 1246.73522 157.638412 
L 1247.199076 160.533097 
L 1247.662931 157.226926 
L 1248.126787 152.435352 
L 1248.590643 151.441365 
L 1249.054499 139.019583 
L 1249.518355 135.061796 
L 1249.982211 127.901985 
L 1250.446066 129.437387 
L 1250.909922 124.912064 
L 1251.373778 128.094021 
L 1251.837634 112.182944 
L 1252.30149 115.063616 
L 1252.765345 108.968811 
L 1253.229201 111.625272 
L 1253.693057 112.074648 
L 1254.156913 123.783659 
L 1254.620769 123.399248 
L 1255.084625 143.263963 
L 1255.54848 138.451369 
L 1256.476192 158.898586 
L 1256.940048 176.226905 
L 1257.403904 178.596095 
L 1257.86776 179.606 
L 1258.331615 177.995431 
L 1259.259327 188.465223 
L 1259.723183 190.512108 
L 1260.187039 186.82758 
L 1260.650894 191.99241 
L 1261.578606 179.172204 
L 1262.042462 185.388026 
L 1263.434029 165.415015 
L 1263.897885 158.535469 
L 1264.361741 172.003142 
L 1264.825597 181.007599 
L 1265.289453 181.036578 
L 1265.753309 185.654891 
L 1266.68102 192.264037 
L 1267.144876 189.189085 
L 1267.608732 189.715533 
L 1268.072588 182.716874 
L 1268.536443 187.391241 
L 1269.000299 195.155527 
L 1269.464155 208.286882 
L 1270.391867 212.913155 
L 1270.855723 201.563386 
L 1271.319578 201.059862 
L 1271.783434 189.948318 
L 1272.24729 171.788116 
L 1272.711146 158.812812 
L 1273.175002 153.790019 
L 1273.638857 153.06929 
L 1274.102713 160.59535 
L 1275.030425 154.396398 
L 1275.494281 148.259553 
L 1275.958137 137.526366 
L 1276.421992 140.77839 
L 1276.885848 146.601842 
L 1277.349704 149.041098 
L 1277.81356 155.38304 
L 1278.277416 156.575117 
L 1279.205127 175.852229 
L 1279.668983 167.907677 
L 1280.132839 150.588269 
L 1280.596695 150.75738 
L 1281.060551 155.98527 
L 1281.524406 171.30269 
L 1281.988262 171.247589 
L 1282.452118 172.01927 
L 1282.915974 172.328514 
L 1283.37983 195.563412 
L 1283.843686 202.53595 
L 1284.307541 207.707787 
L 1284.771397 202.033378 
L 1285.699109 223.832873 
L 1286.162965 239.991087 
L 1286.626821 238.983086 
L 1287.090676 240.22421 
L 1287.554532 246.524113 
L 1288.018388 263.663253 
L 1288.482244 276.318158 
L 1289.409955 292.204067 
L 1289.873811 294.56625 
L 1290.337667 299.422789 
L 1290.801523 294.203811 
L 1291.265379 295.395888 
L 1291.729235 293.715252 
L 1292.19309 278.091446 
L 1292.656946 280.698861 
L 1293.120802 281.211296 
L 1293.584658 272.376903 
L 1294.048514 276.848078 
L 1294.512369 277.51466 
L 1294.976225 281.656523 
L 1295.440081 295.278342 
L 1295.903937 296.38634 
L 1296.367793 293.353427 
L 1296.831649 300.143792 
L 1297.295504 292.255293 
L 1298.223216 278.838571 
L 1298.687072 266.101492 
L 1299.150928 244.648179 
L 1299.614784 235.211217 
L 1300.078639 235.70964 
L 1300.542495 231.289416 
L 1301.006351 223.821314 
L 1301.470207 225.069444 
L 1301.934063 224.657006 
L 1302.397918 229.387426 
L 1303.789486 212.11897 
L 1304.253342 214.677338 
L 1304.717198 205.688799 
L 1305.181053 198.907345 
L 1306.108765 201.605846 
L 1306.572621 188.36429 
L 1307.036477 181.365631 
L 1307.964188 187.561386 
L 1308.428044 182.230302 
L 1308.8919 178.398635 
L 1309.355756 169.550228 
L 1309.819612 176.375627 
L 1310.283467 186.823447 
L 1310.747323 192.499761 
L 1311.211179 193.46062 
L 1311.675035 202.296918 
L 1312.138891 214.713598 
L 1312.602747 219.58415 
L 1313.066602 234.004723 
L 1313.530458 235.792363 
L 1313.994314 231.76451 
L 1314.45817 234.729262 
L 1314.922026 242.458515 
L 1315.385881 238.72494 
L 1315.849737 229.252944 
L 1316.777449 190.676409 
L 1317.241305 175.192736 
L 1318.169016 132.524336 
L 1318.632872 126.128246 
L 1319.096728 135.94547 
L 1319.560584 138.006369 
L 1320.02444 145.483383 
L 1320.488296 159.105201 
L 1321.879863 166.694321 
L 1322.343719 173.176396 
L 1323.27143 168.701072 
L 1323.735286 171.070261 
L 1324.199142 166.572965 
L 1324.662998 153.933978 
L 1325.126854 157.781564 
L 1325.59071 164.634989 
L 1326.054565 166.79398 
L 1326.518421 170.865778 
L 1326.982277 165.758905 
L 1327.446133 151.536423 
L 1327.909989 153.345083 
L 1328.373845 156.61112 
L 1328.8377 154.131729 
L 1329.301556 138.53595 
L 1329.765412 132.132853 
L 1330.229268 131.56627 
L 1330.693124 140.507667 
L 1331.156979 137.97923 
L 1331.620835 126.552388 
L 1332.084691 129.860465 
L 1332.548547 141.93382 
L 1333.012403 140.414337 
L 1333.476259 145.263869 
L 1333.940114 147.373814 
L 1334.40397 151.228406 
L 1334.867826 156.32317 
L 1335.331682 134.169196 
L 1335.795538 135.207128 
L 1336.259393 138.438131 
L 1336.723249 146.209424 
L 1337.187105 149.895857 
L 1337.650961 157.744222 
L 1338.114817 158.298698 
L 1338.578673 187.075831 
L 1339.042528 187.966624 
L 1339.506384 187.140796 
L 1339.97024 194.029254 
L 1340.434096 210.131415 
L 1340.897952 199.314149 
L 1341.361808 198.067924 
L 1341.825663 181.316052 
L 1342.289519 188.715993 
L 1342.753375 185.339756 
L 1343.217231 176.876714 
L 1343.681087 154.960964 
L 1344.144942 155.200142 
L 1344.608798 157.085875 
L 1345.072654 162.075539 
L 1345.53651 159.063646 
L 1346.000366 173.007769 
L 1346.928077 173.744416 
L 1347.391933 170.63443 
L 1347.855789 168.358232 
L 1348.319645 180.123296 
L 1349.247357 180.286354 
L 1350.175068 167.304043 
L 1350.638924 164.299156 
L 1351.10278 174.501745 
L 1352.030491 172.043374 
L 1352.494347 156.959078 
L 1352.958203 149.757227 
L 1353.422059 148.840312 
L 1353.885915 147.257769 
L 1354.349771 139.236143 
L 1354.813626 139.10397 
L 1355.277482 148.718003 
L 1355.741338 149.53873 
L 1356.205194 164.281607 
L 1357.132905 170.785654 
L 1357.596761 181.338573 
L 1358.060617 186.741629 
L 1358.524473 186.301164 
L 1358.988329 183.065059 
L 1359.91604 144.453491 
L 1360.379896 132.98461 
L 1360.843752 117.30475 
L 1361.771464 96.672165 
L 1362.23532 103.154239 
L 1362.699175 123.502411 
L 1363.163031 150.976314 
L 1363.626887 164.605139 
L 1364.090743 160.507219 
L 1364.554599 163.892369 
L 1365.018454 163.844275 
L 1365.946166 147.513753 
L 1366.410022 121.737357 
L 1366.873878 121.107714 
L 1367.337734 124.275658 
L 1367.801589 120.85738 
L 1368.265445 124.214503 
L 1368.729301 133.989688 
L 1369.193157 130.949768 
L 1369.657013 134.243831 
L 1370.120869 123.468605 
L 1371.512436 123.610827 
L 1371.976292 128.643668 
L 1372.440148 141.376783 
L 1373.367859 129.322572 
L 1373.831715 143.407964 
L 1374.295571 144.622199 
L 1374.759427 148.64495 
L 1375.687138 130.913105 
L 1376.150994 133.37338 
L 1376.61485 140.94148 
L 1377.078706 137.649322 
L 1377.542562 147.298388 
L 1378.006418 149.156094 
L 1378.470273 167.647512 
L 1378.934129 176.785095 
L 1379.397985 194.82809 
L 1379.861841 191.928302 
L 1380.325697 186.646265 
L 1380.789552 177.692759 
L 1381.253408 184.364012 
L 1381.717264 181.492251 
L 1382.18112 173.975102 
L 1382.644976 159.17107 
L 1383.108832 158.786659 
L 1383.572687 154.016104 
L 1384.036543 172.892887 
L 1384.500399 159.952615 
L 1385.428111 146.248622 
L 1385.891966 152.387373 
L 1386.355822 153.901755 
L 1386.819678 152.669542 
L 1387.283534 165.212341 
L 1387.74739 152.29309 
L 1388.211246 161.444686 
L 1388.675101 173.602121 
L 1389.602813 152.437032 
L 1390.066669 146.426306 
L 1390.530525 131.573228 
L 1391.458236 142.414372 
L 1391.922092 127.820539 
L 1392.385948 130.91141 
L 1392.849804 137.246345 
L 1393.31366 170.087317 
L 1393.777515 185.54487 
L 1394.241371 172.492492 
L 1394.705227 174.329179 
L 1395.169083 182.822153 
L 1395.632939 184.238442 
L 1396.096795 187.77073 
L 1396.56065 151.162102 
L 1397.024506 139.553088 
L 1397.488362 146.609706 
L 1397.952218 140.346741 
L 1398.416074 141.43372 
L 1399.343785 114.390078 
L 1399.807641 122.539728 
L 1400.271497 121.335542 
L 1400.735353 115.647121 
L 1401.199209 115.311755 
L 1401.663064 116.181529 
L 1402.12692 131.323783 
L 1402.590776 138.303327 
L 1403.054632 148.134565 
L 1403.518488 155.170163 
L 1403.982344 165.709069 
L 1404.446199 173.249143 
L 1404.910055 166.25749 
L 1405.373911 152.987908 
L 1405.837767 150.347365 
L 1406.301623 140.027569 
L 1406.765478 138.711277 
L 1407.229334 138.502031 
L 1407.69319 132.126961 
L 1408.620902 158.529804 
L 1409.084758 151.517131 
L 1409.548613 149.514191 
L 1410.012469 149.487117 
L 1410.476325 148.135792 
L 1410.940181 137.984155 
L 1411.404037 133.865216 
L 1411.867893 127.265934 
L 1412.331748 130.279733 
L 1412.795604 123.680451 
L 1413.25946 126.413984 
L 1413.723316 111.658999 
L 1414.187172 116.63465 
L 1414.651027 115.990994 
L 1415.114883 116.545469 
L 1415.578739 127.637899 
L 1416.042595 142.590974 
L 1416.506451 147.188268 
L 1416.970307 168.524373 
L 1417.434162 176.645996 
L 1417.898018 180.192298 
L 1418.361874 187.094769 
L 1418.82573 185.85555 
L 1419.289586 186.872463 
L 1419.753442 176.209342 
L 1420.217297 161.96584 
L 1420.681153 157.188279 
L 1421.145009 150.056494 
L 1421.608865 146.939501 
L 1422.072721 145.966534 
L 1423.000432 133.082315 
L 1423.928144 111.777094 
L 1424.392 106.516077 
L 1424.855856 107.34381 
L 1425.319711 108.655 
L 1425.783567 111.255408 
L 1426.711279 138.106674 
L 1427.175135 165.622616 
L 1428.566702 204.070788 
L 1429.030558 205.795369 
L 1429.494414 200.800603 
L 1429.95827 207.324717 
L 1430.422125 199.338124 
L 1430.885981 184.274848 
L 1431.349837 174.312389 
L 1431.813693 156.397419 
L 1432.277549 151.816043 
L 1432.741405 168.899131 
L 1433.20526 152.798875 
L 1433.669116 142.640231 
L 1434.132972 158.06275 
L 1435.060684 149.705759 
L 1435.524539 150.085069 
L 1435.988395 139.050598 
L 1436.916107 169.201981 
L 1437.379963 161.369535 
L 1438.307674 169.94754 
L 1438.77153 175.077338 
L 1439.235386 184.411106 
L 1439.699242 187.726188 
L 1440.626954 179.088933 
L 1441.090809 170.310593 
L 1441.554665 174.270285 
L 1442.018521 167.881202 
L 1442.946233 142.547175 
L 1443.410088 131.16938 
L 1444.3378 147.608811 
L 1444.801656 146.551764 
L 1445.265512 149.215232 
L 1445.729368 134.873637 
L 1446.193223 140.998374 
L 1446.657079 151.859584 
L 1447.120935 143.144304 
L 1447.584791 143.993057 
L 1448.048647 143.846871 
L 1448.512502 151.302865 
L 1448.976358 178.034066 
L 1449.440214 181.706486 
L 1449.90407 187.677078 
L 1450.367926 198.405163 
L 1451.759493 194.987838 
L 1452.223349 186.251538 
L 1452.687205 174.866736 
L 1453.151061 175.218019 
L 1453.614917 161.3809 
L 1454.078772 153.632533 
L 1454.542628 162.398765 
L 1455.006484 158.770289 
L 1455.47034 169.372255 
L 1455.934196 168.210109 
L 1456.398051 164.19627 
L 1456.861907 172.15674 
L 1457.325763 170.476104 
L 1457.789619 161.270361 
L 1458.253475 161.67069 
L 1458.717331 149.332988 
L 1459.181186 153.544918 
L 1460.108898 174.734837 
L 1460.572754 193.149182 
L 1461.964321 229.081978 
L 1462.428177 238.941242 
L 1462.892033 238.325612 
L 1463.819745 225.834717 
L 1464.2836 222.752758 
L 1464.747456 211.809372 
L 1465.211312 210.072684 
L 1465.675168 200.446543 
L 1466.139024 188.227953 
L 1466.60288 190.926454 
L 1467.066735 184.243092 
L 1467.530591 186.815474 
L 1467.994447 195.077229 
L 1468.458303 193.655838 
L 1468.922159 197.314245 
L 1469.386014 209.380594 
L 1469.84987 211.518566 
L 1470.313726 209.417533 
L 1470.777582 199.083723 
L 1471.241438 194.404255 
L 1471.705294 198.987536 
L 1472.169149 210.451316 
L 1472.633005 217.872277 
L 1473.096861 222.210326 
L 1473.560717 229.393062 
L 1474.024573 231.033563 
L 1474.488429 234.166474 
L 1474.952284 222.228149 
L 1475.41614 214.066392 
L 1475.879996 209.260804 
L 1476.343852 195.318586 
L 1476.807708 194.387659 
L 1477.271563 213.460626 
L 1478.199275 234.664558 
L 1478.663131 229.326467 
L 1479.126987 230.077128 
L 1479.590843 234.814554 
L 1480.054698 236.202817 
L 1480.518554 232.392169 
L 1480.98241 233.647306 
L 1481.446266 234.334908 
L 1481.910122 241.671789 
L 1482.373978 234.413885 
L 1482.837833 239.186345 
L 1483.301689 241.513495 
L 1483.765545 235.306583 
L 1484.693257 232.877192 
L 1485.157112 236.570632 
L 1485.620968 242.310005 
L 1486.084824 244.391923 
L 1486.54868 248.057337 
L 1487.012536 253.138088 
L 1487.476392 244.962317 
L 1487.940247 245.159455 
L 1488.404103 239.358927 
L 1488.867959 238.021616 
L 1489.331815 234.764491 
L 1489.795671 239.971361 
L 1490.259527 242.291504 
L 1490.723382 254.196701 
L 1491.187238 256.145493 
L 1491.651094 260.81986 
L 1492.11495 269.011549 
L 1493.506517 266.167815 
L 1493.970373 249.500023 
L 1494.434229 237.18334 
L 1494.898085 228.496086 
L 1495.825796 237.732714 
L 1496.289652 218.605599 
L 1497.217364 211.152462 
L 1497.68122 214.383465 
L 1498.145075 212.870988 
L 1498.608931 209.389652 
L 1499.072787 189.695 
L 1499.536643 176.299299 
L 1500.000499 157.326329 
L 1500.464355 167.381779 
L 1500.92821 165.049528 
L 1501.392066 156.117042 
L 1501.855922 139.147965 
L 1502.319778 134.062113 
L 1502.783634 146.240568 
L 1503.24749 154.42525 
L 1503.711345 150.866841 
L 1504.175201 146.166352 
L 1504.639057 149.075052 
L 1505.566769 172.079684 
L 1506.030624 173.103603 
L 1506.49448 192.989338 
L 1506.958336 192.674993 
L 1507.422192 192.760025 
L 1507.886048 191.177481 
L 1508.349904 169.829268 
L 1508.813759 154.170429 
L 1509.277615 153.302561 
L 1509.741471 134.504757 
L 1510.205327 120.408393 
L 1510.669183 117.312421 
L 1511.133039 120.459345 
L 1512.06075 152.411429 
L 1512.524606 151.060104 
L 1512.988462 150.444474 
L 1513.452318 164.115339 
L 1513.916173 169.861718 
L 1514.380029 167.99891 
L 1514.843885 156.333844 
L 1515.307741 151.163912 
L 1515.771597 161.814924 
L 1516.235453 178.162317 
L 1516.699308 172.130571 
L 1517.163164 152.099602 
L 1517.62702 142.025038 
L 1518.090876 157.888974 
L 1518.554732 163.12387 
L 1519.018587 158.045024 
L 1519.482443 148.734181 
L 1519.946299 153.443581 
L 1520.410155 162.448038 
L 1520.874011 161.376978 
L 1521.801722 131.460623 
L 1522.265578 112.165349 
L 1522.729434 98.054973 
L 1523.19329 98.266124 
L 1523.657146 105.252675 
L 1524.121002 120.002559 
L 1525.048713 135.867447 
L 1525.512569 149.216007 
L 1525.976425 159.096292 
L 1526.440281 136.297709 
L 1526.904136 121.360551 
L 1527.831848 81.69799 
L 1528.295704 98.4868 
L 1528.75956 94.47296 
L 1529.223416 88.539307 
L 1529.687271 101.642636 
L 1530.614983 109.849291 
L 1531.078839 126.063558 
L 1531.542695 105.766337 
L 1532.006551 103.889516 
L 1532.470406 111.317484 
L 1533.398118 123.601038 
L 1533.861974 143.732005 
L 1534.32583 153.177879 
L 1534.789685 156.177664 
L 1535.253541 153.537121 
L 1536.181253 158.81501 
L 1536.645109 136.597976 
L 1537.108965 125.794723 
L 1537.57282 127.526311 
L 1538.036676 127.190945 
L 1538.964388 133.309628 
L 1539.892099 174.286237 
L 1540.355955 176.494274 
L 1540.819811 172.410368 
L 1541.283667 167.065271 
L 1542.211379 193.825451 
L 1542.675234 167.943956 
L 1543.13909 169.857715 
L 1543.602946 171.112852 
L 1544.066802 177.812132 
L 1544.530658 195.392689 
L 1544.994514 193.074451 
L 1545.458369 186.482176 
L 1545.922225 185.565261 
L 1546.386081 181.593461 
L 1546.849937 182.112904 
L 1547.313793 182.310041 
L 1547.777648 184.132715 
L 1548.241504 185.114594 
L 1548.70536 186.460817 
L 1549.169216 195.051883 
L 1549.633072 186.245517 
L 1550.096928 184.340669 
L 1550.560783 187.858944 
L 1551.024639 185.44962 
L 1551.488495 184.056255 
L 1552.416207 166.877933 
L 1553.343918 185.286224 
L 1555.663197 180.45261 
L 1556.127053 173.748229 
L 1556.590909 171.836374 
L 1556.590909 171.836374 
" clip-path="url(#p636f3d565e)" style="fill: none; stroke: #f66baf; stroke-width: 2.5; stroke-linecap: square"/>
   </g>
   <g id="patch_3">
    <path d="M 225 320.4 
L 225 43.2 
" style="fill: none; stroke: #000000; stroke-width: 0.8; stroke-linejoin: miter; stroke-linecap: square"/>
   </g>
   <g id="patch_4">
    <path d="M 1620 320.4 
L 1620 43.2 
" style="fill: none; stroke: #000000; stroke-width: 0.8; stroke-linejoin: miter; stroke-linecap: square"/>
   </g>
   <g id="patch_5">
    <path d="M 225 320.4 
L 1620 320.4 
" style="fill: none; stroke: #000000; stroke-width: 0.8; stroke-linejoin: miter; stroke-linecap: square"/>
   </g>
   <g id="patch_6">
    <path d="M 225 43.2 
L 1620 43.2 
" style="fill: none; stroke: #000000; stroke-width: 0.8; stroke-linejoin: miter; stroke-linecap: square"/>
   </g>
   <g id="text_17">
    <!-- ROVI -->
    <g transform="translate(898.064062 37.2) scale(0.2 -0.2)">
     <defs>
      <path id="DejaVuSans-52" d="M 2841 2188 
Q 3044 2119 3236 1894 
Q 3428 1669 3622 1275 
L 4263 0 
L 3584 0 
L 2988 1197 
Q 2756 1666 2539 1819 
Q 2322 1972 1947 1972 
L 1259 1972 
L 1259 0 
L 628 0 
L 628 4666 
L 2053 4666 
Q 2853 4666 3247 4331 
Q 3641 3997 3641 3322 
Q 3641 2881 3436 2590 
Q 3231 2300 2841 2188 
z
M 1259 4147 
L 1259 2491 
L 2053 2491 
Q 2509 2491 2742 2702 
Q 2975 2913 2975 3322 
Q 2975 3731 2742 3939 
Q 2509 4147 2053 4147 
L 1259 4147 
z
" transform="scale(0.015625)"/>
      <path id="DejaVuSans-4f" d="M 2522 4238 
Q 1834 4238 1429 3725 
Q 1025 3213 1025 2328 
Q 1025 1447 1429 934 
Q 1834 422 2522 422 
Q 3209 422 3611 934 
Q 4013 1447 4013 2328 
Q 4013 3213 3611 3725 
Q 3209 4238 2522 4238 
z
M 2522 4750 
Q 3503 4750 4090 4092 
Q 4678 3434 4678 2328 
Q 4678 1225 4090 567 
Q 3503 -91 2522 -91 
Q 1538 -91 948 565 
Q 359 1222 359 2328 
Q 359 3434 948 4092 
Q 1538 4750 2522 4750 
z
" transform="scale(0.015625)"/>
      <path id="DejaVuSans-56" d="M 1831 0 
L 50 4666 
L 709 4666 
L 2188 738 
L 3669 4666 
L 4325 4666 
L 2547 0 
L 1831 0 
z
" transform="scale(0.015625)"/>
      <path id="DejaVuSans-49" d="M 628 4666 
L 1259 4666 
L 1259 0 
L 628 0 
L 628 4666 
z
" transform="scale(0.015625)"/>
     </defs>
     <use xlink:href="#DejaVuSans-52"/>
     <use xlink:href="#DejaVuSans-4f" x="69.482422"/>
     <use xlink:href="#DejaVuSans-56" x="146.443359"/>
     <use xlink:href="#DejaVuSans-49" x="214.851562"/>
    </g>
   </g>
   <g id="legend_1">
    <g id="patch_7">
     <path d="M 1562.298438 65.878125 
L 1613 65.878125 
Q 1615 65.878125 1615 63.878125 
L 1615 50.2 
Q 1615 48.2 1613 48.2 
L 1562.298438 48.2 
Q 1560.298438 48.2 1560.298438 50.2 
L 1560.298438 63.878125 
Q 1560.298438 65.878125 1562.298438 65.878125 
z
" style="fill: #ffffff; opacity: 0.8; stroke: #cccccc; stroke-linejoin: miter"/>
    </g>
    <g id="line2d_16">
     <path d="M 1564.298438 56.298437 
L 1574.298438 56.298437 
L 1584.298438 56.298437 
" style="fill: none; stroke: #f66baf; stroke-width: 2.5; stroke-linecap: square"/>
    </g>
    <g id="text_18">
     <!-- rovi -->
     <g transform="translate(1592.298438 59.798437) scale(0.1 -0.1)">
      <defs>
       <path id="DejaVuSans-72" d="M 2631 2963 
Q 2534 3019 2420 3045 
Q 2306 3072 2169 3072 
Q 1681 3072 1420 2755 
Q 1159 2438 1159 1844 
L 1159 0 
L 581 0 
L 581 3500 
L 1159 3500 
L 1159 2956 
Q 1341 3275 1631 3429 
Q 1922 3584 2338 3584 
Q 2397 3584 2469 3576 
Q 2541 3569 2628 3553 
L 2631 2963 
z
" transform="scale(0.015625)"/>
       <path id="DejaVuSans-6f" d="M 1959 3097 
Q 1497 3097 1228 2736 
Q 959 2375 959 1747 
Q 959 1119 1226 758 
Q 1494 397 1959 397 
Q 2419 397 2687 759 
Q 2956 1122 2956 1747 
Q 2956 2369 2687 2733 
Q 2419 3097 1959 3097 
z
M 1959 3584 
Q 2709 3584 3137 3096 
Q 3566 2609 3566 1747 
Q 3566 888 3137 398 
Q 2709 -91 1959 -91 
Q 1206 -91 779 398 
Q 353 888 353 1747 
Q 353 2609 779 3096 
Q 1206 3584 1959 3584 
z
" transform="scale(0.015625)"/>
       <path id="DejaVuSans-76" d="M 191 3500 
L 800 3500 
L 1894 563 
L 2988 3500 
L 3597 3500 
L 2284 0 
L 1503 0 
L 191 3500 
z
" transform="scale(0.015625)"/>
      </defs>
      <use xlink:href="#DejaVuSans-72"/>
      <use xlink:href="#DejaVuSans-6f" x="38.863281"/>
      <use xlink:href="#DejaVuSans-76" x="100.044922"/>
      <use xlink:href="#DejaVuSans-69" x="159.224609"/>
     </g>
    </g>
   </g>
  </g>
 </g>
 <defs>
  <clipPath id="p636f3d565e">
   <rect x="225" y="43.2" width="1395" height="277.2"/>
  </clipPath>
 </defs>
</svg>
