<?xml version="1.0" encoding="utf-8" standalone="no"?>
<!DOCTYPE svg PUBLIC "-//W3C//DTD SVG 1.1//EN"
  "http://www.w3.org/Graphics/SVG/1.1/DTD/svg11.dtd">
<svg xmlns:xlink="http://www.w3.org/1999/xlink" width="1800pt" height="360pt" viewBox="0 0 1800 360" xmlns="http://www.w3.org/2000/svg" version="1.1">
 <metadata>
  <rdf:RDF xmlns:dc="http://purl.org/dc/elements/1.1/" xmlns:cc="http://creativecommons.org/ns#" xmlns:rdf="http://www.w3.org/1999/02/22-rdf-syntax-ns#">
   <cc:Work>
    <dc:type rdf:resource="http://purl.org/dc/dcmitype/StillImage"/>
    <dc:date>2024-03-19T10:36:34.756850</dc:date>
    <dc:format>image/svg+xml</dc:format>
    <dc:creator>
     <cc:Agent>
      <dc:title>Matplotlib v3.7.2, https://matplotlib.org/</dc:title>
     </cc:Agent>
    </dc:creator>
   </cc:Work>
  </rdf:RDF>
 </metadata>
 <defs>
  <style type="text/css">*{stroke-linejoin: round; stroke-linecap: butt}</style>
 </defs>
 <g id="figure_1">
  <g id="patch_1">
   <path d="M 0 360 
L 1800 360 
L 1800 0 
L 0 0 
z
" style="fill: #ffffff"/>
  </g>
  <g id="axes_1">
   <g id="patch_2">
    <path d="M 225 320.4 
L 1620 320.4 
L 1620 43.2 
L 225 43.2 
z
" style="fill: #ffffff"/>
   </g>
   <g id="matplotlib.axis_1">
    <g id="xtick_1">
     <g id="line2d_1">
      <defs>
       <path id="m15db6ef0be" d="M 0 0 
L 0 3.5 
" style="stroke: #000000; stroke-width: 0.8"/>
      </defs>
      <g>
       <use xlink:href="#m15db6ef0be" x="281.924597" y="320.4" style="stroke: #000000; stroke-width: 0.8"/>
      </g>
     </g>
     <g id="text_1">
      <!-- 2011 -->
      <g transform="translate(262.837097 338.797656) scale(0.15 -0.15)">
       <defs>
        <path id="DejaVuSans-32" d="M 1228 531 
L 3431 531 
L 3431 0 
L 469 0 
L 469 531 
Q 828 903 1448 1529 
Q 2069 2156 2228 2338 
Q 2531 2678 2651 2914 
Q 2772 3150 2772 3378 
Q 2772 3750 2511 3984 
Q 2250 4219 1831 4219 
Q 1534 4219 1204 4116 
Q 875 4013 500 3803 
L 500 4441 
Q 881 4594 1212 4672 
Q 1544 4750 1819 4750 
Q 2544 4750 2975 4387 
Q 3406 4025 3406 3419 
Q 3406 3131 3298 2873 
Q 3191 2616 2906 2266 
Q 2828 2175 2409 1742 
Q 1991 1309 1228 531 
z
" transform="scale(0.015625)"/>
        <path id="DejaVuSans-30" d="M 2034 4250 
Q 1547 4250 1301 3770 
Q 1056 3291 1056 2328 
Q 1056 1369 1301 889 
Q 1547 409 2034 409 
Q 2525 409 2770 889 
Q 3016 1369 3016 2328 
Q 3016 3291 2770 3770 
Q 2525 4250 2034 4250 
z
M 2034 4750 
Q 2819 4750 3233 4129 
Q 3647 3509 3647 2328 
Q 3647 1150 3233 529 
Q 2819 -91 2034 -91 
Q 1250 -91 836 529 
Q 422 1150 422 2328 
Q 422 3509 836 4129 
Q 1250 4750 2034 4750 
z
" transform="scale(0.015625)"/>
        <path id="DejaVuSans-31" d="M 794 531 
L 1825 531 
L 1825 4091 
L 703 3866 
L 703 4441 
L 1819 4666 
L 2450 4666 
L 2450 531 
L 3481 531 
L 3481 0 
L 794 0 
L 794 531 
z
" transform="scale(0.015625)"/>
       </defs>
       <use xlink:href="#DejaVuSans-32"/>
       <use xlink:href="#DejaVuSans-30" x="63.623047"/>
       <use xlink:href="#DejaVuSans-31" x="127.246094"/>
       <use xlink:href="#DejaVuSans-31" x="190.869141"/>
      </g>
     </g>
    </g>
    <g id="xtick_2">
     <g id="line2d_2">
      <g>
       <use xlink:href="#m15db6ef0be" x="450.984627" y="320.4" style="stroke: #000000; stroke-width: 0.8"/>
      </g>
     </g>
     <g id="text_2">
      <!-- 2012 -->
      <g transform="translate(431.897127 338.797656) scale(0.15 -0.15)">
       <use xlink:href="#DejaVuSans-32"/>
       <use xlink:href="#DejaVuSans-30" x="63.623047"/>
       <use xlink:href="#DejaVuSans-31" x="127.246094"/>
       <use xlink:href="#DejaVuSans-32" x="190.869141"/>
      </g>
     </g>
    </g>
    <g id="xtick_3">
     <g id="line2d_3">
      <g>
       <use xlink:href="#m15db6ef0be" x="620.507836" y="320.4" style="stroke: #000000; stroke-width: 0.8"/>
      </g>
     </g>
     <g id="text_3">
      <!-- 2013 -->
      <g transform="translate(601.420336 338.797656) scale(0.15 -0.15)">
       <defs>
        <path id="DejaVuSans-33" d="M 2597 2516 
Q 3050 2419 3304 2112 
Q 3559 1806 3559 1356 
Q 3559 666 3084 287 
Q 2609 -91 1734 -91 
Q 1441 -91 1130 -33 
Q 819 25 488 141 
L 488 750 
Q 750 597 1062 519 
Q 1375 441 1716 441 
Q 2309 441 2620 675 
Q 2931 909 2931 1356 
Q 2931 1769 2642 2001 
Q 2353 2234 1838 2234 
L 1294 2234 
L 1294 2753 
L 1863 2753 
Q 2328 2753 2575 2939 
Q 2822 3125 2822 3475 
Q 2822 3834 2567 4026 
Q 2313 4219 1838 4219 
Q 1578 4219 1281 4162 
Q 984 4106 628 3988 
L 628 4550 
Q 988 4650 1302 4700 
Q 1616 4750 1894 4750 
Q 2613 4750 3031 4423 
Q 3450 4097 3450 3541 
Q 3450 3153 3228 2886 
Q 3006 2619 2597 2516 
z
" transform="scale(0.015625)"/>
       </defs>
       <use xlink:href="#DejaVuSans-32"/>
       <use xlink:href="#DejaVuSans-30" x="63.623047"/>
       <use xlink:href="#DejaVuSans-31" x="127.246094"/>
       <use xlink:href="#DejaVuSans-33" x="190.869141"/>
      </g>
     </g>
    </g>
    <g id="xtick_4">
     <g id="line2d_4">
      <g>
       <use xlink:href="#m15db6ef0be" x="789.567866" y="320.4" style="stroke: #000000; stroke-width: 0.8"/>
      </g>
     </g>
     <g id="text_4">
      <!-- 2014 -->
      <g transform="translate(770.480366 338.797656) scale(0.15 -0.15)">
       <defs>
        <path id="DejaVuSans-34" d="M 2419 4116 
L 825 1625 
L 2419 1625 
L 2419 4116 
z
M 2253 4666 
L 3047 4666 
L 3047 1625 
L 3713 1625 
L 3713 1100 
L 3047 1100 
L 3047 0 
L 2419 0 
L 2419 1100 
L 313 1100 
L 313 1709 
L 2253 4666 
z
" transform="scale(0.015625)"/>
       </defs>
       <use xlink:href="#DejaVuSans-32"/>
       <use xlink:href="#DejaVuSans-30" x="63.623047"/>
       <use xlink:href="#DejaVuSans-31" x="127.246094"/>
       <use xlink:href="#DejaVuSans-34" x="190.869141"/>
      </g>
     </g>
    </g>
    <g id="xtick_5">
     <g id="line2d_5">
      <g>
       <use xlink:href="#m15db6ef0be" x="958.627897" y="320.4" style="stroke: #000000; stroke-width: 0.8"/>
      </g>
     </g>
     <g id="text_5">
      <!-- 2015 -->
      <g transform="translate(939.540397 338.797656) scale(0.15 -0.15)">
       <defs>
        <path id="DejaVuSans-35" d="M 691 4666 
L 3169 4666 
L 3169 4134 
L 1269 4134 
L 1269 2991 
Q 1406 3038 1543 3061 
Q 1681 3084 1819 3084 
Q 2600 3084 3056 2656 
Q 3513 2228 3513 1497 
Q 3513 744 3044 326 
Q 2575 -91 1722 -91 
Q 1428 -91 1123 -41 
Q 819 9 494 109 
L 494 744 
Q 775 591 1075 516 
Q 1375 441 1709 441 
Q 2250 441 2565 725 
Q 2881 1009 2881 1497 
Q 2881 1984 2565 2268 
Q 2250 2553 1709 2553 
Q 1456 2553 1204 2497 
Q 953 2441 691 2322 
L 691 4666 
z
" transform="scale(0.015625)"/>
       </defs>
       <use xlink:href="#DejaVuSans-32"/>
       <use xlink:href="#DejaVuSans-30" x="63.623047"/>
       <use xlink:href="#DejaVuSans-31" x="127.246094"/>
       <use xlink:href="#DejaVuSans-35" x="190.869141"/>
      </g>
     </g>
    </g>
    <g id="xtick_6">
     <g id="line2d_6">
      <g>
       <use xlink:href="#m15db6ef0be" x="1127.687927" y="320.4" style="stroke: #000000; stroke-width: 0.8"/>
      </g>
     </g>
     <g id="text_6">
      <!-- 2016 -->
      <g transform="translate(1108.600427 338.797656) scale(0.15 -0.15)">
       <defs>
        <path id="DejaVuSans-36" d="M 2113 2584 
Q 1688 2584 1439 2293 
Q 1191 2003 1191 1497 
Q 1191 994 1439 701 
Q 1688 409 2113 409 
Q 2538 409 2786 701 
Q 3034 994 3034 1497 
Q 3034 2003 2786 2293 
Q 2538 2584 2113 2584 
z
M 3366 4563 
L 3366 3988 
Q 3128 4100 2886 4159 
Q 2644 4219 2406 4219 
Q 1781 4219 1451 3797 
Q 1122 3375 1075 2522 
Q 1259 2794 1537 2939 
Q 1816 3084 2150 3084 
Q 2853 3084 3261 2657 
Q 3669 2231 3669 1497 
Q 3669 778 3244 343 
Q 2819 -91 2113 -91 
Q 1303 -91 875 529 
Q 447 1150 447 2328 
Q 447 3434 972 4092 
Q 1497 4750 2381 4750 
Q 2619 4750 2861 4703 
Q 3103 4656 3366 4563 
z
" transform="scale(0.015625)"/>
       </defs>
       <use xlink:href="#DejaVuSans-32"/>
       <use xlink:href="#DejaVuSans-30" x="63.623047"/>
       <use xlink:href="#DejaVuSans-31" x="127.246094"/>
       <use xlink:href="#DejaVuSans-36" x="190.869141"/>
      </g>
     </g>
    </g>
    <g id="xtick_7">
     <g id="line2d_7">
      <g>
       <use xlink:href="#m15db6ef0be" x="1297.211136" y="320.4" style="stroke: #000000; stroke-width: 0.8"/>
      </g>
     </g>
     <g id="text_7">
      <!-- 2017 -->
      <g transform="translate(1278.123636 338.797656) scale(0.15 -0.15)">
       <defs>
        <path id="DejaVuSans-37" d="M 525 4666 
L 3525 4666 
L 3525 4397 
L 1831 0 
L 1172 0 
L 2766 4134 
L 525 4134 
L 525 4666 
z
" transform="scale(0.015625)"/>
       </defs>
       <use xlink:href="#DejaVuSans-32"/>
       <use xlink:href="#DejaVuSans-30" x="63.623047"/>
       <use xlink:href="#DejaVuSans-31" x="127.246094"/>
       <use xlink:href="#DejaVuSans-37" x="190.869141"/>
      </g>
     </g>
    </g>
    <g id="xtick_8">
     <g id="line2d_8">
      <g>
       <use xlink:href="#m15db6ef0be" x="1466.271167" y="320.4" style="stroke: #000000; stroke-width: 0.8"/>
      </g>
     </g>
     <g id="text_8">
      <!-- 2018 -->
      <g transform="translate(1447.183667 338.797656) scale(0.15 -0.15)">
       <defs>
        <path id="DejaVuSans-38" d="M 2034 2216 
Q 1584 2216 1326 1975 
Q 1069 1734 1069 1313 
Q 1069 891 1326 650 
Q 1584 409 2034 409 
Q 2484 409 2743 651 
Q 3003 894 3003 1313 
Q 3003 1734 2745 1975 
Q 2488 2216 2034 2216 
z
M 1403 2484 
Q 997 2584 770 2862 
Q 544 3141 544 3541 
Q 544 4100 942 4425 
Q 1341 4750 2034 4750 
Q 2731 4750 3128 4425 
Q 3525 4100 3525 3541 
Q 3525 3141 3298 2862 
Q 3072 2584 2669 2484 
Q 3125 2378 3379 2068 
Q 3634 1759 3634 1313 
Q 3634 634 3220 271 
Q 2806 -91 2034 -91 
Q 1263 -91 848 271 
Q 434 634 434 1313 
Q 434 1759 690 2068 
Q 947 2378 1403 2484 
z
M 1172 3481 
Q 1172 3119 1398 2916 
Q 1625 2713 2034 2713 
Q 2441 2713 2670 2916 
Q 2900 3119 2900 3481 
Q 2900 3844 2670 4047 
Q 2441 4250 2034 4250 
Q 1625 4250 1398 4047 
Q 1172 3844 1172 3481 
z
" transform="scale(0.015625)"/>
       </defs>
       <use xlink:href="#DejaVuSans-32"/>
       <use xlink:href="#DejaVuSans-30" x="63.623047"/>
       <use xlink:href="#DejaVuSans-31" x="127.246094"/>
       <use xlink:href="#DejaVuSans-38" x="190.869141"/>
      </g>
     </g>
    </g>
    <g id="text_9">
     <!-- Time -->
     <g transform="translate(904.149609 357.314844) scale(0.15 -0.15)">
      <defs>
       <path id="DejaVuSans-54" d="M -19 4666 
L 3928 4666 
L 3928 4134 
L 2272 4134 
L 2272 0 
L 1638 0 
L 1638 4134 
L -19 4134 
L -19 4666 
z
" transform="scale(0.015625)"/>
       <path id="DejaVuSans-69" d="M 603 3500 
L 1178 3500 
L 1178 0 
L 603 0 
L 603 3500 
z
M 603 4863 
L 1178 4863 
L 1178 4134 
L 603 4134 
L 603 4863 
z
" transform="scale(0.015625)"/>
       <path id="DejaVuSans-6d" d="M 3328 2828 
Q 3544 3216 3844 3400 
Q 4144 3584 4550 3584 
Q 5097 3584 5394 3201 
Q 5691 2819 5691 2113 
L 5691 0 
L 5113 0 
L 5113 2094 
Q 5113 2597 4934 2840 
Q 4756 3084 4391 3084 
Q 3944 3084 3684 2787 
Q 3425 2491 3425 1978 
L 3425 0 
L 2847 0 
L 2847 2094 
Q 2847 2600 2669 2842 
Q 2491 3084 2119 3084 
Q 1678 3084 1418 2786 
Q 1159 2488 1159 1978 
L 1159 0 
L 581 0 
L 581 3500 
L 1159 3500 
L 1159 2956 
Q 1356 3278 1631 3431 
Q 1906 3584 2284 3584 
Q 2666 3584 2933 3390 
Q 3200 3197 3328 2828 
z
" transform="scale(0.015625)"/>
       <path id="DejaVuSans-65" d="M 3597 1894 
L 3597 1613 
L 953 1613 
Q 991 1019 1311 708 
Q 1631 397 2203 397 
Q 2534 397 2845 478 
Q 3156 559 3463 722 
L 3463 178 
Q 3153 47 2828 -22 
Q 2503 -91 2169 -91 
Q 1331 -91 842 396 
Q 353 884 353 1716 
Q 353 2575 817 3079 
Q 1281 3584 2069 3584 
Q 2775 3584 3186 3129 
Q 3597 2675 3597 1894 
z
M 3022 2063 
Q 3016 2534 2758 2815 
Q 2500 3097 2075 3097 
Q 1594 3097 1305 2825 
Q 1016 2553 972 2059 
L 3022 2063 
z
" transform="scale(0.015625)"/>
      </defs>
      <use xlink:href="#DejaVuSans-54"/>
      <use xlink:href="#DejaVuSans-69" x="57.958984"/>
      <use xlink:href="#DejaVuSans-6d" x="85.742188"/>
      <use xlink:href="#DejaVuSans-65" x="183.154297"/>
     </g>
    </g>
   </g>
   <g id="matplotlib.axis_2">
    <g id="ytick_1">
     <g id="line2d_9">
      <defs>
       <path id="m38a3f0f689" d="M 0 0 
L -3.5 0 
" style="stroke: #000000; stroke-width: 0.8"/>
      </defs>
      <g>
       <use xlink:href="#m38a3f0f689" x="225" y="281.559818" style="stroke: #000000; stroke-width: 0.8"/>
      </g>
     </g>
     <g id="text_10">
      <!-- −0.002 -->
      <g transform="translate(162.488281 287.258646) scale(0.15 -0.15)">
       <defs>
        <path id="DejaVuSans-2212" d="M 678 2272 
L 4684 2272 
L 4684 1741 
L 678 1741 
L 678 2272 
z
" transform="scale(0.015625)"/>
        <path id="DejaVuSans-2e" d="M 684 794 
L 1344 794 
L 1344 0 
L 684 0 
L 684 794 
z
" transform="scale(0.015625)"/>
       </defs>
       <use xlink:href="#DejaVuSans-2212"/>
       <use xlink:href="#DejaVuSans-30" x="83.789062"/>
       <use xlink:href="#DejaVuSans-2e" x="147.412109"/>
       <use xlink:href="#DejaVuSans-30" x="179.199219"/>
       <use xlink:href="#DejaVuSans-30" x="242.822266"/>
       <use xlink:href="#DejaVuSans-32" x="306.445312"/>
      </g>
     </g>
    </g>
    <g id="ytick_2">
     <g id="line2d_10">
      <g>
       <use xlink:href="#m38a3f0f689" x="225" y="229.761014" style="stroke: #000000; stroke-width: 0.8"/>
      </g>
     </g>
     <g id="text_11">
      <!-- −0.001 -->
      <g transform="translate(162.488281 235.459842) scale(0.15 -0.15)">
       <use xlink:href="#DejaVuSans-2212"/>
       <use xlink:href="#DejaVuSans-30" x="83.789062"/>
       <use xlink:href="#DejaVuSans-2e" x="147.412109"/>
       <use xlink:href="#DejaVuSans-30" x="179.199219"/>
       <use xlink:href="#DejaVuSans-30" x="242.822266"/>
       <use xlink:href="#DejaVuSans-31" x="306.445312"/>
      </g>
     </g>
    </g>
    <g id="ytick_3">
     <g id="line2d_11">
      <g>
       <use xlink:href="#m38a3f0f689" x="225" y="177.962209" style="stroke: #000000; stroke-width: 0.8"/>
      </g>
     </g>
     <g id="text_12">
      <!-- 0.000 -->
      <g transform="translate(175.057813 183.661037) scale(0.15 -0.15)">
       <use xlink:href="#DejaVuSans-30"/>
       <use xlink:href="#DejaVuSans-2e" x="63.623047"/>
       <use xlink:href="#DejaVuSans-30" x="95.410156"/>
       <use xlink:href="#DejaVuSans-30" x="159.033203"/>
       <use xlink:href="#DejaVuSans-30" x="222.65625"/>
      </g>
     </g>
    </g>
    <g id="ytick_4">
     <g id="line2d_12">
      <g>
       <use xlink:href="#m38a3f0f689" x="225" y="126.163405" style="stroke: #000000; stroke-width: 0.8"/>
      </g>
     </g>
     <g id="text_13">
      <!-- 0.001 -->
      <g transform="translate(175.057813 131.862233) scale(0.15 -0.15)">
       <use xlink:href="#DejaVuSans-30"/>
       <use xlink:href="#DejaVuSans-2e" x="63.623047"/>
       <use xlink:href="#DejaVuSans-30" x="95.410156"/>
       <use xlink:href="#DejaVuSans-30" x="159.033203"/>
       <use xlink:href="#DejaVuSans-31" x="222.65625"/>
      </g>
     </g>
    </g>
    <g id="ytick_5">
     <g id="line2d_13">
      <g>
       <use xlink:href="#m38a3f0f689" x="225" y="74.364601" style="stroke: #000000; stroke-width: 0.8"/>
      </g>
     </g>
     <g id="text_14">
      <!-- 0.002 -->
      <g transform="translate(175.057813 80.063429) scale(0.15 -0.15)">
       <use xlink:href="#DejaVuSans-30"/>
       <use xlink:href="#DejaVuSans-2e" x="63.623047"/>
       <use xlink:href="#DejaVuSans-30" x="95.410156"/>
       <use xlink:href="#DejaVuSans-30" x="159.033203"/>
       <use xlink:href="#DejaVuSans-32" x="222.65625"/>
      </g>
     </g>
    </g>
    <g id="text_15">
     <!-- East(m) -->
     <g transform="translate(155.36875 211.140234) rotate(-90) scale(0.15 -0.15)">
      <defs>
       <path id="DejaVuSans-45" d="M 628 4666 
L 3578 4666 
L 3578 4134 
L 1259 4134 
L 1259 2753 
L 3481 2753 
L 3481 2222 
L 1259 2222 
L 1259 531 
L 3634 531 
L 3634 0 
L 628 0 
L 628 4666 
z
" transform="scale(0.015625)"/>
       <path id="DejaVuSans-61" d="M 2194 1759 
Q 1497 1759 1228 1600 
Q 959 1441 959 1056 
Q 959 750 1161 570 
Q 1363 391 1709 391 
Q 2188 391 2477 730 
Q 2766 1069 2766 1631 
L 2766 1759 
L 2194 1759 
z
M 3341 1997 
L 3341 0 
L 2766 0 
L 2766 531 
Q 2569 213 2275 61 
Q 1981 -91 1556 -91 
Q 1019 -91 701 211 
Q 384 513 384 1019 
Q 384 1609 779 1909 
Q 1175 2209 1959 2209 
L 2766 2209 
L 2766 2266 
Q 2766 2663 2505 2880 
Q 2244 3097 1772 3097 
Q 1472 3097 1187 3025 
Q 903 2953 641 2809 
L 641 3341 
Q 956 3463 1253 3523 
Q 1550 3584 1831 3584 
Q 2591 3584 2966 3190 
Q 3341 2797 3341 1997 
z
" transform="scale(0.015625)"/>
       <path id="DejaVuSans-73" d="M 2834 3397 
L 2834 2853 
Q 2591 2978 2328 3040 
Q 2066 3103 1784 3103 
Q 1356 3103 1142 2972 
Q 928 2841 928 2578 
Q 928 2378 1081 2264 
Q 1234 2150 1697 2047 
L 1894 2003 
Q 2506 1872 2764 1633 
Q 3022 1394 3022 966 
Q 3022 478 2636 193 
Q 2250 -91 1575 -91 
Q 1294 -91 989 -36 
Q 684 19 347 128 
L 347 722 
Q 666 556 975 473 
Q 1284 391 1588 391 
Q 1994 391 2212 530 
Q 2431 669 2431 922 
Q 2431 1156 2273 1281 
Q 2116 1406 1581 1522 
L 1381 1569 
Q 847 1681 609 1914 
Q 372 2147 372 2553 
Q 372 3047 722 3315 
Q 1072 3584 1716 3584 
Q 2034 3584 2315 3537 
Q 2597 3491 2834 3397 
z
" transform="scale(0.015625)"/>
       <path id="DejaVuSans-74" d="M 1172 4494 
L 1172 3500 
L 2356 3500 
L 2356 3053 
L 1172 3053 
L 1172 1153 
Q 1172 725 1289 603 
Q 1406 481 1766 481 
L 2356 481 
L 2356 0 
L 1766 0 
Q 1100 0 847 248 
Q 594 497 594 1153 
L 594 3053 
L 172 3053 
L 172 3500 
L 594 3500 
L 594 4494 
L 1172 4494 
z
" transform="scale(0.015625)"/>
       <path id="DejaVuSans-28" d="M 1984 4856 
Q 1566 4138 1362 3434 
Q 1159 2731 1159 2009 
Q 1159 1288 1364 580 
Q 1569 -128 1984 -844 
L 1484 -844 
Q 1016 -109 783 600 
Q 550 1309 550 2009 
Q 550 2706 781 3412 
Q 1013 4119 1484 4856 
L 1984 4856 
z
" transform="scale(0.015625)"/>
       <path id="DejaVuSans-29" d="M 513 4856 
L 1013 4856 
Q 1481 4119 1714 3412 
Q 1947 2706 1947 2009 
Q 1947 1309 1714 600 
Q 1481 -109 1013 -844 
L 513 -844 
Q 928 -128 1133 580 
Q 1338 1288 1338 2009 
Q 1338 2731 1133 3434 
Q 928 4138 513 4856 
z
" transform="scale(0.015625)"/>
      </defs>
      <use xlink:href="#DejaVuSans-45"/>
      <use xlink:href="#DejaVuSans-61" x="63.183594"/>
      <use xlink:href="#DejaVuSans-73" x="124.462891"/>
      <use xlink:href="#DejaVuSans-74" x="176.5625"/>
      <use xlink:href="#DejaVuSans-28" x="215.771484"/>
      <use xlink:href="#DejaVuSans-6d" x="254.785156"/>
      <use xlink:href="#DejaVuSans-29" x="352.197266"/>
     </g>
    </g>
   </g>
   <g id="line2d_14">
    <path d="M 288.409091 229.843977 
L 288.872269 206.341882 
L 289.335447 230.753681 
L 289.798625 240.88196 
L 290.261804 231.88094 
L 290.724982 248.564357 
L 291.18816 256.496736 
L 291.651338 248.178853 
L 292.114516 248.052581 
L 292.577694 236.870964 
L 293.040873 228.442083 
L 293.504051 223.949912 
L 294.430407 180.904155 
L 294.893585 191.167243 
L 295.356763 204.279265 
L 295.819942 213.580375 
L 296.28312 225.959814 
L 297.209476 253.915418 
L 297.672654 266.139461 
L 298.135832 259.234945 
L 298.599011 261.091827 
L 299.062189 253.676723 
L 299.988545 246.801332 
L 300.451723 238.638845 
L 300.914901 237.365599 
L 301.37808 242.182413 
L 301.841258 228.995442 
L 302.304436 237.719365 
L 302.767614 240.871217 
L 303.230792 235.698261 
L 304.157149 233.15917 
L 304.620327 233.617484 
L 305.083505 217.744375 
L 306.009861 195.654935 
L 306.473039 195.077273 
L 306.936218 194.040822 
L 307.862574 170.086624 
L 308.325752 180.149917 
L 309.252108 165.830297 
L 309.715287 161.545321 
L 310.178465 164.719372 
L 310.641643 172.658914 
L 311.567999 219.750476 
L 312.031177 224.286096 
L 312.957534 245.278461 
L 313.420712 257.709699 
L 313.88389 257.146837 
L 314.347068 251.189499 
L 314.810246 226.369997 
L 315.273425 219.620878 
L 316.199781 183.782555 
L 316.662959 175.168678 
L 317.126137 175.856387 
L 317.589315 169.151667 
L 318.052494 191.439477 
L 318.515672 190.491824 
L 318.97885 203.973837 
L 319.442028 211.972577 
L 319.905206 209.137968 
L 320.368384 212.933605 
L 321.294741 202.698691 
L 321.757919 206.065138 
L 322.221097 193.714348 
L 322.684275 188.563591 
L 323.147453 186.298769 
L 323.610632 160.184296 
L 324.536988 124.49397 
L 325.000166 129.88057 
L 325.926522 158.524359 
L 326.389701 153.965589 
L 327.316057 169.834508 
L 327.779235 211.528831 
L 328.242413 217.200785 
L 328.705591 219.017429 
L 329.16877 217.555948 
L 329.631948 222.643316 
L 330.095126 235.374708 
L 330.558304 231.622519 
L 331.021482 205.693043 
L 331.48466 198.477734 
L 332.411017 192.009333 
L 332.874195 167.22683 
L 333.337373 149.22997 
L 333.800551 144.23461 
L 334.263729 141.718193 
L 334.726907 137.063225 
L 335.653264 145.017091 
L 336.116442 145.763999 
L 336.57962 148.027871 
L 337.042798 143.5431 
L 337.505976 149.455088 
L 337.969155 150.416591 
L 338.432333 140.418946 
L 338.895511 122.769879 
L 339.358689 111.055474 
L 339.821867 113.038153 
L 340.285045 120.474506 
L 340.748224 103.965012 
L 341.211402 98.133471 
L 341.67458 79.048837 
L 342.137758 88.845735 
L 342.600936 120.272335 
L 343.064114 116.268552 
L 343.527293 123.852902 
L 343.990471 150.417813 
L 344.453649 155.52322 
L 344.916827 172.394355 
L 345.380005 173.977444 
L 345.843183 165.65956 
L 346.306362 166.887457 
L 347.232718 126.986628 
L 347.695896 109.78895 
L 348.159074 104.512396 
L 349.085431 74.090748 
L 349.548609 79.603146 
L 350.011787 103.748313 
L 350.474965 103.836636 
L 350.938143 129.816961 
L 351.401321 141.160424 
L 351.8645 148.500579 
L 352.327678 160.317631 
L 352.790856 153.938503 
L 353.254034 143.482069 
L 353.717212 174.509078 
L 354.18039 180.532064 
L 354.643569 176.868673 
L 355.106747 184.475222 
L 355.569925 194.76051 
L 356.033103 194.826633 
L 356.496281 198.222679 
L 356.959459 174.883143 
L 357.422638 177.176615 
L 357.885816 177.930922 
L 358.812172 164.55848 
L 359.27535 176.886121 
L 359.738528 174.495501 
L 360.201707 166.05182 
L 360.664885 165.000569 
L 361.591241 199.675219 
L 362.054419 183.846509 
L 362.517597 180.227517 
L 363.443954 199.066532 
L 363.907132 197.371496 
L 364.37031 191.103365 
L 364.833488 182.297093 
L 365.296666 206.745654 
L 365.759845 216.764547 
L 366.223023 221.825555 
L 366.686201 235.226171 
L 367.149379 219.86365 
L 367.612557 217.598827 
L 368.075735 205.55883 
L 368.538914 180.946523 
L 369.002092 149.948163 
L 369.46527 143.117646 
L 369.928448 112.097087 
L 370.391626 106.265546 
L 370.854804 106.479666 
L 371.317983 119.747085 
L 371.781161 109.77904 
L 372.707517 129.824226 
L 373.170695 148.974509 
L 373.633873 157.957427 
L 374.097052 162.633643 
L 374.56023 185.905631 
L 375.023408 223.85148 
L 375.486586 234.943348 
L 375.949764 227.772439 
L 376.876121 262.757881 
L 377.339299 250.843681 
L 377.802477 234.748577 
L 378.265655 234.629705 
L 378.728833 251.093849 
L 379.192011 252.602939 
L 380.118368 212.309919 
L 380.581546 208.298736 
L 381.044724 198.870879 
L 381.97108 166.110885 
L 382.434259 164.593445 
L 382.897437 161.647838 
L 383.823793 202.871335 
L 384.286971 205.549598 
L 384.750149 221.791748 
L 385.213328 218.157957 
L 385.676506 205.696169 
L 386.139684 210.616581 
L 386.602862 202.409695 
L 387.06604 188.016552 
L 387.529218 192.64837 
L 387.992397 171.402985 
L 388.455575 176.204999 
L 388.918753 196.250661 
L 389.381931 188.879956 
L 389.845109 185.778952 
L 390.308287 196.93742 
L 390.771466 195.257183 
L 391.234644 198.357237 
L 391.697822 169.608425 
L 392.161 165.375248 
L 392.624178 163.806009 
L 393.087356 163.731535 
L 393.550535 144.979893 
L 394.013713 133.805676 
L 394.476891 118.494954 
L 394.940069 131.87337 
L 395.403247 121.838726 
L 395.866425 114.216427 
L 396.329604 121.186591 
L 396.792782 133.795425 
L 397.25596 139.84801 
L 397.719138 158.339708 
L 398.182316 156.652071 
L 398.645494 151.671511 
L 399.108673 157.635298 
L 399.571851 138.905856 
L 400.035029 138.209796 
L 400.498207 149.257266 
L 400.961385 144.728096 
L 401.424563 164.67016 
L 402.35092 189.022047 
L 403.277276 235.832416 
L 403.740454 224.917193 
L 404.203632 225.131313 
L 404.666811 221.208928 
L 405.129989 232.648589 
L 405.593167 235.40085 
L 406.056345 228.022745 
L 406.519523 204.964403 
L 406.982701 205.370918 
L 407.44588 203.194893 
L 407.909058 205.584563 
L 408.372236 187.979894 
L 408.835414 201.683902 
L 409.298592 200.077664 
L 409.76177 195.326499 
L 410.224949 202.984847 
L 410.688127 222.704916 
L 411.151305 225.057587 
L 411.614483 240.981544 
L 412.077661 217.9602 
L 412.540839 214.215411 
L 413.004018 218.558636 
L 413.467196 201.220361 
L 413.930374 219.319868 
L 414.393552 214.731499 
L 414.85673 192.450138 
L 415.319908 204.230191 
L 415.783087 206.923253 
L 416.246265 210.578294 
L 416.709443 230.601756 
L 417.172621 211.191529 
L 417.635799 211.006058 
L 418.098977 215.556478 
L 418.562156 207.223795 
L 419.025334 201.059262 
L 419.488512 192.28999 
L 419.95169 180.975176 
L 420.414868 160.684369 
L 420.878046 147.393801 
L 421.341225 141.525261 
L 421.804403 137.935869 
L 422.730759 148.390877 
L 423.193937 152.208713 
L 423.657115 160.999235 
L 424.583472 148.107783 
L 425.04665 146.952934 
L 425.509828 138.67205 
L 425.973006 120.534594 
L 426.436184 113.815073 
L 426.899363 117.899304 
L 427.825719 142.406588 
L 428.288897 152.225686 
L 428.752075 157.775083 
L 429.215253 173.055255 
L 429.678432 178.841446 
L 430.14161 168.000221 
L 430.604788 178.500103 
L 431.067966 186.054854 
L 431.531144 187.223552 
L 431.994322 187.038081 
L 432.4575 186.305022 
L 432.920679 201.385399 
L 433.383857 196.641633 
L 434.310213 175.151579 
L 434.773391 170.696407 
L 435.236569 169.978148 
L 435.699748 171.768432 
L 436.162926 148.354897 
L 436.626104 162.510295 
L 437.089282 165.721346 
L 437.55246 170.049771 
L 438.478817 164.217755 
L 438.941995 164.994262 
L 439.405173 160.49469 
L 439.868351 150.393448 
L 440.331529 148.261822 
L 440.794707 136.984008 
L 441.257886 135.466567 
L 441.721064 138.914413 
L 442.184242 128.901969 
L 442.64742 127.243932 
L 443.110598 137.240626 
L 443.573776 125.304226 
L 444.036955 142.449155 
L 444.500133 149.182524 
L 444.963311 151.335399 
L 445.889667 176.094277 
L 446.352845 195.25196 
L 446.816024 222.32746 
L 447.279202 223.562756 
L 447.74238 225.75263 
L 448.205558 233.255582 
L 448.668736 227.05405 
L 449.131914 232.292654 
L 449.595093 221.762222 
L 450.058271 218.032233 
L 450.521449 226.756156 
L 450.984627 232.105757 
L 451.447805 218.067806 
L 451.910983 231.246427 
L 452.374162 248.776147 
L 452.83734 250.492432 
L 453.300518 258.58737 
L 454.226874 238.177691 
L 454.690052 244.074879 
L 455.616409 225.981347 
L 456.079587 218.751238 
L 456.542765 217.766586 
L 457.005943 224.610953 
L 457.469121 240.009522 
L 457.9323 249.954417 
L 458.395478 242.820507 
L 458.858656 225.741226 
L 459.321834 232.082404 
L 459.785012 229.351392 
L 460.711369 213.936598 
L 461.174547 215.897077 
L 462.100903 235.468675 
L 462.564081 210.856368 
L 463.027259 207.866362 
L 463.953616 196.958063 
L 464.416794 181.551144 
L 464.879972 176.341189 
L 465.34315 172.655599 
L 465.806328 183.658669 
L 466.269507 173.964418 
L 466.732685 183.250728 
L 467.195863 186.594976 
L 467.659041 185.77312 
L 468.122219 189.990547 
L 468.585397 188.251112 
L 469.511754 203.020221 
L 469.974932 206.682661 
L 471.364466 249.649279 
L 471.827645 267.560551 
L 472.290823 278.419786 
L 472.754001 295.753872 
L 473.217179 297.977506 
L 473.680357 286.637253 
L 474.606714 242.241488 
L 475.069892 230.186691 
L 475.53307 238.044835 
L 475.996248 236.046406 
L 476.459426 233.337593 
L 476.922604 238.835191 
L 477.385783 259.768832 
L 477.848961 255.987045 
L 478.312139 274.885733 
L 478.775317 262.712539 
L 479.238495 258.52376 
L 479.701673 266.862893 
L 480.62803 248.199573 
L 481.091208 249.619865 
L 481.554386 228.788871 
L 482.017564 219.420212 
L 482.480742 206.462636 
L 482.943921 200.090908 
L 483.870277 213.306052 
L 484.796633 229.85852 
L 485.259811 249.963381 
L 485.72299 251.975659 
L 486.186168 249.007852 
L 486.649346 254.009662 
L 488.03888 204.118588 
L 488.502059 183.605786 
L 488.965237 172.105976 
L 489.428415 155.737079 
L 489.891593 158.666936 
L 490.354771 180.688353 
L 490.817949 213.676316 
L 491.281128 229.918466 
L 491.744306 233.218314 
L 492.670662 253.988684 
L 493.13384 256.56335 
L 493.597018 248.94845 
L 494.060197 222.108795 
L 494.523375 209.380614 
L 494.986553 206.989994 
L 495.449731 191.856868 
L 495.912909 194.194739 
L 496.376087 197.931177 
L 496.839266 192.491827 
L 497.302444 191.884566 
L 497.765622 200.556691 
L 498.2288 207.060666 
L 498.691978 223.55441 
L 499.155156 230.983363 
L 499.618335 227.85276 
L 500.544691 239.469541 
L 501.471047 220.924619 
L 502.397404 188.682613 
L 502.860582 178.536972 
L 503.32376 160.103522 
L 503.786938 151.090055 
L 504.250116 161.575138 
L 504.713294 185.379913 
L 505.176473 196.856573 
L 505.639651 181.109262 
L 506.102829 169.735249 
L 506.566007 162.445942 
L 507.029185 143.731299 
L 507.492363 131.669102 
L 507.955542 106.812601 
L 508.41872 101.232654 
L 508.881898 117.689399 
L 509.345076 121.285241 
L 509.808254 123.874706 
L 510.271432 153.022158 
L 510.734611 154.89384 
L 511.197789 143.423629 
L 512.124145 158.925321 
L 512.587323 151.229023 
L 513.050501 155.979239 
L 513.51368 157.41433 
L 513.976858 161.51336 
L 514.440036 172.028042 
L 514.903214 167.735666 
L 515.366392 176.637186 
L 515.82957 191.354971 
L 516.755927 174.852401 
L 517.219105 189.237194 
L 517.682283 216.083299 
L 518.145461 234.900589 
L 518.608639 235.832493 
L 519.071818 219.219401 
L 519.534996 234.839965 
L 519.998174 227.202866 
L 520.461352 205.624489 
L 520.92453 160.433257 
L 521.387708 138.42569 
L 521.850887 135.16189 
L 522.314065 139.490315 
L 522.777243 139.578638 
L 523.240421 143.818265 
L 523.703599 159.446229 
L 524.166777 184.464576 
L 524.629956 180.150001 
L 525.093134 171.469526 
L 525.556312 178.180696 
L 526.01949 175.375685 
L 526.482668 191.529037 
L 526.945846 182.826363 
L 527.872203 174.626877 
L 528.335381 179.428891 
L 528.798559 172.391178 
L 529.261737 163.621905 
L 529.724915 177.50351 
L 530.188093 169.785013 
L 530.651272 158.766192 
L 531.11445 137.528207 
L 531.577628 137.971722 
L 532.040806 144.934486 
L 532.503984 142.610464 
L 532.967162 137.35611 
L 533.430341 135.949668 
L 533.893519 133.048459 
L 534.356697 161.744522 
L 534.819875 161.692248 
L 535.283053 157.103878 
L 535.746231 166.153394 
L 536.672588 137.30051 
L 537.135766 149.124962 
L 537.598944 150.737649 
L 538.062122 171.900686 
L 538.5253 184.539119 
L 538.988479 182.895881 
L 539.451657 191.930598 
L 539.914835 204.776226 
L 540.378013 198.641292 
L 540.841191 189.494628 
L 541.304369 174.561298 
L 541.767548 167.656782 
L 542.693904 180.916801 
L 543.62026 171.636465 
L 544.083438 173.33795 
L 544.546617 176.023613 
L 545.009795 185.561518 
L 545.472973 186.323225 
L 545.936151 193.108393 
L 546.399329 213.124456 
L 546.862507 250.189725 
L 547.325686 276.443843 
L 547.788864 276.102976 
L 548.71522 240.693843 
L 549.178398 230.836796 
L 549.641576 217.886619 
L 550.104755 195.790254 
L 550.567933 181.863301 
L 551.031111 199.378221 
L 551.494289 197.061599 
L 551.957467 209.81843 
L 552.420645 196.624059 
L 552.883824 170.420789 
L 553.347002 169.27334 
L 553.81018 179.181236 
L 554.273358 177.242006 
L 554.736536 173.541616 
L 555.199714 161.050229 
L 555.662893 161.027554 
L 556.126071 177.698894 
L 557.515605 116.922672 
L 557.978783 120.792307 
L 558.441962 140.127586 
L 558.90514 133.570862 
L 559.368318 130.41066 
L 559.831496 151.610695 
L 560.294674 130.38751 
L 560.757852 131.164017 
L 561.221031 135.855033 
L 561.684209 134.862981 
L 562.147387 142.550928 
L 562.610565 139.079933 
L 563.073743 119.181317 
L 563.536921 147.899579 
L 564.0001 140.417877 
L 564.463278 150.096378 
L 564.926456 142.41488 
L 565.389634 142.606801 
L 565.852812 147.371815 
L 566.31599 158.241689 
L 566.779169 152.876338 
L 567.705525 167.150133 
L 568.168703 155.457928 
L 569.095059 178.160129 
L 569.558238 201.839107 
L 570.484594 230.971284 
L 570.947772 235.543903 
L 571.41095 228.195398 
L 571.874128 233.870591 
L 572.337307 225.449111 
L 572.800485 214.082498 
L 573.263663 219.350701 
L 573.726841 202.471215 
L 574.190019 214.229069 
L 574.653197 222.952992 
L 575.116376 221.021162 
L 576.042732 174.164493 
L 576.50591 153.577693 
L 576.969088 155.515973 
L 577.432266 128.269327 
L 577.895445 124.280344 
L 578.358623 108.732828 
L 579.284979 136.821629 
L 579.748157 144.413378 
L 580.211335 141.423372 
L 580.674514 157.147534 
L 581.137692 150.901603 
L 581.60087 168.586719 
L 582.064048 168.127455 
L 582.527226 170.813118 
L 582.990404 159.446505 
L 583.453583 154.192151 
L 583.916761 139.355018 
L 584.379939 135.247638 
L 584.843117 121.786873 
L 585.306295 116.702716 
L 585.769473 109.739001 
L 586.232652 100.991928 
L 586.69583 107.947292 
L 587.159008 119.453551 
L 587.622186 119.253281 
L 588.085364 139.646735 
L 588.548542 141.074427 
L 589.474899 146.120635 
L 589.938077 169.07443 
L 590.401255 171.057109 
L 591.327611 208.203301 
L 591.79079 194.268947 
L 592.253968 186.506051 
L 592.717146 166.126447 
L 593.643502 145.857839 
L 594.10668 144.621593 
L 594.569859 123.161613 
L 595.033037 119.254028 
L 595.496215 117.795787 
L 595.959393 131.832787 
L 596.422571 127.185219 
L 596.885749 138.336287 
L 597.812106 120.916139 
L 598.275284 110.533703 
L 599.664818 104.265573 
L 600.127997 85.765524 
L 600.591175 99.055142 
L 601.054353 83.78882 
L 601.980709 74.108893 
L 602.907066 78.140849 
L 603.370244 86.294986 
L 603.833422 79.449669 
L 604.2966 79.737787 
L 604.759778 70.139733 
L 605.222956 89.10502 
L 605.686135 82.548296 
L 606.149313 86.706525 
L 606.612491 95.534046 
L 607.075669 126.028267 
L 607.538847 168.502811 
L 608.002025 198.427245 
L 608.465204 189.820769 
L 608.928382 200.032058 
L 609.39156 199.321199 
L 609.854738 194.422037 
L 610.781094 160.241276 
L 612.170629 133.423344 
L 612.633807 109.255027 
L 613.096985 94.558491 
L 613.560163 88.527155 
L 614.48652 91.827004 
L 614.949698 65.675532 
L 615.412876 75.006242 
L 615.876054 78.476286 
L 616.339232 98.507149 
L 616.802411 123.880688 
L 617.265589 129.259888 
L 617.728767 118.58146 
L 618.655123 146.329869 
L 619.118301 144.516435 
L 619.58148 135.613966 
L 620.044658 123.403773 
L 620.507836 129.900347 
L 620.971014 122.492643 
L 621.434192 126.30308 
L 621.89737 121.359519 
L 623.286905 209.208865 
L 623.750083 210.347964 
L 624.213261 225.391341 
L 624.676439 227.233424 
L 625.139618 218.804543 
L 625.602796 185.438238 
L 626.529152 133.157495 
L 626.99233 122.471666 
L 627.918686 145.143792 
L 628.381865 148.969029 
L 629.771399 193.507175 
L 630.234577 219.961089 
L 630.697755 226.302267 
L 631.160934 221.758297 
L 631.624112 221.225034 
L 632.08729 227.980603 
L 632.550468 217.694365 
L 633.013646 228.601238 
L 634.403181 198.327112 
L 634.866359 221.806295 
L 635.329537 230.160226 
L 635.792715 253.143621 
L 636.255893 236.685925 
L 636.719072 237.54383 
L 637.645428 256.027653 
L 638.108606 247.058585 
L 638.571784 229.387318 
L 639.034962 203.472641 
L 639.498141 196.390529 
L 639.961319 173.265588 
L 640.424497 164.881106 
L 640.887675 149.858978 
L 641.350853 130.574548 
L 641.814031 131.55825 
L 642.27721 139.209198 
L 642.740388 143.367427 
L 643.203566 169.229355 
L 643.666744 167.090329 
L 644.129922 158.543051 
L 644.5931 168.095755 
L 645.056279 163.32979 
L 645.519457 153.332146 
L 645.982635 154.737638 
L 646.445813 154.648365 
L 646.908991 161.107941 
L 647.372169 162.550432 
L 647.835348 150.214442 
L 648.298526 152.833506 
L 648.761704 157.354327 
L 649.224882 167.491617 
L 649.68806 155.333223 
L 650.614417 142.594402 
L 651.077595 146.645794 
L 651.540773 153.686717 
L 652.003951 146.201776 
L 652.467129 134.55073 
L 652.930307 117.342413 
L 653.393486 121.356806 
L 653.856664 143.607617 
L 654.319842 154.314694 
L 654.78302 149.297135 
L 655.246198 140.409465 
L 655.709376 124.928547 
L 656.172555 130.21895 
L 656.635733 131.898236 
L 657.098911 121.5158 
L 658.025267 118.155803 
L 658.488445 110.644501 
L 658.951624 124.718501 
L 659.414802 155.804708 
L 659.87798 155.648837 
L 660.804336 139.930649 
L 661.267514 132.508145 
L 661.730693 150.851846 
L 662.193871 150.318584 
L 662.657049 137.597802 
L 663.120227 134.933388 
L 663.583405 140.749179 
L 664.046583 130.033751 
L 664.509762 126.081767 
L 664.97294 114.152767 
L 665.436118 112.161738 
L 665.899296 116.19417 
L 666.362474 114.047744 
L 666.825652 120.004131 
L 667.288831 113.669403 
L 667.752009 109.695219 
L 668.215187 101.754727 
L 668.678365 88.079368 
L 669.141543 88.522882 
L 669.604721 86.953643 
L 670.0679 67.906008 
L 670.531078 94.729913 
L 670.994256 88.735577 
L 671.457434 87.972919 
L 671.920612 104.784856 
L 672.38379 106.582539 
L 672.846969 117.371015 
L 673.310147 124.548374 
L 673.773325 125.37668 
L 674.236503 150.802017 
L 674.699681 147.286623 
L 675.162859 147.730138 
L 675.626038 147.389271 
L 676.089216 143.770279 
L 676.552394 151.74682 
L 677.015572 137.20568 
L 677.47875 137.249604 
L 677.941928 143.309589 
L 678.868285 138.24763 
L 679.331463 143.552833 
L 679.794641 138.26888 
L 680.257819 131.275566 
L 680.720997 138.608321 
L 681.184176 134.034752 
L 681.647354 159.349092 
L 682.110532 166.297057 
L 682.57371 162.759463 
L 683.036888 151.074658 
L 683.500066 143.526357 
L 683.963245 129.828798 
L 684.889601 90.764149 
L 685.352779 83.593239 
L 685.815957 91.170189 
L 686.279135 106.102569 
L 686.742314 139.053534 
L 687.66867 181.956793 
L 688.131848 187.750384 
L 688.595026 199.641434 
L 689.058204 200.403141 
L 689.521383 209.423058 
L 690.447739 160.006048 
L 690.910917 158.910398 
L 691.374095 152.864263 
L 691.837273 153.137581 
L 692.76363 116.936667 
L 693.226808 107.686405 
L 693.689986 136.574863 
L 694.153164 135.390415 
L 694.616342 135.234543 
L 695.079521 122.846754 
L 695.542699 142.936815 
L 696.005877 158.179988 
L 696.469055 167.177705 
L 696.932233 160.990973 
L 697.395411 165.127002 
L 697.85859 191.684514 
L 698.321768 209.37703 
L 698.784946 197.248235 
L 699.248124 197.114563 
L 699.711302 222.103311 
L 700.17448 214.236817 
L 700.637659 195.773768 
L 701.100837 190.615612 
L 701.564015 203.823832 
L 702.027193 221.89374 
L 702.490371 228.316316 
L 702.953549 204.95458 
L 703.416728 207.810439 
L 703.879906 235.189332 
L 704.343084 226.915848 
L 704.806262 207.668417 
L 705.26944 207.542145 
L 705.732618 202.583784 
L 706.658975 212.6836 
L 707.122153 212.268735 
L 707.585331 221.895437 
L 708.048509 221.376974 
L 708.511687 218.031776 
L 709.438044 222.759792 
L 709.901222 223.4549 
L 710.3644 209.661144 
L 710.827578 218.895655 
L 711.290756 214.56628 
L 711.753935 218.132523 
L 712.217113 210.821016 
L 713.143469 232.908556 
L 713.606647 249.735292 
L 714.069825 205.654035 
L 714.533004 196.440772 
L 714.996182 174.23341 
L 715.45936 179.094622 
L 715.922538 169.88876 
L 716.385716 178.102095 
L 716.848894 157.197102 
L 717.312073 171.026908 
L 717.775251 173.71997 
L 718.238429 205.494362 
L 718.701607 219.723758 
L 719.627963 195.621564 
L 720.091142 203.487107 
L 720.55432 219.122471 
L 721.017498 208.939831 
L 721.480676 189.721999 
L 721.943854 196.144576 
L 722.870211 215.428055 
L 723.333389 206.244392 
L 724.259745 185.250127 
L 724.722923 198.554544 
L 725.186101 189.711273 
L 726.575636 114.431386 
L 727.038814 134.972836 
L 727.501992 139.560255 
L 727.96517 111.780821 
L 728.428348 111.898743 
L 728.891527 122.916614 
L 729.817883 162.282754 
L 730.281061 153.979671 
L 730.744239 156.41374 
L 731.207417 174.468848 
L 731.670596 181.446411 
L 732.133774 159.794036 
L 732.596952 144.083723 
L 733.06013 143.491262 
L 734.449665 131.413315 
L 734.912843 117.515961 
L 735.376021 133.861708 
L 735.839199 125.75842 
L 736.302377 100.102737 
L 736.765555 90.956073 
L 737.228734 79.515462 
L 737.691912 83.311099 
L 738.15509 95.794136 
L 738.618268 80.831206 
L 739.081446 96.207576 
L 739.544624 118.650783 
L 740.007803 131.363214 
L 740.470981 150.432099 
L 740.934159 164.084308 
L 741.860515 179.5934 
L 742.323693 166.443428 
L 742.786872 176.08493 
L 743.713228 174.567015 
L 744.176406 161.246847 
L 744.639584 167.972817 
L 745.102762 153.046886 
L 745.565941 161.74121 
L 746.029119 139.711444 
L 746.492297 137.246825 
L 746.955475 117.459207 
L 747.881831 89.050313 
L 748.34501 88.272855 
L 748.808188 78.859797 
L 749.271366 93.969773 
L 749.734544 82.728958 
L 750.197722 82.920878 
L 750.6609 81.640232 
L 752.050435 55.8 
L 752.513613 65.815654 
L 752.976791 65.486347 
L 753.439969 92.751003 
L 753.903148 90.334945 
L 754.366326 92.255186 
L 754.829504 92.484105 
L 755.292682 107.342487 
L 756.219038 90.640122 
L 756.682217 62.823689 
L 757.145395 61.757639 
L 757.608573 58.116448 
L 758.071751 71.938853 
L 758.534929 75.690092 
L 758.998107 62.747315 
L 759.461286 57.256167 
L 759.924464 69.228615 
L 760.387642 73.756835 
L 760.85082 82.695354 
L 761.313998 87.364171 
L 761.777176 94.98552 
L 762.240355 110.006698 
L 762.703533 106.883495 
L 763.166711 97.76643 
L 763.629889 105.535775 
L 764.093067 105.883092 
L 764.556245 95.027068 
L 765.019424 91.319278 
L 765.482602 95.692102 
L 766.408958 147.201362 
L 766.872136 147.51168 
L 767.335314 157.885765 
L 768.261671 154.369896 
L 768.724849 156.848364 
L 769.188027 139.47309 
L 769.651205 107.394355 
L 770.114383 108.23746 
L 770.577562 97.470234 
L 771.503918 131.723092 
L 771.967096 129.473069 
L 772.893452 186.791196 
L 773.356631 191.030822 
L 773.819809 221.25125 
L 774.282987 225.194883 
L 774.746165 230.692481 
L 775.209343 233.318945 
L 775.672521 219.384592 
L 776.1357 220.153699 
L 776.598878 231.408364 
L 777.062056 227.545178 
L 777.525234 239.710022 
L 777.988412 238.377577 
L 778.45159 245.998926 
L 778.914769 247.922407 
L 779.377947 254.833372 
L 779.841125 243.067168 
L 780.304303 242.267512 
L 780.767481 236.628367 
L 781.693838 213.021961 
L 782.157016 213.036286 
L 782.620194 199.997312 
L 783.083372 183.154825 
L 784.009728 164.905896 
L 784.472907 168.205745 
L 784.936085 181.576761 
L 785.399263 180.888102 
L 785.862441 161.396476 
L 786.325619 173.228328 
L 786.788797 157.377419 
L 787.251976 168.106696 
L 787.715154 164.724499 
L 788.178332 166.137391 
L 788.64151 165.367334 
L 789.104688 180.277514 
L 789.567866 168.910901 
L 790.031045 173.09133 
L 790.957401 118.575838 
L 791.420579 103.272516 
L 791.883757 98.580549 
L 792.346935 98.365479 
L 792.810114 106.009027 
L 793.273292 118.344067 
L 793.73647 135.244802 
L 794.199648 164.828844 
L 794.662826 172.250397 
L 795.126004 183.098071 
L 795.589183 186.908508 
L 796.052361 203.831442 
L 796.515539 194.899373 
L 796.978717 207.759801 
L 797.441895 204.200008 
L 797.905073 202.689968 
L 798.368252 193.432306 
L 798.83143 210.865829 
L 799.294608 209.851577 
L 799.757786 225.028151 
L 800.220964 226.248648 
L 800.684142 247.951872 
L 801.147321 274.968173 
L 801.610499 290.714534 
L 802.536855 263.134421 
L 803.000033 245.958942 
L 803.92639 217.665681 
L 804.852746 147.330275 
L 805.315924 134.088267 
L 805.779102 131.013623 
L 806.24228 131.786891 
L 807.168637 143.208037 
L 807.631815 157.777826 
L 808.094993 148.053975 
L 808.558171 127.089784 
L 809.484528 140.319728 
L 810.410884 178.731291 
L 810.874062 174.564712 
L 811.33724 188.668311 
L 811.800418 208.83237 
L 812.263597 204.621392 
L 812.726775 214.299894 
L 813.189953 187.312242 
L 813.653131 170.67695 
L 814.116309 170.247285 
L 814.579487 168.345054 
L 815.042666 161.470137 
L 815.505844 156.607974 
L 815.969022 137.848932 
L 816.4322 149.007399 
L 816.895378 156.865543 
L 817.358556 169.836968 
L 817.821735 176.755333 
L 818.748091 226.288839 
L 819.211269 257.419445 
L 819.674447 250.352133 
L 820.137625 247.628521 
L 820.600804 227.226717 
L 821.063982 234.270879 
L 821.52716 222.119884 
L 821.990338 201.592283 
L 822.916694 191.150649 
L 823.379873 214.740829 
L 823.843051 215.990925 
L 824.306229 249.674472 
L 824.769407 253.085318 
L 825.232585 255.082797 
L 825.695763 253.88355 
L 826.158941 249.650372 
L 826.62212 235.368227 
L 827.085298 260.57157 
L 827.548476 263.856619 
L 828.474832 266.638004 
L 828.93801 268.554085 
L 829.401189 269.678383 
L 829.864367 278.002716 
L 830.327545 254.485584 
L 830.790723 238.634674 
L 831.253901 246.618615 
L 831.717079 248.593894 
L 832.643436 241.977497 
L 833.106614 252.062988 
L 833.569792 244.344491 
L 834.496148 212.487277 
L 834.959327 209.134679 
L 835.422505 212.042336 
L 835.885683 198.796167 
L 836.348861 171.090731 
L 836.812039 176.632728 
L 837.275217 180.487564 
L 837.738396 173.168658 
L 838.201574 194.450091 
L 838.664752 193.746632 
L 839.12793 229.035943 
L 839.591108 236.968084 
L 840.054286 242.406483 
L 840.517465 238.898489 
L 840.980643 239.105209 
L 841.443821 213.604923 
L 841.906999 207.87698 
L 842.370177 182.310095 
L 842.833355 171.446671 
L 843.296534 156.224747 
L 843.759712 151.347784 
L 844.22289 163.312833 
L 844.686068 154.98755 
L 845.149246 152.278737 
L 845.612424 158.508918 
L 846.538781 217.218212 
L 847.001959 243.694326 
L 847.465137 234.436664 
L 847.928315 254.275131 
L 848.391493 247.400215 
L 848.854672 237.779962 
L 849.31785 231.815224 
L 849.781028 216.585901 
L 850.244206 195.266517 
L 850.707384 200.727116 
L 851.170562 187.865738 
L 851.633741 200.452372 
L 852.096919 192.378683 
L 853.023275 171.236421 
L 853.486453 171.361743 
L 853.949631 173.980807 
L 854.41281 196.401815 
L 854.875988 195.720555 
L 855.339166 220.154316 
L 855.802344 207.766527 
L 856.265522 213.108728 
L 856.7287 214.136829 
L 857.191879 208.009295 
L 857.655057 187.540893 
L 858.118235 193.216087 
L 858.581413 191.151059 
L 859.044591 206.113038 
L 859.507769 217.441702 
L 859.970948 225.240646 
L 860.434126 207.635978 
L 860.897304 205.430353 
L 861.360482 189.387049 
L 862.286838 147.762059 
L 863.213195 119.900752 
L 863.676373 151.39395 
L 864.139551 168.590677 
L 864.602729 159.473613 
L 865.065907 183.256189 
L 865.529086 215.86676 
L 865.992264 228.616191 
L 866.455442 259.976192 
L 866.91862 263.934625 
L 867.844976 258.492036 
L 868.308155 294.606888 
L 868.771333 283.022441 
L 869.234511 255.365565 
L 869.697689 256.516224 
L 870.624045 216.172326 
L 871.087224 212.138944 
L 871.550402 194.445477 
L 872.01358 195.436579 
L 872.476758 214.305669 
L 873.403114 235.742023 
L 873.866293 233.225606 
L 874.329471 245.294252 
L 874.792649 241.882456 
L 875.719005 225.291089 
L 876.182183 210.172762 
L 876.645362 218.2751 
L 877.10854 223.728299 
L 877.571718 212.517083 
L 878.034896 238.186615 
L 878.498074 236.45458 
L 878.961252 236.602101 
L 879.424431 227.840228 
L 879.887609 198.462431 
L 880.813965 187.332138 
L 881.277143 162.608833 
L 881.740321 167.181453 
L 882.2035 155.452248 
L 882.666678 170.510425 
L 883.129856 203.387391 
L 883.593034 222.582073 
L 884.056212 224.705349 
L 884.51939 226.125641 
L 884.982569 225.466581 
L 885.445747 251.25451 
L 885.908925 251.135638 
L 886.372103 232.1916 
L 886.835281 239.213563 
L 887.298459 238.406506 
L 888.224816 258.614489 
L 888.687994 250.156009 
L 889.151172 236.02926 
L 889.61435 259.841435 
L 890.077528 243.642734 
L 890.540707 240.867323 
L 891.003885 239.690275 
L 891.467063 232.948555 
L 891.930241 221.056555 
L 892.393419 226.879745 
L 892.856597 207.706312 
L 893.319776 220.056152 
L 894.246132 230.289165 
L 895.172488 274.368997 
L 895.635666 292.623901 
L 896.562023 307.8 
L 897.025201 305.438979 
L 897.488379 300.673014 
L 898.414735 278.960965 
L 898.877914 273.788009 
L 899.341092 270.220816 
L 899.80427 256.079268 
L 900.267448 251.564897 
L 900.730626 245.14877 
L 901.193804 229.416258 
L 901.656983 232.486712 
L 902.120161 232.234642 
L 902.583339 237.014457 
L 903.046517 228.800171 
L 903.509695 225.898963 
L 903.972873 215.605325 
L 904.436052 209.803384 
L 904.89923 184.095902 
L 905.362408 175.163833 
L 905.825586 148.309378 
L 906.288764 145.274973 
L 906.751942 148.486024 
L 907.215121 166.430134 
L 908.141477 218.864373 
L 908.604655 208.111946 
L 909.067833 216.465878 
L 909.99419 213.482797 
L 910.457368 200.480822 
L 910.920546 171.613613 
L 911.383724 160.143403 
L 911.846902 160.786713 
L 912.31008 158.965879 
L 912.773259 153.149139 
L 913.236437 158.032551 
L 913.699615 175.251478 
L 914.162793 181.44466 
L 915.089149 150.142432 
L 915.552328 152.095512 
L 916.015506 148.646716 
L 916.478684 147.588065 
L 916.941862 116.930098 
L 917.40504 102.588754 
L 917.868218 109.166727 
L 918.331397 113.835544 
L 918.794575 96.275274 
L 919.257753 104.059419 
L 919.720931 82.11845 
L 920.647287 111.176629 
L 921.110466 113.10011 
L 921.573644 113.336429 
L 922.036822 117.923848 
L 922.5 115.155837 
L 922.963178 133.055548 
L 923.426356 132.374289 
L 923.889534 111.543294 
L 924.352713 112.682393 
L 924.815891 108.523214 
L 925.279069 116.085364 
L 925.742247 121.412766 
L 926.205425 103.837696 
L 926.668603 102.194459 
L 927.131782 117.726225 
L 927.59496 116.778572 
L 928.058138 103.488004 
L 928.521316 104.27191 
L 928.984494 92.098716 
L 929.447672 124.990482 
L 929.910851 125.027006 
L 930.374029 119.787451 
L 930.837207 123.013302 
L 931.300385 158.324811 
L 931.763563 174.566961 
L 932.226741 175.728259 
L 932.68992 150.686762 
L 933.153098 151.40407 
L 934.079454 118.829072 
L 935.00581 73.089777 
L 935.468989 71.128348 
L 935.932167 72.496841 
L 936.395345 63.63877 
L 936.858523 69.343563 
L 937.321701 94.199114 
L 937.784879 104.077411 
L 938.711236 116.567372 
L 939.174414 119.948619 
L 939.637592 131.514077 
L 940.10077 129.508248 
L 940.563948 124.683084 
L 941.027127 129.82549 
L 941.490305 131.045987 
L 941.953483 127.456594 
L 942.879839 116.089506 
L 943.806196 110.057695 
L 944.732552 118.071235 
L 945.19573 126.632362 
L 945.658908 124.152944 
L 946.122086 124.263467 
L 946.585265 122.279837 
L 947.048443 129.331399 
L 947.511621 132.779244 
L 947.974799 134.798923 
L 948.437977 130.055157 
L 948.901155 143.063581 
L 949.364334 142.781913 
L 949.827512 159.623449 
L 950.29069 172.113885 
L 950.753868 174.251961 
L 951.217046 161.708775 
L 951.680224 160.309732 
L 952.143403 145.02121 
L 952.606581 146.145509 
L 953.069759 137.524232 
L 953.532937 133.032061 
L 953.996115 132.587596 
L 954.922472 158.493448 
L 955.38565 163.162265 
L 955.848828 176.163289 
L 956.312006 173.424877 
L 956.775184 186.810693 
L 957.238362 196.2524 
L 957.701541 197.421098 
L 958.164719 170.995833 
L 958.627897 188.843745 
L 959.091075 198.100456 
L 959.554253 201.437304 
L 960.017431 188.879319 
L 960.48061 198.691017 
L 960.943788 191.727303 
L 961.406966 218.987798 
L 961.870144 210.766113 
L 962.333322 218.861051 
L 962.7965 245.425962 
L 963.259679 261.216723 
L 963.722857 246.571985 
L 964.186035 260.231595 
L 964.649213 268.215535 
L 965.575569 272.684557 
L 966.038748 255.768072 
L 966.501926 225.790889 
L 966.965104 216.252034 
L 967.428282 213.247228 
L 968.354638 186.458896 
L 968.817817 202.649248 
L 969.280995 202.471176 
L 969.744173 213.955236 
L 970.207351 216.833294 
L 971.133707 233.008371 
L 971.596886 227.228629 
L 972.060064 214.152656 
L 972.523242 210.918455 
L 972.98642 208.683231 
L 973.449598 216.408178 
L 973.912776 213.965759 
L 974.375955 202.754543 
L 974.839133 196.368015 
L 975.302311 186.999356 
L 975.765489 189.337227 
L 976.228667 203.818217 
L 976.691845 197.0025 
L 977.155024 209.374539 
L 977.618202 225.468692 
L 978.08138 250.516639 
L 978.544558 250.360767 
L 979.007736 253.845611 
L 979.470914 226.140176 
L 979.934093 221.41121 
L 980.397271 191.160233 
L 980.860449 171.764805 
L 981.323627 163.846513 
L 981.786805 167.508953 
L 982.249983 154.603176 
L 982.713162 175.307423 
L 983.17634 182.011193 
L 983.639518 216.849113 
L 984.102696 231.603898 
L 984.565874 213.636637 
L 985.029052 203.217203 
L 985.492231 212.991902 
L 985.955409 208.462731 
L 986.418587 201.018028 
L 986.881765 183.576155 
L 987.344943 176.819636 
L 987.808121 173.992426 
L 988.2713 180.119009 
L 988.734478 172.592908 
L 989.197656 153.811666 
L 989.660834 148.720109 
L 990.124012 160.352165 
L 990.58719 162.571639 
L 991.050369 188.796158 
L 991.513547 180.914865 
L 991.976725 181.32878 
L 992.439903 181.402303 
L 992.903081 174.593985 
L 993.366259 150.699462 
L 993.829438 148.930427 
L 994.292616 138.311197 
L 994.755794 145.599554 
L 995.218972 150.71976 
L 995.68215 158.703701 
L 996.145328 181.4503 
L 996.608507 193.881538 
L 997.071685 182.32993 
L 997.534863 177.008977 
L 997.998041 205.201851 
L 998.461219 219.638443 
L 998.924397 223.730073 
L 999.387576 214.953401 
L 1000.313932 238.594904 
L 1000.77711 241.909553 
L 1001.240288 213.21994 
L 1001.703466 207.928587 
L 1002.166645 227.589458 
L 1002.629823 219.90796 
L 1003.093001 219.293299 
L 1003.556179 225.294085 
L 1004.019357 228.815929 
L 1004.482535 237.909843 
L 1004.945714 229.207169 
L 1005.408892 205.904632 
L 1005.87207 205.016177 
L 1006.798426 182.675143 
L 1007.261604 181.098504 
L 1007.724783 167.326947 
L 1008.187961 172.624749 
L 1008.651139 183.539022 
L 1009.114317 214.284837 
L 1009.577495 235.307276 
L 1010.040673 231.932479 
L 1010.503852 240.390009 
L 1010.96703 245.436217 
L 1011.430208 246.197924 
L 1011.893386 245.257671 
L 1012.356564 224.996463 
L 1012.819742 212.719671 
L 1013.746099 195.070129 
L 1014.209277 213.347231 
L 1014.672455 198.073509 
L 1015.135633 206.235045 
L 1015.598811 209.786488 
L 1016.06199 194.808759 
L 1016.525168 208.209374 
L 1016.988346 201.23086 
L 1017.451524 173.325629 
L 1017.914702 182.678538 
L 1018.37788 169.824559 
L 1018.841059 160.796293 
L 1019.304237 168.957829 
L 1019.767415 147.971438 
L 1020.230593 138.173589 
L 1021.156949 126.347712 
L 1021.620127 109.423828 
L 1022.083306 102.312117 
L 1022.546484 79.527567 
L 1023.009662 89.006273 
L 1023.47284 119.197101 
L 1023.936018 168.908678 
L 1024.862375 177.666362 
L 1026.251909 273.793799 
L 1026.715087 281.559905 
L 1027.178265 269.649865 
L 1027.641444 242.533177 
L 1028.104622 235.865456 
L 1029.494156 188.157332 
L 1029.957334 182.81418 
L 1030.420513 186.743014 
L 1030.883691 176.967364 
L 1031.346869 180.008219 
L 1031.810047 183.929653 
L 1032.273225 189.382852 
L 1032.736403 176.003486 
L 1033.199582 182.847853 
L 1033.66276 177.11251 
L 1034.125938 175.025283 
L 1034.589116 175.3356 
L 1035.052294 163.621196 
L 1035.515472 158.056049 
L 1035.978651 185.553339 
L 1036.441829 200.789112 
L 1036.905007 210.230819 
L 1037.368185 236.174145 
L 1038.294541 255.486748 
L 1038.75772 256.825642 
L 1039.684076 215.467047 
L 1040.147254 209.983298 
L 1040.610432 193.481204 
L 1041.07361 196.396261 
L 1041.536789 181.470331 
L 1041.999967 187.130725 
L 1042.463145 172.722782 
L 1042.926323 165.433475 
L 1044.779036 83.108475 
L 1045.242214 77.93552 
L 1046.16857 136.38582 
L 1047.558105 189.707563 
L 1048.021283 195.967343 
L 1048.484461 199.230193 
L 1049.410817 117.105938 
L 1050.337174 76.842518 
L 1050.800352 88.045384 
L 1051.26353 102.785368 
L 1051.726708 81.362388 
L 1052.189886 114.883139 
L 1052.653065 131.576678 
L 1053.116243 136.208496 
L 1053.579421 153.693817 
L 1054.042599 160.626982 
L 1054.505777 146.263438 
L 1054.968955 165.539518 
L 1055.432134 154.861089 
L 1055.895312 152.45567 
L 1056.35849 177.126225 
L 1056.821668 173.448035 
L 1057.284846 150.841081 
L 1057.748024 178.160775 
L 1058.211203 168.829116 
L 1058.674381 165.321121 
L 1059.137559 171.691899 
L 1059.600737 158.349532 
L 1060.063915 157.77927 
L 1060.527093 179.149501 
L 1060.990272 177.891055 
L 1061.45345 186.207988 
L 1061.916628 202.050547 
L 1062.379806 208.63592 
L 1062.842984 211.462179 
L 1063.306162 211.787297 
L 1063.769341 199.458706 
L 1064.232519 176.045172 
L 1064.695697 173.254961 
L 1065.158875 164.83348 
L 1065.622053 166.534966 
L 1066.085231 165.113723 
L 1066.54841 146.369481 
L 1067.011588 148.174564 
L 1067.474766 154.811735 
L 1067.937944 145.554074 
L 1068.401122 140.373718 
L 1068.8643 126.061974 
L 1069.790657 166.737884 
L 1070.253835 166.123223 
L 1070.717013 163.503208 
L 1071.180191 180.041351 
L 1071.643369 186.930117 
L 1072.106548 189.697178 
L 1072.569726 152.490362 
L 1073.032904 162.257661 
L 1073.496082 148.974493 
L 1073.95926 163.499882 
L 1074.422438 158.082732 
L 1074.885617 140.108072 
L 1075.348795 128.386267 
L 1075.811973 135.119636 
L 1076.275151 116.900782 
L 1076.738329 116.389718 
L 1077.201507 131.965884 
L 1077.664686 108.752144 
L 1078.127864 124.446707 
L 1078.591042 144.43317 
L 1079.05422 123.269184 
L 1079.980576 167.016023 
L 1080.443755 138.430008 
L 1080.906933 158.209276 
L 1081.370111 166.185817 
L 1081.833289 166.903125 
L 1082.296467 194.082223 
L 1083.222824 158.939483 
L 1083.686002 166.760628 
L 1084.14918 169.668285 
L 1084.612358 161.964588 
L 1085.075536 159.966159 
L 1085.538714 153.002445 
L 1086.001893 147.844288 
L 1086.465071 150.322756 
L 1086.928249 160.652442 
L 1087.391427 160.607568 
L 1087.854605 172.609616 
L 1088.317783 175.287879 
L 1088.780962 182.036048 
L 1089.24414 196.983228 
L 1089.707318 203.220808 
L 1090.170496 178.808297 
L 1090.633674 173.346748 
L 1091.096852 144.235345 
L 1091.560031 138.352005 
L 1092.023209 144.152996 
L 1092.486387 135.50952 
L 1092.949565 147.082378 
L 1093.412743 181.224715 
L 1093.875921 187.69169 
L 1094.802278 208.010671 
L 1095.265456 212.376095 
L 1095.728634 214.010982 
L 1096.191812 210.140396 
L 1096.65499 204.242257 
L 1097.118169 208.607681 
L 1097.581347 214.608467 
L 1098.044525 207.215563 
L 1098.507703 194.065591 
L 1098.970881 186.894681 
L 1099.434059 175.750064 
L 1099.897238 168.157364 
L 1100.360416 170.095644 
L 1100.823594 168.903796 
L 1101.286772 164.752017 
L 1101.74995 171.255991 
L 1102.213128 183.117442 
L 1102.676307 185.817905 
L 1103.139485 181.88072 
L 1103.602663 191.048634 
L 1104.065841 185.180094 
L 1104.529019 195.043591 
L 1104.992197 200.829782 
L 1105.455376 188.597389 
L 1105.918554 185.29659 
L 1106.84491 194.538027 
L 1107.308088 191.55542 
L 1107.771266 174.513139 
L 1108.234445 172.448111 
L 1108.697623 185.345538 
L 1109.160801 188.667586 
L 1109.623979 174.40764 
L 1110.087157 143.512878 
L 1110.550335 154.700945 
L 1111.013514 187.000724 
L 1111.476692 178.083455 
L 1111.93987 175.271044 
L 1112.403048 179.643868 
L 1113.329404 247.284756 
L 1113.792583 250.244213 
L 1114.255761 243.532092 
L 1114.718939 253.654584 
L 1115.182117 253.372915 
L 1115.645295 253.34284 
L 1116.571652 219.961261 
L 1117.03483 234.316454 
L 1117.498008 219.331325 
L 1117.961186 236.483654 
L 1118.424364 241.796256 
L 1118.887542 243.823334 
L 1119.35072 236.341631 
L 1119.813899 238.376109 
L 1120.277077 226.00312 
L 1120.740255 233.876063 
L 1121.203433 219.505119 
L 1121.666611 213.059393 
L 1122.129789 211.430955 
L 1122.592968 215.145194 
L 1123.056146 211.755597 
L 1123.519324 209.934764 
L 1123.982502 205.54619 
L 1124.44568 199.25586 
L 1124.908858 203.880278 
L 1125.372037 200.53508 
L 1125.835215 198.055662 
L 1126.298393 204.744633 
L 1126.761571 206.061327 
L 1127.687927 222.007009 
L 1128.151106 204.683533 
L 1128.614284 200.738949 
L 1129.077462 198.163334 
L 1129.54064 186.641324 
L 1130.003818 180.824583 
L 1130.466996 184.139232 
L 1130.930175 185.100734 
L 1131.393353 198.183157 
L 1131.856531 189.806075 
L 1132.319709 191.11537 
L 1132.782887 198.300129 
L 1133.246065 209.554794 
L 1133.709244 199.08356 
L 1134.172422 199.645472 
L 1134.6356 199.97059 
L 1135.561956 223.804489 
L 1136.025134 221.036478 
L 1136.488313 211.949012 
L 1137.414669 185.826665 
L 1137.877847 189.318909 
L 1138.341025 180.224044 
L 1138.804203 164.624729 
L 1139.73056 156.853958 
L 1140.193738 168.730208 
L 1140.656916 188.524276 
L 1141.120094 183.595515 
L 1142.046451 208.0658 
L 1142.509629 215.213559 
L 1142.972807 229.613152 
L 1143.435985 228.088312 
L 1143.899163 214.790343 
L 1144.362341 209.484191 
L 1145.288698 163.345306 
L 1146.215054 133.900435 
L 1146.678232 129.830054 
L 1147.14141 119.077627 
L 1147.604589 127.276162 
L 1148.067767 157.237595 
L 1148.530945 167.397086 
L 1148.994123 164.096287 
L 1149.920479 151.463828 
L 1150.383658 164.820044 
L 1150.846836 154.430209 
L 1151.310014 134.871985 
L 1151.773192 136.817665 
L 1152.23637 149.966687 
L 1152.699548 157.440039 
L 1153.162727 170.700057 
L 1153.625905 159.363044 
L 1154.089083 155.721853 
L 1154.552261 145.383816 
L 1155.015439 148.158277 
L 1155.478617 161.854886 
L 1155.941796 169.024845 
L 1156.404974 192.82222 
L 1156.868152 208.272589 
L 1158.257686 204.269727 
L 1158.720865 231.538544 
L 1159.184043 224.760746 
L 1159.647221 215.711201 
L 1160.110399 200.090608 
L 1160.573577 176.825992 
L 1161.036755 169.049217 
L 1161.499934 182.227838 
L 1161.963112 171.238616 
L 1162.42629 178.526973 
L 1162.889468 192.312379 
L 1163.352646 201.206499 
L 1163.815824 217.130456 
L 1164.279003 224.848003 
L 1164.742181 222.59058 
L 1165.205359 206.606473 
L 1165.668537 219.563099 
L 1166.131715 202.713213 
L 1166.594893 200.537188 
L 1167.058072 170.049417 
L 1167.52125 154.398303 
L 1167.984428 163.877009 
L 1168.447606 153.18378 
L 1168.910784 146.131268 
L 1169.373962 128.304604 
L 1169.837141 133.269415 
L 1170.300319 127.578471 
L 1170.763497 123.48589 
L 1171.226675 105.888621 
L 1171.689853 138.358596 
L 1172.153031 127.524771 
L 1172.61621 121.515635 
L 1173.079388 96.599935 
L 1174.005744 123.097773 
L 1174.468922 139.732113 
L 1174.9321 137.733684 
L 1175.395279 129.04581 
L 1175.858457 152.62119 
L 1176.321635 165.052428 
L 1176.784813 150.859081 
L 1177.247991 168.803191 
L 1177.711169 169.964489 
L 1178.174348 174.100518 
L 1178.637526 174.536633 
L 1179.100704 174.195766 
L 1179.563882 191.703286 
L 1180.02706 218.749187 
L 1180.490238 211.082489 
L 1180.953417 206.90851 
L 1181.416595 196.533474 
L 1181.879773 193.780263 
L 1182.342951 192.692012 
L 1183.269307 163.957525 
L 1183.732486 155.069855 
L 1184.195664 156.36435 
L 1184.658842 166.671837 
L 1185.12202 187.97547 
L 1185.585198 185.340656 
L 1186.048376 191.067648 
L 1186.511555 187.337659 
L 1186.974733 159.35843 
L 1187.437911 144.950488 
L 1187.901089 143.699441 
L 1188.364267 125.125395 
L 1188.827445 112.338015 
L 1189.753802 133.404378 
L 1190.21698 154.530415 
L 1190.680158 168.863409 
L 1191.143336 155.743037 
L 1191.606514 160.922442 
L 1192.069693 171.20033 
L 1192.532871 155.80821 
L 1192.996049 154.172372 
L 1193.459227 133.481975 
L 1193.922405 118.615243 
L 1194.385583 143.019404 
L 1195.31194 135.39663 
L 1195.775118 144.571943 
L 1196.238296 132.428348 
L 1197.164652 154.900679 
L 1197.627831 132.301125 
L 1198.091009 130.169499 
L 1198.554187 128.940652 
L 1199.017365 115.028498 
L 1199.480543 137.020316 
L 1199.943721 144.249473 
L 1200.4069 145.573568 
L 1200.870078 139.216639 
L 1201.333256 144.566241 
L 1201.796434 153.734154 
L 1202.72279 120.308175 
L 1203.185969 115.09822 
L 1203.649147 111.190635 
L 1204.112325 133.234251 
L 1204.575503 134.580545 
L 1205.038681 135.334852 
L 1205.501859 166.939047 
L 1205.965038 157.318794 
L 1206.428216 174.027133 
L 1206.891394 178.066965 
L 1207.354572 161.046883 
L 1208.280928 146.756862 
L 1208.744107 133.414495 
L 1209.207285 152.054189 
L 1209.670463 147.325223 
L 1210.133641 162.501798 
L 1210.596819 173.541868 
L 1211.059997 188.341051 
L 1211.523176 211.53164 
L 1211.986354 224.480866 
L 1212.449532 227.144329 
L 1212.91271 226.759063 
L 1213.375888 205.498879 
L 1213.839066 204.055437 
L 1214.302245 200.480844 
L 1214.765423 170.799654 
L 1215.228601 171.872154 
L 1215.691779 165.241432 
L 1216.154957 163.982986 
L 1216.618135 159.742409 
L 1217.081314 169.309913 
L 1217.544492 159.386267 
L 1218.00767 196.318339 
L 1218.934026 217.05171 
L 1219.860382 236.475311 
L 1220.323561 241.972909 
L 1220.786739 257.482476 
L 1221.249917 251.599136 
L 1221.713095 222.939123 
L 1222.176273 228.481119 
L 1222.639451 241.903934 
L 1223.565808 230.351851 
L 1224.028986 223.425135 
L 1224.492164 212.495113 
L 1224.955342 233.132761 
L 1225.881699 197.368436 
L 1226.344877 198.72953 
L 1226.808055 187.777307 
L 1227.271233 180.709995 
L 1227.734411 185.541608 
L 1228.197589 188.604663 
L 1228.660768 216.575542 
L 1229.123946 215.213498 
L 1229.587124 223.700627 
L 1230.51348 248.104313 
L 1230.976658 237.988271 
L 1231.439837 236.204437 
L 1231.903015 198.509232 
L 1232.366193 187.253617 
L 1232.829371 180.371301 
L 1234.218906 137.362068 
L 1234.682084 137.331994 
L 1235.145262 145.959719 
L 1235.60844 168.521323 
L 1236.071618 179.235801 
L 1236.534796 195.92934 
L 1236.997975 222.368454 
L 1237.461153 239.979573 
L 1238.387509 208.381352 
L 1238.850687 196.918541 
L 1239.313865 189.917828 
L 1239.777044 180.830362 
L 1240.240222 163.136895 
L 1240.7034 157.001962 
L 1241.166578 159.90222 
L 1241.629756 157.94079 
L 1242.092934 157.081934 
L 1242.556113 153.174349 
L 1243.019291 135.762076 
L 1243.482469 137.789154 
L 1244.872003 195.824589 
L 1245.335182 203.423738 
L 1245.79836 221.404848 
L 1246.261538 245.34282 
L 1246.724716 246.85191 
L 1247.187894 225.998716 
L 1247.651072 211.605573 
L 1248.114251 216.118994 
L 1248.577429 200.660276 
L 1249.040607 196.76009 
L 1249.503785 181.145976 
L 1250.430141 163.163441 
L 1250.89332 149.52508 
L 1251.356498 143.745338 
L 1251.819676 143.500669 
L 1252.282854 122.662275 
L 1252.746032 125.67353 
L 1253.672389 142.181599 
L 1254.135567 160.658497 
L 1255.061923 159.532772 
L 1255.525101 173.673371 
L 1255.988279 195.073201 
L 1256.451458 195.117125 
L 1256.914636 204.181441 
L 1257.377814 203.514981 
L 1257.840992 208.287396 
L 1258.30417 214.724772 
L 1258.767348 201.656198 
L 1259.230527 198.444197 
L 1259.693705 213.184182 
L 1260.156883 206.213068 
L 1260.620061 195.564238 
L 1261.083239 205.871725 
L 1261.546417 199.559196 
L 1262.009596 197.153776 
L 1262.935952 157.844933 
L 1263.39913 155.180519 
L 1263.862308 157.925381 
L 1264.325486 152.626628 
L 1264.788665 161.40975 
L 1265.251843 165.205387 
L 1265.715021 163.214358 
L 1266.178199 158.99598 
L 1266.641377 172.862785 
L 1267.104555 161.732967 
L 1268.030912 173.408947 
L 1268.49409 188.859315 
L 1268.957268 193.121141 
L 1269.420446 193.135466 
L 1269.883624 178.490728 
L 1270.346803 186.030679 
L 1270.809981 168.936599 
L 1271.736337 157.858104 
L 1272.199515 154.142915 
L 1272.662693 162.230453 
L 1273.125872 167.224862 
L 1273.58905 177.628547 
L 1274.052228 183.32594 
L 1274.978584 148.693789 
L 1275.904941 159.978054 
L 1276.368119 156.655055 
L 1276.831297 154.560428 
L 1278.220831 110.463421 
L 1278.68401 103.233312 
L 1279.147188 81.973128 
L 1279.610366 81.306668 
L 1280.073544 82.342169 
L 1280.9999 105.991073 
L 1281.463079 134.90913 
L 1281.926257 141.154111 
L 1282.389435 165.521273 
L 1282.852613 162.39067 
L 1283.315791 164.565744 
L 1283.778969 162.870708 
L 1284.242148 167.502526 
L 1284.705326 175.086876 
L 1285.168504 204.515521 
L 1285.631682 206.254006 
L 1286.09486 225.752081 
L 1286.558038 236.207564 
L 1287.947573 297.861515 
L 1288.410751 294.745712 
L 1288.873929 296.602594 
L 1289.337107 297.4235 
L 1289.800286 288.247236 
L 1290.263464 289.859924 
L 1290.726642 285.212356 
L 1291.18982 265.002947 
L 1291.652998 264.921074 
L 1292.116176 262.648851 
L 1292.579355 252.148019 
L 1293.042533 258.822189 
L 1293.505711 249.349933 
L 1293.968889 228.47454 
L 1294.432067 240.284192 
L 1294.895245 245.286001 
L 1295.358424 259.108407 
L 1295.821602 267.913728 
L 1296.28478 251.419034 
L 1296.747958 249.531602 
L 1297.211136 252.209865 
L 1298.137493 216.933929 
L 1298.600671 212.412158 
L 1299.063849 215.312416 
L 1299.527027 232.057755 
L 1299.990205 216.517638 
L 1300.453383 224.664375 
L 1300.916562 230.391367 
L 1301.37974 231.922657 
L 1301.842918 222.161807 
L 1302.306096 206.022304 
L 1302.769274 203.861079 
L 1303.232452 219.274448 
L 1303.695631 213.405908 
L 1304.158809 214.996396 
L 1304.621987 217.867055 
L 1305.085165 217.903579 
L 1305.548343 214.092192 
L 1306.011521 198.396679 
L 1306.4747 196.731242 
L 1306.937878 197.130358 
L 1307.401056 175.026593 
L 1307.864234 165.191745 
L 1308.327412 150.413811 
L 1308.79059 147.594001 
L 1309.253769 159.196458 
L 1309.716947 158.01201 
L 1310.180125 155.909983 
L 1311.106481 187.587701 
L 1311.569659 180.002401 
L 1312.032838 201.254235 
L 1312.496016 190.117017 
L 1312.959194 190.915724 
L 1313.422372 191.381438 
L 1313.88555 206.350817 
L 1314.348728 202.421032 
L 1314.811907 216.102841 
L 1315.275085 193.643885 
L 1315.738263 181.840682 
L 1316.201441 158.952535 
L 1316.664619 141.984252 
L 1317.127797 109.232133 
L 1317.590975 105.694539 
L 1318.054154 106.049256 
L 1318.517332 102.541262 
L 1319.443688 149.262833 
L 1319.906866 179.594257 
L 1320.370044 193.194668 
L 1320.833223 193.194193 
L 1321.296401 177.691075 
L 1321.759579 188.583149 
L 1322.222757 184.142776 
L 1322.685935 176.971866 
L 1323.149113 155.741281 
L 1323.612292 143.368292 
L 1324.07547 165.907696 
L 1324.538648 197.689487 
L 1325.001826 189.223608 
L 1325.465004 197.459142 
L 1325.928182 183.45819 
L 1326.854539 179.895158 
L 1327.317717 199.249397 
L 1328.244073 162.982805 
L 1328.707251 179.45111 
L 1329.17043 166.371898 
L 1329.633608 169.061721 
L 1330.096786 177.98544 
L 1330.559964 153.032741 
L 1331.023142 164.916391 
L 1331.48632 165.285908 
L 1331.949499 156.220642 
L 1332.412677 156.197967 
L 1332.875855 163.279128 
L 1333.802211 160.733112 
L 1334.728568 157.850864 
L 1335.191746 135.403468 
L 1335.654924 137.567903 
L 1336.118102 152.060454 
L 1336.58128 157.066424 
L 1337.044458 160.755224 
L 1337.507637 177.845115 
L 1337.970815 190.83134 
L 1338.897171 209.329963 
L 1339.360349 207.457331 
L 1339.823527 207.123863 
L 1340.286706 205.007037 
L 1340.749884 185.315616 
L 1341.213062 202.179352 
L 1341.67624 189.273575 
L 1342.139418 184.219016 
L 1342.602596 155.329608 
L 1343.065775 139.315902 
L 1343.528953 143.984719 
L 1343.992131 134.105472 
L 1344.455309 117.181588 
L 1344.918487 130.641402 
L 1345.381665 127.828992 
L 1345.844844 162.119325 
L 1346.308022 171.590631 
L 1346.7712 160.179619 
L 1347.234378 178.582519 
L 1347.697556 185.67108 
L 1348.160734 184.094442 
L 1348.623913 190.287623 
L 1349.087091 179.276202 
L 1349.550269 184.278012 
L 1350.013447 187.548261 
L 1350.476625 177.38782 
L 1350.939803 161.618309 
L 1351.402982 180.901789 
L 1351.86616 160.329789 
L 1352.329338 166.811564 
L 1352.792516 158.293885 
L 1353.255694 147.534058 
L 1353.718872 147.296789 
L 1354.182051 164.108725 
L 1354.645229 137.912855 
L 1356.96112 217.954431 
L 1357.424298 203.265295 
L 1357.887476 208.207906 
L 1358.350654 185.452956 
L 1358.813832 139.455143 
L 1359.27701 129.3835 
L 1360.203367 87.943506 
L 1360.666545 86.492665 
L 1361.129723 80.779521 
L 1362.056079 139.932805 
L 1362.982436 135.743552 
L 1363.445614 139.287595 
L 1363.908792 151.652234 
L 1364.37197 156.291452 
L 1364.835148 137.48801 
L 1365.761505 120.790281 
L 1366.224683 121.474751 
L 1366.687861 117.327132 
L 1367.151039 115.421662 
L 1367.614217 120.975219 
L 1368.077396 121.881684 
L 1368.540574 126.732257 
L 1369.003752 114.381467 
L 1369.46693 110.962271 
L 1369.930108 124.599681 
L 1370.393286 123.570629 
L 1370.856465 109.525279 
L 1371.319643 105.3291 
L 1371.782821 108.207159 
L 1372.245999 115.384518 
L 1372.709177 100.288391 
L 1373.172355 100.931701 
L 1373.635534 90.490067 
L 1374.098712 96.268858 
L 1374.56189 98.725126 
L 1375.025068 109.498802 
L 1375.488246 98.280186 
L 1375.951424 115.824706 
L 1376.414603 110.755348 
L 1376.877781 119.027882 
L 1377.340959 124.096289 
L 1377.804137 132.531619 
L 1378.267315 143.260897 
L 1378.730493 159.78424 
L 1379.193672 163.46888 
L 1379.65685 170.727637 
L 1380.120028 180.953726 
L 1380.583206 184.593966 
L 1381.046384 173.515947 
L 1381.509562 166.026845 
L 1381.972741 170.806659 
L 1382.435919 154.541359 
L 1382.899097 156.657235 
L 1383.362275 151.277084 
L 1383.825453 161.081383 
L 1384.288631 147.184028 
L 1384.75181 154.768378 
L 1385.214988 138.998867 
L 1385.678166 155.670207 
L 1386.141344 158.977455 
L 1386.604522 155.232667 
L 1387.0677 142.652482 
L 1387.530879 174.589669 
L 1387.994057 175.676969 
L 1388.457235 185.266672 
L 1389.383591 172.404819 
L 1389.846769 181.25454 
L 1390.309948 180.787875 
L 1391.236304 142.737003 
L 1392.16266 178.233033 
L 1392.625838 193.557604 
L 1393.089017 182.546183 
L 1393.552195 183.552085 
L 1394.015373 191.499026 
L 1394.941729 153.862545 
L 1395.404907 157.458387 
L 1395.868086 152.662822 
L 1396.331264 155.910872 
L 1397.25762 127.294782 
L 1397.720798 146.038074 
L 1398.647155 120.270919 
L 1399.110333 90.604528 
L 1399.573511 85.96436 
L 1400.036689 85.475496 
L 1400.499867 121.615787 
L 1400.963045 120.224144 
L 1401.426224 131.353012 
L 1401.889402 132.832502 
L 1402.35258 147.43189 
L 1402.815758 165.893989 
L 1403.278936 164.665142 
L 1403.742114 141.695597 
L 1404.205293 140.622147 
L 1404.668471 126.147606 
L 1405.594827 134.057073 
L 1406.058005 128.32913 
L 1406.521183 151.630716 
L 1406.984362 146.428161 
L 1407.44754 147.848453 
L 1407.910718 170.491455 
L 1408.373896 167.161057 
L 1408.837074 165.769414 
L 1409.763431 151.316597 
L 1410.226609 166.833564 
L 1410.689787 174.247718 
L 1411.616143 151.980681 
L 1412.079321 153.363974 
L 1412.5425 138.475043 
L 1414.395212 142.403877 
L 1414.85839 141.730017 
L 1415.321568 136.090872 
L 1415.784747 148.122519 
L 1416.247925 167.78339 
L 1416.711103 172.555805 
L 1417.174281 189.86353 
L 1417.637459 187.03632 
L 1418.563816 213.45276 
L 1419.026994 209.167783 
L 1419.490172 201.108894 
L 1419.95335 205.592716 
L 1420.416528 213.354661 
L 1420.879706 207.264127 
L 1423.195597 92.298005 
L 1423.658775 81.390181 
L 1424.121954 73.338692 
L 1424.585132 79.724269 
L 1425.04831 81.891944 
L 1425.511488 98.777879 
L 1425.974666 144.404751 
L 1427.364201 190.008472 
L 1428.290557 176.465834 
L 1428.753735 186.38853 
L 1429.216913 166.401116 
L 1429.680092 163.337112 
L 1430.606448 137.43676 
L 1431.069626 131.612619 
L 1431.532804 157.237752 
L 1431.995982 135.481779 
L 1432.459161 133.794143 
L 1432.922339 144.52342 
L 1433.385517 143.745963 
L 1433.848695 134.865693 
L 1434.311873 160.971815 
L 1434.775051 150.026992 
L 1435.23823 172.196405 
L 1435.701408 171.566944 
L 1436.164586 166.638183 
L 1436.627764 177.567256 
L 1437.090942 177.248588 
L 1437.55412 156.743186 
L 1438.017299 165.600306 
L 1438.480477 159.857564 
L 1438.943655 151.54708 
L 1439.406833 137.731124 
L 1439.870011 118.357896 
L 1440.333189 131.906508 
L 1440.796368 118.778736 
L 1441.259546 95.698194 
L 1441.722724 91.191223 
L 1442.185902 97.036612 
L 1443.112258 130.334893 
L 1444.038615 143.860831 
L 1444.501793 138.517679 
L 1444.964971 148.62537 
L 1445.428149 151.111238 
L 1445.891327 138.079663 
L 1446.354506 136.451226 
L 1446.817684 137.175934 
L 1447.280862 145.137675 
L 1447.74404 175.417301 
L 1448.207218 181.780678 
L 1448.670396 185.554116 
L 1449.596753 215.359678 
L 1450.059931 207.130592 
L 1450.523109 205.642752 
L 1450.986287 195.289915 
L 1451.449465 197.90898 
L 1451.912644 197.523713 
L 1452.375822 188.310451 
L 1452.839 171.874955 
L 1453.765356 165.939817 
L 1454.228534 180.028617 
L 1454.691713 176.402225 
L 1455.154891 179.761272 
L 1455.618069 177.703645 
L 1456.081247 167.691201 
L 1456.544425 162.052056 
L 1457.007603 160.34222 
L 1457.470782 147.162649 
L 1457.93396 141.634501 
L 1458.397138 147.96088 
L 1458.860316 171.528861 
L 1459.323494 201.297898 
L 1459.786672 215.024106 
L 1460.249851 242.306801 
L 1460.713029 251.866905 
L 1461.176207 273.888322 
L 1462.102563 253.323246 
L 1462.565741 246.722123 
L 1463.02892 245.685672 
L 1463.955276 209.906548 
L 1464.418454 212.984401 
L 1464.881632 213.205921 
L 1465.34481 220.731072 
L 1465.807989 214.203948 
L 1466.271167 226.087598 
L 1467.197523 268.324873 
L 1468.123879 262.793486 
L 1468.587058 265.350112 
L 1469.050236 234.193117 
L 1469.513414 215.68243 
L 1469.976592 182.246287 
L 1470.43977 175.094338 
L 1471.366127 209.699149 
L 1471.829305 217.350097 
L 1472.755661 250.677978 
L 1473.218839 279.618234 
L 1474.145196 241.974353 
L 1474.608374 242.188473 
L 1475.071552 233.086208 
L 1475.53473 217.198299 
L 1475.997908 216.346844 
L 1476.461086 229.26647 
L 1476.924265 251.028893 
L 1477.387443 246.958512 
L 1477.850621 239.336212 
L 1478.313799 239.727928 
L 1479.240155 281.587811 
L 1479.703334 271.553168 
L 1480.166512 270.901508 
L 1481.092868 270.59024 
L 1481.556046 273.468298 
L 1482.482403 270.818209 
L 1482.945581 275.420427 
L 1483.408759 271.128051 
L 1483.871937 278.653202 
L 1484.335115 284.313596 
L 1484.798293 278.963045 
L 1485.261472 281.582109 
L 1485.72465 291.867396 
L 1486.187828 283.468115 
L 1486.651006 280.781502 
L 1487.114184 273.610592 
L 1487.577362 261.156205 
L 1488.040541 254.947273 
L 1488.503719 264.610975 
L 1488.966897 257.255069 
L 1489.893253 270.840205 
L 1490.356431 268.945374 
L 1490.81961 282.397788 
L 1491.745966 265.82122 
L 1492.209144 266.383132 
L 1492.672322 246.691712 
L 1493.1355 236.782865 
L 1493.598679 236.064606 
L 1494.061857 238.032486 
L 1494.525035 254.126639 
L 1494.988213 251.203231 
L 1495.451391 240.154811 
L 1495.914569 241.974694 
L 1496.377748 267.429631 
L 1496.840926 280.615652 
L 1497.304104 280.740973 
L 1497.767282 271.335315 
L 1498.23046 250.526521 
L 1498.693638 235.60059 
L 1499.156817 240.927992 
L 1500.083173 189.527828 
L 1500.546351 175.667473 
L 1501.009529 157.345021 
L 1501.472707 166.23174 
L 1501.935886 167.015647 
L 1502.399064 182.725009 
L 1502.862242 191.10854 
L 1503.32542 206.166718 
L 1504.251776 240.782168 
L 1504.714955 252.288427 
L 1505.178133 286.378965 
L 1505.641311 269.344083 
L 1506.104489 267.205057 
L 1506.567667 252.049732 
L 1507.030845 214.21393 
L 1507.494024 203.912893 
L 1507.957202 208.670508 
L 1508.883558 163.981989 
L 1509.346736 152.866971 
L 1509.809914 157.136197 
L 1510.273093 172.216573 
L 1510.736271 178.306158 
L 1511.199449 173.2072 
L 1511.662627 160.87121 
L 1512.125805 179.24451 
L 1513.052161 181.123117 
L 1513.978518 158.634085 
L 1514.441696 145.891104 
L 1514.904874 155.776801 
L 1515.368052 156.923299 
L 1515.83123 129.869049 
L 1516.294409 122.831336 
L 1516.757587 130.22329 
L 1517.683943 167.569278 
L 1518.610299 161.411669 
L 1519.073478 180.946743 
L 1519.536656 186.829132 
L 1519.999834 189.3076 
L 1520.463012 175.462044 
L 1520.92619 135.57649 
L 1521.389368 126.600022 
L 1521.852547 121.160672 
L 1522.315725 125.015508 
L 1522.778903 132.91805 
L 1523.242081 132.636382 
L 1523.705259 127.641022 
L 1524.168437 167.651423 
L 1524.631616 172.912226 
L 1525.094794 152.984011 
L 1526.02115 125.892286 
L 1526.484328 114.777268 
L 1526.947506 122.26542 
L 1527.410685 106.362712 
L 1527.873863 103.283907 
L 1528.337041 121.908802 
L 1528.800219 130.403331 
L 1529.263397 128.427101 
L 1529.726575 147.414588 
L 1530.189754 147.591709 
L 1530.652932 144.949494 
L 1531.11611 139.69514 
L 1531.579288 148.692858 
L 1532.042466 166.14118 
L 1532.505644 169.38183 
L 1532.968823 149.290818 
L 1533.432001 135.13447 
L 1533.895179 138.278922 
L 1534.358357 148.12022 
L 1534.821535 125.750061 
L 1535.284713 110.727932 
L 1535.747892 107.767526 
L 1536.21107 119.147988 
L 1536.674248 119.857896 
L 1537.137426 127.220251 
L 1537.600604 132.414456 
L 1538.063782 173.135241 
L 1538.526961 185.240886 
L 1538.990139 188.881127 
L 1539.453317 189.783431 
L 1539.916495 203.280244 
L 1540.379673 190.056274 
L 1540.842851 190.100198 
L 1541.30603 183.780268 
L 1541.769208 191.216622 
L 1542.232386 212.031866 
L 1542.695564 238.552378 
L 1543.158742 248.304878 
L 1543.62192 268.831529 
L 1544.085099 282.609536 
L 1544.548277 286.863962 
L 1545.011455 293.900725 
L 1545.937811 264.100662 
L 1546.400989 269.642659 
L 1546.864168 265.002491 
L 1547.327346 265.801197 
L 1548.253702 239.730649 
L 1548.71688 252.494879 
L 1549.180058 260.856211 
L 1549.643237 261.625318 
L 1550.106415 254.254613 
L 1551.032771 229.960023 
L 1551.495949 223.928687 
L 1552.422306 217.541684 
L 1552.885484 218.073997 
L 1553.348662 212.893641 
L 1553.81184 216.104692 
L 1554.275018 223.171054 
L 1554.738196 219.522463 
L 1555.664553 158.332325 
L 1556.127731 142.807008 
L 1556.590909 140.949176 
L 1556.590909 140.949176 
" clip-path="url(#pce77ae0082)" style="fill: none; stroke: #68ad31; stroke-width: 2.5; stroke-linecap: square"/>
   </g>
   <g id="patch_3">
    <path d="M 225 320.4 
L 225 43.2 
" style="fill: none; stroke: #000000; stroke-width: 0.8; stroke-linejoin: miter; stroke-linecap: square"/>
   </g>
   <g id="patch_4">
    <path d="M 1620 320.4 
L 1620 43.2 
" style="fill: none; stroke: #000000; stroke-width: 0.8; stroke-linejoin: miter; stroke-linecap: square"/>
   </g>
   <g id="patch_5">
    <path d="M 225 320.4 
L 1620 320.4 
" style="fill: none; stroke: #000000; stroke-width: 0.8; stroke-linejoin: miter; stroke-linecap: square"/>
   </g>
   <g id="patch_6">
    <path d="M 225 43.2 
L 1620 43.2 
" style="fill: none; stroke: #000000; stroke-width: 0.8; stroke-linejoin: miter; stroke-linecap: square"/>
   </g>
   <g id="text_16">
    <!-- STBZ -->
    <g transform="translate(896.332813 37.2) scale(0.2 -0.2)">
     <defs>
      <path id="DejaVuSans-53" d="M 3425 4513 
L 3425 3897 
Q 3066 4069 2747 4153 
Q 2428 4238 2131 4238 
Q 1616 4238 1336 4038 
Q 1056 3838 1056 3469 
Q 1056 3159 1242 3001 
Q 1428 2844 1947 2747 
L 2328 2669 
Q 3034 2534 3370 2195 
Q 3706 1856 3706 1288 
Q 3706 609 3251 259 
Q 2797 -91 1919 -91 
Q 1588 -91 1214 -16 
Q 841 59 441 206 
L 441 856 
Q 825 641 1194 531 
Q 1563 422 1919 422 
Q 2459 422 2753 634 
Q 3047 847 3047 1241 
Q 3047 1584 2836 1778 
Q 2625 1972 2144 2069 
L 1759 2144 
Q 1053 2284 737 2584 
Q 422 2884 422 3419 
Q 422 4038 858 4394 
Q 1294 4750 2059 4750 
Q 2388 4750 2728 4690 
Q 3069 4631 3425 4513 
z
" transform="scale(0.015625)"/>
      <path id="DejaVuSans-42" d="M 1259 2228 
L 1259 519 
L 2272 519 
Q 2781 519 3026 730 
Q 3272 941 3272 1375 
Q 3272 1813 3026 2020 
Q 2781 2228 2272 2228 
L 1259 2228 
z
M 1259 4147 
L 1259 2741 
L 2194 2741 
Q 2656 2741 2882 2914 
Q 3109 3088 3109 3444 
Q 3109 3797 2882 3972 
Q 2656 4147 2194 4147 
L 1259 4147 
z
M 628 4666 
L 2241 4666 
Q 2963 4666 3353 4366 
Q 3744 4066 3744 3513 
Q 3744 3084 3544 2831 
Q 3344 2578 2956 2516 
Q 3422 2416 3680 2098 
Q 3938 1781 3938 1306 
Q 3938 681 3513 340 
Q 3088 0 2303 0 
L 628 0 
L 628 4666 
z
" transform="scale(0.015625)"/>
      <path id="DejaVuSans-5a" d="M 359 4666 
L 4025 4666 
L 4025 4184 
L 1075 531 
L 4097 531 
L 4097 0 
L 288 0 
L 288 481 
L 3238 4134 
L 359 4134 
L 359 4666 
z
" transform="scale(0.015625)"/>
     </defs>
     <use xlink:href="#DejaVuSans-53"/>
     <use xlink:href="#DejaVuSans-54" x="63.476562"/>
     <use xlink:href="#DejaVuSans-42" x="124.560547"/>
     <use xlink:href="#DejaVuSans-5a" x="193.164062"/>
    </g>
   </g>
   <g id="legend_1">
    <g id="patch_7">
     <path d="M 1560.273438 65.878125 
L 1613 65.878125 
Q 1615 65.878125 1615 63.878125 
L 1615 50.2 
Q 1615 48.2 1613 48.2 
L 1560.273438 48.2 
Q 1558.273438 48.2 1558.273438 50.2 
L 1558.273438 63.878125 
Q 1558.273438 65.878125 1560.273438 65.878125 
z
" style="fill: #ffffff; opacity: 0.8; stroke: #cccccc; stroke-linejoin: miter"/>
    </g>
    <g id="line2d_15">
     <path d="M 1562.273438 56.298437 
L 1572.273438 56.298437 
L 1582.273438 56.298437 
" style="fill: none; stroke: #68ad31; stroke-width: 2.5; stroke-linecap: square"/>
    </g>
    <g id="text_17">
     <!-- stbz -->
     <g transform="translate(1590.273438 59.798437) scale(0.1 -0.1)">
      <defs>
       <path id="DejaVuSans-62" d="M 3116 1747 
Q 3116 2381 2855 2742 
Q 2594 3103 2138 3103 
Q 1681 3103 1420 2742 
Q 1159 2381 1159 1747 
Q 1159 1113 1420 752 
Q 1681 391 2138 391 
Q 2594 391 2855 752 
Q 3116 1113 3116 1747 
z
M 1159 2969 
Q 1341 3281 1617 3432 
Q 1894 3584 2278 3584 
Q 2916 3584 3314 3078 
Q 3713 2572 3713 1747 
Q 3713 922 3314 415 
Q 2916 -91 2278 -91 
Q 1894 -91 1617 61 
Q 1341 213 1159 525 
L 1159 0 
L 581 0 
L 581 4863 
L 1159 4863 
L 1159 2969 
z
" transform="scale(0.015625)"/>
       <path id="DejaVuSans-7a" d="M 353 3500 
L 3084 3500 
L 3084 2975 
L 922 459 
L 3084 459 
L 3084 0 
L 275 0 
L 275 525 
L 2438 3041 
L 353 3041 
L 353 3500 
z
" transform="scale(0.015625)"/>
      </defs>
      <use xlink:href="#DejaVuSans-73"/>
      <use xlink:href="#DejaVuSans-74" x="52.099609"/>
      <use xlink:href="#DejaVuSans-62" x="91.308594"/>
      <use xlink:href="#DejaVuSans-7a" x="154.785156"/>
     </g>
    </g>
   </g>
  </g>
 </g>
 <defs>
  <clipPath id="pce77ae0082">
   <rect x="225" y="43.2" width="1395" height="277.2"/>
  </clipPath>
 </defs>
</svg>
