<?xml version="1.0" encoding="utf-8" standalone="no"?>
<!DOCTYPE svg PUBLIC "-//W3C//DTD SVG 1.1//EN"
  "http://www.w3.org/Graphics/SVG/1.1/DTD/svg11.dtd">
<svg xmlns:xlink="http://www.w3.org/1999/xlink" width="1800pt" height="360pt" viewBox="0 0 1800 360" xmlns="http://www.w3.org/2000/svg" version="1.1">
 <metadata>
  <rdf:RDF xmlns:dc="http://purl.org/dc/elements/1.1/" xmlns:cc="http://creativecommons.org/ns#" xmlns:rdf="http://www.w3.org/1999/02/22-rdf-syntax-ns#">
   <cc:Work>
    <dc:type rdf:resource="http://purl.org/dc/dcmitype/StillImage"/>
    <dc:date>2024-03-19T10:36:34.193165</dc:date>
    <dc:format>image/svg+xml</dc:format>
    <dc:creator>
     <cc:Agent>
      <dc:title>Matplotlib v3.7.2, https://matplotlib.org/</dc:title>
     </cc:Agent>
    </dc:creator>
   </cc:Work>
  </rdf:RDF>
 </metadata>
 <defs>
  <style type="text/css">*{stroke-linejoin: round; stroke-linecap: butt}</style>
 </defs>
 <g id="figure_1">
  <g id="patch_1">
   <path d="M 0 360 
L 1800 360 
L 1800 0 
L 0 0 
z
" style="fill: #ffffff"/>
  </g>
  <g id="axes_1">
   <g id="patch_2">
    <path d="M 225 320.4 
L 1620 320.4 
L 1620 43.2 
L 225 43.2 
z
" style="fill: #ffffff"/>
   </g>
   <g id="matplotlib.axis_1">
    <g id="xtick_1">
     <g id="line2d_1">
      <defs>
       <path id="me794f91a70" d="M 0 0 
L 0 3.5 
" style="stroke: #000000; stroke-width: 0.8"/>
      </defs>
      <g>
       <use xlink:href="#me794f91a70" x="281.924597" y="320.4" style="stroke: #000000; stroke-width: 0.8"/>
      </g>
     </g>
     <g id="text_1">
      <!-- 2011 -->
      <g transform="translate(262.837097 338.797656) scale(0.15 -0.15)">
       <defs>
        <path id="DejaVuSans-32" d="M 1228 531 
L 3431 531 
L 3431 0 
L 469 0 
L 469 531 
Q 828 903 1448 1529 
Q 2069 2156 2228 2338 
Q 2531 2678 2651 2914 
Q 2772 3150 2772 3378 
Q 2772 3750 2511 3984 
Q 2250 4219 1831 4219 
Q 1534 4219 1204 4116 
Q 875 4013 500 3803 
L 500 4441 
Q 881 4594 1212 4672 
Q 1544 4750 1819 4750 
Q 2544 4750 2975 4387 
Q 3406 4025 3406 3419 
Q 3406 3131 3298 2873 
Q 3191 2616 2906 2266 
Q 2828 2175 2409 1742 
Q 1991 1309 1228 531 
z
" transform="scale(0.015625)"/>
        <path id="DejaVuSans-30" d="M 2034 4250 
Q 1547 4250 1301 3770 
Q 1056 3291 1056 2328 
Q 1056 1369 1301 889 
Q 1547 409 2034 409 
Q 2525 409 2770 889 
Q 3016 1369 3016 2328 
Q 3016 3291 2770 3770 
Q 2525 4250 2034 4250 
z
M 2034 4750 
Q 2819 4750 3233 4129 
Q 3647 3509 3647 2328 
Q 3647 1150 3233 529 
Q 2819 -91 2034 -91 
Q 1250 -91 836 529 
Q 422 1150 422 2328 
Q 422 3509 836 4129 
Q 1250 4750 2034 4750 
z
" transform="scale(0.015625)"/>
        <path id="DejaVuSans-31" d="M 794 531 
L 1825 531 
L 1825 4091 
L 703 3866 
L 703 4441 
L 1819 4666 
L 2450 4666 
L 2450 531 
L 3481 531 
L 3481 0 
L 794 0 
L 794 531 
z
" transform="scale(0.015625)"/>
       </defs>
       <use xlink:href="#DejaVuSans-32"/>
       <use xlink:href="#DejaVuSans-30" x="63.623047"/>
       <use xlink:href="#DejaVuSans-31" x="127.246094"/>
       <use xlink:href="#DejaVuSans-31" x="190.869141"/>
      </g>
     </g>
    </g>
    <g id="xtick_2">
     <g id="line2d_2">
      <g>
       <use xlink:href="#me794f91a70" x="450.984627" y="320.4" style="stroke: #000000; stroke-width: 0.8"/>
      </g>
     </g>
     <g id="text_2">
      <!-- 2012 -->
      <g transform="translate(431.897127 338.797656) scale(0.15 -0.15)">
       <use xlink:href="#DejaVuSans-32"/>
       <use xlink:href="#DejaVuSans-30" x="63.623047"/>
       <use xlink:href="#DejaVuSans-31" x="127.246094"/>
       <use xlink:href="#DejaVuSans-32" x="190.869141"/>
      </g>
     </g>
    </g>
    <g id="xtick_3">
     <g id="line2d_3">
      <g>
       <use xlink:href="#me794f91a70" x="620.507836" y="320.4" style="stroke: #000000; stroke-width: 0.8"/>
      </g>
     </g>
     <g id="text_3">
      <!-- 2013 -->
      <g transform="translate(601.420336 338.797656) scale(0.15 -0.15)">
       <defs>
        <path id="DejaVuSans-33" d="M 2597 2516 
Q 3050 2419 3304 2112 
Q 3559 1806 3559 1356 
Q 3559 666 3084 287 
Q 2609 -91 1734 -91 
Q 1441 -91 1130 -33 
Q 819 25 488 141 
L 488 750 
Q 750 597 1062 519 
Q 1375 441 1716 441 
Q 2309 441 2620 675 
Q 2931 909 2931 1356 
Q 2931 1769 2642 2001 
Q 2353 2234 1838 2234 
L 1294 2234 
L 1294 2753 
L 1863 2753 
Q 2328 2753 2575 2939 
Q 2822 3125 2822 3475 
Q 2822 3834 2567 4026 
Q 2313 4219 1838 4219 
Q 1578 4219 1281 4162 
Q 984 4106 628 3988 
L 628 4550 
Q 988 4650 1302 4700 
Q 1616 4750 1894 4750 
Q 2613 4750 3031 4423 
Q 3450 4097 3450 3541 
Q 3450 3153 3228 2886 
Q 3006 2619 2597 2516 
z
" transform="scale(0.015625)"/>
       </defs>
       <use xlink:href="#DejaVuSans-32"/>
       <use xlink:href="#DejaVuSans-30" x="63.623047"/>
       <use xlink:href="#DejaVuSans-31" x="127.246094"/>
       <use xlink:href="#DejaVuSans-33" x="190.869141"/>
      </g>
     </g>
    </g>
    <g id="xtick_4">
     <g id="line2d_4">
      <g>
       <use xlink:href="#me794f91a70" x="789.567866" y="320.4" style="stroke: #000000; stroke-width: 0.8"/>
      </g>
     </g>
     <g id="text_4">
      <!-- 2014 -->
      <g transform="translate(770.480366 338.797656) scale(0.15 -0.15)">
       <defs>
        <path id="DejaVuSans-34" d="M 2419 4116 
L 825 1625 
L 2419 1625 
L 2419 4116 
z
M 2253 4666 
L 3047 4666 
L 3047 1625 
L 3713 1625 
L 3713 1100 
L 3047 1100 
L 3047 0 
L 2419 0 
L 2419 1100 
L 313 1100 
L 313 1709 
L 2253 4666 
z
" transform="scale(0.015625)"/>
       </defs>
       <use xlink:href="#DejaVuSans-32"/>
       <use xlink:href="#DejaVuSans-30" x="63.623047"/>
       <use xlink:href="#DejaVuSans-31" x="127.246094"/>
       <use xlink:href="#DejaVuSans-34" x="190.869141"/>
      </g>
     </g>
    </g>
    <g id="xtick_5">
     <g id="line2d_5">
      <g>
       <use xlink:href="#me794f91a70" x="958.627897" y="320.4" style="stroke: #000000; stroke-width: 0.8"/>
      </g>
     </g>
     <g id="text_5">
      <!-- 2015 -->
      <g transform="translate(939.540397 338.797656) scale(0.15 -0.15)">
       <defs>
        <path id="DejaVuSans-35" d="M 691 4666 
L 3169 4666 
L 3169 4134 
L 1269 4134 
L 1269 2991 
Q 1406 3038 1543 3061 
Q 1681 3084 1819 3084 
Q 2600 3084 3056 2656 
Q 3513 2228 3513 1497 
Q 3513 744 3044 326 
Q 2575 -91 1722 -91 
Q 1428 -91 1123 -41 
Q 819 9 494 109 
L 494 744 
Q 775 591 1075 516 
Q 1375 441 1709 441 
Q 2250 441 2565 725 
Q 2881 1009 2881 1497 
Q 2881 1984 2565 2268 
Q 2250 2553 1709 2553 
Q 1456 2553 1204 2497 
Q 953 2441 691 2322 
L 691 4666 
z
" transform="scale(0.015625)"/>
       </defs>
       <use xlink:href="#DejaVuSans-32"/>
       <use xlink:href="#DejaVuSans-30" x="63.623047"/>
       <use xlink:href="#DejaVuSans-31" x="127.246094"/>
       <use xlink:href="#DejaVuSans-35" x="190.869141"/>
      </g>
     </g>
    </g>
    <g id="xtick_6">
     <g id="line2d_6">
      <g>
       <use xlink:href="#me794f91a70" x="1127.687927" y="320.4" style="stroke: #000000; stroke-width: 0.8"/>
      </g>
     </g>
     <g id="text_6">
      <!-- 2016 -->
      <g transform="translate(1108.600427 338.797656) scale(0.15 -0.15)">
       <defs>
        <path id="DejaVuSans-36" d="M 2113 2584 
Q 1688 2584 1439 2293 
Q 1191 2003 1191 1497 
Q 1191 994 1439 701 
Q 1688 409 2113 409 
Q 2538 409 2786 701 
Q 3034 994 3034 1497 
Q 3034 2003 2786 2293 
Q 2538 2584 2113 2584 
z
M 3366 4563 
L 3366 3988 
Q 3128 4100 2886 4159 
Q 2644 4219 2406 4219 
Q 1781 4219 1451 3797 
Q 1122 3375 1075 2522 
Q 1259 2794 1537 2939 
Q 1816 3084 2150 3084 
Q 2853 3084 3261 2657 
Q 3669 2231 3669 1497 
Q 3669 778 3244 343 
Q 2819 -91 2113 -91 
Q 1303 -91 875 529 
Q 447 1150 447 2328 
Q 447 3434 972 4092 
Q 1497 4750 2381 4750 
Q 2619 4750 2861 4703 
Q 3103 4656 3366 4563 
z
" transform="scale(0.015625)"/>
       </defs>
       <use xlink:href="#DejaVuSans-32"/>
       <use xlink:href="#DejaVuSans-30" x="63.623047"/>
       <use xlink:href="#DejaVuSans-31" x="127.246094"/>
       <use xlink:href="#DejaVuSans-36" x="190.869141"/>
      </g>
     </g>
    </g>
    <g id="xtick_7">
     <g id="line2d_7">
      <g>
       <use xlink:href="#me794f91a70" x="1297.211136" y="320.4" style="stroke: #000000; stroke-width: 0.8"/>
      </g>
     </g>
     <g id="text_7">
      <!-- 2017 -->
      <g transform="translate(1278.123636 338.797656) scale(0.15 -0.15)">
       <defs>
        <path id="DejaVuSans-37" d="M 525 4666 
L 3525 4666 
L 3525 4397 
L 1831 0 
L 1172 0 
L 2766 4134 
L 525 4134 
L 525 4666 
z
" transform="scale(0.015625)"/>
       </defs>
       <use xlink:href="#DejaVuSans-32"/>
       <use xlink:href="#DejaVuSans-30" x="63.623047"/>
       <use xlink:href="#DejaVuSans-31" x="127.246094"/>
       <use xlink:href="#DejaVuSans-37" x="190.869141"/>
      </g>
     </g>
    </g>
    <g id="xtick_8">
     <g id="line2d_8">
      <g>
       <use xlink:href="#me794f91a70" x="1466.271167" y="320.4" style="stroke: #000000; stroke-width: 0.8"/>
      </g>
     </g>
     <g id="text_8">
      <!-- 2018 -->
      <g transform="translate(1447.183667 338.797656) scale(0.15 -0.15)">
       <defs>
        <path id="DejaVuSans-38" d="M 2034 2216 
Q 1584 2216 1326 1975 
Q 1069 1734 1069 1313 
Q 1069 891 1326 650 
Q 1584 409 2034 409 
Q 2484 409 2743 651 
Q 3003 894 3003 1313 
Q 3003 1734 2745 1975 
Q 2488 2216 2034 2216 
z
M 1403 2484 
Q 997 2584 770 2862 
Q 544 3141 544 3541 
Q 544 4100 942 4425 
Q 1341 4750 2034 4750 
Q 2731 4750 3128 4425 
Q 3525 4100 3525 3541 
Q 3525 3141 3298 2862 
Q 3072 2584 2669 2484 
Q 3125 2378 3379 2068 
Q 3634 1759 3634 1313 
Q 3634 634 3220 271 
Q 2806 -91 2034 -91 
Q 1263 -91 848 271 
Q 434 634 434 1313 
Q 434 1759 690 2068 
Q 947 2378 1403 2484 
z
M 1172 3481 
Q 1172 3119 1398 2916 
Q 1625 2713 2034 2713 
Q 2441 2713 2670 2916 
Q 2900 3119 2900 3481 
Q 2900 3844 2670 4047 
Q 2441 4250 2034 4250 
Q 1625 4250 1398 4047 
Q 1172 3844 1172 3481 
z
" transform="scale(0.015625)"/>
       </defs>
       <use xlink:href="#DejaVuSans-32"/>
       <use xlink:href="#DejaVuSans-30" x="63.623047"/>
       <use xlink:href="#DejaVuSans-31" x="127.246094"/>
       <use xlink:href="#DejaVuSans-38" x="190.869141"/>
      </g>
     </g>
    </g>
    <g id="text_9">
     <!-- Time -->
     <g transform="translate(904.149609 357.314844) scale(0.15 -0.15)">
      <defs>
       <path id="DejaVuSans-54" d="M -19 4666 
L 3928 4666 
L 3928 4134 
L 2272 4134 
L 2272 0 
L 1638 0 
L 1638 4134 
L -19 4134 
L -19 4666 
z
" transform="scale(0.015625)"/>
       <path id="DejaVuSans-69" d="M 603 3500 
L 1178 3500 
L 1178 0 
L 603 0 
L 603 3500 
z
M 603 4863 
L 1178 4863 
L 1178 4134 
L 603 4134 
L 603 4863 
z
" transform="scale(0.015625)"/>
       <path id="DejaVuSans-6d" d="M 3328 2828 
Q 3544 3216 3844 3400 
Q 4144 3584 4550 3584 
Q 5097 3584 5394 3201 
Q 5691 2819 5691 2113 
L 5691 0 
L 5113 0 
L 5113 2094 
Q 5113 2597 4934 2840 
Q 4756 3084 4391 3084 
Q 3944 3084 3684 2787 
Q 3425 2491 3425 1978 
L 3425 0 
L 2847 0 
L 2847 2094 
Q 2847 2600 2669 2842 
Q 2491 3084 2119 3084 
Q 1678 3084 1418 2786 
Q 1159 2488 1159 1978 
L 1159 0 
L 581 0 
L 581 3500 
L 1159 3500 
L 1159 2956 
Q 1356 3278 1631 3431 
Q 1906 3584 2284 3584 
Q 2666 3584 2933 3390 
Q 3200 3197 3328 2828 
z
" transform="scale(0.015625)"/>
       <path id="DejaVuSans-65" d="M 3597 1894 
L 3597 1613 
L 953 1613 
Q 991 1019 1311 708 
Q 1631 397 2203 397 
Q 2534 397 2845 478 
Q 3156 559 3463 722 
L 3463 178 
Q 3153 47 2828 -22 
Q 2503 -91 2169 -91 
Q 1331 -91 842 396 
Q 353 884 353 1716 
Q 353 2575 817 3079 
Q 1281 3584 2069 3584 
Q 2775 3584 3186 3129 
Q 3597 2675 3597 1894 
z
M 3022 2063 
Q 3016 2534 2758 2815 
Q 2500 3097 2075 3097 
Q 1594 3097 1305 2825 
Q 1016 2553 972 2059 
L 3022 2063 
z
" transform="scale(0.015625)"/>
      </defs>
      <use xlink:href="#DejaVuSans-54"/>
      <use xlink:href="#DejaVuSans-69" x="57.958984"/>
      <use xlink:href="#DejaVuSans-6d" x="85.742188"/>
      <use xlink:href="#DejaVuSans-65" x="183.154297"/>
     </g>
    </g>
   </g>
   <g id="matplotlib.axis_2">
    <g id="ytick_1">
     <g id="line2d_9">
      <defs>
       <path id="ma0387252d1" d="M 0 0 
L -3.5 0 
" style="stroke: #000000; stroke-width: 0.8"/>
      </defs>
      <g>
       <use xlink:href="#ma0387252d1" x="225" y="302.960936" style="stroke: #000000; stroke-width: 0.8"/>
      </g>
     </g>
     <g id="text_10">
      <!-- −0.003 -->
      <g transform="translate(162.488281 308.659764) scale(0.15 -0.15)">
       <defs>
        <path id="DejaVuSans-2212" d="M 678 2272 
L 4684 2272 
L 4684 1741 
L 678 1741 
L 678 2272 
z
" transform="scale(0.015625)"/>
        <path id="DejaVuSans-2e" d="M 684 794 
L 1344 794 
L 1344 0 
L 684 0 
L 684 794 
z
" transform="scale(0.015625)"/>
       </defs>
       <use xlink:href="#DejaVuSans-2212"/>
       <use xlink:href="#DejaVuSans-30" x="83.789062"/>
       <use xlink:href="#DejaVuSans-2e" x="147.412109"/>
       <use xlink:href="#DejaVuSans-30" x="179.199219"/>
       <use xlink:href="#DejaVuSans-30" x="242.822266"/>
       <use xlink:href="#DejaVuSans-33" x="306.445312"/>
      </g>
     </g>
    </g>
    <g id="ytick_2">
     <g id="line2d_10">
      <g>
       <use xlink:href="#ma0387252d1" x="225" y="259.715574" style="stroke: #000000; stroke-width: 0.8"/>
      </g>
     </g>
     <g id="text_11">
      <!-- −0.002 -->
      <g transform="translate(162.488281 265.414402) scale(0.15 -0.15)">
       <use xlink:href="#DejaVuSans-2212"/>
       <use xlink:href="#DejaVuSans-30" x="83.789062"/>
       <use xlink:href="#DejaVuSans-2e" x="147.412109"/>
       <use xlink:href="#DejaVuSans-30" x="179.199219"/>
       <use xlink:href="#DejaVuSans-30" x="242.822266"/>
       <use xlink:href="#DejaVuSans-32" x="306.445312"/>
      </g>
     </g>
    </g>
    <g id="ytick_3">
     <g id="line2d_11">
      <g>
       <use xlink:href="#ma0387252d1" x="225" y="216.470212" style="stroke: #000000; stroke-width: 0.8"/>
      </g>
     </g>
     <g id="text_12">
      <!-- −0.001 -->
      <g transform="translate(162.488281 222.16904) scale(0.15 -0.15)">
       <use xlink:href="#DejaVuSans-2212"/>
       <use xlink:href="#DejaVuSans-30" x="83.789062"/>
       <use xlink:href="#DejaVuSans-2e" x="147.412109"/>
       <use xlink:href="#DejaVuSans-30" x="179.199219"/>
       <use xlink:href="#DejaVuSans-30" x="242.822266"/>
       <use xlink:href="#DejaVuSans-31" x="306.445312"/>
      </g>
     </g>
    </g>
    <g id="ytick_4">
     <g id="line2d_12">
      <g>
       <use xlink:href="#ma0387252d1" x="225" y="173.22485" style="stroke: #000000; stroke-width: 0.8"/>
      </g>
     </g>
     <g id="text_13">
      <!-- 0.000 -->
      <g transform="translate(175.057813 178.923678) scale(0.15 -0.15)">
       <use xlink:href="#DejaVuSans-30"/>
       <use xlink:href="#DejaVuSans-2e" x="63.623047"/>
       <use xlink:href="#DejaVuSans-30" x="95.410156"/>
       <use xlink:href="#DejaVuSans-30" x="159.033203"/>
       <use xlink:href="#DejaVuSans-30" x="222.65625"/>
      </g>
     </g>
    </g>
    <g id="ytick_5">
     <g id="line2d_13">
      <g>
       <use xlink:href="#ma0387252d1" x="225" y="129.979488" style="stroke: #000000; stroke-width: 0.8"/>
      </g>
     </g>
     <g id="text_14">
      <!-- 0.001 -->
      <g transform="translate(175.057813 135.678316) scale(0.15 -0.15)">
       <use xlink:href="#DejaVuSans-30"/>
       <use xlink:href="#DejaVuSans-2e" x="63.623047"/>
       <use xlink:href="#DejaVuSans-30" x="95.410156"/>
       <use xlink:href="#DejaVuSans-30" x="159.033203"/>
       <use xlink:href="#DejaVuSans-31" x="222.65625"/>
      </g>
     </g>
    </g>
    <g id="ytick_6">
     <g id="line2d_14">
      <g>
       <use xlink:href="#ma0387252d1" x="225" y="86.734126" style="stroke: #000000; stroke-width: 0.8"/>
      </g>
     </g>
     <g id="text_15">
      <!-- 0.002 -->
      <g transform="translate(175.057813 92.432954) scale(0.15 -0.15)">
       <use xlink:href="#DejaVuSans-30"/>
       <use xlink:href="#DejaVuSans-2e" x="63.623047"/>
       <use xlink:href="#DejaVuSans-30" x="95.410156"/>
       <use xlink:href="#DejaVuSans-30" x="159.033203"/>
       <use xlink:href="#DejaVuSans-32" x="222.65625"/>
      </g>
     </g>
    </g>
    <g id="ytick_7">
     <g id="line2d_15">
      <g>
       <use xlink:href="#ma0387252d1" x="225" y="43.488763" style="stroke: #000000; stroke-width: 0.8"/>
      </g>
     </g>
     <g id="text_16">
      <!-- 0.003 -->
      <g transform="translate(175.057813 49.187592) scale(0.15 -0.15)">
       <use xlink:href="#DejaVuSans-30"/>
       <use xlink:href="#DejaVuSans-2e" x="63.623047"/>
       <use xlink:href="#DejaVuSans-30" x="95.410156"/>
       <use xlink:href="#DejaVuSans-30" x="159.033203"/>
       <use xlink:href="#DejaVuSans-33" x="222.65625"/>
      </g>
     </g>
    </g>
    <g id="text_17">
     <!-- East(m) -->
     <g transform="translate(155.36875 211.140234) rotate(-90) scale(0.15 -0.15)">
      <defs>
       <path id="DejaVuSans-45" d="M 628 4666 
L 3578 4666 
L 3578 4134 
L 1259 4134 
L 1259 2753 
L 3481 2753 
L 3481 2222 
L 1259 2222 
L 1259 531 
L 3634 531 
L 3634 0 
L 628 0 
L 628 4666 
z
" transform="scale(0.015625)"/>
       <path id="DejaVuSans-61" d="M 2194 1759 
Q 1497 1759 1228 1600 
Q 959 1441 959 1056 
Q 959 750 1161 570 
Q 1363 391 1709 391 
Q 2188 391 2477 730 
Q 2766 1069 2766 1631 
L 2766 1759 
L 2194 1759 
z
M 3341 1997 
L 3341 0 
L 2766 0 
L 2766 531 
Q 2569 213 2275 61 
Q 1981 -91 1556 -91 
Q 1019 -91 701 211 
Q 384 513 384 1019 
Q 384 1609 779 1909 
Q 1175 2209 1959 2209 
L 2766 2209 
L 2766 2266 
Q 2766 2663 2505 2880 
Q 2244 3097 1772 3097 
Q 1472 3097 1187 3025 
Q 903 2953 641 2809 
L 641 3341 
Q 956 3463 1253 3523 
Q 1550 3584 1831 3584 
Q 2591 3584 2966 3190 
Q 3341 2797 3341 1997 
z
" transform="scale(0.015625)"/>
       <path id="DejaVuSans-73" d="M 2834 3397 
L 2834 2853 
Q 2591 2978 2328 3040 
Q 2066 3103 1784 3103 
Q 1356 3103 1142 2972 
Q 928 2841 928 2578 
Q 928 2378 1081 2264 
Q 1234 2150 1697 2047 
L 1894 2003 
Q 2506 1872 2764 1633 
Q 3022 1394 3022 966 
Q 3022 478 2636 193 
Q 2250 -91 1575 -91 
Q 1294 -91 989 -36 
Q 684 19 347 128 
L 347 722 
Q 666 556 975 473 
Q 1284 391 1588 391 
Q 1994 391 2212 530 
Q 2431 669 2431 922 
Q 2431 1156 2273 1281 
Q 2116 1406 1581 1522 
L 1381 1569 
Q 847 1681 609 1914 
Q 372 2147 372 2553 
Q 372 3047 722 3315 
Q 1072 3584 1716 3584 
Q 2034 3584 2315 3537 
Q 2597 3491 2834 3397 
z
" transform="scale(0.015625)"/>
       <path id="DejaVuSans-74" d="M 1172 4494 
L 1172 3500 
L 2356 3500 
L 2356 3053 
L 1172 3053 
L 1172 1153 
Q 1172 725 1289 603 
Q 1406 481 1766 481 
L 2356 481 
L 2356 0 
L 1766 0 
Q 1100 0 847 248 
Q 594 497 594 1153 
L 594 3053 
L 172 3053 
L 172 3500 
L 594 3500 
L 594 4494 
L 1172 4494 
z
" transform="scale(0.015625)"/>
       <path id="DejaVuSans-28" d="M 1984 4856 
Q 1566 4138 1362 3434 
Q 1159 2731 1159 2009 
Q 1159 1288 1364 580 
Q 1569 -128 1984 -844 
L 1484 -844 
Q 1016 -109 783 600 
Q 550 1309 550 2009 
Q 550 2706 781 3412 
Q 1013 4119 1484 4856 
L 1984 4856 
z
" transform="scale(0.015625)"/>
       <path id="DejaVuSans-29" d="M 513 4856 
L 1013 4856 
Q 1481 4119 1714 3412 
Q 1947 2706 1947 2009 
Q 1947 1309 1714 600 
Q 1481 -109 1013 -844 
L 513 -844 
Q 928 -128 1133 580 
Q 1338 1288 1338 2009 
Q 1338 2731 1133 3434 
Q 928 4138 513 4856 
z
" transform="scale(0.015625)"/>
      </defs>
      <use xlink:href="#DejaVuSans-45"/>
      <use xlink:href="#DejaVuSans-61" x="63.183594"/>
      <use xlink:href="#DejaVuSans-73" x="124.462891"/>
      <use xlink:href="#DejaVuSans-74" x="176.5625"/>
      <use xlink:href="#DejaVuSans-28" x="215.771484"/>
      <use xlink:href="#DejaVuSans-6d" x="254.785156"/>
      <use xlink:href="#DejaVuSans-29" x="352.197266"/>
     </g>
    </g>
   </g>
   <g id="line2d_16">
    <path d="M 288.409091 121.556635 
L 288.872269 116.91975 
L 289.335447 139.123819 
L 289.798625 143.128799 
L 290.261804 140.148211 
L 290.724982 147.102525 
L 291.18816 152.233943 
L 291.651338 155.124475 
L 292.114516 157.242769 
L 292.577694 146.171227 
L 293.040873 144.768112 
L 293.504051 145.335751 
L 293.967229 141.214356 
L 294.430407 139.780352 
L 294.893585 146.525899 
L 295.819942 163.631071 
L 296.28312 168.374975 
L 296.746298 170.091705 
L 297.209476 173.667985 
L 297.672654 175.520628 
L 298.135832 164.430553 
L 298.599011 161.421182 
L 299.062189 159.18405 
L 299.525367 162.550281 
L 299.988545 167.349787 
L 300.914901 158.347115 
L 301.37808 164.437804 
L 301.841258 166.086576 
L 302.304436 181.215546 
L 302.767614 185.965629 
L 303.230792 185.427421 
L 303.69397 186.507826 
L 304.157149 188.175133 
L 304.620327 190.472585 
L 306.009861 157.381518 
L 306.936218 144.227291 
L 307.399396 131.821321 
L 307.862574 122.535195 
L 308.325752 125.09212 
L 308.78893 119.284156 
L 309.252108 116.608393 
L 309.715287 115.940449 
L 310.641643 147.16832 
L 311.567999 179.291988 
L 312.494356 188.372056 
L 312.957534 198.132422 
L 313.420712 200.627568 
L 313.88389 196.537063 
L 314.347068 186.837017 
L 314.810246 184.124186 
L 315.736603 173.966245 
L 316.199781 166.063971 
L 316.662959 149.697961 
L 317.126137 146.57121 
L 317.589315 146.088604 
L 318.052494 143.573466 
L 318.515672 142.244486 
L 318.97885 146.864833 
L 319.442028 146.190711 
L 320.368384 168.806577 
L 320.831563 166.618868 
L 321.757919 182.043648 
L 322.684275 169.111827 
L 323.147453 157.441028 
L 323.610632 138.585321 
L 324.07381 128.811139 
L 324.536988 116.398991 
L 325.000166 115.298594 
L 325.463344 124.533839 
L 326.852879 171.106906 
L 327.316057 192.691791 
L 328.242413 212.817959 
L 328.705591 213.774806 
L 329.16877 212.810323 
L 329.631948 215.354892 
L 330.095126 215.990488 
L 331.021482 201.68717 
L 331.947839 179.439062 
L 332.411017 178.338665 
L 333.800551 133.620773 
L 334.263729 129.876231 
L 334.726907 130.493292 
L 335.190086 138.30144 
L 335.653264 142.137192 
L 336.116442 152.892202 
L 336.57962 157.15423 
L 337.042798 155.775827 
L 337.505976 151.944795 
L 338.432333 133.360186 
L 338.895511 120.503229 
L 339.358689 103.241422 
L 339.821867 103.895551 
L 340.748224 95.702186 
L 341.211402 102.806052 
L 341.67458 99.56192 
L 342.137758 102.291827 
L 342.600936 118.180679 
L 343.064114 112.502452 
L 343.990471 128.353508 
L 344.453649 123.879972 
L 344.916827 128.413828 
L 345.380005 126.880978 
L 345.843183 117.502183 
L 346.306362 125.959011 
L 346.76954 122.498653 
L 347.232718 111.550669 
L 347.695896 111.963859 
L 348.159074 114.41576 
L 349.085431 130.483043 
L 349.548609 123.451853 
L 350.011787 123.815621 
L 350.938143 142.70003 
L 351.401321 149.11197 
L 351.8645 147.041641 
L 352.327678 154.664451 
L 353.254034 178.386163 
L 353.717212 193.175348 
L 354.18039 201.131765 
L 354.643569 205.894204 
L 355.569925 199.300916 
L 356.033103 195.198056 
L 356.496281 183.076269 
L 356.959459 178.262949 
L 357.422638 177.854478 
L 357.885816 176.117756 
L 358.348994 173.726176 
L 358.812172 169.623316 
L 359.27535 168.053398 
L 359.738528 162.826157 
L 360.201707 153.478252 
L 360.664885 151.457347 
L 361.128063 148.231749 
L 362.054419 158.683312 
L 362.517597 161.190814 
L 362.980776 180.360136 
L 363.443954 187.612272 
L 363.907132 185.560477 
L 364.37031 199.799828 
L 364.833488 204.871162 
L 365.296666 206.186327 
L 365.759845 201.45332 
L 366.223023 206.88915 
L 366.686201 200.463396 
L 367.149379 198.973791 
L 367.612557 178.104085 
L 368.075735 179.45014 
L 368.538914 167.686672 
L 369.002092 175.562777 
L 369.928448 154.296956 
L 370.391626 146.827135 
L 370.854804 150.996494 
L 371.317983 149.099147 
L 371.781161 166.717814 
L 372.244339 159.353018 
L 372.707517 163.540911 
L 373.170695 177.446654 
L 373.633873 182.771282 
L 374.097052 196.874719 
L 374.56023 200.994655 
L 375.023408 200.487337 
L 375.949764 215.658823 
L 376.412942 217.239639 
L 376.876121 224.250836 
L 377.339299 218.498474 
L 377.802477 214.519171 
L 379.192011 210.884373 
L 379.65519 206.071053 
L 380.581546 198.415165 
L 381.044724 193.533888 
L 381.507902 194.157128 
L 381.97108 191.963241 
L 382.434259 187.217878 
L 382.897437 193.228254 
L 383.360615 178.740328 
L 384.286971 204.296879 
L 384.750149 207.032963 
L 385.213328 200.298313 
L 385.676506 200.470565 
L 386.139684 189.491692 
L 386.602862 202.007406 
L 387.06604 194.012463 
L 387.529218 180.871322 
L 387.992397 178.541521 
L 388.455575 181.802728 
L 388.918753 177.817247 
L 389.381931 193.335425 
L 389.845109 192.883708 
L 390.308287 180.724855 
L 390.771466 196.292456 
L 391.234644 190.336222 
L 391.697822 180.191367 
L 392.161 187.993336 
L 393.087356 180.683412 
L 393.550535 173.460707 
L 394.476891 151.743899 
L 394.940069 160.410776 
L 395.866425 125.281728 
L 396.329604 128.617069 
L 396.792782 139.365901 
L 397.25596 139.099522 
L 397.719138 150.855353 
L 398.182316 153.097205 
L 398.645494 160.664414 
L 399.108673 160.824311 
L 399.571851 158.945497 
L 400.035029 153.736791 
L 400.498207 152.142161 
L 400.961385 158.442899 
L 401.424563 159.640684 
L 402.35092 190.534948 
L 402.814098 189.131833 
L 403.277276 196.464282 
L 403.740454 191.119662 
L 404.203632 173.709585 
L 404.666811 183.945651 
L 405.593167 161.370114 
L 406.056345 156.482658 
L 406.519523 154.974519 
L 407.44588 175.106866 
L 407.909058 162.521736 
L 408.372236 168.766873 
L 408.835414 181.06636 
L 409.298592 188.63357 
L 409.76177 190.300876 
L 410.224949 189.540264 
L 410.688127 178.827041 
L 411.151305 180.358433 
L 411.614483 177.645602 
L 412.077661 161.6688 
L 412.540839 154.470807 
L 413.004018 151.195786 
L 413.467196 151.596621 
L 413.930374 162.666704 
L 414.393552 164.834421 
L 414.85673 154.195333 
L 415.783087 165.042282 
L 416.246265 164.516431 
L 416.709443 156.966297 
L 417.172621 151.776124 
L 417.635799 151.182316 
L 418.098977 149.124343 
L 418.562156 148.110437 
L 419.025334 138.385679 
L 419.488512 123.440588 
L 419.95169 116.032546 
L 420.878046 98.038995 
L 421.341225 85.037193 
L 421.804403 80.702998 
L 422.267581 74.614277 
L 422.730759 73.047785 
L 423.193937 77.047589 
L 423.657115 77.322114 
L 424.120294 85.45769 
L 424.583472 83.035221 
L 425.04665 86.858617 
L 425.509828 87.976089 
L 425.973006 94.47452 
L 426.436184 91.743155 
L 426.899363 93.317793 
L 427.362541 103.090516 
L 427.825719 109.249162 
L 428.288897 112.355921 
L 429.215253 107.10324 
L 429.678432 117.228103 
L 430.14161 113.174666 
L 430.604788 107.990671 
L 431.067966 114.655905 
L 431.531144 118.096271 
L 431.994322 124.712082 
L 432.4575 119.447775 
L 432.920679 125.773224 
L 433.383857 127.650579 
L 434.310213 111.382687 
L 434.773391 108.713101 
L 435.236569 101.298881 
L 435.699748 104.52302 
L 436.162926 89.645887 
L 436.626104 90.645979 
L 437.089282 97.027029 
L 437.55246 106.917132 
L 438.015638 106.280078 
L 438.478817 104.753406 
L 438.941995 109.404642 
L 439.405173 109.73752 
L 440.331529 95.675141 
L 440.794707 76.034839 
L 441.257886 66.223591 
L 441.721064 64.517759 
L 442.184242 55.8 
L 442.64742 61.303788 
L 443.110598 61.47604 
L 443.573776 62.463776 
L 444.036955 65.19986 
L 444.500133 75.769533 
L 444.963311 76.689313 
L 445.426489 79.011477 
L 445.889667 72.196514 
L 446.352845 81.067262 
L 446.816024 84.402604 
L 447.279202 93.489579 
L 447.74238 87.354186 
L 448.205558 87.217543 
L 448.668736 90.03394 
L 449.131914 101.635324 
L 450.521449 120.797009 
L 450.984627 125.794208 
L 451.447805 126.120908 
L 451.910983 129.406827 
L 452.374162 137.060526 
L 452.83734 136.781791 
L 453.300518 136.015001 
L 453.763696 134.389482 
L 454.226874 130.280444 
L 454.690052 137.168083 
L 455.153231 135.468429 
L 455.616409 134.880798 
L 456.079587 137.894888 
L 457.005943 152.417694 
L 457.469121 167.11421 
L 457.9323 174.70613 
L 458.395478 174.069077 
L 458.858656 156.418062 
L 459.321834 148.985308 
L 459.785012 152.833416 
L 460.24819 145.567466 
L 460.711369 136.194849 
L 461.174547 133.766202 
L 461.637725 137.323948 
L 462.100903 143.797667 
L 462.564081 136.593496 
L 463.027259 127.07261 
L 463.490438 123.420736 
L 463.953616 130.258952 
L 464.416794 127.033354 
L 464.879972 126.056516 
L 465.34315 131.560303 
L 465.806328 135.575215 
L 466.269507 131.497066 
L 466.732685 138.143766 
L 467.195863 135.196175 
L 467.659041 136.270402 
L 468.122219 141.459116 
L 468.585397 138.974867 
L 469.511754 151.26127 
L 469.974932 154.720169 
L 470.901288 165.517696 
L 471.364466 171.663986 
L 471.827645 179.552446 
L 472.754001 185.00681 
L 473.217179 185.957479 
L 473.680357 182.5589 
L 474.143535 169.986126 
L 474.606714 163.276188 
L 475.069892 153.230179 
L 475.53307 149.522705 
L 475.996248 153.444947 
L 476.459426 158.930201 
L 476.922604 157.835982 
L 477.385783 166.533749 
L 477.848961 173.069247 
L 478.312139 187.15415 
L 478.775317 185.046754 
L 479.238495 181.289856 
L 479.701673 180.560134 
L 480.164852 179.608007 
L 480.62803 185.24153 
L 481.091208 181.632902 
L 481.554386 171.055593 
L 482.480742 171.215489 
L 482.943921 160.897652 
L 483.407099 162.095437 
L 483.870277 170.261904 
L 484.796633 174.504669 
L 485.259811 183.418662 
L 485.72299 185.734649 
L 486.186168 188.779629 
L 486.649346 187.673054 
L 487.575702 176.712714 
L 488.03888 158.511865 
L 488.502059 149.930021 
L 488.965237 135.639788 
L 489.428415 126.35984 
L 489.891593 126.742141 
L 490.354771 125.382272 
L 490.817949 131.26909 
L 492.670662 175.104614 
L 493.13384 181.016144 
L 493.597018 179.248533 
L 494.523375 169.028813 
L 494.986553 160.311054 
L 495.449731 134.523734 
L 495.912909 120.233501 
L 496.376087 123.229058 
L 496.839266 117.662033 
L 497.765622 120.534031 
L 498.2288 123.10949 
L 498.691978 130.225712 
L 499.618335 173.537572 
L 500.081513 162.781104 
L 500.544691 156.744558 
L 501.471047 148.501769 
L 501.934225 135.428584 
L 502.397404 130.392859 
L 502.860582 107.966321 
L 503.32376 109.145572 
L 503.786938 105.709926 
L 504.713294 109.433746 
L 505.176473 113.596928 
L 505.639651 107.986657 
L 506.102829 115.95543 
L 506.566007 102.740154 
L 507.029185 108.639328 
L 507.492363 106.278638 
L 507.955542 107.655582 
L 508.41872 104.800659 
L 508.881898 107.116646 
L 509.345076 104.403814 
L 510.271432 123.553873 
L 511.197789 124.670616 
L 512.124145 132.416985 
L 512.587323 134.467321 
L 513.050501 135.689818 
L 513.51368 151.183284 
L 513.976858 145.949866 
L 514.440036 156.142687 
L 514.903214 152.218986 
L 515.366392 159.366097 
L 515.82957 162.596414 
L 516.292749 183.11252 
L 516.755927 174.067332 
L 517.219105 179.472273 
L 517.682283 176.679129 
L 518.145461 196.385929 
L 519.071818 205.991119 
L 519.534996 200.176978 
L 519.998174 203.549387 
L 520.461352 196.221658 
L 520.92453 195.955278 
L 521.850887 164.792448 
L 522.314065 158.737368 
L 522.777243 162.949972 
L 523.240421 162.800973 
L 523.703599 175.736785 
L 524.629956 193.336189 
L 525.093134 209.132373 
L 525.556312 216.749005 
L 526.482668 200.790008 
L 526.945846 191.405036 
L 527.409025 186.344599 
L 527.872203 194.937341 
L 528.335381 190.680033 
L 528.798559 189.085403 
L 529.261737 193.421566 
L 529.724915 204.744944 
L 530.188093 205.238447 
L 530.651272 199.869115 
L 531.11445 174.996125 
L 531.577628 168.199696 
L 532.040806 167.593531 
L 532.503984 157.399253 
L 532.967162 165.195044 
L 533.430341 180.416683 
L 533.893519 188.552259 
L 534.356697 206.924631 
L 534.819875 208.493091 
L 535.283053 214.410798 
L 535.746231 212.822346 
L 536.20941 210.474012 
L 536.672588 203.21424 
L 537.135766 215.921469 
L 537.598944 214.493643 
L 538.062122 211.626364 
L 538.5253 220.583603 
L 538.988479 225.803206 
L 539.451657 226.871255 
L 539.914835 221.508101 
L 540.378013 212.926257 
L 540.841191 212.048264 
L 541.304369 227.584976 
L 541.767548 229.085479 
L 542.693904 239.541197 
L 543.157082 248.230034 
L 543.62026 254.589799 
L 544.083438 251.47883 
L 544.546617 256.028468 
L 545.009795 253.714449 
L 545.472973 254.001329 
L 545.936151 267.882361 
L 546.399329 258.750683 
L 547.325686 281.397438 
L 547.788864 288.112096 
L 548.252042 287.172325 
L 548.71522 283.705789 
L 549.178398 276.266857 
L 549.641576 276.414398 
L 550.567933 247.036983 
L 551.031111 247.944406 
L 551.494289 233.419413 
L 552.420645 192.149523 
L 552.883824 179.020738 
L 553.347002 186.266696 
L 553.81018 188.032848 
L 554.273358 177.109576 
L 554.736536 182.576296 
L 556.126071 206.952137 
L 556.589249 218.658545 
L 557.052427 213.38806 
L 558.441962 224.1169 
L 558.90514 243.539516 
L 559.368318 243.668523 
L 559.831496 217.875024 
L 560.294674 231.2124 
L 560.757852 216.063438 
L 561.221031 227.053209 
L 561.684209 231.475863 
L 562.147387 211.013899 
L 562.610565 208.579074 
L 563.073743 208.250916 
L 563.536921 199.965611 
L 564.0001 225.93681 
L 564.463278 228.969434 
L 564.926456 221.987668 
L 565.389634 226.00258 
L 565.852812 226.737022 
L 566.31599 237.016333 
L 566.779169 239.085203 
L 567.242347 226.141755 
L 567.705525 217.776137 
L 568.168703 217.447978 
L 568.631881 222.383398 
L 569.095059 229.153657 
L 569.558238 230.956878 
L 570.021416 227.823948 
L 570.484594 225.976025 
L 570.947772 225.567553 
L 571.41095 224.084126 
L 571.874128 212.740756 
L 572.337307 211.498267 
L 572.800485 202.582815 
L 573.263663 199.332506 
L 573.726841 197.886146 
L 574.190019 199.97355 
L 574.653197 207.608716 
L 575.116376 206.71219 
L 575.579554 201.466417 
L 576.50591 204.912961 
L 576.969088 202.224841 
L 577.432266 193.797444 
L 578.358623 169.288221 
L 578.821801 167.131402 
L 579.284979 156.640583 
L 579.748157 152.784839 
L 580.211335 150.251167 
L 580.674514 143.757456 
L 581.60087 169.307828 
L 582.064048 175.793903 
L 582.527226 184.837633 
L 582.990404 184.219113 
L 583.453583 190.526028 
L 583.916761 199.520334 
L 584.379939 173.337627 
L 585.306295 145.103125 
L 585.769473 140.611057 
L 586.69583 122.106761 
L 587.159008 118.362219 
L 588.548542 164.675814 
L 589.011721 168.536278 
L 589.474899 177.203155 
L 590.401255 200.467701 
L 590.864433 202.548927 
L 591.327611 190.377718 
L 591.79079 187.362169 
L 592.253968 180.442182 
L 593.643502 174.041139 
L 594.569859 167.241958 
L 595.496215 153.705376 
L 595.959393 157.000898 
L 596.885749 148.134814 
L 597.812106 157.446891 
L 598.275284 155.067667 
L 598.738462 157.890242 
L 599.664818 147.318381 
L 600.127997 149.961797 
L 600.591175 146.297568 
L 601.054353 134.632947 
L 601.517531 126.199372 
L 601.980709 115.331701 
L 602.443887 120.773709 
L 602.907066 121.724378 
L 603.370244 128.198097 
L 603.833422 128.042921 
L 604.2966 117.694194 
L 604.759778 121.301364 
L 605.222956 129.504897 
L 605.686135 128.423034 
L 606.612491 132.671977 
L 607.075669 147.813302 
L 607.538847 176.237132 
L 608.002025 181.376423 
L 608.465204 172.491861 
L 608.928382 168.456957 
L 609.39156 158.868113 
L 612.170629 144.37401 
L 613.096985 92.385448 
L 613.560163 81.394219 
L 614.023342 82.449912 
L 614.48652 77.648948 
L 614.949698 78.574905 
L 615.412876 81.42837 
L 615.876054 90.774817 
L 616.339232 89.946248 
L 616.802411 92.935626 
L 617.265589 89.845943 
L 617.728767 88.727012 
L 618.655123 104.318595 
L 619.118301 105.405178 
L 619.58148 109.327421 
L 620.044658 105.626124 
L 620.507836 115.528583 
L 620.971014 113.804217 
L 621.434192 115.15645 
L 621.89737 121.438654 
L 623.286905 164.020793 
L 623.750083 163.229291 
L 624.676439 179.389242 
L 625.139618 172.833752 
L 625.602796 158.030753 
L 626.065974 156.893288 
L 626.529152 161.359187 
L 626.99233 156.119591 
L 627.455508 176.030262 
L 627.918686 173.848731 
L 628.381865 176.059693 
L 628.845043 187.271869 
L 629.771399 184.601554 
L 630.234577 197.080201 
L 630.697755 187.874387 
L 631.160934 186.736923 
L 631.624112 183.715196 
L 632.08729 183.263479 
L 632.550468 180.606249 
L 633.013646 185.276019 
L 633.476824 182.995642 
L 633.940003 184.718549 
L 634.403181 183.154809 
L 634.866359 198.154042 
L 635.329537 206.579981 
L 635.792715 219.837044 
L 636.255893 209.519207 
L 636.719072 211.359495 
L 637.18225 210.469147 
L 637.645428 211.444527 
L 638.571784 186.79939 
L 639.034962 166.53512 
L 639.498141 161.740333 
L 640.424497 139.83201 
L 640.887675 136.278983 
L 641.350853 128.308752 
L 641.814031 130.970701 
L 642.27721 145.006181 
L 642.740388 152.888463 
L 643.203566 163.513737 
L 643.666744 165.465227 
L 644.129922 163.654371 
L 644.5931 177.30682 
L 645.056279 183.459288 
L 645.519457 180.684678 
L 645.982635 180.609814 
L 646.445813 181.171274 
L 646.908991 186.421768 
L 647.372169 183.103501 
L 647.835348 174.268362 
L 648.298526 175.836822 
L 648.761704 169.034215 
L 649.224882 168.984063 
L 649.68806 158.363508 
L 650.151238 133.725278 
L 650.614417 134.317628 
L 651.077595 130.770779 
L 652.003951 120.674618 
L 652.467129 107.28636 
L 652.930307 106.031515 
L 653.393486 120.666252 
L 653.856664 124.106618 
L 654.319842 118.854667 
L 654.78302 109.692099 
L 655.246198 113.978838 
L 656.172555 98.001307 
L 656.635733 101.886483 
L 657.098911 88.214041 
L 657.562089 87.780858 
L 658.025267 100.420131 
L 658.488445 98.65252 
L 658.951624 136.7942 
L 659.414802 159.379905 
L 659.87798 157.556693 
L 660.804336 189.884232 
L 661.267514 183.878575 
L 661.730693 187.102714 
L 662.193871 160.296039 
L 662.657049 151.800685 
L 663.120227 152.43628 
L 663.583405 156.284388 
L 664.046583 147.955838 
L 664.509762 146.398275 
L 664.97294 144.000518 
L 665.436118 144.561978 
L 665.899296 138.074445 
L 666.362474 137.011115 
L 666.825652 135.268215 
L 667.288831 128.718903 
L 667.752009 120.099991 
L 668.215187 116.250424 
L 668.678365 108.823849 
L 669.141543 120.029846 
L 669.604721 122.654728 
L 670.0679 114.208798 
L 670.531078 120.558959 
L 670.994256 138.381497 
L 671.457434 148.191287 
L 671.920612 166.199162 
L 672.38379 170.776263 
L 673.310147 172.962514 
L 673.773325 181.62939 
L 674.236503 195.751361 
L 674.699681 177.352819 
L 675.162859 180.743762 
L 675.626038 188.477775 
L 676.089216 194.142188 
L 676.552394 203.284764 
L 677.015572 198.811228 
L 677.47875 201.874742 
L 677.941928 216.317964 
L 678.405107 223.743081 
L 678.868285 215.093279 
L 679.794641 179.90863 
L 680.257819 178.097773 
L 680.720997 159.22971 
L 681.647354 169.212482 
L 682.110532 158.635173 
L 682.57371 152.994013 
L 683.036888 152.350781 
L 683.500066 163.309662 
L 683.963245 164.112061 
L 684.426423 167.027305 
L 684.889601 146.380004 
L 685.352779 151.371025 
L 685.815957 160.90281 
L 686.279135 176.538368 
L 686.742314 178.421901 
L 687.205492 189.152199 
L 687.66867 195.576495 
L 688.131848 204.385464 
L 688.595026 209.697736 
L 689.058204 198.743575 
L 689.521383 198.96525 
L 690.447739 187.219587 
L 690.910917 191.487793 
L 691.374095 190.78896 
L 691.837273 192.777517 
L 692.300452 206.918022 
L 692.76363 214.892973 
L 693.226808 219.976663 
L 693.689986 215.527839 
L 694.153164 220.432369 
L 694.616342 222.000829 
L 695.079521 210.675993 
L 695.542699 212.899311 
L 696.469055 195.457616 
L 696.932233 206.286761 
L 697.395411 206.384878 
L 697.85859 220.012616 
L 698.321768 244.377559 
L 698.784946 231.106682 
L 699.248124 229.264936 
L 699.711302 236.356446 
L 700.17448 231.543126 
L 700.637659 232.969493 
L 701.100837 224.375293 
L 701.564015 221.989891 
L 702.027193 241.962341 
L 702.490371 253.038602 
L 702.953549 254.798577 
L 703.416728 258.788777 
L 703.879906 264.447012 
L 704.343084 272.187203 
L 704.806262 262.227685 
L 705.26944 258.532566 
L 705.732618 256.289256 
L 706.195797 269.669877 
L 706.658975 276.359823 
L 707.585331 279.587389 
L 708.048509 287.961152 
L 708.511687 293.591924 
L 708.974866 275.709574 
L 709.438044 274.878254 
L 709.901222 277.370648 
L 710.3644 283.847793 
L 710.827578 269.118929 
L 711.290756 267.752882 
L 712.217113 271.802109 
L 712.680291 297.461662 
L 713.143469 307.8 
L 713.606647 299.913507 
L 714.069825 289.951237 
L 714.533004 296.829946 
L 715.45936 271.391285 
L 715.922538 256.155833 
L 716.385716 254.592093 
L 716.848894 254.80759 
L 717.312073 263.184106 
L 717.775251 264.931725 
L 718.701607 270.630453 
L 719.164785 261.706072 
L 719.627963 261.813793 
L 720.091142 257.108923 
L 720.55432 261.48558 
L 721.017498 255.477171 
L 721.480676 255.251286 
L 721.943854 248.924378 
L 722.407032 263.262575 
L 722.870211 270.681514 
L 723.333389 268.018106 
L 723.796567 258.781403 
L 724.259745 255.067751 
L 724.722923 258.810834 
L 725.186101 254.65855 
L 726.575636 229.901482 
L 727.038814 235.504116 
L 727.501992 238.660298 
L 727.96517 223.56076 
L 728.428348 226.303022 
L 728.891527 238.312148 
L 729.354705 238.830363 
L 729.817883 246.725001 
L 730.281061 240.947927 
L 730.744239 239.143249 
L 731.207417 227.361247 
L 731.670596 227.755904 
L 732.133774 221.231303 
L 732.596952 226.061699 
L 733.06013 216.231916 
L 733.523308 203.523229 
L 733.986486 197.919136 
L 734.449665 209.625544 
L 734.912843 202.25457 
L 735.376021 189.193741 
L 735.839199 179.919971 
L 736.765555 155.324257 
L 737.228734 150.016704 
L 737.691912 153.852456 
L 738.618268 155.827929 
L 739.081446 147.944188 
L 739.544624 151.786118 
L 740.007803 162.355791 
L 740.470981 163.182901 
L 741.397337 170.038922 
L 741.860515 172.805896 
L 742.323693 178.247904 
L 742.786872 181.212571 
L 743.713228 217.426015 
L 744.176406 204.772928 
L 744.639584 208.318319 
L 745.102762 204.845605 
L 746.029119 195.039805 
L 746.492297 182.658546 
L 746.955475 160.367922 
L 747.418653 155.616381 
L 748.34501 132.663991 
L 748.808188 133.577592 
L 749.271366 145.104841 
L 749.734544 129.832321 
L 750.197722 134.730673 
L 751.124079 126.444639 
L 752.050435 133.720757 
L 752.513613 123.507945 
L 753.439969 143.893586 
L 753.903148 146.74705 
L 754.366326 157.909802 
L 754.829504 162.128585 
L 755.292682 154.800856 
L 755.75586 150.957467 
L 756.219038 150.178322 
L 756.682217 139.026467 
L 757.145395 152.079659 
L 757.608573 143.819066 
L 758.071751 147.037027 
L 758.534929 156.766504 
L 759.461286 156.931849 
L 759.924464 163.905979 
L 760.387642 164.05352 
L 760.85082 165.288372 
L 761.313998 165.374134 
L 761.777176 164.842105 
L 762.240355 165.286185 
L 762.703533 167.231497 
L 763.629889 149.264679 
L 764.093067 154.125964 
L 764.556245 146.143377 
L 765.019424 133.094904 
L 765.482602 140.192592 
L 765.94578 143.089302 
L 766.408958 156.754108 
L 766.872136 161.275608 
L 768.261671 182.296844 
L 768.724849 182.493808 
L 769.188027 173.18297 
L 769.651205 153.264662 
L 770.114383 157.644071 
L 770.577562 147.777221 
L 771.04074 155.387675 
L 771.503918 169.392266 
L 771.967096 169.317402 
L 772.430274 186.707486 
L 772.893452 198.352115 
L 773.356631 197.708883 
L 773.819809 210.694118 
L 774.282987 209.680212 
L 774.746165 214.91835 
L 775.209343 221.497093 
L 775.672521 215.213431 
L 776.598878 229.476764 
L 777.062056 230.686905 
L 777.525234 231.402813 
L 777.988412 224.408691 
L 778.45159 224.982507 
L 778.914769 224.116871 
L 779.377947 225.172564 
L 779.841125 214.675568 
L 780.304303 211.913313 
L 780.767481 213.735067 
L 781.230659 205.647455 
L 781.693838 190.319334 
L 782.157016 192.456161 
L 782.620194 185.733867 
L 783.083372 174.952687 
L 783.54655 169.676024 
L 784.009728 166.660475 
L 784.472907 170.255289 
L 784.936085 181.275949 
L 785.399263 186.242258 
L 785.862441 182.188821 
L 786.325619 185.363537 
L 786.788797 181.643707 
L 787.251976 180.771892 
L 787.715154 177.966392 
L 788.178332 178.503141 
L 788.64151 181.603722 
L 789.104688 178.242211 
L 790.031045 168.226362 
L 790.494223 151.075758 
L 790.957401 147.825448 
L 791.420579 146.78683 
L 791.883757 129.352042 
L 792.346935 122.895398 
L 793.273292 143.416953 
L 793.73647 162.314447 
L 794.199648 164.797237 
L 794.662826 164.728551 
L 795.589183 195.523968 
L 796.052361 196.017472 
L 796.515539 186.255647 
L 796.978717 183.067117 
L 797.905073 195.514145 
L 798.368252 179.592944 
L 798.83143 179.184473 
L 799.294608 180.796178 
L 799.757786 191.118734 
L 800.220964 194.781505 
L 800.684142 194.91669 
L 801.147321 195.490506 
L 801.610499 216.846808 
L 802.073677 219.595248 
L 802.536855 223.511313 
L 803.000033 223.992461 
L 803.92639 206.896729 
L 804.389568 196.412088 
L 804.852746 174.584807 
L 805.315924 176.184156 
L 805.779102 175.269096 
L 806.24228 166.557516 
L 806.705459 169.343023 
L 807.168637 168.922196 
L 807.631815 161.174369 
L 808.094993 168.846603 
L 808.558171 163.403136 
L 809.021349 160.362876 
L 809.484528 167.151668 
L 810.410884 177.356115 
L 810.874062 185.769698 
L 811.33724 171.738938 
L 811.800418 172.158306 
L 812.263597 168.623813 
L 812.726775 173.47892 
L 813.189953 158.997173 
L 813.653131 151.187567 
L 814.116309 149.209907 
L 814.579487 150.64863 
L 815.042666 144.303189 
L 815.505844 142.288461 
L 815.969022 134.478855 
L 816.4322 143.942682 
L 816.895378 167.547743 
L 817.358556 181.91683 
L 817.821735 190.799933 
L 818.284913 208.356821 
L 818.748091 218.277814 
L 819.211269 223.207056 
L 819.674447 215.168867 
L 820.137625 196.449074 
L 820.600804 184.006036 
L 821.063982 197.473148 
L 821.990338 188.847329 
L 822.453516 188.389435 
L 823.379873 219.030404 
L 823.843051 233.924613 
L 824.306229 234.547853 
L 825.232585 240.959064 
L 825.695763 239.222342 
L 826.158941 235.687849 
L 827.085298 219.012215 
L 827.548476 217.473186 
L 828.011654 216.385145 
L 828.474832 229.673098 
L 828.93801 238.723005 
L 829.401189 240.872188 
L 829.864367 234.489679 
L 830.327545 226.525625 
L 830.790723 216.220144 
L 831.253901 211.363579 
L 831.717079 195.213795 
L 832.180258 190.419009 
L 832.643436 199.802523 
L 833.106614 204.151042 
L 833.569792 205.886305 
L 834.03297 201.696954 
L 835.885683 151.134031 
L 836.348861 145.455803 
L 836.812039 151.540314 
L 837.275217 154.128129 
L 837.738396 153.435474 
L 839.591108 201.274283 
L 840.517465 209.662425 
L 841.443821 225.470235 
L 844.686068 214.343092 
L 845.149246 214.070535 
L 845.612424 206.31653 
L 846.075603 215.903916 
L 846.538781 222.550616 
L 847.001959 220.313484 
L 847.465137 190.522878 
L 847.928315 196.236715 
L 848.391493 159.125287 
L 848.854672 154.830911 
L 849.31785 141.053445 
L 849.781028 115.556486 
L 850.244206 97.127055 
L 850.707384 128.936378 
L 851.170562 134.347497 
L 851.633741 168.529138 
L 852.096919 177.91883 
L 852.560097 174.779723 
L 853.023275 184.163237 
L 853.486453 221.711838 
L 853.949631 224.620904 
L 854.41281 232.540254 
L 854.875988 229.265233 
L 855.339166 227.318463 
L 855.802344 234.428507 
L 856.265522 253.709031 
L 856.7287 229.212893 
L 857.191879 219.414 
L 857.655057 205.982497 
L 858.118235 202.213244 
L 858.581413 210.855409 
L 863.676373 209.044553 
L 864.139551 201.494419 
L 864.602729 213.188471 
L 865.065907 217.376364 
L 865.529086 241.864866 
L 865.992264 252.243023 
L 866.455442 249.406634 
L 866.91862 256.677303 
L 867.381798 270.298863 
L 867.844976 271.453403 
L 868.308155 282.27637 
L 868.771333 272.582502 
L 869.234511 268.68969 
L 869.697689 267.811698 
L 870.624045 258.549554 
L 871.087224 267.593283 
L 871.550402 255.780392 
L 872.01358 248.329105 
L 872.476758 245.177642 
L 873.403114 261.109011 
L 873.866293 251.45221 
L 874.329471 256.752127 
L 874.792649 268.755074 
L 875.255827 270.98457 
L 875.719005 262.631308 
L 876.182183 260.258262 
L 877.10854 250.582928 
L 877.571718 252.49735 
L 878.034896 248.165907 
L 878.961252 217.534376 
L 879.424431 218.763051 
L 879.887609 198.906522 
L 880.350787 206.584934 
L 880.813965 206.51007 
L 881.277143 198.861089 
L 881.740321 198.440262 
L 882.2035 206.359612 
L 882.666678 225.973744 
L 883.129856 238.538881 
L 883.593034 244.147693 
L 884.056212 242.509818 
L 884.51939 246.913938 
L 884.982569 264.643807 
L 885.445747 269.641006 
L 885.908925 249.166687 
L 886.372103 256.764786 
L 886.835281 239.836586 
L 887.298459 242.016659 
L 887.761638 233.144453 
L 888.224816 230.172149 
L 888.687994 246.499633 
L 889.151172 256.14262 
L 890.077528 264.746988 
L 890.540707 280.808822 
L 891.003885 286.880977 
L 891.467063 281.85143 
L 891.930241 267.888627 
L 892.393419 268.672492 
L 892.856597 256.062651 
L 893.319776 262.388101 
L 893.782954 256.376266 
L 894.246132 264.882517 
L 894.70931 278.578212 
L 895.172488 281.468744 
L 895.635666 282.759198 
L 896.562023 299.34958 
L 897.025201 286.242754 
L 897.951557 284.484747 
L 898.414735 280.712742 
L 898.877914 272.0849 
L 899.341092 273.854479 
L 899.80427 274.64177 
L 900.267448 269.661646 
L 900.730626 271.89732 
L 901.193804 254.678759 
L 901.656983 251.465517 
L 902.583339 226.838914 
L 903.046517 219.591497 
L 903.509695 203.052506 
L 903.972873 209.878366 
L 904.436052 214.047725 
L 904.89923 205.960113 
L 905.362408 213.762083 
L 905.825586 218.345362 
L 906.288764 224.868505 
L 906.751942 228.759858 
L 907.215121 226.040849 
L 907.678299 226.311948 
L 908.141477 236.665394 
L 908.604655 222.461652 
L 909.067833 218.809779 
L 909.531011 207.70117 
L 909.99419 203.35737 
L 910.457368 192.644147 
L 910.920546 202.423048 
L 911.383724 187.070215 
L 911.846902 183.832261 
L 912.31008 185.338942 
L 912.773259 181.433774 
L 913.236437 184.392264 
L 913.699615 184.929012 
L 914.162793 177.187363 
L 914.625971 180.504171 
L 915.089149 188.967177 
L 915.552328 182.702048 
L 916.015506 189.342571 
L 916.478684 187.797365 
L 916.941862 193.066392 
L 917.40504 192.435516 
L 919.720931 158.824046 
L 920.184109 160.596376 
L 920.647287 165.624465 
L 921.110466 173.222563 
L 922.036822 181.697196 
L 922.5 171.799457 
L 922.963178 176.747233 
L 923.426356 160.764253 
L 924.352713 140.116223 
L 924.815891 135.704467 
L 925.279069 132.973102 
L 925.742247 156.448427 
L 926.205425 160.685743 
L 926.668603 162.513675 
L 927.131782 161.561548 
L 927.59496 163.438903 
L 928.058138 157.83481 
L 928.521316 163.709272 
L 928.984494 141.498961 
L 929.447672 139.922865 
L 929.910851 139.508215 
L 930.837207 134.613853 
L 931.300385 139.160065 
L 931.763563 138.918397 
L 932.226741 135.909026 
L 932.68992 131.750565 
L 933.153098 138.76794 
L 933.616276 137.401893 
L 934.079454 131.081163 
L 934.542632 137.900845 
L 935.00581 129.76381 
L 935.468989 152.083865 
L 935.932167 151.385032 
L 936.395345 145.756228 
L 936.858523 141.758392 
L 937.321701 148.936393 
L 937.784879 152.81539 
L 938.248058 153.376851 
L 938.711236 141.545426 
L 939.174414 144.213554 
L 939.637592 145.065376 
L 940.10077 139.671332 
L 940.563948 142.555686 
L 941.027127 136.389404 
L 941.490305 142.949614 
L 941.953483 137.666773 
L 942.416661 124.958085 
L 942.879839 125.525723 
L 943.343017 124.036118 
L 943.806196 124.381352 
L 944.269374 121.199 
L 944.732552 125.634009 
L 945.19573 143.827221 
L 945.658908 150.850775 
L 946.122086 144.764805 
L 946.585265 161.141712 
L 947.048443 160.535548 
L 947.511621 163.827644 
L 947.974799 156.450492 
L 948.437977 139.41109 
L 948.901155 141.158709 
L 949.364334 140.305428 
L 949.827512 136.214923 
L 950.29069 138.53091 
L 950.753868 137.591139 
L 951.217046 139.616764 
L 951.680224 139.158869 
L 952.143403 130.564669 
L 952.606581 141.37528 
L 953.069759 144.451149 
L 953.532937 137.975972 
L 953.996115 139.581499 
L 954.459293 145.523918 
L 955.38565 167.948269 
L 955.848828 165.871762 
L 956.312006 172.963272 
L 956.775184 189.037462 
L 957.238362 191.464651 
L 957.701541 189.832954 
L 958.164719 179.162976 
L 958.627897 184.141641 
L 959.091075 194.068811 
L 959.554253 194.346088 
L 960.017431 184.213588 
L 960.48061 188.667131 
L 960.943788 185.534202 
L 961.406966 193.910718 
L 961.870144 190.629519 
L 962.333322 192.055887 
L 962.7965 190.621883 
L 963.259679 198.986042 
L 963.722857 198.818509 
L 964.186035 205.403431 
L 964.649213 204.210365 
L 965.112391 208.935736 
L 965.575569 212.023961 
L 966.038748 206.401335 
L 966.965104 189.60832 
L 967.428282 181.984052 
L 967.89146 181.414955 
L 968.354638 179.807969 
L 969.744173 154.494889 
L 970.207351 154.543583 
L 970.670529 155.91435 
L 971.133707 158.428029 
L 971.596886 151.347417 
L 972.060064 159.01965 
L 972.523242 162.249967 
L 973.449598 173.183408 
L 973.912776 176.345768 
L 974.375955 166.936083 
L 974.839133 170.938639 
L 975.765489 165.563129 
L 976.228667 184.497691 
L 976.691845 177.596237 
L 977.155024 173.950542 
L 978.544558 183.154167 
L 979.007736 187.972207 
L 979.470914 175.411789 
L 979.934093 166.75581 
L 980.397271 160.58335 
L 980.860449 161.935582 
L 981.323627 160.513934 
L 981.786805 163.182062 
L 982.249983 164.565184 
L 982.713162 183.166138 
L 983.17634 179.779915 
L 983.639518 204.750293 
L 984.102696 201.907726 
L 984.565874 185.084551 
L 985.492231 175.562935 
L 985.955409 160.339838 
L 986.418587 170.668573 
L 986.881765 162.630384 
L 987.344943 162.333115 
L 987.808121 161.560148 
L 988.2713 163.826711 
L 988.734478 162.874584 
L 989.197656 163.998234 
L 989.660834 141.071285 
L 990.124012 141.44123 
L 990.58719 143.553346 
L 991.050369 153.523761 
L 991.513547 145.627665 
L 991.976725 140.418958 
L 992.439903 132.714377 
L 992.903081 138.724753 
L 994.292616 119.768741 
L 994.755794 132.457436 
L 995.218972 138.035359 
L 995.68215 146.492187 
L 996.145328 163.801958 
L 997.071685 185.299623 
L 997.534863 197.018387 
L 997.998041 196.640805 
L 998.461219 196.028463 
L 998.924397 195.799151 
L 999.387576 186.414178 
L 999.850754 188.829011 
L 1000.313932 184.133071 
L 1000.77711 170.133201 
L 1001.240288 169.391122 
L 1001.703466 175.401499 
L 1002.166645 185.483117 
L 1002.629823 179.631908 
L 1003.093001 178.074345 
L 1003.556179 188.440147 
L 1004.019357 201.351248 
L 1004.482535 197.82911 
L 1004.945714 196.716358 
L 1005.408892 192.076019 
L 1005.87207 200.922055 
L 1006.335248 193.588148 
L 1006.798426 189.306128 
L 1007.261604 187.019573 
L 1007.724783 184.152294 
L 1008.187961 182.051075 
L 1008.651139 185.905361 
L 1009.114317 190.939628 
L 1009.577495 208.848656 
L 1010.040673 214.241242 
L 1010.503852 226.670465 
L 1010.96703 242.93617 
L 1011.430208 250.620759 
L 1011.893386 245.498544 
L 1012.356564 242.285302 
L 1012.819742 228.625216 
L 1013.282921 205.994807 
L 1014.209277 196.998313 
L 1014.672455 185.296624 
L 1015.135633 192.647607 
L 1015.598811 193.610631 
L 1016.06199 199.503627 
L 1016.525168 222.80597 
L 1016.988346 220.105495 
L 1017.451524 205.475477 
L 1017.914702 207.884133 
L 1018.37788 189.287898 
L 1018.841059 194.377765 
L 1019.304237 184.127885 
L 1019.767415 163.462051 
L 1020.230593 155.306482 
L 1020.693771 165.561081 
L 1021.156949 161.853607 
L 1021.620127 172.645685 
L 1022.083306 162.148688 
L 1022.546484 163.853062 
L 1023.936018 185.936898 
L 1024.399196 204.247491 
L 1024.862375 201.454347 
L 1025.325553 215.279778 
L 1025.788731 223.291796 
L 1026.251909 236.048449 
L 1027.178265 233.366507 
L 1027.641444 241.446483 
L 1028.104622 226.62495 
L 1028.5678 224.177769 
L 1029.030978 207.546109 
L 1029.494156 208.22495 
L 1029.957334 212.134837 
L 1030.420513 220.369261 
L 1030.883691 206.060494 
L 1032.273225 222.409209 
L 1032.736403 230.684126 
L 1033.199582 229.475952 
L 1034.125938 222.442011 
L 1034.589116 212.68979 
L 1035.515472 200.580304 
L 1035.978651 202.778911 
L 1036.441829 206.064829 
L 1036.905007 207.39235 
L 1037.368185 206.631738 
L 1037.831363 211.387999 
L 1038.294541 225.133117 
L 1038.75772 234.603122 
L 1039.684076 211.446861 
L 1040.147254 206.682964 
L 1040.610432 210.555784 
L 1041.07361 217.115994 
L 1041.536789 198.569182 
L 1041.999967 196.084933 
L 1042.463145 198.092025 
L 1042.926323 217.038942 
L 1043.389501 212.417137 
L 1043.852679 212.64499 
L 1044.315858 204.236127 
L 1044.779036 209.190081 
L 1045.242214 200.435255 
L 1045.705392 206.674213 
L 1046.631748 200.273171 
L 1047.094927 202.910408 
L 1047.558105 187.847937 
L 1048.021283 185.851744 
L 1048.484461 200.690351 
L 1048.947639 203.85889 
L 1049.410817 194.628364 
L 1049.873996 189.14783 
L 1050.337174 186.175527 
L 1050.800352 206.555719 
L 1051.26353 211.66412 
L 1051.726708 219.737918 
L 1052.189886 233.248275 
L 1052.653065 235.601329 
L 1053.116243 233.20975 
L 1054.042599 242.25275 
L 1054.505777 239.490495 
L 1054.968955 237.61786 
L 1055.432134 235.084188 
L 1055.895312 239.475952 
L 1056.35849 251.44801 
L 1056.821668 255.166382 
L 1057.284846 245.787587 
L 1057.748024 251.594092 
L 1058.674381 230.766903 
L 1059.137559 234.1146 
L 1059.600737 241.051663 
L 1060.527093 239.481015 
L 1061.45345 221.853983 
L 1061.916628 216.046019 
L 1062.379806 205.283373 
L 1062.842984 182.035173 
L 1063.306162 174.386192 
L 1063.769341 163.555589 
L 1064.232519 159.261213 
L 1064.695697 161.274482 
L 1065.158875 167.272502 
L 1065.622053 174.821178 
L 1066.085231 185.996286 
L 1066.54841 182.103474 
L 1067.011588 191.462277 
L 1067.474766 194.241606 
L 1068.401122 206.941929 
L 1069.327479 196.772361 
L 1069.790657 190.019178 
L 1070.253835 207.007698 
L 1070.717013 198.197271 
L 1071.180191 216.31017 
L 1071.643369 225.17474 
L 1072.106548 212.50312 
L 1073.032904 224.808056 
L 1073.496082 208.46058 
L 1073.95926 213.568981 
L 1074.422438 189.011064 
L 1074.885617 174.257489 
L 1075.348795 176.64761 
L 1076.738329 182.466471 
L 1077.201507 172.970296 
L 1077.664686 176.935784 
L 1078.127864 173.141819 
L 1078.591042 184.21808 
L 1079.05422 183.24742 
L 1079.980576 207.426296 
L 1080.443755 208.506701 
L 1080.906933 203.470976 
L 1081.370111 200.325692 
L 1081.833289 191.990963 
L 1082.296467 190.661984 
L 1082.759645 172.294331 
L 1083.222824 147.964997 
L 1083.686002 139.611735 
L 1084.14918 136.76299 
L 1084.612358 135.4649 
L 1085.075536 140.684503 
L 1085.538714 119.771553 
L 1086.001893 121.34619 
L 1087.391427 143.535051 
L 1087.854605 145.437118 
L 1088.317783 143.8672 
L 1088.780962 164.247392 
L 1089.24414 162.109106 
L 1089.707318 154.793733 
L 1090.170496 141.028623 
L 1091.096852 128.646635 
L 1092.023209 131.005138 
L 1092.949565 150.939791 
L 1093.412743 161.738047 
L 1094.3391 169.73698 
L 1094.802278 166.066573 
L 1095.265456 165.213293 
L 1096.191812 151.527766 
L 1096.65499 159.385337 
L 1097.118169 160.88584 
L 1097.581347 161.953889 
L 1098.044525 170.089465 
L 1098.507703 165.016673 
L 1098.970881 170.619307 
L 1099.434059 171.464951 
L 1099.897238 167.825434 
L 1100.360416 171.068107 
L 1100.823594 172.519186 
L 1101.286772 161.670049 
L 1101.74995 160.717922 
L 1102.213128 156.55946 
L 1102.676307 155.91005 
L 1103.139485 155.038236 
L 1103.602663 156.606696 
L 1104.065841 148.265789 
L 1104.529019 151.316947 
L 1104.992197 161.991645 
L 1105.455376 167.328629 
L 1106.381732 190.630242 
L 1106.84491 189.387753 
L 1107.308088 189.300534 
L 1108.234445 150.718034 
L 1108.697623 152.706592 
L 1109.623979 119.282646 
L 1110.087157 107.074369 
L 1110.550335 111.076925 
L 1111.013514 133.95917 
L 1111.476692 145.887983 
L 1111.93987 132.271143 
L 1112.403048 141.802927 
L 1112.866226 148.221045 
L 1113.329404 159.365263 
L 1113.792583 166.314681 
L 1114.255761 176.192429 
L 1114.718939 173.207769 
L 1115.182117 182.98667 
L 1115.645295 181.719469 
L 1117.03483 167.83552 
L 1117.498008 153.193147 
L 1117.961186 174.110817 
L 1118.424364 179.42309 
L 1118.887542 183.203241 
L 1119.35072 182.454985 
L 1119.813899 182.55928 
L 1120.277077 187.284651 
L 1120.740255 195.457295 
L 1121.203433 186.202058 
L 1121.666611 179.479764 
L 1122.129789 175.401615 
L 1122.592968 176.420241 
L 1123.056146 183.425261 
L 1123.519324 185.234659 
L 1123.982502 182.21911 
L 1124.44568 172.290481 
L 1124.908858 173.821873 
L 1125.372037 177.08308 
L 1126.298393 188.084477 
L 1126.761571 189.622047 
L 1127.224749 187.286069 
L 1127.687927 189.151068 
L 1128.151106 190.175872 
L 1128.614284 175.978308 
L 1129.077462 181.117599 
L 1130.003818 159.777643 
L 1130.466996 165.738596 
L 1130.930175 162.945452 
L 1131.393353 156.457918 
L 1131.856531 161.041197 
L 1132.319709 145.682187 
L 1132.782887 139.225543 
L 1133.246065 145.415078 
L 1133.709244 140.527623 
L 1134.172422 147.779759 
L 1134.6356 152.430995 
L 1135.098778 153.857363 
L 1135.561956 166.30512 
L 1136.025134 167.966248 
L 1136.488313 160.150464 
L 1137.414669 137.309277 
L 1137.877847 142.318832 
L 1138.341025 139.266215 
L 1138.804203 133.655945 
L 1139.267382 136.410563 
L 1139.73056 137.453901 
L 1140.193738 140.56066 
L 1140.656916 157.042591 
L 1141.120094 149.362721 
L 1142.046451 145.951057 
L 1142.509629 138.839555 
L 1142.972807 153.542249 
L 1143.435985 152.738391 
L 1143.899163 135.581609 
L 1144.362341 138.929307 
L 1144.82552 135.858157 
L 1145.288698 131.786185 
L 1145.751876 135.257441 
L 1146.215054 113.349847 
L 1146.678232 108.462392 
L 1147.14141 110.525084 
L 1147.604589 108.55978 
L 1148.067767 125.066423 
L 1148.530945 125.510503 
L 1148.994123 133.79435 
L 1149.920479 152.715826 
L 1150.383658 160.456017 
L 1150.846836 152.32516 
L 1151.310014 135.594653 
L 1151.773192 132.863288 
L 1152.23637 123.113819 
L 1152.699548 120.407166 
L 1153.162727 126.417542 
L 1153.625905 117.106704 
L 1154.089083 119.15704 
L 1154.552261 131.320614 
L 1155.478617 163.475171 
L 1156.404974 175.922199 
L 1156.868152 184.236935 
L 1157.33133 196.283128 
L 1157.794508 191.142379 
L 1158.720865 163.995189 
L 1159.184043 162.653853 
L 1159.647221 160.24374 
L 1160.110399 158.488484 
L 1160.573577 158.753405 
L 1161.036755 169.3169 
L 1161.499934 169.303815 
L 1161.963112 167.81421 
L 1162.42629 170.717098 
L 1163.352646 178.586295 
L 1163.815824 181.847502 
L 1164.279003 178.850487 
L 1164.742181 187.016953 
L 1165.668537 199.334245 
L 1166.131715 184.994589 
L 1166.594893 179.829128 
L 1167.058072 160.392698 
L 1167.52125 152.416288 
L 1167.984428 151.661854 
L 1168.910784 121.061213 
L 1169.373962 116.779193 
L 1170.300319 134.940787 
L 1170.763497 141.760469 
L 1171.226675 128.180696 
L 1171.689853 153.534105 
L 1172.153031 153.718713 
L 1172.61621 163.262853 
L 1173.079388 156.830921 
L 1173.542566 171.082627 
L 1174.005744 166.707938 
L 1174.468922 169.734385 
L 1174.9321 153.955276 
L 1175.395279 153.540627 
L 1175.858457 149.518079 
L 1176.321635 147.429217 
L 1176.784813 133.379923 
L 1177.247991 140.854463 
L 1177.711169 152.845055 
L 1178.174348 161.579889 
L 1178.637526 163.543735 
L 1179.100704 167.490689 
L 1179.563882 168.632873 
L 1180.02706 190.495764 
L 1180.490238 192.706726 
L 1180.953417 189.116631 
L 1181.416595 183.697876 
L 1181.879773 185.019219 
L 1182.342951 182.405235 
L 1182.806129 174.657408 
L 1183.269307 151.057067 
L 1183.732486 142.401087 
L 1184.195664 141.47985 
L 1184.658842 138.118338 
L 1185.12202 137.598664 
L 1185.585198 140.044387 
L 1186.048376 147.012339 
L 1186.511555 139.573408 
L 1187.437911 127.306777 
L 1187.901089 132.956083 
L 1188.364267 140.780012 
L 1188.827445 137.91616 
L 1189.290624 135.836901 
L 1189.753802 140.182668 
L 1190.680158 172.495099 
L 1191.606514 147.41133 
L 1192.069693 149.171305 
L 1192.532871 140.848933 
L 1192.996049 143.727109 
L 1193.459227 132.606144 
L 1193.922405 130.412257 
L 1194.848762 151.829609 
L 1195.31194 153.27451 
L 1195.775118 161.354486 
L 1196.238296 158.462495 
L 1196.701474 171.725736 
L 1197.164652 168.580451 
L 1197.627831 160.332214 
L 1198.554187 181.996682 
L 1199.017365 182.619921 
L 1199.480543 204.427211 
L 1199.943721 211.537254 
L 1200.4069 211.851599 
L 1200.870078 211.770557 
L 1201.333256 218.868245 
L 1201.796434 219.596509 
L 1202.259612 227.614705 
L 1202.72279 209.586838 
L 1203.185969 202.28382 
L 1204.112325 218.258434 
L 1204.575503 197.901495 
L 1205.038681 200.921764 
L 1205.501859 187.81769 
L 1205.965038 178.253558 
L 1206.428216 177.258185 
L 1206.891394 166.328735 
L 1207.354572 151.853165 
L 1207.81775 156.658849 
L 1208.280928 150.356653 
L 1208.744107 165.708027 
L 1209.670463 170.210264 
L 1210.133641 178.506467 
L 1210.596819 204.706249 
L 1211.523176 232.641295 
L 1211.986354 226.592393 
L 1212.91271 249.399774 
L 1213.375888 247.93488 
L 1213.839066 241.675929 
L 1214.302245 222.79551 
L 1214.765423 210.043577 
L 1215.228601 214.039955 
L 1215.691779 216.207672 
L 1216.618135 201.039447 
L 1217.081314 198.264837 
L 1217.544492 191.178046 
L 1218.00767 191.597415 
L 1218.934026 169.676736 
L 1219.397204 162.361362 
L 1219.860382 177.255571 
L 1220.323561 174.931949 
L 1220.786739 204.764341 
L 1221.249917 206.431647 
L 1221.713095 219.861692 
L 1222.176273 238.252598 
L 1222.639451 245.696249 
L 1223.10263 238.60328 
L 1223.565808 246.504096 
L 1224.028986 235.346064 
L 1224.492164 233.226312 
L 1224.955342 233.5283 
L 1225.41852 227.745048 
L 1225.881699 218.940799 
L 1226.344877 218.050451 
L 1226.808055 210.673298 
L 1227.271233 206.310965 
L 1227.734411 199.675162 
L 1228.197589 202.3124 
L 1228.660768 193.767623 
L 1229.123946 190.282553 
L 1229.587124 185.259184 
L 1230.976658 210.821183 
L 1231.903015 194.73245 
L 1232.366193 196.640694 
L 1232.829371 194.97193 
L 1233.292549 176.956418 
L 1233.755727 167.244016 
L 1234.218906 161.281605 
L 1234.682084 165.895774 
L 1235.145262 162.410704 
L 1235.60844 164.016231 
L 1236.071618 178.471809 
L 1236.534796 183.709946 
L 1236.997975 182.078249 
L 1237.461153 192.579965 
L 1237.924331 176.325157 
L 1238.387509 183.552582 
L 1238.850687 177.818753 
L 1239.313865 186.467096 
L 1239.777044 185.972134 
L 1240.240222 175.314512 
L 1240.7034 159.510692 
L 1241.166578 168.542066 
L 1241.629756 166.249332 
L 1242.092934 177.486219 
L 1242.556113 165.562126 
L 1243.019291 162.015277 
L 1243.945647 191.179726 
L 1244.872003 204.992072 
L 1245.335182 200.086083 
L 1245.79836 193.18463 
L 1246.261538 188.834653 
L 1246.724716 185.584344 
L 1247.187894 177.669713 
L 1248.114251 135.417536 
L 1248.577429 133.063023 
L 1249.040607 121.929702 
L 1249.503785 129.169482 
L 1249.966963 145.348696 
L 1250.430141 143.500773 
L 1250.89332 155.392518 
L 1251.356498 156.732395 
L 1251.819676 144.209044 
L 1252.282854 149.323624 
L 1252.746032 145.418456 
L 1253.20921 127.718018 
L 1253.672389 127.439283 
L 1254.135567 128.667958 
L 1254.598745 129.161461 
L 1255.061923 139.304858 
L 1255.988279 153.401388 
L 1256.914636 144.837348 
L 1257.377814 142.309854 
L 1257.840992 143.587952 
L 1258.30417 152.217761 
L 1258.767348 155.021803 
L 1259.230527 155.410282 
L 1259.693705 156.855183 
L 1260.156883 149.286515 
L 1260.620061 146.777555 
L 1261.083239 152.800287 
L 1262.009596 131.800116 
L 1262.472774 123.242983 
L 1262.935952 125.058559 
L 1263.39913 135.893882 
L 1263.862308 142.447915 
L 1264.325486 137.288631 
L 1264.788665 142.131383 
L 1265.251843 139.684202 
L 1265.715021 143.328439 
L 1266.178199 142.796409 
L 1266.641377 145.291555 
L 1267.104555 143.80195 
L 1267.567734 154.834966 
L 1268.030912 161.216017 
L 1268.49409 182.708232 
L 1268.957268 182.843417 
L 1269.883624 176.738185 
L 1270.346803 167.007249 
L 1270.809981 153.507789 
L 1271.273159 131.67433 
L 1271.736337 115.981712 
L 1272.199515 109.568313 
L 1272.662693 107.349715 
L 1273.125872 105.687128 
L 1273.58905 105.167455 
L 1274.052228 99.964926 
L 1274.515406 108.539135 
L 1274.978584 105.573009 
L 1275.441762 109.841215 
L 1276.368119 106.114477 
L 1276.831297 116.146672 
L 1277.294475 116.874936 
L 1277.757653 123.163318 
L 1278.220831 124.249901 
L 1278.68401 119.127685 
L 1279.147188 111.565196 
L 1279.610366 119.540147 
L 1280.536722 152.911752 
L 1280.9999 146.788715 
L 1281.926257 155.115078 
L 1282.389435 174.024928 
L 1282.852613 175.309204 
L 1283.315791 167.542843 
L 1283.778969 157.36092 
L 1285.168504 181.631736 
L 1286.09486 176.928889 
L 1286.558038 182.111425 
L 1287.021217 201.045987 
L 1287.484395 210.923734 
L 1287.947573 218.416808 
L 1288.410751 218.379012 
L 1288.873929 219.811557 
L 1289.337107 227.082227 
L 1289.800286 221.589337 
L 1290.263464 219.315137 
L 1290.726642 219.72215 
L 1291.18982 211.782807 
L 1291.652998 219.572421 
L 1292.116176 222.191126 
L 1292.579355 211.854755 
L 1293.042533 210.494886 
L 1293.505711 212.891185 
L 1293.968889 211.185353 
L 1294.432067 214.736921 
L 1294.895245 207.11883 
L 1295.358424 204.931122 
L 1295.821602 215.241322 
L 1296.28478 211.638872 
L 1296.747958 204.521192 
L 1297.674314 180.697717 
L 1298.137493 169.348169 
L 1298.600671 173.332191 
L 1299.063849 167.530405 
L 1299.527027 166.732726 
L 1299.990205 155.148418 
L 1300.453383 156.896037 
L 1300.916562 160.558807 
L 1301.37974 175.61982 
L 1301.842918 173.191173 
L 1302.306096 167.29054 
L 1303.232452 181.275868 
L 1303.695631 181.040378 
L 1304.158809 177.030186 
L 1304.621987 159.360637 
L 1305.085165 152.848392 
L 1305.548343 143.902051 
L 1306.011521 130.989492 
L 1306.4747 132.057541 
L 1306.937878 134.36735 
L 1307.401056 122.393833 
L 1307.864234 124.462703 
L 1308.327412 121.996989 
L 1308.79059 130.175811 
L 1309.253769 134.697311 
L 1310.180125 133.781522 
L 1310.643303 144.493287 
L 1311.106481 152.19641 
L 1311.569659 151.324595 
L 1312.032838 162.30201 
L 1312.959194 162.121392 
L 1313.422372 168.607468 
L 1313.88555 177.484393 
L 1314.348728 177.125345 
L 1314.811907 176.031126 
L 1315.275085 154.630121 
L 1316.201441 128.156323 
L 1317.127797 87.003813 
L 1317.590975 80.732507 
L 1318.054154 81.948826 
L 1318.517332 81.911029 
L 1318.98051 89.082852 
L 1319.443688 98.058624 
L 1319.906866 120.489882 
L 1320.370044 131.207825 
L 1320.833223 131.336832 
L 1321.296401 128.284216 
L 1321.759579 135.313947 
L 1322.222757 138.624577 
L 1322.685935 140.946741 
L 1323.149113 127.058073 
L 1323.612292 123.183795 
L 1324.07547 124.066506 
L 1324.538648 134.111057 
L 1325.001826 139.880495 
L 1325.465004 147.855446 
L 1325.928182 142.677629 
L 1326.854539 140.351254 
L 1327.317717 142.874538 
L 1327.780895 140.91266 
L 1328.244073 120.664171 
L 1329.17043 102.401488 
L 1329.633608 99.537635 
L 1330.096786 101.946291 
L 1330.559964 99.746226 
L 1331.023142 109.488059 
L 1331.48632 125.85261 
L 1331.949499 134.111745 
L 1332.412677 136.390665 
L 1332.875855 137.118929 
L 1333.339033 143.333176 
L 1333.802211 152.389261 
L 1334.265389 139.180162 
L 1335.191746 129.683258 
L 1336.118102 146.115037 
L 1336.58128 151.266684 
L 1337.044458 148.510608 
L 1337.507637 165.90687 
L 1337.970815 168.747979 
L 1338.433993 175.505882 
L 1338.897171 179.032738 
L 1339.360349 204.101963 
L 1339.823527 188.569971 
L 1340.286706 193.733974 
L 1340.749884 182.779812 
L 1341.213062 193.893141 
L 1341.67624 192.990437 
L 1342.139418 187.262786 
L 1342.602596 154.10522 
L 1343.065775 162.55587 
L 1343.528953 156.333987 
L 1343.992131 154.683756 
L 1344.455309 148.066486 
L 1344.918487 157.314087 
L 1345.381665 156.127199 
L 1345.844844 165.782541 
L 1346.308022 162.847306 
L 1346.7712 163.952422 
L 1347.234378 172.82317 
L 1347.697556 169.399879 
L 1348.160734 156.345229 
L 1348.623913 159.001 
L 1349.087091 156.590886 
L 1349.550269 162.860735 
L 1350.013447 149.812262 
L 1350.476625 140.730007 
L 1350.939803 134.248651 
L 1351.402982 131.992985 
L 1351.86616 120.729928 
L 1352.329338 122.860577 
L 1352.792516 121.531598 
L 1353.255694 125.379706 
L 1354.182051 146.234868 
L 1354.645229 142.267921 
L 1355.108407 166.947938 
L 1355.571585 167.564999 
L 1356.034763 170.702648 
L 1356.497941 189.414805 
L 1356.96112 183.341191 
L 1357.424298 187.176943 
L 1357.887476 189.616488 
L 1358.350654 157.064357 
L 1358.813832 156.266678 
L 1359.27701 155.802605 
L 1359.740189 135.637181 
L 1360.203367 131.74437 
L 1360.666545 121.537735 
L 1361.129723 123.859899 
L 1361.592901 139.736396 
L 1362.056079 148.180868 
L 1362.519258 152.572632 
L 1362.982436 150.625862 
L 1363.445614 161.547675 
L 1363.908792 164.444385 
L 1364.37197 165.345631 
L 1364.835148 168.137316 
L 1365.298327 155.651033 
L 1366.224683 164.273936 
L 1366.687861 154.83954 
L 1367.614217 171.425767 
L 1368.077396 176.849241 
L 1368.540574 173.852226 
L 1369.003752 158.89478 
L 1369.46693 153.964079 
L 1369.930108 156.144152 
L 1370.393286 145.295015 
L 1370.856465 140.926504 
L 1371.319643 143.545208 
L 1372.245999 154.91728 
L 1372.709177 181.530982 
L 1373.172355 176.674417 
L 1373.635534 175.852025 
L 1374.098712 169.055596 
L 1374.56189 160.418151 
L 1375.025068 164.85316 
L 1375.488246 168.126722 
L 1375.951424 158.778817 
L 1376.414603 160.168117 
L 1376.877781 158.116322 
L 1377.340959 161.470198 
L 1377.804137 166.887495 
L 1378.267315 178.680393 
L 1378.730493 177.18461 
L 1379.193672 182.398036 
L 1379.65685 198.564894 
L 1380.120028 199.305514 
L 1380.583206 205.433271 
L 1381.046384 196.696978 
L 1381.509562 176.760137 
L 1381.972741 177.296886 
L 1382.435919 178.191954 
L 1382.899097 180.495584 
L 1383.825453 198.959896 
L 1384.75181 226.870229 
L 1385.214988 229.433332 
L 1385.678166 206.512561 
L 1386.141344 196.546865 
L 1386.604522 205.955091 
L 1387.0677 208.135164 
L 1387.530879 191.398479 
L 1387.994057 185.071571 
L 1388.457235 187.158975 
L 1388.920413 203.350545 
L 1389.846769 192.235029 
L 1390.309948 178.383428 
L 1390.773126 180.600568 
L 1391.236304 161.627481 
L 1391.699482 157.49373 
L 1392.16266 174.754079 
L 1392.625838 180.183731 
L 1393.089017 171.941672 
L 1393.552195 177.179809 
L 1394.015373 180.916715 
L 1394.478551 205.553486 
L 1394.941729 210.019385 
L 1395.404907 186.863853 
L 1395.868086 175.810845 
L 1396.794442 192.088177 
L 1397.25762 195.917751 
L 1397.720798 183.833032 
L 1398.183976 177.808842 
L 1398.647155 182.132649 
L 1399.110333 195.315577 
L 1400.036689 165.202991 
L 1400.499867 157.127735 
L 1400.963045 170.020301 
L 1401.426224 162.340431 
L 1401.889402 168.740016 
L 1402.35258 165.619442 
L 1402.815758 183.979458 
L 1403.278936 183.12 
L 1403.742114 197.427308 
L 1404.205293 179.331483 
L 1404.668471 178.329933 
L 1405.131649 172.985312 
L 1405.594827 172.737467 
L 1406.058005 169.74663 
L 1406.521183 176.257416 
L 1406.984362 168.157449 
L 1407.44754 170.096583 
L 1407.910718 184.144418 
L 1409.763431 162.327305 
L 1410.226609 150.298188 
L 1410.689787 151.088231 
L 1411.152965 137.329298 
L 1411.616143 128.852478 
L 1412.079321 128.771436 
L 1412.5425 117.539269 
L 1413.005678 113.195469 
L 1413.468856 116.153959 
L 1413.932034 123.486407 
L 1414.85839 146.164052 
L 1415.321568 149.956559 
L 1416.247925 178.58353 
L 1416.711103 190.506165 
L 1417.174281 166.683419 
L 1417.637459 160.121751 
L 1418.100637 163.420025 
L 1418.563816 157.507037 
L 1419.490172 139.36106 
L 1419.95335 128.07947 
L 1420.416528 142.652427 
L 1420.879706 150.355551 
L 1421.342885 154.296327 
L 1421.806063 152.225998 
L 1422.269241 140.394574 
L 1422.732419 123.534331 
L 1423.195597 115.700014 
L 1423.658775 115.878444 
L 1424.585132 96.855204 
L 1425.04831 98.071523 
L 1425.511488 101.616913 
L 1425.974666 125.697673 
L 1426.437844 139.325411 
L 1426.901023 147.559834 
L 1427.364201 161.292596 
L 1427.827379 158.412961 
L 1428.290557 153.284568 
L 1428.753735 161.191562 
L 1429.680092 150.255205 
L 1430.14327 140.802275 
L 1430.606448 125.375307 
L 1431.069626 115.996512 
L 1431.532804 134.640712 
L 1431.995982 116.724047 
L 1432.459161 111.348537 
L 1432.922339 114.17729 
L 1433.385517 101.789854 
L 1433.848695 93.053561 
L 1434.311873 101.89342 
L 1434.775051 86.688857 
L 1435.23823 104.696732 
L 1435.701408 108.032074 
L 1436.164586 97.454764 
L 1436.627764 104.033508 
L 1437.090942 107.270003 
L 1437.55412 105.292343 
L 1438.017299 114.577011 
L 1438.480477 112.827934 
L 1438.943655 109.85563 
L 1439.870011 102.897846 
L 1440.333189 122.067168 
L 1440.796368 124.673517 
L 1441.259546 114.683109 
L 1441.722724 118.549751 
L 1442.185902 114.59516 
L 1443.112258 135.796284 
L 1443.575437 124.329356 
L 1444.038615 117.959203 
L 1444.964971 124.980004 
L 1445.428149 121.313023 
L 1445.891327 120.234586 
L 1446.817684 117.478455 
L 1447.280862 124.035913 
L 1447.74404 137.15431 
L 1448.207218 136.399876 
L 1448.670396 145.635121 
L 1449.133575 145.393453 
L 1449.596753 154.32598 
L 1450.059931 148.8022 
L 1450.523109 139.102154 
L 1451.449465 130.080949 
L 1451.912644 130.636231 
L 1452.375822 133.217868 
L 1452.839 123.462221 
L 1453.302178 129.608511 
L 1453.765356 121.978064 
L 1454.228534 122.249163 
L 1454.691713 118.801161 
L 1455.154891 111.164536 
L 1455.618069 113.301363 
L 1456.081247 110.767691 
L 1456.544425 102.803638 
L 1457.007603 106.602322 
L 1457.470782 99.45993 
L 1458.860316 133.986076 
L 1459.323494 148.169825 
L 1459.786672 155.038931 
L 1460.249851 165.911321 
L 1460.713029 171.909341 
L 1461.176207 168.992639 
L 1461.639385 167.669837 
L 1462.102563 156.981326 
L 1462.565741 151.111583 
L 1463.02892 151.697755 
L 1463.492098 148.793409 
L 1463.955276 144.412542 
L 1464.418454 142.787023 
L 1464.881632 128.713017 
L 1465.34481 136.706502 
L 1465.807989 134.642351 
L 1467.197523 140.768649 
L 1467.660701 144.412886 
L 1468.123879 156.286098 
L 1468.587058 150.459601 
L 1469.050236 154.820475 
L 1469.513414 169.776463 
L 1469.976592 172.290143 
L 1470.43977 178.12136 
L 1471.366127 203.912671 
L 1471.829305 211.856733 
L 1472.292483 214.148008 
L 1472.755661 194.773356 
L 1473.218839 187.723633 
L 1473.682017 174.520712 
L 1474.145196 156.560802 
L 1474.608374 145.495438 
L 1475.071552 137.39547 
L 1475.53473 135.343675 
L 1476.461086 167.158448 
L 1476.924265 179.457935 
L 1477.387443 184.9679 
L 1477.850621 187.339488 
L 1478.313799 188.778212 
L 1478.776977 189.413807 
L 1479.240155 188.511103 
L 1479.703334 186.613756 
L 1480.62969 190.609405 
L 1481.092868 188.872683 
L 1481.556046 195.191955 
L 1482.019224 197.792125 
L 1482.482403 188.617201 
L 1482.945581 192.354107 
L 1483.408759 189.072908 
L 1484.335115 194.563611 
L 1484.798293 192.697153 
L 1485.261472 194.27179 
L 1485.72465 202.327054 
L 1486.187828 191.453206 
L 1486.651006 192.230893 
L 1487.114184 190.463282 
L 1487.577362 186.996746 
L 1488.040541 184.44454 
L 1488.503719 191.276578 
L 1488.966897 194.852858 
L 1489.430075 206.324506 
L 1489.893253 209.412731 
L 1490.356431 214.589089 
L 1490.81961 232.7267 
L 1491.282788 237.649765 
L 1491.745966 227.733492 
L 1492.209144 226.688696 
L 1492.672322 215.654221 
L 1493.1355 212.82401 
L 1493.598679 206.775108 
L 1494.061857 186.09074 
L 1494.525035 187.968095 
L 1494.988213 185.23673 
L 1495.451391 173.732734 
L 1495.914569 169.407469 
L 1496.377748 174.713564 
L 1496.840926 184.628378 
L 1497.304104 190.780846 
L 1497.767282 183.249246 
L 1498.23046 171.454889 
L 1498.693638 153.247862 
L 1499.156817 169.229383 
L 1499.619995 163.971253 
L 1500.546351 141.686078 
L 1501.009529 134.296569 
L 1501.472707 157.654514 
L 1501.935886 196.321316 
L 1502.399064 190.488641 
L 1502.862242 195.003963 
L 1503.32542 194.311308 
L 1503.788598 200.111635 
L 1504.251776 209.587818 
L 1504.714955 203.019972 
L 1505.178133 194.839691 
L 1505.641311 192.997945 
L 1506.104489 186.423921 
L 1506.567667 184.989917 
L 1507.030845 175.555521 
L 1507.494024 160.406559 
L 1507.957202 156.18014 
L 1508.883558 126.623566 
L 1509.346736 125.900021 
L 1509.809914 124.51544 
L 1510.736271 156.194299 
L 1511.199449 162.112006 
L 1511.662627 161.190769 
L 1512.125805 168.757978 
L 1512.588983 182.410427 
L 1513.052161 188.581429 
L 1513.51534 173.599271 
L 1513.978518 175.136841 
L 1514.441696 185.070189 
L 1514.904874 205.12913 
L 1515.368052 209.292311 
L 1515.83123 190.078285 
L 1516.294409 183.868758 
L 1516.757587 193.085469 
L 1517.220765 199.67039 
L 1517.683943 197.291166 
L 1518.147121 192.459312 
L 1518.610299 195.300421 
L 1519.073478 194.941373 
L 1519.536656 202.965748 
L 1519.999834 195.539172 
L 1520.463012 183.392674 
L 1521.389368 148.035043 
L 1521.852547 144.667353 
L 1522.315725 161.173997 
L 1522.778903 165.633718 
L 1523.705259 188.997111 
L 1524.168437 187.46426 
L 1524.631616 200.844881 
L 1525.094794 192.090055 
L 1526.02115 159.160343 
L 1526.484328 147.390697 
L 1526.947506 142.379684 
L 1527.410685 138.832835 
L 1527.873863 126.111791 
L 1528.337041 126.691785 
L 1528.800219 132.053481 
L 1529.726575 152.723306 
L 1530.189754 148.008832 
L 1530.652932 159.591682 
L 1531.11611 166.609057 
L 1531.579288 175.955504 
L 1532.042466 188.922206 
L 1532.505644 184.294223 
L 1532.968823 176.2375 
L 1533.432001 172.264376 
L 1533.895179 160.630644 
L 1534.358357 168.241099 
L 1534.821535 158.942616 
L 1535.284713 139.913928 
L 1536.21107 129.094951 
L 1536.674248 130.471896 
L 1537.137426 147.516017 
L 1537.600604 137.006665 
L 1538.526961 168.321026 
L 1538.990139 185.914982 
L 1539.916495 201.46332 
L 1540.379673 194.259149 
L 1540.842851 209.171892 
L 1541.30603 211.389032 
L 1541.769208 217.374696 
L 1542.232386 209.762783 
L 1542.695564 220.647529 
L 1543.158742 226.818531 
L 1543.62192 235.114734 
L 1545.011455 208.566072 
L 1545.474633 205.550523 
L 1545.937811 209.083557 
L 1546.400989 214.587345 
L 1546.864168 216.73035 
L 1547.327346 233.026945 
L 1547.790524 238.345395 
L 1548.253702 237.139973 
L 1548.71688 238.714611 
L 1549.643237 230.039369 
L 1550.106415 228.284113 
L 1550.569593 215.371554 
L 1551.032771 218.96019 
L 1551.495949 228.819404 
L 1551.959127 225.69883 
L 1552.885484 216.862962 
L 1553.348662 216.287688 
L 1553.81184 219.765121 
L 1554.738196 205.616251 
L 1555.201375 208.87128 
L 1555.664553 214.795165 
L 1556.127731 217.2656 
L 1556.590909 224.431245 
L 1556.590909 224.431245 
" clip-path="url(#p3f8dab7c4f)" style="fill: none; stroke: #d98a32; stroke-width: 2.5; stroke-linecap: square"/>
   </g>
   <g id="patch_3">
    <path d="M 225 320.4 
L 225 43.2 
" style="fill: none; stroke: #000000; stroke-width: 0.8; stroke-linejoin: miter; stroke-linecap: square"/>
   </g>
   <g id="patch_4">
    <path d="M 1620 320.4 
L 1620 43.2 
" style="fill: none; stroke: #000000; stroke-width: 0.8; stroke-linejoin: miter; stroke-linecap: square"/>
   </g>
   <g id="patch_5">
    <path d="M 225 320.4 
L 1620 320.4 
" style="fill: none; stroke: #000000; stroke-width: 0.8; stroke-linejoin: miter; stroke-linecap: square"/>
   </g>
   <g id="patch_6">
    <path d="M 225 43.2 
L 1620 43.2 
" style="fill: none; stroke: #000000; stroke-width: 0.8; stroke-linejoin: miter; stroke-linecap: square"/>
   </g>
   <g id="text_18">
    <!-- TEOL -->
    <g transform="translate(896.629688 37.2) scale(0.2 -0.2)">
     <defs>
      <path id="DejaVuSans-4f" d="M 2522 4238 
Q 1834 4238 1429 3725 
Q 1025 3213 1025 2328 
Q 1025 1447 1429 934 
Q 1834 422 2522 422 
Q 3209 422 3611 934 
Q 4013 1447 4013 2328 
Q 4013 3213 3611 3725 
Q 3209 4238 2522 4238 
z
M 2522 4750 
Q 3503 4750 4090 4092 
Q 4678 3434 4678 2328 
Q 4678 1225 4090 567 
Q 3503 -91 2522 -91 
Q 1538 -91 948 565 
Q 359 1222 359 2328 
Q 359 3434 948 4092 
Q 1538 4750 2522 4750 
z
" transform="scale(0.015625)"/>
      <path id="DejaVuSans-4c" d="M 628 4666 
L 1259 4666 
L 1259 531 
L 3531 531 
L 3531 0 
L 628 0 
L 628 4666 
z
" transform="scale(0.015625)"/>
     </defs>
     <use xlink:href="#DejaVuSans-54"/>
     <use xlink:href="#DejaVuSans-45" x="61.083984"/>
     <use xlink:href="#DejaVuSans-4f" x="124.267578"/>
     <use xlink:href="#DejaVuSans-4c" x="202.978516"/>
    </g>
   </g>
   <g id="legend_1">
    <g id="patch_7">
     <path d="M 1562.029687 65.878125 
L 1613 65.878125 
Q 1615 65.878125 1615 63.878125 
L 1615 50.2 
Q 1615 48.2 1613 48.2 
L 1562.029687 48.2 
Q 1560.029687 48.2 1560.029687 50.2 
L 1560.029687 63.878125 
Q 1560.029687 65.878125 1562.029687 65.878125 
z
" style="fill: #ffffff; opacity: 0.8; stroke: #cccccc; stroke-linejoin: miter"/>
    </g>
    <g id="line2d_17">
     <path d="M 1564.029687 56.298437 
L 1574.029687 56.298437 
L 1584.029687 56.298437 
" style="fill: none; stroke: #d98a32; stroke-width: 2.5; stroke-linecap: square"/>
    </g>
    <g id="text_19">
     <!-- teol -->
     <g transform="translate(1592.029687 59.798437) scale(0.1 -0.1)">
      <defs>
       <path id="DejaVuSans-6f" d="M 1959 3097 
Q 1497 3097 1228 2736 
Q 959 2375 959 1747 
Q 959 1119 1226 758 
Q 1494 397 1959 397 
Q 2419 397 2687 759 
Q 2956 1122 2956 1747 
Q 2956 2369 2687 2733 
Q 2419 3097 1959 3097 
z
M 1959 3584 
Q 2709 3584 3137 3096 
Q 3566 2609 3566 1747 
Q 3566 888 3137 398 
Q 2709 -91 1959 -91 
Q 1206 -91 779 398 
Q 353 888 353 1747 
Q 353 2609 779 3096 
Q 1206 3584 1959 3584 
z
" transform="scale(0.015625)"/>
       <path id="DejaVuSans-6c" d="M 603 4863 
L 1178 4863 
L 1178 0 
L 603 0 
L 603 4863 
z
" transform="scale(0.015625)"/>
      </defs>
      <use xlink:href="#DejaVuSans-74"/>
      <use xlink:href="#DejaVuSans-65" x="39.208984"/>
      <use xlink:href="#DejaVuSans-6f" x="100.732422"/>
      <use xlink:href="#DejaVuSans-6c" x="161.914062"/>
     </g>
    </g>
   </g>
  </g>
 </g>
 <defs>
  <clipPath id="p3f8dab7c4f">
   <rect x="225" y="43.2" width="1395" height="277.2"/>
  </clipPath>
 </defs>
</svg>
