<?xml version="1.0" encoding="utf-8" standalone="no"?>
<!DOCTYPE svg PUBLIC "-//W3C//DTD SVG 1.1//EN"
  "http://www.w3.org/Graphics/SVG/1.1/DTD/svg11.dtd">
<svg xmlns:xlink="http://www.w3.org/1999/xlink" width="1800pt" height="360pt" viewBox="0 0 1800 360" xmlns="http://www.w3.org/2000/svg" version="1.1">
 <metadata>
  <rdf:RDF xmlns:dc="http://purl.org/dc/elements/1.1/" xmlns:cc="http://creativecommons.org/ns#" xmlns:rdf="http://www.w3.org/1999/02/22-rdf-syntax-ns#">
   <cc:Work>
    <dc:type rdf:resource="http://purl.org/dc/dcmitype/StillImage"/>
    <dc:date>2024-03-19T10:36:35.867661</dc:date>
    <dc:format>image/svg+xml</dc:format>
    <dc:creator>
     <cc:Agent>
      <dc:title>Matplotlib v3.7.2, https://matplotlib.org/</dc:title>
     </cc:Agent>
    </dc:creator>
   </cc:Work>
  </rdf:RDF>
 </metadata>
 <defs>
  <style type="text/css">*{stroke-linejoin: round; stroke-linecap: butt}</style>
 </defs>
 <g id="figure_1">
  <g id="patch_1">
   <path d="M 0 360 
L 1800 360 
L 1800 0 
L 0 0 
z
" style="fill: #ffffff"/>
  </g>
  <g id="axes_1">
   <g id="patch_2">
    <path d="M 225 320.4 
L 1620 320.4 
L 1620 43.2 
L 225 43.2 
z
" style="fill: #ffffff"/>
   </g>
   <g id="matplotlib.axis_1">
    <g id="xtick_1">
     <g id="line2d_1">
      <defs>
       <path id="m8bbbf06417" d="M 0 0 
L 0 3.5 
" style="stroke: #000000; stroke-width: 0.8"/>
      </defs>
      <g>
       <use xlink:href="#m8bbbf06417" x="281.924597" y="320.4" style="stroke: #000000; stroke-width: 0.8"/>
      </g>
     </g>
     <g id="text_1">
      <!-- 2011 -->
      <g transform="translate(262.837097 338.797656) scale(0.15 -0.15)">
       <defs>
        <path id="DejaVuSans-32" d="M 1228 531 
L 3431 531 
L 3431 0 
L 469 0 
L 469 531 
Q 828 903 1448 1529 
Q 2069 2156 2228 2338 
Q 2531 2678 2651 2914 
Q 2772 3150 2772 3378 
Q 2772 3750 2511 3984 
Q 2250 4219 1831 4219 
Q 1534 4219 1204 4116 
Q 875 4013 500 3803 
L 500 4441 
Q 881 4594 1212 4672 
Q 1544 4750 1819 4750 
Q 2544 4750 2975 4387 
Q 3406 4025 3406 3419 
Q 3406 3131 3298 2873 
Q 3191 2616 2906 2266 
Q 2828 2175 2409 1742 
Q 1991 1309 1228 531 
z
" transform="scale(0.015625)"/>
        <path id="DejaVuSans-30" d="M 2034 4250 
Q 1547 4250 1301 3770 
Q 1056 3291 1056 2328 
Q 1056 1369 1301 889 
Q 1547 409 2034 409 
Q 2525 409 2770 889 
Q 3016 1369 3016 2328 
Q 3016 3291 2770 3770 
Q 2525 4250 2034 4250 
z
M 2034 4750 
Q 2819 4750 3233 4129 
Q 3647 3509 3647 2328 
Q 3647 1150 3233 529 
Q 2819 -91 2034 -91 
Q 1250 -91 836 529 
Q 422 1150 422 2328 
Q 422 3509 836 4129 
Q 1250 4750 2034 4750 
z
" transform="scale(0.015625)"/>
        <path id="DejaVuSans-31" d="M 794 531 
L 1825 531 
L 1825 4091 
L 703 3866 
L 703 4441 
L 1819 4666 
L 2450 4666 
L 2450 531 
L 3481 531 
L 3481 0 
L 794 0 
L 794 531 
z
" transform="scale(0.015625)"/>
       </defs>
       <use xlink:href="#DejaVuSans-32"/>
       <use xlink:href="#DejaVuSans-30" x="63.623047"/>
       <use xlink:href="#DejaVuSans-31" x="127.246094"/>
       <use xlink:href="#DejaVuSans-31" x="190.869141"/>
      </g>
     </g>
    </g>
    <g id="xtick_2">
     <g id="line2d_2">
      <g>
       <use xlink:href="#m8bbbf06417" x="450.984627" y="320.4" style="stroke: #000000; stroke-width: 0.8"/>
      </g>
     </g>
     <g id="text_2">
      <!-- 2012 -->
      <g transform="translate(431.897127 338.797656) scale(0.15 -0.15)">
       <use xlink:href="#DejaVuSans-32"/>
       <use xlink:href="#DejaVuSans-30" x="63.623047"/>
       <use xlink:href="#DejaVuSans-31" x="127.246094"/>
       <use xlink:href="#DejaVuSans-32" x="190.869141"/>
      </g>
     </g>
    </g>
    <g id="xtick_3">
     <g id="line2d_3">
      <g>
       <use xlink:href="#m8bbbf06417" x="620.507836" y="320.4" style="stroke: #000000; stroke-width: 0.8"/>
      </g>
     </g>
     <g id="text_3">
      <!-- 2013 -->
      <g transform="translate(601.420336 338.797656) scale(0.15 -0.15)">
       <defs>
        <path id="DejaVuSans-33" d="M 2597 2516 
Q 3050 2419 3304 2112 
Q 3559 1806 3559 1356 
Q 3559 666 3084 287 
Q 2609 -91 1734 -91 
Q 1441 -91 1130 -33 
Q 819 25 488 141 
L 488 750 
Q 750 597 1062 519 
Q 1375 441 1716 441 
Q 2309 441 2620 675 
Q 2931 909 2931 1356 
Q 2931 1769 2642 2001 
Q 2353 2234 1838 2234 
L 1294 2234 
L 1294 2753 
L 1863 2753 
Q 2328 2753 2575 2939 
Q 2822 3125 2822 3475 
Q 2822 3834 2567 4026 
Q 2313 4219 1838 4219 
Q 1578 4219 1281 4162 
Q 984 4106 628 3988 
L 628 4550 
Q 988 4650 1302 4700 
Q 1616 4750 1894 4750 
Q 2613 4750 3031 4423 
Q 3450 4097 3450 3541 
Q 3450 3153 3228 2886 
Q 3006 2619 2597 2516 
z
" transform="scale(0.015625)"/>
       </defs>
       <use xlink:href="#DejaVuSans-32"/>
       <use xlink:href="#DejaVuSans-30" x="63.623047"/>
       <use xlink:href="#DejaVuSans-31" x="127.246094"/>
       <use xlink:href="#DejaVuSans-33" x="190.869141"/>
      </g>
     </g>
    </g>
    <g id="xtick_4">
     <g id="line2d_4">
      <g>
       <use xlink:href="#m8bbbf06417" x="789.567866" y="320.4" style="stroke: #000000; stroke-width: 0.8"/>
      </g>
     </g>
     <g id="text_4">
      <!-- 2014 -->
      <g transform="translate(770.480366 338.797656) scale(0.15 -0.15)">
       <defs>
        <path id="DejaVuSans-34" d="M 2419 4116 
L 825 1625 
L 2419 1625 
L 2419 4116 
z
M 2253 4666 
L 3047 4666 
L 3047 1625 
L 3713 1625 
L 3713 1100 
L 3047 1100 
L 3047 0 
L 2419 0 
L 2419 1100 
L 313 1100 
L 313 1709 
L 2253 4666 
z
" transform="scale(0.015625)"/>
       </defs>
       <use xlink:href="#DejaVuSans-32"/>
       <use xlink:href="#DejaVuSans-30" x="63.623047"/>
       <use xlink:href="#DejaVuSans-31" x="127.246094"/>
       <use xlink:href="#DejaVuSans-34" x="190.869141"/>
      </g>
     </g>
    </g>
    <g id="xtick_5">
     <g id="line2d_5">
      <g>
       <use xlink:href="#m8bbbf06417" x="958.627897" y="320.4" style="stroke: #000000; stroke-width: 0.8"/>
      </g>
     </g>
     <g id="text_5">
      <!-- 2015 -->
      <g transform="translate(939.540397 338.797656) scale(0.15 -0.15)">
       <defs>
        <path id="DejaVuSans-35" d="M 691 4666 
L 3169 4666 
L 3169 4134 
L 1269 4134 
L 1269 2991 
Q 1406 3038 1543 3061 
Q 1681 3084 1819 3084 
Q 2600 3084 3056 2656 
Q 3513 2228 3513 1497 
Q 3513 744 3044 326 
Q 2575 -91 1722 -91 
Q 1428 -91 1123 -41 
Q 819 9 494 109 
L 494 744 
Q 775 591 1075 516 
Q 1375 441 1709 441 
Q 2250 441 2565 725 
Q 2881 1009 2881 1497 
Q 2881 1984 2565 2268 
Q 2250 2553 1709 2553 
Q 1456 2553 1204 2497 
Q 953 2441 691 2322 
L 691 4666 
z
" transform="scale(0.015625)"/>
       </defs>
       <use xlink:href="#DejaVuSans-32"/>
       <use xlink:href="#DejaVuSans-30" x="63.623047"/>
       <use xlink:href="#DejaVuSans-31" x="127.246094"/>
       <use xlink:href="#DejaVuSans-35" x="190.869141"/>
      </g>
     </g>
    </g>
    <g id="xtick_6">
     <g id="line2d_6">
      <g>
       <use xlink:href="#m8bbbf06417" x="1127.687927" y="320.4" style="stroke: #000000; stroke-width: 0.8"/>
      </g>
     </g>
     <g id="text_6">
      <!-- 2016 -->
      <g transform="translate(1108.600427 338.797656) scale(0.15 -0.15)">
       <defs>
        <path id="DejaVuSans-36" d="M 2113 2584 
Q 1688 2584 1439 2293 
Q 1191 2003 1191 1497 
Q 1191 994 1439 701 
Q 1688 409 2113 409 
Q 2538 409 2786 701 
Q 3034 994 3034 1497 
Q 3034 2003 2786 2293 
Q 2538 2584 2113 2584 
z
M 3366 4563 
L 3366 3988 
Q 3128 4100 2886 4159 
Q 2644 4219 2406 4219 
Q 1781 4219 1451 3797 
Q 1122 3375 1075 2522 
Q 1259 2794 1537 2939 
Q 1816 3084 2150 3084 
Q 2853 3084 3261 2657 
Q 3669 2231 3669 1497 
Q 3669 778 3244 343 
Q 2819 -91 2113 -91 
Q 1303 -91 875 529 
Q 447 1150 447 2328 
Q 447 3434 972 4092 
Q 1497 4750 2381 4750 
Q 2619 4750 2861 4703 
Q 3103 4656 3366 4563 
z
" transform="scale(0.015625)"/>
       </defs>
       <use xlink:href="#DejaVuSans-32"/>
       <use xlink:href="#DejaVuSans-30" x="63.623047"/>
       <use xlink:href="#DejaVuSans-31" x="127.246094"/>
       <use xlink:href="#DejaVuSans-36" x="190.869141"/>
      </g>
     </g>
    </g>
    <g id="xtick_7">
     <g id="line2d_7">
      <g>
       <use xlink:href="#m8bbbf06417" x="1297.211136" y="320.4" style="stroke: #000000; stroke-width: 0.8"/>
      </g>
     </g>
     <g id="text_7">
      <!-- 2017 -->
      <g transform="translate(1278.123636 338.797656) scale(0.15 -0.15)">
       <defs>
        <path id="DejaVuSans-37" d="M 525 4666 
L 3525 4666 
L 3525 4397 
L 1831 0 
L 1172 0 
L 2766 4134 
L 525 4134 
L 525 4666 
z
" transform="scale(0.015625)"/>
       </defs>
       <use xlink:href="#DejaVuSans-32"/>
       <use xlink:href="#DejaVuSans-30" x="63.623047"/>
       <use xlink:href="#DejaVuSans-31" x="127.246094"/>
       <use xlink:href="#DejaVuSans-37" x="190.869141"/>
      </g>
     </g>
    </g>
    <g id="xtick_8">
     <g id="line2d_8">
      <g>
       <use xlink:href="#m8bbbf06417" x="1466.271167" y="320.4" style="stroke: #000000; stroke-width: 0.8"/>
      </g>
     </g>
     <g id="text_8">
      <!-- 2018 -->
      <g transform="translate(1447.183667 338.797656) scale(0.15 -0.15)">
       <defs>
        <path id="DejaVuSans-38" d="M 2034 2216 
Q 1584 2216 1326 1975 
Q 1069 1734 1069 1313 
Q 1069 891 1326 650 
Q 1584 409 2034 409 
Q 2484 409 2743 651 
Q 3003 894 3003 1313 
Q 3003 1734 2745 1975 
Q 2488 2216 2034 2216 
z
M 1403 2484 
Q 997 2584 770 2862 
Q 544 3141 544 3541 
Q 544 4100 942 4425 
Q 1341 4750 2034 4750 
Q 2731 4750 3128 4425 
Q 3525 4100 3525 3541 
Q 3525 3141 3298 2862 
Q 3072 2584 2669 2484 
Q 3125 2378 3379 2068 
Q 3634 1759 3634 1313 
Q 3634 634 3220 271 
Q 2806 -91 2034 -91 
Q 1263 -91 848 271 
Q 434 634 434 1313 
Q 434 1759 690 2068 
Q 947 2378 1403 2484 
z
M 1172 3481 
Q 1172 3119 1398 2916 
Q 1625 2713 2034 2713 
Q 2441 2713 2670 2916 
Q 2900 3119 2900 3481 
Q 2900 3844 2670 4047 
Q 2441 4250 2034 4250 
Q 1625 4250 1398 4047 
Q 1172 3844 1172 3481 
z
" transform="scale(0.015625)"/>
       </defs>
       <use xlink:href="#DejaVuSans-32"/>
       <use xlink:href="#DejaVuSans-30" x="63.623047"/>
       <use xlink:href="#DejaVuSans-31" x="127.246094"/>
       <use xlink:href="#DejaVuSans-38" x="190.869141"/>
      </g>
     </g>
    </g>
    <g id="text_9">
     <!-- Time -->
     <g transform="translate(904.149609 357.314844) scale(0.15 -0.15)">
      <defs>
       <path id="DejaVuSans-54" d="M -19 4666 
L 3928 4666 
L 3928 4134 
L 2272 4134 
L 2272 0 
L 1638 0 
L 1638 4134 
L -19 4134 
L -19 4666 
z
" transform="scale(0.015625)"/>
       <path id="DejaVuSans-69" d="M 603 3500 
L 1178 3500 
L 1178 0 
L 603 0 
L 603 3500 
z
M 603 4863 
L 1178 4863 
L 1178 4134 
L 603 4134 
L 603 4863 
z
" transform="scale(0.015625)"/>
       <path id="DejaVuSans-6d" d="M 3328 2828 
Q 3544 3216 3844 3400 
Q 4144 3584 4550 3584 
Q 5097 3584 5394 3201 
Q 5691 2819 5691 2113 
L 5691 0 
L 5113 0 
L 5113 2094 
Q 5113 2597 4934 2840 
Q 4756 3084 4391 3084 
Q 3944 3084 3684 2787 
Q 3425 2491 3425 1978 
L 3425 0 
L 2847 0 
L 2847 2094 
Q 2847 2600 2669 2842 
Q 2491 3084 2119 3084 
Q 1678 3084 1418 2786 
Q 1159 2488 1159 1978 
L 1159 0 
L 581 0 
L 581 3500 
L 1159 3500 
L 1159 2956 
Q 1356 3278 1631 3431 
Q 1906 3584 2284 3584 
Q 2666 3584 2933 3390 
Q 3200 3197 3328 2828 
z
" transform="scale(0.015625)"/>
       <path id="DejaVuSans-65" d="M 3597 1894 
L 3597 1613 
L 953 1613 
Q 991 1019 1311 708 
Q 1631 397 2203 397 
Q 2534 397 2845 478 
Q 3156 559 3463 722 
L 3463 178 
Q 3153 47 2828 -22 
Q 2503 -91 2169 -91 
Q 1331 -91 842 396 
Q 353 884 353 1716 
Q 353 2575 817 3079 
Q 1281 3584 2069 3584 
Q 2775 3584 3186 3129 
Q 3597 2675 3597 1894 
z
M 3022 2063 
Q 3016 2534 2758 2815 
Q 2500 3097 2075 3097 
Q 1594 3097 1305 2825 
Q 1016 2553 972 2059 
L 3022 2063 
z
" transform="scale(0.015625)"/>
      </defs>
      <use xlink:href="#DejaVuSans-54"/>
      <use xlink:href="#DejaVuSans-69" x="57.958984"/>
      <use xlink:href="#DejaVuSans-6d" x="85.742188"/>
      <use xlink:href="#DejaVuSans-65" x="183.154297"/>
     </g>
    </g>
   </g>
   <g id="matplotlib.axis_2">
    <g id="ytick_1">
     <g id="line2d_9">
      <defs>
       <path id="m6ab30405ce" d="M 0 0 
L -3.5 0 
" style="stroke: #000000; stroke-width: 0.8"/>
      </defs>
      <g>
       <use xlink:href="#m6ab30405ce" x="225" y="304.797999" style="stroke: #000000; stroke-width: 0.8"/>
      </g>
     </g>
     <g id="text_10">
      <!-- −0.004 -->
      <g transform="translate(162.488281 310.496828) scale(0.15 -0.15)">
       <defs>
        <path id="DejaVuSans-2212" d="M 678 2272 
L 4684 2272 
L 4684 1741 
L 678 1741 
L 678 2272 
z
" transform="scale(0.015625)"/>
        <path id="DejaVuSans-2e" d="M 684 794 
L 1344 794 
L 1344 0 
L 684 0 
L 684 794 
z
" transform="scale(0.015625)"/>
       </defs>
       <use xlink:href="#DejaVuSans-2212"/>
       <use xlink:href="#DejaVuSans-30" x="83.789062"/>
       <use xlink:href="#DejaVuSans-2e" x="147.412109"/>
       <use xlink:href="#DejaVuSans-30" x="179.199219"/>
       <use xlink:href="#DejaVuSans-30" x="242.822266"/>
       <use xlink:href="#DejaVuSans-34" x="306.445312"/>
      </g>
     </g>
    </g>
    <g id="ytick_2">
     <g id="line2d_10">
      <g>
       <use xlink:href="#m6ab30405ce" x="225" y="270.810704" style="stroke: #000000; stroke-width: 0.8"/>
      </g>
     </g>
     <g id="text_11">
      <!-- −0.003 -->
      <g transform="translate(162.488281 276.509532) scale(0.15 -0.15)">
       <use xlink:href="#DejaVuSans-2212"/>
       <use xlink:href="#DejaVuSans-30" x="83.789062"/>
       <use xlink:href="#DejaVuSans-2e" x="147.412109"/>
       <use xlink:href="#DejaVuSans-30" x="179.199219"/>
       <use xlink:href="#DejaVuSans-30" x="242.822266"/>
       <use xlink:href="#DejaVuSans-33" x="306.445312"/>
      </g>
     </g>
    </g>
    <g id="ytick_3">
     <g id="line2d_11">
      <g>
       <use xlink:href="#m6ab30405ce" x="225" y="236.823409" style="stroke: #000000; stroke-width: 0.8"/>
      </g>
     </g>
     <g id="text_12">
      <!-- −0.002 -->
      <g transform="translate(162.488281 242.522237) scale(0.15 -0.15)">
       <use xlink:href="#DejaVuSans-2212"/>
       <use xlink:href="#DejaVuSans-30" x="83.789062"/>
       <use xlink:href="#DejaVuSans-2e" x="147.412109"/>
       <use xlink:href="#DejaVuSans-30" x="179.199219"/>
       <use xlink:href="#DejaVuSans-30" x="242.822266"/>
       <use xlink:href="#DejaVuSans-32" x="306.445312"/>
      </g>
     </g>
    </g>
    <g id="ytick_4">
     <g id="line2d_12">
      <g>
       <use xlink:href="#m6ab30405ce" x="225" y="202.836114" style="stroke: #000000; stroke-width: 0.8"/>
      </g>
     </g>
     <g id="text_13">
      <!-- −0.001 -->
      <g transform="translate(162.488281 208.534942) scale(0.15 -0.15)">
       <use xlink:href="#DejaVuSans-2212"/>
       <use xlink:href="#DejaVuSans-30" x="83.789062"/>
       <use xlink:href="#DejaVuSans-2e" x="147.412109"/>
       <use xlink:href="#DejaVuSans-30" x="179.199219"/>
       <use xlink:href="#DejaVuSans-30" x="242.822266"/>
       <use xlink:href="#DejaVuSans-31" x="306.445312"/>
      </g>
     </g>
    </g>
    <g id="ytick_5">
     <g id="line2d_13">
      <g>
       <use xlink:href="#m6ab30405ce" x="225" y="168.848819" style="stroke: #000000; stroke-width: 0.8"/>
      </g>
     </g>
     <g id="text_14">
      <!-- 0.000 -->
      <g transform="translate(175.057813 174.547647) scale(0.15 -0.15)">
       <use xlink:href="#DejaVuSans-30"/>
       <use xlink:href="#DejaVuSans-2e" x="63.623047"/>
       <use xlink:href="#DejaVuSans-30" x="95.410156"/>
       <use xlink:href="#DejaVuSans-30" x="159.033203"/>
       <use xlink:href="#DejaVuSans-30" x="222.65625"/>
      </g>
     </g>
    </g>
    <g id="ytick_6">
     <g id="line2d_14">
      <g>
       <use xlink:href="#m6ab30405ce" x="225" y="134.861524" style="stroke: #000000; stroke-width: 0.8"/>
      </g>
     </g>
     <g id="text_15">
      <!-- 0.001 -->
      <g transform="translate(175.057813 140.560352) scale(0.15 -0.15)">
       <use xlink:href="#DejaVuSans-30"/>
       <use xlink:href="#DejaVuSans-2e" x="63.623047"/>
       <use xlink:href="#DejaVuSans-30" x="95.410156"/>
       <use xlink:href="#DejaVuSans-30" x="159.033203"/>
       <use xlink:href="#DejaVuSans-31" x="222.65625"/>
      </g>
     </g>
    </g>
    <g id="ytick_7">
     <g id="line2d_15">
      <g>
       <use xlink:href="#m6ab30405ce" x="225" y="100.874229" style="stroke: #000000; stroke-width: 0.8"/>
      </g>
     </g>
     <g id="text_16">
      <!-- 0.002 -->
      <g transform="translate(175.057813 106.573057) scale(0.15 -0.15)">
       <use xlink:href="#DejaVuSans-30"/>
       <use xlink:href="#DejaVuSans-2e" x="63.623047"/>
       <use xlink:href="#DejaVuSans-30" x="95.410156"/>
       <use xlink:href="#DejaVuSans-30" x="159.033203"/>
       <use xlink:href="#DejaVuSans-32" x="222.65625"/>
      </g>
     </g>
    </g>
    <g id="ytick_8">
     <g id="line2d_16">
      <g>
       <use xlink:href="#m6ab30405ce" x="225" y="66.886933" style="stroke: #000000; stroke-width: 0.8"/>
      </g>
     </g>
     <g id="text_17">
      <!-- 0.003 -->
      <g transform="translate(175.057813 72.585762) scale(0.15 -0.15)">
       <use xlink:href="#DejaVuSans-30"/>
       <use xlink:href="#DejaVuSans-2e" x="63.623047"/>
       <use xlink:href="#DejaVuSans-30" x="95.410156"/>
       <use xlink:href="#DejaVuSans-30" x="159.033203"/>
       <use xlink:href="#DejaVuSans-33" x="222.65625"/>
      </g>
     </g>
    </g>
    <g id="text_18">
     <!-- East(m) -->
     <g transform="translate(155.36875 211.140234) rotate(-90) scale(0.15 -0.15)">
      <defs>
       <path id="DejaVuSans-45" d="M 628 4666 
L 3578 4666 
L 3578 4134 
L 1259 4134 
L 1259 2753 
L 3481 2753 
L 3481 2222 
L 1259 2222 
L 1259 531 
L 3634 531 
L 3634 0 
L 628 0 
L 628 4666 
z
" transform="scale(0.015625)"/>
       <path id="DejaVuSans-61" d="M 2194 1759 
Q 1497 1759 1228 1600 
Q 959 1441 959 1056 
Q 959 750 1161 570 
Q 1363 391 1709 391 
Q 2188 391 2477 730 
Q 2766 1069 2766 1631 
L 2766 1759 
L 2194 1759 
z
M 3341 1997 
L 3341 0 
L 2766 0 
L 2766 531 
Q 2569 213 2275 61 
Q 1981 -91 1556 -91 
Q 1019 -91 701 211 
Q 384 513 384 1019 
Q 384 1609 779 1909 
Q 1175 2209 1959 2209 
L 2766 2209 
L 2766 2266 
Q 2766 2663 2505 2880 
Q 2244 3097 1772 3097 
Q 1472 3097 1187 3025 
Q 903 2953 641 2809 
L 641 3341 
Q 956 3463 1253 3523 
Q 1550 3584 1831 3584 
Q 2591 3584 2966 3190 
Q 3341 2797 3341 1997 
z
" transform="scale(0.015625)"/>
       <path id="DejaVuSans-73" d="M 2834 3397 
L 2834 2853 
Q 2591 2978 2328 3040 
Q 2066 3103 1784 3103 
Q 1356 3103 1142 2972 
Q 928 2841 928 2578 
Q 928 2378 1081 2264 
Q 1234 2150 1697 2047 
L 1894 2003 
Q 2506 1872 2764 1633 
Q 3022 1394 3022 966 
Q 3022 478 2636 193 
Q 2250 -91 1575 -91 
Q 1294 -91 989 -36 
Q 684 19 347 128 
L 347 722 
Q 666 556 975 473 
Q 1284 391 1588 391 
Q 1994 391 2212 530 
Q 2431 669 2431 922 
Q 2431 1156 2273 1281 
Q 2116 1406 1581 1522 
L 1381 1569 
Q 847 1681 609 1914 
Q 372 2147 372 2553 
Q 372 3047 722 3315 
Q 1072 3584 1716 3584 
Q 2034 3584 2315 3537 
Q 2597 3491 2834 3397 
z
" transform="scale(0.015625)"/>
       <path id="DejaVuSans-74" d="M 1172 4494 
L 1172 3500 
L 2356 3500 
L 2356 3053 
L 1172 3053 
L 1172 1153 
Q 1172 725 1289 603 
Q 1406 481 1766 481 
L 2356 481 
L 2356 0 
L 1766 0 
Q 1100 0 847 248 
Q 594 497 594 1153 
L 594 3053 
L 172 3053 
L 172 3500 
L 594 3500 
L 594 4494 
L 1172 4494 
z
" transform="scale(0.015625)"/>
       <path id="DejaVuSans-28" d="M 1984 4856 
Q 1566 4138 1362 3434 
Q 1159 2731 1159 2009 
Q 1159 1288 1364 580 
Q 1569 -128 1984 -844 
L 1484 -844 
Q 1016 -109 783 600 
Q 550 1309 550 2009 
Q 550 2706 781 3412 
Q 1013 4119 1484 4856 
L 1984 4856 
z
" transform="scale(0.015625)"/>
       <path id="DejaVuSans-29" d="M 513 4856 
L 1013 4856 
Q 1481 4119 1714 3412 
Q 1947 2706 1947 2009 
Q 1947 1309 1714 600 
Q 1481 -109 1013 -844 
L 513 -844 
Q 928 -128 1133 580 
Q 1338 1288 1338 2009 
Q 1338 2731 1133 3434 
Q 928 4138 513 4856 
z
" transform="scale(0.015625)"/>
      </defs>
      <use xlink:href="#DejaVuSans-45"/>
      <use xlink:href="#DejaVuSans-61" x="63.183594"/>
      <use xlink:href="#DejaVuSans-73" x="124.462891"/>
      <use xlink:href="#DejaVuSans-74" x="176.5625"/>
      <use xlink:href="#DejaVuSans-28" x="215.771484"/>
      <use xlink:href="#DejaVuSans-6d" x="254.785156"/>
      <use xlink:href="#DejaVuSans-29" x="352.197266"/>
     </g>
    </g>
   </g>
   <g id="line2d_17">
    <path d="M 288.409091 157.233256 
L 288.872269 146.195577 
L 289.335447 161.532039 
L 289.798625 165.975573 
L 290.261804 157.537922 
L 290.724982 156.356559 
L 291.18816 155.90835 
L 292.114516 150.901287 
L 292.577694 139.240608 
L 293.040873 131.600139 
L 293.504051 134.850172 
L 293.967229 135.434629 
L 294.430407 131.756109 
L 294.893585 135.282895 
L 295.819942 146.264427 
L 296.28312 155.326287 
L 296.746298 156.755571 
L 297.209476 159.937629 
L 297.672654 166.21253 
L 298.135832 161.193939 
L 298.599011 163.560302 
L 299.062189 164.251576 
L 299.525367 165.845942 
L 299.988545 168.14433 
L 300.451723 161.591455 
L 300.914901 158.981107 
L 301.37808 160.614315 
L 301.841258 159.31005 
L 302.304436 169.056511 
L 302.767614 168.85926 
L 303.230792 166.360584 
L 304.157149 170.845688 
L 304.620327 174.828874 
L 305.083505 167.848731 
L 305.546683 156.348277 
L 306.009861 149.339002 
L 306.473039 144.728258 
L 306.936218 135.97592 
L 307.862574 113.960644 
L 308.325752 113.248729 
L 309.252108 100.681921 
L 309.715287 97.998742 
L 310.178465 106.579925 
L 311.567999 142.539081 
L 312.494356 157.555391 
L 313.420712 178.11163 
L 313.88389 175.39932 
L 314.347068 175.80413 
L 314.810246 169.25611 
L 315.273425 168.587893 
L 315.736603 160.13173 
L 316.199781 155.564684 
L 316.662959 149.526474 
L 317.589315 154.754443 
L 318.052494 162.325717 
L 318.515672 161.43901 
L 318.97885 174.171498 
L 319.442028 175.474544 
L 320.368384 183.55259 
L 320.831563 181.282114 
L 321.757919 194.424268 
L 322.221097 187.735444 
L 322.684275 187.319703 
L 323.147453 181.883554 
L 323.610632 169.266375 
L 324.536988 154.534091 
L 325.000166 152.210207 
L 325.463344 158.480253 
L 325.926522 162.308069 
L 326.389701 172.277875 
L 326.852879 191.026114 
L 327.779235 213.98574 
L 328.242413 220.799583 
L 328.705591 222.131761 
L 329.16877 226.367425 
L 329.631948 224.766985 
L 330.095126 218.981252 
L 330.558304 214.681249 
L 331.021482 204.088742 
L 332.411017 188.430908 
L 332.874195 176.406079 
L 333.337373 169.780374 
L 333.800551 166.553399 
L 334.263729 168.327412 
L 335.190086 178.570934 
L 335.653264 178.422237 
L 336.116442 182.390858 
L 336.57962 184.83005 
L 337.042798 182.33623 
L 337.505976 177.04574 
L 337.969155 167.166966 
L 338.432333 165.901543 
L 338.895511 159.445775 
L 339.358689 156.480988 
L 339.821867 158.449214 
L 340.285045 158.193699 
L 340.748224 158.690761 
L 341.211402 159.440299 
L 341.67458 154.339167 
L 342.600936 177.755194 
L 343.064114 179.097083 
L 343.527293 185.202048 
L 343.990471 189.160958 
L 344.453649 190.769889 
L 344.916827 197.205017 
L 345.380005 192.259256 
L 346.306362 184.329286 
L 346.76954 177.723003 
L 347.232718 179.283381 
L 347.695896 180.134881 
L 348.159074 178.568428 
L 348.622252 187.256428 
L 349.085431 188.603171 
L 349.548609 193.101023 
L 350.011787 203.29903 
L 350.474965 200.314821 
L 350.938143 202.749158 
L 351.401321 209.378499 
L 351.8645 199.14043 
L 352.327678 205.172565 
L 353.254034 212.595142 
L 354.18039 233.379581 
L 354.643569 232.138435 
L 355.106747 244.424233 
L 355.569925 240.930215 
L 356.033103 241.262195 
L 356.496281 232.383618 
L 357.422638 221.695822 
L 357.885816 224.907012 
L 358.348994 224.568957 
L 358.812172 227.207218 
L 359.27535 226.898295 
L 359.738528 234.785165 
L 360.201707 233.500321 
L 360.664885 239.896606 
L 361.128063 241.758015 
L 361.591241 242.920256 
L 362.517597 246.885839 
L 362.980776 248.999725 
L 363.443954 260.848543 
L 363.907132 261.151391 
L 364.37031 267.746744 
L 364.833488 268.729339 
L 365.296666 268.48839 
L 365.759845 264.717618 
L 366.223023 269.060099 
L 367.149379 256.143708 
L 367.612557 240.530791 
L 368.075735 237.473753 
L 368.538914 228.978747 
L 369.002092 232.23849 
L 369.46527 231.711077 
L 369.928448 228.590919 
L 370.391626 223.033387 
L 370.854804 232.541937 
L 371.317983 232.446648 
L 371.781161 246.912488 
L 372.244339 251.662816 
L 372.707517 252.606568 
L 373.170695 261.280002 
L 373.633873 278.537655 
L 375.023408 289.234541 
L 375.486586 285.531743 
L 375.949764 280.887013 
L 376.412942 278.927278 
L 377.802477 257.43334 
L 378.265655 251.76899 
L 378.728833 258.403186 
L 379.192011 258.069987 
L 379.65519 254.546836 
L 380.118368 259.005845 
L 380.581546 265.809978 
L 381.044724 267.278105 
L 381.97108 261.212581 
L 382.434259 265.011265 
L 382.897437 264.187677 
L 383.360615 265.000335 
L 383.823793 260.612937 
L 384.286971 259.551438 
L 384.750149 261.213778 
L 385.676506 243.063343 
L 386.139684 243.744907 
L 386.602862 237.201743 
L 387.529218 244.41554 
L 387.992397 243.970668 
L 388.918753 259.093795 
L 389.381931 264.630687 
L 389.845109 265.307395 
L 390.771466 263.135844 
L 391.234644 261.574247 
L 391.697822 249.190123 
L 392.161 247.346917 
L 392.624178 237.817726 
L 393.087356 235.304484 
L 394.013713 226.306342 
L 394.476891 223.933905 
L 394.940069 226.271135 
L 395.403247 219.897908 
L 395.866425 208.368322 
L 396.329604 216.060979 
L 396.792782 215.266524 
L 397.25596 213.030035 
L 397.719138 216.799588 
L 398.182316 215.791498 
L 398.645494 212.083845 
L 399.108673 217.217745 
L 399.571851 198.924687 
L 400.035029 198.028269 
L 400.498207 204.681887 
L 400.961385 206.203422 
L 401.424563 211.332466 
L 402.35092 246.003143 
L 402.814098 256.968292 
L 403.277276 253.969517 
L 404.203632 232.289258 
L 404.666811 232.41246 
L 405.129989 223.791215 
L 405.593167 207.105271 
L 406.056345 201.343815 
L 406.982701 204.925828 
L 407.44588 210.341336 
L 407.909058 207.551341 
L 408.372236 207.795925 
L 409.298592 227.012093 
L 409.76177 229.388167 
L 410.224949 232.346879 
L 410.688127 233.479989 
L 411.151305 235.90947 
L 411.614483 235.372347 
L 412.540839 212.439414 
L 413.004018 213.300625 
L 413.467196 210.224165 
L 413.930374 208.842215 
L 414.393552 206.159036 
L 414.85673 193.527291 
L 415.783087 198.842656 
L 416.246265 192.289781 
L 416.709443 189.373547 
L 417.172621 184.646275 
L 417.635799 181.802871 
L 418.098977 181.722149 
L 418.562156 180.155696 
L 419.488512 165.617625 
L 420.878046 131.844562 
L 421.341225 133.380664 
L 421.804403 128.303809 
L 422.267581 130.189494 
L 422.730759 132.662674 
L 423.193937 140.471859 
L 423.657115 153.913225 
L 424.120294 156.332996 
L 424.583472 155.266642 
L 425.04665 152.282433 
L 425.509828 153.400976 
L 426.436184 137.231515 
L 426.899363 133.582127 
L 427.362541 133.952949 
L 427.825719 131.022149 
L 428.288897 137.690332 
L 428.752075 131.656978 
L 429.678432 144.34273 
L 430.14161 141.19344 
L 430.604788 144.064757 
L 431.067966 151.009694 
L 431.531144 150.642507 
L 431.994322 155.902645 
L 432.4575 153.583616 
L 432.920679 154.750713 
L 433.847035 135.473842 
L 434.310213 127.250734 
L 434.773391 122.54774 
L 435.236569 113.062247 
L 435.699748 112.015314 
L 436.162926 101.121776 
L 436.626104 107.658865 
L 437.089282 110.525327 
L 437.55246 115.882571 
L 438.015638 118.826718 
L 438.478817 123.712996 
L 438.941995 125.443311 
L 439.405173 129.931451 
L 440.331529 117.850176 
L 441.257886 95.830045 
L 442.184242 81.554162 
L 442.64742 80.716008 
L 443.110598 89.389441 
L 443.573776 87.745303 
L 444.036955 94.25326 
L 444.500133 98.207315 
L 444.963311 100.185252 
L 445.426489 103.139109 
L 445.889667 96.411443 
L 446.352845 94.170099 
L 446.816024 101.32867 
L 447.279202 93.523121 
L 447.74238 93.141368 
L 448.205558 92.322636 
L 448.668736 94.703564 
L 449.131914 103.168219 
L 449.595093 105.787058 
L 450.058271 107.444543 
L 450.984627 123.261982 
L 451.447805 121.646976 
L 451.910983 123.765717 
L 452.374162 130.36107 
L 452.83734 133.703353 
L 453.300518 135.147204 
L 453.763696 134.648923 
L 454.226874 128.212576 
L 454.690052 134.44378 
L 455.153231 133.149225 
L 455.616409 133.437507 
L 456.079587 133.487879 
L 456.542765 131.824319 
L 457.469121 149.112922 
L 457.9323 152.324112 
L 458.395478 148.936911 
L 458.858656 133.833804 
L 459.321834 128.800647 
L 459.785012 131.997271 
L 460.24819 120.263761 
L 460.711369 116.250223 
L 461.174547 115.397503 
L 461.637725 118.249398 
L 462.100903 122.514194 
L 463.027259 110.67083 
L 463.953616 109.538319 
L 464.879972 98.981617 
L 465.34315 99.211636 
L 465.806328 100.179664 
L 466.269507 94.45705 
L 466.732685 97.279814 
L 467.195863 95.101589 
L 467.659041 94.433372 
L 468.585397 99.622498 
L 469.511754 107.977298 
L 469.974932 108.158763 
L 470.43811 112.855683 
L 470.901288 119.829752 
L 471.364466 129.061548 
L 471.827645 134.428503 
L 472.290823 138.426256 
L 472.754001 146.206309 
L 473.217179 146.489736 
L 473.680357 146.185669 
L 474.143535 134.524989 
L 475.069892 124.424688 
L 475.996248 128.438824 
L 476.459426 136.24801 
L 476.922604 138.711479 
L 477.385783 150.215568 
L 478.312139 165.314419 
L 478.775317 164.136392 
L 479.238495 163.84689 
L 479.701673 162.396965 
L 480.164852 164.841013 
L 480.62803 170.256522 
L 481.091208 168.209391 
L 482.943921 144.294463 
L 483.870277 148.789277 
L 484.333455 151.461525 
L 484.796633 154.794098 
L 485.259811 173.998738 
L 486.186168 181.440736 
L 486.649346 181.767861 
L 487.112524 173.437936 
L 487.575702 171.371384 
L 488.03888 166.911156 
L 488.502059 153.905551 
L 488.965237 158.272308 
L 489.891593 148.269113 
L 490.817949 159.473991 
L 491.281128 168.963119 
L 491.744306 181.88982 
L 492.207484 183.678399 
L 492.670662 192.662573 
L 493.13384 196.815697 
L 493.597018 199.206336 
L 494.060197 191.478472 
L 494.523375 187.683423 
L 495.449731 168.241471 
L 495.912909 166.490516 
L 496.376087 169.376398 
L 496.839266 161.211555 
L 497.302444 164.131425 
L 497.765622 159.705184 
L 498.2288 158.566 
L 498.691978 164.272828 
L 499.155156 165.051498 
L 499.618335 163.247134 
L 500.081513 164.856066 
L 500.544691 160.79883 
L 501.007869 165.194719 
L 501.471047 160.224682 
L 501.934225 152.025851 
L 502.860582 142.352818 
L 503.32376 141.436979 
L 503.786938 145.575536 
L 504.250116 145.752146 
L 504.713294 151.458974 
L 505.176473 155.616953 
L 505.639651 154.103909 
L 506.102829 155.101069 
L 506.566007 151.835251 
L 507.029185 149.817253 
L 507.492363 153.047864 
L 507.955542 158.900352 
L 508.41872 155.498585 
L 508.881898 159.408942 
L 509.345076 158.342588 
L 509.808254 160.04377 
L 510.271432 163.609399 
L 510.734611 161.678796 
L 511.197789 155.101645 
L 512.124145 177.007665 
L 512.587323 178.441805 
L 513.050501 186.134462 
L 513.51368 191.180966 
L 513.976858 191.459537 
L 514.440036 196.554594 
L 514.903214 188.5257 
L 515.366392 184.230553 
L 515.82957 185.528743 
L 516.292749 182.627075 
L 516.755927 177.982344 
L 517.219105 177.692842 
L 517.682283 183.176326 
L 518.145461 197.860655 
L 519.071818 192.790473 
L 519.534996 201.808635 
L 519.998174 199.509028 
L 520.461352 203.05038 
L 520.92453 196.007117 
L 521.387708 185.637954 
L 521.850887 181.716667 
L 522.314065 181.665077 
L 522.777243 183.638158 
L 523.240421 195.855981 
L 523.703599 199.115724 
L 525.093134 222.70836 
L 525.556312 234.027948 
L 526.01949 233.777289 
L 526.482668 235.920306 
L 526.945846 230.746345 
L 527.409025 228.985678 
L 527.872203 229.138012 
L 528.335381 231.625757 
L 528.798559 228.544442 
L 529.724915 221.299074 
L 530.188093 223.519776 
L 530.651272 227.357303 
L 531.11445 216.347238 
L 531.577628 215.373135 
L 532.040806 219.749603 
L 532.967162 235.644727 
L 533.430341 244.031696 
L 533.893519 244.140332 
L 534.356697 259.960808 
L 534.819875 257.869979 
L 535.283053 258.969101 
L 535.746231 259.587546 
L 536.20941 249.878708 
L 536.672588 250.23011 
L 537.135766 258.56367 
L 537.598944 264.872559 
L 538.5253 283.059398 
L 538.988479 280.541301 
L 539.451657 287.126943 
L 539.914835 286.405317 
L 540.841191 266.43899 
L 541.304369 267.266213 
L 541.767548 261.354242 
L 542.230726 273.411839 
L 542.693904 266.111244 
L 543.157082 264.07868 
L 543.62026 266.11488 
L 544.083438 277.249965 
L 544.546617 272.483851 
L 545.009795 270.465852 
L 545.472973 260.951228 
L 545.936151 269.949968 
L 546.399329 269.213776 
L 546.862507 277.819235 
L 547.325686 276.010016 
L 547.788864 276.157494 
L 548.252042 284.35996 
L 548.71522 289.086012 
L 549.178398 287.500138 
L 549.641576 295.503536 
L 550.104755 281.929858 
L 550.567933 272.264718 
L 551.031111 277.049034 
L 551.494289 266.160351 
L 551.957467 257.966376 
L 552.420645 252.66132 
L 552.883824 242.209617 
L 553.347002 243.483531 
L 553.81018 246.728708 
L 554.273358 233.897894 
L 554.736536 224.329861 
L 555.199714 219.403521 
L 555.662893 220.968755 
L 556.126071 226.005548 
L 556.589249 222.467832 
L 557.052427 215.968366 
L 557.515605 224.903987 
L 557.978783 236.60229 
L 558.90514 247.787746 
L 559.368318 243.123594 
L 559.831496 248.29148 
L 560.294674 256.804688 
L 560.757852 252.961086 
L 561.221031 256.405332 
L 561.684209 252.348096 
L 562.147387 241.910959 
L 562.610565 235.333807 
L 563.073743 231.524193 
L 563.536921 217.867974 
L 564.0001 213.873857 
L 564.463278 207.714264 
L 564.926456 207.211127 
L 565.389634 206.426382 
L 565.852812 209.220014 
L 566.31599 208.420703 
L 566.779169 217.832146 
L 567.242347 218.353484 
L 567.705525 220.608174 
L 568.168703 221.289738 
L 569.095059 238.398694 
L 569.558238 245.474725 
L 570.021416 249.88518 
L 570.484594 249.017895 
L 570.947772 241.241477 
L 571.874128 220.041896 
L 572.337307 216.290546 
L 572.800485 206.139873 
L 573.263663 192.211755 
L 573.726841 192.922451 
L 574.190019 194.842124 
L 574.653197 200.616927 
L 575.116376 197.453071 
L 575.579554 187.244134 
L 576.042732 187.707208 
L 576.50591 191.277692 
L 576.969088 186.68637 
L 577.432266 180.79382 
L 577.895445 178.23688 
L 578.358623 177.558952 
L 578.821801 184.144595 
L 579.284979 185.753526 
L 579.748157 184.667751 
L 580.211335 188.447014 
L 581.60087 204.130321 
L 582.064048 201.447143 
L 582.527226 199.725319 
L 582.990404 194.973771 
L 583.453583 206.346767 
L 583.916761 198.526652 
L 584.379939 183.884801 
L 585.306295 169.0457 
L 585.769473 165.799303 
L 586.232652 159.761093 
L 586.69583 141.841896 
L 587.159008 140.047243 
L 587.622186 146.453238 
L 588.548542 162.9747 
L 589.011721 165.899425 
L 589.474899 173.087128 
L 589.938077 174.055156 
L 590.401255 180.364045 
L 590.864433 182.133202 
L 591.327611 171.846581 
L 591.79079 165.458787 
L 592.253968 153.676724 
L 592.717146 151.328564 
L 593.180324 145.236945 
L 593.643502 135.304762 
L 594.10668 133.835416 
L 594.569859 140.624982 
L 595.033037 140.306348 
L 595.496215 145.799542 
L 595.959393 145.927599 
L 596.422571 142.991943 
L 596.885749 142.799548 
L 597.348928 139.941578 
L 597.812106 136.117398 
L 598.275284 135.429759 
L 598.738462 134.159481 
L 599.20164 130.335301 
L 599.664818 132.837612 
L 600.127997 130.120447 
L 600.591175 124.956196 
L 601.054353 116.597139 
L 601.980709 107.395073 
L 602.443887 109.96536 
L 602.907066 110.758596 
L 603.370244 116.69848 
L 603.833422 116.743996 
L 604.2966 112.735313 
L 604.759778 117.52934 
L 605.222956 123.765399 
L 605.686135 119.829546 
L 606.149313 119.355542 
L 606.612491 123.076541 
L 607.538847 149.891297 
L 608.002025 150.878747 
L 608.465204 146.952604 
L 608.928382 147.032108 
L 609.39156 140.935634 
L 609.854738 131.848278 
L 611.244273 100.28439 
L 611.707451 90.760054 
L 612.170629 88.36334 
L 612.633807 83.534107 
L 613.096985 77.272552 
L 613.560163 72.656953 
L 614.023342 74.193055 
L 614.48652 76.433179 
L 614.949698 81.173797 
L 615.412876 79.92294 
L 615.876054 86.382344 
L 616.339232 89.345912 
L 616.802411 97.48526 
L 617.265589 94.03494 
L 617.728767 92.594725 
L 618.191945 100.962273 
L 618.655123 111.723498 
L 619.118301 114.284073 
L 619.58148 117.961375 
L 620.044658 114.210024 
L 620.507836 119.640099 
L 620.971014 116.524796 
L 621.434192 119.405823 
L 621.89737 119.927161 
L 622.360549 124.798873 
L 623.286905 142.451626 
L 623.750083 146.697 
L 624.213261 158.905113 
L 624.676439 161.363727 
L 625.139618 158.112475 
L 626.529152 133.812157 
L 626.99233 130.725987 
L 627.455508 125.056782 
L 627.918686 117.537697 
L 628.381865 115.626516 
L 628.845043 120.507938 
L 629.308221 123.291859 
L 630.234577 136.521408 
L 630.697755 145.02976 
L 631.160934 147.289306 
L 631.624112 147.495048 
L 632.08729 151.997754 
L 632.550468 152.091824 
L 633.013646 159.007628 
L 633.476824 157.378056 
L 633.940003 159.239465 
L 634.403181 164.854042 
L 634.866359 176.052246 
L 635.329537 179.982024 
L 635.792715 193.467087 
L 636.255893 190.041044 
L 636.719072 192.630752 
L 637.18225 189.792203 
L 637.645428 189.459003 
L 638.108606 184.940511 
L 638.571784 176.833931 
L 639.034962 163.318516 
L 639.498141 163.470849 
L 639.961319 150.892513 
L 640.424497 146.781868 
L 640.887675 141.243757 
L 641.350853 132.831292 
L 641.814031 135.299616 
L 642.27721 138.78756 
L 642.740388 138.342687 
L 643.203566 148.040595 
L 643.666744 149.955412 
L 644.129922 141.426419 
L 644.5931 143.38979 
L 645.056279 143.406173 
L 645.519457 141.334766 
L 645.982635 140.613141 
L 646.908991 146.001335 
L 647.372169 153.116208 
L 648.298526 161.310782 
L 648.761704 159.584104 
L 649.224882 162.144679 
L 649.68806 155.310196 
L 651.077595 146.379854 
L 651.540773 148.010547 
L 652.003951 139.056626 
L 652.467129 135.152246 
L 652.930307 130.05831 
L 653.856664 134.006813 
L 654.319842 137.572441 
L 655.246198 130.03879 
L 655.709376 127.646932 
L 656.172555 133.484854 
L 656.635733 136.958231 
L 657.562089 127.892114 
L 658.025267 136.696642 
L 658.488445 134.227098 
L 659.414802 146.674939 
L 659.87798 143.996616 
L 660.341158 152.08741 
L 660.804336 163.494393 
L 661.267514 152.581434 
L 661.730693 155.122589 
L 662.193871 156.483899 
L 662.657049 149.304687 
L 663.120227 150.5786 
L 663.583405 144.715182 
L 664.046583 129.641207 
L 664.97294 132.242444 
L 665.436118 130.947889 
L 665.899296 127.274224 
L 666.362474 118.157736 
L 666.825652 117.397267 
L 667.288831 113.5391 
L 667.752009 106.753169 
L 668.678365 88.034661 
L 669.141543 91.483762 
L 669.604721 97.069207 
L 670.0679 97.503149 
L 670.531078 114.935594 
L 670.994256 116.651342 
L 671.920612 143.101949 
L 672.38379 144.065122 
L 673.310147 150.502068 
L 673.773325 145.332961 
L 674.236503 151.471914 
L 674.699681 146.026054 
L 675.162859 142.993292 
L 676.089216 161.825889 
L 677.015572 171.30227 
L 677.47875 182.243141 
L 677.941928 184.84256 
L 678.405107 184.553058 
L 679.331463 162.756272 
L 679.794641 157.757102 
L 680.257819 146.246938 
L 680.720997 131.197239 
L 681.184176 138.05478 
L 681.647354 151.428171 
L 682.110532 154.712191 
L 682.57371 156.461927 
L 683.036888 145.830577 
L 683.500066 152.94545 
L 683.963245 154.287338 
L 684.426423 147.423723 
L 684.889601 135.398893 
L 685.352779 134.458778 
L 685.815957 134.552847 
L 686.279135 146.809512 
L 686.742314 150.821831 
L 687.205492 159.237932 
L 687.66867 164.590322 
L 688.131848 167.286847 
L 688.595026 175.528156 
L 689.521383 185.422095 
L 689.984561 180.27241 
L 690.447739 172.767891 
L 690.910917 172.764854 
L 691.374095 172.368535 
L 691.837273 165.009675 
L 692.76363 154.215062 
L 693.226808 155.945377 
L 693.689986 162.327096 
L 694.153164 164.008857 
L 694.616342 163.894147 
L 695.079521 168.294892 
L 695.542699 170.394212 
L 696.005877 175.149396 
L 696.469055 175.578483 
L 696.932233 177.784619 
L 697.395411 186.040495 
L 697.85859 192.014366 
L 698.321768 205.960686 
L 699.248124 212.174286 
L 699.711302 224.032814 
L 700.17448 226.321492 
L 700.637659 223.866514 
L 701.100837 218.522616 
L 701.564015 217.203785 
L 702.027193 220.123655 
L 702.490371 219.290356 
L 702.953549 209.363029 
L 703.416728 204.68431 
L 703.879906 204.045225 
L 704.343084 213.170204 
L 704.806262 212.846715 
L 705.26944 213.829309 
L 705.732618 225.605297 
L 706.195797 233.336797 
L 706.658975 244.457316 
L 707.122153 247.50828 
L 707.585331 257.147924 
L 708.048509 257.513891 
L 708.511687 266.964177 
L 708.974866 263.615819 
L 709.438044 271.696903 
L 709.901222 276.942475 
L 710.3644 274.90991 
L 710.827578 265.778856 
L 711.290756 261.11956 
L 711.753935 263.063509 
L 712.217113 260.205539 
L 712.680291 256.177434 
L 713.143469 261.884263 
L 713.606647 260.939292 
L 714.069825 258.547433 
L 714.533004 254.75724 
L 714.996182 243.674344 
L 715.45936 242.574003 
L 715.922538 238.609018 
L 716.385716 227.336764 
L 716.848894 228.974828 
L 717.312073 228.675616 
L 717.775251 238.261851 
L 718.238429 243.837585 
L 718.701607 244.504583 
L 719.164785 242.263239 
L 719.627963 247.34373 
L 720.091142 251.030742 
L 720.55432 259.310894 
L 721.480676 246.71981 
L 721.943854 245.551493 
L 722.407032 247.883869 
L 723.333389 236.254139 
L 723.796567 224.690566 
L 724.259745 226.207246 
L 724.722923 230.384646 
L 725.186101 223.195724 
L 725.64928 219.332701 
L 726.112458 213.498414 
L 726.575636 204.347939 
L 727.038814 208.714697 
L 727.501992 208.633974 
L 727.96517 191.807226 
L 728.891527 205.434912 
L 729.354705 208.413046 
L 729.817883 220.451222 
L 730.281061 218.001099 
L 730.744239 212.759163 
L 731.207417 221.058736 
L 731.670596 218.472664 
L 732.133774 212.881145 
L 732.596952 214.392969 
L 733.06013 202.975056 
L 733.523308 196.931991 
L 734.912843 187.887114 
L 735.839199 168.911273 
L 737.691912 155.721764 
L 738.15509 150.572079 
L 738.618268 149.913572 
L 739.081446 151.153499 
L 739.544624 153.879155 
L 740.007803 155.517219 
L 740.470981 160.704527 
L 740.934159 163.114588 
L 741.860515 173.018237 
L 742.323693 175.209808 
L 742.786872 172.60917 
L 743.713228 186.275699 
L 744.176406 178.800312 
L 744.639584 179.943132 
L 745.102762 170.545035 
L 746.029119 157.58009 
L 746.955475 119.415993 
L 747.418653 114.834382 
L 747.881831 104.805092 
L 748.34501 99.514603 
L 748.808188 92.91803 
L 749.271366 89.224944 
L 749.734544 88.930587 
L 750.197722 91.908721 
L 750.6609 99.41202 
L 751.124079 96.18019 
L 751.587257 106.601541 
L 752.976791 126.096281 
L 753.439969 138.69282 
L 753.903148 136.145591 
L 754.366326 142.439914 
L 754.829504 138.994449 
L 755.292682 137.733881 
L 756.219038 131.794596 
L 756.682217 117.963585 
L 757.145395 115.93102 
L 757.608573 107.154406 
L 758.071751 107.598058 
L 758.534929 111.052014 
L 758.998107 112.155992 
L 759.461286 115.211811 
L 759.924464 119.491173 
L 760.387642 119.750323 
L 760.85082 121.402953 
L 761.313998 121.4776 
L 761.777176 116.745474 
L 762.240355 120.422775 
L 763.166711 106.768373 
L 763.629889 106.915851 
L 764.093067 109.248227 
L 764.556245 104.724879 
L 765.019424 99.089661 
L 765.482602 92.070675 
L 765.94578 97.102613 
L 766.408958 112.524952 
L 766.872136 114.133884 
L 767.335314 118.70942 
L 767.798493 118.196574 
L 768.261671 120.834835 
L 768.724849 127.405911 
L 769.188027 123.999289 
L 769.651205 100.710099 
L 770.114383 101.678127 
L 770.577562 91.67797 
L 771.04074 96.792448 
L 771.503918 98.008098 
L 771.967096 95.859006 
L 772.430274 102.896194 
L 772.893452 116.434666 
L 773.356631 114.052518 
L 773.819809 126.022719 
L 775.209343 141.594354 
L 775.672521 139.891952 
L 776.1357 144.996719 
L 776.598878 152.839892 
L 777.062056 154.827539 
L 777.525234 149.32827 
L 777.988412 151.796595 
L 778.45159 151.652753 
L 778.914769 149.066681 
L 779.377947 148.578111 
L 779.841125 139.335385 
L 780.304303 134.899433 
L 780.767481 136.115083 
L 781.230659 125.391482 
L 781.693838 119.523208 
L 782.157016 120.034835 
L 783.54655 96.598766 
L 784.009728 94.507938 
L 784.936085 106.984911 
L 785.399263 109.589185 
L 785.862441 107.046811 
L 786.325619 111.292186 
L 786.788797 110.759917 
L 787.251976 112.184346 
L 787.715154 107.520194 
L 788.178332 108.60475 
L 788.64151 109.271748 
L 789.104688 110.769007 
L 789.567866 105.629033 
L 790.031045 98.313872 
L 790.494223 85.526756 
L 791.420579 71.940329 
L 791.883757 61.779946 
L 792.346935 55.8 
L 792.810114 61.346602 
L 794.199648 93.445774 
L 794.662826 95.719885 
L 795.589183 111.576166 
L 796.052361 112.626735 
L 796.515539 103.131532 
L 796.978717 100.419221 
L 797.441895 104.159642 
L 797.905073 103.408884 
L 798.368252 96.511281 
L 798.83143 97.673522 
L 799.294608 103.273533 
L 799.757786 115.253445 
L 800.220964 118.556886 
L 800.684142 119.369544 
L 801.147321 126.309625 
L 801.610499 135.133574 
L 802.073677 130.314051 
L 803.463211 98.33746 
L 804.389568 78.570201 
L 804.852746 63.802112 
L 805.315924 67.377451 
L 805.779102 73.997081 
L 806.24228 77.387918 
L 806.705459 77.996652 
L 807.168637 73.3325 
L 807.631815 73.091551 
L 808.094993 78.570179 
L 808.558171 78.013634 
L 809.021349 82.171613 
L 809.484528 87.596832 
L 809.947706 94.672863 
L 810.410884 104.598971 
L 810.874062 109.567789 
L 811.33724 109.156904 
L 811.800418 110.435673 
L 812.263597 109.723758 
L 812.726775 108.113607 
L 813.189953 100.531403 
L 813.653131 95.168084 
L 814.579487 88.369405 
L 815.042666 82.952677 
L 815.505844 79.245025 
L 815.969022 78.775876 
L 816.4322 86.580206 
L 816.895378 98.021176 
L 817.358556 103.694017 
L 817.821735 105.948707 
L 818.748091 116.580656 
L 819.211269 119.155798 
L 820.137625 105.948086 
L 820.600804 97.254012 
L 821.52716 113.168557 
L 822.453516 111.482539 
L 823.379873 130.091792 
L 823.843051 142.620355 
L 824.306229 149.890599 
L 824.769407 149.911839 
L 825.232585 151.73926 
L 825.695763 154.634853 
L 826.62212 152.540987 
L 827.085298 151.926179 
L 828.011654 143.491255 
L 828.474832 148.061936 
L 828.93801 147.447128 
L 829.401189 150.269891 
L 829.864367 149.936691 
L 830.327545 145.670676 
L 830.790723 143.929431 
L 831.253901 151.874566 
L 831.717079 147.132728 
L 832.180258 147.984229 
L 832.643436 152.724847 
L 833.106614 149.415331 
L 833.569792 147.339069 
L 834.03297 143.524599 
L 834.496148 133.883736 
L 834.959327 132.6523 
L 835.422505 129.34764 
L 835.885683 118.289021 
L 836.348861 118.038362 
L 836.812039 122.123511 
L 837.275217 129.825879 
L 837.738396 129.29361 
L 838.201574 136.845463 
L 838.664752 141.94052 
L 839.12793 156.299543 
L 839.591108 159.515588 
L 840.054286 165.076756 
L 840.517465 156.256443 
L 840.980643 159.943455 
L 841.443821 154.526727 
L 841.906999 150.916181 
L 842.370177 134.312778 
L 842.833355 134.08154 
L 843.296534 130.597232 
L 843.759712 135.954477 
L 844.22289 137.563409 
L 844.686068 135.61824 
L 845.612424 151.357994 
L 846.538781 159.013626 
L 847.001959 167.526834 
L 847.465137 164.736838 
L 847.928315 174.036609 
L 848.391493 173.766529 
L 848.854672 178.910139 
L 849.31785 182.121329 
L 849.781028 180.851051 
L 850.244206 174.312742 
L 850.707384 176.295534 
L 851.170562 176.360471 
L 851.633741 180.751505 
L 852.096919 180.898983 
L 852.560097 174.656849 
L 853.023275 166.530848 
L 853.486453 170.87333 
L 854.41281 186.918969 
L 854.875988 186.886799 
L 855.339166 184.723141 
L 855.802344 187.050661 
L 856.265522 201.535922 
L 856.7287 202.858389 
L 857.191879 198.568097 
L 857.655057 188.752442 
L 858.118235 182.335517 
L 858.581413 182.351901 
L 859.507769 186.725332 
L 859.970948 188.941179 
L 860.434126 178.023365 
L 860.897304 177.753284 
L 861.360482 179.72151 
L 861.82366 179.786447 
L 862.286838 183.696804 
L 862.750017 184.349236 
L 863.213195 190.293975 
L 863.676373 208.954818 
L 865.065907 250.895739 
L 865.992264 250.423553 
L 866.91862 260.3709 
L 867.381798 261.018477 
L 867.844976 263.108086 
L 868.308155 260.895874 
L 868.771333 264.26729 
L 869.234511 265.866511 
L 869.697689 258.910644 
L 870.160867 257.650076 
L 870.624045 245.212544 
L 871.550402 237.088361 
L 872.01358 237.012494 
L 872.476758 236.76669 
L 872.939936 244.876906 
L 873.403114 235.799261 
L 873.866293 237.102307 
L 874.329471 241.507907 
L 874.792649 242.77211 
L 875.255827 242.050484 
L 875.719005 235.696678 
L 876.182183 216.262618 
L 877.10854 226.409034 
L 877.571718 217.64213 
L 878.034896 213.992741 
L 878.498074 202.045598 
L 878.961252 207.461106 
L 879.424431 214.362345 
L 879.887609 211.373281 
L 880.350787 214.608747 
L 880.813965 215.367996 
L 881.277143 217.486737 
L 881.740321 225.106565 
L 882.2035 219.602441 
L 882.666678 218.142805 
L 883.129856 217.756197 
L 883.593034 217.874543 
L 884.056212 219.813636 
L 884.51939 217.256697 
L 884.982569 219.545374 
L 885.445747 226.509732 
L 885.908925 224.520866 
L 886.372103 223.697278 
L 887.298459 206.682989 
L 887.761638 206.155577 
L 888.224816 211.255489 
L 889.61435 239.329593 
L 890.077528 245.764721 
L 890.540707 263.804082 
L 891.003885 266.015074 
L 891.467063 255.587647 
L 891.930241 241.509015 
L 892.393419 238.607346 
L 892.856597 238.410096 
L 893.319776 246.161017 
L 893.782954 239.812066 
L 894.246132 240.231442 
L 894.70931 253.828178 
L 896.098845 273.929834 
L 896.562023 275.864073 
L 897.025201 269.248079 
L 897.951557 248.558307 
L 898.414735 241.952024 
L 899.341092 220.169804 
L 899.80427 207.217607 
L 900.267448 210.943461 
L 900.730626 211.498787 
L 901.193804 207.436695 
L 901.656983 210.016692 
L 902.120161 204.546556 
L 902.583339 201.149644 
L 903.046517 195.844589 
L 903.509695 184.038249 
L 903.972873 187.132911 
L 904.436052 182.760079 
L 904.89923 169.856435 
L 905.362408 178.214272 
L 905.825586 176.040903 
L 906.288764 178.378134 
L 906.751942 177.821589 
L 907.215121 171.540613 
L 907.678299 172.236743 
L 908.141477 178.045533 
L 908.604655 166.744148 
L 909.067833 166.906191 
L 909.531011 160.464989 
L 909.99419 163.370293 
L 910.457368 164.124687 
L 910.920546 171.409497 
L 911.383724 173.285471 
L 911.846902 171.466541 
L 912.31008 172.856983 
L 912.773259 172.052817 
L 913.236437 171.836145 
L 913.699615 174.236495 
L 914.625971 160.543251 
L 915.089149 161.792888 
L 915.552328 154.200973 
L 916.015506 161.607166 
L 916.478684 166.775053 
L 916.941862 168.082954 
L 917.40504 168.482909 
L 917.868218 168.576978 
L 918.794575 162.394926 
L 919.257753 153.729984 
L 919.720931 140.865183 
L 920.184109 135.58926 
L 920.647287 134.425799 
L 921.110466 132.461209 
L 921.573644 128.13693 
L 922.036822 131.610307 
L 922.5 133.874708 
L 922.963178 140.290414 
L 923.426356 142.651921 
L 923.889534 139.973598 
L 924.352713 140.970758 
L 924.815891 150.489019 
L 925.279069 153.258374 
L 925.742247 161.023861 
L 926.205425 155.78678 
L 926.668603 148.316249 
L 927.131782 149.881482 
L 927.59496 149.334648 
L 928.058138 133.760574 
L 928.521316 128.008829 
L 928.984494 114.376886 
L 929.447672 118.544575 
L 929.910851 115.434128 
L 930.374029 111.35747 
L 930.837207 105.188167 
L 931.300385 112.6769 
L 931.763563 106.303673 
L 932.226741 111.675483 
L 932.68992 110.016779 
L 933.153098 113.46588 
L 933.616276 116.026456 
L 934.079454 120.34466 
L 934.542632 120.963105 
L 935.00581 124.922015 
L 935.468989 117.932161 
L 936.395345 115.425592 
L 936.858523 108.69307 
L 937.321701 112.506321 
L 937.784879 117.246938 
L 938.248058 118.875291 
L 938.711236 125.941611 
L 939.174414 123.816796 
L 939.637592 126.246278 
L 940.10077 123.339754 
L 940.563948 118.287176 
L 941.027127 114.6038 
L 941.490305 113.37722 
L 941.953483 107.819687 
L 942.416661 100.630765 
L 942.879839 99.384763 
L 943.343017 103.100907 
L 943.806196 102.301596 
L 944.269374 98.035581 
L 944.732552 97.741224 
L 945.19573 101.748687 
L 945.658908 102.454528 
L 946.122086 95.013128 
L 946.585265 99.00117 
L 947.048443 97.075423 
L 947.511621 97.179203 
L 947.974799 96.394458 
L 948.437977 92.041046 
L 948.901155 99.204473 
L 949.364334 102.323411 
L 949.827512 99.645088 
L 950.753868 106.426762 
L 951.217046 105.292433 
L 951.680224 104.653348 
L 952.143403 94.86197 
L 952.606581 98.612101 
L 953.069759 100.439522 
L 953.532937 97.222257 
L 953.996115 100.47229 
L 955.38565 126.613974 
L 955.848828 126.945954 
L 956.312006 126.204907 
L 956.775184 130.411439 
L 957.238362 130.374414 
L 957.701541 125.831645 
L 958.164719 115.792645 
L 958.627897 114.721435 
L 959.554253 120.687414 
L 960.017431 121.592323 
L 960.48061 124.274282 
L 960.943788 119.741223 
L 961.406966 124.75374 
L 961.870144 122.454132 
L 962.333322 127.03938 
L 962.7965 135.780788 
L 963.259679 137.467405 
L 963.722857 134.225864 
L 964.186035 143.355698 
L 964.649213 148.824615 
L 965.112391 152.220307 
L 965.575569 150.74125 
L 966.038748 145.21285 
L 966.501926 142.359735 
L 966.965104 138.564686 
L 967.428282 129.088904 
L 968.354638 118.745837 
L 968.817817 114.83426 
L 969.280995 103.445479 
L 969.744173 98.480297 
L 970.207351 97.559602 
L 970.670529 95.293982 
L 971.133707 95.417183 
L 971.596886 93.03989 
L 972.060064 89.647834 
L 972.523242 88.440676 
L 972.98642 85.490454 
L 973.449598 85.424298 
L 973.912776 87.630434 
L 975.302311 69.632332 
L 976.228667 93.922318 
L 976.691845 92.156797 
L 977.155024 95.41654 
L 977.618202 103.847207 
L 978.08138 115.157084 
L 978.544558 123.524632 
L 979.007736 120.870585 
L 979.470914 106.573463 
L 979.934093 109.022366 
L 980.397271 97.769534 
L 980.860449 94.168698 
L 981.323627 99.637615 
L 981.786805 101.047479 
L 982.249983 99.888873 
L 982.713162 111.548333 
L 983.17634 110.530532 
L 983.639518 127.992109 
L 984.102696 124.604908 
L 984.565874 109.827108 
L 985.029052 105.313471 
L 985.492231 105.392975 
L 985.955409 102.428187 
L 986.418587 109.479941 
L 986.881765 105.684893 
L 987.344943 110.571171 
L 987.808121 105.814767 
L 988.2713 106.899323 
L 988.734478 104.852193 
L 989.197656 96.022169 
L 989.660834 82.744666 
L 990.124012 81.853103 
L 990.58719 80.388612 
L 991.050369 96.733464 
L 991.513547 91.608056 
L 991.976725 91.129196 
L 992.903081 93.138082 
L 993.366259 89.483838 
L 994.292616 85.020573 
L 994.755794 93.329857 
L 995.218972 93.380228 
L 995.68215 97.4411 
L 996.145328 112.698358 
L 996.608507 121.027063 
L 997.071685 121.043447 
L 997.534863 116.568653 
L 997.998041 118.862186 
L 998.461219 122.641449 
L 998.924397 123.279315 
L 999.387576 121.499227 
L 999.850754 124.258871 
L 1000.313932 129.591839 
L 1000.77711 131.681448 
L 1001.703466 139.215698 
L 1002.166645 145.009922 
L 1002.629823 136.34498 
L 1003.093001 136.516734 
L 1004.019357 145.730927 
L 1004.482535 142.877812 
L 1004.945714 143.47198 
L 1005.408892 142.211413 
L 1005.87207 155.055573 
L 1006.335248 149.740807 
L 1006.798426 149.257092 
L 1007.261604 155.813603 
L 1007.724783 154.082068 
L 1008.187961 151.073583 
L 1008.651139 155.775358 
L 1009.114317 154.912928 
L 1009.577495 167.460913 
L 1010.040673 170.788631 
L 1011.430208 188.666547 
L 1011.893386 187.838103 
L 1012.356564 190.879357 
L 1012.819742 181.821133 
L 1013.282921 166.538379 
L 1013.746099 160.237981 
L 1014.209277 160.346616 
L 1014.672455 153.924835 
L 1015.135633 158.869377 
L 1015.598811 158.196304 
L 1016.06199 161.334664 
L 1016.525168 183.059219 
L 1017.451524 171.225566 
L 1017.914702 174.669811 
L 1018.37788 173.94333 
L 1018.841059 174.522932 
L 1019.304237 169.85878 
L 1019.767415 154.852779 
L 1020.230593 156.651068 
L 1020.693771 154.045575 
L 1021.156949 157.174224 
L 1021.620127 156.496296 
L 1022.083306 150.700853 
L 1022.546484 147.755487 
L 1023.009662 153.355498 
L 1023.47284 155.615043 
L 1023.936018 170.56156 
L 1024.399196 177.972609 
L 1024.862375 172.988005 
L 1025.325553 181.574043 
L 1025.788731 195.248464 
L 1026.251909 202.48472 
L 1026.715087 211.818478 
L 1027.178265 211.198814 
L 1027.641444 203.694295 
L 1028.104622 206.196607 
L 1028.5678 203.591114 
L 1029.030978 204.015346 
L 1029.494156 210.227128 
L 1029.957334 209.835664 
L 1030.883691 206.249395 
L 1031.346869 210.460782 
L 1031.810047 226.111322 
L 1032.273225 231.381171 
L 1033.66276 220.923393 
L 1034.125938 223.634484 
L 1034.589116 221.524234 
L 1035.052294 213.257429 
L 1035.515472 200.450892 
L 1035.978651 204.924467 
L 1036.441829 199.803914 
L 1036.905007 201.058406 
L 1037.368185 199.404557 
L 1037.831363 199.887053 
L 1038.294541 193.513825 
L 1038.75772 199.346892 
L 1039.220898 189.152521 
L 1039.684076 187.348157 
L 1040.147254 183.776454 
L 1040.610432 182.904313 
L 1041.07361 191.582602 
L 1041.536789 194.264561 
L 1041.999967 198.752702 
L 1042.463145 209.960616 
L 1042.926323 215.196478 
L 1043.389501 213.207611 
L 1043.852679 215.36034 
L 1044.315858 207.792701 
L 1044.779036 204.041351 
L 1045.242214 203.373134 
L 1045.705392 197.57769 
L 1046.16857 199.502218 
L 1046.631748 207.685263 
L 1047.094927 213.761096 
L 1047.558105 216.923733 
L 1048.021283 219.314372 
L 1048.484461 223.428653 
L 1048.947639 220.68721 
L 1049.410817 211.45905 
L 1049.873996 208.110692 
L 1050.337174 208.18534 
L 1050.800352 207.352041 
L 1051.26353 219.419349 
L 1051.726708 219.960108 
L 1052.189886 229.42496 
L 1052.653065 235.345423 
L 1053.116243 229.613099 
L 1053.579421 229.406138 
L 1054.042599 232.505655 
L 1054.505777 219.228151 
L 1054.968955 214.122164 
L 1055.432134 219.455132 
L 1055.895312 222.447832 
L 1056.35849 231.985514 
L 1056.821668 226.534798 
L 1057.284846 223.895318 
L 1057.748024 231.767622 
L 1058.211203 231.735453 
L 1058.674381 219.084287 
L 1059.600737 215.71347 
L 1060.063915 208.743037 
L 1060.527093 213.663302 
L 1060.990272 212.752318 
L 1061.916628 204.77865 
L 1062.379806 203.678309 
L 1062.842984 201.815681 
L 1063.306162 205.730893 
L 1063.769341 195.017003 
L 1064.232519 189.920726 
L 1064.695697 191.942361 
L 1065.158875 185.200128 
L 1065.622053 183.77448 
L 1066.54841 170.561913 
L 1067.011588 170.520033 
L 1067.937944 174.208863 
L 1068.401122 188.393094 
L 1068.8643 184.957339 
L 1069.327479 190.55735 
L 1070.253835 199.514211 
L 1070.717013 192.86423 
L 1071.180191 199.629519 
L 1071.643369 201.791958 
L 1072.106548 202.764842 
L 1072.569726 201.732475 
L 1073.032904 210.182563 
L 1073.496082 201.609872 
L 1073.95926 205.631902 
L 1074.885617 178.212646 
L 1075.811973 164.601942 
L 1076.275151 154.558087 
L 1076.738329 155.972805 
L 1077.201507 158.174087 
L 1077.664686 169.547082 
L 1078.127864 174.229437 
L 1078.591042 177.411494 
L 1079.05422 184.040835 
L 1079.517398 195.098234 
L 1079.980576 200.916735 
L 1080.443755 194.80084 
L 1080.906933 180.600824 
L 1081.370111 181.748499 
L 1081.833289 179.87616 
L 1082.296467 172.599842 
L 1083.686002 143.463618 
L 1084.14918 138.63924 
L 1084.612358 131.105589 
L 1085.075536 133.156355 
L 1085.538714 121.884102 
L 1086.001893 115.981841 
L 1086.465071 113.298663 
L 1086.928249 119.738646 
L 1087.391427 131.587464 
L 1087.854605 134.852062 
L 1088.317783 136.329899 
L 1088.780962 148.58171 
L 1089.24414 145.791714 
L 1089.707318 145.599319 
L 1091.096852 112.345777 
L 1091.560031 111.162895 
L 1092.023209 110.523809 
L 1092.486387 115.939318 
L 1093.412743 139.811746 
L 1093.875921 141.503218 
L 1094.3391 146.836186 
L 1094.802278 141.982676 
L 1095.728634 135.790913 
L 1096.191812 130.058589 
L 1096.65499 129.637994 
L 1097.118169 129.605824 
L 1097.581347 134.288178 
L 1098.044525 133.484012 
L 1098.507703 130.805689 
L 1098.970881 131.657189 
L 1099.434059 131.702705 
L 1099.897238 129.932328 
L 1100.360416 137.221993 
L 1100.823594 135.184574 
L 1101.286772 134.050245 
L 1101.74995 134.498753 
L 1102.213128 134.568545 
L 1102.676307 134.89567 
L 1103.139485 135.703473 
L 1103.602663 134.224416 
L 1104.065841 129.050454 
L 1104.529019 133.6794 
L 1104.992197 141.032184 
L 1105.455376 142.092463 
L 1106.381732 155.613332 
L 1106.84491 153.648742 
L 1107.308088 155.563559 
L 1107.771266 138.57173 
L 1108.234445 133.256964 
L 1108.697623 131.151569 
L 1110.087157 91.887131 
L 1110.550335 89.291349 
L 1111.013514 104.572884 
L 1111.476692 104.414476 
L 1111.93987 95.77381 
L 1112.403048 104.117081 
L 1112.866226 105.15794 
L 1113.329404 112.471881 
L 1113.792583 124.048801 
L 1114.255761 130.454796 
L 1114.718939 130.626551 
L 1115.182117 136.843188 
L 1115.645295 133.849269 
L 1116.108473 133.482082 
L 1116.571652 131.255304 
L 1117.03483 125.590955 
L 1117.498008 118.193253 
L 1117.961186 128.755409 
L 1118.424364 136.632569 
L 1119.35072 129.707652 
L 1119.813899 130.08333 
L 1120.277077 130.065727 
L 1120.740255 131.033755 
L 1121.666611 118.646594 
L 1122.129789 118.905745 
L 1123.056146 132.266387 
L 1123.519324 135.521275 
L 1123.982502 133.945111 
L 1124.44568 131.310486 
L 1124.908858 132.992248 
L 1125.372037 136.188871 
L 1125.835215 136.991819 
L 1126.298393 138.877504 
L 1126.761571 134.135666 
L 1127.687927 129.555873 
L 1128.151106 121.361897 
L 1128.614284 111.031577 
L 1129.077462 107.469585 
L 1129.54064 101.246872 
L 1130.003818 100.942805 
L 1130.466996 109.140416 
L 1130.930175 104.743307 
L 1131.856531 118.657457 
L 1132.782887 123.50671 
L 1133.246065 124.037759 
L 1133.709244 115.455357 
L 1134.172422 125.556257 
L 1134.6356 125.839684 
L 1135.098778 127.594276 
L 1135.561956 128.601146 
L 1136.025134 119.266169 
L 1136.951491 108.505543 
L 1137.414669 95.883508 
L 1137.877847 93.292581 
L 1138.341025 82.42332 
L 1138.804203 77.467848 
L 1139.267382 83.130978 
L 1139.73056 83.982479 
L 1140.193738 87.820006 
L 1140.656916 103.120962 
L 1141.120094 105.331954 
L 1141.583272 111.563158 
L 1142.046451 110.66674 
L 1142.509629 105.954034 
L 1142.972807 120.643219 
L 1143.435985 122.757105 
L 1143.899163 111.863567 
L 1144.362341 110.467051 
L 1144.82552 108.303392 
L 1145.288698 108.717913 
L 1145.751876 113.22062 
L 1146.215054 101.360872 
L 1147.14141 93.144438 
L 1147.604589 94.491182 
L 1148.067767 101.178786 
L 1148.994123 94.554899 
L 1149.457301 98.154515 
L 1150.383658 113.568962 
L 1150.846836 101.990823 
L 1151.310014 94.340644 
L 1152.23637 105.278478 
L 1152.699548 103.954792 
L 1153.162727 104.466419 
L 1153.625905 98.132034 
L 1154.089083 102.586188 
L 1154.552261 101.539255 
L 1155.478617 105.223229 
L 1155.941796 105.113375 
L 1156.404974 102.172864 
L 1156.868152 107.229078 
L 1157.33133 110.231489 
L 1157.794508 115.617865 
L 1158.720865 99.137663 
L 1159.184043 98.38205 
L 1159.647221 103.146945 
L 1160.110399 103.726547 
L 1161.036755 119.024465 
L 1161.499934 121.356841 
L 1161.963112 122.980338 
L 1162.42629 127.40536 
L 1162.889468 135.2194 
L 1163.352646 137.469235 
L 1163.815824 144.579253 
L 1164.279003 147.372885 
L 1164.742181 154.89075 
L 1165.205359 151.979371 
L 1165.668537 154.083546 
L 1166.131715 141.815951 
L 1166.594893 139.292998 
L 1167.058072 123.908282 
L 1167.52125 113.908124 
L 1168.447606 119.767286 
L 1168.910784 113.141581 
L 1169.373962 109.730104 
L 1170.763497 129.894879 
L 1171.226675 118.651757 
L 1171.689853 130.534563 
L 1172.153031 130.75487 
L 1172.61621 136.146102 
L 1173.079388 131.860666 
L 1173.542566 141.87417 
L 1174.005744 143.677314 
L 1174.468922 153.142166 
L 1174.9321 151.240696 
L 1175.395279 150.276304 
L 1175.858457 154.24978 
L 1176.321635 157.257046 
L 1176.784813 148.723197 
L 1177.247991 146.598382 
L 1177.711169 148.726833 
L 1178.174348 149.102511 
L 1178.637526 152.109777 
L 1179.100704 152.466034 
L 1179.563882 155.167414 
L 1180.02706 163.515541 
L 1180.490238 168.455227 
L 1180.953417 164.247476 
L 1181.416595 156.393373 
L 1181.879773 157.822658 
L 1182.342951 153.697447 
L 1183.269307 135.134309 
L 1183.732486 124.590355 
L 1184.195664 122.271326 
L 1184.658842 126.380752 
L 1185.12202 127.562414 
L 1185.585198 132.807986 
L 1186.048376 135.674448 
L 1186.511555 129.733344 
L 1186.974733 122.306511 
L 1187.437911 121.7354 
L 1187.901089 128.06371 
L 1188.827445 117.322505 
L 1189.753802 139.908271 
L 1190.21698 156.199714 
L 1190.680158 162.270692 
L 1191.143336 156.227627 
L 1191.606514 156.60816 
L 1192.069693 161.30508 
L 1192.532871 148.032432 
L 1192.996049 144.679218 
L 1193.459227 140.2287 
L 1193.922405 132.976659 
L 1194.385583 143.456274 
L 1194.848762 142.885163 
L 1195.31194 139.731018 
L 1196.238296 152.402205 
L 1196.701474 162.119534 
L 1197.164652 174.716072 
L 1197.627831 165.366528 
L 1198.091009 175.214951 
L 1198.554187 177.217164 
L 1199.017365 175.859491 
L 1199.480543 179.803835 
L 1199.943721 179.582308 
L 1200.4069 178.787852 
L 1200.870078 192.015583 
L 1201.333256 194.610146 
L 1201.796434 199.263368 
L 1202.259612 206.95117 
L 1202.72279 206.384915 
L 1203.185969 203.876528 
L 1203.649147 200.270837 
L 1204.112325 197.815859 
L 1204.575503 201.551424 
L 1205.038681 214.196516 
L 1205.501859 215.009174 
L 1205.965038 205.703328 
L 1206.428216 213.347432 
L 1206.891394 211.314868 
L 1207.354572 205.466016 
L 1207.81775 181.603897 
L 1208.280928 178.527437 
L 1208.744107 183.836129 
L 1209.207285 198.704961 
L 1209.670463 198.978677 
L 1210.596819 225.036002 
L 1211.059997 252.620938 
L 1211.986354 252.265802 
L 1212.449532 252.352501 
L 1212.91271 250.681572 
L 1213.375888 250.156499 
L 1213.839066 245.213079 
L 1214.302245 236.380541 
L 1214.765423 232.281947 
L 1215.228601 241.771076 
L 1215.691779 239.340374 
L 1216.154957 233.408982 
L 1216.618135 233.294272 
L 1217.081314 238.059166 
L 1217.544492 252.777483 
L 1218.00767 258.149294 
L 1218.470848 235.083449 
L 1218.934026 233.385902 
L 1219.397204 240.321128 
L 1219.860382 235.817202 
L 1220.323561 234.614899 
L 1220.786739 236.811325 
L 1221.249917 238.094949 
L 1222.639451 263.382095 
L 1223.10263 259.358846 
L 1223.565808 261.866014 
L 1224.028986 247.63201 
L 1224.492164 246.536524 
L 1224.955342 253.272682 
L 1225.41852 246.826624 
L 1225.881699 234.573595 
L 1226.344877 239.328779 
L 1226.808055 230.372517 
L 1227.271233 227.878696 
L 1227.734411 221.170451 
L 1228.197589 211.204281 
L 1228.660768 213.0754 
L 1229.123946 210.411643 
L 1229.587124 211.666135 
L 1230.51348 226.755275 
L 1230.976658 222.236783 
L 1231.439837 226.487013 
L 1231.903015 215.748845 
L 1232.366193 213.993035 
L 1233.292549 203.091604 
L 1233.755727 202.539915 
L 1234.218906 206.425995 
L 1234.682084 205.364496 
L 1235.145262 208.396039 
L 1236.071618 220.576837 
L 1236.997975 207.267164 
L 1237.461153 211.779581 
L 1237.924331 205.411209 
L 1238.387509 204.354565 
L 1238.850687 202.166631 
L 1239.313865 207.028632 
L 1239.777044 218.008346 
L 1240.7034 211.719477 
L 1241.166578 221.757258 
L 1241.629756 223.44873 
L 1242.092934 226.708473 
L 1243.019291 212.884135 
L 1243.482469 216.522593 
L 1243.945647 214.504595 
L 1244.408825 213.088657 
L 1244.872003 207.521414 
L 1245.335182 203.862315 
L 1245.79836 203.975805 
L 1246.261538 201.472274 
L 1246.724716 196.686739 
L 1247.187894 197.528528 
L 1247.651072 188.99468 
L 1248.114251 190.652165 
L 1248.577429 186.570652 
L 1249.503785 174.76613 
L 1249.966963 180.089388 
L 1250.430141 170.725278 
L 1250.89332 167.67795 
L 1251.356498 162.431159 
L 1251.819676 152.736887 
L 1252.282854 148.88843 
L 1252.746032 149.181567 
L 1253.20921 144.808735 
L 1253.672389 151.685697 
L 1254.135567 160.752412 
L 1254.598745 159.564675 
L 1255.525101 172.66313 
L 1255.988279 181.365696 
L 1256.451458 177.070548 
L 1256.914636 171.580991 
L 1257.377814 163.01801 
L 1257.840992 161.11654 
L 1258.30417 163.186727 
L 1258.767348 158.274953 
L 1259.230527 151.649249 
L 1259.693705 155.277997 
L 1260.156883 143.704713 
L 1260.620061 144.522226 
L 1261.083239 149.816351 
L 1261.546417 142.389518 
L 1262.472774 132.279506 
L 1262.935952 129.34385 
L 1263.39913 140.935336 
L 1264.325486 138.618125 
L 1264.788665 142.848933 
L 1265.251843 140.379389 
L 1265.715021 143.435209 
L 1266.178199 141.504606 
L 1266.641377 140.326579 
L 1267.104555 140.007946 
L 1268.030912 150.377707 
L 1268.49409 165.591267 
L 1268.957268 165.355174 
L 1269.420446 165.415256 
L 1269.883624 160.207307 
L 1270.346803 156.858948 
L 1270.809981 143.775658 
L 1271.736337 126.03307 
L 1272.662693 115.185048 
L 1273.125872 118.721545 
L 1273.58905 115.149842 
L 1274.052228 116.982118 
L 1274.515406 109.822328 
L 1274.978584 99.627957 
L 1275.441762 101.280586 
L 1275.904941 104.749108 
L 1276.368119 103.425422 
L 1276.831297 106.529794 
L 1277.294475 104.958486 
L 1278.220831 113.750265 
L 1278.68401 110.372775 
L 1279.147188 104.290867 
L 1279.610366 104.957865 
L 1280.536722 125.514104 
L 1280.9999 127.511462 
L 1281.463079 130.018629 
L 1281.926257 130.972091 
L 1282.389435 144.661078 
L 1282.852613 148.42092 
L 1283.778969 141.801889 
L 1284.242148 144.746035 
L 1284.705326 150.302348 
L 1285.168504 160.500355 
L 1285.631682 154.544686 
L 1286.09486 153.468621 
L 1286.558038 158.403452 
L 1287.484395 175.085139 
L 1287.947573 178.849836 
L 1288.410751 179.492557 
L 1288.873929 180.679075 
L 1289.337107 184.375798 
L 1289.800286 177.77437 
L 1290.263464 176.193351 
L 1290.726642 172.529396 
L 1291.18982 164.39854 
L 1291.652998 168.34774 
L 1292.116176 173.811801 
L 1292.579355 165.574128 
L 1293.042533 169.484485 
L 1293.505711 169.952414 
L 1293.968889 173.518043 
L 1294.432067 182.623601 
L 1294.895245 182.795355 
L 1295.358424 180.102466 
L 1295.821602 188.542844 
L 1296.28478 180.81498 
L 1296.747958 177.282119 
L 1297.211136 168.107367 
L 1298.137493 137.420476 
L 1298.600671 136.426951 
L 1299.063849 134.088501 
L 1299.527027 134.595273 
L 1299.990205 122.254848 
L 1300.453383 120.499037 
L 1300.916562 120.962111 
L 1301.37974 120.915376 
L 1301.842918 117.173736 
L 1302.306096 109.096288 
L 1303.232452 107.561308 
L 1303.695631 107.890774 
L 1304.158809 102.374424 
L 1304.621987 99.07696 
L 1305.085165 103.975289 
L 1305.548343 96.31774 
L 1306.011521 92.330819 
L 1306.4747 93.78438 
L 1306.937878 99.321272 
L 1307.401056 98.614212 
L 1307.864234 98.630596 
L 1308.327412 95.947417 
L 1308.79059 95.118974 
L 1309.253769 103.83125 
L 1309.716947 104.575933 
L 1310.180125 102.55308 
L 1311.106481 115.928289 
L 1311.569659 116.444771 
L 1312.032838 130.823215 
L 1312.496016 125.183142 
L 1314.348728 152.545331 
L 1314.811907 151.896535 
L 1315.275085 139.352186 
L 1315.738263 136.56219 
L 1317.127797 101.400504 
L 1317.590975 94.507757 
L 1318.054154 99.345481 
L 1318.517332 102.46442 
L 1318.98051 107.146774 
L 1319.443688 117.815747 
L 1319.906866 136.000768 
L 1320.370044 143.081654 
L 1320.833223 144.31187 
L 1321.296401 139.230159 
L 1321.759579 143.407559 
L 1322.222757 145.769067 
L 1322.685935 141.197166 
L 1323.149113 126.365957 
L 1323.612292 126.192983 
L 1324.07547 128.976904 
L 1324.538648 141.651128 
L 1325.001826 142.172466 
L 1325.465004 147.956979 
L 1325.928182 146.550752 
L 1326.391361 136.570016 
L 1326.854539 136.431029 
L 1327.317717 138.6226 
L 1327.780895 135.997686 
L 1328.244073 127.42985 
L 1328.707251 128.494985 
L 1329.17043 128.608475 
L 1329.633608 140.292212 
L 1330.096786 140.52223 
L 1330.559964 136.426152 
L 1331.023142 138.302126 
L 1331.48632 148.495277 
L 1331.949499 145.336277 
L 1332.412677 149.664192 
L 1332.875855 151.316821 
L 1333.339033 155.17377 
L 1333.802211 157.938269 
L 1334.265389 147.204957 
L 1334.728568 146.730953 
L 1335.191746 144.941155 
L 1335.654924 146.865683 
L 1336.118102 153.825186 
L 1336.58128 157.672423 
L 1337.044458 157.664531 
L 1337.507637 175.130963 
L 1337.970815 178.672315 
L 1338.433993 181.281444 
L 1338.897171 188.983812 
L 1339.360349 193.088382 
L 1339.823527 189.298189 
L 1340.286706 193.626104 
L 1340.749884 183.150124 
L 1341.213062 188.74528 
L 1341.67624 186.945771 
L 1342.139418 181.728112 
L 1342.602596 169.586755 
L 1343.065775 173.17666 
L 1343.528953 166.337321 
L 1343.992131 168.834777 
L 1344.455309 162.563512 
L 1344.918487 169.896875 
L 1345.381665 168.835376 
L 1345.844844 175.649219 
L 1346.308022 171.320084 
L 1346.7712 171.389877 
L 1347.234378 175.416762 
L 1347.697556 175.612793 
L 1348.160734 169.749375 
L 1348.623913 173.596612 
L 1349.087091 171.258162 
L 1349.550269 174.746106 
L 1350.013447 173.043703 
L 1350.476625 165.077928 
L 1350.939803 162.428737 
L 1351.402982 166.912023 
L 1351.86616 157.091512 
L 1352.329338 162.798341 
L 1352.792516 158.799368 
L 1353.255694 161.005505 
L 1353.718872 165.474225 
L 1354.182051 173.385372 
L 1354.645229 170.702194 
L 1355.108407 182.67725 
L 1355.571585 186.286577 
L 1356.497941 198.433388 
L 1356.96112 199.513088 
L 1357.424298 195.688908 
L 1357.887476 198.26405 
L 1358.350654 186.23922 
L 1358.813832 182.473304 
L 1359.27701 181.26129 
L 1359.740189 171.630137 
L 1360.666545 164.302228 
L 1361.129723 168.256283 
L 1362.056079 189.492268 
L 1362.519258 190.30007 
L 1362.982436 194.802777 
L 1363.445614 202.485724 
L 1363.908792 205.828007 
L 1364.37197 202.868075 
L 1364.835148 201.884262 
L 1365.298327 186.504401 
L 1365.761505 200.154545 
L 1366.224683 206.312919 
L 1366.687861 195.70099 
L 1367.151039 201.971037 
L 1367.614217 206.085317 
L 1368.077396 211.71446 
L 1368.540574 215.751056 
L 1369.003752 207.192931 
L 1369.46693 203.475567 
L 1369.930108 208.099657 
L 1370.393286 203.280135 
L 1370.856465 199.645312 
L 1371.319643 200.642472 
L 1371.782821 209.616936 
L 1372.245999 211.361817 
L 1372.709177 222.239569 
L 1373.172355 230.223546 
L 1373.635534 234.468921 
L 1374.098712 249.279489 
L 1374.56189 250.451441 
L 1375.025068 244.47635 
L 1375.488246 244.274244 
L 1375.951424 245.557869 
L 1376.414603 238.990428 
L 1376.877781 243.49799 
L 1377.340959 239.052328 
L 1377.804137 243.564746 
L 1378.267315 261.332208 
L 1378.730493 259.450159 
L 1379.193672 255.373501 
L 1379.65685 275.510364 
L 1380.120028 270.685986 
L 1380.583206 276.616159 
L 1381.509562 250.993375 
L 1381.972741 249.757084 
L 1382.435919 247.175868 
L 1382.899097 239.287778 
L 1383.362275 243.533152 
L 1383.825453 235.373164 
L 1384.288631 235.826528 
L 1384.75181 240.688529 
L 1385.214988 247.007128 
L 1385.678166 250.98546 
L 1386.141344 251.307729 
L 1387.0677 237.575643 
L 1387.530879 242.45221 
L 1387.994057 234.015468 
L 1389.383591 215.915404 
L 1389.846769 224.346071 
L 1390.309948 227.61067 
L 1390.773126 220.285798 
L 1391.236304 217.505513 
L 1391.699482 225.882771 
L 1392.16266 239.532916 
L 1392.625838 238.403443 
L 1393.089017 234.2491 
L 1393.552195 233.075928 
L 1394.015373 236.874613 
L 1394.478551 236.78418 
L 1394.941729 235.654706 
L 1395.404907 224.04258 
L 1395.868086 226.855633 
L 1396.331264 227.857648 
L 1396.794442 234.28792 
L 1397.25762 238.591559 
L 1397.720798 247.046502 
L 1398.183976 236.759881 
L 1398.647155 239.427274 
L 1399.110333 237.574356 
L 1399.573511 245.28158 
L 1400.036689 233.431542 
L 1400.499867 228.553756 
L 1400.963045 227.9875 
L 1401.426224 226.066608 
L 1401.889402 228.093098 
L 1402.35258 230.736214 
L 1402.815758 222.964652 
L 1403.278936 230.026117 
L 1403.742114 229.80459 
L 1404.205293 219.833564 
L 1404.668471 221.034648 
L 1405.131649 215.312035 
L 1405.594827 207.593881 
L 1406.058005 208.251169 
L 1406.521183 206.97118 
L 1406.984362 209.711403 
L 1407.44754 213.728577 
L 1407.910718 219.207205 
L 1408.373896 214.873215 
L 1408.837074 216.428738 
L 1409.300252 211.861692 
L 1409.763431 204.187237 
L 1410.226609 199.794983 
L 1410.689787 193.771339 
L 1411.152965 181.003645 
L 1411.616143 171.872591 
L 1412.079321 169.471022 
L 1412.5425 164.243651 
L 1413.005678 162.55096 
L 1413.468856 157.100245 
L 1413.932034 157.068075 
L 1414.85839 181.673658 
L 1415.321568 183.462236 
L 1415.784747 193.354357 
L 1416.247925 200.153634 
L 1416.711103 201.908225 
L 1417.174281 206.265272 
L 1417.637459 200.537803 
L 1418.100637 198.393566 
L 1418.563816 193.481793 
L 1419.026994 180.942299 
L 1419.490172 174.530228 
L 1419.95335 175.177805 
L 1420.416528 170.644747 
L 1420.879706 168.316007 
L 1421.342885 169.958926 
L 1421.806063 167.154365 
L 1422.269241 159.479909 
L 1422.732419 154.276816 
L 1423.195597 145.12634 
L 1423.658775 141.059394 
L 1424.585132 136.450468 
L 1425.04831 137.195151 
L 1425.511488 145.213116 
L 1425.974666 160.94134 
L 1426.437844 171.644301 
L 1426.901023 177.244312 
L 1427.364201 186.913088 
L 1427.827379 183.307397 
L 1428.290557 181.808919 
L 1428.753735 185.437667 
L 1429.680092 168.423378 
L 1430.14327 161.020821 
L 1430.606448 149.40384 
L 1431.069626 148.69678 
L 1431.532804 161.968209 
L 1431.995982 146.734008 
L 1432.459161 142.361175 
L 1432.922339 145.538378 
L 1433.385517 151.526815 
L 1433.848695 152.776452 
L 1434.311873 155.58465 
L 1434.775051 145.584492 
L 1435.23823 154.889118 
L 1436.164586 160.000559 
L 1436.627764 155.67628 
L 1437.090942 152.905706 
L 1437.55412 148.620269 
L 1438.017299 152.753971 
L 1438.480477 155.037793 
L 1438.943655 153.029505 
L 1439.406833 144.112086 
L 1439.870011 139.239155 
L 1440.333189 144.047747 
L 1441.259546 129.548519 
L 1441.722724 128.234543 
L 1442.185902 124.570588 
L 1442.64908 128.689724 
L 1443.112258 133.949862 
L 1443.575437 125.187814 
L 1444.038615 131.45786 
L 1444.501793 122.103461 
L 1445.428149 127.41397 
L 1446.354506 117.337946 
L 1446.817684 124.234329 
L 1447.280862 127.882498 
L 1447.74404 144.470116 
L 1448.207218 144.510777 
L 1448.670396 150.853653 
L 1449.133575 152.739338 
L 1449.596753 160.111544 
L 1450.986287 142.768911 
L 1451.449465 142.532818 
L 1451.912644 138.883429 
L 1452.375822 136.559545 
L 1452.839 127.870326 
L 1453.302178 132.03316 
L 1453.765356 126.800935 
L 1454.228534 125.875385 
L 1454.691713 118.361156 
L 1455.154891 114.260221 
L 1455.618069 115.60211 
L 1456.081247 120.930223 
L 1456.544425 112.964447 
L 1457.007603 119.39472 
L 1457.470782 112.060137 
L 1457.93396 113.848716 
L 1458.397138 121.808416 
L 1458.860316 132.093818 
L 1459.323494 136.674211 
L 1459.786672 144.99806 
L 1460.249851 148.102433 
L 1461.176207 157.326337 
L 1461.639385 152.550512 
L 1462.102563 146.055901 
L 1463.492098 133.738533 
L 1463.955276 135.21637 
L 1464.881632 126.208518 
L 1465.34481 130.283956 
L 1465.807989 126.294694 
L 1466.734345 133.17833 
L 1467.197523 130.650522 
L 1467.660701 132.919778 
L 1468.123879 138.849951 
L 1468.587058 138.172023 
L 1469.050236 139.606163 
L 1469.513414 135.781983 
L 1469.976592 138.429954 
L 1471.366127 168.460756 
L 1472.292483 178.325563 
L 1472.755661 179.041114 
L 1473.218839 177.581478 
L 1473.682017 169.406924 
L 1474.145196 166.898537 
L 1474.608374 165.099028 
L 1475.071552 157.031292 
L 1475.53473 159.795791 
L 1475.997908 170.61528 
L 1476.924265 181.737616 
L 1477.850621 170.860462 
L 1478.313799 173.391906 
L 1478.776977 169.125891 
L 1479.240155 168.03526 
L 1479.703334 170.36278 
L 1480.166512 169.621733 
L 1480.62969 170.822817 
L 1481.092868 166.877253 
L 1481.556046 166.747977 
L 1482.019224 171.969273 
L 1482.482403 168.329595 
L 1482.945581 169.346176 
L 1483.408759 164.876237 
L 1483.871937 171.76291 
L 1484.798293 179.510794 
L 1485.261472 177.978328 
L 1485.72465 181.44685 
L 1486.187828 175.986424 
L 1486.651006 177.104968 
L 1487.114184 174.081917 
L 1487.577362 175.79281 
L 1488.040541 173.677705 
L 1488.503719 179.321414 
L 1488.966897 182.153888 
L 1489.430075 188.263708 
L 1489.893253 190.848561 
L 1490.356431 189.655968 
L 1490.81961 191.289176 
L 1491.282788 188.620564 
L 1491.745966 179.358416 
L 1492.209144 175.810989 
L 1492.672322 162.926767 
L 1493.1355 157.879044 
L 1494.061857 166.350372 
L 1494.525035 168.634194 
L 1494.988213 167.145426 
L 1495.451391 160.12644 
L 1495.914569 160.715753 
L 1496.377748 164.820323 
L 1497.304104 148.563466 
L 1497.767282 143.675968 
L 1498.693638 123.981539 
L 1499.156817 132.640407 
L 1499.619995 133.462775 
L 1500.083173 130.468856 
L 1500.546351 120.881401 
L 1501.009529 120.305435 
L 1501.472707 125.779207 
L 1501.935886 127.592063 
L 1502.399064 125.137085 
L 1502.862242 123.98819 
L 1503.32542 133.880311 
L 1503.788598 149.598825 
L 1504.251776 156.985597 
L 1504.714955 169.426765 
L 1505.178133 190.801736 
L 1505.641311 196.445445 
L 1506.104489 203.943889 
L 1506.567667 201.051932 
L 1507.494024 176.477898 
L 1507.957202 178.795707 
L 1508.42038 170.71826 
L 1509.346736 159.700301 
L 1509.809914 165.377998 
L 1510.736271 203.529945 
L 1512.125805 201.011847 
L 1512.588983 204.422105 
L 1513.052161 208.711178 
L 1513.51534 209.713193 
L 1513.978518 209.185781 
L 1514.441696 211.799765 
L 1514.904874 211.053862 
L 1515.368052 212.162695 
L 1515.83123 205.255382 
L 1516.294409 205.84955 
L 1517.220765 222.298181 
L 1517.683943 226.24738 
L 1518.147121 228.506926 
L 1518.610299 234.8935 
L 1519.536656 249.997206 
L 1519.999834 245.381607 
L 1520.463012 236.711809 
L 1520.92619 220.137538 
L 1521.389368 212.43395 
L 1521.852547 212.82905 
L 1522.315725 215.394481 
L 1522.778903 214.75054 
L 1523.242081 215.762266 
L 1523.705259 218.371395 
L 1524.168437 225.262924 
L 1524.631616 228.94508 
L 1525.094794 211.375466 
L 1525.557972 203.759275 
L 1526.02115 198.502773 
L 1526.484328 198.222982 
L 1526.947506 198.579239 
L 1527.410685 196.454423 
L 1527.873863 192.067025 
L 1528.337041 199.769393 
L 1528.800219 200.315007 
L 1529.263397 195.898477 
L 1529.726575 199.434973 
L 1530.189754 195.523397 
L 1530.652932 193.782152 
L 1531.11611 194.944394 
L 1531.579288 212.381694 
L 1532.505644 233.573981 
L 1532.968823 229.356519 
L 1533.895179 237.036428 
L 1534.358357 237.358698 
L 1534.821535 224.799782 
L 1535.284713 223.01484 
L 1535.747892 222.01646 
L 1536.21107 228.966252 
L 1536.674248 232.308536 
L 1537.137426 240.292513 
L 1537.600604 252.626864 
L 1538.063782 260.193282 
L 1539.453317 261.645624 
L 1539.916495 266.114344 
L 1540.379673 266.994976 
L 1540.842851 270.206166 
L 1541.30603 274.553502 
L 1542.232386 282.063997 
L 1542.695564 294.386123 
L 1543.158742 302.692892 
L 1543.62192 307.8 
L 1544.085099 307.226374 
L 1544.548277 290.984606 
L 1545.011455 289.449626 
L 1545.474633 292.131584 
L 1546.400989 282.735306 
L 1546.864168 278.877138 
L 1547.790524 274.210471 
L 1548.253702 280.094432 
L 1548.71688 276.898929 
L 1549.180058 277.539135 
L 1550.106415 283.602046 
L 1550.569593 279.173291 
L 1551.032771 280.238425 
L 1551.495949 285.134414 
L 1551.959127 287.525053 
L 1552.885484 281.590623 
L 1553.348662 276.382674 
L 1553.81184 280.171648 
L 1554.275018 277.876896 
L 1555.664553 257.567658 
L 1556.127731 245.12527 
L 1556.590909 249.132734 
L 1556.590909 249.132734 
" clip-path="url(#p869533ca84)" style="fill: none; stroke: #9890f4; stroke-width: 2.5; stroke-linecap: square"/>
   </g>
   <g id="patch_3">
    <path d="M 225 320.4 
L 225 43.2 
" style="fill: none; stroke: #000000; stroke-width: 0.8; stroke-linejoin: miter; stroke-linecap: square"/>
   </g>
   <g id="patch_4">
    <path d="M 1620 320.4 
L 1620 43.2 
" style="fill: none; stroke: #000000; stroke-width: 0.8; stroke-linejoin: miter; stroke-linecap: square"/>
   </g>
   <g id="patch_5">
    <path d="M 225 320.4 
L 1620 320.4 
" style="fill: none; stroke: #000000; stroke-width: 0.8; stroke-linejoin: miter; stroke-linecap: square"/>
   </g>
   <g id="patch_6">
    <path d="M 225 43.2 
L 1620 43.2 
" style="fill: none; stroke: #000000; stroke-width: 0.8; stroke-linejoin: miter; stroke-linecap: square"/>
   </g>
   <g id="text_19">
    <!-- VEN1 -->
    <g transform="translate(895.496875 37.2) scale(0.2 -0.2)">
     <defs>
      <path id="DejaVuSans-56" d="M 1831 0 
L 50 4666 
L 709 4666 
L 2188 738 
L 3669 4666 
L 4325 4666 
L 2547 0 
L 1831 0 
z
" transform="scale(0.015625)"/>
      <path id="DejaVuSans-4e" d="M 628 4666 
L 1478 4666 
L 3547 763 
L 3547 4666 
L 4159 4666 
L 4159 0 
L 3309 0 
L 1241 3903 
L 1241 0 
L 628 0 
L 628 4666 
z
" transform="scale(0.015625)"/>
     </defs>
     <use xlink:href="#DejaVuSans-56"/>
     <use xlink:href="#DejaVuSans-45" x="68.408203"/>
     <use xlink:href="#DejaVuSans-4e" x="131.591797"/>
     <use xlink:href="#DejaVuSans-31" x="206.396484"/>
    </g>
   </g>
   <g id="legend_1">
    <g id="patch_7">
     <path d="M 1556.228125 65.878125 
L 1613 65.878125 
Q 1615 65.878125 1615 63.878125 
L 1615 50.2 
Q 1615 48.2 1613 48.2 
L 1556.228125 48.2 
Q 1554.228125 48.2 1554.228125 50.2 
L 1554.228125 63.878125 
Q 1554.228125 65.878125 1556.228125 65.878125 
z
" style="fill: #ffffff; opacity: 0.8; stroke: #cccccc; stroke-linejoin: miter"/>
    </g>
    <g id="line2d_18">
     <path d="M 1558.228125 56.298437 
L 1568.228125 56.298437 
L 1578.228125 56.298437 
" style="fill: none; stroke: #9890f4; stroke-width: 2.5; stroke-linecap: square"/>
    </g>
    <g id="text_20">
     <!-- ven1 -->
     <g transform="translate(1586.228125 59.798437) scale(0.1 -0.1)">
      <defs>
       <path id="DejaVuSans-76" d="M 191 3500 
L 800 3500 
L 1894 563 
L 2988 3500 
L 3597 3500 
L 2284 0 
L 1503 0 
L 191 3500 
z
" transform="scale(0.015625)"/>
       <path id="DejaVuSans-6e" d="M 3513 2113 
L 3513 0 
L 2938 0 
L 2938 2094 
Q 2938 2591 2744 2837 
Q 2550 3084 2163 3084 
Q 1697 3084 1428 2787 
Q 1159 2491 1159 1978 
L 1159 0 
L 581 0 
L 581 3500 
L 1159 3500 
L 1159 2956 
Q 1366 3272 1645 3428 
Q 1925 3584 2291 3584 
Q 2894 3584 3203 3211 
Q 3513 2838 3513 2113 
z
" transform="scale(0.015625)"/>
      </defs>
      <use xlink:href="#DejaVuSans-76"/>
      <use xlink:href="#DejaVuSans-65" x="59.179688"/>
      <use xlink:href="#DejaVuSans-6e" x="120.703125"/>
      <use xlink:href="#DejaVuSans-31" x="184.082031"/>
     </g>
    </g>
   </g>
  </g>
 </g>
 <defs>
  <clipPath id="p869533ca84">
   <rect x="225" y="43.2" width="1395" height="277.2"/>
  </clipPath>
 </defs>
</svg>
