<?xml version="1.0" encoding="utf-8" standalone="no"?>
<!DOCTYPE svg PUBLIC "-//W3C//DTD SVG 1.1//EN"
  "http://www.w3.org/Graphics/SVG/1.1/DTD/svg11.dtd">
<svg xmlns:xlink="http://www.w3.org/1999/xlink" width="1800pt" height="360pt" viewBox="0 0 1800 360" xmlns="http://www.w3.org/2000/svg" version="1.1">
 <metadata>
  <rdf:RDF xmlns:dc="http://purl.org/dc/elements/1.1/" xmlns:cc="http://creativecommons.org/ns#" xmlns:rdf="http://www.w3.org/1999/02/22-rdf-syntax-ns#">
   <cc:Work>
    <dc:type rdf:resource="http://purl.org/dc/dcmitype/StillImage"/>
    <dc:date>2024-03-19T10:36:34.898647</dc:date>
    <dc:format>image/svg+xml</dc:format>
    <dc:creator>
     <cc:Agent>
      <dc:title>Matplotlib v3.7.2, https://matplotlib.org/</dc:title>
     </cc:Agent>
    </dc:creator>
   </cc:Work>
  </rdf:RDF>
 </metadata>
 <defs>
  <style type="text/css">*{stroke-linejoin: round; stroke-linecap: butt}</style>
 </defs>
 <g id="figure_1">
  <g id="patch_1">
   <path d="M 0 360 
L 1800 360 
L 1800 0 
L 0 0 
z
" style="fill: #ffffff"/>
  </g>
  <g id="axes_1">
   <g id="patch_2">
    <path d="M 225 320.4 
L 1620 320.4 
L 1620 43.2 
L 225 43.2 
z
" style="fill: #ffffff"/>
   </g>
   <g id="matplotlib.axis_1">
    <g id="xtick_1">
     <g id="line2d_1">
      <defs>
       <path id="m3222d497fe" d="M 0 0 
L 0 3.5 
" style="stroke: #000000; stroke-width: 0.8"/>
      </defs>
      <g>
       <use xlink:href="#m3222d497fe" x="281.304431" y="320.4" style="stroke: #000000; stroke-width: 0.8"/>
      </g>
     </g>
     <g id="text_1">
      <!-- 2011 -->
      <g transform="translate(262.216931 338.797656) scale(0.15 -0.15)">
       <defs>
        <path id="DejaVuSans-32" d="M 1228 531 
L 3431 531 
L 3431 0 
L 469 0 
L 469 531 
Q 828 903 1448 1529 
Q 2069 2156 2228 2338 
Q 2531 2678 2651 2914 
Q 2772 3150 2772 3378 
Q 2772 3750 2511 3984 
Q 2250 4219 1831 4219 
Q 1534 4219 1204 4116 
Q 875 4013 500 3803 
L 500 4441 
Q 881 4594 1212 4672 
Q 1544 4750 1819 4750 
Q 2544 4750 2975 4387 
Q 3406 4025 3406 3419 
Q 3406 3131 3298 2873 
Q 3191 2616 2906 2266 
Q 2828 2175 2409 1742 
Q 1991 1309 1228 531 
z
" transform="scale(0.015625)"/>
        <path id="DejaVuSans-30" d="M 2034 4250 
Q 1547 4250 1301 3770 
Q 1056 3291 1056 2328 
Q 1056 1369 1301 889 
Q 1547 409 2034 409 
Q 2525 409 2770 889 
Q 3016 1369 3016 2328 
Q 3016 3291 2770 3770 
Q 2525 4250 2034 4250 
z
M 2034 4750 
Q 2819 4750 3233 4129 
Q 3647 3509 3647 2328 
Q 3647 1150 3233 529 
Q 2819 -91 2034 -91 
Q 1250 -91 836 529 
Q 422 1150 422 2328 
Q 422 3509 836 4129 
Q 1250 4750 2034 4750 
z
" transform="scale(0.015625)"/>
        <path id="DejaVuSans-31" d="M 794 531 
L 1825 531 
L 1825 4091 
L 703 3866 
L 703 4441 
L 1819 4666 
L 2450 4666 
L 2450 531 
L 3481 531 
L 3481 0 
L 794 0 
L 794 531 
z
" transform="scale(0.015625)"/>
       </defs>
       <use xlink:href="#DejaVuSans-32"/>
       <use xlink:href="#DejaVuSans-30" x="63.623047"/>
       <use xlink:href="#DejaVuSans-31" x="127.246094"/>
       <use xlink:href="#DejaVuSans-31" x="190.869141"/>
      </g>
     </g>
    </g>
    <g id="xtick_2">
     <g id="line2d_2">
      <g>
       <use xlink:href="#m3222d497fe" x="466.533068" y="320.4" style="stroke: #000000; stroke-width: 0.8"/>
      </g>
     </g>
     <g id="text_2">
      <!-- 2012 -->
      <g transform="translate(447.445568 338.797656) scale(0.15 -0.15)">
       <use xlink:href="#DejaVuSans-32"/>
       <use xlink:href="#DejaVuSans-30" x="63.623047"/>
       <use xlink:href="#DejaVuSans-31" x="127.246094"/>
       <use xlink:href="#DejaVuSans-32" x="190.869141"/>
      </g>
     </g>
    </g>
    <g id="xtick_3">
     <g id="line2d_3">
      <g>
       <use xlink:href="#m3222d497fe" x="652.26918" y="320.4" style="stroke: #000000; stroke-width: 0.8"/>
      </g>
     </g>
     <g id="text_3">
      <!-- 2013 -->
      <g transform="translate(633.18168 338.797656) scale(0.15 -0.15)">
       <defs>
        <path id="DejaVuSans-33" d="M 2597 2516 
Q 3050 2419 3304 2112 
Q 3559 1806 3559 1356 
Q 3559 666 3084 287 
Q 2609 -91 1734 -91 
Q 1441 -91 1130 -33 
Q 819 25 488 141 
L 488 750 
Q 750 597 1062 519 
Q 1375 441 1716 441 
Q 2309 441 2620 675 
Q 2931 909 2931 1356 
Q 2931 1769 2642 2001 
Q 2353 2234 1838 2234 
L 1294 2234 
L 1294 2753 
L 1863 2753 
Q 2328 2753 2575 2939 
Q 2822 3125 2822 3475 
Q 2822 3834 2567 4026 
Q 2313 4219 1838 4219 
Q 1578 4219 1281 4162 
Q 984 4106 628 3988 
L 628 4550 
Q 988 4650 1302 4700 
Q 1616 4750 1894 4750 
Q 2613 4750 3031 4423 
Q 3450 4097 3450 3541 
Q 3450 3153 3228 2886 
Q 3006 2619 2597 2516 
z
" transform="scale(0.015625)"/>
       </defs>
       <use xlink:href="#DejaVuSans-32"/>
       <use xlink:href="#DejaVuSans-30" x="63.623047"/>
       <use xlink:href="#DejaVuSans-31" x="127.246094"/>
       <use xlink:href="#DejaVuSans-33" x="190.869141"/>
      </g>
     </g>
    </g>
    <g id="xtick_4">
     <g id="line2d_4">
      <g>
       <use xlink:href="#m3222d497fe" x="837.497817" y="320.4" style="stroke: #000000; stroke-width: 0.8"/>
      </g>
     </g>
     <g id="text_4">
      <!-- 2014 -->
      <g transform="translate(818.410317 338.797656) scale(0.15 -0.15)">
       <defs>
        <path id="DejaVuSans-34" d="M 2419 4116 
L 825 1625 
L 2419 1625 
L 2419 4116 
z
M 2253 4666 
L 3047 4666 
L 3047 1625 
L 3713 1625 
L 3713 1100 
L 3047 1100 
L 3047 0 
L 2419 0 
L 2419 1100 
L 313 1100 
L 313 1709 
L 2253 4666 
z
" transform="scale(0.015625)"/>
       </defs>
       <use xlink:href="#DejaVuSans-32"/>
       <use xlink:href="#DejaVuSans-30" x="63.623047"/>
       <use xlink:href="#DejaVuSans-31" x="127.246094"/>
       <use xlink:href="#DejaVuSans-34" x="190.869141"/>
      </g>
     </g>
    </g>
    <g id="xtick_5">
     <g id="line2d_5">
      <g>
       <use xlink:href="#m3222d497fe" x="1022.726454" y="320.4" style="stroke: #000000; stroke-width: 0.8"/>
      </g>
     </g>
     <g id="text_5">
      <!-- 2015 -->
      <g transform="translate(1003.638954 338.797656) scale(0.15 -0.15)">
       <defs>
        <path id="DejaVuSans-35" d="M 691 4666 
L 3169 4666 
L 3169 4134 
L 1269 4134 
L 1269 2991 
Q 1406 3038 1543 3061 
Q 1681 3084 1819 3084 
Q 2600 3084 3056 2656 
Q 3513 2228 3513 1497 
Q 3513 744 3044 326 
Q 2575 -91 1722 -91 
Q 1428 -91 1123 -41 
Q 819 9 494 109 
L 494 744 
Q 775 591 1075 516 
Q 1375 441 1709 441 
Q 2250 441 2565 725 
Q 2881 1009 2881 1497 
Q 2881 1984 2565 2268 
Q 2250 2553 1709 2553 
Q 1456 2553 1204 2497 
Q 953 2441 691 2322 
L 691 4666 
z
" transform="scale(0.015625)"/>
       </defs>
       <use xlink:href="#DejaVuSans-32"/>
       <use xlink:href="#DejaVuSans-30" x="63.623047"/>
       <use xlink:href="#DejaVuSans-31" x="127.246094"/>
       <use xlink:href="#DejaVuSans-35" x="190.869141"/>
      </g>
     </g>
    </g>
    <g id="xtick_6">
     <g id="line2d_6">
      <g>
       <use xlink:href="#m3222d497fe" x="1207.955091" y="320.4" style="stroke: #000000; stroke-width: 0.8"/>
      </g>
     </g>
     <g id="text_6">
      <!-- 2016 -->
      <g transform="translate(1188.867591 338.797656) scale(0.15 -0.15)">
       <defs>
        <path id="DejaVuSans-36" d="M 2113 2584 
Q 1688 2584 1439 2293 
Q 1191 2003 1191 1497 
Q 1191 994 1439 701 
Q 1688 409 2113 409 
Q 2538 409 2786 701 
Q 3034 994 3034 1497 
Q 3034 2003 2786 2293 
Q 2538 2584 2113 2584 
z
M 3366 4563 
L 3366 3988 
Q 3128 4100 2886 4159 
Q 2644 4219 2406 4219 
Q 1781 4219 1451 3797 
Q 1122 3375 1075 2522 
Q 1259 2794 1537 2939 
Q 1816 3084 2150 3084 
Q 2853 3084 3261 2657 
Q 3669 2231 3669 1497 
Q 3669 778 3244 343 
Q 2819 -91 2113 -91 
Q 1303 -91 875 529 
Q 447 1150 447 2328 
Q 447 3434 972 4092 
Q 1497 4750 2381 4750 
Q 2619 4750 2861 4703 
Q 3103 4656 3366 4563 
z
" transform="scale(0.015625)"/>
       </defs>
       <use xlink:href="#DejaVuSans-32"/>
       <use xlink:href="#DejaVuSans-30" x="63.623047"/>
       <use xlink:href="#DejaVuSans-31" x="127.246094"/>
       <use xlink:href="#DejaVuSans-36" x="190.869141"/>
      </g>
     </g>
    </g>
    <g id="xtick_7">
     <g id="line2d_7">
      <g>
       <use xlink:href="#m3222d497fe" x="1393.691204" y="320.4" style="stroke: #000000; stroke-width: 0.8"/>
      </g>
     </g>
     <g id="text_7">
      <!-- 2017 -->
      <g transform="translate(1374.603704 338.797656) scale(0.15 -0.15)">
       <defs>
        <path id="DejaVuSans-37" d="M 525 4666 
L 3525 4666 
L 3525 4397 
L 1831 0 
L 1172 0 
L 2766 4134 
L 525 4134 
L 525 4666 
z
" transform="scale(0.015625)"/>
       </defs>
       <use xlink:href="#DejaVuSans-32"/>
       <use xlink:href="#DejaVuSans-30" x="63.623047"/>
       <use xlink:href="#DejaVuSans-31" x="127.246094"/>
       <use xlink:href="#DejaVuSans-37" x="190.869141"/>
      </g>
     </g>
    </g>
    <g id="xtick_8">
     <g id="line2d_8">
      <g>
       <use xlink:href="#m3222d497fe" x="1578.919841" y="320.4" style="stroke: #000000; stroke-width: 0.8"/>
      </g>
     </g>
     <g id="text_8">
      <!-- 2018 -->
      <g transform="translate(1559.832341 338.797656) scale(0.15 -0.15)">
       <defs>
        <path id="DejaVuSans-38" d="M 2034 2216 
Q 1584 2216 1326 1975 
Q 1069 1734 1069 1313 
Q 1069 891 1326 650 
Q 1584 409 2034 409 
Q 2484 409 2743 651 
Q 3003 894 3003 1313 
Q 3003 1734 2745 1975 
Q 2488 2216 2034 2216 
z
M 1403 2484 
Q 997 2584 770 2862 
Q 544 3141 544 3541 
Q 544 4100 942 4425 
Q 1341 4750 2034 4750 
Q 2731 4750 3128 4425 
Q 3525 4100 3525 3541 
Q 3525 3141 3298 2862 
Q 3072 2584 2669 2484 
Q 3125 2378 3379 2068 
Q 3634 1759 3634 1313 
Q 3634 634 3220 271 
Q 2806 -91 2034 -91 
Q 1263 -91 848 271 
Q 434 634 434 1313 
Q 434 1759 690 2068 
Q 947 2378 1403 2484 
z
M 1172 3481 
Q 1172 3119 1398 2916 
Q 1625 2713 2034 2713 
Q 2441 2713 2670 2916 
Q 2900 3119 2900 3481 
Q 2900 3844 2670 4047 
Q 2441 4250 2034 4250 
Q 1625 4250 1398 4047 
Q 1172 3844 1172 3481 
z
" transform="scale(0.015625)"/>
       </defs>
       <use xlink:href="#DejaVuSans-32"/>
       <use xlink:href="#DejaVuSans-30" x="63.623047"/>
       <use xlink:href="#DejaVuSans-31" x="127.246094"/>
       <use xlink:href="#DejaVuSans-38" x="190.869141"/>
      </g>
     </g>
    </g>
    <g id="text_9">
     <!-- Time -->
     <g transform="translate(904.149609 357.314844) scale(0.15 -0.15)">
      <defs>
       <path id="DejaVuSans-54" d="M -19 4666 
L 3928 4666 
L 3928 4134 
L 2272 4134 
L 2272 0 
L 1638 0 
L 1638 4134 
L -19 4134 
L -19 4666 
z
" transform="scale(0.015625)"/>
       <path id="DejaVuSans-69" d="M 603 3500 
L 1178 3500 
L 1178 0 
L 603 0 
L 603 3500 
z
M 603 4863 
L 1178 4863 
L 1178 4134 
L 603 4134 
L 603 4863 
z
" transform="scale(0.015625)"/>
       <path id="DejaVuSans-6d" d="M 3328 2828 
Q 3544 3216 3844 3400 
Q 4144 3584 4550 3584 
Q 5097 3584 5394 3201 
Q 5691 2819 5691 2113 
L 5691 0 
L 5113 0 
L 5113 2094 
Q 5113 2597 4934 2840 
Q 4756 3084 4391 3084 
Q 3944 3084 3684 2787 
Q 3425 2491 3425 1978 
L 3425 0 
L 2847 0 
L 2847 2094 
Q 2847 2600 2669 2842 
Q 2491 3084 2119 3084 
Q 1678 3084 1418 2786 
Q 1159 2488 1159 1978 
L 1159 0 
L 581 0 
L 581 3500 
L 1159 3500 
L 1159 2956 
Q 1356 3278 1631 3431 
Q 1906 3584 2284 3584 
Q 2666 3584 2933 3390 
Q 3200 3197 3328 2828 
z
" transform="scale(0.015625)"/>
       <path id="DejaVuSans-65" d="M 3597 1894 
L 3597 1613 
L 953 1613 
Q 991 1019 1311 708 
Q 1631 397 2203 397 
Q 2534 397 2845 478 
Q 3156 559 3463 722 
L 3463 178 
Q 3153 47 2828 -22 
Q 2503 -91 2169 -91 
Q 1331 -91 842 396 
Q 353 884 353 1716 
Q 353 2575 817 3079 
Q 1281 3584 2069 3584 
Q 2775 3584 3186 3129 
Q 3597 2675 3597 1894 
z
M 3022 2063 
Q 3016 2534 2758 2815 
Q 2500 3097 2075 3097 
Q 1594 3097 1305 2825 
Q 1016 2553 972 2059 
L 3022 2063 
z
" transform="scale(0.015625)"/>
      </defs>
      <use xlink:href="#DejaVuSans-54"/>
      <use xlink:href="#DejaVuSans-69" x="57.958984"/>
      <use xlink:href="#DejaVuSans-6d" x="85.742188"/>
      <use xlink:href="#DejaVuSans-65" x="183.154297"/>
     </g>
    </g>
   </g>
   <g id="matplotlib.axis_2">
    <g id="ytick_1">
     <g id="line2d_9">
      <defs>
       <path id="m1da9011bcf" d="M 0 0 
L -3.5 0 
" style="stroke: #000000; stroke-width: 0.8"/>
      </defs>
      <g>
       <use xlink:href="#m1da9011bcf" x="225" y="309.031748" style="stroke: #000000; stroke-width: 0.8"/>
      </g>
     </g>
     <g id="text_10">
      <!-- −0.003 -->
      <g transform="translate(162.488281 314.730576) scale(0.15 -0.15)">
       <defs>
        <path id="DejaVuSans-2212" d="M 678 2272 
L 4684 2272 
L 4684 1741 
L 678 1741 
L 678 2272 
z
" transform="scale(0.015625)"/>
        <path id="DejaVuSans-2e" d="M 684 794 
L 1344 794 
L 1344 0 
L 684 0 
L 684 794 
z
" transform="scale(0.015625)"/>
       </defs>
       <use xlink:href="#DejaVuSans-2212"/>
       <use xlink:href="#DejaVuSans-30" x="83.789062"/>
       <use xlink:href="#DejaVuSans-2e" x="147.412109"/>
       <use xlink:href="#DejaVuSans-30" x="179.199219"/>
       <use xlink:href="#DejaVuSans-30" x="242.822266"/>
       <use xlink:href="#DejaVuSans-33" x="306.445312"/>
      </g>
     </g>
    </g>
    <g id="ytick_2">
     <g id="line2d_10">
      <g>
       <use xlink:href="#m1da9011bcf" x="225" y="269.943779" style="stroke: #000000; stroke-width: 0.8"/>
      </g>
     </g>
     <g id="text_11">
      <!-- −0.002 -->
      <g transform="translate(162.488281 275.642608) scale(0.15 -0.15)">
       <use xlink:href="#DejaVuSans-2212"/>
       <use xlink:href="#DejaVuSans-30" x="83.789062"/>
       <use xlink:href="#DejaVuSans-2e" x="147.412109"/>
       <use xlink:href="#DejaVuSans-30" x="179.199219"/>
       <use xlink:href="#DejaVuSans-30" x="242.822266"/>
       <use xlink:href="#DejaVuSans-32" x="306.445312"/>
      </g>
     </g>
    </g>
    <g id="ytick_3">
     <g id="line2d_11">
      <g>
       <use xlink:href="#m1da9011bcf" x="225" y="230.855811" style="stroke: #000000; stroke-width: 0.8"/>
      </g>
     </g>
     <g id="text_12">
      <!-- −0.001 -->
      <g transform="translate(162.488281 236.554639) scale(0.15 -0.15)">
       <use xlink:href="#DejaVuSans-2212"/>
       <use xlink:href="#DejaVuSans-30" x="83.789062"/>
       <use xlink:href="#DejaVuSans-2e" x="147.412109"/>
       <use xlink:href="#DejaVuSans-30" x="179.199219"/>
       <use xlink:href="#DejaVuSans-30" x="242.822266"/>
       <use xlink:href="#DejaVuSans-31" x="306.445312"/>
      </g>
     </g>
    </g>
    <g id="ytick_4">
     <g id="line2d_12">
      <g>
       <use xlink:href="#m1da9011bcf" x="225" y="191.767842" style="stroke: #000000; stroke-width: 0.8"/>
      </g>
     </g>
     <g id="text_13">
      <!-- 0.000 -->
      <g transform="translate(175.057813 197.466671) scale(0.15 -0.15)">
       <use xlink:href="#DejaVuSans-30"/>
       <use xlink:href="#DejaVuSans-2e" x="63.623047"/>
       <use xlink:href="#DejaVuSans-30" x="95.410156"/>
       <use xlink:href="#DejaVuSans-30" x="159.033203"/>
       <use xlink:href="#DejaVuSans-30" x="222.65625"/>
      </g>
     </g>
    </g>
    <g id="ytick_5">
     <g id="line2d_13">
      <g>
       <use xlink:href="#m1da9011bcf" x="225" y="152.679874" style="stroke: #000000; stroke-width: 0.8"/>
      </g>
     </g>
     <g id="text_14">
      <!-- 0.001 -->
      <g transform="translate(175.057813 158.378702) scale(0.15 -0.15)">
       <use xlink:href="#DejaVuSans-30"/>
       <use xlink:href="#DejaVuSans-2e" x="63.623047"/>
       <use xlink:href="#DejaVuSans-30" x="95.410156"/>
       <use xlink:href="#DejaVuSans-30" x="159.033203"/>
       <use xlink:href="#DejaVuSans-31" x="222.65625"/>
      </g>
     </g>
    </g>
    <g id="ytick_6">
     <g id="line2d_14">
      <g>
       <use xlink:href="#m1da9011bcf" x="225" y="113.591905" style="stroke: #000000; stroke-width: 0.8"/>
      </g>
     </g>
     <g id="text_15">
      <!-- 0.002 -->
      <g transform="translate(175.057813 119.290734) scale(0.15 -0.15)">
       <use xlink:href="#DejaVuSans-30"/>
       <use xlink:href="#DejaVuSans-2e" x="63.623047"/>
       <use xlink:href="#DejaVuSans-30" x="95.410156"/>
       <use xlink:href="#DejaVuSans-30" x="159.033203"/>
       <use xlink:href="#DejaVuSans-32" x="222.65625"/>
      </g>
     </g>
    </g>
    <g id="ytick_7">
     <g id="line2d_15">
      <g>
       <use xlink:href="#m1da9011bcf" x="225" y="74.503937" style="stroke: #000000; stroke-width: 0.8"/>
      </g>
     </g>
     <g id="text_16">
      <!-- 0.003 -->
      <g transform="translate(175.057813 80.202765) scale(0.15 -0.15)">
       <use xlink:href="#DejaVuSans-30"/>
       <use xlink:href="#DejaVuSans-2e" x="63.623047"/>
       <use xlink:href="#DejaVuSans-30" x="95.410156"/>
       <use xlink:href="#DejaVuSans-30" x="159.033203"/>
       <use xlink:href="#DejaVuSans-33" x="222.65625"/>
      </g>
     </g>
    </g>
    <g id="text_17">
     <!-- East(m) -->
     <g transform="translate(155.36875 211.140234) rotate(-90) scale(0.15 -0.15)">
      <defs>
       <path id="DejaVuSans-45" d="M 628 4666 
L 3578 4666 
L 3578 4134 
L 1259 4134 
L 1259 2753 
L 3481 2753 
L 3481 2222 
L 1259 2222 
L 1259 531 
L 3634 531 
L 3634 0 
L 628 0 
L 628 4666 
z
" transform="scale(0.015625)"/>
       <path id="DejaVuSans-61" d="M 2194 1759 
Q 1497 1759 1228 1600 
Q 959 1441 959 1056 
Q 959 750 1161 570 
Q 1363 391 1709 391 
Q 2188 391 2477 730 
Q 2766 1069 2766 1631 
L 2766 1759 
L 2194 1759 
z
M 3341 1997 
L 3341 0 
L 2766 0 
L 2766 531 
Q 2569 213 2275 61 
Q 1981 -91 1556 -91 
Q 1019 -91 701 211 
Q 384 513 384 1019 
Q 384 1609 779 1909 
Q 1175 2209 1959 2209 
L 2766 2209 
L 2766 2266 
Q 2766 2663 2505 2880 
Q 2244 3097 1772 3097 
Q 1472 3097 1187 3025 
Q 903 2953 641 2809 
L 641 3341 
Q 956 3463 1253 3523 
Q 1550 3584 1831 3584 
Q 2591 3584 2966 3190 
Q 3341 2797 3341 1997 
z
" transform="scale(0.015625)"/>
       <path id="DejaVuSans-73" d="M 2834 3397 
L 2834 2853 
Q 2591 2978 2328 3040 
Q 2066 3103 1784 3103 
Q 1356 3103 1142 2972 
Q 928 2841 928 2578 
Q 928 2378 1081 2264 
Q 1234 2150 1697 2047 
L 1894 2003 
Q 2506 1872 2764 1633 
Q 3022 1394 3022 966 
Q 3022 478 2636 193 
Q 2250 -91 1575 -91 
Q 1294 -91 989 -36 
Q 684 19 347 128 
L 347 722 
Q 666 556 975 473 
Q 1284 391 1588 391 
Q 1994 391 2212 530 
Q 2431 669 2431 922 
Q 2431 1156 2273 1281 
Q 2116 1406 1581 1522 
L 1381 1569 
Q 847 1681 609 1914 
Q 372 2147 372 2553 
Q 372 3047 722 3315 
Q 1072 3584 1716 3584 
Q 2034 3584 2315 3537 
Q 2597 3491 2834 3397 
z
" transform="scale(0.015625)"/>
       <path id="DejaVuSans-74" d="M 1172 4494 
L 1172 3500 
L 2356 3500 
L 2356 3053 
L 1172 3053 
L 1172 1153 
Q 1172 725 1289 603 
Q 1406 481 1766 481 
L 2356 481 
L 2356 0 
L 1766 0 
Q 1100 0 847 248 
Q 594 497 594 1153 
L 594 3053 
L 172 3053 
L 172 3500 
L 594 3500 
L 594 4494 
L 1172 4494 
z
" transform="scale(0.015625)"/>
       <path id="DejaVuSans-28" d="M 1984 4856 
Q 1566 4138 1362 3434 
Q 1159 2731 1159 2009 
Q 1159 1288 1364 580 
Q 1569 -128 1984 -844 
L 1484 -844 
Q 1016 -109 783 600 
Q 550 1309 550 2009 
Q 550 2706 781 3412 
Q 1013 4119 1484 4856 
L 1984 4856 
z
" transform="scale(0.015625)"/>
       <path id="DejaVuSans-29" d="M 513 4856 
L 1013 4856 
Q 1481 4119 1714 3412 
Q 1947 2706 1947 2009 
Q 1947 1309 1714 600 
Q 1481 -109 1013 -844 
L 513 -844 
Q 928 -128 1133 580 
Q 1338 1288 1338 2009 
Q 1338 2731 1133 3434 
Q 928 4138 513 4856 
z
" transform="scale(0.015625)"/>
      </defs>
      <use xlink:href="#DejaVuSans-45"/>
      <use xlink:href="#DejaVuSans-61" x="63.183594"/>
      <use xlink:href="#DejaVuSans-73" x="124.462891"/>
      <use xlink:href="#DejaVuSans-74" x="176.5625"/>
      <use xlink:href="#DejaVuSans-28" x="215.771484"/>
      <use xlink:href="#DejaVuSans-6d" x="254.785156"/>
      <use xlink:href="#DejaVuSans-29" x="352.197266"/>
     </g>
    </g>
   </g>
   <g id="line2d_16">
    <path d="M 288.409091 194.25733 
L 288.916567 178.969549 
L 289.424042 189.857678 
L 289.931518 186.768601 
L 290.438994 179.777242 
L 290.946469 180.912923 
L 291.453945 182.432038 
L 292.468897 173.050138 
L 292.976372 160.287523 
L 293.483848 153.935334 
L 293.991324 156.500786 
L 294.4988 154.453858 
L 295.006275 145.840151 
L 295.513751 150.136642 
L 296.528702 170.612366 
L 297.036178 183.016818 
L 297.543654 181.734898 
L 298.05113 181.29616 
L 298.558605 190.679671 
L 299.066081 182.864475 
L 299.573557 184.55324 
L 300.588508 192.693918 
L 301.095984 198.771703 
L 301.60346 197.154743 
L 302.110935 193.834664 
L 302.618411 204.44107 
L 303.125887 204.979531 
L 303.633362 212.743683 
L 304.140838 211.472931 
L 304.648314 206.332469 
L 305.15579 208.37861 
L 305.663265 210.994318 
L 306.170741 210.684012 
L 306.678217 201.578914 
L 307.185692 186.096893 
L 307.693168 177.008546 
L 308.200644 172.828532 
L 308.70812 162.88025 
L 309.215595 159.498747 
L 309.723071 148.958562 
L 310.230547 146.34765 
L 311.245498 125.898271 
L 311.752974 126.151949 
L 312.26045 140.404704 
L 312.767925 150.385702 
L 313.782877 174.066639 
L 314.290353 181.479 
L 315.305304 209.521037 
L 315.81278 216.966902 
L 316.320255 213.93719 
L 316.827731 217.669698 
L 317.335207 210.943381 
L 317.842683 218.305486 
L 318.350158 216.102206 
L 319.36511 202.800341 
L 319.872585 206.108464 
L 320.380061 206.17787 
L 320.887537 211.84244 
L 321.395013 206.104491 
L 321.902488 207.329784 
L 322.409964 206.299143 
L 322.91744 210.824578 
L 323.424915 218.666906 
L 323.932391 218.334264 
L 324.439867 231.403212 
L 324.947343 236.090583 
L 325.454818 231.664872 
L 325.962294 231.857126 
L 326.46977 224.717594 
L 327.484721 185.405479 
L 327.992197 174.602845 
L 328.499673 176.788586 
L 329.007148 183.072979 
L 331.037051 235.428879 
L 331.544527 265.77904 
L 332.052003 275.831377 
L 332.559478 279.26668 
L 333.066954 287.627066 
L 334.081905 271.960666 
L 334.589381 253.977015 
L 335.604333 238.562001 
L 336.111808 221.762157 
L 336.619284 219.698477 
L 337.12676 207.996821 
L 337.634236 209.205362 
L 338.649187 217.480056 
L 339.156663 220.028756 
L 339.664138 227.039068 
L 340.171614 228.16385 
L 340.67909 227.93172 
L 341.186566 221.959243 
L 341.694041 208.950932 
L 342.201517 201.72764 
L 342.708993 190.986431 
L 344.23142 178.865187 
L 344.738896 178.20309 
L 345.246371 178.8644 
L 345.753847 175.360049 
L 346.261323 175.580223 
L 346.768798 170.769217 
L 347.276274 177.47241 
L 347.78375 191.021581 
L 348.291226 194.486057 
L 349.306177 206.803563 
L 349.813653 209.782231 
L 350.321128 214.888401 
L 350.828604 205.074135 
L 351.33608 203.970902 
L 351.843556 209.601968 
L 352.351031 208.683007 
L 352.858507 213.169354 
L 353.365983 208.54262 
L 353.873458 211.739063 
L 354.380934 221.306846 
L 354.88841 224.034234 
L 355.395886 214.415408 
L 355.903361 214.81427 
L 356.410837 207.211266 
L 357.425788 229.82566 
L 357.933264 224.969983 
L 358.44074 222.705279 
L 358.948216 225.315403 
L 359.455691 223.324315 
L 359.963167 231.367666 
L 360.470643 235.396125 
L 360.978119 228.010898 
L 361.99307 233.711369 
L 363.008021 245.805516 
L 363.515497 242.167149 
L 364.022973 236.239344 
L 364.530449 234.209168 
L 365.037924 239.158986 
L 365.5454 229.919872 
L 366.052876 229.397375 
L 366.560351 225.116848 
L 367.067827 222.718129 
L 368.590254 246.005001 
L 369.09773 261.771018 
L 370.112681 259.888424 
L 370.620157 269.445039 
L 371.127633 272.95977 
L 371.635109 284.091071 
L 372.142584 280.597888 
L 372.65006 270.85063 
L 373.157536 269.73623 
L 373.665011 276.84147 
L 374.679963 260.183624 
L 375.187439 236.660649 
L 375.694914 226.650943 
L 376.20239 211.760826 
L 376.709866 230.877241 
L 377.217341 234.65442 
L 377.724817 254.440914 
L 378.232293 250.501011 
L 378.739769 253.016208 
L 379.247244 275.097724 
L 379.75472 307.8 
L 380.262196 287.409647 
L 381.277147 266.513548 
L 381.784623 274.383796 
L 382.292099 284.716586 
L 383.30705 251.792561 
L 384.322002 262.513045 
L 385.844429 232.377832 
L 386.351904 233.167573 
L 386.85938 229.56271 
L 387.366856 229.542773 
L 387.874332 226.194773 
L 388.381807 232.099455 
L 389.396759 247.398815 
L 389.904234 252.197865 
L 390.41171 254.36127 
L 390.919186 250.851335 
L 391.426662 258.648991 
L 391.934137 261.867771 
L 392.441613 277.751052 
L 392.949089 269.025665 
L 393.456564 253.8731 
L 393.96404 250.128637 
L 394.471516 257.635925 
L 395.486467 240.302416 
L 395.993943 216.366225 
L 396.501419 223.158762 
L 397.51637 245.644724 
L 398.023846 248.187841 
L 398.531322 259.453158 
L 399.038797 257.316886 
L 399.546273 256.554276 
L 400.053749 262.793998 
L 400.561224 262.952748 
L 401.576176 238.304204 
L 402.591127 213.957196 
L 403.098603 212.340236 
L 404.113555 184.961118 
L 404.62103 177.916514 
L 405.128506 174.786291 
L 405.635982 170.198645 
L 406.143457 172.981873 
L 406.650933 181.075481 
L 407.158409 177.688394 
L 407.665885 185.798753 
L 408.17336 191.496827 
L 408.680836 191.097177 
L 409.188312 192.233127 
L 409.695787 191.101974 
L 410.203263 178.652062 
L 410.710739 182.395737 
L 411.218215 184.82159 
L 411.72569 178.502905 
L 412.740642 191.317387 
L 413.248117 206.871213 
L 413.755593 212.848486 
L 414.263069 212.962564 
L 414.770545 201.869564 
L 415.27802 197.778893 
L 415.785496 199.702186 
L 416.292972 197.208538 
L 416.800447 184.65253 
L 417.815399 174.449783 
L 418.322875 177.199507 
L 418.83035 182.506701 
L 419.337826 174.177778 
L 419.845302 176.961006 
L 420.860253 193.600525 
L 421.367729 198.29348 
L 421.875205 207.140927 
L 422.38268 210.940442 
L 422.890156 207.374667 
L 423.397632 205.478507 
L 423.905107 199.852237 
L 424.412583 191.752258 
L 424.920059 195.736045 
L 425.427535 191.092559 
L 425.93501 187.895328 
L 426.442486 193.504058 
L 426.949962 182.913617 
L 427.457438 179.906241 
L 427.964913 180.545215 
L 428.979865 154.684944 
L 429.48734 136.008877 
L 429.994816 134.369581 
L 430.502292 135.969002 
L 431.009768 133.648458 
L 431.517243 126.01195 
L 432.024719 125.042733 
L 433.03967 135.350002 
L 433.547146 123.101114 
L 434.054622 118.954603 
L 434.562098 117.337643 
L 435.069573 123.504772 
L 435.577049 125.578833 
L 436.592 119.10061 
L 437.099476 122.079278 
L 437.606952 125.817369 
L 438.114428 124.312089 
L 438.621903 123.337288 
L 439.129379 113.64587 
L 439.636855 110.057759 
L 440.14433 122.562723 
L 440.651806 123.274289 
L 441.159282 120.060306 
L 441.666758 124.206029 
L 442.174233 118.200048 
L 442.681709 122.317851 
L 443.189185 125.000567 
L 443.69666 118.33009 
L 444.711612 134.204602 
L 445.726563 140.781761 
L 446.234039 139.901888 
L 446.741515 147.6102 
L 448.263942 121.785832 
L 448.771418 117.28753 
L 449.278893 113.889274 
L 449.786369 115.32676 
L 450.293845 104.194671 
L 450.801321 111.495351 
L 451.308796 102.518685 
L 451.816272 122.137659 
L 452.323748 124.580263 
L 452.831223 145.522645 
L 453.338699 150.321695 
L 453.846175 150.01139 
L 454.353651 151.845338 
L 454.861126 167.72862 
L 455.368602 146.980891 
L 455.876078 140.450014 
L 456.383553 114.922385 
L 456.891029 112.210961 
L 457.398505 131.394384 
L 457.905981 131.648062 
L 458.413456 132.566236 
L 458.920932 139.626804 
L 459.428408 141.818129 
L 459.935883 147.756314 
L 460.443359 147.016041 
L 460.950835 128.172454 
L 461.458311 130.291187 
L 461.965786 128.551379 
L 462.473262 124.801332 
L 462.980738 126.85864 
L 463.488213 126.090447 
L 463.995689 132.525608 
L 464.503165 140.95984 
L 465.010641 153.31962 
L 466.025592 160.555691 
L 466.533068 163.333335 
L 467.040543 159.281752 
L 467.548019 161.484245 
L 468.055495 175.614152 
L 468.562971 175.125158 
L 469.070446 181.186192 
L 469.577922 185.091803 
L 470.085398 191.934595 
L 470.592874 204.333464 
L 471.100349 206.614132 
L 471.607825 198.117689 
L 472.115301 200.750149 
L 472.622776 206.699503 
L 473.130252 220.204002 
L 473.637728 218.687553 
L 474.145204 221.191582 
L 474.652679 214.241905 
L 475.160155 205.209399 
L 475.667631 192.742735 
L 476.175106 191.014095 
L 476.682582 172.49438 
L 477.190058 174.116137 
L 477.697534 184.097135 
L 478.205009 188.605818 
L 478.712485 189.825527 
L 479.219961 181.558028 
L 479.727436 168.8345 
L 480.234912 169.18869 
L 480.742388 164.578708 
L 481.757339 132.218667 
L 482.264815 129.775275 
L 482.772291 130.872136 
L 483.279766 122.079742 
L 483.787242 124.114714 
L 484.294718 121.71041 
L 484.802194 125.12463 
L 485.309669 138.333178 
L 485.817145 136.866985 
L 486.324621 144.564129 
L 486.832096 148.815948 
L 487.339572 149.588937 
L 488.354524 156.45088 
L 488.861999 164.488648 
L 489.369475 194.884734 
L 489.876951 207.920178 
L 490.384426 225.534498 
L 491.399378 234.395511 
L 492.414329 225.348651 
L 492.921805 199.458062 
L 493.429281 193.949057 
L 493.936757 197.151084 
L 494.444232 208.265633 
L 494.951708 214.611451 
L 495.459184 223.933537 
L 496.474135 232.174727 
L 497.489087 237.797023 
L 497.996562 234.180992 
L 498.504038 227.030292 
L 499.011514 230.075968 
L 499.518989 228.006704 
L 500.026465 232.141259 
L 500.533941 225.895166 
L 501.548892 204.407164 
L 502.056368 220.128509 
L 503.071319 235.528382 
L 503.578795 241.287879 
L 504.086271 261.750037 
L 504.593747 266.459743 
L 505.101222 278.920036 
L 505.608698 278.950354 
L 506.116174 271.87783 
L 507.131125 251.891922 
L 507.638601 232.082304 
L 508.146077 224.183349 
L 508.653552 220.572902 
L 509.161028 206.056912 
L 509.668504 210.900634 
L 511.190931 252.29082 
L 511.698407 273.294625 
L 512.205882 280.159754 
L 512.713358 289.481841 
L 513.220834 289.355807 
L 514.235785 280.671906 
L 514.743261 269.645913 
L 515.758212 239.307278 
L 516.773164 220.376746 
L 517.28064 215.269788 
L 517.788115 217.701225 
L 518.295591 223.075427 
L 518.803067 222.765121 
L 520.325494 239.127839 
L 520.83297 240.716092 
L 521.847921 229.106177 
L 522.355397 226.283074 
L 522.862872 221.081188 
L 524.3853 199.690512 
L 524.892775 203.473276 
L 525.400251 201.292332 
L 525.907727 204.449687 
L 526.415202 211.57168 
L 526.922678 221.90447 
L 527.430154 228.406639 
L 527.93763 232.630537 
L 528.445105 239.713442 
L 528.952581 244.300301 
L 529.460057 242.448812 
L 529.967532 235.750416 
L 530.475008 212.819345 
L 530.982484 207.874323 
L 531.48996 207.603105 
L 531.997435 199.408198 
L 532.504911 197.104406 
L 533.012387 201.534913 
L 533.519862 211.884455 
L 534.027338 217.068801 
L 534.534814 212.687763 
L 535.04229 219.927019 
L 535.549765 216.60694 
L 536.057241 216.84945 
L 536.564717 206.968176 
L 537.072193 206.049215 
L 537.579668 212.400616 
L 538.087144 222.264351 
L 538.59462 221.31747 
L 539.102095 241.271484 
L 539.609571 251.023538 
L 540.117047 258.039435 
L 540.624523 257.092554 
L 541.639474 265.361663 
L 542.14695 256.775877 
L 543.161901 233.47866 
L 543.669377 225.79748 
L 544.176853 222.516489 
L 544.684328 226.667796 
L 545.191804 228.99872 
L 545.69928 241.66562 
L 546.206755 230.5447 
L 546.714231 242.45776 
L 547.729183 269.764644 
L 548.236658 279.588037 
L 548.744134 282.107565 
L 549.25161 275.167804 
L 549.759085 266.597516 
L 550.266561 274.980239 
L 550.774037 272.524426 
L 551.281513 261.861393 
L 551.788988 257.619954 
L 552.296464 257.572097 
L 553.818891 274.29219 
L 554.326367 259.279224 
L 554.833843 254.563146 
L 555.341318 252.86801 
L 555.848794 246.197533 
L 556.35627 246.724827 
L 556.863745 248.70396 
L 557.371221 237.616543 
L 557.878697 261.80881 
L 558.386173 263.743271 
L 558.893648 275.639579 
L 559.401124 290.986797 
L 559.9086 296.450343 
L 560.416076 286.848269 
L 560.923551 291.859511 
L 561.431027 273.70834 
L 561.938503 282.589291 
L 562.445978 273.288753 
L 562.953454 256.433069 
L 563.46093 249.539232 
L 563.968406 247.603984 
L 564.475881 244.864641 
L 564.983357 245.894494 
L 565.490833 246.399452 
L 565.998308 248.272489 
L 566.505784 259.119006 
L 567.01326 256.351743 
L 567.520736 261.815288 
L 568.028211 264.7437 
L 568.535687 283.100692 
L 569.043163 264.117505 
L 569.550638 249.562427 
L 570.058114 242.076687 
L 570.56559 250.309895 
L 571.073066 250.870693 
L 571.580541 270.807955 
L 572.088017 269.509282 
L 573.102968 304.408467 
L 573.610444 303.774289 
L 574.11792 293.909768 
L 574.625396 298.22301 
L 575.132871 278.910368 
L 575.640347 273.272931 
L 576.147823 270.974723 
L 576.655298 256.592749 
L 577.162774 259.761272 
L 577.67025 255.536586 
L 578.177726 244.666945 
L 578.685201 245.613039 
L 579.700153 217.781617 
L 580.207629 212.613236 
L 580.715104 204.680776 
L 581.22258 201.23785 
L 581.730056 206.243508 
L 582.237531 199.656791 
L 583.759959 216.76218 
L 584.267434 227.329498 
L 584.77491 242.537116 
L 585.282386 245.59396 
L 586.297337 258.78257 
L 586.804813 258.66212 
L 587.312289 261.858564 
L 587.819764 250.944251 
L 588.32724 236.093221 
L 588.834716 230.11516 
L 589.342191 222.584748 
L 589.849667 204.673689 
L 590.357143 191.045554 
L 590.864619 189.959073 
L 591.372094 192.652957 
L 591.87957 205.939681 
L 592.387046 213.424633 
L 592.894521 211.573145 
L 593.401997 228.567641 
L 593.909473 237.54352 
L 594.416949 244.319305 
L 594.924424 248.67722 
L 595.4319 251.248256 
L 595.939376 246.945394 
L 596.446851 252.526203 
L 596.954327 247.123294 
L 597.461803 253.039143 
L 598.476754 234.873618 
L 598.98423 224.791321 
L 599.491706 220.454955 
L 599.999181 209.417794 
L 601.014133 194.16153 
L 601.521609 193.856809 
L 602.029084 199.794994 
L 602.53656 196.519587 
L 603.044036 185.744874 
L 603.551512 193.464354 
L 604.058987 192.260609 
L 604.566463 188.214611 
L 605.073939 186.178851 
L 606.08889 171.788107 
L 606.596366 182.958496 
L 607.103842 177.533251 
L 607.611317 175.949794 
L 608.118793 176.153216 
L 608.626269 164.825688 
L 609.133744 165.101702 
L 609.64122 171.698799 
L 610.148696 169.897566 
L 610.656172 170.31318 
L 611.163647 169.857691 
L 611.671123 166.24166 
L 612.178599 166.67961 
L 612.686074 157.541007 
L 613.701026 143.865015 
L 614.715977 125.291858 
L 615.223453 124.484577 
L 616.238404 134.23903 
L 617.253356 138.88971 
L 618.268307 158.572507 
L 618.775783 161.126791 
L 619.283259 147.889536 
L 619.790734 143.592258 
L 620.29821 134.034856 
L 620.805686 128.241067 
L 621.820637 104.979287 
L 622.835589 85.933424 
L 623.343064 84.337546 
L 623.85054 91.782158 
L 624.358016 91.772135 
L 624.865492 90.08133 
L 625.372967 83.6888 
L 625.880443 93.787063 
L 626.387919 113.366949 
L 626.895395 106.612713 
L 627.40287 104.973416 
L 627.910346 100.006059 
L 628.417822 99.567321 
L 629.432773 102.889011 
L 629.940249 84.799264 
L 630.9552 64.154445 
L 631.462676 63.620779 
L 631.970152 55.8 
L 632.477627 57.689789 
L 632.985103 56.698236 
L 633.492579 61.16783 
L 634.000055 56.680696 
L 634.50753 62.077234 
L 635.015006 71.002857 
L 635.522482 76.293299 
L 636.029957 75.491602 
L 636.537433 75.879296 
L 637.044909 87.172533 
L 637.552385 111.063264 
L 638.05986 120.201079 
L 638.567336 114.021994 
L 639.074812 114.582792 
L 639.582287 110.737817 
L 640.089763 126.246971 
L 641.104715 126.687319 
L 641.61219 126.611541 
L 642.119666 128.797282 
L 643.134617 120.967733 
L 643.642093 97.053878 
L 644.657045 71.819015 
L 645.16452 69.453799 
L 645.671996 69.472949 
L 646.179472 75.600991 
L 646.686948 84.504278 
L 647.194423 91.363822 
L 648.209375 83.316497 
L 648.71685 77.545044 
L 649.224326 76.168196 
L 649.731802 74.439555 
L 650.239278 80.506173 
L 650.746753 81.173066 
L 651.254229 88.630099 
L 651.761705 89.0848 
L 652.26918 87.585104 
L 652.776656 83.29341 
L 653.791608 108.113482 
L 654.299083 107.590985 
L 655.314035 126.61487 
L 656.328986 153.316749 
L 656.836462 154.703978 
L 657.343938 139.640756 
L 657.851413 137.459812 
L 658.358889 132.972678 
L 658.866365 145.248698 
L 659.881316 147.861221 
L 660.896268 155.761787 
L 661.403743 156.540361 
L 661.911219 160.4013 
L 662.418695 159.571683 
L 662.92617 161.517311 
L 663.433646 167.042281 
L 663.941122 157.970687 
L 664.448598 156.236462 
L 664.956073 167.641379 
L 665.463549 163.042565 
L 665.971025 163.832307 
L 666.4785 160.05434 
L 666.985976 159.699363 
L 668.508403 200.419469 
L 669.015879 223.344168 
L 669.523355 214.752797 
L 670.030831 210.874319 
L 670.538306 217.136376 
L 671.045782 213.481257 
L 671.553258 207.559036 
L 672.060733 191.870407 
L 672.568209 171.13943 
L 673.075685 158.505246 
L 673.583161 155.056735 
L 674.090636 141.741304 
L 674.598112 131.97171 
L 675.105588 124.519475 
L 675.613063 129.988605 
L 676.120539 141.131074 
L 676.628015 158.583458 
L 677.135491 165.800378 
L 677.642966 163.69761 
L 678.150442 155.653471 
L 678.657918 162.122136 
L 679.165393 161.912342 
L 679.672869 160.155782 
L 680.180345 162.341523 
L 680.687821 169.882315 
L 681.195296 179.974993 
L 681.702772 187.069065 
L 682.210248 189.45583 
L 682.717723 194.33864 
L 683.225199 194.586734 
L 683.732675 194.142413 
L 685.255102 179.013328 
L 686.270053 186.704781 
L 687.285005 170.156109 
L 687.792481 159.0116 
L 688.299956 159.962024 
L 688.807432 167.603328 
L 689.314908 166.248816 
L 689.822383 155.172567 
L 690.329859 149.350858 
L 690.837335 139.067536 
L 691.852286 143.137482 
L 692.359762 137.444204 
L 692.867238 130.271168 
L 693.374714 141.475062 
L 693.882189 144.09077 
L 694.389665 158.170421 
L 694.897141 161.83592 
L 695.404616 160.269215 
L 695.912092 164.437274 
L 696.419568 175.596495 
L 697.434519 156.247164 
L 697.941995 156.874969 
L 698.449471 154.459497 
L 698.956946 153.361849 
L 699.464422 150.996633 
L 699.971898 142.24891 
L 700.479374 143.719899 
L 700.986849 158.251854 
L 701.494325 159.153275 
L 702.001801 154.225005 
L 702.509276 152.864909 
L 703.016752 155.636969 
L 703.524228 165.238255 
L 704.031704 166.59198 
L 704.539179 163.428253 
L 705.046655 156.478577 
L 705.554131 160.775068 
L 706.061606 160.738378 
L 706.569082 157.351291 
L 707.076558 160.670582 
L 707.584034 162.431939 
L 708.091509 161.535314 
L 708.598985 169.824362 
L 709.106461 175.382836 
L 709.613936 178.288911 
L 710.121412 183.629609 
L 710.628888 168.320692 
L 711.136364 162.554823 
L 711.643839 172.541405 
L 712.151315 180.031941 
L 712.658791 173.288873 
L 713.166267 169.170282 
L 713.673742 171.026567 
L 714.688694 222.716826 
L 715.196169 220.954682 
L 715.703645 211.17392 
L 716.211121 210.657006 
L 716.718597 220.984212 
L 717.226072 217.250918 
L 717.733548 202.098352 
L 718.241024 183.12075 
L 718.748499 188.790903 
L 719.763451 210.701714 
L 720.270927 209.19085 
L 720.778402 202.788405 
L 721.285878 193.409691 
L 722.300829 183.123183 
L 722.808305 171.002727 
L 723.315781 164.600283 
L 723.823257 162.329995 
L 724.330732 168.675812 
L 724.838208 178.383194 
L 725.345684 185.354419 
L 725.853159 193.989674 
L 726.360635 207.54443 
L 726.868111 215.537525 
L 727.883062 227.983464 
L 728.390538 224.702473 
L 728.898014 222.437769 
L 729.405489 220.737048 
L 729.912965 218.081465 
L 730.420441 211.293725 
L 730.927917 214.026697 
L 731.435392 210.131466 
L 731.942868 214.807668 
L 732.450344 224.397787 
L 732.957819 224.601209 
L 733.972771 233.283534 
L 734.480247 228.62888 
L 734.987722 235.209225 
L 735.495198 233.754201 
L 736.002674 223.934351 
L 736.51015 227.672442 
L 737.017625 228.088056 
L 737.525101 236.114656 
L 738.032577 225.155671 
L 738.540052 229.440994 
L 739.047528 225.590435 
L 739.555004 233.008379 
L 740.06248 227.370942 
L 740.569955 213.692551 
L 741.077431 207.407371 
L 741.584907 217.885344 
L 742.092382 210.9245 
L 742.599858 211.150258 
L 743.107334 203.340647 
L 743.61481 202.449606 
L 744.122285 208.683743 
L 745.137237 227.679708 
L 745.644712 231.462471 
L 746.152188 246.044682 
L 747.16714 259.177452 
L 747.674615 274.100286 
L 748.182091 266.257171 
L 748.689567 273.797963 
L 749.197042 272.817578 
L 749.704518 279.101971 
L 750.211994 290.652072 
L 750.71947 290.96159 
L 751.226945 279.795997 
L 751.734421 286.069222 
L 752.241897 279.650026 
L 752.749372 283.89626 
L 753.256848 285.813969 
L 753.764324 291.847083 
L 754.2718 287.030493 
L 754.779275 290.271608 
L 755.286751 286.415466 
L 755.794227 278.332238 
L 756.301702 279.423516 
L 757.316654 262.112342 
L 757.82413 277.655 
L 758.331605 288.691373 
L 759.346557 298.149874 
L 760.361508 286.34452 
L 760.868984 284.007224 
L 761.37646 284.32791 
L 762.391411 262.767316 
L 762.898887 256.962359 
L 763.406363 263.699056 
L 763.913838 267.459483 
L 764.421314 255.316691 
L 764.92879 234.071986 
L 765.943741 208.24522 
L 766.451217 208.23645 
L 767.466168 174.670265 
L 768.988595 193.160485 
L 769.496071 196.049809 
L 770.003547 177.982398 
L 770.511023 185.10439 
L 771.018498 200.088648 
L 771.525974 198.04172 
L 772.03345 187.881247 
L 772.540925 185.164239 
L 773.555877 204.791196 
L 774.063353 202.749852 
L 774.570828 203.025866 
L 775.078304 202.358185 
L 775.58578 205.649556 
L 776.093255 198.040968 
L 776.600731 197.747415 
L 777.108207 202.937345 
L 777.615683 203.140767 
L 778.123158 185.341388 
L 778.630634 184.199067 
L 779.13811 169.856181 
L 779.645586 169.127075 
L 780.153061 161.875863 
L 780.660537 159.371048 
L 781.168013 151.611692 
L 781.675488 154.623864 
L 782.182964 153.302855 
L 782.69044 169.97348 
L 783.197916 172.890724 
L 783.705391 182.369163 
L 784.212867 180.59585 
L 784.720343 190.554513 
L 785.227818 203.975252 
L 785.735294 206.847824 
L 786.24277 200.372787 
L 786.750246 219.578546 
L 787.257721 226.750795 
L 787.765197 225.26785 
L 788.272673 224.611337 
L 788.780148 213.0772 
L 789.7951 196.285338 
L 790.810051 147.513934 
L 791.317527 140.30181 
L 792.332478 113.319156 
L 792.839954 105.358777 
L 793.34743 112.726465 
L 793.854906 113.745151 
L 794.869857 114.665722 
L 795.377333 122.206515 
L 796.392284 147.261115 
L 796.89976 141.886125 
L 797.407236 145.987176 
L 797.914711 158.413965 
L 798.422187 162.794215 
L 799.437138 154.339259 
L 799.944614 143.022898 
L 800.959566 146.93284 
L 801.467041 138.630584 
L 801.974517 121.047728 
L 802.481993 111.986049 
L 802.989469 106.442286 
L 803.496944 116.68448 
L 804.00442 144.013699 
L 804.511896 134.283193 
L 805.019371 133.40332 
L 805.526847 130.485289 
L 806.034323 131.839014 
L 806.541799 133.583619 
L 807.049274 122.189082 
L 807.55675 105.902965 
L 808.064226 110.81928 
L 808.571701 110.19627 
L 809.079177 112.923658 
L 809.586653 117.644533 
L 810.094129 114.977781 
L 810.601604 123.579532 
L 811.616556 113.579742 
L 812.631507 136.872878 
L 813.138983 144.256065 
L 813.646459 135.998482 
L 814.153934 134.933084 
L 814.66141 131.299048 
L 815.168886 125.929643 
L 815.676361 103.154923 
L 816.183837 105.295992 
L 816.691313 99.468699 
L 817.198789 109.248673 
L 817.706264 113.23246 
L 818.21374 112.793723 
L 818.721216 124.047872 
L 819.228691 138.803186 
L 819.736167 131.445878 
L 820.243643 135.893137 
L 820.751119 134.918336 
L 821.258594 142.219016 
L 821.76607 145.38754 
L 822.273546 141.855269 
L 822.781021 145.883728 
L 823.288497 153.552952 
L 823.795973 159.47997 
L 824.303449 171.86767 
L 824.810924 169.753734 
L 825.3184 169.68354 
L 826.333352 170.777216 
L 826.840827 169.450623 
L 827.348303 172.848091 
L 828.363254 164.52715 
L 828.87073 161.318751 
L 829.378206 165.553817 
L 829.885682 164.171385 
L 830.900633 139.924889 
L 831.408109 135.99057 
L 831.915584 145.318241 
L 832.42306 145.761775 
L 832.930536 147.863755 
L 833.438012 141.148607 
L 833.945487 160.114254 
L 834.452963 168.877941 
L 834.960439 169.885459 
L 835.467914 157.776171 
L 836.482866 172.824251 
L 836.990342 174.5186 
L 837.497817 155.557749 
L 838.512769 140.761307 
L 839.020244 137.546071 
L 839.52772 145.900873 
L 840.035196 136.705178 
L 840.542672 115.911524 
L 841.050147 118.587403 
L 841.557623 127.857981 
L 842.065099 143.663087 
L 842.572574 136.763667 
L 843.08005 131.896821 
L 843.587526 135.863856 
L 844.095002 150.462818 
L 844.602477 154.541533 
L 845.109953 139.344296 
L 845.617429 130.719421 
L 846.124905 144.687392 
L 846.63238 152.077416 
L 847.139856 154.575861 
L 847.647332 155.79557 
L 848.154807 154.374049 
L 848.662283 177.209405 
L 849.677235 191.092363 
L 850.692186 193.908988 
L 851.199662 202.520654 
L 851.707137 202.722824 
L 852.214613 204.242816 
L 852.722089 202.820042 
L 853.229565 185.880598 
L 853.73704 180.723385 
L 854.244516 182.976133 
L 854.751992 178.327063 
L 855.259467 180.183348 
L 855.766943 178.996355 
L 856.274419 191.250039 
L 856.781895 195.708466 
L 857.28937 189.400949 
L 857.796846 178.77142 
L 858.304322 183.944598 
L 858.811797 183.935828 
L 859.319273 183.424499 
L 859.826749 171.036011 
L 860.8417 192.513203 
L 861.349176 178.141144 
L 861.856652 179.314929 
L 862.364127 169.828866 
L 862.871603 145.221343 
L 863.379079 139.515645 
L 864.39403 101.910979 
L 864.901506 117.995284 
L 865.408982 119.857153 
L 865.916457 112.192725 
L 866.423933 129.008534 
L 866.931409 140.379947 
L 867.438885 171.094321 
L 867.94636 174.999932 
L 868.453836 174.77897 
L 868.961312 172.620362 
L 869.468788 186.962461 
L 869.976263 196.664259 
L 870.483739 195.39909 
L 871.49869 170.705875 
L 872.006166 171.72456 
L 872.513642 177.154602 
L 873.021118 173.616747 
L 873.528593 167.878798 
L 874.036069 171.577801 
L 874.543545 177.627667 
L 876.065972 228.974116 
L 877.080923 236.545226 
L 878.095875 247.701262 
L 878.60335 245.525902 
L 879.110826 223.371006 
L 879.618302 212.076981 
L 880.125778 207.025864 
L 880.633253 200.651339 
L 882.15568 174.380251 
L 882.663156 181.256548 
L 883.170632 193.007672 
L 883.678108 200.581968 
L 884.185583 197.306561 
L 884.693059 198.274991 
L 885.200535 192.525874 
L 885.70801 192.768384 
L 886.215486 184.71866 
L 886.722962 172.989084 
L 887.230438 166.798831 
L 887.737913 167.772845 
L 888.245389 157.807811 
L 888.752865 158.335105 
L 889.26034 159.68883 
L 889.767816 176.677743 
L 890.275292 167.070085 
L 890.782768 165.799332 
L 891.290243 165.153987 
L 891.797719 186.409072 
L 892.305195 190.554795 
L 892.812671 193.114663 
L 893.320146 172.623797 
L 893.827622 174.468914 
L 894.335098 175.130224 
L 894.842573 180.25873 
L 895.350049 160.7674 
L 895.857525 155.219307 
L 896.365001 155.383641 
L 897.379952 160.726737 
L 897.887428 159.176784 
L 898.394903 158.112639 
L 898.902379 157.869342 
L 899.409855 167.576724 
L 899.917331 173.777358 
L 900.424806 190.855614 
L 900.932282 191.76262 
L 901.439758 197.332261 
L 901.947233 193.375607 
L 902.454709 202.747949 
L 902.962185 201.711725 
L 903.469661 196.024031 
L 903.977136 186.729077 
L 904.484612 187.088851 
L 904.992088 188.604512 
L 905.499563 198.887046 
L 906.007039 205.623743 
L 907.021991 188.932393 
L 907.529466 191.235397 
L 908.544418 204.150391 
L 909.559369 211.62099 
L 910.066845 211.009148 
L 910.574321 234.687687 
L 911.589272 223.714349 
L 912.096748 202.765596 
L 912.604224 197.597214 
L 913.111699 179.591227 
L 913.619175 182.893767 
L 914.126651 168.863584 
L 914.634126 173.148907 
L 915.141602 168.030781 
L 915.649078 177.525972 
L 916.156554 174.71962 
L 916.664029 177.726208 
L 917.171505 192.844482 
L 917.678981 200.513706 
L 918.186456 204.145702 
L 918.693932 216.583658 
L 919.201408 211.856412 
L 919.708884 216.085895 
L 920.216359 224.978014 
L 920.723835 228.615593 
L 921.231311 228.221528 
L 921.738786 233.59573 
L 922.246262 233.832656 
L 922.753738 253.25619 
L 923.261214 262.477765 
L 923.768689 267.667695 
L 924.276165 253.213129 
L 924.783641 249.597098 
L 925.291116 252.542262 
L 925.798592 261.769421 
L 926.306068 252.267859 
L 926.813544 246.652757 
L 927.321019 239.150266 
L 928.335971 264.578994 
L 928.843446 263.632113 
L 929.350922 252.248744 
L 929.858398 247.097114 
L 930.365874 249.522967 
L 930.873349 255.66776 
L 931.380825 259.645963 
L 931.888301 252.188143 
L 932.395776 257.869465 
L 932.903252 266.259024 
L 933.410728 268.612285 
L 933.918204 263.321055 
L 934.425679 262.737134 
L 934.933155 242.866092 
L 935.440631 240.930844 
L 935.948107 225.097031 
L 936.455582 219.967737 
L 936.963058 233.991548 
L 937.470534 244.586786 
L 937.978009 231.528219 
L 938.485485 241.905681 
L 938.992961 228.657258 
L 939.500437 238.163616 
L 940.007912 241.991051 
L 940.515388 234.136768 
L 941.022864 221.513752 
L 941.530339 224.313732 
L 942.037815 224.053683 
L 942.545291 237.161718 
L 944.067718 224.063276 
L 944.575194 225.545433 
L 945.082669 233.153233 
L 945.590145 234.27243 
L 946.097621 232.270174 
L 946.605097 238.448471 
L 947.112572 255.789175 
L 947.620048 255.316934 
L 948.127524 266.710683 
L 948.634999 266.975529 
L 949.142475 264.576809 
L 949.649951 264.847239 
L 950.664902 238.182873 
L 951.172378 247.745072 
L 951.679854 240.365428 
L 952.187329 240.110962 
L 952.694805 238.856962 
L 953.202281 239.22232 
L 954.217232 251.785522 
L 954.724708 246.5613 
L 955.232184 236.529259 
L 956.247135 230.654108 
L 957.262087 233.651926 
L 957.769562 218.521696 
L 958.277038 213.258387 
L 958.784514 221.826634 
L 959.29199 217.121724 
L 959.799465 214.622493 
L 960.306941 205.282866 
L 960.814417 188.460686 
L 961.321892 188.770204 
L 961.829368 185.053661 
L 962.336844 176.523714 
L 962.84432 174.599634 
L 963.859271 166.429461 
L 964.366747 182.050295 
L 964.874222 179.489639 
L 965.381698 182.166771 
L 966.39665 168.222747 
L 966.904125 164.495036 
L 967.411601 175.319218 
L 967.919077 159.932124 
L 968.426552 159.007579 
L 968.934028 148.953202 
L 969.441504 147.062625 
L 969.94898 152.135292 
L 970.456455 159.156772 
L 970.963931 155.568661 
L 971.978882 170.130934 
L 972.486358 167.821558 
L 972.993834 173.257184 
L 973.50131 170.534592 
L 974.516261 157.143384 
L 975.023737 158.843317 
L 975.531212 148.666091 
L 976.038688 155.19618 
L 976.546164 159.844462 
L 977.05364 162.460171 
L 977.561115 161.06657 
L 978.068591 157.584555 
L 978.576067 147.306817 
L 979.083543 141.937412 
L 979.591018 144.352096 
L 980.098494 139.099955 
L 980.60597 148.382954 
L 981.620921 156.836335 
L 982.128397 147.759157 
L 982.635873 141.1166 
L 983.143348 132.983117 
L 983.650824 141.350341 
L 984.1583 126.566319 
L 985.173251 118.468738 
L 985.680727 131.01279 
L 986.188203 138.14595 
L 986.695678 140.823082 
L 987.203154 128.596531 
L 987.71063 128.347649 
L 988.218105 126.099697 
L 988.725581 128.095582 
L 989.233057 111.022122 
L 989.740533 106.149692 
L 990.248008 95.157203 
L 990.755484 97.00232 
L 991.26296 89.120116 
L 991.770435 85.760949 
L 992.277911 72.199822 
L 992.785387 74.765275 
L 993.292863 75.214392 
L 993.800338 95.073479 
L 994.307814 96.628228 
L 994.81529 105.782794 
L 995.322765 105.260297 
L 995.830241 106.072375 
L 996.337717 112.501952 
L 996.845193 114.430828 
L 997.860144 88.101502 
L 998.36762 78.773044 
L 998.875095 75.346869 
L 999.382571 100.98539 
L 999.890047 112.546659 
L 1000.397523 113.168881 
L 1000.904998 111.401153 
L 1001.412474 111.364463 
L 1001.91995 110.936894 
L 1002.427426 101.915555 
L 1002.934901 79.274852 
L 1003.442377 68.818426 
L 1003.949853 69.111192 
L 1004.457328 65.578921 
L 1005.47228 70.581394 
L 1006.487231 89.342831 
L 1006.994707 94.147466 
L 1007.502183 96.573318 
L 1008.009658 103.326767 
L 1009.02461 105.165047 
L 1009.532086 111.364427 
L 1010.039561 115.743425 
L 1010.547037 115.448618 
L 1011.054513 111.529799 
L 1011.561988 109.654722 
L 1012.069464 111.107706 
L 1012.57694 102.661519 
L 1013.084416 97.817009 
L 1013.591891 105.815689 
L 1014.099367 99.307149 
L 1014.606843 99.248123 
L 1015.114318 101.841495 
L 1015.621794 88.682416 
L 1016.12927 94.520089 
L 1016.636746 98.107413 
L 1017.144221 88.510923 
L 1017.651697 96.643618 
L 1018.159173 102.196508 
L 1018.666648 106.185879 
L 1019.174124 117.925836 
L 1019.6816 120.736984 
L 1020.189076 114.468555 
L 1020.696551 136.58916 
L 1021.204027 145.324927 
L 1021.711503 148.850826 
L 1022.218979 151.483286 
L 1022.726454 167.2158 
L 1023.741406 207.296932 
L 1024.756357 194.497627 
L 1025.263833 192.221755 
L 1025.771309 196.350726 
L 1026.278784 185.665357 
L 1026.78626 188.135881 
L 1027.293736 200.735773 
L 1027.801211 196.874046 
L 1028.308687 204.448343 
L 1028.816163 214.083133 
L 1029.323639 216.732345 
L 1029.831114 224.368065 
L 1030.33859 230.121979 
L 1030.846066 223.96523 
L 1031.353541 237.659585 
L 1031.861017 229.715958 
L 1033.89092 177.554281 
L 1034.905871 144.32872 
L 1035.413347 140.880209 
L 1035.920823 139.402849 
L 1036.428299 144.849642 
L 1036.935774 148.878101 
L 1037.44325 146.200182 
L 1037.950726 133.593918 
L 1038.458201 126.415298 
L 1038.965677 129.299038 
L 1039.473153 135.600183 
L 1039.980629 133.134455 
L 1040.99558 119.586895 
L 1042.010531 167.591717 
L 1042.518007 169.09621 
L 1043.025483 169.802191 
L 1043.532959 179.75527 
L 1044.040434 194.555256 
L 1044.54791 201.5544 
L 1045.055386 193.331573 
L 1045.562862 169.752759 
L 1046.070337 165.170696 
L 1047.085289 139.779481 
L 1047.592764 140.206263 
L 1048.607716 129.361356 
L 1049.115192 145.562926 
L 1049.622667 148.39641 
L 1050.130143 165.698026 
L 1050.637619 166.219736 
L 1051.145094 153.295184 
L 1051.65257 154.084926 
L 1052.160046 160.715527 
L 1052.667522 151.208381 
L 1054.189949 162.009439 
L 1054.697424 163.156556 
L 1055.2049 165.85044 
L 1055.712376 160.123659 
L 1056.219852 157.300556 
L 1056.727327 151.434174 
L 1057.234803 149.007535 
L 1057.742279 155.839159 
L 1058.249754 168.355292 
L 1058.75723 161.679231 
L 1059.264706 165.076699 
L 1059.772182 166.877143 
L 1060.279657 162.965161 
L 1060.787133 157.04294 
L 1061.802084 135.554938 
L 1062.30956 148.115742 
L 1062.817036 149.888267 
L 1063.324512 158.043298 
L 1063.831987 175.518018 
L 1064.339463 187.274727 
L 1064.846939 193.804816 
L 1065.354414 204.344214 
L 1065.86189 206.675138 
L 1066.369366 210.000014 
L 1066.876842 207.20483 
L 1067.384317 208.279356 
L 1067.891793 227.915082 
L 1068.399269 241.637357 
L 1068.906745 247.173495 
L 1069.41422 244.372728 
L 1069.921696 245.106629 
L 1070.429172 252.585997 
L 1070.936647 246.116545 
L 1071.444123 232.332058 
L 1072.459075 219.153041 
L 1072.96655 223.382524 
L 1073.474026 232.313731 
L 1073.981502 235.180719 
L 1074.488977 252.108208 
L 1074.996453 245.878867 
L 1075.503929 255.742601 
L 1076.011405 268.052126 
L 1076.51888 264.676207 
L 1077.026356 260.177904 
L 1077.533832 258.901568 
L 1078.041307 246.496328 
L 1078.548783 257.460109 
L 1079.056259 256.066509 
L 1079.563735 255.946059 
L 1080.07121 261.370517 
L 1081.086162 275.017014 
L 1081.593637 278.950545 
L 1082.101113 265.919898 
L 1082.608589 248.087015 
L 1083.116065 241.254602 
L 1083.62354 231.390081 
L 1084.131016 219.241705 
L 1084.638492 216.491193 
L 1085.145967 220.246036 
L 1085.653443 216.479238 
L 1086.160919 246.244332 
L 1086.668395 242.192749 
L 1087.17587 244.696778 
L 1087.683346 250.484195 
L 1088.190822 252.630848 
L 1088.698298 245.893363 
L 1089.205773 253.908795 
L 1089.713249 231.603131 
L 1090.220725 234.592967 
L 1090.7282 227.174235 
L 1091.235676 223.55262 
L 1092.250628 205.616039 
L 1092.758103 194.768734 
L 1093.265579 198.14945 
L 1093.773055 188.257008 
L 1094.28053 205.257089 
L 1094.788006 212.133385 
L 1095.295482 204.915677 
L 1095.802958 217.722177 
L 1096.310433 233.471443 
L 1096.817909 233.702785 
L 1097.325385 250.635857 
L 1097.83286 244.417685 
L 1098.340336 235.413098 
L 1098.847812 234.337785 
L 1099.355288 232.302025 
L 1099.862763 225.313261 
L 1100.370239 230.994583 
L 1100.877715 221.079805 
L 1101.38519 219.172477 
L 1101.892666 225.54063 
L 1102.400142 226.777091 
L 1102.907618 234.881867 
L 1103.415093 228.289566 
L 1103.922569 205.425503 
L 1104.430045 201.591696 
L 1104.93752 204.70438 
L 1105.444996 217.281936 
L 1105.952472 216.150783 
L 1106.967423 193.75259 
L 1107.982375 211.157116 
L 1108.48985 217.569941 
L 1108.997326 205.522077 
L 1109.504802 211.326247 
L 1110.012278 208.531063 
L 1110.519753 218.601405 
L 1111.027229 221.284121 
L 1112.042181 205.966434 
L 1112.549656 202.411827 
L 1113.057132 204.178768 
L 1113.564608 203.673023 
L 1114.072083 223.163565 
L 1114.579559 227.538232 
L 1115.087035 235.916624 
L 1115.594511 239.163323 
L 1116.101986 255.5715 
L 1116.609462 260.884278 
L 1117.116938 256.352472 
L 1117.624413 240.239459 
L 1118.639365 230.120472 
L 1119.146841 234.690578 
L 1119.654316 219.833965 
L 1120.161792 214.224447 
L 1120.669268 223.954166 
L 1121.176743 224.503796 
L 1121.684219 227.013408 
L 1122.191695 216.288951 
L 1122.699171 209.936762 
L 1123.206646 214.813988 
L 1123.714122 225.492986 
L 1124.221598 221.201292 
L 1124.729073 230.305603 
L 1125.236549 228.381522 
L 1125.744025 230.237807 
L 1126.251501 229.810238 
L 1126.758976 235.061592 
L 1127.266452 230.714057 
L 1127.773928 241.007759 
L 1128.281403 241.417789 
L 1128.788879 242.040011 
L 1129.296355 237.240173 
L 1129.803831 239.989897 
L 1130.311306 236.787082 
L 1130.818782 230.820189 
L 1131.326258 221.525235 
L 1131.833733 215.843126 
L 1132.341209 212.645894 
L 1132.848685 227.384457 
L 1133.356161 230.625572 
L 1133.863636 210.531171 
L 1134.371112 215.776941 
L 1134.878588 216.946394 
L 1135.386064 211.526733 
L 1135.893539 209.334621 
L 1136.401015 220.209058 
L 1136.908491 209.250073 
L 1137.415966 219.398591 
L 1137.923442 207.680183 
L 1138.430918 201.813802 
L 1139.445869 210.512879 
L 1139.953345 199.470135 
L 1140.460821 198.422742 
L 1140.968296 187.648029 
L 1141.983248 199.429471 
L 1142.490724 199.733405 
L 1142.998199 200.216027 
L 1143.505675 197.069052 
L 1144.013151 204.168709 
L 1144.520626 218.047336 
L 1145.028102 225.74448 
L 1145.535578 222.564001 
L 1146.043054 225.693436 
L 1146.550529 227.974105 
L 1147.058005 225.178921 
L 1148.072956 217.265612 
L 1148.580432 204.341061 
L 1149.087908 201.691061 
L 1149.595384 189.101549 
L 1150.102859 181.342194 
L 1151.117811 171.78719 
L 1151.625286 170.672789 
L 1152.132762 171.429027 
L 1152.640238 175.65851 
L 1153.147714 205.730724 
L 1154.162665 248.559182 
L 1154.670141 239.588099 
L 1155.177617 247.045131 
L 1155.685092 260.102911 
L 1156.192568 255.833553 
L 1156.700044 223.270089 
L 1157.714995 178.563834 
L 1158.222471 192.018077 
L 1158.729947 183.086082 
L 1159.237422 168.290893 
L 1159.744898 161.536656 
L 1160.252374 159.043009 
L 1160.759849 146.235721 
L 1161.267325 149.996148 
L 1161.774801 138.037628 
L 1162.282277 138.40857 
L 1162.789752 133.960524 
L 1163.804704 146.775006 
L 1164.312179 168.990538 
L 1164.819655 175.023652 
L 1165.327131 183.591899 
L 1165.834607 176.351855 
L 1166.342082 175.689758 
L 1166.849558 161.1626 
L 1167.357034 158.881144 
L 1167.864509 142.963571 
L 1168.371985 134.422456 
L 1168.879461 140.595169 
L 1169.386937 140.653408 
L 1169.894412 148.093688 
L 1170.401888 166.863895 
L 1170.909364 168.334884 
L 1171.416839 173.01667 
L 1171.924315 173.895756 
L 1172.431791 164.595218 
L 1172.939267 163.318881 
L 1173.446742 164.415742 
L 1173.954218 166.031915 
L 1174.461694 168.396344 
L 1174.969169 165.774264 
L 1175.476645 170.779922 
L 1175.984121 168.554306 
L 1176.491597 170.555775 
L 1177.506548 162.715058 
L 1178.014024 168.133931 
L 1178.5215 184.391341 
L 1179.028975 182.366748 
L 1180.551402 193.793214 
L 1181.058878 192.930093 
L 1181.566354 188.537887 
L 1182.07383 173.603097 
L 1182.581305 177.821412 
L 1183.088781 184.401757 
L 1183.596257 183.879259 
L 1184.611208 204.656519 
L 1185.118684 213.006991 
L 1185.62616 210.563599 
L 1186.133635 187.911727 
L 1186.641111 181.442275 
L 1187.148587 179.56845 
L 1188.671014 115.906928 
L 1189.17849 120.566379 
L 1189.685965 136.326812 
L 1190.193441 139.707528 
L 1190.700917 132.702012 
L 1191.715868 156.678901 
L 1192.223344 164.091261 
L 1192.73082 175.055043 
L 1193.238295 181.495788 
L 1193.745771 177.019822 
L 1194.253247 184.594118 
L 1195.268198 170.44907 
L 1195.775674 168.128526 
L 1196.28315 161.223522 
L 1196.790625 158.121218 
L 1197.298101 173.853732 
L 1197.805577 180.908716 
L 1198.313052 180.939035 
L 1198.820528 177.546364 
L 1199.83548 188.205423 
L 1200.342955 188.414429 
L 1200.850431 180.292114 
L 1201.357907 178.301026 
L 1201.865383 187.092633 
L 1202.372858 201.741852 
L 1202.880334 210.700979 
L 1203.38781 209.664754 
L 1203.895285 206.506611 
L 1204.402761 205.945025 
L 1204.910237 209.331325 
L 1205.417713 207.496588 
L 1205.925188 201.317504 
L 1206.432664 201.16355 
L 1206.94014 197.642447 
L 1207.447615 201.335866 
L 1207.955091 201.193081 
L 1208.462567 189.463504 
L 1208.970043 181.179253 
L 1209.477518 189.658157 
L 1209.984994 193.820632 
L 1210.49247 199.764401 
L 1210.999945 212.621157 
L 1211.507421 209.144726 
L 1212.014897 208.555221 
L 1212.522373 221.657672 
L 1213.029848 229.628432 
L 1213.537324 228.1064 
L 1214.0448 231.716059 
L 1214.552275 215.100487 
L 1215.059751 219.704097 
L 1215.567227 231.639494 
L 1216.074703 228.866646 
L 1216.582178 216.461406 
L 1217.59713 185.413604 
L 1218.104605 180.742198 
L 1218.612081 172.268091 
L 1219.119557 170.265835 
L 1219.627033 154.571622 
L 1220.134508 157.516786 
L 1221.14946 174.993904 
L 1221.656936 185.382534 
L 1222.164411 202.019655 
L 1222.671887 197.124889 
L 1223.179363 209.936973 
L 1223.686838 205.874222 
L 1224.194314 206.99342 
L 1224.70179 215.288051 
L 1225.209266 212.208084 
L 1225.716741 198.535277 
L 1226.224217 198.135628 
L 1226.731693 193.469806 
L 1227.239168 195.823066 
L 1227.746644 199.907365 
L 1228.25412 187.915341 
L 1229.269071 171.436183 
L 1230.284023 182.770906 
L 1230.791498 174.492239 
L 1231.298974 159.105145 
L 1231.80645 181.05823 
L 1232.821401 204.778255 
L 1233.328877 186.548908 
L 1233.836353 178.800721 
L 1234.343828 173.436899 
L 1234.851304 175.87392 
L 1235.35878 153.836288 
L 1235.866256 150.270513 
L 1236.373731 141.734982 
L 1236.881207 147.070096 
L 1237.388683 144.436848 
L 1237.896158 160.052098 
L 1238.403634 168.692937 
L 1238.91111 165.411946 
L 1239.418586 154.927601 
L 1239.926061 157.001661 
L 1240.433537 165.402389 
L 1240.941013 160.479703 
L 1241.955964 127.393742 
L 1242.46344 124.246767 
L 1242.970916 139.432049 
L 1243.478391 142.120349 
L 1243.985867 145.445224 
L 1244.493343 160.312219 
L 1245.508294 176.77305 
L 1246.01577 188.367823 
L 1246.523246 193.010521 
L 1247.030721 196.625765 
L 1248.045673 224.444443 
L 1248.553149 232.443122 
L 1249.060624 227.196565 
L 1249.5681 227.131955 
L 1250.075576 219.623879 
L 1250.583051 220.944101 
L 1251.598003 185.038222 
L 1252.105479 190.32308 
L 1252.612954 202.448333 
L 1253.12043 207.945382 
L 1253.627906 226.43639 
L 1254.642857 223.349586 
L 1255.150333 230.810949 
L 1255.657809 226.462162 
L 1256.165284 229.238553 
L 1257.180236 236.438614 
L 1257.687711 216.471392 
L 1258.195187 228.133172 
L 1258.702663 232.329151 
L 1259.210139 255.281771 
L 1259.717614 252.062204 
L 1260.22509 257.486662 
L 1260.732566 254.004647 
L 1261.240041 256.279731 
L 1262.762469 247.066031 
L 1263.269944 245.513573 
L 1263.77742 238.293359 
L 1264.284896 232.843272 
L 1264.792371 235.450891 
L 1265.299847 247.78583 
L 1265.807323 257.161251 
L 1266.314799 263.16086 
L 1266.822274 255.049713 
L 1268.344702 223.798381 
L 1268.852177 218.243451 
L 1269.359653 192.145001 
L 1270.374604 170.559565 
L 1270.88208 183.722188 
L 1271.389556 200.431901 
L 1271.897032 211.278418 
L 1272.404507 200.302681 
L 1272.911983 193.202237 
L 1273.419459 191.317245 
L 1273.926934 199.650965 
L 1274.43441 194.571927 
L 1274.941886 193.474278 
L 1275.956837 213.922082 
L 1276.464313 232.915649 
L 1276.971789 242.209816 
L 1277.479264 234.679404 
L 1277.98674 233.565003 
L 1278.494216 232.774474 
L 1279.001692 214.182167 
L 1280.016643 209.775607 
L 1280.524119 217.321984 
L 1281.031594 227.141046 
L 1281.53907 228.411011 
L 1282.046546 226.090467 
L 1282.554022 238.444663 
L 1283.061497 245.60016 
L 1283.568973 242.028801 
L 1284.076449 242.913471 
L 1284.583924 235.612003 
L 1285.0914 234.70421 
L 1285.598876 238.447885 
L 1286.106352 239.946794 
L 1287.121303 264.85621 
L 1287.628779 254.678985 
L 1288.64373 271.385512 
L 1289.151206 270.304615 
L 1289.658682 265.080393 
L 1290.166157 244.114888 
L 1290.673633 238.862747 
L 1291.181109 240.289064 
L 1291.688585 243.217476 
L 1292.703536 235.667126 
L 1293.718487 242.536586 
L 1294.225963 240.695013 
L 1296.255866 207.340806 
L 1296.763342 226.707247 
L 1297.270817 237.162885 
L 1297.778293 233.351415 
L 1298.285769 242.796349 
L 1298.793245 254.65357 
L 1299.30072 262.518234 
L 1299.808196 278.602539 
L 1300.315672 266.906467 
L 1300.823147 260.29183 
L 1301.330623 277.275159 
L 1301.838099 275.473927 
L 1302.345575 275.548917 
L 1302.85305 272.122742 
L 1303.360526 264.11769 
L 1303.868002 274.171281 
L 1304.375477 275.212302 
L 1305.390429 254.880187 
L 1305.897905 248.578254 
L 1306.40538 234.804935 
L 1306.912856 237.068852 
L 1307.420332 221.179199 
L 1307.927807 219.785598 
L 1308.435283 232.893634 
L 1308.942759 238.915579 
L 1309.450235 249.745345 
L 1309.95771 275.635146 
L 1310.465186 279.490501 
L 1310.972662 284.836783 
L 1311.480138 286.480876 
L 1311.987613 286.231995 
L 1312.495089 284.056635 
L 1313.002565 287.951078 
L 1313.51004 263.545832 
L 1314.017516 264.430501 
L 1314.524992 270.385439 
L 1315.032468 268.466942 
L 1315.539943 249.288316 
L 1316.047419 249.290714 
L 1316.554895 233.294965 
L 1317.06237 235.01165 
L 1317.569846 226.688311 
L 1318.077322 214.299823 
L 1319.092273 205.666179 
L 1319.599749 207.712319 
L 1320.107225 214.292664 
L 1320.6147 224.335086 
L 1321.122176 220.300256 
L 1321.629652 222.848956 
L 1322.137128 215.251537 
L 1322.644603 227.829093 
L 1323.152079 224.916645 
L 1324.674506 209.953148 
L 1325.181982 211.513481 
L 1325.689458 213.911413 
L 1326.196933 210.345638 
L 1326.704409 214.491361 
L 1327.211885 202.683609 
L 1327.71936 200.809785 
L 1328.226836 207.39013 
L 1328.734312 200.284102 
L 1329.241788 198.069654 
L 1329.749263 192.823096 
L 1330.256739 185.303852 
L 1330.764215 199.539855 
L 1331.779166 190.867123 
L 1332.286642 200.591257 
L 1332.794118 200.867271 
L 1333.301593 202.706804 
L 1333.809069 214.926984 
L 1334.824021 197.308691 
L 1335.331496 190.012807 
L 1335.838972 191.612228 
L 1336.346448 196.26051 
L 1336.853923 196.352253 
L 1337.361399 191.591503 
L 1337.868875 192.973148 
L 1338.376351 196.465543 
L 1338.883826 196.713637 
L 1339.391302 186.703932 
L 1339.898778 182.133037 
L 1340.406253 179.19267 
L 1340.913729 172.499858 
L 1341.421205 171.558561 
L 1341.928681 171.689391 
L 1342.436156 172.691324 
L 1342.943632 171.783531 
L 1343.451108 167.704029 
L 1343.958583 154.37743 
L 1344.973535 140.422237 
L 1345.481011 147.091926 
L 1346.495962 158.130698 
L 1347.003438 152.297821 
L 1347.510913 161.793011 
L 1348.018389 164.174192 
L 1348.525865 179.867617 
L 1349.033341 174.101748 
L 1350.048292 157.192622 
L 1350.555768 155.30763 
L 1351.063243 156.633435 
L 1351.570719 159.757287 
L 1352.078195 152.226875 
L 1352.585671 159.991027 
L 1353.093146 150.852425 
L 1353.600622 151.323879 
L 1354.108098 161.947036 
L 1354.615574 158.079726 
L 1355.123049 157.579564 
L 1355.630525 155.84534 
L 1356.138001 152.279565 
L 1356.645476 158.240086 
L 1357.152952 157.594741 
L 1357.660428 149.86889 
L 1358.167904 148.598137 
L 1359.182855 136.643948 
L 1359.690331 136.036438 
L 1360.197806 134.568992 
L 1361.212758 146.241834 
L 1361.720234 149.241585 
L 1362.227709 164.749486 
L 1362.735185 168.342393 
L 1363.242661 162.464844 
L 1364.257612 145.131335 
L 1364.765088 134.959693 
L 1365.272564 134.269676 
L 1365.780039 113.622459 
L 1366.287515 112.463386 
L 1366.794991 107.697052 
L 1367.302466 113.702245 
L 1367.809942 113.598548 
L 1368.317418 107.279863 
L 1368.824894 90.926738 
L 1369.332369 90.035697 
L 1369.839845 92.651405 
L 1370.347321 97.193592 
L 1370.854796 93.577561 
L 1371.362272 119.556706 
L 1371.869748 128.521417 
L 1372.377224 134.878403 
L 1372.884699 143.982714 
L 1373.392175 138.914844 
L 1373.899651 135.053117 
L 1374.407126 142.270038 
L 1374.914602 127.095136 
L 1375.929554 135.464758 
L 1376.437029 134.903172 
L 1376.944505 135.637074 
L 1377.451981 147.985686 
L 1377.959457 147.770309 
L 1378.974408 135.708091 
L 1379.481884 137.904999 
L 1379.989359 144.373665 
L 1380.496835 154.801382 
L 1381.511787 145.944378 
L 1382.019262 152.893267 
L 1382.526738 169.01666 
L 1383.541689 191.497038 
L 1384.049165 197.217448 
L 1384.556641 196.912726 
L 1385.064117 204.045887 
L 1385.571592 202.417758 
L 1386.079068 199.689583 
L 1386.586544 201.182908 
L 1387.094019 186.538486 
L 1387.601495 184.14535 
L 1388.108971 187.442306 
L 1388.616447 180.084998 
L 1389.631398 181.865505 
L 1390.138874 177.445379 
L 1390.646349 188.950808 
L 1391.661301 216.065902 
L 1392.168777 227.454067 
L 1393.183728 214.77761 
L 1393.691204 209.447292 
L 1394.198679 196.109525 
L 1394.706155 173.14495 
L 1395.213631 172.080805 
L 1395.721107 166.337272 
L 1396.228582 171.197746 
L 1396.736058 169.072642 
L 1397.243534 178.567833 
L 1397.751009 180.66423 
L 1398.258485 184.212465 
L 1398.765961 174.476375 
L 1399.273437 172.323351 
L 1399.780912 166.48489 
L 1400.795864 150.223507 
L 1401.30334 143.541863 
L 1401.810815 139.830904 
L 1402.318291 140.804918 
L 1402.825767 134.882697 
L 1403.333242 136.364854 
L 1403.840718 147.674843 
L 1404.348194 150.497159 
L 1404.85567 147.14916 
L 1405.363145 149.988228 
L 1405.870621 145.501094 
L 1406.378097 145.54258 
L 1406.885572 153.172716 
L 1407.900524 154.467415 
L 1408.408 168.787178 
L 1408.915475 176.797026 
L 1409.422951 174.761266 
L 1410.437902 194.148111 
L 1410.945378 204.263125 
L 1411.452854 209.330207 
L 1411.96033 222.901714 
L 1412.467805 230.961818 
L 1412.975281 236.832995 
L 1413.482757 229.475688 
L 1415.51266 158.965001 
L 1416.020135 151.797549 
L 1416.527611 154.12289 
L 1417.035087 153.572472 
L 1417.542562 152.848951 
L 1418.050038 167.140794 
L 1418.557514 189.897974 
L 1419.06499 201.838954 
L 1419.572465 200.255498 
L 1420.079941 196.511035 
L 1420.587417 198.009944 
L 1421.094893 204.696385 
L 1421.602368 198.980772 
L 1422.109844 181.957568 
L 1422.61732 174.840372 
L 1423.124795 194.386754 
L 1423.632271 181.222091 
L 1424.647223 205.494932 
L 1425.154698 212.315389 
L 1425.662174 208.989726 
L 1426.16965 213.185705 
L 1426.677125 200.367249 
L 1427.184601 219.84104 
L 1427.692077 205.207786 
L 1428.199553 205.411208 
L 1428.707028 195.41267 
L 1429.72198 201.397926 
L 1430.229455 194.515257 
L 1430.736931 197.879221 
L 1431.244407 206.60382 
L 1431.751883 200.156704 
L 1432.766834 221.475611 
L 1433.27431 217.66414 
L 1433.781785 223.825686 
L 1434.289261 210.86763 
L 1434.796737 215.208793 
L 1435.304213 213.787272 
L 1435.811688 211.980456 
L 1436.319164 203.366749 
L 1436.82664 206.792137 
L 1437.334115 207.475782 
L 1437.841591 227.569396 
L 1438.349067 225.723492 
L 1438.856543 226.53557 
L 1439.364018 236.650584 
L 1439.871494 253.365881 
L 1440.37897 254.831286 
L 1440.886445 252.097526 
L 1441.393921 240.289774 
L 1441.901397 251.130707 
L 1442.408873 251.038178 
L 1442.916348 245.478916 
L 1443.423824 230.298431 
L 1444.438776 235.602439 
L 1444.946251 240.987809 
L 1445.453727 235.355956 
L 1445.961203 246.325321 
L 1446.468678 239.878205 
L 1446.976154 244.325463 
L 1447.48363 239.553545 
L 1447.991106 246.111554 
L 1448.498581 255.455977 
L 1449.006057 253.783176 
L 1449.513533 243.918655 
L 1450.021008 250.660935 
L 1450.528484 255.15845 
L 1451.03596 261.571275 
L 1451.543436 265.95711 
L 1452.050911 257.550011 
L 1452.558387 255.581259 
L 1453.065863 257.001992 
L 1453.573338 245.970415 
L 1454.080814 242.186864 
L 1454.58829 240.279536 
L 1455.095766 227.321481 
L 1455.603241 234.594241 
L 1456.110717 238.533356 
L 1456.618193 239.563209 
L 1457.125668 257.551657 
L 1457.633144 267.850943 
L 1458.14062 267.227934 
L 1458.648096 278.582595 
L 1459.155571 271.599415 
L 1459.663047 268.150904 
L 1460.170523 268.158886 
L 1460.677998 250.141731 
L 1461.185474 245.308389 
L 1461.69295 245.031587 
L 1462.707901 224.57104 
L 1463.215377 216.850773 
L 1463.722853 216.400867 
L 1464.230328 232.513093 
L 1464.737804 242.706283 
L 1465.24528 237.610493 
L 1465.752756 230.917681 
L 1466.260231 245.047588 
L 1466.767707 249.433422 
L 1467.275183 247.732702 
L 1467.782659 237.170181 
L 1468.290134 217.299139 
L 1468.79761 224.214524 
L 1469.305086 225.115945 
L 1469.812561 215.971759 
L 1470.320037 216.98486 
L 1470.827513 223.950501 
L 1471.334989 224.857506 
L 1471.842464 234.006489 
L 1472.34994 237.108005 
L 1472.857416 226.227196 
L 1473.364891 219.355696 
L 1473.872367 215.002577 
L 1474.379843 208.181333 
L 1474.887319 213.940831 
L 1475.394794 211.743135 
L 1475.90227 210.383038 
L 1476.409746 248.27843 
L 1476.917221 257.326901 
L 1477.424697 268.642474 
L 1477.932173 260.263295 
L 1478.439649 261.053036 
L 1478.947124 258.241101 
L 1479.962076 262.35332 
L 1480.469551 242.72239 
L 1480.977027 248.19152 
L 1481.484503 244.832353 
L 1481.991979 264.965055 
L 1482.499454 277.263411 
L 1483.00693 281.241614 
L 1483.514406 273.88989 
L 1484.021881 271.753618 
L 1484.529357 283.515911 
L 1485.036833 270.31216 
L 1485.544309 260.777094 
L 1486.051784 244.345793 
L 1486.55926 241.734881 
L 1487.066736 236.298468 
L 1487.574212 247.357177 
L 1488.081687 232.662499 
L 1488.589163 260.244251 
L 1489.096639 256.577965 
L 1489.604114 261.857239 
L 1490.11159 270.665598 
L 1491.126542 254.147352 
L 1491.634017 247.672315 
L 1492.141493 223.160973 
L 1492.648969 224.352762 
L 1493.66392 196.113709 
L 1494.171396 206.949059 
L 1494.678872 201.786261 
L 1495.693823 230.610059 
L 1496.201299 230.495193 
L 1496.708774 227.063434 
L 1497.21625 234.084915 
L 1497.723726 234.46144 
L 1498.231202 235.357278 
L 1498.738677 214.101405 
L 1499.246153 210.189423 
L 1499.753629 211.185772 
L 1500.261104 214.912695 
L 1500.76858 219.516306 
L 1501.276056 226.638298 
L 1501.783532 220.436878 
L 1502.291007 229.708708 
L 1502.798483 225.846982 
L 1503.305959 225.134629 
L 1503.813434 221.59119 
L 1504.32091 205.193393 
L 1504.828386 196.227895 
L 1505.335862 199.876642 
L 1505.843337 201.816687 
L 1506.350813 207.112713 
L 1506.858289 200.632092 
L 1507.365764 207.385541 
L 1507.87324 207.538707 
L 1508.380716 217.514121 
L 1509.395667 214.959049 
L 1509.903143 210.756699 
L 1510.410619 190.930329 
L 1511.42557 171.385557 
L 1511.933046 174.246961 
L 1512.440522 161.57369 
L 1512.947997 160.543049 
L 1513.455473 156.117339 
L 1513.962949 172.1123 
L 1514.470425 182.914146 
L 1514.9779 182.760192 
L 1515.485376 179.758401 
L 1515.992852 184.579787 
L 1516.500327 210.843716 
L 1517.007803 208.08762 
L 1517.515279 184.659574 
L 1518.022755 177.39161 
L 1518.53023 174.635514 
L 1519.037706 169.556476 
L 1519.545182 163.282464 
L 1520.052657 132.91351 
L 1520.560133 132.491525 
L 1521.067609 152.093747 
L 1521.575085 155.452127 
L 1522.08256 166.40474 
L 1522.590036 183.829205 
L 1523.097512 181.9833 
L 1523.604987 204.746064 
L 1524.112463 208.143532 
L 1524.619939 208.14593 
L 1525.127415 213.263268 
L 1525.63489 205.196793 
L 1526.142366 189.022356 
L 1526.649842 184.887014 
L 1527.157317 166.065763 
L 1527.664793 160.841541 
L 1528.679745 143.340512 
L 1529.18722 142.147935 
L 1529.694696 150.275047 
L 1530.202172 150.645989 
L 1530.709647 132.243538 
L 1531.217123 126.231973 
L 1531.724599 123.894677 
L 1532.232075 131.697917 
L 1533.247026 129.949339 
L 1533.754502 129.622281 
L 1535.276929 177.076686 
L 1535.784405 175.711005 
L 1536.29188 190.365808 
L 1536.799356 188.218368 
L 1537.306832 189.069533 
L 1537.814308 193.678728 
L 1538.321783 188.789546 
L 1539.84421 148.977269 
L 1540.351686 146.729317 
L 1540.859162 161.987191 
L 1541.366638 144.701539 
L 1541.874113 136.785831 
L 1542.381589 145.169807 
L 1542.889065 144.36811 
L 1543.39654 158.475681 
L 1543.904016 168.473431 
L 1544.411492 154.62752 
L 1544.918968 163.971943 
L 1545.426443 168.268434 
L 1545.933919 163.55794 
L 1546.441395 174.588729 
L 1546.94887 161.809362 
L 1547.456346 155.725205 
L 1547.963822 165.996571 
L 1548.471298 168.908231 
L 1548.978773 168.994389 
L 1549.486249 161.313209 
L 1549.993725 147.383539 
L 1551.008676 111.527916 
L 1551.516152 96.62663 
L 1552.023628 92.558296 
L 1552.531103 86.971114 
L 1553.038579 89.759926 
L 1553.546055 94.687409 
L 1554.053531 94.053232 
L 1554.561006 105.92162 
L 1555.068482 94.722523 
L 1555.575958 95.813801 
L 1556.083433 100.718947 
L 1556.590909 97.622228 
L 1556.590909 97.622228 
" clip-path="url(#p41de29f663)" style="fill: none; stroke: #32b25e; stroke-width: 2.5; stroke-linecap: square"/>
   </g>
   <g id="patch_3">
    <path d="M 225 320.4 
L 225 43.2 
" style="fill: none; stroke: #000000; stroke-width: 0.8; stroke-linejoin: miter; stroke-linecap: square"/>
   </g>
   <g id="patch_4">
    <path d="M 1620 320.4 
L 1620 43.2 
" style="fill: none; stroke: #000000; stroke-width: 0.8; stroke-linejoin: miter; stroke-linecap: square"/>
   </g>
   <g id="patch_5">
    <path d="M 225 320.4 
L 1620 320.4 
" style="fill: none; stroke: #000000; stroke-width: 0.8; stroke-linejoin: miter; stroke-linecap: square"/>
   </g>
   <g id="patch_6">
    <path d="M 225 43.2 
L 1620 43.2 
" style="fill: none; stroke: #000000; stroke-width: 0.8; stroke-linejoin: miter; stroke-linecap: square"/>
   </g>
   <g id="text_18">
    <!-- VLCH -->
    <g transform="translate(895.584375 37.2) scale(0.2 -0.2)">
     <defs>
      <path id="DejaVuSans-56" d="M 1831 0 
L 50 4666 
L 709 4666 
L 2188 738 
L 3669 4666 
L 4325 4666 
L 2547 0 
L 1831 0 
z
" transform="scale(0.015625)"/>
      <path id="DejaVuSans-4c" d="M 628 4666 
L 1259 4666 
L 1259 531 
L 3531 531 
L 3531 0 
L 628 0 
L 628 4666 
z
" transform="scale(0.015625)"/>
      <path id="DejaVuSans-43" d="M 4122 4306 
L 4122 3641 
Q 3803 3938 3442 4084 
Q 3081 4231 2675 4231 
Q 1875 4231 1450 3742 
Q 1025 3253 1025 2328 
Q 1025 1406 1450 917 
Q 1875 428 2675 428 
Q 3081 428 3442 575 
Q 3803 722 4122 1019 
L 4122 359 
Q 3791 134 3420 21 
Q 3050 -91 2638 -91 
Q 1578 -91 968 557 
Q 359 1206 359 2328 
Q 359 3453 968 4101 
Q 1578 4750 2638 4750 
Q 3056 4750 3426 4639 
Q 3797 4528 4122 4306 
z
" transform="scale(0.015625)"/>
      <path id="DejaVuSans-48" d="M 628 4666 
L 1259 4666 
L 1259 2753 
L 3553 2753 
L 3553 4666 
L 4184 4666 
L 4184 0 
L 3553 0 
L 3553 2222 
L 1259 2222 
L 1259 0 
L 628 0 
L 628 4666 
z
" transform="scale(0.015625)"/>
     </defs>
     <use xlink:href="#DejaVuSans-56"/>
     <use xlink:href="#DejaVuSans-4c" x="68.408203"/>
     <use xlink:href="#DejaVuSans-43" x="124.121094"/>
     <use xlink:href="#DejaVuSans-48" x="193.945312"/>
    </g>
   </g>
   <g id="legend_1">
    <g id="patch_7">
     <path d="M 1560.467187 65.878125 
L 1613 65.878125 
Q 1615 65.878125 1615 63.878125 
L 1615 50.2 
Q 1615 48.2 1613 48.2 
L 1560.467187 48.2 
Q 1558.467187 48.2 1558.467187 50.2 
L 1558.467187 63.878125 
Q 1558.467187 65.878125 1560.467187 65.878125 
z
" style="fill: #ffffff; opacity: 0.8; stroke: #cccccc; stroke-linejoin: miter"/>
    </g>
    <g id="line2d_17">
     <path d="M 1562.467187 56.298437 
L 1572.467187 56.298437 
L 1582.467187 56.298437 
" style="fill: none; stroke: #32b25e; stroke-width: 2.5; stroke-linecap: square"/>
    </g>
    <g id="text_19">
     <!-- vlch -->
     <g transform="translate(1590.467187 59.798437) scale(0.1 -0.1)">
      <defs>
       <path id="DejaVuSans-76" d="M 191 3500 
L 800 3500 
L 1894 563 
L 2988 3500 
L 3597 3500 
L 2284 0 
L 1503 0 
L 191 3500 
z
" transform="scale(0.015625)"/>
       <path id="DejaVuSans-6c" d="M 603 4863 
L 1178 4863 
L 1178 0 
L 603 0 
L 603 4863 
z
" transform="scale(0.015625)"/>
       <path id="DejaVuSans-63" d="M 3122 3366 
L 3122 2828 
Q 2878 2963 2633 3030 
Q 2388 3097 2138 3097 
Q 1578 3097 1268 2742 
Q 959 2388 959 1747 
Q 959 1106 1268 751 
Q 1578 397 2138 397 
Q 2388 397 2633 464 
Q 2878 531 3122 666 
L 3122 134 
Q 2881 22 2623 -34 
Q 2366 -91 2075 -91 
Q 1284 -91 818 406 
Q 353 903 353 1747 
Q 353 2603 823 3093 
Q 1294 3584 2113 3584 
Q 2378 3584 2631 3529 
Q 2884 3475 3122 3366 
z
" transform="scale(0.015625)"/>
       <path id="DejaVuSans-68" d="M 3513 2113 
L 3513 0 
L 2938 0 
L 2938 2094 
Q 2938 2591 2744 2837 
Q 2550 3084 2163 3084 
Q 1697 3084 1428 2787 
Q 1159 2491 1159 1978 
L 1159 0 
L 581 0 
L 581 4863 
L 1159 4863 
L 1159 2956 
Q 1366 3272 1645 3428 
Q 1925 3584 2291 3584 
Q 2894 3584 3203 3211 
Q 3513 2838 3513 2113 
z
" transform="scale(0.015625)"/>
      </defs>
      <use xlink:href="#DejaVuSans-76"/>
      <use xlink:href="#DejaVuSans-6c" x="59.179688"/>
      <use xlink:href="#DejaVuSans-63" x="86.962891"/>
      <use xlink:href="#DejaVuSans-68" x="141.943359"/>
     </g>
    </g>
   </g>
  </g>
 </g>
 <defs>
  <clipPath id="p41de29f663">
   <rect x="225" y="43.2" width="1395" height="277.2"/>
  </clipPath>
 </defs>
</svg>
