<?xml version="1.0" encoding="utf-8" standalone="no"?>
<!DOCTYPE svg PUBLIC "-//W3C//DTD SVG 1.1//EN"
  "http://www.w3.org/Graphics/SVG/1.1/DTD/svg11.dtd">
<svg xmlns:xlink="http://www.w3.org/1999/xlink" width="4680pt" height="1080pt" viewBox="0 0 4680 1080" xmlns="http://www.w3.org/2000/svg" version="1.1">
 <metadata>
  <rdf:RDF xmlns:dc="http://purl.org/dc/elements/1.1/" xmlns:cc="http://creativecommons.org/ns#" xmlns:rdf="http://www.w3.org/1999/02/22-rdf-syntax-ns#">
   <cc:Work>
    <dc:type rdf:resource="http://purl.org/dc/dcmitype/StillImage"/>
    <dc:date>2024-03-14T15:13:57.571109</dc:date>
    <dc:format>image/svg+xml</dc:format>
    <dc:creator>
     <cc:Agent>
      <dc:title>Matplotlib v3.7.2, https://matplotlib.org/</dc:title>
     </cc:Agent>
    </dc:creator>
   </cc:Work>
  </rdf:RDF>
 </metadata>
 <defs>
  <style type="text/css">*{stroke-linejoin: round; stroke-linecap: butt}</style>
 </defs>
 <g id="figure_1">
  <g id="patch_1">
   <path d="M 0 1080 
L 4680 1080 
L 4680 0 
L 0 0 
z
" style="fill: #ffffff"/>
  </g>
  <g id="axes_1">
   <g id="patch_2">
    <path d="M 585 961.2 
L 4212 961.2 
L 4212 129.6 
L 585 129.6 
z
" style="fill: #ffffff"/>
   </g>
   <g id="matplotlib.axis_1">
    <g id="xtick_1">
     <g id="line2d_1">
      <defs>
       <path id="m57e8557b5d" d="M 0 0 
L 0 3.5 
" style="stroke: #000000; stroke-width: 0.8"/>
      </defs>
      <g>
       <use xlink:href="#m57e8557b5d" x="732.935944" y="961.2" style="stroke: #000000; stroke-width: 0.8"/>
      </g>
     </g>
     <g id="text_1">
      <!-- 2011 -->
      <g transform="translate(707.485944 983.396875) scale(0.2 -0.2)">
       <defs>
        <path id="DejaVuSans-32" d="M 1228 531 
L 3431 531 
L 3431 0 
L 469 0 
L 469 531 
Q 828 903 1448 1529 
Q 2069 2156 2228 2338 
Q 2531 2678 2651 2914 
Q 2772 3150 2772 3378 
Q 2772 3750 2511 3984 
Q 2250 4219 1831 4219 
Q 1534 4219 1204 4116 
Q 875 4013 500 3803 
L 500 4441 
Q 881 4594 1212 4672 
Q 1544 4750 1819 4750 
Q 2544 4750 2975 4387 
Q 3406 4025 3406 3419 
Q 3406 3131 3298 2873 
Q 3191 2616 2906 2266 
Q 2828 2175 2409 1742 
Q 1991 1309 1228 531 
z
" transform="scale(0.015625)"/>
        <path id="DejaVuSans-30" d="M 2034 4250 
Q 1547 4250 1301 3770 
Q 1056 3291 1056 2328 
Q 1056 1369 1301 889 
Q 1547 409 2034 409 
Q 2525 409 2770 889 
Q 3016 1369 3016 2328 
Q 3016 3291 2770 3770 
Q 2525 4250 2034 4250 
z
M 2034 4750 
Q 2819 4750 3233 4129 
Q 3647 3509 3647 2328 
Q 3647 1150 3233 529 
Q 2819 -91 2034 -91 
Q 1250 -91 836 529 
Q 422 1150 422 2328 
Q 422 3509 836 4129 
Q 1250 4750 2034 4750 
z
" transform="scale(0.015625)"/>
        <path id="DejaVuSans-31" d="M 794 531 
L 1825 531 
L 1825 4091 
L 703 3866 
L 703 4441 
L 1819 4666 
L 2450 4666 
L 2450 531 
L 3481 531 
L 3481 0 
L 794 0 
L 794 531 
z
" transform="scale(0.015625)"/>
       </defs>
       <use xlink:href="#DejaVuSans-32"/>
       <use xlink:href="#DejaVuSans-30" x="63.623047"/>
       <use xlink:href="#DejaVuSans-31" x="127.246094"/>
       <use xlink:href="#DejaVuSans-31" x="190.869141"/>
      </g>
     </g>
    </g>
    <g id="xtick_2">
     <g id="line2d_2">
      <g>
       <use xlink:href="#m57e8557b5d" x="1174.265077" y="961.2" style="stroke: #000000; stroke-width: 0.8"/>
      </g>
     </g>
     <g id="text_2">
      <!-- 2012 -->
      <g transform="translate(1148.815077 983.396875) scale(0.2 -0.2)">
       <use xlink:href="#DejaVuSans-32"/>
       <use xlink:href="#DejaVuSans-30" x="63.623047"/>
       <use xlink:href="#DejaVuSans-31" x="127.246094"/>
       <use xlink:href="#DejaVuSans-32" x="190.869141"/>
      </g>
     </g>
    </g>
    <g id="xtick_3">
     <g id="line2d_3">
      <g>
       <use xlink:href="#m57e8557b5d" x="1616.80333" y="961.2" style="stroke: #000000; stroke-width: 0.8"/>
      </g>
     </g>
     <g id="text_3">
      <!-- 2013 -->
      <g transform="translate(1591.35333 983.396875) scale(0.2 -0.2)">
       <defs>
        <path id="DejaVuSans-33" d="M 2597 2516 
Q 3050 2419 3304 2112 
Q 3559 1806 3559 1356 
Q 3559 666 3084 287 
Q 2609 -91 1734 -91 
Q 1441 -91 1130 -33 
Q 819 25 488 141 
L 488 750 
Q 750 597 1062 519 
Q 1375 441 1716 441 
Q 2309 441 2620 675 
Q 2931 909 2931 1356 
Q 2931 1769 2642 2001 
Q 2353 2234 1838 2234 
L 1294 2234 
L 1294 2753 
L 1863 2753 
Q 2328 2753 2575 2939 
Q 2822 3125 2822 3475 
Q 2822 3834 2567 4026 
Q 2313 4219 1838 4219 
Q 1578 4219 1281 4162 
Q 984 4106 628 3988 
L 628 4550 
Q 988 4650 1302 4700 
Q 1616 4750 1894 4750 
Q 2613 4750 3031 4423 
Q 3450 4097 3450 3541 
Q 3450 3153 3228 2886 
Q 3006 2619 2597 2516 
z
" transform="scale(0.015625)"/>
       </defs>
       <use xlink:href="#DejaVuSans-32"/>
       <use xlink:href="#DejaVuSans-30" x="63.623047"/>
       <use xlink:href="#DejaVuSans-31" x="127.246094"/>
       <use xlink:href="#DejaVuSans-33" x="190.869141"/>
      </g>
     </g>
    </g>
    <g id="xtick_4">
     <g id="line2d_4">
      <g>
       <use xlink:href="#m57e8557b5d" x="2058.132463" y="961.2" style="stroke: #000000; stroke-width: 0.8"/>
      </g>
     </g>
     <g id="text_4">
      <!-- 2014 -->
      <g transform="translate(2032.682463 983.396875) scale(0.2 -0.2)">
       <defs>
        <path id="DejaVuSans-34" d="M 2419 4116 
L 825 1625 
L 2419 1625 
L 2419 4116 
z
M 2253 4666 
L 3047 4666 
L 3047 1625 
L 3713 1625 
L 3713 1100 
L 3047 1100 
L 3047 0 
L 2419 0 
L 2419 1100 
L 313 1100 
L 313 1709 
L 2253 4666 
z
" transform="scale(0.015625)"/>
       </defs>
       <use xlink:href="#DejaVuSans-32"/>
       <use xlink:href="#DejaVuSans-30" x="63.623047"/>
       <use xlink:href="#DejaVuSans-31" x="127.246094"/>
       <use xlink:href="#DejaVuSans-34" x="190.869141"/>
      </g>
     </g>
    </g>
    <g id="xtick_5">
     <g id="line2d_5">
      <g>
       <use xlink:href="#m57e8557b5d" x="2499.461596" y="961.2" style="stroke: #000000; stroke-width: 0.8"/>
      </g>
     </g>
     <g id="text_5">
      <!-- 2015 -->
      <g transform="translate(2474.011596 983.396875) scale(0.2 -0.2)">
       <defs>
        <path id="DejaVuSans-35" d="M 691 4666 
L 3169 4666 
L 3169 4134 
L 1269 4134 
L 1269 2991 
Q 1406 3038 1543 3061 
Q 1681 3084 1819 3084 
Q 2600 3084 3056 2656 
Q 3513 2228 3513 1497 
Q 3513 744 3044 326 
Q 2575 -91 1722 -91 
Q 1428 -91 1123 -41 
Q 819 9 494 109 
L 494 744 
Q 775 591 1075 516 
Q 1375 441 1709 441 
Q 2250 441 2565 725 
Q 2881 1009 2881 1497 
Q 2881 1984 2565 2268 
Q 2250 2553 1709 2553 
Q 1456 2553 1204 2497 
Q 953 2441 691 2322 
L 691 4666 
z
" transform="scale(0.015625)"/>
       </defs>
       <use xlink:href="#DejaVuSans-32"/>
       <use xlink:href="#DejaVuSans-30" x="63.623047"/>
       <use xlink:href="#DejaVuSans-31" x="127.246094"/>
       <use xlink:href="#DejaVuSans-35" x="190.869141"/>
      </g>
     </g>
    </g>
    <g id="xtick_6">
     <g id="line2d_6">
      <g>
       <use xlink:href="#m57e8557b5d" x="2940.790729" y="961.2" style="stroke: #000000; stroke-width: 0.8"/>
      </g>
     </g>
     <g id="text_6">
      <!-- 2016 -->
      <g transform="translate(2915.340729 983.396875) scale(0.2 -0.2)">
       <defs>
        <path id="DejaVuSans-36" d="M 2113 2584 
Q 1688 2584 1439 2293 
Q 1191 2003 1191 1497 
Q 1191 994 1439 701 
Q 1688 409 2113 409 
Q 2538 409 2786 701 
Q 3034 994 3034 1497 
Q 3034 2003 2786 2293 
Q 2538 2584 2113 2584 
z
M 3366 4563 
L 3366 3988 
Q 3128 4100 2886 4159 
Q 2644 4219 2406 4219 
Q 1781 4219 1451 3797 
Q 1122 3375 1075 2522 
Q 1259 2794 1537 2939 
Q 1816 3084 2150 3084 
Q 2853 3084 3261 2657 
Q 3669 2231 3669 1497 
Q 3669 778 3244 343 
Q 2819 -91 2113 -91 
Q 1303 -91 875 529 
Q 447 1150 447 2328 
Q 447 3434 972 4092 
Q 1497 4750 2381 4750 
Q 2619 4750 2861 4703 
Q 3103 4656 3366 4563 
z
" transform="scale(0.015625)"/>
       </defs>
       <use xlink:href="#DejaVuSans-32"/>
       <use xlink:href="#DejaVuSans-30" x="63.623047"/>
       <use xlink:href="#DejaVuSans-31" x="127.246094"/>
       <use xlink:href="#DejaVuSans-36" x="190.869141"/>
      </g>
     </g>
    </g>
    <g id="xtick_7">
     <g id="line2d_7">
      <g>
       <use xlink:href="#m57e8557b5d" x="3383.328983" y="961.2" style="stroke: #000000; stroke-width: 0.8"/>
      </g>
     </g>
     <g id="text_7">
      <!-- 2017 -->
      <g transform="translate(3357.878983 983.396875) scale(0.2 -0.2)">
       <defs>
        <path id="DejaVuSans-37" d="M 525 4666 
L 3525 4666 
L 3525 4397 
L 1831 0 
L 1172 0 
L 2766 4134 
L 525 4134 
L 525 4666 
z
" transform="scale(0.015625)"/>
       </defs>
       <use xlink:href="#DejaVuSans-32"/>
       <use xlink:href="#DejaVuSans-30" x="63.623047"/>
       <use xlink:href="#DejaVuSans-31" x="127.246094"/>
       <use xlink:href="#DejaVuSans-37" x="190.869141"/>
      </g>
     </g>
    </g>
    <g id="xtick_8">
     <g id="line2d_8">
      <g>
       <use xlink:href="#m57e8557b5d" x="3824.658116" y="961.2" style="stroke: #000000; stroke-width: 0.8"/>
      </g>
     </g>
     <g id="text_8">
      <!-- 2018 -->
      <g transform="translate(3799.208116 983.396875) scale(0.2 -0.2)">
       <defs>
        <path id="DejaVuSans-38" d="M 2034 2216 
Q 1584 2216 1326 1975 
Q 1069 1734 1069 1313 
Q 1069 891 1326 650 
Q 1584 409 2034 409 
Q 2484 409 2743 651 
Q 3003 894 3003 1313 
Q 3003 1734 2745 1975 
Q 2488 2216 2034 2216 
z
M 1403 2484 
Q 997 2584 770 2862 
Q 544 3141 544 3541 
Q 544 4100 942 4425 
Q 1341 4750 2034 4750 
Q 2731 4750 3128 4425 
Q 3525 4100 3525 3541 
Q 3525 3141 3298 2862 
Q 3072 2584 2669 2484 
Q 3125 2378 3379 2068 
Q 3634 1759 3634 1313 
Q 3634 634 3220 271 
Q 2806 -91 2034 -91 
Q 1263 -91 848 271 
Q 434 634 434 1313 
Q 434 1759 690 2068 
Q 947 2378 1403 2484 
z
M 1172 3481 
Q 1172 3119 1398 2916 
Q 1625 2713 2034 2713 
Q 2441 2713 2670 2916 
Q 2900 3119 2900 3481 
Q 2900 3844 2670 4047 
Q 2441 4250 2034 4250 
Q 1625 4250 1398 4047 
Q 1172 3844 1172 3481 
z
" transform="scale(0.015625)"/>
       </defs>
       <use xlink:href="#DejaVuSans-32"/>
       <use xlink:href="#DejaVuSans-30" x="63.623047"/>
       <use xlink:href="#DejaVuSans-31" x="127.246094"/>
       <use xlink:href="#DejaVuSans-38" x="190.869141"/>
      </g>
     </g>
    </g>
    <g id="text_9">
     <!-- Time -->
     <g transform="translate(2374.032813 1006.753125) scale(0.2 -0.2)">
      <defs>
       <path id="DejaVuSans-54" d="M -19 4666 
L 3928 4666 
L 3928 4134 
L 2272 4134 
L 2272 0 
L 1638 0 
L 1638 4134 
L -19 4134 
L -19 4666 
z
" transform="scale(0.015625)"/>
       <path id="DejaVuSans-69" d="M 603 3500 
L 1178 3500 
L 1178 0 
L 603 0 
L 603 3500 
z
M 603 4863 
L 1178 4863 
L 1178 4134 
L 603 4134 
L 603 4863 
z
" transform="scale(0.015625)"/>
       <path id="DejaVuSans-6d" d="M 3328 2828 
Q 3544 3216 3844 3400 
Q 4144 3584 4550 3584 
Q 5097 3584 5394 3201 
Q 5691 2819 5691 2113 
L 5691 0 
L 5113 0 
L 5113 2094 
Q 5113 2597 4934 2840 
Q 4756 3084 4391 3084 
Q 3944 3084 3684 2787 
Q 3425 2491 3425 1978 
L 3425 0 
L 2847 0 
L 2847 2094 
Q 2847 2600 2669 2842 
Q 2491 3084 2119 3084 
Q 1678 3084 1418 2786 
Q 1159 2488 1159 1978 
L 1159 0 
L 581 0 
L 581 3500 
L 1159 3500 
L 1159 2956 
Q 1356 3278 1631 3431 
Q 1906 3584 2284 3584 
Q 2666 3584 2933 3390 
Q 3200 3197 3328 2828 
z
" transform="scale(0.015625)"/>
       <path id="DejaVuSans-65" d="M 3597 1894 
L 3597 1613 
L 953 1613 
Q 991 1019 1311 708 
Q 1631 397 2203 397 
Q 2534 397 2845 478 
Q 3156 559 3463 722 
L 3463 178 
Q 3153 47 2828 -22 
Q 2503 -91 2169 -91 
Q 1331 -91 842 396 
Q 353 884 353 1716 
Q 353 2575 817 3079 
Q 1281 3584 2069 3584 
Q 2775 3584 3186 3129 
Q 3597 2675 3597 1894 
z
M 3022 2063 
Q 3016 2534 2758 2815 
Q 2500 3097 2075 3097 
Q 1594 3097 1305 2825 
Q 1016 2553 972 2059 
L 3022 2063 
z
" transform="scale(0.015625)"/>
      </defs>
      <use xlink:href="#DejaVuSans-54"/>
      <use xlink:href="#DejaVuSans-69" x="57.958984"/>
      <use xlink:href="#DejaVuSans-6d" x="85.742188"/>
      <use xlink:href="#DejaVuSans-65" x="183.154297"/>
     </g>
    </g>
   </g>
   <g id="matplotlib.axis_2">
    <g id="ytick_1">
     <g id="line2d_9">
      <defs>
       <path id="mba8ee9ff29" d="M 0 0 
L -3.5 0 
" style="stroke: #000000; stroke-width: 0.8"/>
      </defs>
      <g>
       <use xlink:href="#mba8ee9ff29" x="585" y="946.524571" style="stroke: #000000; stroke-width: 0.8"/>
      </g>
     </g>
     <g id="text_10">
      <!-- −0.008 -->
      <g transform="translate(503.984375 954.123008) scale(0.2 -0.2)">
       <defs>
        <path id="DejaVuSans-2212" d="M 678 2272 
L 4684 2272 
L 4684 1741 
L 678 1741 
L 678 2272 
z
" transform="scale(0.015625)"/>
        <path id="DejaVuSans-2e" d="M 684 794 
L 1344 794 
L 1344 0 
L 684 0 
L 684 794 
z
" transform="scale(0.015625)"/>
       </defs>
       <use xlink:href="#DejaVuSans-2212"/>
       <use xlink:href="#DejaVuSans-30" x="83.789062"/>
       <use xlink:href="#DejaVuSans-2e" x="147.412109"/>
       <use xlink:href="#DejaVuSans-30" x="179.199219"/>
       <use xlink:href="#DejaVuSans-30" x="242.822266"/>
       <use xlink:href="#DejaVuSans-38" x="306.445312"/>
      </g>
     </g>
    </g>
    <g id="ytick_2">
     <g id="line2d_10">
      <g>
       <use xlink:href="#mba8ee9ff29" x="585" y="847.68105" style="stroke: #000000; stroke-width: 0.8"/>
      </g>
     </g>
     <g id="text_11">
      <!-- −0.006 -->
      <g transform="translate(503.984375 855.279487) scale(0.2 -0.2)">
       <use xlink:href="#DejaVuSans-2212"/>
       <use xlink:href="#DejaVuSans-30" x="83.789062"/>
       <use xlink:href="#DejaVuSans-2e" x="147.412109"/>
       <use xlink:href="#DejaVuSans-30" x="179.199219"/>
       <use xlink:href="#DejaVuSans-30" x="242.822266"/>
       <use xlink:href="#DejaVuSans-36" x="306.445312"/>
      </g>
     </g>
    </g>
    <g id="ytick_3">
     <g id="line2d_11">
      <g>
       <use xlink:href="#mba8ee9ff29" x="585" y="748.837529" style="stroke: #000000; stroke-width: 0.8"/>
      </g>
     </g>
     <g id="text_12">
      <!-- −0.004 -->
      <g transform="translate(503.984375 756.435966) scale(0.2 -0.2)">
       <use xlink:href="#DejaVuSans-2212"/>
       <use xlink:href="#DejaVuSans-30" x="83.789062"/>
       <use xlink:href="#DejaVuSans-2e" x="147.412109"/>
       <use xlink:href="#DejaVuSans-30" x="179.199219"/>
       <use xlink:href="#DejaVuSans-30" x="242.822266"/>
       <use xlink:href="#DejaVuSans-34" x="306.445312"/>
      </g>
     </g>
    </g>
    <g id="ytick_4">
     <g id="line2d_12">
      <g>
       <use xlink:href="#mba8ee9ff29" x="585" y="649.994008" style="stroke: #000000; stroke-width: 0.8"/>
      </g>
     </g>
     <g id="text_13">
      <!-- −0.002 -->
      <g transform="translate(503.984375 657.592445) scale(0.2 -0.2)">
       <use xlink:href="#DejaVuSans-2212"/>
       <use xlink:href="#DejaVuSans-30" x="83.789062"/>
       <use xlink:href="#DejaVuSans-2e" x="147.412109"/>
       <use xlink:href="#DejaVuSans-30" x="179.199219"/>
       <use xlink:href="#DejaVuSans-30" x="242.822266"/>
       <use xlink:href="#DejaVuSans-32" x="306.445312"/>
      </g>
     </g>
    </g>
    <g id="ytick_5">
     <g id="line2d_13">
      <g>
       <use xlink:href="#mba8ee9ff29" x="585" y="551.150487" style="stroke: #000000; stroke-width: 0.8"/>
      </g>
     </g>
     <g id="text_14">
      <!-- 0.000 -->
      <g transform="translate(520.74375 558.748924) scale(0.2 -0.2)">
       <use xlink:href="#DejaVuSans-30"/>
       <use xlink:href="#DejaVuSans-2e" x="63.623047"/>
       <use xlink:href="#DejaVuSans-30" x="95.410156"/>
       <use xlink:href="#DejaVuSans-30" x="159.033203"/>
       <use xlink:href="#DejaVuSans-30" x="222.65625"/>
      </g>
     </g>
    </g>
    <g id="ytick_6">
     <g id="line2d_14">
      <g>
       <use xlink:href="#mba8ee9ff29" x="585" y="452.306966" style="stroke: #000000; stroke-width: 0.8"/>
      </g>
     </g>
     <g id="text_15">
      <!-- 0.002 -->
      <g transform="translate(520.74375 459.905403) scale(0.2 -0.2)">
       <use xlink:href="#DejaVuSans-30"/>
       <use xlink:href="#DejaVuSans-2e" x="63.623047"/>
       <use xlink:href="#DejaVuSans-30" x="95.410156"/>
       <use xlink:href="#DejaVuSans-30" x="159.033203"/>
       <use xlink:href="#DejaVuSans-32" x="222.65625"/>
      </g>
     </g>
    </g>
    <g id="ytick_7">
     <g id="line2d_15">
      <g>
       <use xlink:href="#mba8ee9ff29" x="585" y="353.463445" style="stroke: #000000; stroke-width: 0.8"/>
      </g>
     </g>
     <g id="text_16">
      <!-- 0.004 -->
      <g transform="translate(520.74375 361.061882) scale(0.2 -0.2)">
       <use xlink:href="#DejaVuSans-30"/>
       <use xlink:href="#DejaVuSans-2e" x="63.623047"/>
       <use xlink:href="#DejaVuSans-30" x="95.410156"/>
       <use xlink:href="#DejaVuSans-30" x="159.033203"/>
       <use xlink:href="#DejaVuSans-34" x="222.65625"/>
      </g>
     </g>
    </g>
    <g id="ytick_8">
     <g id="line2d_16">
      <g>
       <use xlink:href="#mba8ee9ff29" x="585" y="254.619924" style="stroke: #000000; stroke-width: 0.8"/>
      </g>
     </g>
     <g id="text_17">
      <!-- 0.006 -->
      <g transform="translate(520.74375 262.218361) scale(0.2 -0.2)">
       <use xlink:href="#DejaVuSans-30"/>
       <use xlink:href="#DejaVuSans-2e" x="63.623047"/>
       <use xlink:href="#DejaVuSans-30" x="95.410156"/>
       <use xlink:href="#DejaVuSans-30" x="159.033203"/>
       <use xlink:href="#DejaVuSans-36" x="222.65625"/>
      </g>
     </g>
    </g>
    <g id="ytick_9">
     <g id="line2d_17">
      <g>
       <use xlink:href="#mba8ee9ff29" x="585" y="155.776403" style="stroke: #000000; stroke-width: 0.8"/>
      </g>
     </g>
     <g id="text_18">
      <!-- 0.008 -->
      <g transform="translate(520.74375 163.37484) scale(0.2 -0.2)">
       <use xlink:href="#DejaVuSans-30"/>
       <use xlink:href="#DejaVuSans-2e" x="63.623047"/>
       <use xlink:href="#DejaVuSans-30" x="95.410156"/>
       <use xlink:href="#DejaVuSans-30" x="159.033203"/>
       <use xlink:href="#DejaVuSans-38" x="222.65625"/>
      </g>
     </g>
    </g>
    <g id="text_19">
     <!-- East(m) -->
     <g transform="translate(495.825 584.520313) rotate(-90) scale(0.2 -0.2)">
      <defs>
       <path id="DejaVuSans-45" d="M 628 4666 
L 3578 4666 
L 3578 4134 
L 1259 4134 
L 1259 2753 
L 3481 2753 
L 3481 2222 
L 1259 2222 
L 1259 531 
L 3634 531 
L 3634 0 
L 628 0 
L 628 4666 
z
" transform="scale(0.015625)"/>
       <path id="DejaVuSans-61" d="M 2194 1759 
Q 1497 1759 1228 1600 
Q 959 1441 959 1056 
Q 959 750 1161 570 
Q 1363 391 1709 391 
Q 2188 391 2477 730 
Q 2766 1069 2766 1631 
L 2766 1759 
L 2194 1759 
z
M 3341 1997 
L 3341 0 
L 2766 0 
L 2766 531 
Q 2569 213 2275 61 
Q 1981 -91 1556 -91 
Q 1019 -91 701 211 
Q 384 513 384 1019 
Q 384 1609 779 1909 
Q 1175 2209 1959 2209 
L 2766 2209 
L 2766 2266 
Q 2766 2663 2505 2880 
Q 2244 3097 1772 3097 
Q 1472 3097 1187 3025 
Q 903 2953 641 2809 
L 641 3341 
Q 956 3463 1253 3523 
Q 1550 3584 1831 3584 
Q 2591 3584 2966 3190 
Q 3341 2797 3341 1997 
z
" transform="scale(0.015625)"/>
       <path id="DejaVuSans-73" d="M 2834 3397 
L 2834 2853 
Q 2591 2978 2328 3040 
Q 2066 3103 1784 3103 
Q 1356 3103 1142 2972 
Q 928 2841 928 2578 
Q 928 2378 1081 2264 
Q 1234 2150 1697 2047 
L 1894 2003 
Q 2506 1872 2764 1633 
Q 3022 1394 3022 966 
Q 3022 478 2636 193 
Q 2250 -91 1575 -91 
Q 1294 -91 989 -36 
Q 684 19 347 128 
L 347 722 
Q 666 556 975 473 
Q 1284 391 1588 391 
Q 1994 391 2212 530 
Q 2431 669 2431 922 
Q 2431 1156 2273 1281 
Q 2116 1406 1581 1522 
L 1381 1569 
Q 847 1681 609 1914 
Q 372 2147 372 2553 
Q 372 3047 722 3315 
Q 1072 3584 1716 3584 
Q 2034 3584 2315 3537 
Q 2597 3491 2834 3397 
z
" transform="scale(0.015625)"/>
       <path id="DejaVuSans-74" d="M 1172 4494 
L 1172 3500 
L 2356 3500 
L 2356 3053 
L 1172 3053 
L 1172 1153 
Q 1172 725 1289 603 
Q 1406 481 1766 481 
L 2356 481 
L 2356 0 
L 1766 0 
Q 1100 0 847 248 
Q 594 497 594 1153 
L 594 3053 
L 172 3053 
L 172 3500 
L 594 3500 
L 594 4494 
L 1172 4494 
z
" transform="scale(0.015625)"/>
       <path id="DejaVuSans-28" d="M 1984 4856 
Q 1566 4138 1362 3434 
Q 1159 2731 1159 2009 
Q 1159 1288 1364 580 
Q 1569 -128 1984 -844 
L 1484 -844 
Q 1016 -109 783 600 
Q 550 1309 550 2009 
Q 550 2706 781 3412 
Q 1013 4119 1484 4856 
L 1984 4856 
z
" transform="scale(0.015625)"/>
       <path id="DejaVuSans-29" d="M 513 4856 
L 1013 4856 
Q 1481 4119 1714 3412 
Q 1947 2706 1947 2009 
Q 1947 1309 1714 600 
Q 1481 -109 1013 -844 
L 513 -844 
Q 928 -128 1133 580 
Q 1338 1288 1338 2009 
Q 1338 2731 1133 3434 
Q 928 4138 513 4856 
z
" transform="scale(0.015625)"/>
      </defs>
      <use xlink:href="#DejaVuSans-45"/>
      <use xlink:href="#DejaVuSans-61" x="63.183594"/>
      <use xlink:href="#DejaVuSans-73" x="124.462891"/>
      <use xlink:href="#DejaVuSans-74" x="176.5625"/>
      <use xlink:href="#DejaVuSans-28" x="215.771484"/>
      <use xlink:href="#DejaVuSans-6d" x="254.785156"/>
      <use xlink:href="#DejaVuSans-29" x="352.197266"/>
     </g>
    </g>
   </g>
   <g id="line2d_18">
    <path d="M 749.863636 596.401675 
L 751.072757 606.213814 
L 752.281878 640.813888 
L 753.490999 642.761604 
L 754.70012 630.021241 
L 755.909241 633.361941 
L 757.118362 629.718269 
L 770.418692 643.276156 
L 771.627813 643.597671 
L 772.836934 643.452074 
L 774.046055 643.481042 
L 775.255176 645.549186 
L 776.464296 644.324795 
L 777.673417 645.036866 
L 778.882538 648.945644 
M 881.657816 673.157987 
L 882.866937 629.427137 
L 884.076058 593.590312 
L 886.494299 501.866675 
L 888.912541 420.332101 
L 890.121662 439.634712 
L 891.330783 462.098947 
L 892.539904 472.542465 
L 893.749025 479.100578 
L 894.958146 469.320729 
L 896.167267 461.068377 
L 897.376388 468.351112 
L 898.585509 456.354022 
L 899.794629 441.310132 
L 901.00375 435.10729 
L 902.212871 427.313535 
L 903.421992 448.158213 
L 904.631113 456.724901 
L 905.840234 462.677618 
L 907.049355 467.793638 
L 908.258476 468.702505 
L 909.467597 449.880389 
L 910.676718 443.613518 
L 911.885839 444.273309 
L 913.094959 431.00035 
L 914.30408 422.584944 
L 915.513201 417.277864 
L 916.722322 431.472607 
L 920.349685 472.623481 
L 921.558806 489.078318 
L 922.767927 484.882927 
L 923.977048 487.615661 
L 925.186169 482.418874 
L 926.39529 473.234004 
L 927.60441 461.663479 
L 928.813531 465.031125 
L 930.022652 461.724819 
L 931.231773 469.164973 
L 932.440894 472.556548 
L 933.650015 466.096682 
L 936.068257 489.843407 
L 937.277378 479.310344 
L 938.486499 481.924694 
L 939.69562 482.343002 
L 940.90474 487.928889 
L 942.113861 503.658041 
L 943.322982 490.659142 
L 944.532103 474.055985 
L 945.741224 489.420598 
L 946.950345 478.558663 
L 948.159466 473.826145 
L 949.368587 462.932321 
L 950.577708 443.36806 
L 951.786829 436.676415 
L 952.99595 450.508562 
L 954.205071 449.309841 
L 955.414191 451.437572 
L 956.623312 448.128653 
L 957.832433 440.371949 
L 959.041554 430.775215 
L 960.250675 451.812455 
L 961.459796 453.547883 
L 962.668917 446.448385 
L 963.878038 454.983619 
L 965.087159 469.370182 
L 966.29628 462.655524 
L 967.505401 472.271678 
L 968.714521 454.260837 
L 969.923642 471.844413 
L 971.132763 468.258287 
L 972.341884 466.293203 
L 973.551005 450.888232 
L 974.760126 473.072286 
L 975.969247 493.10823 
L 977.178368 502.290385 
L 978.387489 484.744221 
L 979.59661 486.279336 
L 980.805731 476.780707 
L 982.014851 470.987673 
L 983.223972 464.019801 
L 984.433093 447.089027 
L 985.642214 451.119353 
L 986.851335 451.57418 
L 988.060456 452.53316 
L 989.269577 459.270981 
L 990.478698 471.059827 
L 991.687819 466.287208 
L 992.89694 471.066706 
L 994.106061 464.755709 
L 995.315182 460.905764 
L 996.524302 459.665743 
L 997.733423 476.355187 
L 998.942544 470.822938 
L 1000.151665 477.09205 
L 1001.360786 478.302642 
L 1002.569907 486.222695 
L 1003.779028 486.431696 
L 1004.988149 488.296317 
L 1006.19727 474.501337 
L 1007.406391 478.933124 
L 1008.615512 484.13231 
L 1009.824632 488.177146 
L 1011.033753 486.580889 
L 1012.242874 496.361366 
L 1013.451995 496.541769 
L 1014.661116 488.363956 
L 1015.870237 497.322628 
L 1017.079358 498.892251 
L 1018.288479 485.781652 
L 1019.4976 476.112058 
L 1020.706721 469.573693 
L 1021.915842 464.429252 
L 1023.124962 476.201278 
L 1024.334083 465.599606 
L 1025.543204 461.632424 
L 1026.752325 462.480111 
L 1027.961446 469.073936 
L 1029.170567 470.559386 
L 1030.379688 466.608707 
L 1031.588809 476.616326 
L 1032.79793 483.398597 
L 1034.007051 498.468348 
L 1035.216172 496.183489 
L 1036.425293 498.749731 
L 1037.634413 486.514307 
L 1038.843534 490.676332 
L 1040.052655 469.026269 
L 1041.261776 466.986914 
L 1042.470897 460.061173 
L 1046.09826 502.09082 
L 1048.516502 509.777626 
L 1049.725623 491.071279 
L 1050.934743 477.91482 
L 1052.143864 461.063127 
L 1053.352985 457.87259 
L 1054.562106 447.773745 
L 1055.771227 442.92602 
L 1056.980348 439.906109 
L 1058.189469 454.73068 
L 1059.39859 456.03951 
L 1060.607711 473.383785 
L 1061.816832 470.69273 
L 1063.025953 472.92383 
L 1064.235074 487.207486 
L 1065.444194 499.795269 
L 1066.653315 501.321101 
L 1067.862436 505.68591 
L 1069.071557 493.052861 
L 1070.280678 465.930865 
L 1071.489799 458.980209 
L 1072.69892 450.98978 
L 1073.908041 452.181258 
L 1075.117162 456.182313 
L 1076.326283 436.373527 
L 1077.535404 444.360296 
L 1078.744524 472.80843 
L 1079.953645 469.070743 
L 1081.162766 473.314822 
L 1082.371887 472.636846 
L 1083.581008 468.591585 
L 1084.790129 494.085205 
L 1085.99925 485.371655 
L 1087.208371 489.819294 
L 1088.417492 493.363546 
L 1090.835734 480.67414 
L 1092.044854 476.509291 
L 1093.253975 470.512257 
L 1094.463096 472.341691 
L 1095.672217 479.116366 
L 1096.881338 486.978924 
L 1098.090459 499.007786 
L 1100.508701 527.170586 
L 1101.717822 539.750835 
L 1102.926943 554.421651 
L 1104.136064 551.059903 
L 1105.345185 539.28426 
L 1106.554305 517.743267 
L 1107.763426 509.80933 
L 1108.972547 494.142038 
L 1110.181668 488.087313 
L 1111.390789 494.152905 
L 1112.59991 500.870002 
L 1113.809031 515.575865 
L 1115.018152 538.766223 
L 1116.227273 541.47745 
L 1117.436394 551.480895 
L 1118.645515 556.285456 
L 1119.854635 552.123157 
L 1121.063756 552.654505 
L 1122.272877 555.106018 
L 1123.481998 552.164662 
L 1124.691119 555.983651 
L 1125.90024 554.40569 
L 1135.573207 493.305859 
L 1137.991449 528.55472 
L 1139.20057 550.235868 
L 1140.409691 551.979051 
L 1142.827933 570.833876 
L 1144.037054 587.103736 
L 1145.246175 570.936193 
L 1146.455296 563.437883 
L 1147.664416 536.550099 
L 1148.873537 531.519997 
L 1150.082658 530.668857 
L 1151.291779 539.273683 
L 1152.5009 552.465783 
L 1153.710021 577.139805 
L 1154.919142 598.29758 
L 1156.128263 612.367879 
M 1171.846835 602.317623 
L 1173.055956 584.205244 
L 1176.683318 538.638266 
L 1177.892439 539.465616 
L 1179.10156 548.684695 
L 1180.310681 551.243991 
L 1181.519802 568.740085 
L 1182.728923 564.283564 
L 1183.938044 571.04646 
L 1185.147165 558.068298 
L 1186.356286 553.916319 
L 1188.774527 539.419216 
L 1189.983648 537.910959 
L 1191.192769 544.607576 
L 1192.40189 536.459601 
L 1193.611011 549.088774 
L 1194.820132 534.322154 
L 1196.029253 529.300707 
L 1197.238374 547.564844 
L 1198.447495 536.029646 
L 1199.656616 564.911646 
L 1200.865737 570.580231 
L 1202.074857 567.620596 
L 1203.283978 579.744869 
L 1204.493099 575.95252 
L 1205.70222 567.363897 
L 1206.911341 575.334226 
L 1208.120462 544.973512 
L 1209.329583 542.965928 
L 1210.538704 542.127464 
L 1211.747825 547.421831 
L 1212.956946 555.076784 
L 1214.166067 550.141019 
L 1215.375188 560.652735 
L 1216.584308 567.240761 
L 1217.793429 571.903775 
L 1220.211671 509.944171 
L 1221.420792 514.81928 
L 1222.629913 514.881555 
L 1223.839034 509.349339 
L 1225.048155 498.214131 
L 1226.257276 500.84321 
L 1227.466397 546.355199 
L 1228.675518 571.30106 
L 1229.884638 573.367893 
L 1231.093759 585.089321 
L 1232.30288 576.050007 
L 1233.512001 578.495946 
L 1234.721122 558.055238 
L 1235.930243 549.211094 
L 1237.139364 553.130971 
L 1239.557606 552.629301 
L 1240.766727 558.421654 
L 1245.60321 607.863861 
L 1246.812331 593.80981 
L 1248.021452 588.611525 
L 1249.230573 590.381645 
L 1250.439694 601.319621 
L 1251.648815 595.941657 
L 1254.067057 575.331576 
L 1255.276178 573.505841 
L 1257.694419 564.548242 
L 1258.90354 572.56616 
L 1260.112661 582.56018 
L 1261.321782 590.839567 
L 1263.740024 613.417089 
L 1264.949145 620.572331 
L 1266.158266 628.598462 
L 1267.367387 623.647384 
L 1268.576508 607.057516 
L 1269.785629 592.507624 
L 1270.994749 583.037847 
L 1272.20387 568.322677 
L 1273.412991 568.99182 
L 1275.831233 549.726244 
L 1277.040354 567.434959 
L 1278.249475 589.247122 
L 1279.458596 606.042556 
L 1280.667717 630.484866 
L 1281.876838 633.370788 
L 1283.085959 628.391446 
L 1284.29508 629.557689 
L 1285.5042 618.67084 
L 1286.713321 597.242673 
L 1287.922442 580.081456 
L 1289.131563 567.113692 
L 1290.340684 560.325041 
L 1291.549805 569.209764 
L 1292.758926 575.293058 
L 1293.968047 574.131713 
L 1295.177168 584.518676 
L 1296.386289 597.201355 
L 1297.59541 594.994203 
L 1298.80453 600.673833 
L 1300.013651 605.473525 
L 1301.222772 605.704225 
L 1302.431893 605.053754 
L 1303.641014 601.398395 
L 1304.850135 601.130199 
L 1306.059256 599.527903 
L 1307.268377 598.154801 
L 1308.477498 598.134386 
L 1309.686619 600.105154 
L 1310.89574 608.673063 
L 1312.10486 627.836906 
L 1313.313981 635.93845 
L 1314.523102 641.795362 
L 1315.732223 646.437867 
L 1316.941344 640.452534 
L 1318.150465 630.425767 
L 1320.568707 606.776157 
L 1321.777828 607.884301 
L 1322.986949 612.491958 
L 1324.19607 609.884973 
L 1325.405191 620.807217 
L 1326.614311 629.317739 
L 1327.823432 640.737438 
L 1329.032553 643.083481 
L 1330.241674 644.427559 
L 1331.450795 641.750853 
L 1332.659916 641.748617 
L 1333.869037 643.943259 
L 1335.078158 646.460761 
L 1336.287279 645.401935 
L 1337.4964 654.145447 
L 1338.705521 653.425701 
L 1339.914641 658.645945 
L 1341.123762 654.727337 
L 1342.332883 652.733817 
L 1343.542004 643.132537 
L 1344.751125 640.836832 
L 1345.960246 628.557075 
L 1347.169367 623.770464 
L 1348.378488 628.842324 
L 1349.587609 644.673407 
L 1350.79673 655.477699 
L 1352.005851 659.644165 
L 1354.424092 670.778771 
L 1355.633213 668.820661 
L 1356.842334 660.090441 
L 1358.051455 657.813118 
L 1359.260576 650.851797 
L 1360.469697 652.87069 
L 1361.678818 656.876187 
L 1362.887939 663.018609 
L 1364.09706 665.484696 
L 1365.306181 663.604532 
L 1366.515302 668.38122 
L 1367.724422 659.435518 
L 1368.933543 666.821983 
L 1370.142664 668.965819 
L 1371.351785 652.20201 
L 1372.560906 646.599512 
L 1373.770027 646.969292 
L 1374.979148 635.746857 
L 1376.188269 645.5702 
L 1377.39739 638.220823 
L 1378.606511 635.262014 
L 1381.024752 660.707144 
L 1382.233873 655.731575 
L 1383.442994 642.398888 
L 1384.652115 642.320721 
L 1385.861236 645.165742 
L 1388.279478 631.147873 
L 1389.488599 630.704932 
L 1391.906841 646.643679 
L 1393.115962 649.616654 
L 1394.325083 645.320118 
L 1395.534203 639.600931 
L 1396.743324 629.837335 
L 1397.952445 602.080016 
L 1399.161566 622.289456 
L 1400.370687 609.039548 
L 1401.579808 604.460373 
L 1402.788929 614.920109 
L 1403.99805 614.923646 
L 1405.207171 626.83834 
L 1406.416292 649.920955 
L 1407.625413 639.137072 
L 1408.834533 650.122019 
L 1410.043654 655.573825 
L 1411.252775 636.399911 
L 1412.461896 648.458495 
L 1413.671017 648.690426 
L 1414.880138 639.306689 
L 1416.089259 647.831449 
L 1417.29838 653.996991 
L 1420.925743 671.861805 
L 1422.134863 678.693712 
L 1423.343984 688.255288 
L 1424.553105 690.921906 
L 1425.762226 688.522554 
L 1426.971347 680.463738 
L 1428.180468 679.214306 
L 1429.389589 666.123234 
L 1430.59871 657.815635 
L 1431.807831 656.954157 
L 1433.016952 644.040883 
L 1434.226073 635.309378 
L 1435.435194 642.51516 
L 1436.644314 633.718295 
L 1437.853435 631.712871 
L 1439.062556 623.250277 
L 1440.271677 609.858865 
L 1441.480798 619.601984 
L 1442.689919 614.663536 
L 1443.89904 614.837893 
L 1445.108161 614.747398 
L 1446.317282 611.844873 
L 1447.526403 616.644068 
L 1448.735524 622.119793 
L 1449.944644 616.212697 
L 1454.781128 623.491679 
L 1455.990249 635.659376 
L 1457.19937 634.731004 
L 1458.408491 621.666713 
L 1460.826733 621.838407 
L 1462.035854 633.408593 
L 1463.244974 638.205229 
L 1464.454095 626.026791 
L 1465.663216 626.961191 
L 1466.872337 627.690253 
L 1468.081458 623.900026 
L 1469.290579 636.225677 
L 1470.4997 629.851916 
L 1471.708821 632.572426 
L 1472.917942 636.72821 
L 1474.127063 643.107559 
L 1475.336184 652.677197 
L 1476.545305 670.4619 
L 1477.754425 658.88291 
L 1478.963546 655.815414 
L 1480.172667 654.667435 
L 1481.381788 659.858956 
L 1482.590909 659.661521 
L 1483.80003 661.244521 
L 1485.009151 661.827513 
L 1486.218272 662.050682 
L 1487.427393 662.01501 
L 1488.636514 652.395446 
L 1489.845635 636.625924 
L 1491.054755 634.247629 
L 1492.263876 626.071382 
L 1493.472997 616.553295 
L 1494.682118 623.081774 
L 1495.891239 632.22934 
L 1498.309481 668.111347 
L 1499.518602 656.202917 
L 1500.727723 665.65429 
L 1501.936844 668.652049 
L 1503.145965 661.427541 
L 1504.355086 649.357759 
L 1505.564206 641.241261 
L 1506.773327 630.656564 
L 1507.982448 649.407172 
L 1509.191569 647.656513 
L 1510.40069 652.745826 
L 1512.818932 665.606921 
L 1514.028053 665.188832 
L 1515.237174 668.557246 
L 1516.446295 662.705693 
L 1517.655416 659.60716 
L 1518.864536 651.313176 
L 1520.073657 644.542583 
L 1521.282778 643.701645 
L 1522.491899 621.558886 
L 1523.70102 606.626964 
L 1524.910141 602.858787 
L 1526.119262 608.385935 
L 1527.328383 608.907577 
L 1528.537504 619.53816 
L 1529.746625 625.195456 
L 1530.955746 655.295162 
L 1532.164866 681.827547 
L 1533.373987 690.998682 
L 1534.583108 694.427263 
L 1535.792229 703.113473 
L 1537.00135 699.571061 
L 1538.210471 694.475231 
L 1539.419592 686.481748 
L 1540.628713 673.432723 
L 1541.837834 680.176031 
L 1543.046955 680.821769 
L 1544.256076 681.130834 
L 1545.465197 679.224522 
L 1546.674317 680.932692 
L 1547.883438 678.669776 
L 1549.092559 687.834669 
L 1550.30168 683.227424 
L 1551.510801 681.751662 
M 1553.929043 677.025082 
L 1555.138164 676.786222 
L 1556.347285 679.652054 
L 1557.556406 690.645128 
L 1558.765527 691.239544 
L 1561.183768 703.228843 
L 1562.392889 714.744834 
L 1563.60201 714.879188 
L 1564.811131 718.058982 
L 1567.229373 711.993969 
L 1568.438494 704.027146 
L 1570.856736 712.445298 
L 1572.065857 725.396714 
L 1573.274977 724.345074 
L 1574.484098 732.160875 
M 1585.366187 767.993359 
L 1586.575308 827.086457 
L 1587.784428 869.959051 
M 1602.293879 923.4 
L 1603.503 912.608058 
L 1604.712121 909.21312 
L 1605.921242 878.424966 
L 1608.339484 743.696763 
L 1609.548605 679.184013 
L 1610.757726 690.007595 
L 1611.966847 699.694958 
L 1613.175968 698.537687 
L 1614.385089 712.306692 
L 1615.594209 716.013892 
L 1616.80333 717.22579 
L 1618.012451 713.024559 
L 1619.221572 720.523876 
L 1620.430693 754.817332 
L 1621.639814 755.235312 
L 1622.848935 761.971172 
L 1624.058056 773.860909 
L 1625.267177 774.463574 
L 1626.476298 783.604027 
L 1627.685419 775.720676 
L 1628.894539 732.462837 
L 1630.10366 724.950083 
L 1631.312781 722.939458 
L 1632.521902 708.883637 
L 1633.731023 693.244233 
L 1634.940144 683.901447 
L 1636.149265 678.019388 
L 1637.358386 684.239644 
L 1638.567507 700.805549 
M 1651.867837 666.029398 
L 1653.076958 685.741689 
L 1654.286079 714.07788 
L 1655.4952 732.556338 
L 1656.70432 748.170699 
L 1657.913441 734.054229 
L 1659.122562 726.188468 
L 1660.331683 726.211684 
L 1661.540804 706.783665 
L 1662.749925 690.615174 
L 1663.959046 670.224843 
L 1665.168167 653.959613 
L 1666.377288 661.229392 
L 1667.586409 662.025411 
L 1668.79553 667.796844 
L 1670.00465 680.314151 
L 1671.213771 682.681709 
L 1672.422892 698.219195 
M 1676.050255 722.475617 
L 1677.259376 730.606687 
L 1678.468497 719.790329 
L 1679.677618 714.508188 
L 1680.886739 704.648637 
L 1682.09586 700.531769 
L 1683.30498 688.460909 
L 1684.514101 681.134354 
L 1685.723222 684.233006 
L 1686.932343 686.530776 
L 1688.141464 684.448407 
L 1689.350585 685.487246 
L 1690.559706 682.609968 
L 1691.768827 693.435478 
L 1692.977948 685.518661 
L 1694.187069 648.397092 
L 1695.39619 657.726365 
L 1696.605311 651.943904 
L 1697.814431 656.955547 
L 1699.023552 657.493716 
L 1700.232673 644.751542 
L 1701.441794 652.577889 
L 1702.650915 687.146581 
L 1703.860036 688.632895 
L 1705.069157 689.795648 
L 1706.278278 679.634248 
L 1707.487399 680.664365 
L 1708.69652 682.334993 
L 1709.905641 680.570025 
L 1711.114761 681.452479 
L 1712.323882 675.101211 
L 1713.533003 676.198136 
L 1714.742124 687.841981 
L 1715.951245 689.503603 
L 1717.160366 705.134411 
L 1718.369487 715.245066 
L 1719.578608 711.098757 
L 1720.787729 722.391575 
L 1721.99685 736.371888 
L 1723.205971 731.802893 
L 1724.415092 742.438355 
L 1726.833333 712.65072 
L 1728.042454 712.376594 
L 1729.251575 705.915322 
L 1730.460696 691.647136 
L 1731.669817 682.131893 
L 1732.878938 670.696201 
L 1734.088059 679.780025 
L 1735.29718 686.796572 
L 1736.506301 692.101525 
L 1737.715422 706.868937 
L 1738.924542 708.222701 
L 1740.133663 710.549366 
L 1741.342784 709.890555 
L 1742.551905 708.368223 
L 1743.761026 717.492806 
L 1744.970147 721.103848 
L 1746.179268 716.334825 
L 1747.388389 726.827545 
L 1748.59751 744.175479 
L 1749.806631 766.022494 
L 1751.015752 769.883938 
L 1752.224872 771.473399 
L 1753.433993 769.095739 
L 1755.852235 761.008528 
L 1757.061356 742.607271 
L 1758.270477 719.480216 
L 1760.688719 736.232697 
L 1761.89784 735.690228 
L 1763.106961 744.051019 
L 1764.316082 753.374984 
L 1765.525203 773.052961 
L 1766.734323 771.048072 
L 1767.943444 756.08041 
L 1769.152565 734.786427 
L 1770.361686 727.317588 
L 1771.570807 712.757342 
L 1773.989049 689.913823 
L 1775.19817 712.196069 
L 1776.407291 731.075207 
L 1778.825533 736.246129 
L 1780.034653 738.144415 
L 1781.243774 744.87066 
L 1782.452895 739.923603 
L 1783.662016 734.241161 
L 1784.871137 724.412162 
L 1786.080258 732.698807 
L 1787.289379 746.615979 
L 1788.4985 748.571836 
L 1789.707621 739.815622 
L 1790.916742 740.949408 
L 1792.125863 746.111878 
L 1793.334983 746.540971 
L 1795.753225 737.68022 
L 1796.962346 741.230236 
L 1798.171467 743.197896 
L 1803.007951 754.692349 
L 1804.217072 744.323468 
L 1805.426193 747.185868 
L 1806.635314 747.58796 
L 1807.844434 754.179847 
L 1809.053555 743.797695 
L 1810.262676 749.749868 
L 1811.471797 757.870148 
L 1812.680918 764.716695 
L 1813.890039 764.663836 
L 1815.09916 756.125189 
L 1816.308281 737.326998 
L 1817.517402 743.978205 
L 1818.726523 752.68933 
L 1819.935644 750.869969 
L 1821.144764 751.27358 
L 1822.353885 759.455084 
L 1823.563006 774.97263 
L 1824.772127 778.264702 
L 1825.981248 768.967513 
L 1827.190369 750.185487 
L 1828.39949 750.88793 
L 1829.608611 750.264295 
L 1830.817732 746.593517 
L 1832.026853 761.242115 
L 1833.235974 756.549755 
L 1834.445095 758.829194 
L 1835.654215 764.853868 
L 1836.863336 763.987353 
L 1838.072457 762.342193 
L 1839.281578 763.880856 
L 1840.490699 738.418557 
L 1842.908941 752.780831 
L 1844.118062 754.119542 
L 1845.327183 748.705502 
L 1846.536304 748.403264 
L 1847.745425 735.415787 
L 1848.954545 741.693881 
L 1850.163666 743.776303 
L 1851.372787 732.813953 
L 1852.581908 720.579813 
L 1853.791029 734.767154 
L 1856.209271 745.358322 
L 1857.418392 759.411495 
L 1858.627513 752.754072 
L 1859.836634 742.358287 
L 1862.254875 726.915134 
L 1863.463996 703.81724 
L 1864.673117 701.539189 
L 1865.882238 683.886807 
L 1867.091359 677.495399 
L 1868.30048 698.7624 
L 1869.509601 718.056401 
L 1870.718722 724.46986 
L 1871.927843 736.978995 
L 1873.136964 737.296861 
L 1874.346085 738.707614 
L 1875.555206 753.85078 
L 1876.764326 754.941233 
L 1877.973447 764.745216 
L 1879.182568 759.68523 
L 1880.391689 750.567917 
L 1881.60081 754.656052 
L 1882.809931 750.478485 
L 1884.019052 752.57398 
L 1885.228173 733.506903 
L 1886.437294 712.289862 
L 1887.646415 707.856265 
L 1888.855536 717.163144 
L 1890.064656 712.605983 
L 1891.273777 713.520028 
L 1892.482898 702.586274 
L 1893.692019 697.031956 
L 1894.90114 717.583336 
L 1896.110261 717.255165 
L 1897.319382 702.989049 
L 1898.528503 709.715183 
L 1899.737624 727.303546 
L 1900.946745 728.230219 
L 1902.155866 745.706886 
L 1903.364986 737.562899 
L 1904.574107 742.903738 
L 1905.783228 738.168734 
L 1906.992349 746.290016 
L 1908.20147 749.353804 
L 1909.410591 756.382716 
L 1910.619712 744.788096 
L 1911.828833 743.161794 
L 1913.037954 736.423101 
L 1914.247075 744.050723 
L 1915.456196 740.216819 
L 1916.665317 732.627389 
L 1917.874437 740.181047 
L 1919.083558 746.405389 
L 1921.5018 757.532269 
L 1922.710921 774.615586 
L 1923.920042 774.67193 
L 1925.129163 763.986942 
L 1926.338284 762.224718 
L 1927.547405 763.737346 
L 1928.756526 760.132838 
L 1929.965647 762.011415 
L 1931.174767 767.71905 
L 2000.094659 745.958675 
L 2001.30378 765.192281 
L 2003.722022 791.952033 
L 2004.931143 798.270771 
L 2007.349385 838.460666 
L 2008.558506 836.16902 
L 2009.767627 828.40885 
L 2010.976748 801.279028 
L 2012.185869 813.242608 
L 2013.394989 856.78923 
L 2014.60411 847.15447 
L 2015.813231 849.381671 
L 2017.022352 860.270088 
L 2018.231473 858.193208 
L 2019.440594 891.905588 
L 2020.649715 881.682577 
L 2021.858836 832.832986 
L 2023.067957 823.821227 
L 2024.277078 810.446293 
L 2025.486199 794.491646 
L 2026.69532 818.93392 
L 2027.90444 811.73851 
L 2029.113561 805.582513 
L 2030.322682 818.151254 
L 2031.531803 812.047384 
L 2032.740924 803.631832 
L 2033.950045 806.013796 
L 2037.577408 775.308429 
L 2038.786529 777.354524 
L 2039.99565 775.882019 
L 2041.20477 772.214605 
L 2042.413891 772.915088 
L 2043.623012 776.744898 
L 2044.832133 790.831459 
L 2046.041254 800.08618 
L 2047.250375 804.857576 
L 2048.459496 800.534107 
L 2049.668617 807.963088 
L 2050.877738 824.977321 
M 2070.223672 919.37266 
L 2071.432793 905.694564 
L 2072.641914 883.974472 
L 2073.851035 853.013961 
L 2075.060156 834.138829 
L 2076.269277 812.753312 
L 2077.478398 810.188926 
L 2078.687519 827.534463 
M 2091.987849 815.799863 
L 2093.19697 797.02979 
M 2145.189169 665.488086 
L 2146.39829 658.839871 
L 2148.816532 700.289032 
L 2150.025653 701.158602 
L 2151.234773 692.244175 
L 2152.443894 688.126645 
L 2153.653015 683.611584 
L 2154.862136 677.786834 
L 2156.071257 684.1376 
L 2157.280378 702.491653 
L 2158.489499 701.904454 
M 2170.580708 751.430448 
L 2171.789829 753.201701 
L 2172.99895 729.204282 
L 2174.208071 699.244898 
L 2175.417192 692.797388 
L 2176.626313 671.004986 
L 2177.835434 679.617049 
L 2179.044554 675.221202 
L 2180.253675 670.015554 
L 2181.462796 675.197881 
L 2182.671917 693.359496 
L 2183.881038 706.711971 
M 2191.135764 685.01717 
L 2192.344884 677.437189 
L 2193.554005 677.623103 
L 2194.763126 680.98858 
M 2290.283678 529.994479 
L 2291.492799 521.164329 
L 2293.911041 473.821017 
L 2295.120162 477.123128 
L 2296.329283 461.548203 
L 2297.538404 447.710128 
M 2306.00225 431.630823 
L 2307.211371 434.104698 
L 2308.420492 442.959531 
M 2454.724122 580.284238 
L 2457.142364 420.697885 
L 2458.351485 344.81362 
L 2459.560606 277.135296 
L 2461.978848 167.4 
L 2464.39709 191.091169 
L 2465.606211 198.840976 
L 2466.815332 197.324414 
L 2468.024452 208.03752 
L 2471.651815 185.154936 
L 2472.860936 188.872579 
L 2474.070057 190.700395 
L 2475.279178 193.039415 
L 2476.488299 191.050802 
L 2477.69742 196.592704 
L 2478.906541 200.928766 
L 2480.115662 211.590308 
L 2481.324782 211.697294 
L 2482.533903 207.673063 
L 2483.743024 215.289703 
L 2484.952145 219.368017 
L 2486.161266 216.663474 
L 2487.370387 223.808498 
L 2488.579508 222.44278 
L 2489.788629 218.282677 
L 2490.99775 215.395793 
L 2492.206871 209.287699 
L 2494.625113 198.706336 
L 2495.834233 194.544067 
L 2497.043354 189.050868 
L 2498.252475 179.800788 
L 2499.461596 182.552798 
L 2500.670717 183.896482 
L 2501.879838 186.442115 
L 2503.088959 195.044305 
L 2504.29808 192.820711 
L 2505.507201 191.241609 
L 2506.716322 199.221854 
L 2507.925443 201.08401 
L 2509.134563 223.712641 
L 2510.343684 248.733791 
L 2511.552805 264.203888 
L 2512.761926 255.765768 
L 2513.971047 257.597471 
L 2515.180168 254.880986 
L 2516.389289 253.345811 
L 2517.59841 239.160901 
L 2518.807531 217.1624 
L 2520.016652 206.538304 
L 2521.225773 211.941844 
L 2522.434893 208.604701 
L 2523.644014 207.773809 
L 2526.062256 210.815724 
L 2527.271377 202.19868 
L 2528.480498 195.055089 
L 2529.689619 201.768855 
L 2530.89874 209.685537 
L 2533.316982 228.077931 
L 2534.526103 231.120255 
L 2535.735224 236.49211 
L 2536.944344 243.46196 
L 2538.153465 251.372057 
L 2539.362586 251.199426 
L 2540.571707 242.849259 
L 2541.780828 237.881154 
M 2544.19907 245.567782 
L 2545.408191 277.151745 
L 2546.617312 292.369493 
L 2547.826433 286.538286 
L 2549.035554 287.769788 
L 2550.244674 292.002359 
L 2551.453795 292.091694 
L 2552.662916 280.866641 
L 2553.872037 238.754893 
L 2555.081158 217.927567 
L 2556.290279 201.68727 
L 2557.4994 197.102027 
L 2558.708521 207.843486 
L 2559.917642 214.599161 
L 2561.126763 213.993313 
L 2562.335884 233.637044 
L 2563.545005 245.734756 
L 2564.754125 269.418871 
L 2565.963246 265.355137 
L 2567.172367 249.269913 
L 2568.381488 248.660828 
L 2569.590609 266.388915 
L 2570.79973 274.175106 
L 2572.008851 280.790145 
L 2573.217972 278.189167 
L 2574.427093 284.01305 
L 2575.636214 282.175266 
L 2576.845335 281.649506 
L 2578.054455 264.791231 
L 2579.263576 240.975615 
L 2580.472697 223.19321 
L 2581.681818 230.190605 
L 2582.890939 230.594998 
L 2584.10006 237.996523 
L 2585.309181 225.866141 
L 2586.518302 223.687002 
L 2587.727423 226.553952 
L 2588.936544 209.731696 
L 2590.145665 186.59974 
L 2591.354785 182.381898 
L 2592.563906 190.800016 
L 2593.773027 207.217806 
L 2594.982148 206.450368 
L 2596.191269 225.292415 
L 2597.40039 256.867457 
L 2598.609511 269.216962 
L 2599.818632 277.679606 
L 2601.027753 281.767551 
L 2602.236874 281.224955 
L 2603.445995 281.370416 
L 2604.655116 260.632481 
L 2605.864236 258.257166 
L 2607.073357 275.707526 
L 2608.282478 291.479724 
L 2609.491599 277.979878 
L 2610.70072 272.598747 
L 2611.909841 279.184968 
L 2613.118962 291.620742 
L 2614.328083 280.10304 
L 2622.791929 254.550198 
L 2624.00105 249.611414 
L 2625.210171 249.554472 
L 2626.419292 257.369883 
L 2627.628413 255.618701 
L 2628.837534 246.008041 
L 2630.046655 249.722971 
L 2631.255776 254.098333 
L 2632.464896 277.750206 
L 2633.674017 279.086189 
L 2634.883138 283.162288 
L 2636.092259 285.302935 
L 2637.30138 292.160376 
L 2638.510501 291.899594 
L 2639.719622 286.81467 
L 2642.137864 250.928874 
L 2643.346985 242.193321 
L 2644.556106 251.461521 
L 2645.765227 251.087461 
L 2646.974347 254.575079 
L 2648.183468 256.872951 
L 2649.392589 264.544121 
L 2650.60171 278.401746 
L 2651.810831 266.501403 
L 2653.019952 248.006118 
L 2655.438194 238.870397 
L 2656.647315 236.729461 
L 2659.065557 223.109878 
L 2660.274677 240.923892 
L 2661.483798 245.019634 
L 2662.692919 254.504332 
L 2663.90204 255.275277 
L 2665.111161 252.279054 
L 2666.320282 250.594949 
L 2667.529403 249.804195 
L 2668.738524 243.916166 
L 2669.947645 271.735477 
L 2672.365887 284.017409 
L 2673.575008 291.063276 
L 2674.784128 295.643635 
L 2675.993249 299.289865 
L 2677.20237 301.059479 
L 2679.620612 260.964784 
L 2680.829733 254.023215 
L 2682.038854 248.150156 
L 2683.247975 246.248075 
L 2684.457096 250.73924 
L 2685.666217 247.078636 
L 2686.875338 251.924906 
L 2688.084458 233.08169 
L 2689.293579 239.933938 
L 2690.5027 264.433189 
L 2691.711821 262.439303 
L 2692.920942 257.568402 
L 2694.130063 259.088251 
L 2696.548305 276.089524 
L 2697.757426 272.420089 
L 2698.966547 257.448874 
L 2700.175668 257.203794 
L 2701.384788 269.482118 
L 2702.593909 269.729842 
L 2703.80303 273.073586 
L 2705.012151 270.794076 
L 2706.221272 282.374726 
L 2708.639514 267.568549 
L 2709.848635 244.826741 
L 2711.057756 239.714794 
L 2712.266877 242.032355 
L 2713.475998 245.951453 
L 2714.685119 243.27096 
L 2715.894239 236.872575 
L 2717.10336 251.885544 
L 2718.312481 265.457213 
L 2719.521602 298.726764 
L 2720.730723 291.015146 
L 2721.939844 307.093368 
L 2723.148965 309.077847 
L 2724.358086 310.549706 
L 2725.567207 311.835775 
L 2726.776328 320.053616 
L 2727.985449 299.65427 
L 2729.194569 298.759104 
L 2730.40369 272.840175 
L 2731.612811 263.642456 
L 2732.821932 267.674864 
L 2734.031053 272.734621 
L 2735.240174 262.761208 
L 2736.449295 247.013392 
L 2737.658416 244.461519 
L 2738.867537 256.00782 
L 2740.076658 271.869726 
L 2741.285779 282.841469 
L 2742.494899 268.89958 
L 2743.70402 262.389771 
L 2744.913141 277.074739 
L 2746.122262 289.040818 
L 2747.331383 283.13627 
L 2748.540504 282.346369 
L 2749.749625 278.652893 
L 2750.958746 278.191777 
L 2752.167867 289.650151 
L 2753.376988 273.503061 
L 2754.586109 267.885239 
L 2755.79523 264.928405 
L 2757.00435 252.040129 
L 2758.213471 241.628411 
L 2759.422592 269.432241 
L 2760.631713 259.429568 
L 2761.840834 257.448003 
L 2763.049955 254.467554 
L 2764.259076 262.155445 
L 2765.468197 263.7718 
L 2766.677318 262.433247 
L 2767.886439 231.093592 
L 2769.09556 218.234556 
L 2770.30468 225.742613 
L 2771.513801 216.407561 
L 2772.722922 195.537403 
L 2773.932043 197.93249 
L 2776.350285 209.069191 
L 2777.559406 228.819836 
L 2779.977648 254.158138 
L 2781.186769 276.754689 
L 2782.39589 281.291315 
L 2783.605011 288.511966 
L 2784.814131 285.828732 
L 2786.023252 291.612035 
L 2787.232373 287.185882 
L 2788.441494 288.931663 
L 2789.650615 264.749153 
L 2790.859736 261.75068 
L 2792.068857 251.205213 
L 2793.277978 266.435356 
L 2794.487099 264.273781 
L 2796.905341 261.05563 
L 2798.114461 284.951781 
L 2799.323582 283.159264 
L 2800.532703 279.661448 
L 2801.741824 269.322655 
L 2802.950945 263.325452 
L 2804.160066 258.217643 
L 2805.369187 247.306754 
L 2806.578308 245.808539 
L 2807.787429 254.532524 
L 2808.99655 268.440281 
L 2810.205671 277.427955 
L 2811.414791 294.185534 
L 2812.623912 299.03241 
L 2813.833033 316.820769 
L 2815.042154 321.566886 
L 2816.251275 328.337623 
L 2817.460396 324.705401 
L 2818.669517 311.259047 
L 2819.878638 273.151064 
L 2821.087759 275.842699 
L 2822.29688 261.608218 
L 2823.506001 261.262089 
L 2824.715122 251.473357 
L 2825.924242 245.704049 
L 2827.133363 243.541184 
L 2828.342484 256.172285 
L 2829.551605 258.192788 
L 2830.760726 254.186239 
L 2831.969847 259.833166 
L 2833.178968 267.909493 
L 2835.59721 303.871339 
L 2836.806331 326.073547 
L 2838.015452 335.951967 
L 2839.224572 344.485289 
L 2840.433693 331.407709 
L 2841.642814 319.61596 
L 2842.851935 301.070815 
L 2844.061056 295.839769 
L 2845.270177 282.374884 
L 2846.479298 282.877001 
L 2847.688419 320.176477 
L 2848.89754 349.877057 
L 2851.315782 388.100201 
L 2852.524902 386.060532 
L 2853.734023 384.743218 
L 2854.943144 378.64376 
L 2856.152265 341.335685 
L 2857.361386 316.082102 
L 2858.570507 306.29042 
L 2859.779628 304.812306 
L 2860.988749 310.412885 
L 2863.406991 326.201623 
L 2864.616112 320.775051 
L 2867.034353 326.502642 
L 2868.243474 322.068011 
L 2869.452595 325.777452 
L 2870.661716 331.133947 
L 2871.870837 317.461004 
L 2873.079958 325.349205 
L 2874.289079 327.710815 
L 2875.4982 327.218545 
L 2876.707321 329.176231 
L 2877.916442 328.597318 
L 2879.125563 316.01377 
L 2880.334683 325.119212 
L 2881.543804 330.226727 
L 2882.752925 327.922562 
L 2883.962046 327.222468 
L 2885.171167 330.898289 
L 2886.380288 323.358781 
L 2887.589409 313.646 
L 2888.79853 283.240644 
L 2890.007651 274.548303 
L 2891.216772 280.20598 
L 2892.425893 274.130191 
L 2893.635014 266.039386 
L 2894.844134 261.360182 
L 2896.053255 283.798092 
L 2897.262376 315.372403 
L 2898.471497 324.597219 
L 2899.680618 320.410406 
L 2900.889739 328.046394 
L 2902.09886 342.818787 
L 2903.307981 339.46918 
L 2904.517102 346.659468 
L 2905.726223 353.007186 
L 2906.935344 342.94755 
L 2908.144464 340.486032 
L 2909.353585 337.239509 
L 2910.562706 321.168135 
L 2911.771827 319.597005 
L 2912.980948 309.291183 
L 2914.190069 303.074407 
L 2915.39919 324.635562 
L 2916.608311 331.507181 
L 2917.817432 329.53876 
L 2919.026553 328.088432 
L 2921.444794 335.569564 
L 2922.653915 332.892119 
L 2923.863036 325.382475 
L 2925.072157 325.413655 
L 2926.281278 330.052732 
L 2928.69952 353.010579 
L 2929.908641 351.466076 
L 2931.117762 349.100972 
L 2932.326883 339.876224 
L 2933.536004 339.861022 
L 2934.745125 338.390688 
L 2935.954245 335.861749 
L 2937.163366 340.792709 
L 2938.372487 339.833787 
L 2939.581608 340.975169 
L 2940.790729 345.216389 
L 2941.99985 338.037037 
L 2943.208971 328.948055 
L 2944.418092 339.001048 
L 2945.627213 342.673254 
L 2946.836334 351.433981 
L 2948.045455 367.086761 
L 2949.254575 366.746677 
L 2950.463696 377.224209 
L 2951.672817 390.685203 
L 2952.881938 418.024969 
L 2954.091059 439.683731 
L 2955.30018 447.840458 
L 2956.509301 451.681162 
L 2957.718422 475.522261 
L 2958.927543 484.848685 
L 2960.136664 477.893784 
L 2961.345785 444.061034 
L 2962.554905 402.826307 
L 2963.764026 386.932215 
L 2964.973147 367.959709 
L 2966.182268 340.801346 
L 2967.391389 337.438288 
L 2968.60051 336.626575 
L 2969.809631 347.020117 
L 2971.018752 361.206165 
L 2972.227873 361.893147 
L 2973.436994 363.747764 
L 2974.646115 382.737029 
L 2975.855236 377.72826 
L 2977.064356 392.558701 
L 2978.273477 389.470543 
L 2979.482598 384.7022 
L 2980.691719 393.374039 
L 2981.90084 393.936095 
L 2983.109961 385.276604 
L 2984.319082 385.186432 
L 2985.528203 359.734589 
L 2986.737324 354.323298 
L 2987.946445 352.18565 
L 2990.364686 339.853573 
L 2991.573807 340.834558 
L 2992.782928 349.668517 
L 2993.992049 381.984923 
L 2995.20117 384.832385 
L 2996.410291 386.944162 
L 2997.619412 382.854991 
L 2998.828533 395.217852 
L 3000.037654 401.383878 
L 3001.246775 387.641781 
L 3002.455896 365.724496 
L 3003.665017 370.797265 
L 3004.874137 379.863067 
L 3006.083258 393.479689 
L 3007.292379 396.018339 
L 3008.5015 389.752908 
L 3009.710621 390.983722 
L 3010.919742 393.526683 
L 3012.128863 396.485373 
L 3013.337984 405.760093 
L 3014.547105 406.170209 
L 3015.756226 410.570364 
L 3016.965347 419.55021 
L 3019.383588 435.283903 
L 3020.592709 421.357616 
L 3021.80183 397.175495 
L 3023.010951 380.472858 
L 3024.220072 373.391904 
L 3025.429193 373.520487 
L 3026.638314 378.488346 
L 3027.847435 389.786598 
L 3029.056556 391.282733 
L 3030.265677 397.475389 
L 3031.474797 421.814729 
L 3032.683918 435.5358 
L 3033.893039 431.881125 
L 3035.10216 437.390573 
L 3036.311281 432.076532 
L 3037.520402 432.783685 
L 3038.729523 429.637814 
L 3039.938644 414.555843 
L 3041.147765 394.638705 
L 3042.356886 388.423882 
L 3043.566007 370.371274 
L 3044.775128 366.720331 
L 3047.193369 391.615016 
L 3048.40249 400.30376 
L 3049.611611 400.268338 
L 3050.820732 411.486332 
L 3052.029853 417.262265 
L 3053.238974 417.783643 
L 3054.448095 412.808686 
L 3055.657216 425.131586 
L 3056.866337 418.799764 
L 3058.075458 420.007811 
L 3059.284578 405.054798 
L 3060.493699 405.799509 
L 3061.70282 410.093414 
L 3062.911941 402.598188 
L 3064.121062 396.579376 
L 3065.330183 395.095886 
L 3066.539304 400.807752 
L 3067.748425 411.325729 
L 3068.957546 414.354268 
L 3070.166667 413.701376 
L 3071.375788 422.069796 
L 3072.584908 418.655343 
L 3073.794029 416.537067 
L 3075.00315 413.00753 
L 3076.212271 406.518278 
L 3077.421392 419.923441 
L 3078.630513 419.789093 
L 3079.839634 413.771932 
L 3081.048755 402.498274 
L 3082.257876 401.652827 
L 3083.466997 395.831612 
L 3084.676118 392.226432 
L 3085.885239 370.667397 
L 3087.094359 358.135899 
L 3088.30348 337.259854 
L 3089.512601 346.191853 
L 3090.721722 362.456237 
L 3091.930843 374.441099 
L 3093.139964 374.028447 
L 3094.349085 387.008661 
L 3095.558206 382.120274 
L 3096.767327 397.673182 
L 3097.976448 407.720605 
L 3099.185569 399.741498 
L 3100.394689 401.103701 
L 3101.60381 424.452318 
L 3102.812931 429.242772 
L 3105.231173 458.717531 
L 3106.440294 441.34631 
L 3107.649415 432.943782 
L 3108.858536 422.658667 
L 3110.067657 401.231629 
L 3111.276778 396.136804 
L 3112.485899 403.891376 
L 3113.69502 406.276574 
L 3114.90414 425.794159 
L 3116.113261 427.654023 
L 3117.322382 429.994151 
L 3118.531503 441.399026 
L 3119.740624 439.778169 
L 3120.949745 436.539458 
L 3122.158866 431.297604 
L 3123.367987 418.281742 
L 3125.786229 435.884148 
L 3126.99535 431.358454 
L 3128.20447 434.24564 
L 3129.413591 431.216287 
L 3130.622712 426.757017 
L 3131.831833 440.720633 
L 3133.040954 439.408986 
L 3134.250075 429.592475 
L 3135.459196 436.70954 
L 3136.668317 433.374603 
L 3137.877438 441.146298 
L 3139.086559 439.932994 
L 3140.29568 432.399736 
L 3141.5048 440.718263 
L 3142.713921 454.994882 
L 3143.923042 458.79868 
L 3146.341284 440.40534 
L 3147.550405 442.058203 
L 3148.759526 431.681907 
L 3149.968647 431.881117 
L 3151.177768 416.837809 
L 3152.386889 416.371904 
L 3153.59601 436.195542 
L 3154.805131 435.938756 
L 3156.014251 443.271542 
L 3157.223372 446.447286 
L 3158.432493 440.670242 
L 3159.641614 456.360627 
L 3160.850735 444.844221 
L 3162.059856 441.332447 
L 3163.268977 439.047042 
L 3164.478098 427.918683 
L 3166.89634 402.212017 
L 3168.105461 392.587236 
L 3171.732823 387.876898 
L 3172.941944 388.656107 
L 3174.151065 405.410333 
L 3175.360186 426.90322 
L 3176.569307 436.645452 
L 3177.778428 425.43024 
L 3178.987549 431.946313 
L 3180.19667 435.937833 
L 3181.405791 451.10219 
L 3182.614911 453.591981 
L 3183.824032 448.895654 
L 3185.033153 446.263102 
L 3186.242274 443.330264 
L 3187.451395 444.133044 
L 3188.660516 448.701586 
L 3189.869637 428.932359 
L 3191.078758 424.311143 
L 3192.287879 407.484772 
L 3194.706121 410.56096 
L 3195.915242 416.233784 
L 3197.124362 408.884799 
L 3198.333483 404.452713 
L 3199.542604 399.319248 
L 3200.751725 400.075636 
L 3201.960846 388.767136 
L 3204.379088 393.433245 
L 3205.588209 387.311852 
L 3206.79733 400.728177 
L 3208.006451 416.60291 
L 3209.215572 430.111165 
L 3210.424692 431.375192 
L 3211.633813 437.367241 
L 3212.842934 419.076543 
L 3214.052055 415.380872 
L 3215.261176 406.581613 
L 3216.470297 394.604088 
L 3217.679418 398.092499 
L 3218.888539 397.387134 
L 3221.306781 399.665996 
L 3222.515902 435.835395 
L 3223.725023 446.550769 
L 3224.934143 440.021337 
L 3226.143264 429.422671 
L 3227.352385 439.421592 
L 3228.561506 430.960549 
L 3229.770627 440.803422 
L 3230.979748 417.302175 
L 3232.188869 425.735442 
L 3233.39799 435.317343 
L 3234.607111 431.620159 
L 3235.816232 424.847989 
L 3237.025353 422.77609 
L 3238.234473 412.060451 
L 3239.443594 408.286315 
L 3240.652715 397.923604 
L 3241.861836 388.862012 
L 3243.070957 404.337213 
L 3244.280078 402.823538 
L 3245.489199 416.647526 
L 3246.69832 421.897008 
L 3247.907441 420.558892 
L 3249.116562 411.595945 
L 3250.325683 410.907336 
L 3251.534803 394.95145 
L 3252.743924 397.095045 
L 3253.953045 382.388337 
L 3255.162166 383.65165 
L 3256.371287 384.191285 
L 3257.580408 388.206265 
L 3258.789529 397.39816 
L 3259.99865 404.025886 
L 3261.207771 405.662351 
L 3262.416892 411.753553 
L 3263.626013 412.152165 
L 3264.835134 411.699624 
L 3266.044254 417.870593 
L 3267.253375 424.914899 
L 3268.462496 432.898569 
L 3269.671617 439.49334 
L 3270.880738 447.60721 
L 3272.089859 444.636111 
L 3273.29898 440.351845 
L 3274.508101 447.317707 
L 3275.717222 444.837012 
L 3276.926343 433.919387 
L 3278.135464 421.551369 
L 3279.344584 415.142082 
L 3280.553705 417.478112 
L 3281.762826 428.483744 
L 3282.971947 423.547054 
L 3284.181068 425.580764 
L 3285.390189 435.228605 
L 3286.59931 429.737457 
L 3287.808431 422.83145 
L 3289.017552 428.691873 
L 3290.226673 426.508198 
L 3291.435794 423.034147 
L 3292.644914 421.364686 
L 3293.854035 425.360709 
L 3295.063156 434.288849 
L 3296.272277 444.753337 
L 3297.481398 443.831105 
L 3298.690519 449.740044 
L 3299.89964 470.222435 
L 3301.108761 479.47992 
L 3302.317882 469.99715 
L 3303.527003 469.085189 
L 3304.736124 457.712844 
L 3305.945245 461.270413 
L 3307.154365 466.087664 
L 3308.363486 461.051202 
L 3309.572607 448.11639 
L 3310.781728 449.399338 
L 3311.990849 445.930365 
L 3313.19997 449.091229 
L 3314.409091 446.518757 
L 3316.827333 430.430483 
L 3318.036454 431.670618 
L 3319.245575 430.838784 
L 3320.454695 445.677516 
L 3321.663816 456.372758 
L 3322.872937 452.420065 
L 3324.082058 447.763619 
L 3325.291179 444.845341 
L 3326.5003 455.933723 
L 3327.709421 468.746637 
L 3328.918542 469.104867 
L 3330.127663 483.169338 
L 3331.336784 478.009647 
L 3332.545905 484.494646 
L 3333.755026 484.645529 
L 3336.173267 449.681785 
L 3337.382388 451.078504 
L 3338.591509 446.315301 
L 3339.80063 469.162812 
L 3341.009751 466.367232 
L 3343.427993 484.742521 
L 3344.637114 500.617919 
L 3345.846235 499.385319 
L 3347.055356 488.208639 
L 3348.264476 478.300542 
L 3349.473597 482.58065 
L 3350.682718 481.916297 
L 3351.891839 492.082554 
L 3353.10096 486.93868 
L 3354.310081 485.631548 
L 3356.728323 503.358012 
L 3357.937444 514.537007 
L 3359.146565 518.388374 
L 3361.564806 508.643784 
L 3362.773927 507.860792 
L 3363.983048 495.158126 
L 3365.192169 493.13056 
L 3366.40129 486.255484 
L 3367.610411 476.39742 
L 3368.819532 476.476268 
L 3370.028653 483.096079 
L 3371.237774 478.187412 
L 3373.656016 494.549586 
L 3374.865137 494.707837 
L 3376.074257 505.177026 
L 3377.283378 513.012935 
L 3378.492499 492.831043 
L 3379.70162 497.634294 
L 3380.910741 489.329219 
L 3382.119862 474.690347 
L 3383.328983 466.059994 
L 3385.747225 441.586219 
L 3386.956346 470.559515 
L 3388.165467 484.207629 
L 3389.374587 494.827552 
L 3390.583708 500.568585 
L 3391.792829 495.643723 
L 3393.00195 503.751004 
L 3394.211071 503.709491 
L 3395.420192 504.122318 
L 3396.629313 491.4698 
L 3397.838434 493.920536 
L 3399.047555 490.028278 
L 3400.256676 502.274519 
L 3401.465797 498.143996 
L 3402.674917 508.918793 
L 3403.884038 504.878673 
L 3405.093159 503.309584 
L 3406.30228 498.826504 
L 3407.511401 507.722695 
L 3408.720522 514.17897 
L 3409.929643 512.100251 
L 3411.138764 505.171828 
L 3412.347885 500.723722 
L 3413.557006 504.21165 
L 3414.766127 513.290448 
L 3415.975248 512.930795 
L 3417.184368 514.62053 
L 3419.60261 531.37442 
L 3420.811731 522.836602 
L 3422.020852 536.084724 
L 3423.229973 539.466344 
L 3424.439094 551.471516 
L 3425.648215 553.777169 
L 3426.857336 559.116548 
L 3428.066457 561.38856 
L 3429.275578 564.641312 
L 3432.90294 499.685122 
L 3434.112061 487.154434 
L 3435.321182 477.489204 
L 3436.530303 484.043253 
L 3437.739424 500.634454 
L 3438.948545 509.428341 
L 3440.157666 531.344534 
L 3441.366787 544.268982 
L 3442.575908 566.845108 
L 3443.785029 571.225754 
L 3444.994149 545.487971 
L 3446.20327 535.650097 
L 3447.412391 542.977069 
L 3448.621512 530.55367 
L 3449.830633 520.394662 
L 3451.039754 506.321097 
L 3452.248875 501.421818 
L 3454.667117 536.394624 
L 3455.876238 530.683485 
L 3457.085359 540.782378 
L 3458.294479 537.753361 
L 3459.5036 515.117305 
L 3460.712721 524.375698 
L 3461.921842 532.208412 
L 3464.340084 518.353634 
L 3465.549205 515.127917 
L 3466.758326 526.693197 
L 3467.967447 553.579324 
L 3469.176568 554.897684 
L 3470.385689 560.070202 
L 3471.594809 570.282347 
L 3472.80393 582.358121 
L 3474.013051 581.285096 
L 3475.222172 566.688751 
L 3476.431293 556.980468 
L 3477.640414 558.902659 
L 3478.849535 551.167481 
L 3480.058656 527.922082 
L 3481.267777 531.150898 
L 3482.476898 534.971189 
L 3484.89514 569.813001 
L 3486.10426 572.126097 
L 3487.313381 571.041627 
L 3488.522502 594.804007 
L 3489.731623 589.734241 
L 3490.940744 593.612792 
L 3492.149865 607.905598 
L 3493.358986 599.807657 
L 3494.568107 590.053583 
L 3495.777228 590.276124 
L 3496.986349 564.124735 
L 3498.19547 576.806363 
L 3499.40459 573.873164 
L 3500.613711 558.685722 
L 3501.822832 556.85397 
L 3503.031953 563.545623 
L 3504.241074 563.004456 
L 3505.450195 575.540316 
L 3506.659316 576.684388 
L 3507.868437 579.881313 
L 3509.077558 574.713328 
L 3510.286679 577.47439 
L 3511.4958 574.990453 
L 3512.70492 576.628022 
L 3513.914041 570.10543 
L 3515.123162 550.685199 
L 3516.332283 547.063265 
L 3517.541404 553.747983 
L 3518.750525 542.463134 
L 3519.959646 539.380892 
L 3521.168767 535.627202 
L 3522.377888 536.286329 
L 3523.587009 536.280442 
L 3524.79613 549.783752 
L 3526.005251 545.866979 
L 3527.214371 567.475672 
L 3528.423492 580.455745 
L 3529.632613 587.254391 
L 3530.841734 602.374022 
L 3532.050855 622.757846 
L 3533.259976 612.928109 
L 3534.469097 622.140331 
L 3535.678218 622.311596 
L 3536.887339 611.774107 
L 3538.09646 611.745408 
L 3539.305581 608.113493 
L 3540.514701 592.401319 
L 3541.723822 588.414447 
L 3542.932943 575.316423 
L 3544.142064 571.570546 
L 3545.351185 568.777305 
L 3546.560306 560.876907 
L 3547.769427 556.299197 
L 3548.978548 561.958805 
L 3550.187669 566.85773 
L 3551.39679 583.80178 
L 3552.605911 597.905112 
L 3553.815032 608.576826 
L 3555.024152 608.09315 
L 3556.233273 607.827951 
L 3573.160966 611.219489 
L 3574.370087 596.370113 
L 3575.579208 583.750452 
L 3576.788329 569.697511 
L 3577.99745 586.896815 
L 3579.206571 589.222854 
L 3581.624812 610.744476 
L 3590.088659 654.490051 
L 3591.29778 649.606186 
L 3592.506901 637.881681 
L 3593.716022 640.342324 
L 3594.925143 645.810795 
L 3596.134263 633.289763 
L 3597.343384 626.944696 
L 3598.552505 628.852021 
L 3599.761626 620.727768 
L 3600.970747 628.237721 
L 3602.179868 609.37909 
L 3603.388989 598.523616 
L 3604.59811 600.604363 
L 3605.807231 616.613331 
L 3607.016352 624.940188 
L 3608.225473 638.52972 
L 3609.434593 627.768925 
L 3611.852835 638.758701 
L 3613.061956 643.556755 
L 3614.271077 636.706988 
L 3615.480198 617.512155 
L 3616.689319 602.678877 
L 3617.89844 599.620657 
L 3645.708221 616.795573 
L 3646.917342 603.344836 
L 3648.126463 599.086836 
L 3649.335584 565.018403 
L 3650.544704 563.665253 
L 3651.753825 555.042597 
L 3652.962946 556.361284 
L 3654.172067 573.402168 
L 3655.381188 581.281171 
L 3656.590309 590.410415 
L 3657.79943 621.093112 
L 3659.008551 625.034923 
L 3660.217672 631.011413 
L 3661.426793 632.243018 
L 3662.635914 610.038334 
L 3663.845035 604.401805 
L 3665.054155 599.507163 
L 3666.263276 600.507603 
L 3667.472397 614.990702 
L 3668.681518 614.413082 
L 3669.890639 622.19424 
L 3671.09976 636.884686 
L 3672.308881 648.899316 
L 3673.518002 641.049535 
L 3674.727123 632.237127 
L 3675.936244 633.283329 
L 3677.145365 623.514871 
L 3679.563606 601.484451 
L 3680.772727 594.775905 
L 3681.981848 594.803742 
L 3683.190969 613.435815 
L 3684.40009 589.842341 
L 3685.609211 597.346356 
L 3686.818332 596.662124 
M 3689.236574 615.465141 
L 3690.445695 619.8865 
L 3691.654815 638.951661 
L 3692.863936 637.614189 
L 3694.073057 646.04767 
L 3695.282178 640.91635 
L 3696.491299 637.929372 
L 3697.70042 625.54527 
L 3698.909541 616.497761 
L 3700.118662 604.56978 
L 3701.327783 588.898512 
L 3702.536904 590.896704 
L 3703.746025 592.213679 
L 3704.955146 596.064743 
L 3707.373387 614.141367 
L 3708.582508 609.906656 
L 3709.791629 597.790371 
L 3711.00075 587.929685 
L 3712.209871 592.341276 
L 3713.418992 597.709291 
L 3714.628113 605.497528 
L 3731.555806 630.709471 
L 3732.764926 626.993372 
L 3733.974047 646.358656 
L 3735.183168 629.70294 
L 3736.392289 624.877831 
L 3737.60141 628.725868 
L 3738.810531 623.181317 
L 3740.019652 645.464013 
L 3741.228773 655.005308 
L 3742.437894 649.021158 
L 3743.647015 667.18857 
L 3744.856136 672.62068 
L 3746.065257 675.094632 
L 3747.274377 676.654462 
L 3748.483498 655.308012 
L 3749.692619 654.500658 
L 3750.90174 657.618805 
L 3753.319982 652.912851 
L 3756.947345 696.576923 
L 3758.156466 706.173818 
L 3759.365587 720.057203 
L 3760.574707 718.53202 
L 3761.783828 718.446485 
L 3762.992949 731.268849 
L 3764.20207 710.174081 
L 3765.411191 686.774786 
L 3766.620312 679.056844 
L 3767.829433 650.21912 
L 3769.038554 663.109214 
L 3770.247675 670.21314 
L 3771.456796 669.499277 
L 3772.665917 672.287756 
L 3773.875038 665.889838 
L 3775.084158 675.475293 
L 3776.293279 694.400701 
L 3777.5024 690.285239 
L 3778.711521 690.57153 
L 3779.920642 689.161006 
L 3781.129763 686.618585 
L 3782.338884 688.346944 
L 3783.548005 672.241829 
L 3784.757126 670.95373 
L 3785.966247 668.585312 
L 3787.175368 669.544418 
L 3788.384488 664.320188 
L 3789.593609 660.013013 
L 3790.80273 676.876769 
L 3792.011851 676.423171 
L 3793.220972 676.724715 
L 3794.430093 674.238606 
L 3795.639214 683.389406 
L 3796.848335 698.290478 
L 3798.057456 700.851222 
L 3799.266577 745.219811 
L 3800.475698 777.072756 
L 3801.684818 792.424913 
L 3802.893939 827.012705 
L 3804.10306 853.918276 
L 3805.312181 884.3258 
L 3806.521302 911.921854 
L 3807.730423 874.89567 
L 3808.939544 869.68937 
L 3810.148665 851.624653 
L 3812.566907 797.639049 
L 3813.776028 764.801694 
L 3814.985149 743.985692 
L 3816.194269 725.672606 
L 3817.40339 703.055001 
L 3818.612511 701.364485 
L 3934.688119 776.987862 
L 3935.89724 775.379521 
L 3937.106361 793.480708 
L 3938.315482 797.774082 
L 3939.524602 802.986095 
L 3940.733723 817.379801 
L 3943.151965 807.720743 
L 3944.361086 804.998184 
L 3945.570207 797.315703 
L 3946.779328 814.355071 
L 3947.988449 817.834748 
L 3949.19757 814.299451 
L 3950.406691 821.533923 
L 3951.615812 843.53804 
L 3952.824932 847.88536 
L 3954.034053 838.510884 
L 3955.243174 811.472844 
L 3956.452295 803.547907 
L 3957.661416 816.593339 
L 3958.870537 833.348968 
L 3960.079658 834.390664 
L 3961.288779 839.096969 
L 3962.4979 839.546815 
L 3963.707021 830.092465 
L 3964.916142 823.519634 
L 3966.125263 792.557347 
L 3967.334383 758.672851 
L 3968.543504 752.708705 
L 3969.752625 757.179692 
L 3970.961746 779.123419 
L 3972.170867 806.451762 
L 3973.379988 794.668689 
L 3974.589109 820.91371 
L 3975.79823 831.488028 
L 3977.007351 823.563485 
L 3978.216472 804.31657 
L 3980.634713 753.249274 
L 3981.843834 763.203386 
L 3983.052955 765.664236 
L 3984.262076 769.08414 
L 3985.471197 774.49518 
L 3986.680318 782.000895 
L 3989.09856 811.11674 
L 3990.307681 830.886817 
L 3991.516802 814.064115 
L 3992.725923 811.494801 
L 3993.935044 806.364128 
L 3995.144164 814.959894 
L 3996.353285 812.291686 
L 3998.771527 798.434453 
L 3999.980648 805.375801 
L 4001.189769 811.11852 
L 4002.39889 809.601358 
L 4014.490099 835.570275 
L 4015.69922 832.938857 
L 4016.908341 835.733245 
L 4018.117462 829.000835 
L 4019.326583 840.704812 
L 4020.535704 830.233497 
L 4021.744824 823.965546 
L 4022.953945 833.061514 
L 4024.163066 845.40803 
L 4025.372187 849.571775 
L 4026.581308 837.140484 
L 4027.790429 826.115925 
L 4028.99955 813.931805 
L 4030.208671 798.791238 
L 4031.417792 788.30086 
L 4032.626913 781.955867 
L 4033.836034 770.668421 
L 4035.045155 774.223998 
L 4036.254275 771.743678 
L 4037.463396 771.622384 
L 4038.672517 784.627514 
L 4039.881638 777.655863 
L 4041.090759 777.825859 
L 4042.29988 771.035414 
L 4043.509001 781.580386 
L 4044.718122 781.957442 
L 4045.927243 786.597855 
L 4047.136364 780.074657 
L 4047.136364 780.074657 
" clip-path="url(#p4dbaff05dc)" style="fill: none; stroke: #1f77b4; stroke-width: 1.5; stroke-linecap: square"/>
   </g>
   <g id="patch_3">
    <path d="M 585 961.2 
L 585 129.6 
" style="fill: none; stroke: #000000; stroke-width: 0.8; stroke-linejoin: miter; stroke-linecap: square"/>
   </g>
   <g id="patch_4">
    <path d="M 4212 961.2 
L 4212 129.6 
" style="fill: none; stroke: #000000; stroke-width: 0.8; stroke-linejoin: miter; stroke-linecap: square"/>
   </g>
   <g id="patch_5">
    <path d="M 585 961.2 
L 4212 961.2 
" style="fill: none; stroke: #000000; stroke-width: 0.8; stroke-linejoin: miter; stroke-linecap: square"/>
   </g>
   <g id="patch_6">
    <path d="M 585 129.6 
L 4212 129.6 
" style="fill: none; stroke: #000000; stroke-width: 0.8; stroke-linejoin: miter; stroke-linecap: square"/>
   </g>
   <g id="text_20">
    <!-- Stations: avg reduced -->
    <g transform="translate(2234.090625 123.360937) scale(0.3 -0.3)">
     <defs>
      <path id="DejaVuSans-53" d="M 3425 4513 
L 3425 3897 
Q 3066 4069 2747 4153 
Q 2428 4238 2131 4238 
Q 1616 4238 1336 4038 
Q 1056 3838 1056 3469 
Q 1056 3159 1242 3001 
Q 1428 2844 1947 2747 
L 2328 2669 
Q 3034 2534 3370 2195 
Q 3706 1856 3706 1288 
Q 3706 609 3251 259 
Q 2797 -91 1919 -91 
Q 1588 -91 1214 -16 
Q 841 59 441 206 
L 441 856 
Q 825 641 1194 531 
Q 1563 422 1919 422 
Q 2459 422 2753 634 
Q 3047 847 3047 1241 
Q 3047 1584 2836 1778 
Q 2625 1972 2144 2069 
L 1759 2144 
Q 1053 2284 737 2584 
Q 422 2884 422 3419 
Q 422 4038 858 4394 
Q 1294 4750 2059 4750 
Q 2388 4750 2728 4690 
Q 3069 4631 3425 4513 
z
" transform="scale(0.015625)"/>
      <path id="DejaVuSans-6f" d="M 1959 3097 
Q 1497 3097 1228 2736 
Q 959 2375 959 1747 
Q 959 1119 1226 758 
Q 1494 397 1959 397 
Q 2419 397 2687 759 
Q 2956 1122 2956 1747 
Q 2956 2369 2687 2733 
Q 2419 3097 1959 3097 
z
M 1959 3584 
Q 2709 3584 3137 3096 
Q 3566 2609 3566 1747 
Q 3566 888 3137 398 
Q 2709 -91 1959 -91 
Q 1206 -91 779 398 
Q 353 888 353 1747 
Q 353 2609 779 3096 
Q 1206 3584 1959 3584 
z
" transform="scale(0.015625)"/>
      <path id="DejaVuSans-6e" d="M 3513 2113 
L 3513 0 
L 2938 0 
L 2938 2094 
Q 2938 2591 2744 2837 
Q 2550 3084 2163 3084 
Q 1697 3084 1428 2787 
Q 1159 2491 1159 1978 
L 1159 0 
L 581 0 
L 581 3500 
L 1159 3500 
L 1159 2956 
Q 1366 3272 1645 3428 
Q 1925 3584 2291 3584 
Q 2894 3584 3203 3211 
Q 3513 2838 3513 2113 
z
" transform="scale(0.015625)"/>
      <path id="DejaVuSans-3a" d="M 750 794 
L 1409 794 
L 1409 0 
L 750 0 
L 750 794 
z
M 750 3309 
L 1409 3309 
L 1409 2516 
L 750 2516 
L 750 3309 
z
" transform="scale(0.015625)"/>
      <path id="DejaVuSans-20" transform="scale(0.015625)"/>
      <path id="DejaVuSans-76" d="M 191 3500 
L 800 3500 
L 1894 563 
L 2988 3500 
L 3597 3500 
L 2284 0 
L 1503 0 
L 191 3500 
z
" transform="scale(0.015625)"/>
      <path id="DejaVuSans-67" d="M 2906 1791 
Q 2906 2416 2648 2759 
Q 2391 3103 1925 3103 
Q 1463 3103 1205 2759 
Q 947 2416 947 1791 
Q 947 1169 1205 825 
Q 1463 481 1925 481 
Q 2391 481 2648 825 
Q 2906 1169 2906 1791 
z
M 3481 434 
Q 3481 -459 3084 -895 
Q 2688 -1331 1869 -1331 
Q 1566 -1331 1297 -1286 
Q 1028 -1241 775 -1147 
L 775 -588 
Q 1028 -725 1275 -790 
Q 1522 -856 1778 -856 
Q 2344 -856 2625 -561 
Q 2906 -266 2906 331 
L 2906 616 
Q 2728 306 2450 153 
Q 2172 0 1784 0 
Q 1141 0 747 490 
Q 353 981 353 1791 
Q 353 2603 747 3093 
Q 1141 3584 1784 3584 
Q 2172 3584 2450 3431 
Q 2728 3278 2906 2969 
L 2906 3500 
L 3481 3500 
L 3481 434 
z
" transform="scale(0.015625)"/>
      <path id="DejaVuSans-72" d="M 2631 2963 
Q 2534 3019 2420 3045 
Q 2306 3072 2169 3072 
Q 1681 3072 1420 2755 
Q 1159 2438 1159 1844 
L 1159 0 
L 581 0 
L 581 3500 
L 1159 3500 
L 1159 2956 
Q 1341 3275 1631 3429 
Q 1922 3584 2338 3584 
Q 2397 3584 2469 3576 
Q 2541 3569 2628 3553 
L 2631 2963 
z
" transform="scale(0.015625)"/>
      <path id="DejaVuSans-64" d="M 2906 2969 
L 2906 4863 
L 3481 4863 
L 3481 0 
L 2906 0 
L 2906 525 
Q 2725 213 2448 61 
Q 2172 -91 1784 -91 
Q 1150 -91 751 415 
Q 353 922 353 1747 
Q 353 2572 751 3078 
Q 1150 3584 1784 3584 
Q 2172 3584 2448 3432 
Q 2725 3281 2906 2969 
z
M 947 1747 
Q 947 1113 1208 752 
Q 1469 391 1925 391 
Q 2381 391 2643 752 
Q 2906 1113 2906 1747 
Q 2906 2381 2643 2742 
Q 2381 3103 1925 3103 
Q 1469 3103 1208 2742 
Q 947 2381 947 1747 
z
" transform="scale(0.015625)"/>
      <path id="DejaVuSans-75" d="M 544 1381 
L 544 3500 
L 1119 3500 
L 1119 1403 
Q 1119 906 1312 657 
Q 1506 409 1894 409 
Q 2359 409 2629 706 
Q 2900 1003 2900 1516 
L 2900 3500 
L 3475 3500 
L 3475 0 
L 2900 0 
L 2900 538 
Q 2691 219 2414 64 
Q 2138 -91 1772 -91 
Q 1169 -91 856 284 
Q 544 659 544 1381 
z
M 1991 3584 
L 1991 3584 
z
" transform="scale(0.015625)"/>
      <path id="DejaVuSans-63" d="M 3122 3366 
L 3122 2828 
Q 2878 2963 2633 3030 
Q 2388 3097 2138 3097 
Q 1578 3097 1268 2742 
Q 959 2388 959 1747 
Q 959 1106 1268 751 
Q 1578 397 2138 397 
Q 2388 397 2633 464 
Q 2878 531 3122 666 
L 3122 134 
Q 2881 22 2623 -34 
Q 2366 -91 2075 -91 
Q 1284 -91 818 406 
Q 353 903 353 1747 
Q 353 2603 823 3093 
Q 1294 3584 2113 3584 
Q 2378 3584 2631 3529 
Q 2884 3475 3122 3366 
z
" transform="scale(0.015625)"/>
     </defs>
     <use xlink:href="#DejaVuSans-53"/>
     <use xlink:href="#DejaVuSans-74" x="63.476562"/>
     <use xlink:href="#DejaVuSans-61" x="102.685547"/>
     <use xlink:href="#DejaVuSans-74" x="163.964844"/>
     <use xlink:href="#DejaVuSans-69" x="203.173828"/>
     <use xlink:href="#DejaVuSans-6f" x="230.957031"/>
     <use xlink:href="#DejaVuSans-6e" x="292.138672"/>
     <use xlink:href="#DejaVuSans-73" x="355.517578"/>
     <use xlink:href="#DejaVuSans-3a" x="407.617188"/>
     <use xlink:href="#DejaVuSans-20" x="441.308594"/>
     <use xlink:href="#DejaVuSans-61" x="473.095703"/>
     <use xlink:href="#DejaVuSans-76" x="534.375"/>
     <use xlink:href="#DejaVuSans-67" x="593.554688"/>
     <use xlink:href="#DejaVuSans-20" x="657.03125"/>
     <use xlink:href="#DejaVuSans-72" x="688.818359"/>
     <use xlink:href="#DejaVuSans-65" x="727.681641"/>
     <use xlink:href="#DejaVuSans-64" x="789.205078"/>
     <use xlink:href="#DejaVuSans-75" x="852.681641"/>
     <use xlink:href="#DejaVuSans-63" x="916.060547"/>
     <use xlink:href="#DejaVuSans-65" x="971.041016"/>
     <use xlink:href="#DejaVuSans-64" x="1032.564453"/>
    </g>
   </g>
  </g>
 </g>
 <defs>
  <clipPath id="p4dbaff05dc">
   <rect x="585" y="129.6" width="3627" height="831.6"/>
  </clipPath>
 </defs>
</svg>
